<?xml version="1.0" encoding="utf-8"?>
<!-- Generator: Adobe Illustrator 17.1.0, SVG Export Plug-In . SVG Version: 6.00 Build 0)  -->
<!DOCTYPE svg PUBLIC "-//W3C//DTD SVG 1.1//EN" "http://www.w3.org/Graphics/SVG/1.1/DTD/svg11.dtd">
<svg version="1.1" id="Layer_1" xmlns="http://www.w3.org/2000/svg" xmlns:xlink="http://www.w3.org/1999/xlink" x="0px" y="0px"
	 viewBox="0 0 600 163.5" enable-background="new 0 0 600 163.5" xml:space="preserve">
<path fill="#231F20" d="M573.1,109.3v39.8h-19.2l0-39.8c0-10.8-4.2-17.2-14.7-17.2s-14.7,6.5-14.7,17.2v39.8h-19.2v-39.8
	c0-22.3,11.3-35,34-35C561.8,74.3,573.1,86.8,573.1,109.3"/>
<rect x="366.7" y="49.2" fill="#231F20" width="19.2" height="100"/>
<polygon fill="#231F20" points="466.3,76.9 444.2,76.9 418.3,108.9 418.3,49.3 399.1,49.3 399.1,149.2 418.3,149.2 418.3,114.6 
	444.2,149.2 467.6,149.2 437.7,110.3 "/>
<rect x="474.9" y="76.9" fill="#231F20" width="19.2" height="72.4"/>
<path fill="#231F20" d="M76.4,33.8c9.4,0,16.9-7.6,16.9-16.9C93.3,7.6,85.8,0,76.4,0c-9.3,0-16.9,7.6-16.9,16.9
	C59.5,26.3,67.1,33.8,76.4,33.8"/>
<path fill="#231F20" d="M61.4,50.7c-6.2,0-11.3,5.1-11.3,11.3c0,6.2,5,11.3,11.3,11.3c6.2,0,11.3-5,11.3-11.3
	C72.7,55.8,67.6,50.7,61.4,50.7"/>
<path fill="#231F20" d="M11.3,45.7C5,45.7,0,50.8,0,57c0,6.2,5,11.3,11.3,11.3c6.3,0,11.3-5.1,11.3-11.3
	C22.5,50.8,17.5,45.7,11.3,45.7"/>
<path fill="#231F20" d="M80.2,62c0,6.2,5,11.3,11.3,11.3c6.2,0,11.3-5,11.3-11.3c0-6.2-5-11.3-11.3-11.3
	C85.2,50.7,80.2,55.8,80.2,62"/>
<path fill="#231F20" d="M141.6,45.7c-6.2,0-11.3,5-11.3,11.3c0,6.2,5,11.3,11.3,11.3c6.2,0,11.3-5.1,11.3-11.3
	C152.9,50.8,147.8,45.7,141.6,45.7"/>
<path fill="#231F20" d="M61.4,80.8c-6.2,0-11.3,5.1-11.3,11.3c0,6.2,5,11.3,11.3,11.3c6.2,0,11.3-5.1,11.3-11.3
	C72.7,85.9,67.6,80.8,61.4,80.8"/>
<path fill="#231F20" d="M102.7,92.1c0-6.2-5-11.3-11.3-11.3c-6.2,0-11.3,5.1-11.3,11.3c0,6.2,5,11.3,11.3,11.3
	C97.7,103.4,102.7,98.3,102.7,92.1"/>
<path fill="#231F20" d="M46.4,141c-6.2,0-11.3,5.1-11.3,11.3c0,6.2,5.1,11.3,11.3,11.3c6.2,0,11.3-5,11.3-11.3
	C57.6,146,52.6,141,46.4,141"/>
<path fill="#231F20" d="M106.5,141c-6.2,0-11.3,5.1-11.3,11.3c0,6.2,5.1,11.3,11.3,11.3c6.2,0,11.3-5,11.3-11.3
	C117.8,146,112.7,141,106.5,141"/>
<path fill="#231F20" d="M484.5,45.6c-6.1,0-11.1,5-11.1,11.1c0,6.1,5,11.1,11.1,11.1c6.1,0,11.1-5,11.1-11.1
	C495.6,50.6,490.6,45.6,484.5,45.6"/>
<path fill="#231F20" d="M484.5,45.6c-6.1,0-11.1,5-11.1,11.1c0,6.1,5,11.1,11.1,11.1c6.1,0,11.1-5,11.1-11.1
	C495.6,50.6,490.6,45.6,484.5,45.6"/>
<polygon fill="#231F20" points="589.4,141.8 586.6,141.8 586.6,149.2 585.2,149.2 585.2,141.8 582.4,141.8 582.4,140.5 589.4,140.5 
	"/>
<polygon fill="#231F20" points="600,140.5 598.3,140.5 595.3,147 595.2,147 592.3,140.5 590.6,140.5 590.6,149.2 591.9,149.2 
	591.9,142.9 592,142.9 594.8,149.2 595.6,149.2 598.5,142.9 598.6,142.9 598.6,149.2 600,149.2 "/>
<path fill="#231F20" d="M240.4,74.4c-10.6,0-18.6,4.8-22.6,9.9V48.3h-20v64.2c0,22.8,15.9,38.7,38.5,38.7
	c22.6,0,38.6-15.8,38.6-38.4C274.9,89.9,261.1,74.4,240.4,74.4z M236.4,133.4c-10.9,0-19.2-8.9-19.2-20.6c0-11.7,8.3-20.6,19.2-20.6
	c10.9,0,19.1,8.9,19.1,20.6C255.6,124.6,247.3,133.4,236.4,133.4z"/>
<path fill="#231F20" d="M356.6,113.9c0-24.9-13.6-39.6-36.4-39.6c-21.6,0-37.9,16.8-37.9,39.1c0,22.6,15.6,37.8,39,37.8
	c13.8,0,23.3-5.1,28.9-9.6l-9.8-13.3c-5.3,4.6-11.6,6.5-19.2,6.5c-10.3,0-18.6-6.5-19.6-15.5h54.7
	C356.5,118.3,356.6,115.5,356.6,113.9z M301.8,106.3c1.3-9,7.4-16,17.8-16c10.5,0,16.3,7,17.6,16H301.8z"/>
</svg>
