<?xml version="1.0" encoding="utf-8"?>
<!-- Generator: Adobe Illustrator 26.2.1, SVG Export Plug-In . SVG Version: 6.00 Build 0)  -->
<svg version="1.1" id="Layer_1" xmlns="http://www.w3.org/2000/svg" xmlns:xlink="http://www.w3.org/1999/xlink" x="0px" y="0px"
	 viewBox="0 0 512 512" style="enable-background:new 0 0 512 512;" xml:space="preserve">
<style type="text/css">
	
		.st0{clip-path:url(#SVGID_00000036969469479073111070000001077261924205390724_);fill:url(#SVGID_00000025441632029256661550000011188758393769424310_);}
</style>
<g>
	<g>
		<defs>
			<path id="SVGID_1_" d="M507.53,286.04c-0.64,0-1.92,0.64-1.92,1.92c-5.11,14.7-12.14,23.65-17.9,23.65
				c-3.2,0-4.47-3.84-4.47-9.59c0-14.7,8.95-46.02,13.42-60.08c0.64-1.92,0.64-3.2,0.64-4.47c0-3.84-2.56-6.39-7.67-6.39
				c-5.75,0-12.78,2.56-18.54,13.42c-1.92-9.59-8.95-14.06-17.9-14.06c-10.87,0-21.09,7.03-29.4,17.9
				c-8.31,10.87-18.54,14.7-25.57,12.78c5.11-13.42,7.67-23.01,7.67-30.04c0-11.51-5.75-18.54-14.7-18.54
				c-14.06,0-21.73,13.42-21.73,27.49c0,10.87,5.11,21.73,15.34,27.49c-8.95,20.45-22.37,38.99-26.85,38.99
				c-6.39,0-8.31-31.32-7.67-54.33c0-12.78,1.28-13.42,1.28-17.26c0-2.56-1.28-3.84-7.03-3.84c-13.42,0-17.9,11.51-18.54,24.93
				c0,5.11-1.28,10.23-2.56,14.7c-5.75,20.45-17.26,35.8-24.93,35.8c-3.84,0-4.47-3.84-4.47-8.31c0-14.7,8.31-33.24,8.31-48.58
				c0-11.51-5.11-18.54-14.7-18.54c-10.87,0-26.21,13.42-39.63,38.35c4.47-19.18,6.39-37.71-7.03-37.71c-3.2,0-5.75,0.64-8.31,1.92
				c-1.92,0.64-3.2,2.56-2.56,4.47c1.28,20.45-16.62,72.23-33.24,72.23c-3.2,0-4.47-3.2-4.47-8.31c0-14.7,8.95-45.38,13.42-60.08
				c0.64-1.92,0.64-3.2,0.64-5.11c0-3.84-2.56-5.75-7.67-5.75c-5.75,0-12.78,2.56-18.54,13.42c-1.92-9.59-8.95-14.06-17.9-14.06
				c-15.34,0-31.96,15.98-38.99,36.43c-9.59,27.49-30.04,54.33-56.89,54.33c-24.29,0-37.07-20.45-37.07-52.41
				c-3.2-45.38,30.68-83.1,55.61-83.1c12.14,0,17.9,7.67,17.9,19.18c0,14.06-7.67,21.09-7.67,26.21c0,1.92,1.28,3.2,3.84,3.2
				c10.87,0,23.65-12.78,23.65-30.68c0-17.9-14.06-29.4-38.99-29.4C42.19,174.18,0,215.73,0,269.42c0,42.83,21.09,68.39,57.53,68.39
				c24.93,0,46.66-19.18,58.17-42.19c1.28,18.54,9.59,28.76,23.01,28.76c11.51,0,21.09-7.03,28.12-19.18
				c2.56,12.78,10.23,18.54,19.18,18.54c10.87,0,19.82-7.03,28.76-19.82c0,10.23,1.92,19.18,10.87,19.18c3.84,0,8.95-0.64,9.59-4.47
				c8.95-37.71,31.96-68.39,38.35-68.39c1.92,0,2.56,1.92,2.56,4.47c0,10.23-7.03,31.32-7.03,44.74c0,14.7,6.39,24.29,19.18,24.29
				c14.06,0,28.76-17.26,37.71-42.83c3.2,23.65,9.59,42.83,19.82,42.83c12.14,0,34.52-26.21,47.94-53.69
				c5.11,0.64,13.42,0.64,20.45-5.11c-3.2,8.31-5.11,17.26-5.11,26.21c0,25.57,12.14,32.6,23.01,32.6
				c11.51,0,21.09-7.03,28.12-19.18c2.56,10.87,8.31,18.54,19.18,18.54c17.26,0,32.6-17.9,32.6-31.96
				C511.36,288.6,509.44,286.04,507.53,286.04z M148.93,310.33c-7.03,0-9.59-7.03-9.59-17.26c0-17.9,12.14-48.58,25.57-48.58
				c5.75,0,7.67,7.03,7.67,15.34C172.58,277.73,161.08,310.33,148.93,310.33z M387.99,256c-4.47-5.11-5.75-11.51-5.75-17.9
				c0-7.67,2.56-13.42,5.75-13.42c3.2,0,4.47,3.2,4.47,7.67C392.47,239.38,389.91,250.25,387.99,256z M442.33,310.33
				c-7.03,0-9.59-8.31-9.59-17.26c0-17.26,12.14-48.58,25.57-48.58c5.75,0,7.67,7.03,7.67,15.34
				C465.98,277.73,454.47,310.33,442.33,310.33z"/>
		</defs>
		<clipPath id="SVGID_00000103240183216796054420000009867047550833848473_">
			<use xlink:href="#SVGID_1_"  style="overflow:visible;"/>
		</clipPath>
		
			<linearGradient id="SVGID_00000062165929190682929670000011895170831138617276_" gradientUnits="userSpaceOnUse" x1="1.1585" y1="7.4518" x2="7.5506" y2="7.4518" gradientTransform="matrix(40.6346 43.2929 -43.2929 40.6346 383.9608 -254.1629)">
			<stop  offset="0" style="stop-color:#00C4CC"/>
			<stop  offset="0.9122" style="stop-color:#7A28EB"/>
			<stop  offset="1" style="stop-color:#7A28EB"/>
		</linearGradient>
		
			<rect x="-1.92" y="165.23" style="clip-path:url(#SVGID_00000103240183216796054420000009867047550833848473_);fill:url(#SVGID_00000062165929190682929670000011895170831138617276_);" width="515.2" height="180.89"/>
	</g>
</g>
</svg>
