<?xml version="1.0" encoding="UTF-8" standalone="no"?>
<svg
   xmlns:dc="http://purl.org/dc/elements/1.1/"
   xmlns:cc="http://creativecommons.org/ns#"
   xmlns:rdf="http://www.w3.org/1999/02/22-rdf-syntax-ns#"
   xmlns:svg="http://www.w3.org/2000/svg"
   xmlns="http://www.w3.org/2000/svg"
   xmlns:sodipodi="http://sodipodi.sourceforge.net/DTD/sodipodi-0.dtd"
   xmlns:inkscape="http://www.inkscape.org/namespaces/inkscape"
   version="1.1"
   x="0px"
   y="0px"
   width="3000"
   height="500.08838"
   viewBox="0 0 3000 500.08838"
   xml:space="preserve"
   id="svg2"
   inkscape:version="0.91 r13725"
   sodipodi:docname="chanel.svg"><metadata
   id="metadata22"><rdf:RDF><cc:Work
       rdf:about=""><dc:format>image/svg+xml</dc:format><dc:type
         rdf:resource="http://purl.org/dc/dcmitype/StillImage" /><dc:title></dc:title></cc:Work></rdf:RDF></metadata><defs
   id="defs20" /><sodipodi:namedview
   pagecolor="#ffffff"
   bordercolor="#666666"
   borderopacity="1"
   objecttolerance="10"
   gridtolerance="10"
   guidetolerance="10"
   inkscape:pageopacity="0"
   inkscape:pageshadow="2"
   inkscape:window-width="1280"
   inkscape:window-height="721"
   id="namedview18"
   showgrid="false"
   fit-margin-top="20"
   fit-margin-right="20"
   fit-margin-bottom="20"
   fit-margin-left="20"
   inkscape:zoom="0.37266667"
   inkscape:cx="1500"
   inkscape:cy="250.04419"
   inkscape:window-x="-4"
   inkscape:window-y="-4"
   inkscape:window-maximized="1"
   inkscape:current-layer="svg2" />
<style
   type="text/css"
   id="style4">
<![CDATA[
	.st0{fill:#1D1D1B;}
]]>
</style>
<path
   d="M 248.17768,20 C 123.14728,20 20,115.63482 20,250.04419 c 0,134.40092 103.14728,230.0442 228.17768,230.0442 85.64549,0 161.28868,-46.23123 200.04777,-117.50804 l -77.51831,-44.38348 c -22.50445,46.25212 -68.14157,74.37991 -122.52946,74.37991 -78.144,0 -137.52768,-58.13876 -137.52768,-142.53259 0,-84.39383 59.38368,-142.53259 137.52768,-142.53259 54.38789,0 100.02501,28.13586 122.52946,74.39643 l 77.51831,-44.38348 C 409.46636,66.26466 333.82317,20 248.17768,20 Z m 309.42901,11.24866 0,437.57454 87.52813,0 0,-187.52723 218.79553,0 0,187.54376 87.51162,0 0,-437.59107 -87.51162,0 0,162.53571 -218.79553,0 0,-162.53571 -87.52813,0 z m 675.15091,0 -193.804,437.59107 95.6549,0 43.1281,-100.01563 228.7889,0 43.1446,100.01563 95.6384,0 -193.771,-437.59107 -118.7799,0 z m 400.079,0 0,437.59107 81.2513,0 0,-344.44688 234.438,344.44688 78.146,0 0,-437.59107 -81.2678,0 0,290.07008 -196.9095,-290.07008 -115.658,0 z m 562.5982,0 0,437.59107 325.088,0.0169 0,-81.26786 -243.8202,0 0,-100.01563 200.0478,0 0,-81.28437 -200.0478,0 0,-93.77188 231.2996,0 0,-81.26785 -312.5674,0 z m 465.7375,0 0,437.59107 0,0.0169 318.8277,0 0,-87.51161 -231.2996,0 0,-350.09598 -87.5281,0 z m -1369.033,71.88571 79.4014,184.42188 -158.8028,0 79.4014,-184.42188 z"
   id="path6"
   inkscape:connector-curvature="0" />





</svg>