<?xml version="1.0" encoding="utf-8"?>
<!-- Generator: Adobe Illustrator 26.5.0, SVG Export Plug-In . SVG Version: 6.00 Build 0)  -->
<svg version="1.1" id="Layer_1" xmlns="http://www.w3.org/2000/svg" xmlns:xlink="http://www.w3.org/1999/xlink" x="0px" y="0px"
	 viewBox="0 0 512 512" style="enable-background:new 0 0 512 512;" xml:space="preserve">
<style type="text/css">
	.st0{clip-path:url(#SVGID_00000101104815151686831490000007651440808390115757_);fill:#002A5F;}
	.st1{clip-path:url(#SVGID_00000152232636358184389450000014348688603066781359_);fill:#FFFFFF;}
	.st2{clip-path:url(#SVGID_00000002363330979544789990000009539710427525420209_);fill:#FFFFFF;}
	.st3{clip-path:url(#SVGID_00000083777780305521114360000014719835142452178861_);fill:#FFFFFF;}
</style>
<g id="XMLID_34_">
	<g id="XMLID_38_">
		<g>
			<defs>
				<rect id="SVGID_1_" width="512" height="512"/>
			</defs>
			<clipPath id="SVGID_00000166657753836642228910000005737180263670461864_">
				<use xlink:href="#SVGID_1_"  style="overflow:visible;"/>
			</clipPath>
			
				<polygon id="XMLID_39_" style="clip-path:url(#SVGID_00000166657753836642228910000005737180263670461864_);fill:#002A5F;" points="
				256,0 0,0 0,256 0,512 256,512 512,512 512,256 512,0 			"/>
		</g>
	</g>
	<g id="XMLID_42_">
		<g>
			<defs>
				<rect id="SVGID_00000023256231123934676340000007528617984606712469_" width="512" height="512"/>
			</defs>
			<clipPath id="SVGID_00000106145769760929149950000004314191749707066787_">
				<use xlink:href="#SVGID_00000023256231123934676340000007528617984606712469_"  style="overflow:visible;"/>
			</clipPath>
			<path id="XMLID_48_" style="clip-path:url(#SVGID_00000106145769760929149950000004314191749707066787_);fill:#FFFFFF;" d="
				M367.91,132.24h10.68c10.09,0,14.63,9.36,14.63,16.38v110.15c0,7.9-4.68,15.36-13.6,15.21h-11.7V132.24z M378.59,128.15h-42.13
				v4.1h11.12v247.52h-11.12v4.39H384v-4.39h-16.09V279.11h13.9c20.19,0,31.6-10.68,31.6-24.87v-98.89
				C413.4,141.02,403.46,128.15,378.59,128.15"/>
		</g>
	</g>
	<g id="XMLID_50_">
		<g>
			<defs>
				<rect id="SVGID_00000120543378566920055170000007433828054006406566_" width="512" height="512"/>
			</defs>
			<clipPath id="SVGID_00000022519209244160119690000008739379677038172089_">
				<use xlink:href="#SVGID_00000120543378566920055170000007433828054006406566_"  style="overflow:visible;"/>
			</clipPath>
			<path id="XMLID_51_" style="clip-path:url(#SVGID_00000022519209244160119690000008739379677038172089_);fill:#FFFFFF;" d="
				M155.21,131.51c0,4.1-2.34,3.8-4.24,2.49c-6.88-4.83-15.21-8.34-22.82-8.19c-12.29,0.15-29.84,6-29.84,31.89v189.73
				c0.15,32.91,16.09,39.06,31.74,39.35c12.14,0.15,17.99-6.29,22.82-8.48c2.63-1.17,5.41,1.46,5.41,6.29h5.12V263.9h10.09v-4.1
				h-42.86v4.1h12.43v103.86c0,8.48-5.71,14.77-12.87,14.77c-6.88,0-12.29-6.58-12.29-14.77V149.94c0-5.85,1.02-19.6,10.24-19.6
				c17.55,0.15,26.92,51.64,27.06,78.26h5.12V128h-4.97L155.21,131.51z"/>
		</g>
	</g>
	<g id="XMLID_57_">
		<g>
			<defs>
				<rect id="SVGID_00000160906420454612565850000006158807026760618678_" width="512" height="512"/>
			</defs>
			<clipPath id="SVGID_00000117637425834319938060000003739296111249390727_">
				<use xlink:href="#SVGID_00000160906420454612565850000006158807026760618678_"  style="overflow:visible;"/>
			</clipPath>
			<path id="XMLID_60_" style="clip-path:url(#SVGID_00000117637425834319938060000003739296111249390727_);fill:#FFFFFF;" d="
				M232.89,274.29l12.29-110.45l12.58,110.45H232.89z M258.34,278.82l11.41,100.79h-11.26V384h42.42v-4.39h-11.12L261.71,128h-17.99
				l-26.33,237.71c-1.61,8.48-2.34,13.75-14.63,14.04v4.39h31.74v-4.39c-8.92,0-13.02-5.71-12.14-11.85l9.95-88.94L258.34,278.82
				L258.34,278.82z"/>
		</g>
	</g>
</g>
</svg>
