<?xml version="1.0" encoding="utf-8"?>
<!-- Generator: Adobe Illustrator 26.0.3, SVG Export Plug-In . SVG Version: 6.00 Build 0)  -->
<svg version="1.0" id="katman_1" xmlns="http://www.w3.org/2000/svg" xmlns:xlink="http://www.w3.org/1999/xlink" x="0px" y="0px"
	 viewBox="0 0 600 450" style="enable-background:new 0 0 600 450;" xml:space="preserve">
<style type="text/css">
	.st0{clip-path:url(#SVGID_00000092427605041250371620000015961772604084931732_);fill:#010202;}
	.st1{clip-path:url(#SVGID_00000092427605041250371620000015961772604084931732_);fill:#EF785C;}
</style>
<g>
	<defs>
		<rect id="SVGID_1_" x="58.9" y="157" width="482.5" height="136.8"/>
	</defs>
	<clipPath id="SVGID_00000129884540386025537930000002416530198664073905_">
		<use xlink:href="#SVGID_1_"  style="overflow:visible;"/>
	</clipPath>
	<path style="clip-path:url(#SVGID_00000129884540386025537930000002416530198664073905_);fill:#010202;" d="M111.1,179.7v38.6H75.7
		v-38.6H58.9v92.1h16.8v-37.3h35.4v37.3H128v-92.1H111.1z"/>
	<path style="clip-path:url(#SVGID_00000129884540386025537930000002416530198664073905_);fill:#010202;" d="M181.8,242
		c0,3.7-1.5,7.2-4.1,9.8s-6.2,4.1-9.8,4.1c-3.7,0-7.2-1.5-9.8-4.1s-4.1-6.1-4.1-9.8v-39.4h-16V242c0,7.9,3.1,15.5,8.7,21.1
		c5.6,5.6,13.2,8.7,21.1,8.7c7.9,0,15.5-3.1,21.1-8.7c5.6-5.6,8.7-13.2,8.7-21.1v-39.4h-15.9V242z"/>
	<path style="clip-path:url(#SVGID_00000129884540386025537930000002416530198664073905_);fill:#010202;" d="M300,206.6
		c0-8.1,5.4-10.6,11.2-10.6c4.7,0,11,3.6,15,8l10.5-12.3c-5.2-7.1-15.8-11.9-24.5-11.9c-17.3,0-29.8,10.1-29.8,26.9
		c0,31.2,38.1,21.3,38.1,38.7c0,5.4-5.2,10.1-11.2,10.1c-9.4,0-12.5-4.6-16.8-9.5L280.9,258c7.4,9.1,16.6,13.7,27.5,13.7
		c16.4,0,29.7-10.3,29.7-26.3C338.1,210.9,300,221.6,300,206.6"/>
	<path style="clip-path:url(#SVGID_00000129884540386025537930000002416530198664073905_);fill:#010202;" d="M535.7,257
		c-9.4,0-12.1-4.1-12.1-10.3v-27.6h14.7v-14h-14.7v-18.5l-16.2,7.3v56.3c0,14.4,9.9,21.7,23.6,21.7c2.1,0,4.3-0.1,6.4-0.5l3.9-14.5
		C539.6,256.9,537.5,257,535.7,257"/>
	<path style="clip-path:url(#SVGID_00000129884540386025537930000002416530198664073905_);fill:#010202;" d="M242.5,203
		c-7.9,0-13.4,2.3-18.8,7.5v-30.3h-16v56.2c0,21,15.2,35.4,32.3,35.4c19,0,35.6-14.7,35.6-34.4C275.7,217.9,260.4,203,242.5,203
		L242.5,203z M242.4,255.8c-3.6,0-7.1-1.1-10.1-3.1c-3-2-5.3-4.8-6.7-8.1c-1.4-3.3-1.7-7-1-10.5c0.7-3.5,2.4-6.7,5-9.3
		c2.5-2.5,5.8-4.3,9.3-5c3.5-0.7,7.2-0.3,10.5,1c3.3,1.4,6.1,3.7,8.1,6.7c2,3,3.1,6.5,3.1,10.1c0,4.8-1.9,9.4-5.3,12.8
		C251.8,253.8,247.2,255.8,242.4,255.8z"/>
	<path style="clip-path:url(#SVGID_00000129884540386025537930000002416530198664073905_);fill:#010202;" d="M416,236.6
		c0-19.8-16.6-34.4-35.6-34.4c-17.1,0-32.3,14.4-32.3,35.4v56.2h16v-30.4c5.3,5.2,10.8,7.5,18.7,7.5C400.7,271,416,256.1,416,236.6
		L416,236.6z M400.9,236.4c0,3.6-1.1,7.1-3.1,10.1c-2,3-4.8,5.3-8.1,6.7c-3.3,1.4-7,1.7-10.5,1c-3.5-0.7-6.7-2.4-9.3-5
		c-2.5-2.5-4.3-5.8-5-9.3c-0.7-3.5-0.3-7.2,1-10.5c1.4-3.3,3.7-6.1,6.7-8.1c3-2,6.5-3.1,10.1-3.1c4.8,0,9.4,1.9,12.8,5.3
		C399,227,400.9,231.6,400.9,236.4z"/>
	<path style="clip-path:url(#SVGID_00000129884540386025537930000002416530198664073905_);fill:#EF785C;" d="M467.6,201.4v-16.1
		c2.1-1,3.9-2.6,5.2-4.5c1.3-2,1.9-4.3,1.9-6.6v-0.4c0-3.3-1.3-6.4-3.6-8.7c-2.3-2.3-5.5-3.6-8.7-3.6H462c-3.3,0-6.4,1.3-8.7,3.6
		c-2.3,2.3-3.6,5.5-3.6,8.7v0.4c0,2.3,0.7,4.6,1.9,6.6c1.3,2,3.1,3.5,5.2,4.5v16.1c-6.1,0.9-11.8,3.5-16.6,7.3l-44-34.3
		c0.3-1.1,0.5-2.3,0.5-3.5c0-2.8-0.8-5.4-2.3-7.7c-1.5-2.3-3.7-4.1-6.2-5.1c-2.5-1.1-5.3-1.3-8-0.8c-2.7,0.5-5.2,1.9-7.1,3.8
		c-1.9,1.9-3.3,4.4-3.8,7.1c-0.5,2.7-0.3,5.5,0.8,8c1,2.5,2.8,4.7,5.1,6.3c2.3,1.5,5,2.4,7.7,2.4c2.4,0,4.8-0.7,6.9-1.9l43.4,33.7
		c-3.9,5.9-5.9,12.8-5.8,19.9c0.1,7.1,2.3,13.9,6.4,19.7l-13.2,13.2c-1.1-0.3-2.2-0.5-3.3-0.5c-2.3,0-4.5,0.7-6.4,1.9
		c-1.9,1.3-3.3,3-4.2,5.1c-0.9,2.1-1.1,4.4-0.6,6.6c0.4,2.2,1.5,4.3,3.1,5.9c1.6,1.6,3.6,2.7,5.9,3.1c2.2,0.4,4.5,0.2,6.6-0.6
		c2.1-0.9,3.9-2.3,5.1-4.2c1.3-1.9,1.9-4.1,1.9-6.4c0-1.1-0.2-2.2-0.5-3.3l13-13c4.3,3.3,9.2,5.5,14.5,6.6
		c5.3,1.1,10.7,0.9,15.9-0.4c5.2-1.4,10-3.9,14.1-7.4c4.1-3.5,7.3-7.9,9.4-12.8c2.1-4.9,3.1-10.3,2.8-15.7
		c-0.3-5.4-1.8-10.6-4.4-15.3c-2.6-4.7-6.3-8.7-10.7-11.8C478,204.2,473,202.2,467.6,201.4z M462.2,254.2c-3.6,0-7.1-1.1-10-3
		c-3-2-5.3-4.8-6.6-8.1c-1.4-3.3-1.7-6.9-1-10.4c0.7-3.5,2.4-6.7,4.9-9.2c2.5-2.5,5.7-4.2,9.2-4.9s7.1-0.3,10.4,1
		c3.3,1.4,6.1,3.7,8.1,6.6c2,3,3,6.5,3,10c0,4.8-1.9,9.4-5.3,12.8C471.6,252.3,467,254.2,462.2,254.2"/>
</g>
</svg>
