<?xml version="1.0" encoding="utf-8"?>
<!-- Generator: Adobe Illustrator 26.0.3, SVG Export Plug-In . SVG Version: 6.00 Build 0)  -->
<svg version="1.0" id="svg855" xmlns="http://www.w3.org/2000/svg" xmlns:xlink="http://www.w3.org/1999/xlink" x="0px" y="0px"
	 viewBox="0 0 2937.9 2122.2" style="enable-background:new 0 0 2937.9 2122.2;" xml:space="preserve">
<style type="text/css">
	.st0{fill:#0058A3;}
	.st1{fill:#FFDB00;}
</style>
<g id="layer1">
	<path id="path836" class="st0" d="M2630,1534.4H313.2v-941h2317.1v941H2630z"/>
	<path id="path838" class="st1" d="M358.4,1063.9c0,227.4,466.5,416.4,1113.4,416.4s1113.1-189,1113.1-416.4
		s-466.5-416.4-1113.1-416.4S358.4,836.5,358.4,1063.9z"/>
	<path id="path840" class="st0" d="M1096.6,882.9c-5,10-5,19.6-5,29.6V1037c0,0,66.7-86.7,82-107.3c11.6-15.3,25.9-36.8,25.9-46.8
		h217.8c-15,10-31.6,27.9-45.2,44.5c-12,14.6-79.7,97.3-79.7,97.3s100.6,153.1,113.6,172.7c7.2,10.7,15.4,20.6,24.6,29.6h-250.7
		c0-10-9.6-30.2-20.2-46.2c-10.6-15.9-68.1-103.3-68.1-103.3v119.9c0,10,0,19.6,5,29.6H887.7c5-10,5-19.6,5-29.6V912.5
		c0-10,0-19.6-5-29.6H1096.6z M1869.9,882.9h-403.1c5,10,5,19.6,5,29.6v284.9c0,10,0,19.6-5,29.6h403.1v-95.3c-10,5-19.6,5-29.6,5
		h-169.7v-45.2h163v-72.7h-163v-45.5h169.7c10,0,19.6,0,29.6,4.6V882.9z M2428.4,1197.4c3.3,10.9,8.9,20.9,16.3,29.6h-218.5
		c1-10-2.7-19.6-6.6-29.6c0,0-3.3-8-8-19.6l-2-5h-125.8l-2,5.3c0,0-3.7,9.6-7,19.6c-3.4,10-7,19.6-5.7,29.6h-172.3
		c7.1-8.8,12.4-18.8,15.6-29.6l103.3-284.9c3.7-10,7.3-19.6,6-29.5h291.2c-2.7,10,2.7,19.6,6.3,29.5
		C2327.9,934.4,2421.2,1178.1,2428.4,1197.4 M2182.1,1100.1l-30.5-79.7c-2.7-7.4-4.9-14.9-6.7-22.6c-1.3,7.7-3.3,15.2-6,22.6
		c-1,3.3-14,38.2-28.9,79.7H2182.1z M783.8,912.5c0-10,0-19.6,5-29.6H561.6c5,10,5,19.6,5,29.6v284.9c0,10,0,19.6-5,29.6h227.1
		c-5-10-5-19.6-5-29.6L783.8,912.5z M2358.8,910.2c-0.7,25,19,45.9,44.1,46.6c25,0.7,45.9-19,46.6-44.1c0-0.1,0-0.1,0-0.2v-2.3
		c0.5-24.4-18.9-44.6-43.3-45.2c-0.1,0-0.1,0-0.2,0h-1.7c-23.9-1-44.1,17.5-45.2,41.4c0,0.3,0,0.5,0,0.8
		C2358.4,908.1,2358.3,909.2,2358.8,910.2 M2440.1,910.2c0.4,20-15.5,36.5-35.5,36.9c-19.8,0.4-36.2-15.2-36.9-34.9v-2.3
		c-0.7-19.3,14.3-35.5,33.5-36.2c0,0,0,0,0,0h2.7c19.6-0.4,35.8,15.2,36.2,34.9V910.2 M2426.1,937.5h-9l-10.6-19.3h-11.6v19.3h-8
		v-54.5h20.3c9.5,0.2,17.1,8.1,16.9,17.6c0,6.7-3.7,12.8-9.6,15.9L2426.1,937.5z M2405.9,910.2c5,0.5,9.5-3.3,10-8.3
		c0-0.2,0-0.5,0-0.7c0-5.3-3.6-10-9-10h-12v19.2h11"/>
</g>
</svg>
