<?xml version="1.0" encoding="utf-8"?>
<!-- Generator: Adobe Illustrator 25.4.1, SVG Export Plug-In . SVG Version: 6.00 Build 0)  -->
<svg version="1.0" id="katman_1" xmlns="http://www.w3.org/2000/svg" xmlns:xlink="http://www.w3.org/1999/xlink" x="0px" y="0px"
	 viewBox="0 0 1280 1024" style="enable-background:new 0 0 1280 1024;" xml:space="preserve">
<style type="text/css">
	.st0{clip-path:url(#SVGID_00000151526556434426537930000015936600561289896114_);fill:#1D1D1B;}
</style>
<g>
	<defs>
		<rect id="SVGID_1_" x="75.4" y="336.5" width="1129.7" height="350.7"/>
	</defs>
	<clipPath id="SVGID_00000013177960629067312670000017399722996371832208_">
		<use xlink:href="#SVGID_1_"  style="overflow:visible;"/>
	</clipPath>
	<path style="clip-path:url(#SVGID_00000013177960629067312670000017399722996371832208_);fill:#1D1D1B;" d="M92,352.9
		c0-2.7-7.6-9.9-10.1-9.9h-6.5v-6.5h38.3l39.4,99.2h0.9l41.5-99.2h34.3v6.5h-6.5c-2.5,0-10.1,7.2-10.1,9.9v98.6
		c0,2.7,7.6,9.9,10.1,9.9h6.5v6.5h-50.9v-6.5h6.5c2.5,0,10.1-7.2,10.1-9.9v-95.7l-47.9,114.5L99.7,353.8v97.7
		c0,2.7,7.6,9.9,10.1,9.9h6.5v6.5h-41v-6.5h6.5c2.5,0,10.1-7.2,10.1-9.9V352.9z"/>
	<path style="clip-path:url(#SVGID_00000013177960629067312670000017399722996371832208_);fill:#1D1D1B;" d="M285.1,411.8
		c2.3-13.2,0.2-25.1-14.4-25.1c-17,0-25.3,13.5-25.3,33.6c0,19,12.1,34.7,31.6,34.7c14.8,0,21.1-5.2,27.1-15.2h5.2
		c-5.6,18.6-17,30.3-38.3,30.3c-23.7,0-39-20.2-39-44.4c0-27.5,18.2-45.5,40.6-45.5c13.4,0,22.4,4.2,30.2,11.9l-12.5,19.3
		L285.1,411.8z"/>
	<path style="clip-path:url(#SVGID_00000013177960629067312670000017399722996371832208_);fill:#1D1D1B;" d="M457.1,362.5
		c6.3,0,11-4.3,11-11c0-6.7-4.7-10.8-11-10.8c-6.3,0-11.2,4.1-11.2,10.8C445.9,358.2,450.7,362.5,457.1,362.5"/>
	<path style="clip-path:url(#SVGID_00000013177960629067312670000017399722996371832208_);fill:#1D1D1B;" d="M578.1,461.5
		c-2.5,0-9.4-6.1-9.4-9v-47.5c0-14.6-10.5-24.4-23.7-24.4c-15.4,0-23.3,8.9-33.6,19.3l-3.3-17.5h-26.9v6.5h5.2c2.5,0,9.4,6.3,9.4,9
		v54.5c0,2.9-6.9,9-9.4,9h-5.2H476c-2.3,0-9.4-6.1-9.4-9v-70.1h-30.5v6.5h5.2c2.5,0,9.4,6.3,9.4,9v54.5c0,2.9-6.9,9-9.4,9h-5.2h-4.3
		c-2.7,0-13.4-8.1-15.5-11l-46.1-61.2l32-34.3c1.8-2,14.3-11.9,16.8-11.9h6.3v-6.5h-47.7v6.5h6.3c2.5,0,9.9,9,7.9,11.4l-47,52.4
		v-53.8c0-2.7,7.6-9.9,10.1-9.9h6.5v-6.5h-51.3v6.5h6.5c2.5,0,10.1,7.2,10.1,9.9v98.6c0,2.7-7.6,9.9-10.1,9.9h-6.5v6.5h51.3v-6.5
		H355c-2.5,0-10.1-7.2-10.1-9.9v-34.9l13.4-14.4l45.5,65.7h32.3h45.1h44.6v-6.5H521c-2.5,0-9.4-6.1-9.4-9v-43.5
		c0-5.8,15.7-17.7,27.8-17.7c9.2,0,13.5,6.3,13.5,14.6v46.6c0,2.9-6.9,9-9.4,9h-4.9v6.5h43.7v-6.5H578.1z"/>
	<path style="clip-path:url(#SVGID_00000013177960629067312670000017399722996371832208_);fill:#1D1D1B;" d="M593.9,438
		c0,7.9,11.6,25.1,30,25.1c10.7,0,16.6-3.8,16.6-11.7c0-9.6-8.5-12.8-16.1-16.1c-6-2.5-10.8-4.5-17.7-7.6
		c-10.3-4.7-18.1-11.6-18.1-23.3c0-15.4,9.2-24.2,25.6-24.2c9.4,0,14.6,4.5,21.1,4.5c2.5,0,4-0.5,4.7-2.3h4.7v26.4h-5.2
		c0-7-9.9-22-25.8-22c-9.9,0-14.6,4.3-14.6,11.4c0,7.4,5.1,10.1,13.9,13.9c6.5,2.7,11.4,4.9,18.4,7.6c9.2,3.6,19.7,11,19.7,24.7
		c0,16.3-11.2,25.8-27.3,25.8c-10.8,0-17.2-5.1-24.6-5.1c-3.4,0-4.3,0.9-6.5,2.9h-4.1v-30H593.9z"/>
	<path style="clip-path:url(#SVGID_00000013177960629067312670000017399722996371832208_);fill:#1D1D1B;" d="M656.4,425.2
		c0-25.3,17.2-45,39.2-44.8c19.3,0.2,30.2,13.4,31.1,30l0.4,6.1l-56.9,4.5c0,17.2,11.9,34.1,31.2,34.1c14.6,0,21.3-5.6,26.5-15.4
		h5.2C727.6,458.4,717,470,696,470C672.2,470,656.4,449.2,656.4,425.2 M712.4,411.3c1.4-12.1-0.5-24.4-17.2-24.4
		c-17.7,0-24.7,14.6-25.3,28L712.4,411.3z"/>
	<path style="clip-path:url(#SVGID_00000013177960629067312670000017399722996371832208_);fill:#1D1D1B;" d="M741.7,398.6
		c-1.3-2.9-8.9-9.8-11-9.8h-3.8v-6.5h45.3v6.5H767c-2.4,0-7.6,6-7.6,9.2l19.9,45.7l19.5-45.5c0.2-3.4-5.1-9.4-7.4-9.4h-5.2v-6.5
		h34.1v6.5h-4c-2,0-8.1,6.5-9.9,9.4l-29.1,65.6l-21.5,47.3l-7.8-3.6l22.8-46.6L741.7,398.6z"/>
	<path style="clip-path:url(#SVGID_00000013177960629067312670000017399722996371832208_);fill:#1D1D1B;" d="M329.4,535.9
		c0,10.5,7.2,19,18.6,23.3c17,18.2,37.4,37.6,55.3,53.5c5.1-8.3,6.9-17.2,6.9-28c0-12.1-7.9-19.3-20.8-19.7v-6.5h46.6v6.5h-5.1
		c-2.5,0-11.6,10.3-11.7,14.3c-0.4,11.2-3.4,25.1-11.7,37c9.6,8.3,19.1,16.1,26.7,21.3h7.9v6.5h-14.3c-12.8,0-21.9-3.4-32.7-13.4
		c-10.5,10.1-23.8,15.7-43.2,15.7c-21.3,0-41.7-15.7-41.7-38.8c0-18.2,9.2-31.6,21.1-39.9c-6.3-8.1-10.7-15.9-10.7-27.5
		c0-18.8,12.3-29.3,31.6-29.3c12.1,0,18.4,4,24,4c2.9,0,4.7-0.2,6.1-2.3h5.6v31.1h-5.6c0-8.9-13-26.6-30.5-26.6
		C337.8,517.1,329.4,524,329.4,535.9 M323.8,599.1c0,18.8,20.1,36.8,38.8,36.8c11.7,0,21.1-3.3,28.5-8.9
		c-19.1-16.4-40.5-37-56.9-55.8C327.4,578.3,323.8,585.5,323.8,599.1"/>
	<path style="clip-path:url(#SVGID_00000013177960629067312670000017399722996371832208_);fill:#1D1D1B;" d="M577,559.2
		c0-13.5-15.2-41-39.9-41c-22.8,0-36.3,12.6-38.6,42.3c-0.9,11.6-0.5,21.8,0.4,33.4c2.2,22.9,18.1,41.9,44.8,41.9
		c22.8,0,33.8-9.6,42.3-26.9h6.9c-8.5,23.5-26.9,37.6-53.1,37.6c-37.8,0-62.1-31.1-62.1-68.6c0-37.6,22-67.5,58.9-67.5
		c14.1,0,22.9,5.8,33.2,5.8c4.2,0,6.1-1.1,8.1-3.4h4.9v46.6H577z"/>
	<path style="clip-path:url(#SVGID_00000013177960629067312670000017399722996371832208_);fill:#1D1D1B;" d="M601.6,601.2
		c0-27.6,19.9-45,42.4-45c22.6,0,42.4,17.3,42.4,45c0,27.6-19.9,45.2-42.4,45.2C621.5,646.4,601.6,628.9,601.6,601.2 M669.3,615.5
		c1.1-8.7,1.1-20.4,0-29.1c-1.6-13.7-9.2-22.9-25.1-22.9c-15.4,0-23.1,9.2-25.1,22.8c-1.3,8.3-1.3,20.6,0,29.1
		c2,13.2,9.4,22.9,25.1,22.9C660.3,638.3,667.7,628.9,669.3,615.5"/>
	<path style="clip-path:url(#SVGID_00000013177960629067312670000017399722996371832208_);fill:#1D1D1B;" d="M825,628.5
		c0,2.9,6.5,9,9,9h4v6.5h-42.6v-6.5h4.9c2.5,0,9-6.1,9-9V581c0-8.3-4.2-14.1-13.4-14.1c-11.2,0-25.1,10.8-25.1,16.6v45
		c0,2.9,6.5,9,9,9h4.9v6.5h-43.5v-6.5h4.9c2.5,0,9-6.1,9-9V581c0-8.3-4.3-14.1-13.5-14.1c-11.2,0-25.1,11.4-25.1,17.2v44.4
		c0,2.9,6.5,9,9,9h4.9v6.5h-43.5v-6.5h4.9c2.5,0,9-6.1,9-9V574c0-2.7-6.5-9-9-9h-4.9v-6.5H713l3.4,16.4
		c9.8-10.3,16.1-18.2,31.1-18.2c11.4,0,21,6.1,22.6,18.1c10.5-10.3,17.2-17.9,31.6-17.9c12.8,0,23.3,8.7,23.3,24.2V628.5z"/>
	<path style="clip-path:url(#SVGID_00000013177960629067312670000017399722996371832208_);fill:#1D1D1B;" d="M863.3,558.5l2.9,17.5
		c7.4-13.7,16.8-19.7,30.9-19.7c20.8,0,33.4,17.5,33.4,43.7c0,26.2-14.4,45.9-35.2,45.9c-15,0-22.9-5.8-29.1-16.8v40.8
		c0,2.9,6.7,9,9,9h5.6v6.5h-45.1v-6.5h5.6c2.5,0,9-6.1,9-9V574c0-2.7-6.5-9-9-9h-5.6v-6.5H863.3z M866,589.7v22.4
		c0,13.4,10.3,24.7,24.7,24.7c14.6,0,21.5-9.2,23.3-22.8c1.1-8.1,1.3-17.5,0.2-25.5c-1.8-13.6-9.2-22.2-21.5-22.2
		C878.2,566.4,870.1,576.3,866,589.7"/>
	<path style="clip-path:url(#SVGID_00000013177960629067312670000017399722996371832208_);fill:#1D1D1B;" d="M1115.9,637.6
		c-2.5,0-9.4-6.1-9.4-9V581c0-14.6-10.5-24.4-23.7-24.4c-15.4,0-23.3,8.8-33.6,19.3l-3.2-17.5h-26.9v6.5h5.2c2.5,0,9.4,6.3,9.4,9
		v54.5c0,2.9-6.9,9-9.4,9h-5.2h-5.1c-2.3,0-9.4-6.1-9.4-9v-46.6c0-16.8-13.5-25.5-32-25.5c-17.3,0-27.3,6-34.3,13.2l11.4,17.2h6.1
		c-6.3-14.6-1.6-24,13-24c15.4,0,20.2,6.9,20,19l-0.2,10.7l-22,4.5c-12.1,2.5-27.6,8.5-27.6,25.5c0,13.9,9.9,23.3,21.7,23.3
		c12.6,0,21.7-9.9,28.5-18.8l2.2,17.2h27.6h44.6v-6.5h-4.9c-2.5,0-9.4-6.1-9.4-9V585c0-5.8,15.7-17.7,27.8-17.7
		c9.2,0,13.5,6.3,13.5,14.6v46.6c0,2.9-6.9,9-9.4,9h-4.9v6.5h43.7v-6.5H1115.9z M988.9,619c-3.6,6.3-12.6,15-21,15
		c-8.5,0-13.7-6.3-13.7-13.7c0-8.5,3.6-14.3,14.3-17l20.4-5.2V619z"/>
	<path style="clip-path:url(#SVGID_00000013177960629067312670000017399722996371832208_);fill:#1D1D1B;" d="M1126.5,574.7
		c-1.3-2.9-8.9-9.8-11-9.8h-3.8v-6.5h45.3v6.5h-5.2c-2.4,0-7.6,6-7.6,9.2l19.9,45.7l19.5-45.5c0.2-3.4-5.1-9.4-7.4-9.4h-5.2v-6.5
		h34.1v6.5h-4c-2,0-8.1,6.5-9.9,9.4l-29.1,65.6l-21.5,47.3l-7.8-3.6l22.8-46.6L1126.5,574.7z"/>
</g>
</svg>
