<?xml version="1.0" encoding="utf-8"?>
<!-- Generator: Adobe Illustrator 27.6.1, SVG Export Plug-In . SVG Version: 6.00 Build 0)  -->
<svg version="1.1" id="Layer_1" xmlns="http://www.w3.org/2000/svg" xmlns:xlink="http://www.w3.org/1999/xlink" x="0px" y="0px"
	 viewBox="0 0 512 512" style="enable-background:new 0 0 512 512;" xml:space="preserve">
<style type="text/css">
	.st0{fill:#05BDBA;}
	.st1{fill:#014847;}
</style>
<g>
	<path class="st0" d="M117.4,359v-52.4l1.1-1.1h10.9l1.1,1.1V359l-1.1,1.1h-10.9L117.4,359z"/>
	<path class="st0" d="M117.4,205.5V153l1.1-1.1h10.9l1.1,1.1v52.4l-1.1,1.1h-10.9L117.4,205.5z"/>
	<path class="st0" d="M70,321.2h-1.5l-7.7-7.7v-1.5l18-18l8.2,0L88,295v8.2L70,321.2z"/>
	<path class="st0" d="M69.9,190.8h-1.5l-7.7,7.7v1.5l18,18l8.2,0L88,217v-8.2L69.9,190.8z"/>
	<path class="st0" d="M1.1,249.4h74.3l1.1,1.1v10.9l-1.1,1.1H1.1L0,261.5v-10.9L1.1,249.4z"/>
	<path class="st0" d="M441,249.4h69.9l1.1,1.1v10.9l-1.1,1.1h-74.3l-1.1-1.1l4.4-10.9L441,249.4z"/>
	<path class="st1" d="M212.1,260.7l-1.1,1.1h-33.9l-1.1,1.1c0,2.2,2.2,8.7,10.9,8.7c3.3,0,6.6-1.1,7.6-3.3l1.1-1.1h13.1l1.1,1.1
		c-1.1,6.6-6.6,16.4-23,16.4c-18.6,0-27.3-13.1-27.3-28.4c0-15.3,8.7-28.4,26.2-28.4c17.5,0,26.2,13.1,26.2,28.4V260.7L212.1,260.7z
		 M195.7,249.7c0-1.1-1.1-8.7-9.8-8.7c-8.7,0-9.8,7.6-9.8,8.7l1.1,1.1h17.5L195.7,249.7z"/>
	<path class="st1" d="M242.7,267.2c0,2.2,1.1,3.3,3.3,3.3h9.8l1.1,1.1v10.9l-1.1,1.1h-9.8c-9.8,0-18.6-4.4-18.6-16.4v-24l-1.1-1.1
		h-7.6l-1.1-1.1v-10.9l1.1-1.1h7.6l1.1-1.1V218l1.1-1.1h13.1l1.1,1.1v9.8l1.1,1.1h12l1.1,1.1V241l-1.1,1.1h-12l-1.1,1.1L242.7,267.2
		L242.7,267.2z"/>
	<path class="st1" d="M283.1,283.6H270l-1.1-1.1v-74.3l1.1-1.1h13.1l1.1,1.1v74.3L283.1,283.6z"/>
	<path class="st1" d="M312.6,220.2h-13.1l-1.1-1.1v-10.9l1.1-1.1h13.1l1.1,1.1v10.9L312.6,220.2z M312.6,283.6h-13.1l-1.1-1.1v-52.5
		l1.1-1.1h13.1l1.1,1.1v52.5L312.6,283.6z"/>
	<path class="st1" d="M364,208.2v10.9l-1.1,1.1H353c-2.2,0-3.3,1.1-3.3,3.3v4.4l1.1,1.1h10.9l1.1,1.1V241l-1.1,1.1h-10.9l-1.1,1.1
		v39.3l-1.1,1.1h-13.1l-1.1-1.1v-39.3l-1.1-1.1h-7.6l-1.1-1.1v-10.9l1.1-1.1h7.6l1.1-1.1v-4.4c0-12,8.7-16.4,18.6-16.4h9.8
		L364,208.2L364,208.2z"/>
	<path class="st1" d="M404.4,284.7c-4.4,10.9-8.7,17.5-24,17.5h-5.5l-1.1-1.1v-10.9l1.1-1.1h5.5c5.5,0,6.6-1.1,7.6-4.4v-1.1
		L370.5,241v-10.9l1.1-1.1h9.8l1.1,1.1l13.1,37.2h1.1l13.1-37.2l1.1-1.1h9.8l1.1,1.1V241L404.4,284.7L404.4,284.7z"/>
	<path class="st1" d="M135.5,283.6l-1.1-1.1l0-31.7c0-5.5-2.1-9.7-8.7-9.8c-3.4-0.1-7.3,0-11.4,0.2l-0.6,0.6l0,40.7l-1.1,1.1H99.4
		l-1.1-1.1v-53l1.1-1.1l29.5-0.3c14.8,0,20.8,10.2,20.8,21.6v32.8l-1.1,1.1H135.5z"/>
</g>
</svg>
