<?xml version="1.0" encoding="utf-8"?>
<!-- Generator: Adobe Illustrator 24.1.1, SVG Export Plug-In . SVG Version: 6.00 Build 0)  -->
<svg version="1.1" id="Layer_1" xmlns="http://www.w3.org/2000/svg" xmlns:xlink="http://www.w3.org/1999/xlink" x="0px" y="0px"
	 viewBox="0 0 512 512" style="enable-background:new 0 0 512 512;" xml:space="preserve">
<style type="text/css">
	.st0{fill:#EA1B22;}
</style>
<g>
	<path class="st0" d="M221,266h33.8L237,237.2l-32.8,52h-14.9l39.9-62.5c1.7-2.5,4.6-4.1,7.8-4.1c3.1,0,6,1.5,7.7,3.9l40.1,62.6
		h-14.9l-7.1-11.6h-34.3L221,266z M376.3,277.7v-54.3h-12.7V283c0,1.6,0.6,3.2,1.8,4.4c1.2,1.2,2.8,1.9,4.6,1.9h57.8l7.5-11.6H376.3
		z M166.5,267.9c12.3,0,22.3-9.9,22.3-22.3c0-12.3-10-22.3-22.3-22.3H111v65.9h12.7V235h42c5.9,0,10.6,4.8,10.6,10.7
		c0,5.9-4.7,10.7-10.6,10.7l-35.7-0.1l37.9,33h18.4l-25.5-21.4H166.5z M33,289.3c-18.2,0-33-14.7-33-32.9s14.8-33,33-33h38.3
		c18.2,0,33,14.8,33,33s-14.8,32.9-33,32.9H33z M70.4,277.7c11.8,0,21.3-9.5,21.3-21.3c0-11.8-9.5-21.4-21.3-21.4H33.8
		c-11.8,0-21.3,9.6-21.3,21.4c0,11.8,9.6,21.3,21.3,21.3H70.4z M311.2,289.3c-18.2,0-33-14.7-33-32.9s14.8-33,33-33h45.5l-7.4,11.6
		h-37.3c-11.8,0-21.4,9.6-21.4,21.4c0,11.8,9.6,21.3,21.4,21.3h45.7l-7.5,11.6H311.2z M466.3,277.7c-9.7,0-18-6.5-20.5-15.5H500
		l7.5-11.6h-61.7c2.5-8.9,10.8-15.5,20.5-15.5h37.2l7.5-11.6h-45.6c-18.2,0-33,14.8-33,33s14.8,32.9,33,32.9h39.1l7.5-11.6H466.3z"
		/>
</g>
</svg>
