<?xml version="1.0" encoding="utf-8"?>
<!-- Generator: Adobe Illustrator 26.5.0, SVG Export Plug-In . SVG Version: 6.00 Build 0)  -->
<svg version="1.1" id="Layer_1" xmlns="http://www.w3.org/2000/svg" xmlns:xlink="http://www.w3.org/1999/xlink" x="0px" y="0px"
	 viewBox="0 0 512 512" style="enable-background:new 0 0 512 512;" xml:space="preserve">
<style type="text/css">
	.st0{fill:#00A1E0;}
	.st1{fill:#FFFFFF;}
</style>
<g id="XMLID_1_">
	<path id="XMLID_3_" class="st0" d="M213.08,115.87c16.55-17.25,39.56-27.91,64.95-27.91c33.81,0,63.26,18.8,78.97,46.85
		c13.61-6.03,28.76-9.54,44.61-9.54c61.02,0,110.4,49.8,110.4,111.38c0,61.44-49.38,111.38-110.4,111.38
		c-7.43,0-14.73-0.7-21.74-2.1c-13.89,24.69-40.12,41.38-70.42,41.38c-12.62,0-24.69-2.95-35.35-8.14
		c-14.03,32.96-46.71,56.11-84.73,56.11c-39.7,0-73.36-25.11-86.41-60.32c-5.61,1.26-11.5,1.82-17.53,1.82
		C38.29,376.78,0,338.06,0,290.37c0-31.98,17.25-59.9,42.78-74.77c-5.19-12.06-8.14-25.39-8.14-39.56
		c0-54.85,44.47-99.31,99.45-99.31C166.22,76.87,194.84,92.16,213.08,115.87"/>
	<path id="XMLID_4_" class="st1" d="M74.2,262.59c-0.28,0.84,0.14,0.98,0.28,1.12c0.98,0.7,1.96,1.26,2.95,1.82
		c5.19,2.81,10.1,3.65,15.29,3.65c10.52,0,16.97-5.61,16.97-14.59v-0.14c0-8.28-7.29-11.36-14.31-13.47l-0.84-0.28
		c-5.19-1.68-9.68-3.09-9.68-6.59v-0.14c0-2.95,2.67-5.05,6.73-5.05c4.49,0,9.96,1.54,13.33,3.37c0,0,0.98,0.7,1.4-0.28
		c0.14-0.56,1.96-5.19,2.1-5.75s-0.14-0.98-0.56-1.12c-3.93-2.38-9.4-4.07-15.01-4.07h-0.98c-9.68,0-16.27,5.75-16.27,14.17v0.14
		c0,8.84,7.43,11.64,14.31,13.61l1.12,0.28c5.05,1.54,9.4,2.95,9.4,6.45v0.14c0,3.23-2.81,5.61-7.43,5.61c-1.82,0-7.43,0-13.47-3.93
		c-0.7-0.42-1.12-0.7-1.68-1.12c-0.28-0.14-0.98-0.56-1.4,0.42L74.2,262.59z"/>
	<path id="XMLID_5_" class="st1" d="M227.95,262.59c-0.28,0.84,0.14,0.98,0.28,1.12c0.98,0.7,1.96,1.26,2.95,1.82
		c5.19,2.81,10.1,3.65,15.29,3.65c10.52,0,16.97-5.61,16.97-14.59v-0.14c0-8.28-7.29-11.36-14.31-13.47l-0.84-0.28
		c-5.19-1.68-9.68-3.09-9.68-6.59v-0.14c0-2.95,2.67-5.05,6.73-5.05c4.49,0,9.96,1.54,13.33,3.37c0,0,0.98,0.7,1.4-0.28
		c0.14-0.56,1.96-5.19,2.1-5.75c0.14-0.56-0.14-0.98-0.56-1.12c-3.93-2.38-9.4-4.07-15.01-4.07h-0.98
		c-9.68,0-16.27,5.75-16.27,14.17v0.14c0,8.84,7.43,11.64,14.31,13.61l1.12,0.28c5.05,1.54,9.4,2.95,9.4,6.45v0.14
		c0,3.23-2.81,5.61-7.43,5.61c-1.82,0-7.43,0-13.47-3.93c-0.7-0.42-1.12-0.7-1.68-1.12c-0.14-0.14-1.12-0.42-1.4,0.42L227.95,262.59
		z"/>
	<path id="XMLID_8_" class="st1" d="M332.87,245.06c0,5.05-0.98,9.12-2.81,11.92c-1.82,2.81-4.63,4.21-8.56,4.21
		c-3.93,0-6.73-1.4-8.56-4.21c-1.82-2.81-2.81-6.87-2.81-11.92s0.98-9.12,2.81-11.92c1.82-2.81,4.63-4.07,8.56-4.07
		s6.73,1.4,8.56,4.07C331.89,235.94,332.87,240.01,332.87,245.06 M341.71,235.66c-0.84-2.95-2.24-5.47-3.93-7.57
		c-1.82-2.1-4.07-3.93-6.73-5.19c-2.67-1.26-5.89-1.82-9.4-1.82c-3.51,0-6.73,0.7-9.4,1.82c-2.67,1.26-4.91,2.95-6.73,5.19
		c-1.82,2.1-3.09,4.77-3.93,7.57c-0.84,2.95-1.26,6.03-1.26,9.4s0.42,6.59,1.26,9.4c0.84,2.95,2.24,5.47,3.93,7.57
		c1.82,2.1,4.07,3.93,6.73,5.05c2.67,1.26,5.89,1.82,9.4,1.82c3.51,0,6.73-0.56,9.4-1.82s4.91-2.95,6.73-5.05
		c1.82-2.1,3.09-4.77,3.93-7.57c0.84-2.95,1.26-6.03,1.26-9.4S342.55,238.47,341.71,235.66"/>
	<path id="XMLID_9_" class="st1" d="M413.67,259.79c-0.28-0.84-1.12-0.56-1.12-0.56c-1.26,0.42-2.67,0.98-4.07,1.12
		c-1.4,0.28-3.09,0.28-4.77,0.28c-4.21,0-7.57-1.26-9.96-3.79s-3.79-6.59-3.79-11.92c0-4.91,1.26-8.7,3.37-11.5
		c2.1-2.81,5.33-4.35,9.68-4.35c3.65,0,6.31,0.42,9.26,1.26c0,0,0.7,0.28,0.98-0.56c0.7-2.1,1.4-3.65,2.1-6.03
		c0.28-0.7-0.28-0.98-0.56-0.98c-1.12-0.42-3.79-1.12-5.89-1.54c-1.96-0.28-4.07-0.42-6.59-0.42c-3.65,0-7.01,0.56-9.82,1.82
		c-2.81,1.26-5.19,2.95-7.01,5.05s-3.37,4.77-4.21,7.57c-0.98,2.95-1.4,6.03-1.4,9.4c0,7.29,1.96,13.19,5.89,17.39
		c3.93,4.35,9.68,6.45,17.25,6.45c4.49,0,9.12-0.84,12.34-2.24c0,0,0.7-0.28,0.42-0.98L413.67,259.79z"/>
	<path id="XMLID_12_" class="st1" d="M428.96,240.15c0.42-2.81,1.26-5.19,2.38-7.01c1.82-2.81,4.63-4.35,8.42-4.35
		c3.93,0,6.45,1.54,8.28,4.35c1.26,1.82,1.82,4.35,1.96,7.01H428.96z M458.56,233.98c-0.7-2.81-2.52-5.61-3.79-6.87
		c-1.96-2.1-3.79-3.51-5.61-4.35c-2.38-0.98-5.33-1.68-8.56-1.68c-3.65,0-7.01,0.56-9.82,1.96c-2.67,1.26-5.05,3.09-6.87,5.19
		s-3.23,4.77-4.07,7.72c-0.84,2.95-1.26,6.17-1.26,9.54s0.42,6.59,1.4,9.54c0.84,2.95,2.38,5.47,4.35,7.57
		c1.96,2.1,4.49,3.79,7.43,4.91c2.95,1.12,6.59,1.68,10.8,1.68c8.56,0,13.05-1.96,15.01-2.95c0.28-0.14,0.7-0.56,0.28-1.4
		l-1.96-5.47c-0.28-0.84-1.12-0.56-1.12-0.56c-2.1,0.84-5.19,2.24-12.2,2.24c-4.63,0-8-1.4-10.1-3.51c-2.24-2.1-3.23-5.33-3.51-9.82
		h29.74c0,0,0.84,0,0.84-0.84C459.4,246.46,460.38,240.71,458.56,233.98z"/>
	<path id="XMLID_15_" class="st1" d="M191.33,240.15c0.42-2.81,1.26-5.19,2.38-7.01c1.82-2.81,4.63-4.35,8.42-4.35
		c3.93,0,6.45,1.54,8.28,4.35c1.26,1.82,1.68,4.35,1.96,7.01H191.33z M220.79,233.98c-0.7-2.81-2.52-5.61-3.79-6.87
		c-1.96-2.1-3.79-3.51-5.61-4.35c-2.38-0.98-5.33-1.68-8.56-1.68c-3.65,0-7.01,0.56-9.82,1.96c-2.67,1.26-5.05,3.09-6.87,5.19
		c-1.82,2.1-3.23,4.77-4.07,7.72c-0.84,2.95-1.26,6.17-1.26,9.54s0.42,6.59,1.4,9.54c0.84,2.95,2.38,5.47,4.35,7.57
		c1.96,2.1,4.49,3.79,7.43,4.91c2.95,1.12,6.59,1.68,10.8,1.68c8.56,0,13.05-1.96,15.01-2.95c0.28-0.14,0.7-0.56,0.28-1.4
		l-1.96-5.47c-0.28-0.84-1.12-0.56-1.12-0.56c-2.1,0.84-5.19,2.24-12.2,2.24c-4.63,0-8-1.4-10.1-3.51c-2.24-2.1-3.23-5.33-3.51-9.82
		h29.74c0,0,0.84,0,0.84-0.84C221.77,246.46,222.76,240.71,220.79,233.98z"/>
	<path id="XMLID_18_" class="st1" d="M127.09,259.65c-1.12-0.98-1.26-1.12-1.68-1.82c-0.56-0.84-0.84-2.24-0.84-3.93
		c0-2.67,0.84-4.49,2.67-5.75c0,0,2.52-2.24,8.56-2.1c4.21,0,8,0.7,8,0.7v13.47l0,0c0,0-3.79,0.84-8,1.12
		C129.75,261.75,127.09,259.65,127.09,259.65 M139.01,238.75c-1.26-0.14-2.81-0.14-4.63-0.14c-2.52,0-5.05,0.28-7.29,0.98
		c-2.38,0.56-4.35,1.54-6.17,2.81c-1.82,1.26-3.23,2.95-4.35,4.91c-0.98,1.96-1.54,4.21-1.54,6.87c0,2.67,0.42,4.91,1.4,6.73
		c0.84,1.82,2.24,3.37,3.93,4.63c1.68,1.26,3.65,2.1,6.03,2.67c2.38,0.56,4.91,0.84,7.86,0.84c3.09,0,6.03-0.28,8.98-0.7
		c2.95-0.56,6.45-1.26,7.43-1.4c0.98-0.28,2.1-0.56,2.1-0.56c0.7-0.14,0.7-0.98,0.7-0.98v-27.07c0-5.89-1.54-10.38-4.77-13.05
		c-3.09-2.67-7.72-4.07-13.61-4.07c-2.24,0-5.75,0.28-8,0.7c0,0-6.45,1.26-9.12,3.37c0,0-0.56,0.42-0.28,1.12l2.1,5.61
		c0.28,0.7,0.98,0.42,0.98,0.42s0.28-0.14,0.42-0.28c5.75-3.09,12.91-2.95,12.91-2.95c3.23,0,5.61,0.7,7.29,1.96
		c1.68,1.26,2.38,3.09,2.38,7.01v1.26C141.26,239.03,139.01,238.75,139.01,238.75"/>
	<path id="XMLID_19_" class="st1" d="M378.32,223.46c0.28-0.7-0.28-0.98-0.42-1.12c-0.56-0.14-3.09-0.7-4.91-0.84
		c-3.79-0.28-5.75,0.42-7.72,1.26c-1.82,0.84-3.93,2.1-5.05,3.65v-3.65c0-0.56-0.42-0.84-0.84-0.84h-7.57
		c-0.56,0-0.84,0.42-0.84,0.84v44.33c0,0.56,0.42,0.84,0.84,0.84h7.86c0.56,0,0.84-0.42,0.84-0.84v-22.16
		c0-2.95,0.28-5.89,0.98-7.86c0.7-1.82,1.54-3.37,2.67-4.35c1.12-0.98,2.38-1.82,3.65-2.24c1.4-0.42,2.95-0.56,3.93-0.56
		c1.54,0,3.23,0.42,3.23,0.42c0.56,0,0.84-0.28,1.12-0.84C376.64,228.37,378.04,224.3,378.32,223.46"/>
	<path id="XMLID_20_" class="st1" d="M305.1,202.98c-0.98-0.28-1.82-0.42-2.95-0.7c-1.12-0.14-2.52-0.28-4.07-0.28
		c-5.33,0-9.54,1.54-12.62,4.49c-2.95,2.95-4.91,7.57-6.03,13.47l-0.42,1.96h-6.73c0,0-0.84,0-0.98,0.84l-1.12,6.17
		c-0.14,0.56,0.14,0.98,0.98,0.98h6.59l-6.59,37.17c-0.56,2.95-1.12,5.47-1.82,7.29c-0.7,1.82-1.26,3.23-2.1,4.21
		c-0.7,0.98-1.54,1.68-2.67,2.1c-0.98,0.28-2.24,0.56-3.51,0.56c-0.7,0-1.68-0.14-2.38-0.28c-0.7-0.14-1.12-0.28-1.54-0.56
		c0,0-0.7-0.28-1.12,0.42c-0.28,0.7-1.96,5.47-2.24,6.03c-0.14,0.56,0.14,0.98,0.42,1.12c0.84,0.28,1.54,0.56,2.67,0.84
		c1.68,0.42,3.09,0.42,4.35,0.42c2.67,0,5.19-0.42,7.29-1.12c2.1-0.7,3.93-2.1,5.47-3.79c1.68-1.96,2.81-3.93,3.79-6.59
		c0.98-2.67,1.96-6.03,2.67-9.96l6.73-37.87h9.82c0,0,0.84,0,0.98-0.84l1.12-6.17c0.14-0.56-0.14-0.98-0.98-0.98h-9.54
		c0-0.28,0.42-3.51,1.54-6.73c0.42-1.4,1.4-2.38,2.1-3.23c0.7-0.7,1.54-1.26,2.52-1.54c0.98-0.28,1.96-0.42,3.23-0.42
		c0.84,0,1.82,0.14,2.38,0.28c0.98,0.14,1.26,0.28,1.54,0.42c0.98,0.28,1.12,0,1.26-0.42l2.24-6.17
		C305.94,203.26,305.38,202.98,305.1,202.98"/>
	<path id="XMLID_21_" class="st1" d="M172.54,267.08c0,0.56-0.42,0.84-0.84,0.84h-7.86c-0.56,0-0.84-0.42-0.84-0.84v-63.4
		c0-0.56,0.28-0.84,0.84-0.84h7.86c0.56,0,0.84,0.42,0.84,0.84V267.08z"/>
</g>
</svg>
