<svg width="15" height="15" xmlns="http://www.w3.org/2000/svg"><g fill="none" fill-rule="evenodd"><path d="M7 3.5a.5.5 0 000-1v1zM12.5 8a.5.5 0 00-1 0h1zM7 2.5H3v1h4v-1zM.5 5v7h1V5h-1zM3 14.5h7v-1H3v1zm9.5-2.5V8h-1v4h1zM10 14.5a2.5 2.5 0 002.5-2.5h-1a1.5 1.5 0 01-1.5 1.5v1zM.5 12A2.5 2.5 0 003 14.5v-1A1.5 1.5 0 011.5 12h-1zM3 2.5A2.5 2.5 0 00.5 5h1A1.5 1.5 0 013 3.5v-1zM9 .5a.5.5 0 000 1v-1zm5 .5h.5a.5.5 0 00-.5-.5V1zm-.5 5a.5.5 0 001 0h-1zM9 1.5h5v-1H9v1zm4.5-.5v5h1V1h-1z" fill="#999" fill-rule="nonzero"/><path shape-rendering="crispEdges" stroke="#999" stroke-linecap="round" d="M14 1L9 6"/></g></svg>