<svg viewBox="0 0 24 19" xmlns="http://www.w3.org/2000/svg"><g fill="none" fill-rule="evenodd"><path stroke="#FFF" stroke-linecap="round" stroke-linejoin="round" d="M2 2l5 15 5-11"/><circle fill="#FFF" fill-rule="nonzero" cx="2" cy="2" r="2"/><circle fill="#FFF" fill-rule="nonzero" cx="7" cy="17" r="2"/><circle fill="#FFF" fill-rule="nonzero" cx="12" cy="6" r="2"/><circle fill="#FFF" fill-rule="nonzero" cx="22" cy="13" r="2"/><path d="M21.713 13.41a.5.5 0 10.574-.82l-.574.82zm-10-7l.834.583.573-.82-.833-.583-.574.82zm2.5 1.75l1.667 1.166.573-.819-1.666-1.167-.574.82zm3.334 2.333l1.666 1.167.574-.82-1.667-1.166-.573.819zm3.333 2.333l.833.584.574-.82-.834-.583-.573.82z" fill="#FFF" fill-rule="nonzero"/></g></svg>