<svg width="110" height="110" fill="none" xmlns="http://www.w3.org/2000/svg"><path fill-rule="evenodd" clip-rule="evenodd" d="M85 24.5a4.5 4.5 0 01-6.68 3.937L67.17 40.897a4.5 4.5 0 11-7.899 1.059l-9.632-6.233A4.486 4.486 0 0146.5 37a4.48 4.48 0 01-2.396-.69L33.31 47.104a4.5 4.5 0 11-1.414-1.414L42.69 34.896a4.5 4.5 0 118.038-.851l9.632 6.232A4.486 4.486 0 0163.5 39a4.48 4.48 0 012.18.563l11.149-12.46A4.5 4.5 0 1185 24.5zM76 46a2 2 0 012-2h5a2 2 0 012 2v45a2 2 0 01-2 2h-5a2 2 0 01-2-2V46zm-34 8a2 2 0 012-2h5a2 2 0 012 2v37a2 2 0 01-2 2h-5a2 2 0 01-2-2V54zM25 71a2 2 0 012-2h5a2 2 0 012 2v20a2 2 0 01-2 2h-5a2 2 0 01-2-2V71zm36-8a2 2 0 00-2 2v26a2 2 0 002 2h5a2 2 0 002-2V65a2 2 0 00-2-2h-5z" fill="#fff"/><path fill-rule="evenodd" clip-rule="evenodd" d="M85 24.5a4.5 4.5 0 01-6.68 3.937L67.17 40.897a4.5 4.5 0 11-7.899 1.059l-9.632-6.233A4.486 4.486 0 0146.5 37a4.48 4.48 0 01-2.396-.69L33.31 47.104a4.5 4.5 0 11-1.414-1.414L42.69 34.896a4.5 4.5 0 118.038-.851l9.632 6.232A4.486 4.486 0 0163.5 39a4.48 4.48 0 012.18.563l11.149-12.46A4.5 4.5 0 1185 24.5zM76 46a2 2 0 012-2h5a2 2 0 012 2v45a2 2 0 01-2 2h-5a2 2 0 01-2-2V46zm-34 8a2 2 0 012-2h5a2 2 0 012 2v37a2 2 0 01-2 2h-5a2 2 0 01-2-2V54zM25 71a2 2 0 012-2h5a2 2 0 012 2v20a2 2 0 01-2 2h-5a2 2 0 01-2-2V71zm36-8a2 2 0 00-2 2v26a2 2 0 002 2h5a2 2 0 002-2V65a2 2 0 00-2-2h-5z" fill="url(#paint0_linear)"/><defs><linearGradient id="paint0_linear" x1="53" y1="20" x2="53" y2="88" gradientUnits="userSpaceOnUse"><stop stop-color="#4381E5"/><stop offset="1" stop-color="#AFCEFF"/></linearGradient></defs></svg>