<svg width="110" height="110" fill="none" xmlns="http://www.w3.org/2000/svg"><path fill-rule="evenodd" clip-rule="evenodd" d="M16 27h78a1 1 0 011 1v49H15V28a1 1 0 011-1zm-4 50V28a4 4 0 014-4h78a4 4 0 014 4v49h7a1 1 0 011 1v7a4 4 0 01-4 4H8a4 4 0 01-4-4v-7a1 1 0 011-1h7zm86 3H7v5a1 1 0 001 1h94a1 1 0 001-1v-5h-5zM47 50c0-5.632 4.531-9 9-9s9 3.368 9 9c0 7.141-4.569 10.762-7.834 13.35l-.541.43-.68.544-.632-.597a45.872 45.872 0 00-1.352-1.207C51.028 59.967 47 56.462 47 50zm9-7c-3.531 0-7 2.632-7 7 0 5.481 3.252 8.341 6.174 10.911.295.26.587.517.873.773C59.3 59.094 63 56.035 63 50c0-4.368-3.469-7-7-7zm2 7a2 2 0 11-4 0 2 2 0 014 0zm2 0a4 4 0 11-8 0 4 4 0 018 0z" fill="#fff"/><path fill-rule="evenodd" clip-rule="evenodd" d="M16 27h78a1 1 0 011 1v49H15V28a1 1 0 011-1zm-4 50V28a4 4 0 014-4h78a4 4 0 014 4v49h7a1 1 0 011 1v7a4 4 0 01-4 4H8a4 4 0 01-4-4v-7a1 1 0 011-1h7zm86 3H7v5a1 1 0 001 1h94a1 1 0 001-1v-5h-5zM47 50c0-5.632 4.531-9 9-9s9 3.368 9 9c0 7.141-4.569 10.762-7.834 13.35l-.541.43-.68.544-.632-.597a45.872 45.872 0 00-1.352-1.207C51.028 59.967 47 56.462 47 50zm9-7c-3.531 0-7 2.632-7 7 0 5.481 3.252 8.341 6.174 10.911.295.26.587.517.873.773C59.3 59.094 63 56.035 63 50c0-4.368-3.469-7-7-7zm2 7a2 2 0 11-4 0 2 2 0 014 0zm2 0a4 4 0 11-8 0 4 4 0 018 0z" fill="url(#paint0_linear)"/><rect x="77.5" y="49.5" width="27" height="47" rx="2.5" fill="#121D35" stroke="#A8C8FD" stroke-width="3"/><circle cx="91" cy="89" r="2" fill="#A8C8FD"/><defs><linearGradient id="paint0_linear" x1="55" y1="29" x2="55" y2="82" gradientUnits="userSpaceOnUse"><stop stop-color="#4381E5"/><stop offset="1" stop-color="#AFCEFF"/></linearGradient></defs></svg>