<svg width="110" height="110" fill="none" xmlns="http://www.w3.org/2000/svg"><path fill-rule="evenodd" clip-rule="evenodd" d="M18 11.5a1.5 1.5 0 011.5 1.5v4.5H24a1.5 1.5 0 010 3h-4.5V25a1.5 1.5 0 01-3 0v-4.5H12a1.5 1.5 0 010-3h4.5V13a1.5 1.5 0 011.5-1.5zm72 72a1.5 1.5 0 011.5 1.5v4.5H96a1.5 1.5 0 010 3h-4.5V97a1.5 1.5 0 01-3 0v-4.5H84a1.5 1.5 0 010-3h4.5V85a1.5 1.5 0 011.5-1.5zM19.5 35a1.5 1.5 0 00-3 0v12a1.5 1.5 0 003 0V35zM90 39.5a1.5 1.5 0 011.5 1.5v12a1.5 1.5 0 01-3 0V41a1.5 1.5 0 011.5-1.5zM19.5 57a1.5 1.5 0 00-3 0v12a1.5 1.5 0 003 0V57zM90 61.5a1.5 1.5 0 011.5 1.5v12a1.5 1.5 0 01-3 0V63a1.5 1.5 0 011.5-1.5zm-56-44a1.5 1.5 0 000 3h12a1.5 1.5 0 000-3H34zM38.5 91a1.5 1.5 0 011.5-1.5h12a1.5 1.5 0 010 3H40a1.5 1.5 0 01-1.5-1.5zM24 89.5a4.5 4.5 0 01-4.5-4.5v-6a1.5 1.5 0 00-3 0v6a7.5 7.5 0 007.5 7.5h6a1.5 1.5 0 000-3h-6zM88.5 25a4.5 4.5 0 00-4.5-4.5h-6a1.5 1.5 0 010-3h6a7.5 7.5 0 017.5 7.5v6a1.5 1.5 0 01-3 0v-6zM56 17.5a1.5 1.5 0 000 3h12a1.5 1.5 0 000-3H56zM60.5 91a1.5 1.5 0 011.5-1.5h12a1.5 1.5 0 010 3H62a1.5 1.5 0 01-1.5-1.5zm-25-42a4.5 4.5 0 014.5-4.5h17a4.5 4.5 0 014.5 4.5v12a4.5 4.5 0 01-4.5 4.5H40a4.5 4.5 0 01-4.5-4.5V49zm29 0v2.574l10.483-9.676A1.5 1.5 0 0177.5 43v24a1.5 1.5 0 01-2.517 1.102L64.5 58.426V61a7.5 7.5 0 01-7.5 7.5H40a7.5 7.5 0 01-7.5-7.5V49a7.5 7.5 0 017.5-7.5h17a7.5 7.5 0 017.5 7.5zm.712 6l9.288 8.574V46.426L65.212 55zM56 52a2 2 0 100-4 2 2 0 000 4z" fill="#fff"/><path fill-rule="evenodd" clip-rule="evenodd" d="M18 11.5a1.5 1.5 0 011.5 1.5v4.5H24a1.5 1.5 0 010 3h-4.5V25a1.5 1.5 0 01-3 0v-4.5H12a1.5 1.5 0 010-3h4.5V13a1.5 1.5 0 011.5-1.5zm72 72a1.5 1.5 0 011.5 1.5v4.5H96a1.5 1.5 0 010 3h-4.5V97a1.5 1.5 0 01-3 0v-4.5H84a1.5 1.5 0 010-3h4.5V85a1.5 1.5 0 011.5-1.5zM19.5 35a1.5 1.5 0 00-3 0v12a1.5 1.5 0 003 0V35zM90 39.5a1.5 1.5 0 011.5 1.5v12a1.5 1.5 0 01-3 0V41a1.5 1.5 0 011.5-1.5zM19.5 57a1.5 1.5 0 00-3 0v12a1.5 1.5 0 003 0V57zM90 61.5a1.5 1.5 0 011.5 1.5v12a1.5 1.5 0 01-3 0V63a1.5 1.5 0 011.5-1.5zm-56-44a1.5 1.5 0 000 3h12a1.5 1.5 0 000-3H34zM38.5 91a1.5 1.5 0 011.5-1.5h12a1.5 1.5 0 010 3H40a1.5 1.5 0 01-1.5-1.5zM24 89.5a4.5 4.5 0 01-4.5-4.5v-6a1.5 1.5 0 00-3 0v6a7.5 7.5 0 007.5 7.5h6a1.5 1.5 0 000-3h-6zM88.5 25a4.5 4.5 0 00-4.5-4.5h-6a1.5 1.5 0 010-3h6a7.5 7.5 0 017.5 7.5v6a1.5 1.5 0 01-3 0v-6zM56 17.5a1.5 1.5 0 000 3h12a1.5 1.5 0 000-3H56zM60.5 91a1.5 1.5 0 011.5-1.5h12a1.5 1.5 0 010 3H62a1.5 1.5 0 01-1.5-1.5zm-25-42a4.5 4.5 0 014.5-4.5h17a4.5 4.5 0 014.5 4.5v12a4.5 4.5 0 01-4.5 4.5H40a4.5 4.5 0 01-4.5-4.5V49zm29 0v2.574l10.483-9.676A1.5 1.5 0 0177.5 43v24a1.5 1.5 0 01-2.517 1.102L64.5 58.426V61a7.5 7.5 0 01-7.5 7.5H40a7.5 7.5 0 01-7.5-7.5V49a7.5 7.5 0 017.5-7.5h17a7.5 7.5 0 017.5 7.5zm.712 6l9.288 8.574V46.426L65.212 55zM56 52a2 2 0 100-4 2 2 0 000 4z" fill="url(#paint0_linear)"/><defs><linearGradient id="paint0_linear" x1="54" y1="11.5" x2="54" y2="98.5" gradientUnits="userSpaceOnUse"><stop stop-color="#4381E5"/><stop offset="1" stop-color="#AFCEFF"/></linearGradient></defs></svg>