<svg width="150" height="31" xmlns="http://www.w3.org/2000/svg"><g fill="none" fill-rule="evenodd"><path d="M13.537 12.52c-.711.7-.717 1.84-.013 2.547C14.441 15.987 18 17 18 17s-.983-3.546-1.9-4.466a1.821 1.821 0 00-2.563-.013z" fill="#2F80ED" fill-rule="nonzero"/><path d="M30 15c0 8.284-6.716 15-15 15-8.284 0-15-6.716-15-15C0 6.716 6.716 0 15 0c8.284 0 15 6.716 15 15zm-2.272.75a12.694 12.694 0 01-2.952 7.435l-1.791-1.791a1.125 1.125 0 10-1.591 1.59l1.791 1.792A12.699 12.699 0 0115 27.75c-3.116 0-5.97-1.118-8.185-2.974l1.791-1.791a1.125 1.125 0 10-1.59-1.591l-1.792 1.791a12.694 12.694 0 01-2.952-7.435h2.603a1.125 1.125 0 000-2.25H2.337a12.694 12.694 0 012.887-6.685l1.791 1.791a1.125 1.125 0 001.591-1.59L6.815 5.223a12.693 12.693 0 017.06-2.925v2.576a1.125 1.125 0 002.25 0V2.299a12.693 12.693 0 017.06 2.925l-1.791 1.791a1.125 1.125 0 101.59 1.591l1.792-1.791a12.694 12.694 0 012.887 6.685h-2.538a1.125 1.125 0 000 2.25h2.603z" fill="#2F80ED"/><path d="M52.448 1.768L49.52 13h-3.312l-1.792-7.392L42.56 13h-3.312L36.4 1.768h2.928l1.616 8.176 2-8.176h3.008l1.92 8.176 1.632-8.176h2.944zm9.788 6.624c0 .256-.016.523-.048.8h-6.192c.043.555.219.981.528 1.28.32.288.71.432 1.168.432.683 0 1.157-.288 1.424-.864h2.912a3.943 3.943 0 01-.816 1.584c-.384.47-.87.837-1.456 1.104-.587.267-1.242.4-1.968.4-.874 0-1.653-.187-2.336-.56a3.984 3.984 0 01-1.6-1.6c-.384-.693-.576-1.504-.576-2.432 0-.928.187-1.739.56-2.432a3.984 3.984 0 011.6-1.6c.683-.373 1.467-.56 2.352-.56.864 0 1.632.181 2.304.544.672.363 1.195.88 1.568 1.552.384.672.576 1.456.576 2.352zm-2.8-.72c0-.47-.16-.843-.48-1.12-.32-.277-.72-.416-1.2-.416-.459 0-.848.133-1.168.4-.31.267-.501.645-.576 1.136h3.424zm6.98-2.336c.255-.416.624-.752 1.103-1.008.48-.256 1.03-.384 1.648-.384.736 0 1.403.187 2 .56.598.373 1.067.907 1.409 1.6.352.693.528 1.499.528 2.416 0 .917-.177 1.728-.528 2.432-.342.693-.811 1.232-1.408 1.616a3.697 3.697 0 01-2 .56c-.63 0-1.18-.123-1.649-.368a2.97 2.97 0 01-1.104-1.008V13H63.68V1.16h2.736v4.176zM70.32 8.52c0-.683-.192-1.216-.576-1.6a1.838 1.838 0 00-1.392-.592c-.544 0-1.008.197-1.392.592-.374.395-.56.933-.56 1.616s.186 1.221.56 1.616a1.87 1.87 0 001.392.592 1.87 1.87 0 001.391-.592c.385-.405.577-.95.577-1.632zm12.779-3.136c0 .65-.15 1.248-.448 1.792-.299.533-.757.965-1.376 1.296-.619.33-1.387.496-2.304.496h-1.696V13h-2.736V1.768h4.432c.896 0 1.653.155 2.272.464.619.31 1.083.736 1.392 1.28.31.544.464 1.168.464 1.872zm-4.336 1.408c.522 0 .912-.123 1.168-.368.256-.245.384-.592.384-1.04 0-.448-.128-.795-.384-1.04s-.645-.368-1.168-.368h-1.488v2.816h1.488zm5.216 1.728c0-.917.17-1.723.512-2.416.352-.693.827-1.227 1.424-1.6a3.697 3.697 0 012-.56c.63 0 1.179.128 1.648.384.48.256.848.592 1.104 1.008V4.072h2.736V13h-2.736v-1.264a2.94 2.94 0 01-1.12 1.008c-.47.256-1.018.384-1.648.384a3.669 3.669 0 01-1.984-.56c-.597-.384-1.072-.923-1.424-1.616-.341-.704-.512-1.515-.512-2.432zm6.688.016c0-.683-.192-1.221-.576-1.616a1.82 1.82 0 00-1.376-.592c-.544 0-1.008.197-1.392.592-.373.384-.56.917-.56 1.6s.187 1.227.56 1.632a1.87 1.87 0 001.392.592 1.82 1.82 0 001.376-.592c.384-.395.576-.933.576-1.616zm8.108-4.592c.629 0 1.178.128 1.648.384.48.256.848.592 1.104 1.008V4.072h2.736v8.912c0 .821-.166 1.563-.496 2.224a3.646 3.646 0 01-1.488 1.6c-.662.395-1.488.592-2.48.592-1.323 0-2.395-.315-3.216-.944-.822-.619-1.291-1.461-1.408-2.528h2.704c.085.341.288.608.608.8.32.203.714.304 1.184.304.565 0 1.013-.165 1.344-.496.341-.32.512-.837.512-1.552V11.72a3.107 3.107 0 01-1.104 1.024c-.47.256-1.019.384-1.648.384a3.697 3.697 0 01-2-.56c-.598-.384-1.072-.923-1.424-1.616-.342-.704-.512-1.515-.512-2.432s.17-1.723.512-2.416c.352-.693.826-1.227 1.424-1.6a3.697 3.697 0 012-.56zm2.752 4.592c0-.683-.192-1.221-.576-1.616a1.821 1.821 0 00-1.376-.592c-.544 0-1.008.197-1.392.592-.374.384-.56.917-.56 1.6s.186 1.227.56 1.632a1.87 1.87 0 001.392.592c.544 0 1.002-.197 1.376-.592.384-.395.576-.933.576-1.616zm13.131-.144c0 .256-.016.523-.048.8h-6.192c.043.555.219.981.528 1.28.32.288.709.432 1.168.432.683 0 1.157-.288 1.424-.864h2.912a3.935 3.935 0 01-.816 1.584 3.97 3.97 0 01-1.456 1.104c-.587.267-1.243.4-1.968.4-.875 0-1.653-.187-2.336-.56a3.981 3.981 0 01-1.6-1.6c-.384-.693-.576-1.504-.576-2.432 0-.928.187-1.739.56-2.432a3.981 3.981 0 011.6-1.6c.683-.373 1.467-.56 2.352-.56.864 0 1.632.181 2.304.544.672.363 1.195.88 1.568 1.552.384.672.576 1.456.576 2.352zm-2.8-.72c0-.47-.16-.843-.48-1.12-.32-.277-.72-.416-1.2-.416-.459 0-.848.133-1.168.4-.309.267-.501.645-.576 1.136h3.424zm12.323-5.904V3.96h-2.976V13h-2.736V3.96h-2.976V1.768h8.688zm9.789 6.624c0 .256-.015.523-.047.8h-6.192c.042.555.218.981.528 1.28.32.288.709.432 1.168.432.682 0 1.157-.288 1.424-.864h2.912a3.96 3.96 0 01-.816 1.584c-.384.47-.87.837-1.456 1.104-.587.267-1.243.4-1.968.4-.875 0-1.654-.187-2.336-.56a3.981 3.981 0 01-1.6-1.6c-.384-.693-.576-1.504-.576-2.432 0-.928.186-1.739.56-2.432a3.981 3.981 0 011.6-1.6c.682-.373 1.466-.56 2.352-.56.864 0 1.632.181 2.304.544.672.363 1.194.88 1.568 1.552.384.672.575 1.456.575 2.352zm-2.799-.72c0-.47-.16-.843-.48-1.12-.32-.277-.72-.416-1.2-.416-.459 0-.848.133-1.168.4-.31.267-.502.645-.576 1.136h3.424zm7.875 5.456c-.779 0-1.472-.133-2.08-.4-.608-.267-1.088-.63-1.44-1.088a2.927 2.927 0 01-.592-1.568h2.704c.032.31.176.56.432.752.256.192.571.288.944.288.341 0 .603-.064.784-.192.192-.139.288-.315.288-.528 0-.256-.133-.443-.4-.56-.267-.128-.699-.267-1.296-.416a13.2 13.2 0 01-1.6-.464 2.868 2.868 0 01-1.104-.784c-.309-.363-.464-.848-.464-1.456 0-.512.139-.976.416-1.392.288-.427.704-.763 1.248-1.008.555-.245 1.211-.368 1.968-.368 1.12 0 2 .277 2.64.832.651.555 1.024 1.29 1.12 2.208h-2.528a1.078 1.078 0 00-.416-.736c-.224-.181-.523-.272-.896-.272-.32 0-.565.064-.736.192a.567.567 0 00-.256.496c0 .256.133.448.4.576.277.128.704.256 1.28.384.661.17 1.2.341 1.616.512.416.16.779.427 1.088.8.32.363.485.853.496 1.472 0 .523-.149.992-.448 1.408-.288.405-.709.725-1.264.96-.544.235-1.179.352-1.904.352zm10.266-2.448V13h-1.392c-.992 0-1.766-.24-2.32-.72-.555-.49-.832-1.285-.832-2.384V6.344h-1.088V4.072h1.088V1.896h2.736v2.176h1.792v2.272h-1.792v3.584c0 .267.064.459.192.576.128.117.341.176.64.176h.976zM37.68 23.54c.187-.327.46-.593.82-.8.36-.207.77-.31 1.23-.31.493 0 .937.117 1.33.35.393.233.703.563.93.99.227.42.34.91.34 1.47 0 .553-.113 1.047-.34 1.48a2.502 2.502 0 01-2.26 1.37c-.473 0-.89-.103-1.25-.31a2.118 2.118 0 01-.8-.79V28h-.91v-7.4h.91v2.94zm3.72 1.7c0-.413-.083-.773-.25-1.08a1.72 1.72 0 00-.68-.7c-.28-.16-.59-.24-.93-.24-.333 0-.643.083-.93.25-.28.16-.507.397-.68.71-.167.307-.25.663-.25 1.07 0 .413.083.777.25 1.09.173.307.4.543.68.71.287.16.597.24.93.24.34 0 .65-.08.93-.24a1.79 1.79 0 00.68-.71c.167-.313.25-.68.25-1.1zm6.848-2.72l-3.3 8.06h-.94l1.08-2.64-2.21-5.42h1.01l1.72 4.44 1.7-4.44h.94zm3.24 1.99c0-.68.154-1.29.46-1.83a3.343 3.343 0 011.25-1.28 3.487 3.487 0 011.77-.46c.76 0 1.424.183 1.99.55.567.367.98.887 1.24 1.56h-1.09a2.178 2.178 0 00-.84-.97c-.36-.227-.793-.34-1.3-.34-.486 0-.923.113-1.31.34a2.37 2.37 0 00-.91.97c-.22.413-.33.9-.33 1.46 0 .553.11 1.04.33 1.46.22.413.524.733.91.96.387.227.824.34 1.31.34.507 0 .94-.11 1.3-.33.367-.227.647-.55.84-.97h1.09c-.26.667-.673 1.183-1.24 1.55-.566.36-1.23.54-1.99.54-.646 0-1.236-.15-1.77-.45a3.363 3.363 0 01-1.25-1.27c-.306-.54-.46-1.15-.46-1.83zm7.725.73c0-.56.114-1.05.34-1.47a2.47 2.47 0 01.93-.99c.4-.233.844-.35 1.33-.35.48 0 .897.103 1.25.31.353.207.617.467.79.78v-1h.92V28h-.92v-1.02c-.18.32-.45.587-.81.8-.353.207-.767.31-1.24.31-.486 0-.926-.12-1.32-.36a2.526 2.526 0 01-.93-1.01c-.226-.433-.34-.927-.34-1.48zm4.64.01c0-.413-.083-.773-.25-1.08a1.72 1.72 0 00-.68-.7c-.28-.167-.59-.25-.93-.25-.34 0-.65.08-.93.24-.28.16-.503.393-.67.7-.166.307-.25.667-.25 1.08 0 .42.084.787.25 1.1.167.307.39.543.67.71.28.16.59.24.93.24.34 0 .65-.08.93-.24a1.79 1.79 0 00.68-.71c.167-.313.25-.677.25-1.09zm3.568-1.98v3.23c0 .267.057.457.17.57.113.107.31.16.59.16h.67V28h-.82c-.507 0-.887-.117-1.14-.35-.253-.233-.38-.617-.38-1.15v-3.23h-.71v-.75h.71v-1.38h.91v1.38h1.43v.75h-1.43zm2.193 1.98c0-.567.113-1.06.34-1.48.226-.427.54-.757.94-.99.406-.233.87-.35 1.39-.35.673 0 1.226.163 1.66.49.44.327.73.78.87 1.36h-.98a1.399 1.399 0 00-.55-.79c-.267-.193-.6-.29-1-.29-.52 0-.94.18-1.26.54-.32.353-.48.857-.48 1.51 0 .66.16 1.17.48 1.53.32.36.74.54 1.26.54.4 0 .733-.093 1-.28a1.42 1.42 0 00.55-.8h.98c-.147.56-.44 1.01-.88 1.35-.44.333-.99.5-1.65.5-.52 0-.984-.117-1.39-.35a2.448 2.448 0 01-.94-.99c-.227-.427-.34-.927-.34-1.5zm9.134-2.83c.413 0 .786.09 1.12.27.333.173.593.437.78.79.193.353.29.783.29 1.29V28h-.9v-3.1c0-.547-.137-.963-.41-1.25-.273-.293-.647-.44-1.12-.44-.48 0-.864.15-1.15.45-.28.3-.42.737-.42 1.31V28h-.91v-7.4h.91v2.7a1.8 1.8 0 01.74-.65c.32-.153.677-.23 1.07-.23zm4.586 1.11c.18-.313.447-.573.8-.78.36-.213.777-.32 1.25-.32.487 0 .927.117 1.32.35.4.233.714.563.94.99.227.42.34.91.34 1.47 0 .553-.113 1.047-.34 1.48a2.502 2.502 0 01-2.26 1.37c-.466 0-.88-.103-1.24-.31a2.304 2.304 0 01-.81-.79v3.61h-.91v-8.08h.91v1.01zm3.72 1.71c0-.413-.083-.773-.25-1.08a1.72 1.72 0 00-.68-.7c-.28-.16-.59-.24-.93-.24-.333 0-.643.083-.93.25-.28.16-.506.397-.68.71-.166.307-.25.663-.25 1.07 0 .413.084.777.25 1.09.174.307.4.543.68.71.287.16.597.24.93.24.34 0 .65-.08.93-.24a1.79 1.79 0 00.68-.71c.167-.313.25-.68.25-1.1zm4.518 2.85c-.513 0-.98-.117-1.4-.35a2.544 2.544 0 01-.98-.99c-.233-.433-.35-.933-.35-1.5 0-.56.12-1.053.36-1.48.247-.433.58-.763 1-.99.42-.233.89-.35 1.41-.35.52 0 .99.117 1.41.35.42.227.75.553.99.98.247.427.37.923.37 1.49s-.127 1.067-.38 1.5a2.574 2.574 0 01-1.01.99c-.427.233-.9.35-1.42.35zm0-.8c.327 0 .633-.077.92-.23.287-.153.517-.383.69-.69.18-.307.27-.68.27-1.12 0-.44-.087-.813-.26-1.12a1.669 1.669 0 00-.68-.68 1.865 1.865 0 00-.91-.23c-.333 0-.64.077-.92.23a1.626 1.626 0 00-.66.68c-.167.307-.25.68-.25 1.12 0 .447.08.823.24 1.13.167.307.387.537.66.69.273.147.573.22.9.22zm4.477-5.66a.599.599 0 01-.44-.18.599.599 0 01-.18-.44c0-.173.06-.32.18-.44s.266-.18.44-.18c.166 0 .306.06.42.18.12.12.18.267.18.44s-.06.32-.18.44a.555.555 0 01-.42.18zm.44.89V28h-.91v-5.48h.91zm4.221-.1c.666 0 1.206.203 1.62.61.413.4.62.98.62 1.74V28h-.9v-3.1c0-.547-.137-.963-.41-1.25-.274-.293-.647-.44-1.12-.44-.48 0-.864.15-1.15.45-.28.3-.42.737-.42 1.31V28h-.91v-5.48h.91v.78c.18-.28.423-.497.73-.65.313-.153.656-.23 1.03-.23zm4.836.85v3.23c0 .267.057.457.17.57.113.107.31.16.59.16h.67V28h-.82c-.507 0-.887-.117-1.14-.35-.253-.233-.38-.617-.38-1.15v-3.23h-.71v-.75h.71v-1.38h.91v1.38h1.43v.75h-1.43z" fill="#FFF" fill-rule="nonzero"/></g></svg>