<svg width="150" height="31" viewBox="0 0 150 31" fill="none" xmlns="http://www.w3.org/2000/svg">
<path d="M13.537 12.52C12.826 13.22 12.82 14.36 13.524 15.067C14.441 15.987 18 17 18 17C18 17 17.017 13.454 16.1 12.534C15.7607 12.1945 15.3011 12.0027 14.8212 12.0003C14.3412 11.9978 13.8797 12.185 13.537 12.521V12.52Z" fill="#00BBFF"/>
<path fill-rule="evenodd" clip-rule="evenodd" d="M30 15C30 23.284 23.284 30 15 30C6.716 30 0 23.284 0 15C0 6.716 6.716 0 15 0C23.284 0 30 6.716 30 15ZM27.728 15.75C27.571 18.4817 26.5356 21.0896 24.776 23.185L22.985 21.394C22.8816 21.2852 22.7574 21.1983 22.6199 21.1382C22.4823 21.0782 22.3342 21.0463 22.1841 21.0443C22.034 21.0424 21.8851 21.0706 21.746 21.1271C21.607 21.1836 21.4807 21.2674 21.3745 21.3735C21.2684 21.4796 21.1845 21.6059 21.1279 21.7449C21.0713 21.8839 21.043 22.0328 21.0448 22.1829C21.0467 22.3329 21.0785 22.4811 21.1385 22.6187C21.1984 22.7563 21.2853 22.8805 21.394 22.984L23.185 24.776C20.8925 26.7011 17.9936 27.7544 15 27.75C11.884 27.75 9.03 26.632 6.815 24.776L8.606 22.985C8.71476 22.8816 8.80173 22.7574 8.86178 22.6199C8.92183 22.4823 8.95375 22.3342 8.95566 22.1841C8.95757 22.034 8.92943 21.8851 8.8729 21.746C8.81637 21.607 8.73259 21.4807 8.6265 21.3745C8.5204 21.2684 8.39414 21.1845 8.25514 21.1279C8.11614 21.0713 7.96722 21.043 7.81714 21.0448C7.66707 21.0467 7.51887 21.0785 7.38128 21.1385C7.24369 21.1984 7.11949 21.2853 7.016 21.394L5.224 23.185C3.4644 21.0896 2.42897 18.4817 2.272 15.75H4.875C5.17337 15.75 5.45952 15.6315 5.6705 15.4205C5.88147 15.2095 6 14.9234 6 14.625C6 14.3266 5.88147 14.0405 5.6705 13.8295C5.45952 13.6185 5.17337 13.5 4.875 13.5H2.337C2.62584 11.0375 3.62947 8.71358 5.224 6.815L7.015 8.606C7.22758 8.80841 7.51086 8.91972 7.80437 8.91617C8.09788 8.91262 8.37838 8.79449 8.58601 8.58699C8.79363 8.3795 8.91193 8.09907 8.91567 7.80557C8.9194 7.51206 8.80828 7.22871 8.606 7.016L6.815 5.223C8.81198 3.54591 11.2771 2.52461 13.875 2.298V4.874C13.875 5.17237 13.9935 5.45852 14.2045 5.6695C14.4155 5.88047 14.7016 5.999 15 5.999C15.2984 5.999 15.5845 5.88047 15.7955 5.6695C16.0065 5.45852 16.125 5.17237 16.125 4.874V2.299C18.7229 2.52561 21.188 3.54691 23.185 5.224L21.394 7.015C21.2852 7.11843 21.1983 7.24257 21.1382 7.38012C21.0782 7.51767 21.0463 7.66585 21.0443 7.81592C21.0424 7.966 21.0706 8.11494 21.1271 8.25397C21.1836 8.39301 21.2674 8.51932 21.3735 8.62548C21.4796 8.73165 21.6059 8.8155 21.7449 8.87212C21.8839 8.92874 22.0328 8.95697 22.1829 8.95516C22.3329 8.95334 22.4811 8.92151 22.6187 8.86155C22.7563 8.80159 22.8805 8.7147 22.984 8.606L24.776 6.815C26.3705 8.71358 27.3742 11.0375 27.663 13.5H25.125C24.8266 13.5 24.5405 13.6185 24.3295 13.8295C24.1185 14.0405 24 14.3266 24 14.625C24 14.9234 24.1185 15.2095 24.3295 15.4205C24.5405 15.6315 24.8266 15.75 25.125 15.75H27.728Z" fill="#00BBFF"/>
<path d="M52.448 1.76803L49.52 13H46.208L44.416 5.60803L42.56 13H39.248L36.4 1.76803H39.328L40.944 9.94403L42.944 1.76803H45.952L47.872 9.94403L49.504 1.76803H52.448ZM62.236 8.39203C62.236 8.64803 62.22 8.91503 62.188 9.19203H55.996C56.039 9.74703 56.215 10.173 56.524 10.472C56.844 10.76 57.234 10.904 57.692 10.904C58.375 10.904 58.849 10.616 59.116 10.04H62.028C61.8804 10.6234 61.6013 11.1652 61.212 11.624C60.828 12.094 60.342 12.461 59.756 12.728C59.169 12.995 58.514 13.128 57.788 13.128C56.914 13.128 56.135 12.941 55.452 12.568C54.7752 12.2005 54.2195 11.6448 53.852 10.968C53.468 10.275 53.276 9.46403 53.276 8.53603C53.276 7.60803 53.463 6.79703 53.836 6.10403C54.2035 5.42727 54.7592 4.87152 55.436 4.50403C56.119 4.13103 56.903 3.94403 57.788 3.94403C58.652 3.94403 59.42 4.12503 60.092 4.48803C60.764 4.85103 61.287 5.36803 61.66 6.04003C62.044 6.71203 62.236 7.49603 62.236 8.39203ZM59.436 7.67203C59.436 7.20203 59.276 6.82903 58.956 6.55203C58.636 6.27503 58.236 6.13603 57.756 6.13603C57.297 6.13603 56.908 6.26903 56.588 6.53603C56.278 6.80303 56.087 7.18103 56.012 7.67203H59.436ZM66.416 5.33603C66.671 4.92003 67.04 4.58403 67.519 4.32803C67.999 4.07203 68.549 3.94403 69.167 3.94403C69.903 3.94403 70.57 4.13103 71.167 4.50403C71.765 4.87703 72.234 5.41103 72.576 6.10403C72.928 6.79703 73.104 7.60303 73.104 8.52003C73.104 9.43703 72.927 10.248 72.576 10.952C72.234 11.645 71.765 12.184 71.168 12.568C70.5685 12.942 69.8745 13.1363 69.168 13.128C68.538 13.128 67.988 13.005 67.519 12.76C67.0711 12.5237 66.691 12.1767 66.415 11.752V13H63.68V1.16003H66.416V5.33603ZM70.32 8.52003C70.32 7.83703 70.128 7.30403 69.744 6.92003C69.5673 6.72825 69.3517 6.57627 69.1117 6.4742C68.8717 6.37213 68.6127 6.3223 68.352 6.32803C67.808 6.32803 67.344 6.52503 66.96 6.92003C66.586 7.31503 66.4 7.85303 66.4 8.53603C66.4 9.21903 66.586 9.75703 66.96 10.152C67.138 10.3422 67.3538 10.4931 67.5935 10.5951C67.8332 10.697 68.0915 10.7478 68.352 10.744C68.6123 10.7476 68.8705 10.6968 69.11 10.5949C69.3495 10.4929 69.5651 10.3421 69.743 10.152C70.128 9.74703 70.32 9.20203 70.32 8.52003ZM83.099 5.38403C83.099 6.03403 82.949 6.63203 82.651 7.17603C82.352 7.70903 81.894 8.14103 81.275 8.47203C80.656 8.80203 79.888 8.96803 78.971 8.96803H77.275V13H74.539V1.76803H78.971C79.867 1.76803 80.624 1.92303 81.243 2.23203C81.862 2.54203 82.326 2.96803 82.635 3.51203C82.945 4.05603 83.099 4.68003 83.099 5.38403ZM78.763 6.79203C79.285 6.79203 79.675 6.66903 79.931 6.42403C80.187 6.17903 80.315 5.83203 80.315 5.38403C80.315 4.93603 80.187 4.58903 79.931 4.34403C79.675 4.09903 79.286 3.97603 78.763 3.97603H77.275V6.79203H78.763ZM83.979 8.52003C83.979 7.60303 84.149 6.79703 84.491 6.10403C84.843 5.41103 85.318 4.87703 85.915 4.50403C86.5145 4.13009 87.2085 3.93576 87.915 3.94403C88.545 3.94403 89.094 4.07203 89.563 4.32803C90.043 4.58403 90.411 4.92003 90.667 5.33603V4.07203H93.403V13H90.667V11.736C90.3876 12.1636 90.0015 12.511 89.547 12.744C89.077 13 88.529 13.128 87.899 13.128C87.1977 13.1348 86.5092 12.9405 85.915 12.568C85.318 12.184 84.843 11.645 84.491 10.952C84.15 10.248 83.979 9.43703 83.979 8.52003ZM90.667 8.53603C90.667 7.85303 90.475 7.31503 90.091 6.92003C89.9168 6.72938 89.704 6.57798 89.4667 6.47591C89.2295 6.37384 88.9732 6.32343 88.715 6.32803C88.171 6.32803 87.707 6.52503 87.323 6.92003C86.95 7.30403 86.763 7.83703 86.763 8.52003C86.763 9.20303 86.95 9.74703 87.323 10.152C87.501 10.3422 87.7168 10.4931 87.9565 10.5951C88.1962 10.697 88.4545 10.7478 88.715 10.744C88.9732 10.7486 89.2295 10.6982 89.4667 10.5962C89.704 10.4941 89.9168 10.3427 90.091 10.152C90.475 9.75703 90.667 9.21903 90.667 8.53603ZM98.775 3.94403C99.404 3.94403 99.953 4.07203 100.423 4.32803C100.903 4.58403 101.271 4.92003 101.527 5.33603V4.07203H104.263V12.984C104.263 13.805 104.097 14.547 103.767 15.208C103.446 15.8809 102.927 16.4394 102.279 16.808C101.617 17.203 100.791 17.4 99.799 17.4C98.476 17.4 97.404 17.085 96.583 16.456C95.761 15.837 95.292 14.995 95.175 13.928H97.879C97.964 14.269 98.167 14.536 98.487 14.728C98.807 14.931 99.201 15.032 99.671 15.032C100.236 15.032 100.684 14.867 101.015 14.536C101.356 14.216 101.527 13.699 101.527 12.984V11.72C101.249 12.1467 100.869 12.4984 100.423 12.744C99.953 13 99.404 13.128 98.775 13.128C98.0685 13.1363 97.3745 12.942 96.775 12.568C96.177 12.184 95.703 11.645 95.351 10.952C95.009 10.248 94.839 9.43703 94.839 8.52003C94.839 7.60303 95.009 6.79703 95.351 6.10403C95.703 5.41103 96.177 4.87703 96.775 4.50403C97.3745 4.13009 98.0685 3.93576 98.775 3.94403ZM101.527 8.53603C101.527 7.85303 101.335 7.31503 100.951 6.92003C100.777 6.72943 100.564 6.57806 100.327 6.476C100.089 6.37393 99.8332 6.32349 99.575 6.32803C99.031 6.32803 98.567 6.52503 98.183 6.92003C97.809 7.30403 97.623 7.83703 97.623 8.52003C97.623 9.20303 97.809 9.74703 98.183 10.152C98.361 10.3422 98.5768 10.4931 98.8165 10.5951C99.0562 10.697 99.3145 10.7478 99.575 10.744C100.119 10.744 100.577 10.547 100.951 10.152C101.335 9.75703 101.527 9.21903 101.527 8.53603ZM114.658 8.39203C114.658 8.64803 114.642 8.91503 114.61 9.19203H108.418C108.461 9.74703 108.637 10.173 108.946 10.472C109.266 10.76 109.655 10.904 110.114 10.904C110.797 10.904 111.271 10.616 111.538 10.04H114.45C114.303 10.6235 114.024 11.1654 113.634 11.624C113.241 12.1002 112.743 12.4782 112.178 12.728C111.591 12.995 110.935 13.128 110.21 13.128C109.335 13.128 108.557 12.941 107.874 12.568C107.197 12.2007 106.641 11.6449 106.274 10.968C105.89 10.275 105.698 9.46403 105.698 8.53603C105.698 7.60803 105.885 6.79703 106.258 6.10403C106.625 5.42717 107.181 4.87138 107.858 4.50403C108.541 4.13103 109.325 3.94403 110.21 3.94403C111.074 3.94403 111.842 4.12503 112.514 4.48803C113.186 4.85103 113.709 5.36803 114.082 6.04003C114.466 6.71203 114.658 7.49603 114.658 8.39203ZM111.858 7.67203C111.858 7.20203 111.698 6.82903 111.378 6.55203C111.058 6.27503 110.658 6.13603 110.178 6.13603C109.719 6.13603 109.33 6.26903 109.01 6.53603C108.701 6.80303 108.509 7.18103 108.434 7.67203H111.858ZM124.181 1.76803V3.96003H121.205V13H118.469V3.96003H115.493V1.76803H124.181ZM133.97 8.39203C133.97 8.64803 133.955 8.91503 133.923 9.19203H127.731C127.773 9.74703 127.949 10.173 128.259 10.472C128.579 10.76 128.968 10.904 129.427 10.904C130.109 10.904 130.584 10.616 130.851 10.04H133.763C133.615 10.6232 133.336 11.1649 132.947 11.624C132.563 12.094 132.077 12.461 131.491 12.728C130.904 12.995 130.248 13.128 129.523 13.128C128.648 13.128 127.869 12.941 127.187 12.568C126.51 12.2007 125.954 11.6449 125.587 10.968C125.203 10.275 125.011 9.46403 125.011 8.53603C125.011 7.60803 125.197 6.79703 125.571 6.10403C125.938 5.42717 126.494 4.87138 127.171 4.50403C127.853 4.13103 128.637 3.94403 129.523 3.94403C130.387 3.94403 131.155 4.12503 131.827 4.48803C132.499 4.85103 133.021 5.36803 133.395 6.04003C133.779 6.71203 133.97 7.49603 133.97 8.39203ZM131.171 7.67203C131.171 7.20203 131.011 6.82903 130.691 6.55203C130.371 6.27503 129.971 6.13603 129.491 6.13603C129.032 6.13603 128.643 6.26903 128.323 6.53603C128.013 6.80303 127.821 7.18103 127.747 7.67203H131.171ZM139.046 13.128C138.267 13.128 137.574 12.995 136.966 12.728C136.358 12.461 135.878 12.098 135.526 11.64C135.18 11.1862 134.974 10.6412 134.934 10.072H137.638C137.67 10.382 137.814 10.632 138.07 10.824C138.326 11.016 138.641 11.112 139.014 11.112C139.355 11.112 139.617 11.048 139.798 10.92C139.99 10.781 140.086 10.605 140.086 10.392C140.086 10.136 139.953 9.94903 139.686 9.83203C139.419 9.70403 138.987 9.56503 138.39 9.41603C137.847 9.29521 137.313 9.14023 136.79 8.95203C136.365 8.78256 135.986 8.51374 135.686 8.16803C135.377 7.80503 135.222 7.32003 135.222 6.71203C135.222 6.20003 135.361 5.73603 135.638 5.32003C135.926 4.89303 136.342 4.55703 136.886 4.31203C137.441 4.06703 138.097 3.94403 138.854 3.94403C139.974 3.94403 140.854 4.22103 141.494 4.77603C142.145 5.33103 142.518 6.06603 142.614 6.98403H140.086C140.07 6.83965 140.025 6.70003 139.953 6.57355C139.882 6.44707 139.785 6.33635 139.67 6.24803C139.446 6.06703 139.147 5.97603 138.774 5.97603C138.454 5.97603 138.209 6.04003 138.038 6.16803C137.956 6.22161 137.89 6.29544 137.845 6.38235C137.8 6.46926 137.778 6.5663 137.782 6.66403C137.782 6.92003 137.915 7.11203 138.182 7.24003C138.459 7.36803 138.886 7.49603 139.462 7.62403C140.123 7.79403 140.662 7.96503 141.078 8.13603C141.494 8.29603 141.857 8.56303 142.166 8.93603C142.486 9.29903 142.651 9.78903 142.662 10.408C142.662 10.931 142.513 11.4 142.214 11.816C141.926 12.221 141.505 12.541 140.95 12.776C140.406 13.011 139.771 13.128 139.046 13.128ZM149.312 10.68V13H147.92C146.928 13 146.154 12.76 145.6 12.28C145.045 11.79 144.768 10.995 144.768 9.89603V6.34403H143.68V4.07203H144.768V1.89603H147.504V4.07203H149.296V6.34403H147.504V9.92803C147.504 10.195 147.568 10.387 147.696 10.504C147.824 10.621 148.037 10.68 148.336 10.68H149.312Z" fill="white"/>
<path d="M107.715 27.6725C107.715 27.9933 107.449 28.2592 107.117 28.2592C106.784 28.2592 106.518 27.9933 106.518 27.6725C106.518 27.3517 106.784 27.0858 107.117 27.0858C107.449 27.0858 107.715 27.3425 107.715 27.6725ZM107.611 27.6725C107.611 27.4067 107.392 27.1867 107.117 27.1867C106.841 27.1867 106.623 27.4067 106.623 27.6725C106.623 27.9383 106.841 28.1583 107.117 28.1583C107.392 28.1583 107.611 27.9383 107.611 27.6725ZM107.212 27.755L107.364 27.9658H107.24L107.088 27.7642H107.031V27.9658H106.917V27.3883H107.145C107.278 27.3883 107.335 27.4708 107.335 27.5717C107.335 27.6725 107.297 27.7367 107.212 27.755ZM107.022 27.4892V27.6633H107.136C107.202 27.6633 107.231 27.6175 107.231 27.5717C107.231 27.5258 107.202 27.48 107.136 27.48H107.022V27.4892ZM73.876 26.5908C73.7335 26.9025 73.534 27.1867 73.268 27.4433C72.698 27.975 72.033 28.2408 71.235 28.2408C70.4275 28.2408 69.7625 27.975 69.1925 27.4433C68.6225 26.8933 68.347 26.2517 68.347 25.4725C68.347 24.7117 68.6225 24.0608 69.1925 23.5108C69.7625 22.9608 70.4275 22.695 71.235 22.695C72.0235 22.695 72.698 22.9608 73.268 23.5108C73.534 23.7675 73.7335 24.0517 73.876 24.3542H72.413C72.4035 24.345 72.394 24.3358 72.3845 24.3267C72.0805 24.0242 71.7005 23.8683 71.235 23.8683C70.7695 23.8683 70.3895 24.0242 70.076 24.3267C69.772 24.62 69.6105 24.9958 69.6105 25.4725C69.6105 25.9492 69.772 26.325 70.076 26.6275C70.3895 26.9208 70.7695 27.0767 71.235 27.0767C71.7005 27.0767 72.0805 26.9208 72.3845 26.6275C72.394 26.6183 72.413 26.6 72.4225 26.5908H73.876V26.5908ZM55.351 26.5633C55.3415 26.5725 55.332 26.5908 55.313 26.6C55.009 26.8933 54.629 27.0492 54.1635 27.0492C53.698 27.0492 53.318 26.8933 53.0045 26.6C52.7005 26.2975 52.539 25.9125 52.539 25.445C52.539 24.9775 52.7005 24.5925 53.0045 24.2992C53.318 23.9967 53.698 23.8408 54.1635 23.8408C54.629 23.8408 55.009 23.9967 55.313 24.2992C55.3225 24.3083 55.332 24.3175 55.3415 24.3267H56.8045C56.662 24.0242 56.4625 23.74 56.1965 23.4833C55.6265 22.9333 54.9615 22.6675 54.1635 22.6675C53.356 22.6675 52.691 22.9333 52.121 23.4833C51.551 24.0333 51.2755 24.675 51.2755 25.445C51.2755 26.2242 51.551 26.8658 52.121 27.4158C52.691 27.9475 53.356 28.2133 54.1635 28.2133C54.952 28.2133 55.6265 27.9475 56.1965 27.4158C56.4625 27.1592 56.6715 26.875 56.8045 26.5633H55.351V26.5633ZM105.673 27.0492C105.055 27.0492 104.751 26.7192 104.751 26.0408V23.9692H105.834V22.805H104.751V20.385H103.497V26.0408C103.497 27.6083 104.39 28.2133 105.673 28.2133H105.939V27.0492H105.673ZM67.378 27.0492V28.2225H67.112C65.839 28.2225 64.9365 27.6083 64.9365 26.05V20.385H66.1905V22.7958H67.2735V23.9692H66.1905V26.0408C66.1905 26.71 66.4945 27.0492 67.112 27.0492H67.378ZM85.5705 25.4083C85.5705 26.3342 84.858 27.0125 83.946 27.0125C83.034 27.0125 82.3215 26.3433 82.3215 25.4083C82.3215 24.4917 83.0055 23.8042 83.946 23.8042C84.8675 23.8042 85.5705 24.4917 85.5705 25.4083ZM82.521 27.81C82.749 27.975 83.338 28.1767 83.9555 28.1767C84.7725 28.1767 85.4565 27.9108 86.0075 27.3792C86.5585 26.8292 86.834 26.1875 86.834 25.4083C86.834 24.6475 86.5585 23.9967 85.9885 23.4467C85.4375 22.8967 84.7535 22.6308 83.946 22.6308C83.167 22.6308 82.483 22.8875 81.913 23.3825C81.343 23.8775 81.058 24.565 81.058 25.445V30.615H82.3215V27.6817L82.521 27.81ZM89.095 25.445C89.095 25.9125 89.2565 26.2975 89.5605 26.6C89.874 26.8933 90.254 27.0492 90.7195 27.0492C91.185 27.0492 91.565 26.8933 91.869 26.6C92.1825 26.2975 92.344 25.9125 92.344 25.445C92.344 24.9775 92.1825 24.5925 91.869 24.2992C91.565 23.9967 91.185 23.8408 90.7195 23.8408C90.254 23.8408 89.874 23.9967 89.5605 24.2992C89.2565 24.5925 89.095 24.9775 89.095 25.445ZM88.677 23.4925C89.247 22.9425 89.912 22.6767 90.7195 22.6767C91.508 22.6767 92.1825 22.9425 92.7525 23.4925C93.3225 24.0425 93.598 24.6842 93.598 25.4542C93.598 26.2333 93.3225 26.875 92.7525 27.425C92.1825 27.9567 91.5175 28.2225 90.7195 28.2225C89.912 28.2225 89.247 27.9567 88.677 27.425C88.107 26.875 87.8315 26.2333 87.8315 25.4542C87.8315 24.6842 88.107 24.0333 88.677 23.4925ZM98.652 25.2892C98.652 24.3725 99.089 23.905 99.773 23.905C100.457 23.905 100.904 24.3908 100.904 25.2892V28.2133H102.167V25.2892C102.167 24.4367 101.93 23.7858 101.455 23.3733C100.98 22.9517 100.41 22.7408 99.773 22.7408C99.127 22.7408 98.557 22.9608 98.0915 23.3733C97.626 23.795 97.398 24.4275 97.398 25.2892V28.2133H98.6615V25.2892H98.652ZM94.814 22.805H96.0775V28.2225H94.814V22.805ZM75.0445 20.3942V28.2133H76.308V25.2892C76.308 24.3633 76.7545 23.905 77.429 23.905C78.113 23.905 78.5595 24.3725 78.5595 25.2892V28.2133H79.823V25.2892C79.823 24.4642 79.595 23.8317 79.1485 23.3917C78.7115 22.9425 78.17 22.7317 77.5525 22.7317C77.087 22.7317 76.669 22.86 76.2985 23.0983V20.3942H75.0445ZM60.595 27.0492C61.507 27.0492 62.2195 26.38 62.2195 25.445C62.2195 24.5283 61.5355 23.8408 60.595 23.8408C59.683 23.8408 58.9705 24.5283 58.9705 25.445C58.9705 26.3708 59.683 27.0492 60.595 27.0492ZM62.21 28.1492V27.7183C62.172 27.755 62.1055 27.7917 62.0105 27.8558C61.849 27.9567 61.203 28.2133 60.5855 28.2133C59.7685 28.2133 59.0845 27.9475 58.5335 27.4158C57.9825 26.8658 57.707 26.2242 57.707 25.445C57.707 24.6842 57.9825 24.0333 58.5335 23.4833C59.1035 22.9333 59.7875 22.6675 60.5855 22.6675C61.3645 22.6675 62.0485 22.9242 62.6185 23.4192C63.1885 23.9142 63.4735 24.6017 63.4735 25.4817V28.1492H62.21Z" fill="white"/>
<path d="M94.89 20.605C95.1941 20.3117 95.6976 20.3117 95.9921 20.605C96.2961 20.8983 96.2961 21.3842 95.9921 21.6683C95.6881 21.9617 95.1846 21.9617 94.89 21.6683C94.586 21.375 94.586 20.8983 94.89 20.605Z" fill="#00BBFF"/>
<path d="M37.0519 20.7604H38.2315V23.4921H38.2522C38.3349 23.3611 38.435 23.2438 38.5522 23.1403C38.6695 23.0369 38.7971 22.9506 38.9351 22.8816C39.08 22.8058 39.2283 22.7506 39.38 22.7161C39.5387 22.6747 39.6939 22.654 39.8457 22.654C40.2664 22.654 40.6321 22.7299 40.9425 22.8816C41.2598 23.0265 41.5219 23.23 41.7289 23.4921C41.9358 23.7474 42.091 24.0474 42.1945 24.3924C42.298 24.7373 42.3497 25.1063 42.3497 25.4995C42.3497 25.8582 42.3014 26.2066 42.2049 26.5446C42.1152 26.8826 41.9738 27.1827 41.7806 27.4448C41.5944 27.7001 41.3564 27.907 41.0666 28.0657C40.7769 28.2174 40.4355 28.2933 40.0423 28.2933C39.8629 28.2933 39.6801 28.2795 39.4938 28.2519C39.3145 28.2312 39.142 28.1864 38.9765 28.1174C38.8109 28.0484 38.6592 27.9587 38.5212 27.8484C38.3901 27.738 38.2798 27.5931 38.1901 27.4138H38.1694V28.1484H37.0519V20.7604ZM41.1701 25.4788C41.1701 25.2374 41.1391 25.0028 41.077 24.7752C41.0149 24.5476 40.9218 24.3475 40.7976 24.1751C40.6734 23.9957 40.5182 23.8543 40.332 23.7508C40.1457 23.6404 39.9319 23.5853 39.6904 23.5853C39.1938 23.5853 38.8178 23.7577 38.5626 24.1026C38.3143 24.4475 38.1901 24.9063 38.1901 25.4788C38.1901 25.7479 38.2211 25.9996 38.2832 26.2342C38.3522 26.4618 38.4522 26.6584 38.5833 26.824C38.7143 26.9895 38.8696 27.1206 39.0489 27.2172C39.2352 27.3138 39.449 27.362 39.6904 27.362C39.9595 27.362 40.1871 27.3069 40.3734 27.1965C40.5596 27.0861 40.7114 26.9447 40.8287 26.7722C40.9528 26.5929 41.0391 26.3928 41.0873 26.1721C41.1425 25.9445 41.1701 25.7134 41.1701 25.4788ZM42.7567 22.7989H44.0501L45.447 26.7929H45.4677L46.8232 22.7989H48.0545L45.9747 28.4382C45.8781 28.6796 45.7815 28.9107 45.685 29.1314C45.5953 29.3522 45.4815 29.5453 45.3435 29.7109C45.2124 29.8833 45.0469 30.0179 44.8468 30.1144C44.6468 30.2179 44.3915 30.2696 44.0811 30.2696C43.8052 30.2696 43.5327 30.2489 43.2637 30.2076V29.2142C43.3602 29.228 43.4534 29.2418 43.5431 29.2556C43.6327 29.2763 43.7259 29.2866 43.8224 29.2866C43.9604 29.2866 44.0742 29.2694 44.1639 29.2349C44.2536 29.2004 44.326 29.1487 44.3812 29.0797C44.4433 29.0176 44.495 28.9417 44.5364 28.8521C44.5778 28.7624 44.6157 28.6589 44.6502 28.5416L44.7847 28.1277L42.7567 22.7989Z" fill="white"/>
</svg>
