<svg width="150" height="33" viewBox="0 0 150 33" fill="none" xmlns="http://www.w3.org/2000/svg">
<path d="M13.5375 13.5208C12.826 14.2204 12.8201 15.3604 13.5243 16.0672C14.4409 16.9873 18 18 18 18C18 18 17.0174 14.4541 16.1007 13.534C15.3966 12.8272 14.249 12.8213 13.5375 13.5208Z" fill="#2F80ED"/>
<path fill-rule="evenodd" clip-rule="evenodd" d="M30 16C30 24.2843 23.2843 31 15 31C6.71572 31 0 24.2843 0 16C0 7.71572 6.71572 1 15 1C23.2843 1 30 7.71572 30 16ZM27.7283 16.75C27.5646 19.5729 26.4824 22.1494 24.7762 24.1852L22.9848 22.3939C22.5455 21.9545 21.8332 21.9545 21.3939 22.3939C20.9545 22.8332 20.9545 23.5455 21.3939 23.9848L23.1852 25.7762C20.9705 27.6324 18.1158 28.75 15 28.75C11.8842 28.75 9.02951 27.6324 6.81484 25.7761L8.60614 23.9848C9.04549 23.5455 9.04549 22.8332 8.60614 22.3938C8.16682 21.9545 7.45451 21.9545 7.01516 22.3938L5.22382 24.1852C3.51761 22.1494 2.43544 19.5729 2.27169 16.75H4.875C5.49634 16.75 6 16.2463 6 15.625C6 15.0037 5.49634 14.5 4.875 14.5H2.3373C2.63365 11.9713 3.66995 9.6688 5.22382 7.81484L7.01516 9.60618C7.45451 10.0455 8.16682 10.0455 8.60617 9.60618C9.04549 9.16683 9.04549 8.45451 8.60617 8.01516L6.81484 6.22382C8.76004 4.59346 11.199 3.53289 13.875 3.29895V5.875C13.875 6.49634 14.3787 7 15 7C15.6213 7 16.125 6.49634 16.125 5.875V3.29895C18.801 3.53289 21.24 4.59347 23.1852 6.22386L21.3939 8.01516C20.9545 8.45451 20.9545 9.16683 21.3939 9.60618C21.8332 10.0455 22.5455 10.0455 22.9848 9.60618L24.7762 7.81484C26.3301 9.6688 27.3663 11.9713 27.6627 14.5H25.125C24.5037 14.5 24 15.0037 24 15.625C24 16.2463 24.5037 16.75 25.125 16.75H27.7283Z" fill="#2F80ED"/>
<path d="M52.448 2.768L49.52 14H46.208L44.416 6.608L42.56 14H39.248L36.4 2.768H39.328L40.944 10.944L42.944 2.768H45.952L47.872 10.944L49.504 2.768H52.448ZM62.2361 9.392C62.2361 9.648 62.2201 9.91467 62.1881 10.192H55.9961C56.0388 10.7467 56.2148 11.1733 56.5241 11.472C56.8441 11.76 57.2335 11.904 57.6921 11.904C58.3748 11.904 58.8495 11.616 59.1161 11.04H62.0281C61.8788 11.6267 61.6068 12.1547 61.2121 12.624C60.8281 13.0933 60.3428 13.4613 59.7561 13.728C59.1695 13.9947 58.5135 14.128 57.7881 14.128C56.9135 14.128 56.1348 13.9413 55.4521 13.568C54.7695 13.1947 54.2361 12.6613 53.8521 11.968C53.4681 11.2747 53.2761 10.464 53.2761 9.536C53.2761 8.608 53.4628 7.79733 53.8361 7.104C54.2201 6.41067 54.7535 5.87733 55.4361 5.504C56.1188 5.13067 56.9028 4.944 57.7881 4.944C58.6521 4.944 59.4201 5.12533 60.0921 5.488C60.7641 5.85067 61.2868 6.368 61.6601 7.04C62.0441 7.712 62.2361 8.496 62.2361 9.392ZM59.4361 8.672C59.4361 8.20267 59.2761 7.82933 58.9561 7.552C58.6361 7.27467 58.2361 7.136 57.7561 7.136C57.2975 7.136 56.9081 7.26933 56.5881 7.536C56.2788 7.80267 56.0868 8.18133 56.0121 8.672H59.4361ZM66.4155 6.336C66.6715 5.92 67.0395 5.584 67.5195 5.328C67.9995 5.072 68.5488 4.944 69.1675 4.944C69.9035 4.944 70.5702 5.13067 71.1675 5.504C71.7648 5.87733 72.2342 6.41067 72.5755 7.104C72.9275 7.79733 73.1035 8.60267 73.1035 9.52C73.1035 10.4373 72.9275 11.248 72.5755 11.952C72.2342 12.6453 71.7648 13.184 71.1675 13.568C70.5702 13.9413 69.9035 14.128 69.1675 14.128C68.5382 14.128 67.9888 14.0053 67.5195 13.76C67.0502 13.504 66.6822 13.168 66.4155 12.752V14H63.6795V2.16H66.4155V6.336ZM70.3195 9.52C70.3195 8.83733 70.1275 8.304 69.7435 7.92C69.3702 7.52533 68.9062 7.328 68.3515 7.328C67.8075 7.328 67.3435 7.52533 66.9595 7.92C66.5862 8.31467 66.3995 8.85333 66.3995 9.536C66.3995 10.2187 66.5862 10.7573 66.9595 11.152C67.3435 11.5467 67.8075 11.744 68.3515 11.744C68.8955 11.744 69.3595 11.5467 69.7435 11.152C70.1275 10.7467 70.3195 10.2027 70.3195 9.52ZM83.0989 6.384C83.0989 7.03467 82.9495 7.632 82.6509 8.176C82.3522 8.70933 81.8935 9.14133 81.2749 9.472C80.6562 9.80267 79.8882 9.968 78.9709 9.968H77.2749V14H74.5389V2.768H78.9709C79.8669 2.768 80.6242 2.92267 81.2429 3.232C81.8615 3.54133 82.3255 3.968 82.6349 4.512C82.9442 5.056 83.0989 5.68 83.0989 6.384ZM78.7629 7.792C79.2855 7.792 79.6749 7.66933 79.9309 7.424C80.1869 7.17867 80.3149 6.832 80.3149 6.384C80.3149 5.936 80.1869 5.58933 79.9309 5.344C79.6749 5.09867 79.2855 4.976 78.7629 4.976H77.2749V7.792H78.7629ZM83.9793 9.52C83.9793 8.60267 84.1499 7.79733 84.4913 7.104C84.8433 6.41067 85.3179 5.87733 85.9153 5.504C86.5126 5.13067 87.1793 4.944 87.9153 4.944C88.5446 4.944 89.0939 5.072 89.5633 5.328C90.0433 5.584 90.4113 5.92 90.6673 6.336V5.072H93.4033V14H90.6673V12.736C90.4006 13.152 90.0273 13.488 89.5473 13.744C89.0779 14 88.5286 14.128 87.8993 14.128C87.1739 14.128 86.5126 13.9413 85.9153 13.568C85.3179 13.184 84.8433 12.6453 84.4913 11.952C84.1499 11.248 83.9793 10.4373 83.9793 9.52ZM90.6673 9.536C90.6673 8.85333 90.4753 8.31467 90.0913 7.92C89.7179 7.52533 89.2593 7.328 88.7153 7.328C88.1713 7.328 87.7073 7.52533 87.3233 7.92C86.9499 8.304 86.7633 8.83733 86.7633 9.52C86.7633 10.2027 86.9499 10.7467 87.3233 11.152C87.7073 11.5467 88.1713 11.744 88.7153 11.744C89.2593 11.744 89.7179 11.5467 90.0913 11.152C90.4753 10.7573 90.6673 10.2187 90.6673 9.536ZM98.7746 4.944C99.404 4.944 99.9533 5.072 100.423 5.328C100.903 5.584 101.271 5.92 101.527 6.336V5.072H104.263V13.984C104.263 14.8053 104.097 15.5467 103.767 16.208C103.447 16.88 102.951 17.4133 102.279 17.808C101.617 18.2027 100.791 18.4 99.7986 18.4C98.476 18.4 97.404 18.0853 96.5826 17.456C95.7613 16.8373 95.292 15.9947 95.1746 14.928H97.8786C97.964 15.2693 98.1666 15.536 98.4866 15.728C98.8066 15.9307 99.2013 16.032 99.6706 16.032C100.236 16.032 100.684 15.8667 101.015 15.536C101.356 15.216 101.527 14.6987 101.527 13.984V12.72C101.26 13.136 100.892 13.4773 100.423 13.744C99.9533 14 99.404 14.128 98.7746 14.128C98.0386 14.128 97.372 13.9413 96.7746 13.568C96.1773 13.184 95.7026 12.6453 95.3506 11.952C95.0093 11.248 94.8386 10.4373 94.8386 9.52C94.8386 8.60267 95.0093 7.79733 95.3506 7.104C95.7026 6.41067 96.1773 5.87733 96.7746 5.504C97.372 5.13067 98.0386 4.944 98.7746 4.944ZM101.527 9.536C101.527 8.85333 101.335 8.31467 100.951 7.92C100.577 7.52533 100.119 7.328 99.5746 7.328C99.0306 7.328 98.5666 7.52533 98.1826 7.92C97.8093 8.304 97.6226 8.83733 97.6226 9.52C97.6226 10.2027 97.8093 10.7467 98.1826 11.152C98.5666 11.5467 99.0306 11.744 99.5746 11.744C100.119 11.744 100.577 11.5467 100.951 11.152C101.335 10.7573 101.527 10.2187 101.527 9.536ZM114.658 9.392C114.658 9.648 114.642 9.91467 114.61 10.192H108.418C108.461 10.7467 108.637 11.1733 108.946 11.472C109.266 11.76 109.655 11.904 110.114 11.904C110.797 11.904 111.271 11.616 111.538 11.04H114.45C114.301 11.6267 114.029 12.1547 113.634 12.624C113.25 13.0933 112.765 13.4613 112.178 13.728C111.591 13.9947 110.935 14.128 110.21 14.128C109.335 14.128 108.557 13.9413 107.874 13.568C107.191 13.1947 106.658 12.6613 106.274 11.968C105.89 11.2747 105.698 10.464 105.698 9.536C105.698 8.608 105.885 7.79733 106.258 7.104C106.642 6.41067 107.175 5.87733 107.858 5.504C108.541 5.13067 109.325 4.944 110.21 4.944C111.074 4.944 111.842 5.12533 112.514 5.488C113.186 5.85067 113.709 6.368 114.082 7.04C114.466 7.712 114.658 8.496 114.658 9.392ZM111.858 8.672C111.858 8.20267 111.698 7.82933 111.378 7.552C111.058 7.27467 110.658 7.136 110.178 7.136C109.719 7.136 109.33 7.26933 109.01 7.536C108.701 7.80267 108.509 8.18133 108.434 8.672H111.858ZM124.181 2.768V4.96H121.205V14H118.469V4.96H115.493V2.768H124.181ZM133.97 9.392C133.97 9.648 133.955 9.91467 133.923 10.192H127.731C127.773 10.7467 127.949 11.1733 128.259 11.472C128.579 11.76 128.968 11.904 129.427 11.904C130.109 11.904 130.584 11.616 130.851 11.04H133.763C133.613 11.6267 133.341 12.1547 132.947 12.624C132.563 13.0933 132.077 13.4613 131.491 13.728C130.904 13.9947 130.248 14.128 129.523 14.128C128.648 14.128 127.869 13.9413 127.187 13.568C126.504 13.1947 125.971 12.6613 125.587 11.968C125.203 11.2747 125.011 10.464 125.011 9.536C125.011 8.608 125.197 7.79733 125.571 7.104C125.955 6.41067 126.488 5.87733 127.171 5.504C127.853 5.13067 128.637 4.944 129.523 4.944C130.387 4.944 131.155 5.12533 131.827 5.488C132.499 5.85067 133.021 6.368 133.395 7.04C133.779 7.712 133.97 8.496 133.97 9.392ZM131.171 8.672C131.171 8.20267 131.011 7.82933 130.691 7.552C130.371 7.27467 129.971 7.136 129.491 7.136C129.032 7.136 128.643 7.26933 128.323 7.536C128.013 7.80267 127.821 8.18133 127.747 8.672H131.171ZM139.046 14.128C138.267 14.128 137.574 13.9947 136.966 13.728C136.358 13.4613 135.878 13.0987 135.526 12.64C135.174 12.1707 134.977 11.648 134.934 11.072H137.638C137.67 11.3813 137.814 11.632 138.07 11.824C138.326 12.016 138.641 12.112 139.014 12.112C139.355 12.112 139.617 12.048 139.798 11.92C139.99 11.7813 140.086 11.6053 140.086 11.392C140.086 11.136 139.953 10.9493 139.686 10.832C139.419 10.704 138.987 10.5653 138.39 10.416C137.75 10.2667 137.217 10.112 136.79 9.952C136.363 9.78133 135.995 9.52 135.686 9.168C135.377 8.80533 135.222 8.32 135.222 7.712C135.222 7.2 135.361 6.736 135.638 6.32C135.926 5.89333 136.342 5.55733 136.886 5.312C137.441 5.06667 138.097 4.944 138.854 4.944C139.974 4.944 140.854 5.22133 141.494 5.776C142.145 6.33067 142.518 7.06667 142.614 7.984H140.086C140.043 7.67467 139.905 7.42933 139.67 7.248C139.446 7.06667 139.147 6.976 138.774 6.976C138.454 6.976 138.209 7.04 138.038 7.168C137.867 7.28533 137.782 7.45067 137.782 7.664C137.782 7.92 137.915 8.112 138.182 8.24C138.459 8.368 138.886 8.496 139.462 8.624C140.123 8.79467 140.662 8.96533 141.078 9.136C141.494 9.296 141.857 9.56267 142.166 9.936C142.486 10.2987 142.651 10.7893 142.662 11.408C142.662 11.9307 142.513 12.4 142.214 12.816C141.926 13.2213 141.505 13.5413 140.95 13.776C140.406 14.0107 139.771 14.128 139.046 14.128ZM149.312 11.68V14H147.92C146.928 14 146.154 13.76 145.6 13.28C145.045 12.7893 144.768 11.9947 144.768 10.896V7.344H143.68V5.072H144.768V2.896H147.504V5.072H149.296V7.344H147.504V10.928C147.504 11.1947 147.568 11.3867 147.696 11.504C147.824 11.6213 148.037 11.68 148.336 11.68H149.312Z" fill="#111111"/>
<path d="M37.68 24.54C37.8667 24.2133 38.14 23.9467 38.5 23.74C38.86 23.5333 39.27 23.43 39.73 23.43C40.2233 23.43 40.6667 23.5467 41.06 23.78C41.4533 24.0133 41.7633 24.3433 41.99 24.77C42.2167 25.19 42.33 25.68 42.33 26.24C42.33 26.7933 42.2167 27.2867 41.99 27.72C41.7633 28.1533 41.45 28.49 41.05 28.73C40.6567 28.97 40.2167 29.09 39.73 29.09C39.2567 29.09 38.84 28.9867 38.48 28.78C38.1267 28.5733 37.86 28.31 37.68 27.99V29H36.77V21.6H37.68V24.54ZM41.4 26.24C41.4 25.8267 41.3167 25.4667 41.15 25.16C40.9833 24.8533 40.7567 24.62 40.47 24.46C40.19 24.3 39.88 24.22 39.54 24.22C39.2067 24.22 38.8967 24.3033 38.61 24.47C38.33 24.63 38.1033 24.8667 37.93 25.18C37.7633 25.4867 37.68 25.8433 37.68 26.25C37.68 26.6633 37.7633 27.0267 37.93 27.34C38.1033 27.6467 38.33 27.8833 38.61 28.05C38.8967 28.21 39.2067 28.29 39.54 28.29C39.88 28.29 40.19 28.21 40.47 28.05C40.7567 27.8833 40.9833 27.6467 41.15 27.34C41.3167 27.0267 41.4 26.66 41.4 26.24ZM48.2478 23.52L44.9478 31.58H44.0078L45.0878 28.94L42.8778 23.52H43.8878L45.6078 27.96L47.3078 23.52H48.2478ZM51.4886 25.51C51.4886 24.83 51.6419 24.22 51.9486 23.68C52.2553 23.1333 52.6719 22.7067 53.1986 22.4C53.7319 22.0933 54.3219 21.94 54.9686 21.94C55.7286 21.94 56.3919 22.1233 56.9586 22.49C57.5253 22.8567 57.9386 23.3767 58.1986 24.05H57.1086C56.9153 23.63 56.6353 23.3067 56.2686 23.08C55.9086 22.8533 55.4753 22.74 54.9686 22.74C54.4819 22.74 54.0453 22.8533 53.6586 23.08C53.2719 23.3067 52.9686 23.63 52.7486 24.05C52.5286 24.4633 52.4186 24.95 52.4186 25.51C52.4186 26.0633 52.5286 26.55 52.7486 26.97C52.9686 27.3833 53.2719 27.7033 53.6586 27.93C54.0453 28.1567 54.4819 28.27 54.9686 28.27C55.4753 28.27 55.9086 28.16 56.2686 27.94C56.6353 27.7133 56.9153 27.39 57.1086 26.97H58.1986C57.9386 27.6367 57.5253 28.1533 56.9586 28.52C56.3919 28.88 55.7286 29.06 54.9686 29.06C54.3219 29.06 53.7319 28.91 53.1986 28.61C52.6719 28.3033 52.2553 27.88 51.9486 27.34C51.6419 26.8 51.4886 26.19 51.4886 25.51ZM59.2132 26.24C59.2132 25.68 59.3265 25.19 59.5532 24.77C59.7799 24.3433 60.0899 24.0133 60.4832 23.78C60.8832 23.5467 61.3265 23.43 61.8132 23.43C62.2932 23.43 62.7099 23.5333 63.0632 23.74C63.4165 23.9467 63.6799 24.2067 63.8532 24.52V23.52H64.7732V29H63.8532V27.98C63.6732 28.3 63.4032 28.5667 63.0432 28.78C62.6899 28.9867 62.2765 29.09 61.8032 29.09C61.3165 29.09 60.8765 28.97 60.4832 28.73C60.0899 28.49 59.7799 28.1533 59.5532 27.72C59.3265 27.2867 59.2132 26.7933 59.2132 26.24ZM63.8532 26.25C63.8532 25.8367 63.7699 25.4767 63.6032 25.17C63.4365 24.8633 63.2099 24.63 62.9232 24.47C62.6432 24.3033 62.3332 24.22 61.9932 24.22C61.6532 24.22 61.3432 24.3 61.0632 24.46C60.7832 24.62 60.5599 24.8533 60.3932 25.16C60.2265 25.4667 60.1432 25.8267 60.1432 26.24C60.1432 26.66 60.2265 27.0267 60.3932 27.34C60.5599 27.6467 60.7832 27.8833 61.0632 28.05C61.3432 28.21 61.6532 28.29 61.9932 28.29C62.3332 28.29 62.6432 28.21 62.9232 28.05C63.2099 27.8833 63.4365 27.6467 63.6032 27.34C63.7699 27.0267 63.8532 26.6633 63.8532 26.25ZM67.421 24.27V27.5C67.421 27.7667 67.4777 27.9567 67.591 28.07C67.7043 28.1767 67.901 28.23 68.181 28.23H68.851V29H68.031C67.5243 29 67.1443 28.8833 66.891 28.65C66.6377 28.4167 66.511 28.0333 66.511 27.5V24.27H65.801V23.52H66.511V22.14H67.421V23.52H68.851V24.27H67.421ZM69.6136 26.25C69.6136 25.6833 69.7269 25.19 69.9536 24.77C70.1803 24.3433 70.4936 24.0133 70.8936 23.78C71.3003 23.5467 71.7636 23.43 72.2836 23.43C72.9569 23.43 73.5103 23.5933 73.9436 23.92C74.3836 24.2467 74.6736 24.7 74.8136 25.28H73.8336C73.7403 24.9467 73.5569 24.6833 73.2836 24.49C73.0169 24.2967 72.6836 24.2 72.2836 24.2C71.7636 24.2 71.3436 24.38 71.0236 24.74C70.7036 25.0933 70.5436 25.5967 70.5436 26.25C70.5436 26.91 70.7036 27.42 71.0236 27.78C71.3436 28.14 71.7636 28.32 72.2836 28.32C72.6836 28.32 73.0169 28.2267 73.2836 28.04C73.5503 27.8533 73.7336 27.5867 73.8336 27.24H74.8136C74.6669 27.8 74.3736 28.25 73.9336 28.59C73.4936 28.9233 72.9436 29.09 72.2836 29.09C71.7636 29.09 71.3003 28.9733 70.8936 28.74C70.4936 28.5067 70.1803 28.1767 69.9536 27.75C69.7269 27.3233 69.6136 26.8233 69.6136 26.25ZM78.7478 23.42C79.1611 23.42 79.5345 23.51 79.8678 23.69C80.2011 23.8633 80.4611 24.1267 80.6478 24.48C80.8411 24.8333 80.9378 25.2633 80.9378 25.77V29H80.0378V25.9C80.0378 25.3533 79.9011 24.9367 79.6278 24.65C79.3545 24.3567 78.9811 24.21 78.5078 24.21C78.0278 24.21 77.6445 24.36 77.3578 24.66C77.0778 24.96 76.9378 25.3967 76.9378 25.97V29H76.0278V21.6H76.9378V24.3C77.1178 24.02 77.3645 23.8033 77.6778 23.65C77.9978 23.4967 78.3545 23.42 78.7478 23.42ZM83.3343 24.53C83.5143 24.2167 83.781 23.9567 84.1343 23.75C84.4943 23.5367 84.911 23.43 85.3843 23.43C85.871 23.43 86.311 23.5467 86.7043 23.78C87.1043 24.0133 87.4176 24.3433 87.6443 24.77C87.871 25.19 87.9843 25.68 87.9843 26.24C87.9843 26.7933 87.871 27.2867 87.6443 27.72C87.4176 28.1533 87.1043 28.49 86.7043 28.73C86.311 28.97 85.871 29.09 85.3843 29.09C84.9176 29.09 84.5043 28.9867 84.1443 28.78C83.791 28.5667 83.521 28.3033 83.3343 27.99V31.6H82.4243V23.52H83.3343V24.53ZM87.0543 26.24C87.0543 25.8267 86.971 25.4667 86.8043 25.16C86.6376 24.8533 86.411 24.62 86.1243 24.46C85.8443 24.3 85.5343 24.22 85.1943 24.22C84.861 24.22 84.551 24.3033 84.2643 24.47C83.9843 24.63 83.7576 24.8667 83.5843 25.18C83.4176 25.4867 83.3343 25.8433 83.3343 26.25C83.3343 26.6633 83.4176 27.0267 83.5843 27.34C83.7576 27.6467 83.9843 27.8833 84.2643 28.05C84.551 28.21 84.861 28.29 85.1943 28.29C85.5343 28.29 85.8443 28.21 86.1243 28.05C86.411 27.8833 86.6376 27.6467 86.8043 27.34C86.971 27.0267 87.0543 26.66 87.0543 26.24ZM91.5721 29.09C91.0588 29.09 90.5921 28.9733 90.1721 28.74C89.7588 28.5067 89.4321 28.1767 89.1921 27.75C88.9588 27.3167 88.8421 26.8167 88.8421 26.25C88.8421 25.69 88.9621 25.1967 89.2021 24.77C89.4488 24.3367 89.7821 24.0067 90.2021 23.78C90.6221 23.5467 91.0921 23.43 91.6121 23.43C92.1321 23.43 92.6021 23.5467 93.0221 23.78C93.4421 24.0067 93.7721 24.3333 94.0121 24.76C94.2588 25.1867 94.3821 25.6833 94.3821 26.25C94.3821 26.8167 94.2554 27.3167 94.0021 27.75C93.7554 28.1767 93.4188 28.5067 92.9921 28.74C92.5654 28.9733 92.0921 29.09 91.5721 29.09ZM91.5721 28.29C91.8988 28.29 92.2054 28.2133 92.4921 28.06C92.7788 27.9067 93.0088 27.6767 93.1821 27.37C93.3621 27.0633 93.4521 26.69 93.4521 26.25C93.4521 25.81 93.3654 25.4367 93.1921 25.13C93.0188 24.8233 92.7921 24.5967 92.5121 24.45C92.2321 24.2967 91.9288 24.22 91.6021 24.22C91.2688 24.22 90.9621 24.2967 90.6821 24.45C90.4088 24.5967 90.1888 24.8233 90.0221 25.13C89.8554 25.4367 89.7721 25.81 89.7721 26.25C89.7721 26.6967 89.8521 27.0733 90.0121 27.38C90.1788 27.6867 90.3988 27.9167 90.6721 28.07C90.9454 28.2167 91.2454 28.29 91.5721 28.29ZM96.0486 22.63C95.8753 22.63 95.7286 22.57 95.6086 22.45C95.4886 22.33 95.4286 22.1833 95.4286 22.01C95.4286 21.8367 95.4886 21.69 95.6086 21.57C95.7286 21.45 95.8753 21.39 96.0486 21.39C96.2153 21.39 96.3553 21.45 96.4686 21.57C96.5886 21.69 96.6486 21.8367 96.6486 22.01C96.6486 22.1833 96.5886 22.33 96.4686 22.45C96.3553 22.57 96.2153 22.63 96.0486 22.63ZM96.4886 23.52V29H95.5786V23.52H96.4886ZM100.71 23.42C101.376 23.42 101.916 23.6233 102.33 24.03C102.743 24.43 102.95 25.01 102.95 25.77V29H102.05V25.9C102.05 25.3533 101.913 24.9367 101.64 24.65C101.366 24.3567 100.993 24.21 100.52 24.21C100.04 24.21 99.6562 24.36 99.3695 24.66C99.0895 24.96 98.9495 25.3967 98.9495 25.97V29H98.0395V23.52H98.9495V24.3C99.1295 24.02 99.3729 23.8033 99.6795 23.65C99.9929 23.4967 100.336 23.42 100.71 23.42ZM105.546 24.27V27.5C105.546 27.7667 105.603 27.9567 105.716 28.07C105.829 28.1767 106.026 28.23 106.306 28.23H106.976V29H106.156C105.649 29 105.269 28.8833 105.016 28.65C104.763 28.4167 104.636 28.0333 104.636 27.5V24.27H103.926V23.52H104.636V22.14H105.546V23.52H106.976V24.27H105.546Z" fill="#111111"/>
</svg>
