<svg width="105" height="14" viewBox="0 0 105 14" fill="none" xmlns="http://www.w3.org/2000/svg">
<path d="M13.3923 1.42243L11.218 10.2524H8.39747L7.55192 6.40514C7.53582 6.33266 7.50964 6.20986 7.47341 6.03672C7.44119 5.86358 7.40294 5.66629 7.35865 5.44484C7.31839 5.22338 7.28014 5.00595 7.2439 4.79255C7.21169 4.57513 7.18753 4.39192 7.17142 4.24295C7.15532 4.39192 7.12915 4.57513 7.09291 4.79255C7.05667 5.00595 7.01641 5.22338 6.97212 5.44484C6.93185 5.66629 6.89159 5.86358 6.85132 6.03672C6.81509 6.20986 6.78891 6.33266 6.77281 6.40514L5.92122 10.2524H3.1007L0.914352 1.42243H3.21546L4.17576 5.84949C4.19992 5.95821 4.23213 6.11322 4.2724 6.31454C4.31669 6.51184 4.36098 6.72927 4.40527 6.96683C4.45358 7.20036 4.49787 7.42584 4.53814 7.64327C4.5784 7.86069 4.60659 8.04188 4.62269 8.18683C4.65491 7.93719 4.69718 7.65333 4.74953 7.33524C4.8059 7.01716 4.86629 6.69504 4.93072 6.3689C4.99917 6.03873 5.06359 5.73273 5.12398 5.45088C5.18438 5.16903 5.23672 4.93952 5.28102 4.76236L6.06013 1.42243H8.27064L9.02559 4.76236C9.06586 4.93549 9.11619 5.165 9.17659 5.45088C9.24101 5.73273 9.30543 6.03873 9.36985 6.3689C9.4383 6.69907 9.50071 7.02521 9.55708 7.34732C9.61345 7.66541 9.65573 7.94525 9.68392 8.18683C9.70807 7.98551 9.74834 7.73185 9.80471 7.42584C9.86108 7.1158 9.91745 6.81583 9.97382 6.52593C10.0342 6.232 10.0805 6.01055 10.1127 5.86157L11.0912 1.42243H13.3923Z" fill="white"/>
<path d="M16.7329 3.28868C17.3973 3.28868 17.971 3.40545 18.4542 3.63898C18.9374 3.86849 19.3098 4.21476 19.5715 4.6778C19.8333 5.14084 19.9641 5.72065 19.9641 6.41722V7.46812H15.7424C15.7625 7.82647 15.8954 8.1204 16.141 8.3499C16.3907 8.57941 16.7571 8.69416 17.2402 8.69416C17.667 8.69416 18.0576 8.65189 18.4119 8.56733C18.7703 8.48278 19.1387 8.35192 19.5172 8.17475V9.87189C19.187 10.045 18.8267 10.1719 18.4361 10.2524C18.0455 10.3329 17.5523 10.3732 16.9564 10.3732C16.2679 10.3732 15.6518 10.2504 15.1082 10.0048C14.5647 9.75916 14.1359 9.37866 13.8218 8.86327C13.5118 8.34789 13.3567 7.68554 13.3567 6.87623C13.3567 6.05484 13.4977 5.38041 13.7795 4.85295C14.0614 4.32146 14.456 3.92888 14.9633 3.67522C15.4706 3.41753 16.0605 3.28868 16.7329 3.28868ZM16.8175 4.89523C16.5396 4.89523 16.3061 4.98381 16.1169 5.16097C15.9316 5.33411 15.8229 5.60791 15.7907 5.98236H17.82C17.816 5.78104 17.7758 5.59784 17.6992 5.43276C17.6227 5.26767 17.51 5.13681 17.361 5.04018C17.2161 4.94354 17.0349 4.89523 16.8175 4.89523Z" fill="white"/>
<path d="M23.2893 0.854706V2.98066C23.2893 3.22225 23.2813 3.45377 23.2651 3.67522C23.249 3.89265 23.2289 4.09799 23.2047 4.29126H23.2893C23.4665 4.01344 23.698 3.77789 23.9839 3.58463C24.2697 3.38733 24.6442 3.28868 25.1072 3.28868C25.8199 3.28868 26.4017 3.59066 26.8527 4.19463C27.3077 4.79859 27.5352 5.67233 27.5352 6.81583C27.5352 7.59293 27.4305 8.24723 27.2211 8.77872C27.0117 9.30618 26.7178 9.7048 26.3393 9.97457C25.9649 10.2403 25.53 10.3732 25.0348 10.3732C24.5516 10.3732 24.1832 10.2906 23.9295 10.1256C23.6799 9.95645 23.4665 9.77526 23.2893 9.58199H23.1444L22.7699 10.2524H20.9278V0.854706H23.2893ZM24.2436 5.14285C24.0261 5.14285 23.847 5.19318 23.706 5.29384C23.5651 5.3945 23.4604 5.55154 23.392 5.76494C23.3235 5.97431 23.2893 6.24207 23.2893 6.56821V6.90039C23.2893 7.43188 23.3598 7.82647 23.5007 8.08416C23.6456 8.34185 23.9013 8.4707 24.2677 8.4707C24.5455 8.4707 24.759 8.32776 24.9079 8.04188C25.0569 7.75601 25.1314 7.33927 25.1314 6.79168C25.1314 6.24408 25.0589 5.83339 24.914 5.55959C24.769 5.28177 24.5455 5.14285 24.2436 5.14285Z" fill="white"/>
<path d="M31.8356 1.42243C32.955 1.42243 33.7925 1.66603 34.3481 2.15323C34.9078 2.64043 35.1876 3.33297 35.1876 4.23087C35.1876 4.63351 35.1293 5.02005 35.0125 5.39048C34.8998 5.76091 34.7125 6.09108 34.4508 6.38098C34.1931 6.67088 33.8489 6.90039 33.418 7.0695C32.9912 7.23861 32.4638 7.32316 31.8356 7.32316H31.1652V10.2524H28.7796V1.42243H31.8356ZM31.7813 3.34908H31.1652V5.3784H31.6363C31.8417 5.3784 32.0329 5.34417 32.2101 5.27573C32.3873 5.20325 32.5282 5.0885 32.6329 4.93147C32.7416 4.77041 32.7959 4.55701 32.7959 4.29126C32.7959 4.01344 32.7134 3.78796 32.5483 3.61482C32.3832 3.43766 32.1276 3.34908 31.7813 3.34908Z" fill="white"/>
<path d="M39.0537 3.28868C39.9194 3.28868 40.5959 3.5041 41.0831 3.93492C41.5703 4.36173 41.8139 4.97173 41.8139 5.76494V10.2524H40.1771L39.7241 9.34645H39.6758C39.4826 9.58803 39.2833 9.78533 39.0779 9.93833C38.8766 10.0873 38.6451 10.196 38.3833 10.2645C38.1216 10.3369 37.8015 10.3732 37.423 10.3732C37.0284 10.3732 36.6741 10.2927 36.3601 10.1316C36.046 9.97054 35.7984 9.72694 35.6172 9.4008C35.436 9.07466 35.3454 8.66195 35.3454 8.16267C35.3454 7.42986 35.5991 6.8863 36.1064 6.53197C36.6137 6.17765 37.3486 5.97834 38.3109 5.93405L39.4524 5.89781V5.80117C39.4524 5.49517 39.3759 5.27774 39.2229 5.14889C39.0739 5.02005 38.8726 4.95562 38.6189 4.95562C38.3491 4.95562 38.0471 5.00394 37.7129 5.10058C37.3828 5.19318 37.0506 5.31398 36.7164 5.46295L36.0339 3.90473C36.4285 3.7034 36.8754 3.5504 37.3747 3.44571C37.874 3.34103 38.4337 3.28868 39.0537 3.28868ZM39.4644 7.19633L38.9209 7.22049C38.486 7.2366 38.18 7.3131 38.0028 7.45C37.8297 7.58287 37.7431 7.77413 37.7431 8.02376C37.7431 8.2573 37.8056 8.43043 37.9304 8.54317C38.0552 8.65189 38.2203 8.70624 38.4256 8.70624C38.7115 8.70624 38.9551 8.61565 39.1564 8.43446C39.3618 8.25327 39.4644 8.01772 39.4644 7.72782V7.19633Z" fill="white"/>
<path d="M45.5104 13.2239C44.54 13.2239 43.7911 13.0608 43.2636 12.7347C42.7402 12.4126 42.4785 11.9475 42.4785 11.3395C42.4785 10.9329 42.6053 10.5967 42.859 10.3309C43.1126 10.0652 43.4931 9.87391 44.0005 9.75714C43.7911 9.66856 43.6079 9.52562 43.4508 9.32833C43.2978 9.13103 43.2213 8.93575 43.2213 8.74248C43.2213 8.52908 43.2797 8.34185 43.3965 8.18079C43.5133 8.01571 43.7569 7.82043 44.1273 7.59495C43.773 7.43792 43.4931 7.19231 43.2878 6.85811C43.0865 6.52392 42.9858 6.11725 42.9858 5.6381C42.9858 5.14285 43.0985 4.72008 43.324 4.36978C43.5535 4.01948 43.8857 3.75172 44.3206 3.56651C44.7594 3.38129 45.2929 3.28868 45.9211 3.28868C46.0056 3.28868 46.1345 3.29674 46.3076 3.31284C46.4807 3.32492 46.6559 3.34103 46.833 3.36116C47.0102 3.37726 47.1471 3.39337 47.2437 3.40948H49.6294V4.55097L48.6933 4.89523C48.7577 5.01199 48.806 5.13883 48.8382 5.27573C48.8704 5.41262 48.8865 5.55758 48.8865 5.71058C48.8865 6.44742 48.6268 7.01917 48.1074 7.42584C47.592 7.83251 46.821 8.03584 45.7942 8.03584C45.5406 8.03584 45.3392 8.01974 45.1903 7.98753C45.1621 8.03987 45.1399 8.09221 45.1238 8.14456C45.1117 8.19287 45.1057 8.23918 45.1057 8.28347C45.1057 8.37608 45.1601 8.45056 45.2688 8.50693C45.3815 8.55928 45.5164 8.59552 45.6734 8.61565C45.8345 8.63578 45.9875 8.64585 46.1325 8.64585H47.2679C48.037 8.64585 48.6127 8.8069 48.9952 9.12902C49.3778 9.45113 49.569 9.93632 49.569 10.5846C49.569 11.418 49.2127 12.0663 48.5 12.5293C47.7913 12.9924 46.7948 13.2239 45.5104 13.2239ZM45.6251 11.7502C45.911 11.7502 46.1989 11.7241 46.4888 11.6717C46.7787 11.6234 47.0223 11.5429 47.2196 11.4301C47.4169 11.3174 47.5155 11.1684 47.5155 10.9832C47.5155 10.8423 47.4571 10.7356 47.3404 10.6631C47.2236 10.5946 47.0726 10.5483 46.8874 10.5242C46.7022 10.5 46.5069 10.4879 46.3016 10.4879H45.3835C45.2144 10.4879 45.0594 10.5141 44.9185 10.5665C44.7816 10.6228 44.6729 10.6973 44.5923 10.7899C44.5118 10.8825 44.4715 10.9872 44.4715 11.104C44.4715 11.2973 44.5762 11.4523 44.7856 11.569C44.995 11.6898 45.2748 11.7502 45.6251 11.7502ZM45.9452 6.70108C46.1707 6.70108 46.3438 6.61451 46.4646 6.44138C46.5894 6.26824 46.6519 6.00854 46.6519 5.66226C46.6519 5.30794 46.5935 5.04219 46.4767 4.86503C46.3599 4.68787 46.1828 4.59929 45.9452 4.59929C45.6996 4.59929 45.5164 4.68787 45.3956 4.86503C45.2748 5.03817 45.2144 5.29988 45.2144 5.65018C45.2144 6.00048 45.2748 6.26421 45.3956 6.44138C45.5164 6.61451 45.6996 6.70108 45.9452 6.70108Z" fill="white"/>
<path d="M53.5071 3.28868C54.1715 3.28868 54.7452 3.40545 55.2284 3.63898C55.7116 3.86849 56.084 4.21476 56.3457 4.6778C56.6074 5.14084 56.7383 5.72065 56.7383 6.41722V7.46812H52.5166C52.5367 7.82647 52.6696 8.1204 52.9152 8.3499C53.1648 8.57941 53.5313 8.69416 54.0144 8.69416C54.4412 8.69416 54.8318 8.65189 55.1861 8.56733C55.5445 8.48278 55.9129 8.35192 56.2914 8.17475V9.87189C55.9612 10.045 55.6008 10.1719 55.2103 10.2524C54.8197 10.3329 54.3265 10.3732 53.7306 10.3732C53.042 10.3732 52.426 10.2504 51.8824 10.0048C51.3389 9.75916 50.91 9.37866 50.596 8.86327C50.286 8.34789 50.1309 7.68554 50.1309 6.87623C50.1309 6.05484 50.2719 5.38041 50.5537 4.85295C50.8356 4.32146 51.2301 3.92888 51.7375 3.67522C52.2448 3.41753 52.8347 3.28868 53.5071 3.28868ZM53.5916 4.89523C53.3138 4.89523 53.0803 4.98381 52.8911 5.16097C52.7058 5.33411 52.5971 5.60791 52.5649 5.98236H54.5942C54.5902 5.78104 54.5499 5.59784 54.4734 5.43276C54.3969 5.26767 54.2842 5.13681 54.1352 5.04018C53.9903 4.94354 53.8091 4.89523 53.5916 4.89523Z" fill="white"/>
<path d="M61.3654 10.2524H58.9797V3.37324H56.8236V1.42243H63.5155V3.37324H61.3654V10.2524Z" fill="white"/>
<path d="M66.7296 3.28868C67.3939 3.28868 67.9677 3.40545 68.4509 3.63898C68.934 3.86849 69.3065 4.21476 69.5682 4.6778C69.8299 5.14084 69.9608 5.72065 69.9608 6.41722V7.46812H65.7391C65.7592 7.82647 65.8921 8.1204 66.1377 8.3499C66.3873 8.57941 66.7537 8.69416 67.2369 8.69416C67.6637 8.69416 68.0543 8.65189 68.4086 8.56733C68.7669 8.48278 69.1354 8.35192 69.5138 8.17475V9.87189C69.1837 10.045 68.8233 10.1719 68.4327 10.2524C68.0422 10.3329 67.5489 10.3732 66.953 10.3732C66.2645 10.3732 65.6485 10.2504 65.1049 10.0048C64.5613 9.75916 64.1325 9.37866 63.8185 8.86327C63.5084 8.34789 63.3534 7.68554 63.3534 6.87623C63.3534 6.05484 63.4943 5.38041 63.7762 4.85295C64.058 4.32146 64.4526 3.92888 64.9599 3.67522C65.4673 3.41753 66.0572 3.28868 66.7296 3.28868ZM66.8141 4.89523C66.5363 4.89523 66.3028 4.98381 66.1135 5.16097C65.9283 5.33411 65.8196 5.60791 65.7874 5.98236H67.8167C67.8127 5.78104 67.7724 5.59784 67.6959 5.43276C67.6194 5.26767 67.5067 5.13681 67.3577 5.04018C67.2127 4.94354 67.0315 4.89523 66.8141 4.89523Z" fill="white"/>
<path d="M76.1335 8.1506C76.1335 8.58545 76.0369 8.96997 75.8436 9.30417C75.6504 9.63836 75.3403 9.90008 74.9135 10.0893C74.4908 10.2786 73.9331 10.3732 73.2405 10.3732C72.7533 10.3732 72.3165 10.347 71.9299 10.2947C71.5474 10.2423 71.1589 10.1417 70.7643 9.99269V8.10228C71.1951 8.29957 71.634 8.44251 72.0809 8.53109C72.5279 8.61565 72.8802 8.65793 73.1379 8.65793C73.4036 8.65793 73.5969 8.62974 73.7177 8.57337C73.8425 8.51297 73.9049 8.42439 73.9049 8.30763C73.9049 8.20697 73.8626 8.12241 73.7781 8.05396C73.6975 7.98149 73.5506 7.89894 73.3372 7.80634C73.1278 7.71373 72.8319 7.58891 72.4494 7.43188C72.0709 7.27485 71.7548 7.10372 71.5011 6.91851C71.2515 6.73329 71.0643 6.51184 70.9394 6.25415C70.8146 5.99646 70.7522 5.68038 70.7522 5.30592C70.7522 4.63754 71.0099 4.13423 71.5253 3.79601C72.0407 3.45779 72.7231 3.28868 73.5727 3.28868C74.0237 3.28868 74.4485 3.33901 74.8471 3.43967C75.2457 3.53631 75.6584 3.67925 76.0852 3.86849L75.439 5.39048C75.1008 5.23747 74.7585 5.11467 74.4122 5.02206C74.066 4.92945 73.7902 4.88315 73.5848 4.88315C73.3996 4.88315 73.2567 4.90731 73.156 4.95562C73.0553 5.00394 73.005 5.0744 73.005 5.16701C73.005 5.25157 73.0392 5.32606 73.1077 5.39048C73.1801 5.4549 73.315 5.52939 73.5123 5.61395C73.7096 5.6985 73.9975 5.81728 74.376 5.97028C74.7746 6.13134 75.1028 6.30448 75.3605 6.48969C75.6222 6.67088 75.8154 6.89234 75.9403 7.15405C76.0691 7.41577 76.1335 7.74795 76.1335 8.1506Z" fill="white"/>
<path d="M80.6785 8.50693C80.8919 8.50693 81.0872 8.48479 81.2643 8.4405C81.4415 8.39621 81.6267 8.33984 81.82 8.27139V9.99269C81.5623 10.1054 81.2885 10.196 80.9986 10.2645C80.7127 10.3369 80.3463 10.3732 79.8994 10.3732C79.4565 10.3732 79.0659 10.3047 78.7277 10.1678C78.3895 10.0269 78.1257 9.78533 77.9365 9.44308C77.7513 9.09681 77.6587 8.61565 77.6587 7.9996V5.17909H76.8312V4.21879L77.8821 3.47591L78.4921 2.03848H80.0383V3.40948H81.7173V5.17909H80.0383V7.84257C80.0383 8.06403 80.0947 8.23112 80.2074 8.34386C80.3201 8.45258 80.4772 8.50693 80.6785 8.50693Z" fill="white"/>
<rect x="86.9579" y="1.08337" width="16.853" height="9.69524" rx="2.37713" fill="url(#paint0_linear_30_54)" stroke="white" stroke-width="0.754256"/>
<path d="M91.7622 3.12646C92.4404 3.12646 92.9353 3.27266 93.2469 3.56506C93.5585 3.85506 93.7143 4.2553 93.7143 4.7658C93.7143 4.99588 93.6795 5.21637 93.61 5.42728C93.5405 5.63579 93.4267 5.82153 93.2685 5.98451C93.1127 6.14748 92.9042 6.2769 92.6429 6.37277C92.3817 6.46624 92.0594 6.51298 91.6759 6.51298H91.1977V8.38239H90.0833V3.12646H91.7622ZM91.7046 4.0396H91.1977V5.59984H91.5644C91.7729 5.59984 91.9539 5.57228 92.1073 5.51716C92.2607 5.46203 92.3793 5.37575 92.4632 5.25831C92.5471 5.14088 92.589 4.98988 92.589 4.80534C92.589 4.5465 92.5171 4.35476 92.3733 4.23014C92.2295 4.10311 92.0066 4.0396 91.7046 4.0396Z" fill="white"/>
<path d="M96.4954 4.28766C96.5505 4.28766 96.614 4.29125 96.6859 4.29844C96.7602 4.30324 96.8201 4.31043 96.8657 4.32001L96.783 5.34819C96.747 5.33621 96.6955 5.32782 96.6284 5.32302C96.5637 5.31583 96.5074 5.31224 96.4594 5.31224C96.318 5.31224 96.1802 5.33021 96.046 5.36616C95.9142 5.40211 95.7955 5.46083 95.6901 5.54232C95.5846 5.62141 95.5007 5.72686 95.4384 5.85868C95.3785 5.9881 95.3486 6.14748 95.3486 6.33682V8.38239H94.2521V4.36315H95.0825L95.2443 5.03902H95.2982C95.3773 4.90241 95.4756 4.77778 95.593 4.66513C95.7129 4.55009 95.8483 4.45902 95.9993 4.39191C96.1526 4.32241 96.318 4.28766 96.4954 4.28766Z" fill="white"/>
<path d="M100.88 6.36558C100.88 6.70112 100.834 6.9983 100.743 7.25715C100.655 7.51599 100.524 7.73528 100.351 7.91503C100.181 8.09239 99.9751 8.2266 99.733 8.31768C99.4934 8.40875 99.2226 8.45429 98.9206 8.45429C98.6378 8.45429 98.3777 8.40875 98.1405 8.31768C97.9056 8.2266 97.7007 8.09239 97.5257 7.91503C97.3531 7.73528 97.2189 7.51599 97.1231 7.25715C97.0296 6.9983 96.9829 6.70112 96.9829 6.36558C96.9829 5.9198 97.0619 5.54232 97.2201 5.23315C97.3783 4.92398 97.6036 4.6891 97.896 4.52852C98.1884 4.36795 98.5371 4.28766 98.9421 4.28766C99.3184 4.28766 99.6516 4.36795 99.9416 4.52852C100.234 4.6891 100.463 4.92398 100.628 5.23315C100.796 5.54232 100.88 5.9198 100.88 6.36558ZM98.1009 6.36558C98.1009 6.62922 98.1297 6.85091 98.1872 7.03066C98.2447 7.21041 98.3346 7.34582 98.4568 7.4369C98.579 7.52797 98.7384 7.57351 98.935 7.57351C99.1291 7.57351 99.2861 7.52797 99.4059 7.4369C99.5281 7.34582 99.6168 7.21041 99.6719 7.03066C99.7295 6.85091 99.7582 6.62922 99.7582 6.36558C99.7582 6.09955 99.7295 5.87905 99.6719 5.7041C99.6168 5.52674 99.5281 5.39373 99.4059 5.30505C99.2837 5.21637 99.1243 5.17203 98.9278 5.17203C98.6378 5.17203 98.4269 5.27149 98.295 5.47042C98.1656 5.66934 98.1009 5.96773 98.1009 6.36558Z" fill="white"/>
<defs>
<linearGradient id="paint0_linear_30_54" x1="93.0988" y1="5.5302" x2="99.7516" y2="9.17838" gradientUnits="userSpaceOnUse">
<stop stop-color="#68A719"/>
<stop offset="1" stop-color="#68A718"/>
</linearGradient>
</defs>
</svg>
