<svg xmlns="http://www.w3.org/2000/svg" width="150" height="31" viewBox="0 0 15000 3100"><path fill="none" stroke="#2f80ed" stroke-linecap="round" stroke-width="225" d="M1500 112a1 1 0 0 0 0 2776 1 1 0 0 0 0-2776zM615 2385l176-176m-641-746h325m125-863 176 176m724-626v325m890 135-176 176m308 677h325m-457 927-176-176"/><path fill="#2f80ed" d="M1352 1507c92 92 448 193 448 193s-98-355-190-447a1 1 0 0 0-258 254z"/><path fill="#111" d="m5245 177-293 1123h-331l-179-739-186 739h-331L3640 177h293l161 817 200-817h301l192 817 163-817Zm921 427c38 67 58 146 58 235a698 698 0 0 1-5 80h-619c4 56 22 98 52 128 32 29 71 43 117 43 69 0 116-28 143-86h291a394 394 0 0 1-82 158c-38 47-87 84-145 111s-125 40-197 40c-88 0-166-19-234-56a398 398 0 0 1-160-160c-38-69-57-151-57-243s18-174 56-244a398 398 0 0 1 160-160c68-37 146-56 235-56 86 0 163 19 230 55s120 88 157 155Zm-222 163c0-47-16-84-48-112s-72-41-120-41c-46 0-85 13-117 40-31 26-50 64-58 113Zm698-233c25-42 62-76 110-101s103-39 165-39a370 370 0 0 1 341 216c35 70 52 150 52 242s-17 173-52 243-81 123-141 162a370 370 0 0 1-200 56c-63 0-118-13-165-37a297 297 0 0 1-110-101v125h-274V116h274Zm390 318c0-68-19-122-58-160a184 184 0 0 0-139-59 187 187 0 0 0-139 59c-37 40-56 93-56 162s19 122 56 161a187 187 0 0 0 139 59 187 187 0 0 0 139-59c39-40 58-95 58-163Zm1278-314a367 367 0 0 1-45 180c-30 53-76 96-137 129s-139 50-231 50h-169v403h-274V177h443c90 0 165 15 227 46s108 74 139 128 47 117 47 187Zm-434 141c53 0 92-12 117-37s39-59 39-104-13-79-39-104-64-36-117-36h-148v281Zm522 173c0-92 17-172 51-242 35-69 83-122 143-160a370 370 0 0 1 200-56c63 0 118 13 164 39 48 25 85 59 111 101V407h273v893h-273v-126a294 294 0 0 1-112 100c-47 26-102 39-165 39a367 367 0 0 1-199-56c-59-39-107-93-142-162-34-70-51-151-51-243Zm669 2c0-69-20-122-58-162a182 182 0 0 0-138-59 187 187 0 0 0-139 59c-37 38-56 92-56 160s19 123 56 163a187 187 0 0 0 139 59 182 182 0 0 0 138-59c38-39 58-93 58-161Zm810-460c63 0 118 13 165 39 48 25 85 59 111 101V407h273v891c0 83-16 157-49 223a365 365 0 0 1-149 160c-66 39-149 59-248 59-132 0-240-31-322-94a351 351 0 0 1-141-253h271c8 34 29 61 61 80 32 20 71 30 118 30 57 0 101-16 134-49 34-32 52-84 52-156v-126a311 311 0 0 1-111 102c-47 26-102 39-165 39a370 370 0 0 1-200-56c-59-39-107-92-142-162-34-70-51-151-51-243s17-172 51-242c35-69 83-122 142-160a370 370 0 0 1 200-56Zm276 460c0-69-20-122-58-162a182 182 0 0 0-138-59 187 187 0 0 0-139 59c-37 38-56 92-56 160s19 123 56 163a187 187 0 0 0 139 59 182 182 0 0 0 138-59c38-39 58-93 58-161Zm1313-15a698 698 0 0 1-5 80h-619c4 56 22 98 53 128 32 29 70 43 116 43 69 0 116-28 143-86h291a394 394 0 0 1-82 158 397 397 0 0 1-145 111c-59 27-125 40-197 40-88 0-165-19-234-56a398 398 0 0 1-160-160c-38-69-57-151-57-243s18-174 56-244a398 398 0 0 1 160-160c68-37 146-56 235-56 86 0 163 19 230 55s120 88 157 155c39 67 58 146 58 235Zm-280-72c0-47-16-84-48-112s-72-41-120-41c-46 0-85 13-117 40-31 26-50 64-58 113Zm1232-590v219h-298v904h-273V396h-298V177Zm979 662c0 26-2 53-5 80h-619c4 56 22 98 53 128 32 29 71 43 117 43 68 0 115-28 142-86h291a396 396 0 0 1-81 158c-39 47-87 84-146 111s-124 40-197 40c-87 0-165-19-233-56a398 398 0 0 1-160-160c-39-69-58-151-58-243s19-174 56-244a398 398 0 0 1 160-160c68-37 147-56 235-56 87 0 163 19 231 55a386 386 0 0 1 156 155c39 67 58 146 58 235Zm-280-72c0-47-16-84-48-112s-72-41-120-41c-46 0-85 13-117 40-31 26-50 64-57 113Zm788 546c-78 0-148-13-208-40s-109-63-144-109a293 293 0 0 1-60-157h271c3 31 17 56 43 75s57 29 94 29c34 0 61-6 79-19 19-14 29-31 29-53 0-25-14-44-40-56-27-13-70-26-130-41a1320 1320 0 0 1-160-47 287 287 0 0 1-110-78c-31-36-47-85-47-146 0-51 14-97 42-139 29-43 70-76 125-101 55-24 121-37 196-37 112 0 200 28 264 84 65 55 103 129 112 220h-252a108 108 0 0 0-42-73c-22-18-52-27-90-27-32 0-56 6-73 19a57 57 0 0 0-26 49c0 26 13 45 40 58 28 13 71 26 128 38 66 17 120 35 162 52a263 263 0 0 1 109 80c32 36 48 85 49 147a235 235 0 0 1-45 141c-28 40-71 72-126 96-54 23-118 35-190 35Zm1026-245v232h-139c-99 0-177-24-232-72-55-49-83-128-83-238V634h-109V407h109V190h273v217h180v227h-180v359c0 26 7 46 20 57s34 18 64 18ZM3768 2354c19-33 46-59 82-80s77-31 123-31a256 256 0 0 1 133 35 247 247 0 0 1 93 99c23 42 34 91 34 147 0 55-11 105-34 148a250 250 0 0 1-226 137c-47 0-89-10-125-31a212 212 0 0 1-80-79v101h-91v-740h91Zm372 170c0-41-8-77-25-108a172 172 0 0 0-68-70 184 184 0 0 0-93-24 182 182 0 0 0-161 96 220 220 0 0 0-25 107c0 41 8 78 25 109s40 54 68 71a188 188 0 0 0 93 24 184 184 0 0 0 93-24 179 179 0 0 0 68-71c17-31 25-68 25-110Zm685-272-330 806h-94l108-264-221-542h101l172 444 170-444Zm324 199c0-68 15-129 46-183a334 334 0 0 1 125-128 349 349 0 0 1 177-46c76 0 142 18 199 55s98 89 124 156h-109a218 218 0 0 0-84-97c-36-23-79-34-130-34a254 254 0 0 0-131 34 237 237 0 0 0-91 97c-22 41-33 90-33 146 0 55 11 104 33 146 22 41 52 73 91 96a254 254 0 0 0 131 34 218 218 0 0 0 214-130h109c-26 67-67 118-124 155-57 36-123 54-199 54a355 355 0 0 1-177-45 336 336 0 0 1-125-127c-31-54-46-115-46-183Zm772 73c0-56 12-105 34-147a247 247 0 0 1 93-99c40-23 85-35 133-35s90 10 125 31a207 207 0 0 1 79 78v-100h92v548h-92v-102c-18 32-45 59-81 80-35 21-76 31-124 31s-92-12-132-36a253 253 0 0 1-93-101 315 315 0 0 1-34-148Zm464 1c0-41-8-77-25-108a172 172 0 0 0-68-70 178 178 0 0 0-93-25 184 184 0 0 0-93 24 174 174 0 0 0-67 70 224 224 0 0 0-25 108c0 42 9 79 25 110 17 31 39 54 67 71a184 184 0 0 0 93 24 184 184 0 0 0 93-24 179 179 0 0 0 68-71c17-31 25-68 25-109Zm357-198v323c0 27 6 46 17 57s31 16 59 16h67v77h-82c-51 0-89-12-114-35s-38-62-38-115v-323h-71v-75h71v-138h91v138h143v75Zm219 198c0-57 12-106 34-148a244 244 0 0 1 94-99c41-23 87-35 139-35 68 0 123 16 166 49 44 33 73 78 87 136h-98a140 140 0 0 0-55-79c-26-19-60-29-100-29-52 0-94 18-126 54-32 35-48 86-48 151 0 66 16 117 48 153s74 54 126 54c40 0 74-9 100-28a142 142 0 0 0 55-80h98c-14 56-44 101-88 135-44 33-99 50-165 50-52 0-98-12-139-35a245 245 0 0 1-94-99c-22-43-34-93-34-150Zm914-283c41 0 78 9 112 27a183 183 0 0 1 78 79c19 35 29 78 29 129v323h-90v-310c0-55-14-96-41-125s-65-44-112-44c-48 0-87 15-115 45s-42 74-42 131v303h-91v-740h91v270a180 180 0 0 1 74-65 245 245 0 0 1 107-23Zm458 111a215 215 0 0 1 80-78 241 241 0 0 1 125-32 254 254 0 0 1 132 35 244 244 0 0 1 94 99c23 42 34 91 34 147 0 55-11 105-34 148a250 250 0 0 1-226 137c-46 0-88-10-124-31a230 230 0 0 1-81-79v361h-91v-808h91Zm372 171c0-41-8-77-25-108a172 172 0 0 0-68-70 184 184 0 0 0-93-24c-33 0-64 8-93 25a180 180 0 0 0-68 71 221 221 0 0 0-25 107c0 41 9 78 25 109a189 189 0 0 0 68 71 188 188 0 0 0 93 24 184 184 0 0 0 93-24 179 179 0 0 0 68-71c17-31 25-68 25-110Zm452 285c-51 0-98-12-140-35a254 254 0 0 1-98-99c-23-43-35-93-35-150 0-56 12-105 36-148a251 251 0 0 1 100-99c42-23 89-35 141-35s99 12 141 35 75 55 99 98c25 43 37 92 37 149s-13 107-38 150a257 257 0 0 1-101 99c-43 23-90 35-142 35Zm0-80c33 0 63-8 92-23a171 171 0 0 0 69-69c18-31 27-68 27-112s-9-81-26-112a167 167 0 0 0-68-68 187 187 0 0 0-91-23 189 189 0 0 0-92 23 163 163 0 0 0-66 68c-17 31-25 68-25 112 0 45 8 82 24 113a169 169 0 0 0 66 69c27 15 57 22 90 22Zm448-566a60 60 0 0 1-62-62 60 60 0 0 1 18-44c12-12 26-18 44-18 16 0 30 6 42 18a60 60 0 0 1 18 44 60 60 0 0 1-18 44 56 56 0 0 1-42 18Zm44 89v548h-91v-548Zm422-10c67 0 121 20 162 61 41 40 62 98 62 174v323h-90v-310c0-55-14-96-41-125s-65-44-112-44c-48 0-86 15-115 45-28 30-42 74-42 131v303h-91v-548h91v78a181 181 0 0 1 73-65c31-15 66-23 103-23Zm484 85v323c0 27 5 46 17 57 11 11 31 16 59 16h67v77h-82c-51 0-89-12-114-35s-38-62-38-115v-323h-71v-75h71v-138h91v138h143v75Z"/></svg>