<svg width="150" height="33" viewBox="0 0 150 33" fill="none" xmlns="http://www.w3.org/2000/svg">
<path d="M13.5375 13.5208C12.826 14.2204 12.8201 15.3604 13.5243 16.0672C14.4409 16.9873 18 18 18 18C18 18 17.0174 14.4541 16.1007 13.534C15.3966 12.8272 14.249 12.8213 13.5375 13.5208Z" fill="#00BBFF"/>
<path fill-rule="evenodd" clip-rule="evenodd" d="M30 16C30 24.2843 23.2843 31 15 31C6.71572 31 0 24.2843 0 16C0 7.71572 6.71572 1 15 1C23.2843 1 30 7.71572 30 16ZM27.7283 16.75C27.5646 19.5729 26.4824 22.1494 24.7762 24.1852L22.9848 22.3939C22.5455 21.9545 21.8332 21.9545 21.3939 22.3939C20.9545 22.8332 20.9545 23.5455 21.3939 23.9848L23.1852 25.7762C20.9705 27.6324 18.1158 28.75 15 28.75C11.8842 28.75 9.02951 27.6324 6.81484 25.7761L8.60614 23.9848C9.04549 23.5455 9.04549 22.8332 8.60614 22.3938C8.16682 21.9545 7.45451 21.9545 7.01516 22.3938L5.22382 24.1852C3.51761 22.1494 2.43544 19.5729 2.27169 16.75H4.875C5.49634 16.75 6 16.2463 6 15.625C6 15.0037 5.49634 14.5 4.875 14.5H2.3373C2.63365 11.9713 3.66995 9.6688 5.22382 7.81484L7.01516 9.60618C7.45451 10.0455 8.16682 10.0455 8.60617 9.60618C9.04549 9.16683 9.04549 8.45451 8.60617 8.01516L6.81484 6.22382C8.76004 4.59346 11.199 3.53289 13.875 3.29895V5.875C13.875 6.49634 14.3787 7 15 7C15.6213 7 16.125 6.49634 16.125 5.875V3.29895C18.801 3.53289 21.24 4.59347 23.1852 6.22386L21.3939 8.01516C20.9545 8.45451 20.9545 9.16683 21.3939 9.60618C21.8332 10.0455 22.5455 10.0455 22.9848 9.60618L24.7762 7.81484C26.3301 9.6688 27.3663 11.9713 27.6627 14.5H25.125C24.5037 14.5 24 15.0037 24 15.625C24 16.2463 24.5037 16.75 25.125 16.75H27.7283Z" fill="#00BBFF"/>
<path d="M52.448 2.76803L49.52 14H46.208L44.416 6.60803L42.56 14H39.248L36.4 2.76803H39.328L40.944 10.944L42.944 2.76803H45.952L47.872 10.944L49.504 2.76803H52.448ZM62.2361 9.39203C62.2361 9.64803 62.2201 9.9147 62.1881 10.192H55.9961C56.0388 10.7467 56.2148 11.1733 56.5241 11.472C56.8441 11.76 57.2335 11.904 57.6921 11.904C58.3748 11.904 58.8495 11.616 59.1161 11.04H62.0281C61.8788 11.6267 61.6068 12.1547 61.2121 12.624C60.8281 13.0933 60.3428 13.4613 59.7561 13.728C59.1695 13.9947 58.5135 14.128 57.7881 14.128C56.9135 14.128 56.1348 13.9413 55.4521 13.568C54.7695 13.1947 54.2361 12.6613 53.8521 11.968C53.4681 11.2747 53.2761 10.464 53.2761 9.53603C53.2761 8.60803 53.4628 7.79736 53.8361 7.10403C54.2201 6.4107 54.7535 5.87736 55.4361 5.50403C56.1188 5.1307 56.9028 4.94403 57.7881 4.94403C58.6521 4.94403 59.4201 5.12536 60.0921 5.48803C60.7641 5.8507 61.2868 6.36803 61.6601 7.04003C62.0441 7.71203 62.2361 8.49603 62.2361 9.39203ZM59.4361 8.67203C59.4361 8.2027 59.2761 7.82936 58.9561 7.55203C58.6361 7.2747 58.2361 7.13603 57.7561 7.13603C57.2975 7.13603 56.9081 7.26936 56.5881 7.53603C56.2788 7.8027 56.0868 8.18136 56.0121 8.67203H59.4361ZM66.4155 6.33603C66.6715 5.92003 67.0395 5.58403 67.5195 5.32803C67.9995 5.07203 68.5488 4.94403 69.1675 4.94403C69.9035 4.94403 70.5702 5.1307 71.1675 5.50403C71.7648 5.87736 72.2342 6.4107 72.5755 7.10403C72.9275 7.79736 73.1035 8.6027 73.1035 9.52003C73.1035 10.4373 72.9275 11.248 72.5755 11.952C72.2342 12.6453 71.7648 13.184 71.1675 13.568C70.5702 13.9413 69.9035 14.128 69.1675 14.128C68.5382 14.128 67.9888 14.0053 67.5195 13.76C67.0502 13.504 66.6822 13.168 66.4155 12.752V14H63.6795V2.16003H66.4155V6.33603ZM70.3195 9.52003C70.3195 8.83736 70.1275 8.30403 69.7435 7.92003C69.3702 7.52536 68.9062 7.32803 68.3515 7.32803C67.8075 7.32803 67.3435 7.52536 66.9595 7.92003C66.5862 8.3147 66.3995 8.85336 66.3995 9.53603C66.3995 10.2187 66.5862 10.7573 66.9595 11.152C67.3435 11.5467 67.8075 11.744 68.3515 11.744C68.8955 11.744 69.3595 11.5467 69.7435 11.152C70.1275 10.7467 70.3195 10.2027 70.3195 9.52003ZM83.0989 6.38403C83.0989 7.0347 82.9495 7.63203 82.6509 8.17603C82.3522 8.70936 81.8935 9.14136 81.2749 9.47203C80.6562 9.8027 79.8882 9.96803 78.9709 9.96803H77.2749V14H74.5389V2.76803H78.9709C79.8669 2.76803 80.6242 2.9227 81.2429 3.23203C81.8615 3.54136 82.3255 3.96803 82.6349 4.51203C82.9442 5.05603 83.0989 5.68003 83.0989 6.38403ZM78.7629 7.79203C79.2855 7.79203 79.6749 7.66936 79.9309 7.42403C80.1869 7.1787 80.3149 6.83203 80.3149 6.38403C80.3149 5.93603 80.1869 5.58936 79.9309 5.34403C79.6749 5.0987 79.2855 4.97603 78.7629 4.97603H77.2749V7.79203H78.7629ZM83.9793 9.52003C83.9793 8.6027 84.1499 7.79736 84.4913 7.10403C84.8433 6.4107 85.3179 5.87736 85.9153 5.50403C86.5126 5.1307 87.1793 4.94403 87.9153 4.94403C88.5446 4.94403 89.0939 5.07203 89.5633 5.32803C90.0433 5.58403 90.4113 5.92003 90.6673 6.33603V5.07203H93.4033V14H90.6673V12.736C90.4006 13.152 90.0273 13.488 89.5473 13.744C89.0779 14 88.5286 14.128 87.8993 14.128C87.1739 14.128 86.5126 13.9413 85.9153 13.568C85.3179 13.184 84.8433 12.6453 84.4913 11.952C84.1499 11.248 83.9793 10.4373 83.9793 9.52003ZM90.6673 9.53603C90.6673 8.85336 90.4753 8.3147 90.0913 7.92003C89.7179 7.52536 89.2593 7.32803 88.7153 7.32803C88.1713 7.32803 87.7073 7.52536 87.3233 7.92003C86.9499 8.30403 86.7633 8.83736 86.7633 9.52003C86.7633 10.2027 86.9499 10.7467 87.3233 11.152C87.7073 11.5467 88.1713 11.744 88.7153 11.744C89.2593 11.744 89.7179 11.5467 90.0913 11.152C90.4753 10.7573 90.6673 10.2187 90.6673 9.53603ZM98.7746 4.94403C99.404 4.94403 99.9533 5.07203 100.423 5.32803C100.903 5.58403 101.271 5.92003 101.527 6.33603V5.07203H104.263V13.984C104.263 14.8053 104.097 15.5467 103.767 16.208C103.447 16.88 102.951 17.4133 102.279 17.808C101.617 18.2027 100.791 18.4 99.7986 18.4C98.476 18.4 97.404 18.0853 96.5826 17.456C95.7613 16.8373 95.292 15.9947 95.1746 14.928H97.8786C97.964 15.2693 98.1666 15.536 98.4866 15.728C98.8066 15.9307 99.2013 16.032 99.6706 16.032C100.236 16.032 100.684 15.8667 101.015 15.536C101.356 15.216 101.527 14.6987 101.527 13.984V12.72C101.26 13.136 100.892 13.4773 100.423 13.744C99.9533 14 99.404 14.128 98.7746 14.128C98.0386 14.128 97.372 13.9413 96.7746 13.568C96.1773 13.184 95.7026 12.6453 95.3506 11.952C95.0093 11.248 94.8386 10.4373 94.8386 9.52003C94.8386 8.6027 95.0093 7.79736 95.3506 7.10403C95.7026 6.4107 96.1773 5.87736 96.7746 5.50403C97.372 5.1307 98.0386 4.94403 98.7746 4.94403ZM101.527 9.53603C101.527 8.85336 101.335 8.3147 100.951 7.92003C100.577 7.52536 100.119 7.32803 99.5746 7.32803C99.0306 7.32803 98.5666 7.52536 98.1826 7.92003C97.8093 8.30403 97.6226 8.83736 97.6226 9.52003C97.6226 10.2027 97.8093 10.7467 98.1826 11.152C98.5666 11.5467 99.0306 11.744 99.5746 11.744C100.119 11.744 100.577 11.5467 100.951 11.152C101.335 10.7573 101.527 10.2187 101.527 9.53603ZM114.658 9.39203C114.658 9.64803 114.642 9.9147 114.61 10.192H108.418C108.461 10.7467 108.637 11.1733 108.946 11.472C109.266 11.76 109.655 11.904 110.114 11.904C110.797 11.904 111.271 11.616 111.538 11.04H114.45C114.301 11.6267 114.029 12.1547 113.634 12.624C113.25 13.0933 112.765 13.4613 112.178 13.728C111.591 13.9947 110.935 14.128 110.21 14.128C109.335 14.128 108.557 13.9413 107.874 13.568C107.191 13.1947 106.658 12.6613 106.274 11.968C105.89 11.2747 105.698 10.464 105.698 9.53603C105.698 8.60803 105.885 7.79736 106.258 7.10403C106.642 6.4107 107.175 5.87736 107.858 5.50403C108.541 5.1307 109.325 4.94403 110.21 4.94403C111.074 4.94403 111.842 5.12536 112.514 5.48803C113.186 5.8507 113.709 6.36803 114.082 7.04003C114.466 7.71203 114.658 8.49603 114.658 9.39203ZM111.858 8.67203C111.858 8.2027 111.698 7.82936 111.378 7.55203C111.058 7.2747 110.658 7.13603 110.178 7.13603C109.719 7.13603 109.33 7.26936 109.01 7.53603C108.701 7.8027 108.509 8.18136 108.434 8.67203H111.858ZM124.181 2.76803V4.96003H121.205V14H118.469V4.96003H115.493V2.76803H124.181ZM133.97 9.39203C133.97 9.64803 133.955 9.9147 133.923 10.192H127.731C127.773 10.7467 127.949 11.1733 128.259 11.472C128.579 11.76 128.968 11.904 129.427 11.904C130.109 11.904 130.584 11.616 130.851 11.04H133.763C133.613 11.6267 133.341 12.1547 132.947 12.624C132.563 13.0933 132.077 13.4613 131.491 13.728C130.904 13.9947 130.248 14.128 129.523 14.128C128.648 14.128 127.869 13.9413 127.187 13.568C126.504 13.1947 125.971 12.6613 125.587 11.968C125.203 11.2747 125.011 10.464 125.011 9.53603C125.011 8.60803 125.197 7.79736 125.571 7.10403C125.955 6.4107 126.488 5.87736 127.171 5.50403C127.853 5.1307 128.637 4.94403 129.523 4.94403C130.387 4.94403 131.155 5.12536 131.827 5.48803C132.499 5.8507 133.021 6.36803 133.395 7.04003C133.779 7.71203 133.97 8.49603 133.97 9.39203ZM131.171 8.67203C131.171 8.2027 131.011 7.82936 130.691 7.55203C130.371 7.2747 129.971 7.13603 129.491 7.13603C129.032 7.13603 128.643 7.26936 128.323 7.53603C128.013 7.8027 127.821 8.18136 127.747 8.67203H131.171ZM139.046 14.128C138.267 14.128 137.574 13.9947 136.966 13.728C136.358 13.4613 135.878 13.0987 135.526 12.64C135.174 12.1707 134.977 11.648 134.934 11.072H137.638C137.67 11.3813 137.814 11.632 138.07 11.824C138.326 12.016 138.641 12.112 139.014 12.112C139.355 12.112 139.617 12.048 139.798 11.92C139.99 11.7813 140.086 11.6053 140.086 11.392C140.086 11.136 139.953 10.9493 139.686 10.832C139.419 10.704 138.987 10.5653 138.39 10.416C137.75 10.2667 137.217 10.112 136.79 9.95203C136.363 9.78136 135.995 9.52003 135.686 9.16803C135.377 8.80536 135.222 8.32003 135.222 7.71203C135.222 7.20003 135.361 6.73603 135.638 6.32003C135.926 5.89336 136.342 5.55736 136.886 5.31203C137.441 5.0667 138.097 4.94403 138.854 4.94403C139.974 4.94403 140.854 5.22136 141.494 5.77603C142.145 6.3307 142.518 7.0667 142.614 7.98403H140.086C140.043 7.6747 139.905 7.42936 139.67 7.24803C139.446 7.0667 139.147 6.97603 138.774 6.97603C138.454 6.97603 138.209 7.04003 138.038 7.16803C137.867 7.28536 137.782 7.4507 137.782 7.66403C137.782 7.92003 137.915 8.11203 138.182 8.24003C138.459 8.36803 138.886 8.49603 139.462 8.62403C140.123 8.7947 140.662 8.96536 141.078 9.13603C141.494 9.29603 141.857 9.5627 142.166 9.93603C142.486 10.2987 142.651 10.7893 142.662 11.408C142.662 11.9307 142.513 12.4 142.214 12.816C141.926 13.2213 141.505 13.5413 140.95 13.776C140.406 14.0107 139.771 14.128 139.046 14.128ZM149.312 11.68V14H147.92C146.928 14 146.154 13.76 145.6 13.28C145.045 12.7893 144.768 11.9947 144.768 10.896V7.34403H143.68V5.07203H144.768V2.89603H147.504V5.07203H149.296V7.34403H147.504V10.928C147.504 11.1947 147.568 11.3867 147.696 11.504C147.824 11.6213 148.037 11.68 148.336 11.68H149.312Z" fill="#111111"/>
<g clip-path="url(#clip0_125_49)">
<path d="M108 28.8323C107.999 28.9549 107.962 29.0744 107.894 29.1756C107.827 29.2768 107.732 29.3553 107.621 29.4011C107.511 29.447 107.389 29.4583 107.272 29.4335C107.155 29.4087 107.048 29.349 106.964 29.2618C106.88 29.1746 106.823 29.0639 106.8 28.9435C106.777 28.8232 106.79 28.6986 106.836 28.5854C106.882 28.4722 106.959 28.3754 107.058 28.3073C107.158 28.2392 107.274 28.2028 107.394 28.2026C107.474 28.2025 107.553 28.2189 107.627 28.2506C107.701 28.2824 107.768 28.3289 107.825 28.3874C107.881 28.446 107.926 28.5155 107.956 28.5918C107.986 28.6682 108.001 28.75 108 28.8323V28.8323ZM107.896 28.8323C107.899 28.7628 107.889 28.6934 107.865 28.6283C107.841 28.5631 107.804 28.5036 107.758 28.4534C107.711 28.4031 107.654 28.3631 107.592 28.3358C107.53 28.3084 107.463 28.2943 107.395 28.2943C107.327 28.2943 107.26 28.3084 107.198 28.3358C107.136 28.3631 107.079 28.4031 107.032 28.4534C106.986 28.5036 106.949 28.5631 106.925 28.6283C106.901 28.6934 106.891 28.7628 106.894 28.8323C106.891 28.9019 106.901 28.9713 106.925 29.0364C106.949 29.1015 106.986 29.161 107.032 29.2113C107.079 29.2616 107.136 29.3016 107.198 29.3289C107.26 29.3562 107.327 29.3703 107.395 29.3703C107.463 29.3703 107.53 29.3562 107.592 29.3289C107.654 29.3016 107.711 29.2616 107.758 29.2113C107.804 29.161 107.841 29.1015 107.865 29.0364C107.889 28.9713 107.899 28.9019 107.896 28.8323ZM107.488 28.923L107.641 29.1487H107.52L107.37 28.9319H107.307V29.1487H107.196V28.5317H107.424C107.45 28.5302 107.476 28.5342 107.5 28.5435C107.524 28.5529 107.545 28.5673 107.563 28.586C107.582 28.6046 107.596 28.627 107.605 28.6516C107.614 28.6762 107.618 28.7026 107.616 28.7289C107.623 28.7719 107.613 28.8159 107.589 28.8519C107.565 28.8879 107.529 28.9133 107.488 28.923V28.923ZM107.304 28.6382V28.8353H107.424C107.45 28.8353 107.474 28.8249 107.492 28.8064C107.51 28.7879 107.52 28.7629 107.52 28.7367C107.52 28.7106 107.51 28.6855 107.492 28.667C107.474 28.6486 107.45 28.6382 107.424 28.6382H107.304ZM73.8144 27.6684C73.6666 28.0107 73.4573 28.3213 73.1974 28.584C72.7904 29.0018 72.2718 29.2862 71.7073 29.4011C71.1428 29.516 70.5578 29.4563 70.0263 29.2295C69.4949 29.0027 69.0409 28.6191 68.7219 28.1271C68.4029 27.6352 68.2333 27.057 68.2344 26.466C68.2283 26.074 68.3008 25.6849 68.4474 25.3229C68.594 24.9609 68.8116 24.6337 69.0865 24.3618C69.6317 23.8021 70.3711 23.4876 71.142 23.4876C71.9129 23.4876 72.6522 23.8021 73.1974 24.3618C73.4537 24.621 73.6609 24.9268 73.8087 25.2636H72.3338C72.3242 25.2547 72.3175 25.2448 72.3079 25.236C72.1595 25.0749 71.9798 24.9477 71.7804 24.8628C71.581 24.7779 71.3664 24.7372 71.1506 24.7432C70.933 24.7386 70.7168 24.78 70.5154 24.8648C70.3141 24.9495 70.1318 25.0759 69.9799 25.236C69.8248 25.3976 69.7034 25.5901 69.6233 25.8016C69.5431 26.0131 69.5057 26.2392 69.5135 26.466C69.507 26.6947 69.5449 26.9225 69.6249 27.136C69.705 27.3496 69.8257 27.5446 69.9799 27.7098C70.1346 27.8653 70.3178 27.9877 70.519 28.0697C70.7201 28.1518 70.9352 28.1919 71.1516 28.1878C71.366 28.1933 71.5793 28.1538 71.7783 28.0716C71.9773 27.9894 72.1578 27.8662 72.3088 27.7098C72.3223 27.696 72.3328 27.6822 72.3453 27.6684H73.8144ZM55.1023 27.6437C55.0898 27.6575 55.0783 27.6723 55.0659 27.6851C54.9147 27.8417 54.734 27.9648 54.5348 28.047C54.3356 28.1292 54.1222 28.1687 53.9076 28.1631C53.6921 28.166 53.4782 28.1249 53.2783 28.0424C53.0783 27.9598 52.8963 27.8374 52.7427 27.6822C52.5886 27.517 52.4681 27.3219 52.3882 27.1084C52.3082 26.8948 52.2706 26.667 52.2773 26.4384C52.2693 26.2118 52.3064 25.9859 52.3864 25.7745C52.4665 25.5632 52.5877 25.3709 52.7427 25.2094C52.8945 25.0491 53.0767 24.9227 53.2781 24.8379C53.4795 24.7531 53.6958 24.7118 53.9134 24.7166C54.1293 24.7104 54.3441 24.7511 54.5437 24.836C54.7433 24.9209 54.9232 25.0482 55.0716 25.2094L55.0966 25.237H56.5734C56.4263 24.8997 56.2193 24.5936 55.9631 24.3342C55.6981 24.0518 55.3794 23.8285 55.0268 23.6781C54.6741 23.5277 54.2951 23.4535 53.9134 23.46C53.5296 23.4524 53.1485 23.5261 52.7937 23.6765C52.4389 23.8269 52.1181 24.0508 51.8512 24.3342C51.5761 24.6066 51.3585 24.9342 51.2121 25.2968C51.0656 25.6593 50.9935 26.0489 51 26.4413C50.9925 26.8355 51.0642 27.227 51.2107 27.5915C51.3571 27.9559 51.5752 28.2854 51.8512 28.5593C52.1205 28.8386 52.442 29.0588 52.7964 29.2069C53.1509 29.3549 53.5308 29.4277 53.9134 29.4207C54.2939 29.4265 54.6717 29.3531 55.0239 29.2051C55.3761 29.057 55.6956 28.8374 55.9631 28.5593C56.2229 28.2968 56.4319 27.9862 56.5791 27.6437H55.1023ZM105.927 28.1631C105.302 28.1631 104.996 27.8083 104.996 27.0839V24.8565H106.087V23.5989H105.001V21.0029H103.738V27.0839C103.738 28.7594 104.642 29.4207 105.933 29.4207H106.199V28.1631H105.927ZM67.247 28.1631V29.4207H66.9869C65.6963 29.4207 64.7914 28.7643 64.7914 27.0839V21.0029H66.0552V23.5989H67.1462V24.8565H66.0552V27.0839C66.0552 27.8083 66.3613 28.1631 66.9869 28.1631H67.247ZM85.6357 26.4009C85.6357 27.3983 84.917 28.1227 83.9996 28.1227C83.0822 28.1227 82.3625 27.3983 82.3625 26.4009C82.3625 25.4035 83.0554 24.6791 83.9996 24.6791C84.917 24.6791 85.6357 25.4173 85.6357 26.4009ZM82.5496 28.9841C82.7752 29.1615 83.3739 29.3783 83.9996 29.3783C84.3828 29.3852 84.7635 29.313 85.119 29.166C85.4746 29.019 85.7978 28.8002 86.0695 28.5226C86.3411 28.2449 86.5558 27.914 86.7007 27.5496C86.8456 27.1851 86.9177 26.7945 86.9129 26.4009C86.9191 26.009 86.8468 25.6199 86.7003 25.2579C86.5539 24.8959 86.3365 24.5688 86.0618 24.2967C85.7958 24.0122 85.4752 23.7875 85.1201 23.637C84.7651 23.4865 84.3836 23.4135 83.9996 23.4225C83.2409 23.4134 82.5077 23.7033 81.9509 24.2327C81.3751 24.7649 81.0872 25.5031 81.0872 26.4463V31.999H82.3644V28.8451L82.5496 28.9841ZM89.192 26.4413C89.1857 26.6695 89.2236 26.8967 89.3035 27.1097C89.3834 27.3227 89.5037 27.5173 89.6574 27.6822C89.8117 27.8379 89.9947 27.9605 90.1957 28.0425C90.3968 28.1246 90.6118 28.1646 90.8281 28.1602C91.0425 28.1657 91.2558 28.1262 91.4548 28.044C91.6538 27.9618 91.8344 27.8386 91.9854 27.6822C92.1442 27.5198 92.2688 27.3256 92.3514 27.1116C92.4339 26.8976 92.4727 26.6684 92.4652 26.4384C92.4738 26.2104 92.4356 25.9831 92.3529 25.7713C92.2702 25.5595 92.145 25.368 91.9854 25.2094C91.837 25.0483 91.6573 24.9211 91.4579 24.8362C91.2585 24.7513 91.0439 24.7105 90.8281 24.7166C90.6104 24.7116 90.3942 24.7529 90.1927 24.8376C89.9913 24.9224 89.809 25.049 89.6574 25.2094C89.502 25.3712 89.3806 25.564 89.3005 25.7759C89.2205 25.9878 89.1836 26.2142 89.192 26.4413V26.4413ZM88.7659 24.3371C89.3113 23.7774 90.0508 23.4629 90.8218 23.4629C91.5929 23.4629 92.3324 23.7774 92.8778 24.3371C93.1526 24.6092 93.3699 24.9364 93.5163 25.2983C93.6628 25.6603 93.7351 26.0494 93.7289 26.4413C93.7363 26.8356 93.6645 27.2271 93.5179 27.5916C93.3713 27.956 93.153 28.2855 92.8768 28.5593C92.3275 29.1115 91.5895 29.4207 90.8209 29.4207C90.0523 29.4207 89.3142 29.1115 88.7649 28.5593C88.4889 28.2854 88.2709 27.9559 88.1244 27.5915C87.978 27.227 87.9063 26.8355 87.9138 26.4413C87.9076 26.0494 87.98 25.6603 88.1264 25.2983C88.2728 24.9364 88.4902 24.6092 88.7649 24.3371H88.7659ZM98.8407 26.2777C98.8407 25.2922 99.2792 24.7885 99.9711 24.7885C100.663 24.7885 101.116 25.3079 101.116 26.2777V29.4207H102.393V26.2777C102.393 25.3621 102.153 24.6653 101.674 24.2139C101.21 23.7747 100.603 23.5308 99.9716 23.5308C99.3406 23.5308 98.7327 23.7747 98.2688 24.2139C97.8024 24.6653 97.5635 25.3483 97.5635 26.2777V29.4207H98.8407V26.2777ZM94.9639 23.5989H96.2412V29.4207H94.9649L94.9639 23.5989ZM74.9957 21.0088V29.4207H76.2729V26.2777C76.2729 25.2803 76.7249 24.7885 77.4033 24.7885C78.0962 24.7885 78.5481 25.2941 78.5481 26.2777V29.4207H79.8254V26.2777C79.8254 25.3907 79.5989 24.7067 79.1469 24.2415C78.9427 24.0129 78.6936 23.8314 78.416 23.7089C78.1385 23.5864 77.8388 23.5258 77.5367 23.5309C77.0862 23.5275 76.6454 23.665 76.2729 23.9252V21.0088H74.9957ZM60.4041 28.1631C61.3224 28.1631 62.0412 27.4387 62.0412 26.4413C62.0412 25.4439 61.3474 24.7195 60.4041 24.7195C59.4867 24.7195 58.7728 25.4577 58.7728 26.4413C58.7728 27.4249 59.4915 28.1631 60.4041 28.1631ZM62.0354 29.3576V28.8875C61.9744 28.9416 61.9103 28.992 61.8435 29.0383C61.3991 29.2788 60.9063 29.4097 60.4041 29.4207C60.0206 29.4279 59.6395 29.3558 59.2836 29.2088C58.9277 29.0618 58.6042 28.8429 58.3323 28.565C58.0604 28.2871 57.8456 27.9559 57.7007 27.5911C57.5558 27.2263 57.4838 26.8353 57.4888 26.4413C57.486 26.0481 57.5596 25.6582 57.7053 25.2944C57.851 24.9307 58.0658 24.6005 58.3373 24.3232C58.6088 24.0458 58.9314 23.8269 59.2863 23.6792C59.6412 23.5314 60.0212 23.4579 60.4041 23.4629C61.1622 23.4527 61.8954 23.7412 62.4528 24.2691C63.0286 24.8013 63.3165 25.5395 63.3165 26.4827V29.3576H62.0354Z" fill="black"/>
<path d="M95.0455 21.2356C95.1949 21.0891 95.3941 21.0085 95.6006 21.0109C95.8072 21.0134 96.0046 21.0987 96.1506 21.2487C96.2967 21.3987 96.3798 21.6015 96.3821 21.8136C96.3845 22.0257 96.306 22.2304 96.1634 22.3838C96.014 22.5303 95.8147 22.6109 95.6082 22.6085C95.4017 22.606 95.2043 22.5207 95.0583 22.3707C94.9122 22.2207 94.8291 22.0179 94.8267 21.8058C94.8243 21.5937 94.9028 21.389 95.0455 21.2356" fill="#00BBFF"/>
</g>
<path d="M36.6047 21.678H37.7843V24.4097H37.805C37.8878 24.2787 37.9878 24.1614 38.1051 24.0579C38.2223 23.9545 38.35 23.8682 38.4879 23.7992C38.6328 23.7234 38.7811 23.6682 38.9329 23.6337C39.0915 23.5923 39.2467 23.5716 39.3985 23.5716C39.8193 23.5716 40.1849 23.6475 40.4953 23.7992C40.8126 23.9441 41.0748 24.1476 41.2817 24.4097C41.4886 24.665 41.6439 24.965 41.7473 25.31C41.8508 25.6549 41.9025 26.0239 41.9025 26.4171C41.9025 26.7758 41.8543 27.1242 41.7577 27.4622C41.668 27.8002 41.5266 28.1003 41.3334 28.3624C41.1472 28.6177 40.9092 28.8246 40.6195 28.9833C40.3297 29.135 39.9883 29.2109 39.5951 29.2109C39.4157 29.2109 39.2329 29.1971 39.0467 29.1695C38.8673 29.1488 38.6949 29.104 38.5293 29.035C38.3637 28.966 38.212 28.8763 38.074 28.766C37.943 28.6556 37.8326 28.5107 37.7429 28.3314H37.7222V29.066H36.6047V21.678ZM40.7229 26.3964C40.7229 26.155 40.6919 25.9204 40.6298 25.6928C40.5677 25.4652 40.4746 25.2651 40.3504 25.0927C40.2263 24.9133 40.0711 24.7719 39.8848 24.6684C39.6986 24.558 39.4847 24.5029 39.2433 24.5029C38.7466 24.5029 38.3706 24.6753 38.1154 25.0202C37.8671 25.3651 37.7429 25.8239 37.7429 26.3964C37.7429 26.6655 37.774 26.9172 37.836 27.1518C37.905 27.3794 38.005 27.576 38.1361 27.7416C38.2672 27.9071 38.4224 28.0382 38.6017 28.1348C38.788 28.2314 39.0018 28.2796 39.2433 28.2796C39.5123 28.2796 39.7399 28.2245 39.9262 28.1141C40.1124 28.0037 40.2642 27.8623 40.3815 27.6898C40.5056 27.5105 40.5919 27.3104 40.6402 27.0897C40.6953 26.8621 40.7229 26.631 40.7229 26.3964ZM42.3095 23.7165H43.6029L44.9998 27.7105H45.0205L46.376 23.7165H47.6073L45.5275 29.3558C45.4309 29.5972 45.3344 29.8283 45.2378 30.049C45.1481 30.2698 45.0343 30.4629 44.8963 30.6285C44.7652 30.8009 44.5997 30.9355 44.3996 31.032C44.1996 31.1355 43.9444 31.1872 43.6339 31.1872C43.358 31.1872 43.0855 31.1665 42.8165 31.1252V30.1318C42.9131 30.1456 43.0062 30.1594 43.0959 30.1732C43.1856 30.1939 43.2787 30.2042 43.3753 30.2042C43.5132 30.2042 43.627 30.187 43.7167 30.1525C43.8064 30.118 43.8788 30.0663 43.934 29.9973C43.9961 29.9352 44.0478 29.8593 44.0892 29.7697C44.1306 29.68 44.1686 29.5765 44.203 29.4592L44.3376 29.0453L42.3095 23.7165Z" fill="black"/>
<defs>
<clipPath id="clip0_125_49">
<rect width="57" height="11" fill="white" transform="translate(51 21)"/>
</clipPath>
</defs>
</svg>
