<svg width="145" height="18" viewBox="0 0 145 18" fill="none" xmlns="http://www.w3.org/2000/svg">
<path d="M17.9639 0.981734L14.9231 13.3308H10.9785L9.79593 7.95026C9.7734 7.8489 9.7368 7.67715 9.68612 7.43501C9.64107 7.19287 9.58757 6.91695 9.52563 6.60723C9.46932 6.29752 9.41582 5.99344 9.36514 5.69499C9.3201 5.39091 9.28631 5.13469 9.26378 4.92634C9.24126 5.13469 9.20466 5.39091 9.15398 5.69499C9.1033 5.99344 9.04699 6.29752 8.98504 6.60723C8.92873 6.91695 8.87242 7.19287 8.81611 7.43501C8.76543 7.67715 8.72883 7.8489 8.7063 7.95026L7.51532 13.3308H3.57071L0.513008 0.981734H3.7312L5.07422 7.17316C5.10801 7.3252 5.15306 7.542 5.20937 7.82356C5.27131 8.09948 5.33326 8.40356 5.3952 8.7358C5.46277 9.06241 5.52471 9.37775 5.58103 9.68183C5.63734 9.98591 5.67675 10.2393 5.69928 10.442C5.74433 10.0929 5.80346 9.69591 5.87666 9.25105C5.9555 8.80619 6.03996 8.3557 6.13006 7.89958C6.22579 7.43782 6.31589 7.00986 6.40036 6.61568C6.48482 6.2215 6.55803 5.90053 6.61997 5.65276L7.70959 0.981734H10.8011L11.8569 5.65276C11.9132 5.8949 11.9836 6.21587 12.0681 6.61568C12.1582 7.00986 12.2483 7.43782 12.3384 7.89958C12.4341 8.36133 12.5214 8.81745 12.6002 9.26794C12.6791 9.7128 12.7382 10.1042 12.7776 10.442C12.8114 10.1605 12.8677 9.80571 12.9465 9.37775C13.0254 8.94415 13.1042 8.52463 13.1831 8.11919C13.2675 7.70812 13.3323 7.39841 13.3773 7.19005L14.7457 0.981734H17.9639Z" fill="white"/>
<path d="M22.6359 3.59176C23.5651 3.59176 24.3675 3.75506 25.0432 4.08167C25.719 4.40264 26.2398 4.88692 26.6059 5.5345C26.9719 6.18208 27.1549 6.99297 27.1549 7.96715V9.43688H21.2507C21.2788 9.93805 21.4646 10.3491 21.8081 10.6701C22.1573 10.9911 22.6697 11.1516 23.3454 11.1516C23.9423 11.1516 24.4886 11.0924 24.9841 10.9742C25.4853 10.8559 26.0005 10.6729 26.5298 10.4251V12.7987C26.0681 13.0408 25.5641 13.2182 25.0179 13.3308C24.4717 13.4434 23.7819 13.4997 22.9484 13.4997C21.9855 13.4997 21.124 13.328 20.3638 12.9845C19.6036 12.641 19.0038 12.1088 18.5646 11.3881C18.131 10.6673 17.9142 9.74096 17.9142 8.6091C17.9142 7.46035 18.1113 6.51713 18.5055 5.77946C18.8997 5.03615 19.4515 4.48711 20.161 4.13235C20.8706 3.77196 21.6955 3.59176 22.6359 3.59176ZM22.7542 5.83858C22.3656 5.83858 22.039 5.96247 21.7744 6.21024C21.5153 6.45238 21.3633 6.83529 21.3182 7.35899H24.1563C24.1507 7.07743 24.0944 6.82122 23.9874 6.59034C23.8804 6.35946 23.7227 6.17645 23.5144 6.0413C23.3117 5.90616 23.0583 5.83858 22.7542 5.83858Z" fill="white"/>
<path d="M31.8053 0.187744V3.16098C31.8053 3.49885 31.794 3.82264 31.7715 4.13235C31.749 4.43643 31.7208 4.72362 31.6871 4.99391H31.8053C32.0531 4.60537 32.3769 4.27594 32.7767 4.00565C33.1765 3.72973 33.7002 3.59176 34.3478 3.59176C35.3445 3.59176 36.1582 4.0141 36.7889 4.85877C37.4252 5.70344 37.7433 6.92539 37.7433 8.52463C37.7433 9.61144 37.5969 10.5265 37.3041 11.2698C37.0113 12.0075 36.6002 12.565 36.0709 12.9423C35.5472 13.3139 34.939 13.4997 34.2464 13.4997C33.5707 13.4997 33.0554 13.3843 32.7007 13.1534C32.3515 12.9169 32.0531 12.6635 31.8053 12.3932H31.6026L31.0789 13.3308H28.5027V0.187744H31.8053ZM33.1399 6.1849C32.8358 6.1849 32.5852 6.25529 32.3881 6.39607C32.191 6.53684 32.0446 6.75646 31.9489 7.05491C31.8532 7.34773 31.8053 7.7222 31.8053 8.17832V8.64289C31.8053 9.3862 31.9039 9.93805 32.1009 10.2984C32.3037 10.6588 32.6612 10.839 33.1737 10.839C33.5622 10.839 33.8607 10.6391 34.069 10.2393C34.2774 9.8395 34.3816 9.25668 34.3816 8.49085C34.3816 7.72501 34.2802 7.15064 34.0775 6.76772C33.8748 6.37917 33.5622 6.1849 33.1399 6.1849Z" fill="white"/>
<path d="M43.7577 0.981734C45.3232 0.981734 46.4945 1.32242 47.2716 2.00378C48.0543 2.68515 48.4456 3.6537 48.4456 4.90945C48.4456 5.47256 48.364 6.01315 48.2007 6.53121C48.043 7.04928 47.7812 7.51103 47.4151 7.91647C47.0548 8.32191 46.5733 8.64289 45.9708 8.8794C45.3739 9.1159 44.6362 9.23416 43.7577 9.23416H42.8201V13.3308H39.4837V0.981734H43.7577ZM43.6817 3.67623H42.8201V6.51432H43.479C43.7662 6.51432 44.0337 6.46645 44.2814 6.37073C44.5292 6.26936 44.7263 6.10888 44.8727 5.88926C45.0247 5.66402 45.1007 5.36557 45.1007 4.99391C45.1007 4.60537 44.9853 4.29002 44.7544 4.04788C44.5236 3.80011 44.166 3.67623 43.6817 3.67623Z" fill="white"/>
<path d="M53.8525 3.59176C55.0632 3.59176 56.0093 3.89303 56.6906 4.49556C57.372 5.09246 57.7127 5.94558 57.7127 7.05491V13.3308H55.4236L54.7901 12.0638H54.7226C54.4523 12.4017 54.1735 12.6776 53.8863 12.8916C53.6048 13.0999 53.281 13.252 52.915 13.3477C52.5489 13.4491 52.1013 13.4997 51.5719 13.4997C51.0201 13.4997 50.5245 13.3871 50.0853 13.1619C49.6461 12.9366 49.2998 12.5959 49.0464 12.1398C48.793 11.6837 48.6663 11.1065 48.6663 10.4082C48.6663 9.38338 49.021 8.62318 49.7306 8.12764C50.4401 7.6321 51.4678 7.35336 52.8136 7.29142L54.41 7.24074V7.10559C54.41 6.67762 54.303 6.37354 54.0891 6.19335C53.8807 6.01315 53.5991 5.92305 53.2444 5.92305C52.8671 5.92305 52.4448 5.99062 51.9774 6.12577C51.5156 6.25529 51.0511 6.42422 50.5837 6.63257L49.6292 4.45333C50.181 4.17177 50.8061 3.95779 51.5044 3.81138C52.2026 3.66497 52.9853 3.59176 53.8525 3.59176ZM54.4269 9.05677L53.6667 9.09056C53.0586 9.11309 52.6306 9.22008 52.3828 9.41154C52.1407 9.59736 52.0196 9.86484 52.0196 10.214C52.0196 10.5406 52.1069 10.7827 52.2815 10.9404C52.456 11.0924 52.6869 11.1684 52.9741 11.1684C53.3739 11.1684 53.7146 11.0417 53.9961 10.7883C54.2833 10.5349 54.4269 10.2055 54.4269 9.80008V9.05677Z" fill="white"/>
<path d="M62.8824 17.4866C61.5253 17.4866 60.4779 17.2585 59.7402 16.8024C59.0082 16.3519 58.6422 15.7015 58.6422 14.8512C58.6422 14.2825 58.8195 13.8123 59.1743 13.4406C59.5291 13.069 60.0612 12.8015 60.7707 12.6382C60.4779 12.5143 60.2217 12.3144 60.0021 12.0385C59.7881 11.7625 59.6811 11.4894 59.6811 11.2191C59.6811 10.9207 59.7627 10.6588 59.9261 10.4336C60.0894 10.2027 60.43 9.9296 60.9481 9.61426C60.4526 9.39464 60.0612 9.05114 59.774 8.58376C59.4925 8.11638 59.3517 7.54763 59.3517 6.87753C59.3517 6.1849 59.5093 5.59363 59.8247 5.10372C60.1457 4.61381 60.6102 4.23934 61.2184 3.98031C61.8322 3.72128 62.5783 3.59176 63.4568 3.59176C63.575 3.59176 63.7552 3.60302 63.9974 3.62555C64.2395 3.64244 64.4845 3.66497 64.7322 3.69312C64.98 3.71565 65.1715 3.73817 65.3066 3.7607H68.643V5.35712L67.3338 5.83858C67.4239 6.00189 67.4915 6.17927 67.5365 6.37073C67.5816 6.56218 67.6041 6.7649 67.6041 6.97889C67.6041 8.00938 67.2409 8.809 66.5145 9.37775C65.7937 9.94649 64.7153 10.2309 63.2794 10.2309C62.9246 10.2309 62.6431 10.2083 62.4347 10.1633C62.3953 10.2365 62.3643 10.3097 62.3418 10.3829C62.3249 10.4505 62.3165 10.5152 62.3165 10.5772C62.3165 10.7067 62.3925 10.8109 62.5445 10.8897C62.7022 10.9629 62.8908 11.0136 63.1105 11.0417C63.3357 11.0699 63.5497 11.084 63.7524 11.084H65.3404C66.4159 11.084 67.2212 11.3092 67.7561 11.7597C68.2911 12.2102 68.5586 12.8888 68.5586 13.7954C68.5586 14.961 68.0602 15.8676 67.0635 16.5152C66.0724 17.1628 64.6787 17.4866 62.8824 17.4866ZM63.0429 15.4256C63.4427 15.4256 63.8453 15.389 64.2508 15.3158C64.6562 15.2482 64.9969 15.1356 65.2728 14.9779C65.5487 14.8202 65.6867 14.6119 65.6867 14.3529C65.6867 14.1558 65.605 14.0065 65.4417 13.9052C65.2784 13.8094 65.0673 13.7447 64.8082 13.7109C64.5492 13.6771 64.2761 13.6602 63.9889 13.6602H62.705C62.4685 13.6602 62.2517 13.6968 62.0546 13.77C61.8632 13.8489 61.7111 13.953 61.5985 14.0826C61.4859 14.2121 61.4296 14.3585 61.4296 14.5218C61.4296 14.7921 61.576 15.0089 61.8688 15.1722C62.1616 15.3411 62.553 15.4256 63.0429 15.4256ZM63.4906 8.36415C63.8059 8.36415 64.048 8.24308 64.217 8.00094C64.3915 7.7588 64.4788 7.39559 64.4788 6.91131C64.4788 6.41577 64.3972 6.04412 64.2339 5.79635C64.0706 5.54858 63.8228 5.4247 63.4906 5.4247C63.1471 5.4247 62.8908 5.54858 62.7219 5.79635C62.553 6.03849 62.4685 6.40451 62.4685 6.89442C62.4685 7.38433 62.553 7.75317 62.7219 8.00094C62.8908 8.24308 63.1471 8.36415 63.4906 8.36415Z" fill="white"/>
<path d="M74.0662 3.59176C74.9953 3.59176 75.7977 3.75506 76.4735 4.08167C77.1492 4.40264 77.6701 4.88692 78.0361 5.5345C78.4021 6.18208 78.5851 6.99297 78.5851 7.96715V9.43688H72.6809C72.7091 9.93805 72.8949 10.3491 73.2384 10.6701C73.5875 10.9911 74.0999 11.1516 74.7757 11.1516C75.3726 11.1516 75.9188 11.0924 76.4143 10.9742C76.9155 10.8559 77.4308 10.6729 77.9601 10.4251V12.7987C77.4983 13.0408 76.9943 13.2182 76.4481 13.3308C75.9019 13.4434 75.2121 13.4997 74.3787 13.4997C73.4158 13.4997 72.5542 13.328 71.794 12.9845C71.0338 12.641 70.4341 12.1088 69.9948 11.3881C69.5613 10.6673 69.3445 9.74096 69.3445 8.6091C69.3445 7.46035 69.5415 6.51713 69.9357 5.77946C70.3299 5.03615 70.8817 4.48711 71.5913 4.13235C72.3008 3.77196 73.1258 3.59176 74.0662 3.59176ZM74.1844 5.83858C73.7959 5.83858 73.4693 5.96247 73.2046 6.21024C72.9456 6.45238 72.7935 6.83529 72.7485 7.35899H75.5866C75.5809 7.07743 75.5246 6.82122 75.4176 6.59034C75.3106 6.35946 75.153 6.17645 74.9446 6.0413C74.7419 5.90616 74.4885 5.83858 74.1844 5.83858Z" fill="white"/>
<path d="M85.0563 13.3308H81.7199V3.71002H78.7044V0.981734H88.0633V3.71002H85.0563V13.3308Z" fill="white"/>
<path d="M92.5583 3.59176C93.4875 3.59176 94.2899 3.75506 94.9656 4.08167C95.6414 4.40264 96.1623 4.88692 96.5283 5.5345C96.8943 6.18208 97.0773 6.99297 97.0773 7.96715V9.43688H91.1731C91.2012 9.93805 91.3871 10.3491 91.7306 10.6701C92.0797 10.9911 92.5921 11.1516 93.2679 11.1516C93.8648 11.1516 94.411 11.0924 94.9065 10.9742C95.4077 10.8559 95.9229 10.6729 96.4523 10.4251V12.7987C95.9905 13.0408 95.4865 13.2182 94.9403 13.3308C94.3941 13.4434 93.7043 13.4997 92.8709 13.4997C91.9079 13.4997 91.0464 13.328 90.2862 12.9845C89.526 12.641 88.9263 12.1088 88.487 11.3881C88.0534 10.6673 87.8366 9.74096 87.8366 8.6091C87.8366 7.46035 88.0337 6.51713 88.4279 5.77946C88.8221 5.03615 89.3739 4.48711 90.0834 4.13235C90.793 3.77196 91.6179 3.59176 92.5583 3.59176ZM92.6766 5.83858C92.288 5.83858 91.9614 5.96247 91.6968 6.21024C91.4377 6.45238 91.2857 6.83529 91.2407 7.35899H94.0787C94.0731 7.07743 94.0168 6.82122 93.9098 6.59034C93.8028 6.35946 93.6451 6.17645 93.4368 6.0413C93.2341 5.90616 92.9807 5.83858 92.6766 5.83858Z" fill="white"/>
<path d="M105.71 10.3914C105.71 10.9995 105.575 11.5373 105.305 12.0047C105.034 12.4721 104.601 12.8381 104.004 13.1027C103.413 13.3674 102.633 13.4997 101.664 13.4997C100.983 13.4997 100.372 13.4631 99.8313 13.3899C99.2963 13.3167 98.7529 13.1759 98.2011 12.9676V10.3238C98.8036 10.5997 99.4174 10.7996 100.042 10.9235C100.668 11.0417 101.16 11.1009 101.521 11.1009C101.892 11.1009 102.163 11.0615 102.332 10.9826C102.506 10.8982 102.593 10.7743 102.593 10.611C102.593 10.4702 102.534 10.3519 102.416 10.2562C102.303 10.1548 102.098 10.0394 101.799 9.90989C101.507 9.78037 101.093 9.60581 100.558 9.3862C100.028 9.16658 99.5863 8.92726 99.2316 8.66823C98.8824 8.4092 98.6206 8.09948 98.446 7.73909C98.2715 7.3787 98.1842 6.93665 98.1842 6.41296C98.1842 5.47819 98.5446 4.7743 99.2654 4.30129C99.9861 3.82827 100.941 3.59176 102.129 3.59176C102.759 3.59176 103.354 3.66215 103.911 3.80293C104.469 3.93808 105.046 4.13798 105.643 4.40265L104.739 6.53121C104.266 6.31723 103.787 6.14548 103.303 6.01596C102.819 5.88645 102.433 5.82169 102.146 5.82169C101.887 5.82169 101.687 5.85548 101.546 5.92305C101.405 5.99062 101.335 6.08917 101.335 6.21868C101.335 6.33694 101.383 6.44112 101.478 6.53121C101.58 6.62131 101.768 6.72549 102.044 6.84374C102.32 6.96199 102.723 7.12811 103.252 7.3421C103.81 7.56734 104.269 7.80948 104.629 8.06851C104.995 8.32191 105.265 8.63162 105.44 8.99765C105.62 9.36367 105.71 9.82824 105.71 10.3914Z" fill="white"/>
<path d="M112.066 10.8897C112.365 10.8897 112.638 10.8587 112.886 10.7968C113.134 10.7348 113.393 10.656 113.663 10.5603V12.9676C113.303 13.1253 112.92 13.252 112.514 13.3477C112.114 13.4491 111.602 13.4997 110.977 13.4997C110.357 13.4997 109.811 13.404 109.338 13.2125C108.865 13.0155 108.496 12.6776 108.232 12.1989C107.973 11.7147 107.843 11.0417 107.843 10.1802V6.23558H106.686V4.89255L108.156 3.85361L109.009 1.8433H111.171V3.7607H113.519V6.23558H111.171V9.96057C111.171 10.2703 111.25 10.504 111.408 10.6616C111.565 10.8137 111.785 10.8897 112.066 10.8897Z" fill="white"/>
<rect x="120.999" y="0.65783" width="23.269" height="13.2586" rx="2.37713" fill="url(#paint0_linear_30_54)" stroke="white" stroke-width="0.754256"/>
<path d="M127.567 3.3649C128.516 3.3649 129.208 3.56936 129.644 3.97829C130.08 4.38386 130.298 4.94362 130.298 5.65757C130.298 5.97935 130.249 6.28772 130.152 6.58268C130.055 6.8743 129.895 7.13407 129.674 7.36199C129.456 7.58992 129.165 7.77092 128.799 7.90499C128.434 8.03572 127.983 8.10108 127.447 8.10108H126.778V10.7155H125.219V3.3649H127.567ZM127.487 4.64196H126.778V6.82402H127.291C127.583 6.82402 127.836 6.78547 128.05 6.70838C128.265 6.63129 128.431 6.51062 128.548 6.34638C128.665 6.18214 128.724 5.97097 128.724 5.71288C128.724 5.35088 128.623 5.08273 128.422 4.90843C128.221 4.73078 127.909 4.64196 127.487 4.64196Z" fill="white"/>
<path d="M134.187 4.98887C134.264 4.98887 134.353 4.9939 134.454 5.00396C134.557 5.01066 134.641 5.02072 134.705 5.03412L134.589 6.47207C134.539 6.45531 134.467 6.44358 134.373 6.43688C134.283 6.42682 134.204 6.4218 134.137 6.4218C133.939 6.4218 133.746 6.44693 133.559 6.49721C133.374 6.54749 133.208 6.62961 133.061 6.74357C132.913 6.85418 132.796 7.00167 132.709 7.18602C132.625 7.36702 132.583 7.58992 132.583 7.85472V10.7155H131.05V5.09446H132.211L132.437 6.03968H132.513C132.623 5.84863 132.761 5.67433 132.925 5.51679C133.093 5.3559 133.282 5.22853 133.493 5.13468C133.708 5.03748 133.939 4.98887 134.187 4.98887Z" fill="white"/>
<path d="M140.319 7.89494C140.319 8.3642 140.255 8.77983 140.128 9.14183C140.004 9.50383 139.821 9.81052 139.58 10.0619C139.342 10.31 139.054 10.4977 138.715 10.625C138.38 10.7524 138.001 10.8161 137.579 10.8161C137.183 10.8161 136.82 10.7524 136.488 10.625C136.159 10.4977 135.873 10.31 135.628 10.0619C135.387 9.81052 135.199 9.50383 135.065 9.14183C134.934 8.77983 134.869 8.3642 134.869 7.89494C134.869 7.27149 134.979 6.74357 135.201 6.31118C135.422 5.87879 135.737 5.55031 136.146 5.32574C136.555 5.10116 137.043 4.98887 137.609 4.98887C138.135 4.98887 138.601 5.10116 139.007 5.32574C139.416 5.55031 139.736 5.87879 139.967 6.31118C140.202 6.74357 140.319 7.27149 140.319 7.89494ZM136.432 7.89494C136.432 8.26364 136.473 8.57369 136.553 8.82508C136.634 9.07647 136.759 9.26585 136.93 9.39322C137.101 9.52059 137.324 9.58427 137.599 9.58427C137.87 9.58427 138.09 9.52059 138.258 9.39322C138.428 9.26585 138.553 9.07647 138.63 8.82508C138.71 8.57369 138.75 8.26364 138.75 7.89494C138.75 7.52288 138.71 7.21451 138.63 6.96982C138.553 6.72179 138.428 6.53576 138.258 6.41174C138.087 6.28772 137.864 6.22571 137.589 6.22571C137.183 6.22571 136.888 6.36481 136.704 6.64302C136.523 6.92122 136.432 7.33853 136.432 7.89494Z" fill="white"/>
<defs>
<linearGradient id="paint0_linear_30_54" x1="129.437" y1="6.72661" x2="138.741" y2="11.8287" gradientUnits="userSpaceOnUse">
<stop stop-color="#68A719"/>
<stop offset="1" stop-color="#68A718"/>
</linearGradient>
</defs>
</svg>
