<svg width="105" height="14" viewBox="0 0 105 14" fill="none" xmlns="http://www.w3.org/2000/svg">
<path d="M13.3923 1.58683L11.218 10.4168H8.39747L7.55192 6.56954C7.53582 6.49706 7.50964 6.37426 7.47341 6.20112C7.44119 6.02798 7.40294 5.83069 7.35865 5.60923C7.31839 5.38778 7.28014 5.17035 7.2439 4.95695C7.21169 4.73952 7.18753 4.55632 7.17142 4.40734C7.15532 4.55632 7.12915 4.73952 7.09291 4.95695C7.05667 5.17035 7.01641 5.38778 6.97212 5.60923C6.93185 5.83069 6.89159 6.02798 6.85132 6.20112C6.81509 6.37426 6.78891 6.49706 6.77281 6.56954L5.92122 10.4168H3.1007L0.914352 1.58683H3.21546L4.17576 6.01389C4.19992 6.1226 4.23213 6.27762 4.2724 6.47894C4.31669 6.67624 4.36098 6.89366 4.40527 7.13122C4.45358 7.36476 4.49787 7.59024 4.53814 7.80766C4.5784 8.02509 4.60659 8.20628 4.62269 8.35123C4.65491 8.10159 4.69718 7.81773 4.74953 7.49964C4.8059 7.18155 4.86629 6.85944 4.93072 6.5333C4.99917 6.20313 5.06359 5.89712 5.12398 5.61527C5.18438 5.33342 5.23672 5.10392 5.28102 4.92675L6.06013 1.58683H8.27064L9.02559 4.92675C9.06586 5.09989 9.11619 5.3294 9.17659 5.61527C9.24101 5.89712 9.30543 6.20313 9.36985 6.5333C9.4383 6.86347 9.50071 7.18961 9.55708 7.51172C9.61345 7.82981 9.65573 8.10965 9.68392 8.35123C9.70807 8.14991 9.74834 7.89624 9.80471 7.59024C9.86108 7.2802 9.91745 6.98023 9.97382 6.69033C10.0342 6.3964 10.0805 6.17495 10.1127 6.02597L11.0912 1.58683H13.3923Z" fill="#141E33"/>
<path d="M16.7329 3.45308C17.3973 3.45308 17.971 3.56985 18.4542 3.80338C18.9374 4.03289 19.3098 4.37916 19.5715 4.8422C19.8333 5.30524 19.9641 5.88504 19.9641 6.58162V7.63251H15.7424C15.7625 7.99087 15.8954 8.2848 16.141 8.5143C16.3907 8.74381 16.7571 8.85856 17.2402 8.85856C17.667 8.85856 18.0576 8.81628 18.4119 8.73173C18.7703 8.64717 19.1387 8.51631 19.5172 8.33915V10.0363C19.187 10.2094 18.8267 10.3363 18.4361 10.4168C18.0455 10.4973 17.5523 10.5376 16.9564 10.5376C16.2679 10.5376 15.6518 10.4148 15.1082 10.1692C14.5647 9.92355 14.1359 9.54305 13.8218 9.02767C13.5118 8.51229 13.3567 7.84994 13.3567 7.04063C13.3567 6.21924 13.4977 5.54481 13.7795 5.01735C14.0614 4.48586 14.456 4.09328 14.9633 3.83962C15.4706 3.58193 16.0605 3.45308 16.7329 3.45308ZM16.8175 5.05963C16.5396 5.05963 16.3061 5.14821 16.1169 5.32537C15.9316 5.49851 15.8229 5.7723 15.7907 6.14676H17.82C17.816 5.94544 17.7758 5.76224 17.6992 5.59715C17.6227 5.43207 17.51 5.30121 17.361 5.20458C17.2161 5.10794 17.0349 5.05963 16.8175 5.05963Z" fill="#141E33"/>
<path d="M23.2893 1.0191V3.14506C23.2893 3.38664 23.2813 3.61816 23.2651 3.83962C23.249 4.05704 23.2289 4.26239 23.2047 4.45566H23.2893C23.4665 4.17784 23.698 3.94229 23.9839 3.74902C24.2697 3.55173 24.6442 3.45308 25.1072 3.45308C25.8199 3.45308 26.4017 3.75506 26.8527 4.35903C27.3077 4.96299 27.5352 5.83673 27.5352 6.98023C27.5352 7.75733 27.4305 8.41163 27.2211 8.94312C27.0117 9.47058 26.7178 9.8692 26.3393 10.139C25.9649 10.4047 25.53 10.5376 25.0348 10.5376C24.5516 10.5376 24.1832 10.455 23.9295 10.29C23.6799 10.1208 23.4665 9.93966 23.2893 9.74639H23.1444L22.7699 10.4168H20.9278V1.0191H23.2893ZM24.2436 5.30725C24.0261 5.30725 23.847 5.35758 23.706 5.45824C23.5651 5.5589 23.4604 5.71593 23.392 5.92934C23.3235 6.13871 23.2893 6.40647 23.2893 6.73261V7.06479C23.2893 7.59628 23.3598 7.99087 23.5007 8.24856C23.6456 8.50625 23.9013 8.6351 24.2677 8.6351C24.5455 8.6351 24.759 8.49216 24.9079 8.20628C25.0569 7.9204 25.1314 7.50367 25.1314 6.95607C25.1314 6.40848 25.0589 5.99778 24.914 5.72399C24.769 5.44616 24.5455 5.30725 24.2436 5.30725Z" fill="#141E33"/>
<path d="M31.8356 1.58683C32.955 1.58683 33.7925 1.83043 34.3481 2.31763C34.9078 2.80483 35.1876 3.49737 35.1876 4.39526C35.1876 4.79791 35.1293 5.18445 35.0125 5.55488C34.8998 5.92531 34.7125 6.25548 34.4508 6.54538C34.1931 6.83528 33.8489 7.06479 33.418 7.2339C32.9912 7.40301 32.4638 7.48756 31.8356 7.48756H31.1652V10.4168H28.7796V1.58683H31.8356ZM31.7813 3.51348H31.1652V5.5428H31.6363C31.8417 5.5428 32.0329 5.50857 32.2101 5.44012C32.3873 5.36765 32.5282 5.25289 32.6329 5.09586C32.7416 4.93481 32.7959 4.72141 32.7959 4.45566C32.7959 4.17784 32.7134 3.95236 32.5483 3.77922C32.3832 3.60206 32.1276 3.51348 31.7813 3.51348Z" fill="#141E33"/>
<path d="M39.0537 3.45308C39.9194 3.45308 40.5959 3.66849 41.0831 4.09932C41.5703 4.52612 41.8139 5.13613 41.8139 5.92934V10.4168H40.1771L39.7241 9.51084H39.6758C39.4826 9.75243 39.2833 9.94972 39.0779 10.1027C38.8766 10.2517 38.6451 10.3604 38.3833 10.4289C38.1216 10.5013 37.8015 10.5376 37.423 10.5376C37.0284 10.5376 36.6741 10.4571 36.3601 10.296C36.046 10.1349 35.7984 9.89134 35.6172 9.5652C35.436 9.23906 35.3454 8.82635 35.3454 8.32707C35.3454 7.59426 35.5991 7.05069 36.1064 6.69637C36.6137 6.34204 37.3486 6.14274 38.3109 6.09844L39.4524 6.06221V5.96557C39.4524 5.65956 39.3759 5.44214 39.2229 5.31329C39.0739 5.18445 38.8726 5.12002 38.6189 5.12002C38.3491 5.12002 38.0471 5.16834 37.7129 5.26497C37.3828 5.35758 37.0506 5.47837 36.7164 5.62735L36.0339 4.06912C36.4285 3.8678 36.8754 3.7148 37.3747 3.61011C37.874 3.50542 38.4337 3.45308 39.0537 3.45308ZM39.4644 7.36073L38.9209 7.38489C38.486 7.40099 38.18 7.4775 38.0028 7.6144C37.8297 7.74727 37.7431 7.93852 37.7431 8.18816C37.7431 8.4217 37.8056 8.59483 37.9304 8.70757C38.0552 8.81628 38.2203 8.87064 38.4256 8.87064C38.7115 8.87064 38.9551 8.78005 39.1564 8.59886C39.3618 8.41767 39.4644 8.18212 39.4644 7.89222V7.36073Z" fill="#141E33"/>
<path d="M45.5104 13.3883C44.54 13.3883 43.7911 13.2252 43.2636 12.8991C42.7402 12.577 42.4785 12.1119 42.4785 11.5039C42.4785 11.0973 42.6053 10.7611 42.859 10.4953C43.1126 10.2296 43.4931 10.0383 44.0005 9.92154C43.7911 9.83296 43.6079 9.69002 43.4508 9.49272C43.2978 9.29543 43.2213 9.10015 43.2213 8.90688C43.2213 8.69348 43.2797 8.50625 43.3965 8.34519C43.5133 8.18011 43.7569 7.98483 44.1273 7.75935C43.773 7.60232 43.4931 7.3567 43.2878 7.02251C43.0865 6.68832 42.9858 6.28165 42.9858 5.8025C42.9858 5.30725 43.0985 4.88448 43.324 4.53418C43.5535 4.18388 43.8857 3.91612 44.3206 3.7309C44.7594 3.54569 45.2929 3.45308 45.9211 3.45308C46.0056 3.45308 46.1345 3.46113 46.3076 3.47724C46.4807 3.48932 46.6559 3.50542 46.833 3.52556C47.0102 3.54166 47.1471 3.55777 47.2437 3.57387H49.6294V4.71537L48.6933 5.05963C48.7577 5.17639 48.806 5.30322 48.8382 5.44012C48.8704 5.57702 48.8865 5.72197 48.8865 5.87498C48.8865 6.61181 48.6268 7.18357 48.1074 7.59024C47.592 7.99691 46.821 8.20024 45.7942 8.20024C45.5406 8.20024 45.3392 8.18414 45.1903 8.15192C45.1621 8.20427 45.1399 8.25661 45.1238 8.30895C45.1117 8.35727 45.1057 8.40358 45.1057 8.44787C45.1057 8.54047 45.1601 8.61496 45.2688 8.67133C45.3815 8.72368 45.5164 8.75991 45.6734 8.78005C45.8345 8.80018 45.9875 8.81024 46.1325 8.81024H47.2679C48.037 8.81024 48.6127 8.9713 48.9952 9.29342C49.3778 9.61553 49.569 10.1007 49.569 10.749C49.569 11.5824 49.2127 12.2307 48.5 12.6937C47.7913 13.1568 46.7948 13.3883 45.5104 13.3883ZM45.6251 11.9146C45.911 11.9146 46.1989 11.8884 46.4888 11.8361C46.7787 11.7878 47.0223 11.7073 47.2196 11.5945C47.4169 11.4818 47.5155 11.3328 47.5155 11.1476C47.5155 11.0067 47.4571 10.9 47.3404 10.8275C47.2236 10.759 47.0726 10.7127 46.8874 10.6886C46.7022 10.6644 46.5069 10.6523 46.3016 10.6523H45.3835C45.2144 10.6523 45.0594 10.6785 44.9185 10.7309C44.7816 10.7872 44.6729 10.8617 44.5923 10.9543C44.5118 11.0469 44.4715 11.1516 44.4715 11.2684C44.4715 11.4616 44.5762 11.6167 44.7856 11.7334C44.995 11.8542 45.2748 11.9146 45.6251 11.9146ZM45.9452 6.86548C46.1707 6.86548 46.3438 6.77891 46.4646 6.60577C46.5894 6.43264 46.6519 6.17293 46.6519 5.82666C46.6519 5.47234 46.5935 5.20659 46.4767 5.02943C46.3599 4.85227 46.1828 4.76368 45.9452 4.76368C45.6996 4.76368 45.5164 4.85227 45.3956 5.02943C45.2748 5.20256 45.2144 5.46428 45.2144 5.81458C45.2144 6.16488 45.2748 6.42861 45.3956 6.60577C45.5164 6.77891 45.6996 6.86548 45.9452 6.86548Z" fill="#141E33"/>
<path d="M53.5071 3.45308C54.1715 3.45308 54.7452 3.56985 55.2284 3.80338C55.7116 4.03289 56.084 4.37916 56.3457 4.8422C56.6074 5.30524 56.7383 5.88504 56.7383 6.58162V7.63251H52.5166C52.5367 7.99087 52.6696 8.2848 52.9152 8.5143C53.1648 8.74381 53.5313 8.85856 54.0144 8.85856C54.4412 8.85856 54.8318 8.81628 55.1861 8.73173C55.5445 8.64717 55.9129 8.51631 56.2914 8.33915V10.0363C55.9612 10.2094 55.6008 10.3363 55.2103 10.4168C54.8197 10.4973 54.3265 10.5376 53.7306 10.5376C53.042 10.5376 52.426 10.4148 51.8824 10.1692C51.3389 9.92355 50.91 9.54305 50.596 9.02767C50.286 8.51229 50.1309 7.84994 50.1309 7.04063C50.1309 6.21924 50.2719 5.54481 50.5537 5.01735C50.8356 4.48586 51.2301 4.09328 51.7375 3.83962C52.2448 3.58193 52.8347 3.45308 53.5071 3.45308ZM53.5916 5.05963C53.3138 5.05963 53.0803 5.14821 52.8911 5.32537C52.7058 5.49851 52.5971 5.7723 52.5649 6.14676H54.5942C54.5902 5.94544 54.5499 5.76224 54.4734 5.59715C54.3969 5.43207 54.2842 5.30121 54.1352 5.20458C53.9903 5.10794 53.8091 5.05963 53.5916 5.05963Z" fill="#141E33"/>
<path d="M61.3654 10.4168H58.9797V3.53764H56.8236V1.58683H63.5155V3.53764H61.3654V10.4168Z" fill="#141E33"/>
<path d="M66.7296 3.45308C67.3939 3.45308 67.9677 3.56985 68.4509 3.80338C68.934 4.03289 69.3065 4.37916 69.5682 4.8422C69.8299 5.30524 69.9608 5.88504 69.9608 6.58162V7.63251H65.7391C65.7592 7.99087 65.8921 8.2848 66.1377 8.5143C66.3873 8.74381 66.7537 8.85856 67.2369 8.85856C67.6637 8.85856 68.0543 8.81628 68.4086 8.73173C68.7669 8.64717 69.1354 8.51631 69.5138 8.33915V10.0363C69.1837 10.2094 68.8233 10.3363 68.4327 10.4168C68.0422 10.4973 67.5489 10.5376 66.953 10.5376C66.2645 10.5376 65.6485 10.4148 65.1049 10.1692C64.5613 9.92355 64.1325 9.54305 63.8185 9.02767C63.5084 8.51229 63.3534 7.84994 63.3534 7.04063C63.3534 6.21924 63.4943 5.54481 63.7762 5.01735C64.058 4.48586 64.4526 4.09328 64.9599 3.83962C65.4673 3.58193 66.0572 3.45308 66.7296 3.45308ZM66.8141 5.05963C66.5363 5.05963 66.3028 5.14821 66.1135 5.32537C65.9283 5.49851 65.8196 5.7723 65.7874 6.14676H67.8167C67.8127 5.94544 67.7724 5.76224 67.6959 5.59715C67.6194 5.43207 67.5067 5.30121 67.3577 5.20458C67.2127 5.10794 67.0315 5.05963 66.8141 5.05963Z" fill="#141E33"/>
<path d="M76.1335 8.31499C76.1335 8.74985 76.0369 9.13437 75.8436 9.46857C75.6504 9.80276 75.3403 10.0645 74.9135 10.2537C74.4908 10.443 73.9331 10.5376 73.2405 10.5376C72.7533 10.5376 72.3165 10.5114 71.9299 10.4591C71.5474 10.4067 71.1589 10.3061 70.7643 10.1571V8.26668C71.1951 8.46397 71.634 8.60691 72.0809 8.69549C72.5279 8.78005 72.8802 8.82232 73.1379 8.82232C73.4036 8.82232 73.5969 8.79414 73.7177 8.73777C73.8425 8.67737 73.9049 8.58879 73.9049 8.47202C73.9049 8.37136 73.8626 8.28681 73.7781 8.21836C73.6975 8.14588 73.5506 8.06334 73.3372 7.97073C73.1278 7.87813 72.8319 7.75331 72.4494 7.59628C72.0709 7.43925 71.7548 7.26812 71.5011 7.08291C71.2515 6.89769 71.0643 6.67624 70.9394 6.41855C70.8146 6.16085 70.7522 5.84478 70.7522 5.47032C70.7522 4.80193 71.0099 4.29863 71.5253 3.96041C72.0407 3.62219 72.7231 3.45308 73.5727 3.45308C74.0237 3.45308 74.4485 3.50341 74.8471 3.60407C75.2457 3.70071 75.6584 3.84364 76.0852 4.03289L75.439 5.55488C75.1008 5.40187 74.7585 5.27907 74.4122 5.18646C74.066 5.09385 73.7902 5.04755 73.5848 5.04755C73.3996 5.04755 73.2567 5.07171 73.156 5.12002C73.0553 5.16834 73.005 5.2388 73.005 5.33141C73.005 5.41596 73.0392 5.49045 73.1077 5.55488C73.1801 5.6193 73.315 5.69379 73.5123 5.77834C73.7096 5.8629 73.9975 5.98168 74.376 6.13468C74.7746 6.29574 75.1028 6.46888 75.3605 6.65409C75.6222 6.83528 75.8154 7.05673 75.9403 7.31845C76.0691 7.58017 76.1335 7.91235 76.1335 8.31499Z" fill="#141E33"/>
<path d="M80.6785 8.67133C80.8919 8.67133 81.0872 8.64919 81.2643 8.6049C81.4415 8.56061 81.6267 8.50424 81.82 8.43579V10.1571C81.5623 10.2698 81.2885 10.3604 80.9986 10.4289C80.7127 10.5013 80.3463 10.5376 79.8994 10.5376C79.4565 10.5376 79.0659 10.4691 78.7277 10.3322C78.3895 10.1913 78.1257 9.94972 77.9365 9.60748C77.7513 9.26121 77.6587 8.78005 77.6587 8.164V5.34349H76.8312V4.38319L77.8821 3.64031L78.4921 2.20287H80.0383V3.57387H81.7173V5.34349H80.0383V8.00697C80.0383 8.22843 80.0947 8.39552 80.2074 8.50826C80.3201 8.61698 80.4772 8.67133 80.6785 8.67133Z" fill="#141E33"/>
<rect x="86.9579" y="1.21679" width="16.853" height="9.69524" rx="2.37713" fill="url(#paint0_linear_30_55)" stroke="#466D14" stroke-width="0.754256"/>
<path d="M91.7622 3.25989C92.4404 3.25989 92.9353 3.40609 93.2469 3.69848C93.5585 3.98848 93.7143 4.38872 93.7143 4.89922C93.7143 5.1293 93.6795 5.34979 93.61 5.5607C93.5405 5.76921 93.4267 5.95496 93.2685 6.11793C93.1127 6.28091 92.9042 6.41033 92.6429 6.50619C92.3817 6.59966 92.0594 6.6464 91.6759 6.6464H91.1977V8.51581H90.0833V3.25989H91.7622ZM91.7046 4.17302H91.1977V5.73326H91.5644C91.7729 5.73326 91.9539 5.7057 92.1073 5.65058C92.2607 5.59545 92.3793 5.50917 92.4632 5.39174C92.5471 5.2743 92.589 5.12331 92.589 4.93876C92.589 4.67992 92.5171 4.48819 92.3733 4.36356C92.2295 4.23654 92.0066 4.17302 91.7046 4.17302Z" fill="white"/>
<path d="M96.4954 4.42108C96.5505 4.42108 96.614 4.42467 96.6859 4.43186C96.7602 4.43666 96.8201 4.44385 96.8657 4.45344L96.783 5.48161C96.747 5.46963 96.6955 5.46124 96.6284 5.45645C96.5637 5.44926 96.5074 5.44566 96.4594 5.44566C96.318 5.44566 96.1802 5.46364 96.046 5.49959C95.9142 5.53554 95.7955 5.59426 95.6901 5.67574C95.5846 5.75483 95.5007 5.86029 95.4384 5.9921C95.3785 6.12153 95.3486 6.28091 95.3486 6.47024V8.51581H94.2521V4.49658H95.0825L95.2443 5.17244H95.2982C95.3773 5.03583 95.4756 4.9112 95.593 4.79856C95.7129 4.68352 95.8483 4.59244 95.9993 4.52534C96.1526 4.45583 96.318 4.42108 96.4954 4.42108Z" fill="white"/>
<path d="M100.88 6.499C100.88 6.83454 100.834 7.13173 100.743 7.39057C100.655 7.64941 100.524 7.86871 100.351 8.04846C100.181 8.22581 99.9751 8.36003 99.733 8.4511C99.4934 8.54217 99.2226 8.58771 98.9206 8.58771C98.6378 8.58771 98.3777 8.54217 98.1405 8.4511C97.9056 8.36003 97.7007 8.22581 97.5257 8.04846C97.3531 7.86871 97.2189 7.64941 97.1231 7.39057C97.0296 7.13173 96.9829 6.83454 96.9829 6.499C96.9829 6.05322 97.0619 5.67574 97.2201 5.36657C97.3783 5.0574 97.6036 4.82252 97.896 4.66195C98.1884 4.50137 98.5371 4.42108 98.9421 4.42108C99.3184 4.42108 99.6516 4.50137 99.9416 4.66195C100.234 4.82252 100.463 5.0574 100.628 5.36657C100.796 5.67574 100.88 6.05322 100.88 6.499ZM98.1009 6.499C98.1009 6.76264 98.1297 6.98433 98.1872 7.16408C98.2447 7.34383 98.3346 7.47925 98.4568 7.57032C98.579 7.66139 98.7384 7.70693 98.935 7.70693C99.1291 7.70693 99.2861 7.66139 99.4059 7.57032C99.5281 7.47925 99.6168 7.34383 99.6719 7.16408C99.7295 6.98433 99.7582 6.76264 99.7582 6.499C99.7582 6.23297 99.7295 6.01248 99.6719 5.83752C99.6168 5.66016 99.5281 5.52715 99.4059 5.43847C99.2837 5.34979 99.1243 5.30546 98.9278 5.30546C98.6378 5.30546 98.4269 5.40492 98.295 5.60384C98.1656 5.80277 98.1009 6.10115 98.1009 6.499Z" fill="white"/>
<defs>
<linearGradient id="paint0_linear_30_55" x1="93.0988" y1="5.66362" x2="99.7516" y2="9.3118" gradientUnits="userSpaceOnUse">
<stop stop-color="#68A719"/>
<stop offset="1" stop-color="#68A718"/>
</linearGradient>
</defs>
</svg>
