<svg width="181" height="28" viewBox="0 0 181 28" fill="none" xmlns="http://www.w3.org/2000/svg">
<path d="M20.5928 6.77667L17.1638 20.7021H12.7157L11.3822 14.6347C11.3568 14.5204 11.3155 14.3267 11.2584 14.0537C11.2076 13.7806 11.1473 13.4695 11.0774 13.1202C11.0139 12.771 10.9536 12.4281 10.8964 12.0916C10.8456 11.7487 10.8075 11.4597 10.7821 11.2248C10.7567 11.4597 10.7155 11.7487 10.6583 12.0916C10.6012 12.4281 10.5377 12.771 10.4678 13.1202C10.4043 13.4695 10.3408 13.7806 10.2773 14.0537C10.2202 14.3267 10.1789 14.5204 10.1535 14.6347L8.81048 20.7021H4.36236L0.914352 6.77667H4.54333L6.05779 13.7584C6.09589 13.9299 6.14669 14.1743 6.21019 14.4918C6.28004 14.803 6.34989 15.1459 6.41974 15.5205C6.49594 15.8888 6.56578 16.2444 6.62928 16.5873C6.69278 16.9302 6.73723 17.2159 6.76263 17.4445C6.81343 17.0508 6.88011 16.6032 6.96265 16.1015C7.05155 15.5999 7.1468 15.0919 7.2484 14.5776C7.35635 14.0569 7.45795 13.5743 7.5532 13.1298C7.64845 12.6853 7.731 12.3233 7.80084 12.0439L9.02956 6.77667H12.5157L13.7063 12.0439C13.7698 12.317 13.8491 12.6789 13.9444 13.1298C14.046 13.5743 14.1476 14.0569 14.2492 14.5776C14.3571 15.0982 14.4556 15.6126 14.5445 16.1206C14.6334 16.6222 14.7 17.0635 14.7445 17.4445C14.7826 17.127 14.8461 16.727 14.935 16.2444C15.0239 15.7555 15.1128 15.2824 15.2017 14.8252C15.2969 14.3617 15.37 14.0124 15.4208 13.7775L16.9638 6.77667H20.5928Z" fill="#141E33"/>
<path d="M25.8612 9.71986C26.9089 9.71986 27.8138 9.90401 28.5758 10.2723C29.3378 10.6342 29.9251 11.1803 30.3379 11.9106C30.7506 12.6408 30.957 13.5552 30.957 14.6538V16.3111H24.2991C24.3308 16.8762 24.5404 17.3398 24.9277 17.7017C25.3214 18.0637 25.8993 18.2446 26.6613 18.2446C27.3344 18.2446 27.9503 18.178 28.5091 18.0446C29.0742 17.9113 29.6553 17.7049 30.2521 17.4255V20.102C29.7315 20.375 29.1631 20.5751 28.5472 20.7021C27.9312 20.8291 27.1534 20.8926 26.2136 20.8926C25.1278 20.8926 24.1562 20.6989 23.299 20.3115C22.4417 19.9242 21.7655 19.3241 21.2702 18.5113C20.7812 17.6985 20.5368 16.654 20.5368 15.3776C20.5368 14.0823 20.759 13.0186 21.2035 12.1868C21.648 11.3486 22.2703 10.7295 23.0704 10.3295C23.8705 9.92306 24.8007 9.71986 25.8612 9.71986ZM25.9945 12.2535C25.5564 12.2535 25.1881 12.3932 24.8896 12.6726C24.5975 12.9456 24.4261 13.3774 24.3753 13.968H27.5756C27.5693 13.6505 27.5058 13.3615 27.3852 13.1012C27.2645 12.8408 27.0867 12.6345 26.8518 12.4821C26.6232 12.3297 26.3374 12.2535 25.9945 12.2535Z" fill="#141E33"/>
<path d="M36.201 5.88133V9.23409C36.201 9.61509 36.1883 9.98021 36.1629 10.3295C36.1375 10.6723 36.1058 10.9962 36.0677 11.301H36.201C36.4804 10.8628 36.8455 10.4914 37.2964 10.1866C37.7472 9.87543 38.3378 9.71986 39.068 9.71986C40.1919 9.71986 41.1095 10.1961 41.8207 11.1486C42.5382 12.1011 42.897 13.479 42.897 15.2824C42.897 16.5079 42.7319 17.5398 42.4017 18.378C42.0715 19.2098 41.608 19.8385 41.0111 20.2639C40.4205 20.683 39.7347 20.8926 38.9537 20.8926C38.1917 20.8926 37.6107 20.7624 37.2106 20.502C36.8169 20.2353 36.4804 19.9496 36.201 19.6448H35.9724L35.3819 20.7021H32.4768V5.88133H36.201ZM37.7059 12.644C37.363 12.644 37.0805 12.7234 36.8582 12.8821C36.636 13.0409 36.4709 13.2885 36.3629 13.6251C36.255 13.9553 36.201 14.3775 36.201 14.8919V15.4157C36.201 16.2539 36.3121 16.8762 36.5344 17.2826C36.763 17.689 37.1662 17.8922 37.744 17.8922C38.1822 17.8922 38.5187 17.6668 38.7537 17.2159C38.9886 16.7651 39.1061 16.1079 39.1061 15.2443C39.1061 14.3807 38.9918 13.733 38.7632 13.3012C38.5346 12.8631 38.1822 12.644 37.7059 12.644Z" fill="#141E33"/>
<path d="M49.6791 6.77667C51.4444 6.77667 52.7652 7.16084 53.6415 7.92918C54.5241 8.69752 54.9654 9.78971 54.9654 11.2057C54.9654 11.8407 54.8733 12.4503 54.6892 13.0345C54.5114 13.6187 54.2161 14.1394 53.8034 14.5966C53.397 15.0538 52.8541 15.4157 52.1746 15.6824C51.5015 15.9491 50.6697 16.0825 49.6791 16.0825H48.6218V20.7021H44.8595V6.77667H49.6791ZM49.5934 9.81511H48.6218V13.0155H49.3648C49.6886 13.0155 49.9902 12.9615 50.2696 12.8535C50.549 12.7393 50.7713 12.5583 50.9364 12.3106C51.1078 12.0566 51.1936 11.7201 51.1936 11.301C51.1936 10.8628 51.0634 10.5073 50.803 10.2342C50.5427 9.95481 50.1395 9.81511 49.5934 9.81511Z" fill="#141E33"/>
<path d="M61.0625 9.71986C62.4277 9.71986 63.4945 10.0596 64.2628 10.739C65.0312 11.4121 65.4154 12.3741 65.4154 13.6251V20.7021H62.8341L62.1197 19.2733H62.0435C61.7387 19.6543 61.4244 19.9655 61.1006 20.2068C60.7831 20.4417 60.418 20.6132 60.0052 20.7211C59.5925 20.8354 59.0877 20.8926 58.4908 20.8926C57.8685 20.8926 57.3097 20.7656 56.8144 20.5116C56.3191 20.2576 55.9286 19.8734 55.6428 19.359C55.3571 18.8447 55.2142 18.1938 55.2142 17.4064C55.2142 16.2508 55.6142 15.3935 56.4143 14.8347C57.2144 14.2759 58.3733 13.9616 59.8909 13.8918L61.6911 13.8346V13.6822C61.6911 13.1996 61.5705 12.8567 61.3292 12.6535C61.0942 12.4503 60.7767 12.3487 60.3767 12.3487C59.9512 12.3487 59.475 12.4249 58.948 12.5773C58.4273 12.7234 57.9034 12.9139 57.3763 13.1488L56.3 10.6914C56.9223 10.3739 57.6272 10.1326 58.4146 9.96751C59.202 9.80241 60.0846 9.71986 61.0625 9.71986ZM61.7102 15.8825L60.8529 15.9206C60.1671 15.946 59.6845 16.0666 59.4051 16.2825C59.1321 16.4921 58.9956 16.7937 58.9956 17.1874C58.9956 17.5557 59.094 17.8287 59.2909 18.0065C59.4877 18.178 59.748 18.2637 60.0719 18.2637C60.5227 18.2637 60.9069 18.1208 61.2244 17.8351C61.5483 17.5493 61.7102 17.1778 61.7102 16.7207V15.8825Z" fill="#141E33"/>
<path d="M71.245 25.3883C69.7146 25.3883 68.5335 25.1311 67.7017 24.6168C66.8762 24.1088 66.4635 23.3754 66.4635 22.4165C66.4635 21.7752 66.6635 21.245 67.0635 20.8259C67.4636 20.4068 68.0637 20.1052 68.8637 19.921C68.5335 19.7813 68.2446 19.5559 67.997 19.2447C67.7557 18.9336 67.635 18.6256 67.635 18.3208C67.635 17.9843 67.7271 17.689 67.9113 17.435C68.0954 17.1747 68.4796 16.8667 69.0638 16.5111C68.505 16.2635 68.0637 15.8761 67.7398 15.3491C67.4223 14.822 67.2636 14.1807 67.2636 13.425C67.2636 12.644 67.4414 11.9773 67.797 11.4248C68.1589 10.8724 68.6828 10.4501 69.3686 10.158C70.0607 9.86591 70.9021 9.71986 71.8927 9.71986C72.026 9.71986 72.2292 9.73256 72.5022 9.75796C72.7753 9.77701 73.0515 9.80241 73.3309 9.83416C73.6103 9.85956 73.8262 9.88496 73.9786 9.91036H77.7409V11.7106L76.2646 12.2535C76.3662 12.4376 76.4424 12.6377 76.4932 12.8535C76.544 13.0694 76.5694 13.298 76.5694 13.5393C76.5694 14.7014 76.1598 15.6031 75.3407 16.2444C74.5279 16.8857 73.3119 17.2064 71.6926 17.2064C71.2926 17.2064 70.9751 17.181 70.7401 17.1302C70.6957 17.2128 70.6608 17.2953 70.6354 17.3779C70.6163 17.4541 70.6068 17.5271 70.6068 17.5969C70.6068 17.743 70.6925 17.8605 70.864 17.9494C71.0418 18.0319 71.2545 18.0891 71.5021 18.1208C71.7561 18.1526 71.9974 18.1684 72.226 18.1684H74.0167C75.2295 18.1684 76.1376 18.4224 76.7408 18.9304C77.3441 19.4384 77.6457 20.2036 77.6457 21.2259C77.6457 22.5404 77.0837 23.5627 75.9598 24.2929C74.8422 25.0232 73.2706 25.3883 71.245 25.3883ZM71.4259 23.0642C71.8768 23.0642 72.3308 23.0229 72.788 22.9404C73.2452 22.8642 73.6294 22.7372 73.9405 22.5594C74.2517 22.3816 74.4072 22.1467 74.4072 21.8546C74.4072 21.6323 74.3152 21.464 74.131 21.3497C73.9469 21.2418 73.7087 21.1688 73.4166 21.1307C73.1245 21.0926 72.8166 21.0735 72.4927 21.0735H71.0449C70.7782 21.0735 70.5338 21.1148 70.3115 21.1973C70.0956 21.2862 69.9242 21.4037 69.7972 21.5498C69.6702 21.6958 69.6067 21.8609 69.6067 22.0451C69.6067 22.3499 69.7718 22.5943 70.102 22.7785C70.4322 22.969 70.8735 23.0642 71.4259 23.0642ZM71.9308 15.1014C72.2864 15.1014 72.5594 14.9649 72.7499 14.6919C72.9467 14.4188 73.0452 14.0092 73.0452 13.4631C73.0452 12.9043 72.9531 12.4853 72.7689 12.2059C72.5848 11.9265 72.3054 11.7868 71.9308 11.7868C71.5434 11.7868 71.2545 11.9265 71.064 12.2059C70.8735 12.4789 70.7782 12.8916 70.7782 13.4441C70.7782 13.9965 70.8735 14.4125 71.064 14.6919C71.2545 14.9649 71.5434 15.1014 71.9308 15.1014Z" fill="#141E33"/>
<path d="M83.8563 9.71986C84.904 9.71986 85.8089 9.90401 86.5709 10.2723C87.3329 10.6342 87.9202 11.1803 88.333 11.9106C88.7457 12.6408 88.9521 13.5552 88.9521 14.6538V16.3111H82.2942C82.326 16.8762 82.5355 17.3398 82.9229 17.7017C83.3166 18.0637 83.8944 18.2446 84.6564 18.2446C85.3295 18.2446 85.9454 18.178 86.5042 18.0446C87.0694 17.9113 87.6504 17.7049 88.2473 17.4255V20.102C87.7266 20.375 87.1582 20.5751 86.5423 20.7021C85.9264 20.8291 85.1485 20.8926 84.2087 20.8926C83.1229 20.8926 82.1513 20.6989 81.2941 20.3115C80.4369 19.9242 79.7606 19.3241 79.2653 18.5113C78.7764 17.6985 78.5319 16.654 78.5319 15.3776C78.5319 14.0823 78.7541 13.0186 79.1986 12.1868C79.6431 11.3486 80.2654 10.7295 81.0655 10.3295C81.8656 9.92306 82.7959 9.71986 83.8563 9.71986ZM83.9896 12.2535C83.5515 12.2535 83.1832 12.3932 82.8848 12.6726C82.5927 12.9456 82.4212 13.3774 82.3704 13.968H85.5708C85.5644 13.6505 85.5009 13.3615 85.3803 13.1012C85.2596 12.8408 85.0818 12.6345 84.8469 12.4821C84.6183 12.3297 84.3325 12.2535 83.9896 12.2535Z" fill="#141E33"/>
<path d="M96.2493 20.7021H92.487V9.85321H89.0866V6.77667H99.6402V9.85321H96.2493V20.7021Z" fill="#141E33"/>
<path d="M104.709 9.71986C105.757 9.71986 106.662 9.90401 107.424 10.2723C108.186 10.6342 108.773 11.1803 109.186 11.9106C109.598 12.6408 109.805 13.5552 109.805 14.6538V16.3111H103.147C103.179 16.8762 103.388 17.3398 103.775 17.7017C104.169 18.0637 104.747 18.2446 105.509 18.2446C106.182 18.2446 106.798 18.178 107.357 18.0446C107.922 17.9113 108.503 17.7049 109.1 17.4255V20.102C108.579 20.375 108.011 20.5751 107.395 20.7021C106.779 20.8291 106.001 20.8926 105.061 20.8926C103.976 20.8926 103.004 20.6989 102.147 20.3115C101.289 19.9242 100.613 19.3241 100.118 18.5113C99.629 17.6985 99.3845 16.654 99.3845 15.3776C99.3845 14.0823 99.6068 13.0186 100.051 12.1868C100.496 11.3486 101.118 10.7295 101.918 10.3295C102.718 9.92306 103.648 9.71986 104.709 9.71986ZM104.842 12.2535C104.404 12.2535 104.036 12.3932 103.737 12.6726C103.445 12.9456 103.274 13.3774 103.223 13.968H106.423C106.417 13.6505 106.354 13.3615 106.233 13.1012C106.112 12.8408 105.934 12.6345 105.7 12.4821C105.471 12.3297 105.185 12.2535 104.842 12.2535Z" fill="#141E33"/>
<path d="M119.54 17.3874C119.54 18.0732 119.387 18.6796 119.082 19.2066C118.778 19.7337 118.289 20.1464 117.616 20.4449C116.949 20.7433 116.069 20.8926 114.977 20.8926C114.209 20.8926 113.52 20.8513 112.91 20.7687C112.307 20.6862 111.694 20.5274 111.072 20.2925V17.3112C111.751 17.6223 112.444 17.8478 113.148 17.9875C113.853 18.1208 114.409 18.1875 114.815 18.1875C115.234 18.1875 115.539 18.143 115.73 18.0541C115.926 17.9589 116.025 17.8192 116.025 17.635C116.025 17.4763 115.958 17.3429 115.825 17.235C115.698 17.1207 115.466 16.9905 115.13 16.8445C114.799 16.6984 114.333 16.5016 113.729 16.2539C113.132 16.0063 112.634 15.7364 112.234 15.4443C111.84 15.1522 111.545 14.803 111.348 14.3966C111.151 13.9902 111.053 13.4917 111.053 12.9012C111.053 11.8471 111.459 11.0533 112.272 10.52C113.085 9.98656 114.161 9.71986 115.501 9.71986C116.212 9.71986 116.882 9.79923 117.511 9.95798C118.139 10.1104 118.79 10.3358 119.463 10.6343L118.444 13.0345C117.911 12.7932 117.371 12.5996 116.825 12.4535C116.279 12.3075 115.844 12.2344 115.52 12.2344C115.228 12.2344 115.003 12.2725 114.844 12.3487C114.685 12.4249 114.606 12.5361 114.606 12.6821C114.606 12.8154 114.66 12.9329 114.768 13.0345C114.882 13.1361 115.095 13.2536 115.406 13.3869C115.717 13.5203 116.171 13.7076 116.768 13.9489C117.396 14.2029 117.914 14.476 118.32 14.7681C118.733 15.0538 119.038 15.403 119.235 15.8158C119.438 16.2285 119.54 16.7524 119.54 17.3874Z" fill="#141E33"/>
<path d="M126.707 17.9494C127.044 17.9494 127.352 17.9144 127.631 17.8446C127.911 17.7747 128.203 17.6858 128.507 17.5779V20.2925C128.101 20.4703 127.669 20.6132 127.212 20.7211C126.761 20.8354 126.183 20.8926 125.479 20.8926C124.78 20.8926 124.164 20.7846 123.631 20.5687C123.097 20.3465 122.681 19.9655 122.383 19.4257C122.091 18.8796 121.945 18.1208 121.945 17.1493V12.7012H120.64V11.1867L122.297 10.0151L123.259 7.74821H125.698V9.91036H128.346V12.7012H125.698V16.9016C125.698 17.2509 125.786 17.5144 125.964 17.6922C126.142 17.8636 126.39 17.9494 126.707 17.9494Z" fill="#141E33"/>
<rect x="135.919" y="1.17232" width="43.465" height="25.4742" rx="5.75" fill="url(#paint0_linear_4_128)" stroke="white" stroke-width="1.5"/>
<path d="M147.813 6.72804C149.594 6.72804 150.893 7.11196 151.712 7.87979C152.53 8.64134 152.939 9.69239 152.939 11.033C152.939 11.6371 152.848 12.2162 152.665 12.77C152.483 13.3176 152.184 13.8053 151.768 14.2333C151.359 14.6613 150.812 15.0011 150.126 15.2529C149.44 15.4983 148.593 15.6211 147.586 15.6211H146.33V20.5302H143.404V6.72804H147.813ZM147.662 9.12595H146.33V13.2232H147.293C147.841 13.2232 148.316 13.1508 148.719 13.006C149.122 12.8613 149.433 12.6347 149.654 12.3263C149.874 12.0179 149.984 11.6214 149.984 11.1368C149.984 10.4571 149.795 9.95358 149.418 9.6263C149.04 9.29273 148.455 9.12595 147.662 9.12595Z" fill="white"/>
<path d="M160.629 9.77735C160.774 9.77735 160.94 9.78679 161.129 9.80567C161.324 9.81826 161.482 9.83714 161.601 9.86232L161.384 12.5623C161.29 12.5309 161.154 12.5088 160.978 12.4962C160.808 12.4774 160.66 12.4679 160.534 12.4679C160.163 12.4679 159.801 12.5151 159.449 12.6095C159.103 12.7039 158.791 12.8581 158.514 13.0721C158.237 13.2798 158.017 13.5567 157.853 13.9029C157.696 14.2427 157.617 14.6613 157.617 15.1585V20.5302H154.738V9.9756H156.919L157.344 11.7504H157.485C157.693 11.3917 157.951 11.0644 158.259 10.7686C158.574 10.4665 158.93 10.2274 159.326 10.0511C159.729 9.86861 160.163 9.77735 160.629 9.77735Z" fill="white"/>
<path d="M172.529 15.234C172.529 16.1151 172.41 16.8956 172.171 17.5753C171.938 18.255 171.595 18.8309 171.141 19.3029C170.695 19.7686 170.153 20.1211 169.518 20.3602C168.888 20.5994 168.177 20.719 167.384 20.719C166.641 20.719 165.959 20.5994 165.336 20.3602C164.719 20.1211 164.181 19.7686 163.721 19.3029C163.268 18.8309 162.916 18.255 162.664 17.5753C162.418 16.8956 162.296 16.1151 162.296 15.234C162.296 14.0634 162.503 13.0721 162.919 12.2602C163.334 11.4483 163.926 10.8316 164.694 10.4099C165.461 9.98819 166.377 9.77735 167.441 9.77735C168.429 9.77735 169.304 9.98819 170.065 10.4099C170.833 10.8316 171.434 11.4483 171.868 12.2602C172.309 13.0721 172.529 14.0634 172.529 15.234ZM165.232 15.234C165.232 15.9263 165.307 16.5085 165.458 16.9805C165.609 17.4525 165.845 17.8081 166.166 18.0473C166.487 18.2865 166.906 18.406 167.422 18.406C167.932 18.406 168.344 18.2865 168.659 18.0473C168.98 17.8081 169.212 17.4525 169.357 16.9805C169.508 16.5085 169.584 15.9263 169.584 15.234C169.584 14.5354 169.508 13.9564 169.357 13.4969C169.212 13.0312 168.98 12.6819 168.659 12.449C168.338 12.2162 167.919 12.0997 167.403 12.0997C166.641 12.0997 166.088 12.3609 165.741 12.8833C165.402 13.4057 165.232 14.1893 165.232 15.234Z" fill="white"/>
<defs>
<linearGradient id="paint0_linear_4_128" x1="151.693" y1="12.8348" x2="169.258" y2="22.1987" gradientUnits="userSpaceOnUse">
<stop stop-color="#68A719"/>
<stop offset="1" stop-color="#68A718"/>
</linearGradient>
</defs>
</svg>
