<svg width="24" height="24" viewBox="0 0 24 24" fill="none" xmlns="http://www.w3.org/2000/svg">
<path d="M23 9.71047C23.0495 8.27913 22.7365 6.85849 22.09 5.58047C21.6514 5.05607 21.0427 4.70218 20.37 4.58047C17.5875 4.328 14.7936 4.22452 12 4.27047C9.21667 4.22243 6.43274 4.32257 3.66003 4.57047C3.11185 4.67019 2.60454 4.92731 2.20003 5.31047C1.30003 6.14047 1.20003 7.56047 1.10003 8.76047C0.954939 10.918 0.954939 13.0829 1.10003 15.2405C1.12896 15.9159 1.22952 16.5863 1.40003 17.2405C1.5206 17.7455 1.76455 18.2128 2.11003 18.6005C2.51729 19.0039 3.03641 19.2757 3.60003 19.3805C5.75594 19.6466 7.92824 19.7569 10.1 19.7105C13.6 19.7605 16.67 19.7105 20.3 19.4305C20.8775 19.3321 21.4112 19.06 21.83 18.6505C22.11 18.3704 22.3191 18.0276 22.44 17.6505C22.7977 16.5531 22.9733 15.4046 22.96 14.2505C23 13.6905 23 10.3105 23 9.71047ZM9.74003 14.8505V8.66047L15.66 11.7705C14 12.6905 11.81 13.7305 9.74003 14.8505Z" fill="black"/>
</svg>
