<svg width="135" height="23" viewBox="0 0 135 23" fill="none" xmlns="http://www.w3.org/2000/svg">
<path d="M132.695 15.8615C132.694 15.7574 132.714 15.6542 132.754 15.558C132.794 15.4619 132.853 15.3748 132.928 15.3019C133.077 15.1549 133.279 15.0717 133.489 15.0698C133.593 15.0687 133.696 15.0887 133.793 15.1286C133.889 15.1685 133.977 15.2275 134.049 15.3019C134.197 15.4513 134.28 15.652 134.282 15.8615C134.283 15.9657 134.263 16.0689 134.223 16.1651C134.183 16.2612 134.124 16.3483 134.049 16.4212C133.9 16.5682 133.699 16.6514 133.489 16.6533C133.384 16.6543 133.281 16.6343 133.184 16.5944C133.088 16.5545 133.001 16.4956 132.928 16.4212C132.78 16.2718 132.697 16.0711 132.695 15.8615ZM132.912 15.8615C132.913 16.0189 132.973 16.1703 133.08 16.2857C133.133 16.3396 133.194 16.3825 133.264 16.4142C133.334 16.447 133.411 16.4639 133.489 16.4639C133.566 16.4639 133.643 16.447 133.713 16.4142C133.783 16.384 133.846 16.3402 133.899 16.2854C133.952 16.2307 133.993 16.1659 134.02 16.0951C134.064 15.985 134.076 15.8648 134.054 15.7484C134.032 15.632 133.978 15.5242 133.897 15.4373C133.844 15.3832 133.782 15.3396 133.713 15.3088C133.643 15.2761 133.566 15.2592 133.489 15.2592C133.411 15.2592 133.334 15.2761 133.264 15.3088C133.194 15.3391 133.131 15.3828 133.078 15.4376C133.026 15.4924 132.984 15.5572 132.957 15.628C132.927 15.7023 132.912 15.7816 132.912 15.8615ZM133.184 15.4373H133.479L133.573 15.4415C133.613 15.4443 133.652 15.4539 133.691 15.4719C133.73 15.4885 133.763 15.5161 133.79 15.552C133.82 15.588 133.833 15.6391 133.833 15.7068C133.833 15.7496 133.828 15.7842 133.817 15.8118C133.806 15.8394 133.79 15.8615 133.772 15.8795C133.755 15.8974 133.734 15.9111 133.71 15.9196C133.687 15.9293 133.663 15.9348 133.638 15.9375L133.851 16.2678H133.627L133.437 15.9486H133.401V16.2678H133.184V15.4373ZM133.4 15.7814H133.487L133.529 15.7786C133.544 15.7773 133.556 15.7731 133.57 15.7676C133.583 15.7617 133.594 15.7526 133.602 15.7413C133.61 15.7289 133.615 15.7123 133.615 15.6916C133.615 15.674 133.61 15.6567 133.601 15.6418C133.593 15.6304 133.583 15.6213 133.57 15.6156C133.557 15.6096 133.543 15.6059 133.529 15.6045L133.487 15.6018H133.4V15.7814ZM131.882 7.11507V3.79749H129.058V7.11507H127.905V9.61051H129.058V16.6685H131.882V9.61051H133.223V7.11507H131.882ZM123.725 6.87741C122.898 6.87741 122.164 7.13579 121.346 7.72856V7.11369H118.522V16.6685H121.346V12.4624C121.346 11.6099 121.344 10.872 121.742 10.2406C122.042 9.76803 122.501 9.50826 123.028 9.50826C124.005 9.50826 124.272 10.0734 124.272 12.1363V16.6685H127.096V10.2406C127.097 8.29232 125.679 6.87741 123.725 6.87741Z" fill="#242424"/>
<path d="M115.547 2.34106C114.682 2.34106 113.977 3.01674 113.977 3.84717C113.977 4.77156 114.682 5.52323 115.549 5.52323C116.416 5.52323 117.121 4.81992 117.121 3.95495C117.121 3.0651 116.414 2.34106 115.549 2.34106H115.547Z" fill="#1478C2"/>
<path d="M116.968 7.1152H114.143V16.67H116.968V7.1152ZM107.947 6.87754C105.219 6.87754 102.998 9.13118 102.998 11.9002C102.998 14.7079 105.179 16.9063 107.964 16.9063C110.796 16.9063 113.014 14.6996 113.014 11.8836C113.016 9.12289 110.742 6.87754 107.947 6.87754ZM107.982 14.2063C106.701 14.2063 105.839 13.2723 105.839 11.8836C105.839 10.5475 106.739 9.57748 107.982 9.57748C109.293 9.57748 110.175 10.5115 110.175 11.9002C110.174 13.2585 109.272 14.2063 107.982 14.2063ZM97.5133 6.87754C96.588 6.86688 95.6874 7.17535 94.9638 7.75081V7.1152H92.14V19.953H94.9638V16.0565C95.6722 16.621 96.5556 16.9215 97.4621 16.9063C100.038 16.9063 102.054 14.7079 102.054 11.9002C102.056 9.03722 100.103 6.87754 97.5133 6.87754ZM97.0563 9.50978C98.3277 9.50978 99.2154 10.4867 99.2154 11.8836C99.2154 13.2695 98.3069 14.2754 97.0563 14.2754C95.7656 14.2754 94.8627 13.2847 94.8627 11.867C94.8627 10.4563 95.7448 9.50978 97.0563 9.50978ZM87.0976 6.87754C86.2805 6.87754 85.5133 7.14837 84.7183 7.72456V3.64563H81.8931V16.67H84.7183V12.3811C84.7169 11.5617 84.7142 10.8542 85.0978 10.2587C85.4066 9.77507 85.8636 9.50978 86.3857 9.50978C87.351 9.50978 87.646 10.1233 87.646 12.1379V16.67H90.4698V10.4452C90.4684 8.27864 89.1444 6.87754 87.0976 6.87754ZM75.8979 9.50978C76.74 9.50978 77.3147 9.76955 77.9504 10.4369L78.1013 10.5958L80.4501 9.30804L80.2742 9.05104C79.3186 7.64994 77.7606 6.87893 75.8827 6.87893C72.7695 6.87893 70.5093 8.99853 70.5093 11.9182C70.5093 14.8088 72.7529 16.9077 75.8481 16.9077C77.69 16.9077 79.1427 16.2389 80.162 14.9179L80.3448 14.6803L78.0999 13.1438L77.9337 13.3483C77.4393 13.9632 76.7206 14.2754 75.7982 14.2754C74.3344 14.2754 73.3511 13.3414 73.3511 11.9527C73.3497 10.4908 74.3746 9.50978 75.8993 9.50978H75.8979ZM68.8544 3.79762H66.0292V7.1152H64.877V9.61064H66.0306V16.6686H68.8544V9.61064H70.195V7.1152H68.8544V3.79762ZM61.1433 7.75081C60.4198 7.17505 59.5191 6.86654 58.5937 6.87754C56.0137 6.87754 54.0693 9.03722 54.0693 11.9002C54.0693 14.7079 56.0774 16.9063 58.645 16.9063C59.5509 16.9252 60.4348 16.627 61.1433 16.0634V16.67H63.9671V7.1152H61.1419V7.75081H61.1433ZM59.0521 14.2741C57.8113 14.2741 56.9097 13.2681 56.9097 11.8822C56.9097 10.4839 57.7905 9.5084 59.0521 9.5084C60.3428 9.5084 61.2458 10.4784 61.2458 11.8657C61.2458 13.2847 60.3442 14.2741 59.0521 14.2741ZM48.4992 9.50978C49.3399 9.50978 49.9146 9.76955 50.5503 10.4369L50.7012 10.5958L53.0486 9.30804L52.8741 9.05104C51.9199 7.64994 50.3605 6.87893 48.4826 6.87893C45.3694 6.87893 43.1093 8.99853 43.1093 11.9182C43.1093 14.8088 45.3542 16.9077 48.4494 16.9077C50.2927 16.9077 51.7441 16.2389 52.7633 14.9179L52.9461 14.6803L50.6998 13.1438L50.535 13.3483C50.0393 13.9632 49.3205 14.2754 48.3982 14.2754C46.9343 14.2754 45.951 13.3414 45.951 11.9527C45.951 10.4908 46.9745 9.50978 48.4992 9.50978Z" fill="#242424"/>
<path d="M9.33445 21.4591C9.24392 21.5493 9.18223 21.6643 9.15721 21.7895C9.13219 21.9147 9.14494 22.0445 9.19387 22.1624C9.24279 22.2804 9.32569 22.3812 9.43206 22.4522C9.53844 22.5231 9.66351 22.561 9.79146 22.561C9.91942 22.561 10.0445 22.5231 10.1509 22.4522C10.2572 22.3812 10.3401 22.2804 10.3891 22.1624C10.438 22.0445 10.4507 21.9147 10.4257 21.7895C10.4007 21.6643 10.339 21.5493 10.2485 21.4591C10.1252 21.3422 9.96157 21.277 9.79146 21.277C9.62136 21.277 9.45775 21.3422 9.33445 21.4591ZM5.95809 20.1644C5.85891 20.2634 5.79136 20.3894 5.76399 20.5266C5.73662 20.6639 5.75065 20.8061 5.80431 20.9354C5.85797 21.0647 5.94886 21.1752 6.06546 21.2529C6.18207 21.3307 6.31917 21.3722 6.45942 21.3722C6.59966 21.3722 6.73676 21.3307 6.85337 21.2529C6.96998 21.1752 7.06086 21.0647 7.11452 20.9354C7.16818 20.8061 7.18222 20.6639 7.15485 20.5266C7.12747 20.3894 7.05993 20.2634 6.96075 20.1644C6.82556 20.036 6.64606 19.9644 6.45942 19.9644C6.27277 19.9644 6.09327 20.036 5.95809 20.1644ZM3.22708 17.8845C3.12059 17.9908 3.04808 18.1262 3.01872 18.2737C2.98936 18.4211 3.00446 18.5738 3.06213 18.7127C3.11979 18.8515 3.21741 18.9702 3.34267 19.0537C3.46792 19.1372 3.61517 19.1817 3.7658 19.1817C3.91643 19.1817 4.06369 19.1372 4.18894 19.0537C4.31419 18.9702 4.41182 18.8515 4.46948 18.7127C4.52714 18.5738 4.54224 18.4211 4.51288 18.2737C4.48352 18.1262 4.41101 17.9908 4.30452 17.8845C4.15912 17.7468 3.96629 17.67 3.7658 17.67C3.56532 17.67 3.37248 17.7468 3.22708 17.8845ZM1.4558 14.8461C1.34491 14.9563 1.26931 15.0969 1.23855 15.25C1.2078 15.4031 1.22329 15.5619 1.28305 15.7063C1.34282 15.8506 1.44417 15.974 1.57428 16.0608C1.70438 16.1476 1.85739 16.194 2.01391 16.194C2.17044 16.194 2.32345 16.1476 2.45355 16.0608C2.58366 15.974 2.68501 15.8506 2.74478 15.7063C2.80454 15.5619 2.82003 15.4031 2.78927 15.25C2.75852 15.0969 2.68291 14.9563 2.57203 14.8461C2.42193 14.7023 2.22195 14.6221 2.01391 14.6221C1.80588 14.6221 1.6059 14.7023 1.4558 14.8461ZM0.764741 11.219C0.666424 11.3169 0.593835 11.4375 0.553405 11.5702C0.512976 11.7028 0.505953 11.8433 0.53296 11.9793C0.559967 12.1152 0.620169 12.2425 0.708234 12.3497C0.796299 12.4569 0.909508 12.5408 1.03783 12.5939C1.16615 12.6471 1.30563 12.6678 1.4439 12.6543C1.58218 12.6408 1.71498 12.5935 1.83055 12.5165C1.94611 12.4396 2.04087 12.3354 2.10644 12.2132C2.172 12.091 2.20634 11.9545 2.20641 11.8159C2.20641 11.5907 2.11778 11.3793 1.95852 11.2204C1.79825 11.0663 1.58444 10.9801 1.36191 10.9799C1.13937 10.9796 0.925371 11.0653 0.764741 11.219ZM4.29899 11.3157C4.2004 11.4146 4.13333 11.5404 4.1062 11.6773C4.07908 11.8141 4.09312 11.9559 4.14655 12.0849C4.19998 12.2138 4.29042 12.3241 4.4065 12.4018C4.52257 12.4796 4.65911 12.5214 4.79893 12.522C4.93906 12.5224 5.07617 12.4813 5.19281 12.4038C5.30945 12.3264 5.40035 12.216 5.45395 12.0868C5.50755 11.9576 5.52143 11.8155 5.49381 11.6784C5.4662 11.5413 5.39834 11.4156 5.29888 11.3171C5.1645 11.1884 4.9855 11.1164 4.79921 11.1161C4.61292 11.1158 4.43372 11.1873 4.29899 11.3157ZM5.19362 7.83368C5.08673 7.94194 5.01414 8.07921 4.98493 8.22836C4.95573 8.37751 4.97118 8.53194 5.02938 8.67238C5.08757 8.81282 5.18593 8.93305 5.31217 9.01808C5.43842 9.10311 5.58696 9.14916 5.73927 9.15049C5.84077 9.1509 5.94132 9.13106 6.03502 9.09215C6.12873 9.05323 6.21369 8.99602 6.28492 8.92389C6.35702 8.8526 6.41422 8.76775 6.45322 8.67425C6.49221 8.58075 6.51222 8.48046 6.5121 8.37919C6.51197 8.27792 6.4917 8.17768 6.45247 8.08428C6.41323 7.99087 6.35581 7.90617 6.28353 7.83507C6.13688 7.69509 5.94182 7.61684 5.73886 7.61658C5.5359 7.61633 5.34064 7.69408 5.19362 7.83368ZM7.57564 5.36588C7.45926 5.48258 7.38008 5.63102 7.34805 5.79252C7.31603 5.95401 7.33259 6.12135 7.39565 6.27348C7.45871 6.42561 7.56546 6.55573 7.70246 6.64748C7.83946 6.73922 8.0006 6.78849 8.1656 6.78908C8.38719 6.78908 8.59769 6.70203 8.75557 6.54451C8.83378 6.46763 8.8959 6.376 8.9383 6.27494C8.98069 6.17389 9.00253 6.06544 9.00253 5.95589C9.00253 5.84634 8.98069 5.73788 8.9383 5.63683C8.8959 5.53578 8.83378 5.44414 8.75557 5.36726C8.59679 5.21571 8.38561 5.13101 8.16588 5.13075C7.94615 5.13049 7.73477 5.2147 7.57564 5.36588ZM10.9922 4.38622C10.8394 4.55444 10.7573 4.77483 10.7629 5.00176C10.7685 5.2287 10.8614 5.44479 11.0223 5.60531C11.1831 5.76582 11.3997 5.85846 11.6272 5.86405C11.8546 5.86964 12.0755 5.78774 12.2441 5.63532C12.3269 5.55361 12.3926 5.45629 12.4375 5.34903C12.4823 5.24177 12.5053 5.12669 12.5052 5.01048C12.505 4.89427 12.4818 4.77925 12.4367 4.67208C12.3917 4.56492 12.3257 4.46775 12.2427 4.38622C12.0746 4.22518 11.8505 4.13526 11.6174 4.13526C11.3844 4.13526 11.1603 4.22518 10.9922 4.38622ZM14.4212 5.2429C14.2883 5.37522 14.1978 5.54386 14.1611 5.72751C14.1244 5.91115 14.1431 6.10153 14.2149 6.27456C14.2866 6.4476 14.4082 6.59551 14.5643 6.69957C14.7203 6.80364 14.9038 6.85919 15.0914 6.85919C15.2791 6.85919 15.4626 6.80364 15.6186 6.69957C15.7747 6.59551 15.8963 6.4476 15.968 6.27456C16.0398 6.10153 16.0585 5.91115 16.0218 5.72751C15.985 5.54386 15.8945 5.37522 15.7617 5.2429C15.5813 5.07061 15.3412 4.97445 15.0914 4.97445C14.8417 4.97445 14.6016 5.07061 14.4212 5.2429ZM16.8655 7.70933C16.7327 7.84164 16.6422 8.01029 16.6055 8.19393C16.5687 8.37757 16.5874 8.56796 16.6592 8.74099C16.731 8.91402 16.8526 9.06193 17.0086 9.166C17.1646 9.27006 17.3481 9.32561 17.5358 9.32561C17.7235 9.32561 17.9069 9.27006 18.063 9.166C18.219 9.06193 18.3406 8.91402 18.4124 8.74099C18.4841 8.56796 18.5028 8.37757 18.4661 8.19393C18.4294 8.01029 18.3389 7.84164 18.2061 7.70933C18.0256 7.53704 17.7855 7.44087 17.5358 7.44087C17.286 7.44087 17.0459 7.53704 16.8655 7.70933ZM7.7806 11.3889C7.6961 11.4735 7.63863 11.5812 7.61547 11.6984C7.59231 11.8155 7.60449 11.9369 7.65047 12.0472C7.69645 12.1574 7.77418 12.2516 7.87381 12.3178C7.97344 12.384 8.09051 12.4192 8.21021 12.419C8.3299 12.4188 8.44686 12.3832 8.54627 12.3167C8.64569 12.2502 8.72311 12.1558 8.76873 12.0454C8.81436 11.935 8.82615 11.8135 8.8026 11.6964C8.77906 11.5794 8.72124 11.4719 8.63647 11.3875C8.52076 11.2784 8.36749 11.2177 8.20826 11.218C8.04902 11.2182 7.89595 11.2794 7.7806 11.3889ZM5.26841 14.8143C5.17528 14.907 5.11181 15.0252 5.08603 15.1539C5.06025 15.2826 5.07332 15.416 5.12359 15.5373C5.17385 15.6586 5.25905 15.7622 5.36841 15.8352C5.47776 15.9081 5.60634 15.9471 5.73789 15.9471C5.86943 15.9471 5.99802 15.9081 6.10737 15.8352C6.21672 15.7622 6.30192 15.6586 6.35219 15.5373C6.40245 15.416 6.41552 15.2826 6.38974 15.1539C6.36396 15.0252 6.30049 14.907 6.20737 14.8143C6.08088 14.6938 5.91274 14.6266 5.73789 14.6266C5.56303 14.6266 5.3949 14.6938 5.26841 14.8143ZM7.77922 17.3014C7.69397 17.3858 7.63575 17.4936 7.61193 17.611C7.5881 17.7284 7.59976 17.8503 7.6454 17.9611C7.69105 18.0719 7.76865 18.1667 7.86835 18.2335C7.96805 18.3003 8.08538 18.3361 8.20547 18.3363C8.32556 18.3365 8.44301 18.3011 8.54293 18.2346C8.64285 18.1682 8.72075 18.0736 8.76675 17.9629C8.81276 17.8522 8.82481 17.7304 8.80137 17.6129C8.77793 17.4954 8.72005 17.3875 8.63508 17.3028C8.52038 17.192 8.36707 17.13 8.20743 17.1297C8.04779 17.1295 7.89428 17.191 7.77922 17.3014ZM11.2331 18.2162C11.1505 18.2984 11.0943 18.4033 11.0714 18.5175C11.0486 18.6317 11.0602 18.7501 11.1048 18.8577C11.1495 18.9654 11.2251 19.0573 11.3221 19.1221C11.4192 19.1868 11.5333 19.2213 11.65 19.2213C11.7667 19.2213 11.8808 19.1868 11.9778 19.1221C12.0749 19.0573 12.1505 18.9654 12.1951 18.8577C12.2398 18.7501 12.2514 18.6317 12.2286 18.5175C12.2057 18.4033 12.1494 18.2984 12.0668 18.2162C11.9545 18.1092 11.8052 18.0496 11.65 18.0496C11.4947 18.0496 11.3455 18.1092 11.2331 18.2162ZM9.42447 8.40987C9.33071 8.50313 9.2668 8.62204 9.24082 8.75156C9.21484 8.88107 9.22797 9.01537 9.27853 9.13744C9.3291 9.25951 9.41483 9.36386 9.52488 9.43729C9.63492 9.51071 9.76433 9.54991 9.89672 9.54991C10.0291 9.54991 10.1585 9.51071 10.2686 9.43729C10.3786 9.36386 10.4643 9.25951 10.5149 9.13744C10.5655 9.01537 10.5786 8.88107 10.5526 8.75156C10.5266 8.62204 10.4627 8.50313 10.369 8.40987C10.2417 8.28875 10.0726 8.22117 9.89672 8.22117C9.72084 8.22117 9.55172 8.28875 9.42447 8.40987ZM12.8548 8.38086C12.7561 8.47854 12.6887 8.60326 12.6611 8.73922C12.6335 8.87518 12.647 9.01626 12.6998 9.14457C12.7527 9.27288 12.8425 9.38265 12.9579 9.45996C13.0734 9.53727 13.2092 9.57864 13.3483 9.57884C13.4873 9.57903 13.6233 9.53804 13.7389 9.46105C13.8546 9.38406 13.9447 9.27454 13.9979 9.14638C14.0511 9.01822 14.065 8.87718 14.0378 8.74114C14.0106 8.60511 13.9435 8.48019 13.845 8.38224C13.712 8.25478 13.5347 8.18349 13.3502 8.18323C13.1657 8.18297 12.9883 8.25377 12.8548 8.38086ZM17.8571 11.2107C17.7371 11.3303 17.6554 11.4827 17.6222 11.6486C17.5891 11.8145 17.606 11.9865 17.6709 12.1429C17.7358 12.2992 17.8456 12.4328 17.9866 12.5269C18.1276 12.6209 18.2934 12.6711 18.463 12.6711C18.6325 12.6711 18.7983 12.6209 18.9393 12.5269C19.0803 12.4328 19.1902 12.2992 19.255 12.1429C19.3199 11.9865 19.3368 11.8145 19.3037 11.6486C19.2705 11.4827 19.1888 11.3303 19.0689 11.2107C18.9056 11.0557 18.689 10.9693 18.4637 10.9693C18.2384 10.9693 18.0217 11.0557 17.8585 11.2107H17.8571ZM14.6247 11.2107C14.5046 11.3302 14.4227 11.4826 14.3894 11.6486C14.3561 11.8146 14.3729 11.9867 14.4377 12.1431C14.5025 12.2996 14.6124 12.4333 14.7534 12.5274C14.8944 12.6215 15.0603 12.6717 15.2299 12.6717C15.3996 12.6717 15.5654 12.6215 15.7065 12.5274C15.8475 12.4333 15.9574 12.2996 16.0222 12.1431C16.087 11.9867 16.1038 11.8146 16.0705 11.6486C16.0372 11.4826 15.9553 11.3302 15.8351 11.2107C15.6719 11.0557 15.4552 10.9693 15.2299 10.9693C15.0046 10.9693 14.788 11.0557 14.6247 11.2107ZM9.5131 14.4053C9.43954 14.4789 9.38946 14.5726 9.3692 14.6746C9.34893 14.7766 9.35938 14.8822 9.39922 14.9783C9.43906 15.0743 9.50652 15.1565 9.59309 15.2143C9.67965 15.2722 9.78144 15.3032 9.88564 15.3034C10.0269 15.3034 10.1585 15.2482 10.2582 15.1487C10.3074 15.1 10.3465 15.042 10.3731 14.9782C10.3997 14.9143 10.4133 14.8458 10.4132 14.7767C10.4131 14.7075 10.3992 14.6391 10.3723 14.5753C10.3455 14.5116 10.3062 14.4538 10.2568 14.4053C10.1564 14.3102 10.0233 14.2572 9.88494 14.2572C9.74657 14.2572 9.61347 14.3102 9.5131 14.4053ZM1.37409 7.61261C1.24796 7.73812 1.16198 7.89814 1.12705 8.07243C1.09212 8.24672 1.10981 8.42743 1.17787 8.59168C1.24593 8.75594 1.36131 8.89635 1.50939 8.99514C1.65748 9.09394 1.83162 9.14668 2.00976 9.14668C2.1879 9.14668 2.36204 9.09394 2.51012 8.99514C2.65821 8.89635 2.77359 8.75594 2.84165 8.59168C2.90971 8.42743 2.92739 8.24672 2.89246 8.07243C2.85753 7.89814 2.77156 7.73812 2.64542 7.61261C2.47445 7.44895 2.24669 7.35756 2.00976 7.35756C1.77283 7.35756 1.54506 7.44895 1.37409 7.61261ZM3.11767 4.56032C2.95472 4.74362 2.86804 4.98207 2.87533 5.22698C2.88261 5.47189 2.98332 5.70479 3.15687 5.87813C3.33043 6.05147 3.56376 6.15218 3.80921 6.15969C4.05467 6.16721 4.29375 6.08097 4.47764 5.91858C4.56733 5.82971 4.63851 5.72401 4.68708 5.60757C4.73566 5.49113 4.76067 5.36626 4.76067 5.24014C4.76067 5.11402 4.73566 4.98915 4.68708 4.87271C4.63851 4.75627 4.56733 4.65057 4.47764 4.5617C4.2948 4.38669 4.0513 4.28886 3.79793 4.2886C3.54456 4.28835 3.30087 4.38568 3.11767 4.56032ZM5.76005 2.28458C5.58731 2.47392 5.49426 2.72236 5.50023 2.97832C5.50619 3.23429 5.6107 3.47815 5.79207 3.65928C5.97344 3.84042 6.21774 3.94493 6.47429 3.95113C6.73083 3.95733 6.97992 3.86474 7.16987 3.69258C7.26307 3.60058 7.33707 3.49105 7.38757 3.37032C7.43807 3.2496 7.46407 3.12008 7.46407 2.98927C7.46407 2.85845 7.43807 2.72894 7.38757 2.60822C7.33707 2.48749 7.26307 2.37796 7.16987 2.28596C6.98032 2.10453 6.7279 2.00312 6.46523 2.00286C6.20257 2.0026 5.94995 2.10352 5.76005 2.28458ZM9.04778 1.00784C8.86469 1.20788 8.76592 1.47063 8.77202 1.74146C8.77811 2.01229 8.88859 2.27035 9.08049 2.462C9.27239 2.65364 9.53094 2.76411 9.80238 2.77044C10.0738 2.77677 10.3373 2.67847 10.5379 2.49598C10.6361 2.3986 10.714 2.28276 10.767 2.15516C10.82 2.02755 10.8471 1.89073 10.8468 1.7526C10.8468 1.47211 10.736 1.20681 10.5379 1.00922C10.3374 0.817806 10.0706 0.710855 9.79313 0.710597C9.51561 0.71034 9.24866 0.816797 9.04778 1.00784ZM12.7025 0.981586C12.5503 1.13412 12.4469 1.32823 12.4052 1.53939C12.3636 1.75055 12.3856 1.9693 12.4684 2.168C12.5513 2.3667 12.6913 2.53644 12.8708 2.65578C13.0503 2.77512 13.2612 2.83871 13.4769 2.83852C13.6926 2.83833 13.9035 2.77436 14.0827 2.65469C14.262 2.53503 14.4018 2.36504 14.4843 2.16619C14.5668 1.96735 14.5884 1.74856 14.5463 1.53748C14.5043 1.32639 14.4005 1.13247 14.248 0.980205C14.0394 0.782694 13.7626 0.672705 13.475 0.672962C13.1874 0.673219 12.9108 0.783703 12.7025 0.981586ZM15.975 2.17818C15.8113 2.34091 15.6997 2.54846 15.6543 2.77452C15.6089 3.00059 15.6318 3.23502 15.72 3.44811C15.8083 3.6612 15.9579 3.84337 16.15 3.97155C16.342 4.09973 16.5679 4.16815 16.799 4.16815C17.0301 4.16815 17.256 4.09973 17.4481 3.97155C17.6402 3.84337 17.7898 3.6612 17.878 3.44811C17.9663 3.23502 17.9891 3.00059 17.9437 2.77452C17.8983 2.54846 17.7867 2.34091 17.623 2.17818C17.4011 1.96652 17.106 1.8484 16.799 1.8484C16.492 1.8484 16.1969 1.96652 15.975 2.17818ZM18.6243 4.35997C18.4544 4.52924 18.3387 4.745 18.2918 4.97993C18.2449 5.21487 18.2689 5.45841 18.3608 5.67972C18.4527 5.90103 18.6083 6.09016 18.808 6.22316C19.0077 6.35616 19.2424 6.42705 19.4825 6.42685C19.7226 6.42666 19.9573 6.35539 20.1567 6.22207C20.3562 6.08875 20.5116 5.89937 20.6031 5.67791C20.6946 5.45645 20.7182 5.21287 20.6709 4.97801C20.6237 4.74316 20.5076 4.52758 20.3374 4.35858C20.1061 4.13969 19.7994 4.01779 19.4806 4.01805C19.1618 4.0183 18.8553 4.1407 18.6243 4.35997ZM20.3693 7.38047C20.1926 7.55792 20.0724 7.78354 20.0239 8.02895C19.9753 8.27437 20.0006 8.52861 20.0965 8.75973C20.1925 8.99084 20.3547 9.1885 20.5629 9.32786C20.7711 9.46721 21.016 9.54203 21.2667 9.54291C21.606 9.54291 21.9245 9.41164 22.1641 9.17122C22.2822 9.05388 22.3759 8.91433 22.4396 8.76063C22.5033 8.60694 22.5358 8.44216 22.5352 8.27585C22.5352 7.93732 22.4037 7.61951 22.1627 7.38047C21.9211 7.15046 21.5999 7.02214 21.266 7.02214C20.932 7.02214 20.6109 7.15046 20.3693 7.38047ZM20.9648 10.8749C20.7793 11.0604 20.653 11.2966 20.6019 11.5536C20.5508 11.8106 20.5771 12.077 20.6776 12.3191C20.778 12.5612 20.9481 12.7682 21.1663 12.9139C21.3845 13.0597 21.6411 13.1378 21.9037 13.1382C22.2583 13.1382 22.592 13 22.8427 12.75C22.9664 12.6272 23.0645 12.4812 23.1313 12.3204C23.1981 12.1596 23.2323 11.9872 23.2318 11.8131C23.2318 11.4594 23.0934 11.1264 22.8427 10.8763C22.5902 10.6346 22.2539 10.4995 21.904 10.4992C21.5541 10.499 21.2176 10.6336 20.9648 10.8749ZM13.0321 21.4343C12.9416 21.5245 12.8799 21.6394 12.8549 21.7646C12.8298 21.8898 12.8426 22.0196 12.8915 22.1376C12.9405 22.2555 13.0233 22.3564 13.1297 22.4273C13.2361 22.4982 13.3612 22.5361 13.4891 22.5361C13.6171 22.5361 13.7422 22.4982 13.8485 22.4273C13.9549 22.3564 14.0378 22.2555 14.0867 22.1376C14.1356 22.0196 14.1484 21.8898 14.1234 21.7646C14.0984 21.6394 14.0367 21.5245 13.9461 21.4343C13.823 21.317 13.6593 21.2516 13.4891 21.2516C13.3189 21.2516 13.1552 21.317 13.0321 21.4343ZM24.2857 1.77471C24.3763 1.6845 24.438 1.56953 24.463 1.44433C24.488 1.31914 24.4753 1.18935 24.4263 1.07139C24.3774 0.953431 24.2945 0.852602 24.1881 0.78166C24.0818 0.710718 23.9567 0.672852 23.8287 0.672852C23.7008 0.672852 23.5757 0.710718 23.4693 0.78166C23.363 0.852602 23.2801 0.953431 23.2311 1.07139C23.1822 1.18935 23.1694 1.31914 23.1945 1.44433C23.2195 1.56953 23.2812 1.6845 23.3717 1.77471C23.4949 1.89195 23.6585 1.95737 23.8287 1.95737C23.9989 1.95737 24.1626 1.89195 24.2857 1.77471ZM27.6635 3.06941C27.7627 2.97048 27.8302 2.84442 27.8576 2.70718C27.885 2.56995 27.8709 2.42769 27.8173 2.29841C27.7636 2.16913 27.6727 2.05864 27.5561 1.98089C27.4395 1.90315 27.3024 1.86165 27.1622 1.86165C27.0219 1.86165 26.8848 1.90315 26.7682 1.98089C26.6516 2.05864 26.5607 2.16913 26.5071 2.29841C26.4534 2.42769 26.4394 2.56995 26.4667 2.70718C26.4941 2.84442 26.5617 2.97048 26.6608 3.06941C26.796 3.19782 26.9755 3.26944 27.1622 3.26944C27.3488 3.26944 27.5283 3.19782 27.6635 3.06941ZM30.2449 5.13789C30.3514 5.03159 30.4239 4.89618 30.4533 4.74877C30.4827 4.60136 30.4675 4.44858 30.4099 4.30973C30.3522 4.17089 30.2546 4.05222 30.1293 3.96873C30.0041 3.88524 29.8568 3.84068 29.7062 3.84068C29.5556 3.84068 29.4083 3.88524 29.2831 3.96873C29.1578 4.05222 29.0602 4.17089 29.0025 4.30973C28.9449 4.44858 28.9298 4.60136 28.9591 4.74877C28.9885 4.89618 29.061 5.03159 29.1675 5.13789C29.3126 5.27624 29.5055 5.35345 29.7062 5.35345C29.9069 5.35345 30.0999 5.27624 30.2449 5.13789ZM32.4067 8.94323C32.5176 8.83301 32.5932 8.69243 32.624 8.5393C32.6548 8.38618 32.6393 8.22739 32.5795 8.08305C32.5197 7.93871 32.4184 7.81531 32.2883 7.72849C32.1582 7.64166 32.0052 7.59531 31.8486 7.59531C31.6921 7.59531 31.5391 7.64166 31.409 7.72849C31.2789 7.81531 31.1775 7.93871 31.1178 8.08305C31.058 8.22739 31.0425 8.38618 31.0733 8.5393C31.104 8.69243 31.1796 8.83301 31.2905 8.94323C31.4409 9.08632 31.6408 9.16615 31.8486 9.16615C32.0565 9.16615 32.2563 9.08632 32.4067 8.94323ZM32.8555 12.4183C32.9538 12.3204 33.0264 12.1998 33.0668 12.0671C33.1072 11.9345 33.1142 11.794 33.0872 11.658C33.0602 11.5221 33 11.3948 32.912 11.2876C32.8239 11.1804 32.7107 11.0965 32.5824 11.0434C32.454 10.9902 32.3146 10.9695 32.1763 10.983C32.038 10.9965 31.9052 11.0438 31.7896 11.1208C31.6741 11.1977 31.5793 11.3019 31.5138 11.4241C31.4482 11.5463 31.4139 11.6828 31.4138 11.8214C31.4138 12.0466 31.5024 12.258 31.6617 12.417C31.8219 12.571 32.0357 12.6572 32.2583 12.6574C32.4808 12.6577 32.6948 12.572 32.8555 12.4183ZM29.3212 12.3216C29.4198 12.2227 29.4869 12.0969 29.514 11.96C29.5411 11.8232 29.5271 11.6814 29.4736 11.5524C29.4202 11.4235 29.3298 11.3133 29.2137 11.2355C29.0976 11.1577 28.9611 11.1159 28.8213 11.1153C28.6811 11.1149 28.544 11.156 28.4274 11.2335C28.3107 11.3109 28.2198 11.4213 28.1662 11.5505C28.1126 11.6797 28.0988 11.8218 28.1264 11.9589C28.154 12.096 28.2219 12.2217 28.3213 12.3202C28.4557 12.449 28.6347 12.521 28.821 12.5212C29.0073 12.5215 29.1865 12.45 29.3212 12.3216ZM28.428 15.4001C28.5349 15.2919 28.6074 15.1546 28.6366 15.0055C28.6659 14.8563 28.6504 14.7019 28.5922 14.5615C28.534 14.421 28.4356 14.3008 28.3094 14.2158C28.1832 14.1307 28.0346 14.0847 27.8823 14.0833C27.7808 14.0829 27.6803 14.1028 27.5866 14.1417C27.4929 14.1806 27.4079 14.2378 27.3367 14.3099C27.2646 14.3812 27.2074 14.4661 27.1684 14.5596C27.1294 14.6531 27.1094 14.7534 27.1095 14.8546C27.1096 14.9559 27.1299 15.0562 27.1691 15.1496C27.2083 15.243 27.2658 15.3277 27.338 15.3988C27.4847 15.5387 27.6798 15.617 27.8827 15.6172C28.0857 15.6175 28.2809 15.5398 28.428 15.4001ZM26.0459 17.868C26.1623 17.7512 26.2415 17.6028 26.2735 17.4413C26.3056 17.2798 26.289 17.1125 26.2259 16.9604C26.1629 16.8082 26.0561 16.6781 25.9191 16.5864C25.7821 16.4946 25.621 16.4453 25.456 16.4448C25.2344 16.4448 25.0239 16.5318 24.866 16.6893C24.7878 16.7662 24.7257 16.8578 24.6833 16.9589C24.6409 17.0599 24.6191 17.1684 24.6191 17.2779C24.6191 17.3875 24.6409 17.496 24.6833 17.597C24.7257 17.6981 24.7878 17.7897 24.866 17.8666C25.0245 18.0188 25.2358 18.1039 25.4557 18.1041C25.6756 18.1044 25.8871 18.0198 26.0459 17.868ZM22.628 18.849C22.7808 18.6808 22.8629 18.4604 22.8573 18.2335C22.8517 18.0065 22.7588 17.7904 22.5979 17.6299C22.4371 17.4694 22.2205 17.3768 21.993 17.3712C21.7656 17.3656 21.5447 17.4475 21.3761 17.5999C21.2933 17.6816 21.2275 17.7789 21.1827 17.8862C21.1379 17.9934 21.1149 18.1085 21.115 18.2247C21.1152 18.3409 21.1384 18.456 21.1835 18.5631C21.2285 18.6703 21.2945 18.7675 21.3775 18.849C21.5459 19.0094 21.7699 19.0989 22.0027 19.0989C22.2356 19.0989 22.4596 19.0094 22.628 18.849ZM19.2004 17.9909C19.3332 17.8586 19.4237 17.69 19.4604 17.5063C19.4972 17.3227 19.4785 17.1323 19.4067 16.9593C19.3349 16.7862 19.2134 16.6383 19.0573 16.5343C18.9013 16.4302 18.7178 16.3746 18.5301 16.3746C18.3424 16.3746 18.159 16.4302 18.0029 16.5343C17.8469 16.6383 17.7253 16.7862 17.6536 16.9593C17.5818 17.1323 17.5631 17.3227 17.5998 17.5063C17.6365 17.69 17.727 17.8586 17.8598 17.9909C18.0403 18.1632 18.2804 18.2594 18.5301 18.2594C18.7799 18.2594 19.02 18.1632 19.2004 17.9909ZM16.7561 15.8713C16.8889 15.739 16.9794 15.5704 17.0161 15.3867C17.0528 15.2031 17.0341 15.0127 16.9624 14.8397C16.8906 14.6666 16.769 14.5187 16.613 14.4147C16.457 14.3106 16.2735 14.255 16.0858 14.255C15.8981 14.255 15.7146 14.3106 15.5586 14.4147C15.4026 14.5187 15.281 14.6666 15.2092 14.8397C15.1375 15.0127 15.1188 15.2031 15.1555 15.3867C15.1922 15.5704 15.2827 15.739 15.4155 15.8713C15.5959 16.0436 15.8361 16.1398 16.0858 16.1398C16.3355 16.1398 16.5757 16.0436 16.7561 15.8713ZM25.841 12.2484C25.9255 12.1638 25.9829 12.0561 26.0061 11.9389C26.0293 11.8218 26.0171 11.7004 25.9711 11.5901C25.9251 11.4799 25.8474 11.3857 25.7478 11.3195C25.6481 11.2533 25.5311 11.2181 25.4114 11.2183C25.2917 11.2185 25.1747 11.2541 25.0753 11.3206C24.9759 11.3871 24.8985 11.4815 24.8528 11.5919C24.8072 11.7023 24.7954 11.8238 24.819 11.9409C24.8425 12.058 24.9003 12.1655 24.9851 12.2498C25.1008 12.3589 25.2541 12.4196 25.4133 12.4194C25.5726 12.4191 25.7256 12.3579 25.841 12.2484ZM28.3532 8.41955C28.4463 8.32686 28.5098 8.20868 28.5355 8.07998C28.5613 7.95128 28.5483 7.81784 28.498 7.69656C28.4477 7.57527 28.3625 7.47159 28.2532 7.39865C28.1438 7.3257 28.0152 7.28676 27.8837 7.28676C27.7521 7.28676 27.6236 7.3257 27.5142 7.39865C27.4049 7.47159 27.3197 7.57527 27.2694 7.69656C27.2191 7.81784 27.2061 7.95128 27.2318 8.07998C27.2576 8.20868 27.3211 8.32686 27.4142 8.41955C27.5405 8.54031 27.7087 8.60773 27.8837 8.60773C28.0586 8.60773 28.2268 8.54031 28.3532 8.41955ZM25.8424 5.93378C25.9276 5.84939 25.9858 5.74165 26.0097 5.62421C26.0335 5.50678 26.0218 5.38493 25.9762 5.27411C25.9305 5.16328 25.8529 5.06847 25.7532 5.00169C25.6535 4.9349 25.5362 4.89915 25.4161 4.89895C25.296 4.89876 25.1786 4.93414 25.0787 5.0006C24.9787 5.06706 24.9008 5.16162 24.8548 5.2723C24.8088 5.38297 24.7968 5.50478 24.8202 5.62229C24.8437 5.73981 24.9015 5.84773 24.9865 5.9324C25.1015 6.04255 25.2547 6.10417 25.4142 6.10443C25.5736 6.10468 25.727 6.04356 25.8424 5.93378ZM22.3871 5.01768C22.4697 4.93539 22.5259 4.83051 22.5488 4.71631C22.5716 4.6021 22.56 4.4837 22.5153 4.37609C22.4707 4.26848 22.3951 4.1765 22.2981 4.11178C22.201 4.04706 22.0869 4.01252 21.9702 4.01252C21.8535 4.01252 21.7394 4.04706 21.6423 4.11178C21.5453 4.1765 21.4697 4.26848 21.4251 4.37609C21.3804 4.4837 21.3688 4.6021 21.3916 4.71631C21.4145 4.83051 21.4708 4.93539 21.5534 5.01768C21.6657 5.12461 21.815 5.18428 21.9702 5.18428C22.1255 5.18428 22.2747 5.12461 22.3871 5.01768ZM24.1957 14.824C24.2895 14.7307 24.3534 14.6118 24.3794 14.4823C24.4054 14.3528 24.3922 14.2185 24.3417 14.0964C24.2911 13.9743 24.2054 13.87 24.0953 13.7965C23.9853 13.7231 23.8559 13.6839 23.7235 13.6839C23.5911 13.6839 23.4617 13.7231 23.3516 13.7965C23.2416 13.87 23.1559 13.9743 23.1053 14.0964C23.0547 14.2185 23.0416 14.3528 23.0676 14.4823C23.0936 14.6118 23.1575 14.7307 23.2512 14.824C23.3785 14.9451 23.5476 15.0127 23.7235 15.0127C23.8994 15.0127 24.0685 14.9451 24.1957 14.824ZM20.7667 14.853C20.8655 14.7553 20.9329 14.6306 20.9605 14.4946C20.9881 14.3587 20.9746 14.2176 20.9218 14.0893C20.8689 13.961 20.7791 13.8512 20.6636 13.7739C20.5482 13.6966 20.4123 13.6552 20.2733 13.655C20.1343 13.6548 19.9983 13.6958 19.8827 13.7728C19.767 13.8498 19.6768 13.9593 19.6236 14.0875C19.5704 14.2156 19.5566 14.3567 19.5838 14.4927C19.611 14.6287 19.6781 14.7536 19.7765 14.8516C19.9096 14.9791 20.0869 15.0503 20.2714 15.0506C20.4558 15.0509 20.6333 14.9801 20.7667 14.853ZM24.1071 8.82855C24.1807 8.75492 24.2307 8.66122 24.251 8.55925C24.2713 8.45728 24.2608 8.3516 24.221 8.25554C24.1811 8.15949 24.1137 8.07735 24.0271 8.01949C23.9405 7.96163 23.8388 7.93063 23.7346 7.93041C23.5933 7.93041 23.4617 7.98568 23.362 8.08516C23.3126 8.13374 23.2734 8.19166 23.2467 8.25553C23.22 8.3194 23.2063 8.38794 23.2064 8.45714C23.2065 8.52635 23.2205 8.59484 23.2474 8.65861C23.2744 8.72238 23.3138 8.78015 23.3634 8.82855C23.4634 8.92423 23.5967 8.97765 23.7352 8.97765C23.8738 8.97765 24.0071 8.92423 24.1071 8.82855ZM32.2475 15.6212C32.3736 15.4957 32.4596 15.3357 32.4945 15.1614C32.5295 14.9871 32.5118 14.8064 32.4437 14.6422C32.3756 14.4779 32.2603 14.3375 32.1122 14.2387C31.9641 14.1399 31.79 14.0872 31.6118 14.0872C31.4337 14.0872 31.2595 14.1399 31.1115 14.2387C30.9634 14.3375 30.848 14.4779 30.7799 14.6422C30.7119 14.8064 30.6942 14.9871 30.7291 15.1614C30.764 15.3357 30.85 15.4957 30.9762 15.6212C31.1471 15.7849 31.3749 15.8763 31.6118 15.8763C31.8488 15.8763 32.0765 15.7849 32.2475 15.6212ZM30.5039 18.6735C30.6669 18.4902 30.7535 18.2518 30.7463 18.0069C30.739 17.7619 30.6383 17.529 30.4647 17.3557C30.2911 17.1824 30.0578 17.0817 29.8124 17.0741C29.5669 17.0666 29.3278 17.1529 29.1439 17.3153C29.0543 17.4041 28.9831 17.5098 28.9345 17.6263C28.8859 17.7427 28.8609 17.8676 28.8609 17.9937C28.8609 18.1198 28.8859 18.2447 28.9345 18.3611C28.9831 18.4776 29.0543 18.5833 29.1439 18.6721C29.3268 18.8471 29.5703 18.945 29.8236 18.9452C30.077 18.9455 30.3207 18.8482 30.5039 18.6735ZM27.8615 20.9493C28.0343 20.7599 28.1273 20.5115 28.1214 20.2555C28.1154 19.9995 28.0109 19.7557 27.8295 19.5746C27.6481 19.3934 27.4038 19.2889 27.1473 19.2827C26.8907 19.2765 26.6417 19.3691 26.4517 19.5413C26.3585 19.6333 26.2845 19.7428 26.234 19.8635C26.1835 19.9842 26.1575 20.1138 26.1575 20.2446C26.1575 20.3754 26.1835 20.5049 26.234 20.6256C26.2845 20.7463 26.3585 20.8559 26.4517 20.9479C26.6409 21.1299 26.8935 21.2318 27.1563 21.232C27.4192 21.2323 27.672 21.1309 27.8615 20.9493ZM24.5724 22.226C24.7555 22.026 24.8543 21.7632 24.8482 21.4924C24.8421 21.2215 24.7316 20.9635 24.5397 20.7718C24.3478 20.5802 24.0893 20.4697 23.8178 20.4634C23.5464 20.4571 23.2829 20.5554 23.0823 20.7378C22.9841 20.8352 22.9062 20.9511 22.8532 21.0787C22.8002 21.2063 22.7731 21.3431 22.7734 21.4812C22.7734 21.7617 22.8828 22.027 23.0823 22.2246C23.2828 22.416 23.5495 22.523 23.8271 22.5232C24.1046 22.5235 24.3715 22.417 24.5724 22.226ZM20.9191 22.2522C21.0712 22.0997 21.1747 21.9056 21.2164 21.6944C21.258 21.4833 21.236 21.2645 21.1532 21.0658C21.0703 20.8671 20.9303 20.6974 20.7508 20.5781C20.5713 20.4587 20.3603 20.3951 20.1446 20.3953C19.9289 20.3955 19.7181 20.4595 19.5388 20.5791C19.3595 20.6988 19.2198 20.8688 19.1373 21.0676C19.0548 21.2665 19.0332 21.4853 19.0752 21.6964C19.1173 21.9074 19.2211 22.1014 19.3735 22.2536C19.5822 22.4511 19.8589 22.5611 20.1466 22.5609C20.4342 22.5606 20.7108 22.4501 20.9191 22.2522ZM17.7671 21.2201C17.9308 21.0573 18.0424 20.8498 18.0878 20.6237C18.1332 20.3977 18.1103 20.1632 18.022 19.9502C17.9338 19.7371 17.7842 19.5549 17.5921 19.4267C17.4 19.2985 17.1741 19.2301 16.943 19.2301C16.712 19.2301 16.4861 19.2985 16.294 19.4267C16.1019 19.5549 15.9523 19.7371 15.864 19.9502C15.7758 20.1632 15.7529 20.3977 15.7983 20.6237C15.8437 20.8498 15.9553 21.0573 16.119 21.2201C16.3409 21.4317 16.6361 21.5499 16.943 21.5499C17.25 21.5499 17.5452 21.4317 17.7671 21.2201ZM15.1191 19.4128C15.289 19.2435 15.4048 19.0277 15.4517 18.7928C15.4986 18.5578 15.4746 18.3143 15.3827 18.093C15.2908 17.8717 15.1351 17.6826 14.9355 17.5496C14.7358 17.4166 14.501 17.3457 14.2609 17.3459C14.0208 17.3461 13.7862 17.4173 13.5867 17.5506C13.3872 17.684 13.2319 17.8734 13.1404 18.0948C13.0488 18.3163 13.0252 18.5598 13.0725 18.7947C13.1198 19.0296 13.2359 19.2451 13.406 19.4141C13.637 19.6336 13.9439 19.756 14.2629 19.7557C14.5819 19.7555 14.8885 19.6326 15.1191 19.4128ZM13.2523 16.2057C13.429 16.0283 13.5492 15.8026 13.5977 15.5572C13.6462 15.3118 13.621 15.0576 13.525 14.8265C13.4291 14.5953 13.2669 14.3977 13.0587 14.2583C12.8505 14.119 12.6056 14.0442 12.3549 14.0433C12.0156 14.0433 11.6971 14.1745 11.4575 14.415C11.3393 14.5323 11.2457 14.6719 11.182 14.8255C11.1183 14.9792 11.0858 15.144 11.0863 15.3103C11.0863 15.6489 11.2179 15.9667 11.4589 16.2057C11.7005 16.4357 12.0216 16.564 12.3556 16.564C12.6896 16.564 13.0107 16.4357 13.2523 16.2057ZM12.6554 12.7624C12.8409 12.5769 12.9672 12.3407 13.0183 12.0837C13.0694 11.8267 13.043 11.5603 12.9426 11.3182C12.8422 11.0761 12.6721 10.8691 12.4539 10.7234C12.2357 10.5776 11.9791 10.4995 11.7165 10.4991C11.3619 10.4991 11.0282 10.6373 10.7775 10.8874C10.6538 11.0101 10.5557 11.1561 10.4889 11.3169C10.4221 11.4777 10.3879 11.6501 10.3884 11.8242C10.3884 12.1779 10.5268 12.5109 10.7775 12.761C11.03 13.0027 11.3663 13.1378 11.7162 13.1381C12.0661 13.1383 12.4026 13.0037 12.6554 12.7624ZM20.5895 1.79958C20.68 1.70937 20.7417 1.5944 20.7667 1.4692C20.7917 1.34401 20.779 1.21422 20.73 1.09626C20.6811 0.978302 20.5982 0.877473 20.4919 0.806531C20.3855 0.735589 20.2604 0.697723 20.1325 0.697723C20.0045 0.697723 19.8794 0.735589 19.7731 0.806531C19.6667 0.877473 19.5838 0.978302 19.5349 1.09626C19.4859 1.21422 19.4732 1.34401 19.4982 1.4692C19.5232 1.5944 19.5849 1.70937 19.6754 1.79958C19.7984 1.91714 19.9621 1.98277 20.1325 1.98277C20.3028 1.98277 20.4665 1.91714 20.5895 1.79958Z" fill="#1478C2"/>
</svg>
