<svg width="966" height="159" viewBox="0 0 966 159" fill="none" xmlns="http://www.w3.org/2000/svg">
<g clip-path="url(#clip0_35_7)">
<path d="M954.52 109.94C954.513 109.187 954.658 108.439 954.946 107.743C955.235 107.047 955.661 106.417 956.2 105.89C957.281 104.826 958.733 104.224 960.25 104.21C961.003 104.202 961.751 104.347 962.447 104.636C963.143 104.924 963.773 105.351 964.3 105.89C965.364 106.971 965.966 108.423 965.98 109.94C965.987 110.693 965.842 111.441 965.554 112.137C965.265 112.833 964.838 113.463 964.3 113.99C963.219 115.054 961.767 115.656 960.25 115.67C959.496 115.677 958.749 115.532 958.053 115.244C957.357 114.955 956.727 114.529 956.2 113.99C955.136 112.909 954.534 111.457 954.52 109.94ZM956.09 109.94C956.094 111.079 956.526 112.175 957.3 113.01C957.68 113.4 958.12 113.71 958.63 113.94C959.137 114.177 959.69 114.299 960.25 114.299C960.81 114.299 961.363 114.177 961.87 113.94C962.375 113.721 962.831 113.404 963.212 113.008C963.593 112.611 963.891 112.143 964.09 111.63C964.406 110.833 964.49 109.964 964.333 109.121C964.175 108.279 963.782 107.499 963.2 106.87C962.82 106.478 962.368 106.163 961.87 105.94C961.363 105.703 960.81 105.581 960.25 105.581C959.69 105.581 959.137 105.703 958.63 105.94C958.125 106.159 957.669 106.476 957.288 106.872C956.907 107.269 956.608 107.737 956.41 108.25C956.197 108.788 956.088 109.361 956.09 109.94ZM958.05 106.87H960.18L960.86 106.9C961.15 106.92 961.43 106.99 961.71 107.12C961.99 107.24 962.23 107.44 962.43 107.7C962.64 107.96 962.74 108.33 962.74 108.82C962.74 109.13 962.7 109.38 962.62 109.58C962.54 109.78 962.43 109.94 962.3 110.07C962.174 110.199 962.02 110.298 961.85 110.36C961.68 110.43 961.51 110.47 961.33 110.49L962.87 112.88H961.25L959.88 110.57H959.62V112.88H958.05V106.87ZM959.61 109.36H960.24L960.54 109.34C960.65 109.33 960.74 109.3 960.84 109.26C960.931 109.217 961.01 109.152 961.07 109.07C961.13 108.98 961.16 108.86 961.16 108.71C961.163 108.583 961.128 108.457 961.06 108.35C961.006 108.267 960.93 108.202 960.84 108.16C960.745 108.117 960.644 108.09 960.54 108.08L960.24 108.06H959.61V109.36ZM948.65 46.64V22.63H928.26V46.64H919.93V64.7H928.26V115.78H948.65V64.7H958.33V46.64H948.65ZM889.75 44.92C883.78 44.92 878.48 46.79 872.57 51.08V46.63H852.18V115.78H872.57V85.34C872.57 79.17 872.56 73.83 875.43 69.26C877.6 65.84 880.91 63.96 884.72 63.96C891.77 63.96 893.7 68.05 893.7 82.98V115.78H914.09V69.26C914.1 55.16 903.86 44.92 889.75 44.92Z" fill="#242424"/>
<path d="M830.7 12.09C824.45 12.09 819.36 16.98 819.36 22.99C819.36 29.68 824.45 35.12 830.71 35.12C836.97 35.12 842.06 30.03 842.06 23.77C842.06 17.33 836.96 12.09 830.71 12.09H830.7Z" fill="#1478C2"/>
<path d="M840.96 46.64H820.56V115.79H840.96V46.64ZM775.82 44.92C756.12 44.92 740.08 61.23 740.08 81.27C740.08 101.59 755.83 117.5 775.94 117.5C796.39 117.5 812.41 101.53 812.41 81.15C812.42 61.17 796 44.92 775.82 44.92ZM776.07 97.96C766.82 97.96 760.6 91.2 760.6 81.15C760.6 71.48 767.1 64.46 776.07 64.46C785.54 64.46 791.91 71.22 791.91 81.27C791.9 91.1 785.39 97.96 776.07 97.96ZM700.48 44.92C693.798 44.8428 687.295 47.0753 682.07 51.24V46.64H661.68V139.55H682.07V111.35C687.185 115.435 693.564 117.61 700.11 117.5C718.71 117.5 733.27 101.59 733.27 81.27C733.28 60.55 719.18 44.92 700.48 44.92ZM697.18 63.97C706.36 63.97 712.77 71.04 712.77 81.15C712.77 91.18 706.21 98.46 697.18 98.46C687.86 98.46 681.34 91.29 681.34 81.03C681.34 70.82 687.71 63.97 697.18 63.97ZM625.27 44.92C619.37 44.92 613.83 46.88 608.09 51.05V21.53H587.69V115.79H608.09V84.75C608.08 78.82 608.06 73.7 610.83 69.39C613.06 65.89 616.36 63.97 620.13 63.97C627.1 63.97 629.23 68.41 629.23 82.99V115.79H649.62V70.74C649.61 55.06 640.05 44.92 625.27 44.92ZM544.4 63.97C550.48 63.97 554.63 65.85 559.22 70.68L560.31 71.83L577.27 62.51L576 60.65C569.1 50.51 557.85 44.93 544.29 44.93C521.81 44.93 505.49 60.27 505.49 81.4C505.49 102.32 521.69 117.51 544.04 117.51C557.34 117.51 567.83 112.67 575.19 103.11L576.51 101.39L560.3 90.27L559.1 91.75C555.53 96.2 550.34 98.46 543.68 98.46C533.11 98.46 526.01 91.7 526.01 81.65C526 71.07 533.4 63.97 544.41 63.97H544.4ZM493.54 22.63H473.14V46.64H464.82V64.7H473.15V115.78H493.54V64.7H503.22V46.64H493.54V22.63ZM437.86 51.24C432.636 47.0731 426.132 44.8404 419.45 44.92C400.82 44.92 386.78 60.55 386.78 81.27C386.78 101.59 401.28 117.5 419.82 117.5C426.361 117.637 432.744 115.479 437.86 111.4V115.79H458.25V46.64H437.85V51.24H437.86ZM422.76 98.45C413.8 98.45 407.29 91.17 407.29 81.14C407.29 71.02 413.65 63.96 422.76 63.96C432.08 63.96 438.6 70.98 438.6 81.02C438.6 91.29 432.09 98.45 422.76 98.45ZM346.56 63.97C352.63 63.97 356.78 65.85 361.37 70.68L362.46 71.83L379.41 62.51L378.15 60.65C371.26 50.51 360 44.93 346.44 44.93C323.96 44.93 307.64 60.27 307.64 81.4C307.64 102.32 323.85 117.51 346.2 117.51C359.51 117.51 369.99 112.67 377.35 103.11L378.67 101.39L362.45 90.27L361.26 91.75C357.68 96.2 352.49 98.46 345.83 98.46C335.26 98.46 328.16 91.7 328.16 81.65C328.16 71.07 335.55 63.97 346.56 63.97Z" fill="#242424"/>
<path d="M63.76 150.45C63.1063 151.103 62.6609 151.935 62.4802 152.841C62.2995 153.747 62.3916 154.686 62.7449 155.54C63.0982 156.394 63.6967 157.123 64.4648 157.637C65.2329 158.15 66.1361 158.424 67.06 158.424C67.9839 158.424 68.887 158.15 69.6552 157.637C70.4233 157.123 71.0218 156.394 71.3751 155.54C71.7284 154.686 71.8205 153.747 71.6398 152.841C71.4591 151.935 71.0137 151.103 70.36 150.45C69.4697 149.604 68.2883 149.132 67.06 149.132C65.8317 149.132 64.6503 149.604 63.76 150.45ZM39.38 141.08C38.6638 141.796 38.1761 142.708 37.9785 143.702C37.7808 144.695 37.8821 145.724 38.2696 146.66C38.6571 147.595 39.3134 148.395 40.1554 148.958C40.9974 149.52 41.9873 149.821 43 149.821C44.0127 149.821 45.0026 149.52 45.8446 148.958C46.6866 148.395 47.3429 147.595 47.7304 146.66C48.1179 145.724 48.2192 144.695 48.0215 143.702C47.8239 142.708 47.3361 141.796 46.62 141.08C45.6439 140.151 44.3477 139.632 43 139.632C41.6522 139.632 40.3561 140.151 39.38 141.08ZM19.66 124.58C18.8911 125.349 18.3675 126.329 18.1555 127.396C17.9435 128.463 18.0525 129.569 18.4689 130.574C18.8853 131.578 19.5902 132.437 20.4946 133.041C21.399 133.646 22.4623 133.968 23.55 133.968C24.6377 133.968 25.7009 133.646 26.6054 133.041C27.5098 132.437 28.2147 131.578 28.6311 130.574C29.0474 129.569 29.1565 128.463 28.9445 127.396C28.7325 126.329 28.2089 125.349 27.44 124.58C26.3901 123.583 24.9977 123.028 23.55 123.028C22.1023 123.028 20.7099 123.583 19.66 124.58ZM6.87 102.59C6.0693 103.388 5.52334 104.405 5.30128 105.513C5.07923 106.622 5.19105 107.771 5.6226 108.815C6.05414 109.86 6.786 110.753 7.72546 111.381C8.66493 112.01 9.76975 112.345 10.9 112.345C12.0302 112.345 13.1351 112.01 14.0745 111.381C15.014 110.753 15.7458 109.86 16.1774 108.815C16.6089 107.771 16.7208 106.622 16.4987 105.513C16.2766 104.405 15.7307 103.388 14.93 102.59C13.8462 101.55 12.4022 100.969 10.9 100.969C9.3978 100.969 7.95379 101.55 6.87 102.59ZM1.88 76.34C1.17007 77.0488 0.645919 77.9218 0.353985 78.8816C0.0620511 79.8414 0.0113433 80.8584 0.206354 81.8425C0.401365 82.8265 0.836074 83.7473 1.47197 84.5233C2.10787 85.2992 2.92532 85.9063 3.85192 86.2908C4.77851 86.6753 5.78564 86.8254 6.78408 86.7277C7.78252 86.63 8.74146 86.2876 9.57593 85.7307C10.4104 85.1738 11.0947 84.4198 11.5681 83.5353C12.0415 82.6508 12.2895 81.6632 12.29 80.66C12.29 79.03 11.65 77.5 10.5 76.35C9.34271 75.2352 7.79889 74.6115 6.19201 74.6097C4.58512 74.6078 3.03987 75.2279 1.88 76.34ZM27.4 77.04C26.6881 77.756 26.2038 78.6664 26.008 79.6569C25.8121 80.6473 25.9135 81.6736 26.2993 82.6066C26.6851 83.5396 27.3381 84.3377 28.1763 84.9006C29.0145 85.4634 30.0004 85.7659 31.01 85.77C32.0218 85.7735 33.0118 85.4759 33.8541 84.9151C34.6963 84.3544 35.3527 83.5557 35.7397 82.6208C36.1268 81.6859 36.227 80.657 36.0276 79.665C35.8282 78.673 35.3382 77.7627 34.62 77.05C33.6497 76.1184 32.3572 75.5973 31.012 75.5955C29.6668 75.5936 28.3729 76.1111 27.4 77.04ZM33.86 51.84C33.0881 52.6235 32.564 53.6169 32.3531 54.6963C32.1422 55.7758 32.2538 56.8934 32.674 57.9098C33.0942 58.9262 33.8044 59.7963 34.716 60.4117C35.6276 61.027 36.7002 61.3603 37.8 61.37C38.5329 61.3729 39.2589 61.2294 39.9355 60.9477C40.6122 60.6661 41.2257 60.2521 41.74 59.73C42.2606 59.2141 42.6736 58.6 42.9552 57.9233C43.2368 57.2467 43.3813 56.5208 43.3804 55.7879C43.3795 55.055 43.2331 54.3295 42.9498 53.6536C42.6665 52.9776 42.2519 52.3646 41.73 51.85C40.671 50.8369 39.2625 50.2707 37.797 50.2688C36.3315 50.2669 34.9215 50.8296 33.86 51.84ZM51.06 33.98C50.2197 34.8246 49.6479 35.8989 49.4167 37.0677C49.1854 38.2364 49.305 39.4475 49.7603 40.5485C50.2157 41.6495 50.9865 42.5912 51.9758 43.2552C52.965 43.9191 54.1286 44.2757 55.32 44.28C56.92 44.28 58.44 43.65 59.58 42.51C60.1448 41.9536 60.5933 41.2904 60.8994 40.5591C61.2056 39.8277 61.3632 39.0428 61.3632 38.25C61.3632 37.4572 61.2056 36.6723 60.8994 35.9409C60.5933 35.2096 60.1448 34.5464 59.58 33.99C58.4335 32.8932 56.9086 32.2802 55.322 32.2783C53.7354 32.2765 52.209 32.8859 51.06 33.98ZM75.73 26.89C74.6269 28.1074 74.0342 29.7025 74.0746 31.3448C74.1151 32.9872 74.7855 34.5511 75.9472 35.7128C77.1089 36.8744 78.6728 37.5449 80.3152 37.5854C81.9575 37.6258 83.5526 37.0331 84.77 35.93C85.368 35.3386 85.8426 34.6343 86.1661 33.8581C86.4897 33.0818 86.6559 32.2489 86.6549 31.4079C86.654 30.5669 86.486 29.7344 86.1607 28.9588C85.8354 28.1833 85.3593 27.4801 84.76 26.89C83.5458 25.7245 81.928 25.0737 80.245 25.0737C78.562 25.0737 76.9442 25.7245 75.73 26.89ZM100.49 33.09C99.531 34.0476 98.8775 35.2681 98.6124 36.5972C98.3472 37.9262 98.4823 39.3041 99.0004 40.5563C99.5186 41.8086 100.397 42.8791 101.523 43.6322C102.65 44.3854 103.975 44.7874 105.33 44.7874C106.685 44.7874 108.01 44.3854 109.137 43.6322C110.263 42.8791 111.141 41.8086 111.66 40.5563C112.178 39.3041 112.313 37.9262 112.048 36.5972C111.782 35.2681 111.129 34.0476 110.17 33.09C108.867 31.8431 107.133 31.1471 105.33 31.1471C103.527 31.1471 101.793 31.8431 100.49 33.09ZM118.14 50.94C117.181 51.8976 116.528 53.1181 116.262 54.4472C115.997 55.7762 116.132 57.1541 116.65 58.4063C117.169 59.6586 118.047 60.7291 119.173 61.4822C120.3 62.2354 121.625 62.6374 122.98 62.6374C124.335 62.6374 125.66 62.2354 126.787 61.4822C127.913 60.7291 128.791 59.6586 129.31 58.4063C129.828 57.1541 129.963 55.7762 129.698 54.4472C129.432 53.1181 128.779 51.8976 127.82 50.94C126.517 49.6931 124.783 48.9971 122.98 48.9971C121.177 48.9971 119.443 49.6931 118.14 50.94ZM52.54 77.57C51.9298 78.1821 51.5149 78.9615 51.3476 79.8094C51.1803 80.6574 51.2683 81.5359 51.6003 82.3339C51.9324 83.1319 52.4936 83.8135 53.213 84.2925C53.9324 84.7716 54.7778 85.0265 55.6421 85.0251C56.5064 85.0237 57.3509 84.766 58.0687 84.2847C58.7866 83.8033 59.3456 83.1199 59.6751 82.3209C60.0045 81.5218 60.0896 80.643 59.9196 79.7956C59.7496 78.9481 59.3322 78.1702 58.72 77.56C57.8845 76.7701 56.7778 76.3307 55.628 76.3326C54.4782 76.3345 53.3729 76.7774 52.54 77.57ZM34.4 102.36C33.7275 103.031 33.2692 103.886 33.0831 104.818C32.8969 105.749 32.9913 106.715 33.3543 107.592C33.7172 108.47 34.3324 109.221 35.1221 109.748C35.9117 110.276 36.8402 110.558 37.79 110.558C38.7398 110.558 39.6683 110.276 40.4579 109.748C41.2476 109.221 41.8628 108.47 42.2257 107.592C42.5887 106.715 42.6831 105.749 42.4969 104.818C42.3108 103.886 41.8525 103.031 41.18 102.36C40.2666 101.488 39.0526 101.002 37.79 101.002C36.5274 101.002 35.3134 101.488 34.4 102.36ZM52.53 120.36C51.9144 120.971 51.494 121.75 51.322 122.6C51.15 123.45 51.2341 124.332 51.5638 125.134C51.8934 125.936 52.4537 126.622 53.1736 127.106C53.8935 127.589 54.7407 127.848 55.6079 127.849C56.475 127.851 57.3231 127.595 58.0446 127.114C58.7661 126.633 59.3286 125.948 59.6608 125.147C59.993 124.346 60.08 123.465 59.9107 122.614C59.7415 121.764 59.3236 120.983 58.71 120.37C57.8818 119.568 56.7747 119.119 55.622 119.117C54.4693 119.115 53.3608 119.561 52.53 120.36ZM77.47 126.98C76.8736 127.576 76.4672 128.335 76.3023 129.161C76.1374 129.988 76.2214 130.845 76.5436 131.623C76.8659 132.402 77.4119 133.068 78.1126 133.536C78.8133 134.005 79.6372 134.255 80.48 134.255C81.3228 134.255 82.1467 134.005 82.8474 133.536C83.5481 133.068 84.0941 132.402 84.4163 131.623C84.7386 130.845 84.8226 129.988 84.6577 129.161C84.4928 128.335 84.0864 127.576 83.49 126.98C82.679 126.206 81.601 125.774 80.48 125.774C79.359 125.774 78.281 126.206 77.47 126.98ZM64.41 56.01C63.733 56.6849 63.2715 57.5455 63.0839 58.4828C62.8963 59.4202 62.9911 60.3921 63.3562 61.2755C63.7213 62.159 64.3404 62.9142 65.135 63.4456C65.9296 63.977 66.8641 64.2606 67.82 64.2606C68.7759 64.2606 69.7103 63.977 70.505 63.4456C71.2996 62.9142 71.9186 62.159 72.2838 61.2755C72.6489 60.3921 72.7437 59.4202 72.5561 58.4828C72.3685 57.5455 71.907 56.6849 71.23 56.01C70.3111 55.1334 69.09 54.6443 67.82 54.6443C66.55 54.6443 65.3289 55.1334 64.41 56.01ZM89.18 55.8C88.4671 56.5069 87.9802 57.4096 87.7809 58.3936C87.5816 59.3775 87.6789 60.3985 88.0605 61.3271C88.4421 62.2557 89.0908 63.0501 89.9244 63.6097C90.758 64.1692 91.7389 64.4686 92.7429 64.47C93.7468 64.4714 94.7286 64.1747 95.5638 63.6175C96.3989 63.0604 97.0498 62.2678 97.434 61.3402C97.8182 60.4127 97.9184 59.392 97.7219 58.4075C97.5253 57.4229 97.0409 56.5189 96.33 55.81C95.369 54.8875 94.0891 54.3716 92.757 54.3697C91.4249 54.3679 90.1435 54.8802 89.18 55.8ZM125.3 76.28C124.434 77.1455 123.844 78.2484 123.604 79.4493C123.365 80.6502 123.487 81.8951 123.956 83.0265C124.424 84.1579 125.217 85.125 126.235 85.8054C127.253 86.4858 128.45 86.849 129.675 86.849C130.9 86.849 132.097 86.4858 133.115 85.8054C134.133 85.125 134.926 84.1579 135.394 83.0265C135.863 81.8951 135.985 80.6502 135.746 79.4493C135.506 78.2484 134.916 77.1455 134.05 76.28C132.871 75.1587 131.307 74.5333 129.68 74.5333C128.053 74.5333 126.489 75.1587 125.31 76.28H125.3ZM101.96 76.28C101.092 77.1449 100.501 78.2478 100.26 79.4491C100.02 80.6504 100.141 81.896 100.609 83.0282C101.077 84.1604 101.871 85.1284 102.889 85.8094C103.907 86.4904 105.105 86.854 106.33 86.854C107.555 86.854 108.753 86.4904 109.771 85.8094C110.789 85.1284 111.583 84.1604 112.051 83.0282C112.519 81.896 112.64 80.6504 112.4 79.4491C112.159 78.2478 111.568 77.1449 110.7 76.28C109.521 75.1587 107.957 74.5333 106.33 74.5333C104.703 74.5333 103.139 75.1587 101.96 76.28ZM65.05 99.4C64.5188 99.9328 64.1572 100.611 64.0109 101.349C63.8646 102.087 63.94 102.852 64.2277 103.547C64.5154 104.242 65.0025 104.837 65.6275 105.255C66.2526 105.674 66.9876 105.898 67.74 105.9C68.76 105.9 69.71 105.5 70.43 104.78C70.7855 104.428 71.0675 104.008 71.2597 103.546C71.4518 103.084 71.5503 102.588 71.5494 102.088C71.5484 101.587 71.4481 101.092 71.2543 100.631C71.0604 100.169 70.7768 99.751 70.42 99.4C69.6953 98.7121 68.7342 98.3286 67.735 98.3286C66.7358 98.3286 65.7747 98.7121 65.05 99.4ZM6.28 50.24C5.3692 51.1483 4.7484 52.3065 4.49618 53.5679C4.24395 54.8292 4.37165 56.137 4.86311 57.3258C5.35456 58.5145 6.18767 59.5307 7.25697 60.2457C8.32627 60.9607 9.58367 61.3424 10.87 61.3424C12.1563 61.3424 13.4137 60.9607 14.483 60.2457C15.5523 59.5307 16.3854 58.5145 16.8769 57.3258C17.3683 56.137 17.496 54.8292 17.2438 53.5679C16.9916 52.3065 16.3708 51.1483 15.46 50.24C14.2254 49.0556 12.5808 48.3942 10.87 48.3942C9.15916 48.3942 7.51454 49.0556 6.28 50.24ZM18.87 28.15C17.6934 29.4766 17.0675 31.2023 17.1201 32.9748C17.1727 34.7472 17.8998 36.4327 19.1531 37.6872C20.4063 38.9417 22.0911 39.6706 23.8635 39.725C25.6359 39.7794 27.3622 39.1553 28.69 37.98C29.3376 37.3368 29.8516 36.5718 30.2024 35.7292C30.5531 34.8865 30.7337 33.9828 30.7337 33.07C30.7337 32.1572 30.5531 31.2535 30.2024 30.4108C29.8516 29.5682 29.3376 28.8032 28.69 28.16C27.3698 26.8934 25.6115 26.1854 23.782 26.1835C21.9525 26.1817 20.1928 26.8861 18.87 28.15ZM37.95 11.68C36.7027 13.0503 36.0308 14.8483 36.0739 16.7008C36.117 18.5533 36.8716 20.3181 38.1812 21.629C39.4908 22.9399 41.2549 23.6963 43.1074 23.7412C44.9598 23.786 46.7584 23.116 48.13 21.87C48.803 21.2042 49.3373 20.4115 49.702 19.5378C50.0666 18.6641 50.2544 17.7267 50.2544 16.78C50.2544 15.8333 50.0666 14.8959 49.702 14.0222C49.3373 13.1485 48.803 12.3558 48.13 11.69C46.7613 10.377 44.9386 9.64302 43.042 9.64115C41.1454 9.63929 39.3212 10.3697 37.95 11.68ZM61.69 2.44C60.368 3.88773 59.6548 5.78931 59.6988 7.74935C59.7428 9.70939 60.5405 11.5771 61.9262 12.964C63.3119 14.351 65.1788 15.1505 67.1388 15.1963C69.0988 15.2421 71.001 14.5307 72.45 13.21C73.1589 12.5052 73.7211 11.6668 74.1038 10.7434C74.4866 9.81988 74.6824 8.82966 74.68 7.83C74.68 5.8 73.88 3.88 72.45 2.45C71.002 1.06469 69.0759 0.290662 67.072 0.288799C65.0681 0.286937 63.1405 1.05739 61.69 2.44ZM88.08 2.25C86.9812 3.35392 86.2342 4.75871 85.9334 6.28693C85.6325 7.81515 85.7913 9.39826 86.3897 10.8363C86.9881 12.2743 87.9992 13.5028 89.2953 14.3665C90.5915 15.2302 92.1145 15.6904 93.672 15.689C95.2296 15.6876 96.7518 15.2246 98.0464 14.3586C99.341 13.4926 100.35 12.2623 100.946 10.8232C101.541 9.38414 101.697 7.80076 101.394 6.27308C101.09 4.7454 100.341 3.34195 99.24 2.24C97.7332 0.810576 95.7349 0.0145609 93.658 0.016422C91.5811 0.018283 89.5842 0.817878 88.08 2.25ZM111.71 10.91C110.528 12.0877 109.722 13.5898 109.394 15.2259C109.066 16.862 109.232 18.5585 109.869 20.1007C110.506 21.6429 111.586 22.9613 112.973 23.8889C114.36 24.8166 115.991 25.3118 117.66 25.3118C119.329 25.3118 120.96 24.8166 122.347 23.8889C123.734 22.9613 124.814 21.6429 125.451 20.1007C126.088 18.5585 126.254 16.862 125.926 15.2259C125.598 13.5898 124.792 12.0877 123.61 10.91C122.008 9.37819 119.877 8.52331 117.66 8.52331C115.443 8.52331 113.312 9.37819 111.71 10.91ZM130.84 26.7C129.613 27.9251 128.778 29.4866 128.439 31.1868C128.1 32.8871 128.273 34.6496 128.937 36.2513C129.601 37.853 130.724 39.2217 132.166 40.1843C133.608 41.1468 135.303 41.6599 137.037 41.6585C138.771 41.6571 140.465 41.1413 141.905 40.1764C143.346 39.2115 144.467 37.841 145.128 36.2382C145.789 34.6355 145.96 32.8727 145.618 31.1729C145.277 29.4732 144.439 27.9131 143.21 26.69C141.54 25.1058 139.325 24.2236 137.023 24.2255C134.721 24.2273 132.508 25.1132 130.84 26.7ZM143.44 48.56C142.164 49.8443 141.296 51.4771 140.946 53.2532C140.596 55.0293 140.778 56.8693 141.471 58.542C142.163 60.2146 143.335 61.6451 144.838 62.6536C146.342 63.6621 148.11 64.2036 149.92 64.21C152.37 64.21 154.67 63.26 156.4 61.52C157.253 60.6708 157.929 59.6608 158.389 58.5485C158.849 57.4362 159.084 56.2437 159.08 55.04C159.08 52.59 158.13 50.29 156.39 48.56C154.645 46.8954 152.326 45.9667 149.915 45.9667C147.504 45.9667 145.185 46.8954 143.44 48.56ZM147.74 73.85C146.401 75.1925 145.489 76.9016 145.12 78.7617C144.751 80.6217 144.941 82.5494 145.666 84.3015C146.392 86.0537 147.619 87.5518 149.195 88.6069C150.771 89.662 152.624 90.2268 154.52 90.23C157.08 90.23 159.49 89.23 161.3 87.42C162.193 86.5317 162.902 85.4751 163.384 84.3114C163.866 83.1476 164.113 81.8997 164.11 80.64C164.11 78.08 163.11 75.67 161.3 73.86C159.477 72.1106 157.049 71.133 154.522 71.1311C151.995 71.1293 149.566 72.1033 147.74 73.85ZM90.46 150.27C89.8063 150.923 89.3609 151.755 89.1802 152.661C88.9995 153.567 89.0916 154.506 89.4449 155.36C89.7982 156.214 90.3967 156.943 91.1648 157.457C91.9329 157.97 92.8361 158.244 93.76 158.244C94.6839 158.244 95.587 157.97 96.3551 157.457C97.1233 156.943 97.7218 156.214 98.0751 155.36C98.4284 154.506 98.5205 153.567 98.3398 152.661C98.1591 151.755 97.7137 150.923 97.06 150.27C96.1708 149.422 94.989 148.948 93.76 148.948C92.531 148.948 91.3491 149.422 90.46 150.27ZM171.72 7.99C172.374 7.33714 172.819 6.50503 173 5.59897C173.181 4.69291 173.088 3.75361 172.735 2.89992C172.382 2.04623 171.783 1.31651 171.015 0.803092C170.247 0.289672 169.344 0.015625 168.42 0.015625C167.496 0.015625 166.593 0.289672 165.825 0.803092C165.057 1.31651 164.458 2.04623 164.105 2.89992C163.752 3.75361 163.659 4.69291 163.84 5.59897C164.021 6.50503 164.466 7.33714 165.12 7.99C166.009 8.8385 167.191 9.31191 168.42 9.31191C169.649 9.31191 170.831 8.8385 171.72 7.99ZM196.11 17.36C196.826 16.644 197.314 15.7317 197.512 14.7385C197.709 13.7453 197.608 12.7158 197.22 11.7801C196.833 10.8445 196.177 10.0448 195.335 9.48218C194.493 8.91954 193.503 8.61923 192.49 8.61923C191.477 8.61923 190.487 8.91954 189.645 9.48218C188.803 10.0448 188.147 10.8445 187.76 11.7801C187.372 12.7158 187.271 13.7453 187.468 14.7385C187.666 15.7317 188.154 16.644 188.87 17.36C189.846 18.2893 191.142 18.8076 192.49 18.8076C193.838 18.8076 195.134 18.2893 196.11 17.36ZM214.75 32.33C215.519 31.5607 216.042 30.5807 216.255 29.5139C216.467 28.447 216.357 27.3413 215.941 26.3365C215.525 25.3316 214.82 24.4728 213.915 23.8686C213.011 23.2643 211.948 22.9418 210.86 22.9418C209.772 22.9418 208.709 23.2643 207.805 23.8686C206.9 24.4728 206.195 25.3316 205.779 26.3365C205.363 27.3413 205.253 28.447 205.465 29.5139C205.677 30.5807 206.201 31.5607 206.97 32.33C208.018 33.3313 209.411 33.89 210.86 33.89C212.309 33.89 213.702 33.3313 214.75 32.33ZM230.36 59.87C231.161 59.0723 231.707 58.0549 231.929 56.9467C232.151 55.8385 232.039 54.6893 231.607 53.6447C231.176 52.6001 230.444 51.707 229.505 51.0787C228.565 50.4503 227.46 50.1149 226.33 50.1149C225.2 50.1149 224.095 50.4503 223.155 51.0787C222.216 51.707 221.484 52.6001 221.053 53.6447C220.621 54.6893 220.509 55.8385 220.731 56.9467C220.953 58.0549 221.499 59.0723 222.3 59.87C223.386 60.9056 224.829 61.4833 226.33 61.4833C227.831 61.4833 229.274 60.9056 230.36 59.87ZM233.6 85.02C234.31 84.3112 234.834 83.4382 235.126 82.4784C235.418 81.5186 235.469 80.5016 235.274 79.5175C235.079 78.5335 234.644 77.6127 234.008 76.8367C233.372 76.0608 232.555 75.4537 231.628 75.0692C230.701 74.6847 229.694 74.5346 228.696 74.6323C227.697 74.73 226.739 75.0724 225.904 75.6293C225.07 76.1862 224.385 76.9402 223.912 77.8247C223.439 78.7092 223.191 79.6968 223.19 80.7C223.19 82.33 223.83 83.86 224.98 85.01C226.137 86.1248 227.681 86.7485 229.288 86.7503C230.895 86.7522 232.44 86.1321 233.6 85.02ZM208.08 84.32C208.792 83.604 209.276 82.6936 209.472 81.7031C209.668 80.7127 209.567 79.6864 209.181 78.7534C208.795 77.8204 208.142 77.0223 207.304 76.4594C206.466 75.8966 205.48 75.5941 204.47 75.59C203.458 75.5865 202.468 75.8841 201.626 76.4449C200.784 77.0056 200.127 77.8043 199.74 78.7392C199.353 79.6741 199.253 80.703 199.452 81.695C199.652 82.687 200.142 83.5973 200.86 84.31C201.83 85.2416 203.123 85.7627 204.468 85.7645C205.813 85.7664 207.107 85.2489 208.08 84.32ZM201.63 106.6C202.402 105.817 202.926 104.823 203.137 103.744C203.348 102.664 203.236 101.547 202.816 100.53C202.396 99.5138 201.686 98.6437 200.774 98.0283C199.862 97.413 198.79 97.0797 197.69 97.07C196.957 97.0671 196.231 97.2106 195.554 97.4923C194.878 97.7739 194.264 98.1879 193.75 98.71C193.229 99.2259 192.816 99.84 192.535 100.517C192.253 101.193 192.109 101.919 192.11 102.652C192.111 103.385 192.257 104.11 192.54 104.786C192.823 105.462 193.238 106.075 193.76 106.59C194.819 107.603 196.227 108.169 197.693 108.171C199.159 108.173 200.568 107.61 201.63 106.6ZM184.43 124.46C185.27 123.615 185.842 122.541 186.073 121.372C186.305 120.204 186.185 118.992 185.73 117.892C185.274 116.791 184.504 115.849 183.514 115.185C182.525 114.521 181.361 114.164 180.17 114.16C178.57 114.16 177.05 114.79 175.91 115.93C175.345 116.486 174.897 117.15 174.591 117.881C174.284 118.612 174.127 119.397 174.127 120.19C174.127 120.983 174.284 121.768 174.591 122.499C174.897 123.23 175.345 123.894 175.91 124.45C177.054 125.551 178.58 126.168 180.168 126.169C181.756 126.171 183.283 125.559 184.43 124.46ZM159.75 131.56C160.853 130.343 161.446 128.748 161.405 127.105C161.365 125.463 160.694 123.899 159.533 122.737C158.371 121.576 156.807 120.905 155.165 120.865C153.522 120.824 151.927 121.417 150.71 122.52C150.112 123.111 149.637 123.816 149.314 124.592C148.99 125.368 148.824 126.201 148.825 127.042C148.826 127.883 148.994 128.716 149.319 129.491C149.645 130.267 150.121 130.97 150.72 131.56C151.937 132.721 153.553 133.369 155.235 133.369C156.917 133.369 158.533 132.721 159.75 131.56ZM135 125.35C135.959 124.392 136.612 123.172 136.878 121.843C137.143 120.514 137.008 119.136 136.49 117.884C135.971 116.631 135.093 115.561 133.967 114.808C132.84 114.055 131.515 113.653 130.16 113.653C128.805 113.653 127.48 114.055 126.353 114.808C125.227 115.561 124.349 116.631 123.83 117.884C123.312 119.136 123.177 120.514 123.442 121.843C123.708 123.172 124.361 124.392 125.32 125.35C126.623 126.597 128.357 127.293 130.16 127.293C131.963 127.293 133.697 126.597 135 125.35ZM117.35 110.01C118.309 109.052 118.962 107.832 119.228 106.503C119.493 105.174 119.358 103.796 118.84 102.544C118.321 101.291 117.443 100.221 116.317 99.4678C115.19 98.7146 113.865 98.3126 112.51 98.3126C111.155 98.3126 109.83 98.7146 108.703 99.4678C107.577 100.221 106.699 101.291 106.18 102.544C105.662 103.796 105.527 105.174 105.792 106.503C106.058 107.832 106.711 109.052 107.67 110.01C108.973 111.257 110.707 111.953 112.51 111.953C114.313 111.953 116.047 111.257 117.35 110.01ZM182.95 83.79C183.56 83.1779 183.975 82.3985 184.142 81.5506C184.31 80.7026 184.222 79.8241 183.89 79.0261C183.558 78.2281 182.996 77.5465 182.277 77.0675C181.558 76.5884 180.712 76.3335 179.848 76.3349C178.984 76.3363 178.139 76.594 177.421 77.0753C176.703 77.5567 176.144 78.2401 175.815 79.0391C175.485 79.8382 175.4 80.717 175.57 81.5644C175.74 82.4119 176.158 83.1898 176.77 83.8C177.605 84.5899 178.712 85.0293 179.862 85.0274C181.012 85.0255 182.117 84.5826 182.95 83.79ZM201.09 56.08C201.762 55.4092 202.221 54.5539 202.407 53.6225C202.593 52.6911 202.499 51.7253 202.136 50.8476C201.773 49.9698 201.158 49.2195 200.368 48.6915C199.578 48.1636 198.65 47.8818 197.7 47.8818C196.75 47.8818 195.822 48.1636 195.032 48.6915C194.242 49.2195 193.627 49.9698 193.264 50.8476C192.901 51.7253 192.807 52.6911 192.993 53.6225C193.179 54.5539 193.638 55.4092 194.31 56.08C195.222 56.954 196.437 57.4419 197.7 57.4419C198.963 57.4419 200.178 56.954 201.09 56.08ZM182.96 38.09C183.576 37.4792 183.996 36.6995 184.168 35.8496C184.34 34.9997 184.256 34.1179 183.926 33.3158C183.597 32.5138 183.036 31.8276 182.316 31.3443C181.596 30.8609 180.749 30.6022 179.882 30.6008C179.015 30.5994 178.167 30.8554 177.445 31.3364C176.724 31.8174 176.161 32.5017 175.829 33.3027C175.497 34.1037 175.41 34.9853 175.579 35.8357C175.749 36.6862 176.166 37.4673 176.78 38.08C177.611 38.8772 178.717 39.3232 179.868 39.325C181.019 39.3269 182.127 38.8845 182.96 38.09ZM158.01 31.46C158.606 30.8645 159.013 30.1054 159.178 29.2789C159.343 28.4524 159.259 27.5955 158.936 26.8167C158.614 26.0379 158.068 25.3722 157.367 24.9038C156.667 24.4355 155.843 24.1855 155 24.1855C154.157 24.1855 153.333 24.4355 152.633 24.9038C151.932 25.3722 151.386 26.0379 151.064 26.8167C150.741 27.5955 150.657 28.4524 150.822 29.2789C150.987 30.1054 151.394 30.8645 151.99 31.46C152.801 32.2339 153.879 32.6657 155 32.6657C156.121 32.6657 157.199 32.2339 158.01 31.46ZM171.07 102.43C171.747 101.755 172.209 100.895 172.396 99.9572C172.584 99.0198 172.489 98.0479 172.124 97.1645C171.759 96.281 171.14 95.5258 170.345 94.9944C169.55 94.463 168.616 94.1794 167.66 94.1794C166.704 94.1794 165.77 94.463 164.975 94.9944C164.18 95.5258 163.561 96.281 163.196 97.1645C162.831 98.0479 162.736 99.0198 162.924 99.9572C163.111 100.895 163.573 101.755 164.25 102.43C165.169 103.307 166.39 103.796 167.66 103.796C168.93 103.796 170.151 103.307 171.07 102.43ZM146.31 102.64C147.023 101.933 147.51 101.03 147.709 100.046C147.908 99.0625 147.811 98.0415 147.43 97.1129C147.048 96.1843 146.399 95.3899 145.566 94.8303C144.732 94.2708 143.751 93.9714 142.747 93.97C141.743 93.9686 140.761 94.2653 139.926 94.8224C139.091 95.3796 138.44 96.1722 138.056 97.0998C137.672 98.0273 137.572 99.048 137.768 100.033C137.965 101.017 138.449 101.921 139.16 102.63C140.121 103.552 141.401 104.068 142.733 104.07C144.065 104.072 145.346 103.56 146.31 102.64ZM170.43 59.04C170.961 58.5072 171.323 57.829 171.469 57.0911C171.615 56.3531 171.54 55.5883 171.252 54.8931C170.965 54.1979 170.478 53.6034 169.852 53.1847C169.227 52.7659 168.492 52.5416 167.74 52.54C166.72 52.54 165.77 52.94 165.05 53.66C164.693 54.0116 164.41 54.4307 164.217 54.893C164.024 55.3552 163.925 55.8512 163.926 56.3521C163.927 56.853 164.028 57.3486 164.223 57.8101C164.417 58.2716 164.702 58.6897 165.06 59.04C165.782 59.7325 166.744 60.1191 167.745 60.1191C168.746 60.1191 169.708 59.7325 170.43 59.04ZM229.21 108.2C230.121 107.292 230.742 106.134 230.994 104.872C231.246 103.611 231.118 102.303 230.627 101.114C230.135 99.9255 229.302 98.9093 228.233 98.1943C227.164 97.4793 225.906 97.0976 224.62 97.0976C223.334 97.0976 222.076 97.4793 221.007 98.1943C219.938 98.9093 219.105 99.9255 218.613 101.114C218.122 102.303 217.994 103.611 218.246 104.872C218.498 106.134 219.119 107.292 220.03 108.2C221.265 109.384 222.909 110.046 224.62 110.046C226.331 110.046 227.975 109.384 229.21 108.2ZM216.62 130.29C217.797 128.963 218.423 127.238 218.37 125.465C218.317 123.693 217.59 122.007 216.337 120.753C215.084 119.498 213.399 118.769 211.627 118.715C209.854 118.661 208.128 119.285 206.8 120.46C206.152 121.103 205.638 121.868 205.288 122.711C204.937 123.553 204.756 124.457 204.756 125.37C204.756 126.283 204.937 127.186 205.288 128.029C205.638 128.872 206.152 129.637 206.8 130.28C208.12 131.547 209.878 132.255 211.708 132.256C213.538 132.258 215.297 131.554 216.62 130.29ZM197.54 146.76C198.787 145.39 199.459 143.592 199.416 141.739C199.373 139.887 198.618 138.122 197.309 136.811C195.999 135.5 194.235 134.744 192.383 134.699C190.53 134.654 188.732 135.324 187.36 136.57C186.687 137.236 186.153 138.029 185.788 138.902C185.423 139.776 185.236 140.713 185.236 141.66C185.236 142.607 185.423 143.544 185.788 144.418C186.153 145.291 186.687 146.084 187.36 146.75C188.726 148.068 190.55 148.805 192.448 148.807C194.346 148.808 196.171 148.075 197.54 146.76ZM173.79 156C175.112 154.552 175.825 152.651 175.781 150.691C175.737 148.731 174.939 146.863 173.554 145.476C172.168 144.089 170.301 143.29 168.341 143.244C166.381 143.198 164.479 143.909 163.03 145.23C162.321 145.935 161.759 146.773 161.376 147.697C160.993 148.62 160.798 149.61 160.8 150.61C160.8 152.64 161.59 154.56 163.03 155.99C164.478 157.375 166.404 158.149 168.408 158.151C170.412 158.153 172.339 157.383 173.79 156ZM147.41 156.19C148.509 155.086 149.256 153.681 149.557 152.153C149.857 150.625 149.699 149.042 149.1 147.604C148.502 146.166 147.491 144.937 146.195 144.074C144.899 143.21 143.375 142.75 141.818 142.751C140.26 142.752 138.738 143.215 137.444 144.081C136.149 144.947 135.14 146.178 134.544 147.617C133.949 149.056 133.793 150.639 134.096 152.167C134.4 153.695 135.149 155.098 136.25 156.2C137.757 157.629 139.755 158.425 141.832 158.424C143.909 158.422 145.906 157.622 147.41 156.19ZM124.65 148.72C125.832 147.542 126.638 146.04 126.966 144.404C127.294 142.768 127.128 141.071 126.491 139.529C125.854 137.987 124.774 136.669 123.387 135.741C122 134.813 120.369 134.318 118.7 134.318C117.031 134.318 115.4 134.813 114.013 135.741C112.626 136.669 111.546 137.987 110.909 139.529C110.272 141.071 110.106 142.768 110.434 144.404C110.762 146.04 111.568 147.542 112.75 148.72C114.352 150.252 116.483 151.107 118.7 151.107C120.917 151.107 123.048 150.252 124.65 148.72ZM105.53 135.64C106.757 134.415 107.592 132.853 107.931 131.153C108.27 129.453 108.097 127.69 107.433 126.089C106.769 124.487 105.646 123.118 104.204 122.156C102.762 121.193 101.067 120.68 99.3329 120.682C97.5992 120.683 95.9049 121.199 94.4646 122.164C93.0242 123.128 91.9026 124.499 91.2416 126.102C90.5806 127.705 90.4101 129.467 90.7516 131.167C91.0931 132.867 91.9313 134.427 93.16 135.65C94.8279 137.239 97.0436 138.124 99.347 138.122C101.65 138.12 103.865 137.231 105.53 135.64ZM92.05 112.43C93.3259 111.146 94.1936 109.513 94.544 107.737C94.8944 105.961 94.7119 104.121 94.0193 102.448C93.3268 100.775 92.1551 99.3449 90.6517 98.3364C89.1483 97.3279 87.3803 96.7864 85.57 96.78C83.12 96.78 80.82 97.73 79.09 99.47C78.2369 100.319 77.5608 101.329 77.1008 102.441C76.6407 103.554 76.4059 104.746 76.41 105.95C76.41 108.4 77.36 110.7 79.1 112.43C80.8447 114.095 83.1635 115.023 85.575 115.023C87.9864 115.023 90.3053 114.095 92.05 112.43ZM87.74 87.51C89.0793 86.1675 89.9909 84.4584 90.36 82.5983C90.7291 80.7383 90.539 78.8106 89.8137 77.0584C89.0885 75.3063 87.8606 73.8082 86.2849 72.7531C84.7092 71.698 82.8563 71.1332 80.96 71.13C78.4 71.13 75.99 72.13 74.18 73.94C73.2867 74.8283 72.5785 75.8849 72.0961 77.0486C71.6138 78.2124 71.367 79.4603 71.37 80.72C71.37 83.28 72.37 85.69 74.18 87.5C76.0031 89.2494 78.4314 90.227 80.958 90.2289C83.4846 90.2307 85.9143 89.2567 87.74 87.51ZM145.03 8.17C145.684 7.51714 146.129 6.68503 146.31 5.77897C146.491 4.87291 146.398 3.93361 146.045 3.07992C145.692 2.22623 145.093 1.49651 144.325 0.983092C143.557 0.469672 142.654 0.195625 141.73 0.195625C140.806 0.195625 139.903 0.469672 139.135 0.983092C138.367 1.49651 137.768 2.22623 137.415 3.07992C137.062 3.93361 136.969 4.87291 137.15 5.77897C137.331 6.68503 137.776 7.51714 138.43 8.17C139.318 9.02079 140.5 9.49574 141.73 9.49574C142.96 9.49574 144.142 9.02079 145.03 8.17Z" fill="#1478C2"/>
</g>
<defs>
<clipPath id="clip0_35_7">
<rect width="966" height="159" fill="white"/>
</clipPath>
</defs>
</svg>
