<svg width="225" height="300" viewBox="0 0 225 300" fill="none" xmlns="http://www.w3.org/2000/svg">
<g clip-path="url(#clip0_1303_3570)">
<path d="M210.782 70.4525C210.782 60.0945 202.371 51.6838 192.013 51.6838H59.4309C49.0729 51.6838 40.6622 60.0945 40.6622 70.4525C40.6622 80.8105 49.0729 89.2212 59.4309 89.2212L146.811 89.1798L19.6976 216.293C12.3641 223.627 12.3641 235.476 19.6976 242.81C27.0311 250.143 38.8806 250.143 46.2141 242.81L173.328 115.696L173.328 203.035C173.328 213.393 181.738 221.804 192.096 221.804C202.454 221.804 210.865 213.393 210.865 203.035L210.865 70.4525L210.782 70.4525Z" fill="#25498C"/>
</g>
<defs>
<clipPath id="clip0_1303_3570">
<rect width="225" height="300" fill="white"/>
</clipPath>
</defs>
</svg>
