<svg fill="none" height="23" viewBox="0 0 22 23" width="22" xmlns="http://www.w3.org/2000/svg"><path d="m11 2.43612c-1.77793.00338-3.51648.5237-5.00391 1.49759s-2.65956 2.35932-3.3736 3.98753-.93918 3.42896-.648 5.18286 1.08611 3.3852 2.28797 4.6954c.85839.9304 1.9002 1.673 3.05978 2.1809s2.41179.7701 3.67776.7701c1.2659 0 2.5181-.2622 3.6777-.7701s2.2014-1.2505 3.0598-2.1809c1.2018-1.3102 1.9968-2.9415 2.2879-4.6954.2912-1.7539.0661-3.55465-.648-5.18286-.714-1.62821-1.8861-3.01364-3.3736-3.98753-1.4874-.97389-3.2259-1.49421-5.0038-1.49759zm0 16.49998c-1.89894-.0029-3.7227-.7422-5.08754-2.0625.41438-1.0087 1.11928-1.8715 2.02515-2.4788.90587-.6072 1.9718-.9314 3.06239-.9314 1.0905 0 2.1564.3242 3.0623.9314.9059.6073 1.6108 1.4701 2.0252 2.4788-1.3649 1.3203-3.1886 2.0596-5.0875 2.0625zm-1.83337-9.16665c0-.3626.10752-.71705.30897-1.01854s.48778-.53648.8228-.67524c.335-.13876.7036-.17506 1.0592-.10432.3557.07073.6823.24534.9387.50174s.431.58306.5018.9387c.0707.35563.0344.72421-.1044 1.05921-.1387.335-.3737.6214-.6752.8228-.3015.2015-.6559.309-1.0185.309-.4863 0-.9526-.1932-1.2964-.537-.34382-.3438-.53697-.8101-.53697-1.29635zm8.16747 5.50005c-.819-1.4009-2.0795-2.4906-3.5841-3.0984.4667-.5292.7708-1.1819.8758-1.8797.105-.69775.0064-1.41101-.2839-2.05416s-.7601-1.18886-1.3529-1.57165c-.5927-.3828-1.2834-.58641-1.989-.58641-.7057 0-1.39633.20361-1.98912.58641-.59279.38279-1.06253.9285-1.35286 1.57165-.29032.64315-.3889 1.35641-.28391 2.05416.105.6978.40912 1.3505.87585 1.8797-1.50461.6078-2.76515 1.6975-3.58416 3.0984-.65272-1.1119-.99759-2.3775-.99917-3.6667 0-1.94494.77262-3.8102 2.14788-5.18546 1.37527-1.37527 3.24053-2.14789 5.18549-2.14789 1.9449 0 3.8101.77262 5.1854 2.14789 1.3753 1.37526 2.1479 3.24052 2.1479 5.18546-.0016 1.2892-.3465 2.5548-.9992 3.6667z" fill="#fff"/></svg>