<svg fill="none" height="24" viewBox="0 0 24 24" width="24" xmlns="http://www.w3.org/2000/svg"><path d="m20.4701 2.00014h-16.94004c-.19042-.00264-.3795.03225-.55644.10268-.17693.07044-.33826.17504-.47476.30783-.13651.13279-.24552.29117-.32081.4661-.07529.17492-.11538.36297-.11799.55339v17.13996c.00261.1905.0427.3785.11799.5534.07529.175.1843.3333.32081.4661.1365.1328.29783.2374.47476.3079.17694.0704.36602.1053.55644.1026h16.94004c.1904.0027.3795-.0322.5564-.1026.1769-.0705.3383-.1751.4748-.3079s.2455-.2911.3208-.4661c.0753-.1749.1154-.3629.118-.5534v-17.13996c-.0026-.19042-.0427-.37847-.118-.55339-.0753-.17493-.1843-.33331-.3208-.4661s-.2979-.23739-.4748-.30783c-.1769-.07043-.366-.10532-.5564-.10268zm-12.38004 16.73996h-3v-8.99996h3zm-1.5-10.25996c-.41374 0-.81053-.16436-1.10309-.45691-.29255-.29256-.45691-.68935-.45691-1.10309s.16436-.81053.45691-1.10309c.29256-.29255.68935-.45691 1.10309-.45691.21969-.02492.44218-.00315.65287.06388.2107.06703.40487.17781.56979.32508.16491.14727.29686.32772.38721.52952.09035.20181.13705.42042.13705.64152s-.0467.43971-.13705.64152c-.09035.2018-.2223.38225-.38721.52952-.16492.14727-.35909.25805-.56979.32508-.21069.06703-.43318.08879-.65287.06388zm12.32004 10.25996h-3v-4.83c0-1.21-.43-2-1.52-2-.3374.0025-.6659.1083-.9412.3032-.2754.1949-.4844.4695-.5988.7868-.0783.2351-.1122.4826-.1.73v5h-3.00004s0-8.18 0-8.99996h3.00004v1.26996c.2725-.4729.6689-.8624 1.1464-1.12676.4775-.26432 1.0181-.39335 1.5636-.3732 2 0 3.45 1.28996 3.45 4.05996z" fill="#000"/></svg>