<svg xmlns="http://www.w3.org/2000/svg" width="110" height="110" fill="none" stroke="url(#a)" stroke-width="3"><linearGradient id="a" x2="0" y1="29" y2="82" gradientUnits="userSpaceOnUse"><stop stop-color="#4381e5"/><stop offset="1" stop-color="#afceff"/></linearGradient><path stroke-linejoin="round" d="M13.5 77V28a2.5 2.5 0 0 1 2.5-2.5h78a2.5 2.5 0 0 1 2.5 2.5v21M77 78.5H5.5V85A2.5 2.5 0 0 0 8 87.5h69M91 89v.1"/><path stroke-width="2" d="M48 50c0 5.6 2.9 8.8 8 13 4.5-3.4 8-7 8-13a8 8 0 1 0-16 0zm5 0c0-4 6-4 6 0s-6 4-6 0z"/><rect width="27" height="47" x="77.5" y="49.5" rx="2.5"/><circle cx="91" cy="89" r=".5"/></svg>