<svg xmlns="http://www.w3.org/2000/svg" width="110" height="110" fill="none"><linearGradient id="a" x2="0" y1="-.01" y2="1.01"><stop stop-color="#4381e5"/><stop offset="1" stop-color="#afceff"/></linearGradient><path stroke="url(#a)" stroke-linecap="round" stroke-linejoin="round" stroke-width="3" d="M18 13v12m-6-6h12m66 66v12m-6-6h12M18 35v12m72-6v12m-72 4v12m72-6v12M34 19h12m-6 72h12M18 79v6a6 6 0 0 0 6 6h6m48-72h6a6 6 0 0 1 6 6v6M56 19h12m-6 72h12M63 55l13-12v24L63 55v6a6 6 0 0 1-6 6H40a6 6 0 0 1-6-6V49a6 6 0 0 1 6-6h17a6 6 0 0 1 6 6zm-7-5.5a.5.5 0 1 0 0 1 .5.5 0 0 0 0-1v1"/></svg>
