<svg width="145" height="18" viewBox="0 0 145 18" fill="none" xmlns="http://www.w3.org/2000/svg">
<path d="M17.9639 1.1035L14.9231 13.4526H10.9785L9.79592 8.07202C9.77339 7.97066 9.73679 7.79891 9.68611 7.55677C9.64106 7.31464 9.58757 7.03871 9.52562 6.729C9.46931 6.41929 9.41582 6.1152 9.36514 5.81675C9.32009 5.51267 9.2863 5.25646 9.26378 5.04811C9.24125 5.25646 9.20465 5.51267 9.15397 5.81675C9.10329 6.1152 9.04698 6.41929 8.98504 6.729C8.92872 7.03871 8.87241 7.31464 8.8161 7.55677C8.76542 7.79891 8.72882 7.97066 8.70629 8.07202L7.51531 13.4526H3.5707L0.513 1.1035H3.73119L5.07422 7.29493C5.108 7.44697 5.15305 7.66377 5.20936 7.94532C5.27131 8.22125 5.33325 8.52533 5.39519 8.85756C5.46276 9.18417 5.52471 9.49951 5.58102 9.80359C5.63733 10.1077 5.67675 10.3611 5.69927 10.5638C5.74432 10.2147 5.80345 9.81767 5.87665 9.37281C5.95549 8.92796 6.03995 8.47746 6.13005 8.02134C6.22578 7.55959 6.31588 7.13162 6.40035 6.73744C6.48481 6.34327 6.55802 6.02229 6.61996 5.77452L7.70959 1.1035H10.8011L11.8569 5.77452C11.9132 6.01666 11.9836 6.33763 12.0681 6.73744C12.1582 7.13162 12.2483 7.55959 12.3384 8.02134C12.4341 8.48309 12.5214 8.93922 12.6002 9.38971C12.6791 9.83457 12.7382 10.2259 12.7776 10.5638C12.8114 10.2822 12.8677 9.92748 12.9465 9.49951C13.0254 9.06592 13.1042 8.6464 13.183 8.24096C13.2675 7.82988 13.3323 7.52017 13.3773 7.31182L14.7457 1.1035H17.9639Z" fill="#141E33"/>
<path d="M22.6359 3.71353C23.565 3.71353 24.3675 3.87683 25.0432 4.20344C25.719 4.52441 26.2398 5.00869 26.6059 5.65627C26.9719 6.30385 27.1549 7.11473 27.1549 8.08892V9.55864H21.2507C21.2788 10.0598 21.4646 10.4709 21.8081 10.7919C22.1573 11.1128 22.6697 11.2733 23.3454 11.2733C23.9423 11.2733 24.4886 11.2142 24.9841 11.0959C25.4853 10.9777 26.0005 10.7947 26.5298 10.5469V12.9204C26.0681 13.1626 25.5641 13.3399 25.0179 13.4526C24.4717 13.5652 23.7818 13.6215 22.9484 13.6215C21.9855 13.6215 21.124 13.4498 20.3637 13.1063C19.6035 12.7628 19.0038 12.2306 18.5646 11.5098C18.131 10.789 17.9142 9.86272 17.9142 8.73086C17.9142 7.58211 18.1113 6.6389 18.5055 5.90122C18.8997 5.15791 19.4515 4.60888 20.161 4.25412C20.8706 3.89372 21.6955 3.71353 22.6359 3.71353ZM22.7542 5.96035C22.3656 5.96035 22.039 6.08423 21.7743 6.332C21.5153 6.57414 21.3633 6.95706 21.3182 7.48075H24.1563C24.1507 7.1992 24.0944 6.94298 23.9874 6.7121C23.8804 6.48123 23.7227 6.29822 23.5144 6.16307C23.3116 6.02792 23.0582 5.96035 22.7542 5.96035Z" fill="#141E33"/>
<path d="M31.8053 0.309509V3.28275C31.8053 3.62061 31.794 3.9444 31.7715 4.25412C31.749 4.5582 31.7208 4.84538 31.6871 5.11568H31.8053C32.0531 4.72713 32.3769 4.39771 32.7767 4.12742C33.1765 3.85149 33.7002 3.71353 34.3478 3.71353C35.3445 3.71353 36.1582 4.13586 36.7889 4.98053C37.4252 5.8252 37.7433 7.04716 37.7433 8.6464C37.7433 9.73321 37.5969 10.6483 37.3041 11.3916C37.0113 12.1293 36.6002 12.6867 36.0709 13.064C35.5472 13.4357 34.939 13.6215 34.2464 13.6215C33.5707 13.6215 33.0554 13.5061 32.7007 13.2752C32.3515 13.0387 32.0531 12.7853 31.8053 12.515H31.6026L31.0789 13.4526H28.5026V0.309509H31.8053ZM33.1399 6.30666C32.8358 6.30666 32.5852 6.37705 32.3881 6.51783C32.191 6.65861 32.0446 6.87822 31.9489 7.17667C31.8532 7.46949 31.8053 7.84396 31.8053 8.30008V8.76465C31.8053 9.50796 31.9038 10.0598 32.1009 10.4202C32.3037 10.7806 32.6612 10.9608 33.1737 10.9608C33.5622 10.9608 33.8607 10.7609 34.069 10.3611C34.2774 9.96127 34.3815 9.37845 34.3815 8.61261C34.3815 7.84678 34.2802 7.2724 34.0775 6.88949C33.8747 6.50094 33.5622 6.30666 33.1399 6.30666Z" fill="#141E33"/>
<path d="M43.7577 1.1035C45.3232 1.1035 46.4944 1.44418 47.2715 2.12555C48.0543 2.80692 48.4456 3.77547 48.4456 5.03121C48.4456 5.59432 48.364 6.13491 48.2007 6.65298C48.043 7.17104 47.7812 7.63279 47.4151 8.03824C47.0547 8.44368 46.5733 8.76465 45.9708 9.00116C45.3739 9.23767 44.6362 9.35592 43.7577 9.35592H42.8201V13.4526H39.4837V1.1035H43.7577ZM43.6817 3.79799H42.8201V6.63608H43.479C43.7662 6.63608 44.0336 6.58822 44.2814 6.49249C44.5292 6.39113 44.7263 6.23064 44.8727 6.01103C45.0247 5.78578 45.1007 5.48733 45.1007 5.11568C45.1007 4.72713 44.9853 4.41179 44.7544 4.16965C44.5236 3.92188 44.166 3.79799 43.6817 3.79799Z" fill="#141E33"/>
<path d="M53.8525 3.71353C55.0632 3.71353 56.0093 4.01479 56.6906 4.61732C57.372 5.21422 57.7127 6.06734 57.7127 7.17667V13.4526H55.4236L54.7901 12.1856H54.7225C54.4522 12.5234 54.1735 12.7994 53.8863 13.0133C53.6048 13.2217 53.281 13.3737 52.9149 13.4695C52.5489 13.5708 52.1013 13.6215 51.5719 13.6215C51.0201 13.6215 50.5245 13.5089 50.0853 13.2836C49.6461 13.0584 49.2998 12.7177 49.0464 12.2616C48.793 11.8055 48.6663 11.2283 48.6663 10.53C48.6663 9.50514 49.021 8.74494 49.7305 8.2494C50.4401 7.75386 51.4677 7.47512 52.8136 7.41318L54.41 7.3625V7.22735C54.41 6.79939 54.303 6.49531 54.089 6.31511C53.8807 6.13491 53.5991 6.04482 53.2444 6.04482C52.8671 6.04482 52.4448 6.11239 51.9774 6.24754C51.5156 6.37705 51.051 6.54599 50.5837 6.75434L49.6292 4.57509C50.181 4.29353 50.8061 4.07955 51.5044 3.93314C52.2026 3.78673 52.9853 3.71353 53.8525 3.71353ZM54.4269 9.17854L53.6667 9.21233C53.0585 9.23485 52.6306 9.34184 52.3828 9.5333C52.1407 9.71913 52.0196 9.98661 52.0196 10.3357C52.0196 10.6623 52.1069 10.9045 52.2814 11.0622C52.456 11.2142 52.6869 11.2902 52.9741 11.2902C53.3739 11.2902 53.7146 11.1635 53.9961 10.9101C54.2833 10.6567 54.4269 10.3273 54.4269 9.92185V9.17854Z" fill="#141E33"/>
<path d="M62.8824 17.6083C61.5253 17.6083 60.4779 17.3803 59.7402 16.9242C59.0082 16.4737 58.6421 15.8233 58.6421 14.973C58.6421 14.4042 58.8195 13.934 59.1743 13.5624C59.5291 13.1907 60.0612 12.9232 60.7707 12.7599C60.4779 12.6361 60.2217 12.4361 60.0021 12.1602C59.7881 11.8843 59.6811 11.6112 59.6811 11.3409C59.6811 11.0424 59.7627 10.7806 59.926 10.5554C60.0893 10.3245 60.43 10.0514 60.9481 9.73602C60.4526 9.51641 60.0612 9.17291 59.774 8.70553C59.4924 8.23814 59.3517 7.6694 59.3517 6.99929C59.3517 6.30666 59.5093 5.71539 59.8247 5.22549C60.1457 4.73558 60.6102 4.36111 61.2184 4.10208C61.8322 3.84304 62.5783 3.71353 63.4568 3.71353C63.575 3.71353 63.7552 3.72479 63.9974 3.74731C64.2395 3.76421 64.4844 3.78673 64.7322 3.81489C64.98 3.83741 65.1714 3.85994 65.3066 3.88246H68.643V5.47889L67.3338 5.96035C67.4239 6.12365 67.4915 6.30103 67.5365 6.49249C67.5816 6.68395 67.6041 6.88667 67.6041 7.10065C67.6041 8.13115 67.2409 8.93077 66.5145 9.49951C65.7937 10.0683 64.7153 10.3526 63.2794 10.3526C62.9246 10.3526 62.6431 10.3301 62.4347 10.2851C62.3953 10.3583 62.3643 10.4315 62.3418 10.5047C62.3249 10.5722 62.3165 10.637 62.3165 10.6989C62.3165 10.8285 62.3925 10.9326 62.5445 11.0115C62.7022 11.0847 62.8908 11.1354 63.1104 11.1635C63.3357 11.1917 63.5497 11.2057 63.7524 11.2057H65.3404C66.4159 11.2057 67.2212 11.431 67.7561 11.8815C68.2911 12.332 68.5586 13.0105 68.5586 13.9171C68.5586 15.0828 68.0602 15.9894 67.0635 16.637C66.0724 17.2846 64.6787 17.6083 62.8824 17.6083ZM63.0429 15.5473C63.4427 15.5473 63.8453 15.5107 64.2508 15.4375C64.6562 15.37 64.9969 15.2573 65.2728 15.0997C65.5487 14.942 65.6867 14.7336 65.6867 14.4746C65.6867 14.2775 65.605 14.1283 65.4417 14.0269C65.2784 13.9312 65.0673 13.8665 64.8082 13.8327C64.5492 13.7989 64.2761 13.782 63.9889 13.782H62.705C62.4685 13.782 62.2517 13.8186 62.0546 13.8918C61.8632 13.9706 61.7111 14.0748 61.5985 14.2043C61.4859 14.3338 61.4296 14.4802 61.4296 14.6436C61.4296 14.9138 61.576 15.1306 61.8688 15.2939C62.1616 15.4629 62.553 15.5473 63.0429 15.5473ZM63.4906 8.48591C63.8059 8.48591 64.048 8.36484 64.217 8.1227C64.3915 7.88056 64.4788 7.51736 64.4788 7.03308C64.4788 6.53754 64.3972 6.16589 64.2339 5.91812C64.0706 5.67035 63.8228 5.54646 63.4906 5.54646C63.1471 5.54646 62.8908 5.67035 62.7219 5.91812C62.553 6.16025 62.4685 6.52628 62.4685 7.01619C62.4685 7.50609 62.553 7.87493 62.7219 8.1227C62.8908 8.36484 63.1471 8.48591 63.4906 8.48591Z" fill="#141E33"/>
<path d="M74.0662 3.71353C74.9953 3.71353 75.7977 3.87683 76.4735 4.20344C77.1492 4.52441 77.6701 5.00869 78.0361 5.65627C78.4021 6.30385 78.5851 7.11473 78.5851 8.08892V9.55864H72.6809C72.709 10.0598 72.8949 10.4709 73.2384 10.7919C73.5875 11.1128 74.0999 11.2733 74.7757 11.2733C75.3726 11.2733 75.9188 11.2142 76.4143 11.0959C76.9155 10.9777 77.4307 10.7947 77.9601 10.5469V12.9204C77.4983 13.1626 76.9943 13.3399 76.4481 13.4526C75.9019 13.5652 75.2121 13.6215 74.3787 13.6215C73.4158 13.6215 72.5542 13.4498 71.794 13.1063C71.0338 12.7628 70.4341 12.2306 69.9948 11.5098C69.5612 10.789 69.3444 9.86272 69.3444 8.73086C69.3444 7.58211 69.5415 6.6389 69.9357 5.90122C70.3299 5.15791 70.8817 4.60888 71.5913 4.25412C72.3008 3.89372 73.1258 3.71353 74.0662 3.71353ZM74.1844 5.96035C73.7959 5.96035 73.4693 6.08423 73.2046 6.332C72.9456 6.57414 72.7935 6.95706 72.7485 7.48075H75.5866C75.5809 7.1992 75.5246 6.94298 75.4176 6.7121C75.3106 6.48123 75.153 6.29822 74.9446 6.16307C74.7419 6.02792 74.4885 5.96035 74.1844 5.96035Z" fill="#141E33"/>
<path d="M85.0563 13.4526H81.7199V3.83178H78.7044V1.1035H88.0633V3.83178H85.0563V13.4526Z" fill="#141E33"/>
<path d="M92.5583 3.71353C93.4875 3.71353 94.2899 3.87683 94.9656 4.20344C95.6414 4.52441 96.1623 5.00869 96.5283 5.65627C96.8943 6.30385 97.0773 7.11473 97.0773 8.08892V9.55864H91.1731C91.2012 10.0598 91.3871 10.4709 91.7306 10.7919C92.0797 11.1128 92.5921 11.2733 93.2678 11.2733C93.8647 11.2733 94.411 11.2142 94.9065 11.0959C95.4077 10.9777 95.9229 10.7947 96.4523 10.5469V12.9204C95.9905 13.1626 95.4865 13.3399 94.9403 13.4526C94.3941 13.5652 93.7043 13.6215 92.8709 13.6215C91.9079 13.6215 91.0464 13.4498 90.2862 13.1063C89.526 12.7628 88.9262 12.2306 88.487 11.5098C88.0534 10.789 87.8366 9.86272 87.8366 8.73086C87.8366 7.58211 88.0337 6.6389 88.4279 5.90122C88.8221 5.15791 89.3739 4.60888 90.0834 4.25412C90.793 3.89372 91.6179 3.71353 92.5583 3.71353ZM92.6766 5.96035C92.288 5.96035 91.9614 6.08423 91.6968 6.332C91.4377 6.57414 91.2857 6.95706 91.2406 7.48075H94.0787C94.0731 7.1992 94.0168 6.94298 93.9098 6.7121C93.8028 6.48123 93.6451 6.29822 93.4368 6.16307C93.2341 6.02792 92.9807 5.96035 92.6766 5.96035Z" fill="#141E33"/>
<path d="M105.71 10.5131C105.71 11.1213 105.575 11.6591 105.305 12.1264C105.034 12.5938 104.601 12.9598 104.004 13.2245C103.413 13.4892 102.633 13.6215 101.664 13.6215C100.983 13.6215 100.372 13.5849 99.8313 13.5117C99.2963 13.4385 98.7529 13.2977 98.2011 13.0894V10.4455C98.8036 10.7215 99.4174 10.9214 100.042 11.0453C100.667 11.1635 101.16 11.2226 101.521 11.2226C101.892 11.2226 102.163 11.1832 102.332 11.1044C102.506 11.0199 102.593 10.896 102.593 10.7327C102.593 10.592 102.534 10.4737 102.416 10.378C102.303 10.2766 102.098 10.1612 101.799 10.0317C101.507 9.90214 101.093 9.72757 100.558 9.50796C100.028 9.28835 99.5863 9.04902 99.2316 8.78999C98.8824 8.53096 98.6206 8.22125 98.446 7.86085C98.2715 7.50046 98.1842 7.05842 98.1842 6.53472C98.1842 5.59996 98.5446 4.89607 99.2654 4.42305C99.9861 3.95004 100.941 3.71353 102.129 3.71353C102.759 3.71353 103.354 3.78392 103.911 3.92469C104.469 4.05984 105.046 4.25975 105.643 4.52441L104.739 6.65298C104.266 6.439 103.787 6.26724 103.303 6.13773C102.819 6.00821 102.433 5.94345 102.146 5.94345C101.887 5.94345 101.687 5.97724 101.546 6.04482C101.405 6.11239 101.335 6.21093 101.335 6.34045C101.335 6.4587 101.383 6.56288 101.478 6.65298C101.58 6.74308 101.768 6.84725 102.044 6.96551C102.32 7.08376 102.723 7.24988 103.252 7.46386C103.81 7.68911 104.269 7.93124 104.629 8.19028C104.995 8.44368 105.265 8.75339 105.44 9.11941C105.62 9.48544 105.71 9.95 105.71 10.5131Z" fill="#141E33"/>
<path d="M112.066 11.0115C112.365 11.0115 112.638 10.9805 112.886 10.9186C113.134 10.8566 113.393 10.7778 113.663 10.6821V13.0894C113.303 13.247 112.92 13.3737 112.514 13.4695C112.114 13.5708 111.602 13.6215 110.977 13.6215C110.357 13.6215 109.811 13.5258 109.338 13.3343C108.865 13.1372 108.496 12.7994 108.232 12.3207C107.973 11.8364 107.843 11.1635 107.843 10.3019V6.35734H106.686V5.01432L108.156 3.97537L109.009 1.96506H111.171V3.88246H113.519V6.35734H111.171V10.0823C111.171 10.392 111.25 10.6257 111.408 10.7834C111.565 10.9355 111.785 11.0115 112.066 11.0115Z" fill="#141E33"/>
<rect x="120.999" y="0.736291" width="23.269" height="13.2586" rx="2.37713" fill="url(#paint0_linear_30_55)" stroke="#466D14" stroke-width="0.754256"/>
<path d="M127.567 3.44334C128.516 3.44334 129.208 3.64781 129.644 4.05673C130.08 4.46231 130.298 5.02207 130.298 5.73602C130.298 6.0578 130.249 6.36617 130.152 6.66113C130.055 6.95274 129.895 7.21251 129.674 7.44044C129.456 7.66836 129.165 7.84936 128.799 7.98344C128.434 8.11416 127.983 8.17952 127.447 8.17952H126.778V10.794H125.219V3.44334H127.567ZM127.487 4.7204H126.778V6.90246H127.291C127.583 6.90246 127.836 6.86392 128.05 6.78682C128.265 6.70973 128.431 6.58906 128.548 6.42482C128.665 6.26058 128.724 6.04942 128.724 5.79132C128.724 5.42932 128.623 5.16117 128.422 4.98688C128.221 4.80923 127.909 4.7204 127.487 4.7204Z" fill="white"/>
<path d="M134.187 5.06732C134.264 5.06732 134.353 5.07235 134.454 5.0824C134.557 5.08911 134.641 5.09916 134.705 5.11257L134.589 6.55052C134.539 6.53376 134.467 6.52203 134.373 6.51532C134.283 6.50527 134.204 6.50024 134.137 6.50024C133.939 6.50024 133.746 6.52538 133.559 6.57566C133.374 6.62594 133.208 6.70806 133.061 6.82202C132.913 6.93263 132.796 7.08011 132.709 7.26446C132.625 7.44546 132.583 7.66836 132.583 7.93316V10.794H131.05V5.1729H132.211L132.437 6.11813H132.513C132.623 5.92707 132.761 5.75278 132.925 5.59524C133.093 5.43435 133.282 5.30698 133.493 5.21313C133.708 5.11592 133.939 5.06732 134.187 5.06732Z" fill="white"/>
<path d="M140.319 7.97338C140.319 8.44264 140.255 8.85827 140.128 9.22027C140.004 9.58228 139.821 9.88897 139.58 10.1404C139.342 10.3884 139.054 10.5761 138.715 10.7035C138.38 10.8308 138.001 10.8945 137.579 10.8945C137.183 10.8945 136.82 10.8308 136.488 10.7035C136.159 10.5761 135.873 10.3884 135.628 10.1404C135.387 9.88897 135.199 9.58228 135.065 9.22027C134.934 8.85827 134.869 8.44264 134.869 7.97338C134.869 7.34994 134.979 6.82202 135.201 6.38963C135.422 5.95724 135.737 5.62876 136.146 5.40418C136.555 5.17961 137.043 5.06732 137.609 5.06732C138.135 5.06732 138.601 5.17961 139.007 5.40418C139.416 5.62876 139.736 5.95724 139.967 6.38963C140.202 6.82202 140.319 7.34994 140.319 7.97338ZM136.432 7.97338C136.432 8.34209 136.473 8.65213 136.553 8.90352C136.634 9.15491 136.759 9.34429 136.93 9.47166C137.101 9.59903 137.324 9.66272 137.599 9.66272C137.87 9.66272 138.09 9.59903 138.258 9.47166C138.428 9.34429 138.553 9.15491 138.63 8.90352C138.71 8.65213 138.75 8.34209 138.75 7.97338C138.75 7.60133 138.71 7.29296 138.63 7.04827C138.553 6.80023 138.428 6.6142 138.258 6.49018C138.087 6.36617 137.864 6.30416 137.589 6.30416C137.183 6.30416 136.888 6.44326 136.704 6.72146C136.523 6.99967 136.432 7.41697 136.432 7.97338Z" fill="white"/>
<defs>
<linearGradient id="paint0_linear_30_55" x1="129.437" y1="6.80507" x2="138.741" y2="11.9072" gradientUnits="userSpaceOnUse">
<stop stop-color="#68A719"/>
<stop offset="1" stop-color="#68A718"/>
</linearGradient>
</defs>
</svg>
