<svg width="160" height="40" viewBox="0 0 160 40" fill="none" xmlns="http://www.w3.org/2000/svg">
<path d="M28.0572 28.5013C26.0244 29.6749 23.4251 28.9785 22.2515 26.9457C21.0779 24.9129 21.7744 22.3136 23.8071 21.1399C25.8399 19.9663 36.3276 18.8188 36.3276 18.8188C36.3276 18.8188 30.09 27.3277 28.0572 28.5013Z" fill="#51BAF9"/>
<path fill-rule="evenodd" clip-rule="evenodd" d="M31.4086 7.25723C34.7331 8.90141 37.3636 11.3887 39.1694 14.3329C37.7383 12.454 35.8482 10.8578 33.566 9.72907C25.9411 5.95808 16.8261 8.83313 13.2071 16.1507C10.9391 20.7365 11.3679 25.9789 13.8808 30.182L6.6147 33.8891C3.4927 28.5588 3.02873 21.8106 5.9719 15.8595C10.6206 6.4599 22.009 2.60853 31.4086 7.25723Z" fill="#141E33"/>
<path d="M62.7618 5.63009L59.7867 17.7126H55.9272L54.7702 12.4482C54.7481 12.349 54.7123 12.181 54.6627 11.9441C54.6187 11.7072 54.5663 11.4372 54.5057 11.1342C54.4506 10.8311 54.3983 10.5336 54.3487 10.2416C54.3046 9.9441 54.2716 9.69341 54.2495 9.48955C54.2275 9.69341 54.1917 9.9441 54.1421 10.2416C54.0925 10.5336 54.0374 10.8311 53.9768 11.1342C53.9217 11.4372 53.8666 11.7072 53.8115 11.9441C53.7619 12.181 53.7261 12.349 53.7041 12.4482L52.5388 17.7126H48.6793L45.6876 5.63009H48.8364L50.1504 11.6879C50.1835 11.8366 50.2275 12.0488 50.2826 12.3242C50.3432 12.5942 50.4038 12.8917 50.4644 13.2168C50.5306 13.5363 50.5912 13.8449 50.6463 14.1424C50.7014 14.4399 50.7399 14.6878 50.762 14.8862C50.806 14.5446 50.8639 14.1562 50.9355 13.7209C51.0126 13.2857 51.0953 12.8449 51.1834 12.3986C51.2771 11.9468 51.3653 11.5281 51.4479 11.1424C51.5305 10.7568 51.6022 10.4427 51.6628 10.2003L52.7289 5.63009H55.7536L56.7867 10.2003C56.8418 10.4372 56.9107 10.7512 56.9933 11.1424C57.0815 11.5281 57.1696 11.9468 57.2578 12.3986C57.3514 12.8504 57.4368 13.2967 57.514 13.7374C57.5911 14.1727 57.6489 14.5556 57.6875 14.8862C57.7206 14.6107 57.7757 14.2636 57.8528 13.8449C57.9299 13.4206 58.0071 13.0102 58.0842 12.6135C58.1668 12.2113 58.2302 11.9083 58.2743 11.7044L59.6131 5.63009H62.7618Z" fill="#141E33"/>
<path d="M67.333 8.18378C68.2421 8.18378 69.0272 8.34356 69.6884 8.66312C70.3495 8.97716 70.8592 9.45099 71.2173 10.0846C71.5754 10.7182 71.7545 11.5116 71.7545 12.4647V13.9027H65.9777C66.0052 14.3931 66.187 14.7953 66.5231 15.1093C66.8647 15.4234 67.3661 15.5804 68.0272 15.5804C68.6112 15.5804 69.1457 15.5225 69.6305 15.4068C70.1209 15.2911 70.625 15.1121 71.1429 14.8697V17.192C70.6911 17.4289 70.198 17.6024 69.6636 17.7126C69.1292 17.8228 68.4542 17.8779 67.6388 17.8779C66.6967 17.8779 65.8537 17.7099 65.1099 17.3738C64.3661 17.0377 63.7793 16.517 63.3496 15.8118C62.9254 15.1066 62.7132 14.2002 62.7132 13.0928C62.7132 11.9689 62.9061 11.046 63.2917 10.3243C63.6774 9.59699 64.2174 9.05981 64.9116 8.7127C65.6058 8.36009 66.4129 8.18378 67.333 8.18378ZM67.4487 10.3821C67.0686 10.3821 66.749 10.5033 66.4901 10.7457C66.2366 10.9827 66.0879 11.3573 66.0438 11.8697H68.8206C68.8151 11.5942 68.76 11.3435 68.6553 11.1176C68.5506 10.8917 68.3964 10.7127 68.1925 10.5805C67.9942 10.4482 67.7462 10.3821 67.4487 10.3821Z" fill="#141E33"/>
<path d="M76.3045 4.85324V7.7623C76.3045 8.09288 76.2935 8.40968 76.2714 8.7127C76.2494 9.01022 76.2219 9.29121 76.1888 9.55567H76.3045C76.5469 9.17551 76.8637 8.8532 77.2549 8.58874C77.6461 8.31877 78.1585 8.18378 78.7921 8.18378C79.7673 8.18378 80.5634 8.597 81.1805 9.42344C81.8031 10.2499 82.1144 11.4455 82.1144 13.0102C82.1144 14.0735 81.9711 14.9688 81.6846 15.6961C81.3981 16.4179 80.9959 16.9633 80.478 17.3324C79.9656 17.6961 79.3706 17.8779 78.6929 17.8779C78.0318 17.8779 77.5276 17.7649 77.1805 17.5391C76.8389 17.3077 76.5469 17.0597 76.3045 16.7953H76.1062L75.5938 17.7126H73.0731V4.85324H76.3045ZM77.6103 10.7209C77.3128 10.7209 77.0676 10.7898 76.8747 10.9276C76.6819 11.0653 76.5387 11.2802 76.445 11.5722C76.3513 11.8587 76.3045 12.2251 76.3045 12.6713V13.1259C76.3045 13.8531 76.4009 14.3931 76.5938 14.7457C76.7921 15.0983 77.142 15.2746 77.6433 15.2746C78.0235 15.2746 78.3155 15.079 78.5194 14.6878C78.7232 14.2967 78.8251 13.7264 78.8251 12.9771C78.8251 12.2278 78.726 11.6658 78.5276 11.2912C78.3293 10.911 78.0235 10.7209 77.6103 10.7209Z" fill="#141E33"/>
<path d="M87.9989 5.63009C89.5306 5.63009 90.6766 5.96342 91.4369 6.63008C92.2027 7.29674 92.5856 8.24439 92.5856 9.47303C92.5856 10.024 92.5058 10.5529 92.346 11.0598C92.1917 11.5667 91.9355 12.0185 91.5774 12.4151C91.2248 12.8118 90.7537 13.1259 90.1642 13.3573C89.5802 13.5887 88.8584 13.7044 87.9989 13.7044H87.0816V17.7126H83.8171V5.63009H87.9989ZM87.9245 8.26643H87.0816V11.0433H87.7262C88.0072 11.0433 88.2689 10.9964 88.5113 10.9028C88.7537 10.8036 88.9466 10.6466 89.0898 10.4317C89.2386 10.2113 89.313 9.9193 89.313 9.55567C89.313 9.17551 89.2 8.86697 88.9741 8.63006C88.7482 8.38764 88.3984 8.26643 87.9245 8.26643Z" fill="#141E33"/>
<path d="M97.8758 8.18378C99.0604 8.18378 99.986 8.47855 100.653 9.06807C101.319 9.65209 101.653 10.4868 101.653 11.5722V17.7126H99.413L98.7932 16.4729H98.7271C98.4626 16.8035 98.1899 17.0735 97.9089 17.2829C97.6334 17.4867 97.3166 17.6355 96.9585 17.7291C96.6004 17.8283 96.1624 17.8779 95.6445 17.8779C95.1045 17.8779 94.6197 17.7677 94.1899 17.5473C93.7602 17.3269 93.4213 16.9936 93.1734 16.5473C92.9255 16.1011 92.8015 15.5363 92.8015 14.8531C92.8015 13.8504 93.1486 13.1066 93.8428 12.6218C94.537 12.1369 95.5425 11.8642 96.8593 11.8036L98.4213 11.754V11.6218C98.4213 11.203 98.3166 10.9055 98.1072 10.7292C97.9034 10.5529 97.6279 10.4648 97.2808 10.4648C96.9117 10.4648 96.4984 10.5309 96.0411 10.6631C95.5894 10.7898 95.1348 10.9551 94.6775 11.159L93.7437 9.02675C94.2836 8.75127 94.8952 8.54191 95.5783 8.39866C96.2615 8.25541 97.0274 8.18378 97.8758 8.18378ZM98.4378 13.5308L97.694 13.5639C97.099 13.5859 96.6803 13.6906 96.4378 13.8779C96.2009 14.0598 96.0825 14.3215 96.0825 14.6631C96.0825 14.9826 96.1679 15.2195 96.3387 15.3738C96.5095 15.5225 96.7354 15.5969 97.0163 15.5969C97.4075 15.5969 97.7409 15.473 98.0163 15.225C98.2973 14.9771 98.4378 14.6548 98.4378 14.2581V13.5308Z" fill="#141E33"/>
<path d="M106.711 21.7787C105.383 21.7787 104.358 21.5555 103.636 21.1093C102.92 20.6685 102.562 20.0321 102.562 19.2002C102.562 18.6437 102.736 18.1837 103.083 17.82C103.43 17.4564 103.95 17.1947 104.645 17.0349C104.358 16.9137 104.108 16.7181 103.893 16.4482C103.683 16.1782 103.579 15.911 103.579 15.6465C103.579 15.3545 103.658 15.0983 103.818 14.8779C103.978 14.652 104.311 14.3848 104.818 14.0763C104.333 13.8614 103.95 13.5253 103.669 13.068C103.394 12.6107 103.256 12.0543 103.256 11.3986C103.256 10.7209 103.411 10.1424 103.719 9.66311C104.033 9.18377 104.488 8.81739 105.083 8.56395C105.683 8.3105 106.413 8.18378 107.273 8.18378C107.388 8.18378 107.565 8.1948 107.802 8.21684C108.039 8.23337 108.278 8.25541 108.521 8.28296C108.763 8.30499 108.95 8.32703 109.083 8.34907H112.347V9.91104L111.066 10.3821C111.154 10.5419 111.22 10.7154 111.264 10.9028C111.309 11.0901 111.331 11.2884 111.331 11.4978C111.331 12.5061 110.975 13.2884 110.264 13.8449C109.559 14.4013 108.504 14.6796 107.099 14.6796C106.752 14.6796 106.477 14.6575 106.273 14.6135C106.234 14.6851 106.204 14.7567 106.182 14.8283C106.165 14.8945 106.157 14.9578 106.157 15.0184C106.157 15.1451 106.231 15.2471 106.38 15.3242C106.534 15.3958 106.719 15.4454 106.934 15.473C107.154 15.5005 107.364 15.5143 107.562 15.5143H109.116C110.168 15.5143 110.956 15.7347 111.479 16.1754C112.003 16.6162 112.264 17.2801 112.264 18.1671C112.264 19.3076 111.777 20.1947 110.802 20.8283C109.832 21.4619 108.468 21.7787 106.711 21.7787ZM106.868 19.7622C107.259 19.7622 107.653 19.7264 108.05 19.6547C108.446 19.5886 108.78 19.4784 109.05 19.3242C109.32 19.1699 109.455 18.966 109.455 18.7126C109.455 18.5198 109.375 18.3738 109.215 18.2746C109.055 18.1809 108.849 18.1176 108.595 18.0845C108.342 18.0514 108.074 18.0349 107.793 18.0349H106.537C106.306 18.0349 106.094 18.0707 105.901 18.1424C105.714 18.2195 105.565 18.3214 105.455 18.4481C105.344 18.5749 105.289 18.7181 105.289 18.8779C105.289 19.1423 105.433 19.3545 105.719 19.5142C106.006 19.6795 106.388 19.7622 106.868 19.7622ZM107.306 12.8532C107.614 12.8532 107.851 12.7347 108.017 12.4978C108.187 12.2609 108.273 11.9055 108.273 11.4317C108.273 10.9468 108.193 10.5832 108.033 10.3408C107.873 10.0984 107.631 9.97715 107.306 9.97715C106.97 9.97715 106.719 10.0984 106.554 10.3408C106.388 10.5777 106.306 10.9358 106.306 11.4152C106.306 11.8945 106.388 12.2554 106.554 12.4978C106.719 12.7347 106.97 12.8532 107.306 12.8532Z" fill="#141E33"/>
<path d="M117.653 8.18378C118.562 8.18378 119.347 8.34356 120.008 8.66312C120.67 8.97716 121.179 9.45099 121.537 10.0846C121.896 10.7182 122.075 11.5116 122.075 12.4647V13.9027H116.298C116.325 14.3931 116.507 14.7953 116.843 15.1093C117.185 15.4234 117.686 15.5804 118.347 15.5804C118.931 15.5804 119.466 15.5225 119.951 15.4068C120.441 15.2911 120.945 15.1121 121.463 14.8697V17.192C121.011 17.4289 120.518 17.6024 119.984 17.7126C119.449 17.8228 118.774 17.8779 117.959 17.8779C117.017 17.8779 116.174 17.7099 115.43 17.3738C114.686 17.0377 114.099 16.517 113.67 15.8118C113.245 15.1066 113.033 14.2002 113.033 13.0928C113.033 11.9689 113.226 11.046 113.612 10.3243C113.998 9.59699 114.537 9.05981 115.232 8.7127C115.926 8.36009 116.733 8.18378 117.653 8.18378ZM117.769 10.3821C117.389 10.3821 117.069 10.5033 116.81 10.7457C116.557 10.9827 116.408 11.3573 116.364 11.8697H119.141C119.135 11.5942 119.08 11.3435 118.975 11.1176C118.871 10.8917 118.716 10.7127 118.513 10.5805C118.314 10.4482 118.066 10.3821 117.769 10.3821Z" fill="#141E33"/>
<path d="M128.406 17.7126H125.142V8.29948H122.191V5.63009H131.348V8.29948H128.406V17.7126Z" fill="#141E33"/>
<path d="M135.746 8.18378C136.655 8.18378 137.44 8.34356 138.102 8.66312C138.763 8.97716 139.272 9.45099 139.63 10.0846C139.989 10.7182 140.168 11.5116 140.168 12.4647V13.9027H134.391C134.418 14.3931 134.6 14.7953 134.936 15.1093C135.278 15.4234 135.779 15.5804 136.44 15.5804C137.024 15.5804 137.559 15.5225 138.044 15.4068C138.534 15.2911 139.038 15.1121 139.556 14.8697V17.192C139.104 17.4289 138.611 17.6024 138.077 17.7126C137.542 17.8228 136.867 17.8779 136.052 17.8779C135.11 17.8779 134.267 17.7099 133.523 17.3738C132.779 17.0377 132.192 16.517 131.763 15.8118C131.339 15.1066 131.126 14.2002 131.126 13.0928C131.126 11.9689 131.319 11.046 131.705 10.3243C132.091 9.59699 132.63 9.05981 133.325 8.7127C134.019 8.36009 134.826 8.18378 135.746 8.18378ZM135.862 10.3821C135.482 10.3821 135.162 10.5033 134.903 10.7457C134.65 10.9827 134.501 11.3573 134.457 11.8697H137.234C137.228 11.5942 137.173 11.3435 137.068 11.1176C136.964 10.8917 136.81 10.7127 136.606 10.5805C136.407 10.4482 136.159 10.3821 135.862 10.3821Z" fill="#141E33"/>
<path d="M148.614 14.8366C148.614 15.4316 148.482 15.9578 148.217 16.4151C147.953 16.8724 147.529 17.2305 146.945 17.4895C146.366 17.7484 145.603 17.8779 144.656 17.8779C143.989 17.8779 143.391 17.8421 142.862 17.7705C142.339 17.6988 141.807 17.5611 141.267 17.3572V14.7705C141.857 15.0405 142.457 15.236 143.069 15.3573C143.68 15.473 144.162 15.5308 144.515 15.5308C144.879 15.5308 145.143 15.4922 145.308 15.4151C145.479 15.3325 145.565 15.2113 145.565 15.0515C145.565 14.9137 145.507 14.798 145.391 14.7044C145.281 14.6052 145.08 14.4923 144.788 14.3655C144.501 14.2388 144.096 14.068 143.573 13.8531C143.055 13.6383 142.622 13.4041 142.275 13.1507C141.934 12.8972 141.678 12.5942 141.507 12.2416C141.336 11.889 141.251 11.4565 141.251 10.9441C141.251 10.0295 141.603 9.3408 142.308 8.87799C143.014 8.41519 143.948 8.18378 145.11 8.18378C145.727 8.18378 146.308 8.25265 146.854 8.39039C147.399 8.52262 147.964 8.71821 148.548 8.97716L147.664 11.0598C147.201 10.8504 146.733 10.6824 146.259 10.5557C145.785 10.4289 145.408 10.3656 145.127 10.3656C144.873 10.3656 144.678 10.3986 144.54 10.4648C144.402 10.5309 144.333 10.6273 144.333 10.754C144.333 10.8697 144.38 10.9716 144.474 11.0598C144.573 11.1479 144.757 11.2499 145.027 11.3656C145.297 11.4813 145.691 11.6438 146.209 11.8532C146.755 12.0735 147.204 12.3105 147.556 12.5639C147.914 12.8118 148.179 13.1149 148.35 13.473C148.526 13.8311 148.614 14.2856 148.614 14.8366Z" fill="#141E33"/>
<path d="M154.833 15.3242C155.125 15.3242 155.392 15.2939 155.635 15.2333C155.877 15.1727 156.131 15.0956 156.395 15.0019V17.3572C156.043 17.5115 155.668 17.6355 155.271 17.7291C154.88 17.8283 154.379 17.8779 153.767 17.8779C153.161 17.8779 152.627 17.7842 152.164 17.5969C151.701 17.4041 151.34 17.0735 151.081 16.6052C150.828 16.1314 150.701 15.473 150.701 14.63V10.7705H149.569V9.4565L151.007 8.43998L151.842 6.47306H153.957V8.34907H156.255V10.7705H153.957V14.4151C153.957 14.7181 154.034 14.9468 154.189 15.1011C154.343 15.2498 154.558 15.3242 154.833 15.3242Z" fill="#141E33"/>
<path d="M127.661 31.9582C127.659 32.0951 127.618 32.2284 127.543 32.3413C127.468 32.4543 127.362 32.5418 127.238 32.5931C127.115 32.6443 126.979 32.6568 126.849 32.6292C126.718 32.6015 126.599 32.5348 126.505 32.4375C126.411 32.3402 126.348 32.2166 126.322 32.0823C126.297 31.948 126.31 31.8089 126.361 31.6826C126.413 31.5563 126.499 31.4483 126.61 31.3723C126.721 31.2963 126.851 31.2556 126.984 31.2554C127.074 31.2554 127.162 31.2736 127.245 31.309C127.328 31.3444 127.402 31.3963 127.465 31.4617C127.528 31.5271 127.578 31.6046 127.612 31.6899C127.645 31.7751 127.662 31.8663 127.661 31.9582V31.9582ZM127.545 31.9582C127.549 31.8807 127.537 31.8032 127.51 31.7305C127.483 31.6578 127.443 31.5914 127.39 31.5353C127.338 31.4792 127.275 31.4346 127.206 31.4041C127.136 31.3736 127.061 31.3578 126.986 31.3578C126.91 31.3578 126.835 31.3736 126.766 31.4041C126.696 31.4346 126.633 31.4792 126.581 31.5353C126.529 31.5914 126.488 31.6578 126.462 31.7305C126.435 31.8032 126.423 31.8807 126.426 31.9582C126.423 32.0358 126.435 32.1133 126.462 32.186C126.488 32.2587 126.529 32.3251 126.581 32.3812C126.633 32.4373 126.696 32.4819 126.766 32.5124C126.835 32.5429 126.91 32.5587 126.986 32.5587C127.061 32.5587 127.136 32.5429 127.206 32.5124C127.275 32.4819 127.338 32.4373 127.39 32.3812C127.443 32.3251 127.483 32.2587 127.51 32.186C127.537 32.1133 127.549 32.0358 127.545 31.9582ZM127.089 32.0594L127.26 32.3113H127.126L126.957 32.0693H126.888V32.3113H126.764V31.6228H127.018C127.047 31.621 127.076 31.6255 127.102 31.6359C127.129 31.6463 127.153 31.6625 127.174 31.6833C127.194 31.7041 127.21 31.729 127.22 31.7565C127.23 31.784 127.234 31.8134 127.233 31.8428C127.24 31.8908 127.229 31.9399 127.202 31.9801C127.176 32.0202 127.135 32.0486 127.089 32.0594V32.0594ZM126.885 31.7416V31.9615H127.018C127.047 31.9615 127.074 31.95 127.094 31.9293C127.114 31.9087 127.126 31.8807 127.126 31.8516C127.126 31.8224 127.114 31.7944 127.094 31.7738C127.074 31.7531 127.047 31.7416 127.018 31.7416H126.885ZM89.5086 30.6592C89.3436 31.0413 89.11 31.3879 88.82 31.6811C88.3657 32.1474 87.7869 32.4648 87.1569 32.593C86.5269 32.7213 85.874 32.6546 85.2809 32.4015C84.6878 32.1484 84.1812 31.7202 83.8252 31.1712C83.4692 30.6222 83.2798 29.977 83.2811 29.3173C83.2743 28.8798 83.3552 28.4456 83.5188 28.0416C83.6824 27.6376 83.9252 27.2724 84.2321 26.9689C84.8406 26.3443 85.6657 25.9934 86.526 25.9934C87.3864 25.9934 88.2115 26.3443 88.82 26.9689C89.106 27.2582 89.3373 27.5995 89.5022 27.9754H87.8561C87.8454 27.9655 87.8379 27.9545 87.8272 27.9446C87.6617 27.7648 87.4611 27.6229 87.2385 27.5281C87.016 27.4334 86.7765 27.3879 86.5357 27.3946C86.2928 27.3895 86.0515 27.4357 85.8268 27.5303C85.602 27.6249 85.3986 27.7659 85.2291 27.9446C85.056 28.125 84.9206 28.3398 84.8311 28.5758C84.7416 28.8119 84.6999 29.0642 84.7086 29.3173C84.7013 29.5726 84.7436 29.8268 84.833 30.0651C84.9223 30.3034 85.057 30.5211 85.2291 30.7054C85.4017 30.879 85.6062 31.0155 85.8307 31.1071C86.0552 31.1987 86.2952 31.2435 86.5367 31.2389C86.776 31.2451 87.0141 31.2009 87.2362 31.1092C87.4583 31.0175 87.6598 30.88 87.8283 30.7054C87.8433 30.69 87.8551 30.6746 87.869 30.6592H89.5086ZM68.6252 30.6317C68.6113 30.6471 68.5984 30.6636 68.5845 30.6779C68.4158 30.8526 68.2141 30.9901 67.9918 31.0818C67.7696 31.1736 67.5313 31.2177 67.2919 31.2114C67.0514 31.2146 66.8127 31.1687 66.5895 31.0766C66.3664 30.9845 66.1632 30.8479 65.9917 30.6746C65.8198 30.4903 65.6853 30.2726 65.5961 30.0342C65.5069 29.7959 65.4648 29.5417 65.4723 29.2865C65.4634 29.0336 65.5048 28.7815 65.5942 28.5456C65.6835 28.3097 65.8188 28.0951 65.9917 27.9149C66.1611 27.736 66.3645 27.5949 66.5893 27.5003C66.8141 27.4057 67.0554 27.3596 67.2983 27.3649C67.5393 27.358 67.779 27.4034 68.0017 27.4982C68.2245 27.593 68.4253 27.735 68.5909 27.9149L68.6188 27.9457H70.2669C70.1027 27.5693 69.8718 27.2277 69.5858 26.9381C69.2901 26.623 68.9344 26.3738 68.5409 26.206C68.1473 26.0381 67.7244 25.9552 67.2983 25.9625C66.87 25.9541 66.4446 26.0363 66.0486 26.2042C65.6527 26.372 65.2946 26.6219 64.9968 26.9381C64.6898 27.2421 64.447 27.6078 64.2835 28.0124C64.1201 28.417 64.0395 28.8518 64.0469 29.2898C64.0385 29.7297 64.1185 30.1667 64.282 30.5734C64.4454 30.9801 64.6888 31.3478 64.9968 31.6536C65.2973 31.9652 65.6562 32.211 66.0517 32.3763C66.4473 32.5415 66.8713 32.6227 67.2983 32.6149C67.723 32.6213 68.1446 32.5394 68.5377 32.3742C68.9308 32.209 69.2873 31.9639 69.5858 31.6536C69.8758 31.3606 70.1091 31.0139 70.2734 30.6317H68.6252ZM125.348 31.2114C124.649 31.2114 124.308 30.8154 124.308 30.007V27.5211H125.526V26.1176H124.314V23.2203H122.904V30.007C122.904 31.8769 123.914 32.6149 125.354 32.6149H125.651V31.2114H125.348ZM82.1791 31.2114V32.6149H81.8888C80.4484 32.6149 79.4385 31.8824 79.4385 30.007V23.2203H80.8489V26.1176H82.0666V27.5211H80.8489V30.007C80.8489 30.8154 81.1906 31.2114 81.8888 31.2114H82.1791ZM102.702 29.2447C102.702 30.3578 101.899 31.1663 100.876 31.1663C99.8518 31.1663 99.0486 30.3578 99.0486 29.2447C99.0486 28.1316 99.8218 27.3231 100.876 27.3231C101.899 27.3231 102.702 28.147 102.702 29.2447ZM99.2574 32.1276C99.5091 32.3256 100.177 32.5676 100.876 32.5676C101.303 32.5753 101.728 32.4947 102.125 32.3307C102.522 32.1666 102.882 31.9224 103.186 31.6125C103.489 31.3026 103.728 30.9334 103.89 30.5267C104.052 30.1199 104.132 29.684 104.127 29.2447C104.134 28.8073 104.053 28.3731 103.89 27.9691C103.726 27.5651 103.484 27.1999 103.177 26.8963C102.88 26.5788 102.522 26.328 102.126 26.1601C101.73 25.9921 101.304 25.9106 100.876 25.9207C100.029 25.9105 99.2106 26.2341 98.5891 26.8248C97.9466 27.4188 97.6253 28.2427 97.6253 29.2953V35.4923H99.0507V31.9725L99.2574 32.1276ZM106.67 29.2898C106.663 29.5445 106.706 29.798 106.795 30.0357C106.884 30.2734 107.018 30.4906 107.19 30.6746C107.362 30.8485 107.566 30.9852 107.791 31.0768C108.015 31.1684 108.255 31.2131 108.496 31.2081C108.736 31.2143 108.974 31.1701 109.196 31.0784C109.418 30.9867 109.619 30.8493 109.788 30.6746C109.965 30.4934 110.104 30.2767 110.196 30.0378C110.289 29.799 110.332 29.5432 110.323 29.2865C110.333 29.0321 110.29 28.7784 110.198 28.542C110.106 28.3057 109.966 28.092 109.788 27.9149C109.622 27.7351 109.422 27.5932 109.199 27.4984C108.977 27.4037 108.737 27.3582 108.496 27.3649C108.254 27.3594 108.012 27.4054 107.787 27.5C107.563 27.5947 107.359 27.7359 107.19 27.9149C107.017 28.0955 106.881 28.3107 106.792 28.5471C106.702 28.7836 106.661 29.0363 106.67 29.2898V29.2898ZM106.195 26.9414C106.804 26.3167 107.629 25.9658 108.489 25.9658C109.35 25.9658 110.175 26.3167 110.784 26.9414C111.091 27.245 111.333 27.6102 111.497 28.0142C111.66 28.4182 111.741 28.8524 111.734 29.2898C111.742 29.7298 111.662 30.1668 111.498 30.5735C111.335 30.9802 111.091 31.3479 110.783 31.6536C110.17 32.2698 109.346 32.6149 108.488 32.6149C107.631 32.6149 106.807 32.2698 106.194 31.6536C105.886 31.3478 105.642 30.9801 105.479 30.5734C105.316 30.1667 105.236 29.7297 105.244 29.2898C105.237 28.8524 105.318 28.4182 105.481 28.0142C105.645 27.6102 105.887 27.245 106.194 26.9414H106.195ZM117.439 29.1072C117.439 28.0073 117.928 27.4452 118.7 27.4452C119.473 27.4452 119.978 28.0249 119.978 29.1072V32.6149H121.403V29.1072C121.403 28.0854 121.136 27.3077 120.601 26.8039C120.084 26.3137 119.405 26.0415 118.701 26.0415C117.997 26.0415 117.318 26.3137 116.801 26.8039C116.28 27.3077 116.013 28.07 116.013 29.1072V32.6149H117.439V29.1072ZM113.112 26.1176H114.538V32.6149H113.113L113.112 26.1176ZM90.8269 23.2269V32.6149H92.2524V29.1072C92.2524 27.9941 92.7568 27.4452 93.5139 27.4452C94.2872 27.4452 94.7916 28.0095 94.7916 29.1072V32.6149H96.217V29.1072C96.217 28.1173 95.9643 27.3539 95.4598 26.8347C95.2319 26.5796 94.9539 26.377 94.6441 26.2403C94.3344 26.1036 93.9999 26.0359 93.6628 26.0417C93.1601 26.0378 92.6681 26.1913 92.2524 26.4817V23.2269H90.8269ZM74.5422 31.2114C75.5671 31.2114 76.3692 30.4029 76.3692 29.2898C76.3692 28.1767 75.5949 27.3682 74.5422 27.3682C73.5183 27.3682 72.7216 28.1921 72.7216 29.2898C72.7216 30.3875 73.5237 31.2114 74.5422 31.2114ZM76.3628 32.5445V32.0198C76.2946 32.0802 76.2231 32.1364 76.1486 32.1881C75.6526 32.4565 75.1026 32.6026 74.5422 32.6149C74.1141 32.6229 73.6889 32.5425 73.2917 32.3784C72.8945 32.2144 72.5334 31.97 72.2299 31.6599C71.9265 31.3497 71.6868 30.9801 71.5251 30.573C71.3634 30.1658 71.283 29.7295 71.2886 29.2898C71.2855 28.8509 71.3676 28.4157 71.5302 28.0098C71.6928 27.6039 71.9326 27.2354 72.2356 26.9259C72.5385 26.6163 72.8986 26.372 73.2947 26.2071C73.6907 26.0423 74.1148 25.9602 74.5422 25.9658C75.3883 25.9544 76.2065 26.2764 76.8286 26.8655C77.4712 27.4595 77.7925 28.2834 77.7925 29.336V32.5445H76.3628Z" fill="#141E33"/>
<path d="M113.203 23.4799C113.37 23.3164 113.592 23.2265 113.823 23.2292C114.053 23.2319 114.274 23.3272 114.437 23.4946C114.6 23.662 114.692 23.8883 114.695 24.125C114.698 24.3617 114.61 24.5901 114.451 24.7614C114.284 24.9249 114.062 25.0148 113.831 25.0121C113.601 25.0094 113.38 24.9141 113.217 24.7467C113.054 24.5793 112.962 24.353 112.959 24.1163C112.956 23.8796 113.044 23.6512 113.203 23.4799Z" fill="#00BBFF"/>
<path d="M47.41 23.7223H48.7613V26.8515H48.785C48.8798 26.7014 48.9944 26.567 49.1287 26.4485C49.2631 26.33 49.4093 26.2312 49.5673 26.1522C49.7332 26.0652 49.9031 26.002 50.077 25.9625C50.2587 25.9151 50.4365 25.8914 50.6104 25.8914C51.0924 25.8914 51.5112 25.9783 51.8668 26.1522C52.2303 26.3181 52.5306 26.5512 52.7676 26.8515C53.0047 27.1439 53.1825 27.4876 53.301 27.8827C53.4195 28.2778 53.4788 28.7006 53.4788 29.151C53.4788 29.5619 53.4235 29.9609 53.3129 30.3481C53.2101 30.7353 53.0482 31.0791 52.8269 31.3794C52.6135 31.6717 52.3409 31.9088 52.009 32.0905C51.6771 32.2644 51.286 32.3513 50.8356 32.3513C50.6301 32.3513 50.4207 32.3355 50.2074 32.3039C50.0019 32.2802 49.8044 32.2288 49.6147 32.1498C49.4251 32.0708 49.2512 31.9681 49.0932 31.8416C48.943 31.7152 48.8166 31.5493 48.7139 31.3438H48.6902V32.1854H47.41V23.7223ZM52.1276 29.1273C52.1276 28.8507 52.092 28.582 52.0209 28.3213C51.9498 28.0605 51.8431 27.8313 51.7009 27.6338C51.5586 27.4283 51.3808 27.2663 51.1675 27.1478C50.9541 27.0214 50.7091 26.9582 50.4326 26.9582C49.8636 26.9582 49.433 27.1557 49.1406 27.5508C48.8561 27.9459 48.7139 28.4714 48.7139 29.1273C48.7139 29.4355 48.7494 29.7239 48.8206 29.9926C48.8996 30.2533 49.0142 30.4785 49.1643 30.6682C49.3144 30.8578 49.4922 31.008 49.6977 31.1186C49.911 31.2292 50.156 31.2845 50.4326 31.2845C50.7408 31.2845 51.0015 31.2213 51.2149 31.0949C51.4282 30.9685 51.6021 30.8065 51.7364 30.6089C51.8786 30.4035 51.9774 30.1743 52.0327 29.9214C52.096 29.6607 52.1276 29.396 52.1276 29.1273Z" fill="#141E33"/>
<path d="M53.945 26.0573H55.4266L57.0268 30.6326H57.0505L58.6032 26.0573H60.0137L57.6313 32.5173C57.5206 32.7938 57.41 33.0585 57.2994 33.3114C57.1967 33.5643 57.0663 33.7855 56.9082 33.9752C56.7581 34.1727 56.5685 34.3268 56.3393 34.4375C56.1101 34.556 55.8178 34.6153 55.4622 34.6153C55.1461 34.6153 54.834 34.5915 54.5258 34.5441V33.4062C54.6364 33.422 54.7431 33.4378 54.8458 33.4537C54.9485 33.4774 55.0552 33.4892 55.1658 33.4892C55.3239 33.4892 55.4543 33.4695 55.557 33.4299C55.6597 33.3904 55.7427 33.3312 55.8059 33.2521C55.877 33.181 55.9363 33.0941 55.9837 32.9914C56.0311 32.8887 56.0746 32.7701 56.1141 32.6358L56.2682 32.1617L53.945 26.0573Z" fill="#141E33"/>
</svg>
