<svg fill="none" height="79" viewBox="0 0 262 79" width="262" xmlns="http://www.w3.org/2000/svg"><path d="m237.783 32.8131h.15c.022 0 .047-.0027.072-.0055s.049-.0083.072-.0166c.022-.0111.041-.0277.055-.047.014-.0222.022-.0499.022-.0858 0-.0388-.008-.0664-.022-.0858-.014-.0221-.033-.0387-.055-.047-.023-.0111-.047-.0166-.072-.0194s-.05-.0028-.072-.0028h-.15zm-.373-.5976h.509c.039 0 .094.0027.16.0083.07.0027.139.0221.205.0498.064.0304.122.0774.172.1383.049.0637.074.1522.074.2684 0 .072-.011.1328-.03.1799-.019.0498-.044.0885-.075.119-.03.0304-.066.0553-.108.0691-.038.0166-.08.0277-.121.0332l.368.57h-.388l-.326-.5534h-.064v.5534h-.376zm-.468.7332c0 .1411.025.2767.078.4012.052.1273.121.238.213.3321.091.0913.196.166.318.2213.119.0554.249.083.384.083.139 0 .269-.0276.388-.083.122-.0553.227-.13.318-.2213.089-.0941.161-.2048.213-.3321.05-.1245.078-.2601.078-.4012 0-.1439-.028-.2767-.078-.404-.052-.1273-.124-.2352-.213-.3292-.091-.0941-.196-.1688-.318-.2214-.119-.0553-.249-.083-.388-.083-.135 0-.265.0277-.384.083-.122.0526-.227.1273-.318.2214-.092.094-.161.2019-.213.3292-.053.1273-.078.2601-.078.404zm-.373 0c0-.1909.036-.368.107-.534.072-.1633.169-.3099.294-.4317.124-.1245.268-.2241.434-.296.166-.072.343-.108.531-.108.191 0 .368.036.534.108.167.0719.31.1715.435.296.124.1218.221.2684.293.4317.072.166.111.3431.111.534 0 .1882-.039.3653-.111.5313s-.169.3099-.293.4344c-.125.1245-.268.2214-.435.2933-.166.0747-.343.1107-.534.1107-.188 0-.365-.036-.531-.1107-.166-.0719-.31-.1688-.434-.2933-.125-.1245-.222-.2684-.294-.4344-.071-.166-.107-.3431-.107-.5313z" fill="#585858"/><path d="m207 9.58405c-1.494 0-2.709 1.16495-2.709 2.60095 0 1.5966 1.215 2.8971 2.709 2.8971s2.709-1.2147 2.709-2.7089c0-1.5385-1.215-2.78915-2.709-2.78915z" fill="#1478c2"/><path d="m132.297 54.4845c0-2.7551-2.182-5.1727-5.032-5.1727-2.609 0-5.053 1.939-5.053 5.1242 0 2.947 2.179 5.1991 5.053 5.1991 2.947 0 5.032-2.4198 5.032-5.1506zm-9.966 6.3947h-1.628v-17.629h1.628v7.0896c1.39-1.6765 3.114-2.5147 5.102-2.5147 3.712 0 6.54 3.0904 6.54 6.7079 0 3.5933-2.874 6.6837-6.586 6.6837-2.063 0-3.761-.911-5.056-2.6845z" fill="#1478c2"/><path d="m152.197 54.5331c0 2.7551 2.155 5.1726 5.005 5.1726 2.611 0 5.077-1.9631 5.077-5.1241 0-2.947-2.203-5.1749-5.053-5.1749-2.923 0-5.029 2.3955-5.029 5.1264zm9.963-6.3727h1.606v12.7189h-1.606v-2.1794c-1.389 1.6764-3.139 2.4926-5.126 2.4926-3.712 0-6.514-3.0904-6.514-6.708 0-3.6175 2.874-6.6594 6.562-6.6594 2.061 0 3.81.8868 5.078 2.6603z" fill="#1478c2"/><path d="m168.482 54.3257c0 2.4375 1.796 4.5771 5.151 4.5771 2.777 0 4.862-1.8396 4.862-4.6918 0-2.9426-2.277-4.8043-4.911-4.8043-2.852 0-5.102 2.0911-5.102 4.919zm11.592 3.9683c0 2.0845-.119 3.8073-1.149 5.2212-1.077 1.4603-2.969 2.3228-5.389 2.3228-3.664 0-5.438-1.4846-6.563-3.9507h1.772c.959 1.6764 2.444 2.4661 4.696 2.4661 2.107 0 3.664-.7676 4.432-2.1551.478-.8867.549-1.7977.549-2.7793v-.9573c-1.269 1.6036-3.113 2.4175-5.102 2.4175-3.521 0-6.514-2.6822-6.514-6.4432 0-3.783 3.137-6.6109 6.514-6.6109 2.252 0 3.761.9596 5.102 2.5389v-2.2036h1.652z" fill="#1478c2"/><g stroke="#1478c2" stroke-miterlimit="10" stroke-width="1.37423"><path d="m82.4534 43.6826h1.7735l3.4962 12.3836 4.9344-12.3836h.3596l4.8617 12.3836 3.5692-12.3836h1.749l-4.9344 17.1967h-.3353l-5.0778-13.0056-5.2212 13.0056h-.3111zm33.2926 9.5337c-.671-2.636-2.563-3.8095-4.767-3.8095-2.276 0-3.977 1.222-4.718 3.8095zm-9.653 1.436c.073 2.9227 2.061 5.0535 4.791 5.0535 2.658 0 3.929-1.5088 4.862-3.0418l1.365.7191c-1.292 2.5389-3.282 3.8094-6.059 3.8094-4.218 0-6.635-3.2337-6.635-6.6351 0-3.4742 2.563-6.7322 6.538-6.7322 3.617 0 6.54 2.6117 6.587 6.8271z" fill="#1478c2"/><path d="m132.297 54.4845c0-2.7551-2.182-5.1727-5.032-5.1727-2.609 0-5.053 1.939-5.053 5.1242 0 2.947 2.179 5.1991 5.053 5.1991 2.947 0 5.032-2.4198 5.032-5.1506zm-9.966 6.3947h-1.628v-17.629h1.628v7.0896c1.39-1.6765 3.114-2.5147 5.102-2.5147 3.712 0 6.54 3.0904 6.54 6.7079 0 3.5933-2.874 6.6837-6.586 6.6837-2.063 0-3.761-.911-5.056-2.6845z"/><path d="m138.906 45.3591v5.8432c.981.0243 1.963 0 2.849 0 1.485 0 2.636-.0948 3.402-.7169.598-.4808 1.006-1.3654 1.006-2.2279 0-.8867-.43-1.7492-1.079-2.2521-.765-.5757-1.796-.6463-3.137-.6463zm-1.725-1.6765h3.974c1.798 0 3.139.1192 3.978.4302 1.749.6706 2.827 2.2036 2.827 4.1447 0 1.6279-.767 2.9934-1.989 3.761-1.222.7654-2.994.8603-5.365.8603h-1.7v8.0005h-1.725z" fill="#1478c2"/><path d="m152.197 54.5331c0 2.7551 2.155 5.1726 5.005 5.1726 2.611 0 5.077-1.9631 5.077-5.1241 0-2.947-2.203-5.1749-5.053-5.1749-2.923 0-5.029 2.3956-5.029 5.1264zm9.963-6.3727h1.606v12.7189h-1.606v-2.1794c-1.389 1.6764-3.139 2.4926-5.126 2.4926-3.712 0-6.514-3.0904-6.514-6.708 0-3.6175 2.874-6.6594 6.562-6.6594 2.061 0 3.81.8868 5.078 2.6603z"/><path d="m168.482 54.3257c0 2.4375 1.796 4.5771 5.151 4.5771 2.777 0 4.862-1.8396 4.862-4.6918 0-2.9426-2.277-4.8043-4.911-4.8043-2.852 0-5.102 2.0911-5.102 4.919zm11.592 3.9683c0 2.0845-.119 3.8073-1.149 5.2212-1.077 1.4603-2.969 2.3228-5.389 2.3228-3.664 0-5.438-1.4846-6.563-3.9507h1.772c.959 1.6764 2.444 2.4661 4.696 2.4661 2.107 0 3.664-.7676 4.432-2.1551.478-.8867.549-1.7977.549-2.7793v-.9573c-1.269 1.6036-3.113 2.4175-5.102 2.4175-3.521 0-6.514-2.6822-6.514-6.4432 0-3.783 3.137-6.6109 6.514-6.6109 2.252 0 3.761.9596 5.102 2.5389v-2.2036h1.652z"/><path d="m194.303 53.2162c-.67-2.636-2.563-3.8095-4.766-3.8095-2.277 0-3.978 1.222-4.719 3.8095zm-9.652 1.436c.07 2.9227 2.06 5.0535 4.788 5.0535 2.661 0 3.929-1.5087 4.864-3.0418l1.366.7191c-1.295 2.5389-3.283 3.8095-6.062 3.8095-4.215 0-6.635-3.2338-6.635-6.6352 0-3.4742 2.563-6.7322 6.54-6.7322 3.618 0 6.538 2.6117 6.587 6.8271zm13.052-9.2932v-1.6764h9.436v1.6764h-3.831v15.5202h-1.725v-15.5202zm21.198 7.8572c-.673-2.636-2.564-3.8095-4.767-3.8095-2.277 0-3.977 1.222-4.721 3.8095zm-9.655 1.436c.072 2.9227 2.06 5.0535 4.791 5.0535 2.658 0 3.928-1.5087 4.864-3.0418l1.365.7191c-1.295 2.5389-3.282 3.8095-6.062 3.8095-4.215 0-6.635-3.2338-6.635-6.6352 0-3.4742 2.563-6.7322 6.541-6.7322 3.615 0 6.538 2.6117 6.586 6.8271zm14.322 3.569c.814.911 1.701 1.414 2.658 1.414 1.246 0 2.349-.9111 2.349-2.1088 0-.7434-.432-1.436-1.054-1.7713-2.923-1.6301-4.407-2.325-4.407-4.5528 0-2.0118 1.557-3.3772 3.496-3.3772 1.39 0 2.444.6706 3.52 1.725l-1.052 1.0786c-.767-.7433-1.533-1.222-2.563-1.222-1.054 0-1.917.7434-1.917 1.7007 0 .6463.408 1.3654.982 1.7007 2.923 1.7007 4.55 2.347 4.55 4.6477 0 1.9874-1.533 3.7609-3.831 3.7609-1.414 0-2.85-.6485-3.761-1.822zm10.921-14.8033h1.628v4.7425h2.612v1.4382h-2.612v11.2806h-1.628v-11.2806h-2.252v-1.4382h2.252z" fill="#1478c2"/></g><path d="m91.3825 21.9719c1.4499 0 2.4405.4483 3.5362 1.6021l.2601.274 4.0482-2.2275-.3016-.4427c-1.6464-2.4211-4.3332-3.7548-7.5706-3.7548-5.3708 0-9.2667 3.6635-9.2667 8.7105 0 4.9945 3.871 8.6221 9.2086 8.6221 3.1765 0 5.6779-1.1567 7.435-3.4394l.3182-.4096-3.8738-2.6563-.285.3542c-.8551 1.0625-2.0947 1.6021-3.6829 1.6021-2.5263 0-4.2225-1.6132-4.2225-4.015 0-2.5235 1.7681-4.2197 4.3968-4.2197zm18.1955 8.2347c-2.139 0-3.694-1.7377-3.694-4.1339 0-2.4156 1.519-4.1035 3.694-4.1035 2.228 0 3.783 1.6768 3.783 4.0758 0 2.4488-1.555 4.1616-3.783 4.1616zm3.609-11.2756c-1.304-1.0127-2.751-1.508-4.397-1.508-4.45 0-7.803 3.7327-7.803 8.6801 0 4.8506 3.467 8.6525 7.891 8.6525 1.649 0 3.016-.4566 4.309-1.4583v1.0487h4.87v-16.5135h-4.87zm13.295-6.8318h-4.87v5.7333h-1.989v4.3138h1.989v12.197h4.87v-12.197h2.311v-4.3138h-2.311zm12.147 9.8727c1.45 0 2.441.4483 3.537 1.6021l.26.274 4.051-2.2275-.305-.4427c-1.643-2.4211-4.333-3.7548-7.57-3.7548-5.371 0-9.267 3.6635-9.267 8.7105 0 4.9945 3.871 8.6221 9.206 8.6221 3.179 0 5.68-1.1567 7.437-3.4394l.319-.4096-3.874-2.6563-.285.3542c-.855 1.0625-2.095 1.6021-3.683 1.6021-2.526 0-4.22-1.6132-4.22-4.015 0-2.5235 1.766-4.2197 4.394-4.2197zm19.308-4.5489c-1.408 0-2.731.4676-4.103 1.4637v-7.0503h-4.87v22.5069h4.87v-7.4101c-.003-1.4167-.006-2.6397.656-3.6691.531-.8328 1.32-1.2949 2.219-1.2949 1.666 0 2.172 1.0625 2.172 4.5434v7.8307h4.87v-10.7554c0-3.7466-2.28-6.1649-5.814-6.1649zm17.175 4.5489c2.192 0 3.722 1.6852 3.722 4.1035 0 2.3935-1.566 4.1312-3.722 4.1312-2.227 0-3.782-1.71-3.782-4.1616 0-2.4378 1.519-4.0731 3.782-4.0731zm.789-4.5489c-1.646 0-3.094.4953-4.397 1.508v-1.0985h-4.87v22.1859h4.87v-6.7321c1.314 1.0099 2.679 1.4693 4.308 1.4693 4.441 0 7.92-3.8019 7.92-8.6525 0-4.9474-3.365-8.6801-7.831-8.6801zm18.049 12.6674c-2.208 0-3.694-1.616-3.694-4.0177 0-2.3077 1.555-3.9845 3.694-3.9845 2.264 0 3.783 1.6131 3.783 4.0149 0 2.3464-1.555 3.9873-3.783 3.9873zm-.058-12.6674c-4.704 0-8.533 3.8932-8.533 8.6801 0 4.8506 3.76 8.6525 8.564 8.6525 4.883 0 8.707-3.813 8.707-8.6829 0-4.7704-3.918-8.6497-8.738-8.6497zm10.686 16.923h4.87v-16.5135h-4.87zm16.522-16.923c-1.425 0-2.692.4482-4.103 1.472v-1.0625h-4.87v16.5108h4.87v-7.269c0-1.4748-.003-2.7476.683-3.8378.52-.8163 1.309-1.2673 2.219-1.2673 1.685 0 2.145.9767 2.145 4.5434v7.8307h4.87v-11.1068c0-3.3703-2.446-5.8135-5.814-5.8135zm14.065.4095v-5.7333h-4.87v5.7333h-1.99v4.3138h1.99v12.1997h4.87v-12.1997h2.31v-4.3138z" fill="#585858"/><path d="m28.7559 58.8505c-.6564.6611-.6564 1.7359 0 2.3923.3186.3186.7467.4946 1.1937.4946.4519 0 .8751-.176 1.1938-.4946.3187-.3187.4994-.742.4994-1.1938s-.1807-.8799-.4994-1.1985c-.6373-.6326-1.7502-.6326-2.3875 0zm-6.5063-5.441c-.7134.7039-.7134 1.8549 0 2.5635.3424.3472.799.5375 1.2841.5375.4804 0 .937-.1903 1.2794-.5375.3472-.3424.5374-.799.5374-1.2841 0-.4803-.1902-.9417-.5374-1.2794-.6849-.6896-1.8786-.6896-2.5635 0zm-4.2234-7.2625c-.7324.7325-.7324 1.9262 0 2.6587.3567.3567.8276.5469 1.3317.5469.4994 0 .9702-.1902 1.3269-.5469.3567-.3615.5517-.8276.5517-1.3317 0-.5042-.195-.975-.5517-1.327-.7134-.7134-1.9499-.7134-2.6586 0zm-1.6503-8.6655c-.7848.7848-.7848 2.0594 0 2.8441.3804.3805.8893.5898 1.4268.5898.5374 0 1.0415-.2093 1.422-.5898s.5898-.8846.5898-1.422c0-.5375-.2093-1.0464-.5898-1.4221-.7609-.7657-2.0831-.7657-2.8488 0zm8.4277.2283c-.6564.6611-.6564 1.7312 0 2.3875.3139.3187.7419.4947 1.1938.4947.4518 0 .8751-.176 1.189-.4947.3186-.3186.4946-.7419.4946-1.1937 0-.4471-.176-.8751-.4946-1.1938-.6373-.6373-1.7455-.6373-2.3828 0zm2.1307-8.3183c-.7182.7181-.7182 1.8881 0 2.6015.3472.352.8085.547 1.3032.547.4898 0 .9512-.195 1.2984-.547.3471-.3424.5421-.8037.5421-1.2984 0-.4899-.195-.9512-.5421-1.3031-.6944-.6897-1.912-.6897-2.6016 0zm5.6787-5.8928c-.7752.7753-.7752 2.0356 0 2.8156.3758.3757.8751.5802 1.4078.5802.5279 0 1.0321-.2045 1.4031-.5802.3804-.3757.5849-.8799.5849-1.4126 0-.5279-.2045-1.0273-.5849-1.403-.7515-.7514-2.0642-.7514-2.8109 0zm8.1424-2.3447c-.8181.8228-.8181 2.1592 0 2.9868.3995.3995.9322.6183 1.4934.6183.566 0 1.0939-.2188 1.4934-.6183s.6183-.9274.6183-1.4934c0-.5612-.2188-1.0939-.6231-1.4934-.7942-.7943-2.183-.7943-2.982 0zm-13.6404 24.9169c-.6183.6183-.6183 1.6219 0 2.2401.2949.2949.6944.4614 1.1177.4614s.818-.1665 1.1177-.4614c.2996-.3043.4661-.6991.4661-1.1224s-.1665-.8228-.4661-1.1177c-.5993-.5992-1.6409-.5992-2.2354 0zm5.9831 5.9404c-.5612.5612-.5612 1.4791 0 2.0451.2711.2711.6326.4232 1.0226.4232.3805 0 .7467-.1521 1.0178-.4232.2758-.2759.4233-.6374.4233-1.0226 0-.39-.1475-.7514-.4233-1.0225-.5422-.547-1.4934-.547-2.0404 0zm-15.2716-23.1478c-.8324.8371-.8324 2.1926 0 3.0296.4042.4091.9464.6278 1.5171.6278.5755 0 1.1129-.2187 1.5172-.6278.4043-.4042.6278-.9417.6278-1.5171 0-.566-.2235-1.1082-.6325-1.5125-.8038-.8085-2.2164-.8085-3.0296 0zm4.1567-7.291c-.8941.8941-.8941 2.3495 0 3.2436.4328.4376 1.0083.6754 1.6219.6754.6135 0 1.189-.2378 1.6265-.6754.4328-.4328.6706-1.0082.6706-1.6218 0-.6135-.2378-1.189-.6753-1.6218-.8656-.8656-2.3733-.8656-3.2437 0zm6.3018-5.4362c-.9322.9227-.9322 2.4351 0 3.3578.4471.4518 1.0463.6992 1.6789.6992.6373 0 1.2318-.2474 1.6836-.6992.4471-.4471.6992-1.0416.6992-1.6789s-.2521-1.2318-.6992-1.6789c-.8989-.9036-2.4683-.9036-3.3625 0zm7.838-3.0486c-.9798.9798-.9798 2.573 0 3.5528.4708.4756 1.1034.7372 1.774.7372.6754 0 1.3032-.2616 1.7788-.7372s.7372-1.1034.7372-1.7788c0-.6658-.2616-1.2984-.7372-1.774-.9512-.9512-2.6064-.9512-3.5528 0zm8.7083-.0666c-1.013 1.0178-1.013 2.6682 0 3.6812.4899.4946 1.1462.7657 1.8406.7657s1.3507-.2711 1.8406-.7657c.4946-.4899.7657-1.1462.7657-1.8406s-.2711-1.3507-.7657-1.8406c-.9797-.9797-2.6967-.9797-3.6812 0zm7.8047 2.8584c-1.0891 1.0844-1.0891 2.8441 0 3.9285.5184.5232 1.2176.8133 1.9595.8133s1.4411-.2901 1.9643-.8133c.5279-.5232.818-1.2223.818-1.9642 0-.742-.2901-1.4364-.818-1.9643-1.0464-1.0511-2.8822-1.0511-3.9238 0zm6.3113 5.2174c-1.1272 1.1224-1.1272 2.9535 0 4.0807.5422.5469 1.2746.8466 2.0451.8466s1.4982-.2997 2.0403-.8466c.547-.5469.8466-1.2699.8466-2.0403 0-.7753-.2996-1.4982-.8466-2.0404-1.0891-1.0939-2.9963-1.0939-4.0854 0zm4.1568 7.2149c-1.1748 1.1748-1.1748 3.0962 0 4.2757.5755.5708 1.3317.8894 2.145.8894.8037 0 1.5647-.3186 2.1354-.8894.5708-.5707.8847-1.3317.8847-2.1402s-.3139-1.5647-.8847-2.1355c-1.1414-1.1414-3.139-1.1414-4.2804 0zm1.422 8.3469c-1.2318 1.2318-1.2318 3.2436 0 4.4755.5993.5992 1.3936.9321 2.2449.9321.8418 0 1.6361-.3329 2.2353-.9321.5993-.5993.9275-1.3888.9275-2.2354 0-.8513-.3282-1.6456-.9275-2.2401-1.1937-1.1985-3.2816-1.1985-4.4802 0z" fill="#1478c2"/><path d="m47.6619 44.5727c-2.378 2.4018-6.2542 2.4208-8.656.0428-2.4018-2.3781-2.4209-6.2542-.0428-8.656 2.378-2.4019 16.513-7.9807 16.513-7.9807s-5.4362 14.1921-7.8142 16.5939z" fill="#585858"/></svg>