<svg fill="none" height="18" viewBox="0 0 145 18" width="145" xmlns="http://www.w3.org/2000/svg" xmlns:xlink="http://www.w3.org/1999/xlink"><linearGradient id="a" gradientUnits="userSpaceOnUse" x1="129.437" x2="138.741" y1="6.80507" y2="11.9072"><stop offset="0" stop-color="#68a719"/><stop offset="1" stop-color="#68a718"/></linearGradient><g fill="#141e33"><path d="m17.9639 1.1035-3.0408 12.3491h-3.9446l-1.18258-5.38058c-.02253-.10136-.05913-.27311-.10981-.51525-.04505-.24213-.09854-.51806-.16049-.82777-.05631-.30971-.1098-.6138-.16048-.91225-.04505-.30408-.07884-.56029-.10136-.76864-.02253.20835-.05913.46456-.10981.76864-.05068.29845-.10699.60254-.16893.91225-.05632.30971-.11263.58564-.16894.82777-.05068.24214-.08728.41389-.10981.51525l-1.19098 5.38058h-3.94461l-3.0577-12.3491h3.21819l1.34303 6.19143c.03378.15204.07883.36884.13514.65039.06195.27593.12389.58001.18583.91224.06757.32661.12952.64195.18583.94603.05631.30411.09573.55751.11825.76021.04505-.3491.10418-.74613.17738-1.19099.07884-.44485.1633-.89535.2534-1.35147.09573-.46175.18583-.88972.2703-1.2839.08446-.39417.15767-.71515.21961-.96292l1.08963-4.67102h3.09151l1.0558 4.67102c.0563.24214.1267.56311.2112.96292.0901.39418.1802.82215.2703 1.2839.0957.46175.183.91788.2618 1.36837.0789.44486.138.83619.1774 1.17409.0338-.2816.0901-.63632.1689-1.06429.0789-.43359.1577-.85311.2365-1.25855.0845-.41108.1493-.72079.1943-.92914l1.3684-6.20832z"/><path d="m22.6359 3.71353c.9291 0 1.7316.1633 2.4073.48991.6758.32097 1.1966.80525 1.5627 1.45283.366.64758.549 1.45846.549 2.43265v1.46972h-5.9042c.0281.50116.2139.91226.5574 1.23326.3492.3209.8616.4814 1.5373.4814.5969 0 1.1432-.0591 1.6387-.1774.5012-.1182 1.0164-.3012 1.5457-.549v2.3735c-.4617.2422-.9657.4195-1.5119.5322-.5462.1126-1.2361.1689-2.0695.1689-.9629 0-1.8244-.1717-2.5847-.5152-.7602-.3435-1.3599-.8757-1.7991-1.5965-.4336-.7208-.6504-1.64708-.6504-2.77894 0-1.14875.1971-2.09196.5913-2.82964.3942-.74331.946-1.29234 1.6555-1.6471.7096-.3604 1.5345-.54059 2.4749-.54059zm.1183 2.24682c-.3886 0-.7152.12388-.9799.37165-.259.24214-.411.62506-.4561 1.14875h2.8381c-.0056-.28155-.0619-.53777-.1689-.76865-.107-.23087-.2647-.41388-.473-.54903-.2028-.13515-.4562-.20272-.7602-.20272z"/><path d="m31.8053.309509v2.973241c0 .33786-.0113.66165-.0338.97137-.0225.30408-.0507.59126-.0844.86156h.1182c.2478-.38855.5716-.71797.9714-.98826.3998-.27593.9235-.41389 1.5711-.41389.9967 0 1.8104.42233 2.4411 1.267.6363.84467.9544 2.06663.9544 3.66587 0 1.08681-.1464 2.0019-.4392 2.7452-.2928.7377-.7039 1.2951-1.2332 1.6724-.5237.3717-1.1319.5575-1.8245.5575-.6757 0-1.191-.1154-1.5457-.3463-.3492-.2365-.6476-.4899-.8954-.7602h-.2027l-.5237.9376h-2.5763v-13.143091zm1.3346 5.997151c-.3041 0-.5547.07039-.7518.21117s-.3435.36039-.4392.65884c-.0957.29282-.1436.66729-.1436 1.12341v.46457c0 .74331.0985 1.29515.2956 1.65555.2028.3604.5603.5406 1.0728.5406.3885 0 .687-.1999.8953-.5997.2084-.39983.3125-.98265.3125-1.74849 0-.76583-.1013-1.34021-.304-1.72312-.2028-.38855-.5153-.58283-.9376-.58283z"/><path d="m43.7577 1.1035c1.5655 0 2.7367.34068 3.5138 1.02205.7828.68137 1.1741 1.64992 1.1741 2.90566 0 .56311-.0816 1.1037-.2449 1.62177-.1577.51806-.4195.97981-.7856 1.38526-.3604.40544-.8418.72641-1.4443.96292-.5969.23651-1.3346.35476-2.2131.35476h-.9376v4.09668h-3.3364v-12.3491zm-.076 2.69449h-.8616v2.83809h.6589c.2872 0 .5546-.04786.8024-.14359.2478-.10136.4449-.26185.5913-.48146.152-.22525.228-.5237.228-.89535 0-.38855-.1154-.70389-.3463-.94603-.2308-.24777-.5884-.37166-1.0727-.37166z"/><path d="m53.8525 3.71353c1.2107 0 2.1568.30126 2.8381.90379.6814.5969 1.0221 1.45002 1.0221 2.55935v6.27593h-2.2891l-.6335-1.267h-.0676c-.2703.3378-.549.6138-.8362.8277-.2815.2084-.6053.3604-.9714.4562-.366.1013-.8136.152-1.343.152-.5518 0-1.0474-.1126-1.4866-.3379-.4392-.2252-.7855-.5659-1.0389-1.022s-.3801-1.0333-.3801-1.7316c0-1.02486.3547-1.78506 1.0642-2.2806.7096-.49554 1.7372-.77428 3.0831-.83622l1.5964-.05068v-.13515c0-.42796-.107-.73204-.321-.91224-.2083-.1802-.4899-.27029-.8446-.27029-.3773 0-.7996.06757-1.267.20272-.4618.12951-.9264.29845-1.3937.5068l-.9545-2.17925c.5518-.28156 1.1769-.49554 1.8752-.64195.6982-.14641 1.4809-.21961 2.3481-.21961zm.5744 5.46501-.7602.03379c-.6082.02252-1.0361.12951-1.2839.32097-.2421.18583-.3632.45331-.3632.8024 0 .3266.0873.5688.2618.7265.1746.152.4055.228.6927.228.3998 0 .7405-.1267 1.022-.3801.2872-.2534.4308-.5828.4308-.98825z"/><path d="m62.8824 17.6083c-1.3571 0-2.4045-.228-3.1422-.6841-.732-.4505-1.0981-1.1009-1.0981-1.9512 0-.5688.1774-1.039.5322-1.4106.3548-.3717.8869-.6392 1.5964-.8025-.2928-.1238-.549-.3238-.7686-.5997-.214-.2759-.321-.549-.321-.8193 0-.2985.0816-.5603.2449-.7855.1633-.2309.504-.504 1.0221-.81938-.4955-.21961-.8869-.56311-1.1741-1.03049-.2816-.46739-.4223-1.03613-.4223-1.70624 0-.69263.1576-1.2839.473-1.7738.321-.48991.7855-.86438 1.3937-1.12341.6138-.25904 1.3599-.38855 2.2384-.38855.1182 0 .2984.01126.5406.03378.2421.0169.487.03942.7348.06758.2478.02252.4392.04505.5744.06757h3.3364v1.59643l-1.3092.48146c.0901.1633.1577.34068.2027.53214.0451.19146.0676.39418.0676.60816 0 1.0305-.3632 1.83012-1.0896 2.39886-.7208.56879-1.7992.85309-3.2351.85309-.3548 0-.6363-.0225-.8447-.0675-.0394.0732-.0704.1464-.0929.2196-.0169.0675-.0253.1323-.0253.1942 0 .1296.076.2337.228.3126.1577.0732.3463.1239.5659.152.2253.0282.4393.0422.642.0422h1.588c1.0755 0 1.8808.2253 2.4157.6758.535.4505.8025 1.129.8025 2.0356 0 1.1657-.4984 2.0723-1.4951 2.7199-.9911.6476-2.3848.9713-4.1811.9713zm.1605-2.061c.3998 0 .8024-.0366 1.2079-.1098.4054-.0675.7461-.1802 1.022-.3378.2759-.1577.4139-.3661.4139-.6251 0-.1971-.0817-.3463-.245-.4477-.1633-.0957-.3744-.1604-.6335-.1942-.259-.0338-.5321-.0507-.8193-.0507h-1.2839c-.2365 0-.4533.0366-.6504.1098-.1914.0788-.3435.183-.4561.3125s-.1689.2759-.1689.4393c0 .2702.1464.487.4392.6503.2928.169.6842.2534 1.1741.2534zm.4477-7.06139c.3153 0 .5574-.12107.7264-.36321.1745-.24214.2618-.60534.2618-1.08962 0-.49554-.0816-.86719-.2449-1.11496s-.4111-.37166-.7433-.37166c-.3435 0-.5998.12389-.7687.37166-.1689.24213-.2534.60816-.2534 1.09807 0 .4899.0845.85874.2534 1.10651.1689.24214.4252.36321.7687.36321z"/><path d="m74.0662 3.71353c.9291 0 1.7315.1633 2.4073.48991.6757.32097 1.1966.80525 1.5626 1.45283s.549 1.45846.549 2.43265v1.46972h-5.9042c.0281.50116.214.91226.5575 1.23326.3491.3209.8615.4814 1.5373.4814.5969 0 1.1431-.0591 1.6386-.1774.5012-.1182 1.0164-.3012 1.5458-.549v2.3735c-.4618.2422-.9658.4195-1.512.5322-.5462.1126-1.236.1689-2.0694.1689-.9629 0-1.8245-.1717-2.5847-.5152s-1.3599-.8757-1.7992-1.5965c-.4336-.7208-.6504-1.64708-.6504-2.77894 0-1.14875.1971-2.09196.5913-2.82964.3942-.74331.946-1.29234 1.6556-1.6471.7095-.3604 1.5345-.54059 2.4749-.54059zm.1182 2.24682c-.3885 0-.7151.12388-.9798.37165-.259.24214-.4111.62506-.4561 1.14875h2.8381c-.0057-.28155-.062-.53777-.169-.76865-.107-.23087-.2646-.41388-.473-.54903-.2027-.13515-.4561-.20272-.7602-.20272z"/><path d="m85.0563 13.4526h-3.3364v-9.62082h-3.0155v-2.72828h9.3589v2.72828h-3.007z"/><path d="m92.5583 3.71353c.9292 0 1.7316.1633 2.4073.48991.6758.32097 1.1967.80525 1.5627 1.45283s.549 1.45846.549 2.43265v1.46972h-5.9042c.0281.50116.214.91226.5575 1.23326.3491.3209.8615.4814 1.5372.4814.5969 0 1.1432-.0591 1.6387-.1774.5012-.1182 1.0164-.3012 1.5458-.549v2.3735c-.4618.2422-.9658.4195-1.512.5322-.5462.1126-1.236.1689-2.0694.1689-.963 0-1.8245-.1717-2.5847-.5152s-1.36-.8757-1.7992-1.5965c-.4336-.7208-.6504-1.64708-.6504-2.77894 0-1.14875.1971-2.09196.5913-2.82964.3942-.74331.946-1.29234 1.6555-1.6471.7096-.3604 1.5345-.54059 2.4749-.54059zm.1183 2.24682c-.3886 0-.7152.12388-.9798.37165-.2591.24214-.4111.62506-.4562 1.14875h2.8381c-.0056-.28155-.0619-.53777-.1689-.76865-.107-.23087-.2647-.41388-.473-.54903-.2027-.13515-.4561-.20272-.7602-.20272z"/><path d="m105.71 10.5131c0 .6082-.135 1.146-.405 1.6133-.271.4674-.704.8334-1.301 1.0981-.591.2647-1.371.397-2.34.397-.681 0-1.292-.0366-1.8327-.1098-.535-.0732-1.0784-.214-1.6302-.4223v-2.6439c.6025.276 1.2163.4759 1.8409.5998.625.1182 1.118.1773 1.479.1773.371 0 .642-.0394.811-.1182.174-.0845.261-.2084.261-.3717 0-.1407-.059-.259-.177-.3547-.113-.1014-.318-.2168-.617-.3463-.292-.12956-.706-.30413-1.241-.52374-.53-.21961-.9717-.45894-1.3264-.71797-.3492-.25903-.611-.56874-.7856-.92914-.1745-.36039-.2618-.80243-.2618-1.32613 0-.93476.3604-1.63865 1.0812-2.11167.7207-.47301 1.6756-.70952 2.8636-.70952.63 0 1.225.07039 1.782.21116.558.13515 1.135.33506 1.732.59972l-.904 2.12857c-.473-.21398-.952-.38574-1.436-.51525-.484-.12952-.87-.19428-1.157-.19428-.259 0-.459.03379-.6.10137-.141.06757-.211.16611-.211.29563 0 .11825.048.22243.143.31253.102.0901.29.19427.566.31253.276.11825.679.28437 1.208.49835.558.22525 1.017.46738 1.377.72642.366.2534.636.56311.811.92913.18.36603.27.83059.27 1.39369z"/><path d="m112.066 11.0115c.299 0 .572-.031.82-.0929.248-.062.507-.1408.777-.2365v2.4073c-.36.1576-.743.2843-1.149.3801-.4.1013-.912.152-1.537.152-.62 0-1.166-.0957-1.639-.2872-.473-.1971-.842-.5349-1.106-1.0136-.259-.4843-.389-1.1572-.389-2.0188v-3.94456h-1.157v-1.34302l1.47-1.03895.853-2.01031h2.162v1.9174h2.348v2.47488h-2.348v3.72496c0 .3097.079.5434.237.7011.157.1521.377.2281.658.2281z"/></g><rect fill="url(#a)" height="13.2586" rx="2.37713" stroke="#466d14" stroke-width=".754256" width="23.269" x="120.999" y=".736291"/><path d="m127.567 3.44334c.949 0 1.641.20447 2.077.61339.436.40558.654.96534.654 1.67929 0 .32178-.049.63015-.146.92511-.097.29161-.257.55138-.478.77931-.218.22792-.509.40892-.875.543-.365.13072-.816.19608-1.352.19608h-.669v2.61448h-1.559v-7.35066zm-.08 1.27706h-.709v2.18206h.513c.292 0 .545-.03854.759-.11564.215-.07709.381-.19776.498-.362s.176-.3754.176-.6335c0-.362-.101-.63015-.302-.80444-.201-.17765-.513-.26648-.935-.26648z" fill="#fff"/><path d="m134.187 5.06732c.077 0 .166.00503.267.01508.103.00671.187.01676.251.03017l-.116 1.43795c-.05-.01676-.122-.02849-.216-.0352-.09-.01005-.169-.01508-.236-.01508-.198 0-.391.02514-.578.07542-.185.05028-.351.1324-.498.24636-.148.11061-.265.25809-.352.44244-.084.181-.126.4039-.126.6687v2.86084h-1.533v-5.6211h1.161l.226.94523h.076c.11-.19106.248-.36535.412-.52289.168-.16089.357-.28826.568-.38211.215-.09721.446-.14581.694-.14581z" fill="#fff"/><path d="m140.319 7.97338c0 .46926-.064.88489-.191 1.24689-.124.36201-.307.6687-.548.92013-.238.248-.526.4357-.865.5631-.335.1273-.714.191-1.136.191-.396 0-.759-.0637-1.091-.191-.329-.1274-.615-.3151-.86-.5631-.241-.25143-.429-.55812-.563-.92013-.131-.362-.196-.77763-.196-1.24689 0-.62344.11-1.15136.332-1.58375.221-.43239.536-.76087.945-.98545.409-.22457.897-.33686 1.463-.33686.526 0 .992.11229 1.398.33686.409.22458.729.55306.96.98545.235.43239.352.96031.352 1.58375zm-3.887 0c0 .36871.041.67875.121.93014.081.25139.206.44077.377.56814s.394.19106.669.19106c.271 0 .491-.06369.659-.19106.17-.12737.295-.31675.372-.56814.08-.25139.12-.56143.12-.93014 0-.37205-.04-.68042-.12-.92511-.077-.24804-.202-.43407-.372-.55809-.171-.12401-.394-.18602-.669-.18602-.406 0-.701.1391-.885.4173-.181.27821-.272.69551-.272 1.25192z" fill="#fff"/></svg>