<svg width="262" height="79" viewBox="0 0 262 79" fill="none" xmlns="http://www.w3.org/2000/svg">
<path d="M237.783 32.8131H237.933C237.955 32.8131 237.98 32.8104 238.005 32.8076C238.029 32.8048 238.054 32.7993 238.077 32.791C238.099 32.7799 238.118 32.7633 238.132 32.744C238.146 32.7218 238.154 32.6941 238.154 32.6582C238.154 32.6194 238.146 32.5918 238.132 32.5724C238.118 32.5503 238.099 32.5337 238.077 32.5254C238.054 32.5143 238.029 32.5088 238.005 32.506C237.98 32.5032 237.955 32.5032 237.933 32.5032H237.783V32.8131ZM237.41 32.2155H237.919C237.958 32.2155 238.013 32.2182 238.079 32.2238C238.148 32.2265 238.218 32.2459 238.284 32.2736C238.348 32.304 238.406 32.351 238.456 32.4119C238.505 32.4756 238.53 32.5641 238.53 32.6803C238.53 32.7523 238.519 32.8131 238.5 32.8602C238.48 32.91 238.456 32.9487 238.425 32.9792C238.395 33.0096 238.359 33.0345 238.317 33.0483C238.278 33.0649 238.237 33.076 238.195 33.0815L238.563 33.6515H238.176L237.85 33.0981H237.786V33.6515H237.41V32.2155ZM236.942 32.9487C236.942 33.0898 236.967 33.2254 237.02 33.3499C237.072 33.4772 237.141 33.5879 237.233 33.682C237.324 33.7733 237.429 33.848 237.551 33.9033C237.67 33.9587 237.8 33.9863 237.935 33.9863C238.074 33.9863 238.204 33.9587 238.323 33.9033C238.445 33.848 238.55 33.7733 238.641 33.682C238.73 33.5879 238.801 33.4772 238.854 33.3499C238.904 33.2254 238.932 33.0898 238.932 32.9487C238.932 32.8048 238.904 32.672 238.854 32.5447C238.801 32.4174 238.73 32.3095 238.641 32.2155C238.55 32.1214 238.445 32.0467 238.323 31.9941C238.204 31.9388 238.074 31.9111 237.935 31.9111C237.8 31.9111 237.67 31.9388 237.551 31.9941C237.429 32.0467 237.324 32.1214 237.233 32.2155C237.141 32.3095 237.072 32.4174 237.02 32.5447C236.967 32.672 236.942 32.8048 236.942 32.9487ZM236.568 32.9487C236.568 32.7578 236.604 32.5807 236.676 32.4147C236.748 32.2514 236.845 32.1048 236.97 31.983C237.094 31.8585 237.238 31.7589 237.404 31.687C237.57 31.615 237.747 31.579 237.935 31.579C238.126 31.579 238.303 31.615 238.469 31.687C238.635 31.7589 238.779 31.8585 238.904 31.983C239.028 32.1048 239.125 32.2514 239.197 32.4147C239.269 32.5807 239.308 32.7578 239.308 32.9487C239.308 33.1369 239.269 33.314 239.197 33.48C239.125 33.646 239.028 33.7899 238.904 33.9144C238.779 34.0389 238.635 34.1358 238.469 34.2077C238.303 34.2824 238.126 34.3184 237.935 34.3184C237.747 34.3184 237.57 34.2824 237.404 34.2077C237.238 34.1358 237.094 34.0389 236.97 33.9144C236.845 33.7899 236.748 33.646 236.676 33.48C236.604 33.314 236.568 33.1369 236.568 32.9487Z" fill="white"/>
<path d="M207 9.58405C205.506 9.58405 204.291 10.749 204.291 12.185C204.291 13.7816 205.506 15.0821 207 15.0821C208.494 15.0821 209.709 13.8674 209.709 12.3732C209.709 10.8347 208.494 9.58405 207 9.58405Z" fill="white"/>
<path d="M132.297 54.4845C132.297 51.7294 130.115 49.3118 127.265 49.3118C124.656 49.3118 122.212 51.2508 122.212 54.436C122.212 57.383 124.391 59.6351 127.265 59.6351C130.212 59.6351 132.297 57.2153 132.297 54.4845ZM122.331 60.8792H120.703V43.2502H122.331V50.3398C123.72 48.6633 125.445 47.8251 127.433 47.8251C131.145 47.8251 133.973 50.9155 133.973 54.533C133.973 58.1263 131.099 61.2167 127.387 61.2167C125.324 61.2167 123.626 60.3057 122.331 58.5322V60.8792Z" fill="white"/>
<path d="M152.197 54.5331C152.197 57.2882 154.352 59.7057 157.202 59.7057C159.813 59.7057 162.279 57.7426 162.279 54.5816C162.279 51.6346 160.076 49.4067 157.226 49.4067C154.303 49.4067 152.197 51.8022 152.197 54.5331ZM162.16 48.1604H163.766V60.8793H162.16V58.6999C160.771 60.3763 159.021 61.1925 157.034 61.1925C153.322 61.1925 150.52 58.1021 150.52 54.4845C150.52 50.867 153.394 47.8251 157.082 47.8251C159.143 47.8251 160.892 48.7119 162.16 50.4854V48.1604Z" fill="white"/>
<path d="M168.482 54.3257C168.482 56.7632 170.278 58.9028 173.633 58.9028C176.41 58.9028 178.494 57.0632 178.494 54.211C178.494 51.2684 176.218 49.4067 173.584 49.4067C170.732 49.4067 168.482 51.4978 168.482 54.3257ZM180.074 58.294C180.074 60.3785 179.955 62.1013 178.925 63.5152C177.848 64.9755 175.956 65.838 173.536 65.838C169.872 65.838 168.098 64.3534 166.973 61.8873H168.745C169.704 63.5637 171.189 64.3534 173.441 64.3534C175.547 64.3534 177.105 63.5858 177.872 62.1983C178.351 61.3116 178.422 60.4006 178.422 59.419V58.4617C177.153 60.0653 175.309 60.8792 173.32 60.8792C169.799 60.8792 166.806 58.197 166.806 54.436C166.806 50.653 169.942 47.8251 173.32 47.8251C175.572 47.8251 177.081 48.7847 178.422 50.364V48.1604H180.074V58.294Z" fill="white"/>
<path d="M82.4534 43.6826H84.2269L87.7231 56.0662L92.6575 43.6826H93.0171L97.8788 56.0662L101.448 43.6826H103.197L98.2626 60.8793H97.9273L92.8495 47.8737L87.6283 60.8793H87.3172L82.4534 43.6826ZM115.746 53.2163C115.075 50.5803 113.183 49.4068 110.979 49.4068C108.703 49.4068 107.002 50.6288 106.261 53.2163H115.746ZM106.093 54.6523C106.166 57.575 108.154 59.7058 110.884 59.7058C113.542 59.7058 114.813 58.197 115.746 56.664L117.111 57.3831C115.819 59.922 113.829 61.1925 111.052 61.1925C106.834 61.1925 104.417 57.9588 104.417 54.5574C104.417 51.0832 106.98 47.8252 110.955 47.8252C114.572 47.8252 117.495 50.4369 117.542 54.6523H106.093Z" fill="white" stroke="white" stroke-width="1.37423" stroke-miterlimit="10"/>
<path d="M132.297 54.4845C132.297 51.7294 130.115 49.3118 127.265 49.3118C124.656 49.3118 122.212 51.2508 122.212 54.436C122.212 57.383 124.391 59.6351 127.265 59.6351C130.212 59.6351 132.297 57.2153 132.297 54.4845ZM122.331 60.8792H120.703V43.2502H122.331V50.3398C123.72 48.6633 125.445 47.8251 127.433 47.8251C131.145 47.8251 133.973 50.9155 133.973 54.533C133.973 58.1263 131.099 61.2167 127.387 61.2167C125.324 61.2167 123.626 60.3057 122.331 58.5322V60.8792Z" stroke="white" stroke-width="1.37423" stroke-miterlimit="10"/>
<path d="M138.906 45.3591V51.2023C139.887 51.2266 140.869 51.2023 141.755 51.2023C143.24 51.2023 144.391 51.1075 145.157 50.4854C145.755 50.0046 146.163 49.12 146.163 48.2575C146.163 47.3708 145.733 46.5083 145.084 46.0054C144.319 45.4297 143.288 45.3591 141.947 45.3591H138.906ZM137.181 43.6826H141.155C142.953 43.6826 144.294 43.8018 145.133 44.1128C146.882 44.7834 147.96 46.3164 147.96 48.2575C147.96 49.8854 147.193 51.2509 145.971 52.0185C144.749 52.7839 142.977 52.8788 140.606 52.8788H138.906V60.8793H137.181V43.6826Z" fill="white" stroke="white" stroke-width="1.37423" stroke-miterlimit="10"/>
<path d="M152.197 54.5331C152.197 57.2882 154.352 59.7057 157.202 59.7057C159.813 59.7057 162.279 57.7426 162.279 54.5816C162.279 51.6346 160.076 49.4067 157.226 49.4067C154.303 49.4067 152.197 51.8023 152.197 54.5331ZM162.16 48.1604H163.766V60.8793H162.16V58.6999C160.771 60.3763 159.021 61.1925 157.034 61.1925C153.322 61.1925 150.52 58.1021 150.52 54.4845C150.52 50.867 153.394 47.8251 157.082 47.8251C159.143 47.8251 160.892 48.7119 162.16 50.4854V48.1604Z" stroke="white" stroke-width="1.37423" stroke-miterlimit="10"/>
<path d="M168.482 54.3257C168.482 56.7632 170.278 58.9028 173.633 58.9028C176.41 58.9028 178.494 57.0632 178.494 54.211C178.494 51.2684 176.218 49.4067 173.584 49.4067C170.732 49.4067 168.482 51.4978 168.482 54.3257ZM180.074 58.294C180.074 60.3785 179.955 62.1013 178.925 63.5152C177.848 64.9755 175.956 65.838 173.536 65.838C169.872 65.838 168.098 64.3534 166.973 61.8873H168.745C169.704 63.5637 171.189 64.3534 173.441 64.3534C175.547 64.3534 177.105 63.5858 177.872 62.1983C178.351 61.3116 178.422 60.4006 178.422 59.419V58.4617C177.153 60.0653 175.309 60.8792 173.32 60.8792C169.799 60.8792 166.806 58.197 166.806 54.436C166.806 50.653 169.942 47.8251 173.32 47.8251C175.572 47.8251 177.081 48.7847 178.422 50.364V48.1604H180.074V58.294Z" stroke="white" stroke-width="1.37423" stroke-miterlimit="10"/>
<path d="M194.303 53.2162C193.633 50.5802 191.74 49.4067 189.536 49.4067C187.26 49.4067 185.559 50.6287 184.818 53.2162H194.303ZM184.651 54.6522C184.721 57.5749 186.711 59.7057 189.439 59.7057C192.1 59.7057 193.368 58.197 194.303 56.6639L195.669 57.383C194.374 59.9219 192.386 61.1925 189.607 61.1925C185.392 61.1925 182.972 57.9587 182.972 54.5573C182.972 51.0831 185.535 47.8251 189.512 47.8251C193.13 47.8251 196.05 50.4368 196.099 54.6522H184.651ZM197.702 45.359V43.6826H207.139V45.359H203.307V60.8792H201.583V45.359H197.702ZM218.901 53.2162C218.228 50.5802 216.337 49.4067 214.134 49.4067C211.857 49.4067 210.157 50.6287 209.413 53.2162H218.901ZM209.246 54.6522C209.318 57.5749 211.306 59.7057 214.037 59.7057C216.695 59.7057 217.965 58.197 218.901 56.6639L220.266 57.383C218.971 59.9219 216.984 61.1925 214.204 61.1925C209.989 61.1925 207.569 57.9587 207.569 54.5573C207.569 51.0831 210.132 47.8251 214.109 47.8251C217.725 47.8251 220.648 50.4368 220.696 54.6522H209.246ZM223.568 58.2212C224.382 59.1322 225.269 59.6352 226.226 59.6352C227.472 59.6352 228.575 58.7241 228.575 57.5264C228.575 56.783 228.143 56.0904 227.521 55.7551C224.598 54.125 223.114 53.4301 223.114 51.2023C223.114 49.1905 224.671 47.8251 226.61 47.8251C228 47.8251 229.054 48.4957 230.13 49.5501L229.078 50.6287C228.311 49.8854 227.545 49.4067 226.515 49.4067C225.461 49.4067 224.598 50.1501 224.598 51.1074C224.598 51.7537 225.006 52.4728 225.58 52.8081C228.503 54.5088 230.13 55.1551 230.13 57.4558C230.13 59.4432 228.597 61.2167 226.299 61.2167C224.885 61.2167 223.449 60.5682 222.538 59.3947L223.568 58.2212ZM234.489 43.4179H236.117V48.1604H238.729V49.5986H236.117V60.8792H234.489V49.5986H232.237V48.1604H234.489V43.4179Z" fill="white" stroke="white" stroke-width="1.37423" stroke-miterlimit="10"/>
<path d="M91.3824 21.9719C92.8323 21.9719 93.8229 22.4202 94.9187 23.574L95.1788 23.848L99.2269 21.6205L98.9253 21.1778C97.2789 18.7567 94.5922 17.423 91.3547 17.423C85.984 17.423 82.088 21.0865 82.088 26.1335C82.088 31.128 85.9591 34.7556 91.2966 34.7556C94.4732 34.7556 96.9746 33.5989 98.7316 31.3162L99.0498 30.9066L95.176 28.2503L94.891 28.6045C94.036 29.667 92.7964 30.2066 91.2081 30.2066C88.6818 30.2066 86.9856 28.5934 86.9856 26.1916C86.9856 23.6681 88.7538 21.9719 91.3824 21.9719ZM109.578 30.2066C107.439 30.2066 105.884 28.4689 105.884 26.0727C105.884 23.6571 107.403 21.9692 109.578 21.9692C111.806 21.9692 113.361 23.646 113.361 26.045C113.361 28.4938 111.806 30.2066 109.578 30.2066ZM113.186 18.931C111.883 17.9183 110.436 17.423 108.79 17.423C104.34 17.423 100.987 21.1557 100.987 26.1031C100.987 30.9537 104.454 34.7556 108.878 34.7556C110.527 34.7556 111.894 34.299 113.186 33.2973V34.346H118.056V17.8325H113.186V18.931ZM126.482 12.0992H121.612V17.8325H119.623V22.1463H121.612V34.3433H126.482V22.1463H128.792V17.8325H126.482V12.0992ZM138.629 21.9719C140.079 21.9719 141.07 22.4202 142.165 23.574L142.426 23.848L146.476 21.6205L146.172 21.1778C144.528 18.7567 141.839 17.423 138.602 17.423C133.231 17.423 129.335 21.0865 129.335 26.1335C129.335 31.128 133.206 34.7556 138.541 34.7556C141.72 34.7556 144.221 33.5989 145.978 31.3162L146.297 30.9066L142.423 28.2503L142.138 28.6045C141.283 29.667 140.043 30.2066 138.455 30.2066C135.929 30.2066 134.235 28.5934 134.235 26.1916C134.235 23.6681 136.001 21.9719 138.629 21.9719ZM157.937 17.423C156.529 17.423 155.206 17.8906 153.834 18.8867V11.8364H148.964V34.3433H153.834V26.9332C153.831 25.5165 153.828 24.2935 154.49 23.2641C155.021 22.4313 155.81 21.9692 156.709 21.9692C158.375 21.9692 158.881 23.0317 158.881 26.5126V34.3433H163.751V23.5879C163.751 19.8413 161.471 17.423 157.937 17.423ZM175.112 21.9719C177.304 21.9719 178.834 23.6571 178.834 26.0754C178.834 28.4689 177.268 30.2066 175.112 30.2066C172.885 30.2066 171.33 28.4966 171.33 26.045C171.33 23.6072 172.849 21.9719 175.112 21.9719ZM175.901 17.423C174.255 17.423 172.807 17.9183 171.504 18.931V17.8325H166.634V40.0184H171.504V33.2863C172.818 34.2962 174.183 34.7556 175.812 34.7556C180.253 34.7556 183.732 30.9537 183.732 26.1031C183.732 21.1557 180.367 17.423 175.901 17.423ZM193.95 30.0904C191.742 30.0904 190.256 28.4744 190.256 26.0727C190.256 23.765 191.811 22.0882 193.95 22.0882C196.214 22.0882 197.733 23.7013 197.733 26.1031C197.733 28.4495 196.178 30.0904 193.95 30.0904ZM193.892 17.423C189.188 17.423 185.359 21.3162 185.359 26.1031C185.359 30.9537 189.119 34.7556 193.922 34.7556C198.806 34.7556 202.63 30.9426 202.63 26.0727C202.63 21.3023 198.712 17.423 193.892 17.423ZM204.578 34.346H209.448V17.8325H204.578V34.346ZM221.1 17.423C219.675 17.423 218.408 17.8712 216.997 18.895V17.8325H212.127V34.3433H216.997V27.0743C216.997 25.5995 216.994 24.3267 217.68 23.2365C218.2 22.4202 218.989 21.9692 219.899 21.9692C221.584 21.9692 222.044 22.9459 222.044 26.5126V34.3433H226.914V23.2365C226.914 19.8662 224.468 17.423 221.1 17.423ZM235.165 17.8325V12.0992H230.295V17.8325H228.305V22.1463H230.295V34.346H235.165V22.1463H237.475V17.8325H235.165Z" fill="white"/>
<path d="M28.7558 58.8505C28.0995 59.5116 28.0995 60.5864 28.7558 61.2428C29.0745 61.5614 29.5025 61.7374 29.9496 61.7374C30.4014 61.7374 30.8247 61.5614 31.1433 61.2428C31.462 60.9241 31.6427 60.5008 31.6427 60.049C31.6427 59.5972 31.462 59.1691 31.1433 58.8505C30.506 58.2179 29.3931 58.2179 28.7558 58.8505ZM22.2495 53.4095C21.5361 54.1134 21.5361 55.2644 22.2495 55.973C22.592 56.3202 23.0485 56.5105 23.5337 56.5105C24.014 56.5105 24.4706 56.3202 24.813 55.973C25.1602 55.6306 25.3505 55.174 25.3505 54.6889C25.3505 54.2086 25.1602 53.7472 24.813 53.4095C24.1282 52.7199 22.9344 52.7199 22.2495 53.4095ZM18.0261 46.147C17.2937 46.8795 17.2937 48.0732 18.0261 48.8057C18.3828 49.1624 18.8537 49.3526 19.3578 49.3526C19.8572 49.3526 20.3281 49.1624 20.6848 48.8057C21.0415 48.4442 21.2365 47.9781 21.2365 47.474C21.2365 46.9698 21.0415 46.499 20.6848 46.147C19.9714 45.4336 18.7348 45.4336 18.0261 46.147ZM16.3758 37.4815C15.591 38.2663 15.591 39.5409 16.3758 40.3256C16.7563 40.7061 17.2652 40.9154 17.8026 40.9154C18.34 40.9154 18.8442 40.7061 19.2247 40.3256C19.6052 39.9451 19.8144 39.441 19.8144 38.9036C19.8144 38.3661 19.6052 37.8572 19.2247 37.4815C18.4637 36.7158 17.1415 36.7158 16.3758 37.4815ZM24.8035 37.7098C24.1472 38.3709 24.1472 39.441 24.8035 40.0973C25.1174 40.416 25.5455 40.592 25.9973 40.592C26.4491 40.592 26.8724 40.416 27.1863 40.0973C27.505 39.7787 27.6809 39.3554 27.6809 38.9036C27.6809 38.4565 27.505 38.0285 27.1863 37.7098C26.549 37.0725 25.4408 37.0725 24.8035 37.7098ZM26.9342 29.3915C26.2161 30.1096 26.2161 31.2796 26.9342 31.993C27.2814 32.345 27.7428 32.54 28.2374 32.54C28.7273 32.54 29.1886 32.345 29.5358 31.993C29.883 31.6506 30.078 31.1893 30.078 30.6946C30.078 30.2047 29.883 29.7434 29.5358 29.3915C28.8414 28.7018 27.6239 28.7018 26.9342 29.3915ZM32.613 23.4987C31.8377 24.274 31.8377 25.5343 32.613 26.3143C32.9887 26.69 33.4881 26.8945 34.0208 26.8945C34.5487 26.8945 35.0528 26.69 35.4238 26.3143C35.8043 25.9386 36.0088 25.4344 36.0088 24.9017C36.0088 24.3738 35.8043 23.8744 35.4238 23.4987C34.6723 22.7473 33.3597 22.7473 32.613 23.4987ZM40.7553 21.154C39.9373 21.9768 39.9373 23.3132 40.7553 24.1408C41.1548 24.5403 41.6875 24.7591 42.2487 24.7591C42.8147 24.7591 43.3426 24.5403 43.7421 24.1408C44.1416 23.7413 44.3604 23.2134 44.3604 22.6474C44.3604 22.0862 44.1416 21.5535 43.7374 21.154C42.9431 20.3597 41.5543 20.3597 40.7553 21.154ZM27.115 46.0709C26.4967 46.6892 26.4967 47.6928 27.115 48.311C27.4098 48.6059 27.8093 48.7724 28.2326 48.7724C28.6559 48.7724 29.0507 48.6059 29.3503 48.311C29.6499 48.0067 29.8164 47.6119 29.8164 47.1886C29.8164 46.7653 29.6499 46.3658 29.3503 46.0709C28.751 45.4717 27.7095 45.4717 27.115 46.0709ZM33.0981 52.0113C32.5369 52.5725 32.5369 53.4904 33.0981 54.0564C33.3692 54.3275 33.7306 54.4796 34.1206 54.4796C34.5011 54.4796 34.8673 54.3275 35.1384 54.0564C35.4143 53.7805 35.5617 53.419 35.5617 53.0338C35.5617 52.6438 35.4143 52.2824 35.1384 52.0113C34.5962 51.4643 33.645 51.4643 33.0981 52.0113ZM17.8264 28.8635C16.9941 29.7006 16.9941 31.0561 17.8264 31.8931C18.2307 32.3022 18.7728 32.5209 19.3436 32.5209C19.9191 32.5209 20.4565 32.3022 20.8608 31.8931C21.265 31.4889 21.4886 30.9514 21.4886 30.376C21.4886 29.81 21.265 29.2678 20.856 28.8635C20.0522 28.055 18.6397 28.055 17.8264 28.8635ZM21.9832 21.5725C21.089 22.4666 21.089 23.922 21.9832 24.8161C22.416 25.2537 22.9915 25.4915 23.605 25.4915C24.2185 25.4915 24.794 25.2537 25.2316 24.8161C25.6644 24.3833 25.9022 23.8079 25.9022 23.1943C25.9022 22.5808 25.6644 22.0053 25.2268 21.5725C24.3612 20.7069 22.8535 20.7069 21.9832 21.5725ZM28.285 16.1363C27.3528 17.059 27.3528 18.5714 28.285 19.4941C28.732 19.9459 29.3313 20.1933 29.9638 20.1933C30.6012 20.1933 31.1957 19.9459 31.6475 19.4941C32.0946 19.047 32.3466 18.4525 32.3466 17.8152C32.3466 17.1779 32.0946 16.5834 31.6475 16.1363C30.7486 15.2327 29.1791 15.2327 28.285 16.1363ZM36.1229 13.0877C35.1432 14.0675 35.1432 15.6607 36.1229 16.6405C36.5938 17.1161 37.2263 17.3777 37.8969 17.3777C38.5723 17.3777 39.2001 17.1161 39.6757 16.6405C40.1513 16.1649 40.4129 15.5371 40.4129 14.8617C40.4129 14.1959 40.1513 13.5633 39.6757 13.0877C38.7245 12.1365 37.0694 12.1365 36.1229 13.0877ZM44.8313 13.0211C43.8182 14.0389 43.8182 15.6893 44.8313 16.7023C45.3211 17.1969 45.9775 17.468 46.6719 17.468C47.3662 17.468 48.0226 17.1969 48.5124 16.7023C49.0071 16.2124 49.2782 15.5561 49.2782 14.8617C49.2782 14.1673 49.0071 13.511 48.5124 13.0211C47.5327 12.0414 45.8158 12.0414 44.8313 13.0211ZM52.6359 15.8795C51.5468 16.9639 51.5468 18.7236 52.6359 19.808C53.1544 20.3312 53.8535 20.6213 54.5954 20.6213C55.3374 20.6213 56.0365 20.3312 56.5597 19.808C57.0876 19.2848 57.3777 18.5857 57.3777 17.8438C57.3777 17.1018 57.0876 16.4074 56.5597 15.8795C55.5134 14.8284 53.6775 14.8284 52.6359 15.8795ZM58.9472 21.0969C57.82 22.2193 57.82 24.0504 58.9472 25.1776C59.4894 25.7245 60.2219 26.0242 60.9923 26.0242C61.7628 26.0242 62.4905 25.7245 63.0327 25.1776C63.5796 24.6307 63.8793 23.9077 63.8793 23.1373C63.8793 22.362 63.5796 21.6391 63.0327 21.0969C61.9435 20.003 60.0364 20.003 58.9472 21.0969ZM63.104 28.3118C61.9293 29.4866 61.9293 31.408 63.104 32.5875C63.6795 33.1583 64.4357 33.4769 65.249 33.4769C66.0528 33.4769 66.8137 33.1583 67.3845 32.5875C67.9552 32.0168 68.2691 31.2558 68.2691 30.4473C68.2691 29.6388 67.9552 28.8826 67.3845 28.3118C66.243 27.1704 64.2455 27.1704 63.104 28.3118ZM64.5261 36.6587C63.2943 37.8905 63.2943 39.9023 64.5261 41.1342C65.1253 41.7334 65.9196 42.0663 66.7709 42.0663C67.6128 42.0663 68.407 41.7334 69.0063 41.1342C69.6055 40.5349 69.9337 39.7454 69.9337 38.8988C69.9337 38.0475 69.6055 37.2532 69.0063 36.6587C67.8125 35.4602 65.7246 35.4602 64.5261 36.6587Z" fill="white"/>
<path d="M47.6618 44.5727C45.2838 46.9745 41.4076 46.9935 39.0058 44.6155C36.604 42.2374 36.585 38.3613 38.963 35.9595C41.341 33.5576 55.476 27.9788 55.476 27.9788C55.476 27.9788 50.0399 42.1709 47.6618 44.5727Z" fill="white"/>
</svg>
