<svg fill="none" height="40" viewBox="0 0 160 40" width="160" xmlns="http://www.w3.org/2000/svg"><path d="m28.0572 28.5013c-2.0328 1.1736-4.6321.4772-5.8057-1.5556s-.4771-4.6321 1.5556-5.8058c2.0328-1.1736 12.5205-2.3211 12.5205-2.3211s-6.2376 8.5089-8.2704 9.6825z" fill="#51baf9"/><g fill="#141e33"><path clip-rule="evenodd" d="m31.4086 7.25723c3.3245 1.64418 5.955 4.13147 7.7608 7.07567-1.4311-1.8789-3.3212-3.4751-5.6034-4.60383-7.6249-3.77099-16.7399-.89594-20.3589 6.42163-2.268 4.5858-1.8392 9.8282.6737 14.0313l-7.2661 3.7071c-3.122-5.3303-3.58597-12.0785-.6428-18.0296 4.6487-9.3996 16.0371-13.25097 25.4367-8.60227z" fill-rule="evenodd"/><path d="m62.7618 5.63009-2.9751 12.08251h-3.8595l-1.157-5.2644c-.0221-.0992-.0579-.2672-.1075-.5041-.044-.2369-.0964-.5069-.157-.8099-.0551-.3031-.1074-.6006-.157-.8926-.0441-.2975-.0771-.54819-.0992-.75205-.022.20386-.0578.45455-.1074.75205-.0496.292-.1047.5895-.1653.8926-.0551.303-.1102.573-.1653.8099-.0496.2369-.0854.4049-.1074.5041l-1.1653 5.2644h-3.8595l-2.9917-12.08251h3.1488l1.314 6.05781c.0331.1487.0771.3609.1322.6363.0606.27.1212.5675.1818.8926.0662.3195.1268.6281.1819.9256s.0936.5454.1157.7438c.044-.3416.1019-.73.1735-1.1653.0771-.4352.1598-.876.2479-1.3223.0937-.4518.1819-.8705.2645-1.2562.0826-.3856.1543-.6997.2149-.9421l1.0661-4.57021h3.0247l1.0331 4.57021c.0551.2369.124.5509.2066.9421.0882.3857.1763.8044.2645 1.2562.0936.4518.179.8981.2562 1.3388.0771.4353.1349.8182.1735 1.1488.0331-.2755.0882-.6226.1653-1.0413.0771-.4243.1543-.8347.2314-1.2314.0826-.4022.146-.7052.1901-.9091l1.3388-6.07431z"/><path d="m67.333 8.18378c.9091 0 1.6942.15978 2.3554.47934.6611.31404 1.1708.78787 1.5289 1.42148.3581.6336.5372 1.427.5372 2.3801v1.438h-5.7768c.0275.4904.2093.8926.5454 1.2066.3416.3141.843.4711 1.5041.4711.584 0 1.1185-.0579 1.6033-.1736.4904-.1157.9945-.2947 1.5124-.5371v2.3223c-.4518.2369-.9449.4104-1.4793.5206s-1.2094.1653-2.0248.1653c-.9421 0-1.7851-.168-2.5289-.5041s-1.3306-.8568-1.7603-1.562c-.4242-.7052-.6364-1.6116-.6364-2.719 0-1.1239.1929-2.0468.5785-2.7685.3857-.72731.9257-1.26449 1.6199-1.6116.6942-.35261 1.5013-.52892 2.4214-.52892zm.1157 2.19832c-.3801 0-.6997.1212-.9586.3636-.2535.237-.4022.6116-.4463 1.124h2.7768c-.0055-.2755-.0606-.5262-.1653-.7521s-.2589-.4049-.4628-.5371c-.1983-.1323-.4463-.1984-.7438-.1984z"/><path d="m76.3045 4.85324v2.90906c0 .33058-.011.64738-.0331.9504-.022.29752-.0495.57851-.0826.84297h.1157c.2424-.38016.5592-.70247.9504-.96693.3912-.26997.9036-.40496 1.5372-.40496.9752 0 1.7713.41322 2.3884 1.23966.6226.82646.9339 2.02206.9339 3.58676 0 1.0633-.1433 1.9586-.4298 2.6859-.2865.7218-.6887 1.2672-1.2066 1.6363-.5124.3637-1.1074.5455-1.7851.5455-.6611 0-1.1653-.113-1.5124-.3388-.3416-.2314-.6336-.4794-.876-.7438h-.1983l-.5124.9173h-2.5207v-12.85936zm1.3058 5.86766c-.2975 0-.5427.0689-.7356.2067-.1928.1377-.336.3526-.4297.6446-.0937.2865-.1405.6529-.1405 1.0991v.4546c0 .7272.0964 1.2672.2893 1.6198.1983.3526.5482.5289 1.0495.5289.3802 0 .6722-.1956.8761-.5868.2038-.3911.3057-.9614.3057-1.7107s-.0991-1.3113-.2975-1.6859c-.1983-.3802-.5041-.5703-.9173-.5703z"/><path d="m87.9989 5.63009c1.5317 0 2.6777.33333 3.438.99999.7658.66666 1.1487 1.61431 1.1487 2.84295 0 .55097-.0798 1.07987-.2396 1.58677-.1543.5069-.4105.9587-.7686 1.3553-.3526.3967-.8237.7108-1.4132.9422-.584.2314-1.3058.3471-2.1653.3471h-.9173v4.0082h-3.2645v-12.08251zm-.0744 2.63634h-.8429v2.77687h.6446c.281 0 .5427-.0469.7851-.1405.2424-.0992.4353-.2562.5785-.4711.1488-.2204.2232-.5124.2232-.87603 0-.38016-.113-.6887-.3389-.92561-.2259-.24242-.5757-.36363-1.0496-.36363z"/><path d="m97.8758 8.18378c1.1846 0 2.1102.29477 2.7772.88429.666.58402 1 1.41873 1 2.50413v6.1404h-2.24l-.6198-1.2397h-.0661c-.2645.3306-.5372.6006-.8182.81-.2755.2038-.5923.3526-.9504.4462-.3581.0992-.7961.1488-1.314.1488-.54 0-1.0248-.1102-1.4546-.3306-.4297-.2204-.7686-.5537-1.0165-1-.2479-.4462-.3719-1.011-.3719-1.6942 0-1.0027.3471-1.7465 1.0413-2.2313.6942-.4849 1.6997-.7576 3.0165-.8182l1.562-.0496v-.1322c0-.4188-.1047-.7163-.3141-.8926-.2038-.1763-.4793-.2644-.8264-.2644-.3691 0-.7824.0661-1.2397.1983-.4517.1267-.9063.292-1.3636.4959l-.9338-2.13225c.5399-.27548 1.1515-.48484 1.8346-.62809.6832-.14325 1.4491-.21488 2.2975-.21488zm.562 5.34702-.7438.0331c-.595.022-1.0137.1267-1.2562.314-.2369.1819-.3553.4436-.3553.7852 0 .3195.0854.5564.2562.7107.1708.1487.3967.2231.6776.2231.3912 0 .7246-.1239 1-.3719.281-.2479.4215-.5702.4215-.9669z"/><path d="m106.711 21.7787c-1.328 0-2.353-.2232-3.075-.6694-.716-.4408-1.074-1.0772-1.074-1.9091 0-.5565.174-1.0165.521-1.3802.347-.3636.867-.6253 1.562-.7851-.287-.1212-.537-.3168-.752-.5867-.21-.27-.314-.5372-.314-.8017 0-.292.079-.5482.239-.7686.16-.2259.493-.4931 1-.8016-.485-.2149-.868-.551-1.149-1.0083-.275-.4573-.413-1.0137-.413-1.6694 0-.6777.155-1.2562.463-1.73549.314-.47934.769-.84572 1.364-1.09916.6-.25345 1.33-.38017 2.19-.38017.115 0 .292.01102.529.03306.237.01653.476.03857.719.06612.242.02203.429.04407.562.06611h3.264v1.56197l-1.281.47106c.088.1598.154.3333.198.5207.045.1873.067.3856.067.595 0 1.0083-.356 1.7906-1.067 2.3471-.705.5564-1.76.8347-3.165.8347-.347 0-.622-.0221-.826-.0661-.039.0716-.069.1432-.091.2148-.017.0662-.025.1295-.025.1901 0 .1267.074.2287.223.3058.154.0716.339.1212.554.1488.22.0275.43.0413.628.0413h1.554c1.052 0 1.84.2204 2.363.6611.524.4408.785 1.1047.785 1.9917 0 1.1405-.487 2.0276-1.462 2.6612-.97.6336-2.334.9504-4.091.9504zm.157-2.0165c.391 0 .785-.0358 1.182-.1075.396-.0661.73-.1763 1-.3305.27-.1543.405-.3582.405-.6116 0-.1928-.08-.3388-.24-.438-.16-.0937-.366-.157-.62-.1901-.253-.0331-.521-.0496-.802-.0496h-1.256c-.231 0-.443.0358-.636.1075-.187.0771-.336.179-.446.3057-.111.1268-.166.27-.166.4298 0 .2644.144.4766.43.6363.287.1653.669.248 1.149.248zm.438-6.909c.308 0 .545-.1185.711-.3554.17-.2369.256-.5923.256-1.0661 0-.4849-.08-.8485-.24-1.0909s-.402-.36365-.727-.36365c-.336 0-.587.12125-.752.36365-.166.2369-.248.595-.248 1.0744 0 .4793.082.8402.248 1.0826.165.2369.416.3554.752.3554z"/><path d="m117.653 8.18378c.909 0 1.694.15978 2.355.47934.662.31404 1.171.78787 1.529 1.42148.359.6336.538 1.427.538 2.3801v1.438h-5.777c.027.4904.209.8926.545 1.2066.342.3141.843.4711 1.504.4711.584 0 1.119-.0579 1.604-.1736.49-.1157.994-.2947 1.512-.5371v2.3223c-.452.2369-.945.4104-1.479.5206-.535.1102-1.21.1653-2.025.1653-.942 0-1.785-.168-2.529-.5041s-1.331-.8568-1.76-1.562c-.425-.7052-.637-1.6116-.637-2.719 0-1.1239.193-2.0468.579-2.7685.386-.72731.925-1.26449 1.62-1.6116.694-.35261 1.501-.52892 2.421-.52892zm.116 2.19832c-.38 0-.7.1212-.959.3636-.253.237-.402.6116-.446 1.124h2.777c-.006-.2755-.061-.5262-.166-.7521-.104-.2259-.259-.4049-.462-.5371-.199-.1323-.447-.1984-.744-.1984z"/><path d="m128.406 17.7126h-3.264v-9.41312h-2.951v-2.66939h9.157v2.66939h-2.942z"/><path d="m135.746 8.18378c.909 0 1.694.15978 2.356.47934.661.31404 1.17.78787 1.528 1.42148.359.6336.538 1.427.538 2.3801v1.438h-5.777c.027.4904.209.8926.545 1.2066.342.3141.843.4711 1.504.4711.584 0 1.119-.0579 1.604-.1736.49-.1157.994-.2947 1.512-.5371v2.3223c-.452.2369-.945.4104-1.479.5206-.535.1102-1.21.1653-2.025.1653-.942 0-1.785-.168-2.529-.5041s-1.331-.8568-1.76-1.562c-.424-.7052-.637-1.6116-.637-2.719 0-1.1239.193-2.0468.579-2.7685.386-.72731.925-1.26449 1.62-1.6116.694-.35261 1.501-.52892 2.421-.52892zm.116 2.19832c-.38 0-.7.1212-.959.3636-.253.237-.402.6116-.446 1.124h2.777c-.006-.2755-.061-.5262-.166-.7521-.104-.2259-.258-.4049-.462-.5371-.199-.1323-.447-.1984-.744-.1984z"/><path d="m148.614 14.8366c0 .595-.132 1.1212-.397 1.5785-.264.4573-.688.8154-1.272 1.0744-.579.2589-1.342.3884-2.289.3884-.667 0-1.265-.0358-1.794-.1074-.523-.0717-1.055-.2094-1.595-.4133v-2.5867c.59.27 1.19.4655 1.802.5868.611.1157 1.093.1735 1.446.1735.364 0 .628-.0386.793-.1157.171-.0826.257-.2038.257-.3636 0-.1378-.058-.2535-.174-.3471-.11-.0992-.311-.2121-.603-.3389-.287-.1267-.692-.2975-1.215-.5124-.518-.2148-.951-.449-1.298-.7024-.341-.2535-.597-.5565-.768-.9091s-.256-.7851-.256-1.2975c0-.9146.352-1.6033 1.057-2.06611.706-.4628 1.64-.69421 2.802-.69421.617 0 1.198.06887 1.744.20661.545.13223 1.11.32782 1.694.58677l-.884 2.08264c-.463-.2094-.931-.3774-1.405-.5041-.474-.1268-.851-.1901-1.132-.1901-.254 0-.449.033-.587.0992-.138.0661-.207.1625-.207.2892 0 .1157.047.2176.141.3058.099.0881.283.1901.553.3058s.664.2782 1.182.4876c.546.2203.995.4573 1.347.7107.358.2479.623.551.794.9091.176.3581.264.8126.264 1.3636z"/><path d="m154.833 15.3242c.292 0 .559-.0303.802-.0909.242-.0606.496-.1377.76-.2314v2.3553c-.352.1543-.727.2783-1.124.3719-.391.0992-.892.1488-1.504.1488-.606 0-1.14-.0937-1.603-.281-.463-.1928-.824-.5234-1.083-.9917-.253-.4738-.38-1.1322-.38-1.9752v-3.8595h-1.132v-1.314l1.438-1.01652.835-1.96692h2.115v1.87601h2.298v2.42143h-2.298v3.6446c0 .303.077.5317.232.686.154.1487.369.2231.644.2231z"/><path d="m127.661 31.9582c-.002.1369-.043.2702-.118.3831-.075.113-.181.2005-.305.2518-.123.0512-.259.0637-.389.0361-.131-.0277-.25-.0944-.344-.1917s-.157-.2209-.183-.3552c-.025-.1343-.012-.2734.039-.3997.052-.1263.138-.2343.249-.3103s.241-.1167.374-.1169c.09 0 .178.0182.261.0536s.157.0873.22.1527.113.1429.147.2282c.033.0852.05.1764.049.2683zm-.116 0c.004-.0775-.008-.155-.035-.2277s-.067-.1391-.12-.1952c-.052-.0561-.115-.1007-.184-.1312-.07-.0305-.145-.0463-.22-.0463-.076 0-.151.0158-.22.0463-.07.0305-.133.0751-.185.1312s-.093.1225-.119.1952c-.027.0727-.039.1502-.036.2277-.003.0776.009.1551.036.2278.026.0727.067.1391.119.1952s.115.1007.185.1312c.069.0305.144.0463.22.0463.075 0 .15-.0158.22-.0463.069-.0305.132-.0751.184-.1312.053-.0561.093-.1225.12-.1952s.039-.1502.035-.2278zm-.456.1012.171.2519h-.134l-.169-.242h-.069v.242h-.124v-.6885h.254c.029-.0018.058.0027.084.0131.027.0104.051.0266.072.0474.02.0208.036.0457.046.0732s.014.0569.013.0863c.007.048-.004.0971-.031.1373-.026.0401-.067.0685-.113.0793zm-.204-.3178v.2199h.133c.029 0 .056-.0115.076-.0322.02-.0206.032-.0486.032-.0777 0-.0292-.012-.0572-.032-.0778-.02-.0207-.047-.0322-.076-.0322zm-37.3764-1.0824c-.165.3821-.3986.7287-.6886 1.0219-.4543.4663-1.0331.7837-1.6631.9119-.63.1283-1.2829.0616-1.876-.1915s-1.0997-.6813-1.4557-1.2303-.5454-1.1942-.5441-1.8539c-.0068-.4375.0741-.8717.2377-1.2757s.4064-.7692.7133-1.0727c.6085-.6246 1.4336-.9755 2.2939-.9755.8604 0 1.6855.3509 2.294.9755.286.2893.5173.6306.6822 1.0065h-1.6461c-.0107-.0099-.0182-.0209-.0289-.0308-.1655-.1798-.3661-.3217-.5887-.4165-.2225-.0947-.462-.1402-.7028-.1335-.2429-.0051-.4842.0411-.7089.1357-.2248.0946-.4282.2356-.5977.4143-.1731.1804-.3085.3952-.398.6312-.0895.2361-.1312.4884-.1225.7415-.0073.2553.035.5095.1244.7478.0893.2383.224.456.3961.6403.1726.1736.3771.3101.6016.4017s.4645.1364.706.1318c.2393.0062.4774-.038.6995-.1297s.4236-.2292.5921-.4038c.015-.0154.0268-.0308.0407-.0462zm-20.8834-.0275c-.0139.0154-.0268.0319-.0407.0462-.1687.1747-.3704.3122-.5927.4039-.2222.0918-.4605.1359-.6999.1296-.2405.0032-.4792-.0427-.7024-.1348-.2231-.0921-.4263-.2287-.5978-.402-.1719-.1843-.3064-.402-.3956-.6404-.0892-.2383-.1313-.4925-.1238-.7477-.0089-.2529.0325-.505.1219-.7409.0893-.2359.2246-.4505.3975-.6307.1694-.1789.3728-.32.5976-.4146s.4661-.1407.709-.1354c.241-.0069.4807.0385.7034.1333.2228.0948.4236.2368.5892.4167l.0279.0308h1.6481c-.1642-.3764-.3951-.718-.6811-1.0076-.2957-.3151-.6514-.5643-1.0449-.7321-.3936-.1679-.8165-.2508-1.2426-.2435-.4283-.0084-.8537.0738-1.2497.2417-.3959.1678-.754.4177-1.0518.7339-.307.304-.5498.6697-.7133 1.0743-.1634.4046-.244.8394-.2366 1.2774-.0084.4399.0716.8769.2351 1.2836.1634.4067.4068.7744.7148 1.0802.3005.3116.6594.5574 1.0549.7227.3956.1652.8196.2464 1.2466.2386.4247.0064.8463-.0755 1.2394-.2407s.7496-.4103 1.0481-.7206c.29-.293.5233-.6397.6876-1.0219zm56.7228.5797c-.699 0-1.04-.396-1.04-1.2044v-2.4859h1.218v-1.4035h-1.212v-2.8973h-1.41v6.7867c0 1.8699 1.01 2.6079 2.45 2.6079h.297v-1.4035zm-43.1689 0v1.4035h-.2903c-1.4404 0-2.4503-.7325-2.4503-2.6079v-6.7867h1.4104v2.8973h1.2177v1.4035h-1.2177v2.4859c0 .8084.3417 1.2044 1.0399 1.2044zm20.5229-1.9667c0 1.1131-.803 1.9216-1.826 1.9216-1.0242 0-1.8274-.8085-1.8274-1.9216s.7732-1.9216 1.8274-1.9216c1.023 0 1.826.8239 1.826 1.9216zm-3.4446 2.8829c.2517.198.9196.44 1.6186.44.427.0077.852-.0729 1.249-.2369.397-.1641.757-.4083 1.061-.7182.303-.3099.542-.6791.704-1.0858.162-.4068.242-.8427.237-1.282.007-.4374-.074-.8716-.237-1.2756-.164-.404-.406-.7692-.713-1.0728-.297-.3175-.655-.5683-1.051-.7362-.396-.168-.822-.2495-1.25-.2394-.847-.0102-1.6654.3134-2.2869.9041-.6425.594-.9638 1.4179-.9638 2.4705v6.197h1.4254v-3.5198zm7.4126-2.8378c-.007.2547.036.5082.125.7459s.223.4549.395.6389c.172.1739.376.3106.601.4022.224.0916.464.1363.705.1313.24.0062.478-.038.7-.1297s.423-.2291.592-.4038c.177-.1812.316-.3979.408-.6368.093-.2388.136-.4946.127-.7513.01-.2544-.033-.5081-.125-.7445-.092-.2363-.232-.45-.41-.6271-.166-.1798-.366-.3217-.589-.4165-.222-.0947-.462-.1402-.703-.1335-.242-.0055-.484.0405-.709.1351-.224.0947-.428.2359-.597.4149-.173.1806-.309.3958-.398.6322-.09.2365-.131.4892-.122.7427zm-.475-2.3484c.609-.6247 1.434-.9756 2.294-.9756.861 0 1.686.3509 2.295.9756.307.3036.549.6688.713 1.0728.163.404.244.8382.237 1.2756.008.44-.072.877-.236 1.2837-.163.4067-.407.7744-.715 1.0801-.613.6162-1.437.9613-2.295.9613-.857 0-1.681-.3451-2.294-.9613-.308-.3058-.552-.6735-.715-1.0802s-.243-.8437-.235-1.2836c-.007-.4374.074-.8716.237-1.2756.164-.404.406-.7692.713-1.0728zm11.244 2.1658c0-1.0999.489-1.662 1.261-1.662.773 0 1.278.5797 1.278 1.662v3.5077h1.425v-3.5077c0-1.0218-.267-1.7995-.802-2.3033-.517-.4902-1.196-.7624-1.9-.7624s-1.383.2722-1.9.7624c-.521.5038-.788 1.2661-.788 2.3033v3.5077h1.426zm-4.327-2.9896h1.426v6.4973h-1.425zm-22.2851-2.8907v9.388h1.4255v-3.5077c0-1.1131.5044-1.662 1.2615-1.662.7733 0 1.2777.5643 1.2777 1.662v3.5077h1.4254v-3.5077c0-.9899-.2527-1.7533-.7572-2.2725-.2279-.2551-.5059-.4577-.8157-.5944-.3097-.1367-.6442-.2044-.9813-.1986-.5027-.0039-.9947.1496-1.4104.44v-3.2548zm-16.2847 7.9845c1.0249 0 1.827-.8085 1.827-1.9216s-.7743-1.9216-1.827-1.9216c-1.0239 0-1.8206.8239-1.8206 1.9216s.8021 1.9216 1.8206 1.9216zm1.8206 1.3331v-.5247c-.0682.0604-.1397.1166-.2142.1683-.496.2684-1.046.4145-1.6064.4268-.4281.008-.8533-.0724-1.2505-.2365-.3972-.164-.7583-.4084-1.0618-.7185-.3034-.3102-.5431-.6798-.7048-1.0869-.1617-.4072-.2421-.8435-.2365-1.2832-.0031-.4389.079-.8741.2416-1.28s.4024-.7744.7054-1.0839c.3029-.3096.663-.5539 1.0591-.7188.396-.1648.8201-.2469 1.2475-.2413.8461-.0114 1.6643.3106 2.2864.8997.6426.594.9639 1.4179.9639 2.4705v3.2085z"/></g><path d="m113.203 23.4799c.167-.1635.389-.2534.62-.2507.23.0027.451.098.614.2654s.255.3937.258.6304-.085.4651-.244.6364c-.167.1635-.389.2534-.62.2507-.23-.0027-.451-.098-.614-.2654s-.255-.3937-.258-.6304.085-.4651.244-.6364z" fill="#0bf"/><path d="m47.41 23.7223h1.3513v3.1292h.0237c.0948-.1501.2094-.2845.3437-.403.1344-.1185.2806-.2173.4386-.2963.1659-.087.3358-.1502.5097-.1897.1817-.0474.3595-.0711.5334-.0711.482 0 .9008.0869 1.2564.2608.3635.1659.6638.399.9008.6993.2371.2924.4149.6361.5334 1.0312s.1778.8179.1778 1.2683c0 .4109-.0553.8099-.1659 1.1971-.1028.3872-.2647.731-.486 1.0313-.2134.2923-.486.5294-.8179.7111-.3319.1739-.723.2608-1.1734.2608-.2055 0-.4149-.0158-.6282-.0474-.2055-.0237-.403-.0751-.5927-.1541-.1896-.079-.3635-.1817-.5215-.3082-.1502-.1264-.2766-.2923-.3793-.4978h-.0237v.8416h-1.2802zm4.7176 5.405c0-.2766-.0356-.5453-.1067-.806-.0711-.2608-.1778-.49-.32-.6875-.1423-.2055-.3201-.3675-.5334-.486-.2134-.1264-.4584-.1896-.7349-.1896-.569 0-.9996.1975-1.292.5926-.2845.3951-.4267.9206-.4267 1.5765 0 .3082.0355.5966.1067.8653.079.2607.1936.4859.3437.6756.1501.1896.3279.3398.5334.4504.2133.1106.4583.1659.7349.1659.3082 0 .5689-.0632.7823-.1896.2133-.1264.3872-.2884.5215-.486.1422-.2054.241-.4346.2963-.6875.0633-.2607.0949-.5254.0949-.7941z" fill="#141e33"/><path d="m53.945 26.0573h1.4816l1.6002 4.5753h.0237l1.5527-4.5753h1.4105l-2.3824 6.46c-.1107.2765-.2213.5412-.3319.7941-.1027.2529-.2331.4741-.3912.6638-.1501.1975-.3397.3516-.5689.4623-.2292.1185-.5215.1778-.8771.1778-.3161 0-.6282-.0238-.9364-.0712v-1.1379c.1106.0158.2173.0316.32.0475.1027.0237.2094.0355.32.0355.1581 0 .2885-.0197.3912-.0593.1027-.0395.1857-.0987.2489-.1778.0711-.0711.1304-.158.1778-.2607s.0909-.2213.1304-.3556l.1541-.4741z" fill="#141e33"/></svg>