<svg fill="none" height="18" viewBox="0 0 145 18" width="145" xmlns="http://www.w3.org/2000/svg" xmlns:xlink="http://www.w3.org/1999/xlink"><linearGradient id="a" gradientUnits="userSpaceOnUse" x1="129.437" x2="138.741" y1="6.72661" y2="11.8287"><stop offset="0" stop-color="#68a719"/><stop offset="1" stop-color="#68a718"/></linearGradient><g fill="#fff"><path d="m17.9639.981734-3.0408 12.349066h-3.9446l-1.18257-5.38054c-.02253-.10136-.05913-.27311-.10981-.51525-.04505-.24214-.09855-.51806-.16049-.82778-.05631-.30971-.10981-.61379-.16049-.91224-.04504-.30408-.07883-.5603-.10136-.76865-.02252.20835-.05912.46457-.1098.76865-.05068.29845-.10699.60253-.16894.91224-.05631.30972-.11262.58564-.16893.82778-.05068.24214-.08728.41389-.10981.51525l-1.19098 5.38054h-3.94461l-3.057702-12.349066h3.218192l1.34302 6.191426c.03379.15204.07884.36884.13515.6504.06194.27592.12389.58.18583.91224.06757.32661.12951.64195.18583.94603.05631.30408.09572.55747.11825.76017.04505-.3491.10418-.74609.17738-1.19095.07884-.44486.1633-.89535.2534-1.35147.09573-.46176.18583-.88972.2703-1.2839.08446-.39418.15767-.71515.21961-.96292l1.08962-4.671026h3.09151l1.0558 4.671026c.0563.24214.1267.56311.2112.96292.0901.39418.1802.82214.2703 1.2839.0957.46175.183.91787.2618 1.36836.0789.44486.138.83626.1774 1.17406.0338-.2815.0901-.63629.1689-1.06425.0789-.4336.1577-.85312.2366-1.25856.0844-.41107.1492-.72078.1942-.92914l1.3684-6.208316z"/><path d="m22.6359 3.59176c.9292 0 1.7316.1633 2.4073.48991.6758.32097 1.1966.80525 1.5627 1.45283.366.64758.549 1.45847.549 2.43265v1.46973h-5.9042c.0281.50117.2139.91222.5574 1.23322.3492.321.8616.4815 1.5373.4815.5969 0 1.1432-.0592 1.6387-.1774.5012-.1183 1.0164-.3013 1.5457-.5491v2.3736c-.4617.2421-.9657.4195-1.5119.5321s-1.236.1689-2.0695.1689c-.9629 0-1.8244-.1717-2.5846-.5152s-1.36-.8757-1.7992-1.5964c-.4336-.7208-.6504-1.64714-.6504-2.779 0-1.14875.1971-2.09197.5913-2.82964.3942-.74331.946-1.29235 1.6555-1.64711.7096-.36039 1.5345-.54059 2.4749-.54059zm.1183 2.24682c-.3886 0-.7152.12389-.9798.37166-.2591.24214-.4111.62505-.4562 1.14875h2.8381c-.0056-.28156-.0619-.53777-.1689-.76865s-.2647-.41389-.473-.54904c-.2027-.13514-.4561-.20272-.7602-.20272z"/><path d="m31.8053.187744v2.973236c0 .33787-.0113.66166-.0338.97137-.0225.30408-.0507.59127-.0844.86156h.1182c.2478-.38854.5716-.71797.9714-.98826.3998-.27592.9235-.41389 1.5711-.41389.9967 0 1.8104.42234 2.4411 1.26701.6363.84467.9544 2.06662.9544 3.66586 0 1.08681-.1464 2.00187-.4392 2.74517-.2928.7377-.7039 1.2952-1.2332 1.6725-.5237.3716-1.1319.5574-1.8245.5574-.6757 0-1.191-.1154-1.5457-.3463-.3492-.2365-.6476-.4899-.8954-.7602h-.2027l-.5237.9376h-2.5762v-13.143056zm1.3346 5.997156c-.3041 0-.5547.07039-.7518.21117-.1971.14077-.3435.36039-.4392.65884-.0957.29282-.1436.66729-.1436 1.12341v.46457c0 .74331.0986 1.29516.2956 1.65551.2028.3604.5603.5406 1.0728.5406.3885 0 .687-.1999.8953-.5997.2084-.3998.3126-.98262.3126-1.74845 0-.76584-.1014-1.34021-.3041-1.72313-.2027-.38855-.5153-.58282-.9376-.58282z"/><path d="m43.7577.981734c1.5655 0 2.7368.340686 3.5139 1.022046.7827.68137 1.174 1.64992 1.174 2.90567 0 .56311-.0816 1.1037-.2449 1.62176-.1577.51807-.4195.97982-.7856 1.38526-.3603.40544-.8418.72642-1.4443.96293-.5969.2365-1.3346.35476-2.2131.35476h-.9376v4.09664h-3.3364v-12.349066zm-.076 2.694496h-.8616v2.83809h.6589c.2872 0 .5547-.04787.8024-.14359.2478-.10137.4449-.26185.5913-.48147.152-.22524.228-.52369.228-.89535 0-.38854-.1154-.70389-.3463-.94603-.2308-.24777-.5884-.37165-1.0727-.37165z"/><path d="m53.8525 3.59176c1.2107 0 2.1568.30127 2.8381.9038.6814.5969 1.0221 1.45002 1.0221 2.55935v6.27589h-2.2891l-.6335-1.267h-.0675c-.2703.3379-.5491.6138-.8363.8278-.2815.2083-.6053.3604-.9713.4561-.3661.1014-.8137.152-1.3431.152-.5518 0-1.0474-.1126-1.4866-.3378-.4392-.2253-.7855-.566-1.0389-1.0221s-.3801-1.0333-.3801-1.7316c0-1.02482.3547-1.78502 1.0643-2.28056.7095-.49554 1.7372-.77428 3.083-.83622l1.5964-.05068v-.13515c0-.42797-.107-.73205-.3209-.91224-.2084-.1802-.49-.2703-.8447-.2703-.3773 0-.7996.06757-1.267.20272-.4618.12952-.9263.29845-1.3937.5068l-.9545-2.17924c.5518-.28156 1.1769-.49554 1.8752-.64195.6982-.14641 1.4809-.21962 2.3481-.21962zm.5744 5.46501-.7602.03379c-.6081.02253-1.0361.12952-1.2839.32098-.2421.18582-.3632.4533-.3632.80246 0 .3266.0873.5687.2619.7264.1745.152.4054.228.6926.228.3998 0 .7405-.1267 1.022-.3801.2872-.2534.4308-.5828.4308-.98822z"/><path d="m62.8824 17.4866c-1.3571 0-2.4045-.2281-3.1422-.6842-.732-.4505-1.098-1.1009-1.098-1.9512 0-.5687.1773-1.0389.5321-1.4106.3548-.3716.8869-.6391 1.5964-.8024-.2928-.1239-.549-.3238-.7686-.5997-.214-.276-.321-.5491-.321-.8194 0-.2984.0816-.5603.245-.7855.1633-.2309.5039-.504 1.022-.81934-.4955-.21962-.8869-.56312-1.1741-1.0305-.2815-.46738-.4223-1.03613-.4223-1.70623 0-.69263.1576-1.2839.473-1.77381.321-.48991.7855-.86438 1.3937-1.12341.6138-.25903 1.3599-.38855 2.2384-.38855.1182 0 .2984.01126.5406.03379.2421.01689.4871.03942.7348.06757.2478.02253.4393.04505.5744.06758h3.3364v1.59642l-1.3092.48146c.0901.16331.1577.34069.2027.53215.0451.19145.0676.39417.0676.60816 0 1.03049-.3632 1.83011-1.0896 2.39886-.7208.56874-1.7992.85315-3.2351.85315-.3548 0-.6363-.0226-.8447-.0676-.0394.0732-.0704.1464-.0929.2196-.0169.0676-.0253.1323-.0253.1943 0 .1295.076.2337.228.3125.1577.0732.3463.1239.566.152.2252.0282.4392.0423.6419.0423h1.588c1.0755 0 1.8808.2252 2.4157.6757.535.4505.8025 1.1291.8025 2.0357 0 1.1656-.4984 2.0722-1.4951 2.7198-.9911.6476-2.3848.9714-4.1811.9714zm.1605-2.061c.3998 0 .8024-.0366 1.2079-.1098.4054-.0676.7461-.1802 1.022-.3379s.4139-.366.4139-.625c0-.1971-.0817-.3464-.245-.4477-.1633-.0958-.3744-.1605-.6335-.1943-.259-.0338-.5321-.0507-.8193-.0507h-1.2839c-.2365 0-.4533.0366-.6504.1098-.1914.0789-.3435.183-.4561.3126-.1126.1295-.1689.2759-.1689.4392 0 .2703.1464.4871.4392.6504.2928.1689.6842.2534 1.1741.2534zm.4477-7.06145c.3153 0 .5574-.12107.7264-.36321.1745-.24214.2618-.60535.2618-1.08963 0-.49554-.0816-.86719-.2449-1.11496s-.4111-.37165-.7433-.37165c-.3435 0-.5998.12388-.7687.37165-.1689.24214-.2534.60816-.2534 1.09807s.0845.85875.2534 1.10652c.1689.24214.4252.36321.7687.36321z"/><path d="m74.0662 3.59176c.9291 0 1.7315.1633 2.4073.48991.6757.32097 1.1966.80525 1.5626 1.45283s.549 1.45847.549 2.43265v1.46973h-5.9042c.0282.50117.214.91222.5575 1.23322.3491.321.8615.4815 1.5373.4815.5969 0 1.1431-.0592 1.6386-.1774.5012-.1183 1.0165-.3013 1.5458-.5491v2.3736c-.4618.2421-.9658.4195-1.512.5321s-1.236.1689-2.0694.1689c-.9629 0-1.8245-.1717-2.5847-.5152s-1.3599-.8757-1.7992-1.5964c-.4335-.7208-.6503-1.64714-.6503-2.779 0-1.14875.197-2.09197.5912-2.82964.3942-.74331.946-1.29235 1.6556-1.64711.7095-.36039 1.5345-.54059 2.4749-.54059zm.1182 2.24682c-.3885 0-.7151.12389-.9798.37166-.259.24214-.4111.62505-.4561 1.14875h2.8381c-.0057-.28156-.062-.53777-.169-.76865s-.2646-.41389-.473-.54904c-.2027-.13514-.4561-.20272-.7602-.20272z"/><path d="m85.0563 13.3308h-3.3364v-9.62078h-3.0155v-2.728286h9.3589v2.728286h-3.007z"/><path d="m92.5583 3.59176c.9292 0 1.7316.1633 2.4073.48991.6758.32097 1.1967.80525 1.5627 1.45283s.549 1.45847.549 2.43265v1.46973h-5.9042c.0281.50117.214.91222.5575 1.23322.3491.321.8615.4815 1.5373.4815.5969 0 1.1431-.0592 1.6386-.1774.5012-.1183 1.0164-.3013 1.5458-.5491v2.3736c-.4618.2421-.9658.4195-1.512.5321s-1.236.1689-2.0694.1689c-.963 0-1.8245-.1717-2.5847-.5152s-1.3599-.8757-1.7992-1.5964c-.4336-.7208-.6504-1.64714-.6504-2.779 0-1.14875.1971-2.09197.5913-2.82964.3942-.74331.946-1.29235 1.6555-1.64711.7096-.36039 1.5345-.54059 2.4749-.54059zm.1183 2.24682c-.3886 0-.7152.12389-.9798.37166-.2591.24214-.4111.62505-.4561 1.14875h2.838c-.0056-.28156-.0619-.53777-.1689-.76865s-.2647-.41389-.473-.54904c-.2027-.13514-.4561-.20272-.7602-.20272z"/><path d="m105.71 10.3914c0 .6081-.135 1.1459-.405 1.6133-.271.4674-.704.8334-1.301 1.098-.591.2647-1.371.397-2.34.397-.681 0-1.292-.0366-1.8327-.1098-.535-.0732-1.0784-.214-1.6302-.4223v-2.6438c.6025.2759 1.2163.4758 1.8409.5997.626.1182 1.118.1774 1.479.1774.371 0 .642-.0394.811-.1183.174-.0844.261-.2083.261-.3716 0-.1408-.059-.2591-.177-.3548-.113-.1014-.318-.2168-.617-.34631-.292-.12952-.706-.30408-1.241-.52369-.53-.21962-.9717-.45894-1.3264-.71797-.3492-.25903-.611-.56875-.7856-.92914-.1745-.36039-.2618-.80244-.2618-1.32613 0-.93477.3604-1.63866 1.0812-2.11167.7207-.47302 1.6756-.70953 2.8636-.70953.63 0 1.225.07039 1.782.21117.558.13515 1.135.33505 1.732.59972l-.904 2.12856c-.473-.21398-.952-.38573-1.436-.51525-.484-.12951-.87-.19427-1.157-.19427-.259 0-.459.03379-.6.10136s-.211.16612-.211.29563c0 .11826.048.22244.143.31253.102.0901.29.19428.566.31253s.679.28437 1.208.49836c.558.22524 1.017.46738 1.377.72641.366.2534.636.56311.811.92914.18.36602.27.83059.27 1.39375z"/><path d="m112.066 10.8897c.299 0 .572-.031.82-.0929.248-.062.507-.1408.777-.2365v2.4073c-.36.1577-.743.2844-1.149.3801-.4.1014-.912.152-1.537.152-.62 0-1.166-.0957-1.639-.2872-.473-.197-.842-.5349-1.106-1.0136-.259-.4842-.389-1.1572-.389-2.0187v-3.94462h-1.157v-1.34303l1.47-1.03894.853-2.01031h2.162v1.9174h2.348v2.47488h-2.348v3.72499c0 .30973.079.54343.237.70103.157.1521.377.2281.658.2281z"/></g><rect fill="url(#a)" height="13.2586" rx="2.37713" stroke="#fff" stroke-width=".754256" width="23.269" x="120.999" y=".65783"/><path d="m127.567 3.3649c.949 0 1.641.20446 2.077.61339.436.40557.654.96533.654 1.67928 0 .32178-.049.63015-.146.92511-.097.29162-.257.55139-.478.77931-.218.22793-.509.40893-.875.543-.365.13073-.816.19609-1.352.19609h-.669v2.61442h-1.559v-7.3506zm-.08 1.27706h-.709v2.18206h.513c.292 0 .545-.03855.759-.11564.215-.07709.381-.19776.498-.362s.176-.37541.176-.6335c0-.362-.101-.63015-.302-.80445-.201-.17765-.513-.26647-.935-.26647z" fill="#fff"/><path d="m134.187 4.98887c.077 0 .166.00503.267.01509.103.0067.187.01676.251.03016l-.116 1.43795c-.05-.01676-.122-.02849-.216-.03519-.09-.01006-.169-.01508-.236-.01508-.198 0-.391.02513-.578.07541-.185.05028-.351.1324-.498.24636-.148.11061-.265.2581-.352.44245-.084.181-.126.4039-.126.6687v2.86078h-1.533v-5.62104h1.161l.226.94522h.076c.11-.19105.248-.36535.412-.52289.168-.16089.357-.28826.568-.38211.215-.0972.446-.14581.694-.14581z" fill="#fff"/><path d="m140.319 7.89494c0 .46926-.064.88489-.191 1.24689-.124.362-.307.66869-.548.92007-.238.2481-.526.4358-.865.5631-.335.1274-.714.1911-1.136.1911-.396 0-.759-.0637-1.091-.1911-.329-.1273-.615-.315-.86-.5631-.241-.25138-.429-.55807-.563-.92007-.131-.362-.196-.77763-.196-1.24689 0-.62345.11-1.15137.332-1.58376.221-.43239.536-.76087.945-.98544.409-.22458.897-.33687 1.463-.33687.526 0 .992.11229 1.398.33687.409.22457.729.55305.96.98544.235.43239.352.96031.352 1.58376zm-3.887 0c0 .3687.041.67875.121.93014.081.25139.206.44077.377.56814s.394.19105.669.19105c.271 0 .491-.06368.659-.19105.17-.12737.295-.31675.372-.56814.08-.25139.12-.56144.12-.93014 0-.37206-.04-.68043-.12-.92512-.077-.24803-.202-.43406-.372-.55808-.171-.12402-.394-.18603-.669-.18603-.406 0-.701.1391-.885.41731-.181.2782-.272.69551-.272 1.25192z" fill="#fff"/></svg>