<svg fill="none" height="17" viewBox="0 0 113 17" width="113" xmlns="http://www.w3.org/2000/svg"><path d="m16.0513.848356-2.928 11.232044h-3.31201l-1.792-7.39204-1.85599 7.39204h-3.312l-2.8480041-11.232044h2.9279941l1.616 8.176004 2-8.176004h3.008l1.92001 8.176004 1.632-8.176004zm9.788 6.624004c0 .256-.016.523-.048.8h-6.192c.043.555.219.981.528 1.28.32.288.71.432 1.168.432.683 0 1.157-.288 1.424-.864h2.912c-.1476.58334-.4267 1.12514-.816 1.58404-.384.47-.87.837-1.456 1.104-.587.267-1.242.4-1.968.4-.874 0-1.653-.187-2.336-.56-.6768-.3675-1.2325-.9233-1.6-1.6-.384-.69304-.576-1.50404-.576-2.43204s.187-1.739.56-2.432c.3675-.67677.9232-1.23252 1.6-1.6.683-.373 1.467-.56 2.352-.56.864 0 1.632.181 2.304.544s1.195.88 1.568 1.552c.384.672.576 1.456.576 2.352zm-2.8-.72c0-.47-.16-.843-.48-1.12s-.72-.416-1.2-.416c-.459 0-.848.133-1.168.4-.31.267-.501.645-.576 1.136zm6.98-2.336c.255-.416.624-.752 1.103-1.008.48-.256 1.03-.384 1.648-.384.736 0 1.403.187 2 .56.598.373 1.067.907 1.409 1.6.352.693.528 1.499.528 2.416s-.177 1.728-.528 2.43204c-.342.693-.811 1.232-1.408 1.616-.5995.3739-1.2935.5682-2 .56-.63 0-1.18-.123-1.649-.368-.4479-.2364-.828-.5834-1.104-1.008v1.248h-2.735v-11.840044h2.736zm3.904 3.184c0-.683-.192-1.216-.576-1.6-.1767-.19179-.3923-.34377-.6323-.44584s-.499-.1519-.7597-.14616c-.544 0-1.008.197-1.392.592-.374.395-.56.933-.56 1.616s.186 1.221.56 1.616c.178.19018.3938.34108.6335.44303.2397.10194.498.15268.7585.14897.2603.00357.5185-.04724.758-.14918s.4551-.25276.633-.44282c.385-.405.577-.95.577-1.632zm12.779-3.136c0 .65-.15 1.248-.448 1.792-.299.533-.757.965-1.376 1.296-.619.33-1.387.496-2.304.496h-1.696v4.03204h-2.736v-11.232044h4.432c.896 0 1.653.155004 2.272.464004.619.31 1.083.736 1.392 1.28.31.544.464 1.168.464 1.872zm-4.336 1.408c.522 0 .912-.123 1.168-.368s.384-.592.384-1.04-.128-.795-.384-1.04-.645-.368-1.168-.368h-1.488v2.816zm5.216 1.728c0-.917.17-1.723.512-2.416.352-.693.827-1.227 1.424-1.6.5995-.37394 1.2935-.56828 2-.56.63 0 1.179.128 1.648.384.48.256.848.592 1.104 1.008v-1.264h2.736v8.92804h-2.736v-1.264c-.2794.4275-.6654.775-1.12 1.008-.47.256-1.018.384-1.648.384-.7013.0067-1.3898-.1876-1.984-.56-.597-.384-1.072-.923-1.424-1.616-.341-.70404-.512-1.51504-.512-2.43204zm6.688.016c0-.683-.192-1.221-.576-1.616-.1742-.19066-.387-.34206-.6243-.44413-.2372-.10207-.4935-.15248-.7517-.14787-.544 0-1.008.197-1.392.592-.373.384-.56.917-.56 1.6s.187 1.227.56 1.632c.178.19018.3938.34108.6335.44303.2397.10194.498.15268.7585.14897.2582.0046.5145-.04581.7517-.14788.2373-.10207.4501-.25346.6243-.44412.384-.395.576-.933.576-1.616zm8.108-4.592c.629 0 1.178.128 1.648.384.48.256.848.592 1.104 1.008v-1.264h2.736v8.91204c0 .821-.166 1.563-.496 2.224-.3208.6729-.8401 1.2313-1.488 1.6-.662.395-1.488.592-2.48.592-1.323 0-2.395-.315-3.216-.944-.822-.619-1.291-1.461-1.408-2.528h2.704c.085.341.288.608.608.8.32.203.714.304 1.184.304.565 0 1.013-.165 1.344-.496.341-.32.512-.837.512-1.552v-1.264c-.2785.4267-.6576.7783-1.104 1.024-.47.256-1.019.384-1.648.384-.7065.0082-1.4005-.1861-2-.56-.598-.384-1.072-.923-1.424-1.616-.342-.70404-.512-1.51504-.512-2.43204s.17-1.723.512-2.416c.352-.693.826-1.227 1.424-1.6.5995-.37394 1.2935-.56828 2-.56zm2.752 4.592c0-.683-.192-1.221-.576-1.616-.1743-.19061-.3871-.34197-.6243-.44404-.2373-.10207-.4935-.1525-.7517-.14796-.544 0-1.008.197-1.392.592-.374.384-.56.917-.56 1.6s.186 1.227.56 1.632c.178.19018.3938.34108.6335.44303.2397.10194.498.15268.7585.14897.544 0 1.002-.197 1.376-.592.384-.395.576-.933.576-1.616zm13.131-.144c0 .256-.016.523-.048.8h-6.192c.043.555.219.981.528 1.28.32.288.709.432 1.168.432.683 0 1.157-.288 1.424-.864h2.912c-.1473.58344-.4265 1.12534-.816 1.58404-.3929.4762-.8914.8542-1.456 1.104-.587.267-1.243.4-1.968.4-.875 0-1.653-.187-2.336-.56-.6769-.3674-1.2327-.9232-1.6-1.6-.384-.69304-.576-1.50404-.576-2.43204s.187-1.739.56-2.432c.3673-.67687.9231-1.23266 1.6-1.6.683-.373 1.467-.56 2.352-.56.864 0 1.632.181 2.304.544s1.195.88 1.568 1.552c.384.672.576 1.456.576 2.352zm-2.8-.72c0-.47-.16-.843-.48-1.12s-.72-.416-1.2-.416c-.459 0-.848.133-1.168.4-.309.267-.501.645-.576 1.136zm12.323-5.904004v2.192004h-2.976v9.04004h-2.736v-9.04004h-2.976v-2.192004zm9.789 6.624004c0 .256-.015.523-.047.8h-6.192c.042.555.218.981.528 1.28.32.288.709.432 1.168.432.682 0 1.157-.288 1.424-.864h2.912c-.1481.58313-.4272 1.12484-.816 1.58404-.384.47-.87.837-1.456 1.104-.587.267-1.243.4-1.968.4-.875 0-1.654-.187-2.336-.56-.6769-.3674-1.2327-.9232-1.6-1.6-.384-.69304-.576-1.50404-.576-2.43204s.186-1.739.56-2.432c.3673-.67687.9231-1.23266 1.6-1.6.682-.373 1.466-.56 2.352-.56.864 0 1.632.181 2.304.544s1.194.88 1.568 1.552c.384.672.575 1.456.575 2.352zm-2.799-.72c0-.47-.16-.843-.48-1.12s-.72-.416-1.2-.416c-.459 0-.848.133-1.168.4-.31.267-.502.645-.576 1.136zm7.8747 5.45604c-.779 0-1.472-.133-2.08-.4-.6077-.267-1.0877-.63-1.4397-1.088-.346-.4538-.5517-.99885-.592-1.56804h2.7037c.032.31.176.56.432.752.256.19204.571.28804.944.28804.341 0 .603-.064.784-.192.192-.13904.288-.31504.288-.52804 0-.256-.133-.443-.4-.56-.267-.128-.699-.267-1.296-.416-.542-.12083-1.077-.2758-1.6-.464-.425-.16947-.8036-.4383-1.1037-.784-.309-.363-.464-.848-.464-1.456 0-.512.139-.976.416-1.392.288-.427.704-.763 1.2477-1.008.555-.245 1.211-.368 1.968-.368 1.12 0 2 .277 2.64.832.651.555 1.024 1.29 1.12 2.208h-2.528c-.016-.14438-.061-.28401-.133-.41049-.071-.12647-.167-.2372-.283-.32551-.224-.181-.523-.272-.896-.272-.32 0-.565.064-.736.192-.082.05357-.148.1274-.193.21431-.045.08692-.066.18395-.063.28169 0 .256.133.448.4.576.277.128.704.256 1.28.384.661.17 1.2.341 1.616.512.416.16.779.427 1.088.8.32.363.485.853.496 1.472 0 .52304-.149.99204-.448 1.40804-.288.405-.709.725-1.264.96-.544.235-1.179.352-1.904.352zm10.266-2.44804v2.32004h-1.392c-.992 0-1.766-.24-2.32-.72-.555-.49-.832-1.285-.832-2.38404v-3.552h-1.088v-2.272h1.088v-2.176003h2.736v2.176003h1.792v2.272h-1.792v3.584c0 .267.064.459.192.576s.341.176.64.176z" fill="#fff"/></svg>