<svg fill="none" height="18" viewBox="0 0 18 18" width="18" xmlns="http://www.w3.org/2000/svg"><path d="m10.88 9.00002 5.7333-5.72c.2511-.25107.3921-.59159.3921-.94666s-.141-.6956-.3921-.94667-.5916-.392122-.9467-.392122c-.355 0-.6955.141052-.9466.392122l-5.72002 5.73333-5.72-5.73333c-.25107-.25107-.5916-.392122-.94667-.392122s-.69559.141052-.94666.392122c-.25108.25107-.392126.5916-.392126.94667s.141046.69559.392126.94666l5.73333 5.72-5.73333 5.71998c-.12497.124-.22417.2714-.29186.4339s-.102541.3368-.102541.5128.034851.3503.102541.5128c.06769.1624.16689.3099.29186.4339.12395.1249.27141.2241.43389.2918s.33676.1026.51277.1026c.17602 0 .35029-.0349.51277-.1026s.30995-.1669.4339-.2918l5.72-5.7334 5.72002 5.7334c.1239.1249.2714.2241.4339.2918s.3367.1026.5127.1026c.1761 0 .3503-.0349.5128-.1026s.31-.1669.4339-.2918c.125-.124.2242-.2715.2919-.4339.0677-.1625.1025-.3368.1025-.5128s-.0348-.3503-.1025-.5128-.1669-.3099-.2919-.4339z" fill="#5dbbe8"/></svg>