<svg xmlns="http://www.w3.org/2000/svg" width="24" height="24"><path d="M23 9.71a8.5 8.5 0 0 0-.91-4.13 2.92 2.92 0 0 0-1.72-1A78.36 78.36 0 0 0 12 4.27a77.4 77.4 0 0 0-8.34.3c-.55.1-1.06.36-1.46.74-.9.83-1 2.25-1.1 3.45a48.29 48.29 0 0 0 0 6.48c.03.68.13 1.35.3 2 .12.5.36.97.71 1.36.4.4.93.68 1.49.78 2.16.27 4.33.38 6.5.33 3.5.05 6.57 0 10.2-.28.58-.1 1.11-.37 1.53-.78.28-.28.49-.62.61-1 .36-1.1.53-2.25.52-3.4.04-.56.04-3.94.04-4.54ZM9.74 14.85V8.66l5.92 3.11c-1.66.92-3.85 1.96-5.92 3.08Z"/></svg>
