<?xml version="1.0" standalone="no"?>
<!DOCTYPE svg PUBLIC "-//W3C//DTD SVG 20010904//EN"
 "http://www.w3.org/TR/2001/REC-SVG-20010904/DTD/svg10.dtd">
<svg version="1.0" xmlns="http://www.w3.org/2000/svg"
 width="700.000000pt" height="700.000000pt" viewBox="0 0 700.000000 700.000000"
 preserveAspectRatio="xMidYMid meet">
<metadata>
Created by potrace 1.11, written by Peter Selinger 2001-2013
</metadata>
<g transform="translate(0.000000,700.000000) scale(0.100000,-0.100000)"
fill="#000000" stroke="none">
<path d="M0 3500 l0 -3500 3500 0 3500 0 0 3500 0 3500 -3500 0 -3500 0 0
-3500z m3675 2520 c512 -37 979 -198 1410 -485 204 -136 333 -241 510 -419
594 -595 959 -1375 1070 -2291 35 -286 30 -745 -11 -1065 -17 -128 -73 -421
-83 -432 -5 -6 -267 54 -276 64 -2 2 2 28 10 58 71 273 118 749 100 1023 l-7
117 -479 0 -479 0 0 180 0 180 460 0 460 0 0 25 c0 40 -58 307 -94 433 -119
412 -310 801 -559 1141 l-69 94 -327 -327 -326 -326 -125 125 -125 125 333
333 333 333 -93 90 c-321 313 -757 552 -1212 664 -112 27 -359 70 -408 70 -17
0 -18 -30 -18 -490 l0 -490 -180 0 -180 0 0 490 c0 460 -1 490 -17 490 -55 0
-314 -46 -427 -75 -463 -119 -853 -335 -1211 -669 l-80 -75 335 -335 335 -336
-128 -127 -127 -128 -323 323 c-177 177 -325 322 -329 322 -3 0 -36 -40 -71
-88 -312 -425 -544 -966 -635 -1484 l-19 -108 458 0 459 0 0 -180 0 -180 -482
-2 -483 -3 1 -280 c1 -304 18 -486 70 -730 14 -66 27 -136 30 -155 l6 -35
-137 -34 c-75 -18 -138 -31 -140 -29 -9 8 -75 356 -89 470 -67 520 -38 1044
85 1547 248 1010 871 1860 1704 2324 483 268 1044 395 1580 357z m-22 -2800
c177 -67 307 -252 307 -435 l0 -62 703 -343 c386 -189 813 -397 948 -462 l246
-120 -71 -149 c-39 -82 -76 -149 -81 -149 -6 0 -433 207 -948 460 -516 253
-940 460 -943 460 -2 0 -27 -15 -54 -34 -161 -111 -371 -114 -536 -8 -205 133
-274 407 -156 626 56 104 174 197 293 231 76 21 216 14 292 -15z"/>
</g>
</svg>
