<svg height="700pt" preserveAspectRatio="xMidYMid meet" viewBox="0 0 700 700" width="700pt" xmlns="http://www.w3.org/2000/svg"><path d="m0 3500v-3500h3500 3500v3500 3500h-3500-3500zm3675 2520c512-37 979-198 1410-485 204-136 333-241 510-419 594-595 959-1375 1070-2291 35-286 30-745-11-1065-17-128-73-421-83-432-5-6-267 54-276 64-2 2 2 28 10 58 71 273 118 749 100 1023l-7 117h-479-479v180 180h460 460v25c0 40-58 307-94 433-119 412-310 801-559 1141l-69 94-327-327-326-326-125 125-125 125 333 333 333 333-93 90c-321 313-757 552-1212 664-112 27-359 70-408 70-17 0-18-30-18-490v-490h-180-180v490c0 460-1 490-17 490-55 0-314-46-427-75-463-119-853-335-1211-669l-80-75 335-335 335-336-128-127-127-128-323 323c-177 177-325 322-329 322-3 0-36-40-71-88-312-425-544-966-635-1484l-19-108h458 459v-180-180l-482-2-483-3 1-280c1-304 18-486 70-730 14-66 27-136 30-155l6-35-137-34c-75-18-138-31-140-29-9 8-75 356-89 470-67 520-38 1044 85 1547 248 1010 871 1860 1704 2324 483 268 1044 395 1580 357zm-22-2800c177-67 307-252 307-435v-62l703-343c386-189 813-397 948-462l246-120-71-149c-39-82-76-149-81-149-6 0-433 207-948 460-516 253-940 460-943 460-2 0-27-15-54-34-161-111-371-114-536-8-205 133-274 407-156 626 56 104 174 197 293 231 76 21 216 14 292-15z" transform="matrix(.1 0 0 -.1 0 700)"/></svg>