<svg viewBox="0 0 100 48" xmlns="http://www.w3.org/2000/svg"><path d="m58.6 32.2v-1.5s-.1-1.2-1.3-1.2h-2v2.7h-2v-7.6h4.9s2.5-.3 2.5 2.2c0 1.3-1.1 1.8-1.1 1.8s1 .4 1 1.7v1.9zm-3.3-4.5h2.1c.6 0 1.1-.3 1.1-.7s-.5-.7-1.1-.7h-2.1zm-10.1 4.5h-1.8l-2.1-2.3-2.1 2.3h-7.5v-7.7h7.3l2.3 2.4 2.3-2.4h6.4s2.5-.3 2.5 2.2c0 2.3-.8 3-3.4 3h-2v2.5zm-2.6-3.8 2.5 2.7v-5.3zm-8.9 2.1h4.2l2-2.1-2-2.1h-4.2v1.2h4.1v1.7h-4.1zm13.4-2.8h2.1c.6 0 1.1-.3 1.1-.7s-.5-.7-1.1-.7h-2.1zm25.2 4.5h-3.6v-1.8h3.1s1.1.1 1.1-.6-1.7-.6-1.7-.6-2.8.2-2.8-2.3 2.5-2.4 2.5-2.4h3.9v1.8h-3.1s-1.1-.2-1.1.5c0 .6 1.5.5 1.5.5s3.1-.2 3.1 2.1c0 2.5-2 2.7-2.7 2.7-.1.1-.2.1-.2.1m-10.8 0v-7.6h6.3v1.8h-4.2v1.2h4.1v1.7h-4.1v1.3h4.2v1.7h-6.3m17.8-.1h-3.6v-1.8h3.1s1.1.1 1.1-.6-1.7-.6-1.7-.6-2.8.2-2.8-2.3 2.5-2.4 2.5-2.4h3.8v1.8h-3.1s-1.1-.2-1.1.5c0 .6 1.5.5 1.5.5s3.1-.2 3.1 2.1c0 2.5-2 2.7-2.7 2.7 0 .1-.1.1-.1.1m-28-8.2v-1.5s-.1-1.2-1.3-1.2h-2v2.7h-2v-7.6h4.9s2.5-.3 2.5 2.2c0 1.3-1.1 1.8-1.1 1.8s1 .4 1 1.7v1.9zm-3.3-4.5h2.1c.6 0 1.1-.3 1.1-.7s-.5-.7-1.1-.7h-2.1zm27 4.5-3.2-5.1v5.1h-3.9l-.7-1.6h-3.7l-.7 1.6h-3.1s-2.7-.4-2.7-3.6c0-4.2 3.1-4.1 3.2-4.1l2.5.1v1.6h-2s-1.3 0-1.5 1.7v.5c0 2.6 2.3 1.8 2.4 1.8l2.5-5.7h2.8l3 6.9v-6.9h2.8l3.1 5v-5h2v7.7zm-10.6-3.6h2l-1-2.3zm-29.1 3.6v-5.3l-2.6 5.3h-1.6l-2.5-5.3v5.3h-4l-.7-1.6h-3.7l-.7 1.6h-2.2l3.3-7.6h2.8l3.1 7v-7h3.2l2.2 4.8 2.2-4.8h3.2v7.6zm-14.2-3.5h2l-1-2.3zm17.6 3.5v-7.6h6.3v1.8h-4.2v1.2h4.1v1.6h-4.1v1.3h4.2v1.7zm15.6 0v-7.7h2v7.7z" fill="#008bb6"/></svg>