<?xml version="1.0" encoding="utf-8"?>
<!-- Generator: Adobe Illustrator 21.0.0, SVG Export Plug-In . SVG Version: 6.00 Build 0)  -->
<svg version="1.1" id="Layer_1" xmlns="http://www.w3.org/2000/svg" xmlns:xlink="http://www.w3.org/1999/xlink" x="0px" y="0px"
	 viewBox="0 0 100 48" style="enable-background:new 0 0 100 48;" xml:space="preserve">
<style type="text/css">
	.st0{fill:#004A97;}
	.st1{fill:#231F20;}
</style>
<g>
	<path class="st0" d="M68.8,7.9H31.2C29.4,7.9,28,9.3,28,11v26c0,1.7,1.4,3.1,3.2,3.1h37.6c1.8,0,3.2-1.4,3.2-3.1V11
		C72,9.3,70.6,7.9,68.8,7.9z M71.5,37c0,1.4-1.2,2.6-2.7,2.6H31.2c-1.5,0-2.7-1.2-2.7-2.6V11c0-1.4,1.2-2.6,2.7-2.6h37.6
		c1.5,0,2.7,1.2,2.7,2.6V37z"/>
	<g>
		<path class="st1" d="M33.7,32c2.8,0,3.3-2,3.3-2.8c0-1.4-1.1-2.8-3.2-2.8c-0.6,0-1,0-1.4,0c-0.3,0-0.6,0-0.9,0v0.2
			c0.4,0,0.7,0,0.7,0.7v3.8c0,0.5-0.3,0.6-0.7,0.6V32c0.4,0,0.7,0,1.1,0C33,32,33.3,32,33.7,32z M33,26.7c0.1,0,0.3,0,0.6,0
			c1.5,0,2.5,1.1,2.5,2.5c0,1.2-0.6,2.5-2.3,2.5c-0.4,0-0.8-0.1-0.8-0.7V26.7z"/>
		<path class="st1" d="M38.1,27.1c0.2,0,0.4-0.2,0.4-0.4s-0.2-0.4-0.4-0.4c-0.2,0-0.4,0.2-0.4,0.4C37.7,27,37.9,27.1,38.1,27.1z"/>
		<path class="st1" d="M39,32v-0.2h-0.1c-0.2,0-0.4,0-0.4-0.3v-3c0-0.1,0-0.1-0.1-0.1c0,0-0.1,0-0.1,0c0,0-0.5,0.2-0.8,0.3v0.1
			c0.3,0.2,0.4,0.2,0.4,0.6v2.1c0,0.3-0.2,0.3-0.4,0.3h-0.2V32c0.3,0,0.6,0,0.9,0C38.4,32,38.7,32,39,32z"/>
		<path class="st1" d="M43.2,31.8H43c-0.2,0-0.4,0-0.4-0.3v-2c0-0.6-0.2-1.1-0.9-1.1c-0.5,0-0.9,0.3-1.4,0.6v-0.5c0-0.1,0-0.1,0-0.1
			c-0.4,0.2-0.7,0.3-1,0.4v0.2c0.4,0.2,0.5,0.2,0.5,0.5v2.1c0,0.3-0.2,0.3-0.4,0.3h-0.1V32c0.3,0,0.6,0,0.9,0c0.3,0,0.6,0,0.8,0
			v-0.2h-0.1c-0.2,0-0.4,0-0.4-0.3v-2.3c0.3-0.2,0.7-0.4,0.9-0.4c0.5,0,0.7,0.2,0.7,0.7v2c0,0.3-0.2,0.3-0.4,0.3h-0.1V32
			c0.3,0,0.6,0,0.9,0c0.3,0,0.6,0,0.8,0V31.8z"/>
		<path class="st1" d="M44.6,32.1c0.6,0,1.1-0.4,1.5-0.9L46,31.1c-0.3,0.3-0.6,0.5-1.1,0.5c-0.6,0-1.1-0.6-1.2-1.4
			c0-0.3,0-0.4,0-0.5H46l0.1,0c0,0,0-0.1,0-0.1c0-0.8-0.7-1.2-1.3-1.2c-0.6,0-1.6,0.5-1.6,2C43.1,30.9,43.4,32.1,44.6,32.1z
			 M44.7,28.6c0.4,0,0.7,0.3,0.7,0.7c0,0.1,0,0.2-0.2,0.2h-1.4C43.9,29,44.2,28.6,44.7,28.6z"/>
		<path class="st1" d="M48.3,32v-0.2h-0.4c-0.2,0-0.4,0-0.4-0.3v-1.9c0-0.5,0.4-0.7,0.6-0.7c0.3,0,0.3,0.2,0.5,0.2
			c0.2,0,0.4-0.2,0.4-0.4c0-0.3-0.3-0.4-0.5-0.4c-0.5,0-0.8,0.5-1,0.8h0v-0.7c0-0.1,0-0.1-0.1-0.1c-0.1,0-0.4,0.2-1,0.5v0.1
			c0.1,0.1,0.4,0.1,0.4,0.4v2.2c0,0.3-0.2,0.3-0.4,0.3h-0.2V32c0.3,0,0.6,0,0.9,0C47.5,32,47.9,32,48.3,32z"/>
		<path class="st1" d="M50.3,31.9c-0.6,0-0.9-0.4-1-1l-0.1,0l0.1,0.9c0.3,0.2,0.6,0.3,1,0.3c0.9,0,1.4-0.6,1.4-1.1
			c0-1.2-1.8-1-1.8-1.9c0-0.3,0.3-0.5,0.6-0.5c0.5,0,0.8,0.3,0.9,0.8h0.2l-0.1-0.8c-0.3-0.2-0.6-0.2-0.9-0.2c-0.9,0-1.2,0.6-1.2,1
			c0,1.3,1.7,1,1.7,1.9C50.9,31.6,50.8,31.9,50.3,31.9z"/>
		<path class="st1" d="M58.6,31.7l0.2-1.2l-0.2,0c-0.2,0.8-0.8,1.4-1.6,1.4c-1.2,0-2.4-1.1-2.4-2.7c0-1.9,1.3-2.5,2.2-2.5
			c0.9,0,1.5,0.4,1.7,1.3h0.2l-0.1-1.1c-0.6-0.2-1.2-0.4-1.9-0.4c-1.6,0-3,1.2-3,2.8c0,1.8,1.2,3,3,3C57.3,32.1,58.2,31.9,58.6,31.7
			z"/>
		<path class="st1" d="M60.7,32v-0.2h-0.1c-0.2,0-0.4,0-0.4-0.3V26c0-0.1,0-0.1-0.1-0.1c0,0-0.1,0-0.2,0.1c-0.2,0.1-0.5,0.2-0.8,0.3
			v0.1c0.3,0.1,0.4,0.1,0.4,0.6v4.4c0,0.3-0.2,0.3-0.4,0.3H59V32c0.3,0,0.6,0,0.9,0C60.2,32,60.4,32,60.7,32z"/>
		<path class="st1" d="M61.2,29.1v2c0,0.7,0.4,0.9,0.9,0.9c0.6,0,0.9-0.3,1.4-0.7v0.6l0,0c0.2,0,0.8-0.2,1.1-0.2v-0.2
			c-0.1,0-0.2,0-0.3,0c-0.1,0-0.2,0-0.2-0.2v-2.9c0-0.1,0-0.1-0.1-0.1c-0.1,0-0.5,0.1-1.2,0.1v0.1c0.3,0.1,0.7,0.2,0.7,0.3v2.1
			c-0.3,0.3-0.7,0.5-1,0.5c-0.7,0-0.7-0.7-0.7-0.9v-2c0-0.2,0-0.2-0.1-0.2c-0.1,0-0.7,0-1,0.1v0.2C61.1,28.7,61.2,28.9,61.2,29.1z"
			/>
		<path class="st1" d="M65,27.1v3.4c0,0.5,0,0.9-0.1,1.4l0.2,0.1l0.2-0.2c0.2,0.1,0.5,0.3,1.1,0.3c1.1,0,1.9-1,1.9-2.1
			c0-0.9-0.6-1.7-1.5-1.7c-0.4,0-0.9,0.3-1.2,0.6V26c0-0.1,0-0.1-0.1-0.1c0,0-0.1,0-0.2,0.1c-0.2,0.1-0.5,0.2-0.8,0.3v0.1
			C64.9,26.6,65,26.6,65,27.1z M65.7,29.2c0.2-0.2,0.5-0.4,0.8-0.4c0.6,0,1.3,0.7,1.3,1.6c0,0.7-0.4,1.5-1.2,1.5
			c-0.5,0-0.8-0.5-0.8-0.8V29.2z"/>
		<path class="st1" d="M32.1,33.7c-0.2,0-0.5,0-0.6,0h0v0.1v0h0.1c0.2,0,0.3,0,0.3,0.2v2.3c0,0.2-0.1,0.2-0.3,0.2h-0.1h0v0v0.1v0h0
			c0.2,0,0.4,0,0.6,0c0.2,0,0.5,0,0.7,0h0v-0.1v0h-0.1c-0.2,0-0.3,0-0.3-0.2v-2.3c0-0.2,0.1-0.2,0.3-0.2h0.1h0v-0.1v0h0
			C32.6,33.7,32.4,33.7,32.1,33.7z"/>
		<path class="st1" d="M35.9,33.7c-0.2,0-0.4,0-0.6,0h0v0.1v0h0.1c0.1,0,0.4,0,0.4,0.4v1.6l-1.9-2.1c-0.1,0-0.3,0-0.4,0
			c-0.2,0-0.3,0-0.5,0h0v0.1v0H33c0.2,0,0.4,0.1,0.4,0.4V36c0,0.3-0.1,0.5-0.4,0.5H33h0v0.1v0h0c0.2,0,0.4,0,0.6,0
			c0.2,0,0.4,0,0.6,0h0v-0.1v0h-0.1c-0.3,0-0.4-0.1-0.4-0.5v-1.7l2.2,2.4l0.2,0h0l0,0c0-0.1,0-0.3,0-0.4v-2c0-0.5,0.2-0.5,0.4-0.5
			h0.1h0v-0.1v0h0C36.3,33.7,36.1,33.7,35.9,33.7z"/>
		<path class="st1" d="M39.5,33.6L39.5,33.6c0,0.1-0.1,0.1-0.2,0.1H37h0c-0.1,0-0.2,0-0.2-0.1l0,0h-0.1h0v0c0,0.1,0,0.2,0,0.4
			c0,0.1,0,0.2-0.1,0.4l0,0h0.2h0l0,0c0.1-0.3,0.1-0.4,0.4-0.4h0.7v2.3c0,0.3-0.1,0.3-0.3,0.3h-0.1h0v0.1v0h0c0.2,0,0.5,0,0.7,0
			c0.2,0,0.5,0,0.7,0h0v-0.1v0h-0.1c-0.2,0-0.3,0-0.3-0.4v-2.3h0.7c0.3,0,0.3,0.2,0.3,0.4l0,0l0.2-0.1l0,0v0c0-0.1,0-0.2,0-0.3
			c0-0.1,0-0.2,0-0.3l0,0L39.5,33.6L39.5,33.6z"/>
		<path class="st1" d="M42,36L42,36c-0.1,0.5-0.3,0.5-0.9,0.5c-0.3,0-0.5,0-0.5-0.3v-1h0.5c0.3,0,0.3,0.1,0.3,0.4l0,0l0.2,0l0,0l0,0
			c0-0.2,0-0.3,0-0.5c0-0.2,0-0.3,0-0.5l0,0h-0.1h0l0,0c0,0.2-0.1,0.4-0.3,0.4h-0.5l0-1.1h0.6c0.4,0,0.5,0.2,0.5,0.5l0,0l0.2,0l0,0
			l0,0c0-0.1,0-0.3,0-0.4c0-0.1,0-0.2,0-0.2l0,0h0c-0.3,0-0.7,0-1.1,0c-0.4,0-0.8,0-1.1,0h0v0.1v0h0.1c0.2,0,0.3,0,0.3,0.2v2.3
			c0,0.2-0.1,0.2-0.3,0.2h-0.1h0v0v0.1v0h0c0.2,0,0.8,0,1.1,0c0.4,0,0.9,0,1.2,0h0l0,0c0-0.2,0.1-0.5,0.1-0.7l0,0L42,36L42,36z"/>
		<path class="st1" d="M44.9,36.3l-0.7-1.1c0.3-0.1,0.6-0.4,0.6-0.8c0-0.6-0.5-0.8-1-0.8c-0.2,0-0.4,0-0.7,0c-0.3,0-0.5,0-0.7,0h0
			v0.1v0h0.1c0.1,0,0.3,0,0.3,0.3v2.2c0,0.1-0.1,0.2-0.3,0.2h-0.1h0v0.1v0h0c0.2,0,0.4,0,0.6,0c0.2,0,0.5,0,0.7,0h0v-0.1v0h-0.1
			c-0.2,0-0.3,0-0.3-0.3v-0.9h0.3c0.3,0.5,0.6,1,0.9,1.4c0.2,0,0.3,0,0.4,0c0.1,0,0.3,0,0.4,0h0v-0.1v0l0,0
			C45.1,36.5,45,36.5,44.9,36.3z M44.1,34.5c0,0.5-0.2,0.6-0.6,0.7h-0.2v-1.2c0.1,0,0.1,0,0.2,0C43.9,33.9,44.1,34.1,44.1,34.5z"/>
		<path class="st1" d="M48.9,33.9v-0.1v0h0c-0.2,0-0.4,0-0.5,0c-0.2,0-0.4,0-0.6,0h0v0.1v0h0.1c0.1,0,0.4,0,0.4,0.4v1.6l-1.9-2.1
			c-0.1,0-0.3,0-0.4,0c-0.2,0-0.3,0-0.5,0h0v0.1v0h0.1c0.2,0,0.4,0.1,0.4,0.4V36c0,0.3-0.1,0.5-0.4,0.5h-0.1h0v0.1v0h0
			c0.2,0,0.4,0,0.6,0c0.2,0,0.4,0,0.6,0h0v-0.1v0h-0.1c-0.3,0-0.4-0.1-0.4-0.5v-1.7l2.2,2.4l0.2,0h0l0,0c0-0.1,0-0.3,0-0.4v-2
			C48.5,33.9,48.7,33.9,48.9,33.9L48.9,33.9L48.9,33.9z"/>
		<path class="st1" d="M51.6,36.4c-0.1-0.1-0.1-0.3-0.2-0.4l-0.8-2.3c0,0,0-0.1,0-0.1c0,0,0,0,0,0c0,0,0,0,0,0
			c-0.1,0.1-0.3,0.1-0.4,0.2c0,0.2-0.1,0.4-0.2,0.5l-0.7,2c-0.1,0.2-0.2,0.3-0.4,0.3h0h0v0.1v0l0,0c0.2,0,0.3,0,0.5,0
			c0.2,0,0.3,0,0.5,0l0,0v-0.1v0h-0.1c-0.1,0-0.3,0-0.3-0.1c0-0.1,0.1-0.2,0.1-0.3l0.1-0.4h1l0.2,0.5c0,0.1,0.1,0.3,0.1,0.3
			c0,0.1-0.1,0.1-0.2,0.1h0h0v0.1v0l0,0c0.2,0,0.4,0,0.6,0c0.2,0,0.4,0,0.6,0l0,0v-0.1v0h0C51.7,36.6,51.6,36.5,51.6,36.4z
			 M50.6,35.4h-0.8l0.4-1.2L50.6,35.4z"/>
		<path class="st1" d="M54.4,33.6L54.4,33.6c0,0.1-0.1,0.1-0.2,0.1H52h0c-0.1,0-0.2,0-0.2-0.1l0,0h-0.1h0v0c0,0.1,0,0.2,0,0.4
			c0,0.1,0,0.2-0.1,0.4l0,0h0.2h0l0,0c0.1-0.3,0.1-0.4,0.4-0.4h0.7l0,2.3c0,0.3-0.1,0.3-0.3,0.3h-0.1h0v0.1v0h0c0.2,0,0.5,0,0.7,0
			c0.2,0,0.5,0,0.7,0h0v-0.1v0h-0.1c-0.2,0-0.3,0-0.3-0.4v-2.3H54c0.3,0,0.3,0.2,0.3,0.4l0,0l0.2-0.1l0,0v0c0-0.1,0-0.2,0-0.3
			c0-0.1,0-0.2,0-0.3l0,0L54.4,33.6L54.4,33.6z"/>
		<path class="st1" d="M55.3,33.7c-0.2,0-0.5,0-0.6,0h0v0.1v0h0.1c0.2,0,0.3,0,0.3,0.2v2.3c0,0.2-0.1,0.2-0.3,0.2h-0.1h0v0v0.1v0h0
			c0.2,0,0.4,0,0.6,0c0.2,0,0.5,0,0.7,0h0v-0.1v0H56c-0.2,0-0.3,0-0.3-0.2v-2.3c0-0.2,0.1-0.2,0.3-0.2H56h0v-0.1v0h0
			C55.8,33.7,55.6,33.7,55.3,33.7z"/>
		<path class="st1" d="M57.7,33.6c-0.9,0-1.6,0.7-1.6,1.6c0,0.9,0.7,1.6,1.6,1.6c0.9,0,1.6-0.7,1.6-1.7
			C59.4,34.2,58.7,33.6,57.7,33.6z M57.8,36.6c-0.7,0-1-0.7-1-1.5c0-0.6,0.2-1.2,1-1.2c0.7,0,1,0.7,1,1.4
			C58.8,35.9,58.6,36.6,57.8,36.6z"/>
		<path class="st1" d="M63,33.9v-0.1v0h0c-0.2,0-0.4,0-0.5,0c-0.2,0-0.4,0-0.6,0h0v0.1v0h0.1c0.1,0,0.4,0,0.4,0.4v1.6l-1.9-2.1
			c-0.1,0-0.3,0-0.4,0c-0.2,0-0.3,0-0.5,0h0v0.1v0h0.1c0.2,0,0.4,0.1,0.4,0.4V36c0,0.3-0.1,0.5-0.4,0.5h-0.1h0v0.1v0h0
			c0.2,0,0.4,0,0.6,0c0.2,0,0.4,0,0.6,0h0v-0.1v0h-0.1c-0.3,0-0.4-0.1-0.4-0.5v-1.7l2.2,2.4l0.2,0h0l0,0c0-0.1,0-0.3,0-0.4v-2
			C62.5,33.9,62.7,33.9,63,33.9L63,33.9L63,33.9z"/>
		<path class="st1" d="M65.7,36.4c-0.1-0.1-0.1-0.3-0.2-0.4l-0.8-2.3c0,0,0-0.1,0-0.1c0,0,0,0,0,0c0,0,0,0,0,0
			c-0.1,0.1-0.3,0.1-0.4,0.2c0,0.2-0.1,0.4-0.2,0.5l-0.7,2c-0.1,0.2-0.2,0.3-0.4,0.3h0h0v0.1v0l0,0c0.2,0,0.3,0,0.5,0
			c0.2,0,0.3,0,0.5,0l0,0v-0.1v0h-0.1c-0.1,0-0.3,0-0.3-0.1c0-0.1,0.1-0.2,0.1-0.3l0.1-0.4h1l0.2,0.5c0,0.1,0.1,0.3,0.1,0.3
			c0,0.1-0.1,0.1-0.2,0.1h0h0v0.1v0l0,0c0.2,0,0.4,0,0.6,0c0.2,0,0.4,0,0.6,0l0,0v-0.1v0h0C65.8,36.6,65.7,36.5,65.7,36.4z
			 M64.7,35.4h-0.8l0.4-1.2L64.7,35.4z"/>
		<path class="st1" d="M68.4,36L68.4,36c0,0.1-0.1,0.2-0.1,0.3c-0.1,0.1-0.2,0.2-0.4,0.2c-0.1,0-0.2,0-0.3,0c-0.1,0-0.2,0-0.2,0
			c-0.1,0-0.2-0.1-0.2-0.2v-2.2c0-0.2,0.1-0.2,0.3-0.2h0.1h0v-0.1v0h0c-0.2,0-0.4,0-0.7,0c-0.2,0-0.5,0-0.7,0h0v0.1v0h0.1
			c0.2,0,0.3,0,0.3,0.2v2.2c0,0.3-0.1,0.3-0.3,0.3h-0.1h0v0.1v0h0c0.4,0,0.8,0,1.1,0c0.4,0,0.8,0,1.1,0h0l0,0
			c0.1-0.2,0.1-0.5,0.2-0.7l0,0H68.4L68.4,36z"/>
		<path class="st1" d="M68.5,33.6c-0.3,0-0.5,0.2-0.5,0.5c0,0.3,0.2,0.5,0.5,0.5c0.3,0,0.5-0.2,0.5-0.5
			C68.9,33.8,68.7,33.6,68.5,33.6z M68.5,34.4c-0.2,0-0.4-0.2-0.4-0.4c0-0.2,0.2-0.4,0.4-0.4c0.2,0,0.4,0.2,0.4,0.4
			C68.8,34.2,68.7,34.4,68.5,34.4z"/>
		<path class="st1" d="M68.6,34.2l-0.1-0.1c0.1,0,0.1-0.1,0.1-0.1c0-0.1-0.1-0.1-0.2-0.1h-0.2v0c0.1,0,0.1,0,0.1,0.1v0.3
			c0,0,0,0-0.1,0v0h0.2v0c-0.1,0-0.1,0-0.1,0v-0.2h0.1c0.1,0.1,0.1,0.2,0.2,0.2h0.1v0C68.7,34.3,68.6,34.2,68.6,34.2z M68.5,34
			L68.5,34l-0.1-0.2h0.1c0,0,0.1,0,0.1,0.1C68.6,34,68.5,34,68.5,34z"/>
	</g>
	<g>
		<path class="st0" d="M50.8,10.8h-2c-4.2,0-7.6,3.1-7.6,7.6c0,4.1,3.4,7.5,7.6,7.5h2c4.1,0,7.9-3.4,7.9-7.5
			C58.7,13.9,55,10.8,50.8,10.8z M48.9,25.3c-3.8,0-6.9-3.1-6.9-6.9c0-3.8,3.1-6.9,6.9-6.9c3.8,0,6.9,3.1,6.9,6.9
			C55.8,22.2,52.7,25.3,48.9,25.3z"/>
		<path class="st0" d="M50.5,14.3v8.2c1.6-0.6,2.8-2.2,2.8-4.1C53.3,16.5,52.1,14.9,50.5,14.3z"/>
		<path class="st0" d="M44.5,18.4c0,1.9,1.2,3.5,2.8,4.1v-8.2C45.7,14.9,44.5,16.5,44.5,18.4z"/>
	</g>
</g>
</svg>
