<svg enable-background="new 0 0 100 48" viewBox="0 0 100 48" xmlns="http://www.w3.org/2000/svg"><path d="m68.8 7.9h-37.6c-1.8 0-3.2 1.4-3.2 3.1v26c0 1.7 1.4 3.1 3.2 3.1h37.6c1.8 0 3.2-1.4 3.2-3.1v-26c0-1.7-1.4-3.1-3.2-3.1zm2.7 29.1c0 1.4-1.2 2.6-2.7 2.6h-37.6c-1.5 0-2.7-1.2-2.7-2.6v-26c0-1.4 1.2-2.6 2.7-2.6h37.6c1.5 0 2.7 1.2 2.7 2.6z" fill="#004a97"/><g fill="#231f20"><path d="m33.7 32c2.8 0 3.3-2 3.3-2.8 0-1.4-1.1-2.8-3.2-2.8-.6 0-1 0-1.4 0-.3 0-.6 0-.9 0v.2c.4 0 .7 0 .7.7v3.8c0 .5-.3.6-.7.6v.3h1.1zm-.7-5.3h.6c1.5 0 2.5 1.1 2.5 2.5 0 1.2-.6 2.5-2.3 2.5-.4 0-.8-.1-.8-.7z"/><path d="m38.1 27.1c.2 0 .4-.2.4-.4s-.2-.4-.4-.4-.4.2-.4.4c0 .3.2.4.4.4z"/><path d="m39 32v-.2h-.1c-.2 0-.4 0-.4-.3v-3c0-.1 0-.1-.1-.1h-.1s-.5.2-.8.3v.1c.3.2.4.2.4.6v2.1c0 .3-.2.3-.4.3h-.2v.2h.9z"/><path d="m43.2 31.8h-.2c-.2 0-.4 0-.4-.3v-2c0-.6-.2-1.1-.9-1.1-.5 0-.9.3-1.4.6v-.5c0-.1 0-.1 0-.1-.4.2-.7.3-1 .4v.2c.4.2.5.2.5.5v2.1c0 .3-.2.3-.4.3h-.1v.1h.9.8v-.2h-.1c-.2 0-.4 0-.4-.3v-2.3c.3-.2.7-.4.9-.4.5 0 .7.2.7.7v2c0 .3-.2.3-.4.3h-.1v.2h.9.8v-.2z"/><path d="m44.6 32.1c.6 0 1.1-.4 1.5-.9l-.1-.1c-.3.3-.6.5-1.1.5-.6 0-1.1-.6-1.2-1.4 0-.3 0-.4 0-.5h2.3.1v-.1c0-.8-.7-1.2-1.3-1.2s-1.6.5-1.6 2c-.1.5.2 1.7 1.4 1.7zm.1-3.5c.4 0 .7.3.7.7 0 .1 0 .2-.2.2h-1.4c.1-.5.4-.9.9-.9z"/><path d="m48.3 32v-.2h-.4c-.2 0-.4 0-.4-.3v-1.9c0-.5.4-.7.6-.7.3 0 .3.2.5.2s.4-.2.4-.4c0-.3-.3-.4-.5-.4-.5 0-.8.5-1 .8v-.7c0-.1 0-.1-.1-.1s-.4.2-1 .5v.1c.1.1.4.1.4.4v2.2c0 .3-.2.3-.4.3h-.2v.2h.9z"/><path d="m50.3 31.9c-.6 0-.9-.4-1-1h-.1l.1.9c.3.2.6.3 1 .3.9 0 1.4-.6 1.4-1.1 0-1.2-1.8-1-1.8-1.9 0-.3.3-.5.6-.5.5 0 .8.3.9.8h.2l-.1-.8c-.3-.2-.6-.2-.9-.2-.9 0-1.2.6-1.2 1 0 1.3 1.7 1 1.7 1.9-.2.3-.3.6-.8.6z"/><path d="m58.6 31.7.2-1.2h-.2c-.2.8-.8 1.4-1.6 1.4-1.2 0-2.4-1.1-2.4-2.7 0-1.9 1.3-2.5 2.2-2.5s1.5.4 1.7 1.3h.2l-.1-1.1c-.6-.2-1.2-.4-1.9-.4-1.6 0-3 1.2-3 2.8 0 1.8 1.2 3 3 3 .6-.2 1.5-.4 1.9-.6z"/><path d="m60.7 32v-.2h-.1c-.2 0-.4 0-.4-.3v-5.5c0-.1 0-.1-.1-.1 0 0-.1 0-.2.1-.2.1-.5.2-.8.3v.1c.3.1.4.1.4.6v4.4c0 .3-.2.3-.4.3h-.1v.3h.9z"/><path d="m61.2 29.1v2c0 .7.4.9.9.9.6 0 .9-.3 1.4-.7v.6c.2 0 .8-.2 1.1-.2v-.2c-.1 0-.2 0-.3 0s-.2 0-.2-.2v-2.9c0-.1 0-.1-.1-.1s-.5.1-1.2.1v.1c.3.1.7.2.7.3v2.1c-.3.3-.7.5-1 .5-.7 0-.7-.7-.7-.9v-2c0-.2 0-.2-.1-.2s-.7 0-1 .1v.2c.4.1.5.3.5.5z"/><path d="m65 27.1v3.4c0 .5 0 .9-.1 1.4l.2.1.2-.2c.2.1.5.3 1.1.3 1.1 0 1.9-1 1.9-2.1 0-.9-.6-1.7-1.5-1.7-.4 0-.9.3-1.2.6v-2.9c0-.1 0-.1-.1-.1 0 0-.1 0-.2.1-.2.1-.5.2-.8.3v.1c.4.2.5.2.5.7zm.7 2.1c.2-.2.5-.4.8-.4.6 0 1.3.7 1.3 1.6 0 .7-.4 1.5-1.2 1.5-.5 0-.8-.5-.8-.8v-1.9z"/><path d="m32.1 33.7c-.2 0-.5 0-.6 0v.1h.1c.2 0 .3 0 .3.2v2.3c0 .2-.1.2-.3.2h-.1v.1h.6.7v-.1h-.1c-.2 0-.3 0-.3-.2v-2.3c0-.2.1-.2.3-.2h.1v-.1c-.2 0-.4 0-.7 0z"/><path d="m35.9 33.7c-.2 0-.4 0-.6 0v.1h.1c.1 0 .4 0 .4.4v1.6l-1.9-2.1c-.1 0-.3 0-.4 0-.2 0-.3 0-.5 0v.1c.2 0 .4.1.4.4v1.8c0 .3-.1.5-.4.5v.1h.6.6v-.1h-.1c-.3 0-.4-.1-.4-.5v-1.7l2.2 2.4h.2c0-.1 0-.3 0-.4v-2c0-.5.2-.5.4-.5h.1v-.1c-.3 0-.5 0-.7 0z"/><path d="m39.5 33.6c0 .1-.1.1-.2.1h-2.3c-.1 0-.2 0-.2-.1h-.1v.4c0 .1 0 .2-.1.4h.2c.1-.3.1-.4.4-.4h.7v2.3c0 .3-.1.3-.3.3h-.1v.1h.7.7v-.1h-.1c-.2 0-.3 0-.3-.4v-2.3h.7c.3 0 .3.2.3.4l.2-.1c0-.1 0-.2 0-.3s0-.2 0-.3z"/><path d="m42 36c-.1.5-.3.5-.9.5-.3 0-.5 0-.5-.3v-1h.5c.3 0 .3.1.3.4h.2c0-.2 0-.3 0-.5s0-.3 0-.5h-.1c0 .2-.1.4-.3.4h-.5v-1.1h.6c.4 0 .5.2.5.5h.2c0-.1 0-.3 0-.4s0-.2 0-.2c-.3 0-.7 0-1.1 0s-.8 0-1.1 0v.1h.1c.2 0 .3 0 .3.2v2.3c0 .2-.1.2-.3.2h-.1v.1h1.1 1.2c0-.2.1-.5.1-.7z"/><path d="m44.9 36.3-.7-1.1c.3-.1.6-.4.6-.8 0-.6-.5-.8-1-.8-.2 0-.4 0-.7 0s-.5 0-.7 0v.1h.1c.1 0 .3 0 .3.3v2.2c0 .1-.1.2-.3.2h-.1v.1h.6.7v-.1h-.1c-.2 0-.3 0-.3-.3v-.9h.3c.3.5.6 1 .9 1.4h.4.4v-.1c-.2 0-.3 0-.4-.2zm-.8-1.8c0 .5-.2.6-.6.7h-.2v-1.2h.2c.4-.1.6.1.6.5z"/><path d="m48.9 33.9v-.1c-.2 0-.4 0-.5 0-.2 0-.4 0-.6 0v.1h.1c.1 0 .4 0 .4.4v1.6l-1.9-2.1c-.1 0-.3 0-.4 0-.2 0-.3 0-.5 0v.1h.1c.2 0 .4.1.4.4v1.7c0 .3-.1.5-.4.5h-.1v.1h.6.6v-.1h-.1c-.3 0-.4-.1-.4-.5v-1.7l2.2 2.4h.2c0-.1 0-.3 0-.4v-2c-.1-.4.1-.4.3-.4z"/><path d="m51.6 36.4c-.1-.1-.1-.3-.2-.4l-.8-2.3v-.1c-.1.1-.3.1-.4.2 0 .2-.1.4-.2.5l-.7 2c-.1.2-.2.3-.4.3v.1h.5.5v-.1h-.1c-.1 0-.3 0-.3-.1s.1-.2.1-.3l.1-.4h1l.2.5c0 .1.1.3.1.3 0 .1-.1.1-.2.1v.1h.6.6v-.1c-.3-.1-.4-.2-.4-.3zm-1-1h-.8l.4-1.2z"/><path d="m54.4 33.6c0 .1-.1.1-.2.1h-2.2c-.1 0-.2 0-.2-.1h-.1v.4c0 .1 0 .2-.1.4h.2c.1-.3.1-.4.4-.4h.7v2.3c0 .3-.1.3-.3.3h-.1v.1h.7.7v-.1h-.1c-.2 0-.3 0-.3-.4v-2.3h.5c.3 0 .3.2.3.4l.2-.1c0-.1 0-.2 0-.3s0-.2 0-.3z"/><path d="m55.3 33.7c-.2 0-.5 0-.6 0v.1h.1c.2 0 .3 0 .3.2v2.3c0 .2-.1.2-.3.2h-.1v.1h.6.7v-.1c-.2 0-.3 0-.3-.2v-2.3c0-.2.1-.2.3-.2v-.1c-.2 0-.4 0-.7 0z"/><path d="m57.7 33.6c-.9 0-1.6.7-1.6 1.6s.7 1.6 1.6 1.6 1.6-.7 1.6-1.7c.1-.9-.6-1.5-1.6-1.5zm.1 3c-.7 0-1-.7-1-1.5 0-.6.2-1.2 1-1.2.7 0 1 .7 1 1.4 0 .6-.2 1.3-1 1.3z"/><path d="m63 33.9v-.1c-.2 0-.4 0-.5 0-.2 0-.4 0-.6 0v.1h.1c.1 0 .4 0 .4.4v1.6l-1.9-2.1c-.1 0-.3 0-.4 0-.2 0-.3 0-.5 0v.1h.1c.2 0 .4.1.4.4v1.7c0 .3-.1.5-.4.5h-.1v.1h.6.6v-.1h-.1c-.3 0-.4-.1-.4-.5v-1.7l2.2 2.4h.2c0-.1 0-.3 0-.4v-2c-.2-.4 0-.4.3-.4z"/><path d="m65.7 36.4c-.1-.1-.1-.3-.2-.4l-.8-2.3v-.1c-.1.1-.3.1-.4.2 0 .2-.1.4-.2.5l-.7 2c-.1.2-.2.3-.4.3v.1h.5.5v-.1h-.1c-.1 0-.3 0-.3-.1s.1-.2.1-.3l.1-.4h1l.2.5c0 .1.1.3.1.3 0 .1-.1.1-.2.1v.1h.6.6v-.1c-.3-.1-.4-.2-.4-.3zm-1-1h-.8l.4-1.2z"/><path d="m68.4 36c0 .1-.1.2-.1.3-.1.1-.2.2-.4.2-.1 0-.2 0-.3 0s-.2 0-.2 0c-.1 0-.2-.1-.2-.2v-2.2c0-.2.1-.2.3-.2h.1v-.1c-.2 0-.4 0-.7 0-.2 0-.5 0-.7 0v.1h.1c.2 0 .3 0 .3.2v2.2c0 .3-.1.3-.3.3h-.1v.1h1.1 1.1c.1-.2.1-.5.2-.7z"/><path d="m68.5 33.6c-.3 0-.5.2-.5.5s.2.5.5.5.5-.2.5-.5c-.1-.3-.3-.5-.5-.5zm0 .8c-.2 0-.4-.2-.4-.4s.2-.4.4-.4.4.2.4.4c-.1.2-.2.4-.4.4z"/><path d="m68.6 34.2-.1-.1c.1 0 .1-.1.1-.1 0-.1-.1-.1-.2-.1h-.2c.1 0 .1 0 .1.1v.3s0 0-.1 0h.2c-.1 0-.1 0-.1 0v-.2h.1c.1.1.1.2.2.2h.1s-.1-.1-.1-.1zm-.1-.2-.1-.2h.1s.1 0 .1.1-.1.1-.1.1z"/></g><path d="m50.8 10.8h-2c-4.2 0-7.6 3.1-7.6 7.6 0 4.1 3.4 7.5 7.6 7.5h2c4.1 0 7.9-3.4 7.9-7.5 0-4.5-3.7-7.6-7.9-7.6zm-1.9 14.5c-3.8 0-6.9-3.1-6.9-6.9s3.1-6.9 6.9-6.9 6.9 3.1 6.9 6.9-3.1 6.9-6.9 6.9z" fill="#004a97"/><path d="m50.5 14.3v8.2c1.6-.6 2.8-2.2 2.8-4.1s-1.2-3.5-2.8-4.1z" fill="#004a97"/><path d="m44.5 18.4c0 1.9 1.2 3.5 2.8 4.1v-8.2c-1.6.6-2.8 2.2-2.8 4.1z" fill="#004a97"/></svg>