<svg enable-background="new 0 0 100 48" viewBox="0 0 100 48" xmlns="http://www.w3.org/2000/svg"><path d="m26.4 9h47v30h-47z" fill="#fff"/><path d="m73.6 8.8h-47.3v30.3h47.4v-30.3zm-.3.4v29.6h-46.7v-29.6z" fill="#231f20"/><path d="m73.3 25.7s-12.8 9.1-36.4 13.1h36.4zm-22.2-8.1c-1.9 0-3.5 1.5-3.5 3.4s1.5 3.4 3.5 3.4c1.9 0 3.5-1.5 3.5-3.4s-1.5-3.4-3.5-3.4z" fill="#f58220"/><path d="m31.3 17.7h-1.9v6.5h1.9c1 0 1.7-.2 2.3-.8.8-.6 1.2-1.6 1.2-2.6 0-1.8-1.5-3.1-3.5-3.1zm1.5 4.9c-.4.4-.9.5-1.7.5h-.4v-4.3h.3c.8 0 1.3.2 1.7.5.4.4.7 1 .7 1.7.1.6-.2 1.2-.6 1.6zm2.6-4.9h1.3v6.5h-1.3zm4.4 2.5c-.8-.3-1-.4-1-.8s.4-.7 1-.7c.4 0 .7.2 1.1.5l.7-.9c-.5-.4-1.2-.8-1.9-.8-1.1 0-2 .8-2 1.9 0 .9.4 1.3 1.7 1.8.5.2.8.3.9.4.2.2.4.4.4.7 0 .5-.4.9-1 .9s-1.1-.3-1.4-.9l-1 .7c.6.9 1.3 1.3 2.2 1.3 1.3 0 2.2-.9 2.2-2.2 0-.9-.5-1.4-1.9-1.9zm2.3.7c0 1.9 1.5 3.4 3.4 3.4.5 0 1.1-.1 1.6-.4v-1.5c-.5.5-1 .8-1.6.8-1.3 0-2.2-.9-2.2-2.2s1-2.2 2.2-2.2c.6 0 1.1.2 1.6.7v-1.5c-.5-.3-1.1-.4-1.6-.4-1.9 0-3.4 1.5-3.4 3.3zm15.4 1.2-1.7-4.3h-1.4l2.8 6.7h.7l2.8-6.7h-1.3zm3.8 2.1h3.6v-1.1h-2.3v-1.7h2.3v-1.1h-2.3v-1.5h2.3v-1.1h-3.6zm8.6-4.6c0-1.2-.8-1.9-2.3-1.9h-1.9v6.5h1.3v-2.6h.2l1.8 2.6h1.6l-2.1-2.8c.9-.1 1.5-.8 1.4-1.8zm-2.5 1.1h-.4v-2h.4c.8 0 1.2.3 1.2 1 0 .6-.4 1-1.2 1z" fill="#001722"/><g fill="#231f20"><path d="m70.8 18.2c0-.2-.1-.2-.2-.2h-.2v.6h.2v-.2l.2.2h.2l-.2-.2c0-.1.1-.2 0-.2zm-.2 0v-.2c.1.1.1.1 0 .2.1 0 .1 0 0 0z"/><path d="m70.6 17.8c-.3 0-.5.2-.5.5s.2.5.5.5.5-.2.5-.5-.2-.5-.5-.5zm0 .9c-.2 0-.4-.2-.4-.4s.2-.4.4-.4.4.2.4.4c.1.2-.2.4-.4.4z"/></g></svg>