<?xml version="1.0" encoding="utf-8"?>
<!-- Generator: Adobe Illustrator 21.0.0, SVG Export Plug-In . SVG Version: 6.00 Build 0)  -->
<svg version="1.1" id="Layer_1" xmlns="http://www.w3.org/2000/svg" xmlns:xlink="http://www.w3.org/1999/xlink" x="0px" y="0px"
	 viewBox="0 0 100 48" style="enable-background:new 0 0 100 48;" xml:space="preserve">
<style type="text/css">
	.st0{fill:url(#SVGID_1_);}
	.st1{fill:url(#SVGID_2_);}
	.st2{fill:url(#SVGID_3_);}
	.st3{fill:url(#SVGID_4_);}
	.st4{fill:url(#SVGID_5_);}
</style>
<g id="g6386">
</g>
<g>
	<linearGradient id="SVGID_1_" gradientUnits="userSpaceOnUse" x1="58.7376" y1="25.6361" x2="62.4129" y2="25.6361">
		<stop  offset="0" style="stop-color:#50B031"/>
		<stop  offset="1" style="stop-color:#55B330"/>
	</linearGradient>
	<path class="st0" d="M58.7,26.8h2.5c0.1,0,0.2,0,0.3,0c0.5-0.1,0.9-0.5,0.9-1.1c0-0.6-0.4-1-0.9-1.1c-0.1,0-0.2,0-0.3,0h-2.5V26.8z
		"/>
	<linearGradient id="SVGID_2_" gradientUnits="userSpaceOnUse" x1="56.6036" y1="23.9881" x2="67.25" y2="23.9881">
		<stop  offset="0" style="stop-color:#50B031"/>
		<stop  offset="1" style="stop-color:#55B330"/>
	</linearGradient>
	<path class="st1" d="M56.6,15.4v4.5h6.1c0.1,0,0.3,0,0.4,0c1.4,0.1,2.4,0.8,2.4,2c0,1-0.7,1.8-2,2v0C65,24,66,24.8,66,26
		c0,1.3-1.2,2.2-2.8,2.2h-6.7v8.8h6.3c2.4,0,4.3-1.9,4.3-4.3V11.1h-6.3C58.6,11.1,56.6,13,56.6,15.4z"/>
	<linearGradient id="SVGID_3_" gradientUnits="userSpaceOnUse" x1="58.7376" y1="22.1742" x2="62.1046" y2="22.1742">
		<stop  offset="0" style="stop-color:#50B031"/>
		<stop  offset="1" style="stop-color:#55B330"/>
	</linearGradient>
	<path class="st2" d="M62.1,22.2c0-0.6-0.4-0.9-0.9-1c0,0-0.2,0-0.2,0h-2.3v2.1H61c0.1,0,0.2,0,0.2,0C61.7,23.1,62.1,22.7,62.1,22.2
		z"/>
	<linearGradient id="SVGID_4_" gradientUnits="userSpaceOnUse" x1="32.75" y1="23.9763" x2="43.3964" y2="23.9763">
		<stop  offset="0" style="stop-color:#016AB7"/>
		<stop  offset="1" style="stop-color:#006DBA"/>
	</linearGradient>
	<path class="st3" d="M32.8,15.4V26c1.2,0.6,2.5,1,3.7,1c1.5,0,2.3-0.9,2.3-2.1v-5h3.7v5c0,1.9-1.2,3.5-5.3,3.5
		c-2.5,0-4.4-0.5-4.4-0.5v9.1h6.3c2.4,0,4.3-1.9,4.3-4.3V11.1h-6.3C34.7,11.1,32.8,13,32.8,15.4z"/>
	<linearGradient id="SVGID_5_" gradientUnits="userSpaceOnUse" x1="44.7005" y1="24" x2="55.3469" y2="24">
		<stop  offset="0" style="stop-color:#DF0237"/>
		<stop  offset="1" style="stop-color:#E30138"/>
	</linearGradient>
	<path class="st4" d="M44.7,15.4V21c1.1-0.9,3-1.5,6-1.4c1.6,0.1,3.4,0.5,3.4,0.5V22c-0.9-0.5-1.9-0.9-3.3-0.9c-2.3-0.2-3.7,1-3.7,3
		c0,2,1.4,3.2,3.7,3c1.4-0.1,2.4-0.5,3.3-0.9v1.8c0,0-1.7,0.5-3.4,0.5c-3.1,0.1-5-0.5-6-1.4v10H51c2.4,0,4.3-1.9,4.3-4.3V11.1H49
		C46.6,11.1,44.7,13,44.7,15.4z"/>
</g>
</svg>
