<svg enable-background="new 0 0 100 48" viewBox="0 0 100 48" xmlns="http://www.w3.org/2000/svg" xmlns:xlink="http://www.w3.org/1999/xlink"><linearGradient id="a"><stop offset="0" stop-color="#50b031"/><stop offset="1" stop-color="#55b330"/></linearGradient><linearGradient id="b" gradientUnits="userSpaceOnUse" x1="58.7376" x2="62.4129" xlink:href="#a" y1="25.6361" y2="25.6361"/><linearGradient id="c" gradientUnits="userSpaceOnUse" x1="56.6036" x2="67.25" xlink:href="#a" y1="23.9881" y2="23.9881"/><linearGradient id="d" gradientUnits="userSpaceOnUse" x1="58.7376" x2="62.1046" xlink:href="#a" y1="22.1742" y2="22.1742"/><linearGradient id="e" gradientUnits="userSpaceOnUse" x1="32.75" x2="43.3964" y1="23.9763" y2="23.9763"><stop offset="0" stop-color="#016ab7"/><stop offset="1" stop-color="#006dba"/></linearGradient><linearGradient id="f" gradientUnits="userSpaceOnUse" x1="44.7005" x2="55.3469" y1="24" y2="24"><stop offset="0" stop-color="#df0237"/><stop offset="1" stop-color="#e30138"/></linearGradient><path d="m58.7 26.8h2.5.3c.5-.1.9-.5.9-1.1s-.4-1-.9-1.1c-.1 0-.2 0-.3 0h-2.5z" fill="url(#b)"/><path d="m56.6 15.4v4.5h6.1.4c1.4.1 2.4.8 2.4 2 0 1-.7 1.8-2 2 1.5.1 2.5.9 2.5 2.1 0 1.3-1.2 2.2-2.8 2.2h-6.7v8.8h6.3c2.4 0 4.3-1.9 4.3-4.3v-21.6h-6.3c-2.2 0-4.2 1.9-4.2 4.3z" fill="url(#c)"/><path d="m62.1 22.2c0-.6-.4-.9-.9-1h-.2-2.3v2.1h2.3.2c.5-.2.9-.6.9-1.1z" fill="url(#d)"/><path d="m32.8 15.4v10.6c1.2.6 2.5 1 3.7 1 1.5 0 2.3-.9 2.3-2.1v-5h3.7v5c0 1.9-1.2 3.5-5.3 3.5-2.5 0-4.4-.5-4.4-.5v9.1h6.3c2.4 0 4.3-1.9 4.3-4.3v-21.6h-6.3c-2.4 0-4.3 1.9-4.3 4.3z" fill="url(#e)"/><path d="m44.7 15.4v5.6c1.1-.9 3-1.5 6-1.4 1.6.1 3.4.5 3.4.5v1.9c-.9-.5-1.9-.9-3.3-.9-2.3-.2-3.7 1-3.7 3s1.4 3.2 3.7 3c1.4-.1 2.4-.5 3.3-.9v1.8s-1.7.5-3.4.5c-3.1.1-5-.5-6-1.4v10h6.3c2.4 0 4.3-1.9 4.3-4.3v-21.7h-6.3c-2.4 0-4.3 1.9-4.3 4.3z" fill="url(#f)"/></svg>