<?xml version="1.0" encoding="utf-8"?>
<!-- Generator: Adobe Illustrator 21.0.0, SVG Export Plug-In . SVG Version: 6.00 Build 0)  -->
<svg version="1.1" id="Layer_1" xmlns="http://www.w3.org/2000/svg" xmlns:xlink="http://www.w3.org/1999/xlink" x="0px" y="0px"
	 viewBox="0 0 100 48" style="enable-background:new 0 0 100 48;" xml:space="preserve">
<style type="text/css">
	.st0{fill:#009DDD;}
	.st1{fill:#ED1C2E;}
	.st2{fill:#FFFFFF;}
</style>
<g>
	<path class="st0" d="M48.4,33.5c2.7-2.4,4.2-5.8,4.2-9.4c0-3.7-1.6-7.1-4.2-9.4c-2.3-2.1-5.4-3.3-8.6-3.3c-7,0-12.8,5.7-12.8,12.7
		c0,7,5.7,12.8,12.8,12.8C43,36.8,46,35.6,48.4,33.5z"/>
	<path class="st1" d="M56.5,11.7c-3.8,0-7.5,1.7-10,4.6h2.6c0.4,0.4,0.7,0.9,1,1.4h-4.6c-0.3,0.4-0.5,0.9-0.7,1.4h6.1
		c0.2,0.4,0.4,0.9,0.5,1.3h-7.1c-0.1,0.4-0.3,0.9-0.4,1.4h7.9c0.5,2.2,0.4,4.6-0.4,6.8h-7.1c0.2,0.5,0.3,0.9,0.5,1.3h6.1
		c-0.2,0.5-0.5,0.9-0.7,1.4h-4.6c0.3,0.5,0.6,0.9,1,1.3h2.6c-0.4,0.5-0.8,0.9-1.3,1.3c2.4,2.1,5.5,3.3,8.7,3.3
		c7.1,0,12.9-5.7,12.9-12.8C69.4,17.4,63.7,11.7,56.5,11.7z"/>
	<path class="st2" d="M38.4,27.6h-1.6l1-5.1l-2.2,5.1h-1.5l-0.3-5.1l-1,5.1h-1.5l1.2-6.6h2.5l0.1,4.1L37,21h2.6L38.4,27.6L38.4,27.6
		z M56.4,27.5c-0.4,0.1-0.8,0.2-1.2,0.2c-0.8,0-1.3-0.4-1.3-1.2c0-0.2,0-0.3,0-0.5l0.1-0.5l0.1-0.4l0.7-4.1h1.6l-0.2,1.2h0.8
		l-0.2,1.3h-0.8l-0.4,2.2c0,0.1,0,0.1,0,0.2c0,0.3,0.2,0.4,0.5,0.4c0.2,0,0.3,0,0.4-0.1C56.6,26.3,56.4,27.5,56.4,27.5z M61.1,22.3
		c-0.1-0.1-0.2-0.1-0.2-0.1l-0.1,0c-0.1,0-0.1,0-0.2,0c-0.5,0-0.9,0.2-1.4,0.9l0.1-0.8h-1.5l-1,5.4h1.6c0.6-3.3,0.8-3.9,1.6-3.9
		c0.1,0,0.1,0,0.2,0l0.2,0C60.5,23.8,61.1,22.3,61.1,22.3z M50,23.9c0,0.7,0.4,1.1,1.2,1.5c0.7,0.3,0.8,0.3,0.8,0.6
		c0,0.3-0.3,0.5-0.9,0.5c-0.5,0-1-0.1-1.5-0.2l-0.2,1.2l0.1,0l0.3,0.1c0.1,0,0.2,0,0.4,0c0.4,0,0.7,0,0.9,0c1.7,0,2.5-0.6,2.5-1.8
		c0-0.7-0.3-1.2-1.1-1.5c-0.7-0.3-0.8-0.3-0.8-0.6c0-0.3,0.3-0.4,0.8-0.4c0.3,0,0.8,0,1.2,0.1l0.2-1.2c-0.5-0.1-1-0.1-1.4-0.1
		C50.6,22.1,50,22.9,50,23.9z M43.6,27.6h-1.3l0-0.6c-0.4,0.4-1,0.7-1.7,0.7c-0.9,0-1.5-0.6-1.5-1.5c0-1.3,1-2.1,2.8-2.1
		c0.2,0,0.4,0,0.7,0c0-0.2,0.1-0.3,0.1-0.3c0-0.4-0.3-0.5-1-0.5c-0.5,0-1,0.1-1.3,0.1l-0.2,0.1l-0.1,0l0.2-1.2
		c0.8-0.2,1.3-0.3,1.9-0.3c1.4,0,2.1,0.5,2.1,1.6c0,0.3,0,0.5-0.1,1.1l-0.3,1.9L43.7,27l0,0.3l0,0.2L43.6,27.6L43.6,27.6z
		 M42.4,25.2c-0.1,0-0.2,0-0.4,0c-0.9,0-1.4,0.3-1.4,0.8c0,0.3,0.2,0.5,0.6,0.5C41.9,26.5,42.4,26,42.4,25.2z M48.9,27.5
		c-0.5,0.1-1.1,0.2-1.6,0.2c-1.8,0-2.7-0.8-2.7-2.4c0-1.8,1.2-3.2,2.8-3.2c1.3,0,2.2,0.8,2.2,2c0,0.4-0.1,0.8-0.2,1.3h-3.2
		c0,0.1,0,0.1,0,0.2c0,0.6,0.5,0.9,1.4,0.9c0.6,0,1.1-0.1,1.7-0.3C49.2,26.1,48.9,27.5,48.9,27.5z M48,24.3c0-0.1,0-0.2,0-0.3
		c0-0.4-0.3-0.7-0.8-0.7c-0.5,0-0.9,0.3-1,1C46.3,24.3,48,24.3,48,24.3z M66.1,25.2c-0.2,1.8-1.5,2.6-3.1,2.6
		c-1.8,0-2.6-1.1-2.6-2.5c0-1.9,1.2-3.2,3.2-3.2c1.7,0,2.6,1.1,2.6,2.4C66.1,24.8,66.1,24.8,66.1,25.2L66.1,25.2z M64.4,24.5
		c0-0.6-0.2-1.1-0.9-1.1c-0.8,0-1.3,1-1.3,1.8c0,0.7,0.3,1.2,0.9,1.2c0.3,0,1.1-0.5,1.2-1.3C64.4,24.9,64.4,24.7,64.4,24.5z"/>
</g>
</svg>
