<svg enable-background="new 0 0 100 48" viewBox="0 0 100 48" xmlns="http://www.w3.org/2000/svg"><path d="m48.4 33.5c2.7-2.4 4.2-5.8 4.2-9.4 0-3.7-1.6-7.1-4.2-9.4-2.3-2.1-5.4-3.3-8.6-3.3-7 0-12.8 5.7-12.8 12.7s5.7 12.8 12.8 12.8c3.2-.1 6.2-1.3 8.6-3.4z" fill="#009ddd"/><path d="m56.5 11.7c-3.8 0-7.5 1.7-10 4.6h2.6c.4.4.7.9 1 1.4h-4.6c-.3.4-.5.9-.7 1.4h6.1c.2.4.4.9.5 1.3h-7.1c-.1.4-.3.9-.4 1.4h7.9c.5 2.2.4 4.6-.4 6.8h-7.1c.2.5.3.9.5 1.3h6.1c-.2.5-.5.9-.7 1.4h-4.6c.3.5.6.9 1 1.3h2.6c-.4.5-.8.9-1.3 1.3 2.4 2.1 5.5 3.3 8.7 3.3 7.1 0 12.9-5.7 12.9-12.8-.1-7-5.8-12.7-13-12.7z" fill="#ed1c2e"/><path d="m38.4 27.6h-1.6l1-5.1-2.2 5.1h-1.5l-.3-5.1-1 5.1h-1.5l1.2-6.6h2.5l.1 4.1 1.9-4.1h2.6zm18-.1c-.4.1-.8.2-1.2.2-.8 0-1.3-.4-1.3-1.2 0-.2 0-.3 0-.5l.1-.5.1-.4.7-4.1h1.6l-.2 1.2h.8l-.2 1.3h-.8l-.4 2.2v.2c0 .3.2.4.5.4.2 0 .3 0 .4-.1.1.1-.1 1.3-.1 1.3zm4.7-5.2c-.1-.1-.2-.1-.2-.1h-.1c-.1 0-.1 0-.2 0-.5 0-.9.2-1.4.9l.1-.8h-1.5l-1 5.4h1.6c.6-3.3.8-3.9 1.6-3.9h.2.2c.1 0 .7-1.5.7-1.5zm-11.1 1.6c0 .7.4 1.1 1.2 1.5.7.3.8.3.8.6s-.3.5-.9.5c-.5 0-1-.1-1.5-.2l-.2 1.2h.1l.3.1h.4.9c1.7 0 2.5-.6 2.5-1.8 0-.7-.3-1.2-1.1-1.5-.7-.3-.8-.3-.8-.6s.3-.4.8-.4c.3 0 .8 0 1.2.1l.2-1.2c-.5-.1-1-.1-1.4-.1-1.9 0-2.5.8-2.5 1.8zm-6.4 3.7h-1.3v-.6c-.4.4-1 .7-1.7.7-.9 0-1.5-.6-1.5-1.5 0-1.3 1-2.1 2.8-2.1h.7c0-.2.1-.3.1-.3 0-.4-.3-.5-1-.5-.5 0-1 .1-1.3.1l-.2.1h-.1l.2-1.2c.8-.2 1.3-.3 1.9-.3 1.4 0 2.1.5 2.1 1.6 0 .3 0 .5-.1 1.1l-.3 1.9-.2.4v.3.2zm-1.2-2.4c-.1 0-.2 0-.4 0-.9 0-1.4.3-1.4.8 0 .3.2.5.6.5.7 0 1.2-.5 1.2-1.3zm6.5 2.3c-.5.1-1.1.2-1.6.2-1.8 0-2.7-.8-2.7-2.4 0-1.8 1.2-3.2 2.8-3.2 1.3 0 2.2.8 2.2 2 0 .4-.1.8-.2 1.3h-3.2v.2c0 .6.5.9 1.4.9.6 0 1.1-.1 1.7-.3-.1-.1-.4 1.3-.4 1.3zm-.9-3.2c0-.1 0-.2 0-.3 0-.4-.3-.7-.8-.7s-.9.3-1 1zm18.1.9c-.2 1.8-1.5 2.6-3.1 2.6-1.8 0-2.6-1.1-2.6-2.5 0-1.9 1.2-3.2 3.2-3.2 1.7 0 2.6 1.1 2.6 2.4-.1.3-.1.3-.1.7zm-1.7-.7c0-.6-.2-1.1-.9-1.1-.8 0-1.3 1-1.3 1.8 0 .7.3 1.2.9 1.2.3 0 1.1-.5 1.2-1.3.1-.2.1-.4.1-.6z" fill="#fff"/></svg>