<?xml version="1.0" encoding="utf-8"?>
<!-- Generator: Adobe Illustrator 21.0.0, SVG Export Plug-In . SVG Version: 6.00 Build 0)  -->
<svg version="1.1" id="svg2" xmlns="http://www.w3.org/2000/svg" xmlns:xlink="http://www.w3.org/1999/xlink" x="0px" y="0px"
	 viewBox="0 0 100 48" style="enable-background:new 0 0 100 48;" xml:space="preserve">
<style type="text/css">
	.st0{fill:#F59511;}
	.st1{fill:#EA1C24;}
	.st2{fill:#F14D1C;}
	.st3{fill:#100F0D;}
</style>
<g id="g10" transform="matrix(1.25 0 0 -1.25 0 60)">
	<g id="g12" transform="scale(.1)">
		<path id="path14" class="st0" d="M537.2,310c0-47.5-38.4-86-85.8-86s-85.8,38.5-85.8,86s38.4,86,85.8,86S537.2,357.5,537.2,310"/>
		<path id="path16" class="st1" d="M431.3,310c0-47.5-38.4-86-85.8-86s-85.8,38.5-85.8,86s38.4,86,85.8,86S431.3,357.5,431.3,310"/>
		<path id="path18" class="st2" d="M398.4,377.7c-20-15.8-32.8-40.2-32.8-67.7c0-27.5,12.8-52,32.8-67.7
			c20,15.7,32.9,40.2,32.9,67.7S418.4,361.9,398.4,377.7"/>
		<path id="path20" class="st0" d="M531.9,264.4v2.5h1v0.5h-2.6v-0.5h1.1v-2.5C531.4,264.4,531.9,264.4,531.9,264.4z M537,264.4v3.1
			h-0.8l-0.9-2.1l-0.9,2.1h-0.8v-3.1h0.6v2.3l0.9-2h0.6l0.9,2v-2.3H537"/>
		<path id="path22" class="st3" d="M278.7,181.4h-4.9v22.7h4.8v-2.8c0,0,4.2,3.4,6.7,3.4c4.9-0.1,7.7-4.2,7.7-4.2s2.3,4.2,7.6,4.2
			c7.8,0,9-7.1,9-7.1v-16.1H305v14.1c0,0,0,4.3-5,4.3c-5.2,0-5.7-4.3-5.7-4.3v-14.1h-4.9v14.2c0,0-0.5,4.5-4.9,4.5
			c-5.7,0-5.9-4.6-5.9-4.6L278.7,181.4"/>
		<path id="path24" class="st3" d="M426.8,204.7c-2.5,0.1-6.7-3.4-6.7-3.4v2.8h-4.8v-22.6h4.9l-0.1,14.2c0,0,0.1,4.6,5.9,4.6
			c1.1,0,1.9-0.2,2.6-0.7l1.6,4.4C429.2,204.4,428,204.7,426.8,204.7"/>
		<path id="path26" class="st3" d="M495.4,204.7c-2.5,0.1-6.7-3.4-6.7-3.4v2.8H484v-22.6h4.9l-0.1,14.2c0,0,0.1,4.6,5.9,4.6
			c1.1,0,1.9-0.2,2.6-0.7l1.6,4.4C497.7,204.4,496.6,204.7,495.4,204.7"/>
		<path id="path28" class="st3" d="M326.3,200.2c3.9,0,7.1-3.4,7.1-7.6c0-4.2-3.2-7.6-7.1-7.6c-3.9,0-7,3.4-7,7.6
			C319.2,196.8,322.4,200.2,326.3,200.2z M325.4,204.8c-7.3,0-11.2-6.5-11.2-12c0-5.6,4.4-12.1,11.4-12.1c4,0,7.4,3,7.4,3v-2.3h4.8
			v22.7H333v-2.9C333,201.3,329.9,204.8,325.4,204.8"/>
		<path id="path30" class="st3" d="M466.1,200.2c3.9,0,7.1-3.4,7.1-7.6c0-4.2-3.1-7.6-7.1-7.6c-3.9,0-7,3.4-7,7.6
			C459.1,196.8,462.2,200.2,466.1,200.2z M465.2,204.8c-7.3,0-11.2-6.5-11.2-12c0-5.6,4.4-12.1,11.4-12.1c4.1,0,7.4,3,7.4,3v-2.3
			h4.8v22.7h-4.8v-2.9C472.8,201.3,469.7,204.8,465.2,204.8"/>
		<path id="path32" class="st3" d="M512.2,200.2c3.9,0,7.1-3.4,7.1-7.6c0-4.2-3.2-7.6-7.1-7.6c-4,0-7.1,3.4-7.1,7.6
			C505.1,196.8,508.3,200.2,512.2,200.2z M511.2,204.8c-7.3,0-11.2-6.5-11.2-12c0-5.6,4.4-12.1,11.4-12.1c4,0,7.4,3,7.4,3v-2.3h4.8
			v31.7h-4.8v-11.9C518.8,201.3,515.7,204.8,511.2,204.8"/>
		<path id="path34" class="st3" d="M352.4,180.7c-4.9,0-9.5,3.1-9.5,3.1l2.1,3.2c0,0,4.4-2,7.4-2c2,0,5.4,0.7,5.5,2.7
			c0.1,2.1-5.7,2.8-5.7,2.8s-8.6,0.1-8.6,7.2c0,4.4,4.3,7.3,9.8,7.3c3.1,0,9.1-2.8,9.1-2.8l-2.4-3.8c0,0-4.6,1.8-7,1.9
			c-2,0.1-4.5-0.9-4.5-2.7c0-4.8,14.2,0.4,14.2-9.4C362.8,181.9,357,180.7,352.4,180.7"/>
		<path id="path36" class="st3" d="M370.7,210.7v-6.6h-4.3v-4.8h4.3v-11.4c0,0-0.4-7.7,7.9-7.7c2.3,0,6.8,1.7,6.8,1.7l-1.9,5
			c0,0-1.8-1.5-3.8-1.5c-3.8,0.1-3.8,2.5-3.8,2.5v11.4h7.9v4.8H376v6.6H370.7"/>
		<path id="path38" class="st3" d="M398.9,200.1h0.6c5.8,0,5.8-5.5,5.8-5.5h-11.8C393.5,194.6,393.2,199.8,398.9,200.1z
			 M399.6,204.6c-7.8,0-11.7-6.4-11.7-12c0-5.8,3.5-12.2,12.2-12.2c3.7,0,8.8,3.2,8.8,3.2l-2.2,3.9c0,0-3.5-2.5-6.6-2.5
			c-6.2,0-6.6,6.1-6.6,6.1h16.6C410.1,191,411.3,204.6,399.6,204.6"/>
		<path id="path40" class="st3" d="M449,187.5l2.2-4.4c0,0-3.5-2.3-7.5-2.3c-8.2,0-12.8,6.1-12.8,12c0,9.1,7.3,11.8,12.2,11.8
			c4.4,0,8.3-2.5,8.3-2.5l-2.5-4.4c0,0-1.5,2.4-5.9,2.4s-6.8-3.8-6.8-7.4c0-4,2.7-7.5,6.8-7.5C446.3,185.1,449,187.5,449,187.5"/>
		<path id="path42" class="st3" d="M533.8,183c0.2,0,0.2,0,0.3-0.1c0.1-0.1,0.1-0.1,0.1-0.2c0-0.1,0-0.1-0.1-0.2
			c-0.1-0.1-0.2-0.1-0.3-0.1h-0.5v0.6C533.3,183,533.8,183,533.8,183z M533.8,183.4h-1v-2.1h0.5v0.8h0.2l0.7-0.8h0.5l-0.7,0.8
			c0.2,0,0.4,0.1,0.5,0.2c0.2,0.1,0.2,0.2,0.2,0.5c0,0.2-0.1,0.4-0.2,0.5C534.3,183.3,534.1,183.4,533.8,183.4z M533.7,180.5
			c-0.5,0-1,0.1-1.3,0.5c-0.3,0.3-0.5,0.8-0.5,1.3c0,0.5,0.2,0.9,0.5,1.3c0.3,0.3,0.8,0.5,1.3,0.5c0.5,0,0.9-0.1,1.3-0.5
			c0.3-0.3,0.5-0.8,0.5-1.3c0-0.5-0.2-0.9-0.5-1.3S534.2,180.5,533.7,180.5z M533.7,184.6c-0.7,0-1.2-0.2-1.7-0.7
			c-0.5-0.5-0.7-1-0.7-1.6c0-0.7,0.2-1.2,0.7-1.7c0.4-0.4,1-0.7,1.7-0.7c0.7,0,1.2,0.2,1.6,0.7c0.5,0.5,0.7,1,0.7,1.7
			c0,0.7-0.2,1.2-0.7,1.6C534.9,184.3,534.4,184.6,533.7,184.6"/>
	</g>
</g>
</svg>
