<svg enable-background="new 0 0 100 48" viewBox="0 0 100 48" xmlns="http://www.w3.org/2000/svg"><path d="m37.4 11.1h10.4c1.4 0 2.3 1.2 2 2.6l-4.8 20.7c-.4 1.4-1.8 2.6-3.2 2.6h-10.4c-1.4 0-2.3-1.2-2-2.6l4.8-20.6c.3-1.6 1.8-2.7 3.2-2.7z" fill="#fe0000"/><path d="m46.8 11.1h11.9c1.4 0 .8 1.2.5 2.6l-4.8 20.6c-.3 1.4-.2 2.6-1.7 2.6h-11.9c-1.4 0-2.3-1.2-2-2.6l4.8-20.6c.4-1.5 1.8-2.6 3.2-2.6z" fill="#0b3084"/><path d="m58.3 11.1h10.4c1.4 0 2.3 1.2 2 2.6l-4.8 20.6c-.4 1.5-1.9 2.7-3.3 2.7h-10.3c-1.4 0-2.3-1.2-2-2.6l4.7-20.7c.4-1.5 1.8-2.6 3.3-2.6z" fill="#026b6f"/><g fill="#fff"><path d="m56.6 30.5h1l.3-.9h-1zm.8-2.6-.3 1.1s.4-.2.6-.2c.2-.1.5-.1.5-.1l.2-.8zm.4-1.6-.3 1.1s.4-.2.5-.2c.2-.1.5-.1.5-.1l.2-.8zm2.2 0-1.3 4.2h.4l-.3.8h-.3l-.1.3h-1.2l.1-.3h-2.4l.2-.8h.2l1.3-4.2.2-.8h1.2l-.1.5s.3-.2.6-.3 2.1-.1 2.1-.1l-.2.8z"/><path d="m60.5 25.4h1.3v.5c0 .1.1.2.2.2h.3l-.2.8h-.7c-.6.1-.8-.2-.8-.5zm.2 3.9h-1.3l.2-.8h1.4l.2-.7h-1.4l.2-.8h4l-.2.8h-1.3l-.2.7h1.3l-.2.8h-1.4l-.2.3h.6l.2.9c0 .1 0 .2.1.2 0 0 .2.1.3.1h.2l-.3.9h-.9c-.2 0-.2-.1-.3-.2s-.2-.2-.2-.3l-.2-.9-.7.9c-.2.3-.5.5-1 .5h-.9l.2-.8h.4c.1 0 .2-.1.2-.1.1 0 .2-.1.2-.2zm-13.6-2h3.3l-.2.8h-1.4l-.2.7h1.3l-.2.8h-1.3l-.4 1.1c-.1.2.3.2.4.2l.7-.1-.3.9h-1.5c-.2 0-.2 0-.4-.1-.2 0-.2-.1-.2-.2s-.2-.2-.1-.4l.4-1.4h-.8l.2-.8h.8l.2-.7h-.8zm2.2-1.4h1.3l-.2.8h-1.9l-.2.2c-.1.1-.2.1-.2.1-.1.1-.3.2-.6.2h-.6l.2-.8h.2c.2 0 .2 0 .3-.1l.2-.2.4-.6h1.3z"/><path d="m51.9 27.2s.4-.3 1-.5h1.1l.2-.5h-1.9zm1.8.4h-1.9l-.2.4h1.9zm-2.5-2.2h1.1l-.1.6s.4-.3.6-.4.8-.2.8-.2h1.9l-.6 2.1c-.1.4-.2.6-.3.7s-.2.2-.3.3c-.2.1-.3.2-.5.2h-2.4l-.5 1.7c-.1.2-.1.2-.1.3s.1.1.2.1l.8-.1-.3.9h-1.5c-.2 0-.3 0-.4-.1s-.2-.2-.2-.3.1-.2.1-.5z"/><path d="m54.6 28.9-.1.5c-.1.2-.1.3-.2.4-.2.1-.3.2-.6.2h-.7v.6c0 .2 0 .2.1.2l.1.1h.8l-.2.8h-.7c-.5 0-.8 0-1-.1-.1-.1-.1-.2-.1-.3v-2.3h1.1v.5h.5s.1-.1.1-.2l.1-.4zm-15.9-11.3c-.1.2-.8 3.5-.8 3.5-.2.7-.3 1.1-.7 1.4-.2.2-.4.3-.8.3s-.8-.2-.8-.7v-.2l.2-.9s.8-3 .9-3.4v-.1h-1.7l-.1.2-.8 3.4-.1.3-.2 1c0 .3.1.5.2.7.4.6 1.3.7 1.9.7.8 0 1.4-.2 1.9-.5.8-.5 1-1.2 1.2-1.9l.1-.3s.8-3.2.9-3.5v-.1c-.9.2-1.3.2-1.3.1zm4.2 6.3h-1.3v-.1c.1-.2.1-.5.2-.7l.1-.3c.1-.5.2-1 .2-1.2 0-.1.1-.4-.2-.4-.2 0-.2.1-.4.2-.1.2-.2 1-.3 1.3-.2.7-.2.8-.2 1.1l-.1.1h-1.3v-.1c.1-.5.2-.8.3-1.3.2-1.1.3-1.6.4-2.2h.1c.6-.1.8-.1 1.4-.2l.1.1-.1.4c.1-.1.2-.2.3-.2.3-.2.7-.2.8-.2.3 0 .6.1.8.4s.1.7-.2 1.3l-.1.4c-.3.8-.3 1-.5 1.6zm2.1 0h-1.3c.1-.3.2-.4.2-.5.1-.1.1-.2.2-.5.1-.4.2-.7.2-.9.1-.2.1-.5.1-.7.3-.1.5-.1.7-.1s.4-.1.8-.2c-.1.2-.2.5-.2.8-.1.2-.2.5-.2.8-.2.5-.2.8-.2.8-.2.1-.2.2-.3.5zm3.3-1.8c0 .2-.2.6-.3.8s-.2.2-.4.2c-.1 0-.3 0-.3-.4 0-.2 0-.4.1-.6.2-.6.3-1.1.7-1.1.3 0 .4.5.2 1.1zm1.4 0c.2-.8.1-1.2-.2-1.4-.3-.4-.8-.5-1.3-.5-.3 0-1 0-1.6.5-.4.4-.6.9-.7 1.3-.1.5-.2 1.3.6 1.7.2.1.6.2.8.2.6 0 1.2-.2 1.7-.7.5-.3.6-.8.7-1.1m12.7 1.8h-1.4v-.1l.5-1.8c.2-.8.2-1.1.3-1.6l.1-.1c.6-.1.8-.2 1.4-.2v.1c-.2.5-.2 1-.4 1.5-.3 1.1-.4 1.6-.5 2.2z"/><path d="m61.5 22.1c0 .2-.2.6-.3.8s-.4.2-.5.2-.3 0-.3-.4c0-.2 0-.4.1-.6.2-.6.3-1.1.7-1.1.3.2.4.5.3 1.1zm1.2 0c.2-.8-.5-.1-.7-.3-.2-.4-.1-1.2-.8-1.5-.3-.1-.9 0-1.5.5-.4.4-.6.8-.7 1.3-.2.5-.2 1.3.5 1.7.2.1.5.2.8.2.8-.1 1.4-1.3 1.9-1.7.4-.5.5.1.5-.2m-9.5 1.8h-1.3v-.1c.1-.2.1-.5.2-.7l.1-.3c.2-.5.2-1 .2-1.2 0-.1.1-.4-.2-.4-.2 0-.2.1-.4.2-.1.2-.2 1-.3 1.3-.2.7-.2.8-.2 1.1l-.1.1h-1.3v-.1c.1-.5.2-.8.3-1.3.2-1.1.3-1.6.4-2.2h.1c.6-.1.8-.1 1.4-.2l.1.1-.2.4c.1-.1.2-.2.3-.2.3-.2.7-.2.8-.2.3 0 .6.1.8.4s.1.7-.2 1.3l-.1.4c-.1.8-.2 1-.4 1.6zm4.5-6.3h-2.2c0 .1-.1.2-.1.2l-.4 1.9s-1 4-1 4.1h1.6c.1-.2.3-1.3.3-1.3l.2-.8.2-.2h.1c.8 0 1.8 0 2.6-.5.5-.4.8-.9 1-1.6.1-.2.1-.4.1-.5 0-.2-.1-.5-.2-.8-.5-.5-1.3-.5-2.2-.5zm.6 2c-.1.5-.4.8-.7.9-.3.2-.6.2-1 .2h-.2v-.1l.5-1.9v-.2h.2l.9.1c.3.2.4.5.3 1m9.3.7c-.7.1-.8.1-1.4.2l-.1.1c-.5 1-.5.8-.8 1.6v-.2l-.1-1.7-.1-.1c-.7.2-.7.2-1.3.2l-.1.1v.1c.1.4.1.3.2.9 0 .3.1.6.2.9.1.5.1.8.2 1.5-.5.7-.5 1-.9 1.6v.1h1.2l.1-.1c.2-.8 2.9-5.2 2.9-5.2zm-22 .4c.4-.2.4-.6.1-.8s-.8-.2-1.1.2c-.4.2-.4.6-.1.8.2.1.8 0 1.1-.2z"/><path d="m64.6 25.5-.6.9c-.2.3-.5.5-.9.5h-.8l.2-.8h.3c.1 0 .1-.1.1-.1l.3-.5h1.3z"/></g></svg>