<svg xmlns="http://www.w3.org/2000/svg" viewBox="0 0 100 48"><path d="M44.6 32.5h-4l2.5-15.8h4l-2.5 15.8m-7.4-15.8l-3.8 10.9-.5-2.3-1.4-7.1s-.2-1.4-1.9-1.4h-6.3l-.1.2s1.9.4 4.2 1.8l3.5 13.7h4.2l6.4-15.8h-4.3M64.5 27l2.1-5.9 1.2 5.9h-3.3zm4.4 5.5h3.7l-3.2-15.8h-3.2c-1.5 0-1.9 1.2-1.9 1.2l-6 14.6h4.2l.8-2.3h5.1l.5 2.3zM58.6 20.8l.6-3.4s-1.8-.7-3.6-.7c-2 0-6.7.9-6.7 5.2 0 4.1 5.6 4.1 5.6 6.3s-5 1.8-6.6.4l-.6 3.6s1.8.9 4.5.9 6.9-1.5 6.9-5.4c0-4.1-5.6-4.5-5.6-6.3s3.8-1.6 5.5-.6" fill="#005b9c"/><path d="M32.9 25.3l-1.4-7.1s-.2-1.4-1.9-1.4h-6.3l-.1.2s3 .6 6 3.1c2.8 2.3 3.7 5.2 3.7 5.2" fill="#ef9f3f"/></svg>