<svg width="32" height="32" viewBox="0 0 32 32" fill="none" xmlns="http://www.w3.org/2000/svg">
<path d="M21.1454 9.02865C24.9235 9.02865 27.9849 12.0878 27.9849 15.8681C27.9849 19.6462 24.9257 22.7076 21.1454 22.7076C19.7417 22.7076 18.3742 22.2767 17.2222 21.4852C16.9342 21.2676 15.7097 20.3694 14.0905 19.4308C11.6798 18.0633 9.555 17.3081 7.75446 17.2014C8.22166 16.7684 8.691 16.3353 9.1582 15.8681C14.0179 11.4393 18.2654 9.02865 21.1454 9.02865ZM21.1454 6.40039C12.3966 6.40039 0.230195 21.3764 0.230195 21.3764C0.230195 21.3764 -0.130337 21.7732 0.0509963 21.9524C0.0872629 21.9929 0.123528 21.9929 0.193928 21.9929C0.373128 21.9929 0.66113 21.8116 0.66113 21.8116C0.66113 21.8116 3.8654 19.7593 7.3214 19.7593C10.7774 19.7593 15.6371 23.5375 15.6371 23.5375C17.1859 24.6532 19.0931 25.3017 21.1454 25.3017C26.3635 25.3017 30.6131 21.0543 30.6131 15.834C30.6131 10.6479 26.3657 6.40039 21.1454 6.40039Z" fill="#4065D9"/>
</svg>
