<svg width="32" height="32" viewBox="0 0 32 32" fill="none" xmlns="http://www.w3.org/2000/svg">
<path d="M8.42087 27.8617L12.0197 23.7003C11.2815 22.485 11.06 20.9382 11.6322 19.502C12.3888 17.5501 14.2898 16.4085 16.3753 16.5374C16.9105 16.5742 17.4273 16.7031 17.9071 16.9057L21.5245 12.7257C20.4725 12.0628 19.2913 11.5841 18.0917 11.3447C19.3836 9.77957 24.0344 4.4212 24.0344 4.4212L19.9188 0.738464C19.9188 0.738464 13.7177 8.08552 11.6322 10.645C10.3956 12.1733 9.14063 13.7017 7.9041 15.23C6.31691 17.1818 5.67095 20.036 5.9847 22.5402C6.26154 24.5841 7.14741 26.4071 8.42087 27.8617Z" fill="#00B3B0"/>
<path d="M25.3081 17.0898C24.8836 16.0587 24.2377 15.1011 23.4441 14.291L19.8637 18.434C20.5834 19.3915 20.9525 20.6253 20.768 21.8774C20.4173 24.3632 17.9442 26.4072 15.3789 25.9284C14.8068 25.8548 14.29 25.6707 13.8101 25.4127L10.2667 29.5006C12.5736 31.1025 15.5081 31.7839 18.4241 31.0841C24.4961 29.6111 27.8735 22.7981 25.3081 17.0898Z" fill="black"/>
</svg>
