<svg width="32" height="32" viewBox="0 0 32 32" fill="none" xmlns="http://www.w3.org/2000/svg">
<path d="M16 32C24.8366 32 32 24.8366 32 16C32 7.16345 24.8366 0 16 0C7.16345 0 0 7.16345 0 16C0 24.8366 7.16345 32 16 32Z" fill="#EA4235"/>
<path d="M15.9996 27.0534C12.2134 27.0534 8.88513 23.9999 8.88513 20.1527C8.88513 17.8015 9.98442 15.9083 12.0607 14.8091C10.8699 13.6488 10.1676 12.4885 10.1676 10.7786C10.1676 9.22779 10.7836 7.74051 11.8802 6.64392C12.9768 5.54733 14.4641 4.93127 16.015 4.93127C17.5657 4.93127 19.053 5.54733 20.1496 6.64392C21.2462 7.74051 21.8622 9.22779 21.8622 10.7786C21.8622 12.4885 21.1295 13.6488 19.9386 14.8091C22.0149 15.9083 23.1141 17.8015 23.1141 20.1527C23.0836 23.9999 19.7859 27.0534 15.9996 27.0534ZM15.9996 16.8855C15.3535 16.8855 14.7218 17.0771 14.1845 17.4361C13.6473 17.7951 13.2284 18.3054 12.9812 18.9023C12.7339 19.4994 12.6692 20.1563 12.7952 20.79C12.9213 21.4238 13.2325 22.0059 13.6894 22.4629C14.1464 22.9198 14.7285 23.231 15.3623 23.3571C15.9961 23.4831 16.6529 23.4184 17.2499 23.1711C17.8469 22.9239 18.3572 22.5051 18.7162 21.9678C19.0752 21.4305 19.2668 20.7988 19.2668 20.1527C19.266 19.2863 18.9215 18.4559 18.309 17.8433C17.6965 17.2307 16.866 16.8863 15.9996 16.8855ZM15.9996 8.54963C15.5498 8.54659 15.1091 8.67707 14.7333 8.92451C14.3576 9.17195 14.0636 9.52523 13.8886 9.93979C13.7137 10.3543 13.6656 10.8113 13.7504 11.2531C13.8352 11.695 14.0492 12.1018 14.3651 12.422C14.6811 12.7423 15.085 12.9617 15.5257 13.0524C15.9664 13.1431 16.424 13.1011 16.8409 12.9318C17.2576 12.7624 17.6149 12.4732 17.8673 12.1009C18.1198 11.7285 18.2562 11.2895 18.2592 10.8397C18.2612 10.5409 18.2044 10.2447 18.0919 9.96795C17.9795 9.69123 17.8136 9.43931 17.6037 9.22667C17.3939 9.01403 17.1443 8.84475 16.8691 8.72859C16.5938 8.61243 16.2984 8.55163 15.9996 8.54963Z" fill="white"/>
</svg>
