<svg xmlns="http://www.w3.org/2000/svg" viewBox="0 0 82.419 82.417001" height="82.417" width="82.419"><path d="M56.135 55.08c-5.262 6.564-12.171 7.861-17.692 7.512-7.251-.446-14.972-6.94-15.287-13.72-.234-5.358 2.46-12.854 12.661-13.82 2.57-.242 5.47.519 5.992 3.28.506 2.747-2.06 4.272-3.462 4.376-4.862.376-6.747 2.922-6.207 6.164.521 3.105 4.116 4.57 7.432 4.654 3.101.093 8.043-1.328 10.53-5.1 4.736-7.21 2.155-13.482-.535-16.502-3.791-4.248-9.035-6.772-17.898-2.65-2.1.981-4.229.82-5.877-.523-.93-.77-1.581-2.568-1.18-4.071.343-1.298 1.04-2.536 3.255-3.748 11.206-6.184 21.975-1.991 27.662 4.228 6.262 6.846 9.186 19.233.606 29.92M41.203 0C18.446 0 0 18.45 0 41.2c0 22.766 18.446 41.217 41.203 41.217 22.758 0 41.216-18.451 41.216-41.217C82.419 18.45 63.96 0 41.203 0" fill="#d7063a" fill-rule="evenodd"/></svg>