<svg xmlns="http://www.w3.org/2000/svg" width="64" height="64" version="1" viewBox="0 0 64 480"><g fill="#EE295F"><path d="M-192 240v240h480V0h-480v240zm312.7-1.5c32.6 97.9 59.3 178.3 59.3 178.8 0 .4-7.5.6-16.7.5l-16.8-.3-15.5-48.3-15.5-48.2-75 .2-74.9.3-15.6 48.2-15.5 48.3h-16.3c-12.7 0-16.3-.3-16-1.3.3-.6 27.2-81.2 59.9-179L21.5 60l19.9.2 19.9.3 59.4 178z"/><path d="M40.4 89.5c-.4 1.1-15.5 47.4-33.4 103l-32.7 101 66 .3c36.3.1 66.1.1 66.3-.1.2-.2-62.9-199.6-64.9-204.8-.3-1-.7-.8-1.3.6z"/></g></svg>