<svg width="32" height="32" viewBox="0 0 32 32" fill="none" xmlns="http://www.w3.org/2000/svg">
<g clip-path="url(#clip0)">
<path d="M32 16C32.002 19.5922 30.7952 23.0806 28.5737 25.9036C26.3523 28.7266 23.2455 30.7199 19.7535 31.5626C16.2615 32.4053 12.5875 32.0484 9.32303 30.5493C6.05854 29.0503 3.39348 26.4962 1.75692 23.2985L0.387689 19.5108C-0.104465 17.316 -0.128316 15.042 0.317692 12.8374C0.7637 10.6327 1.66954 8.54688 2.97612 6.71595C4.28269 4.88502 5.96063 3.35015 7.90045 2.2115C9.84027 1.07285 11.9984 0.355992 14.2339 0.107716C16.4695 -0.14056 18.7323 0.0853198 20.8747 0.770617C23.0171 1.45591 24.9909 2.58523 26.6674 4.08487C28.3438 5.58451 29.6852 7.42078 30.6041 9.47386C31.523 11.5269 31.9986 13.7507 32 16V16Z" fill="url(#paint0_linear)"/>
<path d="M14.5877 23.2985H10.6892L10.3661 22L13.8738 20.44L14.5877 23.2985Z" fill="white"/>
<path d="M10.9477 8.70154H7.69231L0.387695 19.5108C0.53134 20.1723 0.720508 20.823 0.953849 21.4585C1.18047 22.0909 1.44875 22.7076 1.75693 23.3046L4.08308 19.8585H13.7262L10.9477 8.70154ZM5.99693 17.0092L8.27693 13.6246L9.12308 17.0092H5.99693Z" fill="white"/>
<path opacity="0.42" d="M10.3661 22L12.0246 21.4954L13.8738 20.44L13.7261 19.8523L11.8523 19.5969L9.83075 19.8523L10.3661 22Z" fill="white"/>
<path opacity="0.42" d="M16.3477 19.3354L18.1815 18.8123L20.1415 17.6461L20.2554 17.0123L18.4338 16.7415L16.7569 17.0123L16.3477 19.3354Z" fill="white"/>
<path d="M27.5723 15.4892C27.4249 15.3273 27.2499 15.1929 27.0554 15.0923C27.2097 14.9669 27.3472 14.8221 27.4646 14.6615C27.9163 14.12 28.2327 13.4787 28.3877 12.7908C28.4959 12.2525 28.4736 11.6962 28.3226 11.1684C28.1716 10.6405 27.8964 10.1566 27.52 9.75692C26.8123 9.01846 25.8677 8.70154 24.3662 8.70154H18.2246L17.2585 14.1754H14.5969L15.3046 17.0123H23.3846C24.4246 17.0123 24.7662 17.32 24.9231 17.5569C25.0413 17.7189 25.1238 17.9042 25.1652 18.1004C25.2065 18.2967 25.2058 18.4994 25.1631 18.6954C25.0786 19.155 24.8411 19.5725 24.4892 19.88C24.0615 20.2769 23.5077 20.4554 22.6923 20.4554H19.6462L20.1415 17.64L16.3477 19.3323L15.6492 23.2985H22.7692C24.4769 23.2985 25.7538 22.8769 26.8154 21.9723C27.7559 21.1541 28.3708 20.0248 28.5477 18.7908C28.6623 18.2026 28.6336 17.5954 28.4638 17.0207C28.294 16.446 27.9882 15.9207 27.5723 15.4892V15.4892ZM25.0185 12.8215C24.9464 13.1692 24.764 13.4843 24.4985 13.72C24.2338 13.9569 23.8831 14.1754 23.0215 14.1754H20.7538L21.2308 11.5385H23.5723C24.4031 11.5385 24.6738 11.7446 24.84 11.9662C24.9256 12.0895 24.9854 12.2288 25.0161 12.3757C25.0467 12.5227 25.0476 12.6743 25.0185 12.8215V12.8215Z" fill="white"/>
</g>
<defs>
<linearGradient id="paint0_linear" x1="-11.5108" y1="43.5108" x2="43.3692" y2="-11.3692" gradientUnits="userSpaceOnUse">
<stop stop-color="#006C8A"/>
<stop offset="0.25" stop-color="#217981"/>
<stop offset="0.5" stop-color="#009CB2"/>
<stop offset="0.75" stop-color="#00D4D4"/>
<stop offset="1" stop-color="#00F3F3"/>
</linearGradient>
<clipPath id="clip0">
<rect width="32" height="32" fill="white"/>
</clipPath>
</defs>
</svg>
