<svg width="32" height="32" viewBox="0 0 32 32" fill="none" xmlns="http://www.w3.org/2000/svg">
<path opacity="0.8" fill-rule="evenodd" clip-rule="evenodd" d="M23.9534 18.0564C23.9408 18.0748 23.9281 18.0947 23.9147 18.1148L19.3684 24.8L23.1003 24.7978H24.722H27.4655C27.4798 24.7978 27.4942 24.8 27.509 24.8C29.7547 24.8 32 22.9693 32 20.5397C32 18.11 30.0267 16.1397 27.5916 16.1397C26.0985 16.1397 24.7806 16.8828 23.9837 18.0165L23.9534 18.0564Z" fill="#2979FF"/>
<path opacity="0.7" fill-rule="evenodd" clip-rule="evenodd" d="M10.807 19.7714C13.5198 19.7714 15.7193 17.5838 15.7193 14.8824C15.7193 12.1824 13.5198 9.99365 10.807 9.99365C8.09423 9.99365 5.89471 12.1824 5.89471 14.8824C5.89471 17.5838 8.09423 19.7714 10.807 19.7714V19.7714Z" fill="#2979FF"/>
<path fill-rule="evenodd" clip-rule="evenodd" d="M4.77193 24.8H5.05263H9.82456V19.8445C9.82456 17.1809 7.58119 15.0222 4.88449 15.0222C2.18723 15.0222 0 17.1851 0 19.8445C0 22.5038 2.24561 24.8 4.77193 24.8V24.8Z" fill="#5494FF"/>
<path fill-rule="evenodd" clip-rule="evenodd" d="M20.1013 7.2C17.1173 7.2 14.4838 8.68594 12.891 10.9538L12.8308 11.0332C12.8055 11.0706 12.7801 11.1094 12.7529 11.1499L4.77191 24.7927L11.2909 24.7955H14.5316L20.0073 24.8H20.1013C24.9679 24.8 28.9123 20.859 28.9123 16C28.9123 11.141 24.9679 7.2 20.1013 7.2V7.2Z" fill="#3681FF"/>
</svg>
