<svg width="32" height="32" viewBox="0 0 32 32" fill="none" xmlns="http://www.w3.org/2000/svg">
<path d="M15.9923 18.5199C17.466 18.5199 18.6607 17.3248 18.6607 15.8507C18.6607 14.3765 17.466 13.1815 15.9923 13.1815C14.5187 13.1815 13.324 14.3765 13.324 15.8507C13.324 17.3248 14.5187 18.5199 15.9923 18.5199Z" fill="#B84297"/>
<path d="M15.9917 7.03289e-06C13.5675 -0.00226949 11.1747 0.54816 8.99508 1.60947V5.04654C10.937 3.80663 13.1734 3.1048 15.4755 3.01283C17.7776 2.92086 20.0628 3.44204 22.0975 4.52309C24.1322 5.60414 25.8433 7.20625 27.0559 9.16561C28.2683 11.125 28.9388 13.3712 28.9987 15.6747V25.3424C30.7149 22.95 31.7383 20.1306 31.9561 17.1941C32.1739 14.2577 31.5779 11.318 30.2334 8.69849C28.889 6.07894 26.8482 3.88098 24.3355 2.34634C21.8229 0.811688 18.9358 -0.000183838 15.9917 7.03289e-06Z" fill="#292D33"/>
<path d="M15.9919 29.0156C12.6503 29.0154 9.43698 27.7286 7.01875 25.4222C4.60046 23.1157 3.16286 19.9667 3.0042 16.6283H2.98911V6.67657C0.650718 9.94506 -0.372848 13.9737 0.12174 17.9622C0.616328 21.9506 2.59288 25.6071 5.65876 28.2052C8.72463 30.8034 12.6555 32.1531 16.6705 31.9862C20.6856 31.8193 24.4909 30.1481 27.3306 27.3045V22.3787C26.2001 24.3923 24.5539 26.0684 22.5611 27.2349C20.5683 28.4013 18.3009 29.0159 15.9919 29.0156Z" fill="#292D33"/>
<path d="M15.992 20.1063C15.0252 20.1072 14.0861 19.7835 13.3251 19.1871V22.2468C14.7124 22.8175 16.2464 22.9271 17.7008 22.5595C19.1551 22.192 20.4528 21.3667 21.4025 20.2053C22.3522 19.0439 22.9035 17.608 22.9752 16.1095C23.0468 14.6109 22.6351 13.1289 21.8005 11.8823C20.966 10.6355 19.7529 9.6901 18.3403 9.18538C16.9276 8.68066 15.3902 8.64346 13.9547 9.07914C12.5193 9.51482 11.2618 10.4003 10.3679 11.6052C9.47393 12.81 8.99084 14.2703 8.98988 15.7706V24.7673C9.80339 25.4079 10.7007 25.9342 11.6568 26.3315V15.7664C11.6568 14.9089 11.9111 14.0706 12.3875 13.3576C12.8638 12.6446 13.5408 12.0888 14.333 11.7607C15.1252 11.4325 15.9968 11.3467 16.8378 11.5139C17.6787 11.6812 18.4512 12.0942 19.0575 12.7006C19.6637 13.3069 20.0766 14.0795 20.2439 14.9206C20.4112 15.7616 20.3253 16.6334 19.9972 17.4257C19.6691 18.2179 19.1135 18.8951 18.4006 19.3715C17.6876 19.8479 16.8494 20.1022 15.992 20.1022V20.1063Z" fill="#292D33"/>
<path d="M7.32272 23.1571V15.8508C7.32356 14.0212 7.90327 12.2388 8.97885 10.7588C10.0543 9.27889 11.5706 8.17729 13.3104 7.61176C15.0502 7.04625 16.9242 7.04587 18.6642 7.61065C20.4042 8.17545 21.9209 9.27641 22.997 10.7559C24.0732 12.2355 24.6536 14.0176 24.6552 15.8472C24.6568 17.6768 24.0795 19.46 23.0059 20.9415C21.9323 22.4228 20.4176 23.5265 18.6786 24.0943C16.9396 24.6621 15.0655 24.665 13.3248 24.1026V26.8742C15.2877 27.3495 17.3419 27.2919 19.2751 26.7072C21.2083 26.1226 22.9502 25.0321 24.3209 23.5486C25.6915 22.065 26.6411 20.2423 27.0715 18.2687C27.5018 16.2952 27.3972 14.2425 26.7687 12.3229C26.1402 10.4033 25.0103 8.68649 23.4961 7.34987C21.9818 6.01327 20.1381 5.10543 18.1555 4.7202C16.173 4.33498 14.1235 4.48635 12.2191 5.15868C10.3146 5.831 8.6242 6.99988 7.32272 8.54449V4.83982V2.55118C6.35728 3.17294 5.46133 3.89651 4.65028 4.70947V16.1911C4.72597 18.7489 5.66827 21.2051 7.32272 23.1571Z" fill="#292D33"/>
</svg>
