<svg xmlns="http://www.w3.org/2000/svg" xmlns:xlink="http://www.w3.org/1999/xlink" fill="none" height="32" viewBox="0 0 70 70" width="32"><clipPath id="a"><path d="m.5.5h301v69h-301z"/></clipPath><g clip-path="url(#a)"><path d="m35.0487 66.7578c17.5124 0 31.7091-14.1967 31.7091-31.7091 0-17.5125-14.1967-31.7091-31.7091-31.7091-17.5125 0-31.7091 14.1966-31.7091 31.7091 0 17.5124 14.1966 31.7091 31.7091 31.7091z" fill="#fff"/><path d="m34.8273 6.03667c-5.2598 0-10.1044 1.38417-14.5337 3.87567-4.4293 2.62996-7.8898 6.09036-10.38126 10.51966-2.62992 4.4293-3.87567 9.1355-3.87567 14.3953 0 5.2599 1.24575 10.1045 3.87567 14.5338 2.49146 4.4293 5.95196 7.8898 10.38126 10.3813 4.4293 2.6299 9.2739 3.8756 14.5337 3.8756 5.2599 0 9.9661-1.2457 14.3954-3.8756 4.4293-2.4915 7.8897-5.952 10.5197-10.3813 2.4915-4.4293 3.8756-9.2739 3.8756-14.5338 0-5.2598-1.3841-9.966-3.8756-14.3953-2.63-4.4293-6.0904-7.8897-10.5197-10.51966-4.4293-2.4915-9.1355-3.87567-14.3954-3.87567zm0-5.53667c6.0904 0 11.9039 1.661 17.1637 4.70617 5.2599 3.04517 9.4124 7.19763 12.4575 12.45753 3.0452 5.2598 4.7062 11.0733 4.7062 17.1636 0 6.2288-1.661 11.9039-4.7062 17.1637-3.0451 5.2599-7.1976 9.5508-12.4575 12.5959-5.2598 3.0452-11.0733 4.5678-17.1637 4.5678-6.2287 0-11.9038-1.5226-17.1636-4.5678-5.2599-3.0451-9.55078-7.336-12.59595-12.5959-3.04517-5.2598-4.56775-10.9349-4.56775-17.1637 0-6.0903 1.52258-11.9038 4.56775-17.1636 3.04517-5.2599 7.33605-9.41236 12.59595-12.45753 5.2598-3.04517 10.9349-4.70617 17.1636-4.70617zm0 7.75134c4.7062 0 9.1356 1.24575 13.2881 3.59886 4.014 2.4915 7.1976 5.6751 9.6891 9.6891 2.3531 4.1525 3.5989 8.5819 3.5989 13.288 0 4.8446-1.2458 9.274-3.5989 13.2881-2.4915 4.1525-5.6751 7.336-9.6891 9.6891-4.1525 2.4915-8.5819 3.5989-13.2881 3.5989-4.8445 0-9.2739-1.1074-13.288-3.5989-4.1525-2.3531-7.336-5.5366-9.6891-9.6891-2.49153-4.0141-3.59886-8.4435-3.59886-13.2881 0-4.7061 1.10733-9.1355 3.59886-13.288 2.3531-4.014 5.5366-7.1976 9.6891-9.6891 4.0141-2.35311 8.4435-3.59886 13.288-3.59886zm0 6.09036c-1.3841 0-2.6299.5536-3.5988 1.5226-.9689.9689-1.3842 2.0762-1.3842 3.4604 0 1.3841.4153 2.6299 1.3842 3.5988s2.2147 1.3842 3.5988 1.3842c1.3842 0 2.4915-.4153 3.4605-1.3842.9689-.9689 1.5225-2.2147 1.5225-3.5988 0-1.3842-.5536-2.4915-1.5225-3.4604-.969-.969-2.0763-1.5226-3.4605-1.5226zm16.3332 13.5648c.5537 0 .9689-.4152 1.2458-.9689.2768-.5537.4152-1.1073.2768-1.661s-.4152-1.1073-.9689-1.3842c-.5537-.2768-1.1073-.4152-1.661-.2768-4.7062 1.1073-8.305 1.7994-10.7965 2.0762-3.0452.4153-5.9519.4153-8.8587 0-2.6299-.2768-6.2287-.9689-10.7965-2.0762-.6921-.1384-1.2457 0-1.7994.2768-.5537.2769-.8305.8305-.9689 1.3842s0 1.1073.2768 1.661.8305.8305 1.3842.9689c4.8446 1.1073 8.5818 1.9378 11.3501 2.2147 0 5.8135-.4152 10.3812-.9689 13.7032-.4152 2.0763-1.1073 4.4294-2.0762 6.9209l-.4153.8305c-.2768.6921-.1384 1.3841.1384 1.9378.2769.6921.6921 1.1073 1.3842 1.3842.5537.2768 1.2458.1384 1.7994-.1384.5537-.2769 1.1074-.6921 1.3842-1.2458l.4152-.9689c.5537-1.661 1.1074-3.1836 1.5226-4.2909.4153-1.661.8305-3.4604 1.1074-5.6751h1.3841c.2769 2.2147.5537 4.0141 1.1074 5.6751.2768 1.1073.8305 2.6299 1.5225 4.2909l.4153.9689c.2768.5537.6921.9689 1.2457 1.2458.5537.2768 1.2458.4152 1.9379.1384.5536-.2769 1.1073-.6921 1.3842-1.3842.2768-.5537.2768-1.2457.1384-1.9378l-.4153-.8305c-1.1073-2.4915-1.7994-4.8446-2.0762-6.9209-.6921-3.322-.969-7.8897-.969-13.7032 2.63-.2769 6.3672-1.1074 11.3502-2.2147z" fill="#574cd5"/></g></svg>