<?xml version="1.0" encoding="UTF-8" standalone="no"?>
<svg id="logo" xmlns="http://www.w3.org/2000/svg" viewBox="0 0 30 30"><g fill="none" fill-rule="evenodd"><path fill="#FFF" d="M0 15c0 8.284 6.716 15 15 15 8.285 0 15-6.716 15-15 0-8.284-6.715-15-15-15C6.716 0 0 6.716 0 15z"></path><path fill="#005AF0" fill-rule="nonzero" d="M13.85 24.098h-1.14l1.128-6.823-3.49.005h-.05a.57.57 0 0 1-.568-.569c0-.135.125-.363.125-.363l6.272-10.46 1.16.005-1.156 6.834 3.508-.004h.056c.314 0 .569.254.569.568 0 .128-.05.24-.121.335L13.85 24.098zM15 0C6.716 0 0 6.716 0 15c0 8.284 6.716 15 15 15 8.285 0 15-6.716 15-15 0-8.284-6.715-15-15-15z"></path></g></svg>
