<svg width="32" height="32" viewBox="0 0 32 32" fill="none" xmlns="http://www.w3.org/2000/svg">
<g clip-path="url(#clip0)">
<path d="M20.7005 32.0001H8.94238L19.3114 2.80005C19.6286 1.97584 20.165 1.27055 20.8533 0.772493C21.5417 0.274433 22.3514 0.00573793 23.1811 4.91527e-05H30.0152C30.3425 -0.00233855 30.6652 0.0822994 30.9546 0.246426C31.244 0.410553 31.4912 0.649076 31.6742 0.940754C31.8571 1.23243 31.9701 1.56821 32.0031 1.9182C32.0361 2.26818 31.9881 2.62151 31.8633 2.94672L22.7222 30.4801L22.685 30.5867C22.5662 30.8896 22.3885 31.1617 22.1639 31.3847C21.9393 31.6078 21.673 31.7767 21.3827 31.8801L21.209 31.9334L21.1222 31.9601L20.9486 31.9867L20.7005 32.0001V32.0001Z" fill="#136EF8"/>
<path d="M19.2619 32.0004H7.39214C7.02789 31.9719 6.67664 31.8428 6.37243 31.6255C6.06821 31.4083 5.82134 31.1103 5.65571 30.7604L5.51928 30.387L0.148733 13.6404C0.0266037 13.3158 -0.0193484 12.964 0.0149303 12.6158C0.0492091 12.2677 0.162665 11.9339 0.34529 11.6441C0.527914 11.3542 0.774093 11.1171 1.06211 10.9537C1.35013 10.7903 1.67113 10.7056 1.99679 10.7071H8.4216C10.1208 10.7071 11.6588 11.8271 12.2914 13.5204L18.8526 30.5337C19.1379 31.3204 19.7704 32.0004 20.5518 31.987L19.2619 32.0004V32.0004Z" fill="#60D0FF"/>
<path d="M18.8525 30.5329C19.1377 31.3062 19.7579 31.9862 20.5269 31.9862H8.94238L13.9532 17.8662L18.8525 30.5329Z" fill="#2D7FFF"/>
<path d="M20.7007 31.9996H20.5147C19.7457 31.9863 19.1379 31.3063 18.8526 30.5463L13.9658 17.8929L16.1984 11.5996L19.572 29.3063C19.572 29.3063 19.7209 31.3863 21.3581 31.8929L21.1968 31.9463L21.11 31.9729L20.9364 31.9996H20.7007V31.9996Z" fill="#0047D8"/>
</g>
<defs>
<clipPath id="clip0">
<rect width="32" height="32" fill="white"/>
</clipPath>
</defs>
</svg>
