<svg width="32" height="32" viewBox="0 0 32 32" fill="none" xmlns="http://www.w3.org/2000/svg">
<rect width="32" height="32" fill="white"/>
<path fill-rule="evenodd" clip-rule="evenodd" d="M2.89239 20.6189C2.03045 20.5973 1.20843 20.8027 1.20843 21.6026C1.20843 22.1213 1.5157 22.359 1.90211 22.359C2.38727 22.359 2.74374 22.0131 2.85282 21.6349C2.88241 21.5377 2.89239 21.4295 2.89239 21.343V20.6189ZM4.0812 21.9269C4.0812 22.4022 4.10082 22.867 4.15037 23.1912H3.05101L2.97187 22.6076H2.94194C2.64499 23.0184 2.13953 23.3104 1.5157 23.3104C0.544688 23.3104 0 22.5427 0 21.7431C0 20.4139 1.07974 19.7434 2.8628 19.7544V19.6678C2.8628 19.322 2.73411 18.749 1.88215 18.749C1.40662 18.749 0.91114 18.9112 0.584258 19.1378L0.346839 18.2737C0.703312 18.0356 1.32748 17.8086 2.09032 17.8086C3.63527 17.8086 4.0812 18.8785 4.0812 20.0247V21.9269ZM8.6923 23.0291C8.43458 23.1589 7.92946 23.3104 7.32525 23.3104C5.81953 23.3104 4.83888 22.2508 4.83888 20.6189C4.83888 19.041 5.82951 17.8086 7.52344 17.8086C7.96903 17.8086 8.42495 17.9168 8.70228 18.0573L8.48413 19.0516C8.28628 18.9544 7.99897 18.8462 7.56301 18.8462C6.63191 18.8462 6.0769 19.5919 6.08688 20.554C6.08688 21.6349 6.73101 22.2508 7.56301 22.2508C7.98899 22.2508 8.28628 22.1539 8.52404 22.0454L8.6923 23.0291V23.0291ZM12.9521 23.0291C12.694 23.1589 12.1889 23.3104 11.5847 23.3104C10.079 23.3104 9.09867 22.2508 9.09867 20.6189C9.09867 19.041 10.0889 17.8086 11.7829 17.8086C12.2288 17.8086 12.6844 17.9168 12.9617 18.0573L12.7439 19.0516C12.5457 18.9544 12.2588 18.8462 11.8228 18.8462C10.8914 18.8462 10.3367 19.5919 10.3467 20.554C10.3467 21.6349 10.9908 22.2508 11.8228 22.2508C12.2484 22.2508 12.5457 22.1539 12.7835 22.0454L12.9521 23.0291V23.0291ZM14.527 20.9325C14.5566 21.8836 15.2403 22.294 16.0127 22.294C16.5777 22.294 16.9837 22.2075 17.3502 22.0564L17.5284 22.9748C17.1121 23.1589 16.5378 23.3104 15.8445 23.3104C14.2792 23.3104 13.3581 22.2508 13.3581 20.6406C13.3581 19.1815 14.1702 17.8086 15.7158 17.8086C17.2907 17.8086 17.7958 19.2138 17.7958 20.3702C17.7975 20.5585 17.7843 20.7466 17.7562 20.9325H14.527V20.9325ZM16.6465 20.0027C16.6569 19.5164 16.4587 18.7164 15.6463 18.7164C14.8934 18.7164 14.5765 19.4621 14.527 20.0027H16.6465ZM18.6182 21.9702C18.8955 22.1536 19.4206 22.348 19.8562 22.348C20.3912 22.348 20.629 22.1106 20.629 21.7648C20.629 21.4079 20.4308 21.2241 19.8366 20.9974C18.8955 20.6406 18.4994 20.0783 18.5091 19.4621C18.5091 18.5326 19.2124 17.8086 20.3317 17.8086C20.8668 17.8086 21.3323 17.9601 21.6096 18.1222L21.3722 19.0626C21.164 18.9328 20.7776 18.7597 20.3517 18.7597C19.9157 18.7597 19.6779 18.9871 19.6779 19.311C19.6779 19.6462 19.9057 19.8083 20.5199 20.0464C21.3918 20.3919 21.7978 20.8782 21.8078 21.6566C21.8078 22.6076 21.1241 23.3104 19.8465 23.3104C19.2616 23.3104 18.7369 23.1483 18.3804 22.9319L18.6178 21.9702H18.6182ZM22.6495 21.9702C22.9268 22.1536 23.4519 22.348 23.8878 22.348C24.4229 22.348 24.6606 22.1106 24.6606 21.7648C24.6606 21.4079 24.4625 21.2241 23.8679 20.9974C22.9268 20.6406 22.5308 20.0783 22.5407 19.4621C22.5407 18.5326 23.244 17.8086 24.3634 17.8086C24.8981 17.8086 25.3636 17.9601 25.6413 18.1222L25.4035 19.0626C25.1954 18.9328 24.8093 18.7597 24.3833 18.7597C23.9474 18.7597 23.7096 18.9871 23.7096 19.311C23.7096 19.6462 23.9374 19.8083 24.5516 20.0464C25.4231 20.3919 25.8295 20.8782 25.8395 21.6566C25.8395 22.6076 25.1558 23.3104 23.8782 23.3104C23.2932 23.3104 22.7685 23.1483 22.412 22.9319L22.6495 21.9702V21.9702ZM31.3273 20.5107C31.3273 22.4455 30.079 23.3104 28.8506 23.3104C27.4835 23.3104 26.4334 22.2834 26.4334 20.5973C26.4334 18.8679 27.4735 17.8086 28.9297 17.8086C30.3663 17.8086 31.327 18.9112 31.327 20.5107H31.3273ZM27.6914 20.565C27.6914 21.581 28.1473 22.3483 28.8901 22.3483C29.5835 22.3483 30.069 21.6026 30.069 20.5434C30.069 19.7218 29.7318 18.7817 28.9001 18.7817C28.0382 18.7817 27.6914 19.6891 27.6914 20.565V20.565ZM31.6339 22.4184C31.8397 22.4184 32 22.593 32 22.8152C32 23.0423 31.8397 23.2169 31.6318 23.2169C31.5824 23.2172 31.5335 23.207 31.4878 23.1869C31.4422 23.1668 31.4008 23.1372 31.366 23.0998C31.3313 23.0624 31.3039 23.0179 31.2855 22.969C31.2671 22.9202 31.258 22.8679 31.2588 22.8152C31.2588 22.593 31.4237 22.4184 31.6318 22.4184H31.6339ZM31.6294 22.4881C31.4646 22.4881 31.339 22.6352 31.339 22.8152C31.339 23.0001 31.4646 23.1446 31.6339 23.1446C31.7963 23.1472 31.9195 23.0001 31.9195 22.8178C31.9195 22.6352 31.7963 22.4881 31.6318 22.4881H31.6294V22.4881ZM31.5654 23.035H31.4945V22.6179C31.5334 22.6106 31.5747 22.6058 31.627 22.6058C31.691 22.6058 31.7234 22.6179 31.7461 22.6381C31.7587 22.6487 31.7688 22.6623 31.7756 22.6779C31.7823 22.6934 31.7856 22.7105 31.7849 22.7276C31.7849 22.7778 31.7505 22.8101 31.712 22.8252V22.8303C31.7437 22.845 31.7619 22.8776 31.7736 22.9326C31.7849 22.995 31.7942 23.0199 31.8032 23.035H31.7299C31.7185 23.0203 31.7092 22.9825 31.6979 22.9275C31.6889 22.8798 31.6638 22.86 31.6108 22.86H31.5654V23.035V23.035ZM31.5654 22.8002H31.6136C31.6638 22.8002 31.712 22.7826 31.712 22.7353C31.712 22.6953 31.6865 22.6656 31.6201 22.6656C31.6017 22.6651 31.5832 22.6667 31.5651 22.6704V22.8002H31.5654Z" fill="#2B388F"/>
<path fill-rule="evenodd" clip-rule="evenodd" d="M15.8279 5.97339C13.1675 5.97339 11.0107 8.27241 11.0107 11.1084C11.0107 13.9444 13.1675 16.2434 15.8279 16.2434C18.4884 16.2434 20.6452 13.9444 20.6452 11.1084C20.6452 8.27241 18.4884 5.97339 15.8279 5.97339" fill="#509D30"/>
<path fill-rule="evenodd" clip-rule="evenodd" d="M14.1513 12.7498C12.7423 14.7462 12.2839 14.502 12.2839 14.502C14.9141 11.3898 15.8198 6.08785 15.828 6.16377C15.8198 6.08821 16.7419 11.3898 19.3721 14.502C19.3721 14.502 18.9076 14.7514 17.5048 12.7498C16.6996 11.6003 14.9895 11.5614 14.1513 12.7498V12.7498Z" fill="white"/>
</svg>
