<svg width="32" height="32" viewBox="0 0 32 32" fill="none" xmlns="http://www.w3.org/2000/svg">
<path d="M15.9994 27.1184C9.87967 27.1184 4.8815 22.1213 4.8815 16C4.8815 9.87868 9.87848 4.91969 15.9994 4.91969C22.1203 4.91969 27.0792 9.91798 27.0792 16C27.0792 22.1594 22.1203 27.1184 15.9994 27.1184ZM31.9988 15.9607L28.3579 12.6678L29.8295 7.98035L25.0254 6.93472L23.9801 2.13055L19.2926 3.64183L15.9613 0L12.6681 3.64183L7.98065 2.16985L6.93411 6.97283L2.13119 8.01965L3.64207 12.7071L0 16.0381L3.64207 19.3322L2.16929 24.0196L6.9734 25.0653L8.01875 29.8694L12.7062 28.3582L16.0387 32L19.3307 28.3582L24.0182 29.8301L25.0647 25.026L29.8688 23.9422L28.3567 19.2536L32 15.9607H31.9988Z" fill="#F05514"/>
<path d="M8.98789 9.0271C9.90865 8.10587 11.0018 7.3751 12.205 6.87653C13.4081 6.37795 14.6977 6.12134 16 6.12134C17.3023 6.12134 18.5918 6.37795 19.795 6.87653C20.9981 7.3751 22.0913 8.10587 23.0121 9.0271C23.933 9.94761 24.6637 11.0406 25.1621 12.2437C25.6606 13.4468 25.9172 14.7363 25.9172 16.0386C25.9172 17.3409 25.6606 18.6305 25.1621 19.8336C24.6637 21.0366 23.933 22.1297 23.0121 23.0502C22.0913 23.9716 20.998 24.7025 19.7948 25.2012C18.5915 25.6999 17.3018 25.9565 15.9994 25.9565C14.6969 25.9565 13.4072 25.6999 12.204 25.2012C11.0007 24.7025 9.90748 23.9716 8.9867 23.0502C5.11365 19.1761 5.11365 12.8619 8.9867 9.0271" fill="#F05514"/>
</svg>
