<svg width="32" height="32" viewBox="0 0 32 32" fill="none" xmlns="http://www.w3.org/2000/svg">
<path d="M32 16C32 24.8366 24.8366 32 16 32C7.16344 32 0 24.8366 0 16C0 7.16344 7.16344 0 16 0C24.8366 0 32 7.16344 32 16Z" fill="#1CF4A8"/>
<path d="M7.20605 23.4024C6.09972 21.9361 5.53444 20.1323 5.60605 18.2968C5.54777 15.5725 6.30648 12.8932 7.78445 10.604C8.43914 9.56903 9.34322 8.715 10.4138 8.12026C11.4843 7.52551 12.687 7.20909 13.9117 7.2C16.3285 7.2 18.0981 8.4256 18.6085 10.2976L20.1405 7.6088H25.7565L23.7141 19.284C23.6531 19.4587 23.6299 19.6444 23.6461 19.8288C23.6461 20.3392 23.8501 20.5776 24.3605 20.5776C24.6766 20.5648 24.9878 20.4958 25.2797 20.3736L24.5653 24.5264C23.5182 25.0037 22.3799 25.2475 21.2293 25.2408C18.6765 25.2408 16.9405 23.7768 16.9405 21.7008V21.4288C16.555 22.5683 15.8225 23.5585 14.8458 24.2605C13.869 24.9625 12.6969 25.3411 11.4941 25.3432C10.6785 25.3692 9.86781 25.2078 9.12443 24.8713C8.38104 24.5348 7.72475 24.0323 7.20605 23.4024ZM14.6605 20.0672C15.9877 20.0672 16.9069 18.9096 17.3157 16.8336C17.4983 15.9588 17.612 15.071 17.6557 14.1784C17.6557 12.8512 17.0093 12.136 15.7837 12.136C14.8309 12.136 14.0477 12.7144 13.4013 13.8376C12.869 15.0002 12.6127 16.27 12.6525 17.548C12.6557 19.1472 13.4045 20.0664 14.6645 20.0664L14.6605 20.0672Z" fill="black"/>
</svg>
