<svg width="32" height="32" viewBox="0 0 32 32" fill="none" xmlns="http://www.w3.org/2000/svg">
<path opacity="0.5" fill-rule="evenodd" clip-rule="evenodd" d="M15.5218 21.7372L16.4285 19.7532C16.2365 19.4118 16.8018 18.9745 16.9938 18.6865L17.3885 17.9825C17.8152 17.2465 20.6418 11.3798 21.0685 12.1158L29.9005 26.7825C30.1245 27.1206 30.1373 27.5569 29.9336 27.9068C29.7309 28.2588 29.3448 28.4625 28.9405 28.4358H20.0018C19.6029 28.4444 19.2338 28.231 19.0418 27.8812L15.5218 21.7372V21.7372Z" fill="#858FC6"/>
<path fill-rule="evenodd" clip-rule="evenodd" d="M21.0685 12.0732L19.6925 9.67318L16.3111 3.76385C16.1746 3.50785 15.9378 3.31798 15.6583 3.24011C15.3789 3.16118 15.0791 3.19958 14.8285 3.34785C14.6535 3.44385 14.5085 3.58891 14.4125 3.76385L1.24981 26.7718C1.02581 27.1036 1.00555 27.5334 1.19861 27.8844C1.39275 28.2364 1.76608 28.4486 2.16715 28.4358H11.0205C11.4151 28.4412 11.7799 28.2278 11.9698 27.8812L18.6365 16.2332L21.0685 12.0732V12.0732Z" fill="#123399"/>
</svg>
