<svg width="32" height="32" viewBox="0 0 32 32" fill="none" xmlns="http://www.w3.org/2000/svg">
<path d="M22.2905 0.090332C20.6764 0.122738 19.1074 0.628952 17.7786 1.54602C16.4499 2.46308 15.4201 3.75053 14.8172 5.24824C14.2144 6.74596 14.0652 8.38784 14.3881 9.9697C14.711 11.5516 15.4918 13.0036 16.6334 14.1452C17.775 15.2868 19.227 16.0676 20.8089 16.3905C22.3908 16.7135 24.0327 16.5642 25.5304 15.9614C27.0281 15.3585 28.3155 14.3287 29.2326 13C30.1497 11.6712 30.6559 10.1022 30.6883 8.48807V0.090332H22.2905Z" fill="#E2E41A"/>
<path d="M22.2906 0.090332C20.6762 0.122464 19.107 0.628532 17.778 1.54558C16.449 2.46263 15.4189 3.75018 14.816 5.24807C14.213 6.74596 14.0638 8.38806 14.3868 9.97011C14.7098 11.5521 15.4909 13.0043 16.6328 14.1459C21.3333 4.54502 26.2608 8.78728 30.6902 0.090332H22.2906Z" fill="#E8E947"/>
<path d="M27.8219 24.9429C27.7947 23.5937 27.3714 22.2822 26.6048 21.1717C25.8381 20.0611 24.7619 19.2004 23.51 18.6966C22.2581 18.1928 20.8857 18.0681 19.5635 18.3381C18.2413 18.6082 17.0276 19.2609 16.0734 20.2152C15.1193 21.1695 14.4667 22.3832 14.1969 23.7055C13.927 25.0277 14.0518 26.4001 14.5558 27.6519C15.0597 28.9038 15.9206 29.9799 17.0313 30.7464C18.1419 31.5129 19.4535 31.936 20.8027 31.963V31.963H27.8237L27.8219 24.9429Z" fill="#E34E64"/>
<path d="M27.8218 24.9429C27.7951 23.5931 27.3721 22.281 26.6053 21.1698C25.8386 20.0586 24.7621 19.1974 23.5096 18.6933C22.2572 18.1893 20.8842 18.0646 19.5615 18.3349C18.2388 18.6052 17.0247 19.2585 16.0704 20.2134C24.0967 24.1456 20.5504 28.2586 27.8218 31.9648V24.9429Z" fill="#E55F74"/>
<path d="M1.2655 23.8309C1.28824 22.7195 1.63715 21.6393 2.26886 20.7246C2.90056 19.8098 3.78719 19.101 4.81851 18.6861C5.84983 18.2712 6.98035 18.1686 8.06951 18.3911C9.15867 18.6135 10.1584 19.1512 10.9445 19.9372C11.7305 20.7233 12.2682 21.723 12.4906 22.8122C12.7131 23.9014 12.6105 25.0319 12.1956 26.0632C11.7807 27.0945 11.0719 27.9812 10.1572 28.6129C9.24244 29.2446 8.16222 29.5935 7.05081 29.6162V29.6162H1.2655V23.8309Z" fill="#00BABE"/>
<path d="M1.2655 23.8308C1.28768 22.7192 1.63616 21.6387 2.2676 20.7235C2.89905 19.8084 3.78559 19.0991 4.81697 18.6838C5.84835 18.2685 6.97906 18.1656 8.06846 18.3879C9.15786 18.6102 10.1579 19.1478 10.9441 19.9339C4.33353 23.1737 7.25511 26.5653 1.2655 29.6161V23.8308Z" fill="#19C1C4"/>
<path d="M8.02435 7.34912C8.91032 7.36702 9.77148 7.64497 10.5007 8.1484C11.23 8.65183 11.7952 9.35852 12.126 10.1806C12.4568 11.0027 12.5387 11.9039 12.3614 12.7721C12.1842 13.6404 11.7556 14.4373 11.129 15.0639C10.5024 15.6905 9.70542 16.1191 8.83718 16.2964C7.96894 16.4737 7.06774 16.3918 6.24566 16.061C5.42359 15.7301 4.71689 15.1649 4.21346 14.4357C3.71004 13.7064 3.43209 12.8453 3.41418 11.9593V11.9593V7.34912H8.02435Z" fill="#193661"/>
<path d="M8.02443 7.34905C8.91161 7.36559 9.7743 7.6429 10.5049 8.14642C11.2356 8.64994 11.8018 9.35738 12.1331 10.1806C12.4644 11.0037 12.5461 11.9062 12.3679 12.7755C12.1898 13.6447 11.7597 14.4423 11.1313 15.0688C8.54782 9.79515 5.84319 12.1256 3.41064 7.34814L8.02443 7.34905Z" fill="#304A71"/>
</svg>
