<svg width="32" height="32" viewBox="0 0 32 32" fill="none" xmlns="http://www.w3.org/2000/svg">
<g clip-path="url(#clip0)">
<path d="M32 0H0V32H32V0Z" fill="#326BE1"/>
<path d="M26.1847 18.1069C27.0547 17.5143 27.3455 16.79 27.3455 16.1315V15.8024C27.3455 15.0781 26.9097 14.4855 26.1847 14.0246C25.6048 13.6295 4.07272 0 4.07272 0V2.8971C4.07272 3.88474 4.65344 4.21396 5.4502 4.74071C6.53765 5.46498 23.358 16.0657 23.358 16.0657C23.358 16.0657 6.32093 26.7981 5.30519 27.3907C4.21772 28.0492 4.14595 28.4442 4.14595 29.3002V31.9998C4.00022 32.0656 25.1705 18.7653 26.1847 18.1069Z" fill="white"/>
<path d="M4.07272 9.67219V11.5853C4.07272 11.5853 10.6081 15.6665 11.8867 16.4318C12.9522 17.0694 13.8757 17.0057 14.9412 16.3042C15.6516 15.8578 16.2909 15.4752 16.2909 15.4752C16.2909 15.4752 6.77207 9.54466 5.77758 8.97075C4.99619 8.46056 4.07272 8.77945 4.07272 9.67219Z" fill="white"/>
</g>
<defs>
<clipPath id="clip0">
<rect width="32" height="32" fill="white"/>
</clipPath>
</defs>
</svg>
