<svg width="32" height="32" viewBox="0 0 32 32" fill="none" xmlns="http://www.w3.org/2000/svg">
<path fill-rule="evenodd" clip-rule="evenodd" d="M16.0219 23.3677C11.3238 23.3677 7.51586 19.6007 7.51586 14.9529C7.51586 10.3053 11.3238 6.53824 16.0219 6.53824C20.7187 6.53824 24.528 10.3053 24.528 14.9529C24.528 19.6007 20.7187 23.3677 16.0219 23.3677ZM16.0219 0C7.31531 0 0.26618 6.98112 0.262299 15.5955V30.9913C0.262299 31.5481 0.717749 32 1.28189 32H6.49627C7.05912 32 7.51586 31.5481 7.51586 30.9913V27.9641C7.51586 27.4073 7.9726 26.9555 8.53544 26.9555H23.5084C24.0712 26.9555 24.528 27.4073 24.528 27.9641V30.9913C24.528 31.5481 24.9834 32 25.5475 32H30.762C31.3248 32 31.7816 31.5481 31.7816 30.9913V15.5955C31.7763 6.98112 24.7272 0 16.0219 0Z" fill="#000028"/>
<path fill-rule="evenodd" clip-rule="evenodd" d="M16.0219 23.3677C11.3238 23.3677 7.51586 19.6007 7.51586 14.9529C7.51586 10.3053 11.3238 6.53824 16.0219 6.53824C20.7187 6.53824 24.528 10.3053 24.528 14.9529C24.528 19.6007 20.7187 23.3677 16.0219 23.3677ZM16.0219 0C7.31531 0 0.26618 6.98112 0.262299 15.5955V30.9913C0.262299 31.5481 0.717749 32 1.28189 32H6.49627C7.05912 32 7.51586 31.5481 7.51586 30.9913V27.9641C7.51586 27.4073 7.9726 26.9555 8.53544 26.9555H23.5084C24.0712 26.9555 24.528 27.4073 24.528 27.9641V30.9913C24.528 31.5481 24.9834 32 25.5475 32H30.762C31.3248 32 31.7816 31.5481 31.7816 30.9913V15.5955C31.7763 6.98112 24.7272 0 16.0219 0Z" fill="#000028"/>
</svg>
