<svg width="400" height="400" viewBox="0 0 400 400" fill="none" xmlns="http://www.w3.org/2000/svg">
<g clip-path="url(#clip0)">
<path d="M401.2 -4.40002H-4.60001V401.4H401.2V-4.40002Z" fill="#2F6880"/>
<path d="M-4.60001 87.3L401.2 197V-4.40002H-4.60001V87.3Z" fill="#69AEB1"/>
<path d="M401.2 196.6L-4.60001 342V401.5H401.2V196.6Z" fill="#FAB40E"/>
<path d="M246.9 297.5H159.9L139.1 352.6H97L145.8 226.9C145.8 226.9 147.4 222.8 148 221.3C154.6 204 165.1 182.5 172.6 164.1C220.1 47.1 279.8 52.5 279.8 52.5C279.8 52.5 195 68.8 258.6 224C262.4 233.3 264.4 237.7 264.4 237.7L309.6 352.7H267.7L246.9 297.5ZM233.1 261.4L203.3 181.7L173.8 261.4H233.1Z" fill="white"/>
</g>
<defs>
<clipPath id="clip0">
<rect width="400" height="400" fill="white"/>
</clipPath>
</defs>
</svg>
