<svg width="563" height="563" viewBox="0 0 563 563" fill="none" xmlns="http://www.w3.org/2000/svg">
<path d="M546.021 72H413.055C403.682 72 396.073 79.484 396.073 88.721V472.105C396.073 481.481 403.683 489.081 413.055 489.081H546.02C555.389 489.081 562.986 481.481 562.986 472.105V88.72C562.987 79.484 555.39 72 546.021 72Z" fill="#591544"/>
<path d="M348.095 133.067H214.91C214.257 133.067 213.609 133.117 212.972 133.19C212.8 133.21 212.632 133.241 212.46 133.267C211.981 133.339 211.51 133.42 211.042 133.529C210.887 133.567 210.735 133.609 210.579 133.651C210.069 133.786 209.564 133.941 209.07 134.124L208.845 134.204C208.516 134.332 208.254 134.571 207.935 134.719C207.065 135.129 206.221 135.582 205.439 136.129C205.174 136.311 204.856 136.411 204.602 136.607C204.132 136.97 203.777 137.445 203.347 137.854C203.155 138.04 202.98 138.239 202.795 138.434C202.477 138.766 202.141 139.074 201.85 139.43C201.667 139.655 201.417 139.815 201.246 140.05L201.251 140.061C199.187 142.866 197.93 146.295 197.93 150.045V295.409C198.001 295.397 198.074 295.382 198.145 295.371V472.105C198.145 481.481 205.752 489.081 215.13 489.081H348.094C357.469 489.081 365.059 481.481 365.059 472.105V150.045C365.059 140.67 357.469 133.067 348.094 133.067" fill="#7C165B"/>
<path d="M149.948 188.411H16.976C7.6 188.411 0 196.01 0 205.385V472.105C0 481.481 7.6 489.081 16.976 489.081H149.948C159.323 489.081 166.921 481.481 166.921 472.105V205.385C166.921 196.009 159.323 188.411 149.948 188.411" fill="#98156B"/>
</svg>
