<svg width="32" height="32" viewBox="0 0 32 32" fill="none" xmlns="http://www.w3.org/2000/svg">
<path fill-rule="evenodd" clip-rule="evenodd" d="M15.3563 13.4766C15.3563 10.1102 18.0389 7.37554 21.3403 7.37554C24.6409 7.37554 27.3234 10.1102 27.3234 13.4766C27.3234 16.8421 24.6409 19.5767 21.3403 19.5767C18.0398 19.5072 15.3563 16.7726 15.3563 13.4766ZM30.0059 13.4766C30.0059 8.56777 26.0855 4.57143 21.2709 4.57143C16.5257 4.57143 12.6062 8.56777 12.6062 13.4766C12.6062 18.3854 16.5257 22.3817 21.3403 22.3817C22.11 22.3788 22.8749 22.2608 23.6096 22.0315L26.2226 27.9214L28.6985 26.7291L26.0855 20.8393C28.4928 19.2265 30.0059 16.5614 30.0059 13.4766ZM5.41075 8.84846H3.29509V11.3353H0.914291V13.4437H3.29509V15.9305H5.41075V13.4437H7.79155V11.3353H5.41075V8.84846Z" fill="#FF3366"/>
</svg>
