<svg width="36" height="36" viewBox="0 0 36 36" fill="none" xmlns="http://www.w3.org/2000/svg">
<path d="M34 28.4C34 31.4933 31.4933 34 28.4 34H7.6C4.50667 34 2 31.4933 2 28.4V7.6C2 4.50667 4.50667 2 7.6 2H28.4C31.4933 2 34 4.50667 34 7.6V28.4Z" stroke="white" stroke-width="4"/>
<path d="M34 28.4C34 31.4933 31.4933 34 28.4 34H7.6C4.50667 34 2 31.4933 2 28.4V7.6C2 4.50667 4.50667 2 7.6 2H28.4C31.4933 2 34 4.50667 34 7.6V28.4Z" fill="#0166FF"/>
<path d="M19.9555 10H16.0444V26H19.9555V10Z" fill="white"/>
<path d="M26 16.0444H10V19.9555H26V16.0444Z" fill="white"/>
</svg>
