<svg width="32" height="32" viewBox="0 0 32 32" fill="none" xmlns="http://www.w3.org/2000/svg">
<path fill-rule="evenodd" clip-rule="evenodd" d="M7.04229 23.2728C0.865645 16.2909 -1.41432 9.30911 0.865645 0C8.58479 0 14.5454 4.65454 14.5454 4.65454C14.5454 4.65454 10.1958 6.98182 7.7056 11.6363H9.98551C9.98551 11.6363 5.42558 18.6182 7.04229 23.2728ZM29.1544 18.7243C34.7003 9.15413 30.4307 0 30.4307 0C30.4307 0 26.8687 2.99192e-07 21.1509 2.28572C15.4329 4.57143 12.808 11.4285 12.808 11.4285H15.1516C15.1516 11.4285 11.6363 11.4285 11.6363 20.5715C12.808 29.7143 15.1516 32 15.1516 32C15.1516 32 23.6086 28.2944 29.1544 18.7243Z" fill="#FF3333"/>
</svg>
