<svg width="32" height="32" viewBox="0 0 32 32" fill="none" xmlns="http://www.w3.org/2000/svg">
<path d="M24.0857 2.23257C22.6663 4.81534 22.2792 7.04788 23.3115 7.96717C25.591 10.0246 26.9243 12.9576 26.9243 16.0219C26.9243 22.0192 22.0642 26.8782 16.0428 26.8782H15.9567H16.0428H15.9137C15.3116 26.8782 14.7525 26.7907 14.1503 26.7031C10.0644 26.0027 6.66658 22.9384 5.54832 18.8235C5.4623 18.5171 5.46229 18.2107 5.37627 17.9042C5.24724 17.2914 5.16121 16.6347 5.16121 15.9781C5.16121 9.98084 10.0214 5.12175 16.0428 5.12175C16.4299 5.12175 16.817 5.12174 17.1611 5.16552C18.5374 5.29685 19.9137 3.54583 20.9029 0.744191C19.3115 0.218883 17.6772 0 15.9998 0C15.4406 0 14.9245 0.043781 14.4084 0.0875566C7.18269 0.787967 1.37632 6.34747 0.215051 13.4391C0.215051 13.4829 0.21504 13.4829 0.25805 13.5267C0.25805 13.4829 0.258061 13.4829 0.215051 13.4391C0.0860202 14.2709 0 15.1464 0 16.0219C0 24.8646 7.1827 32 15.9998 32C24.8599 32 31.9995 24.8208 31.9995 16.0219C32.0426 10.3748 29.0318 5.07799 24.0857 2.23257V2.23257Z" fill="url(#paint0_linear_1765_19)"/>
<defs>
<linearGradient id="paint0_linear_1765_19" x1="27.2555" y1="4.64022" x2="4.43008" y2="27.0665" gradientUnits="userSpaceOnUse">
<stop offset="0.0083705" stop-color="#FEF288"/>
<stop offset="0.1391" stop-color="#92E49C"/>
<stop offset="0.3096" stop-color="#00D1B7"/>
<stop offset="0.519" stop-color="#50AAD5"/>
<stop offset="0.7286" stop-color="#0082C8"/>
<stop offset="1" stop-color="#003662"/>
</linearGradient>
</defs>
</svg>
