<svg width="32" height="32" viewBox="0 0 32 32" fill="none" xmlns="http://www.w3.org/2000/svg">
<rect width="32" height="32" fill="white"/>
<path d="M30.2088 24.0553C31.0088 25.6553 29.4088 27.8553 27.4088 26.6553C27.4088 26.6553 19.8088 21.6553 14.2088 19.4553L10.8088 25.8553C10.6088 26.4553 9.20878 27.4553 8.00878 26.6553C-1.39122 21.2553 0.408775 10.6553 12.2088 14.2553L17.0088 5.0553C18.0088 3.4553 20.0088 3.8553 20.6088 5.0553L30.2088 24.0553ZM10.4088 18.0553C2.80878 15.8553 6.80878 21.0553 8.40878 22.0553L10.4088 18.0553ZM23.4088 19.4553L18.6088 10.4553L16.0088 15.8553C17.8088 16.4553 21.8088 18.6553 23.4088 19.4553Z" fill="black"/>
</svg>
