<svg width="32" height="32" viewBox="0 0 32 32" fill="none" xmlns="http://www.w3.org/2000/svg">
<path fill-rule="evenodd" clip-rule="evenodd" d="M16.3958 6.85714C15.9203 6.85668 15.4634 7.04142 15.1219 7.37218L0.529843 21.5314C0.277007 21.7736 0.10417 22.0873 0.0344569 22.4304C-0.0352565 22.7735 0.00147857 23.1297 0.139747 23.4514C0.280845 23.7754 0.514128 24.0507 0.810547 24.2431C1.10697 24.4354 1.45344 24.5364 1.8068 24.5333H9.7032C9.94008 24.5432 10.1765 24.505 10.3983 24.4212C10.62 24.3373 10.8225 24.2095 10.9936 24.0454C11.1648 23.8813 11.3009 23.6843 11.3939 23.4661C11.4869 23.2481 11.5348 23.0134 11.5348 22.7763C11.5348 22.5393 11.4869 22.3046 11.3939 22.0866C11.3009 21.8684 11.1648 21.6714 10.9936 21.5073C10.8225 21.3432 10.62 21.2153 10.3983 21.1315C10.1765 21.0476 9.94008 21.0095 9.7032 21.0194H6.17708L14.5916 12.8549V22.6864C14.5988 23.159 14.793 23.6095 15.1319 23.9391C15.4706 24.2687 15.9262 24.4506 16.3988 24.4449H22.8567C27.8518 24.4449 31.9143 20.483 31.9143 15.6526C31.9143 10.8221 27.864 6.85714 22.8567 6.85714C22.3841 6.85144 21.9285 7.03332 21.5898 7.36293C21.2509 7.69251 21.0567 8.14303 21.0495 8.61564C21.0567 9.08824 21.2509 9.53868 21.5898 9.86828C21.9285 10.1979 22.3841 10.3797 22.8567 10.3741C25.8586 10.3741 28.2998 12.7421 28.2998 15.6526C28.2998 18.5631 25.8708 20.9279 22.8567 20.9279H18.2061V8.61564C18.204 8.26432 18.0966 7.92177 17.8977 7.63217C17.6989 7.34257 17.4177 7.1193 17.0906 6.99123C16.8709 6.9021 16.6359 6.85656 16.3988 6.85714H16.3958Z" fill="#6D50C1"/>
</svg>
