<svg width="32" height="32" viewBox="0 0 32 32" fill="none" xmlns="http://www.w3.org/2000/svg">
<path d="M31.4588 11.7732C31.1549 10.8481 30.9347 10.179 30.6553 9.69977C30.2697 9.04261 29.7489 8.7229 29.064 8.7229C28.3635 8.7229 27.5346 9.04903 26.0343 9.64679L18.6599 13.3123L19.5283 4.75265C19.5777 2.43696 19.6005 1.37956 18.9307 0.666659C18.3065 0 17.3731 0 15.9605 0C14.5028 0 13.5399 0 12.9147 0.682582C12.2506 1.40467 12.2946 2.46023 12.3939 4.76674L13.3316 13.3116L5.88024 9.64373C4.51274 9.12192 3.60751 8.77711 2.90026 8.77711C2.21915 8.77711 1.70193 9.08212 1.31863 9.70835C1.03991 10.1665 0.838415 10.7636 0.539126 11.7019C0.0571474 13.253 -0.207192 14.1101 0.201065 14.9141C0.64163 15.7857 1.61764 16.0877 3.75613 16.7464L11.9312 18.1958L6.20392 24.6979C4.84786 26.4663 4.22813 27.2767 4.35266 28.2389C4.47073 29.1413 5.17358 29.6723 6.45122 30.6347C7.53765 31.4557 8.25518 31.999 9.03088 31.999C10.1546 31.9962 10.8046 30.9566 11.9806 29.0693L15.9663 21.4972L20.0301 29.0795C21.2496 30.9615 21.9231 32 23.0326 32C23.8098 32 24.5067 31.4545 25.5583 30.6333C26.8318 29.6705 27.5334 29.1389 27.6509 28.2397C27.7755 27.2763 27.1554 26.4679 25.7971 24.6979L20.0022 18.197L28.2427 16.7491C30.3927 16.0853 31.3755 15.7842 31.8102 14.9145C32.2081 14.1165 31.927 13.2382 31.4588 11.7732Z" fill="#D31F35"/>
</svg>
