<svg width="32" height="32" viewBox="0 0 32 32" fill="none" xmlns="http://www.w3.org/2000/svg">
<path d="M19.7647 0.446639L11.2273 4.15455L13.8378 0.146C14.545 0.0503999 15.2666 0 16.0001 0C17.2969 0 18.5573 0.15544 19.7647 0.446639ZM31.8541 18.1622L27.8455 20.7728L31.5534 12.2354C31.8446 13.4428 32 14.7032 32 16C32 16.7334 31.9496 17.455 31.8541 18.1622ZM0.07272 14.4758L5.9032 17.0081L0.36608 19.413C0.12712 18.313 0 17.1714 0 16C0 15.4858 0.02528 14.9776 0.07272 14.4758ZM12.5871 31.6339L14.9919 26.0968L17.5243 31.9273C17.0225 31.9747 16.5142 32 16.0001 32C14.8286 32 13.687 31.8729 12.5871 31.6339Z" fill="#2962FF"/>
<path d="M2.21027 13.8273L5.96414 8.06322L4.40623 5.67096C4.94388 5.07444 5.52579 4.5186 6.14712 4.0088L15.4821 8.06322L2.21027 13.8273ZM18.7806 30.3976L24.5448 17.1258L28.599 26.4608C28.0893 27.082 27.5335 27.664 26.9369 28.2017L24.5448 26.6438L18.7806 30.3976ZM24.5447 8.06322L17.8144 6.64173L25.7394 3.51611C27.0163 4.46098 28.147 5.59165 29.0918 6.8685L25.9662 14.7934L24.5447 8.06322ZM6.44649 28.9275L5.96409 26.6438L3.68039 26.1614C3.15598 25.4902 2.68439 24.7755 2.27118 24.0243L12.6944 19.9135L8.58355 30.3367C7.8323 29.9235 7.11779 29.452 6.44649 28.9275Z" fill="#F44336"/>
<path d="M16.452 23.7513L15.0429 17.021L8.37122 15.5995L21.7144 10.2908L16.452 23.7513Z" fill="#0041F2"/>
</svg>
