<svg width="32" height="32" viewBox="0 0 32 32" fill="none" xmlns="http://www.w3.org/2000/svg">
<path fill-rule="evenodd" clip-rule="evenodd" d="M2.59399 20.4869C-0.0137471 22.1474 -0.727695 25.6368 0.782535 28.3236L1.19238 29.0529C2.25274 30.9383 4.22198 32 6.25066 32C7.2973 32 8.36052 31.7171 9.32257 31.119C11.9703 29.4732 12.7088 25.9503 11.1855 23.2408L10.7791 22.5189C9.7187 20.633 7.75002 19.5708 5.72078 19.5713C4.65412 19.5713 3.57033 19.865 2.59399 20.4869Z" fill="#1FE8AA"/>
<path fill-rule="evenodd" clip-rule="evenodd" d="M11.8611 0.731639C9.07042 2.28124 8.07237 5.78549 9.63233 8.55866L21.1586 29.0523C22.2183 30.9377 24.187 31.9994 26.2157 31.9994C27.1719 31.9994 28.1409 31.7636 29.0342 31.2671C31.825 29.7175 32.8225 26.2139 31.2632 23.4402L19.7374 2.94642C18.677 1.06167 16.7085 0 14.6797 0C13.724 0 12.7545 0.235736 11.8611 0.731639Z" fill="#1FE8AA"/>
</svg>
