<svg xmlns="http://www.w3.org/2000/svg" viewBox="0 0 240 234" height="234" width="240"><path clip-rule="evenodd" fill="#000f34" fill-rule="evenodd" d="M10 10h220v214H10z"/><path d="M0 0v234h240V0H0zm10 10h220v214H10V10z" clip-rule="evenodd" fill="#cadbfe" fill-rule="evenodd"/><path d="M126.938 160.425c0 .989-.33 1.483-1.155 1.813-4.284 1.813-11.124 2.472-18.212 2.472-25.712 0-48.457-16.812-48.457-56.368 0-33.953 20.108-56.698 50.764-56.698 8.076 0 13.937.824 17.069 2.307.824.33.989.824.989 1.813v14.174c0 1.319-.66 1.319-1.154 1.154-3.956-1.978-9.817-3.132-16.74-3.132-19.283 0-32.14 14.669-32.14 39.886 0 31.151 17.637 40.381 32.14 40.381 6.594 0 10.962-.494 15.74-2.143.66-.33 1.155-.33 1.155.824v13.517zm6.397-59.785c-.659 0-.654-.33-.654-1.154v-13.59c0-.824.165-.989.824-.989h9.166v-5.109c0-6.098.989-11.343 3.296-15.793 4.12-8.406 11.377-12.197 21.266-12.197 2.967 0 5.015.165 6.663.824.825.33.99.659.99 1.483v13.186c0 .824-.33 1.154-1.154.989-1.32-.33-3.191-.494-4.51-.494-5.77 0-8.571 4.12-8.571 12.032v5.079h13.09c.825 0 1.145.165 1.145.824v13.755c0 .824-.165.989-.99 1.154h-13.245v61.573c0 .659-.165 1.109-1.154 1.109h-15.673c-.824 0-1.154-.494-1.154-1.154V100.64h-9.334z" clip-rule="evenodd" fill="#cadbfe" fill-rule="evenodd"/></svg>