<svg width="32" height="32" viewBox="0 0 32 32" fill="none" xmlns="http://www.w3.org/2000/svg">
<g clip-path="url(#clip0)">
<path d="M0.000732422 0H30.506V30.5068H0.000732422V0Z" fill="url(#paint0_radial)"/>
<path d="M0.731143 31.1043L0.000976562 30.372V0L0.747466 0.746518L1.49402 1.49304L1.47763 16.6648L1.46128 31.8365L0.731143 31.1043Z" fill="url(#paint1_linear)"/>
<path d="M1.4939 1.49316H31.9992V32H1.4939V1.49316Z" fill="url(#paint2_linear)"/>
<path d="M8.11987 24.8876V22.9959L8.4441 22.9634C10.0023 22.8073 10.7474 22.4706 11.7463 21.4717C12.9114 20.3066 13.6916 18.8463 14.9835 15.4126C15.8383 13.1406 16.547 11.7611 17.6572 10.2081C18.6261 8.85252 20.1617 7.75404 21.8812 7.18642C22.7284 6.90675 23.8809 6.70166 24.6052 6.70166H24.8832V10.4886L24.559 10.5169C23.6998 10.592 23.0034 10.8051 22.3309 11.1988C21.4365 11.7226 20.3379 13.0672 19.7202 14.3942C19.5058 14.8547 19.3875 14.8192 21.1367 14.8192H22.6737V18.6609L20.3159 18.6734L17.9581 18.6859L17.6989 19.259C17.0341 20.7284 16.2586 22.1122 15.4989 23.1847C14.0389 25.2457 12.0898 26.3662 9.36874 26.709C9.06496 26.7473 8.65964 26.7788 8.46814 26.779L8.11991 26.7794V24.8876H8.11987Z" fill="#FF0000"/>
<path d="M8.12109 24.4956V22.6039L8.44532 22.5715C10.0035 22.4152 10.7486 22.0786 11.7476 21.0797C12.9126 19.9147 13.6928 18.4543 14.9848 15.0206C15.8396 12.7485 16.5482 11.3691 17.6584 9.81596C18.6274 8.46041 20.163 7.36195 21.8825 6.79434C22.7297 6.51467 23.8821 6.30957 24.6065 6.30957H24.8845V10.0965L24.5603 10.1248C23.701 10.1998 23.0046 10.413 22.3322 10.8067C21.4378 11.3305 20.3392 12.6751 19.7215 14.0021C19.5071 14.4626 19.3888 14.4271 21.1379 14.4271H22.675V18.2689L20.3172 18.2814L17.9594 18.2938L17.7001 18.867C17.0353 20.3363 16.2598 21.7201 15.5001 22.7926C14.0401 24.8536 12.0911 25.9742 9.36996 26.317C9.06618 26.3553 8.66086 26.3868 8.46936 26.387L8.12113 26.3874V24.4956H8.12109V24.4956Z" fill="#800000"/>
<path d="M8.11572 24.6679V22.7762L8.43994 22.7437C9.9981 22.5875 10.7432 22.2509 11.7422 21.252C12.9072 20.0869 13.6874 18.6266 14.9793 15.1929C15.8341 12.9208 16.5428 11.5414 17.653 9.98834C18.6219 8.6328 20.1575 7.53431 21.877 6.9667C22.7242 6.68703 23.8766 6.48193 24.601 6.48193H24.879V10.2689L24.5548 10.2972C23.6955 10.3722 22.9991 10.5854 22.3267 10.9791C21.4323 11.5029 20.3338 12.8474 19.716 14.1745C19.5016 14.635 19.3833 14.5995 21.1325 14.5995H22.6695V18.4412L20.3117 18.4537L17.954 18.4661L17.6946 19.0393C17.0299 20.5087 16.2544 21.8924 15.4947 22.9649C14.0347 25.0259 12.0857 26.1465 9.36458 26.4893C9.06077 26.5276 8.65549 26.559 8.46396 26.5593L8.11575 26.5597V24.6679H8.11572V24.6679Z" fill="url(#paint3_linear)"/>
</g>
<defs>
<radialGradient id="paint0_radial" cx="0" cy="0" r="1" gradientUnits="userSpaceOnUse" gradientTransform="translate(9.37904 1.85562) scale(15.2527)">
<stop stop-color="white"/>
<stop offset="1" stop-color="#E7E7E7"/>
</radialGradient>
<linearGradient id="paint1_linear" x1="0.747499" y1="28.4112" x2="0.747499" y2="1.6071" gradientUnits="userSpaceOnUse">
<stop stop-color="#4E111D"/>
<stop offset="1" stop-color="#8F1A1E"/>
</linearGradient>
<linearGradient id="paint2_linear" x1="18.9511" y1="25.843" x2="14.3019" y2="6.65953" gradientUnits="userSpaceOnUse">
<stop stop-color="#7C1315"/>
<stop offset="1" stop-color="#E81C24"/>
</linearGradient>
<linearGradient id="paint3_linear" x1="8.11572" y1="16.5208" x2="24.879" y2="16.5208" gradientUnits="userSpaceOnUse">
<stop stop-color="#E5E5E5"/>
<stop offset="1" stop-color="white"/>
</linearGradient>
<clipPath id="clip0">
<rect width="32" height="32" fill="white"/>
</clipPath>
</defs>
</svg>
