<svg xmlns="http://www.w3.org/2000/svg" viewBox="0 0 52.513001 51.200002" height="51.2" width="52.513"><path fill="#001211" d="M0 0h52.513v51.2H0z"/><path d="M0 0v51.2h52.513V0H0zm2.188 2.188h48.137v46.824H2.188V2.188zm12.039 33.438c0 .172-.069.155-.24.155h-3.193c-.223 0-.283-.07-.283-.283V12.519c0-.171.069-.326.223-.326 1.725-.069 3.287-.111 5.887-.111 5.028 0 8.074 2.41 8.074 6.761 0 3.587-2.411 5.603-4.402 6.35 1.03 1.776 4.488 8.143 5.603 10.262.112.172.112.326-.128.326h-3.673c-.24 0-.352.043-.412-.069-.806-1.399-3.346-6.392-4.968-9.344h-2.471v9.258zm2.136-12.759c2.583 0 4.42-1.03 4.42-3.655 0-2.583-1.665-3.724-4.265-3.724-.918 0-1.794.043-2.3.069v7.31h2.145zm16.458 12.674c0 .171-.07.24-.223.24h-3.476c-.171 0-.24-.112-.24-.24V12.373c0-.154.043-.223.24-.223h3.475c.155 0 .224.07.224.223v7.045c1.098-.85 2.454-1.382 4.135-1.382 2.3 0 5.054 1.159 5.054 6.298V35.49c0 .223-.068.283-.24.283h-3.432c-.172 0-.24-.111-.24-.283V24.703c0-2.119-.833-3.286-2.514-3.286-1.099 0-1.974.352-2.738 1.047v13.06h-.025z" fill="#00e6d2"/></svg>