<svg width="32" height="32" viewBox="0 0 32 32" fill="none" xmlns="http://www.w3.org/2000/svg">
<path d="M26.3333 0.400024H5.66667C2.53705 0.400024 0 2.93708 0 6.06669V25.9334C0 29.063 2.53705 31.6 5.66667 31.6H26.3333C29.4629 31.6 32 29.063 32 25.9334V6.06669C32 2.93708 29.4629 0.400024 26.3333 0.400024Z" fill="#FA0F00"/>
<path d="M24.8823 23.86H21.0815C20.9163 23.8631 20.754 23.8169 20.6152 23.7273C20.4764 23.6379 20.3673 23.5092 20.3019 23.3575L16.1756 13.7096C16.1648 13.672 16.1423 13.6389 16.1112 13.6152C16.0801 13.5915 16.0423 13.5784 16.0032 13.578C15.9641 13.5775 15.926 13.5895 15.8943 13.6124C15.8627 13.6353 15.8392 13.6679 15.8275 13.7051L13.256 19.8308C13.242 19.8639 13.2365 19.9 13.2398 19.9357C13.2432 19.9716 13.2554 20.006 13.2752 20.0359C13.2951 20.0659 13.3221 20.0904 13.3539 20.1075C13.3855 20.1244 13.4209 20.1333 13.4568 20.1333H16.2833C16.3691 20.1333 16.4528 20.1585 16.5241 20.2059C16.5955 20.2531 16.6513 20.3204 16.6848 20.3992L17.9223 23.1532C17.9551 23.2304 17.9683 23.3147 17.9605 23.3983C17.9529 23.4819 17.9247 23.5621 17.8783 23.6323C17.832 23.7023 17.7691 23.7596 17.6951 23.7995C17.6212 23.8392 17.5385 23.86 17.4547 23.86H7.16454C7.08714 23.8596 7.01107 23.84 6.94309 23.8029C6.8751 23.766 6.81733 23.7128 6.77491 23.648C6.7325 23.5833 6.70677 23.5091 6.70001 23.432C6.69325 23.3548 6.70566 23.2772 6.73615 23.2061L13.2814 7.61916C13.3483 7.4542 13.4633 7.31323 13.6116 7.21467C13.7599 7.11609 13.9344 7.06452 14.1124 7.06667H17.8876C18.0656 7.06431 18.2403 7.1158 18.3885 7.21439C18.5368 7.31297 18.6519 7.45407 18.7185 7.61916L25.3092 23.2061C25.3397 23.2772 25.3521 23.3547 25.3455 23.4316C25.3388 23.5085 25.3132 23.5828 25.2709 23.6475C25.2287 23.7121 25.1711 23.7655 25.1033 23.8025C25.0355 23.8396 24.9596 23.8593 24.8823 23.86Z" fill="white"/>
</svg>
