<svg width="32" height="32" viewBox="0 0 32 32" fill="none" xmlns="http://www.w3.org/2000/svg">
<path d="M15.9777 3.26758C9.22319 3.26758 3.74805 8.96603 3.74805 15.998C3.74805 23.0299 9.22319 28.7284 15.9777 28.7284C22.7323 28.7284 28.2074 23.0299 28.2074 15.998C28.2074 8.96603 22.7323 3.26758 15.9777 3.26758ZM23.2778 15.9511L16.9572 22.2717C16.3254 22.8908 15.4761 23.2376 14.5916 23.2376C13.7071 23.2376 12.8578 22.8908 12.226 22.2717L8.67677 18.7237C8.05707 18.1032 7.70911 17.2621 7.70938 16.3852C7.70966 15.5082 8.05813 14.6673 8.67822 14.0472C9.29831 13.4271 10.1392 13.0786 11.0162 13.0783C11.8931 13.0781 12.7343 13.4261 13.3547 14.0457L14.5922 15.2818L18.6005 11.2734C18.9076 10.9661 19.2723 10.7222 19.6736 10.5558C20.075 10.3895 20.5052 10.3037 20.9397 10.3036C21.3743 10.3035 21.8045 10.3891 22.206 10.5553C22.6074 10.7215 22.9722 10.9652 23.2794 11.2725C23.5867 11.5797 23.8304 11.9445 23.9966 12.3459C24.1628 12.7474 24.2483 13.1777 24.2482 13.6121C24.2481 14.0467 24.1625 14.4769 23.9961 14.8783C23.8296 15.2797 23.5858 15.6443 23.2784 15.9514L23.2778 15.9511Z" fill="#00DD80"/>
<path d="M22.6076 11.8612C22.3788 11.6321 22.107 11.4504 21.8079 11.3264C21.5088 11.2025 21.1882 11.1387 20.8644 11.1387C20.5406 11.1387 20.22 11.2025 19.9209 11.3264C19.6218 11.4504 19.3501 11.6321 19.1212 11.8612L15.1447 15.8374L12.7557 18.2267C12.5267 18.4555 12.3449 18.7273 12.221 19.0264C12.097 19.3256 12.0332 19.6462 12.0332 19.9699C12.0332 20.2937 12.097 20.6143 12.221 20.9135C12.3449 21.2126 12.5267 21.4843 12.7557 21.7132L12.8376 21.795C13.0664 22.0241 13.3382 22.2059 13.6373 22.3298C13.9364 22.4538 14.2571 22.5176 14.5808 22.5176C14.9046 22.5176 15.2252 22.4538 15.5244 22.3298C15.8234 22.2059 16.0952 22.0241 16.3241 21.795L17.8378 20.2813L22.6893 15.4298C22.9183 15.201 23.1 14.9293 23.224 14.6301C23.3479 14.331 23.4117 14.0104 23.4117 13.6867C23.4117 13.3628 23.3479 13.0422 23.224 12.7431C23.1 12.444 22.9183 12.1723 22.6893 11.9434L22.6076 11.8612ZM14.5911 21.9087C14.2056 21.9088 13.8289 21.7947 13.5085 21.5807C13.188 21.3667 12.9381 21.0624 12.7905 20.7064C12.6429 20.3504 12.6043 19.9587 12.6794 19.5807C12.7544 19.2027 12.9399 18.8555 13.2123 18.5828C13.4847 18.3103 13.8318 18.1247 14.2098 18.0493C14.5877 17.9741 14.9795 18.0125 15.3356 18.1598C15.6917 18.3072 15.9961 18.5569 16.2102 18.8773C16.4244 19.1976 16.5389 19.5743 16.539 19.9596C16.5389 20.4763 16.3337 20.9719 15.9684 21.3373C15.6032 21.7028 15.1078 21.9083 14.5911 21.9087Z" fill="#00DD80"/>
</svg>
