<svg width="32" height="32" viewBox="0 0 32 32" fill="none" xmlns="http://www.w3.org/2000/svg">
<g clip-path="url(#clip0)">
<path d="M25.8133 16.8533L29.0133 4.90666H23.8933C22.6133 10.0267 21.12 15.5733 19.84 20.2667C18.3466 25.1733 16.2133 27.7333 13.44 27.7333C9.8133 27.7333 8.10663 24.32 8.10663 17.28C8.10663 9.81333 10.0266 6.18666 13.6533 6.18666C16.8533 6.61333 18.1333 8.74666 19.4133 11.0933L20.0533 8.53333C18.56 5.76 15.5733 4.26666 13.0133 4.26666C10.0266 4.26666 7.46663 5.33333 5.3333 7.46666C3.19997 9.81333 2.1333 12.8 2.1333 16.64C2.1333 20.6933 2.98663 23.8933 4.90663 26.0267C6.82663 28.16 9.38663 29.2267 12.8 29.2267C17.0666 29.0133 20.0533 27.3067 22.4 24.7467C24.1066 22.1867 24.7466 19.4133 25.6 16.8533H25.8133Z" fill="#093257"/>
<path d="M30.9333 22.6133C30.9333 24.7467 29.8667 25.8133 28.16 25.8133C27.3067 25.8133 26.6667 25.3867 26.0267 24.5333C25.6 25.6 24.96 26.4533 24.5333 26.88C24.7467 27.3067 24.96 27.9467 25.1733 28.16C25.6 28.8 26.4533 29.2267 27.7333 29.2267C29.0133 29.2267 30.08 28.5867 30.9333 27.3067C31.7867 26.0267 32.2133 24.5333 32.2133 22.4L30.9333 22.6133Z" fill="#093257"/>
</g>
<defs>
<clipPath id="clip0">
<rect width="32" height="32" fill="white"/>
</clipPath>
</defs>
</svg>
