<svg width="32" height="32" viewBox="0 0 32 32" fill="none" xmlns="http://www.w3.org/2000/svg">
<rect width="32" height="32" fill="#353A55"/>
<path d="M22.3747 27.3015C23.0483 27.3015 23.6942 27.034 24.1705 26.5577C24.6468 26.0814 24.9144 25.4354 24.9144 24.7619C24.9144 24.0883 24.6468 23.4423 24.1705 22.966C23.6942 22.4897 23.0483 22.2222 22.3747 22.2222H7.8985C7.7804 22.2222 7.66409 22.251 7.55972 22.3063C7.45534 22.3615 7.36608 22.4415 7.2997 22.5392C7.23333 22.6369 7.19186 22.7493 7.17893 22.8667C7.16599 22.9841 7.18198 23.1029 7.22549 23.2127L8.6858 26.8571C8.74123 26.9896 8.83483 27.1026 8.95467 27.1817C9.07452 27.2609 9.2152 27.3026 9.35882 27.3015H22.3747ZM29.4223 4.69836H0.850883C0.732784 4.69835 0.616474 4.72722 0.512099 4.78248C0.407725 4.83774 0.318457 4.9177 0.252083 5.01538C0.185709 5.11306 0.144245 5.2255 0.131309 5.34289C0.118372 5.46028 0.134357 5.57905 0.177867 5.68884L2.2985 10.946C2.37872 11.1434 2.51559 11.3127 2.69185 11.4324C2.86811 11.5522 3.07588 11.6171 3.28898 11.619H13.9937C14.1471 11.6195 14.297 11.5736 14.4238 11.4876C14.5507 11.4015 14.6486 11.2791 14.7049 11.1365L15.162 10.019C15.1901 9.94768 15.2391 9.8865 15.3025 9.84345C15.3659 9.80041 15.4409 9.7775 15.5175 9.77773H29.3588C30.7429 9.77773 31.9112 8.71106 31.962 7.32694C31.9739 6.98602 31.9171 6.64618 31.7948 6.32772C31.6725 6.00926 31.4873 5.71869 31.2503 5.47337C31.0133 5.22804 30.7293 5.03298 30.4152 4.89983C30.1011 4.76667 29.7634 4.69816 29.4223 4.69836V4.69836ZM25.9049 13.4603H4.36834C4.25132 13.4623 4.13654 13.4927 4.03383 13.5488C3.93112 13.6049 3.84355 13.6851 3.77863 13.7825C3.71371 13.8799 3.67337 13.9915 3.66108 14.1079C3.64878 14.2243 3.66489 14.3419 3.70803 14.4507L5.81596 19.7079C5.897 19.9073 6.03582 20.078 6.21458 20.1979C6.39334 20.3178 6.60388 20.3815 6.81914 20.3809H10.5017C10.6535 20.3824 10.8024 20.3384 10.9291 20.2547C11.0558 20.171 11.1546 20.0513 11.2128 19.9111L11.6572 18.7682C11.6873 18.6993 11.7371 18.6408 11.8004 18.6001C11.8637 18.5594 11.9376 18.5384 12.0128 18.5396H25.8414C27.2128 18.5396 28.381 17.473 28.4445 16.0888C28.4565 15.7479 28.3996 15.4081 28.2773 15.0896C28.1551 14.7712 27.9699 14.4806 27.7329 14.2353C27.4958 13.9899 27.2118 13.7949 26.8977 13.6617C26.5837 13.5286 26.246 13.4601 25.9049 13.4603Z" fill="#28D4D6"/>
</svg>
