<svg width="32" height="32" viewBox="0 0 32 32" fill="none" xmlns="http://www.w3.org/2000/svg">
<path d="M10.6473 18.0131C10.6473 15.0776 8.25913 12.6895 5.32365 12.6895C2.38818 12.6895 0 15.0776 0 18.0131C0 20.9486 2.38818 23.3368 5.32365 23.3368C6.50748 23.3368 7.60217 22.9482 8.48725 22.2921C8.50655 22.8721 8.98162 23.3368 9.56636 23.3368C10.1634 23.3368 10.6473 22.8528 10.6473 22.2558V18.0401C10.6473 18.0383 10.6471 18.0365 10.647 18.0347C10.6471 18.0275 10.6473 18.0203 10.6473 18.0131ZM5.32365 21.1749C3.58025 21.1749 2.16189 19.7565 2.16189 18.0131C2.16189 16.2697 3.58028 14.8513 5.32365 14.8513C7.06703 14.8513 8.48542 16.2697 8.48542 18.0131C8.48542 19.7565 7.06706 21.1749 5.32365 21.1749Z" fill="#333333"/>
<path d="M26.6723 12.6896C25.4892 12.6896 24.3952 13.0777 23.5105 13.733V9.74403C23.5105 9.14704 23.0266 8.66309 22.4296 8.66309C21.8326 8.66309 21.3486 9.14704 21.3486 9.74403C21.3486 9.74403 21.3486 18.0365 21.3486 18.0437C21.3486 20.9792 23.7368 23.3369 26.6723 23.3369C29.6078 23.3369 31.9959 20.9487 31.9959 18.0133C31.9959 15.0778 29.6078 12.6896 26.6723 12.6896ZM26.6723 21.175C24.9289 21.175 23.5105 19.7566 23.5105 18.0133C23.5105 16.2699 24.9289 14.8515 26.6723 14.8515C28.4156 14.8515 29.8341 16.2699 29.8341 18.0133C29.8341 19.7566 28.4156 21.175 26.6723 21.175Z" fill="url(#paint0_linear)"/>
<path d="M18.0791 12.7099H16.6507C16.6832 11.9341 16.9538 10.825 18.2142 10.825C18.8256 10.825 19.2952 10.341 19.2952 9.74403C19.2952 9.14704 18.8112 8.66309 18.2142 8.66309C17.1193 8.66309 16.1482 9.08823 15.4799 9.86021C14.8607 10.5755 14.5198 11.5582 14.488 12.7099H13.0526C12.4556 12.7099 11.9717 13.1938 11.9717 13.7908C11.9717 14.3878 12.4556 14.8718 13.0526 14.8718H14.4849V22.2289C14.4849 22.8259 14.9688 23.3099 15.5658 23.3099C16.1628 23.3099 16.6468 22.8259 16.6468 22.2289V14.8718H18.079C18.676 14.8718 19.16 14.3878 19.16 13.7908C19.16 13.1938 18.6761 12.7099 18.0791 12.7099Z" fill="#333333"/>
<defs>
<linearGradient id="paint0_linear" x1="31.0577" y1="21.0285" x2="19.0807" y2="12.642" gradientUnits="userSpaceOnUse">
<stop stop-color="#3695FF"/>
<stop offset="0.15" stop-color="#627DEB"/>
<stop offset="0.7217" stop-color="#DD3AB5"/>
<stop offset="1" stop-color="#FF28A6"/>
</linearGradient>
</defs>
</svg>
