<svg width="32" height="32" viewBox="0 0 32 32" fill="none" xmlns="http://www.w3.org/2000/svg">
<path fill-rule="evenodd" clip-rule="evenodd" d="M15.5752 4.74573C8.04248 4.74573 1.33097 9.74912 -0.566376 16.1898H2.16637C3.75221 11.3898 9.1469 7.18641 15.5752 7.18641C23.3911 7.18641 30.131 12.8813 30.131 21.7491C30.131 23.7423 29.8619 25.5322 29.3522 27.1186H32L32.0283 27.0373C32.4673 25.3966 32.6796 23.6203 32.6796 21.7491C32.6796 11.8644 25.1611 4.74573 15.5752 4.74573Z" fill="#4F4CEE"/>
<path fill-rule="evenodd" clip-rule="evenodd" d="M15.1909 12.4745C12.7659 12.4745 9.95464 13.5793 8.43096 14.7251L9.82587 17.5076C11.0491 16.4437 13.0234 15.5435 14.8046 15.5435C16.5 15.5435 17.4228 16.0754 17.4228 17.1598C17.4228 17.8964 16.8004 18.2646 15.6416 18.4079C11.2637 18.9398 7.83008 20.0856 7.83008 23.2978C7.83008 25.8348 9.74003 27.3897 12.7015 27.3897C14.8261 27.3897 16.7146 26.2644 17.6159 24.7913V26.9805H21.5646V17.7941C21.5646 14.009 18.7962 12.4745 15.1909 12.4745ZM13.7102 24.4435C12.5942 24.4435 12.0363 23.932 12.0363 23.0727C12.0363 21.4768 13.9033 20.9449 17.3155 20.5971C17.3369 22.7249 15.8133 24.4435 13.7102 24.4435V24.4435Z" fill="black"/>
</svg>
