<svg xmlns="http://www.w3.org/2000/svg" fill="none" viewBox="0 0 800 800"><path fill="#042739" fill-rule="evenodd" d="M643.9 681h-.2c-15 5.4-30.7 8.2-46.6 8.1H1.8L416.8 28l300.8 454v1a140.2 140.2 0 01-7.5 147 138.8 138.8 0 01-66.2 51z" clip-rule="evenodd"/><path fill="#0AFF91" d="M691 550.4a95 95 0 01-62.2 89.3 92.3 92.3 0 01-31.6 5.5h-247a40 40 0 01-40-39.7c0-5 1-10 3-14.7l6.6-10.5 32.9-52.4h153.5v-.3a28.4 28.4 0 0024-28.3c0-4.2-1-8.4-2.7-12.3v-.2l-.3-.5c-1-1.9-2.2-3.7-3.6-5.4l-52.3-79.3a57.3 57.3 0 01-.8-61.9l48.5-77.5a.2.2 0 01.1 0h.1l154.3 233.1v.2l2.9 4.3a95.6 95.6 0 0114.4 50.6h.1zM467 183a60.2 60.2 0 01.6 65.1l-47.6 76-201.1 321.1H82L349.7 218 418 109l49 74z"/></svg>
