<svg width="32" height="32" viewBox="0 0 32 32" fill="none" xmlns="http://www.w3.org/2000/svg">
<path d="M22.2094 11.6459L16.6963 14.8297C16.4848 14.9518 16.245 15.016 16.0007 15.016C15.7566 15.016 15.5167 14.9518 15.3053 14.8297L9.79217 11.6459C9.73948 11.6153 9.69573 11.5715 9.66532 11.5187C9.63492 11.4659 9.61891 11.406 9.61891 11.3451C9.61891 11.2841 9.63492 11.2243 9.66532 11.1715C9.69573 11.1187 9.73948 11.0749 9.79217 11.0443L15.3053 7.8613C15.5167 7.7392 15.7566 7.67493 16.0007 7.67493C16.245 7.67493 16.4848 7.7392 16.6963 7.8613L22.2094 11.0443C22.2621 11.0749 22.3058 11.1187 22.3363 11.1715C22.3666 11.2243 22.3826 11.2841 22.3826 11.3451C22.3826 11.406 22.3666 11.4659 22.3363 11.5187C22.3058 11.5715 22.2621 11.6153 22.2094 11.6459Z" fill="#22DD9A"/>
<path d="M14.9574 17.8423V23.9239C14.9575 23.985 14.9415 24.0451 14.911 24.0979C14.8805 24.1509 14.8366 24.1949 14.7837 24.2254C14.7309 24.256 14.6708 24.2722 14.6098 24.2722C14.5486 24.2722 14.4887 24.2561 14.4358 24.2255L9.04529 21.1131C8.83441 20.9913 8.65917 20.8163 8.53712 20.6056C8.41506 20.3949 8.35045 20.1559 8.34975 19.9124V13.8264C8.34965 13.7654 8.36566 13.7053 8.39614 13.6524C8.42663 13.5994 8.47052 13.5555 8.52341 13.5249C8.57629 13.4943 8.63629 13.4781 8.69739 13.4781C8.75848 13.4781 8.8185 13.4942 8.87141 13.5248L14.2618 16.6373C14.4734 16.7593 14.649 16.935 14.7711 17.1466C14.8933 17.3581 14.9575 17.5981 14.9574 17.8423Z" fill="#22DD9A"/>
<path d="M23.6517 13.8264V19.9124C23.6518 20.1567 23.5875 20.3966 23.4655 20.6081C23.3434 20.8197 23.1677 20.9953 22.9562 21.1174L17.5657 24.2299C17.5128 24.2605 17.4528 24.2766 17.3917 24.2766C17.3307 24.2765 17.2706 24.2604 17.2178 24.2298C17.1649 24.1993 17.1209 24.1552 17.0905 24.1023C17.06 24.0493 17.0439 23.9893 17.0441 23.9282V17.8423C17.0439 17.5981 17.1082 17.3581 17.2304 17.1466C17.3525 16.935 17.528 16.7593 17.7396 16.6373L23.13 13.5248C23.183 13.4942 23.243 13.4781 23.3041 13.4781C23.3652 13.4781 23.4252 13.4943 23.4781 13.5249C23.531 13.5555 23.5748 13.5994 23.6054 13.6524C23.6358 13.7053 23.6518 13.7654 23.6517 13.8264Z" fill="#22DD9A"/>
<path fill-rule="evenodd" clip-rule="evenodd" d="M21.912 5.76002C16.2564 2.49488 9.02486 4.43256 5.75968 10.088C4.29324 12.6279 3.87625 15.4803 4.3731 18.154C4.58366 19.287 3.83585 20.3761 2.70283 20.5866C1.5698 20.7972 0.480632 20.0494 0.270081 18.9164C-0.401575 15.3021 0.163439 11.4343 2.14553 8.00134C6.56312 0.349932 16.347 -2.27163 23.9986 2.14591C31.6501 6.56345 34.2716 16.3473 29.8541 23.9986C25.4365 31.65 15.6526 34.2717 8.00103 29.8541C7.003 29.2779 6.66106 28.0017 7.23727 27.0038C7.81347 26.0058 9.08964 25.6638 10.0876 26.24C15.7431 29.5051 22.9747 27.5675 26.24 21.912C29.5051 16.2567 27.5674 9.02515 21.912 5.76002Z" fill="#22DD9A"/>
</svg>
