<svg width="32" height="32" viewBox="0 0 32 32" fill="none" xmlns="http://www.w3.org/2000/svg">
<path d="M26.2835 6.44347C27.0352 6.44347 27.6442 7.05144 27.6442 7.80312C27.6442 8.55573 27.0352 9.1637 26.2835 9.1637C25.5318 9.1637 24.9229 8.55573 24.9229 7.80312C24.9229 7.05144 25.5318 6.44347 26.2835 6.44347ZM31.364 13.0345C31.2904 12.5674 31.0792 12.1749 30.7496 11.8417C30.3742 11.4673 30.0006 11.0927 29.6262 10.722C29.5776 10.677 29.5632 10.6321 29.5733 10.5655C30.3608 4.30874 26.4523 1.76986 26.2826 1.6001C26.1659 1.71866 24.2522 2.8808 23.3514 5.77712C23.3477 5.78879 23.3442 5.79778 23.3414 5.80943C23.161 6.39493 23.0227 7.04427 22.949 7.75909V7.76274C22.8664 8.55571 22.8646 9.42955 22.9733 10.3895V10.3932C22.9795 10.4498 22.9867 10.5073 22.9939 10.5655C23.0038 10.6321 22.9894 10.677 22.9418 10.722L22.9283 10.7353C22.5574 11.1018 22.1893 11.4727 21.8174 11.8417C21.6638 11.9981 21.5354 12.1668 21.4349 12.3501C21.4349 12.3501 21.4339 12.3501 21.4339 12.3519C21.3198 12.5593 21.2427 12.7857 21.2032 13.0345C21.125 13.5418 21.1906 14.042 21.3379 14.5279C21.5075 15.0837 21.6979 15.6353 21.8811 16.1876C21.883 16.1983 21.892 16.21 21.9037 16.2306L21.979 16.1525L23.4294 14.7021L23.4277 15.1871H23.4269C23.4269 16.5261 23.4366 16.9186 22.6822 18.7282C22.6634 18.774 22.6437 18.8189 22.624 18.8637C22.536 19.0641 22.4371 19.2572 22.3266 19.4421C22.2773 19.5274 22.2243 19.6109 22.1694 19.6919C22.1435 19.7314 22.1174 19.7682 22.0914 19.8058C21.8398 20.1722 21.5731 20.5279 21.2706 20.8538C19.8003 22.4381 17.6989 23.4279 15.3666 23.4279C10.9139 23.4279 7.30548 19.8194 7.30548 15.3666C7.30548 10.9149 10.9139 7.30557 15.3666 7.30557C16.7595 7.30557 19.6648 7.7232 21.4222 10.7146C21.4483 10.6887 21.4744 10.6626 21.5005 10.6365C21.5005 10.6365 21.7608 10.3761 21.8766 10.2612C21.7906 9.36402 21.7906 8.4892 21.8766 7.65851V7.64867C21.9531 6.91048 22.0976 6.19019 22.3069 5.50861C22.3114 5.49147 22.3186 5.46899 22.3258 5.44567C22.4712 4.97691 22.6778 4.43805 22.9678 3.87495C20.6832 1.9845 17.1825 1.6001 15.3666 1.6001C7.76349 1.6001 1.60001 7.7645 1.60001 15.3666C1.60001 22.9698 7.76349 29.1332 15.3666 29.1332C17.4798 29.1332 19.4824 28.6573 21.2715 27.805C21.5768 27.6604 21.8766 27.505 22.1694 27.3372C22.6042 27.0892 23.0227 26.8172 23.4258 26.5253L23.4269 29.1332H29.1323L29.1296 19.8058V18.7282L29.1286 16.2469V15.3981C29.1296 15.3273 29.1323 15.2572 29.1323 15.1871H29.1286V14.6932L30.588 16.1525L30.6634 16.2306C30.6742 16.21 30.6832 16.1983 30.6859 16.1876C30.8691 15.6353 31.0595 15.0837 31.2293 14.5279C31.3774 14.042 31.4421 13.5418 31.364 13.0345Z" fill="#00BC78"/>
</svg>
