<svg width="32" height="32" viewBox="0 0 32 32" fill="none" xmlns="http://www.w3.org/2000/svg">
<g clip-path="url(#clip0_426_198)">
<path d="M30 14.0041C29.9996 17.1661 28.9287 20.2349 26.9617 22.711C24.9946 25.1871 22.2472 26.9247 19.1667 27.641L16 32L12.8333 27.641C9.75277 26.9247 7.00537 25.1871 5.03833 22.711C3.07128 20.2349 2.00041 17.1661 2 14.0041C2 13.6003 2.01694 13.2006 2.05083 12.8052C2.34939 9.31199 3.94829 6.05803 6.5313 3.68686C9.1143 1.3157 12.4933 0 16 0C19.5067 0 22.8857 1.3157 25.4687 3.68686C28.0517 6.05803 29.6506 9.31199 29.9492 12.8052C29.9831 13.2001 30 13.5997 30 14.0041Z" fill="#FFA300"/>
<path d="M21.9507 9.41L16.6666 12.4617C16.4639 12.5787 16.234 12.6403 15.9999 12.6403C15.7659 12.6403 15.5359 12.5787 15.3332 12.4617L10.0491 9.41C9.99857 9.3807 9.95664 9.33864 9.9275 9.28804C9.89835 9.23744 9.88301 9.18006 9.88301 9.12167C9.88301 9.06327 9.89835 9.0059 9.9275 8.9553C9.95664 8.90469 9.99857 8.86264 10.0491 8.83333L15.3332 5.7825C15.5359 5.66548 15.7659 5.60387 15.9999 5.60387C16.234 5.60387 16.4639 5.66548 16.6666 5.7825L21.9507 8.83333C22.0013 8.86264 22.0432 8.90469 22.0723 8.9553C22.1015 9.0059 22.1168 9.06327 22.1168 9.12167C22.1168 9.18006 22.1015 9.23744 22.0723 9.28804C22.0432 9.33864 22.0013 9.3807 21.9507 9.41Z" fill="white"/>
<path d="M15 15.3492V21.1784C15.0001 21.2369 14.9847 21.2945 14.9555 21.3452C14.9263 21.3959 14.8842 21.4381 14.8335 21.4674C14.7829 21.4967 14.7253 21.5122 14.6668 21.5122C14.6082 21.5122 14.5507 21.4968 14.5 21.4675L9.33332 18.4842C9.1312 18.3675 8.96324 18.1998 8.84625 17.9978C8.72926 17.7959 8.66733 17.5667 8.66666 17.3333V11.5C8.66657 11.4415 8.68191 11.3839 8.71113 11.3332C8.74035 11.2824 8.78242 11.2403 8.83311 11.211C8.8838 11.1817 8.94131 11.1662 8.99987 11.1662C9.05842 11.1662 9.11595 11.1816 9.16666 11.2108L14.3333 14.1942C14.5361 14.3112 14.7044 14.4796 14.8214 14.6823C14.9385 14.8851 15 15.1151 15 15.3492Z" fill="white"/>
<path d="M23.3333 11.5V17.3333C23.3334 17.5674 23.2718 17.7974 23.1548 18.0002C23.0377 18.2029 22.8694 18.3713 22.6667 18.4883L17.5 21.4717C17.4493 21.501 17.3918 21.5164 17.3332 21.5163C17.2746 21.5163 17.2171 21.5009 17.1664 21.4716C17.1158 21.4423 17.0737 21.4001 17.0445 21.3494C17.0152 21.2986 16.9999 21.2411 17 21.1825V15.3492C16.9999 15.1151 17.0615 14.8851 17.1785 14.6823C17.2956 14.4796 17.4639 14.3112 17.6667 14.1942L22.8333 11.2108C22.884 11.1816 22.9416 11.1662 23.0001 11.1662C23.0587 11.1662 23.1162 11.1817 23.1669 11.211C23.2176 11.2403 23.2596 11.2824 23.2889 11.3332C23.3181 11.3839 23.3334 11.4415 23.3333 11.5Z" fill="white"/>
</g>
<defs>
<clipPath id="clip0_426_198">
<rect width="32" height="32" fill="white"/>
</clipPath>
</defs>
</svg>
