<svg width="32" height="32" viewBox="0 0 32 32" fill="none" xmlns="http://www.w3.org/2000/svg">
<path fill-rule="evenodd" clip-rule="evenodd" d="M16 32C24.8361 32 32 24.8371 32 16C32 7.16288 24.8361 0 16 0C7.16391 0 0 7.16288 0 16C0 24.8371 7.16391 32 16 32ZM13.4519 5.856C13.3516 5.69485 13.1996 5.57217 13.0206 5.50782C12.8416 5.44347 12.646 5.44123 12.4656 5.50144C12.0459 5.64961 11.6358 5.8236 11.2378 6.0224C11.0677 6.11259 10.9319 6.25569 10.851 6.42991C10.77 6.60414 10.7485 6.79995 10.7895 6.98752L11.0644 8.37504C11.0962 8.55044 11.0804 8.73114 11.0185 8.89838C10.9566 9.06562 10.851 9.2133 10.7125 9.32608C10.2697 9.69396 9.8664 10.1066 9.50907 10.5574C9.40255 10.6976 9.25917 10.8056 9.09482 10.8696C8.93047 10.9335 8.75157 10.9509 8.57794 10.9197L7.21785 10.6445C7.03145 10.6047 6.83705 10.6285 6.66586 10.7121C6.49466 10.7956 6.35661 10.9341 6.27388 11.1053C6.07944 11.5126 5.91045 11.9316 5.76786 12.3597C5.70828 12.5425 5.71029 12.7398 5.77358 12.9214C5.83688 13.103 5.95799 13.2591 6.11848 13.3658L7.27436 14.1491C7.57103 14.3514 7.72001 14.7123 7.68405 15.0746C7.62626 15.6582 7.62884 16.2406 7.68791 16.8154C7.7093 16.992 7.68281 17.1711 7.61121 17.3341C7.53961 17.4971 7.42552 17.6379 7.28078 17.7421L6.12747 18.5293C5.96733 18.6365 5.84669 18.793 5.78387 18.9748C5.72105 19.1566 5.71949 19.3539 5.77942 19.5366C5.92455 19.9642 6.09536 20.3814 6.29057 20.7885C6.37378 20.9594 6.5122 21.0975 6.68363 21.1806C6.85506 21.2637 7.04953 21.287 7.23583 21.2467L8.59721 20.9664C8.77048 20.9346 8.94919 20.9513 9.11353 21.0146C9.27788 21.0778 9.42146 21.1852 9.52834 21.3248C9.88538 21.7728 10.2886 22.185 10.7343 22.5536C10.8733 22.6658 10.9796 22.8131 11.0421 22.9801C11.1047 23.1471 11.1212 23.3278 11.0901 23.5034L10.8204 24.8922C10.78 25.0798 10.8024 25.2754 10.884 25.4492C10.9656 25.623 11.102 25.7654 11.2724 25.8547C11.6708 26.0526 12.0814 26.2253 12.5015 26.3718C13.1103 26.5843 13.9631 25.8214 14.5937 25.257C14.7499 25.1198 14.8755 24.9516 14.9624 24.7631C15.0493 24.5746 15.0957 24.37 15.0984 24.1626V21.8342C15.0984 21.8086 15.0997 21.7843 15.1023 21.76C13.2387 21.3069 11.8542 19.5968 11.8542 17.5565V15.0912C11.8542 14.903 12.0032 14.752 12.1869 14.752H13.3402V12.3251C13.3388 12.1662 13.4006 12.0132 13.512 11.8996C13.6234 11.7859 13.7754 11.7208 13.9348 11.7184C14.2636 11.7184 14.5295 11.991 14.5295 12.3251V14.752H17.6503V12.3251C17.6503 11.991 17.9162 11.7184 18.245 11.7184C18.5738 11.7184 18.8396 11.991 18.8396 12.3251V14.752H19.9929C20.1766 14.752 20.3256 14.903 20.3256 15.0912V17.5565C20.3256 19.6608 18.8525 21.4144 16.9003 21.7997L16.9016 21.8342V24.1459C16.9016 24.576 17.0981 24.9779 17.4192 25.257C18.06 25.8163 18.9282 26.5728 19.5344 26.3578C19.9531 26.2106 20.3628 26.0365 20.7622 25.8368C20.9322 25.7468 21.068 25.604 21.1489 25.43C21.2298 25.256 21.2514 25.0603 21.2105 24.873L20.9356 23.4842C20.904 23.309 20.92 23.1285 20.9818 22.9615C21.0437 22.7945 21.1492 22.6471 21.2875 22.5344C21.7255 22.1696 22.1288 21.7587 22.4909 21.303C22.5973 21.1626 22.7406 21.0544 22.905 20.9902C23.0693 20.926 23.2483 20.9085 23.4221 20.9395L24.7822 21.2147C25.1649 21.2915 25.5553 21.1123 25.7261 20.7539C25.9206 20.3466 26.0896 19.9276 26.2321 19.4995C26.2914 19.3168 26.2893 19.1199 26.226 18.9385C26.1627 18.7571 26.0417 18.6013 25.8815 18.4947L24.7256 17.7114C24.5802 17.6077 24.4655 17.467 24.3934 17.3039C24.3213 17.1409 24.2946 16.9615 24.3159 16.7846C24.3731 16.2061 24.3719 15.6234 24.3121 15.0451C24.2907 14.8685 24.3172 14.6894 24.3888 14.5264C24.4604 14.3634 24.5745 14.2225 24.7192 14.1184L25.8725 13.3299C26.0323 13.2227 26.1527 13.0664 26.2153 12.8849C26.2778 12.7033 26.2793 12.5063 26.2193 12.3238C26.0748 11.8961 25.9041 11.4776 25.7081 11.0707C25.6251 10.9 25.4869 10.762 25.3156 10.6791C25.1444 10.5962 24.9501 10.5732 24.7642 10.6138L23.4028 10.8928C23.2295 10.9245 23.0508 10.9079 22.8865 10.8446C22.7221 10.7814 22.5785 10.674 22.4717 10.5344C22.1128 10.0849 21.7087 9.67316 21.2657 9.3056C21.1266 9.19374 21.0202 9.04671 20.9576 8.87986C20.8951 8.71301 20.8786 8.53248 20.9099 8.35712L21.1796 6.96832C21.22 6.78069 21.1976 6.58506 21.116 6.41127C21.0344 6.23748 20.898 6.09507 20.7276 6.00576C20.3287 5.80883 19.9183 5.63614 19.4985 5.48864C19.3178 5.4291 19.1222 5.4321 18.9434 5.49714C18.7646 5.56219 18.6131 5.68548 18.5134 5.84704L17.7454 7.02464C17.6477 7.17135 17.5111 7.28823 17.3509 7.36234C17.1906 7.43644 17.0129 7.46487 16.8374 7.44448C16.2708 7.38569 15.6995 7.38655 15.1331 7.44704C14.9581 7.46826 14.7806 7.44074 14.6203 7.36754C14.46 7.29433 14.3232 7.1783 14.2251 7.03232L13.4519 5.856Z" fill="#005AE0"/>
</svg>
