<svg width="32" height="32" viewBox="0 0 32 32" fill="none" xmlns="http://www.w3.org/2000/svg">
<path d="M17.5819 28.3423C17.4972 28.3423 17.4126 28.3423 17.3279 28.3423C17.0029 28.2818 16.8085 28.0351 16.6211 27.8053C15.9567 26.9906 15.2843 26.1825 14.6135 25.3732C13.6276 24.1837 12.64 22.9956 11.6545 21.8058C11.5303 21.6558 11.4883 21.652 11.3544 21.7996C11.0559 22.1286 10.7681 22.4673 10.4539 22.7818C10.2729 22.963 10.0683 23.1126 9.84475 23.2358C9.45407 23.4511 9.01525 23.3393 8.76807 22.9708C8.58544 22.6985 8.45294 22.4018 8.35107 22.0937C7.94119 20.8543 7.54013 19.6118 7.15963 18.3633C6.99813 17.8335 6.71019 17.4461 6.23963 17.1536C4.45388 16.0435 2.67707 14.919 0.897382 13.7991C0.688007 13.6674 0.483945 13.5291 0.322258 13.3368C0.0218827 12.9796 0.0884452 12.462 0.462445 12.1883C0.690195 12.0217 0.947257 11.9322 1.21363 11.8592C1.37013 11.8163 1.52963 11.785 1.68476 11.736C2.75326 11.4446 3.82257 11.1573 4.88994 10.8623C6.22207 10.4941 7.55538 10.1297 8.88944 9.76827C9.97169 9.47502 11.0528 9.17608 12.1348 8.88152C13.3121 8.56102 14.4919 8.24946 15.6694 7.92952C17.0646 7.5504 18.4637 7.18571 19.8567 6.79765C20.7397 6.55165 21.6282 6.32415 22.5129 6.0834C23.6562 5.77227 24.7987 5.45796 25.9427 5.14959C27.5091 4.7274 29.0717 4.29177 30.6386 3.87115C30.8291 3.82002 31.0261 3.81702 31.2182 3.78027C31.2465 3.78027 31.2747 3.78027 31.3029 3.78027C31.4551 3.81859 31.6192 3.80527 31.7437 3.94277C31.8539 4.06465 31.9326 4.18621 31.9165 4.35477C31.9165 4.50177 31.9166 4.64871 31.9166 4.79552C31.9276 4.91265 31.8952 5.01421 31.8265 5.11215C30.7671 6.62165 29.901 8.24896 28.9579 9.82927C28.3181 10.9012 27.685 11.9771 27.0471 13.0501C25.7928 15.1598 24.5454 17.2736 23.2888 19.3818C22.1731 21.2536 21.0651 23.13 19.9711 25.0146C19.472 25.8746 18.9481 26.7193 18.4408 27.5742C18.3507 27.726 18.2444 27.8671 18.1354 28.0059C17.9929 28.1872 17.8287 28.3326 17.5819 28.3423Z" fill="#86ADDB"/>
</svg>
