<svg width="32" height="32" viewBox="0 0 32 32" fill="none" xmlns="http://www.w3.org/2000/svg">
<path d="M17.2317 31.2941C10.6429 29.2814 5.8549 23.1961 5.8549 15.9996C5.8549 8.72581 10.7468 2.58594 17.4451 0.641853C18.1298 0.443537 17.9499 0 17.1252 0C8.2187 0 1 7.1632 1 15.9996C1 24.8368 8.2187 32 17.1253 32C17.9503 32 17.9836 31.524 17.2317 31.2941Z" fill="#008CDB"/>
<path d="M8.90866 19.7462C8.43346 15.1816 10.6667 6.04831 21.5461 5.74111C28.1772 5.55382 30.1722 8.70532 30.4181 8.51146C30.6888 8.29833 28.0112 2.427 20.2212 2.427C13.2046 2.427 7.51733 8.11517 7.51733 15.1318C7.51733 16.7522 7.82159 18.3005 8.37561 19.7255C8.60887 20.3244 8.96862 20.3265 8.90866 19.7462Z" fill="#008CDB"/>
<path d="M14.2314 10.5911C17.5319 9.15257 21.6818 9.11232 25.758 10.5349C28.4951 11.4905 30.0839 12.8539 30.2129 12.7997C30.4289 12.7062 28.6195 9.84124 25.3551 8.60352C21.402 7.10339 17.141 7.88815 14.0392 10.3201C13.6962 10.5878 13.8264 10.7681 14.2314 10.5911V10.5911Z" fill="#008CDB"/>
</svg>
