<?xml version="1.0" encoding="utf-8"?>
<!-- Generator: Adobe Illustrator 16.0.0, SVG Export Plug-In . SVG Version: 6.00 Build 0)  -->
<!DOCTYPE svg PUBLIC "-//W3C//DTD SVG 1.1//EN" "http://www.w3.org/Graphics/SVG/1.1/DTD/svg11.dtd">
<svg version="1.1" id="Layer_1" xmlns="http://www.w3.org/2000/svg" xmlns:xlink="http://www.w3.org/1999/xlink" x="0px" y="0px"
	 width="1200px" height="1200px" viewBox="0 0 1200 1200" enable-background="new 0 0 1200 1200" xml:space="preserve">
<g>
	<path fill="#6DA252" d="M392.296,826.698c-58.699-53.798-96.443-130.089-99.567-215.22H100
		c3.233,143.609,67.006,272.265,166.8,361.471L392.296,826.698z"/>
	<path fill="#6DA252" d="M599.931,99.932c-271.909,0-493.127,217.018-499.91,487.29h192.76
		c6.698-163.856,141.65-294.635,307.15-294.635c169.781,0,307.416,137.633,307.416,307.413
		c0,114.208-62.285,213.877-154.735,266.879l90.696,170.066C996.438,951.471,1100,787.826,1100,600
		C1100,323.821,876.108,99.932,599.931,99.932"/>
	<path fill="#6DA252" d="M731.105,878.093c-39.785,18.799-84.254,29.321-131.175,29.321c-71.32,0-136.971-24.285-189.125-65.041
		L285.267,988.674c85.932,69.656,195.424,111.395,314.664,111.395c79.704,0,155.051-18.656,221.918-51.822L731.105,878.093z"/>
	<rect x="907.347" y="600" fill="#6DA252" width="192.653" height="500.068"/>
</g>
</svg>
