<svg width="1245" height="1244" viewBox="0 0 1245 1244" fill="none" xmlns="http://www.w3.org/2000/svg">
<path d="M1147.76 760.29C1145.33 758.782 1142.41 758.3 1139.62 758.949C1136.84 759.597 1134.43 761.324 1132.92 763.75L1070.24 864.61C1067.77 868.723 1064.24 872.092 1060.02 874.359C1055.79 876.627 1051.03 877.709 1046.24 877.49C1037.78 877.09 1030.88 872.74 1027.32 865.56C984.86 780 785.84 374.31 760.05 321.94C733.93 268.94 681.259 235.94 622.699 235.94C564.139 235.94 511.47 268.87 485.35 321.94C459.56 374.31 260.54 780 218.08 865.56C214.52 872.74 207.619 877.09 199.159 877.49C194.369 877.709 189.609 876.627 185.384 874.359C181.159 872.092 177.625 868.723 175.159 864.61L112.48 763.73C110.936 761.38 108.536 759.726 105.79 759.121C103.045 758.515 100.171 759.007 97.7824 760.49C95.3939 761.973 93.68 764.331 93.0051 767.06C92.3302 769.79 92.7481 772.675 94.1701 775.1L156.85 875.98C161.376 883.322 167.777 889.323 175.396 893.366C183.014 897.409 191.573 899.347 200.19 898.98C216.45 898.21 230.35 889.28 237.39 875.1C279.88 789.5 478.91 383.78 504.69 331.42C527.49 285.11 571.69 257.48 622.69 257.48C673.69 257.48 717.9 285.11 740.69 331.42C766.47 383.78 965.509 789.5 1007.99 875.1C1014.99 889.28 1028.93 898.2 1045.19 898.98C1053.81 899.347 1062.37 897.409 1069.98 893.366C1077.6 889.323 1084 883.322 1088.53 875.98L1151.21 775.1C1152.71 772.677 1153.19 769.758 1152.54 766.983C1151.89 764.208 1150.18 761.801 1147.76 760.29V760.29Z" fill="url(#paint0_linear)"/>
<path d="M1239.27 817.13C1236.84 815.623 1233.91 815.142 1231.13 815.793C1228.35 816.444 1225.94 818.173 1224.43 820.6L1159.91 924.5C1134.32 965.7 1088.65 989.81 1040.77 987.42C993.44 985.06 952.249 957.3 930.609 913.17C911.459 874.17 730.88 506.51 663.31 369.5C659.576 361.912 653.793 355.521 646.613 351.052C639.434 346.583 631.146 344.215 622.689 344.215C614.233 344.215 605.946 346.583 598.767 351.052C591.587 355.521 585.803 361.912 582.069 369.5C514.499 506.5 333.92 874.14 314.77 913.17C293.12 957.3 251.939 985.06 204.609 987.42C156.729 989.81 111.06 965.7 85.4697 924.5L20.9297 820.61C20.202 819.369 19.2328 818.286 18.0801 817.425C16.9274 816.564 15.6144 815.943 14.2178 815.597C12.8211 815.252 11.3694 815.19 9.94825 815.414C8.52714 815.639 7.16561 816.145 5.94336 816.904C4.72112 817.663 3.66334 818.659 2.83204 819.833C2.00073 821.008 1.41228 822.336 1.10254 823.741C0.792808 825.146 0.767818 826.599 1.02833 828.014C1.28883 829.429 1.82933 830.777 2.61915 831.98L67.1397 935.88C96.8597 983.73 149.939 1011.73 205.659 1008.96C260.929 1006.2 308.95 973.96 334.1 922.68C353.25 883.68 533.82 516.05 601.38 379.05C603.334 375.068 606.365 371.714 610.129 369.368C613.893 367.022 618.239 365.778 622.675 365.778C627.11 365.778 631.457 367.022 635.221 369.368C638.985 371.714 642.016 375.068 643.97 379.05C711.53 516.05 892.1 883.65 911.25 922.68C936.4 973.95 984.409 1006.2 1039.69 1008.96C1095.42 1011.73 1148.49 983.74 1178.21 935.88L1242.73 831.98C1243.48 830.778 1243.98 829.44 1244.21 828.043C1244.44 826.646 1244.4 825.217 1244.08 823.838C1243.75 822.459 1243.16 821.157 1242.34 820.006C1241.52 818.855 1240.47 817.878 1239.27 817.13V817.13Z" fill="url(#paint1_linear)"/>
<path d="M1193.5 788.71C1191.07 787.203 1188.14 786.722 1185.36 787.373C1182.58 788.024 1180.17 789.753 1178.66 792.18L1114.14 896.08C1106.85 907.812 1096.56 917.381 1084.33 923.793C1072.1 930.205 1058.37 933.227 1044.58 932.545C1030.78 931.864 1017.42 927.503 1005.88 919.917C994.344 912.33 985.044 901.793 978.949 889.4C958.719 848.26 759.709 443.12 711.649 345.74C694.649 311.21 660.509 289.74 622.649 289.74C584.789 289.74 550.719 311.18 533.649 345.74C485.599 443.12 286.58 848.27 266.35 889.4C260.255 901.793 250.955 912.33 239.415 919.917C227.875 927.503 214.515 931.864 200.722 932.545C186.928 933.227 173.203 930.205 160.971 923.793C148.739 917.381 138.446 907.812 131.159 896.08L66.6397 792.18C65.912 790.939 64.9428 789.856 63.79 788.995C62.6373 788.134 61.3244 787.513 59.9277 787.167C58.5311 786.822 57.0793 786.76 55.6582 786.984C54.2371 787.209 52.8756 787.715 51.6533 788.474C50.4311 789.233 49.3733 790.229 48.542 791.403C47.7107 792.578 47.1222 793.906 46.8125 795.311C46.5028 796.716 46.4778 798.169 46.7383 799.584C46.9988 800.999 47.5403 802.347 48.3301 803.55L112.85 907.45C122.165 922.45 135.324 934.684 150.963 942.883C166.601 951.081 184.149 954.945 201.784 954.074C219.42 953.202 236.501 947.627 251.255 937.927C266.009 928.227 277.899 914.755 285.689 898.91C305.919 857.77 504.93 452.64 552.97 355.27C566.55 327.74 592.599 311.32 622.619 311.32C652.639 311.32 678.68 327.74 692.27 355.27C740.27 452.63 939.33 857.77 959.55 898.91C967.341 914.755 979.23 928.227 993.984 937.927C1008.74 947.627 1025.82 953.202 1043.46 954.074C1061.09 954.945 1078.64 951.081 1094.28 942.883C1109.91 934.684 1123.07 922.45 1132.39 907.45L1196.91 803.55C1198.42 801.129 1198.91 798.207 1198.27 795.425C1197.63 792.643 1195.92 790.228 1193.5 788.71V788.71Z" fill="url(#paint2_linear)"/>
<defs>
<linearGradient id="paint0_linear" x1="92.5102" y1="567.55" x2="1152.85" y2="567.55" gradientUnits="userSpaceOnUse">
<stop stop-color="#FF64FF"/>
<stop offset="1" stop-color="#64BEFF"/>
</linearGradient>
<linearGradient id="paint1_linear" x1="1.11747e+07" y1="1.06295e+06" x2="1.27208e+07" y2="1.06295e+06" gradientUnits="userSpaceOnUse">
<stop stop-color="#FF64FF"/>
<stop offset="1" stop-color="#64BEFF"/>
</linearGradient>
<linearGradient id="paint2_linear" x1="1.0405e+07" y1="1.02579e+06" x2="1.17319e+07" y2="1.02579e+06" gradientUnits="userSpaceOnUse">
<stop stop-color="#FF64FF"/>
<stop offset="1" stop-color="#64BEFF"/>
</linearGradient>
</defs>
</svg>
