<svg width="32" height="32" viewBox="0 0 32 32" fill="none" xmlns="http://www.w3.org/2000/svg">
<path d="M16.0606 28.3321C22.9215 28.3321 28.4834 22.8437 28.4834 16.0735C28.4834 9.30318 22.9215 3.81479 16.0606 3.81479C9.19968 3.81479 3.63782 9.30318 3.63782 16.0735C3.63782 22.8437 9.19968 28.3321 16.0606 28.3321Z" fill="url(#paint0_linear)"/>
<path d="M16.0607 31.4894C7.44653 31.4894 0.438354 24.5738 0.438354 16.0735C0.438354 7.57309 7.44653 0.657532 16.0607 0.657532C24.6749 0.657532 31.6829 7.57309 31.6829 16.0735C31.6829 24.5738 24.6749 31.4894 16.0607 31.4894ZM16.0607 0.989858C7.63228 0.989858 0.775155 7.75629 0.775155 16.0735C0.775155 24.3906 7.63217 31.1571 16.0607 31.1571C24.4892 31.1571 31.3463 24.3906 31.3463 16.0735C31.3463 7.75629 24.4892 0.989858 16.0607 0.989858Z" fill="#223BAA"/>
<path d="M23.3578 21.4186C23.3371 21.429 23.3099 21.4393 23.2906 21.4393C22.8384 21.7146 22.2514 21.952 21.7417 21.6957C21.145 21.3731 21.0297 20.6325 21.0104 20.025V13.0945C21.0104 12.791 21.0035 12.4775 20.9432 12.1738C20.7314 11.5662 20.3854 10.9967 19.8657 10.5979C18.7881 9.69605 17.2971 9.55369 15.931 9.61057C14.6994 9.60023 13.468 9.91415 12.4194 10.5407C11.6498 11.0725 10.9474 11.7844 10.7069 12.7147C10.6793 13.0566 10.7068 13.4172 10.8224 13.7495C10.9186 13.9582 11.0535 14.148 11.2361 14.3001C11.9 14.9173 13.1893 14.7748 13.5643 13.9109C13.5712 13.8636 13.6123 13.7781 13.6316 13.7401C13.6716 13.4552 13.6892 13.1514 13.545 12.8855C13.4101 12.5626 13.1313 12.3253 12.9774 12.0122C12.7656 11.6324 13.093 11.2719 13.4008 11.0725C14.0838 10.6263 14.9209 10.4364 15.7386 10.465C16.7296 10.4174 17.759 10.8352 18.3651 11.6324C18.7308 12.0692 18.8558 12.6388 18.8558 13.1894C18.8489 13.8159 18.8627 14.4329 18.8489 15.0501C17.752 15.1829 16.6554 15.3447 15.5778 15.6104C14.1442 15.9806 12.73 16.5122 11.5179 17.3666C10.9887 17.8127 10.5077 18.3255 10.2286 18.9616C10.0362 19.4836 9.97853 20.0438 10.0844 20.5943C10.2672 21.5436 11.0273 22.3317 11.9414 22.6545C13.0958 23.0816 14.3657 23.0722 15.5588 22.8445C16.8189 22.5879 17.8196 21.7241 18.6854 20.8317C18.743 20.7558 18.8299 20.7179 18.9258 20.7179C19.2339 21.6767 19.8591 22.7209 20.9462 22.9203C21.8987 23.1673 22.8994 22.8064 23.6304 22.1799C23.6579 22.1592 23.7266 22.1037 23.7556 22.0754C23.6493 21.8477 23.4955 21.6389 23.3606 21.4204L23.3578 21.4186ZM18.8554 16.5391C18.8554 17.0801 18.8554 17.6216 18.8347 18.1719C18.8347 18.1719 18.8174 18.2802 18.814 18.3802C18.8036 18.8706 18.4283 19.6052 17.928 20.1273C17.4565 20.6876 16.8505 21.0958 16.2059 21.4375C15.3208 21.874 14.2433 22.0451 13.3101 21.6369C13.1021 21.5172 12.9396 21.35 12.8554 21.2547C12.7713 21.1599 12.705 21.0937 12.646 20.9916C12.2804 20.3745 12.1554 19.5675 12.5208 18.9314C12.9537 18.2005 13.733 17.7638 14.445 17.3367C14.7914 17.1563 15.0707 16.9841 15.4406 16.8388L15.5396 16.7974L15.6244 16.7664C15.9628 16.6053 16.2552 16.5546 16.5033 16.4553C17.2632 16.2276 18.0617 16.0662 18.8506 15.9903C18.8509 16.1707 18.8509 16.3509 18.8509 16.5409L18.8554 16.5391Z" fill="#172760"/>
<path d="M23.3578 20.8869C23.3371 20.8972 23.3099 20.9076 23.2906 20.9076C22.8384 21.1828 22.2514 21.4202 21.7417 21.1639C21.145 20.8414 21.0297 20.1008 21.0104 19.4933V12.5628C21.0104 12.2592 21.0035 11.9457 20.9432 11.642C20.7314 11.0345 20.3854 10.465 19.8657 10.0662C18.7881 9.16428 17.2971 9.02193 15.931 9.07881C14.6994 9.06846 13.468 9.38238 12.4194 10.0089C11.6498 10.5407 10.9474 11.2527 10.7069 12.183C10.6793 12.5248 10.7068 12.8854 10.8224 13.2177C10.9186 13.4264 11.0535 13.6162 11.2361 13.7683C11.9 14.3856 13.1893 14.2431 13.5643 13.3791C13.5712 13.3318 13.6123 13.2463 13.6316 13.2084C13.6716 12.9234 13.6892 12.6196 13.545 12.3537C13.4101 12.0308 13.1313 11.7935 12.9774 11.4805C12.7656 11.1007 13.093 10.7401 13.4008 10.5407C14.0838 10.0946 14.9209 9.90461 15.7386 9.9332C16.7296 9.8856 17.759 10.3034 18.3651 11.1006C18.7308 11.5375 18.8558 12.107 18.8558 12.6576C18.8489 13.2842 18.8627 13.9011 18.8489 14.5184C17.752 14.6512 16.6554 14.8129 15.5778 15.0785C14.1442 15.4488 12.73 15.9804 11.5179 16.8348C10.9887 17.2809 10.5077 17.7937 10.2286 18.4299C10.0362 18.9519 9.97853 19.512 10.0844 20.0625C10.2672 21.0119 11.0273 21.7999 11.9414 22.1227C13.0958 22.5498 14.3657 22.5404 15.5588 22.3128C16.8189 22.0562 17.8196 21.1924 18.6854 20.3C18.743 20.2241 18.8299 20.1862 18.9258 20.1862C19.2339 21.145 19.8591 22.1892 20.9462 22.3886C21.8987 22.6355 22.8994 22.2747 23.6304 21.6482C23.6579 21.6275 23.7266 21.5723 23.7556 21.5437C23.6493 21.316 23.4955 21.1071 23.3606 20.8887L23.3578 20.8869ZM18.8554 16.0073C18.8554 16.5483 18.8554 17.0898 18.8347 17.6401C18.8347 17.6401 18.8174 17.7484 18.814 17.8485C18.8036 18.3389 18.4283 19.0734 17.928 19.5956C17.4565 20.1558 16.8505 20.564 16.2059 20.9058C15.3208 21.3422 14.2433 21.5133 13.3101 21.1051C13.1021 20.9855 12.9396 20.8182 12.8554 20.723C12.7713 20.6281 12.705 20.5619 12.646 20.4598C12.2804 19.8427 12.1554 19.0357 12.5208 18.3996C12.9537 17.6688 13.733 17.232 14.445 16.8049C14.7914 16.6245 15.0707 16.4524 15.4406 16.307L15.5396 16.2657L15.6244 16.2346C15.9628 16.0735 16.2552 16.0228 16.5033 15.9235C17.2632 15.6958 18.0617 15.5344 18.8506 15.4585C18.8509 15.6389 18.8509 15.8191 18.8509 16.0091L18.8554 16.0073Z" fill="#FDFEFD"/>
<defs>
<linearGradient id="paint0_linear" x1="16.0606" y1="3.81479" x2="16.0606" y2="28.3321" gradientUnits="userSpaceOnUse">
<stop stop-color="#4779F1"/>
<stop offset="1" stop-color="#223BAA"/>
</linearGradient>
</defs>
</svg>
