<svg width="32" height="32" viewBox="0 0 32 32" fill="none" xmlns="http://www.w3.org/2000/svg">
<g clip-path="url(#clip0_3250_198)">
<g clip-path="url(#clip1_3250_198)">
<path d="M28.3878 0H3.61216C1.61722 0 0 1.61722 0 3.61216V28.3878C0 30.3828 1.61722 32 3.61216 32H28.3878C30.3828 32 32 30.3828 32 28.3878V3.61216C32 1.61722 30.3828 0 28.3878 0Z" fill="#003DFF"/>
<path d="M15.7433 7.24536C10.9625 7.24536 7.06493 11.1001 6.99581 15.8655C6.92541 20.7046 10.8518 24.7148 15.6915 24.743C17.1865 24.7519 18.6259 24.3865 19.904 23.6914C20.0288 23.6236 20.048 23.4521 19.9417 23.358L19.1232 22.6322C18.9568 22.485 18.72 22.4428 18.5152 22.5298C17.623 22.9094 16.6534 23.1033 15.6537 23.0911C11.7427 23.0431 8.583 19.7894 8.64572 15.879C8.70716 12.0178 11.8675 8.89592 15.7427 8.89592H22.8409V21.5116L18.814 17.9334C18.6835 17.8175 18.4838 17.8399 18.3788 17.9794C17.7324 18.8351 16.6796 19.3676 15.5097 19.287C13.8873 19.175 12.5728 17.8687 12.4512 16.247C12.3059 14.3129 13.8387 12.6918 15.7433 12.6918C17.4656 12.6918 18.8838 14.0172 19.0316 15.7017C19.0451 15.8514 19.1123 15.9916 19.2249 16.0908L20.2739 17.0207C20.3929 17.1263 20.5817 17.0617 20.6112 16.9055C20.6867 16.501 20.7136 16.0799 20.6835 15.6473C20.5145 13.1839 18.5196 11.2025 16.055 11.0508C13.23 10.8767 10.8678 13.0866 10.7929 15.8572C10.72 18.5567 12.9318 20.8844 15.632 20.9439C16.759 20.9689 17.8041 20.6143 18.6483 20.0006L23.9104 24.6649C24.1356 24.8646 24.4921 24.7046 24.4921 24.4031V7.57752C24.4921 7.39384 24.3436 7.24536 24.16 7.24536H15.7433V7.24536Z" fill="white"/>
</g>
</g>
<defs>
<clipPath id="clip0_3250_198">
<rect width="32" height="32" fill="white"/>
</clipPath>
<clipPath id="clip1_3250_198">
<rect width="32" height="32" fill="white"/>
</clipPath>
</defs>
</svg>
