<svg width="32" height="32" viewBox="0 0 32 32" fill="none" xmlns="http://www.w3.org/2000/svg">
<path d="M29.4232 18.071C30.7865 17.9639 31.8876 18.8746 31.9925 20.2675C32.0973 21.714 31.1011 22.8926 29.7378 22.9998C28.4269 23.1069 27.2733 22.089 27.1685 20.7497C27.0636 19.3032 28.0074 18.2318 29.4232 18.071Z" fill="#86DA2F"/>
<path d="M12.8538 29.4819C12.8538 28.089 13.9025 27.0176 15.1609 27.0176C16.4193 27.0176 17.6253 28.1962 17.6253 29.5355C17.6253 30.8213 16.5766 31.9463 15.3706 31.9999C13.85 31.9999 12.8538 31.0355 12.8538 29.4819V29.4819Z" fill="#24C2FF"/>
<path d="M16.5766 13.8388C16.3669 13.9459 16.262 13.7852 16.2096 13.6245C14.2695 9.92796 14.8463 5.26711 18.2545 2.48132C19.1459 1.73129 20.8238 1.57058 21.5579 2.3206C21.8725 2.58846 21.9249 2.9099 21.9774 3.28491C22.0823 4.0885 22.2396 4.8921 22.7639 5.53497C23.3407 6.23142 24.0748 6.49929 24.9137 6.44571C25.6478 6.44571 26.3819 6.33857 26.8538 7.19574C27.116 7.67789 27.0111 9.55295 26.5916 9.92796C26.3819 10.0887 26.2246 9.98153 26.0673 9.92796C24.8613 9.4458 23.6029 9.4458 22.3444 9.66009C21.9249 9.71366 21.7152 9.60652 21.7152 9.12436C21.6628 8.32077 21.5055 7.57075 21.086 6.8743C20.2995 5.42783 18.8313 5.37425 17.8875 6.71358C17.101 7.78504 16.8912 9.07079 16.6815 10.3565C16.4717 11.4816 16.5242 12.6602 16.5766 13.8388C16.5766 13.8388 16.5242 13.8388 16.5766 13.8388V13.8388Z" fill="#FFCB12"/>
<path d="M17.8874 14.642C17.7826 14.4813 17.835 14.3205 17.9923 14.2134C20.9811 11.4276 25.438 10.8919 28.8987 13.6241C29.7901 14.3741 30.3669 15.9277 29.895 16.8385C29.6853 17.2135 29.4231 17.3742 29.1085 17.4814C28.3744 17.8028 27.6927 18.1242 27.2208 18.8207C26.7489 19.5171 26.644 20.3207 26.8538 21.1779C27.0111 21.8743 27.2733 22.6244 26.5916 23.2672C26.2246 23.6422 24.4418 23.9637 23.9699 23.6422C23.7601 23.4815 23.8126 23.3208 23.865 23.1065C24.0223 21.7672 23.7077 20.535 23.2358 19.3564C23.0785 18.9278 23.1309 18.7135 23.5504 18.6064C24.2845 18.3921 24.9661 18.0171 25.4905 17.4814C26.644 16.3563 26.3819 14.9098 24.8613 14.267C23.6553 13.7312 22.3968 13.8384 21.1908 13.9455C20.0373 13.9991 18.9361 14.3205 17.8874 14.642Z" fill="#86DA2F"/>
<path d="M17.2058 16.035C17.3631 15.8743 17.468 15.9279 17.6253 16.035C21.086 18.1779 22.8687 22.4102 21.2957 26.5353C20.8762 27.6068 19.5129 28.6782 18.5167 28.4104C18.0972 28.3032 17.8875 28.0889 17.6777 27.8211C17.2058 27.1782 16.6815 26.5889 15.8949 26.321C15.056 26.0532 14.3219 26.2139 13.5878 26.6425C12.9586 27.0175 12.3294 27.4996 11.5429 27.0175C11.0709 26.7496 10.2844 25.0889 10.4417 24.5531C10.5466 24.3388 10.7563 24.3388 10.9661 24.3388C12.2769 24.1245 13.3256 23.4817 14.3219 22.6245C14.6365 22.3566 14.8987 22.3566 15.1608 22.7316C15.5803 23.3745 16.1047 23.9103 16.7863 24.2853C18.1496 25.0889 19.4605 24.3924 19.6178 22.7852C19.7751 21.4459 19.3032 20.2673 18.8837 19.0887C18.4118 18.0172 17.835 16.9993 17.2058 16.035V16.035Z" fill="#24C2FF"/>
<path d="M15.5279 16.3563C15.3181 17.4278 14.8462 18.4457 14.217 19.3564C12.3294 22.2494 9.60277 23.428 6.24695 23.1065C5.04095 22.9994 4.04469 21.9815 3.93982 20.9636C3.88738 20.535 3.99225 20.2136 4.25443 19.8921C4.62147 19.41 4.93608 18.9814 5.09338 18.3921C5.40799 17.2135 4.98851 16.2492 4.14956 15.392C2.99599 14.2134 3.1533 13.142 4.5166 12.2848C4.6739 12.1776 4.88364 12.0705 5.09338 11.9633C5.40799 11.8026 5.67016 11.8026 5.77503 12.1776C6.24695 13.4098 7.19077 14.3206 8.23946 15.0706C8.60651 15.392 8.60651 15.6063 8.2919 15.9813C7.66268 16.6778 7.29564 17.5349 7.2432 18.4992C7.13834 19.6778 7.81999 20.4279 8.97355 20.4279C9.70764 20.4279 10.3893 20.16 11.0185 19.8386C12.644 18.9814 13.9024 17.7492 15.1084 16.4635C15.2657 16.4099 15.3181 16.3028 15.5279 16.3563Z" fill="#0069DA"/>
<path d="M6.92861 5.1066C7.03348 5.1066 7.29565 5.16018 7.55783 5.21375C9.49791 5.58876 10.7039 4.89231 11.3331 3.01726C11.7526 1.78508 12.644 1.41007 13.7976 2.05294C13.85 2.05294 13.85 2.10652 13.9024 2.10652C15.1084 2.80297 15.1084 2.91011 14.3743 3.98157C13.7451 4.83874 13.4305 5.80305 13.2732 6.82094C13.1683 7.41024 12.9586 7.51739 12.4343 7.30309C11.5953 6.98166 10.7039 6.98166 9.81252 7.30309C8.81626 7.62453 8.39678 8.53527 8.71139 9.55316C9.13087 10.8925 10.2844 11.4818 11.2807 12.1782C12.2769 12.8747 13.4305 13.2497 14.5316 13.7318C14.6889 13.7854 14.9511 13.7854 14.8987 14.0533C14.8462 14.214 14.6365 14.214 14.4268 14.214C12.0672 14.3212 9.81252 13.9461 7.9773 12.339C6.24696 10.8925 4.98853 9.12457 5.19826 6.66022C5.35557 5.85662 5.93235 5.26732 6.92861 5.1066V5.1066Z" fill="#FF4649"/>
<path d="M2.62898 20.1601C1.37055 20.3208 0.112116 19.2494 0.00724662 17.91C-0.0976228 16.6243 0.951071 15.3385 2.15707 15.2314C3.52037 15.0707 4.7788 16.035 4.88367 17.3207C4.93611 18.5529 4.14959 20.053 2.62898 20.1601V20.1601Z" fill="#0069DA"/>
<path d="M24.6516 1.08845C25.9625 0.981302 27.2209 2.05276 27.3258 3.39208C27.4306 4.67784 26.382 5.91001 25.1235 6.01716C23.7602 6.12431 22.5542 5.10642 22.4494 3.7671C22.3445 2.42777 23.2883 1.19559 24.6516 1.08845V1.08845Z" fill="#FFCB12"/>
<path d="M10.9661 2.1061C11.1234 3.499 10.1796 4.6776 8.76387 4.89189C7.55787 5.05261 6.29943 4.03473 6.14213 2.85612C5.98483 1.30251 6.82378 0.177475 8.23952 0.0167564C9.55039 -0.143962 10.8088 0.873923 10.9661 2.1061V2.1061Z" fill="#FF4649"/>
</svg>
