<svg data-name="Layer 1" xmlns="http://www.w3.org/2000/svg" width="100" height="100" viewBox="0 0 100 100"><title>NetworkingContentDelivery</title><path fill="#fbbf93" d="M39.74 56.97L24.12 77.94l-8.18-20.93 14.92-.91 8.88.87zm20.36 0l15.78 21.09 8.02-21.03-14.76-.93-9.04.87z"/><path fill="#6b3a19" d="M39.74 42.97L24.12 21.94l-8.18 21.05 15.05.9 8.75-.92zm20.36 0l15.78-21.03 8.18 21.05-14.92.91-9.04-.93z"/><path fill="#9d5025" d="M60.1 42.97l15.78-1.17V21.94L60.1 26.02v16.95z"/><path fill="#f58536" d="M84.06 42.99l-8.18-1.19V21.94l8.18 4.09v16.96z"/><path fill="#9d5025" d="M60.1 56.97l15.78 1.23v19.86L60.1 73.92V56.97z"/><path fill="#f58536" d="M83.9 57.03l-8.02 1.17v19.86l8.02-4.01V57.03zM39.74 42.97L24.12 41.8V21.94l15.62 4.08v16.95z"/><path fill="#9d5025" d="M15.94 42.99l8.18-1.19V21.94l-8.18 4.09v16.96z"/><path fill="#f58536" d="M39.74 56.97L24.12 58.2v19.86l15.62-4.14V56.97z"/><path fill="#9d5025" d="M15.94 57.01l8.18 1.19v19.86l-8.18-4.09V57.01z"/><path fill="#fbbf93" d="M66.26 59.59L50 57.98l-16.42 1.59L50 91l16.26-31.41z"/><path fill="#6b3a19" d="M66.26 40.41L50 42.02l-16.42-1.59L50 9l16.26 31.41z"/><path fill="#f58536" d="M66.26 40.41L50 38.05V9l16.26 8.13v23.28z"/><path fill="#9d5025" d="M33.58 40.43L50 38.05V9l-16.42 8.21v23.22z"/><path fill="#f58536" d="M66.26 59.59L50 61.95V91l16.26-8.13V59.59z"/><path fill="#9d5025" d="M33.58 59.57L50 61.95V91l-16.42-8.21V59.57z"/></svg>