<svg width="32" height="32" viewBox="0 0 32 32" fill="none" xmlns="http://www.w3.org/2000/svg">
<g clip-path="url(#clip0_3311_283)">
<path d="M8.47949 5.09692L2 15.4126L8.47949 25.7299L8.59248 25.6494L8.50956 5.11811L8.47949 5.09692" fill="#876929"/>
<path d="M15.716 23.8757L8.47949 25.7299V5.09692L15.716 6.9507V23.8757Z" fill="#D9A741"/>
<path d="M29.3897 7.69329L25.9015 8.27013L17.8935 0.00341797L13.9123 1.74666L14.4375 2.72603L11.6199 3.85232V29.8991L15.7158 31.9485L15.784 31.8951L15.721 5.11994L24.4032 18.2775L29.3897 7.69329" fill="#876929"/>
<path d="M17.8936 0.00341797L28.5592 5.33598L24.3416 12.9886L17.8936 0.00341797Z" fill="#D9A741"/>
<path d="M29.3892 7.69335L29.3919 25.1052L15.7159 31.9485L15.7141 2.21655L24.3415 17.8697L29.3892 7.69335" fill="#D9A741"/>
</g>
<defs>
<clipPath id="clip0_3311_283">
<rect width="27.392" height="32" fill="white" transform="translate(2)"/>
</clipPath>
</defs>
</svg>
