<svg width="70" height="70" viewBox="0 0 70 70" fill="none" xmlns="http://www.w3.org/2000/svg">
<path fill-rule="evenodd" clip-rule="evenodd" d="M63.0313 47.9148C55.3966 53.5492 44.329 56.5451 34.7974 56.5451C21.4393 56.5451 9.41057 51.607 0.308754 43.3883C-0.405753 42.7427 0.230775 41.8614 1.09036 42.3619C10.9103 48.0762 23.0551 51.5181 35.5989 51.5181C44.0606 51.5181 53.3619 49.7627 61.9215 46.1321C63.2108 45.5826 64.2935 46.9808 63.0313 47.9148ZM66.2067 44.2878C67.1841 45.5391 65.1204 50.6912 64.1992 52.9925C63.9199 53.6889 64.5183 53.9699 65.1494 53.4422C69.2442 50.0166 70.3033 42.837 69.4655 41.7997C68.6331 40.7715 61.4735 39.8865 57.1031 42.9549C56.4303 43.4264 56.5463 44.0793 57.2917 43.9886C59.7525 43.6948 65.231 43.0365 66.2067 44.2878Z" fill="#FF9900"/>
<path fill-rule="evenodd" clip-rule="evenodd" d="M55.1535 35.0627L63.1002 14.837C63.267 14.4272 63.3522 14.1389 63.3522 13.9702C63.3522 13.6819 63.1836 13.5368 62.8463 13.5368H60.8243C60.438 13.5368 60.175 13.5984 60.0282 13.7181C59.8831 13.8396 59.7398 14.1044 59.5947 14.5142L54.7183 28.5269L49.6624 14.5142C49.5173 14.1044 49.374 13.8396 49.2289 13.7181C49.0839 13.5984 48.8191 13.5368 48.4328 13.5368H46.2657C45.9284 13.5368 45.7598 13.6819 45.7598 13.9702C45.7598 14.1389 45.8432 14.4272 46.0118 14.837L52.9828 32.0288L52.2973 33.8712C51.8875 35.0282 51.4305 35.8225 50.9245 36.256C50.4186 36.6894 49.7077 36.9052 48.7937 36.9052C48.3839 36.9052 48.0592 36.8798 47.8199 36.8326C47.5787 36.7855 47.3973 36.7601 47.2776 36.7601C46.9168 36.7601 46.7354 36.9886 46.7354 37.4456V38.385C46.7354 38.7223 46.7953 38.9689 46.9168 39.1249C47.0364 39.2808 47.2287 39.3969 47.4953 39.4676C48.0955 39.6345 48.7828 39.7215 49.5535 39.7215C50.9263 39.7215 52.0398 39.3606 52.894 38.637C53.7517 37.9171 54.5043 36.7238 55.1535 35.0627Z" fill="#232F3E"/>
<path fill-rule="evenodd" clip-rule="evenodd" d="M25.4888 18.5075C25.1388 17.3396 24.6401 16.3459 23.9891 15.528C23.3398 14.7101 22.5455 14.0826 21.6062 13.6492C20.6686 13.2158 19.6204 13 18.4634 13C17.3808 13 16.3199 13.2031 15.2862 13.613C14.2507 14.0228 13.2751 14.6249 12.3593 15.4192L12.1797 14.2622C12.1072 13.7816 11.8297 13.5404 11.3473 13.5404H9.75875C9.27818 13.5404 9.03699 13.7816 9.03699 14.2622V38.5699C9.03699 39.0523 9.27818 39.2917 9.75875 39.2917H11.8896C12.372 39.2917 12.6113 39.0505 12.6113 38.5699V30.1192C14.1764 31.5391 16.0424 32.25 18.2095 32.25C19.3883 32.25 20.46 32.0142 21.423 31.5464C22.386 31.0767 23.2038 30.4202 23.8784 29.5769C24.553 28.7355 25.0771 27.7127 25.4489 26.5067C25.8225 25.3026 26.0093 23.9534 26.0093 22.4609C26.0129 20.9938 25.837 19.6754 25.4888 18.5075ZM17.3808 29.3593C15.7414 29.3593 14.1528 28.7826 12.6132 27.6256V17.55C14.1292 16.442 15.7432 15.8889 17.4533 15.8889C20.7284 15.8889 22.366 18.1412 22.366 22.6422C22.3642 27.1215 20.703 29.3593 17.3808 29.3593Z" fill="#232F3E"/>
<path fill-rule="evenodd" clip-rule="evenodd" d="M41.7756 14.4181C40.6911 13.4806 39.0064 13.0109 36.7196 13.0109C35.588 13.0109 34.4564 13.1142 33.3248 13.3174C32.1914 13.5223 31.2411 13.7925 30.4704 14.1298C30.1821 14.2513 29.988 14.3764 29.8919 14.5088C29.7958 14.6412 29.7468 14.8769 29.7468 15.2124V16.1863C29.7468 16.6197 29.9028 16.8373 30.2165 16.8373C30.3126 16.8373 30.416 16.8192 30.5248 16.7829C30.6336 16.7466 30.7243 16.7176 30.795 16.6922C32.6502 16.1391 34.4183 15.8617 36.1049 15.8617C37.5484 15.8617 38.5603 16.1264 39.1388 16.6578C39.7173 17.1873 40.0056 18.1013 40.0056 19.4016V21.7845C38.3209 21.3746 36.803 21.1715 35.4538 21.1715C33.3357 21.1715 31.651 21.6956 30.3979 22.742C29.1466 23.7883 28.5191 25.192 28.5191 26.9492C28.5191 28.5886 29.0251 29.8925 30.037 30.8681C31.0471 31.8438 32.4199 32.3298 34.1536 32.3298C35.1891 32.3298 36.23 32.1249 37.2782 31.7168C38.3264 31.3088 39.2821 30.7285 40.1489 29.9832L40.3302 31.1746C40.4028 31.6316 40.6675 31.8601 41.1264 31.8601H42.6787C43.1593 31.8601 43.4023 31.6189 43.4023 31.1383V18.7886C43.4005 16.8137 42.8582 15.3575 41.7756 14.4181ZM40.0056 27.7834C39.2113 28.3855 38.3808 28.8425 37.5139 29.1562C36.6471 29.47 35.8165 29.6259 35.0222 29.6259C34.0828 29.6259 33.3611 29.3793 32.8551 28.886C32.3492 28.3927 32.0971 27.6891 32.0971 26.7733C32.0971 24.6788 33.4572 23.6306 36.1774 23.6306C36.803 23.6306 37.4468 23.6741 38.1087 23.7575C38.7707 23.8427 39.4036 23.957 40.0056 24.1003V27.7834Z" fill="#232F3E"/>
</svg>
