<svg width="19" height="19" viewBox="0 0 19 19" fill="none" xmlns="http://www.w3.org/2000/svg">
<path fill-rule="evenodd" clip-rule="evenodd" d="M19 13.6378C18.551 13.9796 18.0471 14.2463 17.5073 14.425C16.9818 14.4257 16.719 13.3729 16.719 11.2668C16.6875 9.62491 16.7877 7.98316 17.0188 6.35745C17.5925 5.38743 18.1057 4.38257 18.5554 3.34867C18.5123 2.92382 18.3857 2.51176 18.183 2.13631C17.9803 1.76086 17.7055 1.42946 17.3744 1.16128C17.0571 0.810914 16.6732 0.527769 16.2453 0.328494C15.8174 0.129219 15.3541 0.0178307 14.8826 0.00088501C14.5992 0.0518592 14.336 0.182623 14.1238 0.37794C13.9115 0.573256 13.7589 0.825085 13.6837 1.1041C12.8135 0.664951 11.8463 0.455449 10.8732 0.495333C9.76099 0.489661 8.6546 0.656437 7.59311 0.989773C6.34994 1.44375 5.20963 2.14242 4.23909 3.04478C1.41559 5.53204 0.00382768 8.93197 0.00382768 13.2446C-0.024114 13.9952 0.101157 14.7436 0.37194 15.4438C0.642723 16.1441 1.05329 16.7813 1.57842 17.3164C2.13176 17.878 2.79604 18.3171 3.52854 18.6056C4.26104 18.894 5.04556 19.0254 5.83167 18.9913C7.30907 19.0659 8.77561 18.7017 10.0479 17.9443C11.089 17.2553 11.9605 16.338 12.5967 15.2614C13.0469 17.621 13.9338 18.8008 15.2573 18.8008C16.2973 18.785 17.3209 18.5384 18.2547 18.0787C18.5078 17.959 18.7564 17.8301 19 17.6924V13.6378ZM6.04651 8.78773C6.43254 7.7688 7.01591 6.83677 7.76295 6.04554V6.05056C9.17028 4.52724 11.0193 3.48691 13.0483 3.07687C12.5086 5.47386 12.2566 7.9271 12.2979 10.3842C12.1112 11.1073 11.8211 11.7995 11.4367 12.4392C11.0802 13.1512 10.5418 13.7554 9.87652 14.1901C9.21124 14.6248 8.44292 14.8744 7.65007 14.9134C6.226 14.9134 5.51396 13.9362 5.51396 11.9819C5.47948 10.8923 5.66048 9.80666 6.04651 8.78773Z" fill="#339DC7"/>
</svg>
