<svg width="32" height="32" viewBox="0 0 32 32" fill="none" xmlns="http://www.w3.org/2000/svg"> <g clip-path="url(#clip0_3311_268)"> <mask id="mask0_3311_268" style="mask-type:alpha" maskUnits="userSpaceOnUse" x="0" y="0" width="32" height="32"> <rect width="32" height="32" fill="#D9D9D9"/> </mask> <g mask="url(#mask0_3311_268)"> <path d="M15.2799 10.0238C15.6695 11.2076 16.0937 12.6745 16.5436 14.3851C14.8389 14.3585 13.1135 14.3397 11.4434 14.32L10.5979 14.3101C11.5539 10.5743 12.7189 7.74006 13.5712 7.07023C13.6255 7.0357 13.7103 6.99427 13.8031 6.99427C13.9145 6.99427 14.0162 7.05543 14.1049 7.17282C14.3259 7.51908 14.7106 8.29348 15.2799 10.0238ZM32 16C32 24.8361 24.837 32 16 32C7.16296 32 0 24.837 0 16C0 7.16296 7.16296 0 16 0C24.837 0 32 7.16296 32 16ZM27.8972 15.5837C27.8972 15.1704 27.6061 14.8251 27.2135 14.7471C27.2115 14.7462 27.2086 14.7462 27.2066 14.7452C27.2017 14.7442 27.1977 14.7432 27.1928 14.7422L27.177 14.7412C27.1356 14.7343 27.0932 14.7304 27.0498 14.7294L26.9363 14.7185C24.2382 14.5252 21.4632 14.4492 18.8589 14.3969L18.8539 14.3782C17.5863 9.62427 16.0039 4.76478 13.8692 4.76478C11.8804 4.77366 10.0869 7.96695 8.53912 14.2569C7.4451 14.2431 6.44775 14.2283 5.50761 14.2115C5.45434 14.2105 5.40601 14.2105 5.36359 14.2105C5.16333 14.2105 5.06566 14.2184 5.01634 14.2253C4.48659 14.319 4.10284 14.7817 4.10284 15.3243C4.10284 15.8777 4.51619 16.3532 5.05481 16.4301L5.06566 16.441H8.06462C7.79037 17.6948 7.54966 18.9348 7.34941 20.1305L7.26161 20.6563L7.26062 20.6819C7.26259 21.0874 7.59406 21.4178 7.99951 21.4178C8.25698 21.4178 8.4898 21.2837 8.62297 21.0745L8.64468 21.0913L10.0978 16.4419H17.096C17.6307 18.4623 18.1851 20.5478 18.9181 22.506C19.3097 23.5526 20.2271 26.0041 21.7611 26.0169H21.7759C24.1199 26.0169 25.0334 22.2307 25.6381 19.725C25.7683 19.1854 25.8808 18.7198 25.9863 18.3784L26.0287 18.2374C26.0485 18.1723 26.0504 18.0983 26.0277 18.0233C25.9893 17.897 25.8808 17.8004 25.7515 17.7767C25.5671 17.7422 25.4013 17.8477 25.3421 18.0056H25.3411L25.2908 18.1456C25.0916 18.6961 24.9081 19.217 24.7453 19.6786L24.7335 19.7132C23.7193 22.5859 23.2557 23.8979 22.3491 23.8979H22.354L22.3412 23.8999L22.3185 23.8989C21.1387 23.8989 20.0279 19.1025 19.6096 17.2972C19.5376 16.9845 19.4705 16.6975 19.4093 16.4449C19.4093 16.4449 27.0271 16.4449 27.0389 16.4449C27.1819 16.4449 27.3171 16.4094 27.4355 16.3472C27.4365 16.3472 27.4365 16.3463 27.4375 16.3463C27.4493 16.3403 27.4611 16.3334 27.473 16.3265C27.4858 16.3186 27.4986 16.3117 27.5105 16.3038C27.5164 16.2999 27.5223 16.296 27.5282 16.292C27.547 16.2792 27.5647 16.2664 27.5815 16.2516C27.5825 16.2506 27.5835 16.2496 27.5854 16.2486C27.7748 16.0868 27.8972 15.8481 27.8972 15.5837ZM48.2654 19.9756L49.5389 23.1245H53.188L46.1927 6.73876H42.9343L35.9154 23.1245H39.5881L40.8617 19.9756H48.2654ZM46.981 16.8908H42.1471L44.5404 10.9324L46.981 16.8908ZM68.9216 11.3033C67.1233 11.3033 65.973 11.8054 64.7507 12.93C63.8402 11.8774 62.5449 11.3033 61.0829 11.3033C59.7403 11.3033 58.9728 11.686 58.2537 12.3559V11.686H54.9765V23.1245H58.3178V15.6113C58.9876 14.7018 59.7058 14.319 60.3509 14.319C61.9303 14.319 62.8152 15.3006 62.8152 17.1187V23.1245H66.0924V16.8306C66.0924 16.3995 66.045 15.9931 65.9967 15.5867C66.6902 14.6298 67.4557 14.318 68.1502 14.318C69.7049 14.318 70.5908 15.2996 70.5908 17.1177V23.1235H73.9321V16.8306C73.9321 13.4805 71.7263 11.3033 68.9216 11.3033ZM82.92 11.4473C81.6218 11.4473 80.5406 11.7817 79.6508 12.3549V11.686H76.3095V28.6499H79.6508V22.4616C80.5406 23.0347 81.6218 23.3691 82.92 23.3691C86.0936 23.3691 88.6407 20.7411 88.6407 17.4196C88.6417 14.0517 86.0936 11.4473 82.92 11.4473ZM82.3548 20.5537C81.3732 20.5537 80.3926 20.2183 79.6508 19.2377V15.5768C80.3926 14.5716 81.3732 14.2371 82.3548 14.2371C84.0772 14.2371 85.3222 15.7208 85.3222 17.4196C85.3222 19.0937 84.0782 20.5537 82.3548 20.5537ZM93.7873 6.16068H90.446V23.1245H93.7873V6.16068ZM98.7622 9.54634C99.8631 9.54634 100.748 8.73247 100.748 7.63253C100.748 6.50792 99.8621 5.67039 98.7622 5.67039C97.6376 5.67039 96.7527 6.50792 96.7527 7.63253C96.7517 8.73247 97.6376 9.54634 98.7622 9.54634ZM97.1286 11.686V23.1245H100.47V11.686H97.1286ZM112.177 20.161C111.523 20.3287 110.845 20.4718 110.215 20.4718C108.98 20.4718 108.181 19.874 108.181 18.5817V14.5133H112.294V11.686H108.117V7.57334H104.84V11.686H102.398V14.5133H104.84V18.6053C104.84 21.5727 106.68 23.5349 109.488 23.5349C110.578 23.5349 111.208 23.4392 112.612 23.0081L112.177 20.161ZM125.851 11.686H122.51V19.0562C121.749 19.9894 120.845 20.4915 120.012 20.4915C118.466 20.4915 117.562 19.51 117.562 17.6918V11.686H114.221V18.0036C114.221 21.33 116.227 23.5072 119.237 23.5072C120.527 23.5072 121.578 23.0761 122.509 22.3343V23.1235H125.85V11.686H125.851ZM139.988 6.16068H136.647V12.349C135.757 11.7758 134.676 11.4414 133.377 11.4414C130.204 11.4414 127.632 14.0694 127.632 17.391C127.632 20.7599 130.204 23.3642 133.377 23.3642C134.676 23.3642 135.757 23.0298 136.647 22.4566V23.1255H139.988V6.16068ZM133.943 20.5774C132.196 20.5774 130.975 19.0937 130.975 17.3949C130.975 15.7198 132.196 14.2598 133.943 14.2598C134.924 14.2598 135.905 14.5952 136.647 15.5758V19.2367C135.905 20.2419 134.924 20.5774 133.943 20.5774ZM153.6 17.1562C153.6 13.59 151.142 11.253 147.84 11.253C144.202 11.253 141.72 13.8317 141.72 17.3979C141.72 20.8437 144.226 23.5181 147.937 23.5181C150.66 23.5181 152.828 21.9999 153.456 19.7832H149.961C149.6 20.3613 148.949 20.6504 148.01 20.6504C146.179 20.6504 145.287 19.5899 145.022 18.2403H153.528C153.576 17.903 153.6 17.6386 153.6 17.1562ZM147.863 14.0872C149.203 14.0872 150.065 14.8764 150.256 16.3127H145.063C145.374 15.0204 146.26 14.0872 147.863 14.0872Z" fill="#1E61F0"/> </g> </g> <defs> <clipPath id="clip0_3311_268"> <rect width="32" height="32" fill="white"/> </clipPath> </defs> </svg>
