<svg width="204px" height="204px" viewBox="0 0 204 204" version="1.1" xmlns="http://www.w3.org/2000/svg" xmlns:xlink="http://www.w3.org/1999/xlink"><g stroke="none" stroke-width="1" fill="none" fill-rule="evenodd"><g><circle fill="#235FD3" cx="102" cy="102" r="102"></circle><g transform="translate(83.000000, 38.000000)" fill="#FFFFFF" fill-rule="nonzero"><path d="M88.5,51.3 L88.5,51.3 C90.8,51.3 92.6,49.5 92.6,47.2 L92.6,31.1 C92.6,28.8 90.8,27 88.5,27 L88.5,27 C86.2,27 84.4,28.8 84.4,31.1 L84.4,47.3 C84.4,49.5 86.2,51.3 88.5,51.3 Z"></path><path d="M67.5,51.3 L67.5,51.3 C69.8,51.3 71.6,49.5 71.6,47.2 L71.6,15.6 C71.6,13.3 69.8,11.5 67.5,11.5 L67.5,11.5 C65.2,11.5 63.4,13.3 63.4,15.6 L63.4,47.2 C63.4,49.5 65.2,51.3 67.5,51.3 Z"></path><path d="M46.5,51.3 L46.5,51.3 C48.8,51.3 50.6,49.5 50.6,47.2 L50.6,4.5 C50.6,2.2 48.8,0.4 46.5,0.4 L46.5,0.4 C44.2,0.4 42.4,2.2 42.4,4.5 L42.4,47.3 C42.4,49.5 44.3,51.3 46.5,51.3 Z"></path><path d="M25.5,51.3 L25.5,51.3 C27.8,51.3 29.6,49.5 29.6,47.2 L29.6,31.1 C29.6,28.8 27.8,27 25.5,27 L25.5,27 C23.2,27 21.4,28.8 21.4,31.1 L21.4,47.3 C21.4,49.5 23.3,51.3 25.5,51.3 Z"></path><path d="M4.5,51.3 L4.5,51.3 C6.8,51.3 8.6,49.5 8.6,47.2 L8.6,20.6 C8.6,18.3 6.8,16.5 4.5,16.5 L4.5,16.5 C2.2,16.5 0.4,18.3 0.4,20.6 L0.4,47.2 C0.4,49.5 2.3,51.3 4.5,51.3 Z"></path></g><g transform="translate(29.000000, 40.000000)" fill="#FFFFFF" fill-rule="nonzero"><path d="M2.6,39.7 C0.2,33.3 -0.6,26.2 0.6,19 C1.8,11.8 4.9,5.5 9.2,0.3 C11.7,6.7 12.5,13.7 11.3,21 C10.1,28.2 7,34.5 2.6,39.7 Z"></path><path d="M2.7,39.7 C5.5,33.5 9.9,27.9 15.8,23.6 C21.7,19.4 28.4,17.1 35.1,16.5 C32.4,22.8 28,28.4 22,32.6 C16.1,36.8 9.4,39.2 2.7,39.7 Z"></path></g><path d="M116.6,122.6 L122.1,119.8 L116.7,117.1 C117.7,115.5 119.4,114.4 121.5,114.4 C124.6,114.4 127.1,116.9 127.1,120 C127.1,123.1 124.6,125.6 121.5,125.6 C119.4,125.6 117.6,124.3 116.6,122.6 Z" fill="#FFFFFF" fill-rule="nonzero"></path><path d="M179.6,93.4 L195.5,93.4 C195.5,139.4 158.2,176.7 112.2,176.7 C109.5,176.7 106.9,176.6 104.3,176.3 C146.6,172.3 179.6,136.7 179.6,93.4 Z" fill="#FFFFFF" fill-rule="nonzero" opacity="0.32"></path><path d="M163.8,93.4 L179.7,93.4 C179.7,136.7 146.6,172.3 104.4,176.3 C101.7,176 99.1,175.7 96.5,175.2 C134.8,167.8 163.8,134 163.8,93.4 Z" fill="#FFFFFF" fill-rule="nonzero" opacity="0.56"></path><path d="M147.9,93.4 L163.8,93.4 C163.8,134 134.8,167.8 96.4,175.2 C93.7,174.7 91.1,174 88.5,173.3 C122.8,163 147.9,131.1 147.9,93.4 Z" fill="#FFFFFF" fill-rule="nonzero" opacity="0.8"></path><path d="M94.4,93.4 L65.9,93.4 C51.4,93.4 38.6,86 31.1,74.7 C29.8,80.7 29,87 29,93.4 L29,93.4 C29,114.9 37.1,134.5 50.5,149.2 L33.6,170.6 C43.2,174.5 53.7,176.6 64.7,176.6 C73,176.6 81,175.4 88.5,173.1 C122.9,162.9 148,131 148,93.3 L94.4,93.3 L94.4,93.4 Z M118.5,130 C112.8,130 108.2,125.4 108.2,119.7 C108.2,114 112.8,109.4 118.5,109.4 C124.2,109.4 128.8,114 128.8,119.7 C128.8,125.4 124.2,130 118.5,130 Z" fill="#FFFFFF" fill-rule="nonzero"></path></g></g></svg>