<svg width="32" height="32" viewBox="0 0 32 32" fill="none" xmlns="http://www.w3.org/2000/svg">
<path fill-rule="evenodd" clip-rule="evenodd" d="M7.38462 23.3846C3.30622 23.3846 0 20.0784 0 16C0 11.9216 3.30622 8.61536 7.38462 8.61536C11.463 8.61536 14.7692 11.9216 14.7692 16V23.3846H7.38462ZM7.38462 20.923C4.66566 20.923 2.46154 18.7189 2.46154 16C2.46154 13.281 4.66566 11.0769 7.38462 11.0769C10.1035 11.0769 12.3077 13.281 12.3077 16V20.923H7.38462Z" fill="black"/>
<path d="M7.38457 18.4615C8.74405 18.4615 9.84611 17.3595 9.84611 16C9.84611 14.6405 8.74405 13.5385 7.38457 13.5385C6.0251 13.5385 4.92303 14.6405 4.92303 16C4.92303 17.3595 6.0251 18.4615 7.38457 18.4615Z" fill="black"/>
<path fill-rule="evenodd" clip-rule="evenodd" d="M32 16C32 11.9216 28.6939 8.61536 24.6154 8.61536H17.2308V16C17.2308 20.0784 20.537 23.3846 24.6154 23.3846H32V16ZM29.5385 16C29.5385 13.281 27.3344 11.0769 24.6154 11.0769H19.6923V16C19.6923 18.7189 21.8964 20.923 24.6154 20.923H29.5385V16Z" fill="black"/>
<path d="M24.6154 18.4615C25.9749 18.4615 27.0769 17.3595 27.0769 16C27.0769 14.6405 25.9749 13.5385 24.6154 13.5385C23.2559 13.5385 22.1539 14.6405 22.1539 16C22.1539 17.3595 23.2559 18.4615 24.6154 18.4615Z" fill="black"/>
</svg>
