<svg class='sphere' viewBox="0 0 440 440" xmlns="http://www.w3.org/2000/svg"> <defs> <linearGradient id="sphereGradient" x1="25%" x2="25%" y1="0%" y2="75%"> <stop stop-color="#373734" offset="0%"></stop> <stop stop-color="#242423" offset="50%"></stop> <stop stop-color="#0D0D0C" offset="100%"></stop> </linearGradient> </defs> <path d="M361.604 361.238c-24.407 24.408-51.119 37.27-59.662 28.727-8.542-8.543 4.319-35.255 28.726-59.663 24.408-24.407 51.12-37.269 59.663-28.726 8.542 8.543-4.319 35.255-28.727 59.662z" stroke-dasharray="280.7108459472656" style=" fill: rgba(37, 36, 35, .5); fill: url(#sphereGradient); stroke-dashoffset: 0px; stroke: rgba(248, 75, 75, 0.973); transform: translateX(1.87798px) translateY(1.87798px); "></path> <path d="M360.72 360.354c-35.879 35.88-75.254 54.677-87.946 41.985-12.692-12.692 6.105-52.067 41.985-87.947 35.879-35.879 75.254-54.676 87.946-41.984 12.692 12.692-6.105 52.067-41.984 87.946z" stroke-dasharray="413.3915710449219" style=" fill: rgba(37, 36, 35, .5); fill: url(#sphereGradient); stroke-dashoffset: 0px; stroke: rgba(251, 75, 75, 0.984); transform: translateX(1.93506px) translateY(1.93506px); "></path> <path d="M357.185 356.819c-44.91 44.91-94.376 68.258-110.485 52.149-16.11-16.11 7.238-65.575 52.149-110.485 44.91-44.91 94.376-68.259 110.485-52.15 16.11 16.11-7.239 65.576-52.149 110.486z" stroke-dasharray="518.68896484375" style=" fill: rgba(37, 36, 35, .5); fill: url(#sphereGradient); stroke-dashoffset: 0px; stroke: rgba(215, 76, 76, 0.85); transform: translateX(1.29483px) translateY(1.29483px); "></path> <path d="M350.998 350.632c-53.21 53.209-111.579 81.107-130.373 62.313-18.794-18.793 9.105-77.163 62.314-130.372 53.209-53.21 111.579-81.108 130.373-62.314 18.794 18.794-9.105 77.164-62.314 130.373z" stroke-dasharray="612.89794921875" style=" fill: rgba(37, 36, 35, .5); fill: url(#sphereGradient); stroke-dashoffset: 0px; stroke: rgba(157, 78, 78, 0.635); transform: translateX(0.142824px) translateY(0.142824px); "></path> <path d="M343.043 342.677c-59.8 59.799-125.292 91.26-146.283 70.268-20.99-20.99 10.47-86.483 70.269-146.282 59.799-59.8 125.292-91.26 146.283-70.269 20.99 20.99-10.47 86.484-70.27 146.283z" stroke-dasharray="688.0798950195312" style=" fill: rgba(37, 36, 35, .5); fill: url(#sphereGradient); stroke-dashoffset: 0px; stroke: rgba(103, 79, 79, 0.435); transform: translateX(-1.20628px) translateY(-1.20628px); "></path> <path d="M334.646 334.28c-65.169 65.169-136.697 99.3-159.762 76.235-23.065-23.066 11.066-94.593 76.235-159.762s136.697-99.3 159.762-76.235c23.065 23.065-11.066 94.593-76.235 159.762z" stroke-dasharray="750.9219970703125" style=" fill: rgba(37, 36, 35, .5); fill: url(#sphereGradient); stroke-dashoffset: 0px; stroke: rgba(80, 80, 80, 0.35); transform: translateX(-2.42917px) translateY(-2.42917px); "></path> <path d="M324.923 324.557c-69.806 69.806-146.38 106.411-171.031 81.76-24.652-24.652 11.953-101.226 81.759-171.032 69.806-69.806 146.38-106.411 171.031-81.76 24.652 24.653-11.953 101.226-81.759 171.032z" stroke-dasharray="804.0526733398438" style=" fill: rgba(37, 36, 35, .5); fill: url(#sphereGradient); stroke-dashoffset: 0px; stroke: rgba(80, 80, 80, 0.35); transform: translateX(-3.3082px) translateY(-3.3082px); "></path> <path d="M312.99 312.625c-73.222 73.223-153.555 111.609-179.428 85.736-25.872-25.872 12.514-106.205 85.737-179.428s153.556-111.609 179.429-85.737c25.872 25.873-12.514 106.205-85.737 179.429z" stroke-dasharray="843.4893798828125" style=" fill: rgba(37, 36, 35, .5); fill: url(#sphereGradient); stroke-dashoffset: 0px; stroke: rgba(80, 80, 80, 0.35); transform: translateX(-3.7904px) translateY(-3.7904px); "></path> <path d="M300.175 299.808c-75.909 75.909-159.11 115.778-185.837 89.052-26.726-26.727 13.143-109.929 89.051-185.837 75.908-75.908 159.11-115.778 185.837-89.051 26.726 26.726-13.143 109.928-89.051 185.836z" stroke-dasharray="873.8906860351562" style=" fill: rgba(37, 36, 35, .5); fill: url(#sphereGradient); stroke-dashoffset: 0px; stroke: rgba(80, 80, 80, 0.35); transform: translateX(-3.96871px) translateY(-3.96871px); "></path> <path d="M284.707 284.34c-77.617 77.617-162.303 118.773-189.152 91.924-26.848-26.848 14.308-111.534 91.924-189.15C265.096 109.496 349.782 68.34 376.63 95.188c26.849 26.849-14.307 111.535-91.923 189.151z" stroke-dasharray="890.8992919921875" style=" fill: rgba(37, 36, 35, .5); fill: url(#sphereGradient); stroke-dashoffset: 0px; stroke: rgba(80, 80, 80, 0.35); transform: translateX(-3.99947px) translateY(-3.99947px); "></path> <path d="M269.239 267.989c-78.105 78.104-163.187 119.656-190.035 92.807-26.849-26.848 14.703-111.93 92.807-190.035 78.105-78.104 163.187-119.656 190.035-92.807 26.849 26.848-14.703 111.93-92.807 190.035z" stroke-dasharray="895.56787109375" style=" fill: rgba(37, 36, 35, .5); fill: url(#sphereGradient); stroke-dashoffset: 0px; stroke: rgba(80, 80, 80, 0.35); transform: translateX(-3.99978px) translateY(-3.99978px); "></path> <path d="M252.887 252.52C175.27 330.138 90.584 371.294 63.736 344.446 36.887 317.596 78.043 232.91 155.66 155.293 233.276 77.677 317.962 36.521 344.81 63.37c26.85 26.848-14.307 111.534-91.923 189.15z" stroke-dasharray="890.89892578125" style=" fill: rgba(37, 36, 35, .5); fill: url(#sphereGradient); stroke-dashoffset: 0px; stroke: rgba(80, 80, 80, 0.35); transform: translateX(-3.97647px) translateY(-3.97647px); "></path> <path d="M236.977 236.61C161.069 312.52 77.867 352.389 51.14 325.663c-26.726-26.727 13.143-109.928 89.052-185.837 75.908-75.908 159.11-115.777 185.836-89.05 26.727 26.726-13.143 109.928-89.051 185.836z" stroke-dasharray="873.8928833007812" style=" fill: rgba(37, 36, 35, .5); fill: url(#sphereGradient); stroke-dashoffset: 0px; stroke: rgba(80, 80, 80, 0.35); transform: translateX(-3.82205px) translateY(-3.82205px); "></path> <path d="M221.067 220.7C147.844 293.925 67.51 332.31 41.639 306.439c-25.873-25.873 12.513-106.206 85.736-179.429C200.6 53.786 280.931 15.4 306.804 41.272c25.872 25.873-12.514 106.206-85.737 179.429z" stroke-dasharray="843.4918823242188" style=" fill: rgba(37, 36, 35, .5); fill: url(#sphereGradient); stroke-dashoffset: 0px; stroke: rgba(80, 80, 80, 0.35); transform: translateX(-3.37961px) translateY(-3.37961px); "></path> <path d="M205.157 204.79c-69.806 69.807-146.38 106.412-171.031 81.76-24.652-24.652 11.953-101.225 81.759-171.031 69.806-69.807 146.38-106.411 171.031-81.76 24.652 24.652-11.953 101.226-81.759 171.032z" stroke-dasharray="804.0531616210938" style=" fill: rgba(37, 36, 35, .5); fill: url(#sphereGradient); stroke-dashoffset: 0px; stroke: rgba(80, 80, 80, 0.35); transform: translateX(-2.54446px) translateY(-2.54446px); "></path> <path d="M189.247 188.881c-65.169 65.169-136.696 99.3-159.762 76.235-23.065-23.065 11.066-94.593 76.235-159.762s136.697-99.3 159.762-76.235c23.065 23.065-11.066 94.593-76.235 159.762z" stroke-dasharray="750.92236328125" style=" fill: rgba(37, 36, 35, .5); fill: url(#sphereGradient); stroke-dashoffset: 0px; stroke: rgba(99, 79, 79, 0.42); transform: translateX(-1.3513px) translateY(-1.3513px); "></path> <path d="M173.337 172.971c-59.799 59.8-125.292 91.26-146.282 70.269-20.991-20.99 10.47-86.484 70.268-146.283 59.8-59.799 125.292-91.26 146.283-70.269 20.99 20.991-10.47 86.484-70.269 146.283z" stroke-dasharray="688.0772094726562" style=" fill: rgba(37, 36, 35, .5); fill: url(#sphereGradient); stroke-dashoffset: 0px; stroke: rgba(150, 78, 78, 0.61); transform: translateX(-0.00130914px) translateY(-0.00130914px); "></path> <path d="M157.427 157.061c-53.209 53.21-111.578 81.108-130.372 62.314-18.794-18.794 9.104-77.164 62.313-130.373 53.21-53.209 111.58-81.108 130.373-62.314 18.794 18.794-9.105 77.164-62.314 130.373z" stroke-dasharray="612.8980712890625" style=" fill: rgba(37, 36, 35, .5); fill: url(#sphereGradient); stroke-dashoffset: 0px; stroke: rgba(209, 76, 76, 0.83); transform: translateX(1.18883px) translateY(1.18883px); "></path> <path d="M141.517 141.151c-44.91 44.91-94.376 68.259-110.485 52.15-16.11-16.11 7.239-65.576 52.15-110.486 44.91-44.91 94.375-68.258 110.485-52.15 16.109 16.11-7.24 65.576-52.15 110.486z" stroke-dasharray="518.6905517578125" style=" fill: rgba(37, 36, 35, .5); fill: url(#sphereGradient); stroke-dashoffset: 0px; stroke: rgba(249, 75, 75, 0.976); transform: translateX(1.89726px) translateY(1.89726px); "></path> <path d="M125.608 125.241c-35.88 35.88-75.255 54.677-87.947 41.985-12.692-12.692 6.105-52.067 41.985-87.947C115.525 43.4 154.9 24.603 167.592 37.295c12.692 12.692-6.105 52.067-41.984 87.946z" stroke-dasharray="413.39117431640625" style=" fill: rgba(37, 36, 35, .5); fill: url(#sphereGradient); stroke-dashoffset: 0px; stroke: rgba(250, 75, 75, 0.984); transform: translateX(1.9195px) translateY(1.9195px); "></path> <path d="M109.698 109.332c-24.408 24.407-51.12 37.268-59.663 28.726-8.542-8.543 4.319-35.255 28.727-59.662 24.407-24.408 51.12-37.27 59.662-28.727 8.543 8.543-4.319 35.255-28.726 59.663z" stroke-dasharray="280.7107849121094" style=" fill: rgba(37, 36, 35, .5); fill: url(#sphereGradient); stroke-dashoffset: 0px; stroke: rgba(213, 76, 76, 0.843); transform: translateX(1.249px) translateY(1.249px); "></path></svg>