<svg width="32" height="32" viewBox="0 0 32 32" fill="none" xmlns="http://www.w3.org/2000/svg">
<path d="M29.5944 28.3974L26.1364 20.5419L22.2551 24.4232L24.9183 30.4619C25.3415 31.4219 26.2809 31.9897 27.2615 31.9897C27.6022 31.9897 27.9531 31.9174 28.2938 31.7729C29.5841 31.1948 30.1725 29.6877 29.5944 28.3974Z" fill="#005CB9"/>
<path d="M23.4112 14.3484L17.7648 1.52774C17.3518 0.59871 16.4331 0 15.4215 0C14.4099 0 13.4912 0.59871 13.0783 1.52774L1.24862 28.3974C0.680879 29.6877 1.26927 31.2052 2.55959 31.7729C3.84991 32.3406 5.36733 31.7523 5.93507 30.4619L15.4215 8.89806L19.5093 18.1781L23.4112 14.3484Z" fill="#005CB9"/>
<path d="M29.068 10.3639C28.0667 9.36258 26.446 9.36258 25.4447 10.3639L15.3493 20.4594L11.3751 16.4852L9.16604 21.5123L13.5428 25.889C14.0177 26.3639 14.6783 26.6426 15.3493 26.6426C16.0306 26.6426 16.6809 26.3742 17.1557 25.889L29.0577 13.9871C30.0693 12.9858 30.0693 11.3652 29.068 10.3639Z" fill="#F5333F"/>
<path d="M5.4912 18.7458L9.37249 22.6271L12.1389 16.3406L8.25766 12.4594L5.4912 18.7458Z" fill="#005CB9"/>
</svg>
