<svg width="32" height="32" viewBox="0 0 32 32" fill="none" xmlns="http://www.w3.org/2000/svg">
<path d="M1.95507 2.00422C1.92641 2.00422 1.89776 2.00422 1.86738 2.00641C1.81991 2.00768 1.79679 2.00932 1.77368 2.01132C1.72621 2.01569 1.69812 2.01906 1.67023 2.02306C1.62811 2.02961 1.60633 2.03334 1.58456 2.03753C1.53269 2.04763 1.50575 2.05336 1.4791 2.05991C1.44672 2.0681 1.42265 2.07465 1.39887 2.08147C1.35369 2.09539 1.33459 2.10158 1.31548 2.10795C1.26868 2.12415 1.24442 2.13325 1.22035 2.14289C1.17794 2.16045 1.16132 2.16755 1.1447 2.17483L1.11604 2.18766C1.09694 2.19675 1.07784 2.20585 1.05873 2.21495L1.0275 2.23133C1.01174 2.23979 0.995979 2.24825 0.980505 2.25699L0.949558 2.275L0.910873 2.29875L0.882218 2.31731C0.863115 2.32987 0.844011 2.3427 0.824908 2.3558L0.791382 2.38119L0.761007 2.40384L0.72834 2.42923L0.699685 2.45298C0.680582 2.46844 0.662338 2.48428 0.644954 2.50047L0.621457 2.52176C0.610186 2.53214 0.599106 2.54269 0.588217 2.55343L0.567872 2.57363C0.544565 2.5971 0.521928 2.62112 0.499959 2.64569C0.482479 2.66561 0.47159 2.67817 0.460988 2.691L0.445514 2.70983C0.434912 2.72294 0.424309 2.73713 0.41428 2.74914C0.386389 2.78635 0.366713 2.81365 0.3478 2.84113L0.336911 2.85723C0.32736 2.87161 0.317808 2.88617 0.308256 2.90091L0.29794 2.91783L0.289917 2.93148L4.07411 5.14578L4.87531 6.00043C4.79155 5.87373 4.78438 5.71428 4.85646 5.58123C4.92854 5.44817 5.06911 5.36135 5.22605 5.35296H18.1197C18.1653 5.35624 18.2108 5.35842 18.2572 5.35842C19.2184 5.34481 19.9908 4.60016 19.9936 3.68453C19.9964 2.76889 19.2286 2.01995 18.2676 2.00098L1.95507 2.00422Z" fill="url(#paint0_linear_2598_21)"/>
<path d="M22.7375 13.3152L16.3445 24.3257C16.2686 24.4547 16.1315 24.536 15.9812 24.5409C15.831 24.5459 15.6887 24.4739 15.6044 24.3501L11.5422 17.3553C11.5088 17.2756 11.4696 17.1985 11.4247 17.1247L4.66659 5.45884C4.27791 4.75991 4.27621 3.91174 4.66208 3.21127C5.04796 2.51081 5.76767 2.05562 6.56924 2.00506L1.98092 2.00085C1.69394 1.99226 1.40877 2.04882 1.14706 2.16624C1.10452 2.18571 1.07091 2.20218 1.03778 2.21959C0.949116 2.26854 0.928409 2.28118 0.907889 2.29428L0.808493 2.36167C0.757383 2.39995 0.741758 2.41231 0.726322 2.42485C0.686883 2.4578 0.672765 2.47015 0.658834 2.48269C0.623255 2.51499 0.605183 2.53239 0.587676 2.55008C0.553038 2.58518 0.537413 2.60184 0.522164 2.61888C0.495621 2.64836 0.478396 2.66886 0.461454 2.68964C0.430392 2.72755 0.414579 2.74833 0.399049 2.76939C0.379565 2.79578 0.363752 2.81909 0.348221 2.84267C0.321113 2.88423 0.306147 2.90838 0.291746 2.93337C-0.096377 3.5294 -0.0882764 4.25297 0.262661 4.83323L0.42898 5.12188L14.3027 29.0175C14.4389 29.2688 14.631 29.4859 14.8643 29.6524C14.9024 29.6792 14.9336 29.6999 14.9654 29.7198C15.0534 29.7702 15.0748 29.7817 15.0964 29.7928L15.2037 29.8436C15.2629 29.8685 15.2817 29.8758 15.3006 29.8829C15.349 29.9 15.3668 29.906 15.3847 29.9118C15.4307 29.9262 15.4547 29.9329 15.479 29.9393C15.5272 29.9512 15.5495 29.9564 15.5719 29.9613C15.6106 29.9694 15.6372 29.9739 15.6637 29.9781C15.7123 29.9851 15.7383 29.9888 15.7645 29.9913C15.7978 29.9941 15.8261 29.9961 15.8543 29.9978C15.9037 29.9978 15.932 30 15.9602 30C15.9992 30 16.0229 30 16.0463 29.9983C16.0966 29.9969 16.1223 29.9949 16.1488 29.9921C16.1819 29.9893 16.2101 29.9857 16.2361 29.9817C16.283 29.9744 16.307 29.9702 16.3307 29.9655C16.3677 29.9582 16.3934 29.952 16.4191 29.9458C16.4645 29.9339 16.4853 29.928 16.506 29.9217C16.5473 29.909 16.571 29.9009 16.5947 29.8925C16.6401 29.876 16.6571 29.8692 16.674 29.8621C16.7201 29.8428 16.7415 29.8332 16.7627 29.8239L16.8339 29.7883C16.8909 29.7574 16.9064 29.7487 16.9214 29.7397C17.008 29.685 17.0304 29.6698 17.0524 29.6541C17.0733 29.6391 17.0984 29.6203 17.1275 29.5976C17.1703 29.5639 17.2114 29.5285 17.2509 29.4912C17.3021 29.4427 17.3418 29.4013 17.3794 29.3581C17.4221 29.3092 17.459 29.2624 17.4938 29.2138C17.529 29.1645 17.5617 29.1136 17.592 29.061L17.9676 28.4217L18.0495 28.2813L25.7295 15.0558C26.0641 14.5242 26.082 13.8539 25.7764 13.3053C25.4708 12.7567 24.8899 12.4163 24.2592 12.4164C23.6254 12.4179 23.0417 12.7619 22.7375 13.3152Z" fill="url(#paint1_linear_2598_21)"/>
<path d="M30.1374 2H23.6784C22.7431 2.01832 21.9937 2.84716 21.9937 3.86331C21.9937 4.87946 22.7431 5.7083 23.6784 5.72662C23.7236 5.72662 23.768 5.7242 23.8123 5.72056H26.7369C26.9512 5.7525 27.1109 5.95132 27.111 6.18624C27.111 6.23951 27.1026 6.29239 27.0861 6.34258L25.5442 9.24358C25.0904 10.1472 25.397 11.2792 26.2288 11.7721C27.0607 12.265 28.1029 11.932 28.5567 11.0284L31.7465 5.02796C31.7757 4.97322 31.8026 4.91686 31.8271 4.8589L31.8302 4.85132C31.8453 4.81517 31.8594 4.77851 31.8726 4.74134L31.8748 4.73558C31.8807 4.71862 31.8865 4.70135 31.8921 4.68408L31.9005 4.65742C31.9079 4.63338 31.9149 4.60904 31.9214 4.5844C31.9253 4.57046 31.9289 4.55622 31.9326 4.54228C31.9362 4.52835 31.939 4.51532 31.942 4.50199C31.9451 4.48866 31.9496 4.46715 31.9532 4.44957C31.9557 4.43715 31.9582 4.42473 31.9605 4.41231C31.9647 4.38867 31.9686 4.36484 31.9722 4.3408C31.9737 4.33091 31.9751 4.32081 31.9764 4.31051C31.9797 4.28506 31.9828 4.2593 31.9853 4.23355C31.9853 4.22991 31.9853 4.22658 31.9853 4.22295C31.9881 4.19265 31.99 4.16235 31.9914 4.13387C31.9914 4.12619 31.9914 4.11842 31.9914 4.11054C31.9914 4.08024 31.9937 4.04995 31.9937 4.01965C31.9944 2.90518 31.1634 2.001 30.1374 2Z" fill="url(#paint2_linear_2598_21)"/>
<path d="M19.8815 9.40978C19.732 9.1562 19.4555 8.99998 19.1563 9H12.831C12.5319 8.99992 12.2554 9.15608 12.1058 9.40962C11.9562 9.66316 11.9563 9.97555 12.1059 10.2291L15.2688 15.5904C15.4184 15.8439 15.6948 16 15.9938 16C16.2929 16 16.5693 15.8439 16.7188 15.5904L19.8815 10.2294C20.031 9.97587 20.031 9.66356 19.8815 9.41007V9.40978Z" fill="url(#paint3_linear_2598_21)"/>
<defs>
<linearGradient id="paint0_linear_2598_21" x1="0.290705" y1="4.00042" x2="20.0194" y2="4.00042" gradientUnits="userSpaceOnUse">
<stop stop-color="#6500FF"/>
<stop offset="0.16" stop-color="#6A09FF"/>
<stop offset="0.43" stop-color="#7623FF"/>
<stop offset="0.77" stop-color="#8A4CFF"/>
<stop offset="0.99" stop-color="#996BFF"/>
</linearGradient>
<linearGradient id="paint1_linear_2598_21" x1="12.9979" y1="30.0034" x2="12.9979" y2="2" gradientUnits="userSpaceOnUse">
<stop stop-color="#6500FF"/>
<stop offset="0.16" stop-color="#6909FF"/>
<stop offset="0.43" stop-color="#7523FF"/>
<stop offset="0.77" stop-color="#894CFF"/>
<stop offset="0.99" stop-color="#976BFF"/>
</linearGradient>
<linearGradient id="paint2_linear_2598_21" x1="26.9791" y1="12.0255" x2="26.9791" y2="2" gradientUnits="userSpaceOnUse">
<stop stop-color="#FF6E06"/>
<stop offset="0.28" stop-color="#FF770C"/>
<stop offset="0.75" stop-color="#FF911C"/>
<stop offset="1" stop-color="#FFA126"/>
</linearGradient>
<linearGradient id="paint3_linear_2598_21" x1="4600.07" y1="4199.2" x2="4600.07" y2="2460.61" gradientUnits="userSpaceOnUse">
<stop stop-color="#FF6E06"/>
<stop offset="0.28" stop-color="#FF770C"/>
<stop offset="0.75" stop-color="#FF911C"/>
<stop offset="1" stop-color="#FFA126"/>
</linearGradient>
</defs>
</svg>
