<svg width="32" height="32" viewBox="0 0 32 32" fill="none" xmlns="http://www.w3.org/2000/svg">
<g clip-path="url(#clip0)">
<mask id="mask0" mask-type="alpha" maskUnits="userSpaceOnUse" x="0" y="13" width="5" height="6">
<path d="M0.278259 13.9076H4.15312V18.6221H0.278259V13.9076Z" fill="white"/>
</mask>
<g mask="url(#mask0)">
<path fill-rule="evenodd" clip-rule="evenodd" d="M2.97105 17.1105C2.97105 17.0974 2.97121 17.0843 2.97105 17.0712C2.9633 16.5387 3.04287 16.6099 2.50122 16.6103C2.26634 16.6104 2.02676 16.6144 1.79781 16.6584C1.55396 16.7052 1.46883 16.8806 1.47832 17.1992C1.48575 17.4503 1.58671 17.6032 1.82544 17.6338C2.07789 17.6663 2.33752 17.6708 2.5922 17.6565C2.97174 17.6351 2.97105 17.6235 2.97105 17.2484C2.97105 17.2025 2.97105 17.1565 2.97105 17.1105ZM0.278259 17.1352C0.306016 17.0283 0.340265 16.9225 0.360474 16.8142C0.469187 16.2323 0.91743 15.9176 1.47366 15.8581C1.8993 15.8125 2.33423 15.8487 2.76502 15.8484C2.99682 15.8483 3.02202 15.8216 3.00225 15.5984C2.96176 15.141 2.77294 14.9754 2.28866 14.9494C1.79351 14.9229 1.3072 14.9601 0.798735 15.1283C0.746914 14.7972 0.695865 14.4908 0.655894 14.183C0.65208 14.1536 0.712178 14.0937 0.751256 14.0851C1.46647 13.9286 2.18583 13.8282 2.91562 13.9899C3.66334 14.1557 4.09661 14.653 4.11795 15.3962C4.13548 16.0067 4.12672 16.6178 4.13293 17.2286C4.13565 17.4977 4.14818 17.7666 4.15301 18.0357C4.1561 18.2085 4.09482 18.3595 3.91165 18.4038C3.01232 18.6214 2.10601 18.7303 1.19564 18.4708C0.672613 18.3218 0.399065 17.9594 0.332352 17.44C0.324196 17.3766 0.296764 17.3156 0.278259 17.2535V17.1352Z" fill="#F85820"/>
</g>
<mask id="mask1" mask-type="alpha" maskUnits="userSpaceOnUse" x="11" y="7" width="22" height="18">
<path d="M11.9719 7.79132H32.2571V24.1504H11.9719V7.79132Z" fill="white"/>
</mask>
<g mask="url(#mask1)">
<path fill-rule="evenodd" clip-rule="evenodd" d="M22.6351 12.6422C22.6326 12.2481 22.2687 11.8928 21.8779 11.9027C21.491 11.9126 21.139 12.2675 21.1401 12.6468C21.1412 13.0439 21.5148 13.4074 21.9127 13.3983C22.2925 13.3897 22.6376 13.0283 22.6351 12.6422ZM21.2103 16.3696C21.2103 17.065 21.217 17.7604 21.2059 18.4556C21.2029 18.6461 21.2711 18.6953 21.4465 18.6892C21.7442 18.6789 22.043 18.6757 22.3403 18.6901C22.5402 18.6999 22.5885 18.6161 22.5859 18.434C22.5779 17.8844 22.583 17.3347 22.583 16.785C22.583 15.9506 22.5811 15.1161 22.5846 14.2817C22.5852 14.1267 22.5592 14.0329 22.368 14.0415C22.0574 14.0555 21.7453 14.0537 21.4345 14.042C21.2638 14.0355 21.2039 14.0842 21.2064 14.2637C21.2161 14.9655 21.2104 15.6676 21.2103 16.3696ZM19.9333 14.0315C19.9451 14.0316 19.9569 14.0316 19.9687 14.0316C19.9687 13.5286 19.9691 13.0256 19.9686 12.5226C19.9682 12.2564 19.9675 12.2561 19.7102 12.2557C19.4257 12.2553 19.1411 12.2554 18.8565 12.2557C18.5889 12.256 18.5868 12.2563 18.5893 12.5316C18.6017 13.8814 18.6137 15.2312 18.63 16.581C18.6334 16.858 18.6445 17.1357 18.6703 17.4114C18.776 18.5394 19.5594 18.8675 20.5023 18.6888C20.623 18.6659 20.6882 18.6267 20.6559 18.4775C20.6017 18.2266 20.5644 17.9712 20.5372 17.7159C20.5205 17.559 20.4836 17.4963 20.3044 17.5356C20.0827 17.5841 19.9902 17.4964 19.9676 17.2644C19.9509 17.0937 19.9354 16.922 19.9347 16.7507C19.9315 15.8443 19.9333 14.9379 19.9333 14.0315ZM15.6469 14.1007C16.4196 11.9884 17.1814 9.90575 17.9548 7.79132C22.7258 11.0214 27.4777 14.2385 32.2571 17.4743C29.6734 18.3248 27.1238 19.1641 24.5531 20.0104V18.6789C24.699 18.6978 24.8394 18.7184 24.9802 18.734C26.1969 18.869 27.1662 18.2259 27.4094 17.0072C27.5202 16.452 27.5279 15.8994 27.3788 15.3561C27.1438 14.4997 26.5416 14.0598 25.685 13.9282C25.0331 13.828 24.3924 13.9031 23.7578 14.05C23.4233 14.1274 23.3262 14.2672 23.326 14.6153C23.3254 16.4569 23.3226 18.2985 23.3301 20.1401C23.3309 20.3434 23.2789 20.4355 23.073 20.5029C19.5246 21.6642 15.9798 22.8361 12.4341 24.0053C12.2971 24.0504 12.1587 24.0918 11.9719 24.1504C12.828 21.8091 13.6702 19.5061 14.5228 17.1744C14.6703 17.6674 14.9112 18.0609 15.316 18.3369C15.8238 18.6831 16.3894 18.8029 16.9945 18.737C17.2827 18.7056 17.5683 18.6506 17.8555 18.6094C17.989 18.5903 18.072 18.5615 18.0331 18.3846C17.9706 18.1016 17.9396 17.8115 17.9008 17.5236C17.8831 17.3916 17.8203 17.3977 17.7076 17.4156C17.3523 17.4721 16.991 17.5606 16.6372 17.5415C15.8737 17.5004 15.7465 17.002 15.6871 16.5271C15.6582 16.2954 15.678 16.0484 15.7251 15.8185C15.8257 15.3273 16.1309 15.0697 16.6347 15.0806C16.9538 15.0875 17.2745 15.1608 17.5879 15.2328C17.7593 15.2722 17.8098 15.2319 17.8282 15.0668C17.8567 14.8113 17.8974 14.5563 17.9504 14.3047C17.9832 14.1489 17.9181 14.0866 17.7846 14.0465C17.081 13.8354 16.3816 13.8091 15.6469 14.1007Z" fill="#F85820"/>
</g>
<path fill-rule="evenodd" clip-rule="evenodd" d="M9.46088 14.176C9.83831 14.176 10.1973 14.1687 10.5554 14.1837C10.6105 14.186 10.682 14.2828 10.7107 14.3502C11.0549 15.1587 11.392 15.9701 11.7322 16.7803C11.7729 16.8772 11.8213 16.971 11.9173 17.0665C11.992 16.88 12.07 16.6946 12.1407 16.5066C12.4091 15.7929 12.6774 15.079 12.9402 14.3633C12.989 14.2305 13.0612 14.1688 13.2123 14.1729C13.5324 14.1817 13.853 14.1756 14.1913 14.1756C13.9832 14.7153 13.7813 15.2409 13.5779 15.766C13.1705 16.8179 12.7708 17.8728 12.3509 18.92C12.1392 19.4477 11.8 19.8945 11.3168 20.222C10.9861 20.4463 10.6142 20.5635 10.2109 20.5727C10.1551 20.5739 10.0583 20.5413 10.0481 20.5058C9.96238 20.2076 9.89239 19.905 9.82046 19.6151C10.083 19.5319 10.3299 19.4811 10.5494 19.3759C10.7451 19.2821 10.926 19.1443 11.0855 18.997C11.3062 18.7933 11.3654 18.5686 11.2258 18.2591C10.6346 16.9487 10.0742 15.6252 9.50301 14.3062C9.4885 14.2727 9.48027 14.2366 9.46088 14.176Z" fill="#F85820"/>
<path fill-rule="evenodd" clip-rule="evenodd" d="M5.29116 16.5414C5.29116 15.924 5.29614 15.3065 5.2882 14.6891C5.28573 14.5002 5.35872 14.3979 5.56369 14.3563C6.34493 14.1976 7.13596 14.1107 7.9279 14.2247C8.83828 14.3557 9.20302 14.7189 9.37004 15.5651C9.39918 15.7126 9.41063 15.8646 9.41392 16.0148C9.43129 16.8082 9.43961 17.6017 9.46057 18.395C9.46497 18.5616 9.42356 18.635 9.22311 18.6238C8.94284 18.6082 8.66043 18.6122 8.37963 18.6227C8.2155 18.6289 8.16725 18.5769 8.16844 18.4279C8.17544 17.5648 8.1749 16.7016 8.1721 15.8385C8.17083 15.4377 7.93498 15.2191 7.49679 15.219C7.20298 15.2189 6.90921 15.2466 6.61532 15.2488C6.43163 15.2502 6.40763 15.3389 6.4082 15.4787C6.41219 16.4427 6.41038 17.4066 6.41018 18.3706C6.41014 18.6194 6.40977 18.6196 6.14115 18.6198C5.93531 18.62 5.72881 18.6105 5.52388 18.6227C5.34674 18.6333 5.28425 18.5837 5.28705 18.4126C5.29742 17.789 5.29116 17.1652 5.29116 16.5414Z" fill="#F85820"/>
<path fill-rule="evenodd" clip-rule="evenodd" d="M24.491 16.2247C24.491 15.8893 24.4948 15.5538 24.489 15.2184C24.487 15.0961 24.5211 15.0069 24.6469 15.0075C24.9565 15.0089 25.2686 15.0007 25.5747 15.0385C25.8353 15.0706 25.9989 15.2642 26.0639 15.5221C26.1861 16.0071 26.1896 16.4966 26.0612 16.981C25.9913 17.2447 25.8209 17.4402 25.5554 17.4782C25.2765 17.5182 24.9899 17.5142 24.707 17.5078C24.5533 17.5044 24.481 17.4051 24.4873 17.2308C24.4995 16.8959 24.4909 16.5601 24.491 16.2247Z" fill="#F85820"/>
</g>
<defs>
<clipPath id="clip0">
<rect width="32" height="32" fill="white"/>
</clipPath>
</defs>
</svg>
