<svg width="32" height="32" viewBox="0 0 32 32" fill="none" xmlns="http://www.w3.org/2000/svg">
<g clip-path="url(#clip0)">
<path d="M27.28 0.151989C26.2746 0.448114 24.6048 1.28699 22.6107 2.50211L24.4426 4.22836C25.7286 3.30999 27.0343 2.48399 28.3521 1.77836C28.4537 1.72236 28.5067 1.69586 28.5067 1.69586C28.4552 1.72311 28.4037 1.75111 28.3521 1.77836C27.9258 2.01311 26.6323 2.76636 24.6806 4.26236C26.5596 4.21549 29.447 4.02386 31.8021 3.82249C32.5027 1.86311 31.1151 0.965864 31.1151 0.965864C31.1151 0.965864 29.3514 -0.459011 27.28 0.151989Z" fill="url(#paint0_linear)"/>
<path d="M21.1275 14.6488C20.894 14.67 20.6529 14.6904 20.4056 14.7116C20.4041 14.7116 20.4026 14.7129 20.4011 14.7129C20.524 14.7041 20.6469 14.6945 20.7696 14.6841C20.8909 14.6735 21.0093 14.6621 21.1275 14.6491V14.6488Z" fill="#BE202E"/>
<path opacity="0.35" d="M21.1275 14.6488C20.894 14.67 20.6529 14.6904 20.4056 14.7116C20.4041 14.7116 20.4026 14.7129 20.4011 14.7129C20.524 14.7041 20.6469 14.6945 20.7696 14.6841C20.8909 14.6735 21.0093 14.6621 21.1275 14.6491V14.6488Z" fill="#BE202E"/>
<path d="M21.74 13.14L21.7385 13.1412C21.737 13.1412 21.737 13.1425 21.7355 13.1425C21.7748 13.1402 21.8128 13.1365 21.8507 13.1341C22.007 13.1227 22.1601 13.1091 22.3087 13.0932C22.1222 13.1084 21.9326 13.125 21.74 13.141V13.14Z" fill="#BE202E"/>
<path opacity="0.35" d="M21.74 13.14L21.7385 13.1412C21.737 13.1412 21.737 13.1425 21.7355 13.1425C21.7748 13.1402 21.8128 13.1365 21.8507 13.1341C22.007 13.1227 22.1601 13.1091 22.3087 13.0932C22.1222 13.1084 21.9326 13.125 21.74 13.141V13.14Z" fill="#BE202E"/>
<path d="M19.0426 8.68862C19.5969 8.17111 20.1606 7.66378 20.7334 7.16687C21.3209 6.65656 21.9195 6.15928 22.5289 5.67537C22.5638 5.64737 22.6002 5.61862 22.6352 5.58987C23.2327 5.11737 23.8362 4.66312 24.4442 4.22862L22.6123 2.50237C22.4743 2.58637 22.3363 2.67187 22.1953 2.759C21.6435 3.1029 21.097 3.45523 20.5559 3.81587C19.8992 4.25439 19.2495 4.70341 18.6072 5.16275C17.4366 6.00089 16.2907 6.87293 15.1708 7.77775L15.1117 7.8255L17.4954 10.1762C18.0042 9.67319 18.5199 9.17723 19.0424 8.6885L19.0426 8.68862Z" fill="url(#paint1_linear)"/>
<path d="M8.18455 21.9338C7.86448 22.3729 7.54751 22.8143 7.23367 23.2579C7.22917 23.2646 7.22455 23.2708 7.22005 23.2776C7.17455 23.3411 7.13055 23.4048 7.08505 23.4684C6.8713 23.772 6.68467 24.0453 6.25854 24.6669C6.9608 24.8266 7.5248 25.2475 8.05867 25.7253C8.00267 25.2309 7.59167 24.766 6.81367 24.4065C10.2758 24.4844 13.2588 24.0475 14.8012 22.784C14.936 22.6747 15.0622 22.5552 15.1787 22.4265C14.4781 22.8703 13.6091 23.0588 11.9728 23.0125C11.9698 23.0138 11.9652 23.014 11.9622 23.0148C11.9652 23.0135 11.9698 23.0133 11.9728 23.0125C14.3811 22.4743 15.5897 21.9579 16.6573 21.1015C16.9106 20.8986 17.1562 20.6769 17.4079 20.4308C15.3017 21.5104 12.8614 21.8178 10.291 21.5845L8.36355 21.6899C8.30292 21.7709 8.2438 21.8519 8.18467 21.9336L8.18455 21.9338Z" fill="url(#paint2_linear)"/>
<path d="M9.08376 19.7788C9.50076 19.2413 9.93001 18.6975 10.3698 18.1488C10.7976 17.6163 11.2303 17.0878 11.6679 16.5634C12.1108 16.0319 12.5641 15.4996 13.0266 14.9666C13.5003 14.4207 13.9801 13.8801 14.4658 13.3449C14.9517 12.81 15.4441 12.281 15.9428 11.758C16.1233 11.5688 16.3053 11.3803 16.4871 11.1925C16.8026 10.8677 17.1211 10.5459 17.4426 10.2271C17.4593 10.2096 17.4775 10.193 17.4956 10.1756L15.1119 7.82475C15.0724 7.85663 15.0344 7.88838 14.995 7.92013C14.437 8.37423 13.8865 8.83738 13.3435 9.30938C12.7966 9.78536 12.2587 10.2715 11.73 10.7676C11.2894 11.1802 10.8561 11.6004 10.4304 12.0283C10.3454 12.1145 10.262 12.1995 10.1786 12.285C9.69103 12.7848 9.21966 13.3001 8.76526 13.8303C8.28451 14.392 7.86151 14.9288 7.49138 15.4376C7.2603 15.7547 7.03731 16.0775 6.82263 16.4059C6.65793 16.6673 6.49914 16.9323 6.34638 17.2009C5.99013 17.824 5.68376 18.4456 5.43201 19.0649L7.82801 21.4263C8.24231 20.8739 8.66087 20.3247 9.08364 19.7788H9.08376Z" fill="url(#paint3_linear)"/>
<path d="M5.40025 19.1488C5.1 19.9044 4.88613 20.6569 4.7785 21.4049C4.7755 21.4314 4.76938 21.4571 4.76638 21.4836C4.01875 20.8855 2.017 20.3018 2.02138 20.3071C3.45463 21.3444 4.54188 22.374 4.70413 23.3846C3.93675 23.4634 2.88588 23.3499 1.67113 23.1265C2.93738 23.7073 3.88825 23.8678 4.25825 23.9109C3.09513 23.9471 1.88325 24.3463 0.662625 24.8059C2.4475 24.4424 3.88975 24.2985 4.9225 24.4151C3.28475 26.7304 1.64238 29.2864 0 31.9999C0.5035 31.9256 0.80375 31.7569 0.972 31.5283C1.26475 31.0369 3.20725 27.8131 6.25088 23.5756C6.33738 23.4553 6.42538 23.334 6.51338 23.2121C6.5375 23.1781 6.56338 23.144 6.58763 23.1108C6.91761 22.655 7.25075 22.2015 7.587 21.7503C7.66575 21.645 7.74463 21.5398 7.8235 21.4338C7.825 21.4315 7.8265 21.4293 7.828 21.4278L5.435 19.0671C5.42438 19.0936 5.41075 19.1209 5.40013 19.1489L5.40025 19.1488Z" fill="url(#paint4_linear)"/>
<path d="M17.8663 10.3748C17.798 10.4444 17.7298 10.5148 17.66 10.586C17.4538 10.7988 17.2445 11.0153 17.0323 11.2371C16.7996 11.4811 16.5686 11.7267 16.3391 11.9737C16.2209 12.1002 16.1041 12.2275 15.9843 12.3569C15.6194 12.7535 15.258 13.1532 14.9 13.5561C14.4359 14.0784 13.9774 14.6057 13.5245 15.1377C13.0686 15.6732 12.6181 16.2133 12.1733 16.758C11.7294 17.3011 11.2906 17.8482 10.8569 18.3994C10.4532 18.9131 10.0538 19.4302 9.6589 19.9506C9.63914 19.9764 9.61939 20.0021 9.60127 20.0279C9.1931 20.5662 8.78967 21.108 8.39102 21.6534C8.38189 21.6662 8.37289 21.6791 8.36377 21.6912L10.2913 21.586C10.2534 21.5822 10.2139 21.58 10.176 21.576C12.4811 21.433 15.5444 20.5729 17.5249 19.5115C18.4252 19.0303 19.2665 18.4459 20.0316 17.7701C20.6019 17.2674 21.1371 16.7101 21.6466 16.0931C22.0925 15.554 22.5201 14.9702 22.9326 14.3374C22.4034 14.4766 21.7968 14.5789 21.128 14.65C20.8863 14.676 20.6442 14.6972 20.4016 14.7136C20.4031 14.7136 20.4046 14.7124 20.4061 14.7124C22.5549 14.2997 23.9108 13.5025 24.8965 12.5266C24.3308 12.7189 23.4119 12.971 22.3109 13.0921C22.1585 13.1086 22.0058 13.1222 21.8529 13.133C21.8134 13.136 21.7755 13.1392 21.7376 13.1414C21.7391 13.1414 21.7391 13.1401 21.7406 13.1401L21.7421 13.1389C22.4883 12.983 23.1177 12.8089 23.6634 12.6029C23.7778 12.5602 23.8911 12.5145 24.0031 12.4659C24.1647 12.3962 24.3236 12.3205 24.4794 12.2388C24.5749 12.189 24.6689 12.1365 24.7614 12.0813C24.9711 11.9571 25.1723 11.819 25.3635 11.6679C25.421 11.6225 25.4773 11.5762 25.5334 11.5286C25.6047 11.4596 25.6729 11.3924 25.7397 11.3256C26.0399 11.0244 26.2794 10.7556 26.4705 10.5194C26.5576 10.4127 26.6411 10.3031 26.7208 10.1908C26.7495 10.1508 26.7769 10.1112 26.8027 10.0734C26.8691 9.97514 26.9314 9.87409 26.9892 9.7705C27.062 9.638 27.1059 9.53288 27.1302 9.45638C27.0574 9.48513 26.9739 9.51387 26.88 9.54187C26.2309 9.73562 25.1179 9.91137 24.22 9.99387L25.9899 9.897L24.2201 9.99387C24.2064 9.99537 24.1928 9.99613 24.1791 9.99763C24.0896 10.0053 23.9986 10.012 23.9076 10.0196C23.9244 10.0159 23.938 10.012 23.9548 10.009L17.8994 10.3406C17.8888 10.3512 17.8781 10.3619 17.866 10.3731L17.8663 10.3748Z" fill="url(#paint5_linear)"/>
<path d="M24.6825 4.26337C24.0858 4.72098 23.4993 5.19176 22.9234 5.67537C22.89 5.70262 22.8566 5.73137 22.8234 5.75937C22.2353 6.25417 21.6564 6.75976 21.0869 7.27587C20.5295 7.77988 19.9805 8.29304 19.44 8.81512C18.9197 9.31657 18.4066 9.82541 17.9008 10.3415L23.9561 10.0099C25.7199 9.60487 26.5084 9.23837 27.2743 8.70837C27.4809 8.55985 27.6847 8.4074 27.8855 8.25112C28.5053 7.76704 29.0986 7.24996 29.6628 6.70212C30.189 6.18962 30.6531 5.6815 31.0094 5.2235C31.2354 4.932 31.4174 4.661 31.5431 4.42325C31.6458 4.23042 31.7341 4.03025 31.8071 3.82437C29.449 4.025 26.5616 4.21725 24.6826 4.2635L24.6825 4.26337Z" fill="url(#paint6_linear)"/>
<path d="M21.735 13.1412C21.7745 13.139 21.8124 13.1352 21.8502 13.1329C21.8124 13.1351 21.7745 13.1381 21.735 13.1412Z" fill="#BE202E"/>
<path opacity="0.35" d="M21.735 13.1412C21.7745 13.139 21.8124 13.1352 21.8502 13.1329C21.8124 13.1351 21.7745 13.1381 21.735 13.1412Z" fill="#BE202E"/>
<path d="M21.735 13.1412C21.7745 13.139 21.8124 13.1352 21.8502 13.1329C21.8124 13.1351 21.7745 13.1381 21.735 13.1412Z" fill="url(#paint7_linear)"/>
<path d="M21.7388 13.14L21.7403 13.1387L21.7388 13.14Z" fill="#BE202E"/>
<path opacity="0.35" d="M21.7388 13.14L21.7403 13.1387L21.7388 13.14Z" fill="#BE202E"/>
<path d="M21.7388 13.14L21.7403 13.1387L21.7388 13.14Z" fill="url(#paint8_linear)"/>
</g>
<defs>
<linearGradient id="paint0_linear" x1="24.1631" y1="2.71825" x2="35.1985" y2="-3.42692" gradientUnits="userSpaceOnUse">
<stop stop-color="#F69923"/>
<stop offset="0.312" stop-color="#F79A23"/>
<stop offset="0.838" stop-color="#E97826"/>
</linearGradient>
<linearGradient id="paint1_linear" x1="-5.21084" y1="32.7918" x2="2.64811" y2="-0.961703" gradientUnits="userSpaceOnUse">
<stop offset="0.323" stop-color="#9E2064"/>
<stop offset="0.63" stop-color="#C92037"/>
<stop offset="0.751" stop-color="#CD2335"/>
<stop offset="1" stop-color="#E97826"/>
</linearGradient>
<linearGradient id="paint2_linear" x1="3.95519" y1="30.6309" x2="8.63833" y2="10.5171" gradientUnits="userSpaceOnUse">
<stop stop-color="#282662"/>
<stop offset="0.095" stop-color="#662E8D"/>
<stop offset="0.788" stop-color="#9F2064"/>
<stop offset="0.949" stop-color="#CD2032"/>
</linearGradient>
<linearGradient id="paint3_linear" x1="-4.2233" y1="31.0234" x2="3.63564" y2="-2.73019" gradientUnits="userSpaceOnUse">
<stop offset="0.323" stop-color="#9E2064"/>
<stop offset="0.63" stop-color="#C92037"/>
<stop offset="0.751" stop-color="#CD2335"/>
<stop offset="1" stop-color="#E97826"/>
</linearGradient>
<linearGradient id="paint4_linear" x1="-1.44083" y1="29.0763" x2="2.68931" y2="11.3376" gradientUnits="userSpaceOnUse">
<stop stop-color="#282662"/>
<stop offset="0.095" stop-color="#662E8D"/>
<stop offset="0.788" stop-color="#9F2064"/>
<stop offset="0.949" stop-color="#CD2032"/>
</linearGradient>
<linearGradient id="paint5_linear" x1="1.83469" y1="32.4339" x2="9.69363" y2="-1.31969" gradientUnits="userSpaceOnUse">
<stop offset="0.323" stop-color="#9E2064"/>
<stop offset="0.63" stop-color="#C92037"/>
<stop offset="0.751" stop-color="#CD2335"/>
<stop offset="1" stop-color="#E97826"/>
</linearGradient>
<linearGradient id="paint6_linear" x1="-0.159096" y1="34.1769" x2="7.69984" y2="0.42339" gradientUnits="userSpaceOnUse">
<stop offset="0.323" stop-color="#9E2064"/>
<stop offset="0.63" stop-color="#C92037"/>
<stop offset="0.751" stop-color="#CD2335"/>
<stop offset="1" stop-color="#E97826"/>
</linearGradient>
<linearGradient id="paint7_linear" x1="3.43037" y1="32.8035" x2="11.2879" y2="-0.947167" gradientUnits="userSpaceOnUse">
<stop offset="0.323" stop-color="#9E2064"/>
<stop offset="0.63" stop-color="#C92037"/>
<stop offset="0.751" stop-color="#CD2335"/>
<stop offset="1" stop-color="#E97826"/>
</linearGradient>
<linearGradient id="paint8_linear" x1="18.725" y1="16.3766" x2="20.4636" y2="8.91492" gradientUnits="userSpaceOnUse">
<stop offset="0.323" stop-color="#9E2064"/>
<stop offset="0.63" stop-color="#C92037"/>
<stop offset="0.751" stop-color="#CD2335"/>
<stop offset="1" stop-color="#E97826"/>
</linearGradient>
<clipPath id="clip0">
<rect width="32" height="32" fill="white"/>
</clipPath>
</defs>
</svg>
