<svg xmlns="http://www.w3.org/2000/svg" width="640" height="640" style="background-color:transparent"><defs><linearGradient id="a" x1="0%" y1="0%" x2="0%" y2="100%"><stop offset="0%" stop-color="#ff5000"/><stop offset="100%" stop-color="#e13200"/></linearGradient><linearGradient id="b" x1="0%" y1="0%" x2="10%" y2="0%"><stop offset="0%" stop-color="gray"/><stop offset="100%" stop-color="gray" stop-opacity="0"/></linearGradient><linearGradient id="c" x1="0%" y1="0%" x2="80%" y2="80%"><stop offset="0%" stop-color="#fff" stop-opacity="0"/><stop offset="30%"/><stop offset="75%" stop-color="gray" stop-opacity="0"/></linearGradient><linearGradient id="d" x1="0%" y1="0%" x2="90%" y2="100%"><stop offset="0%" stop-color="#fff" stop-opacity="0"/><stop offset="40%"/><stop offset="65%" stop-color="#fff" stop-opacity="0"/></linearGradient></defs><circle cx="320" cy="320" r="312" fill="url(#a)" stroke="#fff" stroke-width="16"/><path fill="#fff" d="M200 440h80v-80l-80-160zm80 0h80v-80l-40-80-40 80zm80 0h80V200l-80 160z"/><path fill="url(#b)" d="M200 440h80v-80l-80-160z"/><path fill="url(#c)" d="M320 280l8 16-32 64-8-16z"/><path fill="url(#d)" d="M440 200l-72 144 8 16 64-130z"/></svg>