<svg width="32" height="32" viewBox="0 0 32 32" fill="none" xmlns="http://www.w3.org/2000/svg">
<g clip-path="url(#clip0_3323_440)">
<path fill-rule="evenodd" clip-rule="evenodd" d="M17.9896 4.59551C17.9911 5.19847 17.8736 5.7958 17.6439 6.35329C17.4141 6.91077 17.0767 7.41747 16.6508 7.84434C16.225 8.27122 15.7191 8.60989 15.1622 8.84097C14.6052 9.07205 14.0082 9.191 13.4052 9.191C12.8023 9.191 12.2052 9.07205 11.6483 8.84097C11.0914 8.60989 10.5855 8.27122 10.1596 7.84434C9.73379 7.41747 9.39634 6.91077 9.1666 6.35329C8.93687 5.7958 8.81936 5.19847 8.82081 4.59551C8.81936 3.99254 8.93687 3.3952 9.1666 2.83771C9.39634 2.28023 9.73379 1.77355 10.1596 1.34667C10.5855 0.919793 11.0914 0.581113 11.6483 0.350031C12.2052 0.118949 12.8023 0 13.4052 0C14.0082 0 14.6052 0.118949 15.1622 0.350031C15.7191 0.581113 16.225 0.919793 16.6508 1.34667C17.0767 1.77355 17.4141 2.28023 17.6439 2.83771C17.8736 3.3952 17.9911 3.99254 17.9896 4.59551V4.59551Z" fill="#E9000D"/>
<path fill-rule="evenodd" clip-rule="evenodd" d="M17.9896 16.0171C17.9911 16.6201 17.8736 17.2174 17.6439 17.7749C17.4141 18.3324 17.0767 18.8391 16.6508 19.266C16.225 19.6929 15.7191 20.0315 15.1622 20.2626C14.6052 20.4937 14.0082 20.6126 13.4052 20.6126C12.8023 20.6126 12.2052 20.4937 11.6483 20.2626C11.0914 20.0315 10.5855 19.6929 10.1596 19.266C9.73379 18.8391 9.39634 18.3324 9.1666 17.7749C8.93687 17.2174 8.81936 16.6201 8.82081 16.0171C8.81936 15.4142 8.93687 14.8168 9.1666 14.2593C9.39634 13.7019 9.73379 13.1952 10.1596 12.7683C10.5855 12.3414 11.0914 12.0027 11.6483 11.7717C12.2052 11.5406 12.8023 11.4216 13.4052 11.4216C14.0082 11.4216 14.6052 11.5406 15.1622 11.7717C15.7191 12.0027 16.225 12.3414 16.6508 12.7683C17.0767 13.1952 17.4141 13.7019 17.6439 14.2593C17.8736 14.8168 17.9911 15.4142 17.9896 16.0171V16.0171Z" fill="#FFD100"/>
<path fill-rule="evenodd" clip-rule="evenodd" d="M17.9896 27.4206C17.9911 26.8176 17.8736 26.2203 17.6439 25.6628C17.4141 25.1053 17.0767 24.5986 16.6508 24.1718C16.225 23.7449 15.7191 23.4062 15.1622 23.1751C14.6052 22.9441 14.0082 22.8251 13.4052 22.8251C12.8023 22.8251 12.2052 22.9441 11.6483 23.1751C11.0914 23.4062 10.5855 23.7449 10.1596 24.1718C9.73379 24.5986 9.39634 25.1053 9.1666 25.6628C8.93687 26.2203 8.81936 26.8176 8.82081 27.4206C8.81936 28.0236 8.93687 28.6209 9.1666 29.1784C9.39634 29.7359 9.73379 30.2426 10.1596 30.6694C10.5855 31.0963 11.0914 31.435 11.6483 31.6661C12.2052 31.8972 12.8023 32.0161 13.4052 32.0161C14.0082 32.0161 14.6052 31.8972 15.1622 31.6661C15.7191 31.435 16.225 31.0963 16.6508 30.6694C17.0767 30.2426 17.4141 29.7359 17.6439 29.1784C17.8736 28.6209 17.9911 28.0236 17.9896 27.4206V27.4206Z" fill="#00A434"/>
<path d="M6.82297 21.9327L7.18353 23.8122C6.48089 23.9383 5.85221 24.0013 5.2975 24.0013C4.39147 24.0013 3.68883 23.8792 3.1896 23.6349C2.69035 23.3906 2.33903 23.0695 2.13564 22.6715C1.93224 22.2736 1.83055 21.4363 1.83055 20.1596V12.9373H0V11.2824H1.83055V8.17359L4.31289 6.89697V11.2824H6.82297V12.9373H4.31289V20.2778C4.31288 20.8846 4.3568 21.2747 4.44464 21.4481C4.53246 21.6215 4.67576 21.7594 4.87454 21.8618C5.0733 21.9643 5.3576 22.0155 5.72741 22.0155C6.00476 22.0155 6.36995 21.9879 6.82297 21.9327V21.9327Z" fill="black"/>
<path d="M19.1047 20.1596L22.7664 19.657C22.9222 20.2959 23.2381 20.7809 23.7142 21.1121C24.1903 21.4432 24.8569 21.6088 25.7138 21.6088C26.6574 21.6088 27.3672 21.453 27.8433 21.1413C28.1636 20.9231 28.3237 20.631 28.3237 20.2647C28.3237 20.0154 28.2371 19.8089 28.064 19.6453C27.8822 19.4895 27.4754 19.3453 26.8435 19.2129C23.9003 18.6285 22.0349 18.0948 21.2472 17.6117C20.1565 16.9416 19.6111 16.0105 19.6111 14.8184C19.6111 13.7432 20.0829 12.8393 21.0264 12.1069C21.97 11.3745 23.4329 11.0083 25.4152 11.0083C27.3023 11.0083 28.7046 11.2849 29.6222 11.8381C30.5397 12.3913 31.1716 13.2094 31.5179 14.2925L28.077 14.8651C27.9298 14.3821 27.6507 14.012 27.2395 13.7548C26.8283 13.4977 26.2419 13.3692 25.4801 13.3692C24.5193 13.3692 23.8311 13.4899 23.4156 13.7315C23.1386 13.9029 23.0001 14.125 23.0001 14.3977C23.0001 14.6314 23.1213 14.8301 23.3636 14.9937C23.6926 15.2119 24.8287 15.5197 26.7721 15.917C28.7154 16.3144 30.0723 16.8014 30.8427 17.3779C31.6045 17.9623 31.9854 18.7765 31.9854 19.8206C31.9854 20.9582 31.4573 21.936 30.4013 22.7542C29.3452 23.5723 27.7827 23.9813 25.7139 23.9813C23.8355 23.9813 22.3487 23.6385 21.2537 22.9528C20.1587 22.2672 19.4424 21.3361 19.1048 20.1596L19.1047 20.1596Z" fill="#4A4942"/>
</g>
<defs>
<clipPath id="clip0_3323_440">
<rect width="32" height="32" fill="white"/>
</clipPath>
</defs>
</svg>
