<svg width="273" height="273" viewBox="0 0 273 273" fill="none" xmlns="http://www.w3.org/2000/svg">
<path d="M190.56 94C190.56 94 130.18 82.92 90.87 84.35C51.56 85.78 37.63 92.93 33.7 102.21C29.77 111.49 46.11 135.83 112.13 162.24C171.98 186.18 219.5 194.75 219.5 194.75C219.5 194.75 156.47 186.12 86.23 158.38C14.77 130.16 -2.19 107.22 0.220004 95.43C2.63 83.64 27.99 76.5 70.15 77.57C112.31 78.64 174.84 89 190.56 94Z" fill="#005996"/>
<path d="M199.49 103.29C199.49 103.29 161.26 96.86 123.39 96.14C85.52 95.42 76.58 104.72 74.79 110.8C73 116.88 78.83 129.74 127.72 150.46C176.61 171.18 212.34 179.76 223.42 182.62C234.5 185.48 272.01 192.98 272.01 192.98C272.01 192.98 231.28 188.69 160.89 167.61C90.5 146.53 45.19 120.55 48.71 104.97C52.64 87.57 118.7 84.96 199.49 103.29Z" fill="#669BC0"/>
</svg>
