<svg width="32" height="32" viewBox="0 0 32 32" fill="none" xmlns="http://www.w3.org/2000/svg">
<g clip-path="url(#clip0_3221_275)">
<path d="M17.9877 7.79896H14.1088L8.5083 22.3342H12.0166L12.9321 19.8718H18.2241L17.2658 17.1476H13.7819L16.0483 10.8934L20.0801 22.3342H23.5884L17.9877 7.79896Z" fill="#112B49"/>
<path d="M31.4099 11.6859C31.4005 11.6363 31.3869 11.5885 31.369 11.5424C31.3646 11.5265 31.3498 11.4967 31.3498 11.4967C31.2232 11.222 30.946 11.0307 30.6235 11.0307C30.1817 11.0307 29.8236 11.3889 29.8236 11.8307C29.8236 11.9206 29.839 12.0065 29.8663 12.087L29.8642 12.0879C30.217 13.345 30.3995 14.6583 30.3995 16C30.3995 19.8462 28.9016 23.4624 26.182 26.1822C23.4621 28.9022 19.846 30.3999 15.9998 30.3999C12.1536 30.3999 8.53723 28.902 5.81761 26.1822C3.09758 23.4624 1.5999 19.8462 1.5999 16C1.5999 12.1538 3.09779 8.53764 5.81761 5.81782C8.53723 3.09779 12.1536 1.60031 15.9998 1.60031C19.4345 1.60031 22.6847 2.79554 25.2777 4.98784C25.1905 5.20957 25.1419 5.45091 25.1419 5.70372C25.1419 6.78381 26.0176 7.65927 27.0975 7.65927C28.1776 7.65927 29.0532 6.78381 29.0532 5.70372C29.0532 4.62364 28.1776 3.74818 27.0975 3.74818C26.862 3.74818 26.6361 3.78969 26.4266 3.86603C23.6263 1.45701 19.9837 -8.2185e-07 15.9998 -8.2185e-07C7.16324 -8.2185e-07 0 7.16344 0 16C0 24.8366 7.16324 32 15.9998 32C24.8361 32 31.9996 24.8366 31.9996 16C31.9996 14.5052 31.7933 13.0584 31.4099 11.6859Z" fill="#112B49"/>
</g>
<defs>
<clipPath id="clip0_3221_275">
<rect width="32" height="32" fill="white"/>
</clipPath>
</defs>
</svg>
