<svg width="1188" height="1188" viewBox="0 0 1188 1188" fill="none" xmlns="http://www.w3.org/2000/svg">
<g clip-path="url(#clip0)">
<path d="M1073.04 925.187C1055.09 966.665 1033.84 1004.84 1009.21 1039.95C975.651 1087.8 948.17 1120.92 926.992 1139.32C894.162 1169.51 858.986 1184.97 821.32 1185.85C794.279 1185.85 761.668 1178.16 723.709 1162.55C685.624 1147.01 650.625 1139.32 618.623 1139.32C585.06 1139.32 549.064 1147.01 510.562 1162.55C472.001 1178.16 440.937 1186.29 417.186 1187.1C381.066 1188.63 345.063 1172.73 309.125 1139.32C286.188 1119.31 257.499 1085.01 223.129 1036.43C186.254 984.545 155.938 924.381 132.187 855.79C106.751 781.702 94 709.959 94 640.503C94 560.941 111.192 492.32 145.627 434.816C172.69 388.627 208.693 352.191 253.754 325.444C298.815 298.696 347.503 285.065 399.936 284.193C428.626 284.193 466.248 293.068 513.002 310.509C559.624 328.008 589.559 336.883 602.684 336.883C612.496 336.883 645.752 326.506 702.127 305.819C755.44 286.634 800.434 278.69 837.295 281.819C937.178 289.88 1012.22 329.254 1062.12 400.191C972.793 454.317 928.604 530.126 929.483 627.378C930.289 703.129 957.77 766.166 1011.78 816.218C1036.25 839.448 1063.59 857.402 1094 870.153C1087.41 889.279 1080.44 907.6 1073.04 925.187V925.187ZM843.964 23.7507C843.964 83.1241 822.272 138.561 779.036 189.873C726.86 250.872 663.75 286.121 595.312 280.559C594.44 273.436 593.934 265.939 593.934 258.061C593.934 201.063 618.747 140.063 662.812 90.1878C684.811 64.9349 712.79 43.9376 746.719 27.1876C780.575 10.6875 812.599 1.5626 842.718 0C843.597 7.9373 843.964 15.8751 843.964 23.7499V23.7507Z" fill="black"/>
</g>
<defs>
<clipPath id="clip0">
<rect width="1187.2" height="1187.2" fill="white"/>
</clipPath>
</defs>
</svg>
