<svg xmlns="http://www.w3.org/2000/svg" viewBox="0 0 160.759 160.75701" height="160.757" width="160.759"><path d="M158.064 146.744c0 6.251-5.067 11.319-11.318 11.319H14.014c-6.25 0-11.318-5.068-11.318-11.319V14.014c0-6.251 5.068-11.318 11.318-11.318h132.731c6.251 0 11.318 5.067 11.318 11.318v132.73z" fill="#f89938"/><path d="M146.744 0H14.014C6.273.001.002 6.272 0 14.014v132.731c.002 7.739 6.273 14.01 14.014 14.012h132.73c7.74 0 14.012-6.272 14.015-14.012V14.014C160.756 6.272 154.484.001 146.744 0zM5.391 55.123c27.142.606 51.608 11.833 69.498 29.714 18.106 18.115 29.386 42.978 29.728 70.531H60.679c-.666-30.463-24.962-55.089-55.288-56.287V55.123zM56.143 5.39h43.938c.666 30.463 24.961 55.088 55.287 56.288v43.958c-27.141-.607-51.607-11.834-69.497-29.715C67.764 57.806 56.484 32.943 56.143 5.39zm99.224 8.624v35.797c-11.728-.582-22.254-5.56-30.044-13.342-8.009-8.018-13.034-18.937-13.369-31.079h34.79a8.635 8.635 0 0 1 8.623 8.624zM14.014 5.39h30.271c.208 18.646 4.912 36.211 13.082 51.661-15.49-8.461-33.171-13.41-51.976-13.787v-29.25a8.633 8.633 0 0 1 8.623-8.624zM5.391 146.745v-35.798c11.729.582 22.254 5.56 30.045 13.342 8.009 8.018 13.034 18.937 13.369 31.079H14.014c-4.762-.01-8.617-3.862-8.623-8.623zm141.353 8.623h-30.27c-.207-18.646-4.911-36.21-13.082-51.66 15.49 8.46 33.171 13.409 51.975 13.786v29.251a8.636 8.636 0 0 1-8.623 8.623z"/></svg>