<?xml version="1.0" encoding="UTF-8"?> <svg xmlns="http://www.w3.org/2000/svg" width="37" height="40" viewBox="0 0 37 40" fill="none"><path d="M0.179502 12.6757L6.26128 23.9632C6.68279 24.7479 7.70646 25.3514 8.54948 25.3514H20.9539C21.7969 25.3514 22.1582 24.7479 21.7367 23.9632L15.5947 12.6154C15.1732 11.8307 14.1495 11.2271 13.3065 11.2271H0.90209H0.841874C0.119286 11.2874 -0.242008 11.891 0.179502 12.6757Z" fill="#58D64D"></path><path d="M23.7226 25.7739L27.3958 32.4739C27.6367 32.9568 28.2388 33.319 28.7807 33.319L36.1271 33.1983C36.6088 33.1983 36.8496 32.8361 36.6088 32.3532L32.9356 25.6532C32.6948 25.1703 32.0926 24.8081 31.5507 24.8081L24.1441 24.8685C23.6624 24.9892 23.4216 25.3514 23.7226 25.7739Z" fill="#58D64D"></path><path d="M23.7252 0.422526L16.3789 9.65774C15.8971 10.2613 15.8369 11.4082 16.2584 12.1929L22.4004 23.42C22.8219 24.2047 23.5445 24.3254 24.0865 23.6615L31.493 14.4262C31.9747 13.8226 32.0349 12.6758 31.6134 11.8911L25.4112 0.66397C25.1704 0.241444 24.8091 0 24.4478 0C24.2069 0 23.966 0.120722 23.7252 0.422526Z" fill="#00C2FF"></path><path d="M22.0377 25.8947L17.6419 31.3876C17.3409 31.7498 17.2807 32.4137 17.5817 32.8966L21.2549 39.5967C21.4957 40.0796 21.9775 40.1399 22.2786 39.7174L26.6743 34.2245C26.9754 33.8624 27.0356 33.1984 26.7345 32.7155L23.0614 26.0155C22.9409 25.774 22.7001 25.5929 22.5194 25.6533C22.2786 25.6533 22.1581 25.7137 22.0377 25.8947Z" fill="#00C2FF"></path></svg> 