<svg width="158" height="158" viewBox="0 0 158 158" fill="none" xmlns="http://www.w3.org/2000/svg">
<path d="M79.41 0C36.03 0 0.869998 35.8165 0.869998 80.0018C0.836764 94.3805 4.63486 108.506 11.87 120.912C22.2784 124.513 33.4934 125.055 44.1978 122.475C54.9022 119.894 64.6513 114.298 72.3 106.344C72.9118 105.848 73.4535 105.27 73.91 104.626C72.7012 111.426 70.3331 117.966 66.91 123.956C60.6036 135.021 50.879 143.718 39.21 148.731C45.1776 152.353 51.6015 155.154 58.31 157.06C68.3442 148.886 75.4759 137.668 78.6392 125.084C81.8025 112.501 80.8276 99.2264 75.86 87.2455C73.7972 82.5858 71.2568 78.1548 68.28 74.0241C66.302 71.6358 64.0496 69.491 61.57 67.6344C55.24 62.611 46.48 59.8482 33.41 62.8019C28.14 62.9526 25.97 67.6344 24.68 70.99C16.14 53.0566 32.14 47.4907 38.39 41.9851C41.2 39.5438 41.91 35.9571 44.64 34.3597L45.93 33.4254C55.22 27.106 73.71 23.3787 85.73 23.3787C101.118 23.3667 116.179 27.8371 129.09 36.2485C114.175 29.2243 97.4664 26.9921 81.2425 29.8561C65.0185 32.7202 50.0684 40.5411 38.43 52.2529C43.0406 48.8528 48.0859 46.0919 53.43 44.0447C53.4053 44.2986 53.4053 44.5544 53.43 44.8083C53.85 47.2898 56.65 48.8973 59.68 48.3648C62.71 47.8323 64.83 45.3508 64.41 42.8693C64.2817 42.1847 63.9746 41.5467 63.52 41.0207C78.792 37.931 94.6608 40.4829 108.21 48.2074C121.759 55.9318 132.078 68.3097 137.27 83.0661C140.56 92.2314 141.81 102.01 140.932 111.713C140.055 121.416 137.07 130.808 132.19 139.227C140.331 131.686 146.822 122.527 151.253 112.331C155.684 102.136 157.958 91.1267 157.93 80.0018C157.93 35.8165 122.78 0 79.41 0Z" fill="#231F20"/>
</svg>
