<svg xmlns="http://www.w3.org/2000/svg" viewBox="0 0 429.999 429.999" height="429.999" width="429.999"><path d="M354.162 66.013l35.594 296.328-57.306 67.658H154.173c-5.293 0-11.041-.196-17.225-.582-37.266-2.34-63.121-13.789-80.614-47.877-13.9-27.092-16.091-55.451-16.091-85.698 0-25.081 3.358-57.722 16.631-78.951 22.804-36.509 56.688-47.987 97.298-47.987l118.34-.342.024 88.013h-98.463c-27.822 0-31.108 21.166-31.108 42.883 0 18.925 5.563 42.873 29.667 42.873H296.8c9.247 0 13.253 1.141 13.253-8.917l-.262-239.032H43.339l69.806-28.37h35.645c1-5.92 2.66-11.618 4.905-17.013 4.021-9.681 9.93-18.417 17.251-25.739 7.323-7.322 16.06-13.231 25.736-17.251A78.598 78.598 0 0 1 226.903 0a78.577 78.577 0 0 1 30.216 6.009c9.68 4.02 18.413 9.929 25.738 17.251 7.326 7.328 13.228 16.058 17.251 25.739a78.569 78.569 0 0 1 4.907 17.013l49.147.001zm-180.579-.002h106.635a53.658 53.658 0 0 0-2.562-7.737A55.336 55.336 0 0 0 265.7 40.419a55.475 55.475 0 0 0-17.854-11.959 54.403 54.403 0 0 0-20.944-4.188 54.398 54.398 0 0 0-20.946 4.188 55.439 55.439 0 0 0-17.852 11.959 55.379 55.379 0 0 0-11.96 17.855 54.402 54.402 0 0 0-2.561 7.737z" fill="#008db9"/></svg>