<svg width="32" height="32" viewBox="0 0 32 32" fill="none" xmlns="http://www.w3.org/2000/svg">
<path d="M4.17734 14.8555C4.14178 14.8555 4.10622 14.8555 4.07778 14.8626C3.80045 14.8981 3.56578 15.0546 3.43778 15.2964C3.38089 15.2821 3.324 15.2679 3.26 15.2466C3.004 15.1826 2.79067 15.147 2.61289 15.1328H2.50622C2.31422 15.1328 2.108 15.1684 1.90178 15.2395C1.73822 15.2964 1.596 15.3532 1.47511 15.403C1.31156 15.4741 1.16222 15.5595 1.03422 15.659C0.849335 15.8012 0.714224 16.0075 0.600446 16.2848C0.536446 16.4484 0.479557 16.5906 0.422668 16.7257C0.344446 16.9177 0.294668 17.1452 0.266224 17.387C0.244891 17.579 0.230668 17.7568 0.223557 17.9204C0.209335 18.0981 0.209335 18.283 0.223557 18.4608C0.23778 18.7381 0.316002 18.9799 0.458224 19.1932L0.678668 19.5204C0.799557 19.7052 0.984446 19.8759 1.21911 20.0324C1.468 20.1959 1.68134 20.2955 1.89467 20.331C2.00845 20.3524 2.16489 20.3737 2.35689 20.4021C2.53467 20.4306 2.684 20.4377 2.81911 20.4377C2.86889 20.4377 2.91867 20.4377 2.96845 20.4306C3.18178 20.4164 3.39511 20.3452 3.61556 20.2315C3.65822 20.2101 3.69378 20.1888 3.73645 20.1604C3.88578 20.3452 4.11334 20.4448 4.348 20.4448C4.63956 20.4448 5.01645 20.267 5.116 19.7621C5.14445 19.6128 5.15156 19.4066 5.14445 19.0724C5.13734 18.8164 5.12311 18.3186 5.116 17.6004C5.10889 16.8608 5.09467 16.3559 5.07334 16.0857C5.04489 15.7301 5.00934 15.5168 4.93822 15.3532C4.796 15.0475 4.50445 14.8555 4.17734 14.8555ZM2.42089 16.9035H2.72667C2.80489 16.9035 2.89734 16.9106 2.98267 16.9248C3.068 17.003 3.11067 17.0528 3.12489 17.067C3.132 17.0812 3.17467 17.1452 3.26711 17.3586C3.324 17.4866 3.35956 17.6075 3.35956 17.707C3.36667 17.8208 3.35245 17.9275 3.324 18.0341C3.29556 18.1408 3.24578 18.2475 3.17467 18.3612C3.11778 18.4537 3.05378 18.5319 2.97556 18.603C2.91867 18.6457 2.84756 18.6812 2.77645 18.7026C2.75511 18.7097 2.73378 18.7097 2.71245 18.7097C2.69822 18.7097 2.67689 18.7097 2.66267 18.7026C2.53467 18.6741 2.41378 18.6386 2.29289 18.5888C2.18622 18.5461 2.13645 18.5177 2.12222 18.5035L1.93022 18.3541C1.92311 18.2546 1.916 18.0981 1.916 17.8421C1.916 17.6359 1.94445 17.451 2.00134 17.2875C2.03689 17.195 2.108 17.0955 2.22178 16.9959C2.3 16.9604 2.364 16.9319 2.42089 16.9035Z" fill="#E35205"/>
<path d="M5.92615 15.0123C5.78393 15.0123 5.64882 15.0478 5.52082 15.1189C5.27193 15.2611 5.10126 15.5314 5.07282 15.83L5.05859 15.9438V16.0931C5.14393 18.1554 5.20082 19.3998 5.20793 19.5563C5.24348 20.0469 5.47815 20.2603 5.67726 20.3598C5.79104 20.4167 5.91193 20.4452 6.03282 20.4452C6.26748 20.4452 6.49504 20.3385 6.65148 20.1465C6.82926 19.9332 6.87904 19.6629 6.86482 18.9518C6.8577 18.518 6.85059 18.0487 6.85059 17.5652C6.85059 17.2665 6.85059 17.0887 6.84348 16.9607C6.88615 16.9038 6.93593 16.8469 6.99993 16.7971C7.04259 16.7616 7.09948 16.7403 7.1777 16.726C7.23459 16.7118 7.29148 16.7047 7.33415 16.7047C7.36259 16.7047 7.37682 16.7047 7.39104 16.7118C7.41237 16.7189 7.41948 16.7189 7.42659 16.726C7.5617 16.854 7.66126 16.9323 7.7537 16.982C7.77504 16.9963 7.81059 17.0176 7.87459 17.0603C8.05237 17.1883 8.24437 17.2523 8.42926 17.2523C8.67815 17.2523 8.91282 17.1385 9.07637 16.9323C9.2257 16.7403 9.29682 16.4985 9.26126 16.2496C9.2257 15.9865 9.06926 15.7589 8.82748 15.6096C8.79904 15.5954 8.74215 15.5527 8.63548 15.4674C8.45059 15.3109 8.23015 15.1971 7.99548 15.1331C7.8177 15.0834 7.61148 15.0549 7.38393 15.0407H7.26304C7.05682 15.0407 6.85059 15.0691 6.64437 15.1189C6.58037 15.1331 6.51637 15.1545 6.45948 15.1758C6.30304 15.0691 6.11815 15.0051 5.92615 15.0123Z" fill="#E35205"/>
<path d="M10.5488 14.5725C10.3568 14.5725 10.1648 14.6365 9.97278 14.7645L9.95145 14.7787C9.87323 14.8356 9.80923 14.9067 9.76656 14.992L9.75234 15.0134C9.44656 15.6249 9.29012 16.016 9.22612 16.2792C9.17634 16.5067 9.13367 16.7485 9.10523 16.9974C9.07678 17.2534 9.06967 17.488 9.07678 17.6943C9.09101 17.9929 9.18345 18.2774 9.36123 18.5405C9.51767 18.7752 9.69545 18.96 9.90167 19.0952C10.0581 19.2018 10.2288 19.2872 10.3923 19.3654C10.6128 19.4649 10.8332 19.5147 11.0537 19.5147H11.5514C11.8217 19.5147 12.0208 19.4934 12.1772 19.4578C12.355 19.4152 12.5541 19.3156 12.8172 19.152C13.1301 18.9529 13.3506 18.7112 13.4786 18.4267C13.571 18.2205 13.6421 18 13.6848 17.7796C13.7274 17.5592 13.7559 17.296 13.7559 17.0116C13.7559 16.6845 13.6777 16.3005 13.5141 15.8667C13.315 15.3191 13.123 14.9849 12.7532 14.8711C12.4901 14.7929 12.2057 14.8214 11.971 14.9636C11.8074 15.056 11.6866 15.1911 11.6083 15.3618C11.5372 15.5254 11.4946 15.7814 11.6368 16.1156C11.7008 16.2649 11.7861 16.4427 11.8786 16.6347C11.9212 16.7272 11.9497 16.8409 11.9497 16.9689C11.9497 17.1538 11.9354 17.3174 11.907 17.4383C11.8786 17.5805 11.8501 17.6303 11.8501 17.6303C11.8501 17.6374 11.8146 17.6872 11.715 17.7796C11.6794 17.8152 11.6368 17.8365 11.5799 17.8507C11.4732 17.8792 11.3808 17.8934 11.2954 17.8934C11.2172 17.8934 11.139 17.8792 11.0608 17.8578C10.9968 17.8365 10.9399 17.808 10.8901 17.7725C10.8474 17.7369 10.819 17.7085 10.8119 17.7014C10.8048 17.68 10.7906 17.6018 10.7763 17.4525C10.7621 17.2889 10.7763 17.1396 10.8119 17.0045C10.8617 16.8196 10.9257 16.6276 11.0039 16.4285C11.0963 16.208 11.139 16.1298 11.1461 16.1156C11.267 15.952 11.3381 15.7743 11.3594 15.5965C11.3879 15.3831 11.3523 15.184 11.2528 15.0063C11.1248 14.736 10.8474 14.5654 10.5488 14.5725Z" fill="#E35205"/>
<path d="M14.6304 11.5918C14.4384 11.5918 14.2606 11.6558 14.1184 11.7767C13.905 11.9616 13.8695 12.182 13.841 12.4451C13.8197 12.7225 13.8055 13.2345 13.7984 14.0522C13.7842 15.446 13.7699 15.9296 13.7557 16.0931C13.7344 16.3562 13.7202 16.8682 13.713 17.6078C13.7059 18.326 13.6917 18.8238 13.6846 19.0798C13.6704 19.414 13.6775 19.6202 13.713 19.7696C13.8126 20.2674 14.1895 20.4522 14.481 20.4522C14.7157 20.4522 14.9362 20.3456 15.0926 20.1678C15.1353 20.1891 15.1708 20.2176 15.2135 20.2389C15.4339 20.3527 15.6473 20.4238 15.8606 20.438C15.9104 20.4451 15.9602 20.4451 16.0099 20.4451C16.145 20.4451 16.2944 20.4309 16.4722 20.4096C16.6713 20.3811 16.8277 20.3598 16.9344 20.3385C17.1406 20.3029 17.3539 20.2105 17.6099 20.0469C17.8446 19.8905 18.0295 19.7127 18.1504 19.5349L18.3708 19.2078C18.513 18.9945 18.5913 18.7527 18.6055 18.4754C18.6197 18.1198 18.6055 17.7571 18.5628 17.4016C18.5415 17.1598 18.4846 16.9322 18.4064 16.7402C18.3495 16.6051 18.2926 16.4558 18.2286 16.2994C18.1219 16.0149 17.9797 15.8087 17.7948 15.6736C17.6597 15.5669 17.5104 15.4816 17.3539 15.4176C17.233 15.3678 17.0908 15.3109 16.9273 15.254C16.721 15.1829 16.5219 15.1474 16.3228 15.1474H16.2233C16.0455 15.1616 15.8322 15.1971 15.5762 15.2611C15.5335 15.2754 15.4908 15.2825 15.4482 15.2967C15.4482 15.0549 15.4553 14.7634 15.4624 14.3865C15.4837 12.9714 15.505 12.7154 15.5122 12.6727C15.5548 12.3242 15.4482 11.8834 15.0144 11.6985C14.8793 11.6202 14.7513 11.5918 14.6304 11.5918ZM15.8464 16.9109C15.9388 16.8967 16.0242 16.8896 16.1024 16.8896H16.4082C16.465 16.918 16.529 16.9536 16.6002 16.982C16.7139 17.0816 16.7922 17.1811 16.8206 17.2736C16.8775 17.4371 16.9059 17.622 16.9059 17.8282C16.9059 18.0771 16.8988 18.2407 16.8917 18.3402L16.6997 18.4896C16.6855 18.5038 16.6357 18.5322 16.529 18.5749C16.4082 18.6176 16.2873 18.6602 16.1593 18.6887C16.145 18.6958 16.1237 18.6958 16.1095 18.6958C16.0882 18.6958 16.0668 18.6958 16.0455 18.6887C15.9744 18.6674 15.9104 18.6318 15.8464 18.5891C15.8037 18.5536 15.7326 18.4825 15.6473 18.3474C15.5762 18.2336 15.5264 18.1198 15.4979 18.0202C15.4695 17.9136 15.4624 17.8069 15.4624 17.6931C15.4695 17.5936 15.4979 17.4727 15.5548 17.3447C15.6473 17.1385 15.6899 17.0674 15.697 17.0531C15.7255 17.0389 15.761 16.9891 15.8464 16.9109Z" fill="#E35205"/>
<path d="M22.5521 14.8555C22.5166 14.8555 22.481 14.8555 22.4455 14.8626C22.1682 14.8981 21.9406 15.0546 21.8055 15.2892C21.7486 15.275 21.6917 15.2608 21.6277 15.2395C21.3717 15.1755 21.1584 15.1399 20.9806 15.1257H20.8739C20.6748 15.1257 20.4757 15.1612 20.2695 15.2324C20.1059 15.2892 19.9566 15.3461 19.8428 15.3959C19.6793 15.467 19.5299 15.5524 19.4019 15.6519C19.217 15.7941 19.0819 16.0004 18.9682 16.2777C18.9042 16.4412 18.8473 16.5906 18.7904 16.7186C18.7122 16.9106 18.6624 17.1381 18.6339 17.3799C18.5913 17.7355 18.577 18.0981 18.5913 18.4537C18.6055 18.731 18.6837 18.9728 18.8259 19.1861L19.0464 19.5132C19.1673 19.6981 19.3522 19.8688 19.5868 20.0252C19.8357 20.1888 20.049 20.2884 20.2624 20.3168C20.3762 20.3381 20.5326 20.3595 20.7246 20.3879C20.9024 20.4164 21.0517 20.4235 21.1868 20.4235C21.2366 20.4235 21.2864 20.4235 21.3362 20.4164C21.5495 20.4021 21.7628 20.331 21.9833 20.2172C22.0259 20.1959 22.0615 20.1746 22.1042 20.1461C22.2535 20.331 22.481 20.4306 22.7157 20.4306C23.0073 20.4306 23.3841 20.2528 23.4837 19.755C23.5121 19.6057 23.5193 19.3995 23.5121 19.0652C23.505 18.8092 23.4979 18.3257 23.4837 17.5932C23.4766 16.8608 23.4624 16.3488 23.441 16.0786C23.4126 15.723 23.377 15.5097 23.3059 15.3461C23.1708 15.0475 22.8793 14.8555 22.5521 14.8555ZM20.7957 16.9035H21.1015C21.1797 16.9035 21.2722 16.9106 21.3575 16.9248C21.4428 17.003 21.4855 17.0528 21.4997 17.067C21.5068 17.0812 21.5495 17.1452 21.6419 17.3586C21.6988 17.4866 21.7344 17.6075 21.7344 17.707C21.7415 17.8208 21.7273 17.9275 21.6988 18.0341C21.6704 18.1408 21.6206 18.2475 21.5495 18.3612C21.4926 18.4537 21.4286 18.5319 21.3504 18.603C21.2935 18.6528 21.2224 18.6812 21.1513 18.7026C21.1299 18.7097 21.1086 18.7097 21.0873 18.7097C21.073 18.7097 21.0517 18.7097 21.0375 18.7026C20.9095 18.6741 20.7886 18.6386 20.6677 18.5888C20.561 18.5461 20.5113 18.5177 20.497 18.5035L20.305 18.3541C20.2979 18.2546 20.2908 18.0981 20.2908 17.8421C20.2908 17.6359 20.3193 17.451 20.3762 17.2875C20.4117 17.195 20.4828 17.0955 20.5966 16.9959C20.6748 16.9604 20.7388 16.9319 20.7957 16.9035Z" fill="#E35205"/>
<path d="M24.4933 18.3104C24.4293 18.3104 24.3582 18.3247 24.2942 18.346L24.152 18.4029C23.6898 18.5735 23.5333 18.8722 23.4835 19.0927C23.448 19.2491 23.4409 19.4055 23.4622 19.5549C23.4906 19.7327 23.5973 20.0598 24.0453 20.2447C24.1946 20.3087 24.344 20.3371 24.4933 20.3371C24.6 20.3371 24.7066 20.3229 24.8062 20.2873C25.0053 20.2233 25.176 20.1095 25.304 19.9531C25.4889 19.7327 25.5529 19.4482 25.4817 19.1638C25.4249 18.9362 25.2897 18.7371 25.0977 18.602C25.0337 18.5593 24.9769 18.5167 24.92 18.4882C24.8915 18.4598 24.8631 18.4313 24.8275 18.4029C24.7209 18.346 24.6071 18.3104 24.4933 18.3104ZM26.3849 12.9629C26.1715 12.9629 25.9724 13.0198 25.7875 13.1336C25.5955 13.2544 25.4533 13.4109 25.3751 13.6029C25.3182 13.7309 25.2897 13.866 25.2684 14.0153C25.2542 14.122 25.2542 14.2216 25.2542 14.3211C25.2542 14.4989 25.2897 14.6624 25.368 14.8118C25.4106 14.89 25.4533 14.9682 25.5031 15.0464C25.5529 15.1176 25.6169 15.2029 25.7022 15.3096L25.7164 15.3309C25.7235 15.338 25.7306 15.3522 25.7377 15.3593C25.7235 15.4376 25.7164 15.5229 25.7164 15.6082C25.7164 15.7576 25.7377 15.8998 25.7804 16.0349C25.9226 17.7558 25.9937 18.7015 26.008 18.8153C26.0435 19.2633 26.3066 19.4767 26.456 19.562C26.5982 19.6402 26.7404 19.6829 26.8897 19.6829C27.032 19.6829 27.1742 19.6402 27.3022 19.5691C27.4373 19.4909 27.6649 19.2918 27.7075 18.8793C27.7146 18.7869 27.7289 18.6802 27.5866 17.1158C27.4657 15.7718 27.4302 15.4873 27.416 15.3949C27.4017 15.3238 27.3875 15.2527 27.3591 15.1887C27.416 15.1104 27.4657 15.018 27.5155 14.9113C27.6222 14.6624 27.672 14.4207 27.6506 14.186C27.6364 13.9584 27.5724 13.7522 27.4729 13.5673C27.3449 13.3327 27.1315 13.1478 26.8826 13.0482C26.7049 12.9913 26.5413 12.9629 26.3849 12.9629Z" fill="#E35205"/>
<path d="M29.8055 12.0469C29.5709 12.0469 29.3504 12.1464 29.1726 12.3242C28.9451 12.5518 28.8882 12.8433 28.9024 13.6327L28.9238 14.4789C28.1344 14.55 28.0491 14.5927 27.9282 14.6709C27.6438 14.8344 27.4873 15.1047 27.4873 15.4033C27.4873 15.574 27.5442 15.7375 27.6509 15.8727C27.7433 15.9935 27.9282 16.1429 28.2411 16.1784C28.2909 16.1855 28.3406 16.1855 28.4046 16.1855C28.5255 16.1855 28.6891 16.1784 28.9166 16.1571C28.9238 16.4344 28.9238 16.79 28.9309 17.2167C28.9522 18.5251 28.9451 18.9589 28.938 19.094C28.9166 19.4495 28.9593 19.6984 29.0731 19.8904C29.2366 20.1749 29.4998 20.3313 29.7913 20.3313C30.0046 20.3313 30.3033 20.246 30.538 19.8478C30.6731 19.6131 30.7158 19.2931 30.6944 18.6602C30.6802 18.2264 30.6731 17.6007 30.6802 16.8042C30.6802 16.4984 30.6873 16.2424 30.6873 16.0504H30.7584C31.1424 16.0504 31.4411 15.9367 31.6331 15.7162C31.9602 15.3464 31.882 14.9127 31.6686 14.6495C31.5478 14.5073 31.3202 14.3295 30.9291 14.3295H30.8793C30.8224 14.3295 30.7584 14.3367 30.6873 14.3367C30.6873 14.2798 30.6873 14.2158 30.6802 14.1447C30.6731 13.6042 30.6589 13.2415 30.6304 13.0069C30.6162 12.8789 30.5949 12.7224 30.538 12.566C30.4313 12.2815 30.2109 12.0967 29.9335 12.0611C29.8838 12.0469 29.8411 12.0469 29.8055 12.0469Z" fill="#E35205"/>
<path d="M4.34827 19.8762C4.28427 19.8762 4.18472 19.8478 4.11361 19.7056C4.08516 19.6487 4.05672 19.5278 4.04961 19.0798L3.74383 19.414C3.63005 19.542 3.49494 19.6416 3.34561 19.7198C3.21761 19.798 3.06827 19.8407 2.91894 19.8549C2.79094 19.862 2.6345 19.8549 2.43538 19.8265C2.24338 19.798 2.09405 19.7767 1.98027 19.7553C1.85227 19.734 1.71005 19.67 1.53227 19.5491C1.3545 19.4353 1.2265 19.3145 1.14827 19.1936L0.927829 18.8665C0.842496 18.7456 0.799829 18.5891 0.785607 18.4185C0.778496 18.262 0.778496 18.0985 0.785607 17.942C0.792718 17.7856 0.80694 17.6149 0.828273 17.43C0.849607 17.238 0.885162 17.0673 0.942051 16.9251C0.99894 16.79 1.05583 16.6407 1.11983 16.4771C1.19094 16.2922 1.27627 16.1642 1.36872 16.0931C1.46116 16.022 1.56072 15.9651 1.68161 15.9153C1.79538 15.8656 1.9305 15.8158 2.07983 15.766C2.2505 15.7091 2.40694 15.6807 2.55627 15.6949C2.6985 15.702 2.88338 15.7376 3.10383 15.7945C3.33138 15.8513 3.50916 15.9153 3.64427 15.9793C3.72961 16.022 3.81494 16.0789 3.87894 16.1429C3.87183 16.0576 3.86472 15.9865 3.85761 15.9225C3.8505 15.8087 3.85761 15.702 3.89316 15.6167C3.93583 15.51 4.02116 15.4389 4.12783 15.4247C4.24872 15.4105 4.34827 15.4745 4.40516 15.5953C4.44783 15.6878 4.47627 15.8656 4.49761 16.1358C4.51894 16.3918 4.53316 16.8896 4.54027 17.6149C4.54738 18.3402 4.56161 18.838 4.56872 19.1011C4.57583 19.3785 4.57583 19.5562 4.5545 19.6558C4.52605 19.8478 4.41227 19.8762 4.34827 19.8762ZM1.46116 17.1029C1.38294 17.3233 1.34738 17.5793 1.34738 17.8425C1.34738 18.1198 1.3545 18.3331 1.37583 18.4825C1.39005 18.6033 1.43272 18.6887 1.49672 18.7313C1.58916 18.7953 1.68161 18.8665 1.77405 18.9376C1.85227 19.0016 1.96605 19.0585 2.10116 19.1153C2.24338 19.1651 2.38561 19.2149 2.53494 19.2505C2.67005 19.2789 2.80516 19.2789 2.94738 19.2362C3.08961 19.1936 3.21761 19.1296 3.33138 19.0371C3.45938 18.9305 3.57316 18.7953 3.6585 18.6531C3.75805 18.4896 3.83627 18.326 3.87894 18.1625C3.92161 17.9989 3.93583 17.8353 3.92872 17.6647C3.92161 17.494 3.87183 17.3091 3.7865 17.1171C3.67983 16.8682 3.61583 16.7616 3.58027 16.7189C3.5305 16.6549 3.45938 16.5767 3.35983 16.4913C3.28161 16.4202 3.18205 16.3705 3.07538 16.3562C2.9545 16.342 2.83361 16.3278 2.71983 16.3278H2.3785C2.27183 16.3278 2.21494 16.3491 2.19361 16.3633C2.13672 16.3989 2.04427 16.4487 1.91627 16.5056C1.68872 16.6905 1.53938 16.8967 1.46116 17.1029ZM6.03361 19.8762C5.99805 19.8762 5.96961 19.8691 5.93405 19.8549C5.84161 19.8122 5.79183 19.6985 5.77761 19.5207C5.7705 19.3856 5.72072 18.2762 5.62827 16.0718V16.0007L5.6425 15.8869C5.65672 15.7731 5.71361 15.6665 5.81316 15.6167C5.85583 15.5953 5.89139 15.5811 5.93405 15.5811C6.01939 15.5811 6.11183 15.6096 6.1545 15.6878C6.21139 15.8087 6.20427 15.9793 6.2185 16.0291C6.23983 16.0078 6.26116 15.9793 6.28961 15.9509C6.4105 15.8158 6.57405 15.7233 6.78027 15.6736C6.97227 15.6238 7.16427 15.6096 7.35627 15.6167C7.54116 15.6238 7.71183 15.6522 7.85405 15.6878C8.0105 15.7305 8.15272 15.8087 8.27361 15.9082C8.37316 15.9936 8.4585 16.0576 8.5225 16.0931C8.62205 16.1571 8.67894 16.2353 8.69316 16.3349C8.70738 16.4273 8.68605 16.5127 8.62916 16.5838C8.55805 16.6762 8.47983 16.6905 8.42294 16.6905C8.35183 16.6905 8.28072 16.662 8.19538 16.6051C8.13138 16.5625 8.08161 16.5269 8.03894 16.4985C7.98916 16.47 7.91094 16.406 7.80427 16.3065C7.71894 16.2282 7.61227 16.1785 7.4985 16.1571C7.37761 16.1358 7.22827 16.1358 7.06472 16.1713C6.90116 16.2069 6.75894 16.2638 6.64516 16.3562C6.53139 16.4487 6.43183 16.5553 6.35361 16.6691C6.29672 16.7616 6.27539 16.8042 6.26116 16.8185C6.26827 16.9038 6.27538 17.0887 6.27538 17.5651C6.27538 18.0558 6.2825 18.5322 6.28961 18.966C6.30383 19.6202 6.25405 19.734 6.21138 19.7838C6.16872 19.8478 6.10472 19.8762 6.03361 19.8762ZM11.5589 18.9447H11.0612C10.9189 18.9447 10.7767 18.9091 10.6274 18.8451C10.4852 18.7811 10.3501 18.71 10.2221 18.6247C10.0869 18.5322 9.95894 18.3971 9.83805 18.2336C9.72427 18.07 9.66027 17.8851 9.65316 17.686C9.64605 17.5082 9.65316 17.302 9.68161 17.0745C9.71005 16.8469 9.74561 16.6265 9.78827 16.4202C9.83805 16.2069 9.9945 15.8371 10.2647 15.2825L10.2789 15.2611L10.3003 15.2469C10.3927 15.1829 10.4709 15.1545 10.5492 15.1545C10.6416 15.1545 10.7198 15.2042 10.7625 15.2825C10.7981 15.3536 10.8123 15.4318 10.8052 15.5242C10.7909 15.6096 10.7554 15.702 10.6914 15.7873C10.6558 15.8371 10.5918 15.9438 10.4852 16.214C10.3998 16.4345 10.3216 16.6549 10.2718 16.8611C10.2221 17.0602 10.2007 17.2736 10.2221 17.494C10.2434 17.7713 10.2861 17.8993 10.3216 17.9562C10.3714 18.0416 10.4496 18.134 10.5492 18.2122C10.6558 18.2976 10.7767 18.3616 10.9047 18.3971C11.1678 18.4753 11.4381 18.4753 11.7367 18.3971C11.8789 18.3616 12.0069 18.2905 12.1136 18.1909C12.2203 18.0913 12.3056 17.9989 12.3554 17.9136C12.4052 17.8282 12.4478 17.7073 12.4763 17.5509C12.5118 17.3873 12.5261 17.1882 12.5261 16.9607C12.5261 16.7402 12.4834 16.5411 12.3981 16.3705C12.3056 16.1856 12.2274 16.0149 12.1634 15.8727C12.0425 15.5953 12.1847 15.4816 12.2487 15.446C12.3625 15.382 12.4834 15.3678 12.5901 15.4033C12.6825 15.4318 12.7892 15.5313 12.9812 16.0505C13.1163 16.4273 13.1874 16.7473 13.1874 17.0033C13.1874 17.2522 13.1661 17.4727 13.1305 17.6576C13.0949 17.8425 13.0381 18.0202 12.9598 18.1909C12.8816 18.3687 12.7323 18.5322 12.5118 18.6673C12.3056 18.8025 12.1492 18.8807 12.0354 18.9091C11.9358 18.9305 11.7794 18.9447 11.5589 18.9447ZM14.4887 19.8691C14.4247 19.8691 14.3109 19.8407 14.2754 19.6487C14.2541 19.5491 14.2469 19.3642 14.2612 19.094C14.2683 18.8309 14.2825 18.3331 14.2896 17.6078C14.2967 16.8825 14.3109 16.3847 14.3323 16.1287C14.3536 15.8798 14.3607 15.1758 14.3749 14.0522C14.3892 12.3029 14.4389 12.2602 14.4887 12.2105C14.5385 12.1678 14.6381 12.1251 14.7874 12.1962C14.8798 12.2389 14.9794 12.3313 14.9509 12.5802C14.9367 12.7225 14.9154 13.3198 14.8941 14.3509C14.8727 15.382 14.8727 16.0007 14.8798 16.1927C14.9652 16.1002 15.0576 16.0291 15.1785 15.9722C15.3136 15.9082 15.4914 15.8442 15.7189 15.7873C15.9394 15.7305 16.1243 15.702 16.2665 15.6878C16.4158 15.6807 16.5794 15.702 16.7429 15.7589C16.8994 15.8158 17.0345 15.8656 17.1412 15.9082C17.2621 15.958 17.3616 16.0149 17.4541 16.086C17.5536 16.1642 17.6318 16.2922 17.7029 16.47C17.7669 16.6336 17.8238 16.7829 17.8807 16.918C17.9376 17.0602 17.9803 17.2309 17.9945 17.4229C18.0158 17.6078 18.0301 17.7785 18.0372 17.9349C18.0443 18.0913 18.0443 18.2549 18.0372 18.4113C18.0301 18.582 17.9803 18.7385 17.8949 18.8593L17.6745 19.1865C17.5963 19.3073 17.4683 19.4282 17.2905 19.542C17.1127 19.6629 16.9634 19.7269 16.8425 19.7482C16.7358 19.7696 16.5865 19.7909 16.3874 19.8193C16.1883 19.8478 16.0247 19.8549 15.9038 19.8478C15.7687 19.8407 15.6265 19.7909 15.4772 19.7127C15.3278 19.6345 15.1998 19.5278 15.0789 19.4069L14.7732 19.0727C14.7661 19.5207 14.7376 19.6416 14.7092 19.6985C14.6452 19.8407 14.5527 19.8691 14.4887 19.8691ZM16.1101 16.3278C15.9963 16.3278 15.8825 16.3349 15.7545 16.3562C15.6478 16.3705 15.5554 16.4131 15.4701 16.4913C15.3776 16.5767 15.2994 16.6549 15.2496 16.7189C15.2141 16.7616 15.1501 16.8682 15.0434 17.1171C14.9581 17.3162 14.9083 17.5011 14.9012 17.6647C14.8941 17.8353 14.9083 18.006 14.9509 18.1625C14.9936 18.326 15.0647 18.4896 15.1714 18.6531C15.2567 18.7953 15.3705 18.9305 15.4985 19.0371C15.6123 19.1296 15.7474 19.1936 15.8825 19.2362C16.0176 19.2789 16.1527 19.2789 16.2949 19.2505C16.4443 19.2149 16.5936 19.1722 16.7287 19.1153C16.8638 19.0656 16.9705 19.0087 17.0558 18.9376C17.1483 18.8665 17.2407 18.7953 17.3332 18.7313C17.3972 18.6887 17.4398 18.6033 17.4541 18.4825C17.4683 18.3331 17.4825 18.1127 17.4825 17.8425C17.4825 17.5722 17.4398 17.3233 17.3687 17.1029C17.2976 16.8896 17.1412 16.6905 16.9136 16.5056C16.7856 16.4487 16.6932 16.406 16.6363 16.3633C16.6078 16.3491 16.5581 16.3278 16.4514 16.3278H16.1101ZM22.7234 19.8762C22.6594 19.8762 22.5598 19.8478 22.4887 19.7056C22.4603 19.6487 22.4318 19.5278 22.4247 19.0798L22.1189 19.414C22.0052 19.542 21.87 19.6416 21.7207 19.7198C21.5927 19.798 21.4434 19.8407 21.294 19.8549C21.166 19.862 21.0096 19.8549 20.8105 19.8265C20.6185 19.798 20.4692 19.7767 20.3554 19.7553C20.2274 19.734 20.0852 19.67 19.9074 19.5491C19.7296 19.4353 19.6016 19.3145 19.5234 19.1936L19.3029 18.8665C19.2176 18.7385 19.1749 18.5891 19.1607 18.4185C19.1536 18.262 19.1536 18.0985 19.1607 17.942C19.1678 17.7856 19.1821 17.6149 19.2034 17.43C19.2247 17.238 19.2603 17.0673 19.3172 16.9251C19.3741 16.79 19.4309 16.6407 19.4949 16.4771C19.5661 16.2922 19.6514 16.1642 19.7438 16.0931C19.8363 16.022 19.9358 15.9651 20.0567 15.9153C20.1705 15.8656 20.3056 15.8158 20.4549 15.766C20.6256 15.7091 20.7821 15.6807 20.9314 15.6949C21.0736 15.702 21.2585 15.7376 21.4789 15.7945C21.7065 15.8513 21.8843 15.9153 22.0194 15.9793C22.1047 16.022 22.19 16.0789 22.254 16.1429C22.2469 16.0576 22.2398 15.9865 22.2327 15.9225C22.2256 15.8087 22.2327 15.702 22.2683 15.6167C22.3109 15.51 22.3963 15.4389 22.5029 15.4247C22.6238 15.4105 22.7234 15.4745 22.7803 15.5953C22.8229 15.6878 22.8514 15.8656 22.8727 16.1358C22.8941 16.3918 22.9083 16.8896 22.9154 17.6149C22.9225 18.3545 22.9367 18.838 22.9438 19.1011C22.9509 19.3785 22.9509 19.5562 22.9296 19.6558C22.9012 19.8478 22.7874 19.8762 22.7234 19.8762ZM19.8434 17.1029C19.7652 17.3233 19.7296 17.5793 19.7296 17.8425C19.7296 18.1198 19.7367 18.3331 19.7581 18.4825C19.7723 18.6033 19.8149 18.6887 19.8789 18.7313C19.9714 18.7953 20.0638 18.8665 20.1563 18.9376C20.2345 19.0016 20.3483 19.0585 20.4834 19.1153C20.6256 19.1651 20.7678 19.2149 20.9172 19.2505C21.0523 19.2789 21.1874 19.2789 21.3296 19.2362C21.4718 19.1936 21.5998 19.1296 21.7136 19.0371C21.8416 18.9305 21.9554 18.7953 22.0407 18.6531C22.1403 18.4896 22.2185 18.326 22.2612 18.1625C22.3038 17.9989 22.3181 17.8353 22.3109 17.6647C22.3038 17.494 22.2541 17.3091 22.1687 17.1171C22.0621 16.8682 21.9981 16.7616 21.9625 16.7189C21.9127 16.6549 21.8416 16.5767 21.7421 16.4913C21.6638 16.4202 21.5643 16.3705 21.4576 16.3562C21.3367 16.342 21.2158 16.3278 21.1021 16.3278H20.7607C20.654 16.3278 20.5972 16.3491 20.5758 16.3633C20.5189 16.3989 20.4265 16.4487 20.2985 16.5056C20.0709 16.6905 19.9145 16.8967 19.8434 17.1029ZM24.4941 19.7696C24.4229 19.7696 24.3447 19.7553 24.2665 19.7198C24.1243 19.6558 24.0389 19.5776 24.0247 19.4709C24.0105 19.3927 24.0176 19.3073 24.0389 19.2149C24.0674 19.094 24.1669 19.0016 24.3518 18.9305L24.4941 18.8736V18.9518C24.5225 18.9518 24.5509 18.9589 24.5794 18.966C24.6292 18.9802 24.6861 19.0087 24.7643 19.0656C24.8496 19.1296 24.9065 19.2078 24.9278 19.3002C24.9563 19.4069 24.9349 19.5065 24.8638 19.5847C24.8069 19.6558 24.7216 19.7056 24.6221 19.7411C24.5794 19.7625 24.5367 19.7696 24.4941 19.7696ZM26.8905 19.1153C26.8478 19.1153 26.7981 19.1011 26.7341 19.0727C26.6416 19.0158 26.5847 18.9162 26.5705 18.774C26.5634 18.6673 26.4852 17.7145 26.3429 15.9296C26.3074 15.83 26.2861 15.7305 26.2861 15.6167C26.2861 15.4887 26.3145 15.3962 26.3643 15.3322C26.4069 15.2825 26.4781 15.2256 26.6132 15.2256C26.6914 15.2256 26.8194 15.2611 26.8549 15.4958C26.8763 15.6167 26.9261 16.1713 27.0185 17.1811C27.1394 18.5322 27.1465 18.774 27.1394 18.838C27.1252 18.966 27.0825 19.0513 27.0043 19.094C26.9758 19.1011 26.9332 19.1153 26.8905 19.1153ZM26.4709 15.0549C26.3856 15.0549 26.2861 15.0336 26.1865 14.9909L26.1581 14.9838L26.1438 14.9625C26.0727 14.87 26.0158 14.7918 25.9732 14.7349C25.9376 14.678 25.9021 14.6211 25.8736 14.5571C25.8381 14.486 25.8238 14.4078 25.8238 14.3153C25.8238 14.2371 25.8309 14.1589 25.8381 14.0736C25.8452 13.9811 25.8665 13.8958 25.9021 13.8247C25.9376 13.7393 26.0016 13.6682 26.0941 13.6113C26.2647 13.5047 26.4567 13.5047 26.6914 13.59C26.8194 13.6327 26.9118 13.718 26.9829 13.846C27.0469 13.9598 27.0825 14.0878 27.0896 14.23C27.0967 14.3722 27.0683 14.5287 26.9972 14.6922C26.9189 14.87 26.8336 14.9696 26.7341 15.0051C26.6416 15.0336 26.5563 15.0549 26.4709 15.0549ZM26.4141 14.5287C26.4496 14.55 26.4994 14.55 26.5349 14.5287C26.5349 14.5287 26.5563 14.5145 26.5918 14.4362C26.6203 14.3722 26.6274 14.3225 26.6274 14.2727C26.6203 14.2158 26.6061 14.166 26.5847 14.1233C26.5705 14.0949 26.5492 14.0736 26.5207 14.0665C26.4567 14.038 26.4069 14.0309 26.3643 14.0593C26.3429 14.0736 26.3358 14.0878 26.3287 14.102C26.3216 14.1233 26.3145 14.1518 26.3145 14.1802V14.3011C26.3145 14.3296 26.3145 14.358 26.3216 14.3722C26.3287 14.3936 26.3358 14.4149 26.3501 14.4362C26.3572 14.4505 26.3785 14.4789 26.4141 14.5287ZM29.7847 19.7696C29.7207 19.7696 29.6354 19.7411 29.5572 19.6131C29.5074 19.5207 29.4861 19.3713 29.5003 19.1296C29.5145 18.9233 29.5074 18.2762 29.4932 17.2096C29.4789 16.3136 29.4718 15.7376 29.4718 15.5598C29.4221 15.5527 29.3012 15.5456 29.0309 15.574C28.6469 15.6167 28.4052 15.6238 28.2985 15.6167C28.0781 15.5882 28.0567 15.4602 28.0567 15.4033C28.0567 15.3322 28.0852 15.2398 28.2132 15.1616C28.2558 15.1331 28.3341 15.0905 29.5145 15.0051C29.4932 14.5429 29.4789 14.0807 29.4718 13.6256C29.4576 12.9073 29.5216 12.7865 29.5785 12.7296C29.6852 12.6229 29.7847 12.6158 29.8487 12.6229C30.0052 12.6442 30.0407 12.8576 30.0621 13.0638C30.0834 13.2842 30.0976 13.6469 30.1047 14.1589C30.1118 14.678 30.1261 14.8629 30.1332 14.9269C30.1616 14.934 30.2327 14.9411 30.3821 14.934C30.5954 14.9198 30.7661 14.9127 30.8869 14.9056C31.0434 14.8985 31.1501 14.9411 31.2212 15.0193C31.2567 15.062 31.3349 15.19 31.1927 15.3465C31.1074 15.4389 30.9652 15.4887 30.7447 15.4887C30.5669 15.4887 30.3963 15.4958 30.2469 15.5029C30.1687 15.51 30.1332 15.5171 30.1118 15.5242C30.1118 15.638 30.1047 16.0433 30.0976 16.8042C30.0905 17.6149 30.0905 18.2478 30.1118 18.6958C30.1403 19.3145 30.0834 19.4922 30.0336 19.5705C29.9838 19.6487 29.9056 19.7696 29.7847 19.7696Z" fill="white"/>
</svg>
