<svg width="40" height="40" viewBox="0 0 40 40" fill="none" xmlns="http://www.w3.org/2000/svg">
<path d="M0 0H40V40H0V0Z" fill="#FFF000"/>
<path d="M25.1458 17.7878V20.3342L14.5257 20.3411V17.7947C14.5257 13.1841 16.0128 11.3439 19.8357 11.2217C23.6587 11.3439 25.1458 13.1841 25.1458 17.7879V17.7878ZM27.2779 6.0678C25.3223 4.99492 23.0951 4.45169 19.8357 4.45169C16.5764 4.45169 14.3423 4.99492 12.4003 6.061C8.5909 8.05737 6.64207 11.826 6.64207 17.2651V34.9064C6.64207 35.3478 7.00196 35.7145 7.45012 35.7145H13.7176C14.159 35.7145 14.5257 35.3478 14.5257 34.9064V27.1043H25.1458V34.9064C25.1458 35.3478 25.5057 35.7145 25.947 35.7145H32.2213C32.6627 35.7145 33.0158 35.3478 33.0158 34.9064L33.0227 17.2583C33.0227 11.8192 31.0875 8.05057 27.2781 6.0678" fill="#211E1E"/>
</svg>
