<svg width="32" height="32" viewBox="0 0 32 32" fill="none" xmlns="http://www.w3.org/2000/svg">
<path d="M16 0.817021C18.05 0.817021 20.0383 1.21838 21.9095 2.00987C23.7174 2.77454 25.3412 3.86948 26.7359 5.26414C28.1306 6.65879 29.2255 8.28262 29.9902 10.0905C30.7816 11.9617 31.183 13.95 31.183 16C31.183 18.0501 30.7816 20.0385 29.9901 21.9099C29.2255 23.7178 28.1305 25.3415 26.7359 26.7362C25.3413 28.1308 23.7174 29.2256 21.9095 29.9903C20.0383 30.7816 18.05 31.183 16 31.183C13.95 31.183 11.9617 30.7816 10.0905 29.9902C8.28262 29.2256 6.65879 28.1307 5.26414 26.7361C3.86948 25.3415 2.7746 23.7177 2.00994 21.9098C1.21838 20.0385 0.817021 18.0501 0.817021 16C0.817021 13.95 1.21838 11.9617 2.00987 10.0905C2.77454 8.28262 3.86948 6.65879 5.26414 5.26414C6.65879 3.86948 8.28262 2.7746 10.0905 2.00987C11.9617 1.21838 13.95 0.817021 16 0.817021ZM16 0C7.16371 0 0 7.16371 0 16C0 24.837 7.16371 32 16 32C24.8363 32 32 24.837 32 16C32 7.16371 24.8363 0 16 0Z" fill="url(#paint0_linear_2207_82)"/>
<path d="M15.8096 7.09807C15.8094 7.09793 15.8085 7.09779 15.8083 7.09766C13.0989 12.817 10.3891 18.5387 7.67969 24.2595C8.84074 24.2595 10.002 24.2595 11.1631 24.2595C13.3563 19.8297 15.5491 15.4008 17.7423 10.9724L15.8096 7.09807Z" fill="url(#paint1_linear_2207_82)"/>
<path d="M19.419 14.1934C18.3013 16.5155 17.1826 18.8381 16.0643 21.1616L16 21.2903H16.0643C17.1394 21.2903 18.2154 21.2903 19.2904 21.2903C19.7203 22.2787 20.1503 23.2686 20.5809 24.2585C21.8279 24.2585 23.0752 24.2585 24.3222 24.2585C22.6886 20.9031 21.0534 17.5472 19.419 14.1934Z" fill="url(#paint2_linear_2207_82)"/>
<defs>
<linearGradient id="paint0_linear_2207_82" x1="4.10961" y1="26.7063" x2="27.8904" y2="5.29401" gradientUnits="userSpaceOnUse">
<stop stop-color="#5437DC"/>
<stop offset="1" stop-color="#EE79FF"/>
</linearGradient>
<linearGradient id="paint1_linear_2207_82" x1="7.67976" y1="15.6786" x2="17.7424" y2="15.6786" gradientUnits="userSpaceOnUse">
<stop stop-color="#5437DC"/>
<stop offset="1" stop-color="#EE79FF"/>
</linearGradient>
<linearGradient id="paint2_linear_2207_82" x1="15.9999" y1="19.2259" x2="24.3221" y2="19.2259" gradientUnits="userSpaceOnUse">
<stop stop-color="#5437DC"/>
<stop offset="1" stop-color="#EE79FF"/>
</linearGradient>
</defs>
</svg>
