<svg width="32" height="32" viewBox="0 0 32 32" fill="none" xmlns="http://www.w3.org/2000/svg">
<path fill-rule="evenodd" clip-rule="evenodd" d="M20.3687 2.57583C20.6079 2.87281 20.73 3.27367 20.9739 4.07503L26.3043 21.5852C24.302 20.5463 22.1531 19.8187 19.9316 19.4277L16.4611 7.69964C16.4334 7.60608 16.3763 7.52398 16.298 7.46564C16.2198 7.40729 16.1248 7.37583 16.0272 7.37596C15.9297 7.37611 15.8347 7.40784 15.7567 7.4664C15.6787 7.52497 15.6218 7.60724 15.5943 7.70087L12.1658 19.4218C9.93423 19.8109 7.77545 20.5397 5.76455 21.5826L11.1209 4.07109C11.3657 3.27084 11.488 2.87084 11.7273 2.57447C11.9385 2.31271 12.2132 2.1094 12.5253 1.98395C12.8788 1.84192 13.2971 1.84192 14.1339 1.84192H17.9598C18.7975 1.84192 19.2165 1.84192 19.5702 1.98432C19.8826 2.10998 20.1575 2.31364 20.3687 2.57583Z" fill="black"/>
<path fill-rule="evenodd" clip-rule="evenodd" d="M21.0065 22.4185C20.1277 23.1699 18.3739 23.6823 16.3537 23.6823C13.8741 23.6823 11.7958 22.9103 11.2444 21.8722C11.0473 22.4673 11.003 23.1481 11.003 23.5832C11.003 23.5832 10.8731 25.7192 12.3588 27.2049C12.3588 26.4334 12.9841 25.8081 13.7556 25.8081C15.0778 25.8081 15.0763 26.9617 15.0751 27.8975V27.9811C15.0751 29.4017 15.9433 30.6194 17.178 31.1326C16.9879 30.7415 16.8895 30.3122 16.8901 29.8772C16.8901 28.5224 17.6855 28.0179 18.6098 27.4317C19.3455 26.9652 20.1626 26.447 20.7258 25.4072C21.0292 24.8472 21.1876 24.2201 21.1866 23.5832C21.1866 23.1772 21.1234 22.7858 21.0065 22.4185Z" fill="#EF3B06"/>
</svg>
