<svg width="32" height="32" viewBox="0 0 32 32" fill="none" xmlns="http://www.w3.org/2000/svg">
<path fill-rule="evenodd" clip-rule="evenodd" d="M16.9589 6.70499L13.7497 14.9344H20.149L21.8356 19.3831H12.0753L10.1294 24.3209H5.39752L14.6217 0.349609L16.9589 6.70499Z" fill="#898989"/>
<path fill-rule="evenodd" clip-rule="evenodd" d="M29.6315 27.6356V27.3246L29.6403 26.9888L29.4086 27.6356H29.3373L29.106 26.9906L29.1153 27.3246V27.6356H29.0223V26.837H29.1425L29.3732 27.4886L29.6038 26.837H29.7247V27.6356H29.6315ZM28.6874 27.6356H28.5947V26.923H28.3684V26.837H28.9142V26.923H28.6874V27.6356ZM24.6466 26.8893H27.6619V27.1867H24.978V28.9908H27.3242V29.2752H24.978V31.1828H27.7204V31.4804H24.6466V26.8893V26.8893ZM16.565 0.338745H17.5382L26.6155 24.3335L25.6271 24.3293L16.565 0.338745ZM17.6478 31.2087C17.9599 31.2087 18.2187 31.1505 18.4244 31.0342C18.6229 30.9246 18.7906 30.7666 18.9119 30.575C19.0344 30.3764 19.1203 30.1574 19.1652 29.9284C19.2149 29.688 19.24 29.4432 19.2401 29.1977V26.8893H19.5714V29.1977C19.5726 29.4938 19.5388 29.789 19.4706 30.0772C19.41 30.3428 19.2985 30.5941 19.1424 30.8174C18.9894 31.0321 18.7865 31.2064 18.5512 31.3252C18.3085 31.4502 18.0095 31.5126 17.6543 31.5126C17.2861 31.5126 16.9785 31.4468 16.7315 31.3154C16.4936 31.192 16.2894 31.0122 16.1369 30.7917C15.9846 30.5674 15.8765 30.3161 15.8185 30.0512C15.7552 29.7711 15.7236 29.4848 15.7242 29.1977V26.8893H16.0557V29.1977C16.0552 29.4475 16.0802 29.6967 16.1304 29.9414C16.1752 30.1704 16.2635 30.3888 16.3904 30.5847C16.5148 30.7732 16.6832 30.9285 16.8811 31.0374C17.0847 31.1517 17.3403 31.2089 17.6478 31.2087ZM13.3913 31.4804H13.0599V27.1867H11.3703V26.8893H15.0809V27.1867H13.3913V31.4804ZM10.6002 31.2119C10.4421 31.319 10.266 31.3968 10.0803 31.4414C9.86028 31.4954 9.6343 31.5215 9.40772 31.5191C8.68849 31.5191 8.07978 31.2906 7.5816 30.8336L7.75708 30.5686C7.95981 30.7765 8.20314 30.9405 8.47195 31.0503C8.75345 31.1689 9.06971 31.2282 9.42072 31.2281C9.82368 31.2281 10.1389 31.1548 10.3663 31.0082C10.5937 30.8616 10.7074 30.6396 10.7074 30.3422C10.7074 30.1913 10.6771 30.0631 10.6165 29.9575C10.5498 29.8457 10.4573 29.7515 10.3467 29.6827C10.2275 29.605 10.077 29.5382 9.89513 29.4822C9.7131 29.4263 9.5008 29.3725 9.25823 29.3206C9.01133 29.2688 8.79363 29.2139 8.60514 29.1558C8.41665 29.0976 8.25851 29.0243 8.13072 28.9358C8.00933 28.8547 7.90998 28.7447 7.84156 28.6157C7.77659 28.4907 7.74409 28.3334 7.74407 28.1437C7.74407 27.9367 7.78414 27.7536 7.86428 27.5942C7.94362 27.4357 8.05808 27.2974 8.19895 27.1899C8.35256 27.0748 8.52686 26.9903 8.71238 26.941C8.92842 26.8828 9.15143 26.8545 9.37517 26.8569C9.67414 26.8569 9.9406 26.9011 10.1745 26.9895C10.4118 27.0801 10.6284 27.2175 10.8114 27.3936L10.6425 27.6523C10.3435 27.3204 9.92108 27.1544 9.3752 27.1543C8.9246 27.1543 8.59643 27.2395 8.39072 27.4098C8.18501 27.5801 8.08212 27.8097 8.08205 28.0985C8.08205 28.245 8.10803 28.3668 8.16 28.4638C8.21786 28.5669 8.30195 28.6527 8.40372 28.7127C8.51422 28.7817 8.65395 28.8399 8.8229 28.8873C8.99185 28.9347 9.19546 28.9843 9.43373 29.0361C9.68072 29.0878 9.90492 29.1449 10.1063 29.2073C10.3077 29.2697 10.4789 29.3484 10.6198 29.4434C10.7545 29.532 10.866 29.6517 10.9446 29.7926C11.0204 29.9307 11.0583 30.101 11.0584 30.3035C11.0584 30.5062 11.0183 30.6829 10.9382 30.8336C10.8576 30.9851 10.7416 31.1148 10.6002 31.2119H10.6002ZM6.33388 29.9671H4.1309L3.48756 31.4804H3.13007L5.09274 26.8893H5.37871L7.32823 31.4804H6.97729L6.33388 29.9671ZM5.23557 27.2902L4.20882 29.6957H6.24289L5.23557 27.2902ZM23.9319 27.1867H22.2423V31.4804H21.9108V27.1867H20.2212V26.8893H23.9319V27.1867Z" fill="#FF692E"/>
</svg>
