<svg width="32" height="32" viewBox="0 0 32 32" fill="none" xmlns="http://www.w3.org/2000/svg">
<path d="M1.62127 5.78762C1.93839 4.81403 2.48109 3.92915 3.20512 3.20512C3.92915 2.48109 4.81403 1.93839 5.78762 1.62127C12.4243 -0.540425 19.5757 -0.540425 26.2123 1.62127C27.1859 1.93839 28.0708 2.48109 28.7948 3.20512C29.5189 3.92915 30.0616 4.81403 30.3787 5.78762C32.5404 12.4243 32.5404 19.5757 30.3787 26.2123C30.0616 27.1859 29.5189 28.0708 28.7948 28.7948C28.0708 29.5189 27.1859 30.0616 26.2123 30.3787C19.5757 32.5404 12.4243 32.5404 5.78762 30.3787C4.81403 30.0616 3.92915 29.5189 3.20512 28.7948C2.48109 28.0708 1.93839 27.1859 1.62127 26.2123C-0.540425 19.5757 -0.540425 12.4243 1.62127 5.78762V5.78762Z" fill="#0055DC"/>
<path d="M13.3458 7.44888C14.5176 5.19803 17.4821 5.19803 18.6539 7.44888L25.8346 21.2394C26.1042 21.7574 26.2432 22.3333 26.2397 22.9172C26.2361 23.501 26.09 24.0752 25.8142 24.5898C24.8004 26.4791 22.1944 25.7015 20.3128 24.6743L19.0674 23.994C18.1266 23.4802 17.0718 23.2109 15.9999 23.2109C14.9279 23.2109 13.8732 23.4802 12.9324 23.994L11.687 24.6743C9.80538 25.7015 7.19933 26.4791 6.18558 24.5898C5.90971 24.0752 5.76365 23.501 5.76008 22.9172C5.75651 22.3333 5.89554 21.7574 6.1651 21.2394L13.3458 7.44888V7.44888Z" fill="url(#paint0_linear_3169_75)"/>
<defs>
<linearGradient id="paint0_linear_3169_75" x1="14.4831" y1="5.76058" x2="15.9999" y2="26.2403" gradientUnits="userSpaceOnUse">
<stop stop-color="white"/>
<stop offset="1" stop-color="white"/>
</linearGradient>
</defs>
</svg>
