<svg width="32" height="32" viewBox="0 0 32 32" fill="none" xmlns="http://www.w3.org/2000/svg">
<path d="M31.9999 22.9438L26.9332 19.9705L26.1359 18.2959L21.9785 17.7412L24.8852 20.5892L26.7305 20.3545L31.9999 22.9438Z" fill="#3E80E1"/>
<path d="M10.4987 26.2986C4.70933 26.2986 0 21.5893 0 15.8026C0 10.016 4.70933 5.30664 10.4987 5.30664C16.288 5.30664 20.9973 10.016 20.9973 15.8026C20.9973 21.5893 16.2853 26.2986 10.4987 26.2986ZM10.4987 6.9093C5.59467 6.9093 1.608 10.8986 1.608 15.7999C1.608 20.7013 5.59467 24.6933 10.4987 24.6933C15.4027 24.6933 19.3893 20.7039 19.3893 15.8026C19.3893 10.9013 15.4 6.9093 10.4987 6.9093Z" fill="#3E80E1"/>
<path d="M30.2961 26.6964L16.7094 18.7257L14.5734 14.2351L3.42139 12.7471L11.2134 20.3844L16.1601 19.7524L30.2961 26.6964ZM11.7574 16.6537L4.90406 13.4057L14.2694 14.6457L11.7574 16.6537Z" fill="#3E80E1"/>
</svg>
