<svg xmlns="http://www.w3.org/2000/svg" viewBox="0 0 141.3 141.30001" height="141.3" width="141.3"><g transform="translate(0 -911.062)"><path d="M70.65 911.062c-33.7 0-61.2 9.1-61.2 20.3 0 3 7.3 45.4 10.3 62.3 1.3 7.6 20.8 18.6 50.9 18.6v-.1.1c30.1 0 49.6-11.1 50.9-18.6 2.9-16.8 10.3-59.3 10.3-62.3-.1-11.2-27.6-20.3-61.2-20.3zm0 87.6c-10.7 0-19.4-8.7-19.4-19.4s8.7-19.4 19.4-19.4 19.4 8.7 19.4 19.4-8.7 19.4-19.4 19.4zm0-61c-21.6 0-39.2-3.8-39.2-8.4 0-4.6 17.6-8.3 39.2-8.3s39.2 3.8 39.2 8.4c-.1 4.6-17.6 8.3-39.2 8.3z" class="st0" fill="#205081"/><path d="M114.55 1010.562c-.9 0-1.7.7-1.7.7s-15.1 11.9-42.3 11.9c-27.2 0-42.3-11.9-42.3-11.9s-.7-.7-1.7-.7c-1.1 0-2.2.7-2.2 2.4v.5c2.3 12.5 4 21.4 4.3 22.7 2 9.2 20 16.2 41.7 16.2 21.7 0 39.7-6.9 41.7-16.2.3-1.4 2-10.2 4.3-22.7v-.5c.4-1.7-.7-2.4-1.8-2.4z" class="st0" fill="#205081"/><circle r="9.7" cy="979.162" cx="70.65" class="st0" fill="#205081"/></g></svg>