<svg xmlns="http://www.w3.org/2000/svg" viewBox="0 0 160.5 142.2" height="142.2" width="160.5"><path class="st0" d="M113.5 94.7c-2-4-4.4-8-7.2-12.1-2-2.9-4.1-5.8-6.4-8.6-.9-1.1-.5-2.5.2-3.2l2.1-2.1c9.6-9.8 19.5-19.9 27.1-30.8 8.1-11.6 12.6-22.6 13.7-34 .1-1.1-.4-2.3-1.3-3-.6-.5-1.3-.7-2.1-.7-.4 0-.8.1-1.2.2-7.4 2.8-14.8 5-21.7 6.5-1.4.3-2.5 1.4-3 2.6-5 13.6-17.7 26.6-31 40.2-.5.5-1.3 1.2-2.5 1.2s-2-.6-2.5-1.2c-13.3-13.6-26-26.5-31-40.2-.5-1.2-1.6-2.3-3-2.6C36.9 5.3 29.4 3 22 .2c-.4-.2-.8-.2-1.2-.2-.7 0-1.5.2-2.1.7-.9.7-1.4 1.9-1.3 3C18.5 15 23 26.2 31.1 37.8c7.6 10.9 17.5 21 27.1 30.8 17.7 18 34.3 35 35.8 54.7a3.4 3.4 0 0 0 3.4 3.2h20.7c.9 0 1.8-.4 2.5-1.1.6-.7 1-1.6.9-2.5-.2-3.7-.7-7.4-1.6-11.2v-.3c0-.8.6-1.4 1.4-1.4h.2c16.9 2.5 27.6 6.4 27.7 10.8 0 4.1-9.6 10.3-25.3 14.9-1.4.4-2.4 1.7-2.4 3.1 0 1.8 1.5 3.3 3.3 3.3.3 0 .5 0 .7-.1 21-4.9 35-13 35-22.3-.1-10.8-18.9-20.6-47-25zM57.9 84c-.4-.4-1.3-1-2.4-1-1.5 0-2.5 1-2.8 1.5-2.3 3.4-4.2 6.8-5.9 10.2C18.8 99.1 0 108.9 0 119.8c0 9.2 13.8 17.4 34.9 22.3.2.1.5.1.8.1 1.8 0 3.3-1.5 3.3-3.3 0-1.5-1-2.7-2.4-3.1-15.6-4.5-25.3-10.7-25.3-14.9 0-4.4 10.7-8.3 27.6-10.8h.2c.8 0 1.4.6 1.4 1.4v.3c-.9 3.7-1.4 7.4-1.6 11.1 0 .9.3 1.9.9 2.5.6.7 1.5 1.1 2.5 1.1h20.6c1.8 0 3.3-1.4 3.4-3.2.5-6.1 2.3-12.1 5.8-18.5 1.2-2.2.3-4.3-.4-5.2-3.4-4.4-7.6-9.1-13.8-15.6z" fill="#205081"/><path class="st0" d="M77.8 32.8c.8.8 1.7.9 2.4.9.6 0 1.6-.1 2.4-.9 7.3-7.1 11.2-15.4 12.1-17.7.1-.3.3-.7.3-1.3 0-1.8-1.5-3.2-3.1-3.2-1.3 0-5.1.4-11.6.4s-10.3-.4-11.6-.4c-1.6 0-3.1 1.3-3.1 3.2 0 .5.1.9.3 1.3.6 2.3 4.6 10.6 11.9 17.7z" fill="#205081"/></svg>