<svg xmlns="http://www.w3.org/2000/svg" viewBox="0 0 147 139.342" height="139.342" width="147"><path class="st0" d="M73.7 0C33.1-.1.1 33 0 74.1V76c.1 2.5 2.1 3.6 3.6 3.6 1.6 0 3.2-1.1 3.6-3.1C9.4 64.1 15.4 53 23.9 44.4c10.9-10.9 25.9-17.7 42.5-17.6 16.6 0 31.5 6.9 42.4 17.9 10.8 11 17.5 26.2 17.4 42.9 0 16.7-6.8 31.8-17.7 42.8-.9.9-1.8 1.8-2.8 2.6-1 .9-1.2 2.1-1.2 2.7 0 2.8 3 4.6 5.5 3.1 22-12.8 36.9-36.8 37-64.3.1-41-32.7-74.3-73.3-74.5z" fill="#205081"/><path class="st0" d="M95.4 96C83.8 79.7 65.7 68.3 44.8 65.9c-5.3-.6-9.7 2.6-11.5 6.7-3.7 8.6-5.5 18-5.6 28-.1 11.1 1.9 21.6 6.3 31 1.9 4.1 6.3 7 11.5 6.4 20.4-2.3 38.3-13.2 49.9-29 1.8-2.4 2.3-5.2 2.1-7.5-.3-2.4-1.2-4.3-2.1-5.5zm-37.9 3.7c-.1 5.3-4.4 9.5-9.7 9.4-5.3-.1-9.5-4.4-9.5-9.7.1-5.3 4.4-9.5 9.7-9.5 5.3.2 9.6 4.5 9.5 9.8z" fill="#205081"/></svg>