<svg xmlns="http://www.w3.org/2000/svg" viewBox="0 0 166 166" height="166" width="166"><path d="M47.3 9.9c-6 0-10.9 4.9-10.9 10.9s4.9 10.9 10.9 10.9 10.9-4.9 10.9-10.9c-.1-6-4.9-10.9-10.9-10.9zm71.4 0c-6 0-10.9 4.9-10.9 10.9s4.9 10.9 10.9 10.9 10.9-4.9 10.9-10.9-4.9-10.9-10.9-10.9zM83 0c-6 0-10.9 4.9-10.9 10.9S77 21.8 83 21.8s10.9-4.9 10.9-10.9C93.9 4.8 89 0 83 0zm61.5 40.3c-.6-.5-1.3-.7-2.1-.7-.4 0-.8.1-1.2.2-7.4 2.8-14.8 5-21.7 6.5-1.4.3-2.5 1.4-3 2.6-5 13.6-17.7 26.6-31 40.2-.5.5-1.3 1.2-2.5 1.2s-2-.6-2.5-1.2c-13.3-13.6-26-26.5-31-40.2-.5-1.2-1.6-2.3-3-2.6-6.8-1.6-14.3-3.8-21.7-6.6-.4-.2-.8-.2-1.2-.2-.7 0-1.5.2-2.1.7-.9.7-1.4 1.9-1.3 3 1.1 11.3 5.6 22.4 13.7 34 7.6 10.9 17.5 21 27.1 30.8 17.6 18 34.3 35 35.8 54.7a3.4 3.4 0 0 0 3.4 3.2h20.7c.9 0 1.8-.4 2.5-1.1.6-.7 1-1.6.9-2.5-.7-13.2-5.6-26.4-15.2-40.4-2-2.9-4.1-5.8-6.4-8.6-.9-1.1-.5-2.5.2-3.3l2.1-2.1c9.6-9.8 19.5-19.9 27.1-30.8 8.1-11.6 12.6-22.6 13.7-34 .1-.9-.4-2.1-1.3-2.8zm-83.8 83.1c-.5-.5-1.2-1-2.4-1-1.5 0-2.5 1.1-2.8 1.6-8.7 13.3-13.2 25.8-13.8 38.4 0 .9.3 1.9.9 2.5.6.7 1.5 1.1 2.5 1.1h20.7c1.8 0 3.3-1.4 3.4-3.2.5-6.1 2.3-12.1 5.8-18.5 1.2-2.2.3-4.3-.4-5.2-3.5-4.5-7.6-9.2-13.9-15.7z" class="st0" fill="#205081"/><path d="M83 50.4c6.5 0 10.3-.4 11.6-.4 1.6 0 3.1 1.3 3.1 3.2 0 .5-.1.9-.3 1.3-.9 2.3-4.8 10.6-12.1 17.7-.8.8-1.8.9-2.4.9-.6 0-1.6-.1-2.4-.9-7.3-7.1-11.2-15.4-12.1-17.7-.1-.3-.3-.7-.3-1.3 0-1.8 1.5-3.2 3.1-3.2 1.5 0 5.3.4 11.8.4z" class="st0" fill="#205081"/></svg>