<svg width="32" height="32" viewBox="0 0 32 32" fill="none" xmlns="http://www.w3.org/2000/svg">
<path d="M26.2833 3.31558C28.3372 5.41217 29.3636 8.59617 29.3624 12.8676V28.0516C29.3624 29.1716 29.0305 30.0528 28.3668 30.6951C27.7031 31.3375 26.7905 31.6593 25.6291 31.6605C24.5494 31.6605 23.6682 31.3286 22.9855 30.6649C22.3028 30.0012 21.9603 29.1301 21.9579 28.0516V26.6827C21.2797 28.2697 20.1134 29.5992 18.6282 30.4782C17.1135 31.3897 15.3612 31.8459 13.3713 31.8471C11.4527 31.8728 9.55501 31.4465 7.83173 30.6027C6.2413 29.8316 4.88739 28.6472 3.91173 27.1734C2.96424 25.733 2.46897 24.0422 2.48951 22.3182C2.48358 20.083 3.05128 18.3236 4.19262 17.04C5.33395 15.7565 7.19291 14.822 9.76951 14.2365C12.3425 13.6557 15.8898 13.3654 20.4113 13.3654H21.9668V11.9342C21.9668 9.90166 21.5313 8.42017 20.6602 7.4898C19.7891 6.55943 18.3787 6.09306 16.4291 6.09069C15.1866 6.09797 13.9511 6.27746 12.758 6.62403C11.5123 6.97958 10.0391 7.48803 8.33839 8.14936C7.25988 8.68743 6.47173 8.95706 5.97395 8.95825C5.62731 8.96782 5.28287 8.90021 4.96557 8.76031C4.64827 8.62041 4.36603 8.41173 4.13928 8.14936C3.66521 7.6101 3.42817 6.90491 3.42817 6.0338C3.41335 5.38144 3.59954 4.7403 3.96151 4.19736C4.31706 3.67825 4.90965 3.19054 5.73928 2.73425C7.37096 1.87877 9.11133 1.24901 10.9126 0.862249C12.862 0.413719 14.8554 0.18415 16.8557 0.177804C21.0868 0.174249 24.2294 1.22018 26.2833 3.31558ZM19.9971 24.1618C21.3008 22.7716 21.9526 20.9772 21.9526 18.7787V17.472H20.8326C18.0522 17.472 15.8951 17.5965 14.3615 17.8454C12.8279 18.0942 11.7286 18.5298 11.0637 19.152C10.3988 19.7742 10.0664 20.6246 10.0664 21.7031C10.0481 22.3169 10.164 22.9273 10.406 23.4916C10.6479 24.056 11.0101 24.5607 11.4673 24.9707C12.4012 25.8228 13.5526 26.2483 14.9215 26.2471C16.998 26.2471 18.6898 25.552 19.9971 24.1618Z" fill="#FFD040"/>
</svg>
