<svg width="32" height="32" viewBox="0 0 32 32" fill="none" xmlns="http://www.w3.org/2000/svg">
<path fill-rule="evenodd" clip-rule="evenodd" d="M26.1221 3.60812C23.3621 5.87122 19.8316 7.22942 15.9839 7.22942C12.1437 7.22942 8.61942 5.8765 5.86182 3.6213C8.62182 1.35819 12.1523 0 16 0C19.8402 0 23.3645 1.35292 26.1221 3.60812Z" fill="#7119E1"/>
<path fill-rule="evenodd" clip-rule="evenodd" d="M26.2618 28.2766C23.484 30.601 19.9054 32.0002 16 32.0002C12.0436 32.0002 8.42268 30.5642 5.62988 28.1851C8.40767 25.8606 11.9862 24.4614 15.8916 24.4614C19.848 24.4614 23.469 25.8974 26.2618 28.2766Z" fill="#7119E1"/>
<path fill-rule="evenodd" clip-rule="evenodd" d="M28.2917 5.75684C30.607 8.53203 32 12.1034 32 16.0002C32 19.9435 30.5735 23.5537 28.2083 26.3427C25.893 23.5675 24.5 19.9961 24.5 16.0993C24.5 12.156 25.9265 8.54589 28.2917 5.75684Z" fill="#7119E1"/>
<path fill-rule="evenodd" clip-rule="evenodd" d="M3.65635 5.81885C5.87296 8.5646 7.20019 12.0582 7.20019 15.8618C7.20019 19.7293 5.82797 23.2764 3.54384 26.0426C1.32723 23.2968 0 19.8032 0 15.9996C0 12.1321 1.37222 8.58508 3.65635 5.81885Z" fill="#7119E1"/>
</svg>
