<svg width="32" height="32" viewBox="0 0 32 32" fill="none" xmlns="http://www.w3.org/2000/svg">
<path d="M13.8394 27.17V18.6395H18.1806V27.17C18.1806 27.8846 18.7596 28.4647 19.4731 28.4647C20.1865 28.4647 20.7656 27.8846 20.7656 27.17V8.48834C20.7656 5.92732 18.8051 3.71889 16.2503 3.59378C13.5196 3.45918 11.2563 5.64487 11.2563 8.34996V27.17C11.2563 27.8846 11.8354 28.4647 12.5488 28.4647C13.2604 28.4628 13.8394 27.8846 13.8394 27.17ZM13.8394 16.052V8.34996C13.8394 7.15001 14.814 6.17565 16.01 6.17565C17.2079 6.17565 18.1806 7.15191 18.1806 8.34996V16.052H13.8394Z" fill="#6C63FF"/>
<path d="M1.77736 13.6274C1.06393 13.6274 0.484863 14.2075 0.484863 14.9222V17.7258C0.484863 18.4405 1.06393 19.0206 1.77736 19.0206C2.49078 19.0206 3.06985 18.4405 3.06985 17.7258V14.9222C3.06985 14.2075 2.49078 13.6274 1.77736 13.6274Z" fill="#6C63FF"/>
<path d="M7.16114 23.2725C7.87457 23.2725 8.45364 22.6924 8.45364 21.9778V10.6683C8.45364 9.95368 7.87457 9.37361 7.16114 9.37361C6.44772 9.37361 5.86865 9.95368 5.86865 10.6683V21.9797C5.87054 22.6943 6.44961 23.2725 7.16114 23.2725Z" fill="#6C63FF"/>
<path d="M30.2444 13.6274C29.531 13.6274 28.9519 14.2075 28.9519 14.9222V17.7258C28.9519 18.4405 29.531 19.0206 30.2444 19.0206C30.9578 19.0206 31.5369 18.4405 31.5369 17.7258V14.9222C31.5369 14.2075 30.9578 13.6274 30.2444 13.6274Z" fill="#6C63FF"/>
<path d="M24.8587 9.37361C24.1452 9.37361 23.5662 9.95368 23.5662 10.6683V21.9797C23.5662 22.6943 24.1452 23.2744 24.8587 23.2744C25.5721 23.2744 26.1511 22.6943 26.1511 21.9797V10.6683C26.1511 9.95368 25.5721 9.37361 24.8587 9.37361Z" fill="#6C63FF"/>
</svg>
