<svg width="32" height="32" viewBox="0 0 32 32" fill="none" xmlns="http://www.w3.org/2000/svg">
<path d="M12.9044 0.00044848C15.0371 0.00164782 17.1698 -0.0019502 19.3025 0.00164782C19.3145 2.6342 19.3001 5.26794 19.3097 7.90049C21.1345 6.03552 22.9544 4.16335 24.7804 2.30078C26.3597 3.90909 27.9728 5.48742 29.5425 7.10533C27.6973 8.9715 25.8016 10.7861 23.9576 12.6523C26.6388 12.6547 29.3188 12.6523 32 12.6547V19.0088C29.3501 19.0124 26.7001 19.0064 24.0502 19.0124C25.9447 20.8857 27.8886 22.7075 29.7807 24.5833C28.1893 26.1424 26.5859 27.6908 25.0053 29.2631C23.1998 27.4641 21.3895 25.6687 19.608 23.8457C19.2784 23.5195 19.3422 23.0241 19.3374 22.6032C19.2784 19.2966 19.3157 15.9888 19.3109 12.6811C16.0511 12.6799 12.7913 12.6847 9.53155 12.6787C9.0083 12.6463 8.36958 12.7278 7.99428 12.2793C6.21403 10.539 4.45543 8.77601 2.67999 7.03217C4.19922 5.51501 5.7413 4.02183 7.25211 2.49507C9.13701 4.28449 11.0183 6.0775 12.9044 7.86571C12.9032 5.24396 12.902 2.6222 12.9044 0.00044848V0.00044848Z" fill="#2A82F5"/>
<path d="M0.00360862 13.7041C6.09736 13.6933 12.1911 13.7101 18.2849 13.6957C18.2837 19.7967 18.2837 25.8989 18.2849 32C16.2111 31.9868 14.1361 31.9976 12.0612 31.994C12.06 29.4166 12.0624 26.838 12.06 24.2595C9.82866 26.4878 7.58531 28.7054 5.36481 30.9446C3.89129 29.4934 2.43221 28.0266 0.967109 26.5658C3.21046 24.335 5.43458 22.0839 7.69718 19.8735C5.13265 19.8903 2.56813 19.8795 0.00360862 19.8783C-0.00120287 17.8202 -0.00120287 15.7621 0.00360862 13.7041V13.7041Z" fill="#FD6100"/>
</svg>
