<svg width="32" height="32" viewBox="0 0 32 32" fill="none" xmlns="http://www.w3.org/2000/svg">
<path d="M31.3762 17.5005L16.9199 3.5005C16.6486 3.2378 16.2857 3.09091 15.908 3.09091C15.5304 3.09091 15.1675 3.2378 14.8962 3.5005L9.89804 8.33869L6.71259 11.4296L3.59986 14.4405L3.56168 14.4787L0.44168 17.5023C0.282797 17.6565 0.161198 17.8449 0.086145 18.0531C0.0110923 18.2614 -0.0154332 18.484 0.00859012 18.7041C0.0326134 18.9242 0.106551 19.1359 0.22477 19.323C0.34299 19.5102 0.502371 19.6679 0.69077 19.7841L15.1453 28.6932C15.3741 28.8359 15.6384 28.9115 15.908 28.9115C16.1777 28.9115 16.4419 28.8359 16.6708 28.6932L31.1271 19.7841C31.3159 19.6679 31.4755 19.5102 31.594 19.3228C31.7124 19.1355 31.7864 18.9236 31.8105 18.7033C31.8345 18.483 31.8079 18.2601 31.7326 18.0516C31.6574 17.8432 31.5355 17.6547 31.3762 17.5005ZM15.909 27.0205L2.0435 18.475L4.33259 16.2569L15.049 22.8896C15.3073 23.0497 15.6051 23.1347 15.909 23.1351V21.2878L5.67804 14.9587L7.45441 13.2369L15.049 17.8969C15.3064 18.0557 15.6028 18.14 15.9053 18.1405V18.1405V16.286L8.8035 11.9223L10.6399 10.1423L15.1453 12.9423C15.374 13.0866 15.6386 13.1634 15.909 13.1641V11.286L11.9853 8.84778L15.909 5.04596L29.7744 18.4805L15.909 27.0205Z" fill="url(#paint0_linear)"/>
<path d="M24.5017 17.0859C24.3757 16.8807 24.1734 16.7338 23.9392 16.6775C23.705 16.6213 23.4581 16.6603 23.2526 16.7859L15.9108 21.2878V23.1405C16.2126 23.1397 16.5084 23.0553 16.7653 22.8969L24.2017 18.3369C24.3036 18.2745 24.3922 18.1926 24.4624 18.096C24.5326 17.9993 24.5831 17.8898 24.611 17.7736C24.6388 17.6574 24.6435 17.5369 24.6248 17.4189C24.606 17.3009 24.5642 17.1878 24.5017 17.0859V17.0859Z" fill="#89ACF1"/>
<path d="M20.1362 14.7314C20.0732 14.6299 19.9908 14.5418 19.8938 14.4721C19.7967 14.4024 19.6869 14.3526 19.5705 14.3254C19.4542 14.2982 19.3336 14.2942 19.2157 14.3137C19.0978 14.3331 18.9849 14.3756 18.8835 14.4387L15.9089 16.286V18.1405C16.2138 18.1394 16.5123 18.0531 16.7708 17.8914L19.8435 15.9842C19.945 15.9212 20.0331 15.8388 20.1028 15.7417C20.1725 15.6447 20.2223 15.5348 20.2495 15.4185C20.2767 15.3021 20.2807 15.1816 20.2613 15.0637C20.2418 14.9458 20.1993 14.8329 20.1362 14.7314V14.7314Z" fill="#FF7575"/>
<path d="M19.4125 10.2314C19.2877 10.0254 19.0863 9.87737 18.8524 9.81976C18.6186 9.76215 18.3714 9.79969 18.1652 9.92413L15.9143 11.2896V13.1732C16.1806 13.1727 16.4415 13.0991 16.6689 12.9605L19.1089 11.4787C19.3142 11.3533 19.4615 11.1516 19.5184 10.9178C19.5754 10.684 19.5373 10.4372 19.4125 10.2314Z" fill="#74CDB0"/>
<defs>
<linearGradient id="paint0_linear" x1="-0.000138716" y1="15.9932" x2="31.818" y2="15.9932" gradientUnits="userSpaceOnUse">
<stop stop-color="#FFE614"/>
<stop offset="1" stop-color="#FFCC00"/>
</linearGradient>
</defs>
</svg>
