<svg width="32" height="32" viewBox="0 0 32 32" fill="none" xmlns="http://www.w3.org/2000/svg">
<path d="M24.0661 25.4747L20.986 15.9938L29.049 10.1358H19.0821L16.0017 0.655024L16.0007 0.652451H25.9691L29.0503 10.1347L29.0505 10.1345L29.0531 10.1331C30.8424 15.6341 28.9995 21.8908 24.0661 25.4746V25.4747ZM7.93637 25.4747L7.93391 25.4766L15.9991 31.3361L24.0661 25.475L16.0017 19.6153L7.93648 25.4747H7.93637ZM2.95165 10.1333C1.06797 15.9321 3.25452 22.0765 7.93487 25.4759L7.93562 25.4729L11.0163 15.9925L2.95497 10.1356H12.9195L16.0001 0.654917L16.0007 0.652344H6.03179L2.95154 10.1333H2.95165Z" fill="#EB5424"/>
</svg>
