<svg width="32" height="32" viewBox="0 0 32 32" fill="none" xmlns="http://www.w3.org/2000/svg">
<g clip-path="url(#clip0_1943_37)">
<path fill-rule="evenodd" clip-rule="evenodd" d="M32 16.5C32 9.59644 26.4036 4 19.5 4C16.5159 4 13.7761 5.04565 11.6269 6.79053L4.52525 11.709C3.89077 12.1484 3.1407 12.387 2.43857 12.7075C0.999872 13.3641 0 14.8153 0 16.5C0 18.1921 1.00862 19.6486 2.45744 20.3011C3.14787 20.612 3.88273 20.8482 4.50384 21.2814L12.1662 26.6247C12.1664 26.6248 12.1667 26.6247 12.1667 26.6245C12.1667 26.6243 12.1669 26.6241 12.1671 26.6243C14.2269 28.1188 16.7605 29 19.5 29C26.4036 29 32 23.4036 32 16.5Z" fill="#F81466"/>
<path d="M29.3326 16.4994C29.3326 11.0686 24.9301 6.66602 19.4993 6.66602C14.0685 6.66602 9.66602 11.0686 9.66602 16.4994C9.66602 21.9302 14.0685 26.3327 19.4993 26.3327C24.9301 26.3327 29.3326 21.9302 29.3326 16.4994Z" fill="white"/>
<path fill-rule="evenodd" clip-rule="evenodd" d="M15.4174 15.666C15.8776 15.666 16.2507 16.0391 16.2507 16.4993C16.2507 18.4323 17.8177 19.9993 19.7507 19.9993C21.6837 19.9993 23.2507 18.4323 23.2507 16.4993C23.2507 16.0391 23.6238 15.666 24.084 15.666C24.5443 15.666 24.9174 16.0391 24.9174 16.4993C24.9174 19.3528 22.6042 21.666 19.7507 21.666C16.8972 21.666 14.584 19.3528 14.584 16.4993C14.584 16.0391 14.9571 15.666 15.4174 15.666Z" fill="#F81466"/>
<path d="M6.66731 26.3326C6.66731 24.8599 5.47341 23.666 4.00065 23.666C2.52789 23.666 1.33398 24.8599 1.33398 26.3326C1.33398 27.8054 2.52789 28.9993 4.00065 28.9993C5.47341 28.9993 6.66731 27.8054 6.66731 26.3326Z" fill="#F81466"/>
</g>
<defs>
<clipPath id="clip0_1943_37">
<rect width="32" height="32" fill="white"/>
</clipPath>
</defs>
</svg>
