<svg width="32" height="32" viewBox="0 0 32 32" fill="none" xmlns="http://www.w3.org/2000/svg">
<path d="M14.6384 21.7874C17.4989 21.7874 19.8178 19.7496 19.8178 17.2358C19.8178 14.722 17.4989 12.6842 14.6384 12.6842C11.7779 12.6842 9.45895 14.722 9.45895 17.2358C9.45895 19.7496 11.7779 21.7874 14.6384 21.7874Z" fill="white"/>
<path d="M18.7435 23.6465C17.0859 25.2364 14.9022 26.1624 12.6069 26.2486C10.3116 26.3347 8.0646 25.5751 6.29244 24.1139C4.52028 22.6527 3.34636 20.5916 2.99355 18.3219C2.64074 16.0523 3.13361 13.7321 4.37858 11.8019L4.31001 11.8461C3.23069 12.5688 2.3134 13.5081 1.61632 14.6042C0.919245 15.7002 0.457607 16.9293 0.260698 18.2132C0.0637902 19.4972 0.135911 20.808 0.472484 22.0627C0.809058 23.3173 1.40274 24.4882 2.21585 25.5012C3.02896 26.5142 4.04376 27.3471 5.19584 27.9472C6.34793 28.5472 7.61216 28.9012 8.90831 28.9867C10.2045 29.0722 11.5042 28.8873 12.7252 28.4439C13.9461 28.0004 15.0615 27.308 16.0007 26.4106C17.6025 27.2307 19.4583 27.4032 21.1838 26.8926C22.9093 26.382 24.3724 25.2274 25.27 23.6678C25.2959 23.6205 25.3203 23.5703 25.3462 23.523C24.3405 24.0845 23.2119 24.3895 22.0603 24.411C20.9087 24.4325 19.7695 24.1699 18.7435 23.6465V23.6465Z" fill="#04BAEE"/>
<path d="M27.027 8.03959C26.7032 6.87566 26.0848 5.81485 25.2316 4.95956C24.3783 4.10427 23.319 3.48338 22.1558 3.15683C20.9927 2.83028 19.765 2.80909 18.5913 3.09531C17.4175 3.38153 16.3374 3.96549 15.4551 4.79082C15.3927 4.79082 15.3302 4.77711 15.2677 4.77558C13.674 4.73431 12.0961 5.09994 10.683 5.83796C9.26993 6.57597 8.06827 7.662 7.19153 8.99349C8.77557 7.96319 10.636 7.44014 12.5249 7.49406C12.5873 7.49406 12.6498 7.50625 12.7123 7.5093C13.5947 6.68398 14.6749 6.10007 15.8487 5.81394C17.0225 5.52782 18.2503 5.54914 19.4135 5.87585C20.5766 6.20257 21.6359 6.82363 22.4891 7.6791C23.3423 8.53456 23.9605 9.59553 24.2841 10.7596C25.9252 11.3442 27.2907 12.5177 28.1154 14.0522C28.9401 15.5868 29.1654 17.3731 28.7473 19.0643C28.5965 19.6807 28.3617 20.2735 28.0494 20.8259C29.1752 20.2057 30.1107 19.2907 30.7557 18.179C31.2701 17.2864 31.5822 16.2916 31.6698 15.2651C31.7575 14.2386 31.6185 13.2054 31.2628 12.2384C30.9072 11.2715 30.3434 10.3946 29.6115 9.66953C28.8795 8.9445 27.9972 8.38911 27.027 8.04263V8.03959Z" fill="#04BAEE"/>
<path d="M24.2841 10.7565C23.9605 9.59249 23.3423 8.53152 22.4891 7.67605C21.6359 6.82059 20.5766 6.19952 19.4135 5.87281C18.2503 5.54609 17.0225 5.52477 15.8487 5.8109C14.6749 6.09702 13.5947 6.68093 12.7123 7.50625C12.6498 7.50625 12.5873 7.49254 12.5249 7.49101C10.6357 7.438 8.77522 7.96212 7.19153 8.99349L7.12905 9.05292C7.06658 9.11235 6.85934 9.48721 6.72981 9.64263C6.60029 9.79806 6.30315 10.6392 6.25743 10.7581C6.24606 10.7904 6.24039 10.8244 6.24067 10.8586C7.37373 10.4313 8.5791 10.2284 9.78962 10.2613C9.8521 10.2613 9.91458 10.2735 9.97705 10.2765C10.8593 9.4512 11.9394 8.86724 13.1132 8.58102C14.2869 8.2948 15.5146 8.31599 16.6777 8.64255C17.8409 8.9691 18.9002 9.58999 19.7535 10.4453C20.6067 11.3006 21.2251 12.3614 21.5489 13.5253C23.144 14.0924 24.4805 15.2167 25.3121 16.6913C26.1437 18.1658 26.4145 19.8913 26.0746 21.5497C26.768 21.4094 27.436 21.1643 28.0555 20.8228C28.3678 20.2704 28.6026 19.6777 28.7534 19.0613C29.1714 17.37 28.9462 15.5838 28.1215 14.0492C27.2968 12.5146 25.9313 11.3412 24.2902 10.7565H24.2841Z" fill="#009EE2"/>
<path d="M14.4174 19.3798C14.6694 19.3876 14.92 19.3395 15.1513 19.2392C15.3826 19.1388 15.5889 18.9886 15.7553 18.7992C16.106 18.3955 16.2906 17.8738 16.2719 17.3394C16.2898 16.8037 16.1054 16.2809 15.7553 15.875C15.5899 15.684 15.384 15.5322 15.1526 15.4307C14.9212 15.3292 14.67 15.2806 14.4174 15.2884C14.1669 15.2809 13.9179 15.3298 13.6887 15.4313C13.4595 15.5328 13.2561 15.6844 13.0932 15.875C12.7423 16.2811 12.5573 16.8045 12.5751 17.3409C12.5567 17.8743 12.7389 18.3951 13.0856 18.8007C13.2507 18.9901 13.4559 19.1403 13.6862 19.2405C13.9166 19.3406 14.1664 19.3882 14.4174 19.3798V19.3798Z" fill="#0C4596"/>
<path d="M21.5412 13.5253C21.2175 12.3614 20.5991 11.3006 19.7459 10.4453C18.8926 9.58999 17.8333 8.9691 16.6701 8.64255C15.507 8.316 14.2793 8.29481 13.1055 8.58103C11.9318 8.86724 10.8517 9.45121 9.96943 10.2765C9.90696 10.2765 9.84448 10.2628 9.78201 10.2613C8.57148 10.2284 7.36611 10.4313 6.23305 10.8586C5.92829 11.0826 5.62353 12.896 5.55191 13.3821C5.48029 13.8682 5.58543 16.4845 5.76067 17.152C5.93591 17.8194 7.02391 19.5322 7.5481 20.2941C8.07229 21.056 9.07191 21.8057 9.64182 22.176C10.7195 22.8241 11.8909 23.3017 13.1146 23.5916C14.4129 23.872 15.2936 23.9665 17.5565 23.4164C19.6898 22.8952 21.5976 21.6289 21.5976 21.6289C21.5976 21.6289 23.9321 22.0221 25.683 21.9794C25.9191 21.9794 26.067 21.5543 26.067 21.5543C26.4069 19.8958 26.1361 18.1704 25.3045 16.6959C24.4728 15.2213 23.1364 14.0969 21.5412 13.5299V13.5253ZM11.5283 15.5855C11.7788 15.0891 12.1603 14.6707 12.6315 14.3756C13.0942 14.0895 13.6281 13.9395 14.1721 13.9428C14.9192 13.9419 15.6412 14.2127 16.2033 14.7047V14.6925C16.2006 14.594 16.2182 14.496 16.2549 14.4045C16.2916 14.3131 16.3466 14.2301 16.4167 14.1607C16.5649 14.0254 16.7584 13.9503 16.9591 13.9503C17.1599 13.9503 17.3534 14.0254 17.5016 14.1607C17.5729 14.2305 17.6289 14.3144 17.6659 14.407C17.7029 14.4996 17.7201 14.599 17.7165 14.6986V19.8674C17.719 19.966 17.7012 20.0641 17.6642 20.1556C17.6273 20.2471 17.5719 20.33 17.5016 20.3992C17.4304 20.4697 17.3456 20.5249 17.2523 20.5616C17.1591 20.5983 17.0593 20.6156 16.9591 20.6125C16.8604 20.6161 16.7619 20.5996 16.6697 20.564C16.5775 20.5283 16.4935 20.4744 16.4228 20.4053C16.2844 20.265 16.2058 20.0766 16.2033 19.8796C15.9636 20.1383 15.6738 20.3457 15.3515 20.4891C14.9981 20.6544 14.6126 20.7398 14.2224 20.739C13.6663 20.7413 13.1209 20.5871 12.6483 20.2941C12.1738 20.0014 11.7877 19.5853 11.5313 19.0903C11.2525 18.5494 11.1127 17.9477 11.1245 17.3394C11.1142 16.7306 11.2528 16.1285 11.5283 15.5855V15.5855Z" fill="#0C4596"/>
<path d="M24.4746 21.6884C23.4343 21.6594 22.4135 21.3991 21.4864 20.9265C19.9512 22.3925 17.964 23.2942 15.8497 23.4839C13.7355 23.6736 11.6194 23.1402 9.84781 21.9708C8.07618 20.8015 6.75386 19.0655 6.09721 17.0469C5.44056 15.0282 5.48845 12.8465 6.23306 10.8586H6.20867C5.89567 10.9625 5.59019 11.0877 5.29439 11.2335C4.9763 11.4041 4.66801 11.5923 4.37096 11.7973C3.11462 13.7281 2.61326 16.0538 2.96258 18.3307C3.3119 20.6076 4.48744 22.6761 6.26481 24.1414C8.04218 25.6067 10.2969 26.3662 12.5986 26.2749C14.9003 26.1836 17.0878 25.2479 18.7435 23.6465C19.7695 24.1699 20.9087 24.4325 22.0603 24.411C23.2119 24.3895 24.3405 24.0845 25.3462 23.523C25.6383 22.9919 25.8596 22.4248 26.0045 21.8362C26.0273 21.7447 26.0472 21.6503 26.067 21.5558C25.543 21.6609 25.0087 21.7054 24.4746 21.6884V21.6884Z" fill="#17428D"/>
<path d="M6.23305 10.8586C6.47851 10.203 6.7975 9.57729 7.18391 8.9935C7.13972 9.02093 7.09552 9.04836 7.05286 9.07731C5.98503 9.79372 5.07497 10.7209 4.37857 11.8019C4.88593 11.4675 5.42428 11.1828 5.98619 10.9516L6.23305 10.8586Z" fill="#04BAEE"/>
</svg>
