<svg xmlns="http://www.w3.org/2000/svg" viewBox="0 0 632.03498 482.12202" height="482.122" width="632.035"><path d="M511.434 321.46c0 47.427-26.534 56.968-57.166 56.968-17.236 0-36.439.29-55.405 0-19.07.29-203.181 0-220.467 0-29.973 0-58.099-9.406-55.772-54.307 1.266-23.363 15.224-44.882 50.9-48.42l335.974-12.63 1.936 52.433v5.955zM444.05.02C272.797-.013 272.797-.013 17.247.083l-.159 102.503c74.771 0 354.108-.157 413.232-.157 49.637 0 79.178-7.841 79.178 53.378.438 12.698 0 26.994 0 26.994 0 1.096-355.008 0-355.008 0C45.76 182.8 0 233.144 0 315.504v20.691c0 79.176 54.914 143.578 152.015 145.69 27.983.316 300.734.316 328.674 0 97.125-2.112 151.346-66.514 151.346-145.69V152.64C632.035 21.7 552.812.04 444.049.02" fill="#ed192e"/></svg>