<svg width="32" height="32" viewBox="0 0 32 32" fill="none" xmlns="http://www.w3.org/2000/svg">
<path d="M8.28909 31.8972C7.91953 31.8972 7.53723 31.9213 7.15634 31.8972C6.27869 31.8414 5.41688 31.637 4.60767 31.2926C2.824 30.5387 1.39951 29.1264 0.630327 27.3493C0.193132 26.3298 -0.0212087 25.2286 0.00165437 24.1195C0.0115659 18.5606 -0.00684121 13.0003 0.0158137 7.44132C0.0243092 5.17583 0.960239 3.31388 2.65652 1.82716C3.72274 0.903077 5.03018 0.301911 6.42573 0.0940614C6.87739 -0.00237063 7.34172 -0.0248458 7.80059 0.0275127C7.86997 0.143619 7.80059 0.23707 7.76519 0.324858C7.02337 2.33798 6.45123 4.40963 6.05475 6.51813C5.78887 7.90446 5.59698 9.30397 5.47988 10.7107C5.39776 11.7231 5.33829 12.7383 5.31422 13.7564C5.30148 14.5592 5.24484 15.3634 5.28449 16.1634C5.33971 17.258 5.34962 18.3539 5.44732 19.4484C5.54219 20.5259 5.64555 21.585 5.80696 22.6498C6.26284 25.7222 7.07786 28.7304 8.23528 31.6126C8.26458 31.6532 8.28458 31.6998 8.29388 31.749C8.30318 31.7981 8.30154 31.8488 8.28909 31.8972V31.8972Z" fill="#007EC3"/>
<path d="M31.8941 7.53337C31.8983 7.19454 31.8746 6.85594 31.8233 6.52098C31.5501 4.88417 30.869 3.45125 29.6895 2.26045C28.2269 0.797798 26.4598 0.0374445 24.4053 0.0190374C20.9405 -0.00503338 17.4743 0.0105418 14.0081 0.0105418C13.8929 -0.0105999 13.7741 0.0126729 13.6754 0.0756746C13.1231 1.31012 12.6502 2.57854 12.2594 3.8732C11.7652 5.50492 11.3867 7.16946 11.1267 8.85444C10.8841 10.3609 10.7384 11.8815 10.6906 13.4066C10.6339 15.7019 10.6509 17.9971 10.9341 20.2852C11.1052 21.7316 11.35 23.1683 11.6676 24.5897C12.1466 26.6695 12.8183 28.7002 13.6739 30.6555C13.8408 31.0858 14.0411 31.5024 14.2729 31.9015H14.6C17.8283 31.9015 21.0566 31.9015 24.2849 31.9015C24.6804 31.905 25.0755 31.8747 25.4658 31.8109C26.5521 31.6423 27.5881 31.2367 28.5001 30.6229C30.6863 29.1178 31.8616 27.0251 31.8842 24.3928C31.9295 18.7702 31.8984 13.1518 31.8941 7.53337ZM19.4651 29.6049C18.6849 30.3666 17.766 30.2605 17.177 29.4321C16.0952 27.9072 15.1012 26.3327 14.3536 24.618C13.7136 23.1461 13.2594 21.6003 13.0014 20.0162C12.8009 18.7431 12.6883 17.4577 12.6644 16.1691C12.6856 13.8909 12.9093 11.8038 13.5139 9.77621C14.0959 7.84562 14.9579 6.01086 16.0725 4.33054C16.4633 3.73444 16.8654 3.14682 17.2945 2.57762C17.6329 2.12877 18.0747 1.8824 18.641 2.01125C19.2301 2.14152 19.6647 2.48559 19.8318 3.09019C19.9239 3.42293 19.7808 3.71178 19.5897 3.97514C18.9267 4.86502 18.3123 5.79002 17.749 6.74612C16.694 8.58258 15.9788 10.5942 15.6378 12.6845C15.471 13.7222 15.3858 14.7713 15.383 15.8222C15.3684 17.0759 15.466 18.3283 15.6747 19.5645C15.8951 20.8329 16.2516 22.0738 16.738 23.2658C17.336 24.7053 18.0961 26.072 19.0035 27.3394C19.247 27.6485 19.4689 27.974 19.6676 28.3135C19.788 28.5191 19.8337 28.76 19.7968 28.9953C19.7599 29.2307 19.6427 29.4461 19.4651 29.6049ZM21.5154 17.5525C21.7985 19.9596 22.7968 22.0736 24.2212 24.0049C24.3197 24.1283 24.3964 24.2676 24.4477 24.4169C24.4809 24.5194 24.4912 24.6279 24.478 24.7348C24.4647 24.8416 24.4283 24.9443 24.3713 25.0357C24.2919 25.1849 24.1756 25.3114 24.0335 25.403C23.8914 25.4946 23.7283 25.5484 23.5595 25.5592C23.3908 25.57 23.2221 25.5374 23.0696 25.4646C22.917 25.3918 22.7855 25.2812 22.6878 25.1433C21.4304 23.4258 20.4223 21.5836 19.921 19.4923C19.7114 18.5911 19.5798 17.6735 19.5274 16.7497C19.4821 16.1068 19.4792 15.4616 19.5189 14.8183C19.5964 12.6661 20.1732 10.5614 21.2039 8.67036C21.6464 7.88191 22.1373 7.12152 22.6736 6.39355C23.2145 5.64594 24.0272 5.92063 24.384 6.42045C24.4757 6.53717 24.5255 6.68127 24.5255 6.82966C24.5255 6.97805 24.4757 7.12214 24.384 7.23886C24.1235 7.63532 23.8417 8.01621 23.577 8.41125C22.5403 9.92567 21.854 11.6519 21.5678 13.4647C21.3677 14.8188 21.35 16.1937 21.5154 17.5525V17.5525Z" fill="#007EC3"/>
</svg>
