<svg width="45" height="81" viewBox="0 0 45 81" fill="none" xmlns="http://www.w3.org/2000/svg">
<path d="M43.2 24.2L24.2 1.19999C23.8 0.799986 23.1 0.999986 23.1 1.59999L24.7 23.9L10.9 12.1C10.5 11.7 9.8 12.1 9.9 12.7L15.4 34.7L2.1 26.9C1.6 26.6 0.999997 27.1 1.2 27.7L24.5 80.3C24.7 80.8 25.5 80.7 25.6 80.2L30.7 53.2L43.7 31.2C45 29 44.8 26.2 43.2 24.2Z" fill="#FF6600"/>
<path d="M24.6001 23.9L10.7001 12.1C10.3001 11.7 9.60009 12.1 9.70009 12.7L15.2001 34.7L25.7001 40.9L24.6001 23.9Z" fill="#E74030"/>
<path d="M24.8 68.6C24.6 69.2 23.8 69.1 23.7 68.5L15.3 34.7L1.90005 26.8C1.40005 26.5 0.800046 27 1.00005 27.6L24.3 80.2C24.5 80.7 25.3 80.6 25.4 80.1L30.5 53.1L30.4 53.2L24.8 68.6Z" fill="#FAB418"/>
<path d="M24.8 68.6L30.6 53.2L28 57.5C27.7 58 26.9 57.8 26.9 57.2L25.8 40.9L15.3 34.7L23.7 68.5C23.8 69.1 24.6 69.2 24.8 68.6Z" fill="#DE0732"/>
<path d="M43 24.2L24 1.20001C23.7 0.800007 23 1.10001 23 1.60001L24.6 23.9L34.2 32.2C36.1 33.8 36.8 36.5 35.9 38.9L30.6 52.9V53.1L43.6 31.1C44.9 29 44.6 26.2 43 24.2Z" fill="#FF6600"/>
<path d="M28.5001 42.6C30.7001 43.9 31.8001 46.4 31.4001 48.9L30.6001 53L35.9001 39C36.8001 36.6 36.1001 34 34.2001 32.3L24.6001 24L25.8001 41L28.5001 42.6Z" fill="#DE0733"/>
<path d="M30.5 53.3L30.6 53.1V52.9" fill="black"/>
<path d="M30.5 53.3L30.6 53.1V52.9" fill="black"/>
<path d="M28.5001 42.6L25.7001 40.9L26.8001 57.2C26.8001 57.8 27.6001 58 27.9001 57.5L30.4001 53.2L30.5001 52.9L31.3001 48.8C31.9001 46.4 30.7001 43.9 28.5001 42.6Z" fill="#CC1D46"/>
</svg>
