<svg width="32" height="32" viewBox="0 0 32 32" fill="none" xmlns="http://www.w3.org/2000/svg">
<g clip-path="url(#clip0_3669_2)">
<path d="M11.5677 18.9951C15.3917 18.9901 19.155 19.9529 22.5078 21.7943L14.9318 5.51555L8.56363 19.1941C9.55964 19.0629 10.5631 18.9965 11.5677 18.9951V18.9951Z" fill="#0074BF"/>
<path d="M17.6761 0.0453033L29.2674 24.9342C30.8102 22.642 31.7346 19.9892 31.9506 17.2335C32.1667 14.4778 31.6671 11.7131 30.5004 9.20792C29.3336 6.70277 27.5395 4.54244 25.2924 2.9369C23.0452 1.33136 20.4215 0.335226 17.6761 0.0453033V0.0453033Z" fill="#0074BF"/>
<path d="M14.855 0C12.3749 0.179345 9.97065 0.934734 7.83281 2.20628C5.69497 3.47782 3.88236 5.23055 2.53869 7.32552C1.19502 9.42048 0.357228 11.8001 0.0917462 14.2756C-0.173736 16.7512 0.140389 19.2546 1.00922 21.5874C2.48349 20.8162 4.03775 20.2092 5.64416 19.7772L14.855 0Z" fill="#0074BF"/>
<path d="M1.44792 22.6531C1.88823 23.6111 2.4213 24.5236 3.03946 25.3774L4.82183 21.55C3.66789 21.8209 2.53915 22.1899 1.44792 22.6531V22.6531Z" fill="#0074BF"/>
<path d="M9.56891 20.9985C8.93348 20.9985 8.30394 21.028 7.68424 21.0851L4.75494 27.3807C7.50059 30.0989 11.1355 31.7309 14.9888 31.9756C18.8421 32.2203 22.6537 31.0613 25.7204 28.7123C23.773 26.3021 21.3118 24.3584 18.5172 23.0237C15.7226 21.689 12.6652 20.997 9.56891 20.9985V20.9985Z" fill="#0074BF"/>
</g>
<defs>
<clipPath id="clip0_3669_2">
<rect width="32" height="32" fill="white"/>
</clipPath>
</defs>
</svg>
