<?xml version="1.0" encoding="UTF-8"?>
<!--Generator: Adobe Illustrator 19.2.0, SVG Export Plug-In . SVG Version: 6.00 Build 0)-->
<svg xmlns="http://www.w3.org/2000/svg" xmlns:xlink="http://www.w3.org/1999/xlink" id="Layer_1" width="512px" height="512px" x="0px" y="0px" enable-background="new 0 0 512 512" version="1.1" viewBox="0 0 512 512" xml:space="preserve"><path fill="#001D55" d="M512,472.586c0,22.094-17.906,40-40,40H40c-22.09,0-40-17.906-40-40v-432c0-22.09,17.91-40,40-40h432  c22.094,0,40,17.91,40,40V472.586z"/><g><path fill="#D31842" d="M79.693,159.35C73.663,193.993,45.5,350.26,45.5,353.822c4.363,0,266.098-1.016,387.698-0.814L466.5,159.35   C337.564,159.35,208.629,159.35,79.693,159.35z"/><g><path fill="#FFFFFF" d="M414.16,223.347l20.229-28.246c-38.928-19.303-76.539-6.501-96.739,18.917    c-14.76,18.572-20.772,40.119-21.457,58.672c-0.144,29.479,9.525,46.156,29.467,52.927c43.924,14.912,69.213-10.555,69.213-10.555    l-10.322-21.489c0,0-47.022,23.091-46.21-13.8c-0.169-15.676,2.194-31.316,7.928-45.996    C372.336,218.239,390.652,207.319,414.16,223.347z"/><path fill="#FFFFFF" d="M196.717,229.519c9.083-24.903-1.444-40.898-27.892-41.453c-19.187-0.402-66.086,1.444-66.086,1.444    c-7.545,42.632-24.631,138.367-24.631,138.367c19.547-0.257,45.918,0.216,65.394-1.012c22.243-1.402,39.254-11.712,46.864-34.021    c6.38-18.703,2.439-29.176-16.235-40.281C185.514,247.277,192.868,240.074,196.717,229.519z M145.069,296.007    c-6.055,4.452-24.22,3.206-24.22,3.206l4.606-28.904c7.348,0.033,21.9-3.775,24.595,6.985    C151.302,282.295,149.569,292.698,145.069,296.007z M154.359,239.45c-5.983,3.687-23.931,2.655-23.931,2.655l4.551-23.936    c7.26,0.027,21.639-3.126,24.301,5.785C160.518,228.094,158.806,236.71,154.359,239.45z"/><path fill="#FFFFFF" d="M311.116,229.407c6.729-25.047-4.391-42.259-30.057-45.757c-26.132-3.561-48.686,5.37-69.771,20.791    c1.602,1.852,2.708,3.217,3.903,4.498c3.882,4.161,16.339,17.836,16.339,17.836c5.539-4.492,16.892-12.27,24.069-13.588    c11.507-2.114,17.002,3.677,14.529,14.984c-2.061,9.422-7.485,16.763-13.841,23.591c-15.09,16.21-37.703,36.386-55.914,48.805    l-4.906,27.31c0,0,64.594,0.474,92.695,0.541c0,0,9.989-21.898,14.264-31.481c-10.907,0-20.115,0-29.323,0    c-9.039,0-18.079,0-29.521,0c14.001-8.59,26.055-15.929,36.879-24.984C294.286,260.389,306.272,247.437,311.116,229.407z"/></g></g></svg>