<svg xmlns="http://www.w3.org/2000/svg" viewBox="0 0 419.63 512"><title>Minimal Babel Logo</title><path d="M133.29,111.06l-.07,0h.17Z" transform="translate(-46.19)" fill="none"/><path d="M141.82,442a32.06,32.06,0,0,0,3.53-1.27Z" transform="translate(-46.19)" fill="none"/><path d="M123.86,117.7c-1.21.93-2.41,1.89-3.59,2.86s-2.12,1.79-3.17,2.71l8.49-6.88Z" transform="translate(-46.19)" fill="none"/><path d="M305.05,239.56l-10.45.9q-63.84,25.12-93.51,27.68-53,105.35-65.76,133.27Q158.85,395,226.07,358q3.8-.33,52.91-32.53l44.11-34.94q14.31-6,26.19-40.16l-.16-1.89Q333.4,237.13,305.05,239.56Z" transform="translate(-46.19)" fill="none"/><path d="M393.83,98.54l.81-10,3.57-.31c.28,3.29,1.53,4.83,3.74,4.64q8-10.16,7.38-17.1a16.56,16.56,0,0,0-.43-2.55,34.19,34.19,0,0,0-8.74-6.55L396.6,67l.71,8.28-3.32.29a16.43,16.43,0,0,0-2.82-8.14l-1.68.14A20.12,20.12,0,0,0,389.1,65q-10-9.6-40.39-7-5.7.48-29.3,4.1l-.4-4.7-5.23.45q-24,4.1-23.38,11.71L254,151.69q-6.13,3.69-11.22,30.74-7.17,11.06-8.31,19.17a13.09,13.09,0,0,1,2.64.91Q302.75,173.85,313,173q30.81-19.8,37.75-28.07,2.15-.18,11.13-12.46Q371.8,131.56,393.83,98.54Z" transform="translate(-46.19)" fill="none"/><path d="M98.89,133.91l1.93,3c2.2-2,4.08-3.69,5.66-5l-2.71-4.07A70.8,70.8,0,0,0,98.89,133.91Z" transform="translate(-46.19)" fill="#010101"/><path d="M162.94,72.18,162.83,71c-3.14,1.83-6.32,3.65-9.59,5.47l.29,3.36a7.85,7.85,0,0,0,1.92-.49Q163,73.32,162.94,72.18Z" transform="translate(-46.19)" fill="#010101"/><path d="M254,151.69,290.4,69.58q-.66-7.6,23.38-11.71l5.23-.45.4,4.7Q343,58.51,348.71,58q30.36-2.62,40.39,7Q385,46.52,344.21,50q-5.68.49-29.3,4.1l-.4-4.7-5.22.45q-24,4.1-23.39,11.72l-36.45,82.1q-6.13,3.69-11.22,30.75-9.28,14.33-8.48,23.74l.27,3.13a14.23,14.23,0,0,1,4.4.29q1.16-8.11,8.31-19.17Q247.82,155.39,254,151.69Z" transform="translate(-46.19)" fill="#010101"/><path d="M397.31,75.26,396.6,67l3.56-.31a34.19,34.19,0,0,1,8.74,6.55q-2.1-8.43-13.24-14.55L392.1,59l.71,8.28-1.64.15A16.43,16.43,0,0,1,394,75.55Z" transform="translate(-46.19)" fill="#010101"/><path d="M294.6,240.46l10.45-.9q28.35-2.44,44.07,8.92l-.4-4.6q-15.89-15.1-48.17-12.32l-10.45.9q-63.84,25.13-93.51,27.69-67.38,134-69.73,142.72l1.9-.16a39.41,39.41,0,0,0,6.57-1.3q12.78-27.93,65.76-133.27Q230.76,265.59,294.6,240.46Z" transform="translate(-46.19)" fill="#010101"/><path d="M404.52,178.42l43.8-38.52Q462.95,121,465.81,79.29l-.56-6.5a43.49,43.49,0,0,0-7.91-21.51,43.12,43.12,0,0,1,3.42,13.51l.55,6.5q-2.85,41.76-17.49,60.62L400,170.42q-23.28,13.07-22.67,20,2.58,2.87,5,5.53Q385.12,189.32,404.52,178.42Z" transform="translate(-46.19)" fill="#010101"/><path d="M108.06,123.55c-.63.54-1.25,1.11-1.87,1.71a7.49,7.49,0,0,1,2-.53Z" transform="translate(-46.19)" fill="#010101"/><path d="M339.42,338.53q-24.5,15.44-72.27,52.25-9.4,7.37-34,11.05l.16,1.79,1.89-.16,8.4-2.53.15,1.79q-17.4,14.58-50.87,17.47Q174,430.33,145.35,440.7a32.06,32.06,0,0,1-3.53,1.27q-13.45,4.78-29,9.62-7.77,2.42-16.06,4.86Q87.2,476.3,69.87,497c-1.56,3.78-3.15,8.25-4.78,13.45l.13,1.57,3.32-.29q21.6-24.19,32.76-47.26,63-18.52,96.12-36.26,33.48-2.88,50.87-17.47l-.16-1.79-8.39,2.53-1.9.16-.15-1.79q24.56-3.69,34-11.05,47.78-36.82,72.27-52.25Q419.49,291.06,415.09,240q-.16-1.92-4.49-7.81Q414.86,283.16,339.42,338.53Z" transform="translate(-46.19)" fill="#010101"/><path d="M220.71,73.75q-37.89,12.73-76.55,41.33l-3.57.31q-.21-2.44-7.2-4.3h-.17q-3.91,2.5-7.63,5.29l-8.49,6.88c-1.66,1.47-3.28,3-4.88,4.53h0l.43,4.93a15.06,15.06,0,0,0-5.09,2l4.12,6.19a133.79,133.79,0,0,1,26.09-21.88q7.09,1.88,7.31,4.34l3.56-.31Q181.9,98.5,214.57,85.64A66.4,66.4,0,0,0,221,77.1Z" transform="translate(-46.19)" fill="#010101"/><path d="M77.86,461.47l-.24-2.78-.05-.58c-1.64.14-2.7-.06-3.17-.61a1.14,1.14,0,0,1-.29-.68l-3.42,1.88-3.32.29-.29-3.36-1.9.16c-1.87,1.71-5.81,3.41-11.78,5.09-.91,1.53-1.82,3.06-2.71,4.54a11.7,11.7,0,0,0,2.08,4.79q13.36-3.18,16.91-6.42l1.89-.17.29,3.36,3.33-.28,2.18-1.2A12.05,12.05,0,0,0,77.86,461.47Z" transform="translate(-46.19)" fill="#010101"/><path d="M400,170.42l43.79-38.51Q458.46,113,461.31,71.29l-.55-6.5a43.12,43.12,0,0,0-3.42-13.51q-8.79-20.22-39.18-34Q394.54,1.25,333,0q-51,4.4-133,36.05a504.74,504.74,0,0,1-51.25,32.39L149,71.8a13.43,13.43,0,0,0,5.08-2q3.33-.28,3.6,2.85l3.42-1.87,1.66-.15,0,.36.11,1.21q.09,1.14-7.49,7.13-8.89,7-28.37,20.78l1.93,3-1.66.14-3.7-1.26q.13,1.58-5.08,2l.15,1.79,4,4.4a13.48,13.48,0,0,1-5.36-1.12q-11.64,1-22.94,16.86l1.93,3q9.75-9,11.41-9.11l.33,3.75.1,1.18a7.49,7.49,0,0,0-2,.53,27,27,0,0,0-3.12,1.49l.7,1,2.71,4.07.71,1.07q2.46-2.64,5-5.13c1.6-1.55,3.22-3.06,4.88-4.53,1.05-.92,2.1-1.82,3.17-2.71s2.38-1.93,3.59-2.86l1.73-1.31q3.72-2.77,7.63-5.29l.07,0,.1,0q7,1.86,7.2,4.3l3.57-.31q38.66-28.59,76.55-41.33L221,77.1a66.4,66.4,0,0,1-6.43,8.54c-1.34,1.41-2.4,2.15-3.17,2.22a11.65,11.65,0,0,0,2.46,6.33q.55,6.5-34.36,86.89Q100.18,368,46.19,457.43a11.72,11.72,0,0,0,2.08,4.78c1.86-.44,3.56-.88,5.13-1.33,6-1.68,9.91-3.38,11.78-5.09l1.9-.16.29,3.36,3.32-.29,3.42-1.88a1.14,1.14,0,0,0,.29.68c.47.55,1.53.75,3.17.61l.05.58.24,2.78a12.05,12.05,0,0,1-.49,4,46.77,46.77,0,0,1-5.14,11.11q-5.45,6.12-11.64,25.83l.13,1.56,3.33-.28c2-2.26,3.94-4.5,5.82-6.74Q87.2,476.29,96.8,456.45q8.3-2.44,16.06-4.86,15.51-4.84,29-9.62l3.53-1.27q28.65-10.38,47.57-20.51,33.48-2.88,50.87-17.47l-.15-1.79-8.4,2.53-1.89.16-.16-1.79q24.56-3.69,34-11.05,47.78-36.82,72.27-52.25,75.43-55.36,71.18-106.34a1.09,1.09,0,0,0,0-.18q-.42-4.95-28.26-36.06-2.38-2.67-5-5.53Q376.76,183.49,400,170.42ZM323.09,290.53,279,325.47q-49.11,32.2-52.91,32.53-67.24,37-90.74,43.41a39.41,39.41,0,0,1-6.57,1.3l-1.9.16q2.36-8.78,69.73-142.72,29.67-2.56,93.51-27.69l10.45-.9q32.28-2.77,48.17,12.32l.4,4.6.16,1.89Q337.4,284.57,323.09,290.53Zm27.62-145.64Q343.78,153.16,313,173q-10.21.89-75.9,29.55a13.09,13.09,0,0,0-2.64-.91,14.23,14.23,0,0,0-4.4-.29l-.27-3.13q-.81-9.41,8.48-23.74,5.09-27.06,11.22-30.75l36.45-82.1q-.64-7.62,23.39-11.72l5.22-.45.4,4.7q23.61-3.6,29.3-4.1Q385,46.51,389.1,65a20.12,20.12,0,0,1,.39,2.54l1.68-.14,1.64-.15L392.1,59l3.56-.31q11.14,6.12,13.24,14.55a16.56,16.56,0,0,1,.43,2.55q.6,6.95-7.38,17.1c-2.21.19-3.46-1.35-3.74-4.64l-3.57.31-.81,10q-22,33-32,33.89Q352.86,144.7,350.71,144.89Z" transform="translate(-46.19)" fill="#f5dc5e"/></svg>
