<svg width="32" height="32" viewBox="0 0 32 32" fill="none" xmlns="http://www.w3.org/2000/svg">
<path d="M29.5543 8.41167L25.4095 6.01929L21.4171 8.32024L25.5695 10.7202L29.5543 8.41167Z" fill="#E0684B"/>
<path d="M7.03999 10.7201L20.2895 3.06292L16.3048 0.761963L3.04761 8.41149L7.03999 10.7201Z" fill="#E0684B"/>
<path d="M12.1525 18.461L16.3049 20.8534L20.4496 18.461L16.3049 16.0686L12.1525 18.461Z" fill="#E0684B"/>
<path d="M25.5695 10.7202V21.4173L16.3048 26.7659L7.03999 21.4173V10.7202L3.04761 8.41162V23.7183L16.3048 31.3754L29.5543 23.7183V8.41162L25.5695 10.7202Z" fill="#BB464B"/>
<path d="M16.3049 11.2764L12.1525 13.6687V18.4611L16.3049 16.0687L20.4496 18.4611V13.6687L16.3049 11.2764Z" fill="#BB464B"/>
<path d="M25.5696 10.7202L20.4496 13.6688V18.4612L16.3048 20.8535V26.7659L25.5696 21.4174V10.7202Z" fill="#E0DED8"/>
<path d="M20.2896 3.06299L25.4096 6.01918L21.4172 8.32013L25.5696 10.7201L20.4496 13.6687L16.3048 11.2763L12.1524 13.6687L7.04004 10.7201L20.2896 3.06299Z" fill="white"/>
</svg>
