<svg width="32" height="32" viewBox="0 0 32 32" fill="none" xmlns="http://www.w3.org/2000/svg">
<path fill-rule="evenodd" clip-rule="evenodd" d="M18.708 22.5633C16.6415 22.5633 14.8929 20.9339 14.8929 18.7518C14.8929 16.5682 16.3674 14.7748 18.7449 14.7748C21.1229 14.7748 22.524 16.6976 22.524 18.7114C22.524 20.9024 21.0417 22.5633 18.708 22.5633ZM12.6158 15.3339L11.8855 12.9416C11.45 11.6833 11.321 10.9588 10.0932 9.66255C9.67239 9.21766 8.08083 8.2393 8.27867 8.45288C10.2959 10.6306 11.3274 13.2684 11.7251 14.0012C11.3594 13.5573 10.9313 13.1592 10.4426 12.6631C10.0262 12.2408 9.59168 11.8599 9.17878 11.605C8.90712 11.4367 8.75456 11.3437 8.47848 11.201C7.23584 10.5553 6.0311 10.1645 5.56849 10.0489C5.00352 9.90813 4.44692 9.87171 4.44692 9.87171C4.44692 9.87171 6.24764 11.3919 7.0193 12.3599C7.79097 13.3275 8.57838 14.1946 9.44847 14.5494C10.3186 14.9043 10.6212 15.0056 11.3058 15.1095C11.8959 15.1986 12.6158 15.3339 12.6158 15.3339ZM18.8733 13.2143C16.9693 13.2143 15.9481 13.8678 15.2325 14.5785L15.0371 14.7832L15.0366 8.40121H13.3914V18.8458C13.3914 22.0599 15.8669 24.0624 18.7075 24.0624C21.8369 24.0624 24.2056 21.6544 24.2056 18.5588C24.2061 15.6848 21.7351 13.2143 18.8733 13.2143ZM32 16.0002C32 24.8365 24.8365 32 16.0002 32C7.16399 32 0 24.8365 0 16.0002C0 7.16399 7.1635 0 15.9998 0C24.836 0 32 7.1635 32 16.0002Z" fill="#73C41D"/>
</svg>
