<svg width="32" height="32" viewBox="0 0 32 32" fill="none" xmlns="http://www.w3.org/2000/svg">
<path d="M30.4038 27.6479L30.3996 27.7065L30.3953 27.7641L30.3878 27.8228L30.3804 27.8804L30.3708 27.9369L30.3601 27.9945L30.3484 28.0511L30.3356 28.1065L30.3206 28.1631L30.3046 28.2185L30.2876 28.2729L30.2684 28.3273L30.2492 28.3807L30.2278 28.434L30.2054 28.4873L30.1809 28.5396L30.1564 28.5908L30.1297 28.642L30.103 28.6921L30.0742 28.7423L30.0444 28.7903L30.0134 28.8393L29.9814 28.8863L29.9473 28.9332L29.9132 28.9791L29.878 29.0239L29.8406 29.0687L29.8033 29.1124L29.7638 29.1551L29.7244 29.1967L29.6828 29.2372L29.6401 29.2767L29.5974 29.3161L29.5526 29.3535L29.5078 29.3908L29.4609 29.426L29.414 29.4612L29.366 29.4943L27.6178 30.6815L27.5602 30.7199L27.5037 30.7561L27.4461 30.7924L27.3874 30.8276L27.3288 30.8617L27.2701 30.8959L27.2104 30.9279L27.1496 30.9599L27.0898 30.9897L27.029 31.0196L26.9672 31.0484L26.9053 31.0761L26.8434 31.1039L26.7816 31.1295L26.7186 31.1551L26.6557 31.1785L26.5917 31.202L26.5277 31.2244L26.4637 31.2457L26.3997 31.266L26.3346 31.2852L26.2696 31.3033L26.2045 31.3215L26.1394 31.3375L26.0733 31.3535L26.0072 31.3673L25.941 31.3812L25.8749 31.394L25.8077 31.4047L25.7416 31.4153L25.6744 31.4249L25.6072 31.4335L25.54 31.442L25.4717 31.4484L25.4045 31.4537L25.3362 31.458L25.268 31.4623L25.2008 31.4644L25.1325 31.4655L25.0642 31.4665H6.9674L6.9098 31.4644L6.8522 31.4623L6.7946 31.4601L6.737 31.4559L6.6794 31.4516L6.6218 31.4463L6.5642 31.4399L6.50768 31.4335L6.45008 31.426L6.39354 31.4175L6.33701 31.4079L6.28048 31.3983L6.22394 31.3876L6.16741 31.3759L6.11194 31.3631L6.05541 31.3503L5.99994 31.3353L5.94448 31.3215L5.88901 31.3055L5.83461 31.2895L5.77914 31.2724L5.72475 31.2543L5.67035 31.2351L5.61702 31.2159L5.56262 31.1956L5.50929 31.1753L5.45595 31.1529L5.40369 31.1305L5.35035 31.1081L5.29809 31.0836L5.24582 31.0591L5.19462 31.0335L5.14342 31.0079L5.09222 30.9801L5.0421 30.9535L4.99089 30.9247L4.94183 30.8959L4.8917 30.866L4.84263 30.8351L2.70506 29.4857L2.65386 29.4527L2.60373 29.4185L2.55466 29.3833L2.50666 29.346L2.45973 29.3087L2.41386 29.2692L2.37013 29.2297L2.3264 29.1892L2.28373 29.1465L2.24213 29.1039L2.2016 29.0601L2.1632 29.0153L2.1248 28.9695L2.08853 28.9225L2.05333 28.8756L2.0192 28.8265L1.98613 28.7775L1.95414 28.7284L1.92427 28.6772L1.89441 28.626L1.86667 28.5737L1.84001 28.5204L1.81441 28.4671L1.79094 28.4137L1.76854 28.3583L1.74721 28.3028L1.72694 28.2473L1.70881 28.1908L1.69174 28.1343L1.67574 28.0767L1.66187 28.0191L1.64907 27.9604L1.63734 27.9017L1.62774 27.8431L1.61921 27.7833L1.61281 27.7236L1.60747 27.6628L1.60321 27.6031L1.60107 27.5423L1.60001 27.4815V0.53363L1.67147 0.582697L1.74187 0.632828L1.81334 0.684028L1.88267 0.734162L1.95201 0.78536L2.02133 0.836559L2.0896 0.887757L2.15786 0.940024L2.22613 0.992291L2.29333 1.04562L2.35946 1.09788L2.42666 1.15122L2.49173 1.20562L2.55786 1.25895L2.62186 1.31335L2.68693 1.36775L2.75092 1.42322L2.81385 1.47868L2.87678 1.53415L2.93972 1.58962L3.00158 1.64615L3.06345 1.70268L3.12425 1.76028L3.18505 1.81682L3.24585 1.87441L3.30558 1.93307L3.36532 1.99067L3.42398 2.04934L3.48158 2.10907L3.54024 2.16774L3.59784 2.22747L3.65437 2.28721L3.71091 2.34801L3.76744 2.40881L3.82291 2.46961L3.87731 2.53041L3.93277 2.59227L3.98611 2.65414L4.04051 2.71706L4.09384 2.77893L4.14611 2.84186L4.19837 2.90586L4.25064 2.9688L4.30183 3.0328L4.35303 3.0968L4.40316 3.16186L4.4533 3.22693L4.50343 3.292L4.5525 3.35706L4.6005 3.42318L4.6485 3.48932L4.6965 3.55652L4.74343 3.62265L4.79036 3.69092L4.8373 3.75812L4.8821 3.82638L4.92796 3.89465L4.97276 3.96292L5.01755 4.03118L5.06129 4.10052L5.10502 4.17092L5.14769 4.24024L5.19035 4.31064L5.23195 4.38104L5.27355 4.45251L5.31515 4.52291L5.35569 4.59437L5.39622 4.66691L5.43569 4.73837L5.47515 4.81091L5.51462 4.8845L5.55302 4.95703L5.59035 5.03063L5.62769 5.1053L5.66502 5.1789L5.70129 5.25356L5.73754 5.32823L5.77274 5.40396L5.80794 5.4797L5.84314 5.55543L11.4218 4.89091L11.649 4.86424L11.8751 4.83971L12.1023 4.81624L12.3284 4.79384L12.5556 4.77251L12.7828 4.75331L13.01 4.73517L13.2361 4.71811L13.4633 4.70317L13.6915 4.68824L13.9187 4.67544L14.1459 4.66371L14.3731 4.65411L14.6003 4.64557L14.8286 4.63811L15.0558 4.63171L15.283 4.62744L15.5113 4.62317L15.7385 4.62104H16.1939L16.4211 4.62317L16.6483 4.62637L16.8766 4.63064L17.1038 4.63704L17.331 4.64451L17.5593 4.65304L17.7865 4.66264L18.0137 4.67437L18.2409 4.68717L18.4681 4.70104L18.6953 4.71704L18.9225 4.73304L19.1497 4.75117L19.3769 4.77037L19.6041 4.79171L19.8302 4.81411L20.0574 4.83757L20.2835 4.86211L20.5107 4.8877L26.1416 5.55543L26.1832 5.4733L26.2248 5.39116L26.2664 5.3101L26.309 5.2301L26.3506 5.1501L26.3933 5.0701L26.436 4.99116L26.4786 4.9133L26.5213 4.83437L26.565 4.75757L26.6077 4.67971L26.6514 4.60291L26.6952 4.52717L26.7389 4.45144L26.7837 4.37677L26.8274 4.30211L26.8722 4.22744L26.917 4.15385L26.9618 4.08025L27.0077 4.00772L27.0525 3.93518L27.0984 3.86372L27.1442 3.79225L27.1901 3.72185L27.236 3.65145L27.2829 3.58212L27.3288 3.51278L27.3757 3.44345L27.4226 3.37519L27.4706 3.30693L27.5176 3.23973L27.5656 3.17253L27.6136 3.1064L27.6616 3.04026L27.7096 2.97519L27.7576 2.91013L27.8066 2.84613L27.8546 2.78213L27.9037 2.71813L27.9538 2.6552L28.0029 2.59227L28.053 2.53041L28.1042 2.46961L28.1554 2.40774L28.2077 2.34694L28.26 2.28721L28.3132 2.22747L28.3665 2.16881L28.4209 2.11014L28.4764 2.05147L28.5318 1.99387L28.5884 1.93734L28.6449 1.88082L28.7025 1.82428L28.7601 1.76882L28.8188 1.71335L28.8785 1.65788L28.9382 1.60455L28.999 1.55015L29.0598 1.49682L29.1217 1.44455L29.1836 1.39228L29.2465 1.34002L29.3094 1.28882L29.3734 1.23762L29.4385 1.18748L29.5036 1.13736L29.5697 1.08829L29.6358 1.03922L29.703 0.991223L29.7702 0.943224L29.8385 0.895225L29.9078 0.848292L29.9772 0.802427L30.0476 0.75656L30.118 0.710695L30.1894 0.665896L30.2609 0.621095L30.3334 0.577364L30.406 0.53363V27.5892L30.4038 27.6479ZM19.6649 20.1312L19.4665 20.192L19.267 20.2485L19.0675 20.3029L18.867 20.3531L18.6665 20.4L18.4638 20.4437L18.2622 20.4832L18.0595 20.5205L17.8558 20.5536L17.6521 20.5824L17.4483 20.6091L17.2446 20.6315L17.0398 20.6507L16.835 20.6667L16.6302 20.6784L16.4243 20.6869L16.2195 20.6923L16.0147 20.6944L15.8089 20.6933L15.6041 20.688L15.3993 20.6794L15.1934 20.6667L14.9897 20.6517L14.7849 20.6325L14.5801 20.6101L14.3763 20.5835L14.1726 20.5546L13.9699 20.5216L13.7662 20.4853L13.5646 20.4448L13.363 20.4021L13.1614 20.3552L12.961 20.3051L12.7615 20.2507L12.562 20.1941L12.3636 20.1333L12.1663 20.0683L11.969 20.001L4.00104 17.1841V25.8645L4.00317 25.9104L4.00637 25.9552L4.01064 26L4.01597 26.0448L4.02237 26.0885L4.02984 26.1333L4.03837 26.176L4.04904 26.2197L4.05971 26.2624L4.07144 26.3051L4.08531 26.3477L4.09917 26.3893L4.11411 26.4308L4.13117 26.4713L4.14824 26.5119L4.16637 26.5524L4.18664 26.5919L4.20691 26.6303L4.22824 26.6687L4.25064 26.7071L4.27411 26.7444L4.29863 26.7807L4.32423 26.8169L4.34983 26.8521L4.37756 26.8863L4.4053 26.9204L4.4341 26.9535L4.46396 26.9865L4.4949 27.0185L4.5269 27.0495L4.5589 27.0793L4.59303 27.1092L4.62716 27.138L4.66236 27.1657L4.69756 27.1924L4.7349 27.2191L4.77223 27.2436L4.81063 27.2681L4.84903 27.2916L6.73487 28.3839L6.78606 28.4127L6.8362 28.4404L6.8874 28.4681L6.9386 28.4948L6.99086 28.5204L7.04313 28.546L7.0954 28.5705L7.14766 28.5951L7.201 28.6175L7.25433 28.6399L7.30765 28.6623L7.36099 28.6836L7.41539 28.7039L7.46979 28.7231L7.52419 28.7423L7.57859 28.7604L7.63405 28.7775L7.68845 28.7945L7.74392 28.8105L7.79939 28.8255L7.85592 28.8404L7.91139 28.8543L7.96792 28.8671L8.02445 28.8799L8.08098 28.8916L8.13751 28.9023L8.19404 28.9129L8.25058 28.9225L8.30818 28.9311L8.36578 28.9385L8.42231 28.946L8.47991 28.9524L8.53751 28.9577L8.59511 28.9631L8.65271 28.9673L8.71138 28.9705L8.76898 28.9737L8.82658 28.9759L8.88523 28.9769H23.3554L23.4216 28.9748L23.4866 28.9727L23.5517 28.9695L23.6168 28.9652L23.6818 28.9599L23.7469 28.9535L23.8109 28.9471L23.876 28.9385L23.94 28.93L24.005 28.9204L24.069 28.9097L24.133 28.898L24.196 28.8852L24.26 28.8724L24.3229 28.8575L24.3858 28.8425L24.4488 28.8265L24.5117 28.8095L24.5736 28.7913L24.6365 28.7732L24.6984 28.7529L24.7592 28.7327L24.821 28.7113L24.8818 28.6889L24.9426 28.6665L25.0024 28.642L25.0621 28.6175L25.1218 28.5919L25.1816 28.5652L25.2402 28.5375L25.2989 28.5087L25.3576 28.4799L25.4152 28.45L25.4728 28.4191L25.5293 28.3871L25.5858 28.3551L25.6424 28.3209L25.6978 28.2868L25.7533 28.2516L27.013 27.4399L27.0589 27.4089L27.1037 27.378L27.1485 27.3449L27.1912 27.3119L27.2328 27.2777L27.2744 27.2415L27.3149 27.2052L27.3533 27.1679L27.3917 27.1295L27.429 27.09L27.4653 27.0505L27.5005 27.01L27.5346 26.9684L27.5666 26.9257L27.5986 26.882L27.6296 26.8383L27.6594 26.7935L27.6882 26.7487L27.7149 26.7028L27.7416 26.6559L27.7661 26.6089L27.7906 26.5609L27.813 26.5119L27.8344 26.4629L27.8546 26.4137L27.8738 26.3636L27.892 26.3125L27.908 26.2613L27.924 26.2101L27.9378 26.1578L27.9506 26.1056L27.9613 26.0523L27.972 26L27.9805 25.9456L27.988 25.8923L27.9944 25.8378L27.9997 25.7835L28.0029 25.7291L28.005 25.6736L28.0061 25.6192V17.1841L20.0595 19.9989L19.8622 20.0661L19.6649 20.1312ZM19.9977 14.6934L20.0915 14.7382L20.1865 14.7788L20.2825 14.815L20.3795 14.846L20.4766 14.8737L20.5747 14.8961L20.6739 14.9132L20.773 14.927L20.8733 14.9356L20.9725 14.9398H21.0717L21.1709 14.9356L21.2701 14.927L21.3682 14.9142L21.4653 14.8961L21.5624 14.8748L21.6584 14.8492L21.7522 14.8193L21.8461 14.7841L21.9378 14.7457L22.0285 14.703L22.117 14.6572L22.2034 14.606L22.2877 14.5505L22.3709 14.4918L22.4509 14.4289L22.5288 14.3617L22.6034 14.2913L22.676 14.2166L25.4664 11.1885L21.3352 12.8502L18.6377 13.9958L19.9977 14.6934ZM9.51777 14.3446L9.59562 14.4118L9.67562 14.4748L9.75776 14.5334L9.84309 14.5889L9.92949 14.639L10.018 14.686L10.1087 14.7286L10.2004 14.767L10.2932 14.8012L10.3882 14.831L10.4841 14.8577L10.5801 14.879L10.6783 14.8961L10.7764 14.91L10.8756 14.9185L10.9748 14.9228H11.074L11.1732 14.9185L11.2724 14.9089L11.3716 14.8961L11.4708 14.878L11.569 14.8556L11.6671 14.8289L11.7642 14.798L11.8602 14.7617L11.9551 14.7212L12.049 14.6753L13.4078 13.9777L10.7114 12.8332L6.5802 11.1714L9.37057 14.1985L9.4431 14.2742L9.51777 14.3446Z" fill="#F8BE12"/>
<path d="M15.2105 21.5723C15.5699 21.5989 15.795 21.616 15.8846 21.6224C15.9902 21.6299 16.0958 21.6299 16.2014 21.6224C16.291 21.616 16.5161 21.5989 16.8755 21.5723V28.1664H15.2105V21.5723Z" fill="#F8BE12"/>
<path d="M17.4558 21.4315C17.6638 21.4069 17.7939 21.392 17.8462 21.3867C18.1406 21.3525 18.4329 21.3045 18.723 21.2427C18.7753 21.2309 18.9086 21.2032 19.1198 21.1573V28.1312H17.4558V21.4315Z" fill="#F8BE12"/>
<path d="M19.7395 20.9248C20.0979 20.8149 20.3219 20.7456 20.4115 20.7178C20.5182 20.6848 20.627 20.6528 20.7347 20.6218C20.8242 20.5962 21.0472 20.5312 21.4045 20.4288V28.131H19.7395V20.9248Z" fill="#F8BE12"/>
<path d="M22.0242 20.1813C22.3741 20.0629 22.5927 19.9893 22.6802 19.9594C22.7986 19.9189 22.9159 19.8805 23.0343 19.8432C23.1218 19.8154 23.3405 19.7461 23.6893 19.6341V28.1311H22.0242V20.1813Z" fill="#F8BE12"/>
<path d="M24.309 25.2363V19.3952C24.6525 19.2683 24.8669 19.1904 24.9522 19.1584C25.0781 19.1125 25.205 19.0667 25.332 19.0229C25.4184 18.9931 25.6317 18.9195 25.9741 18.8022V26.7082C25.9741 26.9578 25.8493 27.1903 25.6402 27.3279C25.4717 27.4399 25.332 27.5274 25.221 27.5924C25.0205 27.7098 24.7165 27.8474 24.309 28.0063V25.2363Z" fill="#F8BE12"/>
<path d="M14.5513 21.4315C14.3422 21.4069 14.2121 21.392 14.1609 21.3867C13.8665 21.3525 13.5731 21.3045 13.2841 21.2427C13.2307 21.2309 13.0985 21.2032 12.8862 21.1573V28.1312H14.5513V21.4315Z" fill="#F8BE12"/>
<path d="M12.2665 20.9248C11.9081 20.8149 11.6852 20.7456 11.5956 20.7178C11.4879 20.6848 11.3802 20.6528 11.2714 20.6218C11.1828 20.5962 10.9588 20.5312 10.6015 20.4288V28.131H12.2665V20.9248Z" fill="#F8BE12"/>
<path d="M9.98176 20.1813C9.63189 20.0629 9.41322 19.9893 9.32577 19.9594C9.20843 19.9189 9.09003 19.8805 8.97163 19.8432C8.88417 19.8154 8.66657 19.7461 8.31671 19.6341V28.1311H9.98176V20.1813Z" fill="#F8BE12"/>
<path d="M7.69697 25.2363V19.3952C7.35457 19.2683 7.14018 19.1904 7.05378 19.1584C6.92791 19.1125 6.80098 19.0667 6.67405 19.0229C6.58871 18.9931 6.37432 18.9195 6.03192 18.8022V26.7082C6.03192 26.9578 6.15779 27.1903 6.36579 27.3279C6.53431 27.4399 6.67405 27.5274 6.78498 27.5924C6.98551 27.7098 7.28951 27.8474 7.69697 28.0063V25.2363Z" fill="#F8BE12"/>
</svg>
