<svg width="32" height="32" viewBox="0 0 32 32" fill="none" xmlns="http://www.w3.org/2000/svg">
<g clip-path="url(#clip0_3733_193)">
<path d="M22.59 14.4351H16.175C16.0322 14.4364 15.8958 14.4942 15.7955 14.5959C15.6953 14.6975 15.6394 14.8348 15.64 14.9776V21.5001C15.64 21.6327 15.6927 21.7598 15.7865 21.8536C15.8802 21.9474 16.0074 22.0001 16.14 22.0001H22.59C22.7226 22.0001 22.8498 21.9474 22.9436 21.8536C23.0373 21.7598 23.09 21.6327 23.09 21.5001V14.9426C23.091 14.8763 23.0788 14.8104 23.0541 14.7489C23.0295 14.6874 22.9928 14.6314 22.9463 14.5841C22.8997 14.5369 22.8443 14.4994 22.7831 14.4738C22.722 14.4482 22.6563 14.4351 22.59 14.4351ZM20.4025 19.1201C20.4025 19.1601 20.3868 19.1985 20.3587 19.227C20.3307 19.2555 20.2925 19.2719 20.2525 19.2726H18.4775C18.4375 19.2719 18.3994 19.2555 18.3713 19.227C18.3432 19.1985 18.3275 19.1601 18.3275 19.1201V17.3176C18.3272 17.2976 18.3308 17.2779 18.3382 17.2594C18.3456 17.2409 18.3566 17.2241 18.3706 17.2099C18.3845 17.1957 18.4012 17.1844 18.4195 17.1767C18.4379 17.169 18.4576 17.1651 18.4775 17.1651H20.25C20.2699 17.1651 20.2896 17.169 20.308 17.1767C20.3264 17.1844 20.343 17.1957 20.357 17.2099C20.3709 17.2241 20.3819 17.2409 20.3893 17.2594C20.3967 17.2779 20.4004 17.2976 20.4 17.3176L20.4025 19.1201Z" fill="#4343FF"/>
<path d="M0 10V21.5C0 21.6326 0.0526784 21.7598 0.146447 21.8536C0.240215 21.9473 0.367392 22 0.5 22H6.95C7.08261 22 7.20979 21.9473 7.30355 21.8536C7.39732 21.7598 7.45 21.6326 7.45 21.5V14.9775C7.45067 14.8347 7.39475 14.6975 7.29449 14.5958C7.19423 14.4941 7.05778 14.4363 6.915 14.435H2.93V10H0ZM2.6875 17.3175C2.68717 17.2976 2.6908 17.2778 2.69819 17.2593C2.70558 17.2408 2.71658 17.224 2.73054 17.2098C2.7445 17.1956 2.76115 17.1843 2.77951 17.1767C2.79788 17.169 2.81759 17.165 2.8375 17.165H4.6125C4.6322 17.1653 4.65164 17.1695 4.66972 17.1774C4.68779 17.1852 4.70414 17.1965 4.71784 17.2107C4.73154 17.2249 4.74231 17.2416 4.74954 17.2599C4.75678 17.2782 4.76033 17.2978 4.76 17.3175V19.12C4.76033 19.1397 4.75678 19.1593 4.74954 19.1776C4.74231 19.1959 4.73154 19.2126 4.71784 19.2268C4.70414 19.241 4.68779 19.2523 4.66972 19.2601C4.65164 19.268 4.6322 19.2722 4.6125 19.2725H2.8375C2.79749 19.2718 2.75934 19.2555 2.73128 19.227C2.70322 19.1984 2.68749 19.16 2.6875 19.12V17.3175Z" fill="#4343FF"/>
<path d="M12.25 10V14.435H8.27003C8.12966 14.4396 7.99665 14.4989 7.89947 14.6003C7.80229 14.7017 7.74865 14.8371 7.75003 14.9775V21.5C7.75003 21.6326 7.8027 21.7598 7.89647 21.8536C7.99024 21.9473 8.11742 22 8.25003 22H14.7C14.8326 22 14.9598 21.9473 15.0536 21.8536C15.1473 21.7598 15.2 21.6326 15.2 21.5V10H12.25ZM12.5 19.115C12.5 19.155 12.4843 19.1934 12.4562 19.222C12.4282 19.2505 12.39 19.2668 12.35 19.2675H10.575C10.5553 19.2672 10.5359 19.263 10.5178 19.2551C10.4997 19.2473 10.4834 19.236 10.4697 19.2218C10.456 19.2076 10.4452 19.1909 10.438 19.1726C10.4307 19.1543 10.4272 19.1347 10.4275 19.115V17.3175C10.4272 17.2978 10.4307 17.2782 10.438 17.2599C10.4452 17.2416 10.456 17.2249 10.4697 17.2107C10.4834 17.1965 10.4997 17.1852 10.5178 17.1774C10.5359 17.1695 10.5553 17.1653 10.575 17.165H12.35C12.3699 17.165 12.3896 17.169 12.408 17.1767C12.4264 17.1843 12.443 17.1956 12.457 17.2098C12.4709 17.224 12.4819 17.2408 12.4893 17.2593C12.4967 17.2778 12.5004 17.2976 12.5 17.3175V19.115Z" fill="#4343FF"/>
<path d="M31.9575 22H27.93C27.9254 22.0024 27.9202 22.0037 27.915 22.0037C27.9098 22.0037 27.9046 22.0024 27.9 22L26.4775 20.5575V22H23.5475V10H26.4775V15.6075L27.6675 14.3975C27.6759 14.3903 27.6864 14.3859 27.6975 14.385H31.7275C31.7359 14.385 31.7441 14.3875 31.751 14.3922C31.758 14.3969 31.7634 14.4035 31.7667 14.4113C31.7699 14.419 31.7707 14.4275 31.7691 14.4358C31.7674 14.444 31.7634 14.4516 31.7575 14.4575L28.1925 18.0725L32 21.9275C32.0079 21.9339 32.0132 21.9429 32.015 21.9529C32.0169 21.9629 32.015 21.9732 32.0099 21.982C32.0048 21.9908 31.9966 21.9974 31.987 22.0007C31.9774 22.004 31.9669 22.0038 31.9575 22V22Z" fill="#4343FF"/>
</g>
<defs>
<clipPath id="clip0_3733_193">
<rect width="32" height="32" fill="white"/>
</clipPath>
</defs>
</svg>
