<svg width="32" height="32" viewBox="0 0 32 32" fill="none" xmlns="http://www.w3.org/2000/svg">
<path d="M26.7022 22.7556C24.9828 22.7556 23.4667 24.2347 23.4667 25.9727C23.4667 27.7106 24.9828 29.2267 26.7022 29.2267C28.4217 29.2267 29.9193 27.7106 29.9193 25.9727C29.9193 24.2347 28.4217 22.7556 26.7022 22.7556Z" fill="#EEC200"/>
<path d="M10.8331 10.5827C8.31858 10.5827 6.50667 11.5996 5.2864 13.1527V2.1333H1.42223V28.7573H5.2864V26.6496C6.50667 28.2026 8.31858 29.2195 10.8331 29.2195C15.7881 29.2195 19.6892 25.3184 19.6892 19.9011C19.6892 14.4839 15.7881 10.5827 10.8331 10.5827ZM10.3708 14.225C13.6988 14.225 15.7141 16.795 15.7141 19.9011C15.7141 23.0073 13.6988 25.5772 10.3708 25.5772C7.17227 25.5772 5.02756 23.1367 5.02756 19.9011C5.02756 16.6656 7.17227 14.225 10.3708 14.225Z" fill="#0F0043"/>
</svg>
