<svg width="32" height="32" viewBox="0 0 36 36" fill="currentColor" xmlns="http://www.w3.org/2000/svg"><path d="M15.8263 33.4593C24.5119 33.4593 31.553 26.4182 31.553 17.7326C31.553 14.4002 30.5166 11.3099 28.7485 8.76648C28.2583 10.0184 27.5572 11.3305 26.383 12.6611C24.3875 14.9224 21.1276 17.1331 15.5043 19.4238C10.1036 21.6238 7.81127 23.6272 6.66751 25.309C6.09277 26.1538 5.76662 26.977 5.4985 27.8308C5.4222 28.0735 5.34447 28.3439 5.26262 28.6283C5.20692 28.8218 5.14943 29.0218 5.08925 29.2239C7.89992 31.8511 11.6754 33.4593 15.8263 33.4593Z"></path><path d="M2.95112 26.7657C3.25595 25.8372 3.67272 24.8204 4.39272 23.7617C5.96381 21.4518 8.81317 19.1788 14.4666 16.8761C19.8972 14.6638 22.7204 12.6539 24.3203 10.8409C25.6408 9.34444 26.1971 7.91233 26.6664 6.33855C23.8453 3.65379 20.0283 2.00586 15.8263 2.00586C7.1407 2.00586 0.0996094 9.04695 0.0996094 17.7326C0.0996094 21.0943 1.15453 24.2095 2.95112 26.7657Z"></path></svg>