<svg width="32" height="32" viewBox="0 0 32 32" fill="none" xmlns="http://www.w3.org/2000/svg">
<g clip-path="url(#clip0)">
<path fill-rule="evenodd" clip-rule="evenodd" d="M23.9852 7.17962L23.5835 21.639C23.5452 23.0197 22.3899 24.1045 21.0031 24.0618C20.5611 24.0482 20.1303 23.9187 19.754 23.6864L7.35926 16.0349C6.17843 15.306 5.81152 13.7638 6.53974 12.5904C6.7718 12.2164 7.09907 11.9104 7.48848 11.7032L20.2848 4.89533C21.5068 4.24522 23.0299 4.70632 23.6867 5.92521C23.8944 6.31059 23.9973 6.74306 23.9852 7.17962Z" fill="#88EEFF"/>
<path fill-rule="evenodd" clip-rule="evenodd" d="M19.7745 14.4723L19.3728 28.9317C19.3345 30.3125 18.1792 31.3972 16.7924 31.3545C16.3504 31.3409 15.9196 31.2114 15.5433 30.9791L3.14857 23.3277C1.96774 22.5987 1.60082 21.0565 2.32904 19.8831C2.56111 19.5091 2.88838 19.2031 3.27778 18.9959L16.0741 12.1881C17.2961 11.5379 18.8192 11.999 19.476 13.2179C19.6837 13.6033 19.7866 14.0358 19.7745 14.4723Z" fill="#0055FF"/>
<path fill-rule="evenodd" clip-rule="evenodd" d="M19.4557 23.4957L7.83735 16.4121L15.9739 12.0997C17.1996 11.4501 18.7298 11.9064 19.3916 13.119C19.6009 13.5024 19.7051 13.9329 19.6937 14.3676L19.4557 23.4957Z" fill="#4488FF"/>
</g>
<defs>
<clipPath id="clip0">
<rect width="32" height="32" fill="white"/>
</clipPath>
</defs>
</svg>
