<svg width="286" height="286" viewBox="0 0 286 286" fill="none" xmlns="http://www.w3.org/2000/svg">
<path d="M88.08 45.4516L120.47 13.0316C124.601 8.90012 129.506 5.6228 134.904 3.38682C140.302 1.15084 146.087 0 151.93 0C157.773 0 163.558 1.15084 168.956 3.38682C174.354 5.6228 179.259 8.90012 183.39 13.0316V13.0316L184.32 13.9616C188.452 18.0929 191.729 22.9976 193.965 28.3955C196.201 33.7934 197.352 39.5789 197.352 45.4216C197.352 51.2643 196.201 57.0498 193.965 62.4478C191.729 67.8457 188.452 72.7503 184.32 76.8816V76.8816L151.93 109.272L88.08 45.4516Z" fill="#F25238"/>
<path d="M176.18 133.542L208.57 101.152C212.701 97.0201 217.606 93.7428 223.004 91.5068C228.402 89.2708 234.187 88.12 240.03 88.12C245.873 88.12 251.658 89.2708 257.056 91.5068C262.454 93.7428 267.359 97.0201 271.49 101.152V101.152L272.42 102.082C276.552 106.213 279.829 111.118 282.065 116.516C284.301 121.913 285.452 127.699 285.452 133.542C285.452 139.384 284.301 145.17 282.065 150.568C279.829 155.966 276.552 160.87 272.42 165.002V165.002L240 197.392L176.15 133.542H176.18Z" fill="#F68774"/>
<path d="M0 133.542L32.39 101.152C36.5213 97.0201 41.426 93.7428 46.8239 91.5068C52.2218 89.2708 58.0073 88.12 63.85 88.12C69.6927 88.12 75.4782 89.2708 80.8761 91.5068C86.274 93.7428 91.1787 97.0201 95.31 101.152V101.152L96.24 102.082C100.372 106.213 103.649 111.118 105.885 116.516C108.121 121.913 109.272 127.699 109.272 133.542C109.272 139.384 108.121 145.17 105.885 150.568C103.649 155.966 100.372 160.87 96.24 165.002L63.85 197.392L0 133.542Z" fill="#F68774"/>
<path d="M88.08 221.632L120.47 189.242C124.601 185.11 129.506 181.833 134.904 179.597C140.302 177.361 146.087 176.21 151.93 176.21C157.773 176.21 163.558 177.361 168.956 179.597C174.354 181.833 179.259 185.11 183.39 189.242V189.242L184.32 190.172C188.452 194.303 191.729 199.208 193.965 204.606C196.201 210.003 197.352 215.789 197.352 221.632C197.352 227.474 196.201 233.26 193.965 238.658C191.729 244.056 188.452 248.96 184.32 253.092V253.092L151.93 285.452L88.08 221.632Z" fill="#FCD3CD"/>
</svg>
