<svg width="32" height="32" viewBox="0 0 32 32" fill="none" xmlns="http://www.w3.org/2000/svg">
<path fill-rule="evenodd" clip-rule="evenodd" d="M20.6104 16.3944C20.1376 15.9912 19.5264 15.72 18.7752 15.5816C19.3624 15.444 19.8552 15.176 20.252 14.7776C20.6488 14.3792 20.8472 13.8568 20.8472 13.2072C20.8472 12.2088 20.4288 11.4904 19.5912 11.048C18.7536 10.6072 17.5408 10.3872 15.9536 10.3872L11.3512 10.3896V10.8656C11.3512 11.624 11.9808 12.2352 12.756 12.2352V12.2384H14.6312L12.756 12.752V19.5856C11.98 19.5856 11.3512 20.2008 11.3512 20.9592V21.4312H12.756H16.3936C17.948 21.4312 19.1584 21.1896 20.0224 20.7056C20.8872 20.2224 21.32 19.3912 21.32 18.212C21.32 17.4048 21.0832 16.7992 20.6104 16.3944ZM15.4312 12.2352H16.2144C16.8776 12.2352 17.3624 12.3288 17.6656 12.5144C17.9704 12.7 18.1224 13.016 18.1224 13.4632C18.1224 14.3552 17.5576 14.8008 16.4256 14.8008H15.4304V12.2352H15.4312ZM18.0168 19.2232C17.6536 19.4312 17.1176 19.5344 16.4104 19.5344H15.4312V16.5384H16.6056C17.9112 16.5384 18.5624 17.0488 18.5624 18.068C18.5624 18.6312 18.3816 19.016 18.0168 19.2232ZM17.4352 3.37602C16.8824 3.14322 16.2592 3.14082 15.7056 3.37202L2.2696 8.90401C1.4576 9.24081 0.799999 10.0192 0.799999 10.8808V20.9408C0.799999 21.8008 1.4568 22.5776 2.2656 22.916L15.5272 28.444C16.08 28.6768 16.74 28.6768 17.2936 28.444L30.5048 22.916C31.3144 22.5776 31.8424 21.8 31.8424 20.9408V10.8736C31.8424 10.0152 31.3328 9.24001 30.5264 8.90001L17.4352 3.37602Z" fill="#EC3370"/>
</svg>
