<svg width="32" height="32" viewBox="0 0 32 32" fill="none" xmlns="http://www.w3.org/2000/svg">
<path d="M16.0088 17.9602V16.7735C16.0077 16.3717 16.1087 15.9761 16.3023 15.624C16.4958 15.2719 16.7756 14.9746 17.1154 14.7602L26.9154 8.4935C27.2519 8.27654 27.5284 7.97843 27.7195 7.6266C27.9106 7.27476 28.01 6.88052 28.0088 6.48016V1.3335L16.0088 9.00016L4.00878 1.3335V17.5335C3.93139 19.5204 4.36665 21.4939 5.27269 23.2639C6.17872 25.034 7.52504 26.541 9.18211 27.6402L16.0088 32.0002L22.8354 27.6402C24.4925 26.541 25.8388 25.034 26.7449 23.2639C27.6509 21.4939 28.0862 19.5204 28.0088 17.5335V10.2935L16.0088 17.9602Z" fill="black"/>
</svg>
