<svg width="32" height="32" viewBox="0 0 32 32" fill="none" xmlns="http://www.w3.org/2000/svg">
<path d="M16.421 1.6842C10.1526 1.6842 5.05263 6.91022 5.05263 13.3333C5.05263 18.9771 8.99115 23.6931 14.1986 24.7554V21.8169C12.7594 21.4234 11.4377 20.6566 10.3561 19.548C8.73642 17.8888 7.84488 15.6814 7.84488 13.3333C7.84488 10.9858 8.73642 8.77894 10.3561 7.1194C11.9762 5.45953 14.1297 4.54585 16.421 4.54585C18.7122 4.54585 20.8658 5.45953 22.4855 7.1194C24.1055 8.77894 24.9981 10.9858 24.9981 13.3333C24.9981 15.6814 24.1055 17.8888 22.4855 19.548C21.4044 20.6559 20.0827 21.4226 18.6442 21.8161V24.7554C23.8519 23.6931 27.7895 18.9771 27.7895 13.3333C27.7895 6.91022 22.6894 1.6842 16.421 1.6842Z" fill="#4DA46E"/>
<path d="M15.0902 24.8957V31.1579H17.7527V24.8957V22.0077V20.2878L23.6845 14.2101L21.8024 12.2806L17.7527 16.4306V8.81305H15.0902V16.4541L11.017 12.2798L9.16867 14.1738L15.0902 20.2429V22.0077V24.8957Z" fill="#4DA46E"/>
</svg>
