<svg width="32" height="32" viewBox="0 0 32 32" fill="none" xmlns="http://www.w3.org/2000/svg">
<path d="M30.1296 16.0049C30.1296 23.8077 23.8043 30.1329 16.0016 30.1329C8.19901 30.1329 1.87366 23.8077 1.87366 16.0049C1.87366 8.2023 8.19901 1.87695 16.0016 1.87695C23.8043 1.87695 30.1296 8.2023 30.1296 16.0049Z" fill="white"/>
<path d="M23.166 24.3681C22.8297 24.6674 21.4831 25.8273 19.358 26.5601C18.3387 26.9116 16.6654 27.4665 14.526 27.1201C12.6388 26.8145 11.367 25.966 10.878 25.6321C9.76523 24.8721 9.27675 24.1724 9.15003 23.9841C8.88955 23.597 8.49003 22.9889 8.38203 22.0961C8.35627 21.8826 8.29515 21.2242 8.54203 20.4481C8.70203 19.945 8.92459 19.6023 9.13403 19.2801C9.43339 18.8193 9.71211 18.5204 10.078 18.1281C10.3223 17.8662 10.6587 17.526 11.086 17.1521C14.1153 14.5334 17.1447 11.9148 20.174 9.29608L21.038 10.4961C21.1767 9.41336 21.3153 8.3308 21.454 7.24806C20.446 6.99734 19.438 6.74678 18.43 6.49606C18.6593 6.88006 18.8888 7.26406 19.118 7.64806C16.126 10.2988 13.134 12.9494 10.142 15.6001C9.97979 15.7801 9.76411 15.9844 9.48603 16.1761C9.34683 16.2721 9.21179 16.351 9.08603 16.4161C8.97547 16.5001 8.12667 17.1236 7.10201 16.8481C6.48297 16.6817 6.10521 16.269 5.99801 16.1441C5.69561 15.7911 5.58521 15.4353 5.53401 15.2641C5.14777 13.9727 5.77417 12.3815 5.83801 12.2241C7.42633 8.30536 11.118 6.51206 11.118 6.51206C15.0358 4.60886 18.742 5.76966 19.342 5.96806C20.1032 6.2199 23.687 7.49814 25.646 11.3601C25.9471 11.9537 27.4841 15.1202 26.446 19.0401C26.2455 19.7972 25.4951 22.2956 23.166 24.3681ZM16.046 3.66406C9.17995 3.66406 3.61401 9.2372 3.61401 16.1121C3.61401 22.987 9.17995 28.5601 16.046 28.5601C22.9121 28.5601 28.478 22.987 28.478 16.1121C28.478 9.2372 22.9121 3.66406 16.046 3.66406Z" fill="#573A78"/>
<path d="M12.2703 13.2324L16.0783 9.98438H12.2703" fill="#573A78"/>
<path d="M18.763 19.5161C18.514 19.7653 18.17 19.9192 17.79 19.9192H14.702V17.1672H17.79C18.55 17.1672 19.166 17.7832 19.166 18.5432C19.166 18.9232 19.0121 19.2672 18.763 19.5161ZM21.646 18.2392C21.6073 17.9809 21.499 17.5022 21.15 17.0232C20.6545 16.3429 19.9881 16.0937 19.742 16.0152C20.0108 15.9205 20.5512 15.6849 20.974 15.1352C21.4792 14.4784 21.5054 13.7773 21.518 13.4392C21.5272 13.195 21.5435 12.588 21.214 11.9352C21.0176 11.5457 20.7752 11.2926 20.622 11.1352C20.2336 10.7355 19.8345 10.5001 19.566 10.3672C18.8224 10.9961 18.0787 11.6253 17.335 12.2542H17.6451C18.3702 12.2542 18.958 12.8421 18.958 13.5672C18.958 13.9297 18.8112 14.2581 18.5734 14.4955C18.336 14.7333 18.0076 14.8801 17.6451 14.8801H14.766V14.4312L14.7679 14.4297C14.7674 14.4286 14.767 14.4277 14.7665 14.4267C13.945 15.1215 13.1235 15.8163 12.302 16.5112C12.2966 18.3992 12.2913 20.2872 12.2859 22.1752H18.494C18.6824 22.152 18.9441 22.1077 19.246 22.0152C19.5843 21.9117 20.1048 21.7465 20.606 21.3112C20.7307 21.203 21.088 20.8749 21.358 20.3352C21.8049 19.4421 21.7057 18.5827 21.646 18.2392Z" fill="#573A78"/>
</svg>
