<svg width="32" height="32" viewBox="0 0 32 32" fill="none" xmlns="http://www.w3.org/2000/svg">
<path fill-rule="evenodd" clip-rule="evenodd" d="M21.9756 19.0296L21.9704 19.0269L21.7404 18.9318L13.9042 15.7131C13.6873 15.6153 13.452 15.561 13.2011 15.561C12.2444 15.561 11.4708 16.3623 11.4708 17.3483C11.4708 17.7557 11.6041 18.1333 11.8262 18.4348L11.8393 18.4511C11.8785 18.5027 11.9203 18.5516 11.9674 18.6004L17.5871 25.2715C18.2849 26.0863 19.3069 26.6024 20.4466 26.6024C22.5585 26.6024 24.2706 24.8342 24.2706 22.653C24.2706 21.0315 23.327 19.638 21.9756 19.0296V19.0296ZM19.3488 5.69026C21.1235 5.11442 23.0342 6.06238 23.6171 7.80891C24.2026 9.55001 23.2381 11.4296 21.4633 12.0055C19.6912 12.5786 17.7779 11.6306 17.195 9.88682C16.6121 8.14301 17.5766 6.26338 19.3488 5.69026V5.69026ZM31.6781 7.7736C31.4193 7.39333 31.0456 7.1543 30.6378 7.04565V7.04022L29.1061 6.62464C29.0852 6.54859 29.0695 6.47253 29.046 6.39919C27.4594 1.51544 22.2605 -1.13831 17.4355 0.469691C14.9367 1.30085 13.0364 3.118 11.9987 5.35073L9.23333 9.91941L2.67267 7.22764L2.67006 7.23307C2.25708 7.05652 1.78659 7.01849 1.32656 7.1706C0.312406 7.51013 -0.236493 8.61563 0.0980742 9.64236C0.145123 9.78903 0.213082 9.92756 0.291496 10.0552L0.281041 10.0688L7.1266 19.4886L7.13967 19.5158L7.16058 19.5403L12.0589 26.6785C14.197 30.6496 18.8286 33.0426 23.2956 31.5541C28.1181 29.9461 30.7424 24.6848 29.1532 19.801C28.6592 18.2799 27.8149 16.9789 26.7406 15.9521C28.0946 14.6076 29.0146 12.8719 29.357 10.9896L30.8365 10.5469V10.5278C30.9671 10.4762 31.0952 10.4165 31.2155 10.3296C32.0414 9.75372 32.2479 8.6102 31.6781 7.7736" fill="#1976D2"/>
</svg>
