<svg width="32" height="32" viewBox="0 0 32 32" fill="none" xmlns="http://www.w3.org/2000/svg">
<path d="M0.228516 22.4677H9.1076V20.5209H3.21983C4.02715 17.2921 8.9652 16.5799 8.9652 12.9713C8.9652 11.0246 7.6356 9.6001 4.88177 9.6001C3.12497 9.6001 1.65297 10.1224 0.608402 10.6447L1.22554 12.449C2.17526 12.0217 3.21983 11.5943 4.50188 11.5943C5.54645 11.5943 6.49617 12.0217 6.49617 13.2087C6.54348 15.8677 0.750801 16.0576 0.228516 22.4677Z" fill="#00629A"/>
<path d="M26.8658 19.7614C24.1593 19.7614 21.9277 17.5298 21.9277 14.8233C21.9277 12.1169 24.1593 9.88525 26.8658 9.88525C29.5723 9.88525 31.8038 12.1169 31.8038 14.8233C31.8038 17.5298 29.5723 19.7614 26.8658 19.7614ZM26.8658 10.7874C24.634 10.7874 22.8299 12.5917 22.8299 14.8233C22.8299 17.055 24.634 18.8593 26.8658 18.8593C29.0973 18.8593 30.9017 17.055 30.9017 14.8233C30.9017 12.5917 29.0973 10.7874 26.8658 10.7874Z" fill="#00629A"/>
<path d="M29.6672 14.8231H27.1981V12.354H26.5334V15.4878H29.6672V14.8231Z" fill="#00629A"/>
<path d="M17.3695 17.4821V9.6001H15.7076L9.39258 17.8144V19.3813H15.0904V22.515H17.3695V19.3813H19.2687V17.4821H17.3695ZM15.0904 15.6303V17.4346H13.5709C13.0961 17.4346 12.2415 17.4821 11.9565 17.4821L15.1853 13.1137C15.1853 13.4936 15.0904 14.6332 15.0904 15.6303Z" fill="#00629A"/>
</svg>
