<svg width="32" height="32" viewBox="0 0 32 32" fill="none" xmlns="http://www.w3.org/2000/svg">
<path fill-rule="evenodd" clip-rule="evenodd" d="M16 0C24.8363 0 32 7.16373 32 16C32 24.8363 24.8363 32 16 32C7.16373 32 0 24.8363 0 16C0 7.16373 7.16373 0 16 0ZM19.9872 16.5568C19.9508 16.5234 19.9033 16.5048 19.8539 16.5048C19.8045 16.5048 19.7569 16.5234 19.7205 16.5568L11.0507 24.7182C10.9916 24.7751 11.0336 24.8704 11.1175 24.8704H19.2313C19.3308 24.8704 19.4268 24.8327 19.4972 24.7659L23.3017 21.1833C23.4062 21.0876 23.4896 20.9711 23.5467 20.8414C23.6037 20.7117 23.6332 20.5716 23.6332 20.4299C23.6332 20.2882 23.6037 20.148 23.5467 20.0183C23.4896 19.8886 23.4062 19.7722 23.3017 19.6764L19.9872 16.5568ZM19.9872 7.67716C19.9508 7.64372 19.9033 7.62517 19.8539 7.62517C19.8045 7.62517 19.7569 7.64372 19.7205 7.67716L10.0658 16.7652C10.0312 16.7973 10.0035 16.8363 9.98457 16.8796C9.96561 16.9229 9.95574 16.9696 9.95556 17.0169V23.7767C9.95556 23.8549 10.0572 23.8955 10.1163 23.8393L22.6283 12.0007C23.0699 11.584 23.0706 10.5892 22.6283 10.1732L19.9872 7.67716ZM18.2258 7.11111H10.144C10.0402 7.11111 9.95556 7.19076 9.95556 7.28889V14.8971C9.95556 14.976 10.0572 15.0158 10.117 14.9596L18.2919 7.26258C18.3509 7.20711 18.309 7.11111 18.2251 7.11111H18.2258Z" fill="#115CFA"/>
</svg>
