<svg width="32" height="32" viewBox="0 0 32 32" fill="none" xmlns="http://www.w3.org/2000/svg">
<path d="M16 32C24.8366 32 32 24.8366 32 16C32 7.16344 24.8366 0 16 0C7.16344 0 0 7.16344 0 16C0 24.8366 7.16344 32 16 32Z" fill="#FFD500"/>
<path d="M19.2435 12.6779L18.4594 14.6715C18.879 14.9398 19.2233 15.3112 19.4595 15.7505C19.6957 16.1897 19.8161 16.6822 19.8092 17.1813C19.7934 17.7358 19.6165 18.2736 19.3003 18.7287C18.9841 19.1838 18.5423 19.5365 18.0291 19.7435C17.5159 19.9505 16.9536 20.0027 16.4112 19.8939C15.8688 19.785 15.3699 19.5197 14.9757 19.1306C14.5815 18.7415 14.3091 18.2455 14.1919 17.7033C14.0748 17.1612 14.1179 16.5966 14.3162 16.0787C14.5144 15.5608 14.859 15.1123 15.3078 14.788C15.7566 14.4637 16.29 14.2778 16.8426 14.2532L17.5792 12.2094C16.8794 12.0961 16.1635 12.1362 15.4807 12.3271C14.7979 12.5179 14.1644 12.8548 13.6239 13.3147C13.0834 13.7746 12.6487 14.3465 12.3497 14.9911C12.0508 15.6356 11.8947 16.3374 11.8922 17.0483H11.8863V22.1917H14.1288V21.3852C14.9775 21.9214 15.9622 22.2013 16.9652 22.1917C17.6304 22.2112 18.2926 22.0957 18.9121 21.8521C19.5316 21.6085 20.0956 21.2417 20.5702 20.774C21.0447 20.3062 21.4201 19.747 21.6737 19.13C21.9273 18.5131 22.0538 17.8511 22.0458 17.1838C22.0598 16.2421 21.803 15.3163 21.306 14.5172C20.809 13.7181 20.093 13.0795 19.2435 12.6779V12.6779Z" fill="#002840"/>
<path d="M11.8863 12.4327C12.525 11.7822 13.2861 11.2653 14.1255 10.9118V7.69171H11.8863V12.4327Z" fill="#002840"/>
</svg>
