<svg width="32" height="32" viewBox="0 0 32 32" fill="none" xmlns="http://www.w3.org/2000/svg">
<path d="M16.3066 8.93333C20.7733 8.93333 24.6266 11.6133 26.3333 15.44C26.9466 14.08 27.2799 12.5733 27.2799 10.9733C27.2799 4.90667 22.3733 0 16.3066 0C10.2399 0 5.33325 4.90667 5.33325 10.9733C5.33325 12.56 5.67992 14.0667 6.27992 15.44C7.98659 11.6 11.8399 8.93333 16.3066 8.93333Z" fill="#0090DA"/>
<path d="M16.3066 21.9598C11.8399 21.9598 7.98659 19.2798 6.27992 15.4531C5.66659 16.8131 5.33325 18.3198 5.33325 19.9198C5.33325 25.9865 10.2533 30.8931 16.3066 30.8931C22.3733 30.8931 27.2799 25.9865 27.2799 19.9198C27.2799 18.3331 26.9333 16.8265 26.3333 15.4531C24.6266 19.2931 20.7733 21.9598 16.3066 21.9598V21.9598Z" fill="#7FADE3"/>
<path d="M16.3065 21.9596C20.7731 21.9596 24.6265 19.2796 26.3331 15.453C24.6265 11.613 20.7731 8.94629 16.3065 8.94629C11.8398 8.94629 7.98645 11.6263 6.27979 15.453C7.98645 19.293 11.8398 21.9596 16.3065 21.9596Z" fill="#0047BB"/>
</svg>
