<svg width="32" height="32" viewBox="0 0 32 32" fill="none" xmlns="http://www.w3.org/2000/svg">
<path d="M29.4077 7.92142C29.4077 7.90087 29.3872 7.88619 29.3813 7.86564L29.3431 7.80693C29.0987 7.40424 28.7563 7.06995 28.3479 6.83518L17.1596 0.376469C16.7331 0.12985 16.2491 0 15.7563 0C15.2636 0 14.7796 0.12985 14.353 0.376469L3.16478 6.83518C2.75683 7.07056 2.4146 7.40471 2.16955 7.80693C2.16955 7.83041 2.14313 7.84216 2.13432 7.86271C2.12253 7.88289 2.11364 7.90463 2.1079 7.92729C1.87984 8.33975 1.76062 8.80351 1.76148 9.27482V22.1922C1.7607 22.6859 1.89 23.171 2.13636 23.5988C2.38271 24.0266 2.73743 24.3819 3.16478 24.6289L14.353 31.0877C14.7796 31.3343 15.2636 31.4641 15.7563 31.4641C16.2491 31.4641 16.7331 31.3343 17.1596 31.0877L28.3479 24.6289C28.7758 24.3822 29.131 24.027 29.3779 23.5992C29.6248 23.1715 29.7546 22.6862 29.7541 22.1922V9.27482C29.7593 8.80112 29.6398 8.3344 29.4077 7.92142ZM15.316 2.01463C15.4551 1.93395 15.6131 1.89146 15.774 1.89146C15.9348 1.89146 16.0928 1.93395 16.2319 2.01463L26.9182 8.19445L22.1563 10.9453C21.4134 9.94852 20.4478 9.13908 19.3367 8.58147C18.2256 8.02385 16.9995 7.73347 15.7563 7.73347C14.5131 7.73347 13.2871 8.02385 12.176 8.58147C11.0649 9.13908 10.0993 9.94852 9.35634 10.9453L4.59451 8.19445L15.316 2.01463ZM21.8657 15.7335C21.8607 18.7404 19.6715 21.2977 16.7017 21.7666V16.2767L21.4547 13.5317C21.7256 14.2342 21.8649 14.9806 21.8657 15.7335ZM10.058 13.5376L14.811 16.2825V21.7724C11.4836 21.2434 9.21337 18.1191 9.73799 14.7911C9.80562 14.3679 9.91679 13.9527 10.0697 13.5522L10.058 13.5376ZM15.7563 14.6414L11.0092 11.8965C11.5804 11.1871 12.3033 10.6147 13.1248 10.2214C13.9463 9.82817 14.8456 9.62404 15.7563 9.62404C16.6671 9.62404 17.5663 9.82817 18.3879 10.2214C19.2094 10.6147 19.9323 11.1871 20.5035 11.8965L15.7563 14.6414ZM4.1101 22.9878C3.97017 22.9074 3.85389 22.7915 3.77298 22.6518C3.69207 22.5122 3.64937 22.3537 3.64919 22.1922V9.83262L8.41102 12.5776C7.92204 13.7212 7.70615 14.963 7.78047 16.2046C7.85478 17.4462 8.21726 18.6534 8.83917 19.7306C9.46108 20.8077 10.3253 21.7252 11.3634 22.4104C12.4015 23.0955 13.5849 23.5294 14.8198 23.6778V29.1735L4.1101 22.9878ZM27.4026 22.9878L16.7017 29.1677V23.6601C17.9368 23.5128 19.1205 23.0796 20.159 22.395C21.1974 21.7103 22.062 20.793 22.6841 19.7158C23.3061 18.6387 23.6685 17.4314 23.7426 16.1898C23.8166 14.9481 23.6002 13.7063 23.1105 12.5629L27.8694 9.81794V22.1922C27.8683 22.3542 27.8246 22.513 27.7426 22.6526C27.6607 22.7923 27.5434 22.9079 27.4026 22.9878Z" fill="#0029BC"/>
</svg>
