<svg width="32" height="32" viewBox="0 0 32 32" fill="none" xmlns="http://www.w3.org/2000/svg">
<rect width="32" height="32" fill="#3399CC"/>
<path fill-rule="evenodd" clip-rule="evenodd" d="M16.027 9.9468C21.2003 9.9468 25.387 14.1335 25.387 19.3068C25.387 24.4801 21.2003 28.6668 16.027 28.6668C10.8803 28.6668 6.69366 24.5068 6.66699 19.3601V19.3068V19.2535V3.4668H8.98699V13.1201C10.7203 11.1735 13.227 9.9468 16.027 9.9468ZM16.027 11.9468C11.947 11.9468 8.64033 15.2535 8.64033 19.3335C8.64033 23.4135 11.947 26.7201 16.027 26.7201C20.107 26.7201 23.4137 23.4135 23.4137 19.3335C23.4137 15.2535 20.107 11.9468 16.027 11.9468Z" fill="white"/>
</svg>
