<svg width="32" height="32" viewBox="0 0 32 32" fill="none" xmlns="http://www.w3.org/2000/svg">
<path d="M16.5195 10.1816H16.518L10.4633 16.2829L11.1851 15.1745L10.239 14.2677L7.98361 16.1511L6.85023 15.7915L0.291016 21.7393H31.812L30.4022 20.7115L24.9035 15.9604L21.0015 18.2422L23.5339 16.4797L16.5195 10.1816ZM10.7964 17.1936L16.468 11.4434L18.9032 14.6444C18.9032 14.6444 17.7215 14.0127 17.499 14.0127C17.4841 14.0127 17.4731 14.0158 17.4675 14.022C17.3797 14.1197 15.304 16.6696 15.304 16.6696L15.1874 15.1629L14.774 16L14.7155 15.2458L10.7964 17.1936ZM9.83729 15.3877L9.12892 16.9223L8.88601 16.696L6.67016 19.1482C6.67016 19.1482 6.66405 18.8282 6.66085 18.7119C6.66085 18.6948 6.64543 18.6879 6.61954 18.6879C6.46786 18.6879 5.95091 18.9366 5.95091 18.9366L6.63845 17.5199L5.2152 17.8229L7.01517 16.4286L7.67932 17.1098L9.83729 15.3877ZM21.1822 18.9498L24.9727 16.7541L26.701 18.1438L25.6819 18.1732L24.9282 18.97L24.9096 17.9965L21.1984 18.9498H21.1822Z" fill="#1D57C7"/>
</svg>
