<svg width="32" height="32" viewBox="0 0 32 32" fill="none" xmlns="http://www.w3.org/2000/svg">
<path d="M28.8218 0H3.19491C1.43687 0 0 1.43687 0 3.19493V28.8051C0 30.58 1.43687 32 3.19491 32H28.8049C30.5799 32 31.9999 30.5631 31.9999 28.8051V3.19493C32.0168 1.43687 30.5799 0 28.8218 0Z" fill="#DC3726"/>
<path d="M14.2165 6.33911V17.9186C14.2165 20.1331 15.4167 20.5219 16.2788 20.5219C17.1578 20.5219 18.2566 19.8457 18.2566 18.4427C18.2566 17.5129 17.4621 16.5325 16.2788 16.5325C15.7717 16.5325 15.3491 16.7184 15.011 16.9889V11.309C15.4167 11.2414 15.8393 11.2076 16.2788 11.2076C20.3527 11.2076 23.5646 14.3687 23.5646 18.4427C23.5646 22.5166 20.3527 25.6777 16.2788 25.6777C12.2049 25.6777 8.99304 22.7533 8.99304 17.9186V6.33911H14.2165Z" fill="white"/>
</svg>
