<svg width="32" height="32" viewBox="0 0 32 32" fill="none" xmlns="http://www.w3.org/2000/svg">
<path d="M16.7827 15.9802C17.0069 17.512 17.6538 18.9445 18.6459 20.106C18.8852 20.3832 19.142 20.6436 19.4146 20.8857C19.482 20.9406 19.5599 21.0138 19.6449 21.0907C19.7299 21.1675 19.8008 21.2444 19.8752 21.3213C20.0229 21.4783 20.1624 21.6432 20.2932 21.8155C20.8173 22.5167 21.1905 23.3255 21.3878 24.1877C21.5942 25.0633 21.6259 25.9732 21.4809 26.8619C21.336 27.7506 21.0175 28.5995 20.5447 29.3567C20.0578 30.1363 19.4031 30.789 18.6318 31.264C17.835 31.7459 16.9284 32 16.0051 32C15.0818 32 14.1752 31.7459 13.3784 31.264C12.6019 30.7909 11.9423 30.138 11.4513 29.3567C10.9807 28.5979 10.6648 27.7477 10.5229 26.8583C10.381 25.9689 10.416 25.059 10.626 24.184C10.8238 23.3231 11.1969 22.5156 11.7206 21.8155C11.8506 21.6415 11.9914 21.4764 12.1421 21.3213C12.2839 21.1672 12.4354 21.023 12.5955 20.8894C14.0171 19.6341 14.9529 17.8911 15.2311 15.9802C15.3612 17.6299 14.9467 19.2765 14.055 20.6514C13.8288 20.9996 13.5777 21.33 13.304 21.6398C13.177 21.7719 13.0587 21.9125 12.9498 22.0608C12.8469 22.202 12.7511 22.3487 12.6629 22.5001C12.3028 23.1016 12.062 23.7711 11.9544 24.4696C11.7495 25.8403 12.0587 27.2399 12.8187 28.383C13.1691 28.9207 13.6393 29.3637 14.1897 29.6746C14.7402 29.9854 15.3549 30.1551 15.9821 30.1694C16.6096 30.157 17.2249 29.988 17.7757 29.677C18.3264 29.3659 18.7963 28.922 19.1454 28.383C19.7191 27.5238 20.041 26.5119 20.0724 25.4685C20.1038 24.4251 19.8434 23.3945 19.3225 22.5001C19.2352 22.3472 19.1382 22.2004 19.0321 22.0608C18.979 21.9875 18.9293 21.918 18.8727 21.8521C18.816 21.7863 18.7664 21.724 18.692 21.6435C18.4155 21.3329 18.1622 21.0013 17.934 20.6514C17.0536 19.2721 16.648 17.6267 16.7827 15.9802Z" fill="#ED66B2"/>
<path d="M15.2311 15.9801C13.889 16.6749 12.7696 17.7554 12.0075 19.0918C11.8251 19.4119 11.6642 19.7447 11.5257 20.0875C11.4974 20.1681 11.4549 20.2706 11.4088 20.3731C11.3628 20.4755 11.3167 20.5744 11.2671 20.6732C11.1711 20.8667 11.0634 21.0538 10.9448 21.2334C10.4646 21.9727 9.83636 22.5968 9.10272 23.0638C8.36258 23.5395 7.53627 23.8542 6.67435 23.9883C5.81242 24.1223 4.93308 24.0731 4.09023 23.8435C3.21907 23.606 2.41442 23.1595 1.74161 22.5403C1.05129 21.9003 0.536814 21.0832 0.250267 20.1717C-0.0290996 19.2623 -0.0754798 18.2937 0.115656 17.3603C0.310466 16.4513 0.707019 15.6016 1.27402 14.8782C1.82645 14.181 2.51062 13.6075 3.28474 13.1927C4.05886 12.7779 4.90668 12.5306 5.77641 12.4658C6.63126 12.3936 7.49118 12.5108 8.29864 12.8099C8.49829 12.8843 8.69352 12.9711 8.8831 13.0698C9.06835 13.1602 9.2471 13.2642 9.41803 13.381C9.7259 13.5803 10.0467 13.7576 10.378 13.9118C11.7562 14.5255 13.2762 14.7161 14.7564 14.4609C13.2763 15.0941 11.6331 15.1947 10.0911 14.7464C9.69973 14.6308 9.31723 14.4852 8.94689 14.3108C8.7868 14.2314 8.62238 14.1617 8.45447 14.1021C8.29291 14.0444 8.12856 13.9956 7.96205 13.9557C7.29781 13.7938 6.60901 13.7702 5.93582 13.8861C4.61148 14.1076 3.41905 14.8436 2.60242 15.9436C2.20213 16.4469 1.93082 17.0464 1.81347 17.6865C1.69613 18.3268 1.73651 18.9871 1.93091 19.607C2.12532 20.2268 2.46749 20.7862 2.92593 21.2335C3.38437 21.6808 3.94434 22.0018 4.55429 22.1669C5.84275 22.5607 7.22821 22.4297 8.42614 21.8008C9.0377 21.4828 9.58106 21.0409 10.0238 20.5012C10.1377 20.3686 10.2442 20.2292 10.3426 20.0839C10.3886 20.0107 10.4382 19.9375 10.4807 19.8642C10.5232 19.791 10.5693 19.7178 10.6189 19.619C10.8191 19.2512 11.0465 18.8999 11.299 18.5683C12.2923 17.2749 13.6769 16.3635 15.2311 15.9801Z" fill="#ED66B2"/>
<path d="M14.7529 14.4609C13.4462 13.0754 11.6957 12.2294 9.82893 12.0814H9.52787C9.41802 12.0814 9.31529 12.0521 9.20901 12.0339C8.99984 11.9989 8.79284 11.9513 8.58909 11.8911C7.77199 11.6335 7.01732 11.1993 6.37511 10.6171C5.70727 10.0378 5.16151 9.32302 4.77156 8.5171C4.38161 7.71111 4.15576 6.83106 4.10798 5.93132C4.0578 5.00268 4.21918 4.07481 4.57912 3.22234C4.94925 2.34788 5.53821 1.59116 6.28536 1.03009C7.03252 0.469012 7.91087 0.123849 8.82999 0.0301319C9.72643 -0.0635252 10.6317 0.0618728 11.4726 0.396211C12.2831 0.724696 13.02 1.22125 13.6378 1.85525C14.2555 2.48925 14.7411 3.24729 15.0647 4.08262C15.3927 4.89337 15.5508 5.76671 15.5287 6.64518C15.5231 6.8719 15.5042 7.09807 15.472 7.32242C15.442 7.53333 15.4006 7.74232 15.348 7.94841C15.2651 8.31014 15.2047 8.67694 15.1674 9.04662C15.0246 10.5902 15.3162 12.1436 16.0069 13.5201C14.9636 12.2634 14.3619 10.6793 14.2994 9.0247C14.2846 8.6055 14.3001 8.18582 14.3455 7.76904C14.3702 7.58703 14.3844 7.40367 14.388 7.21992C14.3969 7.0431 14.3969 6.86593 14.388 6.6891C14.3004 5.6465 13.9226 4.65239 13.3003 3.82676C12.678 3.00114 11.8378 2.37927 10.881 2.03624C10.2925 1.8118 9.66017 1.73754 9.03792 1.81976C8.4156 1.90197 7.82177 2.13824 7.30676 2.50848C6.80711 2.90098 6.40602 3.41178 6.13723 3.99788C5.86846 4.58398 5.73986 5.22824 5.76228 5.87641C5.78806 6.92035 6.10406 7.93456 6.67253 8.7979C7.24101 9.66126 8.03791 10.3373 8.96818 10.7453C9.12757 10.8112 9.28696 10.8734 9.45348 10.9246C9.53491 10.9503 9.61643 10.9759 9.69787 10.9942C9.78542 11.0185 9.87406 11.0381 9.96355 11.0528C10.3644 11.1373 10.7587 11.2524 11.1432 11.3969C12.6445 11.9717 13.9156 13.0507 14.7529 14.4609Z" fill="#ED66B2"/>
<path d="M16.0033 13.5202C16.6919 12.1416 16.9833 10.5877 16.8428 9.0431C16.8065 8.67326 16.7461 8.30638 16.6622 7.94486C16.6409 7.86066 16.6162 7.75449 16.5949 7.64102C16.5737 7.52753 16.5559 7.42137 16.5382 7.31154C16.5069 7.09568 16.488 6.8781 16.4816 6.65992C16.4564 5.7741 16.6146 4.89294 16.9456 4.07541C17.2726 3.24275 17.7603 2.4877 18.3792 1.85639C18.9979 1.22509 19.7348 0.730769 20.5447 0.403634C21.3856 0.0692963 22.2908 -0.0561018 23.1873 0.0375553C24.1058 0.131674 24.9836 0.476578 25.7306 1.0369C26.4776 1.59721 27.067 2.35278 27.4382 3.22611C27.7973 4.08022 27.9598 5.00877 27.9128 5.93875C27.8624 6.83609 27.6359 7.71348 27.2475 8.51766C26.859 9.3219 26.3164 10.0362 25.6528 10.6173C25.0014 11.1925 24.2396 11.6192 23.4176 11.8693C23.2134 11.9289 23.0065 11.9777 22.7977 12.0157C22.5949 12.0522 22.3903 12.0767 22.1848 12.0889C21.8274 12.1169 21.4723 12.1708 21.1221 12.25C19.6578 12.5843 18.3175 13.3467 17.2609 14.4464C18.0974 13.0332 19.3703 11.9525 20.8741 11.3787C21.2548 11.2346 21.6456 11.1208 22.0431 11.0382C22.2191 11.005 22.3929 10.961 22.5639 10.9065C22.7276 10.8547 22.8885 10.7937 23.0456 10.7234C23.6756 10.453 24.2466 10.0547 24.7247 9.55198C25.6707 8.56838 26.217 7.24819 26.2515 5.86187C26.2757 5.21343 26.1479 4.56854 25.879 3.98214C25.6101 3.39574 25.208 2.88518 24.707 2.49395C24.1923 2.1231 23.5986 1.88617 22.9763 1.80332C22.354 1.72046 21.7215 1.79413 21.1327 2.01804C20.1792 2.36396 19.3428 2.98707 18.7238 3.81248C18.1048 4.63788 17.7297 5.63045 17.6434 6.67091C17.6346 6.84772 17.6346 7.0249 17.6434 7.20172C17.6434 7.28958 17.6434 7.3811 17.6434 7.4653C17.6434 7.5495 17.6434 7.63735 17.6682 7.74717C17.7167 8.1711 17.7309 8.59846 17.7108 9.02478C17.6439 10.6784 17.0428 12.2612 16.0033 13.5202Z" fill="url(#paint0_linear_1_25)"/>
<path d="M17.2573 14.4572C18.736 14.7156 20.2554 14.5262 21.6322 13.9118C21.9627 13.7652 22.2823 13.594 22.5886 13.3992C22.6595 13.3517 22.748 13.2931 22.8472 13.2382C22.9464 13.1833 23.035 13.132 23.1306 13.0808C23.3262 12.9798 23.5273 12.8905 23.7328 12.8136C24.5391 12.5151 25.3978 12.3977 26.2515 12.4694C27.1213 12.5338 27.9693 12.781 28.7434 13.1958C29.5176 13.6106 30.2017 14.1844 30.7539 14.8819C31.3089 15.6074 31.6944 16.4556 31.8803 17.3603C32.0771 18.292 32.0306 19.2611 31.7455 20.1681C31.4603 21.0751 30.9469 21.8875 30.2579 22.5219C29.5833 23.1406 28.7777 23.587 27.9058 23.8252C27.0663 24.0554 26.1902 24.1066 25.3308 23.9757C24.4715 23.8447 23.647 23.5345 22.9074 23.0638C21.9845 22.4951 21.2327 21.6726 20.736 20.6879C20.6402 20.5003 20.5551 20.3072 20.4809 20.1095C20.3425 19.7655 20.1815 19.4315 19.9991 19.1101C19.238 17.7742 18.1198 16.6938 16.7791 15.9984C18.3369 16.3818 19.7237 17.2977 20.7147 18.5976C20.9648 18.9276 21.1909 19.2764 21.3913 19.6409C21.4747 19.8043 21.5682 19.9621 21.6711 20.1131C21.7695 20.2585 21.876 20.3979 21.99 20.5305C22.434 21.0659 22.9772 21.504 23.5876 21.8191C24.7847 22.4463 26.1684 22.5772 27.4559 22.1851C28.0661 22.0206 28.6265 21.6999 29.0853 21.2528C29.5442 20.8057 29.8868 20.2463 30.0816 19.6265C30.2763 19.0066 30.317 18.346 30.1999 17.7056C30.0828 17.0652 29.8115 16.4655 29.4113 15.9618C28.5954 14.8597 27.4031 14.1212 26.0779 13.8972C25.4044 13.7841 24.7159 13.809 24.0516 13.9704C23.884 14.0102 23.7185 14.0591 23.5557 14.1168C23.4742 14.146 23.3928 14.1754 23.3184 14.2083C23.244 14.2412 23.1625 14.2742 23.0669 14.3218C22.6964 14.5 22.3125 14.6468 21.9191 14.7611C20.3762 15.2036 18.7342 15.0965 17.2573 14.4572Z" fill="#ED66B2"/>
<defs>
<linearGradient id="paint0_linear_1_25" x1="16.6303" y1="13.9888" x2="26.1373" y2="1.32692" gradientUnits="userSpaceOnUse">
<stop offset="0.01" stop-color="#ED66B2"/>
<stop offset="1" stop-color="#86469C"/>
</linearGradient>
</defs>
</svg>
