<svg width="32" height="32" viewBox="0 0 32 32" fill="none" xmlns="http://www.w3.org/2000/svg">
<g clip-path="url(#clip0)">
<g filter="url(#filter0_d)">
<path d="M0.0141304 12.5158C0.146579 12.4913 0.293159 12.4752 0.460502 12.4589C0.627855 12.4426 0.844068 12.4346 1.09518 12.4346C1.31837 12.4346 1.52759 12.4589 1.72287 12.4995C1.91814 12.5401 2.09247 12.6133 2.23888 12.7186C2.3853 12.8161 2.50395 12.954 2.58754 13.1244C2.6713 13.2948 2.71302 13.5057 2.71302 13.7573C2.71302 13.9114 2.69208 14.0495 2.65718 14.1794C2.6153 14.3091 2.56644 14.4228 2.50379 14.5203C2.44097 14.6178 2.36436 14.6988 2.28758 14.7638C2.20382 14.8287 2.12721 14.8694 2.03647 14.8774C2.12721 14.8937 2.23174 14.9262 2.34325 14.9749C2.45476 15.0237 2.55947 15.1047 2.65702 15.2022C2.75473 15.2997 2.83833 15.4376 2.90115 15.5917C2.96396 15.754 2.99887 15.9487 2.99887 16.168C2.99887 16.4765 2.95001 16.7281 2.85245 16.9228C2.75473 17.1176 2.62228 17.2719 2.45493 17.3855C2.28758 17.4991 2.0923 17.572 1.86912 17.6208C1.64593 17.6614 1.41576 17.6858 1.17163 17.6858C0.983336 17.6858 0.802027 17.6777 0.620718 17.6695C0.439409 17.6614 0.230179 17.6371 0 17.6045V12.5158H0.0141304ZM1.15799 14.5772C1.25571 14.5772 1.35326 14.5691 1.43702 14.5446C1.52078 14.5203 1.5974 14.4877 1.66719 14.431C1.73001 14.3741 1.78568 14.3012 1.82059 14.2118C1.85548 14.1225 1.87642 14.0008 1.87642 13.8627C1.87642 13.7249 1.85548 13.6111 1.8136 13.5299C1.77173 13.4406 1.71589 13.3758 1.65323 13.327C1.58343 13.2783 1.5138 13.2458 1.43005 13.2295C1.34628 13.2134 1.26269 13.2052 1.18591 13.2052C1.0744 13.2052 0.976681 13.2134 0.899911 13.2295V14.5849H1.15799V14.5772ZM0.892928 16.8253C0.94876 16.8335 1.0184 16.8416 1.08819 16.8498C1.16497 16.8578 1.22762 16.8578 1.29045 16.8578C1.3742 16.8578 1.46478 16.8498 1.55551 16.8335C1.64625 16.8172 1.73683 16.7766 1.8136 16.7279C1.89737 16.671 1.96002 16.5982 2.01585 16.5007C2.07169 16.4032 2.09263 16.2815 2.09263 16.1192C2.09263 15.9732 2.07169 15.8514 2.02981 15.7541C1.98794 15.6568 1.9321 15.5838 1.85548 15.5188C1.77871 15.4619 1.69511 15.4213 1.59042 15.3971C1.48571 15.3729 1.3742 15.3646 1.24873 15.3646H0.893092V16.8253H0.892928Z" fill="#010101"/>
<path d="M4.88248 17.6855C4.62439 17.6855 4.40818 17.6367 4.21989 17.5395C4.03161 17.442 3.87821 17.3122 3.75258 17.1337C3.6271 16.9633 3.53636 16.7604 3.47355 16.5332C3.41073 16.3059 3.38281 16.0543 3.38281 15.7865C3.38281 15.5186 3.41073 15.267 3.47355 15.0317C3.53636 14.7964 3.62694 14.5935 3.75258 14.4231C3.87804 14.2527 4.03161 14.1146 4.21989 14.0173C4.40818 13.9201 4.63138 13.8713 4.88248 13.8713C5.14057 13.8713 5.35677 13.9201 5.55205 14.0173C5.74038 14.1148 5.90071 14.2527 6.02638 14.4231C6.15185 14.5935 6.24255 14.7964 6.30539 15.0317C6.36823 15.267 6.3961 15.5186 6.3961 15.7865C6.3961 16.0543 6.36823 16.3059 6.30539 16.5332C6.24255 16.7604 6.15195 16.9633 6.02638 17.1337C5.90092 17.3041 5.74038 17.4422 5.55205 17.5395C5.35677 17.6367 5.13359 17.6855 4.88248 17.6855ZM4.88248 16.9227C5.10567 16.9227 5.27302 16.8252 5.37074 16.6305C5.46845 16.4358 5.51714 16.1517 5.51714 15.7865C5.51714 15.4214 5.4683 15.1373 5.37074 14.9426C5.27302 14.7477 5.10567 14.6504 4.88248 14.6504C4.65929 14.6504 4.49892 14.7477 4.40121 14.9426C4.30349 15.1373 4.25479 15.4214 4.25479 15.7865C4.25479 16.1517 4.30365 16.4358 4.40121 16.6305C4.49892 16.8252 4.65945 16.9227 4.88248 16.9227Z" fill="#010101"/>
<path d="M8.2158 17.6855C7.95767 17.6855 7.74149 17.6367 7.55319 17.5395C7.36489 17.442 7.21145 17.3122 7.08588 17.1337C6.96041 16.9633 6.86961 16.7604 6.80677 16.5332C6.74404 16.3059 6.71606 16.0543 6.71606 15.7865C6.71606 15.5186 6.74404 15.267 6.80677 15.0317C6.86961 14.7964 6.96021 14.5935 7.08588 14.4231C7.21135 14.2527 7.36489 14.1146 7.55319 14.0173C7.74149 13.9201 7.96466 13.8713 8.2158 13.8713C8.47382 13.8713 8.6901 13.9201 8.88529 14.0173C9.07359 14.1148 9.23403 14.2527 9.35959 14.4231C9.48506 14.5935 9.57587 14.7964 9.6386 15.0317C9.70144 15.267 9.72941 15.5186 9.72941 15.7865C9.72941 16.0543 9.70144 16.3059 9.6386 16.5332C9.57587 16.7604 9.48527 16.9633 9.35959 17.1337C9.23413 17.3041 9.07359 17.4422 8.88529 17.5395C8.69699 17.6367 8.47382 17.6855 8.2158 17.6855ZM8.2158 16.9227C8.43896 16.9227 8.60628 16.8252 8.70398 16.6305C8.80168 16.4358 8.85043 16.1517 8.85043 15.7865C8.85043 15.4214 8.80158 15.1373 8.70398 14.9426C8.60628 14.7477 8.43896 14.6504 8.2158 14.6504C7.99253 14.6504 7.8322 14.7477 7.7345 14.9426C7.6368 15.1373 7.58805 15.4214 7.58805 15.7865C7.58805 16.1517 7.6369 16.4358 7.7345 16.6305C7.8322 16.8252 7.99253 16.9227 8.2158 16.9227Z" fill="#010101"/>
<path d="M10.1682 12.4022C10.3077 12.3779 10.4473 12.3616 10.5937 12.3616C10.7401 12.3616 10.8797 12.3779 11.0261 12.4022V17.5638C10.8867 17.5883 10.7401 17.6046 10.5937 17.6046C10.4473 17.6046 10.3077 17.5883 10.1682 17.5638V12.4022ZM11.0051 15.6485L11.7793 13.9116C11.9396 13.8873 12.1 13.871 12.2605 13.871C12.414 13.871 12.5605 13.8873 12.7069 13.9116L11.9119 15.5998L12.8464 17.5638C12.679 17.5883 12.5186 17.6046 12.3651 17.6046C12.2257 17.6046 12.0721 17.5883 11.9187 17.5638L11.0051 15.6485Z" fill="#010101"/>
<path d="M14.7645 15.2105C14.7645 15.0968 14.7505 15.0076 14.7157 14.9345C14.6808 14.8614 14.6388 14.8047 14.5832 14.7641C14.5274 14.7235 14.4577 14.6992 14.374 14.6829C14.2902 14.6666 14.1996 14.6585 14.0949 14.6585C13.8787 14.6585 13.6416 14.7072 13.3974 14.7964C13.3416 14.6748 13.2997 14.5611 13.272 14.4473C13.2441 14.3417 13.2301 14.212 13.2301 14.0579C13.4114 13.9928 13.5857 13.9362 13.7671 13.9119C13.9484 13.8793 14.1088 13.8632 14.2623 13.8712C14.6808 13.8793 15.0084 13.9928 15.2456 14.2363C15.4828 14.4718 15.5943 14.8531 15.5943 15.3726L15.5803 17.4908C15.4409 17.5395 15.2666 17.5883 15.0643 17.6368C14.8621 17.6855 14.6319 17.7018 14.3808 17.7018C14.1715 17.7018 13.9832 17.6774 13.8159 17.6286C13.6416 17.588 13.4951 17.515 13.3766 17.4096C13.2511 17.3121 13.1603 17.1823 13.0975 17.0282C13.0347 16.874 12.9998 16.6791 12.9998 16.4519C12.9998 16.2247 13.0416 16.038 13.1252 15.8837C13.209 15.7296 13.3205 15.6077 13.453 15.5186C13.5854 15.4292 13.732 15.3645 13.8924 15.3239C14.0527 15.2831 14.2131 15.267 14.3806 15.267C14.4991 15.267 14.6247 15.2751 14.7712 15.2913L14.7645 15.2105ZM14.7575 15.9328C14.7087 15.9247 14.6598 15.9166 14.5972 15.9084C14.5413 15.9003 14.4926 15.9003 14.4437 15.9003C14.2486 15.9003 14.0881 15.9409 13.9694 16.0219C13.851 16.1031 13.7951 16.233 13.7951 16.4195C13.7951 16.5412 13.8161 16.6387 13.858 16.7036C13.8998 16.7687 13.9557 16.8174 14.0183 16.8497C14.0811 16.8822 14.1508 16.8985 14.2206 16.9065C14.2904 16.9146 14.353 16.9146 14.4089 16.9228C14.4717 16.9228 14.5274 16.9146 14.5902 16.9065C14.653 16.8985 14.7017 16.8822 14.7505 16.874L14.7575 15.9328Z" fill="#010101"/>
<path d="M16.3756 14.7558H15.9782L15.9502 14.6178L17.0869 12.9297H17.2264V13.993H17.9586C17.9726 14.0661 17.9796 14.1309 17.9796 14.1796C17.9866 14.2365 17.9865 14.2934 17.9865 14.3582C17.9865 14.423 17.9866 14.4879 17.9796 14.5448C17.9726 14.6097 17.9656 14.6745 17.9586 14.7476H17.2264V16.1842C17.2264 16.3302 17.2333 16.4439 17.2543 16.5412C17.2752 16.6305 17.3032 16.7034 17.345 16.7522C17.3869 16.8009 17.4287 16.8415 17.4845 16.8577C17.5403 16.874 17.6099 16.8821 17.6867 16.8821C17.7495 16.8821 17.8052 16.874 17.868 16.8658C17.9238 16.8577 17.9796 16.8415 18.0214 16.8334C18.0493 16.9227 18.0703 17.0118 18.0842 17.1093C18.0981 17.2068 18.1051 17.2879 18.1051 17.3691C18.1051 17.4178 18.1051 17.4666 18.1051 17.4989C18.1051 17.5314 18.0981 17.5719 18.0981 17.6044C17.9099 17.6531 17.7216 17.6856 17.5193 17.6856C17.1497 17.6856 16.8707 17.5882 16.6754 17.3854C16.4801 17.1825 16.3824 16.8577 16.3824 16.4114V14.7558H16.3756Z" fill="#010101"/>
<path d="M20.1835 15.2105C20.1835 15.0968 20.1695 15.0076 20.1346 14.9345C20.0997 14.8614 20.0578 14.8047 20.0021 14.7641C19.9463 14.7235 19.8767 14.6992 19.7929 14.6829C19.7092 14.6666 19.6185 14.6585 19.5139 14.6585C19.2977 14.6585 19.0605 14.7072 18.8164 14.7964C18.7605 14.6748 18.7187 14.5611 18.6909 14.4473C18.6629 14.3417 18.6491 14.212 18.6491 14.0579C18.8304 13.9928 19.0047 13.9362 19.186 13.9119C19.3673 13.8793 19.5276 13.8632 19.6813 13.8712C20.0997 13.8793 20.4274 13.9928 20.6645 14.2363C20.9017 14.4718 21.0133 14.8531 21.0133 15.3726L20.9993 17.4908C20.8598 17.5395 20.6855 17.5883 20.4832 17.6368C20.2811 17.6854 20.0508 17.7018 19.7998 17.7018C19.5905 17.7018 19.4022 17.6774 19.2348 17.6286C19.0605 17.588 18.9141 17.515 18.7954 17.4096C18.6699 17.3121 18.5792 17.1823 18.5164 17.0282C18.4536 16.874 18.4187 16.6791 18.4187 16.4519C18.4187 16.2247 18.4606 16.038 18.5442 15.8837C18.628 15.7296 18.7395 15.6077 18.8649 15.5186C18.9974 15.4292 19.1439 15.3645 19.3044 15.3239C19.4647 15.2831 19.625 15.267 19.7926 15.267C19.911 15.267 20.0367 15.2751 20.1831 15.2913L20.1835 15.2105ZM20.1765 15.9328C20.1276 15.9247 20.0788 15.9166 20.0161 15.9084C19.9603 15.9003 19.9115 15.9003 19.8627 15.9003C19.6674 15.9003 19.5071 15.9409 19.3884 16.0219C19.2699 16.1031 19.2141 16.233 19.2141 16.4195C19.2141 16.5412 19.2351 16.6387 19.2769 16.7036C19.3188 16.7687 19.3746 16.8174 19.4372 16.8497C19.5001 16.8822 19.5697 16.8985 19.6395 16.9065C19.7094 16.9146 19.772 16.9146 19.8278 16.9228C19.8907 16.9228 19.9463 16.9146 20.0091 16.9065C20.072 16.8985 20.1206 16.8822 20.1695 16.874L20.1765 15.9328Z" fill="#010101"/>
<path d="M21.627 12.4425C21.7734 12.4181 21.913 12.4019 22.0524 12.4019C22.1919 12.4019 22.3384 12.4181 22.4849 12.4425V14.3092C22.5477 14.1793 22.6452 14.0737 22.7918 13.9925C22.9312 13.9113 23.0917 13.8708 23.28 13.8708C23.4613 13.8708 23.6288 13.9116 23.7891 13.9846C23.9425 14.0577 24.0821 14.1712 24.1936 14.3256C24.3051 14.4799 24.3958 14.6665 24.4587 14.9019C24.5215 15.1292 24.5564 15.4051 24.5564 15.7216C24.5564 16.0301 24.5145 16.298 24.4379 16.5415C24.3541 16.785 24.2426 16.9878 24.0892 17.1581C23.9358 17.3286 23.7475 17.4585 23.5244 17.5477C23.3012 17.6371 23.0501 17.6856 22.7712 17.6856C22.6805 17.6856 22.5899 17.6774 22.4922 17.6694C22.3945 17.6612 22.2899 17.645 22.1922 17.6287C22.0877 17.6125 21.9969 17.5881 21.8992 17.5638C21.8085 17.5393 21.7179 17.5069 21.6411 17.4744V12.4425H21.627ZM22.4849 16.8089C22.5337 16.8252 22.5826 16.8414 22.6383 16.8414C22.694 16.8495 22.7498 16.8495 22.8056 16.8495C23.0706 16.8495 23.2729 16.7602 23.4263 16.5817C23.5727 16.4032 23.6495 16.1191 23.6495 15.7378C23.6495 15.3968 23.6007 15.1372 23.5101 14.9666C23.4194 14.7882 23.2589 14.6989 23.0358 14.6989C22.8754 14.6989 22.7428 14.7638 22.6383 14.8854C22.5337 15.0071 22.4849 15.2101 22.4849 15.4778V16.8089Z" fill="#010101"/>
<path d="M25.0166 12.4832C25.163 12.4588 25.3026 12.4426 25.449 12.4426C25.5885 12.4426 25.7281 12.4588 25.8745 12.4832V16.1921C25.8745 16.3382 25.8815 16.4518 25.8955 16.5491C25.9094 16.6384 25.9303 16.7114 25.9652 16.7601C25.9932 16.8088 26.035 16.8413 26.0837 16.8657C26.1326 16.882 26.1953 16.89 26.2651 16.89C26.3 16.89 26.3348 16.89 26.3696 16.882C26.4114 16.8739 26.4464 16.8739 26.4811 16.8576C26.523 17.0523 26.5509 17.239 26.5509 17.4257C26.5509 17.4664 26.5509 17.4989 26.5509 17.5314C26.5509 17.5638 26.5439 17.5964 26.5369 17.637C26.4741 17.6613 26.3974 17.6776 26.3067 17.6857C26.216 17.6939 26.1324 17.7019 26.0556 17.7019C25.7418 17.7019 25.4978 17.6045 25.3095 17.4017C25.1212 17.1988 25.0305 16.874 25.0305 16.4276V12.4832H25.0166Z" fill="#010101"/>
<path d="M27.5061 16.0865C27.5201 16.3706 27.6038 16.5734 27.7642 16.7031C27.9176 16.833 28.1199 16.8898 28.3709 16.8898C28.5104 16.8898 28.65 16.8736 28.7894 16.8411C28.9358 16.8087 29.0685 16.7679 29.2009 16.7113C29.2428 16.8088 29.2846 16.9223 29.3194 17.0522C29.3543 17.1821 29.3682 17.3283 29.3752 17.4743C29.0615 17.6121 28.7056 17.6853 28.3082 17.6853C28.0152 17.6853 27.7642 17.6366 27.562 17.5473C27.3528 17.4498 27.1853 17.3201 27.0529 17.1579C26.9204 16.9875 26.8227 16.7927 26.7599 16.5574C26.6972 16.3301 26.6692 16.0785 26.6692 15.8026C26.6692 15.5346 26.7041 15.2832 26.7669 15.0477C26.8297 14.8124 26.9273 14.6095 27.0529 14.4309C27.1784 14.2606 27.3389 14.1226 27.5272 14.0172C27.7155 13.9197 27.9317 13.863 28.1828 13.863C28.3991 13.863 28.5943 13.9118 28.7686 14.0009C28.936 14.0902 29.0824 14.2119 29.201 14.366C29.3195 14.5202 29.4103 14.707 29.473 14.918C29.5359 15.1289 29.5639 15.3643 29.5639 15.6078C29.5639 15.6972 29.5639 15.7863 29.5569 15.8756C29.5499 15.9649 29.5429 16.0297 29.5359 16.0866H27.5061V16.0865ZM28.7405 15.3885C28.7335 15.1612 28.6778 14.9828 28.5802 14.8447C28.4825 14.7067 28.343 14.6337 28.1617 14.6337C27.9594 14.6337 27.8061 14.6986 27.7014 14.8284C27.5968 14.9582 27.5341 15.1451 27.5131 15.3885H28.7405Z" fill="#010101"/>
<path d="M30.4077 12.2638C30.4077 12.2638 29.9753 11.1195 29.7102 11.233C28.5455 11.7525 30.3728 14.6985 30.3728 14.6985C30.3728 14.6985 32.3326 12.84 31.8025 11.8335C31.6631 11.5657 31.0354 11.4765 31.0354 11.4765L30.4077 12.2638Z" fill="#CF2029"/>
<path d="M30.4983 12.54C30.4425 12.6049 30.3519 12.5561 30.3519 12.5561C30.2681 12.5237 30.2542 12.4588 30.2124 12.2965C30.1566 12.0773 30.0101 11.4847 29.808 11.4118C29.78 11.4037 29.7381 11.3956 29.6615 11.4444C29.55 11.5256 29.4872 11.6553 29.4732 11.842C29.4104 12.6293 30.1498 14.0495 30.4077 14.4553C30.4217 14.4471 30.4286 14.431 30.4426 14.4147C30.8262 14.0171 31.9839 12.8159 31.6351 11.8988C31.5793 11.7609 31.4888 11.696 31.419 11.6716C31.1678 11.5822 30.7285 11.7528 30.5192 12.4426L30.4983 12.5076V12.54ZM30.3728 14.8529C30.1776 14.7798 29.3057 13.1486 29.2082 12.1261C29.1523 11.5337 29.3545 11.2658 29.5358 11.1359C29.6613 11.0465 29.787 11.0303 29.9054 11.0709C30.1776 11.1765 30.3379 11.5904 30.4285 11.9392C30.7145 11.4117 31.1677 11.217 31.5166 11.3388C31.6909 11.4037 31.8303 11.5498 31.907 11.7445C32.3465 12.897 31.112 14.1793 30.6447 14.6581C30.5958 14.7069 30.561 14.7475 30.5402 14.7719C30.5402 14.7799 30.4356 14.9098 30.3728 14.8529Z" fill="#06060A"/>
<path d="M17.7135 21.4001C17.6185 21.4001 17.5326 21.3739 17.4557 21.3214C17.3789 21.2688 17.3182 21.1983 17.2739 21.1097V21.3725H17.0435V19.3538H17.3048V20.1999C17.3538 20.1076 17.4153 20.0349 17.4891 19.9815C17.5627 19.9281 17.6494 19.9012 17.7493 19.9012C17.8315 19.9012 17.9068 19.922 17.975 19.9634C18.0432 20.0049 18.1013 20.0601 18.1497 20.1293C18.198 20.1983 18.2352 20.2787 18.2613 20.3698C18.2875 20.4611 18.3006 20.5565 18.3006 20.6561C18.3006 20.7594 18.2856 20.856 18.2555 20.9464C18.2253 21.0367 18.1843 21.1154 18.1319 21.1829C18.0797 21.2501 18.0176 21.3031 17.9455 21.3419C17.8731 21.3807 17.7958 21.4001 17.7135 21.4001ZM17.6446 21.1401C17.7015 21.1401 17.7538 21.1267 17.8013 21.1001C17.8489 21.0735 17.8896 21.038 17.9237 20.9936C17.9578 20.9494 17.9842 20.8982 18.0033 20.8402C18.0223 20.7823 18.0319 20.7209 18.0319 20.6565C18.0319 20.5918 18.0227 20.5297 18.0045 20.4697C17.9864 20.4099 17.961 20.3574 17.9286 20.3122C17.8961 20.2671 17.8573 20.2306 17.8122 20.2031C17.767 20.1755 17.7176 20.1615 17.6637 20.1615C17.5829 20.1615 17.5113 20.1919 17.4486 20.2528C17.3859 20.3135 17.3381 20.3872 17.3048 20.474V20.8556C17.3143 20.898 17.3309 20.9361 17.3547 20.9703C17.3783 21.0046 17.4061 21.0344 17.4377 21.0603C17.4694 21.0861 17.5035 21.106 17.5399 21.1198C17.5764 21.1332 17.6112 21.1401 17.6446 21.1401Z" fill="black"/>
<path d="M18.5591 21.7126C18.5827 21.7181 18.6062 21.7228 18.6292 21.7264C18.6521 21.7302 18.6708 21.7319 18.6851 21.7319C18.7056 21.7319 18.7235 21.7268 18.7384 21.7166C18.7536 21.7064 18.769 21.6884 18.7847 21.6628C18.8004 21.6369 18.8168 21.6006 18.8334 21.5536C18.8501 21.5066 18.8695 21.4461 18.8917 21.3724L18.3809 19.9263H18.6493L19.0342 21.1042L19.3764 19.9263H19.6234L19.0603 21.7069C19.035 21.7899 18.991 21.8593 18.9285 21.9157C18.8659 21.972 18.7855 22 18.6873 22C18.6683 22 18.6486 21.9986 18.6279 21.9957C18.6073 21.9929 18.5843 21.9871 18.5589 21.9779V21.7126H18.5591Z" fill="black"/>
<path d="M21.5911 19.6829H21.0303V21.3724H20.7618V19.6829H20.1987V19.4092H21.5911V19.6829Z" fill="black"/>
<path d="M22.922 21.3723H22.6607V20.5621C22.6607 20.4294 22.6406 20.3313 22.6001 20.2677C22.5597 20.204 22.5016 20.1723 22.4255 20.1723C22.389 20.1723 22.3526 20.1806 22.3163 20.1972C22.2797 20.2139 22.2453 20.2372 22.2128 20.2677C22.1804 20.2981 22.1516 20.334 22.1262 20.3755C22.1009 20.4171 22.0818 20.4626 22.0692 20.5125V21.3725H21.8079V19.3538H22.0692V20.2165C22.1168 20.117 22.1812 20.0394 22.2628 19.9841C22.3445 19.9288 22.4334 19.9012 22.5302 19.9012C22.6078 19.9012 22.6716 19.9175 22.7214 19.9496C22.7713 19.9818 22.8114 20.0247 22.8414 20.0782C22.8714 20.1317 22.8925 20.1941 22.9043 20.2648C22.9162 20.3359 22.9222 20.411 22.9222 20.4902V21.3723H22.922Z" fill="black"/>
<path d="M23.8126 21.4001C23.716 21.4001 23.6281 21.3803 23.5489 21.3407C23.4696 21.3011 23.4019 21.2472 23.3456 21.179C23.2893 21.1108 23.2458 21.0315 23.215 20.9411C23.1841 20.8509 23.1687 20.7549 23.1687 20.6537C23.1687 20.5523 23.1841 20.4559 23.215 20.3647C23.2458 20.2734 23.2894 20.1932 23.3456 20.1241C23.4018 20.0549 23.4696 20.0006 23.5489 19.9608C23.6281 19.9212 23.7166 19.9014 23.8151 19.9014C23.9116 19.9014 23.9992 19.9218 24.0777 19.9621C24.1561 20.0027 24.2229 20.0566 24.2785 20.1238C24.334 20.1911 24.3762 20.2696 24.4056 20.3589C24.4348 20.4482 24.4496 20.5418 24.4496 20.6396C24.4496 20.6617 24.4488 20.6824 24.4471 20.7017C24.4455 20.7209 24.4438 20.7372 24.4424 20.7501H23.4468C23.4515 20.8146 23.4646 20.8726 23.4861 20.9242C23.5075 20.9758 23.535 21.0205 23.5692 21.0583C23.6032 21.0961 23.642 21.1252 23.6855 21.1453C23.729 21.1658 23.7746 21.1757 23.8222 21.1757C23.8571 21.1757 23.8915 21.1706 23.9256 21.1605C23.9597 21.1503 23.991 21.1355 24.0194 21.1163C24.048 21.0968 24.0733 21.0734 24.0954 21.0458C24.1176 21.0182 24.135 20.9878 24.1476 20.9546L24.371 21.0293C24.3283 21.1381 24.2574 21.227 24.1583 21.2961C24.0593 21.3656 23.9441 21.4001 23.8126 21.4001ZM24.1903 20.5401C24.1856 20.4794 24.1724 20.4231 24.151 20.3715C24.1296 20.3199 24.1024 20.2761 24.0691 20.2403C24.0358 20.2043 23.997 20.1762 23.9527 20.1558C23.9084 20.1356 23.8616 20.1254 23.8125 20.1254C23.7632 20.1254 23.717 20.1356 23.6735 20.1558C23.63 20.1762 23.5916 20.2042 23.5583 20.2403C23.5249 20.2761 23.498 20.3199 23.4774 20.3715C23.4569 20.4231 23.4441 20.4794 23.4395 20.5401H24.1903Z" fill="black"/>
<path d="M24.709 21.3724V19.4092H25.8329V19.6829H24.975V20.2691H25.6927V20.5261H24.975V21.3722H24.709V21.3724Z" fill="black"/>
<path d="M26.5523 21.4C26.4541 21.4 26.3658 21.3797 26.2874 21.3392C26.209 21.2986 26.1421 21.2444 26.0866 21.176C26.031 21.1078 25.9884 21.0282 25.9582 20.9369C25.9282 20.8456 25.9131 20.7503 25.9131 20.6507C25.9131 20.5512 25.9282 20.4558 25.9582 20.3645C25.9883 20.2733 26.0315 20.1936 26.0877 20.1254C26.1439 20.0572 26.2112 20.0027 26.2897 19.9621C26.3681 19.9215 26.4556 19.9014 26.5523 19.9014C26.6489 19.9014 26.7365 19.9218 26.8149 19.9621C26.8934 20.0027 26.9607 20.0572 27.0169 20.1254C27.073 20.1936 27.1162 20.2733 27.1464 20.3645C27.1764 20.4558 27.1915 20.5512 27.1915 20.6507C27.1915 20.7503 27.1764 20.8456 27.1464 20.9369C27.1163 21.0282 27.0732 21.1078 27.0169 21.176C26.9605 21.2442 26.8934 21.2986 26.8149 21.3392C26.7365 21.3797 26.6489 21.4 26.5523 21.4ZM26.1816 20.6533C26.1816 20.7234 26.1912 20.7879 26.2101 20.8469C26.2291 20.9061 26.2552 20.9571 26.2886 21.0006C26.3218 21.0437 26.361 21.078 26.4062 21.1029C26.4514 21.1278 26.5 21.1404 26.5523 21.1404C26.6046 21.1404 26.6532 21.1278 26.6984 21.1029C26.7435 21.078 26.7828 21.0434 26.816 20.9992C26.8494 20.955 26.8755 20.9035 26.8945 20.8443C26.9134 20.7854 26.9231 20.7208 26.9231 20.6507C26.9231 20.5826 26.9134 20.5185 26.8945 20.4586C26.8755 20.3988 26.8494 20.3466 26.816 20.3024C26.7828 20.2581 26.7436 20.2236 26.6984 20.1987C26.6532 20.1738 26.6046 20.1612 26.5523 20.1612C26.5016 20.1612 26.4538 20.1741 26.4085 20.2C26.3633 20.2259 26.324 20.2608 26.2908 20.305C26.2575 20.3492 26.2309 20.4013 26.2112 20.4612C26.1915 20.5212 26.1816 20.5851 26.1816 20.6533Z" fill="black"/>
<path d="M28.1468 20.1889C28.0454 20.1927 27.9557 20.2199 27.8771 20.2706C27.7987 20.3211 27.7429 20.3935 27.7096 20.4875V21.3723H27.4482V19.9262H27.6906V20.2498C27.7334 20.1502 27.7893 20.0705 27.8582 20.0106C27.9271 19.9508 28.0011 19.9181 28.0803 19.9124C28.096 19.9124 28.1092 19.9124 28.1196 19.9124C28.1299 19.9124 28.1389 19.9133 28.1468 19.9153V20.1889Z" fill="black"/>
<path d="M29.2259 21.3723L28.829 20.7059L28.6223 20.9326V21.3723H28.3608V19.3538H28.6223V20.6341L29.1924 19.929H29.4777L28.9953 20.5345L29.5038 21.3725H29.2259V21.3723Z" fill="black"/>
</g>
</g>
<defs>
<filter id="filter0_d" x="-4" y="11.0498" width="40.0001" height="18.9502" filterUnits="userSpaceOnUse" color-interpolation-filters="sRGB">
<feFlood flood-opacity="0" result="BackgroundImageFix"/>
<feColorMatrix in="SourceAlpha" type="matrix" values="0 0 0 0 0 0 0 0 0 0 0 0 0 0 0 0 0 0 127 0"/>
<feOffset dy="4"/>
<feGaussianBlur stdDeviation="2"/>
<feColorMatrix type="matrix" values="0 0 0 0 0 0 0 0 0 0 0 0 0 0 0 0 0 0 0.25 0"/>
<feBlend mode="normal" in2="BackgroundImageFix" result="effect1_dropShadow"/>
<feBlend mode="normal" in="SourceGraphic" in2="effect1_dropShadow" result="shape"/>
</filter>
<clipPath id="clip0">
<rect width="32" height="32" fill="white"/>
</clipPath>
</defs>
</svg>
