<svg width="32" height="32" viewBox="0 0 32 32" fill="none" xmlns="http://www.w3.org/2000/svg">
<path fill-rule="evenodd" clip-rule="evenodd" d="M13.8906 25.1093L30.3872 15.585L18.6038 8.78174L2.10718 18.3061L13.8906 25.1093Z" fill="black" stroke="#0288D1" stroke-linecap="round" stroke-linejoin="round"/>
<path fill-rule="evenodd" clip-rule="evenodd" d="M2.10693 18.3061V21.0274L13.8904 27.8306L30.387 18.3062V15.585" fill="black"/>
<path d="M2.10693 18.3061V21.0274L13.8904 27.8306L30.387 18.3062V15.585" stroke="#0288D1" stroke-linecap="round" stroke-linejoin="round"/>
<path fill-rule="evenodd" clip-rule="evenodd" d="M13.8905 29.6443L2.10709 22.8411C2.10709 22.8411 1.14709 20.6756 2.10709 19.2129L13.8905 26.0161L30.3871 16.4917V20.12L13.8905 29.6443Z" fill="black" stroke="#0288D1" stroke-linecap="round" stroke-linejoin="round"/>
<path fill-rule="evenodd" clip-rule="evenodd" d="M13.8906 18.7591L30.3873 9.23457L18.6036 2.43188L2.10693 11.9559L13.8906 18.7591Z" fill="black" stroke="#0288D1" stroke-linecap="round" stroke-linejoin="round"/>
<path fill-rule="evenodd" clip-rule="evenodd" d="M13.8905 18.7592L30.3872 9.23486V12.8632L13.8905 22.3875L2.10711 15.5843C2.10711 15.5843 1.32997 13.3274 2.10711 11.956L13.8905 18.7592Z" fill="black" stroke="#0288D1" stroke-linecap="round" stroke-linejoin="round"/>
<path fill-rule="evenodd" clip-rule="evenodd" d="M13.8905 26.0167L2.10709 19.2135C2.10709 19.2135 1.14709 17.0479 2.10709 15.5852L13.8905 22.3884L30.3871 12.864V16.4923L13.8905 26.0167Z" fill="black"/>
<path d="M13.8905 26.0167L2.10709 19.2135C2.10709 19.2135 1.14709 17.0479 2.10709 15.5852L13.8905 22.3884L30.3871 12.864V16.4923L13.8905 26.0167Z" stroke="#0288D1" stroke-linecap="round" stroke-linejoin="round"/>
<path fill-rule="evenodd" clip-rule="evenodd" d="M21.3529 4.01953L14.283 8.10145L17.0324 8.32822L17.4252 9.91567L24.4953 5.83375L21.3529 4.01953Z" fill="black" stroke="#0288D1" stroke-linejoin="round"/>
</svg>
