<svg width="32" height="32" viewBox="0 0 32 32" fill="none" xmlns="http://www.w3.org/2000/svg">
<g clip-path="url(#clip0)">
<path d="M3.43021 12.1648C3.67858 12.3472 3.8769 12.6035 4.00301 12.9052C4.14606 13.2554 4.21611 13.6376 4.20781 14.0228C4.21502 14.4114 4.14506 14.7969 4.00301 15.1513C3.87903 15.4613 3.6793 15.7255 3.42701 15.9132C3.17534 16.0915 2.88296 16.1839 2.58541 16.1792C2.3392 16.1831 2.09605 16.1176 1.87821 15.9887C1.67704 15.8645 1.51246 15.6772 1.40461 15.4496V15.658C1.40738 15.7247 1.39739 15.7913 1.37531 15.8533C1.35323 15.9153 1.31957 15.9713 1.27661 16.0174C1.23117 16.0634 1.17809 16.0988 1.12043 16.1216C1.06276 16.1444 1.00165 16.1542 0.940609 16.1504C0.822612 16.1544 0.707846 16.1068 0.620609 16.0174C0.578716 15.9705 0.545982 15.9144 0.524494 15.8525C0.503007 15.7906 0.493237 15.7244 0.495809 15.658V10.6267C0.493017 10.5596 0.503314 10.4927 0.525978 10.4307C0.548643 10.3686 0.583126 10.3128 0.627009 10.2673C0.721647 10.1845 0.840076 10.1435 0.959809 10.1523C1.07646 10.1498 1.19003 10.1944 1.27981 10.2781C1.32441 10.3228 1.35917 10.3785 1.38138 10.4409C1.40358 10.5032 1.41263 10.5705 1.40781 10.6375V12.6033C1.5186 12.3799 1.68707 12.1995 1.89101 12.0858C2.10614 11.9637 2.34441 11.9021 2.58541 11.9061C2.88331 11.8993 3.17664 11.9891 3.43021 12.1648V12.1648ZM3.02701 15.0112C3.20538 14.722 3.29214 14.374 3.27341 14.0228C3.29432 13.6787 3.20838 13.3371 3.03021 13.0561C2.94599 12.944 2.83969 12.8554 2.71973 12.7974C2.59976 12.7394 2.46941 12.7135 2.33901 12.7219C2.20825 12.7131 2.0775 12.7391 1.95739 12.7978C1.83728 12.8565 1.73121 12.9463 1.64781 13.0597C1.46966 13.3448 1.38383 13.6897 1.40461 14.0372C1.38018 14.393 1.46611 14.7472 1.64781 15.0399C1.72904 15.1575 1.8342 15.2515 1.95447 15.3141C2.07474 15.3766 2.20661 15.4058 2.33901 15.3993C2.47323 15.4029 2.60617 15.3693 2.72614 15.3017C2.84611 15.234 2.94943 15.1342 3.02701 15.0112V15.0112Z" fill="white"/>
<path d="M5.66391 15.9204C5.3898 15.7473 5.16719 15.4873 5.02391 15.1729C4.86476 14.8215 4.7856 14.4314 4.79351 14.0372C4.78586 13.6455 4.86504 13.2577 5.02391 12.9088C5.16936 12.5971 5.39151 12.3388 5.66391 12.1649C5.96655 11.9865 6.30461 11.8974 6.64631 11.9061C6.98801 11.8974 7.32607 11.9865 7.62871 12.1649C7.90236 12.337 8.12491 12.5957 8.26871 12.9088C8.42758 13.2577 8.50675 13.6455 8.49911 14.0372C8.50701 14.4314 8.42785 14.8215 8.26871 15.1729C8.12686 15.4884 7.90389 15.7489 7.62871 15.9204C7.32607 16.0988 6.98801 16.1878 6.64631 16.1792C6.30461 16.1878 5.96655 16.0988 5.66391 15.9204ZM7.33431 15.0399C7.51204 14.7494 7.59665 14.3996 7.57431 14.048C7.59494 13.6988 7.5104 13.352 7.33431 13.0633C7.25339 12.9462 7.14875 12.8525 7.02908 12.79C6.90941 12.7275 6.77818 12.698 6.64631 12.7039C6.51394 12.6977 6.38216 12.7271 6.26194 12.7896C6.14171 12.8521 6.03652 12.9459 5.95511 13.0633C5.77649 13.3508 5.69068 13.6983 5.71191 14.048C5.68956 14.3996 5.77418 14.7494 5.95191 15.0399C6.0343 15.1538 6.13973 15.2438 6.25941 15.3026C6.3791 15.3613 6.50955 15.3871 6.63991 15.3777C6.77119 15.3871 6.90258 15.3614 7.02329 15.3026C7.144 15.2439 7.25058 15.1539 7.33431 15.0399V15.0399Z" fill="white"/>
<path d="M9.9616 15.9204C9.68749 15.7473 9.46489 15.4873 9.3216 15.1729C9.15994 14.8224 9.07959 14.4318 9.088 14.0372C9.07984 13.645 9.1602 13.2568 9.3216 12.9088C9.46661 12.5967 9.68887 12.3384 9.9616 12.1649C10.2675 11.9948 10.6043 11.9062 10.9456 11.9062C11.287 11.9062 11.6237 11.9948 11.9296 12.1649C12.2033 12.337 12.4258 12.5957 12.5696 12.9088C12.7285 13.2577 12.8077 13.6455 12.8 14.0372C12.809 14.4311 12.731 14.8213 12.5728 15.1729C12.431 15.4884 12.208 15.7489 11.9328 15.9204C11.6269 16.0905 11.2902 16.179 10.9488 16.179C10.6075 16.179 10.2707 16.0905 9.9648 15.9204H9.9616ZM11.632 15.0399C11.8097 14.7494 11.8944 14.3996 11.872 14.048C11.8926 13.6988 11.8081 13.352 11.632 13.0633C11.5514 12.9458 11.4469 12.8517 11.3271 12.7892C11.2074 12.7266 11.076 12.6974 10.944 12.7039C10.8117 12.6983 10.6801 12.7279 10.56 12.7904C10.4398 12.8528 10.3346 12.9464 10.2528 13.0633C10.0756 13.3516 9.98991 13.6984 10.0096 14.048C9.98445 14.3984 10.0657 14.748 10.24 15.0399C10.3296 15.1443 10.4369 15.2273 10.5557 15.284C10.6744 15.3407 10.8022 15.3699 10.9312 15.3699C11.0602 15.3699 11.188 15.3407 11.3067 15.284C11.4255 15.2273 11.5329 15.1443 11.6224 15.0399H11.632Z" fill="white"/>
<path d="M16.9794 15.6581C16.9825 15.7912 16.9388 15.9203 16.8578 16.0175C16.8222 16.0643 16.778 16.102 16.7283 16.128C16.6787 16.1541 16.6246 16.1679 16.5698 16.1685C16.5101 16.1693 16.4509 16.1563 16.3958 16.1304C16.3408 16.1044 16.2911 16.066 16.2498 16.0175L14.4994 14.2386V15.6761C14.5025 15.7435 14.492 15.8108 14.4687 15.873C14.4454 15.9352 14.41 15.9908 14.365 16.0355C14.2748 16.1183 14.1615 16.1629 14.045 16.1613C13.9283 16.1641 13.8146 16.1195 13.725 16.0355C13.6811 15.99 13.6466 15.9342 13.6239 15.8721C13.6013 15.81 13.591 15.7431 13.5938 15.6761V10.6447C13.5908 10.5777 13.601 10.5107 13.6236 10.4486C13.6463 10.3865 13.6809 10.3307 13.725 10.2853C13.8146 10.2014 13.9283 10.1567 14.045 10.1596C14.1615 10.158 14.2748 10.2025 14.365 10.2853C14.4102 10.3299 14.4457 10.3854 14.469 10.4477C14.4923 10.5099 14.5027 10.5773 14.4994 10.6447V13.8037L16.0994 12.0823C16.1402 12.0331 16.1898 11.9942 16.2449 11.9682C16.3001 11.9422 16.3596 11.9296 16.4194 11.9313C16.5312 11.9349 16.6376 11.9865 16.7168 12.0753C16.7959 12.1642 16.8418 12.2837 16.845 12.4093C16.8447 12.4768 16.8321 12.5436 16.8079 12.6054C16.7836 12.6673 16.7484 12.7228 16.7042 12.7687L15.5298 13.9942L16.829 15.3059C16.8747 15.3494 16.9118 15.4033 16.9377 15.464C16.9636 15.5247 16.9778 15.5909 16.9794 15.6581V15.6581Z" fill="white"/>
<path d="M3.91681 17.5161C3.96218 17.5604 3.99789 17.6159 4.02118 17.6782C4.04448 17.7405 4.05475 17.808 4.05121 17.8754V22.9068C4.05377 22.9735 4.04368 23.04 4.02161 23.102C3.99955 23.1639 3.966 23.2199 3.92321 23.2662C3.8348 23.3533 3.72083 23.4007 3.60321 23.3992C3.48012 23.4053 3.3597 23.3576 3.26721 23.2662C3.22505 23.2194 3.19193 23.1633 3.16991 23.1015C3.14789 23.0396 3.13744 22.9734 3.13921 22.9068V22.6984C3.03131 22.925 2.86666 23.1112 2.66561 23.2339C2.44872 23.366 2.2051 23.4328 1.95841 23.4279C1.66036 23.4331 1.36759 23.3393 1.11681 23.1584C0.864978 22.9717 0.665295 22.7088 0.540807 22.4001C0.390531 22.0405 0.315027 21.6472 0.320007 21.2501C0.311634 20.866 0.381692 20.4849 0.524807 20.136C0.649314 19.8331 0.847985 19.5764 1.09761 19.3956C1.35118 19.2199 1.64451 19.1301 1.94241 19.1369C2.18698 19.1315 2.4289 19.1945 2.64641 19.3202C2.84583 19.4375 3.0096 19.6189 3.11681 19.8413V17.8503C3.11508 17.787 3.12499 17.7241 3.14591 17.6653C3.16683 17.6066 3.19832 17.5533 3.23841 17.5089C3.32713 17.4227 3.44116 17.3766 3.55841 17.3795C3.6892 17.3704 3.81793 17.4195 3.91681 17.5161V17.5161ZM2.88001 22.2491C3.05816 21.9627 3.14395 21.6166 3.12321 21.268C3.14399 20.9205 3.05816 20.5756 2.88001 20.2905C2.79825 20.1775 2.69394 20.0877 2.57552 20.0284C2.4571 19.969 2.32791 19.9419 2.19841 19.9491C2.06678 19.9409 1.93525 19.9671 1.81419 20.0257C1.69313 20.0844 1.58585 20.1738 1.50081 20.2869C1.32174 20.5662 1.23464 20.9066 1.25441 21.2501C1.23808 21.5975 1.32473 21.9413 1.50081 22.2276C1.58136 22.3451 1.68594 22.4392 1.8057 22.5017C1.92545 22.5643 2.05686 22.5935 2.18881 22.587C2.31963 22.5963 2.45055 22.5706 2.57074 22.5118C2.69094 22.4531 2.79695 22.363 2.88001 22.2491V22.2491Z" fill="white"/>
<path d="M5.07511 18.2493C5.02587 18.1975 4.98699 18.1344 4.96107 18.0644C4.93514 17.9944 4.92275 17.919 4.92471 17.8432C4.92193 17.7678 4.93397 17.6927 4.95996 17.6231C4.98596 17.5536 5.02527 17.4913 5.07511 17.4407C5.18648 17.3322 5.33112 17.2768 5.47831 17.2862C5.62436 17.2781 5.76758 17.3334 5.87831 17.4407C5.92908 17.4906 5.96924 17.5527 5.99582 17.6224C6.0224 17.692 6.03473 17.7675 6.03191 17.8432C6.03471 17.9191 6.02271 17.9948 5.99673 18.065C5.97075 18.1351 5.93142 18.198 5.88151 18.2493C5.77013 18.3578 5.62549 18.4132 5.47831 18.4039C5.33112 18.4132 5.18648 18.3578 5.07511 18.2493V18.2493ZM5.14551 23.2807C5.10246 23.2345 5.06854 23.1786 5.04594 23.1167C5.02334 23.0548 5.01256 22.9882 5.01431 22.9213V19.6869C5.01194 19.6199 5.02244 19.5531 5.04508 19.4911C5.06771 19.4291 5.10197 19.3733 5.14551 19.3275C5.2361 19.2454 5.34913 19.201 5.46551 19.2017C5.58726 19.1974 5.7064 19.242 5.80151 19.3275C5.84709 19.3719 5.88314 19.4272 5.90697 19.4895C5.9308 19.5517 5.94178 19.6192 5.93911 19.6869V22.9213C5.94132 22.9889 5.93013 23.0563 5.90633 23.1184C5.88253 23.1806 5.84673 23.236 5.80151 23.2807C5.70742 23.3686 5.58784 23.4147 5.46551 23.4101C5.34643 23.4063 5.23266 23.3539 5.14551 23.2627V23.2807Z" fill="white"/>
<path d="M10.0191 19.5536C10.2566 19.9204 10.37 20.3701 10.3391 20.8223V22.8887C10.3409 22.9547 10.3311 23.0204 10.3103 23.0821C10.2894 23.1438 10.2579 23.2002 10.2175 23.2481C10.1199 23.3344 9.99926 23.3813 9.87506 23.3813C9.75085 23.3813 9.63026 23.3344 9.53266 23.2481C9.49019 23.2016 9.45686 23.1455 9.43482 23.0836C9.41277 23.0217 9.4025 22.9554 9.40466 22.8887V20.8834C9.42404 20.6372 9.36755 20.3911 9.24466 20.1862C9.18092 20.1086 9.1022 20.0486 9.01455 20.0105C8.92689 19.9725 8.83265 19.9576 8.73906 19.9669C8.62068 19.9618 8.50266 19.9845 8.39248 20.0333C8.28231 20.0822 8.18238 20.1563 8.09906 20.2508C8.01553 20.3541 7.95104 20.4749 7.9093 20.6063C7.86756 20.7377 7.8494 20.877 7.85586 21.0163V22.8887C7.85802 22.9554 7.84774 23.0217 7.8257 23.0836C7.80366 23.1455 7.77033 23.2016 7.72786 23.2481C7.63393 23.3417 7.51077 23.3895 7.38546 23.3811C7.32349 23.388 7.26092 23.3807 7.20152 23.3597C7.14212 23.3387 7.08712 23.3044 7.03986 23.2589C6.99844 23.2116 6.96601 23.1554 6.94455 23.0936C6.9231 23.0318 6.91306 22.9658 6.91506 22.8995V19.665C6.91142 19.5982 6.92101 19.5314 6.94314 19.4692C6.96528 19.4071 6.9994 19.3512 7.04306 19.3057C7.13667 19.2112 7.25975 19.1621 7.38546 19.1691C7.44378 19.1656 7.50213 19.1753 7.55709 19.1975C7.61204 19.2197 7.66248 19.2541 7.70546 19.2985C7.7466 19.3422 7.779 19.3953 7.80052 19.4541C7.82203 19.513 7.83217 19.5763 7.83026 19.6399V19.8663C7.94449 19.6361 8.11418 19.4468 8.31986 19.32C8.53978 19.1947 8.78369 19.1318 9.03026 19.1367C9.21236 19.1185 9.39578 19.1465 9.56694 19.2187C9.7381 19.2909 9.89262 19.4053 10.0191 19.5536V19.5536Z" fill="white"/>
<path d="M14.4001 19.5538C14.6376 19.9205 14.7511 20.3702 14.7201 20.8224V22.8888C14.722 22.9548 14.7122 23.0205 14.6913 23.0822C14.6705 23.1439 14.6389 23.2003 14.5985 23.2482C14.5009 23.3345 14.3803 23.3814 14.2561 23.3814C14.1319 23.3814 14.0113 23.3345 13.9137 23.2482C13.8712 23.2017 13.8379 23.1456 13.8159 23.0837C13.7938 23.0218 13.7836 22.9555 13.7857 22.8888V20.8835C13.8051 20.6374 13.7486 20.3912 13.6257 20.1863C13.562 20.1087 13.4833 20.0487 13.3956 20.0107C13.3079 19.9727 13.2137 19.9577 13.1201 19.967C13.0017 19.962 12.8837 19.9846 12.7735 20.0334C12.6634 20.0823 12.5634 20.1564 12.4801 20.251C12.3966 20.3542 12.3321 20.475 12.2904 20.6064C12.2486 20.7378 12.2304 20.8771 12.2369 21.0165V22.8888C12.2391 22.9555 12.2288 23.0218 12.2068 23.0837C12.1847 23.1456 12.1514 23.2017 12.1089 23.2482C12.0113 23.3345 11.8907 23.3814 11.7665 23.3814C11.6423 23.3814 11.5217 23.3345 11.4241 23.2482C11.3837 23.2003 11.3522 23.1439 11.3313 23.0822C11.3104 23.0205 11.3006 22.9548 11.3025 22.8888V19.6544C11.2989 19.5876 11.3085 19.5207 11.3306 19.4586C11.3527 19.3964 11.3869 19.3406 11.4305 19.295C11.5241 19.2005 11.6472 19.1514 11.7729 19.1584C11.8312 19.155 11.8896 19.1646 11.9445 19.1868C11.9995 19.2091 12.0499 19.2434 12.0929 19.2878C12.1341 19.3315 12.1665 19.3846 12.188 19.4435C12.2095 19.5023 12.2196 19.5656 12.2177 19.6292V19.8556C12.3378 19.6301 12.5119 19.4471 12.7201 19.3273C12.939 19.2025 13.1818 19.1395 13.4273 19.1441C13.6063 19.1279 13.7863 19.1562 13.9544 19.2271C14.1225 19.2979 14.2747 19.4094 14.4001 19.5538V19.5538Z" fill="white"/>
<path d="M18.7616 22.3246C18.8184 22.4091 18.8467 22.5135 18.8416 22.6192C18.836 22.7146 18.8066 22.8063 18.7568 22.8838C18.707 22.9613 18.6388 23.0216 18.56 23.0577C18.3786 23.1676 18.1864 23.2532 17.9872 23.3129C17.7871 23.3753 17.5805 23.4079 17.3728 23.4099C17.1175 23.4252 16.862 23.3824 16.6218 23.2843C16.3815 23.1861 16.1613 23.0345 15.9744 22.8385C15.7976 22.6316 15.6605 22.386 15.5719 22.1171C15.4833 21.8481 15.4449 21.5615 15.4592 21.2752C15.4522 20.8889 15.5291 20.5065 15.6832 20.1611C15.8264 19.8438 16.0488 19.5803 16.3232 19.4028C16.6043 19.2215 16.924 19.1296 17.248 19.1368C17.5491 19.1283 17.8465 19.2115 18.1088 19.3776C18.3508 19.5439 18.5451 19.7846 18.6688 20.0712C18.8122 20.396 18.8846 20.7545 18.88 21.117C18.88 21.3578 18.7872 21.4764 18.5952 21.4764H16.3808C16.3847 21.7912 16.4879 22.0943 16.672 22.3317C16.8704 22.5262 17.1293 22.6244 17.392 22.6049C17.5351 22.606 17.6775 22.5829 17.8144 22.5366C17.936 22.4899 18.0736 22.4288 18.2272 22.3497C18.3296 22.2841 18.4429 22.2425 18.56 22.2275C18.598 22.2251 18.636 22.2326 18.671 22.2495C18.7059 22.2663 18.737 22.292 18.7616 22.3246V22.3246ZM16.64 20.1431C16.4747 20.3591 16.3789 20.6312 16.368 20.9158H18.0576C18.0671 20.6354 17.9877 20.3604 17.8336 20.1395C17.763 20.0542 17.6773 19.9865 17.5819 19.9407C17.4866 19.8949 17.3837 19.872 17.28 19.8736C17.1623 19.8631 17.0439 19.8818 16.9333 19.9284C16.8228 19.975 16.7226 20.0483 16.64 20.1431V20.1431Z" fill="white"/>
<path d="M21.9809 19.2445C22.0203 19.2861 22.0508 19.337 22.0702 19.3937C22.0896 19.4503 22.0974 19.5111 22.0929 19.5716C22.1013 19.6939 22.0669 19.8152 21.9969 19.9094C21.8959 19.9971 21.7725 20.0462 21.6449 20.0496L21.4209 20.0747C21.2996 20.0807 21.1806 20.1137 21.0708 20.1717C20.9609 20.2297 20.8624 20.3115 20.7809 20.4125C20.6377 20.6166 20.565 20.8718 20.5761 21.1313V22.8959C20.578 22.9631 20.567 23.0301 20.5438 23.0921C20.5206 23.1541 20.4858 23.2098 20.4417 23.2553C20.3466 23.3437 20.2259 23.3898 20.1025 23.3847C19.9855 23.3859 19.872 23.34 19.7825 23.2553C19.7398 23.2088 19.7064 23.1528 19.6844 23.0909C19.6623 23.029 19.6521 22.9625 19.6545 22.8959V19.6614C19.6511 19.5947 19.6608 19.5279 19.6829 19.4657C19.705 19.4036 19.739 19.3478 19.7825 19.302C19.8728 19.2195 19.986 19.175 20.1025 19.1763C20.2192 19.1693 20.3338 19.213 20.4225 19.2985C20.4652 19.3445 20.4982 19.4007 20.5192 19.4628C20.5403 19.5249 20.5488 19.5916 20.5441 19.6578V19.9957C20.6277 19.76 20.7756 19.56 20.9665 19.4242C21.1573 19.2844 21.3787 19.2061 21.6065 19.1978H21.7121C21.8038 19.178 21.8988 19.1945 21.9809 19.2445V19.2445Z" fill="white"/>
<path d="M22.4674 23.047C22.3925 23.004 22.3302 22.9378 22.2876 22.8563C22.2451 22.7748 22.2242 22.6814 22.2274 22.587C22.2244 22.4876 22.254 22.3904 22.3106 22.3139C22.3353 22.281 22.3662 22.2547 22.4011 22.2367C22.4359 22.2187 22.4738 22.2095 22.5122 22.2097C22.6367 22.2247 22.7568 22.2701 22.8642 22.3426C23.0052 22.421 23.1518 22.4859 23.3026 22.5367C23.4661 22.5874 23.6354 22.6104 23.805 22.605C23.9746 22.6148 24.1436 22.5739 24.2945 22.4864C24.3483 22.456 24.3933 22.4092 24.4245 22.3513C24.4556 22.2935 24.4716 22.2269 24.4705 22.1594C24.4745 22.0764 24.4492 21.9951 24.4001 21.933C24.3274 21.8606 24.241 21.8077 24.1473 21.7784C23.9646 21.712 23.7787 21.6568 23.5906 21.6131C23.2444 21.5602 22.9149 21.4135 22.6306 21.1854C22.534 21.0907 22.4579 20.9726 22.408 20.84C22.3581 20.7074 22.3357 20.5637 22.3426 20.4199C22.34 20.1801 22.4087 19.9461 22.5378 19.7551C22.6737 19.5474 22.8589 19.3868 23.0722 19.2915C23.3168 19.1794 23.5792 19.1244 23.8434 19.1298C24.0485 19.129 24.2528 19.158 24.4513 19.216C24.636 19.27 24.812 19.356 24.9729 19.4712C25.0447 19.5147 25.1047 19.579 25.1469 19.6573C25.1891 19.7357 25.2119 19.8252 25.2129 19.9168C25.2155 20.0183 25.186 20.1176 25.1297 20.1971C25.1069 20.2332 25.0767 20.2625 25.0416 20.2825C25.0065 20.3026 24.9675 20.3127 24.9281 20.3121C24.8732 20.3127 24.8187 20.3005 24.7681 20.2762C24.7169 20.2474 24.6497 20.2115 24.5697 20.1612C24.4484 20.0894 24.3234 20.0258 24.1953 19.9707C24.0701 19.927 23.9393 19.9063 23.8082 19.9096C23.6541 19.9009 23.5012 19.9448 23.3698 20.0354C23.3172 20.074 23.2746 20.1277 23.2465 20.1908C23.2184 20.254 23.2057 20.3243 23.2098 20.3948C23.2093 20.4591 23.2242 20.5223 23.2529 20.578C23.2816 20.6336 23.3231 20.6795 23.373 20.711C23.5753 20.8197 23.791 20.8936 24.013 20.9303C24.2824 20.9869 24.5454 21.0773 24.7969 21.1998C24.963 21.2786 25.1053 21.4096 25.2065 21.5772C25.2927 21.7542 25.3347 21.9541 25.3281 22.1558C25.3316 22.336 25.2947 22.5143 25.2209 22.6744C25.1471 22.8345 25.0388 22.9713 24.9057 23.0722C24.5742 23.3242 24.1794 23.4501 23.7794 23.4316C23.3183 23.4471 22.8629 23.3136 22.4674 23.047V23.047Z" fill="white"/>
<path d="M31.0402 19.3272C30.8371 19.0981 30.5957 18.9164 30.33 18.7924C30.0642 18.6683 29.7792 18.6045 29.4914 18.6045C29.2036 18.6045 28.9186 18.6683 28.6528 18.7924C28.387 18.9164 28.1456 19.0981 27.9426 19.3272L26.397 21.063L27.9426 22.8024C28.1458 23.0309 28.387 23.2121 28.6526 23.3358C28.9181 23.4595 29.2028 23.5233 29.4902 23.5234C29.7777 23.5236 30.0624 23.4602 30.3281 23.3368C30.5938 23.2134 30.8352 23.0324 31.0386 22.8042C31.242 22.576 31.4033 22.3051 31.5135 22.0069C31.6237 21.7086 31.6804 21.389 31.6806 21.0661C31.6807 20.7432 31.6242 20.4235 31.5144 20.1251C31.4045 19.8267 31.2434 19.5556 31.0402 19.3272V19.3272ZM30.9058 21.063C30.9083 21.3799 30.8264 21.6904 30.6706 21.9546C30.5147 22.2188 30.2921 22.4246 30.0313 22.5455C29.7705 22.6665 29.4834 22.6971 29.207 22.6333C28.9306 22.5696 28.6775 22.4145 28.4802 22.1879L27.4882 21.063L28.4802 19.9417C28.6778 19.7191 28.9298 19.5674 29.2042 19.5057C29.4787 19.444 29.7633 19.4752 30.022 19.5952C30.2806 19.7153 30.5018 19.9189 30.6574 20.1801C30.813 20.4414 30.8961 20.7487 30.8962 21.063H30.9058Z" fill="white"/>
</g>
<defs>
<clipPath id="clip0">
<rect width="32" height="32" fill="white"/>
</clipPath>
</defs>
</svg>
