<svg width="61" height="60" viewBox="0 0 61 60" fill="none" xmlns="http://www.w3.org/2000/svg">
<path fill-rule="evenodd" clip-rule="evenodd" d="M55.738 19.87C52.9779 17.1208 49.2446 15.5716 45.349 15.5589C41.4534 15.5462 37.71 17.0709 34.932 19.802L30.16 24.378L25.453 19.87C23.396 17.8203 20.7782 16.4254 17.9296 15.8611C15.0811 15.2967 12.1292 15.5883 9.44611 16.699C6.76298 17.8096 4.46868 19.6897 2.85236 22.1022C1.23603 24.5147 0.37006 27.3517 0.363525 30.2556C0.356989 33.1595 1.21016 36.0003 2.81561 38.4201C4.42106 40.8399 6.70691 42.7302 9.38501 43.853C12.0631 44.9757 15.0136 45.2805 17.8647 44.729C20.7157 44.1775 23.3398 42.7944 25.406 40.754L30.16 36.196L34.868 40.686C36.2348 42.0563 37.8581 43.1441 39.6453 43.887C41.4324 44.63 43.3485 45.0137 45.2839 45.0162C47.2194 45.0187 49.1363 44.64 50.9254 43.9016C52.7145 43.1633 54.3407 42.0798 55.711 40.713C57.0813 39.3462 58.1691 37.7229 58.912 35.9357C59.655 34.1485 60.0387 32.2325 60.0412 30.2971C60.0437 28.3616 59.665 26.4446 58.9266 24.6556C58.1883 22.8665 57.1048 21.2403 55.738 19.87ZM13.761 38.679L4.78198 29.724L8.78998 25.709L13.761 30.671L21.973 22.471L26 26.477L13.761 38.679ZM53.161 34.636L49.389 38.398L45.189 34.207L40.989 38.398L37.217 34.636L41.417 30.436L37.217 26.251L40.998 22.463L45.191 26.657L49.384 22.463L53.165 26.251L48.965 30.436L53.161 34.636Z" fill="#314E8D"/>
</svg>
