<svg width="32" height="32" viewBox="0 0 32 32" fill="none" xmlns="http://www.w3.org/2000/svg">
<path fill-rule="evenodd" clip-rule="evenodd" d="M8.99617 32H8.513V-8.50287e-07H8.99617V32Z" fill="#606163"/>
<path fill-rule="evenodd" clip-rule="evenodd" d="M23.4868 32H23.0034V-8.50287e-07H23.4868V32Z" fill="#606163"/>
<path fill-rule="evenodd" clip-rule="evenodd" d="M0 23.0038H32V23.4865H0V23.0038Z" fill="#606163"/>
<path fill-rule="evenodd" clip-rule="evenodd" d="M0 8.51306H32V8.99581H0V8.51306Z" fill="#606163"/>
<path fill-rule="evenodd" clip-rule="evenodd" d="M15.004 20.2947C12.9371 20.2947 11.1337 19.2813 11.1337 17.0528C11.1337 13.8719 13.6395 12.4598 13.7308 12.3681C13.8219 12.2775 13.8018 12.0613 13.8018 12.0613C13.8018 12.0613 14.7358 11.9463 15.4702 11.9463C16.5848 11.9463 20.1813 12.4084 20.1813 15.543C20.1813 19.1698 16.5441 20.2947 15.004 20.2947ZM16.2602 10.1835C13.1401 10.1835 8.39844 11.8046 5.35904 14.8438C5.35904 14.8438 5.27108 14.9252 5.35904 15.0127C5.55974 15.2136 10.0191 12.5139 12.1673 12.5139C12.1673 12.5139 9.8977 14.8845 9.8977 17.3966C9.8977 19.9092 11.8427 22.1382 14.8821 22.1382C17.9218 22.1382 22.096 20.0309 22.096 15.614C22.096 11.1965 18.0436 10.1835 16.2602 10.1835Z" fill="#F16039"/>
</svg>
