<?xml version="1.0" encoding="utf-8"?>
<!-- Generator: Adobe Illustrator 23.1.0, SVG Export Plug-In . SVG Version: 6.00 Build 0)  -->
<svg version="1.1" id="Layer_1" xmlns="http://www.w3.org/2000/svg" xmlns:xlink="http://www.w3.org/1999/xlink" x="0px" y="0px"
	 viewBox="0 0 636.24 420.35" style="enable-background:new 0 0 636.24 420.35;" xml:space="preserve">
<style type="text/css">
	.st0{fill:#D71256;}
	.st1{stroke:#000000;stroke-miterlimit:10;}
	.st2{stroke:#000000;stroke-width:2;stroke-miterlimit:10;}
</style>
<g>
	<path class="st0" d="M310.24,232.85c2.39,4.78,4.6,8.77,7.79,12.15c11.47,12.17,28.5,15.57,43.4,8.56
		c14.03-6.61,23.18-22.6,21.43-37.46c-2.11-17.92-13.7-30.81-30.71-34.15c-15.6-3.07-31.67,4.51-39.49,19.06
		c-7.7,14.34-14.83,29-22.59,43.3c-10.15,18.7-26.51,28.06-47.41,27.47c-22.13-0.62-38.2-12.08-46.55-32.64
		c-8.16-20.1-4.87-39.17,9.62-55.32c22.14-24.66,60.27-22.81,79.66,3.24c1.29,1.73,2.23,3.09,0.97,5.32
		c-2.35,4.12-4.45,8.39-6.93,13.14c-3.49-6.86-7.33-12.72-13.28-17.03c-16.95-12.28-40.43-8.46-52.53,8.7
		c-12.31,17.48-7.76,41.95,9.97,53.68c17.48,11.55,41.19,6.83,51.88-11.24c8.36-14.13,15.51-28.98,23.08-43.57
		c10.54-20.29,31.84-32.18,52.81-29.37c23.09,3.1,40.65,19.72,45.41,42.97c4.75,23.22-8.1,47.69-30.36,57.81
		c-21.37,9.72-47.47,3.08-61.93-15.63c-1.88-2.43-2.28-4.38-0.61-7.08C306.11,241.15,307.91,237.27,310.24,232.85z"/>
</g>
<g>
	<path class="st1" d="M179.45,218.94c0,13.92-4.81,25.93-14.44,36.02c-9.63,10.09-21.34,15.37-35.15,15.83
		c-14.27,0.46-26.68-4.52-37.24-14.96c-10.56-10.44-15.66-22.79-15.31-37.06v-0.7v-83.69h13.22v50.11
		c9.73-11.25,21.88-17.11,36.47-17.57c14.24-0.58,26.54,4.35,36.9,14.79C174.27,192.14,179.45,204.56,179.45,218.94z M166.22,217.98
		c-0.23-10.46-4.05-19.44-11.45-26.94c-7.4-7.5-16.4-11.25-27.01-11.25c-10.14,0-18.82,3.72-26.05,11.16
		c-7.23,7.44-10.95,16.39-11.19,26.86c-0.35,11.05,3.38,20.61,11.19,28.69c7.81,8.08,17.13,11.89,27.97,11.42
		c10.25-0.46,18.94-4.59,26.05-12.38C162.84,237.74,166.34,228.56,166.22,217.98z"/>
</g>
<g>
	<path class="st2" d="M550.62,270.93h-13.75v-60.9c0-7.66-2.2-14.21-6.61-19.66c-4.41-5.45-10.21-8.18-17.4-8.18
		c-7.31,0-13.6,2.38-18.88,7.13c-5.28,4.76-7.92,10.67-7.92,17.75v63.86h-13.92v-63.86c0-7.07-2.64-12.99-7.92-17.75
		c-5.28-4.75-11.57-7.13-18.88-7.13c-7.19,0-12.94,2.7-17.23,8.09c-4.29,5.39-6.44,11.98-6.44,19.75v60.9h-13.75v-59.33
		c0-12.41,3.54-22.39,10.61-29.93c6.61-7.07,15.31-11.08,26.1-12.01c14.38-1.16,25.87,4.99,34.45,18.44
		c8.58-13.46,20.07-19.6,34.45-18.44c10.79,0.93,19.54,4.93,26.27,12.01c7.19,7.54,10.79,17.52,10.79,29.93V270.93z"/>
</g>
</svg>
