<svg width="32" height="32" viewBox="0 0 32 32" fill="none" xmlns="http://www.w3.org/2000/svg">
<g clip-path="url(#clip0_3323_410)">
<path d="M3.53006 6.3325C3.46969 4.59875 4.8205 3 6.64638 3H25.3559C27.1818 3 28.5326 4.59875 28.4722 6.3325C28.4142 7.99794 28.4896 10.1553 29.0325 11.9144C29.5772 13.6789 30.4957 14.7942 32 14.9375V16.5625C30.4957 16.7058 29.5772 17.8211 29.0325 19.5856C28.4896 21.3447 28.4142 23.5021 28.4722 25.1676C28.5326 26.9013 27.1818 28.5 25.3559 28.5H6.64638C4.8205 28.5 3.46969 26.9013 3.53012 25.1676C3.58806 23.5021 3.51275 21.3447 2.96975 19.5856C2.42512 17.8211 1.50437 16.7058 0 16.5625V14.9375C1.50431 14.7942 2.42512 13.6789 2.96975 11.9144C3.51275 10.1553 3.58806 7.99794 3.53006 6.3325V6.3325Z" fill="url(#paint0_linear_3323_410)"/>
<g filter="url(#filter0_d_3323_410)">
<path d="M16.694 22.5286C19.6501 22.5286 21.4314 21.0812 21.4314 18.6939C21.4314 16.8893 20.1604 15.5829 18.2731 15.3761V15.3009C19.6597 15.0753 20.7478 13.7877 20.7478 12.3497C20.7478 10.3008 19.1301 8.96606 16.6651 8.96606H11.1189V22.5286H16.694ZM13.2758 10.6861H16.1452C17.7051 10.6861 18.5909 11.3816 18.5909 12.641C18.5909 13.9851 17.5606 14.7369 15.6926 14.7369H13.2758V10.6861V10.6861ZM13.2758 20.8086V16.3442H16.1259C18.1672 16.3442 19.2264 17.0961 19.2264 18.5623C19.2264 20.0285 18.1961 20.8086 16.2511 20.8086H13.2758V20.8086Z" fill="url(#paint1_linear_3323_410)"/>
<path d="M16.694 22.5286C19.6501 22.5286 21.4314 21.0812 21.4314 18.6939C21.4314 16.8893 20.1604 15.5829 18.2731 15.3761V15.3009C19.6597 15.0753 20.7478 13.7877 20.7478 12.3497C20.7478 10.3008 19.1301 8.96606 16.6651 8.96606H11.1189V22.5286H16.694ZM13.2758 10.6861H16.1452C17.7051 10.6861 18.5909 11.3816 18.5909 12.641C18.5909 13.9851 17.5606 14.7369 15.6926 14.7369H13.2758V10.6861V10.6861ZM13.2758 20.8086V16.3442H16.1259C18.1672 16.3442 19.2264 17.0961 19.2264 18.5623C19.2264 20.0285 18.1961 20.8086 16.2511 20.8086H13.2758V20.8086Z" stroke="white"/>
</g>
</g>
<defs>
<filter id="filter0_d_3323_410" x="-5.3811" y="-3.53394" width="43.3125" height="46.5625" filterUnits="userSpaceOnUse" color-interpolation-filters="sRGB">
<feFlood flood-opacity="0" result="BackgroundImageFix"/>
<feColorMatrix in="SourceAlpha" type="matrix" values="0 0 0 0 0 0 0 0 0 0 0 0 0 0 0 0 0 0 127 0" result="hardAlpha"/>
<feOffset dy="4"/>
<feGaussianBlur stdDeviation="8"/>
<feColorMatrix type="matrix" values="0 0 0 0 0 0 0 0 0 0 0 0 0 0 0 0 0 0 0.15 0"/>
<feBlend mode="normal" in2="BackgroundImageFix" result="effect1_dropShadow_3323_410"/>
<feBlend mode="normal" in="SourceGraphic" in2="effect1_dropShadow_3323_410" result="shape"/>
</filter>
<linearGradient id="paint0_linear_3323_410" x1="4.75494" y1="3.67488" x2="32.7175" y2="25.8716" gradientUnits="userSpaceOnUse">
<stop stop-color="#9013FE"/>
<stop offset="1" stop-color="#6610F2"/>
</linearGradient>
<linearGradient id="paint1_linear_3323_410" x1="12.0943" y1="9.85875" x2="18.3447" y2="20.4295" gradientUnits="userSpaceOnUse">
<stop stop-color="white"/>
<stop offset="1" stop-color="#F1E5FC"/>
</linearGradient>
<clipPath id="clip0_3323_410">
<rect width="32" height="25.5" fill="white" transform="translate(0 3)"/>
</clipPath>
</defs>
</svg>
