<svg width="32" height="32" viewBox="0 0 32 32" fill="none" xmlns="http://www.w3.org/2000/svg">
<path fill-rule="evenodd" clip-rule="evenodd" d="M6.80331 3.4668C5.00785 3.4668 3.67931 5.03826 3.73878 6.74253C3.79585 8.37986 3.72171 10.5004 3.18785 12.2297C2.65238 13.9641 1.74678 15.0628 0.267578 15.2039V16.7964C1.74678 16.9375 2.65238 18.0361 3.18785 19.7705C3.72171 21.4999 3.79585 23.6204 3.73878 25.2577C3.67931 26.9617 5.00785 28.5335 6.80358 28.5335H25.2009C26.9964 28.5335 28.3246 26.962 28.2652 25.2577C28.2081 23.6204 28.2822 21.4999 28.8161 19.7705C29.3518 18.0361 30.255 16.9375 31.7342 16.7964V15.2039C30.255 15.0628 29.3518 13.9641 28.8161 12.2297C28.2822 10.5007 28.2081 8.37986 28.2652 6.74253C28.3246 5.03853 26.9964 3.4668 25.2009 3.4668H6.80304H6.80331ZM21.6009 18.8969C21.6009 21.2436 19.8505 22.6668 16.9457 22.6668H12.0009C11.8595 22.6668 11.7238 22.6106 11.6238 22.5106C11.5238 22.4106 11.4676 22.2749 11.4676 22.1335V9.8668C11.4676 9.72536 11.5238 9.5897 11.6238 9.48968C11.7238 9.38965 11.8595 9.33346 12.0009 9.33346H16.9174C19.3396 9.33346 20.9292 10.6455 20.9292 12.6599C20.9292 14.0737 19.8598 15.3396 18.4974 15.5612V15.6351C20.3521 15.8385 21.6009 17.1228 21.6009 18.8969ZM16.4065 11.0241H13.587V15.0065H15.9617C17.7974 15.0065 18.8097 14.2673 18.8097 12.946C18.8097 11.7079 17.9393 11.0241 16.4065 11.0241ZM13.587 16.5868V20.9756H16.5102C18.4214 20.9756 19.434 20.2087 19.434 18.7673C19.434 17.3257 18.3932 16.5865 16.3873 16.5865L13.587 16.5868Z" fill="#7611F2"/>
</svg>
