<svg id="booxi_circle" data-name="booxi circle" xmlns="http://www.w3.org/2000/svg" xmlns:xlink="http://www.w3.org/1999/xlink" width="512" height="512" viewBox="0 0 512 512"><defs><linearGradient id="linear-gradient" x1="256.46" y1="161.33" x2="256.46" y2="-28.62" gradientTransform="translate(0 240)" gradientUnits="userSpaceOnUse"><stop offset="0.83" stop-color="#fff"/><stop offset="0.95" stop-color="#a6a5a5"/><stop offset="0.99" stop-color="#354237"/></linearGradient></defs><circle cx="256" cy="256" r="256" fill="#44ce5e"/><path d="M226.38,171.34c-19.93,0-19.93,0-19.93-19.93v-30c0-19.93,0-19.93,19.93-19.93s19.93,0,19.93,19.93v30C246.31,171.34,246.31,171.34,226.38,171.34Zm60,0c-19.93,0-19.93,0-19.93-19.93v-30c0-19.93,0-19.93,19.93-19.93s19.94,0,19.94,19.93v30C306.29,171.34,306.29,171.34,286.35,171.34Zm80.1,60h-220c-9.88,0-10.06,0-10.06-10.05V201.33c0-19.94,0-19.94,19.93-19.94s20.12,0,20.12,19.94c0,10,0,10,10,10H326.4c9.87,0,10.06,0,10.06-10,0-19.94,0-19.94,19.93-19.94s19.93,0,19.93,19.94v19.93C376.32,231.31,376.32,231.31,366.45,231.31Z" fill="#354237"/><path d="M321.46,371.38A28.47,28.47,0,0,0,307.57,375c-8.6,4.94-20.3,11.7-29.26,16.82-21.76,12.62-21.76,12.62-43.52,0-9.88-5.67-20.66-11.88-29.62-17-2.2-1.1-5.12-3.66-13.72-3.66,0,0-4.94-9-4.94-28.89s1.1-25.05,19.94-13.9c1.82,1.1,29.25,16.82,40,23,6.77,4,13.17,4,19.93.18,10.61-6,28.71-16.27,40.23-23,19.57-11.7,19.93-6,19.93,13.9C326.4,362.42,321.46,371.38,321.46,371.38Zm34.93,0H156.53c-19.94,0-19.94,0-19.94-19.93v-90c0-30.18,12.8-36,19.94-40.05,7.68-4.21,19.93-10.06,19.93-10.06h160s11.15,5.49,19.93,10.06c10.42,5.3,19.93,10.24,19.93,40.05v90C376.32,371.38,376.32,371.38,356.39,371.38Z" fill="url(#linear-gradient)"/><path id="v" d="M367.54,228.94H321.28a28.22,28.22,0,0,0-14.08,3.65l-29.81,17.19c-21,12.07-21,12.07-42,0,0,0-30.54-17.55-30.91-17.73-2.19-1.28-5.48-3.11-13-3.11H146.1l-1.64,2.37h47c6.77,0,9.69,1.65,11.89,2.75.55.18,30.9,17.73,30.9,17.73,11,6.4,16.64,9.51,22.31,9.51s11.15-3.11,22.12-9.51l29.81-17.18a24.62,24.62,0,0,1,13-3.48h47.91Z" fill-rule="evenodd" opacity="0.1" style="isolation:isolate"/><path id="V-2" data-name="V" d="M277.76,354.19c-4.94,2.93-12.62,7.14-17.19,9.7a8.11,8.11,0,0,1-8.59,0c-4.57-2.56-16.28-9.15-17.19-9.7-8-4.75-8.6-3.29-8.6,5.12s0,10.24,4.21,12.62c4.39,2.38,10.61,6,16.46,9.33,9.32,5.3,9.32,5.3,18.65,0,5.48-3.11,13.71-7.68,16.46-9.33,4-2.19,4.2-4.2,4.2-12.62C286.35,350.9,286.17,349.26,277.76,354.19Zm3.29,15.55c-1.83,1.09-6.22,3.47-10.42,5.85-2.2,1.28-6.22,3.47-6.22,3.47-4.2,2.38-6.4,3.66-8,3.66s-4-1.28-8.05-3.66l-4.21-2.37c-4.57-2.56-9-5.12-12.25-6.95-2.92-1.65-2.92-2-2.92-10.06v-.37a24.54,24.54,0,0,1,.36-5.3,26,26,0,0,1,4.57,2.2c.19.18,1.83.91,3.84,2.19,4,2.19,10.24,5.67,13.35,7.5a10,10,0,0,0,11,0c1.47-.92,3.3-1.83,5.31-2.93,4-2.19,8.59-4.75,11.88-6.76a26.73,26.73,0,0,1,4.57-2.38,47.83,47.83,0,0,1,.19,5.48C284,367.91,283.79,368.27,281.05,369.74Z" fill="#e5e5e5" fill-rule="evenodd"/></svg>