<?xml version="1.0" encoding="UTF-8" standalone="no"?>
<!DOCTYPE svg PUBLIC "-//W3C//DTD SVG 1.1//EN" "http://www.w3.org/Graphics/SVG/1.1/DTD/svg11.dtd">
<svg width="100%" height="100%" viewBox="0 0 106 106" version="1.1" xmlns="http://www.w3.org/2000/svg" xmlns:xlink="http://www.w3.org/1999/xlink" xml:space="preserve" xmlns:serif="http://www.serif.com/" style="fill-rule:evenodd;clip-rule:evenodd;stroke-linejoin:round;stroke-miterlimit:1.41421;">
    <g transform="matrix(38.6822,0,0,-38.6822,18.0734,23.4852)">
        <path d="M0.516,0.271C0.152,0.218 0.037,-0.05 0,-0.208C0.038,-0.182 0.08,-0.163 0.124,-0.152C0.196,-0.133 0.274,-0.132 0.352,-0.147C0.393,-0.156 0.434,-0.168 0.474,-0.186C0.526,-0.208 0.577,-0.238 0.624,-0.275C0.665,-0.251 0.71,-0.233 0.756,-0.221C0.767,-0.153 0.781,-0.095 0.798,-0.049C0.798,-0.048 0.799,-0.047 0.799,-0.045C0.832,-0.041 0.865,-0.038 0.898,-0.038C0.931,-0.038 0.968,-0.041 1,-0.045C0.984,-0.008 0.966,0.027 0.945,0.059C0.9,0.126 0.844,0.18 0.781,0.218C0.741,0.241 0.698,0.257 0.653,0.266C0.636,0.269 0.605,0.275 0.567,0.275C0.551,0.275 0.534,0.274 0.516,0.271Z" style="fill:url(#_Linear1);fill-rule:nonzero;"/>
    </g>
    <g transform="matrix(-38.6822,0,0,38.6822,87.5476,82.3328)">
        <path d="M0.756,-0.226C0.767,-0.158 0.781,-0.1 0.798,-0.054C0.798,-0.053 0.799,-0.052 0.799,-0.05C0.832,-0.046 0.865,-0.043 0.898,-0.043C0.931,-0.043 0.968,-0.046 1,-0.05C0.984,-0.013 0.966,0.022 0.945,0.054C0.9,0.121 0.844,0.175 0.781,0.212C0.741,0.236 0.698,0.252 0.653,0.261C0.629,0.266 0.575,0.275 0.516,0.266C0.152,0.213 0.037,-0.055 0,-0.213C0.038,-0.187 0.08,-0.168 0.124,-0.157C0.196,-0.138 0.274,-0.137 0.352,-0.152C0.393,-0.161 0.434,-0.173 0.474,-0.191C0.526,-0.213 0.577,-0.243 0.624,-0.28C0.665,-0.256 0.71,-0.238 0.756,-0.226Z" style="fill:url(#_Linear2);fill-rule:nonzero;"/>
    </g>
    <g transform="matrix(27.3525,-27.3525,-27.3525,-27.3525,7.37288,56.4996)">
        <path d="M0.781,0.212C0.741,0.236 0.698,0.252 0.653,0.261C0.629,0.266 0.575,0.275 0.516,0.266C0.152,0.213 0.037,-0.055 0,-0.213C0.038,-0.187 0.08,-0.168 0.124,-0.157C0.196,-0.138 0.274,-0.137 0.352,-0.152C0.393,-0.161 0.434,-0.174 0.474,-0.191C0.526,-0.213 0.577,-0.243 0.624,-0.28C0.665,-0.256 0.71,-0.238 0.756,-0.226C0.767,-0.158 0.781,-0.1 0.798,-0.054C0.798,-0.053 0.799,-0.052 0.799,-0.05C0.832,-0.046 0.865,-0.043 0.898,-0.043C0.931,-0.043 0.968,-0.046 1,-0.05C0.985,-0.013 0.966,0.022 0.945,0.054C0.924,0.085 0.901,0.113 0.876,0.138C0.847,0.167 0.815,0.192 0.781,0.212Z" style="fill:url(#_Linear3);fill-rule:nonzero;"/>
    </g>
    <g transform="matrix(-27.3525,27.3525,27.3525,27.3525,98.2486,49.1239)">
        <path d="M0.124,-0.157C0.196,-0.138 0.274,-0.137 0.352,-0.152C0.393,-0.161 0.434,-0.174 0.474,-0.191C0.526,-0.213 0.577,-0.243 0.624,-0.28C0.665,-0.256 0.71,-0.238 0.756,-0.226C0.767,-0.158 0.781,-0.1 0.798,-0.054C0.798,-0.053 0.799,-0.052 0.799,-0.05C0.832,-0.046 0.865,-0.043 0.898,-0.043C0.931,-0.043 0.968,-0.046 1,-0.05C0.985,-0.013 0.966,0.022 0.945,0.054C0.9,0.121 0.844,0.175 0.78,0.212C0.741,0.236 0.698,0.252 0.653,0.261C0.629,0.266 0.575,0.275 0.516,0.266C0.152,0.213 0.037,-0.055 0,-0.213C0.038,-0.187 0.08,-0.168 0.124,-0.157Z" style="fill:url(#_Linear4);fill-rule:nonzero;"/>
    </g>
    <g transform="matrix(0,-38.6822,-38.6822,-0,23.2882,87.5486)">
        <path d="M0.945,0.054C0.9,0.121 0.844,0.175 0.78,0.212C0.741,0.236 0.698,0.252 0.653,0.261C0.629,0.266 0.575,0.275 0.516,0.266C0.152,0.213 0.037,-0.055 0,-0.213C0.038,-0.187 0.08,-0.168 0.124,-0.157C0.196,-0.138 0.274,-0.137 0.352,-0.152C0.393,-0.161 0.434,-0.174 0.474,-0.191C0.526,-0.213 0.577,-0.243 0.624,-0.28C0.665,-0.256 0.71,-0.238 0.756,-0.226C0.767,-0.158 0.781,-0.1 0.798,-0.054C0.798,-0.053 0.799,-0.052 0.799,-0.05C0.832,-0.046 0.865,-0.043 0.898,-0.043C0.931,-0.043 0.968,-0.046 1,-0.05C0.984,-0.013 0.966,0.022 0.945,0.054Z" style="fill:url(#_Linear5);fill-rule:nonzero;"/>
    </g>
    <g transform="matrix(0,38.6822,38.6822,0,82.3319,18.0745)">
        <path d="M0.124,-0.157C0.196,-0.138 0.274,-0.137 0.352,-0.152C0.393,-0.161 0.434,-0.173 0.474,-0.191C0.526,-0.213 0.577,-0.243 0.624,-0.28C0.665,-0.256 0.71,-0.238 0.756,-0.226C0.767,-0.158 0.781,-0.1 0.798,-0.054C0.798,-0.053 0.799,-0.052 0.799,-0.05C0.832,-0.046 0.865,-0.043 0.898,-0.043C0.931,-0.043 0.968,-0.046 1,-0.05C0.985,-0.013 0.966,0.022 0.945,0.054C0.9,0.121 0.844,0.175 0.781,0.212C0.741,0.236 0.698,0.252 0.653,0.261C0.629,0.266 0.575,0.275 0.516,0.266C0.152,0.213 0.037,-0.055 0,-0.213C0.038,-0.187 0.08,-0.168 0.124,-0.157Z" style="fill:url(#_Linear6);fill-rule:nonzero;"/>
    </g>
    <g transform="matrix(-27.3525,-27.3525,-27.3525,27.3525,56.4981,98.2496)">
        <path d="M0.945,0.054C0.9,0.121 0.844,0.175 0.78,0.212C0.741,0.236 0.698,0.252 0.653,0.261C0.629,0.266 0.575,0.275 0.516,0.266C0.152,0.213 0.037,-0.055 0,-0.213C0.038,-0.187 0.08,-0.168 0.124,-0.157C0.196,-0.138 0.274,-0.137 0.352,-0.152C0.393,-0.161 0.434,-0.174 0.474,-0.191C0.526,-0.213 0.577,-0.243 0.624,-0.28C0.665,-0.256 0.71,-0.238 0.756,-0.226C0.767,-0.158 0.781,-0.1 0.798,-0.054C0.798,-0.053 0.799,-0.052 0.799,-0.05C0.832,-0.046 0.865,-0.043 0.898,-0.043C0.931,-0.043 0.968,-0.046 1,-0.05C0.985,-0.013 0.966,0.022 0.945,0.054Z" style="fill:url(#_Linear7);fill-rule:nonzero;"/>
    </g>
    <g transform="matrix(27.3525,27.3525,27.3525,-27.3525,49.123,7.37335)">
        <path d="M0,-0.213C0.038,-0.187 0.08,-0.168 0.124,-0.157C0.196,-0.138 0.274,-0.137 0.352,-0.152C0.393,-0.161 0.434,-0.174 0.474,-0.191C0.526,-0.213 0.577,-0.243 0.624,-0.28C0.665,-0.256 0.71,-0.238 0.756,-0.226C0.767,-0.158 0.781,-0.1 0.798,-0.054C0.798,-0.053 0.799,-0.052 0.799,-0.05C0.832,-0.046 0.865,-0.043 0.898,-0.043C0.931,-0.043 0.968,-0.046 1,-0.05C0.985,-0.013 0.966,0.022 0.945,0.054C0.9,0.121 0.844,0.175 0.781,0.212C0.741,0.236 0.698,0.252 0.653,0.261C0.629,0.266 0.575,0.275 0.516,0.266C0.357,0.243 0.245,0.178 0.167,0.1C0.066,-0.001 0.021,-0.124 0,-0.213Z" style="fill:url(#_Linear8);fill-rule:nonzero;"/>
    </g>
    <defs>
        <linearGradient id="_Linear1" x1="0" y1="0" x2="1" y2="0" gradientUnits="userSpaceOnUse" gradientTransform="matrix(1,0,0,-1,0,-4.82392e-06)"><stop offset="0" style="stop-color:rgb(254,233,88);stop-opacity:1"/><stop offset="1" style="stop-color:rgb(252,139,66);stop-opacity:1"/></linearGradient>
        <linearGradient id="_Linear2" x1="0" y1="0" x2="1" y2="0" gradientUnits="userSpaceOnUse" gradientTransform="matrix(1,-0,0,-1,0,-0.00504433)"><stop offset="0" style="stop-color:rgb(245,186,103);stop-opacity:1"/><stop offset="1" style="stop-color:rgb(224,70,140);stop-opacity:1"/></linearGradient>
        <linearGradient id="_Linear3" x1="0" y1="0" x2="1" y2="0" gradientUnits="userSpaceOnUse" gradientTransform="matrix(1,0,0,-1,8.88178e-16,-0.00504645)"><stop offset="0" style="stop-color:rgb(254,233,88);stop-opacity:1"/><stop offset="0" style="stop-color:rgb(254,233,88);stop-opacity:1"/><stop offset="1" style="stop-color:rgb(252,139,66);stop-opacity:1"/></linearGradient>
        <linearGradient id="_Linear4" x1="0" y1="0" x2="1" y2="0" gradientUnits="userSpaceOnUse" gradientTransform="matrix(1,0,0,-1,-1.77636e-15,-0.00506378)"><stop offset="0" style="stop-color:rgb(250,210,95);stop-opacity:1"/><stop offset="1" style="stop-color:rgb(224,70,140);stop-opacity:1"/></linearGradient>
        <linearGradient id="_Linear5" x1="0" y1="0" x2="1" y2="0" gradientUnits="userSpaceOnUse" gradientTransform="matrix(1,0,0,-1,0,-0.00506927)"><stop offset="0" style="stop-color:rgb(250,210,95);stop-opacity:1"/><stop offset="1" style="stop-color:rgb(233,117,125);stop-opacity:1"/></linearGradient>
        <linearGradient id="_Linear6" x1="0" y1="0" x2="1" y2="0" gradientUnits="userSpaceOnUse" gradientTransform="matrix(1,0,0,-1,0,-0.0050468)"><stop offset="0" style="stop-color:rgb(250,210,95);stop-opacity:1"/><stop offset="1" style="stop-color:rgb(228,93,133);stop-opacity:1"/></linearGradient>
        <linearGradient id="_Linear7" x1="0" y1="0" x2="1" y2="0" gradientUnits="userSpaceOnUse" gradientTransform="matrix(1,0,0,-1,0,-0.00506362)"><stop offset="0" style="stop-color:rgb(241,163,110);stop-opacity:1"/><stop offset="1" style="stop-color:rgb(224,70,140);stop-opacity:1"/></linearGradient>
        <linearGradient id="_Linear8" x1="0" y1="0" x2="1" y2="0" gradientUnits="userSpaceOnUse" gradientTransform="matrix(1,0,0,-1,1.77636e-15,-0.00506712)"><stop offset="0" style="stop-color:rgb(254,233,88);stop-opacity:1"/><stop offset="1" style="stop-color:rgb(233,117,125);stop-opacity:1"/></linearGradient>
    </defs>
</svg>