<svg width="32" height="32" viewBox="0 0 32 32" fill="none" xmlns="http://www.w3.org/2000/svg">
<path d="M12.5751 6.15132e-06C11.516 -0.00104853 10.4611 0.133524 9.43568 0.400483V7.18248C10.3864 6.61592 11.4703 6.31536 12.5751 6.31188C13.8187 6.31188 15.0343 6.68308 16.0683 7.37855C17.1023 8.07402 17.9082 9.06252 18.3841 10.219C18.86 11.3756 18.9845 12.6482 18.7419 13.8759C18.4993 15.1037 17.9004 16.2315 17.0211 17.1166C16.1418 18.0018 15.0214 18.6046 13.8018 18.8488C12.5821 19.093 11.3179 18.9677 10.169 18.4887C9.02008 18.0096 8.0381 17.1984 7.34721 16.1575C6.65633 15.1167 6.28757 13.893 6.28757 12.6412V0.130597H0V12.6586C0 15.1622 0.737519 17.6096 2.11929 19.6913C3.50107 21.773 5.46503 23.3955 7.76284 24.3536C10.0606 25.3117 12.5891 25.5623 15.0284 25.0739C17.4678 24.5855 19.7084 23.3799 21.4671 21.6095C23.2258 19.8392 24.4234 17.5837 24.9086 15.1281C25.3939 12.6726 25.1448 10.1274 24.193 7.81435C23.2413 5.5013 21.6295 3.5243 19.5615 2.13336C17.4935 0.742418 15.0623 6.15132e-06 12.5751 6.15132e-06V6.15132e-06Z" fill="#9FA7F4"/>
<path d="M19.3989 6.69494C16.6415 6.70156 13.9626 7.62035 11.7748 9.30986C9.58697 10.9994 8.01146 13.3659 7.29081 16.0452C8.12198 17.2897 9.33807 18.2231 10.7503 18.7006C11.5308 18.9567 12.3528 19.0601 13.1719 19.0053C13.2887 17.3798 14.0238 15.8623 15.2242 14.7688C16.4247 13.6753 17.9979 13.09 19.6162 13.1349C21.2346 13.1798 22.7734 13.8513 23.9122 15.0097C25.051 16.1681 25.702 17.724 25.7297 19.3535V31.8815H32V19.3535C32 17.689 31.6739 16.0408 31.0403 14.5032C30.4067 12.9657 29.4781 11.5691 28.3077 10.3933C27.1372 9.21751 25.7479 8.28563 24.2192 7.65101C22.6905 7.0164 21.0525 6.69151 19.3989 6.69494V6.69494Z" fill="#6E76F2"/>
<path d="M16.1384 24.7513C13.4242 25.608 10.4971 25.4754 7.87027 24.3769C9.06453 27.1462 11.2021 29.3951 13.8977 30.7184C16.5934 32.0416 19.6699 32.3522 22.573 31.5942V24.8296C21.6171 25.3915 20.5317 25.6916 19.4249 25.7002C18.2631 25.6974 17.125 25.3688 16.1384 24.7513V24.7513Z" fill="#6E76F2"/>
</svg>
