<svg width="179" height="179" viewBox="0 0 179 179" fill="none" xmlns="http://www.w3.org/2000/svg">
<path d="M171.9 62.2H21.2C17.4 62.2 14.4 65.3 14.4 69C14.4 72.7 17.5 75.8 21.2 75.8H171.8C175.6 75.8 178.6 72.7 178.6 69C178.6 65.3 175.6 62.2 171.9 62.2Z" fill="#A42636"/>
<path d="M107.3 100.6H6.8C3 100.6 0 103.7 0 107.4C0 111.1 3.1 114.2 6.8 114.2H107.2C111 114.2 114 111.1 114 107.4C114 103.7 111 100.6 107.3 100.6Z" fill="#293A5D"/>
<path d="M162.1 138.9H61.6C57.8 138.9 54.8 142 54.8 145.7C54.8 149.5 57.9 152.5 61.6 152.5H162C165.8 152.5 168.8 149.4 168.8 145.7C168.9 142 165.8 138.9 162.1 138.9Z" fill="#293A5D"/>
<path d="M130.5 23.8H57.3C53.5 23.8 50.5 26.9 50.5 30.6C50.5 34.3 53.6 37.4 57.3 37.4H130.5C134.3 37.4 137.3 34.3 137.3 30.6C137.3 26.9 134.3 23.8 130.5 23.8Z" fill="#293A5D"/>
</svg>
