<?xml version="1.0" encoding="UTF-8"?>
<!--Generator: Adobe Illustrator 18.1.1, SVG Export Plug-In . SVG Version: 6.00 Build 0)-->
<svg xmlns="http://www.w3.org/2000/svg" xmlns:xlink="http://www.w3.org/1999/xlink" id="Layer_1" width="512px" height="512px" x="0px" y="0px" enable-background="new 0 0 512 512" version="1.1" viewBox="0 0 512 512" xml:space="preserve"><linearGradient id="SVGID_1_" x1="0" x2="512" y1="256" y2="256" gradientUnits="userSpaceOnUse"><stop offset="0.7455" style="stop-color:#D71F29"/><stop offset="1" style="stop-color:#D71F29"/></linearGradient><path fill="url(#SVGID_1_)" d="M512,472c0,22.1-17.9,40-40,40H40c-22.1,0-40-17.9-40-40V40C0,17.9,17.9,0,40,0h432  c22.1,0,40,17.9,40,40V472z"/><path fill="#FFFFFF" d="M358,148.3c-34.4,75.1-114.7,152-179.4,171.5c-64.8,19.6-89.2-25.6-54.4-100.9l-34.3,10.4  c-53.1,115-16,184.1,83,154.1c98.7-30,221.3-147.3,273.6-261.8h0L358,148.3z"/><path fill="#FFFFFF" d="M139.6,214.2c-17.7,38.4-5.3,61.4,27.7,51.5c33-10,74-49.2,91.6-87.5L139.6,214.2z"/></svg>