<svg width="32" height="32" viewBox="0 0 32 32" fill="none" xmlns="http://www.w3.org/2000/svg">
<path fill-rule="evenodd" clip-rule="evenodd" d="M14.7505 25.8286C13.9886 25.8286 13.1962 25.8134 12.4191 25.7677C11.6876 25.7219 10.8495 25.6458 9.88953 25.5391V7.17718C10.4229 7.10099 11.0324 7.0248 11.7029 6.97908C12.4191 6.93337 13.3181 6.90289 14.4 6.90289C15.3295 6.90289 16.2286 6.97908 17.0514 7.13146C17.8743 7.28385 18.6057 7.54289 19.2152 7.90861C19.8248 8.27432 20.3124 8.76194 20.6629 9.35623C21.0133 9.95051 21.1962 10.7124 21.1962 11.6267C21.1962 12.16 21.12 12.6629 20.9524 13.12C20.7848 13.5772 20.5714 13.9886 20.3124 14.3238C20.0381 14.6743 19.7333 14.9486 19.4133 15.1772C19.0781 15.4058 18.7429 15.5429 18.3924 15.5886V15.7715C18.7733 15.8172 19.2152 15.9391 19.6876 16.1219C20.16 16.3048 20.6019 16.5791 20.9981 16.9448C21.3943 17.3105 21.7295 17.7677 22.0038 18.3467C22.2781 18.9105 22.4 19.6115 22.4 20.4191C22.4 21.5162 22.1867 22.4153 21.7752 23.1162C21.3638 23.8172 20.8 24.3658 20.1143 24.7619C19.4133 25.1581 18.6057 25.4477 17.6762 25.6C16.7467 25.7524 15.7562 25.8286 14.7505 25.8286ZM13.4095 22.8724L13.4857 22.8877C13.7295 22.9181 14.0191 22.9486 14.3238 22.9638C14.6286 22.9791 14.9181 22.9943 15.1924 22.9943C15.5581 22.9943 15.9391 22.9638 16.3352 22.8877C16.7467 22.8115 17.1276 22.6743 17.4781 22.4762C17.8286 22.2781 18.1333 21.9886 18.3619 21.6229C18.5905 21.2572 18.7124 20.7848 18.7124 20.1905C18.7124 19.6419 18.621 19.1848 18.4533 18.8191C18.2705 18.4534 18.0114 18.1486 17.6914 17.9353C17.3562 17.7067 16.9752 17.5543 16.5181 17.4781C16.0762 17.3867 15.5886 17.341 15.04 17.341H13.4095V22.8724ZM14.72 9.49337C14.2324 9.49337 13.821 9.52385 13.501 9.56956L13.4095 9.5848V14.7048H14.6438C15.0705 14.7048 15.4819 14.6591 15.8629 14.5829C16.2438 14.5067 16.5791 14.3543 16.8686 14.1562C17.1581 13.9429 17.3867 13.6686 17.5391 13.3181C17.7067 12.9677 17.7829 12.5258 17.7829 12.0077C17.7829 11.5048 17.6914 11.0781 17.4933 10.7429C17.3105 10.4229 17.0667 10.1486 16.7619 9.96575C16.4724 9.78289 16.1371 9.66099 15.7714 9.60004C15.421 9.52385 15.0705 9.49337 14.72 9.49337" fill="#343333"/>
<path d="M5.74481 3.61145H24.2591V5.1505V5.19621V6.73526H22.3848L25.9962 10.3619L29.6229 6.73526H27.7334V5.1505V0.152405H2.28577V31.7105H27.7334V28.2515H5.74481V3.61145Z" fill="#39C5EB"/>
</svg>
