<svg width="32" height="32" viewBox="0 0 32 32" fill="none" xmlns="http://www.w3.org/2000/svg">
<g clip-path="url(#clip0)">
<path d="M14.4582 18.3273C14.72 15.8255 16.2909 13.7891 18.1236 13.7891C19.9564 13.7891 20.9455 15.8255 20.6836 18.3273C20.4218 20.8291 18.9091 22.8945 17.1927 22.8945C15.4764 22.8945 14.08 21.3236 14.4582 18.3273ZM16 29.6727C13.9887 29.6756 12.0016 29.2337 10.181 28.3788C8.36041 27.5238 6.75138 26.2769 5.4691 24.7273C7.73819 25.4545 10.2691 24.8145 12.2473 22.8655C12.4562 22.6559 12.6506 22.4323 12.8291 22.1964C13.7309 24.1455 15.4764 25.1345 17.2218 25.1345C20.1891 25.1345 22.6909 22.08 22.9818 18.2982C23.2727 14.5164 21.1491 11.52 18.3273 11.52C17.3034 11.5058 16.2958 11.7778 15.4182 12.3055L16.2909 7.21455C16.3339 7.01319 16.3328 6.8049 16.2876 6.60403C16.2424 6.40315 16.1542 6.21445 16.0291 6.05091C15.7673 5.64364 15.5346 5.46909 15.1855 5.46909H11.1127C10.9961 5.47517 10.8854 5.52231 10.8002 5.60218C10.715 5.68204 10.6609 5.78948 10.6473 5.90545C10.5391 6.3849 10.4613 6.87072 10.4146 7.36C10.3855 7.68 10.6182 7.79636 10.88 7.79636H13.8473C13.3818 10.7055 12.4509 16.3491 12.1891 17.7745C11.9146 19.1238 11.2583 20.3658 10.2982 21.3527C8.6691 22.9818 5.67273 23.36 3.89819 21.5855C3.28728 20.9455 2.32728 19.3745 2.32728 16C2.32728 13.2958 3.12917 10.6523 4.63155 8.40384C6.13393 6.15537 8.26932 4.4029 10.7677 3.36805C13.266 2.33319 16.0152 2.06243 18.6674 2.58999C21.3197 3.11756 23.7559 4.41976 25.6681 6.33192C27.5803 8.24409 28.8825 10.6803 29.41 13.3326C29.9376 15.9848 29.6668 18.734 28.632 21.2323C27.5971 23.7307 25.8446 25.8661 23.5962 27.3685C21.3477 28.8708 18.7042 29.6727 16 29.6727V29.6727ZM16 0C12.8355 0 9.74207 0.938384 7.11088 2.69649C4.4797 4.45459 2.42894 6.95345 1.21793 9.87707C0.00693248 12.8007 -0.309921 16.0177 0.307443 19.1214C0.924806 22.2251 2.44866 25.0761 4.6863 27.3137C6.92394 29.5514 9.77487 31.0752 12.8786 31.6926C15.9823 32.3099 19.1993 31.9931 22.1229 30.7821C25.0466 29.5711 27.5454 27.5203 29.3035 24.8891C31.0616 22.2579 32 19.1645 32 16C32 11.7565 30.3143 7.68687 27.3137 4.68629C24.3131 1.68571 20.2435 0 16 0" fill="#212124"/>
</g>
<defs>
<clipPath id="clip0">
<rect width="32" height="32" fill="white"/>
</clipPath>
</defs>
</svg>
