<svg width="32" height="32" viewBox="0 0 32 32" fill="none" xmlns="http://www.w3.org/2000/svg">
<g clip-path="url(#clip0_1745:65)">
<path d="M16.014 -0.0136719C13.911 -0.013672 11.8286 0.400543 9.88571 1.20532C7.9428 2.0101 6.17743 3.18968 4.69039 4.67672C3.20336 6.16376 2.02377 7.92913 1.21899 9.87204C0.414214 11.815 -1.2161e-07 13.8973 0 16.0003C0 18.1033 0.414215 20.1857 1.21899 22.1286C2.02377 24.0715 3.20336 25.8369 4.69039 27.324C6.17743 28.811 7.9428 29.9906 9.88571 30.7954C11.8286 31.6001 13.911 32.0143 16.014 32.0143C18.117 32.0143 20.1994 31.6001 22.1423 30.7954C24.0852 29.9906 25.8506 28.811 27.3376 27.324C28.8247 25.8369 30.0042 24.0715 30.809 22.1286C31.6138 20.1857 32.028 18.1033 32.028 16.0003C32.028 13.8973 31.6138 11.815 30.809 9.87204C30.0042 7.92913 28.8247 6.16376 27.3376 4.67672C25.8506 3.18968 24.0852 2.0101 22.1423 1.20532C20.1994 0.400543 18.117 -0.0136719 16.014 -0.0136719V-0.0136719ZM4.2261 10.874H15.4166C15.6269 10.874 15.627 10.8743 15.8383 11.0844L20.9093 16.1259L15.8383 21.1675C15.627 21.3775 15.6269 21.3773 15.4197 21.3773H4.22145C4.00567 21.3773 4.00544 21.3775 4.00544 21.1675V11.0844C4.00544 10.8743 4.00526 10.874 4.2261 10.874ZM19.8531 10.874H23.8683C24.0786 10.874 24.0787 10.8743 24.29 11.0844L29.3615 16.1259L24.29 21.1675C24.0787 21.3775 24.0791 21.3773 23.8719 21.3773H19.8531L25.1354 16.1259L19.8531 10.874Z" fill="#333333"/>
</g>
<defs>
<clipPath id="clip0_1745:65">
<rect width="32" height="32" fill="white"/>
</clipPath>
</defs>
</svg>
