<svg width="39" height="39" viewBox="0 0 39 39" fill="none" xmlns="http://www.w3.org/2000/svg">
<path d="M19.4581 0C14.1851 0 10.422 1.56911 10.422 3.1563C10.422 3.78177 10.8399 4.09994 11.5231 4.28071C13.0022 4.67299 23.9735 7.57078 24.6967 7.79313C25.5689 8.06067 29.9661 9.19774 29.9752 13.6194L29.9625 13.6086C29.9625 13.6086 8.73759 7.8799 7.24399 7.5527C6.21736 7.32854 5.42876 7.5292 4.89273 8.06248C3.59355 9.35501 2 15.3115 2 19.5524C2 30.8417 8.9302 39 19.4472 39C24.7203 39 28.4834 37.4309 28.4834 35.8437C28.4834 35.2182 28.0655 34.9001 27.3823 34.7193C25.9032 34.327 14.9428 31.3949 14.2087 31.2069C13.4746 31.0207 8.92838 29.8005 8.92838 25.3661L31.6596 31.4473C32.6862 31.6715 33.4748 31.4708 34.0108 30.9375C35.3118 29.6432 36.9054 23.6867 36.9054 19.4476C36.9054 8.15829 29.9752 0 19.4581 0ZM14.2087 20.3189C13.5291 20.1417 8.9302 18.898 8.9302 14.4799C8.9302 14.4799 24.1915 18.5546 24.7203 18.6883C25.2491 18.8221 29.9752 20.1345 29.9752 24.5219C29.9752 24.5201 14.8883 20.4961 14.2087 20.3189Z" fill="#5156EA"/>
</svg>
