<svg id="Livello_1_copia" data-name="Livello 1 copia" xmlns="http://www.w3.org/2000/svg" viewBox="0 0 91.99 142.36"><defs><style>.cls-1{fill:#cf202f;}.cls-2{fill:#fff;}</style></defs><title>logo_BRT</title><polygon class="cls-1" points="91.99 0 91.99 142.35 0 142.35 0 0 91.99 0 91.99 0"/><path class="cls-2" d="M37.69,85.11A3.17,3.17,0,0,0,41,82.32H39.41a1.64,1.64,0,0,1-1.69,1.42c-1.35,0-1.89-1.22-1.89-2.58,0-2.15,1.12-2.65,1.89-2.65a1.55,1.55,0,0,1,1.69,1.31H41a3,3,0,0,0-3.3-2.68c-2,0-3.5,1.35-3.5,4s1.46,4,3.49,4" transform="translate(-16.65 -6.78)"/><path class="cls-2" d="M48.22,81.12c0,2.12-1.21,2.65-2.07,2.65s-2.07-.53-2.07-2.65,1.21-2.64,2.07-2.64,2.07.52,2.07,2.64m-5.73,0c0,3.56,2.66,4,3.66,4s3.66-.43,3.66-4-2.65-4-3.66-4-3.66.43-3.66,4" transform="translate(-16.65 -6.78)"/><path class="cls-2" d="M54.74,80.67H52.87v-2h2c.94,0,1.12.6,1.12,1,0,.75-.4,1-1.23,1m2.82-1.19a2.14,2.14,0,0,0-2.4-2.14H51.31v7.57h1.56V82h1.65c1.17,0,1.24.4,1.24,1.43a4.91,4.91,0,0,0,.17,1.53h1.76v-.2c-.34-.13-.34-.4-.34-1.51,0-1.41-.34-1.64-1-1.92a1.8,1.8,0,0,0,1.18-1.8" transform="translate(-16.65 -6.78)"/><path class="cls-2" d="M62.61,80.67H60.75v-2h2c.93,0,1.12.6,1.12,1,0,.75-.41,1-1.24,1m2.83-1.19A2.14,2.14,0,0,0,63,77.34H59.19v7.57h1.56V82h1.64c1.18,0,1.24.4,1.24,1.43a5.24,5.24,0,0,0,.17,1.53h1.77v-.2c-.34-.13-.34-.4-.34-1.51,0-1.41-.35-1.64-1-1.92a1.81,1.81,0,0,0,1.18-1.8" transform="translate(-16.65 -6.78)"/><polygon class="cls-2" points="52 70.56 50.41 70.56 50.41 78.14 52 78.14 52 70.56 52 70.56"/><polygon class="cls-2" points="59.1 71.9 59.1 70.56 53.5 70.56 53.5 78.13 59.28 78.13 59.28 76.79 55.06 76.79 55.06 74.83 58.77 74.83 58.77 73.49 55.06 73.49 55.06 71.9 59.1 71.9 59.1 71.9"/><path class="cls-2" d="M80.85,80.67H79v-2h2c.94,0,1.12.6,1.12,1,0,.75-.41,1-1.24,1m2.83-1.19a2.14,2.14,0,0,0-2.4-2.14H77.43v7.57H79V82h1.64c1.18,0,1.24.4,1.24,1.43A5.24,5.24,0,0,0,82,84.91h1.77v-.2c-.35-.13-.35-.4-.35-1.51,0-1.41-.33-1.64-1-1.92a1.81,1.81,0,0,0,1.18-1.8" transform="translate(-16.65 -6.78)"/><polygon class="cls-2" points="74.25 71.9 74.25 70.56 68.65 70.56 68.65 78.13 74.44 78.13 74.44 76.79 70.21 76.79 70.21 74.83 73.92 74.83 73.92 73.49 70.21 73.49 70.21 71.9 74.25 71.9 74.25 71.9"/><polygon class="cls-2" points="22.92 83.07 22.92 81.68 17.55 81.68 17.55 89.5 23.09 89.5 23.09 88.12 19.04 88.12 19.04 86.1 22.6 86.1 22.6 84.71 19.04 84.71 19.04 83.07 22.92 83.07 22.92 83.07"/><path class="cls-2" d="M44.05,95.14c-1.33,0-1.54-.83-1.55-1.26H41c0,1,.46,2.61,3.12,2.61.64,0,2.88-.21,2.88-2.56,0-1.41-.92-1.84-1.91-2.1l-1.78-.47c-.31-.08-.77-.21-.77-.82s.69-.93,1.27-.93c1.33,0,1.45.82,1.49,1.17H46.8A2.55,2.55,0,0,0,44,88.25c-2.37,0-2.81,1.54-2.81,2.41,0,1.72,1.14,2,2.32,2.3l.78.2c.77.19,1.32.35,1.32,1,0,.82-.8,1-1.52,1" transform="translate(-16.65 -6.78)"/><path class="cls-2" d="M52.41,90.89a1,1,0,0,1-1.14,1.22H49.86v-2.3h1.21c1,0,1.34.32,1.34,1.08m-4.07-2.43v7.82h1.52V93.46h1.75A2.34,2.34,0,0,0,53.94,91a2.22,2.22,0,0,0-2.27-2.5Z" transform="translate(-16.65 -6.78)"/><path class="cls-2" d="M58.52,91.9H56.73V89.81h1.9a1,1,0,0,1,1.07,1c0,.78-.39,1.07-1.18,1.07m2.7-1.23a2.13,2.13,0,0,0-2.29-2.21H55.24v7.82h1.49V93.22h1.58c1.12,0,1.18.41,1.18,1.48a5.54,5.54,0,0,0,.17,1.58h1.68v-.21c-.32-.13-.32-.41-.32-1.55,0-1.46-.33-1.7-.93-2a1.87,1.87,0,0,0,1.13-1.86" transform="translate(-16.65 -6.78)"/><polygon class="cls-2" points="51.36 83.07 51.36 81.68 45.99 81.68 45.99 89.5 51.53 89.5 51.53 88.12 47.49 88.12 47.49 86.1 51.04 86.1 51.04 84.71 47.49 84.71 47.49 83.07 51.36 83.07 51.36 83.07"/><path class="cls-2" d="M72.49,95.14c-1.33,0-1.53-.83-1.54-1.26H69.48c0,1,.46,2.61,3.12,2.61.64,0,2.88-.21,2.88-2.56,0-1.41-.92-1.84-1.91-2.1l-1.78-.47c-.31-.08-.77-.21-.77-.82s.69-.93,1.27-.93c1.33,0,1.45.82,1.49,1.17h1.46a2.54,2.54,0,0,0-2.84-2.53c-2.37,0-2.8,1.54-2.8,2.41,0,1.72,1.13,2,2.31,2.3l.78.2c.78.19,1.33.35,1.33,1,0,.82-.81,1-1.53,1" transform="translate(-16.65 -6.78)"/><path class="cls-2" d="M79.79,95.14c-1.34,0-1.54-.83-1.55-1.26H76.78c0,1,.46,2.61,3.12,2.61.64,0,2.87-.21,2.87-2.56,0-1.41-.91-1.84-1.91-2.1l-1.77-.47c-.31-.08-.77-.21-.77-.82s.68-.93,1.26-.93c1.34,0,1.46.82,1.5,1.17h1.46a2.55,2.55,0,0,0-2.85-2.53c-2.36,0-2.8,1.54-2.8,2.41,0,1.72,1.14,2,2.32,2.3l.78.2c.77.19,1.32.35,1.32,1,0,.82-.8,1-1.52,1" transform="translate(-16.65 -6.78)"/><path class="cls-2" d="M87.58,95.1c-.82,0-2-.54-2-2.73s1.16-2.73,2-2.73,2,.54,2,2.73-1.16,2.73-2,2.73m0-6.85c-1,0-3.51.45-3.51,4.12s2.54,4.12,3.51,4.12,3.51-.45,3.51-4.12-2.54-4.12-3.51-4.12" transform="translate(-16.65 -6.78)"/><polygon class="cls-2" points="17.55 94.29 74.44 94.29 74.44 99.5 17.55 99.5 17.55 94.29 17.55 94.29"/><path class="cls-2" d="M91.09,72.55H34.2v-49H91.09v49Zm-54.87-2H89.07v-45H36.22v45Z" transform="translate(-16.65 -6.78)"/><path class="cls-2" d="M47.75,52v2.4c0,1.13-.68,1.06-.68,1.06H44.55V51.28H47a.65.65,0,0,1,.73.69m-3.2-10.44h2.52a.6.6,0,0,1,.68.57v2.73a.67.67,0,0,1-.73.73H44.55v-4Zm2.84-5.78H40V60.23h8.83a4.32,4.32,0,0,0,3.79-4.38V51.32A3.28,3.28,0,0,0,49.28,48c3.14-.49,3.35-2.13,3.35-3.53V40.32a4.28,4.28,0,0,0-4-4.57Z" transform="translate(-16.65 -6.78)"/><polygon class="cls-2" points="54.96 34.34 59.51 34.34 59.51 53.62 64.21 53.62 64.21 34.14 68.65 34.14 68.65 29.12 54.96 29.12 54.96 34.34 54.96 34.34"/><path class="cls-2" d="M68.44,44.43V40.32a4.28,4.28,0,0,0-4-4.57H55.8V60.23h4.56V51.28h2.47a.65.65,0,0,1,.73.69v8.26h4.86v-8.9c0-3-3.15-3.42-3.53-3.36,3.13-.49,3.55-2.13,3.55-3.53Zm-4.88.4a.67.67,0,0,1-.73.73H60.36v-4h2.52a.6.6,0,0,1,.68.57v2.73Z" transform="translate(-16.65 -6.78)"/></svg>