<svg width="32" height="32" viewBox="0 0 32 32" fill="none" xmlns="http://www.w3.org/2000/svg">
<path d="M5.70791 24.0639L6.86258 26.8888C7.23866 27.6718 7.81184 28.3436 8.52574 28.8385C9.90136 29.7587 11.6034 29.8956 13.1856 29.2489L25.9881 24.0163C30.2304 22.2824 32.2535 17.4077 30.505 13.1297C28.7565 8.85169 23.9062 6.79767 19.6639 8.53161L17.7572 9.31088L17.0206 7.50868C15.285 3.26228 10.4134 1.24262 6.13542 2.99119C1.8574 4.73968 -0.206294 9.59393 1.52933 13.8403L5.70791 24.0639ZM8.7198 23.8532L4.1838 12.7554C3.63203 11.4054 3.63912 9.89138 4.20361 8.54654C4.76803 7.2017 5.84361 6.13618 7.19371 5.58433C8.54373 5.03256 10.0577 5.03965 11.4025 5.60414C12.7474 6.16856 14.2607 7.06113 14.8124 8.41123L15.5923 10.3193L8.27119 13.3116L10.322 18.3292C10.5779 18.9552 10.9545 19.5247 11.4306 20.0053C11.9065 20.4857 12.4726 20.8678 13.0962 21.1295C13.7198 21.3913 14.3889 21.5276 15.0652 21.5308C15.7415 21.534 16.4118 21.4039 17.038 21.148C17.664 20.8921 18.2336 20.5155 18.714 20.0394C19.1945 19.5635 19.5765 18.9975 19.8383 18.3738C20.1 17.7502 20.2364 17.0812 20.2396 16.4048C20.2427 15.7285 20.1126 15.0582 19.8568 14.4321L18.8454 11.9577L20.7521 11.1784C22.102 10.6266 23.6157 10.6337 24.9604 11.1981C26.305 11.7625 27.3704 12.8379 27.9222 14.1878C28.4739 15.5377 28.4668 17.0515 27.9024 18.3961C27.338 19.7408 26.2626 20.8061 24.9127 21.3578L13.2595 26.1208C12.2877 26.518 11.31 27.1326 10.2775 26.5535C9.95134 26.3585 9.68201 26.0813 9.49649 25.7497L8.7198 23.8532ZM17.388 12.3788L18.3627 14.7636C18.5752 15.3238 17.4885 18.5297 17.2496 19.0792C17.0106 19.6287 16.4195 18.8868 15.8649 19.1135C15.3102 19.3402 14.6442 18.4493 14.0889 18.2245C13.5334 17.9996 13.0879 17.5667 12.8471 17.0179L11.933 14.7814L17.388 12.3788Z" fill="url(#paint0_linear_3184_47)"/>
<path d="M18.2468 9.76124L18.264 9.80322L18.3951 9.74966L18.3779 9.70768L20.1308 8.99126C24.14 7.35256 28.7247 9.29351 30.3777 13.3377C32.0307 17.382 30.1177 21.9893 26.1086 23.628L13.8989 28.6184C12.4104 29.2268 10.8123 29.0972 9.52139 28.2339C8.85137 27.7694 8.31339 27.139 7.9601 26.4043L6.85968 23.7121L2.87454 13.9619C1.23431 9.94882 3.18433 5.36033 7.2286 3.7073C11.2729 2.05435 15.8773 3.96383 17.5175 7.97694L18.2201 9.69572L18.2468 9.76124ZM9.33107 13.5231L15.8207 10.8707L15.8863 10.8439L15.8595 10.7783L15.1158 8.95865C14.5823 7.65366 13.5525 6.61404 12.2526 6.06844C10.9527 5.52284 9.48932 5.51599 8.18433 6.04932C6.87942 6.58273 5.83979 7.61259 5.29419 8.91248C4.74859 10.2124 4.74174 11.6758 5.27507 12.9807L9.60102 23.5647L10.3418 25.3735L10.3435 25.3775L10.3455 25.3812C10.5285 25.7084 10.7941 25.9817 11.1158 26.174L11.1167 26.1746L11.1175 26.175C11.6306 26.4628 12.13 26.4525 12.614 26.3246C12.9501 26.2357 13.2855 26.0875 13.6133 25.9427C13.7514 25.8816 13.8881 25.8212 14.023 25.7661L25.1366 21.2237C26.4414 20.6904 27.4809 19.6606 28.0264 18.3609C28.5719 17.0612 28.5788 15.598 28.0455 14.2932C27.5122 12.9884 26.4825 11.949 25.1827 11.4035C23.883 10.8579 22.4198 10.8511 21.1151 11.3843L19.2966 12.1276L19.2311 12.1544L19.2579 12.2199L20.2224 14.5798C20.463 15.1683 20.5852 15.7983 20.5822 16.4341C20.5792 17.0698 20.4511 17.6987 20.2051 18.2849C19.959 18.871 19.5999 19.4031 19.1483 19.8505C18.6966 20.2979 18.1613 20.652 17.5728 20.8924C16.9843 21.133 16.3543 21.2553 15.7186 21.2523C15.0828 21.2493 14.454 21.1211 13.8678 20.8751C13.2815 20.6291 12.7496 20.27 12.3022 19.8183C11.8547 19.3667 11.5007 18.8313 11.2601 18.2429L9.33107 13.5231ZM16.8516 13.2019L16.8248 13.1363L16.7593 13.1631L12.7042 14.8205L12.6387 14.8473L12.6655 14.9129L13.5373 17.046L13.5376 17.0468L13.538 17.0476C13.775 17.5878 14.2137 18.014 14.7605 18.2355C15.3073 18.4569 15.919 18.4558 16.465 18.2326C17.0111 18.0094 17.4484 17.5817 17.6836 17.0407C17.9188 16.4997 17.9334 15.8883 17.7241 15.3366L17.7238 15.3358L17.7235 15.335L16.8516 13.2019Z" fill="url(#paint1_linear_3184_47)" stroke="url(#paint2_linear_3184_47)" stroke-width="0.5"/>
<path d="M14.7884 11.3042L15.8559 10.8679L16.782 13.1338L15.7146 13.5701L14.7884 11.3042Z" fill="#134DDE" stroke="url(#paint3_linear_3184_47)" stroke-width="1.85892"/>
<defs>
<linearGradient id="paint0_linear_3184_47" x1="-0.434103" y1="4.60163" x2="10.1203" y2="30.0958" gradientUnits="userSpaceOnUse">
<stop stop-color="#1B59F3"/>
<stop offset="0.255208" stop-color="#82A0EC" stop-opacity="0.5"/>
<stop offset="0.434686" stop-color="#0083FF" stop-opacity="0.688415"/>
<stop offset="0.792767" stop-color="#0053A3"/>
<stop offset="1" stop-color="#145CA2"/>
</linearGradient>
<linearGradient id="paint1_linear_3184_47" x1="4.68079" y1="18.5681" x2="28.6006" y2="8.79149" gradientUnits="userSpaceOnUse">
<stop stop-color="#134DDE"/>
<stop offset="1" stop-color="#137BDE"/>
</linearGradient>
<linearGradient id="paint2_linear_3184_47" x1="-4.58481" y1="7.723" x2="15.6066" y2="17.7699" gradientUnits="userSpaceOnUse">
<stop stop-color="white"/>
<stop offset="1" stop-color="white" stop-opacity="0"/>
</linearGradient>
<linearGradient id="paint3_linear_3184_47" x1="6.11079" y1="9.93733" x2="15.1878" y2="14.0368" gradientUnits="userSpaceOnUse">
<stop stop-color="white"/>
<stop offset="1" stop-color="white" stop-opacity="0"/>
</linearGradient>
</defs>
</svg>
