<svg width="245" height="246" viewBox="0 0 245 246" fill="none" xmlns="http://www.w3.org/2000/svg">
<path d="M127.6 84.2C111.4 84.2 94.5 90.8 84.5 100.6L82.8 102.2L80.8 104.4V0.599976H48V242H68H77.8H80.8V224.8L82.8 227.2L84.5 228.8C94.4 238.7 111 245.2 127.6 245.2C170.7 245.2 207.1 212.3 207.1 164.7C207.1 117.1 170.6 84.2 127.6 84.2ZM125.9 215.7C97.8 215.7 77.9 192.7 77.9 164.8C77.9 136.9 97.8 113.8 125.9 113.8C157.4 113.8 173.9 136.8 173.9 164.8C173.9 192.8 157.4 215.7 125.9 215.7Z" fill="#41CDA5"/>
</svg>
