<svg width="32" height="32" viewBox="0 0 32 32" fill="none" xmlns="http://www.w3.org/2000/svg">
<g clip-path="url(#clip0_2212_34)">
<path d="M31.625 16.0044C31.6238 20.1477 29.9771 24.1208 27.047 27.0501C24.1169 29.9794 20.1432 31.625 16 31.625C11.8568 31.625 7.88315 29.9794 4.95302 27.0501C2.02289 24.1208 0.376173 20.1477 0.375001 16.0044C0.37442 13.9521 0.778144 11.9199 1.56311 10.0236C2.34808 8.12741 3.49892 6.4044 4.94989 4.95302C6.40087 3.50163 8.12355 2.35031 10.0196 1.5648C11.9156 0.779298 13.9477 0.375 16 0.375C18.0523 0.375 20.0844 0.779298 21.9804 1.5648C23.8765 2.35031 25.5991 3.50163 27.0501 4.95302C28.5011 6.4044 29.6519 8.12741 30.4369 10.0236C31.2219 11.9199 31.6256 13.9521 31.625 16.0044V16.0044Z" fill="white"/>
<path d="M14.6569 0.0204385C10.4698 0.452251 6.80835 2.26119 4.15713 5.20802C1.90886 7.6997 0.612447 10.4948 0.104395 13.9026C-0.0357569 14.8713 -0.0357569 17.1179 0.110235 18.104C0.618287 21.6169 2.08989 24.6337 4.48999 27.1079C8.68288 31.426 14.7386 33.0249 20.5316 31.3443C23.1478 30.5858 25.542 29.1328 27.51 27.1079C29.9218 24.6221 31.4051 21.5702 31.8956 18.0749C32.0358 17.0654 32.0358 14.8771 31.8898 13.9026C31.3584 10.2556 29.84 7.19202 27.329 4.68284C24.8471 2.20284 21.8222 0.685663 18.2483 0.131309C17.6585 0.0379444 15.2116 -0.0379145 14.6569 0.0204385ZM18.2249 0.854887C24.2515 1.75936 29.1626 6.11249 30.7744 11.977C32.0942 16.7853 30.9321 22.0079 27.691 25.865C25.1917 28.8293 21.536 30.7725 17.6526 31.1985C16.9227 31.2802 15.0773 31.2802 14.3474 31.1985C13.5298 31.1109 12.3736 30.8775 11.6144 30.6441C4.18633 28.3975 -0.368619 21.0567 0.910271 13.4183C1.1497 11.9653 1.58183 10.6524 2.27676 9.23438C4.08706 5.5523 7.29888 2.7572 11.1998 1.47343C12.4436 1.06496 13.3838 0.878228 14.9489 0.720675C15.5095 0.662322 17.495 0.744016 18.2249 0.854887Z" fill="#D84800"/>
<path d="M15.0071 2.31978C9.4828 2.72826 4.71762 6.42784 2.98324 11.6563C2.2124 13.9962 2.08393 16.6104 2.63286 19.0554C3.72488 23.9337 7.60243 27.9601 12.4318 29.2264C13.7925 29.5823 14.3998 29.6523 15.9999 29.6523C17.6 29.6523 18.2073 29.5823 19.5679 29.2264C22.7681 28.3861 25.6295 26.3087 27.4924 23.4728C28.6194 21.7572 29.3319 19.8024 29.6122 17.6666C29.729 16.7563 29.6998 14.6731 29.5538 13.8153C29.3085 12.409 28.9231 11.2011 28.2982 9.93485C25.8397 4.934 20.5607 1.91131 15.0071 2.31978ZM19.7957 5.18492C21.3724 5.46501 22.7856 6.70793 23.3462 8.31848C23.498 8.76196 23.5272 8.92535 23.5506 9.61391C23.5739 10.285 23.5564 10.4834 23.4513 10.8977C23.0893 12.3565 22.0673 13.5644 20.7242 14.1246C20.3563 14.2822 19.9417 14.4047 19.9417 14.3638C19.9417 14.3522 20.0293 14.1596 20.1402 13.9437C20.9461 12.3448 20.9461 10.3842 20.1402 8.79114C19.4978 7.50737 18.1898 6.38699 16.8466 5.97268C16.6714 5.91433 16.4846 5.85598 16.4379 5.83847C16.3152 5.79762 16.8875 5.51169 17.4598 5.32497C18.1956 5.08572 18.9489 5.03904 19.7957 5.18492ZM16.2335 6.84798C18.0438 7.33814 19.3927 8.79114 19.7081 10.5884C19.8132 11.1778 19.7548 12.2106 19.5913 12.7358C19.1533 14.1129 18.3066 15.0758 17.0043 15.6826C16.3678 15.9802 15.8247 16.0911 15.048 16.0911C12.9749 16.0911 11.2522 14.8248 10.5807 12.8058C10.4171 12.3157 10.3996 12.199 10.3996 11.452C10.3938 10.7635 10.4171 10.5651 10.5281 10.1683C11.0478 8.38266 12.4844 7.08723 14.3239 6.75461C14.7152 6.67876 15.8247 6.73711 16.2335 6.84798ZM23.5331 14.8657C25.2908 15.42 26.3595 16.7622 26.8325 19.0088C26.9551 19.6098 27.1069 21.2728 27.0486 21.4246C27.0135 21.5063 26.8734 21.5179 25.9857 21.5179C25.4251 21.5179 24.9638 21.5004 24.9638 21.4829C24.9638 21.2378 24.7477 20.1058 24.6134 19.6565C24.0353 17.7075 22.7739 16.237 21.3023 15.7993C21.1622 15.7585 21.0512 15.7001 21.0512 15.6768C21.0512 15.6476 21.2381 15.4142 21.4717 15.1516L21.8921 14.6731L22.5111 14.7081C22.9024 14.7256 23.2703 14.784 23.5331 14.8657ZM13.5881 17.8417L15.0947 19.3297L15.632 18.8045C15.9298 18.5186 16.7006 17.7658 17.343 17.1356L18.5109 15.9861L18.9489 16.0386C20.1577 16.1903 21.3081 16.7155 22.1432 17.5091C23.136 18.4486 23.7024 19.6156 23.9418 21.197C24.0294 21.7805 24.0645 23.4961 23.9944 23.8462L23.9594 24.0271H15.0889C8.81708 24.0271 6.21258 24.0096 6.18922 23.9629C6.10747 23.8404 6.08411 22.2298 6.15419 21.588C6.49873 18.3143 8.27983 16.3595 11.2113 16.0444C11.7778 15.9861 11.5325 15.8052 13.5881 17.8417Z" fill="#D84800"/>
</g>
<defs>
<clipPath id="clip0_2212_34">
<rect width="32" height="32" fill="white"/>
</clipPath>
</defs>
</svg>
