<svg width="577" height="576" viewBox="0 0 577 576" fill="none" xmlns="http://www.w3.org/2000/svg">
<path d="M575.1 291.4C549.167 336.207 523.263 381.033 497.39 425.88C475.797 463.293 454.193 500.667 432.58 538H144.37C143.87 537.21 143.37 536.44 142.89 535.64C95.95 454.34 48.9866 373.047 1.99997 291.76C0.379974 288.96 0.419974 286.99 1.99997 284.25C28.5133 238.543 54.9566 192.793 81.33 147C102.33 110.653 123.33 74.32 144.33 38H432.58C432.94 38.56 433.32 39.1 433.65 39.67C480.85 121.443 528.073 203.2 575.32 284.94C576.79 287.49 576.39 289.17 575.1 291.4Z" fill="#F26A21"/>
<path d="M347.46 292.78C351.953 302.887 354.223 314.777 354.27 328.45C354.21 339.14 352.79 348.54 349.91 356.83C347.408 364.486 343.422 371.574 338.18 377.69C333.463 383.178 327.621 387.588 321.05 390.62C310.63 395.585 298.784 396.682 287.629 393.716C276.475 390.751 266.738 383.914 260.16 374.43C255.632 367.988 252.249 360.812 250.16 353.22C247.96 345.287 246.85 337.092 246.86 328.86C246.93 316.98 248.4 306.73 251.35 298.16C254.3 289.59 258.35 282.57 263.35 277.09C268.154 271.814 274.047 267.645 280.62 264.87C287.018 262.283 293.859 260.968 300.76 261C310.707 260.882 320.453 263.798 328.7 269.36C336.713 274.933 342.967 282.74 347.46 292.78ZM408.2 327.61C408.14 310.9 405.96 295.66 401.53 281.97C397.518 268.98 391.032 256.888 382.43 246.36C374.257 236.541 363.985 228.681 352.37 223.36C340.723 217.947 327.59 215.21 312.97 215.15C304.816 215.111 296.692 216.15 288.81 218.24C282.47 219.981 276.363 222.479 270.62 225.68C266.144 228.171 261.953 231.142 258.12 234.54C255.482 236.81 253.04 239.299 250.82 241.98C249.27 243.98 248.5 244.98 248.5 245.06H247.66C247.66 245 247.8 243.24 248.08 239.94C248.36 236.64 248.43 232.28 248.5 226.94V164.54C248.57 154.71 246.25 147.4 241.62 142.77C236.99 138.14 229.68 135.77 219.85 135.88H168.85V181.4H185.7C188.7 181.4 190.97 182.1 192.58 183.64C194.19 185.18 194.97 187.51 194.97 190.64V435.07H245.55V424.07C245.47 419.79 245.33 416.34 245.12 413.75C244.91 411.16 244.7 409.82 244.7 409.75H245.55C246.286 410.845 247.081 411.9 247.93 412.91C250.151 415.611 252.593 418.123 255.23 420.42C259.087 423.828 263.274 426.843 267.73 429.42C273.412 432.693 279.483 435.239 285.8 437C293.549 439.15 301.559 440.21 309.6 440.15C323.146 440.247 336.564 437.523 349 432.15C360.941 426.942 371.608 419.199 380.26 409.46C389.1 399.64 395.91 387.84 400.84 373.99C405.77 360.14 408.14 344.76 408.2 327.61Z" fill="white"/>
</svg>
