<svg width="32" height="32" viewBox="0 0 32 32" fill="none" xmlns="http://www.w3.org/2000/svg">
<path fill-rule="evenodd" clip-rule="evenodd" d="M20.7537 17.8714C20.7537 21.8033 20.7613 25.6571 20.7505 29.5107C20.7449 31.4697 18.7858 32.5562 17.0882 31.5596C16.2111 31.0446 15.9982 30.2243 16 29.2806C16.0079 24.8606 16.0034 20.4404 16.0034 16.0203C16.0034 11.5112 15.997 7.00204 16.0071 2.49302C16.0107 0.870888 16.9148 -0.0249343 18.4686 0.000528322C19.8301 0.0227859 20.7453 0.927155 20.7499 2.30552C20.7613 5.62795 20.7537 8.95056 20.7537 12.273C20.7538 12.596 20.7537 12.919 20.7537 13.3086H25.9383C25.9537 12.9802 25.9829 12.6393 25.9834 12.2984C25.987 9.00558 25.9745 5.71271 25.9911 2.42001C25.9989 0.866258 26.9143 -0.0140726 28.4349 0.000528322C29.8155 0.0137048 30.7262 0.894392 30.7316 2.27632C30.7444 5.53945 30.7358 8.80277 30.7358 12.0659C30.7358 17.8208 30.7369 23.5759 30.7353 29.331C30.7348 31.0001 29.9007 31.8911 28.3565 31.8844C26.8351 31.8778 25.9906 30.9659 25.9875 29.2963C25.9813 25.8551 25.9856 22.4139 25.9854 18.9729V17.8714H20.7537Z" fill="#222222"/>
<path fill-rule="evenodd" clip-rule="evenodd" d="M8.16607 13.0292C9.12632 12.9122 9.8347 12.3068 9.8839 11.3734C9.98318 9.49044 9.98639 7.59142 9.8388 5.71395C9.80012 5.22162 9.13933 4.52843 8.63007 4.3769C7.70154 4.10037 6.67267 4.15966 5.6634 4.07704V13.1724C6.53113 13.1268 7.35484 13.1282 8.16607 13.0292ZM5.66821 27.088C6.80778 27.0144 7.9035 27.0274 8.96785 26.851C9.9937 26.6809 10.7122 25.9623 10.763 24.9165C10.8516 23.0919 10.8643 21.2556 10.7584 19.433C10.6944 18.3329 9.95983 17.5699 8.83096 17.4166C7.81402 17.2786 6.77695 17.2879 5.66821 17.2279V27.088ZM12.3554 15.0564C14.9333 16.3427 15.7067 18.5327 15.6035 21.1881C15.5436 22.7257 15.6942 24.2935 15.445 25.7972C14.914 29.0007 12.3383 31.0938 9.07142 31.1597C7.11313 31.1992 5.15306 31.181 3.19406 31.1632C1.85288 31.1511 0.951277 30.2717 0.949495 28.9334C0.938265 20.0377 0.939512 11.1419 0.948425 2.24623C0.949495 1.04022 1.70957 0.048249 2.82329 0.03347C5.19192 0.00213139 7.58461 -0.0742565 9.92632 0.207613C12.8582 0.560351 14.6304 2.75227 14.7219 5.71378C14.7721 7.34303 14.7736 8.97638 14.7226 10.6056C14.6654 12.4332 13.7798 13.8713 12.3554 15.0564Z" fill="#222222"/>
</svg>
