<svg id="Layer_1" data-name="Layer 1" xmlns="http://www.w3.org/2000/svg" xmlns:xlink="http://www.w3.org/1999/xlink" viewBox="0 0 1000 1000"><defs><style>.cls-1{fill:url(#linear-gradient);}.cls-2{fill:url(#linear-gradient-2);}.cls-3{fill:url(#linear-gradient-3);}</style><linearGradient id="linear-gradient" x1="676.53" y1="771.58" x2="429.96" y2="622.15" gradientUnits="userSpaceOnUse"><stop offset="0" stop-color="#de7747"/><stop offset="1" stop-color="#bd3a27"/></linearGradient><linearGradient id="linear-gradient-2" x1="727.68" y1="225.46" x2="421.34" y2="377.38" gradientUnits="userSpaceOnUse"><stop offset="0" stop-color="#42b5cd"/><stop offset="1" stop-color="#237692"/></linearGradient><linearGradient id="linear-gradient-3" x1="673.11" y1="500" x2="255.54" y2="500" gradientUnits="userSpaceOnUse"><stop offset="0" stop-color="#385c42"/><stop offset="1" stop-color="#11201b"/></linearGradient></defs><path class="cls-1" d="M254.42,749,252,751.48c-17.76,18-5,48.52,20.3,48.52H590.12c161,0,227.25-205.91,97.6-300-.55.4-1.07.81-1.63,1.2L254.42,749"/><path class="cls-2" d="M254.42,251,686.09,498.8c.56.39,1.08.8,1.63,1.2,129.65-94.08,63.39-300-97.6-300H272.26c-25.3,0-38.06,30.5-20.3,48.52l2.46,2.5"/><path class="cls-3" d="M254.42,749,686.09,501.2c.56-.39,1.08-.8,1.63-1.2-.55-.4-1.07-.81-1.63-1.2L254.42,251a354.73,354.73,0,0,1,0,498Z"/></svg>
