<svg width="55" height="55" viewBox="0 0 55 55" fill="none" xmlns="http://www.w3.org/2000/svg">
<path d="M49.787 33.044C49.6837 28.9475 48.4076 24.9665 46.1099 21.5735C43.8122 18.1804 40.5895 15.5176 36.824 13.901L34.192 24.451C35.717 25.4211 36.974 26.7587 37.8476 28.3409C38.7213 29.9232 39.1835 31.6996 39.192 33.507V33.551C39.1861 36.264 38.1594 38.8754 36.316 40.8659C34.4726 42.8564 31.9476 44.0802 29.243 44.294L26.608 54.851C27.173 54.897 27.745 54.935 28.325 54.935L29.625 54.897C35.0434 54.5799 40.1392 52.2171 43.882 48.2864C47.6249 44.3557 49.7354 39.1504 49.787 33.723V33.044Z" fill="#00AEEF"/>
<path d="M22.626 42.657C21.0892 41.6841 19.8227 40.3392 18.9438 38.7468C18.0649 37.1543 17.602 35.3659 17.598 33.547V33.509C17.6128 30.7958 18.6473 28.1874 20.4961 26.2015C22.3449 24.2156 24.8728 22.9975 27.578 22.789L30.209 12.23C29.881 12.199 29.545 12.177 29.209 12.161L29.201 12.146H17.559V0H7V30.686V33.555C7.01009 37.7409 8.24595 41.8323 10.555 45.3238C12.864 48.8153 16.145 51.5541 19.993 53.202L22.626 42.657Z" fill="#003A57"/>
</svg>
