<svg width="32" height="32" viewBox="0 0 32 32" fill="none" xmlns="http://www.w3.org/2000/svg">
<path d="M16.8995 15.0397C15.7508 15.5314 14.4472 16.089 12.7577 16.089C12.0509 16.0875 11.3475 15.9906 10.6667 15.8007L11.8353 27.7977C11.8766 28.2992 12.105 28.7667 12.4752 29.1075C12.8453 29.4483 13.3301 29.6375 13.8332 29.6374C13.8332 29.6374 15.4901 29.7234 16.0429 29.7234C16.6379 29.7234 18.4221 29.6374 18.4221 29.6374C18.9251 29.6374 19.4098 29.4482 19.7799 29.1074C20.1499 28.7666 20.3783 28.2991 20.4196 27.7977L21.6712 14.5406C21.1119 14.3495 20.5474 14.2227 19.9111 14.2227C18.8106 14.2222 17.9239 14.6012 16.8995 15.0397Z" fill="#FFDD00"/>
<path d="M27.0721 8.5476L26.8961 7.66004C26.7382 6.86369 26.3799 6.11124 25.5624 5.82339C25.3004 5.7313 25.0031 5.69173 24.8022 5.50115C24.6013 5.31058 24.5419 5.01455 24.4954 4.74006C24.4094 4.23629 24.3285 3.73201 24.2403 3.2291C24.1641 2.7967 24.1039 2.31096 23.9056 1.91431C23.6475 1.38169 23.1118 1.07017 22.5792 0.864099C22.3063 0.762207 22.0278 0.676062 21.745 0.605967C20.4142 0.254932 19.0151 0.125815 17.6461 0.0522658C16.003 -0.0384009 14.3554 -0.0110738 12.7162 0.133993C11.496 0.245028 10.2109 0.379223 9.05145 0.801318C8.62768 0.955731 8.19096 1.14118 7.86872 1.4686C7.47334 1.87083 7.34428 2.49295 7.63299 2.99464C7.83819 3.35085 8.18583 3.60254 8.55454 3.76904C9.03479 3.98359 9.53633 4.14679 10.0509 4.25605C11.4836 4.5727 12.9674 4.69704 14.4311 4.74997C16.0533 4.81544 17.6781 4.76236 19.2927 4.59118C19.6919 4.5473 20.0904 4.49468 20.4883 4.43332C20.9568 4.36145 21.2575 3.74882 21.1194 3.322C20.9542 2.81178 20.5102 2.61384 20.0082 2.69089C19.9341 2.70247 19.8605 2.71324 19.7865 2.72401L19.7332 2.73173C19.5631 2.75327 19.393 2.77333 19.223 2.79197C18.8716 2.82986 18.5194 2.8608 18.1663 2.88492C17.3756 2.93998 16.5826 2.96538 15.7901 2.96665C15.0114 2.96665 14.2323 2.94471 13.4553 2.89351C13.1008 2.8703 12.7471 2.84073 12.3943 2.80487C12.2339 2.78811 12.0738 2.77049 11.9138 2.75068L11.7614 2.73133L11.7283 2.7266L11.5705 2.7038C11.2478 2.65519 10.9251 2.59926 10.6058 2.53171C10.5736 2.52454 10.5448 2.50661 10.5242 2.48086C10.5035 2.45516 10.4923 2.42316 10.4923 2.39014C10.4923 2.35713 10.5035 2.32513 10.5242 2.29938C10.5448 2.27367 10.5736 2.25574 10.6058 2.24858H10.6119C10.8885 2.18966 11.1673 2.13933 11.447 2.09544C11.5402 2.08081 11.6337 2.06649 11.7275 2.05242H11.7301C11.9051 2.04078 12.0811 2.00939 12.2554 1.98872C13.7713 1.83106 15.2964 1.77727 16.8197 1.82781C17.5592 1.84934 18.2984 1.89277 19.0345 1.96764C19.1929 1.984 19.3503 2.00122 19.5078 2.02057C19.568 2.02788 19.6287 2.03647 19.6893 2.04378L19.8115 2.06146C20.1677 2.11449 20.5221 2.17889 20.8746 2.25463C21.3969 2.3682 22.0676 2.40518 22.3 2.97742C22.374 3.15896 22.4075 3.36076 22.4484 3.55134L22.5004 3.79444C22.5018 3.79875 22.5028 3.80322 22.5035 3.80774C22.6265 4.38141 22.7497 4.95502 22.873 5.52868C22.8821 5.57105 22.8823 5.61483 22.8737 5.65729C22.865 5.69976 22.8477 5.73998 22.8229 5.77549C22.798 5.81094 22.7661 5.84096 22.7291 5.86357C22.6921 5.88617 22.6509 5.9009 22.608 5.90684H22.6046L22.5293 5.91715L22.4548 5.92706C22.2191 5.95779 21.983 5.98644 21.7467 6.0131C21.2812 6.06618 20.815 6.11205 20.348 6.15081C19.4202 6.22796 18.4904 6.27855 17.5588 6.30268C17.0841 6.31528 16.6096 6.32117 16.1352 6.3203C14.2469 6.31883 12.3603 6.20907 10.4845 5.99162C10.2815 5.96749 10.0784 5.94169 9.87532 5.91548C10.0328 5.93569 9.76089 5.89999 9.70582 5.89221C9.57676 5.87413 9.44769 5.85539 9.31863 5.83588C8.88536 5.77092 8.45473 5.69087 8.02232 5.62077C7.4996 5.53473 6.99964 5.57775 6.52685 5.83588C6.13874 6.04825 5.82458 6.37394 5.62638 6.76947C5.42245 7.19111 5.36175 7.65013 5.27057 8.10316C5.17935 8.55624 5.03738 9.04366 5.09117 9.50877C5.20688 10.5125 5.90859 11.3282 6.91791 11.5106C7.86745 11.6827 8.82212 11.8221 9.77938 11.9408C13.5397 12.4014 17.3387 12.4565 21.1108 12.1052C21.418 12.0765 21.7248 12.0453 22.0311 12.0114C22.1268 12.0009 22.2236 12.0119 22.3144 12.0437C22.4053 12.0754 22.4879 12.1271 22.5562 12.1949C22.6245 12.2627 22.6768 12.3449 22.7092 12.4356C22.7416 12.5262 22.7533 12.6229 22.7435 12.7187L22.648 13.6471C22.4556 15.5232 22.2631 17.3992 22.0707 19.275C21.8699 21.2449 21.6678 23.2146 21.4645 25.1842C21.4071 25.7389 21.3497 26.2935 21.2924 26.8479C21.2373 27.3939 21.2295 27.9571 21.1259 28.4966C20.9624 29.345 20.388 29.8662 19.5499 30.0566C18.7821 30.2314 17.9977 30.3233 17.2103 30.3304C16.3374 30.335 15.4649 30.2964 14.592 30.3009C13.6601 30.306 12.5187 30.2202 11.7993 29.5263C11.1673 28.9173 11.08 27.9635 10.994 27.1387C10.8792 26.0468 10.7655 24.9551 10.6528 23.8634L10.0203 17.7933L9.61115 13.8657C9.60429 13.8007 9.59738 13.7366 9.59093 13.6712C9.54191 13.2027 9.21018 12.7441 8.68746 12.7677C8.24002 12.7876 7.73148 13.1678 7.784 13.6712L8.08729 16.5831L8.71459 22.6063C8.89323 24.3172 9.07152 26.0283 9.24934 27.7398C9.28378 28.0676 9.31604 28.3963 9.35215 28.7242C9.54877 30.5158 10.9169 31.4809 12.6112 31.7531C13.6007 31.9121 14.6143 31.9446 15.6185 31.9614C16.9057 31.9817 18.2059 32.0315 19.4721 31.7983C21.3483 31.454 22.756 30.2014 22.9569 28.2578C23.0143 27.6968 23.0717 27.1356 23.129 26.5743C23.3197 24.718 23.5102 22.8616 23.7004 21.0049L24.3225 14.9387L24.6077 12.1585C24.6219 12.0207 24.6801 11.891 24.7738 11.7888C24.8674 11.6866 24.9914 11.6173 25.1274 11.5911C25.6639 11.4865 26.1768 11.308 26.5584 10.8997C27.1659 10.2496 27.2868 9.40205 27.0721 8.5476ZM6.89038 9.14738C6.89856 9.14346 6.88348 9.21361 6.87703 9.24632C6.87576 9.19685 6.87835 9.15296 6.89038 9.14738ZM6.94245 9.55007C6.94676 9.54702 6.95967 9.56424 6.97297 9.58491C6.95276 9.56597 6.93986 9.55179 6.94199 9.55007H6.94245ZM6.99365 9.61757C7.01214 9.64901 7.02204 9.66877 6.99365 9.61757V9.61757ZM7.09645 9.70108H7.09904C7.09904 9.70407 7.10377 9.70707 7.10549 9.71012C7.10265 9.70676 7.0995 9.70377 7.09605 9.70108H7.09645ZM25.1025 9.57628C24.9097 9.75959 24.6194 9.84477 24.3324 9.88734C21.1142 10.3649 17.8492 10.6067 14.5958 10.5C12.2674 10.4204 9.9635 10.1618 7.65833 9.83614C7.43245 9.80434 7.18768 9.76299 7.03235 9.59649C6.73978 9.28244 6.88348 8.65 6.95967 8.27052C7.02936 7.92289 7.16274 7.45955 7.57615 7.41008C8.22153 7.33435 8.97099 7.6067 9.60942 7.70352C10.3781 7.8208 11.1497 7.91477 11.9241 7.98532C15.2291 8.28647 18.5896 8.23954 21.88 7.79901C22.4798 7.7184 23.0774 7.62479 23.6729 7.51807C24.2033 7.42298 24.7914 7.24444 25.1119 7.79383C25.3318 8.16813 25.361 8.66895 25.3271 9.09186C25.3166 9.27614 25.2361 9.44939 25.102 9.57628H25.1025Z" fill="#0D0C22"/>
</svg>
