<svg width="32" height="32" viewBox="0 0 32 32" fill="none" xmlns="http://www.w3.org/2000/svg">
<rect width="32" height="32" fill="black"/>
<path d="M6.82917 3.09332V11.2475C7.14416 10.9969 7.32475 10.8619 7.49605 10.7158C12.4966 6.45236 20.5044 6.69183 25.0821 11.2429C29.4838 15.6191 28.9877 22.5655 24.0022 26.2705C21.7399 27.9517 19.201 28.784 16.3748 28.8977C12.9987 29.0335 9.98128 28.173 7.40112 25.9682C5.12613 24.0241 3.93008 21.4944 3.8824 18.5324C3.80165 13.5244 3.86074 8.51402 3.86288 3.50474C3.86298 3.3938 3.88538 3.28287 3.90586 3.09332H6.82917ZM12.7747 10.5052C7.98309 11.8659 5.49093 17.2659 7.68219 21.7052C9.35579 25.0956 12.327 26.4573 15.335 26.5691C17.7595 26.5603 19.4472 26.1894 20.9996 25.2866C25.9389 22.4142 26.5345 15.957 22.1461 12.3052C19.3805 10.0038 16.1905 9.53514 12.7747 10.5052Z" fill="white"/>
</svg>
