<svg width="32" height="32" viewBox="0 0 32 32" fill="none" xmlns="http://www.w3.org/2000/svg">
<path d="M23.5557 4.79999C21.5057 4.79825 19.5549 5.67232 18.205 7.19746L8.65896 16.6232L5.9264 13.9219C5.4549 13.4021 5.19826 12.726 5.20737 12.0279C5.20705 11.2722 5.51166 10.5476 6.05367 10.0147C6.59567 9.4818 7.3303 9.18463 8.09472 9.18906C8.79394 9.18199 9.47041 9.43445 9.99046 9.89654C10.161 10.0451 10.6433 10.5386 10.6433 10.5386L13.6664 7.55009L12.7948 6.68957C10.7189 4.78229 7.69797 4.2701 5.09776 5.38454C2.49755 6.49898 0.810814 9.02884 0.800052 11.8305C0.79842 13.5379 1.42019 15.1885 2.55109 16.479L8.68027 22.5636L21.4872 9.90209C22.0091 9.43518 22.6903 9.18049 23.3941 9.18906C24.1595 9.18962 24.893 9.49235 25.4316 10.03C25.9702 10.5676 26.2693 11.2956 26.2624 12.0523C26.269 12.7451 26.0129 13.4153 25.5445 13.9308L17.0327 22.3452C16.6907 22.6884 16.2222 22.8793 15.7349 22.8741C15.25 22.8708 14.7879 22.6703 14.4572 22.3197L13.8167 21.6909L10.8082 24.665L11.424 25.2672C12.5617 26.4172 14.1201 27.0655 15.7472 27.0658C17.3666 27.0673 18.9175 26.42 20.0457 25.2716L28.9209 16.4879C30.7579 14.4054 31.1956 11.4543 30.0406 8.93823C28.8856 6.42213 26.3507 4.80453 23.5557 4.79999V4.79999Z" fill="#00AAFF"/>
</svg>
