<svg width="32" height="32" viewBox="0 0 32 32" fill="none" xmlns="http://www.w3.org/2000/svg">
<path fill-rule="evenodd" clip-rule="evenodd" d="M16.0187 10.6666C14.1747 10.6666 12.6667 12.1753 12.6667 14.0186V27.428C12.6667 29.272 14.1747 30.78 16.0187 30.78C17.8627 30.78 19.3707 29.272 19.3707 27.428V14.0186C19.3707 12.1753 17.8627 10.6666 16.0187 10.6666Z" fill="#00C4B3"/>
<path fill-rule="evenodd" clip-rule="evenodd" d="M22.7806 17.428V4.01863C22.7806 2.17463 24.2886 0.666626 26.1326 0.666626C27.9766 0.666626 29.4846 2.17463 29.4846 4.01863V17.428C29.4846 19.2713 27.9766 20.78 26.1326 20.78C24.2886 20.78 22.7806 19.2713 22.7806 17.428Z" fill="#F95D50"/>
<path fill-rule="evenodd" clip-rule="evenodd" d="M6.01869 7.37073C4.17469 7.37073 2.66669 8.87939 2.66669 10.7227V20.7801C2.66669 22.6234 4.17469 24.1321 6.01869 24.1321C7.86269 24.1321 9.37069 22.6234 9.37069 20.7801V10.7227C9.37069 8.87939 7.86269 7.37073 6.01869 7.37073Z" fill="#FFBF3C"/>
</svg>
