<svg width="32" height="32" viewBox="0 0 32 32" fill="none" xmlns="http://www.w3.org/2000/svg">
<g clip-path="url(#clip0_3674_10)">
<path fill-rule="evenodd" clip-rule="evenodd" d="M22.1061 3.56892L22.5499 3.11635C20.4303 1.87997 17.9755 1.17334 15.3589 1.17334C7.34771 1.17334 0.853394 7.79702 0.853394 15.9678C0.853394 24.1385 7.34771 30.7622 15.3589 30.7622C23.37 30.7622 29.8643 24.1385 29.8643 15.9678C29.8643 14.153 29.544 12.4146 28.9578 10.8081L28.4855 11.2898C28.9872 12.7544 29.2599 14.3286 29.2599 15.9678C29.2599 23.798 23.0362 30.1457 15.3589 30.1457C7.68151 30.1457 1.45779 23.798 1.45779 15.9678C1.45779 8.13747 7.68151 1.78977 15.3589 1.78977C17.8074 1.78977 20.1081 2.43543 22.1061 3.56892Z" stroke="#60A219"/>
<path fill-rule="evenodd" clip-rule="evenodd" d="M11.8835 19.5959L11.9702 19.5075L29.1522 1.98325L29.8163 1.30591L31.1446 2.6606L30.4804 3.33795L13.2984 20.8622L13.2118 20.9506L11.8835 22.3053L11.2194 21.6279L6.4251 16.7381L5.76099 16.0608L7.08922 14.7061L7.75334 15.3834L11.8835 19.5959Z" fill="#60A219"/>
</g>
<defs>
<clipPath id="clip0_3674_10">
<rect width="32" height="32" fill="white"/>
</clipPath>
</defs>
</svg>
