<svg xmlns="http://www.w3.org/2000/svg" height="128" width="128" viewBox="0 0 128 128"><g fill="#333"><path style="text-indent:0;text-decoration-line:none;text-transform:none;block-progression:tb" d="M63.358 7.575c-21.622 0-44.203 17.47-50.532 38.914L2.394 81.844c-6.327 21.443 5.943 38.914 27.567 38.914h35.335c21.622 0 44.203-17.47 50.531-38.914l10.432-35.355c6.328-21.444-5.942-38.914-27.566-38.914H63.358zm-1.539 5.214h35.335c18.582 0 29.205 14.94 23.667 33.7L110.39 81.843c-5.536 18.76-24.974 33.7-43.556 33.7H31.498c-18.582 0-29.204-14.94-23.667-33.7l10.432-35.354c5.536-18.76 24.974-33.7 43.556-33.7z" color="#000"/><path d="M29.255 98.15c.163-3.303.875-6.448 2.43-9.391.61-1.154 1.332-2.245 1.997-3.368 5.145-8.086 11.172-15.657 18.245-22.15 1.705-1.565 3.512-3.015 5.268-4.522 10.386-8.279 22.03-14.778 33.972-20.507 3.212-1.508 6.531-2.752 9.877-3.922l10.552 1.339c-3.621 1.055-7.216 2.197-10.685 3.698-1.663.736-3.342 1.44-4.99 2.21-10.434 4.884-20.426 10.807-29.452 17.98-4.271 3.693-5.986 4.972-9.815 9.068-4.903 5.243-9.062 11.138-12.669 17.332-2.172 4.148-3.908 7.44-3.307 12.233H29.255z"/><path d="M39.037 98.15c.386-4.132 1.934-8.053 3.597-11.813 2.351-4.665 5.513-8.91 9.219-12.59 2.728-2.71 4.4-3.928 7.398-6.347 7.41-5.762 15.491-10.603 23.875-14.794 3.637-1.838 7.439-3.297 11.254-4.711l10.693 1.33c-4.005 1.298-7.987 2.69-11.786 4.522-8.5 4.012-16.707 8.736-24.12 14.541-3.035 2.438-4.487 3.465-7.224 6.208-3.563 3.57-6.536 7.723-8.705 12.277-1.53 3.553-3.093 7.429-2.755 11.376H39.037zm-17.391 0c.158-2.89.206-5.762.836-8.605.174-.788.413-1.56.62-2.34 2.11-6.294 5.59-12.005 8.913-17.712 3.98-6.479 8.74-12.414 13.692-18.166 2.018-2.365 4.164-4.612 6.303-6.865l10.946.863c-2.324 2.197-4.665 4.377-6.803 6.76-5.095 5.599-9.924 11.474-13.886 17.943-3.174 5.616-6.397 11.284-8.384 17.45-.19.747-.413 1.486-.57 2.242-.564 2.782-.56 5.616-.287 8.43H21.648z"/></g></svg>