<svg width="32" height="32" viewBox="0 0 32 32" fill="none" xmlns="http://www.w3.org/2000/svg">
<path d="M15.806 13.873L28.172 16.943C30.324 16.103 31.617 15.032 31.617 13.873V8.935C31.617 6.213 24.537 4 15.806 4C7.076 4 0 6.213 0 8.935V13.873C0 16.596 7.076 18.806 15.806 18.806V13.873Z" fill="#D33C44"/>
<path d="M28.171 21.879L15.805 18.806V23.74L28.171 26.814C30.324 25.97 31.617 24.903 31.617 23.74V18.806C31.618 19.969 30.324 21.036 28.171 21.879Z" fill="#D33C44"/>
<path d="M0 18.806V23.741C0 26.465 7.076 28.674 15.806 28.674V23.741C7.076 23.741 0 21.53 0 18.806Z" fill="#D33C44"/>
</svg>
