<svg width="2447" height="2447" viewBox="0 0 2447 2447" fill="none" xmlns="http://www.w3.org/2000/svg">
<path d="M2137.38 2446.66H313.938C171.216 2446.66 55 2330.45 55 2187.72V363.601C55 220.879 171.216 104.663 313.938 104.663H2137.38C2280.1 104.663 2396.32 220.879 2396.32 363.601V2187.04C2397 2330.45 2280.78 2446.66 2137.38 2446.66ZM313.938 248.064C250.053 248.064 198.402 299.716 198.402 363.601V2187.04C198.402 2250.93 250.053 2302.58 313.938 2302.58H2137.38C2201.27 2302.58 2252.92 2250.93 2252.92 2187.04V363.601C2252.92 299.716 2201.27 248.064 2137.38 248.064H313.938Z" fill="#676B74"/>
<path d="M1748.63 492.051C1718.05 492.051 1693.58 467.584 1693.58 437.001V55.0499C1693.58 24.4666 1718.05 0 1748.63 0C1779.22 0 1803.68 24.4666 1803.68 55.0499V436.322C1803.68 466.905 1779.22 492.051 1748.63 492.051ZM697.249 492.051C666.666 492.051 642.199 467.584 642.199 437.001V55.0499C642.199 24.4666 666.666 0 697.249 0C727.832 0 752.299 24.4666 752.299 55.0499V436.322C752.979 466.905 727.832 492.051 697.249 492.051ZM1291.92 1724.9C1063.57 1724.9 878.03 1539.36 878.03 1311C878.03 1082.65 1063.57 897.11 1291.92 897.11C1395.23 897.11 1493.77 935.169 1569.89 1004.49C1579.41 1012.65 1580.09 1027.6 1571.25 1036.43C1563.1 1045.95 1548.14 1046.63 1539.31 1037.79C1471.35 975.947 1383.67 941.965 1291.92 941.965C1088.72 941.965 923.565 1107.11 923.565 1310.32C923.565 1513.53 1088.72 1678.68 1291.92 1678.68C1383.67 1678.68 1471.35 1644.7 1539.31 1582.85C1548.82 1574.7 1563.1 1575.38 1571.25 1584.21C1579.41 1593.73 1578.73 1608 1569.89 1616.16C1493.77 1686.84 1395.23 1724.9 1291.92 1724.9Z" fill="#676B74"/>
</svg>
