<svg width="32" height="32" viewBox="0 0 32 32" fill="none" xmlns="http://www.w3.org/2000/svg">
<path d="M27.9365 0H4.06349C1.81929 0 0 1.81929 0 4.06349V27.9365C0 30.1807 1.81929 32 4.06349 32H27.9365C30.1807 32 32 30.1807 32 27.9365V4.06349C32 1.81929 30.1807 0 27.9365 0Z" fill="#69BEA7"/>
<path fill-rule="evenodd" clip-rule="evenodd" d="M16.7619 9.14307H17.2698C17.5504 9.14307 17.7778 9.37049 17.7778 9.65101V11.054C21.4231 11.7001 24.6811 14.5883 24.6811 18.2859C24.6811 19.4675 27.4523 21.9083 26.3199 21.9083C23.8237 21.9083 19.2803 21.9083 16.254 21.9083C13.2005 21.9083 9.13178 21.9083 6.33063 21.9083C5.26132 21.9083 7.74343 19.4403 7.74343 18.2859C7.74343 14.5872 11.0678 11.6983 14.7301 11.0534V9.65101C14.7301 9.37049 14.9576 9.14307 15.2381 9.14307H15.746V8.1272H15.2381C14.9576 8.1272 14.7301 7.89979 14.7301 7.61926C14.7301 7.33874 14.9576 7.11133 15.2381 7.11133H17.2698C17.5504 7.11133 17.7778 7.33874 17.7778 7.61926C17.7778 7.89979 17.5504 8.1272 17.2698 8.1272H16.7619V9.14307ZM5.07935 23.3653H27.4286C27.9896 23.3653 28.4444 23.8201 28.4444 24.3812C28.4444 24.9422 27.9896 25.397 27.4286 25.397H5.07935C4.5183 25.397 4.06348 24.9422 4.06348 24.3812C4.06348 23.8201 4.5183 23.3653 5.07935 23.3653Z" fill="white" stroke="white" stroke-linecap="round"/>
<path d="M23.1111 18.0319C23.1111 14.8058 19.6322 12.1211 16.4061 12.1211" stroke="#69BEA7" stroke-width="2" stroke-linecap="round"/>
</svg>
