<svg width="32" height="32" viewBox="0 0 32 32" fill="none" xmlns="http://www.w3.org/2000/svg">
<path d="M15.9763 9.40308C9.82246 9.40308 4.89938 14.3508 4.89938 20.48C4.89938 26.6092 9.84707 31.5569 15.9763 31.5569C22.1055 31.5569 27.0532 26.6092 27.0532 20.48C27.0532 14.3508 22.0071 9.40308 15.9763 9.40308ZM15.9763 28.2092C11.7671 28.2092 8.39477 24.8369 8.39477 20.6277C8.39477 16.4185 11.7671 13.0462 15.9763 13.0462C20.1855 13.0462 23.5578 16.4185 23.5578 20.6277C23.5578 24.8369 20.2102 28.2092 15.9763 28.2092Z" fill="#02BDF6"/>
<path d="M27.2994 3.86462C24.0502 1.82154 20.0871 0.49231 15.9763 0.49231C11.8655 0.49231 7.90246 1.82154 4.65323 3.86462C3.69323 4.57846 3.44707 5.90769 3.93938 6.86769L5.51477 9.74769C5.884 10.3385 6.72092 10.5846 7.21323 10.1169C8.17323 9.40308 9.13323 8.66462 10.2163 8.19692C10.4625 8.07385 10.5855 7.82769 10.5855 7.60616V5.90769C10.5855 5.66154 10.7086 5.41539 10.9548 5.41539C12.5302 4.82462 14.204 4.57846 15.9025 4.57846H16.0255H16.1486C17.8471 4.57846 19.5209 4.82462 21.0963 5.41539C21.3425 5.41539 21.4655 5.66154 21.4655 5.90769V7.60616C21.4655 7.85231 21.5886 8.09846 21.8348 8.19692C22.9178 8.68923 23.8778 9.40308 24.8378 10.1169C25.3302 10.6092 26.1671 10.3631 26.5363 9.74769L28.1117 6.86769C28.5055 5.90769 28.284 4.57846 27.2994 3.86462Z" fill="#02BDF6"/>
<path d="M15.9763 24.5908C18.233 24.5908 20.0625 22.7613 20.0625 20.5046C20.0625 18.2479 18.233 16.4185 15.9763 16.4185C13.7196 16.4185 11.8902 18.2479 11.8902 20.5046C11.8902 22.7613 13.7196 24.5908 15.9763 24.5908Z" fill="#02BDF6"/>
</svg>
