<svg width="32" height="32" viewBox="0 0 32 32" fill="none" xmlns="http://www.w3.org/2000/svg">
<path d="M16.0738 31.7046C9.99877 31.7046 5.02154 26.7717 5.02154 20.7114V11.2886C5.02154 5.22833 9.99877 0.29541 16.0738 0.29541C21.4695 0.29541 26.0578 4.15018 26.9489 9.45726C27.0917 10.3139 26.5255 11.1213 25.6689 11.2689C24.8123 11.4117 24.0098 10.8357 23.8622 9.9791C23.2222 6.18833 19.9926 3.43633 16.1329 3.43633C11.7908 3.43633 8.29046 6.96126 8.29046 11.2886V20.7114C8.29046 25.0437 11.7908 28.5637 16.1329 28.5637C19.9877 28.5637 23.232 25.8117 23.8671 22.0209C24.0098 21.1643 24.8172 20.5883 25.6689 20.7311C26.5255 20.8739 27.0769 21.6862 26.9342 22.5379C26.0529 27.8499 21.4646 31.7046 16.0738 31.7046Z" fill="#5F5DF9"/>
<g opacity="0.5">
<path d="M12.5834 17.4129C11.7169 17.4129 11.072 16.7089 11.072 15.8424V11.2984C11.072 8.50212 13.3268 6.22766 16.1329 6.22766C18.048 6.22766 19.7711 7.29105 20.6474 9.00428C21.0412 9.7772 20.7311 10.7224 19.9582 11.1163C19.1852 11.5101 18.2351 11.2049 17.8412 10.432C17.5065 9.77228 16.8074 9.36366 16.0788 9.36366C15.0055 9.36366 14.0997 10.2301 14.0997 11.2935V15.8375C14.0948 16.7089 13.4498 17.4129 12.5834 17.4129Z" fill="#5F5DF9"/>
</g>
</svg>
