<svg width="32" height="32" viewBox="0 0 32 32" fill="none" xmlns="http://www.w3.org/2000/svg">
<path d="M17.8941 22.2703C16.657 22.2703 15.4478 21.9036 14.419 21.2166C13.3903 20.5296 12.5883 19.5531 12.1143 18.4105C11.6403 17.2679 11.5157 16.0104 11.7561 14.797C11.9964 13.5836 12.5911 12.4686 13.4649 11.593C14.3387 10.7174 15.4524 10.1204 16.6654 9.87749C17.8783 9.63459 19.136 9.75666 20.2796 10.2283C21.4232 10.6999 22.4014 11.4999 23.0905 12.5272C23.7796 13.5545 24.1488 14.763 24.1514 16C24.1536 16.823 23.9934 17.6383 23.6799 18.3992C23.3664 19.1601 22.9058 19.8517 22.3245 20.4342C21.7432 21.0168 21.0526 21.4788 20.2923 21.7939C19.532 22.109 18.717 22.2708 17.8941 22.2703V22.2703ZM24.3805 21.0984L27.1222 24.1514C24.5959 26.7373 21.158 28.232 17.5438 28.3157C10.3784 28.3157 4.88216 22.9405 4.88216 15.9308C4.88216 8.99027 10.4649 3.68432 17.7297 3.68432C21.2404 3.71469 24.6013 5.11056 27.1005 7.57622L24.3935 10.9795C23.572 10.0262 22.5619 9.25358 21.4269 8.71026C20.2919 8.16693 19.0566 7.86473 17.7989 7.8227C15.66 7.8227 13.6087 8.67239 12.0962 10.1848C10.5837 11.6973 9.73405 13.7486 9.73405 15.8876C9.73405 18.0265 10.5837 20.0778 12.0962 21.5903C13.6087 23.1027 15.66 23.9524 17.7989 23.9524C20.28 23.8819 22.6399 22.8637 24.3935 21.107L24.3805 21.0984ZM32 28.1989V3.80108C31.9977 2.79367 31.5965 1.82818 30.8842 1.11583C30.1718 0.403488 29.2063 0.00228438 28.1989 0L3.80108 0C2.79367 0.00228438 1.82818 0.403488 1.11583 1.11583C0.403488 1.82818 0.00228438 2.79367 0 3.80108L0 28.1989C0.00228438 29.2063 0.403488 30.1718 1.11583 30.8842C1.82818 31.5965 2.79367 31.9977 3.80108 32H28.1989C29.2063 31.9977 30.1718 31.5965 30.8842 30.8842C31.5965 30.1718 31.9977 29.2063 32 28.1989" fill="#FA9100"/>
</svg>
