<svg width="32" height="32" viewBox="0 0 32 32" fill="none" xmlns="http://www.w3.org/2000/svg">
<g clip-path="url(#clip0_3795_56)">
<path d="M4.64369 15.9573C4.6444 14.8291 4.232 13.7395 3.48424 12.8941C2.73649 12.0487 1.70505 11.5058 0.584408 11.3679C-0.19464 14.378 -0.19464 17.5367 0.584408 20.5468C1.70505 20.4089 2.73649 19.866 3.48424 19.0206C4.232 18.1752 4.6444 17.0856 4.64369 15.9573" fill="#E72429"/>
<path d="M7.33225 14.5099C7.04492 14.5099 6.76405 14.5951 6.5252 14.7547C6.28634 14.9143 6.10023 15.1411 5.99044 15.4064C5.88064 15.6717 5.8521 15.9636 5.90841 16.2452C5.96472 16.5268 6.10336 16.7853 6.30678 16.9881C6.5102 17.1908 6.76925 17.3288 7.05114 17.3843C7.33303 17.4399 7.62509 17.4107 7.89035 17.3003C8.15561 17.19 8.38213 17.0035 8.54126 16.7644C8.70038 16.5253 8.78495 16.2444 8.78426 15.9573C8.78332 15.5731 8.62993 15.205 8.35773 14.9336C8.08553 14.6623 7.71674 14.5099 7.33225 14.5099" fill="#E72429"/>
<path d="M27.3566 15.9573C27.3559 17.0856 27.7683 18.1752 28.516 19.0206C29.2638 19.866 30.2952 20.4089 31.4159 20.5468C32.1949 17.5367 32.1949 14.378 31.4159 11.3679C30.2952 11.5058 29.2638 12.0487 28.516 12.8941C27.7683 13.7395 27.3559 14.8291 27.3566 15.9573" fill="#E72429"/>
<path d="M24.6679 14.5099C24.3806 14.5099 24.0997 14.5951 23.8609 14.7547C23.622 14.9143 23.4359 15.1411 23.3261 15.4064C23.2163 15.6717 23.1878 15.9636 23.2441 16.2452C23.3004 16.5268 23.4391 16.7853 23.6425 16.9881C23.8459 17.1908 24.1049 17.3288 24.3868 17.3843C24.6687 17.4399 24.9608 17.4107 25.226 17.3003C25.4913 17.19 25.7178 17.0035 25.877 16.7644C26.0361 16.5253 26.1206 16.2444 26.1199 15.9573C26.119 15.5731 25.9656 15.205 25.6934 14.9336C25.4212 14.6623 25.0524 14.5099 24.6679 14.5099" fill="#E72429"/>
<path d="M15.9701 27.3497C14.8396 27.3511 13.7488 27.7658 12.9033 28.5157C12.0579 29.2655 11.5164 30.2987 11.3809 31.4201C14.3938 32.1932 17.5534 32.1932 20.5664 31.4201C20.4276 30.3006 19.8842 29.2704 19.0383 28.5233C18.1924 27.7763 17.1025 27.3639 15.9736 27.3639" fill="#E72429"/>
<path d="M15.9701 23.2122C15.6352 23.213 15.3108 23.3298 15.0523 23.5427C14.7939 23.7556 14.6172 24.0514 14.5525 24.3798C14.4877 24.7082 14.5389 25.0489 14.6972 25.3438C14.8556 25.6388 15.1113 25.8698 15.421 25.9975C15.7306 26.1252 16.0749 26.1418 16.3954 26.0443C16.7158 25.9469 16.9926 25.7414 17.1785 25.463C17.3644 25.1846 17.448 24.8504 17.4151 24.5173C17.3822 24.1842 17.2347 23.8728 16.9979 23.6361C16.8628 23.5014 16.7026 23.3947 16.5262 23.3219C16.3499 23.2492 16.1609 23.2119 15.9701 23.2122" fill="#E72429"/>
<path d="M15.9701 4.63914C17.0989 4.6391 18.1888 4.22676 19.0347 3.47974C19.8805 2.73272 20.424 1.70253 20.5628 0.583055C17.5504 -0.194266 14.3898 -0.194353 11.3773 0.582804C11.5161 1.70233 12.0595 2.73257 12.9054 3.47964C13.7512 4.22671 14.8412 4.63908 15.9701 4.63914" fill="#E72429"/>
<path d="M15.9701 5.87476C15.6352 5.87557 15.3108 5.99237 15.0523 6.20526C14.7939 6.41816 14.6172 6.71399 14.5525 7.0424C14.4877 7.37081 14.5389 7.71149 14.6972 8.00645C14.8556 8.3014 15.1113 8.5324 15.421 8.66012C15.7306 8.78784 16.0749 8.80438 16.3954 8.70692C16.7158 8.60946 16.9926 8.40404 17.1785 8.12561C17.3644 7.84719 17.448 7.51298 17.4151 7.17988C17.3822 6.84678 17.2347 6.53538 16.9979 6.2987C16.8628 6.16403 16.7026 6.05727 16.5262 5.98453C16.3499 5.91179 16.1609 5.87449 15.9701 5.87476" fill="#E72429"/>
<path d="M24.025 24.0065C23.2288 24.8042 22.7514 25.8649 22.6825 26.9895C22.6135 28.114 22.9578 29.225 23.6505 30.1139C26.3242 28.5308 28.5523 26.2958 30.1263 23.6181C29.2356 22.9313 28.1252 22.5919 27.0024 22.6634C25.8796 22.7349 24.8213 23.2123 24.025 24.0065" fill="#E72429"/>
<path d="M21.0892 21.0728C20.8541 21.3099 20.7085 21.6211 20.6771 21.9534C20.6457 22.2857 20.7304 22.6186 20.9169 22.8955C21.1035 23.1723 21.3802 23.3761 21.7001 23.4721C22.02 23.568 22.3633 23.5503 22.6716 23.4218C22.9799 23.2934 23.2342 23.0622 23.3911 22.7676C23.548 22.4729 23.598 22.1331 23.5324 21.8058C23.4669 21.4785 23.2899 21.184 23.0315 20.9724C22.7732 20.7609 22.4495 20.6452 22.1155 20.6453C21.9247 20.6455 21.7358 20.6834 21.5597 20.7567C21.3835 20.8301 21.2237 20.9375 21.0892 21.0728" fill="#E72429"/>
<path d="M7.95049 7.94352C8.74694 7.14683 9.22486 6.08695 9.29447 4.96299C9.36408 3.83903 9.02059 2.72834 8.32852 1.8396C5.6514 3.41684 3.41846 5.64695 1.83862 8.32127C2.72827 9.01381 3.84051 9.35764 4.96609 9.28807C6.09167 9.2185 7.15303 8.74033 7.95049 7.94352" fill="#E72429"/>
<path d="M8.83365 8.82605C8.63047 9.02893 8.49206 9.28746 8.43594 9.56895C8.37982 9.85044 8.40851 10.1422 8.51838 10.4074C8.62824 10.6726 8.81435 10.8993 9.05315 11.0588C9.29196 11.2183 9.57274 11.3034 9.85996 11.3034C10.1472 11.3034 10.428 11.2183 10.6668 11.0588C10.9056 10.8993 11.0917 10.6726 11.2016 10.4074C11.3114 10.1422 11.3401 9.85044 11.284 9.56895C11.2279 9.28746 11.0895 9.02893 10.8863 8.82605C10.614 8.5542 10.2449 8.40149 9.85996 8.40149C9.47507 8.40149 9.10592 8.5542 8.83365 8.82605" fill="#E72429"/>
<path d="M24.025 7.92933C24.8227 8.72451 25.8832 9.20161 27.0078 9.27115C28.1324 9.3407 29.2437 8.99792 30.1334 8.30709C28.5501 5.62975 26.3121 3.39823 23.6294 1.8219C22.9386 2.71299 22.5976 3.82564 22.6704 4.95046C22.7433 6.07527 23.2251 7.13469 24.0251 7.92933" fill="#E72429"/>
<path d="M23.1313 10.856C23.3344 10.6532 23.4729 10.3946 23.529 10.1131C23.5851 9.83164 23.5564 9.53984 23.4466 9.27464C23.3367 9.00944 23.1506 8.78276 22.9118 8.62328C22.673 8.46379 22.3922 8.37866 22.105 8.37866C21.8177 8.37866 21.5369 8.46379 21.2981 8.62328C21.0593 8.78276 20.8732 9.00944 20.7634 9.27464C20.6535 9.53984 20.6248 9.83164 20.6809 10.1131C20.7371 10.3946 20.8755 10.6532 21.0787 10.856C21.3509 11.1279 21.7201 11.2806 22.105 11.2806C22.4898 11.2806 22.859 11.1279 23.1313 10.856" fill="#E72429"/>
<path d="M7.94341 23.9782C7.14517 23.1828 6.08402 22.7056 4.95886 22.636C3.83371 22.5665 2.72179 22.9094 1.83154 23.6005C3.41085 26.2761 5.64378 28.5075 8.32127 30.0857C9.01287 29.1961 9.35603 28.085 9.28643 26.9606C9.21684 25.8363 8.73927 24.7759 7.94324 23.9782" fill="#E72429"/>
<path d="M8.83367 21.0551C8.59727 21.2923 8.45046 21.604 8.41822 21.9372C8.38599 22.2704 8.47033 22.6045 8.65688 22.8825C8.84343 23.1606 9.12066 23.3654 9.44137 23.4621C9.76207 23.5589 10.1064 23.5416 10.4158 23.4131C10.7251 23.2847 10.9804 23.053 11.138 22.7577C11.2957 22.4623 11.346 22.1215 11.2805 21.7932C11.2149 21.4649 11.0375 21.1695 10.7785 20.9572C10.5194 20.745 10.1948 20.629 9.85975 20.629C9.66908 20.6291 9.48028 20.6667 9.3042 20.7398C9.12812 20.8129 8.96822 20.9201 8.83367 21.0551" fill="#E72429"/>
</g>
<defs>
<clipPath id="clip0_3795_56">
<rect width="32" height="32" fill="white"/>
</clipPath>
</defs>
</svg>
