<svg width="32" height="32" viewBox="0 0 32 32" fill="none" xmlns="http://www.w3.org/2000/svg">
<path d="M16 32C24.8366 32 32 24.8366 32 16C32 7.16344 24.8366 0 16 0C7.16344 0 0 7.16344 0 16C0 24.8366 7.16344 32 16 32Z" fill="#6E436C"/>
<path d="M22.3687 10.3875V19.9563C22.3687 20.0906 22.2906 20.2156 22.1687 20.275L14.5 23.9531C14.45 23.9781 14.4 23.9875 14.3469 23.9875C14.2812 23.9875 14.2156 23.9688 14.1594 23.9344C14.0562 23.8688 13.9937 23.7531 13.9937 23.6344V19.9906L9.84998 18.2563C9.71873 18.2 9.63123 18.0719 9.63123 17.9281V8.36251C9.63123 8.24064 9.69373 8.12814 9.79685 8.06564C9.89998 8.00001 10.0312 7.99064 10.1375 8.04376L18.1062 11.8656L21.8594 10.0656C21.9687 10.0156 22.0969 10.0219 22.2 10.0875C22.3031 10.1531 22.3687 10.2656 22.3687 10.3875V10.3875ZM13.9937 19.2281V17.4656L11.6968 16.5406C11.5156 16.4656 11.425 16.2594 11.5 16.0813C11.575 15.9 11.7812 15.8094 11.9594 15.8844L13.9937 16.7031V15.2594L11.6968 14.3344C11.5156 14.2594 11.425 14.0531 11.5 13.875C11.575 13.6938 11.7812 13.6031 11.9594 13.6781L13.9937 14.4969V14.075C13.9937 13.9406 14.0719 13.8156 14.1937 13.7563L14.7187 13.5031L11.6781 12.1219C11.4969 12.0406 11.4219 11.8313 11.5 11.6531C11.5812 11.4719 11.7906 11.3969 11.9687 11.475L15.5437 13.1031L17.2875 12.2656L10.3406 8.92814V17.6969L13.9937 19.2281ZM21.6593 19.7313V10.95L14.7 14.2906V23.075L21.6593 19.7313V19.7313ZM15.8687 15.9938C15.9281 16.1219 16.0531 16.1938 16.1875 16.1938C16.2375 16.1938 16.2906 16.1813 16.3406 16.1594L20.3312 14.2313C20.5093 14.1469 20.5812 13.9375 20.4969 13.7594C20.4125 13.5813 20.2031 13.5094 20.025 13.5938L16.0312 15.5219C15.8562 15.6063 15.7812 15.8156 15.8687 15.9938ZM15.8687 18.2031C15.9281 18.3313 16.0531 18.4031 16.1875 18.4031C16.2375 18.4031 16.2906 18.3906 16.3406 18.3688L20.3281 16.4375C20.5062 16.3531 20.5781 16.1438 20.4937 15.9656C20.4093 15.7875 20.2 15.7156 20.0219 15.8L16.0312 17.7313C15.8562 17.8156 15.7812 18.025 15.8687 18.2031ZM15.8687 20.4094C15.9281 20.5375 16.0531 20.6094 16.1875 20.6094C16.2375 20.6094 16.2906 20.5969 16.3406 20.575L20.3312 18.6469C20.5093 18.5625 20.5812 18.3531 20.4969 18.175C20.4125 17.9969 20.2031 17.925 20.025 18.0094L16.0312 19.9375C15.8562 20.025 15.7812 20.2344 15.8687 20.4094Z" fill="white"/>
</svg>
