<svg width="128" height="128" viewBox="0 0 128 128" fill="none" xmlns="http://www.w3.org/2000/svg">
<g clip-path="url(#clip0_102_136)">
<path d="M85.1784 96.3752C85.8754 95.6772 86.7394 95.3312 87.7824 95.3312C88.8184 95.3312 89.6894 95.6832 90.3864 96.3752C91.0834 97.0732 91.4294 97.9372 91.4294 99.0262C91.4294 100.115 91.0774 100.985 90.3864 101.677C89.6894 102.375 88.8254 102.721 87.7824 102.721C86.7394 102.721 85.8694 102.369 85.1784 101.677C84.4814 100.979 84.1354 100.115 84.1354 99.0262C84.1354 97.9372 84.4814 97.0732 85.1784 96.3752Z" fill="#005DFF"/>
<path d="M113.539 105.75C113.629 105.539 113.711 105.276 113.801 105.058C113.724 105.276 113.629 105.539 113.539 105.75Z" fill="#005DFF"/>
<path d="M91.4234 57.0362C93.6374 55.5632 96.1054 54.9992 98.8824 55.3452L98.8884 45.1892C96.4574 45.1892 94.2884 45.7522 92.3374 46.8792C90.3864 48.0062 88.9984 49.6972 88.1284 51.9582V45.8802H79.0184V81.2172H88.1284V64.3302C88.1284 60.9422 89.2544 58.5152 91.4234 57.0362ZM87.7824 106.147C89.7784 106.147 91.4684 105.449 92.8564 104.104C94.2444 102.714 94.9414 101.024 94.9354 99.0712C94.9354 97.1182 94.2444 95.3822 92.8564 94.0372C91.4684 92.6862 89.7784 91.9952 87.7824 91.9952C85.8314 91.9952 84.0974 92.6922 82.7544 94.0372C81.4044 95.3822 80.7134 97.1182 80.7134 99.0712C80.7134 101.024 81.4114 102.759 82.7544 104.104C84.0974 105.455 85.7864 106.147 87.7824 106.147ZM73.6824 106.141C75.0254 106.141 76.2034 105.839 77.2844 105.186C78.3204 104.584 79.1914 103.714 79.8054 102.715L76.7664 100.979C76.5044 101.543 76.0684 101.978 75.5504 102.279C74.9814 102.586 74.3734 102.759 73.6824 102.759C72.6394 102.759 71.7704 102.408 71.0794 101.716C70.4264 101.018 70.0814 100.108 70.0814 99.0642C70.0814 97.9752 70.3824 97.1112 71.0794 96.4132C71.7764 95.7152 72.6394 95.3692 73.6824 95.3692C74.3354 95.3692 74.9884 95.5042 75.5064 95.8502C76.0314 96.1512 76.4594 96.5862 76.7214 97.1502L79.7154 95.4142C79.1524 94.3322 78.3654 93.5062 77.2844 92.8532C76.1964 92.2002 74.9814 91.8982 73.6824 91.8982C71.6484 91.8982 69.9524 92.5962 68.6094 93.9412C67.2594 95.3312 66.5684 97.0222 66.5684 99.0202C66.5684 101.018 67.2664 102.753 68.6094 104.098C69.9524 105.449 71.6414 106.141 73.6824 106.141ZM60.8874 103.675C60.8874 104.975 61.9244 105.974 63.1844 105.974C64.4444 105.974 65.4874 104.93 65.4814 103.675C65.4814 102.375 64.4444 101.376 63.1844 101.376C61.8854 101.376 60.8874 102.413 60.8874 103.675ZM40.4034 76.7982C43.7424 80.4422 47.7794 82.2222 52.5074 82.2222C57.4594 82.2222 61.2784 80.4872 64.0034 77.0612C64.0034 79.3602 65.8714 81.2302 68.1684 81.2302H73.1134V45.8872H64.0034V50.0562C61.2714 46.6242 57.4524 44.8882 52.5074 44.8882C47.8184 44.8882 43.7874 46.7072 40.4034 50.3122C37.0644 53.9172 35.3744 58.3422 35.3744 63.5552C35.3744 68.7682 37.0644 73.1542 40.4034 76.7982ZM87.1684 4.02517L123.998 40.8402C127.427 44.3112 128.81 49.3572 127.415 54.1412L122.341 73.0262C120.479 73.0712 117.703 73.0712 116.705 73.0262C115.534 72.9432 114.626 72.6362 114.018 72.0722C113.41 71.5082 113.11 70.5992 113.11 69.3822V54.6602H121.088V45.8872H113.11V33.8992L104 39.1502V69.1902C104 74.0572 105.299 77.4382 107.858 79.3082C110.289 81.0882 114.357 81.6972 120.134 81.1782L116.449 94.8952C116.231 94.3702 115.931 93.8512 115.541 93.4162C114.633 92.3792 113.372 91.8982 111.856 91.8982C110.078 91.8982 108.734 92.5902 107.864 93.8522C107.084 92.5522 105.875 91.8982 104.224 91.8982C102.535 91.8982 101.274 92.5072 100.494 93.7242V92.2892H97.0274V105.756H100.494V98.2002C100.494 97.2012 100.75 96.4582 101.185 95.9392C101.62 95.4202 102.228 95.1582 103.008 95.1582C103.744 95.1582 104.307 95.4152 104.697 95.8502C105.132 96.2852 105.305 96.9392 105.305 97.7202V105.744H108.772V98.1872C108.772 97.1882 108.99 96.4452 109.425 95.9262C109.815 95.4072 110.468 95.1452 111.248 95.1452C111.984 95.1452 112.547 95.4022 112.937 95.8372C113.372 96.2722 113.545 96.9262 113.545 97.7072V105.737C111.939 109.816 108.555 112.903 104.307 114.03L54.0364 127.536C49.3084 128.798 44.2734 127.446 40.8064 123.975L4.02039 87.1662C0.55339 83.6892 -0.796612 78.6552 0.46339 73.9232L0.898391 72.3152C1.72339 73.9672 2.85039 75.4402 4.19339 76.8302C7.75039 80.4352 12.1714 82.2162 17.5064 82.2162C20.9804 82.2162 24.1024 81.3512 26.9234 79.6992C29.7444 78.0082 31.9134 75.7922 33.4744 73.0132L25.5804 68.4992C24.8834 69.9782 23.8014 71.1052 22.3684 71.9312C20.9354 72.8022 19.2914 73.1932 17.4684 73.1932C14.7364 73.1932 12.4774 72.2832 10.6994 70.4582C8.92139 68.6332 8.01239 66.3342 8.01239 63.5552C8.01239 60.7312 8.92139 58.4322 10.6994 56.6072C12.4774 54.7822 14.7364 53.8722 17.4684 53.8722C19.2854 53.8722 20.8904 54.2632 22.3234 55.1342C23.7564 55.9992 24.8444 57.1262 25.5354 58.6052L33.3854 54.0392C31.9144 51.2602 29.7894 49.0502 26.9684 47.3982C24.1024 45.7522 20.9804 44.9262 17.5514 44.9262C13.7384 44.9262 10.4374 45.8362 7.53339 47.6612L13.9494 23.6462C15.2544 18.8692 18.9394 15.1812 23.6674 13.9192L73.9384 0.464168C78.6664 -0.79783 83.7014 0.554168 87.1684 4.02517Z" fill="#005DFF"/>
<path d="M47.2224 56.3832C49.0454 54.5132 51.3874 53.6042 54.2084 53.6042C57.0294 53.6042 59.3714 54.5192 61.2334 56.3832C63.1014 58.2532 64.0094 60.6422 64.0094 63.5492C64.0094 66.4632 63.0954 68.8452 61.2334 70.7152C59.3714 72.5852 57.0294 73.4942 54.2084 73.4942C51.3874 73.4942 49.0454 72.5852 47.2224 70.7152C45.3994 68.8452 44.4914 66.4562 44.4914 63.5492C44.4914 60.6352 45.3994 58.2532 47.2224 56.3832Z" fill="#005DFF"/>
</g>
<defs>
<clipPath id="clip0_102_136">
<rect width="128" height="128" fill="white"/>
</clipPath>
</defs>
</svg>
