<svg width="32" height="32" viewBox="0 0 32 32" fill="none" xmlns="http://www.w3.org/2000/svg">
<path d="M4.76132 28.32C4.57104 28.3197 4.38617 28.2567 4.2353 28.1409C4.08443 28.025 3.97597 27.8627 3.9267 27.6791C3.87742 27.4954 3.89008 27.3008 3.96271 27.125C4.03533 26.9493 4.16388 26.8024 4.32848 26.707L15.4135 20.3244L26.5548 4.04755C26.6185 3.95232 26.7003 3.87065 26.7957 3.80728C26.8912 3.74389 26.9982 3.70007 27.1106 3.67833C27.2232 3.6566 27.3389 3.65738 27.4511 3.68066C27.5633 3.70392 27.6697 3.74921 27.7642 3.8139C27.8587 3.87857 27.9394 3.96135 28.0017 4.05744C28.064 4.15353 28.1065 4.26101 28.127 4.37365C28.1473 4.4863 28.1451 4.60186 28.1205 4.71364C28.0958 4.82542 28.0491 4.9312 27.9833 5.02484L16.6168 21.6217L5.19416 28.2032C5.06322 28.2808 4.91355 28.3212 4.76132 28.32Z" fill="#1790FF"/>
<g opacity="0.5">
<path opacity="0.5" d="M27.4464 32.0001C26.8475 32.0001 26.2544 31.8822 25.7012 31.6531C25.148 31.4239 24.6453 31.0882 24.2221 30.6649C23.7987 30.2416 23.4631 29.7391 23.2343 29.1861C23.0055 28.6332 22.888 28.0406 22.8886 27.4423V9.7125C22.8886 9.18925 25.1566 8.3633 25.3212 7.55033C25.9401 4.47141 25.451 0.138428 27.4464 0.138428C28.0448 0.138427 28.6373 0.256238 29.19 0.485128C29.7428 0.714016 30.2448 1.04949 30.6678 1.47238C31.0907 1.89527 31.426 2.39728 31.6545 2.94972C31.8831 3.50216 32.0005 4.09417 31.9999 4.69195V27.4423C32.001 28.0404 31.8841 28.6329 31.6558 29.1858C31.4274 29.7388 31.0923 30.2413 30.6693 30.6646C30.2463 31.0879 29.744 31.4238 29.191 31.653C28.6379 31.8822 28.0451 32.0001 27.4464 32.0001Z" fill="#1790FF"/>
</g>
<g opacity="0.5">
<path opacity="0.5" d="M20.5427 20.8691V27.4421C20.4713 28.5978 19.9614 29.6829 19.1169 30.4761C18.2724 31.2693 17.157 31.7109 15.9979 31.7109C14.8388 31.7109 13.7234 31.2693 12.8789 30.4761C12.0344 29.6829 11.5245 28.5978 11.4531 27.4421V20.8691" fill="#1790FF"/>
</g>
<path d="M27.4464 9.09839C29.9613 9.09839 32 7.06165 32 4.5492C32 2.03674 29.9613 0 27.4464 0C24.9317 0 22.893 2.03674 22.893 4.5492C22.893 7.06165 24.9317 9.09839 27.4464 9.09839Z" fill="#1790FF"/>
<path d="M15.9893 25.4184C18.5041 25.4184 20.5428 23.3816 20.5428 20.8692C20.5428 18.3567 18.5041 16.3199 15.9893 16.3199C13.4745 16.3199 11.4358 18.3567 11.4358 20.8692C11.4358 23.3816 13.4745 25.4184 15.9893 25.4184Z" fill="#1790FF"/>
<path d="M4.55349 31.9912C7.06832 31.9912 9.10699 29.9545 9.10699 27.4421C9.10699 24.9295 7.06832 22.8928 4.55349 22.8928C2.03867 22.8928 0 24.9295 0 27.4421C0 29.9545 2.03867 31.9912 4.55349 31.9912Z" fill="#1790FF"/>
</svg>
