<svg width="32" height="32" viewBox="0 0 32 32" fill="none" xmlns="http://www.w3.org/2000/svg">
<path d="M16.1806 31.4871C15.2437 31.4058 14.3103 31.2424 13.4023 31.0008C12.4425 30.7455 11.4995 30.3996 10.5997 29.9729C9.71309 29.5526 8.85911 29.0494 8.06144 28.4774C7.26883 27.909 6.52443 27.2675 5.84892 26.5705C5.17167 25.8717 4.55746 25.1108 4.02336 24.309C3.48316 23.498 3.01953 22.637 2.64536 21.7498C2.26384 20.8453 1.97093 19.9029 1.77476 18.9491C1.57333 17.9696 1.47119 16.9643 1.47119 15.9612C1.47119 14.9086 1.58021 13.8568 1.79521 12.835C2.00473 11.8392 2.31738 10.8597 2.72448 9.92369C3.12429 9.00439 3.61921 8.11765 4.19547 7.2881C4.76646 6.46614 5.42226 5.69315 6.14466 4.9906C6.86723 4.28788 7.66236 3.64987 8.50795 3.0943C9.36174 2.53333 10.2745 2.05151 11.2209 1.66222C12.1848 1.2657 13.1936 0.961161 14.2193 0.757053C15.2719 0.547566 16.3555 0.441345 17.4399 0.441345C18.7669 0.441345 20.0899 0.603894 21.372 0.924479C22.6143 1.23509 23.8213 1.69458 24.9595 2.29018C26.0761 2.87443 27.1249 3.58862 28.0768 4.4129C28.9635 5.18068 29.763 6.04125 30.4562 6.97367L16.1806 31.4871Z" fill="#FFD11D"/>
<path d="M17.4399 0.80918C8.83754 0.80918 1.83903 7.60635 1.83903 15.9612C1.83903 23.7306 8.01413 30.2963 15.9809 31.0991L30.0152 7.00002C27.0339 3.11489 22.3686 0.80918 17.4399 0.80918ZM17.4399 0.0735474C22.9796 0.0735474 27.9222 2.82313 30.8952 6.95076L16.382 31.8722C7.961 31.2607 1.10339 24.3321 1.10339 15.9612C1.10339 7.18669 8.41749 0.0735474 17.4399 0.0735474Z" fill="#FFD11D"/>
</svg>
