<svg width="32" height="32" viewBox="0 0 32 32" fill="none" xmlns="http://www.w3.org/2000/svg">
<path d="M8.54279 0.119215C12.0613 1.53101 23.3997 6.42676 25.1643 11.5439C26.2771 14.7708 24.2853 20.2978 22.1749 24.768C22.315 22.5349 21.8885 20.2983 21.0654 18.168C19.8374 14.9895 17.7209 12.027 15.2471 9.61155C13.0284 7.31315 9.94583 5.21938 7.84542 3.79264C7.54322 3.58738 7.26135 3.39592 7.00531 3.21964C6.09738 2.59458 5.94782 1.29238 6.72068 0.507986C7.19647 0.0250913 7.91237 -0.133738 8.54279 0.119215Z" fill="#6B27DD"/>
<path d="M18.0703 14.6921C18.5998 18.6533 16.9329 24.7326 15.9549 28.2993C15.8571 28.6557 15.7663 28.987 15.6852 29.2886C15.4003 30.3483 16.0886 31.4426 17.1776 31.6169C17.8976 31.7321 18.6135 31.4103 18.9814 30.784C19.2324 30.3567 19.5477 29.8094 19.9033 29.1692C21.5984 25.7313 21.4098 22.0289 20.0596 18.5341C19.548 17.21 18.8709 15.9199 18.0703 14.6921Z" fill="#E1309C"/>
</svg>
