<svg width="102" height="103" viewBox="0 0 102 103" fill="none" xmlns="http://www.w3.org/2000/svg">
<path d="M45 13.2C64.2 11.4 78.7 18 86.8 35.7C91.4 45.6 90.9 55.8 86.6 66.3C82.8 64.5 79.4 63.1 76.1 61.2C75.5 60.9 75.3 59 75.6 58.1C79 46.6 74.5 34.9 64 29.1C60.1 26.9 55.8 25.6 51 26.9C51.9 27.3 52.7 27.8 53.6 28.2C57.3 29.9 58.8 33.1 57.7 36.4C56.5 40 53.1 41.9 49.3 40.6C42.5 38.2 35.9 35.4 29.3 32.5C26 31.1 24.8 27.6 26.2 24.1C28.6 17.7 31.2 11.4 33.8 5.2C35.4 1.5 38.7 0.100007 42.1 1.30001C45.7 2.60001 47.3 5.90001 46.2 9.80001C45.9 10.7 45.5 11.7 45 13.2Z" fill="#FE701A"/>
<path d="M63.6 90C44.4 91.8 29.9 85.2 21.8 67.5C17.2 57.6 17.7 47.4 22 36.9C25.8 38.7 29.2 40.1 32.5 42C33.1 42.3 33.3 44.2 33 45.1C29.6 56.6 34.1 68.3 44.6 74.1C48.5 76.3 52.8 77.6 57.6 76.3C56.7 75.9 55.9 75.4 55 75C51.3 73.3 49.8 70.1 50.9 66.8C52.1 63.2 55.5 61.3 59.3 62.6C66.1 65 72.7 67.8 79.3 70.7C82.6 72.1 83.8 75.6 82.4 79.1C80 85.5 77.4 91.8 74.8 98C73.2 101.7 69.9 103.1 66.5 101.9C62.9 100.6 61.3 97.3 62.4 93.4C62.7 92.4 63.1 91.5 63.6 90Z" fill="#009CB1"/>
</svg>
