<svg width="32" height="32" viewBox="0 0 32 32" fill="none" xmlns="http://www.w3.org/2000/svg">
<path d="M8.80383 4.90241L16.999 9.03233L19.4938 0.640015L8.80383 4.90241Z" fill="#006B9D"/>
<path d="M19.0451 0.640015L16.7642 8.83009L27.0003 3.37025L19.0451 0.640015Z" fill="#56C5D0"/>
<path d="M25.0067 10.1952L27.0003 3.37024L16.6375 8.83008L16.7642 9.06688L25.0067 10.1952Z" fill="#0696B7"/>
<path d="M16.7642 23.6077L27.0003 29.305L25.0067 22.48L16.7642 23.6077Z" fill="#56C5D0"/>
<path d="M19.0451 31.3523L27.0003 28.6221L16.7642 23.1622L19.0451 31.3523Z" fill="#0696B7"/>
<path d="M9.25696 27.1136L19.4938 31.3523L17.1392 23.1622L9.25696 27.1136Z" fill="#56C5D0"/>
<path d="M8.82494 27.2576L16.7641 23.3152L7.89246 14.9722L8.82494 27.2576Z" fill="#0696B7"/>
<path d="M4.47998 15.9174L9.25694 27.2576L8.32702 14.9722L4.47998 15.9174Z" fill="#004C7A"/>
<path d="M4.47998 16.3373L8.32702 15.3709L9.25694 4.73474L4.47998 16.3373Z" fill="#006B9D"/>
<path d="M16.999 8.83008L8.32703 14.9722L9.25695 5.01184L16.999 8.83008Z" fill="#5EB6CD"/>
<path d="M7.89246 15.3786L12.5433 16.3373L16.7641 8.83008L7.89246 15.3786Z" fill="#006B9D"/>
<path d="M7.89246 15.1661L16.7641 23.1622L12.5433 15.8995L7.89246 15.1661Z" fill="#5EB6CD"/>
</svg>
