<svg width="32" height="32" viewBox="0 0 32 32" fill="none" xmlns="http://www.w3.org/2000/svg">
<path d="M13.4588 28.7351C13.3467 29.7757 12.7982 30.7603 11.8727 31.3838C11.2609 31.7973 10.5697 31.9952 9.88556 31.9952C8.7203 31.9952 7.57625 31.4205 6.88312 30.3594C6.82996 30.2783 6.78038 30.1957 6.73438 30.1119C6.78124 30.1979 6.83181 30.2825 6.8862 30.3658C7.57921 31.4254 8.72178 31.9996 9.88605 31.9996C10.5698 31.9996 11.261 31.8017 11.8734 31.3881C12.7941 30.7663 13.3431 29.7888 13.4574 28.7511C13.458 28.7456 13.4584 28.7403 13.4588 28.7351ZM10.1052 24.6899C10.1396 24.6931 10.174 24.6956 10.2083 24.6981C10.1742 24.6948 10.1396 24.692 10.1052 24.6899ZM22.6013 20.4452C21.8734 20.9648 21.334 21.7553 21.1454 22.7105C20.9899 23.4949 21.094 24.2715 21.3969 24.9468C21.9453 24.5531 22.354 24.0303 22.6095 23.4464C22.6185 23.3853 22.6291 23.3241 22.6414 23.2629C22.6949 22.9918 22.7765 22.7342 22.8826 22.4921C22.9823 21.811 22.8942 21.0998 22.6013 20.4452ZM18.2032 18.4785C17.9019 18.5793 17.6086 18.7228 17.3317 18.9102C16.4045 19.5343 15.8577 20.5206 15.7456 21.5627C15.7433 21.623 15.7369 21.6836 15.7333 21.7416C15.7301 21.7573 15.7312 21.773 15.729 21.7887C15.6179 22.8308 15.0679 23.8171 14.1417 24.4434C13.5304 24.8567 12.8399 25.055 12.1566 25.055C11.7937 25.055 11.4325 24.999 11.0866 24.8895C11.7946 25.1453 12.4304 25.6274 12.878 26.3133C13.3166 26.9839 13.509 27.7485 13.4767 28.4962C13.4769 28.4938 13.4772 28.4916 13.4774 28.4893C13.5938 27.4515 14.1406 26.4719 15.0624 25.8501C15.6729 25.4368 16.3626 25.2396 17.0453 25.2396C17.0607 25.2396 17.0762 25.2397 17.0915 25.2398C17.2346 25.134 17.3852 25.039 17.542 24.9556H17.5408C18.5252 24.4771 19.2831 23.5465 19.5152 22.377C19.7352 21.2766 19.4415 20.1896 18.8016 19.371C18.7607 19.3196 18.7211 19.2703 18.678 19.2213C18.6616 19.2034 18.6474 19.1877 18.6342 19.1743C18.4654 18.9597 18.3208 18.7261 18.2032 18.4785Z" fill="#36A9E1"/>
<path d="M10.4919 10.1794C10.2405 10.4315 10.0316 10.7161 9.86719 11.0218C10.112 10.776 10.3234 10.4931 10.4919 10.1794ZM13.019 9.12039C12.87 9.12039 12.7206 9.12979 12.5718 9.14885C12.54 9.25693 12.5128 9.36739 12.4905 9.48024C12.2706 10.5873 12.5676 11.6809 13.2143 12.4995C13.2231 12.5129 13.2341 12.5218 13.243 12.5331C13.2825 12.5801 13.3189 12.627 13.3596 12.6695C14.0063 13.4881 14.3045 14.5772 14.0834 15.6865C14.0392 15.9102 13.9756 16.125 13.895 16.3295C14.2832 16.2312 14.6617 16.065 15.0139 15.8274C15.7008 15.3641 16.18 14.7022 16.4274 13.9655C14.5608 13.5018 13.3737 11.6205 13.7555 9.68825C13.7869 9.52939 13.8279 9.37517 13.878 9.22583C13.5973 9.156 13.3087 9.12039 13.019 9.12039ZM18.905 5.851C18.8976 5.90052 18.8913 5.95018 18.8859 5.99995C18.8836 6.06026 18.8803 6.12296 18.8749 6.18113C18.8717 6.19455 18.8704 6.21022 18.8682 6.22815C18.8389 6.50513 18.7783 6.77859 18.6879 7.0424C19.5091 7.39535 20.1555 8.04196 20.5269 8.82937L20.5315 8.82699C20.7314 9.21693 20.9997 9.56876 21.3235 9.86304C21.3467 9.87081 21.3698 9.87871 21.3927 9.88698L21.3915 9.8846C21.7397 9.99532 22.1033 10.052 22.4691 10.052C23.0749 10.052 23.6864 9.89664 24.2427 9.57415C24.1342 9.58431 24.0244 9.58957 23.914 9.58957C23.6776 9.58957 23.4372 9.56575 23.1965 9.51635C22.0923 9.29041 21.2077 8.57033 20.7227 7.62857H20.7217C20.3538 6.8473 19.7155 6.20521 18.905 5.851ZM22.1335 2.75C21.558 2.80341 20.987 2.99889 20.472 3.34733C20.1937 3.53541 19.9497 3.75558 19.7414 3.99995C20.3851 3.90541 20.9857 3.63396 21.4831 3.22721C21.4965 3.22044 21.5073 3.20928 21.5163 3.2005C21.5645 3.16239 21.6086 3.12214 21.6526 3.08189C21.8037 2.95851 21.9646 2.84742 22.1335 2.75Z" fill="#36A9E1"/>
<path d="M3.71875 14.0908C4.14228 14.2829 4.59874 14.3901 5.06112 14.407C5.04743 14.4052 5.03361 14.4037 5.01992 14.4021C5.00327 14.4021 4.98909 14.4 4.97577 14.4C4.91657 14.3909 4.85712 14.3886 4.7978 14.3864C4.42619 14.3452 4.06174 14.2458 3.71875 14.0908ZM8.76236 11.145C8.7372 11.3799 8.68997 11.6117 8.62115 11.8371C8.61498 11.8549 8.60881 11.8729 8.60302 11.8908C8.60425 11.8899 8.60561 11.889 8.60684 11.8883C8.68244 11.6522 8.73449 11.4089 8.76199 11.1624C8.76199 11.1565 8.76212 11.1506 8.76236 11.145ZM10.184 6.19234C9.97387 6.44072 9.72733 6.66441 9.44625 6.85474C8.83291 7.267 8.14298 7.46386 7.45996 7.46386C7.0944 7.46386 6.73069 7.40743 6.38165 7.29747V7.29873C7.09292 7.55326 7.73179 8.03623 8.18134 8.72359C8.62312 9.39878 8.81454 10.1691 8.77963 10.9207C8.78037 10.9132 8.78111 10.9056 8.78197 10.8981C8.89643 9.86032 9.44415 8.88308 10.366 8.2613C10.54 8.14394 10.7202 8.04388 10.9047 7.96075C10.8229 7.31039 10.5696 6.70152 10.184 6.19234ZM17.468 5.55075C16.6456 5.55075 15.868 5.83926 15.2458 6.33891C14.9789 6.59143 14.6757 6.80133 14.3477 6.96132H14.3499C13.961 7.16833 13.6106 7.44655 13.3184 7.78258C13.3984 7.80515 13.4775 7.8306 13.5557 7.85882C13.8787 7.96075 14.2152 8.01667 14.5541 8.02407C15.2258 7.23152 16.2164 6.75155 17.2782 6.75167C17.3036 6.75167 17.3289 6.75193 17.3543 6.75255C17.6476 6.40674 17.87 6.01266 18.0166 5.5935C17.8323 5.56466 17.6492 5.55075 17.468 5.55075ZM14.939 0.720703C15.4102 1.07667 15.7868 1.54423 16.0384 2.07723V2.07498C16.4785 2.92546 17.2396 3.59451 18.1946 3.88201C18.1249 3.34838 17.9375 2.82201 17.6245 2.34342C16.9934 1.37696 15.9913 0.814616 14.939 0.720703Z" fill="#95C11F"/>
<path d="M13.3731 17.2432C12.7017 18.0993 11.6703 18.6239 10.5611 18.6239C10.3252 18.6239 10.0858 18.6002 9.84555 18.5508C9.22394 18.4231 8.67239 18.1393 8.2221 17.7477C8.25812 18.2154 8.20483 18.6852 8.06793 19.1301L8.07114 19.1322C7.70928 20.1768 7.81929 21.3777 8.46828 22.3708C9.16129 23.4305 10.3045 24.0055 11.469 24.0055C12.1526 24.0055 12.8437 23.8074 13.4557 23.3929C15.1121 22.2747 15.5632 20.0047 14.463 18.3205C14.17 17.8722 13.7956 17.5109 13.3731 17.2432ZM7.13689 13.827C6.53564 14.2207 5.86063 14.4094 5.19253 14.4094C5.14912 14.4094 5.1057 14.4086 5.06241 14.407C5.75703 14.4924 6.42426 14.782 6.97051 15.2562C6.94436 14.9238 6.96286 14.5823 7.03082 14.239C7.05857 14.0981 7.09421 13.9606 7.13689 13.827ZM8.78068 10.9207C8.77488 10.9781 8.76921 11.0357 8.76526 11.095C8.76526 11.1117 8.76415 11.1282 8.76354 11.1448C8.77155 11.0704 8.77723 10.9956 8.78068 10.9207ZM5.1818 7.08984C4.49779 7.08984 3.8065 7.2877 3.1939 7.70147C1.53852 8.81964 1.08749 11.092 2.1875 12.7716C2.57958 13.3733 3.11657 13.818 3.71992 14.0907C3.11793 13.8176 2.58217 13.3728 2.19083 12.7724C1.08971 11.0927 1.54185 8.82265 3.19723 7.70448C3.80897 7.28983 4.49989 7.09198 5.1839 7.09198C5.59213 7.09198 5.99802 7.16244 6.38282 7.29961V7.29873C5.99753 7.16081 5.59102 7.08984 5.1818 7.08984Z" fill="#662483"/>
<path d="M5.18493 7.0918C4.50092 7.0918 3.81 7.28965 3.19827 7.7043C1.543 8.82247 1.09074 11.0927 2.19186 12.7722C2.5832 13.3728 3.11896 13.8174 3.72096 14.0905C4.06395 14.2455 4.4284 14.3449 4.8 14.3863C4.85933 14.3884 4.91877 14.3908 4.97798 14.3998C4.9913 14.3998 5.00548 14.4019 5.02213 14.4019C5.03594 14.4034 5.04963 14.4051 5.06332 14.4068C5.10674 14.4085 5.15003 14.4092 5.19344 14.4092C5.86154 14.4092 6.53654 14.2205 7.1378 13.8268C7.39964 13.0075 7.92985 12.3346 8.6051 11.8904C8.61102 11.8724 8.61706 11.8545 8.62323 11.8367C8.69193 11.6114 8.73916 11.3796 8.76445 11.1446C8.76494 11.128 8.76617 11.1114 8.76617 11.0948C8.77024 11.0355 8.77579 10.9778 8.78159 10.9205C8.81649 10.169 8.62496 9.39861 8.1833 8.72342C7.73375 8.03606 7.09488 7.55308 6.38361 7.29856V7.29943C5.99893 7.16226 5.59316 7.0918 5.18493 7.0918Z" fill="#3C1B10"/>
<path d="M13.4751 28.4977C13.4687 28.5582 13.4635 28.6228 13.4581 28.6854C13.4581 28.7024 13.4581 28.7194 13.4571 28.7365C13.4656 28.6571 13.4717 28.5776 13.4751 28.4977ZM10.2068 24.6995C10.5028 24.7273 10.7945 24.792 11.0746 24.8922V24.8878C11.078 24.8889 11.0815 24.8901 11.0849 24.8911C10.8257 24.7974 10.5567 24.7342 10.2836 24.7024C10.2617 24.7024 10.2385 24.7024 10.2165 24.7001C10.2133 24.7 10.2101 24.6997 10.2068 24.6995ZM3.59621 15.082C2.91245 15.082 2.22116 15.2799 1.60819 15.6937C-0.0485524 16.8096 -0.497241 19.0819 0.600554 20.7638C1.21648 21.7076 2.18675 22.2645 3.2119 22.3764C3.27135 22.3808 3.33067 22.383 3.39024 22.392C3.40443 22.392 3.41984 22.392 3.43415 22.3943C4.4593 22.5084 5.42944 23.0654 6.0455 24.0091C6.67031 24.9618 6.79352 26.1068 6.48222 27.1247L6.48321 27.1223C6.15206 28.0832 6.21755 29.1743 6.73271 30.1133C5.83201 28.4613 6.31634 26.3557 7.88897 25.2971C8.50058 24.8815 9.19174 24.6838 9.87489 24.6838C9.95136 24.6838 10.0276 24.6863 10.1036 24.6912C10.0774 24.6887 10.0514 24.6859 10.0252 24.6822C9.0044 24.5658 8.04301 24.009 7.4314 23.0718C6.78032 22.0765 6.6724 20.8755 7.03426 19.8288H7.03328C7.34457 18.8156 7.22025 17.6705 6.59557 16.7155C5.90255 15.6562 4.76048 15.082 3.59621 15.082Z" fill="#BE1622"/>
<path d="M9.87345 24.6836C9.19031 24.6836 8.49914 24.8812 7.88753 25.2968C6.3149 26.3555 5.83069 28.4609 6.73128 30.1131C6.77728 30.1969 6.82674 30.2795 6.88002 30.3606C7.57315 31.4219 8.7172 31.9964 9.88246 31.9964C10.5665 31.9964 11.2576 31.7985 11.8696 31.385C12.795 30.7615 13.3436 29.7769 13.4557 28.7363C13.4567 28.7192 13.4567 28.7022 13.4567 28.6852C13.4621 28.6225 13.4673 28.558 13.4737 28.4975C13.506 27.7499 13.3136 26.9853 12.875 26.3146C12.4274 25.6286 11.7917 25.1465 11.0836 24.8909C11.0802 24.8897 11.0767 24.8886 11.0732 24.8876V24.892C10.7932 24.7918 10.5015 24.7271 10.2055 24.6993C10.1711 24.6968 10.1366 24.6943 10.1024 24.6911C10.0261 24.686 9.9498 24.6836 9.87345 24.6836Z" fill="#280F1E"/>
<path d="M6.96875 15.2568C7.04546 16.2309 7.50488 17.126 8.22046 17.7484C8.17434 17.1488 7.98169 16.5528 7.63068 16.0174C7.44099 15.7268 7.21739 15.4727 6.96875 15.2568ZM9.8671 11.0219C9.58059 11.3098 9.24808 11.5469 8.88486 11.7233C8.78965 11.7742 8.69678 11.8294 8.6065 11.8886C8.59392 11.9277 8.58072 11.967 8.56679 12.0057C8.26992 13.0114 8.40029 14.1381 9.01461 15.0804C9.62622 16.0174 10.5909 16.5744 11.6084 16.6907C11.6733 16.6997 11.7383 16.7041 11.8021 16.7086C11.8229 16.7086 11.8482 16.7086 11.8679 16.711C12.3975 16.7727 12.9129 16.9532 13.3715 17.2439C13.5857 16.9707 13.7632 16.664 13.8949 16.3296C13.609 16.402 13.3179 16.4375 13.0279 16.4375C11.8631 16.4375 10.7198 15.864 10.0264 14.8054C9.26091 13.6331 9.24673 12.1757 9.8671 11.0219ZM12.3538 7.64898C11.864 7.64898 11.3702 7.75104 10.904 7.96131C10.9523 8.34599 10.9405 8.74521 10.8603 9.14694C10.7872 9.51783 10.6611 9.86426 10.4918 10.1795C10.6546 10.016 10.8351 9.86627 11.033 9.73286C11.5119 9.40874 12.0383 9.21703 12.5717 9.14882C12.7241 8.63061 12.9828 8.1687 13.318 7.78301C13.0045 7.69424 12.68 7.64898 12.3538 7.64898ZM10.1202 6.11077C10.1286 6.12155 10.1371 6.13233 10.1455 6.14324C10.1583 6.15967 10.1711 6.17622 10.1837 6.19277C10.1855 6.19064 10.1873 6.18838 10.1891 6.18625C10.1657 6.16142 10.1427 6.13635 10.1202 6.11077ZM9.35316 2.58008C9.31752 2.69744 9.28743 2.81756 9.26313 2.94043C9.04544 4.0408 9.33799 5.12776 9.97723 5.94187C9.98204 5.94702 9.98698 5.95241 9.99203 5.95805C9.34293 5.14055 9.04372 4.04619 9.26449 2.93654C9.28829 2.81505 9.31801 2.69618 9.35316 2.58008Z" fill="#36A9E1"/>
<path d="M12.5724 9.14844C12.039 9.21665 11.5126 9.40836 11.0337 9.73248C10.8359 9.86576 10.6554 10.0156 10.4925 10.1791C10.324 10.4927 10.1126 10.7757 9.86781 11.0215C9.24757 12.1755 9.26163 13.6327 10.0272 14.8049C10.7205 15.8635 11.8638 16.437 13.0286 16.437C13.3186 16.437 13.6096 16.4015 13.8956 16.3291C13.9762 16.1246 14.0397 15.9098 14.084 15.6861C14.305 14.5768 14.0069 13.4876 13.3603 12.6691C13.3196 12.6266 13.2832 12.5797 13.2436 12.5327C13.2347 12.5215 13.2237 12.5126 13.215 12.4991C12.5683 11.6806 12.2712 10.5868 12.4911 9.47983C12.5134 9.36698 12.5406 9.25652 12.5724 9.14844Z" fill="#0B70C7"/>
<path d="M8.60612 11.8879C8.60476 11.8886 8.60353 11.8895 8.6023 11.8904C8.58972 11.9284 8.57775 11.9666 8.56641 12.005C8.58034 11.9661 8.59354 11.927 8.60612 11.8879ZM10.1887 6.18555C10.1869 6.18768 10.1852 6.18994 10.1833 6.19207C10.5687 6.70125 10.8222 7.31012 10.9037 7.96048C11.3699 7.75034 11.8637 7.64815 12.3535 7.64815C12.6797 7.64815 13.0041 7.69342 13.3177 7.78219C13.6099 7.44616 13.9602 7.16806 14.3492 6.96092H14.3469C14.675 6.80093 14.9782 6.59091 15.2451 6.33852C15.2409 6.3419 15.2367 6.34529 15.2325 6.34867C15.1797 6.38666 15.1312 6.43142 15.0829 6.47393C15.0654 6.48735 15.0498 6.50289 15.0345 6.52095C14.4107 7.02537 13.6259 7.31613 12.7974 7.31613C12.5609 7.31613 12.3207 7.29244 12.0798 7.24316C11.329 7.08994 10.6801 6.70903 10.1887 6.18555Z" fill="#20801B"/>
<path d="M8.56643 12.0059C8.31298 12.7147 7.84246 13.3506 7.1772 13.7996C7.16314 13.8091 7.14896 13.8184 7.1349 13.8277C7.09222 13.9612 7.05658 14.0988 7.02871 14.2397C6.96075 14.5829 6.94225 14.9244 6.9684 15.2569C7.21704 15.4729 7.44064 15.727 7.63033 16.0175C7.98146 16.5529 8.17411 17.149 8.22011 17.7486C8.67028 18.1401 9.22195 18.4239 9.84356 18.5517C10.0838 18.6009 10.3232 18.6248 10.5591 18.6248C11.6683 18.6248 12.6997 18.1002 13.3712 17.244C12.9125 16.9534 12.3972 16.7728 11.8676 16.7111C11.8479 16.7088 11.8226 16.7088 11.8017 16.7088C11.738 16.7044 11.673 16.6999 11.6081 16.6908C10.5906 16.5746 9.62587 16.0175 9.01426 15.0805C8.39993 14.1383 8.26957 13.0114 8.56643 12.0059Z" fill="#161874"/>
<path d="M8.60402 11.8906C7.92864 12.3349 7.39856 13.0078 7.13672 13.8271C7.15078 13.8178 7.16496 13.8085 7.17902 13.799C7.84429 13.3498 8.31468 12.714 8.56825 12.0052C8.57948 11.9669 8.59144 11.9286 8.60402 11.8906Z" fill="#0D120E"/>
<path d="M21.3939 24.9474C21.3665 24.9671 21.3389 24.9864 21.3108 25.0053C20.6984 25.4182 20.0068 25.616 19.3224 25.616C18.9578 25.616 18.5953 25.5599 18.2484 25.4503C17.8759 25.3169 17.4837 25.2457 17.0884 25.2405C16.3864 25.7599 15.8656 26.5394 15.6811 27.4701C15.2884 29.4518 16.548 31.3817 18.4981 31.7824C18.7373 31.8313 18.9759 31.8549 19.211 31.8549C20.8892 31.8549 22.393 30.6555 22.7374 28.9173C22.9575 27.808 22.6582 26.7188 22.0125 25.9024C21.972 25.8579 21.9323 25.8109 21.8948 25.766C21.8872 25.7526 21.8771 25.7416 21.8685 25.728C21.679 25.4895 21.5195 25.2271 21.3939 24.9474ZM21.4438 13.2344C19.7652 13.2344 18.2617 14.4322 17.9151 16.1691C17.7538 16.9816 17.8709 17.7857 18.2002 18.4791C18.5659 18.3567 18.9434 18.2971 19.3189 18.2971C20.4832 18.2971 21.6258 18.8713 22.3182 19.9329C22.4265 20.0987 22.5197 20.27 22.5983 20.4456C22.7276 20.3532 22.8631 20.2694 23.0035 20.1948L23.0013 20.1926C23.9826 19.7117 24.7383 18.788 24.9703 17.616C25.3632 15.6366 24.1014 13.7064 22.1545 13.3061C21.916 13.2577 21.6782 13.2344 21.4438 13.2344Z" fill="#E6007E"/>
<path d="M19.3203 18.2969C18.9449 18.2969 18.5673 18.3566 18.2016 18.4788C18.3192 18.7264 18.4638 18.9599 18.6326 19.1747C18.6458 19.1881 18.6601 19.2038 18.6764 19.2217C18.7195 19.2709 18.759 19.3201 18.8 19.3714C19.4398 20.19 19.7336 21.277 19.5136 22.3774C19.2815 23.547 18.5237 24.4776 17.5391 24.956H17.5404C17.3836 25.0394 17.2329 25.1343 17.0898 25.2403C17.4853 25.2454 17.8773 25.3165 18.2498 25.45C18.5969 25.5596 18.9593 25.6158 19.3238 25.6158C20.008 25.6158 20.6998 25.4181 21.3122 25.005C21.3403 24.986 21.3679 24.9668 21.3953 24.9471C21.0924 24.2717 20.9883 23.4952 21.1438 22.7108C21.3324 21.7556 21.8717 20.9649 22.5997 20.4455C22.5211 20.2699 22.4279 20.0985 22.3196 19.9328C21.627 18.871 20.4846 18.2969 19.3203 18.2969Z" fill="#31006F"/>
<path d="M31.9987 12.6488C32.0006 12.898 31.9773 13.151 31.9268 13.405C31.5814 15.1429 30.0802 16.3424 28.4013 16.3424C28.1659 16.3424 27.927 16.3189 27.6874 16.27C26.9252 16.1143 26.2687 15.7237 25.7747 15.1874C26.4018 16.003 26.6864 17.0795 26.4685 18.1688C26.2354 19.3408 25.4786 20.2688 24.4929 20.7453C23.7907 21.1221 23.2138 21.7298 22.8796 22.4929C22.8315 22.8212 22.7399 23.1425 22.6065 23.4472C22.3235 25.3608 23.5655 27.1855 25.4533 27.5712C25.6942 27.6207 25.9342 27.6444 26.1706 27.6444C27.849 27.6444 29.3485 26.4456 29.6937 24.7107C29.9126 23.6014 29.6144 22.51 28.9698 21.6937C28.9281 21.649 28.8906 21.6021 28.8533 21.555L28.8249 21.5214C28.1779 20.7029 27.8799 19.6113 28.0988 18.5021C28.3232 17.3772 29.0294 16.4825 29.9577 15.9861L29.9555 15.9837C30.9389 15.5029 31.6956 14.5792 31.9266 13.4096C31.9776 13.1539 32.0008 12.8994 31.9987 12.6488ZM26.1077 9.86523C26.0775 9.89056 26.0478 9.91639 26.0184 9.9426C26.0497 9.91739 26.0791 9.89131 26.1077 9.86523Z" fill="#95C11F"/>
<path d="M22.8824 22.4922C22.7764 22.7343 22.6947 22.992 22.6412 23.263C22.629 23.3242 22.6184 23.3854 22.6094 23.4465C22.7427 23.1419 22.8343 22.8206 22.8824 22.4922Z" fill="#20801B"/>
<path d="M25.5079 14.8588C25.5341 14.8952 25.5613 14.9309 25.5889 14.9661C25.5614 14.931 25.5343 14.8952 25.5079 14.8588ZM25.1562 14.2656C25.1738 14.3025 25.1918 14.3391 25.2104 14.3753C25.193 14.3385 25.175 14.3019 25.1562 14.2656Z" fill="#95C11F"/>
<path d="M20.1937 9.67729C19.5092 9.67729 18.8171 9.87565 18.205 10.2887C17.283 10.9103 16.7353 11.8877 16.6188 12.9276C16.6121 12.9926 16.6056 13.0551 16.6011 13.1222C16.6011 13.1445 16.5999 13.1669 16.5999 13.1869C16.5705 13.4515 16.5129 13.7121 16.4283 13.9642C16.4758 13.976 16.5239 13.9869 16.5724 13.9969C16.8107 14.045 17.0483 14.0682 17.2827 14.0682C18.1138 14.0682 18.9023 13.7763 19.527 13.272C19.5435 13.2586 19.5602 13.2407 19.5754 13.225C19.6239 13.1825 19.6734 13.14 19.7251 13.0975C20.3486 12.5942 21.1351 12.2997 21.9642 12.2997C22.1999 12.2997 22.4388 12.3234 22.6785 12.3729C23.7838 12.6006 24.6699 13.3196 25.1552 14.2642C24.828 13.5718 24.7119 12.7696 24.8729 11.959C25.0347 11.1464 25.4506 10.451 26.0199 9.94135C26.0161 9.94448 26.0121 9.94762 26.0082 9.95062C25.9971 9.95953 25.9872 9.96856 25.9749 9.97959C25.3486 10.4912 24.5584 10.7876 23.7255 10.7876C23.4878 10.7876 23.2469 10.7635 23.005 10.7133C22.357 10.5821 21.7846 10.2798 21.3246 9.86173C20.9602 9.73985 20.5783 9.67729 20.1937 9.67729ZM17.3551 6.75195C17.1454 6.99909 16.8994 7.22177 16.6186 7.41097C16.0068 7.82649 15.3157 8.02435 14.6319 8.02435C14.6062 8.02435 14.5804 8.0241 14.5548 8.0236C14.2619 8.36916 14.0297 8.77427 13.8789 9.2249C13.9931 9.25337 14.1061 9.28747 14.2173 9.32709V9.32483C14.5674 9.43567 14.9323 9.4926 15.2991 9.4926C15.9825 9.4926 16.6722 9.29512 17.284 8.88185C17.9627 8.42245 18.4395 7.76807 18.6888 7.04134C18.4696 6.94718 18.2379 6.87383 17.9957 6.8243C17.7811 6.78029 17.5667 6.75659 17.3551 6.75195Z" fill="#BE1622"/>
<path d="M18.6874 7.04102C18.4381 7.76774 17.9613 8.42212 17.2826 8.88153C16.6707 9.29479 15.9809 9.49227 15.2976 9.49227C14.9308 9.49227 14.5659 9.43535 14.2159 9.32451V9.32677C14.1046 9.28714 13.9917 9.25304 13.8775 9.22458C13.8275 9.37379 13.7864 9.52813 13.755 9.68699C13.3731 11.6193 14.5602 13.5005 16.4269 13.9642C16.5115 13.7122 16.569 13.4515 16.5984 13.187C16.5984 13.1669 16.5997 13.1446 16.5997 13.1223C16.604 13.0552 16.6107 12.9925 16.6173 12.9277C16.7339 11.8877 17.2817 10.9104 18.2035 10.2887C18.8156 9.8757 19.5078 9.67734 20.1923 9.67734C20.5768 9.67734 20.9588 9.73991 21.3231 9.86216C20.9992 9.56775 20.7309 9.21605 20.5311 8.82611L20.5265 8.82849C20.1549 8.0407 19.5085 7.3941 18.6874 7.04102Z" fill="#280F1E"/>
<path d="M17.2788 6.75195C16.217 6.75195 15.2262 7.2318 14.5547 8.02435C14.5803 8.02485 14.6061 8.0251 14.6318 8.0251C15.3157 8.0251 16.0067 7.82725 16.6186 7.41172C16.8991 7.22239 17.1453 6.99984 17.355 6.75271C17.3295 6.75233 17.3042 6.75195 17.2788 6.75195Z" fill="#6F1104"/>
<path d="M25.5896 14.9661C25.6494 15.0424 25.7122 15.1162 25.7778 15.1876C25.7715 15.1794 25.7652 15.1713 25.7588 15.1631C25.7192 15.1138 25.6774 15.0624 25.6335 15.0154C25.6182 14.9975 25.605 14.9819 25.5896 14.9661ZM25.2109 14.3752C25.212 14.3777 25.2133 14.3801 25.2144 14.3826C25.3004 14.5487 25.3987 14.708 25.5084 14.8588C25.3972 14.7057 25.2976 14.544 25.2109 14.3752ZM28.4023 9.02344C27.5665 9.02344 26.7736 9.3201 26.1451 9.83342C26.1337 9.84408 26.1223 9.85473 26.1108 9.86527C26.7432 9.33502 27.5487 9.02657 28.3999 9.02657C28.6359 9.02657 28.8758 9.05039 29.1162 9.09967C30.8123 9.44448 31.9873 10.9552 32.0018 12.6488C31.9886 10.9557 30.8113 9.4441 29.114 9.09528C28.8752 9.04688 28.637 9.02344 28.4023 9.02344Z" fill="#BE1622"/>
<path d="M28.398 9.02539C27.5469 9.02539 26.7414 9.33384 26.1089 9.86408C26.0804 9.89029 26.0508 9.91637 26.0196 9.94145C25.4503 10.451 25.0344 11.1464 24.8726 11.9591C24.7117 12.7697 24.8277 13.5718 25.1549 14.2643C25.1736 14.3005 25.1916 14.3372 25.2091 14.374C25.2958 14.5428 25.3952 14.7045 25.5066 14.8575C25.533 14.8939 25.5601 14.9297 25.5877 14.965C25.6031 14.9806 25.6163 14.9963 25.6317 15.0142C25.6755 15.0613 25.7173 15.1127 25.7571 15.1619C25.7635 15.1701 25.7698 15.1782 25.776 15.1864C26.27 15.7227 26.9265 16.1134 27.6887 16.269C27.9283 16.3179 28.1671 16.3414 28.4026 16.3414C30.0816 16.3414 31.5829 15.142 31.9281 13.4039C31.9786 13.15 32.0018 12.897 32 12.6477C31.9854 10.9542 30.8104 9.44342 29.1143 9.09861C28.8739 9.04909 28.6341 9.02539 28.398 9.02539Z" fill="#6F1104"/>
<path d="M18.1965 3.88189C18.2721 4.46066 18.2095 5.04821 18.0188 5.59338C18.0758 5.60228 18.1329 5.61257 18.19 5.62435C18.4412 5.67513 18.681 5.75149 18.9074 5.85042C19.0076 5.17485 19.2914 4.53025 19.7438 3.99938C19.577 4.02383 19.4074 4.03649 19.236 4.03649C18.9991 4.03649 18.7588 4.01254 18.5176 3.96251C18.4083 3.94044 18.3012 3.91349 18.1965 3.88189ZM23.9122 2.27158C23.2768 2.27158 22.6671 2.44298 22.1358 2.74955C22.2447 2.73939 22.3536 2.73438 22.4624 2.73438C23.6279 2.73438 24.7715 3.30926 25.4639 4.36913C26.5637 6.05329 26.1128 8.32111 24.4562 9.44167C24.3869 9.48856 24.3164 9.5327 24.2451 9.57395C25.7864 9.42951 27.1159 8.27748 27.4383 6.65325C27.8332 4.67382 26.5705 2.74365 24.6225 2.3433C24.3841 2.2949 24.1463 2.27158 23.9122 2.27158ZM12.7907 0C11.229 0 9.8213 1.03843 9.35547 2.57953C9.82303 1.03918 11.2294 0.00388692 12.7883 0.00388692C13.0245 0.00388692 13.2644 0.0277099 13.5049 0.0771112C14.0385 0.186822 14.5207 0.411134 14.9314 0.719704C14.9345 0.719955 14.9377 0.720206 14.9409 0.720582C14.5285 0.408877 14.0436 0.18281 13.5071 0.0732243C13.2668 0.023823 13.0269 0 12.7907 0Z" fill="#662483"/>
<path d="M22.4613 2.73438C22.3526 2.73438 22.2435 2.73939 22.1348 2.74955C21.9659 2.84697 21.8051 2.95793 21.6538 3.08144C21.6097 3.12156 21.5656 3.16193 21.5175 3.20005C21.5086 3.20895 21.4977 3.22011 21.4843 3.22676C20.9869 3.63338 20.3863 3.90496 19.7426 3.9995C19.2902 4.53038 19.0064 5.17498 18.9062 5.85054C19.7168 6.20475 20.3551 6.84685 20.7232 7.62824H20.7242C21.2093 8.56987 22.0937 9.28995 23.198 9.51602C23.4388 9.56555 23.6791 9.58925 23.9156 9.58925C24.026 9.58925 24.1356 9.58398 24.2443 9.57382C24.3155 9.53245 24.386 9.48831 24.4554 9.44154C26.112 8.32099 26.5629 6.05316 25.463 4.36901C24.7704 3.30926 23.6269 2.73438 22.4613 2.73438Z" fill="#161874"/>
<path d="M14.9297 0.720703C16.0182 1.53858 16.6049 2.94853 16.3189 4.38568C16.1652 5.16582 15.7775 5.837 15.2459 6.33966C15.868 5.84001 16.6456 5.5515 17.4681 5.5515C17.6493 5.5515 17.8326 5.56542 18.017 5.59426C18.2077 5.04909 18.2704 4.46154 18.1947 3.88276C17.2397 3.59526 16.4786 2.92633 16.0386 2.07573V2.07799C15.787 1.54498 15.4103 1.07742 14.9392 0.721455C14.936 0.721205 14.9328 0.720954 14.9297 0.720703Z" fill="#3C1B10"/>
<path d="M9.99219 5.95703C10.0335 6.00907 10.0763 6.0601 10.1205 6.10975C10.0885 6.06925 10.056 6.02938 10.0247 5.99226C10.0136 5.98035 10.0025 5.96832 9.99219 5.95703Z" fill="#662483"/>
<path d="M12.7851 0.00390625C11.2262 0.00390625 9.81978 1.0392 9.35222 2.57955C9.3172 2.69565 9.28747 2.81451 9.26342 2.93601C9.04266 4.04579 9.34186 5.14001 9.99097 5.95752C10.0013 5.9688 10.0124 5.98084 10.0235 5.99275C10.0547 6.02986 10.0874 6.06974 10.1192 6.11023C10.1419 6.13581 10.1647 6.16089 10.1881 6.18572C10.666 5.61798 10.9538 4.92172 11.0308 4.1975C11.0333 4.18408 11.0343 4.16841 11.0354 4.15286C11.0397 4.09243 11.0462 4.03199 11.0473 3.97156C11.1596 2.9315 11.7085 1.94523 12.6348 1.3168C13.2474 0.904038 13.9384 0.706433 14.6218 0.706433C14.7242 0.706433 14.8263 0.710821 14.928 0.719598C14.5173 0.411028 14.0351 0.186716 13.5015 0.0770052C13.2612 0.0277292 13.0213 0.00390625 12.7851 0.00390625Z" fill="#161874"/>
<path d="M14.6251 0.707031C13.9416 0.707031 13.2506 0.904762 12.6381 1.3174C11.7119 1.94583 11.163 2.9321 11.0507 3.97216C11.0496 4.03259 11.043 4.0929 11.0387 4.15346C11.0376 4.16901 11.0365 4.18468 11.0341 4.1981C10.9572 4.92232 10.6692 5.61857 10.1914 6.18631C10.6828 6.70979 11.3316 7.09071 12.0826 7.24405C12.3235 7.29333 12.5636 7.31703 12.8002 7.31703C13.6286 7.31703 14.4135 7.02626 15.0373 6.52184C15.0527 6.50379 15.0681 6.48824 15.0857 6.47482C15.134 6.43232 15.1825 6.38755 15.2353 6.34956C15.2395 6.34618 15.2437 6.34279 15.2478 6.33941C15.7794 5.83662 16.1672 5.16544 16.3209 4.38542C16.6069 2.94827 16.0202 1.5382 14.9316 0.720447C14.8296 0.71142 14.7274 0.707031 14.6251 0.707031Z" fill="#0D120E"/>
</svg>
