<svg id="Layer_1" data-name="Layer 1" xmlns="http://www.w3.org/2000/svg" viewBox="0 0 1000 550"><defs><style>.cls-1{fill:#f16334;}</style></defs><circle class="cls-1" cx="742.67" cy="412.51" r="14.65"/><circle class="cls-1" cx="704.94" cy="412.51" r="14.65"/><circle class="cls-1" cx="669.29" cy="412.51" r="14.65"/><circle class="cls-1" cx="488.56" cy="412.51" r="14.65"/><circle class="cls-1" cx="89.9" cy="225.67" r="14.65"/><path class="cls-1" d="M850,224.67a63.3,63.3,0,0,0-85-84.24,113.46,113.46,0,0,0-225.28,19.25,10.78,10.78,0,1,0,21.56,0,91.9,91.9,0,1,1,183.8,0c0,.06,0,.12,0,.18a10.77,10.77,0,0,0,18.39,7.82,41.75,41.75,0,1,1,59,59,10.79,10.79,0,0,0,7.62,18.41,9.4,9.4,0,0,1,2.29,0,118.33,118.33,0,1,1,0,236.65H38a10.79,10.79,0,0,0,0,21.57H832.41A139.9,139.9,0,0,0,972.29,363.46C972.29,292.28,918.86,233.35,850,224.67Z"/><path class="cls-1" d="M704.94,262.36H653.6v.08a10.39,10.39,0,0,0-2.09.11,6.72,6.72,0,0,0-2,.64,6.08,6.08,0,0,0-1.83,1,7,7,0,0,0-1.62,1.4,9.48,9.48,0,0,0-2.37,3.46,10.67,10.67,0,0,0-.86,4.09,10.26,10.26,0,0,0,.86,4.1,8.92,8.92,0,0,0,2.37,3.56,10.61,10.61,0,0,0,7.55,3.12h0v0h51.34a40.61,40.61,0,0,1,40.56,40.56V365H603.3a40.61,40.61,0,0,1-40.56-40.56V222c0-.06,0-.12,0-.18a10.81,10.81,0,0,0-15-9.91,10.54,10.54,0,0,0-3.45,2.26,10.85,10.85,0,0,0-3.13,7.65h0V324.48a62.17,62.17,0,0,0,61.08,62.07v.05H757.32v-.21a10.67,10.67,0,0,0,9.74-10.57V324.48A62.19,62.19,0,0,0,704.94,262.36Z"/><path class="cls-1" d="M507.25,265.56a11,11,0,0,0-3.55-2.37,10.36,10.36,0,0,0-6.26-.64,7,7,0,0,0-1.94.64,8.58,8.58,0,0,0-1.94,1,18.51,18.51,0,0,0-1.61,1.4,10.61,10.61,0,0,0-2.27,3.46,9,9,0,0,0-.86,4.09v0h0v51.34A40.61,40.61,0,0,1,448.23,365H408.72V324.48h.07a62.19,62.19,0,0,0-61.67-62.1v0H295.78a40.49,40.49,0,0,1-38.92-29.77H397.43v0a13.53,13.53,0,0,0,4.16-.75,11.07,11.07,0,0,0,5.82-5.93,11.41,11.41,0,0,0,0-8.19,12.62,12.62,0,0,0-2.36-3.56,10.76,10.76,0,0,0-7.62-3V211H243.93v.15a11.2,11.2,0,0,0-3.63.71,10.54,10.54,0,0,0-3.45,2.26,11,11,0,0,0-3.23,7.65c0,.08,0,.15,0,.23a62.18,62.18,0,0,0,62.11,61.9h50.89a40.61,40.61,0,0,1,40.56,40.56h-.07V365H243.92a40.61,40.61,0,0,1-40.56-40.56V221.8h0a10.84,10.84,0,0,0-3.12-7.65,10.58,10.58,0,0,0-3.46-2.26,11,11,0,0,0-8.3,0,10.54,10.54,0,0,0-3.45,2.26,11,11,0,0,0-3.23,7.65c0,.06,0,.1,0,.15V324.48a62.2,62.2,0,0,0,62.13,62.12H448.23a62.2,62.2,0,0,0,62.13-62.12V273.21s0-.06,0-.1A10.91,10.91,0,0,0,507.25,265.56Z"/><path class="cls-1" d="M151.46,221.79a10.84,10.84,0,0,0-3.12-7.65,10.54,10.54,0,0,0-3.45-2.26,11,11,0,0,0-8.3,0,12.2,12.2,0,0,0-3.56,2.26,11.34,11.34,0,0,0-3.13,7.65c0,.06,0,.1,0,.15V324.48A40.6,40.6,0,0,1,89.38,365H48.81V221.84a.43.43,0,0,0,0-.05,11.33,11.33,0,0,0-3.12-7.65,12.33,12.33,0,0,0-3.56-2.26,10.76,10.76,0,0,0-8.19,0,9.87,9.87,0,0,0-3.56,2.26,11.34,11.34,0,0,0-3.13,7.65h0v154h0v0a10.62,10.62,0,0,0,3.13,7.55A10.77,10.77,0,0,0,34,385.78a10.52,10.52,0,0,0,4.08.76v.06H89.38a62.19,62.19,0,0,0,62.12-62.12V221.8h0Z"/></svg>