<svg width="32" height="32" viewBox="0 0 32 32" fill="none" xmlns="http://www.w3.org/2000/svg">
<path d="M32 16C32 7.16344 24.8366 0 16 0C7.16344 0 0 7.16344 0 16C0 24.8366 7.16344 32 16 32C24.8366 32 32 24.8366 32 16Z" fill="url(#paint0_linear_2582_91)"/>
<path d="M8.6609 16.6833L19.5673 5.85199C19.771 5.64964 20.099 5.89588 19.9614 6.14795L15.9021 13.5879C15.8115 13.7538 15.9316 13.9562 16.1206 13.9562H23.1357C23.3617 13.9562 23.4708 14.233 23.3056 14.3873L11.0126 25.8602C10.7922 26.0659 10.4641 25.7761 10.6411 25.532L16.4603 17.5042C16.5796 17.3396 16.462 17.109 16.2587 17.109H8.83637C8.61411 17.109 8.50319 16.84 8.6609 16.6833V16.6833Z" fill="white"/>
<defs>
<linearGradient id="paint0_linear_2582_91" x1="16" y1="0" x2="16" y2="32" gradientUnits="userSpaceOnUse">
<stop stop-color="#7BCBD4"/>
<stop offset="1" stop-color="#29C6B7"/>
</linearGradient>
</defs>
</svg>
