<svg width="32" height="32" viewBox="0 0 32 32" fill="none" xmlns="http://www.w3.org/2000/svg">
<path d="M20.9005 19.5737C22.0231 20.0617 22.5565 21.3791 21.8658 22.3844C20.4805 24.4027 18.4824 25.9215 16.1669 26.7161C13.8515 27.5107 11.3418 27.5388 9.00914 26.7964C6.67647 26.0539 4.64474 24.5803 3.21456 22.5936C1.78438 20.6068 1.03171 18.2125 1.06791 15.7648C1.10412 13.317 1.92726 10.946 3.41557 9.00242C4.90388 7.05884 6.97829 5.64595 9.3319 4.97281C11.6855 4.29967 14.1933 4.40202 16.4842 5.26473C18.7751 6.12743 20.7275 7.70466 22.0525 9.76307C22.7138 10.7924 22.1405 12.0937 21.0045 12.5444C19.8685 12.9951 18.6045 12.4057 17.8231 11.4777C16.9812 10.4688 15.8714 9.71833 14.6215 9.31274C13.3716 8.90714 12.0326 8.86295 10.7587 9.18526C9.48478 9.50757 8.32787 10.1833 7.42127 11.1345C6.51468 12.0857 5.89529 13.2737 5.63449 14.5616C5.37369 15.8495 5.48209 17.1848 5.9472 18.4138C6.41231 19.6428 7.21521 20.7153 8.26335 21.5079C9.3115 22.3004 10.5622 22.7806 11.8715 22.8932C13.1807 23.0059 14.495 22.7463 15.6631 22.1444C16.4306 21.7505 17.1172 21.2159 17.6871 20.5684C18.4871 19.6564 19.7805 19.1017 20.8871 19.5844L20.9005 19.5737Z" fill="#0C63E0"/>
<path d="M18.4365 15.8724C18.4228 17.0244 18.0687 18.1466 17.4187 19.0978C16.7688 20.049 15.852 20.7868 14.7837 21.2182C13.7155 21.6496 12.5435 21.7554 11.4152 21.5223C10.287 21.2892 9.2529 20.7276 8.44308 19.9081C7.63326 19.0887 7.0839 18.048 6.86413 16.9171C6.64435 15.7862 6.76398 14.6156 7.20796 13.5525C7.65194 12.4894 8.40044 11.5814 9.35926 10.9427C10.3181 10.304 11.4444 9.96314 12.5965 9.96306C13.3682 9.96655 14.1318 10.1223 14.8432 10.4213C15.5547 10.7204 16.2002 11.1569 16.7427 11.7059C17.2852 12.2548 17.7141 12.9054 18.0047 13.6204C18.2954 14.3353 18.4421 15.1006 18.4365 15.8724V15.8724Z" fill="#0C63E0"/>
<path d="M30.9938 15.8724C31.0081 16.7081 30.7733 17.5292 30.3194 18.231C29.8655 18.9329 29.213 19.4837 28.445 19.8135C27.677 20.1433 26.8282 20.237 26.0067 20.0827C25.1852 19.9285 24.4282 19.5333 23.8322 18.9473C23.2361 18.3614 22.8278 17.6114 22.6594 16.7927C22.491 15.974 22.5701 15.1237 22.8866 14.3501C23.2031 13.5765 23.7426 12.9146 24.4365 12.4487C25.1304 11.9827 25.9473 11.7338 26.7831 11.7337C27.8902 11.7245 28.9557 12.1553 29.7453 12.9314C30.5349 13.7074 30.9839 14.7653 30.9938 15.8724V15.8724Z" fill="#0C63E0"/>
<path d="M20.4285 17.1257C18.4791 17.1257 17.8445 18.8271 16.9618 19.7924V11.9577C17.7005 12.7577 18.6151 14.5417 20.5085 14.5417C22.4018 14.5417 23.4658 13.1391 24.1938 12.6217V19.1204C23.2365 18.3204 22.3805 17.1257 20.4285 17.1257Z" fill="#0C63E0"/>
</svg>
