<svg width="32" height="32" viewBox="0 0 32 32" fill="none" xmlns="http://www.w3.org/2000/svg">
<path d="M1.64114 2.34482H0.904724L10.5527 8.52109L31.5909 5.70495C31.5909 5.70495 2.50046 2.34482 1.64114 2.34482Z" fill="#B4BE35"/>
<path d="M13.0566 10.1239L10.5529 8.52109L0.413818 9.87833L7.66016 14.6197L31.5912 5.70496L13.0566 10.1239Z" fill="#019EDC"/>
<path d="M31.5911 5.70496L10.5529 8.52109L13.0564 10.1239L31.5911 5.70496Z" fill="#7B9C4C"/>
<path d="M31.5911 5.70496L10.3561 16.3839L7.66007 14.6197L4.09607 15.9474V29.5501L14.775 20.2888V15.9474L31.5911 5.70496Z" fill="#EC7923"/>
<path d="M31.5909 5.70496L7.65985 14.6197L10.3559 16.3839L31.5909 5.70496Z" fill="#B97331"/>
<path d="M31.5909 5.70496L14.7748 20.2888V27.431L21.7396 18.4325L21.7712 15.7399L31.5909 5.70496Z" fill="#BB4098"/>
<path d="M14.7748 15.9474V20.2888L31.5909 5.70496L14.7748 15.9474Z" fill="#AF3A71"/>
<path d="M31.5909 5.70496L21.7397 18.4324L21.6486 26.2034L31.5909 5.70496Z" fill="#F9E016"/>
<path d="M21.7712 15.7396L21.7397 18.4323L31.5908 5.70483L21.7712 15.7396Z" fill="#D69A27"/>
</svg>
