<svg width="32" height="32" viewBox="0 0 32 32" fill="none" xmlns="http://www.w3.org/2000/svg">
<path fill-rule="evenodd" clip-rule="evenodd" d="M17.7884 29.818C14.0848 29.818 10.6028 28.3807 7.98397 25.7708C5.3651 23.1608 3.92285 19.6908 3.92285 15.9998C3.92285 12.3089 5.3651 8.8388 7.98397 6.22894C10.6028 3.61902 14.0848 2.18164 17.7884 2.18164C19.7215 2.18164 21.5924 2.57076 23.3493 3.33812C25.0459 4.07912 26.556 5.13594 27.8377 6.47918C28.171 6.82845 28.1571 7.38083 27.8066 7.71299C27.4562 8.04509 26.9019 8.0313 26.5685 7.68197C25.4481 6.50775 24.1285 5.58411 22.6463 4.93678C21.1125 4.26682 19.478 3.9271 17.7884 3.9271C11.1087 3.9271 5.67429 9.34289 5.67429 15.9998C5.67429 22.6568 11.1087 28.0725 17.7884 28.0725C19.4783 28.0725 21.1131 27.7327 22.6472 27.0626C24.1296 26.4149 25.4494 25.4909 26.5698 24.3163C26.9031 23.9669 27.4573 23.9531 27.8079 24.285C28.1584 24.6171 28.1724 25.1695 27.8392 25.5189C26.5575 26.8626 25.0473 27.9198 23.3504 28.6611C21.5932 29.4288 19.7219 29.818 17.7884 29.818Z" fill="#FF6C36"/>
<path fill-rule="evenodd" clip-rule="evenodd" d="M17.7883 27.0544C11.6718 27.0544 6.6958 22.0954 6.6958 15.9999C6.6958 9.90438 11.6718 4.94531 17.7883 4.94531C19.3348 4.94531 20.8315 5.25659 22.2369 5.8704C23.5942 6.46328 24.8024 7.30872 25.8277 8.38333C26.0499 8.61618 26.0406 8.98447 25.8069 9.20591C25.5733 9.42729 25.2037 9.41804 24.9815 9.1852C23.0887 7.20149 20.534 6.10895 17.7883 6.10895C12.3157 6.10895 7.86343 10.546 7.86343 15.9999C7.86343 21.4537 12.3157 25.8908 17.7883 25.8908C19.2661 25.8908 20.6877 25.5751 22.0135 24.9524C22.3051 24.8154 22.6531 24.94 22.7905 25.2307C22.9279 25.5214 22.8029 25.868 22.5112 26.005C21.0286 26.7014 19.4395 27.0544 17.7883 27.0544Z" fill="#FF6C36"/>
<path fill-rule="evenodd" clip-rule="evenodd" d="M29.0471 22.5155C29.4481 22.7851 29.5539 23.3274 29.2835 23.727C29.013 24.1266 28.4687 24.2321 28.0677 23.9625C27.6668 23.6931 27.561 23.1506 27.8315 22.751C28.1019 22.3514 28.6462 22.246 29.0471 22.5155Z" fill="#FF6C36"/>
<path fill-rule="evenodd" clip-rule="evenodd" d="M17.7888 32C13.5004 32 9.4686 30.3357 6.43627 27.3137C3.40383 24.2917 1.73389 20.2737 1.73389 16C1.73389 11.7263 3.40383 7.70834 6.43627 4.68631C9.4686 1.66429 13.5004 0 17.7888 0C20.0272 0 22.1935 0.450502 24.2275 1.33888C26.192 2.19689 27.9406 3.42063 29.4249 4.97612C29.647 5.20896 29.6377 5.57725 29.404 5.79869C29.1704 6.02007 28.8008 6.01082 28.5786 5.77798C27.202 4.33519 25.5804 3.20023 23.7588 2.40465C21.8735 1.58121 19.8649 1.16364 17.7888 1.16364C13.8122 1.16364 10.0737 2.70691 7.2619 5.50912C4.45002 8.31139 2.90151 12.0371 2.90151 16C2.90151 19.9629 4.45002 23.6887 7.2619 26.4909C10.0737 29.2931 13.8122 30.8364 17.7888 30.8364C18.3725 30.8364 18.9604 30.8024 19.5361 30.7354C19.8556 30.6984 20.1463 30.9265 20.1836 31.2457C20.221 31.5649 19.9917 31.8538 19.6715 31.8911C19.0511 31.9633 18.4176 32 17.7888 32Z" fill="#FF6C36"/>
<path fill-rule="evenodd" clip-rule="evenodd" d="M21.3383 31.5925C21.0735 31.5925 20.8336 31.4116 20.7705 31.1435C20.6968 30.8307 20.8915 30.5176 21.2054 30.4441C23.1997 29.9775 25.0464 29.1182 26.6943 27.8903C26.9525 27.6979 27.3184 27.7505 27.5115 28.0079C27.7046 28.2652 27.6517 28.6298 27.3935 28.8223C25.6161 30.1467 23.624 31.0735 21.4723 31.5769C21.4274 31.5875 21.3825 31.5925 21.3383 31.5925Z" fill="#FF6C36"/>
<path fill-rule="evenodd" clip-rule="evenodd" d="M28.3906 27.8103C28.2352 27.8103 28.0803 27.7489 27.9654 27.6272C27.7444 27.3933 27.7555 27.0251 27.9903 26.8048C28.2093 26.5993 28.4245 26.3849 28.6299 26.1674C28.8507 25.9335 29.2202 25.9222 29.4551 26.1426C29.6899 26.3628 29.701 26.731 29.48 26.9651C29.2587 27.1994 29.0267 27.4306 28.7906 27.6521C28.6779 27.7578 28.5341 27.8103 28.3906 27.8103Z" fill="#FF6C36"/>
<path fill-rule="evenodd" clip-rule="evenodd" d="M23.7792 25.1876C23.5966 25.1876 23.4169 25.1025 23.303 24.943C23.1161 24.6812 23.1775 24.3179 23.4402 24.1317C24.0902 23.6706 24.4209 23.4024 24.9818 22.8146C25.2039 22.5819 25.5735 22.5725 25.8071 22.794C26.0408 23.0154 26.05 23.3836 25.8278 23.6165C25.1962 24.2784 24.7897 24.6028 24.1172 25.0797C24.0145 25.1525 23.8962 25.1876 23.7792 25.1876Z" fill="#FF6C36"/>
<path fill-rule="evenodd" clip-rule="evenodd" d="M29.4242 4.97582C28.6985 4.21527 27.8992 3.52459 27.0388 2.91933C26.1802 2.31534 25.2615 1.79706 24.301 1.37198C23.269 0.915257 22.1893 0.566631 21.0839 0.33658C19.976 0.105948 18.8438 -0.00500505 17.7122 0.000173129C16.7113 0.00476949 15.7109 0.100537 14.7279 0.28858C13.759 0.473948 12.8076 0.748857 11.8898 1.1097C10.9761 1.46891 10.0962 1.91313 9.26468 2.43427C8.42318 2.96163 7.63152 3.56759 6.90158 4.24C6.16358 4.91985 5.48788 5.66702 4.88772 6.47046C4.29725 7.2608 3.78028 8.10554 3.34663 8.99112C2.91624 9.87002 2.56811 10.7888 2.30791 11.7318C2.04542 12.6832 1.87256 13.6588 1.79012 14.642C1.70226 15.6906 1.71627 16.7479 1.83356 17.7936C1.95487 18.875 2.187 19.9439 2.52631 20.9782C2.862 22.0016 3.30243 22.9907 3.83849 23.9255C4.39154 24.8899 5.05054 25.8051 5.79666 26.6387C6.4897 27.4129 7.25637 28.1215 8.08462 28.7503C8.87195 29.3479 9.71469 29.8729 10.5993 30.3151C11.4795 30.7551 12.4008 31.113 13.3475 31.3828C14.2989 31.654 15.2756 31.8362 16.2608 31.9283C16.7447 31.9735 17.2306 31.997 17.7166 31.9991C17.6141 31.1475 17.3997 30.3098 17.0797 29.5135C16.7694 28.7413 16.3602 28.009 15.8659 27.3386C15.3738 26.6711 14.7977 26.0655 14.1552 25.54C13.5096 25.012 12.7975 24.5652 12.04 24.2145C11.8508 24.1269 11.6587 24.0453 11.4643 23.9698C11.4149 23.9506 11.3653 23.9318 11.3156 23.9134C11.2957 23.906 11.2704 23.9016 11.2526 23.8904C11.2252 23.873 11.2192 23.8347 11.207 23.8026C11.1631 23.6869 11.1122 23.5739 11.0545 23.4643C10.9377 23.2425 10.7932 23.0353 10.6256 22.8486C10.4625 22.667 10.2949 22.4904 10.1387 22.3025C9.53067 21.571 9.02888 20.7525 8.65512 19.8786C8.28207 19.0066 8.03727 18.0811 7.9288 17.1394C7.82909 16.2733 7.84333 15.3939 7.97265 14.5317C8.09075 13.7443 8.30525 12.9718 8.61023 12.2359C8.90698 11.5199 9.28891 10.8393 9.74481 10.2118C10.199 9.58667 10.7263 9.01457 11.3126 8.51037C11.9008 8.00459 12.5482 7.56736 13.2381 7.21123C13.936 6.85085 14.677 6.5739 15.4407 6.38859C16.2361 6.19566 17.0549 6.10269 17.8734 6.10944C18.8092 6.11712 19.7436 6.25338 20.6408 6.5195C21.5227 6.78109 22.3663 7.16765 23.1401 7.66394C23.5337 7.91639 23.9091 8.19683 24.2631 8.50199C24.4424 8.65652 24.6162 8.81734 24.7843 8.98403C24.957 9.15543 25.1197 9.33446 25.312 9.48509C26.054 10.0663 27.0483 10.2726 27.9624 10.0406C28.8527 9.81451 29.6113 9.18179 29.9923 8.34891C30.3299 7.61076 30.3573 6.7495 30.0675 5.9915C29.9233 5.61454 29.7031 5.26813 29.4242 4.97582C30.5906 6.19828 27.9409 3.42132 29.4242 4.97582Z" fill="#FF6C36"/>
<path fill-rule="evenodd" clip-rule="evenodd" d="M21.5832 15.9996C21.5832 13.9109 19.8842 12.2178 17.7884 12.2178C15.6926 12.2178 13.9937 13.9109 13.9937 15.9996C13.9937 18.0882 15.6926 19.7814 17.7884 19.7814C19.8842 19.7814 21.5832 18.0882 21.5832 15.9996Z" fill="#FF6C36"/>
</svg>
