<svg width="32" height="32" viewBox="0 0 32 32" fill="none" xmlns="http://www.w3.org/2000/svg">
<path d="M20.6189 2.625C18.92 2.63562 17.3852 3.08971 16.0167 3.98898L16 4L15.9349 3.95743C14.5625 3.06863 13.0239 2.625 11.321 2.625C5.05883 2.625 0 7.48685 0 13.5994C0 16.5434 0.96473 18.9062 3.30649 21.6082C4.8883 23.4334 4.48155 25.7707 2.30801 27.6785L0.323327 29.4206L2.9274 28.9818C5.68393 28.5172 7.98916 27.4737 9.83462 25.8487C9.92878 25.7658 10.0656 25.7529 10.1736 25.8168L15.0085 28.6757C15.6305 29.0435 16.3962 29.072 17.0437 28.7514C26.955 23.845 32 18.8006 32 13.5994C32 7.48689 26.9411 2.625 20.679 2.625H20.6189ZM20.679 4.125C26.1257 4.125 30.5 8.32894 30.5 13.5994C30.5 18.057 25.8267 22.7298 16.3782 27.4071C16.1853 27.5026 15.9573 27.4941 15.772 27.3846L10.9371 24.5256C10.278 24.1359 9.44504 24.209 8.86423 24.7048L8.79438 24.7658C7.69813 25.7193 6.41356 26.4454 4.93346 26.944L4.88081 26.9615L4.89131 26.9448C6.15966 24.8721 6.09121 22.5311 4.44003 20.6258C2.3249 18.1853 1.5 16.165 1.5 13.5994C1.5 8.3289 5.87422 4.125 11.321 4.125C12.771 4.125 14.052 4.50397 15.1995 5.26898L16 5.80267L16.8005 5.26898C17.948 4.50397 19.229 4.125 20.679 4.125Z" fill="black"/>
<path d="M9.0625 17.375C10.098 17.375 10.9375 16.5355 10.9375 15.5C10.9375 14.4645 10.098 13.625 9.0625 13.625C8.02697 13.625 7.1875 14.4645 7.1875 15.5C7.1875 16.5355 8.02697 17.375 9.0625 17.375Z" fill="#FF3EF4"/>
<path d="M16 17.375C17.0355 17.375 17.875 16.5355 17.875 15.5C17.875 14.4645 17.0355 13.625 16 13.625C14.9645 13.625 14.125 14.4645 14.125 15.5C14.125 16.5355 14.9645 17.375 16 17.375Z" fill="#011CEA"/>
<path d="M22.9375 17.375C23.973 17.375 24.8125 16.5355 24.8125 15.5C24.8125 14.4645 23.973 13.625 22.9375 13.625C21.902 13.625 21.0625 14.4645 21.0625 15.5C21.0625 16.5355 21.902 17.375 22.9375 17.375Z" fill="#13EBFF"/>
</svg>
