<svg width="32" height="32" viewBox="0 0 32 32" fill="none" xmlns="http://www.w3.org/2000/svg">
<path d="M27.84 20.128C27.84 23.008 26.752 25.6 24.992 27.584C24.448 28.192 25.024 31.264 25.024 31.264C25.024 31.264 21.792 30.112 20.992 30.464C19.648 31.04 18.176 31.328 16.64 31.328C10.464 31.328 5.44 26.304 5.44 20.128C5.44 13.952 10.496 8.95996 16.672 8.95996C22.848 8.95996 27.84 13.952 27.84 20.128Z" fill="#65C5B9"/>
<path d="M26.56 16.6081C26.56 19.4881 25.472 22.0801 23.712 24.0641C23.168 24.6721 23.744 27.7441 23.744 27.7441C23.744 27.7441 20.512 26.5921 19.712 26.9441C18.368 27.5201 16.896 27.8081 15.36 27.8081C9.18397 27.8081 4.15997 22.7841 4.15997 16.6081C4.15997 10.4321 9.21597 5.44006 15.392 5.44006C21.568 5.44006 26.56 10.4321 26.56 16.6081Z" fill="#549DCC"/>
<path d="M26.56 11.808C26.56 14.688 25.472 17.28 23.712 19.264C23.168 19.872 23.744 22.944 23.744 22.944C23.744 22.944 20.512 21.792 19.712 22.144C18.368 22.72 16.896 23.008 15.36 23.008C9.18397 23.008 4.15997 17.984 4.15997 11.808C4.15997 5.63202 9.21597 0.640015 15.392 0.640015C21.568 0.640015 26.56 5.63202 26.56 11.808Z" fill="#D7E8F4"/>
</svg>
