<svg width="32" height="32" viewBox="0 0 32 32" fill="none" xmlns="http://www.w3.org/2000/svg">
<g clip-path="url(#clip0)">
<path d="M21.4534 16.138L29.7016 1.44325C29.8949 1.11523 29.8949 0.787223 29.7016 0.459213C29.5084 0.196805 29.186 0 28.8639 0H11.8518C11.5296 0 11.2074 0.196805 11.0141 0.459213L2.25025 15.6132C2.05692 15.9413 2.05692 16.3349 2.25025 16.5973L11.0141 31.7512C11.2074 32.0794 11.5296 32.2105 11.8518 32.2105H28.8639C29.186 32.2105 29.5084 32.0137 29.7016 31.7512C29.8949 31.4232 29.8949 31.0952 29.7016 30.7672L21.4534 16.138ZM20.3579 14.1699L13.5272 1.96806H27.253L20.3579 14.1699ZM11.7873 2.95208L19.1979 16.138L11.7873 29.324L4.18343 16.138L11.7873 2.95208ZM13.5272 30.2425L20.3579 18.0406L27.1886 30.2425H13.5272Z" fill="#0C1E55"/>
</g>
<defs>
<clipPath id="clip0">
<rect width="32" height="32" fill="white"/>
</clipPath>
</defs>
</svg>
