<svg width="32" height="32" viewBox="0 0 32 32" fill="none" xmlns="http://www.w3.org/2000/svg">
<path fill-rule="evenodd" clip-rule="evenodd" d="M0 16V32H16H32V16V0H16H0V16Z" fill="#23A8E0"/>
<path fill-rule="evenodd" clip-rule="evenodd" d="M19.8567 7.23438C18.9523 7.5019 18.1074 8.00294 17.3148 8.74166L17.0515 8.9871L17.1363 9.28262C17.4595 10.4092 17.4014 11.6081 16.8267 15.6719C16.667 16.8015 16.6279 16.9489 16.3859 17.3345C14.3919 20.512 10.9637 22.8041 8.98442 22.2832C7.02082 21.7665 6.48394 19.4569 7.6601 16.5864C8.4813 14.582 10.0081 13.4371 10.8728 14.1773C11.3775 14.6093 11.1501 15.8675 10.2994 17.3502L10.215 17.4973L10.3459 17.6393C10.7787 18.1089 11.6669 18.1268 12.4988 17.6825C14.7397 16.4859 14.1023 12.9547 11.5097 12.2025C8.84482 11.4292 5.90978 13.0936 4.31666 16.2813C3.26697 18.3817 3.09609 21.0444 3.90738 22.6587C5.33882 25.507 9.7257 25.5613 13.3803 22.776C13.755 22.4905 14.0219 22.2603 15.1407 21.2585C15.8759 20.6 15.8076 20.566 15.7363 21.5551C15.5983 23.4721 15.8782 24.2985 16.7655 24.5937C17.4525 24.8224 18.5566 24.6285 18.9645 24.2076L19.0654 24.1035L19.3579 22.4659C19.8745 19.5744 19.9525 19.1921 20.3598 17.5545C20.6643 16.3304 20.6519 16.3568 21.0368 16.1133C22.5219 15.1738 23.9782 15.3641 24.1134 16.5152C24.162 16.9289 24.011 17.9521 23.7492 18.9845L23.3176 20.6876C22.8972 22.3475 22.9039 22.9808 23.3502 23.8203C23.9182 24.8886 25.5719 25.0023 27.1379 24.0806C27.738 23.7274 28.0022 23.3637 28.2969 22.4845C28.6524 21.424 28.6972 20.5741 28.3863 20.7889C28.0162 21.0444 27.4549 21.1487 27.1835 21.0124C26.9396 20.8899 26.8771 20.6717 26.9514 20.2032C27.058 19.5311 27.1328 19.2989 27.8825 17.3125C28.6757 15.2108 28.7556 14.5162 28.3128 13.5713C27.8702 12.6267 27.1708 12.1924 26 12.1349C24.0359 12.0383 22.0756 12.7481 21.324 13.8277C21.2236 13.9717 21.1385 14.0865 21.1347 14.0825C21.1308 14.0786 21.2537 13.6261 21.4079 13.0769C22.3548 9.70214 22.4819 8.85822 22.149 8.1563C21.7966 7.41318 20.7183 6.9795 19.8567 7.23438" fill="#FBFBFB"/>
</svg>
