<svg width="45" height="45" viewBox="0 0 45 45" fill="none" xmlns="http://www.w3.org/2000/svg">
<path fill-rule="evenodd" clip-rule="evenodd" d="M32.223 9.144C32.223 9.144 34.12 8.813 35.543 9.144C35.543 9.144 37.639 7.487 37.679 1.975L39.142 0C39.142 0 41.435 4.89 38.826 10.043C38.826 10.043 40.723 11.34 41 12.128L40.728 13C37.9955 11.5537 35.0488 10.555 32 10.042L32.223 9.144ZM2 44.987C2.018 44.987 10.966 45.432 21 41.042C18.4972 39.8891 16.0908 38.5375 13.804 37C10.3114 40.2635 6.32828 42.9586 2 44.987H2ZM35 30.319C31.924 29.6965 28.9491 28.6509 26.16 27.212C24.24 29.975 21.79 32.86 18.73 35.367C18.73 35.367 21.932 32.03 24.85 26.502C24.0344 26.0342 23.2384 25.5331 22.464 25C20.7433 28.4534 18.5694 31.6617 16 34.54C18.5782 36.3038 21.3306 37.7983 24.214 39C28.2483 36.6986 31.8894 33.7681 35 30.319V30.319ZM29.419 14.54L32.576 15.316C32.576 15.316 31.286 19.548 28.24 24.756C31.3101 26.3676 34.6243 27.4635 38.05 28C40.483 24.7235 42.4829 21.1466 44 17.358C39.06 13.993 33.152 12.025 26.802 12C26.2398 15.4586 25.3002 18.8452 24 22.099C24.8213 22.7061 25.6705 23.2744 26.545 23.802C27.728 21.057 28.771 17.942 29.419 14.54Z" fill="#FF5722"/>
</svg>
