<svg width="32" height="32" viewBox="0 0 32 32" fill="none" xmlns="http://www.w3.org/2000/svg">
<rect width="32" height="32" fill="#5F072E"/>
<path d="M15.9273 28.0146C12.2414 28.0146 8.65163 26.7229 5.81818 24.3753L8.22981 21.4633C10.3884 23.2495 13.12 24.2327 15.9273 24.2327C18.7345 24.2327 21.6175 23.1942 23.8051 21.3091L26.2749 24.1746C23.4007 26.6502 19.7265 28.0146 15.9273 28.0146Z" fill="#EE3A5E"/>
<path d="M16.0465 7.47928C14.8684 7.47928 13.9229 7.89237 13.2131 8.71274C12.5004 9.53601 12.1455 10.6909 12.1455 12.1804C12.1455 13.6698 12.512 14.7986 13.2451 15.5636C13.9782 16.3287 15.0022 16.7127 16.3113 16.7127C17.9782 16.7127 19.3018 16.0582 20.2793 14.7462L23.4793 16.8466C22.7229 17.9578 21.7164 18.8306 20.4625 19.4647C19.2058 20.0989 17.824 20.416 16.3113 20.416C13.9113 20.416 11.8865 19.6596 10.2429 18.1498C8.59636 16.64 7.776 14.6269 7.776 12.1164C7.776 9.60583 8.58182 7.58692 10.1935 6.06547C11.8051 4.54401 13.8211 3.78183 16.2444 3.78183C18.2895 3.78183 19.9127 4.31128 21.1113 5.36438C22.3127 6.42038 22.912 7.63638 22.912 9.01528C22.912 9.97238 22.624 10.9266 22.0451 11.8836L18.1789 10.784C18.4902 10.3389 18.6444 9.87347 18.6444 9.38474C18.6444 8.85238 18.4116 8.40147 17.9433 8.03492C17.4749 7.66838 16.8436 7.4851 16.0436 7.4851L16.0465 7.47928Z" fill="white"/>
</svg>
