<svg width="32" height="32" viewBox="0 0 32 32" fill="none" xmlns="http://www.w3.org/2000/svg">
<path d="M24.3657 19.7029L11.8857 13.44C10.6057 12.8 9.87428 12.0229 9.87428 11.2457C9.87428 10.5143 10.6057 9.69144 11.8857 9.05144L24.3657 2.78858V0.457153L10.9257 7.17715C8.18285 8.54858 7.77142 10.3314 7.77142 11.2457C7.77142 12.16 8.18285 13.9429 10.9257 15.3143L24.3657 22.0343V19.7029Z" fill="#FF471E"/>
<path d="M24.3657 24.3657L11.8857 18.1486C10.6057 17.5086 9.87428 16.7314 9.87428 15.9543C9.87428 15.2229 10.6057 14.4 11.8857 13.76L24.3657 7.49714V5.16571L10.9257 11.8857C8.18285 13.2571 7.77142 15.04 7.77142 15.9543C7.77142 16.8686 8.18285 18.6514 10.9257 20.0229L24.3657 26.7429V24.3657Z" fill="#FF471E"/>
<path d="M11.8857 22.8114C10.6057 22.1714 9.87428 21.3943 9.87428 20.6172C9.87428 19.8857 10.6057 19.0629 11.8857 18.4229L24.3657 12.16V9.82858L10.9257 16.5486C8.18285 17.92 7.77142 19.7029 7.77142 20.6172C7.77142 21.5314 8.18285 23.3143 10.9257 24.6857L24.3657 31.4057V29.0743L11.8857 22.8114Z" fill="#FF471E"/>
</svg>
