<svg width="531" height="531" viewBox="0 0 531 531" fill="none" xmlns="http://www.w3.org/2000/svg">
<g clip-path="url(#clip0_5:175)">
<path d="M357.352 237.344H350.648L338.926 230.562C338.481 230.571 338.038 230.488 337.625 230.32C337.212 230.152 336.838 229.902 336.524 229.585C336.211 229.268 335.965 228.891 335.802 228.476C335.639 228.061 335.561 227.617 335.574 227.172V208.514C335.574 205.123 335.574 205.123 338.926 201.732L479.686 113.576L275.241 0H261.833L55.7219 113.596L286.962 249.221C290.314 249.221 290.314 252.611 290.314 256.002V452.658C290.314 456.049 290.314 456.049 286.962 459.439L275.241 466.221H268.537L256.815 459.439C253.463 459.439 253.463 456.049 253.463 452.658V278.031C253.474 277.586 253.394 277.144 253.23 276.73C253.066 276.317 252.82 275.941 252.507 275.624C252.194 275.308 251.821 275.058 251.409 274.889C250.998 274.72 250.556 274.635 250.111 274.641L44 154.283V388.236C44.7798 393.847 47.1004 399.132 50.7037 403.504L258.481 527.232C261.833 527.232 261.833 530.623 265.185 530.623C268.537 530.623 271.889 530.623 271.889 527.232L479.666 403.484C481.889 401.632 483.651 399.289 484.814 396.639C485.978 393.99 486.51 391.107 486.37 388.217V154.283L357.352 237.344Z" fill="url(#paint0_linear_5:175)"/>
</g>
<defs>
<linearGradient id="paint0_linear_5:175" x1="42.2304" y1="265.842" x2="492.585" y2="265.842" gradientUnits="userSpaceOnUse">
<stop stop-color="#006CAF"/>
<stop offset="0.332" stop-color="#0081C5"/>
<stop offset="0.733" stop-color="#0095DA"/>
<stop offset="1" stop-color="#009CE1"/>
</linearGradient>
<clipPath id="clip0_5:175">
<rect width="530.62" height="530.62" fill="white"/>
</clipPath>
</defs>
</svg>
