<svg width="32" height="32" viewBox="0 0 32 32" fill="none" xmlns="http://www.w3.org/2000/svg">
<path d="M29.1772 11.3028C29.489 11.3028 29.9736 11.3291 30.631 11.3404C30.1501 14.5962 29.4337 17.0793 28.4822 18.7897C27.1711 21.3554 26.4837 22.5162 25.06 23.8836C23.67 25.1796 21.5626 27.3697 17.096 26.1939C13.7752 25.3224 13.1553 21.9415 13.6587 20.3599C14.1621 18.7784 15.7587 17.3133 18.7902 17.3133C20.8086 17.3133 23.188 18.2048 25.9277 19.988L25.969 20.3261L25.1163 20.852L24.658 20.8896C22.1787 19.1541 19.7707 18.2777 17.4341 18.26C15.0261 18.3464 14.1659 20.514 14.2936 21.1451C14.2673 21.6935 14.5415 24.5748 17.9938 25.2773C20.3905 25.8896 22.1599 25.2773 24.0306 23.8648C25.7361 22.6928 27.3702 19.1466 27.4529 18.9287C27.5355 18.7108 27.4529 18.6695 27.3627 18.7408C27.1384 18.9736 26.8308 19.1079 26.5076 19.1143C26.1843 19.1206 25.8718 18.9985 25.6385 18.7747L25.5859 18.7183C25.4968 18.5616 25.4424 18.3877 25.4262 18.2082C25.41 18.0287 25.4324 17.8478 25.492 17.6777H25.8338C26.3447 18.464 26.7553 18.6067 27.066 18.106C27.3928 17.5387 26.7354 16.979 26.4837 16.7949C26.1219 16.4433 25.8462 16.0129 25.678 15.5373C25.5099 15.0616 25.454 14.5535 25.5145 14.0526C25.5644 13.4836 25.7713 12.9396 26.1123 12.4812C26.4532 12.0229 26.9147 11.6683 27.4454 11.4568C28.0101 11.3098 28.5954 11.2577 29.1772 11.3028V11.3028ZM19.4626 5.86329C19.787 6.20969 19.9681 6.666 19.9698 7.14052C20.1273 7.0701 20.2969 7.03056 20.4694 7.02407C20.5149 7.02785 20.5591 7.04059 20.5996 7.06155C20.6401 7.08251 20.6761 7.11128 20.7054 7.1462C20.7347 7.18112 20.7569 7.2215 20.7705 7.26501C20.7842 7.30852 20.7891 7.35431 20.785 7.39973V7.4711C20.6986 7.7829 19.951 8.06464 19.951 8.06464C19.951 8.06464 19.2523 9.80394 19.0119 10.1871C18.7376 10.8182 16.9495 13.0947 15.5783 14.0301C14.2072 14.9655 13.223 15.4426 12.4454 14.7814C11.6677 14.1203 12.6707 12.5763 13.0426 11.9414C13.7983 10.9333 14.7146 10.0563 15.7549 9.34564C17.791 7.76036 18.3845 7.62137 18.5423 7.53121C18.7001 7.44105 18.655 6.80243 18.6249 6.74608C18.5949 6.68973 18.4634 6.14127 17.1223 6.4155C15.7812 6.68973 12.0997 8.68824 10.7361 9.7551C9.37247 10.822 5.18012 13.8873 3.94797 15.946L3.81273 16.1713C2.64067 18.1623 1.70153 20.1571 3.08771 21.2052C3.77141 21.7687 5.52573 21.4869 6.01033 21.3479C7.59234 20.7847 9.08615 19.9992 10.4469 19.0151C10.7527 18.7385 11.0724 18.4777 11.4048 18.2337C11.4649 18.2074 12.0509 18.1398 11.9345 18.8272C11.818 19.5147 11.3334 20.2397 9.68051 21.2052C8.02761 22.1706 5.19891 23.4028 3.32062 22.5463C1.44233 21.6898 1.06667 20.3637 1.06667 19.278C1.17549 17.6128 1.77698 16.0175 2.79469 14.695C3.74146 13.3835 4.83132 12.1815 6.04414 11.1112C6.61138 10.6266 7.39275 10.0406 8.392 9.34564C11.4799 7.32197 13.9619 6.08755 15.8375 5.64165C18.6587 4.98425 19.087 5.53271 19.4626 5.86329V5.86329ZM26.8331 12.8054C26.5917 13.0211 26.4293 13.3112 26.3714 13.6296C26.3136 13.9481 26.3637 14.2768 26.5137 14.5635C26.8198 15.007 27.1696 15.4185 27.5581 15.7919C27.7294 15.9314 27.8693 16.1057 27.9683 16.3032C28.0674 16.5007 28.1235 16.7169 28.1328 16.9377C28.3815 16.3321 28.5678 15.7028 28.6888 15.0594C28.7715 14.5222 28.9405 13.6469 29.2035 12.4298C28.1103 12.2344 27.2989 12.3584 26.8331 12.8054V12.8054ZM18.0427 8.61686C16.7175 9.56991 15.5183 10.687 14.4739 11.9414C12.7609 14.0076 13.2981 13.7521 13.5648 13.6695C13.8315 13.5868 15.5107 11.9752 16.5701 10.7356C17.6745 9.3832 18.1103 8.9512 18.1892 8.74834C18.2681 8.54549 18.0427 8.61686 18.0427 8.61686V8.61686Z" fill="#FF7700"/>
</svg>
