<svg width="32" height="32" viewBox="0 0 32 32" fill="none" xmlns="http://www.w3.org/2000/svg">
<g clip-path="url(#clip0_3643_6)">
<path d="M14.6809 31.6674C14.8531 31.6961 15.0825 31.7248 15.4265 31.7248C24.0861 31.7248 31.1111 24.6996 31.1111 16.0402C31.1111 7.38067 24.0861 0.35553 15.4265 0.35553C15.0825 0.35553 14.8531 0.384223 14.6809 0.412916L30.3082 16.0402L14.6809 31.6674ZM13.4193 28.5707C13.7634 28.5707 13.9928 28.542 14.1648 28.5133L1.6918 16.0402L14.1648 3.567C13.9928 3.5383 13.7634 3.50961 13.4193 3.50961C6.50889 3.50959 0.888885 9.12979 0.888885 16.0402C0.888885 22.9505 6.50889 28.5707 13.4193 28.5707ZM14.3943 25.3593C19.5269 25.3593 23.7132 21.1727 23.7132 16.0402C23.7132 10.9076 19.5269 6.72125 14.3943 6.72125C14.0502 6.72125 13.8208 6.74975 13.6488 6.77845L22.9103 16.0402L13.6488 25.3019C13.8208 25.3306 14.0502 25.3593 14.3943 25.3593ZM13.8495 22.1763C14.1935 22.1763 14.4229 22.1478 14.595 22.1191L8.51607 16.0402L14.595 9.96141C14.4228 9.93272 14.1935 9.90401 13.8495 9.90401C10.4658 9.90401 7.71315 12.6567 7.71315 16.0402C7.71315 19.4236 10.4659 22.1763 13.8495 22.1763Z" fill="black"/>
</g>
<defs>
<clipPath id="clip0_3643_6">
<rect width="32" height="32" fill="white"/>
</clipPath>
</defs>
</svg>
