<svg width="205" height="205" viewBox="0 0 205 205" fill="none" xmlns="http://www.w3.org/2000/svg">
<path d="M68.9 121.3C61.1997 117.368 53.87 112.749 47 107.5C51.8 106.7 56.4 106 60.8 104.3C51.9 105.7 43.7 104.3 36.7 98.3C41.9649 98.184 47.1854 97.3083 52.2 95.7C42.7 94.3 33.7 92 27.8 83.4C33.7 85 39.5 86.4 45.7 86.1L44.8 85.7C36.7504 83.1913 29.1543 79.4101 22.3 74.5C17.8789 71.3526 14.2221 67.2515 11.6 62.5C10.4847 60.5535 9.73879 58.4176 9.4 56.2C14.3 59.4 19.1 62.8 24.1 65.9C29.0765 69.0445 34.5562 71.3108 40.3 72.6C39.9803 72.3781 39.6462 72.1777 39.3 72C28.3536 65.8901 18.7602 57.6235 11.1 47.7C5.94679 41.001 2.32817 33.2517 0.5 25L0 22L0.6 22.6C11.8626 37.9548 27.5188 49.5313 45.5 55.8C52.1546 58.2084 58.7251 60.8433 65.2 63.7C72.7996 66.9203 79.2238 72.4018 83.6 79.4C83.9618 79.9652 84.1367 80.6299 84.1 81.3C83.1328 95.505 78.0607 109.123 69.5 120.5C69.3673 120.811 69.1615 121.086 68.9 121.3" fill="#F1771F"/>
<path d="M136.6 105C126.283 120.288 112.287 132.736 95.9 141.2C74.0981 151.833 49.502 155.331 25.6 151.2C42.5594 148.659 58.1852 140.529 70 128.1C81.8693 115.615 88.8908 99.3025 89.8 82.1C93.6 88.7 95.1 95.7 97.3 102.6C106.4 89.2 118.6 81.6 135.2 82.4C135.153 82.4621 135.093 82.5125 135.024 82.5472C134.954 82.5819 134.878 82.6 134.8 82.6L134.4 82.8C132.53 83.4444 130.899 84.6393 129.721 86.2277C128.543 87.8162 127.874 89.7238 127.8 91.7L126.6 99.8C125.829 103.491 124.333 106.992 122.2 110.1C121.979 110.455 121.779 110.822 121.6 111.2C126.2 108.2 131 105.6 136.6 105" fill="#F8A41B"/>
<path d="M149.2 130.4L156.8 136.1C151.389 136.464 146.019 134.944 141.6 131.8C142.185 132.418 142.821 132.987 143.5 133.5L145.7 135.3L148.1 137.1C136.553 138.967 124.796 139.135 113.2 137.6L114.1 136.8C123.888 129.596 132.405 120.809 139.3 110.8C139.486 110.513 139.737 110.272 140.032 110.099C140.327 109.925 140.658 109.823 141 109.8C146.3 109.3 151.3 110.5 156.4 111.8C161.5 113.1 166.5 114.5 171.7 115.4C181.276 116.876 191.063 116.123 200.3 113.2L204.5 111.9L204.9 112C204.394 112.528 203.86 113.029 203.3 113.5C197.85 117.791 191.428 120.676 184.6 121.9C178.087 123.213 171.433 123.684 164.8 123.3C172.2 125.5 179.8 125.4 187.6 125.2C187.057 125.633 186.49 126.034 185.9 126.4C182.813 128.087 179.406 129.109 175.9 129.4C169.825 129.854 163.717 129.347 157.8 127.9C157.57 127.848 157.33 127.848 157.1 127.9C160.3 129.9 164 130.9 167.6 132C161.4 134.1 155.7 132.4 149.9 130.2C149.3 130.2 149.2 130.3 149.2 130.4" fill="#F1771F"/>
</svg>
