<svg width="32" height="32" viewBox="0 0 32 32" fill="none" xmlns="http://www.w3.org/2000/svg">
<path d="M8.51107 28.8618C8.30666 29.0836 7.96554 29.0906 7.75277 28.8774L4.37496 25.4892C4.16246 25.2757 4.1541 24.9185 4.35635 24.6947C4.35635 24.6947 17.016 10.7047 18.9584 9.14695C20.9011 7.58919 29.7089 1.54874 29.7089 1.54874C29.9553 1.37963 30.0254 1.45107 29.8642 1.70809C29.8642 1.70809 24.3539 10.4837 22.9219 12.6331C21.4903 14.7808 8.51107 28.8618 8.51107 28.8618Z" fill="#F9C739"/>
<path d="M21.9242 17.656C21.2894 20.2907 19.152 28.7336 19.152 28.7336C19.0771 29.03 18.775 29.2449 18.4808 29.2111L16.5225 28.9864C16.228 28.9527 15.9743 28.6747 15.9581 28.3686C15.9581 28.3686 15.47 19.0711 16.0684 15.7016C16.6681 12.3333 29.4421 0.95648 30.2174 1.3642C30.9932 1.77304 22.5603 15.0207 21.9242 17.656Z" fill="#56BFCF"/>
<path d="M14.6051 10.1193C12.0643 10.7983 3.92155 13.0772 3.92155 13.0772C3.63571 13.1573 3.43076 13.4712 3.46582 13.7757L3.69962 15.7992C3.73467 16.1034 4.00515 16.3638 4.30097 16.378C4.30097 16.378 13.2873 16.8097 16.5397 16.1637C19.7894 15.5171 30.6828 2.20941 30.281 1.40848C29.8803 0.60951 17.1454 9.44093 14.6051 10.1193Z" fill="#EB6B48"/>
<path d="M16.068 15.7032C16.6825 12.3371 29.5452 0.90615 30.2817 1.38782C30.6201 1.6094 27.3297 6.10632 23.7348 10.0138C22.3681 11.4991 20.9421 12.9893 19.706 14.0676C18.382 15.2224 17.2801 15.9173 16.7305 16.1109C16.6237 16.1483 16.0202 16.3052 15.9871 16.2563C15.925 16.1723 16.038 15.8726 16.068 15.7032Z" fill="#004774"/>
</svg>
