<svg width="32" height="32" viewBox="0 0 32 32" fill="none" xmlns="http://www.w3.org/2000/svg">
<path d="M29.3796 3.20001H2.44979C1.98866 3.20001 1.54643 3.38319 1.22036 3.70926C0.894301 4.03532 0.711121 4.47756 0.711121 4.93868V26.8231C0.711121 27.2842 0.894301 27.7265 1.22036 28.0525C1.54643 28.3786 1.98866 28.5618 2.44979 28.5618H29.3796C29.8407 28.5618 30.2829 28.3786 30.609 28.0525C30.9351 27.7265 31.1182 27.2842 31.1182 26.8231V4.93868C31.1182 4.47756 30.9351 4.03532 30.609 3.70926C30.2829 3.38319 29.8407 3.20001 29.3796 3.20001V3.20001ZM27.7333 4.87112C27.9527 4.87112 28.1672 4.93618 28.3497 5.05808C28.5321 5.17997 28.6743 5.35323 28.7582 5.55593C28.8422 5.75864 28.8642 5.98169 28.8214 6.19688C28.7786 6.41207 28.6729 6.60973 28.5178 6.76487C28.3626 6.92002 28.165 7.02567 27.9498 7.06847C27.7346 7.11128 27.5115 7.08931 27.3088 7.00535C27.1061 6.92138 26.9329 6.7792 26.811 6.59677C26.6891 6.41434 26.624 6.19986 26.624 5.98046C26.624 5.68624 26.7409 5.40408 26.9489 5.19604C27.157 4.988 27.4391 4.87112 27.7333 4.87112V4.87112ZM23.776 4.87112C23.9954 4.87112 24.2099 4.93618 24.3923 5.05808C24.5748 5.17997 24.7169 5.35323 24.8009 5.55593C24.8849 5.75864 24.9068 5.98169 24.864 6.19688C24.8212 6.41207 24.7156 6.60973 24.5604 6.76487C24.4053 6.92002 24.2076 7.02567 23.9924 7.06847C23.7772 7.11128 23.5542 7.08931 23.3515 7.00535C23.1488 6.92138 22.9755 6.7792 22.8536 6.59677C22.7317 6.41434 22.6667 6.19986 22.6667 5.98046C22.6667 5.83478 22.6954 5.69052 22.7511 5.55593C22.8069 5.42134 22.8886 5.29905 22.9916 5.19604C23.0946 5.09303 23.2169 5.01132 23.3515 4.95557C23.4861 4.89982 23.6303 4.87112 23.776 4.87112V4.87112ZM19.8187 4.87112C20.0381 4.87112 20.2526 4.93618 20.435 5.05808C20.6174 5.17997 20.7596 5.35323 20.8436 5.55593C20.9275 5.75864 20.9495 5.98169 20.9067 6.19688C20.8639 6.41207 20.7582 6.60973 20.6031 6.76487C20.4479 6.92002 20.2503 7.02567 20.0351 7.06847C19.8199 7.11128 19.5969 7.08931 19.3942 7.00535C19.1914 6.92138 19.0182 6.7792 18.8963 6.59677C18.7744 6.41434 18.7093 6.19986 18.7093 5.98046C18.7093 5.68624 18.8262 5.40408 19.0343 5.19604C19.2423 4.988 19.5245 4.87112 19.8187 4.87112V4.87112ZM28.8853 26.3111H2.92979V8.58668H28.8853V26.3005V26.3111Z" fill="#394C60"/>
<path d="M11.0222 24.4267C11.2001 24.1302 11.4703 23.9001 11.7913 23.7717C12.1124 23.6433 12.4667 23.6236 12.8 23.7156C12.9528 23.7686 13.1147 23.7903 13.276 23.7795C13.4374 23.7687 13.5949 23.7255 13.7392 23.6525C13.8835 23.5795 14.0117 23.4782 14.1161 23.3547C14.2204 23.2311 14.2988 23.0878 14.3467 22.9334C14.4642 22.6218 14.4556 22.2767 14.3228 21.9713C14.1901 21.666 13.9435 21.4244 13.6356 21.2978C13.3334 21.1607 13.0855 20.927 12.931 20.6334C12.7765 20.3398 12.7242 20.0031 12.7822 19.6765C12.8348 19.3354 13.0058 19.0237 13.2652 18.7962C13.5246 18.5686 13.8559 18.4397 14.2009 18.432C14.5432 18.4264 14.8692 18.285 15.1073 18.0389C15.3453 17.7929 15.4759 17.4623 15.4702 17.12C15.4646 16.7777 15.3232 16.4517 15.0771 16.2136C14.8311 15.9756 14.5005 15.845 14.1582 15.8507C13.8118 15.8412 13.4788 15.7143 13.214 15.4908C12.9491 15.2673 12.768 14.9604 12.7004 14.6205C12.6617 14.4149 12.6617 14.2038 12.7004 13.9982C12.7367 13.7711 12.8265 13.5558 12.9626 13.3703C13.0986 13.1848 13.2769 13.0344 13.4827 12.9316C13.7769 12.774 13.9987 12.5086 14.1015 12.1911C14.2042 11.8735 14.18 11.5285 14.0338 11.2285C13.9798 11.071 13.8952 10.9257 13.785 10.801C13.6748 10.6762 13.5411 10.5744 13.3915 10.5015C13.2418 10.4285 13.0793 10.3857 12.9131 10.3756C12.747 10.3655 12.5805 10.3883 12.4231 10.4427C12.1017 10.5713 11.745 10.5814 11.4169 10.4711C11.1348 10.3442 10.89 10.1471 10.7058 9.89868C10.5663 9.71272 10.4676 9.49944 10.4162 9.27276C10.3647 9.04607 10.3616 8.81109 10.4071 8.58313H4.48356C7.232 10.0587 9.84889 13.024 9.91289 16.96C9.984 21.2267 7.72622 24.672 4.40533 26.3076H11.0969C10.8735 26.0487 10.7445 25.7218 10.7309 25.3802C10.7174 25.0385 10.8201 24.7024 11.0222 24.4267Z" fill="#3C9BD6"/>
<path d="M19.3885 10.2934C19.6565 10.5136 19.8403 10.8196 19.9089 11.1596C19.9776 11.4997 19.9269 11.853 19.7653 12.16C19.634 12.4805 19.4011 12.7489 19.1024 12.9243C18.8038 13.0996 18.4558 13.1721 18.112 13.1307C17.9519 13.0996 17.7872 13.1014 17.6278 13.1359C17.4685 13.1703 17.3177 13.2368 17.1848 13.3312C17.0518 13.4256 16.9394 13.546 16.8543 13.6851C16.7692 13.8242 16.7133 13.9791 16.6898 14.1405C16.6197 14.4644 16.678 14.8029 16.8524 15.0847C17.0268 15.3666 17.3037 15.5698 17.6249 15.6516C17.9448 15.7402 18.226 15.9332 18.4238 16.1999C18.6215 16.4666 18.7245 16.7917 18.7165 17.1236C18.7124 17.46 18.5929 17.7848 18.3781 18.0437C18.1632 18.3026 17.8659 18.4798 17.536 18.5458C17.1984 18.6038 16.8977 18.7935 16.7 19.0732C16.5023 19.353 16.4238 19.6998 16.4818 20.0374C16.5398 20.3749 16.7295 20.6757 17.0092 20.8734C17.2889 21.0711 17.6357 21.1496 17.9733 21.0916C18.317 21.048 18.6653 21.1224 18.9612 21.3026C19.257 21.4828 19.4829 21.7582 19.6018 22.0836C19.6704 22.2811 19.7018 22.4897 19.6942 22.6987C19.6947 22.9302 19.6398 23.1585 19.534 23.3645C19.4283 23.5705 19.2747 23.7482 19.0862 23.8827C18.8166 24.0836 18.636 24.3818 18.5828 24.7138C18.5297 25.0458 18.6083 25.3855 18.8018 25.6605C18.9771 25.9337 19.2227 26.1548 19.5129 26.3005H27.4276C24.9102 25.0525 22.5707 22.7058 21.9982 19.3671C21.1876 14.6347 23.4205 10.5102 27.1716 8.58313H19.104C18.9232 8.85033 18.8519 9.17676 18.9048 9.49502C18.9578 9.81328 19.1309 10.0991 19.3885 10.2934V10.2934Z" fill="#E74F38"/>
<path d="M21.6675 26.56H21.4364C21.5119 26.5822 21.5921 26.5822 21.6675 26.56Z" fill="#3C9BD6"/>
</svg>
