<svg width="166" height="164" viewBox="0 0 166 164" fill="none" xmlns="http://www.w3.org/2000/svg">
<path d="M18.163 4.07099C61.118 4.05999 104.078 4.04899 147.022 4.07099L147.026 4.54199C104.078 4.54199 61.123 4.55299 18.167 4.53099V4.07099H18.163V4.07099Z" fill="#BA6D71"/>
<path d="M0.67398 24.976L1.13399 24.961C1.15599 61.432 1.15599 97.907 1.13399 134.381H0.67398C0.64798 97.907 0.64798 61.44 0.67398 24.976Z" fill="#D29EA1"/>
<path d="M1.13403 24.961C1.65003 15.629 8.40802 5.66101 18.163 4.53101C61.118 4.55301 104.078 4.54201 147.022 4.54201C157.828 6.24101 164.713 17.99 164.047 28.366C164.013 50.903 164.088 73.421 164.013 95.946C155.935 95.995 147.849 95.968 139.77 95.957C143.938 81.031 141.278 64.451 132.432 51.711C123.179 37.717 107.306 28.505 90.651 26.802C72.78 24.579 53.802 31.172 41.611 44.534C33.042 52.893 28.01 64.564 26.767 76.38C26.269 79.849 26.254 83.4 26.715 86.876C27.819 97.005 31.658 106.98 38.109 114.917C47.969 127.875 63.77 135.669 79.904 136.859C79.926 142.999 79.926 149.136 79.904 155.28C60.305 155.314 40.683 155.28 21.076 155.28C10.101 155.4 1.58503 144.848 1.12903 134.386C1.15703 97.907 1.15703 61.432 1.13403 24.961Z" fill="#A23C42"/>
<path d="M67.599 45.197C82.338 38.754 100.601 41.859 112.523 52.651C119.468 59.019 124.493 67.962 125.151 77.474C125.151 80.232 125.151 82.989 125.151 85.769C123.819 105.447 105.114 121.372 85.687 121.26C84.868 121.26 83.24 121.275 82.428 121.275C74.043 121.425 65.901 118.057 59.038 113.425C50.106 107.064 43.891 96.722 42.971 85.736C40.513 68.71 51.794 51.341 67.599 45.197Z" fill="#9A847A"/>
<path d="M112.01 124.17C116.9 114.355 131.651 112.746 139.366 120.155C144.283 124.185 145.237 132.031 141.574 137.199C139 141.487 133.93 143.886 129.05 144.118C127.737 144.107 126.435 144.096 125.151 144.118C120.174 143.886 115.093 141.14 112.545 136.784C110.18 133.083 109.657 127.991 112.01 124.17Z" fill="#9A847A"/>
<path d="M26.72 86.873C26.26 83.397 26.275 79.846 26.772 76.377C26.84 79.872 27.248 83.408 26.72 86.873Z" fill="#DEBBBC"/>
<path d="M125.151 77.473L125.626 77.495C125.626 80.23 125.697 82.988 125.615 85.734L125.151 85.768C125.151 82.989 125.151 80.235 125.151 77.473Z" fill="#D0D1D1"/>
<path d="M82.428 121.274C83.24 121.274 84.868 121.259 85.687 121.259C85.29 122.142 82.817 122.142 82.428 121.274Z" fill="#E0E0E0"/>
<path d="M125.151 144.114C126.434 144.092 127.737 144.103 129.05 144.114C128.59 145.173 126.322 144.35 125.151 144.571V144.114Z" fill="#E0E0E0"/>
<path d="M79.91 136.859L80.389 136.792C80.411 142.955 80.46 149.125 80.389 155.276H79.91C79.932 149.135 79.932 142.995 79.91 136.859Z" fill="#D19EA0"/>
<path d="M150.588 144.301C154.592 143.916 159.299 145.656 161.095 149.476C163.022 152.443 162.375 156.885 159.812 159.328C156.093 163.575 148.729 164.058 144.594 160.159C141.559 157.663 140.557 152.848 142.656 149.458C143.909 146.277 147.4 144.686 150.588 144.301Z" fill="#9A847A"/>
</svg>
