<svg width="32" height="32" viewBox="0 0 32 32" fill="none" xmlns="http://www.w3.org/2000/svg">
<path d="M13.5414 20.6378C13.4833 20.6415 13.4252 20.6466 13.3671 20.6525C13.3004 20.6591 13.2372 20.6864 13.1864 20.7308C13.1213 20.7878 13.0812 20.8687 13.0746 20.9558C13.0681 21.0428 13.0957 21.129 13.1515 21.1954C13.9481 22.1229 14.8291 22.9719 15.7828 23.7308C15.8398 23.7758 15.9099 23.8002 15.9821 23.8002C16.0542 23.8002 16.1244 23.7758 16.1814 23.7308C16.6221 23.3763 17.0483 22.9922 17.4658 22.5942C17.619 22.4465 17.7678 22.2988 17.9181 22.1451C18.1839 21.8756 18.4431 21.5964 18.6965 21.3098C18.7059 21.3002 18.7393 21.2611 18.7865 21.2072C18.8329 21.1539 18.8611 21.0868 18.8671 21.0159C18.8741 20.9288 18.8469 20.8423 18.7914 20.7756C18.7358 20.7089 18.6565 20.6673 18.5709 20.6599C18.2166 20.6319 17.8201 20.6008 17.6698 20.5935C17.1166 20.5664 16.5616 20.5528 16.0049 20.5528C15.1801 20.5528 14.3597 20.5861 13.5421 20.6385L13.5414 20.6378ZM13.5421 14.1394C12.5256 14.2051 11.5157 14.3188 10.5159 14.4658C10.1572 14.5182 9.80434 14.5913 9.45002 14.6608C9.42733 14.6652 9.40517 14.6721 9.38395 14.6814C9.34475 14.6985 9.30924 14.7233 9.27945 14.7543C9.24966 14.7853 9.22619 14.822 9.21034 14.8623C9.1945 14.9025 9.18661 14.9456 9.18712 14.9889C9.18763 15.0323 9.19654 15.0751 9.21333 15.115C9.58712 15.97 10.0089 16.8025 10.4767 17.6083C10.5091 17.6643 10.5571 17.7092 10.6146 17.7375C10.6721 17.7658 10.7365 17.776 10.7998 17.7671C11.7081 17.6393 12.6215 17.5381 13.5443 17.4783C14.3619 17.4259 15.1823 17.3926 16.0071 17.3926C16.8617 17.3926 17.7119 17.4259 18.5571 17.4857C18.6159 17.4894 18.6732 17.496 18.7321 17.5005C19.3884 17.5497 20.0419 17.6144 20.6924 17.6947C20.7912 17.7065 21.0003 17.7383 21.1629 17.7619C21.2259 17.7713 21.2902 17.7615 21.3476 17.7336C21.405 17.7057 21.4529 17.6611 21.4853 17.6053C21.5477 17.4975 21.6225 17.369 21.6675 17.2892C21.8077 17.0418 21.9449 16.7922 22.0741 16.5396C22.3159 16.0706 22.5098 15.5847 22.7058 15.0995C22.7143 15.0788 22.7206 15.0572 22.7247 15.0352C22.7325 14.9928 22.7319 14.9493 22.7231 14.9071C22.7143 14.8649 22.6975 14.8249 22.6735 14.7894C22.6494 14.7539 22.6188 14.7235 22.5832 14.7C22.5477 14.6766 22.5079 14.6605 22.4662 14.6526C22.0386 14.5692 21.6124 14.4813 21.1775 14.4215C20.3676 14.3117 19.5528 14.2258 18.7328 14.1637C18.674 14.16 18.6166 14.1527 18.5578 14.149C17.7127 14.0891 16.8624 14.0559 16.0079 14.0559C15.1831 14.0559 14.3626 14.0891 13.545 14.1416L13.5421 14.1394ZM10.1841 7.97107C9.35417 8.0981 8.53009 8.24507 7.71544 8.42749C7.63749 8.44515 7.56865 8.49131 7.52194 8.5572C7.47523 8.62309 7.45391 8.70413 7.46205 8.78494C7.55049 9.56336 7.6831 10.3359 7.8592 11.0988C7.873 11.1593 7.90568 11.2901 7.93835 11.4178C7.95916 11.4991 8.00988 11.5691 8.08003 11.6134C8.15017 11.6576 8.23438 11.6728 8.31519 11.6556L8.55478 11.6062C8.7726 11.5619 8.99042 11.5193 9.20824 11.4784C9.68526 11.3883 10.1637 11.313 10.6444 11.2421C10.7023 11.2412 10.7595 11.2287 10.8127 11.2051C10.8658 11.1815 10.9137 11.1474 10.9537 11.1047C11.0016 11.023 11.0167 10.9256 10.9958 10.8329C10.9958 10.81 10.9886 10.7879 10.9842 10.7664C10.9312 10.5013 10.6379 8.82334 10.5486 8.24728C10.5369 8.16938 10.4982 8.09831 10.4395 8.04695C10.3807 7.9956 10.3058 7.96736 10.2284 7.96737C10.2124 7.96615 10.1964 7.96615 10.1805 7.96737L10.1841 7.97107ZM13.9937 7.56782H13.977C13.9345 7.57216 13.8933 7.58499 13.8557 7.60558C13.8181 7.62616 13.7848 7.6541 13.7578 7.68779C13.7308 7.72148 13.7106 7.76026 13.6984 7.8019C13.6862 7.84354 13.6822 7.88723 13.6866 7.93045C13.7665 8.63354 13.781 9.34106 13.9044 10.039C13.9182 10.229 13.9698 10.4142 14.0562 10.5833C14.1927 10.7893 14.4875 10.7797 14.7292 10.7701C14.7837 10.7701 14.8352 10.7657 14.8817 10.7664C16.2569 10.776 17.6342 10.8285 19.0043 10.9511C20.3808 11.0727 21.7501 11.2675 23.1066 11.5345C23.2886 11.5705 23.4699 11.6074 23.6504 11.6453C23.73 11.6619 23.8128 11.6473 23.8823 11.6044C23.9518 11.5616 24.0028 11.4936 24.0251 11.4141C24.0469 11.3403 24.0657 11.2701 24.0723 11.2421C24.2717 10.4297 24.4206 9.6053 24.5181 8.77386C24.5265 8.69338 24.5055 8.61255 24.459 8.54686C24.4125 8.48118 24.3439 8.43525 24.2661 8.41788C23.2496 8.18968 22.2135 8.01464 21.1709 7.87136C20.3601 7.76157 19.545 7.67565 18.7255 7.61361C18.6667 7.60992 18.6093 7.60254 18.5505 7.59884C17.7054 7.53902 16.8552 7.50505 16.0006 7.50505C15.3275 7.50505 14.6581 7.52942 13.9901 7.56709L13.9937 7.56782ZM15.8118 27.2861C8.83794 22.7766 4.11705 14.5426 4.12214 6.14761C4.12343 6.07662 4.14703 6.00792 4.1895 5.95157C4.23196 5.89522 4.29106 5.85418 4.35812 5.83447C11.9692 3.69588 20.0076 3.69358 27.6198 5.82782C27.6879 5.84721 27.748 5.8886 27.791 5.94575C27.8339 6.0029 27.8574 6.07272 27.858 6.14466C27.8907 14.4303 23.0492 22.7899 16.1683 27.2913C16.1154 27.3256 16.0539 27.3438 15.9912 27.3437C15.929 27.3438 15.868 27.3258 15.8154 27.292L15.8118 27.2861ZM15.6601 0C14.6136 0 13.5637 0.042343 12.5104 0.127029C9.68002 0.37029 6.87595 0.864528 4.13014 1.60411C3.21432 1.84684 2.3031 2.11173 1.39648 2.39878C1.01353 2.51962 0.677097 2.75879 0.433906 3.08305C0.190715 3.40732 0.052849 3.80058 0.0394752 4.2082C-0.215266 9.23318 0.765975 14.2434 2.89437 18.7855C3.16544 19.3458 3.45367 19.8973 3.7591 20.4398C4.13182 21.1016 4.52803 21.7488 4.94769 22.3815C7.61808 26.2637 11.122 29.477 15.1939 31.7779C15.4394 31.9234 15.7184 32 16.0024 32C16.2865 32 16.5654 31.9234 16.8109 31.7779C21.5236 28.9962 25.4501 25.0235 28.2101 20.2449C29.5937 17.8305 30.6232 15.2235 31.2661 12.5064C31.859 9.68826 32.0942 6.80438 31.9661 3.92534C31.9582 3.58188 31.8401 3.25048 31.6296 2.98176C31.4192 2.71303 31.1281 2.52177 30.8007 2.43718C25.8908 0.908441 20.7942 0.0880482 15.6601 0V0Z" fill="url(#paint0_linear_3336_41)"/>
<defs>
<linearGradient id="paint0_linear_3336_41" x1="4.064" y1="24.992" x2="32.544" y2="2.912" gradientUnits="userSpaceOnUse">
<stop stop-color="#FEC614"/>
<stop offset="0.577" stop-color="#FF5E0B"/>
<stop offset="1" stop-color="#FE0072"/>
</linearGradient>
</defs>
</svg>
