<svg width="32" height="32" viewBox="0 0 32 32" fill="none" xmlns="http://www.w3.org/2000/svg">
<path d="M25.2519 15.5705C25.3492 15.1963 25.399 14.8112 25.4001 14.4245C25.4001 13.8046 25.2779 13.1907 25.0406 12.618C24.8031 12.0453 24.4552 11.525 24.0166 11.0869C23.5781 10.6487 23.0573 10.3014 22.4844 10.0646C21.9115 9.82782 21.2975 9.70622 20.6776 9.70686C20.1102 9.70686 19.5477 9.81065 19.0177 10.0132C18.3454 8.6898 17.247 7.63145 15.8994 7.00894C14.5519 6.38633 13.034 6.23593 11.5904 6.58185C10.1469 6.92766 8.86201 7.74974 7.94297 8.9154C7.02393 10.081 6.52441 11.5223 6.52483 13.0067C6.52643 13.4212 6.56611 13.8345 6.64345 14.2417C5.88558 14.3618 5.18233 14.7103 4.62777 15.2407C4.07331 15.7712 3.6939 16.4582 3.5403 17.21C3.38675 17.9618 3.46627 18.7426 3.76835 19.448C4.07043 20.1534 4.58051 20.7499 5.23065 21.1575C6.25294 20.6369 7.32323 20.2167 8.4267 19.9028C8.4267 19.9028 7.07811 15.205 8.64899 14.9037C10.5607 14.5579 10.7188 15.0815 14.6411 14.6517C17.2634 14.3789 19.9108 14.4636 22.5103 14.9037C23.2463 14.9037 23.1772 16.4498 23.0685 17.5909C22.9831 18.3328 22.8174 19.0632 22.5745 19.7694C23.9348 20.1207 25.2481 20.6332 26.4869 21.2959C27.0413 20.9639 27.4779 20.4665 27.7352 19.8737C27.9925 19.2808 28.0575 18.6223 27.9213 17.9906C27.785 17.3589 27.4542 16.7857 26.9755 16.3517C26.4967 15.9175 25.8939 15.6444 25.2519 15.5705Z" fill="#1D55CC"/>
<path d="M15.7278 22.4468C21.2111 22.4468 26.1015 23.2027 29.3174 25.1588C27.2673 22.4172 21.957 20.461 15.7278 20.461C9.4987 20.461 4.18339 22.4369 2.13333 25.1588C5.35416 23.2027 10.2643 22.4468 15.7278 22.4468Z" fill="#1D55CC"/>
</svg>
