<svg id="Layer_1" data-name="Layer 1" xmlns="http://www.w3.org/2000/svg" viewBox="0 0 341.2 154.3"><defs><style>.cls-1{fill:#fff}.cls-2{fill:#f38020}.cls-3{fill:#faae40}</style></defs><title>cloud</title><path class="cls-1" d="M312.8 91.7l-42.9-24.6-7.4-3.2L87 65.1v89.1h225.8V91.7z"/><path class="cls-2" d="M234.7 146c2.1-7.2 1.3-13.8-2.2-18.7-3.2-4.5-8.6-7.1-15.1-7.4l-123.1-1.6a2.28 2.28 0 0 1-1.9-1 2.76 2.76 0 0 1-.3-2.2 3.38 3.38 0 0 1 2.9-2.2l124.2-1.6c14.7-.7 30.7-12.6 36.3-27.2l7.1-18.5a4 4 0 0 0 .2-2.4 80.87 80.87 0 0 0-155.5-8.3 36.35 36.35 0 0 0-58 25.4 38.18 38.18 0 0 0 .9 12.7A51.66 51.66 0 0 0 0 144.7a63 63 0 0 0 .5 7.5 2.46 2.46 0 0 0 2.4 2.1h227.2a3.09 3.09 0 0 0 2.9-2.2z"/><path class="cls-3" d="M273.9 66.9c-1.1 0-2.3 0-3.4.1a2 2 0 0 0-1.8 1.4l-4.8 16.7c-2.1 7.2-1.3 13.8 2.2 18.7 3.2 4.5 8.6 7.1 15.1 7.4l26.2 1.6a2.28 2.28 0 0 1 1.9 1 2.82 2.82 0 0 1 .3 2.2 3.38 3.38 0 0 1-2.9 2.2l-27.3 1.6c-14.8.7-30.7 12.6-36.3 27.2l-2 5.1a1.44 1.44 0 0 0 1.4 2h93.8a2.46 2.46 0 0 0 2.4-1.8 68.35 68.35 0 0 0 2.5-18.2 67.37 67.37 0 0 0-67.3-67.2"/></svg>