<svg width="32" height="32" viewBox="0 0 32 32" fill="none" xmlns="http://www.w3.org/2000/svg">
<path d="M13.1732 11.998L13.1465 11.9714L4.82651 20.2914C4.77317 20.2914 4.74651 20.2914 4.69317 20.2914C3.33317 20.1847 2.21317 18.398 2.45317 16.4514C2.61317 15.1714 3.49317 14.4514 4.95984 12.958C8.95984 7.33137 13.1198 11.9447 13.1198 11.9447L13.1732 11.998Z" fill="url(#paint0_linear_2670_116)"/>
<mask id="mask0_2670_116" style="mask-type:alpha" maskUnits="userSpaceOnUse" x="2" y="10" width="12" height="11">
<path d="M13.1732 11.998L13.1465 11.9714L4.82651 20.2914C4.77317 20.2914 4.74651 20.2914 4.69317 20.2914C3.33317 20.1847 2.21317 18.398 2.45317 16.4514C2.61317 15.1714 3.49317 14.4514 4.95984 12.958C8.95984 7.33137 13.1198 11.9447 13.1198 11.9447L13.1732 11.998Z" fill="url(#paint1_linear_2670_116)"/>
</mask>
<g mask="url(#mask0_2670_116)">
<path d="M12.7731 12.958C12.7731 12.958 10.9331 9.62463 6.26648 10.9313C8.47981 9.3313 14.1865 9.86463 14.1865 9.86463L12.7731 12.958Z" fill="url(#paint2_linear_2670_116)"/>
</g>
<mask id="mask1_2670_116" style="mask-type:alpha" maskUnits="userSpaceOnUse" x="2" y="10" width="12" height="11">
<path d="M13.1732 11.998L13.1465 11.9714L4.82651 20.2914C4.77317 20.2914 4.74651 20.2914 4.69317 20.2914C3.33317 20.1847 2.21317 18.398 2.45317 16.4514C2.61317 15.1714 3.49317 14.4514 4.95984 12.958C8.95984 7.33137 13.1198 11.9447 13.1198 11.9447L13.1732 11.998Z" fill="url(#paint3_linear_2670_116)"/>
</mask>
<g mask="url(#mask1_2670_116)">
<path d="M5.89319 19.4113C5.89319 19.4113 3.94652 19.1179 3.51986 17.4646C3.09319 15.8379 4.02652 14.2646 4.98652 12.9579C6.37319 11.0113 1.17319 12.9846 1.17319 12.9846L1.03986 21.9713C1.03986 21.9713 5.59986 20.8779 5.89319 19.4113Z" fill="url(#paint4_linear_2670_116)"/>
</g>
<mask id="mask2_2670_116" style="mask-type:alpha" maskUnits="userSpaceOnUse" x="2" y="10" width="12" height="11">
<path d="M13.1732 11.998L13.1465 11.9714L4.82651 20.2914C4.77317 20.2914 4.74651 20.2914 4.69317 20.2914C3.33317 20.1847 2.21317 18.398 2.45317 16.4514C2.61317 15.1714 3.49317 14.4514 4.95984 12.958C8.95984 7.33137 13.1198 11.9447 13.1198 11.9447L13.1732 11.998Z" fill="url(#paint5_linear_2670_116)"/>
</mask>
<g mask="url(#mask2_2670_116)">
<path d="M5.89319 19.4113C5.89319 19.4113 3.94652 19.1179 3.51986 17.4646C3.09319 15.8379 4.02652 14.2646 4.98652 12.9579C6.37319 11.0113 1.17319 12.9846 1.17319 12.9846L1.03986 21.9713C1.03986 21.9713 5.59986 20.8779 5.89319 19.4113Z" fill="url(#paint6_linear_2670_116)"/>
</g>
<path d="M14.9865 26.6646H6.93318C-1.06682 26.6646 -2.61349 15.3046 4.77318 12.9846C4.77318 12.9846 4.93318 12.9313 5.01318 12.9846C3.54651 14.478 2.66651 15.198 2.50651 16.478C2.23985 18.4246 3.35985 20.2113 4.74651 20.318C4.79985 20.318 4.82651 20.318 4.87985 20.318C5.46651 20.318 8.61318 20.318 8.61318 20.318L14.9865 26.6646Z" fill="url(#paint7_linear_2670_116)"/>
<mask id="mask3_2670_116" style="mask-type:alpha" maskUnits="userSpaceOnUse" x="0" y="12" width="15" height="15">
<path d="M14.9865 26.6646H6.93318C-1.06682 26.6646 -2.61349 15.3046 4.77318 12.9846C4.77318 12.9846 4.93318 12.9313 5.01318 12.9846C3.54651 14.478 2.66651 15.198 2.50651 16.478C2.23985 18.4246 3.35985 20.2113 4.74651 20.318C4.79985 20.318 4.82651 20.318 4.87985 20.318C5.46651 20.318 8.61318 20.318 8.61318 20.318L14.9865 26.6646Z" fill="url(#paint8_linear_2670_116)"/>
</mask>
<g mask="url(#mask3_2670_116)">
<path d="M15.8932 26.7713C15.8932 26.7713 1.33318 25.6513 2.45318 16.558C5.83984 13.0913 9.86651 18.078 9.86651 18.078L15.8932 26.7713Z" fill="url(#paint9_linear_2670_116)"/>
</g>
<mask id="mask4_2670_116" style="mask-type:alpha" maskUnits="userSpaceOnUse" x="0" y="12" width="15" height="15">
<path d="M14.9865 26.6646H6.93318C-1.06682 26.6646 -2.61349 15.3046 4.77318 12.9846C4.77318 12.9846 4.93318 12.9313 5.01318 12.9846C3.54651 14.478 2.66651 15.198 2.50651 16.478C2.23985 18.4246 3.35985 20.2113 4.74651 20.318C4.79985 20.318 4.82651 20.318 4.87985 20.318C5.46651 20.318 8.61318 20.318 8.61318 20.318L14.9865 26.6646Z" fill="url(#paint10_linear_2670_116)"/>
</mask>
<g mask="url(#mask4_2670_116)">
<path d="M-0.24016 18.3179C-0.24016 18.3179 2.15984 25.8379 8.58651 20.2912C15.0132 14.7445 17.9732 28.6645 17.9732 28.6645L1.54651 27.4379L-0.746826 22.7179L-0.24016 18.3179Z" fill="url(#paint11_linear_2670_116)"/>
</g>
<path d="M25.1198 10.1316L20.5865 14.4249L18.1065 16.9049L14.5865 13.4116L18.9065 9.1449L19.0132 8.9849C19.0132 9.01157 19.0398 9.01157 19.0398 9.03823C21.2265 8.4249 23.4398 8.9049 25.1198 10.1316Z" fill="url(#paint12_linear_2670_116)"/>
<mask id="mask5_2670_116" style="mask-type:alpha" maskUnits="userSpaceOnUse" x="14" y="8" width="12" height="9">
<path d="M25.1198 10.1316L20.5865 14.4249L18.1065 16.9049L14.5865 13.4116L18.9065 9.1449L19.0132 8.9849C19.0132 9.01157 19.0398 9.01157 19.0398 9.03823C21.2265 8.4249 23.4398 8.9049 25.1198 10.1316Z" fill="url(#paint13_linear_2670_116)"/>
</mask>
<g mask="url(#mask5_2670_116)">
<path d="M20.0798 7.17139C20.0798 7.17139 16.6131 11.7314 18.1065 16.9047C15.1731 18.6914 11.9998 14.9581 11.9998 14.9581L20.0798 7.17139Z" fill="url(#paint14_linear_2670_116)"/>
</g>
<mask id="mask6_2670_116" style="mask-type:alpha" maskUnits="userSpaceOnUse" x="14" y="8" width="12" height="9">
<path d="M25.1198 10.1316L20.5865 14.4249L18.1065 16.9049L14.5865 13.4116L18.9065 9.1449L19.0132 8.9849C19.0132 9.01157 19.0398 9.01157 19.0398 9.03823C21.2265 8.4249 23.4398 8.9049 25.1198 10.1316Z" fill="url(#paint15_linear_2670_116)"/>
</mask>
<g mask="url(#mask6_2670_116)">
<path d="M15.4665 14.6649C15.4665 14.6649 17.0665 11.2782 19.0398 9.03819C21.0132 6.79819 17.0665 9.43819 17.0665 9.43819L14.5865 13.3849L15.4665 14.6649Z" fill="url(#paint16_linear_2670_116)"/>
</g>
<path d="M26.0798 26.6647H25.1465C25.0665 26.638 24.9865 26.5847 24.9065 26.5314C30.9065 24.638 26.4265 20.2913 26.4265 20.2913L20.5865 14.4247L25.1198 10.1313C26.7732 11.3313 27.8932 13.2513 27.9732 15.518C33.9465 17.4913 32.5598 26.6647 26.0798 26.6647Z" fill="url(#paint17_linear_2670_116)"/>
<mask id="mask7_2670_116" style="mask-type:alpha" maskUnits="userSpaceOnUse" x="20" y="10" width="12" height="17">
<path d="M26.0798 26.6647H25.1465C25.0665 26.638 24.9865 26.5847 24.9065 26.5314C30.9065 24.638 26.4265 20.2913 26.4265 20.2913L20.5865 14.4247L25.1198 10.1313C26.7732 11.3313 27.8932 13.2513 27.9732 15.518C33.9465 17.4913 32.5598 26.6647 26.0798 26.6647Z" fill="url(#paint18_linear_2670_116)"/>
</mask>
<g mask="url(#mask7_2670_116)">
<path d="M31.2265 17.4112C31.2265 17.4112 27.6531 13.3845 22.7731 16.8512C17.8931 20.3179 26.3998 22.4512 26.3998 22.4512L23.6798 27.0645L29.0132 27.0912L34.4531 21.9445L31.2265 17.4112Z" fill="url(#paint19_linear_2670_116)"/>
</g>
<mask id="mask8_2670_116" style="mask-type:alpha" maskUnits="userSpaceOnUse" x="20" y="10" width="12" height="17">
<path d="M26.0798 26.6647H25.1465C25.0665 26.638 24.9865 26.5847 24.9065 26.5314C30.9065 24.638 26.4265 20.2913 26.4265 20.2913L20.5865 14.4247L25.1198 10.1313C26.7732 11.3313 27.8932 13.2513 27.9732 15.518C33.9465 17.4913 32.5598 26.6647 26.0798 26.6647Z" fill="url(#paint20_linear_2670_116)"/>
</mask>
<g mask="url(#mask8_2670_116)">
<path d="M27.6531 13.438C27.6531 13.438 28.8798 16.958 26.4265 20.2647C16.9065 14.158 19.9731 11.7047 19.9731 11.7047L25.1198 10.1313C25.1198 10.1313 27.7598 11.0647 27.6531 13.438Z" fill="url(#paint21_linear_2670_116)"/>
</g>
<path d="M19.0132 8.98485L18.9065 9.14485L14.5865 13.4115L13.1732 11.9982L13.1465 11.9715C13.1465 11.9715 8.98651 7.35818 4.98651 12.9848V12.9582C5.30651 5.49151 14.9065 2.90485 19.0132 8.98485Z" fill="url(#paint22_linear_2670_116)"/>
<mask id="mask9_2670_116" style="mask-type:alpha" maskUnits="userSpaceOnUse" x="4" y="5" width="16" height="9">
<path d="M19.0132 8.98494L18.9065 9.14494L14.5865 13.4116L13.1732 11.9983L13.1465 11.9716C13.1465 11.9716 8.98651 7.35828 4.98651 12.9849V12.9583C5.30651 5.51828 14.8798 2.90494 19.0132 8.98494Z" fill="url(#paint23_linear_2670_116)"/>
</mask>
<g mask="url(#mask9_2670_116)">
<path d="M19.4399 9.01174C19.4399 9.01174 16.7199 4.05174 12.6399 4.53174C8.55987 5.01174 5.67987 6.79841 6.6932 8.23841C9.8932 4.29174 18.8799 6.15841 14.5865 13.4117C18.7999 16.3717 19.4399 9.01174 19.4399 9.01174Z" fill="url(#paint24_linear_2670_116)"/>
</g>
<mask id="mask10_2670_116" style="mask-type:alpha" maskUnits="userSpaceOnUse" x="4" y="5" width="16" height="9">
<path d="M19.0132 9.0117L18.9065 9.1717L14.5865 13.4384L13.1732 12.025L13.1465 11.9984C13.1465 11.9984 8.98651 7.38504 4.98651 13.0117V12.985C5.30651 5.51837 14.9065 2.9317 19.0132 9.0117Z" fill="url(#paint25_linear_2670_116)"/>
</mask>
<g mask="url(#mask10_2670_116)">
<path d="M19.0398 9.0647C19.0398 9.0647 16.4532 7.19804 13.7332 7.3847C9.14651 7.67804 6.10651 11.0647 4.98651 12.9847C15.2532 14.6647 15.9732 14.2647 15.9732 14.2647L19.0398 9.0647Z" fill="url(#paint26_linear_2670_116)"/>
</g>
<mask id="mask11_2670_116" style="mask-type:alpha" maskUnits="userSpaceOnUse" x="8" y="20" width="21" height="7">
<path d="M24.9065 26.5315C24.9865 26.5848 25.0665 26.6115 25.1465 26.6648H14.9599L8.55988 20.2915H26.4265C26.4265 20.2915 30.9065 24.6382 24.9065 26.5315Z" fill="url(#paint27_linear_2670_116)"/>
</mask>
<g mask="url(#mask11_2670_116)">
<path d="M24.2132 20.1848C24.2132 20.1848 26.8532 21.3048 26.8799 23.5448C26.9065 25.0115 25.7065 26.3981 24.6932 26.6648C23.7065 26.9048 32.7199 27.0115 32.7199 27.0115L29.7065 19.5981L24.2132 20.1848Z" fill="url(#paint28_linear_2670_116)"/>
<path d="M24.9065 26.5315C24.9865 26.5848 25.0665 26.6115 25.1465 26.6648H14.9599L8.55988 20.2915H26.4265C26.4265 20.2915 30.9065 24.6382 24.9065 26.5315Z" fill="url(#paint29_linear_2670_116)"/>
</g>
<mask id="mask12_2670_116" style="mask-type:alpha" maskUnits="userSpaceOnUse" x="8" y="20" width="21" height="7">
<path d="M24.9065 26.5315C24.9865 26.5848 25.0665 26.6115 25.1465 26.6648H14.9599L8.55988 20.2915H26.4265C26.4265 20.2915 30.9065 24.6382 24.9065 26.5315Z" fill="url(#paint30_linear_2670_116)"/>
</mask>
<g mask="url(#mask12_2670_116)">
<path d="M10.9865 19.4116C10.9865 19.4116 11.1199 22.2116 14.9599 26.6383C16.0265 29.1716 7.14655 20.1583 7.14655 20.1583L10.9865 19.4116Z" fill="url(#paint31_linear_2670_116)"/>
</g>
<mask id="mask13_2670_116" style="mask-type:alpha" maskUnits="userSpaceOnUse" x="8" y="20" width="21" height="7">
<path d="M24.9065 26.5315C24.9865 26.5848 25.0665 26.6115 25.1465 26.6648H14.9599L8.55988 20.2915H26.4265C26.4265 20.2915 30.9065 24.6382 24.9065 26.5315Z" fill="url(#paint32_linear_2670_116)"/>
</mask>
<g mask="url(#mask13_2670_116)">
<path d="M18.5332 20.105C18.5332 20.105 19.8132 24.6383 24.9332 26.7183C28.7999 28.2916 13.1999 28.1583 13.1999 28.1583L8.23987 20.105H18.5332Z" fill="url(#paint33_linear_2670_116)"/>
</g>
<mask id="mask14_2670_116" style="mask-type:alpha" maskUnits="userSpaceOnUse" x="8" y="20" width="21" height="7">
<path d="M24.9065 26.5315C24.9865 26.5848 25.0665 26.6115 25.1465 26.6648H14.9599L8.55988 20.2915H26.4265C26.4265 20.2915 30.9065 24.6382 24.9065 26.5315Z" fill="url(#paint34_linear_2670_116)"/>
</mask>
<g mask="url(#mask14_2670_116)">
<path d="M9.81321 19.6514C9.81321 19.6514 11.8932 22.9314 14.9599 26.6647C16.0265 29.198 7.14655 20.1847 7.14655 20.1847L9.81321 19.6514Z" fill="url(#paint35_linear_2670_116)"/>
</g>
<defs>
<linearGradient id="paint0_linear_2670_116" x1="2.42795" y1="15.2333" x2="13.1693" y2="15.2333" gradientUnits="userSpaceOnUse">
<stop stop-color="#0049E7"/>
<stop offset="0.3231" stop-color="#0E4DEF"/>
<stop offset="1" stop-color="#2DDAFF"/>
</linearGradient>
<linearGradient id="paint1_linear_2670_116" x1="2.42795" y1="15.2333" x2="13.1693" y2="15.2333" gradientUnits="userSpaceOnUse">
<stop stop-color="#0049E7"/>
<stop offset="0.3231" stop-color="#0E78EF"/>
<stop offset="1" stop-color="#2DDAFF"/>
</linearGradient>
<linearGradient id="paint2_linear_2670_116" x1="6.26971" y1="11.3705" x2="14.2002" y2="11.3705" gradientUnits="userSpaceOnUse">
<stop stop-color="#0049E7"/>
<stop offset="0.3231" stop-color="#0E78EF"/>
<stop offset="1" stop-color="#2DDAFF"/>
</linearGradient>
<linearGradient id="paint3_linear_2670_116" x1="2.42795" y1="15.2333" x2="13.1693" y2="15.2333" gradientUnits="userSpaceOnUse">
<stop stop-color="#0049E7"/>
<stop offset="0.3231" stop-color="#0E78EF"/>
<stop offset="1" stop-color="#2DDAFF"/>
</linearGradient>
<linearGradient id="paint4_linear_2670_116" x1="1.03978" y1="17.0356" x2="5.88938" y2="17.0356" gradientUnits="userSpaceOnUse">
<stop stop-color="#2A004F"/>
<stop offset="1" stop-color="#2A004F"/>
</linearGradient>
<linearGradient id="paint5_linear_2670_116" x1="2.42795" y1="15.2333" x2="13.1693" y2="15.2333" gradientUnits="userSpaceOnUse">
<stop stop-color="#0049E7"/>
<stop offset="0.3231" stop-color="#0E78EF"/>
<stop offset="1" stop-color="#2DDAFF"/>
</linearGradient>
<linearGradient id="paint6_linear_2670_116" x1="1.03978" y1="17.0356" x2="5.88938" y2="17.0356" gradientUnits="userSpaceOnUse">
<stop stop-color="#2A004F"/>
<stop offset="1" stop-color="#2A004F"/>
</linearGradient>
<linearGradient id="paint7_linear_2670_116" x1="-0.00354083" y1="19.8042" x2="14.9756" y2="19.8042" gradientUnits="userSpaceOnUse">
<stop stop-color="#0077C0"/>
<stop offset="0.49" stop-color="#27CBC0"/>
<stop offset="1" stop-color="#C3FF42"/>
</linearGradient>
<linearGradient id="paint8_linear_2670_116" x1="-0.00354083" y1="19.8042" x2="14.9756" y2="19.8042" gradientUnits="userSpaceOnUse">
<stop stop-color="#0077C0"/>
<stop offset="0.49" stop-color="#27CBC0"/>
<stop offset="1" stop-color="#C3FF42"/>
</linearGradient>
<linearGradient id="paint9_linear_2670_116" x1="2.38699" y1="21.0434" x2="15.8819" y2="21.0434" gradientUnits="userSpaceOnUse">
<stop stop-color="#0077C0"/>
<stop offset="0.49" stop-color="#27CBC0"/>
<stop offset="1" stop-color="#C3FF42"/>
</linearGradient>
<linearGradient id="paint10_linear_2670_116" x1="-0.00354083" y1="19.8042" x2="14.9756" y2="19.8042" gradientUnits="userSpaceOnUse">
<stop stop-color="#0077C0"/>
<stop offset="0.49" stop-color="#27CBC0"/>
<stop offset="1" stop-color="#C3FF42"/>
</linearGradient>
<linearGradient id="paint11_linear_2670_116" x1="-0.739813" y1="23.4895" x2="17.9739" y2="23.4895" gradientUnits="userSpaceOnUse">
<stop stop-color="#0077C0"/>
<stop offset="0.49" stop-color="#27CBC0"/>
<stop offset="1" stop-color="#C3FF42"/>
</linearGradient>
<linearGradient id="paint12_linear_2670_116" x1="14.5849" y1="12.8447" x2="25.1203" y2="12.8447" gradientUnits="userSpaceOnUse">
<stop stop-color="#0049E7"/>
<stop offset="0.3231" stop-color="#0E78EF"/>
<stop offset="1" stop-color="#2DDAFF"/>
</linearGradient>
<linearGradient id="paint13_linear_2670_116" x1="14.5849" y1="12.8447" x2="25.1203" y2="12.8447" gradientUnits="userSpaceOnUse">
<stop stop-color="#0049E7"/>
<stop offset="0.3231" stop-color="#0E78EF"/>
<stop offset="1" stop-color="#2DDAFF"/>
</linearGradient>
<linearGradient id="paint14_linear_2670_116" x1="12.0132" y1="12.2898" x2="20.0673" y2="12.2898" gradientUnits="userSpaceOnUse">
<stop stop-color="#0049E7"/>
<stop offset="0.3231" stop-color="#0E78EF"/>
<stop offset="1" stop-color="#2DDAFF"/>
</linearGradient>
<linearGradient id="paint15_linear_2670_116" x1="14.5849" y1="12.8447" x2="25.1203" y2="12.8447" gradientUnits="userSpaceOnUse">
<stop stop-color="#0049E7"/>
<stop offset="0.3231" stop-color="#0E78EF"/>
<stop offset="1" stop-color="#2DDAFF"/>
</linearGradient>
<linearGradient id="paint16_linear_2670_116" x1="14.5849" y1="11.4063" x2="19.5876" y2="11.4063" gradientUnits="userSpaceOnUse">
<stop stop-color="#2A004F"/>
<stop offset="1" stop-color="#2A004F"/>
</linearGradient>
<linearGradient id="paint17_linear_2670_116" x1="29.6154" y1="25.0215" x2="21.5518" y2="11.4046" gradientUnits="userSpaceOnUse">
<stop stop-color="#0077C0"/>
<stop offset="0.49" stop-color="#27CBC0"/>
<stop offset="1" stop-color="#C3FF42"/>
</linearGradient>
<linearGradient id="paint18_linear_2670_116" x1="29.6154" y1="25.0215" x2="21.5518" y2="11.4046" gradientUnits="userSpaceOnUse">
<stop stop-color="#0077C0"/>
<stop offset="0.49" stop-color="#27CBC0"/>
<stop offset="1" stop-color="#C3FF42"/>
</linearGradient>
<linearGradient id="paint19_linear_2670_116" x1="30.0159" y1="26.1099" x2="23.7646" y2="15.5535" gradientUnits="userSpaceOnUse">
<stop stop-color="#0077C0"/>
<stop offset="0.49" stop-color="#27CBC0"/>
<stop offset="1" stop-color="#C3FF42"/>
</linearGradient>
<linearGradient id="paint20_linear_2670_116" x1="29.6154" y1="25.0215" x2="21.5518" y2="11.4046" gradientUnits="userSpaceOnUse">
<stop stop-color="#0077C0"/>
<stop offset="0.49" stop-color="#27CBC0"/>
<stop offset="1" stop-color="#C3FF42"/>
</linearGradient>
<linearGradient id="paint21_linear_2670_116" x1="27.3092" y1="19.4096" x2="21.7656" y2="10.0484" gradientUnits="userSpaceOnUse">
<stop stop-color="#0077C0"/>
<stop offset="0.49" stop-color="#27CBC0"/>
<stop offset="1" stop-color="#C3FF42"/>
</linearGradient>
<linearGradient id="paint22_linear_2670_116" x1="18.199" y1="7.99237" x2="5.3167" y2="11.7813" gradientUnits="userSpaceOnUse">
<stop stop-color="#0077C0"/>
<stop offset="0.49" stop-color="#27CBC0"/>
<stop offset="1" stop-color="#C3FF42"/>
</linearGradient>
<linearGradient id="paint23_linear_2670_116" x1="18.1916" y1="8.00302" x2="5.31115" y2="11.7914" gradientUnits="userSpaceOnUse">
<stop stop-color="#0077C0"/>
<stop offset="0.49" stop-color="#27CBC0"/>
<stop offset="1" stop-color="#C3FF42"/>
</linearGradient>
<linearGradient id="paint24_linear_2670_116" x1="18.7142" y1="8.0091" x2="8.04507" y2="11.1471" gradientUnits="userSpaceOnUse">
<stop stop-color="#0077C0"/>
<stop offset="0.49" stop-color="#27CBC0"/>
<stop offset="1" stop-color="#C3FF42"/>
</linearGradient>
<linearGradient id="paint25_linear_2670_116" x1="18.2017" y1="8.0237" x2="5.32126" y2="11.8121" gradientUnits="userSpaceOnUse">
<stop stop-color="#0077C0"/>
<stop offset="0.49" stop-color="#27CBC0"/>
<stop offset="1" stop-color="#C3FF42"/>
</linearGradient>
<linearGradient id="paint26_linear_2670_116" x1="18.6705" y1="9.56174" x2="5.7815" y2="13.3526" gradientUnits="userSpaceOnUse">
<stop stop-color="#0077C0"/>
<stop offset="0.49" stop-color="#27CBC0"/>
<stop offset="1" stop-color="#C3FF42"/>
</linearGradient>
<linearGradient id="paint27_linear_2670_116" x1="8.55366" y1="23.4708" x2="28.0396" y2="23.4708" gradientUnits="userSpaceOnUse">
<stop stop-color="#0049E7"/>
<stop offset="0.3231" stop-color="#0E78EF"/>
<stop offset="1" stop-color="#2DDAFF"/>
</linearGradient>
<linearGradient id="paint28_linear_2670_116" x1="24.2228" y1="23.2805" x2="32.7048" y2="23.2805" gradientUnits="userSpaceOnUse">
<stop stop-color="#0049E7"/>
<stop offset="0.3231" stop-color="#0E78EF"/>
<stop offset="1" stop-color="#2DDAFF"/>
</linearGradient>
<linearGradient id="paint29_linear_2670_116" x1="8.55366" y1="23.4708" x2="28.0396" y2="23.4708" gradientUnits="userSpaceOnUse">
<stop stop-color="#0049E7"/>
<stop offset="0.3231" stop-color="#0E78EF"/>
<stop offset="1" stop-color="#2DDAFF"/>
</linearGradient>
<linearGradient id="paint30_linear_2670_116" x1="8.55366" y1="23.4708" x2="28.0396" y2="23.4708" gradientUnits="userSpaceOnUse">
<stop stop-color="#0049E7"/>
<stop offset="0.3231" stop-color="#0E78EF"/>
<stop offset="1" stop-color="#2DDAFF"/>
</linearGradient>
<linearGradient id="paint31_linear_2670_116" x1="7.1446" y1="23.2636" x2="15.0369" y2="23.2636" gradientUnits="userSpaceOnUse">
<stop stop-color="#0049E7"/>
<stop offset="0.3231" stop-color="#0E78EF"/>
<stop offset="1" stop-color="#2DDAFF"/>
</linearGradient>
<linearGradient id="paint32_linear_2670_116" x1="8.55366" y1="23.4708" x2="28.0396" y2="23.4708" gradientUnits="userSpaceOnUse">
<stop stop-color="#0049E7"/>
<stop offset="0.3231" stop-color="#0E78EF"/>
<stop offset="1" stop-color="#2DDAFF"/>
</linearGradient>
<linearGradient id="paint33_linear_2670_116" x1="8.24763" y1="24.1378" x2="25.5708" y2="24.1378" gradientUnits="userSpaceOnUse">
<stop stop-color="#0049E7"/>
<stop offset="1" stop-color="#2DFFFF"/>
</linearGradient>
<linearGradient id="paint34_linear_2670_116" x1="8.55366" y1="23.4708" x2="28.0396" y2="23.4708" gradientUnits="userSpaceOnUse">
<stop stop-color="#0049E7"/>
<stop offset="0.3231" stop-color="#0E78EF"/>
<stop offset="1" stop-color="#2DDAFF"/>
</linearGradient>
<linearGradient id="paint35_linear_2670_116" x1="7.1446" y1="23.3753" x2="15.0369" y2="23.3753" gradientUnits="userSpaceOnUse">
<stop stop-color="#2A004F"/>
<stop offset="1" stop-color="#2A004F"/>
</linearGradient>
</defs>
</svg>
