<svg xmlns="http://www.w3.org/2000/svg" width="32" height="32" viewBox="0 0 500 500"><path fill="#2C4052" d="M500 470.837C500 486.949 486.94 500 470.837 500H29.164C13.056 500 0 486.949 0 470.837V29.164C0 13.06 13.056 0 29.164 0h441.673C486.94 0 500 13.06 500 29.164v441.673z"/><path fill="#5FAADA" d="M304.107 170.151c-.336.335-.66.679-.99 1.018l-.021-.02-116.997 116.997c-9.981 9.691-23.093 15.031-37.03 15.031-14.204 0-27.562-5.531-37.601-15.58-20.734-20.729-20.734-54.467 0-75.202 10.039-10.043 23.392-15.575 37.601-15.575 14.2 0 27.553 5.532 37.601 15.575l42.246-42.25c-21.329-21.325-49.686-33.072-79.847-33.072-30.162 0-58.522 11.747-79.847 33.076-44.033 44.029-44.033 115.706 0 159.735C90.546 351.215 118.907 363 149.064 363h.004c30.161 0 58.521-11.785 79.847-33.113l-.011-.02L300.766 258h.006l44.802-44.812.021.017c.258-.267.497-.544.765-.806 20.729-20.729 54.462-20.736 75.196-.001l42.25-42.25c-44.03-44.029-115.673-44.03-159.699.003z"/><path fill="#FFF" d="M383.954 303.18c-14.204 0-27.558-5.533-37.596-15.58a52.827 52.827 0 0 1-14.473-26.938l-45.745 45.746a112.571 112.571 0 0 0 17.963 23.439c21.328 21.329 49.688 33.076 79.851 33.076s58.521-11.747 79.852-33.076l-42.25-42.244c-10.044 10.043-23.397 15.577-37.602 15.577z"/></svg>