<svg width="122" height="121" viewBox="0 0 122 121" fill="none" xmlns="http://www.w3.org/2000/svg">
<path d="M98.91 49.11C96.3227 40.9973 91.2371 33.9102 84.3799 28.8616C77.5227 23.813 69.245 21.0614 60.73 21C53.5308 20.9587 46.4564 22.8798 40.267 26.5568C34.0775 30.2339 29.0069 35.5279 25.6 41.87C19.3384 42.9921 13.5984 46.0833 9.21537 50.6937C4.83233 55.304 2.03504 61.1928 1.23064 67.5031C0.426243 73.8133 1.65672 80.2156 4.74298 85.7781C7.82924 91.3406 12.6102 95.7729 18.39 98.43L19.14 98.77H19.19V90.27C15.225 87.8361 12.121 84.2226 10.313 79.9359C8.50501 75.6492 8.08362 70.9043 9.10792 66.366C10.1322 61.8278 12.5509 57.7239 16.0248 54.6293C19.4988 51.5348 23.854 49.6049 28.48 49.11L30.58 48.89L31.5 47C34.1122 41.4641 38.2505 36.7889 43.4284 33.5241C48.6064 30.2593 54.6088 28.5406 60.73 28.57C68.0238 28.6215 75.091 31.11 80.8077 35.64C86.5245 40.1699 90.5626 46.4811 92.28 53.57L93 56.43H96C100.836 56.5292 105.442 58.5156 108.833 61.9648C112.225 65.4141 114.133 70.0528 114.15 74.89C114.15 81.94 110.08 87.71 103.15 90.63V98.69L103.65 98.53C114.79 94.88 121.71 85.82 121.71 74.89C121.664 68.5639 119.33 62.4681 115.139 57.7293C110.948 52.9904 105.183 49.9287 98.91 49.11Z" fill="#3448C5"/>
<path d="M46.07 97.79L47.73 99.45C47.7748 99.4961 47.8052 99.5543 47.8174 99.6175C47.8296 99.6806 47.8231 99.746 47.7987 99.8055C47.7742 99.865 47.7329 99.916 47.6799 99.9524C47.6268 99.9887 47.5643 100.009 47.5 100.01H34.4C32.8087 100.01 31.2826 99.3779 30.1573 98.2527C29.0321 97.1274 28.4 95.6013 28.4 94.01V68.57C28.4 68.4825 28.3652 68.3986 28.3033 68.3367C28.2414 68.2748 28.1575 68.24 28.07 68.24H25.27C25.2048 68.2407 25.1409 68.2221 25.0864 68.1865C25.0318 68.1509 24.989 68.0999 24.9633 68.04C24.9376 67.9801 24.9303 67.914 24.9421 67.8499C24.954 67.7859 24.9846 67.7267 25.03 67.68L36.15 56.56C36.1807 56.5289 36.2173 56.5042 36.2576 56.4873C36.298 56.4704 36.3413 56.4617 36.385 56.4617C36.4287 56.4617 36.472 56.4704 36.5124 56.4873C36.5527 56.5042 36.5893 56.5289 36.62 56.56L47.73 67.68C47.7748 67.7261 47.8052 67.7843 47.8174 67.8475C47.8296 67.9106 47.8231 67.976 47.7987 68.0355C47.7742 68.095 47.7329 68.146 47.6799 68.1824C47.6268 68.2187 47.5643 68.2387 47.5 68.24H44.66C44.5715 68.24 44.4865 68.2744 44.423 68.336C44.3596 68.3977 44.3226 68.4816 44.32 68.57V93.57C44.324 95.1524 44.953 96.6692 46.07 97.79V97.79ZM70.64 97.79L72.31 99.45C72.3554 99.4967 72.386 99.5559 72.3978 99.6199C72.4097 99.684 72.4023 99.7501 72.3767 99.81C72.351 99.8699 72.3082 99.9209 72.2536 99.9565C72.199 99.992 72.1351 100.011 72.07 100.01H59C57.4087 100.01 55.8826 99.3779 54.7573 98.2527C53.6321 97.1274 53 95.6013 53 94.01V75C53 74.9116 52.9656 74.8266 52.904 74.7631C52.8423 74.6996 52.7584 74.6626 52.67 74.66H49.84C49.7757 74.6587 49.7132 74.6387 49.6601 74.6024C49.607 74.566 49.5657 74.515 49.5413 74.4555C49.5169 74.396 49.5104 74.3306 49.5226 74.2675C49.5348 74.2043 49.5652 74.1461 49.61 74.1L60.72 63C60.7507 62.9689 60.7873 62.9442 60.8276 62.9273C60.868 62.9104 60.9113 62.9017 60.955 62.9017C60.9987 62.9017 61.042 62.9104 61.0824 62.9273C61.1227 62.9442 61.1593 62.9689 61.19 63L72.31 74.08C72.3554 74.1267 72.386 74.1859 72.3978 74.2499C72.4097 74.314 72.4023 74.3801 72.3767 74.44C72.351 74.4999 72.3082 74.5509 72.2536 74.5865C72.199 74.6221 72.1351 74.6407 72.07 74.64H69.23C69.1416 74.6426 69.0576 74.6796 68.996 74.7431C68.9344 74.8066 68.9 74.8916 68.9 74.98V93.57C68.9014 95.151 69.5267 96.6675 70.64 97.79ZM95.22 97.79L96.88 99.45C96.9248 99.4961 96.9552 99.5543 96.9674 99.6175C96.9796 99.6806 96.9731 99.746 96.9487 99.8055C96.9242 99.865 96.883 99.916 96.8299 99.9524C96.7768 99.9887 96.7143 100.009 96.65 100.01H83.54C81.9487 100.01 80.4226 99.3779 79.2973 98.2527C78.1721 97.1274 77.54 95.6013 77.54 94.01V81.38C77.54 81.2925 77.5052 81.2086 77.4433 81.1467C77.3814 81.0848 77.2975 81.05 77.21 81.05H74.41C74.3436 81.0507 74.2786 81.0314 74.2233 80.9946C74.1681 80.9577 74.1253 80.9051 74.1004 80.8435C74.0756 80.782 74.0699 80.7143 74.0841 80.6495C74.0983 80.5846 74.1317 80.5256 74.18 80.48L85.3 69.37C85.3298 69.3392 85.3656 69.3146 85.4051 69.2979C85.4446 69.2811 85.4871 69.2725 85.53 69.2725C85.5729 69.2725 85.6154 69.2811 85.6549 69.2979C85.6944 69.3146 85.7302 69.3392 85.76 69.37L96.88 80.48C96.9283 80.5256 96.9617 80.5846 96.9759 80.6495C96.9901 80.7143 96.9844 80.782 96.9595 80.8435C96.9347 80.9051 96.8919 80.9577 96.8366 80.9946C96.7814 81.0314 96.7164 81.0507 96.65 81.05H93.8C93.7125 81.05 93.6285 81.0848 93.5667 81.1467C93.5048 81.2086 93.47 81.2925 93.47 81.38V93.57C93.474 95.1524 94.103 96.6692 95.22 97.79V97.79Z" fill="#3448C5"/>
</svg>
