<?xml version="1.0" encoding="UTF-8"?>
<svg width="64px" height="64px" viewBox="0 0 64 64" version="1.1" xmlns="http://www.w3.org/2000/svg" xmlns:xlink="http://www.w3.org/1999/xlink">
    <!-- Generator: Sketch 54 (76480) - https://sketchapp.com -->
    <title>cloudsuite-logo-rgb</title>
    <desc>Created with Sketch.</desc>
    <g id="Page-1" stroke="none" stroke-width="1" fill="none" fill-rule="evenodd">
        <g id="cloudsuite-logo-rgb" fill-rule="nonzero">
            <path d="M4.27670588,47.872 C3.18994599,45.9890002 3.19030688,43.6692571 4.27765261,41.7865955 C5.36499834,39.9039339 7.37413522,38.7443749 9.54824084,38.7447132 C11.7223465,38.7450514 13.7311225,39.9052355 14.8178824,41.7882353 L14.8178824,41.7882353 C11.2964048,35.6764875 11.2975328,28.1515921 14.8208425,22.0409003 C18.3441522,15.9302086 24.8559913,12.1592664 31.9096471,12.1449412 C35.1801978,12.0297588 37.7720219,9.34504899 37.7720219,6.07247059 C37.7720219,2.79989219 35.1801978,0.11518237 31.9096471,0 C20.5093578,0.00368496033 9.97660662,6.08769863 4.27738533,15.9611725 C-1.42183596,25.8346463 -1.42209495,37.9982835 4.27670588,47.872 L4.27670588,47.872 L4.27670588,47.872 Z" id="Path" fill="#EF7733"></path>
            <path d="M54.4752941,9.344 C48.5029642,3.34097068 40.3774996,-0.0236277621 31.9096471,-0.000123607777 C35.1801978,0.11518237 37.7720219,2.79989219 37.7720219,6.07247059 C37.7720219,9.34504899 35.1801978,12.0297588 31.9096471,12.1449412 C38.9686839,12.1485326 45.4903642,15.9152337 49.0210148,22.0278862 C52.5516655,28.1405386 52.5556729,35.671829 49.0315294,41.7882353 C47.9447695,43.6712351 47.9451303,45.9909782 49.0324761,47.8736398 C50.1198218,49.7563014 52.1289587,50.9158604 54.3030644,50.9155222 C56.47717,50.915184 58.485946,49.7549998 59.5727059,47.872 C66.7925726,35.3602506 64.7113287,19.5594716 54.4978824,9.344 L54.4752941,9.344 Z" id="Path" fill="#36AF84"></path>
            <path d="M54.2870588,50.9063529 C52.1135609,50.9101428 50.103566,49.7526938 49.0158496,47.8709445 C47.9281333,45.9891951 47.92837,43.6697625 49.0164706,41.7882353 L49.0164706,41.7882353 C45.4871942,47.9084809 38.9595156,51.6795049 31.8945882,51.6795049 C24.8296609,51.6795049 18.3019823,47.9084809 14.7727059,41.7882353 C13.685946,39.9052355 11.67717,38.7450514 9.50306437,38.7447132 C7.32895875,38.7443749 5.31982186,39.9039339 4.23247614,41.7865955 C3.14513041,43.6692571 3.14476952,45.9890002 4.23152941,47.872 C9.93412812,57.7429349 20.4684551,63.8230047 31.8682353,63.8230047 C43.2680155,63.8230047 53.8023425,57.7429349 59.5049412,47.872 C58.4276454,49.7380277 56.4416922,50.8929182 54.2870588,50.9063529 Z" id="Path" fill="#213360"></path>
        </g>
    </g>
</svg>