<svg width="32" height="32" viewBox="0 0 32 32" fill="none" xmlns="http://www.w3.org/2000/svg">
<path fill-rule="evenodd" clip-rule="evenodd" d="M15.2437 24.666C13.6355 24.3681 12.1553 23.5898 10.9984 22.4336C9.8416 21.2773 9.06243 19.7976 8.76373 18.1895C8.74103 18.1082 8.69681 18.0345 8.63573 17.9762C8.58527 17.9258 8.52449 17.887 8.45757 17.8625C8.39066 17.8379 8.31922 17.8282 8.24817 17.834L8.12373 17.8482L5.33617 18.2162C4.65619 18.371 4.02062 18.6794 3.47806 19.1175C2.9355 19.5557 2.50031 20.1121 2.20576 20.7443C1.91122 21.3764 1.76512 22.0675 1.77863 22.7648C1.79214 23.4621 1.96491 24.147 2.28373 24.7673L2.3904 24.9522C3.24017 26.3708 4.63573 27.1868 6.18951 27.2455C6.23023 28.3545 6.67287 29.4108 7.43491 30.2176C8.19695 31.0243 9.22637 31.5264 10.3312 31.6301C11.4361 31.7339 12.541 31.4324 13.44 30.7816C14.3389 30.1309 14.9705 29.1755 15.2171 28.0935L15.5833 25.3095L15.5975 25.1851C15.6029 25.1141 15.593 25.0427 15.5685 24.9758C15.5439 24.909 15.5053 24.8482 15.4553 24.7975C15.3997 24.7332 15.3259 24.6874 15.2437 24.666V24.666ZM8.76373 15.2437C9.06154 13.6355 9.8399 12.1553 10.9961 10.9984C12.1523 9.8416 13.6321 9.06243 15.2402 8.76373C15.3215 8.74103 15.3952 8.69681 15.4535 8.63573C15.5602 8.52906 15.6082 8.38684 15.5975 8.24817L15.5833 8.12373L15.2135 5.33617C15.0586 4.65619 14.7503 4.02062 14.3122 3.47806C13.874 2.93549 13.3176 2.50031 12.6854 2.20576C12.0533 1.91122 11.3621 1.76512 10.6649 1.77863C9.9676 1.79214 9.28265 1.96491 8.6624 2.28373L8.47751 2.3904C7.05884 3.24017 6.24284 4.63573 6.18595 6.18951C5.07684 6.22986 4.02026 6.67223 3.21324 7.43413C2.40623 8.19603 1.90388 9.22545 1.79987 10.3304C1.69586 11.4354 1.99728 12.5405 2.64794 13.4396C3.2986 14.3387 4.25407 14.9705 5.33617 15.2171L8.12017 15.5815L8.24462 15.5975C8.31563 15.6029 8.38698 15.593 8.45383 15.5685C8.52069 15.5439 8.58151 15.5053 8.63217 15.4553C8.69643 15.3997 8.74231 15.3259 8.76373 15.2437V15.2437ZM24.6659 15.2437C24.3681 13.6355 23.5898 12.1553 22.4336 10.9984C21.2773 9.8416 19.7976 9.06243 18.1895 8.76373C18.1082 8.74103 18.0345 8.69681 17.9762 8.63573C17.9257 8.58534 17.8869 8.52457 17.8623 8.45764C17.8378 8.39071 17.8281 8.31923 17.834 8.24817L17.8482 8.12373L18.2162 5.33617C18.371 4.65619 18.6794 4.02062 19.1175 3.47806C19.5557 2.93549 20.1121 2.50031 20.7443 2.20576C21.3764 1.91122 22.0675 1.76512 22.7648 1.77863C23.4621 1.79214 24.147 1.96491 24.7673 2.28373L24.9522 2.3904C26.3708 3.24017 27.1886 4.63573 27.2455 6.18951C28.3546 6.22986 29.4112 6.67223 30.2182 7.43413C31.0252 8.19603 31.5276 9.22545 31.6316 10.3304C31.7356 11.4354 31.4342 12.5405 30.7835 13.4396C30.1329 14.3387 29.1774 14.9705 28.0953 15.2171L25.3095 15.5815L25.1851 15.5975C25.114 15.6029 25.0427 15.593 24.9758 15.5685C24.909 15.5439 24.8482 15.5053 24.7975 15.4553C24.7332 15.3997 24.6874 15.3259 24.6659 15.2437V15.2437ZM18.186 24.666C19.7942 24.3681 21.2744 23.5898 22.4312 22.4336C23.5881 21.2773 24.3673 19.7976 24.6659 18.1895C24.6886 18.1082 24.7329 18.0345 24.794 17.9762C24.9006 17.8695 25.0428 17.8215 25.1815 17.834L25.306 17.8482L28.0953 18.2162C28.7753 18.371 29.4108 18.6794 29.9534 19.1175C30.496 19.5557 30.9312 20.1121 31.2257 20.7443C31.5202 21.3764 31.6663 22.0675 31.6528 22.7648C31.6393 23.4621 31.4665 24.147 31.1477 24.7673L31.0411 24.9522C30.1913 26.3708 28.794 27.1868 27.2402 27.2455C27.1995 28.3545 26.7568 29.4108 25.9948 30.2176C25.2327 31.0243 24.2033 31.5264 23.0984 31.6301C21.9936 31.7339 20.8887 31.4324 19.9897 30.7816C19.0908 30.1309 18.4591 29.1755 18.2126 28.0935L17.8482 25.3095L17.8322 25.1851C17.8268 25.1141 17.8367 25.0427 17.8612 24.9758C17.8857 24.909 17.9243 24.8482 17.9744 24.7975C18.0304 24.7329 18.1049 24.687 18.1877 24.666H18.186Z" fill="#00CA90"/>
</svg>
