<svg width="32" height="32" viewBox="0 0 32 32" fill="none" xmlns="http://www.w3.org/2000/svg">
<path d="M16.0013 31.4691C14.4546 31.4691 12.8013 31.0958 12.8013 31.0958C6.98797 29.6558 2.66797 24.4291 2.66797 18.1358C2.66797 17.6024 2.66798 17.1224 2.77464 16.5891C4.48131 16.5358 6.50797 16.8558 5.92131 17.4424C5.01464 18.3491 5.44131 22.0291 7.30798 20.6424C9.17464 19.2558 10.0813 17.4424 9.6013 16.0558C9.1213 14.6691 12.8013 14.2424 12.8013 16.5358C12.8013 18.8291 11.8946 18.3491 11.4146 19.7358C10.9346 21.1224 11.8946 21.1224 12.3213 21.6024C12.8013 22.0824 14.1346 22.9891 12.8013 26.1891C11.7346 28.5891 14.2413 30.3491 16.0013 31.4691ZM25.1746 19.0424C26.0813 19.9491 24.268 20.4291 23.788 21.8158C23.308 23.2024 21.4946 23.2024 21.0146 22.7224C20.5346 22.2424 19.628 21.8158 18.7213 21.3358C17.8146 20.8558 18.7213 19.9491 19.628 20.4291C20.5346 20.9091 20.908 19.0424 21.9213 19.0424C22.4546 19.0424 24.268 18.1358 25.1746 19.0424ZM21.068 5.81577C24.8546 7.36244 27.788 10.6691 28.908 14.6691C27.2013 15.4158 24.4813 15.7358 23.8413 15.4158C22.9346 14.9358 22.9346 12.6424 21.2813 12.5891C20.6413 12.5891 19.8946 15.3624 18.988 15.7891C18.0813 16.2691 17.6013 14.4024 16.6946 13.0158C15.788 11.6291 18.0813 10.2424 18.988 10.2424C19.8946 10.2424 19.8946 7.94911 19.8946 7.46911C19.8946 6.98911 18.988 6.45578 19.2546 5.17578C20.268 5.49578 21.068 5.81577 21.068 5.81577ZM16.588 26.5091C17.068 26.9891 17.4946 27.8958 17.068 28.3224C16.588 28.8024 15.6813 28.8024 15.2546 28.3224C14.5613 27.6824 16.1613 26.0291 16.588 26.5091Z" fill="#F9B117"/>
<path d="M17.0687 28.3215C17.5487 27.8415 17.0687 26.9348 16.5887 26.5082C16.1087 26.0282 14.5621 27.6815 15.2021 28.3215C15.6821 28.8015 16.5887 28.8015 17.0687 28.3215ZM23.7887 21.8148C24.2687 20.4282 26.0821 19.9482 25.1754 19.0415C24.2687 18.1348 22.4021 19.0415 21.9754 19.0415C20.9621 19.0415 20.5887 20.8548 19.682 20.4282C18.7754 19.9482 17.8687 20.9082 18.7754 21.3348C19.6821 21.8148 20.5887 22.2415 21.0687 22.7215C21.4954 23.2015 23.3621 23.2015 23.7887 21.8148ZM29.2287 16.2682C29.3354 16.8548 29.3354 17.4948 29.3354 18.1348C29.3354 25.4948 23.3621 31.4682 16.0021 31.4682C14.2421 30.3482 11.7354 28.5882 12.8021 26.1882C14.1887 22.9882 12.8021 22.0282 12.3221 21.6015C11.8421 21.1215 10.9354 21.1215 11.4154 19.7348C11.8954 18.3482 12.8021 18.8282 12.8021 16.5348C12.8021 14.2415 9.12205 14.7215 9.60205 16.0548C10.0821 17.4415 9.12206 19.2548 7.30872 20.6415C5.49539 22.0282 5.01539 18.3482 5.92205 17.4415C6.56205 16.8015 4.53539 16.4815 2.77539 16.5882L3.09538 14.9348C3.46871 13.1748 4.85538 10.5615 6.02871 9.38817C6.02871 9.38817 6.72205 8.6415 7.52205 8.05484L9.60205 10.6682L11.7354 8.0015C12.1621 7.5215 13.0154 6.08151 13.282 4.90817H13.3887C14.2954 4.74817 15.8421 4.8015 16.0554 4.8015C17.1754 4.8015 18.2954 4.96149 19.3087 5.22816C19.0421 6.50816 19.9487 7.0415 19.9487 7.5215C19.9487 8.0015 19.9487 10.2948 19.0421 10.2948C18.1354 10.2948 15.842 11.6815 16.7487 13.0682C17.6554 14.4548 18.1354 16.2682 19.0421 15.8415C19.9487 15.3615 20.6954 12.5882 21.3354 12.6415C22.9354 12.6948 22.9354 15.0415 23.8954 15.4682C24.5354 15.7882 27.2554 15.4682 28.9621 14.7215L29.2287 16.2682Z" fill="#80D6FA"/>
<path d="M10.1339 4.26849C10.1339 4.00182 9.86719 3.73516 9.60052 3.73516C9.33385 3.73516 9.06719 4.00182 9.06719 4.26849C9.06719 4.53516 9.33385 4.80182 9.60052 4.80182C9.86719 4.80182 10.1339 4.53516 10.1339 4.26849ZM13.3339 4.26849C13.3339 4.48182 13.2805 4.69516 13.2805 4.9085C13.0139 6.08183 12.2139 7.52182 11.7339 8.00182L9.60052 10.6685L7.52052 8.05516L7.46719 8.00182C6.93385 7.30849 5.86719 5.60182 5.86719 4.26849C5.86719 2.18849 7.52052 0.535156 9.60052 0.535156C11.6805 0.535156 13.3339 2.18849 13.3339 4.26849Z" fill="#FF7474"/>
<path d="M16.0004 31.7342C15.9471 31.7342 15.8937 31.7342 15.8404 31.6809C14.5071 30.8276 11.3071 28.8542 12.5337 26.0809C13.7604 23.2542 12.7471 22.4009 12.2671 21.9209C12.2137 21.8676 12.1604 21.8142 12.1604 21.8142C12.0537 21.7076 11.9471 21.6542 11.7871 21.5476C11.3604 21.2809 10.7204 20.9076 11.1471 19.6809C11.3604 19.0942 11.6271 18.8276 11.8404 18.5609C12.2137 18.1876 12.4804 17.8676 12.4804 16.5876C12.4804 15.8942 12.0537 15.5742 11.7337 15.4142C11.0937 15.1476 10.2404 15.2543 9.92039 15.5743C9.70706 15.7343 9.76038 15.9476 9.76038 16.0542C10.2404 17.5476 9.28038 19.5209 7.36038 20.9609C6.45372 21.6542 5.86706 21.1743 5.65373 20.9076C4.96039 20.0543 4.90706 18.0276 5.65373 17.3342C5.70706 17.2809 5.70706 17.2809 5.70706 17.2809C5.6004 17.1209 4.42706 16.8543 2.98706 16.9076C2.93373 17.3343 2.93372 17.7609 2.93372 18.1876C2.93372 24.2142 6.98706 29.4409 12.8537 30.8809C13.0137 30.9342 13.0671 31.0409 13.0671 31.2009C13.0137 31.3609 12.9071 31.4142 12.7471 31.4142C6.66705 29.9209 2.40039 24.4809 2.40039 18.1876C2.40039 17.6009 2.45373 17.1209 2.50706 16.5876V16.5342C2.50706 16.4809 2.56038 16.4809 2.56038 16.4276C2.61372 16.3742 2.61372 16.3743 2.66706 16.3743H2.72039C2.88039 16.3743 5.81373 16.2676 6.18706 17.0676C6.24039 17.1742 6.29372 17.4409 6.02705 17.6542C5.49372 18.1876 5.54705 19.8942 6.08039 20.5342C6.24039 20.6942 6.50705 20.9076 7.09372 20.4809C8.85372 19.2009 9.70705 17.4409 9.28039 16.1609C9.17372 15.7876 9.22705 15.4142 9.54705 15.1476C10.0804 14.6676 11.1471 14.5609 11.9471 14.8809C12.6404 15.2009 13.0137 15.7876 13.0137 16.5342C13.0137 18.0809 12.5871 18.5076 12.2137 18.8809C12.0004 19.0942 11.7871 19.3609 11.6271 19.8409C11.3604 20.6943 11.6271 20.8542 12.0537 21.0676C12.2137 21.1742 12.3737 21.2809 12.4804 21.3876C12.5337 21.4409 12.5337 21.4409 12.5871 21.4942C13.1737 22.0276 14.3471 23.1476 13.0137 26.2942C12.1604 28.3209 14.0271 29.9209 16.0537 31.2009C23.2004 31.1476 29.0671 25.3342 29.0671 18.1342C29.0671 17.5476 29.0137 16.9076 28.9604 16.3209C28.9604 16.1609 29.0671 16.0542 29.1737 16.0009C29.3337 16.0009 29.4404 16.1076 29.4937 16.2142C29.6004 16.8542 29.6004 17.4942 29.6004 18.0809C29.6004 25.6542 23.5204 31.7342 16.0004 31.7342ZM16.1604 28.9609C15.7337 28.9609 15.3604 28.8009 15.0404 28.5342C14.8271 28.3209 14.7737 28.0009 14.8271 27.6276C14.9871 26.9876 15.6271 26.2942 16.1604 26.1876C16.4804 26.0809 16.6937 26.2409 16.7471 26.2942C17.2804 26.8276 17.8137 27.8942 17.2271 28.5342C16.9604 28.8009 16.5871 28.9609 16.1604 28.9609ZM16.3737 26.6676C16.2671 26.6676 15.8404 26.8809 15.5737 27.3609C15.4137 27.6276 15.2537 28.0009 15.4137 28.1609C15.7871 28.5342 16.5337 28.5342 16.8537 28.1609C17.1737 27.8409 16.8004 27.0942 16.3737 26.6676C16.4271 26.6676 16.4271 26.6676 16.3737 26.6676ZM21.9737 23.2542C21.4937 23.2542 21.0671 23.1476 20.8537 22.8809C20.4271 22.4542 19.5204 21.9742 18.6137 21.5476C18.0271 21.2809 18.0271 20.8009 18.1337 20.5342C18.3471 20.0542 19.0404 19.8409 19.7337 20.1609C20.0004 20.2676 20.1604 20.1609 20.5871 19.6276C20.9071 19.2009 21.3337 18.7209 21.9204 18.7209C21.9737 18.7209 22.1871 18.6676 22.4004 18.6142C23.2004 18.4009 24.5337 18.0276 25.3337 18.8276C25.5471 19.0409 25.6537 19.2542 25.6537 19.5209C25.6537 19.9476 25.3337 20.2676 24.9604 20.6409C24.5871 20.9609 24.2137 21.3876 24.0537 21.8676C23.8404 22.5609 23.3071 22.9876 22.5604 23.2009C22.4004 23.2542 22.1871 23.2542 21.9737 23.2542ZM19.1471 20.5876C18.8804 20.5876 18.7204 20.6942 18.6671 20.8009C18.6137 20.9076 18.7737 21.0142 18.8804 21.1209C19.7871 21.6009 20.7471 22.0809 21.2271 22.5609C21.3871 22.7209 21.8671 22.8276 22.4537 22.7209C22.7737 22.6676 23.3604 22.4009 23.5737 21.7609C23.7871 21.1209 24.2671 20.6409 24.6404 20.3209C24.9071 20.0542 25.1737 19.7876 25.1737 19.6276C25.1737 19.5209 25.1204 19.4143 25.0137 19.3076C24.4271 18.7209 23.3604 19.0409 22.6137 19.2542C22.3471 19.3609 22.1337 19.4142 21.9737 19.4142C21.6004 19.4142 21.3337 19.7343 21.0671 20.1076C20.6937 20.5343 20.2671 21.1209 19.5737 20.7476C19.4137 20.5876 19.3071 20.5876 19.1471 20.5876ZM18.6671 16.1076C18.0271 16.1076 17.6004 15.2542 17.1737 14.4009C16.9604 13.9742 16.7471 13.5476 16.4804 13.1209C16.1604 12.6409 16.1604 12.1076 16.4271 11.5743C16.9604 10.6143 18.3471 9.92092 18.9871 9.92092C19.3071 9.92092 19.6271 9.28091 19.6271 7.41424C19.6271 7.36091 19.5204 7.20092 19.4137 7.04092C19.2004 6.66758 18.8271 6.13425 18.9337 5.33425C17.8137 5.06758 16.5871 4.96091 15.4137 5.01424C15.2537 5.01424 15.1471 4.90758 15.1471 4.74758C15.1471 4.58758 15.2537 4.48091 15.4137 4.48091C16.6937 4.42758 18.0271 4.58758 19.3071 4.90758C19.4671 4.96092 19.5204 5.06757 19.5204 5.22757C19.3604 5.97424 19.6271 6.40092 19.8937 6.77425C20.0537 6.98758 20.1604 7.20091 20.1604 7.41424C20.1604 9.44091 19.7871 10.4542 18.9871 10.4542C18.4537 10.4542 17.2804 11.0409 16.8537 11.7876C16.6404 12.1609 16.6937 12.4809 16.9071 12.8009C17.1737 13.2276 17.4404 13.7076 17.6537 14.0809C18.1871 15.1476 18.5071 15.6276 18.8804 15.4676C19.2537 15.2542 19.6804 14.4542 20.0004 13.7609C20.4804 12.8542 20.7471 12.2142 21.2804 12.2142C22.4004 12.2676 22.8804 13.2276 23.2537 14.0276C23.4671 14.5076 23.6804 14.9342 23.9471 15.0942C24.4271 15.3609 26.8271 15.0942 28.5871 14.4542C27.4671 10.6676 24.6404 7.52091 20.9604 6.02757C20.8004 5.97424 20.7471 5.81425 20.8004 5.65425C20.8537 5.49425 21.0137 5.44091 21.1737 5.49424C25.0671 7.09424 28.0537 10.4543 29.1737 14.5076V14.5609C29.1737 14.6142 29.1737 14.6142 29.1737 14.6676C29.1737 14.7209 29.1204 14.7209 29.1204 14.7743L29.0671 14.8276C27.3604 15.5742 24.5337 15.9476 23.7871 15.5743C23.3604 15.3609 23.0937 14.8276 22.8271 14.2942C22.4537 13.5476 22.1337 12.8542 21.3337 12.8009C21.1737 12.8542 20.8004 13.6009 20.5337 14.0809C20.1071 14.8809 19.6804 15.7342 19.1471 16.0009C18.9337 16.0542 18.8271 16.1076 18.6671 16.1076ZM3.0404 15.2009H2.98706C2.82706 15.1476 2.77373 15.0409 2.77373 14.8809C3.2004 13.0142 4.58705 10.4009 5.76038 9.22757C5.86705 9.12091 6.02706 9.12091 6.13372 9.22757C6.24039 9.33424 6.24039 9.49425 6.13372 9.60091C5.01372 10.6676 3.6804 13.2809 3.30706 14.9876C3.30706 15.0942 3.2004 15.2009 3.0404 15.2009ZM9.60039 10.9342C9.49372 10.9342 9.44039 10.8809 9.38706 10.8276L7.25373 8.16091C6.61373 7.30757 5.60039 5.60091 5.60039 4.26758C5.60039 2.08091 7.41372 0.267578 9.60039 0.267578C11.7871 0.267578 13.6004 2.08091 13.6004 4.26758C13.6004 5.70758 12.4271 7.62757 11.9471 8.16091L9.81372 10.8276C9.76039 10.8809 9.70706 10.9342 9.60039 10.9342ZM9.60039 0.800911C7.68039 0.800911 6.13372 2.34758 6.13372 4.26758C6.13372 5.44091 7.14705 7.14759 7.68039 7.84092L9.60039 10.2409L11.5204 7.84092C12.0537 7.20092 13.0671 5.44091 13.0671 4.26758C13.0671 2.34758 11.5204 0.800911 9.60039 0.800911ZM9.60039 5.06758C9.17372 5.06758 8.80039 4.69425 8.80039 4.26758C8.80039 3.84091 9.17372 3.46758 9.60039 3.46758C10.0271 3.46758 10.4004 3.84091 10.4004 4.26758C10.4004 4.69425 10.0271 5.06758 9.60039 5.06758ZM9.60039 4.00091C9.44039 4.00091 9.33372 4.10758 9.33372 4.26758C9.33372 4.42758 9.44039 4.53425 9.60039 4.53425C9.76039 4.53425 9.86706 4.42758 9.86706 4.26758C9.86706 4.10758 9.76039 4.00091 9.60039 4.00091Z" fill="#51565F"/>
</svg>
