<svg width="32" height="32" viewBox="0 0 32 32" fill="none" xmlns="http://www.w3.org/2000/svg">
<path d="M17.5055 11.2348C13.5245 15.1836 7.18753 13.4448 5.13966 12.7443C4.92219 12.672 4.72887 12.8953 4.83156 13.1005C5.23633 13.9158 6.06391 15.3043 7.16337 16.3549C9.46497 18.6915 12.6123 19.9897 15.9167 19.9897H15.9529C22.7007 19.9897 28.21 14.592 28.3369 7.84157C28.3369 7.70877 28.2402 7.59421 28.1073 7.58205C26.9414 7.44317 21.6737 7.11709 17.5055 11.2348Z" fill="#212121"/>
<path d="M31.0686 6.39999C30.6094 6.39999 30.2349 6.7744 30.241 7.23936C30.241 7.29984 30.241 7.35999 30.241 7.42047C30.241 15.3117 23.8436 21.7056 15.9481 21.7056C8.05258 21.7056 1.65522 15.3059 1.65522 7.42047C1.65522 7.35999 1.65522 7.29984 1.65522 7.23936C1.66126 6.78048 1.28672 6.39999 0.82761 6.39999C0.374538 6.39999 0.00604093 6.76831 0 7.22719C0 7.29375 0 7.35391 0 7.42047C0 16.2234 7.14038 23.36 15.9481 23.36C24.7558 23.36 31.8962 16.2234 31.8962 7.42047C31.8962 7.35391 31.8962 7.29375 31.8962 7.22719C31.8841 6.76831 31.5216 6.39999 31.0686 6.39999Z" fill="#212121"/>
<path d="M17.5055 11.2348C13.5245 15.1836 7.18753 13.4448 5.13966 12.7443C4.92219 12.672 4.72887 12.8953 4.83156 13.1005C5.23633 13.9158 6.06391 15.3043 7.16337 16.3549C9.46497 18.6915 12.6123 19.9897 15.9167 19.9897H15.9529C22.7007 19.9897 28.21 14.592 28.3369 7.84157C28.3369 7.70877 28.2402 7.59421 28.1073 7.58205C26.9414 7.44317 21.6737 7.11709 17.5055 11.2348Z" fill="#212121"/>
<path d="M31.0686 6.39999C30.6094 6.39999 30.2349 6.7744 30.241 7.23936C30.241 7.29984 30.241 7.35999 30.241 7.42047C30.241 15.3117 23.8436 21.7056 15.9481 21.7056C8.05258 21.7056 1.65522 15.3059 1.65522 7.42047C1.65522 7.35999 1.65522 7.29984 1.65522 7.23936C1.66126 6.78048 1.28672 6.39999 0.82761 6.39999C0.374538 6.39999 0.00604093 6.76831 0 7.22719C0 7.29375 0 7.35391 0 7.42047C0 16.2234 7.14038 23.36 15.9481 23.36C24.7558 23.36 31.8962 16.2234 31.8962 7.42047C31.8962 7.35391 31.8962 7.29375 31.8962 7.22719C31.8841 6.76831 31.5216 6.39999 31.0686 6.39999Z" fill="#212121"/>
<path d="M17.5055 11.2348C13.5245 15.1836 7.18753 13.4448 5.13966 12.7443C4.92219 12.672 4.72887 12.8953 4.83156 13.1005C5.23633 13.9158 6.06391 15.3043 7.16337 16.3549C9.46497 18.6915 12.6123 19.9897 15.9167 19.9897H15.9529C22.7007 19.9897 28.21 14.592 28.3369 7.84157C28.3369 7.70877 28.2402 7.59421 28.1073 7.58205C26.9414 7.44317 21.6737 7.11709 17.5055 11.2348Z" fill="#212121"/>
<path d="M31.0686 6.39999C30.6094 6.39999 30.2349 6.7744 30.241 7.23936C30.241 7.29984 30.241 7.35999 30.241 7.42047C30.241 15.3117 23.8436 21.7056 15.9481 21.7056C8.05258 21.7056 1.65522 15.3059 1.65522 7.42047C1.65522 7.35999 1.65522 7.29984 1.65522 7.23936C1.66126 6.78048 1.28672 6.39999 0.82761 6.39999C0.374538 6.39999 0.00604093 6.76831 0 7.22719C0 7.29375 0 7.35391 0 7.42047C0 16.2234 7.14038 23.36 15.9481 23.36C24.7558 23.36 31.8962 16.2234 31.8962 7.42047C31.8962 7.35391 31.8962 7.29375 31.8962 7.22719C31.8841 6.76831 31.5216 6.39999 31.0686 6.39999Z" fill="#212121"/>
<path d="M17.5055 11.2348C13.5245 15.1836 7.18753 13.4448 5.13966 12.7443C4.92219 12.672 4.72887 12.8953 4.83156 13.1005C5.23633 13.9158 6.06391 15.3043 7.16337 16.3549C9.46497 18.6915 12.6123 19.9897 15.9167 19.9897H15.9529C22.7007 19.9897 28.21 14.592 28.3369 7.84157C28.3369 7.70877 28.2402 7.59421 28.1073 7.58205C26.9414 7.44317 21.6737 7.11709 17.5055 11.2348Z" fill="#212121"/>
<path d="M31.0686 6.39999C30.6094 6.39999 30.2349 6.7744 30.241 7.23936C30.241 7.29984 30.241 7.35999 30.241 7.42047C30.241 15.3117 23.8436 21.7056 15.9481 21.7056C8.05258 21.7056 1.65522 15.3059 1.65522 7.42047C1.65522 7.35999 1.65522 7.29984 1.65522 7.23936C1.66126 6.78048 1.28672 6.39999 0.82761 6.39999C0.374538 6.39999 0.00604093 6.76831 0 7.22719C0 7.29375 0 7.35391 0 7.42047C0 16.2234 7.14038 23.36 15.9481 23.36C24.7558 23.36 31.8962 16.2234 31.8962 7.42047C31.8962 7.35391 31.8962 7.29375 31.8962 7.22719C31.8841 6.76831 31.5216 6.39999 31.0686 6.39999Z" fill="#212121"/>
</svg>
