<svg width="37" height="37" viewBox="0 0 37 37" fill="none" xmlns="http://www.w3.org/2000/svg">
<g clip-path="url(#clip0_5:180)">
<path d="M17.9 36.4L16.7 35C16.7 35 15 33 11.4 28.5L10.5 27.4C7.3 23.6 4 19.6 4 13.9C4 6.2 10.2 0 17.9 0C25.6 0 31.8 6.2 31.8 13.9C31.8 19.6 28.5 23.6 25.3 27.4L24.4 28.5C20.7 33 19.1 35 19.1 35L17.9 36.4ZM17.9 3C11.9 3 7 7.9 7 13.9C7 18.5 9.8 21.9 12.8 25.5L13.7 26.6C15.6 29 17 30.6 17.9 31.7C18.8 30.7 20.1 29 22.1 26.6L23 25.5C26 21.9 28.8 18.5 28.8 13.9C28.8 7.9 23.9 3 17.9 3Z" fill="#6A277F"/>
<path d="M17.9 17.4C13.9 17.4 10.7 20.6 10.7 24.6C10.7 27.9 12.9 30.2 14.8 32.6C16.9 35.2 17.9 36.4 17.9 36.4C17.9 36.4 18.9 35.2 21 32.6C23 30.2 25.1 27.9 25.1 24.6C25.1 20.6 21.9 17.4 17.9 17.4Z" fill="black"/>
</g>
<defs>
<clipPath id="clip0_5:180">
<rect width="36.4" height="36.4" fill="white"/>
</clipPath>
</defs>
</svg>
