<svg width="32" height="32" viewBox="0 0 32 32" fill="none" xmlns="http://www.w3.org/2000/svg">
<g clip-path="url(#clip0_2288_45)">
<path d="M1.54285 25.255C1.42437 25.3119 1.32436 25.401 1.25436 25.5122C1.18436 25.6235 1.14722 25.7522 1.14722 25.8836C1.14722 26.015 1.18436 26.1437 1.25436 26.255C1.32436 26.3662 1.42437 26.4553 1.54285 26.5122L14.8914 32.775C15.0685 32.8648 15.2643 32.9118 15.4629 32.9122V18.9236C15.2621 18.9257 15.0638 18.9685 14.88 19.0493L1.54285 25.255Z" fill="#FF761C"/>
<path d="M15.5086 18.9122V32.8664C15.7173 32.87 15.9242 32.8271 16.1143 32.7407L29.4857 26.5007C29.6042 26.4434 29.7044 26.3543 29.775 26.2433C29.8457 26.1322 29.884 26.0037 29.8857 25.8722C29.8853 25.7403 29.8475 25.6112 29.7767 25.5C29.7059 25.3887 29.605 25.2998 29.4857 25.2436L16.0914 19.0493C15.9084 18.9648 15.7101 18.9182 15.5086 18.9122V18.9122Z" fill="#FF8C1E"/>
<path d="M1.17714 6.95787C1.17754 7.08975 1.21533 7.21881 1.28613 7.33008C1.35693 7.44134 1.45784 7.53023 1.57714 7.58644L14.8914 13.8493C15.0712 13.9302 15.2657 13.973 15.4629 13.975C15.6567 13.9857 15.8508 13.9585 16.0343 13.895L16.4114 13.7236L29.4743 7.59787C29.5934 7.54304 29.6942 7.45523 29.7649 7.34484C29.8356 7.23445 29.8732 7.10611 29.8732 6.97502C29.8732 6.84392 29.8356 6.71558 29.7649 6.60519C29.6942 6.4948 29.5934 6.40699 29.4743 6.35216L16.0914 0.123586C15.9119 0.042137 15.7171 0 15.52 0C15.3229 0 15.1281 0.042137 14.9486 0.123586L1.54286 6.3293C1.43079 6.39125 1.33761 6.48241 1.27321 6.59309C1.20882 6.70377 1.17562 6.82983 1.17714 6.95787V6.95787Z" fill="#00C1AD"/>
<path d="M15.5086 14.7636V18.9122C15.3078 18.9143 15.1095 18.957 14.9257 19.0379L1.54285 25.255C1.42355 25.3112 1.32264 25.4001 1.25184 25.5114C1.18104 25.6227 1.14325 25.7517 1.14285 25.8836V6.95789C1.14325 7.08976 1.18104 7.21883 1.25184 7.33009C1.32264 7.44135 1.42355 7.53025 1.54285 7.58646L14.8914 13.8493C15.0712 13.9302 15.2657 13.973 15.4629 13.975C15.6567 13.9857 15.8508 13.9585 16.0343 13.895C15.5657 14.0893 15.5086 14.2836 15.5086 14.7636Z" fill="#D1D1D1"/>
</g>
<defs>
<clipPath id="clip0_2288_45">
<rect width="32" height="32" fill="white"/>
</clipPath>
</defs>
</svg>
