<svg width="40" height="40" viewBox="0 0 40 40" fill="none" xmlns="http://www.w3.org/2000/svg">
<path d="M18.3189 0.0983983C9.36345 1.02287 2.05087 8.1985 0.882862 17.2671C-0.0261071 24.2667 2.69963 30.6499 7.32965 34.8761C7.8489 35.3162 8.62717 35.2282 9.0169 34.6999C9.44979 34.1717 9.36346 33.4233 8.84421 32.9831C4.81978 29.2852 2.48376 23.6944 3.26204 17.5753C4.25736 9.95939 10.2281 3.79627 17.7134 2.65169C28.6175 1.02287 37.9627 9.82732 37.5298 20.7008C37.2708 27.7004 32.6839 33.8195 26.2371 36.3287C22.8195 37.6494 19.5745 37.6935 16.5885 37.0331L28.4436 14.3176C28.6607 13.8773 28.7902 13.5253 28.7902 13.1731C28.7902 12.8209 28.6607 12.5127 28.4436 12.2486C28.2278 12.0284 27.8812 11.8964 27.4483 11.8964H12.5209C12.0892 11.8964 11.7426 12.0284 11.5268 12.2486C11.3097 12.4687 11.1802 12.7768 11.1802 13.2171C11.1802 13.6132 11.3097 13.9214 11.5268 14.1416C11.7426 14.3616 12.0892 14.4937 12.5209 14.4937H25.1986L13.8196 36.1527C12.8243 37.8695 13.4299 38.75 15.5069 39.3223C17.5838 39.8505 19.8335 40.0707 22.1263 39.8505C31.4296 39.0141 39.0012 31.3983 39.9102 21.9334C41.0782 9.3871 30.6944 -1.13423 18.3189 0.0983983Z" fill="#057FCE"/>
</svg>
