<svg width="32" height="32" viewBox="0 0 32 32" fill="none" xmlns="http://www.w3.org/2000/svg">
<path d="M22.912 25.5361C20.8 25.5361 18.88 24.7681 17.344 23.5521C18.432 22.3361 19.264 20.8641 19.648 19.2641C20.416 20.2241 21.632 20.8001 22.912 20.8001C25.28 20.8001 27.2 18.8161 27.2 16.3841C27.2 13.9521 25.28 11.9681 22.912 11.9681C21.632 11.9681 20.416 12.5441 19.648 13.5041C19.2 11.9041 18.368 10.4321 17.344 9.21606C18.88 7.93606 20.8 7.23206 22.912 7.23206C27.904 7.23206 31.872 11.3281 31.872 16.4481C31.936 21.3761 27.904 25.5361 22.912 25.5361Z" fill="#329FD9"/>
<path d="M19.328 16.32H13.248C13.248 10.816 17.536 6.40002 22.912 6.40002V12.672C20.928 12.672 19.328 14.272 19.328 16.32Z" fill="#329FD9"/>
<path d="M9.60001 11.904C7.23201 11.904 5.31201 13.888 5.31201 16.32C5.31201 18.752 7.23201 20.736 9.60001 20.736C10.88 20.736 12.096 20.16 12.864 19.2C13.312 20.8 14.144 22.272 15.168 23.488C13.632 24.768 11.712 25.472 9.60001 25.472C4.60801 25.472 0.640015 21.376 0.640015 16.256C0.640015 11.264 4.67201 7.104 9.60001 7.104C11.712 7.104 13.632 7.872 15.168 9.088C14.08 10.304 13.248 11.776 12.864 13.376C12.096 12.48 10.944 11.904 9.60001 11.904Z" fill="#454545"/>
<path d="M9.59998 26.2401V19.9681C11.584 19.9681 13.184 18.3041 13.184 16.3201H19.264C19.328 21.8241 14.976 26.2401 9.59998 26.2401Z" fill="#454545"/>
</svg>
