<svg width="98" height="98" viewBox="0 0 98 98" fill="none" xmlns="http://www.w3.org/2000/svg">
<path d="M90 0H8C3.58172 0 0 3.58172 0 8V90C0 94.4183 3.58172 98 8 98H90C94.4183 98 98 94.4183 98 90V8C98 3.58172 94.4183 0 90 0Z" fill="#19191A"/>
<path fill-rule="evenodd" clip-rule="evenodd" d="M59.0245 81.627C56.2415 83.148 52.6075 84.053 50.4905 84.227C42.1135 84.916 33.6945 82.75 27.8825 77.126C22.1775 71.14 20.9955 63.16 26.1715 56.56C30.9765 50.432 38.7755 47.809 46.8775 47.491C51.3685 47.311 66.5525 49.043 62.1085 56.42C58.5025 62.408 48.5695 56.422 42.8875 58.301C36.4965 60.412 34.6435 68.92 40.6985 72.478C45.1195 75.08 51.4135 74.864 55.5595 72.139C61.5705 68.194 72.7214 49.987 79.9714 58.623C81.4374 60.367 64.5445 78.605 59.0245 81.627ZM16.7785 34.189C16.1665 31.186 16.9875 27.765 19.9985 28.206C22.5865 28.588 23.5485 32.271 23.9775 34.88C24.3345 37.037 29.7715 52.719 26.9645 52.158C24.3255 51.633 17.4145 37.308 16.7785 34.189ZM31.2135 16.7C35.2115 13.34 37.1525 19.117 37.5815 21.995C38.0085 24.822 43.0525 46.026 37.6975 45.627C33.5695 45.318 30.8375 27.35 30.4875 24.504C30.1135 22.306 29.2075 18.386 31.2135 16.7ZM51.7975 10.691C55.2395 11.357 54.2475 18.426 54.2425 20.972C54.2405 23.808 54.5374 44.678 50.1884 44.062C45.6405 43.419 46.6955 22.697 46.5015 19.353C46.6035 16.004 47.0765 9.77501 51.7975 10.691ZM62.1834 25.735C62.5494 23.618 62.9815 19.775 65.3515 18.848C70.0725 16.992 69.9874 22.841 69.4564 25.599C68.9314 28.303 65.2955 49.384 60.5455 47.401C56.8815 45.868 61.5894 28.435 62.1834 25.735Z" fill="white"/>
</svg>
