<svg width="32" height="32" viewBox="0 0 32 32" fill="none" xmlns="http://www.w3.org/2000/svg">
<mask id="mask0_2786_848" style="mask-type:alpha" maskUnits="userSpaceOnUse" x="2" y="0" width="28" height="32">
<path d="M18.4186 0.304688C22.4876 0.304688 30.4674 3.26998 28.538 7.13617C26.3316 11.5574 23.3969 6.62965 18.4186 7.13617C12.7015 7.71785 9.2504 13.2482 10.6561 18.1994C11.8056 22.2478 15.6195 25.198 20.0197 24.8463C24.2552 24.5078 27.295 20.3831 29.0358 24.2984C30.8659 28.4146 22.6593 31.627 18.4186 31.627C9.76115 31.627 2.74292 24.6153 2.74292 15.966C2.74292 7.31663 9.76115 0.304688 18.4186 0.304688ZM19.0197 11.0228C21.7778 11.0228 24.0137 13.2566 24.0137 16.0122C24.0137 18.7677 21.7778 21.0015 19.0197 21.0015C16.2616 21.0015 14.0257 18.7677 14.0257 16.0122C14.0257 13.2566 16.2616 11.0228 19.0197 11.0228ZM19.6905 12.2275C18.2659 12.2275 17.1111 13.3813 17.1111 14.8045C17.1111 16.2277 18.2659 17.3815 19.6905 17.3815C21.115 17.3815 22.2698 16.2277 22.2698 14.8045C22.2698 14.6286 22.2522 14.4569 22.2186 14.2909C22.1751 14.8425 21.7127 15.2766 21.1487 15.2766C20.556 15.2766 20.0756 14.7972 20.0756 14.2057C20.0756 13.6143 20.556 13.1349 21.1487 13.1349C21.417 13.1349 21.6622 13.2331 21.8504 13.3954C21.3899 12.6922 20.5945 12.2275 19.6905 12.2275Z" fill="white"/>
</mask>
<g mask="url(#mask0_2786_848)">
<path d="M18.4186 0.304688C22.4876 0.304688 30.4674 3.26998 28.538 7.13617C26.3316 11.5574 23.3969 6.62965 18.4186 7.13617C12.7015 7.71785 9.2504 13.2482 10.6561 18.1994C11.8056 22.2478 15.6195 25.198 20.0197 24.8463C24.2552 24.5078 27.295 20.3831 29.0358 24.2984C30.8659 28.4146 22.6593 31.627 18.4186 31.627C9.76115 31.627 2.74292 24.6153 2.74292 15.966C2.74292 7.31663 9.76115 0.304688 18.4186 0.304688ZM19.0197 11.0228C21.7778 11.0228 24.0137 13.2566 24.0137 16.0122C24.0137 18.7677 21.7778 21.0015 19.0197 21.0015C16.2616 21.0015 14.0257 18.7677 14.0257 16.0122C14.0257 13.2566 16.2616 11.0228 19.0197 11.0228ZM19.6905 12.2275C18.2659 12.2275 17.1111 13.3813 17.1111 14.8045C17.1111 16.2277 18.2659 17.3815 19.6905 17.3815C21.115 17.3815 22.2698 16.2277 22.2698 14.8045C22.2698 14.6286 22.2522 14.4569 22.2186 14.2909C22.1751 14.8425 21.7127 15.2766 21.1487 15.2766C20.556 15.2766 20.0756 14.7972 20.0756 14.2057C20.0756 13.6143 20.556 13.1349 21.1487 13.1349C21.417 13.1349 21.6622 13.2331 21.8504 13.3954C21.3899 12.6922 20.5945 12.2275 19.6905 12.2275Z" fill="#1EC8DF"/>
<path d="M37.0845 -2.50635H1.13306V43.2725H37.0845V-2.50635Z" fill="#16A1CA"/>
</g>
</svg>
