<svg width="32" height="32" viewBox="0 0 32 32" fill="none" xmlns="http://www.w3.org/2000/svg">
<path fill-rule="evenodd" clip-rule="evenodd" d="M28.5981 24.3741C28.5981 25.382 28.2238 26.3066 27.6063 27.0105C27.6039 27.0137 27.5999 27.0169 27.5967 27.0209C27.5071 27.1137 27.4175 27.2056 27.3279 27.296C27.3119 27.3152 27.2967 27.328 27.2799 27.3408C24.3907 30.2211 20.4033 32 16 32C11.8846 32 8.13477 30.4483 5.2992 27.8943L4.71049 27.3056L4.74248 27.2736C4.72408 27.2608 4.70729 27.2448 4.69129 27.232C3.84982 26.4962 3.3187 25.4171 3.3187 24.215C3.3187 22.0065 5.11123 20.2149 7.31889 20.2149C8.27555 20.2149 9.15542 20.5508 9.84412 21.1107C9.84652 21.1147 9.85051 21.1179 9.85051 21.1179C9.99449 21.2907 10.1481 21.4602 10.3048 21.6194C10.3208 21.6362 10.3376 21.6522 10.3528 21.665C10.4136 21.7258 10.4744 21.7834 10.5352 21.8378C10.5384 21.8378 10.5384 21.841 10.5384 21.841L10.5408 21.8442C10.544 21.8474 10.5472 21.8546 10.5512 21.8578C10.5536 21.861 10.5568 21.861 10.56 21.861C10.6432 21.941 10.7264 22.0169 10.8128 22.0873C10.9056 22.1681 10.9983 22.2441 11.0975 22.3185C11.1703 22.3785 11.2503 22.4361 11.3279 22.4913C11.3343 22.4977 11.3375 22.5009 11.3439 22.5041C11.3791 22.5329 11.4143 22.5552 11.4495 22.5776C11.5111 22.6232 11.5711 22.664 11.635 22.7024C11.7598 22.7888 11.8878 22.8656 12.0166 22.936C12.067 22.968 12.1158 22.9968 12.167 23.0224C12.2062 23.044 12.2446 23.0672 12.2853 23.0832C12.3365 23.1151 12.3877 23.1399 12.4421 23.1663C13.0188 23.4543 13.6387 23.6759 14.2858 23.8134C14.337 23.8294 14.3914 23.839 14.4458 23.8486C14.5578 23.8734 14.6698 23.8934 14.7842 23.9094C14.897 23.9278 15.0113 23.9406 15.1297 23.9542C15.1329 23.9542 15.1369 23.9574 15.1425 23.9542C15.2801 23.971 15.4209 23.983 15.5617 23.9894C15.7088 23.999 15.8528 24.0022 16 24.0022C18.2173 24.0022 20.2242 23.1 21.6735 21.6442H21.6767C22.403 20.8635 23.4429 20.374 24.5979 20.374C26.8064 20.374 28.5981 22.1657 28.5981 24.3741Z" fill="#EA1D5D"/>
<path fill-rule="evenodd" clip-rule="evenodd" d="M10.3776 10.3102C11.8174 8.88245 13.8083 7.9994 16 7.9994C18.1885 7.9994 20.173 8.87925 21.616 10.3062L21.6448 10.2774C21.6608 10.2942 21.6735 10.3062 21.6927 10.3222C22.419 11.0933 23.4501 11.5732 24.5955 11.5732C26.8064 11.5732 28.5949 9.78149 28.5949 7.57308C28.5949 6.72202 28.3294 5.93176 27.875 5.28228C27.6958 5.08391 27.5103 4.88874 27.3183 4.69678C27.3055 4.68078 27.2895 4.66478 27.2735 4.64879C27.1711 4.5464 27.0655 4.44402 26.9568 4.34484C24.0924 1.65091 20.2402 0 16 0C11.5935 0 7.59966 1.78529 4.70409 4.67518C1.79893 7.56748 0 11.574 0 15.9996C0 19.0687 0.86627 21.9354 2.36525 24.3709C2.36365 24.3189 2.35805 24.2662 2.35805 24.2142C2.35805 21.4794 4.58331 19.2542 7.3181 19.2542C7.82363 19.2542 8.32195 19.3366 8.79868 19.4854C8.78508 19.4574 8.77068 19.4302 8.75789 19.4022C8.6587 19.1974 8.57231 18.9855 8.49233 18.7679C8.45953 18.6823 8.42834 18.5951 8.40274 18.5096C8.35475 18.368 8.31315 18.2272 8.27476 18.084C8.25556 18.02 8.23956 17.9561 8.22357 17.8889C8.20117 17.7929 8.17877 17.6969 8.15878 17.6009C8.13638 17.4889 8.11398 17.377 8.09799 17.2618C8.09159 17.233 8.08839 17.2042 8.08519 17.1754C8.06599 17.0578 8.05319 16.9394 8.04039 16.8211V16.8107C8.0308 16.7339 8.0236 16.6579 8.0212 16.5771C8.0148 16.5067 8.0116 16.4363 8.0084 16.3659C8.002 16.2444 7.9988 16.1228 7.9988 16.0012C7.9988 15.8732 8.002 15.7452 8.0084 15.6173C8.0116 15.5469 8.0148 15.4765 8.0212 15.4093C8.0244 15.3397 8.0308 15.2653 8.04039 15.1949C8.04039 15.1661 8.04359 15.1406 8.04999 15.115C8.05959 15.0158 8.07159 14.9166 8.08519 14.8174C8.09479 14.7694 8.10119 14.7182 8.11078 14.6702C8.12358 14.5934 8.13638 14.5199 8.15158 14.4431C8.16518 14.3759 8.17797 14.3087 8.19717 14.2415C8.23157 14.0687 8.27716 13.896 8.32835 13.7264C8.35075 13.6496 8.37634 13.5728 8.40194 13.496C8.43393 13.3937 8.46913 13.2913 8.51072 13.1889C8.53632 13.1121 8.56831 13.0385 8.59711 12.9649C8.6387 12.8625 8.6803 12.7634 8.72829 12.6642C8.75709 12.597 8.78908 12.533 8.82428 12.4658C8.93626 12.2323 9.06424 12.0051 9.20182 11.7835C9.25861 11.6876 9.3234 11.5916 9.39059 11.4996C9.45458 11.3972 9.52497 11.3004 9.59856 11.2044C9.73934 11.0157 9.88972 10.8333 10.0497 10.6573L10.0529 10.6541C10.0753 10.6253 10.1009 10.5965 10.1265 10.571C10.2001 10.4878 10.2769 10.411 10.3568 10.331L10.3776 10.3102Z" fill="#EA1D5D"/>
<path fill-rule="evenodd" clip-rule="evenodd" d="M29.3596 13.3601C28.7869 13.3601 28.2581 13.5448 27.8254 13.8544H27.8206C26.6728 14.7382 25.245 15.5373 23.6292 15.5373C21.7823 15.5373 20.1298 14.7014 19.0299 13.3873H19.0251C18.2916 12.5386 17.2102 12.0003 16.0008 12.0003C13.7915 12.0003 12.0006 13.7912 12.0006 15.9996C12.0006 18.208 13.7915 19.9997 16.0008 19.9997C17.2894 19.9997 18.4332 19.387 19.1651 18.4408L19.1699 18.44C20.2673 17.2258 21.8639 16.4571 23.63 16.4571C25.2626 16.4571 26.68 17.2826 27.859 18.1712H27.8606C28.2869 18.4656 28.8029 18.6399 29.3604 18.6399C30.8186 18.6399 32 17.457 32 15.9996C31.9992 14.5415 30.8178 13.3601 29.3596 13.3601Z" fill="#EA1D5D"/>
</svg>
