<svg width="32" height="32" viewBox="0 0 32 32" fill="none" xmlns="http://www.w3.org/2000/svg">
<path fill-rule="evenodd" clip-rule="evenodd" d="M20.6532 13.0971C20.9377 13.9486 21.7343 14.4595 22.6446 14.4595C22.8722 14.4595 23.0998 14.4027 23.3274 14.3459C24.4084 13.9486 24.9773 12.7565 24.5791 11.678C23.8963 9.8047 22.4739 8.3288 20.4826 7.42055C19.4584 6.96643 18.2067 7.42055 17.6947 8.44233C17.2395 9.46411 17.6947 10.7129 18.7188 11.2238C19.7429 11.678 20.3688 12.3024 20.6532 13.0971Z" fill="#FF9E1A"/>
<path fill-rule="evenodd" clip-rule="evenodd" d="M19.9705 0.0410457C18.8326 -0.186016 17.7516 0.551935 17.524 1.68724C17.2964 2.82255 18.036 3.9011 19.174 4.12816C23.8963 5.03641 27.0825 8.21527 27.879 12.8133C28.0497 13.8351 28.9601 14.5162 29.9273 14.5162C30.0411 14.5162 30.1549 14.5162 30.2687 14.4595C31.4066 14.2324 32.1463 13.1539 31.9756 12.0753C30.8945 5.83112 26.3998 1.28989 19.9705 0.0410457Z" fill="#FF9E1A"/>
<path fill-rule="evenodd" clip-rule="evenodd" d="M14.6792 20.8172C12.8016 20.8172 11.2085 19.2845 11.2085 17.3545C11.2085 15.4813 12.7447 13.8918 14.6792 13.8918C15.8171 13.8918 16.7843 12.9836 16.7843 11.7915C16.7843 10.5994 15.874 9.69118 14.6792 9.69118C10.4689 9.69118 7.05511 13.0971 7.05511 17.2977C7.05511 21.4984 10.4689 24.9043 14.6792 24.9043C18.8895 24.9043 22.3032 21.4984 22.3032 17.2977C22.3032 16.1624 21.3929 15.1974 20.1981 15.1974C19.0602 15.1974 18.0929 16.1057 18.0929 17.2977C18.1498 19.2845 16.5567 20.8172 14.6792 20.8172Z" fill="#1B4DFF"/>
<path fill-rule="evenodd" clip-rule="evenodd" d="M27.2532 15.311C26.1153 15.311 25.148 16.2192 25.148 17.4113C25.148 23.2014 20.4257 27.9129 14.6223 27.9129C8.81888 27.9129 4.09651 23.2014 4.09651 17.4113C4.09651 11.6212 8.81888 6.90967 14.6223 6.90967C15.7602 6.90967 16.7274 6.00142 16.7274 4.80934C16.7274 3.67404 15.8171 2.70902 14.6223 2.70902C6.59994 2.70902 0 9.29381 0 17.3545C0 25.4152 6.59994 32 14.6792 32C22.7584 32 29.3583 25.4152 29.3583 17.3545C29.3583 16.2192 28.448 15.311 27.2532 15.311Z" fill="#1B4DFF"/>
</svg>
