<svg width="32" height="32" viewBox="0 0 32 32" fill="none" xmlns="http://www.w3.org/2000/svg">
<path d="M28.1134 14.0449C27.3281 13.2572 26.395 12.6322 25.3676 12.2059C24.3403 11.7796 23.2389 11.5603 22.1265 11.5605V11.5605C21.0138 11.5602 19.9119 11.7795 18.884 12.2058C17.8562 12.6321 16.9226 13.2571 16.1367 14.0449L14.2051 15.9562L16.0116 17.7627L17.9316 15.8398C18.7601 15.0121 19.8154 14.4486 20.9641 14.2204C22.1128 13.9923 23.3033 14.1098 24.3852 14.5582C25.4671 15.0065 26.3918 15.7655 27.0425 16.7393C27.6931 17.713 28.0405 18.8578 28.0407 20.0289V20.0289C28.0407 21.5995 27.4172 23.1059 26.3071 24.217C25.1971 25.3282 23.6913 25.9532 22.1207 25.9547V25.9547C20.8878 25.9535 19.6863 25.5659 18.6851 24.8464L18.6298 24.9016C18.6298 24.9016 17.3207 26.2311 16.8844 26.682C18.374 27.8637 20.2193 28.5074 22.1207 28.5089V28.5089C24.367 28.5066 26.5205 27.6129 28.1083 26.024C29.696 24.4351 30.5883 22.281 30.5891 20.0347V20.0347C30.5917 18.9224 30.3743 17.8206 29.9494 16.7926C29.5245 15.7646 28.9006 14.8308 28.1134 14.0449V14.0449Z" fill="#00AAEB"/>
<path d="M14.1174 24.2296C13.5689 24.7827 12.9164 25.2217 12.1974 25.5213C11.4784 25.8209 10.7072 25.9751 9.92828 25.9751C9.14887 25.9743 8.37725 25.8198 7.65764 25.5204C6.93803 25.221 6.28456 24.7826 5.73464 24.2302C5.18473 23.6779 4.74918 23.0225 4.45295 22.3015C4.15671 21.5806 4.0056 20.8083 4.00828 20.0289V20.0289C4.0106 18.4603 4.63533 16.9568 5.74529 15.8485C6.85526 14.7402 8.35971 14.1176 9.92828 14.1176V14.1176C11.155 14.1183 12.3509 14.5017 13.3494 15.2144L13.3988 15.162L15.1763 13.3846C13.6853 12.2055 11.8407 11.563 9.93992 11.5606V11.5606C8.82669 11.5594 7.72414 11.7775 6.69521 12.2025C5.66629 12.6274 4.73113 13.2509 3.94315 14.0373C3.15517 14.8236 2.52979 15.7575 2.10272 16.7855C1.67565 17.8136 1.45525 18.9157 1.4541 20.0289V20.0289C1.4541 22.2751 2.34621 24.4294 3.93425 26.018C5.52229 27.6066 7.67625 28.4994 9.92246 28.5002V28.5002C11.0338 28.5032 12.1348 28.2871 13.1626 27.8643C14.1904 27.4416 15.1248 26.8203 15.9123 26.0362C16.0316 25.9198 17.8061 24.1162 17.8061 24.1162L15.9996 22.3096L14.1174 24.2296Z" fill="#FFB400"/>
<path d="M9.58523 10.4285C9.96773 9.23859 10.7186 8.20105 11.7294 7.46583C12.7402 6.73061 13.9586 6.33576 15.2085 6.33835V6.33835C15.987 6.33826 16.7578 6.49246 17.4763 6.79206C18.1948 7.09166 18.8469 7.5307 19.3947 8.08381C20.0738 8.76468 20.5735 9.60326 20.8492 10.5245C21.2013 10.4771 21.5558 10.4499 21.9111 10.4431H22.3125C22.7087 10.4508 23.104 10.4819 23.4965 10.5362C23.1082 8.62711 22.0712 6.91125 20.5615 5.67995C19.0518 4.44864 17.1625 3.77778 15.2143 3.78126V3.78126C13.1982 3.77846 11.2477 4.49778 9.71614 5.80894C8.18457 7.12011 7.17322 8.93642 6.86523 10.9289C7.74287 10.6312 8.65911 10.4627 9.58523 10.4285Z" fill="#00AAEB"/>
</svg>
