<svg width="32" height="32" viewBox="0 0 32 32" fill="none" xmlns="http://www.w3.org/2000/svg">
<path fill-rule="evenodd" clip-rule="evenodd" d="M15.3404 0.0816971C4.62736 1.18536 -1.88287 12.9428 2.73874 22.8404C7.94911 33.9989 22.9346 35.2287 29.778 25.0593C30.3351 24.2313 31.1559 22.6932 31.1122 22.5589C31.0965 22.5108 29.6645 21.0215 27.93 19.2493L24.7764 16.0272L27.9837 12.7383L31.1909 9.44948L30.7471 8.61126C27.6305 2.72548 21.6761 -0.571035 15.3404 0.0816971ZM19.0305 2.43095C22.8378 3.09428 26.1747 5.33399 28.1974 8.58394L28.4824 9.04191L25.8492 11.7364L23.2161 14.4308L20.0505 11.1695L16.8849 7.90812L12.9174 11.9681L8.94979 16.028L12.9056 20.0764L16.8615 24.1249L20.0577 20.8551L23.2539 17.5852L25.8708 20.2638L28.4878 22.9425L28.2892 23.2892C23.2814 32.0332 10.2611 31.8097 5.24059 22.8934C-0.379689 12.9117 7.9808 0.505848 19.0305 2.43095ZM19.3163 13.5567L21.6934 15.9902L19.2773 18.4616L16.8612 20.933L14.4655 18.4806L12.0698 16.0282L14.4655 13.5758C15.7831 12.2269 16.8787 11.1233 16.9002 11.1233C16.9216 11.1233 18.0089 12.2183 19.3163 13.5567Z" fill="#3640E8"/>
</svg>
