<svg width="63" height="63" viewBox="0 0 63 63" fill="none" xmlns="http://www.w3.org/2000/svg">
<path d="M5.52921 36.9592C7.27124 45.0631 8.72061 52.7803 13.7969 58.3339H4.11468C3.02761 58.334 1.9847 57.9038 1.21375 57.1374C0.442795 56.371 0.00644325 55.3307 0 54.2437V8.10771C0.00184602 7.01764 0.43617 5.97284 1.20762 5.2027C1.97907 4.43255 3.0246 4 4.11468 4H11.1107C9.40587 5.55436 7.90925 7.32267 6.65804 9.26093C1.12187 17.7446 3.39696 26.9948 5.52921 36.9592V36.9592ZM58.1002 4H47.1219C49.721 6.59911 51.9125 9.96471 53.5674 14.1491L36.8788 17.6715C35.0497 14.1665 32.2694 11.2503 26.8308 12.3966C23.831 13.0307 21.8416 14.7135 20.9601 16.5566C19.8766 18.8282 19.3435 21.375 21.9357 33.4786C24.5278 45.5823 26.0538 47.6936 27.97 49.3311C29.5274 50.6551 32.0394 51.3902 35.0392 50.7561C40.4813 49.6098 41.8227 45.8227 42.0596 41.8822L58.7482 38.3563C59.1419 46.9898 56.4697 53.6862 51.7523 58.3165H58.1002C59.1879 58.3175 60.2317 57.8877 61.0034 57.1212C61.7751 56.3547 62.2119 55.3139 62.2184 54.2262V8.10771C62.2165 7.01703 61.7817 5.97171 61.0095 5.20147C60.2373 4.43122 59.1909 3.99908 58.1002 4V4Z" fill="#F47C00"/>
</svg>
