<svg width="32" height="32" viewBox="0 0 32 32" fill="none" xmlns="http://www.w3.org/2000/svg">
<path d="M10.3207 9.72442C9.9651 9.08442 9.11177 8.55109 8.43622 8.55109H1.09399C0.418438 8.55109 0.151772 9.06664 0.525105 9.72442L5.3251 19.04C5.68066 19.68 6.53399 20.2133 7.20955 20.2133H14.5695C15.2451 20.2133 15.5118 19.6978 15.1384 19.04L10.3207 9.72442Z" fill="#7230F6"/>
<path d="M30.8362 4.26666H23.334C22.694 4.26666 21.894 4.78222 21.5562 5.44L14.9429 18.7378C14.6051 19.3778 14.6585 19.7333 15.1207 20.6044L18.4273 27.04C19.1562 28.4267 20.0985 27.5022 20.5962 26.56L31.3696 5.44C31.7251 4.78222 31.4762 4.26666 30.8362 4.26666Z" fill="#7230F6"/>
</svg>
