<svg xmlns="http://www.w3.org/2000/svg" width="32" height="32" viewBox="0 0 40.8 38.4"><path d="M7.2,0H33.6a7.17,7.17,0,0,1,7.2,7.2v24a7.17,7.17,0,0,1-7.2,7.2H7.2A7.17,7.17,0,0,1,0,31.2V7.2A7.17,7.17,0,0,1,7.2,0Z" fill="#222" fill-rule="evenodd"/><path d="M18,29.1a3.684,3.684,0,0,1-5.3,0L5.6,22a3.684,3.684,0,0,1,0-5.3L8.3,14,18,23.7a3.8,3.8,0,0,1,0,5.4Z" fill="#afaeae" fill-rule="evenodd"/><path d="M10.9,22a3.744,3.744,0,0,0-.1,5.2l.1.1L5.6,22a3.684,3.684,0,0,1,0-5.3l7.1-7.1A3.748,3.748,0,1,1,18,14.9L10.9,22Z" fill="#fff" fill-rule="evenodd"/><path d="M22.1,9.6a3.684,3.684,0,0,1,5.3,0l7.1,7.1a3.684,3.684,0,0,1,0,5.3l-2.7,2.7L22.1,15a3.994,3.994,0,0,1,0-5.4Z" fill="#afaeae" fill-rule="evenodd"/><path d="M22.1,29.1a3.684,3.684,0,0,1,0-5.3l7.1-7.1a3.744,3.744,0,0,0,.1-5.2l-.1-.1,5.3,5.3a3.684,3.684,0,0,1,0,5.3l-7.1,7.1A3.869,3.869,0,0,1,22.1,29.1Z" fill="#fff" fill-rule="evenodd"/></svg>
