<svg width="32" height="32" viewBox="0 0 32 32" fill="none" xmlns="http://www.w3.org/2000/svg">
<path d="M15.4364 24.5739C20.9871 24.5739 25.2773 20.3862 25.2773 15.2206C25.2773 10.381 21.2467 7.42619 18.5771 7.42619C14.8598 7.42619 11.8799 10.0312 11.4554 13.8985C11.3768 14.6147 10.8085 15.2153 10.0874 15.2102C8.88874 15.2016 7.14578 15.1914 6.04255 15.1952C5.56755 15.1968 5.175 14.812 5.19841 14.3379C5.36478 10.9838 6.48794 7.84762 8.62948 5.43859C11.0091 2.76171 14.4745 1.19043 18.5771 1.19043C25.4702 1.19043 31.9775 7.44502 31.9775 15.2206C31.9775 23.8301 24.8341 30.8096 15.583 30.8096C8.98564 30.8096 2.34088 26.5041 0.0208958 20.4846C0.0125509 20.4623 0.0105262 20.4381 0.0150451 20.4148C0.046127 20.2367 0.107377 20.074 0.167712 19.9138C0.255473 19.6809 0.341405 19.453 0.328972 19.1907L0.288748 18.3522C0.279507 18.1492 0.330983 17.9481 0.4366 17.7746C0.542216 17.601 0.697176 17.4629 0.881681 17.3779L1.217 17.2219C1.40486 17.1351 1.56915 17.0045 1.69609 16.841C1.82303 16.6775 1.9089 16.486 1.94651 16.2825C2.05895 15.6676 2.59941 15.2206 3.23037 15.2206C4.21585 15.2206 5.07262 15.875 5.3944 16.8052C6.94356 21.2829 9.40634 24.5739 15.4364 24.5739V24.5739Z" fill="#FB6970"/>
</svg>
