<svg width="32" height="32" viewBox="0 0 32 32" fill="none" xmlns="http://www.w3.org/2000/svg">
<path d="M17.0475 9.56038C21.7477 9.44952 24.9181 9.58994 27.0466 10.0038C28.835 10.3511 30.3944 10.9719 31.296 11.6962C31.7246 12.0435 31.7468 12.0509 31.7911 11.9031C31.8724 11.5853 31.8355 9.88555 31.7246 9.39779C31.3477 7.60195 30.1874 6.19041 28.3103 5.24446C25.5094 3.8403 22.1098 3.3082 17.2027 3.52252C14.69 3.63337 10.6105 3.62597 9.36895 3.50773C5.56294 3.16038 2.80635 2.40658 1.04746 1.23891C0.685334 1.00242 0.35277 0.780714 0.308429 0.751153C0.256696 0.714198 0.204964 0.758543 0.175402 0.862C0.0719386 1.21674 0.0349872 2.88695 0.123671 3.38948C0.463625 5.42182 1.54261 6.84075 3.50104 7.83844C6.29457 9.27215 9.84932 9.72296 17.0475 9.56038Z" fill="#068FF8"/>
<path d="M24.7775 19.4272C27.7927 19.7154 29.8325 20.3288 31.1997 21.3634C31.6431 21.696 31.7318 21.733 31.7835 21.6369C31.8205 21.5704 31.8352 20.9939 31.8205 20.3584C31.7761 19.0503 31.6653 18.5847 31.1553 17.5944C30.0246 15.4143 26.9946 13.9288 22.4865 13.3524C21.5775 13.2341 20.9345 13.2193 17.2024 13.2341C11.5489 13.2637 9.97473 13.1602 8.50406 12.6577C8.14933 12.5394 7.85371 12.4434 7.83893 12.4434C7.82415 12.4434 7.83154 12.5838 7.8611 12.7538C8.26757 15.6803 9.97473 17.6018 13.0048 18.5699C14.7415 19.1242 15.1849 19.1685 19.6412 19.2424C22.2057 19.2794 23.9498 19.3459 24.7775 19.4272Z" fill="#068FF8"/>
<path d="M30.2911 25.671C29.552 24.9393 28.9017 24.5476 27.638 24.0599C25.9899 23.4317 24.5045 23.1952 21.6001 23.0844C19.7377 23.0105 19.0726 22.9439 18.5331 22.7887C18.3927 22.7518 18.2523 22.7148 18.2227 22.7148C18.1857 22.7148 18.1636 22.9439 18.1636 23.2174C18.1636 24.7176 19.0726 26.3804 20.4102 27.3264C21.6444 28.2058 22.9968 28.6197 25.2952 28.8118C25.9899 28.8784 26.8324 28.9744 27.1798 29.0409C28.8204 29.3366 30.328 29.9721 31.3553 30.8146L31.7544 31.1398L31.8061 30.859C31.8356 30.7111 31.8652 30.2012 31.8652 29.7356C31.8652 28.6493 31.7026 27.9102 31.2666 27.0012C30.9858 26.41 30.8306 26.2105 30.2911 25.671Z" fill="#068FF8"/>
</svg>
