<svg width="32" height="32" viewBox="0 0 32 32" fill="none" xmlns="http://www.w3.org/2000/svg">
<path d="M32 16C32 24.8427 24.8427 32 16 32C7.15732 32 0 24.8427 0 16C0 7.15732 7.15732 0 16 0C24.8427 0 32 7.15732 32 16Z" fill="black"/>
<path d="M27.3598 14.7524C26.7469 12.3447 16.9193 3.5896 16.394 5.0123C16.394 5.0123 15.1682 7.92338 18.4076 9.89329L23.7264 12.5636C23.7264 12.5636 23.2886 16.0438 14.8618 9.10533C13.5923 8.05471 12.6074 7.94527 12.6074 7.94527C9.67441 7.13542 7.22297 10.4405 6.04103 11.9945L4.31189 12.6074C4.35567 13.1765 4.85909 13.5923 5.42817 13.5486L5.71271 13.5704C10.9658 17.3789 15.1901 21.8659 18.2325 23.026L23.8139 25.3899L23.9015 24.7551C23.9453 24.2517 23.4856 23.8577 23.1792 23.6826C23.1792 23.6826 19.2175 21.9316 18.8235 20.093L18.7797 19.6115C18.5171 16.2189 17.4446 15.3215 15.803 14.3365C15.5841 14.1833 15.7811 13.7455 16.0438 13.8988C19.699 15.5841 19.3269 18.2107 19.4364 19.2394C19.7647 19.0424 20.5527 14.9932 25.0615 17.6635L25.8495 17.9699C26.3529 18.1669 27.71 17.6635 27.71 17.2914L27.3598 14.7524Z" fill="white"/>
<path d="M25.959 15.0807C25.7401 15.3215 25.3899 15.3215 25.171 15.1245C24.9302 14.9056 24.9302 14.5554 25.1272 14.3365C25.3461 14.0957 25.6963 14.0957 25.9152 14.2927C26.1341 14.4897 26.156 14.8399 25.959 15.0807Z" fill="black"/>
<path d="M13.8112 23.0041H9.28042C9.06155 23.0041 8.88644 22.829 8.88644 22.6101C8.88644 22.3912 9.06155 22.2161 9.28042 22.2161H13.8331C14.052 22.2161 14.2271 22.3912 14.2271 22.6101C14.2052 22.829 14.0301 23.0041 13.8112 23.0041Z" fill="#00A4FF"/>
<path d="M11.2722 20.7278H4.92474C4.70586 20.7278 4.53076 20.5527 4.53076 20.3338C4.53076 20.1149 4.70586 19.9398 4.92474 19.9398H11.2722C11.4911 19.9398 11.6662 20.1149 11.6662 20.3338C11.6662 20.5527 11.4911 20.7278 11.2722 20.7278Z" fill="#00A4FF"/>
<path d="M17.3133 25.1272H14.2709C14.052 25.1272 13.8769 24.9521 13.8769 24.7332C13.8769 24.5144 14.052 24.3393 14.2709 24.3393H17.3133C17.5322 24.3393 17.7073 24.5144 17.7073 24.7332C17.7073 24.9521 17.5322 25.1272 17.3133 25.1272Z" fill="#00A4FF"/>
</svg>
