<svg width="32" height="32" viewBox="0 0 32 32" fill="none" xmlns="http://www.w3.org/2000/svg">
<path d="M21.8667 9.21905C21.7524 9.21905 21.7143 9.29524 21.7143 9.40953C21.7143 9.44763 21.7524 9.48572 21.7524 9.52382C23.3524 11.2762 24.2667 13.4857 24.2667 16C24.2667 18.5524 23.3143 20.8381 21.7524 22.5524C21.7143 22.5905 21.6762 22.6286 21.6762 22.6667C21.6762 22.7429 21.7143 22.8191 21.8286 22.8191C25.8667 23.2762 29.5238 20.1524 29.5238 15.9238C29.6 12.1143 25.9429 8.68572 21.8667 9.21905Z" fill="#0C426A"/>
<path d="M25.6762 25.4095H14.7048C11.0095 25.4095 5.60002 21.7905 5.60002 16.0762C5.60002 10.3619 11.0095 6.70476 14.7048 6.70476C14.7048 6.70476 24.7619 6.70476 25.6762 6.70476C25.7905 6.70476 25.8667 6.62857 25.8667 6.51428C25.8667 6.47618 25.8286 6.43809 25.8286 6.39999C23.0476 3.27618 19.1619 1.5238 14.9334 1.5238C6.89526 1.5238 0.380981 8.03809 0.380981 16.0762C0.380981 24.1143 6.89526 30.6286 14.9334 30.6286C19.1238 30.6286 23.0095 28.8762 25.8286 25.7524C25.8667 25.7143 25.8667 25.6762 25.8667 25.6381C25.8667 25.4857 25.7905 25.4095 25.6762 25.4095Z" fill="#0C426A"/>
</svg>
