<svg width="32" height="32" viewBox="0 0 32 32" fill="none" xmlns="http://www.w3.org/2000/svg">
<path d="M2.13462 15.7331C2.09112 12.3965 3.12347 9.1345 5.07878 6.43041C7.03409 3.72632 9.80836 1.72392 12.9907 0.719798C16.173 -0.284322 19.5941 -0.236757 22.7472 0.855447C25.9004 1.94765 28.6179 4.0264 30.4973 6.78381L25.0893 10.5491C24.36 9.31157 23.3149 8.29002 22.061 7.58905C20.8071 6.88809 19.3895 6.53289 17.9533 6.55981C16.7655 6.56184 15.5903 6.80316 14.4978 7.26936C13.4053 7.73555 12.4179 8.41707 11.5946 9.27324C10.7713 10.1294 10.1289 11.1427 9.70582 12.2525C9.28271 13.3624 9.08754 14.5462 9.13195 15.7331C9.13195 20.7891 12.684 25.0451 17.9106 25.0451C19.3532 25.0753 20.778 24.7218 22.0392 24.0209C23.3005 23.32 24.353 22.2968 25.0893 21.0558L30.4973 24.8211C29.0744 26.9057 27.1655 28.6126 24.9354 29.7945C22.7054 30.9765 20.2212 31.5979 17.6973 31.6051C13.5292 31.5629 9.54841 29.8673 6.63011 26.891C3.7118 23.9146 2.09482 19.9013 2.13462 15.7331V15.7331Z" fill="#FAA21B"/>
</svg>
