<svg width="32" height="32" viewBox="0 0 32 32" fill="none" xmlns="http://www.w3.org/2000/svg">
<mask id="mask0_3311_318" style="mask-type:alpha" maskUnits="userSpaceOnUse" x="0" y="4" width="32" height="24">
<rect y="4" width="32" height="23.814" fill="#D9D9D9"/>
</mask>
<g mask="url(#mask0_3311_318)">
<path d="M20.4772 7.87855C18.8767 6.10509 16.7737 4.86148 14.4485 4.31345C12.1234 3.76541 9.68641 3.93897 7.46238 4.81099C5.23834 5.68301 3.33286 7.21209 1.99985 9.19447C0.666831 11.1768 -0.0304155 13.5184 0.0010179 15.907C-0.0105798 17.4664 0.286508 19.0126 0.875162 20.4566C1.46382 21.9006 2.3324 23.2138 3.43086 24.3206C4.52933 25.4274 5.83596 26.3059 7.27546 26.9054C8.71496 27.505 10.2589 27.8138 11.8182 27.814C13.4648 27.8028 15.0914 27.4527 16.5967 26.7854C18.102 26.1182 19.4537 25.1481 20.5677 23.9356C19.3159 23.2979 18.2102 22.4071 17.3206 21.3198C16.629 22.0638 15.7906 22.6564 14.8583 23.06C13.9261 23.4636 12.9202 23.6695 11.9044 23.6647C10.6623 23.6617 9.43995 23.3534 8.34502 22.7669C7.25009 22.1805 6.31612 21.3338 5.62532 20.3015C4.93452 19.2692 4.50808 18.083 4.38353 16.8471C4.25898 15.6113 4.44015 14.3638 4.91109 13.2144C5.38202 12.065 6.12828 11.049 7.08418 10.2559C8.04007 9.46274 9.17629 8.91674 10.3928 8.66594C11.6093 8.41515 12.8689 8.46725 14.0605 8.81767C15.2522 9.16809 16.3394 9.80608 17.2265 10.6755C18.0635 9.49 19.1801 8.52932 20.4772 7.87855V7.87855Z" fill="#39A8EF"/>
<path d="M24.2665 23.124C22.8354 23.142 21.4312 22.734 20.2325 21.9519C19.0338 21.1699 18.0947 20.0491 17.5346 18.732C16.9745 17.4149 16.8186 15.961 17.0869 14.5551C17.3551 13.1492 18.0353 11.8548 19.041 10.8365C20.0467 9.81813 21.3325 9.1218 22.7349 8.83601C24.1373 8.55023 25.593 8.68789 26.917 9.23149C28.241 9.7751 29.3735 10.7001 30.1705 11.8889C30.9675 13.0777 31.393 14.4767 31.3929 15.9079C31.4001 16.8501 31.2214 17.7843 30.867 18.6573C30.5125 19.5302 29.9893 20.3246 29.3273 20.9949C28.6652 21.6653 27.8774 22.1984 27.009 22.5637C26.1406 22.9291 25.2086 23.1195 24.2665 23.124ZM24.2665 19.6958C25.0158 19.6958 25.7484 19.4736 26.3714 19.0573C26.9945 18.641 27.4801 18.0492 27.7668 17.3569C28.0536 16.6646 28.1286 15.9029 27.9824 15.1679C27.8362 14.433 27.4754 13.7579 26.9455 13.228C26.4157 12.6982 25.7406 12.3373 25.0056 12.1911C24.2707 12.0449 23.5089 12.12 22.8166 12.4067C22.1243 12.6935 21.5326 13.1791 21.1163 13.8022C20.7 14.4252 20.4778 15.1577 20.4778 15.9071C20.4838 16.91 20.885 17.8702 21.5942 18.5794C22.3034 19.2886 23.2635 19.6897 24.2665 19.6958ZM39.2403 23.124C37.8091 23.142 36.405 22.734 35.2063 21.9519C34.0076 21.1699 33.0685 20.0491 32.5084 18.732C31.9482 17.4149 31.7924 15.961 32.0606 14.5551C32.3288 13.1492 33.009 11.8548 34.0147 10.8365C35.0204 9.81813 36.3062 9.1218 37.7086 8.83601C39.1111 8.55023 40.5668 8.68789 41.8908 9.23149C43.2148 9.7751 44.3472 10.7001 45.1442 11.8889C45.9412 13.0777 46.3667 14.4767 46.3666 15.9079C46.3739 16.8501 46.1952 17.7843 45.8407 18.6573C45.4863 19.5302 44.963 20.3246 44.301 20.9949C43.639 21.6653 42.8512 22.1984 41.9828 22.5637C41.1144 22.9291 40.1824 23.1195 39.2403 23.124ZM39.2403 19.6958C39.9896 19.6958 40.7221 19.4736 41.3452 19.0573C41.9682 18.641 42.4538 18.0492 42.7406 17.3569C43.0273 16.6646 43.1024 15.9029 42.9562 15.1679C42.81 14.433 42.4491 13.7579 41.9193 13.228C41.3894 12.6982 40.7143 12.3373 39.9794 12.1911C39.2445 12.0449 38.4827 12.12 37.7904 12.4067C37.0981 12.6935 36.5064 13.1791 36.0901 13.8022C35.6737 14.4252 35.4515 15.1577 35.4515 15.9071C35.4576 16.91 35.8587 17.8702 36.5679 18.5794C37.2771 19.2886 38.2373 19.6897 39.2403 19.6958Z" fill="#39A8EF"/>
</g>
</svg>
