<svg width="32" height="32" viewBox="0 0 32 32" fill="none" xmlns="http://www.w3.org/2000/svg">
<path d="M15.9999 0C12.8354 0 9.74201 0.938383 7.11082 2.69648C4.47964 4.45458 2.42888 6.95344 1.21787 9.87706C0.00687145 12.8007 -0.309982 16.0177 0.307382 19.1214C0.924745 22.2251 2.4486 25.076 4.68624 27.3137C6.92388 29.5513 9.77481 31.0752 12.8785 31.6925C15.9822 32.3099 19.1993 31.993 22.1229 30.782C25.0465 29.571 27.5454 27.5203 29.3035 24.8891C31.0616 22.2579 31.9999 19.1645 31.9999 16C31.9999 11.7565 30.3142 7.68687 27.3137 4.68629C24.3131 1.68571 20.2434 0 15.9999 0V0ZM15.9999 30.1226C13.2068 30.1226 10.4763 29.2943 8.15383 27.7425C5.83137 26.1907 4.02123 23.9851 2.95233 21.4045C1.88342 18.8239 1.60374 15.9843 2.14867 13.2448C2.69359 10.5053 4.03864 7.98886 6.01373 6.01378C7.98882 4.03869 10.5052 2.69364 13.2448 2.14872C15.9843 1.60379 18.8239 1.88347 21.4044 2.95238C23.985 4.02129 26.1907 5.83142 27.7425 8.15387C29.2943 10.4763 30.1226 13.2068 30.1226 16C30.1226 17.8546 29.7573 19.691 29.0476 21.4045C28.3378 23.1179 27.2976 24.6748 25.9862 25.9862C24.6748 27.2976 23.1179 28.3379 21.4044 29.0476C19.691 29.7573 17.8546 30.1226 15.9999 30.1226Z" fill="#22B8F0"/>
<path d="M9.80047 14.1506C11.7378 14.1506 13.3084 12.5801 13.3084 10.6427C13.3084 8.7053 11.7378 7.13475 9.80047 7.13475C7.86309 7.13475 6.29254 8.7053 6.29254 10.6427C6.29254 12.5801 7.86309 14.1506 9.80047 14.1506Z" fill="#22B8F0"/>
<path d="M8.81927 21.4532C9.59676 21.4532 10.227 20.823 10.227 20.0455C10.227 19.268 9.59676 18.6377 8.81927 18.6377C8.04178 18.6377 7.4115 19.268 7.4115 20.0455C7.4115 20.823 8.04178 21.4532 8.81927 21.4532Z" fill="#22B8F0"/>
<path d="M15.1038 27.3451C16.3525 27.3451 17.3648 26.3328 17.3648 25.0841C17.3648 23.8353 16.3525 22.823 15.1038 22.823C13.8551 22.823 12.8428 23.8353 12.8428 25.0841C12.8428 26.3328 13.8551 27.3451 15.1038 27.3451Z" fill="#22B8F0"/>
<path d="M23.8211 21.1205C25.5036 21.1205 26.8675 19.7566 26.8675 18.0742C26.8675 16.3917 25.5036 15.0278 23.8211 15.0278C22.1387 15.0278 20.7748 16.3917 20.7748 18.0742C20.7748 19.7566 22.1387 21.1205 23.8211 21.1205Z" fill="#22B8F0"/>
<path d="M20.6469 10.4708C21.6694 10.4708 22.4983 9.64195 22.4983 8.61946C22.4983 7.59697 21.6694 6.76808 20.6469 6.76808C19.6244 6.76808 18.7955 7.59697 18.7955 8.61946C18.7955 9.64195 19.6244 10.4708 20.6469 10.4708Z" fill="#22B8F0"/>
</svg>
