<svg width="32" height="32" viewBox="0 0 32 32" fill="none" xmlns="http://www.w3.org/2000/svg">
<path d="M28 7.23316L17.6 1.22871C16.6099 0.657082 15.3901 0.657082 14.4 1.22871L3.99999 7.23313C3.01126 7.80612 2.40184 8.86168 2.39999 10.0044V22.0133C2.40182 23.1561 3.01125 24.2116 3.99999 24.7846L14.4 30.7891C15.3901 31.3607 16.6099 31.3607 17.6 30.7891L28 24.7846C28.9887 24.2116 29.5982 23.1561 29.6 22.0133V10.0044C29.5982 8.86169 28.9887 7.80613 28 7.23316ZM27.4667 22.0133C27.4667 22.3944 27.2634 22.7465 26.9333 22.9371L16.5333 28.9415C16.2033 29.1321 15.7967 29.1321 15.4667 28.9415L5.06666 22.9371C4.73663 22.7465 4.53333 22.3944 4.53333 22.0133V10.0044C4.53333 9.62336 4.73663 9.27122 5.06666 9.08068L15.4667 3.07623C15.7967 2.88569 16.2033 2.88569 16.5333 3.07623L26.9333 9.08068C27.2634 9.27122 27.4667 9.62336 27.4667 10.0044V22.0133Z" fill="black"/>
<path d="M22.1391 19.4857H21.3748C21.1954 19.4857 21.0189 19.5309 20.8616 19.6173L16.2533 22.1467L10.9333 19.0751V12.9477L16.2533 9.8761L20.8638 12.3974C21.0208 12.4833 21.1968 12.5282 21.3756 12.5282H22.1391C22.4337 12.5282 22.6725 12.2895 22.6725 11.9949V11.2718C22.6725 11.0768 22.5661 10.8974 22.3951 10.8038L17.2781 8.00501C16.6241 7.64932 15.8324 7.6584 15.1867 8.02901L9.86665 11.1003C9.20754 11.4824 8.80128 12.1861 8.79999 12.948V19.0749C8.79999 19.8371 9.20659 20.5414 9.86665 20.9225L15.1867 23.9941C15.8325 24.3644 16.6242 24.3732 17.2782 24.0175L22.3955 21.2092C22.5662 21.1155 22.6723 20.9363 22.6723 20.7417V20.019C22.6723 19.7245 22.4336 19.4858 22.1391 19.4857Z" fill="black"/>
</svg>
