<svg width="32" height="32" viewBox="0 0 32 32" fill="none" xmlns="http://www.w3.org/2000/svg">
<path d="M13.9325 23.934C13.9325 25.0341 14.8238 25.9291 15.9225 25.9291C17.0211 25.9291 17.9132 25.0341 17.9132 23.934C17.9132 22.8324 17.0211 21.9389 15.9225 21.9389C14.8238 21.9389 13.9325 22.8324 13.9325 23.934ZM27.7562 17.9502C27.2084 21.9301 24.6397 25.2643 21.1223 26.8777C19.6597 27.5484 18.0338 27.9227 16.3211 27.9227H15.9225C13.7237 27.9227 11.9419 26.1372 11.9419 23.934C11.9419 21.7308 13.7237 19.9453 15.9225 19.9453C18.1205 19.9453 19.9031 21.7308 19.9031 23.934C19.9031 24.4252 19.8141 24.8951 19.6531 25.3305C20.4546 25.0304 21.2062 24.626 21.8901 24.134C21.8901 24.134 21.8927 24.0008 21.8927 23.9339C21.8927 20.6291 19.2196 17.9501 15.9222 17.9501C12.6247 17.9501 9.95088 20.6291 9.95088 23.9339C9.95088 27.2372 12.6247 29.917 15.9222 29.917C18.3688 29.917 20.6676 29.2845 22.6664 28.1756C26.4014 26.1011 29.0841 22.3572 29.7135 17.9501L27.7562 17.9502ZM7.96123 17.9502H2.13187C2.76062 22.3573 5.444 26.1011 9.17829 28.1756C8.40688 26.9476 7.96123 25.4923 7.96123 23.934V17.9502ZM31.8457 15.9551C31.8457 24.7679 24.7169 31.9114 15.9225 31.9114C7.1288 31.9114 0 24.7679 0 15.9551H9.9512V18.6561C11.4109 17.0008 13.545 15.9551 15.9225 15.9551C19.7935 15.9551 23.0196 18.7238 23.7359 22.3919C25.0471 20.7762 25.8442 18.7238 25.8744 16.4846V15.9551H31.8457Z" fill="#193C6B"/>
<path d="M15.9228 9.6872H14.9271V5.9831C13.8285 5.9831 12.9372 6.87584 12.9372 7.97819C12.9372 8.70331 13.3233 9.33867 13.902 9.6872H11.3297C11.0841 9.16875 10.9465 8.58928 10.9465 7.97819C10.9465 7.27664 11.1274 6.61776 11.4444 6.0456C11.2848 6.00518 11.1186 5.9831 10.9465 5.9831C9.84784 5.9831 8.95659 6.87584 8.95659 7.97819C8.95659 8.70326 9.34341 9.33862 9.92139 9.6872H7.34901C7.10341 9.16875 6.96592 8.58928 6.96592 7.97819C6.96592 5.77499 8.74848 3.98874 10.9465 3.98874C11.6716 3.98874 12.3518 4.18281 12.9372 4.52188C13.5226 4.18287 14.2028 3.98874 14.9271 3.98874C15.2713 3.98874 15.6052 4.03209 15.9228 4.11443C16.2405 4.03209 16.5737 3.98874 16.9171 3.98874C17.6429 3.98874 18.3224 4.18281 18.9077 4.52188C19.4939 4.18287 20.1733 3.98874 20.8991 3.98874C23.0965 3.98874 24.8798 5.77499 24.8798 7.97819C24.8798 8.58928 24.7415 9.16875 24.4966 9.6872H21.9243C22.5023 9.33862 22.8891 8.70326 22.8891 7.97819C22.8891 6.87584 21.9978 5.9831 20.8991 5.9831C20.7271 5.9831 20.5609 6.00518 20.4006 6.0456C20.7182 6.61776 20.8991 7.27664 20.8991 7.97819C20.8991 8.58928 20.7609 9.16875 20.5153 9.6872H17.9437C18.521 9.33867 18.9077 8.70331 18.9077 7.97819C18.9077 6.87584 18.0172 5.9831 16.9171 5.9831V9.6872H15.9228Z" fill="#193C6B"/>
<path d="M7.34939 11.4262C7.34939 10.7614 7.88768 10.2216 8.55248 10.2216C9.21579 10.2216 9.75408 10.7614 9.75408 11.4262C9.75408 12.0924 9.21579 12.6315 8.55248 12.6315C7.88768 12.6315 7.34939 12.0924 7.34939 11.4262Z" fill="#193C6B"/>
<path d="M22.0908 11.4262C22.0908 10.7614 22.6299 10.2216 23.2932 10.2216C23.958 10.2216 24.4963 10.7614 24.4963 11.4262C24.4963 12.0924 23.958 12.6315 23.2932 12.6315C22.6299 12.6315 22.0908 12.0924 22.0908 11.4262Z" fill="#193C6B"/>
<path d="M18.4054 11.4262C18.4054 10.7614 18.9444 10.2216 19.6085 10.2216C20.2725 10.2216 20.8108 10.7614 20.8108 11.4262C20.8108 12.0924 20.2725 12.6315 19.6085 12.6315C18.9444 12.6315 18.4054 12.0924 18.4054 11.4262Z" fill="#193C6B"/>
<path d="M14.7205 11.4262C14.7205 10.7614 15.2588 10.2216 15.9236 10.2216C16.5869 10.2216 17.1252 10.7614 17.1252 11.4262C17.1252 12.0924 16.5869 12.6315 15.9236 12.6315C15.2588 12.6315 14.7205 12.0924 14.7205 11.4262Z" fill="#193C6B"/>
<path d="M11.035 11.4262C11.035 10.7614 11.5733 10.2216 12.2373 10.2216C12.9014 10.2216 13.4397 10.7614 13.4397 11.4262C13.4397 12.0924 12.9014 12.6315 12.2373 12.6315C11.5733 12.6315 11.035 12.0924 11.035 11.4262Z" fill="#193C6B"/>
<path d="M9.95125 13.2969H21.8938V15.2919H9.95125V13.2969Z" fill="#193C6B"/>
<path d="M15.5913 1.80094V1.32884H14.9272V0.664789H15.5913V0H16.2546V0.664789H16.9179V1.32884H16.2546V1.80094C16.6406 1.93852 16.9179 2.30761 16.9179 2.74149C16.9179 3.29229 16.473 3.7394 15.9229 3.7394C15.3729 3.7394 14.9272 3.29229 14.9272 2.74149C14.9272 2.30761 15.2044 1.93846 15.5913 1.80094Z" fill="#193C6B"/>
</svg>
