<svg width="32" height="32" viewBox="0 0 32 32" fill="none" xmlns="http://www.w3.org/2000/svg">
<path fill-rule="evenodd" clip-rule="evenodd" d="M16 31.9994V16H31.9994V31.9994H16ZM23.9579 28.6218C24.6902 28.6218 25.3111 28.5104 25.8205 28.2875C26.3299 28.0646 26.71 27.7662 26.9607 27.392C27.2115 27.0179 27.3369 26.6 27.3369 26.1384C27.3369 25.5971 27.1956 25.1672 26.913 24.8488C26.6304 24.5305 26.2902 24.2936 25.8922 24.1384C25.4941 23.9832 24.9847 23.834 24.3639 23.6907C23.9101 23.5792 23.5519 23.4798 23.2893 23.3922C23.0266 23.3046 22.8097 23.1852 22.6385 23.034C22.4674 22.8828 22.3818 22.6877 22.3818 22.4489C22.3818 22.1067 22.5311 21.8321 22.8296 21.6251C23.1281 21.4181 23.5838 21.3147 24.1967 21.3147C24.5708 21.3147 24.9568 21.3704 25.3549 21.4818C25.7529 21.5933 26.1349 21.7564 26.5011 21.9714L26.9906 20.7654C26.6324 20.5266 26.2066 20.3435 25.7131 20.2162C25.2196 20.0888 24.7181 20.0252 24.2086 20.0252C23.4764 20.0252 22.8575 20.1366 22.352 20.3595C21.8466 20.5823 21.4685 20.8828 21.2177 21.2609C20.967 21.639 20.8416 22.0589 20.8416 22.5206C20.8416 23.0698 20.9829 23.5056 21.2654 23.828C21.548 24.1504 21.8863 24.3872 22.2803 24.5384C22.6744 24.6897 23.1898 24.8409 23.8266 24.9921C24.2803 25.1036 24.6384 25.2031 24.9012 25.2906C25.1638 25.3782 25.3807 25.4996 25.5518 25.6548C25.723 25.81 25.8086 26.007 25.8086 26.2458C25.8086 26.5722 25.6554 26.8348 25.3489 27.0338C25.0424 27.2328 24.5788 27.3323 23.9579 27.3323C23.4565 27.3323 22.9569 27.2468 22.4594 27.0756C21.9619 26.9045 21.542 26.6836 21.1998 26.413L20.6625 27.6189C21.0127 27.9214 21.4884 28.1641 22.0893 28.3472C22.6903 28.5303 23.3132 28.6218 23.9579 28.6218Z" fill="#ABA0EB"/>
<path fill-rule="evenodd" clip-rule="evenodd" d="M0.0883789 16H15.9887L16.0096 31.9994H0.0883789V16ZM8.62209 28.5024C9.30664 28.5024 9.93348 28.383 10.5026 28.1442C11.0718 27.9054 11.5513 27.5591 11.9414 27.1054L10.9384 26.1502C10.3335 26.8109 9.58922 27.1412 8.70567 27.1412C8.13255 27.1412 7.61915 27.0159 7.16543 26.7651C6.71172 26.5144 6.35751 26.1661 6.10279 25.7204C5.84807 25.2746 5.72071 24.7692 5.72071 24.204C5.72071 23.6389 5.84807 23.1334 6.10279 22.6877C6.35751 22.2419 6.71172 21.8937 7.16543 21.6429C7.61915 21.3922 8.13255 21.2668 8.70567 21.2668C9.58922 21.2668 10.3335 21.5932 10.9384 22.2459L11.9414 21.3026C11.5513 20.8489 11.0737 20.5027 10.5086 20.2639C9.94343 20.0251 9.31858 19.9057 8.63403 19.9057C7.79027 19.9057 7.02813 20.0907 6.34755 20.4609C5.66698 20.831 5.13168 21.3424 4.74164 21.9952C4.35161 22.6479 4.15659 23.3842 4.15659 24.204C4.15659 25.0239 4.34961 25.7602 4.73567 26.4129C5.12173 27.0656 5.65504 27.577 6.33561 27.9472C7.01619 28.3173 7.77834 28.5024 8.62209 28.5024Z" fill="#00C5E3"/>
<path fill-rule="evenodd" clip-rule="evenodd" d="M16 15.9994V0H31.9212V15.9994H16ZM23.1845 4.02516V12.383H24.7367V4.02516H23.1845Z" fill="#F7786B"/>
<path fill-rule="evenodd" clip-rule="evenodd" d="M0.0883789 15.9994V0H16.0096V15.9994H0.0883789ZM7.98928 4.02516H4.55061V12.383H6.10279V9.9712H7.98928C8.71363 9.9712 9.34445 9.8518 9.88175 9.613C10.419 9.37421 10.831 9.02994 11.1175 8.58021C11.4041 8.13047 11.5474 7.60313 11.5474 6.99818C11.5474 6.38526 11.4041 5.85594 11.1175 5.41017C10.831 4.96442 10.419 4.62215 9.88175 4.38335C9.34445 4.14456 8.71363 4.02516 7.98928 4.02516ZM7.91765 8.65781H6.10279V5.33854H7.91765C8.59424 5.33854 9.10765 5.48181 9.45788 5.76837C9.80812 6.05493 9.98324 6.46486 9.98324 6.99818C9.98324 7.53149 9.80812 7.94142 9.45788 8.22798C9.10765 8.51453 8.59424 8.65781 7.91765 8.65781Z" fill="#EBCC78"/>
</svg>
