<svg width="32" height="32" viewBox="0 0 32 32" fill="none" xmlns="http://www.w3.org/2000/svg">
<path d="M0.142212 15.8691C0.142212 14.4308 0.463397 13.146 1.10577 12.0149C1.76209 10.8698 2.64885 9.98306 3.76602 9.35467C4.89714 8.71229 6.16093 8.39111 7.55739 8.39111C9.19124 8.39111 10.6226 8.81004 11.8515 9.64792C13.0804 10.4858 13.9392 11.6449 14.428 13.1251H11.0555C10.7204 12.4269 10.2456 11.9032 9.63112 11.5541C9.03065 11.205 8.33242 11.0304 7.53644 11.0304C6.6846 11.0304 5.92353 11.2329 5.25324 11.6379C4.59691 12.0289 4.08022 12.5875 3.70317 13.3136C3.34009 14.0398 3.15856 14.8916 3.15856 15.8691C3.15856 16.8327 3.34009 17.6845 3.70317 18.4246C4.08022 19.1508 4.59691 19.7164 5.25324 20.1213C5.92353 20.5123 6.6846 20.7078 7.53644 20.7078C8.33242 20.7078 9.03065 20.5333 9.63112 20.1842C10.2456 19.8211 10.7204 19.2904 11.0555 18.5922H14.428C13.9392 20.0864 13.0804 21.2525 11.8515 22.0903C10.6366 22.9142 9.20521 23.3262 7.55739 23.3262C6.16093 23.3262 4.89714 23.0121 3.76602 22.3836C2.64885 21.7412 1.76209 20.8545 1.10577 19.7234C0.463397 18.5922 0.142212 17.3075 0.142212 15.8691Z" fill="#313944"/>
<path d="M31.7271 8.67554V23.2964H28.7946V13.7866L24.8775 23.2964H22.6572L18.7192 13.7866V23.2964H15.7867V8.67554H19.1171L23.7673 19.5469L28.4176 8.67554H31.7271Z" fill="#7D64B4"/>
</svg>
