<svg width="32" height="32" viewBox="0 0 32 32" fill="none" xmlns="http://www.w3.org/2000/svg">
<path d="M28.6929 8.23991L16.3996 1.17324C16.1596 1.03991 15.8396 1.03991 15.5996 1.17324L3.30625 8.23991C3.06625 8.37324 2.90625 8.63991 2.90625 8.93324V23.0666C2.90625 23.3599 3.06625 23.6266 3.30625 23.7599L15.5996 30.8266C15.8396 30.9599 16.1596 30.9599 16.3996 30.8266L28.6929 23.7599C28.9329 23.6266 29.0929 23.3599 29.0929 23.0666V8.93324C29.0929 8.63991 28.9329 8.37324 28.6929 8.23991ZM15.0663 5.70658C15.0663 5.75991 15.0396 5.78658 14.9863 5.81324L10.5863 8.34657C10.5063 8.39991 10.5063 8.53324 10.5863 8.58658L14.9863 11.1199C15.0396 11.1466 15.0663 11.1999 15.0663 11.2266V13.0666C15.0663 13.1732 14.9596 13.2266 14.8796 13.1732L6.87958 8.58658C6.79958 8.53324 6.79958 8.39991 6.87958 8.34657L14.8796 3.73324C14.9596 3.67991 15.0663 3.73324 15.0663 3.83991V5.70658V5.70658ZM25.1196 8.58658L17.1196 13.1999C17.0396 13.2532 16.9329 13.1999 16.9329 13.0932V11.2532C16.9329 11.1999 16.9596 11.1732 17.0129 11.1466L21.4129 8.61324C21.4929 8.55991 21.4929 8.42658 21.4129 8.37324L17.0129 5.83991C16.9596 5.81324 16.9329 5.75991 16.9329 5.73324V3.89324C16.9329 3.78658 17.0396 3.73324 17.1196 3.78658L25.1196 8.39991C25.2262 8.39991 25.2262 8.53324 25.1196 8.58658V8.58658Z" fill="#405261"/>
</svg>
