<svg width="32" height="32" viewBox="0 0 32 32" fill="none" xmlns="http://www.w3.org/2000/svg">
<g clip-path="url(#clip0_3860_117)">
<rect width="32" height="32" fill="#004A2A"/>
<path d="M21.4649 4.07847C22.0446 2.79298 21.3132 1.31001 19.949 0.956182C16.579 0.0839536 12.9017 0.326239 9.50882 1.91161C1.49419 5.65561 -1.83198 15.411 2.38379 23.3178C6.19362 30.4629 15.1216 33.4865 22.4972 30.1438C25.9714 28.5694 28.5753 25.8714 30.093 22.6778C30.6992 21.4033 30.0336 19.8883 28.6741 19.508C27.5989 19.2072 26.4917 19.7502 26.0098 20.7569C24.9493 22.9758 23.1481 24.8556 20.7509 25.9756C15.0869 28.6216 8.29465 26.0204 5.88916 20.1736C3.72779 14.921 6.03911 8.71938 11.1079 6.15664C13.5938 4.8995 16.3184 4.6819 18.808 5.3219C19.8851 5.59893 21.0078 5.09241 21.4649 4.07847Z" fill="white"/>
<path d="M26.3043 9.80922C27.5676 9.80922 28.5918 8.78505 28.5918 7.52167C28.5918 6.2583 27.5676 5.23413 26.3043 5.23413C25.0409 5.23413 24.0167 6.2583 24.0167 7.52167C24.0167 8.78505 25.0409 9.80922 26.3043 9.80922Z" fill="white"/>
<path d="M29.1202 15.8362C30.3836 15.8362 31.4078 14.812 31.4078 13.5487C31.4078 12.2853 30.3836 11.2611 29.1202 11.2611C27.8569 11.2611 26.8327 12.2853 26.8327 13.5487C26.8327 14.812 27.8569 15.8362 29.1202 15.8362Z" fill="white"/>
</g>
<defs>
<clipPath id="clip0_3860_117">
<rect width="32" height="32" fill="white"/>
</clipPath>
</defs>
</svg>
