<svg xmlns="http://www.w3.org/2000/svg" xmlns:xlink="http://www.w3.org/1999/xlink" width="32px" height="32px" viewBox="0 0 107 100" version="1.1">
    <title>crobox-logo-horizontal</title>
    <g id="crobox-logo-horizontal" stroke="none" stroke-width="1" fill="none" fill-rule="evenodd">
        <g id="Group" transform="translate(5.000000, 5.000000)" fill="#414168" fill-rule="nonzero">
            <path d="M0.660212281,43.3877547 L33.7052446,10.3104203 L33.7052446,10.3104203 L44.3626393,20.9782328 L9.71977895,55.6549572 L0.660212281,46.5865346 C-0.22007076,45.7022642 -0.22007076,44.2720251 0.660212281,43.3877547 Z" id="Rectangle-Copy-21"/>
            <path d="M46.5000708,0.664312595 L79.5451031,33.741647 L79.5451031,33.741647 L68.8877083,44.4094595 L34.244848,9.73273514 L43.3044147,0.664312595 C44.1853088,-0.220566474 45.6167521,-0.221265762 46.5000708,0.661190312 C46.5005917,0.661710692 46.5011123,0.662231327 46.5000708,0.664312595 Z" id="Rectangle-Copy-22"/>
            <path d="M89.1838431,46.542548 L56.1388108,79.6198824 L56.1388108,79.6198824 L45.4814161,68.9520699 L80.1242764,34.2753456 L89.1838431,43.3437681 C90.0641261,44.2280385 90.0641261,45.6582777 89.1838431,46.542548 Z" id="Rectangle-Copy-23"/>
            <path d="M43.3439846,89.2659901 L10.2989523,56.1886558 L10.2989523,56.1886558 L20.956347,45.5208432 L55.5992074,80.1975676 L46.5396407,89.2659901 C45.6587465,90.1508692 44.2273033,90.1515685 43.3439846,89.2691124 C43.3434637,89.268592 43.3429431,89.2680714 43.3439846,89.2659901 Z" id="Rectangle-Copy-24"/>
        </g>
        
    </g>
</svg>
