<svg width="32" height="32" viewBox="0 0 32 32" fill="none" xmlns="http://www.w3.org/2000/svg">
<path d="M27.5695 25.2519C25.7388 27.0825 23.4063 28.3291 20.8671 28.8341C18.3279 29.339 15.6959 29.0797 13.3041 28.0889C10.9122 27.0981 8.86787 25.4203 7.42954 23.2676C5.99124 21.115 5.22352 18.5842 5.22352 15.9952C5.22352 13.4063 5.99124 10.8755 7.42954 8.72281C8.86787 6.57016 10.9122 4.89235 13.3041 3.90152C15.6959 2.91071 18.3279 2.6514 20.8671 3.15639C23.4063 3.66136 25.7388 4.90796 27.5695 6.73852L29.4851 4.82302C27.2755 2.61356 24.4603 1.10894 21.3955 0.499421C18.3308 -0.110101 15.1542 0.202848 12.2673 1.39869C9.38043 2.59454 6.91297 4.61956 5.17698 7.21773C3.44099 9.81587 2.5144 12.8705 2.5144 15.9952C2.5144 19.12 3.44099 22.1746 5.17698 24.7727C6.91297 27.3709 9.38043 29.3959 12.2673 30.5917C15.1542 31.7876 18.3308 32.1005 21.3955 31.491C24.4603 30.8815 27.2755 29.3769 29.4851 27.1674L27.5695 25.2519Z" fill="#1DB8C4"/>
<path d="M12.8897 21.431C11.8181 20.358 11.0886 18.9913 10.7935 17.5038C10.4984 16.0163 10.6509 14.4747 11.2317 13.0739C11.8125 11.673 12.7955 10.4758 14.0566 9.63349C15.3177 8.7912 16.8001 8.34164 18.3166 8.34164C19.833 8.34164 21.3155 8.7912 22.5766 9.63349C23.8376 10.4758 24.8206 11.673 25.4014 13.0739C25.9822 14.4747 26.1347 16.0163 25.8396 17.5038C25.5445 18.9913 24.8151 20.358 23.7435 21.431L25.659 23.3465C27.1105 21.895 28.0991 20.0457 28.4996 18.0324C28.9001 16.0192 28.6946 13.9323 27.9091 12.0358C27.1236 10.1393 25.7933 8.51836 24.0865 7.37788C22.3798 6.23744 20.3731 5.62872 18.3204 5.62872C16.2676 5.62872 14.261 6.23744 12.5542 7.37788C10.8474 8.51836 9.51713 10.1393 8.73163 12.0358C7.9461 13.9323 7.74061 16.0192 8.14113 18.0324C8.54165 20.0457 9.53019 21.895 10.9817 23.3465L12.8897 21.431Z" fill="#1DB8C4"/>
<path d="M19.8997 17.5848C19.5853 17.8995 19.1845 18.114 18.7482 18.2009C18.3118 18.2879 17.8595 18.2435 17.4484 18.0734C17.0373 17.9032 16.6859 17.6149 16.4386 17.245C16.1914 16.8751 16.0594 16.4402 16.0594 15.9952C16.0594 15.5503 16.1914 15.1154 16.4386 14.7455C16.6859 14.3756 17.0373 14.0873 17.4484 13.9171C17.8595 13.747 18.3118 13.7026 18.7482 13.7895C19.1845 13.8765 19.5853 14.0909 19.8997 14.4057L21.8153 12.4902C21.1219 11.7965 20.2385 11.3241 19.2766 11.1326C18.3148 10.941 17.3178 11.0391 16.4116 11.4143C15.5055 11.7895 14.731 12.425 14.1861 13.2404C13.6412 14.0558 13.3503 15.0145 13.3503 15.9952C13.3503 16.976 13.6412 17.9346 14.1861 18.7501C14.731 19.5655 15.5055 20.201 16.4116 20.5762C17.3178 20.9514 18.3148 21.0494 19.2766 20.8579C20.2385 20.6664 21.1219 20.1939 21.8153 19.5003L19.8997 17.5848Z" fill="#1DB8C4"/>
</svg>
