<svg width="32" height="32" viewBox="0 0 32 32" fill="none" xmlns="http://www.w3.org/2000/svg">
<rect width="32" height="32" fill="#0F3749"/>
<path d="M24.6591 9.49638C24.6058 9.56675 24.5696 9.64857 24.5535 9.73536C24.5373 9.82214 24.5416 9.9115 24.5661 9.99633C24.5925 10.0568 24.6236 10.1151 24.6591 10.1707C24.8404 10.4141 25.0604 10.6262 25.3102 10.7986L25.7985 11.2753C25.8334 11.3334 25.8682 11.3799 25.9031 11.438C26.0803 11.7499 26.1735 12.1025 26.1735 12.4612C26.1735 12.8199 26.0803 13.1724 25.9031 13.4843C25.8728 13.5525 25.8379 13.6185 25.7985 13.6819L25.7171 13.8098L25.7985 13.7517L25.8915 13.6587C26.1915 13.438 26.4446 13.1599 26.6362 12.8405C26.8278 12.5212 26.9541 12.167 27.0077 11.7984C27.0706 11.3359 26.9987 10.865 26.8008 10.4423C26.6028 10.0195 26.2871 9.66283 25.8915 9.415L25.7869 9.35686C25.677 9.31116 25.5644 9.27233 25.4497 9.24059C25.3079 9.19339 25.1547 9.19274 25.0124 9.23876C24.8702 9.28478 24.7464 9.37504 24.6591 9.49638V9.49638Z" fill="white"/>
<path d="M20.5317 17.0885C20.4599 17.0651 20.3825 17.0651 20.3108 17.0885L19.9736 17.2397C19.8246 17.3354 19.6845 17.4444 19.555 17.5652C19.2917 17.8103 19.0469 18.0746 18.8226 18.3558L18.2529 19.1116V21.4717C18.3257 21.546 18.4209 21.5943 18.5239 21.609C18.6269 21.6237 18.7319 21.6041 18.8226 21.5531L19.09 21.3206C19.1702 21.2207 19.2439 21.1159 19.3109 21.0067C19.3923 20.8788 19.4737 20.7393 19.555 20.6114C19.8329 20.1488 20.0852 19.6714 20.3108 19.1813L20.5317 18.6349C20.8572 17.728 20.834 17.1815 20.5317 17.0885Z" fill="white"/>
<path d="M18.4879 3.01985C16.6552 3.17178 14.8791 3.72847 13.2875 4.64977C11.696 5.57108 10.3287 6.83406 9.28427 8.34764C8.23982 9.86122 7.54424 11.5877 7.24767 13.4026C6.95109 15.2175 7.06092 17.0756 7.56923 18.8429C7.68462 19.2458 7.91017 19.6085 8.2205 19.8903C8.85309 20.5195 9.60589 21.0148 10.434 21.3469C11.0029 21.5033 11.5908 21.5795 12.1807 21.5735C12.3353 21.5798 12.4893 21.5511 12.6312 21.4895C12.7731 21.428 12.8993 21.3352 13.0003 21.218L18.2878 15.0876L18.7877 14.5063C18.8109 14.4821 18.8304 14.4547 18.8459 14.4249L18.8575 14.4017L18.9389 14.0296C18.9324 13.8754 18.905 13.7229 18.8575 13.5761L18.8459 13.5413C18.7155 13.1975 18.5267 12.8789 18.2878 12.5995C17.5321 11.6926 16.2648 11.0764 15.3346 12.2274C14.951 12.6576 9.93992 18.25 9.91667 18.1802C9.69483 17.3922 9.5699 16.5801 9.54463 15.7619C9.46114 13.1803 10.3584 10.6629 12.056 8.71621C13.7864 6.7349 16.2329 5.52207 18.8575 5.34451L20.3457 5.35614C21.8879 5.48192 23.3782 5.97204 24.694 6.7862L24.8103 6.85597C24.9382 6.93735 25.066 7.01873 25.194 7.11174C25.066 7.10011 24.9382 7.10011 24.8103 7.10011H24.694C23.7885 7.14472 22.9162 7.45526 22.1863 7.99292C21.4563 8.53057 20.901 9.27147 20.5898 10.123L20.5666 10.1811L20.3457 11.0997L20.334 11.2043C20.2932 11.5714 20.2932 11.9418 20.334 12.3089L20.3457 12.4135C20.3917 12.7257 20.4656 13.0331 20.5666 13.332C20.6584 13.5757 20.7671 13.8127 20.8921 14.0412L20.5666 14.4016L20.3457 14.6458L20.334 14.6574C20.0899 14.9248 19.8457 15.2039 19.5899 15.4945L18.8575 16.3316L18.8458 16.3433C18.6714 16.5293 18.4854 16.7502 18.2878 16.9827C17.0542 18.4236 15.2198 20.5947 14.1609 21.889C13.9325 22.1684 13.7875 22.5066 13.7428 22.8647L13.6044 23.9633L13.4316 25.3469C13.3985 25.5988 13.4447 25.8547 13.564 26.0791C13.6832 26.3034 13.8694 26.485 14.0967 26.5985C15.8181 27.4333 17.7089 27.8596 19.6219 27.8443C21.535 27.829 23.4187 27.3724 25.1265 26.5101C26.8342 25.6479 28.32 24.4031 29.4681 22.8729C30.6163 21.3426 31.3958 19.568 31.7461 17.6872C32.0964 15.8064 32.0079 13.8702 31.4876 12.0292C30.9673 10.1882 30.0292 8.49206 28.7464 7.07283C27.4635 5.6536 25.8704 4.54954 24.0911 3.84657C22.3118 3.1436 20.3943 2.86069 18.4879 3.01985V3.01985ZM22.1013 9.95977C22.3795 9.52982 22.7572 9.17325 23.2024 8.92027C23.6477 8.66728 24.1474 8.52534 24.6591 8.50646H24.7754C25.1236 8.49698 25.4705 8.55217 25.7985 8.66924L25.9032 8.71574C26.1267 8.80727 26.3408 8.92018 26.5426 9.0529C27.2527 9.54067 27.7439 10.2868 27.9112 11.132C28.0785 11.9771 27.9086 12.8541 27.4379 13.5756C27.0713 14.1427 26.5338 14.5784 25.9032 14.8197L25.7985 14.8546L24.7754 15.0289H24.6591C24.0647 15.006 23.4887 14.8166 22.9965 14.4825C22.2864 13.9947 21.7952 13.2486 21.6279 12.4034C21.4606 11.5583 21.6305 10.6813 22.1013 9.95977V9.95977ZM18.1715 22.935C17.5553 23.8884 16.7763 23.6442 16.4043 22.842C16.2234 22.5222 16.1178 22.1654 16.0956 21.7987C16.0735 21.4321 16.1353 21.0651 16.2764 20.726C16.8816 19.7776 17.5416 18.8653 18.2529 17.9937C18.4505 17.7496 18.6366 17.5403 18.811 17.3543L18.8226 17.3426L19.5434 16.6334C19.7729 16.434 20.0223 16.2587 20.2875 16.1103L20.2992 16.0986L20.5201 16.0056C21.9036 15.5057 21.892 17.7612 20.5201 20.5981C20.4503 20.7492 20.3806 20.8887 20.2992 21.0399L20.2875 21.0632C20.0666 21.4817 19.8225 21.9119 19.5434 22.3421C19.4566 22.5236 19.334 22.6857 19.183 22.8188L18.811 23.0164C18.5951 23.0695 18.3672 23.0404 18.1715 22.935V22.935ZM26.9379 22.1444C26.6227 22.5178 26.2765 22.8639 25.9032 23.1792L25.7985 23.2722L24.7754 24.0163L24.6591 24.086C24.3231 24.2986 23.9736 24.4889 23.6127 24.6558C22.5707 25.135 21.4535 25.4301 20.3108 25.5277L19.5551 25.5626C19.3923 25.5626 19.2179 25.5626 19.0551 25.551C19.2328 25.4125 19.3999 25.2609 19.5551 25.0976C19.6726 24.9735 19.7814 24.8414 19.8806 24.7022C20.0228 24.6849 20.163 24.6537 20.2991 24.6092H20.3108L20.5317 24.5278C21.6362 24.0279 22.2873 22.6792 22.8337 21.4235C23.2756 20.4121 23.9499 18.017 24.3568 16.6799C24.3917 16.5637 24.4266 16.459 24.4498 16.366C24.5191 16.3757 24.5891 16.3796 24.6591 16.3776H24.7754C25.1191 16.378 25.462 16.3429 25.7985 16.273L25.9031 16.2497C26.6737 16.0581 27.3816 15.6705 27.9581 15.1245C28.5346 14.5785 28.9602 13.8928 29.1935 13.1338C29.3124 13.6422 29.3901 14.1593 29.426 14.6802C29.5082 15.7771 29.414 16.8801 29.147 17.9472C28.7554 19.5022 27.998 20.9412 26.9379 22.1444V22.1444Z" fill="white"/>
<path d="M1.16743 24.1241C1.77128 24.0704 2.40196 23.3995 2.91187 23.3592C2.80452 24.8756 1.22111 25.8417 0 26.2979C0.730793 26.874 1.61335 27.2252 2.54016 27.3085C3.46696 27.3919 4.39802 27.204 5.21991 26.7676C5.23792 27.0515 5.19206 27.3358 5.08572 27.5996C7.44742 27.5325 9.39315 26.1772 9.80913 22.6212C7.44742 23.7082 6.74965 20.3535 5.67614 21.8966C4.50871 23.574 3.73043 22.9165 3.70358 22.1918C3.71181 21.8437 3.82514 21.5061 4.0287 21.2235C4.23227 20.9409 4.51654 20.7265 4.84418 20.6084C5.42219 20.4388 6.01546 20.3265 6.61546 20.273C6.52153 20.0448 6.45443 19.8167 6.37392 19.5752C2.81795 19.0116 1.81154 22.0442 1.48949 23.319C1.40858 23.5972 1.30072 23.8669 1.16743 24.1241V24.1241Z" fill="#FFCD05"/>
</svg>
