<svg width="32" height="32" viewBox="0 0 32 32" fill="none" xmlns="http://www.w3.org/2000/svg">
<rect width="32" height="32" fill="#FF3D00"/>
<path d="M17.404 25.692C15.412 25.692 13.624 25.272 12.04 24.432C10.456 23.592 9.22 22.428 8.332 20.94C7.444 19.428 7 17.724 7 15.828C7 13.932 7.444 12.24 8.332 10.752C9.22 9.264 10.444 8.1 12.004 7.26C13.588 6.42 15.388 6 17.404 6C19.3 6 20.956 6.384 22.372 7.152C23.812 7.92 24.892 9.024 25.612 10.464L22.156 12.48C21.604 11.592 20.908 10.932 20.068 10.5C19.252 10.044 18.352 9.816 17.368 9.816C15.688 9.816 14.296 10.368 13.192 11.472C12.088 12.552 11.536 14.004 11.536 15.828C11.536 17.652 12.076 19.116 13.156 20.22C14.26 21.3 15.664 21.84 17.368 21.84C18.352 21.84 19.252 21.624 20.068 21.192C20.908 20.736 21.604 20.064 22.156 19.176L25.612 21.192C24.868 22.632 23.776 23.748 22.336 24.54C20.92 25.308 19.276 25.692 17.404 25.692Z" fill="white"/>
<path d="M16.25 21.5C19.149 21.5 21.5 19.149 21.5 16.25C21.5 13.351 19.149 11 16.25 11C13.351 11 11 13.351 11 16.25C11 19.149 13.351 21.5 16.25 21.5Z" fill="#FF3D00"/>
<path d="M17.25 21.5C20.149 21.5 22.5 19.149 22.5 16.25C22.5 13.351 20.149 11 17.25 11C14.351 11 12 13.351 12 16.25C12 19.149 14.351 21.5 17.25 21.5Z" fill="black"/>
</svg>
