<svg width="75" height="75" viewBox="0 0 75 75" fill="none" xmlns="http://www.w3.org/2000/svg">
<path d="M29.9368 58.9532C26.5194 59.9808 22.6569 60.7147 18.9424 60.7147C6.53783 60.7147 0 53.081 0 41.6285C0 30.2507 6.53783 22.5424 18.9424 22.5424C22.6569 22.5424 26.5194 23.2772 29.9368 24.3049L28.4507 31.9386C25.1082 30.9109 22.8799 30.4708 20.2056 30.4708C13.8168 30.4708 11.1424 35.1689 11.1424 41.6285C11.1424 48.0892 13.8168 52.7873 20.2056 52.7873C22.8799 52.7873 25.1082 52.3461 28.4507 51.3185L29.9368 58.9532Z" fill="#DF0024"/>
<path d="M46.0061 31.2049V49.7773C46.0061 52.2737 47.7143 53.0076 49.3495 53.0076C50.0916 53.0076 51.6518 52.9339 52.5429 52.7138V60.1274C50.3887 60.4949 46.6752 60.7149 44.892 60.7149C37.167 60.7149 35.3837 56.6044 35.3837 50.8049V31.2049V23.2765V18.4909L46.0061 13V23.2765H52.5429V31.2049H46.0061Z" fill="#DF0024"/>
<path d="M68.312 31.2049V49.7773C68.312 52.2737 70.0202 53.0076 71.6554 53.0076C72.3975 53.0076 73.9577 52.9339 74.8488 52.7138V60.1274C72.6945 60.4949 68.9801 60.7149 67.1978 60.7149C59.4718 60.7149 57.6896 56.6044 57.6896 50.8049V18.4909L68.312 13V23.2765H74.8488V31.2049H68.312Z" fill="#DF0024"/>
</svg>
