<svg width="32" height="32" viewBox="0 0 32 32" fill="none" xmlns="http://www.w3.org/2000/svg">
<path d="M11.7574 20.2426C14.1005 22.5857 17.8995 22.5857 20.2426 20.2426L23.7782 23.7782C19.4825 28.074 12.5175 28.074 8.22178 23.7782C3.92603 19.4825 3.92603 12.5175 8.22178 8.22178C12.5175 3.92603 19.4825 3.92603 23.7782 8.22178L20.2426 11.7574C17.8995 9.41401 14.1005 9.41401 11.7574 11.7574C9.41433 14.1005 9.41433 17.8995 11.7574 20.2426V20.2426ZM16.0002 -1.39251e-06C7.16344 -1.39251e-06 0 7.16344 0 15.9998C0 19.3878 1.05583 22.5273 2.85233 25.1141L0 32L6.88593 29.1477C9.47266 30.9442 12.6122 32 16.0002 32C24.8366 32 32 24.8366 32 15.9998C32 7.16344 24.8366 -1.39251e-06 16.0002 -1.39251e-06" fill="#FFC800"/>
</svg>
