<svg width="32" height="32" viewBox="0 0 32 32" fill="none" xmlns="http://www.w3.org/2000/svg">
<path d="M18.755 15.083C16.416 15.083 14.62 16.984 14.62 19.23C14.62 21.569 16.416 23.345 18.959 23.345L18.938 23.35C21.058 23.35 22.839 21.599 22.839 19.293C22.839 16.897 21.058 15.084 18.755 15.084V15.083ZM0 0V32H32V0H0ZM27.588 27.745H22.823V25.864C21.355 27.303 19.86 27.823 17.87 27.823C15.839 27.823 14.094 27.162 12.631 25.844C10.698 24.14 9.698 21.88 9.698 19.26C9.698 16.86 10.631 14.708 12.381 13.031C13.938 11.5 15.84 10.724 17.96 10.724C19.985 10.724 21.548 11.407 22.668 12.844V5.541L27.589 4.521L27.594 4.526H27.589L27.588 27.745Z" fill="black"/>
</svg>
