<svg width="32" height="32" viewBox="0 0 32 32" fill="none" xmlns="http://www.w3.org/2000/svg">
<g clip-path="url(#clip0)">
<path fill-rule="evenodd" clip-rule="evenodd" d="M26.074 22.7507L23.417 20.9982L21.2005 24.7005L18.6226 23.9468L16.3528 27.4112L16.4691 28.5017L28.8104 26.2278L28.0936 18.5169L26.074 22.7507ZM14.5648 19.4261L16.5449 19.1539C16.8652 19.2978 17.0883 19.3527 17.4724 19.4504C18.0706 19.6063 18.7632 19.7558 19.7889 19.2389C20.0276 19.1207 20.5247 18.666 20.7257 18.4068L28.8384 16.9351L29.666 26.9513L15.7676 29.4561L14.5648 19.4261ZM29.6346 15.817L28.8339 15.9695L27.2954 0.074707L1.08154 3.11433L4.31101 29.3215L7.37935 28.8762C7.13432 28.5264 6.75278 28.103 6.10122 27.5611C5.19753 26.8104 5.51716 25.5352 6.05012 24.73C6.75539 23.3694 10.3891 21.6404 10.1833 19.4657C10.1094 18.675 9.98373 17.6456 9.24975 16.9403C9.22215 17.2331 9.27175 17.5151 9.27175 17.5151C9.27175 17.5151 8.9704 17.1306 8.8201 16.6062C8.67091 16.4051 8.5538 16.341 8.3953 16.0725C8.28229 16.3831 8.29721 16.7434 8.29721 16.7434C8.29721 16.7434 8.05068 16.1609 8.01077 15.6693C7.86457 15.8893 7.82765 16.3074 7.82765 16.3074C7.82765 16.3074 7.50728 15.3892 7.58038 14.8947C7.43418 14.4643 7.0008 13.6102 7.1235 11.6689C7.9235 12.2295 9.68462 12.0963 10.3709 11.0849C10.5987 10.75 10.7546 9.83545 10.2571 8.03368C9.93749 6.87825 9.14606 5.15778 8.83763 4.5051L8.8007 4.53158C8.96331 5.05746 9.29861 6.15993 9.42728 6.69438C9.81665 8.31564 9.92108 8.87993 9.73833 9.62734C9.5828 10.277 9.20984 10.7022 8.26439 11.1774C7.31893 11.654 6.06429 10.4941 5.98485 10.43C5.06625 9.6982 4.35576 8.50436 4.27632 7.9244C4.1939 7.28962 4.6422 6.90846 4.86821 6.3893C4.54485 6.48179 4.1842 6.6459 4.1842 6.6459C4.1842 6.6459 4.6146 6.20058 5.14532 5.81531C5.36499 5.66986 5.49404 5.57736 5.72565 5.38492C5.39035 5.37932 5.11809 5.38902 5.11809 5.38902C5.11809 5.38902 5.67716 5.08692 6.25674 4.86687C5.83269 4.84823 5.4269 4.86389 5.4269 4.86389C5.4269 4.86389 6.67446 4.30594 7.65982 3.89643C8.33749 3.61858 8.99949 3.70063 9.37133 4.23844C9.85954 4.94296 10.3724 5.32562 11.4592 5.56282C12.1264 5.26706 12.3293 5.11489 13.1677 4.88664C13.9058 4.07508 14.4854 3.9699 14.4854 3.9699C14.4854 3.9699 14.1978 4.23359 14.121 4.64795C14.5394 4.31825 14.9982 4.04301 14.9982 4.04301C14.9982 4.04301 14.8207 4.26231 14.6551 4.61065L14.6935 4.66771C15.1817 4.37494 15.7557 4.14408 15.7557 4.14408C15.7557 4.14408 15.5916 4.35144 15.3991 4.61997C15.7672 4.61699 16.5139 4.63564 16.8037 4.66846C18.5145 4.70613 18.8695 2.84133 19.5259 2.60748C20.3479 2.31396 20.7153 2.13643 22.1161 3.51228C23.3182 4.69345 24.2573 6.80776 23.7911 7.28142C23.4002 7.67452 22.629 7.12813 21.7741 6.06259C21.3225 5.4983 20.9808 4.83144 20.8208 3.9837C20.6858 3.26837 20.1603 2.85326 20.1603 2.85326C20.1603 2.85326 20.4654 3.5313 20.4654 4.13028C20.4654 4.45736 20.5064 5.6803 21.0308 6.36655C20.979 6.46687 20.9547 6.86296 20.8973 6.93867C20.2871 6.20133 18.9769 5.67359 18.7632 5.51806C19.4864 6.1107 21.1487 7.472 21.7872 8.77662C22.391 10.0104 22.0352 11.1412 22.3407 11.434C22.4276 11.5179 23.6393 13.0276 23.8724 13.7862C24.2789 15.1084 23.8966 16.4976 23.3644 17.3596L21.8782 17.5912C21.6608 17.5307 21.5142 17.5005 21.3191 17.3875C21.4265 17.1973 21.6402 16.7229 21.6425 16.6252L21.5586 16.4779C21.0961 17.1332 20.3211 17.7694 19.6773 18.1349C18.8348 18.6123 17.8636 18.5389 17.2315 18.3431C15.4372 17.7896 13.7406 16.5771 13.3314 16.2586C13.3314 16.2586 13.3187 16.5129 13.3959 16.57C13.8484 17.0802 14.8848 18.0033 15.8866 18.6466L13.751 18.8816L14.7606 26.7429C14.3131 26.807 14.2433 26.8383 13.7532 26.9081C13.3214 25.3823 12.4952 24.3861 11.5923 23.8058C10.796 23.2941 9.69767 23.1789 8.6463 23.387L8.57879 23.4653C9.30979 23.3892 10.1728 23.4951 11.0594 24.0564C11.9295 24.6065 12.6306 26.0275 12.8887 26.8831C13.2192 27.9766 13.4478 29.1462 12.5583 30.3859C11.9254 31.2672 10.0777 31.7543 8.58513 30.7007C8.98383 31.3418 9.52276 31.8662 10.2482 31.9651C11.3253 32.1113 12.3476 31.9244 13.0513 31.202C13.6522 30.5844 13.9707 29.2928 13.8868 27.9326L14.8374 27.7946L15.1806 30.236L30.9187 28.341L29.6346 15.817ZM20.0596 9.18687C20.0156 9.2872 19.9466 9.35284 20.0503 9.67918L20.0566 9.69783L20.0731 9.73998L20.1163 9.83769C20.3032 10.2196 20.5083 10.5799 20.8511 10.7638C20.9398 10.7488 21.0316 10.7388 21.1267 10.7339C21.4485 10.7197 21.6518 10.7708 21.7808 10.8402C21.7924 10.7761 21.795 10.6821 21.7879 10.5437C21.7629 10.06 21.8838 9.23722 20.954 8.80422C20.603 8.64123 20.1107 8.69158 19.9466 8.89485C19.9765 8.89858 20.0033 8.90492 20.0242 8.912C20.2722 8.9989 20.104 9.08431 20.0596 9.18687ZM22.6655 13.7004C22.5435 13.6333 21.9737 13.6598 21.5731 13.7075C20.81 13.7974 19.9862 14.0622 19.8056 14.2032C19.4774 14.4568 19.6266 14.8991 19.869 15.0808C20.549 15.5887 21.1449 15.9293 21.7741 15.8465C22.1605 15.7957 22.501 15.1841 22.7423 14.6291C22.9076 14.2468 22.9076 13.8343 22.6655 13.7004ZM15.9097 9.78585C16.1249 9.58147 14.8378 9.31294 13.839 9.99396C13.1024 10.4963 13.0789 11.5734 13.7842 12.184C13.8547 12.2444 13.9129 12.2873 13.9673 12.3224C14.1732 12.2254 14.4078 12.1273 14.6778 12.0396C15.1339 11.8916 15.5132 11.8151 15.825 11.7745C15.9742 11.6078 16.1477 11.3142 16.1044 10.7828C16.0455 10.0618 15.4991 10.1763 15.9097 9.78585Z" fill="#632CA6"/>
</g>
<defs>
<clipPath id="clip0">
<rect width="32" height="32" fill="white"/>
</clipPath>
</defs>
</svg>
