<svg width="32" height="32" viewBox="0 0 32 32" fill="none" xmlns="http://www.w3.org/2000/svg">
<rect width="32" height="32" fill="black"/>
<path d="M19.9981 2.00116L20.0047 2.02201L20.0221 4.68025L20.0256 4.64463L20.0299 4.65302L9.35905 6.32518L9.33646 6.33241L9.32458 3.52822L9.33038 3.54067L19.9355 2.00666L19.9714 2L19.9981 2.00116Z" fill="white"/>
<path d="M20.4134 6.01673L9.72192 7.83078L16.9631 15.7264L27.638 13.4302L27.5717 13.385L20.4835 5.96576L20.4134 6.01673Z" fill="white"/>
<path d="M17.2356 17.3369L17.2306 17.3494L17.2167 30.9476L17.2217 30.9554L28.2282 27.9007L28.2366 27.8879L28.238 27.8987L28.2181 27.9071L28.2482 27.901L28.2276 15.0517L28.2181 15.0416L28.1732 14.9692H28.1581L17.2257 17.3448L17.2356 17.3369Z" fill="white"/>
<path d="M3.02491 15.014L3 27.828L15.471 30.9655L15.4661 17.4667L15.4626 17.4748L15.4592 17.4548L15.4595 17.4496L3.03214 15.0091L3.02606 15.0082L3.02491 15.014Z" fill="white"/>
<path d="M8.3443 18.8512L8.35241 18.8431L8.34923 18.8463L8.31911 18.8469L8.3498 18.8211L8.30231 18.8622L8.3443 18.8512Z" fill="white"/>
<path d="M11.324 4.99329L11.315 4.97533L11.3512 4.96606L11.309 5.08683L11.333 5.00226L11.324 4.99329Z" fill="white"/>
<path d="M23.8457 17.7062L23.8645 17.7073L23.8695 17.7192L23.8521 17.7111L23.855 17.7036L23.8651 17.7125L23.8359 17.7143L23.8457 17.7062Z" fill="white"/>
<path d="M8.36108 8.87855L8.34747 8.8661L3.68896 13.414L3.70084 13.4603L14.3428 15.4846L14.3627 15.4919L14.3457 15.4672L14.3845 15.4707L14.4004 15.4545L8.42538 8.86292L8.37325 8.88029L8.39931 8.92402L8.36108 8.87855Z" fill="white"/>
</svg>
