<svg id="svg" version="1.1" width="400" height="400" xmlns="http://www.w3.org/2000/svg" xmlns:xlink="http://www.w3.org/1999/xlink" ><g id="svgg"><path id="path0" d="M23.636 166.547 L 23.636 170.455 37.614 170.462 C 56.645 170.473,60.741 171.473,67.440 177.739 C 79.681 189.190,77.786 215.757,64.102 224.538 C 58.998 227.813,56.092 228.360,43.636 228.386 L 32.500 228.409 32.382 204.886 L 32.265 181.364 27.950 181.364 L 23.636 181.364 23.636 208.907 L 23.636 236.451 39.659 236.252 C 57.898 236.026,59.627 235.766,66.818 232.173 C 91.113 220.032,90.405 178.681,65.695 166.566 C 59.147 163.355,57.081 163.062,39.432 162.839 L 23.636 162.639 23.636 166.547 M119.761 176.932 C 101.953 220.460,96.313 234.362,96.075 235.310 C 95.813 236.356,95.842 236.364,100.068 236.364 L 104.326 236.364 116.800 204.432 C 128.195 175.265,132.727 163.452,132.727 162.924 C 132.727 162.816,131.117 162.727,129.150 162.727 L 125.572 162.727 119.761 176.932 M165.909 162.958 C 165.909 163.102,169.036 168.479,172.858 174.906 C 176.680 181.333,181.633 189.695,183.866 193.488 C 186.099 197.282,188.069 200.297,188.244 200.189 C 188.770 199.864,192.275 193.598,192.249 193.028 C 192.236 192.738,188.394 185.852,183.711 177.727 L 175.196 162.955 170.553 162.825 C 167.999 162.754,165.909 162.814,165.909 162.958 M212.045 177.552 C 207.295 185.691,201.213 196.169,198.528 200.835 L 193.647 209.318 193.642 222.841 L 193.636 236.364 197.955 236.364 L 202.273 236.364 202.273 222.896 L 202.273 209.429 216.355 186.078 L 230.437 162.727 225.559 162.740 L 220.682 162.752 212.045 177.552 M292.592 163.014 C 292.416 163.190,292.267 173.271,292.260 185.417 C 292.242 218.638,291.095 224.471,283.864 228.132 C 279.387 230.398,268.901 229.902,264.147 227.199 C 263.303 226.719,262.564 226.386,262.504 226.459 C 262.445 226.531,261.933 228.002,261.366 229.726 L 260.336 232.861 261.418 233.698 C 268.560 239.222,285.856 238.426,292.872 232.250 C 299.716 226.226,300.682 220.722,300.682 187.727 L 300.682 162.955 296.797 162.825 C 294.660 162.753,292.768 162.838,292.592 163.014 M339.871 163.663 C 328.552 166.445,322.955 173.121,322.955 183.840 C 322.955 195.205,327.009 198.524,347.500 203.931 C 364.158 208.327,368.715 212.471,366.331 221.055 C 363.402 231.603,340.332 232.131,326.800 221.960 C 325.287 220.822,323.986 219.967,323.909 220.059 C 323.833 220.152,322.895 221.740,321.826 223.590 L 319.882 226.952 320.964 227.808 C 340.724 243.430,373.115 238.752,376.054 219.850 C 378.081 206.808,371.838 201.037,349.663 195.454 C 334.781 191.707,331.847 189.576,331.833 182.500 C 331.807 169.658,351.643 165.701,366.296 175.626 C 367.633 176.531,368.786 177.273,368.858 177.273 C 369.023 177.273,372.727 171.048,372.727 170.769 C 372.727 170.272,366.627 166.650,363.790 165.464 C 357.059 162.649,347.060 161.896,339.871 163.663 M136.038 177.095 C 133.217 184.514,132.974 182.398,138.146 195.455 C 140.671 201.830,142.639 207.301,142.519 207.614 C 142.355 208.042,140.068 208.182,133.229 208.182 L 124.156 208.182 123.254 210.568 C 122.757 211.881,122.209 213.313,122.036 213.750 C 121.741 214.495,122.447 214.545,133.123 214.545 C 144.456 214.545,144.528 214.552,145.158 215.568 C 145.507 216.131,147.592 221.040,149.793 226.477 L 153.793 236.364 158.313 236.364 C 162.401 236.364,162.812 236.288,162.608 235.568 C 162.484 235.131,157.113 221.886,150.672 206.136 C 144.232 190.386,138.611 176.602,138.182 175.504 L 137.401 173.508 136.038 177.095 M237.273 230.909 L 237.273 236.364 240.909 236.364 L 244.545 236.364 244.545 230.909 L 244.545 225.455 240.909 225.455 L 237.273 225.455 237.273 230.909 " stroke="none" fill="#ff5f4c" fill-rule="evenodd"></path></g></svg>