<svg width="32" height="32" viewBox="0 0 32 32" fill="none" xmlns="http://www.w3.org/2000/svg">
<path fill-rule="evenodd" clip-rule="evenodd" d="M15.8333 30.2545C9.19517 29.6659 3.41198 18.0884 2.90909 8.32599C7.63625 7.63916 12.3131 4.79387 15.8333 1.16364C19.1523 4.74481 24.0304 7.63916 28.7575 8.32599C28.2546 18.0884 22.5217 29.6659 15.8333 30.2545Z" fill="#0589E5"/>
<path fill-rule="evenodd" clip-rule="evenodd" d="M10.8549 17.9902V17.009L15.6323 16.3713V15.0467L10.8549 16.0279V15.0467L15.6323 13.5259V12.3486L10.8549 14.0165V13.1335L15.6323 10.9259V9.4542L10.8549 12.1524V11.4165L15.7832 7.88439L20.7618 11.5146V19.1185H21.3652V20.492H10.3017V19.1185H15.6323V17.6958L10.8549 17.9902Z" fill="white"/>
</svg>
