<svg width="32" height="32" viewBox="0 0 32 32" fill="none" xmlns="http://www.w3.org/2000/svg">
<path d="M21.0753 5.16177H13.557C12.8861 5.14457 12.3183 5.6951 12.3183 6.36607V6.40048C12.3011 7.07145 12.8517 7.63919 13.5226 7.63919H21.0753C25.6517 7.63919 29.3678 11.3553 29.3678 15.9317C29.3678 20.508 25.6517 24.2241 21.0753 24.2241H14.8129V15.9661C14.8129 15.2779 14.2624 14.7274 13.5742 14.7274C12.8861 14.7274 12.3355 15.2779 12.3355 15.9661V25.5145C12.3183 26.1854 12.8689 26.7532 13.5398 26.7532H21.0925C27.0624 26.7532 31.8968 21.9188 31.8968 15.9489C31.8968 9.97897 27.0452 5.16177 21.0753 5.16177Z" fill="#283269"/>
<path d="M7.48389 7.67347C8.16801 7.67347 8.7226 7.11888 8.7226 6.43476C8.7226 5.75063 8.16801 5.19604 7.48389 5.19604C6.79977 5.19604 6.24518 5.75063 6.24518 6.43476C6.24518 7.11888 6.79977 7.67347 7.48389 7.67347Z" fill="#283269"/>
<path d="M1.41077 7.67347C2.09489 7.67347 2.64948 7.11888 2.64948 6.43476C2.64948 5.75063 2.09489 5.19604 1.41077 5.19604C0.726647 5.19604 0.172058 5.75063 0.172058 6.43476C0.172058 7.11888 0.726647 7.67347 1.41077 7.67347Z" fill="#283269"/>
</svg>
