<svg width="32" height="32" viewBox="0 0 32 32" fill="none" xmlns="http://www.w3.org/2000/svg">
<path fill-rule="evenodd" clip-rule="evenodd" d="M31.0632 7.43217C30.6517 6.77415 29.9078 6.40002 29.131 6.40002H0L3.56738 10.2359C4.70075 11.4551 6.28967 12.1461 7.95342 12.1461H24.9672C26.3162 12.1461 27.5245 12.8437 28.1978 14.0145C28.2683 14.1378 28.3321 14.2654 28.3871 14.3931L31.1028 9.71651C31.521 9.00348 31.5078 8.1408 31.0632 7.43217ZM24.9694 13.6688H8.4508L11.7057 17.1679C12.839 18.3871 14.4279 19.0782 16.0917 19.0782H20.9134C22.2626 19.0782 23.4707 19.7758 24.1442 20.9466C24.2212 21.0787 24.2872 21.2151 24.3466 21.3515L26.851 17.0381C27.2538 16.3449 27.2868 15.4822 26.8906 14.7846C26.4923 14.087 25.7726 13.6688 24.9694 13.6688ZM20.8664 20.3316C22.1965 20.4053 23.215 21.5432 23.1414 22.8734C23.0677 24.2035 21.9298 25.222 20.5996 25.1483C19.2695 25.0747 18.251 23.9367 18.3246 22.6066C18.3983 21.2765 19.5362 20.2579 20.8664 20.3316Z" fill="#0D3B63"/>
</svg>
