<svg width="32" height="32" viewBox="0 0 32 32" fill="none" xmlns="http://www.w3.org/2000/svg">
<path d="M20.5956 24.1575C20.6972 24.2715 20.748 24.4018 20.748 24.5321C20.748 24.6462 20.7819 27.2851 18.3263 28.4254C17.632 28.7349 16.7853 28.8163 16.0232 28.8326L14.0588 31.1783C15.1934 31.1946 16.7175 31.1783 17.2764 31.1131C18.2925 30.9991 19.3086 30.657 20.2061 30.1358C20.8327 29.7774 21.4085 29.3213 21.9335 28.8163C22.56 28.1647 23.0681 27.4968 23.3052 26.9104C23.4237 26.6335 23.5253 26.3077 23.61 25.9493C23.8301 25.0208 23.9318 23.5222 23.9487 22.3005H18.9191L20.5956 24.1575Z" fill="#4196D4"/>
<path d="M20.2909 19.0588L19.1902 20.9646L26.7261 20.9483C29.1817 20.9483 30.4349 20.1176 31.4001 19.0588H20.2909Z" fill="#4196D4"/>
<path d="M12.45 16.8109C12.8056 16.7783 13.1104 17.0226 13.1443 17.3647C13.1612 17.5113 13.5169 20.9484 16.8361 20.9484H17.2425L19.3086 17.5602H23.9487V7.33032C23.9487 4.10498 22.306 2.47602 22.2383 2.41086L22.1875 2.36199C21.3915 1.38462 20.2908 0.68416 19.0376 0.3095C18.0046 -2.98023e-08 17.0562 0 15.9555 0H10.621C11.2815 0.66787 11.6202 1.5638 11.6202 2.67149C11.6202 3.01357 11.3323 3.27421 10.9936 3.27421C10.6549 3.27421 10.367 2.99729 10.367 2.67149C10.367 1.82443 10.113 1.18914 9.6219 0.74932C8.7074 -0.0651602 7.20018 0.0162899 7.18325 0.0162899C7.16631 0.0162899 7.14938 0.0162899 7.14938 0.0162899H1.95039C1.91653 0.0162899 1.51009 0 1.273 0.22805C1.08672 0.39095 1.00205 0.66787 1.00205 1.04253V14.0254C1.00205 14.0905 0.866572 16.876 2.79713 18.7493C2.831 18.7819 5.04946 20.9647 7.75903 20.9647H13.5169C12.3992 19.9222 11.925 18.4561 11.8403 17.4788C11.8403 17.153 12.1113 16.8598 12.45 16.8109ZM19.6303 12.543L15.5829 10.7512C16.9546 8.16108 20.4601 9.75748 19.6303 12.543Z" fill="#4196D4"/>
</svg>
