<svg width="32" height="32" viewBox="0 0 32 32" fill="none" xmlns="http://www.w3.org/2000/svg">
    <path d="M15.9483 0C24.7562 0 31.8965 7.13261 31.8965 15.9311C31.8965 24.7297 24.7562 31.8622 15.9483 31.8622C7.14029 31.8622 0 24.7297 0 15.9311C0 7.13261 7.14029 0 15.9483 0Z" fill="#EF39A8"/>
    <path d="M15.9862 3.11041C23.1165 3.11041 28.8967 8.88442 28.8967 16.007C28.8967 23.1297 23.1165 28.9036 15.9862 28.9036C8.85596 28.9036 3.0757 23.1297 3.0757 16.007C3.0757 8.88442 8.85596 3.11041 15.9862 3.11041Z" fill="#BD399C"/>
    <path d="M15.9862 6.52417C21.2291 6.52417 25.4792 10.7697 25.4792 16.007C25.4792 21.2443 21.2291 25.4898 15.9862 25.4898C10.7434 25.4898 6.49327 21.2443 6.49327 16.007C6.49327 10.7697 10.7434 6.52417 15.9862 6.52417Z" fill="#93388E"/>
    <path d="M15.9102 9.40704C19.4752 9.40704 22.3654 12.294 22.3654 15.8553C22.3654 19.4165 19.4752 22.3036 15.9102 22.3036C12.3452 22.3036 9.45498 19.4165 9.45498 15.8553C9.45498 12.294 12.3452 9.40704 15.9102 9.40704Z" fill="#6030A2"/>
</svg>
