<svg width="28" height="27" viewBox="0 0 28 27" fill="none" xmlns="http://www.w3.org/2000/svg">
<path d="M23.95 12.6C23.9652 12.407 23.9652 12.213 23.95 12.02C23.9505 11.2077 23.7531 10.4075 23.3748 9.68865C22.9966 8.9698 22.4489 8.35392 21.7791 7.89431C21.1093 7.4347 20.3377 7.14518 19.5309 7.05082C18.7241 6.95646 17.9064 7.06008 17.1487 7.35273C16.3909 7.64538 15.7159 8.11824 15.1819 8.73041C14.648 9.34258 14.2712 10.0756 14.0843 10.8661C13.8973 11.6566 13.9057 12.4807 14.1089 13.2672C14.312 14.0537 14.7037 14.7789 15.25 15.38C14.5096 15.3717 13.7709 15.3082 13.04 15.19C12.63 15.12 11.5 14.8 10.32 14.44C10.7725 14.1139 11.1335 13.6769 11.3681 13.1709C11.6028 12.665 11.7034 12.1071 11.6601 11.5511C11.6168 10.995 11.4312 10.4595 11.121 9.99594C10.8108 9.5324 10.3866 9.15649 9.88909 8.90436C9.39159 8.65223 8.83759 8.53237 8.28036 8.55632C7.72314 8.58027 7.18146 8.74721 6.70743 9.04109C6.2334 9.33497 5.84297 9.7459 5.57372 10.2343C5.30446 10.7228 5.16544 11.2723 5.17001 11.83C5.16926 12.3041 5.27521 12.7724 5.48001 13.2C4.25737 13.2119 3.08954 13.7091 2.23343 14.5821C1.37733 15.455 0.90308 16.6324 0.915015 17.855C0.92695 19.0776 1.42409 20.2455 2.29707 21.1016C3.17005 21.9577 4.34737 22.4319 5.57001 22.42V22.42H22.21C23.4004 22.4187 24.5524 21.9985 25.4642 21.2331C26.3759 20.4677 26.9893 19.4059 27.1968 18.2337C27.4043 17.0615 27.1927 15.8537 26.599 14.8218C26.0054 13.79 25.0677 12.9999 23.95 12.59V12.6Z" fill="#E5E5E4"/>
<path d="M23.89 12.58C23.9 12.3901 23.9 12.1999 23.89 12.01C23.9111 11.1872 23.7286 10.3719 23.359 9.63658C22.9893 8.9012 22.4438 8.26846 21.771 7.79449C21.0981 7.32053 20.3186 7.02 19.5017 6.91959C18.6848 6.81917 17.8557 6.92197 17.0881 7.21886C16.3204 7.51576 15.6379 7.99756 15.1012 8.62152C14.5644 9.24547 14.19 9.99228 14.0111 10.7957C13.8323 11.5991 13.8545 12.4342 14.0759 13.2269C14.2972 14.0196 14.7108 14.7455 15.28 15.34C14.5493 15.3285 13.8206 15.2616 13.1 15.14C12.69 15.08 11.57 14.76 10.4 14.41C10.8909 14.0488 11.2691 13.5558 11.4909 12.9882C11.7127 12.4206 11.7688 11.8017 11.6528 11.2035C11.5368 10.6052 11.2534 10.0522 10.8356 9.60859C10.4178 9.165 9.88265 8.84908 9.2924 8.69755C8.70215 8.54601 8.08102 8.56508 7.50118 8.75254C6.92134 8.94 6.40659 9.28815 6.01676 9.75653C5.62692 10.2249 5.378 10.7943 5.29893 11.3986C5.21985 12.0028 5.31385 12.6171 5.57002 13.17C4.39597 13.2353 3.29228 13.7507 2.48846 14.6089C1.68465 15.4671 1.24257 16.6022 1.25416 17.778C1.26575 18.9538 1.73012 20.0799 2.5507 20.9221C3.37127 21.7643 4.48491 22.2578 5.66002 22.3H22.12C23.3118 22.3297 24.475 21.9327 25.3998 21.1804C26.3247 20.4281 26.9503 19.3702 27.1639 18.1973C27.3774 17.0244 27.1649 15.8139 26.5646 14.7839C25.9643 13.7539 25.0158 12.9723 23.89 12.58Z" fill="white"/>
<path d="M9.02003 15.86L8.51003 8.86L7.59003 15.91" fill="url(#paint0_linear)"/>
<path d="M20.17 16.15L20.25 7.81L21.7 16.48" fill="url(#paint1_linear)"/>
<path d="M20.6 3H17.83V5.34H15.68V3H13.15V5.33H11V3H8.21001L8.66001 5.32L8.17001 16.9C8.17001 16.9 9.62001 17.57 14.54 17.59C19.46 17.61 20.62 16.93 20.62 16.93L20.15 5.36L20.6 3Z" fill="url(#paint2_linear)"/>
<path d="M18.56 8.83H10.31C10.2825 9.38879 10.3688 9.94734 10.5637 10.4718C10.7586 10.9962 11.058 11.4756 11.4437 11.8808C11.8295 12.286 12.2935 12.6086 12.8077 12.8291C13.3219 13.0495 13.8756 13.1632 14.435 13.1632C14.9945 13.1632 15.5481 13.0495 16.0623 12.8291C16.5765 12.6086 17.0406 12.286 17.4263 11.8808C17.8121 11.4756 18.1115 10.9962 18.3064 10.4718C18.5012 9.94734 18.5875 9.38879 18.56 8.83V8.83Z" fill="white"/>
<path opacity="0.2" d="M14.45 13.06C15.5588 13.0416 16.6158 12.5875 17.3924 11.796C18.169 11.0044 18.6028 9.93892 18.6 8.83V8.83C18.6071 9.38885 18.4999 9.94325 18.285 10.4591C18.07 10.975 17.7518 11.4415 17.35 11.83C16.9734 12.2192 16.523 12.5294 16.025 12.7423C15.527 12.9553 14.9916 13.0667 14.45 13.07V13.07C13.899 13.0661 13.3542 12.9531 12.8471 12.7374C12.3401 12.5217 11.8808 12.2076 11.4958 11.8133C11.1108 11.4191 10.8078 10.9524 10.6043 10.4404C10.4008 9.92829 10.3007 9.38096 10.31 8.83V8.83C10.3151 9.93373 10.7524 10.9915 11.5282 11.7767C12.3039 12.5618 13.3564 13.0117 14.46 13.03L14.45 13.06Z" fill="#010101"/>
<path d="M14.43 12.47C15.3523 12.47 16.1 11.7223 16.1 10.8C16.1 9.87769 15.3523 9.13 14.43 9.13C13.5077 9.13 12.76 9.87769 12.76 10.8C12.76 11.7223 13.5077 12.47 14.43 12.47Z" fill="#383938"/>
<path d="M12.99 18.52C13.0308 17.8674 13.3188 17.2549 13.7953 16.8072C14.2719 16.3595 14.9011 16.1102 15.555 16.1102C16.2089 16.1102 16.8382 16.3595 17.3147 16.8072C17.7913 17.2549 18.0793 17.8674 18.12 18.52H12.99ZM16.75 18.92C16.75 18.2384 17.0208 17.5847 17.5028 17.1027C17.9847 16.6208 18.6384 16.35 19.32 16.35C20.0016 16.35 20.6553 16.6208 21.1373 17.1027C21.6193 17.5847 21.89 18.2384 21.89 18.92H16.75ZM20.03 16.83C20.03 16.1484 20.3008 15.4947 20.7828 15.0127C21.2647 14.5308 21.9184 14.26 22.6 14.26V19.4C21.9184 19.4 21.2647 19.1292 20.7828 18.6473C20.3008 18.1653 20.03 17.5116 20.03 16.83ZM6.68002 17.67C6.65813 17.3197 6.70824 16.9686 6.82724 16.6384C6.94625 16.3082 7.13163 16.0059 7.37196 15.7501C7.61229 15.4942 7.90247 15.2904 8.22461 15.151C8.54675 15.0117 8.89402 14.9398 9.24502 14.9398C9.59601 14.9398 9.94329 15.0117 10.2654 15.151C10.5876 15.2904 10.8777 15.4942 11.1181 15.7501C11.3584 16.0059 11.5438 16.3082 11.6628 16.6384C11.7818 16.9686 11.8319 17.3197 11.81 17.67H6.68002ZM9.20002 18.51C9.24079 17.8574 9.52877 17.2449 10.0053 16.7972C10.4819 16.3495 11.1111 16.1002 11.765 16.1002C12.4189 16.1002 13.0482 16.3495 13.5247 16.7972C14.0013 17.2449 14.2893 17.8574 14.33 18.51H9.20002Z" fill="white"/>
<defs>
<linearGradient id="paint0_linear" x1="9.34003" y1="12.61" x2="7.93003" y2="12.37" gradientUnits="userSpaceOnUse">
<stop stop-color="#020303"/>
<stop offset="0.08" stop-color="#383737"/>
<stop offset="0.17" stop-color="#666666"/>
<stop offset="0.26" stop-color="#8F8F8F"/>
<stop offset="0.35" stop-color="#B2B2B2"/>
<stop offset="0.45" stop-color="#CFCECE"/>
<stop offset="0.56" stop-color="#E4E4E3"/>
<stop offset="0.67" stop-color="#F3F3F3"/>
<stop offset="0.81" stop-color="#FDFDFD"/>
<stop offset="1" stop-color="white"/>
</linearGradient>
<linearGradient id="paint1_linear" x1="18.95" y1="12.55" x2="20.56" y2="12.23" gradientUnits="userSpaceOnUse">
<stop stop-color="#010101"/>
<stop offset="0.03" stop-color="#0A0B0B"/>
<stop offset="0.31" stop-color="#626161"/>
<stop offset="0.55" stop-color="#A5A4A4"/>
<stop offset="0.76" stop-color="#D6D6D6"/>
<stop offset="0.91" stop-color="#F4F3F4"/>
<stop offset="1" stop-color="white"/>
</linearGradient>
<linearGradient id="paint2_linear" x1="14.39" y1="17.46" x2="14.39" y2="3.04" gradientUnits="userSpaceOnUse">
<stop stop-color="#ED6E6E"/>
<stop offset="0.15" stop-color="#EF7C70"/>
<stop offset="0.48" stop-color="#F39675"/>
<stop offset="0.78" stop-color="#F5A677"/>
<stop offset="1" stop-color="#F6AC79"/>
</linearGradient>
</defs>
</svg>
