<svg width="210" height="210" viewBox="0 0 210 210" fill="none" xmlns="http://www.w3.org/2000/svg">
<rect width="210" height="210" fill="#FCC310"/>
<path fill-rule="evenodd" clip-rule="evenodd" d="M98.9748 147.385C37.0231 147.331 13.0611 93.4645 16.2844 52.5935L34.484 46.837C31.5188 70.0367 38.6858 86.7957 43.6858 94.4789C37.7794 61.6213 62.5457 35.0001 93.6086 35.0001C121.538 34.9521 144.636 55.4027 144.534 84.6409C148.639 73.4822 151.455 56.4471 152.037 44.5801L193.994 55.0305C190.651 104.233 153.712 147.385 98.9748 147.385ZM159.24 175.825L135.41 151.695H159.006L182.866 175.825H159.24ZM127.373 175.825L103.483 151.695H127.144L150.999 175.825H127.373ZM74.1544 175.825H50.4986L74.3585 151.695H98.0084L74.1544 175.825ZM18.6134 175.825L42.4972 151.695H66.1172L42.2633 175.825H18.6134ZM93.6806 52.1372C75.1749 52.1372 60.1627 67.1676 60.1627 85.6793C60.1627 104.185 75.1749 119.215 93.6806 119.215C112.24 119.215 127.246 104.185 127.246 85.6793C127.246 67.1676 112.24 52.1372 93.6806 52.1372Z" fill="#231F20"/>
</svg>
