<svg width="32" height="32" viewBox="0 0 32 32" fill="none" xmlns="http://www.w3.org/2000/svg">
<path d="M16.6906 2.64748C16.1151 1.03597 16 0 16 0C16 0 16 0 16 0.115108C16 0 16 0 16 0C16 0 15.8849 1.03597 15.3094 2.64748C13.3525 9.55396 7.59712 14.7338 0 16C7.48201 17.2662 13.3525 22.446 15.3094 29.3525C15.8849 30.964 16 32 16 32C16 32 16 32 16 31.8849C16 32 16 32 16 32C16 32 16.1151 30.964 16.6906 29.3525C18.6475 22.446 24.4029 17.2662 32 16C24.518 14.7338 18.6475 9.55396 16.6906 2.64748Z" fill="#3BD8A3"/>
</svg>
