<svg width="195" height="195" viewBox="0 0 195 195" fill="none" xmlns="http://www.w3.org/2000/svg">
<rect width="195" height="195" fill="#FFCC00"/>
<path d="M195 47H0V148H195V47Z" fill="#FFCC00"/>
<path d="M41.3993 106.919H0V115.018H35.4487L41.3993 106.919ZM0 130H24.4138L30.3376 121.957H0V130ZM52.4685 91.8922H0V99.98H46.506L52.4685 91.8922ZM122.322 89.169C120.315 91.886 116.952 96.619 114.907 99.379C113.869 100.779 111.992 103.335 118.213 103.335H149.751C149.751 103.335 155.026 96.1552 159.45 90.1541C165.467 81.9877 159.97 65 138.462 65H53.7609L39.0756 84.9525H120.307C124.352 84.9525 124.299 86.4894 122.322 89.169V89.169ZM166.902 91.8927L160.979 99.936H195V91.8927H166.902ZM144.582 110.274H108.24L94.44 110.273C88.22 110.273 90.0972 107.717 91.1353 106.314C93.1805 103.552 96.623 98.8267 98.6307 96.1066C100.607 93.4271 101.833 91.8917 97.7862 91.8917H61.1823L33.1328 130H105.063C126.393 130 139.231 116.978 144.582 110.274ZM149.917 114.973H195V106.875H155.868L149.917 114.973ZM138.875 130H195V121.912H144.818L138.875 130Z" fill="#D40511"/>
</svg>
