<svg width="32" height="32" viewBox="0 0 32 32" fill="none" xmlns="http://www.w3.org/2000/svg">
<path opacity="0.12793" fill-rule="evenodd" clip-rule="evenodd" d="M8.76193 23.619H22.0953V8.38092H8.76193V23.619ZM26.3426 25.703C23.847 28.1117 20.1879 29.3333 15.4661 29.3333H8.60803V24.8324H23.271V6.78732H7.25439V23.4886H1.52384V2.28568H15.4661C20.1865 2.28568 23.8456 3.50722 26.3426 5.916C28.8324 8.31977 30.0953 11.6485 30.0953 15.8084C30.0953 19.9712 28.8331 23.2999 26.3426 25.703ZM15.657 1.14282H0.380981V25.0165H7.45595V30.8571H15.657C20.7366 30.8571 24.7088 29.5086 27.4621 26.8501C30.2205 24.1858 31.6191 20.5352 31.6191 15.9989C31.6191 11.4654 30.2205 7.81551 27.4621 5.14987C24.7073 2.49136 20.7352 1.14282 15.657 1.14282Z" fill="black"/>
<path d="M15.507 1.14282H0.380981V25.0236H7.33896V30.8571H15.4465C20.4684 30.8571 24.4011 29.5203 27.1238 26.8466C29.8465 24.1729 31.2381 20.527 31.2381 16.0304C31.2381 11.473 29.8465 7.82701 27.1238 5.2141C24.4617 2.47966 20.5289 1.14282 15.507 1.14282ZM26.2163 25.8136C23.7356 28.2442 20.1659 29.4595 15.507 29.4595H8.79108V25.0844H23.2516V6.97631H7.39946V23.626H1.83308V2.60119H15.507C20.1659 2.60119 23.7356 3.8165 26.2163 6.18637C28.6364 8.55619 29.907 11.8983 29.907 16.0304C29.8465 20.1624 28.6364 23.4437 26.2163 25.8136ZM8.79108 23.626V8.43467H21.7995V23.626H8.79108Z" fill="black"/>
</svg>
