<svg width="32" height="32" viewBox="0 0 32 32" fill="none" xmlns="http://www.w3.org/2000/svg">
<path d="M5.11149 31.8623V31.8412H4.9214V31.8201H4.79467V31.7989H4.64682V31.7778H4.52009V31.7567H4.41448V31.7356H4.35112V31.7145H4.26663V31.6933H4.18214V31.6722H4.09766V31.6511H4.01317V31.63H3.94981V31.6088H3.88644V31.5877H3.8442V31.5666H3.78083V31.5455H3.71747V31.5244H3.6541V31.5032H3.61186V31.4821H3.5485V31.461H3.48513V31.4399H3.44289V31.4188H3.40065V31.3976H3.3584V31.3765H3.31616V31.3554H3.27392V31.3343H3.23167V31.3131H3.18943V31.292H3.14719V31.2709H3.10494V31.2498H3.0627V31.2287H3.02046V31.2075H2.97821V31.1864H2.95709V31.1653H2.91485V31.1442H2.87261V31.123H2.85148V31.1019H2.80924V31.0808H2.78812V31.0597H2.74588V31.0386H2.70363V31.0174H2.68251V30.9963H2.64027V30.9752H2.59803V30.9541H2.5769V30.933H2.55578V30.9118H2.51354V30.8907H2.49242V30.8696H2.4713V30.8485H2.42905V30.8273H2.40793V30.8062H2.38681V30.7851H2.34457V30.764H2.32344V30.7429H2.30232V30.7217H2.26008V30.7006H2.23896V30.6795H2.21784V30.6584H2.19672V30.6373H2.17559V30.6161H2.13335V30.595H2.11223V30.5739H2.09111V30.5528H2.06999V30.5316H2.04886V30.5105H2.02774V30.4894H2.00662V30.4683H1.9855V30.4472H1.96438V30.426H1.94326V30.4049H1.92213V30.3838H1.87989V30.3627H1.85877V30.3416H1.83765V30.3204H1.81653V30.2993H1.79541V30.2782H1.77428V30.2359H1.75316V30.2148H1.73204V30.1937H1.71092V30.1726H1.6898V30.1515H1.66868V30.1303H1.64755V30.1092H1.62643V30.0881H1.60531V30.067H1.58419V30.0247H1.56307V30.0036H1.54195V29.9825H1.52082V29.9614H1.4997V29.9402H1.47858V29.9191H1.45746V29.8769H1.43634V29.8558H1.41522V29.8346H1.3941V29.7924H1.37297V29.7713H1.35185V29.7501H1.33073V29.7079H1.30961V29.6868H1.28849V29.6445H1.26737V29.6234H1.24624V29.6023H1.22512V29.5601H1.204V29.5389H1.18288V29.4967H1.16176V29.4756H1.14064V29.4333H1.11951V29.3911H1.09839V29.37H1.07727V29.3277H1.05615V29.2855H1.03503V29.2643H1.01391V29.2221H0.992785V29.201H0.971664V29.1587H0.950542V29.1165H0.92942V29.0743H0.908299V29.032H0.887177V28.9898H0.866056V28.9475H0.844934V28.9053H0.823813V28.863H0.802691V28.8208H0.781569V28.7786H0.760448V28.7363H0.739326V28.6729H0.718205V28.6307H0.697083V28.5673H0.675961V28.5251H0.65484V28.4617H0.633718V28.3984H0.612597V28.335H0.591475V28.2928H0.570354V28.2294H0.549232V28.166H0.52811V28.0815H0.506989V27.9971H0.485867V27.9126H0.464746V27.8281H0.443624V27.7436H0.422502V27.6802H0.401381V27.5324H0.380259V27.3845H0.359138V27.2578H0.338016V27.0677H0.316895V9.76913H0.338016V9.51567H0.359138V9.41006H0.380259V9.30445H0.401381V9.17772H0.422502V9.07212H0.443624V8.96651H0.464746V8.8609H0.485867V8.77641H0.506989V8.71305H0.52811V8.67081H0.549232V8.60744H0.570354V8.54408H0.591475V8.48071H0.612597V8.41735H0.633718V8.35398H0.65484V8.29062H0.675961V8.22725H0.697083V8.16389H0.718205V8.12164H0.739326V8.0794H0.760448V8.03716H0.781569V7.97379H0.802691V7.93155H0.823813V7.88931H0.844934V7.84706H0.866056V7.80482H0.887177V7.76258H0.908299V7.72033H0.92942V7.67809H0.950542V7.63585H0.971664V7.5936H0.992785V7.55136H1.01391V7.53024H1.03503V7.488H1.05615V7.44575H1.07727V7.42463H1.09839V7.38239H1.11951V7.36127H1.14064V7.31902H1.16176V7.2979H1.18288V7.25566H1.204V7.23454H1.22512V7.19229H1.24624V7.17117H1.26737V7.12893H1.28849V7.10781H1.30961V7.06557H1.33073V7.04444H1.35185V7.02332H1.37297V7.0022H1.3941V6.95996H1.41522V6.93884H1.43634V6.91771H1.45746V6.89659H1.47858V6.85435H1.4997V6.83323H1.52082V6.81211H1.54195V6.79098H1.56307V6.74874H1.58419V6.72762H1.60531V6.7065H1.62643V6.68538H1.64755V6.66426H1.66868V6.64313H1.6898V6.62201H1.71092V6.60089H1.73204V6.57977H1.75316V6.55865H1.77428V6.53753H1.79541V6.5164H1.81653V6.49528H1.83765V6.47416H1.85877V6.43192H1.87989V6.4108H1.90101V6.38967H1.92213V6.36855H1.94326V6.34743H1.96438V6.32631H1.9855V6.30519H2.00662V6.28407H2.04886V6.26295H2.06999V6.24182H2.09111V6.2207H2.11223V6.19958H2.13335V6.17846H2.17559V6.15734H2.19672V6.13622H2.21784V6.11509H2.23896V6.09397H2.26008V6.07285H2.30232V6.05173H2.32344V6.03061H2.34457V6.00949H2.36569V5.98836H2.38681V5.96724H2.42905V5.94612H2.45017V5.925H2.49242V5.90388H2.51354V5.88276H2.55578V5.86163H2.5769V5.84051H2.61915V5.81939H2.64027V5.79827H2.68251V5.77715H2.70363V5.75603H2.74588V5.73491H2.767V5.71378H2.80924V5.69266H2.83036V5.67154H2.87261V5.65042H2.91485V5.6293H2.95709V5.60818H2.97821V5.58705H3.02046V5.56593H3.0627V5.54481H3.10494V5.52369H3.14719V5.50257H3.18943V5.48145H3.21055V5.46032H3.25279V5.4392H3.29504V5.41808H3.3584V5.39696H3.40065V5.37584H3.44289V5.35472H3.50625V5.3336H3.5485V5.31247H3.59074V5.29135H3.6541V5.27023H3.69635V5.24911H3.75971V5.22799H3.82308V5.20687H3.88644V5.18574H3.94981V5.16462H4.01317V5.1435H4.07654V5.12238H4.16102V5.10126H4.22439V5.08014H4.33V5.05901H4.41448V5.03789H4.52009V5.01677H4.60458V4.99565H4.71018V4.97453H4.90028V4.95341H5.06925V4.93229H5.42832V4.91116H5.80851V4.93229H6.10421V4.95341H6.2943V4.97453H6.42103V4.99565H6.54776V5.01677H6.65337V5.03789H6.7801V5.05901H6.84346V5.08014H6.92795V5.10126H6.99132V5.12238H7.0758V5.1435H7.16029V5.16462H7.22365V5.18574H7.28702V5.20687H7.35038V5.22799H7.39263V5.24911H7.45599V5.27023H7.49823V5.29135H7.5616V5.31247H7.60384V5.3336H7.66721V5.35472H7.73057V5.37584H7.77281V5.39696H7.81506V5.41808H7.8573V5.4392H7.89954V5.46032H7.94179V5.48145H7.98403V5.50257H8.02627V5.52369H8.06852V5.54481H8.11076V5.56593H8.153V5.58705H8.19525V5.60818H8.21637V5.6293H8.25861V5.65042H8.30085V5.67154H8.32197V5.69266H8.36422V5.71378H8.40646V5.73491H8.4487V5.75603H8.46983V5.77715H8.51207V5.79827H8.55431V5.81939H8.59656V5.84051H8.61768V5.86163H8.65992V5.88276H8.70216V5.90388H8.72328V5.925H8.76553V5.94612H8.80777V5.96724H8.85001V5.98836H8.87114V6.00949H8.91338V6.03061H8.95562V6.05173H8.99787V6.07285H9.01899V6.09397H9.06123V6.11509H9.10347V6.13622H9.14572V6.15734H9.16684V6.17846H9.20908V6.19958H9.25132V6.2207H9.27245V6.24182H9.31469V6.26295H9.35693V6.28407H9.39918V6.30519H9.4203V6.32631H9.46254V6.34743H9.50478V6.36855H9.54703V6.38967H9.56815V6.4108H9.61039V6.43192H9.65263V6.45304H9.67376V6.47416H9.716V6.49528H9.75824V6.5164H9.80049V6.53753H9.82161V6.55865H9.86385V6.57977H9.90609V6.60089H9.94834V6.62201H9.96946V6.64313H10.0117V6.66426H10.0539V6.68538H10.0962V6.7065H10.1173V6.72762H10.1596V6.74874H10.2018V6.76986H10.2229V6.79098H10.2652V6.81211H10.3074V6.83323H10.3496V6.85435H10.3708V6.87547H10.413V6.89659H10.4553V6.91771H10.4975V6.93884H10.5186V6.95996H10.5609V6.98108H10.6031V7.0022H10.6242V7.02332H10.6665V7.04444H10.7087V7.06557H10.751V7.08669H10.7721V7.10781H10.8143V7.12893H10.8566V7.15005H10.8988V7.17117H10.9199V7.19229H10.9622V7.21342H11.0044V7.23454H11.0467V7.25566H11.0678V7.27678H11.11V7.2979H11.1523V7.31902H11.1734V7.34015H11.2156V7.36127H11.2579V7.38239H11.3001V7.40351H11.3212V7.42463H11.3635V7.44575H11.4057V7.46688H11.448V7.488H11.4691V7.50912H11.5113V7.53024H11.5536V7.55136H11.5747V7.57248H11.6169V7.5936H11.6592V7.61473H11.7014V7.63585H11.7225V7.65697H11.7648V7.67809H11.7859V7.65697H11.8282V7.63585H11.8704V7.61473H11.9126V7.5936H11.9338V7.57248H11.976V7.55136H12.0183V7.53024H12.0605V7.50912H12.0816V7.488H12.1239V7.46688H12.1661V7.44575H12.1872V7.42463H12.2295V7.40351H12.2717V7.38239H12.314V7.36127H12.3351V7.34015H12.3773V7.31902H12.4196V7.2979H12.4618V7.27678H12.4829V7.25566H12.5252V7.23454H12.5674V7.21342H12.5885V7.19229H12.6308V7.17117H12.673V7.15005H12.7153V7.12893H12.7364V7.10781H12.7786V7.08669H12.8209V7.06557H12.8631V7.04444H12.8842V7.02332H12.9265V7.0022H12.9687V6.98108H13.011V6.95996H13.0321V6.93884H13.0743V6.91771H13.1166V6.89659H13.1377V6.87547H13.1799V6.85435H13.2222V6.83323H13.2644V6.81211H13.2855V6.79098H13.3278V6.76986H13.37V6.74874H13.4123V6.72762H13.4334V6.7065H13.4756V6.68538H13.5179V6.66426H13.5601V6.64313H13.5812V6.62201H13.6235V6.60089H13.6657V6.57977H13.6869V6.55865H13.7291V6.53753H13.7713V6.5164H13.8136V6.49528H13.8347V6.47416H13.877V6.45304H13.9192V6.43192H13.9614V6.4108H13.9826V6.38967H14.0248V6.36855H14.067V6.34743H14.1093V6.32631H14.1304V6.30519H14.1727V6.28407H14.2149V6.26295H14.236V6.24182H14.2783V6.2207H14.3205V6.19958H14.3627V6.17846H14.3839V6.15734H14.4261V6.13622H14.4684V6.11509H14.5106V6.09397H14.5317V6.07285H14.574V6.05173H14.6162V6.03061H14.6373V6.00949H14.6796V5.98836H14.7218V5.96724H14.7641V5.94612H14.7852V5.925H14.8274V5.90388H14.8697V5.88276H14.9119V5.86163H14.933V5.84051H14.9753V5.81939H15.0175V5.79827H15.0598V5.77715H15.0809V5.75603H15.1231V5.73491H15.1654V5.71378H15.1865V5.69266H15.2287V5.67154H15.271V5.65042H15.3132V5.6293H15.3343V5.60818H15.3766V5.58705H15.4188V5.56593H15.4611V5.54481H15.4822V5.52369H15.5244V5.50257H15.5667V5.48145H15.6089V5.46032H15.63V5.4392H15.6723V5.41808H15.7145V5.39696H15.7357V5.37584H15.7779V5.35472H15.8201V5.3336H15.8624V5.31247H15.8835V5.29135H15.9257V5.27023H15.968V5.24911H16.0102V5.22799H16.0314V5.20687H16.0736V5.18574H16.1158V5.16462H16.137V5.1435H16.1792V5.12238H16.2214V5.10126H16.2637V5.08014H16.2848V5.05901H16.3271V5.03789H16.3693V5.01677H16.4115V4.99565H16.4327V4.97453H16.4749V4.95341H16.5171V4.93229H16.5594V4.91116H16.5805V4.89004H16.6228V4.86892H16.665V4.8478H16.6861V4.82668H16.7284V4.80556H16.7706V4.78443H16.8129V4.76331H16.834V4.74219H16.8762V4.72107H16.9185V4.69995H16.9607V4.67883H16.9818V4.6577H17.0241V4.63658H17.0663V4.61546H17.1086V4.59434H17.1297V4.57322H17.1719V4.5521H17.2142V4.53098H17.2353V4.50985H17.2775V4.48873H17.3198V4.46761H17.362V4.44649H17.3831V4.42537H17.4254V4.40425H17.4676V4.38312H17.5099V4.362H17.531V4.34088H17.5732V4.31976H17.6155V4.29864H17.6577V4.27752H17.6788V4.25639H17.7211V4.23527H17.7633V4.21415H17.7844V4.19303H17.8267V4.17191H17.8689V4.15079H17.9112V4.12967H17.9323V4.10854H17.9745V4.08742H18.0168V4.0663H18.059V4.04518H18.0801V4.02406H18.1224V4.00294H18.1646V3.98181H18.1858V3.96069H18.228V3.93957H18.2702V3.91845H18.3125V3.89733H18.3336V3.87621H18.3758V3.85508H18.4181V3.83396H18.4603V3.81284H18.4815V3.79172H18.5237V3.7706H18.5659V3.74948H18.6082V3.72835H18.6293V3.70723H18.6716V3.68611H18.7138V3.66499H18.7349V3.64387H18.7772V3.62275H18.8194V3.60163H18.8616V3.5805H18.8828V3.55938H18.925V3.53826H18.9673V3.51714H19.0095V3.49602H19.0306V3.4749H19.0729V3.45377H19.1151V3.43265H19.1573V3.41153H19.1785V3.39041H19.2207V3.36929H19.263V3.34817H19.2841V3.32704H19.3263V3.30592H19.3686V3.2848H19.4108V3.26368H19.4319V3.24256H19.4742V3.22144H19.5164V3.20032H19.5587V3.17919H19.5798V3.15807H19.622V3.13695H19.6643V3.11583H19.6854V3.09471H19.7276V3.07359H19.7699V3.05246H19.8121V3.03134H19.8332V3.01022H19.8755V2.9891H19.9177V2.96798H19.96V2.94686H19.9811V2.92573H20.0233V2.90461H20.0656V2.88349H20.1078V2.86237H20.1289V2.84125H20.1712V2.82013H20.2134V2.79901H20.2345V2.77788H20.2768V2.75676H20.319V2.73564H20.3613V2.71452H20.3824V2.6934H20.4246V2.67228H20.4669V2.65115H20.5091V2.63003H20.5303V2.60891H20.5725V2.58779H20.6147V2.56667H20.657V2.54555H20.6781V2.52442H20.7203V2.5033H20.7626V2.48218H20.7837V2.46106H20.826V2.43994H20.8682V2.41882H20.9104V2.3977H20.9316V2.37657H20.9738V2.35545H21.016V2.33433H21.0583V2.31321H21.0794V2.29209H21.1217V2.27097H21.1639V2.24984H21.2061V2.22872H21.2273V2.2076H21.2695V2.18648H21.3117V2.16536H21.3329V2.14424H21.3751V2.12311H21.4174V2.10199H21.4596V2.08087H21.4807V2.05975H21.523V2.03863H21.5652V2.01751H21.6075V1.99639H21.6286V1.97526H21.6708V1.95414H21.7131V1.93302H21.7342V1.9119H21.7764V1.89078H21.8187V1.86966H21.8609V1.84853H21.882V1.82741H21.9243V1.80629H21.9665V1.78517H22.0088V1.76405H22.0299V1.74293H22.0721V1.7218H22.1144V1.70068H22.1566V1.67956H22.1777V1.65844H22.22V1.63732H22.2622V1.6162H22.2833V1.59507H22.3256V1.57395H22.3678V1.55283H22.4101V1.53171H22.4312V1.51059H22.4734V1.48947H22.5157V1.46835H22.5579V1.44722H22.579V1.4261H22.6213V1.40498H22.6635V1.38386H22.7058V1.36274H22.7269V1.34162H22.7691V1.32049H22.8114V1.29937H22.8325V1.27825H22.8747V1.25713H22.917V1.23601H22.9592V1.21489H22.9804V1.19376H23.0226V1.17264H23.0648V1.15152H23.1071V1.1304H23.1282V1.10928H23.1704V1.08816H23.2127V1.06704H23.2549V1.04591H23.2761V1.02479H23.3183V1.00367H23.3605V0.982549H23.3817V0.961427H23.4239V0.940306H23.4662V0.919184H23.5084V0.898063H23.5295V0.876941H23.5718V0.85582H23.614V0.834698H23.6562V0.813576H23.6774V0.792455H23.7196V0.771333H23.7619V0.750212H23.8041V0.72909H23.8463V0.707968H23.8886V0.686847H23.9308V0.665725H23.9731V0.644604H24.0364V0.623482H24.0787V0.602361H24.1209V0.581239H24.1632V0.560117H24.2054V0.538996H24.2688V0.517874H24.3321V0.496753H24.3955V0.475631H24.4589V0.454509H24.5222V0.433388H24.5856V0.412266H24.6278V0.391145H24.6912V0.370023H24.7546V0.348902H24.8179V0.32778H24.9024V0.306658H25.008V0.285537H25.1136V0.264415H25.2192V0.243294H25.3248V0.222172H25.4305V0.20105H25.5361V0.179929H25.8318V0.158807H26.6555V0.179929H26.9512V0.20105H27.0568V0.222172H27.1624V0.243294H27.268V0.264415H27.3736V0.285537H27.4793V0.306658H27.5849V0.32778H27.6482V0.348902H27.7116V0.370023H27.775V0.391145H27.8383V0.412266H27.9017V0.433388H27.965V0.454509H28.0284V0.475631H28.0918V0.496753H28.1551V0.517874H28.2185V0.538996H28.2608V0.560117H28.303V0.581239H28.3664V0.602361H28.4086V0.623482H28.4508V0.644604H28.4931V0.665725H28.5353V0.686847H28.5776V0.707968H28.6198V0.72909H28.6832V0.750212H28.7254V0.771333H28.7465V0.792455H28.7888V0.813576H28.831V0.834698H28.8733V0.85582H28.8944V0.876941H28.9366V0.898063H28.9789V0.919184H29V0.940306H29.0422V0.961427H29.0845V0.982549H29.1056V1.00367H29.1479V1.02479H29.169V1.04591H29.2112V1.06704H29.2323V1.08816H29.2746V1.10928H29.2957V1.1304H29.338V1.15152H29.3591V1.17264H29.3802V1.19376H29.4224V1.21489H29.4436V1.23601H29.4858V1.25713H29.5069V1.27825H29.528V1.29937H29.5492V1.32049H29.5914V1.34162H29.6125V1.36274H29.6337V1.38386H29.6548V1.40498H29.697V1.4261H29.7181V1.44722H29.7393V1.46835H29.7604V1.48947H29.7815V1.51059H29.8026V1.53171H29.8237V1.55283H29.8449V1.57395H29.8871V1.59507H29.9082V1.6162H29.9294V1.63732H29.9505V1.65844H29.9716V1.67956H29.9927V1.70068H30.0138V1.7218H30.035V1.74293H30.0561V1.76405H30.0772V1.78517H30.0983V1.80629H30.1194V1.82741H30.1406V1.86966H30.1617V1.89078H30.1828V1.9119H30.2039V1.93302H30.2251V1.95414H30.2462V1.97526H30.2673V1.99639H30.2884V2.01751H30.3095V2.05975H30.3307V2.08087H30.3518V2.10199H30.3729V2.12311H30.394V2.14424H30.4152V2.18648H30.4363V2.2076H30.4574V2.22872H30.4785V2.27097H30.4996V2.29209H30.5208V2.31321H30.5419V2.35545H30.563V2.37657H30.5841V2.3977H30.6052V2.43994H30.6264V2.46106H30.6475V2.5033H30.6686V2.52442H30.6897V2.56667H30.7109V2.58779H30.732V2.63003H30.7531V2.67228H30.7742V2.6934H30.7953V2.73564H30.8165V2.75676H30.8376V2.79901H30.8587V2.84125H30.8798V2.88349H30.9009V2.92573H30.9221V2.96798H30.9432V2.9891H30.9643V3.03134H30.9854V3.07359H31.0066V3.11583H31.0277V3.15807H31.0488V3.22144H31.0699V3.26368H31.091V3.30592H31.1122V3.34817H31.1333V3.39041H31.1544V3.45377H31.1755V3.51714H31.1967V3.55938H31.2178V3.62275H31.2389V3.68611H31.26V3.72835H31.2811V3.81284H31.3023V3.87621H31.3234V3.93957H31.3445V4.00294H31.3656V4.08742H31.3867V4.19303H31.4079V4.27752H31.429V4.362H31.4501V4.48873H31.4712V4.61546H31.4924V4.74219H31.5135V4.95341H31.5346V5.29135H31.5557V22.0408H31.5346V22.2731H31.5135V22.5266H31.4924V22.6322H31.4712V22.7378H31.4501V22.8434H31.429V22.949H31.4079V23.0546H31.3867V23.1602H31.3656V23.2447H31.3445V23.3081H31.3234V23.3714H31.3023V23.4348H31.2811V23.4982H31.26V23.5615H31.2389V23.6249H31.2178V23.6883H31.1967V23.7516H31.1755V23.815H31.1544V23.8783H31.1333V23.9206H31.1122V23.9628H31.091V24.0051H31.0699V24.0473H31.0488V24.0896H31.0277V24.1529H31.0066V24.1952H30.9854V24.2374H30.9643V24.2797H30.9432V24.3219H30.9221V24.3641H30.9009V24.4064H30.8798V24.4275H30.8587V24.4698H30.8376V24.512H30.8165V24.5542H30.7953V24.5754H30.7742V24.6176H30.7531V24.6598H30.732V24.681H30.7109V24.7021H30.6897V24.7443H30.6686V24.7655H30.6475V24.8077H30.6264V24.8288H30.6052V24.8711H30.5841V24.8922H30.563V24.9344H30.5419V24.9555H30.5208V24.9767H30.4996V25.0189H30.4785V25.04H30.4574V25.0612H30.4363V25.0823H30.4152V25.1245H30.394V25.1456H30.3729V25.1668H30.3518V25.1879H30.3307V25.2301H30.3095V25.2512H30.2884V25.2724H30.2673V25.2935H30.2462V25.3357H30.2251V25.3569H30.2039V25.378H30.1828V25.3991H30.1617V25.4202H30.1406V25.4413H30.1194V25.4625H30.0983V25.4836H30.0772V25.5047H30.0561V25.5258H30.035V25.547H30.0138V25.5681H29.9927V25.5892H29.9716V25.6103H29.9505V25.6314H29.9294V25.6526H29.9082V25.6737H29.8871V25.6948H29.866V25.7159H29.8449V25.737H29.8237V25.7582H29.8026V25.7793H29.7815V25.8004H29.7393V25.8215H29.7181V25.8427H29.697V25.8638H29.6759V25.8849H29.6548V25.906H29.6125V25.9271H29.5914V25.9483H29.5703V25.9694H29.5492V25.9905H29.528V26.0116H29.4858V26.0327H29.4647V26.0539H29.4436V26.075H29.4224V26.0961H29.3802V26.1172H29.3591V26.1384H29.3168V26.1595H29.2957V26.1806H29.2535V26.2017H29.2323V26.2228H29.1901V26.244H29.169V26.2651H29.1267V26.2862H29.1056V26.3073H29.0634V26.3284H29.0422V26.3496H29V26.3707H28.9578V26.3918H28.9155V26.4129H28.8944V26.4341H28.8522V26.4552H28.8099V26.4763H28.7677V26.4974H28.7254V26.5185H28.7043V26.5397H28.6621V26.5608H28.6198V26.5819H28.5776V26.603H28.5353V26.6242H28.472V26.6453H28.4297V26.6664H28.3875V26.6875H28.3241V26.7086H28.2819V26.7298H28.2396V26.7509H28.1763V26.772H28.134V26.7931H28.0707V26.8142H28.0073V26.8354H27.9439V26.8565H27.8594V26.8776H27.7961V26.8987H27.7327V26.9199H27.6693V26.941H27.5849V26.9621H27.5004V26.9832H27.3948V27.0043H27.2892V27.0255H27.2047V27.0466H27.0568V27.0677H26.8878V27.0888H26.6978V27.1099H25.874V27.0888H25.5994V27.0677H25.4727V27.0466H25.3671V27.0255H25.2404V27.0043H25.1136V26.9832H25.0291V26.9621H24.9658V26.941H24.8813V26.9199H24.8179V26.8987H24.7334V26.8776H24.649V26.8565H24.5856V26.8354H24.5434V26.8142H24.48V26.7931H24.4166V26.772H24.3744V26.7509H24.311V26.7298H24.2688V26.7086H24.2054V26.6875H24.1632V26.6664H24.0998V26.6453H24.0576V26.6242H24.0153V26.603H23.9731V26.5819H23.9308V26.5608H23.8886V26.5397H23.8463V26.5185H23.8041V26.4974H23.7619V26.4763H23.7196V26.4552H23.6774V26.4341H23.6562V26.4129H23.614V26.3918H23.5718V26.3707H23.5295V26.3496H23.5084V26.3284H23.4662V26.3073H23.4239V26.2862H23.3817V26.2651H23.3605V26.244H23.3183V26.2228H23.2761V26.2017H23.2549V26.1806H23.2127V26.1595H23.1704V26.1384H23.1282V26.1172H23.1071V26.0961H23.0648V26.075H23.0226V26.0539H22.9804V26.0327H22.9592V26.0116H22.917V25.9905H22.8747V25.9694H22.8325V25.9483H22.8114V25.9271H22.7691V25.906H22.7269V25.8849H22.7058V25.8638H22.6635V25.8427H22.6213V25.8215H22.579V25.8004H22.5579V25.7793H22.5157V25.7582H22.4734V25.737H22.4312V25.7159H22.4101V25.6948H22.3678V25.6737H22.3256V25.6526H22.3045V25.6314H22.2622V25.6103H22.22V25.5892H22.1777V25.5681H22.1566V25.547H22.1144V25.5258H22.0721V25.5047H22.0299V25.4836H22.0088V25.4625H21.9665V25.4413H21.9243V25.4202H21.882V25.3991H21.8609V25.378H21.8187V25.3569H21.7764V25.3357H21.7553V25.3146H21.7342V25.2935H21.7764V25.2724H21.8187V25.2512H21.8609V25.2301H21.882V25.209H21.9243V25.1879H21.9665V25.1668H21.9876V25.1456H22.0299V25.1245H22.0721V25.1034H22.1144V25.0823H22.1355V25.0612H22.1777V25.04H22.22V25.0189H22.2622V24.9978H22.2833V24.9767H22.3256V24.9555H22.3678V24.9344H22.3889V24.9133H22.4312V24.8922H22.4734V24.8711H22.5157V24.8499H22.5368V24.8288H22.579V24.8077H22.6213V24.7866H22.6635V24.7655H22.6847V24.7443H22.7269V24.7232H22.7691V24.7021H22.7903V24.681H22.8325V24.6598H22.8747V24.6387H22.917V24.6176H22.9381V24.5965H22.9804V24.5754H23.0226V24.5542H23.0437V24.5331H23.086V24.512H23.1282V24.4909H23.1704V24.4698H23.1916V24.4486H23.2338V24.4275H23.2761V24.4064H23.3183V24.3853H23.3394V24.3641H23.3817V24.343H23.4239V24.3219H23.445V24.3008H23.4873V24.2797H23.5295V24.2585H23.5718V24.2374H23.5929V24.2163H23.6351V24.1952H23.6774V24.174H23.7196V24.1529H23.7407V24.1318H23.783V24.1107H23.8252V24.0896H23.8463V24.0684H23.8886V24.0473H23.9308V24.0262H23.9731V24.0051H23.9942V23.984H24.0364V23.9628H24.0787V23.9417H24.1209V23.9206H24.142V23.8995H24.1843V23.8783H24.2265V23.8572H24.2476V23.8361H24.2899V23.815H24.3321V23.7939H24.4166V23.815H24.4377V23.8361H24.48V23.8572H24.5222V23.8783H24.5645V23.8995H24.5856V23.9206H24.6278V23.9417H24.6701V23.9628H24.6912V23.984H24.7334V24.0051H24.7757V24.0262H24.8179V24.0473H24.8391V24.0684H24.8813V24.0896H24.9235V24.1107H24.9658V24.1318H24.9869V24.1529H25.0291V24.174H25.0714V24.1952H25.1136V24.2163H25.1559V24.2374H25.1981V24.2585H25.2404V24.2797H25.3037V24.3008H25.3671V24.3219H25.4305V24.343H25.4938V24.3641H25.5572V24.3853H25.6206V24.4064H25.7262V24.4275H25.8318V24.4486H25.9585V24.4698H26.212V24.4909H26.2542V24.4698H26.571V24.4486H26.6978V24.4275H26.8245V24.4064H26.909V24.3853H26.9935V24.3641H27.0568V24.343H27.1202V24.3219H27.1835V24.3008H27.2258V24.2797H27.2892V24.2585H27.3314V24.2374H27.3736V24.2163H27.4159V24.1952H27.4581V24.174H27.5004V24.1529H27.5426V24.1318H27.5849V24.1107H27.606V24.0896H27.6482V24.0684H27.6693V24.0473H27.7116V24.0262H27.7538V24.0051H27.775V23.984H27.7961V23.9628H27.8172V23.9417H27.8594V23.9206H27.8806V23.8995H27.9017V23.8783H27.9439V23.8572H27.965V23.8361H27.9862V23.815H28.0073V23.7939H28.0284V23.7727H28.0495V23.7516H28.0707V23.7305H28.0918V23.7094H28.1129V23.6883H28.134V23.6671H28.1551V23.646H28.1763V23.6249H28.1974V23.6038H28.2185V23.5826H28.2396V23.5615H28.2608V23.5193H28.2819V23.4982H28.303V23.477H28.3241V23.4559H28.3452V23.4137H28.3664V23.3925H28.3875V23.3503H28.4086V23.3292H28.4297V23.3081H28.4508V23.2658H28.472V23.2236H28.4931V23.2025H28.5142V23.1602H28.5353V23.118H28.5565V23.0968H28.5776V23.0546H28.5987V22.9912H28.6198V22.949H28.6409V22.9068H28.6621V22.8645H28.6832V22.8011H28.7043V22.7378H28.7254V22.6955H28.7465V22.6322H28.7677V22.5477H28.7888V22.4632H28.8099V22.3787H28.831V22.2309H28.8522V22.0408H28.8733V5.27023H28.8522V5.05901H28.831V4.95341H28.8099V4.8478H28.7888V4.74219H28.7677V4.67883H28.7465V4.61546H28.7254V4.5521H28.7043V4.48873H28.6832V4.42537H28.6621V4.38312H28.6409V4.34088H28.6198V4.29864H28.5987V4.25639H28.5776V4.21415H28.5565V4.17191H28.5353V4.12967H28.5142V4.08742H28.4931V4.04518H28.472V4.02406H28.4508V3.98181H28.4297V3.96069H28.4086V3.93957H28.3875V3.89733H28.3664V3.87621H28.3452V3.83396H28.3241V3.81284H28.303V3.79172H28.2819V3.7706H28.2608V3.74948H28.2396V3.70723H28.2185V3.68611H28.1974V3.66499H28.1763V3.64387H28.1551V3.62275H28.134V3.60163H28.1129V3.5805H28.0918V3.55938H28.0707V3.53826H28.0495V3.51714H28.0284V3.49602H28.0073V3.4749H27.9862V3.45377H27.965V3.43265H27.9228V3.41153H27.9017V3.39041H27.8806V3.36929H27.8594V3.34817H27.8172V3.32704H27.7961V3.30592H27.775V3.2848H27.7327V3.26368H27.7116V3.24256H27.6693V3.22144H27.6482V3.20032H27.606V3.17919H27.5637V3.15807H27.5426V3.13695H27.5004V3.11583H27.4581V3.09471H27.4159V3.07359H27.3736V3.05246H27.3314V3.03134H27.268V3.01022H27.2258V2.9891H27.1624V2.96798H27.1202V2.94686H27.0357V2.92573H26.9723V2.90461H26.909V2.88349H26.8034V2.86237H26.6978V2.84125H26.5499V2.82013H25.9796V2.84125H25.8318V2.86237H25.7262V2.88349H25.6206V2.90461H25.5572V2.92573H25.4938V2.94686H25.4093V2.96798H25.3671V2.9891H25.3037V3.01022H25.2615V3.03134H25.1981V3.05246H25.1559V3.07359H25.1136V3.09471H25.0714V3.11583H25.0291V3.13695H24.9869V3.15807H24.9658V3.17919H24.9235V3.20032H24.8813V3.22144H24.8391V3.24256H24.8179V3.26368H24.7757V3.2848H24.7334V3.30592H24.7123V3.32704H24.6701V3.34817H24.6278V3.36929H24.5856V3.39041H24.5645V3.41153H24.5222V3.43265H24.48V3.45377H24.4377V3.4749H24.4166V3.49602H24.3744V3.51714H24.3321V3.53826H24.2899V3.55938H24.2688V3.5805H24.2265V3.60163H24.1843V3.62275H24.142V3.64387H24.1209V3.66499H24.0787V3.68611H24.0364V3.70723H23.9942V3.72835H23.9731V3.74948H23.9308V3.7706H23.8886V3.79172H23.8675V3.81284H23.8252V3.83396H23.783V3.85508H23.7407V3.87621H23.7196V3.89733H23.6774V3.91845H23.6351V3.93957H23.5929V3.96069H23.5718V3.98181H23.5295V4.00294H23.4873V4.02406H23.445V4.04518H23.4239V4.0663H23.3817V4.08742H23.3394V4.10854H23.2972V4.12967H23.2761V4.15079H23.2338V4.17191H23.1916V4.19303H23.1493V4.21415H23.1282V4.23527H23.086V4.25639H23.0437V4.27752H23.0226V4.29864H22.9804V4.31976H22.9381V4.34088H22.8959V4.362H22.8747V4.38312H22.8325V4.40425H22.7903V4.42537H22.748V4.44649H22.7269V4.46761H22.6847V4.48873H22.6424V4.50985H22.6002V4.53098H22.579V4.5521H22.5368V4.57322H22.4946V4.59434H22.4523V4.61546H22.4312V4.63658H22.3889V4.6577H22.3467V4.67883H22.3045V4.69995H22.2833V4.72107H22.2411V4.74219H22.1989V4.76331H22.1777V4.78443H22.1355V4.80556H22.0932V4.82668H22.051V4.8478H22.0299V4.86892H21.9876V4.89004H21.9454V4.91116H21.9032V4.93229H21.882V4.95341H21.8398V4.97453H21.7975V4.99565H21.7553V5.01677H21.7342V5.03789H21.6919V5.05901H21.6497V5.08014H21.6075V5.10126H21.5863V5.12238H21.5441V5.1435H21.5018V5.16462H21.4596V5.18574H21.4385V5.20687H21.3962V5.22799H21.354V5.24911H21.3329V5.27023H21.2906V5.29135H21.2484V5.31247H21.2061V5.3336H21.185V5.35472H21.1428V5.37584H21.1005V5.39696H21.0583V5.41808H21.0372V5.4392H20.9949V5.46032H20.9527V5.48145H20.9104V5.50257H20.8893V5.52369H20.8471V5.54481H20.8048V5.56593H20.7626V5.58705H20.7415V5.60818H20.6992V5.6293H20.657V5.65042H20.6147V5.67154H20.5936V5.69266H20.5514V5.71378H20.5091V5.73491H20.488V5.75603H20.4458V5.77715H20.4035V5.79827H20.3613V5.81939H20.3402V5.84051H20.2979V5.86163H20.2557V5.88276H20.2134V5.90388H20.1923V5.925H20.1501V5.94612H20.1078V5.96724H20.0656V5.98836H20.0445V6.00949H20.0022V6.03061H19.96V6.05173H19.9177V6.07285H19.8966V6.09397H19.8544V6.11509H19.8121V6.13622H19.7699V6.15734H19.7488V6.17846H19.7065V6.19958H19.6643V6.2207H19.6431V6.24182H19.6009V6.26295H19.5587V6.28407H19.5164V6.30519H19.4953V6.32631H19.453V6.34743H19.4108V6.36855H19.3686V6.38967H19.3474V6.4108H19.3052V6.43192H19.263V6.45304H19.2207V6.47416H19.1996V6.49528H19.1573V6.5164H19.1151V6.53753H19.0729V6.55865H19.0517V6.57977H19.0095V6.60089H18.9673V6.62201H18.925V6.64313H18.9039V6.66426H18.8616V6.68538H18.8194V6.7065H18.7983V6.72762H18.756V6.74874H18.7138V6.76986H18.6716V6.79098H18.6504V6.81211H18.6082V6.83323H18.5659V6.85435H18.5237V6.87547H18.5026V6.89659H18.4603V6.91771H18.4181V6.93884H18.3758V6.95996H18.3547V6.98108H18.3125V7.0022H18.2702V7.02332H18.228V7.04444H18.2069V7.06557H18.1646V7.08669H18.1224V7.10781H18.0801V7.12893H18.059V7.15005H18.0168V7.17117H17.9745V7.19229H17.9534V7.21342H17.9112V7.23454H17.8689V7.25566H17.8267V7.27678H17.8056V7.2979H17.7633V7.31902H17.7211V7.34015H17.6788V7.36127H17.6577V7.38239H17.6155V7.40351H17.5732V7.42463H17.531V7.44575H17.5099V7.46688H17.4676V7.488H17.4254V7.50912H17.3831V7.53024H17.362V7.55136H17.3198V7.57248H17.2775V7.5936H17.2564V7.61473H17.2142V7.63585H17.1719V7.65697H17.1297V7.67809H17.1086V7.69921H17.0663V7.72033H17.0241V7.74146H16.9818V7.76258H16.9607V7.7837H16.9185V7.80482H16.8762V7.82594H16.834V7.84706H16.8129V7.86819H16.7706V7.88931H16.7284V7.91043H16.6861V7.93155H16.665V7.95267H16.6228V7.97379H16.5805V7.99491H16.5383V8.01604H16.5171V8.03716H16.4749V8.05828H16.4327V8.0794H16.4115V8.10052H16.3693V8.12164H16.3271V8.14277H16.2848V8.16389H16.2637V8.18501H16.2214V8.20613H16.1792V8.22725H16.137V8.24837H16.1158V8.2695H16.0736V8.29062H16.0314V8.31174H15.9891V8.33286H15.968V8.35398H15.9257V8.3751H15.8835V8.39622H15.8413V8.41735H15.8201V8.43847H15.7779V8.45959H15.7357V8.48071H15.6934V8.50183H15.6723V8.52295H15.63V8.54408H15.5878V8.5652H15.5667V8.58632H15.5244V8.60744H15.4822V8.62856H15.4399V8.64968H15.4188V8.67081H15.3766V8.69193H15.3343V8.71305H15.2921V8.73417H15.271V8.75529H15.2287V8.77641H15.1865V8.79754H15.1442V8.81866H15.1231V8.83978H15.0809V8.8609H15.0386V8.88202H14.9964V8.90314H14.9753V8.92426H14.933V8.94539H14.8908V8.96651H14.8485V8.98763H14.8274V9.00875H14.7852V9.02987H14.7429V9.05099H14.7218V9.07212H14.6796V9.09324H14.6373V9.11436H14.5951V9.13548H14.574V9.1566H14.5317V9.17772H14.4895V9.19885H14.4472V9.21997H14.4684V9.24109H14.4895V9.26221H14.5317V9.28333H14.574V9.30445H14.6162V9.32557H14.6373V9.3467H14.6796V9.36782H14.7218V9.38894H14.7641V9.41006H14.7852V9.43118H14.8274V9.4523H14.8697V9.47343H14.8908V9.49455H14.933V9.51567H14.9753V9.53679H15.0175V9.55791H15.0386V9.57903H15.0809V9.60016H15.1231V9.62128H15.1654V9.6424H15.1865V9.66352H15.2287V9.68464H15.271V9.70576H15.2921V9.72688H15.3343V9.74801H15.3766V9.76913H15.4188V9.79025H15.4399V9.81137H15.4822V9.83249H15.5244V9.85361H15.5667V9.87474H15.5878V9.89586H15.63V9.91698H15.6723V9.9381H15.7145V9.95922H15.7357V9.98034H15.7779V10.0015H15.8201V10.0226H15.8413V10.0437H15.8835V10.0648H15.9257V10.086H15.968V10.1071H15.9891V10.1282H16.0314V10.1493H16.0736V10.1704H16.1158V10.1916H16.137V10.2127H16.1792V10.2338H16.2214V10.2549H16.2637V10.276H16.2848V10.2972H16.3271V10.3183H16.3693V10.3394H16.3904V10.3605H16.4327V10.3817H16.4749V10.4028H16.5171V10.4239H16.5383V10.445H16.5805V10.4661H16.6228V10.4873H16.665V10.5084H16.6861V10.5295H16.7284V10.5506H16.7706V10.5717H16.8129V10.5929H16.834V10.614H16.8762V10.6351H16.9185V10.6562H16.9396V10.6774H16.9818V10.6985H17.0241V10.7196H17.0663V10.7407H17.0874V10.7618H17.1297V10.783H17.1719V10.8041H17.2142V10.8252H17.2353V10.8463H17.2775V10.8675H17.3198V10.8886H17.362V10.9097H17.3831V10.9308H17.4254V10.9519H17.4676V10.9731H17.4887V10.9942H17.531V11.0153H17.5732V11.0364H17.6155V11.0575H17.6366V11.0787H17.6788V11.0998H17.7211V11.1209H17.7633V11.142H17.7844V11.1632H17.8267V11.1843H17.8689V11.2054H17.9112V11.2265H17.9323V11.2476H17.9745V11.2688H18.0168V11.2899H18.0379V11.311H18.0801V11.3321H18.1224V11.3532H18.1646V11.3744H18.1858V11.3955H18.228V11.4166H18.2702V11.4377H18.3125V11.4589H18.3336V11.48H18.3758V11.5011H18.4181V11.5222H18.4603V11.5433H18.4815V11.5645H18.5237V11.5856H18.5659V11.6067H18.5871V11.6278H18.6293V11.6489H18.6716V11.6701H18.7138V11.6912H18.7349V11.7123H18.7772V11.7334H18.8194V11.7546H18.8616V11.7757H18.8828V11.7968H18.925V11.8179H18.9673V11.839H18.9884V11.8602H19.0306V11.8813H19.0729V11.9024H19.1151V11.9235H19.1362V11.9447H19.1785V11.9658H19.2207V11.9869H19.263V12.008H19.2841V12.0291H19.3263V12.0503H19.3686V12.0714H19.4108V12.0925H19.4319V12.1136H19.4742V12.1347H19.5164V12.1559H19.5375V12.177H19.5798V12.1981H19.622V12.2192H19.6643V12.2404H19.6854V12.2615H19.7276V12.2826H19.7699V12.3037H19.8121V12.3248H19.8332V12.346H19.8755V12.3671H19.9177V12.3882H19.96V12.4093H19.9811V12.4304H20.0233V12.4516H20.0656V12.4727H20.0867V12.4938H20.1289V12.5149H20.1712V12.5361H20.2134V12.5572H20.2345V12.5783H20.2768V12.5994H20.319V12.6205H20.3613V12.6417H20.3824V12.6628H20.4246V12.6839H20.4669V12.705H20.5091V12.7261H20.5303V12.7473H20.5725V12.7684H20.6147V12.7895H20.6359V12.8106H20.6781V12.8318H20.7203V12.8529H20.7626V12.874H20.7837V12.8951H20.826V12.9162H20.8682V12.9374H20.9104V12.9585H20.9316V12.9796H20.9738V13.0007H21.016V13.0219H21.0583V13.043H21.0794V13.0641H21.1217V13.0852H21.1639V13.1063H21.185V13.1275H21.2273V13.1486H21.2695V13.1697H21.3117V13.1908H21.3329V13.2119H21.3751V13.2331H21.4174V13.2542H21.4596V13.2753H21.4807V13.2964H21.523V13.3176H21.5652V13.3387H21.6075V13.3598H21.6286V13.3809H21.6708V13.402H21.7131V13.4232H21.7342V13.4443H21.7764V13.4654H21.8187V13.4865H21.8609V13.5076H21.882V13.5288H21.9243V13.5499H21.9665V13.571H22.0088V13.5921H22.0299V13.6133H22.0721V13.6344H22.1144V13.6555H22.1566V13.6766H22.1777V13.6977H22.22V13.7189H22.2622V13.74H22.2833V13.7611H22.3256V13.7822H22.3678V13.8034H22.4101V13.8245H22.4312V13.8456H22.4734V13.8667H22.5157V13.8878H22.5579V13.909H22.579V13.9301H22.6213V13.9512H22.6424V13.9723H22.6635V13.9934H22.7058V14.0146H22.7269V14.0357H22.7691V14.0568H22.7903V14.0779H22.8325V14.0991H22.8536V14.1202H22.8959V14.1413H22.917V14.1624H22.9381V14.1835H22.9804V14.2047H23.0015V14.2258H23.0226V14.2469H23.0437V14.268H23.0648V14.2891H23.1071V14.3103H23.1282V14.3314H23.1493V14.3525H23.1704V14.3736H23.1916V14.3948H23.2338V14.4159H23.2549V14.437H23.2761V14.4581H23.2972V14.4792H23.3183V14.5004H23.3394V14.5215H23.3817V14.5426H23.4028V14.5637H23.4239V14.5848H23.445V14.606H23.4662V14.6271H23.4873V14.6482H23.5084V14.6693H23.5295V14.7116H23.5506V14.7327H23.5718V14.7538H23.5929V14.7749H23.614V14.7961H23.6351V14.8172H23.6562V14.8383H23.6774V14.8594H23.6985V14.8806H23.7196V14.9017H23.7407V14.9228H23.7619V14.9439H23.783V14.965H23.8041V14.9862H23.8252V15.0284H23.8463V15.0495H23.8675V15.0706H23.8886V15.0918H23.9097V15.134H23.9308V15.1551H23.9519V15.1763H23.9731V15.2185H23.9942V15.2396H24.0153V15.2607H24.0364V15.2819H24.0576V15.3241H24.0787V15.3452H24.0998V15.3663H24.1209V15.4086H24.142V15.4297H24.1632V15.472H24.1843V15.4931H24.2054V15.5353H24.2265V15.5776H24.2476V15.5987H24.2688V15.6409H24.2899V15.6832H24.311V15.7043H24.3321V15.7465H24.3533V15.7888H24.3744V15.831H24.3955V15.8521H24.4166V15.8944H24.4377V15.9366H24.4589V15.9789H24.48V16.0211H24.5011V16.0634H24.5222V16.1056H24.5434V16.169H24.5645V16.2112H24.5856V16.2535H24.6067V16.2957H24.6278V16.3379H24.649V16.4013H24.6701V16.4435H24.6912V16.5069H24.7123V16.5492H24.7334V16.6125H24.7546V16.6759H24.7757V16.7393H24.7968V16.8026H24.8179V16.866H24.8391V16.9293H24.8602V17.0138H24.8813V17.1194H24.9024V17.2039H24.9235V17.2884H24.9447V17.3729H24.9658V17.4996H24.9869V17.6475H25.008V17.8165H25.0291V18.0699H25.0503V18.6824H25.0291V18.9993H25.008V19.126H24.9869V19.2527H24.9658V19.4006H24.9447V19.5062H24.9235V19.5907H24.9024V19.6752H24.8813V19.7596H24.8602V19.8441H24.8391V19.9075H24.8179V19.992H24.7968V20.0553H24.7757V20.0976H24.7546V20.1609H24.7334V20.2243H24.7123V20.2877H24.6912V20.3299H24.6701V20.3933H24.649V20.4566H24.6278V20.4989H24.6067V20.5411H24.5856V20.5834H24.5645V20.6256H24.5434V20.6679H24.5222V20.7101H24.5011V20.7524H24.48V20.8157H24.4589V20.858H24.4377V20.9002H24.4166V20.9213H24.3955V20.9636H24.3744V21.0058H24.3533V21.0269H24.3321V21.0692H24.311V21.1114H24.2899V21.1325H24.2688V21.1748H24.2476V21.217H24.2265V21.2381H24.2054V21.2804H24.1843V21.3226H24.1632V21.3438H24.142V21.386H24.1209V21.4071H24.0998V21.4282H24.0787V21.4705H24.0576V21.4916H24.0364V21.5127H24.0153V21.555H23.9942V21.5761H23.9731V21.5972H23.9519V21.6395H23.9308V21.6606H23.9097V21.6817H23.8886V21.7239H23.8675V21.7451H23.8463V21.7662H23.8252V21.7873H23.8041V21.8084H23.783V21.8507H23.7619V21.8718H23.7407V21.8929H23.7196V21.914H23.6985V21.9352H23.6774V21.9563H23.6562V21.9774H23.6351V21.9985H23.614V22.0196H23.5929V22.0408H23.5718V22.0619H23.5506V22.1041H23.5295V22.1253H23.5084V22.1464H23.4873V22.1675H23.4662V22.1886H23.4239V22.2097H23.4028V22.2309H23.3817V22.252H23.3605V22.2731H23.3394V22.2942H23.3183V22.3153H23.2972V22.3365H23.2761V22.3576H23.2338V22.3787H23.2127V22.3998H23.1916V22.421H23.1704V22.4421H23.1493V22.4632H23.1282V22.4843H23.1071V22.5054H23.0648V22.5266H23.0437V22.5477H23.0226V22.5688H22.9804V22.5899H22.9592V22.6111H22.9381V22.6322H22.8959V22.6533H22.8747V22.6744H22.8536V22.6955H22.8325V22.7167H22.7903V22.7378H22.7691V22.7589H22.7269V22.78H22.7058V22.8011H22.6635V22.8223H22.6213V22.8434H22.6002V22.8645H22.5579V22.8856H22.5368V22.9068H22.4946V22.9279H22.4523V22.949H22.4312V22.9701H22.3889V22.9912H22.3467V23.0124H22.3045V23.0335H22.2833V23.0546H22.2411V23.0757H22.1989V23.0968H22.1566V23.118H22.1355V23.1391H22.0932V23.1602H22.051V23.1813H22.0299V23.2025H21.9876V23.2236H21.9454V23.2447H21.9032V23.2658H21.882V23.2869H21.8398V23.3081H21.7975V23.3292H21.7553V23.3503H21.7342V23.3714H21.6919V23.3925H21.6497V23.4137H21.6286V23.4348H21.5863V23.4559H21.5441V23.477H21.5018V23.4982H21.4807V23.5193H21.4385V23.5404H21.3962V23.5615H21.354V23.5826H21.3329V23.6038H21.2906V23.6249H21.2484V23.646H21.2273V23.6671H21.185V23.6883H21.1428V23.7094H21.1005V23.7305H21.0794V23.7516H21.0372V23.7727H20.9949V23.7939H20.9527V23.815H20.9316V23.8361H20.8893V23.8572H20.8471V23.8783H20.826V23.8995H20.7837V23.9206H20.7415V23.9417H20.6992V23.9628H20.6781V23.984H20.6359V24.0051H20.5936V24.0262H20.5514V24.0473H20.5303V24.0684H20.488V24.0896H20.4458V24.1107H20.4035V24.1318H20.3824V24.1529H20.3402V24.174H20.2979V24.1952H20.2768V24.2163H20.2345V24.2374H20.1923V24.2585H20.1501V24.2797H20.1289V24.3008H20.0867V24.3219H20.0445V24.343H20.0022V24.3641H19.9811V24.3853H19.9388V24.4064H19.8966V24.4275H19.8755V24.4486H19.8332V24.4698H19.791V24.4909H19.7488V24.512H19.7276V24.5331H19.6854V24.5542H19.6431V24.5754H19.6009V24.5965H19.5798V24.6176H19.5375V24.6387H19.4953V24.6598H19.453V24.681H19.4319V24.7021H19.3897V24.7232H19.3474V24.7443H19.3263V24.7655H19.2841V24.7866H19.2418V24.8077H19.1996V24.8288H19.1785V24.8499H19.1362V24.8711H19.094V24.8922H19.0517V24.9133H19.0306V24.9344H18.9884V24.9555H18.9461V24.9767H18.925V24.9978H18.8828V25.0189H18.8405V25.04H18.7983V25.0612H18.7772V25.0823H18.7349V25.1034H18.6927V25.1245H18.6504V25.1456H18.6293V25.1668H18.5871V25.1879H18.5448V25.209H18.5026V25.2301H18.4815V25.2512H18.4392V25.2724H18.397V25.2935H18.3758V25.3146H18.3336V25.3357H18.2914V25.3569H18.2491V25.378H18.228V25.3991H18.1858V25.4202H18.1435V25.4413H18.1013V25.4625H18.0801V25.4836H18.0379V25.5047H17.9957V25.5258H17.9534V25.547H17.9323V25.5681H17.8901V25.5892H17.8478V25.6103H17.8267V25.6314H17.7844V25.6526H17.7422V25.6737H17.7V25.6948H17.6788V25.7159H17.6366V25.737H17.5944V25.7582H17.5521V25.7793H17.531V25.8004H17.4887V25.8215H17.4465V25.8427H17.4043V25.8638H17.3831V25.8849H17.3409V25.906H17.2986V25.9271H17.2775V25.9483H17.2353V25.9694H17.193V25.9905H17.1508V26.0116H17.1297V26.0327H17.0874V26.0539H17.0452V26.075H17.0029V26.0961H16.9818V26.1172H16.9396V26.1384H16.8973V26.1595H16.8762V26.1806H16.834V26.2017H16.7917V26.2228H16.7495V26.244H16.7284V26.2651H16.6861V26.2862H16.6439V26.3073H16.6016V26.3284H16.5805V26.3496H16.5383V26.3707H16.496V26.3918H16.4538V26.4129H16.4327V26.4341H16.3904V26.4552H16.3482V26.4763H16.3271V26.4974H16.2848V26.5185H16.2426V26.5397H16.2003V26.5608H16.1792V26.5819H16.137V26.603H16.0947V26.6242H16.0525V26.6453H16.0314V26.6664H15.9891V26.6875H15.9469V26.7086H15.9046V26.7298H15.8835V26.7509H15.8413V26.772H15.799V26.7931H15.7779V26.8142H15.7357V26.8354H15.6934V26.8565H15.6512V26.8776H15.63V26.8987H15.5878V26.9199H15.5456V26.941H15.5033V26.9621H15.4822V26.9832H15.4399V27.0043H15.3977V27.0255H15.3766V27.0466H15.3343V27.0677H15.2921V27.0888H15.2499V27.1099H15.2287V27.1311H15.1865V27.1522H15.1442V27.1733H15.102V27.1944H15.0809V27.2156H15.0386V27.2367H14.9964V27.2578H14.9542V27.2789H14.933V27.3H14.8908V27.3212H14.8485V27.3423H14.8274V27.3634H14.7852V27.3845H14.7429V27.4057H14.7007V27.4268H14.6796V27.4479H14.6373V27.469H14.5951V27.4901H14.5528V27.5113H14.5317V27.5324H14.4895V27.5535H14.4472V27.5746H14.405V27.5957H14.3839V27.6169H14.3416V27.638H14.2994V27.6591H14.2783V27.6802H14.236V27.7014H14.1938V27.7225H14.1515V27.7436H14.1304V27.7647H14.0882V27.7858H14.0459V27.807H14.0037V27.8281H13.9826V27.8492H13.9403V27.8703H13.8981V27.8914H13.8558V27.9126H13.8347V27.9337H13.7925V27.9548H13.7502V27.9759H13.7291V27.9971H13.6869V28.0182H13.6446V28.0393H13.6024V28.0604H13.5812V28.0815H13.539V28.1027H13.4968V28.1238H13.4545V28.1449H13.4334V28.166H13.3912V28.1871H13.3489V28.2083H13.3278V28.2294H13.2855V28.2505H13.2433V28.2716H13.2011V28.2928H13.1799V28.3139H13.1377V28.335H13.0955V28.3561H13.0532V28.3772H13.0321V28.3984H12.9898V28.4195H12.9476V28.4406H12.9054V28.4617H12.8842V28.4829H12.842V28.504H12.7998V28.5251H12.7786V28.5462H12.7364V28.5673H12.6941V28.5885H12.6519V28.6096H12.6308V28.6307H12.5885V28.6518H12.5463V28.6729H12.504V28.6941H12.4829V28.7152H12.4407V28.7363H12.3984V28.7574H12.3562V28.7786H12.3351V28.7997H12.2928V28.8208H12.2506V28.8419H12.2295V28.863H12.1872V28.8842H12.145V28.9053H12.1027V28.9264H12.0816V28.9475H12.0394V28.9686H11.9971V28.9898H11.9549V29.0109H11.9338V29.032H11.8915V29.0531H11.8493V29.0743H11.8282V29.0954H11.7859V29.1165H11.7437V29.1376H11.7014V29.1587H11.6803V29.1799H11.6381V29.201H11.5958V29.2221H11.5536V29.2432H11.5325V29.2643H11.4902V29.2855H11.448V29.3066H11.4057V29.3277H11.3846V29.3488H11.3424V29.37H11.3001V29.3911H11.279V29.4122H11.2368V29.4333H11.1945V29.4544H11.1523V29.4756H11.1311V29.4967H11.0889V29.5178H11.0467V29.5389H11.0044V29.5601H10.9833V29.5812H10.9411V29.6023H10.8988V29.6234H10.8566V29.6445H10.8354V29.6657H10.7932V29.6868H10.751V29.7079H10.7298V29.729H10.6876V29.7501H10.6453V29.7713H10.6031V29.7924H10.582V29.8135H10.5397V29.8346H10.4975V29.8558H10.4553V29.8769H10.4341V29.898H10.3919V29.9191H10.3496V29.9402H10.3074V29.9614H10.2863V29.9825H10.244V30.0036H10.2018V30.0247H10.1807V30.0458H10.1384V30.067H10.0962V30.0881H10.0539V30.1092H10.0328V30.1303H9.99058V30.1515H9.94834V30.1726H9.90609V30.1937H9.88497V30.2148H9.84273V30.2359H9.80049V30.2571H9.77936V30.2782H9.73712V30.2993H9.69488V30.3204H9.65263V30.3416H9.63151V30.3627H9.58927V30.3838H9.54703V30.4049H9.50478V30.426H9.48366V30.4472H9.44142V30.4683H9.39918V30.4894H9.35693V30.5105H9.33581V30.5316H9.29357V30.5528H9.25132V30.5739H9.2302V30.595H9.18796V30.6161H9.14572V30.6373H9.10347V30.6584H9.08235V30.6795H9.04011V30.7006H8.99787V30.7217H8.95562V30.7429H8.9345V30.764H8.89226V30.7851H8.85001V30.8062H8.80777V30.8273H8.78665V30.8485H8.74441V30.8696H8.70216V30.8907H8.68104V30.9118H8.6388V30.933H8.59656V30.9541H8.55431V30.9752H8.53319V30.9963H8.49095V31.0174H8.4487V31.0386H8.40646V31.0597H8.38534V31.0808H8.3431V31.1019H8.30085V31.123H8.25861V31.1442H8.23749V31.1653H8.19525V31.1864H8.153V31.2075H8.13188V31.2287H8.08964V31.2498H8.04739V31.2709H8.00515V31.292H7.96291V31.3131H7.92066V31.3343H7.8573V31.3554H7.81506V31.3765H7.77281V31.3976H7.73057V31.4188H7.68833V31.4399H7.64608V31.461H7.60384V31.4821H7.54048V31.5032H7.47711V31.5244H7.41375V31.5455H7.35038V31.5666H7.28702V31.5877H7.22365V31.6088H7.16029V31.63H7.09692V31.6511H7.03356V31.6722H6.97019V31.6933H6.88571V31.7145H6.7801V31.7356H6.67449V31.7567H6.56888V31.7778H6.46328V31.7989H6.35767V31.8201H6.23094V31.8412H5.9986V31.8623H5.11149ZM5.32271 29.201V29.2221H5.82963V29.201H5.9986V29.1799H6.10421V29.1587H6.20982V29.1376H6.27318V29.1165H6.33655V29.0954H6.42103V29.0743H6.46328V29.0531H6.52664V29.032H6.56888V29.0109H6.63225V28.9898H6.67449V28.9686H6.71673V28.9475H6.75898V28.9264H6.80122V28.9053H6.84346V28.8842H6.88571V28.863H6.90683V28.8419H6.94907V28.8208H6.99132V28.7997H7.03356V28.7786H7.05468V28.7574H7.09692V28.7363H7.13917V28.7152H7.16029V28.6941H7.20253V28.6729H7.24477V28.6518H7.28702V28.6307H7.30814V28.6096H7.35038V28.5885H7.39263V28.5673H7.43487V28.5462H7.45599V28.5251H7.49823V28.504H7.54048V28.4829H7.58272V28.4617H7.60384V28.4406H7.64608V28.4195H7.68833V28.3984H7.70945V28.3772H7.75169V28.3561H7.79394V28.335H7.83618V28.3139H7.8573V28.2928H7.89954V28.2716H7.94179V28.2505H7.98403V28.2294H8.00515V28.2083H8.04739V28.1871H8.08964V28.166H8.13188V28.1449H8.153V28.1238H8.19525V28.1027H8.23749V28.0815H8.25861V28.0604H8.30085V28.0393H8.3431V28.0182H8.38534V27.9971H8.40646V27.9759H8.4487V27.9548H8.49095V27.9337H8.53319V27.9126H8.55431V27.8914H8.59656V27.8703H8.6388V27.8492H8.68104V27.8281H8.70216V27.807H8.74441V27.7858H8.78665V27.7647H8.80777V27.7436H8.85001V27.7225H8.89226V27.7014H8.9345V27.6802H8.95562V27.6591H8.99787V27.638H9.04011V27.6169H9.08235V27.5957H9.10347V27.5746H9.14572V27.5535H9.18796V27.5324H9.2302V27.5113H9.25132V27.4901H9.29357V27.469H9.33581V27.4479H9.35693V27.4268H9.39918V27.4057H9.44142V27.3845H9.48366V27.3634H9.50478V27.3423H9.54703V27.3212H9.58927V27.3H9.63151V27.2789H9.65263V27.2578H9.69488V27.2367H9.73712V27.2156H9.77936V27.1944H9.80049V27.1733H9.84273V27.1522H9.88497V27.1311H9.90609V27.1099H9.94834V27.0888H9.99058V27.0677H10.0328V27.0466H10.0539V27.0255H10.0962V27.0043H10.1384V26.9832H10.1807V26.9621H10.2018V26.941H10.244V26.9199H10.2863V26.8987H10.3285V26.8776H10.3496V26.8565H10.3919V26.8354H10.4341V26.8142H10.4764V26.7931H10.4975V26.772H10.5397V26.7509H10.582V26.7298H10.6031V26.7086H10.6453V26.6875H10.6876V26.6664H10.7298V26.6453H10.751V26.6242H10.7932V26.603H10.8354V26.5819H10.8777V26.5608H10.8988V26.5397H10.9411V26.5185H10.9833V26.4974H11.0255V26.4763H11.0467V26.4552H11.0889V26.4341H11.1311V26.4129H11.1523V26.3918H11.1945V26.3707H11.2368V26.3496H11.279V26.3284H11.3001V26.3073H11.3424V26.2862H11.3846V26.2651H11.4268V26.244H11.448V26.2228H11.4902V26.2017H11.5325V26.1806H11.5747V26.1595H11.5958V26.1384H11.6381V26.1172H11.6803V26.0961H11.7014V26.075H11.7437V26.0539H11.7859V26.0327H11.8282V26.0116H11.8493V25.9905H11.8915V25.9694H11.9338V25.9483H11.976V25.9271H11.9971V25.906H12.0394V25.8849H12.0816V25.8638H12.1239V25.8427H12.145V25.8215H12.1872V25.8004H12.2295V25.7793H12.2506V25.7582H12.2928V25.737H12.3351V25.7159H12.3773V25.6948H12.3984V25.6737H12.4407V25.6526H12.4829V25.6314H12.5252V25.6103H12.5463V25.5892H12.5885V25.5681H12.6308V25.547H12.673V25.5258H12.6941V25.5047H12.7364V25.4836H12.7786V25.4625H12.7998V25.4413H12.842V25.4202H12.8842V25.3991H12.9265V25.378H12.9476V25.3569H12.9898V25.3357H13.0321V25.3146H13.0743V25.2935H13.0955V25.2724H13.1377V25.2512H13.1799V25.2301H13.2222V25.209H13.2433V25.1879H13.2855V25.1668H13.3278V25.1456H13.37V25.1245H13.3912V25.1034H13.4334V25.0823H13.4756V25.0612H13.4968V25.04H13.539V25.0189H13.5812V24.9978H13.6235V24.9767H13.6446V24.9555H13.6869V24.9344H13.7291V24.9133H13.7713V24.8922H13.7925V24.8711H13.8347V24.8499H13.877V24.8288H13.9192V24.8077H13.9403V24.7866H13.9826V24.7655H14.0248V24.7443H14.0459V24.7232H14.0882V24.7021H14.1304V24.681H14.1727V24.6598H14.1938V24.6387H14.236V24.6176H14.2783V24.5965H14.3205V24.5754H14.3416V24.5542H14.3839V24.5331H14.4261V24.512H14.4684V24.4909H14.4895V24.4698H14.5317V24.4486H14.574V24.4275H14.5951V24.4064H14.6373V24.3853H14.6796V24.3641H14.7218V24.343H14.7429V24.3219H14.7852V24.3008H14.8274V24.2797H14.8697V24.2585H14.8908V24.2374H14.933V24.2163H14.9753V24.1952H15.0175V24.174H15.0386V24.1529H15.0809V24.1318H15.1231V24.1107H15.1442V24.0896H15.1865V24.0684H15.2287V24.0473H15.271V24.0262H15.2921V24.0051H15.3343V23.984H15.3766V23.9628H15.4188V23.9417H15.4399V23.9206H15.4822V23.8995H15.5244V23.8783H15.5667V23.8572H15.5878V23.8361H15.63V23.815H15.6723V23.7939H15.6934V23.7727H15.7357V23.7516H15.7779V23.7305H15.8201V23.7094H15.8413V23.6883H15.8835V23.6671H15.9257V23.646H15.968V23.6249H15.9891V23.6038H16.0314V23.5826H16.0736V23.5615H16.1158V23.5404H16.137V23.5193H16.1792V23.4982H16.2214V23.477H16.2426V23.4559H16.2848V23.4348H16.3271V23.4137H16.3693V23.3925H16.3904V23.3714H16.4327V23.3503H16.4749V23.3292H16.5171V23.3081H16.5383V23.2869H16.5805V23.2658H16.6228V23.2447H16.665V23.2236H16.6861V23.2025H16.7284V23.1813H16.7706V23.1602H16.8129V23.1391H16.834V23.118H16.8762V23.0968H16.9185V23.0757H16.9396V23.0546H16.9818V23.0335H17.0241V23.0124H17.0663V22.9912H17.0874V22.9701H17.1297V22.949H17.1719V22.9279H17.2142V22.9068H17.2353V22.8856H17.2775V22.8645H17.3198V22.8434H17.362V22.8223H17.3831V22.8011H17.4043V22.78H17.3831V22.7589H17.3409V22.7378H17.2986V22.7167H17.2564V22.6955H17.2353V22.6744H17.193V22.6533H17.1508V22.6322H17.1297V22.6111H17.0874V22.5899H17.0452V22.5688H17.0029V22.5477H16.9818V22.5266H16.9396V22.5054H16.8973V22.4843H16.8551V22.4632H16.834V22.4421H16.7917V22.421H16.7495V22.3998H16.7072V22.3787H16.6861V22.3576H16.6439V22.3365H16.6016V22.3153H16.5805V22.2942H16.5383V22.2731H16.496V22.252H16.4538V22.2309H16.4327V22.2097H16.3904V22.1886H16.3482V22.1675H16.3059V22.1464H16.2848V22.1253H16.2426V22.1041H16.2003V22.083H16.1581V22.0619H16.137V22.0408H16.0947V22.0196H16.0525V21.9985H16.0314V21.9774H15.9891V21.9563H15.9469V21.9352H15.9046V21.914H15.8835V21.8929H15.8413V21.8718H15.799V21.8507H15.7568V21.8296H15.7357V21.8084H15.6934V21.7873H15.6512V21.7662H15.6089V21.7451H15.5878V21.7239H15.5456V21.7028H15.5033V21.6817H15.4822V21.6606H15.4399V21.6395H15.3977V21.6183H15.3555V21.5972H15.3343V21.5761H15.2921V21.555H15.2499V21.5339H15.2076V21.5127H15.1865V21.4916H15.1442V21.4705H15.102V21.4494H15.0809V21.4282H15.0386V21.4071H14.9964V21.386H14.9542V21.3649H14.933V21.3438H14.8908V21.3226H14.8485V21.3015H14.8063V21.2804H14.7852V21.2593H14.7429V21.2381H14.7007V21.217H14.6584V21.1959H14.6373V21.1748H14.5951V21.1537H14.5528V21.1325H14.5317V21.1114H14.4895V21.0903H14.4472V21.0692H14.405V21.0481H14.3839V21.0269H14.3416V21.0058H14.2994V20.9847H14.2571V20.9636H14.236V20.9424H14.1938V20.9213H14.1515V20.9002H14.1093V20.8791H14.0882V20.858H14.0459V20.8368H14.0037V20.8157H13.9826V20.7946H13.9403V20.7735H13.8981V20.7524H13.8558V20.7312H13.8347V20.7101H13.7925V20.689H13.7502V20.6679H13.708V20.6467H13.6869V20.6256H13.6446V20.6045H13.6024V20.5834H13.5601V20.5623H13.539V20.5411H13.4968V20.52H13.4545V20.4989H13.4334V20.4778H13.3912V20.4566H13.3489V20.4355H13.3067V20.4144H13.2855V20.3933H13.2433V20.3722H13.2011V20.351H13.1588V20.3299H13.1377V20.3088H13.0955V20.2877H13.0532V20.2666H13.011V20.2454H12.9898V20.2243H12.9476V20.2032H12.9054V20.1821H12.8842V20.1609H12.842V20.1398H12.7998V20.1187H12.7575V20.0976H12.7364V20.0765H12.6941V20.0553H12.6519V20.0342H12.6097V20.0131H12.5885V19.992H12.5463V19.9709H12.504V19.9497H12.4618V19.9286H12.4407V19.9075H12.3984V19.8864H12.3562V19.8652H12.3351V19.8441H12.2928V19.823H12.2506V19.8019H12.2083V19.7808H12.1872V19.7596H12.145V19.7385H12.1027V19.7174H12.0605V19.6963H12.0394V19.6752H11.9971V19.654H11.9549V19.6329H11.9126V19.6118H11.8915V19.5907H11.8493V19.5695H11.807V19.5484H11.7859V19.5273H11.7437V19.5062H11.7014V19.4851H11.6592V19.4639H11.6381V19.4428H11.5958V19.4217H11.5536V19.4006H11.5113V19.3794H11.4902V19.3583H11.448V19.3372H11.4057V19.3161H11.3846V19.295H11.3424V19.2738H11.3001V19.2527H11.2579V19.2316H11.2368V19.2105H11.1945V19.1894H11.1523V19.1682H11.11V19.1471H11.0889V19.126H11.0467V19.1049H11.0044V19.0837H10.9622V19.0626H10.9411V19.0415H10.8988V19.0204H10.8566V18.9993H10.8354V18.9781H10.7932V18.957H10.751V18.9359H10.7087V18.9148H10.6876V18.8937H10.6453V18.8725H10.6031V18.8514H10.5609V18.8303H10.5397V18.8092H10.4975V18.788H10.4553V18.7669H10.413V18.7458H10.3919V18.7247H10.3496V18.7036H10.3074V18.6824H10.2863V18.6613H10.244V18.6402H10.2018V18.6191H10.1596V18.598H10.1384V18.5768H10.0962V18.5557H10.0539V18.5346H10.0117V18.5135H9.99058V18.4923H9.94834V18.4712H9.90609V18.4501H9.86385V18.429H9.84273V18.4079H9.80049V18.3867H9.75824V18.3656H9.73712V18.3445H9.69488V18.3234H9.65263V18.3022H9.61039V18.2811H9.58927V18.26H9.54703V18.2389H9.50478V18.2178H9.46254V18.1966H9.44142V18.1755H9.39918V18.1544H9.35693V18.1333H9.33581V18.1122H9.29357V18.091H9.27245V18.0699H9.2302V18.0488H9.20908V18.0277H9.16684V18.0065H9.14572V17.9854H9.10347V17.9643H9.08235V17.9432H9.04011V17.9221H9.01899V17.9009H8.97674V17.8798H8.95562V17.8587H8.91338V17.8376H8.89226V17.8165H8.87114V17.7953H8.82889V17.7742H8.80777V17.7531H8.78665V17.732H8.76553V17.7108H8.72328V17.6897H8.70216V17.6686H8.68104V17.6475H8.65992V17.6264H8.6388V17.6052H8.61768V17.5841H8.59656V17.563H8.55431V17.5419H8.53319V17.5207H8.51207V17.4996H8.49095V17.4785H8.46983V17.4574H8.4487V17.4363H8.42758V17.4151H8.40646V17.394H8.38534V17.3729H8.36422V17.3518H8.3431V17.3307H8.32197V17.3095H8.30085V17.2884H8.27973V17.2673H8.25861V17.2462H8.23749V17.225H8.21637V17.2039H8.19525V17.1828H8.17412V17.1617H8.153V17.1406H8.13188V17.1194H8.11076V17.0983H8.08964V17.0561H8.06852V17.035H8.04739V17.0138H8.02627V16.9927H8.00515V16.9505H7.98403V16.9293H7.96291V16.9082H7.94179V16.8871H7.92066V16.8449H7.89954V16.8237H7.87842V16.8026H7.8573V16.7604H7.83618V16.7393H7.81506V16.7181H7.79394V16.697H7.77281V16.6548H7.75169V16.6336H7.73057V16.5914H7.70945V16.5703H7.68833V16.528H7.66721V16.4858H7.64608V16.4647H7.62496V16.4224H7.60384V16.4013H7.58272V16.3591H7.5616V16.3379H7.54048V16.2957H7.51935V16.2746H7.49823V16.2323H7.47711V16.1901H7.45599V16.1478H7.43487V16.1056H7.41375V16.0634H7.39263V16.0211H7.3715V15.9789H7.35038V15.9366H7.32926V15.8944H7.30814V15.8521H7.28702V15.8099H7.2659V15.7677H7.24477V15.7254H7.22365V15.662H7.20253V15.5987H7.18141V15.5564H7.16029V15.4931H7.13917V15.4508H7.11804V15.3875H7.09692V15.3452H7.0758V15.2819H7.05468V15.1974H7.03356V15.134H7.01244V15.0495H6.99132V14.9862H6.97019V14.9017H6.94907V14.8383H6.92795V14.7327H6.90683V14.606H6.88571V14.5004H6.86459V14.3736H6.84346V14.2047H6.82234V13.9723H6.80122V13.2119H6.82234V13.0007H6.84346V12.8106H6.86459V12.705H6.88571V12.5994H6.90683V12.4938H6.92795V12.3882H6.94907V12.2826H6.97019V12.2192H6.99132V12.1347H7.01244V12.0714H7.03356V12.008H7.05468V11.9447H7.0758V11.8602H7.09692V11.7968H7.11804V11.7546H7.13917V11.6912H7.16029V11.6489H7.18141V11.6067H7.20253V11.5433H7.22365V11.5011H7.24477V11.4377H7.2659V11.3955H7.28702V11.3532H7.30814V11.2899H7.32926V11.2688H7.35038V11.2265H7.3715V11.1843H7.39263V11.142H7.41375V11.0998H7.43487V11.0575H7.45599V11.0364H7.47711V10.9942H7.49823V10.9519H7.51935V10.9097H7.54048V10.8675H7.5616V10.8463H7.58272V10.8041H7.60384V10.7618H7.62496V10.7407H7.64608V10.6985H7.66721V10.6774H7.68833V10.6351H7.70945V10.614H7.73057V10.5717H7.75169V10.5506H7.77281V10.5084H7.79394V10.4873H7.81506V10.4661H7.83618V10.4239H7.8573V10.4028H7.92066V10.4239H7.96291V10.445H7.98403V10.4661H8.02627V10.4873H8.06852V10.5084H8.08964V10.5295H8.13188V10.5506H8.17412V10.5717H8.21637V10.5929H8.23749V10.614H8.27973V10.6351H8.32197V10.6562H8.36422V10.6774H8.38534V10.6985H8.42758V10.7196H8.46983V10.7407H8.49095V10.7618H8.53319V10.783H8.57543V10.8041H8.61768V10.8252H8.6388V10.8463H8.68104V10.8675H8.72328V10.8886H8.76553V10.9097H8.78665V10.9308H8.82889V10.9519H8.87114V10.9731H8.91338V10.9942H8.9345V11.0153H8.97674V11.0364H9.01899V11.0575H9.04011V11.0787H9.08235V11.0998H9.1246V11.1209H9.16684V11.142H9.18796V11.1632H9.2302V11.1843H9.27245V11.2054H9.31469V11.2265H9.33581V11.2476H9.37805V11.2688H9.4203V11.2899H9.44142V11.311H9.48366V11.3321H9.52591V11.3532H9.56815V11.3744H9.58927V11.3955H9.63151V11.4166H9.67376V11.4377H9.716V11.4589H9.73712V11.48H9.77936V11.5011H9.82161V11.5222H9.86385V11.5433H9.88497V11.5645H9.92722V11.5856H9.96946V11.6067H9.99058V11.6278H10.0328V11.6489H10.0751V11.6701H10.1173V11.6912H10.1384V11.7123H10.1807V11.7334H10.2229V11.7757H10.2018V11.7968H10.1807V11.8179H10.1596V11.839H10.1384V11.8602H10.1173V11.8813H10.0962V11.9024H10.0751V11.9235H10.0539V11.9658H10.0328V11.9869H10.0117V12.008H9.99058V12.0291H9.96946V12.0503H9.94834V12.0925H9.92722V12.1136H9.90609V12.1559H9.88497V12.177H9.86385V12.2192H9.84273V12.2404H9.82161V12.2615H9.80049V12.3037H9.77936V12.346H9.75824V12.3671H9.73712V12.4093H9.716V12.4516H9.69488V12.4938H9.67376V12.5361H9.65263V12.5994H9.63151V12.6417H9.61039V12.705H9.58927V12.7473H9.56815V12.8106H9.54703V12.874H9.52591V12.9585H9.50478V13.043H9.48366V13.1275H9.46254V13.2542H9.44142V13.4443H9.4203V13.8456H9.44142V14.0146H9.46254V14.1413H9.48366V14.2258H9.50478V14.3103H9.52591V14.3736H9.54703V14.4581H9.56815V14.5215H9.58927V14.5637H9.61039V14.6271H9.63151V14.6693H9.65263V14.7116H9.67376V14.7749H9.69488V14.8172H9.716V14.8383H9.73712V14.8806H9.75824V14.9228H9.77936V14.965H9.80049V15.0073H9.82161V15.0284H9.84273V15.0495H9.86385V15.0918H9.88497V15.1129H9.90609V15.1551H9.92722V15.1763H9.94834V15.2185H9.96946V15.2396H9.99058V15.2607H10.0117V15.2819H10.0328V15.303H10.0539V15.3452H10.0751V15.3663H10.0962V15.3875H10.1173V15.4086H10.1384V15.4297H10.1596V15.4508H10.1807V15.472H10.2018V15.4931H10.2229V15.5142H10.244V15.5353H10.2652V15.5564H10.2863V15.5776H10.3074V15.5987H10.3285V15.6198H10.3708V15.6409H10.3919V15.662H10.413V15.6832H10.4341V15.7043H10.4764V15.7254H10.4975V15.7465H10.5186V15.7677H10.5609V15.7888H10.582V15.8099H10.6242V15.831H10.6453V15.8521H10.6876V15.8733H10.7298V15.8944H10.751V15.9155H10.7932V15.9366H10.8354V15.9578H10.8777V15.9789H10.8988V16H10.9411V16.0211H10.9833V16.0422H11.0255V16.0634H11.0467V16.0845H11.0889V16.1056H11.1311V16.1267H11.1523V16.1478H11.1945V16.169H11.2368V16.1901H11.279V16.2112H11.3001V16.2323H11.3424V16.2535H11.3846V16.2746H11.4268V16.2957H11.448V16.3168H11.4902V16.3379H11.5325V16.3591H11.5747V16.3802H11.5958V16.4013H11.6381V16.4224H11.6803V16.4435H11.7014V16.4647H11.7437V16.4858H11.7859V16.5069H11.8282V16.528H11.8493V16.5492H11.8915V16.5703H11.9338V16.5914H11.976V16.6125H11.9971V16.6336H12.0394V16.6548H12.0816V16.6759H12.1239V16.697H12.145V16.7181H12.1872V16.7393H12.2295V16.7604H12.2506V16.7815H12.2928V16.8026H12.3351V16.8237H12.3773V16.8449H12.3984V16.866H12.4407V16.8871H12.4829V16.9082H12.5252V16.9293H12.5463V16.9505H12.5885V16.9716H12.6308V16.9927H12.6519V17.0138H12.6941V17.035H12.7364V17.0561H12.7786V17.0772H12.7998V17.0983H12.842V17.1194H12.8842V17.1406H12.9265V17.1617H12.9476V17.1828H12.9898V17.2039H13.0321V17.225H13.0743V17.2462H13.0955V17.2673H13.1377V17.2884H13.1799V17.3095H13.2011V17.3307H13.2433V17.3518H13.2855V17.3729H13.3278V17.394H13.3489V17.4151H13.3912V17.4363H13.4334V17.4574H13.4756V17.4785H13.4968V17.4996H13.539V17.5207H13.5812V17.5419H13.6235V17.563H13.6446V17.5841H13.6869V17.6052H13.7291V17.6264H13.7502V17.6475H13.7925V17.6686H13.8347V17.6897H13.877V17.7108H13.8981V17.732H13.9403V17.7531H13.9826V17.7742H14.0248V17.7953H14.0459V17.8165H14.0882V17.8376H14.1304V17.8587H14.1727V17.8798H14.1938V17.9009H14.236V17.9221H14.2783V17.9432H14.2994V17.9643H14.3416V17.9854H14.3839V18.0065H14.4261V18.0277H14.4472V18.0488H14.4895V18.0699H14.5317V18.091H14.574V18.1122H14.5951V18.1333H14.6373V18.1544H14.6796V18.1755H14.7007V18.1966H14.7429V18.2178H14.7852V18.2389H14.8274V18.26H14.8485V18.2811H14.8908V18.3022H14.933V18.3234H14.9753V18.3445H14.9964V18.3656H15.0386V18.3867H15.0809V18.4079H15.1231V18.429H15.1442V18.4501H15.1865V18.4712H15.2287V18.4923H15.2499V18.5135H15.2921V18.5346H15.3343V18.5557H15.3766V18.5768H15.3977V18.598H15.4399V18.6191H15.4822V18.6402H15.5244V18.6613H15.5456V18.6824H15.5878V18.7036H15.63V18.7247H15.6723V18.7458H15.6934V18.7669H15.7357V18.788H15.7779V18.8092H15.799V18.8303H15.8413V18.8514H15.8835V18.8725H15.9257V18.8937H15.9469V18.9148H15.9891V18.9359H16.0314V18.957H16.0736V18.9781H16.0947V18.9993H16.137V19.0204H16.1792V19.0415H16.2003V19.0626H16.2426V19.0837H16.2848V19.1049H16.3271V19.126H16.3482V19.1471H16.3904V19.1682H16.4327V19.1894H16.4749V19.2105H16.496V19.2316H16.5383V19.2527H16.5805V19.2738H16.6228V19.295H16.6439V19.3161H16.6861V19.3372H16.7284V19.3583H16.7495V19.3794H16.7917V19.4006H16.834V19.4217H16.8762V19.4428H16.8973V19.4639H16.9396V19.4851H16.9818V19.5062H17.0241V19.5273H17.0452V19.5484H17.0874V19.5695H17.1297V19.5907H17.1719V19.6118H17.193V19.6329H17.2353V19.654H17.2775V19.6752H17.2986V19.6963H17.3409V19.7174H17.3831V19.7385H17.4254V19.7596H17.4465V19.7808H17.4887V19.8019H17.531V19.823H17.5732V19.8441H17.5944V19.8652H17.6366V19.8864H17.6788V19.9075H17.7V19.9286H17.7422V19.9497H17.7844V19.9709H17.8267V19.992H17.8478V20.0131H17.8901V20.0342H17.9323V20.0553H17.9745V20.0765H17.9957V20.0976H18.0379V20.1187H18.0801V20.1398H18.1224V20.1609H18.1435V20.1821H18.1858V20.2032H18.228V20.2243H18.2491V20.2454H18.2914V20.2666H18.3336V20.2877H18.3758V20.3088H18.397V20.3299H18.4392V20.351H18.4815V20.3722H18.5237V20.3933H18.5448V20.4144H18.5871V20.4355H18.6293V20.4566H18.6716V20.4778H18.6927V20.4989H18.7349V20.52H18.7772V20.5411H18.7983V20.5623H18.8405V20.5834H18.8828V20.6045H18.925V20.6256H18.9461V20.6467H18.9884V20.6679H19.0306V20.689H19.0729V20.7101H19.094V20.7312H19.1362V20.7524H19.1785V20.7735H19.1996V20.7946H19.2418V20.8157H19.2841V20.8368H19.3263V20.858H19.3474V20.8791H19.3897V20.9002H19.4319V20.9213H19.4742V20.9424H19.4953V20.9636H19.5375V20.9847H19.5798V21.0058H19.622V21.0269H19.6431V21.0481H19.6854V21.0692H19.7276V21.0903H19.7488V21.1114H19.791V21.1325H19.8332V21.1537H19.8755V21.1748H19.8966V21.1959H19.9388V21.217H19.9811V21.2381H20.0233V21.2593H20.0867V21.2381H20.1078V21.217H20.1501V21.1959H20.1923V21.1748H20.2134V21.1537H20.2557V21.1325H20.2979V21.1114H20.319V21.0903H20.3613V21.0692H20.4035V21.0481H20.4458V21.0269H20.4669V21.0058H20.5091V20.9847H20.5514V20.9636H20.5725V20.9424H20.6147V20.9213H20.657V20.9002H20.6992V20.8791H20.7203V20.858H20.7626V20.8368H20.8048V20.8157H20.826V20.7946H20.8682V20.7735H20.9104V20.7524H20.9527V20.7312H20.9738V20.7101H21.016V20.689H21.0583V20.6679H21.0794V20.6467H21.1217V20.6256H21.1639V20.6045H21.185V20.5834H21.2273V20.5623H21.2484V20.5411H21.2906V20.52H21.3117V20.4989H21.3329V20.4778H21.3751V20.4566H21.3962V20.4355H21.4174V20.4144H21.4385V20.3933H21.4596V20.3722H21.5018V20.351H21.523V20.3299H21.5441V20.3088H21.5652V20.2877H21.5863V20.2666H21.6075V20.2454H21.6286V20.2243H21.6497V20.2032H21.6708V20.1821H21.6919V20.1609H21.7131V20.1398H21.7342V20.1187H21.7553V20.0976H21.7764V20.0553H21.7975V20.0342H21.8187V20.0131H21.8398V19.992H21.8609V19.9709H21.882V19.9286H21.9032V19.9075H21.9243V19.8652H21.9454V19.8441H21.9665V19.8019H21.9876V19.7808H22.0088V19.7385H22.0299V19.7174H22.051V19.6752H22.0721V19.6329H22.0932V19.5907H22.1144V19.5484H22.1355V19.5062H22.1566V19.4639H22.1777V19.4217H22.1989V19.3583H22.22V19.295H22.2411V19.2316H22.2622V19.1682H22.2833V19.1049H22.3045V19.0415H22.3256V18.9359H22.3467V18.8303H22.3678V18.7036H22.3889V18.3867H22.4101V18.1966H22.3889V18.0065H22.3678V17.9009H22.3467V17.7953H22.3256V17.6897H22.3045V17.6264H22.2833V17.563H22.2622V17.5207H22.2411V17.4574H22.22V17.394H22.1989V17.3518H22.1777V17.3095H22.1566V17.2673H22.1355V17.225H22.1144V17.1617H22.0932V17.1194H22.0721V17.0772H22.051V17.0561H22.0299V17.0138H22.0088V16.9927H21.9876V16.9505H21.9665V16.9293H21.9454V16.8871H21.9243V16.866H21.9032V16.8237H21.882V16.8026H21.8609V16.7815H21.8398V16.7604H21.8187V16.7181H21.7975V16.697H21.7764V16.6759H21.7553V16.6548H21.7342V16.6336H21.7131V16.6125H21.6919V16.5914H21.6708V16.5492H21.6497V16.528H21.6075V16.5069H21.5863V16.4858H21.5652V16.4647H21.5441V16.4435H21.523V16.4224H21.5018V16.4013H21.4807V16.3802H21.4596V16.3591H21.4174V16.3379H21.3962V16.3168H21.3751V16.2957H21.354V16.2746H21.3117V16.2535H21.2906V16.2323H21.2484V16.2112H21.2273V16.1901H21.185V16.169H21.1639V16.1478H21.1217V16.1267H21.0794V16.1056H21.0583V16.0845H21.016V16.0634H20.9738V16.0422H20.9527V16.0211H20.9104V16H20.8682V15.9789H20.826V15.9578H20.8048V15.9366H20.7626V15.9155H20.7203V15.8944H20.6781V15.8733H20.657V15.8521H20.6147V15.831H20.5725V15.8099H20.5303V15.7888H20.5091V15.7677H20.4669V15.7465H20.4246V15.7254H20.4035V15.7043H20.3613V15.6832H20.319V15.662H20.2768V15.6409H20.2557V15.6198H20.2134V15.5987H20.1712V15.5776H20.1289V15.5564H20.1078V15.5353H20.0656V15.5142H20.0233V15.4931H19.9811V15.472H19.96V15.4508H19.9177V15.4297H19.8755V15.4086H19.8544V15.3875H19.8121V15.3663H19.7699V15.3452H19.7276V15.3241H19.7065V15.303H19.6643V15.2819H19.622V15.2607H19.5798V15.2396H19.5587V15.2185H19.5164V15.1974H19.4742V15.1763H19.4319V15.1551H19.4108V15.134H19.3686V15.1129H19.3263V15.0918H19.3052V15.0706H19.263V15.0495H19.2207V15.0284H19.1785V15.0073H19.1573V14.9862H19.1151V14.965H19.0729V14.9439H19.0306V14.9228H19.0095V14.9017H18.9673V14.8806H18.925V14.8594H18.9039V14.8383H18.8616V14.8172H18.8194V14.7961H18.7772V14.7749H18.756V14.7538H18.7138V14.7327H18.6716V14.7116H18.6293V14.6905H18.6082V14.6693H18.5659V14.6482H18.5237V14.6271H18.4815V14.606H18.4603V14.5848H18.4181V14.5637H18.3758V14.5426H18.3547V14.5215H18.3125V14.5004H18.2702V14.4792H18.228V14.4581H18.2069V14.437H18.1646V14.4159H18.1224V14.3948H18.0801V14.3736H18.059V14.3525H18.0168V14.3314H17.9745V14.3103H17.9323V14.2891H17.9112V14.268H17.8689V14.2469H17.8267V14.2258H17.8056V14.2047H17.7633V14.1835H17.7211V14.1624H17.6788V14.1413H17.6577V14.1202H17.6155V14.0991H17.5732V14.0779H17.531V14.0568H17.5099V14.0357H17.4676V14.0146H17.4254V13.9934H17.3831V13.9723H17.362V13.9512H17.3198V13.9301H17.2775V13.909H17.2564V13.8878H17.2142V13.8667H17.1719V13.8456H17.1297V13.8245H17.1086V13.8034H17.0663V13.7822H17.0241V13.7611H16.9818V13.74H16.9607V13.7189H16.9185V13.6977H16.8762V13.6766H16.8551V13.6555H16.8129V13.6344H16.7706V13.6133H16.7284V13.5921H16.7072V13.571H16.665V13.5499H16.6228V13.5288H16.5805V13.5076H16.5594V13.4865H16.5171V13.4654H16.4749V13.4443H16.4327V13.4232H16.4115V13.402H16.3693V13.3809H16.3271V13.3598H16.3059V13.3387H16.2637V13.3176H16.2214V13.2964H16.1792V13.2753H16.1581V13.2542H16.1158V13.2331H16.0736V13.2119H16.0314V13.1908H16.0102V13.1697H15.968V13.1486H15.9257V13.1275H15.8835V13.1063H15.8624V13.0852H15.8201V13.0641H15.7779V13.043H15.7568V13.0219H15.7145V13.0007H15.6723V12.9796H15.63V12.9585H15.6089V12.9374H15.5667V12.9162H15.5244V12.8951H15.4822V12.874H15.4611V12.8529H15.4188V12.8318H15.3766V12.8106H15.3343V12.7895H15.3132V12.7684H15.271V12.7473H15.2287V12.7261H15.2076V12.705H15.1654V12.6839H15.1231V12.6628H15.0809V12.6417H15.0598V12.6205H15.0175V12.5994H14.9753V12.5783H14.933V12.5572H14.9119V12.5361H14.8697V12.5149H14.8274V12.4938H14.8063V12.4727H14.7641V12.4516H14.7218V12.4304H14.6796V12.4093H14.6584V12.3882H14.6162V12.3671H14.574V12.346H14.5317V12.3248H14.5106V12.3037H14.4684V12.2826H14.4261V12.2615H14.3839V12.2404H14.3627V12.2192H14.3205V12.1981H14.2783V12.177H14.2571V12.1559H14.2149V12.1347H14.1727V12.1136H14.1304V12.0925H14.1093V12.0714H14.067V12.0503H14.0248V12.0291H13.9826V12.008H13.9614V11.9869H13.9192V11.9658H13.877V11.9447H13.8347V11.9235H13.8136V11.9024H13.7713V11.8813H13.7291V11.8602H13.708V11.839H13.6657V11.8179H13.6235V11.7968H13.5812V11.7757H13.5601V11.7546H13.5179V11.7334H13.4756V11.7123H13.4334V11.6912H13.4123V11.6701H13.37V11.6489H13.3278V11.6278H13.2855V11.6067H13.2644V11.5856H13.2222V11.5645H13.1799V11.5433H13.1588V11.5222H13.1166V11.5011H13.0743V11.48H13.0321V11.4589H13.011V11.4377H12.9687V11.4166H12.9265V11.3955H12.8842V11.3744H12.8631V11.3532H12.8209V11.3321H12.7786V11.311H12.7575V11.2899H12.7153V11.2688H12.673V11.2476H12.6308V11.2265H12.6097V11.2054H12.5674V11.1843H12.5252V11.1632H12.4829V11.142H12.4618V11.1209H12.4196V11.0998H12.3773V11.0787H12.3351V11.0575H12.314V11.0364H12.2717V11.0153H12.2295V10.9942H12.2083V10.9731H12.1661V10.9519H12.1239V10.9308H12.0816V10.9097H12.0605V10.8886H12.0183V10.8675H11.976V10.8463H11.9338V10.8252H11.9126V10.8041H11.8704V10.783H11.8282V10.7618H11.7859V10.7407H11.7648V10.7196H11.7225V10.6985H11.6803V10.6774H11.6592V10.6562H11.6169V10.6351H11.5747V10.614H11.5325V10.5929H11.5113V10.5717H11.4691V10.5506H11.4268V10.5295H11.3846V10.5084H11.3635V10.4873H11.3212V10.4661H11.279V10.445H11.2368V10.4239H11.2156V10.4028H11.1734V10.3817H11.1311V10.3605H11.11V10.3394H11.0678V10.3183H11.0255V10.2972H10.9833V10.276H10.9622V10.2549H10.9199V10.2338H10.8777V10.2127H10.8354V10.1916H10.8143V10.1704H10.7721V10.1493H10.7298V10.1282H10.7087V10.1071H10.6665V10.086H10.6242V10.0648H10.582V10.0437H10.5609V10.0226H10.5186V10.0015H10.4764V9.98034H10.4341V9.95922H10.413V9.9381H10.3708V9.91698H10.3285V9.89586H10.2863V9.87474H10.2652V9.85361H10.2229V9.83249H10.1807V9.81137H10.1596V9.79025H10.1173V9.76913H10.0751V9.74801H10.0328V9.72688H10.0117V9.70576H9.96946V9.68464H9.92722V9.66352H9.88497V9.6424H9.86385V9.62128H9.82161V9.60016H9.77936V9.57903H9.73712V9.55791H9.716V9.53679H9.67376V9.51567H9.63151V9.49455H9.61039V9.47343H9.56815V9.4523H9.52591V9.43118H9.48366V9.41006H9.46254V9.38894H9.4203V9.36782H9.37805V9.3467H9.33581V9.32557H9.31469V9.30445H9.27245V9.28333H9.2302V9.26221H9.18796V9.24109H9.16684V9.21997H9.1246V9.19885H9.08235V9.17772H9.06123V9.1566H9.01899V9.13548H8.97674V9.11436H8.9345V9.09324H8.91338V9.07212H8.87114V9.05099H8.82889V9.02987H8.78665V9.00875H8.76553V8.98763H8.72328V8.96651H8.68104V8.94539H8.65992V8.92426H8.61768V8.90314H8.57543V8.88202H8.53319V8.8609H8.51207V8.83978H8.46983V8.81866H8.42758V8.79754H8.38534V8.77641H8.36422V8.75529H8.32197V8.73417H8.27973V8.71305H8.23749V8.69193H8.21637V8.67081H8.17412V8.64968H8.13188V8.62856H8.11076V8.60744H8.06852V8.58632H8.02627V8.5652H7.98403V8.54408H7.96291V8.52295H7.92066V8.50183H7.87842V8.48071H7.83618V8.45959H7.81506V8.43847H7.77281V8.41735H7.73057V8.39622H7.68833V8.3751H7.66721V8.35398H7.62496V8.33286H7.58272V8.31174H7.5616V8.29062H7.51935V8.2695H7.47711V8.24837H7.43487V8.22725H7.41375V8.20613H7.3715V8.18501H7.32926V8.16389H7.28702V8.14277H7.2659V8.12164H7.22365V8.10052H7.18141V8.0794H7.13917V8.05828H7.11804V8.03716H7.0758V8.01604H7.03356V7.99491H7.01244V7.97379H6.97019V7.95267H6.92795V7.93155H6.88571V7.91043H6.86459V7.88931H6.82234V7.86819H6.7801V7.84706H6.73786V7.82594H6.69561V7.80482H6.65337V7.7837H6.61113V7.76258H6.54776V7.74146H6.4844V7.72033H6.42103V7.69921H6.35767V7.67809H6.2943V7.65697H6.23094V7.63585H6.12533V7.61473H6.01972V7.5936H5.91411V7.57248H5.68178V7.55136H5.44944V7.57248H5.23822V7.5936H5.11149V7.61473H5.00589V7.63585H4.9214V7.65697H4.83691V7.67809H4.77355V7.69921H4.71018V7.72033H4.66794V7.74146H4.60458V7.76258H4.54121V7.7837H4.49897V7.80482H4.45672V7.82594H4.41448V7.84706H4.37224V7.86819H4.33V7.88931H4.28775V7.91043H4.26663V7.93155H4.22439V7.95267H4.20327V7.97379H4.16102V7.99491H4.11878V8.01604H4.09766V8.03716H4.05541V8.05828H4.03429V8.0794H4.01317V8.10052H3.99205V8.12164H3.94981V8.14277H3.92869V8.16389H3.90756V8.18501H3.88644V8.20613H3.86532V8.22725H3.82308V8.24837H3.80196V8.2695H3.78083V8.29062H3.75971V8.31174H3.73859V8.33286H3.71747V8.35398H3.69635V8.3751H3.67523V8.39622H3.6541V8.41735H3.63298V8.45959H3.61186V8.48071H3.59074V8.50183H3.56962V8.52295H3.5485V8.54408H3.52738V8.58632H3.50625V8.60744H3.48513V8.62856H3.46401V8.67081H3.44289V8.69193H3.42177V8.71305H3.40065V8.75529H3.37952V8.79754H3.3584V8.81866H3.33728V8.8609H3.31616V8.90314H3.29504V8.92426H3.27392V8.96651H3.25279V9.02987H3.23167V9.07212H3.21055V9.11436H3.18943V9.1566H3.16831V9.19885H3.14719V9.26221H3.12607V9.32557H3.10494V9.38894H3.08382V9.4523H3.0627V9.53679H3.04158V9.62128H3.02046V9.74801H2.99934V9.89586H2.97821V26.8987H2.99934V27.0255H3.02046V27.1311H3.04158V27.2367H3.0627V27.3212H3.08382V27.3845H3.10494V27.4479H3.12607V27.5113H3.14719V27.5746H3.16831V27.638H3.18943V27.6802H3.21055V27.7225H3.23167V27.7647H3.25279V27.807H3.27392V27.8492H3.29504V27.8914H3.31616V27.9337H3.33728V27.9548H3.3584V27.9971H3.37952V28.0393H3.40065V28.0604H3.42177V28.0815H3.44289V28.1238H3.46401V28.1449H3.48513V28.1871H3.50625V28.2083H3.52738V28.2294H3.5485V28.2505H3.56962V28.2928H3.59074V28.3139H3.61186V28.335H3.63298V28.3561H3.6541V28.3772H3.67523V28.3984H3.69635V28.4195H3.71747V28.4406H3.73859V28.4617H3.75971V28.4829H3.78083V28.504H3.80196V28.5251H3.82308V28.5462H3.8442V28.5673H3.86532V28.5885H3.88644V28.6096H3.90756V28.6307H3.94981V28.6518H3.97093V28.6729H3.99205V28.6941H4.01317V28.7152H4.05541V28.7363H4.07654V28.7574H4.11878V28.7786H4.1399V28.7997H4.18214V28.8208H4.20327V28.8419H4.24551V28.863H4.26663V28.8842H4.30887V28.9053H4.35112V28.9264H4.39336V28.9475H4.4356V28.9686H4.47785V28.9898H4.52009V29.0109H4.58345V29.032H4.6257V29.0531H4.68906V29.0743H4.73131V29.0954H4.81579V29.1165H4.87916V29.1376H4.94252V29.1587H5.04813V29.1799H5.15374V29.201" fill="url(#paint0_linear)"/>
<defs>
<linearGradient id="paint0_linear" x1="25.7458" y1="-0.924594" x2="6.14606" y2="33.0232" gradientUnits="userSpaceOnUse">
<stop stop-color="#199ADC"/>
<stop offset="1" stop-color="#3246A0"/>
</linearGradient>
</defs>
</svg>
