<svg width="101" height="101" viewBox="0 0 101 101" fill="none" xmlns="http://www.w3.org/2000/svg">
<path d="M50.8 100.8C78.4142 100.8 100.8 78.4142 100.8 50.8C100.8 23.1858 78.4142 0.800003 50.8 0.800003C23.1858 0.800003 0.799988 23.1858 0.799988 50.8C0.799988 78.4142 23.1858 100.8 50.8 100.8Z" fill="#0174C3"/>
<path d="M78.4 54.7C77.4 44.4 70.4 37.4 65 30.1C67.3 26.7 72.4 27.8 76.2 28.6C71.4 25.3 65.7 23.2 59.6 22.7C48 22.6 38.9 29.2 30.3 36.7C25.2 34.8 28.7 29.3 28.8 25.5C24.4 31.6 23 38.3 23.1 45.3C23.3 51.5 25.9 57.6 29.4 63C31.9 65.8 34.4 68.7 36.9 71.6C34.4 75.8 29.5 73.9 25.7 73.2C31.7 77.6 38.4 79 45.4 78.9C51.6 78.7 57.6 76.1 63 72.5C65.8 70 68.7 67.5 71.6 65C74.1 67.9 74.6 72.7 73.1 76.2C77.5 70.1 79.1 62.7 78.4 54.7ZM70.2 55C68.1 57.7 65.4 60.9 65.4 60.9C62.8 63.9 60.4 65.4 59.4 66.2C55.8 69 51.4 70.5 47.1 70.7C47.1 70.7 46.6 70.7 46.1 70.6L46 70.5C43.9 68.4 41 65.4 41 65.4C39.4 63.5 38 62.6 35.9 59.6C33.3 55.9 31.6 51.6 31.4 47.2V45.7L36.5 41.2C42.4 36 48.7 31.5 56.7 31.4H57L60.9 36.5C64.7 41.7 69.7 46.5 70.3 53.8C70.2 53.8 70.3 54.9 70.2 55Z" fill="white"/>
</svg>
