<svg width="32" height="32" viewBox="0 0 32 32" fill="none" xmlns="http://www.w3.org/2000/svg">
<rect width="32" height="32" fill="#8DDEFF"/>
<path fill-rule="evenodd" clip-rule="evenodd" d="M24.8509 18.3918C24.7092 18.3598 24.5949 18.3232 24.4852 18.2775C24.412 18.2409 24.348 18.2043 24.2932 18.154C24.275 18.1385 24.2608 18.1186 24.2521 18.0963C24.2433 18.074 24.2401 18.0499 24.2429 18.026C24.2978 17.4455 24.2383 16.9289 24.2886 16.3575C24.5218 14.0169 25.9938 14.7575 27.3149 14.378C28.0692 14.1632 28.828 13.7426 29.1069 12.9152C29.1526 12.778 29.1115 12.6318 29.0155 12.5266C28.1637 11.5548 27.2036 10.6836 26.1538 9.93004C22.6085 7.46237 18.2624 6.42401 13.9846 7.02261C13.9485 7.02693 13.9141 7.04036 13.8846 7.06163C13.855 7.08289 13.8314 7.1113 13.8159 7.1442C13.8003 7.17709 13.7934 7.21339 13.7957 7.24969C13.7981 7.28599 13.8096 7.32111 13.8292 7.35175C14.345 8.15497 15.0338 8.83281 15.8452 9.33575C15.9915 9.42718 15.932 9.62375 15.7629 9.58261C15.2744 9.47523 14.8116 9.27335 14.4006 8.98832C14.3779 8.97336 14.3518 8.96427 14.3246 8.96187C14.2975 8.95948 14.2702 8.96386 14.2452 8.97461L13.4726 9.28547C13.439 9.29918 13.4095 9.32139 13.3869 9.34991C13.3644 9.37843 13.3497 9.4123 13.3442 9.44821C13.3386 9.48412 13.3425 9.52085 13.3554 9.55482C13.3683 9.58879 13.3898 9.61884 13.4178 9.64204C14.4414 10.5291 15.72 11.0686 17.0697 11.1828C18.4194 11.297 19.7705 10.98 20.9286 10.2775C21.0749 10.186 21.308 10.3689 21.2623 10.5335C21.1846 10.794 21.0978 11.1552 21.0063 11.6443C20.412 14.6295 18.7115 14.4009 16.604 13.6466C12.3983 12.1198 10.0075 13.4226 7.88633 10.8443C7.73547 10.6615 7.4749 10.602 7.30118 10.7529C7.06514 10.9538 6.8792 11.2069 6.75812 11.4922C6.63704 11.7775 6.58416 12.0871 6.60368 12.3964C6.62321 12.7057 6.7146 13.0062 6.8706 13.274C7.0266 13.5419 7.2429 13.7696 7.50233 13.9392C7.5709 13.9849 7.65776 13.9666 7.70804 13.9072C7.84061 13.738 7.94576 13.6329 8.0829 13.5598C8.22461 13.4866 8.29776 13.6969 8.17433 13.802C7.72176 14.1998 7.59376 14.6752 7.30118 15.6169C6.8349 17.0843 7.03147 18.5883 4.86918 18.9815C3.72633 19.0409 3.74461 19.818 3.32861 20.9746C2.84404 22.3735 2.21318 22.986 1.0429 24.2112C0.878328 24.3758 0.864613 24.6455 1.0429 24.7963C1.50918 25.194 1.99376 25.2169 2.4829 25.0158C3.6989 24.5038 4.63604 22.9312 5.51833 21.9118C6.50118 20.778 8.86004 21.2626 10.6429 20.1518C11.6029 19.562 12.1835 18.8078 12.0006 17.6832C11.9686 17.5003 12.1789 17.3906 12.252 17.5598C12.3938 17.8798 12.4898 18.218 12.5263 18.5655C12.54 18.6615 12.6178 18.73 12.7138 18.7255C14.6429 18.6158 17.1343 20.7415 19.4658 21.3175C19.6075 21.354 19.708 21.1895 19.6303 21.066C19.344 20.6341 19.138 20.154 19.0223 19.6489C18.9766 19.4706 19.2418 19.4203 19.3332 19.5849C19.6797 20.2121 20.1772 20.743 20.7807 21.1293C21.3842 21.5157 22.0745 21.7453 22.7892 21.7975C23.356 21.8432 23.9778 21.7746 24.6269 21.578C25.404 21.3449 26.1218 21.0432 26.9766 21.2078C27.2953 21.2569 27.601 21.3691 27.8757 21.5379C28.1504 21.7066 28.3887 21.9286 28.5766 22.1906C29.0932 22.9495 30.1903 23.1506 30.7755 22.3552C30.8137 22.3013 30.8371 22.2384 30.8436 22.1726C30.85 22.1069 30.8391 22.0406 30.812 21.9803C29.5229 18.9632 26.2543 18.7575 24.8463 18.3918H24.8509Z" fill="white"/>
</svg>
