<?xml version="1.0" encoding="UTF-8" standalone="no"?>
<!DOCTYPE svg PUBLIC "-//W3C//DTD SVG 1.1//EN" "http://www.w3.org/Graphics/SVG/1.1/DTD/svg11.dtd">
<svg width="100%" height="100%" viewBox="0 0 120 120" version="1.1" xmlns="http://www.w3.org/2000/svg" xmlns:xlink="http://www.w3.org/1999/xlink" xml:space="preserve" xmlns:serif="http://www.serif.com/" style="fill-rule:evenodd;clip-rule:evenodd;stroke-linejoin:round;stroke-miterlimit:2;">
    <g id="Layer1">
        <rect x="0" y="0" width="120" height="120"/>
    </g>
    <g id="Group" transform="matrix(2.30504,0,0,2.30504,-2598.86,1052.32)">
        <g id="Group1" serif:id="Group">
            <g transform="matrix(1,0,0,1,1130,-454)">
                <g id="Vector">
                    <path id="path1_fill" d="M33.885,2.378C22.189,-3.248 8.058,1.453 2.406,12.859C-3.324,24.265 1.543,38.137 13.161,43.763C16.537,45.382 20.069,46.152 23.602,46.152C23.916,46.615 24.465,47 25.093,47C26.114,47 26.899,46.229 26.899,45.227C26.899,44.226 26.114,43.455 25.093,43.455C24.465,43.455 23.916,43.763 23.602,44.303C20.383,44.303 17.086,43.609 14.025,42.145C3.27,36.981 -1.126,24.188 4.133,13.707C9.393,3.225 22.346,-1.09 33.022,4.073C43.149,8.928 47.623,20.643 43.62,30.816C42.756,30.893 42.05,31.664 42.05,32.588C42.05,33.59 42.835,34.361 43.855,34.361C44.876,34.361 45.661,33.59 45.661,32.588C45.661,32.203 45.582,31.895 45.347,31.664C49.821,20.489 44.954,7.695 33.885,2.378Z" style="fill:rgb(255,230,63);fill-rule:nonzero;"/>
                </g>
            </g>
            <g transform="matrix(1,0,0,1,1141.75,-443.067)">
                <g id="Vector1" serif:id="Vector">
                    <path id="path2_fill" d="M1.806,15.644C0.785,15.644 0,16.415 0,17.417C0,18.341 0.785,19.189 1.727,19.189C2.905,20.807 4.475,22.118 6.28,23.042C8.007,23.89 9.891,24.276 11.697,24.276C16.25,24.276 20.646,21.809 22.844,17.494C24.335,14.565 24.492,11.328 23.472,8.245C22.373,5.163 20.175,2.696 17.192,1.232C11.069,-1.696 3.69,0.77 0.628,6.781L0.393,7.166L0.471,7.166C0.157,7.783 -0.079,8.631 0.55,8.939L7.065,11.405C7.065,11.636 6.987,11.868 6.987,12.099C6.987,14.642 9.106,16.723 11.697,16.723C14.287,16.723 16.407,14.642 16.407,12.099C16.407,9.556 14.287,7.475 11.697,7.475C10.127,7.475 8.714,8.245 7.85,9.401L2.512,7.398C3.768,5.086 5.809,3.313 8.321,2.465C10.912,1.618 13.738,1.772 16.25,2.928C21.352,5.394 23.472,11.482 20.96,16.492C19.782,18.958 17.663,20.73 14.994,21.655C12.403,22.503 9.577,22.349 7.065,21.193C5.574,20.499 4.318,19.42 3.297,18.11C3.376,17.879 3.454,17.648 3.454,17.417C3.611,16.492 2.748,15.644 1.806,15.644Z" style="fill:rgb(255,230,63);fill-rule:nonzero;"/>
                </g>
            </g>
            <g transform="matrix(1,0,0,1,1135.27,-449.619)">
                <g id="Vector2" serif:id="Vector">
                    <path id="path3_fill" d="M34.115,8.94C34.115,7.938 33.33,7.167 32.309,7.167C31.289,7.167 30.504,7.938 30.504,8.94C30.504,9.865 31.289,10.635 32.231,10.712C34.9,15.259 35.135,20.885 32.78,25.664C30.818,29.517 27.52,32.368 23.438,33.679C19.356,35.066 14.96,34.758 11.114,32.908C3.107,29.055 -0.191,19.498 3.735,11.637C6.09,6.936 10.721,3.699 15.902,2.929C16.216,3.314 16.687,3.545 17.237,3.545C18.257,3.545 19.042,2.774 19.042,1.773C19.042,0.771 18.257,-0 17.237,-0C16.53,-0 15.981,0.385 15.667,0.925C9.779,1.773 4.52,5.472 1.851,10.79C-0.269,15.105 -0.583,19.961 0.987,24.508C2.557,29.055 5.854,32.677 10.172,34.835C12.762,36.068 15.51,36.684 18.179,36.684C24.93,36.684 31.446,32.985 34.586,26.666C37.255,21.271 37.019,14.874 33.958,9.711C34.036,9.479 34.115,9.248 34.115,8.94Z" style="fill:rgb(255,230,63);fill-rule:nonzero;"/>
                </g>
            </g>
        </g>
    </g>
</svg>
