<svg width="32" height="32" viewBox="0 0 32 32" fill="none" xmlns="http://www.w3.org/2000/svg">
<path d="M4.73599 30.432C6.73599 30.432 8.352 28.816 8.352 26.816C8.352 24.816 6.73599 23.2 4.73599 23.2C2.73599 23.2 1.12 24.816 1.12 26.816C1.12 28.816 2.73599 30.432 4.73599 30.432Z" fill="#39C881"/>
<path d="M16.464 1.43994C8.44802 1.43994 1.96802 7.93594 1.96802 15.9359C1.96802 17.9359 2.36802 19.8399 3.10402 21.5679C3.61602 21.4079 4.17602 21.3279 4.73602 21.3279C7.77602 21.3279 10.24 23.7919 10.24 26.8319C10.24 27.5519 10.096 28.2239 9.85602 28.8479C11.84 29.8719 14.08 30.4479 16.464 30.4479C24.464 30.4479 30.96 23.9519 30.96 15.9519C30.96 7.91994 24.464 1.43994 16.464 1.43994ZM16.464 24.1279C11.936 24.1279 8.27202 20.4639 8.27202 15.9359C8.27202 11.4079 11.936 7.74394 16.464 7.74394C20.992 7.74394 24.656 11.4079 24.656 15.9359C24.656 20.4639 20.992 24.1279 16.464 24.1279Z" fill="#222F51"/>
</svg>
