<svg width="32" height="32" viewBox="0 0 32 32" fill="none" xmlns="http://www.w3.org/2000/svg">
<path fill-rule="evenodd" clip-rule="evenodd" d="M26.9862 17.6782C26.7862 18.196 26.5112 18.6468 26.1614 19.0305C25.8114 19.4149 25.3865 19.7153 24.8866 19.9322C24.3869 20.1493 23.837 20.2577 23.2371 20.2577C22.6372 20.2577 22.0913 20.1493 21.6 19.9322C21.1083 19.7153 20.6834 19.4149 20.3253 19.0305C19.9668 18.6468 19.688 18.196 19.488 17.6782C19.288 17.161 19.188 16.61 19.188 16.0253C19.188 15.4243 19.288 14.8651 19.488 14.3474C19.688 13.8301 19.9668 13.3793 20.3253 12.9951C20.6834 12.6112 21.1083 12.3105 21.6 12.0934C22.0913 11.8765 22.6372 11.7678 23.2371 11.7678C23.837 11.7678 24.3869 11.8765 24.8866 12.0934C25.3865 12.3105 25.8114 12.6112 26.1614 12.9951C26.5112 13.3793 26.7862 13.8301 26.9862 14.3474C27.1862 14.8651 27.2861 15.4243 27.2861 16.0253C27.2861 16.61 27.1862 17.161 26.9862 17.6782ZM12.5665 17.6782C12.3666 18.196 12.0916 18.6468 11.7417 19.0305C11.3918 19.4149 10.9669 19.7153 10.467 19.9322C9.96718 20.1493 9.41734 20.2577 8.81748 20.2577C8.21755 20.2577 7.67167 20.1493 7.1804 19.9322C6.68864 19.7153 6.26381 19.4149 5.90561 19.0305C5.54715 18.6468 5.26833 18.196 5.06833 17.6782C4.8684 17.161 4.76843 16.61 4.76843 16.0253C4.76843 15.4243 4.8684 14.8651 5.06833 14.3474C5.26833 13.8301 5.54715 13.3793 5.90561 12.9951C6.26381 12.6112 6.68864 12.3105 7.1804 12.0934C7.67167 11.8765 8.21755 11.7678 8.81748 11.7678C9.41734 11.7678 9.96718 11.8765 10.467 12.0934C10.9669 12.3105 11.3918 12.6112 11.7417 12.9951C12.0916 13.3793 12.3666 13.8301 12.5665 14.3474C12.7665 14.8651 12.8664 15.4243 12.8664 16.0253C12.8664 16.61 12.7665 17.161 12.5665 17.6782ZM31.3225 12.5317C30.8808 11.4548 30.2686 10.5242 29.4856 9.73933C28.7021 8.95463 27.7734 8.34107 26.6987 7.89863C25.624 7.45648 24.4618 7.23477 23.212 7.23477C21.9624 7.23477 20.8084 7.45648 19.7504 7.89863C18.6921 8.34107 17.7716 8.95463 16.9886 9.73933C16.6321 10.0966 16.3128 10.4856 16.0271 10.9032C15.7414 10.4856 15.4223 10.0966 15.0659 9.73933C14.2824 8.95463 13.3538 8.34107 12.279 7.89863C11.2043 7.45648 10.0422 7.23477 8.79236 7.23477C7.54276 7.23477 6.38875 7.45648 5.3308 7.89863C4.2725 8.34107 3.35195 8.95463 2.56899 9.73933C1.78561 10.5242 1.1733 11.4548 0.73198 12.5317C0.290241 13.6087 0.0695801 14.7732 0.0695801 16.0253C0.0695801 17.2775 0.290241 18.4338 0.73198 19.4939C1.1733 20.5544 1.78561 21.4768 2.56899 22.2612C3.35195 23.0462 4.2725 23.6597 5.3308 24.1019C6.38875 24.5441 7.54276 24.7655 8.79236 24.7655C10.0422 24.7655 11.2043 24.5441 12.279 24.1019C13.3538 23.6597 14.2824 23.0462 15.0659 22.2612C15.4223 21.9042 15.7414 21.5171 16.0271 21.1029C16.3128 21.5171 16.6321 21.9042 16.9886 22.2612C17.7716 23.0462 18.6921 23.6597 19.7504 24.1019C20.8084 24.5441 21.9624 24.7655 23.212 24.7655C24.4618 24.7655 25.624 24.5441 26.6987 24.1019C27.7734 23.6597 28.7021 23.0462 29.4856 22.2612C30.2686 21.4768 30.8808 20.5544 31.3225 19.4939C31.7638 18.4338 31.9849 17.2775 31.9849 16.0253C31.9849 14.7732 31.7638 13.6087 31.3225 12.5317Z" fill="url(#paint0_linear)"/>
<defs>
<linearGradient id="paint0_linear" x1="-3.04283" y1="11.9801" x2="24.1355" y2="30.6636" gradientUnits="userSpaceOnUse">
<stop stop-color="#FFF031"/>
</linearGradient>
</defs>
</svg>
