<svg width="32" height="32" viewBox="0 0 32 32" fill="none" xmlns="http://www.w3.org/2000/svg">
<path d="M16.9697 0.955826C9.02615 0.600062 2.25439 6.761 1.89862 14.7036C1.69439 19.0311 3.42615 23.0537 6.37862 25.8029L4.34192 31.353L10.0454 28.3488C11.7254 29.1638 13.6087 29.673 15.5946 29.7229C23.5382 30.0805 30.3099 23.9196 30.6657 15.9761C31.124 8.0843 24.9631 1.31253 16.9697 0.955826M22.7739 14.1436C21.9589 15.4669 19.7189 15.2636 19.2097 13.7869C19.2097 13.7869 18.5989 11.5977 16.2563 11.5469C13.9146 11.5469 13.3038 13.7869 13.3038 13.7869C12.7946 15.2636 10.5537 15.4669 9.73956 14.1436C9.23039 13.2777 9.43368 12.6659 9.53533 12.361C9.53533 12.361 11.2163 7.5243 16.2563 7.5243C21.2972 7.5243 22.9772 12.3619 22.9772 12.3619C23.0798 12.6669 23.2831 13.2777 22.7739 14.1436" fill="#FAB221"/>
</svg>
