<svg width="32" height="32" viewBox="0 0 32 32" fill="none" xmlns="http://www.w3.org/2000/svg">
<path fill-rule="evenodd" clip-rule="evenodd" d="M1.74545 23.8545C1.10275 23.8545 0.581818 23.3113 0.581818 22.6408V8.77733C0.581818 8.10697 1.10275 7.56363 1.74545 7.56363C2.38816 7.56363 2.90909 8.10697 2.90909 8.77733V22.6408C2.90909 23.3113 2.38816 23.8545 1.74545 23.8545Z" fill="#00B2A9"/>
<path fill-rule="evenodd" clip-rule="evenodd" d="M6.89484 23.8545H5.29908C4.6218 23.8545 4.07272 23.3115 4.07272 22.6412C4.07272 21.9711 4.6218 21.428 5.29908 21.428H6.89484C10.0818 21.428 12.6747 18.8625 12.6747 15.7094C12.6747 12.5559 10.0818 9.99041 6.89484 9.99041H5.29908C4.6218 9.99041 4.07272 9.44711 4.07272 8.77696C4.07272 8.10681 4.6218 7.56363 5.29908 7.56363H6.89484C11.4342 7.56363 15.1273 11.2178 15.1273 15.7094C15.1273 20.2006 11.4342 23.8545 6.89484 23.8545Z" fill="#34B233"/>
<path fill-rule="evenodd" clip-rule="evenodd" d="M23.8273 23.8545C23.3786 23.8545 22.949 23.5952 22.7468 23.1533L16.4028 9.29031C16.1247 8.68282 16.3828 7.96078 16.9792 7.67754C17.5754 7.39441 18.2841 7.65721 18.5623 8.26481L24.9064 22.1278C25.1843 22.7353 24.9262 23.4572 24.3299 23.7407C24.1673 23.8179 23.9958 23.8545 23.8273 23.8545Z" fill="#C70099"/>
<path fill-rule="evenodd" clip-rule="evenodd" d="M26.0801 19.2C25.9162 19.2 25.7501 19.1633 25.5919 19.0857C25.0129 18.8019 24.7624 18.0786 25.0325 17.4701L29.1184 8.2658C29.3887 7.65733 30.0768 7.39388 30.6557 7.67804C31.2348 7.96174 31.4852 8.68505 31.2151 9.29352L27.1292 18.498C26.9329 18.9401 26.5157 19.2 26.0801 19.2Z" fill="#6E2CA9"/>
</svg>
