<svg width="127" height="127" viewBox="0 0 127 127" fill="none" xmlns="http://www.w3.org/2000/svg">
<g clip-path="url(#clip0_10:208)">
<path d="M84.487 56.509C83.975 56.808 83.174 56.784 82.674 56.475L79.734 54.727C79.495 54.579 79.275 54.341 79.109 54.056C79.1 54.039 79.089 54.023 79.08 54.006C78.892 53.7 78.785 53.376 78.774 53.08L78.699 49.652C78.677 49.074 79.058 48.37 79.571 48.071L114.914 27.481L65.319 0.450994C64.773 0.146994 64.052 0.00200497 63.332 4.96722e-06C62.611 -0.000995033 61.889 0.148994 61.342 0.450994L11.746 27.482L67.306 59.826C67.821 60.108 68.212 60.777 68.212 61.379V108.564C68.212 109.157 67.789 109.837 67.27 110.114L64.28 111.774C64.031 111.906 63.716 111.976 63.385 111.976C63.366 111.976 63.346 111.976 63.328 111.976C62.969 111.984 62.635 111.913 62.374 111.774L59.374 110.113C58.864 109.842 58.448 109.158 58.448 108.564V66.501C58.421 66.193 58.196 65.817 57.949 65.676L9 37.181V92.993C8.999 94.242 9.88 95.782 10.959 96.414L61.373 126.146C61.912 126.461 62.622 126.619 63.331 126.617C64.041 126.615 64.75 126.466 65.289 126.146L115.709 96.414C116.784 95.775 117.663 94.244 117.661 92.993V37.181L84.487 56.509Z" fill="url(#paint0_linear_10:208)"/>
</g>
<defs>
<linearGradient id="paint0_linear_10:208" x1="9.52856" y1="107.456" x2="64.5498" y2="61.2881" gradientUnits="userSpaceOnUse">
<stop stop-color="#A90034"/>
<stop offset="0.2717" stop-color="#BB0033"/>
<stop offset="0.7226" stop-color="#D30032"/>
<stop offset="1" stop-color="#DC0032"/>
</linearGradient>
<clipPath id="clip0_10:208">
<rect width="126.62" height="126.62" fill="white"/>
</clipPath>
</defs>
</svg>
