<svg width="32" height="32" viewBox="0 0 32 32" fill="none" xmlns="http://www.w3.org/2000/svg">
<rect width="32" height="32" fill="#BFD9E3"/>
<path d="M24.7223 11C23.6441 11 22.5845 11.4202 21.8038 12.1841C21.023 12.9481 20.5397 13.9985 20.4839 15.1062C20.3723 16.9969 18.8108 17.1879 18.0486 16.5386C17.6211 16.1757 17.082 16.0038 16.5429 16.0229C16.0038 16.042 15.4833 16.2712 15.0743 16.6532C14.3493 17.3407 13.2339 17.0542 13.048 15.8701C12.9551 15.2017 12.6204 14.6096 12.1371 14.1704C11.6352 13.7311 11.0217 13.5019 10.3711 13.5019C9.72045 13.5019 9.0884 13.7502 8.60507 14.1895C8.12174 14.6287 7.80571 15.2399 7.71276 15.8892C7.41533 18.1429 6.13264 18.3529 4.96149 17.9901C4.96149 17.9901 4.96149 17.9901 4.9429 17.9901C4.66405 17.8946 4.36662 17.8946 4.06918 17.9901C3.79034 18.0856 3.53008 18.2574 3.34419 18.4866C3.15829 18.7158 3.04675 19.0023 3.00957 19.3079C2.97239 19.6134 3.04675 19.919 3.17688 20.1864C3.30701 20.4538 3.53008 20.683 3.79034 20.8167C4.05059 20.9694 4.34803 21.0267 4.64546 20.9885C4.9429 20.9503 5.22174 20.8358 5.44482 20.6448C5.6679 20.4538 5.8352 20.1864 5.92815 19.8999C6.29995 18.6967 7.19225 17.7418 9.18135 18.754C9.68327 19.0214 10.2781 19.0978 10.8358 19.0023C11.3935 18.9068 11.914 18.6203 12.323 18.2193C13.1595 17.3598 14.2377 17.7991 14.4236 18.7922C14.5166 19.327 14.7954 19.7853 15.2044 20.1291C15.6134 20.4729 16.1153 20.6639 16.6358 20.6639C17.1563 20.6639 17.6582 20.4729 18.0672 20.1291C18.4762 19.7853 18.755 19.3079 18.848 18.7922C19.0339 17.8182 20.3723 16.9205 21.6179 18.3147C22.1012 18.8495 22.6961 19.2506 23.3653 19.4798C24.0345 19.7089 24.7409 19.7662 25.4473 19.6516C26.1351 19.5371 26.8044 19.2315 27.3621 18.7922C27.9198 18.3529 28.3659 17.7609 28.6448 17.0924C28.9236 16.424 29.0537 15.6982 28.9794 14.9725C28.9236 14.2468 28.6819 13.5592 28.3101 12.9481C27.9198 12.3369 27.3992 11.8403 26.7672 11.4966C26.1166 11.191 25.4287 11 24.7223 11Z" fill="black"/>
</svg>
