<svg width="109" height="110" viewBox="0 0 109 110" fill="none" xmlns="http://www.w3.org/2000/svg">
<path d="M90.36 1C90.7823 1.00232 91.2037 1.03911 91.62 1.11C93.19 1.47 93.88 2.91 93.07 4.11C92.8949 4.35192 92.7045 4.5824 92.5 4.8L65.61 35.39C65.3622 35.6506 65.1285 35.9244 64.91 36.21C63.91 37.58 64.91 39.21 66.81 39.36C67.11 39.36 67.7 39.36 67.7 39.36H76.91C76.91 39.36 77.51 39.36 77.8 39.36C79.6 39.55 80.53 41.2 79.58 42.54C79.36 42.85 78.82 43.42 78.82 43.42L59 65.83C58.7584 66.0941 58.5314 66.3712 58.32 66.66C57.46 68 58.46 69.58 60.24 69.66C60.73 69.66 61.24 69.66 61.71 69.66C62.1796 69.6424 62.6446 69.7591 63.0502 69.9964C63.4558 70.2338 63.7853 70.5819 64 71C64.1825 71.3842 64.2254 71.82 64.1213 72.2325C64.0173 72.6449 63.7729 73.0083 63.43 73.26C63.25 73.43 62.88 73.74 62.88 73.74L22.7 108.34C22.4287 108.588 22.145 108.821 21.85 109.04C21.6327 109.181 21.3791 109.256 21.12 109.256C20.8609 109.256 20.6073 109.181 20.39 109.04C20.2229 108.931 20.0951 108.771 20.025 108.584C19.9548 108.397 19.9461 108.192 20 108C20.118 107.706 20.2515 107.419 20.4 107.14L33 81C33 81 33.25 80.5 33.37 80.24C33.586 79.9064 33.7072 79.5203 33.7206 79.123C33.7339 78.7258 33.6388 78.3324 33.4457 77.9851C33.2525 77.6377 32.9684 77.3495 32.6239 77.1513C32.2793 76.9531 31.8874 76.8524 31.49 76.86C31.26 76.86 30.76 76.86 30.76 76.86H21.94C21.94 76.86 21.21 76.86 20.86 76.8C19.3 76.54 18.48 75.24 19.07 73.97C19.2 73.68 19.54 73.13 19.54 73.13L35.23 46.83C35.23 46.83 35.42 46.53 35.5 46.37C36.35 44.82 35.32 43.37 33.34 43.28C32.52 43.28 30.89 43.28 30.89 43.28H23C22.4426 43.334 21.8845 43.1845 21.4287 42.8592C20.9729 42.5339 20.6502 42.0547 20.52 41.51C20.4934 40.9653 20.6638 40.4293 21 40C22.6 37.2 24.1933 34.3933 25.78 31.58L41.48 3.86L41.87 3.17999C42.2615 2.47676 42.8463 1.90048 43.5553 1.51942C44.2642 1.13837 45.0675 0.968526 45.87 1.03H90.39L90.36 1Z" fill="black"/>
</svg>
