<svg width="32" height="32" viewBox="0 0 32 32" fill="none" xmlns="http://www.w3.org/2000/svg">
<path d="M27.0769 19.0769H23.7538C23.7538 19.2 23.7538 19.3231 23.7538 19.4462C23.7538 24.3692 19.6923 27.3231 16 27.3231C12.3077 27.3231 8.24614 24.3692 8.24614 19.4462C8.24614 19.3231 8.24614 19.2 8.24614 19.0769H4.92307C4.92307 19.2 4.92307 19.3231 4.92307 19.4462C4.92307 26.2154 10.4615 30.6462 16 30.6462C21.5385 30.6462 27.0769 26.2154 27.0769 19.4462C27.0769 19.3231 27.0769 19.2 27.0769 19.0769Z" fill="#F224F2"/>
<path d="M16 5.41539L18.3384 8.61539H22.5231C20.5538 6.03077 18.4615 3.44616 16 1.23077C13.5384 3.44616 11.4461 6.03077 9.4769 8.61539H13.6615L16 5.41539Z" fill="#F224F2"/>
<path d="M9.35384 16.1231C10.5774 16.1231 11.5692 15.1312 11.5692 13.9077C11.5692 12.6842 10.5774 11.6923 9.35384 11.6923C8.13032 11.6923 7.13846 12.6842 7.13846 13.9077C7.13846 15.1312 8.13032 16.1231 9.35384 16.1231Z" fill="#F224F2"/>
<path d="M16 16.1231C17.2235 16.1231 18.2154 15.1312 18.2154 13.9077C18.2154 12.6842 17.2235 11.6923 16 11.6923C14.7765 11.6923 13.7846 12.6842 13.7846 13.9077C13.7846 15.1312 14.7765 16.1231 16 16.1231Z" fill="#F224F2"/>
<path d="M22.6461 16.1231C23.8697 16.1231 24.8615 15.1312 24.8615 13.9077C24.8615 12.6842 23.8697 11.6923 22.6461 11.6923C21.4226 11.6923 20.4308 12.6842 20.4308 13.9077C20.4308 15.1312 21.4226 16.1231 22.6461 16.1231Z" fill="#F224F2"/>
</svg>
