<svg width="32" height="32" viewBox="0 0 32 32" fill="none" xmlns="http://www.w3.org/2000/svg">
<path fill-rule="evenodd" clip-rule="evenodd" d="M16 32C16 32 5.176 32 1.33333 32C0.979556 32 0.640457 31.8578 0.390679 31.6089C0.140457 31.3601 0 31.0222 0 30.6667C0 25.4622 0 6.53778 0 1.33333C0 0.977778 0.140457 0.639948 0.390679 0.391059C0.640457 0.14217 0.979556 0 1.33333 0C4.70978 0 13.5049 0 16 0C24.8307 0 32 7.16889 32 16C32 24.8311 24.8307 32 16 32ZM16 4C22.6231 4 28 9.37778 28 16C28 22.6222 22.6231 28 16 28H5.33333C4.59689 28 4 27.4044 4 26.6667C4 23.92 4 17.7378 4 16C4 9.37778 9.37689 4 16 4ZM16 24C20.4156 24 24 20.4133 24 16C24 11.5867 20.4151 8 16 8C11.5844 8 8 11.5867 8 16C8 16.9822 8 20.6578 8 22.6667C8 23.4044 8.59689 24 9.33333 24C11.6089 24 16 24 16 24ZM16 12C18.2076 12 20 13.7911 20 16C20 18.2089 18.2076 20 16 20C15.6733 20 13.9689 20 12.8929 20C12.3995 20 12 19.6001 12 19.1068C12 18.0801 12 16.4711 12 16C12 13.7911 13.7924 12 16 12Z" fill="#0088FF"/>
</svg>
