<svg width="32" height="32" viewBox="0 0 32 32" fill="none" xmlns="http://www.w3.org/2000/svg">
<path d="M28.5404 14.6161C27.9783 5.81355 21.881 0.609663 11.9913 0.609663H4.88985C4.56162 0.58263 4.23609 0.687076 3.98486 0.90003C3.73363 1.11298 3.57728 1.41701 3.55018 1.74523C3.54455 1.81228 3.54455 1.87969 3.55018 1.94674V30.0021C3.52389 30.3303 3.62902 30.6555 3.84245 30.9063C4.05587 31.157 4.36014 31.3127 4.68834 31.3392C4.75541 31.3444 4.82278 31.3444 4.88985 31.3392H11.9913C20.0821 31.3392 25.6336 27.8546 27.6946 21.766H25.9606V14.6161H28.5404ZM12.6044 24.4531H11.0477V7.49572H12.6044C19.9809 7.49572 21.0801 12.8077 21.0801 15.9714C21.0801 21.3604 17.99 24.4471 12.6044 24.4471" fill="#172742"/>
</svg>
