<svg width="293" height="293" viewBox="0 0 293 293" fill="none" xmlns="http://www.w3.org/2000/svg">
<path d="M190.297 60.055C170.457 40.2244 151.527 21.3203 145.894 0C140.26 21.3203 121.328 40.2244 101.491 60.055C71.7361 89.7913 38 123.493 38 174.039C38 202.656 49.3677 230.1 69.6023 250.334C89.8369 270.569 117.281 281.937 145.897 281.937C174.513 281.937 201.957 270.569 222.192 250.334C242.426 230.1 253.794 202.656 253.794 174.039C253.794 123.496 220.061 89.7913 190.297 60.055V60.055ZM83.8596 199.181C77.2438 198.957 52.8276 156.872 98.1236 112.062L128.098 144.804C128.355 145.058 128.556 145.364 128.686 145.701C128.817 146.038 128.875 146.399 128.856 146.76C128.837 147.122 128.742 147.475 128.577 147.796C128.412 148.118 128.18 148.401 127.898 148.627C120.745 155.963 90.259 186.534 86.4698 197.105C85.6877 199.287 84.5454 199.205 83.8596 199.181H83.8596ZM145.897 254.648C141.024 254.648 136.199 253.688 131.696 251.823C127.194 249.958 123.103 247.225 119.657 243.779C116.212 240.333 113.478 236.242 111.613 231.74C109.748 227.238 108.789 222.412 108.789 217.539C108.789 208.144 112.524 199.771 118.038 193.028C124.729 184.846 145.892 161.833 145.892 161.833C145.892 161.833 166.731 185.184 173.697 192.95C179.764 199.695 183.085 208.467 183.006 217.539C183.006 227.381 179.096 236.82 172.137 243.779C165.178 250.738 155.739 254.648 145.897 254.648V254.648ZM216.923 194.471C216.123 196.22 214.309 199.14 211.86 199.229C207.495 199.388 207.029 197.152 203.803 192.377C196.72 181.895 134.906 117.293 123.345 104.799C113.175 93.8103 121.913 86.063 125.966 82.0031C131.051 76.9091 145.893 62.0754 145.893 62.0754C145.893 62.0754 190.151 104.067 208.587 132.759C227.023 161.45 220.669 186.278 216.923 194.471" fill="#009CDE"/>
</svg>
