<svg width="32" height="32" viewBox="0 0 32 32" fill="none" xmlns="http://www.w3.org/2000/svg">
<path d="M9.32117 30.1429C11.196 30.1505 13.0035 29.4445 14.3767 28.1681V29.5505H21.2886V1.90271H14.1795V11.3029C12.7895 10.0936 11.0057 9.43344 9.16324 9.44658C3.87027 9.44658 1.42033e-09 13.8702 1.42033e-09 19.9132C-8.64851e-05 25.7982 3.94958 30.1429 9.32117 30.1429ZM6.8723 19.7947C6.8723 17.7017 8.5312 16.0425 10.5455 16.0425C12.5597 16.0425 14.1792 17.7014 14.1792 19.7947C14.1792 21.9275 12.5598 23.5469 10.5455 23.5469C8.53111 23.5469 6.8723 21.9275 6.8723 19.7947Z" fill="black"/>
<path d="M31.9638 23.3015L25.1712 20.9626L22.8324 27.7552L29.6249 30.0941L31.9638 23.3015Z" fill="black"/>
</svg>
