<svg width="32" height="32" viewBox="0 0 32 32" fill="none" xmlns="http://www.w3.org/2000/svg">
<path d="M21.506 12.1118C21.2807 15.2603 18.5384 17.6116 15.4205 17.3849C12.6407 17.1567 10.4243 14.9188 10.1989 12.1118C10.1245 11.4669 10.6128 10.8986 11.2507 10.8228C11.8893 10.7463 12.4528 11.2402 12.528 11.8843V11.9226C12.6782 13.7807 14.2935 15.1845 16.1342 14.9946C17.7495 14.8429 19.0643 13.5532 19.177 11.9226C19.2146 11.2777 19.778 10.7845 20.4167 10.8603C21.0928 10.8986 21.5436 11.4676 21.506 12.1125V12.1118Z" fill="#146EB4"/>
<path d="M15.8336 0.695557C7.49486 0.695557 0.695557 7.56095 0.695557 16.0187C0.695557 24.4771 7.49486 31.3043 15.8336 31.3043C24.1731 31.3043 30.9717 24.4389 30.9717 16.0187C31.0093 7.56164 24.21 0.695557 15.8343 0.695557C15.8712 0.695557 15.8712 0.695557 15.8343 0.695557H15.8336ZM23.9477 21.7843C23.9477 23.0357 22.971 24.0222 21.7314 24.0222H9.97417C8.73451 24.0222 7.75782 22.9982 7.75782 21.7843V10.2156C7.75782 8.96408 8.77208 7.97764 9.97417 7.97764H21.7307C22.971 7.97764 23.9477 8.96408 23.9477 10.2156V21.7843V21.7843Z" fill="#146EB4"/>
</svg>
