<svg width="26" height="27" viewBox="0 0 26 27" fill="none" xmlns="http://www.w3.org/2000/svg">
<path d="M9.61819 9.99084C11.5182 11.8908 9.71819 16.6908 7.81819 18.5908C5.91819 20.4908 6.21819 15.4908 4.31819 13.5908C2.41819 11.6908 -1.98181 14.7908 1.01819 11.7908C2.91819 9.89084 7.71819 8.09084 9.61819 9.99084Z" fill="#1584C6"/>
<path d="M16.0182 9.69084C14.1182 11.5908 9.31818 9.79084 7.41818 7.89084C5.51818 5.99084 10.4182 6.19084 12.3182 4.39084C14.2182 2.59084 11.1182 -2.00916 14.1182 0.990841C16.0182 2.99084 17.8182 7.79084 16.0182 9.69084Z" fill="#51544B"/>
<path d="M16.3182 15.9908C14.4182 14.0908 16.2182 9.29084 18.1182 7.39084C20.0182 5.49084 19.7182 10.4908 21.6182 12.3908C23.5182 14.2908 27.9182 11.1908 24.9182 14.1908C23.0182 16.1908 18.2182 17.8908 16.3182 15.9908Z" fill="#1584C6"/>
<path d="M10.0182 16.3908C11.9182 14.4908 16.7182 16.2908 18.6182 18.1908C20.5182 20.0908 15.5182 19.7908 13.6182 21.6908C11.7182 23.5908 14.8182 27.9908 11.8182 24.9908C9.9182 23.0908 8.1182 18.2908 10.0182 16.3908Z" fill="#51544B"/>
</svg>
