<svg width="32" height="32" viewBox="0 0 32 32" fill="none" xmlns="http://www.w3.org/2000/svg">
<path d="M10.8342 2.66841C10.4234 4.84788 9.89089 8.06449 9.61703 11.3262C9.13015 17.098 9.43445 20.9459 9.43445 20.9459L1.23365 28.6568C1.23365 28.6568 0.594629 24.3279 0.275118 19.4579C0.0773247 16.4517 0.0164661 13.7913 0.00125122 12.1829C0.00125122 12.0928 0.046895 12.0026 0.046895 11.9124C0.046895 11.8072 0.183829 10.725 1.24887 9.73292C2.42041 8.63566 10.9559 2.02208 10.8342 2.66841Z" fill="#1496FF"/>
<path d="M10.8342 2.6684C10.4234 4.84788 9.89089 8.06448 9.61703 11.3262C9.61703 11.3262 0.53377 10.259 0.00125122 12.4234C0.00125122 12.3182 0.1534 10.9955 1.21844 9.98843C2.38998 8.87615 10.9559 2.02207 10.8342 2.6684Z" fill="#1284EA"/>
<path d="M0.00125043 11.9124C0.00125043 12.0627 0.00125043 12.228 0.00125043 12.4084C0.0925394 12.0176 0.244687 11.732 0.579413 11.3262C1.24887 10.4845 2.34433 10.259 2.78556 10.1989C5.00693 9.91329 8.29333 9.55255 11.595 9.46236C17.4527 9.28199 21.3172 9.76298 21.3172 9.76298L29.518 2.05214C29.518 2.05214 25.2122 1.24047 20.2978 0.669302C17.0875 0.29353 14.2575 0.0981286 12.6752 0.00794338C12.5687 0.00794338 11.4276 -0.142365 10.3625 0.864703C9.19101 1.96196 3.31808 7.46326 0.959784 9.68783C-0.0748245 10.6799 0.00125043 11.8072 0.00125043 11.9124Z" fill="#B4DC00"/>
<path d="M29.2289 21.7576C27.0076 22.0582 23.7364 22.419 20.4196 22.5242C14.5618 22.7196 10.6821 22.2386 10.6821 22.2386L2.46605 29.9494C2.46605 29.9494 6.81749 30.7912 11.7167 31.3473C14.714 31.693 17.3918 31.8734 19.0046 31.9636C19.1111 31.9636 19.3089 31.8734 19.4154 31.8734C19.5219 31.8734 20.663 31.678 21.728 30.6709C22.9148 29.5737 29.8832 21.6825 29.2289 21.7576Z" fill="#6F2DA8"/>
<path d="M29.2289 21.7576C27.0076 22.0582 23.7364 22.419 20.4196 22.5242C20.4196 22.5242 21.0586 31.5427 18.8372 31.9485C18.9437 31.9485 20.45 31.8734 21.515 30.8814C22.6866 29.7841 29.8832 21.6825 29.2289 21.7576Z" fill="#591F91"/>
<path d="M19.3393 31.9936C19.1872 31.9786 19.0198 31.9786 18.8372 31.9636C19.248 31.8884 19.5219 31.7532 19.9631 31.4525C20.8456 30.8212 21.1347 29.7691 21.2107 29.3332C21.6063 27.1537 22.1236 23.9371 22.3975 20.6754C22.8691 14.9035 22.5649 11.0707 22.5649 11.0707L30.7656 3.35983C30.7656 3.35983 31.3742 7.64363 31.709 12.5136C31.922 15.7002 31.9828 18.4959 31.9981 20.0591C31.9981 20.1643 32.0893 21.2917 31.0243 22.2987C29.8528 23.396 23.995 28.9273 21.6367 31.1519C20.5869 32.1289 19.4458 31.9936 19.3393 31.9936Z" fill="#73BE28"/>
</svg>
