<svg width="32" height="32" viewBox="0 0 32 32" fill="none" xmlns="http://www.w3.org/2000/svg">
<path d="M30.0948 8.82993C27.92 4.57215 23.8459 1.35141 18.7763 0.453634C18.154 0.341042 17.5318 0.269931 16.9155 0.234375L16.9392 8.86549L30.0948 8.82993Z" fill="black"/>
<path d="M16.9894 31.8165C21.4753 31.5409 25.5849 29.3572 28.3375 25.9409L16.9775 25.9676L16.9894 31.8165Z" fill="black"/>
<path d="M15.1644 31.8221L15.1496 25.9761L15.1437 24.151L15.1289 17.8398L9.69775 17.8547L9.71257 24.1658L9.7185 25.991L9.72738 30.551C10.8326 31.028 12.0059 31.3835 13.2415 31.6028C13.8874 31.7154 14.5274 31.7895 15.1644 31.8221V31.8221Z" fill="black"/>
<path d="M7.89635 25.9937L7.89043 24.1685L7.87561 17.8574L0.299316 17.8752C0.565983 20.133 1.31561 22.2752 2.45932 24.1804C2.84154 24.8174 3.26821 25.4248 3.74228 26.0056C4.89783 27.4308 6.30524 28.6574 7.91117 29.6174L7.89635 25.9937Z" fill="black"/>
<path d="M29.609 24.1185C30.5572 22.5244 31.2416 20.7319 31.5883 18.7911C31.6505 18.4593 31.6949 18.1304 31.7335 17.8044C31.8046 17.1911 31.8372 16.5837 31.8372 15.9793C31.8312 14.1304 31.5053 12.3319 30.8979 10.6519L16.9453 10.6844L16.9601 16.0119L16.9661 17.837L16.9809 24.1482L29.609 24.1185Z" fill="black"/>
<path d="M7.86662 16.0359L9.69181 16.03L15.1229 16.0152L15.1081 10.6877L15.1022 8.86256L15.0785 0.231445C9.44292 0.554408 4.39996 3.89367 1.87551 8.89811C1.58218 9.48182 1.31848 10.0952 1.09329 10.7263C0.80292 11.5411 0.577734 12.3855 0.42366 13.2626C0.257734 14.2018 0.177734 15.1352 0.177734 16.0537L7.86662 16.0359Z" fill="black"/>
</svg>
