<svg width="32" height="32" viewBox="0 0 32 32" fill="none" xmlns="http://www.w3.org/2000/svg">
<path d="M17.7106 23.6945C17.3979 23.4912 17.0019 23.3085 16.524 23.1499C16.1586 23.0239 15.8579 22.9052 15.6233 22.7906C15.3906 22.6772 15.2186 22.5512 15.1087 22.4186C14.9961 22.2833 14.9434 22.1213 14.9434 21.9353C14.9434 21.7865 14.988 21.6453 15.084 21.5113C15.178 21.378 15.3254 21.2666 15.5253 21.1826C15.7274 21.0973 15.9846 21.0513 16.304 21.0499C16.5613 21.0513 16.796 21.0719 17.0086 21.1086C17.2186 21.1465 17.4046 21.1925 17.5638 21.2453C17.7252 21.3 17.8558 21.3513 17.9585 21.3999L18.3139 20.3285C18.0992 20.2205 17.8299 20.1312 17.5032 20.0585C17.2259 19.9973 16.9085 19.9619 16.5479 19.9499V18.8413H15.5713V20.0053C15.4147 20.0306 15.2646 20.0648 15.1227 20.1061C14.7634 20.2121 14.4547 20.3595 14.1994 20.5515C13.946 20.7429 13.7501 20.9669 13.6154 21.2235C13.48 21.4801 13.4133 21.7628 13.4107 22.0668C13.4127 22.4188 13.5047 22.7287 13.6867 22.9967C13.8686 23.2648 14.128 23.4975 14.4627 23.6968C14.7962 23.8955 15.194 24.0668 15.6541 24.2108C15.9994 24.3214 16.2808 24.4367 16.4954 24.5554C16.7101 24.6734 16.8673 24.8035 16.9653 24.9454C17.0653 25.0874 17.1146 25.252 17.1126 25.4361C17.1126 25.6381 17.0534 25.8133 16.9373 25.9647C16.8227 26.114 16.6532 26.2313 16.4306 26.3147C16.208 26.3986 15.936 26.4401 15.6173 26.4427C15.358 26.4407 15.1067 26.4186 14.8614 26.3767C14.618 26.3327 14.3893 26.276 14.1787 26.2054C13.966 26.1347 13.7801 26.0581 13.6187 25.9721L13.2754 27.0882C13.4307 27.1735 13.6246 27.2501 13.8621 27.3209C14.0993 27.3922 14.3606 27.4489 14.6467 27.4921C14.9307 27.5342 15.2227 27.5554 15.5194 27.5581L15.5713 27.5573V28.7034H16.5479V27.4655C16.672 27.4415 16.7899 27.4127 16.9019 27.3795C17.2938 27.2616 17.6192 27.1008 17.8765 26.8948C18.1359 26.6908 18.3279 26.4541 18.4551 26.1874C18.5818 25.9208 18.6451 25.6387 18.6451 25.3381C18.6451 24.9861 18.5697 24.6748 18.4144 24.4067C18.2579 24.1358 18.0246 23.8991 17.7106 23.6945Z" fill="#1D2428"/>
<path d="M27.3134 4.68602C24.4186 1.79063 20.418 0 16.0006 0C11.582 0 7.58202 1.79063 4.68663 4.68602C1.79063 7.58141 0 11.582 0 16C0 20.418 1.79063 24.4186 4.68602 27.314C7.58141 30.21 11.582 32 16.0006 32C20.4186 32 24.4194 30.2086 27.314 27.314C30.2094 24.418 32 20.418 32 16C32 11.582 30.2086 7.58141 27.3134 4.68602ZM26.7854 26.7854C24.0254 29.5454 20.2121 31.2527 16 31.2527C11.7879 31.2527 7.97394 29.5454 5.21402 26.7854C2.4541 24.0253 0.746667 20.212 0.746667 16C0.746667 11.788 2.4541 7.97471 5.21402 5.21463C7.97394 2.45471 11.7874 0.747276 15.9994 0.747276C20.2114 0.747276 24.0247 2.45471 26.7848 5.21463C29.5448 7.97471 31.2521 11.788 31.2521 16C31.2527 20.212 29.5453 24.0253 26.7854 26.7854Z" fill="#1D2428"/>
<path d="M29.764 15.8667C29.6921 8.32602 23.558 2.23535 16.0007 2.23535C8.44271 2.23535 2.30801 8.32663 2.2373 15.8674L8.54862 9.55604L10.6653 11.6728L6.04668 16.2914H25.9546L21.336 11.6728L23.4527 9.55604L29.764 15.8667ZM16 13.5015L10.1354 7.34743H14.0327V4.31413C14.0327 3.52678 14.918 2.88145 16 2.88145C17.0821 2.88145 17.9674 3.52617 17.9674 4.31413V7.34743H21.8647L16 13.5015Z" fill="#1D2428"/>
</svg>
