<svg width="32" height="32" viewBox="0 0 32 32" fill="none" xmlns="http://www.w3.org/2000/svg">
<path d="M26.5142 31.679H5.65619C4.96113 31.6799 4.2727 31.5438 3.6303 31.2784C2.9879 31.013 2.40414 30.6235 1.91243 30.1323C1.42072 29.641 1.03071 29.0576 0.764725 28.4155C0.498735 27.7733 0.361987 27.085 0.362305 26.3899V5.53076C0.361988 4.836 0.498616 4.14799 0.764379 3.50607C1.03014 2.86415 1.41983 2.28091 1.91115 1.78969C2.40248 1.29848 2.98581 0.908929 3.62779 0.643312C4.26977 0.377696 4.95781 0.241224 5.65257 0.2417H26.5142C27.2089 0.241224 27.8968 0.377705 28.5387 0.643336C29.1807 0.908967 29.7639 1.29854 30.2551 1.78977C30.7464 2.281 31.1359 2.86425 31.4016 3.50616C31.6672 4.14807 31.8037 4.83605 31.8032 5.53076V26.3899C31.8056 27.0852 31.6704 27.774 31.4055 28.4168C31.1405 29.0596 30.751 29.6436 30.2594 30.1352C29.7678 30.6268 29.1838 31.0163 28.541 31.2813C27.8982 31.5462 27.2094 31.6814 26.5142 31.679V31.679Z" fill="#2F65CE"/>
<path d="M26.1482 21.213V10.9718C26.1467 10.7979 26.1003 10.6272 26.0136 10.4764C25.9268 10.3256 25.8027 10.1997 25.6531 10.1109L16.7946 4.99327C16.6434 4.90899 16.4732 4.86475 16.3001 4.86475C16.127 4.86475 15.9568 4.90899 15.8056 4.99327L6.92407 10.1326C6.77319 10.2196 6.64802 10.3449 6.56127 10.4959C6.47453 10.6469 6.4293 10.8182 6.43019 10.9924V21.2287C6.43171 21.4024 6.47795 21.5728 6.56446 21.7234C6.65097 21.8739 6.77482 21.9997 6.92407 22.0885L15.7839 27.2061C15.9348 27.2911 16.1051 27.3357 16.2783 27.3357C16.4516 27.3357 16.6219 27.2911 16.7728 27.2061L25.6326 22.0885C25.7876 22.0004 25.9168 21.8732 26.0073 21.7196C26.0978 21.566 26.1464 21.3913 26.1482 21.213Z" fill="#FF5588"/>
<path d="M19.5899 18.5189L22.0413 12.0465C22.0605 12.0005 22.0667 11.9501 22.059 11.9008C22.0513 11.8516 22.0301 11.8054 21.9978 11.7675C21.9691 11.7263 21.9305 11.6929 21.8856 11.6703C21.8407 11.6477 21.7908 11.6367 21.7406 11.6383H20.9013L20.8796 11.6166L17.9984 8.71847C17.9709 8.6895 17.9374 8.66684 17.9003 8.65204C17.8632 8.63724 17.8233 8.63065 17.7834 8.63274C17.7037 8.63418 17.6273 8.66467 17.5685 8.71847L16.4286 9.8584L15.2886 8.71847C15.2595 8.68785 15.2245 8.66348 15.1857 8.64682C15.1469 8.63016 15.1051 8.62157 15.0628 8.62157C15.0206 8.62157 14.9788 8.63016 14.94 8.64682C14.9012 8.66348 14.8661 8.68785 14.837 8.71847L11.9546 11.5949L11.9329 11.6166H11.2663L10.5418 8.69191V8.67017C10.4766 8.4987 10.4343 8.30791 10.3486 8.13281L9.80518 8.45523C9.84865 8.5627 9.89212 8.69674 9.95612 8.84285L12.6659 19.8315C12.8156 20.3906 12.9665 20.9932 13.6114 21.2721C13.3956 21.5147 13.2804 21.8303 13.2889 22.1549C13.2889 22.5084 13.4294 22.8475 13.6794 23.0975C13.9294 23.3475 14.2685 23.488 14.6221 23.488C14.9756 23.488 15.3147 23.3475 15.5647 23.0975C15.8148 22.8475 15.9552 22.5084 15.9552 22.1549C15.9501 21.9029 15.8758 21.6573 15.7403 21.4448H17.9139C17.7784 21.6573 17.704 21.9029 17.6989 22.1549C17.6989 22.5084 17.8394 22.8475 18.0894 23.0975C18.3394 23.3475 18.6785 23.488 19.032 23.488C19.3856 23.488 19.7247 23.3475 19.9747 23.0975C20.2247 22.8475 20.3652 22.5084 20.3652 22.1549C20.3673 21.9879 20.3363 21.8221 20.2742 21.6671C20.212 21.5121 20.1198 21.3709 20.0029 21.2516C20.0203 21.2186 20.0279 21.1813 20.0246 21.1441C20.0225 21.0592 19.9879 20.9783 19.9279 20.9181C19.868 20.8579 19.7872 20.823 19.7022 20.8205H14.4905C13.5449 20.8205 13.4375 20.4124 13.2648 19.6818L13.0233 18.7158H19.3025C19.364 18.7128 19.4234 18.6928 19.4741 18.6581C19.5249 18.6233 19.565 18.5751 19.5899 18.5189V18.5189ZM19.0308 21.4436C19.1713 21.4436 19.3085 21.4852 19.4253 21.5633C19.5421 21.6413 19.6331 21.7522 19.6868 21.8819C19.7406 22.0117 19.7546 22.1544 19.7272 22.2922C19.6998 22.4299 19.6322 22.5564 19.5329 22.6557C19.4336 22.755 19.3071 22.8226 19.1694 22.85C19.0316 22.8774 18.8889 22.8634 18.7591 22.8096C18.6294 22.7559 18.5185 22.6649 18.4405 22.5481C18.3624 22.4314 18.3208 22.2941 18.3208 22.1536C18.318 22.0596 18.3344 21.966 18.3691 21.8786C18.4037 21.7912 18.4559 21.7118 18.5224 21.6452C18.5889 21.5787 18.6684 21.5265 18.7558 21.4919C18.8432 21.4572 18.9368 21.4408 19.0308 21.4436V21.4436ZM14.6003 21.4436C14.7408 21.4434 14.8782 21.4848 14.9952 21.5627C15.1121 21.6406 15.2033 21.7514 15.2572 21.8811C15.3111 22.0108 15.3254 22.1536 15.2981 22.2914C15.2708 22.4292 15.2033 22.5559 15.1041 22.6553C15.0048 22.7547 14.8783 22.8225 14.7405 22.8499C14.6028 22.8774 14.4599 22.8635 14.3301 22.8097C14.2003 22.756 14.0893 22.665 14.0113 22.5482C13.9332 22.4315 13.8915 22.2941 13.8915 22.1536C13.8904 22.0602 13.9079 21.9674 13.9431 21.8809C13.9783 21.7943 14.0305 21.7156 14.0965 21.6495C14.1626 21.5833 14.2411 21.5311 14.3277 21.4957C14.4142 21.4603 14.5069 21.4426 14.6003 21.4436V21.4436ZM17.7834 9.379L20.0198 11.6154H18.1711L18.1493 11.5936L16.8585 10.3052L17.7834 9.379ZM15.052 9.379L16.1919 10.5189V10.5407H16.2136L17.3101 11.6371H12.8156L15.052 9.379ZM12.8591 18.0878L11.4185 12.2385H21.2889L19.0791 18.089L12.8591 18.0878Z" fill="white"/>
<path d="M10.344 8.1544L9.80541 8.47682C9.59047 8.00346 9.28979 7.83199 8.70896 7.83199H7.12465V7.85372C7.12465 7.98985 7.08428 8.12293 7.00865 8.23612C6.93302 8.34931 6.82552 8.43753 6.69975 8.48963C6.57398 8.54173 6.43559 8.55536 6.30207 8.5288C6.16855 8.50224 6.04591 8.43668 5.94965 8.34042C5.85339 8.24416 5.78783 8.12152 5.76127 7.988C5.73471 7.85448 5.74835 7.71609 5.80044 7.59032C5.85254 7.46455 5.94076 7.35705 6.05395 7.28142C6.16714 7.20579 6.30022 7.16542 6.43635 7.16542C6.50151 7.16187 6.56681 7.16922 6.62956 7.18715H8.68722C9.63394 7.20527 10.0856 7.61704 10.344 8.1544Z" fill="#FF5588"/>
</svg>
