<svg width="32" height="32" viewBox="0 0 32 32" fill="none" xmlns="http://www.w3.org/2000/svg">
<path d="M30.0463 10.6947C30.0463 10.2568 30.4 9.93683 30.8126 9.93683C31.2253 9.93683 31.5789 10.2568 31.5789 10.6947C31.5789 11.1326 31.2253 11.4526 30.8126 11.4526C30.4 11.4526 30.0463 11.1326 30.0463 10.6947ZM30.8126 11.3263C31.1579 11.3263 31.4274 11.0568 31.4274 10.6947C31.4274 10.3326 31.1579 10.0631 30.8126 10.0631C30.4674 10.0631 30.1979 10.3326 30.1979 10.6947C30.1979 11.0568 30.4674 11.3263 30.8126 11.3263ZM30.6526 11.1326H30.5179V10.2568H30.8463C31.0568 10.2568 31.1579 10.3326 31.1579 10.501C31.1579 10.661 31.0568 10.7284 30.9305 10.7452L31.1747 11.1326H31.0232L30.7958 10.7537H30.6442V11.1326H30.6526ZM30.8126 10.6358C30.9221 10.6358 31.0232 10.6274 31.0232 10.4926C31.0232 10.3831 30.9221 10.3663 30.8295 10.3663H30.6526V10.6358H30.8126Z" fill="#565B72"/>
<path d="M28.8421 16.3368C28.2274 15.8063 27.3937 15.5368 26.3326 15.5368H23.3011C22.9558 15.5368 22.6526 15.4105 22.4168 15.1663C22.1726 14.9221 22.0547 14.6105 22.0547 14.2568C22.0547 14.0884 22.0884 13.9284 22.1558 13.7768C22.2232 13.6252 22.3158 13.4905 22.4253 13.3726C22.5347 13.2547 22.6695 13.1621 22.8126 13.0947C22.9642 13.0273 23.1158 12.9937 23.2926 12.9937H23.9832V11.0652H23.5958C22.9811 11.0652 22.459 11.1494 22.0295 11.3179C21.5916 11.4863 21.2379 11.7221 20.96 12.0168C20.6821 12.3115 20.48 12.6568 20.3453 13.0358C20.2526 13.3221 20.1937 13.6168 20.1684 13.9368L19.6211 12.3873C19.4526 11.9073 19.1832 11.5621 18.8126 11.3431C18.4421 11.1242 18.0042 11.0063 17.4989 11.0063C16.9937 11.0063 16.5474 11.1242 16.1768 11.3515C15.7979 11.5873 15.5368 11.9326 15.3768 12.3789L14.8379 13.9115C14.8126 13.5831 14.7453 13.2715 14.6442 12.9852C14.5095 12.5894 14.2989 12.2442 14.0211 11.9579C13.7432 11.6715 13.3811 11.4526 12.9516 11.2926C12.5221 11.1326 12.0084 11.0568 11.4105 11.0568H8.21052V12.9768H11.7137C11.8821 12.9768 12.0421 13.0105 12.1937 13.0779C12.3453 13.1452 12.4716 13.2379 12.5811 13.3558C12.6905 13.4737 12.7832 13.6084 12.8505 13.76C12.9179 13.9115 12.9516 14.0716 12.9516 14.24C12.9516 14.6021 12.8337 14.9052 12.6063 15.1494C12.3705 15.4021 12.0758 15.52 11.7053 15.52H8.19368V17.44H11.6968C11.8653 17.44 12.0253 17.4737 12.1768 17.541C12.3284 17.6084 12.4547 17.701 12.5642 17.8189C12.6737 17.9368 12.7663 18.0716 12.8337 18.2231C12.9011 18.3747 12.9347 18.5347 12.9347 18.7031C12.9347 19.1073 12.8168 19.4358 12.5895 19.6884C12.3537 19.941 12.0589 20.0673 11.6884 20.0673H8.19368V21.9705H10.8295H14.0042L17.0779 13.2126C17.1116 13.0947 17.1537 13.0189 17.2211 12.9768C17.2884 12.9347 17.3558 12.9094 17.44 12.9094H17.5158C17.5916 12.9094 17.6589 12.9263 17.7179 12.9768C17.7853 13.0189 17.8358 13.1031 17.8947 13.2294L20.9684 21.9705H22.0547H22.9979H26.2905C27.3769 21.9705 28.2274 21.701 28.8337 21.1705C29.44 20.64 29.7432 19.84 29.7432 18.7873V18.7116C29.7684 17.6673 29.4569 16.8758 28.8421 16.3368ZM27.5116 19.7052C27.2926 19.9663 27.0063 20.0926 26.6695 20.0926H22.3411L21.12 16.6231C21.3558 16.8421 21.6505 17.0273 21.9874 17.1705C22.4253 17.3642 22.9642 17.4568 23.5958 17.4568H26.6695C27.0063 17.4568 27.2842 17.5831 27.5116 17.8442C27.7305 18.1052 27.8484 18.4084 27.8484 18.7537C27.8484 19.1326 27.739 19.4442 27.5116 19.7052Z" fill="#565B72"/>
<path d="M2.32421 11.301C1.88631 11.461 1.53263 11.68 1.25474 11.9663C0.97684 12.2526 0.766314 12.5979 0.631577 12.9937C0.488419 13.3895 0.421051 13.8189 0.421051 14.2905C0.421051 14.6779 0.513683 15.0821 0.690525 15.4947C0.867367 15.9074 1.17052 16.2358 1.59158 16.4968C1.17052 16.7495 0.867367 17.0779 0.690525 17.4905C0.513683 17.8947 0.421051 18.3242 0.421051 18.7705C0.421051 19.1747 0.479998 19.5705 0.606314 19.9495C0.724209 20.3368 0.926314 20.6821 1.19579 20.9852C1.46526 21.2884 1.81895 21.541 2.25684 21.7263C2.69474 21.9116 3.23368 22.0042 3.86526 22.0042H7.06526V20.101H3.57895C3.20842 20.101 2.90526 19.9747 2.67789 19.7221C2.4421 19.4695 2.33263 19.141 2.33263 18.7368C2.33263 18.5684 2.36631 18.4084 2.43368 18.2568C2.50105 18.1052 2.59368 17.9705 2.70316 17.8526C2.81263 17.7347 2.94737 17.6421 3.09052 17.5747C3.2421 17.5074 3.39368 17.4737 3.57052 17.4737H7.07368V15.5368H3.57895C3.20842 15.5368 2.90526 15.4105 2.67789 15.1663C2.4421 14.9221 2.33263 14.6105 2.33263 14.2568C2.33263 14.0884 2.36631 13.9284 2.43368 13.7768C2.50105 13.6252 2.59368 13.4905 2.70316 13.3726C2.81263 13.2547 2.94737 13.1621 3.09052 13.0947C3.2421 13.0274 3.39368 12.9937 3.57052 12.9937H7.07368V11.0652H3.87368C3.26737 11.0652 2.7621 11.1495 2.32421 11.301Z" fill="#565B72"/>
<path d="M26.4758 12.5305C26.4758 12.6063 26.4589 12.6652 26.4337 12.7242C26.4084 12.7831 26.3747 12.8337 26.3242 12.8758C26.2821 12.9179 26.2232 12.9516 26.1642 12.9684C26.1053 12.9937 26.0379 13.0021 25.9705 13.0021C25.8695 13.0021 25.7768 12.9768 25.7011 12.9263C25.6253 12.8758 25.5663 12.8 25.5326 12.7073L25.1453 11.52C25.1368 11.4779 25.12 11.4526 25.1032 11.4273C25.0863 11.4021 25.0611 11.3937 25.0274 11.3937C24.9347 11.3937 24.8842 11.4526 24.8842 11.5621V12.9852H24.5221V11.5284C24.5221 11.461 24.5305 11.3937 24.5558 11.3347C24.5811 11.2758 24.6147 11.2252 24.6568 11.1831C24.6989 11.141 24.7579 11.1073 24.8168 11.0905C24.8758 11.0652 24.9432 11.0568 25.0105 11.0568C25.1116 11.0568 25.1958 11.0821 25.28 11.1326C25.3558 11.1831 25.4147 11.2589 25.4484 11.3516L25.8358 12.5389C25.8526 12.581 25.8611 12.6063 25.8779 12.6231C25.8947 12.64 25.92 12.6484 25.9537 12.6484C26.0463 12.6484 26.0968 12.5895 26.0968 12.48V11.0484H26.459V12.5305H26.4758V12.5305Z" fill="#565B72"/>
<path d="M28.2947 11.4021H27.2842C27.2505 11.4021 27.2253 11.4105 27.2 11.4189C27.1747 11.4273 27.1495 11.4442 27.1326 11.4695C27.1158 11.4863 27.099 11.5116 27.0821 11.5368C27.0737 11.5621 27.0653 11.5958 27.0653 11.621C27.0653 11.6884 27.0821 11.7389 27.1242 11.781C27.1663 11.8231 27.2168 11.8484 27.2842 11.8484H28.2947V12.1852H27.2842C27.2505 12.1852 27.2253 12.1937 27.2 12.2021C27.1747 12.2105 27.1495 12.2273 27.1326 12.2526C27.1158 12.2695 27.099 12.2947 27.0821 12.32C27.0737 12.3452 27.0653 12.3789 27.0653 12.4042C27.0653 12.4716 27.0821 12.5305 27.1242 12.581C27.1663 12.6231 27.2168 12.6484 27.2842 12.6484H28.2947V12.9852H27.3347C27.2253 12.9852 27.1326 12.9684 27.0484 12.9347C26.9726 12.901 26.9053 12.8589 26.8632 12.8084C26.8126 12.7579 26.7789 12.6905 26.7621 12.6231C26.7368 12.5558 26.7284 12.4884 26.7284 12.4126C26.7284 12.3368 26.7453 12.261 26.779 12.1852C26.8126 12.1095 26.8632 12.0589 26.939 12.0084C26.8632 11.9663 26.8126 11.9073 26.779 11.8316C26.7453 11.7558 26.7284 11.6884 26.7284 11.621C26.7284 11.5368 26.7368 11.461 26.7621 11.3937C26.7874 11.3263 26.8211 11.2674 26.8716 11.2168C26.9221 11.1663 26.9811 11.1242 27.0568 11.0989C27.1326 11.0737 27.2253 11.0568 27.3263 11.0568H28.2863V11.4021H28.2947V11.4021Z" fill="#565B72"/>
<path d="M29.3221 12.9852H28.9853V11.4021H28.5053V11.0652H29.7684V11.4021H29.3221V12.9852Z" fill="#565B72"/>
</svg>
