<svg width="32" height="32" viewBox="0 0 32 32" fill="none" xmlns="http://www.w3.org/2000/svg">
<path d="M31.997 12.4885L26.9535 22.3937H25.1221L26.5726 19.6424L22.7823 12.4885H24.6902L27.484 18.0796L30.2694 12.4902L31.997 12.4885Z" fill="#7CBD27"/>
<path d="M20.3258 16.5356C18.8464 16.5849 17.9282 16.8502 17.9282 17.8246C17.9282 18.4554 18.4383 19.139 19.7069 19.139C21.4192 19.139 22.3341 18.2055 22.3341 16.6768V16.5067C21.7321 16.5084 20.9924 16.5135 20.3258 16.5356V16.5356ZM23.9631 18.5575C23.9631 19.0319 23.9767 19.5012 24.0175 19.9178H22.5041C22.4664 19.5791 22.4483 19.2384 22.4497 18.8976C21.6301 19.9059 20.654 20.1967 19.3004 20.1967C17.2888 20.1933 16.2124 19.139 16.2124 17.9045C16.2124 16.1275 17.6748 15.5 20.2136 15.4422C20.9074 15.4269 21.6879 15.4235 22.3324 15.4235V15.2535C22.3324 14.0632 21.5689 13.5734 20.2476 13.5734C19.2664 13.5734 18.5471 13.9798 18.4672 14.6821H16.7531C16.9351 12.9323 18.7733 12.4885 20.3904 12.4885C22.3273 12.4885 23.9614 13.1772 23.9614 15.2263L23.9631 18.5575Z" fill="#F8B100"/>
<path d="M12.4607 19.0756C13.9775 19.0756 15.0113 17.9839 15.0113 16.3379C15.0113 14.6918 13.9741 13.6001 12.4607 13.6001C10.9472 13.6001 9.90996 14.6918 9.90996 16.3379C9.90996 17.9839 10.9472 19.0756 12.4607 19.0756ZM8.27752 9.61426H9.90826V13.7124C10.7075 12.7601 11.8094 12.4829 12.8926 12.4829C14.7104 12.4829 16.7288 13.709 16.7288 16.3583C16.7288 18.5689 15.1236 20.1911 12.862 20.1911C11.6716 20.1911 10.5646 19.766 9.87765 18.926C9.87771 19.2584 9.85897 19.5905 9.82153 19.9208H8.2265C8.25371 19.4106 8.28262 18.7576 8.28262 18.2356L8.27752 9.61426Z" fill="#006CB8"/>
<path d="M6.51333 15.6701C6.45041 14.1397 5.34851 13.5734 4.17179 13.5734C2.90495 13.5734 1.88467 14.2111 1.71462 15.6701H6.51333ZM1.67551 16.7618C1.76394 18.2429 2.78421 19.1186 4.18879 19.1186C5.16146 19.1186 6.02699 18.7224 6.31607 17.8603H8.00633C7.66624 19.6016 5.81274 20.1967 4.2126 20.1967C1.30311 20.1967 0.0141602 18.5932 0.0141602 16.4336C0.0141602 14.053 1.34732 12.4885 4.23981 12.4885C6.54053 12.4885 8.22739 13.701 8.22739 16.3214V16.7618H1.67551Z" fill="#E83434"/>
</svg>
