<svg width="32" height="32" viewBox="0 0 32 32" fill="none" xmlns="http://www.w3.org/2000/svg">
<path d="M22.5707 27.7611C21.3504 27.7611 20.2901 26.8523 20.1024 25.6469L20.0875 25.5573H16.2944L16.2794 25.6469C16.0917 26.8523 15.0314 27.7611 13.8112 27.7611C12.5909 27.7611 11.5306 26.8523 11.3429 25.6469L11.328 25.5573H9.17972C8.94932 25.5573 8.75945 25.3696 8.75945 25.1392C8.75945 25.0795 8.77225 25.0219 8.79785 24.9664L8.80212 24.9557L8.80425 24.9451C8.80852 24.9259 8.81278 24.9045 8.82132 24.8853L10.2805 20.9195L10.2741 20.8683L6.01598 9.16693L4.52265 5.1072H1.48692C1.25652 5.1072 1.06665 4.91946 1.06665 4.68693C1.06665 4.4544 1.25438 4.26666 1.48692 4.26666H4.81705L4.85118 4.2688L4.89172 4.27306L4.93012 4.2816L4.95145 4.288L4.98985 4.30293L5.02612 4.32L5.05812 4.34133L5.07732 4.35413L5.10932 4.38186L5.13705 4.41173L5.16265 4.44373L5.18398 4.47573L5.19465 4.49493L5.21172 4.53546L6.41278 7.79946H30.3061C30.4426 7.79946 30.5706 7.8656 30.6496 7.97866C30.7285 8.09173 30.7477 8.23466 30.7008 8.36266L25.9776 21.3397C25.9178 21.504 25.76 21.6149 25.5829 21.6149H10.9184L9.77492 24.7211H11.3706L11.392 24.64C11.6779 23.5371 12.672 22.7669 13.8112 22.7669C14.9504 22.7669 15.9445 23.5371 16.2304 24.64L16.2517 24.7211H20.1323L20.1536 24.64C20.4373 23.5371 21.4336 22.7669 22.5728 22.7669C23.712 22.7669 24.7061 23.5371 24.992 24.64L25.0133 24.7211H26.6069C26.8373 24.7211 27.0272 24.9088 27.0272 25.1413C27.0272 25.3717 26.8394 25.5595 26.6069 25.5595H25.056L25.041 25.6491C24.8533 26.8523 23.7909 27.7611 22.5707 27.7611ZM22.5707 23.6053C21.9285 23.6053 21.3376 23.9829 21.0666 24.5675C20.9642 24.7893 20.9109 25.024 20.9109 25.2629C20.9109 25.4037 20.9301 25.5467 20.9685 25.6917C21.1626 26.4171 21.8219 26.9227 22.5707 26.9227C23.3195 26.9227 23.9786 26.4171 24.1728 25.6917C24.2112 25.5488 24.2304 25.4037 24.2304 25.2629C24.2304 25.0219 24.177 24.7872 24.0746 24.5675C23.8037 23.9829 23.2128 23.6053 22.5707 23.6053ZM13.8133 23.6053C13.1712 23.6053 12.5803 23.9829 12.3093 24.5675C12.2069 24.7893 12.1536 25.024 12.1536 25.2629C12.1536 25.4037 12.1728 25.5467 12.2112 25.6917C12.4053 26.4171 13.0645 26.9227 13.8133 26.9227C14.5621 26.9227 15.2213 26.4171 15.4155 25.6917C15.4539 25.5488 15.473 25.4037 15.473 25.2629C15.473 25.0219 15.4219 24.7872 15.3173 24.5675C15.0443 23.9829 14.4533 23.6053 13.8133 23.6053ZM21.8389 20.7744H25.2842L26.5301 17.3525H21.8389V20.7744V20.7744ZM15.2384 20.7744H21.0005V17.3525H15.2384V20.7744ZM11.1338 20.7744H14.4V17.3525H9.89012L11.1338 20.7744ZM21.8389 16.5141H26.8352L28.1258 12.9707H21.841V16.5141H21.8389ZM15.2384 16.5141H21.0005V12.9707H15.2384V16.5141ZM9.58292 16.5141H14.4V12.9707H8.29438L9.58292 16.5141ZM21.8389 12.1323H28.4309L29.7024 8.63786H21.8389V12.1323V12.1323ZM15.2384 12.1323H21.0005V8.63786H15.2384V12.1323ZM7.98932 12.1323H14.4V8.63786H6.71785L7.98932 12.1323Z" fill="#6E9737"/>
</svg>
