<svg width="32" height="32" viewBox="0 0 32 32" fill="none" xmlns="http://www.w3.org/2000/svg">
<path d="M27.3802 6.34912C27.3802 6.34912 29.064 18.8444 17.8818 22.151C16.8431 22.151 3.42085 23.812 2.99927 10.3618V23.139L17.8793 26.6666L28.3961 22.0952V6.75039L27.3802 6.34912Z" fill="black"/>
<path d="M28.3961 18.646V22.0949L17.8793 26.6663L2.9993 23.1387V19.0473C1.26978 20.1089 0.253906 21.3889 0.253906 22.7679C0.253906 26.4149 7.32946 29.3711 16.0558 29.3711C24.7822 29.3711 31.8577 26.4149 31.8577 22.7679C31.8603 21.2085 30.5599 19.7736 28.3961 18.646Z" fill="#FFCC00"/>
<path d="M17.8794 2.53955L2.99939 8.88876C2.53971 23.9059 15.8857 22.4557 17.8794 22.1484V2.53955Z" fill="#FFCC00"/>
<path d="M27.3804 6.34907L17.8794 2.53955V22.1484C29.5162 19.2608 27.3804 6.34907 27.3804 6.34907Z" fill="#FFCC00"/>
</svg>
