<svg width="66" height="66" viewBox="0 0 66 66" fill="none" xmlns="http://www.w3.org/2000/svg">
<g clip-path="url(#clip0_15:375)">
<path d="M65.1831 32.8828C65.1831 32.8178 65.1831 32.7538 65.1831 32.6888V32.4888C65.1831 32.4088 65.1831 32.3288 65.1781 32.2498C65.1781 32.1998 65.1781 32.1498 65.1781 32.1018C65.1731 31.9818 65.1671 31.8628 65.1611 31.7408V31.7258C64.9298 27.8745 63.2782 24.2458 60.5258 21.542C57.7735 18.8382 54.116 17.2514 50.2611 17.0888H50.2081C48.057 17.0119 45.9132 17.3809 43.9116 18.1725C41.91 18.9642 40.0937 20.1613 38.5771 21.6888C35.6199 24.8069 32.8971 28.1393 30.4311 31.6588L30.4391 31.6638C28.3076 34.6973 25.958 37.5715 23.4091 40.2638L23.3811 40.2928C22.309 41.3761 21.0239 42.2253 19.607 42.7869C18.1902 43.3485 16.6723 43.6103 15.1491 43.5558H15.1121C12.2482 43.4253 9.54699 42.1873 7.57846 40.1031C5.60993 38.0189 4.52804 35.2515 4.5611 32.3848C4.59657 30.1672 5.30155 28.0122 6.58353 26.2024C7.86551 24.3926 9.66462 23.0126 11.7448 22.2434C13.825 21.4743 16.0891 21.3519 18.2401 21.8923C20.3911 22.4327 22.3285 23.6107 23.7981 25.2718L27.2251 22.2788C25.8332 20.705 24.1386 19.4276 22.2424 18.5228C20.3462 17.6181 18.2871 17.1045 16.1881 17.0128C14.1147 16.9286 12.0455 17.2601 10.1021 17.9877C8.15876 18.7152 6.38061 19.8242 4.87228 21.2493C3.36396 22.6744 2.15596 24.3869 1.3194 26.2858C0.482836 28.1848 0.0346026 30.232 0.00109855 32.3068C-0.046952 36.3631 1.48293 40.2794 4.26782 43.2291C7.05271 46.1787 10.8747 47.9309 14.9271 48.1158H14.9801C17.1311 48.1928 19.2748 47.8239 21.2763 47.0323C23.2778 46.2406 25.0938 45.0434 26.6101 43.5158C29.7207 40.2015 32.5809 36.6607 35.1671 32.9228C37.18 30.1084 39.3888 27.4395 41.7771 24.9358L41.8061 24.9078C42.8782 23.8244 44.1632 22.9749 45.58 22.4131C46.9969 21.8513 48.5149 21.5894 50.0381 21.6438C50.0508 21.645 50.0635 21.645 50.0761 21.6438C52.7959 21.7685 55.3742 22.892 57.3174 24.799C59.2606 26.7061 60.4323 29.2628 60.6081 31.9798C60.6081 32.0098 60.6081 32.0388 60.6081 32.0688C60.6081 32.1278 60.6161 32.1888 60.6171 32.2488C60.6181 32.3088 60.6171 32.3488 60.6171 32.4068C60.6171 32.4448 60.6171 32.4848 60.6171 32.5238C60.6171 32.5788 60.6171 32.6368 60.6171 32.6928V32.8048L60.6111 32.9508C60.6111 32.9968 60.6111 33.0418 60.6111 33.0878C60.6111 33.1608 60.6051 33.2308 60.5991 33.3028C60.5991 33.3238 60.5991 33.3448 60.5991 33.3638C60.4058 36.2243 59.1047 38.8968 56.9722 40.8132C54.8397 42.7296 52.044 43.739 49.1791 43.6268C49.0711 43.6208 48.9641 43.6158 48.8581 43.6078L48.7861 43.6018C48.6911 43.5958 48.5981 43.5868 48.5031 43.5768L48.3771 43.5638L48.2251 43.5448C46.2186 43.2836 44.3226 42.4754 42.7447 41.2086C41.1668 39.9419 39.9679 38.2654 39.2791 36.3628L35.0041 37.9538C35.2703 38.6783 35.5888 39.3825 35.9571 40.0608H35.9511C37.1787 42.3069 38.9389 44.2174 41.0772 45.6244C43.2155 47.0315 45.6666 47.8921 48.2151 48.1308C48.2298 48.1317 48.2444 48.1317 48.2591 48.1308L48.4591 48.1478L48.5861 48.1558L48.7231 48.1648L48.9981 48.1778C53.1169 48.3427 57.1328 46.8666 60.1643 44.0734C63.1957 41.2802 64.995 37.3983 65.1671 33.2798C65.1671 33.2798 65.1671 33.2718 65.1671 33.2688C65.1671 33.2138 65.1671 33.1568 65.1671 33.0998C65.1671 33.0428 65.1731 32.9648 65.1731 32.8998V32.8868" fill="#002E4F"/>
</g>
<defs>
<clipPath id="clip0_15:375">
<rect width="65.18" height="65.18" fill="white"/>
</clipPath>
</defs>
</svg>
