<svg width="32" height="32" viewBox="0 0 32 32" fill="none" xmlns="http://www.w3.org/2000/svg">
<path d="M31.5467 16.32C31.3067 16.2933 30.8 16.0267 30.4267 14.6133C29.84 12.3467 29.5467 10.4267 28.56 10.4267C27.5467 10.4267 27.0933 12.3467 26.5067 14.6133C26.16 15.9467 25.7867 16.32 25.2 16.32C24.64 16.32 24.08 16.0533 23.2267 12.56C22.48 9.52 21.9733 4 19.4933 4C17.0133 4 16.2667 11.2 15.9467 12.5867C15.5467 14.2933 14.5867 16.32 13.36 16.32C12.1333 16.32 11.4933 14.9067 11.12 13.3867C10.56 11.0667 9.92 7.70667 8.29333 7.70667C6.66667 7.70667 6.13333 10.48 5.41333 13.5467C4.98667 15.3333 4.32 16.3467 3.12 16.3467H0.533333C0.879999 16.4533 1.54667 17.0133 1.73333 18.08C2.13333 20.64 2.45333 22.24 3.36 22.24C4.26667 22.24 4.58667 20.88 5.09333 18.7467C5.49333 17.0667 6.13333 16.3467 6.88 16.3467C8 16.3467 8.50667 17.68 9.12 20.2667C10.32 25.3867 10.5867 27.8667 12.5333 27.8667C14.4533 27.8667 14.7733 25.3867 16.0533 20.2667C16.6133 18.0533 17.68 16.3467 18.9067 16.3467C20.1333 16.3467 21.0133 17.9733 21.4667 19.28C22.4267 22.1067 22.88 23.1733 23.9467 23.1733C25.0133 23.1733 25.6267 21.8933 26.56 18.8C27.1467 16.8533 27.2267 16.32 28.9867 16.32H31.5467Z" fill="#E90029"/>
</svg>
