<svg width="32" height="32" viewBox="0 0 32 32" fill="none" xmlns="http://www.w3.org/2000/svg">
<g clip-path="url(#clip0_1601:9)">
<path d="M31.293 16.3721C30.2884 15.7395 30.0279 14.9953 30.0279 14.9581V14.9209C29.0977 12.3163 27.014 11.386 25.3395 11.3488C24 5.99067 17.3023 4.27905 15.4047 4.53951C13.693 4.72556 12.2791 4.16742 12.2419 4.16742L11.9442 4.05579C11.9442 4.05579 10.9023 3.49766 10.7163 3.57208C10.493 3.6465 11.1256 5.20928 11.3116 5.58137C11.3488 5.61858 11.3488 5.65579 11.3488 5.65579C12.3163 7.73951 15.814 10.3442 19.014 10.679C20.3535 10.8279 20.4651 11.6837 20.5395 12.5767C20.5767 12.7628 20.5767 13.0604 20.614 13.2093L19.1256 13.1721C14.9954 10.7535 11.386 9.97207 8.33489 10.8279C5.06047 11.7953 3.94419 13.879 3.72093 14.4744L3.68372 14.5488C3.68372 14.586 3.57209 14.8837 3.42325 15.3302C3.2 15.1814 2.93953 15.107 2.64186 15.0697C2.0093 14.9581 1.37674 15.1814 0.85581 15.6279C0.409298 16 0.0744155 16.5953 -3.10235e-06 17.2279C-0.111631 17.8977 0.0372062 18.5674 0.37209 19.1256C0.744182 19.6837 1.26511 20.0558 1.89767 20.1302C2.30697 20.2046 2.67907 20.1302 3.05116 19.9814C3.2 20.8372 3.53488 21.5814 3.9814 22.1767C5.13489 23.5907 7.06977 24.1116 9.78605 23.7395L13.693 23.0697C14.1395 22.9581 14.4 22.5488 14.3256 22.1395C14.2884 21.9163 14.1395 21.7302 13.9163 21.6186C13.693 21.507 13.4698 21.507 13.2093 21.5442H13.1721L9.56279 22.1395C7.47907 22.4372 6.02791 22.1023 5.28372 21.1721C4.68838 20.4651 4.46512 19.3488 4.57675 17.9349C4.57675 17.8977 4.57675 17.8977 4.57675 17.8232C4.72558 16.4465 5.13489 15.2558 5.1721 15.107C5.69303 13.9163 6.4 13.0604 8.81861 12.3535C11.4605 11.6093 14.6977 12.3535 18.493 14.6604L18.6791 14.7721H22.5116L22.4372 13.7674C22.4 13.5814 22.4 13.3953 22.3628 13.1721C22.1767 11.6465 21.9163 9.33951 19.1628 9.04184C17.1163 8.78137 14.9581 7.44184 13.693 6.13951C14.3256 6.21393 14.9954 6.21393 15.5907 6.13951C16.3721 6.02788 18.307 6.39998 20.1674 7.44184C21.6558 8.29765 23.5163 9.82323 23.8884 12.3535L24 13.1721L24.8186 13.0232C24.9302 12.986 27.4233 12.5767 28.5023 15.479C28.5767 15.7023 28.9488 16.707 30.1767 17.6C29.507 18.1581 27.2372 19.3116 25.5256 19.1256L25.0419 19.0883L24.893 19.4232C24.5581 20.0186 23.4047 21.9907 21.4326 22.1023C19.6093 22.2139 18.3814 22.9953 17.6372 23.7023L17.1907 23.479C17.8977 21.5442 17.8977 19.9442 17.1163 18.7163C15.8884 16.8186 13.3581 16.5953 12.9116 16.5953H12.8372C12.8372 16.5953 12.6884 16.5953 12.5767 16.6325C12.1302 16.707 11.7954 17.0046 11.7954 17.3767C11.7954 17.7488 12.093 18.0837 12.5395 18.1581L12.7628 18.1953C12.8 18.1953 14.8837 18.2697 15.7395 19.5721C16.2977 20.4651 16.1861 21.8046 15.4047 23.5163L15.0698 24.2232L22.9954 28.093L23.2186 28.1674C23.3302 28.2046 23.4419 28.2046 23.5163 28.2046C23.8512 28.2046 24.1488 28.0558 24.2605 27.7953C24.4093 27.4604 24.2605 27.0139 23.8512 26.7163L19.1628 24.4093C19.8326 23.9628 20.5767 23.7023 21.4698 23.6279C23.7395 23.479 25.2279 21.7674 25.8977 20.6511C28.0186 20.5767 31.0326 19.3488 31.7023 18.0093C31.814 17.786 31.8512 17.5628 31.8512 17.5628C32 17.1535 31.7395 16.6697 31.293 16.3721ZM3.01395 17.5256L2.97674 17.7488C2.90232 18.2325 2.49302 18.6046 2.15814 18.5302C1.97209 18.493 1.82325 18.3814 1.71162 18.1953C1.6 17.9721 1.56279 17.7116 1.6 17.4511C1.63721 17.1535 1.78604 16.9302 1.97209 16.7814C2.08372 16.6697 2.23255 16.5953 2.38139 16.5953C2.4186 16.5953 2.4186 16.5953 2.45581 16.5953C2.60465 16.6697 2.75348 16.7442 2.86511 16.9302C2.93953 17.1163 3.01395 17.3023 3.01395 17.5256Z" fill="url(#paint0_linear_1601:9)"/>
<path d="M16.2977 25.6744C16.1488 25.4883 15.9256 25.3767 15.6651 25.4139C15.4791 25.4139 15.2558 25.4883 15.0698 25.6L14.9954 25.6372L14.8837 25.7488C14.8465 25.786 13.9535 26.7163 11.9814 26.7163C11.3861 26.7163 10.9023 27.0511 10.9023 27.5349C10.9023 28.0186 11.3861 28.3535 11.9814 28.3535C14.3256 28.3535 15.6279 27.3116 15.9628 26.9767C16.1488 26.7535 16.3349 26.6046 16.3721 26.3814C16.4465 26.1209 16.4093 25.8604 16.2977 25.6744Z" fill="url(#paint1_linear_1601:9)"/>
</g>
<defs>
<linearGradient id="paint0_linear_1601:9" x1="7.65358" y1="25.9191" x2="24.6396" y2="8.33293" gradientUnits="userSpaceOnUse">
<stop stop-color="#2C4D9D"/>
<stop offset="1" stop-color="#3A8FCE"/>
</linearGradient>
<linearGradient id="paint1_linear_1601:9" x1="10.5091" y1="28.6211" x2="16.3512" y2="25.58" gradientUnits="userSpaceOnUse">
<stop stop-color="#2C4D9D"/>
<stop offset="1" stop-color="#3A8FCE"/>
</linearGradient>
<clipPath id="clip0_1601:9">
<rect width="32" height="32" fill="white"/>
</clipPath>
</defs>
</svg>
