<?xml version="1.0" encoding="UTF-8" standalone="no"?>
<!DOCTYPE svg PUBLIC "-//W3C//DTD SVG 1.1//EN" "http://www.w3.org/Graphics/SVG/1.1/DTD/svg11.dtd">
<svg width="100%" height="100%" viewBox="0 0 200 200" version="1.1" xmlns="http://www.w3.org/2000/svg" xmlns:xlink="http://www.w3.org/1999/xlink" xml:space="preserve" xmlns:serif="http://www.serif.com/" style="fill-rule:evenodd;clip-rule:evenodd;stroke-linejoin:round;stroke-miterlimit:2;">
    <g transform="matrix(3.76196,0,0,3.76196,3.87409,4.0699)">
        <path d="M25.492,0C11.423,0 0,11.427 0,25.5C0,33.679 3.848,41.017 9.98,45.587L13.588,41.859C13.588,41.738 13.708,41.738 13.828,41.618L14.309,41.017L19.6,35.724C21.283,36.686 23.328,37.288 25.492,37.288C32.105,37.288 37.396,31.995 37.396,25.38C37.396,18.764 32.105,13.472 25.492,13.472C18.878,13.472 13.588,18.764 13.588,25.38C13.588,27.665 14.189,29.83 15.391,31.634L10.101,36.927C7.696,33.679 6.253,29.71 6.253,25.5C6.253,14.915 14.91,6.255 25.492,6.255C36.074,6.255 44.731,14.915 44.731,25.5C44.731,36.085 36.074,44.745 25.492,44.745C23.808,44.745 22.125,44.505 20.562,44.144L20.081,44.625L15.872,49.076C18.878,50.278 22.125,51 25.612,51C39.681,51 51.104,39.573 51.104,25.5C51.104,11.427 39.561,0 25.492,0Z" style="fill:rgb(227,30,65);fill-rule:nonzero;"/>
    </g>
</svg>
