<svg width="237" height="236" viewBox="0 0 237 236" fill="none" xmlns="http://www.w3.org/2000/svg">
<path d="M236.6 123.5C236.6 103.7 224.3 86.3 205.8 79.6C206.6 75.4 207 71.2 207 66.9C207 30 177 -1.52588e-05 140.2 -1.52588e-05C118.6 -1.52588e-05 98.6 10.3 86 27.7C79.8 22.9 72.2 20.3 64.3 20.3C44.7 20.3 28.8 36.2 28.8 55.8C28.8 60.1 29.6 64.3 31 68.2C12.6 74.8 0 92.5 0 112.2C0 132.1 12.4 149.5 30.9 156.2C30.1 160.3 29.7 164.6 29.7 168.9C29.7 205.7 59.6 235.6 96.4 235.6C118 235.6 138 225.2 150.5 207.8C156.7 212.7 164.3 215.4 172.2 215.4C191.8 215.4 207.7 199.5 207.7 179.9C207.7 175.6 206.9 171.4 205.5 167.5C223.9 160.9 236.6 143.2 236.6 123.5Z" fill="white"/>
<path d="M93 101.5L144.8 125.1L197 79.3C197.8 75.5 198.1 71.8 198.1 67.8C198.1 35.6 171.9 9.40001 139.7 9.40001C120.4 9.40001 102.5 18.9 91.6 34.8L82.9 79.9L93 101.5Z" fill="#FED10A"/>
<path d="M39.4 156.3C38.6 160.1 38.3 164 38.3 168C38.3 200.3 64.6 226.5 96.9 226.5C116.3 226.5 134.4 216.9 145.3 200.9L153.9 156L142.4 134L90.4 110.3L39.4 156.3Z" fill="#24BBB1"/>
<path d="M39.1 66.7L74.6 75.1L82.4 34.8C77.6 31.1 71.6 29.1 65.4 29.1C50 29.1 37.4 41.6 37.4 57.1C37.4 60.4 38 63.7 39.1 66.7Z" fill="#EF5098"/>
<path d="M36 75.2C20.2 80.4 9.10001 95.6 9.10001 112.3C9.10001 128.6 19.2 143.1 34.3 148.9L84.1 103.9L75 84.4L36 75.2Z" fill="#17A8E0"/>
<path d="M154.3 200.9C159.2 204.6 165.1 206.7 171.2 206.7C186.6 206.7 199.2 194.2 199.2 178.7C199.2 175.3 198.6 172 197.5 169L162.1 160.7L154.3 200.9Z" fill="#93C83E"/>
<path d="M161.5 151.4L200.5 160.5C216.4 155.3 227.4 140.1 227.4 123.3C227.4 107.1 217.3 92.5 202.2 86.8L151.2 131.5L161.5 151.4Z" fill="#0779A1"/>
</svg>
