<svg width="27" height="26" viewBox="0 0 27 26" fill="none" xmlns="http://www.w3.org/2000/svg">
<path fill-rule="evenodd" clip-rule="evenodd" d="M2.191 20.2224C0.762472 18.0846 0 15.5712 0 13C0 9.55221 1.36971 6.24559 3.80779 3.80761C6.24588 1.36964 9.55266 0 13.0006 0C15.5719 0 18.0854 0.762436 20.2234 2.19089C22.3613 3.61935 24.0276 5.64967 25.0116 8.02511C25.9956 10.4005 26.2531 13.0144 25.7514 15.5362C25.2498 18.0579 24.0116 20.3743 22.1934 22.1924C20.3753 24.0105 18.0588 25.2486 15.5369 25.7502C13.015 26.2518 10.401 25.9944 8.02549 25.0104C5.64994 24.0265 3.61952 22.3602 2.191 20.2224ZM9.75096 7.58291H7.58454V18.4166H9.75096V7.58291ZM18.4167 7.58291H11.9174V9.74923H18.4167V7.58291ZM18.4167 11.9156H11.9174V14.0819H18.4167V11.9156ZM18.4167 16.2502H11.9174V18.4166H18.4167V16.2502Z" fill="black"/>
</svg>
