<svg width="32" height="32" viewBox="0 0 32 32" fill="none" xmlns="http://www.w3.org/2000/svg">
<path d="M25.8319 5.61912C26.2372 5.61912 26.5658 5.94763 26.5658 6.35288V25.6471C26.5658 26.0525 26.2372 26.381 25.8319 26.381H6.16744C5.76232 26.381 5.43394 26.0525 5.43394 25.6471V6.35288C5.43394 5.94763 5.76232 5.61912 6.16744 5.61912H25.8319ZM25.8319 4.1875H6.16744C4.97344 4.1875 4.00232 5.15888 4.00232 6.35288V25.6471C4.00232 26.8414 4.97369 27.8125 6.16744 27.8125H25.8319C27.0261 27.8125 27.9974 26.8411 27.9974 25.6471V6.35288C27.9974 5.15888 27.0261 4.1875 25.8319 4.1875Z" fill="url(#paint0_linear_1704:10)"/>
<path d="M24.5275 24.2224C24.5275 24.6783 24.1577 25.0483 23.702 25.0483H8.29817C7.84217 25.0483 7.47229 24.6783 7.47229 24.2224V22.2494C7.47229 21.7935 7.84217 21.4236 8.29817 21.4236H23.7018C24.1575 21.4236 24.5274 21.7935 24.5274 22.2494V24.2224H24.5275Z" fill="url(#paint1_linear_1704:10)"/>
<path d="M24.5275 9.99285C24.5275 10.449 24.1577 10.8187 23.702 10.8187H8.29817C7.84217 10.8187 7.47229 10.449 7.47229 9.99285V8.01985C7.47229 7.56397 7.84217 7.19397 8.29817 7.19397H23.7018C24.1575 7.19397 24.5274 7.56372 24.5274 8.01985V9.99285H24.5275Z" fill="url(#paint2_linear_1704:10)" stroke="#DDDDDD" stroke-miterlimit="10"/>
<path d="M24.5275 24.2428C24.5275 24.6988 24.1577 25.0686 23.702 25.0686H8.29817C7.84217 25.0686 7.47229 24.6988 7.47229 24.2428V22.2698C7.47229 21.814 7.84217 21.444 8.29817 21.444H23.7018C24.1575 21.444 24.5274 21.8137 24.5274 22.2698V24.2428H24.5275Z" fill="url(#paint3_linear_1704:10)" stroke="#DDDDDD" stroke-miterlimit="10"/>
<defs>
<linearGradient id="paint0_linear_1704:10" x1="2.20074" y1="16.2056" x2="27.3883" y2="15.8306" gradientUnits="userSpaceOnUse">
<stop stop-color="#373ADE"/>
<stop offset="1" stop-color="#6163FE"/>
</linearGradient>
<linearGradient id="paint1_linear_1704:10" x1="7.47233" y1="23.236" x2="24.5275" y2="23.236" gradientUnits="userSpaceOnUse">
<stop stop-color="#1488CC"/>
<stop offset="1" stop-color="#2B32B2"/>
</linearGradient>
<linearGradient id="paint2_linear_1704:10" x1="4.91068" y1="8.47965" x2="28.5982" y2="9.60465" gradientUnits="userSpaceOnUse">
<stop stop-color="#3739DE"/>
<stop offset="1" stop-color="#5F61FD"/>
</linearGradient>
<linearGradient id="paint3_linear_1704:10" x1="7.47227" y1="23.2563" x2="24.5275" y2="23.2563" gradientUnits="userSpaceOnUse">
<stop stop-color="#3739DE"/>
<stop offset="1" stop-color="#5F61FD"/>
</linearGradient>
</defs>
</svg>
