<?xml version="1.0" encoding="UTF-8"?>
<svg width="162px" height="185px" viewBox="0 0 162 185" version="1.1" xmlns="http://www.w3.org/2000/svg" xmlns:xlink="http://www.w3.org/1999/xlink">
    <!-- Generator: Sketch 52.6 (67491) - http://www.bohemiancoding.com/sketch -->
    <title>element-logo</title>
    <desc>Created with Sketch.</desc>
    <g id="Page-1" stroke="none" stroke-width="1" fill="none" fill-rule="evenodd">
        <g id="element-logo" transform="translate(-1.000000, -1.000000)" fill="#409EFF" fill-rule="nonzero">
            <path d="M156.79,42.9 C160.719111,44.6342514 163.127559,48.6576824 162.8,52.94 C162.8,52.94 162.8,126.2 162.8,133.32 C162.8,140.99 158.8,142.7 158.8,142.7 C158.8,142.7 90.08,182.41 85.61,184.9 C81.22,186.8 78.22,184.9 78.22,184.9 C78.22,184.9 6.31,143.2 3.69,141.36 C2.13506061,140.279463 1.1475571,138.557756 1,136.67 C1,136.67 1.07,54.1 1,50.27 C0.93,46.44 5.7,43.57 5.7,43.57 L77.55,2 C80.3018235,0.643101287 83.5281765,0.643101287 86.28,2 C86.28,2 149.75,38.93 156.79,42.9 Z M144.88,124.64 C144.89,122.91 144.89,116.19 144.89,107.71 L81.36,146.2 L81.36,131.48 C81.36,125.48 86.05,121.48 86.05,121.48 L142.26,87.62 C144.38,85.4 144.81,81.86 144.9,80.52 L144.9,65.61 L81.38,104.09 L81.38,88.7 C81.239749,85.3260948 82.7276345,82.0899436 85.38,80 L134.14,50.44 C119.43,42 84.78,21.89 84.78,21.89 C82.6164152,20.8289683 80.0835848,20.8289683 77.92,21.89 L21.51,54.39 C21.51,54.39 17.76,56.63 17.82,59.63 C17.88,62.63 17.82,127.26 17.82,127.26 C17.9452126,128.735416 18.7179395,130.079448 19.93,130.93 C22,132.36 78.45,164.98 78.45,164.98 C80.2731501,165.903084 82.4268499,165.903084 84.25,164.98 C87.76,163.05 141.71,131.98 141.71,131.98 C141.71,131.98 144.88,130.64 144.88,124.64 Z" id="Combined-Shape"></path>
        </g>
    </g>
</svg>