<svg width="32" height="32" viewBox="0 0 32 32" fill="none" xmlns="http://www.w3.org/2000/svg">
<rect width="32" height="32" fill="#222222"/>
<path d="M11.0631 22.1957C10.8796 22.1957 10.7878 21.9511 10.7878 21.4597V9.3256C10.7878 9.09112 10.7409 8.98101 10.6451 8.99528L9.76628 9.2155C9.6052 9.22977 9.52568 9.06869 9.52568 8.73225V7.67809C9.52568 7.38652 9.61336 7.22136 9.78871 7.18466L12.6882 6.43838C12.7106 6.43227 12.7432 6.42819 12.786 6.42819C12.9471 6.42819 13.0266 6.59946 13.0266 6.94406V21.4617C13.0266 21.9531 12.9308 22.1978 12.7412 22.1978L11.0631 22.1957ZM18.5727 22.2182C18.2791 22.2182 18.0263 22.1978 17.8101 22.157C17.594 22.1162 17.3697 22.0245 17.1352 21.8817C16.9007 21.739 16.7091 21.5433 16.5582 21.2945C16.4073 21.0457 16.2849 20.6971 16.1912 20.2505C16.0974 19.804 16.0484 19.2739 16.0484 18.6581V13.0264C16.0484 12.8796 16.0076 12.8062 15.9281 12.8062H15.2471C15.0636 12.8062 14.9718 12.6308 14.9718 12.2801V11.6868C14.9718 11.3279 15.0636 11.1485 15.2471 11.1485H15.9281C16.0076 11.1485 16.0484 11.0506 16.0484 10.8528L16.2462 6.58111C16.2686 6.1937 16.3624 6 16.5317 6H17.6307C17.8142 6 17.906 6.1937 17.906 6.58111V10.8528C17.906 11.0506 17.9488 11.1485 18.0385 11.1485H19.4393C19.6228 11.1485 19.7145 11.3279 19.7145 11.6868V12.2801C19.7145 12.6308 19.6228 12.8062 19.4393 12.8062H18.0344C17.9834 12.8062 17.9488 12.8184 17.9304 12.8449C17.9121 12.8694 17.9039 12.9305 17.9039 13.0264V18.6927C17.9039 19.1169 17.9304 19.4716 17.9855 19.753C18.0405 20.0344 18.12 20.2424 18.2261 20.3729C18.3321 20.5034 18.4381 20.5931 18.5442 20.6359C18.6502 20.6808 18.7807 20.7012 18.9336 20.7012H19.7125C19.9103 20.7012 20.0082 20.8378 20.0082 21.1069V21.7655C20.0082 22.0652 19.9021 22.2161 19.6901 22.2161L18.5727 22.2182ZM22.7873 23.5354C22.9545 23.5354 23.1013 23.3988 23.2257 23.1235C23.3501 22.8482 23.4133 22.4588 23.4133 21.9531C23.4133 21.8348 23.3399 21.4291 23.1931 20.7338L21.0399 11.7846C21.0256 11.6827 21.0175 11.6011 21.0175 11.542C21.0175 11.279 21.0725 11.1464 21.1826 11.1464H22.512C22.614 11.1464 22.6976 11.1811 22.7649 11.2504C22.8322 11.3197 22.8831 11.4604 22.9178 11.6725L24.3451 19.227C24.3736 19.3146 24.392 19.3595 24.4002 19.3595C24.4287 19.3595 24.445 19.3187 24.445 19.2392L25.5644 11.7051C25.593 11.4849 25.6399 11.3381 25.701 11.2606C25.7622 11.1831 25.8417 11.1444 25.9376 11.1444H26.8592C26.9836 11.1444 27.0468 11.2871 27.0468 11.5726C27.0468 11.6378 27.0386 11.7235 27.0243 11.8254L25.0689 22.0061C24.916 22.8482 24.7468 23.4925 24.5633 23.9391C24.3798 24.3856 24.1759 24.6894 23.9475 24.8505C23.6795 25.0238 23.3653 25.1119 23.0463 25.1034H22.9362C22.3428 25.1034 21.9411 24.9463 21.7291 24.6303C21.6699 24.5651 21.6414 24.3958 21.6414 24.1246C21.6414 23.5823 21.7291 23.3111 21.9044 23.3111C21.9187 23.3111 22.0512 23.3478 22.3 23.4212C22.5528 23.4987 22.7139 23.5354 22.7873 23.5354ZM5.5374 22.2161C5.35389 22.2161 5.26214 21.9715 5.26214 21.4801V9.34599C5.26214 9.11151 5.21524 9.0014 5.11941 9.01567L4.2406 9.23589C4.07952 9.25016 4 9.08908 4 8.75264V7.69848C4 7.40691 4.08768 7.24175 4.26303 7.20505L7.16452 6.45674C7.18695 6.45062 7.21957 6.44654 7.26239 6.44654C7.42347 6.44654 7.50299 6.61782 7.50299 6.96241V21.4801C7.50299 21.9715 7.40716 22.2161 7.21754 22.2161H5.5374Z" fill="white" stroke="white" stroke-miterlimit="10"/>
</svg>
