<svg width="32" height="32" viewBox="0 0 32 32" fill="none" xmlns="http://www.w3.org/2000/svg">
<path d="M15.422 0.927536V0.935652C12.9026 0.935265 10.4621 1.81466 8.52206 3.42197C6.58198 5.02928 5.26407 7.26361 4.7959 9.73913C4.65314 10.5944 4.59064 11.4612 4.60924 12.3281V21.7426C4.60924 22.5322 4.61851 23.3194 4.50025 24.1032C4.25445 25.7322 3.5588 27.3994 2.25329 28.4614C1.70553 28.9143 1.04952 29.2172 0.349526 29.3403C0.311265 29.3461 0.147786 29.3403 0.125757 29.3716C0.103728 29.4029 0.125757 29.4261 0.125757 29.4377C0.116745 29.5573 0.114035 29.6772 0.117642 29.7971V31.0725C1.97387 31.0649 3.79652 30.5768 5.40808 29.6557C7.01503 28.7386 8.38199 27.3843 9.19474 25.7136C9.67095 24.7247 9.94678 23.6513 10.0063 22.5554C8.94113 22.5561 7.88162 22.3999 6.86199 22.0916C9.4524 21.5693 11.762 20.1167 13.3547 18.0081C14.7024 16.1884 15.4274 13.9827 15.422 11.7183C15.422 10.759 15.422 9.79981 15.422 8.84058V3.98957H30.52L31.9066 0.927536H15.422ZM10.0145 17.4157C9.78083 17.4159 9.55239 17.3468 9.358 17.2173C9.16361 17.0877 9.012 16.9034 8.92233 16.6877C8.83267 16.4719 8.80897 16.2345 8.85424 16.0053C8.89951 15.7761 9.01171 15.5655 9.17666 15.4C9.34161 15.2346 9.5519 15.1218 9.78096 15.0758C10.01 15.0299 10.2476 15.0529 10.4635 15.1419C10.6795 15.2309 10.8643 15.382 10.9944 15.576C11.1246 15.77 11.1943 15.9983 11.1947 16.2319C11.195 16.3871 11.1648 16.5409 11.1056 16.6845C11.0464 16.828 10.9596 16.9584 10.8499 17.0684C10.7403 17.1783 10.6101 17.2656 10.4668 17.3252C10.3234 17.3848 10.1697 17.4155 10.0145 17.4157Z" fill="#6857E5"/>
<path d="M16.1362 19.2962C14.7615 20.8099 12.9635 21.8751 10.9756 22.3536V22.3536H18.8399C19.8428 22.354 20.8245 22.0655 21.6675 21.5224C22.5106 20.9794 23.1793 20.2048 23.5935 19.2916L16.1362 19.2962Z" fill="#00CCE8"/>
<path d="M18.4504 13.1733C18.374 14.2235 18.1347 15.2554 17.7408 16.2319H24.9652L26.3565 13.1698L18.4504 13.1733Z" fill="#00AEFB"/>
<path d="M18.4805 7.05043V10.1125H27.7454L29.1332 7.05043H18.4805Z" fill="#4A7DF9"/>
</svg>
