<svg width="32" height="32" viewBox="0 0 32 32" fill="none" xmlns="http://www.w3.org/2000/svg">
<path d="M19.7411 21.0514C19.7409 20.9438 19.7398 20.2972 19.7398 18.8646C19.7398 16.9617 19.7398 14.5196 19.7398 14.5196L19.7389 14.5207C19.739 14.5102 19.7398 14.4998 19.7398 14.4893C19.7398 13.0185 18.8287 11.7253 17.4506 10.9754C17.4506 10.9754 17.4513 10.9746 17.4513 10.9746L17.3932 10.9449C17.3482 10.9211 17.303 10.8977 17.2571 10.8751L1.84392 2.97367L1.84368 2.97407C1.73336 2.90959 1.6056 2.87207 1.46896 2.87207C1.05536 2.87207 0.720001 3.21031 0.720001 3.62783C0.720001 3.84223 0.808881 4.03543 0.950961 4.17303L0.950721 4.17335C0.950721 4.17335 0.955201 4.17719 0.961841 4.18303C0.975681 4.19591 0.989841 4.20847 1.00464 4.22031C1.60632 4.74463 7.208 9.62511 10.6769 12.6123C12.4395 14.1306 12.6139 15.4098 12.6139 16.5102C12.6139 16.511 12.6147 16.511 12.6149 16.5116C12.6289 17.9804 13.6129 19.2578 15.0648 19.9309L15.0601 19.9364L18.6408 21.7373L18.641 21.7373C18.7459 21.7937 18.8656 21.8259 18.9928 21.8259C19.4066 21.8259 19.742 21.4877 19.742 21.0701C19.742 21.0638 19.7413 21.0577 19.7411 21.0514Z" fill="#F93262"/>
<path d="M16.1541 30.5752C8.10183 30.294 1.77959 23.5145 2.06079 15.4623C2.07431 15.0742 2.09359 14.6907 2.13871 14.3115C2.16167 14.1186 2.46279 12.6564 3.77687 12.8308C4.76199 12.9616 5.07375 13.8234 5.00095 14.4802C4.98695 14.6064 4.95839 14.9403 4.95839 14.9403C4.94031 15.1461 4.92751 15.3534 4.92015 15.5622C4.69399 22.0377 9.77839 27.4898 16.2538 27.7159C22.7291 27.9421 28.1813 22.8578 28.4075 16.3824C28.6337 9.90664 23.5493 4.45456 17.0741 4.2284C16.3405 4.2028 15.6199 4.24584 14.9188 4.35096C14.9188 4.35096 13.2249 4.63144 12.8475 3.48752C12.4824 2.38064 13.3353 1.74032 13.9128 1.62024C14.9661 1.41856 16.0577 1.33008 17.1739 1.36912C25.2259 1.65032 31.5481 8.42976 31.2669 16.4822C30.9857 24.5344 24.206 30.8564 16.1541 30.5752Z" fill="#F93262"/>
</svg>
