<svg width="32" height="32" viewBox="0 0 32 32" fill="none" xmlns="http://www.w3.org/2000/svg">
<path d="M28.9514 7.55543L16.8328 0.558837C16.5779 0.411536 16.2886 0.333984 15.9941 0.333984C15.6997 0.333984 15.4104 0.411536 15.1555 0.558837L3.03692 7.55543C2.78177 7.70293 2.56995 7.915 2.42273 8.17031C2.27551 8.42562 2.19809 8.71518 2.19824 9.0099V23.0017C2.19831 23.2965 2.27598 23.5861 2.42344 23.8415C2.57091 24.0968 2.78296 24.3088 3.03831 24.4562L15.1569 31.4519C15.4118 31.6002 15.7014 31.6783 15.9964 31.6783C16.2913 31.6783 16.5809 31.6002 16.8359 31.4519L28.9514 24.4559C29.2069 24.3088 29.4192 24.0969 29.5668 23.8416C29.7144 23.5863 29.7921 23.2966 29.792 23.0017V9.0099C29.7921 8.71495 29.7145 8.42518 29.5669 8.16982C29.4193 7.91446 29.207 7.70253 28.9514 7.55543V7.55543ZM26.4325 22.032L15.9941 28.0594L5.55574 22.032V9.97908L15.9941 3.95362L26.4325 9.97908V22.032ZM15.9941 7.55598C16.2635 7.55583 16.5282 7.62656 16.7616 7.76106L22.7509 11.2196C22.7754 11.2335 22.7957 11.2538 22.8196 11.2691C22.8661 11.2986 22.911 11.3307 22.954 11.3651C22.9921 11.3979 23.0283 11.4316 23.0631 11.4669C23.0982 11.501 23.1315 11.5367 23.163 11.5741C23.198 11.6178 23.2303 11.6631 23.2609 11.7099C23.2762 11.7335 23.2963 11.7527 23.3099 11.7778C23.3185 11.7933 23.323 11.8098 23.3319 11.8253C23.3572 11.8744 23.3799 11.9247 23.3998 11.9762C23.417 12.0198 23.4359 12.0633 23.4487 12.1078C23.4623 12.1557 23.4732 12.2044 23.4813 12.2536C23.4927 12.3016 23.5011 12.3503 23.5063 12.3994C23.5107 12.4485 23.5123 12.4978 23.5111 12.5472C23.5123 12.5954 23.5107 12.6437 23.5063 12.6918C23.5015 12.7419 23.4937 12.7916 23.4833 12.8407C23.4745 12.8891 23.4631 12.9371 23.4493 12.9843C23.4357 13.0298 23.4193 13.0744 23.4003 13.1179C23.3808 13.169 23.3585 13.2191 23.3335 13.2678C23.3246 13.2831 23.321 13.2998 23.311 13.3151C23.2971 13.3396 23.2776 13.3602 23.262 13.3842C23.2323 13.4308 23.2001 13.4757 23.1655 13.5188C23.1329 13.5567 23.0993 13.5929 23.065 13.6274C23.0306 13.6624 22.9944 13.6957 22.9565 13.727C22.9133 13.7624 22.8682 13.7954 22.8213 13.8258C22.7973 13.8405 22.7779 13.8608 22.7528 13.8747L17.2471 17.0703C17.0729 17.1714 16.8804 17.2372 16.6807 17.2639C16.481 17.2906 16.278 17.2777 16.0833 17.2259C15.8886 17.1742 15.706 17.0846 15.5459 16.9623C15.3858 16.84 15.2514 16.6873 15.1503 16.5131C15.0492 16.3388 14.9834 16.1463 14.9567 15.9466C14.93 15.7469 14.9429 15.544 14.9947 15.3492C15.0992 14.956 15.3556 14.6204 15.7075 14.4162L18.9217 12.5519L15.9941 10.8609L11.5383 13.434V18.5768L15.9941 21.1501L21.2163 18.1341C21.3908 18.0333 21.5834 17.9679 21.7832 17.9416C21.983 17.9153 22.186 17.9286 22.3806 17.9807C22.5753 18.0329 22.7577 18.1228 22.9176 18.2455C23.0775 18.3681 23.2116 18.5211 23.3124 18.6956C23.4132 18.8701 23.4786 19.0628 23.5049 19.2625C23.5312 19.4623 23.5179 19.6653 23.4658 19.86C23.4136 20.0546 23.3236 20.2371 23.201 20.397C23.0783 20.5568 22.9254 20.691 22.7509 20.7917L16.7624 24.2497C16.5292 24.3844 16.2647 24.4553 15.9954 24.4553C15.7261 24.4553 15.4615 24.3844 15.2284 24.2497L9.23824 20.7917C9.0049 20.6571 8.81111 20.4634 8.67635 20.2301C8.54158 19.9968 8.4706 19.7322 8.47052 19.4628V12.548C8.47061 12.2787 8.54161 12.0141 8.67637 11.7809C8.81114 11.5477 9.00492 11.3541 9.23824 11.2196L15.2278 7.76106C15.4608 7.62663 15.7251 7.55591 15.9941 7.55598Z" fill="url(#paint0_linear_3355_67)"/>
<defs>
<linearGradient id="paint0_linear_3355_67" x1="3.37222" y1="9.77428" x2="29.3265" y2="22.5874" gradientUnits="userSpaceOnUse">
<stop stop-color="#03025E"/>
<stop offset="0.48" stop-color="#007986"/>
<stop offset="0.6" stop-color="#138C6C"/>
<stop offset="0.85" stop-color="#42BC29"/>
<stop offset="1" stop-color="#5FD900"/>
</linearGradient>
</defs>
</svg>
