<svg width="32" height="32" viewBox="0 0 32 32" fill="none" xmlns="http://www.w3.org/2000/svg">
<path d="M16.0162 0.313965L27.11 10.4756C30.6878 13.7526 30.7879 19.3589 27.3297 22.7617L20.0176 29.9565C17.7832 32.155 14.1938 32.1393 11.9788 29.9212L4.83224 22.7649C1.45045 19.3784 1.54306 13.865 5.0367 10.5941L16.0162 0.313965Z" fill="#4EC6E6"/>
<path d="M23.451 13.9542L16.0873 6.7749L7.88626 14.5632C7.03426 15.4153 6.96324 17.8871 7.99284 18.9166L16.0519 26.7271L16.0873 23.177L10.4425 17.7805C9.85951 17.1976 9.91279 16.5175 10.4958 15.9344L12.2531 14.2171L20.6803 22.3515L23.5416 19.5114C25.1137 17.9315 24.9662 15.4695 23.451 13.9542ZM21.5507 17.6839L20.4606 18.774L14.0993 12.5973L16.1804 10.4228L21.4703 15.4641C22.2173 16.211 22.2977 16.937 21.5507 17.6839Z" fill="white"/>
</svg>
