<svg width="32" height="32" viewBox="0 0 32 32" fill="none" xmlns="http://www.w3.org/2000/svg">
<g clip-path="url(#clip0)">
<path d="M16.7533 6.25552V12.1343C16.7533 12.4176 16.9014 12.6801 17.1446 12.8255L25.0916 17.594C26.0973 18.1974 26.0973 19.6549 25.0916 20.2579L16.7533 25.2612V29.3006C16.7533 30.3111 17.855 30.935 18.7218 30.4152L29.8751 23.7233C31.5602 22.7123 32.5915 20.891 32.5915 18.9261C32.5915 16.9608 31.5602 15.1399 29.8751 14.1287L16.7533 6.25552Z" fill="#0033FF"/>
<path d="M8.4142 11.2589L16.7534 6.25551V2.21615C16.7534 1.20568 15.6508 0.581739 14.784 1.10152L3.63156 7.79349C1.94562 8.80478 0.914307 10.6257 0.914307 12.5907C0.914307 14.5559 1.94562 16.3772 3.63156 17.3881L16.7534 25.2612V19.3823C16.7534 19.0991 16.6044 18.8371 16.3612 18.6915L8.4142 13.9227C7.40848 13.3193 7.40848 11.8622 8.4142 11.2589Z" fill="#0033FF"/>
</g>
<defs>
<clipPath id="clip0">
<rect width="32" height="32" fill="white"/>
</clipPath>
</defs>
</svg>
