<svg width="32" height="32" viewBox="0 0 32 32" fill="none" xmlns="http://www.w3.org/2000/svg">
<path d="M1.40917 21.4765C1.20149 21.3262 1.10925 21.0198 1.00611 20.7734C0.266812 19.0067 -0.0110619 17.2242 0.000335492 15.6616C0.0131953 13.8552 0.339995 12.1151 0.947725 10.4984C2.16324 7.26421 4.28511 4.10529 8.46318 1.90267C9.59772 1.30422 10.7202 0.908122 11.7655 0.622998C14.8366 -0.214012 17.6655 -0.167586 20.145 0.523196C21.7157 0.960354 23.3615 1.72957 24.6764 3.03719C25.3555 3.71262 26.0232 4.64639 26.2919 5.65649C26.7766 7.47618 26.178 9.26025 24.7498 10.5085C24.0009 11.1631 22.9479 11.64 21.7933 12.1708C15.0501 15.2719 8.20251 18.4098 1.40917 21.4765ZM30.6149 10.5629C31.2683 11.6554 31.5397 12.7921 31.7417 13.8408C32.3372 16.9322 31.8687 19.8587 30.6893 22.4153C30.2869 23.2878 29.8831 24.1289 29.3232 24.952C27.725 27.3048 25.168 29.7285 21.2105 31.0901C18.9213 31.877 16.7244 32.0786 14.6611 31.9748C12.6428 31.8736 10.7544 31.2972 9.13499 30.3938C8.31256 29.9352 7.51842 29.2686 6.83138 28.4598C6.08672 27.5827 5.62779 26.4686 5.54238 25.386C5.42453 23.9008 6.09539 22.5447 7.27597 21.487C7.70647 21.1024 8.22368 20.7561 8.85922 20.4553C10.6691 19.5981 12.5356 18.7652 14.3696 17.9221C19.7725 15.4401 25.0587 13.0421 30.6149 10.5629Z" fill="#423DCE"/>
</svg>
