<svg xmlns="http://www.w3.org/2000/svg" viewBox="0 0 128 128"><path fill="#221F1F" d="M57.7 124.4L14.9 99.6c-3.9-2.2-6.3-6.4-6.3-10.9V39.3c0-4.5 2.4-8.6 6.3-10.9L57.7 3.6c3.9-2.2 8.7-2.2 12.6 0l42.9 24.7c3.9 2.2 6.3 6.4 6.3 10.9v49.5c0 4.5-2.4 8.6-6.3 10.9l-42.9 24.7c-3.9 2.3-8.7 2.3-12.6.1z"/><path fill="#FFF" d="M84.5 51.3c0 15.5-16.8 18.1-28.6 18.2.4 6.5 3.8 11.8 12.3 11.8 5.9 0 10.2-2.7 12.6-4.4l3.8 8.1c-1.6 1.4-8.2 5.6-17.7 5.6-17.1 0-23.7-10.4-23.7-25.4 0-14.8 8.3-27.9 24.8-27.9 9.9.1 16.5 5.1 16.5 14zm-17.1-5.4c-8 0-11.6 7.7-11.9 15.1 7.4-.1 18-1.8 18-9.5-.1-3.7-2.5-5.6-6.1-5.6z"/></svg>