<svg width="32" height="32" viewBox="0 0 32 32" fill="none" xmlns="http://www.w3.org/2000/svg">
<path d="M0 16C0 7.16344 7.16344 0 16 0C24.8366 0 32 7.16344 32 16C32 24.8366 24.8366 32 16 32C7.16344 32 0 24.8366 0 16Z" fill="#7866D5"/>
<path d="M14.5 7.25C8.5 7.25 6 9.81356 6 13.25V18.75C6 22.1864 8.5 24.75 14.5 24.75H20.3125C25.75 24.75 26 24.0938 26 23C26 21.7501 25.5 21.25 24.25 21.25H14.5C11.5 21.25 10 19.7534 10 18.25V17.75H24.25C25.25 17.75 26 17.0938 26 16C26 14.9062 25.25 14.25 24.25 14.25H10V13.75C10 12.2466 11.5 10.75 14.5 10.75H24.25C25.5 10.75 26 10.2499 26 9C26 7.90619 25.75 7.25 20.3125 7.25H14.5Z" fill="white"/>
</svg>
