<svg width="32" height="32" viewBox="0 0 32 32" fill="none" xmlns="http://www.w3.org/2000/svg">
<path fill-rule="evenodd" clip-rule="evenodd" d="M18.7544 26.8145L17.5431 30.0036C17.1544 31.027 15.9976 31.5461 14.9593 31.163C14.4185 30.9634 13.9911 30.5441 13.7862 30.012L8.7476 16.9276C8.40336 16.0337 8.85954 15.034 9.7665 14.6947C9.96562 14.6202 10.1768 14.582 10.3898 14.582H20.8673C21.8374 14.582 22.6238 15.3571 22.6238 16.3133C22.6238 16.5206 22.586 16.7261 22.5123 16.9203C22.2552 17.5971 21.6066 18.0446 20.8826 18.0446H14.4392C13.8155 18.0446 13.31 18.5428 13.31 19.1575C13.31 19.7722 13.8155 20.2705 14.4392 20.2705H19.1308C19.9504 20.2705 20.6148 20.9349 20.6148 21.7544C20.6148 22.574 19.9504 23.2383 19.1308 23.2383H15.9448C15.3211 23.2383 14.8156 23.7366 14.8156 24.3513C14.8156 24.966 15.3211 25.4643 15.9448 25.4643H17.8229C18.3732 25.4643 18.8193 25.9104 18.8193 26.4607C18.8193 26.5816 18.7973 26.7015 18.7544 26.8145Z" fill="#FFE53B"/>
<path fill-rule="evenodd" clip-rule="evenodd" d="M14.6216 8.43246C14.6216 10.6716 12.7807 12.4872 10.5116 12.4872C8.24129 12.4872 6.40039 10.6716 6.40039 8.43246C6.40039 6.19452 8.24129 4.37891 10.5116 4.37891C12.7807 4.37891 14.6216 6.19452 14.6216 8.43246Z" fill="#40BDFF"/>
<path fill-rule="evenodd" clip-rule="evenodd" d="M21.8378 6.23703C21.8378 9.36052 19.2696 11.8908 16.1021 11.8908C12.9334 11.8908 10.3652 9.36052 10.3652 6.23703C10.3652 3.11355 12.9334 0.582031 16.1021 0.582031C19.2696 0.582031 21.8378 3.11355 21.8378 6.23703Z" fill="#FF5E86"/>
<path fill-rule="evenodd" clip-rule="evenodd" d="M24.6546 9.04239C24.6546 10.9446 23.0906 12.4871 21.1619 12.4871C19.2332 12.4871 17.668 10.9446 17.668 9.04239C17.668 7.13894 19.2332 5.59766 21.1619 5.59766C23.0906 5.59766 24.6546 7.13894 24.6546 9.04239Z" fill="#FF92BB"/>
</svg>
