<svg width="32" height="32" viewBox="0 0 32 32" fill="none" xmlns="http://www.w3.org/2000/svg">
<path d="M9.75167 17.5967C9.81442 19.5719 10.5667 21.4624 11.8781 22.9407C13.1393 24.269 14.9112 24.9906 16.7415 24.9222C17.9443 24.9466 19.1314 24.6455 20.1774 24.0513C21.1205 23.5349 21.8119 22.6571 22.093 21.6193H29.9989C29.0659 24.6618 27.6848 27.0041 25.3739 28.6467C22.9476 30.3239 20.0513 31.186 17.1029 31.1088C8.59089 31.1076 2.51151 25.7435 2.51151 15.0147C2.48265 12.9128 2.81143 10.8215 3.48469 8.82993C4.08516 7.06868 5.0483 5.45236 6.31261 4.0864C7.57567 2.74742 9.12422 1.71088 10.8434 1.05393C12.6794 0.321071 14.6439 -0.036576 16.6204 0.00295337C21.2422 0.00295337 24.439 1.46491 26.8108 4.38633C29.1826 7.30774 30.2787 11.7118 30.2787 17.5967H9.75167ZM22.519 12.6724C22.4996 11.6949 22.3038 10.7286 21.9412 9.82005C21.6312 9.05205 21.1656 8.35684 20.5727 7.77833C20.0161 7.24562 19.3536 6.8359 18.6276 6.57739C17.906 6.31888 17.1449 6.18711 16.3782 6.18774C14.7443 6.16954 13.1663 6.78256 11.9728 7.8988C10.7506 9.19323 10.0472 10.8924 9.99638 12.6724H22.519Z" fill="#D51317"/>
</svg>
