<svg width="32" height="32" viewBox="0 0 32 32" fill="none" xmlns="http://www.w3.org/2000/svg">
<path d="M8.304 5.30134L6.77334 3.73334H4.84267L4.14934 6.14934H6.032L6.21867 6.64534L8.86934 6.78934L8.304 5.30134Z" fill="#3FC6AB"/>
<path d="M10.624 11.4453L8.06934 11.5466L9.504 15.3493L11.1467 12.8213L10.624 11.4453Z" fill="#3F9EC6"/>
<path d="M8.86933 6.78932L6.21866 6.64532L8.06933 11.5467L10.624 11.4453L8.86933 6.78932Z" fill="#3FB0C6"/>
<path d="M8.00533 4.51734C7.82933 4.048 7.376 3.73334 6.86933 3.73334H6.77333L8.304 5.30134L8.00533 4.51734Z" fill="#3FB0C6"/>
<path d="M1.216 3.73334C0.544 3.73334 0 4.272 0 4.93867C0 5.60534 0.544 6.144 1.216 6.144H2.944L1.61067 3.73334H1.216Z" fill="#8CC63F"/>
<path d="M1.61067 3.73334L2.94401 6.14934H4.14934L4.84267 3.73334H1.61067Z" fill="#63C64F"/>
<path d="M11.1467 12.8214L9.504 15.3494L9.86666 16.304H12.4587L11.1467 12.8214Z" fill="#7386E6"/>
<path d="M13.712 6.73068C13.3173 6.73068 12.9493 6.91734 12.7253 7.23734C12.496 7.55734 12.4373 7.96268 12.5653 8.33068L15.0507 15.456L16.7573 12.992L15.4133 9.14134H16.0267L14.7093 6.72534H13.712V6.73068Z" fill="#3F9EC6"/>
<path d="M15.344 16.304H17.76C17.792 16.112 17.776 15.9093 17.7067 15.712L16.7573 12.9973L15.0507 15.4613L15.344 16.304Z" fill="#7373E6"/>
<path d="M15.4133 16.5067C15.632 17.136 16.3253 17.472 16.96 17.2533C17.3973 17.104 17.6907 16.7307 17.76 16.3093H15.344L15.4133 16.5067Z" fill="#9973E6"/>
<path d="M14.7147 6.73065L16.032 9.14665H18.8533L19.7227 6.73065H14.7147Z" fill="#3FC6AB"/>
<path d="M12.4587 16.304H9.86667L11.3973 20.3627C11.488 20.5974 11.6427 20.7947 11.84 20.928L13.3493 18.672L12.4587 16.304Z" fill="#7373E6"/>
<path d="M30.6613 6.73065H26.08L24.464 9.14665H29.184L28.7627 11.248L31.536 7.10399C31.3067 6.86932 30.992 6.73065 30.6613 6.73065Z" fill="#E6936A"/>
<path d="M31.6 7.17334C31.5787 7.152 31.5573 7.13067 31.536 7.104L28.7627 11.248L28.6613 11.7493L30.5387 14.7573L31.8507 8.176C31.92 7.81867 31.8293 7.45067 31.6 7.17334Z" fill="#E67F6A"/>
<path d="M20.32 6.73065L21.5787 9.14665H24.464L26.08 6.73065H20.32Z" fill="#E6A86A"/>
<path d="M19.7227 6.73065L18.8533 9.14665H21.5787L20.32 6.73065H19.7227Z" fill="#E6D16A"/>
<path d="M16.0373 18.7307L17.4773 21.1467H23.04L21.6693 18.7307H16.0373Z" fill="#C073E6"/>
<path d="M21.6693 18.7307L23.04 21.1467H23.3227L24.4907 18.7307H21.6693Z" fill="#D373E6"/>
<path d="M13.376 18.7306L13.3547 18.6773L11.8453 20.9333C12.0427 21.072 12.2827 21.1466 12.5387 21.1466H17.4827L16.0427 18.7306H13.376Z" fill="#9973E6"/>
<path d="M24.4907 18.7307L23.328 21.1467H28.272C28.3467 21.1467 28.4213 21.1413 28.4907 21.1253L27.088 18.7307H24.4907Z" fill="#E673D3"/>
<path d="M27.7653 16.2667L30.256 16.1867L30.5387 14.7573L28.6613 11.7493L27.7653 16.2667Z" fill="#E66A6A"/>
<path d="M27.7653 16.2667L27.2747 18.7307H27.088L28.4907 21.1254C28.5707 21.1094 28.6453 21.088 28.72 21.0614C29.0933 20.912 29.3813 20.5867 29.4613 20.176L29.6533 19.2L30.2507 16.1867L27.7653 16.2667Z" fill="#E67386"/>
<path d="M22.592 14.2346C23.248 14.2346 23.872 14.0693 24.416 13.7866L23.7387 12.7733C23.392 12.9333 23.0027 13.0293 22.592 13.0293C22.384 13.0293 22.1867 13.0026 21.9947 12.96L21.504 14.08C21.8453 14.176 22.2133 14.2346 22.592 14.2346Z" fill="#C073E6"/>
<path d="M21.4987 14.08L21.9893 12.96C21.1573 12.7734 20.4747 12.2027 20.128 11.4507L19.152 12.208C19.648 13.104 20.4907 13.7867 21.4987 14.08Z" fill="#7373E6"/>
<path d="M26.512 10.3307H25.296C25.296 11.408 24.656 12.336 23.7333 12.768L24.4107 13.7814C25.6587 13.1307 26.512 11.8294 26.512 10.3307Z" fill="#E673D3"/>
<path d="M19.888 10.3307H18.672C18.672 11.008 18.848 11.648 19.152 12.2027L20.128 11.4454C19.9733 11.1094 19.888 10.7307 19.888 10.3307Z" fill="#3F9EC6"/>
<path d="M16.688 26.4586C16.688 26.1013 16.576 25.776 16.384 25.504L15.344 28.0853C16.112 27.936 16.688 27.264 16.688 26.4586Z" fill="#C073E6"/>
<path d="M13.3547 26.4587C13.3547 27.3653 14.0853 28.1013 14.992 28.1173L13.6 25.6053C13.4453 25.856 13.3547 26.1493 13.3547 26.4587Z" fill="#7373E6"/>
<path d="M15.024 24.8C14.416 24.8 13.888 25.12 13.6 25.6053L14.992 28.1173C15.0027 28.1173 15.0133 28.1173 15.024 28.1173C15.136 28.1173 15.2427 28.1067 15.3493 28.0853L16.3893 25.504C16.0853 25.0827 15.584 24.8 15.024 24.8Z" fill="#9973E6"/>
<path d="M27.264 26.4587C27.264 25.5413 26.5173 24.8 25.5947 24.8C25.3173 24.8 25.056 24.8693 24.8267 24.9867L26.464 27.872C26.944 27.584 27.264 27.0613 27.264 26.4587Z" fill="#E673D3"/>
<path d="M23.9307 26.4587C23.9307 27.376 24.6773 28.1174 25.6 28.1174C25.92 28.1174 26.2133 28.0267 26.4693 27.872L24.832 24.9867C24.2933 25.2694 23.9307 25.8187 23.9307 26.4587Z" fill="#D373E6"/>
</svg>
