<svg width="32" height="32" viewBox="0 0 32 32" fill="none" xmlns="http://www.w3.org/2000/svg">
<path fill-rule="evenodd" clip-rule="evenodd" d="M32 16C32 7.16444 24.8361 0 16 0C7.16384 0 0 7.16444 0 16C0 17.7772 0.28984 19.4868 0.824827 21.0841L6.91287 18.7592C6.67998 17.9058 6.55713 17.0091 6.55713 16.0844C6.55713 14.1611 7.08945 12.36 8.01592 10.8214L0.379223 12.5218C0.688888 11.2556 1.07392 10.0089 1.66766 8.88039L14.6417 6.05764L14.634 6.06274C15.3583 5.90224 16.1107 5.81818 16.881 5.81818C22.0379 5.81818 26.3117 9.58587 27.0769 14.5024L26.1505 14.8565L25.8075 14.9865L23.97 15.6869L15.3711 18.9732L15.3659 18.9681C15.1714 19.0496 14.9565 19.0955 14.7312 19.0955C13.8356 19.0955 13.1113 18.3746 13.1113 17.4855C13.1113 16.7543 13.6027 16.1353 14.2757 15.9392L23.0487 12.5893C21.8254 10.4571 19.517 9.01776 16.8708 9.01776C12.9449 9.01776 9.76382 12.1817 9.76382 16.0869C9.76382 19.9896 12.9449 23.1561 16.8708 23.1561C19.9675 23.1561 22.6035 21.1844 23.576 18.4357C23.709 17.6791 24.3718 17.1059 25.1703 17.1059C26.066 17.1059 26.7903 17.8268 26.7903 18.7159C26.7903 18.9426 26.7417 19.1591 26.6572 19.3553C25.8281 21.8085 24.0904 23.849 21.8408 25.0794L11.4676 31.3488C12.9047 31.7726 14.4258 32 16 32C24.8361 32 32 24.8356 32 16ZM7.84671 29.7694L14.1221 25.9761C11.6781 25.3036 9.5975 23.7573 8.24109 21.699L2.15523 24.0248C3.53002 26.3913 5.4942 28.3732 7.84671 29.7694Z" fill="#2B64CD"/>
</svg>
