<svg width="32" height="32" viewBox="0 0 32 32" fill="none" xmlns="http://www.w3.org/2000/svg">
<g clip-path="url(#clip0_1708:54)">
<path d="M15.2381 27.3593C22.3915 27.3593 28.1905 21.5603 28.1905 14.4069C28.1905 7.25351 22.3915 1.45453 15.2381 1.45453C8.08474 1.45453 2.28577 7.25351 2.28577 14.4069C2.28577 21.5603 8.08474 27.3593 15.2381 27.3593Z" fill="url(#paint0_linear_1708:54)"/>
<g filter="url(#filter0_d_1708:54)">
<path d="M8.28112 9.88855H12.3525L12.372 9.89829H12.3866C12.6301 9.89829 12.8282 10.0233 12.9808 10.2733C13.0327 10.3772 13.0587 10.4843 13.0587 10.5947C13.0587 10.8642 12.9256 11.072 12.6594 11.2181C12.5685 11.2603 12.4775 11.2814 12.3866 11.2814H8.23729C8.04248 11.2814 7.87041 11.1921 7.72105 11.0135C7.62365 10.8837 7.57495 10.7506 7.57495 10.6142V10.5558C7.57495 10.3415 7.68209 10.158 7.89638 10.0054C8.01326 9.934 8.12852 9.89829 8.24216 9.89829H8.26164L8.28112 9.88855ZM8.27138 13.3707L10.3704 13.3804C10.51 13.3804 10.6594 13.4519 10.8185 13.5947C10.9451 13.7408 11.0084 13.8999 11.0084 14.072C11.0084 14.3123 10.8964 14.5087 10.6724 14.6613C10.562 14.7262 10.4548 14.7587 10.3509 14.7587H8.22755C8.01975 14.7587 7.83956 14.6548 7.68696 14.447C7.61229 14.3301 7.57495 14.2132 7.57495 14.0963V14.0379C7.57495 13.8171 7.69021 13.6272 7.92073 13.4681C8.03761 13.4097 8.148 13.3804 8.2519 13.3804H8.26164C8.26813 13.3804 8.27138 13.3772 8.27138 13.3707ZM12.3477 13.3804H12.3818C12.6448 13.3804 12.8509 13.5168 13.0003 13.7895C13.0392 13.8869 13.0587 13.9811 13.0587 14.072C13.0587 14.3447 12.924 14.5541 12.6545 14.7002C12.5571 14.7392 12.4711 14.7587 12.3964 14.7587H12.3282C12.1074 14.7587 11.9191 14.6434 11.7633 14.4129C11.7016 14.296 11.6707 14.1808 11.6707 14.0671C11.6707 13.8009 11.8038 13.5931 12.0701 13.4437C12.1707 13.4015 12.2633 13.3804 12.3477 13.3804ZM8.28112 16.8382H12.3525C12.3525 16.8447 12.4029 16.8528 12.5035 16.8626C12.6724 16.9048 12.8006 16.9811 12.8883 17.0915C13.0019 17.2246 13.0587 17.3772 13.0587 17.5493C13.0587 17.8123 12.9256 18.02 12.6594 18.1726C12.5782 18.2019 12.523 18.2165 12.4938 18.2165H8.13989C8.02625 18.2165 7.88989 18.1402 7.7308 17.9876C7.6269 17.848 7.57495 17.7067 7.57495 17.5639V17.52C7.57495 17.2798 7.6967 17.0834 7.94021 16.9308C8.01164 16.8885 8.12203 16.8593 8.27138 16.8431C8.27138 16.8398 8.27463 16.8382 8.28112 16.8382ZM19.326 9.9616H19.3845C19.6377 9.9616 19.8471 10.0882 20.0127 10.3415C21.2497 12.7993 21.8763 14.0541 21.8926 14.1061C21.938 14.2652 21.9608 14.361 21.9608 14.3934C21.9608 14.6856 21.8195 14.9145 21.5371 15.0801C21.4169 15.1386 21.2984 15.1678 21.1815 15.1678C20.9283 15.1678 20.7156 15.0525 20.5436 14.822C20.5241 14.7928 20.1783 14.1045 19.5062 12.7571C19.4608 12.7116 19.4104 12.6889 19.3552 12.6889C19.2513 12.6889 19.1669 12.7798 19.102 12.9616L16.6085 17.895C16.5111 18.0411 16.3682 18.145 16.1799 18.2067C16.1539 18.2132 16.1312 18.2165 16.1117 18.2165H15.8536C15.74 18.2165 15.6052 18.1515 15.4494 18.0217C15.2936 17.8626 15.2156 17.6775 15.2156 17.4665C15.2156 17.3204 15.326 17.0444 15.5468 16.6385C15.5468 16.6288 16.4072 14.9097 18.128 11.4811C18.5046 10.7213 18.7075 10.3204 18.7367 10.2782C18.9088 10.0671 19.1052 9.9616 19.326 9.9616ZM22.7059 16.7311H22.7692C23.016 16.7311 23.2221 16.8545 23.3877 17.1012C23.4591 17.2343 23.4948 17.3593 23.4948 17.4762C23.4948 17.7587 23.3585 17.9827 23.0858 18.1483C22.9884 18.1937 22.9153 18.2165 22.8666 18.2165H22.6134C22.4965 18.2165 22.3569 18.145 22.1945 18.0022C22.0549 17.8431 21.9851 17.6694 21.9851 17.4811C21.9851 17.2408 22.0874 17.0379 22.2919 16.8723C22.4315 16.7782 22.5695 16.7311 22.7059 16.7311Z" fill="black"/>
</g>
<path d="M8.28112 9.88855H12.3525L12.372 9.89829H12.3866C12.6301 9.89829 12.8282 10.0233 12.9808 10.2733C13.0327 10.3772 13.0587 10.4843 13.0587 10.5947C13.0587 10.8642 12.9256 11.072 12.6594 11.2181C12.5685 11.2603 12.4775 11.2814 12.3866 11.2814H8.23729C8.04248 11.2814 7.87041 11.1921 7.72105 11.0135C7.62365 10.8837 7.57495 10.7506 7.57495 10.6142V10.5558C7.57495 10.3415 7.68209 10.158 7.89638 10.0054C8.01326 9.934 8.12852 9.89829 8.24216 9.89829H8.26164L8.28112 9.88855ZM8.27138 13.3707L10.3704 13.3804C10.51 13.3804 10.6594 13.4519 10.8185 13.5947C10.9451 13.7408 11.0084 13.8999 11.0084 14.072C11.0084 14.3123 10.8964 14.5087 10.6724 14.6613C10.562 14.7262 10.4548 14.7587 10.3509 14.7587H8.22755C8.01975 14.7587 7.83956 14.6548 7.68696 14.447C7.61229 14.3301 7.57495 14.2132 7.57495 14.0963V14.0379C7.57495 13.8171 7.69021 13.6272 7.92073 13.4681C8.03761 13.4097 8.148 13.3804 8.2519 13.3804H8.26164C8.26813 13.3804 8.27138 13.3772 8.27138 13.3707ZM12.3477 13.3804H12.3818C12.6448 13.3804 12.8509 13.5168 13.0003 13.7895C13.0392 13.8869 13.0587 13.9811 13.0587 14.072C13.0587 14.3447 12.924 14.5541 12.6545 14.7002C12.5571 14.7392 12.4711 14.7587 12.3964 14.7587H12.3282C12.1074 14.7587 11.9191 14.6434 11.7633 14.4129C11.7016 14.296 11.6707 14.1808 11.6707 14.0671C11.6707 13.8009 11.8038 13.5931 12.0701 13.4437C12.1707 13.4015 12.2633 13.3804 12.3477 13.3804ZM8.28112 16.8382H12.3525C12.3525 16.8447 12.4029 16.8528 12.5035 16.8626C12.6724 16.9048 12.8006 16.9811 12.8883 17.0915C13.0019 17.2246 13.0587 17.3772 13.0587 17.5493C13.0587 17.8123 12.9256 18.02 12.6594 18.1726C12.5782 18.2019 12.523 18.2165 12.4938 18.2165H8.13989C8.02625 18.2165 7.88989 18.1402 7.7308 17.9876C7.6269 17.848 7.57495 17.7067 7.57495 17.5639V17.52C7.57495 17.2798 7.6967 17.0834 7.94021 16.9308C8.01164 16.8885 8.12203 16.8593 8.27138 16.8431C8.27138 16.8398 8.27463 16.8382 8.28112 16.8382ZM19.326 9.9616H19.3845C19.6377 9.9616 19.8471 10.0882 20.0127 10.3415C21.2497 12.7993 21.8763 14.0541 21.8926 14.1061C21.938 14.2652 21.9608 14.361 21.9608 14.3934C21.9608 14.6856 21.8195 14.9145 21.5371 15.0801C21.4169 15.1386 21.2984 15.1678 21.1815 15.1678C20.9283 15.1678 20.7156 15.0525 20.5436 14.822C20.5241 14.7928 20.1783 14.1045 19.5062 12.7571C19.4608 12.7116 19.4104 12.6889 19.3552 12.6889C19.2513 12.6889 19.1669 12.7798 19.102 12.9616L16.6085 17.895C16.5111 18.0411 16.3682 18.145 16.1799 18.2067C16.1539 18.2132 16.1312 18.2165 16.1117 18.2165H15.8536C15.74 18.2165 15.6052 18.1515 15.4494 18.0217C15.2936 17.8626 15.2156 17.6775 15.2156 17.4665C15.2156 17.3204 15.326 17.0444 15.5468 16.6385C15.5468 16.6288 16.4072 14.9097 18.128 11.4811C18.5046 10.7213 18.7075 10.3204 18.7367 10.2782C18.9088 10.0671 19.1052 9.9616 19.326 9.9616ZM22.7059 16.7311H22.7692C23.016 16.7311 23.2221 16.8545 23.3877 17.1012C23.4591 17.2343 23.4948 17.3593 23.4948 17.4762C23.4948 17.7587 23.3585 17.9827 23.0858 18.1483C22.9884 18.1937 22.9153 18.2165 22.8666 18.2165H22.6134C22.4965 18.2165 22.3569 18.145 22.1945 18.0022C22.0549 17.8431 21.9851 17.6694 21.9851 17.4811C21.9851 17.2408 22.0874 17.0379 22.2919 16.8723C22.4315 16.7782 22.5695 16.7311 22.7059 16.7311Z" fill="white"/>
<g opacity="0.913225">
<g opacity="0.913225" filter="url(#filter1_d_1708:54)">
<path d="M24.3464 8.03463C26.4694 8.03463 28.1905 6.31354 28.1905 4.19047C28.1905 2.0674 26.4694 0.346313 24.3464 0.346313C22.2233 0.346313 20.5022 2.0674 20.5022 4.19047C20.5022 6.31354 22.2233 8.03463 24.3464 8.03463Z" fill="black"/>
</g>
<path opacity="0.913225" d="M24.3464 8.03463C26.4694 8.03463 28.1905 6.31354 28.1905 4.19047C28.1905 2.0674 26.4694 0.346313 24.3464 0.346313C22.2233 0.346313 20.5022 2.0674 20.5022 4.19047C20.5022 6.31354 22.2233 8.03463 24.3464 8.03463Z" fill="white"/>
</g>
<g filter="url(#filter2_d_1708:54)">
<path d="M24.381 5.40259C25.0313 5.40259 25.5585 4.87541 25.5585 4.2251C25.5585 3.57479 25.0313 3.04761 24.381 3.04761C23.7307 3.04761 23.2035 3.57479 23.2035 4.2251C23.2035 4.87541 23.7307 5.40259 24.381 5.40259Z" fill="black"/>
</g>
<path d="M24.381 5.40259C25.0313 5.40259 25.5585 4.87541 25.5585 4.2251C25.5585 3.57479 25.0313 3.04761 24.381 3.04761C23.7307 3.04761 23.2035 3.57479 23.2035 4.2251C23.2035 4.87541 23.7307 5.40259 24.381 5.40259Z" fill="#A43DFF"/>
<g opacity="0.913225">
<g opacity="0.913225" filter="url(#filter3_d_1708:54)">
<path d="M6.94902 24.5763C7.20763 24.413 7.29861 24.0847 7.15223 23.843C7.00585 23.6012 6.67754 23.5376 6.41893 23.7008C6.16033 23.864 6.06935 24.1923 6.21573 24.4341C6.36211 24.6758 6.69042 24.7395 6.94902 24.5763Z" fill="black"/>
</g>
<path opacity="0.913225" d="M6.94902 24.5763C7.20763 24.413 7.29861 24.0847 7.15223 23.843C7.00585 23.6012 6.67754 23.5376 6.41893 23.7008C6.16033 23.864 6.06935 24.1923 6.21573 24.4341C6.36211 24.6758 6.69042 24.7395 6.94902 24.5763Z" fill="white"/>
</g>
<path d="M28.9524 8.93504C29.4114 8.93504 29.7836 8.56292 29.7836 8.10387C29.7836 7.64483 29.4114 7.27271 28.9524 7.27271C28.4933 7.27271 28.1212 7.64483 28.1212 8.10387C28.1212 8.56292 28.4933 8.93504 28.9524 8.93504Z" fill="#F5A623"/>
<path d="M20.0866 1.24675C20.4309 1.24675 20.71 0.967658 20.71 0.623377C20.71 0.279095 20.4309 0 20.0866 0C19.7424 0 19.4633 0.279095 19.4633 0.623377C19.4633 0.967658 19.7424 1.24675 20.0866 1.24675Z" fill="#D8D8D8"/>
<path opacity="0.897879" fill-rule="evenodd" clip-rule="evenodd" d="M14.1283 24.0332C13.6267 24.1307 13.2054 24.4073 12.9179 24.7835C12.6042 25.194 12.1489 25.4728 11.6418 25.5714C11.1383 25.6693 10.6125 25.5881 10.1724 25.3246C9.73763 25.0642 9.20328 24.9665 8.66595 25.0972C8.16771 25.2185 7.75401 25.5224 7.48305 25.9227L7.47913 25.9285C7.20931 26.3301 7.08273 26.8278 7.15737 27.3355C7.32497 28.4756 8.40699 29.2331 9.52556 29.0156C10.0271 28.9181 10.4482 28.6417 10.7359 28.2653C11.0496 27.8548 11.5049 27.576 12.0121 27.4774C12.5156 27.3795 13.0413 27.4608 13.4814 27.7244C13.9161 27.9847 14.4506 28.0823 14.9878 27.9516C15.4848 27.8306 15.8977 27.528 16.1687 27.1291L16.1763 27.1178C16.4449 26.7167 16.5709 26.22 16.4964 25.7135C16.4103 25.1276 16.0828 24.6428 15.6329 24.3394C15.2073 24.0523 14.6721 23.9276 14.1283 24.0332Z" fill="url(#paint1_linear_1708:54)"/>
<path opacity="0.096875" fill-rule="evenodd" clip-rule="evenodd" d="M17.5912 2.90912C17.0795 2.91154 16.6656 3.32713 16.6656 3.83934C16.6656 4.07622 16.7541 4.29239 16.8999 4.45655C17.059 4.63566 17.1457 4.86749 17.1457 5.10701H17.1456C17.1456 5.32796 17.0736 5.54379 16.936 5.71528C16.7645 5.85284 16.5486 5.92495 16.3277 5.92495C16.0882 5.92495 15.8563 5.8383 15.6773 5.67927C15.5131 5.5334 15.297 5.44481 15.0601 5.44481C14.5317 5.44481 14.1063 5.88533 14.1309 6.41908C14.1528 6.89533 14.5391 7.2819 15.0154 7.3042C15.2716 7.31618 15.5061 7.22448 15.681 7.06746C15.858 6.90863 16.0901 6.8251 16.3279 6.8251C16.5674 6.8251 16.7993 6.91175 16.9784 7.07085C17.1425 7.21658 17.3586 7.30524 17.5955 7.30524C17.7131 7.30524 17.8254 7.28328 17.929 7.24353C17.9295 7.24339 17.9299 7.24325 17.9304 7.24297C17.9444 7.23757 17.9582 7.23196 17.9718 7.22586C17.973 7.22531 17.9741 7.22475 17.9754 7.2242C17.9883 7.21845 18.0009 7.21249 18.0135 7.20612C18.0154 7.20515 18.0174 7.20411 18.0192 7.20314C18.031 7.19712 18.0426 7.19088 18.0541 7.18444C18.0567 7.18299 18.0592 7.1814 18.0617 7.17987C18.0724 7.17364 18.083 7.1674 18.0934 7.16082C18.0967 7.15882 18.0998 7.1566 18.103 7.15445C18.1125 7.14822 18.1221 7.14191 18.1314 7.1354C18.1353 7.13263 18.1391 7.12979 18.1428 7.12702C18.1512 7.12079 18.1598 7.11462 18.1681 7.10811C18.1726 7.10458 18.1768 7.10098 18.1812 7.09738C18.1886 7.09135 18.1961 7.0854 18.2033 7.07916C18.2083 7.07487 18.2132 7.0703 18.2181 7.06586C18.2245 7.06018 18.2308 7.05443 18.237 7.04855C18.2426 7.04328 18.2478 7.03781 18.2532 7.03248C18.2586 7.02714 18.264 7.02181 18.2693 7.01634C18.2752 7.0101 18.2808 7.00373 18.2866 6.99736C18.291 6.99237 18.2955 6.98759 18.2999 6.98261C18.3061 6.97533 18.3121 6.96792 18.3181 6.96051C18.3216 6.95615 18.3254 6.95179 18.3288 6.94735C18.3353 6.93904 18.3415 6.93059 18.3477 6.92214C18.3504 6.91826 18.3534 6.91459 18.3561 6.91078C18.3626 6.90143 18.3689 6.89187 18.3752 6.88224C18.3773 6.87913 18.3795 6.87594 18.3815 6.87269C18.3881 6.8623 18.3944 6.8517 18.4006 6.84103C18.402 6.83847 18.4036 6.83598 18.4051 6.83334C18.4117 6.82191 18.4178 6.81021 18.4239 6.79843C18.4248 6.79656 18.4258 6.79476 18.4268 6.79282C18.4332 6.78029 18.4391 6.76761 18.4449 6.75459C18.4454 6.75348 18.446 6.7523 18.4465 6.75113C18.4526 6.73748 18.4583 6.72363 18.4637 6.70971L18.4643 6.70832C18.5041 6.60477 18.5259 6.49236 18.5259 6.37488C18.5259 6.138 18.4374 5.92183 18.2915 5.7576C18.1325 5.57856 18.0458 5.34659 18.0458 5.10708C18.0458 4.86936 18.1293 4.63719 18.2882 4.46029C18.4452 4.2854 18.5368 4.05087 18.5249 3.79473C18.5026 3.31847 18.1161 2.93211 17.6397 2.91016C17.6268 2.90953 17.6138 2.90919 17.6009 2.90912H17.5912Z" fill="white"/>
</g>
<defs>
<filter id="filter0_d_1708:54" x="-14.425" y="2.88855" width="59.9199" height="52.3279" filterUnits="userSpaceOnUse" color-interpolation-filters="sRGB">
<feFlood flood-opacity="0" result="BackgroundImageFix"/>
<feColorMatrix in="SourceAlpha" type="matrix" values="0 0 0 0 0 0 0 0 0 0 0 0 0 0 0 0 0 0 127 0" result="hardAlpha"/>
<feOffset dy="15"/>
<feGaussianBlur stdDeviation="11"/>
<feColorMatrix type="matrix" values="0 0 0 0 0 0 0 0 0 0 0 0 0 0 0 0 0 0 0.25 0"/>
<feBlend mode="normal" in2="BackgroundImageFix" result="effect1_dropShadow_1708:54"/>
<feBlend mode="normal" in="SourceGraphic" in2="effect1_dropShadow_1708:54" result="shape"/>
</filter>
<filter id="filter1_d_1708:54" x="-23.4978" y="-19.6537" width="85.6884" height="85.6883" filterUnits="userSpaceOnUse" color-interpolation-filters="sRGB">
<feFlood flood-opacity="0" result="BackgroundImageFix"/>
<feColorMatrix in="SourceAlpha" type="matrix" values="0 0 0 0 0 0 0 0 0 0 0 0 0 0 0 0 0 0 127 0" result="hardAlpha"/>
<feOffset dx="-5" dy="19"/>
<feGaussianBlur stdDeviation="19.5"/>
<feColorMatrix type="matrix" values="0 0 0 0 0 0 0 0 0 0 0 0 0 0 0 0 0 0 0.281618 0"/>
<feBlend mode="normal" in2="BackgroundImageFix" result="effect1_dropShadow_1708:54"/>
<feBlend mode="normal" in="SourceGraphic" in2="effect1_dropShadow_1708:54" result="shape"/>
</filter>
<filter id="filter2_d_1708:54" x="-8.79651" y="-14.9524" width="60.355" height="60.355" filterUnits="userSpaceOnUse" color-interpolation-filters="sRGB">
<feFlood flood-opacity="0" result="BackgroundImageFix"/>
<feColorMatrix in="SourceAlpha" type="matrix" values="0 0 0 0 0 0 0 0 0 0 0 0 0 0 0 0 0 0 127 0" result="hardAlpha"/>
<feOffset dx="-3" dy="11"/>
<feGaussianBlur stdDeviation="14.5"/>
<feColorMatrix type="matrix" values="0 0 0 0 0.382305 0 0 0 0 0.032429 0 0 0 0 0.516582 0 0 0 0.654382 0"/>
<feBlend mode="normal" in2="BackgroundImageFix" result="effect1_dropShadow_1708:54"/>
<feBlend mode="normal" in="SourceGraphic" in2="effect1_dropShadow_1708:54" result="shape"/>
</filter>
<filter id="filter3_d_1708:54" x="-10.8541" y="17.6103" width="29.0763" height="29.0565" filterUnits="userSpaceOnUse" color-interpolation-filters="sRGB">
<feFlood flood-opacity="0" result="BackgroundImageFix"/>
<feColorMatrix in="SourceAlpha" type="matrix" values="0 0 0 0 0 0 0 0 0 0 0 0 0 0 0 0 0 0 127 0" result="hardAlpha"/>
<feOffset dx="-3" dy="8"/>
<feGaussianBlur stdDeviation="7"/>
<feColorMatrix type="matrix" values="0 0 0 0 0 0 0 0 0 0 0 0 0 0 0 0 0 0 0.281618 0"/>
<feBlend mode="normal" in2="BackgroundImageFix" result="effect1_dropShadow_1708:54"/>
<feBlend mode="normal" in="SourceGraphic" in2="effect1_dropShadow_1708:54" result="shape"/>
</filter>
<linearGradient id="paint0_linear_1708:54" x1="15.2381" y1="1.45453" x2="15.2381" y2="27.3593" gradientUnits="userSpaceOnUse">
<stop stop-color="#2460FF"/>
<stop offset="1" stop-color="#B80AFF"/>
</linearGradient>
<linearGradient id="paint1_linear_1708:54" x1="15.95" y1="24.5532" x2="6.76648" y2="27.8598" gradientUnits="userSpaceOnUse">
<stop stop-color="#FF710F"/>
<stop offset="1" stop-color="#CB16A9"/>
</linearGradient>
<clipPath id="clip0_1708:54">
<rect width="32" height="32" fill="white"/>
</clipPath>
</defs>
</svg>
