<svg width="32" height="32" viewBox="0 0 32 32" fill="none" xmlns="http://www.w3.org/2000/svg">
<path d="M24.5293 16.8278C24.5293 16.4702 24.5862 16.0963 24.5862 15.7306C24.5884 13.0072 23.5937 10.3771 21.7899 8.33662C19.9861 6.2961 17.4978 4.98635 14.7946 4.65453C12.0914 4.3227 9.3603 4.99164 7.11647 6.5352C4.87265 8.07867 3.27134 10.3901 2.61469 13.0333C1.95804 15.6763 2.29146 18.4685 3.55204 20.8826C4.81262 23.2968 6.91318 25.1661 9.45737 26.1379C12.0015 27.1097 14.8135 27.1167 17.3625 26.1576C19.9115 25.1986 22.0214 23.3398 23.294 20.9319H17.6701C16.7583 21.6741 15.6673 22.1634 14.5067 22.3508C13.346 22.5382 12.1565 22.4171 11.0574 21.9997C9.95834 21.5823 8.9883 20.8832 8.24467 19.9727C7.50103 19.062 7.00993 17.9719 6.82059 16.8115L24.5293 16.8278ZM7.46263 12.9187C8.0884 10.7732 10.7134 9.04212 13.2815 9.00149C16.0285 8.95273 18.6535 10.6269 19.4174 12.9187H7.46263Z" fill="#4A4A49"/>
<path d="M30.0841 23.4066C30.0841 23.974 29.9159 24.5287 29.6006 25.0004C29.2854 25.4722 28.8373 25.8399 28.3132 26.057C27.789 26.2742 27.2121 26.331 26.6556 26.2203C26.0991 26.1096 25.5879 25.8364 25.1867 25.4351C24.7855 25.0339 24.5122 24.5227 24.4016 23.9663C24.2909 23.4097 24.3477 22.8329 24.5648 22.3087C24.782 21.7845 25.1497 21.3365 25.6214 21.0212C26.0932 20.706 26.6479 20.5377 27.2153 20.5377C27.9761 20.5377 28.7059 20.84 29.2439 21.378C29.7819 21.916 30.0841 22.6457 30.0841 23.4066Z" fill="#68C5B9"/>
</svg>
