<svg width="32" height="32" viewBox="0 0 32 32" fill="none" xmlns="http://www.w3.org/2000/svg">
<g clip-path="url(#clip0_928_9)">
<path d="M32 23.2173C15.2701 25.4038 3.32918 28.0298 3.15254 17.2508C3.15254 17.2508 3.5176 13.0742 8.64019 12.8112C8.64019 12.8112 8.81291 9.10175 12.7265 8.68173C14.8305 8.45406 17.221 10.6209 17.4801 12.9015C17.4801 12.9015 22.6576 11.9437 22.8814 16.9917C22.9599 18.7503 22.5634 21.7414 17.5704 21.6119C17.5704 21.6119 14.6813 21.2193 14.2888 16.7523C13.4762 25.3998 25.9785 24.8974 26.1591 17.0427C26.2376 13.6473 24.0629 10.1537 19.1641 10.8093C16.4791 4.05373 9.33105 4.44234 6.66966 10.7072C2.86599 10.7072 -0.0427044 13.6355 0.000474513 17.4588C0.145713 29.7648 17.2721 26.0554 32 23.2173Z" fill="#24339B"/>
</g>
<defs>
<clipPath id="clip0_928_9">
<rect width="32" height="32" fill="white"/>
</clipPath>
</defs>
</svg>
