<svg xmlns="http://www.w3.org/2000/svg" fill="none" width="32px" height="32px" viewBox="0 0 200 200">
  <g clip-path="url(#a)">
    <path fill="#6DB1DC" d="M189.6 92.3a89.3 89.3 0 1 1-178.6 0 89.3 89.3 0 0 1 178.6 0Z"/>
    <path stroke="#fff" stroke-linecap="round" stroke-miterlimit="10" stroke-width="5.5" d="M189.6 92.3a89.3 89.3 0 1 1-178.6 0 89.3 89.3 0 0 1 178.6 0Z"/>
    <path fill="#6DB1DC" d="M76.2 197.9H123l-13.9-20.5H90l-13.8 20.5Z"/>
    <path stroke="#fff" stroke-linecap="round" stroke-linejoin="round" stroke-miterlimit="10" stroke-width="5.2" d="M99.6 177.4v20.5"/>
    <path stroke="#fff" stroke-linecap="round" stroke-linejoin="round" stroke-miterlimit="10" stroke-width="5.1" d="m90 177.4-13.8 20.5H123l-13.9-20.5"/>
    <path fill="#463E65" d="m117 184.3-5.5-8.1H87.8l-5.6 8c5.3 2.9 11.3 4.6 17.3 4.6s12-1.7 17.5-4.5Z" opacity=".5"/>
    <path fill="#6DB1DC" d="M100.3 177.4c-21.3 0-38.7-24.4-38.7-47.8 0-9.3 2.8-17.8 7.4-24.8a38.1 38.1 0 1 1 62.6 0 45 45 0 0 1 7.2 24.8c0 23.4-17.3 47.8-38.5 47.8Z"/>
    <path fill="#010101" d="M53.4 90.7s.2-.3 0-.3c0 0-.3.3 0 .3Z"/>
    <path stroke="#fff" stroke-linecap="round" stroke-linejoin="round" stroke-miterlimit="10" stroke-width="5.1" d="M115.8 118c.2 8.7 3 23.2 18 32.7m-58.7-39.2A39 39 0 0 1 63 139.8m61.8-27.5c.3 7.5 2.7 18.7 12.3 27.5"/>
    <path stroke="#fff" stroke-linecap="round" stroke-linejoin="round" stroke-miterlimit="10" stroke-width="5.1" d="M131.6 104.8a45 45 0 0 1 7.2 24.8c0 23.4-17.3 47.8-38.5 47.8-21.3 0-38.7-24.4-38.7-47.8 0-9.3 2.8-17.8 7.4-24.8"/>
    <path stroke="#fff" stroke-linecap="round" stroke-linejoin="round" stroke-miterlimit="10" stroke-width="5.1" d="M85.2 118.2a38.4 38.4 0 0 1-18.1 32.5"/>
    <path fill="#463E65" d="M66.7 104c-1 1.2-1.9 2.8-2.7 4.3a41 41 0 0 0 72.6 0c-.8-1.5-1.7-3-2.7-4.4 0 0-11.7 19-33.6 17.6A47.9 47.9 0 0 1 66.6 104" opacity=".5"/>
    <path stroke="#fff" stroke-linecap="round" stroke-linejoin="round" stroke-miterlimit="10" stroke-width="5.2" d="M100.3 84.6v-1m0 0c0-9.6-8-17.3-17.7-17.3h-2.4S57 68 51.6 61.3m48.7 22.2c0-9.5 8-17.2 17.9-17.2h2.2s23 1.7 28.6-5"/>
    <path stroke="#fff" stroke-linecap="round" stroke-linejoin="round" stroke-miterlimit="10" stroke-width="5.1" d="M138.4 83.1a38.1 38.1 0 1 1-76.2 0 38.1 38.1 0 0 1 76.2 0v0Z"/>
    <path stroke="#fff" stroke-linecap="round" stroke-linejoin="round" stroke-miterlimit="10" stroke-width="5.1" d="M100.3 81.1v16.3M87.8 85.5a5.7 5.7 0 0 1-9.8 4c-1-1-1.7-2.5-1.7-4 0-3 2.5-5.6 5.7-5.6 3.1 0 5.8 2.5 5.8 5.6Zm36.5 0a5.8 5.8 0 0 1-9.7 4c-1.1-1-1.7-2.5-1.8-4 0-3 2.7-5.6 5.8-5.6 3.2 0 5.7 2.5 5.7 5.6Z"/>
  </g>
  <defs>
    <clipPath id="a">
      <path fill="#fff" d="M0 0h200v200H0z"/>
    </clipPath>
  </defs>
</svg>
