<svg width="32" height="32" viewBox="0 0 32 32" fill="none" xmlns="http://www.w3.org/2000/svg">
<path d="M13.4888 10.2805L13.1409 10.4863C12.7861 10.7258 12.4352 11.0164 12.1105 11.3413C11.6433 11.8083 11.2478 12.3277 10.9662 12.8435L10.9512 12.8709C9.81313 14.8194 9.89979 17.0524 11.1432 19.0209L19.7636 10.4009C17.7595 9.16258 15.4806 9.10162 13.4888 10.2805Z" fill="#00549F"/>
<path d="M28.2652 11.9905C27.4411 11.1526 26.9887 10.0329 26.9887 8.83865C26.9887 7.69763 27.4256 6.56351 28.1896 5.72724C28.2495 5.66161 28.3116 5.59883 28.3747 5.53737C25.4889 2.26677 21.2668 0.203125 16.5619 0.203125C7.86387 0.203125 0.812698 7.2543 0.812698 15.9525C0.812698 24.6507 7.86387 31.7018 16.5619 31.7018C23.014 31.7018 28.5574 27.8212 30.9914 22.2674V13.3171C29.9756 13.184 28.9861 12.7245 28.2652 11.9905ZM28.1564 16.5758C28.0731 19.0469 26.8619 21.5728 24.7462 23.6886C24.696 23.7392 24.6449 23.789 24.5937 23.8384C22.1067 26.3259 18.7836 27.6099 15.7155 27.2626L15.6919 27.2597C11.7868 26.7285 8.25793 24.1814 6.4831 20.6123C4.86857 17.3647 4.9469 13.7189 6.69796 10.6088C7.17308 9.73008 7.81399 8.88081 8.59439 8.10062C9.33719 7.35822 10.1756 6.70664 11.0882 6.16325L11.1213 6.13054L11.2448 6.06004C13.6768 4.6752 16.2693 4.27596 18.7547 4.8221L18.9495 4.8669C20.8853 5.33217 22.7518 6.37374 24.42 7.97191C25.0258 8.48584 25.3766 9.15459 25.4083 9.85727C25.4442 10.6464 25.0997 11.409 24.3853 12.1236L14.507 22.002C16.7087 22.963 19.3102 22.448 21.1854 20.5727C22.0462 19.7117 23.1225 18.2936 23.3795 16.414C23.4213 15.744 23.6888 15.1313 24.1363 14.6837C24.8275 13.9926 25.8343 13.774 26.7012 14.1266C27.5985 14.4916 28.1425 15.3891 28.1569 16.527L28.1564 16.5758Z" fill="#00549F"/>
</svg>
