<svg width="32" height="32" viewBox="0 0 32 32" fill="none" xmlns="http://www.w3.org/2000/svg">
<g clip-path="url(#clip0)">
<mask id="mask0" mask-type="alpha" maskUnits="userSpaceOnUse" x="17" y="12" width="7" height="8">
<path d="M17.0645 12.04H23.7357V19.7536H17.0648L17.0645 12.04Z" fill="white"/>
</mask>
<g mask="url(#mask0)">
<path fill-rule="evenodd" clip-rule="evenodd" d="M20.9847 19.753C19.8821 19.753 18.9434 19.3835 18.1934 18.6551C17.4447 17.9271 17.0652 16.9987 17.0652 15.8962C17.0652 14.7879 17.4343 13.8906 18.1941 13.1521C18.9535 12.4139 19.8926 12.0391 20.985 12.0391C22.0515 12.0391 22.931 12.3831 23.6733 13.0909C23.7123 13.1285 23.7348 13.18 23.7359 13.2341C23.7369 13.2882 23.7165 13.3405 23.679 13.3796L22.9956 14.0978C22.9766 14.1178 22.9538 14.1337 22.9284 14.1445C22.9031 14.1554 22.8759 14.1611 22.8483 14.1612C22.8014 14.1614 22.756 14.1445 22.7206 14.1137C22.2359 13.6863 21.652 13.4696 20.9847 13.4696C20.3187 13.4696 19.7503 13.7024 19.296 14.1618C18.8508 14.6269 18.6256 15.2102 18.6256 15.8962C18.6256 16.5824 18.8505 17.1654 19.2947 17.6292C19.7503 18.0896 20.3187 18.3225 20.9847 18.3225C21.652 18.3225 22.2362 18.1061 22.7209 17.6787C22.7562 17.6479 22.8015 17.631 22.8483 17.6311C22.9034 17.6311 22.9573 17.654 22.9956 17.6945L23.679 18.4128C23.7165 18.4518 23.7369 18.5042 23.7359 18.5583C23.7348 18.6124 23.7123 18.6639 23.6733 18.7014C22.931 19.4092 22.0515 19.7533 20.9847 19.7533" fill="#1D1D1B"/>
</g>
<mask id="mask1" mask-type="alpha" maskUnits="userSpaceOnUse" x="24" y="12" width="9" height="8">
<path d="M24.2283 12.0547H32.0977V19.7686H24.2283V12.0547Z" fill="white"/>
</mask>
<g mask="url(#mask1)">
<path fill-rule="evenodd" clip-rule="evenodd" d="M28.1633 13.4852C27.4723 13.4852 26.9147 13.7168 26.4581 14.1933C26.0143 14.6571 25.789 15.2357 25.789 15.9118C25.789 16.5917 26.0076 17.1585 26.4572 17.6439C26.9141 18.1052 27.4872 18.3381 28.163 18.3381C28.829 18.3381 29.3974 18.1052 29.852 17.6458C30.3133 17.1645 30.537 16.5977 30.537 15.9118C30.537 15.2297 30.3067 14.6511 29.852 14.1924C29.4031 13.7234 28.8344 13.4852 28.1633 13.4852V13.4852ZM28.1633 19.7686C27.0706 19.7686 26.1315 19.3941 25.372 18.6559C24.6129 17.9183 24.2283 16.995 24.2283 15.9118C24.2283 14.8282 24.6132 13.9053 25.372 13.1677C26.1312 12.4292 27.0703 12.0547 28.1633 12.0547C29.2554 12.0547 30.1942 12.4292 30.9543 13.1677C31.7131 13.9053 32.0981 14.8285 32.0981 15.9115C32.0981 16.995 31.7131 17.9183 30.9543 18.6559C30.1945 19.3941 29.2554 19.7686 28.163 19.7686" fill="#1D1D1B"/>
</g>
<path fill-rule="evenodd" clip-rule="evenodd" d="M13.9743 19.6896C13.9473 19.6897 13.9206 19.6843 13.8958 19.6737C13.871 19.6631 13.8486 19.6475 13.8301 19.6279L11.2853 16.9592L8.74051 19.6279C8.72228 19.6472 8.70034 19.6627 8.676 19.6734C8.65166 19.684 8.62541 19.6897 8.59883 19.69C8.57225 19.6904 8.54588 19.6853 8.52128 19.6753C8.49669 19.6652 8.47438 19.6502 8.45568 19.6313L7.70415 18.8801C7.66656 18.8421 7.64521 18.791 7.64462 18.7376C7.64403 18.6841 7.66424 18.6325 7.70098 18.5937L10.2724 15.8969L7.70067 13.2003C7.66392 13.1615 7.64371 13.1099 7.6443 13.0564C7.64489 13.003 7.66624 12.9519 7.70384 12.9139L8.45599 12.1627C8.4747 12.1437 8.49703 12.1288 8.52166 12.1186C8.54628 12.1085 8.57269 12.1035 8.59931 12.1038C8.62593 12.1041 8.65221 12.1098 8.67658 12.1205C8.70095 12.1313 8.72291 12.1468 8.74114 12.1662L11.2856 14.8348L13.8301 12.1662C13.8483 12.1467 13.8702 12.1311 13.8946 12.1203C13.919 12.1096 13.9453 12.1039 13.9719 12.1035C13.9986 12.1032 14.025 12.1083 14.0496 12.1184C14.0743 12.1286 14.0966 12.1437 14.1152 12.1627L14.8668 12.9136C14.9045 12.9516 14.9259 13.0028 14.9265 13.0563C14.927 13.1098 14.9068 13.1615 14.8699 13.2003L12.2985 15.8969L14.8703 18.5937C14.907 18.6325 14.9272 18.6841 14.9266 18.7376C14.926 18.791 14.9047 18.8421 14.8671 18.8801L14.1152 19.631C14.0968 19.6496 14.0748 19.6644 14.0506 19.6745C14.0264 19.6845 14.0005 19.6897 13.9743 19.6896V19.6896ZM2.0354 13.5767V12.1712H6.34748C6.45837 12.1712 6.54835 12.2628 6.54835 12.375V13.373C6.54869 13.4266 6.52772 13.4782 6.49006 13.5164C6.4524 13.5546 6.40112 13.5763 6.34748 13.5767H2.0354Z" fill="#1D1D1B"/>
<mask id="mask2" mask-type="alpha" maskUnits="userSpaceOnUse" x="0" y="12" width="2" height="2">
<path d="M0.316895 12.1709H1.7306V13.5764H0.316895V12.1709Z" fill="white"/>
</mask>
<g mask="url(#mask2)">
<path fill-rule="evenodd" clip-rule="evenodd" d="M0.517453 13.5757C0.463868 13.5752 0.412668 13.5535 0.375075 13.5153C0.337481 13.4771 0.316561 13.4256 0.316899 13.372V12.374C0.316899 12.2612 0.406879 12.1699 0.517453 12.1699H1.73092V13.5754H0.517136L0.517453 13.5757Z" fill="#06DCF9"/>
</g>
<path fill-rule="evenodd" clip-rule="evenodd" d="M2.0354 19.6494V18.2443H6.34748C6.45837 18.2443 6.54835 18.3355 6.54835 18.4477V19.446C6.54852 19.4726 6.54345 19.4989 6.53345 19.5235C6.52344 19.5481 6.5087 19.5704 6.49004 19.5893C6.47139 19.6082 6.4492 19.6232 6.42474 19.6336C6.40028 19.6439 6.37402 19.6493 6.34748 19.6494H2.0354ZM2.0354 16.599V15.1941H6.34748C6.45837 15.1941 6.54835 15.2854 6.54835 15.3975V16.3956C6.54856 16.4221 6.54353 16.4485 6.53354 16.4731C6.52355 16.4977 6.50881 16.5202 6.49015 16.5391C6.4715 16.558 6.44929 16.5731 6.42481 16.5834C6.40033 16.5937 6.37405 16.5991 6.34748 16.5993H2.0354V16.599ZM14.8753 16.6421C14.8176 16.6416 14.7623 16.6183 14.7218 16.5772C14.6812 16.5361 14.6586 16.4806 14.6589 16.4228V15.3706C14.6589 15.2496 14.7559 15.1514 14.8753 15.1514H15.9427C16.0619 15.1514 16.1591 15.2496 16.1591 15.3706V16.4228C16.1595 16.4806 16.1369 16.5361 16.0963 16.5772C16.0557 16.6183 16.0005 16.6416 15.9427 16.6421H14.875H14.8753Z" fill="#1D1D1B"/>
<mask id="mask3" mask-type="alpha" maskUnits="userSpaceOnUse" x="0" y="15" width="2" height="2">
<path d="M0.316895 15.2041H1.7306V16.6096H0.316895V15.2041Z" fill="white"/>
</mask>
<g mask="url(#mask3)">
<path fill-rule="evenodd" clip-rule="evenodd" d="M0.517453 16.6096C0.463868 16.6091 0.412668 16.5873 0.375075 16.5492C0.337481 16.511 0.316561 16.4594 0.316899 16.4058V15.4078C0.316899 15.2953 0.406879 15.2041 0.517453 15.2041H1.73092V16.6096H0.517136H0.517453Z" fill="#28A0F9"/>
</g>
<mask id="mask4" mask-type="alpha" maskUnits="userSpaceOnUse" x="0" y="18" width="2" height="2">
<path d="M0.316895 18.2441H1.7306V19.6493H0.316895V18.2441Z" fill="white"/>
</mask>
<g mask="url(#mask4)">
<path fill-rule="evenodd" clip-rule="evenodd" d="M0.517451 19.6486C0.463922 19.6481 0.41277 19.6265 0.375185 19.5883C0.337601 19.5502 0.316643 19.4988 0.316897 19.4452V18.4469C0.316897 18.3347 0.406877 18.2432 0.517451 18.2432H1.73092V19.6486H0.517134H0.517451Z" fill="#A036F7"/>
</g>
</g>
<defs>
<clipPath id="clip0">
<rect width="32" height="32" fill="white"/>
</clipPath>
</defs>
</svg>
