<svg width="32" height="32" viewBox="0 0 32 32" fill="none" xmlns="http://www.w3.org/2000/svg">
<path d="M15.9808 31.8357C24.8068 31.8357 31.9616 24.7091 31.9616 15.9179C31.9616 7.12667 24.8068 0 15.9808 0C7.15485 0 0 7.12667 0 15.9179C0 24.7091 7.15485 31.8357 15.9808 31.8357Z" fill="#FFD500"/>
<path d="M19.2192 12.6124L18.4363 14.5953C18.8554 14.8621 19.1993 15.2318 19.4353 15.669C19.6713 16.1063 19.7915 16.5966 19.7846 17.0934C19.7695 17.6457 19.5935 18.1815 19.2782 18.6352C18.9629 19.0889 18.522 19.4406 18.0097 19.6473C17.4973 19.8539 16.9358 19.9065 16.3939 19.7986C15.8521 19.6906 15.3536 19.4269 14.9596 19.0396C14.5655 18.6524 14.2931 18.1585 14.1757 17.6187C14.0584 17.0788 14.1012 16.5165 14.2989 16.0006C14.4966 15.4847 14.8406 15.0377 15.2887 14.7146C15.7368 14.3914 16.2695 14.2061 16.8214 14.1814L17.5574 12.1473C16.8589 12.0343 16.1442 12.0741 15.4625 12.2637C14.7809 12.4534 14.1484 12.7885 13.6086 13.2459C13.0688 13.7034 12.6345 14.2724 12.3357 14.9138C12.0368 15.5551 11.8805 16.2536 11.8774 16.9612H11.871V22.0812H14.111V21.279C14.9602 21.8132 15.9451 22.0916 16.9483 22.0812C17.6123 22.1009 18.2733 21.9862 18.8918 21.744C19.5103 21.5018 20.0735 21.137 20.5475 20.6716C21.0214 20.2062 21.3964 19.6498 21.6499 19.0358C21.9033 18.4218 22.0301 17.763 22.0224 17.0988C22.0366 16.1605 21.7796 15.238 21.2824 14.4422C20.7851 13.6464 20.0687 13.011 19.2192 12.6124V12.6124Z" fill="#002840"/>
<path d="M11.871 12.3691C12.5101 11.7213 13.2715 11.2068 14.111 10.8555V7.65552H11.871V12.3691Z" fill="#002840"/>
</svg>
