<svg width="39" height="39" viewBox="0 0 39 39" fill="none" xmlns="http://www.w3.org/2000/svg">
<rect width="39" height="39" fill="#E5E5E5"/>
<rect width="38.15" height="38.15" fill="#333333"/>
<path d="M23.6745 22.3494C22.9142 23.134 22.0413 23.8009 21.0845 24.3284C20.3674 24.6759 19.5815 24.8584 18.7845 24.8624C18.3622 24.8806 17.9407 24.8099 17.5475 24.6548C17.1542 24.4998 16.7979 24.2639 16.5015 23.9624C15.8954 23.2628 15.588 22.3533 15.6455 21.4294L15.7195 20.3404L15.8705 20.3144C17.9049 20.0321 19.9009 19.5208 21.8205 18.7904C22.8973 18.3796 23.8519 17.7017 24.5945 16.8204C25.1093 16.1927 25.4043 15.4136 25.4345 14.6024C25.4437 14.187 25.356 13.7752 25.1785 13.3996C25.0009 13.024 24.7383 12.6949 24.4115 12.4384C23.5564 11.8118 22.5086 11.505 21.4505 11.5714C19.7159 11.5625 18.0062 11.9841 16.4745 12.7984C14.9865 13.5732 13.7316 14.7302 12.8385 16.1504C11.9844 17.4732 11.5241 19.0118 11.5115 20.5864C11.4742 21.3374 11.5944 22.088 11.8644 22.7898C12.1345 23.4916 12.5484 24.1291 13.0795 24.6614C14.2715 25.7106 15.828 26.2493 17.4135 26.1614C18.6754 26.1699 19.924 25.9049 21.0735 25.3844C22.3217 24.7583 23.4462 23.9113 24.3925 22.8844L23.6745 22.3494ZM15.9005 19.2334C16.1634 17.3314 16.8727 15.5187 17.9705 13.9434C18.2136 13.5486 18.5471 13.2175 18.9436 12.9773C19.3401 12.7372 19.7881 12.5949 20.2505 12.5624C20.4582 12.5595 20.664 12.6029 20.8529 12.6893C21.0418 12.7758 21.209 12.9033 21.3425 13.0624C21.6415 13.4364 21.7928 13.9072 21.7675 14.3854C21.751 15.0539 21.5892 15.7108 21.2934 16.3105C20.9976 16.9102 20.5749 17.4384 20.0545 17.8584C18.9092 18.7308 17.5525 19.283 16.1235 19.4584L15.8505 19.5084L15.9005 19.2334Z" fill="white"/>
<path d="M5.61144 22.7131C4.10344 16.8131 7.67444 10.6431 13.8114 7.82812C13.6574 7.88312 13.5114 7.94612 13.3624 8.00312C13.4926 7.93838 13.6261 7.88063 13.7624 7.83012L2.27244 10.7941L5.33544 12.6071C1.32344 16.0071 -0.746558 20.2151 0.246442 24.0981C1.79944 30.1771 10.3024 33.3471 19.9334 31.7891C13.2064 32.2911 7.11844 28.6141 5.61144 22.7131V22.7131Z" fill="white"/>
<path d="M32.5349 15.4674C34.0429 21.3674 30.4729 27.5384 24.3349 30.3534C24.4879 30.2974 24.6349 30.2344 24.7839 30.1774C24.654 30.2429 24.5204 30.301 24.3839 30.3514L35.8739 27.3874L32.8109 25.5754C36.8219 22.1754 38.8919 17.9654 37.8999 14.0834C36.3469 8.00539 27.8429 4.83439 18.2129 6.39439C24.9419 5.89039 31.0349 9.56739 32.5349 15.4674Z" fill="white"/>
</svg>
