<svg width="32" height="32" viewBox="0 0 32 32" fill="none" xmlns="http://www.w3.org/2000/svg">
<g clip-path="url(#clip0_3227_334)">
<path d="M32 25.0839C30.836 25.3798 30.116 25.0968 29.4702 24.127L24.8761 17.7711L24.212 16.891L18.847 24.1481C18.234 25.0212 17.5911 25.4009 16.447 25.092L23.317 15.87L16.921 7.53984C18.0209 7.326 18.781 7.43472 19.4559 8.41992L24.2209 14.8551L29.0209 8.45496C29.6358 7.58184 30.297 7.25016 31.401 7.57176L28.921 10.8598L25.561 15.2347C25.1609 15.7347 25.2159 16.0769 25.5841 16.5595L32 25.0839ZM0.00816002 15.7159L0.570001 12.9519C2.10001 7.48176 8.37002 5.20871 12.6941 8.58864C15.2211 10.5766 15.8492 13.3887 15.7241 16.5387H1.48008C1.26624 22.2087 5.34721 25.6306 10.5499 23.8848C12.3749 23.2719 13.4499 21.8427 13.988 20.0549C14.2611 19.159 14.7128 19.0188 15.5549 19.2749C15.1251 21.511 14.155 23.3789 12.1049 24.548C9.04202 26.2978 4.66969 25.7319 2.37001 23.3C0.999843 21.8888 0.433921 20.101 0.18 18.1889C0.13992 17.8728 0.0600002 17.5719 0 17.269C0.00528001 16.7515 0.00816002 16.2343 0.00816002 15.7169V15.7159V15.7159ZM1.506 15.336H14.378C14.294 11.2361 11.7411 8.32392 8.25194 8.2992C4.42201 8.2692 1.67184 11.112 1.50576 15.336H1.506V15.336Z" fill="black"/>
</g>
<defs>
<clipPath id="clip0_3227_334">
<rect width="32" height="18.5652" fill="white" transform="translate(0 7)"/>
</clipPath>
</defs>
</svg>
