<?xml version="1.0" encoding="UTF-8" standalone="no"?>
<svg
   xmlns:dc="http://purl.org/dc/elements/1.1/"
   xmlns:cc="http://creativecommons.org/ns#"
   xmlns:rdf="http://www.w3.org/1999/02/22-rdf-syntax-ns#"
   xmlns:svg="http://www.w3.org/2000/svg"
   xmlns="http://www.w3.org/2000/svg"
   id="svg3725"
   version="1.1"
   width="26.927414"
   height="26.853029"
   viewBox="0 0 140.94203 144.4">
  <title
     id="title3772">eZ logo</title>
  <metadata
     id="metadata3731">
    <rdf:RDF>
      <cc:Work
         rdf:about="">
        <dc:format>image/svg+xml</dc:format>
        <dc:type
           rdf:resource="http://purl.org/dc/dcmitype/StillImage" />
        <dc:title>eZ logo</dc:title>
      </cc:Work>
    </rdf:RDF>
  </metadata>
  <defs
     id="defs3729">
    <clipPath
       id="clipPath3754"
       clipPathUnits="userSpaceOnUse">
      <g
         id="use3756">
        <path
           id="path3758"
           d="m 412.8,25 c -5.7,0 -10.4,-4.7 -10.4,-10.4 0,-5.7 4.6,-10.3 10.4,-10.3 5.7,0 10.4,4.7 10.4,10.4 0,5.7 -4.7,10.3 -10.4,10.3 z m 0,-19.4 c -5,0 -9.1,4.1 -9.1,9.1 0,5 4.1,9.1 9.1,9.1 5,0 9.1,-4.1 9.1,-9.1 0,-5 -4.1,-9.1 -9.1,-9.1 z M 8,15.5 H 130.3 V 137.8 H 8 Z" />
      </g>
    </clipPath>
  </defs>
  <g
     transform="translate(-13.874194,-15.5)"
     clip-path="url(#clipPath3754)"
     id="g3752">
    <path
       id="path3715"
       d="M 8,15.5 H 130.3 V 137.8 H 8 Z" />
  </g>
  <path
     style="fill:#ffffff"
     id="path3717"
     d="M 6.0258065,11.9 H 104.62581 v 98.6 H 6.0258065 Z" />
  <path
     id="path3719"
     d="m 44.825806,50.3 h 94.100004 v 94.1 H 44.825806 Z" />
  <path
     style="fill:#f15a22"
     id="path3721"
     d="M 56.025806,61.5 H 127.52581 V 133 H 56.025806 Z" />
</svg>
