<svg width="32" height="32" viewBox="0 0 32 32" fill="none" xmlns="http://www.w3.org/2000/svg">
<mask id="mask0" mask-type="alpha" maskUnits="userSpaceOnUse" x="0" y="0" width="32" height="32">
<path d="M0 0H32V32H0V0Z" fill="white"/>
</mask>
<g mask="url(#mask0)">
<path fill-rule="evenodd" clip-rule="evenodd" d="M31.754 18.7775C33.2879 10.0763 27.478 1.77949 18.7773 0.245611C10.0762 -1.28827 1.77938 4.5217 0.24512 13.2225C-1.28875 21.9233 4.52117 30.2205 13.2223 31.7544C21.9234 33.2883 30.2202 27.4783 31.754 18.7775ZM28.2672 13.2473C29.3475 18.0701 27.509 23.2853 23.2097 26.296C17.5232 30.2779 9.68542 28.8958 5.70349 23.2096C5.26619 22.5849 4.89368 21.9349 4.58403 21.2663L15.784 13.4235C16.5818 13.7944 17.5503 13.7417 18.3229 13.2008C19.4753 12.3937 19.7555 10.8051 18.9488 9.65222C18.1413 8.49978 16.5523 8.21962 15.4003 9.02672C14.6273 9.56763 14.2467 10.4597 14.3231 11.3367L3.73232 18.7531C2.65205 13.9299 4.49052 8.71436 8.78985 5.70364C14.476 1.72168 22.3137 3.10345 26.2957 8.78963C26.7334 9.41436 27.1059 10.0647 27.4151 10.7341L16.2159 18.5757C15.4181 18.2044 14.45 18.2572 13.6771 18.7985C12.5246 19.6056 12.2445 21.1946 13.0519 22.347C13.8586 23.4994 15.4476 23.7796 16.6001 22.9725C17.3726 22.4312 17.7533 21.5391 17.6772 20.663L28.2672 13.2473Z" fill="#5FA624"/>
</g>
</svg>
