<svg width="32" height="32" viewBox="0 0 32 32" fill="none" xmlns="http://www.w3.org/2000/svg">
<path d="M28.444 17.7778C29.4258 17.7778 30.2218 16.9818 30.2218 16C30.2218 15.0181 29.4258 14.2222 28.444 14.2222C27.4622 14.2222 26.6663 15.0181 26.6663 16C26.6663 16.9818 27.4622 17.7778 28.444 17.7778Z" fill="black"/>
<path d="M28.444 30.2226C29.4258 30.2226 30.2218 29.4266 30.2218 28.4448C30.2218 27.4629 29.4258 26.667 28.444 26.667C27.4622 26.667 26.6663 27.4629 26.6663 28.4448C26.6663 29.4266 27.4622 30.2226 28.444 30.2226Z" fill="black"/>
<path d="M15.9999 30.2226C16.9817 30.2226 17.7777 29.4266 17.7777 28.4448C17.7777 27.4629 16.9817 26.667 15.9999 26.667C15.0181 26.667 14.2222 27.4629 14.2222 28.4448C14.2222 29.4266 15.0181 30.2226 15.9999 30.2226Z" fill="black"/>
<path d="M16.0004 19.5555C17.9641 19.5555 19.5559 17.9636 19.5559 15.9999C19.5559 14.0362 17.9641 12.4443 16.0004 12.4443C14.0368 12.4443 12.4449 14.0362 12.4449 15.9999C12.4449 17.9636 14.0368 19.5555 16.0004 19.5555Z" fill="black"/>
<path d="M3.55549 7.11116C5.51913 7.11116 7.11097 5.51928 7.11097 3.55558C7.11097 1.59189 5.51913 0 3.55549 0C1.59185 0 0 1.59189 0 3.55558C0 5.51928 1.59185 7.11116 3.55549 7.11116Z" fill="black"/>
<path d="M3.55549 19.5555C5.51913 19.5555 7.11097 17.9636 7.11097 15.9999C7.11097 14.0362 5.51913 12.4443 3.55549 12.4443C1.59185 12.4443 0 14.0362 0 15.9999C0 17.9636 1.59185 19.5555 3.55549 19.5555Z" fill="black"/>
<path d="M16.0004 7.11116C17.9641 7.11116 19.5559 5.51928 19.5559 3.55558C19.5559 1.59189 17.9641 0 16.0004 0C14.0368 0 12.4449 1.59189 12.4449 3.55558C12.4449 5.51928 14.0368 7.11116 16.0004 7.11116Z" fill="black"/>
<path d="M28.4445 7.11116C30.4082 7.11116 32 5.51928 32 3.55558C32 1.59189 30.4082 0 28.4445 0C26.4809 0 24.889 1.59189 24.889 3.55558C24.889 5.51928 26.4809 7.11116 28.4445 7.11116Z" fill="black"/>
<path d="M3.55549 32.0001C5.51913 32.0001 7.11097 30.4082 7.11097 28.4445C7.11097 26.4808 5.51913 24.8889 3.55549 24.8889C1.59185 24.8889 0 26.4808 0 28.4445C0 30.4082 1.59185 32.0001 3.55549 32.0001Z" fill="black"/>
</svg>
