<svg width="32" height="32" viewBox="0 0 32 32" fill="none" xmlns="http://www.w3.org/2000/svg">
<path fill-rule="evenodd" clip-rule="evenodd" d="M25.2911 14.1301C26.4732 14.178 27.6285 14.0433 28.7548 13.6653C29.7694 13.3249 30.4679 12.6813 30.7885 11.646C31.4421 9.53496 31.3661 7.42764 30.831 5.30089C30.4634 3.84093 29.5738 2.96924 28.1434 2.60033C26.1415 2.08393 24.1478 2.10665 22.1665 2.697C21.067 3.0246 20.2946 3.72236 19.9352 4.82539C19.1946 7.0959 19.1447 9.38169 19.8461 11.6716C20.1448 12.6478 20.8128 13.2725 21.7638 13.6187C22.9059 14.0343 24.0859 14.171 25.2911 14.1301Z" fill="#EAEAEA"/>
<path fill-rule="evenodd" clip-rule="evenodd" d="M22.329 23.0419C24.0479 22.9864 26.3586 23.1871 28.6557 22.9532C30.3894 22.7769 31.8347 21.1787 31.9853 19.4213C32.1453 17.5531 30.9848 15.7533 29.2856 15.2128C27.9495 14.7877 26.5777 15.0162 25.2219 14.9723C24.43 14.9465 23.6351 14.9619 22.8428 14.9905C22.4386 15.0054 22.1279 15.2211 22.0422 15.6471C21.9695 16.0084 22.1337 16.2817 22.4468 16.458C22.6963 16.5986 22.9745 16.5791 23.2465 16.5787C24.7345 16.5762 26.222 16.5655 27.7095 16.5733C28.1518 16.5754 28.5991 16.5555 29.0226 16.7583C30.1256 17.2851 30.648 18.3768 30.3775 19.6258C30.1412 20.7166 29.1321 21.5081 27.9118 21.511C24.1185 21.5197 20.3249 21.5143 16.5312 21.5122C14.294 21.5105 14.1463 21.399 13.4466 19.223C13.3777 19.009 13.3129 18.7941 13.2517 18.578C12.1487 14.679 11.0666 10.7738 9.9349 6.88309C9.49583 5.37369 8.33537 4.52918 6.77482 4.49932C4.89133 4.46323 3.00702 4.47153 1.12312 4.46487C0.558894 4.46281 0.000412163 4.60218 9.07392e-07 5.27372C-0.000818876 5.9548 0.553969 6.06265 1.12435 6.06099C2.95942 6.05642 4.79408 6.0556 6.62874 6.07011C7.72477 6.07841 8.22006 6.46333 8.5151 7.50154C9.71947 11.7365 10.9189 15.9727 12.122 20.2081C12.6842 22.1871 13.7655 23.0287 15.793 23.0394C17.7766 23.0506 19.7602 23.0419 22.329 23.0419Z" fill="#F33544"/>
<path fill-rule="evenodd" clip-rule="evenodd" d="M4.55984 11.1653C3.86071 11.1653 3.16158 11.1579 2.46288 11.1676C1.94593 11.1749 1.52028 11.3419 1.48984 11.868C1.45941 12.403 1.87734 12.6197 2.39001 12.6294C3.76126 12.6548 5.1338 12.6579 6.50549 12.6379C7.00872 12.6302 7.4498 12.4338 7.44166 11.9C7.43394 11.3797 7.02715 11.1807 6.5012 11.1703C5.85437 11.1576 5.2071 11.1672 4.55984 11.1653Z" fill="#F33544"/>
<path fill-rule="evenodd" clip-rule="evenodd" d="M28.1029 7.44958C27.4698 7.43685 26.8359 7.44649 26.2028 7.44456C25.7774 7.44456 25.352 7.44302 24.9265 7.4434C24.5653 7.4434 24.2045 7.44572 23.8433 7.44456C23.1594 7.44456 22.4752 7.43723 21.7913 7.44688C21.2854 7.4542 20.8683 7.62084 20.839 8.14737C20.8088 8.68277 21.2178 8.89916 21.72 8.90881C22.8528 8.93002 23.9868 8.93465 25.1204 8.92385C26.1159 8.93426 27.1115 8.93195 28.1071 8.91729C28.5996 8.90996 29.0313 8.71324 29.0233 8.17977C29.0158 7.65864 28.6176 7.4596 28.1029 7.44958Z" fill="#F6CB4D"/>
<path fill-rule="evenodd" clip-rule="evenodd" d="M24.5658 4.64128C24.5534 5.27436 24.5627 5.90787 24.5608 6.54137C24.5608 6.96678 24.5592 7.3922 24.5596 7.81761C24.5596 8.17883 24.5619 8.53964 24.5608 8.90044C24.5608 9.58471 24.5534 10.269 24.5631 10.9528C24.5704 11.4588 24.7371 11.8758 25.2636 11.9052C25.799 11.9354 26.0154 11.5263 26.025 11.0241C26.0462 9.89097 26.0509 8.75738 26.0401 7.62378C26.0505 6.62822 26.0482 5.63223 26.0335 4.63708C26.0262 4.14455 25.8294 3.71284 25.296 3.72081C24.7749 3.72836 24.5758 4.12609 24.5658 4.64128Z" fill="#F6CB4D"/>
<path fill-rule="evenodd" clip-rule="evenodd" d="M3.68433 8.92921V8.92515C4.40591 8.92515 5.1275 8.93124 5.84908 8.92312C6.36675 8.91784 6.69591 8.66968 6.69763 8.16766C6.69933 7.68635 6.35265 7.46581 5.88541 7.46012C4.46832 7.44306 3.05123 7.43453 1.63457 7.44997C1.11775 7.45565 0.704807 7.6762 0.747127 8.24442C0.7856 8.75984 1.18401 8.92515 1.6739 8.9284C2.34376 8.93206 3.01404 8.92921 3.68433 8.92921Z" fill="#F33544"/>
<path fill-rule="evenodd" clip-rule="evenodd" d="M18.2575 27.533C17.6756 27.5466 17.1293 27.0298 17.1105 26.4473C17.091 25.8513 17.5828 25.3257 18.183 25.3021C18.8178 25.2765 19.2841 25.7237 19.2933 26.3665C19.3024 27.0054 18.8461 27.5194 18.2575 27.533ZM18.2607 23.8141C16.7989 23.8025 15.6371 24.9393 15.628 26.3909C15.6188 27.817 16.7917 29.0014 18.2344 29.023C19.6277 29.0434 20.8296 27.8246 20.8372 26.3833C20.8448 25.0073 19.6595 23.8249 18.2607 23.8141Z" fill="#F33544"/>
<path fill-rule="evenodd" clip-rule="evenodd" d="M27.1002 27.5312C26.5087 27.4929 26.05 26.9687 26.0763 26.3615C26.103 25.7436 26.588 25.2913 27.2047 25.3092C27.805 25.3264 28.3036 25.8402 28.284 26.4214C28.2641 27.0254 27.6841 27.5691 27.1002 27.5312ZM27.1883 23.8142C25.7488 23.7946 24.5657 24.9671 24.5581 26.4218C24.551 27.7939 25.752 29.003 27.1433 29.023C28.5218 29.0438 29.7328 27.8633 29.7667 26.4661C29.8018 25.0182 28.651 23.8346 27.1883 23.8142Z" fill="#F33544"/>
</svg>
