<svg width="32" height="32" viewBox="0 0 32 32" fill="none" xmlns="http://www.w3.org/2000/svg">
<g clip-path="url(#clip0)">
<path d="M1.77432 21.1783C-2.10894 10.5095 0.153206 5.65827 10.822 1.77527C21.4908 -2.10774 26.342 0.154275 30.225 10.8229C34.108 21.4916 31.846 26.3431 21.1772 30.226C10.5084 34.1088 5.6572 31.8471 1.77432 21.1783Z" fill="#333740"/>
<path d="M11.0336 9.83782H10.3616C9.78559 9.8391 9.17964 9.95174 8.68607 10.2944C8.42926 10.4721 8.22135 10.7117 8.08152 10.991C7.92617 11.3152 7.84906 11.6713 7.85637 12.0307V21.6723C7.85637 21.7606 7.89143 21.8452 7.95385 21.9076C8.01626 21.9701 8.10091 22.0051 8.18917 22.0051H9.50232C9.59059 22.0051 9.67524 21.9701 9.73765 21.9076C9.80006 21.8452 9.83512 21.7606 9.83512 21.6723V14.8794H11.0331C11.1213 14.8794 11.206 14.8443 11.2684 14.7819C11.3308 14.7195 11.3659 14.6348 11.3659 14.5466V13.4214C11.3659 13.3332 11.3308 13.2485 11.2684 13.1861C11.206 13.1237 11.1213 13.0886 11.0331 13.0886H9.83564V12.2337C9.82935 12.0912 9.84896 11.9487 9.89349 11.8131C9.9068 11.7739 9.92916 11.7384 9.95877 11.7094C10.0043 11.6728 10.0598 11.6505 10.118 11.6454C10.2326 11.6312 10.3482 11.6258 10.4636 11.6292H11.034C11.1222 11.6292 11.2069 11.5941 11.2693 11.5317C11.3317 11.4693 11.3668 11.3846 11.3668 11.2964V10.1711C11.3668 10.0829 11.3317 9.99822 11.2693 9.93581C11.2069 9.8734 11.1222 9.83833 11.034 9.83833" fill="white"/>
<path d="M18.969 16.0154C18.9801 15.597 18.8996 15.1812 18.7332 14.7972C18.5667 14.4132 18.3182 14.0702 18.0051 13.7924C17.3861 13.2526 16.517 12.9627 15.4949 12.9631C14.4552 12.9631 13.557 13.2607 12.9013 13.7823C12.5754 14.0357 12.3084 14.3568 12.1187 14.7235C11.929 15.0901 11.8213 15.4936 11.8028 15.906C11.8006 15.9511 11.8077 15.996 11.8234 16.0382C11.8392 16.0805 11.8634 16.119 11.8945 16.1516C11.9256 16.1842 11.963 16.2101 12.0045 16.2278C12.0459 16.2455 12.0905 16.2546 12.1356 16.2546H13.526C13.6095 16.2547 13.6899 16.2235 13.7514 16.1671C13.8129 16.1107 13.851 16.0333 13.8581 15.9502C13.8729 15.7949 13.9206 15.6446 13.9982 15.5093C14.0758 15.374 14.1814 15.2569 14.308 15.1657C14.655 14.9231 15.0718 14.8007 15.4949 14.8169C16.0136 14.8169 16.3865 14.9577 16.6243 15.1644C16.7445 15.2702 16.8397 15.4014 16.9028 15.5486C16.966 15.6957 16.9957 15.8551 16.9896 16.0151V16.0621C16.9906 16.1009 16.9863 16.1396 16.9768 16.1773L16.964 16.2061C16.9402 16.2307 16.9105 16.2487 16.8776 16.2583C16.691 16.319 16.4983 16.3585 16.3029 16.3762C16.0213 16.4136 15.6553 16.4522 15.1994 16.5133H15.2002C14.3635 16.6258 13.5091 16.7626 12.8168 17.1533C12.4626 17.3474 12.1659 17.6315 11.9564 17.9768C11.7298 18.3791 11.6169 18.8354 11.63 19.2969C11.624 19.7172 11.7088 20.1339 11.8786 20.5185C12.1213 21.0441 12.537 21.4705 13.0562 21.7266C13.6116 21.9944 14.2224 22.1273 14.8389 22.1143C15.6389 22.1151 16.2457 21.929 16.6924 21.6444C16.797 21.5781 16.8965 21.5039 16.99 21.4226V21.6718C16.99 21.7601 17.025 21.8447 17.0875 21.9071C17.1499 21.9695 17.2345 22.0046 17.3228 22.0046H17.962L18.9687 18.2588L18.969 16.0154ZM16.9897 18.5467C16.9979 18.7651 16.9629 18.9829 16.8868 19.1878C16.8108 19.3926 16.6951 19.5805 16.5465 19.7407C16.2472 20.0425 15.7744 20.2583 15.0261 20.2605C14.5442 20.2612 14.1877 20.1554 13.9746 20.0026C13.8762 19.935 13.7957 19.8445 13.7399 19.739C13.6834 19.6249 13.6547 19.4991 13.6562 19.3718V19.3632C13.6522 19.219 13.6894 19.0766 13.7635 18.9528C13.8975 18.7633 14.087 18.6202 14.3059 18.5432C14.6028 18.4287 14.9128 18.3518 15.2287 18.3144C15.7031 18.2477 16.1911 18.177 16.5957 18.0968C16.7281 18.0708 16.8596 18.0407 16.9901 18.0064L16.9897 18.5467Z" fill="white"/>
<path d="M24.5423 8.89023C24.5112 8.84965 24.4711 8.81676 24.4252 8.79413C24.3794 8.77149 24.3289 8.7597 24.2777 8.75967H22.6056C22.5322 8.75959 22.4608 8.78378 22.4026 8.82846C22.3444 8.87313 22.3025 8.9358 22.2836 9.00671L18.9688 21.3421L18.8054 21.9515L18.5802 22.7885C18.5669 22.8379 18.5651 22.8897 18.575 22.9399C18.5849 22.9901 18.6063 23.0373 18.6374 23.0779C18.6685 23.1185 18.7086 23.1514 18.7545 23.174C18.8005 23.1966 18.851 23.2083 18.9021 23.2082H20.5743C20.6477 23.2083 20.719 23.1842 20.7772 23.1396C20.8354 23.095 20.8773 23.0324 20.8962 22.9615L24.5997 9.17951C24.6129 9.1301 24.6146 9.07832 24.6046 9.02815C24.5947 8.97798 24.5734 8.93076 24.5423 8.89011" fill="#A299FF"/>
</g>
<defs>
<clipPath id="clip0">
<rect width="32" height="32" fill="white"/>
</clipPath>
</defs>
</svg>
