<svg width="2261" height="2261" viewBox="0 0 2261 2261" fill="none" xmlns="http://www.w3.org/2000/svg">
<g clip-path="url(#clip0_14:278)">
<path d="M2060.9 1452.49L1968.29 1348.64L1876.5 1452.49H1683.34L1872.12 1240.4L1683.34 1028.25H1882.53L1976.07 1131.31L2066.09 1028.25H2258.3L2070.46 1239.51L2260.91 1452.49H2060.9ZM1312.44 1452.49V784.178H1683.34V933.144H1469.55V1028.25H1683.34V1171.59H1469.55V1303.15H1683.34V1452.49H1312.44Z" fill="#FF5A00"/>
<path d="M1155.92 784.178V1057.69H1154.18C1119.54 1017.88 1076.25 1004 1026.04 1004C923.17 1004 845.672 1073.99 818.469 1166.44C787.438 1064.55 707.424 1002.1 588.801 1002.1C492.444 1002.1 416.383 1045.33 376.649 1115.8V1028.24H177.512V933.16H394.852V784.21H0V1452.49H177.512V1171.59H354.447C348.996 1193.19 346.272 1215.39 346.337 1237.67C346.337 1377.01 452.82 1474.93 588.77 1474.93C703.049 1474.93 778.423 1421.23 818.25 1323.46H666.113C645.55 1352.89 629.926 1361.57 588.786 1361.57C541.099 1361.57 499.944 1319.95 499.944 1270.67H809.719C823.156 1381.37 909.405 1476.82 1027.78 1476.82C1078.84 1476.82 1125.59 1451.71 1154.17 1409.29H1155.88V1452.59H1312.4V784.21H1155.92V784.178V784.178ZM504.881 1173.59C514.772 1131.12 547.693 1103.38 588.786 1103.38C634.035 1103.38 665.284 1130.27 673.487 1173.59H504.881ZM1060.93 1350.79C1003.26 1350.79 967.419 1297.06 967.419 1240.94C967.419 1180.94 998.606 1123.3 1060.93 1123.3C1125.6 1123.3 1151.37 1180.97 1151.37 1240.94C1151.37 1297.78 1124.09 1350.79 1060.93 1350.79Z" fill="#29007C"/>
</g>
<defs>
<clipPath id="clip0_14:278">
<rect width="2260.91" height="2260.91" fill="white"/>
</clipPath>
</defs>
</svg>
