<svg width="32" height="32" viewBox="0 0 32 32" fill="none" xmlns="http://www.w3.org/2000/svg">
<path d="M21.3677 26.6666C15.4957 26.6666 10.7355 21.8909 10.7355 15.9999C10.7355 10.1089 15.4957 5.33325 21.3677 5.33325C27.2397 5.33325 32 10.1089 32 15.9999C32 21.8909 27.2397 26.6666 21.3677 26.6666Z" fill="#B8D2FF"/>
<path d="M21.3677 26.6666C15.4957 26.6666 10.7355 21.9374 10.7355 16.1035H32C32 21.9374 27.2398 26.6666 21.3677 26.6666Z" fill="#005DFF"/>
<path d="M10.7355 15.9999C10.7355 21.8909 5.92903 26.6666 9.32507e-07 26.6666L0 5.33325C5.92903 5.33325 10.7355 10.1089 10.7355 15.9999Z" fill="#FF6A00"/>
</svg>
