<svg width="32" height="32" viewBox="0 0 32 32" fill="none" xmlns="http://www.w3.org/2000/svg">
<path d="M8.28571 21.7714C5.48571 21.6 3.31429 19.3714 3.2 16.6286H15.1429V16.5143C15.1429 11.7714 12.1143 8.57144 7.94286 8.57144C3.54286 8.57144 0.571426 11.8286 0.571426 16.0572C0.571426 20.0572 3.65714 23.5429 7.88571 23.5429C10.9143 23.5429 13.3714 21.8286 14.6857 18.6857H13.4857C12.6286 20.5714 10.6857 21.8286 8.57143 21.8286H8.28571V21.7714ZM23.4857 21.7714C26.2857 21.6 28.4571 19.3714 28.5714 16.6286H16.6286V16.5143C16.6286 11.7714 19.6571 8.57144 23.8286 8.57144C28.2286 8.57144 31.2 11.8286 31.2 16.0572C31.2 20.0572 28.1143 23.5429 23.8857 23.5429C20.8571 23.5429 18.4 21.8286 17.0857 18.6857H18.2857C19.1429 20.5714 21.0857 21.8286 23.1429 21.8286H23.4857" fill="#FDDC47"/>
</svg>
