<svg width="32" height="32" viewBox="0 0 32 32" fill="none" xmlns="http://www.w3.org/2000/svg">
<path d="M24.6072 6.77C24.6473 6.71096 24.6907 6.65421 24.7372 6.6C24.7802 6.52833 24.8304 6.46131 24.8872 6.4C25.1957 6.03644 25.421 5.6098 25.5472 5.15C25.6794 4.62689 25.6801 4.07919 25.5492 3.55574C25.4184 3.03229 25.16 2.54936 24.7972 2.15C24.2261 1.47897 23.5167 0.939403 22.7175 0.568295C21.9183 0.197187 21.0483 0.00332363 20.1672 0C19.8972 0 19.6772 0 19.5272 0H19.1972C18.992 0.0251917 18.7883 0.0619165 18.5872 0.11L18.3272 0.17H18.2472L18.0072 0.36H17.9272L17.6272 0.48L17.3072 0.62H17.2272L17.0072 0.77H16.9472L16.6372 1C16.5479 1.04734 16.4641 1.10435 16.3872 1.17H16.3272L16.0072 1.36C15.8158 1.49948 15.6353 1.65325 15.4672 1.82V1.82C14.958 2.30955 14.5293 2.87655 14.1972 3.5C14.1972 3.5 14.1972 3.5 14.1972 3.5C14.1972 3.5 14.1972 3.58 13.9272 4.05C11.3853 4.50967 9.02219 5.66953 7.1036 7.39909C5.18502 9.12864 3.78713 11.3593 3.0672 13.84C3.0267 13.9198 3.00393 14.0073 3.00047 14.0967C2.997 14.1861 3.01291 14.2751 3.04711 14.3578C3.08131 14.4404 3.13299 14.5147 3.1986 14.5755C3.2642 14.6363 3.34219 14.6822 3.4272 14.71C6.37628 15.8004 9.42867 16.5878 12.5372 17.06C14.7272 17.32 15.5372 16.97 16.0272 16.73C16.4784 16.5014 16.8421 16.1311 17.0625 15.6759C17.2829 15.2207 17.3478 14.7057 17.2472 14.21C17.0772 13.08 15.6472 9.74 15.9372 6.67C16.0192 6.05232 16.2159 5.4554 16.5172 4.91V4.91C16.7342 4.51943 17.0109 4.16516 17.3372 3.86V3.86C17.4403 3.75884 17.5506 3.66527 17.6672 3.58V3.58L17.8172 3.46C17.8643 3.41754 17.9184 3.38369 17.9772 3.36V3.36L18.1572 3.25L18.2972 3.18L18.6072 3C18.6737 2.9937 18.7407 2.9937 18.8072 3V3H18.9472L19.1372 2.95C19.4402 2.86761 19.7532 2.82724 20.0672 2.83C20.5621 2.83005 21.0509 2.93944 21.4986 3.15034C21.9464 3.36124 22.342 3.66845 22.6572 4.05C22.7072 4.09677 22.747 4.1533 22.7742 4.21608C22.8014 4.27886 22.8155 4.34657 22.8155 4.415C22.8155 4.48343 22.8014 4.55114 22.7742 4.61392C22.747 4.6767 22.7072 4.73323 22.6572 4.78C22.3506 5.17759 21.9745 5.51638 21.5472 5.78C21.381 5.89114 21.187 5.95349 20.9872 5.96C20.6372 5.96 20.3772 5.75 20.0872 5.71H20.0072C19.9237 5.70643 19.8404 5.72063 19.7629 5.75166C19.6853 5.78269 19.6152 5.82984 19.5572 5.89C19.3509 6.15724 19.2575 6.49472 19.2972 6.83C19.2972 9.63 25.2972 14.83 26.9472 22.99C26.9889 23.1255 26.9872 23.2706 26.9424 23.4051C26.8976 23.5395 26.8118 23.6566 26.6972 23.74C26.0072 24.07 24.1972 25 19.8072 25C14.3372 25 11.1372 20.25 3.5972 21.77C3.53083 21.7881 3.46977 21.8219 3.41916 21.8685C3.36854 21.9151 3.32986 21.9732 3.30634 22.0379C3.28283 22.1025 3.27517 22.1719 3.28402 22.2401C3.29287 22.3084 3.31797 22.3735 3.3572 22.43C4.09459 24.429 5.28675 26.229 6.83949 27.688C8.39222 29.147 10.263 30.2248 12.3039 30.8364C14.3449 31.4481 16.5001 31.5766 18.5993 31.212C20.6985 30.8474 22.6842 29.9997 24.3993 28.7357C26.1145 27.4717 27.5123 25.8261 28.4821 23.929C29.4519 22.0319 29.9673 19.9353 29.9875 17.8047C30.0076 15.6742 29.532 13.5682 28.5983 11.6531C27.6645 9.73794 26.2982 8.06623 24.6072 6.77V6.77Z" fill="#41C6E9"/>
</svg>
