<svg xmlns="http://www.w3.org/2000/svg" xmlns:xlink="http://www.w3.org/1999/xlink" width="32" height="32" viewBox="0 0 32 32">
    <defs>
        <style>
            .ac768ac6-9b4e-4892-90b2-74379b69d58f,
            .b5e87737-a605-4739-9a1b-0cfef719048f,
            .ba79ec0c-dc7f-4b16-ae4b-6ed2af5e9c30,
            .ef44a008-5407-473d-ba98-7e226d67325e {
                fill: none;
            }

            .f0613bfe-6586-4463-a13b-76e5b99b406d,
            .f7f5a44d-9fbd-4780-bb51-b39c63d51c75 {
                fill-rule: evenodd;
            }

            .f0613bfe-6586-4463-a13b-76e5b99b406d {
                fill: url(#bc5c3b8f-b7e9-4af4-b267-e3c8668c4f8c);
            }

            .e7c399da-01a6-4e38-93e4-4ce79ebe8009 {
                fill: #50e3c2;
            }

            .b9f17032-0289-4c3e-9549-ad0d50ed7fb3 {
                fill: #1be4cb;
            }

            .a0fa5e75-49b9-40a5-a25a-d647faabdb3a {
                fill: #27ddd5;
            }

            .fb5fb228-0095-49ad-a03e-0a254e42f517 {
                fill: #29c4ed;
            }

            .f3f996d7-f21f-4cd1-b403-72d6231aad3c {
                fill: #28c8e9;
            }

            .ac768ac6-9b4e-4892-90b2-74379b69d58f,
            .ba79ec0c-dc7f-4b16-ae4b-6ed2af5e9c30,
            .ef44a008-5407-473d-ba98-7e226d67325e {
                stroke: #1beaed;
            }

            .ac768ac6-9b4e-4892-90b2-74379b69d58f {
                stroke-width: 0.65808px;
            }

            .ba79ec0c-dc7f-4b16-ae4b-6ed2af5e9c30,
            .ef44a008-5407-473d-ba98-7e226d67325e {
                stroke-width: 0.57034px;
                isolation: isolate;
            }

            .ba79ec0c-dc7f-4b16-ae4b-6ed2af5e9c30 {
                opacity: 0.75;
            }

            .ef44a008-5407-473d-ba98-7e226d67325e {
                opacity: 0.5;
            }

            .f7f5a44d-9fbd-4780-bb51-b39c63d51c75 {
                fill: #fff;
            }

        </style>
        <linearGradient id="bc5c3b8f-b7e9-4af4-b267-e3c8668c4f8c" x1="-354.88472" y1="281.32394" x2="-355.90026" y2="279.89141" gradientTransform="matrix(28.747, 0, 0, -29.054, 10234.03813, 8167.95558)" gradientUnits="userSpaceOnUse">
            <stop offset="0" stop-color="#25ffb8" />
            <stop offset="1" stop-color="#00a0ff" />
        </linearGradient>
    </defs>
    <g id="eee88d36-5705-4e4b-8d16-dad0c311d958" data-name="Layer 2">
        <g id="a9285848-588a-45ad-aa10-c39681986259" data-name="Layer 1">
            <rect class="b5e87737-a605-4739-9a1b-0cfef719048f" width="32" height="32" />
            <path class="f0613bfe-6586-4463-a13b-76e5b99b406d" d="M18.01373,3.34905c7.28539,0,11.53835,6.4685,11.53835,12.77379,0,7.353-5.58053,12.71939-13.04053,12.71939A11.88865,11.88865,0,0,1,4.32828,16.87394C4.32828,8.87693,8.998,3.46312,18.01373,3.34905Z" />
            <circle class="e7c399da-01a6-4e38-93e4-4ce79ebe8009" cx="14.30215" cy="2.17065" r="0.96168" />
            <circle class="b9f17032-0289-4c3e-9549-ad0d50ed7fb3" cx="26.37223" cy="2.91735" r="2.41735" />
            <circle class="a0fa5e75-49b9-40a5-a25a-d647faabdb3a" cx="5.46105" cy="7.53181" r="1.25825" />
            <circle class="fb5fb228-0095-49ad-a03e-0a254e42f517" cx="4.24931" cy="26.23009" r="1.80139" />
            <circle class="f3f996d7-f21f-4cd1-b403-72d6231aad3c" cx="20.80224" cy="30.10311" r="1.39689" />
            <path class="ac768ac6-9b4e-4892-90b2-74379b69d58f" d="M17.02047,24.19a7.734,7.734,0,0,0,7.84081-8.27866c-.23252-5.07775-3.8081-7.75571-7.22222-7.79694-5.47963-.03773-8.70861,3.40184-8.70861,8.06368C8.93045,20.83821,12.1296,24.33833,17.02047,24.19Z" />
            <path class="ba79ec0c-dc7f-4b16-ae4b-6ed2af5e9c30" d="M16.86077,26.08619c5.6674-.172,10.2687-4.17048,9.99143-10.22219-.29044-6.34829-4.75924-9.69573-9.02887-9.7475C10.974,6.06912,6.93691,10.73448,6.93691,16.19567c0,5.46207,3.80986,10.0739,9.92386,9.88964Z" />
            <path class="ef44a008-5407-473d-ba98-7e226d67325e" d="M16.85287,27.94636c6.72384-.20356,12.18328-4.94789,11.85424-12.12711C28.36227,8.28817,23.06077,4.316,17.99618,4.25457,9.86932,4.19929,5.08024,9.73419,5.08024,16.2141S9.59907,28.16572,16.85287,27.94636Z" />
            <path class="f7f5a44d-9fbd-4780-bb51-b39c63d51c75" d="M17.50747,9.1884c-4.59516.05795-7.417,2.99473-7.417,7.3293a6.44256,6.44256,0,0,0,6.60272,6.48516A6.78877,6.78877,0,0,0,23.761,16.11057C23.761,13.08516,21.81482,9.39288,17.50747,9.1884Zm-.8722,11.02243a3.56888,3.56888,0,0,1-3.37464-3.694c0-2.7622,1.4539-4.42057,3.66507-4.53641a3.76265,3.76265,0,0,1,3.66507,4.01345A4.00608,4.00608,0,0,1,16.63527,20.21083Z" />
        </g>
    </g>
</svg>