<svg width="32" height="32" viewBox="0 0 32 32" fill="none" xmlns="http://www.w3.org/2000/svg">
<path fill-rule="evenodd" clip-rule="evenodd" d="M14.4753 0.641378C16.0037 0.0526548 17.6992 0.0255588 19.2965 0.311299C19.9869 0.427073 20.6062 0.811344 21.2967 0.917264C22.1862 0.769468 23.0364 0.451705 23.9112 0.230011C23.9161 1.16852 23.9136 2.10703 23.9136 3.04553C25.1816 4.57769 25.9949 6.51383 26.0171 8.5214C26.0171 15.2314 26.0195 21.9438 26.0146 28.6562C20.7978 27.9517 15.9841 24.9564 12.8314 20.7589C12.3498 20.1752 12.0844 19.377 11.3767 19.0223C7.66871 16.8818 5.27779 12.6006 5.53089 8.2997C5.62673 5.3955 8.1233 2.91498 10.9762 2.61939C10.9786 1.82868 10.9762 1.0355 10.9786 0.24479C12.136 0.404903 13.3302 1.24488 14.4753 0.641378ZM12.0525 2.59722C14.5785 2.84601 16.7876 4.68115 17.4928 7.12718C18.1514 5.40043 19.9427 4.17125 21.8004 4.32397C23.1126 4.3018 24.2527 5.05064 25.1275 5.96698C24.1889 3.61455 22.255 1.65625 19.81 0.924654C17.1562 0.0452649 14.1485 0.789174 12.0525 2.59722ZM11.3767 0.828587C11.3743 1.41485 11.3718 1.99864 11.3693 2.58244C11.9026 2.09964 12.4776 1.66117 13.0894 1.28183C12.5169 1.13157 11.9493 0.971456 11.3767 0.828587ZM21.7783 1.29907C22.4024 1.67595 22.9799 2.12427 23.518 2.61446C23.5107 2.02081 23.5057 1.42716 23.5008 0.83105C22.9258 0.983773 22.3557 1.15128 21.7783 1.29907ZM10.3717 3.21057C7.50161 3.7993 5.40311 6.89563 6.07395 9.78259C6.45974 12.0587 8.4108 13.9258 10.6764 14.2781C13.8905 14.9161 17.2987 12.1227 17.1562 8.80467C17.3085 6.55816 15.8219 4.40526 13.7897 3.53819C12.7282 3.03568 11.5094 3.03814 10.3717 3.21057ZM17.6648 8.78989C17.6378 9.98212 18.2988 11.0463 19.1294 11.8468C18.6551 12.571 18.1612 13.278 17.6624 13.9849C18.4364 19.4239 21.3483 24.4612 25.4986 28.0182C25.5084 21.5226 25.5035 15.0269 25.5035 8.53371C25.5625 6.45471 23.5844 4.6713 21.5498 4.76244C19.4463 4.73041 17.5665 6.68379 17.6648 8.78989ZM16.5738 12.2483C16.8589 12.6646 17.1488 13.0785 17.4461 13.4898C17.8074 12.9651 18.1637 12.438 18.515 11.9084C18.1022 11.4256 17.7607 10.8911 17.4928 10.3171C17.2397 10.9847 16.9252 11.6251 16.5738 12.2483ZM6.42042 12.0291C7.24852 14.6574 8.99563 16.963 11.3079 18.4582C10.6739 17.1897 10.0965 15.8891 9.67629 14.5342C8.35674 14.0564 7.25097 13.1524 6.42042 12.0291ZM13.6841 14.4431C12.5906 14.9087 11.3792 14.7535 10.2267 14.7313C11.1285 17.4853 12.6299 20.0421 14.6178 22.1507C17.3159 25.0771 20.9207 27.0699 24.7663 28.0207C20.9625 24.5401 18.1612 19.8574 17.338 14.7239C17.2422 13.9209 16.7188 13.2829 16.2839 12.6351C15.5418 13.3962 14.6989 14.0884 13.6841 14.4431Z" fill="#202121"/>
<path fill-rule="evenodd" clip-rule="evenodd" d="M12.3031 5.7059C13.8831 5.15659 15.7555 6.10742 16.247 7.70855C17.0284 9.65207 15.2862 12.0193 13.2024 11.8666C11.2612 11.9478 9.62958 9.83189 10.1825 7.97458C10.4405 6.9203 11.2489 5.99903 12.3031 5.7059ZM12.3227 6.16654C10.3864 6.81684 9.93673 9.68163 11.62 10.864C13.2147 12.2385 16.0135 10.9108 15.9128 8.79731C16.0872 6.95478 14.0182 5.48421 12.3227 6.16654Z" fill="#202121"/>
<path fill-rule="evenodd" clip-rule="evenodd" d="M12.5611 8.48197C12.9076 7.86369 13.92 7.94498 13.9052 8.72091C13.9421 9.39831 13.1828 9.3121 12.7208 9.26037C12.6815 9.06577 12.6029 8.67657 12.5611 8.48197Z" fill="#202121"/>
<path fill-rule="evenodd" clip-rule="evenodd" d="M20.9256 8.4746C21.2745 7.84893 22.3041 7.95239 22.2574 8.74064C22.2796 9.39094 21.5497 9.31951 21.1025 9.27763C21.0583 9.07564 20.9698 8.67659 20.9256 8.4746Z" fill="#202121"/>
<path fill-rule="evenodd" clip-rule="evenodd" d="M12.0524 2.59719C14.1485 0.789144 17.1562 0.0452345 19.81 0.924624C22.255 1.65622 24.1888 3.61452 25.1275 5.96695C24.2527 5.05061 23.1126 4.30177 21.8004 4.32394C19.9427 4.17122 18.1513 5.40039 17.4928 7.12715C16.7876 4.68112 14.5785 2.84598 12.0524 2.59719Z" fill="#327EBD"/>
<path fill-rule="evenodd" clip-rule="evenodd" d="M11.3767 0.828552C11.9492 0.971422 12.5169 1.13154 13.0894 1.28179C12.4775 1.66114 11.9025 2.0996 11.3693 2.5824C11.3718 1.99861 11.3742 1.41481 11.3767 0.828552Z" fill="#327EBD"/>
<path fill-rule="evenodd" clip-rule="evenodd" d="M21.7783 1.29902C22.3558 1.15122 22.9259 0.983717 23.5009 0.830994C23.5058 1.42711 23.5107 2.02076 23.5181 2.6144C22.9799 2.12421 22.4025 1.6759 21.7783 1.29902Z" fill="#327EBD"/>
<path fill-rule="evenodd" clip-rule="evenodd" d="M17.6648 8.7899C17.5665 6.6838 19.4463 4.73042 21.5497 4.76244C23.5844 4.6713 25.5624 6.45471 25.5035 8.53372C25.5035 15.0269 25.5084 21.5226 25.4986 28.0182C21.3482 24.4613 18.4364 19.4239 17.6624 13.9849C18.1612 13.278 18.6551 12.571 19.1293 11.8468C18.2988 11.0463 17.6378 9.98212 17.6648 8.7899ZM20.9256 8.4746C20.9698 8.67658 21.0583 9.07564 21.1025 9.27762C21.5497 9.3195 22.2795 9.39093 22.2574 8.74063C22.3041 7.95238 21.2745 7.84892 20.9256 8.4746Z" fill="#327EBD"/>
<path fill-rule="evenodd" clip-rule="evenodd" d="M6.42041 12.0291C7.25096 13.1524 8.35673 14.0564 9.67628 14.5343C10.0965 15.8891 10.6739 17.1897 11.3079 18.4583C8.99562 16.9631 7.24851 14.6574 6.42041 12.0291Z" fill="#327EBD"/>
<path fill-rule="evenodd" clip-rule="evenodd" d="M10.3717 3.21058C11.5094 3.03815 12.7282 3.03569 13.7897 3.5382C15.8219 4.40527 17.3085 6.55817 17.1562 8.80468C17.2987 12.1227 13.8905 14.9161 10.6764 14.2781C8.41078 13.9258 6.45971 12.0587 6.07392 9.7826C5.40309 6.89564 7.50159 3.7993 10.3717 3.21058ZM12.3031 5.70588C11.2489 5.99901 10.4405 6.92027 10.1825 7.97456C9.62958 9.83187 11.2612 11.9478 13.2024 11.8665C15.2862 12.0193 17.0284 9.65205 16.247 7.70852C15.7555 6.10739 13.8831 5.15657 12.3031 5.70588Z" fill="#80B7DA"/>
<path fill-rule="evenodd" clip-rule="evenodd" d="M12.3227 6.16654C14.0182 5.48421 16.0872 6.95479 15.9127 8.79732C16.0135 10.9108 13.2147 12.2385 11.6199 10.864C9.93669 9.68164 10.3864 6.81685 12.3227 6.16654ZM12.561 8.48202C12.6028 8.67662 12.6815 9.06582 12.7208 9.26042C13.1827 9.31214 13.942 9.39836 13.9052 8.72096C13.9199 7.94503 12.9075 7.86374 12.561 8.48202Z" fill="#1D6EA6"/>
<path fill-rule="evenodd" clip-rule="evenodd" d="M13.684 14.4432C14.6989 14.0885 15.5417 13.3963 16.2838 12.6351C16.7188 13.283 17.2422 13.921 17.338 14.724C18.1612 19.8575 20.9624 24.5401 24.7663 28.0208C20.9207 27.0699 17.3159 25.0771 14.6178 22.1508C12.6299 20.0422 11.1285 17.4853 10.2267 14.7314C11.3791 14.7535 12.5906 14.9087 13.684 14.4432Z" fill="#1D6EA6"/>
<path fill-rule="evenodd" clip-rule="evenodd" d="M16.5738 12.2483C16.9252 11.6251 17.2397 10.9847 17.4928 10.3171C17.7606 10.8911 18.1022 11.4256 18.515 11.9084C18.1636 12.438 17.8073 12.9652 17.4461 13.4898C17.1488 13.0785 16.8588 12.6646 16.5738 12.2483Z" fill="#BA5C80"/>
<path fill-rule="evenodd" clip-rule="evenodd" d="M19.9648 30.3632C22.1002 29.777 24.4911 29.7548 26.5233 30.7106C26.4938 30.8756 26.4323 31.2032 26.4029 31.3658C24.8056 32.09 22.9946 32.0309 21.2844 31.9003C20.4587 31.8486 19.665 31.5727 18.9918 31.0948C19.2621 30.7869 19.5397 30.4494 19.9648 30.3632Z" fill="#D0D0D0"/>
</svg>
