<svg xmlns="http://www.w3.org/2000/svg" viewBox="0 0 24 24">
  <g fill="none">
    <path fill="#f04405" d="M18.9 3a.6.6 0 01-.3-.1 15.3 15.3 0 00-7.1-1.7c-2.5 0-5 .6-7.1 1.7a.7.7 0 01-.9-.2.6.6 0 01.3-.9 16.8 16.8 0 0115.3 0c.4.2.5.5.3.8a.6.6 0 01-.5.4zM.6 9.3a.7.7 0 01-.3-.1.6.6 0 01-.2-.9 13 13 0 014.8-4c4-1.9 9.1-1.9 13.1 0a13 13 0 014.8 4 .6.6 0 01-.2.8.7.7 0 01-.9-.1 11.8 11.8 0 00-4.3-3.6 14.1 14.1 0 00-12 0A11.9 11.9 0 001.2 9c0 .2-.3.3-.5.3zm8 14.4a.6.6 0 01-.4-.1c-1.2-1-1.8-1.7-2.6-3.2-.9-1.5-1.3-3.3-1.3-5.2 0-3.6 3.2-6.5 7.2-6.5s7.2 3 7.2 6.5c0 .3-.3.6-.7.6-.3 0-.6-.3-.6-.6 0-3-2.7-5.3-6-5.3-3.2 0-5.9 2.4-5.9 5.3a9 9 0 001.2 4.6c.8 1.4 1.4 2 2.4 3a.6.6 0 010 .8.7.7 0 01-.5.1zm9.1-2.2c-1.5 0-2.8-.3-4-1a6.3 6.3 0 01-3-5.3c0-.3.3-.6.7-.6.3 0 .6.3.6.6a5 5 0 002.5 4.3c.9.5 2 .8 3.2.8a9 9 0 001.3-.1.6.6 0 01.8.5c0 .3-.2.6-.5.7a9.2 9.2 0 01-1.6.1zM15.2 24a.8.8 0 01-.2 0c-2-.6-3.3-1.3-4.7-2.5a8.5 8.5 0 01-2.8-6.3c0-2 1.8-3.5 4-3.5 2 0 3.8 1.5 3.8 3.5 0 1.3 1.2 2.3 2.7 2.3 1.5 0 2.6-1 2.6-2.3 0-4.5-4.1-8.2-9.2-8.2-3.6 0-7 1.9-8.4 4.8-.5 1-.8 2.1-.8 3.4 0 1 .1 2.4.9 4.3a.6.6 0 01-.4.8c-.3.1-.7 0-.8-.4-.6-1.5-1-3-1-4.7 0-1.4.4-2.8 1-3.9C3.5 8 7.3 5.8 11.4 5.8 17.2 5.8 22 10 22 15.2c0 2-1.7 3.5-4 3.5-2 0-3.8-1.6-3.8-3.5 0-1.3-1.2-2.3-2.7-2.3-1.4 0-2.6 1-2.6 2.3 0 2 .8 4 2.4 5.4a8.8 8.8 0 004.1 2.2c.4.1.6.4.5.7-.1.3-.4.5-.6.5z"/>
  </g>
</svg>
