<svg width="32" height="32" viewBox="0 0 32 32" fill="none" xmlns="http://www.w3.org/2000/svg">
<path d="M28.5363 0.367676C28.5363 1.55087 28.0218 2.63265 27.2673 3.44398C26.4784 4.22151 25.3808 4.69479 24.1461 4.69479H8.19733C6.10512 4.69479 4.3902 6.38508 4.3902 8.44722V24.1668C4.3902 26.5671 2.43519 28.494 0 28.494V7.60208C0 3.61301 3.29265 0.367676 7.33987 0.367676H28.5363Z" fill="#0066FF"/>
<path d="M3.46289 31.8743C3.46289 30.6911 3.97736 29.6093 4.73193 28.798C5.52079 28.0205 6.61834 27.5472 7.85308 27.5472H23.8018C25.8941 27.5472 27.609 25.8569 27.609 23.7948V8.07516C27.609 5.67497 29.564 3.74805 31.9992 3.74805V24.6399C31.9992 28.629 28.7066 31.8743 24.6593 31.8743H3.46289Z" fill="#0066FF"/>
</svg>
