<svg width="32" height="32" viewBox="0 0 32 32" fill="none" xmlns="http://www.w3.org/2000/svg">
<g clip-path="url(#clip0)">
<path d="M30.3961 16.0684V11.0075C30.3961 4.9371 23.86 0 15.8181 0C7.77617 0 1.24014 4.9371 1.24014 11.001V16.0944C0.607415 16.8305 0 18.4718 0 20.0676C0 21.6959 0.423925 23.2656 1.25912 24.7507C3.60653 28.9192 8.79486 31.6873 14.7994 31.9804C15.1474 32 15.4891 32.0065 15.8181 32.0065C18.4123 32.0065 20.9874 31.5245 23.2589 30.6127C25.6379 29.6552 27.669 28.2483 29.1243 26.5353C30.7187 24.666 31.6299 22.3081 31.6299 20.0741C31.6362 17.7814 31.0034 16.635 30.3961 16.0684ZM15.8181 1.23102C23.1956 1.23102 29.2002 5.61449 29.2002 11.001C29.2002 16.3876 23.1956 20.771 15.8181 20.771C8.44053 20.771 2.43599 16.3876 2.43599 11.001C2.43599 5.61449 8.44053 1.23102 15.8181 1.23102Z" fill="#202020"/>
<path d="M13.5339 17.078L9.18711 6.22682C9.0985 6.00537 9.20603 5.8751 9.51607 5.82951L19.9434 4.3119C20.247 4.26631 20.4496 4.35749 20.5318 4.57244L21.1139 6.0184C21.1771 6.17472 21.1013 6.2659 20.8861 6.29847L12.8443 7.47087L13.9072 10.1153L20.2914 9.18388C20.5951 9.13829 20.7975 9.22947 20.8798 9.44443L21.4176 10.7927C21.5062 11.0141 21.3987 11.1444 21.0886 11.1899L14.7045 12.1214L16.5203 16.6416C16.6089 16.8631 16.5014 16.9933 16.1914 17.039L14.1223 17.3385C13.8186 17.3842 13.6225 17.2995 13.5339 17.078Z" fill="#202020"/>
</g>
<defs>
<clipPath id="clip0">
<rect width="32" height="32" fill="white"/>
</clipPath>
</defs>
</svg>
