<svg width="32" height="32" viewBox="0 0 32 32" fill="none" xmlns="http://www.w3.org/2000/svg">
<path d="M5.33521 24.9958L8.95134 1.89709C8.97874 1.72635 9.0724 1.57331 9.21199 1.47122C9.35157 1.36914 9.5258 1.32626 9.69682 1.35189C9.79784 1.37042 9.89355 1.41091 9.97719 1.47052C10.0608 1.53012 10.1303 1.60737 10.1808 1.69681L13.9138 8.66761L15.3936 5.83033C15.4341 5.75248 15.4896 5.68337 15.5568 5.62696C15.624 5.57056 15.7017 5.52796 15.7854 5.50161C15.8691 5.47525 15.9572 5.46566 16.0446 5.47339C16.132 5.48111 16.2171 5.50599 16.2949 5.5466C16.4128 5.61457 16.5106 5.71244 16.5786 5.83033L26.6481 24.9958H5.33521Z" fill="#FFA000"/>
<path opacity="0.12" d="M17.669 1.50765L0 0V32L5.33519 24.9958L17.669 1.50765Z" fill="url(#paint0_linear_3373_88)"/>
<path d="M17.8192 16L13.9249 8.65091L5.33521 24.9958L17.8192 16Z" fill="#F57C00"/>
<path d="M26.6704 24.9958L23.8888 7.88317C23.86 7.70792 23.7632 7.55112 23.6194 7.44692C23.4756 7.34272 23.2965 7.29956 23.121 7.32684C22.9835 7.34641 22.8564 7.41097 22.7594 7.51043L5.33521 24.9958L14.9875 30.4367C15.2851 30.5999 15.6189 30.6854 15.9583 30.6854C16.2976 30.6854 16.6315 30.5999 16.9291 30.4367L26.6704 24.9958Z" fill="#FFCA28"/>
<path d="M23.9166 7.89988C23.8879 7.72463 23.7911 7.56783 23.6473 7.46362C23.5035 7.35942 23.3243 7.31626 23.1488 7.34355C23.0109 7.36187 22.8834 7.42662 22.7872 7.52714L19.3157 10.9931L16.6009 5.80808C16.5604 5.73023 16.5049 5.66112 16.4377 5.60471C16.3705 5.54831 16.2928 5.50571 16.2091 5.47936C16.1253 5.45301 16.0373 5.44342 15.9498 5.45114C15.8624 5.45886 15.7774 5.48374 15.6996 5.52436C15.5817 5.59232 15.4838 5.69019 15.4159 5.80808L13.936 8.64536L10.2031 1.68013C10.1612 1.60364 10.1047 1.53617 10.0367 1.48159C9.96864 1.42702 9.89053 1.38642 9.80678 1.36213C9.72304 1.33783 9.63532 1.33032 9.54866 1.34002C9.46201 1.34972 9.37812 1.37644 9.30183 1.41865C9.21126 1.467 9.13273 1.53511 9.07205 1.61793C9.01138 1.70075 8.97013 1.79616 8.95134 1.8971L5.33521 24.9958L5.43534 25.0459L19.3436 11.1377L22.815 7.67178C22.8763 7.60818 22.9497 7.55759 23.031 7.52303C23.1122 7.48847 23.1996 7.47066 23.2879 7.47066C23.3762 7.47066 23.4636 7.48847 23.5449 7.52303C23.6261 7.55759 23.6996 7.60818 23.7608 7.67178C23.8636 7.76853 23.9287 7.89867 23.9444 8.03896L26.6815 24.9847H26.7149L23.9166 7.89988ZM5.36858 24.9625L8.95134 2.06399C8.96289 1.97813 8.99147 1.89544 9.03539 1.82077C9.07931 1.7461 9.1377 1.68094 9.20714 1.62913C9.27657 1.57731 9.35564 1.53988 9.43973 1.51902C9.52382 1.49817 9.61122 1.49431 9.69682 1.50767C9.79824 1.52507 9.89443 1.56512 9.97822 1.62484C10.062 1.68456 10.1313 1.76241 10.1808 1.85259L13.9138 8.82338L15.3936 5.98611C15.4336 5.90773 15.4887 5.83809 15.5559 5.78126C15.623 5.72444 15.7008 5.68156 15.7847 5.65515C15.8686 5.62873 15.957 5.6193 16.0445 5.62741C16.1321 5.63552 16.2172 5.66101 16.2949 5.70238C16.4128 5.77035 16.5106 5.86822 16.5786 5.98611L19.2434 11.0543L5.36858 24.9625Z" fill="white" fill-opacity="0.2"/>
<path opacity="0.2" d="M16.9291 30.2476C16.6308 30.4117 16.2959 30.4978 15.9555 30.4978C15.6151 30.4978 15.2802 30.4117 14.9819 30.2476L5.35187 24.8735V25.0237L14.9875 30.4367C15.285 30.5999 15.6189 30.6854 15.9583 30.6854C16.2976 30.6854 16.6315 30.5999 16.9291 30.4367L26.6648 25.0181V24.8679L16.9291 30.2476Z" fill="#A52714"/>
<path d="M23.9166 7.89988C23.8879 7.72463 23.7911 7.56783 23.6473 7.46362C23.5035 7.35942 23.3243 7.31626 23.1488 7.34355C23.0109 7.36187 22.8834 7.42662 22.7872 7.52714L19.3157 10.9931L16.6009 5.80808C16.5604 5.73023 16.5049 5.66112 16.4377 5.60471C16.3705 5.54831 16.2928 5.50571 16.2091 5.47936C16.1253 5.45301 16.0373 5.44342 15.9498 5.45114C15.8624 5.45886 15.7774 5.48374 15.6996 5.52436C15.5817 5.59232 15.4838 5.69019 15.4159 5.80808L13.936 8.64536L10.2031 1.68013C10.1612 1.60364 10.1047 1.53617 10.0367 1.48159C9.96864 1.42702 9.89053 1.38642 9.80678 1.36213C9.72304 1.33783 9.63532 1.33032 9.54866 1.34002C9.46201 1.34972 9.37812 1.37644 9.30183 1.41865C9.21126 1.467 9.13273 1.53511 9.07205 1.61793C9.01138 1.70075 8.97013 1.79616 8.95134 1.8971L5.33521 24.9958L14.9875 30.4367C15.2851 30.5999 15.6189 30.6854 15.9583 30.6854C16.2976 30.6854 16.6315 30.5999 16.9291 30.4367L26.6648 25.0181L23.9166 7.89988Z" fill="url(#paint1_linear_3373_88)"/>
<path d="M23.9166 7.89988C23.8879 7.72463 23.7911 7.56783 23.6473 7.46362C23.5035 7.35942 23.3243 7.31626 23.1488 7.34355C23.0109 7.36187 22.8834 7.42662 22.7872 7.52714L19.3157 10.9931L16.6009 5.80808C16.5604 5.73023 16.5049 5.66112 16.4377 5.60471C16.3705 5.54831 16.2928 5.50571 16.2091 5.47936C16.1253 5.45301 16.0373 5.44342 15.9498 5.45114C15.8624 5.45886 15.7774 5.48374 15.6996 5.52436C15.5817 5.59232 15.4838 5.69019 15.4159 5.80808L13.936 8.64536L10.2031 1.68013C10.1612 1.60364 10.1047 1.53617 10.0367 1.48159C9.96864 1.42702 9.89053 1.38642 9.80678 1.36213C9.72304 1.33783 9.63532 1.33032 9.54866 1.34002C9.46201 1.34972 9.37812 1.37644 9.30183 1.41865C9.21126 1.467 9.13273 1.53511 9.07205 1.61793C9.01138 1.70075 8.97013 1.79616 8.95134 1.8971L5.33521 24.9958L14.9875 30.4367C15.2851 30.5999 15.6189 30.6854 15.9583 30.6854C16.2976 30.6854 16.6315 30.5999 16.9291 30.4367L26.6648 25.0181L23.9166 7.89988Z" fill="url(#paint2_linear_3373_88)"/>
<defs>
<linearGradient id="paint0_linear_3373_88" x1="9.49096" y1="17.0904" x2="8.16134" y2="16.395" gradientUnits="userSpaceOnUse">
<stop stop-color="#A52714"/>
<stop offset="0.4" stop-color="#A52714" stop-opacity="0.5"/>
<stop offset="0.8" stop-color="#A52714" stop-opacity="0"/>
</linearGradient>
<linearGradient id="paint1_linear_3373_88" x1="4.76675" y1="6.49565" x2="27.0328" y2="28.7766" gradientUnits="userSpaceOnUse">
<stop stop-color="white" stop-opacity="0.1"/>
<stop offset="1" stop-color="white" stop-opacity="0"/>
</linearGradient>
<linearGradient id="paint2_linear_3373_88" x1="4.76675" y1="6.49565" x2="27.0328" y2="28.7766" gradientUnits="userSpaceOnUse">
<stop stop-color="white" stop-opacity="0.1"/>
<stop offset="1" stop-color="white" stop-opacity="0"/>
</linearGradient>
</defs>
</svg>
