<svg width="32" height="32" viewBox="0 0 32 32" fill="none" xmlns="http://www.w3.org/2000/svg">
<path fill-rule="evenodd" clip-rule="evenodd" d="M8.53368 8.71594C8.53368 7.31355 8.53368 5.92148 8.53368 4.52941C8.5272 4.45939 8.5425 4.38909 8.57747 4.32815C8.61243 4.26722 8.66536 4.21865 8.72896 4.18912L16.0059 0.0644604C16.0624 0.0225908 16.1309 0 16.2011 0C16.2714 0 16.3399 0.0225908 16.3964 0.0644604C18.7707 1.45653 21.1552 2.85892 23.5911 4.24068C23.6593 4.27098 23.716 4.32234 23.7529 4.38727C23.7899 4.45221 23.8052 4.5273 23.7967 4.60159C23.7967 7.35136 23.7967 10.0702 23.7967 12.7581C23.8088 12.8754 23.7834 12.9935 23.7243 13.0954C23.6652 13.1974 23.5754 13.2778 23.4678 13.3252L16.4067 17.3984C16.3419 17.4485 16.2624 17.4757 16.1806 17.4757C16.0988 17.4757 16.0192 17.4485 15.9545 17.3984L8.7598 13.2737C8.68989 13.2419 8.63156 13.1891 8.59289 13.1226C8.55422 13.0561 8.53712 12.9792 8.54396 12.9025C8.54396 11.5104 8.54396 10.1286 8.54396 8.77781L8.53368 8.71594Z" fill="#A32731"/>
<path fill-rule="evenodd" clip-rule="evenodd" d="M0.0336407 23.1932C0.0336407 21.8114 0.0336407 20.4297 0.0336407 19.0685C0.0276105 18.9907 0.0462187 18.9129 0.0868166 18.8462C0.127415 18.7796 0.187933 18.7275 0.259759 18.6973L7.45443 14.5727C7.51948 14.5279 7.59652 14.5039 7.67541 14.5039C7.7543 14.5039 7.83134 14.5279 7.89639 14.5727L14.978 18.6973C15.0579 18.7302 15.1251 18.7881 15.1696 18.8625C15.214 18.9368 15.2334 19.0235 15.2247 19.1098C15.2247 21.8252 15.2247 24.5337 15.2247 27.2354C15.2404 27.3478 15.2188 27.4623 15.163 27.5612C15.1073 27.66 15.0205 27.7376 14.9163 27.7819C12.5524 29.1327 10.1884 30.5042 7.83472 31.9065C7.76835 31.9576 7.68707 31.9852 7.60347 31.9852C7.51986 31.9852 7.43858 31.9576 7.37221 31.9065L0.239203 27.7819C0.160362 27.7455 0.0950298 27.685 0.0525655 27.609C0.0101013 27.5331 -0.00731678 27.4456 0.00280636 27.3591C0.00280636 25.9773 0.00280636 24.6059 0.00280636 23.2344L0.0336407 23.1932Z" fill="#A32731"/>
<path fill-rule="evenodd" clip-rule="evenodd" d="M16.7671 23.2146C16.7671 21.8329 16.7671 20.4511 16.7671 19.09C16.7599 19.0066 16.7788 18.9231 16.8212 18.851C16.8636 18.7789 16.9273 18.7218 17.0035 18.6878L24.1982 14.5632C24.2579 14.5196 24.3299 14.4961 24.4038 14.4961C24.4776 14.4961 24.5496 14.5196 24.6093 14.5632L31.804 18.7394C31.8676 18.7689 31.9205 18.8175 31.9555 18.8784C31.9905 18.9394 32.0058 19.0097 31.9993 19.0797C31.9993 21.8535 31.9993 24.6377 31.9993 27.4115C32.0058 27.4815 31.9905 27.5518 31.9555 27.6127C31.9205 27.6737 31.8676 27.7222 31.804 27.7518L24.6093 31.9383C24.5522 31.9787 24.4839 32.0004 24.414 32.0004C24.3441 32.0004 24.2759 31.9787 24.2187 31.9383L17.0241 27.8136C16.9524 27.7813 16.8928 27.7269 16.854 27.6583C16.8152 27.5897 16.7991 27.5105 16.8082 27.4321C16.8082 26.0503 16.8082 24.6583 16.8082 23.3074L16.7671 23.2146ZM18.0724 23.2146V26.6381C18.0619 26.7073 18.0742 26.7781 18.1077 26.8396C18.1411 26.9011 18.1937 26.9498 18.2574 26.9784L24.1468 30.4019C24.1982 30.4373 24.2591 30.4563 24.3215 30.4563C24.3839 30.4563 24.4448 30.4373 24.4963 30.4019C26.4765 29.2332 28.4705 28.0783 30.4781 26.9372C30.5326 26.9073 30.5772 26.8621 30.6064 26.8071C30.6356 26.7522 30.6482 26.6898 30.6426 26.6278C30.6426 24.3386 30.6426 22.0494 30.6426 19.7602C30.6479 19.6957 30.6329 19.6312 30.5997 19.5757C30.5665 19.5202 30.5168 19.4766 30.4576 19.4509L24.5785 15.9965C24.523 15.9617 24.4589 15.9433 24.3935 15.9433C24.3281 15.9433 24.264 15.9617 24.2085 15.9965C22.2419 17.1651 20.2583 18.3166 18.2574 19.4509C18.1938 19.4804 18.1409 19.529 18.1059 19.5899C18.071 19.6509 18.0557 19.7212 18.0622 19.7912C18.0724 20.9358 18.0724 22.07 18.0724 23.225V23.2146Z" fill="#A32731"/>
</svg>
