<svg width="32" height="32" viewBox="0 0 32 32" fill="none" xmlns="http://www.w3.org/2000/svg">
<rect width="32" height="32" fill="#A172FF"/>
<path fill-rule="evenodd" clip-rule="evenodd" d="M4.0343 13.5462C2.82287 9.48451 3.42859 5.59994 8.58173 4.12908C9.88802 3.75651 11.88 3.48794 13.2332 3.46623C18.168 3.38965 28.3897 3.45023 28.6229 3.46851C28.752 3.47994 28.2572 5.42965 27.392 6.7188C25.976 8.82851 23.9589 9.81823 21.4114 9.94737C18.2732 10.1062 15.1269 10.1348 11.984 10.1371C8.87316 10.1382 6.20345 11.0719 4.15202 13.5062C4.13716 13.5245 4.1063 13.5314 4.07545 13.5371L4.03659 13.5462H4.0343ZM11.232 12.5771L19.5554 12.5919V18.1805H11.232V28.3691C6.91659 28.3314 3.42859 24.8114 3.42859 20.4719C3.42859 16.1348 6.91659 12.6148 11.232 12.5771Z" fill="white"/>
</svg>
