<svg width="32" height="32" viewBox="0 0 32 32" fill="none" xmlns="http://www.w3.org/2000/svg">
<path d="M14.7265 14.9563C14.5601 14.6726 14.1491 14.4279 13.8164 14.4279H10.6754C10.3428 14.4279 9.93178 14.6628 9.76544 14.9563L8.19004 17.6766C8.0237 17.9603 8.0237 18.4398 8.19004 18.7236L9.76544 21.4438C9.93178 21.7374 10.3428 21.9722 10.6754 21.9722H13.8164C14.1491 21.9722 14.5601 21.7374 14.7265 21.4438L16.3018 18.7236C16.4682 18.4398 16.4682 17.9603 16.3018 17.6766L14.7265 14.9563ZM14.7265 23.7041C14.5601 23.4204 14.1491 23.1758 13.8164 23.1758H10.6754C10.3428 23.1758 9.93178 23.4106 9.76544 23.7041L8.19004 26.4244C8.0237 26.7082 8.0237 27.1876 8.19004 27.4714L9.76544 30.1916C9.93178 30.4852 10.3428 30.72 10.6754 30.72H13.8164C14.1491 30.72 14.5601 30.4852 14.7265 30.1916L16.3018 27.4714C16.4682 27.1778 16.4682 26.7082 16.3018 26.4244L14.7265 23.7041ZM9.74587 12.7155C9.91221 13.0091 10.3232 13.2439 10.6559 13.2439H13.7969C14.1296 13.2439 14.5405 13.0091 14.7069 12.7155L16.2823 9.9953C16.4486 9.71153 16.4486 9.23206 16.2823 8.9483L14.7069 6.21827C14.5405 5.9345 14.1296 5.68988 13.7969 5.68988H10.6461C10.3134 5.68988 9.91221 5.9345 9.74587 6.21827L8.17047 8.93851C8.00413 9.22228 8.00413 9.70175 8.17047 9.98551L9.74587 12.7155ZM22.2805 10.5922C22.1142 10.2986 21.7032 10.0638 21.3705 10.0638H18.2295C17.8968 10.0638 17.4858 10.2986 17.3195 10.5922L15.7441 13.3124C15.5778 13.606 15.5778 14.0757 15.7441 14.3594L17.3195 17.0797C17.4858 17.3732 17.8968 17.6081 18.2295 17.6081H21.3705C21.7032 17.6081 22.1142 17.3732 22.2805 17.0797L23.8559 14.3594C24.0223 14.0659 24.0223 13.5962 23.8559 13.3124L22.2805 10.5922ZM22.2805 1.85414C22.124 1.56059 21.713 1.32574 21.3803 1.32574H18.2393C17.9066 1.32574 17.4956 1.56059 17.3293 1.85414L15.7637 4.57438C15.5973 4.86793 15.5973 5.33761 15.7637 5.62138L17.3293 8.34162C17.4956 8.63518 17.9066 8.87002 18.2393 8.87002H21.3803C21.713 8.87002 22.124 8.63518 22.2903 8.34162L23.8657 5.62138C24.032 5.32783 24.032 4.85815 23.8657 4.57438L22.2805 1.85414Z" fill="#008FDD"/>
</svg>
