<svg width="32" height="32" viewBox="0 0 32 32" fill="none" xmlns="http://www.w3.org/2000/svg">
<rect width="32" height="32" fill="black"/>
<path d="M7.53128 6.0563C6.96878 6.1938 6.45003 6.6188 6.18753 7.1563C5.97503 7.58755 5.96878 8.3938 6.17503 8.81255C6.38753 9.2563 6.64378 9.5188 7.07503 9.7563L7.46878 9.9688H24.5313L24.925 9.7563C25.3625 9.5188 25.5563 9.3188 25.8 8.85005C25.9375 8.5813 25.9625 8.45005 25.9625 8.00005C25.9688 7.51255 25.95 7.43755 25.7563 7.07505C25.525 6.6438 25.2625 6.3938 24.8125 6.17505L24.5313 6.0313L16.125 6.0188C11.5 6.0188 7.63753 6.0313 7.53128 6.0563V6.0563ZM7.53128 14.0563C6.96878 14.1938 6.45003 14.6188 6.18753 15.1563C5.97503 15.5875 5.96878 16.3938 6.17503 16.8125C6.38753 17.2563 6.64378 17.5188 7.07503 17.7563L7.46878 17.9688H24.5313L24.925 17.7563C25.3625 17.5188 25.5563 17.3188 25.8 16.85C25.9375 16.5813 25.9625 16.45 25.9625 16C25.9688 15.5125 25.95 15.4375 25.7563 15.075C25.525 14.6438 25.2625 14.3938 24.8125 14.175L24.5313 14.0313L16.125 14.0188C11.5 14.0188 7.63753 14.0313 7.53128 14.0563V14.0563ZM7.53128 22.0563C6.96878 22.1938 6.45003 22.6188 6.18753 23.1563C5.97503 23.5875 5.96878 24.3938 6.17503 24.8125C6.38753 25.2563 6.64378 25.5188 7.07503 25.7563L7.46878 25.9688H24.5313L24.925 25.7563C25.3625 25.5188 25.5563 25.3188 25.8 24.85C25.9375 24.5813 25.9625 24.45 25.9625 24C25.9688 23.5125 25.95 23.4376 25.7563 23.0751C25.525 22.6438 25.2625 22.3938 24.8125 22.175L24.5313 22.0313L16.125 22.0188C11.5 22.0188 7.63753 22.0313 7.53128 22.0563V22.0563Z" fill="#E8D15A"/>
</svg>
