<?xml version="1.0" encoding="UTF-8" standalone="no"?>
<!DOCTYPE svg PUBLIC "-//W3C//DTD SVG 1.1//EN" "http://www.w3.org/Graphics/SVG/1.1/DTD/svg11.dtd">
<svg width="100%" height="100%" viewBox="0 0 800 800" version="1.1" xmlns="http://www.w3.org/2000/svg" xmlns:xlink="http://www.w3.org/1999/xlink" xml:space="preserve" xmlns:serif="http://www.serif.com/" style="fill-rule:evenodd;clip-rule:evenodd;stroke-linejoin:round;stroke-miterlimit:2;">
    <g transform="matrix(2,0,0,2,0,0)">
        <g id="_6f7c9d94-fa87-409e-8541-befd9f1e8612" serif:id="6f7c9d94-fa87-409e-8541-befd9f1e8612">
        </g>
        <g id="Artboard1" transform="matrix(1.38285,0,0,1.38285,-1212.26,-252.797)">
            <rect x="876.639" y="182.808" width="289.257" height="289.257" style="fill:none;"/>
            <g transform="matrix(0.794363,0,0,0.794363,833.805,136.976)">
                <g id="_6f7c9d94-fa87-409e-8541-befd9f1e86121" serif:id="6f7c9d94-fa87-409e-8541-befd9f1e8612">
                    <g>
                        <path d="M312.318,191.719C298.86,198.375 293.056,210.814 287.936,221.787L287.37,223C284.24,229.693 278.616,236.832 269.046,236.165C268.814,232.825 268.088,229.628 266.932,226.638C278.134,217.593 281.397,203.063 275.282,187.008L274.798,185.74C270.882,175.487 267.5,166.633 270.437,157.739C273.673,147.942 282.114,143.558 288.624,141.607L289.48,141.37C308.857,152.011 324.715,168.269 334.885,187.934C327.05,186.99 319.333,188.249 312.318,191.719ZM347.245,238.747C347.245,249.789 345.603,260.451 342.587,270.524C337.747,264.739 331.527,260.485 324.28,258.149C309.98,253.546 296.917,258.244 285.392,262.389L284.114,262.848C277.012,265.395 267.823,266.544 261.478,259.582C263.52,257.147 265.216,254.415 266.49,251.456C267.754,251.598 269.009,251.695 270.245,251.695C283.315,251.694 294.714,243.825 301.386,229.556L301.959,228.331C306.589,218.408 310.587,209.838 319.178,205.59C327.974,201.238 336.564,203.364 342.304,205.975C345.513,216.338 347.245,227.343 347.245,238.747ZM288.754,336.527C289.938,328.447 288.639,320.457 284.822,313.148C277.934,299.953 265.222,294.211 254.005,289.144L252.77,288.586C246.02,285.529 238.813,280.142 239.111,271.211C242.593,270.914 245.925,270.093 249.012,268.795C258.239,279.901 273.049,283.259 289.339,277.414L290.63,276.95C301.16,273.163 310.254,269.887 319.537,272.879C328.633,275.809 333.188,282.825 335.442,288.472C325.175,308.874 308.821,325.703 288.754,336.527ZM269.712,344.585C259.138,347.94 247.892,349.77 236.222,349.77C224.332,349.77 212.881,347.87 202.133,344.394C209.207,339.498 214.335,332.797 217.002,324.721C221.667,310.596 216.743,297.708 212.4,286.338L211.924,285.092C209.337,278.301 208.133,269.538 214.969,263.485C217.582,265.714 220.54,267.544 223.765,268.873C222.476,283.013 230.622,295.542 246.386,302.682L247.635,303.246C257.861,307.865 266.691,311.855 271.105,320.309C275.903,329.498 273.174,338.389 270.041,344.231C270.041,344.231 269.919,344.52 269.712,344.585ZM183.03,336.153C163.646,325.525 147.776,309.282 137.594,289.626C139.36,289.85 141.121,289.974 142.869,289.974C148.97,289.974 154.921,288.612 160.428,285.888C173.887,279.232 179.692,266.79 184.813,255.814L185.375,254.609C188.49,247.951 194.074,240.861 203.549,241.439C203.848,244.772 204.641,247.961 205.859,250.933C194.621,259.974 191.34,274.523 197.464,290.6L197.945,291.86C201.862,302.116 205.246,310.973 202.308,319.868C199.072,329.666 190.633,334.05 184.122,336.001L183.03,336.153ZM130.117,271.427C126.926,261.09 125.199,250.117 125.199,238.747C125.199,227.639 126.858,216.916 129.908,206.789C134.782,212.727 141.094,217.085 148.465,219.458C162.768,224.062 175.834,219.364 187.359,215.217L188.631,214.76C195.588,212.263 204.545,211.112 210.872,217.605C208.781,220.149 207.08,223.018 205.822,226.116C191.375,224.678 178.591,232.589 171.358,248.053L170.789,249.271C166.159,259.197 162.16,267.769 153.567,272.018C144.788,276.361 136.209,274.237 130.559,271.691L130.117,271.427ZM184.028,140.793C182.77,148.97 184.061,157.063 187.923,164.46C194.811,177.654 207.522,183.396 218.735,188.462L219.976,189.022C226.555,192.002 233.586,197.19 233.66,205.723C229.997,206.013 226.501,206.883 223.274,208.275C214.02,197.602 199.433,194.445 183.407,200.194L182.121,200.656C171.589,204.445 162.493,207.719 153.208,204.729C143.904,201.733 139.351,194.461 137.148,188.736C147.481,168.35 163.902,151.56 184.028,140.793ZM253.689,238.472C253.689,248.071 245.88,255.88 236.282,255.88C226.683,255.88 218.874,248.071 218.874,238.472C218.874,228.874 226.683,221.064 236.282,221.064C245.88,221.064 253.689,228.874 253.689,238.472ZM203.158,132.773C213.608,129.504 224.709,127.723 236.222,127.723C248.229,127.723 259.785,129.664 270.624,133.206C263.544,138.102 258.411,144.806 255.743,152.887C251.079,167.009 256.001,179.894 260.342,191.261L260.821,192.516C263.373,199.215 264.581,207.832 258.052,213.876C255.388,211.516 252.362,209.559 249.033,208.157C250.049,194.253 241.908,181.968 226.36,174.927L225.107,174.36C214.883,169.742 206.054,165.752 201.64,157.299C196.843,148.111 199.572,139.218 202.706,133.377L203.158,132.773ZM236.222,115.344C168.068,115.344 112.82,170.593 112.82,238.747C112.82,306.9 168.068,362.149 236.222,362.149C304.376,362.149 359.625,306.9 359.625,238.747C359.625,170.593 304.376,115.344 236.222,115.344Z" style="fill:rgb(80,198,219);fill-rule:nonzero;"/>
                        <path d="M236.222,376.184C160.439,376.184 98.784,314.53 98.784,238.747C98.784,162.963 160.439,101.309 236.222,101.309C312.005,101.309 373.659,162.963 373.659,238.747C373.659,314.53 312.005,376.184 236.222,376.184ZM236.222,81.58C149.421,81.58 79.054,151.946 79.054,238.747C79.054,325.547 149.421,395.913 236.222,395.913C323.023,395.913 393.389,325.547 393.389,238.747C393.389,151.946 323.023,81.58 236.222,81.58Z" style="fill:rgb(80,198,219);fill-rule:nonzero;"/>
                        <path d="M366.923,109.128C352.199,94.27 333.227,83.364 316.174,79.957C315.115,79.742 314.066,80.361 313.733,81.387C313.4,82.415 313.889,83.528 314.871,83.978C330.937,91.341 346.521,102.389 359.939,115.929C373.465,129.579 384.43,145.395 391.645,161.667C391.994,162.454 392.768,162.932 393.59,162.932C393.804,162.932 394.022,162.9 394.235,162.832C395.269,162.502 395.89,161.448 395.676,160.385C392.053,142.387 381.843,124.184 366.923,109.128Z" style="fill:rgb(80,198,219);fill-rule:nonzero;"/>
                        <path d="M157.112,393.534C141.044,386.171 125.461,375.122 112.044,361.583C98.516,347.932 87.552,332.116 80.336,315.845C79.895,314.85 78.777,314.349 77.746,314.679C76.712,315.009 76.091,316.063 76.305,317.127C79.928,335.124 90.139,353.328 105.059,368.384C119.783,383.242 138.754,394.147 155.808,397.554C155.948,397.583 156.088,397.596 156.227,397.596C157.132,397.596 157.96,397.015 158.249,396.125C158.582,395.097 158.093,393.983 157.112,393.534Z" style="fill:rgb(80,198,219);fill-rule:nonzero;"/>
                    </g>
                </g>
            </g>
        </g>
    </g>
</svg>
