<svg width="32" height="32" viewBox="0 0 32 32" fill="none" xmlns="http://www.w3.org/2000/svg">
<g clip-path="url(#clip0_3325_787)">
<path d="M4 30C2.9 30 2 29.1 2 28V4C2 2.9 2.9 2 4 2C5.1 2 6 2.9 6 4V28C6 29.1 5.1 30 4 30Z" fill="#528DD7"/>
<path d="M22.525 5C18.6 5 17.1 3 13.2 3C10.025 3 8.525 4.3 6 4.8V8.8C8.525 8.3 10.025 7 13.2 7C17.125 7 18.6 9 22.525 9C23.8 9 24.75 8.825 26 8.425V20.425C24.75 20.825 23.8 21 22.525 21C18.6 21 17.1 19 13.2 19C11.925 19 10.925 19.225 10 19.5V23.5C10.925 23.2 11.925 23 13.2 23C17.125 23 18.6 25 22.525 25C24.85 25 26.05 24.4 30 23V3C26.05 4.4 24.85 5 22.525 5Z" fill="#528DD7"/>
</g>
<defs>
<clipPath id="clip0_3325_787">
<rect width="32" height="32" fill="white"/>
</clipPath>
</defs>
</svg>
