<svg width="32" height="32" viewBox="0 0 32 32" fill="none" xmlns="http://www.w3.org/2000/svg">
<path d="M26.028 8.62923C26.102 8.49608 26.1207 8.33912 26.0798 8.19233C26.039 8.04555 25.9421 7.92074 25.8099 7.84492L15.4808 1.97093C15.2991 1.86702 14.8675 1.86929 14.6877 1.97662L4.47354 8.0391C4.386 8.09059 4.31385 8.16458 4.26456 8.25338C4.22753 8.31988 4.20397 8.39303 4.19524 8.46865C4.1865 8.54426 4.19275 8.62086 4.21364 8.69406C4.23453 8.76725 4.26964 8.83561 4.31697 8.89523C4.3643 8.95484 4.42291 9.00454 4.48946 9.04148L14.8398 14.9655C15.0181 15.0645 15.397 15.0687 15.5733 14.9655L25.8133 8.84503C25.903 8.79379 25.9772 8.71922 26.028 8.62923V8.62923ZM19.422 8.55338C19.4019 8.58945 19.3722 8.61934 19.3363 8.63985L16.0952 10.5278V10.5259L15.6154 10.8077L15.604 10.8153L15.4387 10.9105C15.3493 10.9583 15.2529 10.9917 15.1531 11.0095C15.0258 11.0085 14.9006 10.9759 14.789 10.9147L14.7424 10.8889C14.7215 10.8767 14.7044 10.865 14.6866 10.8551C14.636 10.824 14.5855 10.7947 14.5349 10.7671L14.2975 10.6412L10.839 8.71835C10.8034 8.69885 10.7737 8.67027 10.7527 8.63553C10.7318 8.60078 10.7204 8.56111 10.7197 8.52055C10.7191 8.47998 10.7292 8.43997 10.749 8.40456C10.7688 8.36916 10.7977 8.33964 10.8326 8.31899L14.6532 6.03585H14.6635C14.6741 6.02788 14.6843 6.01992 14.6946 6.01271L14.811 5.94293C14.8894 5.90493 14.9751 5.88455 15.0622 5.88324C15.1493 5.88193 15.2356 5.89972 15.315 5.93534L15.4626 6.01992C15.4804 6.03319 15.4903 6.04191 15.4903 6.04191L18.3969 7.71635L18.3821 7.69397L18.4011 7.70459L18.3969 7.71635L19.2574 8.19611L19.3356 8.24087C19.388 8.27142 19.4263 8.32133 19.4422 8.37985C19.4582 8.43838 19.4505 8.50083 19.4209 8.55376L19.422 8.55338Z" fill="black"/>
<path d="M7.16359 15.0126C7.21083 15.0417 7.26029 15.067 7.3115 15.0884L8.44359 15.7407L9.31588 16.2459C9.31805 16.2471 9.32008 16.2485 9.32195 16.2501C9.35988 16.2751 10.0315 16.6673 10.0315 16.6673L12.207 17.915L12.4027 18.0288L13.6163 18.7255L13.8655 18.8693C13.951 18.9189 14.048 18.9451 14.1469 18.9451C14.2958 18.9451 14.4388 18.8868 14.5452 18.7825C14.6515 18.6783 14.7128 18.5365 14.7158 18.3876L14.7537 16.2979C14.7553 16.1962 14.7295 16.0959 14.6792 16.0075C14.6288 15.9191 14.5557 15.8459 14.4674 15.7954L3.9414 9.79586C3.85519 9.74635 3.75745 9.72043 3.65804 9.72071C3.55862 9.72098 3.46104 9.74744 3.3751 9.79743C3.28916 9.84741 3.21791 9.91916 3.16852 10.0054C3.11913 10.0917 3.09334 10.1895 3.09375 10.2889V22.2902C3.09393 22.3875 3.11909 22.4832 3.16683 22.5681C3.21458 22.653 3.28331 22.7242 3.36644 22.7749L5.61735 24.1402C5.70549 24.1945 5.80696 24.2234 5.91051 24.2236C6.05893 24.2237 6.20149 24.1657 6.30777 24.0621C6.41405 23.9586 6.47564 23.8175 6.4794 23.6692V23.6692L6.49306 22.8993V20.9973H6.4995C6.4995 20.9973 6.44603 20.3658 7.1579 20.8076C7.20898 20.8397 7.26279 20.8673 7.3187 20.89L9.37353 22.0596L9.37922 22.0634C9.47745 22.126 13.8545 24.6207 13.8545 24.6207C13.9406 24.6701 14.0383 24.6959 14.1376 24.6955C14.2369 24.6951 14.3343 24.6686 14.4201 24.6187C14.5059 24.5687 14.577 24.497 14.6263 24.4108C14.6757 24.3246 14.7014 24.227 14.701 24.1277V22.0418C14.7007 21.9415 14.674 21.8432 14.6235 21.7566C14.5731 21.67 14.5006 21.5983 14.4135 21.5487L11.6184 19.9665L6.97585 17.3116L6.98192 17.3041C6.96447 17.2984 6.94741 17.2923 6.93072 17.2862L6.73654 17.1751C6.54388 17.0181 6.49837 16.794 6.49192 16.6441V16.5637C6.49273 16.5396 6.49489 16.5156 6.49836 16.4917L6.50519 15.2022L6.49192 15.2162V15.2014H6.50519C6.50519 15.2014 6.45134 14.5711 7.16359 15.0126Z" fill="black"/>
<path d="M22.1124 18.4825C22.2474 18.4825 22.3794 18.4425 22.4917 18.3675C22.6039 18.2925 22.6914 18.1858 22.7431 18.0611C22.7948 17.9364 22.8083 17.7991 22.782 17.6667C22.7556 17.5342 22.6906 17.4126 22.5951 17.3171C22.4996 17.2217 22.378 17.1566 22.2456 17.1303C22.1131 17.104 21.9759 17.1175 21.8511 17.1692C21.7264 17.2208 21.6198 17.3083 21.5447 17.4206C21.4697 17.5328 21.4297 17.6648 21.4297 17.7999C21.4297 17.9809 21.5016 18.1545 21.6296 18.2826C21.7577 18.4106 21.9313 18.4825 22.1124 18.4825V18.4825Z" fill="black"/>
<path d="M16.2698 28.8913C16.3735 28.891 16.4752 28.8627 16.5641 28.8094L26.889 22.8334C27.0642 22.7291 27.2448 22.3961 27.2448 22.1917L27.0961 10.267C27.0962 10.1909 27.0812 10.1155 27.0521 10.0452C27.023 9.97485 26.9803 9.91095 26.9265 9.85712C26.8727 9.8033 26.8088 9.76062 26.7384 9.73151C26.6681 9.70241 26.5927 9.68745 26.5166 9.6875V9.6875C26.415 9.68769 26.3152 9.71492 26.2276 9.76639L15.9645 15.7473C15.7836 15.852 15.5716 16.2282 15.5742 16.4376L15.688 28.3197C15.69 28.4725 15.7523 28.6182 15.8612 28.7253C15.9702 28.8323 16.1171 28.892 16.2698 28.8913V28.8913ZM16.1215 16.2915C16.1471 16.2435 16.1793 16.1992 16.2171 16.1599L26.4699 10.1843C26.4839 10.1758 26.4999 10.1712 26.5162 10.1711C26.5418 10.1716 26.5663 10.1818 26.5849 10.1995C26.594 10.2082 26.6011 10.2187 26.6058 10.2303C26.6105 10.2419 26.6127 10.2545 26.6122 10.267V10.2731L26.7612 22.1867C26.7507 22.231 26.7339 22.2736 26.7112 22.313C26.6911 22.353 26.6656 22.3899 26.6353 22.4226L16.3218 28.391H16.3195H16.3172C16.303 28.3999 16.2866 28.4048 16.2698 28.4051C16.2447 28.4052 16.2205 28.3954 16.2025 28.3779C16.1845 28.3604 16.1741 28.3365 16.1735 28.3114L16.0597 16.4406C16.0733 16.3883 16.0941 16.3381 16.1215 16.2915Z" fill="black"/>
<path d="M18.1964 18.2485V18.283L18.2014 18.3179L18.2037 18.3354L18.2275 19.8524L18.2173 19.8331L18.2495 22.2012V22.2266L18.256 22.6972H18.2647V23.3776V23.3844V23.4903C18.2665 23.6374 18.307 23.7815 18.3822 23.908C18.4574 24.0345 18.5645 24.1389 18.6929 24.2109C18.8213 24.2828 18.9663 24.3197 19.1135 24.3177C19.2606 24.3158 19.4046 24.2751 19.5311 24.1998L23.3172 21.9508L23.877 21.6182L23.891 21.6099L24.0841 21.4961L24.0981 21.4874L24.4702 21.1654C24.4846 21.1479 24.4986 21.1305 24.5119 21.1127L24.5373 21.0858L24.5544 21.0562C24.6745 20.8433 24.7388 20.6035 24.7413 20.3591V20.2666C24.7413 20.2366 24.7394 20.2066 24.7383 20.177C24.7353 20.1198 24.7345 20.0633 24.7356 20.0083L24.7417 19.6927V15.0362C24.7418 14.926 24.7201 14.8169 24.6779 14.7151C24.6358 14.6133 24.574 14.5208 24.4961 14.4429C24.4182 14.365 24.3257 14.3032 24.2239 14.261C24.1221 14.2189 24.013 14.1972 23.9028 14.1973C23.7554 14.1975 23.6106 14.2367 23.4833 14.311L18.961 16.9279L18.9333 16.9439L18.9121 16.9564L18.7744 17.036L18.7513 17.0493L18.7297 17.0648C18.5805 17.1703 18.4558 17.3068 18.3642 17.4648C18.2726 17.6229 18.2161 17.7989 18.1987 17.9808L18.1953 18.0141V18.0475L18.1964 18.2485ZM19.057 17.5279L19.1947 17.4483L19.2364 17.4297L19.2436 17.4198L23.7659 14.8029C23.8067 14.7784 23.8533 14.7653 23.9009 14.765C23.9728 14.765 24.0418 14.7936 24.0926 14.8444C24.1435 14.8953 24.1721 14.9643 24.1721 15.0362V19.2012C23.9206 19.0495 23.6608 18.9638 23.321 19.0772C22.567 19.3286 22.0493 20.1899 22.0493 20.1899C22.0493 20.1899 21.1152 17.7001 18.7851 19.1887L18.7725 18.2811C18.7725 18.2811 18.7691 18.2663 18.7657 18.2405L18.7627 18.0407C18.7714 17.9389 18.8023 17.8403 18.8531 17.7517C18.904 17.6632 18.9735 17.5868 19.057 17.5279Z" fill="black"/>
<path d="M15.0871 1.08051C15.2541 1.08045 15.4184 1.1237 15.5638 1.20604L27.1926 7.80288C27.3826 7.91085 27.541 8.06666 27.652 8.25483C27.7631 8.44299 27.8229 8.65695 27.8256 8.87542L27.9822 22.415C27.9846 22.5869 27.9411 22.7564 27.8561 22.9059C27.7711 23.0553 27.6477 23.1794 27.4987 23.2653L15.7894 29.9975C15.5205 30.1522 15.2562 30.244 14.993 30.244C14.7774 30.2426 14.5664 30.1819 14.3832 30.0684L2.86619 23.2342C2.72205 23.1489 2.60253 23.0277 2.51936 22.8824C2.43618 22.737 2.39221 22.5726 2.39173 22.4051L2.36329 9.40373C2.36329 8.6528 2.52713 8.4351 3.17339 8.05319L14.5955 1.21477C14.7448 1.1265 14.9151 1.08012 15.0886 1.08051H15.0871ZM15.0886 0C14.7222 7.7617e-05 14.3625 0.0984368 14.0471 0.284823H14.0445H14.0418L2.61929 7.12818C2.26961 7.33525 1.8748 7.59201 1.60667 8.02285C1.31843 8.48592 1.2805 8.98351 1.28126 9.40904L1.31084 22.4093C1.31202 22.7637 1.40527 23.1118 1.58146 23.4194C1.75764 23.7269 2.01072 23.9834 2.31588 24.1637L13.8309 30.9961C14.1809 31.2093 14.5824 31.3229 14.9922 31.3249C15.4341 31.3249 15.871 31.1971 16.3276 30.9347L28.0361 24.2017C28.3514 24.0202 28.6127 23.758 28.7931 23.442C28.9735 23.1261 29.0664 22.7678 29.0624 22.404L28.9061 8.86442C28.9009 8.45689 28.7893 8.05779 28.5823 7.70668C28.3754 7.35557 28.0803 7.06463 27.7262 6.86269L16.0966 0.266619C15.7887 0.0924029 15.4409 0.000937807 15.0871 0.00113773L15.0886 0Z" fill="black"/>
</svg>
