<?xml version="1.0" encoding="utf-8"?>
<!-- Generator: Adobe Illustrator 21.0.0, SVG Export Plug-In . SVG Version: 6.00 Build 0)  -->
<svg version="1.1" id="Layer_1" xmlns="http://www.w3.org/2000/svg" xmlns:xlink="http://www.w3.org/1999/xlink" x="0px" y="0px"
	 viewBox="0 0 500 500" style="enable-background:new 0 0 500 500;" xml:space="preserve">
<style type="text/css">
	.st0{fill:#007BFF;}
	.st1{fill:url(#SVGID_1_);}
	.st2{fill:url(#SVGID_2_);}
	.st3{fill:url(#SVGID_3_);}
	.st4{display:none;fill:#1D96D3;}
	.st5{opacity:0.6;fill:url(#SVGID_4_);}
	.st6{opacity:0.58;fill:url(#SVGID_5_);}
	.st7{fill:#1D96D3;}
	.st8{opacity:0.61;fill:url(#SVGID_6_);}
</style>
<g>
	<path class="st0" d="M396.5,307.5L396.5,307.5c0,0.6,0,1.2,0,1.8c0,19.8-18.2,35.9-40.6,35.9s-40.6-16.1-40.6-35.9
		c0-0.6,0-1.2,0.1-1.8h-0.1v-37.9h81.2V307.5z"/>
	<path class="st0" d="M290.2,307.5L290.2,307.5c0,0.6,0,1.2,0,1.8c0,19.8-18.2,35.9-40.6,35.9c-22.4,0-40.6-16.1-40.6-35.9
		c0-0.6,0-1.2,0.1-1.8H209v-37.9h81.2V307.5z"/>
	<path class="st0" d="M184.7,307.5L184.7,307.5c0,0.6,0,1.2,0,1.8c0,19.8-18.2,35.9-40.6,35.9s-40.6-16.1-40.6-35.9
		c0-0.6,0-1.2,0.1-1.8h-0.1v-37.9h81.2V307.5z"/>
	<linearGradient id="SVGID_1_" gradientUnits="userSpaceOnUse" x1="164.5571" y1="290.7507" x2="222.1396" y2="132.544">
		<stop  offset="8.108108e-03" style="stop-color:#66B0FF"/>
		<stop  offset="0.5189" style="stop-color:#007BFF"/>
		<stop  offset="0.6023" style="stop-color:#067EFF"/>
		<stop  offset="0.7133" style="stop-color:#1787FF"/>
		<stop  offset="0.8399" style="stop-color:#3395FF"/>
		<stop  offset="0.9772" style="stop-color:#59A9FF"/>
		<stop  offset="1" style="stop-color:#60ADFF"/>
	</linearGradient>
	<polygon class="st1" points="238.5,154.8 103.5,268.5 184.7,268.5 283.2,154.8 	"/>
	<linearGradient id="SVGID_2_" gradientUnits="userSpaceOnUse" x1="262.5802" y1="277.9882" x2="285.9756" y2="145.3065">
		<stop  offset="8.108108e-03" style="stop-color:#66B0FF"/>
		<stop  offset="0.5189" style="stop-color:#007BFF"/>
		<stop  offset="0.6023" style="stop-color:#067EFF"/>
		<stop  offset="0.7133" style="stop-color:#1787FF"/>
		<stop  offset="0.8399" style="stop-color:#3395FF"/>
		<stop  offset="0.9772" style="stop-color:#59A9FF"/>
		<stop  offset="1" style="stop-color:#60ADFF"/>
	</linearGradient>
	<polygon class="st2" points="294.9,154.8 209,268.5 290.2,268.5 339.6,154.8 	"/>
	<linearGradient id="SVGID_3_" gradientUnits="userSpaceOnUse" x1="355.8662" y1="268.5396" x2="355.8662" y2="154.7552">
		<stop  offset="8.108108e-03" style="stop-color:#66B0FF"/>
		<stop  offset="0.5189" style="stop-color:#007BFF"/>
		<stop  offset="0.6023" style="stop-color:#067EFF"/>
		<stop  offset="0.7133" style="stop-color:#1787FF"/>
		<stop  offset="0.8399" style="stop-color:#3395FF"/>
		<stop  offset="0.9772" style="stop-color:#59A9FF"/>
		<stop  offset="1" style="stop-color:#60ADFF"/>
	</linearGradient>
	<polygon class="st3" points="395.7,154.8 351,154.8 315.3,268.5 396.5,268.5 	"/>
</g>
<g id="_x31_">
	<path class="st0" d="M108.2,395.5c-71.9-70-82.6-184.5-21-267.1c35.6-47.7,88.3-75.3,143.3-80.6c-1.8-0.8-3.7-1.6-5.5-2.3
		c-27.4-10.7-56.2-12.6-83.1-7.1c-32,16.3-60.1,39.9-82.2,69.5C21.7,158.8,5.9,221.3,15,284.1c3.4,23.2,10,45.4,19.6,66.1
		c16,18.1,36.5,32.6,60.8,41.4C99.6,393.1,103.9,394.4,108.2,395.5z"/>
	<g>
		<path class="st4" d="M280.7,49.2c32,4.8,63.2,17.3,90.8,38c44.7,33.4,71.8,81.8,79.3,133.1c16,19.2,27.5,41.4,34,65.4
			c3.4-22.8,3.5-46.3,0.1-69.8c-9.1-62.8-42.1-118.3-93-156.2S278.7,5.9,215.9,15c-1,0.1-2,0.3-3,0.5c7.1,1.8,14.2,4,21.2,6.7
			C251.2,28.8,266.8,37.9,280.7,49.2z"/>
		<path class="st0" d="M280.7,49.2c32,4.8,63.2,17.3,90.8,38c44.7,33.4,71.8,81.8,79.3,133.1c16,19.2,27.5,41.4,34,65.4
			c3.4-22.8,3.5-46.3,0.1-69.8c-9.1-62.8-42.1-118.3-93-156.2S278.7,5.9,215.9,15c-1,0.1-2,0.3-3,0.5c7.1,1.8,14.2,4,21.2,6.7
			C251.2,28.8,266.8,37.9,280.7,49.2z"/>
		<path class="st0" d="M284.1,485c62.8-9.1,118.3-42.1,156.2-93c9.4-12.5,17.4-25.8,24-39.6c1.3-9.4,1.8-19,1.3-28.8
			c-1-19.5-5.7-37.9-13.4-54.6c-3.3,35.9-16.3,71.4-39.4,102.4c-62.4,83.5-177.1,105.4-265.1,54c-20.5,0.2-41-3.3-60.9-10.4
			c-4.2-1.5-8.2-3.2-12.2-4.9c10,10.9,21.2,21,33.3,30.1C158.8,478.3,221.3,494.1,284.1,485z"/>
	</g>
</g>
<linearGradient id="SVGID_4_" gradientUnits="userSpaceOnUse" x1="280.7048" y1="167.2448" x2="484.9043" y2="167.2448">
	<stop  offset="0" style="stop-color:#66B0FF"/>
	<stop  offset="1" style="stop-color:#FFFFFF"/>
</linearGradient>
<path class="st5" d="M384,86.5c-48.9-36-102.1-40.4-103.3-37.4c0,0,0,0,0,0c87.6,13.4,157.2,83.3,170.2,171c0.1,0.1-0.1-0.1,0,0
	c28.7,33.6,34,70.1,34,65.4C484.9,281,475.2,153.6,384,86.5z"/>
<linearGradient id="SVGID_5_" gradientUnits="userSpaceOnUse" x1="133.5635" y1="394.922" x2="133.5635" y2="35.4722">
	<stop  offset="0" style="stop-color:#66B0FF"/>
	<stop  offset="1" style="stop-color:#FFFFFF"/>
</linearGradient>
<path class="st6" d="M46.8,250.2c0-105.4,80.3-192,183-202c0.2-0.1,0.4-0.2,0.7-0.3c-11.3-4.9-28.7-10.8-50.5-12.1
	c-15.2-0.9-28.2,0.7-38.1,2.7c-18.5,13-70.3,53.3-93.3,126.8c-6.6,21-24.4,81.1,2,148.7c16,40.9,41.5,67.4,56.9,81.1
	C70,358.1,46.8,306.9,46.8,250.2z"/>
<path class="st7" d="M284,471.9"/>
<linearGradient id="SVGID_6_" gradientUnits="userSpaceOnUse" x1="117.6595" y1="483.7774" x2="459.1477" y2="286.6191">
	<stop  offset="0" style="stop-color:#FFFFFF"/>
	<stop  offset="1" style="stop-color:#66B0FF"/>
</linearGradient>
<path class="st8" d="M250.7,453.5c-37.4,0-72.5-10.1-102.6-27.8c-0.1,0-0.2-0.1-0.4-0.1c-9.8,0.1-22.5-0.6-36.9-3.6
	c-22.2-4.6-35-12-35.3-11.3c-0.7,1.4,55.2,47.1,134.5,57.9c26.4,3.6,81.6,10.4,138.7-20.7c49.9-27.1,73.6-68.2,80-80
	c20.4-37.8,23.5-73.3,23.6-93.1C440.3,375.4,354.6,453.5,250.7,453.5z"/>
</svg>
