<svg width="93" height="94" viewBox="0 0 93 94" fill="none" xmlns="http://www.w3.org/2000/svg">
<path d="M40.3 77C42.9107 74.1668 45.1919 71.0469 47.1 67.7C48.8694 64.509 50.1503 61.0708 50.9 57.5C51.7901 53.8155 51.7557 49.9681 50.8 46.3C49.6478 42.5355 47.0618 39.3748 43.6 37.5C38.8996 35.1555 33.56 34.4178 28.4 35.4C21.9801 36.4621 15.8507 38.8458 10.4 42.4C8.70614 43.4795 7.07052 44.6478 5.5 45.9C5.02649 46.3317 4.68058 46.8852 4.5 47.5L4 51.8C4 52.4 4.2 54.1 5 53.3L5.2 53.2C7.43016 51.0239 9.87611 49.0805 12.5 47.4C16.7423 44.6498 21.5097 42.811 26.5 42C30.5 41.4 34.8 41.6 38.2 43.6C39.5597 44.3153 40.7637 45.2937 41.7422 46.4781C42.7207 47.6626 43.4542 49.0297 43.9 50.5C44.6196 53.3554 44.6196 56.3446 43.9 59.2C43.3025 61.9691 42.2911 64.6323 40.9 67.1C39.4478 69.7218 37.7033 72.1708 35.7 74.4C33.876 76.4467 31.8675 78.3213 29.7 80C27.6857 81.515 25.5444 82.8533 23.3 84C21.7813 84.7741 20.2109 85.4424 18.6 86C18.6 86 16.9 86.8 17.7 87.7C18.7471 88.5399 19.8496 89.3083 21 90C21.5496 90.1892 22.1368 90.2426 22.7114 90.1555C23.2861 90.0685 23.8312 89.8435 24.3 89.5C27.1795 88.0087 29.9232 86.2687 32.5 84.3C35.3153 82.1443 37.9264 79.7342 40.3 77.1V77ZM70.3 5C64.8357 2.23356 58.7728 0.859108 52.6497 0.998666C46.5266 1.13822 40.5326 2.78748 35.2 5.8L34.9 6C33.9 6.6 35.2 6.6 35.2 6.6C44.9 4.7 54.2 3.9 64.9 8.6C77.8 14.6 83.3 28 85.6 38.9C87.9 49.8 86.8 41.6 87.6 38.9C88 24.6 82 11.6 70.4 5" fill="#005DE8"/>
<path d="M61.6 13.6C52.1 8.6 37 10.2 25.6 12.9C24.7193 13.1641 23.9023 13.6066 23.2 14.2C22.0667 15.2 21 16.2333 20 17.3C19.9 17.5 18.8 18.8 20.2 18.5C32.6 15.1 47.7 13.8 56.2 18.5C69 25.2 72.6 37.3 72 50.2C71.3 63 66 75.9 58.5 86.8C51 97.7 58 88.2 59 87.6C61.0238 86.4028 62.9618 85.0662 64.8 83.6C65.6883 82.5775 66.5228 81.5094 67.3 80.4C74.1377 70.2038 78.1096 58.3573 78.8 46.1C79.2 32.5 74.8 20.5 61.7 13.6" fill="#005DE8"/>
<path d="M64.8 53.3C65.7324 48.1684 65.4238 42.8881 63.9 37.9C62.1668 32.8558 58.6446 28.622 54 26C48.1 22.4 40.4 21.6 33.4 22.2C25.9475 22.98 18.6794 25.0083 11.9 28.2L11.8 28.4L10.3 31L10.2 31.3L9.59998 32.5C9.39998 32.9 9.29998 33.8 10.7 33.2C16.7637 30.2198 23.2901 28.2923 30 27.5C36.2 26.8 43 27.5 48.2 30.6C52.3194 32.9943 55.3889 36.849 56.8 41.4C58.0654 45.9624 58.2367 50.759 57.3 55.4C56.4849 59.9779 55.0377 64.4204 53 68.6C50.6908 73.3562 47.8744 77.8489 44.6 82C41.7399 85.642 38.5968 89.0526 35.2 92.2H35L34.3 93C34 93.4 33.8 93.7 34.3 93.8C35.7631 93.9253 37.2327 93.9587 38.7 93.9C39.6824 93.8573 40.6268 93.5076 41.4 92.9C44.8178 89.6714 47.9931 86.1953 50.9 82.5C54.4509 78.0115 57.5022 73.1495 60 68C62.2728 63.3545 63.8562 58.4024 64.7 53.3" fill="#005DE8"/>
<path d="M14 74.1C13.2006 73.8839 12.4525 73.5099 11.8 73C10.895 72.2179 10.2642 71.1666 9.99999 70C9.70662 68.6828 9.70662 67.3172 9.99999 66C10.2291 65.0647 10.5646 64.1588 11 63.3C11.5115 62.344 12.1143 61.4398 12.8 60.6C14.2706 58.673 16.0638 57.0152 18.1 55.7C20.0722 54.4296 22.2848 53.5786 24.6 53.2C26.4713 52.8506 28.4057 53.1319 30.1 54C31.3558 54.6808 32.2907 55.8314 32.7 57.2C33.0261 58.5134 33.0261 59.8866 32.7 61.2C32.4562 62.492 32.0179 63.7395 31.4 64.9C30.6955 66.1227 29.857 67.263 28.9 68.3C28.0476 69.25 27.1104 70.1202 26.1 70.9C25.1583 71.621 24.1543 72.2569 23.1 72.8C22.1391 73.2917 21.1349 73.6934 20.1 74C19.1264 74.3147 18.1197 74.5161 17.1 74.6C16.0847 74.6351 15.0706 74.4999 14.1 74.2L14 74.1ZM24.1 77.2C25.6434 76.3932 27.1154 75.4564 28.5 74.4C30.0219 73.2009 31.4281 71.8617 32.7 70.4C34.0835 68.8734 35.2911 67.1963 36.3 65.4C37.2237 63.7059 37.8973 61.8871 38.3 60C38.8079 57.9984 38.8079 55.9016 38.3 53.9C38.001 52.8811 37.5022 51.932 36.8326 51.1079C36.163 50.2838 35.3361 49.6012 34.4 49.1C31.8616 47.843 28.98 47.4564 26.2 48C22.7388 48.5829 19.436 49.8767 16.5 51.8C13.4696 53.7245 10.7966 56.1607 8.59999 59C7.60975 60.2488 6.73924 61.588 5.99999 63C5.45141 64.1552 5.01605 65.3608 4.69999 66.6L4.49999 67.1C4.01058 69.1715 4.01058 71.3285 4.49999 73.4C4.90115 74.9353 5.73405 76.3235 6.89999 77.4C7.69684 78.0908 8.61138 78.6328 9.59999 79L10.4 79.3C11.8943 79.7244 13.4494 79.8934 15 79.8C16.5301 79.6772 18.0404 79.3752 19.5 78.9C21.0878 78.4497 22.6283 77.8469 24.1 77.1" fill="#005DE8"/>
<path d="M22.1 67.7C22.5876 67.4718 23.0559 67.2043 23.5 66.9C23.9311 66.5324 24.3324 66.1311 24.7 65.7C25.1237 65.2445 25.4929 64.7411 25.8 64.2C26.0729 63.6969 26.2748 63.1585 26.4 62.6C26.5654 61.9775 26.5654 61.3225 26.4 60.7C26.2264 60.1096 25.8326 59.6084 25.3 59.3C24.7465 59.0082 24.125 58.8701 23.5 58.9C23.3002 58.886 23.0997 58.886 22.9 58.9C21.8255 59.0804 20.8024 59.4896 19.9 60.1C19.0138 60.6973 18.236 61.4413 17.6 62.3C17.2949 62.673 17.0269 63.0749 16.8 63.5C16.6209 63.8833 16.4867 64.286 16.4 64.7C16.2549 65.325 16.2549 65.975 16.4 66.6C16.5202 67.0561 16.7621 67.4709 17.1 67.8C17.3875 68.068 17.7282 68.2724 18.1 68.4C18.5568 68.5177 19.0311 68.5516 19.5 68.5C19.9397 68.4846 20.376 68.4175 20.8 68.3C21.2847 68.145 21.7535 67.9441 22.2 67.7" fill="#005DE8"/>
</svg>
