<svg width="32" height="32" viewBox="0 0 32 32" fill="none" xmlns="http://www.w3.org/2000/svg">
<path fill-rule="evenodd" clip-rule="evenodd" d="M15.4714 11.3651L17.4086 21.2794L19.1263 11.3651H23.7629L25.4543 21.2794L27.3909 11.3651H32L28.6183 25.9771H23.4086L21.4451 15.1943L19.4811 25.9771H14.244L10.8629 11.3657H15.472L15.4714 11.3651ZM11.9469 6.28572L11.2646 9.43658H9.98286C8.37371 9.43658 8.01943 9.51829 7.74629 10.6314L7.60971 11.3651H10.8554L10.1731 14.5429H6.92743L4.50114 25.9783H0L2.42743 14.5429H0.409143L1.09143 11.3651H3.08229L3.30057 10.4411C4.00971 6.99201 5.70057 6.28572 9.628 6.28572H11.9469Z" fill="black"/>
</svg>
