<svg xmlns="http://www.w3.org/2000/svg" xmlns:xlink="http://www.w3.org/1999/xlink" width="81pt" height="32pt" viewBox="0 0 81 32" version="1.1">
<g id="surface1">
<path style=" stroke:none;fill-rule:nonzero;fill:rgb(12.156863%,81.176471%,79.607843%);fill-opacity:1;" d="M 12.957031 3 C 5.8125 3 0.0195312 8.820312 0.0195312 16 C 0.0195312 23.179688 5.8125 29 12.957031 29 C 20.101562 29 25.890625 23.179688 25.890625 16 C 25.890625 8.820312 20.101562 3 12.957031 3 Z M 8.238281 18.359375 C 6.945312 18.359375 5.890625 17.300781 5.890625 16 C 5.890625 14.699219 6.945312 13.640625 8.238281 13.640625 C 9.53125 13.640625 10.585938 14.699219 10.585938 16 C 10.585938 17.300781 9.53125 18.359375 8.238281 18.359375 Z M 14.609375 24.78125 C 13.3125 24.78125 12.257812 23.71875 12.257812 22.421875 C 12.257812 21.121094 13.3125 20.058594 14.609375 20.058594 C 15.902344 20.058594 16.957031 21.121094 16.957031 22.421875 C 16.957031 23.71875 15.902344 24.78125 14.609375 24.78125 Z M 14.609375 18.359375 C 13.3125 18.359375 12.257812 17.300781 12.257812 16 C 12.257812 14.699219 13.3125 13.640625 14.609375 13.640625 C 15.902344 13.640625 16.957031 14.699219 16.957031 16 C 16.957031 17.300781 15.902344 18.359375 14.609375 18.359375 Z M 14.609375 11.941406 C 13.3125 11.941406 12.257812 10.878906 12.257812 9.578125 C 12.257812 8.28125 13.3125 7.21875 14.609375 7.21875 C 15.902344 7.21875 16.957031 8.28125 16.957031 9.578125 C 16.957031 10.878906 15.902344 11.941406 14.609375 11.941406 Z M 14.609375 11.941406 "/>
</g>
</svg>
