<svg width="52" height="52" viewBox="0 0 52 52" fill="none" xmlns="http://www.w3.org/2000/svg">
<g clip-path="url(#clip0)">
<path fill-rule="evenodd" clip-rule="evenodd" d="M38.1978 47.0796C38.1978 47.0796 35.7847 45.6938 35.5011 45.5307L6.88869 29.0026C6.32883 28.681 6 28.0843 6 27.4387V3.1V0C6 0 8.41022 1.37591 8.6646 1.5146C9.2219 1.82044 9.59672 2.41569 9.59672 3.1V26.396L37.3022 42.4036C37.8901 42.7416 38.2153 43.3609 38.2062 43.9945C38.2018 44.2912 38.1978 47.0796 38.1978 47.0796Z" fill="#53275E"/>
<path fill-rule="evenodd" clip-rule="evenodd" d="M45.3894 51.2204C45.3894 51.2204 42.9416 49.8128 42.6755 49.6573C42.1416 49.3445 41.7843 48.7635 41.7843 48.0985V24.7682L16.7599 10.3047L16.7613 23.3204C16.7613 24.3164 16.7507 26.4036 16.7507 26.4036C16.7507 26.4036 14.3456 25.0029 14.0796 24.854C13.5412 24.5533 13.1788 23.9887 13.1785 23.3219V7.22298C13.1781 6.57808 13.5197 5.99195 14.0781 5.66969C14.6369 5.34706 15.3248 5.3529 15.8828 5.67589L44.4887 22.196C45.0456 22.5182 45.381 23.1157 45.381 23.7591V48.0985C45.381 49.0941 45.3894 51.2204 45.3894 51.2204Z" fill="#53275E"/>
<path fill-rule="evenodd" clip-rule="evenodd" d="M23.911 30.5446C23.911 30.5446 21.4573 29.126 21.1814 28.9544C20.6719 28.6358 20.3344 28.069 20.3344 27.4227V19.6062C20.3344 18.6103 20.3365 16.5132 20.3365 16.5132C20.3365 16.5132 22.7727 17.8913 23.038 18.0464C23.573 18.3588 23.9311 18.9406 23.9311 19.6059V27.4223C23.9311 28.4179 23.911 30.5446 23.911 30.5446Z" fill="#53275E"/>
<path fill-rule="evenodd" clip-rule="evenodd" d="M31.0821 34.6894C31.0821 34.6894 28.6401 33.2744 28.3697 33.112C27.846 32.7971 27.4971 32.2219 27.4971 31.5646V23.7481C27.4971 22.7522 27.493 20.6354 27.493 20.6354C27.493 20.6354 29.9168 22.0281 30.177 22.1752C30.7252 22.4843 31.0938 23.073 31.0938 23.7485V31.5649C31.0938 32.5609 31.0821 34.6894 31.0821 34.6894Z" fill="#53275E"/>
<path fill-rule="evenodd" clip-rule="evenodd" d="M38.2295 38.819C38.2295 38.819 35.7919 37.4084 35.5266 37.2536C34.9908 36.9416 34.6324 36.3598 34.6324 35.6934V27.8774C34.6324 26.881 34.6288 24.7489 34.6288 24.7489C34.6288 24.7489 37.0346 26.1526 37.2894 26.2916C37.85 26.5967 38.2288 27.1927 38.2288 27.8777V35.6938C38.2288 36.6898 38.2295 38.819 38.2295 38.819Z" fill="#53275E"/>
</g>
<defs>
<clipPath id="clip0">
<rect width="51.22" height="51.22" fill="white"/>
</clipPath>
</defs>
</svg>
