<svg width="230" height="230" viewBox="0 0 230 230" fill="none" xmlns="http://www.w3.org/2000/svg">
<path d="M219.999 41.333L137.083 3L36.25 49.249L0 141.333L72.083 214.25L190.416 163.833L219.999 41.333Z" fill="#DF0030"/>
<path d="M202.501 179.665L230 66.333L219.999 41.333L190.416 163.833L72.083 214.25L91.25 227.584L202.501 179.665Z" fill="#A40133"/>
<path d="M7.08203 137.109C7.08203 137.109 36.667 60.0239 38.332 56.6889C39.997 53.3589 42.082 51.2739 47.082 48.7749C52.082 46.2749 119.999 15.8599 125.832 13.3599C131.664 10.8599 134.164 7.52492 142.914 11.2749C151.664 15.0249 214.164 43.9849 214.164 43.9849L211.249 57.5869C211.251 57.5859 122.083 25.0849 7.08203 137.109Z" fill="url(#paint0_linear_14:300)"/>
<defs>
<linearGradient id="paint0_linear_14:300" x1="7.08293" y1="73.3505" x2="214.166" y2="73.3505" gradientUnits="userSpaceOnUse">
<stop stop-color="#F3A79F"/>
<stop offset="1" stop-color="#E2001A"/>
</linearGradient>
</defs>
</svg>
