<?xml version="1.0" encoding="UTF-8" standalone="no"?>
<!-- Created with Inkscape (http://www.inkscape.org/) -->

<svg
   xmlns:dc="http://purl.org/dc/elements/1.1/"
   xmlns:cc="http://creativecommons.org/ns#"
   xmlns:rdf="http://www.w3.org/1999/02/22-rdf-syntax-ns#"
   xmlns:svg="http://www.w3.org/2000/svg"
   xmlns="http://www.w3.org/2000/svg"
   xmlns:sodipodi="http://sodipodi.sourceforge.net/DTD/sodipodi-0.dtd"
   xmlns:inkscape="http://www.inkscape.org/namespaces/inkscape"
   width="10.119996mm"
   height="10.131281mm"
   viewBox="0 0 10.119996 10.131281"
   version="1.1"
   id="svg4155"
   inkscape:version="0.92.1 15371"
   sodipodi:docname="freespee.svg">
  <defs
     id="defs4149" />
  <sodipodi:namedview
     id="base"
     pagecolor="#ffffff"
     bordercolor="#666666"
     borderopacity="1.0"
     inkscape:pageopacity="0.0"
     inkscape:pageshadow="2"
     inkscape:zoom="5.6"
     inkscape:cx="-2.223803"
     inkscape:cy="20.730676"
     inkscape:document-units="mm"
     inkscape:current-layer="layer1"
     showgrid="false"
     inkscape:window-width="2495"
     inkscape:window-height="1416"
     inkscape:window-x="65"
     inkscape:window-y="24"
     inkscape:window-maximized="1" />
  <metadata
     id="metadata4152">
    <rdf:RDF>
      <cc:Work
         rdf:about="">
        <dc:format>image/svg+xml</dc:format>
        <dc:type
           rdf:resource="http://purl.org/dc/dcmitype/StillImage" />
        <dc:title></dc:title>
      </cc:Work>
    </rdf:RDF>
  </metadata>
  <g
     inkscape:label="Capa 1"
     inkscape:groupmode="layer"
     id="layer1"
     transform="translate(-96.2373,-134.75365)">
    <path
       inkscape:connector-curvature="0"
       style="fill:#41a4ff;fill-opacity:1;stroke-width:0.26458332"
       d="m 106.35057,140.41454 c -0.0529,-0.37042 -0.39687,-0.66146 -0.79375,-0.60854 l -1.66687,0.21166 1.79916,-1.71979 c 0.26459,-0.26458 0.29105,-0.71437 0.0265,-0.97896 -0.26458,-0.26458 -0.71437,-0.29104 -0.97896,-0.0264 l -1.21708,1.16416 0.44979,-2.46062 c 0.0794,-0.37042 -0.18521,-0.74084 -0.55562,-0.82021 v 0 c -0.37042,-0.0794 -0.74084,0.18521 -0.82021,0.55562 l -0.29104,1.64042 -1.05834,-2.2225 c -0.15875,-0.34396 -0.58208,-0.50271 -0.92604,-0.3175 -0.34396,0.15875 -0.50271,0.58208 -0.3175,0.92604 l 0.71438,1.50813 -2.196037,-1.19063 c -0.34396,-0.18521 -0.7673,-0.0794 -0.9525,0.26459 -0.18521,0.34395 -0.0529,0.76729 0.29104,0.9525 l 1.481657,0.79375 -2.487077,0.3175 c -0.37042,0.0529 -0.66146,0.39687 -0.60854,0.79375 0.0529,0.37041 0.39687,0.66145 0.79375,0.60854 l 1.66687,-0.21167 -1.79916,1.71979 c -0.26459,0.26459 -0.29104,0.71438 -0.0265,0.97896 0.26458,0.26458 0.71437,0.29104 0.97896,0.0265 l 1.21708,-1.16417 -0.47625,2.46063 c -0.0794,0.37041 0.18521,0.74083 0.55563,0.82021 0.370407,0.0794 0.740827,-0.18521 0.820197,-0.55563 l 0.29105,-1.64042 1.08479,2.24896 c 0.15875,0.34396 0.58208,0.50271 0.92604,0.3175 v 0 c 0.34396,-0.15875 0.50271,-0.58208 0.3175,-0.92604 l -0.71438,-1.50812 2.19605,1.19062 c 0.34395,0.18521 0.76729,0.0529 0.9525,-0.29104 0.1852,-0.34396 0.0529,-0.76729 -0.29105,-0.9525 l -1.48166,-0.79375 2.48708,-0.3175 c 0.39688,-0.0529 0.66146,-0.42333 0.60854,-0.79375 z m -5.05354,0.52917 c -0.635,0 -1.13771,-0.50271 -1.13771,-1.13771 0,-0.635 0.50271,-1.13771 1.13771,-1.13771 0.635,0 1.13771,0.50271 1.13771,1.13771 0,0.635 -0.50271,1.13771 -1.13771,1.13771 z"
       id="path4120" />
  </g>
</svg>
