<svg width="32" height="32" viewBox="0 0 32 32" fill="none" xmlns="http://www.w3.org/2000/svg">
<path d="M15.5833 30.9953C7.11521 30.9953 0.250001 24.1307 0.250001 15.6625C0.250001 7.19429 7.11521 0.328704 15.5833 0.328704H27.0837C29.2011 0.328704 30.9166 2.04555 30.9166 4.1626V15.6625C30.9166 24.1307 24.0514 30.9953 15.5833 30.9953Z" fill="#7052CC"/>
<path fill-rule="evenodd" clip-rule="evenodd" d="M15.5597 14.0331C17.2269 14.0331 18.5779 12.6823 18.5779 11.0149C18.5779 9.34752 17.2269 7.9958 15.5597 7.9958C13.8916 7.9958 12.5406 9.34752 12.5406 11.0149C12.5406 12.6823 13.8916 14.0331 15.5597 14.0331ZM22.2353 19.4782C20.9115 21.7796 18.4288 23.33 15.5832 23.33C12.7534 23.33 10.2804 21.7966 8.95399 19.515C10.276 17.2127 12.7588 15.664 15.6034 15.664C18.434 15.664 20.9062 17.1974 22.2353 19.4782Z" fill="white"/>
</svg>
