<svg width="32" height="32" viewBox="0 0 32 32" fill="none" xmlns="http://www.w3.org/2000/svg">
<path d="M15.9531 32C7.13196 32 0 24.8471 0 16C0 7.15294 7.13196 0 15.9531 0H27.9648C30.217 0 32 1.78824 32 4.04706V16C32 24.8471 24.868 32 15.9531 32Z" fill="#45A4EC"/>
<path d="M20.9882 9.41177H12.9882C10.7294 9.41177 8.94116 11.2 8.94116 13.4588V20.3294C8.94116 20.8 9.31763 21.1765 9.78822 21.1765H20.8941C23.1529 21.1765 24.9412 19.3882 24.9412 17.1294V13.4588C24.9412 11.2 23.1529 9.41177 20.9882 9.41177ZM18.0706 17.9765H12.2353C11.7647 17.9765 11.4823 17.6 11.4823 17.2235C11.4823 16.8471 11.8588 16.4706 12.2353 16.4706H18.0706C18.5412 16.4706 18.8235 16.8471 18.8235 17.2235C18.8235 17.6 18.5412 17.9765 18.0706 17.9765ZM21.647 14.2118H12.2353C11.7647 14.2118 11.4823 13.8353 11.4823 13.4588C11.4823 12.9882 11.8588 12.7059 12.2353 12.7059H21.647C22.1176 12.7059 22.4 13.0824 22.4 13.4588C22.4 13.8353 22.0235 14.2118 21.647 14.2118Z" fill="white"/>
</svg>
