<svg width="32" height="32" viewBox="0 0 32 32" fill="none" xmlns="http://www.w3.org/2000/svg">
<path d="M15.5886 31.0857C11.4663 31.0857 7.51296 29.4482 4.59811 26.5333C1.68326 23.6185 0.0457143 19.6651 0.0457143 15.5429H0C0.012101 11.4164 1.6598 7.46316 4.58192 4.54961C7.50403 1.63607 11.4621 -1.77433e-05 15.5886 1.4432e-10H27.2823C28.3161 0.00242113 29.3068 0.414803 30.0369 1.14668C30.7671 1.87856 31.1771 2.87018 31.1771 3.904V15.4971C31.1832 17.546 30.7841 19.5757 30.0028 21.4698C29.2216 23.3638 28.0735 25.0846 26.6248 26.5334C25.1761 27.9821 23.4552 29.1301 21.5612 29.9114C19.6672 30.6927 17.6374 31.0917 15.5886 31.0857Z" fill="#FFA800"/>
<path d="M15.5703 22.9394C16.5751 22.9394 17.3897 22.1248 17.3897 21.12C17.3897 20.1152 16.5751 19.3006 15.5703 19.3006C14.5654 19.3006 13.7509 20.1152 13.7509 21.12C13.7509 22.1248 14.5654 22.9394 15.5703 22.9394Z" fill="white"/>
<path d="M15.5428 8.13713C13.5931 8.15643 11.7301 8.94576 10.3599 10.333C8.98976 11.7203 8.22363 13.593 8.22855 15.5428C8.22512 16.6431 8.46997 17.73 8.94487 18.7226C9.41977 19.7151 10.1125 20.5877 10.9714 21.2754C10.9714 21.2206 10.9714 21.1748 10.9714 21.12C10.9747 20.4575 11.122 19.8037 11.403 19.2039C11.684 18.604 12.092 18.0723 12.5988 17.6457C12.1445 17.0379 11.8948 16.3016 11.8857 15.5428C11.8834 14.9654 12.018 14.3956 12.2782 13.8801C12.5385 13.3646 12.9172 12.9181 13.3833 12.5771C13.8493 12.2361 14.3895 12.0103 14.9596 11.9182C15.5297 11.8261 16.1135 11.8703 16.6632 12.0472C17.2129 12.2241 17.7129 12.5287 18.1223 12.936C18.5316 13.3433 18.8387 13.8418 19.0184 14.3906C19.1981 14.9394 19.2453 15.523 19.156 16.0935C19.0668 16.6641 18.8438 17.2054 18.5051 17.6731C19.0051 18.0985 19.4076 18.6265 19.6852 19.2212C19.9629 19.816 20.1092 20.4636 20.1143 21.12C20.1143 21.1748 20.1143 21.2206 20.1143 21.2754C21.3441 20.3417 22.2469 19.0427 22.6933 17.5644C23.1397 16.0862 23.1068 14.5047 22.5994 13.0463C22.092 11.5879 21.136 10.3275 19.8684 9.44566C18.6008 8.56382 17.0867 8.10578 15.5428 8.13713Z" fill="white"/>
</svg>
