<svg width="32" height="32" viewBox="0 0 32 32" fill="none" xmlns="http://www.w3.org/2000/svg">
<path d="M13.44 4.27136C13.44 3.6731 13.12 3.33919 12.5496 3.33919H10.8522V0.834839H13.7183C15.4574 0.834839 16.1809 1.60006 16.1809 3.42266V11.1583C16.1809 12.1322 16.0974 12.8974 16.0974 12.8974H16.1809C16.1809 12.8974 17.8783 8.82093 23.0678 8.82093C28.5078 8.82093 31.8887 13.4122 31.8887 20.0348C31.8887 26.7827 28.0626 31.207 22.7339 31.207C17.8922 31.207 16.0835 27.0888 16.0835 27.0888H16C16 27.0888 16.0835 27.8122 16.0835 28.8279V30.6922H13.4261L13.44 4.27136ZM22.5391 28.6609C26.1287 28.6609 29.0643 25.4748 29.0643 20.0348C29.0643 14.8035 26.407 11.4505 22.6504 11.4505C19.2696 11.4505 16.0835 13.9966 16.0835 20.0766C16.0974 24.3618 18.1983 28.6609 22.5391 28.6609Z" fill="black"/>
<path d="M2.67133 11.9653H0.13916V9.5444H2.68525V8.77919C2.68525 1.72527 7.40177 0.834839 9.65568 0.834839C10.4209 0.834839 10.9079 0.918317 10.9079 0.918317V3.50614C10.9079 3.50614 10.5461 3.42266 9.93394 3.42266C8.40351 3.42266 5.42612 4.02093 5.42612 8.77919V9.5444H10.5879V11.9653H5.4122V30.9148H2.67133V11.9653Z" fill="black"/>
</svg>
