<svg width="32" height="32" viewBox="0 0 32 32" fill="none" xmlns="http://www.w3.org/2000/svg">
<rect width="32" height="32" fill="#0098F7"/>
<mask id="mask0_3310_195" style="mask-type:alpha" maskUnits="userSpaceOnUse" x="9" y="3" width="15" height="26">
<rect x="9.98242" y="3.52759" width="14.0177" height="24.9449" fill="black"/>
</mask>
<g mask="url(#mask0_3310_195)">
<path d="M23.6226 5.37196C23.453 5.17376 23.2419 5.01518 23.0042 4.90743C22.7666 4.79968 22.5083 4.74538 22.2474 4.74834H11.8147C10.8213 4.74834 9.98242 5.60265 9.98242 6.61369V10.8521C9.98242 11.3337 10.1737 11.7955 10.5142 12.136C10.8547 12.4765 11.3166 12.6678 11.7981 12.6678C12.2796 12.6678 12.7415 12.4765 13.082 12.136C13.4225 11.7955 13.6138 11.3337 13.6138 10.8521V8.18544H22.2783C22.6855 8.18708 23.0802 8.0446 23.3925 7.78321C23.7048 7.52181 23.9146 7.15836 23.9847 6.75718C24.0307 6.51388 24.0221 6.2634 23.9595 6.02383C23.8969 5.78427 23.7818 5.56161 23.6226 5.37196ZM21.4107 15.4548C21.2464 15.2861 21.0501 15.1519 20.8333 15.06C20.6165 14.968 20.3835 14.9203 20.148 14.9194H11.7253C11.2632 14.92 10.8202 15.1038 10.4935 15.4306C10.1668 15.7573 9.98301 16.2002 9.98242 16.6623V26.4515C9.98346 26.6963 10.0327 26.9385 10.1274 27.1642C10.2221 27.39 10.3604 27.5949 10.5343 27.7672C10.6986 27.9319 10.8939 28.0625 11.1089 28.1516C11.3239 28.2406 11.5544 28.2863 11.7871 28.2859H11.8058C12.0453 28.2854 12.2823 28.2374 12.5031 28.1449C12.724 28.0523 12.9244 27.917 13.0927 27.7467C13.2611 27.5764 13.3941 27.3745 13.4841 27.1526C13.5741 26.9307 13.6193 26.6932 13.6171 26.4537V18.3521H20.1624C20.6135 18.3537 21.0472 18.1783 21.3704 17.8635C21.6936 17.5488 21.8804 17.1199 21.8908 16.6689C21.8966 16.4446 21.8571 16.2215 21.7746 16.0129C21.6921 15.8042 21.5683 15.6144 21.4107 15.4548ZM35.7043 12.6038C35.1205 11.9172 33.9383 11.7737 33.0399 11.7737C31.1988 11.7737 29.8699 12.6247 29.0112 14.3643V13.7384C29.0112 13.2657 28.8234 12.8123 28.4891 12.478C28.1548 12.1437 27.7014 11.9559 27.2286 11.9559C26.7558 11.9559 26.3024 12.1437 25.9681 12.478C25.6338 12.8123 25.446 13.2657 25.446 13.7384V26.4868C25.446 26.9596 25.6338 27.413 25.9681 27.7473C26.3024 28.0816 26.7558 28.2694 27.2286 28.2694C27.7014 28.2694 28.1548 28.0816 28.4891 27.7473C28.8234 27.413 29.0112 26.9596 29.0112 26.4868V22.2153C29.0112 20.1082 29.3975 15.2064 32.9737 15.2064C33.193 15.2018 33.4124 15.2117 33.6304 15.2362H33.6436C35.0553 15.3687 35.8578 14.9349 36.0277 13.9459C36.1116 13.4106 36.0013 12.9592 35.7043 12.6038ZM51.0234 14.0199C49.4858 12.5729 47.392 11.776 45.126 11.776C42.86 11.776 40.7739 12.5729 39.2452 14.0199C37.626 15.5497 36.7739 17.6402 36.7739 20.0618C36.7739 22.4548 37.6569 24.6182 39.2463 26.1546C40.7827 27.6347 42.8721 28.4504 45.1293 28.4504C47.3865 28.4504 49.4825 27.6358 51.0278 26.1557C52.6338 24.617 53.5179 22.4537 53.5179 20.0618C53.5179 17.67 52.6293 15.5287 51.0234 14.0199ZM49.9494 20.0652C49.9494 22.9173 47.9207 24.9879 45.126 24.9879C42.3313 24.9879 40.3059 22.9151 40.3059 20.0618C40.3059 17.2859 42.3346 15.2715 45.1293 15.2715C47.924 15.2715 49.9494 17.2859 49.9494 20.0618V20.0652ZM70.9903 11.9382C70.5177 11.9432 70.0664 12.1354 69.7353 12.4726C69.4043 12.8099 69.2205 13.2647 69.2243 13.7373V13.8477C68.0885 12.564 66.1625 11.7682 64.0698 11.7682C61.881 11.7682 59.8545 12.5673 58.3645 14.0199C56.7828 15.5651 55.9461 17.6623 55.9461 20.0905C55.9461 22.4758 56.8048 24.6336 58.3633 26.1612C59.86 27.6325 61.8865 28.4427 64.0698 28.4427C66.1481 28.4427 68.0753 27.6248 69.2243 26.3047V26.478C69.2243 26.9507 69.4121 27.4041 69.7464 27.7384C70.0807 28.0727 70.5341 28.2605 71.0069 28.2605C71.4796 28.2605 71.933 28.0727 72.2673 27.7384C72.6016 27.4041 72.7894 26.9507 72.7894 26.478V13.7373C72.7888 13.2604 72.5991 12.8031 72.2618 12.4658C71.9246 12.1285 71.4673 11.9388 70.9903 11.9382ZM69.1912 20.0618C69.1912 23.4217 66.6735 24.9515 64.3347 24.9515C61.6227 24.9515 59.5775 22.8544 59.5775 20.0618C59.5775 17.2693 61.5786 15.2715 64.3347 15.2715C66.6857 15.2715 69.1879 16.9504 69.1879 20.0618H69.1912ZM78.8016 3.52759C78.329 3.53254 77.8777 3.72474 77.5466 4.06201C77.2155 4.39929 77.0318 4.85411 77.0356 5.32671V26.4857C77.0356 26.9585 77.2234 27.4119 77.5577 27.7462C77.892 28.0805 78.3454 28.2683 78.8181 28.2683C79.2909 28.2683 79.7443 28.0805 80.0786 27.7462C80.4129 27.4119 80.6007 26.9585 80.6007 26.4857V5.32671C80.6001 4.84973 80.4104 4.39246 80.0731 4.05518C79.7358 3.71791 79.2786 3.52817 78.8016 3.52759ZM99.0003 11.9382C98.5277 11.9432 98.0764 12.1354 97.7453 12.4726C97.4143 12.8099 97.2305 13.2647 97.2343 13.7373V13.8477C96.0985 12.564 94.1725 11.7682 92.0798 11.7682C89.891 11.7682 87.8645 12.5673 86.3745 14.0199C84.7928 15.5651 83.9561 17.6623 83.9561 20.0905C83.9561 22.4758 84.8149 24.6336 86.3734 26.1612C87.87 27.6325 89.8965 28.4427 92.0798 28.4427C94.1581 28.4427 96.0853 27.6248 97.2343 26.3047V26.478C97.2343 26.9507 97.4221 27.4041 97.7564 27.7384C98.0907 28.0727 98.5441 28.2605 99.0169 28.2605C99.4896 28.2605 99.943 28.0727 100.277 27.7384C100.612 27.4041 100.799 26.9507 100.799 26.478V13.7373C100.799 13.2604 100.609 12.8031 100.272 12.4658C99.9346 12.1285 99.4773 11.9388 99.0003 11.9382ZM97.2012 20.0618C97.2012 23.4217 94.6835 24.9515 92.3447 24.9515C89.6327 24.9515 87.5875 22.8544 87.5875 20.0618C87.5875 17.2693 89.5886 15.2715 92.3447 15.2715C94.699 15.2715 97.2012 16.9504 97.2012 20.0618Z" fill="white"/>
</g>
</svg>
