<svg width="32" height="32" viewBox="0 0 32 32" fill="none" xmlns="http://www.w3.org/2000/svg">
<path d="M30.5209 20.6128L27.2428 18.7197C27.0985 18.6354 26.9786 18.5151 26.8949 18.3704C26.8111 18.2258 26.7664 18.0619 26.7652 17.8948V14.1087C26.7652 13.7215 26.6633 13.3411 26.4697 13.0057C26.2761 12.6704 25.9977 12.3919 25.6623 12.1983L22.3929 10.3052C22.2489 10.2206 22.1293 10.1002 22.0456 9.95561C21.9619 9.81105 21.917 9.64731 21.9153 9.48029V5.69419C21.9174 5.30262 21.8157 4.9175 21.6204 4.57808C21.4252 4.23866 21.1434 3.95709 20.8038 3.76207L16.4186 1.23077L12.0376 3.76207C11.7022 3.95672 11.4239 4.23603 11.2303 4.57206C11.0368 4.90809 10.9349 5.28905 10.9348 5.67683V9.46292C10.934 9.62961 10.8899 9.79324 10.807 9.93783C10.724 10.0824 10.605 10.203 10.4615 10.2879L7.19647 12.1983C6.86142 12.3922 6.5832 12.6708 6.38966 13.0061C6.19611 13.3413 6.09403 13.7216 6.09364 14.1087V17.8948C6.09325 18.0616 6.04939 18.2254 5.9664 18.37C5.88341 18.5147 5.76415 18.6352 5.62038 18.7197L2.33794 20.6128C2.00297 20.8072 1.72459 21.0857 1.53039 21.4208C1.3362 21.7559 1.23291 22.1359 1.23077 22.5232V27.5815L5.61604 30.1084C5.95119 30.3024 6.3316 30.4046 6.71887 30.4046C7.10613 30.4046 7.48654 30.3024 7.82169 30.1084L11.1041 28.2154C11.2488 28.1323 11.4127 28.0886 11.5796 28.0886C11.7464 28.0886 11.9103 28.1323 12.055 28.2154L15.3331 30.1084C15.6698 30.3003 16.0506 30.4012 16.4381 30.4012C16.8256 30.4012 17.2064 30.3003 17.5431 30.1084L20.8212 28.2154C20.9659 28.1323 21.1298 28.0886 21.2966 28.0886C21.4634 28.0886 21.6274 28.1323 21.7721 28.2154L25.0501 30.1084C25.3861 30.3024 25.7672 30.4045 26.1551 30.4045C26.5431 30.4045 26.9242 30.3024 27.2601 30.1084L31.6411 27.5815V22.5232C31.6389 22.1344 31.5342 21.753 31.3375 21.4176C31.1409 21.0821 30.8592 20.8045 30.5209 20.6128V20.6128ZM20.6562 5.69419V9.48029C20.6566 9.86742 20.7587 10.2477 20.9522 10.5829C21.1458 10.9182 21.424 11.1968 21.759 11.3907L25.0415 13.2837C25.1858 13.3676 25.3056 13.488 25.3886 13.6328C25.4717 13.7776 25.5152 13.9417 25.5147 14.1087V17.8948C25.5117 18.2855 25.6122 18.6701 25.8059 19.0094C25.9996 19.3487 26.2796 19.6308 26.6176 19.8269L29.9 21.7243C30.0443 21.8071 30.1641 21.9267 30.2473 22.0708C30.3304 22.2149 30.3739 22.3785 30.3733 22.5449V26.1573L17.0481 18.4462V3.06303L20.1743 4.86924C20.3208 4.9513 20.4428 5.07105 20.5275 5.2161C20.6123 5.36115 20.6567 5.52621 20.6562 5.69419V5.69419ZM2.9458 21.7026L6.22824 19.8269C6.56358 19.6333 6.84204 19.3548 7.03563 19.0195C7.22922 18.6841 7.33111 18.3037 7.33107 17.9165V14.1087C7.33146 13.9419 7.37531 13.7781 7.4583 13.6335C7.54129 13.4888 7.66055 13.3683 7.80433 13.2837L11.1041 11.3907C11.4392 11.1968 11.7174 10.9182 11.9109 10.5829C12.1045 10.2477 12.2066 9.86742 12.207 9.48029V5.69419C12.2074 5.52742 12.2512 5.36362 12.3342 5.21896C12.4172 5.0743 12.5364 4.95376 12.6802 4.86924L15.815 3.06303V18.4462L2.47254 26.1356V22.5232C2.47282 22.357 2.51666 22.1937 2.5997 22.0498C2.68274 21.9058 2.80207 21.7861 2.9458 21.7026V21.7026ZM26.6132 29.0316C26.4685 29.1147 26.3046 29.1584 26.1378 29.1584C25.971 29.1584 25.807 29.1147 25.6623 29.0316L22.3929 27.1342C22.0563 26.9424 21.6754 26.8415 21.2879 26.8415C20.9004 26.8415 20.5196 26.9424 20.1829 27.1342L16.9048 29.0316C16.7601 29.1147 16.5962 29.1584 16.4294 29.1584C16.2626 29.1584 16.0987 29.1147 15.954 29.0316L12.6672 27.1342C12.3305 26.9424 11.9497 26.8415 11.5622 26.8415C11.1747 26.8415 10.7939 26.9424 10.4572 27.1342L7.19647 29.0316C7.05178 29.1147 6.88786 29.1584 6.72104 29.1584C6.55421 29.1584 6.3903 29.1147 6.2456 29.0316L3.10211 27.2081L16.4186 19.523L29.7393 27.2081L26.6132 29.0316Z" fill="#2D3232"/>
</svg>
