<svg width="32" height="32" viewBox="0 0 32 32" fill="none" xmlns="http://www.w3.org/2000/svg">
<path d="M16 15.5405C17.7243 15.5405 19.1276 14.1378 19.1276 12.4134C19.1276 10.6891 17.7243 9.28638 16 9.28638C14.2751 9.28638 12.8724 10.6891 12.8724 12.4134C12.8724 14.1378 14.2751 15.5405 16 15.5405" fill="#58BEDF"/>
<path d="M22.4225 24.4602H9.57807C9.35532 24.4602 9.17541 24.2746 9.18626 24.0524C9.23367 23.1077 9.44613 22.1853 9.80481 21.3246C9.86649 21.1772 10.0093 21.0807 10.1681 21.0807H17.9293C19.0202 21.0807 19.9049 20.1965 19.9049 19.1056V18.9109C19.9049 18.6344 20.239 18.4962 20.4344 18.6916C21.1311 19.3889 21.688 20.2005 22.0884 21.0807C22.5116 22.0105 22.7612 23.018 22.8137 24.0524C22.8246 24.2746 22.6447 24.4602 22.4219 24.4602H22.4225ZM16 6.22386C19.4126 6.22386 22.19 9.0008 22.19 12.414C22.19 15.8272 19.4126 18.6042 16 18.6042C12.5863 18.6042 9.80995 15.8272 9.80995 12.414C9.80995 9.0008 12.5863 6.22386 16 6.22386V6.22386ZM16 0C7.16328 0 0 7.1634 0 16.0003C0 24.8366 7.16328 32 16 32C24.8367 32 32 24.8366 32 16.0003C32 7.1634 24.8367 0 16 0" fill="#58BEDF"/>
</svg>
