<svg width="32" height="32" viewBox="0 0 32 32" fill="none" xmlns="http://www.w3.org/2000/svg">
<path d="M15.356 15.1733H9.10668V31.724H4.54668V15.172H1.33334V11.356H4.54668V7.54C4.54668 2.48267 7.33867 0 11.668 0C13.2973 0 14.5547 0.32 15.7187 1.012V5.196C14.6014 4.45867 13.5773 4.04533 12.18 4.04533C10.2253 4.04533 9.10801 5.012 9.10801 7.49467V11.3547H15.356V15.1733Z" fill="black"/>
<path d="M22.6573 31.9533C20.236 31.9533 17.816 31.3106 16.2787 30.3V25.9773C18.188 27.4026 20.4693 28.276 22.564 28.276C24.612 28.276 25.9627 27.5866 25.9627 25.9773C25.9627 24.3226 24.752 23.724 22.0987 23.0346C17.816 22.0693 16 20.368 16 16.828C16 12.6906 19.1653 10.6666 23.356 10.6666C25.6827 10.6666 27.5453 11.1733 29.268 12.2306V16.4146C27.452 15.1266 25.6827 14.3453 23.4947 14.3453C21.4933 14.3453 20.4227 15.3106 20.4227 16.644C20.4227 17.9773 21.308 18.6666 23.6813 19.3106C28.384 20.3213 30.4307 22.0693 30.4307 25.748C30.4307 30.024 27.1267 31.9533 22.6573 31.9533Z" fill="black"/>
<path d="M22.6573 31.9533C20.236 31.9533 17.816 31.3106 16.2787 30.3V25.9773C18.188 27.4026 20.4693 28.276 22.564 28.276C24.612 28.276 25.9627 27.5866 25.9627 25.9773C25.9627 24.3226 24.752 23.724 22.0987 23.0346C17.816 22.0693 16 20.368 16 16.828C16 12.6906 19.1653 10.6666 23.356 10.6666C25.6827 10.6666 27.5453 11.1733 29.268 12.2306V16.4146C27.452 15.1266 25.6827 14.3453 23.4947 14.3453C21.4933 14.3453 20.4227 15.3106 20.4227 16.644C20.4227 17.9773 21.308 18.6666 23.6813 19.3106C28.384 20.3213 30.4307 22.0693 30.4307 25.748C30.4307 30.024 27.1267 31.9533 22.6573 31.9533Z" fill="black"/>
</svg>
