<svg width="32" height="32" viewBox="0 0 32 32" fill="none" xmlns="http://www.w3.org/2000/svg">
<g clip-path="url(#clip0_3242_34)">
<path d="M24.3809 0.380951H7.61905C3.62156 0.380951 0.380951 3.62156 0.380951 7.61905V24.3809C0.380951 28.3784 3.62156 31.619 7.61905 31.619H24.3809C28.3784 31.619 31.619 28.3784 31.619 24.3809V7.61905C31.619 3.62156 28.3784 0.380951 24.3809 0.380951Z" fill="#24C3FD" stroke="white" stroke-width="3"/>
<path fill-rule="evenodd" clip-rule="evenodd" d="M10.7245 21.5846C11.3286 21.5846 11.9079 21.8255 12.3351 22.2545C12.7622 22.6834 13.0022 23.2651 13.0022 23.8717C13.0022 24.4782 12.7622 25.06 12.3351 25.4888C11.9079 25.9177 11.3286 26.1587 10.7245 26.1587H7.62972C7.02564 26.1587 6.44628 25.9177 6.01911 25.4888C5.59196 25.06 5.35196 24.4782 5.35196 23.8717C5.35196 23.2651 5.59196 22.6834 6.01911 22.2545C6.44628 21.8255 7.02564 21.5846 7.62972 21.5846H10.7245Z" fill="white"/>
<path fill-rule="evenodd" clip-rule="evenodd" d="M7.60477 13.7165H18.0093C18.5962 13.7254 19.1569 13.9614 19.5747 14.3753C19.9926 14.7891 20.2351 15.3489 20.2519 15.938C20.2686 16.5271 20.0583 17.0999 19.6647 17.537C19.2712 17.9742 18.7247 18.2419 18.1393 18.2844H7.61716C7.03034 18.2756 6.46956 18.0396 6.05178 17.6257C5.63398 17.2119 5.39141 16.652 5.37465 16.063C5.35789 15.4739 5.5682 14.9011 5.96177 14.4639C6.35535 14.0267 6.90181 13.759 7.48718 13.7165H7.60477Z" fill="white"/>
<path fill-rule="evenodd" clip-rule="evenodd" d="M24.1927 5.84221C24.7968 5.82489 25.383 6.04925 25.8225 6.46593C26.2616 6.88259 26.5181 7.45745 26.5354 8.06403C26.5526 8.6706 26.3292 9.2592 25.9142 9.70034C25.4992 10.1415 24.9268 10.3991 24.3227 10.4164H7.61108C7.00898 10.4099 6.43338 10.1669 6.0076 9.73935C5.58183 9.31182 5.33979 8.73387 5.33334 8.1293C5.34393 7.54814 5.56986 6.99182 5.96699 6.56894C6.36412 6.14606 6.90393 5.88694 7.48108 5.84221H24.1927Z" fill="white"/>
</g>
<defs>
<clipPath id="clip0_3242_34">
<rect width="32" height="32" fill="white"/>
</clipPath>
</defs>
</svg>
