<svg width="32" height="32" viewBox="0 0 32 32" fill="none" xmlns="http://www.w3.org/2000/svg">
<path d="M16.0113 32C12.2838 32.0026 8.67238 30.7038 5.80044 28.3275C2.92851 25.9514 0.976334 22.647 0.280934 18.985C-0.414471 15.323 0.190538 11.533 1.99151 8.26944C3.79249 5.0059 6.6764 2.47357 10.1454 1.10962C13.6144 -0.25432 17.4507 -0.364279 20.9921 0.798731C24.5336 1.96174 27.5578 4.32473 29.5427 7.47976C31.5276 10.6348 32.3487 14.3838 31.8642 18.0798C31.3797 21.7756 29.62 25.1863 26.8889 27.7231C23.9292 30.4649 20.0458 31.9918 16.0113 32Z" fill="#E6E6E6"/>
<path d="M26.4545 23.6292C28.3829 21.851 29.8187 19.6044 30.6227 17.1076C30.7948 15.0918 30.5472 13.0621 29.8955 11.1468C29.2436 9.23152 28.2018 7.47214 26.8357 5.97981C25.4696 4.48749 23.809 3.29461 21.9586 2.47649C20.1082 1.65838 18.1082 1.2328 16.0851 1.22663C14.0619 1.22045 12.0595 1.63382 10.2042 2.44063C8.34877 3.24745 6.68087 4.43017 5.3057 5.91413C3.93053 7.39809 2.87798 9.15104 2.21449 11.0623C1.55101 12.9737 1.291 15.0018 1.4509 17.0186C2.12922 19.1838 3.28495 21.1692 4.83285 22.8282C7.59775 25.795 11.4256 27.545 15.4783 27.6951C19.5308 27.8452 23.4777 26.3832 26.4545 23.6292Z" fill="#FFCF48"/>
<path d="M16.0209 30.6303C19.7118 30.6346 23.2679 29.2431 25.9759 26.7351C28.6838 24.227 30.3433 20.7879 30.6216 17.1074C29.6161 20.1892 27.6594 22.8728 25.0328 24.7726C22.4062 26.6723 19.2449 27.6904 16.0033 27.6806C12.7617 27.6706 9.60673 26.6333 6.99175 24.7175C4.37678 22.8018 2.43653 20.1062 1.44984 17.0185C1.70741 20.7093 3.35375 24.1654 6.05737 26.6911C8.76096 29.2167 12.3211 30.6243 16.0209 30.6303Z" fill="#DD9F17"/>
<path d="M14.9869 11.7775H7.88187L8.98449 15.3622L7.88187 18.9419H11.4369V12.6527L14.9869 11.7775Z" fill="#A5452F"/>
<path d="M14.9881 12.6527V11.7775L11.438 12.6527H14.9881Z" fill="#3D2B28"/>
<path d="M11.438 12.6526V18.9418V19.995H21.2575L23.1513 12.6526H14.9881H11.438Z" fill="#E7633F"/>
<path d="M24.9995 12.2373C25.0539 12.021 25.0207 11.7918 24.9069 11.5999C24.7931 11.408 24.6081 11.2688 24.3922 11.2127C24.1762 11.1566 23.9469 11.1882 23.7541 11.3004C23.5613 11.4126 23.4207 11.5966 23.3629 11.8121L23.1454 12.6477L21.2566 19.995L19.358 27.3572L18.5719 30.4079C19.2018 30.2942 19.8244 30.1423 20.4358 29.953L21.227 26.8182L24.9995 12.2373Z" fill="#15161E"/>
</svg>
