<svg width="32" height="32" viewBox="0 0 32 32" fill="none" xmlns="http://www.w3.org/2000/svg">
<path d="M31.9094 14.4601H21.8567C21.0966 11.5164 18.2661 9.59712 15.25 9.9802C12.2339 10.3633 9.97311 12.9292 9.97311 15.9695C9.97311 19.0097 12.2339 21.5757 15.25 21.9587C18.2661 22.3418 21.0966 20.4225 21.8567 17.4788H28.8302C28.1783 23.1099 23.9318 27.6583 18.3585 28.6951C12.7852 29.7319 7.18703 27.0149 4.55354 21.995C1.92005 16.9752 2.86644 10.8251 6.88731 6.82909C10.9082 2.83312 17.0643 1.92471 22.068 4.58899C21.259 6.84441 22.2033 9.35383 24.2986 10.5164C26.394 11.6789 29.023 11.152 30.5086 9.27196C31.9942 7.39187 31.8986 4.71235 30.2829 2.94283C28.6672 1.17331 26.0073 0.83505 24.0001 2.14385C17.7287 -1.47678 9.80724 -0.433964 4.68665 4.68636C-0.433945 9.80669 -1.47686 17.7278 2.14389 23.9989C5.76465 30.2701 13.1462 33.3275 20.1411 31.4534C27.136 29.5793 31.9999 23.2409 32 15.9997C32 15.3959 31.9698 14.8827 31.9094 14.4601ZM16.0002 18.9882C14.3329 18.9882 12.9814 17.6367 12.9814 15.9695C12.9814 14.3023 14.3329 12.9508 16.0002 12.9508C17.6674 12.9508 19.019 14.3023 19.019 15.9695C19.019 17.6367 17.6674 18.9882 16.0002 18.9882ZM26.6567 4.43805C27.3893 4.43805 28.0497 4.87934 28.3301 5.55615C28.6104 6.23295 28.4555 7.01199 27.9374 7.53C27.4194 8.048 26.6403 8.20296 25.9635 7.92262C25.2867 7.64228 24.8454 6.98184 24.8454 6.24927C24.8454 5.24896 25.6563 4.43805 26.6567 4.43805Z" fill="#347EFF"/>
</svg>
