<svg width="32" height="32" viewBox="0 0 32 32" fill="none" xmlns="http://www.w3.org/2000/svg">
<g clip-path="url(#clip0_3240_11)">
<path d="M29.9134 1.00759L2.65658 9.5098C2.54324 9.53804 2.48658 9.66515 2.51491 9.77814L4.61159 16.6703C4.63992 16.7833 4.76742 16.8539 4.86659 16.8115L24.8558 10.569C25.805 10.2725 26.6125 9.60866 27.08 8.70477C28.3267 6.31794 29.3467 3.84637 30.14 1.27593C30.225 1.10645 30.0692 0.965222 29.9134 1.00759Z" fill="#FFBB1C"/>
<path d="M23.3688 12.9276L6.43958 18.2097C6.35457 18.2379 6.28374 18.3368 6.32624 18.4357L8.11125 24.2545C8.13958 24.3392 8.23875 24.4098 8.33792 24.3816L19.133 21.0061C19.9405 20.7519 20.6205 20.1869 21.0171 19.4384C22.0655 17.4329 22.9438 15.3285 23.5955 13.1536C23.638 13.0265 23.5105 12.8852 23.3688 12.9276Z" fill="#E8486C"/>
<path d="M16.9368 23.5764L9.88176 25.7797C9.79676 25.7938 9.76843 25.8927 9.78259 25.9633L11.2843 30.8923C11.2984 30.977 11.3976 31.0194 11.4684 30.9912L13.3384 30.4121C14.0184 30.2003 14.5851 29.7201 14.9251 29.0845C15.8176 27.3897 16.5401 25.6102 17.1068 23.7742C17.1635 23.6471 17.0501 23.5341 16.9368 23.5764Z" fill="#476DF2"/>
</g>
<defs>
<clipPath id="clip0_3240_11">
<rect width="29" height="30" fill="white" transform="translate(2 1)"/>
</clipPath>
</defs>
</svg>
