<svg width="32" height="32" viewBox="0 0 32 32" fill="none" xmlns="http://www.w3.org/2000/svg">
<path d="M22.64 1.84C23.44 1.84 24.08 2.48 24.08 3.28C24.08 4.08 23.44 4.72 22.64 4.72H22.56C21.84 4.72 21.2 4.08 21.2 3.36C21.2 2.96 21.36 2.56 21.6 2.32C21.84 2 22.24 1.84 22.64 1.84ZM22.64 0C20.8 0 19.28 1.6 19.36 3.44C19.44 5.12 20.8 6.48 22.48 6.56C22.56 6.56 22.56 6.56 22.64 6.56C24.48 6.56 25.92 5.04 25.92 3.28C25.92 1.52 24.4 0 22.64 0Z" fill="#FF4F1F"/>
<path d="M20.4 23.1199C22.24 23.1199 23.76 24.6399 23.76 26.4799C23.76 28.3199 22.24 29.8399 20.4 29.8399H16.8C14.96 29.8399 13.44 28.3199 13.44 26.4799C13.44 24.6399 14.96 23.1199 16.8 23.1199H20.4V23.1199ZM20.4 20.8799H16.8C13.76 20.8799 11.28 23.3599 11.28 26.3999C11.28 29.4399 13.76 31.9199 16.8 31.9199H20.4C23.44 31.9199 25.92 29.4399 25.92 26.3999C25.92 23.3599 23.44 20.8799 20.4 20.8799Z" fill="#FF4F1F"/>
<path d="M20.3999 10.16C22.2399 10.16 23.7599 11.68 23.7599 13.52C23.7599 15.36 22.2399 16.88 20.3999 16.88H11.9199C10.0799 16.88 8.5599 15.36 8.5599 13.52C8.5599 11.68 10.0799 10.16 11.9199 10.16H20.3999ZM20.3999 8H11.9199C8.8799 8 6.3999 10.48 6.3999 13.52C6.3999 16.56 8.8799 19.04 11.9199 19.04H20.3999C23.4399 19.04 25.9199 16.56 25.9199 13.52C25.9199 10.48 23.4399 8 20.3999 8Z" fill="#FF4F1F"/>
</svg>
