<svg width="32" height="32" viewBox="0 0 32 32" fill="none" xmlns="http://www.w3.org/2000/svg">
<path d="M20.1877 0.516113C23.5973 0.516113 25.8063 4.11766 24.3178 7.14321C23.5973 8.67973 21.1962 10.9848 20.1877 12.0893C19.1312 10.8888 16.8742 8.77573 16.1057 7.19121C14.5211 4.21366 16.7302 0.516113 20.1877 0.516113ZM12.2027 9.12463C16.2703 9.12463 18.9057 13.4214 17.1297 17.0307C16.2703 18.864 13.4058 21.6139 12.2027 22.9316C10.9423 21.4993 8.24966 18.9786 7.33302 17.088C5.44244 13.536 8.07779 9.12463 12.2027 9.12463ZM20.1877 19.9107C23.5973 19.9107 25.8063 23.5122 24.3178 26.5378C23.5973 28.0743 21.1962 30.3793 20.1877 31.4839C19.1312 30.2833 16.8742 28.1703 16.1057 26.5858C14.5211 23.6082 16.7302 19.9107 20.1877 19.9107Z" fill="#5762FF"/>
<path d="M22.7152 24.5208C22.7152 25.9107 21.5782 27.0477 20.1883 27.0477C18.7983 27.0477 17.6613 25.9107 17.6613 24.5208C17.6613 23.9164 17.8853 23.3667 18.243 22.9306L13.6649 17.2573C13.2314 17.4999 12.7333 17.6392 12.2038 17.6392C10.5454 17.6392 9.18903 16.2823 9.18903 14.6245C9.18903 12.9667 10.5459 11.6098 12.2038 11.6098C12.755 11.6098 13.2706 11.7621 13.7165 12.0232L18.211 6.67715C17.8724 6.24722 17.6618 5.71302 17.6618 5.1267C17.6618 3.73676 18.7989 2.59973 20.1888 2.59973C21.5787 2.59973 22.7158 3.73676 22.7158 5.1267C22.7158 6.51663 21.5787 7.65367 20.1888 7.65367C19.7568 7.65367 19.3558 7.53392 18.9991 7.34089L14.5057 12.6859C14.949 13.2113 15.2185 13.888 15.2185 14.625C15.2185 15.3837 14.932 16.0774 14.4649 16.6085L19.044 22.2823C19.3898 22.1042 19.7754 21.9938 20.1888 21.9938C21.5777 21.9933 22.7152 23.1308 22.7152 24.5208Z" fill="white"/>
</svg>
