<svg width="69" height="69" viewBox="0 0 69 69" fill="none" xmlns="http://www.w3.org/2000/svg">
<g clip-path="url(#clip0_14:315)">
<path d="M38.2206 0.230014C38.1606 0.467809 38.0768 0.69897 37.9706 0.920013C37.4606 1.81001 36.9706 2.83001 36.4206 3.66001C36.1765 4.14206 35.8886 4.60065 35.5606 5.03001C35.4806 5.41001 34.3206 7.42001 34.0606 8.31001C33.5842 9.37918 32.9798 10.3866 32.2606 11.31C31.7437 12.0451 31.0578 12.6453 30.2606 13.06C29.8006 13.54 29.2606 14 28.7606 14.48C28.6306 14.68 28.8906 14.81 28.9606 14.91C29.5782 15.3566 30.145 15.8697 30.6506 16.44C31.1181 16.8279 31.5438 17.2636 31.9206 17.74C32.4913 18.3057 33.01 18.9215 33.4706 19.58C33.9194 20.1998 34.3334 20.8442 34.7106 21.51C35.0512 22.0234 35.365 22.5541 35.6506 23.1C36.2606 23.2 36.6506 22.54 36.8906 22.19C37.6407 21.6361 38.3462 21.0242 39.0006 20.36C41.8506 17.72 44.3606 15.25 47.2106 12.76C47.5582 12.3403 47.9911 11.9995 48.4806 11.76C48.5683 11.8217 48.6427 11.9004 48.6994 11.9915C48.7561 12.0825 48.7939 12.1841 48.8106 12.29C48.7106 12.93 48.6106 13.56 48.4806 14.14C47.8706 15.97 47.1606 17.6 46.4806 19.37C46.3306 19.85 46.0506 20.23 45.8706 20.69C45.6548 20.9745 45.4673 21.2792 45.3106 21.6C45.0106 21.9 44.9306 22.44 44.7006 22.79C44.2906 22.97 44.2706 23.4 44.0406 23.79C43.7903 24.2322 43.5096 24.6566 43.2006 25.06C42.6206 25.64 41.2006 26.76 41.2006 26.76C40.1556 27.4193 39.0383 27.9561 37.8706 28.36C37.4682 28.5658 37.0415 28.7203 36.6006 28.82C35.6606 28.82 34.8006 28.92 33.8106 29C33.5306 29.08 32.9206 29 32.8106 29.3C32.5576 30.318 32.3871 31.3547 32.3006 32.4C32.3006 32.83 32.2006 33.16 32.2506 33.62C32.1006 34.46 32.0506 35.37 31.9706 36.26C31.9706 36.46 31.6906 40.2 31.4406 41.77C31.3606 42.02 31.4406 42.38 31.2906 42.63C31.2406 43.72 31.1606 44.84 31.1406 45.83C31.1206 46.82 30.8106 47.61 30.7306 48.42C30.3679 49.1567 30.1603 49.9599 30.1206 50.78C29.9706 51.01 29.8206 51.34 29.5106 51.39C29.391 51.4431 29.2615 51.4704 29.1306 51.47C28.9306 51.39 28.9006 51.27 28.8006 51.09C28.5006 49.85 28.0606 48.65 27.6806 47.51C27.5506 47.1 27.4806 46.62 27.3206 46.16C26.8897 45.1024 26.6657 43.972 26.6606 42.83C26.3894 40.9888 26.2457 39.131 26.2306 37.27C26.2806 36.18 26.1806 35.08 26.2306 33.99C26.2806 32.9 26.5606 31.63 26.6606 30.43C26.7606 29.23 27.1706 27.66 26.9106 26.43C26.8306 25.92 26.7106 25.97 26.6606 25.67C26.6106 25.37 26.1306 25.09 25.9006 24.67C24.1931 23.3251 22.5886 21.8544 21.1006 20.27C20.9013 20.1709 20.7077 20.0607 20.5206 19.94C19.7606 20.35 19.0506 20.94 18.2806 21.36C16.5948 22.3409 14.9897 23.4544 13.4806 24.69C12.5706 25.2 11.7506 26.09 10.6906 26.29C10.3306 26.52 9.93061 26.7 9.57061 26.9C7.81856 26.8049 6.06265 26.8049 4.3106 26.9C3.97815 26.9343 3.64305 26.9343 3.3106 26.9C3.09207 26.7942 2.89533 26.6484 2.7306 26.47C2.79397 26.186 2.96634 25.9382 3.2106 25.78C4.41793 25.5386 5.57913 25.1065 6.6506 24.5C7.48825 24.1856 8.25608 23.71 8.91061 23.1C9.12118 22.8565 9.37136 22.6502 9.65061 22.49C9.93061 21.85 10.6506 21.49 11.0506 20.89C11.6106 19.95 12.4506 19.37 13.0506 18.45C13.9667 17.3848 14.9702 16.3981 16.0506 15.5C16.8905 15.1628 17.7613 14.9083 18.6506 14.74C20.1006 14.23 21.6006 13.88 23.0206 13.22C23.7106 12.61 24.2406 11.82 24.8506 11.16C26.4506 9.43001 28.4806 8.39001 30.3406 6.66001C31.2006 5.77001 32.0706 4.60001 32.8806 3.66001C33.5406 2.66001 34.7306 1.20001 35.6706 1.36085e-05H34.4506C27.4117 -0.00624397 20.5401 2.14571 14.7621 6.16577C8.98404 10.1858 4.57744 15.8807 2.13627 22.4828C-0.304899 29.0848 -0.663263 36.2766 1.10948 43.0887C2.88223 49.9007 6.70086 56.0055 12.0506 60.58C12.2506 60.33 12.4106 60.1 12.4806 60.02C11.4806 56.95 9.2806 54.53 9.1306 51.36C8.87381 49.0729 8.78024 46.7704 8.85061 44.47C8.98607 42.2771 9.42353 40.1133 10.1506 38.04C11.902 35.037 13.8706 32.166 16.0406 29.45L16.1706 29.35C16.5744 29.3958 16.9599 29.5438 17.2906 29.78C17.4406 29.93 17.2906 30.21 17.4406 30.36C17.4406 30.36 17.3106 31.1 17.2406 31.36C17.1706 31.62 16.9106 32.3 16.8306 32.81C16.3987 33.3791 16.0611 34.0138 15.8306 34.69L15.7306 35.02C15.1506 36.85 14.1506 38.6 13.7306 40.46C13.5729 41.5357 13.5293 42.6251 13.6006 43.71C13.5616 44.4728 13.5616 45.2372 13.6006 46C13.7228 47.0845 13.9437 48.1557 14.2606 49.2C14.5406 49.78 14.6406 50.2 14.9206 50.88C15.2365 52.0085 15.6103 53.12 16.0406 54.21C16.1206 54.41 16.2206 55.33 16.8306 55.51C17.4128 55.5604 17.9984 55.5604 18.5806 55.51C19.0874 55.687 19.6296 55.7385 20.1606 55.66C22.7375 55.8853 25.3261 55.9454 27.9106 55.84C29.1506 55.64 30.3006 55.43 31.5706 55.26C32.5106 55.34 33.5706 55.26 34.5706 55.26C35.1655 55.1608 35.7675 55.1106 36.3706 55.11C37.1306 55.21 38.1006 54.88 38.8106 55.11C40.0148 55.2608 41.227 55.3376 42.4406 55.34C42.5906 55.34 42.5706 55.54 42.5706 55.64C42.1906 55.82 42.5706 56.22 42.2906 56.48C40.5406 57.34 38.7606 58 37.0806 58.79L36.9506 58.92C35.7306 59.73 34.1806 59.76 33.0406 60.6C32.7212 60.7179 32.377 60.7523 32.0406 60.7C31.4276 60.8172 30.8303 61.0051 30.2606 61.26C27.5206 61.79 24.7706 62.38 22.0306 62.86C21.9506 62.91 21.3206 63.29 21.2206 63.6C21.0706 63.68 21.1206 63.93 20.9706 64.03C20.7539 64.6502 20.6456 65.3031 20.6506 65.96C26.6979 68.5982 33.376 69.4428 39.8896 68.3933C46.4033 67.3437 52.4781 64.4442 57.3906 60.04C57.2137 58.6933 56.96 57.3578 56.6306 56.04C55.3906 54.04 54.6306 52.04 53.4306 50.04C53.1506 49.04 52.5206 48.21 52.2406 47.19C51.9406 46.86 51.8606 46.19 51.5306 45.87C50.5306 45.79 49.5306 46.12 48.5306 46.12C48.1037 46.3506 47.6504 46.5286 47.1806 46.65C46.7206 46.55 46.1806 46.78 45.7606 46.65C44.8706 46.78 42.5606 47.01 42.2806 47.08C41.3406 47.21 40.2806 47.31 39.3606 47.51C38.9306 47.51 38.7206 47.64 38.2206 47.66C37.6943 47.6359 37.1699 47.5792 36.6506 47.49C35.9688 47.6094 35.2812 47.6928 34.5906 47.74C34.4106 47.59 34.1106 47.41 34.1106 47.16C34.1106 46.91 33.9106 46.75 34.1106 46.63C34.7706 46.5 35.3006 46.05 35.9606 45.92C36.1406 45.74 36.9606 45.77 36.9006 45.64C38.3506 45.03 39.9706 44.85 41.2706 44.01C41.7006 43.96 42.0606 43.68 42.5106 43.63C44.3906 42.94 46.1206 42.08 48.0206 41.39C50.6106 40.78 52.7506 39.48 55.2106 38.65C55.6899 38.6155 56.1407 38.4096 56.4806 38.07C56.9871 37.4074 57.4229 36.6935 57.7806 35.94C58.6406 34.94 58.9206 33.6 60.0406 32.71C60.3706 32.23 60.5206 31.71 60.9006 31.24C60.8713 30.5363 60.6723 29.8502 60.3206 29.24C59.6857 28.3429 59.1175 27.4003 58.6206 26.42C57.5917 24.8744 56.9471 23.1053 56.7406 21.26C56.3306 20.57 55.5706 20.35 55.0406 19.76H54.9606C54.6009 19.5055 54.2661 19.2175 53.9606 18.9C53.3504 18.3979 52.8179 17.8082 52.3806 17.15C51.9115 16.7246 51.6279 16.1322 51.5906 15.5C52.5006 15.32 53.3706 15.5 54.2306 15.37C54.5906 15.52 55.0206 15.29 55.3706 15.47C55.8311 15.9944 56.1935 16.5973 56.4406 17.25C58.9006 20.81 61.8806 23.65 64.3706 27.03C64.8506 27.31 64.6206 28.03 64.8306 28.4C65.0306 29.29 65.1106 30.23 65.2406 31.09C65.6506 32.87 64.8606 34.55 64.9906 36.35C64.9906 36.35 64.5806 40.44 64.3306 42.3C63.9506 43.8 64.0306 45.43 63.5706 46.95C63.3706 47.89 63.0106 48.95 62.8106 49.9C62.8906 50.33 62.4506 50.61 62.5806 51.14C63.0758 51.4541 63.6061 51.7092 64.1606 51.9C67.0976 46.9485 68.7426 41.338 68.9443 35.5845C69.146 29.831 67.898 24.1192 65.315 18.9741C62.732 13.829 58.897 9.41595 54.1625 6.14059C49.428 2.86524 43.946 0.832747 38.2206 0.230014V0.230014ZM21.5506 6.38001C21.9806 6.13001 22.3606 6.58001 22.7706 6.66001C23.116 7.23244 23.366 7.85728 23.5106 8.51001C23.9206 9.12001 23.4106 9.73001 23.4106 10.42C23.2106 10.88 22.9006 11.33 22.6706 11.74C22.2106 11.97 21.8106 12.43 21.2706 12.1C21.1206 12.15 20.7406 11.97 20.6606 11.97C20.1806 11.61 19.2406 11.79 19.1906 10.97C19.0906 9.80001 18.4306 8.89001 18.3306 7.72001C18.9906 6.58001 20.5906 6.94001 21.5506 6.38001ZM23.1306 48.58C22.6965 49.3468 22.3221 50.1458 22.0106 50.97C22.0106 51.2 21.7806 51.17 21.6306 51.27C21.5635 51.3684 21.472 51.4478 21.3651 51.5003C21.2582 51.5529 21.1395 51.5769 21.0206 51.57C20.5906 51.34 20.2106 51.72 19.8306 51.37C19.3568 50.849 19.0321 50.2099 18.8906 49.52C18.5606 48.45 18.9706 47.44 19.0706 46.39C19.264 45.7458 19.529 45.1252 19.8606 44.54C19.9906 44.24 20.0606 43.9 20.4206 43.78C20.5706 43.65 20.7506 43.68 20.8806 43.6C21.3606 43.6 21.8806 43.24 22.3506 43.78C22.4306 44.08 22.6806 44.21 22.8306 44.52C23.1019 45.4371 23.3223 46.3685 23.4906 47.31C23.3806 47.67 23.2006 48.08 23.1306 48.58ZM52.2706 27.14L52.4006 27.24C53.0406 27.54 53.6706 27.57 54.3106 27.85C54.6845 27.9705 55.0289 28.168 55.3217 28.4298C55.6145 28.6916 55.8492 29.0119 56.0106 29.37C56.1406 30.01 56.1606 30.74 56.2406 31.37C56.2406 32.37 57.0306 34.09 55.5006 34.55C54.7203 34.4805 53.9653 34.238 53.2906 33.84C52.9128 33.7057 52.5708 33.4868 52.2906 33.2C51.1706 32.64 51.4006 31.27 50.9206 30.33C50.8706 29.67 50.7206 28.96 50.6206 28.27C50.5985 27.976 50.6684 27.6825 50.8206 27.43C51.0099 27.2491 51.2467 27.1258 51.5035 27.0744C51.7602 27.0231 52.0263 27.0458 52.2706 27.14Z" fill="#3200E6"/>
</g>
<defs>
<clipPath id="clip0_14:315">
<rect width="68.97" height="68.97" fill="white"/>
</clipPath>
</defs>
</svg>
