<svg width="32" height="32" viewBox="0 0 32 32" fill="none" xmlns="http://www.w3.org/2000/svg">
<rect width="32" height="32" fill="#F9635D"/>
<path d="M9.76001 18.5247L8.26668 24.4447C8.10668 24.9247 8.58668 25.4047 8.97779 24.818L11.8756 21.138C12.5075 21.2665 13.1507 21.332 13.7956 21.3335C18.4889 21.3335 22.2756 18.1513 22.2756 14.2224C22.2756 10.2936 18.4889 7.11133 13.7956 7.11133C9.10223 7.11133 5.33334 10.2936 5.33334 14.2224C5.33733 14.9832 5.48199 15.7366 5.76001 16.4447C5.85393 16.5819 5.9883 16.6865 6.14442 16.7439C6.30055 16.8012 6.47067 16.8085 6.63112 16.7647C7.05379 16.6326 7.46918 16.4783 7.87557 16.3024C7.87557 16.3024 8.30223 16.1247 8.21334 15.4491C8.06457 15.057 7.98633 14.6418 7.98223 14.2224C7.98223 11.7691 10.6667 9.77799 13.7956 9.77799C16.9245 9.77799 19.5556 11.7691 19.5556 14.2224C19.5556 16.6758 17.0133 18.6669 13.7956 18.6669C12.7658 18.6691 11.7474 18.4508 10.8089 18.0269C10.6034 17.9664 10.3829 17.9837 10.1894 18.0756C9.99596 18.1674 9.84308 18.3273 9.76001 18.5247V18.5247Z" fill="white"/>
<path d="M25.1022 25.1556H24.8889L22.24 23.5556C20.9183 24.2336 19.4585 24.5985 17.9733 24.6223C16.5501 24.6509 15.1488 24.2682 13.9378 23.5201L14.2222 23.4134C18.1689 23.4134 23.8756 20.4623 24.1956 15.6445C24.8912 16.6036 25.2478 17.767 25.2089 18.9512C25.2207 20.0369 24.8058 21.0839 24.0533 21.8668L24.9778 24.1601C24.9778 24.1601 25.3689 24.9423 25.2622 25.0668C25.1556 25.1912 25.1556 25.1556 25.0667 25.1556H25.1022Z" fill="white"/>
</svg>
