<svg width="32" height="32" viewBox="0 0 32 32" fill="none" xmlns="http://www.w3.org/2000/svg">
<path d="M21.218 0.894C19.562 0.314 17.784 0 15.93 0C14.484 0 13.082 0.192 11.75 0.552C7.534 1.69 3.32 5.146 2.198 9.484C1.698 11.414 1.764 13.422 2.758 15.184C2.942 15.512 3.148 15.826 3.376 16.126C3.636 16.474 3.926 16.802 4.24 17.104C4.692 17.542 5.196 17.93 5.748 18.262C7.65 19.402 9.884 19.736 12.036 19.196C14.634 18.548 16.72 16.714 17.714 14.284H13.39C13.2 14.284 13.048 14.13 13.048 13.94V11.072C13.048 10.882 13.2 10.728 13.39 10.728H23.6C23.79 10.728 23.944 10.882 23.944 11.072V21.88C23.944 22.07 23.79 22.224 23.6 22.224H20.734C20.544 22.224 20.39 22.07 20.39 21.88V16.908C18.818 19.738 16.136 21.838 12.896 22.646C11.938 22.886 10.966 23.004 10.002 23.004C7.878 23.004 5.786 22.43 3.918 21.308C3.114 20.826 2.38 20.258 1.726 19.618C1.64 19.536 1.556 19.45 1.474 19.364C0.92 18.79 0.426 18.164 0 17.49C0.752 25.628 7.596 32 15.93 32C24.768 32 31.93 24.836 31.93 16C31.93 9.016 27.456 3.076 21.218 0.894" fill="#258060"/>
</svg>
