<svg width="32" height="32" viewBox="0 0 32 32" fill="none" xmlns="http://www.w3.org/2000/svg">
<path d="M31.8545 24.7273C31.8545 25.4909 31.2364 26.0727 30.5091 26.0727H1.34545C0.618182 26.1091 0 25.4909 0 24.7273V7.16364C0 6.43636 0.618182 5.81818 1.34545 5.81818H30.4727C31.2364 5.81818 31.8182 6.43636 31.8182 7.16364V24.7273H31.8545Z" fill="#00BAFF"/>
<path d="M31.5636 6.32727C27.7818 12.1818 21.9273 17.5636 15.8909 17.4182C13.6727 17.3818 11.1273 16.7273 8.98181 14.9818C7.38181 13.6727 5.78181 11.6364 5.16363 8.72727C4.90908 8.72727 4.72727 8.72727 4.50908 8.72727C3.52727 8.72727 2.94545 9.6 3.05454 10.4C3.0909 10.5818 3.12727 10.8 3.16363 11.0182C3.63636 13.8545 5.30908 17.0545 8.10908 19.1273C10.2909 20.7273 12.9818 21.7818 15.9273 21.7818C21.2364 21.7818 26.9091 18.4 31.8545 9.70909V7.16363C31.8545 6.87273 31.7455 6.54545 31.5636 6.32727V6.32727Z" fill="white"/>
</svg>
