<svg width="32" height="32" viewBox="0 0 32 32" fill="none" xmlns="http://www.w3.org/2000/svg">
<path d="M32 16C32 7.16344 24.8366 0 16 0C7.16344 0 0 7.16344 0 16C0 24.8366 7.16344 32 16 32C24.8366 32 32 24.8366 32 16Z" fill="#363D4D"/>
<path fill-rule="evenodd" clip-rule="evenodd" d="M16 6.39999V10.24C14.4724 10.24 13.0073 10.8468 11.9271 11.9271C10.8469 13.0073 10.24 14.4723 10.24 16H6.40002C6.40002 10.6984 10.6984 6.39999 16 6.39999ZM16 14.08H25.6V16C25.6 21.3016 21.3016 25.6 16 25.6V21.76C18.508 21.76 20.64 20.1568 21.4312 17.92H16V14.08V14.08Z" fill="white"/>
</svg>
