<svg width="494" height="455" viewBox="0 0 494 455" xmlns="http://www.w3.org/2000/svg" xmlns:xlink="http://www.w3.org/1999/xlink"><title>logo</title><defs><path id="a" d="M0 1173.333h2000V0H0v1173.333z"/></defs><g transform="matrix(1 0 0 -1 -359 814.333)" fill="none" fill-rule="evenodd"><mask id="b" fill="#fff"><use xlink:href="#a"/></mask><g mask="url(#b)"><path d="M851.199 554.108l-27.559 84.815-54.617 168.097c-2.81 8.648-15.046 8.648-17.856 0l-54.619-168.097H515.181l-54.62 168.097c-2.809 8.648-15.045 8.648-17.856 0l-54.617-168.097-27.557-84.815a18.775 18.775 0 0 1 6.82-20.992l238.513-173.29 238.515 173.29a18.777 18.777 0 0 1 6.82 20.992" fill="#FC6D26"/><path d="M605.865 359.827l90.684 279.096H515.18l90.684-279.096z" fill="#E24329"/><path d="M605.865 359.827L515.18 638.922H388.089l217.776-279.095z" fill="#FC6D26"/><path d="M388.089 638.923l-27.56-84.815a18.773 18.773 0 0 1 6.822-20.99l238.514-173.29-217.776 279.095z" fill="#FCA326"/><path d="M388.089 638.922H515.18L460.56 807.02c-2.81 8.649-15.046 8.649-17.855 0l-54.617-168.098z" fill="#E24329"/><path d="M605.865 359.827l90.684 279.095H823.64L605.865 359.827z" fill="#FC6D26"/><path d="M823.64 638.923l27.559-84.815a18.773 18.773 0 0 0-6.821-20.99l-238.514-173.29L823.64 638.923z" fill="#FCA326"/><path d="M823.64 638.922H696.548l54.619 168.098c2.81 8.649 15.047 8.649 17.856 0l54.617-168.098z" fill="#E24329"/></g></g></svg>