<svg width="32" height="32" viewBox="0 0 32 32" fill="none" xmlns="http://www.w3.org/2000/svg">
<path fill-rule="evenodd" clip-rule="evenodd" d="M30.039 16.0279H30.1526C30.1526 16.0279 31.4932 16.0506 31.5159 17.7774C31.5159 19.4361 29.8572 20.8448 27.9032 20.8448C27.5851 20.8448 24.9494 20.754 24.7449 17.5957C24.2223 17.5729 23.3362 17.482 22.5864 17.164C21.8365 19.0044 20.6777 20.4586 19.9734 20.4586C19.269 20.4586 18.6782 19.5497 18.2011 17.8002L18.1557 17.6184C17.2468 19.1634 15.9971 20.4359 15.3836 20.4359C14.6565 20.4359 13.7704 19.5951 13.7704 18.7999C13.7704 18.0046 14.0203 16.096 14.0203 16.096C14.0203 16.096 13.3614 16.2323 12.4071 16.3687C12.2253 17.2775 11.2256 21.0266 7.31743 21.0266C2.65951 21.0266 0.523651 15.9824 0.523651 15.9824C1.04054 15.6631 1.68205 14.993 2.40042 14.2425C3.8296 12.7494 5.5633 10.9382 7.22655 10.9382C9.72592 10.9382 10.6121 14.0283 10.6121 14.0283L10.4076 14.3692C10.4076 14.3692 9.5896 13.324 7.70369 13.324C6.26311 13.324 5.17209 14.6183 4.38169 15.556C4.12481 15.8607 3.89971 16.1278 3.70468 16.3005C3.70468 16.3005 5.68147 19.4134 8.24903 19.4134C9.61229 19.4134 11.0892 18.2319 11.9299 16.4368C10.4757 16.6414 8.56711 16.8231 7.22655 16.6641C7.22655 16.6641 7.15836 16.5959 7.13567 16.5277C7.09023 16.4369 7.09023 16.346 7.09023 16.346C11.839 16.346 15.4063 14.3692 15.7244 14.1647C15.7472 14.142 15.7698 14.142 15.7926 14.142C16.0986 14.2159 15.9391 15.2599 15.7714 16.3571C15.5781 17.6227 15.374 18.9589 15.8607 18.9589C16.3606 18.9589 17.3604 17.4139 17.9284 16.4823C17.7315 15.4825 17.5346 14.5434 17.4252 14.0217C17.3705 13.7608 17.3377 13.6042 17.3377 13.5966V13.5284L17.3831 13.5058C17.4058 13.4831 18.3829 13.0967 18.9963 13.0967C19.4508 13.0967 19.7234 13.3467 19.7234 13.7784C19.7234 14.0511 19.5871 14.6191 19.3371 15.3008C19.4917 16.7496 20.0076 18.1 20.2564 18.7513C20.3002 18.866 20.3358 18.959 20.3596 19.0271L20.3654 19.0203C20.6212 18.718 21.3856 17.8148 21.8365 16.7549C21.3139 16.346 21.064 15.7779 21.064 15.0963C21.064 13.9602 21.7002 13.3694 22.3137 13.3694C22.7454 13.3694 23.1998 13.6648 23.1998 14.3237C23.1998 14.8009 23.1317 15.3235 22.9953 15.8915C23.3589 16.2323 23.9496 16.5959 24.7449 16.6186C24.9039 14.9826 25.6992 12.6423 27.267 12.6423C28.9257 12.6423 29.1756 14.0283 29.1756 14.8691C29.1756 16.0278 28.1304 17.0276 26.5172 17.4139C26.5626 18.7317 26.9262 19.8905 27.9032 19.8905C28.5167 19.8905 29.0166 19.6406 29.4028 19.1634C30.0845 18.3455 30.2435 17.0276 30.0617 16.1415L30.039 16.0278V16.0279ZM26.5627 16.2778C27.7442 15.7552 27.7669 14.7327 27.7669 14.71C27.7669 14.051 27.4942 13.6648 27.2443 13.6421C27.0171 13.6421 26.6763 14.8918 26.5627 16.2778Z" fill="#66BB6A"/>
<path d="M14.1339 13.4604C14.1339 13.5057 14.1566 13.5284 14.202 13.5512C15.1336 13.6875 15.7471 13.3922 15.7471 11.8925C15.7471 10.4838 14.2929 11.5972 14.0202 11.8017C13.9975 11.8244 13.9975 11.847 13.9975 11.8925C14.2474 12.4378 14.1793 13.2331 14.1339 13.4603V13.4604Z" fill="#66BB6A"/>
<mask id="mask0_0_71" style="mask-type:alpha" maskUnits="userSpaceOnUse" x="24" y="17" width="4" height="3">
<path fill-rule="evenodd" clip-rule="evenodd" d="M25.6311 17.5732C25.1766 17.6187 24.7449 17.596 24.7449 17.596C24.8131 18.5048 25.0502 19.1176 25.3911 19.5948L27.0497 19.4584C26.6975 18.9983 26.5502 18.3096 26.5172 17.4139C26.5172 17.4139 26.0628 17.5278 25.6311 17.5732Z" fill="white"/>
</mask>
<g mask="url(#mask0_0_71)">
<path d="M27.2897 19.5724L27.0171 17.1412L24.495 17.4366L24.7677 19.8678L27.2897 19.5724Z" fill="url(#paint0_linear_0_71)"/>
</g>
<mask id="mask1_0_71" style="mask-type:alpha" maskUnits="userSpaceOnUse" x="24" y="14" width="3" height="3">
<path d="M26.5627 16.2782C26.2112 16.4946 25.1198 16.648 24.7449 16.6186C24.7999 16.1089 24.9098 15.4047 25.1994 14.6418C25.4205 14.5894 26.4265 14.5879 26.7313 15.019C26.6656 15.3713 26.6367 15.5881 26.6129 15.7783C26.5929 15.9446 26.5761 16.1112 26.5627 16.2782Z" fill="white"/>
</mask>
<g mask="url(#mask1_0_71)">
<path d="M24.7223 14.618H26.7314V16.6222H24.7223V14.618Z" fill="url(#paint1_linear_0_71)"/>
</g>
<mask id="mask2_0_71" style="mask-type:alpha" maskUnits="userSpaceOnUse" x="16" y="16" width="3" height="4">
<path fill-rule="evenodd" clip-rule="evenodd" d="M16.5314 18.4826C16.645 18.7553 16.7678 19.0718 16.9041 19.3445C17.1279 19.0862 17.3737 18.7969 17.6639 18.3788C17.8351 18.1322 18.0134 17.8483 18.1556 17.6183L17.9293 16.4812C17.5654 17.0998 16.9468 18.0397 16.5314 18.4826Z" fill="white"/>
</mask>
<g mask="url(#mask2_0_71)">
<path d="M16.6787 19.8451L19.019 19.0498L17.9966 15.9824L15.6562 16.7777L16.6787 19.8451Z" fill="url(#paint2_linear_0_71)"/>
</g>
<mask id="mask3_0_71" style="mask-type:alpha" maskUnits="userSpaceOnUse" x="20" y="16" width="3" height="4">
<path fill-rule="evenodd" clip-rule="evenodd" d="M20.7686 18.5261C20.9277 18.7533 21.223 19.0498 21.4276 19.277C21.6135 19.0194 21.7858 18.7522 21.9437 18.4764C22.1898 18.0451 22.4169 17.5715 22.5864 17.1639C22.5864 17.1639 22.3627 17.0856 22.1798 16.98C22.0619 16.911 21.9475 16.8361 21.8372 16.7554C21.5159 17.4921 21.0988 18.1019 20.7686 18.5261Z" fill="white"/>
</mask>
<g mask="url(#mask3_0_71)">
<path d="M22.1546 20.0496L23.6769 17.3457L21.223 15.9597L19.7007 18.6408L22.1546 20.0496Z" fill="url(#paint3_linear_0_71)"/>
</g>
<mask id="mask4_0_71" style="mask-type:alpha" maskUnits="userSpaceOnUse" x="19" y="13" width="1" height="3">
<path fill-rule="evenodd" clip-rule="evenodd" d="M19.1326 13.892C19.1326 13.892 19.1553 14.301 19.3371 15.3007C19.587 14.5964 19.7212 14.0555 19.7212 13.7828V13.7147L19.1326 13.892Z" fill="white"/>
</mask>
<g mask="url(#mask4_0_71)">
<path d="M19.2916 13.4376L18.4055 14.8463L19.5643 15.5507L20.4504 14.142L19.2916 13.4376Z" fill="url(#paint4_linear_0_71)"/>
</g>
<mask id="mask5_0_71" style="mask-type:alpha" maskUnits="userSpaceOnUse" x="22" y="14" width="2" height="2">
<path fill-rule="evenodd" clip-rule="evenodd" d="M22.495 14.8239C22.495 14.8239 22.3359 15.3011 22.9949 15.8918C23.1085 15.4147 23.1721 14.9608 23.196 14.5294L22.495 14.8239Z" fill="white"/>
</mask>
<g mask="url(#mask5_0_71)">
<path d="M22.4045 14.2783L22.0182 15.7779L23.1543 16.0733L23.5633 14.5964L22.4045 14.2783Z" fill="url(#paint5_linear_0_71)"/>
</g>
<mask id="mask6_0_71" style="mask-type:alpha" maskUnits="userSpaceOnUse" x="10" y="16" width="3" height="4">
<path fill-rule="evenodd" clip-rule="evenodd" d="M11.9294 16.4368C11.5078 17.3421 10.9628 18.0468 10.3042 18.5829L11.2717 19.0214C11.7829 18.3042 12.0421 17.6386 12.2253 17.073L12.3226 16.7297L12.4077 16.3676L11.9294 16.4368Z" fill="white"/>
</mask>
<g mask="url(#mask6_0_71)">
<path d="M10.4871 16.5007L12.5036 16.3232L12.4042 19.0853L10.2712 19.0043L10.4871 16.5007Z" fill="url(#paint6_linear_0_71)"/>
</g>
<defs>
<linearGradient id="paint0_linear_0_71" x1="26.8137" y1="19.1664" x2="26.6396" y2="17.5411" gradientUnits="userSpaceOnUse">
<stop stop-color="#66BB6A"/>
<stop offset="1" stop-color="#378F43"/>
</linearGradient>
<linearGradient id="paint1_linear_0_71" x1="24.9018" y1="15.8134" x2="24.9018" y2="17.4924" gradientUnits="userSpaceOnUse">
<stop stop-color="#66BB6A"/>
<stop offset="1" stop-color="#378F43"/>
</linearGradient>
<linearGradient id="paint2_linear_0_71" x1="16.881" y1="19.0131" x2="18.433" y2="18.621" gradientUnits="userSpaceOnUse">
<stop stop-color="#66BB6A"/>
<stop offset="1" stop-color="#378F43"/>
</linearGradient>
<linearGradient id="paint3_linear_0_71" x1="22.1236" y1="19.0159" x2="23.0444" y2="17.4852" gradientUnits="userSpaceOnUse">
<stop stop-color="#66BB6A"/>
<stop offset="1" stop-color="#378F43"/>
</linearGradient>
<linearGradient id="paint4_linear_0_71" x1="19.3097" y1="14.2307" x2="19.0428" y2="14.6289" gradientUnits="userSpaceOnUse">
<stop stop-color="#66BB6A"/>
<stop offset="1" stop-color="#378F43"/>
</linearGradient>
<linearGradient id="paint5_linear_0_71" x1="22.5635" y1="15.0637" x2="22.3748" y2="15.5949" gradientUnits="userSpaceOnUse">
<stop stop-color="#66BB6A"/>
<stop offset="1" stop-color="#378F43"/>
</linearGradient>
<linearGradient id="paint6_linear_0_71" x1="12.1564" y1="18.4887" x2="12.1564" y2="16.4583" gradientUnits="userSpaceOnUse">
<stop stop-color="#66BB6A"/>
<stop offset="1" stop-color="#378F43"/>
</linearGradient>
</defs>
</svg>
