<svg width="32" height="32" viewBox="0 0 32 32" fill="none" xmlns="http://www.w3.org/2000/svg">
<path d="M12.6977 16.1443V15.2422H23.8962V15.4173C22.4626 15.8842 20.3399 16.3246 19.7951 16.4095C20.0921 16.5478 20.1888 16.6696 20.3153 16.7111C20.7537 16.764 21.1883 16.8441 21.6168 16.9507C22.4601 17.1448 23.1584 17.3286 23.7329 17.5313C24.3299 17.7546 24.6458 17.8575 24.9975 17.9589C25.4084 18.0708 25.8247 18.1619 26.2448 18.2318C26.5914 18.283 27.3281 18.027 27.5012 17.9824C27.6743 17.9379 29.9153 17.067 29.9153 17.067C29.9153 17.067 30.8881 16.7029 31.2731 16.6062C31.6269 16.5084 31.6361 16.6266 31.6361 16.6266C31.6683 16.7291 31.6936 16.8336 31.7119 16.9395C31.7476 17.2727 31.7507 17.6086 31.7211 17.9425C31.6829 18.1997 31.6317 18.4549 31.5675 18.7069C31.5096 18.915 31.4316 19.117 31.3345 19.31C31.2629 19.4355 31.1523 19.6311 31.1144 19.716C31.0558 19.833 31.018 19.9593 31.0028 20.0893C30.9852 20.2652 30.9936 20.4427 31.0279 20.6161C31.0586 20.7646 31.1579 21.1368 31.1579 21.1368L31.2752 21.6022L15.226 21.5828V22.5238H2.22888C2.236 22.5022 2.23724 22.4791 2.23247 22.4568C2.21916 22.3994 2.15362 22.315 1.90274 22.1639C1.57967 21.9535 0.559765 21.5843 0.264341 21.4763C0.252565 21.1962 0.131221 19.906 1.74095 18.4903C2.22289 18.0785 2.73007 17.6972 3.25954 17.3486C3.25954 17.3486 4.64194 16.4444 5.74069 16.0834" fill="#2800FF"/>
<path d="M31.2706 21.6034L15.2215 21.584V22.525H2.22692C2.15473 22.737 1.17937 23.1118 0.511719 23.2418C0.870119 23.7349 1.54698 24.1849 2.22641 24.573C2.88122 24.9304 3.56085 25.2403 4.26007 25.5003C4.51607 25.5888 5.27895 25.8873 5.73361 25.9232C6.36623 25.9683 7.00163 25.9563 7.6321 25.8873C7.96532 25.8549 8.29643 25.8036 8.62385 25.7337C8.62385 25.7337 8.68733 25.9846 9.08465 26.5355C9.37188 26.917 9.72413 27.3071 10.0759 27.538C10.4947 27.8027 10.634 27.9425 11.5412 28.1079C12.2159 28.2365 12.9055 28.2685 13.5892 28.2031C14.05 28.1606 14.4965 28.1458 14.8933 28.0357C14.9122 27.5268 14.8482 27.0568 14.6434 26.6415C15.1943 26.6635 15.5005 26.6794 16.2695 26.6646C17.7543 26.6364 19.3758 26.3307 20.705 26.0768C21.8032 25.8674 23.5998 25.3641 24.459 25.0784C24.9526 24.914 26.1261 24.5152 26.2351 24.5152C26.4118 24.5152 26.677 24.5567 27.0461 24.6657C27.5945 24.828 28.0158 24.9729 28.9405 25.3052C29.8652 25.6375 30.688 25.9273 31.1887 25.9959C31.5589 26.0471 31.6045 25.9959 31.6301 25.8105C31.6725 25.576 31.3459 25.0425 31.2112 24.6237C31.0425 24.2006 31.0087 23.7356 31.1145 23.2925C31.1492 23.1623 31.1913 23.0341 31.2404 22.9085C31.3296 22.653 31.3686 22.3827 31.3551 22.1124C31.3449 21.9402 31.3166 21.7696 31.2706 21.6034V21.6034Z" fill="#5A78FF"/>
<path d="M31.0634 13.9143C31.0582 13.738 31.0807 13.562 31.13 13.3926C31.1617 13.2902 31.1945 13.1991 31.2549 13.0265C31.3413 12.7639 31.3742 12.4865 31.3517 12.2109C31.3344 12.0475 31.3076 11.8853 31.2713 11.725L19.5014 11.7051V12.6216H2.23678C2.2716 12.8729 1.18718 13.2749 0.519531 13.407C0.867691 13.8852 1.57169 14.3567 2.25316 14.7463C2.90949 15.1028 3.59009 15.4126 4.2899 15.6736C4.5971 15.7821 5.26884 16.032 5.74398 16.0867L12.698 16.1456V15.2435H23.8964V15.4186C24.0654 15.3715 24.3163 15.2967 24.4775 15.2435C24.9711 15.0791 26.1641 14.6685 26.2731 14.667C26.4503 14.667 26.6761 14.7059 27.0452 14.8149C27.5936 14.9767 28.0298 15.139 28.9555 15.4693C29.8812 15.7995 30.6845 16.0837 31.1842 16.1574C31.6138 16.2214 31.6394 16.0775 31.6394 15.906C31.6496 15.6874 31.3261 15.1349 31.1909 14.7141C31.1068 14.4558 31.0637 14.186 31.0634 13.9143V13.9143Z" fill="#FEC1EE"/>
<path d="M31.7116 7.11287C31.7208 7.27979 31.7464 7.96075 31.7208 8.11537C31.6874 8.35172 31.6396 8.58581 31.5775 8.8163C31.5109 9.02622 31.4095 9.3283 31.3317 9.46551C31.26 9.59095 31.1433 9.78449 31.1054 9.86948C31.0493 9.99418 31.0136 10.1271 30.9999 10.2632C30.9823 10.4391 30.9908 10.6166 31.025 10.7901C31.0558 10.9385 31.1551 11.3108 31.1551 11.3108L31.2708 11.725L19.5009 11.705V12.6215H2.2363C2.2363 12.6215 2.25166 12.5191 1.93934 12.3245C1.65774 12.1709 0.741255 11.7818 0.275335 11.6384C0.230279 11.4045 0.130951 10.0794 1.74068 8.66423C2.2228 8.25203 2.73034 7.87052 3.2603 7.52196C3.2603 7.52196 4.59559 6.57425 6.03022 6.1498C6.37601 6.05223 6.72854 5.98035 7.08493 5.93476C8.10228 5.85182 9.733 5.81188 9.89274 5.81751C10.2127 5.39162 10.561 4.98777 10.9352 4.60868C11.5429 4.01015 11.8875 3.77924 12.251 3.73828C12.7528 3.76798 15.4387 4.39569 16.197 4.62148C16.6322 4.74436 17.5036 4.97988 18.1938 5.26916C18.9055 5.54257 19.0785 5.77502 19.0785 5.77502C19.2118 5.97643 19.3564 6.17011 19.5117 6.35511C19.6796 6.52305 20.1619 6.81284 20.2961 6.86711C20.4983 6.91831 20.8403 6.92139 21.6145 7.10827C22.4234 7.30078 23.1505 7.5066 23.729 7.68683C24.3281 7.88651 24.6404 8.02474 24.9988 8.1169C25.3572 8.20906 25.9306 8.34731 26.2481 8.39339C26.5655 8.43947 27.2634 8.18859 27.4364 8.14404C27.6095 8.0995 29.915 7.24036 29.915 7.24036C29.915 7.24036 31.1592 6.79543 31.2718 6.75908C31.6492 6.6362 31.7116 6.6275 31.7116 7.11287V7.11287Z" fill="#FF7698"/>
<path d="M5.73287 8.52539C4.91879 8.52539 4.30439 9.15003 4.26343 10.0358C4.22247 10.9113 4.92391 11.5462 5.73287 11.5462C6.54182 11.5462 7.2023 10.8703 7.2023 10.0358C7.2023 9.20123 6.54746 8.52539 5.73287 8.52539V8.52539ZM5.38983 11.2287C4.76519 11.2287 4.25831 10.7833 4.26343 10.0665C4.28391 9.47771 4.77031 8.90427 5.38983 8.90427C6.00934 8.90427 6.51622 9.42139 6.51622 10.0665C6.51622 10.7116 6.01498 11.2287 5.39034 11.2287H5.38983Z" fill="white"/>
<path d="M5.39202 8.91016C4.76738 8.91016 4.28099 9.4836 4.26562 10.0724C4.26562 10.7892 4.7725 11.2347 5.39202 11.2347C6.01154 11.2347 6.51842 10.7175 6.51842 10.0724C6.51842 9.42728 6.01666 8.91016 5.39202 8.91016ZM4.85955 10.8455C4.78421 10.8476 4.70997 10.8271 4.64633 10.7867C4.5827 10.7463 4.53254 10.6879 4.50229 10.6189C4.47204 10.5498 4.46306 10.4734 4.4765 10.3992C4.48994 10.325 4.5252 10.2566 4.57775 10.2026C4.63031 10.1486 4.69778 10.1114 4.77154 10.096C4.8453 10.0805 4.922 10.0874 4.99183 10.1157C5.06166 10.1441 5.12145 10.1926 5.16355 10.2551C5.20565 10.3176 5.22816 10.3913 5.22819 10.4666C5.22907 10.5158 5.22021 10.5647 5.20213 10.6104C5.18405 10.6561 5.1571 10.6978 5.12283 10.7331C5.08857 10.7683 5.04766 10.7965 5.00248 10.8159C4.95729 10.8353 4.90871 10.8455 4.85955 10.846V10.8455Z" fill="black"/>
<path d="M4.85887 10.8456C5.06247 10.8456 5.22751 10.676 5.22751 10.4668C5.22751 10.2575 5.06247 10.0879 4.85887 10.0879C4.65528 10.0879 4.49023 10.2575 4.49023 10.4668C4.49023 10.676 4.65528 10.8456 4.85887 10.8456Z" fill="white"/>
<path d="M5.73287 18.4375C4.91879 18.4375 4.30439 19.0621 4.26343 19.9479C4.22247 20.8234 4.92391 21.4583 5.73287 21.4583C6.54182 21.4583 7.2023 20.7825 7.2023 19.9479C7.2023 19.1133 6.54746 18.4375 5.73287 18.4375V18.4375ZM5.38983 21.1409C4.76519 21.1409 4.25831 20.6954 4.26343 19.9786C4.28391 19.3898 4.77031 18.8164 5.38983 18.8164C6.00934 18.8164 6.51622 19.3335 6.51622 19.9786C6.51622 20.6237 6.01498 21.1409 5.39034 21.1409H5.38983Z" fill="white"/>
<path d="M5.39202 18.8223C4.76738 18.8223 4.28099 19.3957 4.26562 19.9845C4.26562 20.7013 4.7725 21.1467 5.39202 21.1467C6.01154 21.1467 6.51842 20.6296 6.51842 19.9845C6.51842 19.3394 6.01666 18.8223 5.39202 18.8223ZM4.85955 20.7576C4.78421 20.7596 4.70997 20.7392 4.64633 20.6988C4.5827 20.6584 4.53254 20.6 4.50229 20.531C4.47204 20.4619 4.46306 20.3854 4.4765 20.3113C4.48994 20.2371 4.5252 20.1687 4.57775 20.1147C4.63031 20.0606 4.69778 20.0235 4.77154 20.0081C4.8453 19.9926 4.922 19.9995 4.99183 20.0278C5.06166 20.0562 5.12145 20.1047 5.16355 20.1672C5.20565 20.2297 5.22816 20.3034 5.22819 20.3787C5.229 20.4278 5.22009 20.4766 5.20198 20.5223C5.18387 20.568 5.15691 20.6096 5.12265 20.6448C5.08839 20.68 5.04751 20.7081 5.00236 20.7275C4.9572 20.7468 4.90867 20.7571 4.85955 20.7576V20.7576Z" fill="black"/>
<path d="M4.85887 20.7578C5.06247 20.7578 5.22751 20.5881 5.22751 20.3789C5.22751 20.1696 5.06247 20 4.85887 20C4.65528 20 4.49023 20.1696 4.49023 20.3789C4.49023 20.5881 4.65528 20.7578 4.85887 20.7578Z" fill="white"/>
<path d="M11.747 12.6211C11.5365 13.4111 11.3179 14.0613 11.3138 14.0731C11.2987 14.1177 11.2926 14.1649 11.2957 14.2119C11.2988 14.2589 11.3112 14.3048 11.332 14.347C11.3529 14.3892 11.3819 14.4269 11.4173 14.4579C11.4528 14.489 11.494 14.5127 11.5386 14.5278C11.5832 14.5429 11.6303 14.549 11.6773 14.5459C11.7243 14.5428 11.7702 14.5304 11.8125 14.5096C11.8547 14.4887 11.8924 14.4597 11.9234 14.4243C11.9544 14.3888 11.9781 14.3476 11.9932 14.303C12.0106 14.2518 12.2625 13.5017 12.4888 12.6211H11.747ZM10.0973 12.6211C10.0318 12.7691 9.98467 12.8597 9.98211 12.8648C9.94727 12.9364 9.94162 13.0188 9.96635 13.0945C9.99109 13.1703 10.0443 13.2334 10.1147 13.2707C10.1851 13.3079 10.2672 13.3164 10.3437 13.2943C10.4202 13.2721 10.4852 13.2211 10.5248 13.152C10.6135 12.9792 10.6935 12.802 10.7644 12.6211H10.0973Z" fill="#5A78FF"/>
<path d="M12.1305 10.658C12.1305 10.6687 12.1274 10.679 12.1264 10.6897C12.0854 11.2493 11.9216 11.9815 11.7495 12.6215H12.494C12.6537 11.9999 12.8012 11.3123 12.8426 10.7568C12.9338 10.1378 12.5554 8.97452 12.305 8.2951C14.4491 8.37685 16.5875 8.57117 18.7112 8.87724C22.35 9.40358 26.7394 11.5847 26.7834 11.6067C26.8256 11.6288 26.8717 11.6422 26.9192 11.6462C26.9666 11.6502 27.0144 11.6447 27.0597 11.6301C27.105 11.6154 27.1469 11.5919 27.183 11.5609C27.2191 11.5298 27.2486 11.4919 27.2699 11.4493C27.2912 11.4068 27.3038 11.3604 27.307 11.3129C27.3101 11.2654 27.3038 11.2177 27.2883 11.1727C27.2729 11.1277 27.2486 11.0862 27.2169 11.0506C27.1853 11.0151 27.1469 10.9862 27.1039 10.9657C26.9206 10.8735 22.5686 8.71289 18.8141 8.16761C14.9229 7.60441 11.8105 7.56448 11.7797 7.56448C11.7205 7.5638 11.662 7.57783 11.6095 7.60529C11.557 7.63276 11.5122 7.67281 11.4789 7.72186C11.4457 7.77091 11.4252 7.82743 11.4191 7.88637C11.4131 7.9453 11.4218 8.00482 11.4444 8.05958C11.7505 8.8071 12.2103 10.17 12.1305 10.658V10.658ZM10.5264 10.7312C10.5863 11.4132 10.2765 12.2242 10.0999 12.6215H10.7655C10.9621 12.1279 11.1976 11.3686 11.1367 10.6759C11.0504 9.74736 10.7375 8.85422 10.2253 8.07494C10.2018 8.04213 10.172 8.01427 10.1377 7.99296C10.1034 7.97166 10.0652 7.95731 10.0254 7.95075C9.98556 7.94419 9.94482 7.94554 9.9055 7.95473C9.86618 7.96391 9.82905 7.98075 9.79624 8.00428C9.76343 8.02782 9.73558 8.05758 9.71427 8.09188C9.69296 8.12618 9.67862 8.16434 9.67205 8.20418C9.66549 8.24402 9.66684 8.28476 9.67603 8.32408C9.68522 8.3634 9.70205 8.40053 9.72559 8.43334C10.1717 9.12459 10.4462 9.9124 10.5264 10.7312V10.7312Z" fill="#2800FF"/>
<path d="M11.7561 22.5234C11.5457 23.3135 11.327 23.9637 11.3229 23.9755C11.2933 24.0653 11.3004 24.1631 11.3426 24.2478C11.3848 24.3324 11.4588 24.3969 11.5484 24.4272C11.6379 24.4575 11.7359 24.4512 11.8208 24.4097C11.9057 24.3681 11.9708 24.2947 12.0019 24.2054C12.0198 24.1542 12.2717 23.4041 12.4975 22.5234H11.7561ZM10.1064 22.5234C10.0404 22.6714 9.99327 22.762 9.99071 22.7671C9.95262 22.8392 9.94471 22.9234 9.96871 23.0013C9.99272 23.0791 10.0467 23.1443 10.1187 23.1824C10.1907 23.2205 10.275 23.2284 10.3528 23.2044C10.4307 23.1804 10.4959 23.1264 10.5339 23.0544C10.6227 22.8815 10.7026 22.7043 10.7736 22.5234H10.1064Z" fill="#FEC1EE"/>
<path d="M12.1328 20.5589C12.1311 20.5694 12.1299 20.58 12.1292 20.5906C12.0878 21.1502 11.9244 21.8824 11.7524 22.5224H12.4938C12.6535 21.9008 12.801 21.2132 12.843 20.6577C12.9341 20.0387 12.5557 18.8754 12.3049 18.196C14.4491 18.2777 16.5876 18.4721 18.7115 18.7781C22.3498 19.3045 26.7397 21.4856 26.7832 21.5076C26.8253 21.5287 26.8711 21.5413 26.9181 21.5446C26.965 21.548 27.0122 21.5421 27.0568 21.5272C27.1015 21.5124 27.1428 21.4889 27.1784 21.4581C27.214 21.4272 27.2431 21.3897 27.2642 21.3476C27.2853 21.3055 27.2979 21.2597 27.3012 21.2127C27.3046 21.1658 27.2987 21.1186 27.2838 21.074C27.269 21.0293 27.2455 20.988 27.2147 20.9524C27.1838 20.9168 27.1463 20.8877 27.1042 20.8666C26.9209 20.7744 22.5689 18.6138 18.8139 18.0685C16.4831 17.7289 14.1342 17.5274 11.7795 17.4649C11.7203 17.4642 11.6618 17.4783 11.6093 17.5059C11.5568 17.5334 11.512 17.5735 11.4788 17.6226C11.4456 17.6717 11.4251 17.7283 11.4192 17.7872C11.4132 17.8462 11.422 17.9057 11.4447 17.9605C11.7545 18.706 12.2142 20.0704 12.1328 20.5589V20.5589ZM10.5298 20.6336C10.5902 21.3156 10.2799 22.1266 10.1038 22.5239H10.7694C10.9655 22.0304 11.2015 21.2711 11.1406 20.5783C11.0543 19.6498 10.7414 18.7567 10.2292 17.9774C10.1817 17.9111 10.1098 17.8664 10.0293 17.8532C9.94885 17.8399 9.86642 17.8592 9.80015 17.9067C9.73388 17.9542 9.68921 18.0262 9.67596 18.1066C9.66271 18.1871 9.68197 18.2695 9.72949 18.3358C10.1753 19.0271 10.4497 19.8149 10.5298 20.6336Z" fill="#FF7698"/>
</svg>
