<svg width="32" height="32" viewBox="0 0 32 32" fill="none" xmlns="http://www.w3.org/2000/svg">
<path d="M28.3525 11.9898C21.7103 15.231 15.0897 18.4602 8.41269 21.7175C9.76366 23.4723 11.4259 24.6193 13.4731 25.164C18.8286 26.5874 24.0071 23.4467 25.2655 18.0214C25.3648 17.5948 25.5432 17.3251 25.9497 17.1413C26.9411 16.6947 27.9138 16.2036 28.9025 15.7274C30.0455 20.5248 25.0482 27.1964 19.2714 28.6507C12.1717 30.4377 5.15537 26.2318 3.33217 19.1001C1.61228 12.3681 5.82615 5.2242 12.5112 3.43856C19.7637 1.5 26.5521 5.93522 28.3525 11.9898ZM23.5214 10.3342C21.4058 7.11178 16.2541 5.24164 11.725 7.52231C6.91416 9.94514 5.74029 15.4308 6.90209 18.4387C12.4414 15.7381 17.9781 13.0388 23.5214 10.3342Z" fill="#F7531E"/>
</svg>
