<svg width="831" height="831" viewBox="0 0 831 831" fill="none" xmlns="http://www.w3.org/2000/svg">
<g clip-path="url(#clip0_14:310)">
<path d="M830.5 510.1C830.5 509.1 830.5 508.1 830.5 507.2C830.6 507.1 830.6 507.2 830.7 507.2C830.7 508.2 830.7 509.1 830.7 510.1C830.7 510.2 830.6 510.2 830.5 510.1Z" fill="#FDDB3F"/>
<path d="M830.7 507.2C830.6 507.2 830.6 507.2 830.5 507.2C830.5 506.5 830.5 505.8 830.5 505.1C830.6 505.1 830.6 505.1 830.7 505.1C830.7 505.8 830.7 506.5 830.7 507.2Z" fill="#FDEB94"/>
<path d="M830.5 510.1C830.6 510.1 830.6 510.1 830.7 510.1C830.7 510.7 830.7 511.2 830.7 511.8C830.3 511.3 830.6 510.7 830.5 510.1Z" fill="#FEE679"/>
<path d="M172 274.4C186 275.1 199.7 277 213.5 279.6C220.9 281 228.3 282.6 235.5 285C236.6 285.4 237.7 285.9 238.8 286.2C239.8 286.5 240.1 287 240.1 288.1C240.1 310.5 240.1 333 240.1 355.4C240.1 356.7 240.1 358 240.1 359.4C235.9 358.2 231.8 357 227.7 355.8C214.6 352.1 201.2 349.1 187.7 347.3C175.3 345.6 162.8 345.1 150.3 346.8C139.5 348.2 129.2 351.1 119.9 356.9C108.2 364.2 100.7 374.7 96.3 387.6C93.5 396 92.2 404.7 91.9 413.6C91.6 421.5 91.9 429.4 93.1 437.3C94.6 446.6 97.3 455.5 102.6 463.4C109.6 473.7 119.5 479.6 131.4 482.3C137.9 483.8 144.5 484.6 151.1 483.9C163.5 482.7 174.4 478.1 182.6 468.2C183 467.8 183.3 467.3 183.6 466.8C183.7 466.7 183.7 466.6 183.7 466.5C183.3 466.3 182.8 466.4 182.4 466.4C166.6 466.4 150.7 466.4 134.9 466.4C133.8 466.4 133.4 466.2 133.4 465C133.4 445.6 133.4 426.3 133.4 406.9C133.4 405.8 133.7 405.5 134.8 405.5C179.1 405.5 223.3 405.5 267.6 405.5C268.7 405.5 269 405.8 269 406.9C269 454.7 269 502.6 269 550.4C269 551.4 268.8 551.7 267.7 551.7C249.8 551.7 231.9 551.7 213.9 551.7C212.7 551.7 212.5 551.3 212.5 550.2C212.6 537.6 212.7 525 212.8 512.4C212.8 512 212.8 511.5 212.6 511C212.2 511.7 211.9 512.4 211.5 513.1C205.9 523.5 197.7 531.5 188.1 538C175.1 546.7 160.8 552 145.4 554.6C140.9 555.3 136.5 555.8 131.9 556C131.4 556.2 130.9 556 130.4 556.1C129.4 556.1 128.4 556.1 127.4 556.1C126.8 556.1 126.2 556.1 125.7 556.1C124.5 556.1 123.2 556.1 122 556.1C121.4 556.1 120.8 556.1 120.1 556.1C107.9 556.1 96 554.1 84.3 550.7C77.7 548.8 71.3 546.3 65.1 543.2C56.7 539 48.9 533.7 41.8 527.4C34.1 520.5 27.1 512.8 21.4 504.1C14.8 494.1 9.9 483.3 6.4 471.8C4.3 464.7 2.6 457.4 1.6 450C0.8 444.6 0.1 439.2 0.1 433.7C0.1 432.1 0 430.5 0 428.9C0 428.3 0 427.7 0 427C0 425.8 0 424.7 0 423.5C0 422.2 0 420.8 0 419.5C0 418.4 0 417.3 0 416.2C0 415.6 0 415 0 414.3C0 400.3 2.3 386.6 6.3 373.2C8.6 365.6 11.5 358.2 15.1 351.1C19.8 341.8 25.7 333.1 32.6 325.2C40.7 315.8 50 307.7 60.3 300.8C70.2 294.1 80.9 288.9 92.1 284.8C104.6 280.2 117.5 277.3 130.7 275.6C137.3 274.7 144 274.1 150.6 274.1C151.1 274.1 151.5 274.1 152 274.1C152.6 274.1 153.2 274.1 153.8 274.1C154.5 274 155.3 274.2 156 274C159.6 274 163.2 274 166.8 274C167.5 274.3 168.3 274.1 169 274.1C169.5 274.1 170 274.1 170.4 274.1C171 274.4 171.5 274.2 172 274.4Z" fill="#061AB1"/>
<path d="M587.9 556.2C580.3 556 572.7 555.6 565.2 555C555 554.2 544.9 553 534.8 551.3C526 549.8 517.3 548 508.8 545.4C507.8 545.1 507.5 544.7 507.5 543.6C507.5 519.7 507.5 495.8 507.5 471.9C507.5 470.4 507.5 470.4 508.9 470.8C520.4 474.4 532.2 477.1 544.1 479.4C553.2 481.2 562.4 482.7 571.6 483.9C578.9 484.8 586.3 485.4 593.7 485.6C600.3 485.8 606.9 485.5 613.4 484.3C617.1 483.6 620.7 482.5 623.9 480.4C628.3 477.6 630.2 473.4 629.3 468.6C628.9 466.3 627.5 464.7 625.6 463.5C622.5 461.5 619.1 460.4 615.6 459.6C604.7 457.1 593.8 454.6 582.9 452.2C570.9 449.6 559.2 446.2 548 440.9C536 435.2 525.4 427.6 517.5 416.8C511 407.9 507.1 397.9 505.1 387.1C504 381.2 503.6 375.3 503.6 369.3C503.6 353.1 506.5 337.6 514.4 323.3C522.7 308.1 534.8 296.8 550.1 288.7C561.3 282.8 573.2 279.1 585.6 276.9C592.8 275.6 600.1 274.9 607.4 274.5C607.9 274.3 608.4 274.5 608.8 274.4C609.3 274.4 609.9 274.4 610.4 274.4C611.1 274.3 611.7 274.5 612.4 274.3C615.8 274.3 619.1 274.3 622.5 274.3C623.2 274.6 624 274.4 624.7 274.4C625.2 274.4 625.8 274.4 626.3 274.4C626.8 274.4 627.2 274.4 627.7 274.4C634.1 274.4 640.5 274.9 646.8 275.6C657.8 276.7 668.8 278.1 679.7 280C686.6 281.2 693.5 282.5 700.4 284.2C702.4 284.7 702.4 284.8 702.4 286.8C702.4 309.3 702.4 331.8 702.4 354.3C702.4 354.4 702.4 354.5 702.4 354.7C702.4 356.4 702.2 356.5 700.5 356.1C692.5 354.1 684.5 352.3 676.4 350.8C667.3 349.1 658.2 347.5 649.1 346.3C642.8 345.5 636.5 344.8 630.1 344.3C624.6 343.9 619 343.9 613.4 344.1C607.6 344.3 601.9 345.2 596.7 348C593.4 349.8 590.8 352.3 590 356.1C589.1 360.2 590.7 363.6 594.4 366C597.1 367.8 600.1 368.9 603.2 369.7C612.2 372 621.2 374 630.3 376.2C638.6 378.2 647 380 655.1 382.7C666.7 386.6 677.8 391.6 687.6 399.2C698.1 407.3 706 417.5 710.6 430C713.3 437.4 714.9 445.1 715.6 453C716.1 459 716.2 465 715.8 471C714.6 487.1 709.9 502 700.3 515.1C694.5 523.1 687.4 529.7 679.4 535.4C668.3 543.1 656 548.2 643 551.6C635.6 553.5 628.1 554.8 620.6 555.6C615.4 556.2 610.2 556.4 605.1 556.4C604.4 556.4 603.7 556.4 603 556.4C601.6 556.4 600.2 556.4 598.8 556.4C597.9 556.4 597 556.4 596.1 556.4C594.3 556.4 592.5 556.4 590.7 556.4C589.7 556.2 588.8 556.4 587.9 556.2Z" fill="#061AB1"/>
<path d="M830.7 512.5C830.1 514.1 830.1 515.9 829.8 517.6C828 526.4 824.2 534 818 540.5C810.6 548.4 801.5 553.2 790.8 554.6C776 556.6 763 552.4 752.1 542.1C744.7 535.1 740.1 526.4 738.5 516.3C736.3 502.1 739.8 489.3 749.1 478.4C756.3 470 765.4 464.6 776.4 463C794.2 460.3 809.1 465.9 820.6 479.8C826.6 487.1 829.8 495.6 830.6 505C830.8 505.7 830.6 506.4 830.7 507.2C830.7 508.1 830.7 509 830.7 510C830.8 510.6 830.6 511.2 830.8 511.8C830.7 512 830.7 512.3 830.7 512.5Z" fill="#FFD101"/>
<path d="M296.7 415.2C296.7 370.2 296.7 325.1 296.7 280.1C296.7 278.9 297 278.7 298.1 278.7C326.3 278.7 354.6 278.7 382.8 278.7C383.9 278.7 384.1 279 384.1 280.1C384.1 346.4 384.1 412.7 384.1 479C384.1 480.6 384.1 480.6 385.7 480.6C416.5 480.6 447.4 480.6 478.2 480.6C479.4 480.6 479.6 480.9 479.6 482C479.6 504.8 479.6 527.6 479.6 550.4C479.6 551.6 479.2 551.8 478.1 551.8C418.1 551.8 358.1 551.8 298.1 551.8C296.8 551.8 296.6 551.5 296.6 550.2C296.7 505.2 296.7 460.2 296.7 415.2Z" fill="#061AB1"/>
</g>
<defs>
<clipPath id="clip0_14:310">
<rect width="830.8" height="830.8" fill="white"/>
</clipPath>
</defs>
</svg>
