<svg width="32" height="32" viewBox="0 0 32 32" fill="none" xmlns="http://www.w3.org/2000/svg">
<path fill-rule="evenodd" clip-rule="evenodd" d="M31.9828 16.0027C31.9818 18.6831 31.3075 21.3205 30.0217 23.6725C28.736 26.0245 26.88 28.016 24.6242 29.464C22.3684 30.912 19.7849 31.7702 17.111 31.9599C14.437 32.1495 11.7583 31.6646 9.32064 30.5495C10.1241 30.4683 10.908 30.251 11.6385 29.9068C12.747 29.3544 13.6882 28.5168 14.3655 27.4799C14.4196 27.4025 14.4696 27.3225 14.5154 27.24C15.1453 26.1925 15.4452 24.9629 15.4752 23.5556C15.4944 22.099 15.488 20.6553 15.4752 19.2072C15.4752 18.481 15.4752 17.7549 15.4752 17.0244C15.4807 16.9319 15.501 16.8408 15.5351 16.7545L15.6251 16.5746C15.7708 16.3454 15.9336 16.129 16.0985 15.9063C16.1692 15.812 16.242 15.7156 16.3128 15.6171C16.3906 15.5431 16.4623 15.4629 16.527 15.3772C16.557 15.5914 16.5869 15.737 16.6169 15.887C16.6469 16.0369 16.7026 16.1998 16.7433 16.3625C16.8223 16.7312 16.9408 17.0903 17.0968 17.4336C18.5642 20.5803 22.0988 21.8977 25.2157 20.4325C26.6177 19.7798 27.716 18.6143 28.2843 17.1761C28.8525 15.7378 28.8476 14.1365 28.2704 12.7017C27.3728 10.5447 25.7555 9.2573 23.4183 8.92747C22.4412 8.76047 21.4373 8.85236 20.5068 9.19394C19.5761 9.53559 18.7513 10.1151 18.1144 10.8746C17.6141 11.4643 17.1492 12.0829 16.7219 12.7274C16.5676 12.9417 16.4135 13.173 16.2571 13.3915L15.8779 13.8992L15.5051 14.409C15.3743 13.4519 15.0321 12.5359 14.5034 11.7275C13.9747 10.9191 13.2727 10.2385 12.4482 9.73501C11.6316 9.22213 10.7001 8.92069 9.73783 8.85786C8.77558 8.79503 7.8128 8.97277 6.93641 9.3751C6.17906 9.69661 5.49534 10.1693 4.92715 10.7643C4.35895 11.3594 3.91824 12.0641 3.63204 12.8354C3.34584 13.6067 3.22016 14.4284 3.26271 15.25C3.30526 16.0716 3.51515 16.8759 3.8795 17.6135C4.23978 18.3963 4.77146 19.088 5.43521 19.6375C6.09894 20.1869 6.87775 20.5802 7.71399 20.7881C10.1411 21.4178 12.2126 20.7281 13.9457 18.9309C13.9689 18.9998 13.979 19.0725 13.9756 19.1451V23.2493C13.9856 23.6401 13.9655 24.0311 13.9157 24.4188C13.7886 25.2711 13.4656 26.0822 12.9719 26.7884C12.4783 27.4946 11.8275 28.0766 11.0708 28.4888C9.85832 29.1314 8.4852 29.0414 7.21492 28.9536L6.97709 28.9386L6.87211 28.9215C6.72859 28.9022 6.60222 28.8829 6.50796 28.8786C4.30795 27.2574 2.55988 25.0998 1.43041 22.6114C0.300939 20.1229 -0.172286 17.3867 0.0558515 14.6635C0.283989 11.9403 1.20588 9.32093 2.73365 7.0551C4.26141 4.78929 6.34411 2.95252 8.78324 1.71992C11.2223 0.487326 13.9365 -0.100009 16.667 0.0139098C19.3975 0.127829 22.0533 0.939208 24.3813 2.37069C26.7092 3.80217 28.6316 5.80603 29.9653 8.19127C31.299 10.5764 31.9995 13.2635 32 15.9963L31.9828 16.0027ZM27.3086 14.9316C27.3162 15.8644 27.0468 16.7784 26.5346 17.558C26.0223 18.3375 25.2903 18.9475 24.4311 19.3107C23.5719 19.6739 22.6242 19.774 21.708 19.5983C20.7919 19.4226 19.9486 18.979 19.2848 18.3236C18.621 17.6683 18.1666 16.8307 17.9792 15.9169C17.7918 15.0031 17.8798 14.0543 18.232 13.1906C18.5843 12.3269 19.1849 11.5872 19.958 11.065C20.731 10.5429 21.6415 10.2619 22.5744 10.2577C23.8198 10.2519 25.017 10.7394 25.9041 11.6137C26.7912 12.4879 27.2961 13.6777 27.3086 14.9231V14.9316ZM14.0635 14.5932C14.2134 17.9198 11.4585 19.747 9.27137 19.6271C6.60436 19.5071 4.55857 17.35 4.7171 14.7731C4.75781 13.5756 5.25628 12.4393 6.10981 11.5983C6.96333 10.7573 8.10695 10.2757 9.30494 10.2527C10.503 10.2296 11.6643 10.6669 12.5496 11.4743C13.4348 12.2819 13.9767 13.3981 14.0635 14.5932Z" fill="black"/>
</svg>
