<svg height="32" width="32" xmlns="http://www.w3.org/2000/svg" xmlns:xlink="http://www.w3.org/1999/xlink"><clipPath id="a"><path d="m0 444.609h444.609v-444.609h-444.609z"/></clipPath><rect fill="none" height="100%" width="100%"/><g clip-path="url(#a)"><path d="m224.68429565 0h207.88798523v207.86398315m0 0h-69.15732574c-3.18266654 0-6.09199953 1.79733324-7.51866627 4.64266634-1.42533326 2.84666657-1.12399995 6.25199986.78266662 8.80133247 4.53199959 6.06399965 6.92533255 13.28933239 6.92533255 20.89199829 0 19.27999878-15.6853323 34.96666336-34.96666336 34.96666336-19.29066658 0-34.98666382-15.68666649-34.98666382-34.96666336 0-7.60266638 2.39466643-14.82799911 6.92666626-20.89199829 1.90533328-2.5493331 2.20666647-5.95466661.78133333-8.80133247-1.42666662-2.84533334-4.33599997-4.64266634-7.51866627-4.64266634h-69.15599823v-55.15066147c5.55733347 1.99866652 11.45733356 3.02799964 17.5146656 3.02799964 28.56799889 0 51.80932999-23.24266434 51.80932999-51.80932999 0-28.56799889-23.2413311-51.80799484-51.80932999-51.80799484-6.05733347 0-11.95733356 1.028-17.5146656 3.02533317v-55.14933014" fill="#59bd8b"/><path d="m.00004601 0h207.86265564v69.13466644c0 3.18133307 1.79733324 6.09333324 4.64266634 7.51866627 2.83999991 1.42399991 6.24799967 1.1226666 8.79999924-.78133333 6.06799984-4.53199959 13.29199886-6.9279995 20.89333153-6.9279995 19.29333305 0 34.98933029 15.69466591 34.98933029 34.98799515 0 19.29199791-15.69599915 34.98666382-34.98933029 34.98666382-7.60133314 0-14.82533264-2.3933332-20.89333153-6.92666626-2.55199981-1.90666652-5.95999956-2.20799994-8.79999924-.78266662-2.84533334 1.42799985-4.64266634 4.3373332-4.64266634 7.5199995v69.13466644h-55.14399719c1.99599981-5.55733347 3.02266645-11.44799995 3.02266645-17.49466515 0-28.56533051-23.2413311-51.80666351-51.80932999-51.80666351-28.56666374 0-51.80799484 23.2413311-51.80799484 51.80666351 0 6.04666615 1.02666652 11.93866634 3.01999998 17.49466515h-55.14399719z" fill="#f9d889"/><path d="m432.57173157 432.5690279h-207.88798523v-69.13332367c0-3.17999983-1.79466653-6.08799982-4.63599968-7.51466656-2.8373332-1.42933333-6.24266672-1.13066661-8.79599953.7693333-6.07866621 4.52266645-13.29733181 6.91333294-20.8813324 6.91333294-19.29066658 0-34.98666382-15.68399811-34.98666382-34.96533203 0-19.29199791 15.69599915-34.98666382 34.98666382-34.98666382 7.58399963 0 14.80266571 2.38933325 20.8813324 6.91333294 2.55333304 1.89999986 5.95866632 2.19599986 8.79599953.76799995 2.84133315-1.42533326 4.63599968-4.33333302 4.63599968-7.51466656v-69.13332367h55.17333221c-1.99733329 5.55733347-3.0266664 11.45733356-3.0266664 17.51599884 0 28.55466461 23.2413311 51.78533173 51.80799484 51.78533173 28.55599785 0 51.78666306-23.23066521 51.78666306-51.78533173 0-6.05866671-1.028-11.95866585-3.0266664-17.51599884h55.17333221z" fill="#ed6d66"/><path d="m.00004601 224.6849184h69.11332703c3.17999983 0 6.08799982-1.79333329 7.51466656-4.63599968 1.42799985-2.83999991 1.12933326-6.24533319-.76666659-8.79466629-4.52399969-6.07866621-6.91733313-13.30000019-6.91733313-20.88399887 0-19.29199791 15.69599915-34.98799515 34.98799515-34.98799515s34.98799515 15.69599915 34.98799515 34.98799515c0 7.58133268-2.39199996 14.80266571-6.91599941 20.88399887-.71199995.95733327-1.19866657 2.03333306-1.45333326 3.15466642-.16933332.74799997-.23733333 1.51733327-.19866666 2.28266644.05733333 1.14799988.34933332 2.29333329.88533324 3.35866642 1.0693332 2.13066649 2.97333312 3.67199969 5.19999981 4.31066656.74133331.21199998 1.51999986.32399997 2.31466651.32399997h69.11066437v55.16532898c-5.55599928-1.99333322-11.44666576-3.02133322-17.49199867-3.02133322-28.56533051 0-51.80799484 23.24266434-51.80799484 51.80932999 0 28.55599785 23.24266434 51.7879982 51.80799484 51.7879982 6.04533291 0 11.93599892-1.028 17.49199867-3.02133322v55.16399765h-207.86265564z" fill="#5bd0fc"/></g></svg>