<svg width="32" height="32" viewBox="0 0 32 32" fill="none" xmlns="http://www.w3.org/2000/svg">
<path d="M27.619 3.09891C24.2726 1.00741 19.8386 1.42571 15.9066 3.93551C12.0582 1.42571 7.70789 1.00741 4.36149 3.09891C-0.825441 6.36165 -1.49472 14.8113 2.93926 21.9224C6.28567 27.193 11.3889 30.2885 15.9902 30.2048C20.5916 30.2048 25.6948 27.193 28.9576 21.8388C33.4752 14.895 32.8059 6.44532 27.619 3.18257V3.09891ZM5.28175 20.4166C4.41091 18.9593 3.76238 17.3803 3.35757 15.7316C2.93552 14.265 2.76579 12.7374 2.8556 11.2139C3.10658 8.62048 4.19417 6.52898 5.86737 5.44139C7.62423 4.35381 9.96672 4.35381 12.3929 5.27407L13.5641 5.77603C12.1722 7.02386 10.9614 8.45995 9.96671 10.0427C7.28959 14.393 6.45299 19.2453 7.45691 23.01C6.67916 22.2137 5.97885 21.3453 5.36541 20.4166H5.28175ZM28.5393 15.7316C28.1071 17.3845 27.4303 18.9636 26.5314 20.4166C25.9176 21.3451 25.2173 22.2134 24.4399 23.01C25.2765 19.6636 24.7746 15.3969 22.6831 11.4649C22.6577 11.3926 22.6161 11.3271 22.5615 11.2734C22.507 11.2196 22.4408 11.1791 22.3681 11.1548C22.2954 11.1306 22.2182 11.1233 22.1423 11.1336C22.0663 11.1438 21.9938 11.1713 21.9301 11.2139L15.4883 15.2296C15.4229 15.2634 15.3657 15.311 15.3207 15.3693C15.2758 15.4276 15.2442 15.4951 15.2283 15.5669C15.2123 15.6388 15.2123 15.7132 15.2283 15.7851C15.2444 15.8569 15.276 15.9243 15.321 15.9826L16.2412 17.4885C16.2749 17.5539 16.3226 17.6111 16.3809 17.656C16.4392 17.7009 16.5067 17.7325 16.5785 17.7485C16.6503 17.7644 16.7248 17.7644 16.7967 17.7484C16.8685 17.7324 16.9359 17.7008 16.9942 17.6558L21.1772 15.0623L21.5118 16.2336C21.9301 17.7394 22.0974 19.2453 22.0138 20.6675C21.7628 23.3447 20.6752 25.4362 19.002 26.5237C18.0924 27.0703 17.0514 27.3595 15.9902 27.3604H15.9066C14.8454 27.3595 13.8044 27.0703 12.8948 26.5237C11.2216 25.4362 10.134 23.3447 9.88306 20.6675C9.80268 19.1719 9.97233 17.6734 10.385 16.2336C11.2836 12.8972 13.146 9.89988 15.7393 7.61656C16.8561 6.63312 18.1283 5.84157 19.504 5.27407C22.0138 4.27015 24.2726 4.43747 26.0295 5.44139C27.7863 6.52898 28.8739 8.62048 29.0412 11.2976C29.1488 12.7886 29.0074 14.287 28.6229 15.7316H28.5393Z" fill="#1BDBDB"/>
</svg>
