<svg width="32" height="32" viewBox="0 0 32 32" fill="none" xmlns="http://www.w3.org/2000/svg">
<path d="M16.1529 12.459C15.9429 12.4632 15.7388 12.5293 15.5662 12.649C15.3936 12.7687 15.2602 12.9368 15.1828 13.132C15.1053 13.3272 15.0872 13.541 15.1307 13.7465C15.1742 13.952 15.2775 14.14 15.4275 14.2871C15.5775 14.4341 15.7675 14.5336 15.9738 14.5731C16.1802 14.6126 16.3935 14.5902 16.5872 14.5089C16.7809 14.4276 16.9462 14.2909 17.0625 14.116C17.1788 13.941 17.2408 13.7357 17.2409 13.5256C17.2409 13.3837 17.2126 13.2433 17.1577 13.1124C17.1028 12.9816 17.0223 12.8631 16.921 12.7637C16.8196 12.6644 16.6995 12.5863 16.5676 12.534C16.4357 12.4816 16.2947 12.4561 16.1529 12.459V12.459ZM12.1102 12.459C11.9002 12.4632 11.6961 12.5293 11.5235 12.649C11.3509 12.7687 11.2176 12.9368 11.1401 13.132C11.0626 13.3272 11.0445 13.541 11.088 13.7465C11.1316 13.952 11.2348 14.14 11.3848 14.2871C11.5348 14.4341 11.7249 14.5336 11.9312 14.5731C12.1375 14.6126 12.3509 14.5902 12.5445 14.5089C12.7382 14.4276 12.9035 14.2909 13.0198 14.116C13.1361 13.941 13.1982 13.7357 13.1982 13.5256C13.1983 13.3834 13.1699 13.2427 13.1147 13.1116C13.0596 12.9805 12.9787 12.8618 12.877 12.7624C12.7753 12.6631 12.6548 12.585 12.5225 12.5329C12.3902 12.4808 12.2488 12.4556 12.1067 12.459H12.1102ZM28.4444 13.8812C28.4472 11.5261 27.7816 9.21849 26.5249 7.22663C25.2683 5.23477 23.4722 3.64039 21.3454 2.62876C19.2186 1.61713 16.8484 1.22979 14.5102 1.51173C12.172 1.79367 9.96184 2.73333 8.13647 4.22152C6.31111 5.7097 4.94552 7.68532 4.19837 9.9188C3.45123 12.1523 3.35321 14.5519 3.91571 16.8389C4.47821 19.1259 5.67812 21.2063 7.37603 22.8384C9.07394 24.4705 11.2001 25.5873 13.5075 26.059V30.5959C13.5075 30.5959 18.6809 29.0847 24.3627 23.7407C28.416 19.9221 28.4409 14.4714 28.4409 14.4714C28.4373 14.2794 28.4409 14.0767 28.4409 13.8705L28.4444 13.8812ZM24.8391 14.0945C24.8391 14.0945 24.8391 17.8776 21.9947 20.5265C19.6108 22.7525 16.7325 24.3806 13.5964 25.2767V21.9132C12.0752 21.4324 10.7169 20.5396 9.67209 19.3339C8.62732 18.1281 7.93696 16.6566 7.67757 15.0824C7.41818 13.5082 7.59991 11.8929 8.20259 10.4157C8.80528 8.93854 9.80536 7.65715 11.0919 6.7137C12.3785 5.77025 13.9012 5.20161 15.4913 5.07085C17.0813 4.9401 18.6765 5.25233 20.0999 5.97293C21.5233 6.69353 22.7193 7.79432 23.5552 9.15322C24.3911 10.5121 24.8343 12.076 24.8355 13.6714C24.8355 13.8136 24.8355 13.9559 24.8355 14.0945H24.8391ZM19.8862 12.459C19.6762 12.4632 19.4721 12.5293 19.2995 12.649C19.1269 12.7687 18.9936 12.9368 18.9161 13.132C18.8386 13.3272 18.8205 13.541 18.864 13.7465C18.9076 13.952 19.0108 14.14 19.1608 14.2871C19.3108 14.4341 19.5009 14.5336 19.7072 14.5731C19.9135 14.6126 20.1269 14.5902 20.3205 14.5089C20.5142 14.4276 20.6795 14.2909 20.7958 14.116C20.9121 13.941 20.9742 13.7357 20.9742 13.5256C20.9742 13.3837 20.946 13.2433 20.891 13.1124C20.8361 12.9816 20.7556 12.8631 20.6543 12.7637C20.553 12.6644 20.4329 12.5863 20.301 12.534C20.1691 12.4816 20.0281 12.4561 19.8862 12.459V12.459Z" fill="#00BCD3"/>
</svg>
