<svg width="32" height="32" viewBox="0 0 32 32" fill="none" xmlns="http://www.w3.org/2000/svg">
<path d="M14.8245 15.5874V16.5455C14.8245 18.4616 14.1924 20.0318 12.9283 21.2559C11.6642 22.4669 10.0142 23.0723 7.97829 23.0723C5.82265 23.0723 4.03958 22.3737 2.6291 20.9765C1.23192 19.5794 0.533325 17.8628 0.533325 15.8269C0.533325 13.8043 1.23192 12.0945 2.6291 10.6973C4.03958 9.28678 5.78273 8.58154 7.85855 8.58154C9.16261 8.58154 10.3535 8.88094 11.4314 9.47973C12.5092 10.0785 13.3475 10.8836 13.9463 11.8949L11.9702 13.0326C11.5976 12.3672 11.0454 11.835 10.3136 11.4358C9.58175 11.0233 8.76341 10.817 7.85855 10.817C6.39482 10.817 5.19059 11.2961 4.24584 12.2541C3.30107 13.2122 2.8287 14.4098 2.8287 15.8469C2.8287 17.284 3.30107 18.4749 4.24584 19.4197C5.2039 20.3644 6.45471 20.8368 7.99829 20.8368C9.23578 20.8368 10.2404 20.5507 11.0122 19.9786C11.7973 19.3931 12.2963 18.6146 12.5092 17.6433H7.83861V15.5874H14.8245Z" fill="#57D68D"/>
<path fill-rule="evenodd" clip-rule="evenodd" d="M28.0952 18.5552C27.855 18.9397 27.5656 19.2904 27.2356 19.5982L25.8561 18.2186C25.696 18.0585 25.4365 18.0585 25.2764 18.2186C25.1164 18.3786 25.1164 18.6381 25.2764 18.7982L26.5896 20.1113C26.2666 20.3282 25.9178 20.5095 25.5487 20.6497L24.7512 19.8521C24.5911 19.6921 24.3316 19.6921 24.1716 19.8521C24.0115 20.0122 24.0115 20.2717 24.1716 20.4317L24.6415 20.9016C24.3418 20.9557 24.0332 20.9841 23.718 20.9841C20.8698 20.9841 18.5608 18.6751 18.5608 15.8268C18.5608 12.9786 20.8698 10.6697 23.718 10.6697C25.159 10.6697 26.4618 11.2606 27.3976 12.2133H23.3338L20.713 14.8341L21.6261 15.441C22.0666 15.7338 22.6525 15.6754 23.0265 15.3013L23.9339 14.394L28.0952 18.5552ZM31.0115 15.8268C31.0115 19.8549 27.7461 23.1204 23.718 23.1204C19.6899 23.1204 16.4245 19.8549 16.4245 15.8268C16.4245 11.7987 19.6899 8.53333 23.718 8.53333C27.7461 8.53333 31.0115 11.7987 31.0115 15.8268Z" fill="#57D68D"/>
</svg>
