<svg width="256" height="252" viewBox="0 0 256 252" xmlns="http://www.w3.org/2000/svg" preserveAspectRatio="xMidYMid"><defs><linearGradient x1=".041%" y1="50.091%" x2="100.078%" y2="50.091%" id="a"><stop stop-color="#4284F0" offset="0%"/><stop stop-color="#4487F4" offset="100%"/></linearGradient><linearGradient x1="28.448%" y1="81.561%" x2="55.474%" y2="42.237%" id="b"><stop stop-color="#F5B406" offset="0%"/><stop stop-color="#F4B913" offset="100%"/></linearGradient></defs><path d="M254.2 154.4L209.4 252H102.3l58.6-126h75c14.6 0 24.3 15.1 18.3 28.4z" fill="#437DE6"/><path d="M235.9 127.8c6.3 0 12 3.1 15.4 8.4 3.4 5.3 3.8 11.8 1.2 17.5l-44.2 96.6H107.2l56.9-122.5h71.8zm0-1.8H163l-58.6 126h105l44.7-97.6c6.1-13.3-3.6-28.4-18.2-28.4z" fill="#196CEA"/><path d="M62.1 1.8s56.2 61 69.4 67.3L149.8 29c6.4-12.7-1.8-27.5-17.1-27.3l-70.6.1z" fill="url(#a)" transform="translate(102 126)"/><path d="M112.9 10.9L0 252h104.4L165 121.7 221.6 0H130c-7.3 0-14 4.2-17.1 10.9z" fill="url(#b)"/><path d="M218.8 1.8L163.4 121l-60.1 129.3H2.8L114.5 11.6c2.8-6 8.9-9.9 15.5-9.9h88.8v.1zm2.8-1.8H130c-7.3 0-14 4.2-17.1 10.9L0 252h104.4L165 121.7 221.6 0z" fill="#F3AA00"/></svg>