<svg width="32" height="32" viewBox="0 0 32 32" fill="none" xmlns="http://www.w3.org/2000/svg">
<path d="M20.3054 10.0916H21.2814L24.063 7.30998L24.1996 6.12901C22.6061 4.72254 20.6804 3.74551 18.6043 3.29022C16.5282 2.83493 14.3704 2.91641 12.3345 3.52697C10.2987 4.13752 8.45214 5.25699 6.96925 6.77963C5.48637 8.30226 4.41612 10.1778 3.85962 12.2291C4.1695 12.102 4.51278 12.0814 4.83563 12.1705L10.3989 11.2531C10.3989 11.2531 10.6819 10.7846 10.8283 10.8138C12.0203 9.50469 13.6677 8.70069 15.4331 8.56642C17.1986 8.43215 18.9486 8.97778 20.3249 10.0916H20.3054Z" fill="#EA4335"/>
<path d="M28.0257 12.2292C27.3863 9.87472 26.0736 7.75806 24.2486 6.13892L20.3445 10.0429C21.1582 10.7078 21.8102 11.5487 22.2515 12.5022C22.6928 13.4558 22.9117 14.4971 22.8919 15.5476V16.2406C23.3482 16.2406 23.8 16.3305 24.2216 16.5051C24.6431 16.6797 25.0262 16.9356 25.3488 17.2583C25.6715 17.5809 25.9274 17.964 26.102 18.3855C26.2766 18.8071 26.3665 19.2589 26.3665 19.7152C26.3665 20.1715 26.2766 20.6233 26.102 21.0449C25.9274 21.4664 25.6715 21.8495 25.3488 22.1721C25.0262 22.4947 24.6431 22.7507 24.2216 22.9253C23.8 23.0999 23.3482 23.1898 22.8919 23.1898H15.9427L15.2498 23.8925V28.0601L15.9427 28.753H22.8919C24.8324 28.7681 26.7263 28.1582 28.2933 27.0136C29.8604 25.8689 31.0174 24.2502 31.5931 22.397C32.1689 20.5438 32.1329 18.5545 31.4904 16.7233C30.848 14.8922 29.6331 13.3164 28.0257 12.2292V12.2292Z" fill="#4285F4"/>
<path d="M8.98372 28.7139H15.9329V23.1507H8.98372C8.48862 23.1506 7.99933 23.0441 7.54899 22.8384L6.57298 23.1409L3.77183 25.9226L3.52783 26.8986C5.09865 28.0847 7.01538 28.7225 8.98372 28.7139V28.7139Z" fill="#34A853"/>
<path d="M8.98385 10.6675C7.10096 10.6788 5.26859 11.2778 3.74268 12.381C2.21677 13.4842 1.07352 15.0364 0.472604 16.8209C-0.12831 18.6054 -0.156876 20.533 0.390893 22.3344C0.938663 24.1359 2.03541 25.7214 3.52796 26.8693L7.55888 22.8384C7.04663 22.6069 6.59818 22.2547 6.252 21.8118C5.90583 21.369 5.67225 20.8488 5.57133 20.2958C5.47041 19.7428 5.50515 19.1736 5.67257 18.637C5.83999 18.1005 6.13509 17.6125 6.53255 17.215C6.93001 16.8176 7.41797 16.5225 7.95456 16.3551C8.49115 16.1876 9.06034 16.1529 9.61331 16.2538C10.1663 16.3547 10.6865 16.5883 11.1293 16.9345C11.5722 17.2807 11.9244 17.7291 12.1559 18.2414L16.1868 14.2104C15.3407 13.1044 14.2503 12.209 13.0007 11.5944C11.7512 10.9798 10.3764 10.6626 8.98385 10.6675V10.6675Z" fill="#FBBC05"/>
</svg>
