<svg width="2443" height="2443" viewBox="0 0 2443 2443" fill="none" xmlns="http://www.w3.org/2000/svg">
<path d="M50.4 1721.6L862.5 314.9L1566.2 721.2L754.2 2127.9L50.4 1721.6Z" fill="#FBBC04"/>
<path d="M2385.1 1716.7L1572.5 309.5C1467.6 111.1 1221.8 35.2999 1023.4 140.2C825 245.1 749.3 490.9 854.1 689.3C858.7 698 863.6 706.5 868.8 714.9L1681.4 2122.1C1791 2317.9 2038.6 2387.8 2234.4 2278.2C2430.2 2168.6 2500.1 1921 2390.5 1725.2C2388.7 1722 2386.9 1718.9 2385.1 1715.8V1716.7Z" fill="#4285F4"/>
<path d="M406.3 2327.9C630.693 2327.9 812.6 2145.99 812.6 1921.6C812.6 1697.21 630.693 1515.3 406.3 1515.3C181.907 1515.3 0 1697.21 0 1921.6C0 2145.99 181.907 2327.9 406.3 2327.9Z" fill="#34A853"/>
</svg>
