<svg xmlns="http://www.w3.org/2000/svg" data-name="Layer 1" viewBox="0 0 612 490">
  <path fill="#424242" fill-rule="evenodd" d="M376.4 220.8l-37.3 37.4a52.4 52.4 0 11-73.7 73.6l-37.3 37.4a105 105 0 10148.3-148.4z"/>
  <path fill="#757575" fill-rule="evenodd" d="M306 107.5a191.2 191.2 0 100 382.5 191.2 191.2 0 000-382.5m0 327.2a136 136 0 11136-136 136 136 0 01-136 136"/>
  <path fill="#626261" fill-rule="evenodd" d="M600.3 280.1l-78.2-24.6a222 222 0 012.5 79.8h75.7c7-2 11.7-6.3 11.7-12.8V293c0-6.4-4.7-10.9-11.7-12.8M305 84.8a222 222 0 0145.9 4.8l-28.1-78c-2-7-6.4-11.6-12.8-11.6h-11.7c-6.4 0-11 4.7-12.8 11.7L261 89.2a222 222 0 0144-4.4M84.9 302.3a222.3 222.3 0 015-46.8l-78.2 24.6c-7 2-11.7 6.4-11.7 12.8v29.6c0 6.4 4.7 10.8 11.7 12.8h75.7a224.5 224.5 0 01-2.5-33m221.1-80a76.5 76.5 0 1076.5 76.5 76.5 76.5 0 00-76.5-76.5zm0 114.7a38.3 38.3 0 1138.3-38.2A38.3 38.3 0 01306 337z"/>
</svg>
