<svg width="32" height="32" viewBox="0 0 32 32" fill="none" xmlns="http://www.w3.org/2000/svg">
<g clip-path="url(#clip0_3186_204)">
<path d="M19.5609 0.532124C18.4967 0.1935 17.3357 0 16.1505 0C12.74 0 9.66824 1.548 7.6123 3.99093L12.8852 8.41723L19.5609 0.532124Z" fill="#1A73E8"/>
<path d="M7.61224 3.99097C5.99169 5.92596 5 8.44146 5 11.1505C5 13.2548 5.41119 14.9479 6.11262 16.4717L12.8851 8.41727L7.61224 3.99097V3.99097Z" fill="#EA4335"/>
<path d="M16.1745 6.89353C18.5449 6.89353 20.4557 8.80433 20.4557 11.1747C20.4557 12.2148 20.0687 13.1823 19.4398 13.9321C19.4398 13.9321 22.8019 9.91696 26.0914 6.02278C24.7369 3.41053 22.3907 1.42716 19.5607 0.532227L12.885 8.41734C13.6832 7.49821 14.8442 6.89353 16.1745 6.89353" fill="#4285F4"/>
<path d="M16.1745 15.4316C13.8042 15.4316 11.8933 13.5208 11.8933 11.1504C11.8933 10.1104 12.2562 9.14286 12.885 8.41724L6.11255 16.4717C7.27355 19.0355 9.20854 21.1156 11.1919 23.7037L19.4398 13.9078C18.6416 14.8511 17.4807 15.4316 16.1745 15.4316Z" fill="#FBBC04"/>
<path d="M19.2947 26.4127C23.0196 20.5835 27.3491 17.9471 27.3491 11.1746C27.3491 9.3122 26.8896 7.5707 26.0914 6.02271L11.1919 23.7037C11.8208 24.5261 12.4738 25.4694 13.1027 26.4369C15.3763 29.9441 14.7474 32.0242 16.1987 32.0242C17.6499 32.0242 17.0211 29.9199 19.2947 26.4127" fill="#34A853"/>
</g>
<defs>
<clipPath id="clip0_3186_204">
<rect width="22.325" height="32" fill="white" transform="translate(5)"/>
</clipPath>
</defs>
</svg>
