<svg width="32" height="32" viewBox="0 0 32 32" fill="none" xmlns="http://www.w3.org/2000/svg">
<g clip-path="url(#clip0)">
<path d="M7.61649 16.3604L12.8001 13.5194C14.0195 12.8234 14.4463 11.3714 13.7146 10.2134C12.983 9.05443 11.4587 8.64844 10.2393 9.34144L1.33643 14.2744L7.61548 16.3634L7.61649 16.3604Z" fill="#EA4335"/>
<path d="M11.52 23.7274C12.3736 23.7274 13.2882 23.2634 13.715 22.5084C14.4466 21.3484 14.0208 19.8404 12.8004 19.2014L3.83561 14.2754C2.61618 13.5794 1.03092 13.9844 0.359239 15.1454C-0.372418 16.3054 0.0533826 17.8134 1.27481 18.4524L10.2376 23.3814C10.6644 23.6134 11.0912 23.7284 11.52 23.7284V23.7274Z" fill="#4285F4"/>
<path d="M20.4835 23.7268C20.9103 23.7268 21.3371 23.6098 21.7659 23.3798L30.7268 18.4488L24.4467 16.3008L19.2021 19.2018C17.9827 19.8978 17.5559 21.3498 18.2866 22.5078C18.7144 23.2618 19.569 23.7278 20.4825 23.7278L20.4835 23.7268Z" fill="#FBBC04"/>
<path d="M29.4458 18.7968C30.2994 18.7968 31.2139 18.3328 31.6407 17.5778C32.3724 16.4178 31.9466 14.9098 30.7262 14.2708L21.7644 9.34178C20.5439 8.64578 18.9587 9.05077 18.288 10.2118C17.5563 11.3718 17.9821 12.8798 19.2025 13.5188L28.1664 18.4478C28.5302 18.6798 28.959 18.7948 29.4477 18.7948L29.4458 18.7968Z" fill="#0F9D58"/>
</g>
<defs>
<clipPath id="clip0">
<rect width="32" height="14.728" fill="white" transform="translate(0 9)"/>
</clipPath>
</defs>
</svg>
