<svg width="32" height="32" viewBox="0 0 32 32" fill="none" xmlns="http://www.w3.org/2000/svg">
<g clip-path="url(#clip0_3186_190)">
<path d="M0 28.3274L15.4178 4.12622L23.6819 9.39109L11.618 28.3274H0Z" fill="#FBBC04"/>
<path d="M15.0919 4H24.5824V28.3274H15.0919V4Z" fill="#1A73E8"/>
<path d="M5.25732 13.8125C7.85533 13.8125 9.96142 11.7064 9.96142 9.1084C9.96142 6.51039 7.85533 4.4043 5.25732 4.4043C2.65932 4.4043 0.553223 6.51039 0.553223 9.1084C0.553223 11.7064 2.65932 13.8125 5.25732 13.8125Z" fill="#EA4335"/>
<path d="M31.3418 21.5679C31.3418 23.3606 30.6297 25.0799 29.362 26.3475C28.0944 27.6152 26.3751 28.3273 24.5824 28.3273V14.8091C26.375 14.8091 28.0942 15.5211 29.3618 16.7887C30.6294 18.0562 31.3417 19.7753 31.3418 21.5679Z" fill="#34A853"/>
<path d="M24.5823 14.8091V28.3273C22.801 28.3102 21.0985 27.5905 19.8449 26.3248C18.5913 25.059 17.8881 23.3496 17.8881 21.5682C17.8881 19.7868 18.5913 18.0774 19.8449 16.8117C21.0985 15.5459 22.801 14.8263 24.5823 14.8091V14.8091Z" fill="#0D652D"/>
<path d="M29.7845 9.607C29.7843 10.9866 29.2362 12.3097 28.2606 13.2852C27.2851 14.2608 25.962 14.8089 24.5824 14.8091V4.4043C25.9621 4.40446 27.2853 4.95268 28.2609 5.92836C29.2364 6.90403 29.7845 8.22727 29.7845 9.607V9.607Z" fill="#1A73E8"/>
<path d="M24.5824 4.4043V14.8091C23.2126 14.794 21.9039 14.2393 20.9406 13.2653C19.9772 12.2913 19.4369 10.9766 19.4369 9.60669C19.4369 8.23675 19.9772 6.92209 20.9406 5.94808C21.9039 4.97408 23.2126 4.41935 24.5824 4.4043V4.4043Z" fill="#174EA6"/>
</g>
<defs>
<clipPath id="clip0_3186_190">
<rect width="32" height="24.9856" fill="white" transform="translate(0 4)"/>
</clipPath>
</defs>
</svg>
