<svg width="32" height="32" viewBox="0 0 32 32" fill="none" xmlns="http://www.w3.org/2000/svg">
<path d="M31.9755 15.7381H28.0473L28.0261 15.328C28.0147 15.1018 27.9919 14.7878 27.9756 14.6283C27.9593 14.4689 27.925 14.1662 27.8989 13.9547C27.8729 13.7432 27.8223 13.421 27.7848 13.2387C27.7474 13.0565 27.6887 12.7831 27.6561 12.6285C27.6235 12.474 27.5664 12.2462 27.5306 12.1225C27.4947 11.9988 27.4409 11.8247 27.4116 11.7368L27.2486 11.2487C27.1883 11.073 27.0546 10.7264 26.9487 10.4774C26.8427 10.2285 26.6227 9.78913 26.4711 9.50112C26.3195 9.21311 26.0538 8.78353 25.8973 8.55247C25.7408 8.32142 25.4866 7.98296 25.335 7.79909C25.1834 7.61522 24.9226 7.31908 24.7547 7.14822C24.5868 6.97737 24.3015 6.6975 24.1239 6.53641C23.9462 6.37532 23.6251 6.11172 23.4132 5.949C23.2013 5.78628 22.8264 5.52919 22.5787 5.37461C22.3309 5.22003 21.9136 4.98734 21.6479 4.85392C21.3822 4.72049 21.0562 4.56265 20.9226 4.50407C20.7889 4.44549 20.4825 4.32508 20.2412 4.23722C20 4.14935 19.5632 4.01592 19.2747 3.9427C18.9861 3.86948 18.5901 3.77998 18.3961 3.74907C18.2021 3.71815 17.8598 3.66771 17.6398 3.64167C17.4197 3.61564 16.9682 3.57821 16.6406 3.55868C16.313 3.53916 15.8468 3.53102 15.5941 3.54404C15.3415 3.55706 14.9128 3.58472 14.6292 3.60913C14.3456 3.63353 13.9772 3.67747 13.8142 3.70513C13.6512 3.73279 13.4067 3.77673 13.2828 3.80114C13.1589 3.82554 12.8329 3.90364 12.5591 3.97524C12.2852 4.04684 11.7995 4.20467 11.48 4.32671C11.1606 4.44875 10.665 4.66354 10.3814 4.80673C10.0978 4.94992 9.63978 5.20701 9.36757 5.37949C9.09536 5.55197 8.6846 5.83672 8.45477 6.01409C8.22494 6.19145 7.84841 6.51363 7.62021 6.72516C7.39201 6.9367 7.03505 7.30931 6.82641 7.55014C6.61777 7.79096 6.29829 8.201 6.11736 8.46623C5.93644 8.73146 5.66422 9.16754 5.51263 9.44254C5.36104 9.71753 5.13774 10.1715 5.02364 10.4546C4.90954 10.7378 4.74002 11.1559 4.66504 11.3854C4.59006 11.6148 4.49063 11.9272 4.44499 12.0769C4.39935 12.2266 4.33904 12.4626 4.3097 12.5992C4.28036 12.7359 4.22983 12.9686 4.1956 13.1183C4.16137 13.268 4.12062 13.5007 4.10269 13.6406L4.02282 14.2622C3.99674 14.4656 3.9674 14.835 3.95762 15.0758C3.94784 15.3166 3.93154 15.564 3.92176 15.6307C3.90383 15.7348 3.90383 15.7348 1.95599 15.7348C0.428688 15.7348 0 15.725 0 15.6941C0 15.6632 5.96897e-06 15.3573 0.0163059 14.9961C0.0326058 14.6348 0.0635713 14.1695 0.0831312 13.9661C0.102691 13.7627 0.138549 13.4665 0.162999 13.3152C0.187449 13.1639 0.223306 12.9165 0.241236 12.7847C0.259166 12.6529 0.301548 12.4268 0.335778 12.2868C0.370008 12.1469 0.436841 11.8703 0.482481 11.675C0.528121 11.4798 0.586795 11.2422 0.609615 11.1446C0.632435 11.0469 0.749797 10.6938 0.867157 10.357C0.984516 10.0202 1.12796 9.63129 1.19316 9.48973C1.25835 9.34816 1.41484 8.98693 1.55339 8.6859C1.69194 8.38488 1.96251 7.87232 2.15159 7.54688C2.34067 7.22145 2.61777 6.78049 2.76447 6.57058C2.91117 6.36067 3.14263 6.04012 3.27629 5.86113C3.40995 5.68214 3.72943 5.29976 3.9886 5.00849C4.24776 4.71723 4.7009 4.26162 5.03505 3.9606C5.3692 3.65957 5.87123 3.24952 6.20049 3.0087C6.52974 2.76788 7.03667 2.43431 7.34148 2.25858C7.64629 2.08284 8.00815 1.88107 8.15648 1.80785C8.3048 1.73463 8.67482 1.55727 8.98615 1.4157C9.29747 1.27414 9.87776 1.0447 10.2738 0.909649C10.6699 0.774594 11.0742 0.644422 11.172 0.621641L11.5583 0.528892L12.1858 0.379195C12.4156 0.323871 12.7123 0.26529 12.846 0.249018C12.9796 0.232746 13.2241 0.196948 13.3936 0.172541C13.5632 0.148133 13.8435 0.112338 14.0212 0.0944395C14.1989 0.0765406 14.6113 0.0456206 14.9389 0.0244674C15.3203 5.9807e-05 15.881 -0.0064465 16.5004 0.00657088C17.0318 0.0163339 17.6414 0.0472508 17.8517 0.0732855C18.0619 0.0993202 18.3537 0.136743 18.5037 0.157897C18.6536 0.17905 18.9063 0.214846 19.0839 0.237626C19.2616 0.260407 19.5322 0.309224 19.687 0.346649L20.2347 0.475197L20.7237 0.592354C20.8476 0.621643 21.0872 0.694865 21.2551 0.755071L22.0277 1.02192C22.2853 1.11142 22.6536 1.26112 22.8427 1.34736L23.5338 1.67279C23.7196 1.75578 24.1858 2.00636 24.5558 2.22766C24.9258 2.44895 25.3447 2.71581 25.4735 2.80368L26.0782 3.25115C26.282 3.40248 26.6797 3.7393 26.9633 3.99151C27.2469 4.24372 27.6153 4.60821 27.7881 4.79208L28.3146 5.3681C28.4336 5.50153 28.6064 5.71306 28.6976 5.83835C28.7889 5.96365 28.9927 6.24515 29.1524 6.46319C29.3121 6.68123 29.5094 6.97412 29.5909 7.11405C29.6724 7.25399 29.8484 7.55664 29.9821 7.78933C30.1157 8.02202 30.3668 8.51342 30.5363 8.87954C30.7335 9.30423 30.9454 9.83469 31.1182 10.344C31.2681 10.7801 31.4213 11.265 31.4556 11.4212C31.4898 11.5774 31.5501 11.8231 31.5844 11.9695C31.6186 12.116 31.6789 12.3796 31.7131 12.5569C31.7474 12.7343 31.7914 13.0012 31.8093 13.1509C31.8272 13.3006 31.8647 13.5609 31.8924 13.7285C31.9201 13.8961 31.9544 14.2883 31.9707 14.5974C31.987 14.9066 32 15.2938 32 15.4566L31.9755 15.7381Z" fill="black"/>
<path d="M14.9438 31.9999H17.2633V22.4224C17.2633 22.4224 16.4695 22.52 16.0718 22.5184C15.6741 22.5167 14.9438 22.4224 14.9438 22.4224V31.9999Z" fill="#8382E7"/>
<path d="M29.4653 25.047L30.6242 23.0505L22.3113 18.2617C22.3113 18.2617 21.9983 18.9956 21.7995 19.3389C21.6006 19.6822 21.1475 20.2648 21.1475 20.2648L29.4653 25.047Z" fill="#8382E7"/>
<path d="M2.74169 25.047L1.58276 23.0505L9.89572 18.2617C9.89572 18.2617 10.2087 18.9956 10.4075 19.3389C10.6064 19.6822 11.0595 20.2648 11.0595 20.2648L2.74169 25.047Z" fill="#8382E7"/>
<path d="M23.1327 30.4899L25.1393 29.333L20.3422 21.0344C20.3422 21.0344 19.7049 21.5226 19.3642 21.713C19.0235 21.9033 18.3406 22.1913 18.3406 22.1913L23.1327 30.4899Z" fill="#8382E7"/>
<path d="M9.04305 30.4899L7.03491 29.333L11.832 21.0344C11.832 21.0344 12.4693 21.5226 12.81 21.713C13.1506 21.9033 13.8352 22.1913 13.8352 22.1913L9.04305 30.4899Z" fill="#8382E7"/>
</svg>
