<svg width="32" height="32" viewBox="0 0 32 32" fill="none" xmlns="http://www.w3.org/2000/svg">
<path d="M30.4442 14.2978C30.3966 13.7667 30.3047 13.154 30.1277 12.4765C29.9506 11.8025 29.6885 11.0637 29.3106 10.2944C28.926 9.53182 28.4255 8.73523 27.7787 7.96586C27.5268 7.66289 27.2511 7.36672 26.9515 7.07395C27.3974 5.30374 26.4102 3.77182 26.4102 3.77182C24.7081 3.66629 23.6255 4.29948 23.2238 4.59225C23.1557 4.56501 23.0911 4.53437 23.023 4.50714C22.7336 4.38799 22.434 4.27906 22.1277 4.18374C21.8213 4.08842 21.5081 3.99991 21.1881 3.92161C20.8681 3.84672 20.5413 3.78203 20.2111 3.73097C20.1532 3.72076 20.0953 3.71395 20.0374 3.70714C19.2953 1.33097 17.1608 0.340332 17.1608 0.340332C14.7847 1.84842 14.3319 3.95906 14.3319 3.95906C14.3319 3.95906 14.3217 4.00672 14.3081 4.08501C14.1753 4.12246 14.0459 4.15991 13.9132 4.20076C13.7294 4.25523 13.5523 4.32331 13.3685 4.38799C13.1881 4.45948 13.0077 4.52757 12.8272 4.60586C12.4698 4.75906 12.1123 4.93267 11.7651 5.12672C11.4281 5.31735 11.0979 5.52501 10.7745 5.74969C10.7268 5.72927 10.6928 5.71225 10.6928 5.71225C7.40084 4.45608 4.47659 5.96757 4.47659 5.96757C4.21106 9.47055 5.79063 11.6765 6.10382 12.0748C6.02552 12.2927 5.95404 12.5105 5.88595 12.7318C5.64084 13.525 5.46042 14.3386 5.34808 15.1829C5.33106 15.302 5.31744 15.4246 5.30382 15.5471C2.26382 17.0484 1.36169 20.1293 1.36169 20.1293C3.90127 23.0501 6.85957 23.2305 6.85957 23.2305C6.86297 23.2271 6.86638 23.2271 6.86638 23.2237C7.24425 23.8944 7.67999 24.5344 8.1668 25.1301C8.37106 25.3786 8.58893 25.6203 8.81021 25.8518C7.88425 28.4969 8.93957 30.7029 8.93957 30.7029C11.7651 30.8084 13.6238 29.4671 14.0119 29.1574C14.2945 29.2527 14.577 29.3378 14.8664 29.4127C15.7345 29.6374 16.623 29.7667 17.5115 29.8076C17.7328 29.8178 17.954 29.8212 18.1787 29.8212H18.2877L18.3591 29.8178L18.4987 29.8144L18.6383 29.8076L18.6417 29.811C19.9728 31.7105 22.3149 31.9795 22.3149 31.9795C23.9796 30.2229 24.0749 28.4833 24.0749 28.1054C24.0749 28.1054 24.0749 28.0918 24.0749 28.0816C24.0749 28.051 24.0749 28.0271 24.0749 28.0271C24.0749 27.9999 24.0715 27.9761 24.0715 27.9454C24.4221 27.7003 24.7557 27.4382 25.0689 27.1557C25.7362 26.5531 26.3183 25.8654 26.8017 25.1267C26.846 25.0586 26.8902 24.9871 26.9345 24.9157C28.8204 25.0246 30.1481 23.748 30.1481 23.748C29.8349 21.7837 28.7149 20.8271 28.4834 20.6433C28.4834 20.6433 28.4732 20.6365 28.4596 20.6263C28.446 20.6161 28.4391 20.6093 28.4391 20.6093C28.4255 20.6025 28.4119 20.5922 28.3983 20.582C28.4085 20.4629 28.4187 20.3471 28.4255 20.228C28.4391 20.0169 28.446 19.8059 28.446 19.5948V19.4382V19.3599V19.3191C28.446 19.2646 28.446 19.285 28.446 19.2646L28.4391 19.1318L28.4289 18.9548C28.4255 18.8935 28.4221 18.8391 28.4153 18.7846C28.4119 18.7301 28.4051 18.6757 28.3983 18.6212L28.3779 18.4578L28.354 18.2944C28.3234 18.0799 28.2791 17.8654 28.2315 17.651C28.034 16.8033 27.7038 15.9999 27.2681 15.2782C26.8323 14.5565 26.2877 13.9165 25.6783 13.3786C25.0655 12.8374 24.3813 12.405 23.663 12.0816C22.9447 11.7582 22.1889 11.5505 21.4366 11.4552C21.0621 11.4076 20.6842 11.3871 20.3132 11.3905L20.1736 11.394H20.1396C20.1294 11.394 20.0885 11.394 20.0919 11.394L20.034 11.3974L19.8979 11.4076C19.8468 11.411 19.7923 11.4144 19.7447 11.4212C19.554 11.4382 19.3634 11.4654 19.1796 11.5029C18.434 11.6425 17.7294 11.9114 17.1064 12.2825C16.4868 12.6535 15.9455 13.1199 15.5064 13.6442C15.0672 14.1718 14.7268 14.754 14.4919 15.3565C14.257 15.9591 14.1277 16.582 14.0902 17.188C14.08 17.3378 14.0766 17.491 14.08 17.6374C14.08 17.6748 14.08 17.7122 14.0834 17.7497L14.0868 17.8722C14.0936 17.9437 14.097 18.0186 14.1038 18.0901C14.1345 18.3965 14.1889 18.6893 14.2706 18.9752C14.434 19.5403 14.6962 20.0544 15.023 20.4901C15.3464 20.9259 15.7345 21.2867 16.1464 21.5693C16.5583 21.8518 16.9974 22.0527 17.4332 22.1786C17.8689 22.308 18.3013 22.3625 18.7098 22.3625C18.7608 22.3625 18.8119 22.3625 18.863 22.3591C18.8902 22.3591 18.9174 22.3557 18.9447 22.3557C18.9719 22.3557 18.9991 22.3522 19.0264 22.3522C19.0706 22.3488 19.1115 22.342 19.1557 22.3386C19.166 22.3386 19.1796 22.3352 19.1932 22.3352L19.234 22.3284C19.2613 22.325 19.2851 22.3216 19.3123 22.3182C19.3668 22.3114 19.4111 22.3012 19.4621 22.291C19.5098 22.2808 19.5574 22.274 19.6051 22.2603C19.7004 22.2399 19.7889 22.2127 19.8774 22.182C20.0545 22.1242 20.2213 22.0527 20.3779 21.9744C20.5345 21.8927 20.6774 21.8042 20.8102 21.7122C20.8477 21.685 20.8851 21.6578 20.9225 21.6271C21.0655 21.5148 21.0894 21.3071 20.9736 21.1676C20.8749 21.045 20.7013 21.0144 20.5651 21.0893C20.5311 21.1063 20.497 21.1267 20.463 21.1437C20.3438 21.2016 20.2213 21.2527 20.0885 21.2969C19.9557 21.3378 19.8196 21.3718 19.6766 21.3991C19.6051 21.4093 19.5336 21.4195 19.4587 21.4263C19.4213 21.4297 19.3838 21.4331 19.3498 21.4331C19.3123 21.4331 19.2749 21.4365 19.2408 21.4365C19.2068 21.4365 19.1694 21.4365 19.1353 21.4331C19.0911 21.4297 19.0468 21.4297 19.0025 21.4263C19.0025 21.4263 18.9787 21.4263 18.9991 21.4263H18.9855L18.9549 21.4229C18.9345 21.4195 18.914 21.4195 18.897 21.4161C18.8562 21.4127 18.8187 21.4059 18.7779 21.4025C18.4579 21.3582 18.1345 21.2663 17.8247 21.1233C17.5115 20.9837 17.2119 20.7863 16.943 20.5446C16.674 20.3029 16.4391 20.0101 16.2553 19.6799C16.0715 19.3497 15.9421 18.9854 15.8808 18.6008C15.8502 18.4101 15.8366 18.2093 15.8434 18.0152C15.8468 17.9608 15.8468 17.9097 15.8502 17.8552C15.8502 17.8688 15.8502 17.8484 15.8502 17.845V17.8246L15.8536 17.7837C15.857 17.7565 15.857 17.7327 15.8604 17.7054C15.8706 17.5999 15.8877 17.4944 15.9047 17.3888C16.0511 16.5514 16.4698 15.7344 17.12 15.1148C17.2834 14.9616 17.457 14.8152 17.6442 14.6893C17.8315 14.5599 18.0289 14.4476 18.2332 14.3522C18.4408 14.2569 18.6553 14.1786 18.8766 14.1208C19.0979 14.0629 19.326 14.022 19.554 14.0016C19.6698 13.9914 19.7855 13.988 19.9013 13.988C19.9319 13.988 19.9557 13.988 19.9796 13.988L20.0749 13.9914L20.1328 13.9948C20.1566 13.9948 20.1328 13.9948 20.143 13.9948H20.1668L20.2621 14.0016C20.5106 14.022 20.7591 14.0561 21.0042 14.1139C21.4945 14.2229 21.9711 14.4033 22.417 14.6484C23.3055 15.142 24.0647 15.9114 24.5277 16.8408C24.7625 17.3037 24.926 17.8008 25.0077 18.3148C25.0281 18.4442 25.0417 18.5735 25.0519 18.7029L25.0587 18.8016L25.0621 18.9003C25.0655 18.9344 25.0655 18.965 25.0655 18.9991C25.0655 19.0331 25.0689 19.0671 25.0655 19.091V19.1761L25.0621 19.2714C25.0587 19.3361 25.0553 19.4382 25.0519 19.5029C25.0417 19.6459 25.0281 19.7854 25.0111 19.9284C24.994 20.068 24.9702 20.2076 24.9464 20.3471C24.9191 20.4867 24.8885 20.6229 24.8545 20.7591C24.7864 21.0314 24.6979 21.3037 24.5923 21.5659C24.3847 22.0935 24.1055 22.594 23.7719 23.0569C23.1013 23.9795 22.1855 24.7318 21.1438 25.2084C20.623 25.4433 20.0715 25.6169 19.5098 25.7088C19.2272 25.7565 18.9413 25.7837 18.6553 25.7939L18.6008 25.7974H18.5566H18.4647H18.3251H18.2536C18.2911 25.7974 18.2468 25.7974 18.2502 25.7974H18.223C18.0698 25.794 17.9166 25.7871 17.7634 25.7735C17.1506 25.7293 16.5481 25.6203 15.9625 25.4501C15.377 25.2799 14.8085 25.0518 14.2706 24.7659C13.1949 24.1905 12.2349 23.4042 11.4825 22.4544C11.1047 21.9812 10.7745 21.4739 10.5021 20.9395C10.2298 20.405 10.0153 19.8433 9.85531 19.2714C9.69872 18.6961 9.59999 18.1105 9.56255 17.5182L9.55574 17.4059L9.55233 17.3786V17.3548V17.3071L9.54893 17.2084V17.1846V17.1505V17.0825L9.54552 16.9463V16.9191C9.54552 16.9225 9.54552 16.9225 9.54552 16.9088V16.8544C9.54552 16.7829 9.54893 16.7114 9.54893 16.6365C9.55914 16.3437 9.58297 16.0442 9.62382 15.7446C9.66127 15.445 9.71233 15.142 9.77361 14.8425C9.83489 14.5429 9.90978 14.2467 9.99148 13.9574C10.1583 13.3752 10.366 12.8101 10.6145 12.2757C11.1081 11.2067 11.7549 10.2637 12.5345 9.50799C12.7285 9.31735 12.9294 9.13693 13.1404 8.97012C13.3481 8.80331 13.5659 8.64672 13.7906 8.50033C14.0119 8.35395 14.2434 8.21778 14.4817 8.09523C14.5974 8.03055 14.72 7.97608 14.8391 7.9182C14.9004 7.89097 14.9617 7.86374 15.023 7.8365C15.0842 7.80927 15.1455 7.78203 15.2068 7.75821C15.4519 7.65267 15.7072 7.56757 15.9625 7.48586C16.0272 7.46544 16.0919 7.44842 16.1566 7.42799C16.2213 7.40757 16.286 7.39395 16.3506 7.37352C16.48 7.33608 16.6128 7.30544 16.7421 7.2748C16.8068 7.25778 16.8749 7.24416 16.9396 7.23055C17.0042 7.21693 17.0723 7.20331 17.137 7.18969C17.2051 7.17608 17.2698 7.16586 17.3379 7.15225L17.4366 7.13523L17.5353 7.12161C17.6034 7.1114 17.6681 7.10118 17.7362 7.09097C17.8111 7.07735 17.886 7.07395 17.9608 7.06033C18.0221 7.05352 18.1242 7.03991 18.1855 7.0331C18.2332 7.02969 18.2808 7.02289 18.3285 7.01948L18.4238 7.00927L18.4715 7.00586L18.5259 7.00246C18.6008 6.99906 18.6757 6.99225 18.754 6.98884L18.8664 6.98203C18.8664 6.98203 18.9072 6.98203 18.8732 6.98203H18.897L18.9447 6.97863C19.0094 6.97523 19.074 6.97182 19.1387 6.96842C19.394 6.96161 19.6494 6.96161 19.9047 6.96842C20.4119 6.98884 20.9089 7.04331 21.3923 7.13523C22.3591 7.31565 23.2681 7.62544 24.0919 8.03395C24.9157 8.43565 25.6545 8.93267 26.2945 9.47055C26.3353 9.50459 26.3728 9.53863 26.4136 9.57267C26.4511 9.60672 26.4919 9.64076 26.5294 9.6748C26.6077 9.74289 26.6825 9.81438 26.7574 9.88246C26.8323 9.95055 26.9038 10.022 26.9753 10.0935C27.0468 10.165 27.1183 10.2365 27.183 10.308C27.4553 10.5974 27.7072 10.8867 27.9319 11.1795C28.3881 11.765 28.7523 12.3574 29.0417 12.9157C29.0587 12.9497 29.0791 12.9837 29.0962 13.0212C29.1132 13.0552 29.1302 13.0893 29.1472 13.1267C29.1813 13.1948 29.2153 13.2629 29.246 13.331C29.2766 13.3991 29.3106 13.4671 29.3379 13.5318C29.3685 13.5999 29.3957 13.6646 29.423 13.7293C29.5319 13.9914 29.6306 14.2399 29.7089 14.4748C29.8417 14.8527 29.9404 15.1965 30.0153 15.4961C30.046 15.6152 30.1583 15.6935 30.2808 15.6833C30.4068 15.6731 30.5055 15.5676 30.5089 15.4416C30.4885 15.1012 30.4817 14.7267 30.4442 14.2978Z" fill="url(#paint0_linear)"/>
<defs>
<linearGradient id="paint0_linear" x1="15.9233" y1="39.0881" x2="15.9233" y2="10.1873" gradientUnits="userSpaceOnUse">
<stop stop-color="#FFF100"/>
<stop offset="1" stop-color="#F05A28"/>
</linearGradient>
</defs>
</svg>
