<svg width="393.44" height="380.38667" xmlns="http://www.w3.org/2000/svg" stroke="null" style="vector-effect: non-scaling-stroke;">
 <metadata stroke="null" style="vector-effect: non-scaling-stroke;" id="metadata8">image/svg+xml</metadata>

 <g stroke="null">
  <title stroke="null">background</title>
  <rect stroke="null" fill="none" id="canvas_background" height="382.38667" width="395.44" y="-1" x="-1"/>
 </g>
 <g stroke="null">
  <title stroke="null">Layer 1</title>
  <g stroke="null" id="g10" transform="matrix(3.582647967003015,0,0,-3.582647967003015,-565.2319519886175,200.34972593060758) ">
   <g stroke="null" id="g12" transform="translate(0,-1.4210854715202004e-14) scale(0.10000000149011612) ">
    <path stroke="null" fill="#454547" fill-rule="nonzero" d="m2903.263295,-100.556966c15.3,0 28.92,2.703 40.88,8.121c11.94,5.406 22.2,12.781 30.8,22.117c16.79,19.411 25.2,44.047 25.2,73.922c0,29.864 -8.41,54.5 -25.2,73.922c-18.3,20.156 -42.2,30.238 -71.68,30.238c-30.24,0 -54.51,-10.082 -72.81,-30.238c-17.54,-19.797 -26.31,-44.433 -26.31,-73.922c0,-29.496 8.77,-54.136 26.31,-73.922c18.3,-20.16 42.57,-30.238 72.81,-30.238zm94.64,197.117l0,44.801l42,0l0,-271.602c0,-40.316 -11.48,-71.019 -34.45,-92.117c-22.95,-21.09 -53.85,-31.64 -92.68,-31.64c-38.82,0 -69.16,7.476 -90.99,22.402c-21.84,14.938 -36.68,34.715 -44.52,59.359l46.48,0c11.94,-29.121 39.19,-43.679 81.76,-43.679c32.47,0 55.99,7.468 70.55,22.402c14.57,14.934 21.85,36.957 21.85,66.078l0,38.637c-22.78,-33.231 -56.2,-49.84 -100.24,-49.84c-40.33,0 -73.18,13.809 -98.56,41.441c-24.64,26.879 -36.97,60.481 -36.97,100.801c0,40.317 12.33,73.922 36.97,100.801c25.38,27.621 59.26,41.441 101.64,41.441c42.37,0 74.76,-16.437 97.16,-49.285" id="path14"/>
    <path stroke="null" fill="#454547" fill-rule="nonzero" d="m3260.533295,145.845034l0,-42.003l-5.04,0c-30.24,0 -54.88,-12.137 -73.92,-36.403c-17.92,-23.148 -26.88,-50.773 -26.88,-82.879l0,-123.199l-42,0l0,280l42,0l0,-68.883c8.96,29.125 28.37,50.586 58.24,64.403c12.32,5.972 27.25,8.964 44.8,8.964l2.8,0" id="path16"/>
    <path stroke="null" fill="#454547" fill-rule="nonzero" d="m3422.373295,-105.036966c30.24,0 54.12,10.449 71.68,31.359c16.79,19.785 25.2,44.801 25.2,75.039c0,30.242 -8.41,55.25 -25.2,75.039c-17.56,20.906 -41.44,31.363 -71.68,31.363c-29.87,0 -54.14,-10.457 -72.8,-31.363c-17.55,-19.789 -26.32,-44.797 -26.32,-75.039c0,-30.238 8.77,-55.254 26.32,-75.039c18.66,-20.91 42.93,-31.359 72.8,-31.359zm94.64,11.199c-22.4,-32.856 -55.82,-49.281 -100.24,-49.281c-40.32,0 -73.18,14.003 -98.56,42c-24.64,27.625 -36.96,61.785 -36.96,102.48c0,40.691 12.32,74.852 36.96,102.481c25.38,28 59.16,42.003 101.36,42.003c42.18,0 74.66,-16.621 97.44,-49.843l0,45.359l42,0l0,-280l-42,0l0,44.801" id="path18"/>
    <path stroke="null" fill="#454547" fill-rule="nonzero" d="m3673.803295,141.361034l0,-43.68c10.08,13.442 22.4,24.825 36.96,34.161c14.56,9.332 31.17,14.003 49.84,14.003c18.66,0 34.72,-2.617 48.16,-7.843c13.44,-5.235 25.2,-13.071 35.28,-23.52c23.14,-22.777 34.72,-52.832 34.72,-90.16l0,-162.961l-42,0l0,161.844c0,25.754 -7.28,46.289 -21.84,61.601c-14.56,15.301 -33.42,22.957 -56.56,22.957c-23.52,0 -43.5,-7.839 -59.92,-23.519c-16.43,-16.055 -24.64,-36.594 -24.64,-61.602l0,-161.281l-42,0l0,280l42,0" id="path20"/>
    <path stroke="null" fill="#454547" fill-rule="nonzero" d="m4072.523295,-105.036966c30.24,0 54.13,10.449 71.68,31.359c16.8,19.785 25.2,44.801 25.2,75.039c0,30.242 -8.4,55.25 -25.2,75.039c-17.55,20.906 -41.44,31.363 -71.68,31.363c-29.87,0 -54.14,-10.457 -72.8,-31.363c-17.55,-19.789 -26.32,-44.797 -26.32,-75.039c0,-30.238 8.77,-55.254 26.32,-75.039c18.66,-20.91 42.93,-31.359 72.8,-31.359zm94.64,11.199c-22.4,-32.856 -55.82,-49.281 -100.24,-49.281c-40.32,0 -73.18,14.003 -98.56,42c-24.64,27.625 -36.96,61.785 -36.96,102.48c0,40.691 12.32,74.852 36.96,102.481c25.38,28 59.16,42.003 101.36,42.003c42.18,0 74.66,-16.621 97.44,-49.843l0,157.363l42,0l0,-392.004l-42,0l0,44.801" id="path22"/>
    <path stroke="null" fill="#454547" fill-rule="nonzero" d="m4323.953295,141.361034l0,-43.68c10.08,13.442 22.4,24.825 36.96,34.161c14.56,9.332 31.16,14.003 49.83,14.003c18.66,0 34.73,-2.617 48.17,-7.843c13.43,-5.235 25.19,-13.071 35.27,-23.52c23.14,-22.777 34.73,-52.832 34.73,-90.16l0,-162.961l-42.01,0l0,161.844c0,25.754 -7.27,46.289 -21.83,61.601c-14.56,15.301 -33.42,22.957 -56.56,22.957c-23.52,0 -43.5,-7.839 -59.92,-23.519c-16.44,-16.055 -24.64,-36.594 -24.64,-61.602l0,-161.281l-42,0l0,280l42,0" id="path24"/>
    <path stroke="null" fill="#454547" fill-rule="nonzero" d="m4720.423295,-105.036966c30.24,0 54.13,10.449 71.68,31.359c16.81,19.785 25.2,44.801 25.2,75.039c0,30.242 -8.39,55.25 -25.2,75.039c-17.55,20.906 -41.44,31.363 -71.68,31.363c-30.23,0 -54.13,-10.457 -71.68,-31.363c-16.8,-19.789 -25.19,-44.797 -25.19,-75.039c0,-30.238 8.39,-55.254 25.19,-75.039c17.55,-20.91 41.45,-31.359 71.68,-31.359zm0,250.882c41.81,0 75.79,-14.003 101.92,-42.003c24.64,-26.879 36.97,-61.04 36.97,-102.481c0,-41.437 -12.33,-75.598 -36.97,-102.48c-26.13,-27.997 -60.11,-42 -101.92,-42c-41.82,0 -75.79,14.003 -101.91,42c-24.64,26.882 -36.97,61.043 -36.97,102.48c0,41.441 12.33,75.602 36.97,102.481c26.12,28 60.09,42.003 101.91,42.003" id="path26"/>
    <path stroke="null" fill="#454547" fill-rule="nonzero" d="m5038.513295,-105.036966c30.23,0 54.12,10.449 71.68,31.359c16.79,19.785 25.19,44.801 25.19,75.039c0,30.242 -8.4,55.25 -25.19,75.039c-17.56,20.906 -41.45,31.363 -71.68,31.363c-29.88,0 -54.14,-10.457 -72.81,-31.363c-17.55,-19.789 -26.32,-44.797 -26.32,-75.039c0,-30.238 8.77,-55.254 26.32,-75.039c18.67,-20.91 42.93,-31.359 72.81,-31.359zm94.63,11.199c-22.4,-32.856 -55.82,-49.281 -100.24,-49.281c-40.32,0 -73.17,14.003 -98.55,42c-24.64,27.625 -36.97,61.785 -36.97,102.48c0,40.691 12.33,74.852 36.97,102.481c25.38,28 59.16,42.003 101.35,42.003c42.19,0 74.66,-16.621 97.44,-49.843l0,157.363l42.01,0l0,-392.004l-42.01,0l0,44.801" id="path28"/>
    <path stroke="null" fill="#454547" fill-rule="nonzero" d="m5369.453295,107.763034c-25.76,0 -47.42,-8.031 -64.96,-24.082c-16.43,-15.312 -26.51,-35.277 -30.24,-59.918l190.4,0c-3.73,24.641 -13.82,44.606 -30.24,59.918c-17.55,16.051 -39.2,24.082 -64.96,24.082zm3.36,-212.8c37.71,0 64.77,15.683 81.2,47.039l45.92,0c-9.72,-25.391 -25.12,-45.918 -46.2,-61.602c-21.09,-15.68 -48.25,-23.519 -81.48,-23.519c-42.19,0 -76.54,14.003 -103.04,42c-25.76,27.246 -38.64,61.406 -38.64,102.48c0,41.441 12.32,75.602 36.96,102.481c26.13,28 60.11,42.003 101.92,42.003c41.81,0 75.78,-14.003 101.92,-42.003c24.65,-26.879 36.96,-61.04 36.96,-102.481l0,-16.801l-234.64,0c2.98,-25.758 13.24,-47.035 30.8,-63.836c17.92,-17.179 40.69,-25.761 68.32,-25.761" id="path30"/>
    <path stroke="null" fill="#7bc843" fill-rule="nonzero" d="m2120.209295,420.881034c-219.278,0 -397.676,-178.399 -397.676,-397.676c0,-219.278 178.398,-397.676 397.676,-397.676c219.277,0 397.676,178.398 397.676,397.676c0,219.277 -178.399,397.676 -397.676,397.676zm0,-875.352c-263.395,0 -477.676,214.289 -477.676,477.676c0,263.39 214.281,477.676 477.676,477.676c263.394,0 477.676,-214.286 477.676,-477.676c0,-263.387 -214.282,-477.676 -477.676,-477.676" id="path32"/>
    <path stroke="null" fill="#7bc843" fill-rule="nonzero" d="m2433.021295,64.849034l-236.496,0l0,-80.113l146.36,0c-18.977,-105.73 -111.571,-186.238 -222.676,-186.238c-124.781,0 -226.293,101.511 -226.293,226.293c0,124.781 101.512,226.297 226.293,226.297c80.644,0 151.508,-42.438 191.574,-106.125l100.027,0c-47.359,114.488 -160.203,195.273 -291.601,195.273c-173.934,0 -315.442,-141.512 -315.442,-315.445c0,-173.934 141.508,-315.442 315.442,-315.442c173.933,0 315.441,141.508 315.441,315.442c0,13.578 -0.957,26.926 -2.629,40.058" id="path34"/>
   </g>
  </g>
 </g>
</svg>