<svg width="26" height="26" viewBox="0 0 26 26" fill="none" xmlns="http://www.w3.org/2000/svg">
<g clip-path="url(#clip0_103_9)">
<path d="M24.532 17.1872C24.499 17.8246 24.3156 18.4452 23.9968 18.9983C23.6781 19.5513 23.233 20.0211 22.698 20.3692L14.71 24.9722C14.1344 25.263 13.4992 25.4165 12.8543 25.4207C12.2094 25.4248 11.5723 25.2795 10.993 24.9962L2.944 20.5012C2.40385 20.1606 1.952 19.697 1.62541 19.1483C1.29882 18.5996 1.10678 17.9814 1.065 17.3442L1 8.23717C1.03321 7.59984 1.21712 6.97948 1.53663 6.42703C1.85615 5.87458 2.30214 5.40579 2.838 5.05917L10.825 0.447172C11.4009 0.157254 12.036 0.00425023 12.6807 8.72902e-05C13.3254 -0.00407565 13.9624 0.140715 14.542 0.423172L22.587 4.92317C23.687 5.62017 24.387 6.79017 24.47 8.07617L24.532 17.1862V17.1872Z" fill="#F15A2B"/>
<path d="M10.51 10.6012H21.08V7.65317H10.535C9.84353 7.63064 9.15509 7.75419 8.51461 8.01576C7.87413 8.27733 7.29601 8.67103 6.818 9.17117C4.518 11.6042 4.456 17.7222 4.456 17.7222H20.998V12.1842H18.025V14.7662H7.628C7.693 13.8032 8.139 12.0832 8.983 11.1932C9.18018 10.9907 9.41859 10.8331 9.68207 10.731C9.94554 10.6288 10.2279 10.5846 10.51 10.6012V10.6012Z" fill="white"/>
</g>
<defs>
<clipPath id="clip0_103_9">
<rect width="25.42" height="25.42" fill="white"/>
</clipPath>
</defs>
</svg>
