<svg width="32" height="32" viewBox="0 0 32 32" fill="none" xmlns="http://www.w3.org/2000/svg">
<path d="M16.0035 31.3548C11.9878 31.4136 8.71356 27.9693 8.78887 23.9896C8.82069 22.0754 9.60703 20.2511 10.9769 18.9137C12.3467 17.5762 14.1892 16.8336 16.1037 16.8476C19.9286 16.8579 23.131 20.1405 23.2001 23.9689C23.2733 28.0246 19.93 31.417 16.0035 31.3548V31.3548ZM21.9074 24.1472C21.9316 20.8598 19.3033 18.1762 16.0346 18.1513C12.7658 18.1265 10.1016 20.7699 10.074 24.0566C10.057 25.6363 10.668 27.1579 11.7727 28.2872C12.8773 29.4165 14.3852 30.0609 15.9648 30.0787C19.1976 30.1195 21.8832 27.4387 21.9074 24.1472ZM8.80338 9.38562C8.797 8.60083 8.94592 7.82253 9.24156 7.09553C9.5372 6.36853 9.97373 5.70719 10.526 5.14958C11.0783 4.59197 11.7354 4.14911 12.4595 3.8465C13.1837 3.54389 13.9605 3.38751 14.7453 3.38635C18.0065 3.38013 20.6928 6.07334 20.6976 9.35315C20.7031 12.6799 18.059 15.3731 14.7785 15.3828C11.4496 15.3918 8.81305 12.7442 8.80338 9.38562V9.38562ZM10.1099 9.34831C10.104 9.95663 10.2179 10.5602 10.4452 11.1245C10.6725 11.6887 11.0087 12.2027 11.4347 12.6371C11.8606 13.0714 12.3679 13.4176 12.9277 13.6559C13.4874 13.8942 14.0886 14.0199 14.6969 14.0258C15.3053 14.0318 15.9088 13.9179 16.4731 13.6906C17.0374 13.4632 17.5514 13.127 17.9857 12.7011C18.4201 12.2751 18.7663 11.7678 19.0045 11.2081C19.2428 10.6483 19.3685 10.0471 19.3745 9.43882C19.3911 6.84579 17.339 4.73157 14.7868 4.71084C12.2214 4.69288 10.1299 6.76564 10.1099 9.34831V9.34831ZM18.2607 1.86079C18.2629 1.5381 18.3932 1.2295 18.6229 1.00288C18.7367 0.890664 18.8714 0.801955 19.0195 0.741816C19.1675 0.681676 19.3259 0.651283 19.4857 0.652372C19.6455 0.653461 19.8035 0.68601 19.9507 0.748162C20.0979 0.810313 20.2314 0.900849 20.3436 1.0146C20.4558 1.12835 20.5446 1.26309 20.6047 1.41113C20.6648 1.55916 20.6952 1.71759 20.6941 1.87738C20.6959 2.03876 20.6654 2.19887 20.6044 2.3483C20.5434 2.49772 20.4532 2.63345 20.339 2.74751C20.2248 2.86157 20.089 2.95166 19.9395 3.01248C19.79 3.0733 19.6298 3.10363 19.4684 3.10169C18.7844 3.09685 18.2607 2.55793 18.2607 1.86079V1.86079Z" fill="#38B2A7"/>
</svg>
