<svg width="32" height="32" viewBox="0 0 32 32" fill="none" xmlns="http://www.w3.org/2000/svg">
<path d="M14.7046 0.0108948C11.167 0.0108948 7.94188 2.02418 6.37953 5.21187C4.82833 8.39957 5.21892 12.1912 7.39505 14.9875C8.47754 14.0144 9.8725 13.4663 11.3344 13.4663H14.7046C12.4057 13.4663 10.5309 11.5984 10.5309 9.28318C10.5309 6.9679 12.3946 5.10003 14.7046 5.10003C17.0147 5.10003 18.8783 6.9679 18.8783 9.28318V4.98818C18.8783 3.79139 19.3023 2.62816 20.0836 1.72219C18.5212 0.603694 16.6353 -0.00029011 14.7046 0.0108948Z" fill="#19E99E"/>
<path d="M26.4 0H23.8557C22.5389 0 21.2666 0.52569 20.3293 1.46522C20.24 1.5547 20.1618 1.64418 20.0837 1.73366C22.5165 3.47851 23.9672 6.28592 23.9672 9.28347V5.90032C23.9672 5.45848 24.3254 5.10032 24.7672 5.10032H26.4V0ZM23.5766 11.9343C22.405 15.8714 18.7891 18.5669 14.6936 18.5669C18.8003 18.5669 22.405 15.8714 23.5766 11.9343ZM7.39519 14.9878C5.57616 16.6208 4.96239 19.2045 5.83284 21.4974C6.7033 23.779 8.89058 25.2891 11.3345 25.2891H18.075C18.5214 25.2891 18.8784 25.647 18.8784 26.0944C18.8784 26.5418 18.5214 26.8997 18.075 26.8997H12.1604V32H18.075C21.3336 32 23.9672 29.3603 23.9672 26.0944C23.9672 22.8283 21.3336 20.1888 18.075 20.1888H11.3345C10.8882 20.1888 10.5311 19.8309 10.5311 19.3834C10.5311 18.936 10.8882 18.5781 11.3345 18.5781H14.7048C11.8479 18.5669 9.14725 17.247 7.39519 14.9878Z" fill="#3CC3DD"/>
<path d="M20.0836 1.73438C19.3023 2.64034 18.8671 3.79239 18.8783 5.00036V9.29537C18.8783 11.5994 17.0146 13.4785 14.7046 13.4785H11.3344C9.88361 13.4785 8.4775 14.0154 7.39502 14.9997C9.14708 17.2478 11.8477 18.5676 14.7046 18.5676C18.7332 18.5676 22.2932 15.9616 23.5207 12.114C24.7482 8.26636 23.3645 4.08321 20.0836 1.73438Z" fill="#3CC3DD"/>
</svg>
