<svg width="32" height="32" viewBox="0 0 32 32" fill="none" xmlns="http://www.w3.org/2000/svg">
<path d="M2.32812 15.1845C2.32812 9.48267 6.74994 4.82812 12.7427 4.82812C16.2918 4.82812 18.5027 5.81722 20.539 7.56267L17.8045 10.879C16.2918 9.59903 14.8954 8.84267 12.6263 8.84267C9.42631 8.84267 6.92449 11.6354 6.92449 15.0099V15.0681C6.92449 18.6754 9.42631 21.3518 12.9172 21.3518C14.4881 21.3518 15.9427 20.9445 17.0481 20.1881V17.3372H12.6263V13.5554H21.2372V22.1663C19.2009 23.9118 16.4081 25.3081 12.7427 25.3081C6.63358 25.3663 2.32812 21.0609 2.32812 15.1845Z" fill="#282C74"/>
<path d="M29.6172 31.6509V0" stroke="#FFAE1F" stroke-width="2.3229" stroke-miterlimit="10"/>
</svg>
