<svg width="32" height="32" viewBox="0 0 32 32" fill="none" xmlns="http://www.w3.org/2000/svg">
<g clip-path="url(#clip0_3311_273)">
<path d="M25.7074 0H15.9361C12.4572 0 9.66905 2.81375 9.64347 6.29256V17.6243C9.64347 17.6755 9.64347 17.701 9.64347 17.7266C9.56674 17.7522 9.46442 17.7522 9.38768 17.7522H4.83452C2.17425 17.7522 0 19.9265 0 22.5867V26.9608C0 29.6211 2.14867 31.7954 4.83452 31.7954H9.23421C11.8945 31.7954 14.0687 29.6211 14.0687 26.9608V22.5356C14.0687 22.4844 14.0943 22.4333 14.0943 22.3821C14.1711 22.3565 14.2734 22.3565 14.3501 22.3565H25.7074C29.1863 22.3565 32 19.5428 32 16.0639V6.29256C32 2.81375 29.1863 0 25.7074 0ZM27.6003 6.26699V16.0384C27.6003 17.0616 26.7562 17.9057 25.733 17.9057H14.3501C14.2478 17.9057 14.1455 17.9057 14.0432 17.9057C14.0432 17.8034 14.0432 17.7266 14.0432 17.6243V6.24141C14.0432 5.19265 14.8873 4.3741 15.9105 4.3741H25.6819C26.7306 4.39968 27.6003 5.24381 27.6003 6.26699ZM9.66906 22.1263C9.66906 22.2798 9.64347 22.4333 9.64347 22.5612V26.9353C9.64347 27.1655 9.46442 27.3445 9.23421 27.3445H4.83452C4.60431 27.3445 4.42526 27.1655 4.42526 26.9353V22.5356C4.42526 22.3054 4.60431 22.1263 4.83452 22.1263H9.13188C9.25978 22.1519 9.46443 22.1519 9.66906 22.1263Z" fill="url(#paint0_linear_3311_273)"/>
</g>
<defs>
<linearGradient id="paint0_linear_3311_273" x1="0.0204636" y1="15.8913" x2="32" y2="15.8913" gradientUnits="userSpaceOnUse">
<stop stop-color="#00CE7C"/>
<stop offset="1" stop-color="#4AC1E0"/>
</linearGradient>
<clipPath id="clip0_3311_273">
<rect width="32" height="32" fill="white"/>
</clipPath>
</defs>
</svg>
