<svg width="32" height="32" viewBox="0 0 32 32" fill="none" xmlns="http://www.w3.org/2000/svg">
<g clip-path="url(#clip0_2891_18)">
<path d="M24.6517 28.7534L21.0071 30.8134C19.5942 31.4322 18.0775 31.786 16.5343 31.8566C8.78147 32.2398 1.4966 25.8531 0.294735 17.6208C-0.49546 12.2042 1.53718 7.32435 5.22559 4.50444L5.22062 4.49624L9.46564 1.9209L9.47392 1.93486C5.13283 4.58817 2.63549 9.86357 3.49775 15.7677C4.69961 24.0009 11.9845 30.3867 19.7374 30.0034C21.4448 29.9257 23.1176 29.5003 24.6517 28.7534Z" fill="#FF90E8"/>
<path d="M31.6176 14.3782C32.4625 20.1657 30.0795 25.3492 25.8967 28.0502L24.6542 28.7527C23.1202 29.4995 21.4473 29.925 19.7399 30.0026C11.9871 30.3858 4.70219 24 3.50034 15.7668C2.63808 9.86277 5.1354 4.58734 9.4765 1.93404C11.2594 0.850237 13.291 0.233184 15.3806 0.14083C23.131 -0.241614 30.4158 6.14502 31.6176 14.3782ZM26.4764 21.6134L25.3276 13.7413L17.7015 14.1181L17.9268 15.6585L21.5605 15.4788C21.4313 17.3811 20.7371 19.3114 18.4759 19.423C15.9728 19.5469 14.0205 17.3164 13.608 14.4931C13.1955 11.6699 14.4737 9.27925 16.9776 9.15861C19.3191 9.04289 20.5508 10.7918 20.8059 11.9859L24.6012 11.798C24.2086 9.66415 21.8827 5.98663 16.633 6.24597C11.5456 6.49711 9.4177 10.3076 10.0795 14.8428C10.7165 19.2064 13.652 22.595 17.7694 22.3932C21.8869 22.1912 22.4268 18.6294 22.4079 16.8205L23.1326 21.7833L26.4764 21.6134Z" fill="#FF90E8"/>
<path d="M25.3276 13.7413L26.4764 21.6135L23.1309 21.7776L22.4062 16.8148C22.4269 18.6204 21.8884 22.1839 17.7677 22.3874C13.6468 22.5909 10.7147 19.2022 10.0778 14.837C9.41511 10.3018 11.5438 6.49135 16.6312 6.24022C21.881 5.98088 24.2068 9.6576 24.5995 11.7922L20.8041 11.9802C20.549 10.7861 19.3175 9.03715 16.9758 9.15287C14.4719 9.27679 13.1938 11.6667 13.6063 14.4874C14.0188 17.3081 15.971 19.5412 18.4742 19.4173C20.7354 19.3057 21.4296 17.3754 21.5587 15.4731L17.925 15.6527L17.6998 14.1124L25.3276 13.7413Z" fill="black"/>
<path d="M24.6515 28.7534L25.894 28.0509C25.4945 28.3095 25.0796 28.5441 24.6515 28.7534Z" fill="#FF90E8"/>
<path d="M25.8967 28.0502C30.0795 25.3492 32.4625 20.1657 31.6176 14.3782C30.4158 6.14503 23.131 -0.241603 15.3781 0.141661" stroke="black" stroke-width="0.5" stroke-miterlimit="10"/>
<path d="M15.3781 0.141647C13.2884 0.234003 11.2568 0.851055 9.47393 1.93485C5.13282 4.58816 2.63551 9.86357 3.49776 15.7677C4.69962 24.0009 11.9845 30.3867 19.7373 30.0034C21.4448 29.9257 23.1177 29.5003 24.6517 28.7534C25.0796 28.5441 25.4945 28.3095 25.894 28.0509" stroke="black" stroke-width="0.5" stroke-miterlimit="10"/>
<path d="M5.18259 4.51922L5.21986 4.49624L9.46488 1.9209L10.0704 1.55324" stroke="black" stroke-width="0.5" stroke-miterlimit="10"/>
<path d="M5.22559 4.50444C1.53718 7.32435 -0.49546 12.2083 0.294735 17.6208C1.4966 25.8531 8.78147 32.2398 16.5343 31.8566C18.0775 31.786 19.5942 31.4322 21.0071 30.8134L24.6517 28.7534L25.894 28.0509L25.9769 28.0034" stroke="black" stroke-width="0.5" stroke-miterlimit="10"/>
</g>
<defs>
<clipPath id="clip0_2891_18">
<rect width="32" height="32" fill="white"/>
</clipPath>
</defs>
</svg>
