<svg width="32" height="32" viewBox="0 0 32 32" fill="none" xmlns="http://www.w3.org/2000/svg">
<path d="M8.74467 22.3108C9.51491 22.2397 10.2717 22.1037 11.0007 21.8391C11.4122 21.6896 11.4055 21.6874 11.1488 21.344C10.3197 20.2356 9.54179 19.0948 8.98979 17.8173C8.42723 16.5152 8.31683 15.1511 8.61155 13.7837C9.24131 10.8612 11.0423 8.95492 13.848 7.98212C14.5437 7.74084 15.2698 7.63588 16.0714 7.62884C15.4727 7.13124 14.9434 6.6554 14.4151 6.18084C13.8653 5.68708 13.3098 5.19812 12.7661 4.697C12.1501 4.129 11.5191 3.57732 10.8944 3.0186C10.3341 2.5178 9.77347 2.01764 9.21283 1.51716C9.13987 1.45188 9.07299 1.39236 8.95843 1.3914C8.10755 1.38596 7.26082 1.41604 6.41954 1.56804C2.39394 2.2938 0.260814 5.46468 0.161294 8.92548C0.122894 10.2624 0.443854 11.545 0.847695 12.8039C1.91746 16.1402 3.5213 19.2292 5.26882 22.2496C5.29218 22.2899 5.3181 22.3152 5.34722 22.3315L5.15042 22.041L5.34722 22.3315C5.38754 22.3543 5.43458 22.3597 5.49122 22.36C6.57602 22.3671 7.66146 22.4106 8.74467 22.3108Z" fill="#FE0004"/>
<path d="M29.1159 3.25378C28.6019 2.88098 28.0807 2.53026 27.5085 2.25826C26.1085 1.59234 24.6071 1.4141 23.0845 1.3997C20.7008 1.37762 18.3172 1.39362 15.9335 1.3933C15.8615 1.3933 15.7898 1.3933 15.7178 1.3933C15.7306 1.46754 15.7668 1.49218 15.7994 1.52034C17.3303 2.83586 18.8676 4.14402 20.3904 5.46882C22.9216 7.67106 25.4272 9.90242 27.7856 12.2912C28.6131 13.1296 29.3456 14.048 29.705 15.2282L29.7085 15.2211C30.3632 13.7405 31.0003 12.2787 31.5037 10.7607C32.1021 8.95522 31.8813 7.22594 31.048 5.56034C30.5904 4.64674 29.9584 3.86498 29.1159 3.25378Z" fill="#F1EE2B"/>
<path d="M13.32 16.3181C14.0035 17.5559 14.8211 18.7005 15.7363 19.776C15.9958 20.081 16.015 20.0784 16.2797 19.7706C17.1216 18.7917 17.865 17.7424 18.5213 16.6301C18.8803 16.0215 19.0186 15.3828 18.9331 14.6749C18.7773 13.3812 17.5818 12.2004 16.2867 12.1012C14.521 11.9661 13.0442 13.3274 13.0378 15.1642C13.0221 15.5287 13.1101 15.938 13.32 16.3181Z" fill="#01FD12"/>
<path d="M26.5079 18.641C25.8906 17.1341 24.9667 15.815 23.9779 14.5366C23.7956 14.3008 23.6032 14.0723 23.4157 13.8403C23.3898 13.944 23.3991 14.0263 23.408 14.1082C23.4871 14.8262 23.5264 15.544 23.4122 16.2627C23.2244 17.4435 22.7239 18.4938 22.0845 19.4896C21.6058 20.2355 21.1005 20.9632 20.5847 21.6925C20.6276 21.7149 20.6586 21.736 20.6928 21.7481C21.688 22.0995 22.7044 22.3485 23.7651 22.3859C24.3837 22.4077 24.9904 22.3542 25.5725 22.1254C26.0602 21.9337 26.4199 21.6502 26.6407 21.2886C26.6621 21.2531 26.6823 21.2169 26.7011 21.1801L26.7143 21.1542C26.8371 20.9043 26.8992 20.6214 26.8976 20.3094C26.8944 19.7242 26.7267 19.1747 26.5079 18.641Z" fill="#01FD12"/>
<path d="M22.6925 26.4992C22.1763 26.4903 21.6627 26.4368 21.1565 26.3447C19.3939 26.024 17.7542 25.361 16.1869 24.5101C16.0368 24.4285 15.9341 24.4291 15.783 24.5088C13.4528 25.7367 11.0237 26.6035 8.33728 26.5107C8.29792 26.5095 8.24352 26.4858 8.21664 26.5671C8.35392 26.7571 8.4944 26.9466 8.64096 27.1319C8.88544 27.4403 9.14785 27.7373 9.44449 28.0051C9.48385 28.0458 9.52096 28.089 9.56096 28.1287C9.5744 28.1421 9.58784 28.1549 9.60224 28.1674C12.3555 30.576 15.4842 31.1895 18.9485 30.0762C20.2573 29.6557 21.4026 28.9341 22.3779 27.9559C22.8342 27.5424 23.2182 27.0685 23.5814 26.5498C23.2682 26.5037 22.9802 26.5043 22.6925 26.4992Z" fill="#0161FE"/>
</svg>
