<svg width="32" height="32" viewBox="0 0 32 32" fill="none" xmlns="http://www.w3.org/2000/svg">
<path d="M15.9399 31.8945L1.33325 20.9572V15.4932L9.74259 17.4038L15.9466 26.1038L22.1399 17.4038L30.5493 15.4932H30.5519V20.9572L15.9399 31.8945Z" fill="#FFC300"/>
<path d="M1.33325 2.77352V15.4935H1.33725L15.9426 7.21485C15.9426 7.21485 4.99725 0.796182 4.06125 0.417515C2.30125 -0.302485 1.33325 -0.409151 1.33325 2.77352Z" fill="#FF8D00"/>
<path d="M27.8238 0.417131C26.8878 0.795798 15.9745 7.19447 15.9745 7.19447L1.33447 15.4931L9.74514 17.4038L15.9398 26.1038L22.1465 17.4038L30.5518 15.4931V2.77313C30.5518 -0.409535 29.5838 -0.304202 27.8238 0.417131V0.417131Z" fill="#FF4F00"/>
</svg>
