<svg width="32" height="32" viewBox="0 0 32 32" fill="none" xmlns="http://www.w3.org/2000/svg">
<path d="M13.6572 21.7248V22.2391C14.0572 22.0677 14.4001 21.8963 14.8001 21.6677C15.3715 21.382 16.0001 21.0391 16.6287 20.7534V18.7534H13.7144V21.7248H13.6572Z" fill="#08589D"/>
<path d="M1.9429 12.7538V12.8109L2.28576 15.3252L2.3429 15.7252V15.7823L2.62861 17.8966L2.7429 18.6966L2.97147 20.5252L3.1429 21.668L3.37147 23.1538L3.5429 24.6395L3.60004 25.1538C3.77147 25.2109 4.00004 25.2109 4.22861 25.2109C4.28576 25.2109 4.3429 25.2109 4.40004 25.2109C4.51433 25.2109 4.68576 25.2109 4.80004 25.2109C5.60004 25.1538 6.45719 24.9823 7.48576 24.6966V24.6395L7.1429 22.2966L7.08576 21.668L6.80004 19.7252L6.68576 18.6966L6.45719 17.0966L6.40004 16.6395L6.28576 15.7823L6.11433 14.5252L5.88576 12.8109L5.71433 11.8966L5.65718 11.3823L4.80004 11.4966L3.02861 11.7252L1.88576 11.8395H1.82861L1.88576 12.1252L1.9429 12.7538Z" fill="#08589D"/>
<path d="M6.11433 9.83936L6.28576 11.3251L6.45718 12.8108L6.62861 13.9536L6.85718 15.7822L6.97147 16.5822V16.6965L7.25718 18.6965L7.31433 19.1536L7.65718 21.6679V21.7822L7.77147 22.4679L8.00004 24.4108V24.5251C8.85718 24.2394 9.77147 23.9536 10.6858 23.5536V21.6679V18.7536V15.8394V12.9251H13.6V15.8394H16.5143V12.9251H19.4286V15.8394V18.6965V19.0965C19.4286 19.0965 19.8858 18.8108 20.1143 18.6965C20.8572 18.2394 21.6 17.8394 22.3429 17.3822C22.9143 17.0394 23.4858 16.6965 24 16.3536L23.9429 15.7251L24 14.3536V14.1822L23.8286 12.8108L23.7143 11.7251L23.4286 9.83936L23.3143 9.0965L23.0286 6.86793L22.9715 6.46793L22.8 5.32507L22.5143 5.38221L20.9715 5.55364L19.6 5.72507L19.2 5.78221C19.3143 6.06793 19.4858 6.2965 19.6 6.52507C19.6572 6.58221 19.7143 6.6965 19.7143 6.75364C19.7715 6.75364 19.7715 6.75364 19.8286 6.6965H19.8858C20.0572 6.6965 20.2286 6.75364 20.3429 6.92507C20.4 6.98221 20.4 7.0965 20.4572 7.15364C20.5143 7.38221 20.3429 7.61078 20.0572 7.72507C19.8858 7.43936 19.7715 7.21078 19.6 6.98221C19.2 6.35364 18.8 5.78221 18.4 5.26793C18.0572 4.81078 17.7715 4.41078 17.4858 4.06793C17.3715 3.8965 17.2572 3.78221 17.1429 3.61078C16.9715 3.43936 16.8572 3.26793 16.6858 3.15364C16.2858 2.75364 15.9429 2.46793 15.6 2.23936C14.9715 1.83936 14.4 1.66793 13.8858 1.72507C13.8286 1.72507 13.7715 1.72507 13.7715 1.72507C12.8 1.8965 12.0572 2.86793 11.4286 4.06793C11.2 4.52507 11.0286 4.98221 10.8 5.4965C10.6858 5.83936 10.5143 6.18221 10.4 6.52507C10.3429 6.6965 10.2858 6.86793 10.2286 7.03936C10.1143 7.38221 9.9429 7.72507 9.82861 8.06793C9.65719 8.41078 9.5429 8.75364 9.37147 9.0965C9.25718 9.03936 9.1429 8.98221 9.08576 8.86793C9.02861 8.81078 9.02861 8.75364 9.02861 8.63936C9.02861 8.35364 9.25718 8.18221 9.48576 8.18221C9.5429 8.18221 9.5429 8.18221 9.60004 8.18221C9.71433 7.83936 9.82861 7.4965 9.9429 7.03936V6.98221L9.48576 7.03936L7.82861 7.21078H7.65718L5.82861 7.43936L6.00004 8.86793L6.11433 9.83936ZM13.6572 2.01078C13.7143 2.01078 13.7715 2.01078 13.8286 2.01078C14.2286 1.95364 14.7429 2.12507 15.2 2.41078C15.3143 2.46793 15.4858 2.58221 15.6 2.6965C15.4286 2.63936 15.2572 2.58221 15.0858 2.52507C14.6286 2.41078 14.1715 2.41078 13.8858 2.41078C13.8286 2.41078 13.7143 2.41078 13.6572 2.46793C13.2 2.58221 12.7429 2.75364 12.2858 3.0965C12.7429 2.46793 13.1429 2.12507 13.6572 2.01078ZM10.4572 7.21078C10.5143 7.0965 10.5143 6.98221 10.5715 6.86793C10.6286 6.75364 10.6858 6.63936 10.6858 6.52507C10.6858 6.52507 10.6858 6.46793 10.7429 6.46793C10.9715 5.95364 11.1429 5.38221 11.3715 4.92507C11.5429 4.58221 11.7715 4.23936 12 3.95364C12.4572 3.38221 13.0858 2.98221 13.7143 2.86793C13.8286 2.86793 13.8858 2.81078 14 2.81078C14.2858 2.75364 14.5715 2.81078 14.8572 2.86793C15.4286 2.92507 16.0572 3.26793 16.6286 3.78221C16.6858 3.78221 16.6858 3.83936 16.7429 3.83936C16.8 3.83936 16.8 3.8965 16.8572 3.8965C17.0286 4.06793 17.2572 4.23936 17.4286 4.46793C17.6572 4.75364 17.8858 5.0965 18.1143 5.43936C18.2286 5.55364 18.2858 5.72507 18.4 5.83936L17.6 5.95364L16.6286 6.06793L14.2858 6.2965L13.7143 6.35364L10.9143 6.6965H10.8572L10.7429 6.86793L10.6858 6.98221L10.4 7.38221C10.4 7.32507 10.4 7.26793 10.4572 7.21078Z" fill="#08589D"/>
<path d="M24.1143 11.2678L24.3429 12.8107L24.4572 13.8964V13.9535L24.6858 15.7821L24.7429 16.0678C24.9143 15.9535 25.0858 15.8392 25.2001 15.7821C25.3143 15.725 25.3715 15.6678 25.4858 15.6107C25.6572 15.4964 25.8286 15.3821 26.0001 15.2678C26.8572 14.7535 27.6572 14.1821 28.4001 13.725C28.8572 13.4392 29.3143 13.0964 29.7143 12.8678C30.0572 12.6392 30.3429 12.4678 30.6286 12.2392L30.4572 10.8107V10.6392L30.3429 9.89639L30.1143 8.29639H30.0001L28.4572 8.41067L26.7429 8.63924L25.4858 8.75353L23.7715 8.92496L23.8858 9.7821L24.1143 11.2678Z" fill="#08589D"/>
<path d="M16.6287 18.7534L16.6858 18.6963H16.6287V18.7534Z" fill="#08589D"/>
<path d="M4.8001 28.8108C5.37153 28.8679 6.0001 28.8108 6.68582 28.6965C7.02868 28.6394 7.42868 28.5822 7.77153 28.4679C8.68582 28.2394 9.71439 27.9537 10.743 27.5537C11.6572 27.2108 12.6858 26.8108 13.6572 26.3537C14.4001 26.0108 15.2001 25.6679 16.0001 25.2679C16.2287 25.1537 16.4001 25.0394 16.6287 24.9251C16.8572 24.8108 17.0858 24.6965 17.3144 24.5822C18.0572 24.1822 18.8572 23.7822 19.6001 23.3822C20.5715 22.8679 21.4858 22.2965 22.4572 21.7822C22.5144 21.7822 22.5144 21.7251 22.5715 21.7251C22.6287 21.7251 22.6287 21.6679 22.6858 21.6679C23.6572 21.0965 24.6287 20.5251 25.543 19.9537C26.2287 19.4965 26.9144 19.0965 27.6001 18.6965C27.943 18.5251 28.2287 18.2965 28.5144 18.1251C29.143 17.7251 30.2287 17.0394 30.2287 17.0394C30.2287 17.0394 31.0287 16.5251 31.3144 16.2965L31.2572 15.9537V15.8965V15.6679L31.0287 13.7822C30.5144 14.1251 29.943 14.4679 29.3144 14.9251C29.0858 15.0965 28.8001 15.2679 28.5715 15.4394C28.4572 15.4965 28.343 15.6108 28.2287 15.6679C27.4287 16.1822 26.5715 16.7537 25.6572 17.3251C24.9715 17.7822 24.2287 18.1822 23.4858 18.6394C23.2001 18.8108 22.9715 18.9822 22.6858 19.0965C22.343 19.3251 21.943 19.5537 21.6001 19.7251C20.9715 20.0679 20.343 20.4108 19.7715 20.7537C19.3144 21.0394 18.8572 21.2679 18.343 21.5537C17.8287 21.8394 17.3144 22.1251 16.8001 22.3537C16.2858 22.6394 15.7144 22.9251 15.2001 23.1537C14.743 23.3822 14.2858 23.6108 13.8287 23.7822C13.3144 24.0108 12.8001 24.2394 12.2858 24.4679C11.7715 24.6965 11.3144 24.8679 10.8572 25.0394C10.5715 25.1537 10.2287 25.2679 9.94296 25.3822C9.25725 25.6108 8.57153 25.8394 7.88582 26.0679C7.20011 26.2394 6.51439 26.4108 5.88582 26.5251C5.42868 26.6965 5.14296 26.7537 4.8001 26.7537C4.22868 26.8108 3.71439 26.7537 3.25725 26.6394C3.14296 26.6394 2.97153 26.5822 2.85725 26.5251C2.4001 26.3537 2.05725 26.1822 1.82868 25.8965C1.6001 25.6679 1.48582 25.3822 1.37153 25.0965C1.37153 25.0965 1.25725 24.7537 1.2001 24.5822C1.02868 23.8965 1.08582 23.0394 1.25725 22.2394C1.31439 22.0679 1.31439 21.8394 1.37153 21.6679C1.48582 21.1537 1.65725 20.6394 1.82868 20.1251C1.94296 19.7822 2.05725 19.4394 2.17153 19.1537C2.05725 19.3822 1.94296 19.6108 1.82868 19.8965C1.6001 20.4679 1.31439 21.0394 1.14296 21.6679C1.02868 22.0108 0.91439 22.3537 0.857248 22.6965C0.685819 23.3251 0.571533 24.0108 0.571533 24.6394C0.571533 25.0394 0.571533 25.4394 0.685819 25.7822V25.8394C0.857248 26.4679 1.14296 27.0965 1.65725 27.5537C1.71439 27.6108 1.71439 27.6679 1.77153 27.7251C1.82868 27.7251 1.82868 27.7822 1.88582 27.7822C2.34296 28.1822 2.97153 28.4679 3.77153 28.6965C3.88582 28.7537 4.0001 28.7537 4.17153 28.7537C4.34296 28.8108 4.57153 28.8108 4.8001 28.8108Z" fill="#08589D"/>
<path d="M31.7145 18.6962V18.4676L31.5431 17.0962L31.486 17.1533C30.7431 17.6105 29.9431 18.1819 29.086 18.6962C28.9145 18.8105 28.7431 18.9248 28.5717 19.039C28.286 19.2105 28.0003 19.3819 27.7145 19.5533C27.0288 19.9533 26.3431 20.4105 25.6003 20.8676C25.1431 21.1533 24.7431 21.3819 24.286 21.6676C23.7717 22.0105 23.2003 22.2962 22.6288 22.639C21.9431 23.039 21.2003 23.439 20.5145 23.839C20.2288 24.0105 19.9431 24.1248 19.6574 24.2962C19.4288 24.4105 19.2003 24.5248 18.9717 24.639C18.2288 25.039 17.4288 25.439 16.686 25.7819C15.9431 26.1248 15.2574 26.4676 14.5717 26.8105C14.286 26.9248 14.0003 27.039 13.7717 27.1533C13.4288 27.3248 13.086 27.439 12.7431 27.6105C12.1145 27.8962 11.4288 28.1248 10.8574 28.3533C10.5145 28.4676 10.1717 28.5819 9.82883 28.6962C9.14312 28.9248 8.51454 29.0962 7.88597 29.2105C7.2574 29.3248 6.62883 29.439 6.0574 29.4962C5.77169 29.4962 5.54312 29.5533 5.31454 29.5533C5.20026 29.5533 5.02883 29.5533 4.91454 29.5533C4.57169 29.5533 4.22883 29.4962 3.94312 29.439C4.22883 29.6105 4.57169 29.7819 4.91454 29.8962C5.08597 29.9533 5.31454 30.0105 5.48597 30.0676C6.17169 30.239 6.97169 30.239 7.82883 30.1819C8.00026 30.1819 8.17169 30.1819 8.34312 30.1248C9.08597 30.0105 9.94311 29.8962 10.7431 29.6676C11.2003 29.5533 11.6574 29.439 12.1717 29.2676C12.686 29.0962 13.2003 28.9248 13.7145 28.7533C14.5717 28.4676 15.4288 28.0676 16.3431 27.7248C16.4574 27.6676 16.5717 27.6105 16.686 27.5533C16.8003 27.4962 16.9145 27.439 17.0288 27.439C17.886 27.039 18.8003 26.639 19.6574 26.1819C20.5717 25.7248 21.486 25.2676 22.4003 24.7533C22.4574 24.6962 22.5145 24.6962 22.6288 24.639C22.7431 24.5819 22.8003 24.5248 22.9145 24.4676C23.8288 23.9533 24.7431 23.439 25.6003 22.9819C26.286 22.5819 26.9717 22.1819 27.6003 21.7819C27.9431 21.6105 28.2288 21.3819 28.5145 21.2105C29.086 20.8676 29.6003 20.5248 30.1145 20.239C30.6288 19.9533 31.0288 19.6676 31.4288 19.3819H31.486C31.6003 19.3248 31.6574 19.2676 31.7717 19.2105L31.7145 18.6962Z" fill="#08589D"/>
</svg>
