<svg width="32" height="32" viewBox="0 0 32 32" fill="none" xmlns="http://www.w3.org/2000/svg">
<path d="M2.30063 15.9967C2.30059 13.2867 3.10402 10.6375 4.60932 8.38422C6.11462 6.1309 8.25418 4.37463 10.7574 3.33752C13.2607 2.30041 16.0152 2.02902 18.6727 2.55769C21.3301 3.08635 23.7712 4.39131 25.6871 6.30756C27.6031 8.22381 28.9079 10.6653 29.4365 13.3232C29.9651 15.9812 29.6939 18.7362 28.657 21.2399C27.6202 23.7437 25.8643 25.8837 23.6114 27.3893C21.3586 28.895 18.7099 29.6986 16.0004 29.6986C14.2013 29.6987 12.4198 29.3443 10.7577 28.6557C9.09552 27.9672 7.58525 26.9579 6.31309 25.6855C5.04092 24.4132 4.03179 22.9026 3.3433 21.2402C2.65481 19.5778 2.30045 17.796 2.30045 15.9965" fill="white"/>
<path d="M15.5075 27.3672L9.18972 24.5826L8.83777 28.5589L15.7855 30.7667L15.5075 27.3672" fill="url(#paint0_linear_1_3)"/>
<path d="M10.4265 11.9838H13.9744V15.0112H13.1324V13.718C13.1341 13.5945 13.1113 13.4719 13.0652 13.3573C13.0192 13.2427 12.9508 13.1383 12.8641 13.0504C12.7774 12.9624 12.674 12.8926 12.5601 12.8449C12.4462 12.7972 12.3239 12.7727 12.2004 12.7727C12.0769 12.7727 11.9546 12.7972 11.8407 12.8449C11.7267 12.8926 11.6234 12.9624 11.5367 13.0504C11.45 13.1383 11.3816 13.2427 11.3355 13.3573C11.2895 13.4719 11.2667 13.5945 11.2684 13.718V15.0112H10.4265V11.9838ZM9.71763 18.6146L14.9814 20.9346L14.6186 16.4947H15.3074V15.0112H14.7964V11.9836H15.3074V11.1135L12.4685 8.33502V8.13946C12.4667 8.0696 12.4376 8.00322 12.3876 7.95446C12.3375 7.9057 12.2704 7.87842 12.2006 7.87842C12.1307 7.87842 12.0636 7.9057 12.0136 7.95446C11.9635 8.00322 11.9345 8.0696 11.9326 8.13946V8.33502L9.09341 11.1135V11.9838H9.60474V15.0112H9.09341V16.4947H9.90504L9.71763 18.6146" fill="url(#paint1_linear_1_3)"/>
<path d="M9.4094 22.0989L15.2884 24.6901L15.2002 23.6109L9.49757 21.0978L9.40903 22.0987" fill="url(#paint2_linear_1_3)"/>
<path d="M9.25519 23.8411L15.442 26.5682L15.354 25.4894L9.34391 22.8404L9.25537 23.8411" fill="url(#paint3_linear_1_3)"/>
<path d="M9.65214 19.3557L9.5636 20.3569L15.1351 22.8124L15.0469 21.7334L9.65214 19.3557" fill="url(#paint4_linear_1_3)"/>
<path d="M27.4403 9.72574L30.2875 8.81065C30.2771 8.79035 30.2685 8.76914 30.2581 8.7494C29.7776 7.81081 29.2058 6.92186 28.5509 6.09543L25.8759 7.48007C26.4625 8.15788 26.9783 8.89398 27.415 9.67685C27.4239 9.69272 27.4316 9.70951 27.4403 9.72556" fill="#696566"/>
<path d="M29.0123 15.1121L31.9769 15.3248C31.9448 14.5339 31.8536 13.7465 31.7043 12.9692L28.7133 13.071C28.867 13.7424 28.967 14.4249 29.0125 15.1121" fill="#696566"/>
<path d="M16.0004 29.0503C13.973 29.0523 11.973 28.5817 10.159 27.6761C8.34504 26.7704 6.76696 25.4545 5.5499 23.8328C4.33284 22.211 3.51028 20.3279 3.14742 18.3329C2.78457 16.3378 2.8914 14.2856 3.45945 12.3391C4.02751 10.3925 5.04116 8.60506 6.42004 7.11848C7.79892 5.6319 9.5051 4.48705 11.4033 3.77472C13.3015 3.06238 15.3395 2.80215 17.3558 3.01465C19.372 3.22716 21.3111 3.90655 23.0191 4.99897L25.0951 2.83964C22.2851 0.896353 18.927 -0.0961807 15.5123 0.00734972C12.0977 0.11088 8.8058 1.30504 6.11871 3.41499C3.43163 5.52494 1.49044 8.43986 0.579372 11.733C-0.331701 15.0261 -0.164809 18.5245 1.05561 21.7159C2.27603 24.9073 4.48588 27.6241 7.36162 29.4685C10.2374 31.313 13.6279 32.1883 17.0369 31.9661C20.446 31.744 23.6943 30.4362 26.3065 28.2342C28.9187 26.0321 30.7575 23.0515 31.5536 19.7287L28.755 18.7575C28.1208 21.6706 26.5103 24.2794 24.1905 26.1514C21.8707 28.0235 18.9809 29.0464 16.0002 29.0505" fill="#696566"/>
<path d="M28.2735 5.74377C27.4652 4.77665 26.5463 3.90759 25.5357 3.15438C25.3906 3.04707 25.2438 2.94213 25.0952 2.83963L23.0193 4.99896L15.442 12.8806L25.8759 7.48006L28.5509 6.09542C28.4583 5.97827 28.3692 5.85834 28.2735 5.74377Z" fill="url(#paint5_linear_1_3)"/>
<path d="M31.997 15.8702C31.9956 15.6871 31.9847 15.5063 31.9769 15.3248L29.0125 15.1121L15.442 14.1379L28.7551 18.7577L31.5538 19.7287C31.5621 19.6955 31.5715 19.663 31.5794 19.6294C31.8581 18.4386 31.9992 17.2197 32 15.9967C32 15.9543 31.9974 15.9124 31.997 15.8702" fill="url(#paint6_linear_1_3)"/>
<path d="M31.5603 12.2806C31.2725 11.0784 30.8453 9.91381 30.2875 8.81064L27.4403 9.72574L15.6475 13.516L28.7133 13.0712L31.7043 12.9692C31.6599 12.7385 31.6145 12.5079 31.5603 12.2806Z" fill="url(#paint7_linear_1_3)"/>
<defs>
<linearGradient id="paint0_linear_1_3" x1="8.83659" y1="27.6774" x2="15.7854" y2="27.6774" gradientUnits="userSpaceOnUse">
<stop stop-color="#60B932"/>
<stop offset="0.282" stop-color="#60B932"/>
<stop offset="1" stop-color="#367C34"/>
</linearGradient>
<linearGradient id="paint1_linear_1_3" x1="9.09323" y1="14.4031" x2="15.3081" y2="14.4031" gradientUnits="userSpaceOnUse">
<stop stop-color="#60B932"/>
<stop offset="0.282" stop-color="#60B932"/>
<stop offset="1" stop-color="#367C34"/>
</linearGradient>
<linearGradient id="paint2_linear_1_3" x1="9.40783" y1="22.8947" x2="15.2881" y2="22.8947" gradientUnits="userSpaceOnUse">
<stop stop-color="#60B932"/>
<stop offset="0.282" stop-color="#60B932"/>
<stop offset="1" stop-color="#367C34"/>
</linearGradient>
<linearGradient id="paint3_linear_1_3" x1="9.25315" y1="24.7061" x2="15.4411" y2="24.7061" gradientUnits="userSpaceOnUse">
<stop stop-color="#60B932"/>
<stop offset="0.282" stop-color="#60B932"/>
<stop offset="1" stop-color="#367C34"/>
</linearGradient>
<linearGradient id="paint4_linear_1_3" x1="9.56171" y1="21.0849" x2="15.1342" y2="21.0849" gradientUnits="userSpaceOnUse">
<stop stop-color="#60B932"/>
<stop offset="0.282" stop-color="#60B932"/>
<stop offset="1" stop-color="#367C34"/>
</linearGradient>
<linearGradient id="paint5_linear_1_3" x1="15.5171" y1="12.8171" x2="27.6473" y2="3.83535" gradientUnits="userSpaceOnUse">
<stop stop-color="#4596D8"/>
<stop offset="0.2" stop-color="#4596D8"/>
<stop offset="1" stop-color="white"/>
</linearGradient>
<linearGradient id="paint6_linear_1_3" x1="15.396" y1="14.4095" x2="32.8026" y2="17.9613" gradientUnits="userSpaceOnUse">
<stop stop-color="#4194D7"/>
<stop offset="0.2" stop-color="#4194D7"/>
<stop offset="1" stop-color="white"/>
</linearGradient>
<linearGradient id="paint7_linear_1_3" x1="15.6913" y1="13.6195" x2="31.7277" y2="10.7274" gradientUnits="userSpaceOnUse">
<stop stop-color="#4194D7"/>
<stop offset="0.333" stop-color="#4496D8"/>
<stop offset="1" stop-color="white"/>
</linearGradient>
</defs>
</svg>
