<svg width="32" height="32" viewBox="0 0 32 32" fill="none" xmlns="http://www.w3.org/2000/svg">
<path d="M11.7333 6.67434C12.9452 6.67434 13.9276 5.69192 13.9276 4.48005C13.9276 3.26818 12.9452 2.28577 11.7333 2.28577C10.5215 2.28577 9.53906 3.26818 9.53906 4.48005C9.53906 5.69192 10.5215 6.67434 11.7333 6.67434Z" fill="#00A0F0"/>
<path d="M20.5104 6.67434C21.7223 6.67434 22.7047 5.69192 22.7047 4.48005C22.7047 3.26818 21.7223 2.28577 20.5104 2.28577C19.2986 2.28577 18.3162 3.26818 18.3162 4.48005C18.3162 5.69192 19.2986 6.67434 20.5104 6.67434Z" fill="#00A0F0"/>
<path d="M7.3448 12.1599C8.55667 12.1599 9.53908 11.1775 9.53908 9.96565C9.53908 8.75378 8.55667 7.77136 7.3448 7.77136C6.13293 7.77136 5.15051 8.75378 5.15051 9.96565C5.15051 11.1775 6.13293 12.1599 7.3448 12.1599Z" fill="#00A0F0"/>
<path d="M16.1219 12.1599C17.3338 12.1599 18.3162 11.1775 18.3162 9.96565C18.3162 8.75378 17.3338 7.77136 16.1219 7.77136C14.91 7.77136 13.9276 8.75378 13.9276 9.96565C13.9276 11.1775 14.91 12.1599 16.1219 12.1599Z" fill="#E5E0E0"/>
<path d="M24.8991 12.1599C26.111 12.1599 27.0934 11.1775 27.0934 9.96565C27.0934 8.75378 26.111 7.77136 24.8991 7.77136C23.6872 7.77136 22.7048 8.75378 22.7048 9.96565C22.7048 11.1775 23.6872 12.1599 24.8991 12.1599Z" fill="#00A0F0"/>
<path d="M7.3448 23.1314C8.55667 23.1314 9.53908 22.149 9.53908 20.9371C9.53908 19.7252 8.55667 18.7428 7.3448 18.7428C6.13293 18.7428 5.15051 19.7252 5.15051 20.9371C5.15051 22.149 6.13293 23.1314 7.3448 23.1314Z" fill="#E5E0E0"/>
<path d="M16.1219 23.1314C17.3338 23.1314 18.3162 22.149 18.3162 20.9371C18.3162 19.7252 17.3338 18.7428 16.1219 18.7428C14.91 18.7428 13.9276 19.7252 13.9276 20.9371C13.9276 22.149 14.91 23.1314 16.1219 23.1314Z" fill="#E5E0E0"/>
<path d="M24.8991 23.1314C26.111 23.1314 27.0934 22.149 27.0934 20.9371C27.0934 19.7252 26.111 18.7428 24.8991 18.7428C23.6872 18.7428 22.7048 19.7252 22.7048 20.9371C22.7048 22.149 23.6872 23.1314 24.8991 23.1314Z" fill="#E5E0E0"/>
<path d="M16.1219 29.7143C17.3338 29.7143 18.3162 28.7318 18.3162 27.52C18.3162 26.3081 17.3338 25.3257 16.1219 25.3257C14.91 25.3257 13.9276 26.3081 13.9276 27.52C13.9276 28.7318 14.91 29.7143 16.1219 29.7143Z" fill="#00A0F0"/>
<path d="M11.7333 17.6458C12.9452 17.6458 13.9276 16.6634 13.9276 15.4515C13.9276 14.2396 12.9452 13.2572 11.7333 13.2572C10.5215 13.2572 9.53906 14.2396 9.53906 15.4515C9.53906 16.6634 10.5215 17.6458 11.7333 17.6458Z" fill="#E5E0E0"/>
<path d="M20.5104 17.6458C21.7223 17.6458 22.7047 16.6634 22.7047 15.4515C22.7047 14.2396 21.7223 13.2572 20.5104 13.2572C19.2986 13.2572 18.3162 14.2396 18.3162 15.4515C18.3162 16.6634 19.2986 17.6458 20.5104 17.6458Z" fill="#00A0F0"/>
<path d="M2.95625 17.6458C4.16812 17.6458 5.15053 16.6634 5.15053 15.4515C5.15053 14.2396 4.16812 13.2572 2.95625 13.2572C1.74438 13.2572 0.761963 14.2396 0.761963 15.4515C0.761963 16.6634 1.74438 17.6458 2.95625 17.6458Z" fill="#E5E0E0"/>
<path d="M29.2877 17.6458C30.4995 17.6458 31.482 16.6634 31.482 15.4515C31.482 14.2396 30.4995 13.2572 29.2877 13.2572C28.0758 13.2572 27.0934 14.2396 27.0934 15.4515C27.0934 16.6634 28.0758 17.6458 29.2877 17.6458Z" fill="#E6E0E0"/>
</svg>
