<svg data-name="Layer 1" xmlns="http://www.w3.org/2000/svg" viewBox="0 0 482.3 482.3">
  <g data-name="Layer 2">
    <g data-name="Layer 1-2">
      <path style="isolation:isolate" fill="#0074bf" opacity=".5" d="M301.5 422.1h60.3v60.3h-60.3z"/>
      <path style="isolation:isolate" fill="#0074bf" opacity=".7" d="M241.2 422.1h60.3v60.3h-60.3zM180.9 422.1h60.3v60.3h-60.3z"/>
      <path style="isolation:isolate" fill="#0074bf" opacity=".5" d="M120.6 422.1h60.3v60.3h-60.3z"/>
      <path style="isolation:isolate" fill="#0082bf" opacity=".7" d="M361.8 361.8h60.3v60.3h-60.3z"/>
      <path style="isolation:isolate" fill="#0082bf" opacity=".8" d="M301.5 361.8h60.3v60.3h-60.3z"/>
      <path fill="#0082bf" d="M241.2 361.8h60.3v60.3h-60.3zM180.9 361.8h60.3v60.3h-60.3z"/>
      <path style="isolation:isolate" fill="#0082bf" opacity=".8" d="M120.6 361.8h60.3v60.3h-60.3z"/>
      <path style="isolation:isolate" fill="#0082bf" opacity=".7" d="M60.3 361.8h60.3v60.3H60.3z"/>
      <path style="isolation:isolate" fill="#008fbf" opacity=".5" d="M422.1 301.5h60.3v60.3h-60.3z"/>
      <path style="isolation:isolate" fill="#008fbf" opacity=".8" d="M361.8 301.5h60.3v60.3h-60.3z"/>
      <path fill="#008fbf" d="M301.5 301.5h60.3v60.3h-60.3zM241.2 301.5h60.3v60.3h-60.3zM180.9 301.5h60.3v60.3h-60.3zM120.6 301.5h60.3v60.3h-60.3z"/>
      <path style="isolation:isolate" fill="#008fbf" opacity=".8" d="M60.3 301.5h60.3v60.3H60.3z"/>
      <path style="isolation:isolate" fill="#008fbf" opacity=".5" d="M0 301.5h60.3v60.3H0z"/>
      <path style="isolation:isolate" fill="#009dbf" opacity=".7" d="M422.1 241.2h60.3v60.3h-60.3z"/>
      <path fill="#009dbf" d="M361.8 241.2h60.3v60.3h-60.3zM301.5 241.2h60.3v60.3h-60.3zM241.2 241.2h60.3v60.3h-60.3zM180.9 241.2h60.3v60.3h-60.3zM120.6 241.2h60.3v60.3h-60.3z"/>
      <path fill="#009dbf" d="M60.3 241.2h60.3v60.3H60.3z"/>
      <path style="isolation:isolate" fill="#009dbf" opacity=".7" d="M0 241.2h60.3v60.3H0z"/>
      <path style="isolation:isolate" fill="#00abbf" opacity=".7" d="M422.1 180.9h60.3v60.3h-60.3z"/>
      <path fill="#00abbf" d="M361.8 180.9h60.3v60.3h-60.3zM301.5 180.9h60.3v60.3h-60.3zM241.2 180.9h60.3v60.3h-60.3zM180.9 180.9h60.3v60.3h-60.3zM120.6 180.9h60.3v60.3h-60.3z"/>
      <path fill="#00abbf" d="M60.3 180.9h60.3v60.3H60.3z"/>
      <path style="isolation:isolate" fill="#00abbf" opacity=".7" d="M0 180.9h60.3v60.3H0z"/>
      <path style="isolation:isolate" fill="#00b9bf" opacity=".5" d="M422.1 120.6h60.3v60.3h-60.3z"/>
      <path style="isolation:isolate" fill="#00b9bf" opacity=".8" d="M361.8 120.6h60.3v60.3h-60.3z"/>
      <path fill="#00b9bf" d="M301.5 120.6h60.3v60.3h-60.3zM241.2 120.6h60.3v60.3h-60.3zM180.9 120.6h60.3v60.3h-60.3zM120.6 120.6h60.3v60.3h-60.3z"/>
      <path style="isolation:isolate" fill="#00b9bf" opacity=".8" d="M60.3 120.6h60.3v60.3H60.3z"/>
      <path style="isolation:isolate" fill="#00b9bf" opacity=".5" d="M0 120.6h60.3v60.3H0z"/>
      <path style="isolation:isolate" fill="#00c6bf" opacity=".7" d="M361.8 60.3h60.3v60.3h-60.3z"/>
      <path style="isolation:isolate" fill="#00c6bf" opacity=".8" d="M301.5 60.3h60.3v60.3h-60.3z"/>
      <path fill="#00c6bf" d="M241.2 60.3h60.3v60.3h-60.3zM180.9 60.3h60.3v60.3h-60.3z"/>
      <path style="isolation:isolate" fill="#00c6bf" opacity=".8" d="M120.6 60.3h60.3v60.3h-60.3z"/>
      <path style="isolation:isolate" fill="#00c6bf" opacity=".7" d="M60.3 60.3h60.3v60.3H60.3z"/>
      <path style="isolation:isolate" fill="#00d4bf" opacity=".5" d="M301.5 0h60.3v60.3h-60.3z"/>
      <path style="isolation:isolate" fill="#00d4bf" opacity=".7" d="M241.2 0h60.3v60.3h-60.3zM180.9 0h60.3v60.3h-60.3z"/>
      <path style="isolation:isolate" fill="#00d4bf" opacity=".5" d="M120.6 0h60.3v60.3h-60.3z"/>
      <path d="M158.8 222.2l16.7-37.6c6.2-9.7 5.4-21.5-1.3-28.2a17.3 17.3 0 00-3-2.4 18.6 18.6 0 00-15.5-1.8 25.3 25.3 0 00-14 10.9s-23 53.6-31.6 77.7-5.1 68.4 27.9 101.5c35 35 85.7 43 118 18.7a20.6 20.6 0 003.8-2.5l99.6-83.1c4.8-4 12-12.3 5.6-21.7-6.3-9.2-18.2-3-23 .2l-57.4 41.7a2.6 2.6 0 01-3.6-.4c-1.5-1.9-1.8-6.6.5-8.5l87.9-74.5c7.6-6.9 8.6-16.8 2.5-23.6s-15.5-6.5-23.2.4l-79.1 61.8a3.5 3.5 0 01-5-.5v-.1c-1.6-1.8-2.2-4.8-.5-6.5l89.6-87a17.5 17.5 0 00.9-24.7 16.7 16.7 0 00-12.2-5.2 17.9 17.9 0 00-12.5 5l-91.6 86c-2.2 2.2-6.5 0-7-2.6a2.8 2.8 0 01.8-2.5l70-79.8a17.3 17.3 0 00-23.5-25.3l-.8.8L171.5 226c-3.8 3.8-9.4 4-12 1.8a4 4 0 01-.8-5.5z" fill="#fff"/>
    </g>
  </g>
</svg>
