<svg width="32" height="32" viewBox="0 0 32 32" fill="none" xmlns="http://www.w3.org/2000/svg">
<g clip-path="url(#clip0_1_78)">
<path d="M30.5794 1.20727H1.20728V30.5794H30.5794V1.20727Z" fill="#1C1C1C"/>
<path d="M30.5794 1.20727V30.5794H1.20727V1.20727H30.5794ZM30.5794 0H1.20727C0.887084 0 0.58001 0.127195 0.353602 0.353602C0.127195 0.58001 0 0.887084 0 1.20727V30.5794C0 30.8996 0.127195 31.2066 0.353602 31.4331C0.58001 31.6595 0.887084 31.7867 1.20727 31.7867H30.5794C30.8996 31.7867 31.2066 31.6595 31.4331 31.4331C31.6595 31.2066 31.7867 30.8996 31.7867 30.5794V1.20727C31.7867 0.887084 31.6595 0.58001 31.4331 0.353602C31.2066 0.127195 30.8996 0 30.5794 0Z" fill="url(#paint0_linear_1_78)"/>
<path d="M29.4982 7.92727L27.3455 12.737H12.3055L14.4582 7.92727H29.4982Z" fill="url(#paint1_linear_1_78)"/>
<path d="M10.0218 17.7939L5.07637 12.0873L2.7491 17.2461L7.61697 23.137H22.6521L25.057 17.7939H10.0218Z" fill="#8D8D8D"/>
</g>
<defs>
<linearGradient id="paint0_linear_1_78" x1="0" y1="15.8933" x2="31.7867" y2="15.8933" gradientUnits="userSpaceOnUse">
<stop offset="0.2" stop-color="#652D90"/>
<stop offset="0.23" stop-color="#732B88"/>
<stop offset="0.34" stop-color="#982574"/>
<stop offset="0.45" stop-color="#B62063"/>
<stop offset="0.57" stop-color="#CE1D56"/>
<stop offset="0.69" stop-color="#DF1A4D"/>
<stop offset="0.83" stop-color="#E91848"/>
<stop offset="1" stop-color="#EC1846"/>
</linearGradient>
<linearGradient id="paint1_linear_1_78" x1="448.657" y1="110.422" x2="1058.31" y2="110.422" gradientUnits="userSpaceOnUse">
<stop offset="0.2" stop-color="#652D90"/>
<stop offset="0.23" stop-color="#732B88"/>
<stop offset="0.34" stop-color="#982574"/>
<stop offset="0.45" stop-color="#B62063"/>
<stop offset="0.57" stop-color="#CE1D56"/>
<stop offset="0.69" stop-color="#DF1A4D"/>
<stop offset="0.83" stop-color="#E91848"/>
<stop offset="1" stop-color="#EC1846"/>
</linearGradient>
<clipPath id="clip0_1_78">
<rect width="32" height="32" fill="white"/>
</clipPath>
</defs>
</svg>
