<svg width="32" height="32" viewBox="0 0 32 32" fill="none" xmlns="http://www.w3.org/2000/svg">
<path d="M1 16V31H16H31V16V0.999997H16H1V16ZM25.5 11C26.9 13.7 26.9 14.3 24.7 18.7C22.8 22.8 22 23.5 19.2 23.8L16 24.1L19.5 16.4C21.4 12.2 23 8.6 23 8.4C23 7.2 24.1 8.4 25.5 11ZM10.6 15.4C9.6 17.9 8.5 19 7.1 19C4.5 19 4.5 17.9 7.1 12.8C8.9 9.2 9.3 8.9 10.7 10.2C12 11.5 12 12.1 10.6 15.4ZM17.3 15.8C15.4 20.4 14.1 22 12.4 22C10.5 22 10.6 20.9 13.6 14.3C15.9 9 16.2 8.7 17.5 10.3C18.6 11.9 18.6 12.7 17.3 15.8Z" fill="black"/>
</svg>
