<svg width="32" height="32" viewBox="0 0 32 32" fill="none" xmlns="http://www.w3.org/2000/svg">
<path d="M6.33732 19.8862L25.8654 13.3671C25.4753 10.9267 25.1972 9.29646 24.875 8.05227C24.5279 6.71405 24.2528 6.356 24.1447 6.23198C23.7682 5.80112 23.2994 5.46063 22.7732 5.23582C22.6211 5.17081 22.1949 5.01978 20.8163 5.1028C19.3577 5.19081 17.4429 5.48886 14.4107 5.96893C11.3794 6.44901 9.46562 6.75806 8.05203 7.12412C6.71447 7.47117 6.35532 7.74722 6.23127 7.85524C5.80109 8.2323 5.46095 8.70037 5.23586 9.22645C5.17083 9.37848 5.01977 9.80455 5.1028 11.1838C5.19084 12.642 5.48896 14.5573 5.96916 17.5888C6.10322 18.4389 6.22427 19.199 6.33732 19.8862V19.8862Z" fill="url(#paint0_linear_3118_75)"/>
<path fill-rule="evenodd" clip-rule="evenodd" d="M0.953092 18.3828C0.0247059 12.5179 -0.440488 9.58545 0.565931 7.23107C1.09057 6.00316 1.88524 4.90922 2.8909 4.03056C4.8187 2.34729 7.75092 1.88322 13.6154 0.95407C19.4818 0.0239213 22.414 -0.440153 24.77 0.566008C25.9976 1.09068 27.0911 1.88515 27.9693 2.89038C29.654 4.81869 30.1182 7.75115 31.0466 13.6171C31.976 19.482 32.4402 22.4155 31.4338 24.7689C30.9095 25.9967 30.1152 27.0907 29.1098 27.9694C27.182 29.6536 24.2488 30.1177 18.3833 31.0469C12.5189 31.976 9.58569 32.4401 7.23171 31.4339C6.00416 30.9092 4.91064 30.1148 4.03237 29.1096C2.34767 27.1813 1.88348 24.2488 0.954093 18.3828H0.953092ZM11.2984 28.7985C12.8691 28.7035 14.8919 28.3864 17.8861 27.9124C20.8814 27.4383 22.9012 27.1142 24.4259 26.7192C25.9015 26.3361 26.5818 25.9631 27.0209 25.579C27.6671 25.0141 28.1776 24.3109 28.5146 23.5217C28.7447 22.9856 28.8897 22.2235 28.7977 20.7012C28.7026 19.131 28.3855 17.1076 27.9113 14.1132C27.4371 11.1187 27.114 9.09737 26.7188 7.57413C26.3357 6.09789 25.9615 5.41778 25.5783 4.97871C25.0137 4.33248 24.3107 3.82175 23.5215 3.48447C22.9853 3.25444 22.2229 3.10941 20.7003 3.20143C19.1297 3.29644 17.1078 3.61349 14.1126 4.08757C11.1183 4.56265 9.09748 4.8857 7.57385 5.28076C6.09723 5.66382 5.41795 6.03788 4.97877 6.42094C4.3323 6.98576 3.82144 7.68895 3.48415 8.47827C3.25505 9.01435 3.10999 9.77648 3.20203 11.2987C3.29707 12.87 3.6132 14.8923 4.0884 17.8868C4.5626 20.8812 4.88573 22.9026 5.28089 24.4258C5.66405 25.902 6.03721 26.5822 6.42137 27.0212C6.98602 27.6674 7.68905 28.1782 8.47823 28.5155C9.01445 28.7455 9.77577 28.8905 11.2994 28.7985H11.2984Z" fill="url(#paint1_linear_3118_75)"/>
<defs>
<linearGradient id="paint0_linear_3118_75" x1="12.5349" y1="-1.68808e-05" x2="17.6135" y2="31.7384" gradientUnits="userSpaceOnUse">
<stop stop-color="#66E3FF"/>
<stop offset="1" stop-color="#7064F9"/>
</linearGradient>
<linearGradient id="paint1_linear_3118_75" x1="12.5349" y1="-8.27064e-05" x2="17.6135" y2="31.7384" gradientUnits="userSpaceOnUse">
<stop stop-color="#66E3FF"/>
<stop offset="1" stop-color="#7064F9"/>
</linearGradient>
</defs>
</svg>
