<svg width="32" height="32" viewBox="0 0 32 32" fill="none" xmlns="http://www.w3.org/2000/svg">
<path d="M16 0C12.8355 0 9.74207 0.938383 7.11088 2.69649C4.4797 4.45459 2.42894 6.95345 1.21793 9.87706C0.00693257 12.8007 -0.309921 16.0177 0.307443 19.1214C0.924806 22.2251 2.44866 25.0761 4.6863 27.3137C6.92394 29.5513 9.77486 31.0752 12.8786 31.6926C15.9823 32.3099 19.1993 31.9931 22.1229 30.7821C25.0466 29.5711 27.5454 27.5203 29.3035 24.8891C31.0616 22.2579 32 19.1645 32 16C32 11.7565 30.3143 7.68687 27.3137 4.68629C24.3131 1.68571 20.2435 0 16 0V0ZM12.0694 5.45509C18.093 2.76762 10.8506 12.3508 7.78288 15.7055C7.78847 15.7093 6.0459 8.14257 12.0694 5.45509ZM22.0384 8.55818C24.5731 11.1897 7.12872 23.1697 7.12872 23.1697C10.6679 9.4509 19.5019 5.92661 22.0366 8.55818H22.0384ZM6.15027 27.0239C6.15027 27.0239 16.0429 14.2201 28.0787 16.2814C28.0843 16.2721 30.9507 23.1921 6.15027 27.0239Z" fill="#E7353C"/>
</svg>
