<svg width="32" height="32" viewBox="0 0 32 32" fill="none" xmlns="http://www.w3.org/2000/svg">
<path d="M10 19C10 18.0442 10.2946 14.646 15.4018 11.885C20.4107 9.23009 21 7 21 7C20.5089 10.0796 19.625 10.9292 14.8125 13.6903C10.0982 16.4513 10 19 10 19V19Z" fill="#0345BF"/>
<path d="M10.0139 25C10.0139 25 10.1129 22.1239 14.7647 19.2478C19.6144 16.2566 20.5051 15.2212 21 12C21 12 20.5051 14.3009 15.3585 17.292C10.2119 20.2832 9.91495 23.9646 10.0139 25" fill="#0345BF"/>
<path d="M16 2.51625C8.5 2.51625 2.41304 8.58123 2.41304 15.9458C2.41304 23.3105 8.5 29.3755 15.8913 29.3755C23.2826 29.3755 29.3696 23.3105 29.3696 15.9458C29.587 8.58123 23.5 2.51625 16 2.51625V2.51625ZM16 31C7.73913 31 1 24.2852 1 15.9458C1 7.6065 7.73913 1 16 1C24.2609 1 31 7.7148 31 15.9458C31 24.1769 24.3696 31 16 31Z" fill="#0345BF"/>
<path fill-rule="evenodd" clip-rule="evenodd" d="M28.8696 15.9385L28.8698 15.9311C29.0785 8.86137 23.2314 3.01625 16 3.01625C8.77182 3.01625 2.91304 8.86168 2.91304 15.9458C2.91304 23.0326 8.77444 28.8755 15.8913 28.8755C23.0082 28.8755 28.8696 23.0326 28.8696 15.9458V15.9385ZM16 31.5C7.46234 31.5 0.5 24.5607 0.5 15.9458C0.5 7.3263 7.46706 0.5 16 0.5C24.5353 0.5 31.5 7.43696 31.5 15.9458C31.5 24.4477 24.651 31.5 16 31.5ZM2.41304 15.9458C2.41304 8.58123 8.5 2.51625 16 2.51625C23.5 2.51625 29.587 8.58123 29.3696 15.9458C29.3696 23.3105 23.2826 29.3755 15.8913 29.3755C8.5 29.3755 2.41304 23.3105 2.41304 15.9458ZM1 15.9458C1 24.2852 7.73913 31 16 31C24.3696 31 31 24.1769 31 15.9458C31 7.7148 24.2609 1 16 1C7.73913 1 1 7.6065 1 15.9458Z" fill="#0345BF"/>
</svg>
