<svg width="32" height="32" viewBox="0 0 32 32" fill="none" xmlns="http://www.w3.org/2000/svg">
<path d="M2.56004 1.76007V30.2129C2.55778 30.5221 2.65515 30.8239 2.83773 31.0735C3.02031 31.3231 3.2784 31.5073 3.57381 31.5989C3.86922 31.6904 4.18625 31.6844 4.47798 31.5817C4.76971 31.4791 5.02064 31.2852 5.19364 31.0289L9.96804 24.0593C10.1329 23.8191 10.221 23.5346 10.2208 23.2433V1.76007C10.2208 1.37816 10.0691 1.01189 9.79907 0.741835C9.52902 0.471782 9.16275 0.320068 8.78084 0.320068H4.00004C3.61812 0.320068 3.25185 0.471782 2.9818 0.741835C2.71175 1.01189 2.56004 1.37816 2.56004 1.76007V1.76007Z" fill="#2E3247"/>
<path d="M14.7824 16.6993L25.2656 2.04174C26.5456 0.257738 29.3536 1.16014 29.3536 3.35214V28.6321C29.3536 29.23 29.1161 29.8035 28.6933 30.2262C28.2706 30.649 27.6971 30.8865 27.0992 30.8865H24C23.4021 30.8865 22.8287 30.649 22.4059 30.2262C21.9832 29.8035 21.7456 29.23 21.7456 28.6321V21.4801C21.7451 21.0526 21.623 20.634 21.3936 20.2733C21.1642 19.9125 20.8369 19.6244 20.45 19.4426C20.063 19.2608 19.6323 19.1927 19.2082 19.2464C18.784 19.3001 18.3839 19.4733 18.0544 19.7457V19.7457C16.0224 21.4337 13.2448 18.8481 14.7824 16.6993Z" fill="#2E3247"/>
</svg>
