<svg width="32" height="32" viewBox="0 0 32 32" fill="none" xmlns="http://www.w3.org/2000/svg">
<path d="M4.87525 18.6729L14.0235 9.5247C15.2094 8.35764 15.9435 6.71999 15.9435 4.93176C15.9435 3.16235 15.2282 1.54352 14.08 0.376465L4.93172 9.5247C3.74584 10.6918 3.01172 12.3294 3.01172 14.1176C3.01172 15.9059 3.72701 17.5059 4.87525 18.6729ZM27.0305 13.3271L17.8823 22.4753C16.6964 23.6423 15.9623 25.28 15.9623 27.0682C15.9623 28.8376 16.6776 30.4565 17.8258 31.6235L26.9741 22.4753C28.16 21.3082 28.8941 19.6706 28.8941 17.8823C28.8941 16.0941 28.1788 14.4941 27.0305 13.3271ZM26.9741 9.54352C28.16 8.37647 28.8941 6.73882 28.8941 4.95058C28.8941 3.18117 28.1788 1.56235 27.0305 0.395288L4.93172 22.4753C3.74584 23.6423 3.01172 25.28 3.01172 27.0682C3.01172 28.8376 3.72701 30.4565 4.87525 31.6235L26.9741 9.54352Z" fill="#1292EE"/>
</svg>
