<svg width="32" height="32" viewBox="0 0 32 32" fill="none" xmlns="http://www.w3.org/2000/svg">
<mask id="mask0" mask-type="alpha" maskUnits="userSpaceOnUse" x="0" y="0" width="32" height="32">
<path d="M11.9521 0V24.1725C11.9521 24.5122 12.1085 24.833 12.3762 25.0421C12.8565 25.4173 13.55 25.3321 13.9251 24.8518L15.8029 22.448C15.8168 22.4302 15.8327 22.4143 15.8505 22.4004C15.9705 22.3066 16.1439 22.3279 16.2377 22.448L18.1155 24.8518C18.3246 25.1195 18.6454 25.276 18.9851 25.276C19.5945 25.276 20.0885 24.7819 20.0885 24.1725V0.0321626C26.9017 1.87563 31.9198 8.17225 31.9198 15.6564C31.9198 24.5871 24.7743 31.8268 15.9599 31.8268C7.1455 31.8268 0 24.5871 0 15.6564C0 8.12809 5.07753 1.80138 11.9521 0Z" fill="white"/>
</mask>
<g mask="url(#mask0)">
<path d="M11.9521 0V24.1725C11.9521 24.5122 12.1085 24.833 12.3762 25.0421C12.8565 25.4173 13.55 25.3321 13.9251 24.8518L15.8029 22.448C15.8168 22.4302 15.8327 22.4143 15.8505 22.4004C15.9705 22.3066 16.1439 22.3279 16.2377 22.448L18.1155 24.8518C18.3246 25.1195 18.6454 25.276 18.9851 25.276C19.5945 25.276 20.0885 24.7819 20.0885 24.1725V0.0321626C26.9017 1.87563 31.9198 8.17225 31.9198 15.6564C31.9198 24.5871 24.7743 31.8268 15.9599 31.8268C7.1455 31.8268 0 24.5871 0 15.6564C0 8.12809 5.07753 1.80138 11.9521 0Z" fill="#F44599"/>
</g>
<path fill-rule="evenodd" clip-rule="evenodd" d="M16.2334 18.3249C16.0804 18.4831 15.8472 18.4821 15.6946 18.3234C14.9714 17.5694 14.4092 16.9226 13.8854 16.2283C13.3446 15.6139 13.3996 14.5791 14.0502 14.0502C14.4236 13.7466 14.9291 13.7132 15.3399 13.9465C15.5769 14.0809 15.743 14.2733 15.8539 14.4925C15.9025 14.5888 16.0248 14.5876 16.0736 14.4912C16.1924 14.2567 16.3746 14.0529 16.6395 13.918C16.983 13.7432 17.3884 13.7511 17.7232 13.9467C18.5221 14.4132 18.6064 15.6018 18.0262 16.261C17.4179 17.0519 16.8082 17.7304 16.2334 18.3249Z" fill="#F44599"/>
</svg>
