<svg width="32" height="32" viewBox="0 0 32 32" fill="none" xmlns="http://www.w3.org/2000/svg">
<path d="M30.5724 0H26.1767C25.1873 0 24.7633 0.417079 24.7633 1.4382V12.7569H7.25088V1.4382C7.25088 0.431461 6.84099 0 5.83746 0H1.41343C0.409894 0 0 0.417079 0 1.4382V30.5618C0 31.5829 0.409894 32 1.41343 32H5.83746C6.82686 32 7.25088 31.5973 7.25088 30.5618V19.0562H24.7774V30.5618C24.7774 31.5685 25.1873 32 26.1908 32H30.5866C31.576 32 32 31.5829 32 30.5618V1.4382C31.9717 0.460225 31.5618 0 30.5724 0Z" fill="#D50C2D"/>
</svg>
