<svg width="32" height="32" viewBox="0 0 32 32" fill="none" xmlns="http://www.w3.org/2000/svg">
<g clip-path="url(#clip0_3671_6583)">
<path d="M32 0H0V32H32V0Z" fill="#1C242B"/>
<path fill-rule="evenodd" clip-rule="evenodd" d="M5.67848 20.2456C6.60552 20.2456 7.35696 21.001 7.35696 21.933C7.35696 22.8648 6.60552 23.6203 5.67848 23.6203C4.75144 23.6203 4 22.8648 4 21.933C4 21.001 4.75144 20.2456 5.67848 20.2456Z" fill="white"/>
<path fill-rule="evenodd" clip-rule="evenodd" d="M27.6 10.0661C27.6 9.13435 26.8485 8.37891 25.9219 8.37891C24.995 8.37891 24.2438 9.13435 24.2438 10.0661C24.2438 10.9982 24.995 11.7536 25.9219 11.7536C26.8485 11.7536 27.6 10.9982 27.6 10.0661Z" fill="white"/>
<path fill-rule="evenodd" clip-rule="evenodd" d="M25.9135 13.4652C24.9826 13.4652 24.2278 14.2242 24.2278 15.1602V16.0077C24.2278 17.88 22.7185 19.3977 20.8566 19.3977C18.9946 19.3977 17.4852 17.88 17.4852 16.0077C17.477 12.2702 14.4614 9.24294 10.7426 9.24294C9.51396 9.24294 8.36328 9.5749 7.37132 10.1521V4.99014V1.6001L7.25964 1.65613L4 3.54865V8.38014V14.3127V16.8552C4 17.7912 4.7548 18.5502 5.68564 18.5502C6.61676 18.5502 7.37132 17.7912 7.37132 16.8552V16.023C7.37132 14.1507 8.88068 12.633 10.7426 12.633C12.6046 12.633 14.1139 14.1507 14.1139 16.023C14.1221 19.7605 17.1378 22.7877 20.8566 22.7877C22.0852 22.7877 23.2359 22.4558 24.2278 21.8785V27.0253V30.4153L24.3395 30.3593L27.5992 28.4667V24.8594V17.7027V15.1602C27.5992 14.2242 26.8444 13.4652 25.9135 13.4652Z" fill="white"/>
</g>
<defs>
<clipPath id="clip0_3671_6583">
<rect width="32" height="32" fill="white"/>
</clipPath>
</defs>
</svg>
