<?xml version="1.0" encoding="UTF-8" standalone="no"?>
<!DOCTYPE svg PUBLIC "-//W3C//DTD SVG 1.1//EN" "http://www.w3.org/Graphics/SVG/1.1/DTD/svg11.dtd">
<svg version="1.1" xmlns="http://www.w3.org/2000/svg" xmlns:xlink="http://www.w3.org/1999/xlink" preserveAspectRatio="xMidYMid meet" viewBox="-0.9031270743966944 177.02861062120326 284.41527584428854 284.24299431706834" width="280.42" height="280.24"><defs><path d="M249.45 238.73C229.7 213.9 202.05 199.79 176.08 191.32C176.08 191.32 176.08 191.32 176.08 191.32C176.08 191.32 93.12 161.41 46.28 191.32C-0.56 221.23 0.56 346.53 0.56 346.53C0.56 346.53 -6.77 402.4 36.68 434.57C53.62 448.68 75.63 456.01 101.02 456.01C108.25 456.24 166.04 458.05 173.26 458.27C216.16 458.27 249.45 436.83 267.51 397.32C290.09 348.78 282.75 279.93 249.45 238.73M230.26 375.31C218.41 401.83 195.84 415.94 166.49 415.94C157.46 415.94 150.69 413.12 145.61 407.48C134.32 395.63 135.45 373.05 136.58 351.6C137.14 339.19 137.71 326.77 136.01 318.87C133.76 310.41 121.34 299.12 104.41 296.3C93.69 294.6 73.37 295.17 58.13 320C50.79 331.85 49.1 355.56 59.82 375.87C66.6 388.29 80.71 403.53 109.49 403.53C109.49 404.54 109.49 412.67 109.49 413.69C83.53 413.69 62.65 401.83 50.79 380.39C39.51 359.51 38.94 331.85 49.1 314.36C62.08 292.91 82.4 282.19 104.97 285.57C124.16 288.4 141.66 301.38 145.04 315.49C147.3 325.08 146.74 338.06 146.17 351.04C145.04 369.66 144.48 390.55 152.38 399.58C155.77 402.96 159.72 404.66 165.93 404.66C197.53 404.66 213.33 385.47 220.67 369.66C234.78 338.62 230.26 293.47 209.38 267.51C177.78 228.01 110.05 228.57 108.92 228.57C108.92 227.56 108.92 219.43 108.92 218.41C111.75 218.41 182.86 217.85 217.28 261.31C240.99 291.22 246.63 340.88 230.26 375.31" id="jRbQfnhwV"></path></defs><g><g><use xlink:href="#jRbQfnhwV" opacity="1" fill="#69ff47" fill-opacity="1"></use><g><use xlink:href="#jRbQfnhwV" opacity="1" fill-opacity="0" stroke="#000000" stroke-width="1" stroke-opacity="0"></use></g></g></g></svg>
