<svg width="32" height="32" viewBox="0 0 32 32" fill="none" xmlns="http://www.w3.org/2000/svg">
<path d="M24.5166 16.6964C25.2236 17.8651 26.2476 18.3771 27.3387 18.3771C29.1977 18.3771 30.7215 16.8229 30.7215 14.8114C30.7215 12.8305 29.3196 11.3981 27.3387 11.3981C25.8453 11.3981 24.3124 12.1783 22.6926 14.7916C22.3345 12.6888 20.6842 11.5002 18.7947 11.3722C19.357 10.5341 19.5657 9.65334 19.5657 8.62477C19.5657 5.91238 17.0057 3.04762 12.3124 3.04762C7.1619 3.04762 3.93143 6.21715 3.93143 9.53905C3.93143 11.7638 4.90819 13.1048 6.58286 14.72C2.52952 16.1219 0 18.621 0 21.8514C0 25.9048 3.78057 28.9524 8.41295 28.9524C11.5825 28.9524 14.2949 27.6724 16.4282 25.2952C18.9272 27.9467 20.573 28.9524 22.8282 28.9524C26.0891 28.9524 28.832 26.3924 29.0149 22.0648L28.6796 21.9429C27.7958 23.4362 26.5158 24.3505 24.9006 24.3505C23.0415 24.3505 21.9139 23.5886 19.9634 21.4248C21.347 19.4591 22.9912 17.8286 24.515 16.6964H24.5166ZM12.1295 5.14896C13.7752 5.14896 14.813 6.48991 14.813 8.50134C14.813 9.93372 14.24 11.4316 13.0453 13.2251C10.8922 11.2686 9.47962 9.87277 9.47962 7.98324C9.47962 6.27657 10.6072 5.14896 12.131 5.14896H12.1295ZM11.2152 24.5943C8.44191 24.5943 6.64381 22.6133 6.64381 20.2667C6.64381 18.8952 7.1619 17.5238 8.32 16.3352C10.1196 17.9505 12.3124 20.3581 14.659 23.3143C13.5314 24.1981 12.4663 24.5943 11.2152 24.5943ZM18.5615 19.6571C17.1901 17.8895 15.8187 16.0914 14.4472 14.5981C16.3063 13.6823 17.5025 12.8564 18.2842 12.0152C19.8918 12.7543 21.1642 14.9562 18.5615 19.6571Z" fill="#47E83A"/>
</svg>
