<svg width="65" height="65" viewBox="0 0 65 65" fill="none" xmlns="http://www.w3.org/2000/svg">
<g clip-path="url(#clip0_14:361)">
<path d="M38.7764 7.22028C38.9864 7.07028 39.2264 6.94028 39.4164 6.76028C40.4464 5.74028 41.4764 4.70028 42.4964 3.66028C42.9264 3.22028 43.4064 2.91028 44.0464 3.20028C44.6664 3.47028 44.8364 3.99028 44.8264 4.62028C44.8164 6.10028 44.8364 7.58028 44.8164 9.06028C44.8064 9.55028 44.9364 9.83028 45.3964 10.0803C51.5764 13.4903 55.9864 18.4803 58.5464 25.0603C60.1764 29.2403 60.7064 33.5803 60.2964 38.0503C59.8164 43.3003 57.9764 48.0603 54.8464 52.2503C50.3364 58.2703 44.3864 62.1603 36.9164 63.4303C34.3064 63.8703 31.6164 64.0003 28.9564 64.0303C20.5364 64.1003 12.1164 64.0503 3.69638 64.0503C3.50638 64.0503 3.31638 64.0503 3.04638 64.0503C3.02638 63.7903 3.00638 63.5603 3.00638 63.3303C3.01638 54.0603 2.96638 44.7903 3.04638 35.5203C3.12638 26.7603 6.39638 19.3303 13.0464 13.6003C18.5664 8.84028 25.0264 6.38028 32.3964 6.54028C34.0764 6.58028 34.0564 6.56028 34.6164 4.99028C35.0964 3.64028 35.6064 2.31028 36.1264 0.980278C36.4164 0.250278 36.9564 -0.0897224 37.5664 0.0202776C38.2364 0.150278 38.5864 0.610278 38.5864 1.47028C38.5964 3.34028 38.5864 5.20028 38.5864 7.07028C38.6464 7.12028 38.7064 7.17028 38.7764 7.22028ZM10.0664 43.8403C10.0664 48.1903 10.0664 52.5503 10.0664 56.9203C14.2864 56.9203 18.4064 56.9203 22.5264 56.9203C25.8964 56.9103 29.2664 56.9603 32.6364 56.8703C35.0164 56.8103 37.3464 56.2803 39.5764 55.4103C48.3364 52.0003 53.9564 43.1803 53.2964 33.9303C52.9564 29.2003 51.3464 25.0003 48.2864 21.4003C42.1664 14.1903 32.6964 11.7203 23.9064 15.1703C16.9964 17.8903 12.5764 23.0003 10.7564 30.2003C9.62638 34.6903 10.0764 39.2903 10.0664 43.8403Z" fill="#01D1B2"/>
<path d="M10.0664 43.8403C10.0764 39.2903 9.62638 34.6903 10.7564 30.2203C12.5764 23.0203 16.9964 17.9003 23.9064 15.1903C32.6864 11.7403 42.1664 14.2103 48.2864 21.4203C51.3464 25.0203 52.9564 29.2203 53.2964 33.9503C53.9564 43.1903 48.3364 52.0103 39.5764 55.4303C37.3464 56.3003 35.0164 56.8203 32.6364 56.8903C29.2664 56.9803 25.8964 56.9303 22.5264 56.9403C21.1564 55.4703 19.7964 54.0003 18.4164 52.5503C15.6464 49.6303 12.8564 46.7403 10.0664 43.8403ZM22.8164 34.7303C22.7864 39.8403 26.8264 43.9403 31.8864 43.9603C36.7864 43.9703 40.8564 39.8203 40.8664 34.7803C40.8764 29.7503 36.8464 25.6303 31.8964 25.6103C26.8764 25.5703 22.8464 29.6303 22.8164 34.7303Z" fill="#FDFEFE"/>
<path d="M10.0664 43.8403C12.8464 46.7403 15.6364 49.6203 18.4164 52.5303C19.8064 53.9803 21.1564 55.4603 22.5264 56.9203C18.4064 56.9203 14.2864 56.9203 10.0664 56.9203C10.0664 52.5503 10.0664 48.2003 10.0664 43.8403Z" fill="#C5F303"/>
<path d="M22.8164 34.7302C22.8464 29.6302 26.8764 25.5802 31.8964 25.6002C36.8564 25.6202 40.8864 29.7402 40.8664 34.7702C40.8564 39.8102 36.7864 43.9602 31.8864 43.9502C26.8264 43.9402 22.7864 39.8402 22.8164 34.7302ZM33.0964 29.9402C31.2564 29.1502 29.0764 29.8602 27.7464 31.6902C26.2964 33.6702 26.3864 36.2702 27.9664 38.1402C29.4564 39.9102 32.0864 40.4602 34.1164 39.4302C36.1564 38.4002 37.2364 36.1102 36.6964 33.9602C32.9964 33.4502 32.5664 32.6802 33.0964 29.9402Z" fill="#02D2B2"/>
<path d="M33.0964 29.9403C32.5564 32.6803 32.9964 33.4503 36.6964 33.9703C37.2364 36.1203 36.1564 38.4103 34.1164 39.4403C32.0864 40.4703 29.4564 39.9103 27.9664 38.1503C26.3864 36.2703 26.2964 33.6803 27.7464 31.7003C29.0864 29.8603 31.2564 29.1503 33.0964 29.9403Z" fill="#FCFEFD"/>
</g>
<defs>
<clipPath id="clip0_14:361">
<rect width="64.07" height="64.07" fill="white"/>
</clipPath>
</defs>
</svg>
