<svg width="32" height="32" viewBox="0 0 32 32" fill="none" xmlns="http://www.w3.org/2000/svg">
<path d="M22.7962 28.3484C23.0518 28.5119 23.3062 28.6753 23.5198 28.8946C23.9303 29.3141 24.0707 29.8249 24.0572 30.4017L24.0519 30.614L23.8688 30.7201C23.3957 30.9929 22.8221 31.0788 22.2832 31.0757C21.811 31.0729 21.3236 31.0037 20.8665 30.8864C20.5968 30.8169 20.1644 30.687 19.945 30.5113C19.7112 30.3248 19.5323 30.1023 19.4291 29.8201C19.2708 29.3861 19.3257 28.8816 19.3537 28.4288C19.3916 27.7895 19.3815 27.2169 19.2604 26.5838L19.2227 26.3833L19.3688 26.2417C20.1851 25.4523 21.0013 24.6626 21.8174 23.8729L22.4491 23.2617L22.4582 24.1411C22.4708 25.4624 22.2628 27.0969 22.7962 28.3484Z" fill="#17273E"/>
<path d="M22.0806 24.1445C21.265 24.9346 20.4488 25.7241 19.6328 26.5132C20.0244 28.572 19.2571 29.479 20.1814 30.2171C20.5153 30.4832 22.5442 31.0492 23.6801 30.393C23.7065 29.3244 23.1215 29.007 22.4976 28.6057C21.8676 27.2509 22.0937 25.4797 22.0806 24.1445Z" fill="#2B4F91"/>
<path d="M22.0805 24.1445C21.2649 24.9346 20.4488 25.7241 19.6328 26.5133C19.7033 26.8832 19.7433 27.2581 19.7521 27.6346C20.5735 27.414 21.3613 27.0085 22.0609 26.4619C22.0296 25.6518 22.0874 24.8392 22.0805 24.1445Z" fill="#243D75"/>
<path d="M19.8187 26.334L19.6328 26.5137C20.0244 28.5723 19.2571 29.4792 20.1814 30.2172C20.5152 30.4835 22.5442 31.0495 23.68 30.3932C23.6813 30.3716 23.6813 30.3502 23.6813 30.3294C22.6345 30.5844 20.3737 30.4192 20.3426 29.3584C20.2969 28.3451 20.3897 27.3525 20.3227 26.3396L19.8187 26.334Z" fill="#2C8DBB"/>
<path d="M19.8186 26.334L19.7859 26.3656L19.7479 26.4028L19.7099 26.44L19.6708 26.4766L19.6328 26.5137C19.6387 26.5444 19.645 26.5756 19.6503 26.6057L19.6509 26.6091V26.6116C19.6557 26.6412 19.6607 26.6709 19.6658 26.6994L19.6663 26.7035L19.6666 26.7067C19.6712 26.7356 19.6761 26.7646 19.6799 26.793L19.6804 26.7957L19.6809 26.8004C19.6855 26.8288 19.6891 26.8561 19.6927 26.8844L19.6939 26.8862L19.6948 26.8926C19.6976 26.9202 19.7012 26.948 19.7049 26.9753V26.9755C19.7115 27.0321 19.7174 27.0873 19.7227 27.1419L19.7237 27.1493V27.1509C19.7285 27.2059 19.7333 27.2597 19.7366 27.312L19.7374 27.3166L19.7378 27.3191C19.7387 27.3449 19.7406 27.3701 19.742 27.3952V27.3983C19.7456 27.4518 19.7484 27.5043 19.75 27.5564V27.5569C19.7504 27.5826 19.7511 27.6084 19.7521 27.6341V27.6348C19.9525 27.5807 20.1502 27.5162 20.3463 27.4413C20.3503 27.0755 20.3469 26.7084 20.3226 26.3396L19.8186 26.334ZM19.75 27.5569C19.7504 27.5826 19.7511 27.6084 19.7521 27.6341L19.75 27.5569Z" fill="#2B4F91"/>
<path d="M11.5111 19.199C11.5224 18.8796 11.5609 18.4476 11.9146 18.32C12.3806 18.1521 12.7905 18.7544 13.017 19.0711C13.1953 19.3217 13.3439 19.5988 13.475 19.8765C13.6025 20.1491 13.8679 20.5091 13.6747 20.805C13.4918 21.0846 13.1384 21.0115 12.8641 20.9664C12.4657 20.9016 12.0508 20.7943 11.6948 20.5994C11.4726 20.4784 11.2071 20.3502 11.1834 20.0626C11.1655 19.846 11.2891 19.7342 11.3913 19.5711C11.4634 19.4564 11.5066 19.3352 11.5111 19.199Z" fill="#17273E"/>
<path d="M11.8952 19.2118C11.8884 19.4016 11.8327 19.5895 11.7171 19.7742C11.541 20.0547 11.4388 20.0213 11.8792 20.2618C12.1571 20.4145 12.5113 20.5194 12.9264 20.5872C13.5463 20.6884 13.4017 20.6192 13.1283 20.0391C12.996 19.7586 12.8563 19.5049 12.7051 19.2928C12.105 18.4524 11.9199 18.5097 11.8952 19.2118Z" fill="#276CA0"/>
<path d="M11.8952 19.2111C11.8884 19.401 11.8327 19.5889 11.7171 19.7736C11.541 20.054 11.4388 20.0206 11.8792 20.2616C11.9719 20.3119 12.0679 20.3556 12.1667 20.3922C12.1512 19.7967 12.2228 19.2046 11.9833 18.7324C11.9295 18.814 11.9034 18.9763 11.8952 19.2111Z" fill="#2C8DBB"/>
<path d="M8.90233 18.7394C8.91943 18.7068 8.93378 18.6717 8.94464 18.6368C9.05176 18.3026 8.94418 17.7621 9.3289 17.6021C9.5654 17.5044 9.77404 17.6336 9.92998 17.8005C10.0743 17.9552 10.2069 18.1457 10.328 18.319C10.4943 18.5587 10.6471 18.8077 10.7855 19.0646C10.9115 19.2976 11.122 19.5517 10.9697 19.8291C10.821 20.0994 10.5152 20.0722 10.258 20.0447C10.0573 20.0235 9.8598 19.9792 9.66931 19.9126C9.37073 19.8086 9.00082 19.721 8.84827 19.4106C8.73811 19.1864 8.78933 18.95 8.90233 18.7394Z" fill="#17273E"/>
<path d="M9.2414 18.9209C9.02036 19.3333 9.35909 19.3977 9.7974 19.5514C9.96016 19.6073 10.1287 19.6448 10.2998 19.6634C10.7917 19.7163 10.6648 19.645 10.4492 19.2471C10.3178 19.0028 10.1727 18.7661 10.0147 18.5382C9.15405 17.3014 9.56459 18.3176 9.2414 18.9209Z" fill="#276CA0"/>
<path d="M9.24131 18.921C9.05407 19.2703 9.26907 19.3704 9.60519 19.4856C9.70268 18.9662 9.65246 18.4699 9.48381 17.9551C9.35625 17.9863 9.44739 18.5368 9.24131 18.921Z" fill="#2C8DBB"/>
<path d="M6.50424 18.4823C6.50373 18.4592 6.50215 18.4363 6.49954 18.4134C6.46829 18.1013 6.28273 17.698 6.57163 17.4495C6.77299 17.2762 7.01859 17.3384 7.22649 17.4519C7.43198 17.5642 7.63924 17.7226 7.82451 17.8656C7.96733 17.9759 8.09988 18.099 8.22053 18.2333C8.41876 18.4536 8.68661 18.7137 8.60551 19.0416C8.52801 19.3582 8.20812 19.4564 7.9251 19.4985C7.69652 19.5326 7.45295 19.5283 7.22299 19.5073C6.99394 19.4871 6.7375 19.5079 6.57541 19.3069C6.43398 19.1308 6.47528 18.9426 6.49449 18.7409C6.50277 18.655 6.50635 18.5688 6.50424 18.4823Z" fill="#17273E"/>
<path d="M6.88791 18.4711C6.88982 18.5734 6.88604 18.6755 6.87661 18.7774C6.84138 19.1467 6.80056 19.084 7.25764 19.1248C7.47539 19.1445 7.68889 19.145 7.8682 19.1184C8.45117 19.0311 8.23904 18.8277 7.93505 18.4888C7.83005 18.3719 7.71474 18.2648 7.59051 18.1685C6.43809 17.2811 6.87219 17.9055 6.88791 18.4711Z" fill="#276CA0"/>
<path d="M6.88807 18.4709C6.88998 18.5731 6.8862 18.6754 6.87675 18.7771C6.84154 19.1464 6.80072 19.0837 7.25782 19.1245C7.29543 19.1281 7.33231 19.1309 7.36909 19.1327C7.25314 18.5516 7.11594 18.1426 6.83666 17.7305C6.72199 17.7791 6.87897 18.1352 6.88807 18.4708" fill="#2C8DBB"/>
<path d="M24.1212 15.8624C22.9545 15.2398 20.7605 13.9931 20.7893 12.5128C20.7948 12.2359 20.8751 11.9749 21.013 11.7351L21.0498 11.6715L21.1063 11.6242C21.2998 11.4648 21.5173 11.3447 21.7585 11.2731C22.6513 11.0082 23.5957 11.484 24.3139 11.9808C25.3665 12.709 26.3516 13.7494 27.1939 14.7086C27.3835 14.9251 27.6812 15.1817 27.7383 15.4706C27.7986 15.7791 27.604 16.1044 27.4722 16.372C26.8653 17.6078 25.9306 18.7477 24.8817 19.7298L24.916 19.8458C25.2004 20.8018 25.1024 21.6426 24.4091 22.4002L24.3325 22.4829L24.2244 22.5149C23.6973 22.6714 23.1409 22.5709 22.6133 22.4742L22.4873 22.4505L22.3975 22.3588C21.5135 21.4573 21.0854 20.497 21.8516 19.3456C22.1391 18.9135 22.4073 18.4684 22.6774 18.0247C23.0942 17.3402 23.5212 16.6216 24.017 15.9917C24.0506 15.9492 24.085 15.9059 24.1212 15.8624Z" fill="#17273E"/>
<path d="M24.4036 15.5524C22.0832 14.3221 20.6914 13.1101 21.3657 11.9379C22.6027 10.9156 24.5614 12.3243 26.8888 14.9767C27.4278 15.5905 27.4737 15.4515 27.1086 16.194C26.2792 17.8822 24.7184 19.5319 22.8725 20.8485C23.1077 20.7385 23.3435 20.6285 23.5788 20.5175C23.8798 20.9957 24.0013 21.436 23.7438 21.7968C24.1406 21.4894 24.2244 21.1444 23.9441 20.4746L24.5274 19.9613C24.7607 20.7461 24.7241 21.4551 24.1097 22.1266C23.6307 22.2681 23.0128 22.1348 22.6875 22.0751C21.933 21.3054 21.5412 20.545 22.1892 19.5709C23.3353 17.8479 24.5253 15.3716 25.6018 15.2819C25.1715 15.091 24.6862 15.2028 24.4036 15.5522" fill="#2B4F91"/>
<path d="M24.404 15.5523C22.9713 14.7926 21.8923 14.0393 21.4359 13.2984L21.4258 11.8909C22.0983 11.3866 22.9746 11.5691 24.0013 12.2581C24.2319 13.1542 24.4494 14.5631 24.4516 15.4973L24.404 15.5523ZM24.2047 19.7976C23.7783 20.1694 23.3339 20.5201 22.8732 20.8484C23.1085 20.7385 23.3442 20.6284 23.5795 20.5174C23.8806 20.9958 24.002 21.436 23.7445 21.7968C24.1417 21.4893 24.2251 21.1444 23.9448 20.4745L24.2075 20.2438C24.351 20.7573 24.3964 21.2722 24.3712 21.7867C24.3 21.901 24.2134 22.014 24.1105 22.1265C23.6315 22.2681 23.0135 22.1348 22.6882 22.0751C21.9337 21.3054 21.5419 20.5449 22.1899 19.5706C23.0332 18.3029 23.9009 16.6269 24.7287 15.7946C24.7108 17.1773 24.5023 18.4868 24.2047 19.7976Z" fill="#243D75"/>
<path d="M13.1051 7.68741C13.0107 7.55835 12.9014 7.44081 12.7794 7.33716C12.6171 7.19979 12.4383 7.10794 12.2512 7.01212C12.0305 6.89958 11.7982 6.77719 11.7266 6.51816C11.6563 6.26235 11.7872 6.03938 11.9577 5.86164C12.1531 5.65659 12.4177 5.46718 12.6481 5.30304C13.2517 4.87408 13.9341 4.49801 14.5893 4.15182L15.4258 3.70898L15.1336 4.60918C14.7663 5.74036 14.3988 6.87163 14.0312 8.0029L13.8077 8.69141C13.7474 9.38858 13.6852 10.0863 13.6243 10.7834L13.6641 10.9654C13.8673 11.9027 14.0703 12.8408 14.2729 13.7788L14.592 15.2502L13.608 14.1105C13.2868 13.739 12.8854 13.5415 12.4053 13.4575C12.2018 13.4222 11.9984 13.4076 11.7942 13.3816C11.5612 13.3517 11.3209 13.2959 11.1927 13.0753C11.0496 12.8293 11.1501 12.5691 11.2874 12.3501C11.4506 12.0878 11.6785 11.8254 11.8793 11.5912C12.1104 11.323 12.3871 11.1055 12.6887 10.926L12.6751 10.9142C12.5823 10.8358 12.4512 10.7859 12.3368 10.7506C11.9577 10.633 11.4045 10.6018 11.1908 10.2199C10.9508 9.79353 11.3061 9.31714 11.5733 9.00267C11.999 8.49997 12.5614 8.07176 13.1051 7.68741Z" fill="#17273E"/>
<path d="M14.8435 5.53422C16.1585 6.79024 17.8384 7.58111 19.3576 8.55174C20.3947 9.21433 21.3395 9.95664 22.0816 10.9504C22.9925 12.1703 23.459 13.5827 23.6668 15.079C23.7372 15.588 23.772 16.103 23.7925 16.6164C23.8305 17.5509 23.8071 18.4897 23.7112 19.4209C23.4822 21.6515 22.8106 24.0276 21.2382 25.6966C19.2733 27.7836 16.1886 28.6192 13.7365 26.8177C12.787 26.1195 11.9998 25.2003 11.2357 24.3094C10.7351 23.7247 10.237 23.135 9.69527 22.5869C9.06973 21.953 8.35923 21.2848 7.51356 20.962C6.56482 20.5996 6.04125 20.6869 5.18997 21.2184C4.95219 21.367 4.61896 21.6241 4.35184 21.3576C4.23884 21.2451 4.21042 21.0851 4.25925 20.9369C4.39414 20.5314 4.5968 20.1578 4.87752 19.8362C6.32501 18.1779 9.20362 18.5492 10.9497 19.4804C11.6085 19.8319 12.3262 20.2331 13.0857 20.2833C13.6231 20.3186 14.169 20.2177 14.5861 19.8566C14.9293 19.5605 15.1167 19.1474 15.2017 18.7093C15.3248 18.0735 15.2771 17.4795 15.0733 16.8661C14.79 16.0144 14.28 15.2411 13.9513 14.4013C12.8288 11.5371 12.4659 8.27266 14.2687 5.596L14.5189 5.22461L14.8435 5.53422Z" fill="#17273E"/>
<path d="M14.5818 5.80664C12.8603 8.36101 13.2187 11.4963 14.3017 14.2629C14.6337 15.1097 15.1448 15.8871 15.4304 16.7464C15.6562 17.422 15.7077 18.0788 15.572 18.7802C15.4711 19.3034 15.24 19.7895 14.8323 20.1422C14.3377 20.5699 13.6993 20.7014 13.0604 20.6594C12.2354 20.6054 11.4933 20.1986 10.7708 19.8126C9.18741 18.9679 6.48095 18.5727 5.16146 20.0831C4.9371 20.3404 4.74834 20.6602 4.61749 21.0549C4.58503 21.1527 4.74346 21.0501 4.98906 20.8968C5.93036 20.3096 6.57529 20.1986 7.64789 20.6082C8.50082 20.9342 9.21233 21.56 9.96392 22.3206C10.5113 22.875 11.0158 23.4718 11.5223 24.0631C12.2591 24.9226 13.0441 25.8401 13.9593 26.5126C16.2567 28.2 19.1274 27.3854 20.963 25.4365C22.4736 23.8324 23.1141 21.524 23.3344 19.3807C23.4279 18.4697 23.4513 17.5459 23.4145 16.6305C23.3943 16.1349 23.3603 15.6223 23.2917 15.1303C23.0919 13.6966 22.6508 12.3438 21.7778 11.1757C21.0624 10.218 20.1532 9.5079 19.1535 8.86949C17.5882 7.86926 15.9303 7.09486 14.5818 5.80664Z" fill="#2B4F91"/>
<path d="M14.5836 5.80664C12.8622 8.36099 13.2206 11.4963 14.3036 14.2628C14.6356 15.1098 15.1467 15.887 15.4323 16.7464C15.6581 17.4219 15.7095 18.0787 15.5739 18.7801C15.473 19.3033 15.2418 19.7894 14.8341 20.142C14.3395 20.5698 13.7012 20.7013 13.0622 20.6593C12.2372 20.6053 11.4952 20.1985 10.7727 19.8124C9.18926 18.9678 6.48281 18.5727 5.16333 20.083C4.93897 20.3403 4.7502 20.6601 4.61936 21.0548C4.60878 21.0872 4.6189 21.0976 4.64565 21.0922C6.65679 18.2615 10.4335 19.8334 13.9151 21.7911C16.8055 22.6254 16.4786 19.3554 16.1312 17.5071C15.605 14.7116 14.3547 11.3976 14.2698 10.1571C14.1912 8.99121 14.4293 7.77132 15.2905 6.4181L15.2446 6.38224L15.237 6.37562L15.2341 6.37295L15.1883 6.33635L15.1765 6.32744L15.1658 6.31824L15.1544 6.30932L15.1209 6.28164L15.11 6.27199L15.0978 6.2628L15.0871 6.25388L15.0535 6.22575L15.0418 6.21654L15.0363 6.21158L15.0309 6.20698L14.9784 6.16257L14.9597 6.14694L14.9095 6.10309L14.9048 6.0994L14.8978 6.09342L14.8427 6.04506L14.8399 6.04276L14.832 6.03495L14.7796 5.98869L14.7772 5.9864L14.7746 5.98456L14.7666 5.97693L14.7139 5.92856L14.7119 5.92737L14.7114 5.92599L14.7013 5.91753L14.6474 5.8675L14.6469 5.86658C14.6258 5.84682 14.6045 5.8266 14.5836 5.80664ZM14.6469 5.86658C14.6258 5.84682 14.6045 5.8266 14.5836 5.80664L14.6469 5.86658Z" fill="#2C8DBB"/>
<path d="M14.5762 14.8799C14.8743 15.4991 15.2167 16.0995 15.4319 16.7468L15.4403 16.7706C15.8585 15.4422 16.1431 14.1134 16.2781 12.7852L14.5762 14.8799Z" fill="#243D75"/>
<path d="M14.5762 14.8798L14.5799 14.8875L14.59 14.9088L14.6322 14.9958L14.6365 15.0032L14.647 15.0249L14.6544 15.0416L14.6613 15.0535L14.6755 15.0827L14.6897 15.1113L14.6929 15.118L14.7039 15.1403L14.7117 15.1563L14.7185 15.1689L14.7458 15.2232L14.7474 15.2267L14.7501 15.2328L14.7618 15.2553L14.7693 15.2711L14.7762 15.284L14.7888 15.3095L14.791 15.3129L14.8062 15.3421L14.8076 15.3474L14.8198 15.3706L14.8273 15.3855L14.8346 15.3996L14.8464 15.4234L14.8491 15.4279L14.8634 15.4569L14.8658 15.4618L14.8775 15.4853L14.885 15.5001L14.8926 15.5141L14.9044 15.5383L14.9069 15.5428L14.9207 15.5717L14.9236 15.5767L14.9359 15.6007L14.9426 15.615L14.9499 15.6293L14.9613 15.6531L14.964 15.658L14.9786 15.6874L14.9809 15.6915L14.9924 15.716L14.9999 15.7293L15.007 15.7446L15.0183 15.7678L15.0208 15.7734L15.0354 15.8026L15.0372 15.8066L15.0498 15.8318L15.0557 15.8446L15.0631 15.8606L15.074 15.8831L15.0773 15.8893L15.091 15.9185L15.0923 15.9215L15.1044 15.9475L15.1108 15.9601L15.1183 15.9764L15.1312 16.0054L15.1455 16.0346L15.1468 16.0378L15.1586 16.0636L15.1648 16.076L15.1719 16.0929L15.182 16.1151L15.1853 16.1224L15.198 16.1512L15.2 16.154L15.2113 16.1806L15.2163 16.1925L15.2242 16.2102L15.234 16.2315L15.2498 16.2687L15.2506 16.2708L15.262 16.2985L15.2745 16.3279L15.2838 16.3494L15.287 16.3577L15.2992 16.3865L15.3001 16.3882L15.311 16.4166L15.3156 16.4276L15.3231 16.4464L15.3314 16.4676L15.3344 16.476L15.3462 16.506L15.3463 16.5069L15.3574 16.5359L15.3675 16.5623L15.3763 16.5862L15.3799 16.5958L15.3908 16.6259L15.4014 16.6555L15.4047 16.6661L15.412 16.6855L15.4191 16.706L15.4217 16.7164L15.4319 16.7467L15.4403 16.7704C15.5463 16.4335 15.6443 16.0943 15.7342 15.7528C15.5856 15.1729 15.4237 14.5935 15.2624 14.0352L14.5762 14.8798Z" fill="#2B4F91"/>
<path d="M6.20312 20.3669C7.78375 20.3305 8.82903 21.1725 9.9648 22.3219C10.5121 22.8763 11.0166 23.4732 11.5231 24.0644C12.2599 24.9239 13.0449 25.8414 13.9601 26.5139C16.2574 28.2014 19.1282 27.3868 20.9638 25.4378C22.4744 23.8337 23.1149 21.5254 23.3352 19.382C23.4285 18.4711 23.4521 17.5473 23.4153 16.6318C23.3951 16.1362 23.3611 15.6237 23.2925 15.1317C23.0926 13.6979 22.6516 12.3452 21.7786 11.177C21.0632 10.2194 20.154 9.50924 19.1543 8.87083C18.7721 8.62625 18.3844 8.39609 17.9967 8.16797C17.474 8.33716 17.0126 8.59691 16.6964 8.99202C15.8182 10.0859 16.4094 11.683 16.9627 12.779C17.497 13.8369 17.9491 14.9608 18.2526 16.1073C18.6535 17.6202 18.8291 19.3161 18.3515 20.8315C18.0968 21.6403 17.6698 22.3495 17.0694 22.9491C16.6819 23.3351 16.2288 23.6383 15.7067 23.8111C13.8938 24.4089 12.9498 23.2901 11.7354 22.1543C10.0742 20.6003 8.33132 19.8797 6.20312 20.3669Z" fill="#17273E"/>
<path d="M7.62891 20.6008C8.49094 20.9246 9.20806 21.5539 9.96489 22.3206C10.5123 22.8749 11.0168 23.4718 11.5233 24.063C12.2601 24.9226 13.0451 25.8401 13.9603 26.5126C16.2576 28.2 19.1284 27.3854 20.9639 25.4365C22.4746 23.8324 23.1151 21.524 23.3354 19.3807C23.4288 18.4697 23.4523 17.5459 23.4155 16.6305C23.3953 16.1348 23.3612 15.6223 23.2926 15.1303C23.0928 13.6966 22.6517 12.3438 21.7788 11.1757C21.0634 10.218 20.1542 9.50789 19.1545 8.86947C18.9232 8.72211 18.6896 8.5781 18.4541 8.4375C16.8309 8.81799 15.9334 9.88728 17.3054 12.6048C18.9036 15.769 20.1825 20.3838 17.3403 23.2189C16.9134 23.6446 16.4107 23.9812 15.8274 24.1739C13.8071 24.8405 12.7374 23.6149 11.4734 22.4328C10.2752 21.3122 9.04596 20.643 7.62891 20.6006" fill="#F9C624"/>
<path d="M17.9258 8.59766C16.6556 9.08591 16.0908 10.1996 17.3053 12.6049C18.9035 15.7692 20.1824 20.384 17.3402 23.2189C16.9133 23.6448 16.4106 23.9814 15.8273 24.1741C13.807 24.8407 12.7373 23.615 11.4734 22.433C11.2874 22.2587 11.0949 22.0914 10.8965 21.9314C11.7999 23.1351 13.2405 24.5847 15.32 24.4345C16.012 24.3845 16.6974 24.1729 17.2785 23.6973C21.0768 20.5851 18.9949 15.3152 17.5429 12.1429C16.9363 10.8191 16.6401 9.44304 17.9258 8.59766Z" fill="#FAEC30"/>
<path d="M13.9927 26.537C14.9606 27.2368 16.0283 27.4955 17.0773 27.4146C17.1029 27.1043 19.0086 26.2286 19.0211 25.9179C17.3888 26.4397 16.8976 25.1972 16.6704 23.7676C16.4083 23.9395 16.1248 24.0764 15.8273 24.1754C15.1252 24.4071 14.5375 24.4099 14.0166 24.2656C13.9895 24.451 13.9705 24.6373 13.96 24.8243C13.9274 25.3718 13.9449 25.9513 13.9927 26.537Z" fill="#EA8B2F"/>
<path d="M9.96289 22.3205L9.965 22.3218C10.5124 22.8761 11.0169 23.473 11.5234 24.0642C12.2602 24.9237 13.0452 25.8412 13.9604 26.5137C16.2577 28.2012 19.1285 27.3866 20.964 25.4377C22.4747 23.8336 23.1152 21.5252 23.3355 19.3819C23.4289 18.4709 23.4524 17.5471 23.4156 16.6317C23.3954 16.1361 23.3614 15.6234 23.2927 15.1315C23.0929 13.6978 22.6519 12.3451 21.7789 11.1769C21.3473 10.5984 20.8445 10.1103 20.2934 9.67383C20.8771 10.7974 21.2405 11.9944 21.5215 13.0988C22.0171 14.0674 22.2617 15.0377 22.1423 16.121C22.3842 17.43 22.4587 18.8362 22.1305 20.036C22.147 21.5905 21.5142 22.8301 20.8344 23.9517C20.2983 25.0891 19.0809 26.054 18.065 26.3507C15.5999 27.3107 12.8087 25.2259 11.9751 23.9352C11.5515 23.5794 11.1342 23.2199 10.7233 22.8909C10.4671 22.6861 10.2143 22.4933 9.96289 22.3205Z" fill="#EA8B2F"/>
<path d="M13.1972 8.09319C12.6857 8.46154 12.2135 8.84047 11.8663 9.25028C10.7385 10.5812 12.4956 10.0069 13.0475 10.7523C12.9708 9.87912 13.0018 8.98087 13.1974 8.09319H13.1972ZM13.0886 11.1429C12.7221 11.3319 12.4127 11.5598 12.1708 11.8408C11.0249 13.1731 11.5217 12.9133 12.4721 13.079C12.9734 13.1672 13.3601 13.3586 13.6646 13.6239C13.4084 12.8534 13.1974 12.0136 13.0886 11.1429ZM14.5304 5.22399L14.769 4.49023C13.9791 4.90823 13.3325 5.28716 12.8708 5.6155C11.4281 6.64131 12.295 6.42374 13.0269 7.04395C13.1576 7.15415 13.2761 7.27808 13.3803 7.41359C13.6221 6.66153 13.9941 5.92373 14.5304 5.22399Z" fill="#2B4F91"/>
<path d="M13.1971 8.0942C12.6855 8.46256 12.2134 8.84147 11.8661 9.25131C10.8632 10.4354 12.1429 10.111 12.8261 10.5501C12.7465 10.4617 12.6624 10.3774 12.5742 10.2976C12.0541 9.82755 11.8758 9.81036 12.1191 9.44439C12.4048 9.01435 12.7989 8.5295 13.1913 8.12105L13.1972 8.0942H13.1971ZM14.1303 4.83789C13.2494 5.52383 12.3172 6.14321 12.9889 6.80985C13.1452 6.9646 13.2817 7.15043 13.397 7.36393L13.3801 7.4147C13.2759 7.27914 13.1575 7.15519 13.0268 7.04496C12.2948 6.42485 11.4278 6.64231 12.8707 5.61651C13.2008 5.3814 13.6262 5.12063 14.1303 4.83789ZM13.1124 11.3266C12.4872 11.7967 11.752 12.4109 12.367 13.0633C11.4866 12.9317 11.068 13.1241 12.1706 11.8418C12.4125 11.5608 12.7219 11.333 13.0883 11.1439C13.0963 11.2047 13.1043 11.266 13.1126 11.3266H13.1124Z" fill="#2C8DBB"/>
<path d="M13.3775 19.574C12.1782 18.7686 11.0652 17.7881 10.2612 16.6613C10.0864 16.4167 9.84023 16.1262 9.84988 15.8105C9.85927 15.5155 10.1119 15.2147 10.2644 14.9698C10.9402 13.8875 11.7448 12.702 12.6653 11.8143C13.2954 11.2065 14.1508 10.5858 15.0769 10.7015C15.3302 10.7335 15.5685 10.8183 15.7879 10.9466L15.851 10.9842L15.898 11.041C16.0746 11.2575 16.3391 11.8589 16.3894 12.1354C16.8345 14.592 14.2819 15.3006 13.954 15.633C14.5485 16.178 14.7562 16.9209 15.2812 17.5326C15.6211 17.9286 15.9612 18.3265 16.3166 18.709C17.2616 19.725 16.9982 20.7429 16.2695 21.7796L16.1942 21.8853L16.0726 21.9289C15.5649 22.1086 15.0305 22.2966 14.4832 22.2256L14.372 22.2113L14.284 22.1414C13.4748 21.5035 13.238 20.688 13.3629 19.6943L13.3775 19.574Z" fill="#17273E"/>
<path d="M13.454 15.3447C15.0152 14.7664 17.7479 12.4672 15.9048 10.7438C15.1643 10.1986 13.9187 11.3301 13.4782 11.6649C12.5856 12.3444 11.6212 13.5719 10.6097 15.185C10.1752 15.8772 10.1086 15.7481 10.5916 16.4248C11.6907 17.9648 13.5064 19.3495 15.5509 20.3603C15.2839 20.3648 15.0269 20.3466 14.7816 20.2447C14.5613 20.766 14.5291 21.1206 14.8432 21.4373C14.3994 21.196 14.2612 20.8683 14.4278 20.1601L13.7665 19.7445C13.6642 20.5588 13.8163 21.2548 14.5355 21.8217C15.0331 21.8863 15.6235 21.6558 15.9355 21.5445C16.5562 20.663 16.9083 19.7552 16.0175 18.9861C14.2343 17.4461 14.1808 15.3499 11.9352 15.2829C12.3296 15.0249 13.0174 15.0944 13.454 15.3447Z" fill="#2B4F91"/>
<path d="M14.3873 10.9883C14.0054 11.2302 13.6681 11.521 13.4783 11.6646C12.5857 12.3441 11.6212 13.5716 10.6097 15.1847C10.1752 15.8769 10.1086 15.7477 10.5916 16.4245C11.6292 17.8782 13.3059 19.1939 15.2104 20.1866C13.7714 18.9712 12.3891 17.7586 11.5413 16.6404C10.6926 15.5189 11.0199 15.5126 11.7791 14.3282C12.5234 13.167 13.3679 12.0437 14.3873 10.9883ZM15.2246 20.3496C15.073 20.3349 14.9248 20.3038 14.7817 20.2444C14.6418 20.5758 14.5774 20.8402 14.6309 21.0702C14.7782 20.8201 14.9268 20.5695 15.2246 20.3496ZM14.1555 19.9888L13.7665 19.7443C13.6664 20.5412 13.8099 21.2255 14.4916 21.7864C14.1908 21.1994 13.9828 20.6067 14.1555 19.9888Z" fill="#2C8DBB"/>
<path d="M17.6257 13.3572C18.5735 12.839 19.9372 12.7244 20.9946 12.8342C21.7449 12.9123 22.5193 13.1134 23.1763 13.4902L23.3668 13.5991L23.1491 13.9794L22.9586 13.8705C22.3548 13.5249 21.6373 13.3422 20.9493 13.2704C19.9848 13.1704 18.702 13.2689 17.8362 13.7422L17.643 13.8472L17.4331 13.4624L17.6257 13.3572ZM18.6527 16.573C19.5784 16.0496 20.9051 15.903 21.95 15.9815C22.5086 16.0233 23.0849 16.1326 23.6183 16.3331V16.805C23.0825 16.5797 22.4864 16.4616 21.9166 16.4186C20.9631 16.3472 19.7146 16.4755 18.8684 16.9544L18.6774 17.0622L18.4622 16.6807L18.6527 16.573ZM18.6404 19.9901C19.9806 19.3508 22.094 19.4622 23.4103 20.2816C23.5169 20.3485 23.4413 20.3857 23.5484 20.445L23.5271 20.584L23.3989 20.7015C23.361 20.7363 23.361 20.776 23.3178 20.7463C22.1495 19.9229 20.0803 19.789 18.8293 20.3856L18.6313 20.48L18.5806 20.1352L18.6404 19.9899V19.9901ZM17.8446 22.4898C18.8411 23.5249 20.9354 24.1345 22.3222 23.6875L22.5018 23.5402L22.499 23.8343L22.341 23.9961C22.2698 24.0189 22.3134 24.1484 22.2399 24.1662C20.7044 24.5428 18.5902 23.8975 17.5285 22.7939L17.3765 22.6361L17.6917 22.332L17.8446 22.4898ZM15.8259 24.1534C16.1157 24.7962 16.6444 25.3534 17.2261 25.7441C17.8522 26.1638 18.6398 26.4535 19.4057 26.4026C19.6909 26.3838 19.8814 26.3238 20.1452 26.2364L20.1266 26.5879L19.9803 26.7522C18.952 27.0228 17.843 26.6855 16.9816 26.1081C16.3315 25.6721 15.7505 25.0522 15.4259 24.3339L15.336 24.1338L15.7353 23.9532L15.8259 24.1534ZM12.4686 23.3885C12.3171 23.5649 12.2299 23.7747 12.1977 23.9943C12.1324 24.4391 12.2384 24.7478 12.4476 25.1166L12.0641 25.1847L11.936 25.0472C11.6178 24.4223 11.674 23.6422 12.1355 23.103L12.2785 22.9365L12.6114 23.2222L12.4686 23.3885ZM11.221 21.9672C10.9904 22.2361 10.9096 22.5835 10.9439 22.9264C10.9739 23.2175 11.0702 23.4301 11.1933 23.681L10.8309 23.7494L10.6885 23.6264C10.3707 23.0006 10.4268 22.2203 10.8884 21.6815L11.0241 21.5881L11.3136 21.8148L11.221 21.9672ZM23.0925 9.78673L23.8716 11.3465L21.5383 11.7608L18.815 10.7609L18.7523 10.7105C17.6944 9.86277 16.8342 8.85701 16.1915 7.65871C16.0293 7.35767 15.788 6.83851 15.7517 6.50639L15.5377 4.52734L16.6514 6.17702C17.4552 7.36778 18.7644 8.41492 20.0318 9.07521C20.7527 9.45056 21.7326 9.96456 22.5671 9.87619C22.6209 9.87039 22.6747 9.86272 22.7281 9.85321L23.0925 9.78673Z" fill="#17273E"/>
<path d="M26.7534 9.66009C26.7554 9.99644 26.6831 10.2922 26.509 10.6577C26.4507 10.7794 26.3794 10.9056 26.2933 11.0065C26.1799 11.1389 26.0301 11.2332 25.8571 11.2001C25.5477 11.1421 25.4757 10.7728 25.4565 10.4902C25.4452 10.3307 25.408 10.1607 25.3341 10.0173C24.8591 10.0663 24.3681 10.0911 23.9413 10.1475C24.1912 10.4461 24.4365 10.5844 24.6811 10.7019C25.3579 11.0269 25.9032 11.385 26.1778 12.137C26.5039 13.0314 26.106 13.9963 24.7885 14.2382C23.655 14.4463 23.6755 14.891 22.4028 14.4048C21.1326 13.9193 19.8443 13.1589 18.7262 12.3886C18.0027 11.8904 17.298 11.349 16.6429 10.7627C15.5746 9.80665 14.0597 8.3339 13.8199 6.86223C13.713 6.20875 13.8822 5.56205 14.3582 5.09036C14.4929 4.95682 14.6459 4.84332 14.8128 4.75336L14.8962 4.49608C15.1466 3.72122 15.4473 2.51806 15.904 1.59755C17.0046 -0.620842 18.7621 -0.302326 19.6761 1.42605C20.4103 1.59681 20.9866 1.74733 21.7647 2.1223L21.8045 2.08231C22.0537 1.83036 22.3865 1.61391 22.7566 1.70393C24.0367 1.96691 24.1611 5.08098 24.0586 5.93694L24.0942 5.95929C24.5236 6.0951 24.8946 6.28957 25.1367 6.56579L25.1759 6.61112L25.191 6.62031C25.8309 6.37628 26.5625 6.34594 27.0699 6.8649C27.7674 7.57741 27.598 9.0957 26.7534 9.66018V9.66009Z" fill="#17273E"/>
<path d="M22.3701 9.02353C21.1845 8.77316 21.1966 6.85471 22.6303 6.89416C23.5186 6.91834 24.6048 7.68787 25.6176 7.39943C25.3283 7.36071 25.0382 7.32191 24.7472 7.2832C25.5158 6.76147 26.3495 6.6755 26.7975 7.1336C27.37 7.71867 27.1646 9.17489 26.321 9.4489C25.8181 9.61192 25.0362 9.66765 24.5124 9.68355C24.8066 9.47152 25.5879 9.13322 26.1548 9.1541C25.6674 8.96036 25.2135 9.03669 24.7904 9.20348C22.6564 10.0465 22.473 10.4715 19.9818 9.17267C18.6394 8.47368 17.3311 7.39123 16.554 6.23882C16.7222 6.12794 16.9495 5.98754 17.1916 6.18126C16.8357 5.16485 14.7918 6.15286 15.5529 7.54416C15.6041 7.25727 15.5978 6.91245 15.9596 6.93507C17.149 9.61192 19.1839 11.1031 21.1584 12.1115C22.5316 12.8131 22.8506 13.2044 24.3954 12.9954C24.6638 12.9592 24.8874 12.9082 25.0562 12.8483C25.8974 12.5491 25.4387 11.8468 25.0089 11.3006C26.12 12.0251 26.381 13.5561 24.7204 13.8614C23.5222 14.0813 23.6746 14.4799 22.5416 14.0465C20.8071 13.3839 18.5246 11.9313 16.9008 10.4775C16.1849 9.8372 14.4382 8.26108 14.1998 6.80119C13.9817 5.4646 15.1724 4.61849 16.3929 4.95327C17.1781 5.16862 17.8641 5.87149 18.3085 6.80469C17.8298 5.26563 17.107 4.1534 15.2629 4.61499C15.6003 3.57201 16.0842 1.31472 17.0208 0.699301C18.1901 -0.0697689 19.5053 1.66376 20.2515 3.39638C20.1724 2.91199 20.0798 2.33371 19.8024 1.88803C20.9294 2.10135 21.3074 2.19294 22.0585 2.85957C22.0403 2.56625 22.0301 2.50024 22.0126 2.41049C23.0386 1.37927 23.8349 3.54975 23.6169 5.39813C21.3247 4.61849 19.7495 4.76579 18.7729 5.68795C20.5049 4.98362 21.9703 5.12569 23.2392 5.89098C22.8845 5.82569 22.529 5.79931 22.1745 5.82018C22.9662 5.94587 23.1784 5.99497 23.8654 6.21768C24.3117 6.36241 24.6489 6.56764 24.8494 6.81904C24.3152 7.14692 22.7301 5.9924 21.6697 6.63881C20.5078 7.34683 21.0743 9.113 22.3701 9.02353Z" fill="#2B4F91"/>
<path d="M16.3343 4.52678C16.0266 4.48724 15.6722 4.51226 15.2637 4.61441C15.6011 3.57142 16.085 1.31416 17.0216 0.698743C17.2056 0.577463 17.3927 0.518798 17.5806 0.511719C16.9647 1.46524 16.366 3.10046 16.3417 4.52116L16.3343 4.52678Z" fill="#2C8DBB"/>
<path d="M24.963 7.14647C25.1006 7.0683 25.2448 7.00236 25.3939 6.94942C25.4249 6.98703 25.4533 7.02556 25.4812 7.06528C25.3524 7.16698 25.175 7.18179 24.963 7.14647ZM22.7622 5.91818C23.1367 5.99008 23.3861 6.06052 23.8644 6.21583C24.3108 6.36056 24.6479 6.5658 24.8485 6.8172C24.6156 6.96 24.1849 6.82216 23.6844 6.67394C23.5831 6.42208 23.2919 6.17004 22.7622 5.91818ZM22.5566 5.54688C22.7925 5.64276 23.0205 5.75721 23.2382 5.88913C23.0976 5.86328 22.9564 5.84306 22.816 5.83036C22.7106 5.73198 22.6345 5.63966 22.5566 5.54688Z" fill="#243D75"/>
<path d="M21.5104 8.62593C21.4714 8.46125 21.4328 8.2973 21.3943 8.13289C20.4562 8.21225 19.6937 7.80868 18.9141 7.45117C19.296 7.75553 19.6782 8.06053 20.0598 8.3647C20.5042 8.57775 20.9491 8.79033 21.3943 9.00283C21.433 8.87723 21.4714 8.75154 21.5104 8.62584" fill="#16253B"/>
<path d="M22.3701 9.02245C21.1845 8.77207 21.1966 6.85362 22.6303 6.89307C23.1135 6.90595 23.6544 7.13978 24.2105 7.30344C24.6303 7.4273 24.8764 7.40781 25.0669 7.34849C24.953 7.33194 24.8442 7.31053 24.7472 7.28211C25.5158 6.76038 26.3495 6.67441 26.7975 7.13251C27.37 7.71758 27.1646 9.1738 26.321 9.44781C25.8181 9.61083 25.0362 9.66656 24.5124 9.68246C25.0021 9.29002 25.3107 9.16175 25.582 9.03845C25.307 9.03532 25.0436 9.10281 24.7904 9.20239C22.6564 10.0454 22.473 10.4704 19.9818 9.17158C18.6394 8.47259 17.3311 7.39015 16.554 6.23775C16.7222 6.12685 16.9495 5.98645 17.1916 6.18019C16.8357 5.16376 14.7918 6.15177 15.5529 7.54307C15.6041 7.25618 15.5978 6.91137 15.9596 6.93399C17.149 9.61083 19.1839 11.102 21.1584 12.1104C22.5316 12.812 22.8506 13.2033 24.3954 12.9943C24.6638 12.9581 24.8874 12.9071 25.0562 12.8472C25.8974 12.548 25.4387 11.8457 25.0089 11.2995C26.12 12.024 26.381 13.5551 24.7204 13.8603C23.5222 14.0802 23.6746 14.4788 22.5416 14.0456C20.8071 13.3828 18.5246 11.9302 16.9008 10.4765C16.1849 9.83611 14.4382 8.25999 14.1998 6.8001C13.9817 5.46353 15.1724 4.6174 16.3929 4.95219C17.1781 5.16754 17.8641 5.8704 18.3085 6.8036C18.2929 6.75478 18.2779 6.7066 18.2627 6.65869C19.0783 7.73782 20.1 8.3502 21.3074 8.54211C21.5385 8.85023 21.9074 9.05463 22.3701 9.02245Z" fill="#F9C624"/>
<path d="M25.7779 12.1777C26.0892 12.8794 25.8482 13.6534 24.7196 13.861C23.9212 14.0073 23.7221 14.2331 23.3438 14.2398C23.3355 13.4492 24.8812 13.5673 25.3655 13.1975C25.6512 12.9799 25.7739 12.5979 25.7779 12.1777ZM26.2149 6.84961C26.4422 6.88271 26.6419 6.97557 26.7964 7.13318C27.369 7.71826 27.1636 9.17447 26.3201 9.44848L26.2701 9.46402C26.9282 8.74073 26.8334 7.48645 26.2149 6.84961Z" fill="#EA8B2F"/>
<path d="M24.1085 9.48257C22.5803 10.1224 22.1779 10.3178 19.9811 9.17271C19.1278 8.72859 18.2887 8.12908 17.5898 7.45508C19.9833 9.37288 22.1538 10.0343 24.1085 9.48257Z" fill="#FAEC30"/>
<path d="M21.9768 8.85411C21.2104 8.31648 21.3778 6.85851 22.6303 6.893C22.7259 6.89539 22.8234 6.9067 22.923 6.92427C22.0663 7.16903 21.7386 7.80276 21.9768 8.8542V8.85411ZM22.3236 13.9592C20.62 13.2624 18.4581 11.8701 16.9007 10.4764C16.1848 9.83605 14.4381 8.25993 14.1998 6.80004C13.9944 5.54005 15.0405 4.71627 16.1833 4.90605C15.2578 5.1283 14.8399 5.71383 14.7965 6.4099C14.6328 9.00335 19.6333 12.6404 22.3236 13.9592Z" fill="#FAEC30"/>
<path d="M25.6719 9.99265C25.7233 10.1276 25.7565 10.2815 25.7676 10.4476C25.8095 11.059 26.0437 10.8725 26.2269 10.4868C26.3526 10.2235 26.4156 10.0116 26.4275 9.77539C26.3617 9.81326 26.292 9.84411 26.2197 9.86742C26.0522 9.92194 25.8666 9.96157 25.6719 9.99265Z" fill="white"/>
<path d="M25.9492 10.8397C26.0341 10.8164 26.1365 10.6752 26.2262 10.4868C26.3519 10.2235 26.4149 10.0116 26.4268 9.77539C26.3652 9.80986 26.3008 9.8392 26.234 9.86227C26.2304 10.1803 26.1635 10.5026 25.9492 10.8397Z" fill="#2C8DBB"/>
<path d="M22.6673 7.73599C22.9978 7.62988 23.2515 8.07427 22.8169 8.26856C22.7556 8.4327 22.8541 8.6119 23.1207 8.67497C22.2764 8.84941 22.2428 7.88936 22.6674 7.73599H22.6673ZM26.3958 7.59935C26.1233 7.51144 25.9135 7.87833 26.2727 8.03906C26.3235 8.17412 26.2426 8.32208 26.0217 8.37403C26.7188 8.51774 26.7468 7.72587 26.3958 7.59935Z" fill="#17273E"/>
<path d="M17.5859 8.86914C18.4786 9.02159 19.2625 9.27666 19.9595 9.59241C20.1504 9.69098 20.3501 9.79193 20.5566 9.88756C21.242 10.2562 21.8372 10.6785 22.3669 11.1058C22.1876 10.822 21.9819 10.5555 21.7529 10.31C22.0433 10.3707 22.3343 10.3959 22.6197 10.3659C23.3176 10.2858 23.7116 10.4197 24.2307 11.0691C24.6251 11.4704 25.5353 12.2692 24.9273 12.4853C24.7448 12.5504 24.5356 12.5877 24.3444 12.6133C23.8612 12.6786 23.3786 12.7085 22.9086 12.5548C22.6796 12.4801 22.4606 12.3693 22.2488 12.257C21.9427 12.0951 21.6418 11.9262 21.3332 11.7686C19.8461 11.0092 18.5764 10.0876 17.5861 8.86914" fill="#DF542B"/>
<path d="M19.0293 9.55469C19.9793 9.74071 20.8801 10.2133 21.7495 10.8856C22.044 11.1136 21.944 11.3801 21.5844 11.0965C20.7455 10.4346 19.8935 9.82944 19.0293 9.55469Z" fill="#EA8B2F"/>
<path d="M22.503 10.1124C22.5276 10.1051 22.5538 10.099 22.579 10.092C22.6836 10.0629 22.7782 10.0251 22.8783 9.9849C23.071 9.90674 23.2652 9.95032 23.4617 9.96329L23.7644 9.98324L23.7264 10.3078C23.6986 10.5406 23.5915 10.791 23.4804 10.9914C23.3197 11.2829 22.9489 11.8428 22.5739 11.6792C22.3014 11.5617 22.3036 11.2092 22.3376 10.9468C22.3596 10.7774 22.3425 10.6559 22.2995 10.493L22.2227 10.1921L22.5029 10.1124" fill="#17273E"/>
<path d="M22.5898 10.4246C22.6386 10.6125 22.661 10.7678 22.6334 10.982C22.5042 11.975 23.3599 10.8576 23.4259 10.2901C23.2443 10.2778 23.0956 10.245 22.9782 10.2924C22.8643 10.3386 22.7821 10.3718 22.6625 10.4056C22.6386 10.412 22.6143 10.4175 22.5898 10.4246Z" fill="white"/>
<path d="M22.9258 11.2527C23.1384 11.0364 23.3902 10.5875 23.425 10.2902C23.3178 10.2828 23.222 10.2686 23.1374 10.2676C23.171 10.592 23.1232 10.9166 22.9258 11.2527Z" fill="#2C8DBB"/>
<path d="M16.4707 4.97916C17.0165 4.26525 17.2176 3.27146 17.3905 2.25459C17.298 2.13597 16.9625 2.05229 17.0865 1.89873C17.5948 1.88834 17.9322 2.15353 18.2543 2.49457C18.7929 3.06494 19.2331 4.11004 19.5299 4.9054C19.6875 5.3282 19.6222 5.21923 18.6385 5.08839C17.9413 4.9958 17.2066 4.97916 16.4707 4.97916Z" fill="#17273E"/>
<path d="M17.0156 4.68088C17.5719 4.68916 18.1286 4.71591 18.6782 4.78901C18.8499 4.81172 19.0202 4.83875 19.1912 4.86506C18.9232 4.16062 18.523 3.21916 18.0344 2.70267C17.9193 2.58029 17.8032 2.46821 17.6755 2.38086C17.5448 3.14376 17.3832 3.9793 17.0156 4.68088Z" fill="white"/>
<path d="M17.9943 3.18316C18.2787 3.18316 18.5084 3.50029 18.5084 3.89163C18.5084 4.28297 18.2787 4.60028 17.9943 4.60028C17.71 4.60028 17.4805 4.28297 17.4805 3.89163C17.4805 3.50029 17.71 3.18316 17.9943 3.18316ZM22.8302 3.08569C22.248 3.60594 21.8954 4.16224 21.6914 4.95522C21.6391 5.2707 21.8871 5.40576 22.1704 5.32283C22.4314 5.4111 22.6549 5.51941 22.9261 5.50563C23.1534 5.50251 23.3851 5.38885 23.4025 5.15529C23.344 4.65178 23.1621 3.84648 23.238 3.31593C23.3695 3.12467 23.1391 2.75025 22.8302 3.08569Z" fill="#17273E"/>
<path d="M23.0976 5.14499C23.0299 4.59954 22.8832 3.97383 22.924 3.41992C22.4665 3.88666 22.1291 4.34494 21.9872 5.01718L21.9844 5.04164C22.0142 5.04817 22.0649 5.03888 22.0864 5.03272L22.1781 5.00514L22.2685 5.0364C22.47 5.10453 22.7002 5.21 22.9179 5.20301C22.9527 5.20182 23.0726 5.18554 23.0976 5.14499Z" fill="white"/>
<path d="M23.3122 5.59292C23.4123 5.53389 23.5136 5.47522 23.6135 5.41601C22.795 5.04959 21.8941 4.93098 20.9647 4.89686C21.1408 4.97631 21.3177 5.05594 21.495 5.13556C22.1002 5.2882 22.7063 5.44047 23.3122 5.59292ZM22.4241 3.87695C22.6478 3.87695 22.8293 4.11731 22.8293 4.41348C22.8293 4.70966 22.6478 4.95002 22.4241 4.95002C22.2001 4.95002 22.0189 4.70966 22.0189 4.41348C22.0189 4.11731 22.2001 3.87695 22.4241 3.87695ZM13.2509 28.6278C13.4284 28.1309 13.4885 27.5872 13.5056 27.0643C13.5207 26.6073 13.5039 26.151 13.4916 25.6947C13.4789 25.2658 13.4681 24.8257 13.5083 24.3982C13.7056 22.3054 15.8936 21.7817 16.5068 22.591C17.2795 23.4561 17.1818 24.5624 16.7718 25.8945C16.6998 26.1327 16.6375 26.3736 16.585 26.6167C16.5032 26.9908 16.4392 27.3688 16.393 27.749C16.3597 28.0234 16.3302 28.3156 16.3308 28.5927C16.3317 28.9426 16.3729 29.2601 16.4319 29.6027C16.4779 29.8707 16.5302 30.1451 16.4635 30.4147C16.4088 30.6383 16.285 30.8175 16.1182 30.9733C15.6314 31.4313 14.7776 31.7975 14.1296 31.9269C13.7492 32.0025 13.3515 32.0228 12.9699 31.9492C12.8465 31.9255 12.7286 31.8791 12.6221 31.8126C12.0798 31.4742 11.9568 30.7356 12.0694 30.1523C12.2013 29.473 12.6316 28.9156 13.251 28.6278" fill="#17273E"/>
<path d="M14.2362 22.9298C14.605 22.3203 15.2419 22.0813 15.6921 22.1474C17.307 22.3834 16.7963 24.5233 16.409 25.7834C16.1046 26.7726 15.9493 28.0217 15.9514 28.5933C15.9542 29.8371 16.3752 30.212 15.8583 30.6977C15.4097 31.1189 14.1273 31.7237 13.0392 31.5781C12.1424 31.3508 12.115 29.4408 13.544 28.9134C13.9415 27.9488 13.9265 26.8073 13.8963 25.7772C13.875 25.0805 13.8205 23.6176 14.2362 22.9298Z" fill="#2B4F91"/>
<path d="M14.2381 22.9314C14.5663 22.389 14.9275 22.3779 15.445 22.2812C13.7459 23.1272 14.6251 26.5924 14.1657 28.7979C14.5319 28.7911 14.7789 28.8251 15.0854 28.9379C13.7307 28.7714 13.1315 29.9049 13.0016 31.568C12.144 31.2958 12.1381 29.4344 13.5458 28.9148C13.9433 27.9502 13.9283 26.8087 13.898 25.7787C13.8768 25.082 13.8228 23.6191 14.2381 22.9314Z" fill="#2C8DBB"/>
<path d="M22.6318 30.8865L22.1518 30.8069C22.2357 30.2897 22.0547 29.8048 21.4729 29.3676C22.232 29.6877 22.5129 30.2467 22.6317 30.8865H22.6318ZM23.5812 30.697C23.4217 30.6702 23.2615 30.6437 23.1021 30.617C23.1866 30.0998 23.004 29.6143 22.4225 29.1777C23.1818 29.4977 23.4622 30.0571 23.5812 30.697ZM13.7756 31.6566C13.932 31.6225 14.0887 31.5882 14.2448 31.5542C14.0923 30.8905 14.2085 30.2683 14.7328 29.7071C14.0159 30.118 13.8099 30.8353 13.7756 31.6565V31.6566ZM12.3262 31.5569C12.4827 31.5222 12.6396 31.4883 12.7951 31.4541C12.6422 30.7905 12.7594 30.1685 13.2836 29.6078C12.5661 30.0178 12.3605 30.7358 12.3263 31.5569" fill="#17273E"/>
</svg>
