<svg width="32" height="32" viewBox="0 0 32 32" fill="none" xmlns="http://www.w3.org/2000/svg">
<path d="M16 32C24.8366 32 32 24.8366 32 16C32 7.16344 24.8366 0 16 0C7.16344 0 0 7.16344 0 16C0 24.8366 7.16344 32 16 32Z" fill="#00B7CE"/>
<path d="M19.8763 27.3473C18.3934 27.6575 16.8844 27.6833 15.4015 27.5024C15.1153 27.4765 14.8292 27.4248 14.543 27.3731C12.2535 26.9596 10.2503 25.9773 8.63728 24.2972C7.49257 23.134 6.68606 21.7124 6.16574 20.1098C5.77549 18.9208 5.6194 17.6542 5.56736 16.3877C5.54135 15.8966 5.54135 15.4054 5.56736 14.9143C5.59338 14.2681 5.80151 13.6219 5.93159 13.0016C6.11371 12.1227 6.47793 11.3473 6.86818 10.546C7.41452 9.48622 8.11696 8.55569 8.94948 7.72855C9.75598 6.92726 10.6405 6.28105 11.6292 5.76409C12.3576 5.37637 13.1381 5.06619 13.9446 4.83356C14.9072 4.54923 15.8958 4.39414 16.8844 4.36829C17.5869 4.34244 18.3153 4.41999 19.0178 4.52338C19.5901 4.60092 20.1625 4.70432 20.7088 4.88525C21.3072 5.06619 21.8796 5.29882 22.4519 5.55731C23.6226 6.07427 24.6113 6.82386 25.5218 7.72855C26.4324 8.65908 27.1609 9.71886 27.7332 10.882C28.1755 11.7867 28.4617 12.7431 28.6438 13.7253C28.8259 14.7075 28.93 15.7156 28.8259 16.7237C28.7739 17.2407 28.7479 17.7835 28.6698 18.3004C28.5657 18.8949 28.3836 19.4636 28.2275 20.0323C27.9413 20.9369 27.5251 21.8158 26.9787 22.5912C26.5625 23.2116 26.0942 23.8061 25.5739 24.3489C24.7934 25.1502 23.8828 25.8222 22.8942 26.3392C22.1137 26.7269 21.3072 27.063 20.4487 27.2697C20.2665 27.2697 20.0584 27.2956 19.8763 27.3473Z" fill="#452500"/>
<path d="M26.745 22.8493C26.745 22.8493 26.745 22.3582 26.7189 19.6959C26.6929 16.1805 24.4815 14.0093 24.4815 14.0093C24.4815 14.0093 24.7937 14.0868 25.8344 13.1821C26.875 12.2774 27.0832 8.86548 24.2734 8.78794C21.4637 8.73624 21.4637 11.1143 21.4637 11.1143C21.4637 11.1143 19.7466 10.3388 17.8734 10.3388C16.0003 10.3388 14.4133 10.9592 14.4133 10.9592C14.3352 10.5715 14.1271 10.0803 13.6848 9.38245C13.2425 8.68455 10.4328 8.21928 9.47017 10.6232C8.50757 13.0529 11.1612 13.9059 11.1612 13.9059C8.29944 17.4212 8.76773 24.4519 8.76773 24.4519C10.0165 25.6668 11.3694 26.4422 12.7222 26.9333C12.8002 27.9414 12.9824 29.4406 13.4767 29.88C14.1791 30.5262 15.1417 29.88 15.8442 27.6054C16.9368 27.7088 18.0035 27.6571 18.9661 27.5537C20.2149 27.4244 21.3336 27.0626 22.2702 26.649C23.4409 28.8719 24.5596 29.3372 25.132 28.5618C25.6523 27.8639 25.2881 25.46 25.158 24.7621C26.2246 23.754 26.745 22.8493 26.745 22.8493Z" fill="#FFE4B8"/>
<path d="M19.4859 19.5152C19.4859 20.0063 19.0957 20.394 18.6014 20.394C18.107 20.394 17.7168 20.0063 17.7168 19.5152C17.7168 19.0241 18.107 19.0758 18.6014 19.0758C19.0957 19.0758 19.4859 19.0241 19.4859 19.5152Z" fill="black"/>
<path d="M21.9057 15.3789C21.4114 15.3789 20.9951 16.0251 20.9951 16.8264C20.9951 17.6277 21.4114 18.2739 21.9057 18.2739C22.4 18.2739 22.8163 17.6277 22.8163 16.8264C22.8163 16.0251 22.4 15.3789 21.9057 15.3789Z" fill="black"/>
<path d="M15.2455 15.3789C14.7512 15.3789 14.335 16.0251 14.335 16.8264C14.335 17.6277 14.7512 18.2739 15.2455 18.2739C15.7398 18.2739 16.1561 17.6277 16.1561 16.8264C16.1561 16.0251 15.7398 15.3789 15.2455 15.3789Z" fill="black"/>
</svg>
