<svg width="32" height="32" viewBox="0 0 32 32" fill="none" xmlns="http://www.w3.org/2000/svg">
<g clip-path="url(#clip0)">
<path fill-rule="evenodd" clip-rule="evenodd" d="M17.6504 -3.36449e-05C19.043 -0.0204614 20.4645 -0.0396615 21.5537 0.286974C23.0477 0.734974 23.9341 1.69599 25.0552 2.49693C27.4981 4.24191 29.8564 6.08577 30.5372 9.58573C30.8475 11.1811 30.125 13.396 29.7049 14.3785C29.5236 14.8028 29.2055 15.216 29.1595 15.7561C29.6582 16.6881 30.0884 17.7059 30.3076 18.9705C30.5252 20.2255 30.1077 21.5702 29.8196 22.5005C28.7773 25.8664 26.128 29.3958 21.7259 27.8671C20.8697 28.8608 21.7376 30.6993 21.1806 31.512C21.0169 31.751 20.7361 31.8325 20.4057 31.9138C18.6353 32.3495 18.7513 30.2688 17.306 30.1346C17.0395 30.493 16.3842 30.8388 15.7848 30.5938C15.0094 30.2764 14.6912 29.6215 13.6896 29.4457C13.1999 29.3598 12.7671 29.564 12.4554 29.7041C11.3231 30.2121 9.02052 30.6408 7.66236 30.0771C6.97895 29.7934 6.46465 28.9922 6.97354 28.1542C6.04977 26.892 5.44065 26.0766 4.96444 24.2798C3.39187 23.9346 2.36604 23.2939 1.83601 21.9264C0.630618 18.8165 2.4775 14.6257 4.13218 13.3165C4.63284 12.9203 5.15641 12.479 5.96905 12.3981C6.34485 7.57626 7.6685 4.88541 10.5899 2.61153C11.4076 1.97514 12.1172 1.24292 13.1443 0.803467C13.991 0.441436 15.0743 0.301341 16.0718 0.114774L17.6504 -3.36449e-05Z" fill="white"/>
<path fill-rule="evenodd" clip-rule="evenodd" d="M18.2241 1.14978C19.3132 1.14229 20.3872 1.14615 21.2229 1.39737C21.6516 1.52621 22.0517 1.68294 22.4013 1.89255C22.6667 2.05164 22.8911 2.25304 23.1319 2.43488L24.1866 3.22482C24.865 3.71023 25.4909 4.24394 26.1369 4.7575L26.8497 5.41187C27.2118 5.70413 27.5746 6.11133 27.8633 6.47887C28.385 7.14381 28.8983 7.82007 29.183 8.72485C29.2708 9.00324 29.3126 9.29495 29.3656 9.615C29.3716 9.74075 29.3776 9.86651 29.3834 9.99229C29.3854 10.1141 29.3875 10.2359 29.3894 10.3578C29.3894 10.6577 29.3873 10.9501 29.3421 11.2125C29.2817 11.5649 29.2645 11.8888 29.183 12.2088C28.9795 13.0084 28.7094 13.7196 28.4171 14.4312C28.2523 14.8124 28.0872 15.1936 27.9221 15.5749C27.8771 15.6706 27.7423 15.8952 27.7925 15.9698C28.0088 16.0756 28.2886 16.5225 28.4231 16.7362C28.7457 17.2497 28.9218 17.8203 29.0652 18.5341C29.1177 18.7954 29.0843 19.0623 29.13 19.3476C29.1692 19.5925 29.1501 20.0923 29.1125 20.3203L29.0474 21.0454C28.9476 21.577 28.8604 22.072 28.7117 22.5428C28.1297 24.3867 27.0227 25.7963 25.4122 26.6161C25.0341 26.8087 24.6307 26.9453 24.1749 27.0702C23.9984 27.1185 23.7397 27.1867 23.4973 27.1467C23.0047 27.0654 22.6401 26.9657 22.2482 26.8047C22.0372 26.7183 21.6894 26.5365 21.4469 26.5161C20.8011 26.8682 20.3243 27.9309 20.1743 28.8034L20.2213 30.8313C20.1471 30.8566 20.0668 30.8587 19.9914 30.837C19.8645 30.8051 19.8297 30.7155 19.7133 30.5416C19.5825 30.3611 19.4391 30.19 19.2844 30.0293C18.8595 29.6534 18.4527 29.2712 17.8586 29.0625C17.6006 28.9721 17.2047 28.9301 16.9276 29.039C16.6414 29.1516 16.4947 29.3457 16.2913 29.5343H16.2795C16.1336 29.3467 15.8856 29.1955 15.6903 29.0568C15.0238 28.5834 14.0065 28.1156 12.8151 28.3964C12.3566 28.5045 11.9414 28.7402 11.5925 28.8295C11.2151 28.9264 10.9902 28.9677 10.6939 29.0215C10.366 29.0654 10.2216 29.0884 9.70728 29.1343C9.37142 29.1652 8.8251 29.1516 8.49034 29.1158C8.32626 29.098 8.15354 29.0771 7.97183 28.9938C7.94258 28.9797 7.91716 28.9588 7.89767 28.9327C7.87821 28.9068 7.86525 28.8765 7.8599 28.8444H7.8658C7.88782 28.916 8.42563 28.9695 8.63764 28.9507C8.89445 28.9293 9.14988 28.8935 9.40277 28.8441C9.81637 28.7611 10.1753 28.6234 10.4936 28.3906C11.4369 27.7007 11.9852 26.6219 12.4438 25.4431C12.6019 25.0369 12.6807 24.5878 12.8091 24.1579C12.9316 23.7477 13.0024 23.3319 13.086 22.8668C13.1187 22.6799 13.1381 22.4909 13.1441 22.3012C13.1478 22.1198 13.1867 22.1076 13.2891 22.3447C13.4392 22.6548 13.5971 23.0346 13.6634 23.5035H13.6693C13.6873 23.4212 13.7231 23.3396 13.74 23.2441C13.7799 23.0191 13.7678 22.8145 13.7531 22.5333C13.7202 22.0012 13.6884 21.7575 13.6692 21.5051C13.6633 21.3774 13.643 21.2538 13.6371 21.1261C13.5929 20.8557 13.5744 20.6248 13.5278 20.3555C13.4684 20.0111 13.3755 19.6452 13.6339 19.4418C13.7554 19.3468 13.8934 19.275 14.0409 19.2298C14.6495 19.043 15.4815 19.294 16.0265 19.4066C16.1908 19.4406 16.4335 19.4876 16.6392 19.4538C16.8719 19.4155 17.0865 19.4137 17.2873 19.3536C18.1172 19.1048 18.7614 18.6086 19.2434 18.0095C19.4619 17.7378 19.7757 17.5729 19.9151 17.2196C20.209 16.4747 19.842 15.2015 19.65 14.5904C19.1032 12.8512 17.8782 11.5818 16.2621 10.9178C15.9129 10.7743 15.5393 10.6726 15.119 10.5877L14.6654 10.5464L14.2352 10.5405L13.8346 10.5818C13.3618 10.6766 12.9343 10.7858 12.6209 11.0357C12.2736 11.3126 11.9397 12.0315 11.4601 12.1204C11.4268 12.0143 11.3934 11.9082 11.36 11.802C11.2704 11.5058 11.2246 11.189 10.9947 11.0357C10.7536 10.8749 10.2998 10.9328 10.0225 11.018C9.28289 11.2453 8.79451 11.607 8.36691 12.1381L7.925 12.592C7.48651 13.1365 7.12225 13.4117 6.97641 14.278C6.95473 14.4066 6.97466 14.5792 6.9941 14.6847C7.06758 15.0842 7.14673 15.4135 7.24748 15.7812C7.27716 15.8895 7.37141 16.195 7.34176 16.3235C7.31749 16.4287 7.224 16.5081 7.16502 16.5829C6.96364 16.8381 6.70231 17.0409 6.50511 17.2962C6.09444 17.828 5.7939 18.6162 5.60365 19.3595C5.49613 19.7795 5.46481 20.2644 5.38621 20.7345C5.37837 20.9526 5.36508 21.1403 5.35721 21.3584C5.36278 21.9079 5.34452 21.877 5.35721 22.1853C5.36518 22.3788 5.41834 23.0676 5.30904 23.1205C5.21069 23.1769 4.96901 23.1187 4.86716 23.097C4.4185 23.001 4.09537 22.8686 3.78893 22.643C3.26763 22.2593 2.9482 21.6969 2.76372 20.9747C2.49176 19.9101 2.60234 18.3506 2.94637 17.4672C3.08195 17.1191 3.20044 16.7965 3.38238 16.5063C3.43771 16.4181 3.51169 16.2298 3.63577 16.2174L3.64165 16.2234C3.74614 16.2769 3.73005 16.5197 3.73002 16.6773C3.73002 17.0474 3.66641 17.4548 3.75949 17.7855C3.96423 17.7798 3.97481 17.508 4.02463 17.3493C4.12105 17.042 4.33397 16.3847 4.69632 16.3766V16.3884C4.74927 16.5154 4.61411 16.8574 4.58435 16.9661C4.4796 17.3492 4.47177 17.8113 4.47242 18.263C4.47268 18.4349 4.45293 18.8747 4.53723 18.9468L4.54901 18.935C4.79702 18.8115 4.8764 18.099 4.97324 17.7914C5.12026 17.3244 5.27315 16.8503 5.50352 16.465C5.70845 16.1222 5.96803 15.835 6.17518 15.4982C6.26755 15.3481 6.59254 14.832 6.41676 14.5787C6.34362 14.4733 6.13527 14.5325 6.0161 14.567C5.87953 14.6043 5.75012 14.6641 5.63312 14.7438C5.5711 14.788 5.51316 14.8768 5.43281 14.8971C5.34488 14.9192 5.2813 14.8558 5.23838 14.8263C5.24455 14.6246 5.47181 14.5157 5.43869 14.3076C5.35755 14.2083 5.18379 14.2784 5.10286 14.3311C4.91833 14.4514 4.77842 14.6206 4.60794 14.7555C4.55113 14.8005 4.48255 14.8857 4.38995 14.8734V14.8675C4.45669 14.7535 4.52346 14.6396 4.59026 14.5256C4.83058 14.1862 5.1743 13.828 5.57421 13.6531C6.08702 13.4289 6.65221 13.5599 6.93519 13.0813C7.15658 12.7069 7.10729 12.0967 7.20033 11.5899C7.34307 10.8122 7.39745 10.0049 7.55973 9.26133L7.68935 8.61871C7.87432 7.98713 8.1334 7.37965 8.46119 6.80895C8.61194 6.55016 8.73364 6.28198 8.9031 6.0426C9.15649 5.68448 9.45167 5.35701 9.72206 5.01687C10.066 4.58423 10.4949 4.11928 10.924 3.77303C11.4713 3.33137 11.9562 2.80072 12.5619 2.41727C13.233 1.99231 13.986 1.70282 14.8716 1.47989C15.2273 1.39035 15.606 1.35712 15.9851 1.29126L17.1635 1.19116L17.5288 1.17348L18.2241 1.14978ZM13.7521 8.02924C13.7507 7.92623 13.7135 7.82694 13.6468 7.74842C13.5801 7.66992 13.4882 7.61708 13.3868 7.599C13.2907 7.58137 13.2268 7.62695 13.1629 7.64615C13.2423 7.2749 13.8289 7.10463 14.3413 7.19812C15.2098 7.35661 15.7016 7.86947 16.6804 7.88776C16.5887 7.19533 16.1325 6.36307 15.6611 6.04853C15.4755 5.92468 15.1949 5.78299 14.8951 5.83631C14.9165 5.71539 14.9981 5.64083 15.0778 5.57691C15.1447 5.52323 15.1994 5.45508 15.284 5.41777C15.7124 5.22873 16.391 5.3305 16.81 5.45902C17.5925 5.69903 18.2669 6.06276 18.8663 6.49065C19.1117 6.66583 19.3221 6.88105 19.5556 7.06837C19.839 7.29564 20.0859 7.542 20.4277 7.71681C20.5243 7.76623 20.6704 7.8753 20.8283 7.84651C21.1562 7.78671 21.0436 7.26693 20.9579 7.0271C20.9214 6.92496 20.8175 6.80506 20.952 6.77371C21.178 6.72079 21.4193 6.81182 21.5648 6.88573C22.0085 7.11114 22.3193 7.4769 22.5959 7.87018C23.707 9.44998 23.8347 12.1285 24.004 14.6318L24.3517 14.7497C24.5691 14.8187 24.801 14.8672 24.988 14.9678C25.0371 14.8243 25.0862 14.6809 25.1353 14.5374C25.2302 14.2383 25.3053 13.9292 25.3769 13.606C25.514 12.9866 25.5377 12.3398 25.6479 11.6843L25.6891 10.9769L25.7009 10.4345L25.695 9.99239L25.6832 9.47953V8.74253L25.6715 8.16484C25.6137 7.80696 25.6371 7.45151 25.5654 7.12731C25.3428 6.12002 24.9339 5.38698 24.3929 4.71035C24.1915 4.46122 23.9644 4.23398 23.7153 4.03242C23.1541 3.5805 22.6439 3.0608 21.9183 2.77089C21.1207 2.4522 19.8451 2.49624 18.9311 2.68837C18.6233 2.75308 18.3112 2.78084 18.0355 2.86522C16.7153 3.26931 15.8024 3.97924 14.8421 4.72804C13.884 5.47514 12.7837 6.50269 12.2674 7.67554C12.1617 7.9156 12.0931 8.16421 12.0022 8.43011C12.141 8.42695 12.2727 8.38077 12.3911 8.34756L13.2159 8.1412C13.3815 8.09533 13.5535 8.03028 13.7521 8.02924ZM9.75738 13.0105H9.77507C9.73578 13.0793 9.69649 13.1481 9.65723 13.2169L9.45115 13.659C9.26847 14.0999 9.17686 14.5761 9.05051 15.0856L8.93264 15.7047H8.9032C8.81669 15.6789 8.72458 15.6789 8.63806 15.7047L8.62628 15.6929C8.48569 15.4969 8.47137 14.9556 8.532 14.6612C8.67017 13.9905 8.92682 13.4616 9.42168 13.1521C9.5234 13.0883 9.64425 13.0695 9.75738 13.0105ZM15.4018 13.1874C15.53 13.1865 15.6271 13.2189 15.7259 13.2404C15.6886 13.3406 15.6513 13.4408 15.614 13.5411L15.3429 14.2132C15.1601 14.6456 14.9731 15.0687 14.7891 15.4865C14.6857 15.7213 14.5802 15.9745 14.4179 16.1527C14.1437 16.1197 14.0295 15.8349 13.7934 15.7518C13.7584 15.5176 13.9417 15.0511 14.0055 14.8499C14.2061 14.2176 14.3882 13.6772 14.8952 13.3583C14.999 13.2924 15.1122 13.2427 15.231 13.2109L15.4018 13.1874ZM10.27 15.7576C9.96994 15.7577 9.67005 15.7469 9.37443 15.7517V15.7458C9.51737 15.4397 9.72969 15.249 10.1286 15.1976C10.2374 15.3408 10.2706 15.4921 10.27 15.7576ZM11.9551 15.5631C12.0934 15.5605 12.6157 15.5983 12.6621 15.6456C12.6817 15.7478 12.7014 15.85 12.721 15.9521C12.7334 16.009 12.7884 16.2078 12.7505 16.2528C12.4515 16.5717 11.7649 16.1522 11.5191 16.0464L11.2127 15.9462L11.2245 15.9344C11.2906 15.7516 11.5242 15.6423 11.7253 15.5925L11.9551 15.5631ZM23.7448 16.2999C23.7482 15.9611 23.449 15.9001 23.1556 15.8519H22.9553L22.7196 16.0583C22.0519 16.7261 21.6047 17.5436 21.3114 18.5931C21.2303 18.8833 21.0504 19.3483 21.2584 19.6248C21.2904 19.6672 21.3261 19.7196 21.388 19.7309C21.4918 19.6281 21.5799 19.4331 21.8064 19.4775C22.0407 19.6857 21.9876 20.3585 22.0656 20.739L22.154 21.0632L22.1599 21.0515C22.2453 20.9335 22.2794 20.7557 22.3307 20.6093C22.4914 20.1511 22.5944 19.6376 22.7432 19.1651C22.9571 18.4855 23.333 18.0046 23.6859 17.4732C23.846 17.2374 23.9747 16.9817 24.0688 16.7127C24.095 16.6372 24.161 16.4808 24.1396 16.3944C24.093 16.2835 23.9042 16.2965 23.7448 16.2999ZM8.85592 16.8246C9.76201 16.8082 10.4866 17.3282 10.8828 17.8208C10.989 17.953 11.1154 18.0727 11.2186 18.2099C11.5593 18.6627 11.8184 19.1714 11.9845 19.7132C12.4045 21.0585 12.1478 22.963 11.7724 24.1521C11.6711 24.473 11.5267 24.7707 11.4012 25.0658C11.1612 25.6306 11.0048 26.0919 10.3289 26.2272C10.1673 26.2562 10.0021 26.258 9.83988 26.2329C9.72008 26.2055 9.60028 26.1781 9.48046 26.1504C9.12114 26.0372 8.87643 25.8424 8.60259 25.6494C8.52662 25.5959 8.3283 25.4332 8.17836 25.4726C8.03335 25.5107 7.96081 25.772 7.90734 25.9088L7.80128 26.2389C7.63653 26.899 8.66541 27.1072 9.07394 27.306L9.06804 27.3178C8.92891 27.3763 8.8385 27.4999 8.67327 27.5417C8.43971 27.6007 8.17956 27.5289 8.01927 27.4591C7.52608 27.2452 7.26851 26.7679 6.99997 26.3272C6.75677 25.9321 6.5497 25.5159 6.38132 25.0835C6.03128 24.1825 5.98911 22.9973 5.98655 21.7588C5.98556 21.2667 5.93266 20.7031 6.01006 20.2436C6.06377 19.9252 6.08788 19.6204 6.17503 19.3417C6.48309 18.3564 7.10261 17.5804 7.91904 17.1016C8.10574 16.9977 8.30604 16.9204 8.51411 16.8717L8.85592 16.8246ZM25.0469 16.9425L24.8996 16.9779C24.7814 17.025 24.6703 17.0886 24.5697 17.1665C24.3724 17.3178 24.2519 17.5364 24.1219 17.756C23.7591 18.3686 23.5507 19.0962 23.3559 19.8841C23.2794 20.1938 23.269 20.522 23.2145 20.8568C23.1898 21.0087 23.1841 21.2243 23.297 21.2695C23.443 21.3278 23.5647 21.1789 23.6093 21.1045C23.6691 21.0046 23.6808 20.8586 23.7153 20.7331L23.9274 19.9255C24.1505 19.2161 24.499 18.7062 24.9055 18.1923C25.0844 17.9662 25.35 17.8228 25.5006 17.5675C25.6923 17.2422 25.3943 16.938 25.0469 16.9425Z" fill="#786956"/>
</g>
<defs>
<clipPath id="clip0">
<rect width="32" height="32" fill="white"/>
</clipPath>
</defs>
</svg>
