<svg width="32" height="32" viewBox="0 0 32 32" fill="none" xmlns="http://www.w3.org/2000/svg">
<path fill-rule="evenodd" clip-rule="evenodd" d="M16 0C7.17949 0 0 7.17949 0 16C0 24.8205 7.17949 32 16 32C24.8205 32 32 24.8205 32 16C32 7.17949 24.8205 0 16 0ZM1.67832 16C1.67832 8.10256 8.10256 1.67832 16 1.67832C23.8974 1.67832 30.3217 8.10256 30.3217 16C30.3217 23.8974 23.8974 30.3217 16 30.3217C8.10256 30.3217 1.67832 23.8974 1.67832 16Z" fill="url(#paint0_linear_1783_57)"/>
<path fill-rule="evenodd" clip-rule="evenodd" d="M22.1352 17.5478C22.014 18.3124 21.296 18.8345 20.5315 18.7226C19.7669 18.6107 19.2448 17.8834 19.3566 17.1189C19.4779 16.3543 20.1958 15.8322 20.9604 15.9441C20.9604 15.9441 20.9604 15.9441 20.9697 15.9441C21.7343 16.0653 22.2564 16.7925 22.1352 17.5478ZM21.9487 14.5082C21.8368 15.2168 21.1655 15.7016 20.4476 15.5897C19.7389 15.4779 19.2541 14.8065 19.366 14.0886C19.4779 13.38 20.1492 12.8951 20.8578 13.007C21.5758 13.1282 22.0606 13.7902 21.9487 14.5082ZM21.4173 20.7552C21.3054 21.4639 20.634 21.9487 19.9161 21.8368C19.2075 21.7249 18.7226 21.0536 18.8345 20.3357C18.9464 19.627 19.6177 19.1422 20.3263 19.2541C21.0443 19.3753 21.5291 20.0466 21.4173 20.7552ZM19.9441 23.2914C19.8508 23.8881 19.2914 24.289 18.6946 24.1958C18.0979 24.1026 17.697 23.5431 17.7902 22.9464C17.8835 22.3496 18.4429 21.9487 19.0396 22.042C19.6364 22.1352 20.0373 22.6946 19.9441 23.2914C19.9441 23.282 19.9441 23.282 19.9441 23.2914ZM18.1725 25.1935C18.0886 25.6876 17.6224 26.0326 17.1282 25.9487C16.634 25.8648 16.289 25.3986 16.373 24.9044C16.4569 24.4103 16.9231 24.0653 17.4173 24.1492C17.9114 24.2238 18.2471 24.6993 18.1725 25.1935ZM21.007 11.627C20.9138 12.2238 20.3543 12.6247 19.7576 12.5315C19.1608 12.4382 18.7599 11.8788 18.8532 11.282C18.9464 10.6853 19.5058 10.2844 20.1026 10.3776C20.69 10.4709 21.1002 11.0303 21.007 11.627ZM19.7016 9.40792C19.6177 9.90209 19.1515 10.2471 18.6573 10.1632C18.1632 10.0793 17.8182 9.61305 17.9021 9.11888C17.986 8.62471 18.4522 8.27972 18.9464 8.36363C19.4406 8.43822 19.7762 8.90443 19.7016 9.40792ZM18.0699 7.71095C18.014 8.09324 17.6504 8.35431 17.2681 8.29837C16.8858 8.2331 16.6247 7.87878 16.6807 7.4965C16.7366 7.11422 17.1002 6.85314 17.4825 6.90909C17.8648 6.96503 18.1259 7.32867 18.0699 7.71095C18.0699 7.72028 18.0699 7.71095 18.0699 7.71095ZM16.5688 6.48951C16.5128 6.80652 16.2238 7.02098 15.9068 6.96503C15.5897 6.90909 15.3753 6.62004 15.4312 6.30303C15.4872 5.98601 15.7762 5.77156 16.0932 5.8275C16.4103 5.88345 16.6247 6.17249 16.5688 6.48951ZM15.1888 5.48251C15.1515 5.73426 14.9091 5.90209 14.6667 5.8648C14.4149 5.83683 14.2284 5.61305 14.2564 5.3613C14.2844 5.10955 14.5082 4.92307 14.7599 4.95105C14.7692 4.95105 14.7786 4.95105 14.7972 4.96037H14.8159C15.0583 4.99767 15.2261 5.23077 15.1888 5.48251ZM16.2611 26.5175C16.2051 26.8998 15.8415 27.1702 15.4592 27.1049C15.0769 27.049 14.8065 26.6853 14.8718 26.303C14.9277 25.9207 15.2914 25.6597 15.6737 25.7156H15.683C16.0559 25.7716 16.317 26.1352 16.2611 26.5175ZM14.4242 27.1142C14.387 27.4312 14.0979 27.655 13.7809 27.6177C13.4639 27.5804 13.2401 27.2914 13.2774 26.9744C13.2774 26.965 13.2774 26.9557 13.2774 26.9464V26.9371C13.3333 26.62 13.6224 26.4056 13.9394 26.4615C14.2564 26.4988 14.4709 26.7972 14.4242 27.1142ZM12.8578 26.9464C12.8112 27.2168 12.5594 27.4033 12.289 27.3566C12.0187 27.31 11.8322 27.0583 11.8788 26.7879C11.9254 26.5175 12.1772 26.331 12.4476 26.3776C12.718 26.4149 12.9044 26.676 12.8578 26.9464ZM11.627 26.2098C11.5991 26.4056 11.4126 26.5361 11.2168 26.5082C11.021 26.4802 10.8904 26.2937 10.9184 26.0979C10.9464 25.9021 11.1329 25.7716 11.3287 25.7995C11.5245 25.8275 11.655 26.014 11.627 26.2098ZM11.0769 25.1096C11.0303 25.38 10.7786 25.5664 10.5082 25.5198C10.2378 25.4732 10.0513 25.2214 10.0979 24.951C10.1445 24.6807 10.3963 24.4942 10.6667 24.5408C10.9371 24.5781 11.1235 24.8392 11.0769 25.1096ZM11.0023 23.6923C10.9557 24.0093 10.6573 24.2238 10.3403 24.1772C10.0233 24.1305 9.80886 23.8322 9.85548 23.5151C9.9021 23.1981 10.2005 22.9837 10.5175 23.0303C10.8345 23.0769 11.049 23.3753 11.0023 23.6923ZM11.3939 22.0513C11.3287 22.4336 10.9744 22.6946 10.5921 22.6294C10.2098 22.5641 9.94872 22.2098 10.014 21.8275C10.0793 21.4452 10.4336 21.1841 10.8159 21.2494C11.1888 21.3054 11.4499 21.669 11.3939 22.0513ZM12.0093 20.1678C11.9254 20.662 11.4592 21.007 10.965 20.9231C10.4709 20.8392 10.1259 20.373 10.2098 19.8788C10.2937 19.3846 10.7599 19.0489 11.2541 19.1235C11.7483 19.1981 12.0839 19.6643 12.0093 20.1678C12.0093 20.1585 12.0093 20.1585 12.0093 20.1678ZM12.8298 17.9114C12.7366 18.5082 12.1772 18.9091 11.5804 18.8158C10.9837 18.7226 10.5828 18.1632 10.676 17.5664C10.7692 16.9697 11.3287 16.5688 11.9254 16.662C12.5315 16.7552 12.9324 17.3147 12.8298 17.9114ZM13.7902 15.366C13.6783 16.0746 13.007 16.5594 12.289 16.4475C11.5711 16.3357 11.0956 15.6643 11.2075 14.9464C11.3194 14.2378 11.9907 13.7529 12.6993 13.8648C13.4173 13.986 13.9021 14.648 13.7902 15.366ZM14.8811 12.5874C14.7599 13.352 14.0326 13.8741 13.2681 13.7529C12.5035 13.6317 11.9814 12.9044 12.1026 12.1399C12.2238 11.3753 12.9511 10.8531 13.7156 10.9744C14.4802 11.0956 15.0023 11.8228 14.8811 12.5874ZM13.9487 4.76457C13.9208 4.96037 13.7343 5.09091 13.5385 5.06293C13.3427 5.03496 13.2121 4.84848 13.2401 4.65268C13.2681 4.45687 13.4545 4.32634 13.6504 4.35431C13.8462 4.38228 13.9767 4.56876 13.9487 4.76457Z" fill="#96CCD4"/>
<path d="M20.7459 18.7413C21.5235 18.7413 22.1539 18.1109 22.1539 17.3333C22.1539 16.5558 21.5235 15.9254 20.7459 15.9254C19.9684 15.9254 19.338 16.5558 19.338 17.3333C19.338 18.1109 19.9684 18.7413 20.7459 18.7413Z" fill="#009DB9"/>
<defs>
<linearGradient id="paint0_linear_1783_57" x1="-0.00139712" y1="15.9995" x2="31.9977" y2="15.9995" gradientUnits="userSpaceOnUse">
<stop stop-color="#96CCD4"/>
<stop offset="1" stop-color="#009DB9"/>
</linearGradient>
</defs>
</svg>
