<svg width="32" height="32" viewBox="0 0 32 32" fill="none" xmlns="http://www.w3.org/2000/svg">
<path fill-rule="evenodd" clip-rule="evenodd" d="M8.85171 11.3113L10.2563 13.0894L3.79742 16.7191L10.5689 18.7674L9.93417 20.8699L0.92926 18.0877L0.94654 15.1576L8.89785 11.2751" fill="black"/>
<path d="M8.83243 11.2791C9.30485 11.9913 9.77563 12.6037 10.2176 12.9841M8.8344 11.2273C9.3504 11.8756 9.80608 12.5919 10.1539 13.0553M10.2876 12.9897C8.44427 14.1014 6.78187 15.1294 3.84139 16.5353M10.1869 13.0161C8.16773 14.2806 6.09488 15.3737 3.89589 16.6172M3.80203 16.6683C6.34507 17.3038 8.56245 18.0587 10.4831 18.856M3.82469 16.5963C5.81627 17.2599 7.76539 17.8955 10.578 18.7768M10.5463 18.8092C10.4287 19.3892 10.125 19.974 9.89803 20.9305M10.6086 18.7256C10.2897 19.6299 10.0035 20.5519 9.86757 20.9214M9.84789 20.9176C7.44117 20.0686 5.28208 19.4284 1.01515 17.9246M9.86645 20.978C6.90992 20.0877 3.98485 19.0543 0.964479 17.975M0.928479 17.9601C0.905706 17.2074 0.961919 16.2363 0.953972 15.1016M0.951786 17.9703C0.853813 16.9557 0.928853 15.9557 0.958986 15.2139M0.853333 15.1342C2.96885 13.9833 5.13963 13.0715 8.94789 11.2062M0.961919 15.245C3.37611 13.8847 5.80149 12.7092 8.89696 11.2144" stroke="white" stroke-width="0.5"/>
<path fill-rule="evenodd" clip-rule="evenodd" d="M22.5965 11.1797L21.2317 13.1434L28.0548 16.6481L20.928 18.6817L21.7012 21.0416L31.1536 18.031L30.9832 15.2498L22.6125 11.1569" fill="black"/>
<path d="M22.7437 11.1992C22.3183 11.7479 22.163 12.0752 21.3206 13.0075M22.7489 11.2091C22.091 11.9041 21.5756 12.6653 21.2824 13.0939M21.3208 13.0129C23.1737 14.0914 25.0728 15.0715 28.0962 16.5337M21.3382 13.0473C22.984 13.9635 24.6798 14.8441 28.0418 16.6369M28.0852 16.7199C26.2883 17.0893 24.5067 17.5152 20.8043 18.7416M27.9694 16.6022C26.0231 17.1841 24.054 17.8345 20.8807 18.818M20.7975 18.8219C21.0572 19.6187 21.399 20.315 21.5284 21.0311M20.8507 18.8106C21.1259 19.563 21.4774 20.2897 21.5767 20.9442M21.6085 20.9849C24.4466 20.044 27.2751 19.2393 31.0032 17.9161M21.6389 20.9328C23.7765 20.2611 25.9528 19.6548 31.0365 18.031M31.0273 18.0684C31.0844 17.3535 31.0665 16.6934 31.1248 15.2943M31.0539 18.0051C31.1472 17.2721 31.1642 16.6182 31.0501 15.2415M31.0708 15.116C27.6921 13.7422 24.3598 12.0444 22.7827 11.2771M31.0587 15.1708C29.2505 14.4678 27.578 13.5934 22.7021 11.204" stroke="white" stroke-width="0.5"/>
<path fill-rule="evenodd" clip-rule="evenodd" d="M11.0988 26.6299L17.0808 5.42461L20.1322 5.26685L14.2813 26.6323L11.1523 26.5657" fill="#228BE6"/>
<path d="M11.1443 26.7014C12.5905 21.8984 13.9355 17.2491 17.0976 5.29464M11.1687 26.6817C12.9553 20.5807 14.6579 14.536 17.1563 5.35464M17.14 5.38595C17.98 5.27672 19.059 5.25422 20.1351 5.33203M17.1037 5.28003C17.8489 5.32632 18.4932 5.36712 20.1633 5.33816M20.0705 5.28792C18.3292 11.4175 16.7614 17.5309 14.3232 26.6827M20.1351 5.30403C17.9057 13.4825 15.6984 21.5919 14.3156 26.7209M14.2902 26.6216C13.5045 26.596 12.8033 26.6829 11.0886 26.6594M14.2939 26.7656C13.168 26.6321 11.9474 26.6227 11.1191 26.6746" stroke="white"/>
</svg>
