<svg width="461" height="461" viewBox="0 0 461 461" fill="none" xmlns="http://www.w3.org/2000/svg">
<g clip-path="url(#clip0_103_16)">
<path d="M412.7 130H47.7L0 230L47.7 330H412.6L460.3 230L412.7 130ZM402.2 313.4H58.2L18.4 230L58.2 146.6H402.2L442 230L402.2 313.4Z" fill="#008EC7"/>
<path d="M442 230L402.2 313.4H58.2L18.4 230L58.2 146.6H402.2L442 230Z" fill="#005B9B"/>
<path d="M130.2 201.9V261.4H116.4V237H89.4V261.4H75.6V201.9H89.4V225.4H116.4V201.9H130.2Z" fill="white"/>
<path d="M156.7 213.1H137.7V201.9H189.6V213.1H170.6V261.4H156.7V213.1Z" fill="white"/>
<path d="M210.1 213.1H191V201.9H242.9V213.1H223.9V261.4H210.1V213.1Z" fill="white"/>
<path d="M289.8 204.5C293.462 206.077 296.589 208.682 298.8 212C300.925 215.452 302.002 219.447 301.9 223.5C301.989 227.52 300.912 231.479 298.8 234.9C296.589 238.218 293.462 240.823 289.8 242.4C285.464 244.211 280.798 245.096 276.1 245H264.1V261.4H250.3V201.9H276.1C280.798 201.804 285.464 202.689 289.8 204.5V204.5ZM284.8 231.1C285.887 230.169 286.743 228.997 287.298 227.678C287.854 226.359 288.094 224.928 288 223.5C288.076 222.059 287.827 220.619 287.274 219.287C286.72 217.954 285.875 216.763 284.8 215.8C282.7 214 279.5 213.1 275.4 213.1H264.2V233.8H275.4C279.4 233.8 282.6 232.9 284.8 231.1Z" fill="white"/>
<path d="M389.6 249.9V261.3H344V252.3L367.3 230.4C369.27 228.636 370.957 226.578 372.3 224.3C373.137 222.765 373.584 221.048 373.6 219.3C373.676 218.247 373.486 217.193 373.05 216.232C372.613 215.271 371.943 214.435 371.1 213.8C369.5 212.5 367.1 211.9 363.9 211.9C361.451 211.864 359.025 212.377 356.8 213.4C354.67 214.411 352.843 215.962 351.5 217.9L341.3 211.4C343.752 207.858 347.099 205.029 351 203.2C355.443 201.133 360.3 200.107 365.2 200.2C369.244 200.099 373.264 200.849 377 202.4C380.148 203.664 382.858 205.819 384.8 208.6C386.706 211.357 387.687 214.649 387.6 218C387.618 221.187 386.899 224.336 385.5 227.2C384.1 230.1 381.5 233.3 377.5 237L363.6 250.1H389.6V249.9Z" fill="#FFD040"/>
<path d="M327 189.8H338.8L310.7 269.9H299L327 189.8Z" fill="#FFD040"/>
</g>
<defs>
<clipPath id="clip0_103_16">
<rect width="460.3" height="460.3" fill="white"/>
</clipPath>
</defs>
</svg>
