<svg width="461" height="461" viewBox="0 0 461 461" fill="none" xmlns="http://www.w3.org/2000/svg">
<path d="M412.66 130H47.73L0 230L47.73 330H412.66L460.39 230L412.66 130ZM402.17 313.36H58.17L18.43 230L58.22 146.64H402.22L442 230L402.17 313.36Z" fill="#008EC7"/>
<path d="M441.95 230.01L402.17 313.37H58.22L18.43 230.01L58.22 146.64H402.17L441.95 230.01Z" fill="#005B9B"/>
<path d="M130.24 201.89V261.42H116.46V237H89.46V261.41H75.64V201.89H89.42V225.36H116.42V201.89H130.24Z" fill="white"/>
<path d="M156.68 213.12H137.68V201.89H189.55V213.12H170.55V261.42H156.68V213.12Z" fill="white"/>
<path d="M210.08 213.12H191V201.89H242.87V213.12H223.87V261.42H210.08V213.12Z" fill="white"/>
<path d="M289.8 204.53C293.465 206.092 296.594 208.692 298.8 212.01C300.95 215.446 302.041 219.438 301.94 223.49C302.03 227.528 300.939 231.504 298.8 234.93C296.613 238.265 293.479 240.87 289.8 242.41C285.456 244.229 280.778 245.111 276.07 245H264.07V261.42H250.31V201.89H276.07C280.783 201.779 285.464 202.679 289.8 204.53ZM284.75 231.1C285.841 230.167 286.701 228.995 287.265 227.675C287.829 226.355 288.08 224.923 288 223.49C288 220.15 286.92 217.58 284.77 215.8C282.62 214.02 279.46 213.12 275.33 213.12H264.08V233.78H275.31C279.443 233.78 282.59 232.887 284.75 231.1Z" fill="white"/>
<path d="M327 189.82H338.82L310.76 269.92H299L327 189.82Z" fill="#FFD040"/>
<path d="M384.58 232C387.369 235.079 388.859 239.117 388.74 243.27C388.765 246.654 387.821 249.975 386.02 252.84C383.996 255.93 381.115 258.362 377.73 259.84C373.431 261.719 368.769 262.621 364.08 262.48C359.901 262.479 355.741 261.921 351.71 260.82C348.013 259.875 344.514 258.277 341.38 256.1L346.74 245.56C349.113 247.331 351.771 248.684 354.6 249.56C357.557 250.494 360.639 250.966 363.74 250.96C367.2 250.96 369.92 250.3 371.91 248.96C372.861 248.363 373.639 247.528 374.165 246.536C374.692 245.544 374.949 244.432 374.91 243.31C374.91 238.43 371.197 235.993 363.77 236H357.48V226.9L369.69 213H344.35V201.89H386V210.82L372.59 226.13C377.803 226.983 381.8 228.94 384.58 232Z" fill="#FFD040"/>
</svg>
