<svg width="32" height="32" viewBox="0 0 32 32" fill="none" xmlns="http://www.w3.org/2000/svg">
<path d="M19.7724 31.1037V20.6706C19.7724 20.4337 19.6783 20.2066 19.5109 20.0391C19.3434 19.8716 19.1162 19.7775 18.8794 19.7775H13.1174C12.8803 19.7775 12.6528 19.8715 12.4849 20.0389C12.3169 20.2063 12.2221 20.4335 12.2213 20.6706V31.1037C12.2213 31.3409 12.1273 31.5684 11.9599 31.7364C11.7925 31.9044 11.5654 31.9992 11.3283 32H0.893008C0.655878 31.9992 0.428745 31.9044 0.261364 31.7364C0.0939823 31.5684 -1.47001e-06 31.3409 0 31.1037L0 0.893097C0 0.656233 0.0940846 0.42907 0.261556 0.261582C0.429028 0.0940939 0.656168 0 0.893008 0L11.3283 0C11.5651 0 11.7923 0.0940939 11.9597 0.261582C12.1272 0.42907 12.2213 0.656233 12.2213 0.893097V11.3294C12.2221 11.5665 12.3169 11.7937 12.4849 11.9611C12.6528 12.1285 12.8803 12.2225 13.1174 12.2225H31.1038C31.341 12.2225 31.5684 12.3165 31.7364 12.4839C31.9044 12.6513 31.9992 12.8784 32 13.1156V31.1037C32 31.3414 31.9056 31.5694 31.7375 31.7375C31.5695 31.9056 31.3415 32 31.1038 32H20.6686C20.4309 32 20.203 31.9056 20.0349 31.7375C19.8668 31.5694 19.7724 31.3414 19.7724 31.1037V31.1037Z" fill="#0078B7"/>
<path d="M31.1007 0H20.6654C20.1722 0 19.7724 0.399853 19.7724 0.893097V10.228C19.7724 10.7213 20.1722 11.1211 20.6654 11.1211H31.1007C31.5939 11.1211 31.9937 10.7213 31.9937 10.228V0.893097C31.9937 0.399853 31.5939 0 31.1007 0Z" fill="#00B4D8"/>
</svg>
