<svg width="32" height="32" viewBox="0 0 32 32" fill="none" xmlns="http://www.w3.org/2000/svg">
<path d="M23.8103 10.9285V7.3226C24.7515 6.87796 25.411 5.92577 25.411 4.82068V4.73736C25.411 3.21238 24.1632 1.96462 22.6382 1.96462H22.555C21.0299 1.96462 19.7821 3.21238 19.7821 4.73736V4.82068C19.7821 5.92577 20.4417 6.87809 21.3829 7.32267V10.9286C19.9815 11.1451 18.7011 11.723 17.6446 12.5736L7.74415 4.872C7.80927 4.62119 7.85502 4.36279 7.85529 4.09162C7.85752 2.36429 6.45909 0.962235 4.73169 0.960002C3.00429 0.957842 1.60223 2.35634 1.6 4.08367C1.59791 5.811 2.99634 7.21306 4.72374 7.21522C5.28671 7.21592 5.80771 7.05604 6.26442 6.79631L16.0035 14.3726C15.1752 15.6228 14.6901 17.1203 14.6901 18.7324C14.6901 20.4203 15.2233 21.9813 16.1244 23.2655L13.1626 26.2273C12.9284 26.1571 12.6854 26.1079 12.4282 26.1079C11.0089 26.1079 9.85811 27.2586 9.85811 28.678C9.85811 30.0974 11.0089 31.2481 12.4282 31.2481C13.8477 31.2481 14.9983 30.0974 14.9983 28.678C14.9983 28.421 14.9493 28.1779 14.879 27.9437L17.8087 25.014C19.1385 26.0293 20.7945 26.639 22.5968 26.639C26.9634 26.639 30.5032 23.0991 30.5032 18.7324C30.5032 14.7795 27.5993 11.5137 23.8103 10.9285ZM22.5968 22.786C20.3581 22.786 18.5429 20.9712 18.5429 18.7324C18.5429 16.4937 20.3581 14.6788 22.5968 14.6788C24.8353 14.6788 26.6504 16.4937 26.6504 18.7324C26.6504 20.9712 24.8353 22.786 22.5968 22.786Z" fill="#FF5C35"/>
</svg>
