<svg width="32" height="32" viewBox="0 0 32 32" fill="none" xmlns="http://www.w3.org/2000/svg">
<path fill-rule="evenodd" clip-rule="evenodd" d="M16.0449 16.2601L28.6351 3.66993C32.8133 8.42295 32.6394 15.6653 28.1101 20.2087V29.1079H15.2463V29.1059C15.2084 29.1059 15.171 29.1064 15.1336 29.1069C15.0961 29.1073 15.0587 29.1079 15.0208 29.1079C7.79245 29.1079 1.93351 23.2489 1.93351 16.0206C1.93351 14.8987 2.07525 13.8108 2.34074 12.7707C2.58628 11.3434 1.44045 9.04977 0.266663 7.5426C2.16308 7.7602 4.93384 7.61447 5.78424 6.75012C8.15176 4.39256 11.4176 2.93332 15.0228 2.93332C18.4683 2.93332 21.6003 4.2688 23.9359 6.44468L24.1296 6.74612L15.3302 15.5455C15.1326 15.7431 15.1326 16.0625 15.3302 16.2601C15.428 16.358 15.5578 16.4079 15.6875 16.4079C15.8173 16.4079 15.947 16.358 16.0449 16.2601ZM7.86427 9.83977C8.14773 10.4965 8.79851 10.9557 9.55707 10.9557C10.5751 10.9557 11.3996 10.1292 11.3976 9.11316C11.3976 8.09508 10.5731 7.27063 9.55507 7.27063C9.21171 7.27063 8.89232 7.36644 8.61683 7.53015C8.62283 7.53015 8.62883 7.52913 8.6348 7.52815C8.6408 7.52713 8.64677 7.52615 8.65277 7.52615C9.20373 7.52615 9.65088 7.97329 9.65088 8.52425C9.65088 9.07521 9.20373 9.52239 8.65277 9.52239C8.23357 9.52239 7.87624 9.26487 7.72851 8.89956C7.72851 8.9078 7.72744 8.91553 7.72643 8.92297C7.72547 8.92996 7.72453 8.93671 7.72453 8.94348C7.72053 8.98937 7.71853 9.03529 7.71653 9.08121C7.71853 9.34871 7.77243 9.60423 7.86427 9.83977Z" fill="#FF6C00"/>
</svg>
