<svg width="32" height="32" viewBox="0 0 32 32" fill="none" xmlns="http://www.w3.org/2000/svg">
<g clip-path="url(#clip0_1919_141)">
<path d="M5.29492 20.7168C5.29492 20.7168 6.81965 25.2337 10.4833 26.0218L10.8254 23.0957C10.8278 23.0981 8.19985 23.4313 5.29492 20.7168Z" fill="#E29C44"/>
<path d="M6.50891 22.6038C6.49205 22.5892 6.48242 22.5624 6.49205 22.5235C6.50409 22.4797 6.51132 22.4384 6.54263 22.4043C6.61008 22.3265 6.72088 22.2876 6.82204 22.2851C6.93044 22.2803 6.96416 22.1441 7.00511 22.02C6.46074 21.6917 5.88265 21.2684 5.29492 20.7188C5.29492 20.7188 5.5936 21.5992 6.24155 22.6524C6.3114 22.6038 6.40534 22.5843 6.50891 22.6038Z" fill="#FCF2E7"/>
<path opacity="0.2" d="M5.29492 20.7168C5.29492 20.7168 6.81964 25.2336 10.4833 26.0217C10.4833 26.0241 7.43146 24.4796 5.29492 20.7168Z" fill="#707E8C"/>
<path d="M16.3649 29.687C16.0806 31.2705 16.9598 31.8226 18.3425 31.9612C19.9154 32.1218 20.6332 31.8202 20.7825 30.531C21.0186 28.9451 20.6597 27.8068 19.3204 27.4565C17.9498 27.1014 16.5793 28.0987 16.3649 29.687Z" fill="#E29C44"/>
<path opacity="0.2" d="M16.3649 29.37C16.0806 30.6591 16.9598 31.1091 18.3425 31.221C19.9491 31.3548 20.597 31.3499 20.7825 30.0559C21.0186 28.7643 20.6597 27.8376 19.3204 27.553C17.9498 27.2684 16.5793 28.0784 16.3649 29.37Z" fill="#707E8C"/>
<path d="M15.6345 29.687C15.9188 31.2705 15.0396 31.8226 13.657 31.9612C12.0841 32.1218 11.3662 31.8202 11.2169 30.531C10.9808 28.9451 11.3398 27.8068 12.679 27.4565C14.0496 27.1014 15.4202 28.0987 15.6345 29.687Z" fill="#E29C44"/>
<path opacity="0.2" d="M15.6345 29.37C15.9188 30.6591 15.0396 31.1091 13.657 31.221C12.0503 31.3548 11.4024 31.3499 11.2169 30.0559C10.9808 28.7643 11.3398 27.8376 12.679 27.553C14.0496 27.2684 15.4202 28.0784 15.6345 29.37Z" fill="#707E8C"/>
<path d="M12.5932 24.9977C14.2335 26.3744 14.7923 28.3786 13.8409 29.4707C12.8894 30.5629 11.0106 30.3318 9.36788 28.9551C7.72754 27.5784 6.9447 25.5742 7.89615 24.482C8.8476 23.3899 10.9504 23.621 12.5932 24.9977Z" fill="#707E8C"/>
<path d="M19.4118 24.9977C17.7715 26.3744 17.2127 28.3786 18.1641 29.4707C19.1156 30.5629 20.9944 30.3318 22.6371 28.9551C24.2775 27.5784 25.0603 25.5742 24.1089 24.482C23.1574 23.3899 21.0546 23.621 19.4118 24.9977Z" fill="#707E8C"/>
<path d="M12.1766 28.8745C12.1742 29.5045 11.9526 30.0275 10.8711 30.0907C9.75585 30.1661 9.23316 29.8158 9.32469 29.1932C9.3271 28.5632 9.5487 28.0402 10.6302 27.977C11.7455 27.9016 12.2682 28.2494 12.1766 28.8745Z" fill="#E29C44"/>
<path opacity="0.2" d="M11.1718 29.8624C10.8659 29.9281 10.6491 29.736 10.4202 29.787C9.72893 29.9451 9.40616 29.4416 9.4736 29.2373C9.52659 29.0792 9.70966 29.2325 9.89031 29.2081C10.0517 29.1862 10.2059 28.9722 10.401 29.0208C10.6202 29.0744 10.8418 29.1595 11.0248 29.2592C11.4367 29.483 11.6463 29.7651 11.1718 29.8624Z" fill="#707E8C"/>
<path d="M19.8286 28.8745C19.831 29.5045 20.0526 30.0275 21.1341 30.0907C22.2494 30.1661 22.7721 29.8158 22.6805 29.1932C22.6781 28.5632 22.4565 28.0402 21.375 27.977C20.2598 27.9016 19.7371 28.2494 19.8286 28.8745Z" fill="#E29C44"/>
<path opacity="0.2" d="M20.8325 29.8624C21.1384 29.9281 21.3552 29.736 21.584 29.787C22.2753 29.9451 22.5981 29.4416 22.5307 29.2373C22.4777 29.0792 22.2946 29.2325 22.1139 29.2081C21.9526 29.1862 21.7984 28.9722 21.6033 29.0208C21.3841 29.0744 21.1625 29.1595 20.9794 29.2592C20.5675 29.483 20.3579 29.7651 20.8325 29.8624Z" fill="#707E8C"/>
<path d="M8.18332 24.4785C7.46311 24.9115 7.73289 25.6314 8.75902 26.2249C8.55187 25.6509 8.36157 25.0671 8.18332 24.4785Z" fill="#8493A8"/>
<path d="M23.8228 24.4785C24.543 24.9115 24.2732 25.6314 23.2471 26.2249C23.4542 25.6509 23.6445 25.0671 23.8228 24.4785Z" fill="#8493A8"/>
<path d="M19.7127 12.7148H12.2866H6.20215C6.20215 12.7148 7.10783 24.2782 11.0003 30.5609C11.0003 30.5609 13.3898 31.1009 15.7118 30.5974C15.7118 30.5974 15.7528 30.4709 15.8082 30.1985C15.8082 30.218 15.8106 30.2399 15.8106 30.2618C15.8708 29.9966 15.9479 29.5466 16.0009 28.8242C16.0539 29.5442 16.1309 29.9942 16.1912 30.2618C16.1912 30.2399 16.1936 30.2204 16.1936 30.1985C16.249 30.4709 16.2899 30.5974 16.2899 30.5974C18.6119 31.1009 21.0014 30.5609 21.0014 30.5609C24.8915 24.2782 25.7972 12.7148 25.7972 12.7148H19.7127Z" fill="#8493A8"/>
<path opacity="0.2" d="M21.1365 22.4746C21.1365 25.8847 18.8265 28.6503 15.9794 28.6503C13.1298 28.6503 10.8223 25.8847 10.8223 22.4746C10.8223 19.0644 13.1322 16.2988 15.9794 16.2988C18.8289 16.2988 21.1365 19.0644 21.1365 22.4746Z" fill="#707E8C"/>
<path d="M21.4735 21.9082C21.4735 25.3184 19.0142 28.084 15.9768 28.084C12.9417 28.084 10.4824 25.3184 10.4824 21.9082C10.4824 18.498 12.9417 15.7324 15.9768 15.7324C19.0142 15.7324 21.4735 18.498 21.4735 21.9082Z" fill="white"/>
<path opacity="0.2" d="M7.92922 20.6914C8.3098 21.0489 8.71687 21.3748 9.14804 21.6667C11.0558 22.9583 13.4284 23.4375 16.0009 23.4569C18.5734 23.4375 20.9484 22.9583 22.8537 21.6667C23.2849 21.3748 23.692 21.0489 24.0726 20.6914C25.012 19.8157 25.7876 18.7357 26.3536 17.5025C26.8282 14.3867 27.0594 12.1465 27.0594 12.1465H4.94238C4.94238 12.1465 5.17362 14.3867 5.64814 17.5025C6.2142 18.7357 6.9874 19.8157 7.92922 20.6914Z" fill="#707E8C"/>
<path d="M25.0362 3.03071C23.6632 1.83399 21.9771 0.997264 20.0911 0.510794C18.8072 0.179994 17.4318 0.0097294 15.9986 0C14.5678 0.0097294 13.1901 0.179994 11.9062 0.510794C10.0226 0.997264 8.33405 1.83399 6.96107 3.03071C4.6511 5.01794 3.22754 8.02432 3.22754 11.5002C3.22754 14.9735 4.6511 17.9824 6.96107 19.9696C7.38742 20.3393 7.84267 20.6774 8.32442 20.979C10.4586 22.3168 13.1154 22.8106 15.9986 22.83C18.8795 22.8106 21.5363 22.3144 23.6729 20.979C24.1546 20.6774 24.6123 20.3417 25.0362 19.9696C27.3462 17.9824 28.7697 14.976 28.7697 11.5002C28.7697 8.02432 27.3462 5.01794 25.0362 3.03071Z" fill="#8493A8"/>
<path d="M9.06453 16.5592C10.7097 15.1947 14.5227 15.2603 14.7298 11.2202C14.8093 9.66593 13.3039 6.55739 12.2922 4.66016C10.5844 5.03717 9.05489 5.68661 7.81199 6.61577C5.71881 8.15788 4.43014 10.4929 4.42773 13.188C4.42773 15.8855 5.71881 18.2181 7.81199 19.7602C8.19739 20.0472 8.61169 20.3099 9.04767 20.5434C8.5322 19.067 8.17812 17.2938 9.06453 16.5592Z" fill="#E29C44"/>
<path d="M22.936 16.5592C21.2908 15.1947 17.4778 15.2603 17.2706 11.2202C17.1911 9.66593 18.6966 6.55739 19.7083 4.66016C21.4161 5.03717 22.9456 5.68661 24.1885 6.61577C26.2817 8.15788 27.5704 10.4929 27.5728 13.188C27.5728 15.8855 26.2817 18.2181 24.1885 19.7602C23.8031 20.0472 23.3888 20.3099 22.9528 20.5434C23.4683 19.067 23.8224 17.2938 22.936 16.5592Z" fill="#E29C44"/>
<path opacity="0.2" d="M9.06373 16.5578C10.7089 15.1932 14.5219 15.2589 14.7291 11.2188C13.2814 15.8962 10.3741 14.7895 8.75541 16.3583C7.13674 17.9272 8.84213 20.4325 9.04687 20.542C8.5314 19.0655 8.17732 17.2923 9.06373 16.5578Z" fill="#707E8C"/>
<path opacity="0.2" d="M22.9309 16.5578C21.2858 15.1932 17.4728 15.2589 17.2656 11.2188C18.7133 15.8962 21.6206 14.7895 23.2393 16.3583C24.8579 17.9272 23.1525 20.4325 22.9478 20.542C23.4657 19.0655 23.8198 17.2923 22.9309 16.5578Z" fill="#707E8C"/>
<path d="M22.9364 16.5592C21.2913 15.1946 17.4782 15.2603 17.2711 11.2202C17.1916 9.66592 18.6971 6.55738 19.7087 4.66014C18.5453 4.40232 17.2976 4.27097 16.0017 4.26367C14.7034 4.27097 13.4581 4.40232 12.2946 4.66014C13.3063 6.55738 14.8118 9.66592 14.7323 11.2202C14.5275 15.2603 10.7121 15.1946 9.06693 16.5592C8.17811 17.2962 8.5346 19.0694 9.05007 20.5458C10.9843 21.5844 13.393 22.1001 16.0017 22.1147C18.6128 22.1001 21.0191 21.5844 22.9557 20.5458C23.4688 19.0669 23.8229 17.2938 22.9364 16.5592Z" fill="white"/>
<path d="M12.5182 12.6001C12.5929 13.2082 12.2412 13.7506 11.733 13.8139C11.2247 13.8771 10.7526 13.4368 10.678 12.8287C10.6033 12.2207 10.955 11.6782 11.4632 11.615C11.9738 11.5542 12.4459 11.9944 12.5182 12.6001Z" fill="#282827" stroke="white" stroke-width="9"/>
<path d="M17.9312 20.2226C17.9312 20.5631 17.7047 20.8161 17.3266 20.928C16.9484 21.0496 16.4185 21.0253 15.8259 21.035C15.2334 21.0253 14.7035 21.0472 14.3253 20.928C13.9471 20.8161 13.7207 20.5631 13.7207 20.2226C13.7207 19.8821 13.9471 19.6291 14.3253 19.5172C14.7035 19.3956 15.2334 19.4199 15.8259 19.4102C16.4185 19.4199 16.9484 19.398 17.3266 19.5172C17.7047 19.6291 17.9312 19.8821 17.9312 20.2226Z" fill="#F2E2D3"/>
<path opacity="0.2" d="M17.9785 19.2918C18.2724 19.3721 18.5446 19.4961 18.7758 19.7126C18.93 19.6907 19.0889 19.6956 19.2431 19.7223C19.1853 19.6421 19.1251 19.5618 19.06 19.484C18.771 19.124 18.4651 18.8248 18.1881 18.584C18.176 18.8321 18.1038 19.0753 17.9785 19.2918Z" fill="#707E8C"/>
<path opacity="0.2" d="M18.7641 24.8563C18.7616 24.8563 18.7592 24.8539 18.7568 24.8539C18.0848 24.6641 17.6946 23.9612 17.8825 23.2826C18.4413 21.2686 16.1072 20.0719 16.0856 20.0597C15.4617 19.7459 15.2064 18.9822 15.5171 18.3522C15.8278 17.7222 16.5842 17.4644 17.208 17.7782C17.314 17.8317 18.2679 18.3254 19.123 19.2692C20.3538 20.6313 20.7777 22.2999 20.3153 23.9709C20.125 24.6447 19.4313 25.0412 18.7641 24.8563Z" fill="#707E8C"/>
<path d="M20.0292 24.1894C20.0268 24.1894 20.0244 24.1894 20.022 24.1894C19.3258 24.1505 18.7935 23.5473 18.8345 22.8443C18.9501 20.7549 16.4185 20.0933 16.3944 20.086C15.7176 19.9158 15.3057 19.225 15.4743 18.5415C15.6429 17.858 16.327 17.4421 17.0038 17.6123C17.1194 17.6415 18.1552 17.9164 19.191 18.6534C20.682 19.7163 21.4503 21.256 21.354 22.9854C21.313 23.6884 20.7205 24.2235 20.0292 24.1894Z" fill="#D4727A"/>
<path d="M16.6953 18.8516C16.6953 18.8516 16.7844 18.8637 16.9362 18.9026C17.0133 18.9221 17.1048 18.9464 17.2108 18.9805C17.3168 19.0121 17.4324 19.0535 17.5576 19.1045C17.6829 19.1556 17.8202 19.214 17.9575 19.2845C18.0273 19.3186 18.0972 19.3575 18.1695 19.3964C18.2417 19.4378 18.314 19.4791 18.3838 19.5253C18.4561 19.5715 18.5284 19.6202 18.6006 19.6713C18.6729 19.7199 18.7427 19.7759 18.815 19.8342C18.8848 19.8902 18.9523 19.9534 19.0221 20.0118C19.0872 20.0775 19.157 20.1383 19.2173 20.2064L19.3112 20.3086C19.3425 20.3426 19.369 20.3791 19.3979 20.4156C19.4581 20.4861 19.5111 20.5615 19.5617 20.6345C19.6171 20.7075 19.6605 20.7877 19.7062 20.8631C19.7496 20.941 19.7881 21.0213 19.8291 21.0967C19.8628 21.1769 19.8989 21.2548 19.9278 21.3326C19.9543 21.4129 19.9784 21.4907 20.0049 21.5661C20.0242 21.6439 20.0434 21.7193 20.0603 21.7899C20.0748 21.8629 20.0844 21.9358 20.094 22.0015C20.1061 22.0696 20.1085 22.1353 20.1133 22.1985C20.1157 22.2618 20.1229 22.3201 20.1229 22.3761C20.1205 22.488 20.1229 22.5853 20.1157 22.6631C20.0988 22.8212 20.0892 22.9112 20.0892 22.9112C20.0892 22.9112 20.082 22.8212 20.0724 22.6631C20.0724 22.6242 20.0651 22.5804 20.0579 22.5342C20.0531 22.488 20.0459 22.4369 20.0386 22.3834C20.0338 22.3299 20.0194 22.2739 20.0073 22.2131C19.9953 22.1547 19.988 22.0915 19.9688 22.0258C19.9519 21.9626 19.9351 21.8945 19.9158 21.8264C19.8941 21.7583 19.87 21.6902 19.8459 21.6172C19.817 21.5466 19.7881 21.4761 19.7568 21.4031C19.7231 21.3326 19.687 21.2596 19.6508 21.1867C19.6099 21.1161 19.5713 21.0431 19.5256 20.9702C19.5015 20.9361 19.4798 20.8996 19.4557 20.8656L19.422 20.8121L19.3835 20.761C19.3329 20.6929 19.2823 20.6223 19.2245 20.5567C19.1956 20.5226 19.1691 20.4886 19.1402 20.4569L19.0511 20.3621C18.9932 20.2964 18.9282 20.238 18.868 20.1748C18.803 20.1164 18.7403 20.0556 18.6729 20.0021C18.5404 19.8926 18.4079 19.7856 18.273 19.6907C18.1381 19.5959 18.0057 19.5083 17.8732 19.4305C17.8395 19.411 17.8081 19.3916 17.7768 19.3721C17.7455 19.3551 17.7118 19.3356 17.6829 19.3186C17.6203 19.2821 17.56 19.2505 17.5022 19.2189C17.3842 19.158 17.2758 19.1021 17.1771 19.0559C17.0783 19.0097 16.9916 18.9707 16.9193 18.9391C16.8471 18.9099 16.7917 18.8832 16.7507 18.8686C16.717 18.8589 16.6953 18.8516 16.6953 18.8516Z" fill="#282827"/>
<path d="M19.4797 12.6001C19.4051 13.2082 19.7567 13.7506 20.265 13.8139C20.7732 13.8771 21.2453 13.4368 21.32 12.8287C21.3946 12.2207 21.043 11.6782 20.5347 11.615C20.0265 11.5542 19.5544 11.9944 19.4797 12.6001Z" fill="#282827" stroke="white" stroke-width="9"/>
<path d="M13.6931 2.1204C13.7293 2.41957 13.5558 2.68957 13.3053 2.71875C13.0548 2.75037 12.8212 2.53146 12.785 2.23228C12.7489 1.9331 12.9223 1.66311 13.1728 1.63393C13.4234 1.6023 13.657 1.81878 13.6931 2.1204Z" fill="#282827"/>
<path d="M18.3055 2.1204C18.2694 2.41957 18.4428 2.68957 18.6933 2.71875C18.9438 2.75037 19.1775 2.53146 19.2136 2.23228C19.2497 1.9331 19.0763 1.66311 18.8258 1.63393C18.5753 1.6023 18.3417 1.81878 18.3055 2.1204Z" fill="#282827"/>
<path opacity="0.2" d="M21.3319 17.1306C20.3877 15.5617 15.9605 15.732 15.9605 15.732C15.9605 15.732 11.5694 15.5617 10.6252 17.1306C10.1121 17.9819 11.0612 19.3075 12.2101 21.2777C12.6919 22.1023 14.0745 22.5158 15.9798 22.5158C17.8827 22.5158 19.2677 22.1023 19.7494 21.2777C20.8984 19.3075 21.845 17.9819 21.3319 17.1306Z" fill="#707E8C"/>
<path d="M21.7625 16.8039C20.7436 15.4563 15.9574 15.6023 15.9574 15.6023C15.9574 15.6023 11.2122 15.4563 10.1933 16.8039C9.63931 17.536 10.663 18.6743 11.9035 20.3673C12.4238 21.0751 13.9196 20.3673 15.9767 20.3673C18.0337 20.3673 19.5296 21.0775 20.0499 20.3673C21.2928 18.6743 22.3165 17.536 21.7625 16.8039Z" fill="#F2E2D3"/>
<path opacity="0.2" d="M18.1745 17.0983C18.1745 17.7672 16.51 18.5115 16.0018 18.5115C15.4935 18.5115 13.8291 17.7696 13.8291 17.0983C13.8291 16.4294 14.8022 16.084 16.0018 16.084C17.2013 16.0864 18.1745 16.4294 18.1745 17.0983Z" fill="#707E8C"/>
<path d="M18.2799 16.8624C18.2799 17.3756 18.039 17.9472 15.9988 17.9472C13.9586 17.9472 13.7178 17.378 13.7178 16.8624C13.7178 16.3491 14.7391 16.084 15.9988 16.084C17.2586 16.0864 18.2799 16.3491 18.2799 16.8624Z" fill="#282827"/>
<path d="M17.8653 16.6719C17.8653 16.6719 15.7456 16.7521 15.7215 16.8762C15.695 17.0002 16.3021 17.061 16.7477 16.9832C17.1933 16.9029 18.5663 16.6962 17.8653 16.6719Z" fill="white"/>
<path d="M4.45898 13.8906C4.45898 13.8906 4.45898 16.5103 5.73802 18.5121C5.92108 18.7991 5.81269 17.6997 5.81269 17.6997C5.81269 17.6997 6.22458 18.9961 6.70874 19.4485C7.1953 19.901 6.85808 17.9454 6.85808 17.9454" fill="#E29C44"/>
<path d="M27.5422 13.8906C27.5422 13.8906 27.5422 16.5103 26.2631 18.5121C26.0801 18.7991 26.1885 17.6997 26.1885 17.6997C26.1885 17.6997 25.7766 18.9961 25.2924 19.4485C24.8059 19.901 25.1431 17.9454 25.1431 17.9454" fill="#E29C44"/>
<path d="M6.89796 5.51679C7.23759 5.22248 7.59408 4.95006 7.96985 4.69952C5.79716 2.56878 2.84405 2.07259 2.40806 2.52014C1.96727 2.97012 2.50201 5.9911 4.68192 8.16562C4.68914 8.17292 4.69637 8.17778 4.7036 8.18508C5.2841 7.16836 6.02599 6.26839 6.89796 5.51679Z" fill="#E29C44"/>
<path d="M4.77597 7.89232C3.69927 6.71507 3.16453 5.45754 2.93329 4.77891C2.55753 3.68192 2.81526 2.70898 3.05132 2.70898C3.99554 2.70898 7.20397 5.17539 6.94865 5.39673C6.10318 6.11184 5.37574 6.951 4.77597 7.89232Z" fill="white"/>
<path opacity="0.2" d="M2.77494 4.11779C2.66414 3.31755 2.86406 2.70703 3.05195 2.70703C3.99617 2.70703 7.20461 5.17343 6.94928 5.39478C6.10381 6.11232 2.80385 4.32941 2.77494 4.11779Z" fill="#707E8C"/>
<path d="M4.54795 8.46148C4.52868 8.46148 4.50941 8.45662 4.49255 8.44689C4.43956 8.41527 4.42029 8.34716 4.45161 8.29122C5.09473 7.16747 5.9137 6.17506 6.8796 5.3432C7.24813 5.02212 7.64798 4.71808 8.06469 4.43836C8.11527 4.40431 8.18512 4.4189 8.22126 4.46998C8.25498 4.52106 8.24053 4.5916 8.18994 4.62808C7.78046 4.90051 7.38784 5.36995 7.02653 5.68373C6.07749 6.501 5.2778 7.30125 4.64671 8.4031C4.62503 8.44202 4.58649 8.46148 4.54795 8.46148Z" fill="#E29C44"/>
<path d="M25.1022 5.51679C24.7625 5.22248 24.406 4.95006 24.0303 4.69952C26.2029 2.56878 29.156 2.07259 29.592 2.52014C30.0328 2.97012 29.498 5.9911 27.3206 8.16562C27.3133 8.17292 27.3061 8.17778 27.2989 8.18508C26.716 7.16836 25.9741 6.26839 25.1022 5.51679Z" fill="#E29C44"/>
<path d="M27.2232 7.89232C28.2999 6.71507 28.8346 5.45754 29.0659 4.77891C29.4416 3.68192 29.1839 2.70898 28.9478 2.70898C28.0036 2.70898 24.7952 5.17539 25.0505 5.39673C25.8936 6.11184 26.6234 6.951 27.2232 7.89232Z" fill="white"/>
<path opacity="0.2" d="M29.2249 4.11779C29.3357 3.31755 29.1358 2.70703 28.9479 2.70703C28.0037 2.70703 24.7952 5.17343 25.0505 5.39478C25.8936 6.11232 29.196 4.32941 29.2249 4.11779Z" fill="#707E8C"/>
<path d="M27.4519 8.46148C27.4133 8.46148 27.3748 8.44202 27.3555 8.40554C26.7244 7.30368 25.9223 6.501 24.9757 5.68616C24.612 5.36995 24.2218 4.90294 23.8123 4.62808C23.7617 4.59403 23.7472 4.52349 23.781 4.46998C23.8147 4.4189 23.8845 4.40431 23.9375 4.43836C24.3542 4.71565 24.7541 5.01969 25.1226 5.3432C26.0885 6.17506 26.9051 7.16747 27.5506 8.29122C27.5819 8.34473 27.5627 8.41527 27.5097 8.44689C27.4904 8.45662 27.4711 8.46148 27.4519 8.46148Z" fill="#E29C44"/>
<path opacity="0.2" d="M24.1885 6.6165C23.4081 6.03274 22.5144 5.56086 21.5341 5.19601C21.2956 4.0674 20.2454 3.13338 18.9038 2.97284C17.6753 2.8269 16.5287 3.36931 16.0012 4.26442C15.9916 4.26442 16.0109 4.26442 16.0012 4.26442C15.4737 3.36931 14.3272 2.8269 13.0987 2.97284C11.757 3.13338 10.7068 4.0674 10.4684 5.19601C9.48802 5.56086 8.59438 6.03274 7.81396 6.6165C5.72077 8.15861 4.4321 10.4937 4.42969 13.1887C4.42969 13.4247 4.43932 13.6582 4.461 13.8892C4.66333 11.4909 5.90383 9.42587 7.81396 8.01754C8.62811 7.40945 9.5627 6.92298 10.5888 6.55326C11.0272 7.62593 12.2508 8.30699 13.6118 8.14645C14.6837 8.01754 16.0036 7.15892 16.0036 7.15892C16.0036 7.15892 17.3236 8.01997 18.3955 8.14645C19.7564 8.30942 20.9801 7.62593 21.4185 6.55326C22.4446 6.92298 23.3792 7.40945 24.1933 8.01754C26.1035 9.42587 27.344 11.4909 27.5463 13.8892C27.5656 13.6582 27.5776 13.4247 27.5776 13.1887C27.5704 10.4937 26.2817 8.15861 24.1885 6.6165Z" fill="#707E8C"/>
<path d="M13.0968 2.40588C14.3493 2.25508 15.4863 2.8583 15.9993 3.78503C16.5148 2.8583 17.6517 2.25751 18.9018 2.40588C20.5181 2.59804 21.7152 3.91394 21.5731 5.34416C21.431 6.77195 20.0074 7.77408 18.3912 7.58192C17.3193 7.45301 15.9993 6.60412 15.9993 6.60412C15.9993 6.60412 14.6793 7.45544 13.6074 7.58192C11.9912 7.77651 10.5652 6.77438 10.4255 5.34416C10.2834 3.91394 11.4805 2.60047 13.0968 2.40588Z" fill="#8493A8"/>
<path d="M21.551 4.71289C21.2403 5.97285 20.0937 6.92877 18.7617 6.92877C17.5525 6.92877 16.4975 6.14069 16.0808 5.05342C16.0904 4.98045 16.1025 4.90748 16.1217 4.83937C16.1169 4.82478 16.1121 4.81262 16.1073 4.79802C16.0784 4.78343 16.0495 4.77127 16.0206 4.75667C15.693 5.99475 14.5585 6.92877 13.2409 6.92877C11.9064 6.92877 10.7623 5.97285 10.4516 4.71289C10.4154 4.91721 10.4058 5.12882 10.4275 5.34044C10.5696 6.76824 11.9932 7.77037 13.6094 7.57821C14.2839 7.49795 15.0547 7.13066 15.534 6.8704C15.811 6.71959 15.9917 6.60527 15.9989 6.6004C16.0061 6.60527 16.3265 6.80959 16.7769 7.03336C17.2442 7.26444 17.8488 7.51497 18.3908 7.57821C20.007 7.7728 21.433 6.77067 21.5727 5.34044C21.5968 5.12882 21.5872 4.91964 21.551 4.71289Z" fill="#707E8C"/>
<path d="M12.9662 4.46827C12.9493 4.46827 12.9325 4.4634 12.918 4.45124C12.9036 4.44151 11.521 3.44668 9.41815 2.54428C7.47912 1.71485 4.51156 0.79542 1.38984 1.13352C1.34408 1.13838 1.30313 1.10433 1.29831 1.05811C1.29349 1.0119 1.32721 0.97055 1.37298 0.965685C4.53324 0.622724 7.53211 1.55188 9.49041 2.39104C11.6101 3.30074 13.0047 4.30287 13.0192 4.3126C13.0577 4.33935 13.065 4.39287 13.0385 4.43178C13.0192 4.45611 12.9927 4.46827 12.9662 4.46827Z" fill="#DADCE2"/>
<path d="M12.4042 5.36039C12.3922 5.36039 12.3801 5.35796 12.3705 5.3531C12.3537 5.3458 10.5784 4.53826 8.18895 4.0299C5.98978 3.56046 2.80303 3.25641 0.117295 4.46286C0.0739375 4.48232 0.0257629 4.46286 0.006493 4.41907C-0.0127769 4.37529 0.006493 4.32665 0.0498502 4.30719C2.77894 3.08128 6.00424 3.39019 8.22749 3.8645C10.6338 4.37772 12.4211 5.19013 12.4404 5.19986C12.4837 5.21932 12.5006 5.2704 12.4813 5.31175C12.4669 5.34094 12.438 5.36039 12.4042 5.36039Z" fill="#DADCE2"/>
<path d="M4.9984 7.18343C4.97191 7.18343 4.94782 7.17127 4.93096 7.14938C4.90446 7.11046 4.91169 7.05938 4.94782 7.03019C6.27744 6.04263 8.35378 5.90155 9.85924 5.95506C11.4851 6.01344 12.8196 6.30533 12.8316 6.31019C12.8774 6.31992 12.9063 6.36614 12.8967 6.41236C12.887 6.45857 12.8413 6.48776 12.7955 6.47803C12.7425 6.46587 7.52035 5.33237 5.04658 7.17127C5.03453 7.17856 5.01526 7.18343 4.9984 7.18343Z" fill="#DADCE2"/>
<path d="M19.0334 4.46827C19.0069 4.46827 18.9804 4.45611 18.966 4.43178C18.9395 4.39287 18.9467 4.34179 18.9852 4.3126C18.9997 4.30287 20.3943 3.29831 22.514 2.39104C24.4723 1.55188 27.4712 0.622724 30.6314 0.965685C30.6772 0.97055 30.7109 1.0119 30.7061 1.05811C30.7013 1.10433 30.6603 1.13838 30.6146 1.13352C27.4904 0.79542 24.5229 1.71485 22.5815 2.54671C20.4786 3.44911 19.0984 4.44151 19.084 4.45124C19.0671 4.4634 19.0503 4.46827 19.0334 4.46827Z" fill="#DADCE2"/>
<path d="M19.5934 5.36039C19.5621 5.36039 19.5308 5.34094 19.5163 5.31175C19.497 5.26797 19.5163 5.21932 19.5573 5.19986C19.5741 5.19256 21.3638 4.37772 23.7701 3.8645C25.9957 3.39019 29.2186 3.08128 31.9476 4.30719C31.991 4.32665 32.0103 4.37529 31.991 4.41907C31.9717 4.46286 31.9236 4.48232 31.8802 4.46286C29.1945 3.25641 26.0078 3.56046 23.8086 4.0299C21.4192 4.53826 19.6464 5.3458 19.6271 5.3531C19.6175 5.35796 19.6054 5.36039 19.5934 5.36039Z" fill="#DADCE2"/>
<path d="M27.0021 7.18232C26.9853 7.18232 26.9684 7.17745 26.9515 7.16529C24.4754 5.32644 19.2556 6.46234 19.2026 6.47207C19.1569 6.4818 19.1135 6.45261 19.1015 6.4064C19.0918 6.36018 19.1207 6.3164 19.1665 6.30424C19.1809 6.30181 20.513 6.00749 22.1389 5.94912C23.6468 5.89561 25.7207 6.03911 27.0503 7.02422C27.0888 7.05097 27.0961 7.10448 27.0672 7.1434C27.0527 7.17016 27.0262 7.18232 27.0021 7.18232Z" fill="#DADCE2"/>
<path d="M17.3767 4.17002C17.3767 4.66135 15.9989 5.06269 15.9989 5.06269C15.9989 5.06269 14.6211 4.66378 14.6211 4.17002C14.6211 3.67868 15.2377 3.27734 15.9989 3.27734C16.76 3.27734 17.3767 3.67625 17.3767 4.17002Z" fill="#282827"/>
<path d="M15.9988 2.27378C17.5452 2.27378 18.9543 2.41729 20.0094 2.64836C19.0772 2.31756 17.6271 2.10352 15.9988 2.10352C14.3705 2.10352 12.9205 2.31756 11.9883 2.64836C13.0433 2.41729 14.4524 2.27378 15.9988 2.27378Z" fill="#707E8C"/>
<path d="M21.2212 30.1433C21.1947 30.1482 18.68 30.6103 16.529 30.243C16.3219 29.9341 16.1942 29.4428 16.1316 29.1509C17.0469 29.129 17.8899 28.9515 18.5716 28.5039C17.7888 28.6936 16.9168 28.7715 15.9991 28.7763C15.0789 28.7715 14.2094 28.6936 13.4266 28.5039C14.1106 28.9515 14.9513 29.129 15.8666 29.1509C15.804 29.4452 15.6763 29.9341 15.4692 30.243C13.3182 30.6103 10.8034 30.1482 10.777 30.1433C10.7673 30.1409 10.7577 30.1409 10.748 30.1433C10.8299 30.2844 10.9118 30.423 10.9961 30.5592C10.9961 30.5592 13.3856 31.0992 15.7076 30.5957C15.869 30.1871 15.9557 29.6641 15.9967 29.3333C16.04 29.6666 16.1267 30.1871 16.2857 30.5957C18.6077 31.0992 20.9972 30.5592 20.9972 30.5592C21.0815 30.423 21.1634 30.2844 21.2453 30.1433C21.2405 30.1409 21.2308 30.1409 21.2212 30.1433Z" fill="#707E8C"/>
<path d="M16.8349 3.63816C16.8373 3.64059 16.5651 3.5433 16.2472 3.52627C15.9316 3.49951 15.5703 3.55546 15.4475 3.64059C15.3246 3.72815 15.6474 3.66005 16.0087 3.67221C16.37 3.66735 16.7675 3.74032 16.8181 3.71599C16.9216 3.65762 16.8349 3.63816 16.8349 3.63816Z" fill="white"/>
</g>
<defs>
<clipPath id="clip0_1919_141">
<rect width="32" height="32" fill="white"/>
</clipPath>
</defs>
</svg>
