<svg xmlns="http://www.w3.org/2000/svg" width="32" height="32" viewBox="0 0 300 300" fill="none">
<rect width="300" height="300" fill="#F6F7FF"/>
<path d="M166.598 84.3435L178.058 50.1587H217.802L206.282 84.3435H166.598Z" fill="#14FFAF"/>
<path fill-rule="evenodd" clip-rule="evenodd" d="M118.519 131.037C129.724 122.13 143.374 116.527 158.744 116.527C190.207 116.527 220.807 136.647 220.807 188.215V252H180.582V188.215C180.582 161.637 167.947 151.58 150.699 151.58C136.477 151.58 126.136 159.77 120.387 168.388V252H80.0189V86.5022H55.5L68.4058 48H118.519V131.037ZM204.741 82.1756L214.805 52.3174H179.614L169.599 82.1756H204.741ZM176.504 48H220.807L207.834 86.5022H163.598L176.504 48Z" fill="#0A23B9"/>
</svg>
