<svg width="32" height="32" viewBox="0 0 32 32" fill="none" xmlns="http://www.w3.org/2000/svg">
<path fill-rule="evenodd" clip-rule="evenodd" d="M21.5372 16.471C20.442 18.357 18.631 19.3934 16.7485 19.5826L16.2358 21.4953C16.1662 21.7553 15.8352 21.8432 15.6415 21.653L13.8491 19.8944L11.6196 17.7067L11.6232 17.7059C9.35265 15.3352 9.3976 11.6072 11.7586 9.29077C14.5811 6.52138 19.46 6.99938 21.5727 10.7246C22.5848 12.5091 22.5677 14.6966 21.5372 16.471ZM25.3926 4.50616C19.4118 -1.36181 9.07395 -0.349045 4.59748 7.54429C2.45298 11.3254 2.48914 15.9607 4.67254 19.7201C6.9935 23.7164 10.8306 25.9125 14.8197 26.3133L15.9056 30.3662C16.0533 30.9169 16.7545 31.1031 17.1651 30.7003L20.9629 26.9739L25.6873 22.3386L25.6794 22.3366C30.4903 17.3137 30.3951 9.4144 25.3926 4.50616Z" fill="#40FF81"/>
</svg>
