<svg width="32" height="32" viewBox="0 0 32 32" fill="none" xmlns="http://www.w3.org/2000/svg">
<path d="M31.8736 6.71997H26.9296L20.0592 13.5904L18.5344 12.1552L16.0624 14.6272L17.5872 16.0624L13.8224 19.8272L13.8192 19.824C12.8208 20.6496 10.896 21.784 9.5008 21.784C8.6544 21.784 7.8512 21.5968 7.1264 21.2688C7.1264 21.2688 16.7008 11.5584 17.3136 10.9456L16.792 10.3984C14.5888 8.13917 11.944 6.79837 9.4304 6.79837C4.3184 6.79837 0.160004 10.9568 0.160004 16.0688C0.160004 21.1808 4.3184 25.3392 9.4304 25.3392C11.8208 25.3392 13.9168 24.5408 16.5184 22.0688L20.0592 18.5344L26.496 24.9744H31.44L22.5312 16.0624L31.8736 6.71997ZM3.7136 16C3.7136 12.8096 6.30881 10.2144 9.49921 10.2144C10.6464 10.2144 11.7152 10.552 12.6144 11.1312L4.6304 19.1152C4.0528 18.2144 3.7136 17.1472 3.7136 16Z" fill="url(#paint0_linear_3733_203)"/>
<defs>
<linearGradient id="paint0_linear_3733_203" x1="-26.8988" y1="16.0445" x2="48.174" y2="16.0445" gradientUnits="userSpaceOnUse">
<stop stop-color="#EA571C"/>
<stop offset="0.1151" stop-color="#E95026"/>
<stop offset="0.3315" stop-color="#E83E3A"/>
<stop offset="0.6176" stop-color="#E61850"/>
</linearGradient>
</defs>
</svg>
