<svg width="32" height="32" viewBox="0 0 32 32" fill="none" xmlns="http://www.w3.org/2000/svg">
<rect width="32" height="32" fill="black"/>
<path d="M28.4576 13.4819H15.7327C15.6895 13.4819 15.6479 13.4647 15.6173 13.4342C15.5866 13.4036 15.5694 13.3621 15.5694 13.3188V3.74859C15.5694 3.23656 14.929 3.00462 14.6012 3.39817L2.26007 18.2071C2.19351 18.2871 2.1511 18.3844 2.13781 18.4877C2.12453 18.5908 2.14092 18.6958 2.18506 18.79C2.2292 18.8841 2.29927 18.9639 2.38706 19.0197C2.47486 19.0756 2.57675 19.1053 2.68081 19.1054H15.4063C15.4495 19.1055 15.491 19.1227 15.5216 19.1534C15.5522 19.184 15.5694 19.2255 15.5694 19.2688V28.839C15.5694 29.3513 16.2099 29.5832 16.5379 29.1896L28.8789 14.3807C28.9457 14.3007 28.9882 14.2033 29.0016 14.0999C29.0149 13.9966 28.9986 13.8915 28.9543 13.7972C28.9101 13.7028 28.8399 13.623 28.7519 13.5672C28.6639 13.5113 28.5618 13.4817 28.4576 13.4819Z" fill="#CBF200"/>
</svg>
