<svg width="32" height="32" viewBox="0 0 32 32" fill="none" xmlns="http://www.w3.org/2000/svg">
<path fill-rule="evenodd" clip-rule="evenodd" d="M12.9169 11.9643H13.5249C14.2976 11.9643 14.9237 11.3384 14.9237 10.5659V10.5648C14.9237 9.79231 14.2976 9.16644 13.5249 9.16644H10.5508C9.77804 9.16644 9.15198 9.79231 9.15198 10.5648V13.5518C9.15198 14.3243 9.77804 14.9512 10.5508 14.9512C11.3235 14.9512 11.9496 14.3243 11.9496 13.5518V13.2224C11.9496 12.2501 11.9666 11.9643 12.9169 11.9643Z" fill="#00A79D"/>
<path fill-rule="evenodd" clip-rule="evenodd" d="M9.05634 7.65077H13.5175C14.2902 7.65077 14.9163 7.0249 14.9163 6.2524V5.96975C14.9163 5.19724 14.2902 4.57031 13.5175 4.57031H5.99403C5.22128 4.57031 4.59521 5.19724 4.59521 5.96975V13.5652C4.59521 14.3377 5.22128 14.9635 5.99403 14.9635H6.25764C7.03039 14.9635 7.65752 14.3377 7.65752 13.5652V9.04914C7.65752 8.27664 8.28359 7.65077 9.05634 7.65077Z" fill="#00A79D"/>
<mask id="mask0" style="mask-type:alpha" maskUnits="userSpaceOnUse" x="0" y="0" width="15" height="15">
<path d="M14.9351 0H0.0179443V14.9482H14.9351V0Z" fill="white"/>
</mask>
<g mask="url(#mask0)">
<path fill-rule="evenodd" clip-rule="evenodd" d="M4.47907 3.08015H13.5363C14.3091 3.08015 14.9351 2.45429 14.9351 1.68178V1.39913C14.9351 0.626625 14.3091 -0.000305176 13.5363 -0.000305176H1.41676C0.644011 -0.000305176 0.0179443 0.626625 0.0179443 1.39913V13.5499C0.0179443 14.3224 0.644011 14.9483 1.41676 14.9483H1.68037C2.45312 14.9483 3.08025 14.3224 3.08025 13.5499V4.47853C3.08025 3.70602 3.70632 3.08015 4.47907 3.08015Z" fill="#00A79D"/>
</g>
<mask id="mask1" style="mask-type:alpha" maskUnits="userSpaceOnUse" x="0" y="17" width="15" height="15">
<path d="M0 17.0874V31.9998H14.9529V17.0874H0H0Z" fill="white"/>
</mask>
<g mask="url(#mask1)">
<path fill-rule="evenodd" clip-rule="evenodd" d="M3.08107 27.5401V18.4857C3.08107 17.7132 2.45501 17.0874 1.68226 17.0874H1.39952C0.626764 17.0874 -0.000366211 17.7132 -0.000366211 18.4857V30.6014C-0.000366211 31.3739 0.626764 31.9998 1.39952 31.9998H13.5541C14.3269 31.9998 14.953 31.3739 14.953 30.6014V30.3379C14.953 29.5654 14.3269 28.9385 13.5541 28.9385H4.47989C3.70714 28.9385 3.08107 28.3126 3.08107 27.5401Z" fill="#262261"/>
</g>
<path fill-rule="evenodd" clip-rule="evenodd" d="M19.0827 20.0357H18.4747C17.702 20.0357 17.0759 20.6616 17.0759 21.4341V21.4352C17.0759 22.2077 17.702 22.8335 18.4747 22.8335H21.4488C22.2216 22.8335 22.8477 22.2077 22.8477 21.4352V18.4482C22.8477 17.6757 22.2216 17.0488 21.4488 17.0488C20.6761 17.0488 20.05 17.6757 20.05 18.4482V18.7776C20.05 19.7499 20.033 20.0357 19.0827 20.0357Z" fill="#F05A28"/>
<path fill-rule="evenodd" clip-rule="evenodd" d="M22.9434 24.3493H18.4823C17.7096 24.3493 17.0835 24.9752 17.0835 25.7477V26.0304C17.0835 26.8029 17.7096 27.4298 18.4823 27.4298H26.0057C26.7785 27.4298 27.4046 26.8029 27.4046 26.0304V18.4349C27.4046 17.6624 26.7785 17.0366 26.0057 17.0366H25.7421C24.9694 17.0366 24.3423 17.6624 24.3423 18.4349V22.951C24.3423 23.7235 23.7162 24.3493 22.9434 24.3493Z" fill="#F05A28"/>
<mask id="mask2" style="mask-type:alpha" maskUnits="userSpaceOnUse" x="17" y="17" width="15" height="15">
<path d="M17.0646 32H31.9818V17.0518H17.0646V32Z" fill="white"/>
</mask>
<g mask="url(#mask2)">
<path fill-rule="evenodd" clip-rule="evenodd" d="M27.5206 28.92H18.4634C17.6906 28.92 17.0646 29.5458 17.0646 30.3183V30.601C17.0646 31.3735 17.6906 32.0004 18.4634 32.0004H30.5829C31.3557 32.0004 31.9818 31.3735 31.9818 30.601V18.4502C31.9818 17.6777 31.3557 17.0518 30.5829 17.0518H30.3193C29.5466 17.0518 28.9195 17.6777 28.9195 18.4502V27.5216C28.9195 28.2941 28.2934 28.92 27.5206 28.92Z" fill="#F05A28"/>
</g>
<path fill-rule="evenodd" clip-rule="evenodd" d="M28.9185 4.45992V13.5143C28.9185 14.2868 29.5446 14.9127 30.3173 14.9127H30.6001C31.3728 14.9127 32 14.2868 32 13.5143V1.39859C32 0.626081 31.3728 0.000213623 30.6001 0.000213623H18.4454C17.6727 0.000213623 17.0466 0.626081 17.0466 1.39859V1.66211C17.0466 2.43462 17.6727 3.06155 18.4454 3.06155H27.5197C28.2925 3.06155 28.9185 3.68741 28.9185 4.45992Z" fill="#262261"/>
</svg>
