<svg width="32" height="32" viewBox="0 0 32 32" fill="none" xmlns="http://www.w3.org/2000/svg">
<path d="M21.4914 4.98287V6.59429C21.4914 6.78287 21.3371 6.93715 21.1485 6.93715H18.6171C18.4285 6.93715 18.2742 6.78287 18.2742 6.59429V5.04001C15.6285 5.45715 13.2057 6.77144 11.4057 8.76001H11.4171C11.6342 8.76001 11.8114 8.93715 11.8114 9.15429V11.5372C11.8114 11.6743 11.8457 12.1086 12.0971 12.3314C12.3371 12.5429 12.6742 12.5714 12.8057 12.5714H16.04C16.3085 12.5714 16.5257 12.7886 16.5257 13.0514V16.64C16.5257 16.9086 16.3085 17.12 16.0457 17.12H12.4628C12.1942 17.12 11.9828 16.9029 11.9828 16.64V13.32C11.9771 12.8857 11.64 12.5314 11.2057 12.5086C11.1542 12.4972 11.1028 12.4914 11.0457 12.4914H9.13139C8.63424 13.8114 8.38282 15.2057 8.38282 16.6114C8.38282 23.08 13.6285 28.3314 20.1028 28.3314C26.5771 28.3314 31.8171 23.0857 31.8171 16.6172C31.8171 10.6172 27.3085 5.66858 21.4914 4.98287ZM16.5028 10.1257H14.8285C14.7028 10.1257 14.6 10.0229 14.6 9.89715V8.22287C14.6 8.09715 14.7028 7.99429 14.8285 7.99429H16.5028C16.6285 7.99429 16.7314 8.09715 16.7314 8.22287V9.89715C16.7257 10.0229 16.6228 10.12 16.5028 10.1257ZM13.2057 20.8572C13.2057 20.9829 13.1028 21.0857 12.9771 21.0857H11.3028C11.1771 21.0857 11.0742 20.9829 11.0742 20.8572V19.1772C11.0742 19.0514 11.1771 18.9486 11.3028 18.9486H12.9771C13.1028 18.9486 13.2057 19.0514 13.2057 19.1772V20.8572ZM17.9714 25.0229C17.9714 25.2114 17.8171 25.3657 17.6285 25.3657H15.0971C14.9085 25.3657 14.7542 25.2114 14.7542 25.0229V22.4857C14.7542 22.2972 14.9085 22.1429 15.0971 22.1429H17.6342C17.8228 22.1429 17.9771 22.2972 17.9771 22.4857L17.9714 25.0229ZM23.04 8.22287C23.04 8.09715 23.1428 7.99429 23.2685 7.99429H24.9428C25.0685 7.99429 25.1714 8.09715 25.1714 8.22287V9.89715C25.1714 10.0229 25.0685 10.1257 24.9428 10.1257H23.2685C23.1428 10.1257 23.04 10.0229 23.04 9.89715V8.22287ZM21.6457 20.8572C21.6457 20.9829 21.5428 21.08 21.4171 21.0857H19.7428C19.6171 21.0857 19.52 20.9829 19.52 20.8572V19.1772C19.52 19.0514 19.6228 18.9543 19.7485 18.9486H21.4228C21.5485 18.9486 21.6457 19.0514 21.6514 19.1772L21.6457 20.8572ZM26.0742 16.8229C26.0742 16.9943 25.9371 17.1314 25.7657 17.1314H23.48C23.3085 17.1314 23.1714 16.9943 23.1714 16.8229V15.7029C23.1657 14.3029 22.0685 13.1543 20.6685 13.0857H20.1085C19.9828 13.0857 19.8857 12.9829 19.88 12.8629V11.1886C19.88 11.0629 19.9828 10.96 20.1085 10.96H21.7828C21.9085 10.96 22.0114 11.0629 22.0114 11.1886V11.6057C22.0171 13.0457 23.1885 14.2172 24.6285 14.2229H25.7657C25.9371 14.2229 26.0742 14.36 26.0742 14.5314V16.8229ZM11.04 6.93715H8.50282C8.31424 6.93715 8.15996 6.78287 8.15996 6.59429V4.05715C8.15996 3.86858 8.31424 3.71429 8.50282 3.71429H11.04C11.2285 3.71429 11.3828 3.86858 11.3828 4.05715V6.58858C11.3828 6.77715 11.2285 6.93144 11.04 6.93715ZM6.14853 21.08H4.47424C4.34853 21.08 4.24567 20.9772 4.24567 20.8514V19.1772C4.24567 19.0514 4.34853 18.9486 4.47424 18.9486H6.14853C6.27424 18.9486 6.3771 19.0514 6.3771 19.1772V20.8572C6.3771 20.9829 6.27424 21.08 6.14853 21.08ZM6.14853 10.1257H4.47424C4.34853 10.1257 4.24567 10.0229 4.24567 9.89715V8.22287C4.24567 8.09715 4.34853 7.99429 4.47424 7.99429H6.14853C6.27424 7.99429 6.3771 8.09715 6.3771 8.22287V9.89715C6.3771 10.0229 6.27424 10.1257 6.14853 10.1257ZM6.0571 14.2229H4.91996C3.47424 14.2172 2.30853 13.0514 2.30282 11.6057V11.1886C2.30282 11.0629 2.19996 10.96 2.07424 10.96H0.399958C0.274244 10.96 0.171387 11.0629 0.171387 11.1886V12.8629C0.171387 12.9886 0.274244 13.0857 0.399958 13.0857H0.959958C2.35424 13.1543 3.45139 14.3029 3.4571 15.7029V15.8V16.8172C3.4571 16.9886 3.59424 17.1257 3.76567 17.1257H6.05139C6.22282 17.1257 6.35996 16.9886 6.35996 16.8172V14.5314C6.35996 14.3657 6.22853 14.2229 6.0571 14.2229Z" fill="#006CB1"/>
</svg>
