<svg width="32" height="32" viewBox="0 0 32 32" fill="none" xmlns="http://www.w3.org/2000/svg">
<path d="M31.7091 27.4909C31.7091 28.5382 30.8655 29.3818 29.8473 29.3818H2.15274C1.13456 29.3818 0.290924 28.5382 0.290924 27.4909V4.5091C0.290924 3.46183 1.13456 2.61819 2.15274 2.61819H29.8473C30.8655 2.61819 31.7091 3.46183 31.7091 4.5091V27.4909Z" fill="#FF6633"/>
<path d="M31.7091 27.4909C31.7091 28.5382 30.8655 29.3818 29.8473 29.3818H2.15274C1.13456 29.3818 0.290924 28.5382 0.290924 27.4909V4.5091C0.290924 3.46183 1.13456 2.61819 2.15274 2.61819H29.8473C30.8655 2.61819 31.7091 3.46183 31.7091 4.5091V27.4909Z" fill="url(#paint0_linear_3728_22)"/>
<path d="M5.76001 25.5418C4.71274 25.5418 3.89819 24.6982 3.89819 23.6509V8.55271C3.89819 7.50544 4.74183 6.6618 5.76001 6.6618C6.7782 6.6618 7.62183 7.50544 7.62183 8.55271V23.6509C7.65092 24.6982 6.80729 25.5418 5.76001 25.5418Z" fill="#F5F5F5"/>
<path d="M22.4 15.8836L27.8691 9.6C28.5382 8.81455 28.48 7.62182 27.6946 6.92364C26.9091 6.22546 25.7455 6.31273 25.0473 7.09819L19.8982 13.0327L14.7491 7.09819C14.08 6.31273 12.8873 6.22546 12.1018 6.92364C11.3164 7.62182 11.2582 8.81455 11.9273 9.6L17.3964 15.9127L11.9273 22.1964C11.2582 22.9818 11.3164 24.1745 12.1018 24.8727C12.4509 25.1927 12.8873 25.3382 13.3236 25.3382C13.8473 25.3382 14.3709 25.1346 14.7491 24.6982L19.8982 18.7636L25.0473 24.6982C25.4255 25.1346 25.9491 25.3382 26.4727 25.3382C26.9091 25.3382 27.3455 25.1927 27.6946 24.8727C28.48 24.1745 28.5382 22.9818 27.8691 22.1964L22.4 15.8836Z" fill="#F5F5F5"/>
<defs>
<linearGradient id="paint0_linear_3728_22" x1="16" y1="29.3818" x2="16" y2="2.61819" gradientUnits="userSpaceOnUse">
<stop stop-color="#D84A2E"/>
<stop offset="1" stop-color="#FF6633"/>
</linearGradient>
</defs>
</svg>
