<svg width="30" height="31" viewBox="0 0 30 31" fill="none" xmlns="http://www.w3.org/2000/svg">
<path fill-rule="evenodd" clip-rule="evenodd" d="M15.3 18.5C17.3 18.5 19 19.3 20.1 20.7C20.4781 19.8923 20.6464 19.0022 20.589 18.1122C20.5317 17.2222 20.2508 16.361 19.7722 15.6085C19.2935 14.856 18.6328 14.2364 17.851 13.8071C17.0693 13.3778 16.1918 13.1528 15.3 13.1528C14.4082 13.1528 13.5307 13.3778 12.749 13.8071C11.9672 14.2364 11.3065 14.856 10.8279 15.6085C10.3492 16.361 10.0683 17.2222 10.011 18.1122C9.95365 19.0022 10.1219 19.8923 10.5 20.7C11.0975 20.0129 11.8348 19.4613 12.6625 19.0819C13.4903 18.7025 14.3895 18.5041 15.3 18.5V18.5Z" fill="#A9B4BD"/>
<path fill-rule="evenodd" clip-rule="evenodd" d="M20.6 24.8C20.6 23.3944 20.0416 22.0463 19.0477 21.0523C18.0537 20.0584 16.7056 19.5 15.3 19.5C13.8944 19.5 12.5463 20.0584 11.5523 21.0523C10.5584 22.0463 10 23.3944 10 24.8C10 26.2056 10.5584 27.5537 11.5523 28.5477C12.5463 29.5416 13.8944 30.1 15.3 30.1C16.7056 30.1 18.0537 29.5416 19.0477 28.5477C20.0416 27.5537 20.6 26.2056 20.6 24.8V24.8Z" fill="#4B5E6A"/>
<path fill-rule="evenodd" clip-rule="evenodd" d="M20.6 5.8C20.6 4.39435 20.0416 3.04628 19.0477 2.05233C18.0537 1.05839 16.7056 0.5 15.3 0.5C13.8944 0.5 12.5463 1.05839 11.5523 2.05233C10.5584 3.04628 10 4.39435 10 5.8C10 8.8 12.4 11.1 15.3 11.1C18.3 11.1 20.6 8.8 20.6 5.8Z" fill="#E40046"/>
</svg>
