<svg xmlns="http://www.w3.org/2000/svg" width="32" height="32" viewBox="0 0 178.3 163.6">
  <path d="M24.1 24V4.3H0V24zM0 37.8v87.9h24.1v-88zm43.9 0v87.9H68v-51A24.8 24.8 0 0169.9 64a16.9 16.9 0 014.5-6.1 15 15 0 015.4-2.9 18 18 0 014.5-.8q5.8 0 8.8 2a10.8 10.8 0 014.2 5.2 21.7 21.7 0 011.5 7l.1 7.8v49.3h24.2v-49a54.7 54.7 0 01.6-8 20.4 20.4 0 012.4-7.2 14.2 14.2 0 014.9-5.1 15.4 15.4 0 018.2-2 16.3 16.3 0 018.1 1.7 11.3 11.3 0 014.5 4.6 17.7 17.7 0 011.9 6.8q.3 4 .3 8.4v49.8h24.2V66.7a39.6 39.6 0 00-2.4-14.5 25 25 0 00-6.7-9.8A26 26 0 00159 37a46.9 46.9 0 00-12.9-1.7 28.2 28.2 0 00-15.9 4.4A37.4 37.4 0 00119.5 50Q116 41.8 109 38.5a35.4 35.4 0 00-15.2-3.2A31 31 0 0078.5 39 34.4 34.4 0 0067 49.6h-.4v-12z" fill="#295ae6"/>
  <path d="M154.3 139.6v24h24v-24zM.3 0v24h24V0z"/>
</svg>
