<svg width="32" height="32" viewBox="0 0 32 32" fill="none" xmlns="http://www.w3.org/2000/svg">
<path fill-rule="evenodd" clip-rule="evenodd" d="M28.6705 22.8436L23.9578 18.1202C23.9578 18.1202 15.9704 24.7336 8.05478 18.1202L3.31974 22.8436C3.31974 22.8436 7.98593 27.0686 12.6288 27.7745V32H19.1791V27.7736C22.5612 27.0789 25.7008 25.5064 28.2827 23.2141L28.6705 22.8436Z" fill="white"/>
<path d="M11.6268 10.1565C11.6268 12.5847 13.5952 14.5531 16.0233 14.5531C18.4515 14.5531 20.4199 12.5847 20.4199 10.1565C20.4199 7.72841 18.4515 5.76001 16.0233 5.76001C13.5952 5.76001 11.6268 7.72841 11.6268 10.1565Z" fill="white"/>
<path fill-rule="evenodd" clip-rule="evenodd" d="M24.2424 0C28.5268 0 32 3.47319 32 7.75758V24.2424C32 28.5268 28.5268 32 24.2424 32H19.1791L19.1792 27.7736C22.5612 27.0789 25.7008 25.5064 28.2827 23.2141L28.6705 22.8436L23.9578 18.1202C23.9578 18.1202 15.9704 24.7336 8.05479 18.1202L3.31976 22.8436C3.31976 22.8436 7.98594 27.0686 12.6288 27.7745L12.6288 32H7.75758C3.47319 32 0 28.5268 0 24.2424V7.75758C0 3.47319 3.47319 0 7.75758 0H24.2424ZM16.0233 5.76C13.5951 5.76 11.6267 7.72843 11.6267 10.1566C11.6267 12.5848 13.5951 14.5532 16.0233 14.5532C18.4515 14.5532 20.4199 12.5848 20.4199 10.1566C20.4199 7.72843 18.4515 5.76 16.0233 5.76V5.76Z" fill="#4C65FF"/>
</svg>
