<svg width="32" height="32" viewBox="0 0 32 32" fill="none" xmlns="http://www.w3.org/2000/svg">
<path d="M6.68096 18.6605V21.3268L9.34507 18.6605H30.6657V10.6667H5.34844L1.35107 18.6605H6.68096Z" fill="#665A81"/>
<path d="M9.35137 15.9941H9.79588V13.3202H9.3514L9.35137 15.9941ZM9.85668 12.7368C9.85668 12.898 9.71826 13.0145 9.5684 13.0145C9.42397 13.0145 9.2959 12.898 9.2959 12.7368C9.2959 12.5647 9.42397 12.4534 9.5684 12.4534C9.71826 12.4534 9.85668 12.5647 9.85668 12.7368ZM10.751 14.1707V15.9941H10.3007V13.3146H10.6557L10.7172 13.5875C10.8171 13.3537 11.0331 13.2984 11.1832 13.287C11.6661 13.2593 12.0661 13.7099 12.0661 14.1707V15.9941H11.616V14.1707C11.616 13.9373 11.4169 13.7372 11.1779 13.7372C10.9447 13.7372 10.751 13.9373 10.751 14.1707H10.751ZM12.9792 15.9981H12.5352V13.0908C12.5352 12.5739 13.029 12.196 13.5898 12.196V12.6407C13.2628 12.6407 12.9792 12.8464 12.9792 13.0908V13.9135H13.529V14.3581H12.9792V15.9981ZM15.3471 14.1693C15.3471 13.8858 15.1196 13.7357 14.8921 13.7357C14.67 13.7357 14.4369 13.8858 14.4369 14.1693V15.1415C14.4369 15.4254 14.67 15.5699 14.8921 15.5699C15.1196 15.5699 15.3471 15.4254 15.3471 15.1415L15.3471 14.1693ZM15.7967 15.1415C15.7967 15.7366 15.3417 16.0258 14.8921 16.0258C14.4369 16.0258 13.9928 15.7366 13.9928 15.1415V14.1693C13.9928 13.5691 14.4425 13.2911 14.8921 13.2911C15.3471 13.2911 15.7967 13.5691 15.7967 14.1693V15.1415ZM16.7183 15.1866C16.7021 15.4476 16.9408 15.564 17.1734 15.564C17.3844 15.564 17.5954 15.4196 17.5954 15.1921V14.1026C17.5954 13.9024 17.3623 13.7472 17.1624 13.7413C16.9347 13.7413 16.7183 13.8969 16.7183 14.1191V15.1866ZM17.151 17.0926C16.9577 17.0926 16.663 16.9872 16.4466 16.7922L16.7021 16.4369C16.8626 16.5699 17.046 16.637 17.151 16.637C17.3953 16.637 17.5954 16.4479 17.5954 16.2144V15.7422C17.5182 15.959 17.296 16.0146 17.1624 16.0146C16.6963 16.0146 16.2688 15.7086 16.2688 15.1866V14.1191C16.2688 13.6745 16.7021 13.2519 17.1623 13.2911C17.3401 13.3077 17.5623 13.3747 17.6346 13.6306L17.6785 13.3187H18.0449V16.2144C18.0449 16.7204 17.6286 17.0926 17.151 17.0926ZM18.541 16.0011V13.3387H18.9128L18.9629 13.6111C19.1184 13.2161 19.5457 13.2106 19.8455 13.45L19.6901 13.8555C19.4289 13.6718 19.0295 13.717 18.9854 14.0831V16.0011H18.541ZM20.8844 15.5787C21.095 15.5787 21.3171 15.4065 21.3171 15.2067V14.9345C21.3171 14.712 21.1235 14.5564 20.8844 14.5564C20.6513 14.5564 20.4566 14.7458 20.4566 14.9844V15.1396C20.4566 15.3793 20.6513 15.5787 20.8844 15.5787ZM20.0073 15.1396V14.9844C20.0073 14.5177 20.3626 14.1171 20.8731 14.1171C21.0512 14.1171 21.2673 14.2341 21.3285 14.4122L21.3171 14.1785C21.3171 13.9451 21.1235 13.7504 20.8844 13.7504C20.7735 13.7504 20.6127 13.8172 20.462 13.9616L20.2186 13.5896C20.4072 13.4171 20.6677 13.295 20.8844 13.295C21.3563 13.295 21.7666 13.6892 21.7666 14.1785V15.9962H21.4066L21.3615 15.7119C21.3061 15.9464 21.0228 16.0292 20.8844 16.0292C20.4072 16.0292 20.0073 15.6181 20.0073 15.1396ZM22.7028 15.9961H22.2592V13.3224H22.6081L22.6641 13.5838C22.7753 13.3671 22.9805 13.295 23.1414 13.289C23.3636 13.2836 23.6573 13.389 23.7956 13.7338C23.9294 13.389 24.2011 13.289 24.4571 13.289C24.9342 13.289 25.3228 13.6783 25.3228 14.1728V15.9961H24.8783V14.1728C24.8845 13.5671 24.0126 13.5948 24.0126 14.1728V15.9961H23.5686V14.1728C23.5686 13.9394 23.3744 13.7393 23.13 13.7393C22.8914 13.7393 22.7028 13.9394 22.7028 14.1728V15.9961Z" fill="#FEFEFE"/>
</svg>
