<svg width="32" height="32" viewBox="0 0 32 32" fill="none" xmlns="http://www.w3.org/2000/svg">
<path d="M24.2446 0.914291H19.5893C19.3629 0.914291 19.1798 1.09804 19.1798 1.32535V5.99804C19.1798 6.22535 19.3629 6.40909 19.5893 6.40909H24.2446C24.4711 6.40909 24.6541 6.22535 24.6541 5.99804V1.32535C24.6541 1.09804 24.4711 0.914291 24.2446 0.914291ZM24.2283 11.9053H19.6056C19.3697 11.9053 19.1785 12.0972 19.1785 12.334V26.0145C19.1785 26.2513 18.9873 26.4433 18.7514 26.4433H14.13C13.8941 26.4433 13.7029 26.6353 13.7029 26.8721V31.508C13.7029 31.7448 13.8941 31.9367 14.13 31.9367H24.2269C24.4629 31.9367 24.6541 31.7448 24.6541 31.508V12.334C24.6541 12.0972 24.4629 11.9053 24.2283 11.9053ZM13.7042 12.334C13.7042 12.0972 13.8954 11.9053 14.1314 11.9053H18.7527C18.9886 11.9053 19.1798 11.7134 19.1798 11.4765V6.83785C19.1798 6.60101 18.9886 6.40909 18.7527 6.40909H8.65573C8.41978 6.41046 8.22858 6.60237 8.22858 6.83785V26.0104C8.22858 26.2473 8.41978 26.4392 8.65573 26.4392H13.2771C13.513 26.4392 13.7042 26.2473 13.7042 26.0104V12.334Z" fill="#0057FF"/>
</svg>
