<svg width="32" height="32" viewBox="0 0 32 32" fill="none" xmlns="http://www.w3.org/2000/svg">
<path fill-rule="evenodd" clip-rule="evenodd" d="M7.52856 14.8964C7.09816 13.6053 6.94962 12.2368 7.09291 10.8833C7.2341 9.52974 7.66411 8.22216 8.3539 7.04897C10.8245 2.84652 16.1364 1.03618 21.129 2.33237L22.5794 4.51885L20.2577 6.34809C15.487 5.07355 10.562 6.88929 8.50814 10.3719C7.71224 11.7389 7.36939 13.3227 7.52856 14.8964Z" fill="#F35C22"/>
<path d="M8.95737 25.0221L12.4075 23.0035C13.1382 24.8977 14.5723 26.1316 17.1106 26.1316C19.546 26.1316 20.3848 25.1087 20.3848 23.9668C20.3848 22.446 19.0102 21.8616 15.9713 20.9902C12.8459 20.0837 9.80434 18.7685 9.80434 14.8827C9.80434 10.9969 13.0191 8.80499 16.5261 8.80499C19.8869 8.80499 22.4603 10.5287 23.8323 13.4052L20.4443 15.3644C19.7137 13.8138 18.6016 12.7341 16.5261 12.7341C14.8321 12.7341 13.839 13.6109 13.839 14.7799C13.839 16.0355 14.6264 16.7093 17.7249 17.6429C20.9721 18.6657 24.4195 19.7482 24.4195 23.9262C24.4195 27.7553 21.3482 30.0932 16.9942 30.0932C12.8161 30.077 10.0695 28.0664 8.95737 25.0221Z" fill="#2B2D33"/>
</svg>
