<svg width="32" height="32" viewBox="0 0 32 32" fill="none" xmlns="http://www.w3.org/2000/svg">
<path d="M17.5721 31.5694C16.7517 31.5694 15.9258 31.5056 15.0996 31.3763C10.9337 30.7246 7.2707 28.4898 4.78581 25.0837C2.30058 21.6772 1.29085 17.5069 1.94217 13.3411C2.59349 9.17523 4.82834 5.51221 8.23482 3.02732C15.2666 -2.10297 25.1612 -0.555104 30.2915 6.47666L28.8033 7.56185C24.2715 1.35049 15.5321 -0.0162823 9.32035 4.51516C6.31139 6.71023 4.33754 9.9459 3.76202 13.6254C3.1865 17.3052 4.07859 20.9888 6.27366 23.9978C8.46873 27.0067 11.7044 28.9806 15.3839 29.5561C19.0641 30.1313 22.7473 29.2395 25.7563 27.0445L26.8418 28.5327C24.111 30.525 20.889 31.5694 17.5721 31.5694Z" fill="black"/>
<path d="M23.0738 25.5829L29.9873 25.5815L26.7629 31.9699L23.0738 25.5829Z" fill="black"/>
<path d="M10.5295 6.61963H13.4589V22.7428H10.5295V6.61963V6.61963Z" fill="black"/>
<path d="M15.6385 11.1613H18.4091V12.501C18.4091 12.9325 18.3638 13.2957 18.3638 13.2957H18.4091C18.9088 12.3192 20.1802 10.8887 22.5193 10.8887C25.0855 10.8887 26.5387 12.2283 26.5387 15.2942V22.7427H23.6776V15.8848C23.6776 14.4769 23.3144 13.5231 21.8382 13.5231C20.2941 13.5231 19.1585 14.4996 18.727 15.8848C18.5682 16.3616 18.5226 16.8839 18.5226 17.4289V22.7427H15.6385V11.1613Z" fill="black"/>
</svg>
