<svg width="32" height="32" viewBox="0 0 32 32" fill="none" xmlns="http://www.w3.org/2000/svg">
<path fill-rule="evenodd" clip-rule="evenodd" d="M16.3721 13.3954C18.0161 13.3954 19.3488 14.7281 19.3488 16.372C19.3488 18.016 18.0161 19.3488 16.3721 19.3488C14.7279 19.3488 13.3953 18.016 13.3953 16.372C13.3953 14.7281 14.7279 13.3954 16.3721 13.3954Z" fill="#131313"/>
<path fill-rule="evenodd" clip-rule="evenodd" d="M16.3721 11.9073C13.91 11.9073 11.907 13.9107 11.907 16.3727C11.907 18.8344 13.9097 20.8374 16.3721 20.8374C18.8337 20.8374 20.8372 18.8344 20.8372 16.3727C20.8372 13.9104 18.8337 11.9073 16.3721 11.9073ZM16.3722 21.5815C13.5 21.5815 11.1628 19.2447 11.1628 16.3725C11.1628 13.4998 13.4997 11.163 16.3722 11.163C19.2445 11.163 21.5814 13.4998 21.5814 16.3725C21.5814 19.2447 19.2445 21.5815 16.3719 21.5815H16.3722Z" fill="#676767"/>
<path fill-rule="evenodd" clip-rule="evenodd" d="M16 5.20948C17.0276 5.20948 17.8605 6.04236 17.8605 7.06994C17.8605 8.09751 17.0276 8.9304 16 8.9304C14.9724 8.9304 14.1395 8.09751 14.1395 7.06994C14.1395 6.04236 14.9724 5.20948 16 5.20948Z" fill="#00933F"/>
<path fill-rule="evenodd" clip-rule="evenodd" d="M16 0C17.0276 0 17.8605 0.832886 17.8605 1.86045C17.8605 2.88801 17.0276 3.7209 16 3.7209C14.9724 3.7209 14.1395 2.88801 14.1395 1.86045C14.1395 0.832886 14.9724 0 16 0Z" fill="#D7E100"/>
<path fill-rule="evenodd" clip-rule="evenodd" d="M16 23.0694C17.0276 23.0694 17.8605 23.9024 17.8605 24.9297C17.8605 25.9572 17.0276 26.7903 16 26.7903C14.9724 26.7903 14.1395 25.9572 14.1395 24.9297C14.1395 23.9024 14.9724 23.0694 16 23.0694Z" fill="#FF3684"/>
<path fill-rule="evenodd" clip-rule="evenodd" d="M11.5349 7.44165C12.1516 7.44165 12.6512 7.9413 12.6512 8.55793C12.6512 9.17434 12.1516 9.67421 11.5349 9.67421C10.9185 9.67421 10.4186 9.17434 10.4186 8.55793C10.4186 7.9413 10.9185 7.44165 11.5349 7.44165Z" fill="#00B73E"/>
<path fill-rule="evenodd" clip-rule="evenodd" d="M21.2093 23.0694C21.8257 23.0694 22.3256 23.569 22.3256 24.1855C22.3256 24.8022 21.8257 25.302 21.2093 25.302C20.5929 25.302 20.093 24.8022 20.093 24.1855C20.093 23.569 20.5929 23.0694 21.2093 23.0694Z" fill="#FF7CAD"/>
<path fill-rule="evenodd" clip-rule="evenodd" d="M24.186 9.67406C25.2135 9.67406 26.0465 10.507 26.0465 11.5345C26.0465 12.5619 25.2135 13.3949 24.186 13.3949C23.1585 13.3949 22.3256 12.5619 22.3256 11.5345C22.3256 10.507 23.1585 9.67406 24.186 9.67406Z" fill="#00ACE5"/>
<path fill-rule="evenodd" clip-rule="evenodd" d="M8.55814 18.6048C9.58571 18.6048 10.4186 19.4377 10.4186 20.4651C10.4186 21.4928 9.58571 22.3257 8.55814 22.3257C7.53057 22.3257 6.69768 21.4928 6.69768 20.4651C6.69768 19.4377 7.53057 18.6048 8.55814 18.6048Z" fill="#FF1E7D"/>
<path fill-rule="evenodd" clip-rule="evenodd" d="M25.6744 15.6275C26.2908 15.6275 26.7907 16.1271 26.7907 16.7438C26.7907 17.3602 26.2908 17.8601 25.6744 17.8601C25.058 17.8601 24.5581 17.3602 24.5581 16.7438C24.5581 16.1271 25.058 15.6275 25.6744 15.6275Z" fill="#B81961"/>
<path fill-rule="evenodd" clip-rule="evenodd" d="M7.06977 15.6275C7.68618 15.6275 8.18605 16.1271 8.18605 16.7438C8.18605 17.3602 7.68618 17.8601 7.06977 17.8601C6.45335 17.8601 5.95349 17.3602 5.95349 16.7438C5.95349 16.1271 6.45335 15.6275 7.06977 15.6275Z" fill="#B81961"/>
<path fill-rule="evenodd" clip-rule="evenodd" d="M21.2093 7.44165C21.8257 7.44165 22.3256 7.9413 22.3256 8.55793C22.3256 9.17434 21.8257 9.67421 21.2093 9.67421C20.5929 9.67421 20.093 9.17434 20.093 8.55793C20.093 7.9413 20.5929 7.44165 21.2093 7.44165Z" fill="#00B73E"/>
<path fill-rule="evenodd" clip-rule="evenodd" d="M11.5349 23.0694C12.1516 23.0694 12.6512 23.569 12.6512 24.1855C12.6512 24.8022 12.1516 25.302 11.5349 25.302C10.9185 25.302 10.4186 24.8022 10.4186 24.1855C10.4186 23.569 10.9185 23.0694 11.5349 23.0694Z" fill="#FF7CAD"/>
<path fill-rule="evenodd" clip-rule="evenodd" d="M24.186 18.6048C25.2136 18.6048 26.0465 19.4377 26.0465 20.4651C26.0465 21.4928 25.2136 22.3257 24.186 22.3257C23.1585 22.3257 22.3256 21.4928 22.3256 20.4651C22.3256 19.4377 23.1585 18.6048 24.186 18.6048Z" fill="#FF1E7D"/>
<path fill-rule="evenodd" clip-rule="evenodd" d="M8.55814 9.67406C9.58571 9.67406 10.4186 10.507 10.4186 11.5345C10.4186 12.5621 9.58571 13.3949 8.55814 13.3949C7.53057 13.3949 6.69768 12.5621 6.69768 11.5345C6.69768 10.507 7.53057 9.67406 8.55814 9.67406Z" fill="#00ACE5"/>
<path fill-rule="evenodd" clip-rule="evenodd" d="M16.4423 28.285C17.6049 28.285 18.5473 29.1168 18.5473 30.1424C18.5473 31.1683 17.6049 32 16.4423 32C15.2796 32 14.3372 31.1683 14.3372 30.1424C14.3372 29.1168 15.2796 28.285 16.4423 28.285Z" fill="#FFD000"/>
<path fill-rule="evenodd" clip-rule="evenodd" d="M3.34884 7.44165C4.37641 7.44165 5.2093 8.27454 5.2093 9.30211C5.2093 10.3297 4.37641 11.1626 3.34884 11.1626C2.32127 11.1626 1.48837 10.3297 1.48837 9.30211C1.48837 8.27454 2.32127 7.44165 3.34884 7.44165Z" fill="#00CEF4"/>
<path fill-rule="evenodd" clip-rule="evenodd" d="M28.6512 21.5812C29.6787 21.5812 30.5116 22.4141 30.5116 23.4414C30.5116 24.4692 29.6787 25.3021 28.6512 25.3021C27.6236 25.3021 26.7907 24.4692 26.7907 23.4414C26.7907 22.4141 27.6236 21.5812 28.6512 21.5812Z" fill="#FF72AB"/>
<path fill-rule="evenodd" clip-rule="evenodd" d="M28.6512 7.44165C29.6787 7.44165 30.5116 8.27454 30.5116 9.30211C30.5116 10.3297 29.6787 11.1626 28.6512 11.1626C27.6236 11.1626 26.7907 10.3297 26.7907 9.30211C26.7907 8.27454 27.6236 7.44165 28.6512 7.44165Z" fill="#00CEF4"/>
<path fill-rule="evenodd" clip-rule="evenodd" d="M3.34884 21.5812C4.37641 21.5812 5.2093 22.4141 5.2093 23.4414C5.2093 24.4692 4.37641 25.3021 3.34884 25.3021C2.32127 25.3021 1.48837 24.4692 1.48837 23.4414C1.48837 22.4141 2.32127 21.5812 3.34884 21.5812Z" fill="#FF72AB"/>
<path fill-rule="evenodd" clip-rule="evenodd" d="M9.30233 1.48819C10.3299 1.48819 11.1628 2.32107 11.1628 3.34865C11.1628 4.37599 10.3299 5.2091 9.30233 5.2091C8.27476 5.2091 7.44186 4.37599 7.44186 3.34865C7.44186 2.32107 8.27476 1.48819 9.30233 1.48819Z" fill="#6DC72E"/>
<path fill-rule="evenodd" clip-rule="evenodd" d="M22.6977 26.7907C23.7252 26.7907 24.5581 27.6236 24.5581 28.6512C24.5581 29.6787 23.7252 30.5116 22.6977 30.5116C21.6701 30.5116 20.8372 29.6787 20.8372 28.6512C20.8372 27.6236 21.6701 26.7907 22.6977 26.7907Z" fill="#FF9500"/>
<path fill-rule="evenodd" clip-rule="evenodd" d="M22.6977 1.48819C23.7252 1.48819 24.5581 2.32107 24.5581 3.34865C24.5581 4.37599 23.7252 5.2091 22.6977 5.2091C21.6701 5.2091 20.8372 4.37599 20.8372 3.34865C20.8372 2.32107 21.6701 1.48819 22.6977 1.48819Z" fill="#6DC72E"/>
<path fill-rule="evenodd" clip-rule="evenodd" d="M9.30233 26.7907C10.3299 26.7907 11.1628 27.6236 11.1628 28.6512C11.1628 29.6787 10.3299 30.5116 9.30233 30.5116C8.27476 30.5116 7.44186 29.6787 7.44186 28.6512C7.44186 27.6236 8.27476 26.7907 9.30233 26.7907Z" fill="#FF9500"/>
<path fill-rule="evenodd" clip-rule="evenodd" d="M30.1395 14.1393C31.1671 14.1393 32 14.9722 32 15.9998C32 17.0274 31.1671 17.8602 30.1395 17.8602C29.112 17.8602 28.2791 17.0274 28.2791 15.9998C28.2791 14.9722 29.112 14.1393 30.1395 14.1393Z" fill="#AB2692"/>
<path fill-rule="evenodd" clip-rule="evenodd" d="M1.86047 14.187C2.88804 14.187 3.72093 15.0199 3.72093 16.0474C3.72093 17.075 2.88804 17.9079 1.86047 17.9079C0.832893 17.9079 0 17.075 0 16.0474C0 15.0199 0.832893 14.187 1.86047 14.187Z" fill="#AB2692"/>
</svg>
