<svg width="32" height="32" viewBox="0 0 32 32" fill="none" xmlns="http://www.w3.org/2000/svg">
<rect width="32" height="32" fill="black"/>
<path d="M6.04695 23.4765C4.47788 25.6053 3.26508 28.7418 4.52188 29.6869C6.29521 31.0202 14.3573 27.3306 20.7989 19.3818C27.2403 11.4333 29.3736 3.23621 26.5091 1.97594C25.1885 1.39407 22.4291 3.24287 20.8453 4.77781L21.5291 5.14527C23.088 4.14741 25.6869 3.11594 23.2837 7.45754L23.2491 7.51994C19.8475 4.93621 15.1189 4.40447 11.1021 6.54501C5.59815 9.47807 3.51415 16.3173 6.44748 21.8207C7.11512 23.0772 8.01481 24.1958 9.09895 25.1173C4.93415 28.3349 5.94935 25.5381 6.53281 24.1621L6.04695 23.4765ZM21.7227 26.4757C25.9173 24.2402 28.1256 19.7357 27.64 15.2826C26.0944 16.5527 24.5696 17.9983 23.1099 19.6021C20.6925 22.2581 18.7237 25.0509 17.2635 27.773C18.8239 27.6553 20.3426 27.2135 21.7227 26.4757V26.4757Z" fill="white"/>
</svg>
