<svg width="32" height="32" viewBox="0 0 32 32" fill="none" xmlns="http://www.w3.org/2000/svg">
<path d="M7.9448 28.6419V3.11731C7.9448 2.84382 7.76254 2.66151 7.58027 2.66151L5.93988 2.38803C5.66649 2.38803 5.3931 2.57034 5.3931 2.84382V28.8243C5.3931 29.1889 5.66649 29.3712 5.93988 29.3712L7.48914 29.1889C7.76254 29.0977 7.9448 28.9154 7.9448 28.6419Z" fill="#0D1A2B"/>
<path d="M3.47926 26.2718V5.39626C3.47926 5.12278 3.297 4.94047 3.02361 4.94047L1.47434 4.75816C1.20095 4.75816 0.927551 4.94047 0.927551 5.21395V26.4541C0.927551 26.7276 1.20095 27.001 1.47434 26.9099L3.02361 26.7276C3.297 26.7276 3.47926 26.5452 3.47926 26.2718Z" fill="#0D1A2B"/>
<path fill-rule="evenodd" clip-rule="evenodd" d="M30.1812 3.29961L10.4054 0.0178823C10.132 -0.0732806 9.85858 0.200199 9.85858 0.473678V31.4679C9.85858 31.7414 10.132 32.0148 10.4054 31.9237L30.1812 28.4596C30.3634 28.4596 30.5457 28.1861 30.5457 28.0038V3.7554C30.5457 3.48192 30.3634 3.29961 30.1812 3.29961ZM28.0851 25.816C28.0851 26.0895 27.9028 26.2718 27.7206 26.2718L13.7773 28.2773C13.5039 28.2773 13.2305 28.095 13.2305 27.8215V4.57586C13.2305 4.30237 13.5039 4.02889 13.7773 4.12006L27.7206 5.8521C27.994 5.8521 28.1763 6.12554 28.1763 6.30789V25.816H28.0851Z" fill="#0D1A2B"/>
</svg>
