<svg width="32" height="32" viewBox="0 0 32 32" fill="none" xmlns="http://www.w3.org/2000/svg">
<path d="M14.1576 0.751278L3.87885 6.69067C2.69097 7.3937 1.93945 8.65431 1.93945 10.0604V21.9392C1.93945 23.321 2.69097 24.6058 3.87885 25.2846L14.1576 31.2482C15.3698 31.9513 16.8243 31.9513 18.0364 31.2482L28.3152 25.3089C29.5031 24.6058 30.2546 23.3452 30.2546 21.9634V10.0604C30.2546 8.67855 29.5031 7.3937 28.3152 6.71492L18.0364 0.751278C16.8243 0.0724905 15.3455 0.0724905 14.1576 0.751278Z" fill="#00B3B3"/>
<path d="M19.2974 19.0293C19.7095 19.0293 20.0489 18.6172 20.0489 18.1323C20.0489 17.6232 19.7095 17.2354 19.2974 17.2354C18.8853 17.2354 18.5459 17.6475 18.5459 18.1323C18.5459 18.6172 18.861 19.0293 19.2974 19.0293Z" fill="white"/>
<path d="M23.9031 10.1811L17.4789 6.47203C16.6304 5.98719 15.588 5.98719 14.7395 6.47203L8.291 10.1811C7.44251 10.666 6.90918 11.5872 6.90918 12.5569V19.9993C6.90918 20.969 7.44251 21.8902 8.291 22.3751L12.6789 24.9205C12.4122 24.4114 12.2668 23.9266 12.3395 23.4175C12.388 23.1023 12.6061 22.5448 13.2365 22.1084C13.3819 22.0114 13.5758 22.0842 13.6243 22.2296C13.6728 22.3751 13.7698 22.4963 13.9395 22.5448C14.4728 22.6417 15.1758 22.7145 16.0971 22.7145C17.0183 22.7145 17.7213 22.666 18.2546 22.5448C18.4243 22.5205 18.5213 22.3993 18.5698 22.2539C18.6183 22.0842 18.8122 22.0114 18.9577 22.1084C19.588 22.5448 19.8062 23.1023 19.8546 23.4175C19.9274 23.9266 19.7577 24.4114 19.5152 24.9205L23.9031 22.3751C24.7516 21.8902 25.2849 20.969 25.2849 19.9993V12.5811C25.2849 11.5872 24.7516 10.6902 23.9031 10.1811ZM10.691 14.8357C10.691 14.6175 10.691 13.5266 10.691 12.3629C10.691 12.0235 10.8365 11.7084 11.0789 11.4902C12.0728 10.6175 13.6728 9.72052 16.0971 9.72052C18.5213 9.72052 20.1213 10.6417 21.1152 11.4902C21.3577 11.7084 21.5031 12.0235 21.5031 12.3387C21.5031 13.5023 21.5031 14.5932 21.5031 14.8114V17.6235C21.5031 19.3205 20.6062 20.169 18.8607 20.169H13.3577C11.588 20.169 10.7152 19.3205 10.7152 17.6235V14.8357H10.691ZM20.0971 21.6478C19.4425 21.769 17.8425 21.7932 16.0971 21.7932C14.3274 21.7932 12.7274 21.769 12.0971 21.6478C10.0607 21.3084 9.33342 18.7387 9.33342 16.7508C9.33342 14.8357 9.5516 13.5266 9.86676 12.969C9.91524 12.872 10.0122 12.7508 10.1334 12.5811C10.1334 13.5993 10.1334 14.666 10.1334 14.8357V17.6478C10.1334 19.6599 11.2728 20.7751 13.3577 20.7751H18.8607C20.9455 20.7751 22.0849 19.6599 22.0849 17.6478V14.8357C22.0849 14.666 22.0849 13.5993 22.0849 12.5811C22.2061 12.7508 22.3031 12.872 22.3516 12.969C22.6668 13.5266 22.8849 14.8357 22.8849 16.7508C22.8607 18.7387 22.1577 21.3084 20.0971 21.6478Z" fill="white"/>
<path d="M12.897 19.0059C13.3121 19.0059 13.6485 18.6043 13.6485 18.1089C13.6485 17.6135 13.3121 17.2119 12.897 17.2119C12.482 17.2119 12.1455 17.6135 12.1455 18.1089C12.1455 18.6043 12.482 19.0059 12.897 19.0059Z" fill="white"/>
</svg>
