<svg width="32" height="32" viewBox="0 0 1024 1024" fill="none" xmlns="http://www.w3.org/2000/svg">
  <rect width="1024" height="1024" fill="white"/>
  <path fill-rule="evenodd" clip-rule="evenodd" d="M113.875 542.625V144.5C113.875 136.378 117.102 128.588 122.845 122.845C128.588 117.102 136.378 113.875 144.5 113.875H389.5C397.622 113.875 405.412 117.102 411.155 122.845C416.898 128.588 420.125 136.378 420.125 144.5V542.625C420.125 550.747 416.898 558.537 411.155 564.28C405.412 570.023 397.622 573.25 389.5 573.25H144.5C136.378 573.25 128.588 570.023 122.845 564.28C117.102 558.537 113.875 550.747 113.875 542.625ZM603.875 848.875V573.25C603.875 557.005 610.328 541.426 621.815 529.94C633.301 518.453 648.88 512 665.125 512H848.875C865.119 512 880.699 518.453 892.185 529.94C903.672 541.426 910.125 557.005 910.125 573.25V848.875C910.125 865.119 903.672 880.699 892.185 892.185C880.699 903.672 865.119 910.125 848.875 910.125H665.125C648.88 910.125 633.301 903.672 621.815 892.185C610.328 880.699 603.875 865.119 603.875 848.875ZM603.875 144.5V297.625C603.875 305.747 607.102 313.537 612.845 319.28C618.588 325.023 626.378 328.25 634.5 328.25H879.5C887.622 328.25 895.412 325.023 901.155 319.28C906.898 313.537 910.125 305.747 910.125 297.625V144.5C910.125 136.378 906.898 128.588 901.155 122.845C895.412 117.102 887.622 113.875 879.5 113.875H634.5C626.378 113.875 618.588 117.102 612.845 122.845C607.102 128.588 603.875 136.378 603.875 144.5ZM113.875 879.5V787.625C113.875 779.503 117.102 771.713 122.845 765.97C128.588 760.227 136.378 757 144.5 757H420.125C428.247 757 436.037 760.227 441.78 765.97C447.523 771.713 450.75 779.503 450.75 787.625V879.5C450.75 887.622 447.523 895.412 441.78 901.155C436.037 906.898 428.247 910.125 420.125 910.125H144.5C136.378 910.125 128.588 906.898 122.845 901.155C117.102 895.412 113.875 887.622 113.875 879.5Z" fill="url(#paint0_radial_1_14)"/>
  <path d="M83.25 144.5V542.625H144.5V144.5H83.25ZM144.5 83.25C128.255 83.25 112.676 89.7031 101.19 101.19C89.7031 112.676 83.25 128.255 83.25 144.5H144.5V83.25ZM389.5 83.25H144.5V144.5H389.5V83.25ZM450.75 144.5C450.75 128.255 444.297 112.676 432.81 101.19C421.324 89.7031 405.745 83.25 389.5 83.25V144.5H450.75ZM450.75 542.625V144.5H389.5V542.625H450.75ZM389.5 603.875C405.745 603.875 421.324 597.422 432.81 585.935C444.297 574.449 450.75 558.87 450.75 542.625H389.5V603.875ZM144.5 603.875H389.5V542.625H144.5V603.875ZM83.25 542.625C83.25 558.87 89.7031 574.449 101.19 585.935C112.676 597.422 128.255 603.875 144.5 603.875V542.625H83.25ZM573.25 573.25V848.875H634.5V573.25H573.25ZM665.125 481.375C640.758 481.375 617.389 491.055 600.16 508.285C582.93 525.514 573.25 548.883 573.25 573.25H634.5C634.5 565.128 637.727 557.338 643.47 551.595C649.213 545.852 657.003 542.625 665.125 542.625V481.375ZM848.875 481.375H665.125V542.625H848.875V481.375ZM940.75 573.25C940.75 548.883 931.07 525.514 913.84 508.285C896.611 491.055 873.242 481.375 848.875 481.375V542.625C856.997 542.625 864.787 545.852 870.53 551.595C876.273 557.338 879.5 565.128 879.5 573.25H940.75ZM940.75 848.875V573.25H879.5V848.875H940.75ZM848.875 940.75C873.242 940.75 896.611 931.07 913.84 913.84C931.07 896.611 940.75 873.242 940.75 848.875H879.5C879.5 856.997 876.273 864.787 870.53 870.53C864.787 876.273 856.997 879.5 848.875 879.5V940.75ZM665.125 940.75H848.875V879.5H665.125V940.75ZM573.25 848.875C573.25 873.242 582.93 896.611 600.16 913.84C617.389 931.07 640.758 940.75 665.125 940.75V879.5C657.003 879.5 649.213 876.273 643.47 870.53C637.727 864.787 634.5 856.997 634.5 848.875H573.25ZM634.5 297.625V144.5H573.25V297.625H634.5ZM634.5 297.625H573.25C573.25 313.87 579.703 329.449 591.19 340.935C602.676 352.422 618.255 358.875 634.5 358.875V297.625ZM879.5 297.625H634.5V358.875H879.5V297.625ZM879.5 297.625V358.875C895.745 358.875 911.324 352.422 922.81 340.935C934.297 329.449 940.75 313.87 940.75 297.625H879.5ZM879.5 144.5V297.625H940.75V144.5H879.5ZM879.5 144.5H940.75C940.75 128.255 934.297 112.676 922.81 101.19C911.324 89.7031 895.745 83.25 879.5 83.25V144.5ZM634.5 144.5H879.5V83.25H634.5V144.5ZM634.5 144.5V83.25C618.255 83.25 602.676 89.7031 591.19 101.19C579.703 112.676 573.25 128.255 573.25 144.5H634.5ZM83.25 787.625V879.5H144.5V787.625H83.25ZM144.5 726.375C128.255 726.375 112.676 732.828 101.19 744.315C89.7031 755.801 83.25 771.38 83.25 787.625H144.5V726.375ZM420.125 726.375H144.5V787.625H420.125V726.375ZM481.375 787.625C481.375 771.38 474.922 755.801 463.435 744.315C451.949 732.828 436.37 726.375 420.125 726.375V787.625H481.375ZM481.375 879.5V787.625H420.125V879.5H481.375ZM420.125 940.75C436.37 940.75 451.949 934.297 463.435 922.81C474.922 911.324 481.375 895.745 481.375 879.5H420.125V940.75ZM144.5 940.75H420.125V879.5H144.5V940.75ZM83.25 879.5C83.25 895.745 89.7031 911.324 101.19 922.81C112.676 934.297 128.255 940.75 144.5 940.75V879.5H83.25Z" fill="url(#paint1_radial_1_14)"/>
  <defs>
    <radialGradient id="paint0_radial_1_14" cx="0" cy="0" r="1" gradientUnits="userSpaceOnUse" gradientTransform="translate(512 213.406) rotate(90) scale(696.719)">
      <stop stop-color="#0EA5E9"/>
      <stop offset="0.527" stop-color="#22D3EE"/>
      <stop offset="1" stop-color="#818CF8"/>
    </radialGradient>
    <radialGradient id="paint1_radial_1_14" cx="0" cy="0" r="1" gradientUnits="userSpaceOnUse" gradientTransform="translate(512 213.406) rotate(90) scale(696.719)">
      <stop stop-color="#0EA5E9"/>
      <stop offset="0.527" stop-color="#22D3EE"/>
      <stop offset="1" stop-color="#818CF8"/>
    </radialGradient>
  </defs>
</svg>
