<svg width="32" height="32" viewBox="0 0 32 32" fill="none" xmlns="http://www.w3.org/2000/svg">
<rect width="32" height="32" fill="#00324A"/>
<path d="M3.32168 19.619H0V24.2177H3.32168V19.619Z" fill="#FF574A"/>
<path d="M28.3709 19.619C28.2944 19.9844 28.1095 20.312 27.8481 20.5829C27.4847 20.9545 27.0002 21.1687 26.4837 21.1939H26.3881C25.9036 21.1939 25.4382 21.0238 25.0684 20.7089C24.7305 20.4254 24.5009 20.0411 24.4053 19.619H21.0772C21.1028 19.9718 21.192 20.3435 21.1984 20.3561C21.7403 22.6995 23.8124 24.3752 26.2415 24.4445C26.2415 24.4445 26.3499 24.4507 26.3945 24.4507C29.1615 24.4507 31.4695 22.3404 31.6926 19.6253H28.3709V19.619Z" fill="#FF574A"/>
<path d="M4.11893 24.2177H7.51711L9.52542 19.619H6.12085L4.11893 24.2177Z" fill="#FF574A"/>
<path d="M19.8857 19.619H16.5321L18.4831 24.2177H21.8812L19.8857 19.619Z" fill="#FF574A"/>
<path d="M2.665 7.75081H0.656684C0.293277 7.75081 0 8.04688 0 8.40595V19.619H3.32168V8.40595C3.32168 8.04688 3.0284 7.75081 2.665 7.75081Z" fill="white"/>
<path d="M30.5456 15.9087C29.8061 14.9952 28.7732 14.3464 27.6384 14.0818C27.6384 14.0818 26.1019 13.7416 25.7512 13.6472C25.1264 13.4708 24.6865 12.8975 24.6865 12.255C24.6865 11.4549 25.3432 10.8061 26.1529 10.8061C26.8478 10.8061 27.4535 11.2911 27.5874 11.9652C27.6256 12.1416 27.7276 12.2991 27.8807 12.3936C28.0337 12.4944 28.2186 12.5321 28.3971 12.4944L30.2779 12.1227C30.4564 12.0849 30.6158 11.9841 30.7114 11.8329C30.8134 11.6817 30.8453 11.499 30.8134 11.3226C30.3735 9.14302 28.4098 7.55556 26.1529 7.55556C23.5325 7.55556 21.3967 9.66588 21.3967 12.255C21.3967 14.3842 22.8376 16.274 24.8969 16.7843C24.8969 16.7843 25.9106 17.0236 26.8669 17.2441C27.3005 17.3449 27.6958 17.5969 27.9763 17.9434C28.2632 18.3024 28.4162 18.7308 28.4162 19.1907C28.4162 19.2915 28.4098 19.3923 28.3907 19.4931C28.3907 19.4931 28.378 19.5812 28.3652 19.6191H31.6869L31.6932 19.5183C31.6996 19.4112 31.706 19.2978 31.706 19.197C31.706 18.0001 31.298 16.8347 30.5456 15.9087Z" fill="white"/>
<path d="M13.4717 7.7697H12.5472C11.7567 7.7697 11.0362 8.23586 10.7238 8.9603L6.12067 19.619H9.5252L12.9999 11.6502L15.1485 16.4882H12.917C12.1775 16.4882 11.8332 16.8284 11.61 17.3449L10.6473 19.6127H19.8919L15.2951 8.9603C14.9827 8.23586 14.2623 7.7697 13.4717 7.7697Z" fill="white"/>
</svg>
