<svg width="32" height="32" viewBox="0 0 32 32" fill="none" xmlns="http://www.w3.org/2000/svg">
<path d="M30.6902 14.0347C29.1847 3.41654 18.1011 -2.69255 8.35416 1.76272C5.86398 2.9089 3.65016 4.48999 2.31343 6.99763C0.858886 9.73363 0.661068 12.5147 2.43707 15.1896C4.64507 18.5133 8.04434 20.1889 11.6749 21.7104V20.8173C11.6749 18.3445 11.6952 15.8718 11.6603 13.3991C11.6516 12.7838 11.7738 12.5598 12.4458 12.5773C14.3832 12.6267 16.3222 12.6238 18.264 12.5773C18.9142 12.5627 19.0698 12.7547 19.0669 13.3889C19.0422 19.2274 19.0509 25.0674 19.0552 30.9074C19.0552 31.1984 18.9912 31.4893 19.1425 31.7991C19.3709 31.7336 19.6022 31.6769 19.8305 31.6027C27.1992 29.2129 31.7927 21.7802 30.6902 14.0347ZM15.3636 11.1344C13.1047 11.1344 11.2269 9.22599 11.2327 6.93654C11.2385 4.64708 13.1207 2.75035 15.3825 2.76345C17.5992 2.77654 19.4829 4.68054 19.4902 6.92054C19.5003 9.19836 17.5992 11.1358 15.3636 11.1344Z" fill="#425A5F"/>
</svg>
