<svg width="32" height="32" viewBox="0 0 32 32" fill="none" xmlns="http://www.w3.org/2000/svg">
<path d="M6.44575 31.7383C5.71385 31.7383 4.98912 31.5941 4.31294 31.314C3.63676 31.0339 3.02238 30.6234 2.50488 30.1058C1.98738 29.5882 1.57689 28.9738 1.29685 28.2976C1.01682 27.6214 0.872726 26.8967 0.872803 26.1648V19.3979H7.24168V25.3674H24.7564V19.3979H31.1253V26.1648C31.1267 27.5113 30.6456 28.8138 29.7693 29.8361C28.893 30.8585 27.6795 31.5331 26.3486 31.7377L6.44575 31.7383ZM7.24197 6.66193V12.6308H0.872803V5.86396C0.872803 4.38592 1.45995 2.96842 2.50508 1.92329C3.55021 0.878164 4.96772 0.291016 6.44575 0.291016H26.3486C27.6788 0.497139 28.8914 1.17219 29.7675 2.19422C30.6435 3.21625 31.1251 4.51788 31.1253 5.86396V12.6308H24.7564V6.65989L7.24197 6.66193Z" fill="#DC2B26"/>
</svg>
