<svg width="32" height="32" viewBox="0 0 32 32" fill="none" xmlns="http://www.w3.org/2000/svg">
<g clip-path="url(#clip0_2558_24)">
<path fill-rule="evenodd" clip-rule="evenodd" d="M24.9485 17.2335C24.9545 18.2412 24.5866 19.2154 23.916 19.9676C23.2454 20.7199 22.3198 21.1968 21.318 21.3062L21.5973 24.6226L16.3609 21.3295H10.0773C9.00521 21.3172 7.98121 20.8827 7.22746 20.1203C6.47372 19.3578 6.05103 18.3289 6.05108 17.2568V11.9797C6.05103 10.9075 6.47372 9.8786 7.22746 9.11613C7.98121 8.35366 9.00521 7.91921 10.0773 7.90694H20.9224C21.9955 7.91764 23.0209 8.3515 23.7759 9.11409C24.5309 9.87674 24.9544 10.9065 24.9544 11.9797V17.2568L24.9485 17.2335ZM20.9224 1.74548H10.0773C7.38705 1.76701 4.8153 2.85476 2.92613 4.77011C1.03696 6.68547 -0.0153256 9.272 0.000168715 11.9622V17.2393C-0.00341541 19.0521 0.474018 20.8333 1.38373 22.4013C2.29343 23.9693 3.60286 25.2678 5.17836 26.1644L0.285272 31.2728L13.5449 27.456H20.9165C23.6067 27.4345 26.1785 26.3467 28.0677 24.4314C29.9569 22.516 31.0091 19.9295 30.9936 17.2393V11.9622C31.0122 9.27206 29.9617 6.68465 28.0731 4.76878C26.1846 2.85292 23.6125 1.76547 20.9224 1.74548Z" fill="#03B388"/>
</g>
<defs>
<clipPath id="clip0_2558_24">
<rect width="32" height="32" fill="white"/>
</clipPath>
</defs>
</svg>
