<svg width="24" height="24" viewBox="0 0 24 24" fill="none" xmlns="http://www.w3.org/2000/svg">
<path fill-rule="evenodd" clip-rule="evenodd" d="M12.0914 0.0888062C18.5017 0.0888062 23.6982 5.28531 23.6982 11.6955C23.6982 18.1057 18.5017 23.3022 12.0914 23.3022C11.7066 23.3022 11.3262 23.283 10.9509 23.2464C10.956 22.847 10.9538 21.7576 10.951 20.7665C10.951 20.7655 10.951 8.99611 10.951 8.99474C11.9201 8.99474 11.798 9.00033 13.1114 9.00033C13.1114 9.00033 13.1197 20.7759 13.1235 20.7755C17.6841 20.2631 21.2291 16.3931 21.2291 11.6955C21.2291 6.64894 17.138 2.55788 12.0914 2.55788C7.04486 2.55788 2.95384 6.64894 2.95384 11.6955C2.95384 15.1117 4.82879 18.0895 7.60547 19.6574L6.13233 21.657C2.74932 19.6289 0.484734 15.9269 0.484734 11.6955C0.484734 5.28531 5.68124 0.0888062 12.0914 0.0888062V0.0888062Z" fill="#DC033F"/>
<path fill-rule="evenodd" clip-rule="evenodd" d="M12.0282 4.85382C12.8627 4.85382 13.5393 5.5304 13.5393 6.36498C13.5393 7.19956 12.8627 7.87615 12.0282 7.87615C11.1936 7.87615 10.517 7.19956 10.517 6.36498C10.517 5.5304 11.1936 4.85382 12.0282 4.85382V4.85382Z" fill="#DC033F"/>
</svg>
