<svg width="32" height="32" viewBox="0 0 32 32" fill="none" xmlns="http://www.w3.org/2000/svg">
<circle cx="16" cy="16" r="16" fill="#0019A2"/>
<path d="M22.3032 9.60001H10.1087C8.8189 9.60001 7.82224 10.6521 7.82224 11.8796V19.3614C7.82224 20.6473 8.87753 21.6409 10.1087 21.6409V25.0311L14.9748 21.6994H22.2445C23.5343 21.6994 24.531 20.6473 24.531 19.4198V11.9381C24.5896 10.6521 23.5344 9.60001 22.3032 9.60001ZM23.593 19.3614C23.593 20.0628 23.0067 20.7057 22.2445 20.7057H14.623L11.0467 23.1607V20.7057H10.0501C9.34654 20.7057 8.70164 20.1212 8.70164 19.3614V11.9381C8.70164 11.2366 9.28792 10.5937 10.0501 10.5937H22.1859C22.8895 10.5937 23.5343 11.1782 23.5343 11.9381C23.593 11.9381 23.593 19.3614 23.593 19.3614Z" fill="white"/>
<path d="M12.2779 13.1071H20.0753V14.1008H12.2779V13.1071Z" fill="white"/>
<path d="M12.2779 15.1529H20.0753V16.1465H12.2779V15.1529Z" fill="white"/>
<path d="M12.2779 17.2571H20.0753V18.2508H12.2779V17.2571Z" fill="white"/>
</svg>
