<svg width="32" height="32" viewBox="0 0 32 32" fill="none" xmlns="http://www.w3.org/2000/svg">
<path d="M29.3226 12.6395C29.3226 12.6395 29.3226 6.2975 29.3226 5.22628C29.3226 5.14164 29.3226 5.00503 29.3226 4.9204V2.08399C29.3226 1.99935 29.258 1.90788 29.1778 1.88183C28.6052 1.69292 26.3684 1.01861 23.1371 0.832896C23.0529 0.827931 22.9844 0.892703 22.9844 0.977338V2.84724C22.9844 2.93188 22.917 2.98892 22.8333 2.97966C21.7821 2.81745 20.6266 2.68018 19.3844 2.58826C19.3002 2.5823 19.2318 2.50892 19.2318 2.42473V0.607682C19.2318 0.523269 19.1637 0.446027 19.0796 0.434993C18.629 0.379048 17.2483 0.220703 15.9513 0.220703C14.8219 0.220703 13.4653 0.401227 13.0175 0.465558C12.9341 0.477255 12.8662 0.556262 12.8662 0.641117L12.8652 2.4287C12.8652 2.51334 12.7971 2.58672 12.7128 2.59301C11.4707 2.68746 10.3172 2.8265 9.26586 2.98716C9.18222 3.00029 9.1148 2.94258 9.1148 2.85805V0.975572C9.1148 0.890938 9.04639 0.826165 8.9623 0.831131C5.72876 1.01695 3.48093 1.69204 2.90669 1.88029C2.82636 1.90655 2.76225 1.9977 2.76225 2.08233V4.45221C2.76225 4.45221 2.76225 12.6398 2.76225 12.6378C2.76225 12.6358 2.46123 19.733 7.28639 25.3219C11.5576 30.2654 15.1319 31.4571 15.8933 31.6557C15.9749 31.6778 16.114 31.6778 16.1912 31.6562C16.9523 31.4496 20.5247 30.2669 24.7939 25.3184C29.6132 19.7331 29.3222 12.6379 29.3222 12.6395H29.3226Z" fill="#DEB410"/>
<path d="M26.9491 5.79054C26.9491 5.70061 26.8792 5.60935 26.7929 5.58695C24.5728 5.00168 20.7706 4.2403 16.1582 4.24317H15.9742C11.341 4.26094 7.5271 5.02408 5.29748 5.59744C5.21108 5.61961 5.14068 5.71076 5.14068 5.80014L5.13913 12.2774C5.1356 12.3438 4.96578 18.8319 9.24396 23.778C12.1489 27.1435 14.6398 28.589 15.9088 29.1722C15.9899 29.2053 16.1184 29.2053 16.2067 29.1722C17.4734 28.5954 19.9582 27.1421 22.8654 23.7776C27.1362 18.8298 26.9674 12.3435 26.9664 12.2884L26.9491 5.79054Z" fill="#FFCD0C"/>
<path d="M15.9087 26.4956C14.7271 25.7945 13.0117 24.5135 11.0368 22.2255C7.52217 18.1571 7.50937 12.7155 7.51235 12.3699L7.51378 12.3442L7.51499 7.67849C7.51499 7.59198 7.58385 7.50724 7.66871 7.48969C9.83113 7.04203 12.6913 6.63574 15.9789 6.62305H16.1538C19.4336 6.62305 22.2779 7.02029 24.4186 7.47347C24.5035 7.49554 24.5731 7.57278 24.5731 7.66294L24.5744 12.3358C24.5758 12.402 24.6517 18.0495 21.0509 22.2227C19.0706 24.5153 17.3573 25.7957 16.182 26.4928C16.1051 26.5416 15.9816 26.5416 15.9044 26.4956H15.9087Z" fill="#DEB410"/>
<path d="M22.1828 9.62085C22.1828 9.53103 22.1114 9.44728 22.0229 9.43348C20.0776 9.1307 18.1028 8.97754 16.1363 8.97754H15.958C13.9581 8.98581 11.9564 9.14361 9.99255 9.45324C9.90405 9.46714 9.83266 9.55111 9.83266 9.64038V12.3787C9.83067 12.4271 9.81335 17.2449 12.7789 20.6877C13.0606 21.0077 13.3306 21.3056 13.5954 21.5883C13.657 21.6545 13.7058 21.6324 13.7073 21.5432C13.7073 20.8607 13.7073 20.1103 13.7073 19.6154C13.7073 18.7777 13.3859 17.7493 11.8083 17.1456C11.7247 17.1135 11.6562 17.0177 11.6562 16.9281V15.4387C11.6562 15.3495 11.7224 15.3072 11.8049 15.3418C12.5715 15.6618 16.1966 16.9749 20.1994 15.3395C20.2823 15.3053 20.3539 15.3505 20.3539 15.4387V16.9281C20.3539 17.0177 20.2856 17.115 20.2037 17.1488C19.7286 17.3573 18.2888 18.1117 18.2888 19.5951C18.2888 20.1027 18.2888 20.8641 18.2888 21.5571C18.2888 21.6453 18.344 21.6674 18.3992 21.6012C18.6687 21.3188 18.946 21.0142 19.2303 20.684C22.2135 17.2346 22.1826 12.3784 22.181 12.2884V9.62085H22.1828ZM16.0131 14.978C14.7327 14.978 13.7106 13.9592 13.7106 12.6889C13.7106 11.4188 14.7327 10.3866 16.0131 10.3866C17.2716 10.3866 18.3082 11.4239 18.3082 12.6928C18.3038 13.9518 17.2724 14.978 16.0145 14.974L16.0131 14.978Z" fill="#FFCD0C"/>
</svg>
