<svg width="32" height="32" viewBox="0 0 32 32" fill="none" xmlns="http://www.w3.org/2000/svg">
<path fill-rule="evenodd" clip-rule="evenodd" d="M22.5957 7.5785C22.5978 9.15695 22.0332 10.6837 21.0048 11.8811L22.432 31.0857H9.66217L11.0464 12.2167C9.82616 10.9818 9.14217 9.31549 9.14286 7.57942C9.14286 3.89668 12.1536 0.914276 15.8693 0.914276C19.5858 0.914276 22.5957 3.89668 22.5957 7.5785Z" fill="#1CC691"/>
<path d="M15.8693 9.09622C16.7625 9.09622 17.4866 8.37128 17.4866 7.47702C17.4866 6.58276 16.7625 5.85782 15.8693 5.85782C14.976 5.85782 14.2519 6.58276 14.2519 7.47702C14.2519 8.37128 14.976 9.09622 15.8693 9.09622Z" fill="white"/>
<path fill-rule="evenodd" clip-rule="evenodd" d="M17.1465 14.8919V25.8011H14.9321V17.1063L17.1465 14.8919Z" fill="white"/>
</svg>
