<svg width="32" height="32" viewBox="0 0 32 32" fill="none" xmlns="http://www.w3.org/2000/svg">
<g clip-path="url(#clip0_3311_303)">
<path d="M20.0583 22.2085C19.2629 22.4332 17.4724 22.7993 14.913 22.7993C12.4003 22.7993 10.3468 22.3699 10.3402 21.8624C10.3402 21.5296 10.7446 21.3798 10.7446 21.3798L10.6713 21.3365C9.46821 21.5495 8.35162 21.8774 8.35662 22.3716C8.36827 23.2635 11.7846 23.9342 14.908 23.9342C17.5706 23.9342 20.1149 23.4882 21.2664 22.9041L20.0583 22.2085ZM11.5716 24.9692C11.0125 25.0807 9.79603 25.3603 9.79603 25.951C9.79603 26.7714 12.3986 27.3971 14.9114 27.3971C18.3676 27.3971 19.7821 26.5085 19.8453 26.4619L18.4092 25.6298C17.2649 25.9016 16.0907 26.0274 14.9147 26.0042C12.8446 26.0042 11.4984 25.6498 11.4984 25.2621C11.5022 25.2118 11.5173 25.1631 11.5427 25.1196C11.5681 25.0761 11.603 25.0389 11.6448 25.0108L11.5716 24.9692ZM25.6945 19.4578C25.598 21.3116 23.884 22.4681 22.1717 23.4432L22.3281 23.5331C24.1586 23.0189 27.4168 21.5229 27.1539 19.2198C27.0208 18.0716 25.9708 17.2529 24.6029 17.2529C24.2261 17.2528 23.8515 17.3089 23.4913 17.4193V17.4193L23.4247 17.5857C24.6478 17.3461 25.7661 18.2397 25.7028 19.4578M14.8714 30.3425C19.6789 30.3009 25.0589 29.359 25.0455 27.7782C25.0386 27.6572 25.0032 27.5395 24.9422 27.4349C24.8812 27.3302 24.7963 27.2414 24.6944 27.1757L24.6145 27.2207C24.1702 28.4454 20.4144 29.3507 14.8631 29.3989C11.282 29.4306 6.32146 28.5669 6.31314 27.5801C6.30482 26.5933 8.6628 26.0392 8.6628 26.0392L8.4964 25.9443C6.91553 26.1607 4.00342 26.9178 4.01174 28.0111C4.02671 29.5903 10.7196 30.3758 14.8714 30.3408M14.3722 31.4707C12.2933 31.4842 10.2167 31.3267 8.16358 30.9998L7.98054 31.1046C9.93748 31.6787 12.6582 32.0248 15.6502 31.9982C21.5244 31.9466 26.2869 30.4906 26.3818 28.7366L26.3136 28.6967C25.9208 29.176 23.3781 31.3925 14.3706 31.4707M7.01039 19.0318C7.01039 18.1465 10.3701 17.649 11.936 17.5341L12.0858 17.6207C11.4834 17.7288 9.07216 18.1548 9.07216 18.7106C9.07216 19.3147 12.7697 19.7091 14.9197 19.7091C18.5673 19.7091 21.0468 19.1566 21.7141 18.9752L22.6476 19.5177C22.0086 19.8306 19.2662 20.6493 14.9197 20.6493C10.0939 20.6493 7.01039 19.7058 7.01039 19.0351" fill="#00758F"/>
<path d="M21.5926 6.64957L21.5111 6.60297C20.0433 7.10219 15.5204 8.87942 15.5204 12.2059C15.5204 14.0879 17.3509 15.1296 17.3509 16.8936C17.3509 17.5226 16.9948 18.1133 16.7069 18.4661L16.8517 18.5493C17.6155 18.0501 18.97 16.9768 18.97 15.5856C18.97 14.4091 17.3409 12.9947 17.3409 11.482C17.3409 9.09741 20.4843 7.22866 21.5843 6.6479M19.3727 2.28805C19.3727 7.21202 12.6266 9.09408 12.6266 12.5953C12.6266 15.0531 14.2541 16.589 15.156 17.5692L15.0828 17.6108C13.9445 16.8986 10.9492 15.1147 10.9492 12.1526C10.9492 8.00412 18.6988 6.02055 18.6988 1.30791C18.7018 0.882047 18.6532 0.457387 18.554 0.043219L18.6322 -0.00170898C19.1294 0.656504 19.3898 1.46335 19.3711 2.28805" fill="#F29111"/>
</g>
<defs>
<clipPath id="clip0_3311_303">
<rect width="23.1588" height="32" fill="white" transform="translate(4)"/>
</clipPath>
</defs>
</svg>
