<svg width="32" height="32" viewBox="0 0 32 32" fill="none" xmlns="http://www.w3.org/2000/svg">
<path opacity="0.1" d="M16.9321 1.79599C16.9179 1.85266 16.9179 1.90934 16.9321 1.96601C16.9321 1.96601 17.1163 3.17113 16.9037 3.70976L8.17075 26.4353C7.54703 28.1082 8.3834 29.9653 10.0563 30.6034C11.7291 31.2412 13.5864 30.419 14.2527 28.7603L22.9857 6.03476C23.1557 5.59528 24.134 4.7305 24.134 4.7305C24.1766 4.68789 24.2191 4.64542 24.2473 4.60295V4.58874C24.2473 4.57454 24.2615 4.57454 24.2615 4.56033C24.4884 3.97923 23.0281 2.8734 21.0151 2.09371C19.0019 1.31388 17.1732 1.15792 16.9463 1.75337C16.9463 1.75337 16.9321 1.76758 16.9321 1.79599Z" fill="black"/>
<path d="M16.6769 1.59737C16.6627 1.65419 16.6627 1.71086 16.6769 1.76754C16.6769 1.76754 16.8612 2.97251 16.6485 3.51129L7.91564 26.2369C7.29206 27.9097 8.12843 29.7668 9.80129 30.4048C11.4742 31.0427 13.3313 30.2205 13.9976 28.5619L22.7306 5.83629C22.9007 5.3968 23.8789 4.53203 23.8789 4.53203C23.9215 4.48941 23.9641 4.44694 23.9923 4.40447V4.39027C23.9923 4.37606 24.0065 4.37606 24.0065 4.36186C24.2334 3.78061 22.7732 2.67492 20.76 1.8951C18.7467 1.11541 16.9179 0.959442 16.6911 1.5549C16.6911 1.5691 16.6911 1.58331 16.6769 1.59751V1.59737Z" fill="url(#paint0_linear_3466_64)"/>
<path d="M19.4273 11.8757L13.1185 28.2642C12.6507 29.4409 11.3039 30.0504 10.0989 29.5827C8.89377 29.1148 8.25585 27.7397 8.69548 26.5629L12.7216 16.0862C12.7216 16.0862 13.2178 15.2781 14.2103 14.697C15.2026 14.1156 16.0107 14.2432 17.1023 13.7612C18.208 13.2793 19.4273 11.8757 19.4273 11.8757V11.8757Z" fill="url(#paint1_linear_3466_64)"/>
<path d="M22.4865 3.88802C22.6122 3.56003 21.7077 2.90563 20.4664 2.42637C19.2249 1.94711 18.1166 1.82438 17.9911 2.15222C17.8654 2.4802 18.7699 3.13446 20.0112 3.61387C21.2527 4.09313 22.361 4.21586 22.4865 3.88802Z" fill="#333333"/>
<path opacity="0.3" d="M16.6182 1.76587C16.6182 1.76587 16.8013 2.96757 16.5899 3.50479L7.91406 26.1663C7.29446 27.8343 8.12542 29.6863 9.78736 30.3225C10.069 30.4356 10.3648 30.5062 10.6605 30.5204C10.1046 30.0959 9.69929 29.5045 9.50411 28.8328C9.30893 28.1612 9.33412 27.4446 9.57599 26.7883L18.083 4.57922C18.083 4.57922 16.9139 3.49059 16.6182 1.76587V1.76587Z" fill="white"/>
<g opacity="0.5">
<path d="M13.8296 16.638C13.9696 16.638 14.0831 16.5241 14.0831 16.3836C14.0831 16.2431 13.9696 16.1292 13.8296 16.1292C13.6895 16.1292 13.576 16.2431 13.576 16.3836C13.576 16.5241 13.6895 16.638 13.8296 16.638Z" fill="white"/>
<path d="M15.4774 18.589C15.6874 18.589 15.8577 18.4182 15.8577 18.2074C15.8577 17.9966 15.6874 17.8257 15.4774 17.8257C15.2674 17.8257 15.0972 17.9966 15.0972 18.2074C15.0972 18.4182 15.2674 18.589 15.4774 18.589Z" fill="white"/>
<path d="M12.9563 21.1054C13.353 21.1054 13.6746 20.7826 13.6746 20.3844C13.6746 19.9861 13.353 19.6633 12.9563 19.6633C12.5596 19.6633 12.2379 19.9861 12.2379 20.3844C12.2379 20.7826 12.5596 21.1054 12.9563 21.1054Z" fill="white"/>
<path d="M11.8014 22.0949C12.0114 22.0949 12.1817 21.924 12.1817 21.7132C12.1817 21.5024 12.0114 21.3315 11.8014 21.3315C11.5914 21.3315 11.4212 21.5024 11.4212 21.7132C11.4212 21.924 11.5914 22.0949 11.8014 22.0949Z" fill="white"/>
<path d="M13.3084 24.7949C13.4484 24.7949 13.5619 24.681 13.5619 24.5405C13.5619 24.4 13.4484 24.2861 13.3084 24.2861C13.1684 24.2861 13.0548 24.4 13.0548 24.5405C13.0548 24.681 13.1684 24.7949 13.3084 24.7949Z" fill="white"/>
</g>
<defs>
<linearGradient id="paint0_linear_3466_64" x1="11.6201" y1="14.7422" x2="19.1624" y2="15.6343" gradientUnits="userSpaceOnUse">
<stop stop-color="#919191"/>
<stop offset="1" stop-color="white"/>
</linearGradient>
<linearGradient id="paint1_linear_3466_64" x1="11.4292" y1="19.4471" x2="16.0038" y2="20.0985" gradientUnits="userSpaceOnUse">
<stop stop-color="#990000"/>
<stop offset="1" stop-color="#E80000"/>
</linearGradient>
</defs>
</svg>
