<svg xmlns="http://www.w3.org/2000/svg" version="1.2" baseProfile="tiny" viewBox="0 0 51 51" overflow="scroll">
  <path fill="#CC2128" d="M5.5 1.4h40.1c2.3 0 4.1 1.9 4.1 4.1v40.1c0 2.3-1.9 4.1-4.1 4.1H5.5c-2.3 0-4.1-1.9-4.1-4.1V5.5c0-2.2 1.9-4.1 4.1-4.1z"/>
  <g fill="#FFF">
    <path d="M10.5 14.7l.8 3.3h2.5c-1.2 5.6-3.4 16.1-3.4 16.1-.2 1-.6 2.1-1.5 2.8-1 .8-2.5.6-3.6.3l-.9 3.2c.2.1 2.9.8 5.2.3 1.4-.3 2.6-1.3 3.2-2.1.8-1 1.2-2.8 1.5-4 .3-1 4.2-20.2 4.2-20.2h-8v.3zm30.9 16.6c-.5.2-1.1.4-1.5.4-1.2.1-2.2-.7-1.4-3.7.8-3.4 2.3-9.9 2.3-9.9h5.1l.8-3.3h-5.1l1.1-4.6H39c-.2.7-3.6 15.8-4 17.3-.4 2.1-1.1 4.4.4 6.2.9 1.1 2.3 1.5 3.5 1.5 1.1 0 2.1-.1 2.9-.5-.4-.5-.6-1.1-.6-1.8-.2-.7-.1-1.2.2-1.6z"/>
    <path d="M43.8 30.7c-.4 0-.8.1-1.2.4-.5.4-.9 1-.9 1.7 0 .5.2 1 .5 1.4.4.4.9.7 1.6.7 1.1 0 2.1-.9 2.1-2.1 0-1.1-1-2.1-2.1-2.1zm-21.5-4.2h.8c3.8 0 9.6-.6 11.2-4.8.8-2 .6-4.3-1-5.8-1.3-1.2-3.2-1.6-4.9-1.6-5.5.2-9.3 5.1-10.1 9.7-.5 2.9-.6 6.1 1.3 8.6 1.5 2 3.7 2.5 6.2 2.5 3.1 0 5.5-1 5.5-1l.8-3.7s-2.7 1.5-5.6 1.5c-2.4 0-3.8-1.4-4-3.4-.2-.8-.2-2-.2-2zm6-9c.8 0 1.4.2 1.8.5.4.3.6.8.6 1.5 0 1.2-.6 2.1-2 2.8-1.3.7-3.1 1-5.3 1h-.5c.6-4.2 3.7-5.8 5.4-5.8z"/>
  </g>
</svg>