<svg width="32" height="32" viewBox="0 0 32 32" fill="none" xmlns="http://www.w3.org/2000/svg">
<rect width="32" height="32" fill="black"/>
<path d="M22.9994 5H17.9969V18.449C17.9798 19.4662 17.6038 20.4352 16.9499 21.1478C16.2959 21.8604 15.4163 22.2596 14.5 22.2596C13.5837 22.2596 12.7041 21.8604 12.0501 21.1478C11.3962 20.4352 11.0202 19.4662 11.0031 18.449H6.00061C5.98709 19.6978 6.19695 20.9372 6.61801 22.0953C7.03908 23.2534 7.66299 24.3072 8.45357 25.1956C9.24416 26.084 10.1857 26.7893 11.2236 27.2707C12.2615 27.7521 13.3752 28 14.5 28C15.6248 28 16.7385 27.7521 17.7764 27.2707C18.8143 26.7893 19.7558 26.084 20.5464 25.1956C21.337 24.3072 21.9609 23.2534 22.382 22.0953C22.8031 20.9372 23.0129 19.6978 22.9994 18.449V5Z" fill="white"/>
</svg>
