<?xml version="1.0" encoding="UTF-8"?>
<svg width="60px" height="60px" viewBox="0 0 60 60" version="1.1" xmlns="http://www.w3.org/2000/svg" xmlns:xlink="http://www.w3.org/1999/xlink">
    <defs></defs>
    <g id="Page-1" stroke="none" stroke-width="1" fill="none" fill-rule="evenodd">
        <g id="Joomla!-Logo" fill-rule="nonzero">
            <path d="M11.15988,30.1450638 L10.0209886,29.0081196 C6.48961072,25.4757145 5.39628107,20.4304475 6.73395235,15.9572253 C3.20359271,15.1594172 0.566996815,12.0029299 0.566996815,8.23047055 C0.567970395,3.85633913 4.11335353,0.30963408 8.48677932,0.30963408 C12.4245149,0.31167949 15.6892839,3.18418528 16.3032106,6.94744476 C20.5762148,5.94533682 25.2527185,7.11088999 28.5849056,10.4430771 L29.0394868,10.8976493 L23.1943663,16.7397063 L22.7408122,16.2841068 C20.844878,14.3891909 17.7701089,14.3891909 15.8721382,16.2861522 C13.9680313,18.1902592 13.9721132,21.2742193 15.8619201,23.1640172 L17.0050005,24.3050523 L22.8511393,30.1450638 L29.0333506,36.3242203 L23.1943663,42.1683137 L17.0050005,35.9871207 L11.15988,30.1450638" id="path174" fill="#86BE3C"></path>
            <path d="M17.6975817,23.6124711 L23.8849109,17.4292238 L29.7310497,11.5902394 L30.8710576,10.452268 C34.3891627,6.93519017 39.402766,5.82786419 43.8586245,7.13642635 C44.3918513,3.28020343 47.7015657,0.30963408 51.7048884,0.30963408 C56.0790198,0.30963408 59.626752,3.85429372 59.6257249,8.23047055 C59.6257249,12.2501387 56.6296191,15.5721077 52.7478599,16.0828707 C54.0237312,20.5223837 52.9123233,25.5002326 49.4177182,28.9979014 L48.9621187,29.4545191 L43.121089,23.6083803 L43.5725976,23.1558535 C45.4705772,21.2588921 45.4705772,18.1820865 43.574643,16.2861522 C41.6838089,14.3973636 38.6162032,14.3932817 36.7120963,16.2963704 L35.5720795,17.43536 L29.7259407,23.277408 L23.5427023,29.4545191 L17.6975817,23.6124711" id="path176" fill="#E4B645"></path>
            <path d="M44.0159335,53.1015031 C39.5212658,54.4841287 34.428999,53.3968192 30.8710576,49.8394941 L30.4236398,49.3925765 L36.2636513,43.5463394 L36.7120963,43.9958115 C38.610067,45.892764 41.6868815,45.892764 43.5828157,43.997848 C45.4726137,42.1060046 45.4767045,39.0394082 43.5725976,37.134283 L42.4305443,35.9912026 L36.5895146,30.1450638 L30.4175125,23.9679526 L36.2636513,18.1279411 L42.4305443,24.3009704 L48.2695287,30.1450638 L49.4177182,31.2942715 C52.7774781,34.6540404 53.9379222,39.3805986 52.8929143,43.6801574 C56.7399462,44.2215658 59.6992792,47.5271894 59.6992792,51.5233577 C59.6992792,55.8987217 56.151547,59.4421577 51.779461,59.4421577 C47.9446836,59.4421577 44.7473417,56.7207353 44.0159335,53.1015031" id="path184" fill="#C33734"></path>
            <path d="M41.7379542,36.6837927 L35.5720795,42.856813 L29.7310497,48.7019335 L28.5849056,49.8474613 C25.2108367,53.2232719 20.4526149,54.3704343 16.133647,53.2990682 C15.3266479,56.8184952 12.1762879,59.4401033 8.41292127,59.4421577 C4.03755724,59.4421577 0.49118267,55.8967835 0.492183045,51.5233577 C0.492183045,47.7784801 3.09183652,44.6383382 6.5844052,43.8139755 C5.47902638,39.4745714 6.62424157,34.680595 10.0209886,31.2840534 L10.4679062,30.8386721 L16.3134287,36.6797018 L15.8619201,37.1281557 C13.9659859,39.0261264 13.9659859,42.0978319 15.8639655,43.997848 C17.7670452,45.9009367 20.8510053,45.8968459 22.7408122,44.0060207 L23.8849109,42.8598766 L29.7259407,37.0168104 L35.8979427,30.8386721 L41.7379542,36.6837927" id="path186" fill="#748EC4"></path>
        </g>
    </g>
</svg>