<svg xmlns="http://www.w3.org/2000/svg" width="92.721" height="69.828" viewBox="0 0 92.721002 69.828004"><path d="M79.885 0h-67.42c-1.43 0-2.844 1.04-3.163 2.44L.061 43.94c-.31 1.398.594 2.612 2.032 2.612h66.595c1.43 0 2.848-1.262 3.157-2.658L81.09 2.407C81.4 1.005 81.31 0 79.885 0" fill="#2e64b3"/><path d="M90.841 10.948H42.087c-1.432 0-2.849 1.17-3.164 2.57l-8.2 36.995c-.313 1.405.593 2.882 2.025 2.882h48.535c1.43 0 2.845-1.465 3.16-2.866l8.202-36.703c.316-1.393-.364-2.878-1.804-2.878" fill="#56c5f2"/><path d="M42.087 10.948c-1.432 0-2.849 1.295-3.164 2.69l-7.33 32.914h37.095c1.43 0 2.848-1.297 3.157-2.688l7.306-32.916H42.087" fill="#88d6f6"/><path d="M47.711 23.96H25.6c-1.436 0-2.853 1-3.173 2.4L13.207 67c-.323 1.397.582 2.828 2.018 2.828h22.087c1.43 0 2.852-1.496 3.169-2.895l9.221-40.403c.319-1.392-.527-2.562-1.96-2.562" fill="#41b73c"/><path d="M47.711 23.96H25.6c-1.436 0-2.853 1.128-3.173 2.52l-4.592 20.072h27.282l4.585-20.08" fill="#7fcd48"/><path d="M47.711 23.96H36.657l-5.935 26.704c-.312 1.403.594 2.73 2.026 2.73h10.897l6.057-26.714c.319-1.392-.527-2.666-1.96-2.666" fill="#acd91a"/><path d="M47.788 23.96h-11.13l-4.989 22.592h13.525L49.78 26.53c.319-1.398-.558-2.57-1.99-2.57" fill="#fff"/></svg>