<svg xmlns="http://www.w3.org/2000/svg" width="64.326" height="61.964" viewBox="0 0 64.325997 61.964002"><g fill="#2e64b3"><path d="M4.088 14.555c-5.697 8.183-4.993 18.83-.634 27.526.097.213.21.414.316.619a5 5 0 0 0 .206.396c.032.072.084.151.126.222.07.142.144.273.219.408.14.236.28.476.42.71.079.13.154.26.243.391.149.252.321.502.476.753.07.108.135.213.21.318.223.34.448.677.695 1.008 0 .01.01.018.018.023.038.056.08.11.117.16.21.288.42.568.64.846.074.102.158.205.233.305.2.243.396.485.592.725.075.087.149.178.229.266a27.723 27.723 0 0 0 .83.955c.01.012.019.024.037.035.27.296.546.588.826.877.089.089.177.175.275.269.215.217.43.436.658.65.094.089.187.175.276.261.298.28.597.56.91.828.004 0 .009.01.013.012.051.045.108.09.155.134.274.235.55.468.83.7.112.093.224.181.336.272.233.185.466.362.7.54.12.09.242.183.368.28.252.188.514.372.77.554.093.068.186.136.285.199.023.02.05.04.074.059.257.168.5.33.752.497.111.072.22.142.326.214.392.25.784.49 1.171.723.112.06.224.122.331.184.29.168.584.334.882.493.163.09.327.17.494.254.202.11.411.222.626.331.052.021.103.04.15.065.088.04.172.084.256.126.327.161.662.313 1.008.467.065.031.135.058.205.093.387.168.774.33 1.17.486.095.035.187.077.286.109.359.14.732.278 1.1.41.047.02.09.034.136.05.41.14.816.273 1.232.401.097.028.196.062.298.088.425.128.835.278 1.27.36 27.54 5.02 35.542-16.551 35.542-16.551-6.723 8.75-18.653 11.062-29.953 8.49-.42-.094-.835-.228-1.26-.354a5.084 5.084 0 0 1-.308-.095 37.45 37.45 0 0 1-1.213-.392c-.056-.02-.116-.04-.173-.063a30.491 30.491 0 0 1-1.068-.396c-.098-.043-.2-.078-.299-.115a31.65 31.65 0 0 1-1.157-.485c-.083-.03-.154-.066-.233-.098a73.47 73.47 0 0 1-.97-.455c-.098-.042-.187-.09-.285-.138-.252-.12-.504-.252-.75-.383-.174-.088-.342-.17-.505-.26-.303-.164-.607-.337-.91-.504a3.627 3.627 0 0 0-.304-.176 43.49 43.49 0 0 1-1.175-.72 6.745 6.745 0 0 1-.317-.213 29.08 29.08 0 0 1-.84-.555l-.27-.194a48.514 48.514 0 0 1-.794-.57 13.394 13.394 0 0 0-.35-.265c-.238-.184-.476-.366-.713-.557-.104-.086-.21-.171-.313-.254a29.08 29.08 0 0 1-.892-.752c-.027-.03-.069-.056-.102-.082-.313-.28-.625-.566-.933-.851-.094-.088-.172-.17-.266-.255-.223-.219-.448-.433-.667-.655l-.266-.268a26.37 26.37 0 0 1-.826-.873.343.343 0 0 1-.042-.042 40.01 40.01 0 0 1-.835-.952c-.075-.086-.145-.175-.219-.259-.201-.247-.402-.497-.607-.744-.065-.096-.14-.186-.215-.28a33.82 33.82 0 0 1-.694-.926C5.777 30.411 3.514 18.605 8.53 8.916"/><path d="M21.77 7.656c-4.129 5.925-3.9 13.86-.685 20.13a24.573 24.573 0 0 0 1.819 3.037c.616.886 1.297 1.936 2.123 2.648.29.327.602.644.924.963l.243.24c.308.297.62.589.942.873.01.012.028.024.038.036.004 0 .009.01.009.01.359.317.723.618 1.101.912.088.063.168.134.256.196.374.292.757.571 1.143.847.014 0 .024.014.043.022.167.12.345.233.527.35.079.05.163.111.242.16.284.185.565.357.854.528.042.02.084.044.126.065.242.147.499.291.756.422.089.054.177.096.266.145.177.088.354.182.527.273.023.012.056.025.084.038.364.18.733.345 1.096.51l.247.1c.3.13.602.256.901.37.135.044.261.097.387.142.275.098.556.193.831.284l.378.122c.392.124.789.282 1.204.347 21.256 3.525 26.174-12.85 26.174-12.85-4.428 6.38-13 9.416-22.143 7.042-.41-.105-.812-.222-1.204-.35a4.434 4.434 0 0 1-.36-.115c-.284-.09-.569-.187-.844-.29a14.729 14.729 0 0 1-.382-.141c-.303-.119-.607-.236-.901-.367-.088-.035-.172-.065-.242-.102a32.154 32.154 0 0 1-1.116-.513l-.555-.287c-.112-.056-.219-.11-.317-.161-.248-.128-.476-.264-.71-.401l-.168-.091c-.284-.173-.578-.345-.848-.525-.094-.053-.173-.114-.261-.17a33.09 33.09 0 0 1-.56-.366 36.06 36.06 0 0 1-1.144-.838c-.088-.072-.172-.137-.256-.208-4.013-3.158-7.185-7.478-8.687-12.37-1.587-5.081-1.237-10.785 1.497-15.41"/><path d="M36.635 2.503c-2.435 3.574-2.669 8.014-.99 11.955 1.783 4.19 5.427 7.477 9.673 9.033.172.068.345.124.523.185.08.023.153.049.238.074.247.077.494.17.75.22 11.743 2.267 14.926-6.027 15.78-7.247-2.795 4.018-7.484 4.98-13.237 3.584a13.84 13.84 0 0 1-1.385-.432 18.106 18.106 0 0 1-1.657-.683 17.393 17.393 0 0 1-2.897-1.771C38.282 13.516 35.09 6.067 38.45 0"/></g></svg>