<svg xmlns="http://www.w3.org/2000/svg" viewBox="0 0 67.752999 58.881001" height="58.881" width="67.753"><g fill-rule="evenodd"><path d="M59.421 0H7.623C3.51 0 0 3.607 0 7.717v18.172C0 44.108 15.446 58.88 33.88 58.88c18.432 0 33.873-14.773 33.873-32.992V7.717C67.753 3.607 63.535 0 59.42 0" fill="#f89c15"/><path d="M11.638 26.32c0 12.153 9.774 21.848 22.07 21.848 12.298 0 22.075-9.846 22.075-22.163H44.654c0 6.158-4.548 11.16-10.693 11.16-6.152 0-10.693-4.77-10.693-10.845V15.74h-11.63v10.58" fill="#fff"/><path d="M11.638 26.081c0 12.15 9.774 21.967 22.07 21.967 12.298 0 22.075-9.726 22.075-22.043H44.654c0 6.158-4.548 11.04-10.693 11.04-6.152 0-10.693-4.892-10.693-10.964v-10.34h-11.63v10.34M47.435 9.026l-2.598 10.637 10.764 2.748 2.784-10.636-10.95-2.75" fill="#fff"/></g></svg>