<?xml version="1.0" encoding="utf-8"?>
<svg viewBox="0 0 32 34" width="32" height="34" xmlns="http://www.w3.org/2000/svg">
	<style type="text/css">
		.st0{fill:#BD483B;}
		.st1{fill:#E64E3D;}
		.st2{fill:#FEC82F;}
		.st3{fill:#DF9C26;}
	</style>
	<g>
		<polygon class="st0" points="15.817,0.338 12.711,11.376 12.711,11.48 12.711,22.519 15.817,33.662 15.817,33.662 19.012,22.519  19.012,11.48 19.012,11.376 15.817,0.338"/>
		<g>
			<g>
				<polyline class="st1" points="15.817,0.338 0.432,5.88 2.618,26.372 15.817,33.662"/>
				<polyline class="st0" points="15.817,33.662 29.086,26.297 31.568,5.807 15.817,0.338"/>
			</g>
			<g>
				<path class="st2" d="M13.025,25.088c-1.514-0.473-2.864-1.317-3.94-2.431l-0.003-0.002c-0.131-0.137-0.257-0.274-0.381-0.418 c-0.838-0.979-1.478-2.13-1.857-3.396c0.251,0.233,0.518,0.447,0.796,0.647l0,0c0.003,0.008,0.008,0.016,0.011,0.027 c-0.003-0.012-0.008-0.02-0.011-0.027c0.398,0.279,0.822,0.526,1.269,0.737c0.141,0.064,0.282,0.125,0.427,0.186 c0.177,0.07,0.36,0.135,0.542,0.195c0.011,0.006,0.024,0.006,0.035,0.01c0.032,0.012,0.065,0.023,0.097,0.033 c0.074,0.756,0.649,1.372,1.39,1.504C11.688,23.31,12.234,24.299,13.025,25.088z"/>
				<path class="st2" d="M13.605,11.794c0,0.324,0.088,0.627,0.243,0.883c-1.25,1.753-2.108,3.656-2.479,5.539 c-0.041,0.209-0.077,0.416-0.105,0.619c-0.429,0.113-0.79,0.393-1.016,0.762c-0.013,0-0.024-0.004-0.035-0.01 c-0.023-0.006-0.04-0.014-0.061-0.021c-0.142-0.045-0.281-0.098-0.417-0.152c-0.204-0.08-0.403-0.174-0.598-0.272 c-0.663-0.338-1.26-0.772-1.781-1.291c-0.11-0.111-0.213-0.219-0.311-0.332L7.004,17.47c-0.038-0.045-0.078-0.092-0.115-0.137 c-0.017-0.021-0.032-0.039-0.047-0.059c-0.014-0.018-0.024-0.031-0.037-0.045c-0.005-0.01-0.013-0.016-0.017-0.023 c-0.02-0.022-0.037-0.047-0.053-0.068c-0.008-0.012-0.017-0.022-0.023-0.029c-0.001-0.004-0.002-0.004-0.004-0.008 c-0.013-0.014-0.024-0.033-0.037-0.049c-0.055-0.072-0.107-0.149-0.157-0.225c-0.009-0.012-0.019-0.024-0.025-0.039 c-0.006-0.006-0.015-0.018-0.02-0.027c-0.014-0.203-0.02-0.408-0.02-0.617c0-1.882,0.557-3.636,1.512-5.105 c0.113-0.176,0.235-0.348,0.361-0.514c0.12-0.16,0.245-0.319,0.374-0.467c1.126-1.317,2.61-2.315,4.299-2.847 c0.026,0.182,0.059,0.367,0.095,0.553c0.192,0.967,0.513,1.942,0.949,2.898C13.769,10.962,13.605,11.36,13.605,11.794z"/>
				<path class="st2" d="M12.608,20.479c0,0.221-0.079,0.424-0.212,0.58c-0.029,0.037-0.061,0.068-0.096,0.1 c-0.161,0.141-0.368,0.225-0.596,0.225c-0.173,0-0.335-0.049-0.472-0.135c-0.147-0.09-0.265-0.219-0.342-0.375 c-0.058-0.121-0.089-0.252-0.089-0.395c0-0.26,0.11-0.494,0.286-0.658c0.029-0.027,0.06-0.051,0.091-0.074 c0.148-0.107,0.331-0.17,0.526-0.17c0.206,0,0.395,0.068,0.546,0.186c0.085,0.063,0.155,0.139,0.213,0.229 C12.556,20.129,12.608,20.299,12.608,20.479z"/>
				<path class="st2" d="M16.209,11.794c0,0.147-0.032,0.281-0.094,0.403c-0.148,0.299-0.456,0.502-0.808,0.502 c-0.044,0-0.087-0.002-0.128-0.006c-0.008-0.004-0.016-0.004-0.025-0.006c-0.383-0.066-0.684-0.369-0.741-0.756 c-0.007-0.043-0.01-0.09-0.01-0.137c0-0.102,0.017-0.201,0.05-0.295c0.123-0.354,0.46-0.606,0.854-0.606h0.002 c0.012,0,0.024,0,0.036,0c0.392,0.018,0.72,0.285,0.827,0.645C16.196,11.62,16.209,11.706,16.209,11.794z"/>
				<path class="st3" d="M25.183,16.143c0,0.907-0.129,1.782-0.368,2.61c-0.799-0.211-1.606-0.52-2.4-0.914 c0.022-0.109,0.033-0.221,0.033-0.336c0-0.225-0.044-0.442-0.125-0.639c0.031-0.029,0.064-0.061,0.095-0.094 c0.957-0.977,1.763-2.055,2.404-3.212C25.057,14.379,25.183,15.248,25.183,16.143z"/>
				<path class="st3" d="M24.313,12.196c-0.063,0.139-0.131,0.277-0.201,0.416c-0.627,1.235-1.455,2.382-2.459,3.407 c-0.009,0.01-0.02,0.02-0.028,0.027c-0.255-0.156-0.557-0.244-0.879-0.244c-0.375,0-0.722,0.123-1.004,0.328 c-0.514-0.404-1.011-0.848-1.49-1.327c-0.608-0.604-1.157-1.247-1.647-1.909c0.252-0.297,0.405-0.68,0.405-1.102 c0-0.313-0.087-0.61-0.237-0.862c1.21-1.163,2.547-2.106,3.917-2.788C22.262,9.103,23.53,10.514,24.313,12.196z"/>
				<path class="st3" d="M21.649,17.503c0,0.379-0.23,0.701-0.556,0.836c-0.108,0.045-0.225,0.07-0.348,0.07 c-0.063,0-0.125-0.008-0.185-0.02c-0.385-0.082-0.681-0.408-0.715-0.805c0.011-0.01,0.021-0.016,0.028-0.022 c-0.01-0.008-0.021-0.014-0.03-0.023c-0.001-0.012-0.001-0.022-0.001-0.037c0-0.389,0.25-0.723,0.601-0.85 c0.095-0.033,0.196-0.053,0.302-0.053c0.09,0,0.179,0.014,0.262,0.039c0.346,0.105,0.606,0.412,0.64,0.785 C21.649,17.45,21.649,17.478,21.649,17.503z"/>
				<path class="st3" d="M21.884,18.767c-0.301,0.274-0.7,0.44-1.139,0.44c-0.351,0-0.677-0.107-0.949-0.289 c-0.039,0.025-0.078,0.051-0.115,0.072c-1.233,0.781-2.538,1.352-3.864,1.698v4.824c3.887,0,7.222-2.37,8.64-5.744 C23.598,19.531,22.734,19.195,21.884,18.767z"/>
				<path class="st2" d="M15.817,20.688c-0.793,0.205-1.592,0.33-2.385,0.367c-0.042,0.002-0.086,0.006-0.128,0.008 c-0.151,0.41-0.454,0.744-0.839,0.94c0.245,0.909,0.688,1.698,1.319,2.327c0.524,0.524,1.162,0.92,1.891,1.18 c0.046,0,0.093,0.002,0.142,0.002V20.688z"/>
				<path class="st3" d="M19.043,17.503c0-0.172,0.026-0.34,0.074-0.498c-0.562-0.44-1.106-0.92-1.625-1.442 c-0.614-0.614-1.172-1.262-1.675-1.934v5.946c1.124-0.324,2.235-0.823,3.291-1.489c0.009-0.006,0.02-0.014,0.03-0.022 C19.077,17.89,19.043,17.7,19.043,17.503z"/>
				<path class="st2" d="M15.817,13.629c-0.045-0.059-0.091-0.113-0.132-0.174c-0.123,0.029-0.249,0.043-0.378,0.043 c-0.227,0-0.441-0.045-0.637-0.123c-1.134,1.606-1.912,3.341-2.25,5.049c-0.032,0.162-0.059,0.32-0.083,0.475 c0.477,0.195,0.848,0.596,0.996,1.092c0.016-0.004,0.029-0.004,0.046-0.004c0.809-0.039,1.627-0.18,2.438-0.412V13.629z"/>
				<path class="st3" d="M15.817,6.778v3.394c0.048,0.016,0.098,0.033,0.145,0.055c1.106-1.073,2.316-1.979,3.573-2.681 C18.395,7.05,17.137,6.778,15.817,6.778z"/>
				<path class="st2" d="M15.817,6.778c-0.608,0-1.201,0.055-1.773,0.168c0.025,0.197,0.06,0.404,0.101,0.606 c0.168,0.86,0.449,1.725,0.829,2.575c0.106-0.02,0.219-0.033,0.333-0.033c0.178,0,0.347,0.027,0.51,0.078V6.778z"/>
			</g>
		</g>
	</g>
</svg>
