<svg width="32" height="32" viewBox="0 0 32 32" fill="none" xmlns="http://www.w3.org/2000/svg">
<path d="M15.6 26.4745L7.6256 23.5713L4 25.3929V25.4065L15.6 31.2001L27.2 25.4065V25.3929L23.5504 23.5601L15.6 26.4745Z" fill="#70C26E"/>
<path d="M22.8544 18.9351C22.8544 19.2223 22.6968 19.4871 22.4432 19.6239L15.948 23.1335C15.8336 23.1953 15.7056 23.2277 15.5756 23.2277C15.4456 23.2277 15.3176 23.1953 15.2032 23.1335L8.70801 19.6239C8.58383 19.5568 8.48012 19.4573 8.40787 19.3361C8.33562 19.2148 8.29752 19.0763 8.29761 18.9351V9.24231C8.29769 9.10119 8.33586 8.96271 8.40809 8.84147C8.48033 8.72024 8.58394 8.62076 8.70801 8.55351L15.2032 5.04391C15.3176 4.98208 15.4456 4.94971 15.5756 4.94971C15.7056 4.94971 15.8336 4.98208 15.948 5.04391L22.4432 8.55351C22.5674 8.62065 22.6712 8.72009 22.7436 8.84133C22.816 8.96257 22.8542 9.10111 22.8544 9.24231V18.9351Z" fill="#3F3F3F"/>
</svg>
