<svg width="32" height="32" viewBox="0 0 32 32" fill="none" xmlns="http://www.w3.org/2000/svg">
<path d="M15.6 26.4745L7.6256 23.5713L4 25.3929V25.4065L15.6 31.2001L27.2 25.4065V25.3929L23.5504 23.5601L15.6 26.4745Z" fill="#C62424"/>
<path d="M30.0584 14.0889L27.2864 12.4329V7.26726C27.2864 6.76006 26.9992 6.29766 26.544 6.07206L16.1672 0.938464C15.9833 0.847731 15.781 0.800537 15.576 0.800537C15.371 0.800537 15.1687 0.847731 14.9848 0.938464L4.608 6.07206C4.1536 6.29766 3.8664 6.76006 3.8664 7.26726V12.4617L1.1416 14.0897L3.8664 15.7177V20.9113C3.8664 21.4185 4.1536 21.8809 4.608 22.1065L14.9856 27.2401C15.1695 27.3308 15.3718 27.378 15.5768 27.378C15.7818 27.378 15.9841 27.3308 16.168 27.2401L26.5448 22.1065C26.9992 21.8817 27.2872 21.4185 27.2872 20.9113V15.7449L30.0584 14.0889V14.0889ZM22.8544 18.9353C22.8544 19.2225 22.6968 19.4873 22.4432 19.6241L15.948 23.1337C15.8336 23.1955 15.7056 23.2279 15.5756 23.2279C15.4456 23.2279 15.3176 23.1955 15.2032 23.1337L8.708 19.6241C8.58382 19.557 8.48011 19.4575 8.40786 19.3362C8.33561 19.215 8.29751 19.0764 8.2976 18.9353V9.24246C8.29768 9.10135 8.33586 8.96286 8.40809 8.84163C8.48032 8.7204 8.58394 8.62091 8.708 8.55366L15.2032 5.04406C15.3176 4.98224 15.4456 4.94986 15.5756 4.94986C15.7056 4.94986 15.8336 4.98224 15.948 5.04406L22.4432 8.55366C22.5674 8.62081 22.6712 8.72025 22.7436 8.84149C22.8159 8.96273 22.8542 9.10126 22.8544 9.24246V18.9353Z" fill="#3F3F3F"/>
</svg>
