<svg width="32" height="32" viewBox="0 0 32 32" fill="none" xmlns="http://www.w3.org/2000/svg">
<path d="M15.6 26.4745L7.6256 23.5713L4 25.3929V25.4065L15.6 31.2001L27.2 25.4065V25.3929L23.5504 23.5601L15.6 26.4745Z" fill="#489FD8"/>
<path d="M30.0584 14.0889L27.2864 12.4329V7.26726C27.2864 6.76006 26.9992 6.29766 26.544 6.07206L16.1672 0.938464C15.9833 0.847731 15.781 0.800537 15.576 0.800537C15.371 0.800537 15.1687 0.847731 14.9848 0.938464L4.608 6.07206C4.1536 6.29766 3.8664 6.76006 3.8664 7.26726V12.4617L1.1416 14.0897L3.8664 15.7177V20.9113C3.8664 21.4185 4.1536 21.8809 4.608 22.1065L14.9856 27.2401C15.1695 27.3308 15.3718 27.378 15.5768 27.378C15.7818 27.378 15.9841 27.3308 16.168 27.2401L26.5448 22.1065C26.9992 21.8817 27.2872 21.4185 27.2872 20.9113V15.7449L30.0584 14.0889ZM22.8544 18.9353C22.8544 19.2225 22.6968 19.4873 22.4432 19.6241L15.948 23.1337C15.8336 23.1955 15.7056 23.2279 15.5756 23.2279C15.4456 23.2279 15.3176 23.1955 15.2032 23.1337L8.708 19.6241C8.58382 19.557 8.48011 19.4575 8.40786 19.3362C8.33561 19.215 8.29751 19.0764 8.2976 18.9353V9.24246C8.29768 9.10135 8.33586 8.96286 8.40809 8.84163C8.48032 8.7204 8.58394 8.62091 8.708 8.55366L15.2032 5.04406C15.3176 4.98224 15.4456 4.94986 15.5756 4.94986C15.7056 4.94986 15.8336 4.98224 15.948 5.04406L22.4432 8.55366C22.5674 8.62081 22.6712 8.72025 22.7436 8.84149C22.8159 8.96273 22.8542 9.10126 22.8544 9.24246V18.9353Z" fill="#3F3F3F"/>
<path d="M22 18.4772C22 18.7129 21.8593 18.9302 21.6328 19.0425L15.8322 21.9227C15.7301 21.9734 15.6158 22 15.4996 22C15.3835 22 15.2692 21.9734 15.1671 21.9227L9.36651 19.0425C9.25561 18.9874 9.16299 18.9058 9.09847 18.8063C9.03395 18.7068 8.99992 18.5931 9 18.4772V10.5228C9.00007 10.4069 9.03416 10.2933 9.09867 10.1938C9.16318 10.0943 9.25571 10.0127 9.36651 9.95749L15.1671 7.07731C15.2692 7.02657 15.3835 7 15.4996 7C15.6158 7 15.7301 7.02657 15.8322 7.07731L21.6328 9.95749C21.7437 10.0126 21.8364 10.0942 21.901 10.1937C21.9657 10.2932 21.9999 10.4069 22 10.5228V18.4772Z" fill="#3F3F3F"/>
</svg>
