<svg width="32" height="32" viewBox="0 0 32 32" fill="none" xmlns="http://www.w3.org/2000/svg">
<path d="M28.4389 4.5127H3.60195C1.83785 4.5127 0.410156 5.94039 0.410156 7.70449V24.5742C0.410156 26.3383 1.83785 27.766 3.60195 27.766H28.443C30.2071 27.766 31.6348 26.3383 31.6348 24.5742V7.70449C31.6307 5.94039 30.203 4.5127 28.4389 4.5127ZM12.5086 21.3783C12.5086 22.9414 12.1804 23.926 11.5322 24.3158C11.0891 24.5824 10.0184 24.7137 8.34452 24.7137C6.97426 24.7137 6.0758 24.5004 5.67785 24.0819C5.2799 23.6594 5.07477 22.7527 5.07477 21.3783V17.764H8.27477V21.1486C8.27477 21.8747 8.56195 22.0265 8.804 22.0265C9.00093 22.0265 9.24298 21.924 9.29221 21.4235V8.32398H12.5086V21.3783ZM19.8112 10.9168H18.203V24.6481H14.9825V10.9168H13.3743V8.32398H19.8153V10.9168H19.8112ZM26.0512 24.6481H20.9025V8.32398H24.0984V21.9609H26.0553V24.6481H26.0512Z" fill="#212D36"/>
<path d="M12.5086 21.3781C12.5086 22.9412 12.1803 23.9258 11.5321 24.3155C11.0891 24.5822 10.0183 24.7135 8.34445 24.7135C6.97419 24.7135 6.07573 24.5001 5.67778 24.0817C5.27984 23.6591 5.07471 22.7524 5.07471 21.3781V17.7637H8.27471V21.1483C8.27471 21.8745 8.56189 22.0263 8.80394 22.0263C9.00086 22.0263 9.24291 21.9237 9.29214 21.4232V8.32373H12.5086V21.3781ZM19.8111 10.9166H18.2029V24.6478H14.9824V10.9166H13.3742V8.32373H19.8152V10.9166H19.8111ZM26.0511 24.6478H20.9024V8.32373H24.0983V21.9606H26.0552V24.6478H26.0511Z" fill="white"/>
</svg>
