<svg width="32" height="32" viewBox="0 0 32 32" fill="none" xmlns="http://www.w3.org/2000/svg">
<rect width="32" height="32" fill="#623D99"/>
<path d="M15.3135 5.92679C15.1893 5.80266 15.1273 5.61648 15.1273 5.4303V3.13406C15.1273 2.88582 15.1893 2.69963 15.3135 2.57551C15.4996 2.38933 15.6238 2.32727 15.872 2.32727H18.7268C18.975 2.32727 19.1612 2.38933 19.2853 2.51345C19.4095 2.69963 19.4715 2.88582 19.4715 3.13406V5.4303C19.4715 5.61648 19.4095 5.80266 19.2233 5.98885C19.0992 6.11297 18.913 6.17503 18.6647 6.17503H15.872C15.6238 6.17503 15.4996 6.11297 15.3135 5.92679Z" fill="white"/>
<path d="M11.8225 28.9745C11.6984 28.7884 11.6364 28.6642 11.6364 28.416V26.7404C11.6364 26.5542 11.6984 26.368 11.8225 26.2439C11.9467 26.1197 12.1329 26.0577 12.3811 26.0577H13.1879C14.0567 26.0577 14.6153 25.8094 14.9256 25.375C15.2359 24.8785 15.36 24.2579 15.36 23.3891V8.30836C15.36 8.06011 15.4221 7.87393 15.5462 7.74981C15.6703 7.62569 15.8565 7.56363 16.0427 7.56363H18.3389C18.5251 7.56363 18.7113 7.62569 18.8354 7.74981C18.9595 7.87393 19.0216 8.06011 19.0216 8.30836V23.3891C19.0216 25.1888 18.5251 26.6162 17.5942 27.6092C16.7253 28.6642 15.36 29.1607 13.4982 29.1607H12.3811C12.1329 29.1607 11.9467 29.0987 11.8225 28.9745Z" fill="white"/>
</svg>
