<svg width="32" height="32" viewBox="0 0 32 32" fill="none" xmlns="http://www.w3.org/2000/svg">
<path d="M8.02417 30.1145C13.0644 30.1145 16.0081 27.0438 16.0081 21.7509V1.18518H11.1693V21.5084C11.1693 24.2963 10.1613 25.6296 8.06449 25.6296C5.96772 25.6296 4.8387 24.3367 4.8387 21.6296V14.4377H0V21.872C0 27.2457 2.78225 30.1145 8.02417 30.1145V30.1145Z" fill="#15864E"/>
<path d="M27.0842 11.8519L26.5517 16.6544L31.3978 15.2936L31.8238 18.5754L27.4037 18.8955L30.3061 22.7643L27.3505 24.3385L25.3268 20.2563L23.5429 24.3118L20.4807 22.7643L23.3564 18.8955L18.963 18.5488L19.4689 15.2936L24.2085 16.6544L23.676 11.8519H27.0842Z" fill="#15864E"/>
</svg>
