<svg width="32" height="32" viewBox="0 0 32 32" fill="none" xmlns="http://www.w3.org/2000/svg">
<path d="M16 32C24.8366 32 32 24.8366 32 16C32 7.16344 24.8366 0 16 0C7.16344 0 0 7.16344 0 16C0 24.8366 7.16344 32 16 32Z" fill="#6017FA"/>
<path d="M10.1341 15.9339C10.1299 15.7043 10.1721 15.4761 10.2581 15.2632C10.3442 15.0502 10.4723 14.8567 10.6349 14.6943C10.7975 14.5319 10.9911 14.4039 11.2043 14.318C11.4175 14.2321 11.6459 14.1899 11.8758 14.1941C12.3378 14.1941 12.7809 14.3775 13.1076 14.7038C13.4343 15.0301 13.6178 15.4728 13.6178 15.9343C13.6178 16.3958 13.4343 16.8384 13.1076 17.1648C12.7809 17.4911 12.3378 17.6744 11.8758 17.6744C11.6458 17.6786 11.4174 17.6365 11.2041 17.5505C10.9909 17.4645 10.7972 17.3364 10.6346 17.1739C10.472 17.0115 10.3439 16.8179 10.2579 16.6048C10.1719 16.3917 10.1298 16.1635 10.1341 15.9339ZM17.016 8.58672H19.7255V19.0276C19.7255 22.0385 17.7255 23.8401 15.0373 23.8401C12.4134 23.8401 10.521 22.1426 10.521 19.1139H13.2297C13.2297 20.3817 13.681 21.4737 15.0365 21.4737C16.392 21.4737 17.0152 20.4427 17.0152 19.0244L17.016 8.58672Z" fill="white"/>
</svg>
