<svg width="32" height="32" viewBox="0 0 32 32" fill="none" xmlns="http://www.w3.org/2000/svg">
<path d="M16 0C7.16652 0 0 7.16652 0 16C0 24.8335 7.16652 32 16 32C24.8335 32 32 24.8335 32 16C32 7.16652 24.8477 0 16 0ZM16 3.33393C21.528 3.33393 26.2725 6.65361 28.2529 11.3695C28.7516 12.5521 28.1817 13.9199 26.9991 14.4185C26.9706 14.4328 26.9279 14.447 26.8851 14.4613C19.7471 17.0971 11.911 17.0543 4.80142 14.3473C3.74711 13.9484 3.2057 12.7658 3.60463 11.7115C3.60463 11.6972 3.60463 11.6972 3.61888 11.683C5.52805 6.81033 10.358 3.33393 16 3.33393ZM16 28.4951C10.301 28.4951 5.45681 24.976 3.63313 20.0606C3.26269 19.049 4.26002 18.0659 5.31434 18.3936C12.2671 20.5592 19.7329 20.5592 26.6857 18.3936C27.74 18.0516 28.7373 19.049 28.3669 20.0606C26.5574 24.976 21.699 28.4951 16 28.4951Z" fill="#000D22"/>
</svg>
