<svg width="32" height="32" viewBox="0 0 32 32" fill="none" xmlns="http://www.w3.org/2000/svg">
<path d="M30.782 0.0964406C30.5217 -0.0210744 30.2256 -0.031607 29.9576 0.0671128C29.6895 0.165833 29.471 0.365901 29.3491 0.624202C29.0865 1.17346 22.4238 17.2594 22.4238 17.2594C22.2088 17.7633 22.0656 17.7155 22.0656 17.1878C22.0656 17.1878 22.0894 11.5878 22.1133 6.96689C22.1372 4.45465 20.893 3.04092 19.145 2.75435C18.3434 2.63853 17.5271 2.81757 16.8477 3.25823C16.1454 3.75099 15.584 4.41858 15.219 5.19495C14.6936 6.2242 11.4387 15.7024 11.4387 15.7024C11.2691 16.2039 11.102 16.18 11.102 15.6546C11.102 15.6546 11.0065 11.5615 10.9109 10.6039C10.7677 9.11853 10.4333 6.70181 8.52288 6.58241C6.72705 6.46301 5.91273 8.68868 5.459 10.0523C5.14616 10.9621 3.66317 15.8696 3.66317 15.8696L3.44825 16.3711C3.37661 16.6361 3.2572 16.6361 3.18317 16.3711L3.06377 15.9173C2.93666 15.4324 2.78522 14.9542 2.61004 14.4845C2.53881 14.2245 2.4171 13.9811 2.25183 13.7681C2.13336 13.6393 1.97975 13.5481 1.80998 13.5056C1.64022 13.4632 1.46175 13.4714 1.29661 13.5293C1.14047 13.5856 1.00329 13.6846 0.900693 13.8151C0.798095 13.9455 0.734207 14.1022 0.716309 14.2672C0.716232 14.556 0.740195 14.8444 0.787951 15.1293C0.91213 15.9985 1.53541 19.3896 1.91034 20.1323C2.28526 20.8749 3.10437 21.257 3.87332 20.8487C4.58974 20.4642 4.92646 19.5806 5.21302 18.8857C5.5784 17.9997 7.4172 12.9155 7.4172 12.9155C7.60825 12.4141 7.75153 12.4379 7.72765 12.9633C7.72765 12.9633 7.63213 17.9424 7.63213 20.192C7.63213 21.0302 7.70377 22.5609 7.94258 23.3752C8.07844 23.9278 8.39227 24.4204 8.83571 24.777C9.27512 25.1049 9.82058 25.2581 10.3665 25.2069C10.6368 25.1709 10.8974 25.0816 11.133 24.9442C11.4631 24.7412 11.7549 24.4817 11.9951 24.1776C12.5222 23.4573 12.9788 22.688 13.3587 21.8803C14.2447 20.1323 16.5444 14.7161 16.5444 14.7161C16.7593 14.2123 16.9026 14.26 16.9026 14.7878C16.9026 14.7878 16.616 23.8839 16.616 27.3538C16.6185 28.222 16.7804 29.0824 17.0936 29.8923C17.2286 30.2733 17.4378 30.6238 17.7092 30.9235C17.9806 31.2231 18.3087 31.466 18.6745 31.6379C19.0714 31.8112 19.5035 31.8886 19.9358 31.8637C20.3682 31.8388 20.7885 31.7124 21.1629 31.4947C21.7396 31.1427 22.2171 30.6495 22.5503 30.0618C23.0143 29.2593 23.4074 28.4179 23.7253 27.5472C24.4178 25.7538 24.9933 23.9341 25.5665 22.0905C26.1396 20.2469 30.9969 2.89763 31.3074 1.41465C31.3471 1.2498 31.3632 1.08014 31.3551 0.910769C31.3318 0.739052 31.2676 0.575451 31.1678 0.433738C31.0681 0.292025 30.9358 0.176346 30.782 0.0964406V0.0964406Z" fill="#EC0041"/>
</svg>
