<svg width="32" height="32" viewBox="0 0 32 32" fill="none" xmlns="http://www.w3.org/2000/svg">
<path d="M23.8101 28.3975H16.7808C16.0192 28.3975 15.4005 27.7788 15.4005 27.0172C15.4005 26.2556 16.0192 25.6391 16.7808 25.6391H21.3717C22.0885 25.59 22.656 24.9905 22.656 24.2631C22.656 23.5015 22.0373 22.8828 21.2779 22.8828H14.0907C13.3312 22.8828 12.7125 22.2663 12.7125 21.5068C12.7125 20.7452 13.3312 20.1287 14.0907 20.1287H14.9589L14.9568 20.1265H16.2453C17.0048 20.1265 17.6235 19.51 17.6235 18.7505C17.6235 17.9911 17.0048 17.3745 16.2453 17.3745L6.19947 17.3724C5.44 17.3724 4.82347 16.7559 4.82347 15.9964C4.82347 15.2348 5.44 14.6183 6.19947 14.6183L15.6651 14.614C16.4245 14.614 17.0411 13.9975 17.0411 13.2401C17.0411 12.4807 16.4245 11.8641 15.6651 11.8641H12.2304C11.4709 11.8641 10.8523 11.2455 10.8523 10.486C10.8523 9.72654 11.4709 9.10788 12.2304 9.10788H18.7605C18.7947 9.10788 18.8267 9.11001 18.8587 9.11214H21.1925C21.9541 9.11214 22.5707 8.49348 22.5707 7.73401C22.5707 6.97241 21.9541 6.35374 21.1925 6.35374H17.76C17.0475 6.30254 16.4821 5.70521 16.4821 4.97774C16.4821 4.21614 17.1008 3.59961 17.8624 3.59961H23.2683C23.2725 3.59961 23.2789 3.59961 23.2853 3.59961H29.6597L18.4917 15.7959L32 28.3975L23.8443 28.3953C23.8336 28.3975 23.8229 28.3975 23.8101 28.3975V28.3975ZM10.5771 25.6391C11.3365 25.6391 11.9509 26.2535 11.9509 27.0129C11.9509 27.7703 11.3365 28.3868 10.5771 28.3868H5.53387C4.77653 28.3868 4.16 27.7703 4.16 27.0129C4.16 26.2535 4.77653 25.6391 5.53387 25.6391H10.5771ZM8.58027 20.1287C9.34187 20.1287 9.9584 20.7452 9.9584 21.5068C9.9584 22.2684 9.34187 22.8849 8.58027 22.8849C7.8208 22.8849 7.20213 22.2684 7.20213 21.5068C7.20213 20.7452 7.8208 20.1287 8.58027 20.1287ZM1.37813 14.6183C2.13973 14.6183 2.75627 15.2369 2.75627 15.9964C2.75627 16.758 2.13973 17.3745 1.37813 17.3745C0.618667 17.3745 0 16.758 0 15.9964C0 15.2369 0.618667 14.6183 1.37813 14.6183ZM6.72 9.10788C7.4816 9.10788 8.09813 9.72654 8.09813 10.4881C8.09813 11.2476 7.4816 11.8663 6.72 11.8663C5.96053 11.8663 5.34187 11.2476 5.34187 10.4881C5.34187 9.72654 5.96053 9.10788 6.72 9.10788V9.10788ZM11.6629 3.59961C12.4224 3.59961 13.0389 4.21401 13.0389 4.97348C13.0389 5.73081 12.4224 6.34734 11.6629 6.34734H8.47573C7.7184 6.34734 7.10187 5.73081 7.10187 4.97348C7.10187 4.21401 7.7184 3.59961 8.47573 3.59961H11.6629V3.59961Z" fill="#0073E6"/>
</svg>
