<svg width="32" height="32" viewBox="0 0 32 32" fill="none" xmlns="http://www.w3.org/2000/svg">
<path fill-rule="evenodd" clip-rule="evenodd" d="M9.50399 18.3653C9.50399 16.158 11.2762 14.3688 13.4638 14.3688C15.6507 14.3688 17.4236 16.158 17.4236 18.3653C17.4236 20.5727 15.6507 22.3619 13.4638 22.3619C11.2762 22.3619 9.50399 20.5727 9.50399 18.3653V18.3653ZM4.75165 18.3653C4.75165 23.2212 8.65292 27.1572 13.4638 27.1572C18.2754 27.1572 22.1753 23.2212 22.1753 18.3653C22.1753 13.5095 18.2754 9.57352 13.4638 9.57352C8.65224 9.57352 4.75233 13.5095 4.75233 18.3653" fill="#FE2020"/>
<path fill-rule="evenodd" clip-rule="evenodd" d="M13.4631 4.77762V9.57421C8.65226 9.57421 4.75166 13.5109 4.75166 18.366C4.75166 23.2219 8.65226 27.1579 13.4631 27.1579C18.2747 27.1579 22.1753 23.2219 22.1753 18.366H26.9277C26.9277 25.8697 20.8994 31.9531 13.4631 31.9531C6.02826 31.9524 0 25.869 0 18.3654C0 10.861 6.02758 4.77762 13.4631 4.77762Z" fill="#2EE5AC"/>
<path fill-rule="evenodd" clip-rule="evenodd" d="M13.4632 4.77761V0.801445C13.4632 0.346636 13.8404 -0.0189809 14.2904 0.000763795C23.693 0.424934 31.2409 8.0423 31.6603 17.5306C31.6654 17.6381 31.6488 17.7454 31.6113 17.8462C31.5738 17.9471 31.5163 18.0393 31.4423 18.1173C31.3682 18.1953 31.2792 18.2574 31.1804 18.3001C31.0817 18.3427 30.9753 18.3649 30.8678 18.3654H26.927C26.927 10.861 20.8994 4.77761 13.4632 4.77761" fill="#2EE5AC"/>
<path fill-rule="evenodd" clip-rule="evenodd" d="M13.4632 9.57422V4.77695C20.8994 4.77695 26.927 10.8604 26.927 18.3647H22.1753C22.1753 13.5089 18.2747 9.57286 13.4632 9.57286" fill="#6464FF"/>
<path fill-rule="evenodd" clip-rule="evenodd" d="M13.4632 22.3613C15.6507 22.3613 17.4237 20.572 17.4237 18.3647C17.4237 16.158 15.6507 14.3694 13.4632 14.3694C11.2763 14.3694 9.50333 16.158 9.50333 18.3654C9.50333 20.572 11.2763 22.362 13.4632 22.362" fill="#0A0A0A"/>
</svg>
