<svg xmlns="http://www.w3.org/2000/svg" width="700" height="700" viewBox="0 0 700 700"><g transform="translate(-1498.542 -784.583)"><path stroke-miterlimit="2.613" d="M2075.437 1277.961c-22.163 2.487-44.683 3.811-67.52 3.811-167.263 0-318.3-68.579-425.956-178.811 15.652-133.332 129.008-236.786 266.545-236.786 156.004 0 268.409 131.895 268.409 268.409 0 52.727-15.215 101.896-41.478 143.377z" clip-rule="evenodd" fill="none" fill-rule="evenodd" stroke="#000" stroke-width="24"/><path stroke-miterlimit="2.613" d="M2103.123 1219.717a604.641 604.641 0 0 1-72.693 4.395c-170.719 0-324.529-71.448-432.567-185.704 38.675-100.727 136.302-172.234 250.644-172.234 156.004 0 268.409 131.895 268.409 268.409 0 29.759-4.853 58.382-13.793 85.134z" clip-rule="evenodd" fill="none" fill-rule="evenodd" stroke="#000" stroke-width="24"/><path stroke-miterlimit="2.613" d="M2114.399 1171.344a605.864 605.864 0 0 1-61.84 3.169c-169.741 0-322.774-70.624-430.714-183.737 47.62-74.899 131.333-124.602 226.662-124.602 156.004 0 268.409 131.895 268.409 268.409 0 12.473-.87 24.741-2.517 36.761z" clip-rule="evenodd" fill="none" fill-rule="evenodd" stroke="#000" stroke-width="24"/><linearGradient id="a" gradientUnits="userSpaceOnUse" x1="1580.098" y1="1134.584" x2="2116.916" y2="1134.583"><stop offset="0" stop-color="#00a884"/><stop offset=".5" stop-color="#51b958"/><stop offset="1" stop-color="#85c441"/></linearGradient><path stroke-miterlimit="2.613" d="M1848.507 866.174c156.004 0 268.409 131.895 268.409 268.409 0 148.238-120.171 268.409-268.409 268.409-157.903 0-268.409-127.963-268.409-268.409 0-148.238 120.171-268.409 268.409-268.409z" clip-rule="evenodd" fill="url(#a)" fill-rule="evenodd" stroke="#000" stroke-width="24"/><path stroke-miterlimit="2.613" d="M1621.725 990.969c7.818 37.928 11.929 77.188 11.929 117.397 0 53.512-7.311 105.329-20.927 154.572-20.802-38.13-32.628-81.861-32.628-128.355-.001-52.827 15.271-102.084 41.626-143.614z" clip-rule="evenodd" fill="none" fill-rule="evenodd" stroke="#000" stroke-width="24"/><path stroke-miterlimit="2.613" d="M1693.879 915.174c22.752 62.141 35.178 129.167 35.178 199.067 0 81.796-15.147 162.277-45.824 232.974-61.711-49.177-103.135-127.59-103.135-212.633 0-90.659 43.235-172.915 113.781-219.408z" clip-rule="evenodd" fill="none" fill-rule="evenodd" stroke="#000" stroke-width="24"/><path stroke-miterlimit="2.613" d="M1862.236 866.52c39.224 78.197 61.31 166.278 61.31 259.471 0 100.197-25.507 194.498-70.425 276.942-1.537.026-3.072.059-4.614.059-157.903 0-268.409-127.963-268.409-268.409 0-148.238 120.171-268.409 268.409-268.409 4.604 0 9.181.117 13.729.346z" clip-rule="evenodd" fill="none" fill-rule="evenodd" stroke="#000" stroke-width="24"/><path stroke-miterlimit="2.613" d="M1911.491 873.625c37.925 77.151 59.215 163.768 59.215 255.304 0 96.626-23.722 187.771-65.696 268.085a269.415 269.415 0 0 1-56.503 5.978c-157.903 0-268.409-127.963-268.409-268.409 0-148.238 120.171-268.409 268.409-268.409 21.695 0 42.781 2.593 62.984 7.451z" clip-rule="evenodd" fill="none" fill-rule="evenodd" stroke="#000" stroke-width="24"/><path stroke-miterlimit="2.613" d="M1966.364 893.383c32.945 72.838 51.286 153.541 51.286 238.483 0 87.671-19.549 170.819-54.519 245.471-34.763 16.444-73.615 25.655-114.624 25.655-157.903 0-268.409-127.963-268.409-268.409 0-148.238 120.171-268.409 268.409-268.409 42.285 0 82.278 9.791 117.857 27.209z" clip-rule="evenodd" fill="none" fill-rule="evenodd" stroke="#000" stroke-width="24"/><path stroke-miterlimit="2.613" d="M1815.858 868.155c37.8 77.049 59.012 163.523 59.012 254.899 0 99.965-25.394 194.06-70.119 276.368-137.088-22.48-224.653-137.71-224.653-264.839 0-137.185 102.922-250.317 235.76-266.428z" clip-rule="evenodd" fill="none" fill-rule="evenodd" stroke="#000" stroke-width="24"/><path stroke-miterlimit="2.613" d="M2034.605 941.181c23.217 65.437 33.238 130.118 33.238 193.624 0 67.613-11.645 132.529-32.996 192.945-48.276 46.581-113.957 75.243-186.34 75.243-157.903 0-268.409-127.963-268.409-268.409 0-148.238 120.171-268.409 268.409-268.409 72.261-.001 137.844 28.564 186.098 75.006z" clip-rule="evenodd" fill="none" fill-rule="evenodd" stroke="#000" stroke-width="24"/><path stroke-miterlimit="2.613" d="M1772.606 877.077c34.256 74.023 53.37 156.322 53.37 243.04 0 96.604-23.71 187.728-65.667 268.029-114.574-39.849-180.212-140.654-180.212-253.562.001-121.876 81.237-224.76 192.509-257.507z" clip-rule="evenodd" fill="none" fill-rule="evenodd" stroke="#000" stroke-width="24"/><path stroke-miterlimit="2.613" d="M1732.829 892.321c29.192 69.229 45.338 145.176 45.338 224.858 0 90.671-26.366 170.979-63.62 247.578-78.406-42.825-134.448-124.206-134.448-230.173-.001-106.817 62.398-199.053 152.73-242.263z" clip-rule="evenodd" fill="none" fill-rule="evenodd" stroke="#000" stroke-width="24"/><path stroke-miterlimit="2.613" d="M1658.441 945.068c15.246 51.879 23.45 106.718 23.45 163.456 0 70.951-10.925 141.568-34.335 204.493-40.862-47.097-67.458-111.186-67.458-178.434 0-73.979 29.932-140.965 78.343-189.515z" clip-rule="evenodd" fill="none" fill-rule="evenodd" stroke="#000" stroke-width="24"/><linearGradient id="b" gradientUnits="userSpaceOnUse" x1="1618.571" y1="1255.621" x2="2410.554" y2="841.464"><stop offset="0" stop-color="#85c441"/><stop offset=".37" stop-color="#51b958"/><stop offset="1" stop-color="#00a884"/></linearGradient><path stroke-miterlimit="2.613" d="M2061.911 1086.055a578.282 578.282 0 0 0 29.319-66.163c-10.085-21.306-25.096-45.979-48.299-70.354a575.51 575.51 0 0 1-5.269 11.447 581.579 581.579 0 0 1-32.55 59.466 586.445 586.445 0 0 1-38.812 54.78 590.722 590.722 0 0 1-44.815 50.023 593.098 593.098 0 0 1-31.501 29.181 592.404 592.404 0 0 1-107.701-39.751l-9.455-4.679a593.358 593.358 0 0 1-154.799-113.033 266.735 266.735 0 0 0-35.987 105.284 593.023 593.023 0 0 0 48.258 43.8 593.785 593.785 0 0 0 89.255 59.923 592.785 592.785 0 0 0 54.799 26.416 592.234 592.234 0 0 1-118.904 45.799c-3.206 10.576-4.843 23.646-8.629 33.961 7.607 8.843 57.05 50.716 73.019 58.98 17.925-6.007 39.281-10.27 54.143-16.755a592.855 592.855 0 0 0 63.186-32.202 593.541 593.541 0 0 0 73.386-50.909 599.036 599.036 0 0 0 38.846 4.912 605.304 605.304 0 0 0 56.407 2.622c13.432 0 26.76-.442 39.969-1.313 10.686-.704 21.285-1.717 31.809-2.974 19.167-31.31 32.092-66.852 37.054-104.897a602.796 602.796 0 0 1-72.39 4.349 608.466 608.466 0 0 1-35.789-1.052 587.447 587.447 0 0 0 8.296-11.039 583.601 583.601 0 0 0 47.154-75.822z" clip-rule="evenodd" fill="url(#b)" fill-rule="evenodd" stroke="#000" stroke-width=".5"/><path stroke-miterlimit="2.613" d="M2114.428 1171.132c-22.999 2.683-46.389 4.104-70.118 4.104-167.263 0-318.301-68.58-425.957-178.813 46.946-78.038 132.448-130.249 230.153-130.249 156.004 0 268.409 131.895 268.409 268.409 0 12.4-.859 24.596-2.487 36.549z" clip-rule="evenodd" fill="none" fill-rule="evenodd" stroke="#000" stroke-width="24"/><path stroke-miterlimit="2.613" d="M2076.583 1276.126c-22.548 2.576-45.467 3.945-68.713 3.945-167.151 0-318.096-68.489-425.738-178.591 16.313-132.618 129.347-235.306 266.376-235.306 156.004 0 268.409 131.895 268.409 268.409-.001 51.954-14.778 100.449-40.334 141.543z" clip-rule="evenodd" fill="none" fill-rule="evenodd" stroke="#000" stroke-width="24"/><path stroke-miterlimit="2.613" d="M2103.104 1219.774a603.619 603.619 0 0 1-85.952 6.16c-165.926 0-315.877-67.495-423.359-176.183 35.507-106.662 136.123-183.577 254.714-183.577 156.004 0 271.743 131.731 268.409 268.409-.727 29.771-4.859 58.423-13.812 85.191z" clip-rule="evenodd" fill="none" fill-rule="evenodd" stroke="#000" stroke-width="24"/><linearGradient id="c" gradientUnits="userSpaceOnUse" x1="1594.537" y1="1316.947" x2="2488.896" y2="849.255"><stop offset="0" stop-color="#85c441"/><stop offset=".37" stop-color="#51b958"/><stop offset="1" stop-color="#00a884"/></linearGradient><path stroke-miterlimit="2.613" d="M2061.911 1086.055a578.282 578.282 0 0 0 29.319-66.163c-10.085-21.306-25.096-45.979-48.299-70.354a575.51 575.51 0 0 1-5.269 11.447 581.579 581.579 0 0 1-32.55 59.466 586.445 586.445 0 0 1-38.812 54.78 591.622 591.622 0 0 1-65.134 69.326v.001c-36.287 37.638-92.492 69.909-127.049 87.739l.238.1a592.194 592.194 0 0 1-30.371 14.559l-.306.136-.074.033a592.497 592.497 0 0 1-88.153 31.071c-3.206 10.576-4.843 23.646-8.629 33.961 7.607 8.843 57.05 50.716 73.019 58.98 17.925-6.007 39.281-10.27 54.143-16.755a592.855 592.855 0 0 0 63.186-32.202 594.006 594.006 0 0 0 63.78-43.276s64.372-52.055 109.145-110.753a595.269 595.269 0 0 0 8.201-11.148 583.607 583.607 0 0 0 43.615-70.948z" clip-rule="evenodd" fill="url(#c)" fill-rule="evenodd" stroke="#000" stroke-width=".5"/><path stroke-miterlimit="2.613" d="M2096.363 1031.428c-60.74 151.196-211.295 287.978-376.275 339.839-81.431-42.03-139.99-137.85-139.99-236.684 0-148.238 120.171-268.409 268.409-268.409 114.565 0 216.284 78.317 247.856 165.254z" clip-rule="evenodd" fill="none" fill-rule="evenodd" stroke="#000" stroke-width="24"/><path stroke-miterlimit="2.613" d="M2072.65 986.979c-71.729 170.785-224.011 298.921-409.109 342.911-50.304-48.784-83.443-119.698-83.443-195.307 0-148.238 120.171-268.409 268.409-268.409 91.807 0 175.746 50.5 224.143 120.805z" clip-rule="evenodd" fill="none" fill-rule="evenodd" stroke="#000" stroke-width="24"/><path stroke-miterlimit="2.613" d="M2042.578 949.17c-76.415 168.331-230.994 294.453-418.084 333.29-28.049-42.405-44.396-93.228-44.396-147.877 0-148.238 120.171-268.409 268.409-268.409 76.321 0 145.2 31.857 194.071 82.996z" clip-rule="evenodd" fill="none" fill-rule="evenodd" stroke="#000" stroke-width="24"/><path d="M1653.156 1288.156l-11.25 3.094 4.498 20.412a271.255 271.255 0 0 0 7.198 8.068l8.67-2.089-9.116-29.485z" clip-rule="evenodd" fill="#77c043" fill-rule="evenodd"/></g><path stroke-miterlimit="2.613" d="M349.965 618.409c147.834 0 268.41-120.574 268.41-268.41 0-136.11-112.809-268.409-268.41-268.409C202.13 81.59 81.556 202.166 81.556 350c0 140.042 110.91 268.409 268.41 268.409z" clip-rule="evenodd" fill="none" fill-rule="evenodd" stroke="#000" stroke-width="24"/></svg>