<svg width="32" height="32" viewBox="0 0 32 32" fill="none" xmlns="http://www.w3.org/2000/svg">
<path d="M4.618 28.89C4.319 29.189 4.027 29.368 3.744 29.428C3.46 29.488 2.705 29.533 1.48 29.563H0V31.625H0.493C1.001 31.535 3.153 31.49 6.949 31.49C10.745 31.49 12.897 31.535 13.405 31.625H13.898V29.563H12.418C10.654 29.534 9.653 29.354 9.414 29.025C9.324 28.906 9.279 27.441 9.279 24.631V20.372L11.341 18.354C12.0398 17.7085 12.7276 17.051 13.404 16.382C13.613 16.173 13.792 16.009 13.942 15.889L17.843 21.762C20.174 25.349 21.504 27.382 21.833 27.86C21.923 28.039 21.968 28.219 21.968 28.398C21.968 29.176 21.28 29.564 19.906 29.564H19.547V31.626H20.04C20.668 31.536 22.804 31.491 26.452 31.491C26.721 31.491 27.125 31.499 27.663 31.513C28.201 31.528 28.619 31.535 28.918 31.535C29.216 31.535 29.598 31.543 30.061 31.557C30.524 31.572 30.868 31.587 31.092 31.602C31.316 31.617 31.458 31.624 31.518 31.624H31.877V29.562H30.935C29.68 29.533 28.783 29.368 28.245 29.069C27.8101 28.8149 27.4414 28.4616 27.169 28.038L21.99 20.259C18.717 15.342 17.08 12.869 17.08 12.839C17.08 12.81 18.41 11.509 21.07 8.938C23.73 6.368 25.135 5.008 25.285 4.858C26.6 3.782 28.379 3.184 30.62 3.065H31.248V1.002H30.979C30.949 1.002 30.844 1.01 30.665 1.024C30.486 1.039 30.231 1.054 29.903 1.069C29.6192 1.08271 29.3351 1.09004 29.051 1.091C28.842 1.091 28.528 1.099 28.109 1.113C27.69 1.128 27.362 1.135 27.123 1.135C23.715 1.135 21.757 1.09 21.25 1H20.802V3.062H20.981L21.183 3.084L21.43 3.106C22.266 3.315 22.685 3.749 22.685 4.406C22.625 4.646 22.565 4.81 22.506 4.899C22.446 5.019 20.234 7.216 15.87 11.49L9.324 17.857L9.279 10.907C9.279 6.244 9.294 3.883 9.324 3.823C9.384 3.315 10.221 3.061 11.835 3.061H13.897V1.002H13.404C12.895 1.092 10.743 1.137 6.948 1.137C3.152 1.137 1 1.092 0.492 1.002H0V3.064H1.48C2.705 3.094 3.46 3.139 3.744 3.199C4.028 3.259 4.319 3.439 4.618 3.737V28.89Z" fill="black"/>
</svg>
