<svg width="288" height="288" viewBox="0 0 288 288" fill="none" xmlns="http://www.w3.org/2000/svg">
<path d="M144 0.600098C92.2 0.600098 46.8 28.1001 21.6 69.3001C8.30001 91.0001 0.600006 116.6 0.600006 144C0.600006 223.2 64.8 287.4 144 287.4C223.2 287.4 287.4 223.2 287.4 144C287.4 64.8001 223.2 0.600098 144 0.600098ZM228.8 86.5001L201.8 203.5C200.7 208.2 196 212 191.3 212H73.1C68.4 212 65.4 208.2 66.5 203.5L74.3 169.8C74.6 168.5 75.7 167.6 77 167.6H139.4C142.7 167.6 146 164.9 146.8 161.7L147.4 159C148.2 155.7 146.1 153.1 142.8 153.1H44.1C40.8 153.1 38.7 150.4 39.5 147L40.5 142.5C41.3 139.2 44.6 136.4 47.9 136.4H146.5C149.8 136.4 153.1 133.7 153.8 130.5L154.4 127.8C155.2 124.5 153.1 121.9 149.8 121.9H69.6C66.3 121.9 64.2 119.2 65 116L65.8 112.7C66.6 109.4 69.9 106.8 73.1 106.8H153.3C156.6 106.8 159.9 104.1 160.6 100.9L161.2 98.2001C161.8 95.5001 160.5 93.2001 158.1 92.5001C157.9 92.4001 157.6 92.4001 157.4 92.4001H91C87.7 92.4001 85.6 89.7001 86.4 86.5001L87 84.0001C87.8 80.7001 91.1 78.1001 94.3 78.1001H222.2C226.9 78.0001 229.9 81.9001 228.8 86.5001Z" fill="#2DEE00"/>
</svg>
