<svg width="32" height="32" viewBox="0 0 32 32" fill="none" xmlns="http://www.w3.org/2000/svg">
<g clip-path="url(#clip0_1_15)">
<path d="M16 32C24.8366 32 32 24.8366 32 16C32 7.16344 24.8366 0 16 0C7.16344 0 0 7.16344 0 16C0 24.8366 7.16344 32 16 32Z" fill="#5C2D91"/>
<path opacity="0.1" d="M4.91 4.5C3.28348 5.94941 1.9701 7.71572 1.05036 9.69067C0.130617 11.6656 -0.376105 13.8076 -0.43875 15.9853C-0.501394 18.163 -0.11864 20.3306 0.686051 22.3551C1.49074 24.3797 2.70042 26.2186 4.24093 27.7591C5.78144 29.2996 7.62033 30.5093 9.64488 31.3139C11.6694 32.1186 13.837 32.5014 16.0147 32.4388C18.1924 32.3761 20.3344 31.8694 22.3093 30.9496C24.2843 30.0299 26.0506 28.7165 27.5 27.09L4.91 4.5Z" fill="white"/>
<path d="M3.7 18.625C3.60667 18.6265 3.51405 18.6086 3.42799 18.5724C3.34192 18.5363 3.26429 18.4827 3.2 18.415C3.13395 18.3497 3.08174 18.2718 3.04652 18.1859C3.01129 18.1 2.99377 18.0078 2.995 17.915C2.99434 17.8222 3.01212 17.7303 3.04731 17.6444C3.0825 17.5586 3.1344 17.4806 3.2 17.415C3.26366 17.3462 3.34106 17.2915 3.42719 17.2544C3.51332 17.2174 3.60626 17.1989 3.7 17.2C3.79361 17.1998 3.88628 17.2187 3.97227 17.2557C4.05827 17.2927 4.13577 17.3469 4.2 17.415C4.26673 17.48 4.31971 17.5578 4.35578 17.6437C4.39186 17.7296 4.4103 17.8218 4.41 17.915C4.41088 18.0082 4.3927 18.1007 4.35659 18.1867C4.32048 18.2726 4.2672 18.3503 4.2 18.415C4.13516 18.482 4.05743 18.5351 3.9715 18.5712C3.88556 18.6073 3.79321 18.6256 3.7 18.625Z" fill="white"/>
<path d="M13.635 18.5H12.325L7.64 11.23C7.5233 11.0509 7.42608 10.8598 7.35 10.66H7.31C7.35452 11.0751 7.37123 11.4927 7.36 11.91V18.5H6.295V9.385H7.68L12.24 16.525C12.43 16.8217 12.5533 17.025 12.61 17.135H12.635C12.5822 16.6904 12.5605 16.2426 12.57 15.795V9.385H13.635V18.5Z" fill="white"/>
<path d="M20.845 18.5H16V9.385H20.62V10.35H17.09V13.38H20.38V14.34H17.09V17.5H20.85L20.845 18.5Z" fill="white"/>
<path d="M28 10.35H25.35V18.5H24.285V10.35H21.665V9.385H28V10.35Z" fill="white"/>
<path d="M13.06 24.7C12.699 24.8748 12.3008 24.9589 11.9 24.945C11.6336 24.957 11.3678 24.9119 11.1203 24.8127C10.8728 24.7136 10.6494 24.5626 10.465 24.37C10.0976 23.9588 9.90404 23.421 9.925 22.87C9.91155 22.5716 9.95817 22.2736 10.0621 21.9936C10.166 21.7136 10.3251 21.4573 10.53 21.24C10.7296 21.0355 10.9697 20.8747 11.2348 20.768C11.4999 20.6613 11.7843 20.6109 12.07 20.62C12.4119 20.6083 12.7524 20.6679 13.07 20.795V21.295C12.7642 21.1257 12.4194 21.0395 12.07 21.045C11.8497 21.0388 11.6306 21.0803 11.4278 21.1666C11.225 21.2529 11.0433 21.3819 10.895 21.545C10.5832 21.9002 10.4218 22.3629 10.445 22.835C10.4217 23.2822 10.5721 23.7212 10.865 24.06C11.0055 24.211 11.177 24.3299 11.3677 24.4085C11.5584 24.487 11.7639 24.5233 11.97 24.515C12.3539 24.525 12.733 24.4281 13.065 24.235L13.06 24.7Z" fill="#F2F2F2"/>
<path d="M15.105 24.945C14.906 24.9514 14.7079 24.915 14.5241 24.8383C14.3404 24.7615 14.1753 24.6461 14.04 24.5C13.7666 24.1949 13.6246 23.7942 13.645 23.385C13.6325 23.1706 13.6628 22.9559 13.734 22.7533C13.8053 22.5508 13.9161 22.3644 14.06 22.205C14.2069 22.0616 14.3816 21.95 14.5734 21.8769C14.7652 21.8038 14.97 21.7708 15.175 21.78C15.3688 21.7697 15.5626 21.8014 15.7429 21.8731C15.9233 21.9447 16.0861 22.0545 16.22 22.195C16.4857 22.5153 16.6198 22.9246 16.595 23.34C16.616 23.7616 16.4705 24.1746 16.19 24.49C16.0522 24.639 15.884 24.7567 15.6968 24.8352C15.5097 24.9136 15.3079 24.9511 15.105 24.945V24.945ZM15.14 22.21C15.0025 22.2042 14.8654 22.2295 14.739 22.2841C14.6126 22.3386 14.5001 22.421 14.41 22.525C14.2176 22.7727 14.1217 23.0819 14.14 23.395C14.1225 23.6988 14.2188 23.9983 14.41 24.235C14.5011 24.3376 14.6138 24.4186 14.7401 24.4722C14.8663 24.5258 15.0029 24.5507 15.14 24.545C15.2742 24.5529 15.4084 24.53 15.5323 24.478C15.6563 24.426 15.7666 24.3463 15.855 24.245C16.0368 23.9966 16.1253 23.6921 16.105 23.385C16.1248 23.0764 16.0364 22.7705 15.855 22.52C15.7679 22.4166 15.658 22.3348 15.5339 22.281C15.4099 22.2272 15.275 22.2029 15.14 22.21V22.21Z" fill="#F2F2F2"/>
<path d="M18.93 22.36C18.822 22.2893 18.6938 22.2559 18.565 22.265C18.4643 22.2687 18.366 22.297 18.2788 22.3476C18.1916 22.3982 18.1182 22.4694 18.065 22.555C17.9162 22.7906 17.8445 23.0668 17.86 23.345V24.875H17.36V21.875H17.86V22.5C17.915 22.3066 18.0243 22.1331 18.175 22C18.3054 21.8868 18.4723 21.8247 18.645 21.825C18.7417 21.8207 18.8383 21.8342 18.93 21.865V22.36Z" fill="#F2F2F2"/>
<path d="M21.86 23.5H19.745C19.7308 23.7795 19.8218 24.0542 20 24.27C20.0927 24.3624 20.2038 24.4343 20.3262 24.4808C20.4485 24.5273 20.5793 24.5475 20.71 24.54C21.0489 24.5366 21.3768 24.4185 21.64 24.205V24.655C21.3309 24.8588 20.9648 24.9586 20.595 24.94C20.4084 24.9494 20.2221 24.9176 20.0492 24.8467C19.8764 24.7758 19.7213 24.6677 19.595 24.53C19.3347 24.2053 19.2046 23.7954 19.23 23.38C19.212 22.9636 19.3533 22.556 19.625 22.24C19.7487 22.0971 19.9025 21.9836 20.0755 21.9075C20.2484 21.8314 20.4361 21.7947 20.625 21.8C20.7955 21.7904 20.966 21.8197 21.1236 21.8855C21.2813 21.9513 21.4219 22.052 21.535 22.18C21.7652 22.4836 21.8788 22.8597 21.855 23.24L21.86 23.5ZM21.36 23.095C21.3701 22.8633 21.2994 22.6353 21.16 22.45C21.0916 22.3727 21.0066 22.3119 20.9113 22.272C20.8161 22.2322 20.7131 22.2144 20.61 22.22C20.5024 22.2187 20.3957 22.2398 20.2967 22.282C20.1977 22.3241 20.1086 22.3865 20.035 22.465C19.8704 22.6391 19.7669 22.862 19.74 23.1L21.36 23.095Z" fill="#F2F2F2"/>
</g>
<defs>
<clipPath id="clip0_1_15">
<rect width="32" height="32" fill="white"/>
</clipPath>
</defs>
</svg>
