<svg width="32" height="32" viewBox="0 0 32 32" fill="none" xmlns="http://www.w3.org/2000/svg">
<path d="M12.8 0.490282V13.0503C12.7941 13.3116 12.7204 13.567 12.5861 13.7912C12.4518 14.0155 12.2616 14.2011 12.034 14.3298C11.8064 14.4584 11.5493 14.5257 11.2879 14.5252C11.0265 14.5246 10.7697 14.4561 10.5427 14.3264L6.52033 12.0864C6.29121 11.961 6.09986 11.7765 5.96616 11.552C5.83245 11.3276 5.76127 11.0715 5.76001 10.8103V0.490282C5.76084 0.42506 5.77452 0.360642 5.80025 0.300706C5.82599 0.240771 5.86327 0.186491 5.90999 0.140967C5.9567 0.0954425 6.01192 0.059566 6.0725 0.035386C6.13308 0.0112059 6.19783 -0.000804127 6.26305 4.17682e-05H12.297C12.3622 -0.000804127 12.4269 0.0112059 12.4875 0.035386C12.5481 0.059566 12.6033 0.0954425 12.65 0.140967C12.6967 0.186491 12.734 0.240771 12.7598 0.300706C12.7855 0.360642 12.7992 0.42506 12.8 0.490282ZM10.5427 17.0336L6.52033 19.2736C6.29121 19.3991 6.09986 19.5836 5.96616 19.808C5.83245 20.0325 5.76127 20.2886 5.76001 20.5498V30.8698C5.76084 30.935 5.77452 30.9994 5.80025 31.0594C5.82599 31.1193 5.86327 31.1736 5.90999 31.2191C5.9567 31.2646 6.01192 31.3005 6.0725 31.3247C6.13308 31.3489 6.19783 31.3609 6.26305 31.36H12.297C12.3622 31.3609 12.4269 31.3489 12.4875 31.3247C12.5481 31.3005 12.6033 31.2646 12.65 31.2191C12.6967 31.1736 12.734 31.1193 12.7598 31.0594C12.7855 30.9994 12.7992 30.935 12.8 30.8698V18.3098C12.7941 18.0485 12.7204 17.7931 12.5861 17.5688C12.4518 17.3445 12.2616 17.159 12.034 17.0303C11.8064 16.9017 11.5493 16.8343 11.2879 16.8349C11.0265 16.8355 10.7697 16.904 10.5427 17.0336V17.0336Z" fill="#D52E14"/>
<path d="M6.55745 19.703L12.8 18.3097V25.9148L6.50945 20.7711C6.17857 20.4998 5.76769 20.6246 5.76001 20.9919V20.9196V20.5478C5.76001 19.9628 6.55745 19.703 6.55745 19.703ZM6.50945 10.5887C6.17857 10.8601 5.76769 10.7353 5.76001 10.3679V10.4396V10.8121C5.76001 11.399 6.55745 11.6588 6.55745 11.6588L12.8 13.0502V5.44507L6.50945 10.5887Z" fill="#AD0600"/>
<path d="M26.88 24.1856V30.6125C26.8781 30.6997 26.8535 30.7848 26.8088 30.8596C26.764 30.9345 26.7006 30.9964 26.6247 31.0393C26.5488 31.0822 26.4631 31.1047 26.3759 31.1044C26.2887 31.1042 26.2031 31.0814 26.1274 31.0381L6.51201 20.1158C6.43698 20.0728 6.35211 20.0499 6.26561 20.0493C6.17912 20.0487 6.09393 20.0704 6.0183 20.1124C5.94267 20.1543 5.87916 20.2151 5.8339 20.2888C5.78865 20.3625 5.7632 20.4467 5.76001 20.5331C5.76303 20.2786 5.83371 20.0294 5.96481 19.8112C6.09927 19.5861 6.29094 19.4006 6.52033 19.2736L12.0518 16.192C12.2807 16.0648 12.5382 15.9981 12.8 15.9981C13.0618 15.9981 13.3193 16.0648 13.5482 16.192L26.3731 23.335C26.5259 23.4186 26.6535 23.5416 26.7426 23.6912C26.8318 23.8407 26.8792 24.0115 26.88 24.1856ZM26.1274 0.320002L6.51201 11.2442C6.43698 11.2872 6.35211 11.3101 6.26561 11.3107C6.17912 11.3113 6.09393 11.2896 6.0183 11.2476C5.94267 11.2057 5.87916 11.1449 5.8339 11.0712C5.78865 10.9975 5.7632 10.9133 5.76001 10.8269C5.76303 11.0814 5.83371 11.3306 5.96481 11.5488C6.09927 11.7739 6.29094 11.9594 6.52033 12.0864L12.0518 15.168C12.2807 15.2952 12.5382 15.3619 12.8 15.3619C13.0618 15.3619 13.3193 15.2952 13.5482 15.168L26.3731 8.02496C26.5259 7.94139 26.6535 7.81842 26.7426 7.66884C26.8318 7.51926 26.8792 7.34853 26.88 7.1744V0.747522C26.8784 0.660192 26.8541 0.574782 26.8095 0.499698C26.7649 0.424613 26.7015 0.362442 26.6255 0.319302C26.5496 0.276162 26.4637 0.25354 26.3763 0.253663C26.289 0.253785 26.2032 0.276648 26.1274 0.320002V0.320002Z" fill="#FD563C"/>
</svg>
