<svg width="32" height="32" viewBox="0 0 32 32" fill="none" xmlns="http://www.w3.org/2000/svg">
<path d="M5.76 12.32C9.65333 12.32 13.3333 13.3333 16.5333 15.04L27.9467 1.33333H5.33333V28.5333V12.32H5.76Z" fill="#E9478B"/>
<path d="M16.5333 15.04L5.33333 28.5333V30.6667H27.8933C26.6133 23.9467 22.3467 18.24 16.5333 15.04Z" fill="#3EBEB0"/>
<path d="M16.5333 15.04L5.33333 28.5333V30.6667H9.33333L20.2133 17.5467C20.2133 17.5467 19.4667 16.96 18.4533 16.2133C17.7067 15.68 16.5333 15.04 16.5333 15.04V15.04Z" fill="#37A595"/>
<path d="M5.76 12.32H5.33333V28.5333L16.5333 15.04C13.3333 13.3333 9.65333 12.32 5.76 12.32V12.32Z" fill="#353535"/>
</svg>
