<svg width="32" height="32" viewBox="0 0 32 32" fill="none" xmlns="http://www.w3.org/2000/svg">
<g clip-path="url(#clip0_3861_141)">
<path fill-rule="evenodd" clip-rule="evenodd" d="M27.3437 4.82501C24.3655 1.88495 20.3263 0.232727 16.1136 0.232727C11.9007 0.232727 7.86304 1.88495 4.88475 4.82501C1.90647 7.76506 0.232727 11.7544 0.232727 15.912C0.232727 20.0697 1.90647 24.059 4.88475 26.999C7.86304 29.9392 11.9021 31.5913 16.115 31.5913H31.9958V15.912C31.9958 11.7529 30.322 7.76506 27.3437 4.82501ZM26.9089 10.7622C28.2543 12.0705 29.0349 13.8516 29.0846 15.7262V16.0965C29.0394 19.2472 27.8428 22.2736 25.721 24.6079C23.5978 26.942 20.6955 28.423 17.5567 28.7728C16.5994 28.8782 15.6319 28.8782 14.6747 28.7728C11.5359 28.423 8.63205 26.942 6.51032 24.6079C4.38715 22.2736 3.19204 19.2472 3.14681 16.0965V15.7262C3.19496 13.8516 3.97564 12.0705 5.32252 10.7622C6.66793 9.45388 8.47299 8.72216 10.3525 8.72216C11.4994 8.72216 12.5982 9.17729 13.4095 9.98511C14.2209 10.7944 14.6761 11.8905 14.6761 13.0349V19.6233C14.6761 20.9287 15.1942 22.18 16.1179 23.1005C17.0402 22.18 17.5596 20.9287 17.5596 19.6233V13.0349C17.5596 11.8905 18.0148 10.7944 18.8262 9.98511C19.6375 9.17583 20.7363 8.72216 21.8833 8.72216C23.7627 8.72216 25.5679 9.45388 26.9133 10.7622H26.9089ZM11.7898 18.7877V16.6306C11.7898 16.0891 11.587 15.5667 11.2193 15.1672C10.8515 14.7676 10.3466 14.5218 9.80527 14.4765C9.2639 14.4311 8.72543 14.592 8.29788 14.9257C7.86887 15.2593 7.58286 15.7409 7.49385 16.275C7.47487 16.392 7.46467 16.5106 7.46467 16.6306C7.46467 17.2029 7.69231 17.7516 8.09797 18.1555C8.50363 18.5594 9.05377 18.7877 9.62579 18.7877H11.7898ZM22.5983 18.7877C23.1718 18.7877 23.7219 18.5609 24.1261 18.1555C24.5318 17.7516 24.7594 17.2029 24.7594 16.6306C24.7594 16.5121 24.7493 16.3935 24.7303 16.275C24.6413 15.7409 24.3553 15.2579 23.9262 14.9257C23.4972 14.592 22.9602 14.4325 22.4189 14.4765C21.8774 14.5218 21.3726 14.7676 21.0063 15.1672C20.6386 15.5667 20.4358 16.0891 20.4358 16.6306V18.7877H22.5983Z" fill="#0C0C0E"/>
</g>
<defs>
<clipPath id="clip0_3861_141">
<rect width="32" height="32" fill="white"/>
</clipPath>
</defs>
</svg>
