<?xml version="1.0" encoding="UTF-8" standalone="no"?>
<!DOCTYPE svg PUBLIC "-//W3C//DTD SVG 1.1//EN" "http://www.w3.org/Graphics/SVG/1.1/DTD/svg11.dtd">
<svg width="100%" height="100%" viewBox="0 0 800 800" version="1.1" xmlns="http://www.w3.org/2000/svg" xmlns:xlink="http://www.w3.org/1999/xlink" xml:space="preserve" xmlns:serif="http://www.serif.com/" style="fill-rule:evenodd;clip-rule:evenodd;stroke-linejoin:round;stroke-miterlimit:2;">
    <g transform="matrix(2,0,0,2,0,0)">
        <g id="_6f7c9d94-fa87-409e-8541-befd9f1e8612" serif:id="6f7c9d94-fa87-409e-8541-befd9f1e8612">
        </g>
        <g id="Artboard1" transform="matrix(1.38285,0,0,1.38285,-1212.26,-252.797)">
            <rect x="876.639" y="182.808" width="289.257" height="289.257" style="fill:none;"/>
            <clipPath id="_clip1">
                <rect x="876.639" y="182.808" width="289.257" height="289.257"/>
            </clipPath>
            <g clip-path="url(#_clip1)">
                <g id="_6f7c9d94-fa87-409e-8541-befd9f1e86121" serif:id="6f7c9d94-fa87-409e-8541-befd9f1e8612" transform="matrix(0.482096,0,0,0.482096,828.429,182.808)">
                    <rect x="0" y="0" width="800" height="600" style="fill:rgb(83,51,237);"/>
                    <g transform="matrix(0.90376,0,0,0.90376,38.4942,28.8759)">
                        <path d="M362.68,266.54C358.911,262.72 354.438,259.664 349.51,257.54C344.456,255.371 339.01,254.265 333.51,254.29C328.341,254.281 323.215,255.241 318.4,257.12C313.634,258.972 309.247,261.684 305.46,265.12L298.81,257.4C298.093,256.575 297.053,256.097 295.96,256.09L295.75,256.09C295.75,256.09 295.75,256.09 295.75,256.09C293.682,256.09 291.98,257.792 291.98,259.86C291.98,259.863 291.98,259.867 291.98,259.87L291.98,345.27C291.974,347.345 293.675,349.059 295.75,349.07L311.83,349.07C313.905,349.065 315.61,347.355 315.61,345.28C315.61,345.277 315.61,345.273 315.61,345.27L315.61,296C315.596,293.63 316.066,291.282 316.99,289.1C317.875,286.978 319.166,285.048 320.79,283.42C324.17,280.061 328.755,278.188 333.52,278.22C335.867,278.205 338.192,278.675 340.35,279.6C344.602,281.422 347.985,284.826 349.78,289.09C350.699,291.274 351.168,293.621 351.16,295.99L351.16,345.33C351.16,347.407 352.863,349.119 354.94,349.13L371,349.13C373.075,349.119 374.776,347.405 374.77,345.33L374.77,296C374.8,290.436 373.698,284.924 371.53,279.8C369.444,274.861 366.441,270.361 362.68,266.54ZM545.09,256.33L481.73,256.33C479.66,256.341 477.964,258.05 477.97,260.12L477.97,276.12C477.97,276.123 477.97,276.127 477.97,276.13C477.97,278.194 479.666,279.895 481.73,279.9L485.73,279.9C487.805,279.905 489.51,281.615 489.51,283.69L489.51,307.51C489.481,313.056 490.58,318.551 492.74,323.66C496.992,333.624 504.926,341.575 514.88,345.85C519.963,348.039 525.446,349.149 530.98,349.11L545.13,349.11C547.205,349.105 548.91,347.395 548.91,345.32C548.91,345.317 548.91,345.313 548.91,345.31L548.91,329.31C548.91,329.307 548.91,329.303 548.91,329.3C548.91,327.226 547.204,325.52 545.13,325.52C545.13,325.52 545.13,325.52 545.13,325.52L530.94,325.52C528.534,325.526 526.151,325.04 523.94,324.09C521.814,323.177 519.88,321.871 518.24,320.24C516.614,318.608 515.32,316.675 514.43,314.55C513.5,312.335 513.034,309.952 513.06,307.55L513.06,283.73C513.06,281.658 514.758,279.951 516.83,279.94L545.12,279.94C547.194,279.94 548.9,278.234 548.9,276.16L548.9,260.16C548.9,260.147 548.9,260.133 548.9,260.12C548.9,258.041 547.189,256.33 545.11,256.33C545.103,256.33 545.097,256.33 545.09,256.33ZM648.09,254.61L647.93,254.61C646.794,254.605 645.715,255.117 645,256L639.45,262.65C638.736,263.513 637.672,264.014 636.552,264.014C635.666,264.014 634.808,263.701 634.13,263.13C632.78,261.98 631.36,260.89 629.89,259.84C627.391,258.05 624.741,256.481 621.97,255.15C619.226,253.83 616.359,252.782 613.41,252.02C610.495,251.274 607.499,250.895 604.49,250.89C598.177,250.851 591.92,252.079 586.09,254.5C580.439,256.822 575.309,260.249 571,264.58C566.62,269.057 563.161,274.351 560.82,280.16C558.29,286.496 557.03,293.268 557.11,300.09C556.986,307.182 558.246,314.23 560.82,320.84C563.116,326.622 566.582,331.869 571,336.25C575.305,340.45 580.433,343.715 586.06,345.84C591.936,348.07 598.175,349.192 604.46,349.15C607.453,349.147 610.434,348.764 613.33,348.01C616.263,347.253 619.119,346.221 621.86,344.93C624.63,343.629 627.28,342.086 629.78,340.32C631.2,339.32 632.56,338.32 633.89,337.23C634.559,336.686 635.395,336.388 636.257,336.388C637.468,336.388 638.607,336.974 639.31,337.96L644.97,345.83C645.677,346.822 646.822,347.412 648.04,347.412C650.108,347.412 651.81,345.71 651.81,343.642C651.81,343.631 651.81,343.621 651.81,343.61L651.81,258.39C651.816,256.324 650.126,254.616 648.06,254.6L648.09,254.61ZM626.21,309.51C625.012,312.477 623.299,315.209 621.15,317.58C619.027,319.91 616.486,321.823 613.66,323.22C610.818,324.624 607.689,325.349 604.52,325.34C601.404,325.357 598.312,324.798 595.4,323.69C592.594,322.631 590.054,320.968 587.96,318.82C585.762,316.552 584.059,313.851 582.96,310.89C580.535,303.885 580.535,296.265 582.96,289.26C584.068,286.303 585.77,283.604 587.96,281.33C590.059,279.191 592.598,277.532 595.4,276.47C598.313,275.364 601.404,274.805 604.52,274.82C607.69,274.806 610.82,275.532 613.66,276.94C616.492,278.328 619.034,280.242 621.15,282.58C623.298,284.951 625.011,287.683 626.21,290.65C628.677,296.699 628.677,303.481 626.21,309.53L626.21,309.51ZM168.21,256.16L151.94,256.16C151.937,256.16 151.933,256.16 151.93,256.16C149.856,256.16 148.15,257.866 148.15,259.94L148.15,345.34C148.15,347.421 149.859,349.135 151.94,349.14L168.18,349.14C170.255,349.135 171.96,347.425 171.96,345.35C171.96,345.347 171.96,345.343 171.96,345.34L171.96,259.94C171.96,257.87 170.26,256.165 168.19,256.16L168.21,256.16ZM234.71,262.6C235.299,261.912 235.622,261.035 235.622,260.13C235.622,258.056 233.924,256.345 231.85,256.33L213.61,256.33C212.508,256.331 211.461,256.818 210.75,257.66L174.1,300.27C172.842,301.69 172.842,303.85 174.1,305.27L210.75,347.87C211.463,348.708 212.51,349.191 213.61,349.19L231.83,349.19C233.907,349.18 235.611,347.467 235.611,345.39C235.611,344.48 235.284,343.6 234.69,342.91L202.14,305.26C200.891,303.836 200.891,301.684 202.14,300.26L234.71,262.6ZM270.12,256.15L269.92,256.15C268.82,256.15 267.774,256.633 267.06,257.47L266.3,258.36L251.19,275.87C250.592,276.557 250.265,277.439 250.27,278.35L250.27,345.35C250.27,345.353 250.27,345.357 250.27,345.36C250.27,347.43 251.97,349.135 254.04,349.14L270.1,349.14C272.172,349.129 273.87,347.422 273.87,345.35L273.87,259.94C273.87,257.868 272.172,256.161 270.1,256.15L270.12,256.15ZM463.28,299.65C460.553,297.177 457.38,295.246 453.93,293.96C450.277,292.604 446.407,291.926 442.51,291.96L417.9,291.96C416.325,291.979 414.813,291.333 413.74,290.18C412.605,289.041 411.981,287.488 412.01,285.88C412.021,282.651 414.671,279.996 417.9,279.98L462,279.98C464.07,279.975 465.77,278.27 465.77,276.2L465.77,260.12C465.77,260.117 465.77,260.113 465.77,260.11C465.77,258.04 464.07,256.335 462,256.33L417.89,256.33C413.933,256.303 410.013,257.086 406.37,258.63C399.317,261.6 393.707,267.228 390.76,274.29C387.694,281.682 387.694,289.998 390.76,297.39C393.726,304.473 399.323,310.139 406.37,313.19C410.005,314.763 413.929,315.56 417.89,315.53L443.27,315.53C445.861,315.511 448.069,317.484 448.34,320.06C448.354,320.21 448.36,320.36 448.36,320.51C448.36,323.253 446.103,325.51 443.36,325.51C443.354,325.51 443.347,325.51 443.34,325.51L392.22,325.51C390.156,325.515 388.46,327.216 388.46,329.28C388.46,329.283 388.46,329.287 388.46,329.29L388.46,345.29C388.46,345.293 388.46,345.297 388.46,345.3C388.46,347.364 390.156,349.065 392.22,349.07L442.46,349.07C450.255,349.084 457.74,345.974 463.23,340.44C465.9,337.732 468.043,334.551 469.55,331.06C471.116,327.429 471.912,323.514 471.89,319.56C471.931,315.705 471.132,311.886 469.55,308.37C468.051,305.079 465.913,302.118 463.26,299.66L463.28,299.65Z" style="fill:white;fill-rule:nonzero;"/>
                    </g>
                </g>
            </g>
        </g>
    </g>
</svg>
