<?xml version="1.0" encoding="utf-8"?>
<!-- Generator: Adobe Illustrator 19.2.1, SVG Export Plug-In . SVG Version: 6.00 Build 0)  -->
<svg version="1.1" id="Layer_1" xmlns="http://www.w3.org/2000/svg" xmlns:xlink="http://www.w3.org/1999/xlink" x="0px" y="0px"
	 viewBox="0 0 165.9 144.2" style="enable-background:new 0 0 165.9 144.2;" xml:space="preserve">
<g>
	<path d="M114,0.6H82.2c0,26.1-12,50.1-33,65.8l-12.6,9.5l48.9,66.7H125h0.7l-45-61.4C102.1,60,114,31.4,114,0.6z"/>
	<rect y="0.6" width="32.7" height="142"/>
	<path d="M148.1,108.5c-9.9,0-17.8,8-17.8,17.8c0,9.8,8,17.8,17.8,17.8c9.8,0,17.8-8,17.8-17.8C165.9,116.5,157.9,108.5,148.1,108.5
		z"/>
	<path d="M136.1,5.3c0-1.3-1-2.2-2.5-2.2H131v7.2h1.3V7.6h1.4l1,2.7h1.4l-1.3-2.9C135.6,7,136.1,6.3,136.1,5.3z M133.6,6.5h-1.4V4.3
		h1.4c0.9,0,1.2,0.4,1.2,1.1C134.8,6,134.6,6.5,133.6,6.5z"/>
	<path d="M140,6.8c0-3.8-3-6.8-6.7-6.8c-3.7,0-6.7,3.1-6.7,6.8c0,3.7,3,6.8,6.7,6.8C137,13.6,140,10.6,140,6.8z M127.8,6.8
		c0-3,2.4-5.5,5.4-5.5s5.4,2.5,5.4,5.5s-2.4,5.5-5.4,5.5S127.8,9.9,127.8,6.8z"/>
</g>
</svg>
