<svg width="130" height="130" viewBox="0 0 130 130" fill="none" xmlns="http://www.w3.org/2000/svg">
<rect width="130" height="130" fill="#FF503F"/>
<path d="M87.2394 114.694C77.0887 114.694 67.9773 108.472 64.2837 99.0199L59.4997 86.7907C59.009 85.6799 58.4877 84.9609 57.9357 84.627C57.3803 84.293 56.4807 84.1261 55.237 84.1261H53.1074L51.8467 94.4641C50.436 106.012 40.6329 114.694 29 114.694L38.769 35.2264C40.1865 23.6787 49.9964 15 61.6327 15L54.7736 70.8747H56.1707C57.3258 70.8747 58.256 70.6975 58.9681 70.3431C59.6769 69.9887 60.389 69.3447 61.0978 68.4111L71.1053 54.6997C75.2079 49.0809 81.7296 45.7416 88.6842 45.7041L100.389 45.636L81.0754 70.2102C80.1861 71.3653 79.2116 72.3876 78.145 73.2735C77.0785 74.1628 75.9677 74.9397 74.816 75.6041C75.7496 76.3606 76.5572 77.2363 77.2455 78.2347C77.9338 79.233 78.5437 80.3779 79.0753 81.6659L92.9264 114.697H87.2394V114.694Z" fill="white"/>
</svg>
