<svg width="48" height="48" viewBox="0 0 48 48" fill="none" xmlns="http://www.w3.org/2000/svg">
<path d="M1.28249 22.8186L22.5482 8.73089C23.0015 8.46725 23.5165 8.32837 24.0408 8.32837C24.5652 8.32837 25.0802 8.46725 25.5335 8.73089L46.7992 22.8186C47.0857 22.9576 47.3274 23.1744 47.4964 23.4443C47.6655 23.7142 47.7551 24.0263 47.7551 24.3447C47.7551 24.6632 47.6655 24.9753 47.4964 25.2452C47.3274 25.5151 47.0857 25.7319 46.7992 25.8709L43.9481 27.7493C41.8213 24.3893 38.8794 21.6218 35.3959 19.7041C31.9124 17.7864 28.0005 16.7807 24.024 16.7807C20.0476 16.7807 16.1357 17.7864 12.6522 19.7041C9.16869 21.6218 6.22676 24.3893 4.09999 27.7493L1.24889 25.8709C0.967002 25.7261 0.731008 25.5056 0.567361 25.2342C0.403714 24.9629 0.318881 24.6513 0.322369 24.3344C0.325857 24.0175 0.417529 23.7078 0.587111 23.4401C0.756693 23.1724 0.997482 22.9572 1.28249 22.8186V22.8186ZM24.0241 22.6509C21.0211 22.6577 18.0686 23.4239 15.4413 24.8783C12.814 26.3327 10.5972 28.428 8.99719 30.9693L13.8943 34.2229C14.9432 32.4831 16.424 31.0438 18.1929 30.0448C19.9618 29.0457 21.9589 28.5207 23.9905 28.5207C26.0221 28.5207 28.0191 29.0457 29.7881 30.0448C31.557 31.0438 33.0378 32.4831 34.0867 34.2229L38.9839 30.9693C37.4071 28.4217 35.2047 26.3199 32.5862 24.8639C29.9677 23.4079 27.0202 22.646 24.0241 22.6509V22.6509ZM24.0241 34.4242C22.9657 34.4312 21.9278 34.717 21.0151 35.2529C20.1023 35.7888 19.3469 36.5557 18.825 37.4765L22.1122 39.6232C22.6469 40.0754 23.3238 40.3248 24.0241 40.3276C24.7254 40.3307 25.4043 40.0805 25.936 39.6232L29.2231 37.4765C28.7055 36.552 27.9511 35.7819 27.0374 35.2455C26.1237 34.7091 25.0836 34.4256 24.0241 34.4242V34.4242Z" fill="url(#paint0_linear)"/>
<defs>
<linearGradient id="paint0_linear" x1="24.0387" y1="40.3276" x2="24.0387" y2="8.32834" gradientUnits="userSpaceOnUse">
<stop stop-color="#EFC119"/>
<stop offset="0.3314" stop-color="#92C84E"/>
<stop offset="0.4859" stop-color="#71BF5B"/>
<stop offset="0.7506" stop-color="#15B158"/>
<stop offset="0.903" stop-color="#23AC69"/>
<stop offset="1" stop-color="#23AC69"/>
</linearGradient>
</defs>
</svg>
