<svg width="32" height="32" viewBox="0 0 32 32" fill="none" xmlns="http://www.w3.org/2000/svg">
<path fill-rule="evenodd" clip-rule="evenodd" d="M10.9056 27.216H9.46269V24.3754H8.11965V21.5831H6.72604V18.7895H5.33309V17.2938H3.83997V12.9066H8.16925V14.4023H9.46269V2.03586H11.0054V20.5351H9.41309V15.7991H7.97052L8.02013 14.4026H5.48285V17.1943H6.72604V18.6407H8.11965V21.4829H9.46269V24.3245H10.9059V27.2163H12.2995V29.9091H23.7932V27.2163H25.1372V22.8784H26.5302V27.216H25.1862V31.3555H10.9056V27.216V27.216ZM11.0553 2.03618V0.640015H13.8412V2.03618H11.0553ZM15.3843 14.7507H13.8412V2.03618H15.4835V7.57089H18.2201V8.96609H22.3504V10.4624H25.2371V11.8083H26.5811V13.2055H25.2371V11.8589H23.6934V15.8967H22.35V10.5133H19.662V14.5523H18.2198V9.0669H15.384V14.7507H15.3843ZM26.5811 22.8787V13.2547H28.1721V22.8787H26.5808H26.5811Z" fill="url(#paint0_linear)"/>
<defs>
<linearGradient id="paint0_linear" x1="28.8293" y1="-14.1154" x2="-2.21454" y2="38.1283" gradientUnits="userSpaceOnUse">
<stop stop-color="#1A0A0A"/>
<stop offset="0.0988" stop-color="#FFF0A3"/>
<stop offset="0.28502" stop-color="#FFD700"/>
<stop offset="0.79616" stop-color="#FF41F2"/>
<stop offset="1" stop-color="#DF33FF"/>
</linearGradient>
</defs>
</svg>
