<svg width="32" height="32" viewBox="0 0 32 32" fill="none" xmlns="http://www.w3.org/2000/svg">
<path d="M31.232 13.5186H28.5343C28.2726 13.5355 27.7412 13.6353 27.2433 14.1335L24.2391 17.1374V9.216L22.3324 11.1232C22.1586 11.3203 21.8542 11.7663 21.8542 12.4708V22.8969H24.2391V19.2781L27.2433 22.282C27.7412 22.7802 28.2726 22.8805 28.5343 22.8969H31.232L26.5421 18.2072L31.232 13.5186ZM9.89004 13.5186H7.19257C6.93043 13.5355 6.39948 13.6353 5.90156 14.1335L2.8974 17.1374V9.216L0.990201 11.1232C0.816889 11.3203 0.511993 11.7663 0.511993 12.4705V22.8966H2.8974V19.2778L5.90131 22.2815C6.39923 22.7802 6.93017 22.8795 7.19231 22.8966H9.89004L5.20089 18.2072L9.89004 13.5186ZM30.1939 12.9167C30.614 12.9167 30.9553 12.5755 30.9553 12.1551C30.9553 11.7353 30.614 11.3938 30.1939 11.3938C29.7741 11.3938 29.4318 11.735 29.4318 12.1551C29.4321 12.5752 29.7743 12.9167 30.1939 12.9167ZM30.1939 11.4952C30.5567 11.4952 30.8531 11.7906 30.8531 12.1549C30.8531 12.5197 30.5567 12.8146 30.1939 12.8146C29.8296 12.8146 29.5337 12.5197 29.5337 12.1549C29.5337 11.7911 29.8296 11.4952 30.1939 11.4952ZM29.9738 12.2125C30.0741 12.2125 30.1719 12.2092 30.2699 12.214C30.3273 12.2168 30.3524 12.246 30.3606 12.3034C30.3657 12.3425 30.3616 12.3825 30.3657 12.4219C30.3688 12.4603 30.3772 12.4995 30.3846 12.5376C30.3869 12.5455 30.3964 12.5571 30.4026 12.5571C30.4399 12.5589 30.4765 12.5576 30.5183 12.5576C30.5134 12.544 30.5108 12.5353 30.507 12.5256C30.497 12.4969 30.4824 12.4687 30.4768 12.439C30.4707 12.4004 30.4691 12.3602 30.4707 12.3208C30.4735 12.2514 30.4512 12.1981 30.3874 12.1661C30.3854 12.1659 30.3849 12.1631 30.3828 12.1592C30.3949 12.1485 30.4072 12.1382 30.4189 12.1272C30.4627 12.0909 30.484 12.044 30.485 11.9862C30.4904 11.8387 30.4166 11.7568 30.2684 11.7537C30.1414 11.7512 30.0142 11.753 29.8875 11.7522C29.8821 11.7522 29.876 11.7537 29.8696 11.7545V12.5563H29.9745V12.2122H29.9738V12.2125ZM29.9748 11.8451C30.0759 11.8451 30.1747 11.8392 30.274 11.8459C30.3485 11.8513 30.3818 11.9037 30.3795 11.9867C30.377 12.0658 30.338 12.1155 30.2656 12.1188C30.1693 12.1229 30.0741 12.1196 29.9753 12.1196V11.8451H29.9748ZM17.9725 13.5509H16.9198C16.9198 13.5509 15.4583 13.548 14.4381 14.4704C14.0157 13.9873 13.3681 13.601 12.3745 13.5667H10.9061L6.37337 18.2241L9.45305 21.1784V16.9365C9.45305 16.9365 9.48505 15.7678 10.6025 15.7678H11.4954C11.4954 15.7678 12.6761 15.7937 12.6761 17.2301V22.2625C12.6761 22.2625 12.7078 22.8972 13.5373 22.8972H15.2284V16.7068C15.3029 16.3666 15.5451 15.7678 16.3453 15.7678H17.2383C17.2383 15.7678 18.4187 15.7934 18.4187 17.2296V22.262C18.4187 22.262 18.4509 22.8966 19.2804 22.8966H20.971V16.5361C20.9718 16.5361 20.9085 13.5509 17.9725 13.5509Z" fill="#171A29"/>
</svg>
