<svg width="32" height="32" viewBox="0 0 32 32" fill="none" xmlns="http://www.w3.org/2000/svg">
<path d="M7.2369 3.35494C8.36883 2.96529 9.57927 2.99272 10.7587 3.05071C10.951 3.08885 11.1414 3.13904 11.3379 3.15777C11.9888 3.35405 12.6211 3.60743 13.2093 3.9518C13.9484 4.49201 14.6142 5.14887 15.0667 5.95181C15.1767 6.24556 15.2956 6.53618 15.4076 6.82859C15.5659 7.49649 15.5463 8.1834 15.5268 8.86488V8.8649L15.5262 8.8857C15.4615 9.6523 15.2298 10.3908 15.0088 11.1241C14.8927 11.3804 14.793 11.6437 14.7103 11.9126C14.5553 12.22 14.4483 12.5498 14.2776 12.8494C14.581 12.4506 14.9646 12.1236 15.2996 11.7525C15.8463 11.0938 16.4846 10.5193 17.0647 9.89006C17.7473 9.06927 18.5701 8.37605 19.2465 7.54924C20.4737 6.34861 21.5744 5.02709 22.8371 3.86058C23.04 3.73121 23.2414 3.59739 23.4417 3.462C23.9454 3.17829 24.5248 3.189 25.0855 3.23807C25.5243 3.45509 25.9572 3.77426 26.1329 4.24934C26.2958 4.61959 26.2233 5.03199 26.2233 5.42254C26.0781 5.68684 25.9483 5.95984 25.8031 6.22393C25.7332 6.32296 25.6657 6.42422 25.5999 6.52637C25.1915 6.93855 24.8487 7.41095 24.4244 7.80864C23.9427 8.31026 23.4319 8.78846 22.9903 9.32755C22.3256 10.0353 21.6048 10.6932 20.9814 11.4384C20.4826 11.9548 19.9721 12.4584 19.4792 12.9807C18.9519 13.618 18.3372 14.1756 17.7698 14.7765C17.8307 14.9092 17.8916 15.0416 17.9533 15.1741C18.0693 15.5404 18.186 15.9066 18.3432 16.2581C18.4659 16.6203 18.5779 16.9875 18.7358 17.3381C18.8584 17.7005 18.9706 18.0674 19.1285 18.418C19.2512 18.7805 19.3632 19.1476 19.5213 19.4971C19.644 19.8605 19.756 20.2276 19.9139 20.5771C20.0359 20.9395 20.1507 21.3058 20.3058 21.6562C20.3932 21.9252 20.4835 22.1953 20.6102 22.4504C20.6209 22.4957 20.6414 22.5849 20.6526 22.6291C20.7683 22.9246 20.8616 23.2291 20.9851 23.5226C21.0393 23.6553 21.1011 23.7849 21.1658 23.9133L22.9903 25.0183L30.6985 25.3754V28.9697H20.1153C19.7522 28.8321 19.3632 28.1293 19.0402 27.9036C18.622 27.6571 18.3845 27.2202 18.1066 26.8403C17.9888 26.6055 17.8699 26.3728 17.756 26.1373C17.6794 25.9399 17.6021 25.7425 17.5086 25.552C17.4953 25.493 17.4816 25.4342 17.4673 25.3754C17.2554 24.8147 17.0598 24.2463 16.8321 23.6905C16.7074 23.3263 16.5984 22.9552 16.4295 22.6077L16.3865 22.4308C16.2705 22.1324 16.1791 21.825 16.0468 21.5344C15.9594 21.2674 15.8679 21.0013 15.7521 20.7459C15.6295 20.3837 15.5164 20.0166 15.3585 19.6671C15.2358 19.3046 15.1218 18.9384 14.9666 18.5889C14.8783 18.3199 14.7882 18.0509 14.6624 17.7967L14.6191 17.6189C14.5031 17.3205 14.4119 17.0131 14.2794 16.7225C14.192 16.4555 14.1008 16.1894 13.9839 15.934C13.8456 15.5069 13.6953 15.0838 13.5184 14.6716C13.4963 14.7985 13.4727 14.9251 13.4477 15.0515C13.3652 15.2114 13.2938 15.3764 13.2318 15.5453C13.1625 15.7071 13.0976 15.8708 13.0373 16.0362C12.9671 16.1977 12.9014 16.3611 12.8401 16.5262C12.7704 16.688 12.705 16.8516 12.6439 17.0169C12.5739 17.179 12.508 17.3427 12.4462 17.508C12.376 17.6701 12.3112 17.8345 12.252 18.001C12.0702 18.3857 11.9143 18.7816 11.764 19.1791C11.6924 19.3403 11.6266 19.5039 11.5666 19.6698C11.4953 19.8312 11.4294 19.995 11.3692 20.1609C11.2983 20.3222 11.2328 20.4859 11.1729 20.6516C11.1016 20.8127 11.0358 20.9761 10.9755 21.1416C10.9049 21.3028 10.8395 21.4663 10.7792 21.6316C10.7085 21.7945 10.6427 21.9575 10.583 22.1246C10.4993 22.315 10.4246 22.5084 10.3481 22.7018C10.2843 22.8343 10.2205 22.967 10.1576 23.0995C9.84758 23.6022 9.49697 24.0931 8.98843 24.4121C8.93937 24.4388 8.84301 24.4926 8.79483 24.5202C8.41299 24.6222 8.02913 24.793 7.62565 24.7292C7.45859 24.694 7.29555 24.6478 7.12783 24.6204C6.8343 24.4544 6.55841 24.2568 6.32756 24.0097C6.2559 23.8681 6.18131 23.728 6.10385 23.5895C6.01151 22.9237 6.144 22.2602 6.42503 21.6542C6.49551 21.4931 6.5622 21.3303 6.62309 21.1644C6.69379 21.0022 6.75959 20.8394 6.81937 20.6734C6.89029 20.5113 6.95609 20.3485 7.01586 20.1825C7.08656 20.0215 7.15325 19.8585 7.21325 19.6925C7.2834 19.5312 7.34885 19.3678 7.40952 19.2027C7.47934 19.0397 7.54603 18.8766 7.60692 18.7118C7.67561 18.5488 7.74253 18.3857 7.80319 18.2209C7.87301 18.0587 7.9388 17.8948 8.00059 17.73C8.06928 17.5678 8.13619 17.4039 8.19508 17.237C8.44734 16.691 8.65945 16.1276 8.87937 15.5678C8.95007 15.4059 9.01765 15.2428 9.07787 15.0771C9.14746 14.915 9.21415 14.7519 9.27414 14.586C9.34485 14.4252 9.41065 14.261 9.47042 14.0962C9.54113 13.9342 9.60781 13.7712 9.66781 13.6053C9.7374 13.4433 9.80432 13.2803 9.86409 13.1143C9.9339 12.9524 10.0006 12.7894 10.0615 12.6234C10.1302 12.4615 10.1971 12.2985 10.2578 12.1334C10.3276 11.9715 10.3934 11.8075 10.454 11.6416C10.7418 10.966 10.9902 10.2748 11.1778 9.56397C11.3172 9.04875 11.3948 8.4762 11.1974 7.96655C10.8901 7.43437 10.3746 7.03691 9.77376 6.89751C9.14545 6.80896 8.4886 6.85736 7.90245 7.11832C7.76996 7.17921 7.63837 7.243 7.51168 7.3146C6.4984 7.95183 5.62966 8.94258 5.37628 10.1394C5.28707 10.4211 5.3232 10.7227 5.27592 11.0122L5.2775 11.0355C5.30367 11.4215 5.33005 11.8105 5.52639 12.1562C5.80483 12.624 6.21639 12.9983 6.70851 13.2312C6.9117 13.3195 7.11511 13.4108 7.32901 13.4728C7.63008 13.628 7.90318 13.8324 8.13708 14.0774C8.15961 14.1305 8.204 14.2376 8.22541 14.2904C8.26667 14.3946 8.30905 14.4979 8.3541 14.6007C8.4964 15.5326 7.85918 16.4044 7.03147 16.7687C6.27648 16.9877 5.44989 16.9484 4.69177 16.7609C4.53136 16.6848 4.36763 16.616 4.20108 16.5545C4.03687 16.4508 3.8692 16.3526 3.69834 16.2601C2.92551 15.7369 2.36679 14.9758 1.89952 14.1825C1.80539 13.947 1.71707 13.7092 1.60889 13.4806C1.34905 12.5724 1.23106 11.6298 1.29886 10.6852C1.42934 9.95095 1.53038 9.20086 1.80628 8.49783C1.91245 8.27011 2.00256 8.03525 2.09691 7.80261C2.23519 7.57578 2.37482 7.34895 2.5024 7.11631C2.636 6.92093 2.76759 6.72555 2.89718 6.52726C3.54512 5.69755 4.30212 4.95259 5.17109 4.3535C5.27123 4.28659 5.37227 4.21901 5.47152 4.14919C5.85739 3.93909 6.25106 3.74482 6.64673 3.55434C6.84524 3.49345 7.04151 3.42565 7.2369 3.35494Z" fill="#E42E16"/>
</svg>
