<svg width="32" height="32" viewBox="0 0 32 32" fill="none" xmlns="http://www.w3.org/2000/svg">
<path d="M16 32C24.8366 32 32 24.8366 32 16C32 7.16344 24.8366 0 16 0C7.16344 0 0 7.16344 0 16C0 24.8366 7.16344 32 16 32Z" fill="#00B9FE"/>
<path d="M24.1219 17.5432C23.529 17.6127 22.9319 17.6398 22.3351 17.6244V11.7767H23.5534C23.9453 11.7638 24.3345 11.8457 24.688 12.0153C25.0415 12.185 25.3488 12.4375 25.5838 12.7513C26.0127 13.2786 26.2426 13.9398 26.2336 14.6194C26.2993 15.2805 26.1208 15.9428 25.7318 16.4815C25.3428 17.0201 24.7702 17.3977 24.1219 17.5432V17.5432ZM29.1574 13.4823C29.0444 12.7416 28.7761 12.0331 28.3702 11.4033C27.9643 10.7734 27.43 10.2365 26.8021 9.82749C25.756 9.0904 24.5082 8.69339 23.2285 8.69043H5.36048C5.12162 8.72401 4.90188 8.83961 4.73889 9.01742C4.5759 9.19523 4.47981 9.42418 4.46708 9.66505V9.9087C4.46708 9.9087 4.38586 17.7869 4.5483 22.0914C4.5878 22.7744 4.88778 23.4163 5.38642 23.8847C5.88505 24.3531 6.54437 24.6124 7.2285 24.6092C7.2285 24.6092 15.4316 24.6092 19.33 24.528H19.8986C22.1727 23.9595 22.3351 21.8478 22.3351 20.7107C26.8021 20.8732 29.9696 17.7057 29.1574 13.4823Z" fill="white" stroke="black" stroke-width="1.14" stroke-linecap="round" stroke-linejoin="round"/>
<path d="M13.2385 21.1978C13.4822 21.279 13.5634 21.1978 13.5634 21.1978C13.5634 21.1978 16.406 18.5988 17.7055 17.0557C18.8426 15.675 18.9238 13.4821 16.9746 12.5887C15.0253 11.6953 13.401 13.5633 13.401 13.5633C12.8698 12.9114 12.1033 12.4949 11.2674 12.4037C10.4315 12.3125 9.59323 12.554 8.93396 13.076L8.85274 13.1572C7.87812 14.213 8.203 15.9998 8.93396 16.9744C10.233 18.4089 11.6162 19.7649 13.0761 21.0354L13.2385 21.1978Z" fill="#FF5E5B"/>
<path d="M13.401 21.279C13.4451 21.2843 13.4899 21.2798 13.532 21.2657C13.5741 21.2517 13.6126 21.2285 13.6447 21.1978C13.6447 21.1978 16.4873 18.5988 17.7868 17.0557C18.9239 15.675 19.0051 13.4821 17.0559 12.5887C15.1066 11.6953 13.4823 13.5633 13.4823 13.5633C12.9511 12.9114 12.1846 12.4949 11.3487 12.4037C10.5128 12.3125 9.67452 12.554 9.01526 13.076L8.93404 13.1572C7.95942 14.213 8.2843 15.9998 9.01526 16.9744C10.3414 18.436 11.7516 19.819 13.2386 21.1166C13.2386 21.279 13.3198 21.279 13.401 21.279Z" fill="url(#paint0_linear)"/>
<defs>
<linearGradient id="paint0_linear" x1="10.6477" y1="6.32673" x2="14.0183" y2="16.6739" gradientUnits="userSpaceOnUse">
<stop stop-color="#FF4EA3"/>
<stop offset="1" stop-color="#FF5E5B"/>
</linearGradient>
</defs>
</svg>
