<svg width="32" height="32" viewBox="0 0 32 32" fill="none" xmlns="http://www.w3.org/2000/svg">
<path d="M16 0C24.8368 0 32 7.1632 32 16C32 24.8368 24.8368 32 16 32C7.1632 32 0 24.8368 0 16C0 7.1632 7.1632 0 16 0Z" fill="#3DCCA8"/>
<path d="M11.4448 8.7904V15.9184C11.4464 16.0528 11.3504 16.1696 11.2176 16.192C10.3072 16.3744 6.8912 16.8304 6.8912 13.9152V8.8368C6.8912 7.5792 7.9104 6.56 9.168 6.56C10.4256 6.56 11.4448 7.5792 11.4448 8.8368" fill="white"/>
<path d="M18.2768 13.3456V20.4976C18.2672 20.624 18.1744 20.728 18.0496 20.7488C17.1392 20.9296 13.7232 21.3856 13.7232 18.4704V13.392C13.7232 12.1344 14.7424 11.1152 16 11.1152C17.2576 11.1152 18.2768 12.1344 18.2768 13.392" fill="white"/>
<path d="M25.1104 17.9008V25.0528C25.1008 25.1792 25.008 25.2832 24.8832 25.304C23.9728 25.4848 20.5568 25.9408 20.5568 23.0256V17.9472C20.5568 16.6896 21.576 15.6704 22.8336 15.6704C24.0912 15.6704 25.1104 16.6896 25.1104 17.9472" fill="white"/>
</svg>
