<svg width="37" height="37" viewBox="0 0 37 37" fill="none" xmlns="http://www.w3.org/2000/svg">
<path d="M20.93 2.19L14.47 0.0899998C14.0104 -0.0357898 13.5239 -0.0242213 13.0708 0.123277C12.6176 0.270776 12.2176 0.547747 11.92 0.92L0.400025 16.77C0.140061 17.1704 0.00170898 17.6376 0.00170898 18.115C0.00170898 18.5924 0.140061 19.0596 0.400025 19.46L11.92 35.31C12.2176 35.6823 12.6176 35.9592 13.0708 36.1067C13.5239 36.2542 14.0104 36.2658 14.47 36.14L20.78 34.14L9.27003 18.24L20.93 2.19Z" fill="#00869A"/>
<path d="M34.69 27.91V8.32C34.6664 7.84378 34.5043 7.38482 34.2236 6.99936C33.943 6.61391 33.5559 6.31873 33.11 6.15L24 3.18L13 18.24L23.83 33.1L33.11 30.1C33.5575 29.9277 33.9452 29.6289 34.2258 29.24C34.5064 28.8512 34.6676 28.389 34.69 27.91Z" fill="#193D68"/>
</svg>
