<svg xmlns="http://www.w3.org/2000/svg" xmlns:xlink="http://www.w3.org/1999/xlink" width="32px" height="32px" viewBox="0 0 300 300">  <title>Kustomer_Logo</title> <desc>Created with Sketch.</desc> <defs> <polygon id="path-1" points="0.120903955 0.85 1069.07307 0.85 1069.07307 184 0.120903955 184"></polygon> </defs> <g id="Kustomer_Logo" stroke="none" stroke-width="1" fill="none" fill-rule="evenodd"> <g id="Group" transform="translate(0.000000, 1.000000)">        <g id="Group-13"> <mask id="mask-2" fill="white"> <use xlink:href="#path-1"></use> </mask> <g id="Clip-9">  <path d="M127.896234,184.000182 C159.26275,184.078424 184.775499,158.813859 184.94275,127.514674 L184.94275,57.3353261 C184.775499,26.0361413 159.26275,0.771576087 127.896234,0.849817916 L57.0263653,0.849817916 C25.6638795,0.771576087 0.155160075,26.0381522 0,57.3353261 L0,127.514674 C0.155160075,158.811848 25.6638795,184.078424 57.0263653,184.000182 L127.896234,184.000182" id="Fill-10" fill="#FFFFFE" mask="url(#mask-2)"></path> <path d="M102.546704,66.9271739 L102.546704,92.3043478 C102.55275,93.6858152 103.106893,95.0069565 104.090245,95.9802174 C105.071582,96.9534783 106.401525,97.496413 107.785876,97.4904302 L124.853484,97.4904302 C126.233804,97.496413 127.559718,96.9534783 128.535009,95.9782065 C129.512316,95.0049457 130.056384,93.6817935 130.052376,92.3043478 L130.052376,75.3728261 C130.056384,73.9953804 129.512316,72.6722283 128.535009,71.6989674 C127.559718,70.7236957 126.233804,70.17875 124.853484,70.1847826 L112.944444,70.1847826 L112.944444,66.8668478 C113.010942,60.357663 118.330716,55.1213587 124.853484,55.1434783 C127.724953,55.1434783 130.052376,52.818913 130.052376,49.9554348 C130.052376,47.0899457 127.724953,44.7669249 124.853484,44.7669249 C118.953371,44.7291848 113.282976,47.0396739 109.095669,51.1880978 C104.908362,55.3365217 102.55275,60.9790217 102.546704,66.8668478 L102.546704,66.9271739 Z M54.8903955,66.9271739 L54.8903955,92.3043478 C54.8903955,93.6838043 55.4405085,95.0069565 56.4198305,95.9782065 C57.3991525,96.9534783 58.727081,97.496413 60.1094162,97.4904302 L77.1770245,97.4904302 C78.5613748,97.496413 79.8913183,96.9534783 80.8726554,95.9802174 C81.8560075,95.0069565 82.4101507,93.6858152 82.4161959,92.3043478 L82.4161959,75.3728261 C82.4161959,73.9893478 81.8620527,72.6641848 80.8787006,71.688913 C79.8953484,70.7156522 78.5633898,70.1727174 77.1770245,70.1847826 L65.3485876,70.1847826 L65.3485876,66.8668478 C65.4029944,60.3838043 70.680452,55.1535326 77.1770245,55.1434783 C80.0484934,55.1434783 82.3758945,52.818913 82.3758945,49.9554348 C82.3758945,47.0899457 80.0484934,44.76706 77.1770245,44.76706 C71.2809416,44.7352174 65.6145763,47.0477174 61.4333145,51.1961413 C57.2500377,55.3425543 54.8964407,60.9830435 54.8903955,66.8668478 L54.8903955,66.9271739 Z M61.1572505,121.220646 C60.2726365,121.244783 59.4645951,121.731413 59.0313559,122.501576 C58.5981168,123.27375 58.6021469,124.212826 59.0414313,124.980978 C59.5048964,125.765217 70.5676083,144.466304 92.6124294,144.466304 C114.65725,144.466304 125.538606,125.765217 126.042373,124.980978 C126.483672,124.19875 126.483672,123.247609 126.042373,122.467391 C125.601073,121.693207 124.776911,121.218641 123.886252,121.220646 L61.1572505,121.220646 L61.1572505,121.220646 Z" id="Fill-11" fill="#0A0B09" mask="url(#mask-2)"></path> <path d="M57.0263653,0.849817916 C25.6638795,0.771576087 0.155160075,26.0381522 0,57.3353261 L0,127.514674 C0.155160075,158.811848 25.6638795,184.078424 57.0263653,184.000182 L105.105838,184.000182 L73.4290019,161.415924 L57.0263653,161.415924 C38.1895292,161.484293 22.8589077,146.312283 22.7702448,127.514674 L22.7702448,57.3353261 C22.9254049,38.5658696 38.2177401,23.4300543 57.0263653,23.4320652 L127.896234,23.4320652 C146.706874,23.4300543 161.997194,38.5658696 162.152354,57.3353261 L162.152354,127.514674 C161.997194,146.28413 146.706874,161.417935 127.896234,161.415924 L114.435593,161.415924 L114.435593,184.000182 L127.896234,184.000182 C159.26275,184.078424 184.775499,158.813859 184.94275,127.514674 L184.94275,57.3353261 C184.775499,26.0361413 159.26275,0.771576087 127.896234,0.849817916 L57.0263653,0.849817916" id="Fill-12" fill="#FF5551" mask="url(#mask-2)"></path> </g> </g> </g> </g></svg>