<?xml version="1.0" encoding="UTF-8"?>
<!--Generator: Adobe Illustrator 18.1.1, SVG Export Plug-In . SVG Version: 6.00 Build 0)-->
<svg xmlns="http://www.w3.org/2000/svg" xmlns:xlink="http://www.w3.org/1999/xlink" id="Vector" width="512px" height="512px" x="0px" y="0px" enable-background="new 0 0 512 512" version="1.1" viewBox="0 0 512 512" xml:space="preserve"><path fill="#FFEA31" d="M512,472c0,22.1-17.9,40-40,40H40c-22.1,0-40-17.9-40-40V40C0,17.9,17.9,0,40,0h432c22.1,0,40,17.9,40,40  V472z"/><path fill="#003D8F" fill-rule="evenodd" d="M355.4,220.9c-31.8,2.3-73.4-0.6-113.4,0.9  c-9.2,0.3-24.4,3.5-35.3,0.9c-5.8-1.4-12.3-8.8-19.5-13c-20.5-12.2-44.9-21.8-67.8-29.8c6.9-1.8,28.5-0.8,37.2-0.9  c28-0.7,106.1-0.9,164.5-0.9c17.5,0,48.6-3.1,52,8.4C377.9,202.7,359.9,210.9,355.4,220.9z" clip-rule="evenodd"/><path fill="#003D8F" fill-rule="evenodd" d="M475.3,228.3C323.8,260.1,184,296.2,36.7,334.3  c13.3-7.9,29.4-13.4,45.6-19.5c29.8-11.2,61.2-22.6,89.2-39c17.2-10.1,34.2-21.9,38.1-43.7C304.3,231.9,392.5,227.9,475.3,228.3z" clip-rule="evenodd"/><path fill="#003D8F" fill-rule="evenodd" d="M78.6,334.3c76.5-21.9,156.9-40.1,235.1-60.4  c-5.4,10.3-13.8,18.1-21.4,27.9c-6.8,8.6-13.8,22.8-26,26c-12,3.1-30.5,1.4-46.5,1.9C176.2,330.9,122.5,332.3,78.6,334.3z" clip-rule="evenodd"/></svg>