<svg width="32" height="32" viewBox="0 0 32 32" fill="none" xmlns="http://www.w3.org/2000/svg">
<path opacity="0.98" d="M23.5536 29.7415L4.96 28.8567L6.92837 9.772L24.3037 6.00488L23.5536 29.7415Z" fill="white"/>
<path d="M11.2239 9.05757C11.2169 8.9947 11.0818 7.50694 11.5593 5.92373C12.2092 3.77475 13.6814 2.51283 15.8106 2.26837C16.6398 2.17291 17.4458 2.31027 17.9326 2.83646C19.2883 4.3056 18.5034 7.78168 18.4754 7.92603L17.8232 7.79798C17.8301 7.76537 18.4334 4.59197 17.3061 3.36963C16.9683 3.00409 16.5046 2.85974 15.8874 2.9296C14.0146 3.14379 12.773 4.21478 12.1976 6.11697C11.755 7.57446 11.8854 8.98073 11.8854 8.9947L11.2239 9.05757Z" fill="black"/>
<path d="M6.84451 10.6318L9.31139 11.7936L6.67912 12.3198L6.84451 10.6318Z" fill="#024AB0"/>
<path d="M6.95633 9.77217L8.23053 9.49512L11.6664 11.3787L10.3643 11.5999L6.95633 9.77217Z" fill="#FE0000"/>
<path d="M10.2245 9.05256L12.7194 8.52637L12.5539 10.382L10.2245 9.05256Z" fill="#024AB0"/>
<path d="M16.8494 7.6393L16.7098 9.49493L19.6192 7.0293L16.8494 7.6393Z" fill="#024AB0"/>
<path d="M20.7838 6.78026L22.7499 6.33789L18.8714 9.77208L16.789 10.2703L20.7838 6.78026Z" fill="#FE0000"/>
<path d="M20.7838 9.356L24.2757 6.38281L24.2198 8.55275L20.7838 9.356Z" fill="#024AB0"/>
<path d="M20.4227 14.0101L24.0544 13.4561L23.9984 15.9217L20.4227 14.0101Z" fill="#024AB0"/>
<path d="M16.323 15.4785L21.3382 18.3284L16.139 18.8382L16.323 15.4785Z" fill="#024AB0"/>
<path d="M25.5499 6.00488H24.6904L24.0264 29.6855L26.88 28.3561L25.5499 6.00488Z" fill="black"/>
<path d="M24.1918 9.77206L15.8198 11.3227L16.0458 7.80469L13.523 8.33088L13.2971 11.8512L6.59526 13.0945L6.31806 15.5322L13.1224 14.4309L12.8312 19.1619L15.3517 18.9128L15.6475 14.0189L24.08 12.6521L24.1918 9.77206Z" fill="#FE0000"/>
<path d="M5.90109 19.7978L10.8069 15.4788L12.3304 15.1738L7.34301 19.6604L5.90109 19.7978Z" fill="#FE0A14"/>
<path d="M7.64818 28.9941L4.96 28.8567L5.90109 19.7975L8.25848 19.5762L7.64818 28.9941Z" fill="#00016D"/>
<path d="M10.723 29.1553L7.64816 28.9947L8.25848 19.5768L11.3054 19.2998L10.723 29.1553Z" fill="white"/>
<path d="M23.8051 21.8495L13.6954 22.3453L13.912 19.0508L11.3054 19.2721L10.723 29.1554L13.2458 29.2673L13.4765 25.7004L23.6654 25.726L23.8051 21.8495Z" fill="#FE0000"/>
<path d="M8.22587 19.5762L12.2488 16.1699L12.0811 19.2176L8.22587 19.5762Z" fill="#024AB0"/>
<path d="M23.8051 21.8768L13.6883 22.3472L13.912 19.0504L23.9146 18.0537L23.8051 21.8768Z" fill="#FFCC00"/>
<path d="M23.5536 29.7601L13.2458 29.2665L13.467 25.6973L23.6654 25.7253L23.5536 29.7601Z" fill="black"/>
<path d="M23.9706 16.6124L23.9146 18.0537L17.3758 14.4518L19.4258 14.1748L23.9706 16.6124Z" fill="#FE0A14"/>
<path d="M6.26216 16.1704L9.11571 15.7002L6.04086 18.3032L6.26216 16.1704Z" fill="#024AB0"/>
</svg>
