<?xml version="1.0" encoding="UTF-8" standalone="no"?>
<svg
   xmlns:dc="http://purl.org/dc/elements/1.1/"
   xmlns:cc="http://creativecommons.org/ns#"
   xmlns:rdf="http://www.w3.org/1999/02/22-rdf-syntax-ns#"
   xmlns:svg="http://www.w3.org/2000/svg"
   xmlns="http://www.w3.org/2000/svg"
   height="279.01501"
   width="279"
   xml:space="preserve"
   viewBox="0 0 279 279.01501"
   y="0px"
   x="0px"
   id="Layer_1"
   version="1.1"><title
   id="title3716">Laravel logo</title><metadata
   id="metadata11"><rdf:RDF><cc:Work
       rdf:about=""><dc:format>image/svg+xml</dc:format><dc:type
         rdf:resource="http://purl.org/dc/dcmitype/StillImage" /><dc:title>Laravel logo</dc:title></cc:Work></rdf:RDF></metadata><defs
   id="defs9" />
<style
   id="style2"
   type="text/css">
	.st0{fill:#FF2D20;}
</style>
<path
   style="fill:#ff2d20"
   id="path4"
   d="m 274.8,63.125 c -0.03,-0.13 -0.11,-0.24 -0.15,-0.37 -0.09,-0.23 -0.16,-0.47 -0.28,-0.68 -0.08,-0.14 -0.2,-0.26 -0.3,-0.39 -0.13,-0.17 -0.24,-0.36 -0.39,-0.51 -0.13,-0.13 -0.29,-0.22 -0.43,-0.33 -0.16,-0.13 -0.3,-0.27 -0.48,-0.37 0,0 0,0 0,0 0,0 0,0 0,0 l -52.45,-30.2 c -1.35,-0.78 -3.01,-0.78 -4.36,0 l -52.45,30.2 c 0,0 0,0 0,0 0,0 0,0 0,0 -0.18,0.1 -0.32,0.25 -0.48,0.37 -0.14,0.11 -0.3,0.2 -0.43,0.33 -0.15,0.15 -0.26,0.34 -0.39,0.51 -0.1,0.13 -0.22,0.25 -0.3,0.39 -0.12,0.21 -0.2,0.45 -0.28,0.68 -0.05,0.12 -0.12,0.24 -0.15,0.37 -0.1,0.37 -0.15,0.75 -0.15,1.14 v 57.36 l -43.71,25.17 V 34.575 c 0,-0.39 -0.05,-0.77 -0.15,-1.14 -0.03,-0.13 -0.11,-0.24 -0.15,-0.37 -0.09,-0.23 -0.16,-0.47 -0.28,-0.68 -0.08,-0.14 -0.2,-0.26 -0.3,-0.39 -0.13,-0.17 -0.24,-0.36 -0.39,-0.51 -0.13,-0.13 -0.29,-0.22 -0.43,-0.33 -0.16,-0.13 -0.3,-0.27 -0.48,-0.37 0,0 0,0 0,0 0,0 0,0 0,0 L 62.99,0.585 c -1.35,-0.78 -3.01,-0.78 -4.36,0 l -52.45,30.2 c 0,0 0,0 0,0 0,0 0,0 0,0 -0.18,0.1 -0.32,0.25 -0.48,0.37 -0.14,0.11 -0.3,0.2 -0.43,0.33 -0.15,0.15 -0.26,0.34 -0.39,0.51 -0.1,0.13 -0.22,0.25 -0.3,0.39 -0.12,0.21 -0.2,0.45 -0.28,0.68 -0.05,0.12 -0.12,0.24 -0.15,0.37 -0.1,0.37 -0.15,0.75 -0.15,1.14 v 179.66 c 0,1.56 0.84,3.01 2.19,3.79 l 104.91,60.4 c 0.23,0.13 0.48,0.21 0.72,0.3 0.11,0.04 0.22,0.11 0.34,0.14 0.37,0.1 0.74,0.15 1.12,0.15 0.38,0 0.75,-0.05 1.12,-0.15 0.1,-0.03 0.19,-0.09 0.29,-0.12 0.26,-0.09 0.52,-0.18 0.76,-0.31 l 104.91,-60.4 c 1.36,-0.78 2.19,-2.22 2.19,-3.79 v -57.36 l 50.26,-28.94 c 1.36,-0.78 2.19,-2.22 2.19,-3.79 v -59.89 c -0.05,-0.39 -0.11,-0.77 -0.2,-1.14 z m -161.6,146.08 -43.63,-24.69 45.82,-26.38 c 0,0 0,0 0,0 l 50.27,-28.94 43.67,25.14 -32.04,18.29 z M 213.75,96.995 v 49.8 l -18.36,-10.57 -25.36,-14.6 v -49.8 l 18.36,10.57 z m 4.37,-57.89 43.69,25.16 -43.69,25.16 -43.69,-25.16 z M 83.49,166.425 65.13,176.995 V 67.305 l 25.36,-14.6 18.36,-10.57 v 109.68 z m -22.73,-157 43.69,25.16 -43.69,25.16 -43.69,-25.16 z m -48.09,32.71 18.36,10.57 25.36,14.6 v 117.24 c 0,0 0,0.01 0,0.01 0,0 0,0.01 0,0.01 0,0.17 0.05,0.33 0.07,0.49 0.03,0.21 0.03,0.43 0.09,0.64 0,0 0,0.01 0,0.01 0.05,0.17 0.14,0.33 0.21,0.49 0.08,0.18 0.13,0.38 0.23,0.55 0,0 0,0.01 0.01,0.01 0.09,0.15 0.22,0.28 0.33,0.42 0.12,0.16 0.22,0.32 0.36,0.46 0,0 0.01,0.01 0.01,0.01 0.12,0.12 0.28,0.21 0.42,0.32 0.16,0.12 0.3,0.26 0.47,0.36 0.01,0 0.01,0 0.02,0.01 0.01,0 0.01,0.01 0.02,0.01 l 50.24,28.43 v 50.29 l -96.2,-55.36 z m 201.08,169.57 -96.17,55.37 v -50.3 l 71.22,-40.66 24.95,-14.24 z m 52.45,-90.08 -43.71,25.17 v -49.8 l 25.36,-14.6 18.36,-10.57 v 49.8 z"
   class="st0" />
</svg>