<svg width="32" height="32" viewBox="0 0 32 32" fill="none" xmlns="http://www.w3.org/2000/svg">
<path d="M32 2.80181C32.0008 3.3563 31.8371 3.89857 31.5295 4.35996C31.2219 4.82134 30.7843 5.1811 30.2721 5.39367C29.7599 5.60624 29.1961 5.66208 28.6522 5.5541C28.1082 5.44612 27.6085 5.17919 27.2164 4.78711C26.8243 4.39502 26.5573 3.8954 26.4493 3.35152C26.3413 2.80764 26.3972 2.24395 26.6098 1.73182C26.8224 1.21969 27.1822 0.78215 27.6436 0.474597C28.1051 0.167045 28.6474 0.0033116 29.202 0.00412763C29.944 0.00412763 30.6557 0.298882 31.1805 0.823549C31.7052 1.34822 32 2.05982 32 2.80181ZM29.202 8.80567C28.6486 8.80567 28.1076 8.96976 27.6475 9.27717C27.1873 9.58458 26.8287 10.0215 26.6169 10.5327C26.4051 11.0439 26.3497 11.6065 26.4577 12.1492C26.5656 12.6918 26.8321 13.1903 27.2234 13.5816C27.6148 13.9729 28.1133 14.2393 28.6561 14.3473C29.1989 14.4552 29.7614 14.3998 30.2727 14.1881C30.784 13.9763 31.221 13.6177 31.5284 13.1577C31.8359 12.6976 32 12.1567 32 11.6034C32 10.8614 31.7052 10.1498 31.1805 9.6251C30.6557 9.10043 29.944 8.80567 29.202 8.80567ZM11.6007 5.60361C12.1549 5.60361 12.6967 5.43929 13.1575 5.13142C13.6183 4.82356 13.9775 4.38597 14.1896 3.87401C14.4017 3.36205 14.4572 2.7987 14.349 2.2552C14.2409 1.7117 13.974 1.21247 13.5822 0.820631C13.1903 0.428792 12.691 0.161945 12.1474 0.0538372C11.6038 -0.0542711 11.0404 0.00121396 10.5284 0.213276C10.0163 0.425338 9.57871 0.784452 9.27081 1.24521C8.9629 1.70596 8.79855 2.24766 8.79855 2.80181C8.79801 3.1699 8.87012 3.53448 9.01075 3.87465C9.15138 4.21483 9.35777 4.52391 9.61808 4.78419C9.87839 5.04447 10.1875 5.25083 10.5277 5.39144C10.868 5.53205 11.2326 5.60415 11.6007 5.60361ZM29.202 17.6031C28.6476 17.6023 28.1054 17.7659 27.644 18.0733C27.1827 18.3806 26.8229 18.8179 26.6102 19.3298C26.3974 19.8417 26.3413 20.4052 26.449 20.949C26.5567 21.4927 26.8232 21.9924 27.2149 22.3846C27.6067 22.7769 28.106 23.0441 28.6496 23.1526C29.1933 23.261 29.7569 23.2058 30.2692 22.9938C30.7815 22.7819 31.2194 22.4228 31.5275 21.9619C31.8355 21.5011 32 20.9592 32 20.4049C32 19.6625 31.7053 18.9505 31.1807 18.4252C30.6561 17.8999 29.9444 17.6042 29.202 17.6031ZM20.3993 5.60361C20.9537 5.60443 21.4958 5.4408 21.9572 5.13343C22.4186 4.82606 22.7784 4.38876 22.9911 3.87687C23.2038 3.36498 23.2599 2.8015 23.1522 2.25774C23.0446 1.71397 22.778 1.21435 22.3863 0.822095C21.9946 0.429842 21.4953 0.162586 20.9516 0.0541429C20.4079 -0.0543003 19.8443 0.00094332 19.332 0.212884C18.8197 0.424824 18.3819 0.783935 18.0738 1.24478C17.7657 1.70562 17.6012 2.24749 17.6012 2.80181C17.6012 3.54418 17.8959 4.2562 18.4205 4.78152C18.9451 5.30685 19.6568 5.60252 20.3993 5.60361ZM5.60021 0.00412763H0V32H32V26.4129H5.58783L5.60021 0.00412763Z" fill="#006AEF"/>
</svg>
