<svg width="32" height="32" viewBox="0 0 32 32" fill="none" xmlns="http://www.w3.org/2000/svg">
<path d="M12.6685 23.9509C23.3133 25.6616 23.3133 17.4879 23.1233 17.4879H8.86665C8.86665 17.4879 3.54437 22.2401 1.83373 23.7608C2.59418 26.8022 6.20569 29.8435 8.29667 30.6038C8.48678 30.6038 12.2884 24.5211 12.6686 23.9509H12.6685ZM7.34612 3.80174C7.34612 1.71076 6.39568 0 4.11459 0C1.64362 0 0.883179 1.71076 0.883179 3.80174V17.6779C0.883179 19.5788 1.2634 21.4796 1.64362 22.24L7.53623 17.1076C7.34612 17.1076 7.34612 5.32227 7.34612 3.80162V3.80174ZM31.1069 3.80174C31.1069 1.71076 30.1563 0 27.8754 0C25.4043 0 24.6439 1.71076 24.6439 3.80174C24.6439 4.94229 24.8341 13.4962 24.6439 18.8185C24.6439 20.7194 21.9828 25.6616 15.9 25.4715C14.5694 25.4715 13.8091 25.4715 13.4288 25.2814C13.0486 25.8517 10.1974 30.7939 10.0073 30.984C11.1479 31.3643 13.6189 31.9345 15.9 31.9345C26.1646 31.9345 31.297 25.4715 31.1069 16.9176V3.80174ZM15.3297 15.9672V10.0747C15.3297 7.9837 14.3793 6.27294 12.0983 6.27294C9.62709 6.27294 8.86677 7.9837 8.86677 10.0747V15.9673H15.3297V15.9672ZM23.3133 15.9672V10.0747C23.3133 7.9837 22.3629 6.27294 20.0819 6.27294C17.6108 6.27294 16.8504 7.9837 16.8504 10.0747V15.9673H23.3133V15.9672Z" fill="#DC0000"/>
</svg>
