<svg width="32" height="32" viewBox="0 0 32 32" fill="none" xmlns="http://www.w3.org/2000/svg">
<path fill-rule="evenodd" clip-rule="evenodd" d="M15.4181 29.8667C22.8848 29.8667 28.8969 23.5637 28.8969 15.9031C28.8969 15.1274 28.8 14.4486 28.703 13.7698C28.703 13.9637 28.703 14.2546 28.703 14.4486C28.703 21.2364 23.3697 26.6667 16.8727 26.6667C14.0606 26.6667 11.5394 25.697 9.50299 24.0486C8.5333 24.8243 7.95148 25.4061 6.01208 26.0849C8.5333 28.4122 11.8303 29.8667 15.4181 29.8667Z" fill="#17202D"/>
<path fill-rule="evenodd" clip-rule="evenodd" d="M5.04241 14.4485C5.04241 7.66067 10.3757 2.23036 16.8727 2.23036C17.4545 2.23036 17.9394 2.32733 18.5212 2.32733C17.4545 2.03642 16.3879 1.93945 15.3212 1.93945C7.9515 1.93945 1.84241 8.24248 1.84241 15.9031C1.84241 17.7455 2.23029 19.491 2.71513 21.0425C3.49089 20.1698 4.84847 19.297 5.81816 18.8122C5.23635 17.4546 5.04241 16.0001 5.04241 14.4485Z" fill="#17202D"/>
<path fill-rule="evenodd" clip-rule="evenodd" d="M12.9939 12.2181C10.5697 11.3454 8.33937 12.0242 7.27271 12.509C9.01816 13.3818 9.98786 14.4484 10.6666 15.4181C11.3454 14.3515 12.8 12.509 12.9939 12.2181Z" fill="#17202D"/>
<path fill-rule="evenodd" clip-rule="evenodd" d="M17.7455 19.103C17.7455 18.8121 17.6485 18.5212 17.6485 18.1333C17.1636 18.5212 16.1939 19.103 15.1273 19.6848C15.0303 19.7818 14.8364 19.7818 14.6424 19.8788C14.3515 19.9757 14.1576 20.0727 13.8667 20.2666C13.7697 20.2666 13.7697 20.2666 13.6727 20.3636C13.6727 20.4606 13.7697 20.5575 13.7697 20.6545C13.7697 20.7515 13.8667 20.8485 13.8667 20.9454C13.8667 21.0424 13.9636 21.1394 13.9636 21.2363C14.0606 21.4303 14.0606 21.6242 14.1576 21.9151C14.1576 22.0121 14.2545 22.206 14.2545 22.303C14.2545 22.4 14.3515 22.5939 14.3515 22.6909C14.5455 23.3697 14.6424 24.2424 14.6424 25.0181C14.6424 25.2121 14.6424 25.406 14.6424 25.6C15.6121 24.9212 17.6485 23.1757 17.6485 19.8788C17.6485 19.7818 17.6485 19.7818 17.6485 19.6848C17.6485 19.5878 17.6485 19.5878 17.6485 19.4909C17.7455 19.2969 17.7455 19.2 17.7455 19.103Z" fill="#17202D"/>
<path fill-rule="evenodd" clip-rule="evenodd" d="M30.1576 3.87875C30.9333 3.87875 31.5151 4.07269 31.903 4.16966C29.1879 11.1515 24.0485 15.2242 20.1697 17.4545C19.6848 17.7454 19.297 17.9394 18.9091 18.1333C18.9091 17.7454 18.7151 16.9697 18.6182 16.3878C18.6182 16.2909 18.4242 16.1939 18.3273 16.2909C16.5818 17.6484 14.9333 18.6181 12.5091 19.5878C12.4121 19.6848 12.3151 19.7818 12.4121 19.9757C12.5091 20.0727 12.6061 20.2666 12.6061 20.4606C12.1212 20.5575 11.5394 20.7515 11.3454 20.7515C11.2485 19.9757 10.6667 19.006 10.0848 18.6181C10.2788 18.2303 10.6667 17.5515 10.9576 17.0666C11.0545 16.9697 11.0545 16.8727 11.1515 16.6788C11.2485 16.5818 11.2485 16.4848 11.3454 16.3878C12.1212 15.3212 12.9939 13.9636 14.1576 12.606C14.2545 12.5091 14.3515 12.4121 14.3515 12.3151C14.4485 12.2181 14.5454 12.1212 14.5454 12.0242C16.6788 9.503 19.3939 6.88481 22.1091 5.43027C23.9515 4.46057 25.7939 3.87875 27.7333 3.68481C27.3454 4.3636 26.6667 5.3333 25.4061 6.49694L25.3091 6.59391C25.2121 6.69088 25.2121 6.78784 25.2121 6.88481C25.2121 7.27269 25.503 7.66057 25.7939 7.85451C26.2788 8.24239 26.7636 8.33936 27.1515 8.04845L27.2485 7.95148C28.703 6.98178 29.6727 5.43027 30.1576 3.87875ZM18.7151 15.3212C19.3939 15.3212 19.8788 14.7394 19.8788 14.0606C19.8788 13.3818 19.297 12.8 18.7151 12.8C18.0364 12.8 17.5515 13.3818 17.5515 14.0606C17.4545 14.7394 18.0364 15.3212 18.7151 15.3212ZM21.3333 13.1878C20.6545 13.1878 20.1697 12.606 20.1697 11.9272C20.1697 11.2485 20.7515 10.6666 21.3333 10.6666C22.0121 10.6666 22.497 11.2485 22.497 11.9272C22.5939 12.703 22.0121 13.1878 21.3333 13.1878ZM23.9515 11.1515C23.2727 11.1515 22.7879 10.5697 22.7879 9.89087C22.7879 9.21209 23.2727 8.63027 23.9515 8.63027C24.6303 8.63027 25.1151 9.21209 25.1151 9.89087C25.1151 10.5697 24.6303 11.1515 23.9515 11.1515Z" fill="#17202D"/>
<path fill-rule="evenodd" clip-rule="evenodd" d="M8.92121 19.2971C9.6 19.2971 10.1818 20.5577 10.1818 20.9456C10.1818 21.3335 9.98788 22.0122 8.82424 23.1759C7.85455 24.1456 6.49697 24.7274 5.23636 25.1153C3.2 25.6971 1.06667 25.891 0 25.891C1.26061 24.3395 2.32727 23.0789 3.29697 22.2062C4.46061 21.0425 5.52727 20.3638 6.30303 19.9759C7.75758 19.2001 8.6303 19.2971 8.92121 19.2971C8.82424 19.2971 8.82424 19.2971 8.92121 19.2971ZM8.72727 20.7516C8.92121 20.5577 9.01818 20.4607 9.01818 20.4607C9.01818 20.3638 8.92121 20.3638 8.92121 20.2668C8.43636 19.685 6.98182 20.2668 6.30303 20.6547C5.13939 21.3335 4.07273 22.4971 3.68485 22.9819C3.58788 23.0789 3.58788 23.1759 3.58788 23.1759C3.58788 23.1759 3.68485 23.0789 3.78182 23.0789C4.26667 22.5941 5.62424 21.4304 6.59394 21.1395C6.69091 21.1395 6.01212 22.885 6.01212 22.885C6.01212 22.885 7.56364 21.8183 7.56364 21.7213C7.85455 21.5274 8.04848 21.3335 8.24242 21.1395C8.33939 21.0425 8.43636 20.9456 8.53333 20.9456C8.53333 20.8486 8.6303 20.7516 8.72727 20.7516Z" fill="#17202D"/>
</svg>
