<svg width="32" height="32" viewBox="0 0 32 32" fill="none" xmlns="http://www.w3.org/2000/svg">
<path d="M18.6492 5.414L15.9164 8.2604C15.7204 8.4644 15.454 8.2604 15.454 8.2604L11.9532 4.55C11.6899 4.27264 11.3729 4.05177 11.0215 3.90084C10.6701 3.74991 10.2916 3.67207 9.90919 3.67207C9.52675 3.67207 9.14831 3.74991 8.79691 3.90084C8.44551 4.05177 8.1285 4.27264 7.86519 4.55C6.74039 5.7212 6.74039 7.6372 7.86519 8.8084L13.6716 14.8564C13.9349 15.1339 14.252 15.3549 14.6034 15.5059C14.9549 15.6569 15.3334 15.7347 15.716 15.7347C16.0985 15.7347 16.4771 15.6569 16.8285 15.5059C17.18 15.3549 17.4971 15.1339 17.7604 14.8564L22.6196 9.7956L23.4716 8.8852C23.6072 8.74152 23.7708 8.62707 23.9522 8.54884C24.1337 8.47061 24.3292 8.43026 24.5268 8.43026C24.7244 8.43026 24.9199 8.47061 25.1013 8.54884C25.2828 8.62707 25.4463 8.74152 25.582 8.8852C26.166 9.4924 26.1524 10.4284 25.5692 11.0356L24.6932 11.9556L15.8644 21.1508C15.594 21.4316 15.3324 21.1516 15.3324 21.1516L5.73159 11.1532C5.46828 10.8758 5.15127 10.655 4.79987 10.504C4.44847 10.3531 4.07003 10.2753 3.68759 10.2753C3.30515 10.2753 2.9267 10.3531 2.57531 10.504C2.22391 10.655 1.9069 10.8758 1.64359 11.1532C0.518788 12.3244 0.518788 14.2404 1.64359 15.4116L13.6124 27.8772L13.5492 27.8196C13.8125 28.0971 14.1296 28.3181 14.481 28.4691C14.8325 28.6201 15.211 28.6979 15.5936 28.6979C15.9761 28.6979 16.3547 28.6201 16.7061 28.4691C17.0576 28.3181 17.3747 28.0971 17.638 27.8196L28.782 16.2132L28.9004 16.09C31.7356 13.138 31.7508 8.366 28.9156 5.414C26.0804 2.462 21.4836 2.462 18.6492 5.414Z" fill="#751EFF"/>
</svg>
