<svg width="32" height="32" viewBox="0 0 32 32" fill="none" xmlns="http://www.w3.org/2000/svg">
<path d="M16.0251 28.1045C15.8104 28.1059 15.5991 28.051 15.4123 27.9451C13.8129 27.0198 1.96742 19.5926 1.52007 19.3659C1.17963 19.207 0.947157 18.8815 0.90698 18.5079V8.09029C0.89846 7.70142 1.0907 7.33547 1.4159 7.12206L1.50169 7.07303C2.64763 6.36218 6.48378 4.02127 7.09046 3.68423C7.22965 3.60162 7.3882 3.55722 7.55006 3.55554C7.70179 3.55726 7.85093 3.59507 7.98515 3.66585C7.98515 3.66585 13.3533 7.16495 14.1745 7.47748C14.7506 7.74219 15.3789 7.87413 16.0129 7.86355C16.7313 7.87857 17.4412 7.70533 18.0719 7.36105C18.8747 6.93822 24.0038 3.68423 24.059 3.68423C24.1883 3.60613 24.3369 3.56579 24.4879 3.5678C24.6499 3.56859 24.8087 3.61305 24.9475 3.69649C25.6461 4.08255 30.4015 6.99337 30.6037 7.12206C30.9382 7.32385 31.1409 7.68746 31.1369 8.07803V18.4957C31.0994 18.8702 30.8661 19.1967 30.5241 19.3536C30.0767 19.5987 18.268 27.0259 16.6379 27.9329C16.4523 28.043 16.2409 28.1022 16.0251 28.1045Z" fill="url(#paint0_linear_2926_17)"/>
<g style="mix-blend-mode:multiply">
<path d="M15.9638 28.1045H16.0251C16.2398 28.1059 16.4511 28.051 16.6379 27.9451C18.2373 27.0198 30.0767 19.5926 30.524 19.3659C30.8661 19.2089 31.0993 18.8824 31.1369 18.508V8.09029C31.1388 7.91393 31.0989 7.73962 31.0204 7.58167L15.9638 15.8484V28.1045Z" fill="#F624A0"/>
</g>
<g style="mix-blend-mode:multiply" opacity="0.41">
<path d="M0.888885 18.4896C0.934714 18.87 1.17999 19.197 1.53233 19.3475C1.97968 19.5926 13.8252 27.0198 15.4246 27.9267C15.5896 28.0209 15.7742 28.0755 15.9639 28.0861V15.83L0.956294 7.68585C0.913262 7.81009 0.890501 7.94045 0.888885 8.07192V18.4896Z" fill="#F58000"/>
</g>
<defs>
<linearGradient id="paint0_linear_2926_17" x1="0.888614" y1="15.83" x2="31.1614" y2="15.83" gradientUnits="userSpaceOnUse">
<stop stop-color="#FF9200"/>
<stop offset="0.29" stop-color="#F36D00"/>
<stop offset="0.32" stop-color="#F4680B"/>
<stop offset="0.57" stop-color="#F83C72"/>
<stop offset="0.78" stop-color="#FC1CBE"/>
<stop offset="0.93" stop-color="#FE08ED"/>
<stop offset="1" stop-color="#FF00FF"/>
</linearGradient>
</defs>
</svg>
