<svg width="32" height="32" viewBox="0 0 32 32" fill="none" xmlns="http://www.w3.org/2000/svg">
<path d="M23.7274 29.3047C22.8907 29.787 21.8216 29.5014 21.3393 28.6647L16.0557 19.5103L10.7722 28.6635C10.2898 29.5002 9.21957 29.7858 8.38401 29.3035C7.54727 28.8211 7.26045 27.7509 7.74401 26.9153L13.0276 17.7621H2.45927C1.49334 17.7621 0.711121 16.9799 0.711121 16.014C0.711121 15.0481 1.49334 14.2658 2.45927 14.2658H16.0557C16.6803 14.2658 17.2575 14.5989 17.5692 15.1405L24.3674 26.9165C24.851 27.7521 24.5642 28.8211 23.7274 29.3047Z" fill="url(#paint0_linear_3408_21)"/>
<path d="M21.6036 16.8887C21.9165 17.4291 22.4925 17.7621 23.1171 17.7621H29.651C30.6169 17.7621 31.3991 16.9799 31.3991 16.014C31.3991 15.0481 30.6169 14.2658 29.651 14.2658H23.1171C21.7719 14.2658 20.9304 15.7224 21.6036 16.8887Z" fill="url(#paint1_linear_3408_21)"/>
<path d="M23.7274 2.72333C22.8907 2.24096 21.8217 2.52659 21.3393 3.36333L17.4329 10.1295C16.9506 10.9663 17.2362 12.0353 18.0729 12.5177C18.9085 13.0001 19.9775 12.7133 20.4611 11.8777L24.3674 5.11148C24.8498 4.27592 24.5642 3.20688 23.7274 2.72333Z" fill="url(#paint2_linear_3408_21)"/>
<path d="M14.6714 10.1307L10.7721 3.36331C10.2898 2.52776 9.22072 2.24094 8.38398 2.72331H8.3828C7.54606 3.20568 7.26043 4.27472 7.7428 5.11146L11.6421 11.8777C11.9538 12.4181 12.5309 12.7512 13.1555 12.7512H13.1567C14.5031 12.7524 15.3446 11.2958 14.6714 10.1307Z" fill="url(#paint3_linear_3408_21)"/>
<defs>
<linearGradient id="paint0_linear_3408_21" x1="0.711121" y1="21.9024" x2="24.6022" y2="21.9024" gradientUnits="userSpaceOnUse">
<stop stop-color="#2E84FC"/>
<stop offset="1" stop-color="#035DDB"/>
</linearGradient>
<linearGradient id="paint1_linear_3408_21" x1="21.3667" y1="16.014" x2="31.3997" y2="16.014" gradientUnits="userSpaceOnUse">
<stop stop-color="#00E1FF"/>
<stop offset="1" stop-color="#00B8FF"/>
</linearGradient>
<linearGradient id="paint2_linear_3408_21" x1="17.1977" y1="7.62081" x2="24.6021" y2="7.62081" gradientUnits="userSpaceOnUse">
<stop stop-color="#00E1FF"/>
<stop offset="1" stop-color="#00B8FF"/>
</linearGradient>
<linearGradient id="paint3_linear_3408_21" x1="7.50862" y1="7.6208" x2="14.9084" y2="7.6208" gradientUnits="userSpaceOnUse">
<stop stop-color="#00E1FF"/>
<stop offset="1" stop-color="#00B8FF"/>
</linearGradient>
</defs>
</svg>
