<svg width="32" height="32" viewBox="0 0 32 32" fill="none" xmlns="http://www.w3.org/2000/svg">
<path d="M13.2013 15.7706L20.6941 6.85693H21.5994V15.7706H20.2872V9.21008L14.802 15.7706H13.2013Z" fill="black"/>
<path d="M1.37743 14.5558H5.43193V15.7706H0.0523071V6.85693H1.37743V14.5558Z" fill="black"/>
<path d="M12.5188 10.3484V11.5632H8.45083V14.5558H12.5188V15.7706H7.13861V6.85693H12.5188V8.04665H8.45083V10.3484H12.5188Z" fill="black"/>
<path d="M25.1555 9.21008V15.7706H23.8433V6.85693H24.775L30.2602 13.3924V6.85693H31.5724V15.7706H30.6671L25.1555 9.21008Z" fill="black"/>
<path d="M13.2013 15.7706L20.6941 6.85693H21.5994V15.7706H20.2872V9.21008L14.802 15.7706H13.2013Z" fill="black"/>
<path d="M1.37743 14.5558H5.43193V15.7706H0.0523071V6.85693H1.37743V14.5558Z" fill="black"/>
<path d="M12.5188 10.3484V11.5632H8.45083V14.5558H12.5188V15.7706H7.13861V6.85693H12.5188V8.04665H8.45083V10.3484H12.5188Z" fill="black"/>
<path d="M25.1555 9.21008V15.7706H23.8433V6.85693H24.775L30.2602 13.3924V6.85693H31.5724V15.7706H30.6671L25.1555 9.21008Z" fill="black"/>
<path d="M27.6531 23.5545H26.7451L24.136 19.4625V25.4728H22.8571V16.5591H23.7651L27.1926 21.9819L30.6457 16.5591H31.5406V25.4728H30.2617V19.4625L27.6531 23.5545Z" fill="black"/>
<path d="M14.6351 24.4242C14.0724 23.7975 13.7143 22.979 13.7143 21.7769V16.5591H14.9932V21.8664C14.9932 22.7105 15.1978 23.2348 15.5559 23.6313C16.0035 24.13 16.6685 24.4369 17.423 24.4369C18.1776 24.4369 18.8298 24.1428 19.2902 23.6313C19.6483 23.2348 19.8529 22.7105 19.8529 21.8664V16.5591H21.1318V21.8025C21.1318 23.0046 20.7737 23.8231 20.211 24.4497C19.5332 25.1915 18.5484 25.6263 17.4358 25.6263C16.3232 25.6263 15.3129 25.1531 14.6351 24.4242Z" fill="black"/>
<path d="M8.70741 24.2579H12.6714V25.4728H7.42856V16.5591H8.70741V24.2579Z" fill="black"/>
<path d="M3.31228 20.2934C3.92614 20.2934 4.25865 20.1399 4.48884 19.8969C4.69346 19.6667 4.84693 19.3726 4.84693 19.0145C4.84693 18.6564 4.69346 18.3623 4.48884 18.1321C4.25865 17.8763 3.92614 17.7356 3.31228 17.7356H1.26608V20.2806H3.31228V20.2934ZM1.27887 21.5211V25.4728H0V16.5591H3.38901C4.24586 16.5591 4.82135 16.7637 5.25617 17.1474C5.78051 17.6078 6.13859 18.2856 6.13859 19.0401C6.13859 19.7946 5.80608 20.4852 5.25617 20.9328C4.80856 21.3165 4.27144 21.5211 3.38901 21.5211H1.27887Z" fill="black"/>
</svg>
