<svg width="32" height="32" viewBox="0 0 32 32" fill="none" xmlns="http://www.w3.org/2000/svg">
<path fill-rule="evenodd" clip-rule="evenodd" d="M19.6009 1.60065L30.3998 12.4004C33.9347 15.9351 30.5281 19.4698 30.4061 19.5964L30.4022 19.5996L19.6009 30.4002C16.0007 33.9998 12.4006 30.4002 12.4006 30.4002L1.60007 19.5996C-2.00009 16 1.60007 12.4004 1.60007 12.4004L12.4006 1.59984C16.0007 -1.9998 19.6009 1.59984 19.6009 1.59984V1.60065ZM20.0125 7.13112C20.0308 7.11357 20.0551 7.10423 20.0801 7.10516C20.0677 7.1041 20.0552 7.10588 20.0435 7.11036C20.0318 7.11485 20.0212 7.12194 20.0125 7.13112ZM27.4662 17.5479L28.8527 16.1606C28.8527 16.1606 29.014 16 28.8551 15.8337L27.5527 14.5308C27.5527 14.5308 27.5433 14.521 27.5291 14.5121L27.4976 14.4797C27.4873 14.4687 27.4768 14.4579 27.4662 14.4472L27.3119 14.2931C27.3119 14.2931 25.7617 12.7419 24.2099 14.2931L22.4283 16.0738C22.4283 16.0738 20.8773 17.6242 22.4283 19.1753L22.5825 19.3295C22.5825 19.3295 24.1328 20.8798 25.6838 19.3295L26.7383 18.2748L27.4662 17.5471V17.5479ZM24.9228 12.1667C24.9405 12.1745 24.9599 12.1768 24.9788 12.1733C24.9977 12.1699 25.0151 12.1608 25.0291 12.1472C25.0676 12.1107 25.0676 12.0507 25.0267 12.0093C25.0252 12.0074 25.0233 12.0057 25.0212 12.0045L24.3594 11.3425L24.2941 11.2776L23.9691 10.953L23.962 10.9449L22.6691 9.65257C22.6691 9.65257 22.6597 9.64283 22.6455 9.6331L22.6392 9.62661C22.6209 9.60578 22.602 9.58549 22.5825 9.56576L22.4283 9.41162C22.4283 9.41162 20.8773 7.86127 19.3263 9.41162L14.2884 14.4497C14.2884 14.4497 12.7382 15.9992 14.2884 17.5504L14.4426 17.7045C14.4426 17.7045 15.9929 19.2557 17.5447 17.7045L21.8523 13.3942L22.5825 12.6648C23.4537 11.7927 24.3256 11.9039 24.9228 12.1667V12.1667ZM20.0416 7.28526C20.0591 7.29315 20.0785 7.29558 20.0974 7.29227C20.1163 7.28895 20.1338 7.28003 20.1478 7.26661C20.1566 7.25751 20.1636 7.24667 20.1683 7.23473C20.173 7.2228 20.1753 7.21001 20.1751 7.19713C20.1749 7.18425 20.1721 7.17155 20.167 7.15979C20.1619 7.14803 20.1546 7.13745 20.1454 7.12869C20.1411 7.12519 20.1363 7.12219 20.1313 7.11976L20.1234 7.1149C20.1259 7.11666 20.1286 7.11828 20.1313 7.11976C20.136 7.12139 20.1391 7.12382 20.1431 7.12625L19.4781 6.46182L19.4128 6.39692L19.0878 6.07241L19.0807 6.06429L17.7878 4.7695C17.7878 4.7695 17.7776 4.75976 17.7642 4.75003L17.7579 4.74353C17.7393 4.72269 17.7202 4.7024 17.7005 4.68269L17.547 4.52855C17.547 4.52855 15.996 2.97739 14.445 4.52855L9.40712 9.56658C9.40712 9.56658 7.85688 11.1161 9.40712 12.6673L9.56135 12.8214C9.56135 12.8214 11.1116 14.3718 12.6634 12.8214L16.971 8.5111L17.7005 7.7842C18.5724 6.91208 19.4443 7.02322 20.0416 7.28526V7.28526ZM15.8315 22.3474L7.77976 14.2939C7.77976 14.2939 6.22953 12.7435 4.67851 14.2939L4.52427 14.448L4.46683 14.5154C4.46289 14.519 4.45868 14.5222 4.45424 14.5251C4.45006 14.528 4.44611 14.5313 4.44243 14.5348L3.13929 15.8377C3.13929 15.8377 2.97561 15.9992 3.13929 16.1623L4.52663 17.5495L5.25375 18.2764L14.4505 27.4658C14.4505 27.4658 15.9992 29.0161 17.5502 27.4658L17.562 27.4536L17.7036 27.3116L18.2797 26.7356L18.2938 26.7218L20.2296 24.7853L20.9575 24.0584L22.3449 22.6711C22.3449 22.6711 22.5086 22.5097 22.3449 22.3466L21.0417 21.0437C21.0417 21.0437 21.0323 21.034 21.0181 21.0242C21.0075 21.0136 20.997 21.0027 20.9867 20.9918L20.9552 20.9593L20.8009 20.8052C20.8009 20.8052 19.2507 19.2548 17.6989 20.8052L16.1558 22.3491C15.9944 22.5048 15.8331 22.3466 15.8331 22.3466L15.8315 22.3474Z" fill="black"/>
</svg>
