<svg width="32" height="32" viewBox="0 0 32 32" fill="none" xmlns="http://www.w3.org/2000/svg">
<path fill-rule="evenodd" clip-rule="evenodd" d="M31.0039 11.8814C30.9668 11.8812 30.9297 11.8783 30.8929 11.8729L19.8303 10.2607C19.275 10.176 18.8232 9.60939 18.8232 8.99763V4.56468C18.8232 4.08657 19.0943 3.76562 19.4971 3.76562C19.5881 3.76654 19.6784 3.78211 19.7644 3.81174L30.8722 7.37974C31.3465 7.53504 31.7475 8.14492 31.7475 8.71151V10.9976C31.7475 11.5012 31.4275 11.8814 31.0039 11.8814ZM19.6919 18.9873C19.1818 18.9873 18.8232 18.5873 18.8232 18.0235V13.6169C18.8232 13.0522 19.2232 12.6108 19.7343 12.6108C19.7597 12.6108 19.7861 12.6117 19.8134 12.6146L30.8665 13.5482C31.3522 13.5915 31.7465 14.0875 31.7465 14.6541V16.9383C31.7465 17.5059 31.3522 18.0019 30.8665 18.0442L19.7701 18.9835C19.7441 18.9859 19.718 18.9871 19.6919 18.9873ZM19.4981 27.8268C19.0934 27.8268 18.8232 27.5068 18.8232 27.0296V22.5901C18.8232 21.9764 19.275 21.4099 19.8303 21.327L30.8938 19.7195C30.93 19.7142 30.9665 19.7117 31.003 19.712C31.4265 19.712 31.7465 20.0913 31.7465 20.5967V22.8809C31.7465 23.456 31.3541 24.0536 30.8722 24.2136L19.7644 27.7826C19.6786 27.8116 19.5887 27.8265 19.4981 27.8268Z" fill="#F28700"/>
<path fill-rule="evenodd" clip-rule="evenodd" d="M1.69999 13.3553C1.26046 13.3553 0.941406 12.9826 0.941406 12.4687V12.0969C0.941406 11.4833 1.3687 10.7604 1.87505 10.5195L15.8327 3.84657C15.932 3.79613 16.0413 3.76848 16.1527 3.76562C16.4765 3.76562 16.6863 4.04798 16.6863 4.48186V8.93551C16.6863 9.5501 16.2468 10.1487 15.7066 10.2682L1.88258 13.3346C1.82268 13.3482 1.76144 13.3552 1.69999 13.3553ZM15.8327 18.9929C15.7969 18.9929 15.7612 18.9901 15.7245 18.9854L1.92682 17.216C1.38376 17.1482 0.941406 16.5948 0.941406 15.983V15.6094C0.941406 14.9976 1.38376 14.4452 1.92776 14.3764L15.7245 12.6089C15.761 12.6038 15.7977 12.6013 15.8346 12.6014C16.3202 12.6014 16.6863 13.0174 16.6863 13.5708V18.0235C16.6863 18.2936 16.5969 18.5412 16.436 18.72C16.3607 18.8056 16.2681 18.8743 16.1642 18.9214C16.0604 18.9684 15.9477 18.9928 15.8336 18.9929H15.8327ZM16.1527 27.8268C16.041 27.8242 15.9313 27.7965 15.8318 27.7459L1.87505 21.0739C1.3687 20.832 0.941406 20.111 0.941406 19.4974V19.1228C0.941406 18.6108 1.26141 18.2381 1.69905 18.2381C1.75929 18.2381 1.82141 18.2447 1.88258 18.2588L15.7056 21.3242C16.2459 21.4456 16.6863 22.0433 16.6863 22.6588V27.1124C16.6863 27.3336 16.6318 27.5172 16.5311 27.6452C16.4864 27.7028 16.429 27.7492 16.3633 27.7807C16.2977 27.8122 16.2255 27.828 16.1527 27.8268" fill="#26338C"/>
</svg>
