<svg width="32" height="32" viewBox="0 0 32 32" fill="none" xmlns="http://www.w3.org/2000/svg">
<g clip-path="url(#clip0)">
<path d="M32.1371 16.8577C32.0711 15.1753 31.9062 13.6577 31.3783 12.0412C32.2361 12.2062 31.0484 9.9299 30.9165 9.69897C30.4546 8.80825 29.8278 7.95052 29.135 7.19175C29.5639 6.00412 27.0567 4.1567 27.0567 4.1567C26.3639 3.69485 24.8794 2.67216 24.3185 2.30928C24.0216 1.05567 20.6897 0 16.269 0C11.8484 0 9.70409 0.494845 9.3742 1.71546C7.88966 2.07835 4.62368 3.72783 4.78863 5.4433C3.9309 6.00412 0.401002 9.00619 1.85255 9.9299C1.09379 10.6887 -0.555699 16 0.928837 16.3959C0.59894 17.4845 0.466981 23.5546 2.34739 23.0598C2.6443 24.1814 3.10616 25.2371 3.83193 26.1608C4.29379 26.8206 5.18451 28.1732 6.07523 28.0412C6.83399 29.3278 10.1989 31.868 11.6505 31.0763C13.7288 31.901 16.1701 31.6701 18.3144 31.3402C19.2051 31.901 20.3928 31.3402 21.2505 30.9773C22.4051 30.5485 23.4938 29.9546 24.4835 29.2289C26.034 30.4495 28.4422 25.8969 28.8381 24.9732C29.6629 24.7093 29.9928 24.4124 30.3556 23.5876C30.5866 23.0598 30.7845 22.499 30.9165 21.9711C31.1804 21.1134 31.2794 20.1897 31.2794 19.266C32.302 19.233 32.1701 17.5835 32.1371 16.8577Z" fill="black"/>
<path d="M25.2094 14.0865C25.3083 12.9648 24.2857 13.0968 23.4609 13.0638C22.5702 13.0308 21.6795 13.0308 20.7888 13.0638H20.3269C20.5248 13.5257 20.6568 13.9545 20.6898 14.4494C20.8877 16.7587 19.0073 18.771 16.863 19.2989C14.8836 19.7937 12.4424 18.6721 11.9145 16.5937C11.6506 15.505 11.7496 14.3504 12.1784 13.3277C11.4197 13.3937 10.6279 13.4267 9.86917 13.4927C9.30834 13.5587 8.68154 13.5257 8.08773 13.6246C6.9001 13.8226 7.36195 14.7793 7.46092 15.67C7.5269 16.1318 7.69185 16.5607 7.88979 16.9896V16.9566C9.20937 19.9916 12.0465 21.7401 15.2465 22.136H15.2135C17.7207 22.4659 20.5908 21.7071 22.3393 19.8267C22.9661 19.1339 23.5269 18.3751 23.9558 17.5504C24.4836 16.6927 25.3743 15.1751 25.2094 14.0865Z" fill="white"/>
</g>
<defs>
<clipPath id="clip0">
<rect width="32" height="32" fill="white"/>
</clipPath>
</defs>
</svg>
