<svg width="128" height="128" viewBox="0 0 128 128" fill="none" xmlns="http://www.w3.org/2000/svg">
<rect width="128" height="128" fill="#FF98A2"/>
<path d="M115.007 49.8312L64.4685 100.056H54.3236C53.9937 100.055 53.6713 99.9581 53.3972 99.7759C53.123 99.5936 52.9094 99.3347 52.7834 99.0317C52.6574 98.7288 52.6246 98.3955 52.6893 98.0741C52.754 97.7527 52.9132 97.4575 53.1467 97.2261L67.429 83.0225C68.5522 81.9041 69.1829 80.3884 69.1826 78.8082V36.7309C69.1826 36.513 69.2259 36.2972 69.31 36.096C69.3941 35.8947 69.5173 35.7119 69.6726 35.5581L77.3906 27.8881C78.9746 27.8995 80.4899 28.5328 81.6059 29.65C82.722 30.7672 83.3483 32.2776 83.3482 33.8518V45.8289C83.3487 46.3512 83.2454 46.8684 83.0446 47.351C82.8439 47.8337 82.5494 48.2723 82.178 48.6418L81.0811 49.7318L81.2845 49.9969L100.011 31.3967V8.96328H99.6775V17.1965C99.6762 17.4095 99.6061 17.6165 99.4775 17.7869C99.3488 17.9573 99.1685 18.0821 98.9631 18.143C98.7576 18.2039 98.538 18.1975 98.3365 18.125C98.135 18.0524 97.9624 17.9174 97.8439 17.7399C96.6334 15.888 94.9764 14.3662 93.0236 13.3125C91.0708 12.2588 88.8841 11.7068 86.6621 11.7066H70.9929L57.2907 25.3734L51.9565 30.6745C51.7232 30.9056 51.4262 31.0629 51.103 31.1264C50.7798 31.1899 50.445 31.1568 50.1407 31.0313C49.8364 30.9058 49.5764 30.6936 49.3934 30.4213C49.2105 30.149 49.1128 29.829 49.1127 29.5016V8.95996H48.7793V18.4621C48.7797 18.6886 48.7022 18.9083 48.5597 19.0851C48.4173 19.2618 48.2183 19.3848 47.9959 19.4339C47.7735 19.483 47.5409 19.4551 47.3365 19.3549C47.1322 19.2547 46.9685 19.0882 46.8724 18.8829C44.2053 13.1942 40.1213 11.7 40.1213 11.7L21.0015 30.4823L21.235 30.7175L22.0784 29.8893C25.5922 26.4469 31.5733 28.448 32.2367 33.3084C32.3793 34.3771 32.4483 35.4542 32.4434 36.5321V98.0113L11.52 118.805L11.7567 119.04L12.5768 118.225C13.699 117.107 15.2217 116.476 16.8109 116.472H77.3039L110.269 83.5129C111.394 82.395 112.026 80.8792 112.026 79.2985V55.6856C112.027 54.1049 112.659 52.5891 113.783 51.4712L115.2 50.0631L115.007 49.8312ZM49.1494 51.3056V33.9412L55.2437 27.8848H72.8899C73.22 27.8842 73.5428 27.981 73.8175 28.163C74.0922 28.345 74.3063 28.604 74.4327 28.907C74.5591 29.2101 74.5921 29.5436 74.5276 29.8653C74.463 30.1871 74.3038 30.4825 74.0701 30.7142L51.9899 52.6573C51.7567 52.8896 51.4594 53.0479 51.1357 53.112C50.8119 53.1762 50.4763 53.1434 50.1713 53.0178C49.8663 52.8921 49.6058 52.6793 49.4227 52.4064C49.2395 52.1334 49.1422 51.8125 49.1427 51.4845L49.1494 51.3056ZM49.1494 55.944L52.5232 52.5878V78.0793L49.1427 81.4388L49.1494 55.944ZM49.8162 100.046H34.9171C34.587 100.046 34.2641 99.9493 33.9894 99.7673C33.7148 99.5853 33.5007 99.3264 33.3743 99.0233C33.2479 98.7203 33.2148 98.3867 33.2794 98.065C33.3439 97.7432 33.5032 97.4478 33.737 97.2161L49.6761 81.3792C49.909 81.1471 50.2061 80.9889 50.5295 80.9247C50.853 80.8604 51.1883 80.8929 51.4931 81.0181C51.798 81.1433 52.0585 81.3556 52.2419 81.6281C52.4252 81.9005 52.5232 82.2209 52.5232 82.5487V97.3354L49.8162 100.046ZM95.3967 97.4447C95.3965 97.7083 95.291 97.9609 95.1034 98.1471L93.4898 99.754C93.3025 99.9405 93.0482 100.045 92.783 100.046H68.9526C68.6224 100.046 68.2996 99.9493 68.0249 99.7673C67.7502 99.5853 67.5361 99.3264 67.4097 99.0233C67.2832 98.7203 67.2503 98.3867 67.3148 98.065C67.3794 97.7432 67.5386 97.4478 67.7724 97.2161L92.553 72.5927C92.7863 72.3615 93.0833 72.2043 93.4065 72.1408C93.7297 72.0773 94.0645 72.1103 94.3687 72.2358C94.673 72.3613 94.9331 72.5736 95.1161 72.8458C95.299 73.1181 95.3967 73.4381 95.3967 73.7655V97.4447Z" fill="#0E0E0E"/>
</svg>
