<svg width="67" height="67" viewBox="0 0 67 67" fill="none" xmlns="http://www.w3.org/2000/svg">
<path d="M47.489 35.962H39.449V31.834C39.449 28.537 36.766 25.855 33.469 25.855C30.172 25.855 27.49 28.538 27.49 31.834V35.962H19.45V31.834C19.45 24.104 25.739 17.814 33.47 17.814C41.201 17.814 47.49 24.103 47.49 31.834V35.962H47.489V35.962Z" fill="#F9A11D"/>
<path d="M50.732 35.962H16.207C14.733 35.962 13.527 37.168 13.527 38.642V64.182C13.527 65.656 14.733 66.862 16.207 66.862H50.732C52.206 66.862 53.412 65.656 53.412 64.182V38.642C53.412 37.168 52.206 35.962 50.732 35.962ZM35.219 52.731V56.192C35.219 57.158 34.435 57.941 33.47 57.941C32.505 57.941 31.721 57.157 31.721 56.192V52.732C30.645 52.121 29.918 50.968 29.918 49.642C29.918 47.68 31.509 46.09 33.47 46.09C35.432 46.09 37.022 47.681 37.022 49.642C37.022 50.967 36.295 52.12 35.219 52.731V52.731Z" fill="#2C3C69"/>
<path d="M12.707 32.154H4.37599C3.02499 32.154 1.92999 31.059 1.92999 29.708C1.92999 28.357 3.02499 27.262 4.37599 27.262H12.707C14.058 27.262 15.153 28.357 15.153 29.708C15.153 31.059 14.057 32.154 12.707 32.154Z" fill="#F9A11D"/>
<path d="M18.575 19.049C18.029 19.049 17.478 18.867 17.023 18.492L10.433 13.073C9.39001 12.215 9.23901 10.674 10.098 9.62997C10.956 8.58697 12.497 8.43597 13.541 9.29397L20.131 14.713C21.174 15.571 21.325 17.112 20.466 18.156C19.983 18.745 19.282 19.049 18.575 19.049V19.049Z" fill="#F9A11D"/>
<path d="M33.469 13.289C32.118 13.289 31.023 12.194 31.023 10.843V2.446C31.023 1.095 32.118 0 33.469 0C34.82 0 35.915 1.095 35.915 2.446V10.843C35.915 12.194 34.82 13.289 33.469 13.289Z" fill="#F9A11D"/>
<path d="M48.363 19.049C47.656 19.049 46.956 18.745 46.472 18.156C45.614 17.113 45.764 15.571 46.807 14.713L53.397 9.29397C54.441 8.43597 55.982 8.58697 56.84 9.62997C57.698 10.673 57.548 12.215 56.505 13.073L49.915 18.492C49.46 18.867 48.91 19.049 48.363 19.049V19.049Z" fill="#F9A11D"/>
<path d="M62.563 32.154H54.153C52.802 32.154 51.707 31.059 51.707 29.708C51.707 28.357 52.802 27.262 54.153 27.262H62.563C63.914 27.262 65.009 28.357 65.009 29.708C65.009 31.059 63.914 32.154 62.563 32.154V32.154Z" fill="#F9A11D"/>
</svg>
