<svg width="32" height="32" viewBox="0 0 32 32" fill="none" xmlns="http://www.w3.org/2000/svg">
<rect width="32" height="32" fill="#3E484A"/>
<path d="M31.6988 30.3151L25.6748 24.2901C25.4846 24.1036 25.2287 23.9991 24.9623 23.9991C24.6959 23.9991 24.4401 24.1036 24.2498 24.2901L18.2258 30.3151C18.0821 30.4521 17.9836 30.6296 17.9432 30.8239C17.9029 31.0183 17.9227 31.2203 18 31.4031C18.0773 31.586 18.2084 31.7409 18.376 31.8474C18.5435 31.9539 18.7395 32.0068 18.9378 31.9991H30.9868C31.184 32.0041 31.3781 31.9495 31.5439 31.8426C31.7097 31.7356 31.8394 31.5813 31.9162 31.3996C31.9931 31.2179 32.0134 31.0173 31.9746 30.8239C31.9358 30.6304 31.8397 30.4532 31.6988 30.3151Z" fill="#C3C6CC"/>
<path d="M31.8985 8.67508L30.0115 3.07308C29.9264 2.81974 29.7906 2.58635 29.6125 2.38708L0.228516 31.7701C0.400957 31.9244 0.62621 32.0064 0.857516 31.9991H9.20352C9.43677 32.0002 9.66796 31.9553 9.88384 31.8669C10.0997 31.7786 10.296 31.6485 10.4615 31.4841L31.4985 10.4471C31.7272 10.2206 31.8863 9.93342 31.9572 9.61947C32.028 9.30552 32.0077 8.97785 31.8985 8.67508V8.67508Z" fill="#E1E3E6"/>
<path d="M28.9265 1.98608L23.3245 0.100081C23.0217 -0.00908381 22.694 -0.0294323 22.3801 0.0414366C22.0661 0.112306 21.779 0.271438 21.5525 0.50008L0.514454 21.537C0.183512 21.8719 -0.00130264 22.3242 0.000454177 22.795V31.141C-0.00689208 31.3724 0.0751143 31.5976 0.229453 31.7701L29.6135 2.38711C29.4139 2.20839 29.1802 2.07196 28.9265 1.98608V1.98608Z" fill="#C3C6CC"/>
</svg>
