<svg width="32" height="32" viewBox="0 0 32 32" fill="none" xmlns="http://www.w3.org/2000/svg">
<g clip-path="url(#clip0_3548_18)">
<path d="M28.8 0H3.2C1.43269 0 0 1.43269 0 3.2V28.8C0 30.5673 1.43269 32 3.2 32H28.8C30.5673 32 32 30.5673 32 28.8V3.2C32 1.43269 30.5673 0 28.8 0Z" fill="#F6C915"/>
<path d="M13.092 22.5059C12.0573 22.5059 11.245 22.3709 10.655 22.1017C10.065 21.8324 9.64269 21.4642 9.38669 20.9972C9.13069 20.5302 9.00837 19.9999 9.01569 19.3912C9.02301 18.7825 9.10637 18.1419 9.26705 17.4569L12.0427 5.85122L15.4307 5.3269L12.3927 17.9162C12.3344 18.1782 12.3017 18.4189 12.2944 18.6372C12.2871 18.8555 12.3271 19.0489 12.4144 19.2162C12.5017 19.3835 12.6511 19.5189 12.8624 19.6205C13.0737 19.7222 13.3687 19.7885 13.7477 19.8175L13.092 22.5059ZM16.2133 11.2083C16.7973 11.0336 17.464 10.8769 18.2143 10.7383C18.9647 10.5996 19.7773 10.5309 20.6517 10.5309C21.526 10.5309 22.1711 10.6546 22.7607 10.9023C23.3503 11.1499 23.8353 11.4889 24.2143 11.9186C24.5934 12.3483 24.8733 12.8513 25.0553 13.4266C25.2373 14.002 25.3286 14.6179 25.3286 15.2739C25.3286 16.3373 25.1537 17.3099 24.8 18.1916C24.4464 19.0733 23.9696 19.8346 23.3505 20.4756C22.7315 21.1166 21.9882 21.616 21.12 21.9746C20.2519 22.3332 19.3106 22.5084 18.2913 22.5084C17.7957 22.5084 17.3003 22.4642 16.805 22.3765L15.8213 26.333H12.5867L16.2133 11.2083ZM17.3947 19.7546C17.6424 19.8129 17.9484 19.8399 18.3127 19.8399C18.8807 19.8399 19.398 19.7366 19.8644 19.5249C20.3307 19.3132 20.7277 19.0189 21.0557 18.6399C21.3837 18.2609 21.638 17.8062 21.8204 17.2739C22.0028 16.7416 22.0935 16.1559 22.0935 15.5146C22.0935 14.8733 21.9548 14.3563 21.6783 13.9189C21.4018 13.4815 20.9207 13.2633 20.236 13.2633C19.7693 13.2633 19.3323 13.3069 18.9243 13.3946L17.3947 19.7546Z" fill="white"/>
</g>
<defs>
<clipPath id="clip0_3548_18">
<rect width="32" height="32" fill="white"/>
</clipPath>
</defs>
</svg>
