<svg width="32" height="32" viewBox="0 0 32 32" fill="none" xmlns="http://www.w3.org/2000/svg">
<path d="M14.9687 0.342857C15.5436 -0.114286 16.3484 -0.114286 17.0382 0.342857C18.6478 1.37143 20.1425 2.4 21.5221 3.54286C21.5221 3.54286 21.867 3.77143 21.982 3.31429C21.982 3.31429 21.867 1.94286 22.097 1.48571C22.212 1.14286 22.5569 0.914286 22.9018 0.914286C22.9018 0.914286 24.6264 1.02857 25.7761 1.14286C26.236 1.25714 26.6959 1.6 26.6959 2.17143C26.6959 2.17143 27.3857 6.97143 27.6157 8.68571C27.6157 8.68571 27.7306 9.6 28.9953 11.0857C28.9953 11.0857 31.6397 14.7429 31.8696 15.4286C31.8696 15.4286 32.4445 16.6857 31.1798 16.8C31.1798 16.8 28.7654 17.0286 28.5354 17.0286C28.1905 17.0286 27.9606 17.3714 27.9606 17.7143C27.9606 17.7143 27.8456 26.0571 27.2707 30.1714C27.2707 30.1714 27.1558 31.7714 26.236 31.7714C26.236 31.7714 23.8216 31.6571 23.2467 31.6571C23.2467 31.6571 23.0168 31.6571 23.0168 31.3143C23.0168 31.3143 24.2815 18.1714 23.3617 11.6571C23.3617 11.6571 23.3617 10.8571 22.6719 10.6286C22.6719 10.6286 22.097 10.4 21.5221 11.2C21.5221 11.2 17.6131 16.1143 17.6131 22.9714C17.6131 22.9714 17.4981 25.0286 17.843 25.6C17.843 25.6 18.073 25.9429 19.1077 26.0571L20.3724 26.2857C20.3724 26.2857 20.6023 26.2857 20.6023 26.6286C20.6023 26.6286 20.3724 30.5143 20.2574 31.2C20.2574 31.3143 20.2574 31.5429 20.1425 31.6571C20.1425 31.6571 20.1425 31.7714 19.6826 31.7714C19.6826 31.7714 14.0489 31.7714 13.3591 31.7714C13.3591 31.7714 13.1291 31.7714 13.0142 31.6571C12.8992 31.5429 12.6693 26.7429 12.6693 26.0571C12.6693 25.9429 12.7842 25.8286 12.8992 25.7143C13.819 25.1429 14.3938 24.2286 14.5088 23.2C14.5088 23.2 14.6238 22.8571 14.5088 21.0286C14.5088 21.0286 14.7388 13.7143 14.7388 12.4571C14.7388 12.4571 14.7388 12.1143 14.2789 12C14.0489 12 13.819 12.1143 13.704 12.3429C13.704 12.3429 13.3591 17.1429 13.4741 19.0857C13.4741 19.0857 13.589 20.3429 12.6693 20.3429C12.6693 20.3429 11.8644 20.4571 11.7495 19.4286C11.7495 19.4286 11.8644 14.7429 11.9794 12.3429C11.9794 12.1143 11.7495 11.8857 11.4046 11.8857C11.1746 11.8857 10.8297 12 10.8297 12.3429C10.8297 12.3429 10.4848 16.9143 10.5997 19.2C10.5997 19.2 10.7147 20.3429 9.79494 20.3429C9.79494 20.3429 8.99013 20.4571 8.99013 19.4286C8.99013 19.4286 9.22008 12.9143 9.22008 12.4571C9.22008 12.1143 8.99013 11.8857 8.76019 11.8857C8.53024 11.8857 8.18533 12 8.18533 12.3429C8.18533 12.3429 7.84041 20.1143 7.95538 22.4C7.95538 22.4 7.95538 24.6857 9.67997 25.7143C9.67997 25.7143 9.90991 25.8286 9.90991 26.0571C9.90991 26.0571 10.1399 30.1714 10.2548 31.4286C10.2548 31.4286 10.3698 31.7714 10.0249 31.7714L5.7709 32C5.7709 32 5.08107 32 4.85113 31.2C4.73615 30.4 3.93135 23.5429 4.04632 18.0571C4.04632 17.7143 3.81637 17.3714 3.47146 17.3714C3.47146 17.3714 1.28698 17.1429 0.712118 17.0286C0.252228 16.9143 -0.0926891 16.3429 0.0222834 15.8857C0.0222834 15.7714 0.0222834 15.7714 0.137256 15.6571C0.137256 15.6571 4.9661 6.51429 14.9687 0.342857Z" fill="#FFA818"/>
</svg>
