<svg width="32" height="32" viewBox="0 0 32 32" fill="none" xmlns="http://www.w3.org/2000/svg">
<rect width="32" height="32" fill="#292760"/>
<path opacity="0.501" d="M12.1424 10.9336V15.7552C12.1424 16.7224 12.6784 17.6048 13.5248 18.0296L17.4984 20.0272V23.9416C17.4984 24.0832 17.4184 24.2128 17.2936 24.272L2.9048 31.1656C2.86236 31.1857 2.81632 31.1971 2.76939 31.1991C2.72247 31.2012 2.67562 31.1937 2.63161 31.1773C2.5876 31.1609 2.54733 31.1359 2.51318 31.1036C2.47903 31.0714 2.4517 31.0326 2.4328 30.9896C2.41097 30.9411 2.39979 30.8884 2.4 30.8352V15.7736C2.4 15.6312 2.48 15.5016 2.6064 15.4424L12.1424 10.9336V10.9336Z" fill="white"/>
<path d="M29.0024 8.65439V23.6C29.0024 23.8 28.8432 23.9616 28.6472 23.9616C28.5922 23.9617 28.5379 23.9488 28.4888 23.924L14.1008 16.6136C14.0413 16.583 13.9914 16.5366 13.9567 16.4794C13.9219 16.4222 13.9037 16.3565 13.904 16.2896V1.16159C13.904 0.961588 14.0624 0.799988 14.2592 0.799988C14.3152 0.799988 14.3704 0.813588 14.42 0.839988L28.8088 8.33199C28.8674 8.36294 28.9165 8.40935 28.9506 8.46618C28.9847 8.52301 29.0026 8.5881 29.0024 8.65439Z" fill="white"/>
</svg>
