<svg width="32" height="32" viewBox="0 0 32 32" fill="none" xmlns="http://www.w3.org/2000/svg">
<path fill-rule="evenodd" clip-rule="evenodd" d="M6.54927 0H25.4506C29.0527 0 31.9999 2.94719 31.9999 6.54927V25.4506C31.9999 29.0527 29.0527 31.9999 25.4506 31.9999H6.54927C2.94719 32 0 29.0528 0 25.4506V6.54927C0 2.94719 2.94719 0 6.54927 0Z" fill="#3ACE01"/>
<path fill-rule="evenodd" clip-rule="evenodd" d="M15.9685 5.30078C22.4524 5.30078 27.7086 9.50969 27.7086 14.7016C27.7086 16.5152 27.0668 18.2084 25.9559 19.6445C25.9009 19.7262 25.8291 19.8165 25.7385 19.9163L25.7317 19.9237C25.3522 20.3778 24.9248 20.804 24.4549 21.1975C21.2084 24.1983 15.8646 27.771 15.1593 27.2198C14.5462 26.7406 16.1691 24.3972 14.2967 24.0072C14.1661 23.9922 14.0358 23.9761 13.9066 23.9578L13.9042 23.9576V23.9575C8.40476 23.1762 4.22852 19.3295 4.22852 14.7016C4.22835 9.50969 9.48463 5.30078 15.9685 5.30078V5.30078Z" fill="white"/>
<path fill-rule="evenodd" clip-rule="evenodd" d="M9.1572 17.6994H11.525C11.8618 17.6994 12.1373 17.4239 12.1373 17.0871V17.036C12.1373 16.6992 11.8618 16.4237 11.525 16.4237H9.82055V12.5459C9.82055 12.2091 9.54508 11.9336 9.20828 11.9336H9.1572C8.8204 11.9336 8.54492 12.2091 8.54492 12.5459V17.087C8.54492 17.4239 8.8204 17.6994 9.1572 17.6994V17.6994ZM23.8292 14.853V14.8019C23.8292 14.4651 23.5537 14.1896 23.2169 14.1896H21.5125V13.2201H23.2169C23.5537 13.2201 23.8292 12.9447 23.8292 12.6079V12.5568C23.8292 12.22 23.5537 11.9445 23.2169 11.9445H20.8491C20.5123 11.9445 20.2368 12.22 20.2368 12.5568V17.0979C20.2368 17.4347 20.5123 17.7103 20.8491 17.7103H23.2169C23.5537 17.7103 23.8292 17.4347 23.8292 17.0979V17.0468C23.8292 16.71 23.5537 16.4346 23.2169 16.4346H21.5125V15.4651H23.2169C23.5537 15.4652 23.8292 15.1897 23.8292 14.853V14.853ZM19.2757 17.5169L19.2759 17.5166C19.3892 17.4024 19.4528 17.248 19.4529 17.0872V12.546C19.4529 12.2092 19.1774 11.9338 18.8405 11.9338H18.7895C18.4527 11.9338 18.1772 12.2092 18.1772 12.546V15.2117L15.9641 12.2434C15.8584 12.0588 15.6593 11.9338 15.4324 11.9338H15.3814C15.0446 11.9338 14.769 12.2092 14.769 12.546V17.0872C14.769 17.4239 15.0445 17.6995 15.3814 17.6995H15.4324C15.7692 17.6995 16.0447 17.4239 16.0447 17.0872V14.3716L18.2737 17.4161C18.2875 17.4374 18.3025 17.4579 18.3186 17.4774L18.3187 17.4776C18.38 17.5611 18.4638 17.6184 18.5571 17.6533C18.6288 17.683 18.7073 17.6994 18.7894 17.6994H18.8404C18.9402 17.6995 19.0385 17.6749 19.1265 17.6279C19.1878 17.5988 19.2393 17.5612 19.2757 17.5169V17.5169ZM13.2437 17.6994H13.2948C13.6316 17.6994 13.9071 17.4239 13.9071 17.0871V12.5459C13.9071 12.2091 13.6316 11.9337 13.2948 11.9337H13.2437C12.9069 11.9337 12.6314 12.2091 12.6314 12.5459V17.0871C12.6314 17.4239 12.9069 17.6994 13.2437 17.6994Z" fill="#3ACE01"/>
</svg>
