<svg xmlns="http://www.w3.org/2000/svg" width="2490" height="2500" viewBox="0 0 256 256">
  <g fill="none">
    <path fill="#069" d="M0 18.3C0 8.3 8.5 0 19 0h218c10.5 0 19 8.2 19 18.3v219.4c0 10-8.5 18.3-19 18.3H19c-10.5 0-19-8.2-19-18.3V18.3z"/>
    <path fill="#fff" d="M77.8 214.2V99H39.5v115.2h38.3zm-19.1-131c13.3 0 21.6-8.8 21.6-19.9C80.1 52 72 43.4 59 43.4c-13.1 0-21.7 8.6-21.7 20 0 11 8.3 19.9 21.2 19.9h.2zm40.3 131h38.3V150c0-3.5.3-7 1.3-9.4 2.7-6.8 9-14 19.6-14 13.9 0 19.4 10.6 19.4 26v61.7H216v-66c0-35.4-18.9-52-44-52a38.2 38.2 0 00-34.8 19.5h.2V99H99c.5 10.8 0 115.2 0 115.2z"/>
  </g>
</svg>
