<svg width="32" height="32" viewBox="0 0 32 32" fill="none" xmlns="http://www.w3.org/2000/svg">
<path d="M9.01502 21.069C8.88806 19.2894 9.45938 16.8735 10.3481 14.3626C8.72935 15.1572 7.26931 16.0465 5.9997 17.0007C4.44444 21.4192 5.9997 26.5365 9.80852 29.3019C10.2846 29.6513 10.7925 29.9691 11.332 30.2237C12.8556 30.9866 14.5061 31.336 16.1248 31.336C16.0931 31.3044 9.45938 27.1405 9.01502 21.069V21.069ZM12.316 9.40423C14.2839 4.98578 16.3787 1.2986 16.3787 1.2986L16.0931 0.853516C14.3156 3.58728 12.5064 6.32104 10.729 9.02239L12.316 9.40423ZM9.74504 10.5798C8.95154 11.8194 8.15803 13.0274 7.39627 14.267L11.1099 12.2961C11.3003 11.8518 11.459 11.3743 11.6494 10.93C11.0146 10.7711 10.3481 10.6755 9.74504 10.5798V10.5798Z" fill="#E6E7E8"/>
<path d="M10.1981 10.837C9.85908 10.7709 9.51762 10.7179 9.17449 10.6781C9.111 10.6781 9.07926 10.6781 9.01578 10.6465C8.11992 12.0442 7.22564 13.4111 6.36231 14.8088C6.33057 14.8404 6.33057 14.872 6.29883 14.9037L8.21593 13.887C8.88724 12.902 9.5268 11.8537 10.1973 10.837H10.1981Z" fill="url(#paint0_linear_1882_263)"/>
<path d="M11.1877 9.31045L13.3936 5.97428C14.2554 4.67143 15.1497 3.33538 16.0138 1.97008C16.8771 3.30455 17.7714 4.63902 18.6347 5.94186L20.9359 9.46935L22.0865 9.21558C21.2231 7.91274 20.3923 6.60989 19.5615 5.33867C18.5705 3.81288 17.5476 2.25547 16.5248 0.698857L16.0138 0L15.5662 0.698857C14.5402 2.26083 13.5068 3.81799 12.466 5.37029C11.6352 6.60989 10.8044 7.88032 9.97363 9.15155H10.6124L11.1877 9.31045Z" fill="url(#paint1_linear_1882_263)"/>
<path d="M23.8762 14.0131L25.9536 15.2843C25.8584 15.1262 25.7941 14.9982 25.6981 14.8393C24.803 13.4415 23.9088 12.043 22.9819 10.6445C22.8217 10.6762 22.6296 10.6762 22.4701 10.7078L21.7988 10.8034C22.4701 11.8525 23.1732 12.9008 23.8762 14.0131V14.0131Z" fill="url(#paint2_linear_1882_263)"/>
<path d="M27.0093 17.9224C26.5292 17.5413 26.0174 17.1919 25.4747 16.8108C26.6252 19.5114 26.5618 22.6578 25.2192 25.3268C24.4689 26.8133 23.3597 28.0909 21.9912 29.0448C20.2653 30.252 18.1236 30.9516 16.0145 30.9516C14.4304 30.9559 12.8665 30.597 11.4439 29.9025C10.9429 29.6545 10.4622 29.3677 10.0061 29.0448C7.93643 27.5282 6.51123 25.295 6.01081 22.7843C5.56327 20.6553 5.81878 18.5263 6.68211 16.5879C6.13856 16.9689 5.59501 17.3508 5.11574 17.7635C4.66306 19.4658 4.6085 21.249 4.95624 22.9756C5.53153 25.7719 7.09791 28.2503 9.36654 29.9025C9.87835 30.252 10.4219 30.6022 10.9647 30.856C12.5045 31.615 14.2005 32.0066 15.9185 31.9999H16.0145C18.3474 31.9683 20.712 31.2378 22.6299 29.8709C24.1328 28.8226 25.3786 27.3925 26.1777 25.7718C27.4243 23.3251 27.6798 20.4964 27.0093 17.9224V17.9224Z" fill="url(#paint3_linear_1882_263)"/>
<path d="M10.6133 23.8027C10.6133 23.8027 12.2431 26.7262 16.0147 26.7262C19.5942 26.7262 21.416 23.8027 21.416 23.8027C15.4711 27.6472 10.6133 23.8027 10.6133 23.8027V23.8027Z" fill="url(#paint4_linear_1882_263)"/>
<path d="M1.16849 21.5154C0.916157 22.6996 1.26371 23.3234 1.45336 23.6657C1.98977 24.5701 2.96895 25.1314 4.35917 25.318H4.39091C4.39091 25.318 4.64324 25.3812 5.02254 25.3812C5.18045 25.7552 5.3693 26.0983 5.55895 26.4406H5.27487C4.70672 26.4406 4.26395 26.3789 4.20126 26.3473C2.46349 26.0983 1.20023 25.3496 0.505122 24.1653C0.157568 23.5724 -0.220933 22.419 0.157568 20.9849C0.189308 21.0482 0.632083 21.3588 1.16849 21.5146V21.5154ZM14.3407 11.5385C13.7578 11.3573 13.1674 11.2012 12.5711 11.0705C12.1609 11.227 11.7499 11.3827 11.3396 11.5693C7.92756 12.9726 5.05349 14.7806 3.03164 16.7451C2.74265 16.5827 2.41676 16.4967 2.08499 16.4953C1.81638 16.4934 1.55005 16.5444 1.30129 16.6454C1.05253 16.7464 0.826246 16.8953 0.635427 17.0837C0.444607 17.272 0.293016 17.4961 0.189359 17.743C0.0857017 17.9898 0.0320214 18.2547 0.0314009 18.5223C0.0321257 18.7899 0.085883 19.0546 0.189587 19.3014C0.29329 19.5482 0.444898 19.7722 0.635707 19.9604C0.826516 20.1487 1.05277 20.2976 1.30148 20.3985C1.55018 20.4994 1.81645 20.5504 2.08499 20.5485C2.35346 20.5503 2.61964 20.4992 2.86826 20.3983C3.11687 20.2973 3.34303 20.1484 3.53376 19.9602C3.72448 19.7719 3.87602 19.548 3.97967 19.3012C4.08333 19.0545 4.13706 18.7898 4.13778 18.5223C4.13778 18.1476 4.01082 17.7737 3.82197 17.4622C5.74859 15.6225 8.55918 13.8453 11.7816 12.5053C12.6029 12.1931 13.4876 11.85 14.3399 11.5385H14.3407ZM2.05245 19.6441C1.45257 19.6441 0.947104 19.1461 0.947104 18.5531C0.947104 17.9602 1.45257 17.4622 2.05245 17.4622C2.65234 17.4622 3.1578 17.9602 3.1578 18.5531C3.1578 19.1769 2.65234 19.6441 2.05245 19.6441ZM17.8138 10.4783C19.3611 10.0728 20.8141 9.7613 22.1408 9.57394C25.3307 9.13755 26.8161 9.60556 27.1319 10.1985C27.416 10.7282 27.0684 11.8191 26.1527 13.1283L27.0367 13.7212C28.2373 12.0057 28.584 10.6341 28.0794 9.69885C26.9423 7.57856 21.6361 8.13986 15.9816 9.85459" fill="#404041"/>
<path d="M16.0138 9.91753C10.3918 8.2028 5.08487 7.6415 3.91604 9.76179C3.41058 10.697 3.75814 12.0687 4.95871 13.7834L5.84346 13.1913C4.92697 11.8821 4.54767 10.8227 4.86428 10.2614C5.18009 9.66851 6.66395 9.20208 9.85462 9.60684C12.8549 9.98078 16.551 11.0409 20.2781 12.5999C25.616 14.8135 29.6906 18.118 30.7015 21.0803C31.0491 22.078 30.9856 22.9816 30.5746 23.7302C30.0382 24.6338 29.059 25.1951 27.6378 25.3825C27.6378 25.3825 27.5426 25.3825 27.3847 25.4141C27.3212 25.6007 27.2268 25.7564 27.1324 25.9122C27.0372 26.0995 26.9419 26.2861 26.8166 26.5051C27.3847 26.5051 27.764 26.4419 27.7957 26.4419C28.0163 26.411 28.206 26.3802 28.4274 26.3177C28.617 26.2861 28.8376 26.2245 28.9955 26.162L29.2796 26.0679C30.2588 25.694 31.0174 25.0702 31.4911 24.2599C32.091 23.2622 32.1545 22.0463 31.7117 20.7372C30.6063 17.4634 26.3738 13.9715 20.6883 11.6331C19.7377 11.2235 18.768 10.8594 17.7825 10.5421L16.0138 9.91832V9.91753ZM8.90718 6.33233C8.68579 6.33233 8.46441 6.23905 8.3065 6.08331C8.14735 5.92645 8.05669 5.71341 8.05416 5.49039C8.05416 5.27219 8.14938 5.054 8.3065 4.89746C8.4652 4.74251 8.68579 4.64844 8.90718 4.64844C9.12777 4.64844 9.34916 4.74251 9.50707 4.89826C9.66498 5.054 9.7594 5.27219 9.7594 5.49118C9.7594 5.70858 9.66498 5.92678 9.50707 6.08331C9.34706 6.24064 9.13198 6.32992 8.90718 6.33233Z" fill="#4B4A4B"/>
<path d="M30.354 14.9671C30.1326 14.9671 29.912 14.8738 29.7541 14.7173C29.5949 14.5607 29.5039 14.348 29.501 14.1252C29.501 13.907 29.5962 13.6888 29.7541 13.5322C29.912 13.3773 30.1326 13.2832 30.354 13.2832C30.5746 13.2832 30.796 13.3773 30.9539 13.533C31.1126 13.6888 31.207 13.907 31.207 14.1259C31.207 14.3433 31.1118 14.5615 30.9539 14.7173C30.796 14.9046 30.6063 14.9671 30.354 14.9671Z" fill="#404041"/>
<defs>
<linearGradient id="paint0_linear_1882_263" x1="12.7691" y1="-0.822901" x2="3.34606" y2="23.095" gradientUnits="userSpaceOnUse">
<stop stop-color="#2AC4F3"/>
<stop offset="0.5" stop-color="#00B2E2"/>
<stop offset="1" stop-color="#0095DA"/>
</linearGradient>
<linearGradient id="paint1_linear_1882_263" x1="19.1461" y1="2.63153" x2="12.7057" y2="18.9749" gradientUnits="userSpaceOnUse">
<stop stop-color="#2AC4F3"/>
<stop offset="0.5" stop-color="#00B2E2"/>
<stop offset="1" stop-color="#0095DA"/>
</linearGradient>
<linearGradient id="paint2_linear_1882_263" x1="26.5704" y1="4.50254" x2="17.1895" y2="28.3055" gradientUnits="userSpaceOnUse">
<stop stop-color="#2AC4F3"/>
<stop offset="0.5" stop-color="#00B2E2"/>
<stop offset="1" stop-color="#0095DA"/>
</linearGradient>
<linearGradient id="paint3_linear_1882_263" x1="23.1605" y1="14.303" x2="17.9614" y2="27.4962" gradientUnits="userSpaceOnUse">
<stop stop-color="#2AC4F3"/>
<stop offset="0.5" stop-color="#00B2E2"/>
<stop offset="1" stop-color="#0095DA"/>
</linearGradient>
<linearGradient id="paint4_linear_1882_263" x1="24.1649" y1="23.6431" x2="22.2446" y2="28.5162" gradientUnits="userSpaceOnUse">
<stop stop-color="#2AC4F3"/>
<stop offset="0.5" stop-color="#00B2E2"/>
<stop offset="1" stop-color="#0095DA"/>
</linearGradient>
</defs>
</svg>
