<?xml version="1.0" encoding="UTF-8" standalone="no"?>
<!-- Generator: Adobe Illustrator 16.0.3, SVG Export Plug-In . SVG Version: 6.00 Build 0)  -->

<svg
   xmlns:dc="http://purl.org/dc/elements/1.1/"
   xmlns:cc="http://creativecommons.org/ns#"
   xmlns:rdf="http://www.w3.org/1999/02/22-rdf-syntax-ns#"
   xmlns:svg="http://www.w3.org/2000/svg"
   xmlns="http://www.w3.org/2000/svg"
   xmlns:xlink="http://www.w3.org/1999/xlink"
   xmlns:sodipodi="http://sodipodi.sourceforge.net/DTD/sodipodi-0.dtd"
   xmlns:inkscape="http://www.inkscape.org/namespaces/inkscape"
   version="1.1"
   id="Layer_1"
   x="0px"
   y="0px"
   width="60"
   height="60"
   viewBox="0 0 60 60"
   enable-background="new 0 0 250 60"
   xml:space="preserve"
   sodipodi:docname="LiteSpeed.svg"
   inkscape:version="0.92.2 (5c3e80d, 2017-08-06)"><metadata
     id="metadata55"><rdf:RDF><cc:Work
         rdf:about=""><dc:format>image/svg+xml</dc:format><dc:type
           rdf:resource="http://purl.org/dc/dcmitype/StillImage" /><dc:title></dc:title></cc:Work></rdf:RDF></metadata><defs
     id="defs53"><clipPath
       clipPathUnits="userSpaceOnUse"
       id="clipPath100"><use
         x="0"
         y="0"
         xlink:href="#g96"
         id="use102"
         width="100%"
         height="100%" /></clipPath></defs><sodipodi:namedview
     pagecolor="#ffffff"
     bordercolor="#666666"
     borderopacity="1"
     objecttolerance="10"
     gridtolerance="10"
     guidetolerance="10"
     inkscape:pageopacity="0"
     inkscape:pageshadow="2"
     inkscape:window-width="1920"
     inkscape:window-height="1017"
     id="namedview51"
     showgrid="false"
     inkscape:zoom="6.024"
     inkscape:cx="97.604592"
     inkscape:cy="3.439575"
     inkscape:window-x="-8"
     inkscape:window-y="-8"
     inkscape:window-maximized="1"
     inkscape:current-layer="g48" /><g
     id="g12"><path
       d="m 52.013,22.19 -3.08,3.08 3.095,-3.093 c -0.004,0.002 -0.007,0.005 -0.015,0.013 z"
       id="path10"
       inkscape:connector-curvature="0"
       style="fill:#ffffff" /></g><g
     id="g16"><polygon
       points="48.933,25.271 46.823,27.38 "
       id="polygon14"
       style="fill:#ffffff" /></g><g
     id="g48"
     transform="translate(-28)"><g
       id="g98"
       clip-path="url(#clipPath100)"><g
         inkscape:label="Clip"
         id="g96" /></g><g
       id="g46"
       transform="translate(31.623125)"><g
         id="g24"><path
           d="m 48.215,29.117 -13.277,-13.276 -5.656,7.178 6.099,6.098 c 0.562,0.563 0.562,1.483 0,2.045 l -1.765,1.765 c 0,0 1.189,1.779 1.244,1.888 0.274,0.55 0.34,1.841 -0.438,2.432 l -13.87,10.646 c -0.003,3.572 -0.007,10.92 -0.002,10.923 0.003,10e-4 27.665,-27.653 27.665,-27.653 0.563,-0.564 0.563,-1.482 0,-2.046 z"
           id="path20"
           inkscape:connector-curvature="0"
           style="fill:#5e8cda" /><path
           d="m 17.375,30.789 c -0.562,-0.562 -0.562,-1.479 0,-2.043 L 19.141,26.98 17.934,25.245 C 17.358,24.429 17.538,23.27 18.333,22.663 L 32.204,12.015 32.214,1.1 32.205,1.094 32.198,1.084 4.539,28.746 C 3.976,29.31 3.976,30.227 4.54,30.791 l 13.276,13.276 5.657,-7.181 z"
           id="path22"
           inkscape:connector-curvature="0"
           style="fill:#093071" /></g><g
         id="g28"><polygon
           points="20.192,45.973 26.611,39.554 "
           id="polygon26"
           style="fill:#ffffff" /></g><g
         id="g44"><g
           id="g34"><g
             id="g32"><path
               d="m 39.195,7.751 c 0.185,0 0.371,0.117 0.453,0.282 0.146,0.302 -0.046,0.585 -0.239,0.828 L 27.254,24.289 c -0.175,0.224 -0.188,0.655 -0.028,0.888 0,0 6.561,9.514 6.787,9.84 0.249,0.359 0.266,1.422 -0.305,1.854 L 14.166,51.873 c -0.278,0.214 -0.436,0.283 -0.629,0.285 -0.175,-0.012 -0.356,-0.131 -0.431,-0.281 -0.146,-0.298 0.047,-0.587 0.238,-0.833 L 25.497,35.619 c 0.176,-0.232 0.191,-0.646 0.029,-0.888 l -6.783,-9.757 c -0.431,-0.612 -0.297,-1.481 0.299,-1.937 L 38.589,8.033 c 0.317,-0.247 0.478,-0.282 0.606,-0.282 m 0,-0.25 c -0.235,0 -0.455,0.096 -0.76,0.334 L 18.891,22.839 c -0.702,0.537 -0.859,1.558 -0.352,2.279 l 6.782,9.755 c 0.1,0.149 0.088,0.447 -0.023,0.594 L 13.147,50.89 c -0.16,0.206 -0.493,0.635 -0.266,1.098 0.114,0.23 0.376,0.402 0.639,0.42 0.306,-0.002 0.523,-0.125 0.798,-0.336 L 33.86,37.068 c 0.676,-0.512 0.678,-1.732 0.358,-2.194 -0.226,-0.326 -6.786,-9.84 -6.786,-9.84 -0.1,-0.144 -0.09,-0.453 0.019,-0.591 L 39.605,9.016 C 39.765,8.814 40.099,8.392 39.873,7.924 39.748,7.671 39.477,7.501 39.195,7.501 Z"
               id="path30"
               inkscape:connector-curvature="0"
               style="fill:#5e8cda" /></g></g><g
           id="g38"><path
             d="m 33.517,35.054 c 0.158,0.239 0.299,1.14 -0.096,1.44 L 13.875,51.496 c -0.164,0.128 -0.27,0.188 -0.316,0.185 -0.067,0.004 -0.019,-0.115 0.161,-0.346 L 25.869,35.916 c 0.307,-0.396 0.327,-1.048 0.045,-1.455 l -6.781,-9.759 c 0,0 14.226,10.112 14.384,10.352 z"
             id="path36"
             inkscape:connector-curvature="0"
             style="fill:#f5cd21" /></g><g
           id="g42"><path
             d="m 33.517,35.054 -6.679,-9.607 c -0.283,-0.408 -0.26,-1.061 0.044,-1.449 L 39.032,8.573 c 0.181,-0.23 0.228,-0.346 0.163,-0.346 -0.049,0 -0.156,0.057 -0.317,0.185 L 19.332,23.415 c -0.393,0.301 -0.484,0.883 -0.199,1.288 z"
             id="path40"
             inkscape:connector-curvature="0"
             style="fill:#fddd75" /></g></g></g></g></svg>