<svg width="32" height="32" viewBox="0 0 32 32" fill="none" xmlns="http://www.w3.org/2000/svg">
<path d="M21.312 23.0399C19.904 20.1599 18.624 15.1679 15.552 11.6479C13.184 8.89586 8.448 9.79186 7.808 12.1599C7.808 12.1599 5.376 11.5199 3.328 11.5839C1.28 11.6479 0.191992 11.9039 0.191992 11.9039L0 12.3519C0 12.3519 2.81599 11.7119 5.31199 12.2879C7.35999 12.7359 8.44799 13.5679 9.15199 15.1039C9.85599 16.6399 10.624 21.8239 14.08 24.6399C17.472 27.4559 24.064 27.5839 24.064 27.5839C24.064 27.5839 22.4 25.3439 21.312 23.0399ZM11.776 13.3759C11.456 13.4399 11.072 13.2479 11.008 12.9279C10.944 12.6079 11.136 12.2239 11.456 12.1599C11.776 12.0959 12.16 12.2879 12.224 12.6079C12.352 12.9279 12.16 13.2479 11.776 13.3759Z" fill="#0FA69D"/>
<g opacity="0.6">
<path opacity="0.6" d="M24.576 4.47998L23.936 5.63198C27.648 10.112 29.952 15.424 30.72 20.928L32 21.184C31.232 15.104 28.736 9.27998 24.576 4.47998Z" fill="#0FA69D"/>
<path opacity="0.6" d="M22.528 8.12793L21.824 9.34393C24.256 12.6079 25.856 16.3199 26.624 20.2239L27.968 20.4799C27.2 15.9999 25.344 11.7759 22.528 8.12793Z" fill="#0FA69D"/>
<path opacity="0.6" d="M20.544 11.584L19.84 12.864C21.184 14.912 22.144 17.152 22.72 19.456L24.128 19.712C23.424 16.832 22.208 14.08 20.544 11.584Z" fill="#0FA69D"/>
</g>
</svg>
