<svg width="32" height="32" viewBox="0 0 32 32" fill="none" xmlns="http://www.w3.org/2000/svg">
<path d="M15.9914 5.01344C15.9914 10.3584 18.6109 15.0915 22.6355 17.9971C16.495 20.599 11.6624 25.6874 9.39841 32H7.4624C3.34112 32 0 28.657 0 24.5334V7.46656C0 3.34304 3.34112 0 7.46272 0H16.792C16.2723 1.57696 15.9914 3.2624 15.9914 5.01344Z" fill="#FFCA70"/>
<path d="M22.0998 0H24.5321C28.6566 0 32 3.34304 32 7.46656V16.1066C25.8723 16.1066 20.9049 11.1398 20.9049 5.01312C20.9049 3.20928 21.3356 1.5056 22.0998 0Z" fill="#FFA119"/>
<path d="M32.0001 21.0134V24.5334C32.0001 28.6573 28.6567 32 24.5322 32H14.7053C17.7546 25.5081 24.3524 21.0134 32.0001 21.0134Z" fill="#FFA119"/>
</svg>
