<svg width="32" height="32" viewBox="0 0 32 32" fill="none" xmlns="http://www.w3.org/2000/svg">
<path d="M0 0H32V32H0V0Z" fill="#061631"/>
<path d="M17.8038 22.4825C16.3391 22.4825 15.0208 22.0268 13.849 21.1154L14.7767 19.6262C15.8184 20.4237 16.8437 20.8225 17.8526 20.8225C18.2757 20.8225 18.6134 20.7207 18.8657 20.5173C18.9847 20.4279 19.081 20.3116 19.1468 20.178C19.2125 20.0444 19.2458 19.8972 19.2441 19.7483C19.2441 19.2927 18.6419 18.8858 17.4375 18.5277C17.405 18.5115 17.3684 18.4952 17.3277 18.4789C17.3007 18.4663 17.2719 18.458 17.2423 18.4545C15.3544 17.9499 14.4105 17.0955 14.4105 15.8912C14.4105 15.0449 14.7319 14.3695 15.3748 13.865C16.0176 13.3604 16.868 13.1082 17.9259 13.1082C18.9674 13.1082 19.9602 13.4174 20.9042 14.0358L20.1962 15.4518C19.4829 14.9693 18.6403 14.714 17.7792 14.7194C16.7539 14.7194 16.2413 15.0449 16.2413 15.6959C16.2413 15.9726 16.343 16.1719 16.5464 16.2939C16.7498 16.416 17.0875 16.534 17.5595 16.6479C18.1723 16.8094 18.7755 17.005 19.3664 17.2338C19.6635 17.3647 19.9493 17.5199 20.2209 17.6976C20.8394 18.1208 21.1486 18.7636 21.1486 19.6262C21.1486 20.4725 20.8353 21.1601 20.2087 21.689C19.5821 22.218 18.7805 22.4824 17.8038 22.4825Z" fill="white"/>
<path d="M12.7037 22.464H10.7995V10.2345L12.7037 9.79395V22.464Z" fill="white"/>
<path d="M22.3873 12.5223C22.0355 12.5221 21.6945 12.4003 21.4222 12.1774C21.1498 11.9546 20.9629 11.6445 20.893 11.2997C20.8232 10.9548 20.8747 10.5964 21.0388 10.2851C21.2029 9.9739 21.4696 9.72897 21.7937 9.59183C22.1661 9.43573 22.5853 9.4337 22.9592 9.58616C23.3332 9.73862 23.6315 10.0331 23.7886 10.4052C23.9458 10.7772 23.949 11.1963 23.7976 11.5707C23.6462 11.9451 23.3526 12.2442 22.981 12.4025C22.7932 12.4819 22.5913 12.5227 22.3873 12.5223V12.5223ZM21.9521 10.3481C21.9351 10.3481 21.9189 10.3549 21.9069 10.3669C21.8949 10.3789 21.8881 10.3951 21.8881 10.4121V11.6037C21.8881 11.6207 21.8949 11.637 21.9069 11.649C21.9189 11.661 21.9351 11.6677 21.9521 11.6677C21.9629 11.6677 21.9735 11.6649 21.9829 11.6597L23.066 11.0639C23.0761 11.0584 23.0844 11.0503 23.0903 11.0404C23.0961 11.0305 23.0992 11.0193 23.0992 11.0078C23.0992 10.9964 23.0961 10.9851 23.0903 10.9753C23.0844 10.9654 23.0761 10.9573 23.066 10.9518L21.9828 10.3561C21.9734 10.3509 21.9629 10.3481 21.9521 10.3481V10.3481Z" fill="#196CFF"/>
</svg>
