<svg width="32" height="32" viewBox="0 0 32 32" fill="none" xmlns="http://www.w3.org/2000/svg">
<path fill-rule="evenodd" clip-rule="evenodd" d="M28.1604 21.075C27.6584 21.834 27.277 22.7692 26.2563 22.7692C24.5384 22.7692 24.4456 20.1204 22.7268 20.1204C21.0081 20.1204 21.101 22.7692 19.3832 22.7692C17.6653 22.7692 17.5725 20.1204 15.8537 20.1204C14.135 20.1204 14.2279 22.7692 12.5101 22.7692C10.7922 22.7692 10.6994 20.1204 8.98062 20.1204C7.26189 20.1204 7.35477 22.7692 5.63695 22.7692C5.09708 22.7692 4.7177 22.5076 4.39791 22.1488C3.16871 20.0096 2.46154 17.5028 2.46154 14.8227C2.46154 6.97624 8.52292 0.615387 16 0.615387C23.4771 0.615387 29.5385 6.97624 29.5385 14.8227C29.5385 17.0663 29.0429 19.1884 28.1604 21.075Z" fill="#FB70A9"/>
<mask id="mask0_3348_27" style="mask-type:alpha" maskUnits="userSpaceOnUse" x="6" y="17" width="19" height="15">
<path d="M10.5934 19.6724V25.5571C10.5934 26.6131 9.73734 27.4692 8.68132 27.4692C7.6253 27.4692 6.76923 26.6131 6.76923 25.5571V18.453C7.12611 17.7979 7.53379 17.2308 8.26879 17.2308C9.46528 17.2308 9.88332 18.7338 10.5934 19.6724ZM17.8169 19.979V29.2847C17.8169 30.458 16.8657 31.4092 15.6923 31.4092C14.519 31.4092 13.5678 30.458 13.5678 29.2847V18.7524C13.9678 17.981 14.3802 17.2308 15.2256 17.2308C16.5639 17.2308 16.9283 19.1113 17.8169 19.979ZM24.6154 19.8082V26.5639C24.6154 27.62 23.7593 28.476 22.7033 28.476C21.6473 28.476 20.7912 27.62 20.7912 26.5639V18.2604C21.1241 17.6906 21.5206 17.2308 22.1824 17.2308C23.4384 17.2308 23.8366 18.8873 24.6154 19.8082Z" fill="white"/>
</mask>
<g mask="url(#mask0_3348_27)">
<path d="M10.5934 19.6724V25.5571C10.5934 26.6131 9.73734 27.4692 8.68132 27.4692C7.6253 27.4692 6.76923 26.6131 6.76923 25.5571V18.453C7.12611 17.7979 7.53379 17.2308 8.26879 17.2308C9.46528 17.2308 9.88332 18.7338 10.5934 19.6724ZM17.8169 19.979V29.2847C17.8169 30.458 16.8657 31.4092 15.6923 31.4092C14.519 31.4092 13.5678 30.458 13.5678 29.2847V18.7524C13.9678 17.981 14.3802 17.2308 15.2256 17.2308C16.5639 17.2308 16.9283 19.1113 17.8169 19.979ZM24.6154 19.8082V26.5639C24.6154 27.62 23.7593 28.476 22.7033 28.476C21.6473 28.476 20.7912 27.62 20.7912 26.5639V18.2604C21.1241 17.6906 21.5206 17.2308 22.1824 17.2308C23.4384 17.2308 23.8366 18.8873 24.6154 19.8082Z" fill="#4E56A6"/>
</g>
<mask id="mask1_3348_27" style="mask-type:alpha" maskUnits="userSpaceOnUse" x="6" y="13" width="19" height="11">
<path d="M10.5934 21.4759C10.2542 21.0606 9.85273 20.7524 9.27205 20.7524C7.89321 20.7524 7.64011 22.4902 6.76923 23.2736L6.76923 15.778C6.76923 14.722 7.6253 13.866 8.68132 13.866C9.73734 13.866 10.5934 14.722 10.5934 15.778V21.4759ZM17.8169 21.61C17.4551 21.1287 17.0322 20.7524 16.3906 20.7524C14.8566 20.7524 14.716 22.9034 13.5678 23.4981V20.1831C13.5678 19.0098 14.519 18.0586 15.6923 18.0586C16.8657 18.0586 17.8169 19.0098 17.8169 20.1831V21.61ZM24.6154 21.238C24.321 20.9482 23.972 20.7524 23.5092 20.7524C22.0231 20.7524 21.8447 22.7709 20.7912 23.4378V16.7097C20.7912 15.6537 21.6473 14.7977 22.7033 14.7977C23.7593 14.7977 24.6154 15.6537 24.6154 16.7097V21.238Z" fill="white"/>
</mask>
<g mask="url(#mask1_3348_27)">
<path d="M10.5934 21.4759C10.2542 21.0606 9.85273 20.7524 9.27205 20.7524C7.89321 20.7524 7.64011 22.4902 6.76923 23.2736L6.76923 15.778C6.76923 14.722 7.6253 13.866 8.68132 13.866C9.73734 13.866 10.5934 14.722 10.5934 15.778V21.4759ZM17.8169 21.61C17.4551 21.1287 17.0322 20.7524 16.3906 20.7524C14.8566 20.7524 14.716 22.9034 13.5678 23.4981V20.1831C13.5678 19.0098 14.519 18.0586 15.6923 18.0586C16.8657 18.0586 17.8169 19.0098 17.8169 20.1831V21.61ZM24.6154 21.238C24.321 20.9482 23.972 20.7524 23.5092 20.7524C22.0231 20.7524 21.8447 22.7709 20.7912 23.4378V16.7097C20.7912 15.6537 21.6473 14.7977 22.7033 14.7977C23.7593 14.7977 24.6154 15.6537 24.6154 16.7097V21.238Z" fill="black" fill-opacity="0.298514"/>
</g>
<path fill-rule="evenodd" clip-rule="evenodd" d="M28.1604 21.075C27.6584 21.834 27.277 22.7692 26.2563 22.7692C24.5384 22.7692 24.4456 20.1204 22.7268 20.1204C21.0081 20.1204 21.101 22.7692 19.3832 22.7692C17.6653 22.7692 17.5725 20.1204 15.8537 20.1204C14.135 20.1204 14.2279 22.7692 12.5101 22.7692C10.7922 22.7692 10.6994 20.1204 8.98062 20.1204C7.26189 20.1204 7.35477 22.7692 5.63695 22.7692C5.09708 22.7692 4.7177 22.5076 4.39791 22.1488C3.16871 20.0096 2.46154 17.5028 2.46154 14.8227C2.46154 6.97624 8.52292 0.615387 16 0.615387C23.4771 0.615387 29.5385 6.97624 29.5385 14.8227C29.5385 17.0663 29.0429 19.1884 28.1604 21.075Z" fill="#FB70A9"/>
<path fill-rule="evenodd" clip-rule="evenodd" d="M25.2308 22.4862C28.7786 17.2083 28.8703 11.3539 25.5058 4.92308C27.9997 7.47796 29.5385 10.9841 29.5385 14.8527C29.5385 17.0878 29.0248 19.2019 28.1101 21.0814C27.5897 21.8376 27.1944 22.7692 26.1364 22.7692C25.7743 22.7692 25.4819 22.6601 25.2308 22.4862Z" fill="#E24CA6"/>
<path fill-rule="evenodd" clip-rule="evenodd" d="M15.2742 18.3669C19.9822 18.3669 21.9645 15.6356 21.9645 11.7569C21.9645 7.87809 18.9691 4.30769 15.2742 4.30769C11.5792 4.30769 8.58383 7.87809 8.58383 11.7569C8.58383 15.6356 10.5662 18.3669 15.2742 18.3669Z" fill="white"/>
<path d="M13.4754 11.9763C14.861 11.9763 15.9842 10.7365 15.9842 9.2071C15.9842 7.6777 14.861 6.43787 13.4754 6.43787C12.0897 6.43787 10.9665 7.6777 10.9665 9.2071C10.9665 10.7365 12.0897 11.9763 13.4754 11.9763Z" fill="#030776"/>
<path d="M13.0572 9.84616C13.75 9.84616 14.3116 9.27393 14.3116 8.56805C14.3116 7.86218 13.75 7.28995 13.0572 7.28995C12.3644 7.28995 11.8028 7.86218 11.8028 8.56805C11.8028 9.27393 12.3644 9.84616 13.0572 9.84616Z" fill="white"/>
</svg>
