<svg width="32" height="32" viewBox="0 0 32 32" fill="none" xmlns="http://www.w3.org/2000/svg">
<path d="M1.15645 23.8924C0.826627 24.4302 0.456208 25.0544 0.141606 25.5516C-0.139988 26.0275 0.0111828 26.6412 0.481579 26.9318L7.07808 30.9912C7.30963 31.1342 7.5889 31.1782 7.85318 31.1133C8.11747 31.0484 8.34462 30.8801 8.48365 30.6462C8.74751 30.2047 9.08748 29.6313 9.4579 29.0173C12.0711 24.7042 14.6996 25.232 19.4389 27.4951L25.9796 30.6056C26.2273 30.7235 26.5122 30.7361 26.7694 30.6405C27.0265 30.5449 27.234 30.3492 27.3446 30.0981L30.4855 22.9942C30.7074 22.4869 30.4816 21.8953 29.9781 21.6648C28.5979 21.0153 25.8528 19.7213 23.3816 18.5289C14.4915 14.2158 6.93601 14.5 1.15645 23.8924Z" fill="url(#paint0_linear)"/>
<path d="M30.7342 7.26917C31.064 6.7313 31.4344 6.10717 31.749 5.6099C32.0306 5.13404 31.8794 4.52033 31.409 4.2297L24.8125 0.170317C24.5778 0.0139211 24.2886 -0.0377437 24.0143 0.0277139C23.7399 0.0931714 23.5052 0.269846 23.3664 0.515365C23.1025 0.956823 22.7626 1.53021 22.3921 2.14419C19.7789 6.45729 17.1504 5.92957 12.4111 3.66646L5.89072 0.561033C5.643 0.443126 5.3581 0.430535 5.10094 0.526132C4.84379 0.621728 4.6363 0.817366 4.52575 1.06846L1.3848 8.17239C1.16289 8.67976 1.38869 9.27135 1.89222 9.50183C3.27241 10.1513 6.01757 11.4453 8.48873 12.6377C17.3991 16.9457 24.9546 16.6616 30.7342 7.26917Z" fill="url(#paint1_linear)"/>
<defs>
<linearGradient id="paint0_linear" x1="30.3079" y1="33.0919" x2="22.9263" y2="16.1463" gradientUnits="userSpaceOnUse">
<stop stop-color="#0052CC"/>
<stop offset="1" stop-color="#2684FF"/>
</linearGradient>
<linearGradient id="paint1_linear" x1="5.94999" y1="1.10475" x2="10.685" y2="14.2301" gradientUnits="userSpaceOnUse">
<stop stop-color="#0052CC"/>
<stop offset="1" stop-color="#2684FF"/>
</linearGradient>
</defs>
</svg>
