<svg width="32" height="32" viewBox="0 0 32 32" fill="none" xmlns="http://www.w3.org/2000/svg">
<g clip-path="url(#clip0_3325_792)">
<path d="M0.895996 2.41284H3.712V21.1008H14.848V23.4048H0.895996V2.41284ZM23.6288 7.48164C20.7488 7.44324 17.8688 9.27364 16.9728 12.0512C15.6928 15.2512 16.2816 19.2704 18.7904 21.7152C21.2224 23.7376 24.8832 23.8912 27.6224 22.4576C29.504 21.4592 30.6944 19.4752 30.9504 17.3888C31.2832 15.2128 31.1168 12.832 30.0544 10.8608C28.8 8.76164 26.3424 7.40484 23.9104 7.49444L23.6288 7.45604V7.48164ZM23.8848 9.70884C25.9968 9.70884 27.8912 11.3216 28.2368 13.3952C28.8768 15.7376 28.4928 18.6048 26.5728 20.256C24.7808 21.7152 21.9008 21.5104 20.4288 19.7056C18.6368 17.7856 18.6368 14.8416 19.5584 12.5376C20.1984 10.8736 21.9008 9.68324 23.6928 9.72164H23.9232L23.8848 9.70884Z" fill="black"/>
<path d="M0.895996 26.3872H31.104V29.5872H0.895996V26.3872Z" fill="#3492FF"/>
</g>
<defs>
<clipPath id="clip0_3325_792">
<rect width="32" height="32" fill="white"/>
</clipPath>
</defs>
</svg>
