<svg width="32" height="32" viewBox="0 0 32 32" fill="none" xmlns="http://www.w3.org/2000/svg">
<path d="M15.328 15.264C14 15.632 12.64 15.936 11.296 16.352C8.51608 13.8382 5.00801 12.2747 1.28003 11.888C6.77227 7.92436 13.3709 5.78637 20.144 5.77597L17.824 7.90397C17.824 7.90397 27.664 7.56797 30.16 4.15997C30.0967 4.5154 29.9836 4.86013 29.824 5.18397C29.141 7.17499 27.903 8.92924 26.256 10.24C24.6982 11.4304 22.9798 12.3946 21.152 13.104C19.344 13.904 17.488 14.576 15.584 15.136L15.328 15.2V15.264ZM30.768 14.88C24.48 14.576 18.192 15.36 12.176 17.232C13.44 18.544 14.496 20.048 15.296 21.68C20.272 18.96 27.216 15.424 30.768 14.928V14.88ZM15.984 23.136C16.5761 24.6391 16.9583 26.2166 17.12 27.824L25.696 18.928L15.984 23.136ZM20.656 27.824C21.056 27.84 21.408 27.536 21.424 27.136V27.072C21.4302 26.9203 21.3913 26.7701 21.3122 26.6405C21.2331 26.5109 21.1173 26.4077 20.9796 26.3438C20.8418 26.28 20.6882 26.2584 20.5382 26.2819C20.3881 26.3053 20.2484 26.3727 20.1367 26.4755C20.0249 26.5783 19.9462 26.7119 19.9104 26.8594C19.8745 27.007 19.8832 27.1619 19.9354 27.3045C19.9875 27.4471 20.0808 27.571 20.2034 27.6606C20.3259 27.7502 20.4723 27.8015 20.624 27.808L20.656 27.824ZM20.656 26.496C20.976 26.496 21.232 26.752 21.232 27.072C21.232 27.392 20.976 27.648 20.656 27.648C20.5166 27.6618 20.3772 27.6212 20.2669 27.5348C20.1566 27.4483 20.0839 27.3227 20.064 27.184V27.072C20.0574 27.0026 20.0646 26.9326 20.0852 26.866C20.1058 26.7994 20.1394 26.7375 20.184 26.684C20.2287 26.6304 20.2834 26.5862 20.3452 26.554C20.407 26.5217 20.4746 26.502 20.544 26.496H20.656Z" fill="#F99D1C"/>
</svg>
