<svg width="32" height="32" viewBox="0 0 32 32" fill="none" xmlns="http://www.w3.org/2000/svg">
<g clip-path="url(#clip0)">
<path d="M32.056 15.7906C32.056 20.754 28.0213 24.8207 23.058 24.8207C18.0626 24.8207 8.07184 20.9141 8.07184 15.7906C8.07184 13.1969 10.6016 10.9554 13.7717 9.32229C14.284 9.4824 14.8284 9.64251 15.3408 9.83463C11.9785 11.3076 9.2246 13.5171 9.2246 15.7906C9.2246 19.7613 17.9665 23.668 23.058 23.668C27.3809 23.668 30.9353 20.1456 30.9353 15.7906C30.9353 11.4357 27.3809 7.91334 23.058 7.91334C21.8091 7.91334 20.3681 8.13749 18.8631 8.55377C18.3508 8.2976 17.8384 8.07345 17.3261 7.84929C19.4075 7.14482 21.4889 6.76056 23.058 6.76056C28.0213 6.76056 32.056 10.7953 32.056 15.7906ZM9.44878 23.636C5.12585 23.636 1.57146 20.1136 1.57146 15.7586C1.57146 11.4037 5.09385 7.88132 9.44878 7.88132C14.5402 7.88132 23.2821 11.7559 23.2821 15.7586C23.2821 18.0001 20.4962 20.2096 17.166 21.7147C17.6783 21.9068 18.2227 22.0669 18.735 22.227C21.9052 20.6259 24.4349 18.3524 24.4349 15.7586C24.4349 10.6672 14.4442 6.76056 9.44878 6.76056C4.48542 6.76056 0.450699 10.7953 0.450699 15.7906C0.450699 20.786 4.48542 24.8207 9.44878 24.8207C11.0178 24.8207 13.0992 24.4365 15.1807 23.732C14.6363 23.5079 14.1239 23.2837 13.6436 23.0276C12.1706 23.4118 10.6976 23.636 9.44878 23.636Z" fill="#437D8B"/>
</g>
<defs>
<clipPath id="clip0">
<rect width="32" height="32" fill="white"/>
</clipPath>
</defs>
</svg>
