<svg width="32" height="32" viewBox="0 0 32 32" fill="none" xmlns="http://www.w3.org/2000/svg">
<path d="M16.0534 0.50586C12.3271 0.505213 8.71852 1.81139 5.85594 4.197C2.99336 6.58262 1.05805 9.89658 0.386923 13.562C-0.284204 17.2274 0.351357 21.0121 2.18296 24.2572C4.01457 27.5023 6.92622 30.0023 10.411 31.322L11.7568 27.5731C9.15479 26.57 6.98577 24.6881 5.62576 22.2536C4.26574 19.8191 3.80047 16.9854 4.31059 14.2438C4.82071 11.5022 6.27408 9.02557 8.41873 7.24316C10.5634 5.46075 13.2641 4.48497 16.0528 4.48497C18.8414 4.48497 21.5422 5.46075 23.6868 7.24316C25.8315 9.02557 27.2848 11.5022 27.7949 14.2438C28.3051 16.9854 27.8398 19.8191 26.4798 22.2536C25.1198 24.6881 22.9507 26.57 20.3487 27.5731L21.6945 31.322C25.1792 30.0023 28.0908 27.5024 29.9224 24.2574C31.754 21.0125 32.3897 17.2279 31.7187 13.5626C31.0478 9.89728 29.1127 6.58333 26.2503 4.19761C23.388 1.8119 19.7796 0.505509 16.0534 0.50586V0.50586Z" fill="#008ECF"/>
<path d="M13.1026 23.8253L14.4496 20.0726C13.6137 19.7046 12.9297 19.0603 12.5125 18.2478C12.0953 17.4352 11.9702 16.504 12.1583 15.6102C12.3463 14.7164 12.836 13.9144 13.5452 13.3389C14.2545 12.7633 15.14 12.4492 16.0534 12.4492C16.9668 12.4492 17.8524 12.7633 18.5616 13.3389C19.2708 13.9144 19.7605 14.7164 19.9485 15.6102C20.1366 16.504 20.0115 17.4352 19.5943 18.2478C19.1771 19.0603 18.4932 19.7046 17.6572 20.0726L19.0042 23.8253C20.7252 23.1393 22.1533 21.875 23.0429 20.2499C23.9326 18.6248 24.2282 16.7405 23.8789 14.9211C23.5296 13.1017 22.5572 11.4608 21.129 10.2807C19.7008 9.10063 17.9061 8.45508 16.0534 8.45508C14.2008 8.45508 12.406 9.10063 10.9778 10.2807C9.54961 11.4608 8.57725 13.1017 8.22794 14.9211C7.87864 16.7405 8.17424 18.6248 9.06389 20.2499C9.95354 21.875 11.3816 23.1393 13.1026 23.8253V23.8253Z" fill="black"/>
</svg>
