<svg width="1875" height="1875" viewBox="0 0 1875 1875" fill="none" xmlns="http://www.w3.org/2000/svg">
<path d="M730.452 211.235C787.431 132.208 848.622 50.5968 935.718 0C1021.61 49.3422 1082.19 129.502 1138.36 207.128C1270.66 399.192 1351.55 629.889 1335.23 861.75C1377.99 896.1 1421.98 929.076 1464.1 964.128C1524.56 1017.39 1552.79 1100.47 1538.23 1177.71C1517.95 1275.28 1498.46 1373.07 1476.99 1470.37C1465.05 1520.43 1394.39 1543.35 1352.84 1511.36C1283.88 1456.2 1216.63 1399 1147.7 1343.76C1095.53 1391.87 1026.24 1423.95 953.499 1427.81C869.757 1433.47 786.849 1400.19 726.138 1345.81C676.677 1382.1 630.815 1425.67 582.49 1464.54C559.133 1482.52 539.711 1506.16 512.068 1518.45C469.212 1536.07 414.024 1509.77 404.337 1465.62C382.268 1370.5 359.213 1275.54 337.798 1180.27C320.394 1099.67 351.218 1011.92 416.013 957.888C453.524 927.69 491.559 898.101 529.77 868.728C540.416 863.364 535.067 850.986 535.671 841.896C524.28 618.189 604.01 397.065 730.452 211.235ZM798.129 505.899C748.089 567.642 754.143 663.276 812.178 718.416C873.624 783.306 990.006 785.67 1054.27 723.396C1103.88 679.956 1120.66 607.023 1096.98 547.092C1075.28 489.315 1017.19 445.974 953.304 440.583C894.306 434.076 833.217 460.089 798.129 505.899Z" fill="#764ABC"/>
<path d="M706.569 1545.45C705.711 1517.4 742.134 1498.12 766.752 1512.96C870.951 1564.38 1000.47 1564.36 1104.67 1512.93C1128.58 1498.86 1164.02 1515.76 1164.9 1543.05C1165.25 1602.63 1165.33 1662.26 1165 1721.85C1165.48 1750.93 1125.4 1769.48 1101.84 1751.29C1083.91 1736.13 1067.74 1719.09 1050.49 1703.19C1023.2 1754.15 997.47 1805.88 969.951 1856.72C956.736 1880.94 915.444 1881.11 901.974 1857.12C874.302 1806.19 848.754 1754.15 820.932 1703.26C803.931 1719.31 787.71 1736.26 769.803 1751.39C746.343 1769.66 706.341 1750.76 706.668 1721.87C706.167 1663.08 706.494 1604.27 706.569 1545.45Z" fill="#764ABC"/>
<path d="M934.413 686.544C980.709 686.544 1018.24 650.574 1018.24 606.201C1018.24 561.831 980.709 525.861 934.413 525.861C888.117 525.861 850.587 561.831 850.587 606.201C850.587 650.574 888.117 686.544 934.413 686.544Z" fill="#764ABC"/>
</svg>
