<svg width="32" height="32" viewBox="0 0 32 32" fill="none" xmlns="http://www.w3.org/2000/svg">
<path d="M6.3999 8.62318C3.15483 9.09978 0.743559 11.4601 0.225249 14.6601C-0.000103236 16.0445 0.292855 18.314 0.811164 19.3352C1.82525 21.3324 4.34919 23.012 6.69285 23.2843C8.04497 23.4432 10.1633 23.0573 11.3576 22.4445C12.3943 21.9225 15.0985 19.3579 15.0985 18.904C15.0985 18.5636 13.7464 16.975 13.521 17.0657C13.4309 17.1111 12.9351 17.6558 12.4393 18.314C11.1548 19.948 9.08159 20.9693 7.36891 20.8331C4.77736 20.6289 3.1999 19.0402 2.99708 16.4757C2.83933 14.592 3.29004 13.2757 4.50694 12.1636C6.06187 10.7565 8.27032 10.5523 10.2309 11.6416C10.8393 11.982 12.1464 13.3438 14.152 15.7721C19.6506 22.4672 19.9436 22.7169 22.8731 23.1935C27.3576 23.9424 31.3464 20.9466 31.7069 16.5664C31.8647 14.6147 31.5041 13.026 30.5576 11.687C29.0703 9.59907 27.0647 8.57779 24.3379 8.5551C21.6788 8.5324 20.4844 9.05439 18.5464 11.0289C17.645 11.9594 16.9013 12.7991 16.9013 12.9352C16.9013 13.2984 18.0957 14.7508 18.3661 14.7508C18.5013 14.7508 19.245 14.0473 20.0112 13.1622C21.2281 11.8005 21.6112 11.5281 22.6703 11.2104C27.0872 9.9168 30.49 14.2516 28.3717 18.4274C27.29 20.5608 24.4957 21.4459 22.0844 20.4019C21.1605 19.9934 20.4844 19.3125 17.2168 15.3636C15.121 12.8445 13.2055 10.5977 12.9576 10.3707C12.214 9.71255 10.5238 8.89552 9.55483 8.73666C7.88722 8.46432 7.54919 8.44162 6.3999 8.62318Z" fill="black"/>
</svg>
