<svg width="32" height="32" viewBox="0 0 32 32" fill="none" xmlns="http://www.w3.org/2000/svg">
<path fill-rule="evenodd" clip-rule="evenodd" d="M26.6046 25.3646C26.6046 25.3646 25.8402 27.1246 24.3824 27.4446C26.5424 29.0268 26.4269 30.8668 26.3646 31.6846C26.3646 30.8313 25.9024 28.3513 20.818 27.5957C14.6491 26.6446 14.1958 19.0002 14.1958 18.618C14.1958 18.618 14.4624 20.4668 15.8313 22.3513C17.5202 19.9335 19.698 19.4713 19.698 19.4713C20.9424 19.1868 21.8669 19.4091 22.0358 19.4713C22.1602 19.4713 22.258 19.5602 22.258 19.6846C22.258 19.818 22.1691 19.9157 22.0358 19.9157C21.9913 19.9157 21.9469 19.898 21.9202 19.8802C21.9202 19.8802 21.1202 19.578 19.8135 19.8535C17.8402 20.2713 16.4802 21.6491 15.8669 22.4046C16.6669 23.4891 17.8224 24.5824 19.5113 25.338C20.1335 24.0313 21.4935 21.658 23.6358 20.538C23.6358 20.538 23.6535 20.538 23.6713 20.538C23.7158 20.4846 23.778 20.4491 23.8491 20.4491C23.9913 20.4491 24.1158 20.5824 24.1158 20.7424C24.1158 20.8668 24.0269 20.9646 23.938 21.0091C23.378 21.4891 21.3602 21.9868 19.5646 25.3646C19.9824 25.5424 20.4269 25.7202 20.898 25.8535C21.698 26.0757 22.3735 26.3335 22.9424 26.6002C23.538 26.7957 25.4491 27.258 26.6135 25.3557L26.6046 25.3646ZM13.4491 22.5913C11.7869 18.5735 6.98688 16.6802 6.98688 16.6802C0.764653 14.538 0.8891 7.73791 0.8891 7.73791C0.8891 4.34236 3.06688 1.22236 4.71132 0.431248C4.71132 0.431248 3.75132 1.37347 2.84466 3.72013C1.86688 6.33347 2.22243 11.4713 5.95577 12.9824C9.06687 14.1824 10.9958 16.8046 10.9958 16.8046C10.9958 16.8046 11.9558 17.9602 12.5958 19.5602C13.6269 22.0668 13.8846 23.6491 13.4491 22.5824V22.5913ZM18.6935 9.01796C18.9424 9.83573 18.6935 10.5291 18.6935 10.5291C20.418 11.1157 21.6269 12.4846 21.6269 12.4846C21.4491 12.4846 21.3424 12.4135 20.7558 12.2002C20.7558 12.2002 19.7424 11.8446 19.1202 11.8624C18.8802 11.8624 18.8091 11.8891 18.8091 11.8891C18.5958 12.0846 18.2402 12.3335 17.6891 12.3335C16.5335 12.3335 15.698 11.7113 15.698 11.7113L15.8758 11.658C16.0358 11.5868 16.6224 11.1246 17.1913 10.6535C18.1691 9.83573 18.7024 9.01796 18.7024 9.01796H18.6935ZM30.5335 14.5557C30.6224 14.8224 30.658 15.3913 30.5335 16.8402C30.4269 17.9068 30.178 18.5291 29.0224 22.5291C29.0224 22.5913 28.9869 22.6535 28.9513 22.6891C28.9513 22.6891 28.9513 22.6891 28.9513 22.7068C28.8891 22.7691 28.6846 22.9735 28.0358 23.2668C27.5646 23.4802 25.9024 24.0668 24.4535 23.978C22.4446 23.8357 22.0535 24.1202 22.0535 24.1202C22.0535 24.1202 22.1691 22.4313 24.5958 23.0713C25.4135 23.2846 26.7558 23.338 27.5291 23.178C28.8269 22.9291 28.9691 22.6268 28.9869 22.5913C29.1824 21.818 30.1424 17.9246 29.138 17.2757C28.898 17.1157 28.7469 16.9735 28.4802 17.098C28.4802 17.098 27.6802 17.258 27.1113 15.9691C26.7913 15.3824 27.3158 15.258 27.3158 15.258C27.3158 15.258 27.8224 14.8491 28.4713 15.258C28.4713 15.258 28.8535 14.3424 30.1602 14.3957C30.1602 14.3957 30.3202 14.3957 30.4269 14.4402C29.6446 12.3068 22.4535 9.51573 22.4535 9.51573C19.7424 8.4668 19.0135 6.72458 17.1558 5.07124C15.7691 3.84458 13.6713 3.11569 12.6935 2.84902C15.4758 3.61347 17.3869 4.4668 17.3869 4.4668C19.3869 5.20458 21.2624 8.28902 23.058 9.17796C24.3024 9.80018 29.9558 12.2446 30.5246 14.5557V14.5735L30.5335 14.5557ZM12.1602 2.67124C12.338 2.7068 12.5158 2.76013 12.6935 2.80458C12.3558 2.71569 12.1602 2.66236 12.1602 2.66236V2.67124ZM9.22687 13.0357C4.93355 12.0046 4.64021 8.74236 4.64021 8.74236C6.29355 10.9646 7.16466 11.0091 8.0891 11.1246C7.20021 10.3868 6.50688 9.16907 7.2891 7.3468C7.82243 6.10236 8.58688 4.9468 8.46243 3.89791C8.32021 2.74236 7.57355 1.91569 7.87577 2.29791C8.12466 2.59124 9.17354 3.9868 9.5202 4.98236C9.93798 6.18236 9.82243 6.7868 9.37798 8.23569C8.75577 10.3691 10.2669 12.1646 10.2669 12.1646C12.0802 13.818 12.4358 16.4046 12.4358 16.4046C12.1691 15.6046 11.458 13.6491 9.23576 13.0268L9.22687 13.0357ZM10.1158 3.1068C8.19577 0.289026 6.61354 0.00458156 5.61799 0.0312482C5.61799 0.0312482 9.93798 -0.54653 11.3513 3.2668C12.0002 5.09791 10.8713 7.46236 10.8713 7.46236C10.8713 7.46236 11.4935 5.15124 10.098 3.1068H10.1158ZM26.3646 31.6757C26.3469 31.8002 26.338 31.898 26.338 31.9691C26.338 31.9691 26.3646 31.8624 26.3646 31.6757ZM7.68021 19.4357C8.65799 18.9913 13.1913 22.2535 14.0535 27.9957C13.8402 26.8046 13.0758 24.2268 10.4713 22.8935C7.1291 21.1868 7.37799 19.8268 7.37799 19.8268C7.37799 19.8268 7.41355 19.5602 7.68021 19.4357ZM14.1335 28.6268C14.1335 28.6268 14.1335 28.4846 14.098 28.2357C14.1158 28.3691 14.1335 28.5024 14.1424 28.6268H14.1335Z" fill="black"/>
</svg>
