<svg width="32" height="32" viewBox="0 0 32 32" fill="none" xmlns="http://www.w3.org/2000/svg">
<path fill-rule="evenodd" clip-rule="evenodd" d="M9.31168 29.0673C7.54364 26.3563 6.14196 22.8775 7.2527 19.6894C8.36301 16.5014 9.85718 14.2492 12.4078 13.3375C13.7448 12.8596 17.7685 11.0647 20.9 13.8388C24.0317 16.613 25.603 20.0751 25.7189 22.4823C26.0404 29.1478 17.2324 31.8817 15.6848 31.8817C13.5989 31.8817 10.4871 30.8693 9.31168 29.0673Z" fill="#FF704C"/>
<path fill-rule="evenodd" clip-rule="evenodd" d="M21.4828 0.184336C20.2808 -1.49188 16.4336 8.78178 18.2569 10.0485C18.7189 10.3698 24.0918 3.82435 21.4828 0.184336Z" fill="#424A3C"/>
<path fill-rule="evenodd" clip-rule="evenodd" d="M16.0023 10.0177C16.287 11.5147 12.8043 6.51611 13.5191 5.59871C15.1569 3.4956 15.8344 9.1348 16.0023 10.0177Z" fill="#424A3C"/>
</svg>
