<svg width="32" height="32" viewBox="0 0 32 32" fill="none" xmlns="http://www.w3.org/2000/svg">
<circle cx="16" cy="16" r="16" fill="black"/>
<path d="M12.103 8.32001C10.0813 8.32001 8.14233 9.12315 6.71273 10.5527C5.28313 11.9823 4.48 13.9213 4.48 15.943C4.48 17.9648 5.28313 19.9038 6.71273 21.3333C8.14233 22.7629 10.0813 23.5661 12.103 23.5661C13.6088 23.568 15.0559 22.9825 16.1366 21.9341C16.5833 22.4472 17.1348 22.8584 17.7541 23.14C18.3733 23.4215 19.0458 23.5668 19.7261 23.5661V15.943C19.7261 14.942 19.5289 13.9507 19.1458 13.0258C18.7627 12.101 18.2012 11.2606 17.4933 10.5527C16.7855 9.84488 15.9451 9.28337 15.0202 8.90028C14.0954 8.51718 13.1041 8.32001 12.103 8.32001V8.32001ZM9.24447 15.943C9.24447 15.3777 9.41212 14.825 9.72623 14.3549C10.0403 13.8848 10.4868 13.5184 11.0091 13.3021C11.5314 13.0857 12.1062 13.0291 12.6607 13.1394C13.2152 13.2497 13.7246 13.522 14.1243 13.9217C14.5241 14.3215 14.7964 14.8309 14.9067 15.3854C15.017 15.9399 14.9604 16.5146 14.744 17.037C14.5276 17.5593 14.1612 18.0058 13.6912 18.3199C13.2211 18.634 12.6684 18.8016 12.103 18.8016C11.3449 18.8016 10.6178 18.5004 10.0817 17.9644C9.54564 17.4283 9.24447 16.7012 9.24447 15.943Z" fill="white"/>
<path d="M27.3389 20.7075C27.3389 20.1422 27.1712 19.5895 26.8571 19.1194C26.543 18.6493 26.0966 18.2829 25.5743 18.0666C25.0519 17.8502 24.4772 17.7936 23.9227 17.9039C23.3681 18.0142 22.8588 18.2864 22.459 18.6862C22.0592 19.086 21.787 19.5953 21.6767 20.1499C21.5664 20.7044 21.623 21.2791 21.8394 21.8015C22.0557 22.3238 22.4221 22.7702 22.8922 23.0843C23.3623 23.3984 23.915 23.5661 24.4803 23.5661C25.2385 23.5661 25.9656 23.2649 26.5016 22.7288C27.0377 22.1928 27.3389 21.4657 27.3389 20.7075Z" fill="#E0FF77"/>
</svg>
