<svg width="32" height="32" viewBox="0 0 32 32" fill="none" xmlns="http://www.w3.org/2000/svg">
<path d="M22.5714 23.324V26.5288L16.6406 31.069V26.1727L21.2436 22.7009C21.5977 22.4338 22.1289 22.5228 22.3944 22.8789C22.4829 22.968 22.5714 23.146 22.5714 23.324Z" fill="#16AB74"/>
<path d="M16.6408 31.0687L10.6215 26.5285V23.3238C10.6215 22.8786 10.9755 22.5225 11.5067 22.5225C11.6837 22.5225 11.8607 22.6115 11.9492 22.7006L16.5523 26.1724L16.6408 31.0687Z" fill="#1C8F4E"/>
<path d="M26.5548 0.890222V3.82797C26.5548 3.91699 26.4662 4.00602 26.4662 4.09504L16.6406 11.4839V6.67669L25.05 0.267072C25.404 -0.089024 25.9351 -0.089024 26.2892 0.267072C26.4662 0.445111 26.5548 0.623159 26.5548 0.890222Z" fill="#EB599B"/>
<path d="M16.0208 16.2021C16.0208 16.024 15.9323 15.846 15.7552 15.757L5.22141 7.74497C4.51325 7.29984 3.45102 7.47788 3.00842 8.27912C2.83138 8.54618 2.74286 8.81324 2.74286 9.08031V20.6532L6.72624 23.5909V14.7778C6.72624 14.5107 6.99179 14.3326 7.25735 14.3326C7.34588 14.3326 7.43439 14.3326 7.52291 14.4217L15.1356 20.2081C15.4012 20.3862 15.7552 20.3862 15.9323 20.1191C16.0208 20.0301 16.0208 19.941 16.0208 19.763V16.2021Z" fill="url(#paint0_linear_2955_34)"/>
<path d="M27.8825 7.74515L17.3488 15.7572C17.1717 15.8462 17.0832 16.0242 17.0832 16.2023V19.6741C17.0832 19.9412 17.3488 20.2083 17.6143 20.2083C17.7028 20.2083 17.8799 20.2083 17.9684 20.1193L25.5811 14.3328C25.7581 14.1548 26.1122 14.2438 26.2892 14.4218C26.3777 14.5109 26.3777 14.5999 26.3777 14.6889V23.5911L30.2726 20.6534V9.08049C30.2726 8.19025 29.476 7.47804 28.5907 7.56711C28.4137 7.56711 28.1481 7.65613 27.8825 7.74515Z" fill="url(#paint1_linear_2955_34)"/>
<path d="M8.14255 0.177894C7.78848 -0.0891684 7.16884 -0.000144332 6.90327 0.355943C6.81476 0.533991 6.72624 0.712029 6.72624 0.890077V7.12166C6.72624 7.38873 6.81476 7.56677 6.9918 7.7448L9.73591 9.8813C10.0015 10.0594 10.267 9.97035 10.4441 9.70329C10.4441 9.61424 10.5326 9.52528 10.5326 9.43623V7.65577C10.5326 7.47774 10.7096 7.2997 10.8867 7.2997C10.9752 7.2997 10.9752 7.2997 11.0637 7.38873L16.5519 11.4838V6.67655L8.14255 0.177894Z" fill="#E52C46"/>
<defs>
<linearGradient id="paint0_linear_2955_34" x1="2.83501" y1="15.5438" x2="16.0407" y2="15.5438" gradientUnits="userSpaceOnUse">
<stop stop-color="#FDC418"/>
<stop offset="1" stop-color="#F6A217"/>
</linearGradient>
<linearGradient id="paint1_linear_2955_34" x1="17.1559" y1="15.56" x2="30.3615" y2="15.56" gradientUnits="userSpaceOnUse">
<stop stop-color="#0319F7"/>
<stop offset="1" stop-color="#2041F9"/>
</linearGradient>
</defs>
</svg>
