<svg width="32" height="32" viewBox="0 0 32 32" fill="none" xmlns="http://www.w3.org/2000/svg">
<path fill-rule="evenodd" clip-rule="evenodd" d="M15.9962 19.0249L21.9344 22.8473L15.9962 26.9119V19.0249ZM15.7441 19.0238V26.9109L9.80592 22.8463L15.7441 19.0238ZM26.8746 5.00577L31.5886 16.1499L28.5234 25.0188L28.5043 14.4822L26.8746 5.00577ZM28.2555 14.8165L28.2675 25.0188L24.3576 20.0141L28.2555 14.8165ZM4.86565 5.00476L3.23594 14.4812L3.2169 25.0178L0.151672 16.149L4.86565 5.00476ZM3.4847 14.8155L7.38274 20.0131L3.47276 25.0178L3.4847 14.8155ZM22.4606 10.4373L23.9932 20.0758L22.0851 22.6444L16.0761 18.7766L22.4606 10.4373ZM9.27958 10.4363L15.6642 18.7756L9.65517 22.6434L7.74707 20.0748L9.27958 10.4363ZM26.664 5.00577L28.2345 14.4212L24.2043 19.7984L22.672 10.1614L26.664 5.00577ZM5.0762 5.00476L9.06829 10.1603L7.53598 19.7974L3.50574 14.4202L5.0762 5.00476Z" fill="#0157FF"/>
</svg>
