<svg id="Layer_1" data-name="Layer 1" xmlns="http://www.w3.org/2000/svg" viewBox="0 0 475.84 498"><defs><style>.cls-1{fill:#684c46}.cls-2{fill:#f5dcba}.cls-3{fill:#0788bf}.cls-4{fill:#46b8e3}.cls-5{fill:#ffd14f}.cls-6{fill:#122030}.cls-7{fill:#fff}.cls-8{fill:#eabe8d}.cls-9{fill:#9c7356}</style></defs><title>mailchimp</title><path class="cls-1" d="M480.5 356.87c-.39 1.27-37 142.18-181.08 142.13-124.51 0-183.53-108.26-183.53-108.26A64.52 64.52 0 0 1 90 386.83c-36.53-13.42-54.06-55.21-41.45-90.27l-20.1-15.34C-49.32 222 171-49.13 248.9 12.21l18.6 15c28-17 55.68-26.17 78.19-26.17 16 0 29.37 4.63 38.37 14.38 20.22 21.89 13 63.7-14.66 106 5.94 5.64 10.86 13.3 14.37 20.91 8.78 6.77 14.47 17.07 17.29 31.29 3.15 15.81 3.8 38.34 5.78 48 7.45 3.36 4.27 1.81 12.21 5.77 8.28 4.14 18.36 9.17 29.5 19.89 19.8 5 27.36 26 15.78 40.38-.31.39-1.71 2-3.16 3.69a74.49 74.49 0 0 1 6.9 19.65 26.16 26.16 0 0 1 18.17 14.32c5.93 14.29-5.74 31.55-5.74 31.55zm-57.1 106.41v5.9h2.26v-5.9H428v-1.86h-6.85v1.86zm5.26-1.86v7.76h2.06v-5.6l1.68 5.6h1.76l1.68-5.62v5.62h2.06v-7.76h-3.22l-1.39 4.47-1.41-4.47z" transform="translate(-12.08 -1)"/><path class="cls-2" d="M145.27 303.84a123.34 123.34 0 0 0 4.73-14.51 91.78 91.78 0 0 1 4.71 34.2c3-4 6.17-11.42 6.17-11.42 5.54 32.6-18.25 62.44-49.6 62.44-27.83 0-50.39-23.75-50.39-53s22.56-53 50.39-53a48.08 48.08 0 0 1 20.28 4.47s10.7 5.3 13.71 30.82zm274.19 115c39.06-30.69 45.89-67.66 46.54-68.93 9.61-11.53 7-22.88-5.7-22.89a23.72 23.72 0 0 0-7.09 1.07s0-16.82-7.73-29.92c-6 6.75-22.65 20.11-44.5 30.48-20.49 9.73-47.82 18.24-81.7 19.37-9.49.41-15.35-1.13-18.66 9.93-1.05 3.91-.6 9.71.19 11.39 2.67 9.16 9.65 13.2 18.84 15.33a80 80 0 0 0 14.35 1.75c68.71 1.93 123.88-51.66 124.54-52.1a10.51 10.51 0 0 0 1.17-1.14l-.68 1.58c-9.92 22.32-67.38 62.79-124.57 61.63l-.19.07c-13.26-.05-29.38-3.46-37.76-13.85-13.26-16.44-6.38-43.77 14.75-44.41l7-.17c52.31-1.61 99.24-20.83 132.85-61 4.62-5.74-.54-13.63-10.56-13.87a.33.33 0 0 1-.23-.1c-11.87-12.71-22.31-17.21-31.6-21.93-19.47-9.92-17.64-1.35-22.16-49.46-1.22-13-3.68-30.66-15.07-37.44a18.52 18.52 0 0 0-9.64-2.54 17.89 17.89 0 0 0-5.64.83c-6.24 1.38-9.79 4.92-14.23 9-21 19.37-37.8 14.11-62.86 13.89-23.54-.21-44.32 16.21-48.29 41.42-1.93 13.2-.68 26.61 1.39 32.64 0 0-6.39-4.25-9.43-8 3.68 23 24.7 38.09 24.7 38.09a34.24 34.24 0 0 1-8.07.45s12 9.49 22.39 12.79c-2.71 1.69-16.41 15.2-23.47 33.81-6.61 17.42-3.92 38.32-3.92 38.32l5.74-8.56s-3.75 19.07 3.51 37.55c2.41-5.5 7.67-15.3 7.67-15.3s-.83 20.48 9 37.26c.25-3.87 1.73-13.73 1.73-13.73s5.66 17.49 18.73 29.72c24.55 21.77 89.35 25.69 138.66-13.06z" transform="translate(-12.08 -1)"/><path class="cls-3" d="M56.07 281.64c-.2-.05-19-13.82-21.63-18.36-15.79-26.64 11.68-81.36 31.22-112.46C114 74 194.36 13.29 230.87 22l37.5 19.35a303.28 303.28 0 0 0-37.08 26.08l-8 6.69S200 89.77 188.42 99.66C142 139.3 96.23 200.66 79.27 259.89a64.31 64.31 0 0 0-23.2 21.75z" transform="translate(-12.08 -1)"/><path class="cls-4" d="M230.87 22C194.36 13.29 114 74 65.67 150.82v.07h.2l38.48 30.3c42.26-67.08 95.36-101.66 96.86-102.68l-6.1-41.05L206.5 32l22.94 7.43-1.76-7.66 3.19-9.77z" transform="translate(-12.08 -1)"/><path class="cls-5" d="M268.37 41.31l-37.08 26.08-2.59 2-32.88-26.83-.76-5.08L206.5 32l22.94 7.43.38-14.24 1.05-3.19 10-3.85z" transform="translate(-12.08 -1)"/><path class="cls-6" d="M341.53 15.73c-24.52 0-52 12.9-73.16 25.57-3 1.74-5.9 3.57-8.78 5.43l-11-9.26 4 13.95q-2.28 1.56-4.45 3.11l-22.83-7 15.11 12.65c-3.45 2.61-6.53 5.06-9.09 7.18l-36.26-29.88 1.93 13.4 26.33 23.2S200 89.77 188.42 99.66c-46.42 39.63-92.19 101-109.15 160.23l1-.54.39-.2 1.41-.73.91-.45c.49-.23 1-.45 1.46-.66l.86-.38c.53-.22 1.05-.42 1.58-.62l.73-.28c.77-.27 1.53-.53 2.29-.76 11.53-3.44 27.22-5.65 45.59 2.15 9.22-23.26 20.24-46.93 37.61-69.67 14.08-18.44 27.61-34.9 43.86-44 30.76-28.89 113.66-59.53 140.22-33 6.28-10.27 11.73-20 16.22-32.19 11.03-29.26 11.24-62.83-31.87-62.83z" transform="translate(-12.08 -1)"/><path class="cls-6" d="M224.21 40.65l-5.42-19.7-3.19 9.82 1.91 7.71 6.7 2.17z"/><path class="cls-7" d="M453.21 328s0-16.82-7.73-29.92c-6 6.75-22.65 20.11-44.5 30.48-20.49 9.73-47.82 18.24-81.7 19.37-9.49.41-15.35-1.13-18.66 9.93a18.1 18.1 0 0 0-.52 3.11v.11c0 .35-.05.71-.06 1.06v2.91c0 .49.07 1 .12 1.39v.14a10.09 10.09 0 0 0 .61 2.67v.15c2.7 9.06 9.66 13.06 18.8 15.19A80 80 0 0 0 334 386.4c56.06 1.57 103.11-33.81 118.89-47.13a96.77 96.77 0 0 0 .32-11.27zm-161-299.45c13.39-6.17 27.75-11.05 41.51-12.46-13.72 3.11-30.38 10.2-50.12 22.28-.48.28-46.71 31.48-75 59.49-15.39 15.27-77.2 89.38-77.15 89.32 11.3-21.38 18.74-31.87 36.62-54.36 10.11-12.72 20.9-25.09 32-36.51q5.57-5.76 11.21-11.17c1.44-1.37 33.72-34.44 80.89-56.55z" transform="translate(-12.08 -1)"/><path class="cls-8" d="M419.46 418.81a136.69 136.69 0 0 1-20.83 13.5C382.12 426 372 412.67 372 412.67s14.15-3.35 33.07-13c23-11.69 44.5-28.58 60.94-49.83-.66 1.31-7.49 38.28-46.55 68.97zm-44.92-178.18c-8-5.68-21.21-1.16-24.12 8.24 4.62.23 9.52 3.73 9.22 8.2a17.7 17.7 0 0 1 12.41-4.86c-2.17-3.49-1.05-9.51 2.49-11.58zm-83.76 114.66c2.51-9.36 9.62-16.77 20.5-17.11l7-.17c52.31-1.61 99.24-20.83 132.85-61 4.62-5.74-.54-13.63-10.56-13.87h-.14c-1.69 1.79-2 5.06-4.8 10-10.22 17.76-24.36 25.88-43.21 35.3-57.8 28.78-87.78 15.39-99.8 33-3.5 5.19-3.56 11-1.88 13.84zM395.37 234.6c-5.53-4-5.73-10.89-8.74-42.89-1-10.21-2.69-23.34-8.94-31.77a8.5 8.5 0 0 0-5.72-2.43c-3.95-.17-8.41 3.91-10.94 6.71-7.18 10.36-14 17-26.17 22.81a78.82 78.82 0 0 1-36.06 7.19c-8.87-.28-16.63-1.74-24.24-1.84-14.1-.22-26.32 4.35-35.23 15.6-6.11 7.71-8.56 15.87-9.34 25.58 0 1.17.08 2.27.15 3.31.11 1.54.25 3 .42 4.4a40.69 40.69 0 0 0 1.51 7.47.38.38 0 0 1 0 .11c.07.24.15.47.22.69 0 0-6.39-4.25-9.43-8 3.07 19.2 18.19 32.86 23.13 36.87l.86.67.06.06.64.48a34.23 34.23 0 0 1-8.07.45s12 9.49 22.39 12.79c13.79-11.65 29.42-16.13 42.25-17.51 7.78-4.83 16.14-9.57 25.12-14.14-2.72-16.93 12.3-34 31.19-35.62 14.26-1 21.19 5.35 26.19 12.19a427.3 427.3 0 0 1 9.18-2.82 2.88 2.88 0 0 1-.43-.36zm6.82 114a2.79 2.79 0 0 0-.53.09C396 350 337.22 372.8 300.09 361.14c-.17 2-.11 6.3.72 8.16a108.67 108.67 0 0 0 21 1.85c48.84 0 84.05-22.21 80.38-22.51zm-273.36-4.56a14.18 14.18 0 0 0 3.52-11.94c-1.1-6.15-8.07-7.39-12.67-12.17l-.22-.23-.23-.25a10.3 10.3 0 0 1-2.62-7.51c.36-6.29 6-8.06 8.86-6.9a11.65 11.65 0 0 1 6.12 4.54c-.41-1.23-.32-3.21-2.41-6.17-3.42-4.85-11.29-9.79-22.44-7.42a22.16 22.16 0 0 0-2.94.76 7.7 7.7 0 0 0-.86.28c-.64.3-1.23.5-1.8.81a25.11 25.11 0 0 0-4 2.44c-12.51 16.15 8.72 45.49 31.69 43.8z" transform="translate(-12.08 -1)"/><path class="cls-9" d="M313.64 244.49c1.06 1.55 1.34 2.72.91 3.2-.85 1-3.9-.35-8.39-2.1-11.51-4.29-20-4.95-35 .73-3.8 1.45-6.49 2.57-7.78 2.37-2.1-.31-.07-4.17 4.53-7.9 9.26-7.38 22-9.68 32.83-5.63 4.77 1.75 10.11 5.24 12.9 9.33zm-2.28 11.77c-3.16-2.41-9-4-15-3a32.42 32.42 0 0 0-3.59.89 8.3 8.3 0 0 0-1.22.42 20.73 20.73 0 0 0-6.75 4.19c-2.4 2.32-3.09 4.48-2.39 5s2.35-.26 4.92-1.3a41.23 41.23 0 0 1 20.52-3.27c2.8.19 4.68.36 5.11-.41.31-.5-.24-1.49-1.6-2.52zm-185.48 44.18a16.9 16.9 0 0 1 3.31 3.47c2.65 3.75 1.81 5.94 2.89 7a1.36 1.36 0 0 0 1.51.28c1.5-.62 2.24-3 2.38-4.68.38-4-1.74-8.51-4.55-11.71a24.62 24.62 0 0 0-6.67-5.35 27.8 27.8 0 0 0-9.26-3.17 34.83 34.83 0 0 0-13.42.75c-.84.24-1.88.46-2.77.81-9.69 3.78-16.07 10.71-18.9 19.9a34.88 34.88 0 0 0-.67 17.41c.82 3.75 2.5 8 5.11 10.74 3.27 3.54 6.86 2.86 5.33-.43a28.49 28.49 0 0 1-2.61-11.38 33.26 33.26 0 0 1 2.05-13.19 24.8 24.8 0 0 1 3.72-6.45 23.67 23.67 0 0 1 7.81-6.1c.57-.3 1.16-.51 1.8-.81a7.58 7.58 0 0 1 .86-.28 22.19 22.19 0 0 1 2.94-.76c7.76-1.65 14.43.15 19.14 3.95zm-1.65 15a4.65 4.65 0 0 1-1.86-2.69c-.44-2-.21-3.21 1.53-4.43 1.34-.91 2.41-1.36 2.41-1.93.06-1.09-4.41-2.21-7.53.87-2.59 2.76-3.41 8.53.73 13 4.61 5 11.77 6.15 12.89 12.4a11.89 11.89 0 0 1 .18 2.85 15.07 15.07 0 0 1-.38 2.83c-1.39 6-7.12 11.8-16.57 10.33-1.74-.25-2.87-.47-3.21 0-.73 1 3.32 5.65 10.74 5.48 7.25-.15 14.45-5.58 16.76-13.75a20.78 20.78 0 0 0 .76-4.49 18.64 18.64 0 0 0-.27-4.77c-1.9-10.49-12.31-12.64-16.19-15.73zM377 240.57c-2.87-.45-5.69 2.38-6.3 6.31s1.21 7.48 4.08 7.93 5.69-2.38 6.3-6.31-1.18-7.5-4.08-7.93zM345.54 252c-1.58 2.88.34 7 4.29 9.12s8.42 1.58 10-1.29-.34-7-4.29-9.12-8.43-1.55-10 1.29zm-115.4-116.3c54.24-35.16 108.42-39.2 127-24.93 0-.09-.33-.92-.45-1.14-4.71-10-15.71-17-25.51-19.8a38.23 38.23 0 0 1 5.21 7 78 78 0 0 0-27.47-11.68s1.22.88 1.43 1.07c2 1.9 4.76 4.91 5.88 7.49-9.8-3.93-22.19-6.14-32.79-4.1l-1.34.39s1.38.34 1.69.43c3.52 1 8.54 3.19 10.75 6.12-17.6-3.1-37 .33-47.41 6.17a24.2 24.2 0 0 1 2.47 0c3.84.1 11.58.62 14.83 2.69-11.1 2.26-27.17 7.23-35.82 14.66 1.53-.18 10.2-1.28 13.74-.71-47.61 27.25-69.29 68.44-69.29 68.44 14.03-18.36 32.24-35.97 57.08-52.06z" transform="translate(-12.08 -1)"/><path class="cls-1" d="M358.11 212.55c-.07-3.74.52-9.91 4-11.06 6-2.09 14 13.32 14.35 27a30.15 30.15 0 0 0-16.08-2.89 46.31 46.31 0 0 1-2.27-13.05z" transform="translate(-12.08 -1)"/></svg>