<svg width="32" height="32" viewBox="0 0 32 32" fill="none" xmlns="http://www.w3.org/2000/svg">
<path d="M23.9716 19.2969C23.5351 20.339 22.8976 21.2848 22.0955 22.0804C21.2934 22.8759 20.3424 23.5055 19.2969 23.9333L22.1301 30.7778C24.0714 29.9762 25.8351 28.7988 27.32 27.3134C28.8049 25.8279 29.9817 24.0636 30.7827 22.1218L23.9716 19.2969Z" fill="#00A8E1"/>
<path d="M30.7803 9.87695L23.9727 12.6965C24.407 13.742 24.6305 14.863 24.6305 15.9952C24.6305 17.1273 24.407 18.2483 23.9727 19.2938L30.7785 22.1187C31.5847 20.1788 31.9997 18.0987 31.9997 15.9978C31.9997 13.897 31.5847 11.8169 30.7785 9.87695" fill="#022A3A"/>
<path d="M16.0609 24.568C14.7955 24.5675 13.5459 24.2868 12.4018 23.746C11.2576 23.2052 10.2474 22.4178 9.44356 21.4403C8.63973 20.4628 8.06223 19.3194 7.75253 18.0923C7.44282 16.8651 7.40859 15.5845 7.65229 14.3426C7.89598 13.1006 8.41157 11.928 9.16203 10.9089C9.91249 9.8898 10.8792 9.04953 11.9928 8.44839C13.1064 7.84725 14.3392 7.50015 15.6028 7.432C16.8664 7.36385 18.1294 7.57634 19.3012 8.05422L22.1291 1.22223C19.6985 0.213236 17.0565 -0.180394 14.4374 0.0762263C11.8182 0.332847 9.30286 1.23179 7.1142 2.69338C4.92553 4.15496 3.13119 6.13404 1.89023 8.45518C0.649259 10.7763 0 13.3678 0 16C0 18.6322 0.649259 21.2237 1.89023 23.5448C3.13119 25.866 4.92553 27.845 7.1142 29.3066C9.30286 30.7682 11.8182 31.6672 14.4374 31.9238C17.0565 32.1804 19.6985 31.7868 22.1291 30.7778L19.2959 23.9333C18.2691 24.3532 17.1702 24.5688 16.0609 24.568" fill="#BDC4C9"/>
<path d="M23.9747 12.6979L30.784 9.87653C29.9833 7.93436 28.8067 6.16964 27.3217 4.68383C25.8368 3.19802 24.0729 2.02043 22.1314 1.21875L19.3018 8.05253C20.3478 8.48151 21.2989 9.11262 22.1007 9.90973C22.9026 10.7068 23.5394 11.6543 23.9747 12.6979" fill="#00C18B"/>
</svg>
