<svg width="32" height="32" viewBox="0 0 32 32" fill="none" xmlns="http://www.w3.org/2000/svg">
<path d="M20.2931 3.64398C21.2994 3.64398 22.1151 2.82824 22.1151 1.82199C22.1151 0.815732 21.2994 0 20.2931 0C19.2869 0 18.4712 0.815732 18.4712 1.82199C18.4712 2.82824 19.2869 3.64398 20.2931 3.64398Z" fill="#FFBE9F"/>
<path d="M12.6628 12.5369C9.33478 17.3482 11.0514 32.8795 18.0017 31.9609C24.7249 31.0728 20.3363 22.8637 24.7186 20.0761C27.5124 18.2998 33.2815 16.4524 31.7437 10.6414C30.1413 4.58795 18.3088 4.37733 12.6628 12.5369V12.5369Z" fill="#FFBE9F"/>
<path d="M10.9677 11.3645C12.4269 9.26891 14.3432 7.53221 16.5718 6.28552C15.6215 2.4931 13.4012 -0.609101 10.4145 0.102692C5.45742 1.28267 8.99347 7.66724 5.55892 10.1833C3.36903 11.787 -1.25055 13.6077 0.318914 18.2782C1.31109 21.2281 5.13769 22.2914 9.00363 21.0733C8.81712 17.2733 9.46672 13.5341 10.9677 11.3645V11.3645Z" fill="white"/>
<path d="M15 15C16.4593 12.9044 16 8 16.5718 6.28552C15.6215 2.4931 13.4012 -0.609101 10.4145 0.102692C5.45742 1.28267 8.99347 7.66724 5.55892 10.1833C3.36903 11.787 -1.25055 13.6077 0.318914 18.2782C1.31109 21.2281 5.13769 22.2914 9.00362 21.0733C10.4145 18.2782 13.499 17.1696 15 15Z" fill="#7828EA"/>
</svg>
