<svg width="32" height="32" viewBox="0 0 32 32" fill="none" xmlns="http://www.w3.org/2000/svg">
<path d="M32 16C32 7.16348 24.8366 0 16.0002 0C7.1634 0 0 7.16348 0 16C0 24.8363 7.1634 32 16 32C24.8366 32 32 24.8363 32 16Z" fill="#339AF0"/>
<path d="M13.0207 8.45135C12.8773 8.64517 12.7945 8.87676 12.7827 9.11713C12.7709 9.35751 12.8306 9.59601 12.9544 9.80281C13.0365 9.93952 13.145 10.0587 13.2736 10.1534C15.1373 11.5347 16.2072 13.6467 16.2072 15.9488C16.2072 18.2508 15.1373 20.3628 13.2736 21.7441C13.1451 21.8389 13.0368 21.9581 12.9548 22.0947C12.7884 22.3717 12.7391 22.703 12.8178 23.0161C12.8567 23.1712 12.9255 23.317 13.0207 23.4452C13.1156 23.5735 13.2351 23.6818 13.3722 23.7639C13.5094 23.846 13.6615 23.9004 13.8199 23.9238C13.9782 23.9472 14.1396 23.9393 14.2949 23.9004C14.4501 23.8615 14.5961 23.7925 14.7244 23.6973C15.2984 23.2716 15.8242 22.7851 16.2927 22.2465H19.7446C20.4167 22.2465 20.9629 21.7023 20.9629 21.0305C20.9629 20.3587 20.4179 19.8145 19.7446 19.8145H17.8394C18.3719 18.5948 18.6454 17.2788 18.6427 15.949C18.6455 14.619 18.3721 13.3029 17.8395 12.0831H19.7458C20.4179 12.0831 20.9639 11.5391 20.9639 10.8671C20.9639 10.1953 20.4189 9.65125 19.7458 9.65125H16.2946C15.826 9.11206 15.2998 8.62515 14.7254 8.19908C14.5973 8.104 14.4515 8.03506 14.2964 7.99621C14.1414 7.95737 13.9802 7.94938 13.822 7.97272C13.5021 8.02053 13.2143 8.19267 13.0218 8.45135H13.0207V8.45135Z" fill="white"/>
<path fill-rule="evenodd" clip-rule="evenodd" d="M11.0972 15.5859C11.0914 15.344 11.1338 15.1032 11.222 14.8776C11.3098 14.6526 11.4417 14.4473 11.6101 14.2736C11.7778 14.1006 11.9787 13.9628 12.2009 13.8685C12.4225 13.7746 12.6609 13.7262 12.9018 13.7262C13.1426 13.7262 13.381 13.7746 13.6026 13.8685C13.8249 13.9628 14.0258 14.1005 14.1936 14.2736C14.362 14.4473 14.494 14.6526 14.5818 14.8776C14.6698 15.1033 14.712 15.344 14.7061 15.5859C14.6951 16.0587 14.5002 16.5088 14.1624 16.8414C13.8269 17.1718 13.3739 17.3573 12.9019 17.3577C12.4296 17.3574 11.9766 17.1719 11.6409 16.8414C11.3031 16.5088 11.1082 16.0587 11.0972 15.5859V15.5859Z" fill="white"/>
</svg>
