<svg width="46" height="46" viewBox="0 0 46 46" fill="none" xmlns="http://www.w3.org/2000/svg">
<path d="M19.3529 15.7826C19.3529 16.3692 18.8881 16.8343 18.3005 16.8343C17.7129 16.8343 17.248 16.3692 17.248 15.7826C17.248 15.1961 17.7129 14.731 18.3005 14.731C18.8662 14.731 19.3529 15.2166 19.3529 15.7826Z" fill="#1E62F2"/>
<path d="M27.8314 15.7826C27.8314 15.1961 27.3666 14.731 26.779 14.731C26.1914 14.731 25.7266 15.1961 25.7266 15.7826C25.7266 16.3692 26.1914 16.8343 26.779 16.8343C27.3666 16.8343 27.8314 16.3692 27.8314 15.7826Z" fill="#1E62F2"/>
<path d="M35.7252 38.569C38.2744 38.569 40.8441 37.6182 42.8057 35.6963L42.8261 35.6757C42.8465 35.6553 42.8671 35.6348 42.886 35.6158C45.2321 33.1482 45.9206 29.5264 44.646 26.3904C43.9575 24.6907 42.6434 23.3347 40.9435 22.6268C39.2435 21.8984 37.3827 21.8984 35.6638 22.5858C32.8325 23.7194 31.4556 26.9565 32.6089 29.7883C32.8515 30.3953 33.54 30.6791 34.1466 30.4362C34.7532 30.1934 35.0368 29.506 34.7941 28.9194C34.1466 27.3016 34.9358 25.4396 36.554 24.7712C38.881 23.8408 41.531 24.954 42.4812 27.2797C43.3918 29.5455 42.9065 32.1754 41.2066 33.9761L41.1657 34.017C38.0902 37.0317 33.1336 36.9703 30.1196 33.8957C27.449 31.1647 27.1655 26.7941 29.4311 23.7589C29.4925 23.6784 29.7746 23.3742 30.0187 23.0919C31.3138 21.635 32.6278 20.1387 33.1745 19.1864C34.4886 16.9412 35.1975 14.4326 35.1975 12.1259C35.1975 10.5681 34.8935 9.0702 34.2664 7.6544C34.4681 6.784 35.0952 4.3368 35.6828 2.13108C35.7836 1.72588 35.6828 1.3222 35.3992 1.01792C35.1157 0.71516 34.6918 0.59227 34.3074 0.6742C32.1221 1.13936 29.6753 1.64541 28.8055 1.78736C26.9243 0.77657 24.78 0.25 22.5948 0.25C15.6561 0.25 10.0125 5.5714 10.0125 12.1259C10.0125 14.4326 10.7404 16.9616 12.0354 19.1864C12.5821 20.1373 13.8772 21.635 15.1708 23.0715C15.4135 23.3552 15.697 23.6784 15.7585 23.7385C18.065 26.8336 17.7814 31.1032 15.07 33.8751C13.6141 35.373 11.651 36.2023 9.56667 36.2228C7.50275 36.2433 5.5412 35.4739 4.0444 34.017V33.9966L4.0239 33.9556C2.34446 32.155 1.85912 29.525 2.79023 27.2388C3.23609 26.1066 4.10576 25.2363 5.23858 24.7506C6.35096 24.2855 7.58461 24.265 8.71742 24.7097C10.3355 25.3577 11.1248 27.2183 10.4773 28.858C10.2347 29.465 10.5182 30.132 11.1248 30.3954C11.7314 30.6382 12.4199 30.3544 12.6626 29.7473C13.7954 26.9155 12.4404 23.6975 9.6076 22.5448C7.90766 21.8574 6.02646 21.8778 4.32796 22.5858C2.62802 23.3143 1.31394 24.6497 0.625459 26.3494C-0.628655 29.465 0.0393462 33.0663 2.30497 35.5149L2.3254 35.5558C2.34591 35.5763 2.36634 35.5968 2.38539 35.6362C4.32796 37.5378 6.89614 38.5705 9.6076 38.5296C12.3191 38.509 14.8667 37.4164 16.7685 35.4739C18.4684 33.7333 19.4989 31.428 19.6407 28.9999C19.7825 26.5922 19.075 24.2051 17.6586 22.283C17.5578 22.1412 17.3751 21.9393 16.9512 21.4537C16.1209 20.5234 14.5642 18.7623 14.0979 17.9329C13.006 16.0518 12.398 13.947 12.398 12.0454C12.398 6.7854 16.9907 2.51577 22.6342 2.51577C24.5359 2.51577 26.3966 3.0014 28.0147 3.9317C28.1974 4.0326 28.4196 4.094 28.6418 4.094C29.1475 4.0736 31.2115 3.6684 32.9714 3.2851C32.5066 5.0653 31.9599 7.1497 31.9189 7.5739C31.8985 7.7962 31.9394 7.9981 32.0198 8.2014C32.5855 9.4154 32.8895 10.6895 32.8895 12.0249C32.8895 13.9265 32.2829 16.0314 31.1896 17.9124C30.7042 18.7418 29.1461 20.5029 28.3173 21.4332C27.892 21.8984 27.7107 22.1207 27.6099 22.2421C26.173 24.1641 25.4655 26.5513 25.6073 28.9589C25.7491 31.3871 26.7811 33.6937 28.4796 35.4329C30.4455 37.5378 33.0751 38.569 35.7252 38.569Z" fill="#1E62F2"/>
<path d="M22.7149 21.2461C24.2716 21.2461 24.9206 20.6185 24.9206 20.2748C24.9206 19.9105 24.6371 19.8506 24.2935 19.8506H20.6729C20.309 19.8506 20.0254 19.9105 20.0254 20.2748C20.0254 20.639 20.7138 21.2461 22.2311 21.2461H22.7149Z" fill="#1E62F2"/>
<path d="M33.3287 43.75C33.9762 43.75 34.5024 43.2234 34.5024 42.5769C34.5024 41.9289 33.9762 41.4038 33.3287 41.4038C31.3466 41.4038 28.9188 40.4735 27.0171 38.9552C25.8039 38.0044 23.7809 36.0005 23.7809 33.3105C23.7809 32.6626 23.2546 32.1375 22.6072 32.1375H22.5662C21.9187 32.1375 21.3925 32.664 21.3925 33.3105C21.3925 36.0019 19.3695 38.0044 18.1563 38.9552C16.2341 40.453 13.8267 41.4038 11.8446 41.4038C11.1972 41.4038 10.6709 41.9304 10.6709 42.5769C10.6709 43.2249 11.1972 43.75 11.8446 43.75C14.3734 43.75 17.2661 42.6573 19.6136 40.8158C20.8882 39.8035 21.8997 38.6714 22.5867 37.4574C23.2751 38.6714 24.2866 39.8035 25.5597 40.8158C27.8868 42.6573 30.8 43.75 33.3287 43.75Z" fill="#1E62F2"/>
</svg>
