<svg width="32" height="32" viewBox="0 0 32 32" fill="none" xmlns="http://www.w3.org/2000/svg">
<path d="M29.76 13.189C29.376 12.229 28.8 11.397 28.032 10.693C27.328 9.98903 26.432 9.41303 25.536 8.96503C23.232 8.00503 20.672 8.13303 18.496 9.34903C17.472 9.98903 16.576 10.821 15.872 11.845C13.76 8.70903 9.72803 7.49303 6.20803 8.90103C5.24803 9.28503 4.41603 9.86103 3.71203 10.565C2.94403 11.269 2.36803 12.101 1.98403 13.061C1.60003 13.957 1.40803 14.917 1.34403 15.877L1.28003 24.133H4.03203V16.197C4.03203 15.493 4.16003 14.789 4.41603 14.149C4.67203 13.509 5.05603 12.997 5.56803 12.485C6.08003 12.037 6.59203 11.653 7.23203 11.397C7.87203 11.141 8.57603 11.013 9.28003 11.013C10.688 11.013 11.968 11.525 12.992 12.549C13.44 12.997 13.824 13.509 14.08 14.149C14.336 14.789 14.464 15.493 14.464 16.197V24.133H17.152V16.197C17.152 15.493 17.28 14.789 17.6 14.149C17.856 13.509 18.24 12.997 18.752 12.485C19.264 12.037 19.776 11.653 20.416 11.397C21.056 11.141 21.76 11.013 22.464 11.013C23.168 11.013 23.872 11.141 24.512 11.397C25.152 11.653 25.728 12.037 26.176 12.485C26.624 12.933 27.008 13.509 27.264 14.149C27.52 14.789 27.648 15.493 27.648 16.197V24.197H30.336V16.261C30.336 15.237 30.144 14.149 29.76 13.189Z" fill="black"/>
</svg>
