<svg width="32" height="32" viewBox="0 0 32 32" fill="none" xmlns="http://www.w3.org/2000/svg">
<path d="M27.7764 0L31.0244 12.0133C31.1049 12.3149 31.125 12.6293 31.0835 12.9387C31.042 13.248 30.9397 13.546 30.7826 13.8157C30.6254 14.0853 30.4165 14.3213 30.1679 14.5099C29.9192 14.6985 29.6357 14.836 29.3337 14.9147L18.9408 17.6729C17.7061 18.0018 16.9497 19.2347 17.2119 20.4596L17.9924 23.352C18.073 23.6536 18.0932 23.9683 18.0518 24.2777C18.0104 24.5872 17.9081 24.8855 17.751 25.1553C17.5939 25.4251 17.3849 25.6612 17.1362 25.8499C16.8875 26.0387 16.6039 26.1764 16.3017 26.2551L5.9097 29.016C5.60755 29.0947 5.32394 29.2324 5.07521 29.4212C4.82648 29.6099 4.61754 29.846 4.4604 30.1158C4.30327 30.3856 4.20105 30.6839 4.15962 30.9934C4.1182 31.3028 4.13839 31.6175 4.21904 31.9191L0.96926 19.8987C0.888615 19.597 0.868423 19.2824 0.909847 18.9729C0.95127 18.6634 1.05349 18.3652 1.21062 18.0954C1.36776 17.8256 1.5767 17.5895 1.82544 17.4007C2.07417 17.212 2.35777 17.0743 2.65993 16.9956L13.0528 14.2356C14.3026 13.9031 15.0599 12.6427 14.7684 11.4018L14.0013 8.56178C13.9208 8.26025 13.9007 7.94577 13.9422 7.63645C13.9837 7.32713 14.0859 7.02907 14.2431 6.75942C14.4002 6.48977 14.6091 6.25386 14.8578 6.06525C15.1064 5.87664 15.3899 5.73907 15.6919 5.66044L26.0848 2.90133C26.3869 2.8228 26.6705 2.6853 26.9193 2.49673C27.168 2.30817 27.377 2.07227 27.5342 1.80261C27.6915 1.53295 27.7938 1.23485 27.8353 0.925487C27.8769 0.616121 27.8569 0.30159 27.7764 0V0Z" fill="url(#paint0_linear_2606_7)"/>
<defs>
<linearGradient id="paint0_linear_2606_7" x1="2.45529" y1="20.389" x2="29.7905" y2="12.3067" gradientUnits="userSpaceOnUse">
<stop stop-color="#C0D653"/>
<stop offset="0.44522" stop-color="#9AB625"/>
<stop offset="0.56346" stop-color="#FF8314"/>
<stop offset="1" stop-color="#FFAC47"/>
</linearGradient>
</defs>
</svg>
