<svg xmlns="http://www.w3.org/2000/svg" width="177" height="188" viewBox="0 0 177 188"><title>marionette</title><g transform="translate(13.344)"><path fill="#939598" d="M87.743 82.508l16.89-39.95c.2-.48.76-.707 1.244-.506a.94.94 0 0 1 .51 1.233L91.502 78.487l-3.76 4.02z"/><path fill="#931A2B" d="M102.313 62.177S94.23 72.77 88.525 78.89c-5.71 6.122-14.03 15.774-14.03 15.774v21.58c.06-.004.115-.016.175-.016 1.38 0 2.498 1.105 2.498 2.47 0 1.366-1.12 2.473-2.498 2.473-.06 0-.115-.01-.175-.01v21.77s10.478-7.12 18.068-14.01c8.558-7.765 18.07-19.893 18.07-19.893l-8.32-46.842z"/><path fill="#A7A9AC" d="M68.562 22.69l-.078 8.413-30.533 12.23.54-7.475 30.08-13.17v.002z"/><path fill="#BCBEC0" d="M110.98 35.564l.595 7.472-30.687-11.984-.145-8.41 30.237 12.922zM74.64 20.03l.032 8.593-44.665-17.445.927-9.832L74.64 20.03zM30.934 1.346l-.927 9.832-5.923 3.495 1.024-9.6 5.826-3.727z"/><path fill="#A7A9AC" d="M118.147.98l1 9.826-44.475 17.817-.033-8.594L118.14.98z"/><path fill="#BCBEC0" d="M124.017 4.66l1.1 9.593-5.97-3.447-1-9.825 5.87 3.68z"/><path fill="#808285" d="M44.03 45.052l-6.08-1.718 30.534-12.23-44.4-16.43 5.923-3.496 44.665 17.445 44.476-17.817 5.968 3.447-44.228 16.8 30.687 11.983-6.065 1.768-30.81-11.4L44.03 45.05v.002z"/><path fill="#939598" d="M24.566 69.727c-.032 0-.064 0-.095-.005a.943.943 0 0 1-.85-1.03l5.45-54.31a.942.942 0 0 1 1.04-.843.94.94 0 0 1 .85 1.02l-5.44 54.31a.948.948 0 0 1-.944.85h-.002zm97.87 0a.947.947 0 0 1-.948-.885l-3.29-54.683a.945.945 0 0 1 .892-1 .94.94 0 0 1 1.008.88l3.287 54.68a.943.943 0 0 1-.89 1h-.06zM58.9 80.657l-15.745-37.12a.942.942 0 0 1 .507-1.236.957.957 0 0 1 1.246.51l17.476 41.2-3.484-3.35z"/><path fill="#A81E2C" d="M72.176 118.7c0-1.306 1.024-2.364 2.32-2.455v-21.58s-8.323-9.653-14.03-15.775c-5.706-6.12-13.79-16.713-13.79-16.713l-8.32 46.848s9.51 12.127 18.068 19.894c7.59 6.88 18.07 14 18.07 14v-21.77c-1.293-.09-2.318-1.15-2.318-2.455z"/><path fill="#939598" d="M74.67 120.11a.952.952 0 0 1-.646-.25l-32.77-30.126-.01-2.578 33.42 30.72L107.66 86.79l.133 2.472-32.468 30.588a.945.945 0 0 1-.657.262h.002z"/><path fill="#CE2227" d="M143.21 68.768l-40.896-6.59s3.804 21.657 3.804 57.91c0 36.257-4.993 60.975-4.993 60.975l41.373-4.474s5.23-19.78 5.23-53.92c-.003-34.136-4.52-53.91-4.52-53.91h.003zm-18.904 95.58a2.01 2.01 0 0 1-2.02-2c0-1.102.903-2 2.02-2a2.01 2.01 0 0 1 2.02 2c0 1.104-.902 2-2.02 2zm-81.434-44.26c0-36.254 3.804-57.91 3.804-57.91L5.78 68.768s-4.517 19.774-4.517 53.91c0 34.136 5.23 53.912 5.23 53.912l41.372 4.477c0-.005-4.993-24.72-4.993-60.98zm-18.948 44.13a1.877 1.877 0 0 1-1.885-1.868c0-1.03.84-1.867 1.88-1.867s1.88.836 1.88 1.865a1.876 1.876 0 0 1-1.885 1.866v.003z"/><ellipse fill="#A51724" cx="124.306" cy="80.657" rx="1.869" ry="1.85"/><path fill="#939598" d="M124.308 163.29a.96.96 0 0 1-.223-.028.94.94 0 0 1-.705-1.134c.03-.116 2.827-12.15 2.827-40.017 0-27.92-2.804-41.12-2.83-41.25a.952.952 0 1 1 1.86-.394c.027.13 2.872 13.535 2.872 41.653 0 28.134-2.77 39.96-2.88 40.45a.95.95 0 0 1-.93.73v-.002z"/><ellipse fill="#A51724" cx="23.924" cy="80.657" rx="2.192" ry="2.17"/><path fill="#939598" d="M23.922 163.29a.952.952 0 0 1-.94-.804c-.023-.156-2.388-16.012-2.388-40.866 0-24.855 2.365-40.94 2.388-41.1a.95.95 0 0 1 1.08-.793c.52.075.88.555.803 1.068-.025.16-2.368 16.12-2.368 40.827 0 24.717 2.345 40.435 2.367 40.586.08.51-.28.995-.8 1.072-.048.004-.096.01-.142.01z"/></g></svg>