<?xml version="1.0" encoding="UTF-8" standalone="no"?>
<!DOCTYPE svg PUBLIC "-//W3C//DTD SVG 1.1//EN" "http://www.w3.org/Graphics/SVG/1.1/DTD/svg11.dtd">
<svg width="100%" height="100%" viewBox="0 0 270 180" version="1.1" xmlns="http://www.w3.org/2000/svg" xmlns:xlink="http://www.w3.org/1999/xlink" xml:space="preserve" xmlns:serif="http://www.serif.com/" style="fill-rule:evenodd;clip-rule:evenodd;stroke-linejoin:round;stroke-miterlimit:1.41421;">
    <g transform="matrix(1.5,0,0,1.5,0,0)">
        <g id="g3392" transform="matrix(1,0,0,1,-252.947,-292.656)">
            <path id="path9" d="M428.822,292.659C426.043,292.748 426.922,293.549 420.917,295.027C414.853,296.519 407.445,296.061 400.915,298.8C381.422,306.975 377.511,334.916 359.79,344.925C346.544,352.407 333.18,353.004 321.165,356.769C313.269,359.245 304.632,364.322 297.478,370.487C291.925,375.274 291.78,379.483 285.978,385.487C279.772,391.909 261.313,385.596 252.947,395.425C255.642,398.15 256.823,398.913 262.134,398.206C261.035,400.29 254.553,402.047 255.822,405.112C257.157,408.338 272.827,410.525 287.072,401.925C293.706,397.92 298.99,392.147 309.322,390.769C322.692,388.987 338.094,391.912 353.572,394.144C351.277,400.987 346.669,405.537 342.978,410.987C341.835,412.218 345.274,412.356 349.197,411.612C356.254,409.867 361.339,408.462 366.665,405.362C373.208,401.553 374.2,391.788 382.228,389.675C386.701,396.55 398.866,398.174 406.415,392.675C399.791,390.8 397.961,376.7 400.197,370.487C402.315,364.606 404.407,355.199 406.54,347.425C408.83,339.076 409.675,328.553 412.447,324.3C416.616,317.901 421.224,315.704 425.224,312.096C429.224,308.488 432.885,304.976 432.765,296.72C432.726,294.061 431.351,292.578 428.822,292.659Z" style="fill:rgb(0,43,100);"/>
            <path id="path3352" d="M258.701,404.524C268.845,405.977 275.014,404.524 283.16,400.991C290.091,397.985 296.785,391.788 304.97,389.161C316.991,385.304 330.173,389.166 343.023,389.936C346.152,390.124 349.261,390.126 352.33,389.792C357.117,386.85 357.018,375.845 361.677,374.837C361.54,390.277 355.21,399.528 348.59,408.486C362.542,406.022 370.891,397.952 376.53,387.174C378.241,383.906 379.702,380.39 380.994,376.705C382.991,378.238 381.859,382.902 382.863,385.429C392.473,380.076 397.976,367.859 401.62,355.503C405.836,341.203 407.562,326.723 410.281,322.492C412.935,318.362 417.065,315.816 420.835,313.172C425.119,310.166 428.94,307.033 429.6,301.305C425.082,300.887 424.037,299.842 423.369,297.565C421.107,298.84 419.027,299.113 416.677,299.183C414.638,299.245 412.398,299.154 409.662,299.435C387.035,301.759 384.16,326.698 369.657,340.836C368.602,341.864 367.461,342.823 366.255,343.723C361.176,347.508 354.945,350.213 349.215,352.403C339.94,355.947 331.122,356.199 322.42,359.258C316.032,361.503 309.541,364.76 304.294,368.351C302.982,369.248 301.746,370.167 300.609,371.097C297.53,373.616 295.509,376.411 293.554,379.286C291.538,382.249 289.591,385.297 286.623,388.209C281.815,392.93 263.849,389.586 257.524,393.964C256.819,394.451 256.259,395.036 255.878,395.738C259.329,397.306 261.634,396.344 265.604,396.783C266.125,400.55 257.413,402.789 258.701,404.524Z" style="fill:rgb(196,154,108);fill-rule:nonzero;"/>
            <path id="path3873" d="M395.785,377.384C396.055,381.706 398.564,390.281 400.779,392.365C396.441,393.42 388.968,391.677 387.051,388.617C388.036,384.199 393.162,380.16 395.785,377.384Z" style="fill:rgb(196,154,108);"/>
            <path id="path3880" d="M402.14,308.792C405.343,311.573 412.064,309.341 410.863,303.808C405.886,303.396 403.003,305.085 402.14,308.792Z" style="fill:rgb(0,43,100);"/>
            <path id="path3882" d="M424.471,302.326C423.619,304.113 421.988,306.417 421.988,310.966C421.981,311.747 421.395,312.282 421.385,311.078C421.429,306.632 422.606,304.71 423.856,302.184C424.437,301.149 424.787,301.576 424.471,302.326Z" style="fill:rgb(0,43,100);fill-rule:nonzero;"/>
            <path id="path3884" d="M423.613,301.653C422.608,303.358 420.188,306.468 419.788,311C419.714,311.777 419.082,312.258 419.178,311.057C419.614,306.633 421.548,303.864 423.016,301.457C423.682,300.478 423.995,300.934 423.613,301.653Z" style="fill:rgb(0,43,100);fill-rule:nonzero;"/>
            <path id="path3886" d="M422.831,300.761C421.686,302.375 417.961,306.11 417.182,310.593C417.042,311.36 416.372,311.788 416.569,310.599C417.375,306.226 420.586,302.789 422.251,300.516C422.997,299.595 423.27,300.076 422.831,300.761Z" style="fill:rgb(0,43,100);fill-rule:nonzero;"/>
            <path id="path3888" d="M422.133,299.766C420.773,301.203 416.332,305.966 414.932,310.294C414.684,311.034 413.961,311.364 414.324,310.214C415.736,305.998 419.625,301.457 421.593,299.441C422.462,298.634 422.664,299.149 422.133,299.766Z" style="fill:rgb(0,43,100);fill-rule:nonzero;"/>
        </g>
    </g>
</svg>
