<svg width="32" height="32" viewBox="0 0 32 32" fill="none" xmlns="http://www.w3.org/2000/svg">
<path fill-rule="evenodd" clip-rule="evenodd" d="M1.38046 15.3846C1.67376 13.1644 2.03358 11.0099 2.45991 8.92135C2.91983 6.66818 5.02564 4.9231 7.28468 4.9231H28.1879C30.3302 4.92309 31.939 6.49734 31.9636 8.61782C31.9887 10.7723 31.8185 13.233 31.453 16C31.1001 18.6715 30.6276 21.1388 30.0354 23.4019C29.3932 25.8557 27.0607 27.6923 24.5863 27.6923H4.93105C2.33215 27.6923 0.447769 25.6722 0.6272 23.0784C0.820037 20.2908 1.07112 17.7262 1.38046 15.3846ZM20.5971 9.09561C20.1185 8.61493 19.3433 8.61002 18.8612 9.08717C16.4557 11.4678 9.86683 17.9883 9.47545 18.3692C8.74031 19.2268 7.89563 22.0308 7.89563 22.0308C7.85569 22.2867 7.82948 22.6169 7.93563 22.8552C7.99668 23.0008 8.11292 23.1233 8.27022 23.1884C8.55459 23.3063 9.12708 23.4684 10.034 23.6256C11.5087 23.8813 13.4109 24.0338 15.7876 24.0338C18.1642 24.0338 20.0665 23.8813 21.5412 23.6256C22.4481 23.4684 23.0206 23.3063 23.3049 23.1884C23.6214 23.0573 23.7717 22.6945 23.6406 22.378C23.5094 22.0615 23.1465 21.9112 22.83 22.0424C22.7924 22.0579 22.689 22.0937 22.5138 22.1433C22.2047 22.2308 21.8118 22.3196 21.3292 22.4033C19.9271 22.6464 18.0954 22.7932 15.7876 22.7932C13.9136 22.7932 12.3537 22.6964 11.0826 22.5298C11.6199 22.298 12.1743 21.9702 12.6351 21.5077C13.77 20.3689 19.7117 14.4577 21.9682 12.213C22.4503 11.7334 22.4497 10.9563 21.97 10.4744L20.5971 9.09561ZM9.74658 20.5759C9.47077 21.0372 9.91957 21.4466 10.3828 21.1739C10.9948 20.8136 11.6898 20.359 12.1086 19.9385C12.8409 19.2032 17.1234 14.9547 18.5167 13.5727C18.7593 13.3321 18.757 12.9423 18.5146 12.7016L18.3338 12.522C18.0943 12.284 17.7106 12.2808 17.4705 12.5182C16.1663 13.8077 12.2754 17.6572 11.0553 18.8923C10.4665 19.4884 10.0429 20.0801 9.74658 20.5759ZM18.8675 12.0059C18.6252 11.7652 18.6252 11.3733 18.8675 11.1326L19.5741 10.4308C19.8141 10.1924 20.2015 10.1924 20.4415 10.4308L20.6215 10.6096C20.8638 10.8502 20.8638 11.2421 20.6215 11.4828L19.9148 12.1846C19.6748 12.423 19.2874 12.423 19.0475 12.1846L18.8675 12.0059Z" fill="#2C2E31"/>
</svg>
