<svg width="1001" height="1001" viewBox="0 0 1001 1001" fill="none" xmlns="http://www.w3.org/2000/svg">
<g clip-path="url(#clip0)">
<path d="M635.199 257.095H364.81V742.936H635.199V257.095Z" fill="#FF5F00"/>
<path d="M381.977 500.015C381.977 401.302 428.33 313.748 499.575 257.095C447.214 215.893 381.119 191 309.015 191C138.199 191 0 329.199 0 500.015C0 670.832 138.199 809.031 309.015 809.031C381.119 809.031 447.214 784.138 499.575 742.936C428.33 687.142 381.977 598.729 381.977 500.015Z" fill="#EB001B"/>
<path d="M1000.01 500.015C1000.01 670.832 861.81 809.031 690.993 809.031C618.889 809.031 552.794 784.138 500.433 742.936C572.537 686.283 618.031 598.729 618.031 500.015C618.031 401.302 571.679 313.748 500.433 257.095C552.794 215.893 618.889 191 690.993 191C861.81 191 1000.01 330.057 1000.01 500.015Z" fill="#F79E1B"/>
</g>
<defs>
<clipPath id="clip0">
<rect width="1000.01" height="1000.01" fill="white"/>
</clipPath>
</defs>
</svg>
