<?xml version="1.0" encoding="utf-8"?>
<!-- Generator: Adobe Illustrator 16.0.4, SVG Export Plug-In . SVG Version: 6.00 Build 0)  -->
<!DOCTYPE svg PUBLIC "-//W3C//DTD SVG 1.1//EN" "http://www.w3.org/Graphics/SVG/1.1/DTD/svg11.dtd">
<svg version="1.1" id="Layer_1" xmlns="http://www.w3.org/2000/svg" xmlns:xlink="http://www.w3.org/1999/xlink" x="0px" y="0px"
	 width="468px" height="468px" viewBox="0 0 468 468" enable-background="new 0 0 468 468" xml:space="preserve">
<g>
	<path fill="#4F5F9F" d="M234.342,432.312c-108.93,0-197.531-88.61-197.531-197.521c0-108.903,88.601-197.504,197.531-197.504
		c26.302,0,51.865,5.092,75.959,15.138c6.81,2.835,10.019,10.666,7.184,17.476c-2.836,6.814-10.657,10.023-17.477,7.192
		c-20.812-8.674-42.91-13.073-65.667-13.073c-94.198,0-170.802,76.6-170.802,170.771c0,94.169,76.604,170.791,170.802,170.791
		c94.165,0,170.777-76.622,170.777-170.791c0-20.188-3.482-39.938-10.347-58.708c-2.543-6.933,1.021-14.6,7.949-17.139
		c6.938-2.539,14.604,1.021,17.148,7.945c7.949,21.724,11.979,44.574,11.979,67.902
		C431.849,343.702,343.248,432.312,234.342,432.312"/>
	<polygon fill="#FDB931" points="320.748,214.559 289.981,246.477 307.074,317.857 345.654,317.857 	"/>
	<polygon fill="#FDB931" points="308.195,120.114 318.834,130.744 234.096,220.261 161.959,145.872 120.489,317.857 159.06,317.857 
		181.942,222.344 234.096,279.368 345.919,157.632 356.621,168.407 367.232,108.231 	"/>
</g>
</svg>
