<svg width="32" height="32" viewBox="0 0 32 32" fill="none" xmlns="http://www.w3.org/2000/svg">
<path d="M30.3201 7.16827C30.3521 7.61627 30.3201 7.98427 30.2241 8.25627L24.4801 27.2003C24.3841 27.5363 24.1601 27.7923 23.8081 28.0003C23.4561 28.1923 23.1041 28.3043 22.7361 28.3043H5.02407C3.48807 28.3043 2.57607 27.8563 2.25607 26.9603C2.12807 26.6083 2.12807 26.3363 2.27207 26.1283C2.41607 25.9363 2.65607 25.8403 3.00807 25.8403H19.6801C20.8641 25.8403 21.6961 25.6163 22.1441 25.1843C22.5921 24.7523 23.0561 23.7603 23.5201 22.2403L28.7841 4.86427C29.0721 3.92027 28.9441 3.08827 28.4321 2.36827C27.9201 1.64827 27.1841 1.28027 26.2401 1.28027H11.6321C11.4721 1.28027 11.1361 1.34427 10.6561 1.45627L10.6721 1.39227C10.3201 1.31227 10.0161 1.28027 9.76007 1.29627C9.50407 1.31227 9.28007 1.37627 9.07207 1.52027C8.86407 1.66427 8.68807 1.80827 8.56007 1.96827C8.43207 2.12827 8.32007 2.32027 8.19207 2.57627C8.06407 2.83227 7.96807 3.05627 7.88807 3.26427C7.80807 3.47227 7.71207 3.69627 7.60007 3.93627C7.48807 4.17627 7.39207 4.36827 7.28007 4.52827C7.20007 4.62427 7.08807 4.76827 6.96007 4.92827C6.83207 5.08827 6.70407 5.24827 6.60807 5.37627C6.51207 5.50427 6.46407 5.61627 6.43207 5.72827C6.40007 5.84027 6.41607 6.01627 6.46407 6.24027C6.51207 6.46427 6.52807 6.62427 6.52807 6.73627C6.48007 7.21627 6.30407 7.84027 6.00007 8.59227C5.69607 9.34427 5.42407 9.88827 5.18407 10.2083C5.13607 10.2723 4.99207 10.4163 4.76807 10.6403C4.54407 10.8643 4.40007 11.0563 4.35207 11.2323C4.30407 11.2963 4.30407 11.4723 4.33607 11.7763C4.38407 12.0643 4.40007 12.2723 4.38407 12.3843C4.33607 12.8163 4.17607 13.3923 3.90407 14.1123C3.63207 14.8323 3.36007 15.4243 3.10407 15.8723C3.07207 15.9523 2.96007 16.0963 2.78407 16.3203C2.60807 16.5443 2.49607 16.7203 2.46407 16.8643C2.43207 16.9603 2.44807 17.1523 2.48007 17.4083C2.51207 17.6643 2.51207 17.8563 2.46407 17.9843C2.36807 18.4643 2.17607 19.0563 1.88807 19.7443C1.60007 20.4323 1.31207 21.0083 1.02407 21.5043C0.944073 21.6323 0.848073 21.7763 0.704073 21.9523C0.576073 22.1283 0.464073 22.2723 0.384073 22.4003C0.304073 22.5283 0.256073 22.6563 0.224073 22.8003C0.208073 22.8803 0.224073 23.0083 0.288073 23.1683C0.336073 23.3443 0.352073 23.4723 0.352073 23.5843C0.336073 23.7603 0.320073 24.0003 0.272073 24.2883C0.240073 24.5763 0.208073 24.7523 0.208073 24.8003C-0.0799262 25.5683 -0.0639261 26.3843 0.240073 27.2323C0.592073 28.2243 1.23207 29.0723 2.14407 29.7603C3.05607 30.4483 4.01607 30.7843 4.99207 30.7843H22.7041C23.5361 30.7843 24.3201 30.5123 25.0561 29.9523C25.7921 29.3923 26.2881 28.7043 26.5281 27.8883L31.8081 10.5123C32.0961 9.58427 31.9681 8.76827 31.4561 8.03227C31.1841 7.63227 30.8161 7.36027 30.3201 7.16827ZM9.53607 20.9283L11.8081 14.0803C11.8081 14.0803 12.9281 14.0803 13.5361 14.0803C14.1441 14.0803 18.1441 13.8083 17.6001 16.8803C17.0561 19.9523 14.5921 20.9123 11.7121 20.9443C8.83207 20.9763 9.53607 20.9283 9.53607 20.9283ZM12.5761 19.9683C13.3281 19.9523 15.6001 19.5043 16.1121 17.2323C16.6241 14.9603 14.2721 15.0883 14.2721 15.0883H12.8481L11.2161 19.9683C11.2321 19.9843 11.8401 19.9843 12.5761 19.9683ZM12.0481 12.2723L14.2401 5.47227H15.8081L15.9361 10.9123L19.7121 5.47227H21.2961L19.1201 12.2723H17.9841L19.9841 6.60827L16.0641 12.2723H14.9761L14.8481 6.67227L13.1201 12.2723H12.0481Z" fill="black"/>
</svg>
