<svg width="32" height="32" viewBox="0 0 32 32" fill="none" xmlns="http://www.w3.org/2000/svg">
<path fill-rule="evenodd" clip-rule="evenodd" d="M3.56338 2.175C3.60444 1.36102 4.28073 0.71106 5.11713 0.71106C5.22473 0.71106 5.32558 0.723362 5.42382 0.741302C5.42746 0.741815 5.43162 0.742327 5.43681 0.743865C6.31064 0.911993 6.77536 1.72341 6.77536 1.72393H6.77588V24.0659H3.5561V2.17705L3.56338 2.175ZM7.21713 24.0667V2.17729L10.4374 5.4691V24.0667H7.21713ZM7.21717 24.5027H10.4375V27.6777H7.21717V24.5027ZM14.5413 17.8579V9.66381L16.1507 11.3092L17.7616 9.6643V17.8579L16.1507 19.5034L14.5413 17.8579ZM10.8793 14.1146V5.91986L14.1001 9.21118V17.4053H14.0996L10.8793 14.1146ZM3.55554 24.5027H6.77532V27.6777H3.55554V24.5027ZM3.55554 28.1134H6.77532V31.2883L6.77168 31.2888H3.55554V28.1134ZM25.5276 24.5027H28.7469L28.7474 24.5063V27.6777H25.5276V24.5027ZM26.8803 0.741302C26.978 0.723362 27.0788 0.71106 27.1864 0.71106C28.0223 0.71106 28.7069 1.36255 28.7469 2.17705V24.0659H25.5277V1.72393C25.5277 1.72341 25.9934 0.911993 26.8673 0.743865C26.8714 0.742327 26.875 0.741815 26.8803 0.741302ZM25.5276 28.1134H28.7469L28.7474 28.1179V31.2883L28.7432 31.2888H25.5276V28.1134ZM18.2033 9.21118L21.4236 5.91986V14.1146L18.2033 17.4059V9.21118ZM21.8647 24.5027H25.0845L25.0851 24.5063V27.6777H21.8647V24.5027ZM21.8647 5.4688L25.0845 2.17748L25.085 2.18056V24.0664H21.8647V5.4688Z" fill="url(#paint0_linear_2988_54)"/>
<defs>
<linearGradient id="paint0_linear_2988_54" x1="16.1515" y1="0.71106" x2="16.1515" y2="31.2888" gradientUnits="userSpaceOnUse">
<stop stop-color="#F6A74B"/>
<stop offset="1" stop-color="#C74430"/>
</linearGradient>
</defs>
</svg>
