<svg width="32" height="32" viewBox="0 0 32 32" fill="none" xmlns="http://www.w3.org/2000/svg">
<path fill-rule="evenodd" clip-rule="evenodd" d="M0.84547 8.76296L0.842102 10.4918L3.7301 10.4969L3.73642 10.6893C3.74652 11.0851 3.74905 11.5613 3.74821 12.1158L3.736 18.944C3.73654 19.3639 3.73092 19.7837 3.71915 20.2034C3.70726 20.5624 3.68705 20.9211 3.65852 21.2792C3.63242 21.6194 3.59958 21.955 3.55537 22.291L8.06905 22.2994C8.02816 21.9529 7.99503 21.6056 7.96968 21.2577C7.94442 20.9209 7.92336 20.5701 7.91284 20.1967C7.90231 19.8265 7.89979 19.4135 7.90021 18.9516L7.90863 14.4733C8.22021 13.7162 8.62021 13.1335 9.10189 12.7234C9.58231 12.315 10.1225 12.1086 10.7175 12.1061C10.9844 12.107 11.2173 12.155 11.4261 12.2518C11.6345 12.3474 11.7983 12.4851 11.9225 12.6623C12.0168 12.7844 12.0888 12.9213 12.144 13.0729C12.1987 13.2211 12.2383 13.4025 12.2602 13.6127C12.2813 13.8236 12.2926 14.0859 12.2918 14.392L12.2842 18.9592C12.2841 19.3841 12.2785 19.809 12.2674 20.2337C12.2557 20.5926 12.2354 20.9512 12.2063 21.3091C12.1802 21.6459 12.1474 21.9773 12.1023 22.3061L16.6606 22.3145C16.5768 21.6141 16.5247 20.9102 16.5044 20.2051C16.4941 19.7998 16.4899 19.3944 16.4918 18.9891L16.5002 14.4661C16.6867 13.9676 16.9133 13.5432 17.1882 13.192C17.4627 12.8383 17.7705 12.5689 18.1103 12.3811C18.4354 12.1955 18.8034 12.0982 19.1777 12.099C19.5928 12.096 19.9259 12.1739 20.1815 12.3297C20.4362 12.4813 20.6185 12.7289 20.7347 13.0699C20.8518 13.4101 20.9048 13.8569 20.904 14.4072L20.8956 18.9743C20.8956 19.4695 20.8914 19.9049 20.8792 20.2792C20.8669 20.656 20.8455 21.0034 20.8189 21.3242C20.7926 21.6575 20.7582 21.9901 20.7158 22.3217L25.2737 22.3301C25.2315 21.991 25.1978 21.6508 25.1726 21.3099C25.1459 20.9556 25.1272 20.6007 25.1166 20.2455C25.1066 19.832 25.1025 19.4183 25.1044 19.0046L25.1141 13.5061C25.1175 11.8286 24.7208 10.5642 23.9297 9.70949C23.1381 8.85475 21.9558 8.42696 20.3886 8.42107C19.7566 8.41981 19.176 8.48423 18.6497 8.61728C18.1234 8.74907 17.6265 8.95833 17.1592 9.24254C16.6901 9.52549 16.2328 9.89096 15.7832 10.3411C15.7029 10.1792 15.6129 10.0222 15.5137 9.87117C15.4304 9.74618 15.3353 9.62956 15.2295 9.52296C15.124 9.41581 15.0093 9.31817 14.8867 9.23117C14.5263 8.96465 14.1095 8.76381 13.6421 8.63033C13.1714 8.49602 12.6535 8.42823 12.0825 8.42739C11.221 8.42275 10.4463 8.56886 9.75873 8.86696C9.08084 9.15749 8.4661 9.60633 7.91579 10.2135L7.91705 9.78823V9.7756V9.70612L7.91873 8.77475L3.57894 8.76717V8.76802L0.845049 8.76296H0.84547Z" fill="#111111"/>
<path fill-rule="evenodd" clip-rule="evenodd" d="M28.2051 23.296C29.8282 23.299 31.1549 21.9781 31.1579 20.355C31.1604 18.7318 29.8387 17.4042 28.2156 17.4013C26.5916 17.3983 25.2661 18.7213 25.2632 20.3444C25.2602 21.9676 26.5811 23.2931 28.2051 23.296Z" fill="#E94555"/>
</svg>
