<svg width="32" height="32" viewBox="0 0 32 32" fill="none" xmlns="http://www.w3.org/2000/svg">
<path d="M22.6586 14.4057L22.4557 14.0037C22.4015 13.8953 21.1448 11.3621 22.1347 9.36884C23.1246 7.37555 25.9014 6.84188 26.0196 6.82175L26.4625 6.74072L26.6653 7.14278C26.719 7.25065 27.9763 9.78433 26.9858 11.7776C26 13.7673 23.2191 14.3046 23.1009 14.3247L22.6586 14.4057ZM25.7801 8.1193C25.0705 8.33194 23.7326 8.8553 23.2124 9.90252C22.7226 10.8888 23.0472 12.2437 23.3409 13.0241C24.0501 12.8114 25.3915 12.2876 25.9117 11.2403C26.432 10.1931 26.0403 8.81452 25.7801 8.11878V8.1193ZM6 12.5916C5.84826 9.37917 3.23355 6.81813 0 6.7371V19.0308H0.00670968C0.158968 22.2437 2.77368 24.8078 6.00361 24.8852V12.5916H6ZM13.0539 12.5916C12.9017 9.37917 10.2875 6.81813 7.05755 6.7371V19.0308H7.06426C7.216 22.2437 9.83071 24.8078 13.0606 24.8852V12.5916H13.0539V12.5916ZM20.1074 12.5916C19.9597 9.37917 17.345 6.81813 14.112 6.7371V19.0308H14.1187C14.2705 22.2437 16.8852 24.8078 20.1151 24.8852V12.5916H20.1084H20.1074ZM28.4759 8.30459C28.4754 8.09502 28.5163 7.88741 28.5963 7.6937C28.6763 7.49999 28.7937 7.32399 28.9419 7.1758C29.0901 7.02761 29.2661 6.91016 29.4598 6.83018C29.6535 6.7502 29.8611 6.70927 30.0707 6.70975C30.2805 6.70844 30.4884 6.74881 30.6825 6.8285C30.8765 6.9082 31.0528 7.02563 31.2012 7.17399C31.3495 7.32235 31.4668 7.49869 31.5465 7.69277C31.6261 7.88685 31.6664 8.09481 31.665 8.30459C31.6659 8.51425 31.6252 8.72201 31.5453 8.91587C31.4654 9.10974 31.348 9.28588 31.1997 9.43413C31.0515 9.58239 30.8753 9.69984 30.6815 9.77969C30.4876 9.85955 30.2799 9.90024 30.0702 9.89943C29.6473 9.89929 29.2418 9.7312 28.9428 9.43213C28.6438 9.13305 28.4759 8.72747 28.4759 8.30459V8.30459ZM28.6952 8.30459C28.6952 9.05813 29.3135 9.68265 30.0738 9.68265C30.8341 9.68265 31.4452 9.05813 31.4452 8.30459C31.4463 8.12434 31.4116 7.94566 31.3431 7.77895C31.2745 7.61225 31.1735 7.46084 31.0459 7.33355C30.9183 7.20627 30.7666 7.10564 30.5997 7.03753C30.4328 6.96942 30.254 6.9352 30.0738 6.93684C29.3099 6.93684 28.6957 7.53762 28.6957 8.30459H28.6952ZM30.033 8.50072H29.7022V9.2233H29.4622V7.3931H30.209C30.5265 7.3931 30.7902 7.61246 30.7902 7.95052C30.7902 8.35568 30.4289 8.49091 30.3236 8.49091L30.8139 9.22072H30.513L30.033 8.50123V8.50072ZM29.7022 7.61194V8.27413H30.2054C30.2485 8.27461 30.2912 8.26661 30.3311 8.25057C30.3711 8.23454 30.4075 8.2108 30.4382 8.1807C30.469 8.1506 30.4935 8.11474 30.5104 8.07516C30.5274 8.03557 30.5363 7.99305 30.5368 7.95001C30.5377 7.90591 30.5299 7.86207 30.5136 7.82106C30.4974 7.78005 30.4732 7.74269 30.4423 7.7112C30.4114 7.6797 30.3746 7.65469 30.3339 7.63765C30.2932 7.6206 30.2495 7.61186 30.2054 7.61194H29.7022V7.61194Z" fill="#28A4A8"/>
</svg>
