<svg width="221" height="222" viewBox="0 0 221 222" fill="none" xmlns="http://www.w3.org/2000/svg">
<path opacity="0.65" d="M79.283 29.02C78.636 37.266 79.928 45.07 84.443 52.12C87.4797 56.8036 92.1133 60.2255 97.483 61.75C98.3059 61.9193 99.1561 61.9037 99.9722 61.7043C100.788 61.5049 101.55 61.1267 102.202 60.597C108.295 54.797 111.233 47.707 110.202 38.972C108.373 23.45 99.142 12.864 87.394 2.772C82.826 11.538 80 19.917 79.283 29.02Z" fill="url(#paint0_linear)"/>
<path opacity="0.65" d="M62.913 37.254C63.994 45.454 66.881 52.819 72.762 58.773C76.7059 62.7231 81.9497 65.1071 87.519 65.482C88.359 65.4764 89.1874 65.2843 89.9441 64.9196C90.7009 64.5548 91.3672 64.0266 91.895 63.373C96.649 56.429 98.049 48.887 95.226 40.557C90.21 25.757 78.98 17.319 65.39 9.88898C62.743 19.417 61.719 28.2 62.913 37.254Z" fill="url(#paint1_linear)"/>
<path opacity="0.65" d="M48.611 48.711C51.373 56.511 55.728 63.111 62.719 67.711C67.3982 70.7548 73.0233 71.9964 78.549 71.205C79.3696 71.0248 80.1399 70.6647 80.8043 70.1505C81.4688 69.6364 82.0107 68.9811 82.391 68.232C85.597 60.452 85.398 52.783 80.905 45.222C72.921 31.786 60.183 25.87 45.345 21.429C44.737 31.3 45.561 40.1 48.611 48.711Z" fill="url(#paint2_linear)"/>
<path opacity="0.65" d="M37 62.891C41.323 69.943 46.955 75.496 54.75 78.544C59.9597 80.5482 65.7198 80.593 70.96 78.67C71.7253 78.3233 72.404 77.8108 72.947 77.1698C73.4901 76.5287 73.8839 75.7749 74.1 74.963C75.619 66.686 73.83 59.226 67.863 52.763C57.263 41.28 43.57 38.142 28.133 36.882C29.595 46.666 32.232 55.107 37 62.891Z" fill="url(#paint3_linear)"/>
<path opacity="0.65" d="M28.6 79.174C34.294 85.174 40.958 89.434 49.217 90.794C54.7298 91.672 60.3738 90.5185 65.1 87.548C65.7763 87.0495 66.3335 86.4071 66.7312 85.6671C67.129 84.9271 67.3574 84.108 67.4 83.269C67.165 74.857 63.864 67.932 56.684 62.853C43.925 53.825 29.884 53.602 14.52 55.579C17.979 64.844 22.313 72.552 28.6 79.174Z" fill="url(#paint4_linear)"/>
<path opacity="0.65" d="M23.764 96.849C30.581 101.533 37.986 104.316 46.346 103.929C51.9206 103.642 57.2012 101.34 61.206 97.451C61.7639 96.823 62.1753 96.0789 62.4105 95.2725C62.6457 94.4661 62.6988 93.6175 62.566 92.788C60.587 84.609 55.919 78.522 47.839 75.046C33.483 68.868 19.7 71.57 5.086 76.7C10.4 85.041 16.238 91.679 23.764 96.849Z" fill="url(#paint5_linear)"/>
<path opacity="0.65" d="M22.709 115.144C30.351 118.308 38.172 119.49 46.27 117.374C51.6629 115.933 56.3495 112.584 59.459 107.948C59.8742 107.218 60.122 106.404 60.1844 105.567C60.2468 104.729 60.1224 103.888 59.82 103.104C56.184 95.515 50.352 90.531 41.726 88.811C26.398 85.753 13.478 91.261 0.249023 99.311C7.17802 106.373 14.273 111.651 22.709 115.144Z" fill="url(#paint6_linear)"/>
<path opacity="0.65" d="M25.481 133.257C33.614 134.763 41.51 134.294 48.99 130.54C53.9656 128.01 57.8534 123.759 59.931 118.578C60.1853 117.777 60.2586 116.93 60.1455 116.098C60.0324 115.266 59.7357 114.469 59.277 113.765C54.142 107.098 47.401 103.435 38.607 103.546C22.978 103.746 11.486 111.816 0.221008 122.446C8.46501 127.907 16.5 131.6 25.481 133.257Z" fill="url(#paint7_linear)"/>
<path opacity="0.65" d="M31.958 150.4C40.226 150.182 47.852 148.081 54.389 142.854C58.7287 139.344 61.6465 134.378 62.6 128.878C62.6824 128.042 62.578 127.198 62.2944 126.408C62.0107 125.617 61.555 124.899 60.96 124.306C54.551 118.852 47.196 116.671 38.617 118.606C23.374 122.049 13.811 132.336 5 145.075C14.2 148.7 22.83 150.64 31.958 150.4Z" fill="url(#paint8_linear)"/>
<path opacity="0.65" d="M41.857 165.82C49.899 163.887 56.922 160.247 62.229 153.775C65.7444 149.44 67.567 143.977 67.358 138.4C67.2646 137.565 66.9869 136.762 66.5451 136.047C66.1032 135.333 65.5082 134.725 64.803 134.269C57.403 130.269 49.753 129.663 41.764 133.341C27.564 139.877 20.351 151.927 14.383 166.219C24.137 167.853 32.979 167.953 41.857 165.82Z" fill="url(#paint9_linear)"/>
<path opacity="0.65" d="M54.747 178.845C62.212 175.283 68.324 170.262 72.169 162.828C74.707 157.856 75.3537 152.132 73.989 146.72C73.7242 145.923 73.2856 145.194 72.7048 144.587C72.1241 143.98 71.4157 143.51 70.631 143.21C62.558 140.835 54.952 141.834 47.903 147.093C35.374 156.437 30.823 169.724 27.956 184.945C37.836 184.518 46.506 182.778 54.747 178.845Z" fill="url(#paint10_linear)"/>
<path opacity="0.65" d="M70.062 188.906C76.623 183.87 81.562 177.687 83.774 169.617C85.2227 164.226 84.6652 158.493 82.205 153.482C81.7803 152.757 81.1999 152.136 80.5057 151.663C79.8115 151.19 79.0209 150.877 78.191 150.747C69.8 150.102 62.568 152.661 56.766 159.27C46.454 171.016 44.766 184.959 45.125 200.443C54.7 197.971 62.82 194.466 70.062 188.906Z" fill="url(#paint11_linear)"/>
<path opacity="0.65" d="M87.135 195.562C92.506 189.272 96.047 182.199 96.535 173.844C96.8317 168.27 95.094 162.777 91.645 158.388C91.0785 157.767 90.3808 157.279 89.6024 156.961C88.8241 156.643 87.9846 156.502 87.145 156.548C78.804 157.661 72.262 161.667 67.961 169.339C60.317 182.972 61.561 196.961 65.135 212.032C73.994 207.623 81.207 202.507 87.135 195.562Z" fill="url(#paint12_linear)"/>
<path opacity="0.65" d="M105.219 198.524C109.164 191.254 111.158 183.6 109.899 175.324C109.029 169.81 106.186 164.8 101.899 161.224C101.216 160.735 100.433 160.403 99.6064 160.254C98.7797 160.104 97.9302 160.139 97.119 160.358C89.192 163.181 83.625 168.458 81.013 176.858C76.37 191.782 80.497 205.207 87.125 219.206C94.872 213.053 100.864 206.549 105.219 198.524Z" fill="url(#paint13_linear)"/>
<path opacity="0.65" d="M123.523 197.661C125.871 189.73 126.229 181.828 123.278 173.996C121.281 168.783 117.46 164.473 112.525 161.865C111.755 161.528 110.921 161.367 110.081 161.392C109.241 161.418 108.418 161.629 107.67 162.012C100.503 166.422 96.156 172.743 95.347 181.501C93.908 197.064 100.736 209.338 110.13 221.653C116.424 214.024 120.932 206.416 123.523 197.661Z" fill="url(#paint14_linear)"/>
<path opacity="0.65" d="M141.248 193.011C141.896 184.765 140.603 176.962 136.088 169.911C133.052 165.227 128.418 161.804 123.048 160.28C122.225 160.111 121.375 160.126 120.559 160.326C119.743 160.526 118.981 160.904 118.329 161.434C112.236 167.234 109.298 174.324 110.329 183.058C112.158 198.581 121.389 209.166 133.137 219.258C137.706 210.493 140.534 202.114 141.248 193.011Z" fill="url(#paint15_linear)"/>
<path opacity="0.65" d="M157.619 184.778C156.538 176.578 153.651 169.213 147.77 163.259C143.826 159.309 138.582 156.925 133.012 156.55C132.172 156.555 131.344 156.747 130.587 157.112C129.831 157.477 129.164 158.005 128.637 158.659C123.883 165.603 122.482 173.145 125.306 181.475C130.321 196.275 141.551 204.713 155.141 212.143C157.789 202.614 158.813 193.83 157.619 184.778Z" fill="url(#paint16_linear)"/>
<path opacity="0.65" d="M171.92 173.321C169.158 165.521 164.803 158.921 157.812 154.321C153.133 151.277 147.508 150.036 141.982 150.827C141.162 151.007 140.391 151.367 139.727 151.881C139.063 152.395 138.521 153.05 138.141 153.799C134.934 161.58 135.133 169.249 139.626 176.809C147.61 190.246 160.349 196.162 175.186 200.609C175.794 190.732 174.97 181.927 171.92 173.321Z" fill="url(#paint17_linear)"/>
<path opacity="0.65" d="M183.527 159.14C179.204 152.089 173.571 146.54 165.776 143.488C160.566 141.483 154.806 141.438 149.566 143.361C148.801 143.708 148.122 144.22 147.58 144.861C147.037 145.503 146.643 146.256 146.427 147.068C144.908 155.345 146.697 162.805 152.664 169.268C163.264 180.751 176.957 183.89 192.394 185.149C190.936 175.366 188.3 166.925 183.527 159.14Z" fill="url(#paint18_linear)"/>
<path opacity="0.65" d="M191.931 142.857C186.237 136.857 179.573 132.597 171.315 131.237C165.802 130.359 160.158 131.513 155.432 134.484C154.756 134.982 154.198 135.624 153.801 136.364C153.403 137.104 153.174 137.923 153.132 138.762C153.368 147.174 156.668 154.099 163.848 159.178C176.607 168.206 190.648 168.429 206.012 166.452C202.553 157.187 198.218 149.479 191.931 142.857Z" fill="url(#paint19_linear)"/>
<path opacity="0.65" d="M196.767 125.182C189.95 120.498 182.545 117.715 174.185 118.102C168.61 118.39 163.33 120.692 159.325 124.58C158.767 125.208 158.355 125.952 158.12 126.758C157.885 127.565 157.831 128.413 157.964 129.243C159.943 137.422 164.612 143.51 172.691 146.985C187.048 153.163 200.831 150.462 215.446 145.334C210.135 136.99 204.293 130.352 196.767 125.182Z" fill="url(#paint20_linear)"/>
<path opacity="0.65" d="M197.822 106.888C190.18 103.724 182.359 102.541 174.261 104.658C168.868 106.098 164.181 109.448 161.073 114.084C160.658 114.814 160.41 115.628 160.347 116.465C160.285 117.303 160.409 118.144 160.712 118.928C164.348 126.516 170.18 131.501 178.805 133.22C194.133 136.278 207.053 130.77 220.282 122.72C213.354 115.659 206.259 110.38 197.822 106.888Z" fill="url(#paint21_linear)"/>
<path opacity="0.65" d="M195.05 88.774C186.918 87.268 179.022 87.737 171.541 91.491C166.565 94.0214 162.678 98.272 160.6 103.453C160.346 104.254 160.273 105.101 160.386 105.934C160.499 106.766 160.795 107.563 161.254 108.267C166.389 114.933 173.13 118.596 181.924 118.485C197.553 118.285 209.045 110.215 220.311 99.585C212.066 94.124 204.029 90.436 195.05 88.774Z" fill="url(#paint22_linear)"/>
<path opacity="0.65" d="M188.573 71.632C180.305 71.85 172.679 73.951 166.143 79.178C161.802 82.6873 158.883 87.6533 157.928 93.153C157.846 93.989 157.95 94.8328 158.234 95.6234C158.517 96.4141 158.973 97.1319 159.568 97.725C165.977 103.179 173.332 105.36 181.911 103.425C197.157 99.984 206.72 89.697 215.53 76.958C206.33 73.328 197.7 71.391 188.573 71.632Z" fill="url(#paint23_linear)"/>
<path opacity="0.65" d="M178.674 56.212C170.632 58.144 163.609 61.785 158.302 68.257C154.786 72.5923 152.963 78.0569 153.173 83.635C153.266 84.4698 153.544 85.2735 153.986 85.9879C154.428 86.7024 155.023 87.3097 155.728 87.766C163.128 91.766 170.778 92.372 178.767 88.694C192.967 82.158 200.18 70.108 206.148 55.816C196.4 54.178 187.552 54.078 178.674 56.212Z" fill="url(#paint24_linear)"/>
<path opacity="0.65" d="M165.785 43.186C158.32 46.748 152.208 51.769 148.362 59.203C145.824 64.1746 145.177 69.8985 146.542 75.311C146.807 76.1082 147.245 76.8366 147.826 77.4437C148.407 78.0507 149.115 78.5211 149.9 78.821C157.973 81.197 165.579 80.197 172.629 74.938C185.157 65.593 189.709 52.306 192.576 37.085C182.7 37.513 174.025 39.254 165.785 43.186Z" fill="url(#paint25_linear)"/>
<path opacity="0.65" d="M150.469 33.126C143.908 38.162 138.969 44.344 136.757 52.415C135.309 57.8059 135.866 63.5392 138.326 68.55C138.751 69.2747 139.332 69.896 140.026 70.369C140.72 70.842 141.511 71.1549 142.341 71.285C150.731 71.93 157.963 69.372 163.765 62.762C174.077 51.017 175.765 37.074 175.406 21.589C165.831 24.06 157.712 27.565 150.469 33.126Z" fill="url(#paint26_linear)"/>
<path opacity="0.65" d="M133.4 26.469C128.029 32.759 124.488 39.832 124 48.187C123.704 53.7611 125.441 59.2533 128.889 63.643C129.456 64.2641 130.154 64.7514 130.932 65.0697C131.71 65.3879 132.549 65.5291 133.389 65.483C141.73 64.37 148.272 60.363 152.574 52.692C160.218 39.059 158.974 25.07 155.4 9.99899C146.537 14.408 139.325 19.524 133.4 26.469Z" fill="url(#paint27_linear)"/>
<path opacity="0.65" d="M115.312 23.507C111.367 30.777 109.373 38.431 110.632 46.707C111.502 52.2211 114.345 57.2316 118.632 60.807C119.315 61.2961 120.098 61.6275 120.924 61.7771C121.751 61.9267 122.6 61.8908 123.411 61.672C131.339 58.849 136.905 53.572 139.517 45.172C144.16 30.248 140.033 16.823 133.405 2.82397C125.659 8.97797 119.667 15.482 115.312 23.507Z" fill="url(#paint28_linear)"/>
<path opacity="0.65" d="M97.008 24.37C94.66 32.301 94.302 40.203 97.253 48.035C99.2496 53.2476 103.071 57.5583 108.006 60.166C108.776 60.5026 109.61 60.664 110.45 60.6386C111.29 60.6132 112.113 60.4015 112.861 60.019C120.028 55.609 124.376 49.288 125.184 40.53C126.623 24.967 119.795 12.693 110.402 0.377991C104.108 8.00699 99.6 15.615 97.008 24.37Z" fill="url(#paint29_linear)"/>
<defs>
<linearGradient id="paint0_linear" x1="-1.49152e-05" y1="222" x2="222" y2="1.1333e-06" gradientUnits="userSpaceOnUse">
<stop stop-color="#0A00B2"/>
<stop offset="0.5" stop-color="#FF0000"/>
<stop offset="1" stop-color="#FFFC00"/>
</linearGradient>
<linearGradient id="paint1_linear" x1="-5.44127e-06" y1="222" x2="222" y2="6.61767e-06" gradientUnits="userSpaceOnUse">
<stop stop-color="#0A00B2"/>
<stop offset="0.5" stop-color="#FF0000"/>
<stop offset="1" stop-color="#FFFC00"/>
</linearGradient>
<linearGradient id="paint2_linear" x1="2.82125e-06" y1="222" x2="222" y2="-1.14246e-05" gradientUnits="userSpaceOnUse">
<stop stop-color="#0A00B2"/>
<stop offset="0.5" stop-color="#FF0000"/>
<stop offset="1" stop-color="#FFFC00"/>
</linearGradient>
<linearGradient id="paint3_linear" x1="-2.48302e-06" y1="222" x2="222" y2="-3.99378e-05" gradientUnits="userSpaceOnUse">
<stop stop-color="#0A00B2"/>
<stop offset="0.5" stop-color="#FF0000"/>
<stop offset="1" stop-color="#FFFC00"/>
</linearGradient>
<linearGradient id="paint4_linear" x1="1.69959e-05" y1="222" x2="222" y2="-2.84365e-05" gradientUnits="userSpaceOnUse">
<stop stop-color="#0A00B2"/>
<stop offset="0.5" stop-color="#FF0000"/>
<stop offset="1" stop-color="#FFFC00"/>
</linearGradient>
<linearGradient id="paint5_linear" x1="-1.47099e-06" y1="222" x2="222" y2="3.61476e-05" gradientUnits="userSpaceOnUse">
<stop stop-color="#0A00B2"/>
<stop offset="0.5" stop-color="#FF0000"/>
<stop offset="1" stop-color="#FFFC00"/>
</linearGradient>
<linearGradient id="paint6_linear" x1="2.59099e-05" y1="222" x2="222" y2="-1.51537e-05" gradientUnits="userSpaceOnUse">
<stop stop-color="#0A00B2"/>
<stop offset="0.5" stop-color="#FF0000"/>
<stop offset="1" stop-color="#FFFC00"/>
</linearGradient>
<linearGradient id="paint7_linear" x1="1.01849e-05" y1="222" x2="222" y2="-1.61968e-08" gradientUnits="userSpaceOnUse">
<stop stop-color="#0A00B2"/>
<stop offset="0.5" stop-color="#FF0000"/>
<stop offset="1" stop-color="#FFFC00"/>
</linearGradient>
<linearGradient id="paint8_linear" x1="-5.03659e-07" y1="222" x2="222" y2="-3.30782e-05" gradientUnits="userSpaceOnUse">
<stop stop-color="#0A00B2"/>
<stop offset="0.5" stop-color="#FF0000"/>
<stop offset="1" stop-color="#FFFC00"/>
</linearGradient>
<linearGradient id="paint9_linear" x1="-6.4258e-06" y1="222" x2="222" y2="-3.63995e-05" gradientUnits="userSpaceOnUse">
<stop stop-color="#0A00B2"/>
<stop offset="0.5" stop-color="#FF0000"/>
<stop offset="1" stop-color="#FFFC00"/>
</linearGradient>
<linearGradient id="paint10_linear" x1="-6.07061e-06" y1="222" x2="222" y2="6.63968e-06" gradientUnits="userSpaceOnUse">
<stop stop-color="#0A00B2"/>
<stop offset="0.5" stop-color="#FF0000"/>
<stop offset="1" stop-color="#FFFC00"/>
</linearGradient>
<linearGradient id="paint11_linear" x1="1.93551e-06" y1="222" x2="222" y2="-3.02721e-05" gradientUnits="userSpaceOnUse">
<stop stop-color="#0A00B2"/>
<stop offset="0.5" stop-color="#FF0000"/>
<stop offset="1" stop-color="#FFFC00"/>
</linearGradient>
<linearGradient id="paint12_linear" x1="2.52894e-05" y1="222" x2="222" y2="-3.31156e-05" gradientUnits="userSpaceOnUse">
<stop stop-color="#0A00B2"/>
<stop offset="0.5" stop-color="#FF0000"/>
<stop offset="1" stop-color="#FFFC00"/>
</linearGradient>
<linearGradient id="paint13_linear" x1="1.10459e-05" y1="222" x2="222" y2="-2.83794e-05" gradientUnits="userSpaceOnUse">
<stop stop-color="#0A00B2"/>
<stop offset="0.5" stop-color="#FF0000"/>
<stop offset="1" stop-color="#FFFC00"/>
</linearGradient>
<linearGradient id="paint14_linear" x1="2.15872e-05" y1="222" x2="222" y2="1.40148e-05" gradientUnits="userSpaceOnUse">
<stop stop-color="#0A00B2"/>
<stop offset="0.5" stop-color="#FF0000"/>
<stop offset="1" stop-color="#FFFC00"/>
</linearGradient>
<linearGradient id="paint15_linear" x1="-3.06052e-05" y1="222" x2="222" y2="-7.53196e-05" gradientUnits="userSpaceOnUse">
<stop stop-color="#0A00B2"/>
<stop offset="0.5" stop-color="#FF0000"/>
<stop offset="1" stop-color="#FFFC00"/>
</linearGradient>
<linearGradient id="paint16_linear" x1="-2.70587e-05" y1="222" x2="222" y2="-5.42547e-05" gradientUnits="userSpaceOnUse">
<stop stop-color="#0A00B2"/>
<stop offset="0.5" stop-color="#FF0000"/>
<stop offset="1" stop-color="#FFFC00"/>
</linearGradient>
<linearGradient id="paint17_linear" x1="1.40842e-05" y1="222" x2="222" y2="-1.95333e-05" gradientUnits="userSpaceOnUse">
<stop stop-color="#0A00B2"/>
<stop offset="0.5" stop-color="#FF0000"/>
<stop offset="1" stop-color="#FFFC00"/>
</linearGradient>
<linearGradient id="paint18_linear" x1="3.41377e-05" y1="222" x2="222" y2="-2.32662e-05" gradientUnits="userSpaceOnUse">
<stop stop-color="#0A00B2"/>
<stop offset="0.5" stop-color="#FF0000"/>
<stop offset="1" stop-color="#FFFC00"/>
</linearGradient>
<linearGradient id="paint19_linear" x1="5.14798e-05" y1="222" x2="222" y2="1.01957e-05" gradientUnits="userSpaceOnUse">
<stop stop-color="#0A00B2"/>
<stop offset="0.5" stop-color="#FF0000"/>
<stop offset="1" stop-color="#FFFC00"/>
</linearGradient>
<linearGradient id="paint20_linear" x1="1.11014e-05" y1="222" x2="222" y2="1.64399e-05" gradientUnits="userSpaceOnUse">
<stop stop-color="#0A00B2"/>
<stop offset="0.5" stop-color="#FF0000"/>
<stop offset="1" stop-color="#FFFC00"/>
</linearGradient>
<linearGradient id="paint21_linear" x1="8.85622e-06" y1="222" x2="222" y2="-2.68536e-05" gradientUnits="userSpaceOnUse">
<stop stop-color="#0A00B2"/>
<stop offset="0.5" stop-color="#FF0000"/>
<stop offset="1" stop-color="#FFFC00"/>
</linearGradient>
<linearGradient id="paint22_linear" x1="1.15055e-05" y1="222" x2="222" y2="-2.22521e-05" gradientUnits="userSpaceOnUse">
<stop stop-color="#0A00B2"/>
<stop offset="0.5" stop-color="#FF0000"/>
<stop offset="1" stop-color="#FFFC00"/>
</linearGradient>
<linearGradient id="paint23_linear" x1="-2.97988e-06" y1="222" x2="222" y2="-2.45035e-05" gradientUnits="userSpaceOnUse">
<stop stop-color="#0A00B2"/>
<stop offset="0.5" stop-color="#FF0000"/>
<stop offset="1" stop-color="#FFFC00"/>
</linearGradient>
<linearGradient id="paint24_linear" x1="4.57933e-05" y1="222" x2="222" y2="3.86468e-05" gradientUnits="userSpaceOnUse">
<stop stop-color="#0A00B2"/>
<stop offset="0.5" stop-color="#FF0000"/>
<stop offset="1" stop-color="#FFFC00"/>
</linearGradient>
<linearGradient id="paint25_linear" x1="6.10644e-06" y1="222" x2="222" y2="2.05785e-06" gradientUnits="userSpaceOnUse">
<stop stop-color="#0A00B2"/>
<stop offset="0.5" stop-color="#FF0000"/>
<stop offset="1" stop-color="#FFFC00"/>
</linearGradient>
<linearGradient id="paint26_linear" x1="-9.33999e-06" y1="222" x2="222" y2="-1.00643e-05" gradientUnits="userSpaceOnUse">
<stop stop-color="#0A00B2"/>
<stop offset="0.5" stop-color="#FF0000"/>
<stop offset="1" stop-color="#FFFC00"/>
</linearGradient>
<linearGradient id="paint27_linear" x1="2.60671e-05" y1="222" x2="222" y2="2.36523e-05" gradientUnits="userSpaceOnUse">
<stop stop-color="#0A00B2"/>
<stop offset="0.5" stop-color="#FF0000"/>
<stop offset="1" stop-color="#FFFC00"/>
</linearGradient>
<linearGradient id="paint28_linear" x1="3.53657e-05" y1="222" x2="222" y2="1.75802e-05" gradientUnits="userSpaceOnUse">
<stop stop-color="#0A00B2"/>
<stop offset="0.5" stop-color="#FF0000"/>
<stop offset="1" stop-color="#FFFC00"/>
</linearGradient>
<linearGradient id="paint29_linear" x1="4.31091e-06" y1="222" x2="222" y2="-3.27946e-05" gradientUnits="userSpaceOnUse">
<stop stop-color="#0A00B2"/>
<stop offset="0.5" stop-color="#FF0000"/>
<stop offset="1" stop-color="#FFFC00"/>
</linearGradient>
</defs>
</svg>
