<svg width="32" height="32" viewBox="0 0 32 32" fill="none" xmlns="http://www.w3.org/2000/svg">
<g clip-path="url(#clip0_1854_6)">
<path fill-rule="evenodd" clip-rule="evenodd" d="M12.1304 0.132734C9.95337 -0.447668 7.73879 0.932718 7.28639 3.15392L6.12669 8.82773H16.2428V8.82994L16.4084 8.82773L17.8693 8.82994C19.1824 8.86525 20.1313 9.34855 20.363 10.8823L21.0913 17.6805C21.2325 19.0068 21.5878 19.0521 22.3095 17.6805C23.0311 16.309 25.7643 10.8812 25.7643 10.8812C26.3657 9.82633 27.1281 9.26359 27.98 9.00538L28.1323 8.25726C28.5548 6.21244 27.3121 4.19219 25.2965 3.64715L12.1304 0.133837V0.132734ZM13.7281 9.93116H5.90159L5.67649 11.0346H13.268L13.279 10.9816C13.3695 10.5535 13.5273 10.2092 13.7281 9.93116ZM5.45139 12.138L5.22629 13.2414H12.8046L13.0363 12.138H5.45139ZM12.574 14.3449H5.00119L4.77609 15.4483H12.3434L12.574 14.3449ZM4.55099 16.5517L4.3259 17.6552H11.8292V17.9023L12.1117 16.5517H4.55099ZM11.6504 18.7586H4.09969L3.76315 20.4137H11.304L11.6515 18.7586H11.6504ZM3.2004 23.1723L3.08233 23.7428C2.6598 25.7876 3.90251 27.8078 5.91814 28.3529L19.0853 31.8673C21.2623 32.4477 23.4758 31.0673 23.9304 28.8461L26.6228 15.6524L23.5773 21.398C22.987 22.4264 22.4882 23.1094 21.0714 23.1679C21.0052 23.1712 20.7272 23.1723 20.6566 23.1723C19.061 23.1723 18.6152 22.476 18.4574 21.3969L17.6343 14.0039C17.5383 13.4025 17.1664 13.4202 17.0605 14.0039L15.2928 23.1679L11.8292 23.1723H3.2004Z" fill="#1CA345"/>
</g>
<defs>
<clipPath id="clip0_1854_6">
<rect width="32" height="32" fill="white"/>
</clipPath>
</defs>
</svg>
