<svg width="32" height="32" viewBox="0 0 32 32" fill="none" xmlns="http://www.w3.org/2000/svg">
<g filter="url(#filter0_ii_2_17)">
<path d="M1.82858 22.1707L6.89715 9.20238C7.61143 7.37491 9.37294 6.17212 11.335 6.17212H14.3908L9.32224 19.1403C8.60796 20.9679 6.84645 22.1707 4.88435 22.1707H1.82858Z" fill="url(#paint0_linear_2_17)"/>
<path d="M9.26441 22.1708L14.333 9.20249C15.0472 7.37501 16.8087 6.17223 18.7708 6.17223H21.8267L16.758 19.1405C16.0438 20.968 14.2823 22.1708 12.3202 22.1708H9.26441Z" fill="url(#paint1_linear_2_17)"/>
<path d="M16.7007 22.1708L21.7692 9.20249C22.4835 7.37501 24.245 6.17223 26.2071 6.17223H29.2629L24.1943 19.1405C23.4801 20.968 21.7185 22.1708 19.7564 22.1708H16.7007Z" fill="url(#paint2_linear_2_17)"/>
</g>
<defs>
<filter id="filter0_ii_2_17" x="1.82858" y="6.17212" width="27.4343" height="19.9986" filterUnits="userSpaceOnUse" color-interpolation-filters="sRGB">
<feFlood flood-opacity="0" result="BackgroundImageFix"/>
<feBlend mode="normal" in="SourceGraphic" in2="BackgroundImageFix" result="shape"/>
<feColorMatrix in="SourceAlpha" type="matrix" values="0 0 0 0 0 0 0 0 0 0 0 0 0 0 0 0 0 0 127 0" result="hardAlpha"/>
<feOffset dy="4"/>
<feGaussianBlur stdDeviation="2"/>
<feComposite in2="hardAlpha" operator="arithmetic" k2="-1" k3="1"/>
<feColorMatrix type="matrix" values="0 0 0 0 0 0 0 0 0 0 0 0 0 0 0 0 0 0 0.25 0"/>
<feBlend mode="normal" in2="shape" result="effect1_innerShadow_2_17"/>
<feColorMatrix in="SourceAlpha" type="matrix" values="0 0 0 0 0 0 0 0 0 0 0 0 0 0 0 0 0 0 127 0" result="hardAlpha"/>
<feOffset dy="4"/>
<feGaussianBlur stdDeviation="2"/>
<feComposite in2="hardAlpha" operator="arithmetic" k2="-1" k3="1"/>
<feColorMatrix type="matrix" values="0 0 0 0 0 0 0 0 0 0 0 0 0 0 0 0 0 0 0.25 0"/>
<feBlend mode="normal" in2="effect1_innerShadow_2_17" result="effect2_innerShadow_2_17"/>
</filter>
<linearGradient id="paint0_linear_2_17" x1="29.263" y1="4.95009" x2="1.82858" y2="20.449" gradientUnits="userSpaceOnUse">
<stop stop-color="#FF5CAA"/>
<stop offset="1" stop-color="#FF4E62"/>
</linearGradient>
<linearGradient id="paint1_linear_2_17" x1="29.2629" y1="4.95015" x2="1.82857" y2="20.4491" gradientUnits="userSpaceOnUse">
<stop stop-color="#FF5CAA"/>
<stop offset="1" stop-color="#FF4E62"/>
</linearGradient>
<linearGradient id="paint2_linear_2_17" x1="29.263" y1="4.95015" x2="1.82858" y2="20.4491" gradientUnits="userSpaceOnUse">
<stop stop-color="#FF5CAA"/>
<stop offset="1" stop-color="#FF4E62"/>
</linearGradient>
</defs>
</svg>
