<svg width="32" height="32" viewBox="0 0 32 32" fill="none" xmlns="http://www.w3.org/2000/svg">
<path fill-rule="evenodd" clip-rule="evenodd" d="M26.3126 5.08852C27.0732 5.84918 27.4601 6.76066 27.4601 7.81639C27.4601 8.87213 27.0798 9.75738 26.3126 10.4852C26.2076 10.5967 26.1027 10.6951 25.9847 10.7869C26.0175 10.8393 26.0437 10.8918 26.0634 10.9508L27.5913 14.7672C27.6109 14.8197 27.6306 14.8721 27.6437 14.9311C27.7749 14.9115 27.9126 14.9049 28.0503 14.9049C29.106 14.9049 29.9913 15.2656 30.7191 15.9934C31.4798 16.7541 31.8667 17.6656 31.8667 18.7213C31.8667 19.777 31.4863 20.6623 30.7191 21.3902C29.9913 22.1508 29.0995 22.5377 28.0503 22.5377C26.9945 22.5377 26.0896 22.1574 25.3224 21.3902C24.5945 20.6623 24.2339 19.7705 24.2339 18.7213C24.2339 17.6656 24.6011 16.7607 25.3224 15.9934C25.4208 15.8951 25.5257 15.8033 25.624 15.718C25.6044 15.6787 25.5913 15.6328 25.5716 15.5803L24.0437 11.7639C24.024 11.7115 24.0044 11.659 23.9913 11.6C23.8732 11.6197 23.7552 11.6262 23.6372 11.6262C23.4339 11.6262 23.2372 11.6066 23.0404 11.5738C23.0273 11.6328 23.0076 11.6852 22.988 11.7377L18.4634 21.1148C18.4503 21.141 18.4306 21.1738 18.4109 21.2C18.5093 21.2787 18.5945 21.3574 18.6863 21.4426C19.447 22.2033 19.8339 23.1148 19.8339 24.1705C19.8339 25.2262 19.4535 26.1115 18.6863 26.8393C17.9585 27.6 17.0667 27.9869 16.0175 27.9869C14.9617 27.9869 14.0568 27.6066 13.2896 26.8393C12.5617 26.1115 12.2011 25.2197 12.2011 24.1705C12.2011 23.1148 12.5617 22.2098 13.2896 21.4426C13.4011 21.3377 13.5191 21.2393 13.6437 21.141L13.6175 21.1148L9.09289 11.7377C9.06666 11.6852 9.04699 11.6328 9.04043 11.5738C8.82404 11.6131 8.60765 11.6262 8.3847 11.6262C8.26011 11.6262 8.14207 11.6197 8.0306 11.6C8.01748 11.659 7.99781 11.7115 7.97814 11.7639L6.45027 15.5803C6.43715 15.6131 6.41748 15.6525 6.39781 15.6918C6.5224 15.7836 6.64043 15.882 6.75191 15.9934C7.51256 16.7541 7.89945 17.6656 7.89945 18.7213C7.89945 19.777 7.51912 20.6623 6.75191 21.3902C6.02404 22.1508 5.13224 22.5377 4.08306 22.5377C3.02732 22.5377 2.1224 22.1574 1.35519 21.3902C0.627318 20.6623 0.266663 19.7705 0.266663 18.7213C0.266663 17.6656 0.627318 16.7607 1.35519 15.9934C2.11584 15.2656 3.02732 14.9049 4.08306 14.9049C4.18797 14.9049 4.28633 14.9049 4.3847 14.9049C4.39781 14.8656 4.41748 14.8197 4.43715 14.7672L5.96502 10.9508C5.9847 10.9049 6.00437 10.859 6.01748 10.8131C5.89945 10.7148 5.78142 10.6033 5.66338 10.4852C4.93552 9.75738 4.57486 8.86557 4.57486 7.81639C4.57486 6.76066 4.93552 5.85574 5.66338 5.08852C6.42404 4.36066 7.33552 4 8.39125 4C9.44699 4 10.3322 4.36066 11.0601 5.08852C11.8208 5.84918 12.2076 6.76066 12.2076 7.81639C12.2076 8.87213 11.8273 9.75738 11.0601 10.4852C11.0273 10.518 10.988 10.5574 10.9486 10.5967C10.988 10.6426 11.0273 10.7016 11.0601 10.7607L15.5847 20.1377C15.624 20.2164 15.6503 20.2951 15.6634 20.3869C15.7814 20.3672 15.8995 20.3607 16.0175 20.3607C16.1552 20.3607 16.2929 20.3672 16.424 20.3869C16.4437 20.3016 16.4699 20.2229 16.5093 20.1377L21.0339 10.7607C21.0535 10.7213 21.0732 10.6885 21.0863 10.6492C21.0339 10.5967 20.9814 10.5443 20.9224 10.4852C20.1945 9.75738 19.8339 8.86557 19.8339 7.81639C19.8339 6.76066 20.1945 5.85574 20.9224 5.08852C21.6831 4.36066 22.5945 4 23.6503 4C24.6929 4 25.5847 4.36066 26.3126 5.08852ZM14.3716 24.1639C14.3716 24.6033 14.5355 24.9836 14.8634 25.3115C15.1913 25.6393 15.5716 25.8033 16.0109 25.8033C16.4437 25.8033 16.8306 25.6393 17.1585 25.3115C17.4863 24.9836 17.6503 24.6033 17.6503 24.1639C17.6503 23.7246 17.4863 23.3443 17.1585 23.0164C16.9552 22.8131 16.7388 22.682 16.5027 22.6098C16.3454 22.5574 16.1814 22.5311 16.0109 22.5311C15.8404 22.5311 15.6831 22.5574 15.5191 22.6098C15.2831 22.682 15.0667 22.8197 14.8634 23.0164C14.5355 23.3508 14.3716 23.7311 14.3716 24.1639ZM5.70929 18.7148C5.70929 18.2754 5.54535 17.8951 5.21748 17.5672C5.04043 17.3902 4.83715 17.259 4.62076 17.1869C4.45683 17.1148 4.27322 17.0754 4.0765 17.0754C3.64371 17.0754 3.25683 17.2393 2.92896 17.5672C2.60109 17.8951 2.43715 18.2754 2.43715 18.7148C2.43715 19.1541 2.60109 19.5344 2.92896 19.8623C3.25683 20.1902 3.63715 20.3541 4.0765 20.3541C4.51584 20.3541 4.89617 20.1902 5.22404 19.8623C5.54535 19.5344 5.70929 19.1541 5.70929 18.7148ZM9.52568 6.66885C9.19781 6.34098 8.81748 6.17705 8.37814 6.17705C7.94535 6.17705 7.55847 6.34098 7.2306 6.66885C6.90273 6.99672 6.73879 7.37705 6.73879 7.81639C6.73879 8.25574 6.90273 8.63607 7.2306 8.96393C7.39453 9.12787 7.57814 9.25902 7.77486 9.34426C7.95847 9.41639 8.16174 9.45574 8.37158 9.45574C8.62732 9.45574 8.86338 9.40328 9.07978 9.2918C9.23715 9.20656 9.38142 9.10164 9.51256 8.96393C9.84043 8.63607 10.0044 8.25574 10.0044 7.81639C10.0109 7.37705 9.84699 6.99672 9.52568 6.66885ZM28.0568 17.082C27.8208 17.082 27.6044 17.1279 27.4011 17.2197C27.224 17.3049 27.0601 17.4229 26.9093 17.5738C26.5814 17.9016 26.4175 18.282 26.4175 18.7213C26.4175 19.1607 26.5814 19.541 26.9093 19.8689C27.2372 20.1967 27.6175 20.3607 28.0568 20.3607C28.4962 20.3607 28.8765 20.1967 29.2044 19.8689C29.5322 19.541 29.6962 19.1607 29.6962 18.7213C29.6962 18.282 29.5322 17.9016 29.2044 17.5738C28.8765 17.2459 28.4896 17.082 28.0568 17.082ZM25.2765 7.80984C25.2765 7.37705 25.1126 6.99016 24.7847 6.66229C24.4568 6.33443 24.0765 6.17049 23.6372 6.17049C23.1978 6.17049 22.8175 6.33443 22.4896 6.66229C22.1617 6.99016 21.9978 7.37049 21.9978 7.80984C21.9978 8.24918 22.1617 8.62951 22.4896 8.95738C22.6273 9.09508 22.7716 9.2 22.9224 9.28525C23.1388 9.39672 23.3749 9.44918 23.6306 9.44918C23.847 9.44918 24.0437 9.40984 24.2273 9.3377C24.424 9.2459 24.6076 9.12131 24.7716 8.95738C25.1126 8.62951 25.2765 8.24918 25.2765 7.80984Z" fill="#368EE0"/>
</svg>
