<svg width="32" height="32" viewBox="0 0 32 32" fill="none" xmlns="http://www.w3.org/2000/svg">
<path fill-rule="evenodd" clip-rule="evenodd" d="M28 0H4C2 0 0 2 0 4V28C0 30.2092 1.79086 32 4 32H28C30.2092 32 32 30.2092 32 28V4C32 1.79086 30.2092 0 28 0ZM23.4334 12.5195L22.302 11.3882L20.0392 13.6509L21.1706 14.7823L23.4334 12.5195ZM19.332 9.83258C19.7225 9.44206 20.3556 9.44206 20.7462 9.83258L22.3018 11.3882L10.9881 22.702L8.72538 20.4392L19.332 9.83258ZM14.8066 5.3072C15.1971 4.91668 15.8303 4.91668 16.2208 5.3072L17.7765 6.86284L17.7764 6.86292L18.9076 7.99414L16.6449 10.2569L15.5136 9.12566L8.7255 15.9138L9.85682 17.0451L7.59408 19.3079L6.46276 18.1765L6.46274 18.1766L4.90712 16.6209C4.51658 16.2304 4.51658 15.5972 4.90712 15.2067L14.8066 5.3072ZM26.8274 15.9137L27.9588 17.0451L25.696 19.3079L24.5646 18.1765L26.8274 15.9137ZM13.2508 24.9646L13.2509 24.9644L12.1197 23.8334L14.3825 21.5706L15.5136 22.7018L23.8574 14.358C24.2478 13.9674 24.881 13.9674 25.2716 14.358L26.8272 15.9136L16.2206 26.5202C15.8301 26.9108 15.1969 26.9108 14.8064 26.5202L13.2508 24.9646Z" fill="#2B2C30"/>
</svg>
