<svg width="32" height="32" viewBox="0 0 32 32" fill="none" xmlns="http://www.w3.org/2000/svg">
<g clip-path="url(#clip0)">
<path fill-rule="evenodd" clip-rule="evenodd" d="M15.4427 4.41074C15.5903 4.34746 15.7554 4.34746 15.9031 4.41074L30.2514 10.5351C30.4732 10.6296 30.6187 10.8529 30.6187 11.1002C30.6187 11.3475 30.4732 11.5707 30.2514 11.666L28.2274 12.5293V21.9795L30.5561 26.7496C30.6485 26.9387 30.6391 27.1642 30.53 27.3453C30.4209 27.5256 30.2281 27.6362 30.0209 27.6362H25.2383C25.0311 27.6362 24.8383 27.5271 24.7292 27.3453C24.6201 27.1649 24.6107 26.9402 24.7031 26.7496L27.0318 21.9795V13.0398L15.9031 17.7904C15.8296 17.8216 15.7511 17.8369 15.6732 17.8369C15.5947 17.8369 15.5161 17.8224 15.4427 17.7904L1.09505 11.6653C0.872505 11.5707 0.727051 11.3482 0.727051 11.1002C0.727051 10.8529 0.872505 10.6304 1.09505 10.5351L15.4427 4.41074ZM3.16414 16.7853C3.29141 16.4733 3.64123 16.3242 3.94669 16.4558L15.6732 21.4609L23.8121 17.9867C24.1169 17.8558 24.4667 18.0035 24.5947 18.3162C24.722 18.6289 24.578 18.9875 24.2725 19.1169L15.9031 22.6893C15.8296 22.7213 15.7511 22.7366 15.6732 22.7366C15.5947 22.7366 15.5161 22.722 15.4427 22.6893L3.48632 17.586C3.18087 17.4566 3.0376 17.0973 3.16414 16.7853V16.7853Z" fill="black" fill-opacity="0.7"/>
</g>
<defs>
<clipPath id="clip0">
<rect width="30.5455" height="23.2727" fill="white" transform="translate(0.727051 4.36328)"/>
</clipPath>
</defs>
</svg>
