<svg width="32" height="32" viewBox="0 0 32 32" fill="none" xmlns="http://www.w3.org/2000/svg">
<rect width="32" height="32" fill="#1A4CE3"/>
<path fill-rule="evenodd" clip-rule="evenodd" d="M23.3432 6C25.5156 6 27.2689 6.72934 28.6028 8.1879C29.9368 9.60813 30.5847 11.5274 30.5847 13.9455V25.7295H24.8677V14.4445C24.8677 12.4869 23.9149 11.297 22.1236 11.297C20.2561 11.297 19.1508 12.6404 19.1508 14.9052V25.7295H13.4339V14.4445C13.4339 12.4869 12.481 11.297 10.6897 11.297C8.82221 11.297 7.71693 12.6404 7.71693 14.9052V25.7295H2V6.53741H7.71693V8.30304C8.74598 6.76768 10.4611 6 12.8241 6C15.0346 6 16.7116 6.84448 17.8168 8.53338C18.9983 6.84448 20.8278 6 23.3432 6Z" fill="white"/>
</svg>
