<svg width="32" height="32" viewBox="0 0 32 32" fill="none" xmlns="http://www.w3.org/2000/svg">
<rect width="32" height="32" fill="#0072BC"/>
<path fill-rule="evenodd" clip-rule="evenodd" d="M14.9021 7.31445H9.05065L3.19922 24.9602H8.36493L10.9706 16.7316C10.9706 16.7316 11.0621 16.4573 11.3364 16.4573C11.6106 16.4573 11.7021 16.6859 11.7021 16.6859L11.8392 24.9145H18.6506L22.3992 16.6402C22.3992 16.6402 22.4906 16.4573 22.7649 16.4573C22.7649 16.4573 23.0849 16.4573 23.1306 16.7773L22.1249 24.9602H27.0621L28.7992 7.31445H21.6678L17.6449 17.4173C17.6449 17.4173 17.5078 17.6459 17.1878 17.7373C16.8221 17.8287 16.7306 17.3716 16.7306 17.3716L14.9021 7.31445Z" fill="white"/>
</svg>
