<svg width="32" height="32" viewBox="0 0 32 32" fill="none" xmlns="http://www.w3.org/2000/svg">
<path d="M22.72 6.3999C27.4029 6.3999 31.2506 9.98902 31.3575 14.5042L31.36 14.6981V26.2399H27.52V14.6981C27.52 12.2591 25.3927 10.2399 22.72 10.2399C20.1024 10.2399 18.0071 12.1772 17.9226 14.5497L17.92 14.6981V26.2399H14.08V14.6981C14.08 12.2591 11.9527 10.2399 9.28002 10.2399C6.66241 10.2399 4.56705 12.1772 4.48257 14.5497L4.48001 14.6981V26.2399H0.640015V14.6981C0.640015 10.0927 4.52993 6.3999 9.28002 6.3999C11.9859 6.3999 14.4128 7.59798 16 9.48086C17.5872 7.59798 20.0141 6.3999 22.72 6.3999Z" fill="#464A91"/>
</svg>
