<svg width="32" height="32" viewBox="0 0 32 32" fill="none" xmlns="http://www.w3.org/2000/svg">
<path fill-rule="evenodd" clip-rule="evenodd" d="M1.28 12.4688C6.24756 17.4364 11.199 22.3873 16.1278 27.3161C21.0915 22.3529 26.0579 17.387 31.0333 12.4122C30.9994 12.3751 30.9551 12.3235 30.9069 12.2748C28.5938 9.95064 26.2791 7.62761 23.9693 5.30014C23.8385 5.16822 23.706 5.12055 23.5237 5.1211C18.6426 5.12498 13.7615 5.12554 8.87987 5.12C8.6848 5.12 8.55283 5.18152 8.41817 5.31677C6.09734 7.64479 3.77209 9.96838 1.44795 12.2937C1.39363 12.3474 1.34153 12.4039 1.28 12.4688Z" fill="white"/>
<path fill-rule="evenodd" clip-rule="evenodd" d="M1.28 12.4688C1.34153 12.4039 1.39363 12.3479 1.44795 12.2937C3.77209 9.96838 6.09734 7.64479 8.41869 5.31677C8.55341 5.18152 8.68531 5.12 8.87987 5.12C13.761 5.12554 18.642 5.12498 23.5237 5.12055C23.706 5.12055 23.8385 5.16766 23.9693 5.29959C26.2791 7.62705 28.5938 9.95009 30.9069 12.2748C30.9551 12.323 30.9994 12.3751 31.0333 12.4122C26.0585 17.3865 21.092 22.3523 16.1278 27.3161C11.199 22.3873 6.24756 17.4364 1.28 12.4688ZM28.346 12.4749C26.743 10.8724 25.1517 9.28051 23.5919 7.72128C21.1647 10.0898 18.7158 12.4793 16.2459 14.8905C13.8292 12.4737 11.3659 10.01 8.92921 7.57329C7.27521 9.22785 5.63506 10.8686 4.02374 12.4799C8.06285 16.5196 12.1247 20.5808 16.1816 24.6382C20.2301 20.5903 24.2953 16.5257 28.346 12.4749Z" fill="#2DB9EB"/>
<path fill-rule="evenodd" clip-rule="evenodd" d="M28.3461 12.4749C24.2953 16.5252 20.2301 20.5903 16.1821 24.6383C12.1247 20.5809 8.06343 16.519 4.0243 12.4799C5.63507 10.8686 7.27577 9.22789 8.92979 7.57333C11.3665 10.0106 13.8297 12.4738 16.2464 14.8905C18.7169 12.4793 21.1658 10.0893 23.5925 7.72078C25.1511 9.28055 26.743 10.8725 28.3461 12.4749Z" fill="white"/>
</svg>
