<svg width="32" height="32" viewBox="0 0 32 32" fill="none" xmlns="http://www.w3.org/2000/svg">
<path d="M25.8833 26.3525C29.262 26.3525 32.0009 23.6135 32.0009 20.2348C32.0009 16.8562 29.262 14.1172 25.8833 14.1172C22.5046 14.1172 19.7656 16.8562 19.7656 20.2348C19.7656 23.6135 22.5046 26.3525 25.8833 26.3525Z" fill="#1C83FC"/>
<path d="M15.9994 26.3524C21.7172 26.3524 26.3524 21.7172 26.3524 15.9994C26.3524 10.2817 21.7172 5.64648 15.9994 5.64648C10.2817 5.64648 5.64648 10.2817 5.64648 15.9994C5.64648 21.7172 10.2817 26.3524 15.9994 26.3524Z" fill="#52BBFF"/>
<path d="M6.11765 26.3525C9.49633 26.3525 12.2353 23.6135 12.2353 20.2348C12.2353 16.8562 9.49633 14.1172 6.11765 14.1172C2.73896 14.1172 0 16.8562 0 20.2348C0 23.6135 2.73896 26.3525 6.11765 26.3525Z" fill="#92EDFF"/>
<path d="M32 24.4707H0V26.3531H32V24.4707Z" fill="white"/>
</svg>
