<?xml version="1.0" encoding="UTF-8" standalone="no"?>
<svg
   xmlns:dc="http://purl.org/dc/elements/1.1/"
   xmlns:cc="http://creativecommons.org/ns#"
   xmlns:rdf="http://www.w3.org/1999/02/22-rdf-syntax-ns#"
   xmlns:svg="http://www.w3.org/2000/svg"
   xmlns="http://www.w3.org/2000/svg"
   height="78.000298"
   width="78.002998"
   id="svg47"
   version="1.1"
   viewBox="0 0 78.002998 78.000298">
  <metadata
     id="metadata51">
    <rdf:RDF>
      <cc:Work
         rdf:about="">
        <dc:format>image/svg+xml</dc:format>
        <dc:type
           rdf:resource="http://purl.org/dc/dcmitype/StillImage" />
        <dc:title>Modernizr logo</dc:title>
      </cc:Work>
    </rdf:RDF>
  </metadata>
  <defs
     id="defs15">
    <linearGradient
       gradientUnits="userSpaceOnUse"
       y2="23.969999"
       x2="145.2"
       y1="77.129997"
       x1="92.040001"
       id="a">
      <stop
         id="stop10"
         stop-color="#d81e75"
         offset="0" />
      <stop
         id="stop12"
         stop-color="#ff5fa8"
         offset="1" />
    </linearGradient>
  </defs>
  <title
     id="title17">Modernizr logo</title>
  <g
     transform="translate(0,-9.9997)"
     id="g54">
    <path
       style="fill:#d81e75"
       d="m 0,65.33705 v 19.53 a 3.15,3.15 0 0 0 3.26,3.13 h 71.61 a 3,3 0 0 0 3.13,-3.13 v -71.61 A 3.15,3.15 0 0 0 74.87,9.9970503 H 55.34 A 3.33,3.33 0 0 0 52,13.25705 v 19.53 a 3.15,3.15 0 0 1 -3.17,3.21 H 29.3 a 3.33,3.33 0 0 0 -3.3,3.3 v 19.53 a 3.15,3.15 0 0 1 -3.21,3.17 H 3.26 a 3.33,3.33 0 0 0 -3.26,3.34 z"
       id="path21" />
  </g>
  <path
     style="opacity:0.8;fill:#ff3388"
     id="path23"
     d="M 74.87,-0.00264973 H 55.34 A 3.33,3.33 0 0 0 52,3.2573503 V 22.78735 a 3.15,3.15 0 0 1 -3.17,3.21 H 29.3 a 3.33,3.33 0 0 0 -3.3,3.3 v 48.7 h 48.87 a 3,3 0 0 0 3.13,-3.13 V 3.2573503 a 3.15,3.15 0 0 0 -3.13,-3.26000003 z" />
  <path
     style="opacity:0.8;fill:#ff5fa8"
     id="path25"
     d="M 74.87,-0.00264973 H 55.34 A 3.33,3.33 0 0 0 52,3.2573503 V 77.99735 h 22.87 a 3,3 0 0 0 3.13,-3.13 V 3.2573503 a 3.15,3.15 0 0 0 -3.13,-3.26000003 z" />
</svg>
