<svg width="52" height="59" viewBox="0 0 52 59" fill="none" xmlns="http://www.w3.org/2000/svg">
<path opacity="0.5" d="M26 1L51 14.6986M26 1L18.4658 5.12835L8.87671 10.3826L1 14.6986M26 1V10.2466V29.4247M26 29.4247V57.8493M26 29.4247L1 44.1507M26 29.4247L51 14.6986M26 29.4247L51 44.1507M26 29.4247L8.87671 19.3383L1 14.6986M26 57.8493L1 44.1507M26 57.8493L51 44.1507M1 44.1507V24.2877V14.6986M51 44.1507V14.6986" stroke="black"/>
<path d="M1 44.1506L8.87671 48.4667M1 44.1506L8.87671 39.5109M1 44.1506V34.5616M18.4658 5.12872L26 1.00036M26 1.00036V10.2469M26 1.00036L33.5342 5.12872M1 14.6994L8.87671 10.3834M1 14.6994L8.87671 19.3391M1 14.6994V24.2884M18.4658 53.7408L26 57.8691M26 57.8691V48.6226M26 57.8691L33.5342 53.7408M18.4658 24.9737L26 29.4258M26 29.4258V38.6723M26 29.4258L33.5342 24.9737M51 44.1506L43.1233 48.4667M51 44.1506L43.1233 39.5109M51 44.1506V34.5616M51 14.6994L43.1233 10.3834M51 14.6994L43.1233 19.3391M51 14.6994V24.2884" stroke="black" stroke-width="2" stroke-linecap="round" stroke-linejoin="round"/>
</svg>
