<svg width="32" height="32" viewBox="0 0 32 32" fill="none" xmlns="http://www.w3.org/2000/svg">
<path d="M0 29.0783V3.27186C0.0300444 2.92833 0.151082 2.59901 0.350655 2.3178C0.550229 2.03658 0.821132 1.81362 1.13548 1.67186C1.45092 1.57373 1.78576 1.55538 2.11003 1.61843C2.4343 1.68148 2.73787 1.82397 2.99355 2.03315L15.8452 14.0073L28.5419 2.13637C28.5419 2.13637 29.5742 1.10411 30.7613 1.77508C31.0189 1.93368 31.2336 2.15311 31.3866 2.41408C31.5396 2.67506 31.6262 2.96961 31.6387 3.27186V29.0783C31.6513 29.5028 31.4956 29.9152 31.2056 30.2255C30.9156 30.5358 30.5147 30.7189 30.0903 30.7351H29.8839C29.6637 30.7527 29.4423 30.7265 29.2323 30.658C29.0223 30.5896 28.828 30.4802 28.6605 30.3363C28.4931 30.1923 28.3558 30.0166 28.2566 29.8193C28.1574 29.622 28.0982 29.407 28.0826 29.1867C28.0826 29.1454 28.0826 29.1058 28.0826 29.068V7.29766L17.1355 17.548C16.9705 17.7429 16.7649 17.8993 16.5331 18.0063C16.3013 18.1133 16.0489 18.1683 15.7935 18.1673C15.5313 18.1645 15.2725 18.108 15.0328 18.0015C14.7932 17.895 14.5779 17.7407 14.4 17.548L3.56129 7.27702L3.6129 29.0783C3.59676 29.5319 3.40127 29.9606 3.06936 30.2703C2.73746 30.5799 2.29625 30.7452 1.84258 30.7299H1.80645C1.58176 30.7425 1.3568 30.7106 1.14441 30.6362C0.932026 30.5618 0.736372 30.4463 0.568626 30.2963C0.400879 30.1463 0.264324 29.9647 0.166759 29.7619C0.0691934 29.5591 0.0125286 29.3391 0 29.1144L0 29.0783Z" fill="black"/>
</svg>
