<svg width="32" height="32" viewBox="0 0 32 32" fill="none" xmlns="http://www.w3.org/2000/svg">
<rect width="32" height="32" fill="#FF5A1E"/>
<path d="M6.30112 27.8297C8.47819 27.7952 9.51489 25.9987 9.41121 22.3713C9.41121 22.0949 9.37664 20.2984 9.30752 16.9473C9.27296 15.5654 9.4112 14.5289 9.68768 13.8726C9.9295 14.3217 10.2405 15.1854 10.6553 16.4291C11.0353 17.7073 11.4155 18.7438 11.7611 19.5729C12.072 20.4366 12.625 21.1967 13.3506 21.9221C14.0764 22.6477 14.8712 22.9931 15.8042 22.9586C16.7026 22.924 17.5665 22.2676 18.4304 20.9547C19.2944 19.642 19.9855 18.191 20.5384 16.6363C21.0913 15.0817 21.6787 13.6307 22.3354 12.3179C22.9573 11.0051 23.5103 10.3488 23.9595 10.3488C24.0632 11.0051 23.9595 13.0434 23.5794 16.4637C23.1993 19.8838 23.0265 22.4748 23.0956 24.1678C23.1647 25.6532 23.8904 26.6551 25.3072 27.1733C26.7241 27.6916 27.968 27.4842 29.1084 26.5514C28.9357 25.1696 28.7974 23.4422 28.7629 21.3694C28.7283 20.2984 28.7974 18.6746 28.9011 16.4637C29.0048 14.2526 29.0393 12.6634 29.0048 11.6615C28.8666 7.1013 27.6571 4.54472 23.8212 4.68296C22.3354 4.71752 21.2296 5.33938 20.262 6.85938C19.7436 7.65405 19.3635 8.34493 19.0525 9.00136C18.7414 9.65778 18.3268 10.5906 17.8084 11.8688C17.29 13.1471 16.8409 14.1834 16.4953 14.909C16.3916 14.6672 16.2188 14.1834 15.977 13.3889C15.4586 11.8342 15.1821 11.0051 14.491 9.41597C13.7999 7.82674 13.1433 6.89394 12.2102 5.82301C11.2427 4.75208 10.0677 4.23378 8.78913 4.26834C7.30326 4.26834 6.0592 4.89021 5.09163 6.1685C5.05707 6.75581 4.91883 8.17224 4.71147 10.4523C4.50411 12.767 4.33142 14.7017 4.15862 16.2563C3.98582 17.8455 3.81302 19.6074 3.5711 21.5076C3.32929 23.4422 3.08736 24.9278 2.88 25.9297C3.26016 27.277 4.40054 27.8989 6.30112 27.8297Z" fill="white"/>
</svg>
