<svg width="32" height="32" viewBox="0 0 32 32" fill="none" xmlns="http://www.w3.org/2000/svg">
<path d="M16 32C24.8366 32 32 24.8366 32 16C32 7.16344 24.8366 0 16 0C7.16344 0 0 7.16344 0 16C0 24.8366 7.16344 32 16 32Z" fill="black"/>
<path d="M26.365 10.316C27.546 11.633 28.199 13.337 28.199 15.107V23.835H24.346V14.998C24.338 13.261 22.906 11.843 21.163 11.843C21.063 11.843 20.954 11.851 20.845 11.86C19.287 12.019 17.98 13.496 17.98 15.09V23.835H14.127V15.023C14.119 13.278 12.695 11.851 10.952 11.851C10.852 11.851 10.743 11.86 10.634 11.868C9.084 12.028 7.769 13.504 7.769 15.107V23.835H4V14.998C4 11.138 7.141 8 10.994 8C12.921 8 14.755 8.805 16.079 10.207C17.402 8.797 19.245 8 21.188 8C21.398 8 21.599 8.008 21.808 8.025C23.567 8.176 25.184 8.99 26.365 10.316Z" fill="white"/>
</svg>
