<svg width="32" height="32" viewBox="0 0 32 32" fill="none" xmlns="http://www.w3.org/2000/svg">
<path fill-rule="evenodd" clip-rule="evenodd" d="M23.161 6.35116C22.6088 5.90567 22.0258 5.49035 21.3501 5.23494C20.6327 4.96234 19.895 4.7362 19.1335 4.61732C18.3486 4.49678 17.5367 4.46827 16.7226 4.544C15.876 4.62501 15.0176 4.81872 14.1735 5.14292C13.4969 5.40391 12.8435 5.72735 12.2204 6.10948C11.5663 6.51017 10.9485 6.97497 10.3724 7.50524C9.76692 8.05951 9.21285 8.68558 8.71167 9.37652C8.18903 10.1022 7.73423 10.9004 7.36103 11.7627C6.96727 12.6675 6.67656 13.6131 6.49494 14.5851C6.30713 15.6003 6.24216 16.6347 6.3032 17.6731C6.36591 18.7453 6.56536 19.8114 6.90396 20.8466C7.25028 21.9073 7.74043 22.9247 8.37065 23.8742C10.0005 26.3354 12.2026 28.1264 14.6806 29.1779C17.0683 30.1938 19.575 30.4623 21.9532 30.064C24.1405 29.7011 26.1347 28.784 27.8032 27.433C29.3015 26.2188 30.5084 24.6773 31.362 22.89C31.4138 22.7803 31.4448 22.6553 31.4587 22.5249C31.4711 22.3952 31.4686 22.2578 31.4463 22.1235C31.4277 21.9876 31.3907 21.855 31.3389 21.729C31.284 21.6047 31.2174 21.4881 31.1387 21.3894C31.0551 21.2889 30.967 21.2147 30.8773 21.1661C30.7877 21.1151 30.6947 21.0905 30.6089 21.0905C30.5176 21.0913 30.432 21.116 30.3554 21.1678C30.2782 21.2195 30.2085 21.2959 30.1505 21.3986C29.3587 22.8506 28.281 24.0688 26.9742 24.9914C25.5469 26.0027 23.8723 26.6427 22.0684 26.8371C20.1377 27.0456 18.126 26.7385 16.2146 25.8683C14.2469 24.9729 12.4865 23.5276 11.141 21.5792C10.6369 20.8511 10.2349 20.0715 9.93645 19.2594C9.64257 18.4612 9.45083 17.6383 9.35957 16.8054C9.27375 15.9948 9.2807 15.181 9.38133 14.3782C9.48015 13.6017 9.66509 12.8404 9.93404 12.1056C10.1034 11.6369 10.3029 11.1891 10.5333 10.7646C10.7521 10.3508 11.0003 9.95779 11.2678 9.58803C11.5307 9.22747 11.8137 8.89014 12.1168 8.57515C12.4106 8.268 12.7213 7.98242 13.0477 7.72067C13.2176 7.58565 13.3885 7.45818 13.5611 7.33688C13.7358 7.2165 13.9128 7.1023 14.0907 6.99262C14.2678 6.88611 14.4486 6.78504 14.6357 6.68924C14.8144 6.5951 15.0015 6.50624 15.1878 6.42372C15.3974 6.33185 15.6062 6.25159 15.8203 6.18054C16.0291 6.11024 16.2393 6.0508 16.4497 5.99996C16.6601 5.95047 16.8687 5.90884 17.0807 5.87716C17.287 5.84789 17.4965 5.82466 17.7022 5.81002C17.523 5.87248 17.3459 5.94278 17.1765 6.02078C16.9972 6.09877 16.8254 6.18506 16.6554 6.28086C16.4845 6.3759 16.3151 6.48075 16.1543 6.5951C15.9897 6.7093 15.8274 6.83286 15.6742 6.96637C15.5682 7.05749 15.464 7.15253 15.3635 7.25044C15.2621 7.35091 15.163 7.45501 15.068 7.56468C14.9714 7.67436 14.8786 7.78705 14.7889 7.90593C14.6976 8.02632 14.6111 8.14912 14.5275 8.27795C13.8587 9.30546 13.449 10.4758 13.3074 11.7141C13.1543 13.0296 13.3074 14.3952 13.7575 15.7098C14.2221 17.0746 14.993 18.3462 16.0291 19.406C17.0712 20.4716 18.3463 21.285 19.7835 21.7468C20.6148 22.0146 21.4483 22.1697 22.2625 22.2206C23.0558 22.2709 23.829 22.2184 24.5649 22.0717C25.2842 21.9305 25.9597 21.702 26.5969 21.3939C27.2031 21.0945 27.7729 20.7253 28.2855 20.2893C28.7788 19.8699 29.2087 19.4036 29.5753 18.9005C29.9278 18.4164 30.2209 17.9 30.4598 17.3564C30.6848 16.8354 30.8602 16.2896 30.9785 15.7284C31.0983 15.1865 31.1657 14.6275 31.1849 14.0579C31.2298 12.6936 31.042 11.3813 30.6802 10.1608C30.3375 9.00827 29.835 7.90744 29.2087 6.89848C28.601 5.92106 27.8618 5.00488 27.0113 4.18812C26.1671 3.37211 25.1952 2.6341 24.098 2.01105C24.0299 1.96941 23.9534 1.9409 23.8862 1.9231C23.8141 1.90454 23.7493 1.89911 23.6874 1.90454C23.6241 1.90922 23.5737 1.92385 23.5258 1.95327C23.481 1.98178 23.4447 2.0204 23.423 2.07049C23.4036 2.12148 23.3974 2.177 23.4084 2.23794C23.4152 2.29753 23.4376 2.35999 23.4748 2.4226C23.5088 2.48204 23.5568 2.54374 23.6164 2.5985C23.6695 2.65568 23.7392 2.70425 23.8141 2.74831C24.8055 3.30106 25.6845 3.96349 26.4423 4.69984C27.2061 5.43785 27.8696 6.26547 28.407 7.15012C28.9597 8.05951 29.3935 9.04764 29.6741 10.0806C29.971 11.1653 30.1041 12.324 30.019 13.5143C29.9858 13.9907 29.9124 14.4539 29.7925 14.9016C29.6727 15.3633 29.5071 15.8071 29.2976 16.2279C29.0804 16.6625 28.8175 17.0716 28.5058 17.4513C28.1819 17.8436 27.8132 18.2011 27.3886 18.516C26.9527 18.8426 26.4817 19.1144 25.9721 19.325C25.4494 19.5427 24.8928 19.6955 24.3146 19.7806C23.7161 19.8647 23.0992 19.8778 22.4682 19.8129C21.8201 19.7473 21.1662 19.5997 20.5119 19.3715C20.2513 19.2802 20.0002 19.1745 19.755 19.0565C19.5084 18.936 19.2678 18.8015 19.0383 18.6551C18.8071 18.5083 18.5837 18.3493 18.3727 18.1786C18.157 18.0073 17.9542 17.8273 17.7609 17.6336C18.1684 17.8374 18.5837 18.0012 19.009 18.123C19.4304 18.2467 19.858 18.3315 20.2847 18.377C20.7037 18.4211 21.1243 18.4265 21.5395 18.3956C21.9471 18.3639 22.3506 18.2968 22.7433 18.1918C23.3278 18.0374 23.8723 17.8244 24.3739 17.5563C24.8573 17.2979 25.2965 16.9929 25.6939 16.6471C26.0742 16.3119 26.4128 15.9376 26.7035 15.5339C26.9858 15.1402 27.2233 14.7186 27.4141 14.2716C27.6021 13.8402 27.7411 13.397 27.8348 12.9469C27.9253 12.5108 27.9708 12.0683 27.977 11.6252C27.9803 11.1938 27.9484 10.7592 27.8772 10.3238C27.8085 9.90061 27.6994 9.47609 27.5603 9.05458C27.21 8.02255 26.7084 7.07454 26.0943 6.23077C25.4943 5.40391 24.773 4.65428 23.9666 4.00814C23.1578 3.35824 22.2453 2.79688 21.2558 2.35848C20.2413 1.90454 19.1234 1.57039 17.9264 1.39494C16.36 1.16729 14.7788 1.17815 13.2278 1.41666C11.5276 1.67825 9.839 2.22029 8.24705 3.04022C6.47425 3.95564 4.80404 5.22408 3.41063 6.83512C1.84044 8.64394 0.623368 10.8758 0.0242732 13.4455C-0.0175803 13.6232 -0.00368027 13.7877 0.0534339 13.9328C0.113872 14.0787 0.216015 14.206 0.357441 14.3071C0.500377 14.4074 0.678216 14.4832 0.882498 14.5257C1.08814 14.5666 1.31916 14.5773 1.57058 14.5495C1.81491 14.521 2.05606 14.4593 2.27953 14.3712C2.49922 14.2833 2.70093 14.1706 2.8756 14.0416C3.04891 13.9127 3.19653 13.7676 3.30562 13.6109C3.41531 13.4588 3.48648 13.2942 3.51277 13.1284C3.86301 11.0123 4.72667 9.13952 5.91126 7.58565C6.98435 6.17676 8.31036 5.04184 9.76163 4.19732C11.0799 3.4308 12.5072 2.90339 13.9693 2.62324C15.3162 2.36391 16.7063 2.31217 18.095 2.47962C19.1287 2.6071 20.099 2.87956 20.9858 3.26093C21.8526 3.63371 22.6537 4.11631 23.3636 4.68279C24.0671 5.2449 24.6949 5.90175 25.2145 6.62829C25.7402 7.36856 26.1647 8.19543 26.4453 9.0932C26.5561 9.44441 26.6325 9.7941 26.6804 10.1447C26.7298 10.4998 26.7422 10.855 26.7261 11.2077C26.7084 11.5652 26.6541 11.9217 26.5676 12.2714C26.4748 12.625 26.3488 12.9747 26.1809 13.3128C26.0094 13.6602 25.8036 13.9837 25.561 14.2825C25.315 14.5889 25.0312 14.8668 24.7166 15.1131C24.3903 15.3672 24.0346 15.5855 23.6433 15.7662C23.2444 15.95 22.81 16.0951 22.3521 16.1923C21.9888 16.2687 21.616 16.3049 21.2402 16.3004C20.8584 16.2974 20.4749 16.2502 20.0945 16.1637C19.7093 16.0758 19.3298 15.9445 18.9641 15.7747C18.593 15.6018 18.2381 15.3879 17.8986 15.1347C17.5647 14.8808 17.2475 14.5951 16.9662 14.2855C16.6856 13.9745 16.4389 13.6394 16.2325 13.2867C16.0291 12.9355 15.8682 12.5687 15.7601 12.1904C15.6503 11.8174 15.6279 11.2424 15.6402 10.8604C15.6471 10.641 15.7446 10.1824 15.8079 10.0095C15.8729 9.83891 15.9455 9.67145 16.0246 9.51003C16.1018 9.35027 16.1853 9.19669 16.2665 9.05383C16.6182 8.43937 17.0807 7.94681 17.6133 7.57555C18.126 7.21891 18.7005 6.97406 19.2988 6.84055C19.8795 6.71323 20.4795 6.68305 21.0834 6.77025C21.637 6.84915 22.1465 7.0243 22.6212 7.27518C22.7016 7.31757 22.7803 7.35242 22.861 7.37022C22.9397 7.38637 23.0156 7.38953 23.0868 7.37943C23.1578 7.36856 23.2235 7.34473 23.28 7.30762C23.3371 7.27201 23.382 7.22344 23.4137 7.16173C23.4471 7.10229 23.4641 7.03516 23.4701 6.96411C23.4701 6.89381 23.4624 6.82124 23.4393 6.74868C23.4168 6.67611 23.382 6.60521 23.3341 6.53793C23.2877 6.46928 23.228 6.40668 23.161 6.35116Z" fill="#52BEA8"/>
</svg>
