<?xml version="1.0" encoding="UTF-8"?><svg width="145.61mm" height="168.42mm" version="1.1" viewBox="0 0 550.32981 636.55663" xmlns="http://www.w3.org/2000/svg" xmlns:cc="http://creativecommons.org/ns#" xmlns:dc="http://purl.org/dc/elements/1.1/" xmlns:rdf="http://www.w3.org/1999/02/22-rdf-syntax-ns#" xmlns:xlink="http://www.w3.org/1999/xlink"><metadata><rdf:RDF><cc:Work rdf:about=""><dc:format>image/svg+xml</dc:format><dc:type rdf:resource="http://purl.org/dc/dcmitype/StillImage"/><dc:title>Moon Logo</dc:title></cc:Work></rdf:RDF></metadata><title>Moon Logo</title><g transform="matrix(1.1168 0 0 1.0609 -223.35 -212.19)"><g transform="translate(-3102,-6459)"><clipPath id="f" clip-rule="evenodd"><path d="m3102 6459h1e3v1e3h-1e3z" fill="#fff"/></clipPath><g clip-path="url(#f)"><use transform="translate(3302,6659)" width="100%" height="100%" fill="url(#d)" xlink:href="#e"/></g></g></g><defs><linearGradient id="d" x2="1" gradientTransform="matrix(348 600 -195.66 352.44 97.83 -176.22)" gradientUnits="userSpaceOnUse"><stop stop-color="#007EFF" offset="0"/><stop stop-color="#B22BFF" offset=".97238"/></linearGradient><path id="e" d="m491.47 530.96c6.198-5.145 3.529-15.01-4.221-17.208-125.37-35.561-217.25-151.37-217.25-288.75 0-79.162 30.508-151.16 80.353-204.78 5.473-5.886 2.646-15.667-5.301-16.864-14.695-2.2131-29.74-3.3603-45.052-3.3603-165.69 0-300 134.31-300 300s134.31 300 300 300c72.788 0 139.52-25.923 191.47-69.039z" fill-rule="evenodd"/></defs></svg>
