<svg width="32" height="32" viewBox="0 0 32 32" fill="none" xmlns="http://www.w3.org/2000/svg">
<rect width="32" height="32" fill="#666666"/>
<path d="M24.4444 4.88889C25.6444 4.93333 26.7556 4.93333 27.7333 4.93333C28.7556 4.93333 30.1333 4.93333 31.9556 4.88889L31.8667 5.68889L29.6444 6.31111C29.3778 6.4 29.2 6.57778 29.1556 6.84444C28.9778 7.51111 28.8 8.4 28.6222 9.42222L26.2667 21.8667C26.0444 23.1111 25.8667 24.1333 25.6889 24.9778C25.6444 25.2 25.7778 25.3778 26 25.4667L27.9556 26.0444L27.8222 26.8444C26.0444 26.8 24.4 26.8 22.9333 26.8C21.4667 26.8 19.9556 26.8 18.4889 26.8444L18.5778 26.0444L20.4444 25.5111C20.7111 25.4222 20.8889 25.2444 20.9778 24.9778C21.1556 24.1778 21.3778 23.1111 21.6 21.9111L24 9.24444L13.4667 26.7556L12 26.8889L8.22222 9.37778L5.86666 21.8222C5.64444 23.0667 5.46667 24.0889 5.33333 24.8889C5.28889 25.2 5.37778 25.3778 5.64444 25.4222L7.42222 25.9556L7.28889 26.7556C5.91111 26.7111 4.75555 26.7111 3.91111 26.7111C3.11111 26.7111 2 26.7111 0.444443 26.7556L0.533332 25.9556L2.71111 25.3778C3.02222 25.2889 3.2 25.1556 3.24444 24.8889C3.42222 24.0444 3.64444 23.0222 3.86666 21.7778L6.22222 9.33333C6.4 8.31111 6.57778 7.42222 6.66667 6.75556C6.71111 6.48889 6.62222 6.31111 6.4 6.22222L4.4 5.68889L4.53333 4.88889C6.35555 4.93333 7.73333 4.93333 8.71111 4.93333C9.77778 4.93333 10.8 4.93333 11.8222 4.88889L14.7556 18.5333C14.8889 19.1556 14.9778 19.7778 15.1111 20.3556C15.4222 19.7778 15.7778 19.2444 16.0889 18.7111L24.4444 4.88889Z" fill="white"/>
</svg>
