<svg width="32" height="32" viewBox="0 0 32 32" fill="none" xmlns="http://www.w3.org/2000/svg">
<g clip-path="url(#clip0_1717:12)">
<path fill-rule="evenodd" clip-rule="evenodd" d="M26.7642 4.35313L4.62723 0.0748058C4.03601 -0.0427181 3.42527 -0.0215254 2.8438 0.136692C2.26232 0.294911 1.72621 0.585769 1.27829 0.986038C0.830359 1.3863 0.483035 1.88489 0.264047 2.44197C0.0450606 2.99905 -0.0395184 3.59919 0.0170658 4.19447L2.24079 28.3154C2.28282 28.8169 2.42418 29.3053 2.65679 29.7525C2.88938 30.1997 3.20865 30.5971 3.59634 30.9217C3.984 31.2465 4.43243 31.4923 4.91601 31.6448C5.39957 31.7975 5.90872 31.854 6.41435 31.8112C6.66134 31.7916 6.90574 31.7475 7.14384 31.6795L29.1398 25.5995C30.0515 25.3501 30.8391 24.7774 31.3529 23.9902C31.8668 23.203 32.0713 22.2561 31.9276 21.3293L29.8503 7.56658C29.7405 6.77642 29.3825 6.04066 28.8271 5.4638C28.2717 4.88691 27.5468 4.49829 26.756 4.35313H26.7642Z" fill="#C82027"/>
<path d="M18.0045 23.1537H14.0073V14.6643C14.0073 13.6182 13.831 12.8303 13.4649 12.3059C13.2783 12.0434 13.0264 11.8331 12.7337 11.6956C12.441 11.558 12.1175 11.4978 11.7944 11.5207C10.7729 11.5207 10.0299 11.8927 9.56523 12.6367C9.1015 13.3843 8.87099 14.6078 8.87099 16.3153V23.1537H4.88184V8.63266H7.93811L8.48048 10.4908H8.70285C9.10157 9.80826 9.69251 9.25593 10.4032 8.90156C11.1973 8.51442 12.0731 8.32082 12.9578 8.33686C15.1508 8.33686 16.6369 9.04767 17.4161 10.4693H17.7686C18.1753 9.78477 18.7812 9.23825 19.5069 8.90156C20.3148 8.51868 21.2014 8.3272 22.0968 8.34224C23.7564 8.34224 25.012 8.76442 25.8635 9.60879C26.7151 10.4532 27.1417 11.8076 27.1435 13.672V23.1537H23.1245V14.6643C23.1245 13.6182 22.9483 12.8303 22.5822 12.3059C22.3951 12.0432 22.1428 11.8328 21.8497 11.6952C21.5565 11.5577 21.2324 11.4975 20.909 11.5207C19.9291 11.5207 19.1978 11.8667 18.7151 12.5587C18.2323 13.2507 17.9892 14.3514 17.9856 15.8609L18.0045 23.1537Z" fill="white"/>
</g>
<defs>
<clipPath id="clip0_1717:12">
<rect width="32" height="32" fill="white"/>
</clipPath>
</defs>
</svg>
