<svg xmlns="http://www.w3.org/2000/svg" width="108" height="108" viewBox="0 0 108 108"><path fill="#FF9600" d="M54 108l54-43.199v-43.2L81 0 54 21.601 27 0 0 21.601v43.2"/><path fill="#BC1B00" d="M26.861 86.29L54 108l27.139-21.71L54 64.801"/><path fill="#FFC600" d="M27 0v43.2L0 21.601"/><path fill="#FF9000" d="M27 43.2v43.2L0 64.801"/><path fill="#FF7200" d="M54 21.601v43.2L27 43.2"/><path fill="#FFCE25" d="M81 0v43.2L54 21.601"/><path fill="#E12D1A" d="M81 43.2v43.2L54 64.801"/><path fill="#BC1B00" d="M54 64.801V108L27 86.4"/><path fill="#FFC600" d="M108 21.601v43.2L81 43.2"/><path fill="#FF8A00" d="M81 43.2v43.2l27-21.599"/><path fill="#FFE748" d="M81 0v43.2l27-21.599"/><path fill="#FF9600" d="M54 21.601v43.2L81 43.2"/><path fill="#FF9C00" d="M27 0v43.2l27-21.599"/><path fill="#DD2A00" d="M27 43.2v43.2l27-21.599"/><path fill="#B1150A" d="M54 64.801V108l27-21.6"/><path fill="#FFA800" d="M0 21.601v43.2L27 43.2"/></svg>