<svg width="32" height="32" viewBox="0 0 32 32" fill="none" xmlns="http://www.w3.org/2000/svg">
<g clip-path="url(#clip0_2669_6)">
<path fill-rule="evenodd" clip-rule="evenodd" d="M26.9716 21.3117C27.1068 21.234 27.2191 21.1222 27.2975 20.9874C27.3758 20.8526 27.4173 20.6996 27.4178 20.5437L27.4338 15.3997C27.4343 15.2438 27.4758 15.0907 27.5542 14.956C27.6325 14.8211 27.7448 14.7093 27.88 14.6317L30.6685 13.0299C30.8036 12.9523 30.9568 12.9116 31.1126 12.9119C31.2685 12.9121 31.4215 12.9533 31.5564 13.0314C31.6913 13.1095 31.8033 13.2217 31.8812 13.3566C31.959 13.4916 32 13.6447 32 13.8006V23.1526C32 23.3089 31.9587 23.4625 31.8804 23.5978C31.8021 23.7331 31.6894 23.8454 31.5538 23.9232L21.0302 29.9677C20.8958 30.0448 20.7436 30.0856 20.5886 30.0856C20.4336 30.0858 20.2813 30.0455 20.1467 29.9686L11.888 25.245C11.752 25.1672 11.6389 25.055 11.5602 24.9195C11.4815 24.784 11.4401 24.6301 11.44 24.4735V19.7579C11.44 19.7526 11.4462 19.749 11.4516 19.7517C11.456 19.7544 11.4622 19.7517 11.4622 19.7455V19.7401C11.4622 19.7366 11.464 19.733 11.4676 19.7312L18.2694 15.8237C18.2756 15.8201 18.2729 15.8104 18.2658 15.8104C18.2639 15.8104 18.2622 15.8096 18.2608 15.8082C18.2594 15.8069 18.2587 15.8051 18.2587 15.8033L18.272 11.1801C18.2726 11.0238 18.232 10.8701 18.1542 10.7345C18.0765 10.5988 17.9644 10.4861 17.8291 10.4077C17.6939 10.3292 17.5404 10.2879 17.384 10.2877C17.2277 10.2875 17.0741 10.3286 16.9387 10.4068L11.8836 13.3197C11.7486 13.3974 11.5958 13.4383 11.44 13.4383C11.2844 13.4383 11.1314 13.3974 10.9965 13.3197L5.92536 10.3997C5.79026 10.3219 5.63707 10.281 5.48117 10.2811C5.32527 10.2812 5.17214 10.3224 5.03715 10.4003C4.90215 10.4783 4.79005 10.5905 4.71207 10.7254C4.63411 10.8604 4.59301 11.0136 4.59292 11.1695V19.525C4.59302 19.6808 4.55221 19.8337 4.47456 19.9688C4.39692 20.1038 4.28518 20.216 4.15051 20.2943C4.01584 20.3725 3.86299 20.4139 3.70726 20.4144C3.55152 20.4151 3.39837 20.3747 3.26314 20.2975L0.448916 18.6886C0.312607 18.6107 0.199347 18.4981 0.120658 18.3623C0.0419676 18.2264 0.000653567 18.0722 0.000916777 17.9152L0.0258057 3.31079C0.0261444 3.15509 0.0673719 3.00221 0.145362 2.86747C0.223351 2.73271 0.335367 2.62081 0.470198 2.54295C0.605029 2.46509 0.757945 2.42402 0.913638 2.42383C1.06934 2.42364 1.22235 2.46436 1.35736 2.5419L10.9974 8.07879C11.1321 8.15614 11.2847 8.19685 11.44 8.19685C11.5954 8.19685 11.748 8.15614 11.8827 8.07879L21.52 2.5419C21.6552 2.46425 21.8085 2.42353 21.9644 2.42383C22.1204 2.42413 22.2734 2.46545 22.4084 2.54362C22.5432 2.62179 22.6552 2.73407 22.733 2.8692C22.8109 3.00432 22.8518 3.15753 22.8516 3.31346V17.9215C22.8517 18.0777 22.8105 18.2312 22.7323 18.3665C22.6542 18.5018 22.5417 18.6142 22.4062 18.6921L17.3591 21.5988C17.2236 21.6769 17.111 21.7895 17.0329 21.925C16.9548 22.0607 16.9138 22.2144 16.9142 22.3709C16.9145 22.5274 16.9562 22.681 17.035 22.8162C17.1137 22.9514 17.2268 23.0635 17.3627 23.141L20.1467 24.7259C20.2813 24.8024 20.4334 24.8426 20.5883 24.8423C20.743 24.842 20.8951 24.8013 21.0294 24.7241L26.9716 21.3117ZM27.5556 8.20768C27.5557 8.36487 27.5975 8.51922 27.6767 8.65499C27.756 8.79076 27.8698 8.90307 28.0066 8.9805C28.1434 9.05801 28.2983 9.09774 28.4555 9.09578C28.6126 9.09383 28.7665 9.05027 28.9014 8.96947L31.568 7.36945C31.6997 7.29057 31.8086 7.17895 31.8844 7.04546C31.96 6.91196 31.9999 6.76114 32 6.60768V3.34723C31.9998 3.19011 31.9578 3.03587 31.8785 2.90022C31.7992 2.76458 31.6854 2.65237 31.5486 2.57505C31.4118 2.49771 31.257 2.45802 31.0999 2.46C30.9428 2.46199 30.789 2.50558 30.6542 2.58635L27.9876 4.18634C27.8559 4.26522 27.747 4.37684 27.6712 4.51034C27.5956 4.64383 27.5557 4.79466 27.5556 4.94811V8.20857V8.20768Z" fill="#007FFF"/>
</g>
<defs>
<clipPath id="clip0_2669_6">
<rect width="32" height="32" fill="white"/>
</clipPath>
</defs>
</svg>
