<svg width="32" height="32" viewBox="0 0 32 32" fill="none" xmlns="http://www.w3.org/2000/svg">
<path d="M31.458 29.8368H23.2825C23.2166 29.8357 23.1516 29.8216 23.0912 29.7953C23.0308 29.769 22.9762 29.731 22.9306 29.6835C22.8849 29.636 22.8492 29.5799 22.8253 29.5185C22.8014 29.4571 22.79 29.3916 22.7915 29.3257V13.131L16.4327 18.7995L10.0574 13.1163V29.3257C10.0589 29.3916 10.0475 29.4571 10.0236 29.5185C9.99973 29.5799 9.96394 29.636 9.9183 29.6835C9.87266 29.731 9.81807 29.769 9.75767 29.7953C9.69727 29.8216 9.63226 29.8357 9.56639 29.8368H1.40639C1.34054 29.8358 1.27554 29.8218 1.21513 29.7956C1.15472 29.7694 1.10009 29.7315 1.05439 29.6841C1.00827 29.6368 0.972126 29.5807 0.948097 29.5191C0.924069 29.4575 0.912644 29.3918 0.914502 29.3257V3.25394C0.912644 3.18788 0.924069 3.12212 0.948097 3.06056C0.972126 2.99899 1.00827 2.94288 1.05439 2.89554C1.1471 2.80038 1.27355 2.74553 1.40639 2.74286H9.90467C10.0146 2.74327 10.1212 2.78063 10.2073 2.84892L16.4318 7.9296L22.7906 13.1173V13.131L22.8062 13.1173L16.4327 7.9296L22.6571 2.8608C22.7418 2.79246 22.8473 2.75505 22.9561 2.75474H31.459C31.5897 2.7576 31.7142 2.81137 31.8059 2.9046C31.8976 2.99784 31.9492 3.12318 31.9499 3.25394V29.3257C31.9515 29.3916 31.94 29.4571 31.9162 29.5185C31.8923 29.5799 31.8565 29.636 31.8109 29.6835C31.7652 29.731 31.7106 29.769 31.6502 29.7953C31.5898 29.8216 31.5248 29.8357 31.459 29.8368H31.458Z" fill="url(#paint0_linear)"/>
<path d="M22.9598 2.75509C22.8496 2.75432 22.7427 2.79181 22.6571 2.86114L16.4318 7.92994L22.8062 13.1167V29.3261C22.8046 29.392 22.8161 29.4576 22.84 29.5191C22.8639 29.5805 22.8998 29.6366 22.9455 29.6842C22.9913 29.7317 23.046 29.7697 23.1065 29.7959C23.167 29.8222 23.2321 29.8362 23.298 29.8371H31.458C31.524 29.8362 31.5891 29.8222 31.6496 29.7959C31.7101 29.7697 31.7648 29.7317 31.8106 29.6842C31.8563 29.6366 31.8922 29.5805 31.9161 29.5191C31.94 29.4576 31.9515 29.392 31.9499 29.3261V3.25429C31.951 3.18858 31.9391 3.1233 31.9149 3.0622C31.8907 3.00109 31.8547 2.94537 31.8089 2.89823C31.7631 2.85108 31.7085 2.81344 31.6481 2.78747C31.5877 2.76149 31.5228 2.74769 31.4571 2.74686L22.9598 2.75509Z" fill="url(#paint1_linear)"/>
<path d="M10.0574 13.1154L16.4318 7.92869L10.2073 2.85989C10.1207 2.79178 10.0139 2.75446 9.90377 2.75383H1.4064C1.27527 2.75575 1.15017 2.80919 1.05813 2.9026C0.966085 2.99601 0.914496 3.12189 0.91451 3.25303V29.3248C0.912933 29.3907 0.924439 29.4563 0.948362 29.5178C0.972285 29.5793 1.00815 29.6354 1.05389 29.6829C1.09963 29.7304 1.15433 29.7684 1.21483 29.7947C1.27534 29.8209 1.34045 29.8349 1.4064 29.8359H9.5664C9.63227 29.8348 9.69728 29.8207 9.75768 29.7944C9.81808 29.7681 9.87267 29.7301 9.91831 29.6826C9.96395 29.6351 9.99974 29.579 10.0236 29.5176C10.0475 29.4562 10.0589 29.3907 10.0574 29.3248V23.7824V13.1154Z" fill="#483B85"/>
<path d="M16.4318 7.9296L10.0574 13.1163L16.4318 18.795L22.8062 13.1163L16.4318 7.9296Z" fill="#3A306B"/>
<defs>
<linearGradient id="paint0_linear" x1="2.80749" y1="23.1988" x2="38.7972" y2="-0.758914" gradientUnits="userSpaceOnUse">
<stop stop-color="#46C6F0"/>
<stop offset="0.81" stop-color="#2F56A1"/>
<stop offset="1" stop-color="#2A3B8E"/>
</linearGradient>
<linearGradient id="paint1_linear" x1="-5.0611" y1="29.8371" x2="34.8177" y2="21.8805" gradientUnits="userSpaceOnUse">
<stop stop-color="#CC499E"/>
<stop offset="1" stop-color="#483B85"/>
</linearGradient>
</defs>
</svg>
