<svg width="32" height="32" viewBox="0 0 32 32" fill="none" xmlns="http://www.w3.org/2000/svg">
<path d="M16 32C24.8366 32 32 24.8366 32 16C32 7.16344 24.8366 0 16 0C7.16344 0 0 7.16344 0 16C0 24.8366 7.16344 32 16 32Z" fill="#E82425"/>
<path d="M5.15135 19.4906H6.44555L6.27935 20.5094C6.70632 19.8504 7.3471 19.3938 8.21342 19.3938C9.17523 19.3938 9.79316 19.8135 9.9231 20.5933C10.3987 19.8587 11.2034 19.4094 12.0721 19.3938C13.3663 19.3938 14.0665 20.2334 13.8649 21.4568L13.2355 25.535H11.9413L12.523 21.7817C12.6538 21.0263 12.2975 20.5226 11.5383 20.5226C10.6471 20.5226 10.0187 21.3139 9.84 22.4774L9.35393 25.5348H8.07122L8.6529 21.7815C8.78374 21.0262 8.44 20.5223 7.67974 20.5223C6.78968 20.5223 6.16013 21.3252 5.98258 22.4772L5.49548 25.5344H4.20193L5.15135 19.4906Z" fill="white"/>
<path d="M19.4026 25.4399H18.0954L18.2516 24.4325C17.7418 25.1144 16.9448 25.5218 16.0934 25.5353C14.8103 25.5353 14.0423 24.6841 14.2583 23.3768L14.8773 19.3941H16.1888L15.6013 23.0755C15.4817 23.831 15.8772 24.359 16.6441 24.359C17.6524 24.359 18.4068 23.4953 18.6375 22.0449L19.0572 19.3938H20.3635L19.4026 25.4399Z" fill="white"/>
<path d="M23.8565 20.6172C23.0175 20.6172 22.0213 21.4084 21.7299 23.2793L21.3653 25.5353H20.0404L21.0123 19.4912H22.3372L22.1426 20.6906C22.5317 19.9706 23.4186 19.3947 24.2085 19.3947C24.4399 19.3885 24.6705 19.4242 24.8889 19.4996L24.6093 20.7588C24.371 20.6605 24.1147 20.6122 23.8565 20.6172Z" fill="white"/>
<path d="M30.0237 21.9628C30.2692 20.4361 29.2639 19.3941 27.7206 19.3941C26.4474 19.3941 25.2785 20.1524 25.0208 21.3364L26.155 21.5435C26.2715 20.8338 26.8443 20.404 27.5693 20.404C28.3639 20.404 28.9479 20.8546 28.8435 21.5881L28.8314 21.6918L27.5693 21.7954C25.5587 21.985 24.5657 22.6945 24.5657 23.9261C24.5657 24.8265 25.3021 25.5359 26.3769 25.5359C27.1951 25.5359 27.9662 25.1456 28.3754 24.5414L28.2352 25.4573H28.7986C29.1199 25.0198 29.4194 24.5662 29.6955 24.0983L30.0237 21.9628ZM28.6208 22.9706L28.6444 22.8401C28.4112 23.9174 27.768 24.5565 26.775 24.5565C26.1613 24.5565 25.8156 24.2458 25.8156 23.8108C25.8156 23.2194 26.3423 22.888 27.4294 22.7813L28.68 22.6507L28.6208 22.9706Z" fill="white"/>
</svg>
