<svg width="145" height="145" viewBox="0 0 145 145" fill="none" xmlns="http://www.w3.org/2000/svg">
<g clip-path="url(#clip0_15:439)">
<path d="M119.153 56.9C116.753 52.2 111.553 45.3 111.553 45.3C96.2528 23 74.5528 0 57.0528 0C39.5528 0 37.8528 20.4 48.7528 38.4C48.7528 38.4 42.3528 35.1 37.0528 38.7C31.7528 42.3 27.6528 57 43.9528 77.7C43.9528 77.7 34.4528 71.5 28.4528 76.9C22.5528 82.4 18.3528 105.7 44.1528 120.2C54.0528 125.7 68.6528 131.1 91.5528 126.2C88.1528 129.5 84.0528 133.6 82.4528 135.3C79.6528 138.5 79.5528 141.2 80.9528 142.7C82.5528 144.3 84.9528 145.3 88.3528 143C91.7528 140.6 105.653 125.1 106.453 124C107.853 122.2 108.153 118.8 105.553 116.7C105.553 116.7 92.2528 103.2 90.5528 101.6C88.8528 100 86.2528 98.1 83.3528 101C80.4528 103.9 80.8528 105.8 83.0528 108.2C84.3528 109.7 88.8528 114 92.2528 117.2C82.7528 118.9 64.2528 120.7 50.1528 112.6C30.4528 101.4 33.5528 90.1 35.8528 87.5C40.6528 81.9 54.6528 92.2 59.8528 96.8C62.3528 99 66.1528 102.1 68.9528 99.6C70.6528 98.1 70.7528 94.7 66.1528 89.8C60.9528 84.3 35.2528 56.1 43.9528 49.7C51.5528 44.1 62.5528 58.5 66.1528 62.4C69.2528 65.7 72.0528 66.4 73.6528 64.9C76.1528 62.6 75.0528 59.6 72.9528 57.1C70.8528 54.6 44.9528 26.5 55.7528 16.4C66.4528 6.3 92.4528 34.8 99.9528 44.4C101.653 46.6 108.653 56.3 111.253 60.2C115.753 67.1 121.953 62.3 119.153 56.9Z" fill="#55AAE0"/>
</g>
<defs>
<clipPath id="clip0_15:439">
<rect width="144.35" height="144.35" fill="white"/>
</clipPath>
</defs>
</svg>
