<svg width="32" height="32" viewBox="0 0 32 32" fill="none" xmlns="http://www.w3.org/2000/svg">
<g clip-path="url(#clip0_2359_93)">
<path d="M2.78774 9.7717C2.76881 10.3389 2.84703 10.9648 3.08882 11.4574C3.39688 12.0843 3.51297 12.7762 3.70101 13.4522C3.94804 14.3391 4.17032 15.1921 4.68113 15.957C5.1382 16.642 5.37941 17.4379 5.80458 18.1358C6.19771 18.7808 6.68464 19.3282 7.02446 20.0091C7.27178 20.505 7.56659 20.9308 7.89286 21.3611C8.24535 21.8266 8.50972 22.3516 8.84924 22.8267C9.06686 23.1315 9.36341 23.3571 9.56238 23.6669C9.92827 24.237 9.98143 24.9981 10.3773 25.543C10.805 26.1322 11.3894 26.5825 11.8493 27.1507C12.0739 27.429 12.3638 27.7234 12.5405 28.0278C12.6544 28.2246 12.6072 28.457 12.6943 28.6554C12.761 28.807 12.9212 28.8888 12.9616 29.0505" stroke="#002857" stroke-width="0.1"/>
<path d="M8.56091 8.18302C8.78828 8.75732 8.8917 9.4547 9.00677 10.0613C9.24113 11.2988 9.45656 12.5466 9.69733 13.7827C9.87678 14.7046 9.93912 15.4787 10.327 16.3189C10.6311 16.9784 10.7577 17.7213 11.1063 18.3607C11.3942 18.8897 11.7145 19.4166 12.0302 19.9416C12.2819 20.3601 12.7089 20.5975 13.0027 20.9805C13.4677 21.5858 13.5871 22.4106 14.0666 23.0236C14.5244 23.6072 15.0032 24.1741 15.4154 24.798C15.7127 25.2478 16.0363 25.4044 16.4069 25.7263C16.7275 26.0053 17.1634 26.754 17.6442 26.7333" stroke="#002857" stroke-width="0.1"/>
<path d="M13.5602 5.73493C13.7573 6.312 13.8053 7.13826 13.8495 7.75097C13.9264 8.81448 13.936 9.88309 13.9821 10.9473C14.0353 12.1455 14.0257 13.3683 14.2901 14.5362C14.4287 15.1511 14.7968 15.6891 15.1025 16.2229C15.407 16.7544 15.5873 17.3562 15.9973 17.8197C16.7396 18.6589 17.6473 19.1747 18.1985 20.1748C18.5781 20.8634 19.1391 21.4849 19.7397 22.0131C20.2404 22.4528 20.6002 23.0776 21.1297 23.4619" stroke="#002857" stroke-width="0.1"/>
<path d="M18.4185 6.02862C18.3421 7.11555 18.4535 8.28031 18.4535 9.38034L18.4535 12.9213C18.4535 13.5718 18.4545 14.2221 18.4535 14.8729C18.4532 15.141 18.4241 15.4411 18.5144 15.7002C18.6031 15.9518 18.7866 16.0209 18.9358 16.206C19.2654 16.6139 19.4789 17.0267 19.8457 17.4067C19.9838 17.5495 20.1151 17.6849 20.2572 17.823C20.9343 18.484 21.3531 19.2867 21.9793 19.9829C22.2224 20.2543 22.5842 20.3524 22.8216 20.6123C22.9525 20.7562 23.036 20.9443 23.1633 21.0967C23.4916 21.4901 23.9493 21.9525 24.368 22.2371" stroke="#002857" stroke-width="0.1"/>
<path d="M20.1788 5.99354C20.001 6.68378 20.1326 7.57768 20.1007 8.29149C20.0456 9.53524 19.896 10.7387 19.7294 11.9676C19.6162 12.8035 19.7192 13.6496 19.5913 14.4883C19.5159 14.9805 19.397 15.4614 19.3382 15.9578C19.3105 16.1851 19.3229 16.4951 19.2317 16.6764" stroke="#002857" stroke-width="0.1"/>
<path d="M21.9392 6.59352C21.9331 8.60374 21.4248 10.4987 21.0929 12.4464C21.0086 12.9445 20.7792 13.4292 20.6014 13.9049C20.4475 14.3157 20.355 14.7284 20.1791 15.1323C19.972 15.6071 19.6903 16.2782 19.2284 16.5515" stroke="#002857" stroke-width="0.1"/>
<path d="M19.3691 16.8693C21.0216 15.9754 21.9744 14.0049 22.3965 12.2469C22.6353 11.2497 22.5997 10.1638 22.7146 9.14158C22.789 8.47898 22.7676 7.76546 22.9246 7.12322" stroke="#002857" stroke-width="0.1"/>
<path d="M25.4309 8.43156C25.4213 10.6323 24.6769 12.4895 24.0338 14.554C23.7777 15.3788 23.7123 16.2081 23.1875 16.9491C22.5922 17.7876 21.5179 17.9856 20.5822 18.1799" stroke="#002857" stroke-width="0.1"/>
<path d="M30.3182 11.961C30.3597 12.5855 30.1652 13.3552 29.9652 13.944C29.851 14.2818 29.6901 14.6187 29.5538 14.951C29.3747 15.3868 29.2677 15.8802 29.0572 16.301C28.8612 16.6931 28.5417 17.0236 28.3103 17.3989C28.057 17.8092 27.8854 18.263 27.643 18.6739C27.3137 19.2337 27.076 19.5917 26.6055 20.0169C26.2428 20.3439 25.9783 20.7365 25.6442 21.0799C25.4521 21.2781 24.2948 22.228 24.1567 22.0246" stroke="#002857" stroke-width="0.1"/>
<path d="M27.6073 10.0541C27.6433 10.8782 27.4725 11.7181 27.354 12.5252C27.2541 13.2064 26.9537 13.8315 26.752 14.479C26.5692 15.0653 26.4017 15.5557 26.0429 16.0656C25.7531 16.4775 25.4166 16.869 25.1833 17.3047C24.8978 17.8384 24.6175 18.3743 24.2165 18.8395C23.8792 19.2304 23.5435 19.5783 23.0637 19.7913C22.7753 19.9187 22.4464 19.9165 22.1562 20.0371C21.8716 20.1551 21.6619 20.3897 21.3831 20.5178C21.0728 20.6606 20.733 20.8196 20.4114 20.9368C19.9755 21.0953 19.5009 21.1761 19.0763 21.3602C18.7269 21.5114 18.4405 21.7864 18.0802 21.9122C17.3102 22.1797 16.5425 22.2859 15.8033 22.6452C14.9573 23.0556 14.0765 23.1861 13.2218 23.5318C12.7585 23.7198 12.2663 23.8474 11.8054 24.0461C11.3377 24.2478 10.9983 24.6499 10.5167 24.8172C9.97729 25.0053 9.24114 24.9567 8.67046 24.9564C7.92339 24.9554 7.1584 25.0683 6.42021 24.9096C5.54467 24.7205 5.23588 24.0756 4.65034 23.4913C4.41845 23.2595 4.30775 22.9868 4.13296 22.7209C3.86801 22.3176 3.51392 21.9887 3.21008 21.6406" stroke="#002857" stroke-width="0.1"/>
<path d="M24.2982 18.1053C24.4066 19.1046 24.0438 20.1803 23.7759 21.1266C23.5332 21.9847 23.3303 22.8153 23.1876 23.6798C23.1121 24.136 22.7325 24.6777 22.2417 24.7955C21.8248 24.8959 21.3156 24.5647 21.0356 24.3821" stroke="#002857" stroke-width="0.1"/>
<path d="M18.0662 20.1882C18.0275 21.5991 18.1271 23.0227 18.0741 24.4334C18.0445 25.2374 18.0522 26.1379 17.5735 26.7917" stroke="#002857" stroke-width="0.1"/>
<path d="M11.061 22.8371C11.0635 24.2698 11.0523 25.8065 11.3161 27.2149C11.4378 27.8645 11.7563 28.9472 12.4694 29.1929" stroke="#002857" stroke-width="0.1"/>
<path d="M0.780953 10.6198C0.755172 11.1757 0.95545 11.915 1.0711 12.4652C1.21137 13.133 1.5187 13.7563 1.8256 14.3613C2.46766 15.6254 2.85438 16.9461 3.88723 17.9689C4.32726 18.405 4.69213 18.9555 5.17075 19.3509C5.50285 19.6252 5.85782 19.8639 6.19574 20.1266C6.63402 20.4676 7.19757 20.6425 7.61065 20.9657" stroke="#002857" stroke-width="0.1"/>
<path d="M30.104 15.3512C30.1589 16.0154 30.1241 17.0509 29.8421 17.6594C29.6468 18.0808 29.3116 18.5317 29.0538 18.9366C28.7115 19.4733 28.5523 20.0216 28.2732 20.5898C27.6995 21.7591 26.9389 22.617 25.8818 23.3671" stroke="#002857" stroke-width="0.1"/>
<path d="M31.3741 14.6798C31.438 15.5222 31.1166 16.3709 30.7891 17.1295C30.491 17.8216 29.8682 18.0187 29.2105 18.337C28.7189 18.5747 28.3561 18.8121 27.9152 19.1391C27.4133 19.5111 26.7064 19.7296 26.1143 19.9099C25.452 20.1111 24.7996 20.342 24.1377 20.5344C23.4351 20.7391 22.7474 20.9647 22.1351 21.4036C21.6687 21.7373 21.2416 21.6877 20.6861 21.8979C19.9047 22.1929 19.2045 22.6427 18.3831 22.8283C17.9821 22.9194 17.5073 22.8702 17.134 23.0496C16.7958 23.2126 16.5329 23.5449 16.1871 23.7141C15.6762 23.963 15.1434 24.1762 14.6304 24.4288C13.8217 24.827 13.0958 25.4528 12.1949 25.5474C11.3256 25.6388 10.4396 25.7278 9.58343 25.8484C8.74212 25.9674 7.85448 26.1313 7.00793 25.9661C6.0549 25.7796 5.46338 25.2998 4.79395 24.6027" stroke="#002857" stroke-width="0.1"/>
<path d="M5.67419 22.6252C5.72226 23.4687 5.90288 24.2438 6.06922 25.0641C6.12355 25.3303 6.16477 25.6134 6.22813 25.8824C6.32062 26.2763 6.50779 26.4567 6.73239 26.7626C7.22558 27.434 7.70843 28.286 8.45813 28.736C9.05066 29.0911 9.84231 29.0943 10.4978 29.2626C11.2885 29.4666 12.0978 29.1941 12.8877 29.0971C13.6148 29.0075 14.3463 28.5543 15.0542 28.3191C16.347 27.8896 17.4456 27.284 18.6451 26.6406C19.1932 26.3464 19.796 26.2066 20.3491 25.9243C21.3029 25.4386 22.2812 24.9917 23.2666 24.5717C24.0143 24.2534 24.7007 23.9059 25.4312 23.5682C26.0109 23.2995 26.6158 23.123 27.1958 22.8373C27.7169 22.5803 27.7923 22.0706 28.0383 21.5712C28.3462 20.9464 28.6954 20.4963 29.1711 20.015C29.6114 19.5694 29.8185 18.9913 30.0988 18.439C30.6396 17.3731 30.8578 16.1752 30.8578 14.986" stroke="#002857" stroke-width="0.1"/>
<path d="M7.75125 28.3105C9.68615 28.4538 11.7403 28.3871 13.6549 27.9867C15.2415 27.6547 16.7656 26.9784 18.3207 26.5198C19.0944 26.292 19.7526 25.8054 20.4522 25.4213C21.0589 25.0888 21.6333 24.7119 22.257 24.3805C23.189 23.8856 24.0757 23.3989 25.0669 23.0268C25.676 22.7983 26.9532 22.4744 27.2631 21.8856C27.5362 21.3661 27.4745 20.3848 27.1253 19.9163C26.8445 19.5396 26.4249 19.0264 26.0268 18.7704C25.726 18.578 25.3614 18.524 25.0405 18.3647C24.3203 18.007 23.532 17.3518 22.9798 16.7564C22.532 16.2739 22.3657 15.636 21.8387 15.252C21.3196 14.8739 20.4028 14.5884 19.7633 14.5107C18.7093 14.383 17.5032 14.2561 16.4484 14.3898C15.1395 14.5562 13.7833 14.9765 12.5059 15.3174C10.489 15.8558 8.45564 16.3894 6.59022 17.3471C5.77002 17.7677 4.92871 18.188 4.51199 19.0481C4.20713 19.677 4.36021 20.5677 4.36021 21.2483" stroke="#002857" stroke-width="0.1"/>
<path d="M2.74057 19.1298C2.74057 18.5769 2.7062 18.0579 3.05184 17.5913C3.32465 17.2232 3.72987 16.9759 4.08906 16.7024C5.38774 15.7125 6.87183 15.2848 8.44959 14.9643C9.18821 14.8144 9.89144 14.7467 10.5785 14.4679C11.6098 14.0482 12.7313 13.8626 13.802 13.5609C15.1212 13.1899 16.4122 12.8799 17.7742 12.8084C18.3478 12.7781 18.7892 12.6088 19.358 12.5611C20.1965 12.4914 20.8753 12.4566 21.6837 12.7028C22.6652 13.0013 23.2546 13.578 24.0515 14.1795C24.644 14.6266 24.8853 15.1039 25.2748 15.7473C25.6889 16.4315 26.3074 16.9523 26.9768 17.3635C27.7015 17.8095 29.1122 18.8392 28.5576 19.871" stroke="#002857" stroke-width="0.1"/>
<path d="M29.4977 15.3366C29.3298 15.0161 28.9746 14.8596 28.6809 14.6946C28.3282 14.497 27.9922 14.1998 27.6642 13.9602C27.3038 13.6976 26.9445 13.4528 26.5833 13.1888C25.9852 12.7521 25.5007 12.3535 24.9753 11.8337C24.3833 11.2476 23.7141 10.7238 23.0731 10.2148C22.6361 9.86686 22.1868 9.53214 21.6238 9.42304C20.4416 9.19364 19.1839 9.26652 17.9704 9.27787C15.5722 9.30027 13.5146 10.0936 11.296 10.9382C10.0801 11.4013 8.84023 11.5547 7.5822 11.7883C5.71764 12.1343 3.75448 12.611 2.14075 13.6642C1.54822 14.0504 1.3679 14.364 1.20651 15.0452C1.10848 15.4608 1.08547 15.9787 0.921753 16.3525" stroke="#002857" stroke-width="0.1"/>
<path d="M9.79321 28.2748C9.0993 28.4044 8.75118 27.4368 8.63946 26.9406C8.56838 26.6253 8.46351 26.3158 8.41996 25.9921C8.29746 25.0741 7.94949 24.483 7.43867 23.711C6.98495 23.0249 6.49059 22.2943 6.40654 21.4541C6.36838 21.0717 6.23613 20.5627 6.40436 20.1893C6.60915 19.7323 7.29505 19.65 7.73421 19.5402C8.54857 19.3373 9.42776 19.0539 10.234 18.7797C11.596 18.3172 12.9942 17.8452 14.3081 17.2678C14.7661 17.0667 15.2568 16.9962 15.7015 16.8211C15.9842 16.7092 16.2535 16.4836 16.5534 16.363C16.9636 16.1976 17.4192 16.0351 17.8553 15.9416C18.515 15.7999 19.5918 15.6195 20.2132 15.9406C20.3875 16.0308 20.4739 16.0971 20.5945 16.2484C20.8382 16.5559 21.049 16.8367 21.3531 17.119C21.8716 17.6026 22.2617 18.1275 22.7111 18.6539C23.0429 19.0425 23.3575 19.635 23.7327 19.954C24.1421 20.3014 24.7653 20.4062 25.1776 20.7601C25.6525 21.1683 25.7202 22.2754 25.3632 22.7982C25.3 22.8916 25.25 22.9545 25.1429 23.0081" stroke="#002857" stroke-width="0.1"/>
<path d="M6.13184 27.1451C6.7181 27.6385 7.52621 27.7068 8.25274 27.7136C9.29492 27.7238 10.3385 27.8452 11.3761 27.6848C13.4238 27.3664 15.4004 26.5686 17.201 25.5623C17.723 25.2703 18.313 25.1547 18.8155 24.8528C19.5879 24.3882 20.4614 24.1173 21.2795 23.733C22.0358 23.3779 22.8255 23.1151 23.5838 22.7673C23.8106 22.6634 24.322 22.5643 24.3329 22.2721" stroke="#002857" stroke-width="0.1"/>
<path d="M8.31482 23.0841C8.31671 24.0123 8.54073 24.7111 8.94974 25.5496C9.10501 25.8679 9.28154 26.0831 9.40317 26.4104C9.51765 26.7174 9.57577 27.0165 9.64437 27.3345C9.74109 27.7824 9.69215 28.3282 9.97574 28.7057C10.1558 28.945 10.4751 29.0701 10.601 29.3379" stroke="#002857" stroke-width="0.1"/>
<path d="M19.3691 16.8814C19.2163 17.0846 18.955 17.09 18.7422 17.1786C18.3176 17.3546 17.8999 17.5549 17.4695 17.7296C17.0264 17.9097 16.5751 18.0158 16.1313 18.1822C15.1849 18.537 14.0828 18.7013 13.1701 19.1373C12.6816 19.3711 12.2282 19.717 11.7571 19.9739C11.3078 20.2193 10.9463 20.5591 10.4487 20.6831C9.54372 20.9087 8.525 20.8544 7.61072 20.9657" stroke="#002857" stroke-width="0.1"/>
<path d="M24.322 22.2193C24.8614 22.2738 25.34 22.4394 25.8619 22.2351C26.3809 22.0325 26.9425 21.8812 27.4193 21.5802C27.9589 21.2392 28.7503 20.5443 28.6638 19.8" stroke="#002857" stroke-width="0.1"/>
<path d="M0.252838 13.4794C0.248469 14.3366 0.708744 15.3267 1.309 15.9502C2.06087 16.7313 2.6853 17.6325 3.43471 18.4071C4.14041 19.1369 4.87409 19.5947 5.8293 20.0132C6.27924 20.21 6.90003 20.2078 7.26839 20.4919" stroke="#002857" stroke-width="0.1"/>
<path d="M4.09045 20.7537C4.27515 21.023 4.4613 21.3317 4.71299 21.4333C4.92565 21.5189 5.18972 21.46 5.41185 21.46C5.8864 21.46 6.34886 21.4232 6.80506 21.205C7.05297 21.0868 7.34224 20.93 7.61068 20.9654" stroke="#002857" stroke-width="0.1"/>
<path d="M1.37939 16.9399C1.44523 17.3562 1.4614 17.7674 1.582 18.1641C1.70406 18.5684 1.84987 18.9626 1.93435 19.3779C2.03703 19.8843 2.4271 20.3412 2.70429 20.7809C3.53293 22.0981 4.30535 23.4836 4.96328 24.8913C5.44292 25.9175 5.78026 27.0091 6.76723 27.7027C7.48284 28.2052 8.20195 28.7764 9.04472 28.9757" stroke="#002857" stroke-width="0.1"/>
<path d="M3.80872 20.5773C3.80872 21.8311 3.93121 22.7807 4.55652 23.9052C4.93857 24.5935 5.41181 25.1936 6.06144 25.6621" stroke="#002857" stroke-width="0.1"/>
<path d="M2.78772 19.3055C3.07918 19.8833 2.70892 20.6114 2.96367 21.1772" stroke="#002857" stroke-width="0.1"/>
<path d="M8.2561 21.884C9.51807 21.9572 10.7904 21.2365 11.9465 20.8507C13.2759 20.4062 14.6148 19.9042 15.9126 19.3373C16.9326 18.8919 17.9558 18.5097 19.0168 18.2125C19.471 18.0854 19.9802 18.1136 20.39 17.9292" stroke="#002857" stroke-width="0.1"/>
<path d="M10.6383 7.47661C10.6383 6.08623 10.5145 4.63271 10.7789 3.27419C11.0294 1.99015 12.618 2.85859 13.2575 3.4537C14.0704 4.20897 14.7907 5.00613 15.7084 5.64866C16.0636 5.89785 16.4435 6.1223 16.7759 6.37207C17.2578 6.73443 17.742 7.10872 18.2097 7.48592C18.8592 8.01004 19.2235 8.45604 19.6865 9.15618C20.1872 9.91217 20.3662 10.7149 20.5931 11.5989C20.9502 12.9879 21.1523 14.4836 21.2799 15.9107C21.3257 16.4269 21.3773 16.9445 21.376 17.4653C21.3748 17.7724 21.362 18.0728 21.396 18.3787C21.4217 18.6164 21.4978 18.9237 21.3993 19.1534" stroke="#002857" stroke-width="0.3"/>
<path d="M2.78774 9.7717C2.76881 10.3389 2.84703 10.9648 3.08882 11.4574C3.39688 12.0843 3.51297 12.7762 3.70101 13.4522C3.94804 14.3391 4.17032 15.1921 4.68113 15.957C5.1382 16.642 5.37941 17.4379 5.80458 18.1358C6.19771 18.7808 6.68464 19.3282 7.02446 20.0091C7.27178 20.505 7.56659 20.9308 7.89286 21.3611C8.24535 21.8266 8.50972 22.3516 8.84924 22.8267C9.06686 23.1315 9.36341 23.3571 9.56238 23.6669C9.92827 24.237 9.98143 24.9981 10.3773 25.543C10.805 26.1322 11.3894 26.5825 11.8493 27.1507C12.0739 27.429 12.3638 27.7234 12.5405 28.0278C12.6544 28.2246 12.6072 28.457 12.6943 28.6554C12.761 28.807 12.9212 28.8888 12.9616 29.0505" stroke="#002857" stroke-width="0.1"/>
<path d="M8.56091 8.18302C8.78828 8.75732 8.8917 9.4547 9.00677 10.0613C9.24113 11.2988 9.45656 12.5466 9.69733 13.7827C9.87678 14.7046 9.93912 15.4787 10.327 16.3189C10.6311 16.9784 10.7577 17.7213 11.1063 18.3607C11.3942 18.8897 11.7145 19.4166 12.0302 19.9416C12.2819 20.3601 12.7089 20.5975 13.0027 20.9805C13.4677 21.5858 13.5871 22.4106 14.0666 23.0236C14.5244 23.6072 15.0032 24.1741 15.4154 24.798C15.7127 25.2478 16.0363 25.4044 16.4069 25.7263C16.7275 26.0053 17.1634 26.754 17.6442 26.7333" stroke="#002857" stroke-width="0.1"/>
<path d="M13.5602 6.73493C13.7573 7.312 13.8053 8.13826 13.8495 8.75097C13.9264 9.81448 13.936 10.8831 13.9821 11.9473C14.0353 13.1455 14.0257 14.3683 14.2901 15.5362C14.4287 16.1511 14.7968 16.6891 15.1025 17.2229C15.407 17.7544 15.5873 18.3562 15.9973 18.8197C16.7396 19.6589 17.6473 20.1747 18.1985 21.1748C18.5781 21.8634 19.1391 22.4849 19.7397 23.0131C20.2404 23.4528 20.6002 24.0776 21.1297 24.4619" stroke="#002857" stroke-width="0.1"/>
<path d="M18.4185 6.02862C18.3421 7.11555 18.4535 8.28031 18.4535 9.38034L18.4535 12.9213C18.4535 13.5718 18.4545 14.2221 18.4535 14.8729C18.4532 15.141 18.4241 15.4411 18.5144 15.7002C18.6031 15.9518 18.7866 16.0209 18.9358 16.206C19.2654 16.6139 19.4789 17.0267 19.8457 17.4067C19.9838 17.5495 20.1151 17.6849 20.2572 17.823C20.9343 18.484 21.3531 19.2867 21.9793 19.9829C22.2224 20.2543 22.5842 20.3524 22.8216 20.6123C22.9525 20.7562 23.036 20.9443 23.1633 21.0967C23.4916 21.4901 23.9493 21.9525 24.368 22.2371" stroke="#002857" stroke-width="0.1"/>
<path d="M20.1788 5.99354C20.001 6.68378 20.1326 7.57768 20.1007 8.29149C20.0456 9.53524 19.896 10.7387 19.7294 11.9676C19.6162 12.8035 19.7192 13.6496 19.5913 14.4883C19.5159 14.9805 19.397 15.4614 19.3382 15.9578C19.3105 16.1851 19.3229 16.4951 19.2317 16.6764" stroke="#002857" stroke-width="0.1"/>
<path d="M21.9392 6.59352C21.9331 8.60374 21.4248 10.4987 21.0929 12.4464C21.0086 12.9445 20.7792 13.4292 20.6014 13.9049C20.4475 14.3157 20.355 14.7284 20.1791 15.1323C19.972 15.6071 19.6903 16.2782 19.2284 16.5515" stroke="#002857" stroke-width="0.1"/>
<path d="M19.3691 16.8693C21.0216 15.9754 21.9744 14.0049 22.3965 12.2469C22.6353 11.2497 22.5997 10.1638 22.7146 9.14158C22.789 8.47898 22.7676 7.76546 22.9246 7.12322" stroke="#002857" stroke-width="0.1"/>
<path d="M25.4309 8.43156C25.4213 10.6323 24.6769 12.4895 24.0338 14.554C23.7777 15.3788 23.7123 16.2081 23.1875 16.9491C22.5922 17.7876 21.5179 17.9856 20.5822 18.1799" stroke="#002857" stroke-width="0.1"/>
<path d="M30.3182 11.961C30.3597 12.5855 30.1652 13.3552 29.9652 13.944C29.851 14.2818 29.6901 14.6187 29.5538 14.951C29.3747 15.3868 29.2677 15.8802 29.0572 16.301C28.8612 16.6931 28.5417 17.0236 28.3103 17.3989C28.057 17.8092 27.8854 18.263 27.643 18.6739C27.3137 19.2337 27.076 19.5917 26.6055 20.0169C26.2428 20.3439 25.9783 20.7365 25.6442 21.0799C25.4521 21.2781 24.2948 22.228 24.1567 22.0246" stroke="#002857" stroke-width="0.1"/>
<path d="M27.6073 10.0541C27.6433 10.8782 27.4725 11.7181 27.354 12.5252C27.2541 13.2064 26.9537 13.8315 26.752 14.479C26.5692 15.0653 26.4017 15.5557 26.0429 16.0656C25.7531 16.4775 25.4166 16.869 25.1833 17.3047C24.8978 17.8384 24.6175 18.3743 24.2165 18.8395C23.8792 19.2304 23.5435 19.5783 23.0637 19.7913C22.7753 19.9187 22.4464 19.9165 22.1562 20.0371C21.8716 20.1551 21.6619 20.3897 21.3831 20.5178C21.0728 20.6606 20.733 20.8196 20.4114 20.9368C19.9755 21.0953 19.5009 21.1761 19.0763 21.3602C18.7269 21.5114 18.4405 21.7864 18.0802 21.9122C17.3102 22.1797 16.5425 22.2859 15.8033 22.6452C14.9573 23.0556 14.0765 23.1861 13.2218 23.5318C12.7585 23.7198 12.2663 23.8474 11.8054 24.0461C11.3377 24.2478 10.9983 24.6499 10.5167 24.8172C9.97729 25.0053 9.24114 24.9567 8.67046 24.9564C7.92339 24.9554 7.1584 25.0683 6.42021 24.9096C5.54467 24.7205 5.23588 24.0756 4.65034 23.4913C4.41845 23.2595 4.30775 22.9868 4.13296 22.7209C3.86801 22.3176 3.51392 21.9887 3.21008 21.6406" stroke="#002857" stroke-width="0.1"/>
<path d="M24.2982 18.1053C24.4066 19.1046 24.0438 20.1803 23.7759 21.1266C23.5332 21.9847 23.3303 22.8153 23.1876 23.6798C23.1121 24.136 22.7325 24.6777 22.2417 24.7955C21.8248 24.8959 21.3156 24.5647 21.0356 24.3821" stroke="#002857" stroke-width="0.1"/>
<path d="M18.0662 20.1882C18.0275 21.5991 18.1271 23.0227 18.0741 24.4334C18.0445 25.2374 18.0522 26.1379 17.5735 26.7917" stroke="#002857" stroke-width="0.1"/>
<path d="M11.061 22.8371C11.0635 24.2698 11.0523 25.8065 11.3161 27.2149C11.4378 27.8645 11.7563 28.9472 12.4694 29.1929" stroke="#002857" stroke-width="0.1"/>
<path d="M0.780953 10.6198C0.755172 11.1757 0.95545 11.915 1.0711 12.4652C1.21137 13.133 1.5187 13.7563 1.8256 14.3613C2.46766 15.6254 2.85438 16.9461 3.88723 17.9689C4.32726 18.405 4.69213 18.9555 5.17075 19.3509C5.50285 19.6252 5.85782 19.8639 6.19574 20.1266C6.63402 20.4676 7.19757 20.6425 7.61065 20.9657" stroke="#002857" stroke-width="0.1"/>
<path d="M30.104 15.3512C30.1589 16.0154 30.1241 17.0509 29.8421 17.6594C29.6468 18.0808 29.3116 18.5317 29.0538 18.9366C28.7115 19.4733 28.5523 20.0216 28.2732 20.5898C27.6995 21.7591 26.9389 22.617 25.8818 23.3671" stroke="#002857" stroke-width="0.1"/>
<path d="M31.3741 14.6798C31.438 15.5222 31.1166 16.3709 30.7891 17.1295C30.491 17.8216 29.8682 18.0187 29.2105 18.337C28.7189 18.5747 28.3561 18.8121 27.9152 19.1391C27.4133 19.5111 26.7064 19.7296 26.1143 19.9099C25.452 20.1111 24.7996 20.342 24.1377 20.5344C23.4351 20.7391 22.7474 20.9647 22.1351 21.4036C21.6687 21.7373 21.2416 21.6877 20.6861 21.8979C19.9047 22.1929 19.2045 22.6427 18.3831 22.8283C17.9821 22.9194 17.5073 22.8702 17.134 23.0496C16.7958 23.2126 16.5329 23.5449 16.1871 23.7141C15.6762 23.963 15.1434 24.1762 14.6304 24.4288C13.8217 24.827 13.0958 25.4528 12.1949 25.5474C11.3256 25.6388 10.4396 25.7278 9.58343 25.8484C8.74212 25.9674 7.85448 26.1313 7.00793 25.9661C6.0549 25.7796 5.46338 25.2998 4.79395 24.6027" stroke="#002857" stroke-width="0.1"/>
<path d="M5.67419 22.6252C5.72226 23.4687 5.90288 24.2438 6.06922 25.0641C6.12355 25.3303 6.16477 25.6134 6.22813 25.8824C6.32062 26.2763 6.50779 26.4567 6.73239 26.7626C7.22558 27.434 7.70843 28.286 8.45813 28.736C9.05066 29.0911 9.84231 29.0943 10.4978 29.2626C11.2885 29.4666 12.0978 29.1941 12.8877 29.0971C13.6148 29.0075 14.3463 28.5543 15.0542 28.3191C16.347 27.8896 17.4456 27.284 18.6451 26.6406C19.1932 26.3464 19.796 26.2066 20.3491 25.9243C21.3029 25.4386 22.2812 24.9917 23.2666 24.5717C24.0143 24.2534 24.7007 23.9059 25.4312 23.5682C26.0109 23.2995 26.6158 23.123 27.1958 22.8373C27.7169 22.5803 27.7923 22.0706 28.0383 21.5712C28.3462 20.9464 28.6954 20.4963 29.1711 20.015C29.6114 19.5694 29.8185 18.9913 30.0988 18.439C30.6396 17.3731 30.8578 16.1752 30.8578 14.986" stroke="#002857" stroke-width="0.1"/>
<path d="M7.75125 28.3105C9.68615 28.4538 11.7403 28.3871 13.6549 27.9867C15.2415 27.6547 16.7656 26.9784 18.3207 26.5198C19.0944 26.292 19.7526 25.8054 20.4522 25.4213C21.0589 25.0888 21.6333 24.7119 22.257 24.3805C23.189 23.8856 24.0757 23.3989 25.0669 23.0268C25.676 22.7983 26.9532 22.4744 27.2631 21.8856C27.5362 21.3661 27.4745 20.3848 27.1253 19.9163C26.8445 19.5396 26.4249 19.0264 26.0268 18.7704C25.726 18.578 25.3614 18.524 25.0405 18.3647C24.3203 18.007 23.532 17.3518 22.9798 16.7564C22.532 16.2739 22.3657 15.636 21.8387 15.252C21.3196 14.8739 20.4028 14.5884 19.7633 14.5107C18.7093 14.383 17.5032 14.2561 16.4484 14.3898C15.1395 14.5562 13.7833 14.9765 12.5059 15.3174C10.489 15.8558 8.45564 16.3894 6.59022 17.3471C5.77002 17.7677 4.92871 18.188 4.51199 19.0481C4.20713 19.677 4.36021 20.5677 4.36021 21.2483" stroke="#002857" stroke-width="0.1"/>
<path d="M2.74057 19.1298C2.74057 18.5769 2.7062 18.0579 3.05184 17.5913C3.32465 17.2232 3.72987 16.9759 4.08906 16.7024C5.38774 15.7125 6.87183 15.2848 8.44958 14.9643C9.18821 14.8144 9.89144 14.7467 10.5785 14.4679C11.6098 14.0482 12.7313 13.8626 13.802 13.5609C15.1212 13.1899 16.4122 12.8799 17.7742 12.8084C18.3478 12.7781 18.7892 12.6088 19.358 12.5611C20.1965 12.4914 20.8753 12.4566 21.6837 12.7028C22.6652 13.0013 23.2546 13.578 24.0515 14.1795C24.644 14.6266 24.8853 15.1039 25.2748 15.7473C25.6889 16.4315 26.3074 16.9523 26.9768 17.3635C27.7015 17.8095 29.1122 18.8392 28.5576 19.871" stroke="#002857" stroke-width="0.1"/>
<path d="M29.4977 15.3366C29.3298 15.0161 28.9746 14.8596 28.6809 14.6946C28.3282 14.497 27.9922 14.1998 27.6642 13.9602C27.3038 13.6976 26.9445 13.4528 26.5833 13.1888C25.9852 12.7521 25.5007 12.3535 24.9753 11.8337C24.3833 11.2476 23.7141 10.7238 23.0731 10.2148C22.6361 9.86686 22.1867 9.53214 21.6238 9.42304C20.4416 9.19364 19.1839 9.26652 17.9704 9.27787C15.5722 9.30027 13.5146 10.0936 11.296 10.9382C10.0801 11.4013 8.84023 11.5547 7.5822 11.7883C5.71764 12.1343 3.75448 12.611 2.14075 13.6642C1.54822 14.0504 1.3679 14.364 1.20651 15.0452C1.10848 15.4608 1.08547 15.9787 0.921753 16.3525" stroke="#002857" stroke-width="0.1"/>
<path d="M9.79321 28.2748C9.0993 28.4044 8.75118 27.4368 8.63946 26.9406C8.56838 26.6253 8.46351 26.3158 8.41996 25.9921C8.29746 25.0741 7.94949 24.483 7.43867 23.711C6.98495 23.0249 6.49059 22.2943 6.40654 21.4541C6.36838 21.0717 6.23613 20.5627 6.40436 20.1893C6.60915 19.7323 7.29505 19.65 7.73421 19.5402C8.54857 19.3373 9.42776 19.0539 10.234 18.7797C11.596 18.3172 12.9942 17.8452 14.3081 17.2678C14.7661 17.0667 15.2568 16.9962 15.7015 16.8211C15.9842 16.7092 16.2535 16.4836 16.5534 16.363C16.9636 16.1976 17.4192 16.0351 17.8553 15.9416C18.515 15.7999 19.5918 15.6195 20.2132 15.9406C20.3875 16.0308 20.4739 16.0971 20.5945 16.2484C20.8382 16.5559 21.049 16.8367 21.3531 17.119C21.8716 17.6026 22.2617 18.1275 22.7111 18.6539C23.0429 19.0425 23.3575 19.635 23.7327 19.954C24.1421 20.3014 24.7653 20.4062 25.1776 20.7601C25.6525 21.1683 25.7202 22.2754 25.3632 22.7982C25.3 22.8916 25.25 22.9545 25.1429 23.0081" stroke="#002857" stroke-width="0.1"/>
<path d="M6.13184 27.1451C6.7181 27.6385 7.52621 27.7068 8.25274 27.7136C9.29492 27.7238 10.3385 27.8452 11.3761 27.6848C13.4238 27.3664 15.4004 26.5686 17.201 25.5623C17.723 25.2703 18.313 25.1547 18.8155 24.8528C19.5879 24.3882 20.4614 24.1173 21.2795 23.733C22.0358 23.3779 22.8255 23.1151 23.5838 22.7673C23.8106 22.6634 24.322 22.5643 24.3329 22.2721" stroke="#002857" stroke-width="0.1"/>
<path d="M8.31482 23.0841C8.31671 24.0123 8.54073 24.7111 8.94974 25.5496C9.10501 25.8679 9.28154 26.0831 9.40317 26.4104C9.51765 26.7174 9.57577 27.0165 9.64437 27.3345C9.74109 27.7824 9.69215 28.3282 9.97574 28.7057C10.1558 28.945 10.4751 29.0701 10.601 29.3379" stroke="#002857" stroke-width="0.1"/>
<path d="M19.3691 16.8814C19.2163 17.0846 18.955 17.09 18.7422 17.1786C18.3176 17.3546 17.8999 17.5549 17.4695 17.7296C17.0264 17.9097 16.5751 18.0158 16.1313 18.1822C15.1849 18.537 14.0828 18.7013 13.1701 19.1373C12.6816 19.3711 12.2282 19.717 11.7571 19.9739C11.3078 20.2193 10.9463 20.5591 10.4487 20.6831C9.54372 20.9087 8.525 20.8544 7.61072 20.9657" stroke="#002857" stroke-width="0.1"/>
<path d="M24.322 22.2193C24.8614 22.2738 25.34 22.4394 25.8619 22.2351C26.3809 22.0325 26.9425 21.8812 27.4193 21.5802C27.9589 21.2392 28.7503 20.5443 28.6638 19.8" stroke="#002857" stroke-width="0.1"/>
<path d="M0.252838 13.4794C0.248469 14.3366 0.708744 15.3267 1.309 15.9502C2.06087 16.7313 2.6853 17.6325 3.43471 18.4071C4.14041 19.1369 4.87409 19.5947 5.8293 20.0132C6.27924 20.21 6.90003 20.2078 7.26839 20.4919" stroke="#002857" stroke-width="0.1"/>
<path d="M4.09045 20.7537C4.27515 21.023 4.4613 21.3317 4.71299 21.4333C4.92565 21.5189 5.18972 21.46 5.41185 21.46C5.8864 21.46 6.34886 21.4232 6.80506 21.205C7.05297 21.0868 7.34224 20.93 7.61068 20.9654" stroke="#002857" stroke-width="0.1"/>
<path d="M1.37939 12.9399C1.44523 13.3562 1.4614 13.7674 1.582 14.1641C1.70406 14.5684 1.84987 14.9626 1.93435 15.3779C2.03703 15.8843 2.4271 16.3412 2.70429 16.7809C3.53293 18.0981 4.30535 19.4836 4.96328 20.8913C5.44292 21.9175 5.78026 23.0091 6.76723 23.7027C7.48284 24.2052 8.20195 24.7764 9.04472 24.9757" stroke="#002857" stroke-width="0.1"/>
<path d="M3.80872 20.5773C3.80872 21.8311 3.93121 22.7807 4.55652 23.9052C4.93857 24.5935 5.41181 25.1936 6.06144 25.6621" stroke="#002857" stroke-width="0.1"/>
<path d="M2.78772 19.3055C3.07918 19.8833 2.70892 20.6114 2.96367 21.1772" stroke="#002857" stroke-width="0.1"/>
<path d="M8.2561 21.884C9.51807 21.9572 10.7904 21.2365 11.9465 20.8507C13.2759 20.4062 14.6148 19.9042 15.9126 19.3373C16.9326 18.8919 17.9558 18.5097 19.0168 18.2125C19.471 18.0854 19.9802 18.1136 20.39 17.9292" stroke="#002857" stroke-width="0.1"/>
<path fill-rule="evenodd" clip-rule="evenodd" d="M12.9045 6.83881C11.9827 7.05847 11.1091 7.45589 10.1834 7.63714C9.85542 7.70129 9.52638 7.7509 9.19996 7.82712C8.55063 7.97841 7.91076 8.16781 7.25719 8.29916C6.03819 8.54428 4.90018 9.07363 3.70667 9.40996C2.847 9.65201 2.10037 10.1501 1.29474 10.4554C0.690409 10.6844 0.207848 10.8118 0.125989 11.5575C-0.0208329 12.889 0.0642306 14.0334 0.606073 15.2448C0.863886 15.8229 1.12869 16.5131 1.4554 17.0568C1.9786 17.9277 2.53981 18.8707 3.18274 19.6558C3.84839 20.4684 4.4198 21.4122 5.14255 22.1641C5.45761 22.4911 5.78431 22.851 6.23862 22.9437C6.6887 23.0353 7.18364 22.9783 7.64362 22.9783C9.19428 22.9783 10.9139 23.0927 12.3582 22.4536C13.1422 22.1071 13.8758 21.6397 14.6694 21.3193C15.2084 21.1019 15.7745 20.9653 16.3253 20.7831C16.7048 20.6581 17.0506 20.4539 17.4201 20.3052C17.7845 20.1589 18.1941 20.0944 18.5778 20.0057C19.4087 19.8135 20.2489 19.6385 21.0449 19.3239C22.6835 18.6761 24.3289 18.1059 25.9315 17.3348C27.2473 16.7021 28.5848 16.0625 29.8842 15.3813C30.4928 15.0623 31.4509 14.7517 31.8962 14.1777C32.2012 13.7842 32.0271 13.1032 31.7022 12.7527C31.3788 12.4037 30.8826 12.1945 30.465 12.0084C29.8402 11.7296 29.4821 11.2107 28.9064 10.8562C28.1179 10.3708 27.3609 9.89538 26.5497 9.47789C25.7195 9.0508 25.0637 8.29393 24.2759 7.79337C23.428 7.25529 22.3852 6.72971 21.4356 6.40823C21.0534 6.27934 20.6417 6.15351 20.2492 6.03597C19.9149 5.93531 19.5515 5.95786 19.1957 5.95786C18.4486 5.95786 17.6861 5.91509 16.9432 6.00004C15.5826 6.15628 14.2398 6.52111 12.9045 6.83881Z" stroke="#002857" stroke-width="0.3"/>
<path fill-rule="evenodd" clip-rule="evenodd" d="M12.9045 7.83881C11.9827 8.05847 11.1091 8.45589 10.1834 8.63714C9.85542 8.70129 9.52638 8.7509 9.19996 8.82712C8.55063 8.97841 7.91076 9.16781 7.25719 9.29916C6.03819 9.54428 4.90018 10.0736 3.70667 10.41C2.847 10.652 2.10037 11.1501 1.29474 11.4554C0.690409 11.6844 0.207848 11.8118 0.125989 12.5575C-0.0208329 13.889 0.0642306 15.0334 0.606073 16.2448C0.863886 16.8229 1.12869 17.5131 1.4554 18.0568C1.9786 18.9277 2.53981 19.8707 3.18274 20.6558C3.84839 21.4684 4.4198 22.4122 5.14255 23.1641C5.45761 23.4911 5.78431 23.851 6.23862 23.9437C6.6887 24.0353 7.18364 23.9783 7.64362 23.9783C9.19428 23.9783 10.9139 24.0927 12.3582 23.4536C13.1422 23.1071 13.8758 22.6397 14.6694 22.3193C15.2084 22.1019 15.7745 21.9653 16.3253 21.7831C16.7048 21.6581 17.0506 21.4539 17.4201 21.3052C17.7845 21.1589 18.1941 21.0944 18.5778 21.0057C19.4087 20.8135 20.2489 20.6385 21.0449 20.3239C22.6835 19.6761 24.3289 19.1059 25.9315 18.3348C27.2473 17.7021 28.5848 17.0625 29.8842 16.3813C30.4928 16.0623 31.4509 15.7517 31.8962 15.1777C32.2012 14.7842 32.0271 14.1032 31.7022 13.7527C31.3788 13.4037 30.8826 13.1945 30.465 13.0084C29.8402 12.7296 29.4821 12.2107 28.9064 11.8562C28.1179 11.3708 27.3609 10.8954 26.5497 10.4779C25.7195 10.0508 25.0637 9.29393 24.2759 8.79337C23.428 8.25529 22.3852 7.72971 21.4356 7.40823C21.0534 7.27934 20.6417 7.15351 20.2492 7.03597C19.9149 6.93531 19.5515 6.95786 19.1957 6.95786C18.4486 6.95786 17.6861 6.91509 16.9432 7.00004C15.5826 7.15628 14.2398 7.52111 12.9045 7.83881Z" stroke="#002857" stroke-width="0.1"/>
</g>
<defs>
<clipPath id="clip0_2359_93">
<rect width="32" height="32" fill="white"/>
</clipPath>
</defs>
</svg>
