<svg width="32" height="32" viewBox="0 0 32 32" fill="none" xmlns="http://www.w3.org/2000/svg">
<path d="M30.5612 10.7052C30.4246 10.3323 30.2425 10.0369 30.016 9.81908C29.7883 9.60124 29.52 9.4917 29.2123 9.4917C28.9046 9.4917 28.6671 9.60124 28.5034 9.81908C28.3397 10.0369 28.112 10.4283 27.8215 10.9908L26.5674 13.5262C26.8763 12 27.0991 10.8591 27.2357 10.1046C27.3723 9.35016 27.44 8.78277 27.44 8.40124C27.44 8.12924 27.3858 7.85601 27.2763 7.58401C27.1668 7.31201 27.0215 7.06216 26.8406 6.83447C26.6585 6.60801 26.4455 6.39878 26.1994 6.26216C25.9545 6.12677 25.696 6.03077 25.424 6.03077H25.4228C25.296 6.03077 25.1778 6.07631 25.0695 6.11201C24.96 6.14893 24.8418 6.2437 24.7151 6.37047C24.5883 6.49724 24.4468 6.70031 24.2929 6.9637C24.1378 7.22708 23.952 7.58031 23.7342 8.01724L22.0443 11.3994C22.1711 10.2905 22.2855 9.36493 22.3852 8.61908C22.4849 7.87447 22.5662 7.24677 22.6302 6.73847C22.6942 6.23016 22.7397 5.8117 22.7668 5.48431C22.7938 5.15693 22.8074 4.85785 22.8074 4.58462C22.8074 4.13047 22.7348 3.71201 22.5895 3.33047C22.4443 2.94893 22.2535 2.62154 22.0172 2.34954C21.7809 2.07631 21.5262 1.86339 21.2542 1.70831C20.9822 1.55447 20.7274 1.47693 20.4911 1.47693C20.2905 1.47693 20.1231 1.50893 19.9865 1.57293C19.8498 1.63693 19.7145 1.75508 19.5778 1.92739C19.4412 2.10093 19.3058 2.35447 19.1692 2.69047C19.0326 3.02647 18.8738 3.46708 18.6917 4.01231L16.3471 11.3735L16.592 5.75754C16.6105 5.24924 16.5514 4.7717 16.4148 4.32616C16.2782 3.88062 16.096 3.49908 15.8695 3.18154C15.6418 2.86401 15.3834 2.61416 15.0929 2.43201C14.8025 2.25108 14.5108 2.16001 14.2203 2.16001C13.9483 2.16001 13.6837 2.25601 13.4302 2.44677C13.1754 2.63754 12.912 3.02893 12.64 3.6197C12.368 4.21047 12.0763 5.06462 11.7674 6.18216C11.4585 7.2997 11.1126 8.78524 10.7311 10.64C10.4591 11.9852 10.2314 13.1114 10.0492 14.0209C9.86708 14.9305 9.67138 15.6566 9.46338 16.2019C9.25415 16.7471 9.00431 17.1372 8.71385 17.3735C8.42339 17.6099 8.032 17.728 7.54092 17.728C7.12246 17.728 6.69169 17.6689 6.24615 17.5508C5.80062 17.4326 5.37846 17.2825 4.97846 17.1003C4.57846 16.9182 4.224 16.7102 3.91508 16.4739C3.60615 16.2375 3.36985 16.0012 3.20615 15.7649C3.66031 15.6012 4.18708 15.52 4.78769 15.52C5.26031 15.52 5.71939 15.552 6.16492 15.616C6.61046 15.68 6.95139 15.7108 7.18769 15.7108C7.53231 15.7108 7.70585 15.5471 7.70585 15.2197C7.70585 15.0203 7.62462 14.7975 7.46092 14.5514C7.29723 14.3065 7.056 14.0739 6.73846 13.856C6.41969 13.6382 6.02954 13.456 5.56554 13.3108C5.10154 13.1655 4.56985 13.0929 3.97046 13.0929C3.04369 13.0929 2.33477 13.3157 1.84369 13.7612C1.35262 14.2068 1.10769 14.7471 1.10769 15.3834C1.10769 15.9655 1.27139 16.4972 1.59877 16.9785C1.92615 17.4597 2.36677 17.8782 2.92062 18.2326C3.47446 18.5871 4.12062 18.864 4.85662 19.0646C5.59262 19.264 6.36923 19.3649 7.18769 19.3649C7.87815 19.3649 8.46892 19.2468 8.96 19.0105C9.45108 18.7742 9.85969 18.4603 10.1871 18.0702C10.5145 17.6788 10.7828 17.2295 10.9908 16.7212C11.2 16.2129 11.3674 15.6849 11.4954 15.1397L12.3409 10.9957C12.5218 10.1785 12.6855 9.45601 12.832 8.82831C12.9772 8.20185 13.1089 7.6517 13.2271 7.17908C13.3452 6.70647 13.4535 6.29293 13.5545 5.93847C13.6542 5.58401 13.7489 5.28001 13.8412 5.02524C13.9508 5.17047 14.0049 5.63447 14.0049 6.41601C14.0049 7.19754 13.9729 8.13785 13.9102 9.12862C13.8462 10.1194 13.8142 11.1323 13.8142 12.1686C13.8142 12.6412 13.8683 13.0819 13.9778 13.4905C14.0874 13.8991 14.2277 14.2535 14.4 14.5539C14.5723 14.8542 14.7815 15.0905 15.0265 15.2628C15.2714 15.4363 15.5311 15.5212 15.8031 15.5212C16.1662 15.5212 16.4394 15.3674 16.6215 15.0572C16.8025 14.7483 17.0215 14.2302 17.2763 13.5028L20.1391 4.75201C20.1932 4.89724 20.2203 5.12493 20.2203 5.43385C20.2203 5.85231 20.1797 6.3877 20.0972 7.04247C20.016 7.69724 19.9286 8.43324 19.8388 9.25047C19.7477 9.97785 19.6751 10.5772 19.6209 11.0499C19.5668 11.5225 19.5249 11.9139 19.4978 12.2228C19.4708 12.5317 19.4523 12.7729 19.4437 12.9452C19.4338 13.1188 19.4302 13.2677 19.4302 13.3945C19.4302 14.0849 19.5668 14.6855 19.8388 15.1939C20.1108 15.7034 20.4382 15.9569 20.8197 15.9569C21.056 15.9569 21.2652 15.8609 21.4462 15.6702C21.6271 15.4794 21.8277 15.1754 22.0455 14.7569L25.0166 8.78647C25.0166 9.00431 24.976 9.35877 24.8935 9.84985C24.8123 10.3409 24.7212 10.8948 24.6215 11.5126C24.5218 12.1305 24.4258 12.7582 24.3348 13.3932C24.2437 14.0295 24.1982 14.6019 24.1982 15.1114C24.1982 15.4757 24.2486 15.7982 24.3483 16.0788C24.448 16.3606 24.5711 16.592 24.7163 16.7742C24.8615 16.9551 25.0252 17.0917 25.2074 17.1828C25.3883 17.2739 25.552 17.3194 25.6985 17.3194C25.9532 17.3194 26.176 17.1742 26.3668 16.8837C26.5575 16.5932 26.8074 16.1477 27.1163 15.5483L28.9428 11.8683C28.8886 13.1225 28.7692 14.4086 28.5883 15.7255C28.4062 17.0437 28.1477 18.3249 27.8117 19.5692C27.4757 20.8135 27.0572 21.9951 26.5575 23.1139C26.0578 24.2314 25.4622 25.2086 24.7717 26.0443C24.0812 26.88 23.2862 27.5434 22.3865 28.0345C21.4868 28.5255 20.4825 28.7705 19.3735 28.7705C19.0831 28.7705 18.8148 28.7606 18.5698 28.7434C18.3249 28.7249 18.0751 28.6892 17.8203 28.6339C17.5655 28.5797 17.2935 28.5022 17.0018 28.4025C16.7114 28.3028 16.3926 28.1797 16.048 28.0345C15.8843 27.9619 15.7305 27.9483 15.584 27.9939C15.4388 28.0394 15.3662 28.1883 15.3662 28.4431C15.3662 29.0979 15.7305 29.6111 16.4566 29.984C17.184 30.3557 18.1194 30.5428 19.264 30.5428C20.6277 30.5428 21.8634 30.2979 22.9723 29.8068C24.0812 29.3157 25.0671 28.6572 25.9298 27.8302C26.7926 27.0031 27.5422 26.0308 28.1785 24.9132C28.8148 23.7957 29.3366 22.6043 29.7465 21.3415C30.1551 20.0775 30.4591 18.7828 30.6597 17.456C30.8591 16.1292 30.96 14.8295 30.96 13.5569C30.96 13.0117 30.928 12.4935 30.864 12.0025C30.8 11.5114 30.7003 11.0806 30.5637 10.7077L30.5612 10.7052Z" fill="#00A9FF"/>
</svg>
