<svg xmlns="http://www.w3.org/2000/svg" viewBox="0 0 86.017999 84.438005" height="84.438" width="86.018"><g fill="#5d87a1" fill-rule="evenodd"><path d="M79.232 65.308c-4.683-.117-8.309.35-11.35 1.639-.878.35-2.28.35-2.4 1.462.471.467.527 1.227.94 1.874.7 1.17 1.926 2.747 3.04 3.568 1.228.936 2.457 1.869 3.746 2.688 2.28 1.41 4.855 2.226 7.075 3.63 1.291.818 2.574 1.87 3.865 2.75.641.468 1.047 1.23 1.87 1.52v-.178c-.413-.525-.528-1.286-.935-1.874-.584-.58-1.17-1.11-1.756-1.693-1.698-2.281-3.807-4.268-6.083-5.907-1.874-1.29-5.971-3.045-6.729-5.204l-.118-.12c1.287-.118 2.811-.587 4.038-.942 1.987-.525 3.8-.406 5.848-.93.937-.237 1.874-.531 2.814-.819v-.53c-1.059-1.05-1.817-2.457-2.928-3.45-2.981-2.574-6.261-5.088-9.654-7.197-1.816-1.17-4.156-1.927-6.087-2.924-.699-.352-1.868-.525-2.279-1.113-1.054-1.287-1.641-2.981-2.4-4.505-1.695-3.214-3.336-6.782-4.796-10.18-1.053-2.28-1.696-4.56-2.984-6.668-6.029-9.947-12.579-15.97-22.641-21.88-2.165-1.23-4.739-1.756-7.486-2.4-1.465-.061-2.927-.175-4.389-.232-.938-.412-1.875-1.524-2.693-2.05C11.424 1.538 2.828-3.025.37 3c-1.58 3.805 2.34 7.548 3.685 9.479.994 1.344 2.283 2.867 2.982 4.386.41.995.527 2.05.938 3.101.935 2.574 1.812 5.442 3.043 7.842.641 1.228 1.342 2.517 2.161 3.623.473.648 1.289.937 1.465 1.993-.816 1.169-.88 2.924-1.347 4.387-2.105 6.612-1.288 14.802 1.697 19.657.934 1.463 3.16 4.681 6.144 3.45 2.632-1.051 2.047-4.386 2.807-7.31.175-.707.058-1.17.408-1.638v.118c.819 1.636 1.64 3.212 2.4 4.855 1.816 2.864 4.972 5.848 7.607 7.836 1.4 1.057 2.513 2.867 4.268 3.513v-.177h-.115c-.353-.525-.878-.76-1.346-1.168-1.053-1.054-2.22-2.342-3.043-3.511-2.456-3.275-4.624-6.904-6.55-10.648-.939-1.818-1.756-3.805-2.517-5.618-.35-.698-.35-1.755-.937-2.105-.88 1.286-2.163 2.4-2.806 3.974-1.112 2.519-1.229 5.619-1.641 8.838-.233.06-.115 0-.233.116-1.87-.468-2.513-2.398-3.217-4.03-1.755-4.16-2.05-10.83-.526-15.627.407-1.226 2.167-5.087 1.462-6.257-.354-1.116-1.522-1.754-2.165-2.635-.759-1.111-1.582-2.513-2.104-3.744-1.405-3.275-2.11-6.904-3.627-10.179-.703-1.523-1.934-3.103-2.925-4.505-1.114-1.58-2.341-2.69-3.22-4.56-.29-.646-.7-1.7-.234-2.4.115-.468.353-.645.821-.762.757-.644 2.924.174 3.683.525 2.166.875 3.98 1.699 5.791 2.925.82.586 1.698 1.697 2.749 1.992h1.231c1.871.407 3.979.114 5.735.643 3.099.994 5.906 2.456 8.424 4.036 7.661 4.856 13.98 11.761 18.249 20.009.703 1.344.998 2.574 1.641 3.975 1.229 2.872 2.751 5.797 3.977 8.603 1.228 2.75 2.4 5.556 4.158 7.84.875 1.227 4.386 1.87 5.966 2.515 1.168.525 2.984.993 4.038 1.636 1.988 1.227 3.973 2.633 5.848 3.98.934.703 3.86 2.164 4.037 3.335"/><path d="M19.558 14.466a9.37 9.37 0 0 0-2.399.294v.118h.114c.472.933 1.292 1.582 1.872 2.4.472.936.882 1.868 1.35 2.806.057-.058.113-.119.113-.119.825-.582 1.234-1.517 1.234-2.924-.354-.412-.409-.818-.704-1.23-.35-.583-1.111-.876-1.58-1.345"/></g></svg>