<svg width="32" height="32" viewBox="0 0 32 32" fill="none" xmlns="http://www.w3.org/2000/svg">
<path d="M7.26671 32C11.28 32 14.5334 28.7468 14.5334 24.7338C14.5334 20.7208 11.28 17.4676 7.26671 17.4676C3.25342 17.4676 0 20.7208 0 24.7338C0 28.7468 3.25342 32 7.26671 32Z" fill="#2E52DB"/>
<path d="M24.7333 32C28.7466 32 32 28.7468 32 24.7338C32 20.7208 28.7466 17.4676 24.7333 17.4676C20.72 17.4676 17.4666 20.7208 17.4666 24.7338C17.4666 28.7468 20.72 32 24.7333 32Z" fill="#2E52DB"/>
<path d="M24.7317 14.5324C28.745 14.5324 31.9984 11.2792 31.9984 7.26618C31.9984 3.25318 28.745 0 24.7317 0C20.7184 0 17.465 3.25318 17.465 7.26618C17.465 11.2792 20.7184 14.5324 24.7317 14.5324Z" fill="#2E52DB"/>
</svg>
