<svg width="32" height="32" viewBox="0 0 32 32" fill="none" xmlns="http://www.w3.org/2000/svg">
<path d="M32 0H0V32H32V0Z" fill="#0031B0"/>
<path d="M20.2004 25.6021C19.6605 25.3148 18.9885 25.5193 18.7005 26.0543C17.5061 28.2741 15.168 29.7843 12.4703 29.7843C10.5162 29.7843 8.75688 28.9962 7.47549 27.7155C6.19479 26.4355 5.4087 24.6748 5.4087 22.7207C5.4087 20.3826 6.54192 18.3165 8.29218 17.0254C8.78401 16.665 8.88696 15.9736 8.52731 15.4797C8.16488 14.9878 7.4727 14.8828 6.97879 15.2473C4.68662 16.9287 3.19375 19.6557 3.19583 22.7207C3.19583 27.8456 7.34818 31.9972 12.4724 31.9993C16.0111 31.9993 19.0922 30.0167 20.6553 27.1033C20.9419 26.5656 20.7402 25.8943 20.2004 25.6021ZM13.9214 6.128C15.6118 6.128 16.9837 4.75826 16.9837 3.06504C16.9837 1.36765 15.6111 0 13.9214 0C12.2282 0 10.8564 1.36765 10.8564 3.06504C10.8557 4.75548 12.2282 6.12591 13.9214 6.128ZM20.7179 18.9823C20.4571 18.5809 20.0153 18.3416 19.5374 18.3416H15.0254V11.8358L16.848 13.6577C17.063 13.8713 17.3572 13.9958 17.6626 13.9958H22.1718C22.8042 13.9958 23.3176 13.4797 23.3176 12.8452C23.3176 12.2129 22.8042 11.6967 22.1718 11.6967H18.1364L14.6734 8.23652C14.2303 7.48313 13.4115 6.976 12.4717 6.976C11.0623 6.976 9.9207 8.11756 9.9207 9.52696V18.6386C9.9207 20.0501 11.0602 21.1944 12.4717 21.1944C12.6337 21.1944 12.7903 21.177 12.944 21.1485C12.9572 21.1485 12.9697 21.1513 12.9837 21.1513H18.7729L23.1221 27.911C23.3906 28.3311 23.8421 28.5565 24.3033 28.5565C24.5649 28.5565 24.8306 28.4821 25.063 28.3332C25.7134 27.9117 25.9019 27.0442 25.4831 26.3896L20.7179 18.9823ZM27.0915 10.4793C26.8167 10.3499 26.4884 10.4682 26.3562 10.743L24.0376 15.6981H17.4073C17.104 15.6981 16.8536 15.9464 16.8536 16.2539C16.8536 16.5614 17.1019 16.809 17.4073 16.809H24.3896C24.6052 16.809 24.8 16.6859 24.8925 16.4883L27.3607 11.2104C27.4894 10.9363 27.3663 10.6066 27.0915 10.4793Z" fill="white"/>
</svg>
