<svg width="32" height="32" viewBox="0 0 32 32" fill="none" xmlns="http://www.w3.org/2000/svg">
<path d="M10.5462 25.9193C10.5462 26.2335 10.5462 26.5477 10.5525 26.862C10.5525 26.9299 10.5525 26.9965 10.5462 27.0606V25.9193Z" fill="#93CEAA"/>
<path d="M21.4112 4.86148V15.5714C21.4037 12.1472 21.3875 8.72182 21.3838 5.29768C21.3843 5.15186 21.3934 5.00619 21.4112 4.86148Z" fill="#93CEAA"/>
<path d="M21.3825 15.8919C21.4001 15.7859 21.4097 15.6788 21.4112 15.5714V25.5849L16.1937 20.7868L13.5687 18.3795L11.9887 16.9189L11.2862 16.274L11.0275 16.0365L11.0087 16.0201C10.945 15.9686 10.8837 15.9145 10.825 15.8655C10.7662 15.8165 10.715 15.7738 10.645 15.7951C10.6204 15.8041 10.5985 15.8193 10.5813 15.839C10.564 15.8588 10.552 15.8826 10.5462 15.9083V6.48053L10.6 6.52955L11.6712 7.50375C12.235 8.00657 12.8037 8.50938 13.3662 9.01219C14.1662 9.73288 14.9637 10.4578 15.7587 11.1868C16.3879 11.7617 17.0162 12.3374 17.6437 12.914C18.3937 13.6016 19.1337 14.2968 19.8837 14.9793C20.2212 15.286 20.5612 15.5864 20.9025 15.8881C20.975 15.9523 21.0462 16.0139 21.12 16.0793C21.145 16.0974 21.174 16.109 21.2046 16.113C21.2352 16.117 21.2662 16.1131 21.295 16.1019C21.3121 16.0923 21.3271 16.0794 21.3392 16.0638C21.3512 16.0483 21.36 16.0304 21.365 16.0113C21.375 15.9635 21.375 15.9309 21.3825 15.8919Z" fill="#4C9717"/>
<path d="M10.535 15.9635C10.5208 16.0778 10.5167 16.193 10.5225 16.308C10.5225 19.5134 10.5225 22.7189 10.5463 25.923V27.0644C10.5325 27.3365 10.4597 27.6024 10.333 27.8431C10.2062 28.084 10.0286 28.294 9.8125 28.4584C8.96125 29.1736 8.1675 29.9555 7.34625 30.7073C7.0025 31.0215 6.66125 31.3358 6.3075 31.6425C5.95375 31.9491 5.04375 31.9869 4.54 31.5633C4.1567 31.2288 3.79979 30.8648 3.4725 30.4746C3.18369 30.184 3.0168 29.793 3.00625 29.3824C3.00625 29.2919 2.99875 29.1925 3.00625 29.0831C3.00625 28.8946 3.00625 28.706 3.0125 28.5163C3.01875 27.9758 3.0125 27.4339 3.0125 26.8934V9.26487C3.01141 9.13014 3.02737 8.99582 3.06 8.86513C3.09316 8.75147 3.13495 8.64052 3.185 8.53328C3.25511 8.37573 3.33965 8.22508 3.4375 8.08327L5.4375 6.07202L6.71125 4.79237C6.77901 4.72348 6.85651 4.66503 6.94125 4.6189C7.06471 4.54906 7.20144 4.50623 7.3425 4.4932C7.76083 4.41571 8.19289 4.4958 8.55625 4.71821C8.64944 4.7754 8.73693 4.84148 8.8175 4.91556L10.5463 6.47678V15.9045C10.5411 15.9239 10.5373 15.9436 10.535 15.9635Z" fill="#5FBC21"/>
<path opacity="0.6" d="M10.535 15.9635C10.5377 15.9461 10.5414 15.929 10.5463 15.912V25.9193C10.5275 22.7138 10.5288 19.5084 10.5225 16.3043C10.5169 16.1905 10.5211 16.0765 10.535 15.9635Z" fill="#E8CEAA"/>
<path d="M28.6987 23.6579L25.025 27.0518C25.0106 27.0628 24.9956 27.0728 24.98 27.082L24.9662 27.092L24.9412 27.1071C24.617 27.3058 24.2372 27.393 23.8592 27.3556C23.4814 27.3181 23.1258 27.1581 22.8463 26.8998L22.625 26.7049L21.4062 25.5849V4.8615C21.4262 4.68677 21.4562 4.51203 21.49 4.34108C21.5775 3.89483 21.9675 3.6736 22.265 3.39455C22.9112 2.79117 23.5775 2.21042 24.2362 1.61962C24.69 1.21234 25.1425 0.803806 25.6 0.399044C25.9988 0.0458192 26.7712 0.0634176 27.1462 0.28214C27.2412 0.337928 27.3287 0.405964 27.4062 0.484521L27.8288 0.894313L28.17 1.2224L28.4813 1.52535C28.5656 1.60362 28.6404 1.69183 28.7038 1.78806C28.8514 2.03231 28.9251 2.31443 28.9163 2.6001C28.91 4.44291 28.9237 6.28571 28.9275 8.13102C28.935 11.261 28.9416 14.391 28.9475 17.521C28.9475 19.125 28.9504 20.7285 28.9562 22.3316C28.9562 22.4059 28.9562 22.4788 28.9562 22.5516C28.975 23.0293 28.965 23.3449 28.6987 23.6579Z" fill="#5FBC21"/>
</svg>
