<svg width="32" height="32" viewBox="0 0 32 32" fill="none" xmlns="http://www.w3.org/2000/svg">
<path fill-rule="evenodd" clip-rule="evenodd" d="M27.0769 15.8974C27.0769 19.4872 24.1026 22.4615 20.5128 22.4615H16.7179C16.3077 22.4615 16 22.1538 16 21.7436V15.8974C16 13.7436 14.2564 12 12 12C9.74359 12 8 13.7436 8 15.8974V21.7436C8 22.1538 7.69231 22.4615 7.28205 22.4615H6.25641C5.84615 22.4615 5.53846 22.1538 5.53846 21.7436V15.8974C5.53846 12.3077 8.51282 9.33333 12.1026 9.33333C15.6923 9.33333 18.6667 12.2051 18.6667 15.8974V19.7949H20.6154C22.8718 19.7949 24.6154 18.0513 24.6154 15.8974V10.0513C24.6154 9.64103 24.9231 9.33333 25.3333 9.33333H26.359C26.7692 9.33333 27.0769 9.64103 27.0769 10.0513V15.8974V15.8974ZM16 0C7.07692 0 0 7.07692 0 16C0 24.9231 7.17949 32 16 32C24.8205 32 32 24.8205 32 16C32 7.17949 24.9231 0 16 0Z" fill="#0095D3"/>
</svg>
