<?xml version="1.0" encoding="utf-8"?>
<!-- Generator: Adobe Illustrator 22.1.0, SVG Export Plug-In . SVG Version: 6.00 Build 0)  -->
<svg version="1.1" id="Layer_1" xmlns="http://www.w3.org/2000/svg" xmlns:xlink="http://www.w3.org/1999/xlink" x="0px" y="0px"
	 viewBox="0 0 204.6 204.8" style="enable-background:new 0 0 204.6 204.8;" xml:space="preserve">
<style type="text/css">
	.st0{fill:url(#XMLID_4_);}
	.st1{fill:url(#XMLID_5_);}
	.st2{fill:url(#XMLID_7_);}
	.st3{fill:#27BDBE;}
</style>
<g id="XMLID_1_">
	<linearGradient id="XMLID_4_" gradientUnits="userSpaceOnUse" x1="86.2854" y1="70.1839" x2="137.8969" y2="70.1839">
		<stop  offset="0" style="stop-color:#47C2C5"/>
		<stop  offset="1" style="stop-color:#2BB673"/>
	</linearGradient>
	<path id="XMLID_49_" class="st0" d="M112.1,44.6c-14.2,0-25.8,11.5-25.8,25.6c0,14.1,11.6,25.6,25.8,25.6s25.8-11.5,25.8-25.6
		C137.9,56.1,126.3,44.6,112.1,44.6z"/>
	<linearGradient id="XMLID_5_" gradientUnits="userSpaceOnUse" x1="13" y1="102.3852" x2="191.6464" y2="102.3852">
		<stop  offset="0" style="stop-color:#47C2C5"/>
		<stop  offset="1" style="stop-color:#2BB673"/>
	</linearGradient>
	<path id="XMLID_2_" class="st1" d="M52.8,151.1c0.9,26.7,25.2,40.7,48.7,40.7c49.7,0,90.1-40.1,90.1-89.4
		c0-49.8-41.5-90.3-91.7-89.4c40.4,2.6,72.4,32,72.4,67.8c0,18.6-17.6,53.9-51.1,55.2C94,137,80.4,118.8,68.4,102.8
		c-9.2-12.3-17.1-22.8-29.3-22.8c-8.6,0-15.1,2.9-19.5,8.5c-9,11.7-6.5,31.7-5.4,36.1c2.8,11,7.9,21.3,15,30.5
		c-9-17.5-9.4-34.6-3.1-43.9c2.8-4.1,6.6-6.3,11-6.3c1.6,0,3.3,0.3,5.1,0.9c12.6,4.5,11.9,17.6,11.1,31.5
		C52.9,141.8,52.7,146.4,52.8,151.1z"/>
	<linearGradient id="XMLID_7_" gradientUnits="userSpaceOnUse" x1="51.9417" y1="74.4209" x2="163.1464" y2="74.4209">
		<stop  offset="0" style="stop-color:#47C2C5"/>
		<stop  offset="1" style="stop-color:#2BB673"/>
	</linearGradient>
	<path id="XMLID_21_" class="st2" d="M55.2,77.6c-1.1-0.1-2.2-0.2-3.3-0.2c0,0,0,0,0,0c9,2.9,15.6,11.7,22.6,20.9
		c10.5,13.9,22.2,29.8,45.3,28.8c30.4-1.2,43.3-34,43.3-46.9c0-32.2-30.4-58.5-67.8-58.5c-3.8,0-7.2,0.1-10.7,0.6c0.4,0,0.8,0,1.3,0
		c6.1,0,12.1,0.7,17.9,2.1c16.7,4,31.1,13.7,38.5,26.2c3.9,6.5,6,13.4,6,20.1c0,20-16.4,36.4-36.6,36.4c-13.1,0-22.8-8-32.3-15.7
		c-3.7-3-7.3-5.9-11-8.4C63.7,79.9,59.4,78.1,55.2,77.6z"/>
	<path id="XMLID_6_" class="st3" d="M47.4,148.8c0.8,3,1.7,6.5,3,10.1c-0.5-2.5-0.8-5.1-0.9-7.7c-0.2-4.8,0.1-9.5,0.4-14.1
		c0.8-13.7,1.4-24.5-8.9-28.1c-5.9-2.1-9.6,0.8-11.7,3.5c-6.5,8.7-5.9,27.5,5.2,46.1c-3-7.1-4.4-14.1-2.8-18.5
		c0.9-2.6,2.8-4.1,5.5-4.5c0.4,0,0.8-0.1,1.1-0.1C43.9,135.6,45.6,141.7,47.4,148.8z"/>
</g>
</svg>
