<svg width="32" height="32" viewBox="0 0 32 32" fill="none" xmlns="http://www.w3.org/2000/svg">
<path d="M23.5395 8C20.643 7.99922 17.9603 9.5262 16.4805 12.0172L16.3722 12.2027L16.3029 12.3267C15.7701 13.2923 14.8198 15.3325 14.4338 15.9965C13.8971 16.966 13.306 17.9048 12.6651 18.8089C12.1008 19.5313 11.3897 20.1266 10.5799 20.5553C8.17824 21.8439 5.18616 20.9407 3.89808 18.538C3.51608 17.8251 3.3148 17.03 3.3124 16.2215C3.3416 13.5031 5.53744 11.3058 8.2556 11.2766C9.06848 11.2758 9.868 11.489 10.5728 11.8948C10.9478 12.1104 11.295 12.3693 11.6076 12.6678C11.9564 12.9851 12.2722 13.3373 12.5498 13.7187L13.2066 14.6922L15.0447 11.6019L14.7282 11.2C14.0542 10.2936 13.179 9.5562 12.1719 9.04457C10.9674 8.37267 9.61224 8.01895 8.23264 8.01738C3.71416 8.06317 0.0584 11.7101 0 16.2302C0.0212 20.778 3.71024 24.454 8.25632 24.458C9.62656 24.4549 10.9746 24.1131 12.1798 23.4616C12.7694 23.1308 13.3234 22.74 13.8325 22.2947C14.6699 21.4618 15.4038 20.53 16.0178 19.5211C16.1734 19.8707 16.3541 20.2095 16.5585 20.5332C16.905 21.127 17.3281 21.6725 17.8174 22.1557V22.1091C21.0675 25.2776 26.2703 25.2105 29.4376 21.9591C32.605 18.7078 32.5378 13.5031 29.2876 10.3347C27.7518 8.8377 25.6918 8.00001 23.5474 8.00158L23.5395 8ZM23.5466 21.134C20.8214 21.134 18.6114 18.9234 18.6114 16.197C18.6114 13.4707 20.8214 11.26 23.5466 11.26C26.2719 11.26 28.4818 13.4707 28.4818 16.197C28.4818 18.9242 26.2727 21.134 23.5466 21.134Z" fill="#FF5003"/>
</svg>
