<svg xmlns="http://www.w3.org/2000/svg" width="400" height="397" viewBox="0 0 400 397"><defs><radialGradient id="a" cx="0%" cy="0%" r="100%" fx="0%" fy="0%"><stop stop-color="#20C6B7" offset="0%"/><stop stop-color="#4D9ABF" offset="100%"/></radialGradient></defs><path fill="url(#a)" d="M282.153 140.402a16.944 16.944 0 0 1 5.105 3.84c.17.167.17.167.34.167h.17l39.141-16.528c.17-.167.34-.333.34-.5 0-.167 0-.334-.17-.501l-36.588-35.894c-.17-.167-.34-.167-.34-.167h-.17c-.17 0-.34.167-.34.501l-7.999 48.582c.17.167.34.5.51.5zm-81.174-32.554a21.438 21.438 0 0 1 3.403 9.516c0 .167.17.334.34.5l58.2 24.542h.171c.17 0 .34 0 .34-.167 1.702-1.336 3.744-2.337 5.956-3.005.17 0 .34-.167.34-.501l9.53-58.598c0-.167 0-.334-.17-.501L242.673 43.74c-.17-.167-.17-.167-.34-.167s-.34.167-.34.334l-41.013 63.106c-.17.334-.17.668 0 .835zm198.766 90.318L337.29 136.73c-.17-.167-.34-.167-.34-.167h-.17l-42.375 17.863c-.17.167-.34.334-.34.5 0 .168.17.502.34.502l104.489 43.907h.17c.17 0 .34 0 .34-.167l.34-.334c.341 0 .341-.5 0-.668zm-10.381 10.017l-100.234-42.07h-.17c-.17 0-.34 0-.51.166-2.724 3.673-6.808 6.01-11.573 6.678-.17 0-.51.167-.51.5l-10.721 65.277c0 .167 0 .334.17.501 3.744 2.838 5.956 7.012 6.466 11.686 0 .334.17.501.511.501l60.583 12.521h.17c.17 0 .34 0 .34-.167l55.478-54.591c.17-.167.17-.334.17-.501 0-.167 0-.334-.17-.501zm-132.738-55.76l-54.797-23.04h-.17c-.17 0-.34.168-.51.335-3.744 5.676-10.04 9.015-16.848 9.015-1.02 0-2.042-.167-3.233-.334h-.17c-.17 0-.34.167-.51.334l-45.098 69.283a.5.5 0 0 0 0 .668c.17.167.34.167.51.167h.171l120.315-50.92c.17-.166.34-.333.34-.5v-1.502c0-1.002.17-2.004.34-2.839 0-.333-.17-.5-.34-.667zm66.029 121.203l-53.266-10.851h-.17c-.17 0-.34.167-.51.167-2.042 2.504-4.595 4.507-7.658 5.676-.17 0-.34.334-.34.5l-12.764 77.798c0 .334.17.5.34.668h.341c.17 0 .34 0 .34-.167l73.857-72.622c.17-.167.17-.334.17-.501 0-.5-.17-.668-.34-.668zm-74.367-5.342c-5.106-2.004-8.85-6.511-10.211-11.686 0-.167-.17-.334-.51-.501l-98.703-20.2h-.17c-.17 0-.34.166-.51.333-.511.835-.852 1.503-1.362 2.17a.5.5 0 0 0 0 .668l89.853 128.883c.17.167.17.167.34.167s.34 0 .34-.167l5.447-5.342c0-.167.17-.167.17-.334l15.316-93.49c.34 0 .34-.334 0-.501zm-107.382-44.241c0 .334.17.5.51.5l97.852 20.034h.17c.17 0 .34-.167.51-.334 2.894-5.008 8-8.347 13.785-8.68.34 0 .51-.168.51-.502l10.552-64.274c0-.167 0-.501-.34-.501-.681-.5-1.362-1.002-2.213-1.836-.17-.167-.34-.167-.34-.167h-.17l-120.996 51.252c-.34.167-.34.334-.34.668.17 1.336.51 2.504.51 3.84zm-41.012 16.194c-.51-.668-1.021-1.336-1.532-2.17-.17-.168-.34-.334-.51-.334h-.17l-42.204 17.863c-.17 0-.34.167-.34.334s0 .334.17.5l20.59 20.201c.17.167.341.167.341.167.17 0 .34-.167.51-.334l23.315-35.893s0-.167-.17-.334zm27.909 6.51c-.17-.166-.34-.333-.51-.333h-.171c-3.063 1.335-6.126 2.003-9.36 2.003-2.552 0-4.935-.334-7.488-1.168h-.17c-.17 0-.34.166-.51.333l-24.506 37.73-.17.167a.5.5 0 0 0 0 .668l112.657 110.686c.17.167.34.167.34.167.17 0 .34 0 .34-.167l19.741-19.533a.5.5 0 0 0 0-.668l-90.193-129.884zm-15.827-43.572c.17.166.34.333.51.333h.17c1.703-.333 3.575-.667 5.276-.667 1.872 0 3.914.334 5.786.834h.17c.17 0 .34-.167.511-.334l45.607-70.117a.5.5 0 0 0 0-.668c-3.573-3.673-5.615-8.514-5.615-13.69 0-1.502.17-3.005.51-4.507 0-.334-.17-.501-.34-.668-5.786-2.504-57.01-23.874-57.01-24.04h-.17c-.17 0-.34 0-.34.166l-43.395 42.739a.5.5 0 0 0 0 .668l48.33 69.95zm4.935-122.206s51.734 21.703 53.946 22.705h.17c.17 0 .17 0 .34-.167 3.575-2.838 8.17-4.507 12.764-4.507 2.212 0 4.425.333 6.637 1.001h.17c.17 0 .34-.167.51-.334l42.034-64.608a.5.5 0 0 0 0-.668L198.596.167c-.17-.167-.17-.167-.34-.167s-.34 0-.34.167l-81.005 79.8c-.17.168-.17.335-.17.501-.17.334 0 .334.17.501zm-20.08 134.393c.17 0 .34-.167.51-.334 1.021-2.004 2.553-3.84 4.084-5.51a.5.5 0 0 0 0-.667c-.51-.668-46.628-66.78-46.628-66.946-.17-.167-.17-.167-.51-.334-.17 0-.341 0-.341.167L.17 194.493c-.17.167-.17.334-.17.501 0 .167.17.334.51.334l96.32 20.034c-.17 0-.17 0 0 0zm-4.425 11.519c0-.334-.17-.5-.51-.5L8.338 209.184h-.17c-.17 0-.34.167-.511.334-.17.166 0 .5.17.667l37.269 36.729c.17.167.34.167.34.167h.17l46.288-19.533c.34-.334.51-.501.51-.668z"/></svg>