<svg id="Layer_1" xmlns="http://www.w3.org/2000/svg" viewBox="0 0 505 194"><style>.st0{fill:#45c0ef}</style><path class="st0" d="M71 46.4c-7.8 0-15.5 1.4-22.6 4.6-4.1 1.9-7.9 4.4-11.3 7.3v-4.5c0-8.3-6-6.7-15.9-6.7-9.8 0-15.4-1.4-15.4 6.8v129.3c0 7.9 5.6 6.5 15.1 6.5S38 191 38 183.3v-56.8c0-11.5 1-28.5 7.6-38.3 5.4-7.9 13.7-10.5 23-10.5 8.3 0 16.4 2 21.7 8.9 6 7.8 7.2 20.1 7.2 29.6V183c0 7.6 6 6.6 15.7 6.6 10.2 0 16.7 1.2 16.7-6.9v-71.9c0-17-3.5-34.5-15.2-47.5C103.3 50.8 87.6 46.4 71 46.4m278.7.3h-15.3V12.8c0-6.9-4.1-8.6-16.1-8.6-11.9 0-16.1 1.9-16.1 8.6v33.9h-18.8c-5.4 0-5.2 5.9-5.2 13.8 0 8.3-.7 16.6 5.4 16.6h18.6v106.7c0 7 7.7 5.9 16.6 5.9 9.6 0 15.6 1.5 15.6-6.1V77.1h16c6.9 0 7.1-4.8 7.1-14.9 0-11 .1-15.5-7.8-15.5M268.4 122c-3.5-1.1-7.1-.7-10.4 1.1-3.3 1.8-5.5 4.5-6.6 8-1.3 4.2-3.2 8.1-5.7 11.7 0 0-1.5 2.2-2.3 3.2-3.7 4.6-8.3 8.2-13.4 11-4.7 2.5-9.7 4.2-15 4.9-5.1.7-10.3.5-15.4-.6-5-1.1-9.8-3-14.2-5.7-12.2-7.5-21.1-25.1-20.7-39.3.6-21 17.1-39.7 38-42.3 2-.2 4-.4 5.9-.3h-.1c-.3 0-.5-.1-.8-.1h.2c.2 0 .4.1.6.1h.1c10.7.1 21.4 3.8 29.6 10.8l1.2 1-1.3.7c-16.6 9.1-33.2 18.2-49.8 27.4-3.6 2-6.6 5.1-7.8 9.1-.7 2.4-.7 5 0 7.4.3 1 .7 1.9 1.2 2.8 1.8 3.1 4.7 5.4 8.2 6.3 4.2 1.1 8.6 0 12.4-2.1l64.2-35.2c3.2-1.7 5.3-4.5 6.6-7.8 4.4-11.5-14-28-20.3-32.8-7-5.3-14.8-9.2-22.9-11.6-27.3-8.2-58.3.1-76.8 23.8-11.4 14.7-17.1 32.8-15.3 51.4.9 9.5 3.8 18.6 8.3 27 4.7 8.6 10.8 16.3 18.5 22.4 7.3 5.7 15.4 10 24.3 12.5 8.8 2.5 17.9 3.2 27 2.3 9.5-1 18.5-3.9 26.9-8.5 8.4-4.5 16.3-10.2 22.5-17.4 6.2-7 10.1-15.5 12.3-24.5 1-3.5.6-7.1-1.1-10.2-1.7-3.1-4.5-5.4-8.1-6.5m226-31.7c-3.8-8.5-9-16.2-15.5-22.8-6.5-6.5-14.2-11.7-22.6-15.5-5.9-2.6-12.1-4.4-18.5-5.2.8.3-.1 0 0 0-.1 0-.2-.1-.2-.1-2.9-.4-5.7-.6-8.7-.6h-.2c-9.8.4-19.4 2.4-28.5 6.4-8.5 3.7-16.3 8.8-22.8 15.4-6.5 6.5-11.5 14.1-15.1 22.6-3.8 8.8-5.5 18.2-5.5 27.8 0 9.8 1.7 19.5 5.7 28.5 3.6 8.5 8.8 16.2 15.5 22.6 6.6 6.4 14.2 11.4 22.7 14.8 7.7 3.2 15.8 4.9 24.1 5.3h3.7c9.7 0 19.3-1.8 28.2-5.7 8.5-3.7 16.2-8.8 22.7-15.4 6.4-6.6 11.5-14.2 15.2-22.6 3.8-8.7 5.7-18 5.7-27.5-.1-9.7-2-19.2-5.9-28m-29.9 53.8c-1.4 1.9-2.9 3.7-4.6 5.4-4.1 4.1-8.9 7.3-14.3 9.5-5.5 2.3-11.3 3.5-17.3 3.5-5.9 0-11.7-1.1-17.2-3.4-5.3-2.3-10.1-5.5-14.2-9.5-4.1-4.1-7.3-8.9-9.5-14.1-2.4-5.4-3.5-11.2-3.5-17.2s1.2-11.8 3.5-17.3c2.3-5.3 5.4-10.2 9.5-14.3 4.1-4.1 8.9-7.3 14.2-9.5 4.4-1.9 9.1-3 13.8-3.3-1.3-.1-1.3-.1.1 0h-.1s2.3-.1 3.3-.1c6 0 11.8 1.1 17.3 3.5 5.3 2.3 10.1 5.4 14.3 9.5 4.1 4.1 7.3 8.9 9.5 14.3 2.3 5.5 3.4 11.3 3.4 17.3 0 5.9-1.1 11.7-3.4 17.2-1.2 2.9-2.8 5.8-4.8 8.5.1 0 .1 0 0 0 .1 0 .1 0 0 0z" id="Vector_Smart_Object"/></svg>