<svg width="475" height="475" viewBox="0 0 475 475" fill="none" xmlns="http://www.w3.org/2000/svg">
<g clip-path="url(#clip0_16:454)">
<path d="M275.291 187.579C274.668 187.579 274.024 187.319 273.331 186.785C268.6 183.059 264.269 178.719 260.492 173.847C259.568 172.661 259.599 171.888 260.492 170.732C264.371 165.679 268.891 161.299 274.044 157.361C274.336 157.14 274.908 156.939 275.291 156.939C275.683 156.939 276.244 157.14 276.547 157.361C281.68 161.299 286.18 165.679 290.088 170.732C290.972 171.888 291.003 172.661 290.088 173.847C286.321 178.719 281.971 183.059 277.239 186.785C276.576 187.319 275.913 187.579 275.291 187.579V187.579ZM452.712 236.232C452.652 197.827 380.461 131.283 303.549 88.888C214.813 39.984 113.851 11.1413 80.5891 29.4747C42.6855 50.392 21.8901 154.78 21.8901 236.232C21.8901 318.348 41.4797 421.4 80.5891 442.979C116.031 462.508 212.613 433.696 303.549 383.557C381.677 340.5 452.652 276.527 452.712 236.232ZM107.231 2C91.5593 2 78.7907 4.66267 69.2672 9.896C46.9349 22.212 28.5307 54.44 15.9932 103.092C5.83645 142.553 0 191.085 0 236.232C0 284.353 5.75625 332.624 16.1943 372.124C24.8136 404.784 41.0177 446.987 69.2573 462.559C79.4937 468.195 92.9453 471.037 109.24 471.037C167.728 471.037 256.183 433.736 314.148 401.8C350.655 381.668 389.312 354.121 417.581 328.093C455.355 293.284 474.543 262.392 474.583 236.243C474.532 205.16 444.012 170.039 418.416 146.049C389.323 118.795 350.353 90.616 314.148 70.6747C254.153 37.592 163.8 2 107.231 2ZM107.231 8.50933C162.664 8.50933 251.712 43.6907 311.013 76.36C376.172 112.295 467.992 185.64 468.073 236.232C467.992 290.048 374.092 361.315 311.013 396.095C253.732 427.659 166.512 464.547 109.24 464.547C94.0505 464.547 81.664 461.956 72.4016 456.852C27.1541 431.897 6.51979 324.999 6.50989 236.232C6.51979 191.619 12.2865 143.679 22.2921 104.711C34.3771 57.8347 51.6969 27.0347 72.4016 15.612C80.9708 10.9 92.6745 8.50933 107.231 8.50933Z" fill="#F17D14"/>
<path d="M355.413 203.271C355.593 203.271 355.735 203.421 355.735 203.583C355.735 203.613 355.715 203.633 355.715 203.653C355.715 203.653 340.475 247.283 335.793 261.931C334.296 266.612 331.484 269.163 327.425 269.163H317.961C313.893 269.163 311.16 266.592 309.603 261.931C304.731 247.464 295.016 218.561 290.164 204.105C290.155 204.025 290.115 203.944 290.115 203.884C290.115 203.552 290.385 203.271 290.727 203.271H305.183C306.379 203.271 307.615 204.285 308.027 205.452C312.587 218.803 318.092 235.127 322.401 248.288C322.633 249.011 322.975 251.612 322.975 251.612C322.975 251.612 323.327 249.011 323.567 248.288C328.228 234.243 331.845 223.725 334.659 215.668C337.823 206.567 341.439 203.271 350.892 203.271H355.413L355.413 203.271ZM198.032 204.205C197.972 204.105 197.932 203.995 197.932 203.884C197.932 203.552 198.213 203.271 198.535 203.271H214.025C215.301 203.271 216.768 203.764 217.552 205.171L227.708 221.847L237.855 205.171C238.659 203.764 240.115 203.271 241.381 203.271H256.912C257.244 203.271 257.495 203.552 257.495 203.884C257.495 203.995 257.475 204.105 257.415 204.196L238.216 236.001L259.143 268.259C259.192 268.349 259.223 268.46 259.223 268.571C259.223 268.901 258.961 269.163 258.629 269.163H240.648C239.392 269.163 237.704 268.369 237.112 267.265L227.708 250.468L218.275 267.265C217.692 268.369 216.015 269.163 214.749 269.163H196.807C196.476 269.163 196.215 268.901 196.215 268.571C196.215 268.46 196.224 268.349 196.295 268.259L217.191 236.001L198.032 204.205ZM372.381 230.325H401.947C401.473 221.415 395.296 216.1 387.168 216.1C379.021 216.1 372.853 221.415 372.381 230.325V230.325ZM418.884 234.907C418.884 241.828 417.648 243.284 412.072 243.284H372.461C372.461 249.483 377.072 255.973 387.821 255.973C397.436 255.973 407.009 253.583 410.837 252.387C411.329 252.215 411.841 252.588 411.841 253.069V265.084C411.841 265.928 411.269 266.451 410.485 266.963C406.909 269.253 394.281 270.419 387.821 270.419C365.901 270.419 355.735 259.368 355.735 236.232C355.735 212.544 370.06 202.016 387.881 202.016C402.709 202.016 418.884 211.58 418.884 234.907V234.907ZM149.903 230.325H179.477C179.005 221.415 172.827 216.1 164.689 216.1C156.563 216.1 150.395 221.415 149.903 230.325ZM196.415 234.907C196.415 241.828 195.18 243.284 189.613 243.284H149.992C149.992 249.483 154.584 255.973 165.373 255.973C174.967 255.973 184.551 253.583 188.359 252.387C188.851 252.215 189.383 252.588 189.383 253.069V265.084C189.383 265.928 188.82 266.451 188.007 266.963C184.42 269.253 171.812 270.419 165.373 270.419C143.423 270.419 133.256 259.368 133.256 236.232C133.256 212.544 147.572 202.016 165.403 202.016C180.241 202.016 196.415 211.58 196.415 234.907V234.907ZM284.559 203.884V268.571C284.559 268.901 284.277 269.163 283.956 269.163H266.616C266.275 269.163 266.033 268.901 266.033 268.571V203.884C266.033 203.552 266.275 203.271 266.616 203.271H283.956C284.277 203.271 284.559 203.552 284.559 203.884ZM123.582 232.093V268.571C123.582 268.901 123.31 269.163 122.979 269.163H112.642C108.754 269.163 105.379 266.028 105.379 262.171V234.584C105.379 224.74 99.9536 219.727 89.8369 219.737H78.0131C77.6817 219.737 77.4005 219.999 77.4005 220.34V268.571C77.4005 268.901 77.1391 269.163 76.7973 269.163H59.7995C59.4781 269.163 59.2172 268.901 59.2172 268.571V205.392C59.2172 204.225 60.1516 203.271 61.3265 203.271H91.2839C105.318 203.271 123.582 207.772 123.582 232.093" fill="#232D66"/>
</g>
<defs>
<clipPath id="clip0_16:454">
<rect width="474.58" height="474.58" fill="white"/>
</clipPath>
</defs>
</svg>
