<svg width="32" height="32" viewBox="0 0 32 32" fill="none" xmlns="http://www.w3.org/2000/svg">
<g clip-path="url(#clip0_3572_2)">
<path d="M23.8139 32H8.18605C7.11062 32.0029 6.04529 31.7925 5.05173 31.3809C4.05818 30.9693 3.15612 30.3648 2.39777 29.6022C1.63523 28.8439 1.03068 27.9418 0.619101 26.9483C0.207524 25.9547 -0.00290332 24.8894 -8.97389e-07 23.8139V8.18603C-0.00290332 7.1106 0.207524 6.04528 0.619101 5.05172C1.03068 4.05816 1.63523 3.1561 2.39777 2.39775C3.15612 1.63522 4.05818 1.03066 5.05173 0.619087C6.04529 0.20751 7.11062 -0.0029174 8.18605 -1.49772e-05H23.8139C24.8895 -0.00297479 25.955 0.207423 26.9486 0.619001C27.9423 1.03058 28.8445 1.63516 29.603 2.39775C30.3654 3.15614 30.9698 4.05822 31.3813 5.05178C31.7927 6.04534 32.003 7.11065 32 8.18603V23.8139C32.0029 24.8894 31.7925 25.9547 31.381 26.9483C30.9694 27.9418 30.3648 28.8439 29.6022 29.6022C28.8439 30.3647 27.9418 30.9693 26.9482 31.3808C25.9547 31.7924 24.8894 32.0028 23.8139 32ZM8.41972 9.14826V18.1031C8.40603 18.9679 8.62998 19.82 9.06716 20.5663C9.50136 21.29 10.1245 21.8817 10.8696 22.2779C11.6947 22.708 12.6147 22.9237 13.5449 22.9053C14.4761 22.9248 15.3973 22.7101 16.224 22.2809C16.969 21.8856 17.5913 21.2936 18.0234 20.5693C18.4599 19.8213 18.6836 18.9682 18.6701 18.1023V9.14752H17.4355V18.0167C17.4466 18.6871 17.2816 19.3486 16.957 19.9352C16.6382 20.4956 16.1677 20.9545 15.5996 21.2591C14.9671 21.5912 14.2606 21.7571 13.5464 21.7414C12.8329 21.7574 12.127 21.5915 11.4954 21.2591C10.9286 20.953 10.4587 20.4945 10.1388 19.9352C9.81181 19.3494 9.64545 18.6876 9.65656 18.0167V9.14752L8.41972 9.14826ZM22.2616 9.14826V22.6738H23.4969V9.14826H22.2616Z" fill="black"/>
</g>
<defs>
<clipPath id="clip0_3572_2">
<rect width="32" height="32" fill="white"/>
</clipPath>
</defs>
</svg>
