<svg width="32" height="32" viewBox="0 0 32 32" fill="none" xmlns="http://www.w3.org/2000/svg">
<rect width="32" height="32" fill="#0050C8"/>
<path fill-rule="evenodd" clip-rule="evenodd" d="M3.12738 19.3028C2.85911 19.302 2.59372 19.2474 2.3469 19.1423C2.10009 19.0372 1.87685 18.8837 1.69038 18.6908C1.30881 18.2899 1.096 17.7577 1.096 17.2043C1.096 16.6509 1.30881 16.1186 1.69038 15.7178L16.0844 0.820778C16.27 0.62647 16.4931 0.471811 16.7402 0.366145C16.9872 0.260479 17.2532 0.206 17.5219 0.206C17.7906 0.206 18.0565 0.260479 18.3036 0.366145C18.5507 0.471811 18.7738 0.62647 18.9594 0.820778C19.7514 1.64078 19.7514 2.97378 18.9594 3.79378L4.56438 18.6798C4.16338 19.0948 3.64438 19.3028 3.12738 19.3028ZM14.4254 31.0748C14.1569 31.074 13.8913 31.0193 13.6442 30.914C13.3972 30.8087 13.1739 30.655 12.9874 30.4618C12.6058 30.0609 12.393 29.5287 12.393 28.9753C12.393 28.4219 12.6058 27.8896 12.9874 27.4888L27.3824 12.6028C27.568 12.4086 27.791 12.2541 28.038 12.1485C28.285 12.043 28.5508 11.9885 28.8194 11.9885C29.088 11.9885 29.3538 12.043 29.6008 12.1485C29.8477 12.2541 30.0708 12.4086 30.2564 12.6028C31.0494 13.4228 31.0494 14.7558 30.2564 15.5758L15.8624 30.4508C15.4604 30.8658 14.9424 31.0738 14.4254 31.0738V31.0748ZM25.7024 31.1288C25.4339 31.1281 25.1684 31.0736 24.9214 30.9685C24.6744 30.8634 24.451 30.7098 24.2644 30.5168C23.8828 30.1159 23.67 29.5837 23.67 29.0303C23.67 28.4769 23.8828 27.9446 24.2644 27.5438L27.4344 24.2648C27.62 24.0705 27.8431 23.9158 28.0902 23.8101C28.3372 23.7045 28.6032 23.65 28.8719 23.65C29.1406 23.65 29.4065 23.7045 29.6536 23.8101C29.9007 23.9158 30.1238 24.0705 30.3094 24.2648C31.1024 25.0848 31.1024 26.4178 30.3094 27.2378L27.1394 30.5168C26.9534 30.7105 26.7301 30.8647 26.483 30.9698C26.2358 31.075 25.97 31.1291 25.7014 31.1288H25.7024ZM3.03238 7.67378C2.76394 7.67312 2.49837 7.61862 2.25137 7.5135C2.00437 7.40837 1.78096 7.25477 1.59438 7.06178C1.21281 6.66093 1 6.1287 1 5.57528C1 5.02186 1.21281 4.48963 1.59438 4.08878L4.76538 0.809778C4.951 0.61547 5.17409 0.460811 5.42116 0.355145C5.66823 0.249479 5.93416 0.195 6.20288 0.195C6.4716 0.195 6.73753 0.249479 6.9846 0.355145C7.23168 0.460811 7.45476 0.61547 7.64038 0.809778C8.43238 1.62978 8.43238 2.96278 7.64038 3.78278L4.47038 7.06178C4.28301 7.25374 4.05946 7.40666 3.81264 7.51171C3.56581 7.61675 3.30062 7.67184 3.03238 7.67378ZM3.06338 31.0848C2.79511 31.084 2.52972 31.0294 2.2829 30.9243C2.03609 30.8192 1.81285 30.6657 1.62638 30.4728C1.24481 30.0719 1.032 29.5397 1.032 28.9863C1.032 28.4329 1.24481 27.9006 1.62638 27.4998L21.7384 6.70078C21.924 6.50647 22.1471 6.35181 22.3942 6.24615C22.6412 6.14048 22.9072 6.086 23.1759 6.086C23.4446 6.086 23.7105 6.14048 23.9576 6.24615C24.2047 6.35181 24.4278 6.50647 24.6134 6.70078C25.4054 7.52078 25.4054 8.85378 24.6134 9.67378L4.50138 30.4728C4.11038 30.8878 3.58138 31.0848 3.06338 31.0848V31.0848ZM27.5094 5.78278C27.2409 5.78212 26.9754 5.72762 26.7284 5.6225C26.4814 5.51737 26.258 5.36377 26.0714 5.17078C25.6898 4.76993 25.477 4.2377 25.477 3.68428C25.477 3.13086 25.6898 2.59863 26.0714 2.19778L27.6354 0.614778C27.821 0.42047 28.0441 0.265811 28.2912 0.160145C28.5382 0.0544789 28.8042 0 29.0729 0C29.3416 0 29.6075 0.0544789 29.8546 0.160145C30.1017 0.265811 30.3248 0.42047 30.5104 0.614778C31.3034 1.43478 31.3034 2.76778 30.5104 3.58678L28.9464 5.17178C28.5554 5.57678 28.0264 5.78378 27.5094 5.78378V5.78278Z" fill="white"/>
</svg>
