<svg width="32" height="32" viewBox="0 0 32 32" fill="none" xmlns="http://www.w3.org/2000/svg">
<path d="M16.0213 9.2522C13.1041 9.25251 10.6545 11.25 9.90609 13.9371C9.25284 12.4999 7.81494 11.4813 6.14428 11.4811C3.87013 11.4813 2.00028 13.3514 2 15.6257C1.99956 17.9005 3.86966 19.7709 6.14428 19.7711C7.81513 19.7709 9.25209 18.7517 9.90522 17.3143C10.6534 20.0018 13.1038 21.9997 16.0214 22C18.9227 22.0002 21.3602 20.0241 22.1238 17.3594C22.7877 18.7703 24.2035 19.7709 25.8549 19.771C28.13 19.7715 30.0004 17.9009 30 15.6256C29.9998 13.3508 28.1295 11.4806 25.8549 11.481C24.2034 11.4812 22.7868 12.4815 22.123 13.8926C21.3593 11.228 18.9227 9.25183 16.0214 9.25201L16.0213 9.2522ZM16.0213 11.6852C18.2121 11.685 19.9622 13.4348 19.9624 15.6258C19.9625 17.817 18.2124 19.5674 16.0213 19.5672C13.8305 19.567 12.0808 17.8168 12.081 15.6258C12.0812 13.4351 13.8307 11.6855 16.0213 11.6852ZM6.14381 13.9141C7.10356 13.9142 7.85519 14.6659 7.85528 15.6257C7.85544 16.5857 7.10372 17.338 6.14381 17.3381C5.18388 17.338 4.43219 16.5856 4.43237 15.6257C4.4325 14.6659 5.18413 13.9142 6.14381 13.9141V13.9141ZM25.8549 13.9141C26.8148 13.9139 27.5671 14.6657 27.5672 15.6257C27.5674 16.586 26.815 17.3383 25.8549 17.3381C24.8949 17.338 24.1432 16.5856 24.1433 15.6257C24.1435 14.6659 24.8951 13.9142 25.8549 13.9141V13.9141Z" fill="#0082C9"/>
</svg>
