<svg width="32" height="32" viewBox="0 0 32 32" fill="none" xmlns="http://www.w3.org/2000/svg">
<path d="M15.9519 0H16.0261C16.4069 0.181348 16.7777 0.382795 17.1371 0.60349C21.2739 2.9824 25.4107 5.36207 29.5475 7.7425C29.7076 7.82793 29.8382 7.95947 29.9226 8.12007C30.007 8.28067 30.0412 8.46291 30.0207 8.64317C30.0116 13.6597 30.0207 18.675 30.015 23.6893C29.9612 23.9286 29.8149 24.1369 29.6081 24.2688C25.2092 26.8016 20.8099 29.3329 16.4102 31.8627C16.3036 31.9439 16.175 31.9914 16.0412 31.9989C15.9074 32.0065 15.7743 31.9737 15.6593 31.905C11.255 29.3798 6.85492 26.85 2.45905 24.3156C2.31618 24.2481 2.19652 24.1397 2.11516 24.0043C2.03379 23.8688 1.99437 23.7123 2.00186 23.5544C2.00186 18.539 2.00186 13.524 2.00186 8.50944C1.99108 8.35228 2.02741 8.19547 2.1062 8.05906C2.18499 7.92265 2.30267 7.81284 2.44419 7.74365C6.57566 5.36778 10.7071 2.9904 14.8386 0.611491C15.2066 0.401184 15.5678 0.178304 15.9519 0Z" fill="#019639"/>
<path d="M7.74411 9.75881C7.74411 13.8956 7.74411 18.0328 7.74411 22.1704C7.73883 22.3995 7.77927 22.6274 7.86307 22.8407C7.94687 23.054 8.07234 23.2485 8.23216 23.4128C8.5385 23.7154 8.93933 23.9038 9.3678 23.9467C9.79627 23.9895 10.2265 23.8842 10.5867 23.6482C10.8278 23.4844 11.0252 23.2641 11.1616 23.0065C11.2981 22.7489 11.3695 22.4619 11.3696 22.1704C11.3696 19.1758 11.3639 16.1812 11.3696 13.1866C14.0998 16.4555 16.8357 19.7198 19.5773 22.9796C19.9582 23.3655 20.4299 23.6495 20.9491 23.8057C21.4684 23.9618 22.0185 23.9851 22.549 23.8734C22.9237 23.7996 23.2648 23.6075 23.5222 23.3255C23.7795 23.0434 23.9396 22.6862 23.9789 22.3064C23.985 18.0842 23.985 13.8625 23.9789 9.64109C23.9396 9.19048 23.7327 8.77098 23.3993 8.46537C23.0658 8.15976 22.6299 7.99023 22.1776 7.99023C21.7253 7.99023 21.2894 8.15976 20.9559 8.46537C20.6224 8.77098 20.4156 9.19048 20.3763 9.64109C20.3763 12.6837 20.358 15.7228 20.3763 18.7643C17.6948 15.6028 15.0466 12.4139 12.3754 9.24105C12.0233 8.78949 11.5571 8.44001 11.0249 8.22866C10.4927 8.0173 9.91371 7.95171 9.3477 8.03864C8.91893 8.08637 8.52144 8.28611 8.22726 8.60168C7.93308 8.91724 7.76168 9.32775 7.74411 9.75881V9.75881Z" fill="white"/>
</svg>
