<svg width="32" height="32" viewBox="0 0 32 32" fill="none" xmlns="http://www.w3.org/2000/svg">
<path d="M14.1539 9.28424C13.2072 8.89217 12.1887 8.70336 11.1644 8.73002C10.14 8.75668 9.13273 8.99822 8.20771 9.439C7.45697 9.80059 6.77326 10.2874 6.18589 10.8784L1.18691 15.9024C0.426459 16.6673 -0.000268595 17.7021 1.26839e-07 18.7807C1.26839e-07 21.0131 1.82807 22.8499 4.04945 22.8499H4.05062C4.09949 22.8499 4.14836 22.8499 4.19724 22.847C3.71173 22.6658 3.28014 22.3644 2.94286 21.9709C2.60559 21.5775 2.37366 21.1049 2.26879 20.5974C2.16392 20.0899 2.18954 19.5641 2.34324 19.0692C2.49695 18.5743 2.77371 18.1265 3.14764 17.7677L7.32858 13.5682L7.77193 13.1202L7.92204 12.9695L8.09193 12.7978C8.19665 12.6949 8.30429 12.5959 8.41542 12.5017C10.141 10.9873 12.359 10.1532 14.6548 10.1552C15.0284 10.1552 15.4019 10.1767 15.7731 10.2204C15.2759 9.83949 14.7314 9.52463 14.1533 9.28365L14.1539 9.28424ZM31.0964 11.2682C30.2598 9.20045 27.879 8.18867 25.8199 9.02707L25.7681 9.0486C25.2859 9.25298 24.848 9.54919 24.4788 9.92074L21.4202 12.9951L20.9786 13.4373C20.9652 13.4501 20.9519 13.4634 20.9379 13.4757C20.6816 13.7112 20.3443 13.8386 19.9964 13.8315C19.6484 13.8243 19.3166 13.6831 19.0703 13.4373L16.7232 11.0791C14.9682 10.6563 13.1258 10.7826 11.4449 11.441C12.638 11.4621 13.7756 11.9488 14.6147 12.7973L18.6723 16.8746C19.0315 17.2321 19.5177 17.4327 20.0244 17.4327C20.5312 17.4327 21.0173 17.2321 21.3766 16.8746L26.386 11.8407C26.4343 11.7919 26.4867 11.7471 26.542 11.7058C27.0918 11.2323 27.7933 10.9717 28.519 10.9715C29.1486 10.9733 29.7621 11.17 30.2753 11.5348C30.7884 11.8996 31.1759 12.4144 31.3844 13.0085C31.4163 12.4142 31.3176 11.8202 31.0953 11.2682H31.0964ZM28.5213 11.6511C28.384 11.6511 28.2479 11.6627 28.1129 11.6866C28.2749 11.8004 28.4102 11.9483 28.5091 12.1198C28.6081 12.2914 28.6683 12.4825 28.6857 12.6797C28.7031 12.877 28.6772 13.0757 28.6098 13.2619C28.5424 13.4481 28.4352 13.6174 28.2956 13.7578L23.3181 18.7615L23.2861 18.7935C23.1989 18.8812 23.1083 18.9655 23.0144 19.046C21.2776 20.6049 19.0256 21.4662 16.6918 21.464C16.3444 21.464 15.9965 21.4454 15.6509 21.4076C16.7141 22.2014 17.9732 22.6909 19.2933 22.8236C20.6135 22.9563 21.9448 22.7273 23.1447 22.161C23.9064 21.8007 24.5994 21.3105 25.1927 20.7123L30.0503 15.8332L30.2045 15.6778C30.2592 15.6231 30.3116 15.5673 30.3628 15.5097C30.6988 15.0882 30.8817 14.5651 30.8817 14.0261C30.8817 12.7239 29.8153 11.6522 28.5201 11.6522H28.519L28.5213 11.6511ZM19.9761 20.1485C18.7681 20.1372 17.6132 19.6498 16.7622 18.7923L12.7238 14.7341C12.5453 14.552 12.3327 14.4069 12.0981 14.3071C11.8635 14.2073 11.6115 14.1547 11.3565 14.1523C11.1046 14.1515 10.855 14.2009 10.6223 14.2976C10.3897 14.3943 10.1786 14.5363 10.0015 14.7155L8.81047 15.9141L8.30895 16.4173L7.14415 17.5885L6.66124 18.0743L5.86298 18.8778L5.14967 19.5946L5.00713 19.7389C4.86594 19.8809 4.69487 19.9896 4.50636 20.0572C4.31786 20.1247 4.11667 20.1494 3.91743 20.1294C3.71819 20.1094 3.52592 20.0452 3.35461 19.9415C3.1833 19.8379 3.03726 19.6973 2.92713 19.5301C2.89888 19.6777 2.88466 19.8277 2.88465 19.9781C2.88465 21.2802 3.95055 22.3519 5.24625 22.353C5.84302 22.3528 6.41743 22.1259 6.85324 21.7183L6.88407 21.688L6.91491 21.6578L6.95564 21.617L8.27171 20.294L10.4099 18.1453C10.6641 17.8972 11.0058 17.7592 11.361 17.7612C11.7162 17.7631 12.0563 17.9049 12.3078 18.1558L14.6991 20.5587C16.4579 20.966 18.3005 20.8229 19.9761 20.1485Z" fill="#007AFF"/>
</svg>
