<svg width="32" height="32" viewBox="0 0 32 32" fill="none" xmlns="http://www.w3.org/2000/svg">
<path d="M27.0336 0H4.096C1.83384 0 0 1.83384 0 4.096V27.0336C0 29.2957 1.83384 31.1296 4.096 31.1296H27.0336C29.2957 31.1296 31.1296 29.2957 31.1296 27.0336V4.096C31.1296 1.83384 29.2957 0 27.0336 0Z" fill="#ED494D"/>
<path d="M22.1952 21.2695L23.6185 21.2696C23.6218 21.2696 23.6239 21.0705 23.6239 20.9621C23.6239 19.3697 23.2686 17.8692 22.636 16.516C22.5369 16.2586 22.4012 15.9966 22.2464 15.7344C23.5057 15.3108 24.7388 15.0739 25.6522 14.8879C26.7645 14.6616 27.4023 14.515 27.029 14.2096C26.2179 13.5457 25.1852 12.8265 25.1852 12.8265C25.1852 12.8265 29.3342 9.39765 25.1852 10.4357C24.4029 10.6314 23.7171 10.9246 23.1151 11.2691C21.9576 11.932 21.1168 12.7891 20.5424 13.5366C18.6362 11.6281 16.0026 10.4463 13.092 10.4463C7.27534 10.4463 2.56 15.1455 2.56 20.9621C2.56 21.0704 2.56215 21.2696 2.56541 21.2696H4.26448C4.3065 19.8213 6.35144 18.637 7.63663 17.9607C11.0312 16.1746 16.0999 16.5988 19.3755 18.4072C20.6224 19.0958 22.1531 19.9529 22.1942 21.2696" fill="#414242"/>
<path d="M22.1951 21.2695H4.26853C4.19967 18.5641 8.11844 15.9279 13.0434 15.8712C17.9685 15.8145 22.0539 17.9512 22.1916 20.6558" fill="white"/>
<path d="M10.1712 21.2695C10.1591 20.4448 9.69054 19.7812 9.11315 19.7812C8.53582 19.7812 8.06726 20.4448 8.05511 21.2695H10.1712Z" fill="#414242"/>
<path d="M18.1335 21.2695C18.1214 20.4448 17.6529 19.7812 17.0755 19.7812C16.4981 19.7812 16.0296 20.4448 16.0175 21.2695H18.1335Z" fill="#414242"/>
</svg>
