<svg width="32" height="32" viewBox="0 0 32 32" fill="none" xmlns="http://www.w3.org/2000/svg">
<path d="M15.6444 6.3999L15.6443 20.1707C15.6418 22.4642 15.6052 24.0441 15.6052 25.5999H8.05299C3.54213 25.5999 1.06667 23.4879 1.06667 20.169C1.06667 17.9473 2.3319 16.329 4.31228 15.6708C2.68947 14.985 1.69928 13.449 1.69928 11.5565C1.69928 8.48447 4.14726 6.3999 8.43807 6.3999H15.6444ZM23.5619 6.3999C27.8527 6.3999 30.3007 8.48447 30.3007 11.5565C30.3007 13.449 29.3105 14.985 27.6877 15.6708C29.6681 16.329 30.9333 17.9473 30.9333 20.169C30.9333 23.4879 28.4579 25.5999 23.947 25.5999H16.3948C16.3948 24.0441 16.3582 22.4642 16.3557 20.1707L16.3556 6.3999H23.5619ZM11.7662 17.3713H8.35555C6.10012 17.3713 4.97241 18.2216 4.97241 19.8948C4.97241 21.6502 6.01761 22.5279 8.0805 22.5279H9.86835C11.2986 22.5279 11.7662 21.8422 11.7662 19.7576V17.3713ZM23.6444 17.3713H20.2338V19.7576C20.2338 21.8422 20.7014 22.5279 22.1317 22.5279H23.9195C25.9824 22.5279 27.0276 21.6502 27.0276 19.8948C27.0276 18.2216 25.8999 17.3713 23.6444 17.3713ZM11.7937 9.4719H8.65812C6.65023 9.4719 5.60503 10.377 5.60503 11.913C5.60503 13.449 6.65023 14.3542 8.65812 14.3542H11.7937V9.4719ZM23.3419 9.4719H20.2063V14.3542H23.3419C25.3498 14.3542 26.395 13.449 26.395 11.913C26.395 10.377 25.3498 9.4719 23.3419 9.4719Z" fill="url(#paint0_radial_3468_85)"/>
<defs>
<radialGradient id="paint0_radial_3468_85" cx="0" cy="0" r="1" gradientUnits="userSpaceOnUse" gradientTransform="translate(-138.705 55.2924) rotate(131.222) scale(39.7082 26.5269)">
<stop stop-color="#2A6CBE"/>
<stop offset="0.38688" stop-color="#2062BC"/>
<stop offset="0.49182" stop-color="#1F5FBC"/>
<stop offset="0.66583" stop-color="#1C5ABD"/>
<stop offset="0.85354" stop-color="#1956BC"/>
<stop offset="1" stop-color="#1851BE"/>
</radialGradient>
</defs>
</svg>
