<svg width="32" height="32" viewBox="0 0 32 32" fill="none" xmlns="http://www.w3.org/2000/svg">
<path d="M14.8889 31.8578C12.1727 31.8578 9.5175 31.0523 7.25906 29.5433C5.00063 28.0342 3.24039 25.8894 2.20095 23.38C1.16151 20.8705 0.88954 18.1092 1.41944 15.4452C1.94935 12.7812 3.25732 10.3341 5.17796 8.4135C7.0986 6.49286 9.54565 5.18489 12.2097 4.65499C14.8737 4.12508 17.635 4.39705 20.1444 5.43649C22.6539 6.47594 24.7987 8.23617 26.3077 10.4946C27.8168 12.753 28.6222 15.4082 28.6222 18.1244V18.1244C28.5956 25.7244 22.4622 31.8578 14.8889 31.8578ZM14.8889 8.76444C9.71556 8.76444 5.50223 12.9511 5.50223 18.1244C5.50223 23.2978 9.6889 27.5111 14.8622 27.5111C20.0356 27.5111 24.2489 23.3244 24.2489 18.1511C24.2479 15.6615 23.2603 13.2738 21.5022 11.5111C20.6361 10.6389 19.6057 9.94714 18.4705 9.47568C17.3354 9.00423 16.1181 8.76249 14.8889 8.76444" fill="#FCC200"/>
<path d="M28.9422 4.41779H27.8222V5.43112H28.9422V4.41779Z" fill="#1D1D1B"/>
<path d="M24.8622 4.47112H23.8489V5.43112H24.8622V4.47112Z" fill="#1D1D1B"/>
<path d="M27.8222 5.43111H26.8356V6.41777H27.8222V5.43111Z" fill="#1D1D1B"/>
<path d="M29.8489 1.24445H28.7822V2.31111H29.8489V1.24445Z" fill="#1D1D1B"/>
<path d="M28.7822 2.31111H26.8356V3.37778H28.7822V2.31111Z" fill="#1D1D1B"/>
<path d="M26.8089 3.37778H25.8489V5.43111H26.8089V3.37778Z" fill="#1D1D1B"/>
<path d="M25.8489 6.41778V7.43111H24.8355V6.41778H23.1555V7.13778H22.2755V8.04444H23.2889V9.03111H22.2755V8.04444H21.2089V9.61778H20.1955V10.6044H19.5289V11.6178H18.7822C17.9556 12.8444 15.9022 16.6578 15.2622 18.2311C13.0222 15.1111 11.2622 13.8578 9.90222 13.4044C9.15555 13.1911 8.27555 13.9911 9.50222 15.2711C12.3289 18.3911 13.2356 20.9778 14.0889 23.0311C14.5422 24.1244 16.5956 24.2844 16.9956 23.1911C17.9278 20.6818 19.1542 18.2918 20.6489 16.0711V14.8978H21.4489V13.8844H22.3022V12.7111H23.3155V11.5911H22.3022V10.5778H23.3155V11.5911H24.3022V10.5778H25.1022V9.35111H26.0089V8.52445H26.8622V6.39111L25.8489 6.41778V6.41778Z" fill="#1D1D1B"/>
<path d="M30.9156 2.31111H29.8489V3.37778H30.9156V2.31111Z" fill="#FCC200"/>
<path d="M30.9156 0.17778H29.8489V1.24445H30.9156V0.17778Z" fill="#FCC200"/>
<path d="M27.8222 3.37778H26.8356V4.41777H27.8222V3.37778Z" fill="#FCC200"/>
<path d="M25.8489 5.43111H24.8356V6.41777H25.8489V5.43111Z" fill="#1D1D1B"/>
</svg>
