<svg width="32" height="32" viewBox="0 0 32 32" fill="none" xmlns="http://www.w3.org/2000/svg">
<path d="M25.0643 31.7211C21.6327 31.7211 18.8365 28.8907 18.8365 25.4071V21.6969L11.9953 28.6329C11.2327 29.4061 10.2159 29.8327 9.1378 29.8327C8.05967 29.8327 7.04291 29.4061 6.28032 28.6329L3.19056 25.5004C2.42797 24.7272 2.00725 23.7008 2.00725 22.6033C2.00725 21.5059 2.42797 20.4793 3.19056 19.7063L10.1721 12.628H6.22772C2.79612 12.628 0 9.79759 0 6.314C0 2.83485 2.79173 0 6.22772 0H27.2468C29.4732 0 31.2876 1.83511 31.2876 4.09232V25.4071C31.292 28.8907 28.5003 31.7211 25.0643 31.7211ZM21.7028 25.4071C21.7028 27.2867 23.2104 28.8196 25.0687 28.8196C26.9269 28.8196 28.4345 27.2911 28.4345 25.4071V4.09232C28.4345 3.43471 27.9043 2.90151 27.2556 2.90151H6.23211C4.37825 2.90151 2.87063 4.43001 2.87063 6.314C2.87063 8.19797 4.37825 9.72649 6.23211 9.72649H17.0835L5.21533 21.7591C4.75516 22.2256 4.75516 22.9809 5.21533 23.4476L8.30947 26.5845C8.53299 26.8112 8.82663 26.9356 9.14219 26.9356C9.45773 26.9356 9.75136 26.8112 9.97488 26.5845L21.7028 14.6941V25.4071Z" fill="black"/>
</svg>
