<svg width="32" height="32" viewBox="0 0 32 32" fill="none" xmlns="http://www.w3.org/2000/svg">
<path d="M4.15658 15.2274C3.46723 15.2375 2.8001 14.9836 2.2919 14.5177C1.78367 14.0519 1.47285 13.4093 1.42307 12.7216C1.41066 12.2414 1.53478 11.7674 1.78104 11.3549L5.3606 4.29338C5.69944 3.65697 6.27601 3.18017 6.96472 2.96684C7.65343 2.75351 8.39857 2.82095 9.03783 3.15443C9.34453 3.30902 9.61713 3.5235 9.83957 3.78522C10.062 4.04691 10.2298 4.35052 10.3329 4.67813C10.436 5.00574 10.4725 5.3507 10.4401 5.69263C10.4076 6.03457 10.3071 6.36652 10.1442 6.66892C9.00526 9.01192 7.7687 11.3549 6.59718 13.6979C6.38958 14.1674 6.04618 14.564 5.61119 14.8365C5.17621 15.1091 4.66961 15.2452 4.15658 15.2274Z" fill="#EB5B25"/>
<path d="M19.4186 5.52985C19.435 5.961 19.3338 6.38849 19.1257 6.76644L15.5787 13.7954C15.2398 14.4319 14.6632 14.9087 13.9745 15.122C13.2858 15.3353 12.5407 15.2679 11.9014 14.9344C11.595 14.7793 11.3224 14.5652 11.0991 14.3043C10.8758 14.0433 10.7064 13.7408 10.6005 13.4142C10.4946 13.0875 10.4545 12.7431 10.4823 12.4009C10.51 12.0586 10.6053 11.7252 10.7625 11.4199C11.4784 9.92299 12.2594 8.42607 13.0404 6.92914C13.4634 6.05053 13.919 5.17192 14.3746 4.29327C14.6484 3.74081 15.1095 3.30344 15.6756 3.0591C16.2417 2.8148 16.8762 2.77935 17.4661 2.95908C18.0487 3.07638 18.5686 3.40225 18.928 3.87556C19.2875 4.34888 19.4619 4.93711 19.4186 5.52985Z" fill="#EB5B25"/>
<path d="M12.2593 19.8158C12.2448 20.3115 12.0988 20.7943 11.8363 21.2149L8.41941 27.9837C8.18563 28.4797 7.80295 28.8907 7.32462 29.1591C6.84633 29.4272 6.29625 29.5396 5.751 29.4805C5.18023 29.4507 4.6352 29.2338 4.2 28.8633C3.7648 28.4925 3.46361 27.9893 3.34293 27.4304C3.16441 26.9141 3.16441 26.3524 3.34293 25.8361C4.57952 23.3629 5.81611 20.8573 7.11776 18.4164C7.41731 17.8507 7.91474 17.4155 8.51502 17.1933C9.11527 16.971 9.77635 16.9781 10.3719 17.2125C10.9356 17.3671 11.4298 17.7092 11.7729 18.1824C12.116 18.656 12.2876 19.232 12.2593 19.8158Z" fill="#A7ABB2"/>
<path d="M30.2874 19.7181C30.2828 20.112 30.1942 20.5003 30.0271 20.8573C28.8232 23.2651 27.6189 25.6733 26.3825 28.0487C26.2148 28.3684 25.9855 28.6514 25.7078 28.8814C25.4302 29.1118 25.1097 29.285 24.7648 29.3909C24.42 29.4965 24.0576 29.5332 23.6985 29.4983C23.3394 29.4635 22.9909 29.3579 22.6728 29.1879C22.3688 29.0304 22.0994 28.8139 21.8803 28.5508C21.6612 28.2877 21.4968 27.9837 21.3968 27.6565C21.2967 27.3291 21.2631 26.9849 21.2978 26.6443C21.3325 26.304 21.4349 25.9737 21.5989 25.6733C22.7704 23.2978 23.9744 20.9547 25.1459 18.6119C25.4289 18.0267 25.9157 17.5652 26.5148 17.3134C27.1141 17.0621 27.7843 17.0375 28.4001 17.2452C28.9391 17.3991 29.4138 17.723 29.7537 18.1685C30.094 18.6144 30.281 19.1577 30.2874 19.7181Z" fill="#A7ABB2"/>
<path d="M21.2409 19.7508C21.2684 20.1479 21.1778 20.544 20.9806 20.89C19.8091 23.2654 18.605 25.6409 17.401 28.0164C17.1718 28.507 16.7936 28.9127 16.3203 29.1758C15.847 29.4386 15.3027 29.5453 14.7651 29.4809C14.338 29.4521 13.9243 29.3198 13.5598 29.0955C13.1953 28.8708 12.8909 28.5611 12.6731 28.1924C12.4552 27.824 12.3303 27.408 12.3093 26.9803C12.2882 26.5529 12.3717 26.1266 12.5523 25.7387L16.1644 18.5142C16.4092 18.0331 16.7975 17.6402 17.2756 17.3895C17.7537 17.1389 18.2978 17.0429 18.8328 17.115C19.3581 17.146 19.8614 17.3369 20.2746 17.663C20.6877 17.9886 20.991 18.4338 21.1433 18.9373C21.2077 19.2039 21.2405 19.477 21.2409 19.7508Z" fill="#A7ABB2"/>
</svg>
