<svg width="32" height="32" viewBox="0 0 32 32" fill="none" xmlns="http://www.w3.org/2000/svg">
<g opacity="0.8">
<path opacity="0.8" d="M0.278259 2.59619H9.85878C10.3417 2.59619 10.8199 2.69136 11.2661 2.87626C11.7123 3.06116 12.1176 3.33217 12.459 3.6738C12.8003 4.01543 13.071 4.42097 13.2556 4.86727C13.4402 5.31356 13.535 5.79185 13.5346 6.2748V6.2748V15.8525H3.95687C2.98124 15.8525 2.04557 15.465 1.3557 14.7751C0.665826 14.0852 0.278259 13.1496 0.278259 12.1739V12.1739V2.59619Z" fill="#A974FF"/>
<path opacity="0.8" d="M20.889 1.11304H31.2097V11.4337C31.2068 12.6048 30.7403 13.727 29.9123 14.555C29.0842 15.3831 27.962 15.8496 26.791 15.8525H16.4619V5.53182C16.4649 4.35934 16.9325 3.23586 17.7623 2.40757C18.5922 1.57929 19.7166 1.11377 20.889 1.11304V1.11304Z" fill="#F76BAF"/>
<path opacity="0.8" d="M16.4619 18.7882H25.3078C26.083 18.7853 26.8276 19.0902 27.3781 19.6359C27.9285 20.1817 28.2398 20.9237 28.2435 21.6988V30.5614H19.4365C18.6614 30.5644 17.9168 30.2595 17.3663 29.7137C16.8158 29.168 16.5046 28.426 16.5009 27.6508V18.7882H16.4619Z" fill="#FFC433"/>
<path opacity="0.8" d="M5.43998 18.7882H13.5346V26.8828C13.5346 27.4732 13.3001 28.0394 12.8826 28.4569C12.4651 28.8743 11.8989 29.1089 11.3085 29.1089H3.2139V21.0115C3.2139 20.4211 3.44843 19.8549 3.8659 19.4374C4.28338 19.0199 4.84959 18.7854 5.43998 18.7854V18.7882Z" fill="#6DE3DB"/>
</g>
</svg>
