<svg width="32" height="32" viewBox="0 0 32 32" fill="none" xmlns="http://www.w3.org/2000/svg">
<path d="M20.5485 4.57129H20.5257C17.5314 4.57129 14.6971 5.737 12.5714 7.817C11.4971 7.35986 10.3085 7.10843 9.09709 7.10843C4.20566 7.10843 0.228516 11.1084 0.228516 15.9999C0.228516 20.8913 4.20566 24.8913 9.11994 24.8913C10.3085 24.8913 11.4971 24.6399 12.5714 24.1827C14.6285 26.1941 17.4399 27.4284 20.5257 27.4284C26.8342 27.4284 31.9542 22.3084 31.9542 15.9999C31.9542 9.71415 26.8342 4.57129 20.5485 4.57129ZM20.5257 24.8913C15.6342 24.8913 11.6342 20.8913 11.6342 15.9999H9.09709C9.09709 18.2399 9.73709 20.3427 10.8571 22.1027C10.2857 22.2627 9.69137 22.3541 9.09709 22.3541C5.59994 22.3541 2.7428 19.497 2.7428 15.9999C2.7428 12.5027 5.59994 9.64557 9.09709 9.64557C10.4914 9.64557 11.7942 10.0799 12.9142 10.9256C14.5371 12.137 15.4514 13.9884 15.4514 15.9999H17.9885C17.9885 13.3484 16.8457 10.8799 14.8114 9.18843C16.4114 7.86272 18.4228 7.10843 20.5257 7.10843C25.4171 7.10843 29.4171 11.1084 29.4171 15.9999C29.4171 20.8913 25.4399 24.8913 20.5257 24.8913Z" fill="black"/>
<path d="M20.5485 4.57129H20.5257C17.5314 4.57129 14.6971 5.737 12.5714 7.817C11.4971 7.35986 10.3085 7.10843 9.09709 7.10843C4.20566 7.10843 0.228516 11.1084 0.228516 15.9999C0.228516 20.8913 4.20566 24.8913 9.11994 24.8913C10.3085 24.8913 11.4971 24.6399 12.5714 24.1827C14.6285 26.1941 17.4399 27.4284 20.5257 27.4284C26.8342 27.4284 31.9542 22.3084 31.9542 15.9999C31.9542 9.71415 26.8342 4.57129 20.5485 4.57129ZM20.5257 24.8913C15.6342 24.8913 11.6342 20.8913 11.6342 15.9999H9.09709C9.09709 18.2399 9.73709 20.3427 10.8571 22.1027C10.2857 22.2627 9.69137 22.3541 9.09709 22.3541C5.59994 22.3541 2.7428 19.497 2.7428 15.9999C2.7428 12.5027 5.59994 9.64557 9.09709 9.64557C10.4914 9.64557 11.7942 10.0799 12.9142 10.9256C14.5371 12.137 15.4514 13.9884 15.4514 15.9999H17.9885C17.9885 13.3484 16.8457 10.8799 14.8114 9.18843C16.4114 7.86272 18.4228 7.10843 20.5257 7.10843C25.4171 7.10843 29.4171 11.1084 29.4171 15.9999C29.4171 20.8913 25.4399 24.8913 20.5257 24.8913Z" fill="black"/>
<path d="M20.5485 4.57129H20.5257C17.5314 4.57129 14.6971 5.737 12.5714 7.817C11.4971 7.35986 10.3085 7.10843 9.09709 7.10843C4.20566 7.10843 0.228516 11.1084 0.228516 15.9999C0.228516 20.8913 4.20566 24.8913 9.11994 24.8913C10.3085 24.8913 11.4971 24.6399 12.5714 24.1827C14.6285 26.1941 17.4399 27.4284 20.5257 27.4284C26.8342 27.4284 31.9542 22.3084 31.9542 15.9999C31.9542 9.71415 26.8342 4.57129 20.5485 4.57129ZM20.5257 24.8913C15.6342 24.8913 11.6342 20.8913 11.6342 15.9999H9.09709C9.09709 18.2399 9.73709 20.3427 10.8571 22.1027C10.2857 22.2627 9.69137 22.3541 9.09709 22.3541C5.59994 22.3541 2.7428 19.497 2.7428 15.9999C2.7428 12.5027 5.59994 9.64557 9.09709 9.64557C10.4914 9.64557 11.7942 10.0799 12.9142 10.9256C14.5371 12.137 15.4514 13.9884 15.4514 15.9999H17.9885C17.9885 13.3484 16.8457 10.8799 14.8114 9.18843C16.4114 7.86272 18.4228 7.10843 20.5257 7.10843C25.4171 7.10843 29.4171 11.1084 29.4171 15.9999C29.4171 20.8913 25.4399 24.8913 20.5257 24.8913Z" fill="black"/>
<path d="M20.5485 4.57129H20.5257C17.5314 4.57129 14.6971 5.737 12.5714 7.817C11.4971 7.35986 10.3085 7.10843 9.09709 7.10843C4.20566 7.10843 0.228516 11.1084 0.228516 15.9999C0.228516 20.8913 4.20566 24.8913 9.11994 24.8913C10.3085 24.8913 11.4971 24.6399 12.5714 24.1827C14.6285 26.1941 17.4399 27.4284 20.5257 27.4284C26.8342 27.4284 31.9542 22.3084 31.9542 15.9999C31.9542 9.71415 26.8342 4.57129 20.5485 4.57129ZM20.5257 24.8913C15.6342 24.8913 11.6342 20.8913 11.6342 15.9999H9.09709C9.09709 18.2399 9.73709 20.3427 10.8571 22.1027C10.2857 22.2627 9.69137 22.3541 9.09709 22.3541C5.59994 22.3541 2.7428 19.497 2.7428 15.9999C2.7428 12.5027 5.59994 9.64557 9.09709 9.64557C10.4914 9.64557 11.7942 10.0799 12.9142 10.9256C14.5371 12.137 15.4514 13.9884 15.4514 15.9999H17.9885C17.9885 13.3484 16.8457 10.8799 14.8114 9.18843C16.4114 7.86272 18.4228 7.10843 20.5257 7.10843C25.4171 7.10843 29.4171 11.1084 29.4171 15.9999C29.4171 20.8913 25.4399 24.8913 20.5257 24.8913Z" fill="black"/>
</svg>
