<svg width="32" height="32" viewBox="0 0 32 32" fill="none" xmlns="http://www.w3.org/2000/svg">
<path fill-rule="evenodd" clip-rule="evenodd" d="M21.6818 19.112C20.6878 20.0508 19.1968 20.3269 17.982 19.6642C16.988 19.112 16.2701 18.0076 16.2701 16.8479C16.2701 16.0196 16.5462 15.2465 16.988 14.5286C17.4849 13.6451 18.0372 12.872 18.5342 11.9885C18.976 11.1049 19.3625 10.1662 19.4729 9.22737C19.6938 7.5155 19.1968 5.85885 18.479 4.31265C18.2029 3.76044 17.8715 3.153 17.5402 2.60078C17.3193 2.26946 17.0984 1.88291 16.8776 1.55157C16.6567 1.27547 16.4358 0.888916 16.0492 0.888916C15.8835 0.888916 15.7731 0.944138 15.6626 0.999359C15.497 1.1098 15.3865 1.33069 15.3865 1.6068C15.3865 1.93812 15.4417 2.21423 15.4417 2.54556C15.4417 2.82167 15.4417 3.153 15.3865 3.4291C15.3313 4.03654 15.1656 4.64398 15 5.1962C14.8344 5.74841 14.5583 6.35585 14.2821 6.85285C14.0612 7.29461 13.7851 7.68116 13.4538 8.06772C12.018 9.83478 10.0301 10.9392 8.48386 12.5406C6.10933 14.9704 4.94968 18.615 5.44667 22.0388C5.5019 22.4806 5.61234 22.9223 5.72278 23.3088C7.48987 24.3581 9.53307 25.0207 11.7419 25.0207C16.8224 25.0207 21.4057 21.8179 23.0072 17.124C22.6758 17.8972 22.234 18.615 21.6818 19.112Z" fill="#E88323"/>
<path style="mix-blend-mode:overlay" fill-rule="evenodd" clip-rule="evenodd" d="M21.6818 19.112C20.6878 20.0508 19.1968 20.3269 17.982 19.6642C16.988 19.112 16.2701 18.0076 16.2701 16.8479C16.2701 16.0196 16.5462 15.2465 16.988 14.5286C17.4849 13.6451 18.0372 12.872 18.5342 11.9885C18.976 11.1049 19.3625 10.1662 19.4729 9.22737C19.6938 7.5155 19.1968 5.85885 18.479 4.31265C18.2029 3.76044 17.8715 3.153 17.5402 2.60078C17.3193 2.26946 17.0984 1.88291 16.8776 1.55157C16.6567 1.27547 16.4358 0.888916 16.0492 0.888916C15.8835 0.888916 15.7731 0.944138 15.6626 0.999359C15.497 1.1098 15.3865 1.33069 15.3865 1.6068C15.3865 1.93812 15.4417 2.21423 15.4417 2.54556C15.4417 2.82167 15.4417 3.153 15.3865 3.4291C15.3313 4.03654 15.1656 4.64398 15 5.1962C14.8344 5.74841 14.5583 6.35585 14.2821 6.85285C14.0612 7.29461 13.7851 7.68116 13.4538 8.06772C12.018 9.83478 10.0301 10.9392 8.48386 12.5406C6.10933 14.9704 4.94968 18.615 5.44667 22.0388C5.5019 22.4806 5.61234 22.9223 5.72278 23.3088C7.48987 24.3581 9.53307 25.0207 11.7419 25.0207C16.8224 25.0207 21.4057 21.8179 23.0072 17.124C22.6758 17.8972 22.234 18.615 21.6818 19.112Z" fill="url(#paint0_linear)" fill-opacity="0.2"/>
<path fill-rule="evenodd" clip-rule="evenodd" d="M27.3693 18.6149C27.2588 17.7865 27.0379 16.903 26.7066 16.1299C26.4857 15.5777 26.2096 15.0807 25.9335 14.5837C25.7126 14.2524 25.4917 13.9762 25.2709 13.6449C25.05 13.4241 24.8843 13.0375 24.4977 13.0375C24.1112 13.0375 23.8903 13.3689 23.8351 13.7001C23.6695 14.7494 23.5038 15.8538 23.1172 16.8478C21.4606 21.4864 16.9876 24.7445 11.7416 24.7445C9.5327 24.7445 7.48951 24.1922 5.72241 23.1431C5.83286 23.5849 5.99852 23.9713 6.16418 24.4131C7.15817 26.7324 8.92527 28.6652 11.1341 29.8801C14.834 31.8681 19.6383 31.5368 23.0068 29.0518C24.1111 28.2786 25.05 27.2295 25.7679 26.125C26.4857 25.0206 26.9827 23.7505 27.2588 22.4804C27.5349 21.2655 27.5902 19.8849 27.3693 18.6149Z" fill="#F8981D"/>
<path style="mix-blend-mode:overlay" fill-rule="evenodd" clip-rule="evenodd" d="M27.3693 18.6149C27.2588 17.7865 27.0379 16.903 26.7066 16.1299C26.4857 15.5777 26.2096 15.0807 25.9335 14.5837C25.7126 14.2524 25.4917 13.9762 25.2709 13.6449C25.05 13.4241 24.8843 13.0375 24.4977 13.0375C24.1112 13.0375 23.8903 13.3689 23.8351 13.7001C23.6695 14.7494 23.5038 15.8538 23.1172 16.8478C21.4606 21.4864 16.9876 24.7445 11.7416 24.7445C9.5327 24.7445 7.48951 24.1922 5.72241 23.1431C5.83286 23.5849 5.99852 23.9713 6.16418 24.4131C7.15817 26.7324 8.92527 28.6652 11.1341 29.8801C14.834 31.8681 19.6383 31.5368 23.0068 29.0518C24.1111 28.2786 25.05 27.2295 25.7679 26.125C26.4857 25.0206 26.9827 23.7505 27.2588 22.4804C27.5349 21.2655 27.5902 19.8849 27.3693 18.6149Z" fill="url(#paint1_linear)" fill-opacity="0.4"/>
<defs>
<linearGradient id="paint0_linear" x1="14.1702" y1="0.888916" x2="14.1702" y2="25.0207" gradientUnits="userSpaceOnUse">
<stop stop-color="white"/>
<stop offset="1" stop-color="white" stop-opacity="0"/>
</linearGradient>
<linearGradient id="paint1_linear" x1="16.614" y1="13.0375" x2="16.614" y2="31.1714" gradientUnits="userSpaceOnUse">
<stop stop-color="white"/>
<stop offset="1" stop-color="white" stop-opacity="0"/>
</linearGradient>
</defs>
</svg>
