<svg width="32" height="32" viewBox="0 0 32 32" fill="none" xmlns="http://www.w3.org/2000/svg">
<rect width="32" height="32" fill="#EC262E"/>
<path d="M14.5322 12.7089C17.6605 12.7089 20.2057 15.1699 20.2057 18.1946C20.2057 21.2193 17.6605 23.6803 14.5322 23.6803C11.7996 23.6803 9.51199 21.8024 8.97704 19.3113H1.1886V17.093H8.97348C9.50265 14.5945 11.7938 12.7089 14.5322 12.7089ZM23.5805 8.32031V13.1051C24.3223 12.6307 25.2263 12.3818 26.2213 12.3818C28.339 12.3818 30.8115 13.8038 30.8115 17.8118V23.3146H28.5338V17.8118C28.5338 16.5486 28.225 15.6441 27.6157 15.1227C27.1359 14.7119 26.573 14.6259 26.1851 14.6259C24.997 14.6259 23.5805 15.1784 23.5805 17.8118V23.3146H21.3029V8.32031H23.5805ZM14.5322 14.9534C12.6834 14.9534 11.1801 16.4075 11.1801 18.1946C11.1801 19.9817 12.6834 21.4358 14.5322 21.4358C16.3805 21.4358 17.8839 19.9817 17.8839 18.1946C17.8839 16.4075 16.3805 14.9534 14.5322 14.9534Z" fill="white"/>
</svg>
