<svg width="32" height="32" viewBox="0 0 32 32" fill="none" xmlns="http://www.w3.org/2000/svg">
<path fill-rule="evenodd" clip-rule="evenodd" d="M21.9142 25.8247H11.9554C11.5772 25.8247 11.2242 26.0574 11.1118 26.4162C10.9227 27.0174 11.3668 27.5702 11.9389 27.5702H21.8958C22.2739 27.5702 22.6289 27.3403 22.7413 26.9786C22.9295 26.3774 22.4863 25.8247 21.9142 25.8247ZM25.1161 10.9709H28.0058C28.8107 10.9709 29.4623 10.3173 29.4623 9.5115C29.4623 8.70471 28.8107 8.0521 28.0058 8.0521H25.1161C24.3113 8.0521 23.6587 8.70471 23.6587 9.5115C23.6587 10.3163 24.3113 10.9709 25.1161 10.9709ZM28.0058 19.51H16.0301C15.2252 19.51 14.5736 20.1626 14.5736 20.9694C14.5736 21.7762 15.2252 22.4288 16.0301 22.4288H28.0058C28.8107 22.4288 29.4633 21.7762 29.4633 20.9694C29.4633 20.1626 28.8107 19.51 28.0058 19.51ZM6.77042 13.6337C5.88509 13.6337 5.16655 14.3532 5.16655 15.2405C5.16655 16.1277 5.88412 16.8473 6.77042 16.8473H11.2116C12.097 16.8473 12.8145 16.1277 12.8145 15.2405C12.8145 14.3532 12.097 13.6337 11.2097 13.6337H6.76849H6.77042ZM30.0509 13.6337H25.2625C24.3772 13.6337 23.6587 14.3532 23.6587 15.2405C23.6587 16.1277 24.3762 16.8473 25.2625 16.8473H30.0509C30.9362 16.8473 31.6548 16.1277 31.6548 15.2405C31.6548 14.3532 30.9372 13.6337 30.0509 13.6337V13.6337ZM11.3513 10.9709H20.4519C21.2567 10.9709 21.9084 10.3173 21.9084 9.5115C21.9084 8.70471 21.2558 8.0521 20.4519 8.0521H1.45745C0.652606 8.0521 0.000969685 8.70471 0.000969685 9.5115C0.000969685 10.3163 0.653576 10.9709 1.45745 10.9709H11.3513ZM12.8155 20.9694C12.8155 20.1626 12.1619 19.51 11.3581 19.51H1.45745C0.652606 19.51 0 20.1626 0 20.9694C0 21.7762 0.652606 22.4288 1.45745 22.4288H11.3581C12.1629 22.4288 12.8145 21.7762 12.8145 20.9694H12.8155ZM25.5806 25.8393C24.9649 25.721 24.4344 26.2523 24.5527 26.87C24.6167 27.2123 24.897 27.4936 25.2383 27.5585C25.856 27.6749 26.3864 27.1435 26.2691 26.5268C26.2041 26.1825 25.9239 25.9023 25.5806 25.8383V25.8393ZM12.8126 4.65913H22.7695C23.1476 4.65913 23.5016 4.42641 23.615 4.06568C23.8032 3.46447 23.359 2.91174 22.7869 2.91174H12.8301C12.4519 2.91174 12.097 3.14253 11.9845 3.50325C11.7964 4.10447 12.2405 4.65913 12.8126 4.65913ZM9.14521 4.64556C9.76097 4.76192 10.2914 4.23053 10.1731 3.6138C10.1091 3.27053 9.82982 2.99028 9.48752 2.92531C8.87176 2.80895 8.34133 3.33937 8.4577 3.95707C8.52267 4.29937 8.80291 4.58059 9.14618 4.64556" fill="#00EBB6"/>
</svg>
