<svg width="32" height="32" viewBox="0 0 32 32" fill="none" xmlns="http://www.w3.org/2000/svg">
<path d="M9.05681 15.975C9.05681 14.3121 9.05938 12.6479 9.05296 10.9862C9.05296 10.7551 9.20577 10.6113 9.43691 10.6113C9.86452 10.6087 10.2947 10.6074 10.7223 10.6113C10.965 10.6138 11.1063 10.7615 11.1037 10.9888C11.0973 12.4604 11.0998 13.9345 11.0998 15.4061V15.487C11.1024 15.6501 11.1743 15.7695 11.3246 15.8337C11.4697 15.8954 11.6058 15.8633 11.7239 15.7374C12.1554 15.2752 12.5855 14.8116 13.0144 14.348C13.2777 14.063 13.5448 13.7817 13.8054 13.4954C13.9043 13.3875 14.0186 13.3362 14.1663 13.3387C14.7043 13.3426 15.2449 13.3426 15.783 13.3387C15.9422 13.3387 16.068 13.3875 16.1348 13.5352C16.2029 13.688 16.1708 13.8241 16.0565 13.9487C15.2488 14.8424 14.4437 15.7374 13.6372 16.6312C13.573 16.7031 13.5101 16.7776 13.46 16.8597C13.3701 17.0049 13.3701 17.1474 13.4536 17.2951C13.5435 17.4543 13.6706 17.5827 13.7965 17.7124C14.7737 18.7166 15.7534 19.7207 16.7332 20.7223C16.8514 20.8443 16.886 20.9779 16.827 21.1345C16.7705 21.2809 16.6587 21.3477 16.4751 21.3477C15.8767 21.3477 15.277 21.3451 14.6786 21.3477C14.5438 21.3477 14.4398 21.3053 14.3435 21.2026C13.4741 20.2896 12.5984 19.3817 11.7252 18.4726C11.6006 18.3416 11.4619 18.3082 11.3181 18.3686C11.173 18.4264 11.0973 18.5496 11.0973 18.7281V20.9663C11.0973 21.2077 10.9753 21.3323 10.7364 21.3336H9.4215C9.15826 21.3336 9.05553 21.2296 9.05553 20.9702L9.05681 15.975ZM17.216 14.3018C17.216 13.2013 17.2199 12.0996 17.2122 10.9991C17.2096 10.75 17.3547 10.6074 17.6077 10.6074C18.0237 10.61 18.4372 10.6074 18.852 10.6074C19.0947 10.6074 19.2334 10.7435 19.2334 10.985C19.2359 11.627 19.2359 12.2703 19.2372 12.9124C19.2372 13.1898 19.3798 13.3336 19.6546 13.3336H21.3817C21.564 13.3336 21.6835 13.4325 21.7194 13.611C21.7374 13.697 21.731 13.783 21.7335 13.8716V14.9362C21.7335 15.2148 21.609 15.3394 21.3303 15.3394C20.7782 15.3394 20.226 15.3368 19.6738 15.3368C19.3913 15.3368 19.2462 15.4793 19.2437 15.758C19.2411 16.3243 19.2321 16.888 19.2398 17.4543C19.2514 18.3172 19.9127 19.1121 20.7717 19.315C21.0247 19.3753 21.2815 19.3856 21.5384 19.3496C21.7477 19.3201 21.8992 19.4318 21.9236 19.6424C21.9762 20.0906 22.0237 20.54 22.07 20.9882C22.088 21.1589 21.9634 21.3156 21.7875 21.3439C21.3136 21.4248 20.8398 21.3965 20.3737 21.2912C18.7095 20.9188 17.487 19.5885 17.2481 17.9024C17.2237 17.7355 17.216 17.5686 17.216 17.4029V14.3018ZM31.9923 19.5602C31.9923 19.4074 31.8754 19.3008 31.7226 19.2931C31.6186 19.2893 31.5159 19.2854 31.4119 19.2764C30.8802 19.2366 30.6067 18.9875 30.5104 18.4636C30.4359 18.0642 30.4385 17.6585 30.4359 17.2527C30.4321 16.088 30.4334 14.9233 30.4334 13.7586C30.4334 13.724 30.4334 13.6919 30.4308 13.6585C30.4167 13.4697 30.2806 13.3349 30.0892 13.3349C29.6411 13.3323 29.1916 13.3323 28.7435 13.3349C28.5406 13.3349 28.3968 13.48 28.3878 13.6803C28.3852 13.7291 28.3878 13.7792 28.3878 13.837C28.3493 13.8164 28.3197 13.8023 28.2915 13.7882C27.4825 13.3631 26.6247 13.2257 25.7233 13.376C23.4286 13.7612 21.9326 16.0597 22.5027 18.3146C23.227 21.1756 26.6568 22.3146 28.9515 20.4527C29.0055 20.409 29.0273 20.4103 29.0697 20.4694C29.3059 20.8071 29.618 21.0511 30.0058 21.1988C30.4334 21.3618 30.879 21.3837 31.331 21.3516C31.4915 21.34 31.6507 21.3169 31.7971 21.2437C31.9011 21.1911 31.9859 21.1127 31.9884 20.9933C31.9974 20.5156 31.9949 20.0379 31.9923 19.5602ZM26.409 19.3535C25.2931 19.3496 24.4058 18.4418 24.4096 17.3041C24.4135 16.228 25.3252 15.3342 26.4193 15.3368C27.5416 15.3394 28.4276 16.2408 28.425 17.3811C28.4212 18.4559 27.503 19.3548 26.409 19.3535ZM4.04493 13.3182C1.91331 13.322 0.0616281 14.9683 0.0141161 17.2553C-0.0346801 19.6206 1.83884 21.313 3.93065 21.3657C6.16757 21.4222 8.02054 19.6565 8.05906 17.426C8.0963 15.1557 6.31781 13.3439 4.04493 13.3182ZM4.03081 19.3535C2.93033 19.3535 2.0276 18.4495 2.02503 17.3451C2.02246 16.2395 2.92391 15.3368 4.03466 15.3329C5.14285 15.3304 6.04044 16.2305 6.04044 17.3426C6.04044 18.4546 5.14285 19.3535 4.03081 19.3535Z" fill="#007DC1"/>
</svg>
