<svg width="32" height="32" viewBox="0 0 32 32" fill="none" xmlns="http://www.w3.org/2000/svg">
<path d="M9.04071 30.813L10.5619 25.4995C12.3718 25.9883 14.254 26.2386 16.1741 26.2386C19.5506 26.2386 22.8113 25.4595 25.7625 23.9857L28.3591 28.8904C24.6111 30.7621 20.4613 31.7537 16.1741 31.7537C13.7389 31.7537 11.345 31.4353 9.04071 30.813Z" fill="#FF7070"/>
<path d="M3.55554 28.6732L6.24358 23.8152C7.61485 24.5309 9.05995 25.0957 10.5592 25.499L9.04372 30.814C7.13549 30.3008 5.29729 29.5822 3.55554 28.6732Z" fill="#1E1F4D"/>
<path d="M16.2874 0C22.1712 0 26.9405 4.63289 26.9405 10.3462C26.9405 16.0602 22.1712 20.6931 16.2874 20.6931C10.4042 20.6931 5.63428 16.0602 5.63428 10.3462C5.63428 4.63289 10.4042 0 16.2874 0ZM16.2874 15.3372C19.125 15.3372 21.4259 13.1037 21.4259 10.3462C21.4259 7.59138 19.125 5.35585 16.2874 5.35585C13.4497 5.35585 11.1488 7.59138 11.1488 10.3462C11.1488 13.1037 13.4497 15.3372 16.2874 15.3372Z" fill="#1E1F4D"/>
</svg>
