<svg xmlns="http://www.w3.org/2000/svg" viewBox="0 0 32 32" fill="none"><g clip-path="url(#clip0)"><path d="M28.56 0H3.44C1.536 0 0 1.544 0 3.44V28.56C0 30.192 1.144 31.56 2.672 31.912C2.92 31.968 3.176 32 3.44 32H10.664V30.688C10.664 25.624 10.04 21.736 6.28 20.608V16.464C12.4 17.008 15.44 21.568 15.44 29.056V32H23.52H28.56C30.464 32 32 30.464 32 28.56V3.44C32 1.544 30.464 0 28.56 0ZM11.92 11.712C9.976 11.712 8.4 10.136 8.4 8.192C8.4 6.248 9.976 4.672 11.92 4.672C13.864 4.672 15.44 6.248 15.44 8.192C15.44 10.136 13.864 11.712 11.92 11.712Z" fill="#555C66"/><path d="M10.6643 32.0004V30.6884C10.6643 25.6244 10.0403 21.7364 6.28027 20.6084V16.4644C12.4003 17.0084 15.4403 21.5684 15.4403 29.0564V32.0004H10.6643ZM11.9203 11.7124C9.97627 11.7124 8.40027 10.1364 8.40027 8.19236C8.40027 6.24836 9.97627 4.67236 11.9203 4.67236C13.8643 4.67236 15.4403 6.24836 15.4403 8.19236C15.4403 10.1364 13.8643 11.7124 11.9203 11.7124Z" fill="white"/></g><defs><clipPath id="clip0"><rect width="32" height="32" fill="white"/></clipPath></defs></svg>