<svg width="32" height="32" viewBox="0 0 32 32" fill="none" xmlns="http://www.w3.org/2000/svg">
<rect width="32" height="32" fill="#6313BC"/>
<path d="M15.43 22.6555C14.5678 22.6822 13.7153 22.468 12.9681 22.037C12.2208 21.606 11.6086 20.9752 11.2 20.2155C10.9 19.6055 11.18 18.8655 11.79 18.5755C11.9324 18.5058 12.0871 18.4651 12.2453 18.4555C12.4035 18.446 12.562 18.4679 12.7117 18.52C12.8614 18.572 12.9993 18.6532 13.1174 18.7589C13.2356 18.8645 13.3316 18.9925 13.4 19.1355C13.47 19.2655 14.01 20.2155 15.43 20.2155C16.95 20.2155 17.53 19.1355 17.56 19.1355C17.6327 18.993 17.7332 18.8664 17.8556 18.7633C17.978 18.6602 18.1198 18.5826 18.2726 18.535C18.4254 18.4875 18.5862 18.471 18.7454 18.4866C18.9047 18.5021 19.0593 18.5494 19.2 18.6255C19.8 18.9455 20.03 19.6755 19.7 20.2655C19.2653 21.0085 18.6407 21.6224 17.8902 22.0442C17.1398 22.466 16.2907 22.6804 15.43 22.6655V22.6555ZM9.66001 29.6255C9.20001 29.6255 8.76001 29.5055 8.31001 29.2655C5.52366 27.6583 3.34562 25.1764 2.11378 22.205C0.881941 19.2336 0.665164 15.9387 1.49708 12.8314C2.329 9.72423 4.16311 6.97841 6.71486 5.01999C9.26661 3.06156 12.3934 2 15.61 2C18.8267 2 21.9534 3.06156 24.5052 5.01999C27.0569 6.97841 28.891 9.72423 29.7229 12.8314C30.5548 15.9387 30.3381 19.2336 29.1062 22.205C27.8744 25.1764 25.6963 27.6583 22.91 29.2655C22.2925 29.6185 21.5607 29.7135 20.8735 29.53C20.1863 29.3466 19.5993 28.8993 19.24 28.2855C18.887 27.668 18.792 26.9362 18.9755 26.249C19.159 25.5619 19.6062 24.9748 20.22 24.6155C21.9837 23.6002 23.3628 22.0311 24.1433 20.1517C24.9239 18.2723 25.0621 16.1878 24.5367 14.2218C24.0112 12.2557 22.8514 10.5182 21.2372 9.27885C19.6231 8.0395 17.645 7.36768 15.61 7.36768C13.575 7.36768 11.5969 8.0395 9.98276 9.27885C8.36865 10.5182 7.20883 12.2557 6.68336 14.2218C6.15788 16.1878 6.29614 18.2723 7.07667 20.1517C7.85721 22.0311 9.23635 23.6002 11 24.6155C11.5155 24.9084 11.9193 25.364 12.1481 25.911C12.377 26.4579 12.4181 27.0653 12.2649 27.638C12.1117 28.2108 11.7729 28.7166 11.3015 29.0762C10.8302 29.4358 10.2529 29.629 9.66001 29.6255Z" fill="white"/>
</svg>
