<svg width="32" height="32" viewBox="0 0 32 32" fill="none" xmlns="http://www.w3.org/2000/svg">
<rect width="32" height="32" fill="white"/>
<path d="M9.97752 21.9126C6.57208 21.9271 4.70989 19.8609 4.69346 16.0512C4.67704 12.1907 6.62349 10.042 10.1475 10.0267C13.6535 10.0124 15.5496 12.0103 15.5656 15.7348C15.5826 19.7144 13.602 21.8968 9.97752 21.9126ZM10.1561 12.3529C8.48674 12.3601 7.66669 13.5774 7.67693 16.0218C7.68738 18.365 8.48418 19.5414 10.0855 19.5339C11.7548 19.5277 12.5921 18.2771 12.5823 15.8155C12.5723 13.405 11.8431 12.3465 10.1561 12.3529Z" fill="black"/>
<path d="M21.2226 21.8652C19.5372 21.8727 17.933 21.3901 16.8002 20.569L17.7521 18.4745C18.817 19.1779 20.1674 19.6112 21.2471 19.6058C22.1747 19.6024 22.7125 19.1621 22.7089 18.4033C22.7069 17.9815 22.5205 17.6798 22.1651 17.5119C21.9119 17.379 21.6584 17.3123 20.967 17.2474C19.4828 17.0678 18.8247 16.8344 18.2159 16.2646C17.6565 15.7434 17.3167 14.8523 17.3107 13.8578C17.3019 11.4977 18.881 10.0912 21.5788 10.0805C22.2182 10.0784 22.8608 10.1594 23.4675 10.3081C24.2948 10.5076 24.6325 10.6578 25.4267 11.1267L24.6094 13.2542C23.6795 12.6678 22.7003 12.3352 21.9087 12.338C20.8968 12.3422 20.2754 12.7832 20.2779 13.5077C20.2784 13.8279 20.4151 14.131 20.6351 14.2817C20.8373 14.4333 21.0067 14.4826 21.7324 14.5468C22.7936 14.6605 23.6379 14.8589 24.2291 15.1606C25.1251 15.6118 25.6691 16.6211 25.6738 17.8849C25.6838 20.3292 23.9869 21.8535 21.2226 21.8652Z" fill="black"/>
<circle cx="26.7733" cy="21.2266" r="0.533334" fill="black"/>
</svg>
