<svg width="32" height="32" viewBox="0 0 32 32" fill="none" xmlns="http://www.w3.org/2000/svg">
<g clip-path="url(#clip0)">
<path d="M16.043 0.00219727C7.1975 0.00219727 0 7.80873 0 17.4024C0 23.516 2.9485 28.8771 7.28438 31.9809L8.06487 31.4167C8.23825 31.3226 8.4985 31.1344 8.67188 31.0404C8.932 30.9463 9.19225 30.7582 9.36563 30.6642C9.62575 30.5701 9.886 30.476 10.1461 30.288C10.3195 30.1939 10.5798 30.0998 10.7531 30.0057C11.0133 29.9118 11.3601 29.8177 11.6204 29.7236C11.8804 29.6295 12.0539 29.6295 12.3141 29.5356C12.5741 29.4415 12.7476 29.4415 13.0079 29.3474C13.2679 29.2533 13.5281 29.2533 13.7882 29.2533C14.0485 29.2533 14.3954 29.1593 14.6555 29.1593V18.8132H13.7882V16.9321H18.1243V29.3474C20.5524 29.7236 22.7204 30.6642 24.7149 31.9809C29.1375 28.8771 31.9993 23.516 31.9993 17.4024C32.086 7.8086 24.8882 0.00219727 16.043 0.00219727ZM20.8125 17.4024C20.8125 14.5807 18.6445 12.2294 16.043 12.2294C13.4414 12.2294 11.2735 14.5807 11.2735 17.4024C11.2735 19.3776 12.3141 21.1646 13.875 22.0111V23.0456C11.8805 22.1051 10.4062 19.9419 10.4062 17.4024C10.4062 14.0164 12.9211 11.2888 16.043 11.2888C19.1649 11.2888 21.6798 14.0164 21.6798 17.4024C21.6798 19.5656 20.6391 21.4467 19.0781 22.5754V21.4467C20.1187 20.4122 20.8125 19.0014 20.8125 17.4024V17.4024ZM19.0781 27.6544V26.6197C22.6336 25.303 25.1485 21.6349 25.1485 17.3083C25.1485 11.9472 21.0726 7.5266 16.043 7.5266C11.0132 7.5266 6.9375 11.9472 6.9375 17.4024C6.9375 22.0111 9.886 25.9614 13.875 26.996V27.9366C9.45237 26.902 6.07037 22.5754 6.07037 17.4024C6.07037 11.3829 10.4929 6.58612 16.0429 6.58612C21.5929 6.58612 26.0156 11.3828 26.0156 17.4023C26.0156 22.1992 23.0673 26.3376 19.0781 27.6544Z" fill="#E44A49"/>
</g>
<defs>
<clipPath id="clip0">
<rect width="32" height="32" fill="white"/>
</clipPath>
</defs>
</svg>
