<svg width="32" height="32" viewBox="0 0 32 32" fill="none" xmlns="http://www.w3.org/2000/svg">
<path fill-rule="evenodd" clip-rule="evenodd" d="M11.0386 13.2506C9.51975 15.9906 10.5098 19.4433 13.2498 20.9619C15.9898 22.4809 19.4423 21.4909 20.9611 18.7507C22.48 16.0109 21.4899 12.558 18.7499 11.0394C16.0099 9.52056 12.5574 10.5106 11.0386 13.2506" fill="#353EF4"/>
<path fill-rule="evenodd" clip-rule="evenodd" d="M8.62297 27.1335C8.29586 27.3299 7.9791 27.5376 7.67244 27.7542C7.46295 27.9026 7.43033 28.2026 7.60514 28.3905C8.44518 29.2916 9.35509 30.1613 10.3253 30.9906C11.3283 31.8476 12.681 32.1866 13.9687 31.9005C15.3403 31.5963 16.6703 31.2143 17.9418 30.7592C19.833 30.0823 21.6479 29.2248 23.3362 28.2103C23.6461 28.024 23.9532 27.8315 24.2574 27.633C24.4324 27.5186 24.4253 27.2593 24.2463 27.1513C19.6002 24.3491 13.5975 24.1441 8.62343 27.1334" fill="#353EF4"/>
<mask id="mask0_2262_3" style="mask-type:alpha" maskUnits="userSpaceOnUse" x="0" y="7" width="8" height="18">
<path d="M0 7.49243H7.03019V24.3852H0V7.49243Z" fill="white"/>
</mask>
<g mask="url(#mask0_2262_3)">
<path fill-rule="evenodd" clip-rule="evenodd" d="M4.86662 8.62323C4.66999 8.29589 4.4628 7.97912 4.24573 7.67246C4.09779 7.46319 3.79757 7.43057 3.60989 7.60515C2.70875 8.44544 1.83879 9.35553 1.00956 10.3256C0.152297 11.3283 -0.186529 12.6811 0.0994602 13.9691C0.404049 15.3408 0.785828 16.6708 1.2409 17.9422C1.91762 19.8336 2.77537 21.6484 3.7897 23.3367C3.97575 23.6464 4.16848 23.9535 4.36718 24.2581C4.48135 24.4329 4.74069 24.4258 4.84865 24.2469C7.65089 19.6004 7.85558 13.5979 4.86657 8.62283" fill="#9A9FFA"/>
</g>
<path fill-rule="evenodd" clip-rule="evenodd" d="M23.254 4.86667C23.5811 4.67003 23.8981 4.46284 24.2048 4.24599C24.4141 4.09782 24.4469 3.79758 24.2721 3.60991C23.4321 2.70852 22.5219 1.83888 21.5517 1.00959C20.549 0.152311 19.1962 -0.186472 17.9083 0.0994713C16.5367 0.404067 15.2067 0.78585 13.9352 1.24092C12.044 1.91789 10.2291 2.7754 8.54101 3.78987C8.23114 3.97594 7.92401 4.16867 7.61966 4.36736C7.44462 4.48176 7.45174 4.74088 7.63068 4.84884C12.277 7.65109 18.2795 7.85581 23.2536 4.86675" fill="#9A9FFA"/>
<mask id="mask1_2262_3" style="mask-type:alpha" maskUnits="userSpaceOnUse" x="24" y="7" width="8" height="18">
<path d="M24.9699 7.61487H32V24.5081H24.9699V7.61487Z" fill="white"/>
</mask>
<g mask="url(#mask1_2262_3)">
<path fill-rule="evenodd" clip-rule="evenodd" d="M27.1334 23.3768C27.33 23.7039 27.5372 24.0206 27.7543 24.3273C27.9022 24.5368 28.2024 24.5692 28.3901 24.3946C29.2913 23.5543 30.1612 22.6445 30.9904 21.6743C31.8477 20.6714 32.1865 19.3186 31.9005 18.0309C31.596 16.6592 31.2142 15.3292 30.7591 14.0578C30.0824 12.1666 29.2246 10.3516 28.2103 8.66325C28.0243 8.35337 27.8315 8.04624 27.6328 7.74187C27.5187 7.56705 27.2593 7.57418 27.1514 7.75312C24.3491 12.3993 24.1444 18.4021 27.1334 23.3772" fill="#9A9FFA"/>
</g>
</svg>
