<svg width="32" height="32" viewBox="0 0 32 32" fill="none" xmlns="http://www.w3.org/2000/svg">
<g clip-path="url(#clip0_1_50)">
<path d="M32 0H0V32H32V0Z" fill="white"/>
<path d="M7.82848 22.4051C4.21824 22.4051 2.56 20.5395 2.56 17.7114V13.5578C2.56 10.816 4.21824 8.98495 7.82848 8.98495C11.4387 8.98495 13.1174 10.816 13.1174 13.5578V17.7114C13.1174 20.5286 11.4624 22.4051 7.82848 22.4051ZM7.82848 20.0307C9.76704 20.0307 10.4659 19.0374 10.4659 17.6077V13.751C10.4659 12.3213 9.77344 11.328 7.82848 11.328C5.88352 11.328 5.19424 12.3251 5.19424 13.751V17.6141C5.19424 19.0266 5.89376 20.0198 7.82848 20.0198V20.0307Z" fill="black"/>
<path d="M25.6928 22.377H25.1872C23.3216 22.377 22.2758 21.1898 21.6806 18.6765L20.4589 13.4925C20.1107 11.8573 19.767 11.4176 19.0746 11.4176C18.5171 11.4176 18.1331 11.7466 18.1331 13.1456L18.1504 22.1971H15.5904V12.8506C15.5904 10.0608 16.9158 8.95999 18.9062 8.95999H19.4182C21.2838 8.95999 22.3328 10.1818 22.9075 12.695L24.1466 17.8874C24.5133 19.5283 24.839 19.9642 25.5309 19.9642C26.0883 19.9642 26.4723 19.6179 26.4723 18.2362L26.4403 9.16095H29.0227V18.5216C29.0266 21.2934 27.7005 22.377 25.6928 22.377Z" fill="black"/>
</g>
<defs>
<clipPath id="clip0_1_50">
<rect width="32" height="32" fill="white"/>
</clipPath>
</defs>
</svg>
