<svg width="32" height="32" viewBox="0 0 32 32" fill="none" xmlns="http://www.w3.org/2000/svg">
<path d="M24.0727 31.4793L8.15565 15.5607V18.3709L21.264 31.4793H24.0727ZM20.0742 31.4793L8.15565 19.5607V22.4029L17.232 31.4793H20.0742ZM16.0073 31.4793L8.15565 23.6276V26.4349L13.2 31.4793H16.0073ZM23.728 10.8655V8.05818L12.7375 19.0473L14.1411 20.4509L23.728 10.8655ZM27.7542 0L10.7215 17.0327L12.1251 18.4349L27.7542 2.80727V0ZM23.7207 0L8.70255 15.0153L10.1077 16.4189L23.7222 2.80873L23.7207 0ZM4.36365 10.8582H7.19419V31.4793H4.36365V10.8582Z" fill="black"/>
</svg>
