<svg width="32" height="32" viewBox="0 0 32 32" fill="none" xmlns="http://www.w3.org/2000/svg">
<g clip-path="url(#clip0_1712:2)">
<path d="M23.8109 16.0093C23.8109 16.0093 23.8109 16.0303 23.8109 16.0423L27.5286 18.0975C28.2598 18.5015 29.0185 18.8539 29.7992 19.1522C28.9664 19.0862 28.1303 19.0761 27.2964 19.1222L23.0511 19.3625C22.8972 19.6839 22.7209 19.9942 22.5234 20.291L28.9941 25.426C29.2775 25.0383 29.5458 24.6357 29.7931 24.2241L26.8682 21.9015C26.1696 21.325 25.4055 20.8318 24.5919 20.4322C25.4474 20.5646 26.3145 20.6059 27.1788 20.5554L31.4784 20.315C31.6152 19.8323 31.7276 19.3395 31.8161 18.8367L28.0472 16.7635C27.2903 16.3437 26.4908 16.0053 25.6622 15.7539C26.5708 15.7382 27.4743 15.6172 28.3548 15.3933L32.0001 14.564C31.9548 14.0833 31.8915 13.6055 31.8072 13.1338L23.7386 14.9637C23.7862 15.3102 23.8103 15.6595 23.8109 16.0093Z" fill="black"/>
<path d="M21.6367 21.4023C21.3899 21.6603 21.1249 21.9003 20.8437 22.1205L21.5552 26.3C21.6937 27.1206 21.8891 27.9311 22.1402 28.7248C21.6751 28.0341 21.1623 27.3764 20.6055 26.7568L17.7712 23.5988C17.4225 23.6777 17.069 23.7339 16.7129 23.767V32.0089C17.1983 31.9878 17.6808 31.9459 18.1542 31.8828V28.1449C18.1701 27.2414 18.081 26.3388 17.8888 25.4557C18.3134 26.2091 18.819 26.9143 19.3964 27.5589L22.2669 30.7589C22.7332 30.5587 23.1885 30.3393 23.6327 30.101L22.9121 25.8702C22.7698 25.0196 22.5363 24.1865 22.2156 23.3854C22.7885 24.0863 23.4411 24.7185 24.1604 25.2695L27.0852 27.5951C27.4309 27.2625 27.7644 26.9139 28.0861 26.5495L21.6367 21.4023Z" fill="black"/>
<path d="M20.8923 9.94577L24.8121 8.32322C25.5847 8.00611 26.3345 7.63564 27.0552 7.2145C26.4843 7.82187 25.9553 8.46737 25.4724 9.14652L23.012 12.6019C23.1702 12.9224 23.3052 13.2538 23.416 13.5935L31.4785 11.7516C31.352 11.2859 31.2012 10.8261 31.0324 10.3784L27.3839 11.2107C26.4962 11.3953 25.6329 11.6827 24.8121 12.0671C25.4482 11.4832 26.0203 10.8335 26.5187 10.129L29.0092 6.63159C28.7098 6.21893 28.3932 5.82431 28.0593 5.44773L24.0854 7.08829C23.2844 7.41505 22.5211 7.82708 21.8089 8.31721C22.3672 7.60388 22.8407 6.82851 23.22 6.00662L24.8421 2.65035C24.4412 2.38595 24.0251 2.13656 23.5999 1.9082L20.0059 9.3328C20.3153 9.51636 20.6115 9.72119 20.8923 9.94577Z" fill="black"/>
<path d="M8.97637 12.6019L6.52503 9.14652C6.0425 8.468 5.51358 7.82347 4.94207 7.2175C5.66258 7.63755 6.41109 8.008 7.18233 8.32623L11.1021 9.94577C11.3811 9.72664 11.6742 9.52589 11.9795 9.34482L8.3884 1.9082C7.96326 2.13656 7.54718 2.38595 7.14617 2.65035L8.77133 6.0096C9.14929 6.83064 9.62183 7.60504 10.1794 8.31721C9.46643 7.82834 8.70335 7.41639 7.90296 7.08829L3.92898 5.44773C3.59429 5.82633 3.27768 6.22293 2.97918 6.63159L5.46973 10.129C5.96769 10.8347 6.5409 11.4845 7.17933 12.0671C6.35817 11.6833 5.49509 11.396 4.6074 11.2107L0.959024 10.3815C0.790173 10.8301 0.640423 11.2879 0.509766 11.7546L8.57535 13.5904C8.68534 13.2519 8.81938 12.9216 8.97637 12.6019Z" fill="black"/>
<path d="M14.2314 23.5899L11.3971 26.748C10.8397 27.3678 10.3259 28.0255 9.85935 28.716C10.1107 27.9223 10.3062 27.1121 10.4443 26.2912L11.1559 22.1146C10.8761 21.8928 10.6112 21.6529 10.3629 21.3965L3.90137 26.5404C4.21897 26.9012 4.55266 27.2486 4.90241 27.5831L7.82411 25.2604C8.54336 24.7096 9.19599 24.0775 9.76891 23.3766C9.44937 24.1781 9.21591 25.011 9.0724 25.8614L8.35177 30.092C8.79499 30.3295 9.25633 30.5487 9.72064 30.747L12.5911 27.547C13.1675 26.9017 13.6729 26.1964 14.0987 25.4437C13.9047 26.3269 13.8146 27.2292 13.8303 28.1329V31.8619C14.3067 31.9249 14.7861 31.9671 15.2746 31.988V23.7462C14.9238 23.7168 14.5753 23.6646 14.2314 23.5899Z" fill="black"/>
<path d="M14.2951 8.41314L15.471 4.3448C15.7036 3.54475 15.8799 2.7295 15.9987 1.90498C16.119 2.72919 16.2953 3.54432 16.5263 4.3448L17.7052 8.41314C18.0545 8.48962 18.398 8.59001 18.7334 8.71362L22.3185 1.28301C21.8752 1.09672 21.4139 0.925447 20.9616 0.778218L19.3395 4.14046C18.9315 4.94807 18.6188 5.80007 18.4078 6.67944C18.3472 5.81937 18.1946 4.96822 17.9525 4.14046L16.7464 0.0180297C16.4952 0.00601096 16.2419 0 15.9866 0C15.7313 0 15.478 0.00601096 15.2268 0.0180297L14.0629 4.14046C13.8157 4.96766 13.6581 5.81884 13.5925 6.67944C13.3815 5.80007 13.0688 4.94807 12.6609 4.14046L11.0477 0.781222C10.5864 0.928453 10.1432 1.09972 9.69092 1.28601L13.276 8.71663C13.6083 8.59239 13.9488 8.49101 14.2951 8.41314Z" fill="black"/>
<path d="M3.64536 15.408C4.52562 15.6247 5.42819 15.7386 6.33488 15.7475C5.50766 15.9989 4.70926 16.3362 3.95287 16.7541L0.192975 18.8303C0.28343 19.3321 0.394989 19.8219 0.530674 20.3056L4.8303 20.546C5.69447 20.5982 6.56177 20.5579 7.41733 20.4258C6.60361 20.8255 5.83959 21.3186 5.14087 21.8951L2.21616 24.2177C2.46339 24.6324 2.73173 25.0319 3.01518 25.4196L9.48572 20.2846C9.28839 19.9861 9.1111 19.675 8.95506 19.3531L4.71573 19.1188C3.88184 19.071 3.04562 19.081 2.21314 19.1488C2.99227 18.8494 3.74984 18.497 4.48053 18.0942L8.20126 16.042V16.0089C8.20141 15.6632 8.22458 15.3179 8.27062 14.9753L0.192975 13.1484C0.105535 13.6172 0.0422124 14.0949 0 14.5787L3.64536 15.408Z" fill="black"/>
</g>
<defs>
<clipPath id="clip0_1712:2">
<rect width="32" height="32" fill="white"/>
</clipPath>
</defs>
</svg>
