<svg width="213" height="182" viewBox="0 0 213 182" fill="none" xmlns="http://www.w3.org/2000/svg">
<path d="M194.331 91.8219C197.166 97.1251 196.915 104.254 195.806 108.43C193.418 117.419 185.903 123.78 180.011 129.244C172.661 136.061 169.536 145.621 158.475 153.037C148.569 159.679 132.771 164.455 118.362 163.51C109.258 162.913 101.979 160.646 93.8779 157.821C71.8794 150.15 53.3372 135.929 45.8979 114.796C43.5096 108.012 42.771 99.4255 42.771 91.8219C42.771 79.8132 46.3943 68.487 51.804 58.5154C54.8814 52.8429 60.3875 47.8922 64.8076 43.2201C71.4548 36.1938 78.5251 29.8996 87.1568 25.7679C96.312 21.3858 107.153 19.3775 118.551 19.3775C122.665 19.3775 128.57 19.4806 132.702 20.4514C147.675 23.9696 159.594 32.2152 164.893 37.5299C167.996 40.6426 172.174 45.3584 176.565 52.3976C179.393 56.9295 179.474 70.3093 183.935 76.3588C188.134 82.0517 191.145 82.7557 194.331 91.8219" fill="url(#paint0_radial)"/>
<path d="M43.0897 88.8251C37.9982 97.7904 32.8786 90.4721 27.073 85.4705C16.8371 75.3884 7.40561 81.8525 1.74857 85.8485C11.0689 80.348 20.2986 97.7487 22.5373 101.724C24.6031 105.92 37.1437 125.875 26.695 130.45C32.6469 127.438 39.7012 128.901 42.84 114.471L45.1118 113.469" fill="url(#paint1_linear)"/>
<path d="M43.0897 88.8251C37.9982 97.7904 32.8786 90.4721 27.073 85.4705C16.8371 75.3884 7.40561 81.8525 1.74857 85.8485C11.0689 80.348 20.2986 97.7487 22.5373 101.724C24.6031 105.92 37.1437 125.875 26.695 130.45C32.6469 127.438 39.7012 128.901 42.84 114.471L45.1118 113.469" stroke="black" stroke-width="1.5" stroke-linecap="round" stroke-linejoin="round"/>
<path d="M12.3045 87.5437C14.2438 86.5872 17.8278 87.0402 20.1221 86.2741Z" fill="url(#paint2_linear)"/>
<path d="M12.3045 87.5437C14.2438 86.5872 17.8278 87.0402 20.1221 86.2741" stroke="black" stroke-linecap="round" stroke-linejoin="round"/>
<path d="M16.3803 91.085C19.1421 91.7309 21.3365 90.0557 25.0666 91.4191Z" fill="url(#paint3_linear)"/>
<path d="M16.3803 91.085C19.1421 91.7309 21.3365 90.0557 25.0666 91.4191" stroke="black" stroke-linecap="round" stroke-linejoin="round"/>
<path d="M21.993 99.3035C23.953 99.3035 25.913 100.063 27.8729 99.3035Z" fill="url(#paint4_linear)"/>
<path d="M21.993 99.3035C23.953 99.3035 25.913 100.063 27.8729 99.3035" stroke="black" stroke-linecap="round" stroke-linejoin="round"/>
<path d="M22.8616 102.043C25.2891 101.376 26.7396 103.164 28.942 101.642Z" fill="url(#paint5_linear)"/>
<path d="M22.8616 102.043C25.2891 101.376 26.7396 103.164 28.942 101.642" stroke="black" stroke-linecap="round" stroke-linejoin="round"/>
<path d="M27.6725 110.93C29.0218 110.095 31.2663 110.459 32.2829 108.925Z" fill="url(#paint6_linear)"/>
<path d="M27.6725 110.93C29.0218 110.095 31.2663 110.459 32.2829 108.925" stroke="black" stroke-linecap="round" stroke-linejoin="round"/>
<path d="M29.8106 115.473C30.3452 113.669 33.2107 113.528 33.6192 112.066Z" fill="url(#paint7_linear)"/>
<path d="M29.8106 115.473C30.3452 113.669 33.2107 113.528 33.6192 112.066" stroke="black" stroke-linecap="round" stroke-linejoin="round"/>
<path d="M31.2806 121.687C34.4243 120.522 34.7471 118.472 36.0246 117.478Z" fill="url(#paint8_linear)"/>
<path d="M31.2806 121.687C34.4243 120.522 34.7471 118.472 36.0246 117.478" stroke="black" stroke-linecap="round" stroke-linejoin="round"/>
<path d="M165.078 148.415C170.79 143.013 176.779 150.034 182.651 151.755C179.713 146.895 172.366 143.275 174.499 136.989" fill="url(#paint9_radial)"/>
<path d="M165.078 148.415C170.79 143.013 176.779 150.034 182.651 151.755C179.713 146.895 172.366 143.275 174.499 136.989" stroke="black" stroke-width="1.2" stroke-linecap="round"/>
<path d="M139.821 162.149C148.681 162.103 151.634 170.139 156.258 173.538C155.806 170.362 151.126 166.339 152.716 156.767" fill="url(#paint10_radial)"/>
<path d="M139.821 162.149C148.681 162.103 151.634 170.139 156.258 173.538C155.806 170.362 151.126 166.339 152.716 156.767" stroke="black" stroke-width="1.2" stroke-linecap="round"/>
<path d="M118.239 164.183C125.29 164.074 125.388 177.368 128.261 180.554C129.641 176.923 127.056 168.883 133.206 163.048" fill="url(#paint11_radial)"/>
<path d="M118.239 164.183C125.29 164.074 125.388 177.368 128.261 180.554C129.641 176.923 127.056 168.883 133.206 163.048" stroke="black" stroke-width="1.2" stroke-linecap="round"/>
<path d="M94.9193 158.972C102.258 161.906 100.153 170.642 101.668 178.282C104.808 171.4 103.706 164.981 109.886 162.847" fill="url(#paint12_radial)"/>
<path d="M94.9193 158.972C102.258 161.906 100.153 170.642 101.668 178.282C104.808 171.4 103.706 164.981 109.886 162.847" stroke="black" stroke-width="1.2" stroke-linecap="round"/>
<path d="M72.2682 147.613C79.1716 152.628 74.516 160.414 74.6068 168.46C78.964 164.812 77.7451 153.319 88.1332 156.007" fill="url(#paint13_radial)"/>
<path d="M72.2682 147.613C79.1716 152.628 74.516 160.414 74.6068 168.46C78.964 164.812 77.7451 153.319 88.1332 156.007" stroke="black" stroke-width="1.2" stroke-linecap="round"/>
<path d="M53.8266 130.173C56.0464 135.544 49.672 143.474 47.6794 149.818C52.57 146.497 55.0987 137.103 62.3792 139.929" fill="url(#paint14_radial)"/>
<path d="M53.8266 130.173C56.0464 135.544 49.672 143.474 47.6794 149.818C52.57 146.497 55.0987 137.103 62.3792 139.929" stroke="black" stroke-width="1.2" stroke-linecap="round"/>
<path d="M153.117 29.3396C157.66 31.3941 161.447 29.8848 164.743 26.0656C162.297 28.7926 159.172 31.9431 161.536 35.0137L153.117 29.3396Z" fill="black" stroke="black" stroke-width="1.3" stroke-linecap="round" stroke-linejoin="round"/>
<path d="M166.208 38.9731C168.658 39.3976 171.108 37.851 173.558 36.7681C171.038 38.8744 168.244 40.9702 170.217 43.2494" fill="black"/>
<path d="M166.208 38.9731C168.658 39.3976 171.108 37.851 173.558 36.7681C171.038 38.8744 168.244 40.9702 170.217 43.2494" stroke="black" stroke-width="1.2" stroke-linecap="round" stroke-linejoin="round"/>
<path d="M142.226 23.6051C146.286 23.1193 144.82 19.012 145.834 16.1215C146.328 19.6404 144.846 23.7836 148.373 26.3446" fill="black"/>
<path d="M142.226 23.6051C146.286 23.1193 144.82 19.012 145.834 16.1215C146.328 19.6404 144.846 23.7836 148.373 26.3446" stroke="black" stroke-width="1.2" stroke-linecap="round" stroke-linejoin="round"/>
<path d="M133.673 20.7319C128.637 18.1662 131.305 13.8885 130.533 10.3753C129.233 13.4616 128.874 18.6 125.789 17.792C127.764 19.004 130.191 20.3407 133.673 20.7319V20.7319Z" fill="black" stroke="black" stroke-width="1.2" stroke-linecap="round" stroke-linejoin="round"/>
<path d="M117.639 16.7121C115.429 16.6173 114.107 12.4063 112.22 10.0465C112.341 13.3575 115.14 17.716 111.618 19.6014" fill="black"/>
<path d="M117.639 16.7121C115.429 16.6173 114.107 12.4063 112.22 10.0465C112.341 13.3575 115.14 17.716 111.618 19.6014" stroke="black" stroke-width="1.2" stroke-linecap="round"/>
<path d="M95.5875 21.1328C99.5375 19.3685 97.6168 15.6472 97.6588 12.5802C99.492 15.3458 98.6462 18.9059 103.873 20.6651" fill="black"/>
<path d="M95.5875 21.1328C99.5375 19.3685 97.6168 15.6472 97.6588 12.5802C99.492 15.3458 98.6462 18.9059 103.873 20.6651" stroke="black" stroke-width="1.2" stroke-linecap="round"/>
<path d="M78.6827 30.22C73.9211 31.3576 72.7814 26.7608 69.9296 24.8746C71.7439 28.6727 75.2413 32.8314 72.4018 35.6322" fill="black"/>
<path d="M78.6827 30.22C73.9211 31.3576 72.7814 26.7608 69.9296 24.8746C71.7439 28.6727 75.2413 32.8314 72.4018 35.6322" stroke="black" stroke-width="1.2" stroke-linecap="round"/>
<path d="M54.6952 53.868C56.2494 51.998 51.2819 48.6458 49.3499 45.9835C52.6705 47.6761 55.8916 50.4634 59.3725 50.3935" fill="black"/>
<path d="M54.6952 53.868C56.2494 51.998 51.2819 48.6458 49.3499 45.9835C52.6705 47.6761 55.8916 50.4634 59.3725 50.3935" stroke="black" stroke-width="1.2" stroke-linecap="round" stroke-linejoin="round"/>
<path d="M48.9489 62.8215C45.5413 63.8575 42.6013 61.6411 39.1936 61.3515C42.072 63.3717 46.9989 63.6805 47.7462 67.4987" fill="black"/>
<path d="M48.9489 62.8215C45.5413 63.8575 42.6013 61.6411 39.1936 61.3515C42.072 63.3717 46.9989 63.6805 47.7462 67.4987" stroke="black" stroke-width="1.2" stroke-linecap="round"/>
<path d="M42.9178 88.4912C44.5751 83.0599 36.5812 82.1861 32.5119 79.459C36.6654 78.9504 40.8189 82.1223 44.9724 77.8148" fill="black"/>
<path d="M42.9178 88.4912C44.5751 83.0599 36.5812 82.1861 32.5119 79.459C36.6654 78.9504 40.8189 82.1223 44.9724 77.8148" stroke="black" stroke-width="1.2" stroke-linecap="round"/>
<path d="M176.832 53.4671C179.194 54.3833 183.672 53.1835 187.409 52.7253C183.585 54.5863 177.825 55.2737 178.999 61.4187" fill="black"/>
<path d="M176.832 53.4671C179.194 54.3833 183.672 53.1835 187.409 52.7253C183.585 54.5863 177.825 55.2737 178.999 61.4187" stroke="black" stroke-width="1.2" stroke-linecap="round" stroke-linejoin="round"/>
<path d="M48.3476 120.819C49.5076 126.455 44.6252 129.069 42.6013 133.113C45.8888 131.318 47.8604 127.549 52.4903 127.768" fill="black"/>
<path d="M48.3476 120.819C49.5076 126.455 44.6252 129.069 42.6013 133.113C45.8888 131.318 47.8604 127.549 52.4903 127.768" stroke="black" stroke-linecap="round"/>
<path d="M177.714 131.231C180.797 127.864 184.771 133.098 188.33 134.327C186.643 131.418 183.182 129.477 183.319 125.574" fill="black"/>
<path d="M177.714 131.231C180.797 127.864 184.771 133.098 188.33 134.327C186.643 131.418 183.182 129.477 183.319 125.574" stroke="black" stroke-linecap="round"/>
<path d="M177.381 131.123C180.708 126.241 194.21 118.939 196.563 106.177C197.129 93.357 191.047 83.8843 188.437 82.1753" stroke="black" stroke-width="1.5" stroke-linecap="round" stroke-linejoin="round"/>
<path d="M44.9946 107.027C43.3747 114.483 54.7869 134.52 65.8778 142.652" stroke="black" stroke-width="1.5" stroke-linecap="round" stroke-linejoin="round"/>
<path d="M65.8778 142.652C72.1774 147.412 84.9607 155.54 91.2603 157.536" stroke="black" stroke-width="1.5"/>
<path d="M91.2603 157.536C96.6926 159.249 102.041 161.681 112.652 163.629" stroke="black" stroke-width="1.5" stroke-linecap="round" stroke-linejoin="round"/>
<path d="M112.652 163.629C119.293 164.807 136.088 162.588 135.992 162.306" stroke="black" stroke-width="1.5" stroke-linecap="round" stroke-linejoin="round"/>
<path d="M139.394 161.456C146.052 160.532 155.946 156.19 163.099 150.596" stroke="black" stroke-width="1.5" stroke-linecap="round" stroke-linejoin="round"/>
<path d="M163.099 150.596C167.798 145.952 173.843 138.71 175.869 133.58" stroke="black" stroke-width="1.5" stroke-linecap="round" stroke-linejoin="round"/>
<path d="M43.615 96.444C43.2069 90.6168 43.7982 83.9879 45.1498 78.1607" stroke="black" stroke-width="1.5" stroke-linecap="round" stroke-linejoin="round"/>
<path d="M174.97 50.0244C182.635 60.3946 177.823 83.8525 182.105 88.5064C186.956 86.3016 184.808 83.1518 188.437 82.1753" stroke="black" stroke-width="1.5" stroke-linecap="round" stroke-linejoin="round"/>
<path d="M109.269 20.1268C123.089 18.8013 120.406 8.53668 122.298 0.749741C124.079 8.70426 120.684 19.8657 134.125 20.5945" fill="url(#paint15_linear)"/>
<path d="M109.269 20.1268C123.089 18.8013 120.406 8.53668 122.298 0.749741C124.079 8.70426 120.684 19.8657 134.125 20.5945" stroke="black" stroke-width="1.5" stroke-linecap="round" stroke-linejoin="round"/>
<path d="M69.7802 127.37C67.5123 139.053 65.0116 145.398 62.4096 152.978C67.3757 146.242 72.5048 140.846 78.3791 136.158" fill="url(#paint16_linear)"/>
<path d="M69.7802 127.37C67.5123 139.053 65.0116 145.398 62.4096 152.978C67.3757 146.242 72.5048 140.846 78.3791 136.158" stroke="black" stroke-width="1.5" stroke-linecap="round" stroke-linejoin="round"/>
<path d="M87.8285 139.938C88.9006 147.662 89.1488 156.312 88.2065 166.302C91.7208 159.248 93.3819 152.426 98.7898 145.135" fill="url(#paint17_linear)"/>
<path d="M87.8285 139.938C88.9006 147.662 89.1488 156.312 88.2065 166.302C91.7208 159.248 93.3819 152.426 98.7898 145.135" stroke="black" stroke-width="1.4" stroke-linecap="round" stroke-linejoin="round"/>
<path d="M108.145 146.647C110.782 154.343 113.779 160.24 115.232 173.861C116.323 165.686 116.89 157.423 119.39 149.482" fill="url(#paint18_linear)"/>
<path d="M108.145 146.647C110.782 154.343 113.779 160.24 115.232 173.861C116.323 165.686 116.89 157.423 119.39 149.482" stroke="black" stroke-width="1.4" stroke-linecap="round" stroke-linejoin="round"/>
<path d="M128.272 147.498C135.983 155.057 137.347 170.409 140.745 173.389C142.566 172.035 137.515 156.79 139.422 146.364" fill="url(#paint19_linear)"/>
<path d="M128.272 147.498C135.983 155.057 137.347 170.409 140.745 173.389C142.566 172.035 137.515 156.79 139.422 146.364" stroke="black" stroke-width="1.4" stroke-linecap="round"/>
<path d="M148.777 143.151C160.282 146.41 165.397 160.098 168.904 160.349C170.747 159.042 161.017 148.312 158.321 134.457" fill="url(#paint20_linear)"/>
<path d="M148.777 143.151C160.282 146.41 165.397 160.098 168.904 160.349C170.747 159.042 161.017 148.312 158.321 134.457" stroke="black" stroke-width="1.4" stroke-linecap="round" stroke-linejoin="round"/>
<path d="M169.944 131.528C174.715 132.106 177.758 135.102 181.378 137.292C177.457 133.504 175.95 129.394 175.802 125.103" fill="url(#paint21_linear)"/>
<path d="M169.944 131.528C174.715 132.106 177.758 135.102 181.378 137.292C177.457 133.504 175.95 129.394 175.802 125.103" stroke="black" stroke-width="1.4" stroke-linecap="round" stroke-linejoin="round"/>
<path d="M52.9415 84.4719C49.1959 77.4596 33.9943 70.0547 34.834 68.4357C36.4435 66.4584 45.8885 74.3623 56.817 72.4448" fill="url(#paint22_linear)"/>
<path d="M52.9415 84.4719C49.1959 77.4596 33.9943 70.0547 34.834 68.4357C36.4435 66.4584 45.8885 74.3623 56.817 72.4448" stroke="black" stroke-width="1.4" stroke-linecap="round"/>
<path d="M46.7944 71.9103C47.4074 68.3268 49.3789 65.5789 49.4002 62.1549C48.7059 57.5261 37.2621 50.4497 37.5735 49.0587C37.5513 46.6315 49.6585 56.2558 55.1465 53.2014L59.8237 49.7269" fill="url(#paint23_linear)"/>
<path d="M46.7944 71.9103C47.4074 68.3268 49.3789 65.5789 49.4002 62.1549C48.7059 57.5261 37.2621 50.4497 37.5735 49.0587C37.5513 46.6315 49.6585 56.2558 55.1465 53.2014L59.8237 49.7269" stroke="black" stroke-width="1.5" stroke-linecap="round"/>
<path d="M65.57 57.1436C62.6832 49.1474 48.9274 38.9196 49.1998 36.6307C51.2 35.7249 63.5742 47.0075 72.8531 48.1233" fill="url(#paint24_linear)"/>
<path d="M65.57 57.1436C62.6832 49.1474 48.9274 38.9196 49.1998 36.6307C51.2 35.7249 63.5742 47.0075 72.8531 48.1233" stroke="black" stroke-width="1.4" stroke-linecap="round"/>
<path d="M63.8996 44.916C70.1982 38.9752 60.2456 32.5792 57.5519 26.6081C62.4519 29.9712 69.1037 39.3748 73.8554 34.4925L79.1339 30.0826" fill="url(#paint25_linear)"/>
<path d="M63.8996 44.916C70.1982 38.9752 60.2456 32.5792 57.5519 26.6081C62.4519 29.9712 69.1037 39.3748 73.8554 34.4925L79.1339 30.0826" stroke="black" stroke-width="1.5" stroke-linecap="round"/>
<path d="M81.5394 40.8402C82.4713 32.1985 76.139 22.2872 75.9267 14.915C81.4948 21.1513 81.5936 28.6595 91.2279 37.232" fill="url(#paint26_linear)"/>
<path d="M81.5394 40.8402C82.4713 32.1985 76.139 22.2872 75.9267 14.915C81.4948 21.1513 81.5936 28.6595 91.2279 37.232" stroke="black" stroke-width="1.4" stroke-linecap="round"/>
<path d="M83.878 27.3431C93.0171 23.5444 84.5649 13.8819 83.7444 6.76331C89.5189 12.4012 88.8255 24.295 104.324 20.5277" fill="url(#paint27_linear)"/>
<path d="M83.878 27.3431C93.0171 23.5444 84.5649 13.8819 83.7444 6.76331C89.5189 12.4012 88.8255 24.295 104.324 20.5277" stroke="black" stroke-width="1.5" stroke-linecap="round"/>
<path d="M102.921 32.6884C106.801 24.0804 104.354 15.7475 104.591 7.29784C107.675 15.4581 109.58 23.9132 113.946 31.753" fill="url(#paint28_linear)"/>
<path d="M102.921 32.6884C106.801 24.0804 104.354 15.7475 104.591 7.29784C107.675 15.4581 109.58 23.9132 113.946 31.753" stroke="black" stroke-width="1.4" stroke-linecap="round" stroke-linejoin="round"/>
<path d="M128.378 32.0203C134.947 26.0209 135.198 17.9159 137.933 10.6387C138.624 18.9686 137.278 30.964 140.005 35.6284" fill="url(#paint29_linear)"/>
<path d="M128.378 32.0203C134.947 26.0209 135.198 17.9159 137.933 10.6387C138.624 18.9686 137.278 30.964 140.005 35.6284" stroke="black" stroke-width="1.4" stroke-linecap="round" stroke-linejoin="round"/>
<path d="M138.601 21.4631C142.611 22.9561 144.686 25.7156 148.824 26.2072C152.142 25.763 158.284 17.584 159.649 12.7101C160.268 19.8841 150.094 27.2146 161.988 34.2253" fill="url(#paint30_linear)"/>
<path d="M138.601 21.4631C142.611 22.9561 144.686 25.7156 148.824 26.2072C152.142 25.763 158.284 17.584 159.649 12.7101C160.268 19.8841 150.094 27.2146 161.988 34.2253" stroke="black" stroke-width="1.5" stroke-linecap="round" stroke-linejoin="round"/>
<path d="M151.564 42.5774C162.731 37.0834 163.638 33.3736 167.132 29.2139C163.525 36.3137 161.905 43.7643 161.319 51.3973" fill="url(#paint31_linear)"/>
<path d="M151.564 42.5774C162.731 37.0834 163.638 33.3736 167.132 29.2139C163.525 36.3137 161.905 43.7643 161.319 51.3973" stroke="black" stroke-width="1.4" stroke-linecap="round" stroke-linejoin="round"/>
<path d="M164.527 36.8311C167.021 39.105 168.38 42.0441 170.206 43.1788C174.053 45.3614 181.398 39.8012 187.512 36.9648C183.157 42.0697 176.088 46.5619 176.754 52.8005" fill="url(#paint32_linear)"/>
<path d="M164.527 36.8311C167.021 39.105 168.38 42.0441 170.206 43.1788C174.053 45.3614 181.398 39.8012 187.512 36.9648C183.157 42.0697 176.088 46.5619 176.754 52.8005" stroke="black" stroke-width="1.5" stroke-linecap="round" stroke-linejoin="round"/>
<path d="M59.4228 111.6C58.3482 115.882 54.2693 120.764 51.6052 125.364C55.8332 122.797 59.9406 119.687 64.501 118.616" fill="url(#paint33_linear)"/>
<path d="M59.4228 111.6C58.3482 115.882 54.2693 120.764 51.6052 125.364C55.8332 122.797 59.9406 119.687 64.501 118.616" stroke="black" stroke-width="1.4" stroke-linecap="round"/>
<path d="M51.1375 102.446C51.4121 106.733 48.0338 108.281 46.3934 111.132C48.6287 111.125 50.7937 111.686 53.5429 113.671" fill="url(#paint34_linear)"/>
<path d="M51.1375 102.446C51.4121 106.733 48.0338 108.281 46.3934 111.132C48.6287 111.125 50.7937 111.686 53.5429 113.671" stroke="black" stroke-width="1.3" stroke-linecap="round"/>
<path d="M67.04 93.4254C66.7323 100.198 59.2344 103.376 55.2802 108.326C61.1061 106.948 65.8972 103.501 72.9867 104.651" fill="url(#paint35_linear)"/>
<path d="M67.04 93.4254C66.7323 100.198 59.2344 103.376 55.2802 108.326C61.1061 106.948 65.8972 103.501 72.9867 104.651" stroke="black" stroke-width="1.4" stroke-linecap="round"/>
<path d="M57.4183 98.0358C54.0544 94.3668 49.4168 95.7872 45.2575 95.2963C48.6382 93.3853 52.4431 93.7367 55.347 89.2828" fill="url(#paint36_linear)"/>
<path d="M57.4183 98.0358C54.0544 94.3668 49.4168 95.7872 45.2575 95.2963C48.6382 93.3853 52.4431 93.7367 55.347 89.2828" stroke="black" stroke-width="1.2" stroke-linecap="round"/>
<path d="M80.0694 121.088C75.7227 122.067 72.5009 121.672 65.1691 126.3C68.7352 121.245 75.2372 117.658 75.3254 110.865" fill="url(#paint37_linear)"/>
<path d="M80.0694 121.088C75.7227 122.067 72.5009 121.672 65.1691 126.3C68.7352 121.245 75.2372 117.658 75.3254 110.865" stroke="black" stroke-width="1.3" stroke-linecap="round" stroke-linejoin="round"/>
<path d="M78.1317 100.709C77.7496 104.488 74.4176 106.498 72.4522 109.328C75.4306 108.253 78.4132 107.204 81.7398 108.393" fill="url(#paint38_linear)"/>
<path d="M78.1317 100.709C77.7496 104.488 74.4176 106.498 72.4522 109.328C75.4306 108.253 78.4132 107.204 81.7398 108.393" stroke="black" stroke-width="1.1" stroke-linecap="round"/>
<path d="M83.8112 92.2896L79.9358 95.6304C81.7844 95.4801 83.633 95.2522 85.4816 96.8331" fill="url(#paint39_linear)"/>
<path d="M83.8112 92.2896L79.9358 95.6304C81.7844 95.4801 83.633 95.2522 85.4816 96.8331" stroke="black" stroke-linecap="round"/>
<path d="M82.9426 125.966C85.3022 131.756 82.4904 136.685 82.0071 142.002C85.1259 138.186 85.8482 133.799 92.297 130.776" fill="url(#paint40_linear)"/>
<path d="M82.9426 125.966C85.3022 131.756 82.4904 136.685 82.0071 142.002C85.1259 138.186 85.8482 133.799 92.297 130.776" stroke="black" stroke-width="1.2" stroke-linecap="round"/>
<path d="M98.6446 136.055C103.927 141.512 101.897 146.968 103.522 152.425C105.532 147.577 105.649 141.563 109.736 137.993" fill="url(#paint41_linear)"/>
<path d="M98.6446 136.055C103.927 141.512 101.897 146.968 103.522 152.425C105.532 147.577 105.649 141.563 109.736 137.993" stroke="black" stroke-width="1.2" stroke-linecap="round"/>
<path d="M116.819 138.594C121.987 144.087 122.989 150.751 125.104 157.102C125.798 151.037 124.681 144.671 127.309 138.928" fill="url(#paint42_linear)"/>
<path d="M116.819 138.594C121.987 144.087 122.989 150.751 125.104 157.102C125.798 151.037 124.681 144.671 127.309 138.928" stroke="black" stroke-width="1.2" stroke-linecap="round" stroke-linejoin="round"/>
<path d="M93.2324 124.228C94.6652 127.879 94.1858 130.043 94.101 132.514C96.2224 130.136 97.0822 126.497 100.516 125.431" fill="url(#paint43_linear)"/>
<path d="M93.2324 124.228C94.6652 127.879 94.1858 130.043 94.101 132.514C96.2224 130.136 97.0822 126.497 100.516 125.431" stroke="black" stroke-linecap="round"/>
<path d="M106.195 125.966C109.522 129.062 108.886 132.464 110.137 135.721C111.341 133.233 110.18 130.884 114.079 128.237" fill="url(#paint44_linear)"/>
<path d="M106.195 125.966C109.522 129.062 108.886 132.464 110.137 135.721C111.341 133.233 110.18 130.884 114.079 128.237" stroke="black" stroke-linecap="round"/>
<path d="M121.83 127.77C125.35 129.761 127.567 132.533 129.314 135.587C129.491 132.488 127.951 128.992 130.182 126.366" fill="url(#paint45_linear)"/>
<path d="M121.83 127.77C125.35 129.761 127.567 132.533 129.314 135.587C129.491 132.488 127.951 128.992 130.182 126.366" stroke="black" stroke-linecap="round"/>
<path d="M114.681 118.682C116.863 120.72 117.083 122.955 117.554 125.164C118.22 122.781 117.71 120.397 119.959 118.014" fill="url(#paint46_linear)"/>
<path d="M114.681 118.682C116.863 120.72 117.083 122.955 117.554 125.164C118.22 122.781 117.71 120.397 119.959 118.014" stroke="black" stroke-width="0.8" stroke-linecap="round" stroke-linejoin="round"/>
<path d="M107.865 114.406C108.766 116.032 109.124 117.658 109.135 119.284C110.023 117.328 110.442 115.176 112.409 113.671" fill="url(#paint47_linear)"/>
<path d="M107.865 114.406C108.766 116.032 109.124 117.658 109.135 119.284C110.023 117.328 110.442 115.176 112.409 113.671" stroke="black" stroke-width="0.6" stroke-linecap="round" stroke-linejoin="round"/>
<path d="M119.692 106.923C121.118 107.323 122.05 108.71 122.766 110.531C123.241 109.145 123.166 107.43 124.436 106.522" fill="url(#paint48_linear)"/>
<path d="M119.692 106.923C121.118 107.323 122.05 108.71 122.766 110.531C123.241 109.145 123.166 107.43 124.436 106.522" stroke="black" stroke-width="0.6"/>
<path d="M130.249 115.208C132.698 117.27 134.214 119.539 135.06 121.956C134.593 118.104 135.06 115.186 136.731 113.471" fill="url(#paint49_linear)"/>
<path d="M130.249 115.208C132.698 117.27 134.214 119.539 135.06 121.956C134.593 118.104 135.06 115.186 136.731 113.471" stroke="black" stroke-width="0.8" stroke-linecap="round" stroke-linejoin="round"/>
<path d="M134.392 135.119C140.908 140.502 145.092 146.352 147.154 152.626C144.797 145.706 144.046 138.518 143.813 131.244" fill="url(#paint50_linear)"/>
<path d="M134.392 135.119C140.908 140.502 145.092 146.352 147.154 152.626C144.797 145.706 144.046 138.518 143.813 131.244" stroke="black" stroke-width="1.3" stroke-linecap="round" stroke-linejoin="round"/>
<path d="M139.938 122.224C145.121 124.58 148.127 128.916 151.43 132.981C148.905 128.174 148.15 123.602 148.29 119.15" fill="url(#paint51_linear)"/>
<path d="M139.938 122.224C145.121 124.58 148.127 128.916 151.43 132.981C148.905 128.174 148.15 123.602 148.29 119.15" stroke="black" stroke-linecap="round" stroke-linejoin="round"/>
<path d="M153.836 127.502C161.626 129.405 165.255 133.561 168.87 137.725C164.789 132.778 163.32 126.898 161.653 121.088" fill="url(#paint52_linear)"/>
<path d="M153.836 127.502C161.626 129.405 165.255 133.561 168.87 137.725C164.789 132.778 163.32 126.898 161.653 121.088" stroke="black" stroke-width="1.2" stroke-linecap="round" stroke-linejoin="round"/>
<path d="M143.613 109.395C145.11 110.462 146.503 112.048 147.822 114.005C147.553 110.458 146.991 108.232 147.288 106.388" fill="url(#paint53_linear)"/>
<path d="M143.613 109.395C145.11 110.462 146.503 112.048 147.822 114.005C147.553 110.458 146.991 108.232 147.288 106.388" stroke="black" stroke-width="0.8" stroke-linecap="round"/>
<path d="M134.659 102.78C135.446 104.706 137.152 105.255 138.601 106.188C138.057 104.342 138.107 102.645 138.267 100.976" fill="url(#paint54_linear)"/>
<path d="M134.659 102.78C135.446 104.706 137.152 105.255 138.601 106.188C138.057 104.342 138.107 102.645 138.267 100.976" stroke="black" stroke-width="0.8" stroke-linecap="round"/>
<path d="M151.564 97.9022C153.294 97.5301 154.558 97.7567 157.444 95.8977C155.528 95.261 153.613 93.8734 151.698 92.3564" fill="url(#paint55_linear)"/>
<path d="M151.564 97.9022C153.294 97.5301 154.558 97.7567 157.444 95.8977C155.528 95.261 153.613 93.8734 151.698 92.3564" stroke="black" stroke-width="0.7" stroke-linecap="round"/>
<path d="M127.51 95.5636C128.408 96.7218 127.778 97.8799 127.71 99.0381C128.972 97.8016 129.653 96.4814 130.717 95.7641" fill="url(#paint56_linear)"/>
<path d="M127.51 95.5636C128.408 96.7218 127.778 97.8799 127.71 99.0381C128.972 97.8016 129.653 96.4814 130.717 95.7641" stroke="black" stroke-width="0.6" stroke-linecap="round"/>
<path d="M145.617 90.8196C145.15 89.0649 145.332 87.6993 145.751 86.4764L143.145 87.6792" fill="url(#paint57_linear)"/>
<path d="M145.617 90.8196C145.15 89.0649 145.332 87.6993 145.751 86.4764L143.145 87.6792" stroke="black" stroke-width="0.5" stroke-linecap="round"/>
<path d="M131.987 86.6769C132.711 87.1085 132.528 87.9037 132.387 88.6814C133.492 87.6535 134.548 86.4774 135.996 86.4764" fill="url(#paint58_linear)"/>
<path d="M131.987 86.6769C132.711 87.1085 132.528 87.9037 132.387 88.6814C133.492 87.6535 134.548 86.4774 135.996 86.4764" stroke="black" stroke-width="0.5" stroke-linecap="round"/>
<path d="M117.153 96.8331C116.358 96.2461 115.699 95.9304 115.082 95.6972C115.769 95.1979 116.501 94.8313 117.019 93.8263" fill="url(#paint59_linear)"/>
<path d="M117.153 96.8331C116.358 96.2461 115.699 95.9304 115.082 95.6972C115.769 95.1979 116.501 94.8313 117.019 93.8263" stroke="black" stroke-width="0.4" stroke-linecap="round"/>
<path d="M107.264 96.9668C106.065 95.878 104.45 95.3438 102.72 94.9622C104.324 94.2282 105.928 93.7887 107.531 92.2227" fill="url(#paint60_linear)"/>
<path d="M107.264 96.9668C106.065 95.878 104.45 95.3438 102.72 94.9622C104.324 94.2282 105.928 93.7887 107.531 92.2227" stroke="black" stroke-width="0.5" stroke-linecap="round"/>
<path d="M96.4397 93.96C95.1048 93.0855 93.7413 92.3254 92.2302 92.1559C93.8254 91.3557 95.4568 90.5761 95.8383 89.0823" fill="url(#paint61_linear)"/>
<path d="M96.4397 93.96C95.1048 93.0855 93.7413 92.3254 92.2302 92.1559C93.8254 91.3557 95.4568 90.5761 95.8383 89.0823" stroke="black" stroke-width="0.5" stroke-linecap="round"/>
<path d="M98.511 79.1933C96.6451 76.0662 95.5149 74.7607 95.1033 74.1152C96.796 74.8873 98.4887 75.717 100.181 75.4516" fill="url(#paint62_linear)"/>
<path d="M98.511 79.1933C96.6451 76.0662 95.5149 74.7607 95.1033 74.1152C96.796 74.8873 98.4887 75.717 100.181 75.4516" stroke="black" stroke-width="0.5"/>
<path d="M112.142 77.9906C112.697 76.387 112.39 74.7834 112.075 73.1798C113.152 74.2266 114.051 75.2734 116.151 76.3202" fill="url(#paint63_linear)"/>
<path d="M112.142 77.9906C112.697 76.387 112.39 74.7834 112.075 73.1798C113.152 74.2266 114.051 75.2734 116.151 76.3202" stroke="black" stroke-width="0.5" stroke-linecap="round"/>
<path d="M127.777 78.3915C128.343 76.9052 128.48 75.4903 127.977 74.182C128.935 74.7407 129.893 74.9613 130.851 76.5206" fill="url(#paint64_linear)"/>
<path d="M127.777 78.3915C128.343 76.9052 128.48 75.4903 127.977 74.182C128.935 74.7407 129.893 74.9613 130.851 76.5206" stroke="black" stroke-width="0.4" stroke-linecap="round"/>
<path d="M137.065 73.9148C139.258 72.6675 141.793 71.4203 142.811 70.173C141.976 71.3153 141.667 73.2461 141.541 75.4516" fill="url(#paint65_linear)"/>
<path d="M137.065 73.9148C139.258 72.6675 141.793 71.4203 142.811 70.173C141.976 71.3153 141.667 73.2461 141.541 75.4516" stroke="black" stroke-width="0.5" stroke-linejoin="round"/>
<path d="M135.862 46.5196C142.602 43.3731 144.967 36.9449 148.357 31.2853C144.877 38.1997 145.271 46.8735 145.35 52.8005" fill="url(#paint66_linear)"/>
<path d="M135.862 46.5196C142.602 43.3731 144.967 36.9449 148.357 31.2853C144.877 38.1997 145.271 46.8735 145.35 52.8005" stroke="black" stroke-width="1.2" stroke-linecap="round" stroke-linejoin="round"/>
<path d="M114.948 44.5151C117.531 39.1065 119.091 32.5725 119.893 25.2049C120.915 31.3734 119.741 37.4503 124.637 43.7801" fill="url(#paint67_linear)"/>
<path d="M114.948 44.5151C117.531 39.1065 119.091 32.5725 119.893 25.2049C120.915 31.3734 119.741 37.4503 124.637 43.7801" stroke="black" stroke-width="1.2" stroke-linecap="round" stroke-linejoin="round"/>
<path d="M95.8383 49.1923C98.0827 42.0282 95.3164 35.0729 93.4997 28.078C97.174 33.7801 98.4812 40.7568 104.525 45.1833" fill="url(#paint68_linear)"/>
<path d="M95.8383 49.1923C98.0827 42.0282 95.3164 35.0729 93.4997 28.078C97.174 33.7801 98.4812 40.7568 104.525 45.1833" stroke="black" stroke-width="1.2" stroke-linecap="round" stroke-linejoin="round"/>
<path d="M107.064 54.5377C110.191 51.8778 109.965 47.6704 111.006 44.0474C112.293 47.8653 111.074 51.5639 115.683 55.54" fill="url(#paint69_linear)"/>
<path d="M107.064 54.5377C110.191 51.8778 109.965 47.6704 111.006 44.0474C112.293 47.8653 111.074 51.5639 115.683 55.54" stroke="black" stroke-width="1.1" stroke-linecap="round"/>
<path d="M94.0342 63.0235C95.8271 58.4507 93.6302 54.3766 92.8315 50.1278C95.4213 52.865 96.3586 58.2185 100.85 57.9454" fill="url(#paint70_linear)"/>
<path d="M94.0342 63.0235C95.8271 58.4507 93.6302 54.3766 92.8315 50.1278C95.4213 52.865 96.3586 58.2185 100.85 57.9454" stroke="black" stroke-width="1.1" stroke-linecap="round"/>
<path d="M124.035 52.2659C129.159 49.807 129.221 45.4832 131.318 41.9092C131.3 46.0174 128.81 49.9106 132.454 54.3373" fill="url(#paint71_linear)"/>
<path d="M124.035 52.2659C129.159 49.807 129.221 45.4832 131.318 41.9092C131.3 46.0174 128.81 49.9106 132.454 54.3373" stroke="black" stroke-width="1.1" stroke-linecap="round"/>
<path d="M140.806 58.9477C146.124 58.4271 148.932 55.5649 151.631 52.6C149.976 56.0955 147.774 57.5812 147.087 64.6272" fill="url(#paint72_linear)"/>
<path d="M140.806 58.9477C146.124 58.4271 148.932 55.5649 151.631 52.6C149.976 56.0955 147.774 57.5812 147.087 64.6272" stroke="black" stroke-linecap="round" stroke-linejoin="round"/>
<path d="M103.99 67.7008C106.148 61.217 104.737 61.2749 104.992 58.2795C106.161 60.2172 106.069 62.1549 108.667 64.0926" fill="url(#paint73_linear)"/>
<path d="M103.99 67.7008C106.148 61.217 104.737 61.2749 104.992 58.2795C106.161 60.2172 106.069 62.1549 108.667 64.0926" stroke="black" stroke-width="0.8" stroke-linecap="round"/>
<path d="M114.013 68.9035C115.581 67.8883 115.932 65.6558 116.685 63.8254C117.334 65.3844 117.238 66.9435 118.69 68.5026" fill="url(#paint74_linear)"/>
<path d="M114.013 68.9035C115.581 67.8883 115.932 65.6558 116.685 63.8254C117.334 65.3844 117.238 66.9435 118.69 68.5026" stroke="black" stroke-width="0.6" stroke-linecap="round"/>
<path d="M126.24 64.8944C129.441 63.1794 130.143 61.4645 131.92 59.7495C132.03 61.999 131.707 64.2485 132.454 66.498" fill="url(#paint75_linear)"/>
<path d="M126.24 64.8944C129.441 63.1794 130.143 61.4645 131.92 59.7495C132.03 61.999 131.707 64.2485 132.454 66.498" stroke="black" stroke-width="0.6"/>
<path d="M155.105 103.448C154.803 103.984 155.411 105.066 155.974 106.121C155.284 105.958 154.593 105.342 153.903 105.987" fill="url(#paint76_linear)"/>
<path d="M155.105 103.448C154.803 103.984 155.411 105.066 155.974 106.121C155.284 105.958 154.593 105.342 153.903 105.987" stroke="black" stroke-width="0.4" stroke-linecap="round"/>
<path d="M125.171 87.5455C125.257 86.4869 123.733 85.7804 123.701 85.8751C124.424 85.5487 125.274 85.8552 125.839 84.7392" fill="url(#paint77_linear)"/>
<path d="M125.171 87.5455C125.257 86.4869 123.733 85.7804 123.701 85.8751C124.424 85.5487 125.274 85.8552 125.839 84.7392" stroke="black" stroke-width="0.4" stroke-linecap="round" stroke-linejoin="round"/>
<path d="M114.881 87.2782C114.191 85.7926 113.5 85.9818 112.81 85.3405C113.54 85.061 114.783 84.9094 114.881 84.4719" fill="url(#paint78_linear)"/>
<path d="M114.881 87.2782C114.191 85.7926 113.5 85.9818 112.81 85.3405C113.54 85.061 114.783 84.9094 114.881 84.4719" stroke="black" stroke-width="0.5" stroke-linecap="round"/>
<path d="M104.725 85.8751C104.057 84.3334 103.389 84.3897 102.72 83.8037C103.545 83.5323 104.369 83.6146 105.193 82.8683" fill="url(#paint79_linear)"/>
<path d="M104.725 85.8751C104.057 84.3334 103.389 84.3897 102.72 83.8037C103.545 83.5323 104.369 83.6146 105.193 82.8683" stroke="black" stroke-width="0.5" stroke-linecap="round"/>
<path d="M91.4284 101.844C90.5375 100.465 89.6466 100.981 88.7557 100.575C89.914 99.9965 91.2495 100.127 92.2302 98.8376" fill="url(#paint80_linear)"/>
<path d="M91.4284 101.844C90.5375 100.465 89.6466 100.981 88.7557 100.575C89.914 99.9965 91.2495 100.127 92.2302 98.8376" stroke="black" stroke-width="0.4" stroke-linecap="round"/>
<path d="M89.1566 52.0655C80.8434 53.1649 78.5549 45.4283 73.254 42.1097C76.2141 48.426 83.6928 53.774 82.0071 61.0858" fill="url(#paint81_linear)"/>
<path d="M89.1566 52.0655C80.8434 53.1649 78.5549 45.4283 73.254 42.1097C76.2141 48.426 83.6928 53.774 82.0071 61.0858" stroke="black" stroke-width="1.2" stroke-linecap="round"/>
<path d="M75.7931 67.8344C67.3751 69.7259 63.3651 64.4044 57.151 62.6895C61.785 67.6458 69.4174 69.5015 70.2472 78.3915" fill="url(#paint82_linear)"/>
<path d="M75.7931 67.8344C67.3751 69.7259 63.3651 64.4044 57.151 62.6895C61.785 67.6458 69.4174 69.5015 70.2472 78.3915" stroke="black" stroke-width="1.2" stroke-linecap="round"/>
<path d="M82.3412 73.5807C83.2232 68.4939 77.8142 64.3507 75.459 59.7495C79.4234 62.155 81.3395 65.6777 87.3525 66.9658" fill="url(#paint83_linear)"/>
<path d="M82.3412 73.5807C83.2232 68.4939 77.8142 64.3507 75.459 59.7495C79.4234 62.155 81.3395 65.6777 87.3525 66.9658" stroke="black" stroke-linecap="round"/>
<path d="M64.1001 78.6588C61.1378 82.4025 58.1756 82.4901 55.2133 84.4051C58.0434 85.3012 61.6009 84.3057 63.6323 87.2782" fill="url(#paint84_linear)"/>
<path d="M64.1001 78.6588C61.1378 82.4025 58.1756 82.4901 55.2133 84.4051C58.0434 85.3012 61.6009 84.3057 63.6323 87.2782" stroke="black" stroke-linecap="round"/>
<path d="M75.9267 88.0132C72.8858 83.7097 69.2612 84.66 65.9041 83.2024C69.8241 82.0442 74.5279 82.6497 77.664 79.7279" fill="url(#paint85_linear)"/>
<path d="M75.9267 88.0132C72.8858 83.7097 69.2612 84.66 65.9041 83.2024C69.8241 82.0442 74.5279 82.6497 77.664 79.7279" stroke="black" stroke-linecap="round"/>
<path d="M87.2189 76.0529C85.4371 77.1652 83.6553 76.1885 81.8735 76.2534C83.1363 77.9869 85.3289 78.1708 85.6152 81.532" fill="url(#paint86_linear)"/>
<path d="M87.2189 76.0529C85.4371 77.1652 83.6553 76.1885 81.8735 76.2534C83.1363 77.9869 85.3289 78.1708 85.6152 81.532" stroke="black" stroke-width="0.8" stroke-linecap="round"/>
<path d="M180.8 102.967C180.652 102.96 180.541 102.945 180.424 102.917C180.211 102.867 180.019 102.781 179.788 102.631C179.729 102.593 179.641 102.532 179.641 102.53C179.641 102.529 179.644 102.528 179.648 102.529C179.652 102.53 180.179 102.606 180.82 102.699C181.461 102.793 181.987 102.869 181.99 102.87C181.999 102.872 181.991 102.874 181.966 102.877C181.952 102.878 181.919 102.881 181.892 102.884C181.255 102.951 181.142 102.962 181.044 102.967C181.005 102.968 180.831 102.969 180.8 102.967V102.967ZM181.074 102.946C181.23 102.941 181.362 102.932 181.504 102.916C181.665 102.899 181.747 102.883 181.761 102.867C181.771 102.856 181.755 102.848 181.706 102.839C181.483 102.801 180.034 102.594 179.847 102.573C179.796 102.567 179.775 102.575 179.783 102.595C179.794 102.622 179.886 102.682 180.028 102.754C180.169 102.825 180.288 102.87 180.43 102.905C180.513 102.925 180.579 102.934 180.699 102.942C180.795 102.948 180.954 102.949 181.074 102.946V102.946Z" fill="#FFF57B"/>
<path d="M169.188 101.007C173.667 96.6009 177.809 87.823 181.85 87.4939C184.636 87.6858 189.308 88.2642 190.544 93.636C190.463 97.7685 188.384 100.904 185.819 103.18L181.283 103.652C179.283 103.841 179.109 102.518 177.22 101.952C177.22 101.952 175.121 100.873 168.526 102.424C171.29 108.796 171.448 115.435 174.196 119.622C176.295 121.328 181.739 123.707 186.764 117.827C189.1 113.114 188.554 108.08 184.779 103.274" fill="#FFF57B"/>
<path d="M169.188 101.007C173.667 96.6009 177.809 87.823 181.85 87.4939C184.636 87.6858 189.308 88.2642 190.544 93.636C190.463 97.7685 188.384 100.904 185.819 103.18L181.283 103.652C179.283 103.841 179.109 102.518 177.22 101.952C177.22 101.952 175.121 100.873 168.526 102.424C171.29 108.796 171.448 115.435 174.196 119.622C176.295 121.328 181.739 123.707 186.764 117.827C189.1 113.114 188.554 108.08 184.779 103.274" stroke="black" stroke-width="1.4" stroke-linecap="round" stroke-linejoin="round"/>
<path d="M179.96 104.077C182.022 105.763 181.161 108.422 181.756 110.597C181.948 107.858 181.252 104.675 184.779 103.604C183.173 103.877 181.567 104.306 179.96 104.077Z" fill="black" stroke="black" stroke-width="0.5" stroke-linecap="round" stroke-linejoin="round"/>
<path d="M174.196 119.622C170.072 119.907 170.85 124.433 168.337 127.843" stroke="black" stroke-linecap="round" stroke-linejoin="round"/>
<path d="M180.477 102.915C180.29 102.874 180.124 102.809 179.935 102.703C179.782 102.617 179.743 102.572 179.822 102.572C179.877 102.571 181.696 102.832 181.741 102.847C181.813 102.87 181.709 102.896 181.433 102.923C181.079 102.958 180.656 102.954 180.477 102.915V102.915Z" fill="#FFF57B"/>
<path d="M169.835 101.398C169.835 101.387 169.888 101.325 169.952 101.262L170.069 101.146L170.367 101.189C170.53 101.213 170.656 101.24 170.645 101.25C170.635 101.259 170.462 101.296 170.26 101.332C170.059 101.368 169.881 101.402 169.865 101.408C169.848 101.414 169.835 101.41 169.835 101.398V101.398Z" fill="#FFF57B"/>
<path d="M170.695 101.247C170.695 101.241 170.706 101.235 170.72 101.235C170.733 101.235 170.741 101.241 170.737 101.247C170.727 101.263 170.695 101.263 170.695 101.247H170.695Z" fill="#FFF57B"/>
<path d="M169.747 101.441C169.747 101.44 169.78 101.406 169.82 101.366C169.892 101.294 169.948 101.236 170.016 101.166C170.043 101.138 170.049 101.133 170.051 101.133C170.059 101.133 170.811 101.243 170.812 101.244C170.812 101.244 170.793 101.248 170.77 101.252C170.747 101.256 170.728 101.258 170.727 101.258C170.727 101.258 170.729 101.255 170.732 101.252C170.739 101.246 170.74 101.243 170.736 101.24C170.732 101.237 170.728 101.236 170.719 101.236C170.705 101.236 170.695 101.241 170.695 101.247C170.695 101.254 170.7 101.258 170.711 101.259C170.716 101.26 170.716 101.26 170.714 101.261C170.713 101.261 170.678 101.268 170.636 101.275C170.418 101.313 170.151 101.362 169.926 101.406C169.841 101.422 169.75 101.44 169.748 101.441C169.747 101.441 169.747 101.441 169.747 101.441L169.747 101.441ZM169.864 101.409C169.888 101.401 170.031 101.374 170.236 101.337C170.407 101.306 170.53 101.281 170.599 101.264C170.636 101.255 170.648 101.251 170.646 101.247C170.641 101.239 170.568 101.222 170.458 101.203C170.411 101.195 170.399 101.194 170.216 101.167L170.069 101.146L170.005 101.209C169.969 101.244 169.933 101.28 169.925 101.289C169.875 101.34 169.837 101.385 169.835 101.397C169.834 101.401 169.836 101.406 169.84 101.409C169.845 101.412 169.855 101.412 169.864 101.409L169.864 101.409Z" fill="#FFF57B"/>
<path d="M174.48 100.918C177.879 99.1324 181.654 98.1923 184.118 94.3035C183.301 97.5015 178.852 99.0601 179.96 102.997C178.047 100.765 176.306 101.416 174.48 100.918Z" fill="black" stroke="black" stroke-width="0.5" stroke-linecap="round" stroke-linejoin="round"/>
<path d="M151.891 78.8068C158.068 80.5138 168.432 80.6972 170.223 93.4534C169.904 107.015 162.098 108.931 157.75 116.227" stroke="black" stroke-width="1.5" stroke-linecap="round" stroke-linejoin="round"/>
<path d="M111.169 101.857C107.679 106.394 101.136 102.078 93.6399 103.18C87.6822 104.892 89.944 113.747 79.4658 119.527C86.5272 119.716 92.8767 127.329 100.727 119.291C104.474 114.971 105.224 110.95 114.003 107.196" fill="url(#paint87_linear)"/>
<path d="M111.169 101.857C107.679 106.394 101.136 102.078 93.6399 103.18C87.6822 104.892 89.944 113.747 79.4658 119.527C86.5272 119.716 92.8767 127.329 100.727 119.291C104.474 114.971 105.224 110.95 114.003 107.196" stroke="black" stroke-width="1.5" stroke-linecap="round" stroke-linejoin="round"/>
<path d="M88.112 116.22C86.377 117.281 86.7533 119.456 84.5685 120.472Z" fill="url(#paint88_linear)"/>
<path d="M88.112 116.22C86.377 117.281 86.7533 119.456 84.5685 120.472" stroke="black" stroke-width="0.5" stroke-linecap="round" stroke-linejoin="round"/>
<path d="M91.2776 115.795C90.3641 118.335 88.4113 119.56 87.5451 121.512Z" fill="url(#paint89_linear)"/>
<path d="M91.2776 115.795C90.3641 118.335 88.4113 119.56 87.5451 121.512" stroke="black" stroke-width="0.5" stroke-linecap="round" stroke-linejoin="round"/>
<path d="M93.6399 115.464C92.0906 117.549 91.727 120.562 90.3326 122.221Z" fill="url(#paint90_linear)"/>
<path d="M93.6399 115.464C92.0906 117.549 91.727 120.562 90.3326 122.221" stroke="black" stroke-width="0.5" stroke-linecap="round" stroke-linejoin="round"/>
<path d="M96.522 117.496C95.55 119.186 95.0579 120.996 93.1674 122.457Z" fill="url(#paint91_linear)"/>
<path d="M96.522 117.496C95.55 119.186 95.0579 120.996 93.1674 122.457" stroke="black" stroke-width="0.5" stroke-linecap="round" stroke-linejoin="round"/>
<path d="M100.774 114.85C99.5676 117.275 98.7806 119.793 96.522 121.984Z" fill="url(#paint92_linear)"/>
<path d="M100.774 114.85C99.5676 117.275 98.7806 119.793 96.522 121.984" stroke="black" stroke-width="0.5" stroke-linecap="round" stroke-linejoin="round"/>
<path d="M197.111 102.802C204.582 101.181 203.386 115.448 211.332 111.779C208.573 121.845 196.49 117.787 193.567 115.653C196.009 110.778 197.47 106.168 197.111 102.802Z" fill="url(#paint93_linear)" stroke="black" stroke-width="1.5" stroke-linecap="round" stroke-linejoin="round"/>
<path d="M202.875 113.291C204.958 114.661 205.51 116.861 207.316 116.693Z" fill="url(#paint94_linear)"/>
<path d="M202.875 113.291C204.958 114.661 205.51 116.861 207.316 116.693" stroke="black" stroke-width="0.5" stroke-linecap="round" stroke-linejoin="round"/>
<path d="M201.08 113.149C202.441 114.225 202.303 117.255 204.812 117.827Z" fill="url(#paint95_linear)"/>
<path d="M201.08 113.149C202.441 114.225 202.303 117.255 204.812 117.827" stroke="black" stroke-width="0.5" stroke-linecap="round" stroke-linejoin="round"/>
<path d="M197.3 113.622C197.858 114.911 197.886 116.113 199.851 117.638Z" fill="url(#paint96_linear)"/>
<path d="M197.3 113.622C197.858 114.911 197.886 116.113 199.851 117.638" stroke="black" stroke-width="0.5" stroke-linecap="round" stroke-linejoin="round"/>
<path d="M168.054 53.4761C160.479 58.9646 153.515 64.7587 151.896 73.2253C155.085 70.0327 169.19 67.1958 176.18 71.5244C171.827 67.1777 170.187 61.3191 164.18 56.6889" fill="url(#paint97_linear)"/>
<path d="M168.054 53.4761C160.479 58.9646 153.515 64.7587 151.896 73.2253C155.085 70.0327 169.19 67.1958 176.18 71.5244C171.827 67.1777 170.187 61.3191 164.18 56.6889" stroke="black" stroke-width="1.3" stroke-linecap="round" stroke-linejoin="round"/>
<path d="M155.108 71.6189C155.425 74.5582 155.399 78.0449 156.904 79.084C161.03 82.1396 162.277 79.4371 169.566 88.8168C176.719 77.4336 173.751 74.2041 172.212 69.8235" stroke="black" stroke-width="1.2" stroke-linecap="round" stroke-linejoin="round"/>
<path d="M167.912 78.706C169.452 78.706 170.7 77.4579 170.7 75.9184C170.7 74.3789 169.452 73.1308 167.912 73.1308C166.373 73.1308 165.125 74.3789 165.125 75.9184C165.125 77.4579 166.373 78.706 167.912 78.706Z" fill="black"/>
<path d="M182.701 79.5092C184.24 79.5092 185.488 78.2611 185.488 76.7216C185.488 75.1821 184.24 73.934 182.701 73.934C181.161 73.934 179.913 75.1821 179.913 76.7216C179.913 78.2611 181.161 79.5092 182.701 79.5092Z" fill="black"/>
<path d="M178.921 60.7521C184.139 63.402 187.162 68.4918 190.166 73.6033C184.882 70.7808 182.798 71.4776 179.866 71.241L178.921 60.7521Z" fill="url(#paint98_linear)" stroke="black" stroke-width="1.3" stroke-linecap="round" stroke-linejoin="round"/>
<path d="M185.252 71.5244C187.466 74.1007 187.961 77.8641 186.669 81.5408C185.283 85.5139 183.917 85.5888 181.567 87.116C179.264 83.1339 180.378 76.7894 179.866 71.241L185.252 71.5244Z" stroke="black" stroke-width="1.2"/>
<path d="M167.887 85.5791C165.788 82.9378 163.28 81.1587 159.834 79.8668C159.153 79.6115 158.173 79.0542 157.656 78.6283C156.597 77.7555 156.194 76.4756 156.069 73.5873L155.994 71.866L157.597 71.3689C160.47 70.4786 164.28 70.0317 167.62 70.1934C169.31 70.2753 170.947 70.4167 171.256 70.5078C171.67 70.6297 172.022 71.2491 172.592 72.8573C173.946 76.677 173.559 79.6378 171.049 84.663C170.461 85.839 169.841 86.9424 169.669 87.1151C169.431 87.3549 169.01 86.9924 167.887 85.5791V85.5791ZM169.096 78.5306C171.005 77.7327 171.353 75.0883 169.728 73.7211C168.372 72.5796 166.413 72.9082 165.483 74.4333C165.189 74.9147 164.949 75.531 164.948 75.8027C164.946 76.7317 165.786 78.0661 166.637 78.4855C167.694 79.007 167.945 79.0116 169.096 78.5306V78.5306Z" fill="white"/>
<path d="M181.68 85.398C181.209 83.8441 180.774 79.184 181.1 79.184C181.163 79.184 181.542 79.3079 181.94 79.4593C183.525 80.0619 185.527 78.6271 185.527 76.8887C185.527 74.4936 183.487 73.2451 181.184 74.2303C180.776 74.4045 180.716 74.2687 180.716 73.1777V71.9252L182.52 72.1016C185.077 72.3516 185.142 72.3847 185.832 73.782C186.353 74.8376 186.453 75.452 186.447 77.5804C186.443 79.0078 186.297 80.412 186.115 80.7876C184.92 83.2531 183.942 84.727 183.149 85.2578C182.057 85.9886 181.864 86.007 181.68 85.398V85.398Z" fill="white"/>
<defs>
<radialGradient id="paint0_radial" cx="0" cy="0" r="1" gradientUnits="userSpaceOnUse" gradientTransform="translate(119.685 91.504) scale(157.06 147.21)">
<stop stop-color="#FFF68E"/>
<stop offset="1" stop-color="#D6AA4A"/>
</radialGradient>
<linearGradient id="paint1_linear" x1="52.8503" y1="101" x2="24.3564" y2="104.608" gradientUnits="userSpaceOnUse">
<stop stop-color="#FFF68E"/>
<stop offset="1" stop-color="#D6AA4A"/>
</linearGradient>
<linearGradient id="paint2_linear" x1="52.8503" y1="101" x2="24.3564" y2="104.608" gradientUnits="userSpaceOnUse">
<stop stop-color="#FFF68E"/>
<stop offset="1" stop-color="#D6AA4A"/>
</linearGradient>
<linearGradient id="paint3_linear" x1="52.8503" y1="101" x2="24.3564" y2="104.608" gradientUnits="userSpaceOnUse">
<stop stop-color="#FFF68E"/>
<stop offset="1" stop-color="#D6AA4A"/>
</linearGradient>
<linearGradient id="paint4_linear" x1="52.8503" y1="101" x2="24.3564" y2="104.608" gradientUnits="userSpaceOnUse">
<stop stop-color="#FFF68E"/>
<stop offset="1" stop-color="#D6AA4A"/>
</linearGradient>
<linearGradient id="paint5_linear" x1="52.8503" y1="101" x2="24.3564" y2="104.608" gradientUnits="userSpaceOnUse">
<stop stop-color="#FFF68E"/>
<stop offset="1" stop-color="#D6AA4A"/>
</linearGradient>
<linearGradient id="paint6_linear" x1="52.8503" y1="101" x2="24.3564" y2="104.608" gradientUnits="userSpaceOnUse">
<stop stop-color="#FFF68E"/>
<stop offset="1" stop-color="#D6AA4A"/>
</linearGradient>
<linearGradient id="paint7_linear" x1="52.8503" y1="101" x2="24.3564" y2="104.608" gradientUnits="userSpaceOnUse">
<stop stop-color="#FFF68E"/>
<stop offset="1" stop-color="#D6AA4A"/>
</linearGradient>
<linearGradient id="paint8_linear" x1="52.8503" y1="101" x2="24.3564" y2="104.608" gradientUnits="userSpaceOnUse">
<stop stop-color="#FFF68E"/>
<stop offset="1" stop-color="#D6AA4A"/>
</linearGradient>
<radialGradient id="paint9_radial" cx="0" cy="0" r="1" gradientUnits="userSpaceOnUse" gradientTransform="translate(167.602 141.927) scale(9.7452 8.19216)">
<stop stop-color="#FFF68E"/>
<stop offset="1" stop-color="#D6AA4A"/>
</radialGradient>
<radialGradient id="paint10_radial" cx="0" cy="0" r="1" gradientUnits="userSpaceOnUse" gradientTransform="translate(145.676 157.764) scale(8.91996 9.3544)">
<stop stop-color="#FFF68E"/>
<stop offset="1" stop-color="#D6AA4A"/>
</radialGradient>
<radialGradient id="paint11_radial" cx="0" cy="0" r="1" gradientUnits="userSpaceOnUse" gradientTransform="translate(124.776 161.858) scale(8.09093 9.62147)">
<stop stop-color="#FFF68E"/>
<stop offset="1" stop-color="#D6AA4A"/>
</radialGradient>
<radialGradient id="paint12_radial" cx="0" cy="0" r="1" gradientUnits="userSpaceOnUse" gradientTransform="translate(104.86 158.713) scale(8.09155 10.9277)">
<stop stop-color="#FFF68E"/>
<stop offset="1" stop-color="#D6AA4A"/>
</radialGradient>
<radialGradient id="paint13_radial" cx="0" cy="0" r="1" gradientUnits="userSpaceOnUse" gradientTransform="translate(84.3591 151.189) scale(8.5401 11.3625)">
<stop stop-color="#FFF68E"/>
<stop offset="1" stop-color="#D6AA4A"/>
</radialGradient>
<radialGradient id="paint14_radial" cx="0" cy="0" r="1" gradientUnits="userSpaceOnUse" gradientTransform="translate(61.4034 134.187) scale(8.19839 10.8584)">
<stop stop-color="#FFF68E"/>
<stop offset="1" stop-color="#D6AA4A"/>
</radialGradient>
<linearGradient id="paint15_linear" x1="121.926" y1="11.334" x2="121.278" y2="28.0122" gradientUnits="userSpaceOnUse">
<stop stop-color="#D6AA4A"/>
<stop offset="1" stop-color="#FFF68E"/>
</linearGradient>
<linearGradient id="paint16_linear" x1="80.3162" y1="126.529" x2="68.1398" y2="142.738" gradientUnits="userSpaceOnUse">
<stop stop-color="#FFF68E"/>
<stop offset="1" stop-color="#D6AA4A"/>
</linearGradient>
<linearGradient id="paint17_linear" x1="97.5087" y1="134.852" x2="90.3917" y2="157.269" gradientUnits="userSpaceOnUse">
<stop stop-color="#FFF68E"/>
<stop offset="1" stop-color="#D6AA4A"/>
</linearGradient>
<linearGradient id="paint18_linear" x1="117.364" y1="141.417" x2="115.091" y2="159.896" gradientUnits="userSpaceOnUse">
<stop stop-color="#FFF68E"/>
<stop offset="1" stop-color="#D6AA4A"/>
</linearGradient>
<linearGradient id="paint19_linear" x1="133.983" y1="134.996" x2="138.508" y2="164.849" gradientUnits="userSpaceOnUse">
<stop stop-color="#FFF68E"/>
<stop offset="1" stop-color="#D6AA4A"/>
</linearGradient>
<linearGradient id="paint20_linear" x1="146.572" y1="131.33" x2="163.834" y2="152.333" gradientUnits="userSpaceOnUse">
<stop stop-color="#FFF68E"/>
<stop offset="1" stop-color="#D6AA4A"/>
</linearGradient>
<linearGradient id="paint21_linear" x1="169.322" y1="126.668" x2="176.379" y2="132.527" gradientUnits="userSpaceOnUse">
<stop stop-color="#FFF68E"/>
<stop offset="1" stop-color="#D6AA4A"/>
</linearGradient>
<linearGradient id="paint22_linear" x1="64.0889" y1="82.367" x2="41.4628" y2="72.3297" gradientUnits="userSpaceOnUse">
<stop stop-color="#FFF68E"/>
<stop offset="1" stop-color="#D6AA4A"/>
</linearGradient>
<linearGradient id="paint23_linear" x1="43.4322" y1="52.0825" x2="63.7951" y2="65.7714" gradientUnits="userSpaceOnUse">
<stop stop-color="#D6AA4A"/>
<stop offset="1" stop-color="#FFF68E"/>
</linearGradient>
<linearGradient id="paint24_linear" x1="54.8709" y1="41.0916" x2="78.713" y2="60.2739" gradientUnits="userSpaceOnUse">
<stop stop-color="#D6AA4A"/>
<stop offset="1" stop-color="#FFF68E"/>
</linearGradient>
<linearGradient id="paint25_linear" x1="63.8922" y1="33.372" x2="76.1124" y2="44.664" gradientUnits="userSpaceOnUse">
<stop stop-color="#D6AA4A"/>
<stop offset="1" stop-color="#FFF68E"/>
</linearGradient>
<linearGradient id="paint26_linear" x1="78.9516" y1="22.5123" x2="90.9904" y2="49.9629" gradientUnits="userSpaceOnUse">
<stop stop-color="#D6AA4A"/>
<stop offset="1" stop-color="#FFF68E"/>
</linearGradient>
<linearGradient id="paint27_linear" x1="86.679" y1="13.1171" x2="98.8479" y2="34.142" gradientUnits="userSpaceOnUse">
<stop stop-color="#D6AA4A"/>
<stop offset="1" stop-color="#FFF68E"/>
</linearGradient>
<linearGradient id="paint28_linear" x1="106.375" y1="17.0213" x2="111.296" y2="41.7787" gradientUnits="userSpaceOnUse">
<stop stop-color="#D6AA4A"/>
<stop offset="1" stop-color="#FFF68E"/>
</linearGradient>
<linearGradient id="paint29_linear" x1="132.254" y1="41.0919" x2="136.457" y2="22.0041" gradientUnits="userSpaceOnUse">
<stop stop-color="#FFF68E"/>
<stop offset="1" stop-color="#D6AA4A"/>
</linearGradient>
<linearGradient id="paint30_linear" x1="148.85" y1="34.0539" x2="155.565" y2="22.1476" gradientUnits="userSpaceOnUse">
<stop stop-color="#FFF68E"/>
<stop offset="1" stop-color="#D6AA4A"/>
</linearGradient>
<linearGradient id="paint31_linear" x1="151.233" y1="49.7602" x2="161.407" y2="38.5627" gradientUnits="userSpaceOnUse">
<stop stop-color="#FFF68E"/>
<stop offset="1" stop-color="#D6AA4A"/>
</linearGradient>
<linearGradient id="paint32_linear" x1="167.407" y1="53.0385" x2="180.655" y2="42.0299" gradientUnits="userSpaceOnUse">
<stop stop-color="#FFF68E"/>
<stop offset="1" stop-color="#D6AA4A"/>
</linearGradient>
<linearGradient id="paint33_linear" x1="67.0196" y1="114.427" x2="55.7728" y2="120.606" gradientUnits="userSpaceOnUse">
<stop stop-color="#FFF68E"/>
<stop offset="1" stop-color="#D6AA4A"/>
</linearGradient>
<linearGradient id="paint34_linear" x1="55.8815" y1="108.274" x2="48.6652" y2="110.063" gradientUnits="userSpaceOnUse">
<stop stop-color="#FFF68E"/>
<stop offset="1" stop-color="#D6AA4A"/>
</linearGradient>
<linearGradient id="paint35_linear" x1="75.6969" y1="97.3607" x2="60.4887" y2="105.092" gradientUnits="userSpaceOnUse">
<stop stop-color="#FFF68E"/>
<stop offset="1" stop-color="#D6AA4A"/>
</linearGradient>
<linearGradient id="paint36_linear" x1="60.5586" y1="92.859" x2="50.2166" y2="94.0673" gradientUnits="userSpaceOnUse">
<stop stop-color="#FFF68E"/>
<stop offset="1" stop-color="#D6AA4A"/>
</linearGradient>
<linearGradient id="paint37_linear" x1="81.8489" y1="116.256" x2="71.5692" y2="121.454" gradientUnits="userSpaceOnUse">
<stop stop-color="#FFF68E"/>
<stop offset="1" stop-color="#D6AA4A"/>
</linearGradient>
<linearGradient id="paint38_linear" x1="82.098" y1="105.092" x2="74.9745" y2="107.545" gradientUnits="userSpaceOnUse">
<stop stop-color="#FFF68E"/>
<stop offset="1" stop-color="#D6AA4A"/>
</linearGradient>
<linearGradient id="paint39_linear" x1="85.8183" y1="93.8054" x2="80.5064" y2="93.2384" gradientUnits="userSpaceOnUse">
<stop stop-color="#FFF68E"/>
<stop offset="1" stop-color="#D6AA4A"/>
</linearGradient>
<linearGradient id="paint40_linear" x1="90.0384" y1="125.539" x2="84.301" y2="135.947" gradientUnits="userSpaceOnUse">
<stop stop-color="#FFF68E"/>
<stop offset="1" stop-color="#D6AA4A"/>
</linearGradient>
<linearGradient id="paint41_linear" x1="105.409" y1="132.548" x2="103.917" y2="147.289" gradientUnits="userSpaceOnUse">
<stop stop-color="#FFF68E"/>
<stop offset="1" stop-color="#D6AA4A"/>
</linearGradient>
<linearGradient id="paint42_linear" x1="123.196" y1="134.215" x2="123.91" y2="148.101" gradientUnits="userSpaceOnUse">
<stop stop-color="#FFF68E"/>
<stop offset="1" stop-color="#D6AA4A"/>
</linearGradient>
<linearGradient id="paint43_linear" x1="97.4774" y1="123.088" x2="94.9697" y2="130.041" gradientUnits="userSpaceOnUse">
<stop stop-color="#FFF68E"/>
<stop offset="1" stop-color="#D6AA4A"/>
</linearGradient>
<linearGradient id="paint44_linear" x1="111.493" y1="125.653" x2="109.87" y2="132.714" gradientUnits="userSpaceOnUse">
<stop stop-color="#FFF68E"/>
<stop offset="1" stop-color="#D6AA4A"/>
</linearGradient>
<linearGradient id="paint45_linear" x1="124.348" y1="124.21" x2="129.314" y2="135.587" gradientUnits="userSpaceOnUse">
<stop stop-color="#FFF68E"/>
<stop offset="1" stop-color="#D6AA4A"/>
</linearGradient>
<linearGradient id="paint46_linear" x1="117.22" y1="117.212" x2="117.354" y2="123.092" gradientUnits="userSpaceOnUse">
<stop stop-color="#FFF68E"/>
<stop offset="1" stop-color="#D6AA4A"/>
</linearGradient>
<linearGradient id="paint47_linear" x1="110.07" y1="113.537" x2="109.603" y2="117.547" gradientUnits="userSpaceOnUse">
<stop stop-color="#FFF68E"/>
<stop offset="1" stop-color="#D6AA4A"/>
</linearGradient>
<linearGradient id="paint48_linear" x1="122.139" y1="106.161" x2="123.042" y2="111.092" gradientUnits="userSpaceOnUse">
<stop stop-color="#FFF68E"/>
<stop offset="1" stop-color="#D6AA4A"/>
</linearGradient>
<linearGradient id="paint49_linear" x1="132.189" y1="112.966" x2="135.06" y2="121.956" gradientUnits="userSpaceOnUse">
<stop stop-color="#FFF68E"/>
<stop offset="1" stop-color="#D6AA4A"/>
</linearGradient>
<linearGradient id="paint50_linear" x1="135.814" y1="129.189" x2="143.526" y2="143.197" gradientUnits="userSpaceOnUse">
<stop stop-color="#FFF68E"/>
<stop offset="1" stop-color="#D6AA4A"/>
</linearGradient>
<linearGradient id="paint51_linear" x1="142.646" y1="117.915" x2="148.624" y2="128.705" gradientUnits="userSpaceOnUse">
<stop stop-color="#FFF68E"/>
<stop offset="1" stop-color="#D6AA4A"/>
</linearGradient>
<linearGradient id="paint52_linear" x1="153.962" y1="122.227" x2="163.387" y2="130.871" gradientUnits="userSpaceOnUse">
<stop stop-color="#FFF68E"/>
<stop offset="1" stop-color="#D6AA4A"/>
</linearGradient>
<linearGradient id="paint53_linear" x1="143.479" y1="107.457" x2="147.822" y2="114.005" gradientUnits="userSpaceOnUse">
<stop stop-color="#FFF68E"/>
<stop offset="1" stop-color="#D6AA4A"/>
</linearGradient>
<linearGradient id="paint54_linear" x1="135.693" y1="101.261" x2="139.02" y2="107.192" gradientUnits="userSpaceOnUse">
<stop stop-color="#FFF68E"/>
<stop offset="1" stop-color="#D6AA4A"/>
</linearGradient>
<linearGradient id="paint55_linear" x1="148.185" y1="95.1283" x2="161.461" y2="95.5062" gradientUnits="userSpaceOnUse">
<stop stop-color="#FFF68E"/>
<stop offset="1" stop-color="#D6AA4A"/>
</linearGradient>
<linearGradient id="paint56_linear" x1="129.32" y1="94.9742" x2="127.638" y2="100.016" gradientUnits="userSpaceOnUse">
<stop stop-color="#FFF68E"/>
<stop offset="1" stop-color="#D6AA4A"/>
</linearGradient>
<linearGradient id="paint57_linear" x1="143.293" y1="88.5387" x2="145.988" y2="87.0268" gradientUnits="userSpaceOnUse">
<stop stop-color="#FFF68E"/>
<stop offset="1" stop-color="#D6AA4A"/>
</linearGradient>
<linearGradient id="paint58_linear" x1="132.535" y1="88.8032" x2="133.51" y2="86.5982" gradientUnits="userSpaceOnUse">
<stop stop-color="#D6AA4A"/>
<stop offset="1" stop-color="#FFF68E"/>
</linearGradient>
<linearGradient id="paint59_linear" x1="115.666" y1="95.7302" x2="117.088" y2="95.1957" gradientUnits="userSpaceOnUse">
<stop stop-color="#D6AA4A"/>
<stop offset="1" stop-color="#FFF68E"/>
</linearGradient>
<linearGradient id="paint60_linear" x1="104.82" y1="94.6271" x2="107.694" y2="94.7074" gradientUnits="userSpaceOnUse">
<stop stop-color="#D6AA4A"/>
<stop offset="1" stop-color="#FFF68E"/>
</linearGradient>
<linearGradient id="paint61_linear" x1="94.2339" y1="91.9423" x2="96.6062" y2="91.6459" gradientUnits="userSpaceOnUse">
<stop stop-color="#D6AA4A"/>
<stop offset="1" stop-color="#FFF68E"/>
</linearGradient>
<linearGradient id="paint62_linear" x1="96.7533" y1="75.626" x2="99.8894" y2="77.4214" gradientUnits="userSpaceOnUse">
<stop stop-color="#D6AA4A"/>
<stop offset="1" stop-color="#FFF68E"/>
</linearGradient>
<linearGradient id="paint63_linear" x1="112.075" y1="73.1798" x2="114.892" y2="78.3671" gradientUnits="userSpaceOnUse">
<stop stop-color="#D6AA4A"/>
<stop offset="1" stop-color="#FFF68E"/>
</linearGradient>
<linearGradient id="paint64_linear" x1="128.804" y1="75.2134" x2="129.908" y2="77.4427" gradientUnits="userSpaceOnUse">
<stop stop-color="#D6AA4A"/>
<stop offset="1" stop-color="#FFF68E"/>
</linearGradient>
<linearGradient id="paint65_linear" x1="139.613" y1="75.375" x2="141.171" y2="72.2223" gradientUnits="userSpaceOnUse">
<stop stop-color="#FFF68E"/>
<stop offset="1" stop-color="#D6AA4A"/>
</linearGradient>
<linearGradient id="paint66_linear" x1="137.05" y1="52.5839" x2="144.137" y2="41.3864" gradientUnits="userSpaceOnUse">
<stop stop-color="#FFF68E"/>
<stop offset="1" stop-color="#D6AA4A"/>
</linearGradient>
<linearGradient id="paint67_linear" x1="119.542" y1="34.6751" x2="119.856" y2="48.2822" gradientUnits="userSpaceOnUse">
<stop stop-color="#D6AA4A"/>
<stop offset="1" stop-color="#FFF68E"/>
</linearGradient>
<linearGradient id="paint68_linear" x1="97.3882" y1="38.5922" x2="103.525" y2="50.9709" gradientUnits="userSpaceOnUse">
<stop stop-color="#D6AA4A"/>
<stop offset="1" stop-color="#FFF68E"/>
</linearGradient>
<linearGradient id="paint69_linear" x1="110.996" y1="49.4789" x2="111.089" y2="56.8967" gradientUnits="userSpaceOnUse">
<stop stop-color="#D6AA4A"/>
<stop offset="1" stop-color="#FFF68E"/>
</linearGradient>
<linearGradient id="paint70_linear" x1="95.1582" y1="55.0882" x2="99.3285" y2="61.75" gradientUnits="userSpaceOnUse">
<stop stop-color="#D6AA4A"/>
<stop offset="1" stop-color="#FFF68E"/>
</linearGradient>
<linearGradient id="paint71_linear" x1="129.337" y1="48.6572" x2="128.332" y2="54.7993" gradientUnits="userSpaceOnUse">
<stop stop-color="#D6AA4A"/>
<stop offset="1" stop-color="#FFF68E"/>
</linearGradient>
<linearGradient id="paint72_linear" x1="142.851" y1="63.0112" x2="147.264" y2="58.0503" gradientUnits="userSpaceOnUse">
<stop stop-color="#FFF68E"/>
<stop offset="1" stop-color="#D6AA4A"/>
</linearGradient>
<linearGradient id="paint73_linear" x1="104.722" y1="60.4832" x2="108.018" y2="66.3303" gradientUnits="userSpaceOnUse">
<stop stop-color="#D6AA4A"/>
<stop offset="1" stop-color="#FFF68E"/>
</linearGradient>
<linearGradient id="paint74_linear" x1="115.62" y1="69.2921" x2="116.725" y2="63.0994" gradientUnits="userSpaceOnUse">
<stop stop-color="#FFF68E"/>
<stop offset="1" stop-color="#D6AA4A"/>
</linearGradient>
<linearGradient id="paint75_linear" x1="129.232" y1="67.1681" x2="131.437" y2="60.0218" gradientUnits="userSpaceOnUse">
<stop stop-color="#FFF68E"/>
<stop offset="1" stop-color="#D6AA4A"/>
</linearGradient>
<linearGradient id="paint76_linear" x1="153.701" y1="104.831" x2="156.359" y2="105.9" gradientUnits="userSpaceOnUse">
<stop stop-color="#FFF68E"/>
<stop offset="1" stop-color="#D6AA4A"/>
</linearGradient>
<linearGradient id="paint77_linear" x1="123.501" y1="86.1425" x2="125.707" y2="86.1425" gradientUnits="userSpaceOnUse">
<stop stop-color="#D6AA4A"/>
<stop offset="1" stop-color="#FFF68E"/>
</linearGradient>
<linearGradient id="paint78_linear" x1="112.346" y1="85.875" x2="115.133" y2="85.875" gradientUnits="userSpaceOnUse">
<stop stop-color="#D6AA4A"/>
<stop offset="1" stop-color="#FFF68E"/>
</linearGradient>
<linearGradient id="paint79_linear" x1="102.227" y1="84.3721" x2="105.445" y2="84.3721" gradientUnits="userSpaceOnUse">
<stop stop-color="#D6AA4A"/>
<stop offset="1" stop-color="#FFF68E"/>
</linearGradient>
<linearGradient id="paint80_linear" x1="92.1246" y1="100.219" x2="89.3966" y2="100.574" gradientUnits="userSpaceOnUse">
<stop stop-color="#FFF68E"/>
<stop offset="1" stop-color="#D6AA4A"/>
</linearGradient>
<linearGradient id="paint81_linear" x1="78.0834" y1="48.0364" x2="89.1036" y2="60.7931" gradientUnits="userSpaceOnUse">
<stop stop-color="#D6AA4A"/>
<stop offset="1" stop-color="#FFF68E"/>
</linearGradient>
<linearGradient id="paint82_linear" x1="60.9293" y1="66.1148" x2="78.2913" y2="76.3202" gradientUnits="userSpaceOnUse">
<stop stop-color="#D6AA4A"/>
<stop offset="1" stop-color="#FFF68E"/>
</linearGradient>
<linearGradient id="paint83_linear" x1="80.2577" y1="64.5464" x2="86.9618" y2="71.1137" gradientUnits="userSpaceOnUse">
<stop stop-color="#D6AA4A"/>
<stop offset="1" stop-color="#FFF68E"/>
</linearGradient>
<linearGradient id="paint84_linear" x1="67.0315" y1="84.3394" x2="58.5398" y2="84.0129" gradientUnits="userSpaceOnUse">
<stop stop-color="#FFF68E"/>
<stop offset="1" stop-color="#D6AA4A"/>
</linearGradient>
<linearGradient id="paint85_linear" x1="78.7746" y1="84.8861" x2="71.3656" y2="83.4931" gradientUnits="userSpaceOnUse">
<stop stop-color="#FFF68E"/>
<stop offset="1" stop-color="#D6AA4A"/>
</linearGradient>
<linearGradient id="paint86_linear" x1="82.6192" y1="77.6598" x2="87.6237" y2="78.7938" gradientUnits="userSpaceOnUse">
<stop stop-color="#D6AA4A"/>
<stop offset="1" stop-color="#FFF68E"/>
</linearGradient>
<linearGradient id="paint87_linear" x1="107.149" y1="107.15" x2="88.7477" y2="117.913" gradientUnits="userSpaceOnUse">
<stop stop-color="#FFF68E"/>
<stop offset="1" stop-color="#D6AA4A"/>
</linearGradient>
<linearGradient id="paint88_linear" x1="101.536" y1="105.546" x2="89.8168" y2="120.051" gradientUnits="userSpaceOnUse">
<stop stop-color="#FFF68E"/>
<stop offset="1" stop-color="#D6AA4A"/>
</linearGradient>
<linearGradient id="paint89_linear" x1="101.536" y1="105.546" x2="89.8168" y2="120.051" gradientUnits="userSpaceOnUse">
<stop stop-color="#FFF68E"/>
<stop offset="1" stop-color="#D6AA4A"/>
</linearGradient>
<linearGradient id="paint90_linear" x1="101.536" y1="105.546" x2="89.8168" y2="120.051" gradientUnits="userSpaceOnUse">
<stop stop-color="#FFF68E"/>
<stop offset="1" stop-color="#D6AA4A"/>
</linearGradient>
<linearGradient id="paint91_linear" x1="101.536" y1="105.546" x2="89.8168" y2="120.051" gradientUnits="userSpaceOnUse">
<stop stop-color="#FFF68E"/>
<stop offset="1" stop-color="#D6AA4A"/>
</linearGradient>
<linearGradient id="paint92_linear" x1="101.536" y1="105.546" x2="89.8168" y2="120.051" gradientUnits="userSpaceOnUse">
<stop stop-color="#FFF68E"/>
<stop offset="1" stop-color="#D6AA4A"/>
</linearGradient>
<linearGradient id="paint93_linear" x1="199.007" y1="104.722" x2="204.003" y2="116.062" gradientUnits="userSpaceOnUse">
<stop stop-color="#FFF68E"/>
<stop offset="1" stop-color="#D6AA4A"/>
</linearGradient>
<linearGradient id="paint94_linear" x1="199.007" y1="104.722" x2="204.003" y2="116.062" gradientUnits="userSpaceOnUse">
<stop stop-color="#FFF68E"/>
<stop offset="1" stop-color="#D6AA4A"/>
</linearGradient>
<linearGradient id="paint95_linear" x1="199.007" y1="104.722" x2="204.003" y2="116.062" gradientUnits="userSpaceOnUse">
<stop stop-color="#FFF68E"/>
<stop offset="1" stop-color="#D6AA4A"/>
</linearGradient>
<linearGradient id="paint96_linear" x1="199.007" y1="104.722" x2="204.003" y2="116.062" gradientUnits="userSpaceOnUse">
<stop stop-color="#FFF68E"/>
<stop offset="1" stop-color="#D6AA4A"/>
</linearGradient>
<linearGradient id="paint97_linear" x1="163.445" y1="63.9051" x2="164.335" y2="71.0987" gradientUnits="userSpaceOnUse">
<stop stop-color="#FFF68E"/>
<stop offset="1" stop-color="#D6AA4A"/>
</linearGradient>
<linearGradient id="paint98_linear" x1="181.211" y1="64.3045" x2="189.947" y2="69.3158" gradientUnits="userSpaceOnUse">
<stop stop-color="#FFF68E"/>
<stop offset="1" stop-color="#D6AA4A"/>
</linearGradient>
</defs>
</svg>
