<?xml version="1.0" encoding="UTF-8" standalone="no"?>
<!DOCTYPE svg PUBLIC "-//W3C//DTD SVG 1.1//EN" "http://www.w3.org/Graphics/SVG/1.1/DTD/svg11.dtd">
<svg width="100%" height="100%" viewBox="0 0 200 200" version="1.1" xmlns="http://www.w3.org/2000/svg" xmlns:xlink="http://www.w3.org/1999/xlink" xml:space="preserve" xmlns:serif="http://www.serif.com/" style="fill-rule:evenodd;clip-rule:evenodd;stroke-linejoin:round;stroke-miterlimit:2;">
    <rect x="-4" y="-5" width="207" height="209" style="fill:white;"/>
    <g transform="matrix(0.348997,0,0,0.348997,100.105,100.262)">
        <g transform="matrix(1,0,0,1,-280.9,-100)">
            <g>
                <g>
                    <path d="M215.4,44.8L215.4,155.2C215.4,157.2 216.2,159.2 217.7,160.8C216.2,159.3 214.2,158.5 212.1,158.5L64.8,158.5C62.8,158.5 60.8,159.3 59.3,160.8C60.8,159.3 61.6,157.2 61.6,155.2L61.6,44.8C61.6,42.8 60.8,40.8 59.3,39.2C60.8,40.7 62.8,41.5 64.8,41.5L212.1,41.5C214.1,41.5 216.1,40.7 217.7,39.2C216.2,40.8 215.4,42.8 215.4,44.8M276.9,142.4L276.9,57.6C276.9,25.8 251.1,0 219.3,0L57.6,0C25.8,0 0,25.8 0,57.6L0,142.4C0,174.2 25.8,200 57.6,200L219.3,200C251.1,200 276.9,174.2 276.9,142.4" style="fill:rgb(40,75,115);fill-rule:nonzero;"/>
                    <path d="M415.4,135C415.4,137.3 414.4,139.4 412.9,140.8L358.5,195.2C355.6,198.2 351.6,200 347.1,200L269,200L370.7,98.3C372.2,96.9 374.1,96 376.3,96C374.1,96 372.1,95.1 370.7,93.7L277,0L361.7,0L412.9,51.2C414.5,52.7 415.4,54.7 415.4,57C415.4,54.7 416.4,52.6 417.9,51.2L469.1,0L553.8,0L460,93.7C458.5,95.1 456.6,96 454.4,96C456.6,96 458.6,96.9 460,98.3L561.8,200L483.7,200C479.2,200 475.2,198.1 472.3,195.2L417.9,140.8C416.3,139.4 415.4,137.3 415.4,135" style="fill:rgb(40,75,115);fill-rule:nonzero;"/>
                </g>
            </g>
        </g>
    </g>
</svg>
