<svg width="153" height="153" viewBox="0 0 153 153" fill="none" xmlns="http://www.w3.org/2000/svg">
<path d="M36.1011 121.147C36.1011 123.911 33.8601 126.156 31.1001 126.156C28.3431 126.156 26.1011 123.911 26.1011 121.147C26.1011 118.392 28.3431 116.156 31.1001 116.156C33.8591 116.155 36.1011 118.392 36.1011 121.147Z" fill="#00B2E3"/>
<path d="M66.0659 109.505C66.0659 112.268 63.8279 114.511 61.0649 114.511C58.3089 114.511 56.0679 112.268 56.0679 109.505C56.0679 106.747 58.3089 104.512 61.0649 104.512C63.8279 104.512 66.0659 106.747 66.0659 109.505Z" fill="#00B2E3"/>
<path d="M116.103 104.004C116.103 106.767 113.864 109.011 111.102 109.011C108.346 109.011 106.104 106.767 106.104 104.004C106.104 101.247 108.346 99.0117 111.102 99.0117C113.863 99.0117 116.103 101.247 116.103 104.004Z" fill="#00B2E3"/>
<path d="M135.673 126.065C135.673 128.83 133.435 131.072 130.671 131.072C127.914 131.072 125.674 128.83 125.674 126.065C125.674 123.31 127.914 121.074 130.671 121.074C133.435 121.074 135.673 123.311 135.673 126.065Z" fill="#00B2E3"/>
<path d="M98.604 72.4451C98.604 75.2081 96.364 77.4511 93.601 77.4511C90.843 77.4511 88.604 75.2081 88.604 72.4451C88.604 69.6871 90.843 67.4531 93.601 67.4531C96.363 67.4531 98.604 69.6871 98.604 72.4451Z" fill="#00B2E3"/>
<path d="M98.604 42.8074C98.604 45.5714 96.364 47.8144 93.601 47.8144C90.843 47.8144 88.604 45.5714 88.604 42.8074C88.604 40.0514 90.843 37.8164 93.601 37.8164C96.363 37.8154 98.604 40.0514 98.604 42.8074Z" fill="#00B2E3"/>
<path d="M128.506 31.1893C128.506 33.9523 126.265 36.1953 123.504 36.1953C120.746 36.1953 118.507 33.9523 118.507 31.1893C118.507 28.4313 120.746 26.1953 123.504 26.1953C126.265 26.1953 128.506 28.4323 128.506 31.1893Z" fill="#00B2E3"/>
<path d="M28.9331 26.2703C28.9331 29.0343 26.6921 31.2783 23.9311 31.2783C21.1751 31.2783 18.9351 29.0343 18.9351 26.2703C18.9351 23.5133 21.1751 21.2773 23.9311 21.2773C26.6911 21.2763 28.9331 23.5133 28.9331 26.2703Z" fill="#00B2E3"/>
<path d="M48.502 48.3299C48.502 51.0929 46.262 53.3359 43.5 53.3359C40.743 53.3359 38.502 51.0929 38.502 48.3299C38.502 45.5719 40.743 43.3359 43.5 43.3359C46.262 43.3359 48.502 45.5719 48.502 48.3299Z" fill="#00B2E3"/>
<path d="M66.7451 79.8865C66.7451 82.6495 64.5051 84.8925 61.7431 84.8925C58.9851 84.8925 56.7451 82.6495 56.7451 79.8865C56.7451 77.1285 58.9851 74.8945 61.7431 74.8945C64.5051 74.8945 66.7451 77.1285 66.7451 79.8865Z" fill="#00B2E3"/>
<path d="M83.436 55.1229C83.436 57.8869 81.198 60.1299 78.435 60.1299C75.677 60.1299 73.437 57.8869 73.437 55.1229C73.437 52.3659 75.677 50.1289 78.435 50.1289C81.197 50.1289 83.436 52.3659 83.436 55.1229Z" fill="#00B2E3"/>
<path d="M104.319 140.711C104.319 141.438 103.73 142.025 103 142.025C102.284 142.025 101.688 141.437 101.688 140.711C101.688 139.985 102.284 139.395 103 139.395C103.73 139.395 104.319 139.984 104.319 140.711Z" fill="#00B2E3"/>
<path d="M146.987 137.715C146.987 138.442 146.397 139.029 145.667 139.029C144.949 139.029 144.355 138.441 144.355 137.715C144.355 136.986 144.95 136.398 145.667 136.398C146.397 136.397 146.987 136.986 146.987 137.715Z" fill="#00B2E3"/>
<path d="M122.217 126.735C122.217 127.461 121.625 128.05 120.898 128.05C120.181 128.05 119.585 127.46 119.585 126.735C119.585 126.007 120.182 125.418 120.898 125.418C121.625 125.418 122.217 126.008 122.217 126.735Z" fill="#00B2E3"/>
<path d="M117.605 114.685C117.605 115.413 117.015 116.001 116.285 116.001C115.57 116.001 114.975 115.412 114.975 114.685C114.975 113.959 115.57 113.371 116.285 113.371C117.016 113.37 117.605 113.959 117.605 114.685Z" fill="#00B2E3"/>
<path d="M126.199 103.465C126.199 104.192 125.608 104.779 124.881 104.779C124.163 104.779 123.569 104.191 123.569 103.465C123.569 102.739 124.164 102.148 124.881 102.148C125.608 102.147 126.199 102.738 126.199 103.465Z" fill="#00B2E3"/>
<path d="M103.612 105.904C103.612 106.633 103.021 107.22 102.292 107.22C101.575 107.22 100.981 106.632 100.981 105.904C100.981 105.178 101.575 104.59 102.292 104.59C103.021 104.59 103.612 105.179 103.612 105.904Z" fill="#00B2E3"/>
<path d="M98.7609 103.314C98.7609 104.041 98.1709 104.628 97.4429 104.628C96.7249 104.628 96.1309 104.04 96.1309 103.314C96.1309 102.585 96.7259 101.996 97.4429 101.996C98.1709 101.996 98.7609 102.586 98.7609 103.314Z" fill="#00B2E3"/>
<path d="M104.778 95.3551C104.778 96.0821 104.188 96.6701 103.458 96.6701C102.742 96.6701 102.147 96.0811 102.147 95.3551C102.147 94.6271 102.742 94.0391 103.458 94.0391C104.188 94.0391 104.778 94.6281 104.778 95.3551Z" fill="#00B2E3"/>
<path d="M93.4382 95.2173C93.4382 95.9453 92.8491 96.5313 92.1181 96.5313C91.4011 96.5313 90.8062 95.9443 90.8062 95.2173C90.8062 94.4903 91.4011 93.9023 92.1181 93.9023C92.8501 93.9013 93.4382 94.4903 93.4382 95.2173Z" fill="#00B2E3"/>
<path d="M93.4699 90.3209C93.4699 91.0469 92.8779 91.6349 92.1509 91.6349C91.4339 91.6349 90.8389 91.0459 90.8389 90.3209C90.8389 89.5939 91.4339 89.0039 92.1509 89.0039C92.8779 89.0039 93.4699 89.5949 93.4699 90.3209Z" fill="#00B2E3"/>
<path d="M91.6608 99.4556C91.6608 100.184 91.0698 100.772 90.3408 100.772C89.6248 100.772 89.0298 100.183 89.0298 99.4556C89.0298 98.7286 89.6248 98.1406 90.3408 98.1406C91.0698 98.1406 91.6608 98.7296 91.6608 99.4556Z" fill="#00B2E3"/>
<path d="M95.5802 112.386C95.5802 113.114 94.9892 113.7 94.2602 113.7C93.5442 113.7 92.9492 113.113 92.9492 112.386C92.9492 111.659 93.5442 111.07 94.2602 111.07C94.9892 111.069 95.5802 111.659 95.5802 112.386Z" fill="#00B2E3"/>
<path d="M90.7419 114.281C90.7419 115.009 90.1528 115.596 89.4218 115.596C88.7068 115.596 88.1108 115.008 88.1108 114.281C88.1108 113.554 88.7068 112.965 89.4218 112.965C90.1528 112.965 90.7419 113.554 90.7419 114.281Z" fill="#00B2E3"/>
<path d="M92.2638 130.446C92.2638 131.172 91.6728 131.76 90.9438 131.76C90.2278 131.76 89.6318 131.171 89.6318 130.446C89.6318 129.717 90.2288 129.129 90.9438 129.129C91.6728 129.129 92.2638 129.717 92.2638 130.446Z" fill="#00B2E3"/>
<path d="M50.2291 121.919C50.2291 122.646 49.6391 123.233 48.9101 123.233C48.1931 123.233 47.5981 122.645 47.5981 121.919C47.5981 121.193 48.1931 120.602 48.9101 120.602C49.6391 120.602 50.2291 121.192 50.2291 121.919Z" fill="#00B2E3"/>
<path d="M49.3048 111.101C49.3048 111.828 48.7138 112.416 47.9848 112.416C47.2678 112.416 46.6729 111.827 46.6729 111.101C46.6729 110.373 47.2678 109.785 47.9848 109.785C48.7138 109.784 49.3048 110.373 49.3048 111.101Z" fill="#00B2E3"/>
<path d="M30.3942 107.516C30.3942 108.242 29.8032 108.83 29.0742 108.83C28.3572 108.83 27.7622 108.241 27.7622 107.516C27.7622 106.788 28.3572 106.199 29.0742 106.199C29.8032 106.198 30.3942 106.788 30.3942 107.516Z" fill="#00B2E3"/>
<path d="M16.7428 126.486C16.7428 127.213 16.1519 127.802 15.4229 127.802C14.7059 127.802 14.1108 127.212 14.1108 126.486C14.1108 125.76 14.7059 125.172 15.4229 125.172C16.1519 125.172 16.7428 125.761 16.7428 126.486Z" fill="#00B2E3"/>
<path d="M17.7198 133.708C17.7198 134.437 17.1298 135.023 16.4018 135.023C15.6848 135.023 15.0898 134.436 15.0898 133.708C15.0898 132.98 15.6848 132.391 16.4018 132.391C17.1298 132.391 17.7198 132.98 17.7198 133.708Z" fill="#00B2E3"/>
<path d="M30.091 139.144C30.091 139.872 29.5 140.458 28.77 140.458C28.053 140.458 27.458 139.871 27.458 139.144C27.458 138.415 28.053 137.828 28.77 137.828C29.5 137.828 30.091 138.416 30.091 139.144Z" fill="#00B2E3"/>
<path d="M53.0168 141.533C53.0168 142.262 52.4268 142.851 51.6968 142.851C50.9808 142.851 50.3848 142.262 50.3848 141.533C50.3848 140.807 50.9808 140.219 51.6968 140.219C52.4268 140.219 53.0168 140.808 53.0168 141.533Z" fill="#00B2E3"/>
<path d="M64.4079 96.3287C64.4079 97.0547 63.8169 97.6417 63.0869 97.6417C62.3699 97.6417 61.7749 97.0537 61.7749 96.3287C61.7749 95.6007 62.3699 95.0117 63.0869 95.0117C63.8169 95.0117 64.4079 95.6017 64.4079 96.3287Z" fill="#00B2E3"/>
<path d="M50.7452 83.0377C50.7452 83.7647 50.1542 84.3517 49.4252 84.3517C48.7082 84.3517 48.1152 83.7637 48.1152 83.0377C48.1152 82.3117 48.7082 81.7227 49.4252 81.7227C50.1542 81.7227 50.7452 82.3107 50.7452 83.0377Z" fill="#00B2E3"/>
<path d="M71.9132 76.9176C71.9132 77.6446 71.3222 78.2316 70.5932 78.2316C69.8762 78.2316 69.2812 77.6436 69.2812 76.9176C69.2812 76.1896 69.8772 75.6016 70.5932 75.6016C71.3222 75.6016 71.9132 76.1896 71.9132 76.9176Z" fill="#00B2E3"/>
<path d="M86.1129 74.5074C86.1129 75.2344 85.5229 75.8224 84.7939 75.8224C84.0779 75.8224 83.4819 75.2334 83.4819 74.5074C83.4819 73.7794 84.0779 73.1914 84.7939 73.1914C85.5229 73.1904 86.1129 73.7794 86.1129 74.5074Z" fill="#00B2E3"/>
<path d="M103.458 77.8433C103.458 78.5703 102.868 79.1573 102.139 79.1573C101.422 79.1573 100.827 78.5693 100.827 77.8433C100.827 77.1173 101.423 76.5273 102.139 76.5273C102.868 76.5263 103.458 77.1163 103.458 77.8433Z" fill="#00B2E3"/>
<path d="M106.493 69.3072C106.493 70.0352 105.901 70.6232 105.172 70.6232C104.457 70.6232 103.861 70.0342 103.861 69.3072C103.861 68.5802 104.457 67.9922 105.172 67.9922C105.901 67.9912 106.493 68.5802 106.493 69.3072Z" fill="#00B2E3"/>
<path d="M92.8302 56.0201C92.8302 56.7471 92.2392 57.3351 91.5102 57.3351C90.7922 57.3351 90.1982 56.7461 90.1982 56.0201C90.1982 55.2921 90.7932 54.7031 91.5102 54.7031C92.2392 54.7031 92.8302 55.2931 92.8302 56.0201Z" fill="#00B2E3"/>
<path d="M81.8122 47.7613C81.8122 48.4883 81.2202 49.0773 80.4902 49.0773C79.7762 49.0773 79.1792 48.4873 79.1792 47.7613C79.1792 47.0353 79.7762 46.4453 80.4902 46.4453C81.2202 46.4443 81.8122 47.0343 81.8122 47.7613Z" fill="#00B2E3"/>
<path d="M63.7692 62.0279C63.7692 62.7549 63.1792 63.3429 62.4502 63.3429C61.7332 63.3429 61.1382 62.7539 61.1382 62.0279C61.1382 61.2999 61.7332 60.7109 62.4502 60.7109C63.1792 60.7109 63.7692 61.3009 63.7692 62.0279Z" fill="#00B2E3"/>
<path d="M63.8 57.1353C63.8 57.8633 63.209 58.4493 62.48 58.4493C61.763 58.4493 61.168 57.8623 61.168 57.1353C61.168 56.4083 61.763 55.8203 62.48 55.8203C63.209 55.8193 63.8 56.4083 63.8 57.1353Z" fill="#00B2E3"/>
<path d="M65.5739 52.8892C65.5739 53.6172 64.9819 54.2032 64.2539 54.2032C63.5369 54.2032 62.9429 53.6162 62.9429 52.8892C62.9429 52.1622 63.5369 51.5742 64.2539 51.5742C64.9819 51.5732 65.5739 52.1612 65.5739 52.8892Z" fill="#00B2E3"/>
<path d="M52.4601 56.9957C52.4601 57.7227 51.8701 58.3097 51.1411 58.3097C50.4241 58.3097 49.8291 57.7217 49.8291 56.9957C49.8291 56.2677 50.4241 55.6797 51.1411 55.6797C51.8701 55.6797 52.4601 56.2687 52.4601 56.9957Z" fill="#00B2E3"/>
<path d="M58.4791 49.0377C58.4791 49.7657 57.8891 50.3527 57.1601 50.3527C56.4431 50.3527 55.8481 49.7647 55.8481 49.0377C55.8481 48.3117 56.4431 47.7227 57.1601 47.7227C57.8891 47.7227 58.4791 48.3127 58.4791 49.0377Z" fill="#00B2E3"/>
<path d="M53.632 46.4439C53.632 47.1719 53.043 47.7589 52.313 47.7589C51.597 47.7589 51.001 47.1709 51.001 46.4439C51.001 45.7169 51.597 45.1289 52.313 45.1289C53.043 45.1289 53.632 45.7169 53.632 46.4439Z" fill="#00B2E3"/>
<path d="M31.0348 48.8853C31.0348 49.6133 30.4448 50.2003 29.7138 50.2003C28.9978 50.2003 28.4028 49.6123 28.4028 48.8853C28.4028 48.1583 28.9978 47.5703 29.7138 47.5703C30.4448 47.5693 31.0348 48.1573 31.0348 48.8853Z" fill="#00B2E3"/>
<path d="M39.63 37.6627C39.63 38.3897 39.04 38.9777 38.311 38.9777C37.594 38.9777 36.999 38.3887 36.999 37.6627C36.999 36.9347 37.595 36.3477 38.311 36.3477C39.04 36.3477 39.63 36.9357 39.63 37.6627Z" fill="#00B2E3"/>
<path d="M61.6559 39.9595C61.6559 40.6875 61.0659 41.2735 60.3359 41.2735C59.6189 41.2735 59.0249 40.6865 59.0249 39.9595C59.0249 39.2325 59.6189 38.6445 60.3359 38.6445C61.0659 38.6445 61.6559 39.2315 61.6559 39.9595Z" fill="#00B2E3"/>
<path d="M66.4279 38.066C66.4279 38.793 65.8369 39.381 65.1089 39.381C64.3909 39.381 63.7969 38.792 63.7969 38.066C63.7969 37.338 64.3919 36.75 65.1089 36.75C65.8369 36.75 66.4279 37.339 66.4279 38.066Z" fill="#00B2E3"/>
<path d="M64.9059 21.9107C64.9059 22.6387 64.3139 23.2247 63.5859 23.2247C62.8689 23.2247 62.2749 22.6377 62.2749 21.9107C62.2749 21.1837 62.8689 20.5938 63.5859 20.5938C64.3139 20.5937 64.9059 21.1837 64.9059 21.9107Z" fill="#00B2E3"/>
<path d="M107.011 30.4332C107.011 31.1602 106.421 31.7472 105.692 31.7472C104.974 31.7472 104.38 31.1592 104.38 30.4332C104.38 29.7052 104.974 29.1172 105.692 29.1172C106.421 29.1162 107.011 29.7052 107.011 30.4332Z" fill="#00B2E3"/>
<path d="M107.936 41.2467C107.936 41.9747 107.345 42.5607 106.616 42.5607C105.899 42.5607 105.306 41.9737 105.306 41.2467C105.306 40.5197 105.899 39.9297 106.616 39.9297C107.345 39.9297 107.936 40.5197 107.936 41.2467Z" fill="#00B2E3"/>
<path d="M126.845 44.8336C126.845 45.5606 126.256 46.1476 125.526 46.1476C124.809 46.1476 124.215 45.5596 124.215 44.8336C124.215 44.1056 124.809 43.5156 125.526 43.5156C126.256 43.5156 126.845 44.1056 126.845 44.8336Z" fill="#00B2E3"/>
<path d="M140.494 25.8629C140.494 26.5909 139.903 27.1769 139.174 27.1769C138.457 27.1769 137.863 26.5899 137.863 25.8629C137.863 25.1359 138.457 24.5469 139.174 24.5469C139.903 24.5469 140.494 25.1359 140.494 25.8629Z" fill="#00B2E3"/>
<path d="M139.518 18.6441C139.518 19.3721 138.928 19.9581 138.198 19.9581C137.482 19.9581 136.888 19.3711 136.888 18.6441C136.888 17.9171 137.482 17.3281 138.198 17.3281C138.928 17.3281 139.518 17.9171 139.518 18.6441Z" fill="#00B2E3"/>
<path d="M127.146 13.2056C127.146 13.9336 126.554 14.5206 125.826 14.5206C125.109 14.5206 124.514 13.9326 124.514 13.2056C124.514 12.4786 125.11 11.8906 125.826 11.8906C126.555 11.8906 127.146 12.4786 127.146 13.2056Z" fill="#00B2E3"/>
<path d="M104.221 10.8111C104.221 11.5391 103.629 12.1251 102.901 12.1251C102.183 12.1251 101.589 11.5381 101.589 10.8111C101.589 10.0841 102.183 9.49609 102.901 9.49609C103.629 9.49609 104.221 10.0841 104.221 10.8111Z" fill="#00B2E3"/>
<path d="M52.9182 11.6392C52.9182 12.3662 52.3272 12.9542 51.5972 12.9542C50.8812 12.9542 50.2852 12.3652 50.2852 11.6392C50.2852 10.9112 50.8812 10.3242 51.5972 10.3242C52.3272 10.3232 52.9182 10.9112 52.9182 11.6392Z" fill="#00B2E3"/>
<path d="M35.0221 25.6207C35.0221 26.3477 34.4321 26.9347 33.7031 26.9347C32.9861 26.9347 32.3911 26.3467 32.3911 25.6207C32.3911 24.8927 32.9871 24.3047 33.7031 24.3047C34.4331 24.3047 35.0221 24.8937 35.0221 25.6207Z" fill="#00B2E3"/>
<path d="M10.2521 14.6402C10.2521 15.3672 9.66114 15.9542 8.93114 15.9542C8.21514 15.9542 7.61914 15.3662 7.61914 14.6402C7.61914 13.9112 8.21514 13.3242 8.93114 13.3242C9.66114 13.3232 10.2521 13.9112 10.2521 14.6402Z" fill="#00B2E3"/>
<path d="M19.3691 113.463C19.3691 112.155 20.4291 111.098 21.7461 111.098C23.0481 111.098 24.1061 112.156 24.1061 113.463C24.1061 114.775 23.0471 115.834 21.7461 115.834C20.4291 115.834 19.3691 114.775 19.3691 113.463Z" fill="#00B2E3"/>
<path d="M29.48 101.468C29.48 100.158 30.539 99.1016 31.858 99.1016C33.159 99.1016 34.216 100.159 34.216 101.468C34.216 102.78 33.158 103.837 31.858 103.837C30.539 103.837 29.48 102.779 29.48 101.468Z" fill="#00B2E3"/>
<path d="M38.8628 109.498C38.8628 108.19 39.9228 107.133 41.2408 107.133C42.5418 107.133 43.5998 108.191 43.5998 109.498C43.5998 110.81 42.5408 111.869 41.2408 111.869C39.9228 111.869 38.8628 110.81 38.8628 109.498Z" fill="#00B2E3"/>
<path d="M22.2822 130.772C22.2822 129.465 23.3422 128.406 24.6602 128.406C25.9622 128.406 27.0202 129.466 27.0202 130.772C27.0202 132.084 25.9612 133.142 24.6602 133.142C23.3422 133.143 22.2822 132.084 22.2822 130.772Z" fill="#00B2E3"/>
<path d="M63.8608 101.468C63.8608 100.158 64.9199 99.1016 66.2379 99.1016C67.5409 99.1016 68.5979 100.159 68.5979 101.468C68.5979 102.78 67.5399 103.837 66.2379 103.837C64.9199 103.837 63.8608 102.779 63.8608 101.468Z" fill="#00B2E3"/>
<path d="M74.0229 109.724C74.0229 108.415 75.082 107.359 76.399 107.359C77.701 107.359 78.7579 108.416 78.7579 109.724C78.7579 111.036 77.7 112.095 76.399 112.095C75.082 112.095 74.0229 111.035 74.0229 109.724Z" fill="#00B2E3"/>
<path d="M79.5698 103.965C79.5698 102.655 80.6308 101.598 81.9488 101.598C83.2518 101.598 84.3078 102.656 84.3078 103.965C84.3078 105.277 83.2508 106.336 81.9488 106.336C80.6308 106.336 79.5698 105.276 79.5698 103.965Z" fill="#00B2E3"/>
<path d="M104.347 115.968C104.347 114.658 105.404 113.602 106.724 113.602C108.025 113.602 109.08 114.659 109.08 115.968C109.08 117.281 108.024 118.339 106.724 118.339C105.403 118.339 104.347 117.281 104.347 115.968Z" fill="#00B2E3"/>
<path d="M110.425 126.989C110.425 125.681 111.484 124.625 112.801 124.625C114.104 124.625 115.161 125.682 115.161 126.989C115.161 128.304 114.103 129.362 112.801 129.362C111.483 129.362 110.425 128.305 110.425 126.989Z" fill="#00B2E3"/>
<path d="M103.749 145.338C103.749 144.027 104.81 142.969 106.127 142.969C107.431 142.969 108.487 144.028 108.487 145.338C108.487 146.65 107.43 147.707 106.127 147.707C104.81 147.707 103.749 146.649 103.749 145.338Z" fill="#00B2E3"/>
<path d="M40.376 84.8923C40.376 83.5833 41.436 82.5273 42.754 82.5273C44.055 82.5273 45.112 83.5843 45.112 84.8923C45.112 86.2043 44.054 87.2623 42.754 87.2623C41.436 87.2623 40.376 86.2043 40.376 84.8923Z" fill="#00B2E3"/>
<path d="M54.7432 94.0183C54.7432 92.7103 55.8022 91.6523 57.1202 91.6523C58.4222 91.6523 59.4802 92.7113 59.4802 94.0183C59.4802 95.3303 58.4212 96.3904 57.1202 96.3904C55.8022 96.3904 54.7432 95.3293 54.7432 94.0183Z" fill="#00B2E3"/>
<path d="M51.7612 84.447C51.7612 83.139 52.8202 82.082 54.1382 82.082C55.4412 82.082 56.4982 83.14 56.4982 84.447C56.4982 85.76 55.4402 86.818 54.1382 86.818C52.8192 86.818 51.7612 85.761 51.7612 84.447Z" fill="#00B2E3"/>
<path d="M67.2051 83.5975C67.2051 82.2875 68.2641 81.2305 69.5821 81.2305C70.8831 81.2305 71.9411 82.2885 71.9411 83.5975C71.9411 84.9095 70.8821 85.9675 69.5821 85.9675C68.2641 85.9675 67.2051 84.9085 67.2051 83.5975Z" fill="#00B2E3"/>
<path d="M80.5938 79.41C80.5938 78.101 81.6518 77.043 82.9698 77.043C84.2738 77.043 85.3307 78.102 85.3307 79.41C85.3307 80.722 84.2728 81.78 82.9698 81.78C81.6508 81.78 80.5938 80.722 80.5938 79.41Z" fill="#00B2E3"/>
<path d="M109.257 87.3269C109.257 86.0179 110.315 84.9609 111.633 84.9609C112.936 84.9609 113.993 86.0189 113.993 87.3269C113.993 88.6389 112.935 89.6969 111.633 89.6969C110.314 89.6969 109.257 88.6399 109.257 87.3269Z" fill="#00B2E3"/>
<path d="M109.47 67.5525C109.47 66.2435 110.528 65.1875 111.847 65.1875C113.149 65.1875 114.207 66.2445 114.207 67.5525C114.207 68.8655 113.148 69.9235 111.847 69.9235C110.527 69.9235 109.47 68.8655 109.47 67.5525Z" fill="#00B2E3"/>
<path d="M98.064 67.8983C98.064 66.5893 99.122 65.5312 100.441 65.5312C101.743 65.5312 102.801 66.5903 102.801 67.8983C102.801 69.2103 101.742 70.2682 100.441 70.2682C99.122 70.2692 98.064 69.2103 98.064 67.8983Z" fill="#00B2E3"/>
<path d="M40.6162 65.0183C40.6162 63.7093 41.6762 62.6523 42.9932 62.6523C44.2952 62.6523 45.3522 63.7103 45.3522 65.0183C45.3522 66.3303 44.2942 67.3883 42.9932 67.3883C41.6762 67.3883 40.6162 66.3303 40.6162 65.0183Z" fill="#00B2E3"/>
<path d="M32.939 54.573C32.939 53.265 33.999 52.207 35.316 52.207C36.617 52.207 37.675 53.266 37.675 54.573C37.675 55.885 36.616 56.944 35.316 56.944C33.999 56.944 32.939 55.886 32.939 54.573Z" fill="#00B2E3"/>
<path d="M25.605 36.1043C25.605 34.7963 26.665 33.7383 27.982 33.7383C29.285 33.7383 30.343 34.7973 30.343 36.1043C30.343 37.4163 29.284 38.4743 27.982 38.4743C26.665 38.4753 25.605 37.4173 25.605 36.1043Z" fill="#00B2E3"/>
<path d="M45.5239 36.3748C45.5239 35.0658 46.5829 34.0078 47.9009 34.0078C49.2029 34.0078 50.2609 35.0668 50.2609 36.3748C50.2609 37.6878 49.2019 38.7448 47.9009 38.7448C46.5829 38.7448 45.5239 37.6888 45.5239 36.3748Z" fill="#00B2E3"/>
<path d="M39.4438 25.3553C39.4438 24.0463 40.5019 22.9883 41.8219 22.9883C43.1239 22.9883 44.1788 24.0473 44.1788 25.3553C44.1788 26.6673 43.1229 27.7253 41.8219 27.7253C40.5019 27.7263 39.4438 26.6673 39.4438 25.3553Z" fill="#00B2E3"/>
<path d="M46.1201 7.01154C46.1201 5.70254 47.1791 4.64453 48.4971 4.64453C49.8001 4.64453 50.8561 5.70354 50.8561 7.01154C50.8561 8.32354 49.7991 9.38153 48.4971 9.38153C47.1791 9.38153 46.1201 8.32254 46.1201 7.01154Z" fill="#00B2E3"/>
<path d="M75.8481 42.6189C75.8481 41.3109 76.9071 40.2539 78.2251 40.2539C79.5281 40.2539 80.5841 41.3119 80.5841 42.6189C80.5841 43.9309 79.5271 44.9899 78.2251 44.9899C76.9061 44.9899 75.8481 43.9319 75.8481 42.6189Z" fill="#00B2E3"/>
<path d="M70.2998 48.3777C70.2998 47.0697 71.3578 46.0117 72.6768 46.0117C73.9788 46.0117 75.0348 47.0707 75.0348 48.3777C75.0348 49.6897 73.9778 50.7487 72.6768 50.7487C71.3568 50.7487 70.2998 49.6897 70.2998 48.3777Z" fill="#00B2E3"/>
<path d="M86.0059 50.8816C86.0059 49.5726 87.0649 48.5156 88.3859 48.5156C89.6849 48.5156 90.7439 49.5736 90.7439 50.8816C90.7439 52.1936 89.6839 53.2526 88.3859 53.2526C87.0639 53.2526 86.0059 52.1936 86.0059 50.8816Z" fill="#00B2E3"/>
<path d="M95.127 58.323C95.127 57.014 96.186 55.957 97.504 55.957C98.805 55.957 99.863 57.015 99.863 58.323C99.863 59.635 98.804 60.693 97.504 60.693C96.186 60.693 95.127 59.636 95.127 58.323Z" fill="#00B2E3"/>
<path d="M111.044 42.8465C111.044 41.5385 112.103 40.4805 113.42 40.4805C114.724 40.4805 115.781 41.5395 115.781 42.8465C115.781 44.1585 114.723 45.2175 113.42 45.2175C112.103 45.2175 111.044 44.1585 111.044 42.8465Z" fill="#00B2E3"/>
<path d="M120.388 50.8816C120.388 49.5726 121.447 48.5156 122.765 48.5156C124.067 48.5156 125.126 49.5736 125.126 50.8816C125.126 52.1936 124.066 53.2526 122.765 53.2526C121.446 53.2526 120.388 52.1936 120.388 50.8816Z" fill="#00B2E3"/>
<path d="M130.497 38.8777C130.497 37.5687 131.558 36.5117 132.875 36.5117C134.178 36.5117 135.235 37.5697 135.235 38.8777C135.235 40.1907 134.177 41.2477 132.875 41.2477C131.558 41.2477 130.497 40.1907 130.497 38.8777Z" fill="#00B2E3"/>
<path d="M127.598 21.5691C127.598 20.2611 128.656 19.2031 129.975 19.2031C131.278 19.2031 132.334 20.2621 132.334 21.5691C132.334 22.8811 131.277 23.9401 129.975 23.9401C128.655 23.9401 127.598 22.8811 127.598 21.5691Z" fill="#00B2E3"/>
<path d="M116.93 97.7713C116.93 96.4643 117.989 95.4062 119.307 95.4062C120.61 95.4062 121.666 96.4653 121.666 97.7713C121.666 99.0853 120.609 100.142 119.307 100.142C117.988 100.142 116.93 99.0853 116.93 97.7713Z" fill="#00B2E3"/>
<path d="M124.267 116.235C124.267 114.927 125.326 113.871 126.644 113.871C127.946 113.871 129.003 114.928 129.003 116.235C129.003 117.547 127.945 118.605 126.644 118.605C125.325 118.605 124.267 117.548 124.267 116.235Z" fill="#00B2E3"/>
<path d="M82.665 68.7449C82.665 67.4369 83.7241 66.3789 85.0421 66.3789C86.3431 66.3789 87.4 67.4379 87.4 68.7449C87.4 70.0569 86.3421 71.1159 85.0421 71.1159C83.7241 71.1159 82.665 70.0579 82.665 68.7449Z" fill="#00B2E3"/>
<path d="M96.229 81.3191C96.229 80.0101 97.289 78.9531 98.606 78.9531C99.908 78.9531 100.966 80.0111 100.966 81.3191C100.966 82.6311 99.907 83.6891 98.606 83.6891C97.289 83.6891 96.229 82.6321 96.229 81.3191Z" fill="#00B2E3"/>
<path d="M53.6421 71.0262C53.6421 69.7162 54.7031 68.6602 56.0201 68.6602C57.3221 68.6602 58.3791 69.7172 58.3791 71.0262C58.3791 72.3392 57.3211 73.3972 56.0201 73.3972C54.7021 73.3972 53.6421 72.3402 53.6421 71.0262Z" fill="#00B2E3"/>
<path d="M56.1192 133.113C56.1192 135.443 54.2392 137.332 51.9122 137.332C49.5892 137.332 47.6992 135.443 47.6992 133.113C47.6992 130.791 49.5892 128.91 51.9122 128.91C54.2392 128.91 56.1192 130.791 56.1192 133.113Z" fill="#00B2E3"/>
<path d="M102.81 119.256C102.81 121.584 100.929 123.473 98.6022 123.473C96.2772 123.473 94.3882 121.584 94.3882 119.256C94.3882 116.935 96.2772 115.051 98.6022 115.051C100.929 115.051 102.81 116.935 102.81 119.256Z" fill="#00B2E3"/>
<path d="M123.848 137.599C123.848 139.927 121.968 141.819 119.639 141.819C117.317 141.819 115.427 139.927 115.427 137.599C115.427 135.278 117.317 133.398 119.639 133.398C121.968 133.397 123.848 135.277 123.848 137.599Z" fill="#00B2E3"/>
<path d="M89.5348 91.6063C89.5348 93.9343 87.6558 95.8243 85.3268 95.8243C83.0048 95.8243 81.1138 93.9343 81.1138 91.6063C81.1138 89.2843 83.0048 87.4023 85.3268 87.4023C87.6558 87.4023 89.5348 89.2843 89.5348 91.6063Z" fill="#00B2E3"/>
<path d="M103.897 89.4764C103.897 91.8054 102.018 93.6934 99.6881 93.6934C97.3671 93.6934 95.4761 91.8054 95.4761 89.4764C95.4761 87.1554 97.3671 85.2734 99.6881 85.2734C102.019 85.2724 103.897 87.1544 103.897 89.4764Z" fill="#00B2E3"/>
<path d="M95.779 82.6161C95.779 84.9441 93.897 86.8351 91.569 86.8351C89.245 86.8351 87.356 84.9441 87.356 82.6161C87.356 80.2961 89.245 78.4141 91.569 78.4141C93.897 78.4141 95.779 80.2961 95.779 82.6161Z" fill="#00B2E3"/>
<path d="M112.922 53.4725C112.922 55.8005 111.041 57.6905 108.713 57.6905C106.391 57.6905 104.5 55.8005 104.5 53.4725C104.5 51.1505 106.391 49.2695 108.713 49.2695C111.041 49.2695 112.922 51.1495 112.922 53.4725Z" fill="#00B2E3"/>
<path d="M60.2208 33.0819C60.2208 35.4089 58.3408 37.2989 56.0128 37.2989C53.6908 37.2989 51.7998 35.4089 51.7998 33.0819C51.7998 30.7599 53.6908 28.8789 56.0128 28.8789C58.3408 28.8789 60.2208 30.7599 60.2208 33.0819Z" fill="#00B2E3"/>
<path d="M39.1788 14.7382C39.1788 17.0662 37.2988 18.9552 34.9718 18.9552C32.6488 18.9552 30.7588 17.0662 30.7588 14.7382C30.7588 12.4172 32.6488 10.5352 34.9718 10.5352C37.2988 10.5352 39.1788 12.4172 39.1788 14.7382Z" fill="#00B2E3"/>
<path d="M107.02 19.1493C107.02 21.4773 105.14 23.3673 102.811 23.3673C100.488 23.3673 98.5981 21.4773 98.5981 19.1493C98.5981 16.8273 100.488 14.9453 102.811 14.9453C105.14 14.9453 107.02 16.8273 107.02 19.1493Z" fill="#00B2E3"/>
<path d="M81.128 67.8934C81.128 70.2224 79.247 72.1114 76.92 72.1114C74.598 72.1114 72.707 70.2224 72.707 67.8934C72.707 65.5734 74.598 63.6914 76.92 63.6914C79.247 63.6904 81.128 65.5724 81.128 67.8934Z" fill="#00B2E3"/>
<path d="M72.8809 60.5663C72.8809 62.8943 71.0019 64.7853 68.6739 64.7853C66.3499 64.7853 64.4609 62.8943 64.4609 60.5663C64.4609 58.2463 66.3499 56.3633 68.6739 56.3633C71.0019 56.3633 72.8809 58.2463 72.8809 60.5663Z" fill="#00B2E3"/>
<path d="M67.2501 69.7176C67.2501 72.0466 65.3701 73.9356 63.0411 73.9356C60.7191 73.9356 58.8301 72.0466 58.8301 69.7176C58.8301 67.3976 60.7191 65.5156 63.0411 65.5156C65.3701 65.5156 67.2501 67.3966 67.2501 69.7176Z" fill="#00B2E3"/>
<path d="M59.13 62.8602C59.13 65.1882 57.25 67.0772 54.922 67.0772C52.598 67.0772 50.709 65.1882 50.709 62.8602C50.709 60.5382 52.598 58.6562 54.922 58.6562C57.25 58.6562 59.13 60.5382 59.13 62.8602Z" fill="#00B2E3"/>
<path d="M72.8829 91.3514C72.8829 93.6784 71.0029 95.5694 68.6739 95.5694C66.3509 95.5694 64.4609 93.6784 64.4609 91.3514C64.4609 89.0304 66.3509 87.1484 68.6739 87.1484C71.0029 87.1474 72.8829 89.0294 72.8829 91.3514Z" fill="#00B2E3"/>
<path d="M50.108 98.8593C50.108 101.188 48.228 103.077 45.899 103.077C43.577 103.077 41.686 101.188 41.686 98.8593C41.686 96.5373 43.577 94.6562 45.899 94.6562C48.229 94.6562 50.108 96.5373 50.108 98.8593Z" fill="#00B2E3"/>
<path d="M87.5621 117.53C87.5621 119.273 86.1471 120.685 84.4101 120.685C82.6631 120.685 81.2471 119.273 81.2471 117.53C81.2471 115.779 82.6631 114.371 84.4101 114.371C86.1471 114.371 87.5621 115.779 87.5621 117.53Z" fill="#00B2E3"/>
<path d="M93.255 108.144C93.255 109.887 91.839 111.299 90.101 111.299C88.356 111.299 86.939 109.887 86.939 108.144C86.939 106.393 88.356 104.984 90.101 104.984C91.839 104.983 93.255 106.393 93.255 108.144Z" fill="#00B2E3"/>
<path d="M112.8 94.909C112.8 96.654 111.384 98.065 109.647 98.065C107.901 98.065 106.485 96.654 106.485 94.909C106.485 93.158 107.901 91.75 109.647 91.75C111.384 91.75 112.8 93.158 112.8 94.909Z" fill="#00B2E3"/>
<path d="M53.7222 90.6444C53.7222 92.3894 52.3072 93.8004 50.5692 93.8004C48.8232 93.8004 47.4082 92.3894 47.4082 90.6444C47.4082 88.8954 48.8232 87.4844 50.5692 87.4844C52.3072 87.4834 53.7222 88.8954 53.7222 90.6444Z" fill="#00B2E3"/>
<path d="M77.3018 99.8231C77.3018 101.569 75.8858 102.98 74.1498 102.98C72.4008 102.98 70.9858 101.569 70.9858 99.8231C70.9858 98.0741 72.4008 96.6641 74.1498 96.6641C75.8858 96.6641 77.3018 98.0741 77.3018 99.8231Z" fill="#00B2E3"/>
<path d="M80.0738 88.5486C80.0738 90.2936 78.6588 91.7056 76.9228 91.7056C75.1738 91.7056 73.7598 90.2936 73.7598 88.5486C73.7598 86.7986 75.1738 85.3906 76.9228 85.3906C78.6588 85.3906 80.0738 86.7986 80.0738 88.5486Z" fill="#00B2E3"/>
<path d="M79.5459 77.9871C79.5459 79.7321 78.1309 81.1441 76.3949 81.1441C74.6479 81.1441 73.2339 79.7321 73.2339 77.9871C73.2339 76.2391 74.6479 74.8281 76.3949 74.8281C78.1309 74.8281 79.5459 76.2391 79.5459 77.9871Z" fill="#00B2E3"/>
<path d="M109.564 74.5106C109.564 76.2556 108.148 77.6666 106.412 77.6666C104.664 77.6666 103.249 76.2556 103.249 74.5106C103.249 72.7606 104.664 71.3516 106.412 71.3516C108.148 71.3516 109.564 72.7606 109.564 74.5106Z" fill="#00B2E3"/>
<path d="M107.196 61.7127C107.196 63.4567 105.781 64.8687 104.043 64.8687C102.296 64.8687 100.883 63.4567 100.883 61.7127C100.883 59.9627 102.296 58.5547 104.043 58.5547C105.781 58.5547 107.196 59.9627 107.196 61.7127Z" fill="#00B2E3"/>
<path d="M67.67 44.202C67.67 45.947 66.255 47.359 64.516 47.359C62.771 47.359 61.355 45.947 61.355 44.202C61.355 42.452 62.771 41.043 64.516 41.043C66.255 41.043 67.67 42.452 67.67 44.202Z" fill="#00B2E3"/>
<path d="M73.3589 34.8192C73.3589 36.5632 71.9409 37.9742 70.2049 37.9742C68.4579 37.9742 67.0439 36.5632 67.0439 34.8192C67.0439 33.0692 68.4579 31.6602 70.2049 31.6602C71.9409 31.6602 73.3589 33.0692 73.3589 34.8192Z" fill="#00B2E3"/>
<path d="M114.79 34.4402C114.79 36.1852 113.374 37.5963 111.636 37.5963C109.889 37.5963 108.474 36.1852 108.474 34.4402C108.474 32.6912 109.889 31.2812 111.636 31.2812C113.374 31.2812 114.79 32.6912 114.79 34.4402Z" fill="#00B2E3"/>
<path d="M89.8858 59.0965C89.8858 60.8425 88.4708 62.2525 86.7328 62.2525C84.9848 62.2525 83.5708 60.8425 83.5708 59.0965C83.5708 57.3475 84.9848 55.9375 86.7328 55.9375C88.4708 55.9365 89.8858 57.3475 89.8858 59.0965Z" fill="#00B2E3"/>
<path d="M48.1232 57.4432C48.1232 59.1892 46.7062 60.6002 44.9702 60.6002C43.2222 60.6002 41.8062 59.1892 41.8062 57.4432C41.8062 55.6942 43.2222 54.2852 44.9702 54.2852C46.7062 54.2852 48.1232 55.6942 48.1232 57.4432Z" fill="#00B2E3"/>
<path d="M51.3589 77.8455C51.3589 79.5895 49.9439 81.0015 48.2069 81.0015C46.4599 81.0015 45.0449 79.5895 45.0449 77.8455C45.0449 76.0955 46.4599 74.6875 48.2069 74.6875C49.9439 74.6875 51.3589 76.0955 51.3589 77.8455Z" fill="#00B2E3"/>
<path d="M46.1349 117.91C46.1349 119.653 44.7189 121.065 42.9809 121.065C41.2339 121.065 39.8169 119.653 39.8169 117.91C39.8169 116.16 41.2339 114.75 42.9809 114.75C44.7189 114.75 46.1349 116.16 46.1349 117.91Z" fill="#00B2E3"/>
<path d="M42.8239 143.597C42.8239 144.578 42.0349 145.361 41.0559 145.361C40.0819 145.361 39.2959 144.579 39.2959 143.597C39.2959 142.618 40.0819 141.836 41.0559 141.836C42.0349 141.836 42.8239 142.618 42.8239 143.597Z" fill="#00B2E3"/>
<path d="M36.7272 133.29C36.7272 134.272 35.9382 135.054 34.9592 135.054C33.9862 135.054 33.1992 134.273 33.1992 133.29C33.1992 132.312 33.9862 131.527 34.9592 131.527C35.9382 131.527 36.7272 132.312 36.7272 133.29Z" fill="#00B2E3"/>
<path d="M20.9562 142.413C20.9562 143.397 20.1672 144.18 19.1902 144.18C18.2152 144.18 17.4292 143.398 17.4292 142.413C17.4292 141.434 18.2152 140.652 19.1902 140.652C20.1672 140.652 20.9562 141.435 20.9562 142.413Z" fill="#00B2E3"/>
<path d="M47.4308 127.709C47.4308 128.693 46.6428 129.476 45.6638 129.476C44.6888 129.476 43.9038 128.694 43.9038 127.709C43.9038 126.73 44.6888 125.949 45.6638 125.949C46.6428 125.949 47.4308 126.73 47.4308 127.709Z" fill="#00B2E3"/>
<path d="M65.6002 124.937C65.6002 125.92 64.8132 126.703 63.8342 126.703C62.8592 126.703 62.0742 125.921 62.0742 124.937C62.0742 123.959 62.8592 123.176 63.8342 123.176C64.8122 123.176 65.6002 123.959 65.6002 124.937Z" fill="#00B2E3"/>
<path d="M66.3619 118.01C66.3619 118.993 65.5739 119.775 64.5949 119.775C63.6209 119.775 62.8359 118.994 62.8359 118.01C62.8359 117.031 63.6209 116.25 64.5949 116.25C65.5739 116.25 66.3619 117.031 66.3619 118.01Z" fill="#00B2E3"/>
<path d="M56.362 119.03C56.362 120.013 55.573 120.796 54.595 120.796C53.621 120.796 52.834 120.014 52.834 119.03C52.834 118.052 53.621 117.27 54.595 117.27C55.573 117.271 56.362 118.053 56.362 119.03Z" fill="#00B2E3"/>
<path d="M72.8688 114.971C72.8688 115.954 72.0788 116.737 71.1028 116.737C70.1258 116.737 69.3418 115.955 69.3418 114.971C69.3418 113.993 70.1258 113.211 71.1028 113.211C72.0788 113.211 72.8688 113.993 72.8688 114.971Z" fill="#00B2E3"/>
<path d="M71.7872 108.437C71.7872 109.419 71.0002 110.202 70.0212 110.202C69.0472 110.202 68.2612 109.42 68.2612 108.437C68.2612 107.459 69.0472 106.676 70.0212 106.676C71.0002 106.676 71.7872 107.459 71.7872 108.437Z" fill="#00B2E3"/>
<path d="M60.778 100.656C60.778 101.639 59.988 102.422 59.01 102.422C58.037 102.422 57.25 101.64 57.25 100.656C57.25 99.6775 58.037 98.8945 59.01 98.8945C59.988 98.8955 60.778 99.6785 60.778 100.656Z" fill="#00B2E3"/>
<path d="M54.0031 103.909C54.0031 104.891 53.215 105.674 52.236 105.674C51.261 105.674 50.4771 104.892 50.4771 103.909C50.4771 102.93 51.261 102.148 52.236 102.148C53.215 102.148 54.0031 102.931 54.0031 103.909Z" fill="#00B2E3"/>
<path d="M45.1002 91.4993C45.1002 92.4813 44.3132 93.2643 43.3342 93.2643C42.3592 93.2643 41.5742 92.4823 41.5742 91.4993C41.5742 90.5203 42.3592 89.7383 43.3342 89.7383C44.3122 89.7383 45.1002 90.5203 45.1002 91.4993Z" fill="#00B2E3"/>
<path d="M38.0079 90.9358C38.0079 91.9188 37.221 92.7018 36.24 92.7018C35.267 92.7018 34.481 91.9198 34.481 90.9358C34.481 89.9578 35.267 89.1758 36.24 89.1758C37.221 89.1758 38.0079 89.9578 38.0079 90.9358Z" fill="#00B2E3"/>
<path d="M55.8952 75.8597C55.8952 76.8417 55.1062 77.6257 54.1282 77.6257C53.1542 77.6257 52.3682 76.8427 52.3682 75.8597C52.3682 74.8807 53.1542 74.0977 54.1282 74.0977C55.1052 74.0987 55.8952 74.8807 55.8952 75.8597Z" fill="#00B2E3"/>
<path d="M51.2618 67.9173C51.2618 68.8993 50.4748 69.6812 49.4958 69.6812C48.5208 69.6812 47.7358 68.9003 47.7358 67.9173C47.7358 66.9383 48.5208 66.1562 49.4958 66.1562C50.4748 66.1562 51.2618 66.9383 51.2618 67.9173Z" fill="#00B2E3"/>
<path d="M57.5831 56.0813C57.5831 57.0633 56.7961 57.8463 55.8171 57.8463C54.8431 57.8463 54.0581 57.0643 54.0581 56.0813C54.0581 55.1023 54.8431 54.3203 55.8171 54.3203C56.7961 54.3203 57.5831 55.1023 57.5831 56.0813Z" fill="#00B2E3"/>
<path d="M72.0299 71.9964C72.0299 72.9784 71.2419 73.7614 70.2639 73.7614C69.2899 73.7614 68.5029 72.9794 68.5029 71.9964C68.5029 71.0174 69.2899 70.2344 70.2639 70.2344C71.2419 70.2344 72.0299 71.0174 72.0299 71.9964Z" fill="#00B2E3"/>
<path d="M71.2091 67.6272C71.2091 68.6102 70.4211 69.3932 69.4411 69.3932C68.4671 69.3932 67.6831 68.6112 67.6831 67.6272C67.6831 66.6482 68.4671 65.8672 69.4411 65.8672C70.4211 65.8672 71.2091 66.6482 71.2091 67.6272Z" fill="#00B2E3"/>
<path d="M84.0671 63.7308C84.0671 64.7128 83.2801 65.4967 82.2971 65.4967C81.3241 65.4967 80.5381 64.7138 80.5381 63.7308C80.5381 62.7518 81.3241 61.9688 82.2971 61.9688C83.2801 61.9688 84.0671 62.7508 84.0671 63.7308Z" fill="#00B2E3"/>
<path d="M96.3132 63.3469C96.3132 64.3309 95.5252 65.1129 94.5452 65.1129C93.5722 65.1129 92.7842 64.3319 92.7842 63.3469C92.7842 62.3679 93.5722 61.5859 94.5452 61.5859C95.5252 61.5859 96.3132 62.3679 96.3132 63.3469Z" fill="#00B2E3"/>
<path d="M113.034 60.8499C113.034 61.8329 112.247 62.6158 111.268 62.6158C110.294 62.6158 109.507 61.8339 109.507 60.8499C109.507 59.8709 110.294 59.0898 111.268 59.0898C112.247 59.0898 113.034 59.8709 113.034 60.8499Z" fill="#00B2E3"/>
<path d="M120.125 61.4045C120.125 62.3875 119.335 63.1705 118.358 63.1705C117.382 63.1705 116.596 62.3885 116.596 61.4045C116.596 60.4255 117.382 59.6445 118.358 59.6445C119.335 59.6455 120.125 60.4265 120.125 61.4045Z" fill="#00B2E3"/>
<path d="M106.873 84.43C106.873 85.413 106.085 86.195 105.107 86.195C104.132 86.195 103.346 85.414 103.346 84.43C103.346 83.451 104.132 82.668 105.107 82.668C106.085 82.668 106.873 83.45 106.873 84.43Z" fill="#00B2E3"/>
<path d="M86.922 84.718C86.922 85.7 86.136 86.483 85.154 86.483C84.182 86.483 83.396 85.701 83.396 84.718C83.396 83.739 84.182 82.957 85.154 82.957C86.136 82.957 86.922 83.739 86.922 84.718Z" fill="#00B2E3"/>
<path d="M80.3278 94.9769C80.3278 95.9599 79.5378 96.7428 78.5608 96.7428C77.5848 96.7428 76.7998 95.9609 76.7998 94.9769C76.7998 93.9979 77.5848 93.2148 78.5608 93.2148C79.5378 93.2148 80.3278 93.9979 80.3278 94.9769Z" fill="#00B2E3"/>
<path d="M61.8839 89.0501C61.8839 90.0331 61.0969 90.8161 60.1179 90.8161C59.1439 90.8161 58.3589 90.0341 58.3589 89.0501C58.3589 88.0721 59.1439 87.2891 60.1179 87.2891C61.0969 87.2891 61.8839 88.0721 61.8839 89.0501Z" fill="#00B2E3"/>
<path d="M63.65 49.6623C63.65 50.6453 62.861 51.4293 61.884 51.4293C60.909 51.4293 60.123 50.6463 60.123 49.6623C60.123 48.6843 60.909 47.9023 61.884 47.9023C62.861 47.9023 63.65 48.6853 63.65 49.6623Z" fill="#00B2E3"/>
<path d="M55.776 41.3636C55.776 42.3466 54.987 43.1296 54.009 43.1296C53.035 43.1296 52.25 42.3476 52.25 41.3636C52.25 40.3846 53.035 39.6016 54.009 39.6016C54.987 39.6026 55.776 40.3846 55.776 41.3636Z" fill="#00B2E3"/>
<path d="M84.0182 111.551C84.0182 112.534 83.2282 113.316 82.2492 113.316C81.2752 113.316 80.4902 112.535 80.4902 111.551C80.4902 110.572 81.2752 109.789 82.2492 109.789C83.2282 109.789 84.0182 110.571 84.0182 111.551Z" fill="#00B2E3"/>
<path d="M94.483 102.679C94.483 103.662 93.693 104.446 92.716 104.446C91.743 104.446 90.957 103.663 90.957 102.679C90.957 101.701 91.743 100.918 92.716 100.918C93.693 100.918 94.483 101.701 94.483 102.679Z" fill="#00B2E3"/>
<path d="M100.551 96.261C100.551 97.244 99.764 98.028 98.783 98.028C97.81 98.028 97.022 97.245 97.022 96.261C97.022 95.282 97.81 94.5 98.783 94.5C99.764 94.5 100.551 95.282 100.551 96.261Z" fill="#00B2E3"/>
<path d="M102.313 110.984C102.313 111.966 101.525 112.75 100.547 112.75C99.5711 112.75 98.7861 111.967 98.7861 110.984C98.7861 110.006 99.5711 109.223 100.547 109.223C101.525 109.224 102.313 110.007 102.313 110.984Z" fill="#00B2E3"/>
<path d="M122.671 109.043C122.671 110.026 121.882 110.809 120.902 110.809C119.93 110.809 119.143 110.027 119.143 109.043C119.143 108.065 119.93 107.281 120.902 107.281C121.882 107.281 122.671 108.065 122.671 109.043Z" fill="#00B2E3"/>
<path d="M129.299 109.989C129.299 110.971 128.512 111.755 127.535 111.755C126.56 111.755 125.773 110.972 125.773 109.989C125.773 109.01 126.56 108.227 127.535 108.227C128.512 108.228 129.299 109.011 129.299 109.989Z" fill="#00B2E3"/>
<path d="M142.153 127.373C142.153 128.353 141.363 129.137 140.387 129.137C139.413 129.137 138.628 128.354 138.628 127.373C138.628 126.395 139.413 125.613 140.387 125.613C141.363 125.613 142.153 126.395 142.153 127.373Z" fill="#00B2E3"/>
<path d="M120.774 120.011C120.774 120.993 119.987 121.776 119.007 121.776C118.032 121.776 117.247 120.994 117.247 120.011C117.247 119.032 118.032 118.25 119.007 118.25C119.987 118.25 120.774 119.032 120.774 120.011Z" fill="#00B2E3"/>
<path d="M101.055 127.928C101.055 128.91 100.268 129.694 99.2898 129.694C98.3148 129.694 97.5298 128.911 97.5298 127.928C97.5298 126.95 98.3148 126.168 99.2898 126.168C100.268 126.168 101.055 126.95 101.055 127.928Z" fill="#00B2E3"/>
<path d="M99.863 135.777C99.863 136.76 99.0759 137.541 98.0959 137.541C97.1219 137.541 96.335 136.761 96.335 135.777C96.335 134.798 97.1219 134.016 98.0959 134.016C99.0759 134.017 99.863 134.799 99.863 135.777Z" fill="#00B2E3"/>
<path d="M112.193 136.411C112.193 137.396 111.405 138.179 110.428 138.179C109.454 138.179 108.668 137.397 108.668 136.411C108.668 135.432 109.454 134.652 110.428 134.652C111.405 134.652 112.193 135.433 112.193 136.411Z" fill="#00B2E3"/>
<path d="M116.58 147.932C116.58 148.915 115.791 149.698 114.815 149.698C113.838 149.698 113.053 148.916 113.053 147.932C113.053 146.954 113.838 146.172 114.815 146.172C115.791 146.172 116.58 146.954 116.58 147.932Z" fill="#00B2E3"/>
<path d="M129.713 149.582C129.713 150.565 128.925 151.35 127.947 151.35C126.972 151.35 126.187 150.566 126.187 149.582C126.187 148.604 126.972 147.82 127.947 147.82C128.925 147.82 129.713 148.604 129.713 149.582Z" fill="#00B2E3"/>
<path d="M97.3561 51.6907C97.3561 52.6737 96.5701 53.4567 95.5901 53.4567C94.6161 53.4567 93.8291 52.6747 93.8291 51.6907C93.8291 50.7117 94.6161 49.9297 95.5901 49.9297C96.5701 49.9307 97.3561 50.7127 97.3561 51.6907Z" fill="#00B2E3"/>
<path d="M104.132 48.4407C104.132 49.4237 103.343 50.2067 102.364 50.2067C101.389 50.2067 100.604 49.4247 100.604 48.4407C100.604 47.4617 101.389 46.6797 102.364 46.6797C103.343 46.6807 104.132 47.4627 104.132 48.4407Z" fill="#00B2E3"/>
<path d="M85.2638 37.3694C85.2638 38.3534 84.4758 39.1364 83.4978 39.1364C82.5218 39.1364 81.7368 38.3544 81.7368 37.3694C81.7368 36.3904 82.5218 35.6094 83.4978 35.6094C84.4758 35.6094 85.2638 36.3914 85.2638 37.3694Z" fill="#00B2E3"/>
<path d="M86.3449 43.9133C86.3449 44.8953 85.5589 45.6793 84.5779 45.6793C83.6049 45.6793 82.8179 44.8963 82.8179 43.9133C82.8179 42.9343 83.6049 42.1523 84.5779 42.1523C85.5589 42.1523 86.3449 42.9343 86.3449 43.9133Z" fill="#00B2E3"/>
<path d="M91.7692 34.3264C91.7692 35.3094 90.9822 36.0924 90.0032 36.0924C89.0302 36.0924 88.2432 35.3104 88.2432 34.3264C88.2432 33.3474 89.0302 32.5664 90.0032 32.5664C90.9812 32.5664 91.7692 33.3484 91.7692 34.3264Z" fill="#00B2E3"/>
<path d="M101.769 33.3118C101.769 34.2948 100.98 35.0778 100.002 35.0778C99.0262 35.0778 98.2412 34.2958 98.2412 33.3118C98.2412 32.3338 99.0262 31.5508 100.002 31.5508C100.979 31.5518 101.769 32.3348 101.769 33.3118Z" fill="#00B2E3"/>
<path d="M92.529 27.4055C92.529 28.3885 91.74 29.1705 90.763 29.1705C89.787 29.1705 89.001 28.3895 89.001 27.4055C89.001 26.4265 89.787 25.6445 90.763 25.6445C91.74 25.6455 92.529 26.4275 92.529 27.4055Z" fill="#00B2E3"/>
<path d="M110.704 24.6409C110.704 25.6239 109.914 26.4059 108.936 26.4059C107.961 26.4059 107.176 25.6249 107.176 24.6409C107.176 23.6619 107.961 22.8789 108.936 22.8789C109.914 22.8789 110.704 23.6609 110.704 24.6409Z" fill="#00B2E3"/>
<path d="M121.407 19.053C121.407 20.036 120.617 20.82 119.64 20.82C118.664 20.82 117.879 20.037 117.879 19.053C117.879 18.075 118.664 17.293 119.64 17.293C120.617 17.293 121.407 18.075 121.407 19.053Z" fill="#00B2E3"/>
<path d="M137.176 9.93288C137.176 10.9159 136.387 11.6979 135.409 11.6979C134.435 11.6979 133.648 10.9169 133.648 9.93288C133.648 8.95388 134.435 8.17188 135.409 8.17188C136.387 8.17188 137.176 8.95388 137.176 9.93288Z" fill="#00B2E3"/>
<path d="M115.308 8.74828C115.308 9.73028 114.52 10.5143 113.541 10.5143C112.568 10.5143 111.78 9.73128 111.78 8.74828C111.78 7.76928 112.568 6.98828 113.541 6.98828C114.52 6.98828 115.308 7.77028 115.308 8.74828Z" fill="#00B2E3"/>
<path d="M58.2711 16.5618C58.2711 17.5448 57.4831 18.3278 56.5041 18.3278C55.5301 18.3278 54.7441 17.5458 54.7441 16.5618C54.7441 15.5828 55.5301 14.8008 56.5041 14.8008C57.4831 14.8008 58.2711 15.5828 58.2711 16.5618Z" fill="#00B2E3"/>
<path d="M57.0758 24.4173C57.0758 25.4003 56.2888 26.1842 55.3098 26.1842C54.3358 26.1842 53.5508 25.4013 53.5508 24.4173C53.5508 23.4383 54.3358 22.6563 55.3098 22.6563C56.2888 22.6562 57.0758 23.4383 57.0758 24.4173Z" fill="#00B2E3"/>
<path d="M28.4211 2.77663C28.4211 3.75963 27.6321 4.54163 26.6531 4.54163C25.6801 4.54163 24.8931 3.76063 24.8931 2.77663C24.8931 1.79763 25.6801 1.01562 26.6531 1.01562C27.6321 1.01663 28.4211 1.79863 28.4211 2.77663Z" fill="#00B2E3"/>
<path d="M41.5548 4.40553C41.5548 5.38753 40.7658 6.17053 39.7878 6.17053C38.8138 6.17053 38.0278 5.38853 38.0278 4.40553C38.0278 3.42653 38.8138 2.64453 39.7878 2.64453C40.7658 2.64553 41.5548 3.42653 41.5548 4.40553Z" fill="#00B2E3"/>
<path d="M15.9792 24.967C15.9792 25.949 15.1922 26.733 14.2112 26.733C13.2382 26.733 12.4521 25.95 12.4521 24.967C12.4521 23.988 13.2382 23.207 14.2112 23.207C15.1922 23.207 15.9792 23.987 15.9792 24.967Z" fill="#00B2E3"/>
<path d="M37.359 32.3323C37.359 33.3143 36.571 34.0963 35.591 34.0963C34.617 34.0963 33.832 33.3153 33.832 32.3323C33.832 31.3533 34.617 30.5703 35.591 30.5703C36.571 30.5703 37.359 31.3533 37.359 32.3323Z" fill="#00B2E3"/>
<path d="M28.8312 42.3548C28.8312 43.3378 28.0422 44.1207 27.0642 44.1207C26.0902 44.1207 25.3052 43.3388 25.3052 42.3548C25.3052 41.3758 26.0902 40.5938 27.0642 40.5938C28.0422 40.5937 28.8312 41.3758 28.8312 42.3548Z" fill="#00B2E3"/>
<path d="M35.465 43.304C35.465 44.286 34.677 45.07 33.697 45.07C32.724 45.07 31.938 44.287 31.938 43.304C31.938 42.325 32.724 41.543 33.697 41.543C34.677 41.543 35.465 42.324 35.465 43.304Z" fill="#00B2E3"/>
<path d="M74.1169 40.8001C74.1169 41.7831 73.3288 42.5651 72.3508 42.5651C71.3748 42.5651 70.5898 41.7841 70.5898 40.8001C70.5898 39.8211 71.3748 39.0391 72.3508 39.0391C73.3288 39.0391 74.1169 39.8201 74.1169 40.8001Z" fill="#00B2E3"/>
<path d="M45.9391 15.9329C45.9391 16.9159 45.1501 17.6989 44.1731 17.6989C43.1981 17.6989 42.4121 16.9169 42.4121 15.9329C42.4121 14.9539 43.1981 14.1719 44.1731 14.1719C45.1501 14.1719 45.9391 14.9539 45.9391 15.9329Z" fill="#00B2E3"/>
<path d="M116.726 110.485C116.726 110.769 116.486 111.012 116.199 111.012C115.911 111.012 115.675 110.769 115.675 110.485C115.675 110.195 115.911 109.961 116.199 109.961C116.485 109.961 116.726 110.195 116.726 110.485Z" fill="#00B2E3"/>
<path d="M100.147 100.844C100.147 101.129 99.9082 101.373 99.6202 101.373C99.3302 101.373 99.0962 101.129 99.0962 100.844C99.0962 100.555 99.3302 100.32 99.6202 100.32C99.9082 100.319 100.147 100.555 100.147 100.844Z" fill="#00B2E3"/>
<path d="M97.2239 107.512C97.2239 107.796 96.9839 108.039 96.6959 108.039C96.4079 108.039 96.1699 107.796 96.1699 107.512C96.1699 107.222 96.4079 106.988 96.6959 106.988C96.9839 106.988 97.2239 107.222 97.2239 107.512Z" fill="#00B2E3"/>
<path d="M87.7492 101.84C87.7492 102.124 87.5102 102.368 87.2222 102.368C86.9332 102.368 86.6982 102.124 86.6982 101.84C86.6982 101.551 86.9332 101.316 87.2222 101.316C87.5102 101.315 87.7492 101.551 87.7492 101.84Z" fill="#00B2E3"/>
<path d="M81.1218 97.7115C81.1218 97.9965 80.8838 98.2385 80.5948 98.2385C80.3058 98.2385 80.0708 97.9965 80.0708 97.7115C80.0708 97.4215 80.3058 97.1875 80.5948 97.1875C80.8838 97.1875 81.1218 97.4215 81.1218 97.7115Z" fill="#00B2E3"/>
<path d="M79.4568 100.384C79.4568 100.667 79.2178 100.91 78.9298 100.91C78.6398 100.91 78.4048 100.667 78.4048 100.384C78.4048 100.093 78.6398 99.8594 78.9298 99.8594C79.2178 99.8584 79.4568 100.093 79.4568 100.384Z" fill="#00B2E3"/>
<path d="M78.9909 114.166C78.9909 114.45 78.7519 114.692 78.4639 114.692C78.1759 114.692 77.9399 114.45 77.9399 114.166C77.9399 113.876 78.1759 113.641 78.4639 113.641C78.7519 113.641 78.9909 113.876 78.9909 114.166Z" fill="#00B2E3"/>
<path d="M84.3571 122.978C84.3571 123.263 84.1182 123.505 83.8302 123.505C83.5412 123.505 83.3062 123.263 83.3062 122.978C83.3062 122.688 83.5412 122.453 83.8302 122.453C84.1182 122.452 84.3571 122.688 84.3571 122.978Z" fill="#00B2E3"/>
<path d="M80.2512 131.319C80.2512 131.606 80.0122 131.846 79.7252 131.846C79.4352 131.846 79.2002 131.606 79.2002 131.319C79.2002 131.029 79.4352 130.797 79.7252 130.797C80.0122 130.797 80.2512 131.029 80.2512 131.319Z" fill="#00B2E3"/>
<path d="M69.2839 120.855C69.2839 121.142 69.0459 121.384 68.7559 121.384C68.4679 121.384 68.2319 121.142 68.2319 120.855C68.2319 120.566 68.4679 120.332 68.7559 120.332C69.0459 120.332 69.2839 120.566 69.2839 120.855Z" fill="#00B2E3"/>
<path d="M62.8718 130.143C62.8718 130.431 62.6318 130.671 62.3438 130.671C62.0558 130.671 61.8198 130.431 61.8198 130.143C61.8198 129.855 62.0558 129.621 62.3438 129.621C62.6318 129.621 62.8718 129.854 62.8718 130.143Z" fill="#00B2E3"/>
<path d="M53.2268 112.907C53.2268 113.193 52.9888 113.435 52.6988 113.435C52.4108 113.435 52.1748 113.193 52.1748 112.907C52.1748 112.617 52.4108 112.383 52.6988 112.383C52.9878 112.383 53.2268 112.617 53.2268 112.907Z" fill="#00B2E3"/>
<path d="M49.696 108.575C49.696 108.859 49.458 109.103 49.17 109.103C48.881 109.103 48.645 108.859 48.645 108.575C48.645 108.284 48.881 108.051 49.17 108.051C49.458 108.051 49.696 108.284 49.696 108.575Z" fill="#00B2E3"/>
<path d="M72.9421 105.975C72.9421 106.261 72.7011 106.505 72.4141 106.505C72.1251 106.505 71.8911 106.261 71.8911 105.975C71.8911 105.687 72.1251 105.453 72.4141 105.453C72.7011 105.452 72.9421 105.686 72.9421 105.975Z" fill="#00B2E3"/>
<path d="M38.2478 115.761C38.2478 116.045 38.0098 116.289 37.7208 116.289C37.4328 116.289 37.1958 116.045 37.1958 115.761C37.1958 115.47 37.4328 115.238 37.7208 115.238C38.0098 115.237 38.2478 115.47 38.2478 115.761Z" fill="#00B2E3"/>
<path d="M41.8581 101.857C41.8581 102.142 41.6191 102.384 41.3311 102.384C41.0421 102.384 40.8071 102.142 40.8071 101.857C40.8071 101.568 41.0421 101.332 41.3311 101.332C41.6191 101.332 41.8581 101.568 41.8581 101.857Z" fill="#00B2E3"/>
<path d="M41.2859 95.2164C41.2859 95.5024 41.0459 95.7434 40.7579 95.7434C40.4699 95.7434 40.2339 95.5024 40.2339 95.2164C40.2339 94.9264 40.4699 94.6914 40.7579 94.6914C41.0459 94.6914 41.2859 94.9264 41.2859 95.2164Z" fill="#00B2E3"/>
<path d="M36.1789 95.5542C36.1789 95.8402 35.9389 96.0833 35.6519 96.0833C35.3619 96.0833 35.1279 95.8402 35.1279 95.5542C35.1279 95.2652 35.3619 95.0313 35.6519 95.0313C35.9379 95.0303 36.1789 95.2652 36.1789 95.5542Z" fill="#00B2E3"/>
<path d="M39.3689 87.482C39.3689 87.767 39.1299 88.008 38.8419 88.008C38.5529 88.008 38.3169 87.767 38.3169 87.482C38.3169 87.192 38.5529 86.957 38.8419 86.957C39.1299 86.957 39.3689 87.192 39.3689 87.482Z" fill="#00B2E3"/>
<path d="M50.5412 86.3013C50.5412 86.5853 50.3032 86.8293 50.0152 86.8293C49.7262 86.8293 49.4902 86.5853 49.4902 86.3013C49.4902 86.0123 49.7262 85.7773 50.0152 85.7773C50.3032 85.7763 50.5412 86.0123 50.5412 86.3013Z" fill="#00B2E3"/>
<path d="M44.5408 80.1451C44.5408 80.4281 44.3008 80.6721 44.0128 80.6721C43.7238 80.6721 43.4888 80.4281 43.4888 80.1451C43.4888 79.8551 43.7238 79.6211 44.0128 79.6211C44.3008 79.6211 44.5408 79.8551 44.5408 80.1451Z" fill="#00B2E3"/>
<path d="M58.614 74.1578C58.614 74.4428 58.375 74.6848 58.086 74.6848C57.798 74.6848 57.562 74.4428 57.562 74.1578C57.562 73.8678 57.798 73.6328 58.086 73.6328C58.375 73.6328 58.614 73.8678 58.614 74.1578Z" fill="#00B2E3"/>
<path d="M58.8152 85.3013C58.8152 85.5873 58.5772 85.8293 58.2892 85.8293C57.9992 85.8293 57.7642 85.5873 57.7642 85.3013C57.7642 85.0123 57.9992 84.7773 58.2892 84.7773C58.5772 84.7763 58.8152 85.0123 58.8152 85.3013Z" fill="#00B2E3"/>
<path d="M66.0969 85.5826C66.0969 85.8676 65.8579 86.1096 65.5699 86.1096C65.2799 86.1096 65.0449 85.8676 65.0449 85.5826C65.0449 85.2916 65.2799 85.0586 65.5699 85.0586C65.8569 85.0586 66.0969 85.2916 66.0969 85.5826Z" fill="#00B2E3"/>
<path d="M73.3069 86.9C73.3069 87.184 73.0679 87.427 72.7789 87.427C72.4909 87.427 72.2559 87.184 72.2559 86.9C72.2559 86.61 72.4909 86.375 72.7789 86.375C73.0669 86.375 73.3069 86.61 73.3069 86.9Z" fill="#00B2E3"/>
<path d="M75.4079 84.3746C75.4079 84.6606 75.1689 84.9036 74.8799 84.9036C74.5919 84.9036 74.3569 84.6606 74.3569 84.3746C74.3569 84.0856 74.5919 83.8516 74.8799 83.8516C75.1689 83.8516 75.4079 84.0856 75.4079 84.3746Z" fill="#00B2E3"/>
<path d="M72.9421 80.8297C72.9421 81.1147 72.7011 81.3567 72.4141 81.3567C72.1251 81.3567 71.8911 81.1147 71.8911 80.8297C71.8911 80.5397 72.1251 80.3047 72.4141 80.3047C72.7011 80.3047 72.9421 80.5397 72.9421 80.8297Z" fill="#00B2E3"/>
<path d="M68.7932 79.6451C68.7932 79.9311 68.5532 80.1731 68.2662 80.1731C67.9762 80.1731 67.7402 79.9311 67.7402 79.6451C67.7402 79.3551 67.9762 79.1211 68.2662 79.1211C68.5532 79.1211 68.7932 79.3551 68.7932 79.6451Z" fill="#00B2E3"/>
<path d="M67.9119 75.7115C67.9119 75.9965 67.6729 76.2395 67.3839 76.2395C67.0949 76.2395 66.8599 75.9965 66.8599 75.7115C66.8599 75.4225 67.0949 75.1875 67.3839 75.1875C67.6729 75.1875 67.9119 75.4225 67.9119 75.7115Z" fill="#00B2E3"/>
<path d="M74.0432 73.7555C74.0432 74.0405 73.8042 74.2835 73.5162 74.2835C73.2272 74.2835 72.9922 74.0405 72.9922 73.7555C72.9922 73.4655 73.2272 73.2305 73.5162 73.2305C73.8042 73.2295 74.0432 73.4655 74.0432 73.7555Z" fill="#00B2E3"/>
<path d="M77.1169 73.1998C77.1169 73.4848 76.8779 73.7258 76.5899 73.7258C76.3009 73.7258 76.0659 73.4848 76.0659 73.1998C76.0659 72.9098 76.3009 72.6758 76.5899 72.6758C76.8779 72.6758 77.1169 72.9098 77.1169 73.1998Z" fill="#00B2E3"/>
<path d="M82.2908 71.5211C82.2908 71.8071 82.0518 72.0481 81.7638 72.0481C81.4758 72.0481 81.2388 71.8071 81.2388 71.5211C81.2388 71.2311 81.4758 70.9961 81.7638 70.9961C82.0518 70.9961 82.2908 71.2301 82.2908 71.5211Z" fill="#00B2E3"/>
<path d="M90.513 87.8433C90.513 88.1283 90.2739 88.3723 89.9839 88.3723C89.6959 88.3723 89.46 88.1283 89.46 87.8433C89.46 87.5543 89.6959 87.3203 89.9839 87.3203C90.2729 87.3193 90.513 87.5543 90.513 87.8433Z" fill="#00B2E3"/>
<path d="M94.5842 86.9342C94.5842 87.2192 94.3432 87.4622 94.0542 87.4622C93.7672 87.4622 93.5312 87.2192 93.5312 86.9342C93.5312 86.6452 93.7672 86.4102 94.0542 86.4102C94.3432 86.4092 94.5842 86.6452 94.5842 86.9342Z" fill="#00B2E3"/>
<path d="M101.625 84.6334C101.625 84.9174 101.387 85.1614 101.099 85.1614C100.81 85.1614 100.574 84.9174 100.574 84.6334C100.574 84.3444 100.81 84.1094 101.099 84.1094C101.387 84.1084 101.625 84.3444 101.625 84.6334Z" fill="#00B2E3"/>
<path d="M105.417 88.3737C105.417 88.6587 105.178 88.8997 104.89 88.8997C104.601 88.8997 104.366 88.6587 104.366 88.3737C104.366 88.0827 104.601 87.8477 104.89 87.8477C105.178 87.8477 105.417 88.0827 105.417 88.3737Z" fill="#00B2E3"/>
<path d="M111.119 72.1949C111.119 72.4809 110.88 72.7229 110.591 72.7229C110.302 72.7229 110.068 72.4809 110.068 72.1949C110.068 71.9059 110.302 71.6719 110.591 71.6719C110.88 71.6719 111.119 71.9059 111.119 72.1949Z" fill="#00B2E3"/>
<path d="M105.117 66.0435C105.117 66.3285 104.88 66.5705 104.589 66.5705C104.301 66.5705 104.067 66.3285 104.067 66.0435C104.067 65.7535 104.301 65.5195 104.589 65.5195C104.88 65.5195 105.117 65.7535 105.117 66.0435Z" fill="#00B2E3"/>
<path d="M96.8459 67.0445C96.8459 67.3285 96.6079 67.5715 96.3189 67.5715C96.0299 67.5715 95.7949 67.3285 95.7949 67.0445C95.7949 66.7535 96.0299 66.5195 96.3189 66.5195C96.6079 66.5195 96.8459 66.7535 96.8459 67.0445Z" fill="#00B2E3"/>
<path d="M89.5628 66.7623C89.5628 67.0473 89.3238 67.2893 89.0348 67.2893C88.7448 67.2893 88.5098 67.0473 88.5098 66.7623C88.5098 66.4723 88.7448 66.2383 89.0348 66.2383C89.3238 66.2373 89.5628 66.4723 89.5628 66.7623Z" fill="#00B2E3"/>
<path d="M87.2532 64.3638C87.2532 64.6508 87.0152 64.8918 86.7272 64.8918C86.4362 64.8918 86.2021 64.6508 86.2021 64.3638C86.2021 64.0748 86.4362 63.8398 86.7272 63.8398C87.0152 63.8398 87.2532 64.0748 87.2532 64.3638Z" fill="#00B2E3"/>
<path d="M75.406 61.4029C75.406 61.6889 75.168 61.9309 74.88 61.9309C74.589 61.9309 74.355 61.6889 74.355 61.4029C74.355 61.1139 74.589 60.8789 74.88 60.8789C75.168 60.8789 75.406 61.1139 75.406 61.4029Z" fill="#00B2E3"/>
<path d="M65.1481 64.5016C65.1481 64.7846 64.9111 65.0276 64.6221 65.0276C64.3331 65.0276 64.0981 64.7846 64.0981 64.5016C64.0981 64.2106 64.3331 63.9766 64.6221 63.9766C64.9111 63.9766 65.1481 64.2106 65.1481 64.5016Z" fill="#00B2E3"/>
<path d="M61.075 65.4117C61.075 65.6967 60.836 65.9387 60.547 65.9387C60.259 65.9387 60.0229 65.6967 60.0229 65.4117C60.0229 65.1207 60.259 64.8867 60.547 64.8867C60.836 64.8867 61.075 65.1207 61.075 65.4117Z" fill="#00B2E3"/>
<path d="M54.0339 67.7115C54.0339 67.9965 53.7949 68.2395 53.5059 68.2395C53.2179 68.2395 52.9819 67.9965 52.9819 67.7115C52.9819 67.4215 53.2179 67.1875 53.5059 67.1875C53.7949 67.1865 54.0339 67.4215 54.0339 67.7115Z" fill="#00B2E3"/>
<path d="M50.2409 63.9703C50.2409 64.2553 50.0029 64.4973 49.7139 64.4973C49.4249 64.4973 49.1899 64.2553 49.1899 63.9703C49.1899 63.6803 49.4249 63.4453 49.7139 63.4453C50.0029 63.4453 50.2409 63.6803 50.2409 63.9703Z" fill="#00B2E3"/>
<path d="M55.5119 51.4957C55.5119 51.7807 55.2739 52.0237 54.9849 52.0237C54.6959 52.0237 54.4609 51.7807 54.4609 51.4957C54.4609 51.2067 54.6959 50.9727 54.9849 50.9727C55.2739 50.9727 55.5119 51.2067 55.5119 51.4957Z" fill="#00B2E3"/>
<path d="M67.9089 50.5045C67.9089 50.7895 67.6699 51.0325 67.3809 51.0325C67.0929 51.0325 66.8569 50.7895 66.8569 50.5045C66.8569 50.2155 67.0929 49.9805 67.3809 49.9805C67.6699 49.9795 67.9089 50.2155 67.9089 50.5045Z" fill="#00B2E3"/>
<path d="M58.4382 44.8375C58.4382 45.1225 58.2002 45.3655 57.9122 45.3655C57.6222 45.3655 57.3862 45.1225 57.3862 44.8375C57.3862 44.5475 57.6222 44.3125 57.9122 44.3125C58.2002 44.3125 58.4382 44.5475 58.4382 44.8375Z" fill="#00B2E3"/>
<path d="M38.9339 41.8638C38.9339 42.1488 38.6939 42.3918 38.4059 42.3918C38.1169 42.3918 37.8799 42.1488 37.8799 41.8638C37.8799 41.5738 38.1169 41.3398 38.4059 41.3398C38.6929 41.3398 38.9339 41.5738 38.9339 41.8638Z" fill="#00B2E3"/>
<path d="M35.5539 46.8922C35.5539 47.1762 35.3159 47.4192 35.0279 47.4192C34.7379 47.4192 34.5029 47.1762 34.5029 46.8922C34.5029 46.6022 34.7379 46.3672 35.0279 46.3672C35.3149 46.3662 35.5539 46.6022 35.5539 46.8922Z" fill="#00B2E3"/>
<path d="M71.303 29.3638C71.303 29.6468 71.063 29.8909 70.775 29.8909C70.486 29.8909 70.251 29.6468 70.251 29.3638C70.251 29.0738 70.486 28.8398 70.775 28.8398C71.062 28.8398 71.303 29.0738 71.303 29.3638Z" fill="#00B2E3"/>
<path d="M76.6692 38.1763C76.6692 38.4613 76.4312 38.7033 76.1422 38.7033C75.8532 38.7033 75.6182 38.4613 75.6182 38.1763C75.6182 37.8873 75.8532 37.6523 76.1422 37.6523C76.4312 37.6523 76.6692 37.8873 76.6692 38.1763Z" fill="#00B2E3"/>
<path d="M86.3689 31.4918C86.3689 31.7768 86.1309 32.0198 85.8429 32.0198C85.5539 32.0198 85.3179 31.7768 85.3179 31.4918C85.3179 31.2028 85.5539 30.9688 85.8429 30.9688C86.1309 30.9688 86.3689 31.2028 86.3689 31.4918Z" fill="#00B2E3"/>
<path d="M92.7878 22.2037C92.7878 22.4887 92.5469 22.7317 92.2589 22.7317C91.9709 22.7317 91.7358 22.4887 91.7358 22.2037C91.7358 21.9147 91.9709 21.6797 92.2589 21.6797C92.5469 21.6797 92.7878 21.9147 92.7878 22.2037Z" fill="#00B2E3"/>
<path d="M75.4079 21.025C75.4079 21.31 75.1699 21.552 74.8809 21.552C74.5919 21.552 74.3569 21.31 74.3569 21.025C74.3569 20.735 74.5919 20.5 74.8809 20.5C75.1699 20.5 75.4079 20.735 75.4079 21.025Z" fill="#00B2E3"/>
<path d="M87.7468 46.5201C87.7468 46.8051 87.5068 47.0481 87.2188 47.0481C86.9318 47.0481 86.6958 46.8051 86.6958 46.5201C86.6958 46.2311 86.9318 45.9961 87.2188 45.9961C87.5068 45.9951 87.7468 46.2301 87.7468 46.5201Z" fill="#00B2E3"/>
<path d="M102.429 39.4352C102.429 39.7202 102.19 39.9632 101.902 39.9632C101.612 39.9632 101.378 39.7202 101.378 39.4352C101.378 39.1462 101.612 38.9102 101.902 38.9102C102.189 38.9092 102.429 39.1462 102.429 39.4352Z" fill="#00B2E3"/>
<path d="M105.964 43.7701C105.964 44.0541 105.723 44.2981 105.435 44.2981C105.148 44.2981 104.913 44.0541 104.913 43.7701C104.913 43.4811 105.148 43.2461 105.435 43.2461C105.723 43.2461 105.964 43.4811 105.964 43.7701Z" fill="#00B2E3"/>
<path d="M113.801 50.4878C113.801 50.7728 113.562 51.0158 113.273 51.0158C112.983 51.0158 112.747 50.7728 112.747 50.4878C112.747 50.1988 112.983 49.9648 113.273 49.9648C113.562 49.9648 113.801 50.1988 113.801 50.4878Z" fill="#00B2E3"/>
<path d="M119.483 56.7935C119.483 57.0775 119.244 57.3215 118.954 57.3215C118.665 57.3215 118.431 57.0775 118.431 56.7935C118.431 56.5035 118.665 56.2695 118.954 56.2695C119.244 56.2695 119.483 56.5035 119.483 56.7935Z" fill="#00B2E3"/>
<path d="M114.373 57.0826C114.373 57.3676 114.135 57.6106 113.846 57.6106C113.556 57.6106 113.32 57.3676 113.32 57.0826C113.32 56.7936 113.556 56.5586 113.846 56.5586C114.135 56.5586 114.373 56.7936 114.373 57.0826Z" fill="#00B2E3"/>
<path d="M116.291 64.8599C116.291 65.1449 116.053 65.3879 115.764 65.3879C115.473 65.3879 115.24 65.1449 115.24 64.8599C115.24 64.5709 115.473 64.3359 115.764 64.3359C116.053 64.3359 116.291 64.5709 116.291 64.8599Z" fill="#00B2E3"/>
<path d="M117.409 36.5826C117.409 36.8676 117.17 37.1096 116.883 37.1096C116.592 37.1096 116.358 36.8676 116.358 36.5826C116.358 36.2926 116.592 36.0586 116.883 36.0586C117.17 36.0586 117.409 36.2926 117.409 36.5826Z" fill="#00B2E3"/>
<path d="M120.103 105.45C120.103 105.735 119.866 105.978 119.577 105.978C119.289 105.978 119.052 105.735 119.052 105.45C119.052 105.159 119.289 104.926 119.577 104.926C119.865 104.926 120.103 105.159 120.103 105.45Z" fill="#00B2E3"/>
<path d="M141.951 146.345C141.951 146.782 141.594 147.135 141.163 147.135C140.725 147.135 140.373 146.781 140.373 146.345C140.373 145.909 140.725 145.555 141.163 145.555C141.594 145.555 141.951 145.909 141.951 146.345Z" fill="#00B2E3"/>
<path d="M131.136 140.003C131.136 140.441 130.779 140.793 130.348 140.793C129.91 140.793 129.557 140.44 129.557 140.003C129.557 139.568 129.911 139.215 130.348 139.215C130.778 139.215 131.136 139.568 131.136 140.003Z" fill="#00B2E3"/>
<path d="M108.371 151.561C108.371 152.001 108.017 152.351 107.585 152.351C107.148 152.351 106.794 152.001 106.794 151.561C106.794 151.126 107.148 150.77 107.585 150.77C108.017 150.77 108.371 151.126 108.371 151.561Z" fill="#00B2E3"/>
<path d="M135.307 114.711C135.307 115.15 134.952 115.502 134.521 115.502C134.083 115.502 133.73 115.15 133.73 114.711C133.73 114.275 134.084 113.922 134.521 113.922C134.951 113.922 135.307 114.275 135.307 114.711Z" fill="#00B2E3"/>
<path d="M109.564 122.566C109.564 123.005 109.208 123.356 108.777 123.356C108.338 123.356 107.984 123.005 107.984 122.566C107.984 122.131 108.338 121.777 108.777 121.777C109.208 121.777 109.564 122.132 109.564 122.566Z" fill="#00B2E3"/>
<path d="M107.507 129.575C107.507 130.013 107.15 130.362 106.718 130.362C106.282 130.362 105.928 130.012 105.928 129.575C105.928 129.139 106.282 128.785 106.718 128.785C107.149 128.785 107.507 129.14 107.507 129.575Z" fill="#00B2E3"/>
<path d="M93.9931 140.149C93.9931 140.587 93.6371 140.938 93.2061 140.938C92.7681 140.938 92.4141 140.586 92.4141 140.149C92.4141 139.714 92.7681 139.359 93.2061 139.359C93.6371 139.359 93.9931 139.715 93.9931 140.149Z" fill="#00B2E3"/>
<path d="M94.6772 124.66C94.6772 125.098 94.3192 125.452 93.8882 125.452C93.4522 125.452 93.0962 125.098 93.0962 124.66C93.0962 124.224 93.4522 123.871 93.8882 123.871C94.3182 123.871 94.6772 124.225 94.6772 124.66Z" fill="#00B2E3"/>
<path d="M90.9389 119.517C90.9389 119.955 90.5829 120.307 90.1499 120.307C89.7129 120.307 89.3599 119.955 89.3599 119.517C89.3599 119.082 89.7139 118.727 90.1499 118.727C90.5829 118.727 90.9389 119.082 90.9389 119.517Z" fill="#00B2E3"/>
<path d="M89.9798 125.865C89.9798 126.303 89.6248 126.655 89.1948 126.655C88.7568 126.655 88.4028 126.303 88.4028 125.865C88.4028 125.431 88.7568 125.078 89.1948 125.078C89.6248 125.078 89.9798 125.432 89.9798 125.865Z" fill="#00B2E3"/>
<path d="M105.854 110.148C105.854 110.586 105.5 110.937 105.068 110.937C104.63 110.937 104.276 110.585 104.276 110.148C104.276 109.712 104.63 109.359 105.068 109.359C105.499 109.359 105.854 109.713 105.854 110.148Z" fill="#00B2E3"/>
<path d="M103.511 100.005C103.511 100.443 103.155 100.794 102.723 100.794C102.285 100.794 101.933 100.443 101.933 100.005C101.933 99.5698 102.286 99.2148 102.723 99.2148C103.154 99.2148 103.511 99.5698 103.511 100.005Z" fill="#00B2E3"/>
<path d="M115.423 95.707C115.423 96.145 115.065 96.497 114.635 96.497C114.199 96.497 113.845 96.144 113.845 95.707C113.845 95.271 114.199 94.918 114.635 94.918C115.064 94.918 115.423 95.271 115.423 95.707Z" fill="#00B2E3"/>
<path d="M116.351 91.0078C116.351 91.4468 115.995 91.7977 115.565 91.7977C115.126 91.7977 114.773 91.4468 114.773 91.0078C114.773 90.5718 115.126 90.2188 115.565 90.2188C115.994 90.2187 116.351 90.5718 116.351 91.0078Z" fill="#00B2E3"/>
<path d="M125.798 95.2294C125.798 95.6674 125.442 96.0194 125.011 96.0194C124.573 96.0194 124.219 95.6674 124.219 95.2294C124.219 94.7944 124.573 94.4414 125.011 94.4414C125.441 94.4414 125.798 94.7954 125.798 95.2294Z" fill="#00B2E3"/>
<path d="M103.485 81.2031C103.485 81.6411 103.129 81.9931 102.697 81.9931C102.259 81.9931 101.905 81.6411 101.905 81.2031C101.905 80.7671 102.259 80.4141 102.697 80.4141C103.129 80.4141 103.485 80.7681 103.485 81.2031Z" fill="#00B2E3"/>
<path d="M99.8159 76.6377C99.8159 77.0767 99.4579 77.4277 99.0259 77.4277C98.5879 77.4277 98.2349 77.0767 98.2349 76.6377C98.2349 76.2017 98.5879 75.8477 99.0259 75.8477C99.4579 75.8477 99.8159 76.2017 99.8159 76.6377Z" fill="#00B2E3"/>
<path d="M102.534 72.4609C102.534 72.8999 102.179 73.2499 101.747 73.2499C101.309 73.2499 100.956 72.8999 100.956 72.4609C100.956 72.0269 101.309 71.6719 101.747 71.6719C102.179 71.6719 102.534 72.0269 102.534 72.4609Z" fill="#00B2E3"/>
<path d="M107.341 80.6835C107.341 81.1225 106.984 81.4735 106.554 81.4735C106.116 81.4735 105.761 81.1225 105.761 80.6835C105.761 80.2495 106.115 79.8945 106.554 79.8945C106.983 79.8945 107.341 80.2495 107.341 80.6835Z" fill="#00B2E3"/>
<path d="M95.0629 93.1142C95.0629 93.5522 94.7079 93.9042 94.2759 93.9042C93.8379 93.9042 93.4839 93.5522 93.4839 93.1142C93.4839 92.6792 93.8379 92.3242 94.2759 92.3242C94.7079 92.3242 95.0629 92.6802 95.0629 93.1142Z" fill="#00B2E3"/>
<path d="M95.5312 98.1025C95.5312 98.5415 95.1751 98.8925 94.7451 98.8925C94.3071 98.8925 93.9521 98.5415 93.9521 98.1025C93.9521 97.6685 94.3061 97.3125 94.7451 97.3125C95.1751 97.3115 95.5312 97.6685 95.5312 98.1025Z" fill="#00B2E3"/>
<path d="M87.2528 97.5166C87.2528 97.9546 86.8978 98.3046 86.4658 98.3046C86.0288 98.3046 85.6738 97.9536 85.6738 97.5166C85.6738 97.0796 86.0288 96.7266 86.4658 96.7266C86.8968 96.7266 87.2528 97.0796 87.2528 97.5166Z" fill="#00B2E3"/>
<path d="M84.289 99.6377C84.289 100.077 83.932 100.427 83.503 100.427C83.064 100.427 82.709 100.077 82.709 99.6377C82.709 99.2017 83.063 98.8477 83.503 98.8477C83.932 98.8477 84.289 99.2017 84.289 99.6377Z" fill="#00B2E3"/>
<path d="M86.5619 104.606C86.5619 105.045 86.2049 105.396 85.7729 105.396C85.3369 105.396 84.9829 105.045 84.9829 104.606C84.9829 104.17 85.3369 103.816 85.7729 103.816C86.2039 103.816 86.5619 104.171 86.5619 104.606Z" fill="#00B2E3"/>
<path d="M84.5238 108.027C84.5238 108.465 84.1688 108.816 83.7358 108.816C83.2978 108.816 82.9468 108.464 82.9468 108.027C82.9468 107.591 83.2988 107.238 83.7358 107.238C84.1688 107.238 84.5238 107.592 84.5238 108.027Z" fill="#00B2E3"/>
<path d="M78.6112 105.825C78.6112 106.263 78.2552 106.615 77.8252 106.615C77.3862 106.615 77.0312 106.263 77.0312 105.825C77.0312 105.39 77.3852 105.035 77.8252 105.035C78.2552 105.035 78.6112 105.391 78.6112 105.825Z" fill="#00B2E3"/>
<path d="M71.123 103.849C71.123 104.287 70.767 104.639 70.336 104.639C69.898 104.639 69.543 104.287 69.543 103.849C69.543 103.413 69.897 103.059 70.336 103.059C70.767 103.059 71.123 103.413 71.123 103.849Z" fill="#00B2E3"/>
<path d="M69.8178 98.0429C69.8178 98.4809 69.4608 98.8319 69.0298 98.8319C68.5918 98.8319 68.2378 98.4809 68.2378 98.0429C68.2378 97.6069 68.5918 97.2539 69.0298 97.2539C69.4608 97.2539 69.8178 97.6069 69.8178 98.0429Z" fill="#00B2E3"/>
<path d="M75.2362 93.5283C75.2362 93.9663 74.8782 94.3163 74.4492 94.3163C74.0112 94.3163 73.6562 93.9653 73.6562 93.5283C73.6562 93.0923 74.0112 92.7383 74.4492 92.7383C74.8782 92.7383 75.2362 93.0933 75.2362 93.5283Z" fill="#00B2E3"/>
<path d="M78.6102 83.5986C78.6102 84.0366 78.2542 84.3886 77.8242 84.3886C77.3852 84.3886 77.0322 84.0366 77.0322 83.5986C77.0322 83.1626 77.3852 82.8086 77.8242 82.8086C78.2542 82.8086 78.6102 83.1626 78.6102 83.5986Z" fill="#00B2E3"/>
<path d="M82.3178 85.5634C82.3178 86.0014 81.9598 86.3534 81.5298 86.3534C81.0928 86.3534 80.7388 86.0014 80.7388 85.5634C80.7388 85.1274 81.0928 84.7734 81.5298 84.7734C81.9598 84.7724 82.3178 85.1274 82.3178 85.5634Z" fill="#00B2E3"/>
<path d="M88.327 77.4111C88.327 77.8491 87.971 78.2011 87.54 78.2011C87.102 78.2011 86.748 77.8491 86.748 77.4111C86.748 76.9751 87.102 76.6211 87.54 76.6211C87.971 76.6211 88.327 76.9761 88.327 77.4111Z" fill="#00B2E3"/>
<path d="M81.6049 75.122C81.6049 75.561 81.2469 75.912 80.8179 75.912C80.3789 75.912 80.0259 75.561 80.0259 75.122C80.0259 74.687 80.3789 74.332 80.8179 74.332C81.2469 74.332 81.6049 74.688 81.6049 75.122Z" fill="#00B2E3"/>
<path d="M92.1698 65.0439C92.1698 65.4829 91.8128 65.8339 91.3828 65.8339C90.9458 65.8339 90.5928 65.4829 90.5928 65.0439C90.5928 64.6079 90.9468 64.2539 91.3828 64.2539C91.8118 64.2539 92.1698 64.6079 92.1698 65.0439Z" fill="#00B2E3"/>
<path d="M99.8788 63.8788C99.8788 64.3178 99.5238 64.6688 99.0928 64.6688C98.6548 64.6688 98.3018 64.3178 98.3018 63.8788C98.3018 63.4438 98.6548 63.0898 99.0928 63.0898C99.5228 63.0898 99.8788 63.4438 99.8788 63.8788Z" fill="#00B2E3"/>
<path d="M109.44 70.4882C109.44 70.9262 109.083 71.2772 108.651 71.2772C108.215 71.2772 107.861 70.9262 107.861 70.4882C107.861 70.0522 108.215 69.6992 108.651 69.6992C109.083 69.6992 109.44 70.0532 109.44 70.4882Z" fill="#00B2E3"/>
<path d="M103.923 57.0624C103.923 57.5014 103.567 57.8524 103.137 57.8524C102.699 57.8524 102.345 57.5014 102.345 57.0624C102.345 56.6274 102.699 56.2734 103.137 56.2734C103.566 56.2724 103.923 56.6274 103.923 57.0624Z" fill="#00B2E3"/>
<path d="M102.838 52.8085C102.838 53.2465 102.481 53.5975 102.05 53.5975C101.612 53.5975 101.259 53.2465 101.259 52.8085C101.259 52.3725 101.612 52.0195 102.05 52.0195C102.48 52.0195 102.838 52.3725 102.838 52.8085Z" fill="#00B2E3"/>
<path d="M99.8159 54.5595C99.8159 54.9975 99.4579 55.3485 99.0259 55.3485C98.5879 55.3485 98.2349 54.9975 98.2349 54.5595C98.2349 54.1245 98.5879 53.7695 99.0259 53.7695C99.4579 53.7695 99.8159 54.1245 99.8159 54.5595Z" fill="#00B2E3"/>
<path d="M93.7558 59.6376C93.7558 60.0766 93.4008 60.4267 92.9688 60.4267C92.5308 60.4267 92.1768 60.0766 92.1768 59.6376C92.1768 59.2016 92.5308 58.8477 92.9688 58.8477C93.3997 58.8477 93.7558 59.2016 93.7558 59.6376Z" fill="#00B2E3"/>
<path d="M85.6239 53.5663C85.6239 54.0043 85.2689 54.3553 84.8379 54.3553C84.3999 54.3553 84.0459 54.0043 84.0459 53.5663C84.0459 53.1313 84.3999 52.7773 84.8379 52.7773C85.2689 52.7773 85.6239 53.1323 85.6239 53.5663Z" fill="#00B2E3"/>
<path d="M79.3891 61.5302C79.3891 61.9682 79.0311 62.3192 78.6011 62.3192C78.1631 62.3192 77.8081 61.9682 77.8081 61.5302C77.8081 61.0952 78.1631 60.7422 78.6011 60.7422C79.0301 60.7422 79.3891 61.0962 79.3891 61.5302Z" fill="#00B2E3"/>
<path d="M71.8959 52.7109C71.8959 53.1489 71.5399 53.4999 71.1109 53.4999C70.6719 53.4999 70.3179 53.1479 70.3179 52.7109C70.3179 52.2749 70.6719 51.9219 71.1109 51.9219C71.5389 51.9219 71.8959 52.2749 71.8959 52.7109Z" fill="#00B2E3"/>
<path d="M68.933 54.8349C68.933 55.2739 68.576 55.6249 68.145 55.6249C67.707 55.6249 67.354 55.2739 67.354 54.8349C67.354 54.4009 67.708 54.0469 68.145 54.0469C68.575 54.0469 68.933 54.4009 68.933 54.8349Z" fill="#00B2E3"/>
<path d="M69.6249 47.7372C69.6249 48.1752 69.2669 48.5272 68.8369 48.5272C68.3989 48.5272 68.0449 48.1752 68.0449 47.7372C68.0449 47.3022 68.3989 46.9492 68.8369 46.9492C69.2669 46.9492 69.6249 47.3032 69.6249 47.7372Z" fill="#00B2E3"/>
<path d="M71.6591 44.3212C71.6591 44.7602 71.3041 45.1113 70.8721 45.1113C70.4341 45.1113 70.0801 44.7602 70.0801 44.3212C70.0801 43.8862 70.4341 43.5313 70.8721 43.5313C71.3041 43.5312 71.6591 43.8872 71.6591 44.3212Z" fill="#00B2E3"/>
<path d="M77.5731 46.5195C77.5731 46.9575 77.2171 47.3095 76.7871 47.3095C76.3481 47.3095 75.9941 46.9575 75.9941 46.5195C75.9941 46.0835 76.3481 45.7305 76.7871 45.7305C77.2171 45.7305 77.5731 46.0845 77.5731 46.5195Z" fill="#00B2E3"/>
<path d="M85.0619 48.496C85.0619 48.934 84.7049 49.285 84.2759 49.285C83.8369 49.285 83.4829 48.934 83.4829 48.496C83.4829 48.06 83.8369 47.707 84.2759 47.707C84.7049 47.707 85.0619 48.061 85.0619 48.496Z" fill="#00B2E3"/>
<path d="M87.2689 38.789C87.2689 39.227 86.9139 39.578 86.4829 39.578C86.0449 39.578 85.6899 39.226 85.6899 38.789C85.6899 38.354 86.0449 38 86.4829 38C86.9129 38 87.2689 38.354 87.2689 38.789Z" fill="#00B2E3"/>
<path d="M101.995 43.4492C101.995 43.8872 101.638 44.2392 101.207 44.2392C100.769 44.2392 100.415 43.8862 100.415 43.4492C100.415 43.0142 100.769 42.6602 101.207 42.6602C101.638 42.6602 101.995 43.0152 101.995 43.4492Z" fill="#00B2E3"/>
<path d="M109.587 45.8281C109.587 46.2671 109.231 46.6171 108.8 46.6171C108.362 46.6171 108.009 46.2671 108.009 45.8281C108.009 45.3921 108.362 45.0391 108.8 45.0391C109.23 45.0391 109.587 45.3931 109.587 45.8281Z" fill="#00B2E3"/>
<path d="M117.863 52.957C117.863 53.396 117.507 53.747 117.075 53.747C116.637 53.747 116.284 53.396 116.284 52.957C116.284 52.522 116.637 52.168 117.075 52.168C117.507 52.168 117.863 52.522 117.863 52.957Z" fill="#00B2E3"/>
<path d="M119.198 47.6845C119.198 48.1225 118.843 48.4735 118.414 48.4735C117.975 48.4735 117.62 48.1225 117.62 47.6845C117.62 47.2485 117.974 46.8945 118.414 46.8945C118.843 46.8945 119.198 47.2485 119.198 47.6845Z" fill="#00B2E3"/>
<path d="M120.682 42.039C120.682 42.478 120.327 42.829 119.895 42.829C119.456 42.829 119.103 42.478 119.103 42.039C119.103 41.604 119.456 41.25 119.895 41.25C120.326 41.25 120.682 41.605 120.682 42.039Z" fill="#00B2E3"/>
<path d="M126.033 40.4882C126.033 40.9272 125.676 41.2772 125.245 41.2772C124.807 41.2772 124.453 40.9272 124.453 40.4882C124.453 40.0532 124.807 39.6992 125.245 39.6992C125.676 39.6992 126.033 40.0542 126.033 40.4882Z" fill="#00B2E3"/>
<path d="M131.242 44.7578C131.242 45.1968 130.886 45.5477 130.455 45.5477C130.017 45.5477 129.663 45.1968 129.663 44.7578C129.663 44.3228 130.017 43.9688 130.455 43.9688C130.886 43.9688 131.242 44.3228 131.242 44.7578Z" fill="#00B2E3"/>
<path d="M129.968 52.0497C129.968 52.4887 129.609 52.8397 129.18 52.8397C128.742 52.8397 128.388 52.4887 128.388 52.0497C128.388 51.6157 128.742 51.2617 129.18 51.2617C129.608 51.2617 129.968 51.6157 129.968 52.0497Z" fill="#00B2E3"/>
<path d="M133.119 29.7841C133.119 30.2231 132.762 30.5741 132.331 30.5741C131.893 30.5741 131.539 30.2231 131.539 29.7841C131.539 29.3491 131.893 28.9961 132.331 28.9961C132.762 28.9961 133.119 29.3501 133.119 29.7841Z" fill="#00B2E3"/>
<path d="M147.003 16.6786C147.003 17.1176 146.646 17.4686 146.217 17.4686C145.779 17.4686 145.424 17.1176 145.424 16.6786C145.424 16.2436 145.778 15.8906 146.217 15.8906C146.646 15.8906 147.003 16.2436 147.003 16.6786Z" fill="#00B2E3"/>
<path d="M121.519 22.8359C121.519 23.2739 121.162 23.6259 120.733 23.6259C120.295 23.6259 119.94 23.2739 119.94 22.8359C119.94 22.4009 120.295 22.0469 120.733 22.0469C121.161 22.0469 121.519 22.4009 121.519 22.8359Z" fill="#00B2E3"/>
<path d="M115.787 27.2392C115.787 27.6772 115.431 28.0292 115 28.0292C114.562 28.0292 114.208 27.6772 114.208 27.2392C114.208 26.8042 114.562 26.4492 115 26.4492C115.431 26.4492 115.787 26.8052 115.787 27.2392Z" fill="#00B2E3"/>
<path d="M113.426 16.2275C113.426 16.6655 113.068 17.0165 112.64 17.0165C112.201 17.0165 111.848 16.6655 111.848 16.2275C111.848 15.7915 112.201 15.4375 112.64 15.4375C113.067 15.4375 113.426 15.7915 113.426 16.2275Z" fill="#00B2E3"/>
<path d="M123.283 2.77828C123.283 3.21628 122.928 3.56828 122.496 3.56828C122.057 3.56828 121.704 3.21628 121.704 2.77828C121.704 2.34328 122.057 1.98828 122.496 1.98828C122.928 1.98828 123.283 2.34428 123.283 2.77828Z" fill="#00B2E3"/>
<path d="M105.738 1.56635C105.738 2.00435 105.383 2.35535 104.951 2.35535C104.513 2.35535 104.161 2.00435 104.161 1.56635C104.161 1.13035 104.514 0.777344 104.951 0.777344C105.383 0.777344 105.738 1.13135 105.738 1.56635Z" fill="#00B2E3"/>
<path d="M95.1928 15.7548C95.1928 16.1928 94.8358 16.5448 94.4058 16.5448C93.9678 16.5448 93.6138 16.1928 93.6138 15.7548C93.6138 15.3188 93.9678 14.9648 94.4058 14.9648C94.8358 14.9648 95.1928 15.3188 95.1928 15.7548Z" fill="#00B2E3"/>
<path d="M101.069 27.289C101.069 27.727 100.714 28.079 100.283 28.079C99.8452 28.079 99.4912 27.727 99.4912 27.289C99.4912 26.853 99.8452 26.5 100.283 26.5C100.714 26.5 101.069 26.854 101.069 27.289Z" fill="#00B2E3"/>
<path d="M96.7338 29.5038C96.7338 29.9418 96.3778 30.2928 95.9478 30.2928C95.5098 30.2928 95.1548 29.9418 95.1548 29.5038C95.1548 29.0688 95.5088 28.7148 95.9478 28.7148C96.3778 28.7148 96.7338 29.0688 96.7338 29.5038Z" fill="#00B2E3"/>
<path d="M84.561 26.1093C84.561 26.5473 84.2049 26.8993 83.7729 26.8993C83.3349 26.8993 82.981 26.5473 82.981 26.1093C82.981 25.6733 83.3349 25.3203 83.7729 25.3203C84.2039 25.3203 84.561 25.6743 84.561 26.1093Z" fill="#00B2E3"/>
<path d="M66.207 26.4814C66.207 26.9194 65.849 27.2704 65.418 27.2704C64.98 27.2704 64.627 26.9194 64.627 26.4814C64.627 26.0454 64.981 25.6914 65.418 25.6914C65.849 25.6914 66.207 26.0464 66.207 26.4814Z" fill="#00B2E3"/>
<path d="M62.1932 12.2031C62.1932 12.6421 61.8372 12.9931 61.4062 12.9931C60.9682 12.9931 60.6152 12.6421 60.6152 12.2031C60.6152 11.7671 60.9692 11.4141 61.4062 11.4141C61.8372 11.4141 62.1932 11.7681 62.1932 12.2031Z" fill="#00B2E3"/>
<path d="M61.5082 27.6874C61.5082 28.1254 61.1512 28.4764 60.7212 28.4764C60.2832 28.4764 59.9292 28.1254 59.9292 27.6874C59.9292 27.2524 60.2832 26.8984 60.7212 26.8984C61.1502 26.8974 61.5082 27.2524 61.5082 27.6874Z" fill="#00B2E3"/>
<path d="M65.246 32.833C65.246 33.272 64.889 33.623 64.459 33.623C64.021 33.623 63.668 33.272 63.668 32.833C63.668 32.397 64.021 32.043 64.459 32.043C64.889 32.043 65.246 32.397 65.246 32.833Z" fill="#00B2E3"/>
<path d="M48.683 22.7705C48.683 23.2085 48.327 23.5605 47.896 23.5605C47.458 23.5605 47.104 23.2085 47.104 22.7705C47.104 22.3345 47.458 21.9805 47.896 21.9805C48.326 21.9795 48.683 22.3345 48.683 22.7705Z" fill="#00B2E3"/>
<path d="M46.6181 29.7812C46.6181 30.2192 46.2611 30.5712 45.8291 30.5712C45.3911 30.5712 45.0381 30.2192 45.0381 29.7812C45.0381 29.3462 45.3921 28.9922 45.8291 28.9922C46.2611 28.9922 46.6181 29.3472 46.6181 29.7812Z" fill="#00B2E3"/>
<path d="M47.811 0.789001C47.811 1.227 47.4529 1.578 47.0229 1.578C46.5849 1.578 46.231 1.227 46.231 0.789001C46.231 0.353001 46.5849 0 47.0229 0C47.4519 0 47.811 0.354001 47.811 0.789001Z" fill="#00B2E3"/>
<path d="M16.4291 5.95016C16.4291 6.38816 16.0721 6.73916 15.6411 6.73916C15.2041 6.73916 14.8501 6.38816 14.8501 5.95016C14.8501 5.51516 15.2041 5.16016 15.6411 5.16016C16.0711 5.16016 16.4291 5.51616 16.4291 5.95016Z" fill="#00B2E3"/>
<path d="M25.0521 12.3476C25.0521 12.7856 24.6971 13.1376 24.2651 13.1376C23.8271 13.1376 23.4731 12.7856 23.4731 12.3476C23.4731 11.9126 23.8271 11.5586 24.2651 11.5586C24.6961 11.5586 25.0521 11.9126 25.0521 12.3476Z" fill="#00B2E3"/>
<path d="M20.8788 37.6367C20.8788 38.0757 20.5218 38.4267 20.0908 38.4267C19.6528 38.4267 19.2998 38.0757 19.2998 37.6367C19.2998 37.2007 19.6538 36.8477 20.0908 36.8477C20.5208 36.8477 20.8788 37.2007 20.8788 37.6367Z" fill="#00B2E3"/>
<path d="M50.3309 42.1953C50.3309 42.6343 49.9729 42.9852 49.5439 42.9852C49.1059 42.9852 48.7529 42.6343 48.7529 42.1953C48.7529 41.7603 49.1059 41.4062 49.5439 41.4062C49.9729 41.4062 50.3309 41.7613 50.3309 42.1953Z" fill="#00B2E3"/>
<path d="M52.6781 52.3408C52.6781 52.7788 52.3231 53.1308 51.8901 53.1308C51.4531 53.1308 51.0991 52.7778 51.0991 52.3408C51.0991 51.9048 51.4531 51.5508 51.8901 51.5508C52.3221 51.5508 52.6781 51.9048 52.6781 52.3408Z" fill="#00B2E3"/>
<path d="M60.6532 54.2421C60.6532 54.6811 60.2972 55.0311 59.8662 55.0311C59.4282 55.0311 59.0752 54.6811 59.0752 54.2421C59.0752 53.8061 59.4282 53.4531 59.8662 53.4531C60.2972 53.4531 60.6532 53.8071 60.6532 54.2421Z" fill="#00B2E3"/>
<path d="M61.1239 59.2382C61.1239 59.6762 60.7679 60.0282 60.3369 60.0282C59.8989 60.0282 59.5449 59.6762 59.5449 59.2382C59.5449 58.8022 59.8989 58.4492 60.3369 58.4492C60.7679 58.4492 61.1239 58.8032 61.1239 59.2382Z" fill="#00B2E3"/>
<path d="M40.7621 56.6396C40.7621 57.0786 40.4071 57.4296 39.9761 57.4296C39.5381 57.4296 39.1841 57.0786 39.1841 56.6396C39.1841 56.2056 39.5381 55.8516 39.9761 55.8516C40.4061 55.8516 40.7621 56.2056 40.7621 56.6396Z" fill="#00B2E3"/>
<path d="M30.391 57.1171C30.391 57.5551 30.033 57.9071 29.603 57.9071C29.166 57.9071 28.812 57.5551 28.812 57.1171C28.812 56.6811 29.166 56.3281 29.603 56.3281C30.032 56.3281 30.391 56.6821 30.391 57.1171Z" fill="#00B2E3"/>
<path d="M39.8349 61.3447C39.8349 61.7827 39.4789 62.1327 39.0479 62.1327C38.6099 62.1327 38.2559 61.7817 38.2559 61.3447C38.2559 60.9087 38.6099 60.5547 39.0479 60.5547C39.4789 60.5547 39.8349 60.9087 39.8349 61.3447Z" fill="#00B2E3"/>
<path d="M52.6991 71.1445C52.6991 71.5835 52.3421 71.9345 51.9121 71.9345C51.4731 71.9345 51.1201 71.5835 51.1201 71.1445C51.1201 70.7085 51.4731 70.3555 51.9121 70.3555C52.3421 70.3545 52.6991 70.7085 52.6991 71.1445Z" fill="#00B2E3"/>
<path d="M48.8461 71.664C48.8461 72.102 48.4901 72.454 48.0591 72.454C47.6201 72.454 47.2661 72.102 47.2661 71.664C47.2661 71.228 47.6201 70.875 48.0591 70.875C48.4891 70.875 48.8461 71.228 48.8461 71.664Z" fill="#00B2E3"/>
<path d="M53.6508 79.8867C53.6508 80.3247 53.2938 80.6757 52.8638 80.6757C52.4258 80.6757 52.0718 80.3247 52.0718 79.8867C52.0718 79.4507 52.4258 79.0977 52.8638 79.0977C53.2938 79.0977 53.6508 79.4507 53.6508 79.8867Z" fill="#00B2E3"/>
<path d="M46.745 81.8603C46.745 82.2983 46.39 82.6493 45.959 82.6493C45.521 82.6493 45.167 82.2973 45.167 81.8603C45.167 81.4243 45.521 81.0703 45.959 81.0703C46.39 81.0703 46.745 81.4253 46.745 81.8603Z" fill="#00B2E3"/>
<path d="M56.306 88.4658C56.306 88.9038 55.95 89.2548 55.519 89.2548C55.081 89.2548 54.7271 88.9038 54.7271 88.4658C54.7271 88.0298 55.081 87.6758 55.519 87.6758C55.949 87.6758 56.306 88.0298 56.306 88.4658Z" fill="#00B2E3"/>
<path d="M64.015 87.3085C64.015 87.7465 63.658 88.0985 63.227 88.0985C62.79 88.0985 62.437 87.7455 62.437 87.3085C62.437 86.8725 62.791 86.5195 63.227 86.5195C63.657 86.5195 64.015 86.8725 64.015 87.3085Z" fill="#00B2E3"/>
<path d="M62.4291 92.7109C62.4291 93.1489 62.0731 93.5009 61.6411 93.5009C61.2031 93.5009 60.8501 93.1489 60.8501 92.7109C60.8501 92.2759 61.2031 91.9219 61.6411 91.9219C62.0721 91.9219 62.4291 92.2759 62.4291 92.7109Z" fill="#00B2E3"/>
<path d="M56.369 97.7851C56.369 98.2241 56.013 98.5751 55.582 98.5751C55.144 98.5751 54.791 98.2241 54.791 97.7851C54.791 97.3511 55.145 96.9961 55.582 96.9961C56.013 96.9961 56.369 97.3521 56.369 97.7851Z" fill="#00B2E3"/>
<path d="M52.2621 95.2822C52.2621 95.7212 51.9051 96.0722 51.4741 96.0722C51.0361 96.0722 50.6831 95.7212 50.6831 95.2822C50.6831 94.8472 51.0371 94.4922 51.4741 94.4922C51.9041 94.4922 52.2621 94.8482 52.2621 95.2822Z" fill="#00B2E3"/>
<path d="M53.3461 99.5361C53.3461 99.9741 52.9911 100.325 52.5601 100.325C52.1221 100.325 51.7681 99.9731 51.7681 99.5361C51.7681 99.1001 52.1221 98.7461 52.5601 98.7461C52.9901 98.7461 53.3461 99.1011 53.3461 99.5361Z" fill="#00B2E3"/>
<path d="M38.3241 99.3867C38.3241 99.8247 37.9671 100.176 37.5361 100.176C37.0981 100.176 36.7441 99.8247 36.7441 99.3867C36.7441 98.9507 37.0981 98.5977 37.5361 98.5977C37.9671 98.5977 38.3241 98.9507 38.3241 99.3867Z" fill="#00B2E3"/>
<path d="M26.2162 100.302C26.2162 100.74 25.8602 101.091 25.4282 101.091C24.9902 101.091 24.6362 100.74 24.6362 100.302C24.6362 99.8657 24.9902 99.5117 25.4282 99.5117C25.8592 99.5117 26.2162 99.8657 26.2162 100.302Z" fill="#00B2E3"/>
<path d="M24.9398 107.591C24.9398 108.029 24.5838 108.381 24.1538 108.381C23.7168 108.381 23.3618 108.028 23.3618 107.591C23.3618 107.155 23.7168 106.801 24.1538 106.801C24.5838 106.801 24.9398 107.155 24.9398 107.591Z" fill="#00B2E3"/>
<path d="M35.5009 110.306C35.5009 110.744 35.1449 111.096 34.7139 111.096C34.2759 111.096 33.9219 110.744 33.9219 110.306C33.9219 109.871 34.2759 109.516 34.7139 109.516C35.1449 109.516 35.5009 109.871 35.5009 110.306Z" fill="#00B2E3"/>
<path d="M36.9862 104.661C36.9862 105.099 36.6302 105.451 36.1992 105.451C35.7612 105.451 35.4072 105.099 35.4072 104.661C35.4072 104.225 35.7612 103.871 36.1992 103.871C36.6302 103.871 36.9862 104.226 36.9862 104.661Z" fill="#00B2E3"/>
<path d="M46.5961 106.52C46.5961 106.957 46.2401 107.307 45.8091 107.307C45.3711 107.307 45.0171 106.956 45.0171 106.52C45.0171 106.084 45.3711 105.73 45.8091 105.73C46.2391 105.729 46.5961 106.084 46.5961 106.52Z" fill="#00B2E3"/>
<path d="M54.1899 108.903C54.1899 109.341 53.8329 109.691 53.4019 109.691C52.9639 109.691 52.6099 109.34 52.6099 108.903C52.6099 108.468 52.9639 108.113 53.4019 108.113C53.8329 108.113 54.1899 108.469 54.1899 108.903Z" fill="#00B2E3"/>
<path d="M30.1552 111.855C30.1552 112.294 29.7982 112.645 29.3682 112.645C28.9302 112.645 28.5762 112.294 28.5762 111.855C28.5762 111.421 28.9302 111.066 29.3682 111.066C29.7982 111.066 30.1552 111.422 30.1552 111.855Z" fill="#00B2E3"/>
<path d="M23.0638 122.559C23.0638 122.998 22.7078 123.349 22.2778 123.349C21.8398 123.349 21.4868 122.998 21.4868 122.559C21.4868 122.123 21.8398 121.77 22.2778 121.77C22.7078 121.77 23.0638 122.123 23.0638 122.559Z" fill="#00B2E3"/>
<path d="M9.183 135.665C9.183 136.103 8.828 136.455 8.396 136.455C7.958 136.455 7.604 136.103 7.604 135.665C7.604 135.231 7.958 134.875 8.396 134.875C8.827 134.875 9.183 135.231 9.183 135.665Z" fill="#00B2E3"/>
<path d="M34.6669 129.512C34.6669 129.95 34.3109 130.301 33.8809 130.301C33.4429 130.301 33.0889 129.95 33.0889 129.512C33.0889 129.079 33.4429 128.723 33.8809 128.723C34.3109 128.723 34.6669 129.079 34.6669 129.512Z" fill="#00B2E3"/>
<path d="M40.4008 125.108C40.4008 125.548 40.0438 125.898 39.6128 125.898C39.1748 125.898 38.8208 125.548 38.8208 125.108C38.8208 124.673 39.1748 124.32 39.6128 124.32C40.0438 124.32 40.4008 124.674 40.4008 125.108Z" fill="#00B2E3"/>
<path d="M55.1132 125.063C55.1132 125.501 54.7571 125.853 54.3271 125.853C53.8891 125.853 53.5352 125.501 53.5352 125.063C53.5352 124.627 53.8891 124.273 54.3271 124.273C54.7571 124.273 55.1132 124.628 55.1132 125.063Z" fill="#00B2E3"/>
<path d="M59.4511 122.844C59.4511 123.282 59.0941 123.634 58.6631 123.634C58.2251 123.634 57.8721 123.282 57.8721 122.844C57.8721 122.409 58.2261 122.055 58.6631 122.055C59.0941 122.055 59.4511 122.409 59.4511 122.844Z" fill="#00B2E3"/>
<path d="M68.9159 113.559C68.9159 113.997 68.5599 114.35 68.1289 114.35C67.6909 114.35 67.3379 113.996 67.3379 113.559C67.3379 113.123 67.6919 112.77 68.1289 112.77C68.5599 112.77 68.9159 113.123 68.9159 113.559Z" fill="#00B2E3"/>
<path d="M71.6249 126.236C71.6249 126.674 71.2679 127.026 70.8369 127.026C70.3989 127.026 70.0459 126.673 70.0459 126.236C70.0459 125.801 70.3999 125.449 70.8369 125.449C71.2679 125.449 71.6249 125.802 71.6249 126.236Z" fill="#00B2E3"/>
<path d="M60.9892 136.592C60.9892 137.03 60.6312 137.381 60.2012 137.381C59.7632 137.381 59.4102 137.029 59.4102 136.592C59.4102 136.155 59.7642 135.801 60.2012 135.801C60.6312 135.801 60.9892 136.155 60.9892 136.592Z" fill="#00B2E3"/>
<path d="M42.7562 136.129C42.7562 136.568 42.4012 136.92 41.9702 136.92C41.5322 136.92 41.1792 136.568 41.1792 136.129C41.1792 135.693 41.5322 135.34 41.9702 135.34C42.4002 135.34 42.7562 135.693 42.7562 136.129Z" fill="#00B2E3"/>
<path d="M32.9008 149.568C32.9008 150.006 32.5448 150.358 32.1138 150.358C31.6758 150.358 31.3218 150.006 31.3218 149.568C31.3218 149.132 31.6758 148.777 32.1138 148.777C32.5448 148.777 32.9008 149.133 32.9008 149.568Z" fill="#00B2E3"/>
<path d="M50.4491 150.782C50.4491 151.22 50.0931 151.571 49.6621 151.571C49.2241 151.571 48.8711 151.22 48.8711 150.782C48.8711 150.346 49.2241 149.992 49.6621 149.992C50.0931 149.992 50.4491 150.347 50.4491 150.782Z" fill="#00B2E3"/>
</svg>
