<svg width="32" height="32" viewBox="0 0 32 32" fill="none" xmlns="http://www.w3.org/2000/svg">
<path d="M20.2335 4.50391C18.0063 4.50203 15.8285 5.16078 13.9756 6.39683C12.1228 7.63287 10.6782 9.39067 9.82457 11.4479C8.97093 13.5051 8.74661 15.7692 9.17998 17.9539C9.61335 20.1386 10.6849 22.1457 12.2592 23.7213C13.8335 25.2969 15.8396 26.3702 18.024 26.8054C20.2083 27.2406 22.4727 27.0182 24.5306 26.1663C26.5885 25.3144 28.3475 23.8712 29.5851 22.0195C30.8227 20.1677 31.4833 17.9904 31.4833 15.7632C31.4839 14.2852 31.1934 12.8216 30.6284 11.4559C30.0634 10.0902 29.2349 8.84915 28.1903 7.80363C27.1456 6.75812 25.9053 5.92859 24.5401 5.36242C23.1749 4.79626 21.7115 4.50453 20.2335 4.50391V4.50391ZM20.2335 18.5768C19.6769 18.5773 19.1327 18.4126 18.6697 18.1038C18.2067 17.7949 17.8457 17.3556 17.6324 16.8415C17.4191 16.3275 17.363 15.7617 17.4713 15.2157C17.5796 14.6698 17.8474 14.1682 18.2408 13.7745C18.6342 13.3807 19.1355 13.1125 19.6814 13.0038C20.2272 12.895 20.7931 12.9506 21.3073 13.1635C21.8216 13.3764 22.2612 13.737 22.5704 14.1998C22.8797 14.6625 23.0448 15.2066 23.0448 15.7632C23.0448 16.1327 22.972 16.4985 22.8306 16.8399C22.6892 17.1813 22.482 17.4914 22.2207 17.7527C21.9594 18.014 21.6493 18.2212 21.3079 18.3626C20.9665 18.504 20.6006 18.5768 20.2312 18.5768H20.2335ZM0.474121 15.7632C0.474121 15.2067 0.639138 14.6627 0.948303 14.2C1.25747 13.7373 1.6969 13.3767 2.21102 13.1637C2.72514 12.9508 3.29087 12.895 3.83666 13.0036C4.38245 13.1122 4.88379 13.3801 5.27729 13.7736C5.67078 14.1671 5.93875 14.6685 6.04732 15.2143C6.15588 15.76 6.10016 16.3258 5.88721 16.8399C5.67425 17.354 5.31362 17.7935 4.85092 18.1026C4.38822 18.4118 3.84423 18.5768 3.28775 18.5768C2.54153 18.5768 1.82587 18.2804 1.29821 17.7527C0.770556 17.225 0.474121 16.5094 0.474121 15.7632" fill="#DA3743"/>
</svg>
