<svg width="32" height="32" viewBox="0 0 32 32" fill="none" xmlns="http://www.w3.org/2000/svg">
<path d="M28.307 9.72277V10.2089L27.8104 22.8485C27.782 24.0428 27.3306 25.1903 26.5335 26.0948C25.7363 26.9993 24.6429 27.6046 23.4402 27.8071L25.3273 31.0156C26.9543 30.7908 28.45 30.0169 29.5562 28.8276C30.6624 27.6382 31.3096 26.1081 31.386 24.5014L31.982 7.97267V7.48653L28.307 9.72277Z" fill="#221F1F"/>
<path d="M22.9436 27.9043L11.0248 28.5849C9.64423 28.6652 8.28684 28.2105 7.24604 27.319C6.20523 26.4275 5.56462 25.1709 5.46268 23.8208L4.37012 9.81999C4.28112 9.0835 4.35873 8.33685 4.59745 7.633C4.83617 6.92915 5.23015 6.28533 5.75146 5.74718C6.27277 5.20904 6.90864 4.78975 7.61398 4.51905C8.31933 4.24835 9.07687 4.13287 9.8329 4.18079L23.3409 4.76416C24.6435 4.85707 25.8667 5.41205 26.781 6.32499C27.6953 7.23792 28.2379 8.44607 28.307 9.72277L31.982 7.48653C31.9571 5.75733 31.2511 4.10433 30.0112 2.87245C28.7712 1.64058 27.0932 0.925004 25.3273 0.875049L7.34982 0H6.75388C5.80983 0.0367307 4.88294 0.258787 4.02826 0.652983C3.17358 1.04718 2.40853 1.60548 1.77854 2.29472C1.14856 2.98397 0.666478 3.79011 0.360936 4.66528C0.0553939 5.54044 -0.0673821 6.46679 -0.00010165 7.3893L1.48975 25.6681C1.61734 27.4569 2.46091 29.1241 3.83717 30.3075C5.21342 31.4908 7.01114 32.0947 8.83967 31.9879L24.8307 31.0156H25.3273L23.4402 27.8071L22.9436 27.9043Z" fill="#EC5A2A"/>
<path d="M13.3092 12.2507C14.3514 12.2507 15.1963 11.4236 15.1963 10.4034C15.1963 9.38311 14.3514 8.55603 13.3092 8.55603C12.267 8.55603 11.4221 9.38311 11.4221 10.4034C11.4221 11.4236 12.267 12.2507 13.3092 12.2507Z" fill="#EC5A2A"/>
<path d="M19.8645 12.2507C20.9067 12.2507 21.7516 11.4236 21.7516 10.4034C21.7516 9.38311 20.9067 8.55603 19.8645 8.55603C18.8223 8.55603 17.9774 9.38311 17.9774 10.4034C17.9774 11.4236 18.8223 12.2507 19.8645 12.2507Z" fill="#EC5A2A"/>
<path d="M13.3092 17.9871C14.3514 17.9871 15.1963 17.16 15.1963 16.1398C15.1963 15.1195 14.3514 14.2925 13.3092 14.2925C12.267 14.2925 11.4221 15.1195 11.4221 16.1398C11.4221 17.16 12.267 17.9871 13.3092 17.9871Z" fill="#EC5A2A"/>
<path d="M19.8645 17.9871C20.9067 17.9871 21.7516 17.16 21.7516 16.1398C21.7516 15.1195 20.9067 14.2925 19.8645 14.2925C18.8223 14.2925 17.9774 15.1195 17.9774 16.1398C17.9774 17.16 18.8223 17.9871 19.8645 17.9871Z" fill="#EC5A2A"/>
<path d="M13.3092 23.7235C14.3514 23.7235 15.1963 22.8965 15.1963 21.8762C15.1963 20.856 14.3514 20.0289 13.3092 20.0289C12.267 20.0289 11.4221 20.856 11.4221 21.8762C11.4221 22.8965 12.267 23.7235 13.3092 23.7235Z" fill="#EC5A2A"/>
<path d="M19.8645 23.7235C20.9067 23.7235 21.7516 22.8965 21.7516 21.8762C21.7516 20.856 20.9067 20.0289 19.8645 20.0289C18.8223 20.0289 17.9774 20.856 17.9774 21.8762C17.9774 22.8965 18.8223 23.7235 19.8645 23.7235Z" fill="#EC5A2A"/>
</svg>
