<svg width="32" height="32" viewBox="0 0 32 32" fill="none" xmlns="http://www.w3.org/2000/svg">
<path d="M10.7422 17.545V21.3575C13.5369 21.354 16.2162 20.2324 18.1923 18.2385C20.1685 16.2447 21.2801 13.5414 21.2835 10.7217H17.5156C17.5127 12.5323 16.7979 14.2678 15.5279 15.5471C14.258 16.8264 12.5368 17.545 10.7422 17.545V17.545Z" fill="#3BE081"/>
<path d="M10.7423 28.0522C8.98277 28.0205 7.30591 27.2931 6.07268 26.0264C4.83946 24.7597 4.14847 23.0552 4.14847 21.2796C4.14847 19.504 4.83946 17.7994 6.07268 16.5328C7.30591 15.2661 8.98277 14.5386 10.7423 14.5069V10.7246C7.96638 10.7206 5.30259 11.8294 3.33692 13.807C1.37125 15.7846 0.264718 18.4691 0.260753 21.2699C0.256787 24.0707 1.35571 26.7583 3.31577 28.7416C5.27584 30.7249 7.93648 31.8413 10.7124 31.8453H10.7423V28.0522Z" fill="#0037FF"/>
<path d="M10.7422 28.0515V31.8338C13.5181 31.8338 16.1803 30.7212 18.1432 28.7407C20.1061 26.7603 21.2088 24.0742 21.2088 21.2734H17.4558C17.4552 23.0702 16.7478 24.7932 15.489 26.0641C14.2302 27.3349 12.523 28.0497 10.7422 28.0515V28.0515Z" fill="#00CCFF"/>
<path d="M10.7422 6.93797V10.7225C13.5181 10.7225 16.1803 9.60985 18.1432 7.6294C20.1061 5.64895 21.2088 2.96289 21.2088 0.162109H17.4558C17.4546 1.95846 16.747 3.68093 15.4883 4.95135C14.2295 6.22176 12.5226 6.93626 10.7422 6.93797V6.93797Z" fill="#861DFF"/>
<path d="M21.2725 6.93797V10.7225C24.0484 10.7225 26.7106 9.60985 28.6735 7.6294C30.6363 5.64895 31.7391 2.96289 31.7391 0.162109H27.9818C27.9806 1.95771 27.2736 3.67954 26.0158 4.94982C24.758 6.22011 23.0521 6.93512 21.2725 6.93797V6.93797Z" fill="#FC7F10"/>
</svg>
