<svg width="32" height="32" viewBox="0 0 32 32" fill="none" xmlns="http://www.w3.org/2000/svg">
<path d="M30.3729 9.86047L30.5537 10.2326L28.3842 11.1628L28.2034 10.7907L30.3729 9.86047ZM27.661 16.186C27.661 22.5116 22.4181 27.7209 16.0904 27.7209C9.76271 27.7209 4.51977 22.5116 4.51977 16.186C4.51977 9.86046 9.76271 4.65116 16.0904 4.65116C22.4181 4.46512 27.661 9.67442 27.661 16.186ZM22.0565 1.67442L21.3333 3.72093L20.9718 3.53488L21.8757 1.48837L22.0565 1.67442ZM11.0282 3.53488L10.8475 3.72093L9.9435 1.67442L10.3051 1.48837L11.0282 3.53488ZM3.79661 21.2093L1.80791 22.1395L1.62712 21.7674L3.61582 20.8372L3.79661 21.2093ZM3.79661 10.7907L3.61582 10.9767L1.62712 10.2326L1.80791 9.86047L3.79661 10.7907ZM9.9435 30.3256L10.8475 28.2791L11.209 28.4651L10.3051 30.5116L9.9435 30.3256ZM20.9718 28.2791L21.3333 28.093L22.2373 30.1395L21.8757 30.3256L20.9718 28.2791ZM28.3842 21.2093L28.565 20.8372L30.5537 21.5814L30.3729 21.9535L28.3842 21.2093ZM32 16C32 7.25581 24.7684 0 15.9096 0C7.05085 0 0 7.06977 0 16C0 24.9302 7.23164 32 16.0904 32C24.9492 32 32 24.7442 32 16Z" fill="#039BE5"/>
</svg>
