<svg width="32" height="32" viewBox="0 0 32 32" fill="none" xmlns="http://www.w3.org/2000/svg">
<g clip-path="url(#clip0_2628_35)">
<path d="M10.0892 26.0896C4.48407 26.0896 0 21.6055 0 16.0003C0 10.3952 4.48407 5.91113 10.0892 5.91113H21.9108C27.5159 5.91113 32 10.3952 32 16.0003C32 21.6055 27.5159 26.0896 21.9108 26.0896H10.0892ZM21.6051 22.5227C25.2739 22.5227 28.1274 19.5672 28.1274 16.0003C28.1274 12.3315 25.172 9.47803 21.6051 9.47803H10.3949C6.72611 9.47803 3.87261 12.4335 3.87261 16.0003C3.87261 19.5672 6.82802 22.5227 10.3949 22.5227H21.6051Z" fill="#C74634"/>
</g>
<defs>
<clipPath id="clip0_2628_35">
<rect width="32" height="32" fill="white"/>
</clipPath>
</defs>
</svg>
