<svg width="32" height="32" viewBox="0 0 32 32" fill="none" xmlns="http://www.w3.org/2000/svg">
<path d="M18.6288 10.5416C10.2299 7.58275 2.19161 8.63416 0.674534 12.8891C-0.842544 17.1439 4.73627 22.9919 13.1352 25.9504C16.9317 27.2873 20.6541 27.8053 23.7347 27.5785C23.4657 27.1739 23.3084 26.6896 23.3084 26.1695C23.3084 26.03 23.32 25.8934 23.3419 25.7599C20.4263 25.9549 17.071 25.4369 13.737 24.2629C9.88061 22.9044 6.55724 20.8457 4.37924 18.466C2.45973 16.3686 1.68424 14.2525 2.25211 12.6604C2.81998 11.0682 4.76285 9.90973 7.58252 9.4815C10.7826 8.99589 14.6684 9.47649 18.5249 10.835C22.3813 12.1934 25.7042 14.2521 27.8821 16.6319C29.8017 18.7293 30.5771 20.8453 30.0092 22.4374C29.6995 23.3063 28.9795 24.0455 27.9312 24.6083C28.2667 25.0409 28.467 25.5822 28.467 26.1695C28.467 26.2418 28.4632 26.3128 28.4572 26.3839C29.7479 25.7138 30.6697 24.7817 31.09 23.6029C32.607 19.3475 27.0283 13.5 18.6288 10.5416Z" fill="#5A65AE"/>
<path d="M17.6716 25.3455C16.4304 26.3272 15.1525 27.1262 13.8821 27.7043C11.2884 28.8851 9.02467 28.9762 7.67075 27.955C6.31684 26.9335 5.79662 24.7419 6.24304 21.9415C6.32095 21.4532 6.42591 20.9561 6.55609 20.4529C6.42363 20.3503 6.29392 20.247 6.16605 20.1426C4.8795 24.2794 5.21179 27.8596 7.41042 29.5185C10.2544 31.664 15.3744 29.9552 20.0517 25.6985C19.272 25.6224 18.476 25.504 17.6716 25.3455Z" fill="#5A65AE"/>
<path d="M25.8991 14.2715C25.7534 14.6473 25.5938 15.025 25.4229 15.4026C25.4353 15.4309 25.4472 15.4591 25.4592 15.4874L25.4711 15.5161C25.4931 15.5698 25.5136 15.6218 25.5334 15.6737L25.5449 15.7033C25.565 15.7571 25.5846 15.8113 25.6036 15.8655L25.6132 15.8928C25.632 15.9484 25.6497 16.0035 25.6667 16.0582L25.6731 16.0791C25.6915 16.1393 25.7075 16.1967 25.7222 16.2509L25.7246 16.2605C25.741 16.3238 25.7553 16.3816 25.7677 16.4376C25.7753 16.4723 25.7822 16.5064 25.7886 16.5402C25.8052 16.6253 25.8189 16.7124 25.8295 16.7994C25.8323 16.8171 25.8355 16.8417 25.8383 16.87C25.84 16.8823 25.8415 16.8941 25.8423 16.9055C25.8451 16.9347 25.8447 16.9634 25.8419 16.9921C25.8408 17.0267 25.8387 17.0627 25.8344 17.1009C25.8344 17.1014 25.8344 17.1023 25.8344 17.1023C25.8052 17.3656 25.6864 17.6125 25.5003 17.7979C25.4895 17.8089 25.4779 17.8193 25.466 17.8289L22.6551 20.1053C22.5335 20.2715 22.4102 20.4379 22.2843 20.6028C21.0114 22.2692 19.6038 23.7452 18.1367 24.9685C18.9384 25.1142 19.7299 25.2185 20.5045 25.28C21.6192 24.2199 22.7031 23.0158 23.7192 21.6853C25.2872 19.632 26.5197 17.5046 27.3905 15.4528C26.9235 15.0468 26.4254 14.6523 25.8991 14.2715Z" fill="#5A65AE"/>
<path d="M15.1115 7.06055C13.5484 8.3689 12.0162 9.96427 10.6133 11.8011C8.62226 14.4082 7.17211 17.1347 6.31641 19.6749C6.43739 19.7756 6.56069 19.8753 6.68628 19.9746C7.44665 17.3456 8.88948 14.574 10.8631 11.9897C12.2339 10.1943 13.7616 8.62038 15.3515 7.34481C15.2544 7.26646 15.1727 7.16988 15.1115 7.06055Z" fill="#5A65AE"/>
<path d="M26.9214 3.96912C24.5513 2.18151 20.6019 3.06938 16.6445 5.87743C16.7478 5.974 16.8293 6.092 16.883 6.22456C17.6726 5.69931 18.4707 5.25059 19.2653 4.88888C21.859 3.70808 24.1227 3.61697 25.4767 4.63832C26.8306 5.65968 27.3509 7.85136 26.9044 10.6517C26.7403 11.6808 26.4566 12.7477 26.0647 13.8291C26.5963 14.2095 27.1006 14.6031 27.5732 15.0086C29.5077 10.1861 29.4102 5.84645 26.9214 3.96912Z" fill="#5A65AE"/>
<path d="M4.25568 8.14321C4.74423 8.14321 5.14027 7.74957 5.14027 7.26398C5.14027 6.77841 4.74423 6.38477 4.25568 6.38477C3.76715 6.38477 3.37109 6.77841 3.37109 7.26398C3.37109 7.74957 3.76715 8.14321 4.25568 8.14321Z" fill="#5A65AE"/>
<path d="M30.5173 12.5631C31.0058 12.5631 31.402 12.1695 31.402 11.6839C31.402 11.1983 31.0058 10.8047 30.5173 10.8047C30.0288 10.8047 29.6328 11.1983 29.6328 11.6839C29.6328 12.1695 30.0288 12.5631 30.5173 12.5631Z" fill="#5A65AE"/>
<path d="M3.4305 25.4496C4.01777 25.4496 4.49384 24.9765 4.49384 24.3928C4.49384 23.8091 4.01777 23.3359 3.4305 23.3359C2.84324 23.3359 2.36719 23.8091 2.36719 24.3928C2.36719 24.9765 2.84324 25.4496 3.4305 25.4496Z" fill="#5A65AE"/>
<path d="M15.9699 7.24442C16.3354 7.24442 16.6315 6.9501 16.6315 6.58705C16.6315 6.224 16.3354 5.92969 15.9699 5.92969C15.6047 5.92969 15.3086 6.224 15.3086 6.58705C15.3086 6.9501 15.6047 7.24442 15.9699 7.24442Z" fill="#5A65AE"/>
<path d="M12.4229 4.81971C13.3468 4.81971 14.0958 4.07524 14.0958 3.15692C14.0958 2.23859 13.3468 1.49414 12.4229 1.49414C11.499 1.49414 10.75 2.23859 10.75 3.15692C10.75 4.07524 11.499 4.81971 12.4229 4.81971Z" fill="#5A65AE"/>
<path d="M25.8868 28.279C27.0582 28.279 28.008 27.3353 28.008 26.1709C28.008 25.0065 27.0582 24.0625 25.8868 24.0625C24.7154 24.0625 23.7656 25.0065 23.7656 26.1709C23.7656 27.3353 24.7154 28.279 25.8868 28.279Z" fill="#5A65AE"/>
<path d="M10.2111 7.03616C8.85623 6.5756 7.36665 6.37195 6.87577 6.78104C6.38489 7.19059 6.32806 8.68344 6.54943 10.0898C6.75799 11.4177 7.4143 12.645 8.60735 14.0585L11.1965 11.8992L13.7856 9.73989C12.593 8.3263 11.4907 7.47077 10.2111 7.03616Z" fill="#E59273"/>
<path opacity="0.14" d="M9.45485 13.6326C8.8746 12.8281 8.05005 11.624 7.9011 10.5913C7.75763 9.59545 7.81218 8.87886 7.89787 8.61053C7.9428 8.60462 8.00697 8.59961 8.0945 8.59961C8.54643 8.59961 9.20734 8.73262 9.86321 8.95539C10.5727 9.19639 11.2277 9.63417 11.9239 10.3421L9.45485 13.6326Z" fill="black"/>
<path d="M22.5627 7.03615C23.9176 6.57558 25.4071 6.37196 25.8979 6.78104C26.3888 7.19058 26.4458 8.68344 26.2243 10.0897C26.0159 11.4177 25.3595 12.645 24.1665 14.0585L21.5773 11.8992L18.9883 9.73987C20.1808 8.32628 21.2831 7.47075 22.5627 7.03615V7.03615Z" fill="#E59273"/>
<path opacity="0.35" d="M23.3168 13.6326C23.897 12.8281 24.7216 11.624 24.8705 10.5913C25.0138 9.59545 24.9594 8.87886 24.8737 8.61053C24.8287 8.60462 24.7647 8.59961 24.677 8.59961C24.2251 8.59961 23.5642 8.73262 22.9082 8.95539C22.1989 9.19639 21.544 9.63417 20.8477 10.3421L23.3168 13.6326Z" fill="#963C20"/>
<path opacity="0.12" d="M25.8986 6.78125C25.4077 6.37169 23.9186 6.57579 22.5633 7.03635C21.2835 7.4714 20.1817 8.32694 18.9883 9.74008L21.5773 11.8994L24.1665 14.0587C25.3595 12.6456 26.0159 11.4179 26.2243 10.0899C26.4462 8.68365 26.3894 7.19079 25.8986 6.78125Z" fill="#ED1C24"/>
<path d="M25.3782 16.8961H25.3787C25.1728 15.0151 23.064 12.4381 22.0127 11.1361C20.1462 8.82414 18.9601 7.99321 16.3888 7.95312V8.0333V7.95312C13.8176 7.99366 12.631 8.82414 10.7651 11.1361C9.71965 12.4312 7.6292 14.9869 7.4046 16.8651C7.40187 16.882 7.39957 16.8989 7.3982 16.9162C7.39728 16.9267 7.39545 16.9371 7.39453 16.9472H7.39681C7.38995 17.138 7.4587 17.3307 7.60445 17.4756L15.8834 24.1795C16.0227 24.318 16.206 24.3869 16.3892 24.3873C16.5727 24.3873 16.7559 24.318 16.8952 24.1795L25.1743 17.4756C25.3324 17.3175 25.4002 17.1029 25.3782 16.8961ZM7.55632 16.5217C7.57098 16.5034 7.58702 16.4861 7.60398 16.4693C7.58702 16.4861 7.57098 16.5034 7.55632 16.5217ZM7.41286 16.8182C7.41286 16.8178 7.41333 16.8169 7.41333 16.8164C7.41286 16.8169 7.41286 16.8173 7.41286 16.8182ZM7.42937 16.7554C7.43029 16.7531 7.43073 16.7508 7.43165 16.749C7.4312 16.7513 7.43029 16.7536 7.42937 16.7554ZM7.45181 16.6943C7.45365 16.6902 7.45595 16.6857 7.45778 16.6816C7.45595 16.6861 7.45365 16.6902 7.45181 16.6943ZM7.4807 16.6346C7.48437 16.6278 7.48848 16.6214 7.49262 16.6146C7.48848 16.6214 7.48437 16.6278 7.4807 16.6346ZM7.51507 16.5773C7.52196 16.5672 7.52927 16.5576 7.53661 16.5481C7.52927 16.5576 7.52196 16.5672 7.51507 16.5773ZM25.2195 16.5194C25.2054 16.5021 25.1903 16.4852 25.1736 16.4693C25.1903 16.4852 25.2054 16.5021 25.2195 16.5194ZM25.3599 16.7973C25.358 16.7909 25.3571 16.7845 25.3552 16.7781C25.3571 16.7845 25.3584 16.7909 25.3599 16.7973ZM25.3443 16.7435C25.3411 16.7344 25.3383 16.7253 25.3347 16.7166C25.3383 16.7253 25.3411 16.7344 25.3443 16.7435ZM25.3217 16.6857C25.3172 16.6756 25.3125 16.6656 25.308 16.6561C25.3125 16.6656 25.3172 16.6756 25.3217 16.6857ZM25.2933 16.6283C25.2874 16.6173 25.281 16.6069 25.2746 16.5964C25.2814 16.6073 25.2874 16.6178 25.2933 16.6283ZM25.2594 16.5727C25.2511 16.5608 25.2426 16.5495 25.2338 16.5381C25.2426 16.5495 25.2511 16.5608 25.2594 16.5727Z" fill="#E59273"/>
<path d="M14.2473 16.8985C13.6959 14.4827 12.2503 12.5497 10.4555 11.5156C9.35412 12.8864 7.60558 15.156 7.40071 16.8648C7.39796 16.8816 7.39566 16.8985 7.39429 16.9158C7.39338 16.9263 7.39154 16.9367 7.39062 16.9468H7.39291C7.38604 17.1376 7.4548 17.3303 7.60055 17.4752L13.7124 22.4247C14.4649 20.8454 14.7015 18.8897 14.2473 16.8985ZM7.40942 16.8183C7.40942 16.8178 7.40987 16.8169 7.40987 16.8165C7.40942 16.8169 7.40942 16.8174 7.40942 16.8183ZM7.42591 16.7554C7.42683 16.7531 7.4273 16.7509 7.42821 16.749C7.42775 16.7513 7.42683 16.7531 7.42591 16.7554ZM7.44837 16.6944C7.45021 16.6903 7.45249 16.6857 7.45433 16.6816C7.45249 16.6862 7.45021 16.6903 7.44837 16.6944ZM7.47724 16.6347C7.48091 16.6279 7.48505 16.6215 7.48916 16.6147C7.48505 16.6215 7.48091 16.6279 7.47724 16.6347ZM7.51163 16.5773C7.5185 16.5673 7.52584 16.5577 7.53317 16.5482C7.52584 16.5577 7.5185 16.5673 7.51163 16.5773ZM7.55286 16.5217C7.56754 16.5035 7.58359 16.4862 7.60055 16.4693C7.58359 16.4862 7.56754 16.5035 7.55286 16.5217Z" fill="#EBE3CC"/>
<path d="M14.2473 16.8985C13.6959 14.4827 12.2503 12.5497 10.4555 11.5156C9.35412 12.8864 7.60558 15.156 7.40071 16.8648C7.39796 16.8816 7.39566 16.8985 7.39429 16.9158C7.39338 16.9263 7.39154 16.9367 7.39062 16.9468H7.39291C7.38604 17.1376 7.4548 17.3303 7.60055 17.4752L13.7124 22.4247C14.4649 20.8454 14.7015 18.8897 14.2473 16.8985ZM7.40942 16.8183C7.40942 16.8178 7.40987 16.8169 7.40987 16.8165C7.40942 16.8169 7.40942 16.8174 7.40942 16.8183ZM7.42591 16.7554C7.42683 16.7531 7.4273 16.7509 7.42821 16.749C7.42775 16.7513 7.42683 16.7531 7.42591 16.7554ZM7.44837 16.6944C7.45021 16.6903 7.45249 16.6857 7.45433 16.6816C7.45249 16.6862 7.45021 16.6903 7.44837 16.6944ZM7.47724 16.6347C7.48091 16.6279 7.48505 16.6215 7.48916 16.6147C7.48505 16.6215 7.48091 16.6279 7.47724 16.6347ZM7.51163 16.5773C7.5185 16.5673 7.52584 16.5577 7.53317 16.5482C7.52584 16.5577 7.5185 16.5673 7.51163 16.5773ZM7.55286 16.5217C7.56754 16.5035 7.58359 16.4862 7.60055 16.4693C7.58359 16.4862 7.56754 16.5035 7.55286 16.5217Z" fill="#EBE3CC"/>
<path d="M19.0623 22.4247L25.1743 17.4752C25.32 17.3303 25.3887 17.1376 25.3819 16.9468H25.3842C25.3834 16.9363 25.3815 16.9258 25.3806 16.9158C25.3791 16.8989 25.3768 16.8816 25.3742 16.8648C25.1692 15.156 23.4207 12.8864 22.3193 11.5156C20.5245 12.5497 19.0785 14.4822 18.5275 16.8985C18.0733 18.8897 18.3099 20.8454 19.0623 22.4247ZM25.365 16.816C25.365 16.8165 25.3655 16.8174 25.3655 16.8178C25.3655 16.8174 25.3655 16.8169 25.365 16.816ZM25.3467 16.749C25.3475 16.7513 25.3484 16.7536 25.3488 16.7554C25.348 16.7531 25.3471 16.7513 25.3467 16.749ZM25.3204 16.6816C25.3224 16.6857 25.3247 16.6898 25.3264 16.6944C25.3247 16.6903 25.3224 16.6862 25.3204 16.6816ZM25.2857 16.6147C25.2897 16.6215 25.294 16.6279 25.2976 16.6347C25.294 16.6279 25.2897 16.6215 25.2857 16.6147ZM25.2417 16.5477C25.249 16.5573 25.2562 16.5668 25.2633 16.5768C25.2562 16.5673 25.2486 16.5577 25.2417 16.5477ZM25.1743 16.4693C25.1912 16.4862 25.2067 16.5035 25.2219 16.5217C25.2067 16.5035 25.1912 16.4862 25.1743 16.4693Z" fill="#EBE3CC"/>
<path d="M19.0623 22.4247L25.1743 17.4752C25.32 17.3303 25.3887 17.1376 25.3819 16.9468H25.3842C25.3834 16.9363 25.3815 16.9258 25.3806 16.9158C25.3791 16.8989 25.3768 16.8816 25.3742 16.8648C25.1692 15.156 23.4207 12.8864 22.3193 11.5156C20.5245 12.5497 19.0785 14.4822 18.5275 16.8985C18.0733 18.8897 18.3099 20.8454 19.0623 22.4247ZM25.365 16.816C25.365 16.8165 25.3655 16.8174 25.3655 16.8178C25.3655 16.8174 25.3655 16.8169 25.365 16.816ZM25.3467 16.749C25.3475 16.7513 25.3484 16.7536 25.3488 16.7554C25.348 16.7531 25.3471 16.7513 25.3467 16.749ZM25.3204 16.6816C25.3224 16.6857 25.3247 16.6898 25.3264 16.6944C25.3247 16.6903 25.3224 16.6862 25.3204 16.6816ZM25.2857 16.6147C25.2897 16.6215 25.294 16.6279 25.2976 16.6347C25.294 16.6279 25.2897 16.6215 25.2857 16.6147ZM25.2417 16.5477C25.249 16.5573 25.2562 16.5668 25.2633 16.5768C25.2562 16.5673 25.2486 16.5577 25.2417 16.5477ZM25.1743 16.4693C25.1912 16.4862 25.2067 16.5035 25.2219 16.5217C25.2067 16.5035 25.1912 16.4862 25.1743 16.4693Z" fill="#EBE3CC"/>
<g opacity="0.13">
<path opacity="0.13" d="M15.9104 19.2281L14.8996 18.959L14.8047 19.311L15.8155 19.5802L15.9104 19.2281Z" fill="white"/>
<path opacity="0.13" d="M17.8738 18.9609L16.8633 19.2301L16.9582 19.5821L17.9688 19.313L17.8738 18.9609Z" fill="white"/>
<path opacity="0.13" d="M16.0469 20.0817L15.0363 19.8125L14.9414 20.1645L15.952 20.4337L16.0469 20.0817Z" fill="white"/>
<path opacity="0.13" d="M17.7334 19.8145L16.7227 20.0836L16.8176 20.4356L17.8281 20.1665L17.7334 19.8145Z" fill="white"/>
<path opacity="0.13" d="M16.0938 20.937L15.0832 20.668L14.9883 21.02L15.9988 21.289L16.0938 20.937Z" fill="white"/>
<path opacity="0.13" d="M17.6905 20.668L16.6797 20.9372L16.7746 21.2892L17.7854 21.02L17.6905 20.668Z" fill="white"/>
</g>
<path opacity="0.12" d="M25.377 16.8961H25.3774C25.1716 15.0151 23.0628 12.4381 22.0115 11.1361C20.145 8.82414 18.9589 7.99321 16.3876 7.95312V8.0333V7.95312C16.3871 7.95312 16.3871 7.95312 16.3867 7.95312V24.3873C16.3871 24.3873 16.3871 24.3873 16.3876 24.3873C16.571 24.3873 16.7543 24.318 16.8936 24.1795L25.1724 17.4756C25.3311 17.3175 25.399 17.1029 25.377 16.8961Z" fill="#ED1C24"/>
<path d="M13.7148 22.4256L15.8813 24.1802C16.0207 24.3187 16.2041 24.3876 16.3874 24.388C16.5706 24.388 16.7541 24.3187 16.8934 24.1802L19.06 22.426C18.2688 22.2974 17.3572 22.2246 16.3865 22.2246C15.4167 22.2242 14.506 22.2976 13.7148 22.4256Z" fill="#4A454B"/>
<path opacity="0.33" d="M16.3866 23.625C16.367 23.625 16.3386 23.6201 16.3143 23.5964C16.2995 23.5817 16.284 23.5676 16.268 23.5548L15.2344 22.7181C15.6107 22.6938 15.9966 22.6816 16.3853 22.6816C16.7744 22.6816 17.1612 22.6938 17.5379 22.7185L16.505 23.5552C16.4888 23.5685 16.4732 23.5821 16.4587 23.5968C16.4348 23.6201 16.4064 23.625 16.3866 23.625Z" fill="white"/>
<path opacity="0.08" d="M20.2145 18.4707C20.8076 18.4707 21.2885 17.9928 21.2885 17.4033C21.2885 16.8138 20.8076 16.3359 20.2145 16.3359C19.6215 16.3359 19.1406 16.8138 19.1406 17.4033C19.1406 17.9928 19.6215 18.4707 20.2145 18.4707Z" fill="black"/>
<path d="M20.0778 18.2441C20.6709 18.2441 21.1517 17.7662 21.1517 17.1767C21.1517 16.5873 20.6709 16.1094 20.0778 16.1094C19.4848 16.1094 19.0039 16.5873 19.0039 17.1767C19.0039 17.7662 19.4848 18.2441 20.0778 18.2441Z" fill="#4A454B"/>
<path d="M19.4996 17.9021C19.7345 17.9021 19.925 17.7129 19.925 17.4794C19.925 17.2459 19.7345 17.0566 19.4996 17.0566C19.2647 17.0566 19.0742 17.2459 19.0742 17.4794C19.0742 17.7129 19.2647 17.9021 19.4996 17.9021Z" fill="white"/>
<path opacity="0.08" d="M12.5583 18.4707C13.1513 18.4707 13.6321 17.9928 13.6321 17.4033C13.6321 16.8138 13.1513 16.3359 12.5583 16.3359C11.9652 16.3359 11.4844 16.8138 11.4844 17.4033C11.4844 17.9928 11.9652 18.4707 12.5583 18.4707Z" fill="black"/>
<path d="M12.6989 18.2441C13.292 18.2441 13.7728 17.7662 13.7728 17.1767C13.7728 16.5873 13.292 16.1094 12.6989 16.1094C12.1058 16.1094 11.625 16.5873 11.625 17.1767C11.625 17.7662 12.1058 18.2441 12.6989 18.2441Z" fill="#4A454B"/>
<path d="M13.2769 17.9021C13.5118 17.9021 13.7022 17.7129 13.7022 17.4794C13.7022 17.2459 13.5118 17.0566 13.2769 17.0566C13.042 17.0566 12.8516 17.2459 12.8516 17.4794C12.8516 17.7129 13.042 17.9021 13.2769 17.9021Z" fill="white"/>
<path d="M20.7665 13.1074C18.8414 13.1074 17.2812 14.6581 17.2812 16.5715C17.2812 18.4848 18.8414 20.0355 20.7665 20.0355C22.6914 20.0355 24.2515 18.4848 24.2515 16.5715C24.2515 14.6581 22.6914 13.1074 20.7665 13.1074ZM20.7665 19.1454C19.3382 19.1454 18.1764 17.9905 18.1764 16.571C18.1764 15.1515 19.3382 13.9967 20.7665 13.9967C22.1945 13.9967 23.3563 15.1515 23.3563 16.571C23.3563 17.9905 22.1945 19.1454 20.7665 19.1454Z" fill="#4A454B"/>
<path d="M12.0086 13.1074C10.0836 13.1074 8.52344 14.6581 8.52344 16.5715C8.52344 18.4848 10.0836 20.0355 12.0086 20.0355C13.9336 20.0355 15.4937 18.4848 15.4937 16.5715C15.4937 14.6581 13.9331 13.1074 12.0086 13.1074V13.1074ZM12.0086 19.1454C10.5804 19.1454 9.41856 17.9905 9.41856 16.571C9.41856 15.1515 10.5804 13.9967 12.0086 13.9967C13.4368 13.9967 14.5986 15.1515 14.5986 16.571C14.5986 17.9905 13.4368 19.1454 12.0086 19.1454Z" fill="#4A454B"/>
<path d="M17.3361 16.2949H15.4102V17.2265H17.3361V16.2949Z" fill="#4A454B"/>
<path d="M8.59363 14.0508L8.125 14.8575L9.17761 15.4616L9.64626 14.6548L8.59363 14.0508Z" fill="#4A454B"/>
<path d="M24.1776 14.0488L23.125 14.6529L23.5937 15.4597L24.6463 14.8556L24.1776 14.0488Z" fill="#4A454B"/>
</svg>
