<svg width="32" height="32" viewBox="0 0 32 32" fill="none" xmlns="http://www.w3.org/2000/svg">
<path d="M22.669 25.2318L23.0088 24.8637C23.3345 24.5097 23.6319 24.1416 23.9009 23.7451L22.7115 22.8956C22.1593 23.6602 21.4938 24.354 20.7434 24.9345C20.446 25.161 20.1345 25.3734 19.8089 25.5716C18.2938 26.4778 16.5664 26.9592 14.7965 26.9592H14.7681L14.754 31.9999H14.7965C18.7327 32.0141 22.4991 30.4424 25.2743 27.653L23.0372 25.5716L22.669 25.2318ZM31.8726 15.3629C31.4336 11.2284 29.508 7.40543 26.4637 4.58776L25.1752 5.97536C28.3186 8.86383 30.1027 12.9417 30.1027 17.2177V17.7133H26.5062C26.4637 18.6761 26.3221 19.6248 26.0531 20.5451C25.954 20.8991 25.8265 21.2389 25.6991 21.5788C25.4018 22.3009 25.0478 22.9805 24.623 23.6318C24.5239 23.7734 24.4389 23.9009 24.3398 24.0425C24.2549 24.1557 24.1841 24.269 24.0991 24.3823C23.8867 24.6655 23.646 24.9345 23.4053 25.2035L25.6425 27.2991L26.0106 27.6389L27.3982 28.9274C30.3575 25.7416 32 21.5646 32 17.2177C31.9858 16.5947 31.9434 15.9717 31.8726 15.3629ZM14.8106 7.44791C18.0531 7.47623 21.069 9.09037 22.8956 11.7523C23.1646 12.1488 23.3912 12.5594 23.6035 12.9983C24.2407 14.3151 24.5664 15.7452 24.5664 17.2036H29.6071C29.6071 16.4107 29.5363 15.6036 29.4089 14.8248C29.3522 14.4425 29.2673 14.0602 29.1681 13.6779C28.9274 12.6868 28.5735 11.724 28.1345 10.7895C27.9646 10.4497 27.7947 10.124 27.5965 9.79833C27.3982 9.44435 27.1717 9.10453 26.9451 8.76471C26.7469 8.46737 26.5345 8.18419 26.308 7.91516C26.1239 7.68862 25.9398 7.47623 25.7558 7.26384C25.6 7.09393 25.4301 6.92402 25.2602 6.75411C25.1186 6.61252 24.977 6.48509 24.8354 6.3435C24.7221 6.24438 24.6088 6.14527 24.4956 6.04615L24.4673 6.01783C23.6602 5.32404 22.7823 4.71519 21.862 4.20546C21.4372 3.97892 21.0124 3.76653 20.5734 3.58246C19.8513 3.27096 19.1009 3.03025 18.3504 2.84618C17.9823 2.76123 17.6142 2.67627 17.2319 2.61964L16.8354 5.62138L16.7646 6.11695L16.269 6.04615C15.7735 5.97536 15.2637 5.94704 14.7681 5.94704C12.2761 5.93288 9.85487 6.76827 7.90088 8.29746L7.50442 8.60896L7.19292 8.2125L5.35221 5.83377C5.1823 5.97536 5.02655 6.11695 4.85664 6.25854C4.50265 6.5842 4.17699 6.90986 3.85133 7.26384C1.37345 9.9824 0 13.5364 0 17.2177H5.04071C5.05487 11.8231 9.41593 7.44791 14.8106 7.44791C14.7965 7.44791 14.7965 7.44791 14.8106 7.44791ZM5.74868 5.52226L7.58939 7.901C10.0814 5.97536 13.2248 5.13997 16.3398 5.56474L16.7363 2.54884L16.8071 2.05327L17.0619 0.15594C15.5752 -0.0422881 14.0743 -0.0564471 12.5876 0.141781C9.55753 0.524079 6.68319 1.72761 4.26195 3.59662L5.46549 5.15413L5.74868 5.52226Z" fill="#00B2E2"/>
</svg>
