<?xml version="1.0" encoding="UTF-8" standalone="no"?>
<!DOCTYPE svg PUBLIC "-//W3C//DTD SVG 1.1//EN" "http://www.w3.org/Graphics/SVG/1.1/DTD/svg11.dtd">
<svg width="100%" height="100%" viewBox="0 0 100 100" version="1.1" xmlns="http://www.w3.org/2000/svg" xmlns:xlink="http://www.w3.org/1999/xlink" xml:space="preserve" xmlns:serif="http://www.serif.com/" style="fill-rule:evenodd;clip-rule:evenodd;stroke-linejoin:round;stroke-miterlimit:2;">
    <g id="Artboard1" transform="matrix(0.76937,0,0,0.76937,-0.0192544,-74.4262)">
        <rect x="0.025" y="96.737" width="129.977" height="129.977" style="fill:none;"/>
        <clipPath id="_clip1">
            <rect x="0.025" y="96.737" width="129.977" height="129.977"/>
        </clipPath>
        <g clip-path="url(#_clip1)">
            <g transform="matrix(1.64984,0,0,1.64984,-163.433,-491.356)">
                <path d="M116.26,405.36L148.41,373.84C150.045,372.234 152.248,371.334 154.54,371.334C156.891,371.334 159.145,372.281 160.79,373.96L146.2,359.08C144.555,357.401 142.301,356.454 139.95,356.454C137.658,356.454 135.455,357.354 133.82,358.96L101.68,390.48C98.254,393.844 98.2,399.43 101.56,402.86L116.15,417.74C114.541,416.104 113.639,413.899 113.639,411.605C113.639,409.257 114.584,407.005 116.26,405.36Z" style="fill:rgb(252,186,30);fill-rule:nonzero;"/>
            </g>
            <g transform="matrix(1.64984,0,0,1.64984,-163.433,-491.356)">
                <path d="M128.52,417.87L160.67,386.35C162.349,384.705 163.296,382.451 163.296,380.1C163.296,377.808 162.396,375.605 160.79,373.97L175.38,388.85C176.986,390.485 177.886,392.688 177.886,394.98C177.886,397.331 176.939,399.585 175.26,401.23L143.11,432.75C139.68,436.11 134.094,436.056 130.73,432.63L116.14,417.75C117.785,419.429 120.039,420.376 122.39,420.376C124.682,420.376 126.885,419.476 128.52,417.87Z" style="fill:rgb(223,144,38);fill-rule:nonzero;"/>
            </g>
            <g transform="matrix(1.64984,0,0,1.64984,-163.433,-491.356)">
                <path d="M175.38,388.85L160.79,374C162.396,375.635 163.296,377.838 163.296,380.13C163.296,382.481 162.349,384.735 160.67,386.38L159.78,387.26L168.24,395.89C169.846,397.525 170.746,399.728 170.746,402.02C170.746,404.371 169.799,406.625 168.12,408.27L175.26,401.27C176.951,399.624 177.906,397.361 177.906,395C177.906,392.699 176.998,390.487 175.38,388.85Z" style="fill:rgb(172,114,42);fill-rule:nonzero;"/>
            </g>
            <g transform="matrix(1.64984,0,0,1.64984,-163.433,-491.356)">
                <path d="M139.05,366.09L147.51,374.72L148.4,373.84C150.035,372.234 152.238,371.334 154.53,371.334C156.881,371.334 159.135,372.281 160.78,373.96L146.2,359.08C144.555,357.401 142.301,356.454 139.95,356.454C137.658,356.454 135.455,357.354 133.82,358.96L132.93,359.84L139.05,366.09Z" style="fill:rgb(255,200,65);fill-rule:nonzero;"/>
            </g>
        </g>
    </g>
</svg>
