<svg width="32" height="32" viewBox="0 0 32 32" fill="none" xmlns="http://www.w3.org/2000/svg">
<g clip-path="url(#clip0)">
<path d="M4.35678 27.3477C7.40958 30.2586 11.4813 32.0065 15.6995 31.8636C20.0631 32.0116 24.1369 30.2686 27.1931 27.3614C29.9583 24.7448 31.5605 21.1094 31.7083 17.1823L31.7098 14.7095C31.5666 10.9276 29.8234 7.14476 27.2068 4.52501C24.1541 1.46863 20.0823 -0.133807 15.8641 0.00911957C11.646 -0.138863 7.42675 1.60406 4.51592 4.51141C1.75072 7.12794 0.148537 10.7633 0.000728931 14.6905L-0.000752835 17.1633C-0.00301907 20.9451 1.59471 24.7278 4.35678 27.3477ZM8.58229 15.132C8.58342 13.2411 9.31165 11.6416 10.6215 10.3333C12.0769 9.02503 13.9682 8.29889 15.8591 8.30003C17.8956 8.15579 19.6405 9.02957 21.0943 10.3395C22.4026 11.6494 23.1289 13.2498 23.1277 15.1407L23.127 16.3044C23.1259 18.1953 22.3977 19.7949 21.0878 21.1032C19.6325 22.4114 17.7411 23.1375 15.8502 23.1364C13.8138 23.2806 12.0688 22.4068 10.6151 21.0969C9.30677 19.787 8.58046 18.1866 8.58159 16.2957L8.58229 15.132Z" fill="#7B66F4"/>
</g>
<defs>
<clipPath id="clip0">
<rect width="32" height="32" fill="white"/>
</clipPath>
</defs>
</svg>
