<svg width="32" height="32" viewBox="0 0 32 32" fill="none" xmlns="http://www.w3.org/2000/svg">
<mask id="mask0" mask-type="alpha" maskUnits="userSpaceOnUse" x="0" y="0" width="32" height="32">
<path d="M15.9039 0.516113C18.1671 0.516113 20.2636 0.908887 22.1929 1.69805C24.1258 2.48669 25.8089 3.57469 27.2463 4.96515C28.6822 6.3556 29.8063 7.99482 30.6192 9.88489C31.4321 11.777 31.8378 13.826 31.8378 16.032C31.8378 18.24 31.4321 20.288 30.6192 22.1796C29.8063 24.0702 28.6822 25.7115 27.2463 27.0988C25.8089 28.4888 24.1232 29.5793 22.1929 30.3659C20.2636 31.1546 18.1671 31.5473 15.9039 31.5473C13.6396 31.5473 11.5436 31.1546 9.61176 30.3659C7.68144 29.5783 5.99834 28.4888 4.56195 27.0988C3.12505 25.7115 2.0004 24.0702 1.1875 22.1796C0.50348 20.5857 0.108159 18.8848 0 17.07V14.9945C0.108172 13.1802 0.503491 11.477 1.1875 9.88489C2.0004 7.99482 3.12505 6.3556 4.56195 4.96515C5.99834 3.57469 7.68144 2.48566 9.61176 1.69805C11.541 0.908887 13.6396 0.516113 15.9039 0.516113ZM7.96376 19.3378H5.46466C5.48376 20.7267 5.74698 22.0222 6.26105 23.2186C6.79266 24.4588 7.53021 25.5329 8.4706 26.4433C9.41202 27.3538 10.5155 28.0676 11.781 28.5842C13.0445 29.1009 14.4195 29.3579 15.9039 29.3579C17.3852 29.3579 18.7607 29.1009 20.0262 28.5842C21.2902 28.0676 22.3927 27.3538 23.3336 26.4433C24.275 25.5329 25.0125 24.4588 25.5436 23.2186C26.0577 22.0222 26.323 20.7267 26.34 19.3378H23.8409C23.813 19.7646 23.7201 20.1662 23.5586 20.5409C23.3671 20.991 23.0992 21.3806 22.7581 21.712C22.4133 22.0428 22.0133 22.3014 21.5555 22.4882C21.0956 22.6761 20.5976 22.77 20.0572 22.77C19.5189 22.77 19.0213 22.6782 18.5609 22.4882C18.1041 22.3014 17.7031 22.0428 17.3594 21.712C17.0203 21.3822 16.7524 20.992 16.5578 20.5409C16.4293 20.2431 16.3467 19.9303 16.3039 19.5969H15.5034C15.46 19.9303 15.3749 20.2431 15.2469 20.5409C15.0549 20.991 14.787 21.3806 14.4458 21.712C14.1041 22.0428 13.701 22.3014 13.2432 22.4882C12.7834 22.6761 12.2853 22.77 11.7475 22.77C11.2066 22.77 10.7096 22.6782 10.2487 22.4882C9.79189 22.3014 9.39086 22.0428 9.05021 21.712C8.70802 21.3822 8.43963 20.992 8.24815 20.5409C8.08505 20.1662 7.99266 19.7657 7.96376 19.3378ZM20.0598 16.8872C19.7398 16.8872 19.4435 16.9424 19.17 17.0534C18.9005 17.1639 18.6611 17.3208 18.4592 17.5148C18.2554 17.711 18.0969 17.9437 17.9829 18.2111C17.8667 18.479 17.8094 18.7675 17.8094 19.0792C17.8094 19.3915 17.8667 19.6805 17.9829 19.9489C18.0969 20.2142 18.2554 20.4475 18.4592 20.6436C18.6611 20.8397 18.9005 20.992 19.17 21.1045C19.4435 21.216 19.7398 21.2707 20.0598 21.2707C20.3798 21.2707 20.6755 21.216 20.949 21.1045C21.2216 20.992 21.461 20.8397 21.6618 20.6436C21.8657 20.4475 22.0252 20.2142 22.1392 19.9489C22.2554 19.6805 22.3116 19.391 22.3116 19.0792C22.3116 18.7695 22.2554 18.479 22.1392 18.2111C22.0252 17.9437 21.8657 17.711 21.6618 17.5148C21.461 17.3208 21.2216 17.1639 20.949 17.0534C20.6755 16.9424 20.3798 16.8872 20.0598 16.8872ZM11.7475 16.8872C11.4275 16.8872 11.1312 16.9424 10.8587 17.0534C10.5857 17.1639 10.3488 17.3208 10.1449 17.5148C9.94363 17.711 9.78466 17.9437 9.66853 18.2111C9.55447 18.479 9.49563 18.7675 9.49563 19.0792C9.49563 19.3915 9.55447 19.6805 9.66853 19.9489C9.78466 20.2142 9.94363 20.4475 10.1449 20.6436C10.3488 20.8397 10.5857 20.992 10.8587 21.1045C11.1312 21.216 11.4275 21.2707 11.7475 21.2707C12.0675 21.2707 12.3638 21.216 12.6368 21.1045C12.9093 20.992 13.1467 20.8397 13.348 20.6436C13.5519 20.4475 13.7129 20.2142 13.827 19.9489C13.9405 19.6805 13.9978 19.391 13.9978 19.0792C13.9978 18.7695 13.9405 18.479 13.827 18.2111C13.7129 17.9437 13.5519 17.711 13.348 17.5148C13.1467 17.3208 12.9093 17.1639 12.6368 17.0534C12.3638 16.9424 12.0675 16.8872 11.7475 16.8872ZM16.3989 10.0299C16.3989 10.0299 15.7047 11.951 10.5238 13.5799C10.5238 13.5799 9.03292 14.0459 7.53069 14.528L7.14509 14.652C6.88909 14.7346 6.63649 14.8165 6.39473 14.8955C6.34879 14.9868 6.30131 15.072 6.26105 15.1644C5.91989 15.9556 5.68969 16.7891 5.56944 17.6645H8.22905C8.23421 17.6495 8.24144 17.6325 8.24815 17.6175C8.43963 17.167 8.70802 16.7773 9.05021 16.447C9.39086 16.1166 9.79189 15.857 10.2512 15.6702C10.7096 15.4823 11.2097 15.3868 11.7475 15.3868C12.2853 15.3868 12.7854 15.4823 13.2432 15.6702C13.7031 15.857 14.1041 16.1166 14.4458 16.447C14.787 16.7773 15.0549 17.167 15.2469 17.6175C15.3088 17.7595 15.3583 17.905 15.4012 18.0526H16.4061C16.4489 17.905 16.499 17.7595 16.5604 17.6175C16.7524 17.167 17.0203 16.7773 17.3614 16.447C17.7031 16.1166 18.1041 15.857 18.5635 15.6702C19.0234 15.4823 19.522 15.3868 20.0598 15.3868C20.5976 15.3868 21.0956 15.4823 21.5555 15.6702C22.0154 15.857 22.4164 16.1166 22.7581 16.447C23.0992 16.7773 23.3671 17.167 23.5612 17.6175C23.5658 17.6325 23.5725 17.6495 23.5782 17.6645H26.2378C26.115 16.7891 25.8843 15.9546 25.5436 15.1644C25.4585 14.9641 25.3563 14.7762 25.2613 14.5842C25.0367 14.5042 24.81 14.4244 24.5849 14.3458L24.3157 14.2522C22.7075 13.6946 21.25 13.2222 21.25 13.2222C17.4869 11.951 16.3989 10.0299 16.3989 10.0299Z" fill="white"/>
</mask>
<g mask="url(#mask0)">
<path fill-rule="evenodd" clip-rule="evenodd" d="M0.000793457 31.5473H31.8382V27.6686H0.000793457V31.5473Z" fill="#E05E31"/>
<path fill-rule="evenodd" clip-rule="evenodd" d="M0.000793457 27.6687H31.8382V23.7894H0.000793457V27.6687Z" fill="#E05E31"/>
<path fill-rule="evenodd" clip-rule="evenodd" d="M0.000793457 23.7894H31.8382V19.9102H0.000793457V23.7894Z" fill="#E05E31"/>
<path fill-rule="evenodd" clip-rule="evenodd" d="M0.000793457 19.9107H31.8382V16.0315H0.000793457V19.9107Z" fill="#E05E31"/>
<path fill-rule="evenodd" clip-rule="evenodd" d="M0 32H16H32V0H0V32Z" fill="#E05E31"/>
<path fill-rule="evenodd" clip-rule="evenodd" d="M0.000793457 12.1528H31.8382V8.27405H0.000793457V12.1528Z" fill="#E05E31"/>
<path fill-rule="evenodd" clip-rule="evenodd" d="M0.000793457 8.274H31.8382V4.39478H0.000793457V8.274Z" fill="#E05E31"/>
<path fill-rule="evenodd" clip-rule="evenodd" d="M0.000793457 4.39482H31.8382V0.516113H0.000793457V4.39482Z" fill="#E05E31"/>
</g>
</svg>
