<svg width="32" height="32" viewBox="0 0 32 32" fill="none" xmlns="http://www.w3.org/2000/svg">
<path d="M16.7178 0.571411H18.8536C18.8536 2.95355 18.8536 5.33213 18.8536 7.71427C22.5536 7.72141 26.25 7.70355 29.9466 7.71427C30.6751 7.67855 31.6714 7.88927 31.6571 8.80713C31.7928 13.325 31.6606 17.8536 31.7214 22.375C31.7357 23.175 31.7108 24.4357 30.6214 24.4464C26.7036 24.5821 22.775 24.4571 18.8536 24.5C18.8536 26.7607 18.8536 29.0251 18.8536 31.2857H16.6393C11.1964 30.2966 5.73928 29.3857 0.289277 28.4286C0.285706 20.0964 0.285706 11.7643 0.285706 3.4357C5.76428 2.47498 11.2428 1.54641 16.7178 0.571411Z" fill="#0071C5"/>
<path d="M18.8536 8.78575C22.8107 8.78932 26.7643 8.77504 30.7214 8.79289C30.6534 9.26075 30.5106 9.72146 30.1177 10.0143C27.7536 12.2179 25.4036 14.4322 23.0464 16.6429C21.6286 15.3607 20.25 14.0357 18.8536 12.7322C18.8536 11.4143 18.8536 10.1 18.8536 8.78575Z" fill="white"/>
<path d="M7.94283 10.0929C9.95712 9.33216 12.3107 10.4 13.1643 12.3464C14.3285 15.025 14.1643 18.6893 11.85 20.7143C9.71783 22.5393 6.14284 21.5 5.17141 18.9072C3.89283 15.9179 4.51426 11.3179 7.94283 10.0929Z" fill="white"/>
<path d="M24.1678 16.9607C26.3143 14.9214 28.4786 12.8964 30.6357 10.8678C30.6466 15.0535 30.6357 19.2428 30.6391 23.4285C26.7107 23.4285 22.7821 23.4285 18.8536 23.4285C18.8536 20.3142 18.85 17.1999 18.8571 14.0892C20.1893 15.2678 21.3821 16.6107 22.7964 17.6857C23.3786 17.7928 23.7714 17.2892 24.1678 16.9607Z" fill="white"/>
<path d="M8.28929 12.2393C9.23929 11.7857 10.4286 12.2465 10.875 13.1857C11.5893 14.6 11.5857 16.325 11.1179 17.8179C10.7857 18.8786 9.62501 19.7536 8.5 19.3357C7.09643 18.8929 6.67143 17.2286 6.65715 15.925C6.63929 14.575 6.95001 12.8929 8.28929 12.2393Z" fill="#0071C5"/>
</svg>
