<svg width="32" height="32" viewBox="0 0 32 32" fill="none" xmlns="http://www.w3.org/2000/svg">
<path fill-rule="evenodd" clip-rule="evenodd" d="M10.0959 16.7035C10.2468 18.1643 10.9339 19.5171 12.0243 20.5006C13.1146 21.484 14.5309 22.0285 15.9994 22.0285C17.4677 22.0285 18.8841 21.484 19.9744 20.5006C21.0648 19.5171 21.7519 18.1643 21.9028 16.7035C21.9227 16.5039 21.9326 16.3016 21.9326 16.0966C21.9393 15.3132 21.7909 14.5362 21.4956 13.8105C21.2004 13.0847 20.7645 12.4246 20.2129 11.8683C19.6612 11.3119 19.0049 10.8703 18.2817 10.5689C17.5585 10.2676 16.7828 10.1124 15.9994 10.1124C15.2159 10.1124 14.4401 10.2676 13.7169 10.5689C12.9938 10.8703 12.3374 11.3119 11.7858 11.8683C11.2342 12.4246 10.7982 13.0847 10.503 13.8105C10.2078 14.5362 10.0593 15.3132 10.066 16.0966C10.066 16.3008 10.076 16.5038 10.0959 16.7035ZM5.8743e-09 16.0005C-8.57266e-05 12.8359 0.938247 9.74237 2.69633 7.1111C4.45443 4.47985 6.95329 2.42901 9.87696 1.21798C12.8006 0.00693358 16.0177 -0.309932 19.1215 0.307453C22.2252 0.924838 25.0763 2.44875 27.3138 4.68645C29.5515 6.92416 31.0753 9.77516 31.6926 12.8789C32.3099 15.9826 31.993 19.1998 30.7819 22.1234C29.5707 25.047 27.5198 27.5459 24.8885 29.3039C22.2572 31.0619 19.1637 32.0002 15.9991 32C13.8981 32 11.8175 31.5861 9.87643 30.7822C7.9353 29.9781 6.17155 28.7995 4.68588 27.3138C3.20023 25.8281 2.02174 24.0643 1.21774 22.1231C0.413731 20.1819 -5.69214e-05 18.1015 5.8743e-09 16.0005Z" fill="#FF2400"/>
</svg>
