<svg width="30" height="31" viewBox="0 0 30 31" fill="none" xmlns="http://www.w3.org/2000/svg">
<path fill-rule="evenodd" clip-rule="evenodd" d="M21.8939 2.96969C20.0323 1.44888 17.4299 0.758534 14.3676 0.972381C12.9686 1.07014 9.69858 1.79955 8.10067 2.16205C6.39513 2.54895 5.93323 3.47972 5.71497 4.60711L5 8.3015C5 8.3015 8.26594 7.18406 10.2785 6.69416L8.72657 8.76759C8.37687 9.23466 8.11325 10.0275 8.11325 10.6119V30.7118L10.8668 29.6315C12.4377 29.0617 13.1491 27.6593 13.1491 26.2841V21.5654C14.2171 21.9844 15.5555 22.1647 16.9603 22.0667C19.5347 21.8868 21.7827 20.6581 23.2901 18.6071C24.8283 16.5147 25.5243 13.7363 25.303 10.5724C25.0659 7.18196 23.9189 4.62403 21.8939 2.96969ZM16.4633 17.3191C15.0859 17.4157 13.9454 17.0944 13.1491 16.3895V6.03945C14.1038 5.83893 14.8046 5.71467 15.1034 5.69371C18.1571 5.48017 20.0406 7.28705 20.276 10.6503C20.4301 12.8539 19.8315 17.0835 16.4633 17.3191Z" fill="#445A7D"/>
</svg>
