<?xml version="1.0" encoding="UTF-8" standalone="no"?>
<!DOCTYPE svg PUBLIC "-//W3C//DTD SVG 1.1//EN" "http://www.w3.org/Graphics/SVG/1.1/DTD/svg11.dtd">
<svg width="100%" height="100%" viewBox="0 0 1250 1250" version="1.1" xmlns="http://www.w3.org/2000/svg" xmlns:xlink="http://www.w3.org/1999/xlink" xml:space="preserve" xmlns:serif="http://www.serif.com/" style="fill-rule:evenodd;clip-rule:evenodd;stroke-linejoin:round;stroke-miterlimit:2;"><path d="M723.11,472.384c0.009,-0.489 0.014,-0.978 0.014,-1.467c0,-45.051 -37.072,-82.122 -82.123,-82.122c-0.488,0 -0.977,0.004 -1.466,0.013l-112.645,0l0,167.151l112.645,0c0.489,0.009 0.978,0.013 1.466,0.013c45.051,0 82.123,-37.071 82.123,-82.122c0,-0.489 -0.005,-0.977 -0.014,-1.466Z" style="fill:#1c5673;fill-rule:nonzero;"/><path d="M639.535,279.797l-221.657,0l0,694.04l54.506,0l0,-639.535l167.151,0c75.749,0 138.081,62.333 138.081,138.082c0,75.749 -62.332,138.081 -138.081,138.081l-112.645,0l0,359.738l54.505,0l0,-305.232l54.506,0c0.243,0.001 0.486,0.001 0.728,0.001c107.245,0 195.494,-88.249 195.494,-195.494c0,-0.243 0,-0.485 -0.001,-0.728c0.013,-0.882 0.019,-1.764 0.019,-2.647c0,-102.261 -84.149,-186.409 -186.41,-186.409c-2.066,0 -4.131,0.034 -6.196,0.103Z" style="fill:#1c5673;fill-rule:nonzero;"/><path d="M0,0l0,1250l1250,0l0,-1250l-1250,0Zm639.535,723.11l0,305.233l-279.797,0l0,-806.686l279.797,0c137.545,0 250.727,113.182 250.727,250.727c0,137.544 -113.182,250.726 -250.727,250.726Z" style="fill:#1c5673;fill-rule:nonzero;"/></svg>