<svg width="32" height="32" viewBox="0 0 32 32" fill="none" xmlns="http://www.w3.org/2000/svg">
<path d="M20.6863 27.3137C26.9347 24.7255 29.9019 17.5621 27.3137 11.3137C24.7255 5.06529 17.5621 2.0981 11.3137 4.68627C5.06532 7.27443 2.09812 14.4379 4.68629 20.6863C7.27446 26.9347 14.4379 29.9019 20.6863 27.3137Z" fill="#010101"/>
<path d="M26.6084 20.3951C29.0349 14.5372 26.2531 7.82143 20.3952 5.395C14.5372 2.96857 7.82146 5.75034 5.39503 11.6083C2.9686 17.4662 5.75037 24.182 11.6083 26.6084C17.4662 29.0348 24.182 26.2531 26.6084 20.3951Z" fill="#010101"/>
<path d="M16.0001 24.5232C21.6237 24.5232 26.1826 19.9643 26.1826 14.3406C26.1826 8.71696 21.6237 4.15808 16.0001 4.15808C10.3764 4.15808 5.8175 8.71696 5.8175 14.3406C5.8175 19.9643 10.3764 24.5232 16.0001 24.5232Z" fill="#DDE460"/>
<path d="M16 24.7922C10.1618 24.7922 5.4292 20.0596 5.4292 14.2213C5.4292 8.38395 10.1618 3.65137 16 3.65137C21.8374 3.65137 26.57 8.38395 26.57 14.2213C26.57 20.0596 21.8374 24.7922 16 24.7922V24.7922ZM16 4.43404C14.0609 4.43387 12.1653 5.00891 10.5531 6.08639C8.94087 7.16388 7.68449 8.69538 6.94294 10.4871C6.20138 12.2789 6.00798 14.2503 6.38719 16.152C6.76641 18.0537 7.7012 19.8001 9.07328 21.1704C10.4454 22.5406 12.1931 23.4731 14.0953 23.8498C15.9975 24.2265 17.9686 24.0304 19.7594 23.2865C21.5501 22.5425 23.08 21.2841 24.1553 19.6705C25.2306 18.0568 25.8031 16.1605 25.8004 14.2213C25.7978 8.80968 21.4126 4.42185 16 4.41663V4.43404V4.43404Z" fill="#010101"/>
<path d="M14.2945 27.4562C18.9627 27.4562 22.7471 23.6718 22.7471 19.0036C22.7471 14.3353 18.9627 10.5509 14.2945 10.5509C9.62618 10.5509 5.8418 14.3353 5.8418 19.0036C5.8418 23.6718 9.62618 27.4562 14.2945 27.4562Z" fill="#A7DCDA"/>
<path d="M14.3128 27.842C13.6843 27.842 13.0574 27.7767 12.4428 27.6461C7.67188 26.6222 4.63436 21.9262 5.65731 17.1545C6.6794 12.3836 11.3763 9.34518 16.1472 10.3664C20.9181 11.3885 23.9582 16.0845 22.937 20.8554C22.5137 22.8277 21.4288 24.5961 19.8621 25.8669C18.2955 27.1377 16.3414 27.8346 14.3241 27.842H14.3128V27.842ZM14.2928 10.9332C12.7692 10.9335 11.2768 11.3651 9.98819 12.1781C8.6996 12.991 7.66746 14.1522 7.01115 15.5272C6.35483 16.9022 6.10115 18.4349 6.27945 19.948C6.45775 21.4612 7.06073 22.893 8.01868 24.0778C8.97662 25.2626 10.2504 26.152 11.6926 26.6432C13.1349 27.1344 14.6868 27.2073 16.1687 26.8534C17.6507 26.4996 19.0022 25.7335 20.067 24.6437C21.1318 23.5539 21.8663 22.185 22.1857 20.6952C22.4376 19.5184 22.4232 18.3002 22.1436 17.1297C21.8639 15.9591 21.3261 14.866 20.5695 13.9301C19.8128 12.9943 18.8565 12.2395 17.7705 11.7209C16.6845 11.2024 15.4963 10.9332 14.2928 10.9332V10.9332Z" fill="#010101"/>
<path d="M21.6781 24.6032C24.5741 24.6032 26.9217 22.2556 26.9217 19.3596C26.9217 16.4636 24.5741 14.116 21.6781 14.116C18.7821 14.116 16.4344 16.4636 16.4344 19.3596C16.4344 22.2556 18.7821 24.6032 21.6781 24.6032Z" fill="#F6DF3F"/>
<path d="M21.6781 24.9882C20.5651 24.9882 19.4771 24.6581 18.5517 24.0398C17.6263 23.4215 16.905 22.5426 16.479 21.5144C16.053 20.4861 15.9415 19.3547 16.1586 18.263C16.3757 17.1714 16.9116 16.1687 17.6985 15.3816C18.4854 14.5946 19.4881 14.0585 20.5797 13.8413C21.6713 13.624 22.8028 13.7354 23.8311 14.1612C24.8594 14.587 25.7384 15.3081 26.3568 16.2335C26.9753 17.1588 27.3055 18.2467 27.3057 19.3597C27.3043 20.8518 26.7109 22.2824 25.6559 23.3375C24.6008 24.3926 23.1702 24.9859 21.6781 24.9873V24.9882ZM21.6781 14.5C21.0396 14.4998 20.4073 14.6253 19.8172 14.8695C19.2272 15.1136 18.6911 15.4716 18.2394 15.9229C17.7878 16.3743 17.4294 16.9102 17.1848 17.5C16.9403 18.0898 16.8143 18.7221 16.8141 19.3606C16.8138 19.9991 16.9394 20.6314 17.1835 21.2215C17.4277 21.8115 17.7856 22.3476 18.237 22.7993C18.6883 23.2509 19.2242 23.6093 19.814 23.8539C20.4039 24.0984 21.0361 24.2244 21.6746 24.2246C22.9642 24.2251 24.2011 23.7133 25.1133 22.8017C26.0255 21.8902 26.5382 20.6536 26.5387 19.3641C26.5391 18.0745 26.0273 16.8376 25.1158 15.9254C24.2042 15.0132 22.9677 14.5005 21.6781 14.5V14.5Z" fill="#010101"/>
</svg>
