<svg width="32" height="32" viewBox="0 0 32 32" fill="none" xmlns="http://www.w3.org/2000/svg">
<path d="M21.2456 3.94576C21.3664 2.98321 21.0888 2.05513 20.4072 1.2506C19.9208 0.675938 18.948 0.0122048 17.824 0.0380646C17.16 0.0524311 16.176 0.313902 15.2712 1.47759C14.9112 1.94019 14.6136 2.45164 14.3704 2.97171C14.124 2.43153 13.824 1.90571 13.4544 1.42874C12.5616 0.276548 11.5832 0.0179514 10.9192 0.000711617C9.76879 -0.0251481 8.77359 0.658698 8.26959 1.2506C7.58319 2.06087 7.2944 2.98895 7.3944 3.94289L3.2 7.88793V31.653H24.2904L28.336 27.8545V3.94576H21.2456ZM16.688 2.81942C17.0224 2.45164 17.5864 2.07524 17.8696 2.06949C17.8752 2.06949 17.864 2.06949 17.8696 2.06949C18.1816 2.02639 18.5504 2.14994 18.7536 2.36832C19.1856 2.82805 19.832 3.77911 18.5992 5.14105C17.7408 6.09212 16.0552 6.91389 15.2432 7.05755C15.3232 5.84214 15.6008 4.01185 16.688 2.81942ZM9.9208 2.37119C10.1472 2.16144 10.4416 1.98329 10.8704 2.03214C10.8768 2.03214 10.8648 2.03214 10.8704 2.03214C11.1512 2.03789 11.7064 2.41141 12.0352 2.76483C13.06 3.86818 13.5232 5.75594 13.4544 7.08341C12.628 6.95985 10.8848 6.17545 10.0352 5.1899C8.80239 3.77049 9.592 2.67576 9.9208 2.37119ZM7.90079 5.84214H8.04399C8.19519 6.06338 8.4904 6.4599 8.7104 6.64954C9.2144 7.08628 9.52879 7.34775 9.98639 7.60922H6.05199L7.90079 5.84214ZM22.8656 29.7595H5.0824V9.35622H12.0928C11.0536 10.4596 9.7376 11.3186 8.4616 11.3186C8.4584 11.3186 8.45839 11.4652 8.45599 11.4652L8.4528 13.2036C8.456 13.2036 8.4584 13.2036 8.4616 13.2036C11.2968 13.2036 13.1912 11.4135 14.2584 9.97686C15.3 11.4365 17.2312 13.3645 20.176 13.3645C20.1784 13.3645 20.1816 13.3645 20.184 13.3645L20.1816 11.1836C20.1784 11.1836 20.1784 11.3301 20.176 11.3301C18.5736 11.3301 17.2144 10.2699 16.4016 9.35334H22.8624V29.7595H22.8656ZM23.3344 7.60922H18.5848C18.8424 7.39947 19.6808 6.86791 19.9208 6.59782C20.1016 6.39669 20.7024 5.7502 20.8456 5.54619H25.7696L23.3344 7.60922ZM26.5936 26.8259L24.9024 28.4263V8.77582L26.5936 7.17535V26.8259Z" fill="black"/>
</svg>
