<svg width="32" height="32" viewBox="0 0 32 32" fill="none" xmlns="http://www.w3.org/2000/svg">
<rect width="32" height="32" fill="white"/>
<path fill-rule="evenodd" clip-rule="evenodd" d="M13.1119 5.23718C15.1049 4.72868 16.4048 4.62451 18.9187 5.23718C19.5708 4.43908 22.9515 1.18984 24.5374 3.2135C26.1233 5.23718 25.375 7.53188 24.7356 8.11008C25.7088 12.9705 26.0009 18.2618 26.3751 20.5325C26.9735 24.1623 16.5809 29.5187 16.0674 29.5187C15.5539 29.5187 5.05242 24.1589 5.56482 20.5325C5.89741 18.1785 6.93062 11.5069 7.5974 8.34496C6.74748 8.11008 6.08299 4.90647 7.84971 3.2135C9.61643 1.52055 12.2176 4.46338 13.1119 5.23718ZM11.5261 13.7836C11.5261 11.5069 13.7967 7.53188 16.0674 7.53188C18.3382 7.53188 20.8611 11.5069 20.8611 13.7836C20.8611 16.9304 17.6541 17.9361 16.0674 17.9361C14.4807 17.9361 11.5261 16.9304 11.5261 13.7836ZM16.0674 10.5854C14.1621 10.5854 13.7607 10.9971 13.7607 11.5806C13.7607 12.1642 14.3727 12.9524 16.0674 12.9524C17.7622 12.9524 18.3092 12.2291 18.3092 11.5806C18.3092 10.9322 17.9727 10.5854 16.0674 10.5854Z" fill="black"/>
</svg>
