<svg width="32" height="32" viewBox="0 0 32 32" fill="none" xmlns="http://www.w3.org/2000/svg">
<path fill-rule="evenodd" clip-rule="evenodd" d="M27.3125 27.311C33.5625 21.0614 33.5625 10.9355 27.3125 4.68584C25.9496 3.32374 23.7259 3.32374 22.363 4.68584C21.0009 6.04794 21.0009 8.27205 22.363 9.63695C25.8745 13.1485 25.8745 18.8484 22.363 22.3628C18.8515 25.8743 13.1493 25.8743 9.63774 22.3628C7.87635 20.6 7.00129 18.3013 7.00129 15.9998C7.00129 8.36322 12.3515 1.97546 19.5021 0.386803C18.3779 0.138144 17.2012 0 16.0019 0C7.1649 0 0 7.16138 0 15.9998C0 18.0499 0.388003 20.0999 1.17451 22.0256C2.87512 26.0622 5.9491 29.1262 9.77358 30.7508C13.0112 32.0632 16.3373 32.3257 19.4999 31.6128C22.363 30.9718 25.088 29.5351 27.3125 27.311Z" fill="#3CC1CA"/>
</svg>
