<svg xmlns="http://www.w3.org/2000/svg" width="512" height="512" viewBox="0 0 512 512"><path fill="#EA202E" d="M512 472c0 22.1-17.9 40-40 40H40c-22.1 0-40-17.9-40-40V40C0 17.9 17.9 0 40 0h432c22.1 0 40 17.9 40 40v432z"/><path fill-rule="evenodd" clip-rule="evenodd" fill="#FFF" d="M207.7 247.3c.2-.1.3-.2.5-.3 18.7-13.2 37.4-26.4 56.1-39.5-6.3 11.3-12.6 22.6-18.9 34-12.6 1.9-25.2 3.8-37.7 5.8z"/><path fill-rule="evenodd" clip-rule="evenodd" fill="#0063AB" d="M245.5 241.3c15.3 2.4 30.6 4.8 46.1 7.2-19.1 13.5-38.3 27.1-57.5 40.8h-.1c3.9-16.1 7.7-32.1 11.5-48z"/><path fill-rule="evenodd" clip-rule="evenodd" fill="#ABB5D4" d="M207.6 247.3c12.6-2 25.1-3.9 37.8-5.9-3.8 15.8-7.5 31.8-11.4 47.9-8.9-14.1-17.7-28.1-26.4-42z"/><path fill-rule="evenodd" clip-rule="evenodd" fill="#ABB7D5" d="M264.3 207.5c.1.1.1.3.2.3 8.9 13.4 17.9 27 27.1 40.7h.1c-15.6-2.3-31-4.6-46.4-6.9 6.4-11.4 12.7-22.8 19-34.1z"/><path fill-rule="evenodd" clip-rule="evenodd" fill="#FFF" d="M168.3 456.1c5.5-27.2 10.8-53.9 16.1-80.1 5.2-25.8 10.3-51.3 15.4-76.3 4.8 9 9.8 18.1 14.7 27.1 16.2-12.2 32.4-24.5 48.6-36.6-15.3 26.7-30.9 53.8-46.5 81.2-15.8 27.8-31.9 56-48.3 84.7zM186.6 275c-19.4-5.3-38.5-10.6-57.4-15.7-18.7-5-37.2-10.2-55.5-15.2 25.4-5.6 51-11.2 76.7-16.8 25.8-5.6 51.9-11.4 78-17.1-18.2 13.5-36.5 27.1-54.8 40.8 4.3 8 8.6 16 13 24zm46.9-68.4c15.4-26 30.5-51.6 45.5-76.8 14.8-24.9 29.3-49.5 43.7-73.8-4 22.7-8.1 45.9-12.2 69.2-4.2 23.7-8.4 48-12.8 72.5-5.5-9-11-17.9-16.4-26.7-15.9 11.8-31.8 23.6-47.8 35.6zm73 5.3c21.3 5.3 42.9 10.7 64.7 16.1 22.1 5.5 44.5 11 67.1 16.6-26.9 5.6-53.5 11.3-80.1 16.9-26.4 5.6-52.7 11.1-78.8 16.6 15.5-11.6 30.9-23.2 46.3-34.8-6.5-10.6-12.9-21.1-19.2-31.4z"/></svg>