<svg id="Layer_1" data-name="Layer 1" xmlns="http://www.w3.org/2000/svg" xmlns:xlink="http://www.w3.org/1999/xlink" viewBox="0 0 16 16"><defs><style>.cls-1{fill:#fff;}.cls-2{fill:url(#linear-gradient);}</style><linearGradient id="linear-gradient" x1="6.66" y1="21.04" x2="4.38" y2="42.76" gradientUnits="userSpaceOnUse"><stop offset="0.02" stop-color="#ed1c24"/><stop offset="1" stop-color="#be1e2d"/></linearGradient></defs><title>_</title><rect class="cls-1" width="16" height="16"/><path class="cls-2" d="M13,11.33a9.31,9.31,0,0,1-1.74.82,8.22,8.22,0,0,1-2.06.51c-.3,0-.61.09-.92.12h0c-2.89.25-5.35-.37-6.76-1.7l0,0c0,.05,0,.1,0,.16a2.45,2.45,0,0,0,.62,1.6c1.14,1.31,3.34,2,5.9,2.07A10.29,10.29,0,0,0,12.41,14a4.71,4.71,0,0,0,1.49-1.08,2.45,2.45,0,0,0,.65-1.59,2.31,2.31,0,0,0-.26-1.07A5.84,5.84,0,0,1,13,11.33Zm-5-1.81c-2.7.21-5-.3-6.47-1.45a2.52,2.52,0,0,0,.61,1.45c1.14,1.31,3.34,2,5.9,2.07a10.25,10.25,0,0,0,4.45-.88,4.63,4.63,0,0,0,1.49-1.08A2.46,2.46,0,0,0,14.57,8a2.34,2.34,0,0,0-.39-1.29C13.81,7.22,12.22,9.19,7.94,9.51ZM8,8.3a10.22,10.22,0,0,0,4.45-.88A4.63,4.63,0,0,0,14,6.33a2.44,2.44,0,0,0,.65-1.59A2.45,2.45,0,0,0,14,3.13c-1.15-1.32-3.34-2-5.9-2.07a10.25,10.25,0,0,0-4.45.88A4.7,4.7,0,0,0,2.14,3,2.48,2.48,0,0,0,1.5,4.62a2.47,2.47,0,0,0,.62,1.61C3.26,7.54,5.46,8.25,8,8.3Zm-5-5c.62-.76,2.55-1.5,4.81-1.46a8.74,8.74,0,0,1,3.78.8,3.11,3.11,0,0,1,1,.74,1,1,0,0,1,.28.64,1,1,0,0,1-.29.64c-.62.76-2.55,1.5-4.81,1.46A8.77,8.77,0,0,1,4,5.36a3.22,3.22,0,0,1-1-.74A1,1,0,0,1,2.76,4,1,1,0,0,1,3,3.33Z"/></svg>