<svg width="32" height="32" viewBox="0 0 32 32" fill="none" xmlns="http://www.w3.org/2000/svg">
<path d="M31.9563 18.997L30.546 19.9217C28.6914 17.0801 25.8446 15.132 22.5277 14.4359C19.2107 13.7398 15.821 14.3787 12.9846 16.2359C10.6313 17.7788 8.89106 20.0048 7.97156 22.6178H6.19492C7.17673 19.4152 9.22872 16.6801 12.0625 14.8229C15.2756 12.719 19.1146 11.9943 22.8731 12.7839C26.629 13.5709 29.8551 15.7762 31.9563 18.997Z" fill="#FF5C75"/>
<path d="M23.4601 9.97381L23.1121 11.6336C19.0471 10.7816 14.8937 11.5634 11.4184 13.8414C8.2495 15.9168 5.9871 19.0051 4.96892 22.6182H3.21564C4.2806 18.4103 6.84167 14.8103 10.4911 12.4206C14.3457 9.89589 18.951 9.02574 23.4601 9.97381Z" fill="#009EDD"/>
<path d="M9.85472 11.4467C5.87802 14.0494 3.10915 18.0027 2.02082 22.6157H0.290924C1.41562 17.4131 4.48061 12.948 8.93263 10.0337L9.85472 11.4467Z" fill="#6BE1E7"/>
</svg>
