<svg width="32" height="32" viewBox="0 0 32 32" fill="none" xmlns="http://www.w3.org/2000/svg">
<path d="M0.00110441 17.7108V17.681C-0.00416192 17.6327 0.00954247 17.5843 0.0392942 17.546C0.0690459 17.5078 0.11249 17.4827 0.160358 17.4762H10.4119C10.4478 17.4789 10.4819 17.4935 10.5087 17.5178C10.5355 17.542 10.5535 17.5746 10.56 17.6102C12.5229 25.0862 14.3858 27.5807 16.0006 27.5807C18.2449 27.5807 20.0078 22.7407 20.8782 19.7622C20.9411 19.5462 21.2152 19.6319 21.1782 19.859C19.3264 32 13.771 32 11.9859 32C6.40088 31.9925 1.66401 26.0021 0.00110441 17.7108ZM31.9926 17.6586C31.9946 17.6128 31.9787 17.568 31.9482 17.5339C31.9177 17.4998 31.8752 17.4791 31.8296 17.4762H22.6855C22.6449 17.479 22.6067 17.497 22.5786 17.5266C22.5505 17.5562 22.5345 17.5954 22.5337 17.6363C21.8966 24.0251 20.2745 28.6678 17.482 31.2479C17.4631 31.2666 17.448 31.2889 17.4378 31.3136C17.4275 31.3382 17.4222 31.3646 17.4222 31.3913C17.4222 31.4179 17.4275 31.4444 17.4378 31.469C17.448 31.4936 17.4631 31.5159 17.482 31.5346C17.4984 31.5535 17.5186 31.5687 17.5412 31.5793C18.3449 31.8367 19.1829 31.9698 20.0263 31.9739C25.6336 31.9739 30.3704 25.8792 32 17.6586H31.9926Z" fill="url(#paint0_linear_2560_3)"/>
<path d="M31.9929 14.2818C31.9924 14.2905 31.9924 14.2992 31.9929 14.3079C32.0016 14.3547 31.9918 14.4031 31.9655 14.4428C31.9392 14.4825 31.8985 14.5102 31.8521 14.5201H21.5895C21.5537 14.5189 21.5193 14.5052 21.4923 14.4815C21.4653 14.4577 21.4473 14.4253 21.4414 14.3898C19.4785 6.90634 17.6156 4.41187 16.0008 4.41187C13.7565 4.41187 11.9935 9.25189 11.1232 12.2304C11.0602 12.4463 10.7862 12.3607 10.8232 12.1336C12.6787 0 18.2378 0 20.0007 0C25.6005 0 30.3374 5.99046 31.9929 14.2818ZM0.00137114 14.3302C-0.00170262 14.376 0.0132743 14.4212 0.0430691 14.4561C0.072864 14.4909 0.115087 14.5125 0.160625 14.5163H9.31216C9.35316 14.5136 9.39171 14.4958 9.42042 14.4662C9.44913 14.4367 9.46597 14.3975 9.46771 14.3563C10.1047 7.96742 11.7269 3.30611 14.5194 0.744619C14.5382 0.72623 14.5532 0.704234 14.5634 0.679934C14.5736 0.655634 14.5788 0.629521 14.5788 0.603141C14.5788 0.576761 14.5736 0.550649 14.5634 0.526349C14.5532 0.502048 14.5382 0.480053 14.5194 0.461664C14.503 0.442754 14.4828 0.427531 14.4601 0.416987C13.6582 0.156937 12.8213 0.0225718 11.9787 0.0186155C6.36782 0.0186155 1.63094 6.11332 0.00137114 14.3302Z" fill="url(#paint1_linear_2560_3)"/>
<defs>
<linearGradient id="paint0_linear_2560_3" x1="30.2519" y1="24.7325" x2="0.864038" y2="24.7325" gradientUnits="userSpaceOnUse">
<stop stop-color="#FF8F1C"/>
<stop offset="1" stop-color="#ED2024"/>
</linearGradient>
<linearGradient id="paint1_linear_2560_3" x1="-28948.7" y1="21411" x2="-26409.9" y2="21411" gradientUnits="userSpaceOnUse">
<stop stop-color="#FF8F1C"/>
<stop offset="1" stop-color="#ED2024"/>
</linearGradient>
</defs>
</svg>
