<?xml version="1.0" encoding="UTF-8" standalone="no"?>
<svg
   xmlns:dc="http://purl.org/dc/elements/1.1/"
   xmlns:cc="http://creativecommons.org/ns#"
   xmlns:rdf="http://www.w3.org/1999/02/22-rdf-syntax-ns#"
   xmlns:svg="http://www.w3.org/2000/svg"
   xmlns="http://www.w3.org/2000/svg"
   id="svg14712"
   viewBox="-1.3557 -1.3557 41.005178 47.901399"
   height="271"
   width="232.146"
   version="1.1">
  <metadata
     id="metadata21">
    <rdf:RDF>
      <cc:Work
         rdf:about="">
        <dc:format>image/svg+xml</dc:format>
        <dc:type
           rdf:resource="http://purl.org/dc/dcmitype/StillImage" />
        <dc:title></dc:title>
      </cc:Work>
    </rdf:RDF>
  </metadata>
  <defs
     id="defs14714" />
  <path
     style="fill:#003087;fill-opacity:1;fill-rule:nonzero;stroke:none"
     id="path14499"
     d="M 32.60643,3.4075 C 30.51393,1.0225 26.73143,0 21.89268,0 H 7.84893 C 6.85893,0 6.01768,0.72 5.86268,1.69625 L 0.01518001,38.7825 c -0.11625,0.73125 0.45,1.39375 1.19124999,1.39375 h 8.67 l 2.1775,-13.81125 -0.0675,0.4325 c 0.155,-0.97625 0.99,-1.69625 1.97875,-1.69625 h 4.12 c 8.09375,0 14.43125,-3.2875 16.2825,-12.7975 0.055,-0.28125 0.1025,-0.555 0.14375,-0.8225 -0.23375,-0.12375 -0.23375,-0.12375 0,0 0.55125,-3.515 -0.004,-5.9075 -1.905,-8.07375" />
  <path
     style="fill:#003087;fill-opacity:1;fill-rule:nonzero;stroke:none"
     id="path14527"
     d="M 32.60643,3.4075 C 30.51393,1.0225 26.73143,0 21.89268,0 H 7.84893 C 6.85893,0 6.01768,0.72 5.86268,1.69625 L 0.01518001,38.7825 c -0.11625,0.73125 0.45,1.39375 1.19124999,1.39375 h 8.67 l 2.1775,-13.81125 -0.0675,0.4325 c 0.155,-0.97625 0.99,-1.69625 1.97875,-1.69625 h 4.12 c 8.09375,0 14.43125,-3.2875 16.2825,-12.7975 0.055,-0.28125 0.1025,-0.555 0.14375,-0.8225 -0.23375,-0.12375 -0.23375,-0.12375 0,0 0.55125,-3.515 -0.004,-5.9075 -1.905,-8.07375" />
  <path
     style="fill:#002f86;fill-opacity:1;fill-rule:nonzero;stroke:none"
     id="path14531"
     d="m 14.39418,11.52788 c 0.0925,-0.5875 0.47,-1.06875 0.9775,-1.3125 0.23125,-0.11 0.48875,-0.17125 0.75875,-0.17125 h 11.01 c 1.30375,0 2.52,0.085 3.63125,0.26375 0.31875,0.0512 0.6275,0.11 0.9275,0.1775 0.3,0.0662 0.59125,0.14125 0.87375,0.22375 0.14125,0.0412 0.28,0.0838 0.41625,0.12875 0.54625,0.1825 1.055,0.395 1.5225,0.64375 0.55125,-3.51625 -0.004,-5.9075 -1.905,-8.07375 -2.09375,-2.385 -5.875,-3.4075 -10.71375,-3.4075 h -14.045 c -0.98875,0 -1.83,0.72 -1.985,1.69625 l -5.84749999,37.085 c -0.11625,0.7325 0.45,1.39375 1.18999999,1.39375 h 8.67125 l 2.1775,-13.81125 z" />
  <path
     style="fill:#009cde;fill-opacity:1;fill-rule:nonzero;stroke:none"
     id="path14535"
     d="m 34.51168,11.48125 v 0 c -0.0425,0.26875 -0.0888,0.54125 -0.14375,0.8225 -1.85125,9.50875 -8.18875,12.7975 -16.2825,12.7975 h -4.12125 c -0.98875,0 -1.82375,0.72 -1.9775,1.69625 l -2.11,13.3775 -0.59875,3.795 c -0.10125,0.64 0.39375,1.22 1.04125,1.22 h 7.30875 c 0.865,0 1.60125,-0.63 1.73625,-1.48375 l 0.0713,-0.3725 1.3775,-8.73 0.0888,-0.4825 c 0.135,-0.85375 0.87125,-1.48375 1.73625,-1.48375 h 1.09375 c 7.08,0 12.62375,-2.87625 14.24375,-11.195 0.67625,-3.47625 0.32625,-6.37875 -1.4625,-8.4175 -0.5425,-0.6175 -1.21625,-1.1275 -2.00125,-1.54375" />
  <path
     style="fill:#012069;fill-opacity:1;fill-rule:nonzero;stroke:none"
     id="path14539"
     d="m 32.57331,10.70863 c -0.2825,-0.0825 -0.57375,-0.1575 -0.87375,-0.22375 -0.3,-0.0663 -0.61,-0.125 -0.9275,-0.17625 -1.1125,-0.18 -2.3275,-0.265 -3.6325,-0.265 H 16.13081 c -0.27125,0 -0.52875,0.0613 -0.75875,0.1725 -0.50875,0.24375 -0.885,0.72375 -0.9775,1.3125 l -2.34,14.83625 -0.0675,0.4325 c 0.15375,-0.97625 0.98875,-1.69625 1.9775,-1.69625 h 4.12125 c 8.09375,0 14.43125,-3.2875 16.2825,-12.7975 0.055,-0.28125 0.10125,-0.55375 0.14375,-0.8225 -0.46875,-0.2475 -0.97625,-0.46125 -1.5225,-0.6425 -0.13625,-0.045 -0.275,-0.0888 -0.41625,-0.13" />
</svg>
