<svg xmlns="http://www.w3.org/2000/svg" width="64" height="64"><path d="M4.836.49l27.26 4.083L59.164.49 54.68 57.804 32.096 63.51 8.312 57.806z" fill="#e5e7e8" stroke="#ccc"/><path d="M32.096 10.746l21.83-3.916-2.91 46.99-18.92 4.698z" fill="#fff"/><path fill="#ff2600" d="M3.756 22.432h34.027v19.136H3.756z"/><path fill="#ff501a" d="M36.764 22.432h23.48v19.136h-23.48z"/><path d="M7.056 24.472v15.053H9.85v-5.093h3.797l1.778-1.59v-6.606L13.62 24.47H7.056zm2.794 2.915h2.66v4.37H9.85v-4.37zm6.79-2.915v15.053h6.9l1.604-1.55V26.01l-1.698-1.538H16.64zm2.916 2.915h2.914v9.224h-2.914v-9.22zm7.04-2.91h7.04v2.912h-4.37v3.17c1.254.04 2.51-.05 3.763 0v2.88c-1.26.04-2.51-.05-3.77 0v6.08h-2.67V24.47zM40.273 38.74l-.934-.79V35.4h2.79v1.214h2.43V24.476h2.79V37.95l-1.87 1.578H41.2l-.933-.79zm9.226 0l-.91-.79v-2.558c.88 0 1.88.01 2.76.01v1.212h2.91V33.46h-4.1l-1.6-1.58v-5.826l1.6-1.578h4.96l1.82 1.578-.007 2.307h-2.67v-.97h-2.91v3.16h3.838l1.747 1.55v5.85l-.89.798-.897.796h-4.72z" fill="#fff"/></svg>