<svg width="32" height="32" viewBox="0 0 32 32" fill="none" xmlns="http://www.w3.org/2000/svg">
<path d="M9.05777 16.1933L0.227751 1.8686C0.198531 1.8217 0.141652 1.8 0.0886212 1.81551C0.0355891 1.83101 -0.000629054 1.87993 8.27893e-06 1.93518V29.721C0.000744279 29.775 0.036547 29.8222 0.0883363 29.8375C0.140127 29.8528 0.195833 29.8326 0.225747 29.7876L9.05577 16.3225C9.08093 16.2833 9.0817 16.2333 9.05777 16.1933Z" fill="#1B2CCC"/>
<path d="M17.9544 1.33325H4.45731C4.39417 1.33374 4.3361 1.36792 4.30504 1.4229C4.27397 1.47788 4.27466 1.54526 4.30683 1.5996L13.2008 16.17C13.2371 16.2276 13.2371 16.3009 13.2008 16.3585L4.31814 30.0267C4.28304 30.0809 4.28038 30.15 4.31119 30.2067C4.342 30.2635 4.40137 30.299 4.46597 30.299H16.4602V22.6416H17.9524C26.7458 22.6416 30.9094 18.0404 30.9094 11.9877C30.9094 5.93504 26.7524 1.33325 17.9544 1.33325ZM17.9544 14.8123H16.4622V9.16182H17.9544C20.0545 9.16182 21.058 10.3744 21.058 11.9884C21.058 13.6025 20.0518 14.8123 17.9544 14.8123Z" fill="black"/>
</svg>
