<?xml version="1.0" encoding="UTF-8"?><svg id="a" xmlns="http://www.w3.org/2000/svg" viewBox="0 0 94 94"><defs><style>.b{fill:#0073aa;}.c{fill:#fff;}</style></defs><path class="b" d="M0,14.34C0,6.65,6.61,.02,14.27,.02H79.38c8.01,0,14.62,6.64,14.62,14.32V79.68c0,8.04-6.62,14.32-14.27,14.32H14.27C6.61,94.35,0,87.71,0,80.03V14.34Z"/><g><path class="c" d="M39.21,20.85h-11.69c-1.38,0-2.5,1.12-2.5,2.5v11.69c0,1.38,1.12,2.5,2.5,2.5h11.69c1.38,0,2.5-1.12,2.5-2.5v-11.69c0-1.38-1.12-2.5-2.5-2.5Z"/><path class="c" d="M41.71,58.96v11.69c0,.66-.26,1.3-.73,1.77-.47,.47-1.11,.73-1.77,.73h-11.69c-.66,0-1.3-.26-1.77-.73-.47-.47-.73-1.11-.73-1.77v-21.37c0-.4,.1-.79,.28-1.14,.03-.06,.07-.12,.1-.18,.21-.33,.49-.61,.83-.82l11.67-7.04c.44-.27,.95-.39,1.47-.36,.51,.03,1,.23,1.4,.55,.26,.21,.47,.46,.63,.75,.16,.29,.26,.61,.29,.94,.02,.11,.02,.22,.02,.34v5.38s0,.07,0,.11v11.08s0,.04,0,.07Z"/><path class="c" d="M68.98,30.23v16.84c0,.33-.06,.65-.19,.96-.13,.3-.31,.58-.54,.81l-6.88,6.88c-.23,.23-.51,.42-.81,.54-.3,.13-.63,.19-.96,.19h-13.15c-.66,0-1.3-.26-1.77-.73-.47-.47-.73-1.11-.73-1.77v-11.69c0-.66,.26-1.3,.73-1.77,.47-.47,1.11-.73,1.77-.73h13.08s1.11,0,1.11-1.11-1.11-1.11-1.11-1.11h-13.08c-.66,0-1.3-.26-1.77-.73s-.73-1.11-.73-1.77v-11.69c0-.66,.26-1.3,.73-1.77,.47-.47,1.11-.73,1.77-.73h13.15c.33,0,.65,.06,.96,.19,.3,.13,.58,.31,.81,.54l6.88,6.88c.23,.23,.42,.51,.54,.81,.13,.3,.19,.63,.19,.96Z"/></g></svg>