<svg width="32" height="32" viewBox="0 0 32 32" fill="none" xmlns="http://www.w3.org/2000/svg">
<path d="M16 31.6445C24.6402 31.6445 31.6445 24.6402 31.6445 16C31.6445 7.35985 24.6402 0.355591 16 0.355591C7.35985 0.355591 0.355591 7.35985 0.355591 16C0.355591 24.6402 7.35985 31.6445 16 31.6445Z" fill="white"/>
<path d="M16 21.363C18.8972 21.363 21.254 18.8961 21.254 15.8638C21.2576 14.66 20.8758 13.4867 20.1645 12.5156C19.203 11.209 17.6939 10.3651 16 10.3651C13.1025 10.3651 10.7455 12.8324 10.7455 15.865C10.7456 16.342 10.8053 16.8172 10.9233 17.2795C11.5203 19.6285 13.5704 21.363 16 21.363Z" fill="#543EF8"/>
<path d="M27.4312 7.08622C24.7767 3.68681 20.6389 1.50192 15.9906 1.50489C7.89488 1.51111 1.40923 8.08148 1.50583 16.1778C1.52983 18.3784 2.0558 20.5445 3.04366 22.5111C4.03153 24.4777 5.45522 26.1928 7.20628 27.5259C7.27178 27.5763 7.35009 27.6073 7.43232 27.6154C7.51455 27.6235 7.5974 27.6084 7.67147 27.5717C7.74553 27.5351 7.80784 27.4784 7.85131 27.4082C7.89479 27.3379 7.91768 27.2568 7.91739 27.1742V16.0678C7.91975 15.0324 8.12291 14.0073 8.51562 13.0492C8.89901 12.1044 9.44561 11.2345 10.1304 10.4791C10.8049 9.72714 11.6087 9.10223 12.5038 8.63407C13.3997 8.1627 14.3827 7.87966 15.3921 7.80237C16.5424 7.71713 17.6977 7.87877 18.7805 8.27644C19.8633 8.67411 20.8486 9.29863 21.6703 10.1081C22.4921 10.9177 23.1313 11.8935 23.5452 12.9702C23.959 14.0469 24.138 15.1996 24.07 16.3511C23.833 20.3609 20.5103 23.6913 16.5035 23.9327C14.6016 24.0486 12.793 23.5179 11.273 22.4003C11.224 22.3643 11.166 22.3427 11.1054 22.3379C11.0448 22.3332 10.9841 22.3454 10.9301 22.3733C10.8746 22.4013 10.8279 22.4441 10.7953 22.4971C10.7627 22.55 10.7455 22.611 10.7455 22.6732V29.0397C10.7459 29.1811 10.7902 29.3189 10.8723 29.434C10.9544 29.5491 11.0703 29.6358 11.2039 29.6821C14.1596 30.7177 17.3713 30.7684 20.3582 29.8265C23.3451 28.8845 25.9466 27.0007 27.7735 24.4568C29.6004 21.9129 30.5544 18.8458 30.4927 15.7145C30.431 12.5833 29.3569 9.55614 27.4312 7.08622Z" fill="#543EF8"/>
<g style="mix-blend-mode:multiply" opacity="0.15">
<g style="mix-blend-mode:multiply" opacity="0.15">
<path d="M16 10.365C13.1025 10.365 10.7455 12.8322 10.7455 15.8648C10.7456 16.3419 10.8053 16.8171 10.9233 17.2794C11.8015 16.9202 12.676 16.5373 13.5467 16.1306C15.8272 15.0673 18.0377 13.8599 20.1648 12.5158C19.2033 11.2088 17.6942 10.365 16 10.365Z" fill="black"/>
</g>
<g style="mix-blend-mode:multiply" opacity="0.15">
<path d="M15.9906 1.50489C7.89486 1.51111 1.40923 8.08148 1.50583 16.1778C1.52086 17.508 1.71907 18.8299 2.09486 20.1061C4.06309 19.6441 6.00605 19.0804 7.9159 18.4172V16.0678C7.91825 15.0324 8.12141 14.0073 8.51412 13.0492C8.89751 12.1044 9.44411 11.2345 10.1289 10.4791C10.8038 9.727 11.6082 9.10208 12.5038 8.63407C13.3997 8.16271 14.3826 7.87966 15.392 7.80237C16.7415 7.70193 18.0946 7.94165 19.3274 8.49957C20.5603 9.05749 21.6334 9.91578 22.4486 10.9958C24.1795 9.7839 25.8428 8.47825 27.4312 7.08474C24.7766 3.68681 20.6389 1.50192 15.9906 1.50489Z" fill="black"/>
</g>
</g>
</svg>
