<?xml version="1.0" encoding="UTF-8"?>
<!-- Generator: Adobe Illustrator 25.3.1, SVG Export Plug-In . SVG Version: 6.00 Build 0)  -->
<svg version="1.1" id="Layer_1" xmlns="http://www.w3.org/2000/svg" xmlns:xlink="http://www.w3.org/1999/xlink" x="0px" y="0px" viewBox="0 0 432 432" style="enable-background:new 0 0 432 432;" xml:space="preserve">
<style type="text/css">
	.st0{fill:#FFFFFF;}
	.st1{fill:#CE0E2D;}
</style>
<rect class="st0" width="432" height="432"/>
<g id="Layer_1_1_">
</g>
<g id="Layer_3">
	<g>
		<g>
			<path class="st1" d="M325.6,246.2c0-0.2,0-0.4,0-0.5c0-0.4,0-0.7-0.1-1.1v-0.1c-0.3-2-1.2-3.9-2.7-5.4L295,209.6l0,0l27.9-29.4     c1.4-1.5,2.4-3.4,2.7-5.4v-0.1c0.1-0.4,0.1-0.7,0.1-1.1c0-0.2,0-0.4,0-0.5c0-0.2,0-0.5,0-0.7s-0.1-0.4-0.1-0.6     c0-0.2-0.1-0.4-0.1-0.6l0,0l0,0c0-0.2-0.1-0.4-0.1-0.5s0-0.1-0.1-0.2c-0.1-0.2-0.2-0.5-0.3-0.7l0,0c-0.6-1.4-1.5-2.7-2.7-3.8     l-14.2-13.4c-0.5-0.5-1-0.9-1.6-1.2c-1.7-1-3.6-1.6-5.6-1.6h-0.1c-0.7,0-1.3,0.1-2,0.3c-0.6,0.1-1.3,0.4-1.9,0.6     c-1.2,0.5-2.3,1.3-3.2,2.3l-0.4,0.4l-25.9,27.4l0,0L241.1,153c-1.9-2-4.4-3.1-7.1-3.2c-0.1,0-0.2,0-0.3,0s-0.2,0-0.3,0     c-0.2,0-0.4,0-0.5,0s-0.2,0-0.3,0c-0.2,0-0.5,0.1-0.7,0.1h-0.1c-1.2,0.2-2.4,0.7-3.4,1.4c0,0-0.1,0-0.1,0.1     c-0.2,0.2-0.5,0.3-0.7,0.5c-0.3,0.2-0.5,0.4-0.7,0.6l-14.2,13.4l0,0l-0.2,0.1c-0.1,0.1-0.1,0.1-0.2,0.2c-0.1,0.1-0.2,0.3-0.4,0.4     c-0.3,0.3-0.5,0.6-0.8,1c0,0,0,0.1-0.1,0.1c-0.1,0.2-0.2,0.4-0.3,0.5c-0.2,0.3-0.3,0.5-0.4,0.8v0.1c-0.3,0.7-0.6,1.4-0.7,2.1v0.1     c0,0.1,0,0.2,0,0.2c-0.1,0.3-0.1,0.6-0.1,1c0,0.1,0,0.3,0,0.4c0,0.3,0,0.6,0,0.8s0,0.3,0,0.5s0,0.5,0.1,0.7v0.1     c0.1,0.3,0.1,0.7,0.2,1v0.1c0.1,0.3,0.2,0.6,0.3,0.9c0.1,0.2,0.2,0.3,0.2,0.5c0.1,0.1,0.1,0.3,0.2,0.4c0.3,0.6,0.7,1.2,1.2,1.8     c0.1,0.1,0.2,0.2,0.2,0.3c0.1,0.1,0.1,0.2,0.2,0.3l13.5,14.2c0.1,0.1,0.2,0.2,0.2,0.2l0,0c6,6.3,14.2,9.8,22.9,9.8l0,0     c6.8,0,13.1-2.1,18.5-5.9l0,0l10.5,11.1l0,0l-10.5,11.1l0,0c-5.3-3.9-11.7-5.9-18.5-5.9l0,0c-8.8,0-16.9,3.5-22.9,9.8l0,0     c-0.1,0.1-0.2,0.2-0.2,0.2L212,239c-0.1,0.1-0.1,0.2-0.2,0.3c-0.1,0.1-0.2,0.2-0.2,0.3c-0.5,0.6-0.9,1.1-1.2,1.8     c-0.1,0.1-0.1,0.3-0.2,0.4c-0.1,0.2-0.2,0.3-0.2,0.5c-0.1,0.3-0.2,0.6-0.3,0.9v0.1c-0.1,0.3-0.2,0.7-0.2,1v0.1     c0,0.2,0,0.5-0.1,0.7c0,0.2,0,0.4,0,0.5c0,0.3,0,0.5,0,0.8c0,0.1,0,0.3,0,0.4c0,0.3,0.1,0.6,0.1,1c0,0.1,0,0.2,0,0.2v0.1     c0.2,0.7,0.4,1.4,0.7,2.1v0.1c0.1,0.3,0.3,0.5,0.4,0.8c0.1,0.2,0.2,0.4,0.3,0.5c0,0,0,0.1,0.1,0.1c0.2,0.3,0.5,0.7,0.8,1     c0.1,0.1,0.2,0.3,0.4,0.4c0.1,0.1,0.1,0.1,0.2,0.2l0.2,0.1l0,0l14.2,13.4c0.2,0.2,0.5,0.4,0.7,0.6s0.5,0.3,0.7,0.5     c0,0,0.1,0,0.1,0.1c1.1,0.7,2.2,1.1,3.4,1.4h0.1c0.2,0,0.5,0.1,0.7,0.1c0.1,0,0.2,0,0.3,0c0.2,0,0.4,0,0.6,0c0.1,0,0.2,0,0.3,0     s0.2,0,0.3,0c2.7-0.1,5.2-1.2,7.1-3.2l26.3-27.8l0,0l25.9,27.4l0.4,0.4c0.9,1,2,1.8,3.2,2.3c0.9,0.4,1.9,0.7,2.9,0.8     c0.3,0,0.7,0.1,1,0.1h0.1c2,0,3.9-0.5,5.6-1.6c0.6-0.3,1.1-0.8,1.6-1.2l14.2-13.4c1.1-1.1,2.1-2.4,2.7-3.8l0,0     c0.1-0.2,0.2-0.5,0.3-0.7c0-0.1,0-0.1,0.1-0.2c0-0.2,0.1-0.4,0.1-0.5l0,0l0,0c0-0.2,0.1-0.4,0.1-0.6c0-0.2,0.1-0.4,0.1-0.6     C325.6,246.7,325.6,246.5,325.6,246.2z M302.3,164.2l8.6,8.1c0.3,0.3,0.4,0.6,0.5,1c0,0.4-0.1,0.7-0.4,1l-24.6,26l0,0l-10.1-10.7     l0,0l24.1-25.4c0.3-0.3,0.6-0.4,1-0.5C301.6,163.8,302,163.9,302.3,164.2z M300.2,254.9l-24.1-25.4l0,0l10.1-10.7l0,0l24.6,26     c0.3,0.3,0.4,0.7,0.4,1c0,0.4-0.2,0.7-0.5,1l-8.6,8.1c-0.3,0.3-0.7,0.4-1,0.4C300.9,255.3,300.5,255.2,300.2,254.9z M234.8,185.7     L224,174.3c-0.6-0.6-0.5-1.5,0.1-2l8.6-8.1c0.6-0.5,1.5-0.5,2.1,0.1l23.5,24.9l0,0c-2.9,1.6-6.1,2.5-9.6,2.5l0,0     C243.4,191.6,238.4,189.5,234.8,185.7z M248.6,227.5L248.6,227.5c3.4,0,6.7,0.9,9.6,2.5l0,0l-23.5,24.9c-0.6,0.6-1.5,0.6-2.1,0.1     l-8.6-8.1c-0.6-0.5-0.6-1.5-0.1-2l10.8-11.4C238.4,229.7,243.4,227.5,248.6,227.5z"/>
			<g>
				<path class="st1" d="M154.3,149.4c-28.5,0-43.6,15-43.6,43.5v108.3c0,2.2,1.2,3.4,3.4,3.4h10.6c2.2,0,3.4-1.2,3.4-3.4v-43.4h2.2      l0.3,0.4c5.7,7.5,14.7,11.4,26.8,11.4c26.3,0,40.2-15,40.2-43.5v-33.3C197.6,164.5,182.6,149.4,154.3,149.4z M154.3,254.9      c-17.4,0-26.2-10.4-26.2-30.9v-29.3c0-20.9,8.3-30.6,26.2-30.6c17.7,0,26,9.7,26,30.6V224C180.2,245.1,172,254.9,154.3,254.9z"/>
			</g>
		</g>
	</g>
</g>
</svg>