<svg width="32" height="32" viewBox="0 0 32 32" fill="none" xmlns="http://www.w3.org/2000/svg">
<path d="M15.8301 20.0732C14.5323 24.6954 13.4621 28.5781 13.375 29.1043C13.3414 29.3718 13.2108 29.6177 13.008 29.7953C12.8051 29.973 12.5441 30.0699 12.2745 30.0678C12.2342 30.0678 12.1933 30.0678 12.1519 30.0678C11.8634 30.0339 11.6001 29.8875 11.419 29.6605C11.2379 29.4335 11.1537 29.1441 11.1847 28.8554C11.2327 28.4216 12.1021 25.2252 13.1634 21.4243C11.663 22.1229 10.4292 22.5745 9.6683 22.6687C9.54577 22.6858 9.42223 22.6947 9.29852 22.6954C8.55363 22.6954 8.17852 22.3398 7.99185 22.0269C7.87322 21.8226 7.82351 21.5855 7.85008 21.3507C7.87665 21.1159 7.97809 20.8959 8.1394 20.7232C8.3007 20.5505 8.5133 20.4344 8.74575 20.3919C8.97819 20.3494 9.21813 20.3829 9.43007 20.4874C10.0843 20.3949 11.759 19.7069 13.9599 18.5656C15.0639 14.6421 16.2052 10.6403 16.7741 8.64917C16.8598 8.37513 17.0492 8.14544 17.3019 8.00913C17.5546 7.87281 17.8506 7.84066 18.1267 7.91954C18.4027 7.99842 18.6371 8.18208 18.7796 8.43133C18.9222 8.68057 18.9616 8.97566 18.8896 9.25361C18.2141 11.6181 17.4283 14.3772 16.6656 17.0758C17.615 16.5265 18.6212 15.9185 19.631 15.2625C25.1296 11.7069 28.8754 8.30783 29.631 6.14072C29.9154 5.33183 29.7074 4.9585 29.3056 4.64739C28.3421 3.89894 25.3803 3.8065 19.9545 5.78694C11.823 8.75405 3.23274 14.5158 2.41319 17.5203C2.49691 17.5367 2.5821 17.5444 2.66741 17.5434C2.81464 17.5316 2.96273 17.5496 3.10285 17.5963C3.24297 17.643 3.37226 17.7174 3.48302 17.8151C3.59377 17.9129 3.68372 18.0319 3.74751 18.1651C3.8113 18.2983 3.84762 18.443 3.8543 18.5905C3.86099 18.7381 3.8379 18.8855 3.78642 19.0239C3.73494 19.1623 3.65612 19.289 3.55466 19.3963C3.45319 19.5036 3.33116 19.5895 3.19583 19.6486C3.06051 19.7078 2.91465 19.7391 2.76696 19.7407C2.53408 19.7514 1.3323 19.7692 0.63363 18.9407C0.433402 18.6959 0.293522 18.4075 0.225275 18.0987C0.157028 17.7899 0.162326 17.4693 0.240742 17.1629C0.788297 14.5976 4.28874 11.7887 7.12785 9.8705C10.9022 7.35839 14.9562 5.29414 19.2079 3.71939C23.087 2.29717 28.223 1.01361 30.6639 2.90694C31.8016 3.79583 32.2141 5.06872 31.8265 6.50872C31.327 8.37005 29.1243 11.6483 21.471 16.6918C19.5634 17.9487 17.6079 19.1114 15.8301 20.0732Z" fill="black"/>
</svg>
