<svg width="32" height="32" viewBox="0 0 32 32" fill="none" xmlns="http://www.w3.org/2000/svg">
<path d="M16 1.09065e-10C11.7566 -1.50798e-05 7.68699 1.68566 4.68642 4.68619C1.68584 7.68673 9.08431e-05 11.7563 1.03246e-10 15.9998C-7.54785e-06 18.101 0.413839 20.1816 1.21791 22.1228C2.02198 24.0641 3.20053 25.8279 4.68627 27.3137C6.17201 28.7994 7.93584 29.978 9.87705 30.7821C11.8183 31.5862 13.8988 32 16 32C18.1011 32 20.1817 31.5862 22.1229 30.7821C24.0642 29.978 25.828 28.7994 27.3137 27.3137C28.7995 25.8279 29.978 24.0641 30.7821 22.1228C31.5862 20.1816 32 18.101 32 15.9998C31.9999 11.7563 30.3142 7.68673 27.3136 4.68619C24.313 1.68565 20.2434 -1.56565e-05 16 1.09065e-10V1.09065e-10ZM15.9856 2.2108C19.6509 2.21083 23.1661 3.6669 25.7578 6.25871C28.3496 8.85051 29.8057 12.3657 29.8057 16.0311C29.8057 17.846 29.4483 19.6432 28.7538 21.32C28.0593 22.9968 27.0413 24.5204 25.758 25.8038C24.4746 27.0871 22.9511 28.1052 21.2744 28.7997C19.5976 29.4943 17.8005 29.8518 15.9855 29.8518C14.1706 29.8518 12.3735 29.4943 10.6967 28.7997C9.01998 28.1052 7.49645 27.0871 6.21313 25.8038C4.92981 24.5204 3.91183 22.9968 3.21733 21.32C2.52282 19.6432 2.16538 17.846 2.16542 16.0311C2.16544 12.3657 3.6215 8.85051 6.21327 6.2587C8.80504 3.6669 12.3202 2.21083 15.9855 2.2108H15.9856Z" fill="#012690"/>
<path d="M15.9855 4.49947C12.9272 4.49948 9.99413 5.71443 7.83156 7.87702C5.66899 10.0396 4.45406 12.9727 4.45404 16.0311C4.454 17.5455 4.75223 19.0451 5.33173 20.4442C5.91122 21.8433 6.76061 23.1146 7.83141 24.1854C8.90222 25.2563 10.1735 26.1058 11.5725 26.6853C12.9716 27.2648 14.4712 27.5631 15.9855 27.5631C17.4999 27.5631 18.9994 27.2648 20.3985 26.6853C21.7976 26.1058 23.0689 25.2563 24.1397 24.1854C25.2105 23.1146 26.0599 21.8433 26.6393 20.4442C27.2188 19.0451 27.5171 17.5455 27.517 16.0311C27.517 12.9727 26.3021 10.0396 24.1395 7.87702C21.9769 5.71443 19.0439 4.49948 15.9855 4.49947V4.49947ZM15.892 6.78412C17.1011 6.7841 18.2983 7.02222 19.4153 7.4849C20.5323 7.94758 21.5473 8.62575 22.4022 9.48069C23.2571 10.3356 23.9353 11.3506 24.398 12.4676C24.8606 13.5847 25.0988 14.7819 25.0987 15.991C25.0987 18.4327 24.1287 20.7744 22.4021 22.501C20.6755 24.2275 18.3337 25.1975 15.892 25.1974C13.4504 25.1974 11.1087 24.2274 9.38222 22.5008C7.65571 20.7743 6.68574 18.4327 6.68568 15.991C6.68564 13.5492 7.65556 11.2075 9.38208 9.48083C11.1086 7.75421 13.4503 6.78418 15.892 6.78412V6.78412Z" fill="#012690"/>
<path d="M15.892 9.14543C14.9931 9.14545 14.103 9.32254 13.2725 9.66657C12.442 10.0106 11.6874 10.5148 11.0518 11.1505C10.4161 11.7862 9.91196 12.5408 9.56798 13.3713C9.224 14.2019 9.04697 15.092 9.047 15.991C9.04704 17.8064 9.76823 19.5474 11.0519 20.8311C12.3356 22.1149 14.0766 22.836 15.892 22.8361C16.791 22.8361 17.6811 22.6591 18.5116 22.3151C19.3421 21.9711 20.0968 21.4669 20.7324 20.8313C21.3681 20.1957 21.8723 19.4411 22.2164 18.6105C22.5604 17.78 22.7375 16.8899 22.7375 15.991C22.7375 15.092 22.5605 14.2018 22.2165 13.3713C21.8725 12.5407 21.3682 11.786 20.7326 11.1504C20.0969 10.5147 19.3423 10.0105 18.5117 9.66645C17.6812 9.32245 16.791 9.1454 15.892 9.14543V9.14543ZM15.8972 11.3867C16.5004 11.3867 17.0977 11.5055 17.6549 11.7363C18.2121 11.9672 18.7185 12.3055 19.145 12.732C19.5715 13.1585 19.9098 13.6648 20.1406 14.2221C20.3714 14.7793 20.4902 15.3766 20.4902 15.9797C20.4902 16.5829 20.3714 17.1801 20.1406 17.7374C19.9098 18.2946 19.5715 18.801 19.145 19.2275C18.7185 19.654 18.2121 19.9923 17.6549 20.2231C17.0977 20.4539 16.5004 20.5727 15.8972 20.5727C15.2941 20.5727 14.6968 20.4539 14.1396 20.2231C13.5824 19.9923 13.076 19.654 12.6495 19.2275C12.223 18.801 11.8847 18.2946 11.6539 17.7374C11.4231 17.1801 11.3043 16.5829 11.3043 15.9797C11.3043 15.3766 11.4231 14.7793 11.6539 14.2221C11.8847 13.6648 12.223 13.1585 12.6495 12.732C13.076 12.3055 13.5824 11.9672 14.1396 11.7363C14.6968 11.5055 15.2941 11.3867 15.8972 11.3867V11.3867Z" fill="#012690"/>
<path d="M11.3024 16.1289H9.04831V24.9079H11.3024V16.1289Z" fill="#012690"/>
<path d="M15.9017 17.8299C16.9049 17.8299 17.7181 17.0166 17.7181 16.0134C17.7181 15.0102 16.9049 14.197 15.9017 14.197C14.8985 14.197 14.0853 15.0102 14.0853 16.0134C14.0853 17.0166 14.8985 17.8299 15.9017 17.8299Z" fill="#012690"/>
</svg>
