<svg width="32" height="32" viewBox="0 0 32 32" fill="none" xmlns="http://www.w3.org/2000/svg">
<path d="M16.0042 0C7.16066 0 0 7.16719 0 16C0 24.0841 5.99105 30.7634 13.7828 31.8486V28.4669C13.7828 28.4669 13.7828 12.3743 13.7828 12.0883C13.7828 11.7603 14.0184 11.6425 14.2792 11.6425C14.5401 11.6425 15.8864 11.6425 15.8864 11.6425C18.1751 11.6425 20.2535 13.3754 20.2535 15.9579C20.2535 18.5405 18.0321 20.2482 16.0968 20.2482C15.9958 20.2482 15.9032 20.2818 15.9032 20.4921C15.9032 20.7024 15.9032 22.9064 15.9032 23.1924C15.9032 23.4784 16.021 23.47 16.0968 23.47C19.5046 23.47 23.5603 20.7361 23.5603 15.9579C23.5603 11.6425 19.8916 8.48791 15.8611 8.48791C15.8611 8.48791 11.6203 8.48791 11.1407 8.48791C10.661 8.48791 10.3581 8.86646 10.3581 9.17771C10.3581 9.48896 10.3581 27.3396 10.3581 27.3396C9.14646 26.734 8.02734 25.9348 7.04285 24.9506C4.65316 22.5615 3.3321 19.3817 3.3321 16C3.3321 12.6183 4.65316 9.43849 7.04285 7.04942C9.43255 4.66036 12.6132 3.33964 15.9958 3.33964C19.3784 3.33964 22.559 4.66036 24.9487 7.04942C27.3384 9.43849 28.6595 12.6183 28.6595 16C28.6595 19.3817 27.3384 22.5615 24.9487 24.9506C22.7525 27.1462 19.8832 28.4416 16.812 28.6351C16.5427 28.6519 16.4249 28.6604 16.1472 28.6604C16.0547 28.6604 15.8948 28.7361 15.8948 28.9884C15.8948 29.2492 15.8948 31.4111 15.8948 31.7056C15.8948 32 16.0463 32 16.1472 32C16.4754 32 16.6521 31.9916 16.9719 31.9664C25.3526 31.4616 32 24.5047 32 15.9916C32.0168 7.15878 24.8477 0 16.0042 0Z" fill="url(#paint0_linear_3299_14)"/>
<defs>
<linearGradient id="paint0_linear_3299_14" x1="2.14172" y1="7.99773" x2="29.8676" y2="24.0095" gradientUnits="userSpaceOnUse">
<stop stop-color="#FF6A39"/>
<stop offset="0.3725" stop-color="#FE6A3A"/>
<stop offset="0.5383" stop-color="#A37281"/>
<stop offset="0.8416" stop-color="#0080FF"/>
</linearGradient>
</defs>
</svg>
