<svg width="32" height="32" viewBox="0 0 32 32" fill="none" xmlns="http://www.w3.org/2000/svg">
<g clip-path="url(#clip0_2207_29)">
<g filter="url(#filter0_d_2207_29)">
<path d="M30.8297 18.2271V18.4142C30.8382 19.8383 30.5624 21.2498 30.0184 22.566C29.4745 23.8821 28.6734 25.0765 27.662 26.0791C26.6506 27.0818 25.4493 27.8725 24.1285 28.405C22.8077 28.9374 21.3938 29.201 19.9699 29.1801C18.5214 29.2133 17.0814 28.9517 15.7372 28.4112C14.393 27.8707 13.1727 27.0626 12.1504 26.036C11.1281 25.0094 10.3251 23.7857 9.79027 22.4393C9.25543 21.0928 8.99985 19.6517 9.03907 18.2034C9.03647 16.7688 9.31984 15.348 9.87263 14.0242C10.4254 12.7003 11.2366 11.5 12.2586 10.4932C13.2807 9.48644 14.4931 8.69349 15.8252 8.16071C17.1572 7.62792 18.582 7.36599 20.0165 7.39021C22.041 7.38822 24.0248 7.95846 25.7392 9.03519C27.4536 10.1119 28.8288 11.6513 29.7062 13.4758H22.8485C22.0702 12.8074 21.0647 12.4639 20.0401 12.5165C19.2781 12.5063 18.5216 12.6478 17.8147 12.9327C17.1078 13.2177 16.4647 13.6404 15.9228 14.1762C15.3808 14.7121 14.9509 15.3504 14.6579 16.054C14.365 16.7576 14.215 17.5124 14.2165 18.2746C14.2181 19.0367 14.3713 19.7909 14.6671 20.4933C14.9629 21.1957 15.3955 21.8322 15.9396 22.3658C16.4838 22.8995 17.1286 23.3195 17.8367 23.6015C18.5447 23.8836 19.3018 24.022 20.0638 24.0086C20.9801 24.0682 21.8954 23.8775 22.7117 23.4569C23.5281 23.0364 24.2147 22.4018 24.6982 21.6212H19.9928V16.9394H30.8791C30.9027 16.9394 30.8554 17.1481 30.8791 17.361C30.8999 17.7116 30.8297 17.8758 30.8297 18.2271Z" fill="#2160B5"/>
</g>
<g filter="url(#filter1_d_2207_29)">
<path d="M30.0086 10.9643C28.9601 9.56307 27.628 8.39857 26.0991 7.54678C24.5702 6.695 22.879 6.17505 21.1357 6.02086C19.3924 5.86668 17.6361 6.08171 15.9815 6.65193C14.3268 7.22216 12.811 8.13477 11.5328 9.33025C7.05211 13.7198 6.03715 21.5174 11.7867 27.541L10.4935 27.4937H3.35681C1.62463 27.4937 0.700805 26.5136 0.700805 24.7626V12.2019C0.646942 11.1382 0.990729 10.0925 1.66527 9.26832C2.33981 8.44411 3.29686 7.90032 4.3502 7.74277C4.78915 7.64956 5.18498 7.64956 5.15854 7.0193C5.13559 6.57547 5.50637 6.62208 5.8055 6.62208H8.76202C9.2935 6.62208 9.87089 6.4586 9.89385 7.39216C9.91681 7.83599 11.2566 7.83599 11.649 7.3226C12.2175 6.58871 12.7344 5.8163 13.1961 5.01095C13.4461 4.52959 13.8295 4.13048 14.3004 3.8614C14.7713 3.59231 15.3098 3.46466 15.8514 3.49373C18.6458 3.51669 21.6483 3.51669 24.5123 3.49373C25.0403 3.43526 25.5733 3.54623 26.0341 3.81059C26.4949 4.07495 26.8597 4.479 27.0758 4.96434C27.8612 6.87877 30.1707 11.1285 30.0086 10.9643Z" fill="#174A8F"/>
</g>
</g>
<defs>
<filter id="filter0_d_2207_29" x="3.03516" y="4.38867" width="33.8516" height="33.7949" filterUnits="userSpaceOnUse" color-interpolation-filters="sRGB">
<feFlood flood-opacity="0" result="BackgroundImageFix"/>
<feColorMatrix in="SourceAlpha" type="matrix" values="0 0 0 0 0 0 0 0 0 0 0 0 0 0 0 0 0 0 127 0" result="hardAlpha"/>
<feOffset dy="3"/>
<feGaussianBlur stdDeviation="3"/>
<feColorMatrix type="matrix" values="0 0 0 0 0 0 0 0 0 0 0 0 0 0 0 0 0 0 0.161 0"/>
<feBlend mode="normal" in2="BackgroundImageFix" result="effect1_dropShadow_2207_29"/>
<feBlend mode="normal" in="SourceGraphic" in2="effect1_dropShadow_2207_29" result="shape"/>
</filter>
<filter id="filter1_d_2207_29" x="-5.30469" y="0.478516" width="41.3203" height="36.0625" filterUnits="userSpaceOnUse" color-interpolation-filters="sRGB">
<feFlood flood-opacity="0" result="BackgroundImageFix"/>
<feColorMatrix in="SourceAlpha" type="matrix" values="0 0 0 0 0 0 0 0 0 0 0 0 0 0 0 0 0 0 127 0" result="hardAlpha"/>
<feOffset dy="3"/>
<feGaussianBlur stdDeviation="3"/>
<feColorMatrix type="matrix" values="0 0 0 0 0 0 0 0 0 0 0 0 0 0 0 0 0 0 0.161 0"/>
<feBlend mode="normal" in2="BackgroundImageFix" result="effect1_dropShadow_2207_29"/>
<feBlend mode="normal" in="SourceGraphic" in2="effect1_dropShadow_2207_29" result="shape"/>
</filter>
<clipPath id="clip0_2207_29">
<rect width="32" height="32" fill="white"/>
</clipPath>
</defs>
</svg>
