<svg xmlns="http://www.w3.org/2000/svg" width="400" height="400" viewBox="0 0 400 400"><path fill="#465283" d="M32.805 143.09h58.993c17.316.145 29.863 5.11 37.64 14.894 7.778 9.784 10.346 23.146 7.705 40.085-1.027 7.74-3.301 15.333-6.824 22.78-3.375 7.448-8.071 14.165-14.087 20.153-7.338 7.593-15.189 12.412-23.554 14.456-8.364 2.045-17.022 3.067-25.974 3.067H40.29l-8.365 41.618H1.328l31.477-157.054m25.755 24.97l-13.207 65.714c.88.146 1.76.219 2.641.219h3.082c14.087.146 25.827-1.241 35.22-4.162 9.39-3.066 15.7-13.726 18.93-31.98 2.64-15.333-.001-24.168-7.926-26.504-7.777-2.337-17.536-3.431-29.275-3.286a61.27 61.27 0 0 1-5.063.219H58.34l.22-.22m113.445-66.795h30.377l-8.585 41.838h27.295c14.969.291 26.121 3.358 33.459 9.2 7.484 5.84 9.686 16.939 6.603 33.294l-14.748 72.941h-30.817l14.088-69.655c1.467-7.302 1.027-12.486-1.32-15.553-2.349-3.066-7.412-4.599-15.189-4.599l-24.434-.22-18.049 90.027h-30.377l31.697-157.272m121.773 41.824h58.992c17.317.146 29.864 5.112 37.641 14.895 7.777 9.784 10.346 23.146 7.704 40.085-1.027 7.74-3.301 15.333-6.823 22.78-3.376 7.448-8.072 14.165-14.088 20.153-7.338 7.593-15.188 12.412-23.554 14.456-8.363 2.045-17.022 3.067-25.973 3.067h-26.415l-8.364 41.617H262.3l31.478-157.053m25.754 24.97l-13.208 65.714a16.17 16.17 0 0 0 2.643.219h3.08c14.09.146 25.829-1.241 35.22-4.162 9.392-3.066 15.703-13.726 18.931-31.98 2.641-15.333 0-24.168-7.924-26.504-7.778-2.337-17.537-3.431-29.277-3.286a61.31 61.31 0 0 1-5.061.219h-4.624l.22-.22"/></svg>