<svg width="32" height="32" viewBox="0 0 32 32" fill="none" xmlns="http://www.w3.org/2000/svg">
<g clip-path="url(#clip0)">
<path d="M4.27203 0.0476768C3.18723 0.220476 2.28483 0.687676 1.48483 1.48447C0.675226 2.29407 0.214426 3.19647 0.0448262 4.30366C-0.0191738 4.73246 -0.0191738 27.2668 0.0448262 27.6956C0.214426 28.8028 0.675226 29.7052 1.48483 30.5148C2.29443 31.3244 3.19683 31.7852 4.30403 31.9548C4.73283 32.0188 27.2672 32.0188 27.696 31.9548C28.8032 31.7852 29.7056 31.3244 30.5152 30.5148C31.3248 29.7052 31.7856 28.8028 31.9552 27.6956C31.9904 27.4556 32 25.5516 32 15.9996C32 6.44766 31.9904 4.54366 31.9552 4.30366C31.7856 3.19647 31.3248 2.29407 30.5152 1.48447C29.7056 0.674876 28.8032 0.214076 27.696 0.0444768C27.2864 -0.0195231 4.66883 -0.0163231 4.27203 0.0476768Z" fill="#0095DE"/>
<path d="M7 3.54958C8.81655 3.25665 10.6484 3.08411 12.485 3.033C14.5821 2.93513 16.6831 3.05508 18.7584 3.39113C19.8051 3.55619 20.8276 3.86346 21.801 4.30545C22.9725 4.79474 23.9867 5.63372 24.7219 6.72177C25.4571 7.80982 25.8822 9.10074 25.946 10.4397C26.0781 11.9507 25.9673 13.4746 25.6182 14.9458C25.3783 16.0512 24.8717 17.0707 24.1486 17.9036C23.4255 18.7364 22.5109 19.3537 21.4952 19.6945C20.2469 20.1459 18.9528 20.4379 17.64 20.5643C16.1225 20.726 14.5997 20.8141 13.0799 20.9338C12.9433 20.9459 12.8083 20.9637 12.6201 20.9839V29.8765C10.7496 30.0183 8.87273 30.038 7 29.9355V3.54958ZM12.6284 15.7518C13.6239 15.7518 14.5906 15.7712 15.5572 15.747C16.3908 15.7588 17.2217 15.642 18.0239 15.4002C18.5527 15.2682 19.0301 14.9646 19.39 14.5311C19.7499 14.0977 19.9746 13.5559 20.0331 12.9806C20.1223 12.2665 20.1292 11.5436 20.0536 10.8278C20.0258 10.1987 19.7797 9.60306 19.363 9.15642C18.9463 8.70977 18.3888 8.44397 17.7985 8.41059C16.1482 8.16883 14.4803 8.09251 12.8166 8.18262C12.7513 8.19578 12.6882 8.21892 12.6292 8.25133L12.6284 15.7518Z" fill="#FEF8F8"/>
</g>
<defs>
<clipPath id="clip0">
<rect width="32" height="32" fill="white"/>
</clipPath>
</defs>
</svg>
