<svg width="32" height="32" viewBox="0 0 32 32" fill="none" xmlns="http://www.w3.org/2000/svg">
<path fill-rule="evenodd" clip-rule="evenodd" d="M4.44531 12.5331C4.44531 12.3553 4.5342 12.1776 4.5342 11.9998C4.5342 11.822 4.71198 11.7331 4.80087 11.6442L9.95642 6.48867L15.112 1.33312C15.3786 1.06645 15.7342 0.888672 16.0009 0.888672C16.2675 0.888672 16.6231 0.977561 16.8898 1.33312L20.8898 5.33312L24.8898 9.33312C25.6009 10.0442 26.2231 10.9331 26.5786 11.822C27.0231 12.7109 27.2009 13.6887 27.2009 14.6664C27.2009 15.4664 27.112 16.2665 26.8453 16.9776C26.5786 17.7776 26.2231 18.4887 25.7786 19.1109C26.2231 19.7331 26.5786 20.4442 26.8453 21.2442C27.112 22.0442 27.2009 22.8442 27.2009 23.5553C27.2009 25.5998 26.4009 27.4664 24.9786 28.7998C23.6453 30.1331 21.7786 31.022 19.7342 31.022C18.7564 31.022 17.8675 30.8442 16.9786 30.4887C16.0898 30.1331 15.2898 29.6887 14.5786 29.0664L14.4898 28.9776L14.4009 28.8887H14.312C14.312 28.8887 14.2231 28.7998 14.2231 28.7109L12.8898 27.3776L11.5564 26.0442L9.06753 28.5331L6.57865 31.022C6.48976 31.1109 6.40087 31.1998 6.22309 31.2887C6.04531 31.3776 5.86753 31.3776 5.68976 31.3776C5.60087 31.3776 5.51198 31.3776 5.42309 31.3776C5.3342 31.3776 5.24531 31.2887 5.15642 31.1998C4.88976 31.1109 4.71198 30.9331 4.62309 30.7553C4.5342 30.5776 4.44531 30.3109 4.44531 30.1331V25.6887V21.2442C4.44531 21.0664 4.5342 20.8887 4.5342 20.7109C4.62309 20.5331 4.71198 20.4442 4.80087 20.3553L9.95642 15.1998L15.112 10.0442C15.2009 9.95534 15.2898 9.86645 15.4675 9.77756C15.6453 9.68867 15.8231 9.68867 16.0009 9.68867C16.1786 9.68867 16.3564 9.77756 16.5342 9.77756C16.712 9.77756 16.8009 9.95534 16.8898 10.0442L18.7564 11.9109L20.6231 13.7776C20.8898 14.0442 21.0675 14.3998 21.0675 14.6664C21.0675 14.9331 20.8898 15.2887 20.6231 15.5553C20.3564 15.822 20.0898 15.9998 19.7342 15.9998C19.3786 15.9998 19.112 15.822 18.8453 15.5553L17.4231 14.1331L16.0009 12.7109L11.4675 17.2442L6.9342 21.7776V24.5331V27.2887L8.80087 25.422L10.6675 23.5553C10.9342 23.2887 11.2898 23.1109 11.5564 23.1109C11.912 23.1109 12.1786 23.2887 12.4453 23.5553L14.4009 25.5109L16.3564 27.4664C16.8009 27.9109 17.3342 28.2665 17.9564 28.5331C18.4898 28.7998 19.2009 28.8887 19.7342 28.8887C21.1564 28.8887 22.4898 28.3553 23.3786 27.3776C24.3564 26.4887 24.8898 25.1553 24.8898 23.7331C24.8898 23.1998 24.8009 22.6664 24.6231 22.222C24.4453 21.7776 24.2675 21.422 24.0009 21.0665C23.3786 21.5109 22.6675 21.8664 22.0453 22.1331C21.3342 22.3998 20.6231 22.4887 19.8231 22.4887C18.8453 22.4887 17.9564 22.3109 17.0675 21.9553C16.1786 21.5998 15.2898 21.1553 14.5786 20.5331C14.312 20.2665 14.2231 19.9998 14.2231 19.6442C14.2231 19.2887 14.312 19.022 14.5786 18.7553C14.8453 18.4887 15.2009 18.3109 15.4675 18.3109C15.7342 18.3109 16.0898 18.3998 16.3564 18.7553C16.8009 19.1998 17.3342 19.5553 17.9564 19.822C18.5786 20.0887 19.112 20.1776 19.8231 20.1776C21.2453 20.1776 22.4898 19.6442 23.4675 18.6664C24.3564 17.7776 24.9786 16.4442 24.9786 15.022C24.9786 14.3109 24.8898 13.5998 24.5342 13.0665C24.2675 12.4442 23.8231 11.822 23.3786 11.3776L23.2898 11.2887L23.2009 11.1998L19.6453 7.64423L16.0898 4.08867L11.4675 8.53312L6.9342 13.0665V14.3998V15.7331L5.68976 16.9776L4.44531 18.222V15.3776V12.5331Z" fill="black"/>
</svg>
