<svg width="32" height="32" viewBox="0 0 32 32" fill="none" xmlns="http://www.w3.org/2000/svg">
<path fill-rule="evenodd" clip-rule="evenodd" d="M18.2044 3.33911V5.65093C18.2044 6.22785 18.057 6.73125 17.7175 7.09228C17.3737 7.45769 16.8898 7.61737 16.3446 7.61737C15.8016 7.61737 15.315 7.4579 14.9661 7.09982C14.6191 6.74359 14.4609 6.24491 14.4609 5.67083V4.55678L18.2044 3.33911ZM17.0981 4.98384L15.5671 5.49195V5.62714C15.5671 5.96222 15.6552 6.15063 15.7591 6.25577C15.862 6.35967 16.0389 6.4415 16.3446 6.4415C16.65 6.4415 16.8181 6.35994 16.9139 6.2601C17.013 6.15678 17.0981 5.96801 17.0981 5.62714V4.98384Z" fill="#68AA15"/>
<path fill-rule="evenodd" clip-rule="evenodd" d="M25.4754 24.8894L29.157 21.0693C32.5676 17.5322 32.3677 11.6758 28.5633 8.41275C27.6955 7.66967 26.7173 7.15573 25.6914 6.85834V14.5696L26.6176 15.1044L25.6914 16.7087V20.4522C25.6914 22.1338 25.6161 23.604 25.4754 24.8894ZM24.0869 20.4522V17.3484V6.57026C21.637 6.38726 19.1023 7.32955 17.2591 9.2407L16.0656 10.4765L14.8722 9.2407C13.032 7.32885 10.4955 6.38662 8.04349 6.57047V20.4522C8.04349 27.2632 11.8982 28.7905 16.1081 28.7905C20.3521 28.7905 24.0869 27.2632 24.0869 20.4522ZM6.43913 6.85888C5.41321 7.15633 4.43525 7.6701 3.56808 8.41275C-0.236329 11.6758 -0.436242 17.5322 2.96834 21.0693L6.66871 24.9089C6.5193 23.619 6.43913 22.1425 6.43913 20.4522V16.682C5.82889 16.5582 5.36957 16.0186 5.36957 15.3718C5.36957 14.725 5.82889 14.1854 6.43913 14.0615V6.85888Z" fill="#68AA15"/>
</svg>
