<svg width="32" height="32" viewBox="0 0 32 32" fill="none" xmlns="http://www.w3.org/2000/svg">
<path d="M15.071 15.0193C13.6258 15.4322 12.1806 15.7418 10.7355 16.2064C7.75098 13.5169 3.99431 11.8373 0 11.4064C5.90733 7.14365 12.9992 4.83382 20.2839 4.79991L17.7548 7.12249C17.7548 7.12249 28.3355 6.7612 31.0194 3.09668C30.9425 3.47107 30.8212 3.83493 30.6581 4.18055C29.9342 6.33185 28.6087 8.23051 26.8387 9.65152C25.1728 10.9405 23.3303 11.9834 21.3677 12.7483C19.4186 13.6082 17.4193 14.3493 15.3806 14.9676L15.1226 15.0193H15.071ZM31.6903 14.658C24.9673 14.3633 18.2441 15.2364 11.8194 17.2386C13.1545 18.645 14.2683 20.2461 15.1226 21.987C20.4903 18.9935 27.871 15.2257 31.6903 14.658ZM15.7936 23.4838C16.4349 25.1055 16.8516 26.8073 17.0323 28.5418L26.3226 18.9935L15.7936 23.4838ZM20.8516 28.5418C20.9736 28.5731 21.1011 28.576 21.2243 28.5504C21.3476 28.5248 21.4634 28.4714 21.5628 28.3942C21.6623 28.317 21.7427 28.2181 21.7981 28.105C21.8535 27.992 21.8823 27.8677 21.8823 27.7418C21.8823 27.6159 21.8535 27.4917 21.7981 27.3787C21.7427 27.2656 21.6623 27.1667 21.5628 27.0895C21.4634 27.0123 21.3476 26.9589 21.2243 26.9333C21.1011 26.9077 20.9736 26.9106 20.8516 26.9418C20.7267 26.8955 20.5925 26.88 20.4604 26.8968C20.3282 26.9135 20.2021 26.962 20.0927 27.0381C19.9834 27.1141 19.894 27.2155 19.8324 27.3336C19.7707 27.4516 19.7384 27.5828 19.7384 27.716C19.7384 27.8492 19.7707 27.9805 19.8324 28.0985C19.894 28.2166 19.9834 28.3179 20.0927 28.394C20.2021 28.4701 20.3282 28.5185 20.4604 28.5353C20.5925 28.552 20.7267 28.5366 20.8516 28.4902V28.5418ZM20.8516 27.0967C20.9714 27.1067 21.0857 27.1514 21.1805 27.2252C21.2754 27.2991 21.3467 27.3989 21.3857 27.5126C21.4248 27.6263 21.4299 27.7489 21.4005 27.8654C21.3711 27.982 21.3084 28.0875 21.2201 28.169C21.1318 28.2505 21.0216 28.3046 20.9031 28.3246C20.7846 28.3446 20.6628 28.3297 20.5526 28.2817C20.4424 28.2336 20.3485 28.1546 20.2825 28.0542C20.2165 27.9537 20.1811 27.8362 20.1806 27.716C20.171 27.6278 20.1822 27.5384 20.2133 27.4553C20.2445 27.3721 20.2947 27.2974 20.3599 27.2371C20.4252 27.1769 20.5037 27.1328 20.5891 27.1084C20.6745 27.084 20.7644 27.08 20.8516 27.0967ZM21.1613 28.1289L21.1097 27.9741C21.0932 27.8977 21.0577 27.8267 21.0064 27.7676C21.0519 27.7559 21.092 27.7291 21.1201 27.6916C21.1482 27.6541 21.1628 27.6081 21.1613 27.5612C21.1613 27.3547 20.9548 27.3547 20.8 27.3547H20.5419V28.1289H20.7484V27.8709H20.8516C20.9077 27.9266 20.9439 27.9991 20.9548 28.0773V28.1805L21.1613 28.1289ZM20.8 27.458C20.9548 27.458 20.9548 27.458 20.9548 27.5612C20.9548 27.6644 20.9548 27.716 20.7484 27.716V27.458H20.8Z" fill="#F99E1E"/>
</svg>
