<svg id="Layer_1" data-name="Layer 1" xmlns="http://www.w3.org/2000/svg" viewBox="0 0 50.48 50.44"><title>Pingoteam</title><path d="M15.1,20.34a15.05,15.05,0,1,0,15,15.1v0A15.05,15.05,0,0,0,15.1,20.34Zm1.76,26.89A11.11,11.11,0,1,1,28,36.12,11.1,11.1,0,0,1,16.86,47.23Z" fill="#8084c4"/><path d="M44.3,5.67A18.82,18.82,0,0,0,31.3,0H31a1.83,1.83,0,0,0-1.78,1.86,1.83,1.83,0,0,0,.6,1.31A1.68,1.68,0,0,0,31,3.63h.25c7,0,15,6.4,15.57,15.58a1.83,1.83,0,0,0,1.81,1.72h.11a1.78,1.78,0,0,0,1.25-.6A1.81,1.81,0,0,0,50.48,19,20.75,20.75,0,0,0,44.3,5.67Z" fill="#8084c4"/><path d="M29.74,9.16h-.19a1.72,1.72,0,0,0-1.17,2.93l0,0a1.64,1.64,0,0,0,1.15.46h.23c3.81,0,8.2,3.6,8.48,8.56A1.72,1.72,0,0,0,40,22.77h.09a1.75,1.75,0,0,0,1.19-.57A1.72,1.72,0,0,0,41.71,21C41.37,14.63,35.79,9.16,29.74,9.16Z" fill="#8084c4"/><circle cx="30.15" cy="20.38" r="3.1" fill="#8084c4"/></svg>