<svg width="256" height="256" viewBox="0 0 256 256" xmlns="http://www.w3.org/2000/svg" preserveAspectRatio="xMidYMid"><path d="M0 128.002c0 52.414 31.518 97.442 76.619 117.239-.36-8.938-.064-19.668 2.228-29.393 2.461-10.391 16.47-69.748 16.47-69.748s-4.089-8.173-4.089-20.252c0-18.969 10.994-33.136 24.686-33.136 11.643 0 17.268 8.745 17.268 19.217 0 11.704-7.465 29.211-11.304 45.426-3.207 13.578 6.808 24.653 20.203 24.653 24.252 0 40.586-31.149 40.586-68.055 0-28.054-18.895-49.052-53.262-49.052-38.828 0-63.017 28.956-63.017 61.3 0 11.152 3.288 19.016 8.438 25.106 2.368 2.797 2.697 3.922 1.84 7.134-.614 2.355-2.024 8.025-2.608 10.272-.852 3.242-3.479 4.401-6.409 3.204-17.884-7.301-26.213-26.886-26.213-48.902 0-36.361 30.666-79.961 91.482-79.961 48.87 0 81.035 35.364 81.035 73.325 0 50.213-27.916 87.726-69.066 87.726-13.819 0-26.818-7.47-31.271-15.955 0 0-7.431 29.492-9.005 35.187-2.714 9.869-8.026 19.733-12.883 27.421a127.897 127.897 0 0 0 36.277 5.249c70.684 0 127.996-57.309 127.996-128.005C256.001 57.309 198.689 0 128.005 0 57.314 0 0 57.309 0 128.002z" fill="#CB1F27"/></svg>