<svg width="32" height="32" viewBox="0 0 32 32" fill="none" xmlns="http://www.w3.org/2000/svg">
<rect width="32" height="32" fill="black"/>
<path d="M7.20001 4.96002H17.1167C18.4917 4.96002 19.6629 5.16034 20.6275 5.5613C21.5922 5.96146 22.377 6.4901 22.9832 7.1469C23.5891 7.80466 24.0307 8.55842 24.3072 9.41058C24.5853 10.2624 24.7229 11.1303 24.7229 12.0128C24.7229 12.9162 24.5855 13.7888 24.3072 14.6303C24.0306 15.4725 23.5891 16.2216 22.9832 16.8784C22.377 17.5355 21.5923 18.0637 20.6275 18.4645C19.6629 18.8647 18.4915 19.065 17.1167 19.065H12.036V26.9488H7.20001V4.96002ZM12.036 15.3082H15.7927C16.3471 15.3082 16.8808 15.2669 17.3939 15.1848C17.9067 15.1027 18.3595 14.9437 18.7487 14.7075C19.1392 14.4712 19.452 14.1378 19.688 13.7069C19.9247 13.2755 20.0424 12.7106 20.0424 12.0128C20.0424 11.3151 19.9247 10.7496 19.688 10.3191C19.452 9.88802 19.1392 9.55442 18.7487 9.3181C18.3595 9.08178 17.9067 8.92338 17.3939 8.84098C16.8808 8.75874 16.3471 8.71778 15.7927 8.71778H12.036V15.3082V15.3082Z" fill="white"/>
</svg>
