<svg width="32" height="32" viewBox="0 0 32 32" fill="none" xmlns="http://www.w3.org/2000/svg">
<path d="M16.3924 18.8981C12.6515 18.8981 9.62006 15.8667 9.62006 12.1258C9.62006 8.3848 12.6515 5.33189 16.3924 5.33189C20.1333 5.33189 23.1648 8.36336 23.1648 12.1043C23.1648 15.8667 20.1333 18.8981 16.3924 18.8981ZM16.3924 0C13.877 0 11.555 0.75248 9.62006 2.06396V1.59097C9.62006 1.09648 9.21157 0.709483 8.73858 0.709483H5.14815C4.67515 0.709483 4.26666 1.09648 4.26666 1.56947V30.4863C4.26666 30.9808 4.67515 31.3678 5.14815 31.3678H8.71707C9.21157 31.3678 9.59856 30.9594 9.59856 30.4863V22.1876C11.5335 23.499 13.8555 24.2516 16.3709 24.2516C23.0573 24.2516 28.4967 18.8337 28.4967 12.1258C28.5182 5.41787 23.0788 0 16.3924 0Z" fill="#2C54C6"/>
</svg>
