<svg width="32" height="32" viewBox="0 0 32 32" fill="none" xmlns="http://www.w3.org/2000/svg">
<path d="M13.4746 17.0304V24.6073C13.4746 26.2441 13.6457 27.2608 13.9878 27.6572C14.4521 28.2198 15.1546 28.5012 16.0955 28.5012H17.0485V29.2108H6.40002V28.5012H7.33475C8.38554 28.5012 9.13698 28.1432 9.58908 27.427C9.83345 27.0305 9.95564 26.0907 9.95564 24.6073V7.80386C9.95564 6.167 9.79068 5.15036 9.46078 4.75394C8.98425 4.19126 8.27558 3.90993 7.33475 3.90993H6.40002V3.2002H15.509C17.7328 3.2002 19.4861 3.44317 20.7691 3.92911C22.052 4.40226 23.1335 5.20791 24.0131 6.34604C24.8928 7.48416 25.3327 8.8333 25.3327 10.3934C25.3327 12.5162 24.6607 14.2426 23.3167 15.5725C21.9848 16.9025 20.0971 17.5675 17.6534 17.5675C17.0546 17.5675 16.407 17.5227 15.7106 17.4332C15.0141 17.3437 14.2688 17.2094 13.4746 17.0304ZM13.4746 15.937C14.1222 16.0649 14.6964 16.1608 15.1974 16.2247C15.6984 16.2887 16.126 16.3206 16.4804 16.3206C17.7511 16.3206 18.8447 15.8091 19.761 14.7861C20.6897 13.7503 21.154 12.4139 21.154 10.7771C21.154 9.65172 20.934 8.60951 20.4942 7.6504C20.0543 6.67852 19.4311 5.956 18.6247 5.48285C17.8183 4.9969 16.9019 4.75394 15.8755 4.75394C15.2524 4.75394 14.4521 4.87541 13.4746 5.11839V15.937Z" fill="black"/>
</svg>
