<svg width="32" height="32" viewBox="0 0 32 32" fill="none" xmlns="http://www.w3.org/2000/svg">
<path d="M9.3275 2.74561C11.1506 2.80748 12.98 2.86311 14.79 3.07311C18.7594 3.53436 22.6144 4.50936 26.355 5.92123C26.7644 6.07561 27.1657 6.26311 27.5457 6.47936C28.2994 6.90811 28.6526 7.56998 28.6412 8.44498C28.5681 14.2287 27.4807 19.8094 25.2975 25.1694C24.7969 26.3975 24.1937 26.8244 22.85 26.7212C20.4387 26.5362 18.0332 26.2781 15.6287 26.0156C15.2331 25.9731 14.9887 26.0162 14.7375 26.35C13.7644 27.6425 12.5081 28.5944 11.0231 29.2269C10.825 29.3113 10.5369 29.1863 10.2906 29.1581C10.3725 28.9425 10.3969 28.6719 10.5444 28.52C11.3969 27.6431 11.9625 26.6325 12.1594 25.373C10.6181 24.9124 9.09687 24.458 7.46 23.9699C9.74437 22.9568 10.515 21.183 10.4494 18.953C10.43 18.3168 10.6606 18.0755 11.2887 18.1012C12.0581 18.1324 12.83 18.0974 13.6 18.1099C14.2187 18.1205 14.3156 17.7424 14.3119 17.2443C14.3075 16.7493 14.2912 16.2949 13.6112 16.3024C12.7969 16.3112 11.9819 16.2962 11.1675 16.3037C10.6812 16.308 10.4281 16.1187 10.4537 15.5968C10.4769 15.1137 10.4744 14.6274 10.4531 14.1443C10.4312 13.6412 10.6312 13.4205 11.15 13.4368C11.9194 13.4599 12.6906 13.4505 13.4612 13.4368C14.175 13.4243 14.3094 13.2649 14.3075 12.4999C14.3056 11.7512 14.17 11.6037 13.4319 11.5943C12.6612 11.5849 11.8906 11.583 11.12 11.5924C10.6525 11.5987 10.4444 11.408 10.4537 10.9205C10.5006 8.58554 10.145 9.10117 12.2162 8.51179C12.7662 8.35554 13.3106 8.18117 13.855 8.00742C14.215 7.89242 14.3281 7.70492 14.145 7.31554C13.5694 6.08867 13.5856 6.08617 12.3106 6.54242C11.8762 6.69742 11.4362 6.83929 10.9919 6.96242C10.6425 7.05867 10.4319 6.93304 10.4581 6.53492C10.4612 6.49054 10.4594 6.44679 10.4581 6.40242C10.4256 5.10867 9.95062 4.74429 8.69937 5.10867C8.5225 5.15992 8.34312 5.41179 8.28375 5.60679C8.21 5.84929 8.25687 6.12992 8.25687 6.39367C8.255 7.66742 8.23062 7.69679 6.96188 7.86617C6.64188 7.90867 6.32125 7.94429 5.83625 8.00304C6.41375 6.49429 6.8975 5.08304 7.49875 3.72367C7.81937 3.00061 8.57562 2.72061 9.3275 2.74561ZM15.4912 23.9082C15.9981 23.9944 16.5375 24.0344 17.0369 23.9412C17.1813 23.9144 17.3144 23.3912 17.3156 23.0944C17.3319 18.0344 17.3275 12.9737 17.3275 7.91373C17.3275 7.66123 17.3275 7.40873 17.3275 7.13623C18.425 7.13623 19.4112 7.13623 20.5331 7.13623C19.9931 8.73936 19.5112 10.2644 18.9587 11.7637C18.7419 12.3537 18.7762 12.7769 19.2332 13.2362C20.1507 14.1569 20.7981 15.2681 21.0801 16.5357C21.4876 18.3706 20.9856 19.1675 19.1987 19.0525C19.1544 19.0494 19.1106 19.0539 19.0669 19.0519C18.4601 19.0207 18.3094 19.3857 18.3438 19.8969C18.3776 20.3951 18.1919 21.0419 19.0232 21.0614C19.5282 21.0732 20.0369 21.0663 20.5382 21.0145C22.0851 20.8557 22.9275 20.045 23.1419 18.5145C23.4469 16.3419 22.8237 14.46 21.2644 12.9232C20.8631 12.5276 20.8382 12.2157 21.0369 11.7151C21.63 10.2251 22.175 8.71448 22.7081 7.20136C23.0556 6.21511 22.2937 5.16198 21.2437 5.15386C19.5719 5.14198 17.8993 5.14511 16.2274 5.15136C15.3856 5.15448 15.2893 5.26011 15.2887 6.11136C15.2881 9.87386 15.2887 13.6357 15.2893 17.3982C15.2893 19.3344 15.2831 21.2707 15.2987 23.2064C15.3006 23.4519 15.3869 23.8906 15.4912 23.9082Z" fill="white"/>
<path d="M19.1987 19.0525C20.9856 19.1675 21.4875 18.3706 21.0801 16.5356C20.7981 15.2681 20.1507 14.1568 19.2332 13.2362C18.7762 12.7768 18.7419 12.3537 18.9587 11.7637C19.5112 10.2643 19.9931 8.73933 20.5331 7.13621C19.4112 7.13621 18.425 7.13621 17.3275 7.13621C17.3275 7.40871 17.3275 7.66121 17.3275 7.91371C17.3275 12.9737 17.3318 18.0343 17.3156 23.0943C17.3144 23.3912 17.1813 23.9143 17.0369 23.9412C16.5375 24.0343 15.9981 23.9944 15.4912 23.9081C15.3869 23.8906 15.3006 23.4519 15.2987 23.2063C15.2831 21.2706 15.2894 19.3344 15.2894 17.3981C15.2887 13.6356 15.2881 9.87377 15.2887 6.11127C15.2894 5.26002 15.3856 5.1544 16.2275 5.15127C17.8994 5.14502 19.5719 5.1419 21.2438 5.15377C22.2938 5.1619 23.0556 6.21502 22.7082 7.20127C22.1751 8.7144 21.6301 10.225 21.0369 11.715C20.8382 12.2156 20.8632 12.5275 21.2645 12.9231C22.8238 14.46 23.447 16.3419 23.1419 18.5144C22.9276 20.045 22.0851 20.8556 20.5382 21.0144C20.0369 21.0662 19.5282 21.0731 19.0232 21.0613C18.192 21.0418 18.3776 20.395 18.3439 19.8968C18.3095 19.3856 18.4601 19.0206 19.067 19.0518C19.1106 19.0538 19.1544 19.0494 19.1987 19.0525Z" fill="#0F298E"/>
<path d="M6.07875 23.3613C6.07875 23.2019 6.09375 23.0494 6.07562 22.9001C6.00625 22.3056 6.14812 21.9487 6.83 21.7726C7.23562 21.6675 7.71313 21.2569 7.86188 20.8701C8.11375 20.2163 8.15562 19.4744 8.23687 18.7645C8.29125 18.2914 7.99375 18.1057 7.54313 18.1082C6.53375 18.1139 5.52375 18.1276 4.515 18.1001C4.09 18.0883 3.99438 18.2776 3.98938 18.6457C3.98 19.3251 3.94562 20.0051 3.915 20.6838C3.84125 22.3231 4.40563 23.0344 6.07875 23.3613ZM10.4494 18.9531C10.515 21.1831 9.74437 22.9569 7.46 23.97C9.09688 24.4582 10.6181 24.9125 12.1594 25.3731C11.9625 26.6325 11.3969 27.6431 10.5444 28.5201C10.3969 28.6719 10.3725 28.9426 10.2906 29.1582C10.5369 29.1863 10.825 29.3113 11.0231 29.2269C12.5081 28.5944 13.7644 27.6426 14.7375 26.3501C14.9888 26.0163 15.2331 25.9733 15.6287 26.0157C18.0331 26.2782 20.4387 26.5363 22.85 26.7213C24.1938 26.8244 24.7969 26.3976 25.2975 25.1694C27.4807 19.8094 28.5681 14.2288 28.6413 8.44506C28.6526 7.57006 28.2994 6.90819 27.5457 6.47944C27.1657 6.26319 26.7644 6.07569 26.355 5.92131C22.6144 4.50937 18.7594 3.53437 14.79 3.07312C12.98 2.86312 11.1506 2.8075 9.3275 2.74563C8.57563 2.72063 7.81938 3.00063 7.49875 3.72375C6.8975 5.08313 6.41375 6.49438 5.83625 8.00313C6.32125 7.94438 6.64187 7.90875 6.96187 7.86625C8.23062 7.69688 8.255 7.6675 8.25688 6.39375C8.25688 6.13 8.21 5.84937 8.28375 5.60687C8.34312 5.41187 8.5225 5.16 8.69938 5.10875C9.95063 4.74437 10.4256 5.10875 10.4581 6.4025C10.4594 6.44688 10.4613 6.49062 10.4581 6.535C10.4319 6.93312 10.6425 7.05875 10.9919 6.9625C11.4362 6.83938 11.8763 6.6975 12.3106 6.5425C13.5856 6.08625 13.5694 6.08875 14.145 7.31563C14.3281 7.705 14.215 7.8925 13.855 8.0075C13.3106 8.18125 12.7663 8.35563 12.2163 8.51188C10.145 9.10125 10.5006 8.58562 10.4537 10.9206C10.4444 11.4081 10.6525 11.5987 11.12 11.5925C11.8906 11.5831 12.6613 11.585 13.4319 11.5944C14.17 11.6037 14.3056 11.7513 14.3075 12.5C14.3094 13.265 14.175 13.4244 13.4613 13.4369C12.6906 13.4506 11.9194 13.46 11.15 13.4369C10.6312 13.4206 10.4313 13.6412 10.4531 14.1444C10.4744 14.6275 10.4769 15.1138 10.4537 15.5969C10.4281 16.1188 10.6812 16.3081 11.1675 16.3038C11.9819 16.2963 12.7969 16.3113 13.6112 16.3025C14.2912 16.295 14.3075 16.7494 14.3119 17.2444C14.3156 17.7425 14.2188 18.1206 13.6 18.11C12.83 18.0975 12.0581 18.1325 11.2887 18.1012C10.6606 18.0756 10.43 18.3169 10.4494 18.9531ZM6.55125 16.3C8.3275 16.2787 8.28 16.63 8.25313 14.4613C8.2475 13.9969 8.03125 13.7719 7.57312 13.7706C6.69375 13.7675 5.81375 13.7494 4.93563 13.78C4.785 13.7856 4.54063 13.9825 4.51188 14.1256C4.375 14.8094 4.2975 15.5056 4.18375 16.3019C5.06313 16.3019 5.8075 16.3094 6.55125 16.3ZM32 3.2V28.8C32 30.56 30.56 32 28.8 32H3.2C1.44 32 0 30.56 0 28.8V3.2C0 1.44 1.44 0 3.2 0H28.8C30.56 0 32 1.44 32 3.2ZM8.20813 11.4637C8.27688 10.97 8.2725 10.4556 8.2125 9.96C8.19375 9.80063 7.89375 9.53563 7.75187 9.55375C6.97312 9.65188 6.08437 9.63938 5.47312 10.0344C5.08 10.2894 5.09813 11.1806 4.93375 11.7869C4.92875 11.8056 4.9425 11.8294 4.97188 11.9556C5.88938 11.9556 6.80812 11.9813 7.7225 11.9338C7.9 11.9244 8.1825 11.6469 8.20813 11.4637Z" fill="#0F298E"/>
<path d="M8.25313 14.4612C8.28 16.63 8.3275 16.2788 6.55125 16.3C5.8075 16.3094 5.06313 16.3019 4.18375 16.3019C4.2975 15.5056 4.375 14.8094 4.51188 14.1256C4.54063 13.9825 4.785 13.7856 4.93563 13.78C5.81375 13.7494 6.69375 13.7675 7.57312 13.7706C8.03125 13.7719 8.2475 13.9969 8.25313 14.4612Z" fill="white"/>
<path d="M8.2125 9.95999C8.2725 10.4556 8.27688 10.97 8.20813 11.4637C8.1825 11.6469 7.9 11.9244 7.7225 11.9337C6.80813 11.9812 5.88938 11.9556 4.97188 11.9556C4.9425 11.8294 4.92875 11.8056 4.93375 11.7869C5.09813 11.1806 5.08 10.2894 5.47313 10.0344C6.08438 9.63937 6.97313 9.65186 7.75188 9.55374C7.89375 9.53561 8.19375 9.80061 8.2125 9.95999Z" fill="white"/>
<path d="M7.54312 18.1082C7.99375 18.1057 8.29125 18.2913 8.23687 18.7644C8.15562 19.4744 8.11375 20.2163 7.86187 20.87C7.71312 21.2569 7.23562 21.6675 6.83 21.7725C6.14812 21.9487 6.00625 22.3056 6.07562 22.9C6.09375 23.0494 6.07875 23.2019 6.07875 23.3613C4.40562 23.0344 3.84125 22.3231 3.915 20.6838C3.94562 20.005 3.98 19.325 3.98937 18.6456C3.99437 18.2775 4.09 18.0881 4.515 18.1C5.52375 18.1275 6.53375 18.1138 7.54312 18.1082Z" fill="white"/>
</svg>
