<svg xmlns="http://www.w3.org/2000/svg" version="1.2" baseProfile="tiny" viewBox="0 0 51 51" overflow="scroll">
  <path fill="#FF7800" d="M5.6 1.4h39.9c2.3 0 4.2 1.8 4.2 4.2v39.9c0 2.3-1.8 4.2-4.2 4.2H5.6c-2.3 0-4.2-1.8-4.2-4.2V5.6c0-2.3 1.9-4.2 4.2-4.2z"/>
  <path fill="#FEFEFE" d="M40.1 17.6c-3.2 0-6.1 1.9-7.3 4.8-1-2.3-3.5-4.8-6.9-4.8h-.4c-3.5 0-6.1 1.9-7.3 4.8-1.3-2.9-4.2-4.8-7.3-4.8-4.4 0-7.9 3.5-7.9 7.9v8h4v-7.9c0-2.3 1.9-4.2 4.2-4.2s4.2 1.9 4.2 4.2v7.9h3.8v-3.2c3.2 4.4 10.7 4.4 13.6-1h-5.4c-.4.4-1 .4-1.5.4-1.5 0-3.2-1-3.8-2.9h10.7c.4 3.8 3.8 6.7 7.6 6.7 4.4 0 8.2-3.5 8.2-7.9s-4.1-8-8.5-8zM22 23.5c.6-1.5 2.3-2.4 3.8-2.3 1.5.1 2.5 1 3.2 2.3h-7zm18.1 6.1c-2.3 0-4.2-1.9-4.2-4.2s1.9-4.2 4.2-4.2c2.5 0 4.4 1.9 4.4 4.2s-1.9 4.2-4.4 4.2z"/>
</svg>
