<svg width="32" height="32" viewBox="0 0 32 32" fill="none" xmlns="http://www.w3.org/2000/svg">
<path d="M14.283 22.3999V9.70139H15.36V11.3482H15.5786C15.8673 10.8175 16.2888 10.3648 16.7961 10.0292C17.3425 9.63895 18.1152 9.44383 19.0986 9.44383C19.8634 9.43602 20.6205 9.63115 21.2839 10.0136C21.9395 10.396 22.4859 10.9502 22.8449 11.6136C23.2508 12.3785 23.4537 13.2292 23.4303 14.0955V14.3141C23.4537 15.1726 23.2508 16.0233 22.8527 16.7882C22.4937 17.4594 21.9552 18.0136 21.2995 18.396C20.6283 18.7785 19.8713 18.9736 19.0986 18.958C18.5288 18.9736 17.9591 18.8877 17.4205 18.7004C16.9991 18.5443 16.6166 18.3102 16.2966 18.0058C16.0313 17.7482 15.8049 17.4594 15.6176 17.1394H15.3913V22.3999H14.283ZM18.841 17.959C19.7698 17.998 20.6752 17.639 21.3308 16.9755C21.963 16.3199 22.283 15.4224 22.283 14.275V14.119C22.283 12.9716 21.963 12.0741 21.3308 11.4185C20.6752 10.755 19.7698 10.396 18.841 10.435C17.9122 10.4038 17.0147 10.755 16.3591 11.4185C15.7191 12.0819 15.3991 12.9794 15.3991 14.119V14.2672C15.3991 15.4146 15.7191 16.3121 16.3591 16.9677C17.0069 17.6311 17.9122 17.9902 18.841 17.959Z" fill="#21CCBB"/>
<path d="M9.9357 31.8984C9.19423 31.8984 8.58545 31.2896 8.58545 30.5481V9.12376C8.58545 8.18717 9.03813 7.30522 9.79521 6.75107L18.6303 0.413513C19.2313 -0.0235599 20.0821 0.109123 20.5191 0.710099C20.6908 0.944245 20.7767 1.22522 20.7767 1.5062V8.03888H19.723V1.5062C19.723 1.33449 19.5903 1.194 19.4186 1.194C19.3562 1.194 19.2938 1.20961 19.2391 1.24864L10.404 7.60181C9.91228 7.95303 9.6235 8.52278 9.6235 9.12376V30.5403C9.6235 30.7121 9.76399 30.8525 9.9357 30.8525C9.99813 30.8525 10.0606 30.8291 10.1152 30.7979L18.9425 24.4525C19.4342 24.1013 19.723 23.5316 19.723 22.9306V20.5423H20.7767V22.9306C20.7767 23.8672 20.324 24.7491 19.5591 25.3033L10.724 31.6408C10.4898 31.8047 10.2167 31.8984 9.9357 31.8984Z" fill="#21CCBB"/>
</svg>
