<?xml version="1.0" encoding="UTF-8" standalone="no"?><!DOCTYPE svg PUBLIC "-//W3C//DTD SVG 1.1//EN" "http://www.w3.org/Graphics/SVG/1.1/DTD/svg11.dtd"><svg width="100%" height="100%" viewBox="0 0 512 512" version="1.1" xmlns="http://www.w3.org/2000/svg" xmlns:xlink="http://www.w3.org/1999/xlink" xml:space="preserve" xmlns:serif="http://www.serif.com/" style="fill-rule:evenodd;clip-rule:evenodd;stroke-linejoin:round;stroke-miterlimit:2;"><g><path d="M472.351,86.544c0,-8.33 -0.536,-16.47 -1.495,-24.437c-1.002,-1.149 -1.936,-2.35 -2.981,-3.473c-38.642,-44.509 -104.2,-64.288 -194.998,-53.245c-51.206,7.846 -98.825,21.818 -138.979,40.154c-2.895,18.569 -5.937,36.689 -8.874,52.208l-56.192,297.711c25.473,29.422 56.986,54.17 92.967,73.318l29.707,-153.66l1.486,0c12.702,7.457 38.106,14.931 67.978,14.931c126.986,0 211.381,-116.521 211.381,-243.507Zm-112.789,8.217c0,71.702 -44.812,153.868 -102.334,153.868c-20.91,0 -37.345,-6.723 -49.287,-17.93l13.445,-78.424c13.437,-71.711 50.791,-117.274 91.118,-117.274c35.108,0 47.058,30.632 47.058,59.76Z" style="fill:#fff;fill-rule:nonzero;"/><path d="M471.763,62.997c-1.261,-1.477 -0.907,-0.898 -0.907,-0.898c0.959,7.975 1.495,16.124 1.495,24.436c0,126.986 -84.395,243.508 -211.381,243.508c-29.872,0 -55.276,-7.466 -67.978,-14.923l-1.486,0l-29.698,153.643l1.062,0.838c32.879,17.325 69.404,29.975 108.331,37.207c68.807,9.782 116.409,-5.703 155.241,-51.257c39.16,-43.956 67.424,-115.865 81.086,-202.585c10.351,-83.963 1.166,-146.877 -35.765,-189.969Zm-112.201,31.764c0,-29.137 -11.95,-59.76 -47.058,-59.76c-40.327,0 -77.681,45.563 -91.126,117.274l-13.446,78.424c11.951,11.207 28.386,17.93 49.296,17.93c57.522,0 102.334,-82.166 102.334,-153.868Zm-225.535,-49.296c-30.917,14.111 -57.418,30.813 -77.724,49.305c-48.173,42.686 -62.275,94.6 -53.228,160.719c8.425,53.228 31.444,100.537 65.17,139.662c0,0 0.725,0.467 0.587,0.303l56.192,-297.703c2.937,-15.519 9.003,-52.286 9.003,-52.286Z" style="fill:#008ebd;fill-rule:nonzero;"/></g></svg>