<svg width="32" height="32" viewBox="0 0 32 32" fill="none" xmlns="http://www.w3.org/2000/svg">
<rect width="32" height="32" fill="#4B24AC"/>
<path fill-rule="evenodd" clip-rule="evenodd" d="M7.46655 6.23999C7.46655 6.09854 7.52274 5.96289 7.62276 5.86287C7.72278 5.76285 7.85844 5.70666 7.99989 5.70666H12.3914C12.5328 5.70666 12.6685 5.76285 12.7685 5.86287C12.8685 5.96289 12.9247 6.09854 12.9247 6.23999V7.15732C12.9247 7.15732 14.3412 5.95626 16.0564 5.55092C16.5694 5.40088 17.1017 5.32755 17.6362 5.33332C18.5556 5.33332 19.4282 5.54132 20.2506 5.95626C21.0932 6.35092 21.8314 6.92266 22.4628 7.67039C23.0954 8.41706 23.5935 9.33226 23.9561 10.4117C24.3401 11.4923 24.5321 12.7083 24.5321 14.0587V14.1205C24.5321 15.4912 24.3401 16.7275 23.9561 17.8283C23.5935 18.9088 23.0954 19.8336 22.4628 20.6016C21.8693 21.3339 21.1245 21.9292 20.2794 22.3467C19.4559 22.7413 18.5844 22.9387 17.666 22.9387C17.666 22.9387 14.0682 22.9387 12.9034 21.6085V27.0176C12.9034 27.159 12.8472 27.2947 12.7471 27.3947C12.6471 27.4947 12.5115 27.5509 12.37 27.5509H7.99989C7.85844 27.5509 7.72278 27.4947 7.62276 27.3947C7.52274 27.2947 7.46655 27.159 7.46655 27.0176V6.23999ZM17.234 17.7035C16.8511 17.8912 16.4394 17.9851 15.9988 17.9851C15.5583 17.9851 15.137 17.8912 14.7348 17.7035C14.3499 17.5153 14.0075 17.2503 13.729 16.9248C13.4349 16.5594 13.2022 16.1488 13.0399 15.7088C12.8829 15.2048 12.8056 14.6793 12.8106 14.1515V14.0896C12.8106 13.5285 12.8863 13.0197 13.0399 12.5621C13.2127 12.0843 13.442 11.68 13.729 11.3472C14.017 10.9941 14.3519 10.7243 14.7348 10.5365C15.1304 10.3514 15.562 10.256 15.9988 10.2571C16.4394 10.2571 16.8522 10.3499 17.234 10.5365C17.618 10.7243 17.953 10.9941 18.2399 11.3472C18.5279 11.68 18.7572 12.0843 18.929 12.5632C19.1018 13.0197 19.1882 13.5285 19.1882 14.0885V14.1525C19.1882 14.7125 19.1018 15.232 18.929 15.7099C18.7761 16.1542 18.5425 16.5664 18.2399 16.9259C17.9519 17.2565 17.617 17.5157 17.234 17.7035Z" fill="white"/>
</svg>
