<svg width="32" height="32" viewBox="0 0 32 32" fill="none" xmlns="http://www.w3.org/2000/svg">
<g clip-path="url(#clip0_2784_35)">
<path d="M29.1657 5.76C28.6629 4.61714 27.9771 3.61143 27.1543 2.74286C26.3314 1.92 25.3257 1.23429 24.1371 0.73143C22.9943 0.228572 21.76 0 20.4343 0H11.6571C10.3314 0 9.14286 0.228572 8 0.73143C6.85714 1.23429 5.85143 1.92 5.02857 2.74286C4.20571 3.56571 3.51999 4.57143 3.01714 5.76C2.51428 6.90286 2.28571 8.13714 2.28571 9.41714V22.4457C2.28571 23.7714 2.51428 24.96 3.01714 26.1029C3.51999 27.2457 4.20571 28.2514 5.02857 29.0743C5.85143 29.8971 6.85714 30.5829 8 31.0857C9.14286 31.5886 10.3771 31.8171 11.6571 31.8171H20.4343C21.76 31.8171 22.9943 31.5886 24.1371 31.0857C25.28 30.5829 26.2857 29.8971 27.1543 29.0743C27.9771 28.2514 28.6629 27.2457 29.1657 26.1029C29.6686 24.96 29.8971 23.7257 29.8971 22.4457V9.41714C29.8971 8.13714 29.6686 6.94857 29.1657 5.76ZM3.52 22.4457V9.41714C3.52 8.27429 3.74857 7.22286 4.15999 6.21714C4.57142 5.25714 5.16571 4.38857 5.89714 3.61143C6.62857 2.88 7.49714 2.28572 8.50285 1.87429C9.46285 1.46286 10.56 1.23429 11.7029 1.23429H20.48C21.6229 1.23429 22.6743 1.46286 23.68 1.87429C24.6857 2.28572 25.5543 2.88 26.2857 3.61143C26.7429 4.06857 27.1543 4.57143 27.4743 5.12L5.21142 27.4286C4.8 26.88 4.43428 26.2857 4.15999 25.6457C3.70285 24.64 3.52 23.5886 3.52 22.4457Z" fill="#EB314F" stroke="#EB314F" stroke-miterlimit="10"/>
</g>
<defs>
<clipPath id="clip0_2784_35">
<rect width="32" height="32" fill="white"/>
</clipPath>
</defs>
</svg>
