<svg width="32" height="32" viewBox="0 0 32 32" fill="none" xmlns="http://www.w3.org/2000/svg">
<g clip-path="url(#clip0_1757:2)">
<path d="M171.023 -3.72949H-4.62112V36.6312H171.023V-3.72949Z" fill="white"/>
<path d="M32.9259 32.0449C32.9259 32.5315 32.5717 32.9259 32.1348 32.9259H0.791084C0.354189 32.9259 0 32.5315 0 32.0449V0.881004C0 0.394406 0.354189 0 0.791084 0H32.1349C32.5718 0 32.926 0.394406 32.926 0.881004V32.0449H32.9259Z" fill="#6CC179"/>
<path d="M19.2014 4.0788L32.9254 16.2104V32.0291C32.9254 32.0291 32.9462 32.4627 32.6192 32.742C32.3748 32.9507 32.1145 32.9245 32.1145 32.9245H13.6414C13.6414 32.9245 12.5846 32.2418 9.75963 28.2514C6.02278 22.9729 5.44791 19.1576 5.44791 19.1576L9.89918 17.6112L16.0873 5.49249" fill="#56B267"/>
<path d="M17.6489 15.9025C17.6489 18.3033 17.2828 19.2733 16.0925 21.1658C15.4622 22.1679 18.2631 23.2139 18.3832 24.3904C18.3854 24.4129 18.3791 24.5109 18.3792 24.5334C18.383 25.6643 18.3773 25.4704 18.3811 26.4687C18.3824 26.8005 18.3763 28.0142 18.3783 28.4866C18.3784 28.5021 18.3783 28.6531 18.2117 28.6531C17.9068 28.6679 17.8101 28.6629 17.5013 28.6629C10.7149 28.6629 5.12562 23.1932 5.07953 16.3274C5.03374 9.50735 10.7496 3.41997 18.3505 3.9166C18.8282 3.9478 18.9932 3.98363 19.0712 4.01663C19.1427 4.04682 19.1753 4.0639 19.1929 4.07378C19.2665 4.11502 19.4722 4.42382 19.422 4.80631C19.0226 7.84756 16.4833 7.49087 17.4852 9.71752C18.1766 11.2546 17.6489 14.1077 17.6489 15.9025V15.9025Z" fill="#EF4136"/>
<path d="M17.5394 17.1605C17.8884 17.2327 18.483 17.4011 19.4701 17.6644C20.6377 17.9757 22.0815 18.8178 23.2965 19.1485C24.5489 19.4893 24.9592 19.5375 26.4297 19.4628C26.445 19.462 26.4479 19.4749 26.4399 19.4916C24.799 22.9219 21.5337 24.3472 19.1529 24.4701C18.9124 24.4825 18.7589 24.5 18.5232 24.495C14.0095 24.401 10.4033 21.1561 10.1704 16.6779C9.96841 12.792 13.4368 7.31113 18.2044 7.10636C21.6015 6.96047 24.8911 8.8548 26.4604 12.2571C26.4621 12.2608 28.1307 15.5479 26.5909 19.146C26.5875 19.154 26.5781 19.1344 26.5717 19.1152C26.5093 18.928 25.9803 17.5206 25.4858 16.3297C24.7532 14.5655 23.4826 14.1095 23.4669 14.1115C22.8512 14.1908 21.1902 13.1276 20.6376 13.2661C18.7018 13.7513 17.2858 17.1081 17.5394 17.1605V17.1605Z" fill="#D1D3D4"/>
<path d="M17.6679 17.22C17.6679 17.22 19.6877 17.9216 19.9886 18.0424C20.8821 18.4011 21.9702 19.8485 22.5052 19.9269C23.135 20.019 26.4424 19.4917 26.4424 19.4917C26.4424 19.4917 25.6847 21.3348 23.8492 22.7019C22.5976 23.634 21.279 24.179 19.9043 24.394C19.4326 24.4678 18.8829 24.5041 18.3299 24.4887C14.8686 24.3926 18.0303 19.3841 18.0303 19.3841L17.2657 17.493" fill="#414042"/>
<path d="M17.4393 17.1616C17.4841 16.6986 17.7162 16.0852 18.3503 15.2625C19.1081 14.2795 19.4716 13.8647 20.0041 13.5422C20.74 13.0964 21.4316 13.5036 21.9923 13.7539C22.5889 14.0202 22.9514 14.1002 23.4215 14.1941C23.8068 14.2711 24.7723 15.274 24.7723 15.274C24.7723 15.274 24.1386 13.4676 23.46 13.2452C22.7813 13.0227 20.78 11.8842 19.7374 12.1312C19.1922 12.2603 17.8746 12.6855 17.2376 13.1608C17.0766 13.2808 16.6441 13.6944 16.6715 14.0007C16.6989 14.307 17.4393 17.1616 17.4393 17.1616Z" fill="#414042"/>
<path d="M18.3504 15.0439C18.3173 19.7432 18.1744 19.7116 18.3803 24.4472C18.3817 24.4772 18.3868 24.4876 18.3634 24.489C18.3316 24.4908 18.2607 24.4845 18.2224 24.4836C13.8039 24.376 9.84053 20.6282 9.85637 15.7591C9.87174 11.0334 13.6502 7.29583 18.1661 7.10125C18.1822 7.10055 18.2531 7.09874 18.3086 7.0971C18.345 7.09608 18.382 7.08918 18.3818 7.09968C18.3411 8.6748 18.3838 10.3024 18.3504 15.0439Z" fill="#EFEFEF"/>
<path d="M18.0059 13.1452C18.0654 15.0002 16.5933 16.5387 14.7182 16.5815C12.843 16.6244 11.2747 15.1555 11.2153 13.3005C11.1558 11.4456 12.6279 9.90714 14.503 9.86426C16.3782 9.82138 17.9465 11.2903 18.0059 13.1452Z" fill="white"/>
<path d="M17.4105 12.9172C17.4462 14.0302 16.563 14.9533 15.4379 14.979C14.3127 15.0048 13.3718 14.1234 13.3361 13.0105C13.3004 11.8975 14.1836 10.9744 15.3088 10.9487C16.4339 10.9229 17.3749 11.8043 17.4105 12.9172Z" fill="black"/>
<path d="M16.9351 12.5454C16.9529 13.1018 16.5113 13.5634 15.9488 13.5763C15.3862 13.5891 14.9157 13.1485 14.8979 12.592C14.8801 12.0355 15.3217 11.5739 15.8843 11.5611C16.4468 11.5482 16.9173 11.9889 16.9351 12.5454Z" fill="white"/>
</g>
<defs>
<clipPath id="clip0_1757:2">
<rect width="32" height="32" fill="white"/>
</clipPath>
</defs>
</svg>
