<svg width="104" height="115" viewBox="0 0 104 115" fill="none" xmlns="http://www.w3.org/2000/svg">
<path d="M75.1 44.95H22.74C22.3027 44.95 21.8697 45.0361 21.4657 45.2035C21.0617 45.3708 20.6946 45.6161 20.3853 45.9253C20.0761 46.2346 19.8308 46.6016 19.6635 47.0057C19.4961 47.4097 19.41 47.8427 19.41 48.28C19.41 48.7173 19.4961 49.1503 19.6635 49.5543C19.8308 49.9584 20.0761 50.3254 20.3853 50.6347C20.6946 50.9439 21.0617 51.1892 21.4657 51.3565C21.8697 51.5239 22.3027 51.61 22.74 51.61H75.1C75.5373 51.61 75.9703 51.5239 76.3743 51.3565C76.7784 51.1892 77.1454 50.9439 77.4547 50.6347C77.7639 50.3254 78.0092 49.9584 78.1765 49.5543C78.3439 49.1503 78.43 48.7173 78.43 48.28C78.43 47.8427 78.3439 47.4097 78.1765 47.0057C78.0092 46.6016 77.7639 46.2346 77.4547 45.9253C77.1454 45.6161 76.7784 45.3708 76.3743 45.2035C75.9703 45.0361 75.5373 44.95 75.1 44.95V44.95Z" fill="#EF4649"/>
<path d="M22.74 35.43H75.1C75.9832 35.43 76.8302 35.0792 77.4547 34.4547C78.0792 33.8302 78.43 32.9832 78.43 32.1C78.43 31.2168 78.0792 30.3698 77.4547 29.7453C76.8302 29.1208 75.9832 28.77 75.1 28.77H22.74C21.8568 28.77 21.0098 29.1208 20.3853 29.7453C19.7608 30.3698 19.41 31.2168 19.41 32.1C19.41 32.9832 19.7608 33.8302 20.3853 34.4547C21.0098 35.0792 21.8568 35.43 22.74 35.43V35.43Z" fill="#EF4649"/>
<path d="M75.1 61.14H22.74C22.3027 61.14 21.8697 61.2261 21.4657 61.3935C21.0617 61.5608 20.6946 61.8061 20.3853 62.1153C20.0761 62.4246 19.8308 62.7916 19.6635 63.1957C19.4961 63.5997 19.41 64.0327 19.41 64.47C19.41 64.9073 19.4961 65.3403 19.6635 65.7443C19.8308 66.1484 20.0761 66.5154 20.3853 66.8247C20.6946 67.1339 21.0617 67.3792 21.4657 67.5465C21.8697 67.7139 22.3027 67.8 22.74 67.8H75.1C75.5373 67.8 75.9703 67.7139 76.3743 67.5465C76.7784 67.3792 77.1454 67.1339 77.4547 66.8247C77.7639 66.5154 78.0092 66.1484 78.1765 65.7443C78.3439 65.3403 78.43 64.9073 78.43 64.47C78.43 64.0327 78.3439 63.5997 78.1765 63.1957C78.0092 62.7916 77.7639 62.4246 77.4547 62.1153C77.1454 61.8061 76.7784 61.5608 76.3743 61.3935C75.9703 61.2261 75.5373 61.14 75.1 61.14V61.14Z" fill="#EF4649"/>
<path d="M95.67 50.79C93.42 50.79 91.4 52.57 89.58 55.09C87.5842 58.0333 85.908 61.1811 84.58 64.48C83.497 66.6419 82.8191 68.9839 82.58 71.39C82.4835 73.0953 82.9897 74.7802 84.01 76.15C81.9585 78.8087 79.6099 81.2244 77.01 83.35C76.6 83.68 75.64 84.46 74.12 85.51C72.1143 86.8734 70.0006 88.0708 67.8 89.09C64.6419 90.5494 61.3173 91.6173 57.9 92.27C57.12 92.4167 56.32 92.5467 55.5 92.66C53.1106 92.9782 50.6996 93.1052 48.29 93.04L44.1 97.84L41.45 100.84V92.25C39.698 91.916 37.9681 91.4752 36.27 90.93C34.265 90.2872 32.3098 89.4984 30.42 88.57C22.4512 84.6659 15.8696 78.4144 11.5609 70.6569C7.25222 62.8995 5.42319 54.0083 6.32001 45.18C6.92619 39.083 8.82505 33.1853 11.89 27.88C14.7739 22.8652 18.6269 18.4744 23.2246 14.9634C27.8223 11.4525 33.0728 8.89161 38.67 7.42999C41.1964 6.77692 43.7771 6.35518 46.38 6.17C47.66 6.07 48.89 6.03999 50.15 6.04999C51.41 6.05999 52.58 6.12999 53.75 6.24999C61.6292 6.99784 69.1522 9.8929 75.5 14.62C77.4761 16.0784 79.3199 17.708 81.01 19.49C82.31 20.84 83.1 21.83 83.45 22.26C84.5304 23.6217 85.532 25.044 86.45 26.52C85.4684 27.8985 84.8462 29.5003 84.64 31.18C84.4141 32.8682 84.6099 34.586 85.21 36.18C86.8049 40.4571 87.6211 44.9852 87.62 49.55H90C90.0089 44.7307 89.1555 39.9487 87.48 35.43C86.9196 33.9517 86.846 32.333 87.27 30.81C87.4504 30.0719 87.7759 29.377 88.2274 28.7658C88.6789 28.1546 89.2475 27.6394 89.9 27.25C90.5916 26.878 91.3647 26.6833 92.15 26.6833C92.9353 26.6833 93.7084 26.878 94.4 27.25C96.114 28.1299 97.4346 29.6219 98.1 31.43C100.268 37.2425 101.379 43.3962 101.38 49.6H103.76C103.769 43.1119 102.607 36.6754 100.33 30.6C99.5221 28.3817 98.0437 26.47 96.1 25.13C94.5487 24.0189 92.6298 23.5464 90.74 23.81C89.718 22.1779 88.5994 20.6085 87.39 19.11C82.8825 13.5063 77.1871 8.97327 70.715 5.83809C64.2428 2.7029 57.1552 1.04378 49.9639 0.980489C42.7726 0.917194 35.657 2.4513 29.1306 5.47208C22.6042 8.49285 16.8299 12.9249 12.2245 18.4484C7.61912 23.9719 4.29747 30.449 2.49936 37.4121C0.70125 44.3753 0.471527 51.6508 1.82678 58.7135C3.18203 65.7762 6.08844 72.4499 10.3362 78.253C14.584 84.056 20.0672 88.8435 26.39 92.27C29.513 93.9685 32.8171 95.3102 36.24 96.27V114.7L50.68 98.12C51.8 98.12 52.92 98.04 54.04 97.93C65.827 96.8466 76.8122 91.4945 84.93 82.88C86.01 81.73 87.04 80.53 88 79.29C88.8845 79.6303 89.8379 79.7525 90.7796 79.6463C91.7213 79.5401 92.6235 79.2087 93.41 78.68C95.41 77.47 97.65 75.03 99.46 70.83C100.523 68.3866 101.198 65.7919 101.46 63.14C101.673 60.9552 101.51 58.7501 100.98 56.62C99.95 52.92 97.89 50.83 95.67 50.79Z" fill="#EF4649"/>
<path d="M98.8 49.58C98.8122 43.9369 97.848 38.3343 95.95 33.02L93.71 33.82C95.507 38.88 96.4236 44.2104 96.42 49.58H98.8Z" fill="#EF4649"/>
<path d="M89.58 35.29C91.2106 39.8778 92.0426 44.7111 92.04 49.58H94.43C94.4315 44.4376 93.5487 39.3332 91.82 34.49L89.58 35.29Z" fill="#EF4649"/>
</svg>
