<svg width="32" height="32" viewBox="0 0 32 32" fill="none" xmlns="http://www.w3.org/2000/svg">
<path fill-rule="evenodd" clip-rule="evenodd" d="M20.4582 0.00363524C19.2603 0.0616553 18.1004 0.396199 17.1101 0.967141C16.5066 1.31464 16.3896 1.39427 16.0246 1.69918C15.6577 2.0078 15.1095 2.58924 14.9111 2.88366L14.8488 2.97376L14.7808 2.92007C14.7426 2.88983 14.6212 2.79786 14.5086 2.71639C12.9792 1.58067 10.9086 1.31464 9.12044 2.02323C8.2607 2.36209 7.48041 2.92871 6.91509 3.62188C6.78026 3.7873 6.78027 3.7873 6.52336 3.88791C4.60287 4.64958 2.91259 5.99513 1.75396 7.68884C0.757459 9.14181 0.180682 10.7639 0.0261378 12.5452C-0.0228251 13.0903 -0.000563958 14.0093 0.0725895 14.5951C0.366367 16.9813 1.55109 19.2243 3.37427 20.8489C4.17234 21.5612 4.92148 22.0612 5.87153 22.5142C7.06516 23.0827 8.22126 23.3981 9.57131 23.5228C9.88101 23.5505 9.92044 23.5592 9.95606 23.6024C10.3185 24.0382 10.9303 24.6474 11.3303 24.9714C11.6444 25.227 12.1309 25.5702 12.4266 25.7442L12.6988 25.9053L14.4908 27.6348C16.3362 29.418 16.4138 29.4846 16.7229 29.618C16.7941 29.6482 16.9353 29.6995 17.0415 29.7297C17.2139 29.7809 17.2648 29.7877 17.5851 29.7854C17.8772 29.7854 17.97 29.7791 18.1093 29.7403C18.3102 29.6864 18.5619 29.5772 18.7389 29.4655C18.8182 29.4143 19.4814 28.7915 20.5244 27.7848L22.1822 26.1843L22.5245 26.0016C23.5099 25.4757 24.4056 24.7634 25.2207 23.8555C25.5591 23.4802 26.0386 22.8235 26.2618 22.4284C26.35 22.2716 26.3546 22.2673 26.5643 22.1581C27.5105 21.6668 28.2534 21.1279 29.0247 20.3811C31.19 18.2732 32.2534 15.3697 31.9487 12.3866C31.712 10.0646 30.64 7.90117 28.9203 6.27845C28.6089 5.98465 28.2356 5.66925 27.9588 5.46741L27.8376 5.37728L27.765 5.12607C27.4952 4.18604 26.9689 3.22684 26.3151 2.48431C25.1126 1.11713 23.4796 0.262875 21.6518 0.0462246C21.3778 0.0141284 20.7298 -0.00932671 20.4582 0.00363524Z" fill="#FFE69D"/>
<path d="M20.4582 0.00363524C19.2603 0.0616553 18.1004 0.396199 17.1101 0.967141C16.5066 1.31464 16.3896 1.39427 16.0246 1.69918C15.6577 2.0078 15.1095 2.58924 14.9111 2.88366L14.8488 2.97376L14.7808 2.92007C14.7426 2.88983 14.6212 2.79786 14.5086 2.71639C12.9792 1.58067 10.9086 1.31464 9.12044 2.02323C8.2607 2.36209 7.48041 2.92871 6.91509 3.62188C6.78026 3.7873 6.78027 3.7873 6.52336 3.88791C4.60287 4.64958 2.91259 5.99513 1.75396 7.68884C0.757459 9.14181 0.180682 10.7639 0.0261378 12.5452C-0.0228251 13.0903 -0.000563958 14.0093 0.0725895 14.5951C0.366367 16.9813 1.55109 19.2243 3.37427 20.8489C4.17234 21.5612 4.92148 22.0612 5.87153 22.5142C7.06516 23.0827 8.22126 23.3981 9.57131 23.5228C9.88101 23.5505 9.92044 23.5592 9.95606 23.6024C10.3185 24.0382 10.9303 24.6474 11.3303 24.9714C11.6444 25.227 12.1309 25.5702 12.4266 25.7442L12.6988 25.9053L14.4908 27.6348C16.3362 29.418 16.4138 29.4846 16.7229 29.618C16.7941 29.6482 16.9353 29.6995 17.0415 29.7297C17.2139 29.7809 17.2648 29.7877 17.5851 29.7854C17.8772 29.7854 17.97 29.7791 18.1093 29.7403C18.3102 29.6864 18.5619 29.5772 18.7389 29.4655C18.8182 29.4143 19.4814 28.7915 20.5244 27.7848L22.1822 26.1843L22.5245 26.0016C23.5099 25.4757 24.4056 24.7634 25.2207 23.8555C25.5591 23.4802 26.0386 22.8235 26.2618 22.4284C26.35 22.2716 26.3546 22.2673 26.5643 22.1581C27.5105 21.6668 28.2534 21.1279 29.0247 20.3811C31.19 18.2732 32.2534 15.3697 31.9487 12.3866C31.712 10.0646 30.64 7.90117 28.9203 6.27845C28.6089 5.98465 28.2356 5.66925 27.9588 5.46741L27.8376 5.37728L27.765 5.12607C27.4952 4.18604 26.9689 3.22684 26.3151 2.48431C25.1126 1.11713 23.4796 0.262875 21.6518 0.0462246C21.3778 0.0141284 20.7298 -0.00932671 20.4582 0.00363524ZM21.5636 1.58746C22.5288 1.72696 23.4018 2.07261 24.1511 2.61763C25.2715 3.42869 26.0034 4.52984 26.3286 5.89268C26.4097 6.23773 26.4716 6.32166 26.8562 6.59634C27.8311 7.29812 28.6331 8.15425 29.2186 9.12019C29.3649 9.3603 29.6301 9.87571 29.7471 10.1417C30.1032 10.9614 30.3176 11.8373 30.3944 12.7921C30.4232 13.144 30.4103 13.9489 30.3702 14.2729C30.1381 16.1962 29.323 17.8701 27.9616 19.2287C27.6875 19.5009 27.2144 19.9194 27.1991 19.9021C27.1945 19.8978 27.2034 19.8058 27.2169 19.6965C27.2542 19.3725 27.1856 19.1534 26.9866 18.9731C26.8589 18.8571 26.7456 18.8016 26.5803 18.7713C26.2376 18.709 25.8858 18.8917 25.7403 19.2046C25.7116 19.2694 25.6742 19.4194 25.6518 19.5589C25.5545 20.2286 25.0572 21.4347 24.6178 22.0741C23.99 22.9864 23.2163 23.7376 22.2814 24.3425C21.2164 25.0313 20.085 25.4418 18.7343 25.6282C18.3987 25.6732 17.397 25.6924 17.0192 25.6603C15.1388 25.4955 13.4631 24.7826 12.0845 23.5574C11.2114 22.7846 10.5087 21.7198 10.2187 20.739C10.1373 20.4625 10.1125 20.3465 10.0705 20.0354C10.0311 19.7348 9.95606 19.5675 9.80087 19.4342C9.65971 19.3145 9.52488 19.2608 9.3392 19.2478C8.95004 19.22 8.61872 19.4515 8.5214 19.8187C8.4928 19.9348 8.49088 19.986 8.51249 20.1922C8.56339 20.673 8.69821 21.2051 8.88834 21.6748C8.9373 21.7933 8.97227 21.8921 8.97037 21.8939C8.96783 21.8964 8.87498 21.881 8.76686 21.8593C5.99744 21.3081 3.69477 19.5719 2.47064 17.1165C2.15457 16.4814 1.95299 15.9234 1.79845 15.2605C1.31644 13.1933 1.64139 10.9873 2.69766 9.14365C2.91703 8.76158 3.26617 8.25732 3.55297 7.90981C3.8582 7.53823 4.52592 6.89014 4.91003 6.59447C5.21272 6.35806 5.5911 6.09636 5.60635 6.11117C5.61079 6.1155 5.59998 6.25316 5.57965 6.41795C5.54912 6.66917 5.54912 6.7704 5.56884 7.02964C5.58219 7.20184 5.60889 7.39071 5.62861 7.44811C5.71 7.68884 5.92496 7.87771 6.19014 7.94438C6.53481 8.02769 6.91509 7.85425 7.07597 7.53391C7.12938 7.43146 7.1313 7.40984 7.1313 6.97595C7.13385 6.62225 7.14273 6.48708 7.17325 6.34326C7.28392 5.84082 7.54019 5.34521 7.94019 4.86253C8.01331 4.77424 8.12587 4.6329 8.19009 4.55081C8.25433 4.46749 8.4025 4.31318 8.51696 4.20763C9.54714 3.26141 10.9837 2.93736 12.3452 3.34043C12.9684 3.52497 13.598 3.90704 14.0094 4.34713L14.0997 4.44403L14.0469 4.61561C13.9185 5.02978 13.8409 5.54702 13.839 5.99946C13.839 6.87963 14.0603 7.71908 14.5328 8.63752C14.7541 9.06466 14.9728 9.22513 15.3308 9.22762C15.4765 9.22762 15.5299 9.21897 15.6361 9.17143C15.872 9.06466 16.0024 8.9227 16.0736 8.69554C16.1531 8.44619 16.1327 8.34312 15.9095 7.89252C15.5229 7.11358 15.3906 6.57039 15.4148 5.89268C15.4434 5.19273 15.6488 4.6045 16.0908 3.96752C16.6504 3.1645 17.4013 2.52751 18.2924 2.1047C18.4755 2.01891 18.7235 1.91151 18.8448 1.8683C19.2404 1.72449 19.8063 1.60228 20.2592 1.55722C20.5314 1.5313 21.2939 1.54858 21.5636 1.58746Z" fill="#C83B50"/>
<path fill-rule="evenodd" clip-rule="evenodd" d="M21.5343 14.7771C21.2914 14.8394 21.1209 14.9382 20.9313 15.1209C20.653 15.3869 20.5333 15.6702 20.5333 16.0542C20.5314 16.5115 20.7547 16.9066 21.1546 17.1572C21.353 17.2818 21.5254 17.3337 21.7887 17.3461C22.076 17.3615 22.2395 17.3312 22.4762 17.222C22.693 17.1208 22.9376 16.8998 23.0485 16.7091C23.3492 16.1893 23.2607 15.5369 22.8384 15.1252C22.5821 14.8783 22.2949 14.758 21.9278 14.7431C21.7446 14.7364 21.6626 14.7431 21.5343 14.7771Z" fill="#C83B50"/>
<path fill-rule="evenodd" clip-rule="evenodd" d="M11.6998 14.829C11.3328 14.9167 10.9793 15.1957 10.8158 15.5284C10.7096 15.745 10.6785 15.8783 10.6785 16.1147C10.6785 16.4641 10.8088 16.7708 11.0632 17.0202C11.2489 17.2023 11.4454 17.314 11.6838 17.3745C12.1551 17.4924 12.6365 17.3634 12.9792 17.0332C13.3194 16.7023 13.4498 16.2326 13.3309 15.7777C13.2686 15.5395 13.1668 15.3716 12.9773 15.1833C12.8444 15.0518 12.7738 15.0006 12.6238 14.9321C12.5195 14.8846 12.3827 14.8352 12.3185 14.8222C12.164 14.7926 11.8479 14.7945 11.6998 14.829Z" fill="#C83B50"/>
<path fill-rule="evenodd" clip-rule="evenodd" d="M13.5077 19.0001C13.5077 19.0668 13.6139 19.468 13.6864 19.6809C14.1264 20.9382 15.1274 21.8851 16.3318 22.1789C16.845 22.3035 17.4173 22.3035 17.9388 22.1789C19.0727 21.9042 20.0467 21.0308 20.5066 19.8741C20.6242 19.5822 20.7547 19.1291 20.7565 19.0088C20.7565 18.9896 20.0164 18.9835 17.1319 18.9835C15.1388 18.9835 13.5077 18.9921 13.5077 19.0001Z" fill="#C83B50"/>
<path fill-rule="evenodd" clip-rule="evenodd" d="M14.4635 30.4103C14.4665 30.4118 14.8177 30.6155 14.8206 30.617C15.1848 30.832 15.2668 31.3154 15.049 31.6729C14.8329 32.0274 14.3369 32.0872 13.9697 31.8841C13.9644 31.8829 13.6746 31.7146 13.6701 31.712C13.3005 31.4999 13.1775 31.0349 13.3962 30.676C13.6157 30.3158 14.0939 30.1979 14.4635 30.4103Z" fill="#F3909F"/>
<path fill-rule="evenodd" clip-rule="evenodd" d="M8.22572 25.781C8.22878 25.03 9.24677 24.8033 9.62678 25.3366C9.86489 25.6684 9.92438 26.2713 10.7684 27.4002C11.0721 27.8075 11.3468 28.2015 11.7772 28.5778C12.0733 28.837 12.4564 29.0844 12.9203 29.3378C13.627 29.7228 13.1951 30.9718 12.2564 30.6783C11.8718 30.5598 11.4613 30.3036 11.095 30.0134C10.6219 29.6399 10.2342 29.2355 9.86638 28.7911C9.18724 27.9704 8.22265 26.3276 8.22572 25.781Z" fill="#F3909F"/>
<path fill-rule="evenodd" clip-rule="evenodd" d="M20.593 30.4056C20.5899 30.4073 20.2387 30.6108 20.2359 30.6126C19.8719 30.8273 19.7898 31.311 20.0075 31.6685C20.2237 32.023 20.7195 32.0828 21.0869 31.8793C21.0921 31.8784 21.3821 31.7099 21.3864 31.7076C21.756 31.4952 21.8791 31.0302 21.6604 30.6715C21.4409 30.3114 20.9626 30.1935 20.593 30.4056Z" fill="#F3909F"/>
<path fill-rule="evenodd" clip-rule="evenodd" d="M26.7263 25.6683C26.7233 24.9172 25.7054 24.6906 25.3254 25.2239C25.0872 25.5557 25.0278 26.1586 24.1836 27.2874C23.8801 27.6948 23.6051 28.0888 23.1749 28.4651C22.8788 28.7243 22.4957 28.9717 22.0318 29.225C21.3251 29.6102 21.7572 30.859 22.6957 30.5658C23.0803 30.447 23.4909 30.1908 23.8572 29.9006C24.3302 29.5272 24.7179 29.1228 25.0857 28.6784C25.7648 27.8577 26.7294 26.2149 26.7263 25.6683Z" fill="#F3909F"/>
</svg>
