<svg width="32" height="32" viewBox="0 0 32 32" fill="none" xmlns="http://www.w3.org/2000/svg">
<path d="M15.7806 0.00592616C13.7292 -0.0510856 11.6871 0.303743 9.77517 1.04942C7.86321 1.7951 6.12014 2.9165 4.64898 4.34734C3.17782 5.77819 2.00843 7.48944 1.20992 9.37995C0.411421 11.2705 0 13.3019 0 15.3541C0 17.4063 0.411421 19.4377 1.20992 21.3282C2.00843 23.2187 3.17782 24.93 4.64898 26.3608C6.12014 27.7917 7.86321 28.9131 9.77517 29.6587C11.6871 30.4044 13.7292 30.7592 15.7806 30.7022C24.5036 30.7022 31.5056 24.1588 31.5056 15.4347C31.5107 13.382 31.1052 11.3491 30.313 9.45551C29.5209 7.56189 28.358 5.84582 26.8928 4.40825C25.4276 2.97068 23.6897 1.84064 21.7814 1.08461C19.8731 0.328582 17.8328 -0.0381702 15.7806 0.00592616ZM15.7806 22.5659C14.3492 22.6354 12.9298 22.274 11.706 21.5284C10.4821 20.7828 9.50998 19.6873 8.91518 18.3834C8.32039 17.0796 8.13029 15.6274 8.36943 14.2144C8.60857 12.8014 9.26598 11.4926 10.2567 10.4571C11.2474 9.42157 12.5259 8.70697 13.927 8.40563C15.328 8.10429 16.7872 8.23006 18.1161 8.76667C19.4449 9.30328 20.5823 10.2261 21.3812 11.4158C22.1802 12.6055 22.6039 14.0075 22.5978 15.4406C22.6316 16.3596 22.4807 17.276 22.1539 18.1356C21.8272 18.9951 21.3314 19.7804 20.6957 20.4449C20.06 21.1095 19.2975 21.6397 18.4532 22.0042C17.609 22.3687 16.7002 22.5601 15.7806 22.5671V22.5659Z" fill="#3EBBD2"/>
</svg>
