<svg width="32" height="32" viewBox="0 0 32 32" fill="none" xmlns="http://www.w3.org/2000/svg">
<g clip-path="url(#clip0)">
<path d="M16.1343 0.137218C16.4926 0.0180019 16.8715 0.0280411 17.2361 0.0117274C19.0832 -0.0625866 20.9267 0.232208 22.6585 0.878865C24.0571 1.3927 25.3608 2.13478 26.5167 3.07494C26.8373 3.33659 27.1523 3.60263 27.4535 3.88686C29.7687 6.099 31.2838 9.01728 31.761 12.1836C31.9009 13.1305 31.9875 14.0792 31.9348 15.0316C31.872 16.1799 31.7246 17.3206 31.3839 18.4268C31.2985 18.7022 31.2797 18.9984 31.1203 19.2506C30.9835 19.016 31.1028 18.7775 31.1279 18.5491C31.3276 16.7081 31.1749 14.846 30.678 13.0621C30.0838 10.8848 29.0002 8.97424 27.5188 7.28388C27.1536 6.86788 26.7395 6.49706 26.3523 6.10177C26.265 6.01205 26.1837 5.91668 26.1089 5.81628C24.9872 4.43898 23.6068 3.29454 22.0455 2.44749C21.8453 2.33706 21.6621 2.19275 21.4356 2.13377C21.0424 1.95222 20.654 1.76085 20.2704 1.55965C19.0726 0.932198 17.7933 0.549453 16.47 0.298472C16.3501 0.272747 16.1882 0.310394 16.1343 0.137218Z" fill="#2480CF"/>
<path d="M26.3628 6.02344C27.9314 7.44148 29.1694 9.09795 30.034 11.0349C30.6787 12.4843 31.0843 14.0286 31.2349 15.6078C31.3479 16.7478 31.3974 17.839 31.1998 18.9759C31.1723 19.1784 31.1242 19.3775 31.0561 19.5701C30.3088 21.6551 29.1041 23.4434 27.5342 24.995C27.4347 25.0546 27.3443 25.1281 27.2657 25.2134C26.7185 25.7838 26.0585 26.2136 25.436 26.691C23.9816 27.6234 22.4243 28.3005 20.7245 28.6481C20.6222 28.6688 20.5206 28.6995 20.4202 28.6424C20.3537 28.4272 20.5501 28.4379 20.6517 28.3965C21.8098 27.9149 22.898 27.2804 23.8875 26.5097C25.4762 25.2925 26.7204 23.7816 27.6842 22.0322C27.9138 21.6156 28.0425 21.1663 28.1447 20.707C28.1717 20.5853 28.1811 20.4561 28.2746 20.3601C28.3223 20.3067 28.3932 20.2741 28.4202 20.2076C28.3192 19.6259 28.7176 19.1936 28.8462 18.5053C28.8531 18.2612 28.882 17.844 29.1832 17.5384C29.2102 17.3784 29.0884 17.3012 29.079 17.1858C29.0696 17.0703 29.1537 16.9976 29.1857 16.8978C29.2058 16.8012 29.1129 16.7221 29.1418 16.638C29.1568 16.4912 29.2974 16.4272 29.3244 16.2678C29.1669 16.052 29.2334 15.8587 29.3476 15.5889C29.4969 15.235 29.522 14.7983 29.2924 14.4194C29.2547 14.3566 29.2058 14.302 29.2033 14.2242C29.1913 14.0881 29.3287 14.0078 29.3331 13.8779C29.3394 13.7254 29.1813 13.6583 29.1493 13.5246C29.1154 13.4274 29.1763 13.3427 29.1932 13.2347C28.9278 12.8683 29.1035 12.382 28.8977 12.0426C28.8638 11.8769 28.9686 11.7979 28.9604 11.6661C28.7985 11.4948 28.8651 11.1943 28.6567 11.0512C28.6279 10.9634 28.6324 10.868 28.6693 10.7833C28.7352 10.5806 28.6856 10.4068 28.5118 10.2863C28.338 10.1659 28.284 10.0222 28.3167 9.89607C27.9879 9.21654 27.5556 8.65183 27.3949 7.98108C27.1691 7.47912 26.6602 7.1654 26.5793 6.59191C26.1896 6.33716 26.1645 6.26689 26.3628 6.02344Z" fill="#0235A0"/>
<path d="M18.6495 31.3725C17.9669 31.6235 17.2616 31.7684 16.5444 31.8745C15.8309 31.9918 15.1092 32.0531 14.386 32.0577C13.3236 32.0469 12.2657 31.9194 11.2312 31.6774C10.1325 31.4222 9.07095 31.0273 8.0726 30.5022C7.07291 29.9735 6.13624 29.3334 5.28044 28.5941C4.30281 27.7617 3.44995 26.7931 2.74805 25.7179C1.72656 24.1531 0.984284 22.4627 0.627265 20.608C0.43903 19.6222 0.302245 18.6353 0.334245 17.6313C0.501775 17.6822 0.484833 17.8422 0.514324 17.9626C0.99405 19.9038 1.87273 21.7237 3.0944 23.3066C4.11894 24.6424 5.37391 25.7843 6.80013 26.6785C6.94087 26.755 7.06416 26.8599 7.16217 26.9866C7.78962 27.6818 8.51056 28.2647 9.26852 28.8062C11.2726 30.2312 13.512 31.0356 15.9534 31.2759C16.7115 31.3479 17.4743 31.3544 18.2335 31.2953C18.3735 31.2809 18.5291 31.2552 18.6495 31.3725Z" fill="#3397DA"/>
<path d="M0.317295 17.3245C0.167961 16.8539 0.145373 16.362 0.0757262 15.8814C-0.0152542 15.2539 -0.00709733 14.6146 0.0129811 13.9808C0.0749972 11.7329 0.659244 9.53017 1.7195 7.54697C2.77977 5.56377 4.28695 3.85449 6.12184 2.55434C7.63149 1.47198 9.29612 0.758573 11.0894 0.335043C11.7428 0.19186 12.4056 0.0958219 13.0727 0.0476707C13.6216 -0.00118454 14.1732 -0.012505 14.7236 0.0137883C15.0662 0.0307295 15.4257 -1.56029e-05 15.7589 0.139279C15.7156 0.301788 15.5662 0.271671 15.4552 0.294886C14.7869 0.434808 14.1112 0.548377 13.4756 0.815671C13.2949 0.902886 13.0991 0.925475 12.9046 0.959984C11.451 1.21388 10.0509 1.71177 8.76341 2.43261C6.57666 3.64315 4.74785 5.40898 3.46145 7.55198C2.84278 8.57347 2.33957 9.65018 2.01831 10.8059C1.96255 10.9923 1.89162 11.1739 1.80624 11.3487C1.06208 12.9713 0.586471 14.6616 0.457844 16.4492C0.43902 16.7385 0.486079 17.0528 0.317295 17.3245Z" fill="#3397DA"/>
<path d="M18.6494 31.3724C18.1938 31.4155 17.736 31.4312 17.2785 31.4195C16.1986 31.4013 15.1238 31.3022 14.0672 31.0499C11.7221 30.5056 9.56069 29.3562 7.79831 27.7163C7.54733 27.4854 7.24866 27.304 7.0918 26.984C7.21729 26.8855 7.30576 26.9934 7.4005 27.0411C7.57619 27.1302 7.75292 27.2177 7.9307 27.3034C8.36113 27.5274 8.79533 27.7426 9.2358 27.9509C10.7654 28.7338 12.4337 29.2092 14.1462 29.3502C16.097 29.5208 18.0025 29.32 19.856 28.6813C20.033 28.6323 20.2018 28.5125 20.3981 28.6091C21.1222 28.5144 21.8156 28.3011 22.4995 28.0576C23.5316 27.6912 24.4973 27.1854 25.4284 26.6113C25.4962 26.7481 25.3876 26.8253 25.3192 26.91C24.1731 28.3372 22.7539 29.5217 21.1448 30.3942C20.6328 30.6747 20.1171 30.9476 19.5618 31.1378C19.4243 31.1848 19.3108 31.2005 19.147 31.252C18.985 31.3064 18.8185 31.3467 18.6494 31.3724Z" fill="#0A5ABB"/>
<path d="M19.147 31.2521C19.7675 30.9648 20.4019 30.7138 21.0067 30.385C21.9648 29.8594 22.8625 29.2307 23.6841 28.5102C24.2758 27.9938 25.4171 26.7012 25.4303 26.6121C26.2604 26.0606 27.4118 25.0385 27.4846 24.9594C28.2325 24.1375 28.9804 23.3168 29.5727 22.3674C30.0803 21.5517 30.965 19.8407 31.056 19.5684C31.0742 20.0496 30.9035 20.4976 30.7831 20.9488C30.3908 22.4081 29.7607 23.7928 28.9183 25.0473C28.2271 26.0912 27.4025 27.0403 26.4656 27.8708C25.5567 28.6761 24.5508 29.365 23.4714 29.9213C22.3864 30.4803 21.2283 30.8843 20.0311 31.1216C19.738 31.18 19.4507 31.2471 19.147 31.2521Z" fill="#3397DA"/>
<path d="M0.317383 17.3246C0.36242 15.2841 0.825169 13.2744 1.67707 11.4197C1.70248 11.3753 1.73188 11.3333 1.76491 11.2942C1.87221 11.4197 1.80256 11.5558 1.77119 11.682C1.40162 13.1778 1.31064 14.7044 1.42797 16.2272C1.66578 19.3155 2.78766 22.0625 4.7817 24.4468C5.17422 24.9075 5.59323 25.3449 6.0366 25.7569C6.2606 25.9012 6.38672 26.1372 6.56366 26.326C6.61574 26.4729 6.81903 26.54 6.78076 26.7351C6.20099 26.444 5.70342 26.0305 5.20774 25.6189C2.78454 23.5885 1.09054 20.8225 0.383265 17.7412C0.370642 17.7031 0.354247 17.6663 0.334324 17.6314L0.317383 17.3246Z" fill="#0A5ABB"/>
<path d="M13.4321 0.75291C14.1173 0.442322 14.8533 0.323733 15.5849 0.188204C15.6477 0.17691 15.7104 0.184439 15.7587 0.135498H16.1352C16.8304 0.290478 17.5344 0.410322 18.2146 0.628675C18.9443 0.862714 19.6659 1.11683 20.3285 1.51213C20.1584 1.61942 20.0041 1.5184 19.8522 1.46695C18.3469 0.966825 16.7701 0.715682 15.184 0.72342C14.7573 0.72342 14.3332 0.786165 13.9084 0.821302C13.7408 0.835733 13.5733 0.88342 13.4321 0.75291Z" fill="#0A5ABB"/>
<path d="M13.432 0.752871C14.0105 0.712714 14.5896 0.641184 15.1687 0.63742C16.8015 0.616168 18.4254 0.879885 19.9675 1.41671C20.0848 1.4575 20.2072 1.48322 20.327 1.51648L21.4652 2.07052C22.4691 2.61515 23.3425 3.33295 24.1281 4.15742C24.2059 4.23836 24.4067 4.31805 24.2266 4.48997C24.1011 4.49624 24.0083 4.42722 23.9085 4.37075C22.173 3.3896 20.2393 2.81065 18.2502 2.67664C16.4556 2.55805 14.6806 2.72307 12.9639 3.31224C12.8334 3.34675 12.7016 3.37499 12.5686 3.40009C11.298 3.55946 10.0864 3.92464 8.90929 4.42346C8.32137 4.67444 7.7711 4.98817 7.2227 5.30879C7.11667 5.37154 7.01753 5.4575 6.87886 5.4255C6.76529 5.2862 6.88765 5.18958 6.95667 5.10675C7.89784 3.97734 8.97016 2.9866 10.2113 2.19099C11.0476 1.65515 11.9054 1.16385 12.8723 0.887145L13.432 0.752871Z" fill="#0235A0"/>
<path d="M26.3627 6.02355C26.256 6.34982 26.2937 6.40002 26.7015 6.50417C26.6595 6.87437 27.216 7.75908 27.5329 7.86449C27.4564 8.43735 27.8598 8.79813 28.1146 9.30763C28.1146 9.31264 28.1227 9.40551 28.129 9.48331C28.1993 9.61361 28.3185 9.71065 28.4603 9.75312L28.375 10.0041C28.4038 10.181 28.5519 10.2093 28.6818 10.2808L28.8211 10.6767L28.6874 10.9403C28.7138 11.0952 28.8267 11.1605 28.9522 11.1912C29.015 11.3048 28.8763 11.345 28.9001 11.4679C28.9227 11.5483 29.0808 11.5671 29.0884 11.6562C29.121 11.8212 28.9629 11.8193 28.9472 11.9178C28.9353 12.0854 29.0658 12.2014 29.1128 12.3771C28.971 12.5766 29.2145 12.7868 29.1072 13.0422L29.3475 13.2166C29.3255 13.3365 29.1819 13.3497 29.1856 13.3823C29.2044 13.6094 29.3462 13.6508 29.4134 13.7299C29.4761 13.9307 29.4178 14.0737 29.2666 14.1428C29.2352 14.3542 29.4065 14.3937 29.4887 14.5086V15.6223C29.4052 15.7434 29.2076 15.7961 29.2691 16.0383C29.3061 16.1255 29.5075 16.1839 29.4241 16.3721C29.3688 16.48 29.2132 16.5095 29.195 16.6513C29.1762 16.7686 29.3011 16.7937 29.3444 16.8803C29.3036 16.9964 29.131 17.019 29.1317 17.1658C29.1216 17.2913 29.2779 17.3064 29.2873 17.3434C29.35 17.6508 29.1047 17.7079 29.0037 17.8792C29.072 18.0926 28.9604 18.2852 28.8851 18.4477C28.8681 18.5989 29.0074 18.614 29.0313 18.7144C28.9478 18.7985 28.7941 18.8047 28.7665 18.9246C28.7263 19.0375 28.8117 19.0959 28.8342 19.1755C28.5462 19.3556 28.5751 19.6863 28.4433 19.9435L28.5557 20.2523C28.4929 20.3589 28.38 20.3445 28.3047 20.3997C28.1861 20.2742 28.235 20.1249 28.2557 19.9831C28.3653 19.2933 28.4322 18.5974 28.4559 17.8993C28.4676 16.8776 28.377 15.8573 28.1855 14.8537C28.1652 14.7664 28.1549 14.6772 28.1547 14.5876C28.1397 11.0112 27.0309 7.83249 24.7439 5.07359C24.6655 4.97884 24.5556 4.89853 24.5713 4.75421C24.7131 4.60676 24.8154 4.75421 24.9158 4.81319C25.3695 5.08643 25.7891 5.4127 26.1657 5.78512L26.3627 6.02355Z" fill="#0235A0"/>
<path d="M26.1679 5.77768C25.7363 5.47399 25.3046 5.16905 24.871 4.86725C24.7863 4.80827 24.6934 4.76058 24.6037 4.70787C24.4217 4.72042 24.3527 4.59493 24.29 4.45689C23.7058 3.77297 23.0232 3.19823 22.2972 2.6718C22.0211 2.47101 21.7432 2.27336 21.4658 2.07446C22.2119 2.38442 22.8738 2.82364 23.5295 3.28607C24.3153 3.85005 25.0415 4.49275 25.6967 5.20419C25.8624 5.38552 26.0104 5.58442 26.1679 5.77768Z" fill="#0A5ABB"/>
<path d="M28.2455 14.8079C28.4055 15.2709 28.4457 15.7584 28.482 16.2372C28.5216 16.7542 28.5868 17.2719 28.5605 17.7945C28.5313 18.5812 28.4508 19.365 28.3195 20.1412C28.3096 20.2245 28.3054 20.3083 28.307 20.3922C28.1526 20.9839 28.0366 21.5843 27.7253 22.1277C27.1907 23.067 26.5646 23.9512 25.8562 24.7674C24.5473 26.2651 22.9699 27.3883 21.1904 28.2516C20.93 28.3771 20.6345 28.4267 20.4005 28.6105L19.8985 28.736C18.7427 29.0359 17.5719 28.997 16.3986 28.8853C16.3362 28.8812 16.2759 28.8611 16.2235 28.827C16.1445 28.5873 16.3528 28.608 16.4682 28.5842C16.9074 28.4938 17.3467 28.4085 17.7821 28.2868C20.0809 27.6525 22.1763 26.434 23.8646 24.7498C26.1831 22.4546 27.5239 19.6737 28.0184 16.4675C28.0899 16.0025 28.0905 15.5313 28.1602 15.0664C28.1727 14.9741 28.1633 14.8756 28.2455 14.8079Z" fill="#001F89"/>
<path d="M6.78321 26.7344C6.73364 26.5851 6.5385 26.5317 6.53223 26.3535C6.61756 26.2858 6.69034 26.3328 6.7556 26.3843C7.09881 26.6516 7.44579 26.9132 7.80595 27.1573C7.87246 27.2018 7.94587 27.2545 7.91387 27.3574C7.61081 27.2947 7.3843 27.0676 7.09128 26.9854L6.78321 26.7344Z" fill="#0236A1"/>
<path d="M6.03499 25.8471C5.06934 25.0208 4.27812 24.0426 3.59608 22.9784C2.53883 21.325 1.82625 19.4751 1.50103 17.5397C1.28644 16.3074 1.28957 15.0713 1.34291 13.8377C1.38055 12.9806 1.57318 12.1336 1.76518 11.2934L1.95342 10.7915C2.39263 9.75993 3.05585 8.87585 3.77303 8.03444C4.50646 7.16295 5.35014 6.39056 6.28283 5.73671C6.37695 5.67397 6.46667 5.54158 6.60973 5.65828C6.61914 5.87852 6.46103 6.01969 6.35122 6.17844C5.14652 7.9215 4.38228 9.84275 4.01397 11.9259C3.97193 12.1191 3.95938 12.3193 3.88848 12.5063C3.51707 13.6926 3.29141 14.9197 3.21648 16.1606C3.11106 17.7543 3.2993 19.3085 3.7084 20.8388C4.1575 22.4982 4.89905 24.0642 5.8982 25.4631C5.97663 25.5736 6.11969 25.674 6.03499 25.8471Z" fill="#0235A0"/>
<path d="M6.59647 5.64705C6.11145 5.89364 5.70549 6.25129 5.3033 6.60517C4.16795 7.59937 3.19068 8.76072 2.4051 10.0492C2.25451 10.2971 2.16792 10.5845 1.95459 10.7934C2.07067 10.1948 2.31914 9.6414 2.56259 9.08987C3.40917 7.17097 4.67021 5.46337 6.25514 4.08972C8.04091 2.51451 10.2055 1.4306 12.5365 0.944305C12.6476 0.920462 12.7605 0.906031 12.8729 0.887207C12.4405 1.08987 12.0045 1.28564 11.5759 1.49709C9.99663 2.27701 8.64071 3.35434 7.4542 4.64627C7.23898 4.88031 6.99679 5.10368 6.84996 5.39921C6.86188 5.57929 6.74455 5.62823 6.59647 5.64705Z" fill="#0A5ABB"/>
<path d="M6.03447 25.8473C5.72765 25.3673 5.40263 24.8967 5.11714 24.4041C4.23001 22.894 3.62293 21.236 3.32514 19.51C3.16827 18.5852 3.06663 17.6559 3.09235 16.7223C3.13 15.3419 3.32451 13.974 3.75494 12.6507C3.77742 12.594 3.80405 12.5391 3.83463 12.4863C3.99275 12.7894 3.86663 13.1044 3.83839 13.4018C3.72608 14.5764 3.81455 15.7384 4.01031 16.8923C4.47275 19.6161 5.60969 22.0336 7.45126 24.0898C9.56639 26.4521 12.1866 27.9605 15.3182 28.5528C15.4801 28.5836 15.7142 28.5328 15.7625 28.7944C15.4701 28.9707 15.135 28.9318 14.8213 28.9456C13.183 29.0184 11.5724 28.8352 10.0056 28.3282C9.71824 28.2353 9.45282 28.0873 9.16733 27.9875C8.73144 27.8156 8.31152 27.6056 7.91243 27.3601C7.46255 27.0106 7.01392 26.6598 6.53204 26.3561C6.3162 26.235 6.2478 25.9696 6.03447 25.8473Z" fill="#001F89"/>
<path d="M9.16797 27.9844C9.86946 28.1657 10.5484 28.4198 11.2611 28.5666C12.4599 28.8176 13.6862 28.9114 14.9091 28.8459C15.1871 28.8302 15.4889 28.8685 15.7581 28.7367C15.8176 28.6809 15.8961 28.6499 15.9777 28.6499C16.0593 28.6499 16.1378 28.6809 16.1973 28.7367C16.4546 28.8785 16.7488 28.8252 17.013 28.8402C17.621 28.8747 18.2353 28.9086 18.847 28.8132C19.1934 28.7599 19.5479 28.7599 19.8993 28.7361C19.2279 29.0297 18.5132 29.1596 17.8011 29.3008C16.698 29.5216 15.5793 29.5461 14.4687 29.4746C12.6566 29.3579 10.9167 28.9136 9.2922 28.0741C9.24845 28.0476 9.20691 28.0176 9.16797 27.9844V27.9844Z" fill="#0235A0"/>
<path d="M16.1962 28.7373H15.757C15.1032 28.5729 14.4393 28.4625 13.7899 28.2617C10.7149 27.3117 8.05429 25.3445 6.24482 22.683C5.0912 20.9879 4.31 19.0675 3.95274 17.0485C3.76378 16.0036 3.68387 14.9419 3.71431 13.8805C3.72874 13.4143 3.79211 12.95 3.83352 12.4844C3.88058 12.2962 3.8649 12.0966 3.95901 11.9197C4.30725 10.7144 4.91086 9.63328 5.61925 8.61241C7.00542 6.59891 8.88348 4.97335 11.0749 3.89022C11.5493 3.65304 12.0349 3.43782 12.5582 3.32551L12.9347 3.26277C13.8596 3.02998 14.7945 3.10339 15.7294 3.17367C17.1159 3.28419 18.4757 3.61723 19.7563 4.16002C21.4189 4.85061 22.9339 5.85313 24.2194 7.11343C26.1325 8.97508 27.4031 11.2019 28.1215 13.76C28.1956 14.0236 28.1673 14.2971 28.2414 14.5575C28.2414 14.6403 28.2414 14.7238 28.2414 14.8085C28.1378 17.4839 27.4106 19.9674 25.9869 22.2463C25.2839 23.3695 24.4275 24.3891 23.4426 25.2756C22.135 26.4618 20.6115 27.3854 18.9551 27.9963C18.1088 28.315 17.2317 28.5452 16.338 28.6833C16.2889 28.696 16.2413 28.7141 16.1962 28.7373V28.7373Z" fill="#001276"/>
<path d="M28.2424 14.5569C28.073 13.905 27.9061 13.2531 27.6727 12.6206C27.0697 10.9836 26.2264 9.489 25.0857 8.15943C24.0391 6.92541 22.7915 5.87704 21.3957 5.05857C19.9699 4.23376 18.4101 3.66626 16.7877 3.38202C15.6921 3.18437 14.5916 3.19378 13.4885 3.20382C13.3034 3.20382 13.1234 3.29041 12.9326 3.26029C13.6228 2.95033 14.3607 2.83425 15.0936 2.70688C15.935 2.56006 16.7877 2.55755 17.6441 2.57072C19.2517 2.59519 20.7921 2.93151 22.2873 3.5119C22.9775 3.77982 23.62 4.145 24.2882 4.45684L24.602 4.70782C24.8297 5.11755 25.1704 5.44257 25.4421 5.82029C26.7529 7.6399 27.6175 9.64774 27.9977 11.8626C28.1606 12.7515 28.2425 13.6533 28.2424 14.5569V14.5569Z" fill="#001F89"/>
<path d="M12.5579 3.32538C12.1971 3.4835 11.8382 3.64413 11.4768 3.79974C10.331 4.29229 9.29573 4.96617 8.3395 5.75864C6.62513 7.17971 5.26078 8.97624 4.35205 11.0091C4.21589 11.3103 4.13683 11.6366 3.95801 11.919C4.01385 11.3047 4.18075 10.7149 4.35895 10.1288C4.81899 8.62076 5.51968 7.19692 6.43393 5.91236C6.49667 5.82766 6.54185 5.7348 6.59581 5.6457L6.84679 5.39472C7.19064 5.28993 7.46797 5.05903 7.77667 4.88836C9.12811 4.14025 10.5984 3.63083 12.123 3.38248C12.2699 3.35989 12.4085 3.30844 12.5579 3.32538Z" fill="#001F89"/>
<path d="M16.1343 0.137218C16.4926 0.0180019 16.8715 0.0280411 17.2361 0.0117274C19.0832 -0.0625866 20.9267 0.232208 22.6585 0.878865C24.0571 1.3927 25.3608 2.13478 26.5167 3.07494C26.8373 3.33659 27.1523 3.60263 27.4535 3.88686C29.7687 6.099 31.2838 9.01728 31.761 12.1836C31.9009 13.1305 31.9875 14.0792 31.9348 15.0316C31.872 16.1799 31.7246 17.3206 31.3839 18.4268C31.2985 18.7022 31.2797 18.9984 31.1203 19.2506C30.9835 19.016 31.1028 18.7775 31.1279 18.5491C31.3276 16.7081 31.1749 14.846 30.678 13.0621C30.0838 10.8848 29.0002 8.97424 27.5188 7.28388C27.1536 6.86788 26.7395 6.49706 26.3523 6.10177C26.265 6.01205 26.1837 5.91668 26.1089 5.81628C24.9872 4.43898 23.6068 3.29454 22.0455 2.44749C21.8453 2.33706 21.6621 2.19275 21.4356 2.13377C21.0424 1.95222 20.654 1.76085 20.2704 1.55965C19.0726 0.932198 17.7933 0.549453 16.47 0.298472C16.3501 0.272747 16.1882 0.310394 16.1343 0.137218Z" fill="#2480CF"/>
<path d="M26.3628 6.02344C27.9314 7.44148 29.1694 9.09795 30.034 11.0349C30.6787 12.4843 31.0843 14.0286 31.2349 15.6078C31.3479 16.7478 31.3974 17.839 31.1998 18.9759C31.1723 19.1784 31.1242 19.3775 31.0561 19.5701C30.3088 21.6551 29.1041 23.4434 27.5342 24.995C27.4347 25.0546 27.3443 25.1281 27.2657 25.2134C26.7185 25.7838 26.0585 26.2136 25.436 26.691C23.9816 27.6234 22.4243 28.3005 20.7245 28.6481C20.6222 28.6688 20.5206 28.6995 20.4202 28.6424C20.3537 28.4272 20.5501 28.4379 20.6517 28.3965C21.8098 27.9149 22.898 27.2804 23.8875 26.5097C25.4762 25.2925 26.7204 23.7816 27.6842 22.0322C27.9138 21.6156 28.0425 21.1663 28.1447 20.707C28.1717 20.5853 28.1811 20.4561 28.2746 20.3601C28.3223 20.3067 28.3932 20.2741 28.4202 20.2076C28.3192 19.6259 28.7176 19.1936 28.8462 18.5053C28.8531 18.2612 28.882 17.844 29.1832 17.5384C29.2102 17.3784 29.0884 17.3012 29.079 17.1858C29.0696 17.0703 29.1537 16.9976 29.1857 16.8978C29.2058 16.8012 29.1129 16.7221 29.1418 16.638C29.1568 16.4912 29.2974 16.4272 29.3244 16.2678C29.1669 16.052 29.2334 15.8587 29.3476 15.5889C29.4969 15.235 29.522 14.7983 29.2924 14.4194C29.2547 14.3566 29.2058 14.302 29.2033 14.2242C29.1913 14.0881 29.3287 14.0078 29.3331 13.8779C29.3394 13.7254 29.1813 13.6583 29.1493 13.5246C29.1154 13.4274 29.1763 13.3427 29.1932 13.2347C28.9278 12.8683 29.1035 12.382 28.8977 12.0426C28.8638 11.8769 28.9686 11.7979 28.9604 11.6661C28.7985 11.4948 28.8651 11.1943 28.6567 11.0512C28.6279 10.9634 28.6324 10.868 28.6693 10.7833C28.7352 10.5806 28.6856 10.4068 28.5118 10.2863C28.338 10.1659 28.284 10.0222 28.3167 9.89607C27.9879 9.21654 27.5556 8.65183 27.3949 7.98108C27.1691 7.47912 26.6602 7.1654 26.5793 6.59191C26.1896 6.33716 26.1645 6.26689 26.3628 6.02344Z" fill="#0235A0"/>
<path d="M0.317295 17.3245C0.167961 16.8539 0.145373 16.362 0.0757262 15.8814C-0.0152542 15.2539 -0.00709733 14.6146 0.0129811 13.9808C0.0749972 11.7329 0.659244 9.53017 1.7195 7.54697C2.77977 5.56377 4.28695 3.85449 6.12184 2.55434C7.63149 1.47198 9.29612 0.758573 11.0894 0.335043C11.7428 0.19186 12.4056 0.0958219 13.0727 0.0476707C13.6216 -0.00118454 14.1732 -0.012505 14.7236 0.0137883C15.0662 0.0307295 15.4257 -1.56029e-05 15.7589 0.139279C15.7156 0.301788 15.5662 0.271671 15.4552 0.294886C14.7869 0.434808 14.1112 0.548377 13.4756 0.815671C13.2949 0.902886 13.0991 0.925475 12.9046 0.959984C11.451 1.21388 10.0509 1.71177 8.76341 2.43261C6.57666 3.64315 4.74785 5.40898 3.46145 7.55198C2.84278 8.57347 2.33957 9.65018 2.01831 10.8059C1.96255 10.9923 1.89162 11.1739 1.80624 11.3487C1.06208 12.9713 0.586471 14.6616 0.457844 16.4492C0.43902 16.7385 0.486079 17.0528 0.317295 17.3245Z" fill="#3397DA"/>
<path d="M13.4321 0.75291C14.1173 0.442322 14.8533 0.323733 15.5849 0.188204C15.6477 0.17691 15.7104 0.184439 15.7587 0.135498H16.1352C16.8304 0.290478 17.5344 0.410322 18.2146 0.628675C18.9443 0.862714 19.6659 1.11683 20.3285 1.51213C20.1584 1.61942 20.0041 1.5184 19.8522 1.46695C18.3469 0.966825 16.7701 0.715682 15.184 0.72342C14.7573 0.72342 14.3332 0.786165 13.9084 0.821302C13.7408 0.835733 13.5733 0.88342 13.4321 0.75291Z" fill="#0A5ABB"/>
<path d="M13.432 0.752871C14.0105 0.712714 14.5896 0.641184 15.1687 0.63742C16.8015 0.616168 18.4254 0.879885 19.9675 1.41671C20.0848 1.4575 20.2072 1.48322 20.327 1.51648L21.4652 2.07052C22.4691 2.61515 23.3425 3.33295 24.1281 4.15742C24.2059 4.23836 24.4067 4.31805 24.2266 4.48997C24.1011 4.49624 24.0083 4.42722 23.9085 4.37075C22.173 3.3896 20.2393 2.81065 18.2502 2.67664C16.4556 2.55805 14.6806 2.72307 12.9639 3.31224C12.8334 3.34675 12.7016 3.37499 12.5686 3.40009C11.298 3.55946 10.0864 3.92464 8.90929 4.42346C8.32137 4.67444 7.7711 4.98817 7.2227 5.30879C7.11667 5.37154 7.01753 5.4575 6.87886 5.4255C6.76529 5.2862 6.88765 5.18958 6.95667 5.10675C7.89784 3.97734 8.97016 2.9866 10.2113 2.19099C11.0476 1.65515 11.9054 1.16385 12.8723 0.887145L13.432 0.752871Z" fill="#0235A0"/>
<path d="M6.03499 25.8471C5.06934 25.0208 4.27812 24.0426 3.59608 22.9784C2.53883 21.325 1.82625 19.4751 1.50103 17.5397C1.28644 16.3074 1.28957 15.0713 1.34291 13.8377C1.38055 12.9806 1.57318 12.1336 1.76518 11.2934L1.95342 10.7915C2.39263 9.75993 3.05585 8.87585 3.77303 8.03444C4.50646 7.16295 5.35014 6.39056 6.28283 5.73671C6.37695 5.67397 6.46667 5.54158 6.60973 5.65828C6.61914 5.87852 6.46103 6.01969 6.35122 6.17844C5.14652 7.9215 4.38228 9.84275 4.01397 11.9259C3.97193 12.1191 3.95938 12.3193 3.88848 12.5063C3.51707 13.6926 3.29141 14.9197 3.21648 16.1606C3.11106 17.7543 3.2993 19.3085 3.7084 20.8388C4.1575 22.4982 4.89905 24.0642 5.8982 25.4631C5.97663 25.5736 6.11969 25.674 6.03499 25.8471Z" fill="#0235A0"/>
<path d="M6.59647 5.64705C6.11145 5.89364 5.70549 6.25129 5.3033 6.60517C4.16795 7.59937 3.19068 8.76072 2.4051 10.0492C2.25451 10.2971 2.16792 10.5845 1.95459 10.7934C2.07067 10.1948 2.31914 9.6414 2.56259 9.08987C3.40917 7.17097 4.67021 5.46337 6.25514 4.08972C8.04091 2.51451 10.2055 1.4306 12.5365 0.944305C12.6476 0.920462 12.7605 0.906031 12.8729 0.887207C12.4405 1.08987 12.0045 1.28564 11.5759 1.49709C9.99663 2.27701 8.64071 3.35434 7.4542 4.64627C7.23898 4.88031 6.99679 5.10368 6.84996 5.39921C6.86188 5.57929 6.74455 5.62823 6.59647 5.64705Z" fill="#0A5ABB"/>
<path d="M14.9975 28.7072H14.5582C13.9044 28.5429 13.2406 28.4324 12.5912 28.2316C9.5162 27.2817 6.85556 25.3145 5.04609 22.653C3.89247 20.9579 3.11127 19.0375 2.75401 17.0185C2.56505 15.9736 2.48514 14.9119 2.51558 13.8505C2.53001 13.3843 2.59338 12.92 2.63479 12.4544C2.68185 12.2661 2.66617 12.0666 2.76028 11.8897C3.10852 10.6843 3.71213 9.60325 4.42052 8.58238C5.80669 6.56888 7.68475 4.94332 9.8762 3.86019C10.3506 3.62301 10.8362 3.40779 11.3595 3.29548L11.736 3.23274C12.6608 2.99995 13.5957 3.07336 14.5306 3.14364C15.9172 3.25416 17.2769 3.5872 18.5576 4.12999C20.2202 4.82058 21.7351 5.8231 23.0207 7.0834C24.9338 8.94505 26.2044 11.1719 26.9228 13.73C26.9968 13.9935 26.9686 14.2671 27.0426 14.5275C27.0426 14.6103 27.0426 14.6938 27.0426 14.7785C26.9391 17.4539 26.2119 19.9374 24.7882 22.2163C24.0851 23.3395 23.2288 24.3591 22.2439 25.2456C20.9363 26.4317 19.4128 27.3554 17.7564 27.9662C16.91 28.2849 16.033 28.5152 15.1393 28.6533C15.0902 28.666 15.0426 28.6841 14.9975 28.7072V28.7072Z" fill="#001276"/>
<path d="M28.2424 14.5569C28.073 13.905 27.9061 13.2531 27.6727 12.6206C27.0697 10.9836 26.2264 9.489 25.0857 8.15943C24.0391 6.92541 22.7915 5.87704 21.3957 5.05857C19.9699 4.23376 18.4101 3.66626 16.7877 3.38202C15.6921 3.18437 14.5916 3.19378 13.4885 3.20382C13.3034 3.20382 13.1234 3.29041 12.9326 3.26029C13.6228 2.95033 14.3607 2.83425 15.0936 2.70688C15.935 2.56006 16.7877 2.55755 17.6441 2.57072C19.2517 2.59519 20.7921 2.93151 22.2873 3.5119C22.9775 3.77982 23.62 4.145 24.2882 4.45684L24.602 4.70782C24.8297 5.11755 25.1704 5.44257 25.4421 5.82029C26.7529 7.6399 27.6175 9.64774 27.9977 11.8626C28.1606 12.7515 28.2425 13.6533 28.2424 14.5569V14.5569Z" fill="#001F89"/>
<path d="M12.5579 3.32538C12.1971 3.4835 11.8382 3.64413 11.4768 3.79974C10.331 4.29229 9.29573 4.96617 8.3395 5.75864C6.62513 7.17971 5.26078 8.97624 4.35205 11.0091C4.21589 11.3103 4.13683 11.6366 3.95801 11.919C4.01385 11.3047 4.18075 10.7149 4.35895 10.1288C4.81899 8.62076 5.51968 7.19692 6.43393 5.91236C6.49667 5.82766 6.54185 5.7348 6.59581 5.6457L6.84679 5.39472C7.19064 5.28993 7.46797 5.05903 7.77667 4.88836C9.12811 4.14025 10.5984 3.63083 12.123 3.38248C12.2699 3.35989 12.4085 3.30844 12.5579 3.32538Z" fill="#001F89"/>
<path d="M11.1903 18.8486V23.2244H9.01367V12.6832H11.1815V13.4707C11.2443 13.5159 11.2781 13.4964 11.307 13.46C12.1854 12.3143 14.1393 12.3406 15.2185 13.236C16.3266 14.1552 16.6767 15.3631 16.5462 16.7416C16.4314 17.9494 15.873 18.9032 14.8151 19.5287C13.8501 20.0985 12.1842 20.1562 11.2913 18.9044C11.2794 18.8919 11.2562 18.8862 11.1903 18.8486Z" fill="#FEFEFE"/>
<path d="M17.4941 17.5737H19.694C20.0403 18.2012 20.5919 18.3838 21.1936 18.0725C21.395 17.9684 21.5249 17.8216 21.5299 17.5856C21.5349 17.3497 21.3699 17.2318 21.1836 17.1464C20.7318 16.9469 20.2424 16.8697 19.7693 16.753C19.4431 16.6838 19.1208 16.5975 18.8036 16.4945C18.1385 16.2567 17.6209 15.8545 17.5174 15.1022C17.4044 14.2796 17.7194 13.6352 18.3958 13.1571C19.0013 12.7292 19.689 12.5924 20.4105 12.5874C21.3392 12.5805 22.2195 12.7373 22.9341 13.4031C23.3696 13.8096 23.5735 14.3147 23.6068 14.9158H21.4057C21.1616 14.3273 20.4532 14.0857 19.864 14.3913C19.5396 14.5601 19.5007 14.9328 19.7906 15.1605C19.9927 15.3193 20.2374 15.3795 20.4808 15.4335C21.102 15.569 21.72 15.7083 22.323 15.921C22.9843 16.1544 23.4606 16.5384 23.5974 17.2475C23.7467 18.0211 23.507 18.6686 22.9028 19.1775C21.7238 20.1701 19.3991 20.1525 18.2301 19.148C17.752 18.7389 17.5337 18.2093 17.4941 17.5737Z" fill="#FEFEFE"/>
<path d="M14.3283 16.256C14.3283 17.3434 13.6381 18.0637 12.6555 18.006C11.8304 17.9577 11.2569 17.285 11.2048 16.305C11.1465 15.2207 11.9013 14.4226 12.9146 14.4948C13.7466 14.5569 14.3295 15.281 14.3283 16.256Z" fill="#001276"/>
</g>
<defs>
<clipPath id="clip0">
<rect width="32" height="32" fill="white"/>
</clipPath>
</defs>
</svg>
