<?xml version="1.0" encoding="UTF-8"?>
<!--Generator: Adobe Illustrator 18.1.1, SVG Export Plug-In . SVG Version: 6.00 Build 0)-->
<svg xmlns="http://www.w3.org/2000/svg" xmlns:xlink="http://www.w3.org/1999/xlink" id="Layer_1" width="512px" height="512px" x="0px" y="0px" enable-background="new 0 0 512 512" version="1.1" viewBox="0 0 512 512" xml:space="preserve"><path fill="#F5D602" d="M512,472c0,22.1-17.9,40-40,40H40c-22.1,0-40-17.9-40-40V40C0,17.9,17.9,0,40,0h432c22.1,0,40,17.9,40,40  V472z"/><path fill="#0066B2" d="M47,224.4h26.1c5.7,0,9.9,1.4,12.8,4.1c2.8,2.7,4.2,6.5,4.2,11.5c0,5.1-1.5,9.1-4.6,12  c-3.1,2.9-7.8,4.3-14.1,4.3h-8.6v18.8H47V224.4z M62.8,246h3.8c3,0,5.1-0.5,6.4-1.6c1.2-1.1,1.8-2.4,1.8-4c0-1.6-0.5-2.9-1.6-4.1  c-1.1-1.1-3.1-1.7-6-1.7h-4.5V246z"/><path fill="#0066B2" d="M92,256.8c0-5.6,1.9-10.2,5.7-13.9c3.8-3.6,8.9-5.5,15.3-5.5c7.4,0,12.9,2.1,16.7,6.4  c3,3.4,4.5,7.7,4.5,12.7c0,5.7-1.9,10.3-5.6,13.9c-3.8,3.6-8.9,5.4-15.6,5.4c-5.9,0-10.7-1.5-14.3-4.5C94.3,267.7,92,262.9,92,256.8  z M106.1,256.8c0,3.3,0.7,5.7,2,7.3c1.3,1.6,3,2.4,5,2.4c2,0,3.7-0.8,5-2.3c1.3-1.5,2-4,2-7.4c0-3.2-0.7-5.6-2-7.1  c-1.3-1.6-2.9-2.3-4.9-2.3c-2.1,0-3.8,0.8-5.1,2.4C106.8,251.2,106.1,253.6,106.1,256.8z"/><path fill="#0066B2" d="M136.8,264.9l14-1.3c0.6,1.7,1.4,2.9,2.4,3.6c1,0.7,2.4,1.1,4.2,1.1c1.9,0,3.4-0.4,4.4-1.2  c0.8-0.6,1.2-1.3,1.2-2.2c0-1-0.5-1.8-1.6-2.4c-0.8-0.4-2.8-0.9-6.1-1.5c-4.9-0.9-8.3-1.6-10.2-2.4c-1.9-0.7-3.5-2-4.8-3.7  c-1.3-1.7-2-3.7-2-5.9c0-2.4,0.7-4.5,2.1-6.3c1.4-1.8,3.3-3.1,5.8-3.9s5.8-1.3,9.9-1.3c4.4,0,7.6,0.3,9.7,1c2.1,0.7,3.8,1.7,5.2,3.1  c1.4,1.4,2.6,3.3,3.5,5.7l-13.4,1.3c-0.3-1.2-0.9-2-1.7-2.6c-1.1-0.7-2.4-1.1-4-1.1c-1.6,0-2.8,0.3-3.5,0.8s-1.1,1.3-1.1,2.1  c0,0.9,0.5,1.6,1.4,2c0.9,0.5,2.9,0.9,6,1.2c4.7,0.5,8.2,1.3,10.5,2.2c2.3,0.9,4,2.3,5.2,4s1.8,3.7,1.8,5.8c0,2.1-0.6,4.2-1.9,6.2  s-3.3,3.6-6.1,4.8c-2.8,1.2-6.5,1.8-11.3,1.8c-6.7,0-11.5-1-14.4-2.9S137.6,268.4,136.8,264.9z"/><path fill="#0066B2" d="M197.8,224.4v14h7.8v10.3h-7.8v13c0,1.6,0.1,2.6,0.5,3.1c0.5,0.8,1.3,1.2,2.4,1.2c1,0,2.5-0.3,4.4-0.9l1,9.7  c-3.5,0.8-6.7,1.1-9.8,1.1c-3.5,0-6.1-0.4-7.8-1.3s-2.9-2.3-3.7-4.1c-0.8-1.8-1.2-4.8-1.2-8.9v-12.9h-5.2v-10.3h5.2v-6.8  L197.8,224.4z"/><path fill="#0066B2" d="M251.3,260.2h-28.3c0.3,2.3,0.9,3.9,1.8,5.1c1.4,1.6,3.1,2.4,5.3,2.4c1.4,0,2.7-0.3,3.9-1  c0.8-0.4,1.6-1.2,2.5-2.3l13.9,1.3c-2.1,3.7-4.7,6.3-7.7,7.9c-3,1.6-7.3,2.4-12.9,2.4c-4.9,0-8.7-0.7-11.5-2.1  c-2.8-1.4-5.1-3.6-6.9-6.5c-1.8-3-2.8-6.5-2.8-10.5c0-5.7,1.8-10.4,5.5-14c3.7-3.6,8.8-5.3,15.3-5.3c5.3,0,9.4,0.8,12.5,2.4  c3,1.6,5.4,3.9,7,6.9s2.4,7,2.4,11.8V260.2z M237,253.5c-0.3-2.7-1-4.7-2.2-5.9c-1.2-1.2-2.8-1.8-4.7-1.8c-2.2,0-4,0.9-5.4,2.7  c-0.9,1.1-1.4,2.8-1.6,5H237z"/><path fill="#0066B2" d="M259.1,233.8V227h6v6.9H259.1z M259.1,275.6v-35.3h6v35.3H259.1z"/><path fill="#0066B2" d="M287.3,270.3l0.9,5.3c-1.7,0.4-3.2,0.5-4.5,0.5c-2.2,0-3.9-0.3-5-1s-2-1.6-2.5-2.7c-0.5-1.1-0.7-3.5-0.7-7.1  V245h-4.4v-4.6h4.4v-8.7l5.9-3.6v12.3h6v4.6h-6v20.6c0,1.7,0.1,2.8,0.3,3.3c0.2,0.5,0.6,0.9,1,1.2c0.5,0.3,1.2,0.4,2,0.4  C285.3,270.5,286.2,270.5,287.3,270.3z"/><path fill="#0066B2" d="M316.1,271.3c-2.2,1.9-4.3,3.2-6.4,4c-2,0.8-4.2,1.2-6.6,1.2c-3.9,0-6.9-0.9-8.9-2.8  c-2.1-1.9-3.1-4.3-3.1-7.3c0-1.7,0.4-3.3,1.2-4.7c0.8-1.4,1.8-2.6,3.1-3.4c1.3-0.9,2.7-1.5,4.3-2c1.2-0.3,2.9-0.6,5.3-0.9  c4.8-0.6,8.4-1.3,10.7-2.1c0-0.8,0-1.3,0-1.6c0-2.4-0.6-4.2-1.7-5.1c-1.5-1.3-3.8-2-6.8-2c-2.8,0-4.9,0.5-6.2,1.5  c-1.3,1-2.3,2.7-3,5.2l-5.8-0.8c0.5-2.5,1.4-4.5,2.6-6.1c1.2-1.5,3-2.7,5.3-3.6c2.3-0.8,5-1.2,8-1.2c3,0,5.5,0.4,7.3,1.1  c1.9,0.7,3.3,1.6,4.2,2.7c0.9,1.1,1.5,2.4,1.9,4.1c0.2,1,0.3,2.9,0.3,5.5v8c0,5.6,0.1,9.1,0.4,10.5c0.3,1.5,0.8,2.9,1.5,4.2h-6.2  C316.7,274.4,316.3,273,316.1,271.3z M315.6,258c-2.2,0.9-5.4,1.6-9.8,2.3c-2.5,0.4-4.2,0.8-5.2,1.2c-1,0.4-1.8,1.1-2.4,1.9  c-0.6,0.9-0.8,1.8-0.8,2.8c0,1.6,0.6,2.9,1.8,4c1.2,1.1,3,1.6,5.3,1.6c2.3,0,4.3-0.5,6.1-1.5c1.8-1,3.1-2.4,4-4.1c0.6-1.3,1-3.3,1-6  V258z"/><path fill="#0066B2" d="M330.8,275.6V227h6v48.7H330.8z"/><path fill="#0066B2" d="M346.1,233.8V227h6v6.9H346.1z M346.1,275.6v-35.3h6v35.3H346.1z"/><path fill="#0066B2" d="M384.2,271.3c-2.2,1.9-4.3,3.2-6.4,4c-2,0.8-4.2,1.2-6.6,1.2c-3.9,0-6.9-0.9-8.9-2.8  c-2.1-1.9-3.1-4.3-3.1-7.3c0-1.7,0.4-3.3,1.2-4.7c0.8-1.4,1.8-2.6,3.1-3.4c1.3-0.9,2.7-1.5,4.3-2c1.2-0.3,2.9-0.6,5.3-0.9  c4.8-0.6,8.4-1.3,10.7-2.1c0-0.8,0-1.3,0-1.6c0-2.4-0.6-4.2-1.7-5.1c-1.5-1.3-3.8-2-6.8-2c-2.8,0-4.9,0.5-6.2,1.5  c-1.3,1-2.3,2.7-3,5.2l-5.8-0.8c0.5-2.5,1.4-4.5,2.6-6.1c1.2-1.5,3-2.7,5.3-3.6c2.3-0.8,5-1.2,8-1.2c3,0,5.5,0.4,7.3,1.1  c1.9,0.7,3.3,1.6,4.2,2.7c0.9,1.1,1.5,2.4,1.9,4.1c0.2,1,0.3,2.9,0.3,5.5v8c0,5.6,0.1,9.1,0.4,10.5c0.3,1.5,0.8,2.9,1.5,4.2h-6.2  C384.7,274.4,384.3,273,384.2,271.3z M383.7,258c-2.2,0.9-5.4,1.6-9.8,2.3c-2.5,0.4-4.2,0.8-5.2,1.2c-1,0.4-1.8,1.1-2.4,1.9  c-0.6,0.9-0.8,1.8-0.8,2.8c0,1.6,0.6,2.9,1.8,4c1.2,1.1,3,1.6,5.3,1.6c2.3,0,4.3-0.5,6.1-1.5c1.8-1,3.1-2.4,4-4.1c0.6-1.3,1-3.3,1-6  V258z"/><path fill="#0066B2" d="M399,275.6v-35.3h5.4v5c2.6-3.9,6.3-5.8,11.2-5.8c2.1,0,4.1,0.4,5.9,1.1c1.8,0.8,3.1,1.8,4,3  c0.9,1.2,1.5,2.7,1.9,4.4c0.2,1.1,0.3,3,0.3,5.8v21.7h-6v-21.4c0-2.4-0.2-4.3-0.7-5.5c-0.5-1.2-1.3-2.2-2.5-2.9  c-1.2-0.7-2.6-1.1-4.2-1.1c-2.5,0-4.7,0.8-6.6,2.4c-1.8,1.6-2.8,4.7-2.8,9.2v19.3H399z"/><path fill="#0066B2" d="M460.9,264.3l6.2,0.8c-1,3.6-2.8,6.4-5.4,8.4c-2.6,2-6,3-10.1,3c-5.2,0-9.2-1.6-12.3-4.8  c-3-3.2-4.5-7.6-4.5-13.4c0-5.9,1.5-10.5,4.6-13.8c3.1-3.3,7-4.9,11.9-4.9c4.7,0,8.6,1.6,11.6,4.8c3,3.2,4.5,7.7,4.5,13.5  c0,0.4,0,0.9,0,1.6H441c0.2,3.9,1.3,6.8,3.3,8.9c2,2.1,4.4,3.1,7.4,3.1c2.2,0,4.1-0.6,5.6-1.7C458.8,268.7,460,266.8,460.9,264.3z   M441.3,254.6H461c-0.3-3-1-5.2-2.3-6.7c-1.9-2.3-4.4-3.5-7.4-3.5c-2.7,0-5.1,0.9-6.9,2.8C442.5,249.1,441.5,251.6,441.3,254.6z"/></svg>