<svg xmlns="http://www.w3.org/2000/svg" width="512" height="512" viewBox="0 0 512 512"><path fill="#FEDB31" d="M512 472c0 22.1-17.9 40-40 40H40c-22.1 0-40-17.9-40-40V40C0 17.9 17.9 0 40 0h432c22.1 0 40 17.9 40 40v432z"/><path fill="#FEDB31" d="M56.2 157.3c-4.1 0-7.1 1.1-8.8 3.3-2.5 3.3-1.3 7.7-1.3 7.9 1.9 5.9 28.5 51.2 36.6 65l6.6 11.3 1.6-13c3.2-25.3 16.2-50.2 34.9-66.7l8.8-7.8H56.2zM117.2 256c0 56.9 46.2 103.1 103 103.1 48 0 92.3-23.6 143.5-76.5 23-23.7 84.7-94.6 96.8-108.5 5.6-6.1 4.7-10.4 4-12-1-2.3-3.5-3.8-6.4-3.8H349.4l-4.5 6.4c-17.8 24.9-65 91.1-69.7 97.4l-4.9 6.8c-11.9 16.7-24.3 34-49.8 34-25.2 0-46.2-20.7-47-46.2-.4-12.2 4.6-24.5 13.7-33.7 9-9.1 21.2-14.2 33.3-14 8.9.2 25.7 2.8 37.7 18.9l3.3 4.4 32.9-48-2.8-2.3c-17.3-14.1-45-29.1-71.2-29.1-57 0-103.2 46.2-103.2 103.1z"/><path fill="#231F20" d="M136 152.6H56.2c-7.1 0-10.8 2.8-12.6 5.2-2 2.6-2.5 5.6-2.5 8 0 2.2.4 3.8.5 4.2 2 6.8 36.4 64.9 43.3 76.5l.2.2s7.7 12.9 10.5 17.6c-.1-3.3-.6-16.9-.6-16.9-.1-1.3-.1-2.5-.1-3.8 0-31 18.3-65.8 43.7-82.2 0 0 10.8-6.3 15-8.8H136zm-49.8 78.9c-15.9-26.9-34.9-59.8-36.2-64-.2-.6-.5-3.1.6-4.5s3.7-1.8 5.7-1.8h68.2l-1.1 1c-19.4 17.1-32.9 42.9-36.2 69.1l-.2 1.6-.8-1.4z"/><path fill="#231F20" d="M346.3 152.6c-.7 1-70.3 98.6-75.9 106.1l-5 6.9c-11.6 16.2-22.5 31.5-45.1 31.5-22.1 0-40.5-18.2-41.2-40.6-.3-10.6 4.1-21.4 12.1-29.4 7.9-8 18.5-12.5 29-12.3 9.7.2 27.4 3.5 37.8 24l.3.5 2.4 4.2 5.1-7.5 30.4-44.4 5.6-8.2c-18.6-17.6-51.9-36.4-81.6-36.4-60 0-108.8 48.9-108.8 108.9 0 60.1 48.8 108.9 108.8 108.9 64.5 0 115.1-44.7 147.6-78.2 25.5-26.4 97.5-109.4 98.3-110.2h-.1c6.4-7.9 4.8-14.2 3.7-16.6-1.9-4.4-6.3-7.2-11.5-7.2H346.3zm111.3 19C448 182.7 384.5 255.7 361 280c-50.4 52.1-93.8 75.3-140.7 75.3-54.7 0-99.1-44.5-99.1-99.2s44.5-99.2 99.1-99.2c24.1 0 50.9 13.7 68.7 28.3l-27.8 40.5c-12.8-17.1-30.5-20.2-40.8-20.4-13.2-.3-26.4 5.3-36.1 15.2-9.8 9.9-15.3 23.3-14.9 36.6.8 27.6 23.6 50 50.9 50 27.5 0 41.1-18.9 53-35.6l4.9-6.8c5.1-6.8 59.8-83.4 73.2-102.2h106.7c1.4 0 2.5.5 2.9 1.4.5 1.1-.1 4-3.4 7.7z"/></svg>