<?xml version="1.0" encoding="UTF-8"?>
<!--Generator: Adobe Illustrator 18.1.1, SVG Export Plug-In . SVG Version: 6.00 Build 0)-->
<svg xmlns="http://www.w3.org/2000/svg" xmlns:xlink="http://www.w3.org/1999/xlink" id="Layer_1" width="512px" height="512px" x="0px" y="0px" enable-background="new 0 0 512 512" version="1.1" viewBox="0 0 512 512" xml:space="preserve"><path fill="#F29839" d="M40,512c-22.1,0-40-17.9-40-40V40C0,17.9,17.9,0,40,0h432c22.1,0,40,17.9,40,40v432c0,22.1-17.9,40-40,40H40  z"/><path fill="#FFFFFF" d="M409.7,338.7c-0.3,0-0.5-0.2-0.5-0.5v-48.1c0-10.7-3.6-15.2-12.1-15.2c-3,0-6.7,1.1-10.4,3.2  c-3.6,2.1-6.5,3.8-7.5,4.5c-0.3,0.2-0.6,0.7-0.6,1.1v54.6c0,0.3-0.2,0.5-0.5,0.5h-21.4c-0.3,0-0.5-0.2-0.5-0.5v-77.4  c0-1.3,1-2.3,2.3-2.3h19.6c0.3,0,0.5,0.2,0.5,0.5v6.1c0,0.4,0.3,0.7,0.7,0.7c0.2,0,0.3-0.1,0.4-0.1l0.6-0.5c2.4-1.8,6.1-3.9,8.6-4.9  c5.4-2,11.2-3.2,15.9-3.2c17.5,0,26.8,10.1,26.8,29.1l0,52c0,0.3-0.2,0.5-0.5,0.5H409.7"/><path fill="#FFFFFF" d="M449.3,338.7c-0.3,0-0.5-0.2-0.5-0.5l0-118.5c0-0.4,0.1-0.5,0.7-0.5c1.3,0,13.3,7.5,17.2,11.8  c2.9,3.2,4.5,7.5,4.5,11.8l0,95.5c0,0.3-0.2,0.5-0.5,0.5H449.3"/><path fill="#17469E" d="M211.9,298.6c0,28.3-18.7,41.8-41.8,41.8c-23.2,0-41.9-13.5-41.9-41.9c0-29,18.7-41.9,41.9-41.9  C193.2,256.8,211.9,269.7,211.9,298.6 M188.1,298.6c0-15.3-7.8-22-18.1-22c-10.4,0-18.1,6.7-18.1,22c0,14.1,7.8,21.9,18.1,21.9  C180.4,320.6,188.1,312.7,188.1,298.6z"/><path fill="#17469E" d="M320.8,236.6c0-0.6-0.3-0.8-0.9-0.8c-1.6,0-13.6,7.8-17.4,11.9c-2.8,3.1-4.6,7.4-4.6,12v51.4  c0,22.3,12.9,29.3,26.8,29.3c7.9,0,13.3-1.2,16.5-2.9c0.7-0.4,1.3-1.1,1.3-2.2v-14.6c0-0.4-0.4-0.8-0.8-0.8c-0.8,0-6.1,2.1-9.4,2.1  c-7.2,0-11.5-3.4-11.5-14.7v-29.6c0-0.4,0.3-0.8,0.8-0.8H341c0.4,0,0.8-0.4,0.8-0.8h0l0-15.2c0-1.4-1.1-2.5-2.5-2.5h-17.6  c-0.4,0-0.8-0.4-0.8-0.8L320.8,236.6"/><path fill="#17469E" d="M40.9,260.9c0-1.4,1.2-2.6,2.6-2.6H74c30,0,45.5,18,45.5,41.3c0,23.3-17.4,39.4-46,39.4h-8.9  c-0.4,0-0.8,0.4-0.8,0.8v37.8c0,0.6-0.3,0.8-0.9,0.8c-1.6,0-13.6-7.7-17.4-11.9c-2.8-3.1-4.6-7.4-4.6-12V260.9 M96.8,298.4  c0-9.9-6.4-19.2-23.3-19.2h-9c-0.4,0-0.8,0.4-0.8,0.8v37.2c0,0.4,0.3,0.8,0.8,0.8H74C94.1,318,96.8,304,96.8,298.4z"/><path fill="#17469E" d="M276.4,295.1c-4.7-3.1-10.5-4.4-16.1-5.6c-1-0.2-4.7-1.1-5.6-1.3c-6.8-1.5-12.2-2.7-12.2-7.1  c0-3.8,3.7-6.3,9.4-6.3c7.2,0,17.2,1.4,28.1,5.5c0.5,0.2,1.3-0.1,1.3-0.9l0-15.8c0-1.1-0.7-2.1-1.9-2.5c-3.8-1.2-15.2-4.4-24.8-4.4  c-10.7,0-19.6,2.4-25.7,6.9c-6.2,4.5-9.5,11.1-9.5,19c0,17.8,14.6,21.1,28.3,24.4c2.1,0.5,1.8,0.4,2.6,0.6c6.3,1.4,12.8,2.8,12.8,8  c0,1.5-0.6,2.8-1.7,4c-1.8,1.7-4.5,2.5-9.6,2.5c-8.8,0-25.3-4.1-30.4-5.7c0,0-0.2-0.1-0.3-0.1c-0.5,0-1,0.4-1,0.9v15.8  c0,1.1,0.7,2.1,1.8,2.5c0.1,0,14.5,4.8,28.2,4.8c23.8,0,36-9.3,36-26.3C286.1,305.6,282.9,299.4,276.4,295.1"/><path fill="#FFFFFF" d="M134.7,237.7c-1.9,0-2.7-1-2.7-3.2v-8.7c0-2,1.7-3.6,3.6-3.6h68.9c2,0,3.6,1.7,3.6,3.6v8.7  c0,2.2-0.8,3.2-2.7,3.2H134.7 M197,213.3c-0.7,0-1.2-0.2-1.5-0.6c-0.3-0.4-0.3-1.1-0.1-1.9c2.3-7.1,10-28.7,10.1-29  c0.5-1.4,0-3.3-1.5-3.9l-3.9-1.3c-0.3-0.1-0.5-0.1-0.8-0.1c-0.8,0-1.2,0.4-1.4,0.7c-1.6,3.6-2.5,6.1-3.7,10.3  c-0.2,0.7-0.8,1.1-1.8,1.1h-7.6c-0.6,0-1-0.2-1.2-0.4c-0.2-0.3-0.3-0.7-0.1-1.3c2-7,4-12.6,6.8-18.8c0.5-1.1,1.7-2.9,4.3-2.9  c0.5,0,1,0.1,1.5,0.2l0.1,0c2.6,0.6,5.5,1.3,8.6,2.2c2.4,0.7,4.9,1.6,7.5,2.5c7.8,2.9,7.5,8.5,5.9,14.2c-0.9,3.4-5.5,16.1-8.2,23.7  c-0.6,1.6-1.1,3-1.4,3.9c-0.3,0.9-1,1.3-2.2,1.3H197z M165.2,213.3c-1.7,0-1.8-1.9-1.8-2c0-0.4-0.5-40.7-0.6-46.2  c0-0.4,0.1-1.3,0.7-1.9c0.3-0.3,0.7-0.5,1.2-0.5c0.8,0,2.9-0.1,5.4-0.1c2.5,0,4.6,0.1,5.4,0.1c0.5,0,0.9,0.2,1.2,0.5  c0.6,0.6,0.7,1.5,0.7,1.9c-0.1,5.5-0.6,45.8-0.6,46.2c0,0-0.1,1.9-1.8,1.9H165.2z M133.7,213.3c-1.2,0-1.9-0.4-2.2-1.3  c-0.3-0.9-0.8-2.3-1.4-3.9c-2.7-7.6-7.3-20.3-8.2-23.7c-1.5-5.7-1.8-11.3,5.9-14.2c2.6-0.9,5.1-1.8,7.5-2.5c3.1-0.9,6-1.6,8.6-2.2  l0.1,0c0.5-0.1,1-0.2,1.5-0.2c2.6,0,3.8,1.8,4.3,2.9c2.8,6.2,4.8,11.8,6.7,18.8c0.2,0.6,0.1,1-0.1,1.3c-0.2,0.3-0.6,0.4-1.2,0.4  h-7.6c-1,0-1.6-0.4-1.8-1.1c-1.2-4.2-2.2-6.7-3.8-10.3c-0.2-0.4-0.6-0.7-1.4-0.7c-0.2,0-0.5,0-0.7,0.1l-3.9,1.3  c-1.5,0.5-2,2.5-1.5,3.9c0.1,0.2,7.8,21.8,10.1,29c0.3,0.8,0.2,1.5,0,1.9c-0.3,0.4-0.8,0.6-1.5,0.6H133.7z M170,154.5  c-0.4,0-0.9-0.2-1.3-0.5c-3.2-2.5-6.2-5.5-8.7-8.8c-0.3-0.4-0.9-1.1,0-2.1c2.7-3.5,5.8-6.6,9.3-9.2c0.4-0.2,0.6-0.3,0.8-0.3  c0.2,0,0.5,0.1,0.9,0.3c3.5,2.6,6.6,5.7,9.3,9.2c0.7,0.8,0.4,1.5,0,2.1c-2.6,3.3-5.5,6.3-8.7,8.8C170.9,154.3,170.5,154.5,170,154.5  L170,154.5z"/></svg>