<svg width="32" height="32" viewBox="0 0 32 32" fill="none" xmlns="http://www.w3.org/2000/svg">
<path fill-rule="evenodd" clip-rule="evenodd" d="M14.2119 0.269027C14.3426 0.249499 14.4588 0.353451 14.4588 0.487667V8.69981C14.4588 8.82309 14.5571 8.92301 14.6784 8.92301H17.0751C17.1964 8.92301 17.2947 8.82309 17.2947 8.69981V0.487667C17.2947 0.353451 17.411 0.249499 17.5416 0.269027C23.0171 1.08756 27.2203 5.88256 27.2203 11.6754C27.2203 17.9682 22.2602 23.0835 16.0971 23.2028C15.9759 23.2052 15.8768 23.3049 15.8768 23.4282V31.1083C15.8768 31.5192 15.5489 31.8536 15.145 31.8387C11.4785 31.7037 8.06559 30.5579 5.16794 28.6675C4.76525 28.4048 4.53333 27.9459 4.53333 27.4595V11.9653C4.53333 11.9644 4.5341 11.9636 4.53503 11.9636C4.53602 11.9636 4.53679 11.9628 4.53677 11.9618C4.53447 11.8666 4.53333 11.7711 4.53333 11.6754C4.53333 5.88256 8.73639 1.08756 14.2119 0.269027ZM11.623 4.57317C11.623 4.40138 11.4405 4.29485 11.298 4.3873C10.7798 4.72362 10.2978 5.11688 9.86101 5.56085C9.07101 6.36381 8.44434 7.31709 8.01679 8.36621C7.58925 9.41533 7.36919 10.5398 7.36919 11.6754C7.36919 12.8109 7.58925 13.9354 8.01679 14.9845C8.44434 16.0336 9.07101 16.9869 9.86101 17.7899C10.651 18.5928 11.5889 19.2298 12.6211 19.6643C13.6532 20.0989 14.7595 20.3226 15.8768 20.3226C16.994 20.3226 18.1003 20.0989 19.1325 19.6643C20.1647 19.2298 21.1025 18.5928 21.8925 17.7899C22.6826 16.9869 23.3092 16.0336 23.7367 14.9845C24.1643 13.9354 24.3843 12.8109 24.3843 11.6754C24.3843 10.5398 24.1643 9.41533 23.7367 8.36621C23.3092 7.31709 22.6826 6.36381 21.8925 5.56085C21.4557 5.11688 20.9737 4.72362 20.4555 4.3873C20.3131 4.29485 20.1306 4.40138 20.1306 4.57317V7.77792C20.1306 7.83229 20.1502 7.88466 20.185 7.92597C20.573 8.38658 20.8878 8.9073 21.1168 9.46925C21.4018 10.1687 21.5485 10.9183 21.5485 11.6754C21.5485 12.4324 21.4018 13.182 21.1168 13.8815C20.8317 14.5809 20.4139 15.2164 19.8873 15.7517C19.3606 16.287 18.7354 16.7116 18.0472 17.0014C17.3591 17.2911 16.6216 17.4402 15.8768 17.4402C15.1319 17.4402 14.3944 17.2911 13.7063 17.0014C13.0182 16.7116 12.3929 16.287 11.8663 15.7517C11.3396 15.2164 10.9218 14.5809 10.6368 13.8815C10.3518 13.182 10.2051 12.4324 10.2051 11.6754C10.2051 10.9183 10.3518 10.1687 10.6368 9.46925C10.8658 8.9073 11.1805 8.38658 11.5685 7.92597C11.6033 7.88466 11.623 7.83229 11.623 7.77792V4.57317Z" fill="#3B8CFF"/>
</svg>
