<svg width="32" height="32" viewBox="0 0 32 32" fill="none" xmlns="http://www.w3.org/2000/svg">
<path d="M13.8294 0L27.6588 7.9844V23.9532L13.8294 31.9376L0 23.9532V7.9844L13.8294 0Z" fill="#673AB8"/>
<path d="M4.13746 23.4585C5.71037 25.5084 11.3281 23.8378 16.6851 19.7273C22.0421 15.6168 25.1096 10.6228 23.5367 8.57292C21.9638 6.52307 16.346 8.19358 10.9891 12.3041C5.63213 16.4147 2.56455 21.4086 4.13746 23.4585Z" stroke="white" stroke-width="1"/>
<path d="M23.5205 23.4425C25.0934 21.3927 22.0258 16.3987 16.6688 12.2882C11.3119 8.17762 5.69411 6.5071 4.1212 8.55696C2.54829 10.6068 5.61587 15.6008 10.9728 19.7113C16.3298 23.8219 21.9476 25.4924 23.5205 23.4425Z" stroke="white" stroke-width="1"/>
<path d="M13.8396 18.1304C15.0109 18.1304 15.9605 17.1808 15.9605 16.0095C15.9605 14.8382 15.0109 13.8887 13.8396 13.8887C12.6683 13.8887 11.7188 14.8382 11.7188 16.0095C11.7188 17.1808 12.6683 18.1304 13.8396 18.1304Z" fill="white"/>
</svg>
