<?xml version="1.0" encoding="UTF-8"?>
<svg width="256px" height="256px" viewBox="0 0 256 256" version="1.1" xmlns="http://www.w3.org/2000/svg" xmlns:xlink="http://www.w3.org/1999/xlink">
    <defs></defs>
    <g id="Page-1" stroke="none" stroke-width="1" fill="none" fill-rule="evenodd">
        <g id="development">
            <g id="Group">
                <path d="M83.1576159,196.209967 C85.192053,195.274419 87.2264901,194.50897 89.3456954,193.658472 C91.7192053,192.807973 94.0927152,191.957475 96.4662252,191.192027 C99.4331126,190.256478 102.484768,189.49103 105.536424,188.810631 C109.690066,187.960133 113.843709,187.279734 117.997351,186.854485 C115.623841,194.253821 113.080795,201.653156 110.198675,208.967442 C110.283444,210.413289 110.368212,211.774086 110.45298,213.219934 C116.13245,212.114286 121.981457,211.518937 128,211.518937 C134.018543,211.518937 139.86755,212.114286 145.54702,213.219934 C145.54702,211.774086 145.631788,210.328239 145.801325,208.967442 C143.003974,201.653156 140.376159,194.253821 138.002649,186.854485 C142.156291,187.279734 146.394702,187.875083 150.463576,188.810631 C153.515232,189.49103 156.482119,190.256478 159.533775,191.192027 C161.907285,191.957475 164.280795,192.722924 166.654305,193.658472 C168.77351,194.42392 170.807947,195.274419 172.842384,196.209967 C187.25298,202.673754 200.392053,212.199336 211.157616,224.616611 C238.198675,201.227907 255.321854,166.612625 255.321854,127.91495 C255.321854,57.4086379 198.357616,0.170099668 128,0.170099668 C57.7271523,0.170099668 0.678145695,57.323588 0.678145695,127.91495 C0.678145695,166.527575 17.8013245,201.142857 44.8423841,224.616611 C55.607947,212.199336 68.7470199,202.673754 83.1576159,196.209967 Z" id="XMLID_125_" fill="#A0DBE8" fill-rule="nonzero"></path>
                <path d="M91.5496689,219.343522 C97.4834437,216.706977 103.84106,214.665781 110.368212,213.390033 C110.368212,211.944186 110.283444,210.498339 110.113907,209.137542 C112.911258,201.823256 115.539073,194.42392 117.912583,187.024585 C113.75894,187.449834 109.52053,188.045183 105.451656,188.980731 C102.4,189.66113 99.4331126,190.426578 96.381457,191.362126 C94.007947,192.127575 91.6344371,192.893023 89.2609272,193.828571 L98.5006623,196.124917 L91.5496689,219.343522 Z" id="XMLID_124_" fill="#525353" fill-rule="nonzero"></path>
                <path d="M69.6794702,233.036545 C69.9337748,230.65515 70.018543,228.273754 70.018543,225.807309 C70.018543,224.361462 71.205298,223.170764 72.6463576,223.170764 L74.9350993,223.170764 L83.0728477,196.124917 C68.6622517,202.588704 55.5231788,212.114286 44.7576159,224.531561 C50.6913907,229.719601 57.1337748,234.312292 63.9152318,238.309635 C65.8649007,236.523588 67.7298013,234.737542 69.6794702,233.036545 Z" id="XMLID_123_" fill="#525353" fill-rule="nonzero"></path>
                <path d="M172.757616,196.209967 L180.895364,223.255814 L183.184106,223.255814 C184.625166,223.255814 185.811921,224.446512 185.811921,225.892359 C185.811921,228.358804 185.981457,230.740199 186.150993,233.121595 C188.100662,234.822591 190.050331,236.523588 191.830464,238.394684 C198.696689,234.397342 205.054305,229.804651 210.988079,224.616611 C200.307285,212.199336 187.168212,202.673754 172.757616,196.209967 Z" id="XMLID_122_" fill="#525353" fill-rule="nonzero"></path>
                <path d="M157.245033,195.954817 L166.484768,193.658472 C164.111258,192.807973 161.737748,191.957475 159.364238,191.192027 C156.397351,190.256478 153.345695,189.49103 150.29404,188.810631 C146.140397,187.960133 141.986755,187.279734 137.833113,186.854485 C140.206623,194.253821 142.749669,201.653156 145.631788,208.967442 C145.54702,210.413289 145.462252,211.774086 145.377483,213.219934 C151.989404,214.495681 158.262252,216.536877 164.196026,219.173422 L157.245033,195.954817 Z" id="XMLID_121_" fill="#525353" fill-rule="nonzero"></path>
                <path d="M127.915232,223.255814 L145.886093,223.255814 C145.54702,219.93887 145.377483,216.621927 145.462252,213.390033 C139.782781,212.284385 133.933775,211.689037 127.915232,211.689037 C121.896689,211.689037 116.047682,212.284385 110.368212,213.390033 C110.45298,216.706977 110.283444,219.93887 109.944371,223.255814 L127.915232,223.255814 Z" id="XMLID_120_" fill="#000000" fill-rule="nonzero"></path>
                <path d="M64,238.309635 C65.4410596,239.160133 66.9668874,240.010631 68.4927152,240.86113 C69.0013245,238.309635 69.4251656,235.67309 69.6794702,233.036545 C67.7298013,234.737542 65.8649007,236.523588 64,238.309635 Z" id="XMLID_119_" fill="#000000" fill-rule="nonzero"></path>
                <path d="M90.3629139,223.255814 L110.029139,223.255814 C110.368212,219.93887 110.537748,216.621927 110.45298,213.390033 C103.84106,214.665781 97.5682119,216.706977 91.6344371,219.343522 L90.3629139,223.255814 Z" id="XMLID_118_" fill="#000000" fill-rule="nonzero"></path>
                <path d="M186.235762,233.036545 C186.490066,235.67309 186.913907,238.309635 187.422517,240.86113 C188.948344,240.095681 190.389404,239.245183 191.915232,238.309635 C190.050331,236.523588 188.18543,234.737542 186.235762,233.036545 Z" id="XMLID_117_" fill="#000000" fill-rule="nonzero"></path>
                <path d="M165.552318,223.255814 L164.365563,219.343522 C158.431788,216.706977 152.074172,214.665781 145.54702,213.390033 C145.462252,216.706977 145.631788,219.93887 145.970861,223.255814 L165.552318,223.255814 L165.552318,223.255814 Z" id="XMLID_116_" fill="#000000" fill-rule="nonzero"></path>
                <path d="M90.3629139,223.255814 L91.5496689,219.343522 L98.5854305,195.954817 L89.3456954,193.658472 C87.2264901,194.42392 85.192053,195.274419 83.1576159,196.209967 L75.0198675,223.255814 L83.7509934,223.255814 L90.3629139,223.255814 L90.3629139,223.255814 Z" id="XMLID_115_" fill="#AA9678" fill-rule="nonzero"></path>
                <path d="M164.365563,219.343522 L165.552318,223.255814 L172.164238,223.255814 L180.895364,223.255814 L172.757616,196.209967 C170.723179,195.274419 168.688742,194.50897 166.569536,193.658472 L157.329801,195.954817 L164.365563,219.343522 Z" id="XMLID_114_" fill="#AA9678" fill-rule="nonzero"></path>
                <path d="M75.2741722,228.699003 C75.3589404,228.613953 75.4437086,228.613953 75.5284768,228.528904 L75.2741722,228.528904 C75.2741722,228.528904 75.2741722,228.613953 75.2741722,228.699003 Z" id="XMLID_113_" fill="#C0B098" fill-rule="nonzero"></path>
                <path d="M127.915232,228.528904 L109.181457,228.528904 L88.7523179,228.528904 L75.5284768,228.528904 C75.4437086,228.613953 75.3589404,228.613953 75.2741722,228.699003 C75.1046358,233.716944 74.4264901,238.564784 73.3245033,243.327575 C89.8543046,251.237209 108.333775,255.659801 127.915232,255.659801 L127.915232,228.528904 L127.915232,228.528904 Z" id="XMLID_112_" fill="#C0B098" fill-rule="nonzero"></path>
                <path d="M180.64106,228.528904 L180.386755,228.528904 C180.471523,228.613953 180.556291,228.613953 180.64106,228.699003 C180.64106,228.613953 180.64106,228.528904 180.64106,228.528904 Z" id="XMLID_111_" fill="#AA9678" fill-rule="nonzero"></path>
                <path d="M180.386755,228.528904 L167.162914,228.528904 L146.649007,228.528904 L127.915232,228.528904 L127.915232,228.528904 L127.915232,255.659801 C147.411921,255.659801 165.976159,251.237209 182.50596,243.327575 C181.403974,238.564784 180.725828,233.631894 180.556291,228.699003 C180.556291,228.613953 180.471523,228.528904 180.386755,228.528904 Z" id="XMLID_110_" fill="#AA9678" fill-rule="nonzero"></path>
                <rect id="XMLID_109_" fill="#786453" fill-rule="nonzero" x="127.830464" y="225.892359" width="1" height="2.63654485"></rect>
                <path d="M186.235762,233.036545 C185.981457,230.65515 185.896689,228.273754 185.896689,225.807309 C185.896689,224.361462 184.709934,223.170764 183.268874,223.170764 L180.980132,223.170764 L172.07947,223.170764 L165.46755,223.170764 L145.801325,223.170764 L127.830464,223.170764 L109.859603,223.170764 L90.1933775,223.170764 L83.581457,223.170764 L74.8503311,223.170764 L72.5615894,223.170764 C71.1205298,223.170764 69.9337748,224.361462 69.9337748,225.807309 C69.9337748,228.273754 69.7642384,230.65515 69.594702,233.036545 C69.3403974,235.67309 68.9165563,238.309635 68.407947,240.86113 C70.018543,241.711628 71.6291391,242.562126 73.2397351,243.327575 C74.3417219,238.564784 75.0198675,233.631894 75.189404,228.699003 C75.189404,228.613953 75.189404,228.613953 75.189404,228.528904 L75.4437086,228.528904 L88.6675497,228.528904 L109.096689,228.528904 L127.830464,228.528904 L127.830464,228.528904 L146.649007,228.528904 L167.078146,228.528904 L180.301987,228.528904 L180.556291,228.528904 C180.556291,228.613953 180.556291,228.613953 180.556291,228.699003 C180.725828,233.716944 181.403974,238.564784 182.50596,243.327575 C184.116556,242.562126 185.727152,241.711628 187.337748,240.86113 C186.829139,238.309635 186.490066,235.67309 186.235762,233.036545 Z" id="XMLID_108_" fill="#8B7460" fill-rule="nonzero"></path>
                <g transform="translate(38.145695, 38.272425)">
                    <path d="M132.662252,70.2511628 L132.662252,70.2511628 C132.662252,70.2511628 132.662252,70.2511628 132.662252,70.2511628 C134.272848,74.8438538 136.05298,79.5215947 136.98543,84.2843854 C136.98543,84.6245847 136.900662,84.9647841 136.900662,85.3049834 C136.815894,85.8152824 136.731126,86.2405316 136.646358,86.6657807 C136.815894,86.0704319 136.900662,85.3049834 137.070199,84.454485 C136.137748,79.6066445 134.272848,74.9289037 132.662252,70.2511628 C132.662252,70.2511628 132.662252,70.2511628 132.662252,70.2511628 C132.662252,70.2511628 132.662252,70.2511628 132.662252,70.2511628 L132.662252,70.2511628 Z" id="XMLID_107_"></path>
                    <path d="M169.70596,99.1681063 C169.621192,99.1681063 169.536424,99.2531561 169.451656,99.2531561 C169.536424,99.1681063 169.621192,99.1681063 169.70596,99.1681063 Z" id="XMLID_106_"></path>
                    <path d="M170.553642,98.4877076 C170.468874,98.5727575 170.384106,98.6578073 170.299338,98.7428571 C170.384106,98.6578073 170.468874,98.5727575 170.553642,98.4877076 Z" id="XMLID_105_"></path>
                    <path d="M128.847682,66.9342193 C125.880795,64.4677741 122.829139,62.1714286 119.607947,60.2152824 L119.607947,60.2152824 C122.829139,62.1714286 125.880795,64.3827243 128.847682,66.9342193 Z" id="XMLID_104_"></path>
                    <path d="M158.34702,97.4671096 C158.34702,97.5521595 158.34702,97.5521595 158.34702,97.4671096 C158.34702,97.5521595 158.34702,97.5521595 158.34702,97.4671096 Z" id="XMLID_103_"></path>
                    <path d="M163.687417,104.271096 C163.772185,104.356146 163.856954,104.526246 163.941722,104.611296 C163.941722,104.441196 163.772185,104.356146 163.687417,104.271096 Z" id="XMLID_102_"></path>
                    <path d="M136.561589,86.9209302 C136.476821,87.3461794 136.392053,87.6863787 136.307285,87.9415282 C136.392053,87.6013289 136.476821,87.2611296 136.561589,86.9209302 Z" id="XMLID_101_"></path>
                    <path d="M124.100662,133.528239 C122.150993,136.760133 120.87947,139.906977 120.201325,142.798671 C120.87947,139.821927 122.150993,136.760133 124.100662,133.528239 C124.778808,132.422591 125.372185,131.401993 125.965563,130.381395 C125.372185,131.316944 124.778808,132.422591 124.100662,133.528239 C124.100662,133.443189 124.100662,133.443189 124.100662,133.528239 Z" id="XMLID_100_"></path>
                    <path d="M132.662252,70.2511628 C132.74702,69.9960133 132.916556,69.8259136 133.001325,69.5707641 L133.001325,69.5707641 C132.831788,69.8259136 132.74702,69.9960133 132.662252,70.2511628 C133.425166,70.9315615 134.188079,71.6119601 134.950993,72.2923588 C134.188079,71.6119601 133.425166,70.9315615 132.662252,70.2511628 Z" id="XMLID_99_"></path>
                    <path d="M115.030464,57.5787375 C114.860927,57.4936877 114.691391,57.4086379 114.606623,57.323588 C114.776159,57.4086379 114.860927,57.4936877 115.030464,57.5787375 Z" id="XMLID_96_"></path>
                    <path d="M115.708609,57.9189369 C115.539073,57.833887 115.369536,57.6637874 115.2,57.5787375 C115.284768,57.7488372 115.539073,57.833887 115.708609,57.9189369 Z" id="XMLID_95_"></path>
                    <path d="M119.862252,68.2099668 C119.862252,68.5501661 119.862252,68.8053156 119.862252,69.145515 C119.862252,68.8053156 119.862252,68.5501661 119.862252,68.2099668 Z" id="XMLID_94_"></path>
                    <path d="M168.943046,110.990033 C169.112583,111.160133 169.282119,111.415282 169.451656,111.585382 C169.282119,111.415282 169.112583,111.160133 168.943046,110.990033 Z" id="XMLID_92_"></path>
                    <path d="M119.862252,72.207309 C119.862252,73.5681063 119.777483,74.9289037 119.692715,76.2046512 C119.777483,74.9289037 119.862252,73.5681063 119.862252,72.207309 Z" id="XMLID_91_"></path>
                    <path d="M119.353642,60.0451827 C118.929801,59.7900332 117.658278,59.1096346 116.556291,58.4292359 C117.658278,59.0245847 118.845033,59.7049834 119.353642,60.0451827 Z" id="XMLID_89_"></path>
                    <path d="M116.471523,58.344186 C116.217219,58.1740864 115.962914,58.0039867 115.708609,57.9189369 C115.962914,58.0890365 116.217219,58.2591362 116.471523,58.344186 Z" id="XMLID_88_"></path>
                    <path d="M173.181457,91.1734219 C173.181457,91.0883721 173.181457,91.0033223 173.181457,90.9182724 C173.181457,90.9182724 173.181457,90.9182724 173.181457,90.9182724 C173.181457,90.9182724 173.181457,90.9182724 173.181457,90.9182724 C173.181457,90.8332226 173.181457,90.7481728 173.181457,90.6631229 C173.181457,90.7481728 173.181457,90.8332226 173.181457,91.0033223 C173.181457,90.9182724 173.181457,91.0883721 173.181457,91.1734219 Z" id="XMLID_86_"></path>
                    <path d="M152.328477,90.4079734 C152.413245,90.5780731 152.582781,90.6631229 152.66755,90.8332226 C152.66755,90.8332226 152.66755,90.8332226 152.66755,90.8332226 L152.66755,90.8332226 C152.66755,90.7481728 152.498013,90.5780731 152.328477,90.4079734 L152.328477,90.4079734 Z" id="XMLID_85_"></path>
                    <path d="M134.950993,72.2923588 C136.646358,73.8232558 138.341722,75.4392027 139.952318,77.0551495 C138.256954,75.4392027 136.646358,73.8232558 134.950993,72.2923588 Z" id="XMLID_84_"></path>
                    <path d="M168.095364,81.9880399 C168.434437,81.9880399 168.688742,82.0730897 169.027815,82.1581395 C168.688742,82.0730897 168.349669,81.9880399 168.095364,81.9880399 Z" id="XMLID_83_"></path>
                    <path d="M163.178808,88.3667774 C163.178808,88.5368771 163.09404,88.6219269 163.09404,88.7920266 C163.09404,88.6219269 163.178808,88.5368771 163.178808,88.3667774 Z" id="XMLID_82_"></path>
                    <path d="M169.282119,82.2431894 C169.451656,82.3282392 169.70596,82.413289 169.875497,82.5833887 C169.70596,82.4983389 169.451656,82.3282392 169.282119,82.2431894 Z" id="XMLID_81_"></path>
                    <path d="M171.231788,83.944186 C171.316556,84.0292359 171.401325,84.1142857 171.401325,84.1993355 C171.316556,84.1142857 171.316556,84.0292359 171.231788,83.944186 Z" id="XMLID_80_"></path>
                    <path d="M173.096689,88.9621262 C173.096689,88.9621262 173.096689,88.9621262 173.096689,88.9621262 C173.096689,88.8770764 173.096689,88.8770764 173.096689,88.7920266 C173.096689,88.8770764 173.096689,88.9621262 173.096689,88.9621262 C173.096689,88.9621262 173.096689,88.9621262 173.096689,88.9621262 Z" id="XMLID_79_"></path>
                    <path d="M173.096689,92.7043189 C173.096689,92.7043189 173.096689,92.7043189 173.096689,92.7043189 C173.096689,92.6192691 173.096689,92.6192691 173.096689,92.7043189 C173.096689,92.7043189 173.096689,92.7893688 173.096689,92.7893688 C173.096689,92.7893688 173.096689,92.7893688 173.096689,92.7043189 Z" id="XMLID_78_"></path>
                    <path d="M164.704636,84.1993355 C164.789404,84.1142857 164.874172,84.0292359 164.874172,83.944186 C164.874172,84.0292359 164.789404,84.1142857 164.704636,84.1993355 Z" id="XMLID_77_"></path>
                    <path d="M167.162914,82.1581395 C167.417219,82.0730897 167.756291,81.9880399 168.095364,81.9880399 C167.756291,81.9880399 167.417219,82.0730897 167.162914,82.1581395 Z" id="XMLID_76_"></path>
                    <path d="M144.529801,81.8179402 C143.766887,80.9674419 142.919205,80.2019934 142.156291,79.351495 C143.003974,80.1169435 143.766887,80.9674419 144.529801,81.8179402 Z" id="XMLID_75_"></path>
                    <path d="M168.095364,54.0916944 L168.095364,54.0916944 C168.095364,54.0916944 168.095364,54.0916944 168.095364,54.0916944 L168.095364,65.9136213 L163.602649,86.7508306 C163.602649,86.8358804 163.602649,86.8358804 163.602649,86.9209302 C163.602649,86.9209302 163.602649,86.8358804 163.602649,86.8358804 L163.602649,86.8358804 L163.602649,86.8358804 L168.095364,65.9986711 L168.095364,54.0916944 L168.095364,54.0916944 L168.095364,54.0916944 L168.095364,54.0916944 Z" id="XMLID_74_"></path>
                    <path d="M148.768212,86.3255814 C148.344371,85.9003322 147.92053,85.3900332 147.496689,84.9647841 C148.005298,85.4750831 148.344371,85.9003322 148.768212,86.3255814 Z" id="XMLID_73_"></path>
                    <path d="M172.588079,86.8358804 C172.672848,87.0059801 172.672848,87.1760797 172.757616,87.3461794 C172.757616,87.3461794 172.757616,87.3461794 172.757616,87.3461794 C172.757616,87.0910299 172.672848,87.0059801 172.588079,86.8358804 L172.588079,86.8358804 L172.588079,86.8358804 Z" id="XMLID_72_"></path>
                    <path d="M162.924503,90.7481728 L162.924503,90.7481728 C162.924503,90.6631229 162.924503,90.5780731 162.924503,90.4930233 C163.009272,90.6631229 162.924503,90.6631229 162.924503,90.7481728 Z" id="XMLID_71_"></path>
                    <path d="M166.315232,82.5833887 C166.484768,82.413289 166.739073,82.3282392 166.908609,82.2431894 C166.654305,82.3282392 166.484768,82.4983389 166.315232,82.5833887 Z" id="XMLID_70_"></path>
                    <path d="M165.382781,83.3488372 C165.552318,83.0936877 165.806623,82.923588 166.060927,82.7534884 C165.806623,82.923588 165.552318,83.1787375 165.382781,83.3488372 Z" id="XMLID_69_"></path>
                    <path d="M172.757616,94.3202658 C172.757616,94.3202658 172.757616,94.3202658 172.757616,94.3202658 C172.672848,94.745515 172.503311,95.1707641 172.333775,95.5960133 C172.503311,95.255814 172.672848,94.8305648 172.757616,94.3202658 L172.757616,94.3202658 L172.757616,94.3202658 Z" id="XMLID_68_"></path>
                    <path d="M17.6317881,86.8358804 C17.8013245,86.5807309 18.0556291,86.2405316 18.2251656,85.9853821 C18.0556291,86.3255814 17.8013245,86.5807309 17.6317881,86.8358804 Z" id="XMLID_67_"></path>
                    <path d="M170.129801,82.7534884 C170.384106,82.923588 170.553642,83.1787375 170.807947,83.3488372 C170.553642,83.1787375 170.384106,82.923588 170.129801,82.7534884 Z" id="XMLID_66_"></path>
                    <path d="M21.2768212,81.5627907 C21.3615894,81.4777409 21.4463576,81.3076412 21.5311258,81.2225914 C21.4463576,81.3076412 21.3615894,81.392691 21.2768212,81.5627907 Z" id="XMLID_65_"></path>
                    <path d="M107.994702,90.7481728 L107.994702,90.7481728 C107.994702,90.7481728 107.994702,90.7481728 107.994702,90.7481728 L107.994702,90.7481728 L107.994702,90.7481728 L107.994702,90.6631229 C107.994702,90.6631229 107.994702,90.6631229 107.994702,90.7481728 Z" id="XMLID_64_"></path>
                    <path d="M12.1218543,97.0418605 C11.8675497,97.4671096 11.6980132,97.9774086 11.4437086,98.4026578 C11.6980132,97.9774086 11.8675497,97.5521595 12.1218543,97.0418605 Z" id="XMLID_63_"></path>
                    <path d="M9.32450331,103.590698 C9.32450331,103.675748 9.2397351,103.760797 9.2397351,103.845847 C9.2397351,103.760797 9.32450331,103.675748 9.32450331,103.590698 Z" id="XMLID_62_"></path>
                    <path d="M29.4993377,71.8671096 C29.7536424,71.6119601 30.007947,71.3568106 30.2622517,71.1016611 C30.007947,71.3568106 29.7536424,71.6119601 29.4993377,71.8671096 Z" id="XMLID_59_"></path>
                    <path d="M25.0066225,76.8 C25.2609272,76.4598007 25.5152318,76.2046512 25.7695364,75.8644518 C25.5152318,76.2046512 25.2609272,76.4598007 25.0066225,76.8 Z" id="XMLID_58_"></path>
                    <polygon id="XMLID_57_" points="172.588079 86.8358804 168.095364 65.9986711"></polygon>
                    <path d="M93.584106,102.5701 C93.4993377,102.5701 93.4145695,102.48505 93.3298013,102.48505 C93.4145695,102.5701 93.4993377,102.5701 93.584106,102.5701 Z" id="XMLID_56_"></path>
                    <path d="M94.7708609,102.740199 C94.6860927,102.740199 94.6013245,102.740199 94.5165563,102.65515 C94.6013245,102.740199 94.6860927,102.740199 94.7708609,102.740199 Z" id="XMLID_55_"></path>
                    <path d="M14.9192053,91.5136213 C14.6649007,92.0239203 14.3258278,92.5342193 14.0715232,93.1295681 C14.3258278,92.6192691 14.5801325,92.1089701 14.9192053,91.5136213 Z" id="XMLID_54_"></path>
                    <path d="M92.397351,102.2299 C92.3125828,102.2299 92.3125828,102.2299 92.2278146,102.14485 C92.3125828,102.2299 92.3125828,102.2299 92.397351,102.2299 Z" id="XMLID_52_"></path>
                    <path d="M84.3443709,88.0265781 C84.3443709,88.1116279 84.2596026,88.1966777 84.2596026,88.2817276 C84.3443709,88.1966777 84.3443709,88.1116279 84.3443709,88.0265781 Z" id="XMLID_49_"></path>
                    <path d="M84.6834437,86.9209302 C84.6834437,87.0059801 84.5986755,87.0059801 84.5986755,87.0910299 C84.5986755,87.0910299 84.6834437,87.0059801 84.6834437,86.9209302 Z" id="XMLID_46_"></path>
                    <path d="M85.1072848,85.9003322 C85.1072848,85.9003322 85.1072848,85.9853821 85.0225166,85.9853821 C85.0225166,85.9853821 85.1072848,85.9003322 85.1072848,85.9003322 Z" id="XMLID_45_"></path>
                    <path d="M98.415894,79.0112957 C98.3311258,79.0112957 98.3311258,79.0112957 98.415894,79.0112957 C98.3311258,79.0112957 98.3311258,79.0112957 98.415894,79.0112957 Z" id="XMLID_44_"></path>
                    <path d="M93.7536424,79.0112957 C93.7536424,79.0112957 93.6688742,79.0112957 93.7536424,79.0112957 C93.6688742,79.0112957 93.7536424,79.0112957 93.7536424,79.0112957 Z" id="XMLID_41_"></path>
                    <path d="M96.1271523,52.0504983 C96.1271523,51.8803987 96.1271523,51.710299 96.1271523,51.5401993 C96.1271523,51.710299 96.1271523,51.8803987 96.1271523,52.0504983 Z" id="XMLID_39_"></path>
                    <path d="M96.1271523,51.2850498 C96.1271523,51.2 96.1271523,51.0299003 96.1271523,50.9448505 C96.1271523,51.0299003 96.1271523,51.1149502 96.1271523,51.2850498 Z" id="XMLID_38_"></path>
                    <path d="M96.1271523,50.7747508 C96.1271523,50.689701 96.1271523,50.689701 96.1271523,50.7747508 C96.1271523,50.689701 96.1271523,50.689701 96.1271523,50.7747508 Z" id="XMLID_37_"></path>
                    <path d="M96.1271523,53.6664452 L96.1271523,53.4963455 L96.1271523,52.9860465 C96.1271523,52.8159468 96.1271523,52.6458472 96.1271523,52.4757475 C96.1271523,52.8159468 96.1271523,53.241196 96.1271523,53.6664452 Z" id="XMLID_36_"></path>
                    <path d="M171.570861,97.2119601 C171.401325,97.3820598 171.316556,97.6372093 171.14702,97.807309 C171.316556,97.6372093 171.486093,97.3820598 171.570861,97.2119601 Z" id="XMLID_35_"></path>
                    <path d="M84.1748344,89.3023256 C84.1748344,89.3873754 84.1748344,89.4724252 84.0900662,89.5574751 C84.0900662,89.4724252 84.0900662,89.3873754 84.1748344,89.3023256 Z" id="XMLID_34_"></path>
                    <path d="M172.249007,95.9362126 C172.164238,96.1913621 171.994702,96.5315615 171.825166,96.786711 C171.994702,96.5315615 172.07947,96.276412 172.249007,95.9362126 Z" id="XMLID_32_"></path>
                    <path d="M126.219868,166.697674 C125.796026,166.272425 125.456954,165.762126 125.033113,165.251827 C125.456954,165.847176 125.880795,166.272425 126.219868,166.697674 L126.219868,166.697674 Z" id="XMLID_31_" fill="#525353" fill-rule="nonzero"></path>
                    <path d="M129.186755,169.674419 C129.186755,169.674419 129.186755,169.674419 129.186755,169.674419 C129.186755,169.674419 129.186755,169.674419 129.186755,169.674419 C129.186755,169.674419 127.915232,168.653821 126.219868,166.782724 L126.219868,166.782724 C127.915232,168.653821 129.186755,169.674419 129.186755,169.674419 Z" id="XMLID_30_" fill="#AA9678" fill-rule="nonzero"></path>
                    <circle id="XMLID_29_" fill="#FFFFFF" fill-rule="nonzero" transform="translate(168.453205, 54.398970) rotate(-4.571494) translate(-168.453205, -54.398970) " cx="168.07937" cy="54.0237268" r="1"></circle>
                    <path d="M174.537748,61.2358804 L174.537748,61.2358804 L174.537748,61.2358804 C174.537748,61.2358804 174.537748,61.1508306 174.537748,61.2358804 L174.537748,61.2358804 C173.435762,59.7049834 172.333775,58.344186 171.231788,57.1534884 C171.231788,57.1534884 171.231788,57.1534884 171.231788,57.1534884 C171.231788,57.1534884 171.231788,57.1534884 171.231788,57.1534884 C171.231788,57.1534884 171.231788,57.1534884 171.231788,57.1534884 L171.231788,57.1534884 C170.723179,56.5581395 170.21457,56.0478405 169.70596,55.5375415 C169.536424,55.3674419 169.282119,55.1973422 169.112583,55.0272425 C168.77351,54.6870432 168.434437,54.4318937 168.095364,54.1767442 L168.095364,54.1767442 L168.095364,66.0837209 L172.588079,86.9209302 L172.588079,86.9209302 C172.672848,87.0910299 172.672848,87.2611296 172.757616,87.4312292 L175.89404,91.0033223 L175.89404,91.0033223 L179.2,91.0033223 C179.2,90.6631229 179.2,90.4079734 179.2,90.0677741 L179.2,90.0677741 C179.2,80.2019934 177.589404,70.7614618 174.707285,61.9162791 L174.707285,61.9162791 C174.622517,61.5760797 174.622517,61.4059801 174.537748,61.2358804 Z" id="XMLID_27_" fill="#BBBCBD" fill-rule="nonzero"></path>
                    <path d="M173.096689,88.8770764 C173.096689,88.8770764 173.096689,88.9621262 173.096689,88.9621262 C173.096689,88.9621262 173.096689,88.9621262 173.096689,89.0471761 C173.096689,89.0471761 173.096689,89.0471761 173.096689,89.0471761 C173.181457,89.5574751 173.181457,90.0677741 173.181457,90.5780731 C173.181457,90.6631229 173.181457,90.7481728 173.181457,90.8332226 C173.181457,90.8332226 173.181457,90.8332226 173.181457,90.8332226 C173.181457,90.8332226 173.181457,90.8332226 173.181457,90.8332226 C173.181457,90.9182724 173.181457,91.0033223 173.181457,91.0883721 C173.181457,91.5986711 173.181457,92.1089701 173.096689,92.5342193 C173.096689,92.5342193 173.096689,92.5342193 173.096689,92.5342193 C173.096689,92.5342193 173.096689,92.6192691 173.096689,92.6192691 C173.096689,92.6192691 173.096689,92.7043189 173.096689,92.7043189 C173.011921,93.2146179 172.927152,93.7249169 172.842384,94.2352159 C172.842384,94.2352159 172.842384,94.2352159 172.842384,94.2352159 L172.842384,94.2352159 L172.842384,94.2352159 C172.842384,94.2352159 172.842384,94.2352159 172.842384,94.2352159 L172.842384,94.2352159 L175.978808,90.7481728 L172.842384,87.1760797 C172.842384,87.1760797 172.842384,87.1760797 172.842384,87.1760797 C172.927152,87.7714286 173.011921,88.2817276 173.096689,88.8770764 Z" id="XMLID_25_" fill="#676A6A" fill-rule="nonzero"></path>
                    <path d="M173.011921,92.8744186 C173.011921,92.7893688 173.011921,92.7893688 173.011921,92.7043189 C173.096689,92.1940199 173.096689,91.6837209 173.096689,91.2584718 C173.096689,91.1734219 173.096689,91.0033223 173.096689,90.9182724 C173.096689,90.8332226 173.096689,90.7481728 173.096689,90.5780731 C173.096689,90.0677741 173.096689,89.5574751 173.011921,89.0471761 C173.011921,88.9621262 173.011921,88.9621262 173.011921,88.8770764 C172.927152,88.3667774 172.842384,87.8564784 172.757616,87.3461794 C172.672848,87.1760797 172.672848,87.0059801 172.588079,86.8358804 C172.249007,85.8152824 171.909934,84.9647841 171.401325,84.1993355 C171.316556,84.1142857 171.231788,84.0292359 171.231788,83.944186 C171.062252,83.7740864 170.977483,83.6039867 170.807947,83.433887 C170.638411,83.1787375 170.384106,83.0086379 170.129801,82.8385382 C170.045033,82.7534884 169.960265,82.7534884 169.875497,82.6684385 C169.70596,82.4983389 169.451656,82.413289 169.282119,82.3282392 C169.197351,82.3282392 169.112583,82.2431894 169.027815,82.2431894 C168.77351,82.1581395 168.434437,82.0730897 168.095364,82.0730897 C167.756291,82.0730897 167.501987,82.1581395 167.162914,82.2431894 C167.078146,82.2431894 166.993377,82.3282392 166.908609,82.3282392 C166.739073,82.413289 166.484768,82.4983389 166.315232,82.6684385 C166.230464,82.7534884 166.145695,82.7534884 166.060927,82.8385382 C165.806623,83.0086379 165.637086,83.2637874 165.382781,83.433887 C165.213245,83.6039867 165.128477,83.7740864 164.95894,83.944186 C164.874172,84.0292359 164.789404,84.1142857 164.789404,84.1993355 C164.280795,84.9647841 163.856954,85.8152824 163.602649,86.8358804 C163.602649,86.8358804 163.602649,86.9209302 163.602649,86.9209302 C163.433113,87.3461794 163.348344,87.8564784 163.263576,88.3667774 C163.263576,88.5368771 163.178808,88.6219269 163.178808,88.7920266 C163.09404,89.3873754 163.09404,89.8976744 163.009272,90.4930233 C163.009272,90.5780731 163.009272,90.6631229 163.009272,90.7481728 L163.009272,90.7481728 C163.009272,95.5960133 165.298013,99.5933555 168.095364,99.5933555 C168.603974,99.5933555 169.027815,99.4232558 169.536424,99.2531561 C169.621192,99.2531561 169.70596,99.1681063 169.790728,99.1681063 C169.960265,99.0830565 170.129801,98.9129568 170.299338,98.827907 C170.384106,98.7428571 170.468874,98.6578073 170.553642,98.5727575 C170.807947,98.4026578 170.977483,98.1475083 171.231788,97.8923588 C171.401325,97.7222591 171.486093,97.5521595 171.655629,97.29701 C171.740397,97.1269103 171.825166,97.0418605 171.909934,96.8717608 C172.07947,96.6166113 172.164238,96.3614618 172.333775,96.0212625 C172.418543,95.9362126 172.418543,95.8511628 172.503311,95.6810631 C172.672848,95.255814 172.757616,94.8305648 172.927152,94.4053156 C172.927152,93.8950166 173.011921,93.3847176 173.011921,92.8744186 Z M168.264901,89.6425249 C167.162914,89.6425249 166.315232,88.1966777 166.315232,86.3255814 C166.315232,84.5395349 167.162914,83.0086379 168.264901,83.0086379 C169.366887,83.0086379 170.21457,84.454485 170.21457,86.3255814 C170.21457,88.1966777 169.282119,89.6425249 168.264901,89.6425249 Z" id="Shape" fill="#000000" fill-rule="nonzero"></path>
                    <ellipse id="XMLID_22_" fill="#FFFFFF" fill-rule="nonzero" cx="168.264901" cy="86.3255814" rx="1.94966887" ry="3.31694352"></ellipse>
                    <path d="M163.517881,86.8358804 L163.517881,86.8358804 C163.856954,85.8152824 164.196026,84.9647841 164.704636,84.1993355 C164.789404,84.1142857 164.874172,84.0292359 164.874172,83.944186 C165.043709,83.7740864 165.128477,83.6039867 165.298013,83.433887 C165.46755,83.1787375 165.721854,83.0086379 165.976159,82.8385382 C166.060927,82.7534884 166.145695,82.7534884 166.230464,82.6684385 C166.4,82.4983389 166.654305,82.413289 166.823841,82.3282392 C166.908609,82.3282392 166.993377,82.2431894 167.078146,82.2431894 C167.33245,82.1581395 167.671523,82.0730897 168.010596,82.0730897 C168.349669,82.0730897 168.603974,82.1581395 168.943046,82.2431894 C169.027815,82.2431894 169.112583,82.3282392 169.197351,82.3282392 C169.366887,82.413289 169.621192,82.4983389 169.790728,82.6684385 C169.875497,82.7534884 169.960265,82.7534884 170.045033,82.8385382 C170.299338,83.0086379 170.468874,83.2637874 170.723179,83.433887 C170.892715,83.6039867 170.977483,83.7740864 171.14702,83.944186 C171.231788,84.0292359 171.316556,84.1142857 171.316556,84.1993355 C171.825166,84.9647841 172.249007,85.8152824 172.503311,86.8358804 L172.503311,86.8358804 L172.503311,86.8358804 L168.010596,65.9986711 L163.517881,86.8358804 L163.517881,86.8358804 L163.517881,86.8358804 Z" id="XMLID_21_" fill="#909393" fill-rule="nonzero"></path>
                    <path d="M107.994702,90.6631229 C107.994702,90.2378738 107.994702,89.8126246 107.909934,89.3873754 C107.909934,89.3873754 107.909934,89.3873754 107.909934,89.3873754 C107.825166,88.9621262 107.825166,88.6219269 107.740397,88.1966777 C107.740397,88.1966777 107.740397,88.1966777 107.740397,88.1966777 C107.655629,87.7714286 107.570861,87.4312292 107.401325,87.0910299 C107.401325,87.0910299 107.401325,87.0910299 107.401325,87.0910299 C107.316556,86.7508306 107.14702,86.3255814 106.977483,85.9853821 C106.977483,85.9853821 106.977483,85.9853821 106.977483,85.9853821 C106.807947,85.6451827 106.638411,85.3049834 106.468874,84.9647841 L106.468874,84.9647841 C105.875497,83.944186 105.197351,83.0086379 104.349669,82.2431894 C103.247682,81.2225914 101.976159,80.372093 100.619868,79.7767442 C100.619868,79.7767442 100.619868,79.7767442 100.619868,79.7767442 C99.9417219,79.5215947 99.1788079,79.2664452 98.5006623,79.0963455 C98.5006623,79.0963455 98.5006623,79.0963455 98.415894,79.0963455 C97.6529801,78.9262458 96.8900662,78.841196 96.1271523,78.841196 C95.3642384,78.841196 94.6013245,78.9262458 93.8384106,79.0963455 C93.8384106,79.0963455 93.7536424,79.0963455 93.7536424,79.0963455 C92.9907285,79.2664452 92.3125828,79.4365449 91.6344371,79.6916944 C91.6344371,79.6916944 91.6344371,79.6916944 91.5496689,79.6916944 C90.8715232,79.9468439 90.1933775,80.2870432 89.6,80.7122924 C89.6,80.7122924 89.6,80.7122924 89.6,80.7122924 C89.0066225,81.1375415 88.413245,81.5627907 87.9046358,82.0730897 L87.9046358,82.0730897 L87.8198675,82.0730897 C86.9721854,82.923588 86.2092715,83.8591362 85.615894,84.8797342 C85.615894,84.8797342 85.615894,84.8797342 85.615894,84.8797342 C85.4463576,85.2199336 85.2768212,85.5601329 85.1072848,85.9003322 C85.1072848,85.9003322 85.1072848,85.9853821 85.0225166,85.9853821 C84.8529801,86.3255814 84.7682119,86.5807309 84.6834437,86.9209302 C84.6834437,87.0059801 84.5986755,87.0059801 84.5986755,87.0910299 C84.5139073,87.4312292 84.4291391,87.6863787 84.3443709,88.0265781 C84.3443709,88.1116279 84.2596026,88.1966777 84.2596026,88.2817276 C84.1748344,88.6219269 84.1748344,88.8770764 84.0900662,89.2172757 C84.0900662,89.3023256 84.0900662,89.3873754 84.005298,89.4724252 C84.005298,89.8976744 83.9205298,90.3229236 83.9205298,90.7481728 C83.9205298,91.5136213 84.005298,92.2790698 84.1748344,93.0445183 C84.1748344,93.0445183 84.1748344,93.0445183 84.1748344,93.1295681 C84.3443709,93.8950166 84.5139073,94.5754153 84.8529801,95.3408638 C84.8529801,95.3408638 84.8529801,95.3408638 84.8529801,95.3408638 C85.4463576,96.7016611 86.2940397,97.9774086 87.3112583,99.0830565 C88.1589404,99.9335548 89.0913907,100.699003 90.1086093,101.294352 C90.1086093,101.294352 90.1086093,101.294352 90.1086093,101.294352 C90.4476821,101.464452 90.786755,101.634551 91.1258278,101.804651 C91.1258278,101.804651 91.210596,101.804651 91.210596,101.804651 C91.5496689,101.974751 91.8887417,102.059801 92.1430464,102.14485 C92.2278146,102.14485 92.2278146,102.14485 92.3125828,102.2299 C92.6516556,102.31495 92.9059603,102.4 93.2450331,102.48505 C93.3298013,102.48505 93.4145695,102.5701 93.4993377,102.5701 C93.8384106,102.65515 94.0927152,102.65515 94.4317881,102.740199 C94.5165563,102.740199 94.6013245,102.740199 94.6860927,102.825249 C95.1099338,102.825249 95.5337748,102.910299 95.9576159,102.910299 C97.6529801,102.910299 99.1788079,102.5701 100.619868,101.974751 C101.298013,101.634551 101.976159,101.294352 102.654305,100.869103 C103.925828,100.018605 105.027815,98.9129568 105.875497,97.6372093 C106.299338,96.9568106 106.638411,96.276412 106.977483,95.5960133 C107.570861,94.1501661 107.909934,92.5342193 107.909934,90.9182724 C107.909934,90.9182724 107.909934,90.8332226 107.909934,90.8332226 L107.909934,90.8332226 C107.994702,90.6631229 107.994702,90.6631229 107.994702,90.6631229 L107.994702,90.6631229 Z M96.0423841,89.2172757 C93.584106,89.2172757 91.5496689,87.1760797 91.5496689,84.7096346 C91.5496689,82.2431894 93.584106,80.2019934 96.0423841,80.2019934 C98.5006623,80.2019934 100.535099,82.2431894 100.535099,84.7096346 C100.535099,87.1760797 98.5006623,89.2172757 96.0423841,89.2172757 Z" id="Shape" fill="#000000" fill-rule="nonzero"></path>
                    <ellipse id="XMLID_18_" fill="#FFFFFF" fill-rule="nonzero" cx="96.0423841" cy="84.7096346" rx="4.49271523" ry="4.5076412"></ellipse>
                    <path d="M87.7350993,82.0730897 L87.7350993,82.0730897 L87.7350993,82.0730897 L87.7350993,82.0730897 L87.7350993,82.0730897 L96.0423841,56.6431894 C96.0423841,56.6431894 96.0423841,55.1122924 96.0423841,53.6664452 C96.0423841,53.241196 96.0423841,52.8159468 96.0423841,52.4757475 C96.0423841,52.3056478 96.0423841,52.220598 96.0423841,52.1355482 C96.0423841,51.9654485 96.0423841,51.7953488 96.0423841,51.6252492 C96.0423841,51.5401993 96.0423841,51.3700997 96.0423841,51.2850498 C96.0423841,51.2 96.0423841,51.0299003 96.0423841,50.9448505 C96.0423841,50.8598007 96.0423841,50.7747508 96.0423841,50.7747508 C96.0423841,50.689701 96.0423841,50.689701 96.0423841,50.689701 C91.4649007,49.7541528 86.7178808,49.2438538 81.8860927,49.2438538 C80.2754967,49.2438538 78.6649007,49.3289037 77.0543046,49.4139535 C76.8,49.4139535 76.6304636,49.4139535 76.3761589,49.4990033 C68.0688742,50.0943522 59.9311258,52.3056478 52.386755,55.792691 C45.9443709,58.7694352 39.8410596,62.6817276 34.5006623,67.2744186 L34.5006623,67.2744186 C34.5006623,67.2744186 34.5006623,67.2744186 34.5006623,67.2744186 C33.0596026,68.5501661 31.618543,69.8259136 30.2622517,71.186711 C30.007947,71.4418605 29.7536424,71.69701 29.4993377,71.9521595 C28.2278146,73.227907 26.9562914,74.5887043 25.7695364,75.9495017 C25.5152318,76.289701 25.2609272,76.5448505 25.0066225,76.8850498 C23.8198675,78.330897 22.6331126,79.7767442 21.5311258,81.2225914 C21.4463576,81.3076412 21.3615894,81.4777409 21.2768212,81.5627907 C20.2596026,83.0086379 19.2423841,84.454485 18.2251656,85.9853821 C18.0556291,86.2405316 17.8013245,86.5807309 17.6317881,86.8358804 C16.8688742,88.1116279 16.1059603,89.3873754 15.4278146,90.6631229 L52.9801325,90.6631229 L53.0649007,90.6631229 L87.7350993,82.0730897 Z" id="XMLID_17_" fill="#BBBCBD" fill-rule="nonzero"></path>
                    <path d="M119.523179,79.2664452 C119.607947,78.2458472 119.692715,77.310299 119.692715,76.289701 C119.777483,74.9289037 119.777483,73.6531561 119.862252,72.2923588 C119.862252,71.2717608 119.862252,70.2511628 119.862252,69.145515 C119.862252,68.8053156 119.862252,68.5501661 119.862252,68.2099668 C119.862252,65.4883721 119.692715,62.8518272 119.607947,60.1302326 L119.607947,60.1302326 L119.607947,60.1302326 C119.607947,60.1302326 119.607947,60.1302326 119.607947,60.1302326 C119.607947,60.1302326 119.607947,60.1302326 119.607947,60.1302326 C119.607947,60.1302326 119.523179,60.1302326 119.523179,60.0451827 C119.523179,60.0451827 119.438411,60.0451827 119.438411,59.9601329 C118.929801,59.7049834 117.743046,59.0245847 116.64106,58.344186 C116.64106,58.344186 116.556291,58.344186 116.556291,58.344186 C116.301987,58.1740864 116.047682,58.0039867 115.793377,57.9189369 C115.793377,57.9189369 115.793377,57.9189369 115.793377,57.9189369 C115.623841,57.833887 115.454305,57.6637874 115.284768,57.5787375 C115.284768,57.5787375 115.2,57.4936877 115.2,57.4936877 C115.030464,57.4086379 114.860927,57.323588 114.776159,57.2385382 C113.080795,56.30299 111.300662,55.5375415 109.52053,54.772093 C105.282119,52.9860465 99.5178808,51.3700997 96.2119205,50.6046512 L96.2119205,52.9009967 L96.2119205,53.4112957 L96.2119205,53.5813953 C96.2119205,55.1122924 96.2119205,56.5581395 96.2119205,56.5581395 L104.434437,81.90299 L104.434437,81.90299 C105.282119,82.6684385 106.045033,83.6039867 106.553642,84.6245847 L106.553642,84.6245847 C106.723179,84.9647841 106.892715,85.3049834 107.062252,85.6451827 C107.062252,85.6451827 107.062252,85.6451827 107.062252,85.6451827 C107.231788,85.9853821 107.401325,86.3255814 107.486093,86.7508306 C107.486093,86.7508306 107.486093,86.7508306 107.486093,86.7508306 C107.570861,87.0910299 107.740397,87.5162791 107.825166,87.8564784 C107.825166,87.8564784 107.825166,87.8564784 107.825166,87.8564784 C107.909934,88.2817276 107.994702,88.6219269 107.994702,89.0471761 C107.994702,89.0471761 107.994702,89.0471761 107.994702,89.0471761 C108.07947,89.4724252 108.07947,89.8976744 108.07947,90.3229236 L108.07947,90.3229236 L108.07947,90.4079734 L118.082119,90.4079734 C118.760265,86.7508306 119.268874,83.0086379 119.523179,79.2664452 C119.523179,79.4365449 119.523179,79.351495 119.523179,79.2664452 Z" id="XMLID_16_" fill="#E2DDDB" fill-rule="nonzero"></path>
                    <path d="M108.07947,126.894352 C110.368212,124.598007 112.487417,122.471761 114.521854,120.345515 C115.708609,119.069767 116.895364,117.79402 118.082119,116.603322 C126.474172,107.50299 132.577483,98.9129568 136.307285,87.9415282 C136.392053,87.6863787 136.476821,87.3461794 136.561589,86.9209302 C136.561589,86.8358804 136.561589,86.8358804 136.561589,86.7508306 C136.646358,86.3255814 136.731126,85.9003322 136.815894,85.3900332 C136.815894,85.0498339 136.900662,84.7096346 136.900662,84.3694352 C135.968212,79.6066445 134.188079,74.9289037 132.577483,70.3362126 C132.577483,70.3362126 132.577483,70.3362126 132.577483,70.4212625 C132.577483,70.4212625 132.577483,70.4212625 132.492715,70.3362126 C132.153642,70.0810631 131.899338,69.7408638 131.560265,69.4857143 C130.627815,68.6352159 129.695364,67.7847176 128.678146,66.9342193 C125.711258,64.4677741 122.659603,62.1714286 119.438411,60.2152824 L119.438411,60.2152824 C119.607947,62.9368771 119.692715,65.5734219 119.692715,68.2950166 C119.692715,68.6352159 119.692715,68.8903654 119.692715,69.2305648 C119.692715,70.2511628 119.692715,71.2717608 119.692715,72.3774086 C119.692715,73.738206 119.607947,75.0990033 119.523179,76.3747508 C119.438411,77.3953488 119.438411,78.330897 119.353642,79.351495 C119.353642,79.4365449 119.353642,79.5215947 119.353642,79.6916944 C119.01457,83.433887 118.590728,87.1760797 117.912583,90.8332226 L116.725828,96.4465116 C114.26755,106.482392 109.266225,115.497674 105.197351,124.853156 C104.095364,127.319601 103.078146,129.871096 102.145695,132.422591 C102.060927,132.677741 101.976159,132.93289 101.891391,133.18804 C103.162914,131.827243 104.349669,130.636545 105.197351,129.786047 C106.299338,128.680399 107.14702,127.74485 108.07947,126.894352 Z" id="XMLID_14_" fill="#FBB040" fill-rule="nonzero"></path>
                    <path d="M87.8198675,82.0730897 L87.8198675,82.0730897 C88.3284768,81.5627907 88.9218543,81.1375415 89.5152318,80.7122924 C89.5152318,80.7122924 89.5152318,80.7122924 89.5152318,80.7122924 C90.1086093,80.2870432 90.786755,79.9468439 91.4649007,79.6916944 C91.4649007,79.6916944 91.4649007,79.6916944 91.5496689,79.6916944 C92.2278146,79.4365449 92.9059603,79.1813953 93.6688742,79.0963455 C93.6688742,79.0963455 93.7536424,79.0963455 93.7536424,79.0963455 C94.5165563,78.9262458 95.2794702,78.841196 96.0423841,78.841196 C96.805298,78.841196 97.5682119,78.9262458 98.3311258,79.0963455 C98.3311258,79.0963455 98.3311258,79.0963455 98.415894,79.0963455 C99.1788079,79.2664452 99.8569536,79.4365449 100.535099,79.7767442 C100.535099,79.7767442 100.535099,79.7767442 100.535099,79.7767442 C101.891391,80.372093 103.162914,81.1375415 104.264901,82.2431894 L104.264901,82.2431894 L96.0423841,56.8983389 L87.8198675,82.0730897 Z" id="XMLID_13_" fill="#909393" fill-rule="nonzero"></path>
                    <path d="M84.9377483,95.3408638 C84.6834437,94.6604651 84.4291391,93.8950166 84.2596026,93.1295681 C84.2596026,93.1295681 84.2596026,93.1295681 84.2596026,93.0445183 C84.0900662,92.2790698 84.005298,91.5136213 84.005298,90.7481728 C84.005298,90.3229236 84.005298,89.8976744 84.0900662,89.4724252 C84.0900662,89.3873754 84.0900662,89.3023256 84.1748344,89.2172757 C84.1748344,88.8770764 84.2596026,88.6219269 84.3443709,88.2817276 C84.3443709,88.1966777 84.4291391,88.1116279 84.4291391,88.0265781 C84.5139073,87.6863787 84.5986755,87.4312292 84.6834437,87.0910299 C84.6834437,87.0059801 84.7682119,87.0059801 84.7682119,86.9209302 C84.8529801,86.5807309 85.0225166,86.2405316 85.1072848,85.9853821 C85.1072848,85.9853821 85.1072848,85.9003322 85.192053,85.9003322 C85.3615894,85.5601329 85.5311258,85.2199336 85.7006623,84.8797342 C85.7006623,84.8797342 85.7006623,84.8797342 85.7006623,84.8797342 C86.2940397,83.8591362 87.0569536,82.923588 87.9046358,82.0730897 L87.9046358,82.0730897 L53.1496689,90.6631229 L53.0649007,90.6631229 L87.4807947,99.0830565 C86.3788079,98.0624585 85.5311258,96.786711 84.9377483,95.3408638 C84.9377483,95.3408638 84.9377483,95.3408638 84.9377483,95.3408638 Z" id="XMLID_12_" fill="#676A6A" fill-rule="nonzero"></path>
                    <path d="M163.09404,88.7920266 C163.09404,88.6219269 163.178808,88.4518272 163.178808,88.3667774 C163.263576,87.8564784 163.348344,87.3461794 163.517881,86.9209302 C163.517881,86.8358804 163.517881,86.8358804 163.517881,86.7508306 L168.010596,65.9136213 L168.010596,54.0066445 C164.280795,50.9448505 160.381457,49.2438538 156.227815,49.2438538 C150.972185,49.2438538 146.140397,52.1355482 142.495364,55.7076412 C138.511258,59.6199336 135.459603,64.5528239 132.916556,69.4857143 C132.831788,69.7408638 132.662252,69.9109635 132.577483,70.166113 C133.340397,70.8465116 134.103311,71.5269103 134.866225,72.207309 C136.561589,73.738206 138.256954,75.3541528 139.86755,76.9700997 C140.630464,77.7355482 141.393377,78.5009967 142.156291,79.2664452 C142.919205,80.1169435 143.766887,80.882392 144.529801,81.7328904 C145.54702,82.8385382 146.564238,83.8591362 147.496689,84.9647841 C147.92053,85.3900332 148.344371,85.9003322 148.768212,86.3255814 C149.954967,87.6863787 151.141722,88.9621262 152.328477,90.3229236 L152.328477,90.3229236 C152.498013,90.4930233 152.66755,90.6631229 152.752318,90.7481728 L163.009272,90.7481728 C163.009272,90.6631229 163.009272,90.5780731 163.009272,90.4930233 C163.009272,89.9827243 163.009272,89.3873754 163.09404,88.7920266 Z" id="XMLID_11_" fill="#E2DDDB" fill-rule="nonzero"></path>
                    <path d="M132.662252,70.2511628 C132.662252,70.2511628 132.662252,70.2511628 132.662252,70.2511628 L132.662252,70.2511628 C132.662252,70.2511628 132.662252,70.2511628 132.662252,70.2511628 C132.662252,70.3362126 132.662252,70.3362126 132.662252,70.2511628 C132.662252,70.3362126 132.662252,70.3362126 132.662252,70.2511628 Z" id="XMLID_10_" fill="#E2DDDB" fill-rule="nonzero"></path>
                    <path d="M9.2397351,103.845847 C9.2397351,103.760797 9.32450331,103.675748 9.32450331,103.590698 C10.002649,101.889701 10.6807947,100.188704 11.4437086,98.4877076 C11.613245,97.9774086 11.8675497,97.5521595 12.1218543,97.1269103 C12.7152318,95.766113 13.3933775,94.4903654 14.0715232,93.2146179 C14.3258278,92.7043189 14.5801325,92.1940199 14.9192053,91.5986711 C15.0887417,91.3435216 15.2582781,91.0033223 15.4278146,90.7481728 C16.1907285,89.4724252 16.8688742,88.1966777 17.6317881,86.9209302 C17.8013245,86.6657807 18.0556291,86.3255814 18.2251656,86.0704319 C19.1576159,84.5395349 20.1748344,83.0936877 21.2768212,81.6478405 C21.3615894,81.5627907 21.4463576,81.392691 21.5311258,81.3076412 C22.6331126,79.7767442 23.8198675,78.330897 25.0066225,76.9700997 C25.2609272,76.6299003 25.5152318,76.3747508 25.7695364,76.0345515 C26.9562914,74.6737542 28.2278146,73.3129568 29.4993377,72.0372093 C29.7536424,71.7820598 30.007947,71.5269103 30.2622517,71.2717608 C31.618543,69.9109635 32.9748344,68.6352159 34.5006623,67.3594684 C34.5006623,67.3594684 34.5006623,67.3594684 34.5006623,67.3594684 C40.1801325,48.138206 57.7271523,34.1049834 78.410596,34.1049834 C86.7178808,34.1049834 95.0251656,36.4863787 102.145695,40.9089701 C109.435762,45.4166113 115.369536,51.9654485 119.184106,59.5348837 C119.184106,59.5348837 119.184106,59.6199336 119.268874,59.6199336 C119.353642,59.7900332 119.438411,59.9601329 119.607947,60.2152824 L119.607947,60.2152824 L119.607947,60.2152824 C119.607947,60.2152824 119.607947,60.2152824 119.607947,60.2152824 C119.607947,60.2152824 119.607947,60.2152824 119.607947,60.2152824 C122.829139,62.1714286 125.880795,64.4677741 128.847682,66.9342193 C129.864901,67.7847176 130.797351,68.6352159 131.729801,69.4857143 C132.068874,69.7408638 132.323179,70.0810631 132.662252,70.3362126 C132.662252,70.3362126 132.662252,70.3362126 132.662252,70.3362126 C132.662252,70.3362126 132.662252,70.3362126 132.662252,70.3362126 C132.74702,70.0810631 132.831788,69.9109635 133.001325,69.655814 C135.883444,51.2 144.021192,37.8471761 153.6,37.8471761 C160.805298,37.8471761 167.247682,45.4166113 171.14702,57.0684385 L171.14702,57.1534884 C171.14702,57.1534884 171.14702,57.1534884 171.14702,57.1534884 C172.249007,58.344186 173.350993,59.7049834 174.45298,61.1508306 L174.45298,61.1508306 C174.45298,61.1508306 174.45298,61.2358804 174.537748,61.2358804 L174.537748,61.2358804 L174.537748,61.2358804 C174.622517,61.4059801 174.622517,61.5760797 174.707285,61.7461794 L174.707285,61.7461794 L174.537748,61.1508306 C162.58543,25.7700997 129.271523,0.255149502 89.9390728,0.255149502 C40.6039735,0.255149502 0.678145695,40.3136213 0.678145695,89.8126246 C0.678145695,99.5933555 2.20397351,108.948837 5.08609272,117.70897 C5.08609272,117.70897 5.08609272,117.70897 5.08609272,117.62392 C5.6794702,114.987375 6.35761589,112.350831 7.1205298,109.799336 C7.7986755,107.75814 8.47682119,105.801993 9.2397351,103.845847 Z" id="XMLID_9_" fill="#525353" fill-rule="nonzero"></path>
                    <path d="M175.89404,90.8332226 L172.757616,94.3202658 L172.757616,94.3202658 C172.757616,94.3202658 172.757616,94.3202658 172.757616,94.3202658 C172.672848,94.745515 172.503311,95.1707641 172.333775,95.5960133 C172.333775,95.6810631 172.249007,95.766113 172.164238,95.9362126 C172.07947,96.1913621 171.909934,96.5315615 171.740397,96.786711 C171.655629,96.9568106 171.570861,97.0418605 171.486093,97.2119601 C171.316556,97.3820598 171.231788,97.6372093 171.062252,97.807309 C170.892715,98.0624585 170.638411,98.317608 170.384106,98.4877076 C170.299338,98.5727575 170.21457,98.6578073 170.129801,98.7428571 C169.960265,98.9129568 169.790728,98.9980066 169.621192,99.0830565 C169.536424,99.0830565 169.451656,99.1681063 169.366887,99.1681063 C168.943046,99.4232558 168.434437,99.5083056 167.925828,99.5083056 C165.128477,99.5083056 162.839735,95.5960133 162.839735,90.6631229 L162.839735,90.6631229 L162.839735,90.6631229 L152.582781,90.6631229 L152.582781,90.6631229 C152.582781,90.6631229 152.582781,90.6631229 152.582781,90.6631229 C154.53245,92.8744186 156.397351,95.0857143 158.177483,97.3820598 C158.177483,97.3820598 158.262252,97.4671096 158.262252,97.4671096 C160.042384,99.6784053 161.822517,101.889701 163.602649,104.100997 C163.687417,104.186047 163.772185,104.356146 163.856954,104.441196 C165.552318,106.567442 167.162914,108.693688 168.77351,110.819934 C168.943046,110.990033 169.112583,111.245183 169.282119,111.415282 C170.977483,113.711628 172.672848,116.007973 174.368212,118.219269 C174.368212,118.219269 174.368212,118.219269 174.368212,118.304319 C177.335099,109.544186 178.945695,100.273754 179.030464,90.5780731 L179.030464,90.5780731 L175.89404,90.8332226 L175.89404,90.8332226 Z" id="XMLID_8_" fill="#FFFFFF" fill-rule="nonzero"></path>
                    <path d="M76.3761589,49.4139535 C76.6304636,49.4139535 76.8,49.4139535 77.0543046,49.3289037 C78.6649007,49.2438538 80.2754967,49.158804 81.8860927,49.158804 C86.7178808,49.158804 91.4649007,49.669103 96.0423841,50.6046512 C96.0423841,50.6046512 96.0423841,50.6046512 96.0423841,50.689701 C96.0423841,50.689701 96.0423841,50.7747508 96.0423841,50.8598007 C96.0423841,50.9448505 96.0423841,51.0299003 96.0423841,51.2 C96.0423841,51.2850498 96.0423841,51.3700997 96.0423841,51.5401993 C96.0423841,51.710299 96.0423841,51.8803987 96.0423841,52.0504983 C96.0423841,52.1355482 96.0423841,52.3056478 96.0423841,52.3906977 C96.0423841,52.5607973 96.0423841,52.730897 96.0423841,52.9009967 L96.0423841,50.6046512 C99.2635762,51.3700997 105.027815,52.9860465 109.350993,54.772093 C111.131126,55.5375415 112.911258,56.3880399 114.606623,57.2385382 C114.691391,57.2385382 114.860927,57.323588 115.030464,57.4936877 C115.030464,57.4936877 115.115232,57.4936877 115.115232,57.5787375 C115.284768,57.6637874 115.454305,57.7488372 115.623841,57.9189369 C115.623841,57.9189369 115.623841,57.9189369 115.623841,57.9189369 C115.878146,58.0890365 116.13245,58.1740864 116.386755,58.344186 C116.386755,58.344186 116.471523,58.344186 116.471523,58.344186 C117.57351,58.9395349 118.760265,59.7049834 119.268874,59.9601329 C119.353642,59.9601329 119.353642,60.0451827 119.353642,60.0451827 C119.353642,60.0451827 119.438411,60.1302326 119.438411,60.1302326 L119.438411,60.1302326 C119.353642,59.9601329 119.268874,59.7900332 119.099338,59.5348837 C119.099338,59.5348837 119.099338,59.4498339 119.01457,59.4498339 C115.2,51.7953488 109.181457,45.2465116 101.976159,40.8239203 C94.8556291,36.4863787 86.5483444,34.0199336 78.2410596,34.0199336 C57.5576159,34.0199336 40.010596,48.0531561 34.3311258,67.2744186 C39.7562914,62.5966777 45.7748344,58.6843854 52.2172185,55.792691 C59.9311258,52.220598 68.1536424,50.0943522 76.3761589,49.4139535 Z" id="XMLID_7_" fill="#000000" fill-rule="nonzero"></path>
                    <path d="M96.1271523,52.9860465 L96.1271523,53.4963455" id="XMLID_6_"></path>
                    <path d="M142.580132,55.792691 C146.225166,52.220598 151.056954,49.3289037 156.312583,49.3289037 C160.466225,49.3289037 164.450331,51.0299003 168.095364,54.0916944 C168.095364,54.0916944 168.095364,54.0916944 168.095364,54.0916944 L168.095364,54.0916944 L168.095364,54.0916944 C168.434437,54.3468439 168.77351,54.6870432 169.112583,54.9421927 C169.282119,55.1122924 169.536424,55.282392 169.70596,55.4524917 C170.21457,55.9627907 170.723179,56.4730897 171.231788,57.0684385 L171.231788,57.0684385 C171.231788,57.0684385 171.231788,57.0684385 171.231788,57.0684385 C171.231788,57.0684385 171.231788,57.0684385 171.231788,57.0684385 L171.231788,57.0684385 L171.231788,56.9833887 C167.247682,45.3315615 160.890066,37.7621262 153.684768,37.7621262 C144.10596,37.7621262 135.968212,51.0299003 133.086093,69.5707641 L133.086093,69.5707641 C135.459603,64.6378738 138.596026,59.7049834 142.580132,55.792691 Z" id="XMLID_5_" fill="#000000" fill-rule="nonzero"></path>
                    <path d="M57.981457,173.416611 C58.8291391,173.756811 59.592053,174.01196 60.4397351,174.26711 C69.6794702,177.499003 79.597351,179.28505 89.9390728,179.28505 C101.721854,179.28505 112.996026,176.988704 123.25298,172.821262 C123.761589,172.566113 124.354967,172.396013 124.863576,172.140864 C125.711258,171.800664 126.643709,171.375415 127.491391,170.950166 C128.254305,170.609967 129.017219,170.269767 129.780132,169.844518 C129.610596,169.844518 129.44106,169.929568 129.271523,169.929568 L129.271523,169.929568 C126.050331,170.269767 122.913907,170.354817 119.777483,169.844518 C101.382781,167.207973 97.3139073,158.277741 97.9072848,149.092359 C96.5509934,148.32691 95.2794702,147.476412 93.8384106,146.455814 C79.6821192,136.164784 71.2900662,125.193355 71.2900662,125.193355 C71.2900662,125.193355 82.2251656,133.613289 98.5006623,139.992027 C98.8397351,140.162126 99.1788079,140.247176 99.5178808,140.417276 C100.280795,137.780731 101.213245,135.229236 101.976159,133.01794 L101.976159,133.01794 C102.060927,132.762791 102.145695,132.507641 102.230464,132.252492 C103.162914,129.700997 104.180132,127.149502 105.282119,124.683056 C109.350993,115.327575 114.352318,106.227243 116.810596,96.276412 L117.997351,90.6631229 L107.994702,90.6631229 L107.994702,90.6631229 L107.994702,90.6631229 C107.994702,90.6631229 107.994702,90.6631229 107.994702,90.6631229 L107.994702,90.6631229 L107.994702,90.6631229 C107.994702,90.6631229 107.994702,90.7481728 107.994702,90.7481728 C107.994702,92.4491694 107.655629,93.9800664 107.062252,95.4259136 C106.723179,96.1063123 106.384106,96.8717608 105.960265,97.4671096 C105.112583,98.7428571 104.010596,99.848505 102.739073,100.699003 C102.060927,101.124252 101.382781,101.464452 100.704636,101.804651 C99.2635762,102.4 97.6529801,102.740199 96.0423841,102.740199 C95.618543,102.740199 95.194702,102.740199 94.7708609,102.65515 C94.6860927,102.65515 94.6013245,102.65515 94.5165563,102.5701 C94.1774834,102.5701 93.9231788,102.48505 93.584106,102.4 C93.4993377,102.4 93.4145695,102.31495 93.3298013,102.31495 C92.9907285,102.2299 92.7364238,102.14485 92.397351,102.059801 C92.3125828,102.059801 92.3125828,102.059801 92.2278146,101.974751 C91.8887417,101.889701 91.5496689,101.719601 91.2953642,101.634551 C91.2953642,101.634551 91.210596,101.634551 91.210596,101.634551 C90.8715232,101.464452 90.5324503,101.294352 90.1933775,101.124252 C90.1933775,101.124252 90.1933775,101.124252 90.1933775,101.124252 C89.1761589,100.528904 88.2437086,99.848505 87.3960265,98.9129568 L52.9801325,90.4930233 L15.4278146,90.4930233 C15.2582781,90.7481728 15.0887417,91.0883721 14.9192053,91.3435216 C14.6649007,91.8538206 14.3258278,92.3641196 14.0715232,92.9594684 C13.3933775,94.2352159 12.7152318,95.5960133 12.1218543,96.8717608 C11.8675497,97.29701 11.6980132,97.807309 11.4437086,98.2325581 C10.6807947,99.9335548 10.002649,101.634551 9.32450331,103.335548 C9.32450331,103.420598 9.2397351,103.505648 9.2397351,103.590698 C8.47682119,105.546844 7.7986755,107.58804 7.20529801,109.629236 C6.44238411,112.180731 5.76423841,114.817276 5.17086093,117.453821 C11.1046358,135.569435 22.5483444,151.133555 37.6370861,162.019934 C38.0609272,162.360133 38.5695364,162.615282 38.9933775,162.955482 C41.5364238,164.741528 44.1642384,166.442525 46.8768212,167.888372 C50.4370861,170.099668 54.1668874,171.885714 57.981457,173.416611 Z" id="XMLID_4_" fill="#FFFFFF" fill-rule="nonzero"></path>
                    <path d="M119.607947,145.520266 C119.438411,146.455814 119.353642,147.391362 119.353642,148.32691 C119.268874,149.942857 119.438411,151.558804 119.692715,153.004651 C119.862252,154.025249 120.031788,154.960797 120.286093,155.896346 C120.709934,157.257143 121.133775,158.53289 121.727152,159.723588 C122.32053,160.914286 122.913907,162.019934 123.507285,162.955482 C123.676821,163.295681 123.931126,163.63588 124.100662,163.89103 C124.439735,164.316279 124.69404,164.741528 125.033113,165.166777 C125.456954,165.677076 125.880795,166.187375 126.219868,166.612625 C127.830464,168.483721 129.186755,169.504319 129.186755,169.504319 C129.186755,169.504319 129.186755,169.504319 129.186755,169.589369 C129.186755,169.674419 129.186755,169.759468 129.271523,169.844518 L129.271523,169.844518 C129.44106,169.844518 129.610596,169.759468 129.780132,169.759468 C133.764238,169.249169 137.748344,168.143522 141.73245,166.782724 C143.766887,166.017276 145.801325,165.251827 147.750993,164.401329 C148.344371,164.146179 148.937748,163.80598 149.531126,163.550831 C169.960265,153.6 187.083444,136.079734 187.083444,136.079734 C161.483444,148.752159 136.307285,148.24186 119.607947,145.520266 Z" id="XMLID_3_" fill="#9F2255" fill-rule="nonzero"></path>
                    <path d="M168.943046,110.990033 C167.33245,108.863787 165.637086,106.737542 164.02649,104.611296 C163.941722,104.526246 163.856954,104.356146 163.772185,104.271096 C161.992053,102.059801 160.211921,99.848505 158.431788,97.6372093 C158.431788,97.6372093 158.34702,97.5521595 158.34702,97.5521595 C156.482119,95.255814 154.617219,93.0445183 152.752318,90.8332226 C152.66755,90.6631229 152.498013,90.5780731 152.413245,90.4079734 C151.22649,89.0471761 150.039735,87.7714286 148.85298,86.4106312 C148.429139,85.9853821 148.005298,85.4750831 147.581457,85.0498339 C146.564238,83.944186 145.631788,82.923588 144.61457,81.8179402 C143.851656,80.9674419 143.003974,80.2019934 142.24106,79.351495 C141.478146,78.5860465 140.715232,77.820598 139.952318,77.0551495 C138.341722,75.4392027 136.646358,73.8232558 134.950993,72.2923588 C134.188079,71.6119601 133.425166,70.9315615 132.662252,70.2511628 C132.662252,70.2511628 132.662252,70.2511628 132.662252,70.2511628 C134.272848,74.9289037 136.137748,79.6066445 137.070199,84.454485 C137.324503,85.7302326 137.49404,86.9209302 137.663576,88.1116279 C139.952318,104.866445 134.527152,115.837874 126.050331,130.296346 C125.456954,131.316944 124.778808,132.422591 124.18543,133.443189 C122.235762,136.675083 120.964238,139.821927 120.286093,142.713621 C120.031788,143.649169 119.862252,144.584718 119.692715,145.520266 C136.392053,148.24186 161.483444,148.752159 187.168212,136.079734 C187.168212,136.079734 182.166887,128.680399 174.537748,118.474419 C172.842384,116.178073 171.14702,113.881728 169.451656,111.670432 C169.282119,111.415282 169.112583,111.160133 168.943046,110.990033 Z" id="XMLID_2_" fill="#E2066F" fill-rule="nonzero"></path>
                    <path d="M129.186755,169.674419 C129.186755,169.674419 127.915232,168.653821 126.219868,166.782724 C125.796026,166.357475 125.456954,165.847176 125.033113,165.336877 C124.69404,164.911628 124.439735,164.486379 124.100662,164.06113 C123.931126,163.72093 123.676821,163.465781 123.507285,163.125581 C122.913907,162.104983 122.32053,161.084385 121.727152,159.893688 C121.218543,158.70299 120.709934,157.427243 120.286093,156.066445 C120.031788,155.130897 119.777483,154.195349 119.692715,153.174751 C119.438411,151.728904 119.353642,150.112957 119.353642,148.49701 C119.353642,147.561462 119.438411,146.625914 119.607947,145.690365 C119.777483,144.754817 119.94702,143.819269 120.201325,142.883721 C120.964238,139.992027 122.150993,136.930233 124.100662,133.613289 C124.100662,133.613289 124.100662,133.613289 124.100662,133.613289 C124.69404,132.507641 125.372185,131.487043 125.965563,130.466445 C134.442384,116.007973 139.86755,105.121595 137.578808,88.2817276 C137.409272,87.0910299 137.239735,85.8152824 136.98543,84.6245847 C136.900662,85.4750831 136.731126,86.2405316 136.561589,86.8358804 C136.561589,86.9209302 136.561589,86.9209302 136.561589,87.0059801 C136.476821,87.4312292 136.392053,87.7714286 136.307285,88.0265781 C132.577483,98.9980066 126.474172,107.58804 118.082119,116.688372 C116.980132,117.96412 115.793377,119.154817 114.521854,120.430565 C112.487417,122.556811 110.283444,124.768106 108.07947,126.979402 C107.14702,127.91495 106.21457,128.765449 105.282119,129.700997 C104.434437,130.551495 103.247682,131.742193 101.976159,133.10299 L101.976159,133.10299 C101.213245,135.314286 100.280795,137.865781 99.5178808,140.502326 C99.1788079,140.332226 98.8397351,140.247176 98.5006623,140.077076 C82.2251656,133.783389 71.2900662,125.278405 71.2900662,125.278405 C71.2900662,125.278405 79.6821192,136.249834 93.8384106,146.540864 C95.194702,147.561462 96.5509934,148.41196 97.9072848,149.177409 C97.3139073,158.447841 101.382781,167.293023 119.777483,169.929568 C122.913907,170.354817 126.050331,170.354817 129.271523,170.014618 C129.271523,169.844518 129.186755,169.759468 129.186755,169.674419 C129.186755,169.674419 129.186755,169.674419 129.186755,169.674419 Z" id="XMLID_1_" fill="#000000" fill-rule="nonzero"></path>
                </g>
            </g>
        </g>
    </g>
</svg>