<svg width="32" height="32" viewBox="0 0 32 32" fill="none" xmlns="http://www.w3.org/2000/svg">
<path d="M24.7019 3.92994V21.3335H7.29835V3.92994H24.7019ZM26.9475 0.561523H5.05274C4.43519 0.561523 3.92993 1.06679 3.92993 1.68433V23.5791C3.92993 24.1966 4.43519 24.7019 5.05274 24.7019H26.9475C27.565 24.7019 28.0703 24.1966 28.0703 23.5791V1.68433C28.0703 1.06679 27.5706 0.561523 26.9475 0.561523Z" fill="#29498E"/>
<path d="M19.1384 28.0703H5.00221C4.41274 28.0703 3.92993 28.5475 3.92993 29.1426V30.3665C3.92993 30.9559 4.40712 31.4387 5.00221 31.4387H19.1384C19.7278 31.4387 20.2106 30.9615 20.2106 30.3665V29.1426C20.2106 28.5475 19.7334 28.0703 19.1384 28.0703Z" fill="black"/>
</svg>
