<svg width="32" height="32" viewBox="0 0 32 32" fill="none" xmlns="http://www.w3.org/2000/svg">
<mask id="mask0_3766_180" style="mask-type:alpha" maskUnits="userSpaceOnUse" x="3" y="0" width="27" height="32">
<path d="M29.7143 0.761963H3.04761V31.2382H29.7143V0.761963Z" fill="white"/>
</mask>
<g mask="url(#mask0_3766_180)">
<path d="M22.5324 14.5112L20.4694 14.0529L22.074 16.3444V23.4482L27.5756 18.8651V11.0739L25.054 11.9905L22.5324 14.5112Z" fill="#41B883"/>
<path d="M9.69536 14.5112L11.7584 14.0529L10.1538 16.3444V23.4482L4.65222 18.8651V11.0739L7.17379 11.9905L9.69536 14.5112Z" fill="#41B883"/>
<path fill-rule="evenodd" clip-rule="evenodd" d="M10.8416 16.8026L12.6754 14.0529L13.8216 14.7403H18.4062L19.5524 14.0529L21.3863 16.8026V27.1146L20.0108 29.177L18.4062 30.781H13.8216L12.2169 29.177L10.8416 27.1146V16.8026Z" fill="#41B883"/>
<path d="M22.0741 27.802L25.0541 24.823V21.844L22.0741 24.3647V27.802Z" fill="#41B883"/>
<path d="M10.1539 27.802L7.17383 24.823V21.844L10.1539 24.3647V27.802Z" fill="#41B883"/>
<path fill-rule="evenodd" clip-rule="evenodd" d="M19.094 0.761963H18.4063V5.1801L19.6679 2.12457L19.094 0.761963ZM17.9628 6.25415L17.4894 6.49079V0.761963H16.5724V9.62147L17.9628 6.25415ZM16.5724 11.6178L20.0842 3.11281L20.9279 5.11587L18.1771 13.8237H16.5724V11.6178ZM15.6555 9.65476V0.761963H14.7385V6.49079L14.3569 6.30001L15.6555 9.65476ZM13.8216 4.91728V0.761963H13.134L12.6541 1.90116L13.8216 4.91728ZM12.2284 2.91191L15.6555 11.7653V13.8237H14.2801L11.3 5.11587L12.2284 2.91191Z" fill="#455C71"/>
<path fill-rule="evenodd" clip-rule="evenodd" d="M4.42301 10.1573L14.2801 13.8237H14.5093L11.5293 5.11593L3.04761 4.42847L4.42301 10.1573ZM28.0341 10.1573L18.1771 13.8237H17.9478L20.6987 5.11593L29.4095 4.42847L28.0341 10.1573Z" fill="#41B883"/>
<path d="M21.3864 4.42841L26.2003 3.97011L22.991 0.761963H19.7817L21.3864 4.42841Z" fill="#455C71"/>
<path d="M10.8416 4.42841L6.02771 3.97011L9.23699 0.761963H12.4462L10.8416 4.42841Z" fill="#455C71"/>
<path d="M6.62854 4.72388L11.5809 5.10483L14.5523 13.8287H14.2476L11.0476 12.6477L6.62854 4.72388Z" fill="#455C71"/>
<path d="M25.7524 4.72388L20.6477 5.10483L17.8286 13.8287L18.2096 13.8211L21.181 12.7239L25.7524 4.72388Z" fill="#455C71"/>
<path d="M12.2666 14.6287L12.6476 14.0192L13.9428 14.6287H18.5142L19.5047 14.0192L19.9618 14.6287L16.1142 21.1811L12.2666 14.6287Z" fill="#455C71"/>
<path fill-rule="evenodd" clip-rule="evenodd" d="M12.2131 0.761963L16.0925 10.7838L20.2306 0.761963H12.2131Z" fill="#41B883"/>
</g>
</svg>
