<svg width="32" height="32" viewBox="0 0 32 32" fill="none" xmlns="http://www.w3.org/2000/svg">
<g clip-path="url(#clip0_3766_159)">
<mask id="mask0_3766_159" style="mask-type:alpha" maskUnits="userSpaceOnUse" x="1" y="0" width="30" height="32">
<path d="M30.9677 0.516113H1.54834V32H30.9677V0.516113Z" fill="white"/>
</mask>
<g mask="url(#mask0_3766_159)">
<path d="M16.1548 0.516113L1.58594 5.69103L3.80804 24.8787L16.1548 31.6903L28.5015 24.8787L30.7236 5.69103L16.1548 0.516113Z" fill="#DD0031"/>
<mask id="mask1_3766_159" style="mask-type:alpha" maskUnits="userSpaceOnUse" x="1" y="0" width="30" height="32">
<path d="M16.1548 0.516113L1.58594 5.69103L3.80804 24.8787L16.1548 31.6903L28.5015 24.8787L30.7236 5.69103L16.1548 0.516113Z" fill="white"/>
</mask>
<g mask="url(#mask1_3766_159)">
<path fill-rule="evenodd" clip-rule="evenodd" d="M16.1548 0.516113V3.97645V3.96086V19.7506V31.6903L28.5016 24.8787L30.7236 5.69103L16.1548 0.516113Z" fill="#C3002F"/>
</g>
<path d="M20.4252 15.301L19.0276 14.9905L20.1146 16.5429V21.3551L23.8415 18.2504V12.9725L22.1333 13.5934L20.4252 15.301Z" fill="white"/>
<path d="M11.7291 15.301L13.1266 14.9905L12.0397 16.5429V21.3551L8.31274 18.2504V12.9725L10.0209 13.5934L11.7291 15.301Z" fill="white"/>
<path fill-rule="evenodd" clip-rule="evenodd" d="M12.4902 16.8343L13.7289 14.9678L14.5031 15.4344H17.5999L18.3741 14.9678L19.6128 16.8343V23.8339L18.6838 25.2338L17.5999 26.3226H14.5031L13.4193 25.2338L12.4902 23.8339V16.8343Z" fill="white"/>
<path d="M20.1146 24.3045L22.1334 22.2865V20.2684L20.1146 21.976V24.3045Z" fill="white"/>
<path d="M12.0396 24.3045L10.0209 22.2865V20.2684L12.0396 21.976V24.3045Z" fill="white"/>
<path fill-rule="evenodd" clip-rule="evenodd" d="M14.0584 5.98706L12.816 8.93648L14.8348 14.8353H15.7665V5.98706H14.0584ZM16.3877 5.98706V14.8353H17.4747L19.3381 8.93648L18.0958 5.98706H16.3877Z" fill="white"/>
<path d="M14.8348 14.8354L8.15742 12.3517L7.22571 8.47083L12.9714 8.93653L14.9901 14.8354H14.8348Z" fill="white"/>
<path d="M17.4748 14.8354L24.1521 12.3517L25.0838 8.47083L19.1829 8.93653L17.3195 14.8354H17.4748Z" fill="white"/>
<path d="M19.6488 8.47078L22.9098 8.16033L20.7358 5.98706H18.5618L19.6488 8.47078Z" fill="white"/>
<path d="M12.5055 8.47078L9.24451 8.16033L11.4185 5.98706H13.5925L12.5055 8.47078Z" fill="white"/>
</g>
</g>
<defs>
<clipPath id="clip0_3766_159">
<rect width="32" height="32" fill="white"/>
</clipPath>
</defs>
</svg>
