<svg width="32" height="32" viewBox="0 0 32 32" fill="none" xmlns="http://www.w3.org/2000/svg">
<mask id="mask0_3766_139" style="mask-type:alpha" maskUnits="userSpaceOnUse" x="1" y="0" width="30" height="32">
<path d="M30.7692 0H1.23071V32H30.7692V0Z" fill="white"/>
</mask>
<g mask="url(#mask0_3766_139)">
<mask id="mask1_3766_139" style="mask-type:alpha" maskUnits="userSpaceOnUse" x="1" y="0" width="30" height="32">
<path fill-rule="evenodd" clip-rule="evenodd" d="M1.23071 0.0424805H30.4495V31.8613H1.23071V0.0424805Z" fill="white"/>
</mask>
<g mask="url(#mask1_3766_139)">
<path fill-rule="evenodd" clip-rule="evenodd" d="M29.8578 12.1866L27.6754 15.9319L29.8535 19.67C30.6481 21.0337 30.6481 22.6619 29.8535 24.0256C29.059 25.3893 27.6357 26.2034 26.0465 26.2034H21.6902L19.6756 29.6605C18.8727 31.0386 17.4345 31.8613 15.8286 31.8613C14.2225 31.8613 12.7843 31.0386 11.9813 29.6605L9.96683 26.2034H5.6019C4.02418 26.2034 2.61127 25.3952 1.82239 24.0414C1.03351 22.6875 1.03351 21.071 1.82239 19.7172L4.00483 15.9718L1.82667 12.2338C1.03206 10.8701 1.03206 9.24188 1.82667 7.87819C2.62129 6.5145 4.04452 5.70038 5.63375 5.70038H9.9901L12.0046 2.24326C12.8075 0.865305 14.2459 0.0424805 15.8518 0.0424805C17.4578 0.0424805 18.8959 0.865219 19.6989 2.24326L21.7134 5.70038H26.0783C27.6561 5.70038 29.069 6.50865 29.8579 7.86244C30.6467 9.21622 30.6467 10.8327 29.8578 12.1866ZM15.8518 0.99541C14.5934 0.995367 13.4666 1.63998 12.8374 2.7197L11.1006 5.70038H20.6028L18.866 2.7197C18.2369 1.63998 17.11 0.99541 15.8518 0.99541ZM21.5988 24.4545L21.5521 24.5345L21.5453 24.5462L21.4333 24.7384L20.838 25.7601L20.7355 25.936L19.4985 28.0591L19.1254 28.6992L18.8627 29.15L18.8528 29.1523L18.8469 29.1624C18.2178 30.2421 17.0701 30.5531 15.8118 30.5531C14.5553 30.5531 13.4508 30.2439 12.8212 29.1669L12.8013 29.1619L12.1628 28.0661L12.0028 27.7917L5.11534 15.9718L6.36462 13.828L6.3648 13.8287L8.56831 10.049L8.56677 10.0487L8.81693 9.61948L8.81853 9.61979L10.548 6.65327L21.1585 6.64958L26.5649 15.932L21.5988 24.4545ZM29.0207 23.5491C28.3999 24.6144 27.288 25.2505 26.0465 25.2505H22.2454L27.1201 16.8848L29.0206 20.1464C29.6414 21.2118 29.6414 22.4838 29.0207 23.5491ZM2.65528 23.5649C3.27033 24.6204 4.37185 25.2505 5.6019 25.2505H9.41157L4.56011 16.9247L2.65528 20.1936C2.04028 21.2491 2.04028 22.5094 2.65528 23.5649ZM2.65961 11.7574C2.03882 10.692 2.03882 9.41991 2.65961 8.35462C3.28035 7.28927 4.39219 6.65327 5.63375 6.65327H9.43477L4.56011 15.0189L2.65961 11.7574ZM26.0783 6.65327C27.3084 6.65327 28.41 7.28336 29.025 8.33887C29.64 9.39431 29.6399 10.6546 29.025 11.7101L27.1201 14.9791L22.2687 6.65327H26.0783Z" fill="#03C4E8"/>
</g>
<path d="M21.0246 17.4526L19.3862 17.0924L20.6606 18.8934V24.4767L24.6974 20.8746L25.0297 14.751L23.0272 15.4714L21.0246 17.4526Z" fill="#03C4E8"/>
<path d="M10.8301 17.4526L12.4685 17.0924L11.1942 18.8934V24.4767L7.15738 20.8746L6.82507 14.751L8.8276 15.4714L10.8301 17.4526Z" fill="#03C4E8"/>
<path fill-rule="evenodd" clip-rule="evenodd" d="M11.7404 19.2535L13.1967 17.0923L14.107 17.6326H17.7479L18.6581 17.0923L20.1145 19.2535V27.3583L18.4125 30.5723H13.1101L11.7404 27.3583V19.2535Z" fill="#03C4E8"/>
<path d="M20.6606 27.8987L23.0272 25.5573V23.2159L20.6606 25.1971V27.8987Z" fill="#03C4E8"/>
<path d="M11.1941 27.8987L8.82751 25.5573V23.2159L11.1941 25.1971V27.8987Z" fill="#03C4E8"/>
<path fill-rule="evenodd" clip-rule="evenodd" d="M13.5607 6.64624L12.1044 10.0683L14.471 16.9123H15.5633V6.64624H13.5607ZM16.2914 6.64624V16.9123H17.5658L19.7503 10.0683L18.294 6.64624H16.2914Z" fill="#03C4E8"/>
<path d="M14.4711 16.9123L6.64308 14.0306L5.55078 9.52795L12.2865 10.0683L14.6531 16.9123H14.4711Z" fill="#03C4E8"/>
<path d="M17.5659 16.9123L25.3939 14.0306L26.4861 9.52795L19.5683 10.0683L17.3838 16.9123H17.5659Z" fill="#03C4E8"/>
<path d="M20.1145 9.52796L23.6052 9.16772L21.3889 6.64624H18.8402L20.1145 9.52796Z" fill="#03C4E8"/>
<path d="M11.7402 9.52796L8.24951 9.16772L10.4659 6.64624H13.0146L11.7402 9.52796Z" fill="#03C4E8"/>
</g>
</svg>
