<?xml version="1.0" encoding="UTF-8"?>
<!-- Generator: Adobe Illustrator 24.1.1, SVG Export Plug-In . SVG Version: 6.00 Build 0)  -->
<svg version="1.1" id="Layer_1" xmlns="http://www.w3.org/2000/svg" xmlns:xlink="http://www.w3.org/1999/xlink" x="0px" y="0px" viewBox="0 0 512 512" style="enable-background:new 0 0 512 512;" xml:space="preserve">
<style type="text/css">
	.st0{fill-rule:evenodd;clip-rule:evenodd;fill:#E55638;}
	.st1{fill-rule:evenodd;clip-rule:evenodd;fill:#F4C942;}
	.st2{fill-rule:evenodd;clip-rule:evenodd;fill:#7B8FEA;}
	.st3{fill-rule:evenodd;clip-rule:evenodd;fill:#D97EE8;}
</style>
<g>
	<path class="st0" d="M446.1,17.1c20.6,10.9,37.4,27.8,48.3,48.4c11.1,20.9,17.1,41.6,17.1,98.6v100.2c0,1.3-0.8,2.5-2,3   c-1.2,0.5-2.6,0.2-3.5-0.7v0l-37.8-37.8c-3-3-4.7-7.1-4.7-11.3v-46.3c0-42.8-4.5-58.3-12.8-74C442.6,81.7,430,69,414.5,60.8   c-15.4-8.3-30.8-12.7-72.4-12.8l-62.4,0c-1.3,0-2.5-0.8-2.9-2s-0.2-2.6,0.7-3.5l37.8-37.8c3-3,7.1-4.7,11.3-4.7h21.2   C404.6,0,425.3,5.9,446.1,17.1z M367.8,80c35.3,0,63.9,28.7,63.9,64v40.5c0,1.3-0.8,2.4-1.9,2.9s-2.5,0.3-3.5-0.6l-51.5-49.3   c-3.4-3.4-7.4-5.9-11.6-7.4c-3.6-1.4-7.4-2.1-11.3-2.1h-152c-1.3,0-2.5-0.8-3-2c-0.5-1.2-0.2-2.6,0.7-3.5l37.8-37.9   c3-3,7-4.7,11.3-4.7H367.8z"/>
	<path class="st1" d="M469,277.5l37.8,37.8c3,3,4.7,7.1,4.7,11.3v21.3c0,57-5.9,77.7-17.1,98.6c-10.9,20.6-27.7,37.5-48.3,48.4   c-20.8,11.1-41.5,17.1-98.4,17.1h-100c-1.3,0-2.5-0.8-2.9-2s-0.2-2.6,0.7-3.5v0l37.8-37.8c3-3,7.1-4.7,11.3-4.7h46.2   c42.7,0,58.2-4.5,73.8-12.8c15.4-8.2,28-20.8,36.2-36.3c8.3-15.6,12.8-31.2,12.8-74v-61.2c0-1.3,0.8-2.4,2-2.9   C466.7,276.3,468.1,276.6,469,277.5z M389.2,197.5l37.8,37.9c3,3,4.7,7.1,4.7,11.3V368c0,35.3-28.6,64-63.9,64h-40.4   c-1.3,0-2.4-0.8-2.9-1.9s-0.3-2.5,0.6-3.5v0l49.2-51.6c3.4-3.4,5.9-7.4,7.4-11.7c1.4-3.6,2.1-7.4,2-11.3V199.7c0-1.3,0.8-2.5,2-3   C386.9,196.3,388.3,196.5,389.2,197.5z"/>
	<path class="st2" d="M6,245.5l37.8,37.8c3,3,4.7,7.1,4.7,11.3v46.3c0,42.8,4.4,58.3,12.8,74c8.2,15.4,20.8,28.1,36.2,36.3   c15.6,8.4,31.1,12.8,73.8,12.8h61.1c1.3,0,2.5,0.8,3,2c0.5,1.2,0.2,2.6-0.7,3.5l-37.8,37.8c-3,3-7.1,4.7-11.3,4.7h-21.2   c-56.9,0-77.6-5.9-98.4-17.1c-20.6-10.9-37.4-27.8-48.3-48.4c-11-20.7-16.9-41.1-17.1-96.9l0-101.9c0-1.3,0.8-2.4,2-2.9   C3.7,244.3,5.1,244.6,6,245.5z M85.8,325.2L85.8,325.2l51.5,49.3c3.4,3.4,7.4,5.9,11.6,7.4c3.5,1.3,7.3,2.1,11.3,2.1h152   c1.3,0,2.5,0.8,2.9,2c0.5,1.2,0.2,2.6-0.7,3.5l-37.8,37.9c-3,3-7.1,4.7-11.3,4.7H144.2c-17,0-33.2-6.8-45.2-18.8   c-12-12-18.7-28.3-18.7-45.2v-40.5c0-1.3,0.8-2.4,1.9-2.9S84.9,324.3,85.8,325.2z"/>
	<path class="st3" d="M184.7,80c1.3,0,2.4,0.8,2.9,1.9c0.5,1.2,0.3,2.5-0.6,3.5L137.8,137c-3.4,3.4-5.9,7.4-7.4,11.7   c-1.4,3.6-2.1,7.4-2.1,11.3v152.3c0,1.3-0.8,2.4-2,2.9c-1.2,0.5-2.6,0.2-3.5-0.7L85,276.7c-3-3-4.7-7.1-4.7-11.3V144   c0-35.3,28.6-64,63.9-64H184.7z M264.3,0c1.3,0,2.5,0.8,2.9,2s0.2,2.6-0.7,3.5l-37.8,37.8c-3,3-7.1,4.7-11.3,4.7h-46.2   c-42.7,0-58.2,4.5-73.8,12.8C82,69,69.4,81.7,61.2,97.1c-8.3,15.5-12.7,30.8-12.8,72.6l0,62.6c0,1.3-0.8,2.4-2,2.9   s-2.6,0.2-3.5-0.7L5.2,196.7c-3-3-4.7-7.1-4.7-11.3v-21.3c0-57,5.9-77.7,17.1-98.6C28.5,44.9,45.3,28,65.9,17.1   C86.5,6.1,107,0.1,162.6,0L264.3,0z"/>
</g>
</svg>