<svg width="200" height="200" viewBox="0 0 200 200" fill="none" xmlns="http://www.w3.org/2000/svg">
<rect width="200" height="200" fill="black"/>
<path d="M55.37 146.5H48.4V155.63H55.37C57.04 155.63 58.29 155.23 59.15 154.41C60 153.61 60.43 152.49 60.43 151.08C60.43 149.67 60 148.54 59.15 147.73C58.29 146.93 57.03 146.53 55.37 146.53V146.5ZM84.89 152.93C85.19 152.4 85.36 151.73 85.36 150.89C85.36 149.54 84.91 148.49 83.99 147.69C83.07 146.93 81.85 146.54 80.34 146.54H72.9V155.06H80.22C82.48 155.06 84.04 154.36 84.89 152.96V152.93ZM100 15L0 185H200L100 15ZM60.86 156.03C59.56 157.25 57.76 157.87 55.53 157.87H48.4V165.42H46V144.22H55.53C57.77 144.22 59.55 144.85 60.87 146.09C62.17 147.32 62.83 148.97 62.83 151.04C62.83 153.14 62.17 154.79 60.86 156.02V156.03ZM85.36 165.42L80.26 157.28H72.89V165.4H70.49V144.2H80.63C82.78 144.2 84.51 144.8 85.81 146C87.11 147.18 87.76 148.8 87.76 150.84C87.76 153.48 86.66 155.28 84.46 156.24C83.86 156.52 83.24 156.74 82.64 156.84L88.21 165.4H85.36V165.42ZM98.79 165.4H96.39V144.2H98.79V165.4ZM122.35 164.08C120.87 165.13 118.82 165.65 116.19 165.65C113.23 165.65 110.96 165.05 109.41 163.8C108.01 162.7 107.23 161.1 107.04 159.06H109.54C109.62 160.51 110.32 161.62 111.64 162.39C112.8 163.06 114.32 163.39 116.22 163.39C120.19 163.39 122.17 162.14 122.17 159.65C122.17 158.79 121.82 158.12 121.1 157.63C120.4 157.13 119.5 156.73 118.42 156.43C117.35 156.1 116.18 155.8 114.94 155.53C113.7 155.26 112.54 154.88 111.44 154.45C110.34 154.02 109.47 153.43 108.76 152.72C108.06 152 107.69 151.04 107.69 149.82C107.69 148.09 108.34 146.69 109.66 145.6C110.98 144.52 112.98 143.98 115.66 143.98C118.33 143.98 120.41 144.58 121.89 145.83C123.23 146.93 123.94 148.33 124.03 150.03H121.57C121.35 148.27 120.22 147.11 118.17 146.53C117.45 146.33 116.55 146.23 115.47 146.23C114.39 146.23 113.49 146.33 112.75 146.58C112.01 146.83 111.45 147.13 111.05 147.48C110.63 147.83 110.35 148.22 110.22 148.65C110.09 149.08 110.02 149.53 110.02 150.01C110.02 150.51 110.22 150.94 110.64 151.34C111.06 151.74 111.6 152.09 112.29 152.37C112.97 152.65 113.75 152.89 114.62 153.1C115.5 153.3 116.39 153.53 117.29 153.75C118.19 153.97 119.09 154.23 119.97 154.52C120.84 154.82 121.62 155.17 122.3 155.62C123.83 156.58 124.58 157.89 124.58 159.56C124.58 161.56 123.84 163.06 122.36 164.11L122.35 164.08ZM151.2 165.43V147.89L143.36 157.97L135.39 147.89V165.43H133V144.23H135.78L143.36 154.29L150.81 144.24H153.61V165.44H151.21" fill="white"/>
</svg>
