<svg width="32" height="32" viewBox="0 0 32 32" fill="none" xmlns="http://www.w3.org/2000/svg">
<path d="M3.96144 17.6588C3.02646 13.9493 9.08431 9.64487 13.4141 8.98834C17.4502 8.37625 18.4146 10.4643 16.8897 12.6781C15.3649 14.8921 12.927 15.8151 11.1574 16.4297C11.341 13.4778 11.5441 12.0438 9.04271 12.535C6.34297 13.0657 5.68212 13.8258 5.68212 13.8258C7.27307 17.3725 5.89261 23.4614 6.01989 27.7854C6.09332 28.8443 6.09332 30.572 7.5374 30.572C9.18463 30.572 13.1081 29.3429 13.1081 29.3429C10.6679 27.0475 10.7976 24.3745 10.9934 18.2339C12.7019 20.0183 16.8677 17.987 17.9153 17.2195C18.9213 19.3618 18.6496 23.7921 18.4121 26.3713C18.1992 28.7085 18.6569 31.0039 23.7185 29.7748C22.6514 28.79 22.5609 25.347 22.9867 22.21C23.4126 19.073 24.7245 14.739 28.6578 14.3392C29.2697 14.2775 29.7862 14.2849 30.2072 14.122C30.9145 13.8481 31.3551 13.2902 31.5558 12.3277C31.8422 10.948 30.9317 9.24009 29.1547 9.24009C26.7071 9.24009 24.191 10.9604 22.7298 19.0138C22.7934 18.2314 22.6808 17.3873 22.7004 16.9085C22.7395 15.8324 22.015 15.403 21.1461 15.4943C20.1695 15.5979 19.6971 15.7559 19.6971 15.7559C21.0238 14.7094 22.8815 12.3549 23.2682 8.7366C23.7063 4.64201 21.878 1.05831 16.6352 1.66793C11.3655 2.28002 6.90348 5.51078 4.19152 8.09982C0.302267 11.8069 -0.833427 17.4761 3.96144 17.6588Z" fill="#4E33AB"/>
</svg>
