<svg width="32" height="32" viewBox="0 0 32 32" fill="none" xmlns="http://www.w3.org/2000/svg">
<g clip-path="url(#clip0_2878_24)">
<path d="M29.2521 7.02668C28.2814 5.57735 26.6667 3.92135 25.0454 2.84935C21.6774 0.542681 17.7761 -0.275986 14.3254 0.0813473C10.7267 0.469347 7.64539 1.82535 5.11205 4.08668C2.76539 6.18268 1.21605 8.74535 0.533388 11.1893C-0.157279 13.6333 -0.0652785 15.896 0.181388 17.6C0.441388 19.3293 1.30272 21.5053 1.30272 21.5053C1.47872 21.9227 1.72272 22.092 1.84939 22.1627C2.47872 22.5067 3.51205 22.204 4.30539 21.3133C4.34539 21.2587 4.36672 21.1827 4.34539 21.1187C4.12405 20.2667 4.04405 19.6253 3.96539 19.1293C3.78539 18.148 3.70539 16.504 3.82539 14.984C3.88539 14.1613 4.04539 13.2813 4.32539 12.3587C4.86672 10.536 6.00805 8.63335 7.79205 7.05201C9.71339 5.34935 12.1774 4.29735 14.5201 4.02535C15.3414 3.92668 16.9041 3.83201 18.7854 4.29601C19.1867 4.39601 20.9094 4.84535 22.7521 6.09335C24.0934 7.00535 25.1734 8.13068 25.9174 9.24401C26.6747 10.3067 27.4974 12.0987 27.7387 13.4107C28.0801 14.904 28.0801 16.4867 27.8374 18.028C27.5374 19.572 26.9961 21.0733 26.1547 22.3947C25.5747 23.4187 24.3721 24.772 22.9507 25.788C21.6694 26.6893 20.2067 27.34 18.7054 27.7C17.9454 27.88 17.1827 27.9947 16.4014 28.02C15.7067 28.0413 14.7854 28.02 14.1387 27.9107C13.1774 27.7573 12.9774 27.512 12.7574 27.1787C12.7574 27.1787 12.6041 26.9387 12.5614 26.296C12.5761 20.4227 12.5734 21.9907 12.5734 18.9413C12.5734 18.08 12.5454 17.2987 12.5534 16.5893C12.5934 15.4253 12.6921 14.6253 13.5241 13.7587C14.1254 13.12 14.9667 12.7347 15.8934 12.7347C16.1747 12.7347 17.1441 12.748 17.9961 13.456C18.9094 14.2187 19.0627 15.2613 19.0987 15.54C19.3067 17.1707 18.2294 18.3853 17.8161 18.6933C17.3041 19.0773 16.8441 19.264 16.5334 19.3733C15.8721 19.5947 15.1454 19.6587 14.4921 19.616C14.3921 19.6093 14.3014 19.6747 14.2814 19.7747L14.0614 20.916C13.8467 21.7827 14.3281 22.1 14.6081 22.212C15.5027 22.488 16.2961 22.6027 17.2361 22.532C18.6774 22.4307 20.0987 21.8627 21.3054 20.7373C22.3321 19.7613 22.9174 18.5573 23.1174 17.2107C23.3174 15.716 23.0574 14.1067 22.3761 12.744C21.6267 11.2413 20.3334 9.98668 18.6294 9.30001C16.9081 8.62268 15.5387 8.59868 13.7734 9.04935L13.7534 9.05601C12.6067 9.45068 11.6254 9.93735 10.6041 10.992C9.90405 11.72 9.33072 12.6013 8.98139 13.596C8.63472 14.5987 8.54139 15.3467 8.52539 16.5093C8.50405 17.3707 8.54539 18.1707 8.54539 18.92V23.8547C8.54539 25.4333 8.49205 25.7067 8.54539 26.5187C8.57472 27.0573 8.64939 27.6667 8.88539 28.3213C9.12805 29.0427 9.63739 29.7827 9.98672 30.124C10.4761 30.6453 11.0987 31.064 11.7107 31.324C13.1121 31.9467 15.0147 32.0453 16.5574 31.9853C17.5787 31.9467 18.6054 31.8053 19.6121 31.5667C21.6254 31.088 23.5587 30.2173 25.2587 29.0093C27.0814 27.7253 28.6654 25.9733 29.5401 24.4853C30.6614 22.7173 31.3867 20.7333 31.7641 18.6947C32.1041 16.652 32.0881 14.5573 31.6321 12.5453C31.2721 10.6787 30.3107 8.63068 29.2014 6.97735L29.2521 7.02668V7.02668Z" fill="#EC3561"/>
</g>
<defs>
<clipPath id="clip0_2878_24">
<rect width="32" height="32" fill="white"/>
</clipPath>
</defs>
</svg>
