<svg width="32" height="32" viewBox="0 0 32 32" fill="none" xmlns="http://www.w3.org/2000/svg">
<g clip-path="url(#clip0_3613_44)">
<path fill-rule="evenodd" clip-rule="evenodd" d="M32 16C32 24.8368 24.8368 32 16 32C7.1632 32 0 24.8368 0 16C0 7.1632 7.1632 0 16 0C24.8368 0 32 7.1632 32 16Z" fill="#DA552F"/>
<path fill-rule="evenodd" clip-rule="evenodd" d="M18.1336 16H13.6V11.2H18.1336C18.7701 11.2 19.3806 11.4529 19.8307 11.9029C20.2807 12.353 20.5336 12.9635 20.5336 13.6C20.5336 14.2365 20.2807 14.847 19.8307 15.2971C19.3806 15.7471 18.7701 16 18.1336 16ZM18.1336 8H10.4V24H13.6V19.2H18.1336C19.6188 19.2 21.0432 18.61 22.0934 17.5598C23.1436 16.5096 23.7336 15.0852 23.7336 13.6C23.7336 12.1148 23.1436 10.6904 22.0934 9.6402C21.0432 8.59 19.6188 8 18.1336 8Z" fill="white"/>
</g>
<defs>
<clipPath id="clip0_3613_44">
<rect width="32" height="32" fill="white"/>
</clipPath>
</defs>
</svg>
