<svg width="32" height="32" viewBox="0 0 32 32" fill="none" xmlns="http://www.w3.org/2000/svg">
<path fill-rule="evenodd" clip-rule="evenodd" d="M16 0C24.8384 0 32 7.16157 32 16C32 24.8384 24.8384 32 16 32C7.16157 32 0 24.8384 0 16C0 7.16157 7.16157 0 16 0V0ZM8.41921 15.441L16.8384 7.02183C17.5022 6.35808 18.6201 6.35808 19.2838 7.02183L23.5808 11.3188C24.2445 11.9825 24.2445 13.1004 23.5808 13.7642L16.7336 20.6114L18.2358 22.1135C18.9694 22.8472 18.9694 24 18.2358 24.6987L18.0262 24.9083C17.3275 25.607 16.1397 25.607 15.441 24.9083L13.9389 23.4061L9.18777 18.655L8.41921 17.8865C7.72052 17.2227 7.72052 16.1397 8.41921 15.441V15.441ZM17.4672 11.9825L13.3799 16.1048C13.0655 16.4192 13.0655 16.9083 13.3799 17.2227C13.6943 17.5371 14.1834 17.5371 14.4978 17.2227L18.6201 13.1004C18.9345 12.786 18.9345 12.2969 18.6201 11.9825C18.3057 11.6681 17.7817 11.6681 17.4672 11.9825V11.9825Z" fill="#1E3254"/>
</svg>
