<svg width="32" height="32" viewBox="0 0 32 32" fill="none" xmlns="http://www.w3.org/2000/svg">
<path d="M10.6736 21.3152C6.97762 21.7324 3.13574 20.1723 1.65339 16.8526C1.28821 16.0362 1.10469 15.1112 0.995511 14.2222C0.885394 13.2789 0.976684 12.2993 0.976684 11.229C2.89762 13.0975 5.01998 14.2948 7.70987 14.3673C7.54516 14.2948 7.38045 14.204 7.21574 14.1315C4.76398 13.0613 2.84304 11.4104 1.65339 9.01588C1.23269 8.19955 0.976684 7.3288 0.976684 6.38549C0.976684 4.39002 0.995511 2.4127 0.995511 0.417234C0.995511 0.30839 1.03127 0.181406 1.0501 0C8.22186 2.92063 14.3884 7.20182 19.6393 12.7528C24.8901 18.2857 28.7508 24.5987 30.8364 31.9093C30.7997 31.9456 30.763 31.9638 30.7084 32C30.6171 31.8912 30.507 31.7823 30.4336 31.6553C29.4463 30.0771 28.2934 28.644 26.7386 27.5737C26.5183 27.4104 26.1889 27.3016 25.915 27.3016C22.091 27.2835 18.2849 27.3741 14.4609 27.2653C9.7955 27.1202 4.21527 23.22 3.19033 20.9887C5.25809 22.0227 7.08775 22.6213 9.48493 22.0227C10.0703 21.8776 10.9663 21.4603 11.5339 21.2426C11.5339 21.2245 11.0943 21.2608 10.6736 21.3152Z" fill="#FF2D55"/>
<path d="M24.9071 3.92118C22.3602 1.30706 19.1442 0 15.26 0C12.6831 0 10.0449 0.771028 8.06 1.94118L11.2129 3.88235C12.4468 3.33882 13.7654 3.10588 15.26 3.10588C18.1099 3.10588 20.5061 4.14118 22.4478 6.21176C24.3904 8.28235 25.3607 10.8706 25.3607 13.9765C25.3607 15.1654 25.2223 16.2783 24.9456 17.3155C24.9456 17.3155 27.1433 20.0946 27.6054 20.7059C28.4798 18.8219 28.7659 16.3003 28.7659 13.9765C28.7659 9.88706 27.4793 6.53529 24.9071 3.92118Z" fill="#068AA7"/>
</svg>
