<svg width="32" height="32" viewBox="0 0 32 32" fill="none" xmlns="http://www.w3.org/2000/svg">
<path d="M12.0323 18.4947C11.2003 18.4947 10.4963 17.7911 10.4963 16.9595C10.4963 16.128 11.2003 15.4243 12.0323 15.4243C12.8643 15.4243 13.5683 16.128 13.5683 16.9595C13.5683 17.7911 12.8643 18.4947 12.0323 18.4947ZM18.6883 16.9595C18.6883 16.128 17.9843 15.4243 17.1523 15.4243C16.3203 15.4243 15.6163 16.128 15.6163 16.9595C15.6163 17.7911 16.3203 18.4947 17.1523 18.4947C17.9843 18.4947 18.6883 17.7911 18.6883 16.9595ZM23.8083 16.9595C23.8083 16.128 23.1043 15.4243 22.2723 15.4243C21.4403 15.4243 20.7363 16.128 20.7363 16.9595C20.7363 17.7911 21.4403 18.4947 22.2723 18.4947C23.1043 18.4947 23.8083 17.7911 23.8083 16.9595Z" fill="#1F1919"/>
<path d="M17.28 2.24731C9.536 2.24731 3.2 8.58001 3.2 16.3199V20.1579C3.2 20.1579 3.2 20.5417 3.2 21.1814V22.9085C3.2 26.8104 0.192 29.7529 0 29.9447C0.128 29.9447 2.816 29.9447 4.864 26.8743C4.864 26.8104 4.928 26.8104 4.928 26.7464C6.272 24.5716 6.464 22.1408 6.464 21.5012V21.3732C6.464 21.3093 6.464 21.1813 6.464 21.1174V16.3199C6.464 10.307 11.328 5.44564 17.344 5.44564C23.36 5.44564 28.224 10.307 28.224 16.3199C28.224 22.3328 23.36 27.1942 17.344 27.1942C15.104 27.1942 12.928 26.4905 11.136 25.2112C10.432 24.6995 9.408 24.8914 8.896 25.595C8.384 26.2987 8.576 27.3221 9.28 27.8338C11.648 29.497 14.464 30.3925 17.344 30.3925C25.088 30.3925 31.424 24.0598 31.424 16.3199C31.36 8.58001 25.024 2.24731 17.28 2.24731Z" fill="#F77110"/>
</svg>
