<svg width="32" height="32" viewBox="0 0 32 32" fill="none" xmlns="http://www.w3.org/2000/svg">
<path d="M23.0455 15.6932C23.0455 15.6932 22.9955 15.92 22.9955 15.9577C22.9955 15.9955 21.6855 15.8445 21.6855 15.8445L21.7355 15.4287L23.0455 15.6932Z" fill="#904A04"/>
<path d="M22.8203 15.592C22.8203 15.592 19.4935 14.5975 18.0578 14.862C16.622 15.1265 17.5523 15.9013 17.5523 15.9013L22.8203 15.592Z" fill="#904A04"/>
<path d="M9.63025 15.731C9.63025 15.731 9.68025 15.9577 9.68025 15.9955C9.68025 16.0332 10.99 15.8822 10.99 15.8822L10.94 15.4665L9.63025 15.731Z" fill="#904A04"/>
<path d="M9.85553 15.63C9.85553 15.63 13.1823 14.6352 14.618 14.9C16.0538 15.1647 15.1235 15.9392 15.1235 15.9392L9.85553 15.63Z" fill="#904A04"/>
<path d="M16.5453 21.1345C19.9051 21.1345 22.6288 19.7473 22.6288 18.036C22.6288 16.3247 19.9051 14.9375 16.5453 14.9375C13.1855 14.9375 10.4618 16.3247 10.4618 18.036C10.4618 19.7473 13.1855 21.1345 16.5453 21.1345Z" fill="#B26734"/>
<path d="M14.7315 15.0887L11.3685 15.6177L9.20004 15.95L8.61554 16.55V17.6127L8.72629 18.9352L10.5595 19.5965L11.9868 19.691C11.5685 15.438 14.7315 15.0887 14.7315 15.0887Z" fill="#B26734"/>
<path d="M13.0603 18.4517C13.0603 18.4517 12.3803 17.3937 10.6043 17.9605C8.82826 18.5272 11.5868 19.0185 11.5868 19.0185L13.0603 18.4517Z" fill="#6D3C0F"/>
<path d="M7.96777 27.0545C7.96777 27.0545 9.14277 25.746 11.8113 25.535C12.8568 25.4525 12.6113 27.9045 12.6113 27.9045L14.3923 26.3142L17.875 26.5977L19.2863 27.637C19.2863 27.637 20.1885 25.403 21.909 25.4492C23.6295 25.4955 24.6683 26.8602 24.6683 26.8602L22.4825 19.9602H9.83077L7.96777 27.0545Z" fill="#6D3C0F"/>
<path d="M19.5153 21.6132C18.809 24.523 18.631 27.5132 16.3935 27.5132C14.1608 27.5132 14.0035 24.8357 13.389 21.8432C12.8275 19.1082 14.5985 17.283 16.3935 17.283C16.9703 17.2875 17.5358 17.4438 18.033 17.7362C19.1643 18.396 19.9678 19.75 19.5153 21.6132Z" fill="#B26734"/>
<path d="M18.6233 22.398C18.6233 24.5018 17.156 26.8413 16.0538 26.3618C14.8963 25.8578 14.2835 24.3618 14.0538 22.1818C13.8345 20.1015 15.1593 18.5598 16.3108 18.5598C17.4623 18.5598 18.6233 20.294 18.6233 22.398Z" fill="#BD6E35"/>
<path d="M17.9443 15.05L21.3073 15.58L23.475 15.911L24.0595 16.511V17.5737L23.95 18.8955L22.1168 19.5567L20.6895 19.6512C21.1073 15.4 17.9443 15.05 17.9443 15.05Z" fill="#B26734"/>
<path d="M14.0891 15.202L15.4016 18.036L16.7251 19.425L17.8001 17.925L19.039 15.202L17.2391 14.8997L15.4866 15.0295L14.0891 15.202Z" fill="#A56032"/>
<path d="M19.3292 19.5835C19.3292 19.5835 19.6745 21.3612 18.9942 21.588C18.314 21.8147 17.6717 20.1142 17.6717 20.1142H16.236L16.198 19.2075L18.5407 18.754L19.3292 19.5835Z" fill="#3A3A3A"/>
<path d="M13.5273 19.5835C13.5273 19.5835 13.1823 21.3612 13.8623 21.588C14.5423 21.8147 15.1848 20.1142 15.1848 20.1142H16.6208L16.6585 19.2075L14.3158 18.754L13.5273 19.5835Z" fill="#3A3A3A"/>
<path d="M14.2025 19.9252L14.5425 19.6987L14.6938 19.5097H18.17L18.2833 19.6987L18.5855 19.8497L18.3588 18.7917L16.054 18.6407L14.5048 18.7917L14.2025 19.9252Z" fill="#444444"/>
<path d="M19.3121 19.0027C19.3121 19.0027 19.5008 19.815 18.9341 19.9842C18.3673 20.1535 18.1776 18.9817 18.1776 18.9817L18.5941 18.8672L19.3121 19.0027Z" fill="#515151"/>
<path d="M13.5223 19.0027C13.5223 19.0027 13.3333 19.815 13.9 19.9842C14.4668 20.1535 14.6565 18.9817 14.6565 18.9817L14.24 18.8672L13.5223 19.0027Z" fill="#515151"/>
<path d="M17.1548 18.3005H18.699L19.3413 19.0185L18.6613 19.0562L17.8298 18.943L17.1875 19.0185L17.1548 18.3005Z" fill="#303030"/>
<path d="M15.7138 18.3005H14.1695L13.5273 19.0185L14.2075 19.0562L15.0388 18.943L15.681 19.0185L15.7138 18.3005Z" fill="#303030"/>
<path d="M17.1875 19.0185H15.6383L15.2983 18.3005H17.6033L17.1875 19.0185Z" fill="#515151"/>
<path d="M17.1497 18.6782C17.2123 18.6782 17.263 18.6275 17.263 18.565C17.263 18.5024 17.2123 18.4517 17.1497 18.4517C17.0872 18.4517 17.0365 18.5024 17.0365 18.565C17.0365 18.6275 17.0872 18.6782 17.1497 18.6782Z" fill="#AAAAAA"/>
<path d="M16.5955 18.7917H16.2678C16.254 18.7917 16.2428 18.8029 16.2428 18.8167V18.8422C16.2428 18.8561 16.254 18.8672 16.2678 18.8672H16.5955C16.6094 18.8672 16.6205 18.8561 16.6205 18.8422V18.8167C16.6205 18.8029 16.6094 18.7917 16.5955 18.7917Z" fill="#AAAAAA"/>
<path d="M13.989 19.8275C14.1061 19.612 14.1823 19.3767 14.214 19.1335C14.217 19.1085 14.1793 19.1085 14.1763 19.1335C14.1455 19.3701 14.0714 19.5989 13.9575 19.8085C13.946 19.8297 13.9785 19.849 13.9903 19.8275H13.989Z" fill="#3A3A3A"/>
<path d="M18.8578 19.8085C18.744 19.5989 18.6699 19.37 18.6393 19.1335C18.636 19.1085 18.5983 19.1085 18.6015 19.1335C18.633 19.3768 18.7092 19.6121 18.8265 19.8275C18.838 19.849 18.8705 19.83 18.859 19.8085H18.8578Z" fill="#3A3A3A"/>
<path d="M15.0705 18.644C11.7643 21.8557 11.0598 28.1552 11.0598 28.1552C11.0598 28.1552 10.422 25.3037 9.78477 25.1975C8.93477 25.0557 7.98602 26.941 7.98602 26.941C7.98602 26.941 8.84402 23.43 8.53602 22.1942C8.24677 21.0295 6.67102 19.256 7.61552 17.0835C7.61552 17.0835 8.45502 15.7085 10.5765 15.5085C10.5765 15.5085 4.04902 17.495 14.8968 18.55H15.2588L15.0705 18.644Z" fill="#A4571F"/>
<path d="M14.1893 19.0467C11.5588 21.602 11.0358 26.8545 11.0358 26.8545C11.0358 26.8545 10.4373 24.5857 9.93004 24.5012C9.25379 24.3885 8.45329 25.8702 8.45329 25.8702C8.45329 25.8702 9.35828 23.0332 8.93728 22.1117C7.70954 19.425 7.63404 18.697 7.74829 17.99C7.74829 17.99 7.75029 16.7012 8.99054 16.1435C8.99054 16.1435 5.42304 18.0655 14.0538 18.905H14.3385L14.1893 19.0467Z" fill="#904A04"/>
<path d="M19.842 18.414C19.842 18.414 20.5223 17.356 22.2983 17.9227C24.0743 18.4895 21.3158 18.9807 21.3158 18.9807L19.842 18.414Z" fill="#6D3C0F"/>
<path d="M17.6053 18.606C20.9115 21.818 21.616 28.1175 21.616 28.1175C21.616 28.1175 22.2538 25.2657 22.891 25.1595C23.741 25.018 24.691 26.9032 24.691 26.9032C24.691 26.9032 23.833 23.3922 24.141 22.1565C24.4303 20.9917 26.006 19.2182 25.0615 17.0455C25.0615 17.0455 24.222 15.6705 22.1005 15.4705C22.1005 15.4705 28.628 17.457 17.7803 18.512H17.4163L17.6053 18.606Z" fill="#A4571F"/>
<path d="M18.4865 19.009C21.117 21.5642 21.64 26.8168 21.64 26.8168C21.64 26.8168 22.2383 24.548 22.7455 24.4633C23.422 24.3505 24.2225 25.8325 24.2225 25.8325C24.2225 25.8325 23.3173 22.9955 23.7383 22.075C24.9663 19.387 25.0418 18.6603 24.9275 17.9533C24.9275 17.9533 24.9255 16.6645 23.6853 16.1068C23.6853 16.1068 27.2528 18.0287 18.6218 18.868H18.3373L18.4865 19.009Z" fill="#904A04"/>
<path d="M12.175 15.475C12.175 15.475 12.7228 16.525 14.85 16.525C14.95 16.525 14.6278 16.365 14.6278 16.365C14.6278 16.365 13.255 16.4435 12.393 15.4565C12.3 15.35 12.175 15.475 12.175 15.475Z" fill="#A56032"/>
<path d="M9.56702 17.9857V18.9567L10.0385 18.1282L9.56702 17.9857Z" fill="#A4571F"/>
<path d="M9.27228 17.7792V18.4812L9.61328 17.882L9.27228 17.7792Z" fill="#A4571F"/>
<path d="M23.1088 17.948V18.919L22.6373 18.0905L23.1088 17.948Z" fill="#A4571F"/>
<path d="M23.4033 17.7412V18.4435L23.0625 17.8442L23.4033 17.7412Z" fill="#A4571F"/>
<path d="M14.1742 14.857L14.0807 15.191L14.8825 15.202L14.9202 14.8997L14.1742 14.857Z" fill="#824009"/>
<path d="M19.0628 14.8335L19.0353 15.2082L18.3503 15.0757L18.3968 14.7865L19.0628 14.8335Z" fill="#824009"/>
<path d="M15.3273 27.7249C15.0103 28.6552 14.7868 29.31 14.2825 29.31C13.7783 29.31 13.255 28.3909 13.255 27.4082C13.255 26.4254 13.7135 25.1609 14.218 25.1609C14.7225 25.1609 15.6815 26.6852 15.3273 27.7249Z" fill="#B26734"/>
<path d="M14.8173 29.7027L13.768 29.6072L14.041 28.8157L14.7303 28.7877L14.8173 29.7027Z" fill="#B26734"/>
<path d="M13.798 29.52L14.8125 29.6545L15.2728 30.8C14.145 29.566 13.0175 30.623 13.0175 30.623L13.798 29.52Z" fill="#A4571F"/>
<path d="M13.856 30.0457C13.856 30.0457 13.5138 30.5505 13.631 30.8L14.0088 30.423L14.4543 30.0457H13.856Z" fill="#A4571F"/>
<path d="M17.4713 27.5472C17.7508 28.4892 17.867 29.1745 18.3713 29.1745C18.8755 29.1745 19.3988 28.2555 19.3988 27.2727C19.3988 26.29 18.94 25.025 18.4358 25.025C17.9315 25.025 17.1643 26.5122 17.4713 27.5472Z" fill="#B26734"/>
<path d="M17.8365 29.568L18.8855 29.4725L18.6125 28.681L17.9235 28.653L17.8365 29.568Z" fill="#B26734"/>
<path d="M18.8555 29.3853L17.841 29.5198L17.381 30.6653C18.5085 29.4313 19.6363 30.488 19.6363 30.488L18.8555 29.3853Z" fill="#A4571F"/>
<path d="M18.7125 29.9292C18.7125 29.9292 19.055 30.4339 18.9375 30.6834L18.5595 30.3062L18.114 29.9292H18.7125Z" fill="#A4571F"/>
<path d="M15.1818 16.4362H14.3945C14.3094 16.4362 14.2403 16.5053 14.2403 16.5905V16.7732C14.2403 16.8584 14.3094 16.9275 14.3945 16.9275H15.1818C15.267 16.9275 15.336 16.8584 15.336 16.7732V16.5905C15.336 16.5053 15.267 16.4362 15.1818 16.4362Z" fill="#3F3F3F"/>
<path d="M20.0185 7.40222C20.0185 7.40222 20.0185 7.13972 19.484 7.06097C19.266 7.02872 18.006 7.04347 18.006 7.04347L17.614 6.17847C17.614 6.17847 19.352 6.19847 19.8995 6.46572C20.447 6.73297 20.325 7.14997 20.275 7.57747" fill="#303030"/>
<path d="M12.1355 7.915C12.1355 7.915 12.1008 7.65475 12.6213 7.50725C12.8333 7.44725 14.0845 7.2985 14.0845 7.2985L14.5955 6.375C14.5955 6.375 12.6403 6.63525 12.132 6.971C11.6238 7.30675 11.7995 7.704 11.904 8.121" fill="#303030"/>
<path d="M14.0193 14.1893C13.9868 14.2893 14.1293 14.4433 14.182 14.5095C14.5973 15.0308 14.9225 15.6165 15.2885 16.1733C15.448 16.416 16.4618 17.905 16.7725 17.5745C17.3015 17.012 17.6913 16.3183 18.0725 15.6495C18.4725 14.9475 18.8275 14.2145 19.0503 13.4358C19.0594 13.4099 19.0633 13.3824 19.0618 13.355C19.0368 13.1448 18.1298 13.1275 17.958 13.1013L17.4375 13.0213C17.3905 13.014 17.2705 12.9713 17.2243 12.9885L14.7905 13.8923L14.3078 14.0715C14.2418 14.0965 14.062 14.1068 14.0263 14.1743C14.0235 14.179 14.0212 14.1841 14.0193 14.1893V14.1893Z" fill="#B26734"/>
<path d="M14.3715 14.3745L15.8093 16.638L16.1623 16.9492L16.6058 17.3367L17.0458 16.8917L18.3038 14.9165L18.9593 13.352L17.1318 13.0995L14.3715 14.3745Z" fill="#A4571F"/>
<path d="M18.0315 15.0392L14.971 14.8882L15.7645 16.513L16.0668 16.8152L16.4823 17.1552L16.7468 16.9285L16.9358 16.7397L17.1248 16.4752" fill="#CB63D3"/>
<path d="M15.84 16.0845L16.1045 16.538L16.4445 16.878L17.7248 15.7445L16.2558 15.5932L15.84 16.0845Z" fill="#B25F8C"/>
<path d="M16.7923 1.23598C16.6763 1.25173 16.5493 1.39173 16.4923 1.46098C15.6848 2.44473 15.194 3.64623 14.7698 4.84598C14.5395 5.49848 14.325 6.15748 14.075 6.80423C13.8325 7.43523 13.4948 8.02923 13.279 8.66473C13.0348 9.38423 12.9468 10.1535 12.9888 10.9112C13.0493 12.0032 13.2035 13.3585 13.9945 14.1895C15.21 15.4662 16.077 16.3732 16.077 16.3732L16.5938 16.7812L17.122 16.3062C17.122 16.3062 18.5325 15.054 18.6858 14.5C18.839 13.946 18.8468 13.9865 18.9765 13.694C19.1063 13.4015 19.317 13.382 19.4765 12.567C19.8618 10.6052 19.1703 8.60848 18.487 6.78548C18.1005 5.75373 17.6898 4.72673 17.428 3.65648C17.3153 3.19473 17.2308 2.72698 17.136 2.26123C17.0885 2.02873 17.039 1.79648 16.9823 1.56598C16.9623 1.48523 16.9543 1.28698 16.8673 1.24648C16.8438 1.23589 16.8178 1.23225 16.7923 1.23598V1.23598Z" fill="#BD6E35"/>
<path d="M16.8935 1.26499C16.983 1.38174 16.847 1.47124 16.86 1.61224C16.8758 1.78274 16.8938 1.95307 16.914 2.12324C16.956 2.47424 17.0075 2.82382 17.0685 3.17199C17.1887 3.85765 17.346 4.5363 17.5395 5.20499C18.0742 7.05199 18.8917 8.85724 18.9395 10.78C18.9895 12.7402 18.2192 14.6475 17.1447 16.288C18.2947 15.3012 19.1375 14.197 19.501 12.4697C19.7032 11.5102 19.6067 10.4812 19.3957 9.52424C19.2925 9.05624 19.062 8.63274 18.9385 8.17674C18.8032 7.67674 18.6402 7.18349 18.4677 6.69474C18.1225 5.71624 17.7365 4.75124 17.4467 3.75399C17.2542 3.09149 17.1915 2.39899 17.0235 1.72899C17.0122 1.68499 16.9617 1.16124 16.792 1.24749" fill="#B26734"/>
<path d="M14.8525 11.8102C14.871 12.096 14.6743 12.3415 14.4128 12.3585C14.1513 12.3755 13.9245 12.1585 13.9058 11.8717C13.887 11.585 14.0973 11.5432 14.3588 11.5262C14.6203 11.5092 14.8338 11.525 14.8525 11.8102Z" fill="white"/>
<path d="M19 11.563C19.0195 11.8615 18.803 12.1182 18.5168 12.138C18.2305 12.1577 17.9825 11.9297 17.9633 11.6315C17.944 11.3332 18.1733 11.279 18.4598 11.2605C18.7463 11.242 18.9803 11.2647 19 11.563Z" fill="white"/>
<path d="M15.6526 14.2294C15.7205 14.2073 15.7403 14.0815 15.6969 13.9484C15.6535 13.8153 15.5632 13.7253 15.4954 13.7474C15.4275 13.7696 15.4077 13.8954 15.4511 14.0285C15.4946 14.1616 15.5848 14.2516 15.6526 14.2294Z" fill="#91562D"/>
<path d="M17.501 14.0252C17.5444 13.8921 17.5246 13.7662 17.4567 13.7441C17.3888 13.7219 17.2986 13.8119 17.2552 13.945C17.2118 14.0781 17.2316 14.2039 17.2994 14.2261C17.3673 14.2482 17.4575 14.1583 17.501 14.0252Z" fill="#91562D"/>
<path d="M14.5238 12.2575C14.6297 12.2575 14.7155 12.1716 14.7155 12.0657C14.7155 11.9598 14.6297 11.874 14.5238 11.874C14.4179 11.874 14.332 11.9598 14.332 12.0657C14.332 12.1716 14.4179 12.2575 14.5238 12.2575Z" fill="#232323"/>
<path d="M18.3795 12.004C18.4865 12.004 18.5733 11.9172 18.5733 11.8102C18.5733 11.7032 18.4865 11.6165 18.3795 11.6165C18.2725 11.6165 18.1858 11.7032 18.1858 11.8102C18.1858 11.9172 18.2725 12.004 18.3795 12.004Z" fill="#232323"/>
<path d="M19.8848 9.41131L19.3901 9.44348C19.3392 9.44678 19.3007 9.49068 19.304 9.54152L19.4882 12.3738C19.4915 12.4246 19.5354 12.4632 19.5862 12.4599L20.0809 12.4277C20.1318 12.4244 20.1703 12.3805 20.167 12.3297L19.9828 9.49738C19.9795 9.44654 19.9356 9.40801 19.8848 9.41131Z" fill="#3F3F3F"/>
<path d="M20.3264 9.53418L20.1001 9.54889L20.2742 12.226L20.5004 12.2113L20.3264 9.53418Z" fill="#161616"/>
<path d="M20.6404 9.70283L20.4132 9.71761C20.3718 9.72029 20.3405 9.75598 20.3432 9.79732L20.4879 12.0231C20.4906 12.0644 20.5263 12.0958 20.5676 12.0931L20.7949 12.0783C20.8362 12.0756 20.8675 12.0399 20.8649 11.9986L20.7201 9.77281C20.7175 9.73147 20.6818 9.70014 20.6404 9.70283Z" fill="#161616"/>
<path d="M19.935 12.5123L19.9178 11.9833L20.0538 11.7473L19.919 9.6735L19.694 9.423L19.6705 9.34875L19.9698 9.2915L20.1658 9.39225L20.357 12.3335L20.1783 12.4965L19.935 12.5123Z" fill="#303030"/>
<path d="M20.1982 9.23871L20.3077 9.53446L20.487 12.287L20.3667 12.4842L20.7012 12.3867L20.505 9.37021L20.1982 9.23871Z" fill="#303030"/>
<path d="M20.0233 7.39972L20.281 7.50822L20.414 9.17647L20.1875 9.21247L20.0233 7.39972Z" fill="#303030"/>
<path d="M20.1935 9.23899L20.192 8.63324L20.505 9.37024L20.1935 9.23899Z" fill="#303030"/>
<path d="M11.8507 11.8647L11.725 11.8728C11.6868 11.8753 11.6579 11.9083 11.6604 11.9464L11.6882 12.3738C11.6906 12.4119 11.7236 12.4409 11.7618 12.4384L11.8875 12.4302C11.9257 12.4277 11.9546 12.3948 11.9521 12.3566L11.9243 11.9293C11.9218 11.8911 11.8889 11.8622 11.8507 11.8647Z" fill="#303030"/>
<path d="M11.6438 11.6885C11.6438 11.6885 9.73252 17.2655 14.8628 16.9317L14.975 16.925L14.953 16.5855C14.953 16.5855 10.7723 17.5 11.806 12.4352C11.9718 11.6232 11.7593 11.7187 11.7593 11.7187L11.6438 11.6885Z" fill="#303030"/>
<path d="M12.7243 12.9051L13.219 12.8729C13.2698 12.8696 13.3084 12.8257 13.305 12.7749L13.1209 9.94262C13.1176 9.89178 13.0737 9.85324 13.0229 9.85655L12.5282 9.88871C12.4773 9.89202 12.4388 9.93591 12.4421 9.98675L12.6262 12.819C12.6295 12.8699 12.6734 12.9084 12.7243 12.9051Z" fill="#3F3F3F"/>
<path d="M12.2806 12.745L12.5069 12.7303L12.3328 10.0532L12.1066 10.0679L12.2806 12.745Z" fill="#161616"/>
<path d="M11.9712 12.6513L12.1985 12.6365C12.2398 12.6338 12.2711 12.5981 12.2684 12.5568L12.1237 10.331C12.121 10.2897 12.0854 10.2583 12.044 10.261L11.8168 10.2758C11.7754 10.2785 11.7441 10.3142 11.7468 10.3555L11.8915 12.5813C11.8942 12.6227 11.9299 12.654 11.9712 12.6513Z" fill="#161616"/>
<path d="M12.8803 12.9712L12.829 12.4445L12.6635 12.228L12.5285 10.1542L12.719 9.87673L12.7328 9.79998L12.4285 9.78198L12.2473 9.90748L12.4388 12.8485L12.637 12.987L12.8803 12.9712Z" fill="#303030"/>
<path d="M12.1953 9.75922L12.1248 10.0667L12.3038 12.8195L12.4485 12.9992L12.1043 12.946L11.908 9.92947L12.1953 9.75922Z" fill="#303030"/>
<path d="M12.14 7.91248L11.902 8.10348L11.973 9.72548L12.2025 9.73173L12.14 7.91248Z" fill="#303030"/>
<path d="M12.1998 9.75895L12.123 9.1582L11.908 9.92945L12.1998 9.75895Z" fill="#303030"/>
<path d="M13.1573 9.18C13.3423 9.055 13.5823 9.03825 13.7973 9.0115C14.0473 8.981 14.2973 8.96625 14.542 9.0315C14.7535 9.088 14.844 8.76 14.6323 8.7035C14.3423 8.62625 14.0468 8.639 13.7518 8.67725C13.4898 8.71125 13.2103 8.73375 12.9855 8.88625C12.8055 9.0085 12.9755 9.30325 13.1573 9.18Z" fill="#7C441E"/>
<path d="M17.8713 8.90772C18.2771 8.74015 18.7273 8.71331 19.1501 8.83147C19.3611 8.89047 19.4501 8.56247 19.2403 8.50347C18.7588 8.36751 18.2459 8.3944 17.7813 8.57997C17.6956 8.61447 17.6373 8.69297 17.6626 8.78897C17.6841 8.86997 17.7876 8.94222 17.8718 8.90772H17.8713Z" fill="#7C441E"/>
<path d="M16.9538 11.2765C16.9448 11.1015 16.6288 10.8902 16.2538 10.9092C15.8788 10.9282 15.5848 11.1695 15.5935 11.345C15.6023 11.5205 15.8935 11.2572 16.2705 11.2385C16.6475 11.2197 16.9625 11.4522 16.9538 11.2765Z" fill="#232323"/>
<path d="M14.4452 12.91C15.1783 12.8731 15.7314 12.0218 15.6804 11.0085C15.6294 9.99527 14.9938 9.20376 14.2606 9.24065C13.5274 9.27753 12.9743 10.1288 13.0253 11.1421C13.0763 12.1554 13.712 12.9469 14.4452 12.91Z" fill="white"/>
<path d="M18.2637 12.7181C18.9969 12.6812 19.5499 11.8299 19.499 10.8166C19.448 9.80338 18.8123 9.01187 18.0791 9.04875C17.3459 9.08564 16.7928 9.93695 16.8438 10.9502C16.8948 11.9635 17.5305 12.755 18.2637 12.7181Z" fill="white"/>
<path d="M13.5418 9.77899C13.3365 10.075 13.2128 10.2355 13.075 10.2425C12.9373 10.2495 12.8043 9.99749 12.7893 9.69624C12.7743 9.39499 13.6525 9.35024 13.7915 9.34324C13.9305 9.33624 13.589 9.71049 13.5418 9.77899Z" fill="#232323"/>
<path d="M18.78 9.51544C19.0138 9.79044 19.153 9.93669 19.292 9.92969C19.431 9.92269 19.5368 9.65894 19.5218 9.35769C19.5068 9.05644 18.628 9.09994 18.489 9.10769C18.35 9.11544 18.725 9.45219 18.78 9.51544Z" fill="#232323"/>
<path d="M14.4065 12.596C14.6551 12.596 14.8565 12.3945 14.8565 12.146C14.8565 11.8975 14.6551 11.696 14.4065 11.696C14.158 11.696 13.9565 11.8975 13.9565 12.146C13.9565 12.3945 14.158 12.596 14.4065 12.596Z" fill="#232323"/>
<path d="M18.2998 12.443C18.5719 12.443 18.7925 12.2223 18.7925 11.9502C18.7925 11.6781 18.5719 11.4575 18.2998 11.4575C18.0276 11.4575 17.807 11.6781 17.807 11.9502C17.807 12.2223 18.0276 12.443 18.2998 12.443Z" fill="#232323"/>
<path d="M14.5045 12.4802C14.5726 12.4802 14.6278 12.425 14.6278 12.357C14.6278 12.2889 14.5726 12.2337 14.5045 12.2337C14.4365 12.2337 14.3813 12.2889 14.3813 12.357C14.3813 12.425 14.4365 12.4802 14.5045 12.4802Z" fill="white"/>
<path d="M18.1767 12.328C18.2513 12.328 18.3117 12.2675 18.3117 12.193C18.3117 12.1184 18.2513 12.058 18.1767 12.058C18.1022 12.058 18.0417 12.1184 18.0417 12.193C18.0417 12.2675 18.1022 12.328 18.1767 12.328Z" fill="white"/>
<path d="M12.9673 9.68572C13.0101 9.6706 13.0395 9.64315 13.0329 9.6244C13.0263 9.60565 12.9862 9.60271 12.9433 9.61783C12.9005 9.63295 12.8711 9.6604 12.8778 9.67915C12.8844 9.6979 12.9245 9.70084 12.9673 9.68572Z" fill="#FFC33E"/>
<path d="M19.4285 9.36217C19.437 9.34423 19.4108 9.3138 19.3698 9.2942C19.3288 9.2746 19.2886 9.27326 19.2801 9.29119C19.2715 9.30913 19.2977 9.33956 19.3387 9.35916C19.3797 9.37876 19.4199 9.3801 19.4285 9.36217Z" fill="#FFC33E"/>
<path d="M12.175 15.491C12.175 15.491 12.0417 15.195 12.0282 15.098C12.025 15.075 12.192 15.0665 12.192 15.0665L12.4 15.45L12.175 15.491Z" fill="#824009"/>
</svg>
