<svg width="32" height="32" viewBox="0 0 32 32" fill="none" xmlns="http://www.w3.org/2000/svg">
<path fill-rule="evenodd" clip-rule="evenodd" d="M19.7898 6.70155C19.7792 6.72961 19.7659 8.28801 19.7605 10.1644L19.7502 13.5764L19.4671 13.3132C19.3113 13.1685 19.1589 13.0501 19.1286 13.0501C19.0981 13.0501 19.0732 13.0316 19.0732 13.0092C19.0732 12.9866 19.0457 12.9681 19.0117 12.9681C18.978 12.9681 18.9502 12.9497 18.9502 12.927C18.9502 12.9046 18.9216 12.8862 18.8867 12.8862C18.8517 12.8862 18.7825 12.8446 18.7328 12.7939C18.6833 12.7429 18.606 12.6952 18.5612 12.6873C18.5164 12.6794 18.4305 12.6378 18.3702 12.595C18.3099 12.5519 18.222 12.5169 18.1748 12.5169C18.1275 12.5169 18.0886 12.4985 18.0886 12.4758C18.0886 12.4532 18.0241 12.4347 17.9451 12.4347C17.8661 12.4347 17.8016 12.4182 17.8016 12.3978C17.8016 12.3498 17.5163 12.3109 16.9809 12.2858C16.7441 12.2747 16.5327 12.2481 16.5113 12.2272C16.4593 12.1758 16.2132 12.1777 16.1809 12.2297C16.1667 12.2531 15.9626 12.2708 15.7093 12.2708C15.4558 12.2708 15.2517 12.2885 15.2374 12.3116C15.2234 12.3343 15.1392 12.3528 15.0503 12.3528C14.9615 12.3528 14.8886 12.3692 14.8886 12.3892C14.8886 12.4094 14.8288 12.4362 14.7555 12.449C14.4532 12.5012 14.3555 12.5278 14.3555 12.558C14.3555 12.5755 14.2907 12.6019 14.2117 12.6166C14.1327 12.6316 14.0682 12.6612 14.0682 12.6828C14.0682 12.7043 14.0544 12.7198 14.0374 12.7171C13.9559 12.7043 13.9018 12.7259 13.9242 12.7626C13.9382 12.785 13.9232 12.7931 13.8905 12.7806C13.8582 12.768 13.7807 12.8052 13.7184 12.863C13.6559 12.9209 13.5798 12.9681 13.5493 12.9681C13.5188 12.9681 13.4939 12.9844 13.4939 13.0046C13.4939 13.0245 13.4321 13.07 13.3566 13.106C13.2185 13.1715 13.0713 13.2857 12.8076 13.5323C12.7294 13.6057 12.6597 13.6655 12.6528 13.6655C12.611 13.6655 12.3419 13.9754 12.2983 14.0741C12.2693 14.1396 12.2311 14.1839 12.2134 14.1731C12.1955 14.162 12.1809 14.1802 12.1809 14.2137C12.1809 14.2469 12.1672 14.2804 12.1502 14.2878C12.1004 14.3099 11.8939 14.5996 11.8939 14.6474C11.8939 14.6715 11.8755 14.6912 11.8528 14.6912C11.8302 14.6912 11.8117 14.72 11.8117 14.7552C11.8117 14.7904 11.7972 14.8101 11.7792 14.799C11.7615 14.788 11.7438 14.819 11.7401 14.8677C11.7364 14.9167 11.714 14.9632 11.6906 14.9708C11.667 14.9787 11.6478 15.0206 11.6478 15.0639C11.6478 15.1072 11.6293 15.1424 11.6067 15.1424C11.584 15.1424 11.5656 15.1786 11.5656 15.2224C11.5656 15.2665 11.54 15.3172 11.5084 15.3354C11.4769 15.3534 11.4319 15.4326 11.408 15.5116C11.326 15.7832 11.17 16.2083 11.1422 16.2361C11.1269 16.2513 11.1143 16.3254 11.1143 16.4005C11.1143 16.4758 11.0959 16.5374 11.0732 16.5374C11.0508 16.5374 11.0324 16.6102 11.0324 16.6991C11.0324 16.788 11.0139 16.8721 10.9913 16.8862C10.9686 16.9 10.9502 17.0026 10.9502 17.1141C10.9502 17.2256 10.9317 17.3169 10.9093 17.3169C10.8852 17.3169 10.8682 17.4577 10.8682 17.6574C10.8682 17.875 10.8497 18.0163 10.817 18.0492C10.7395 18.1268 10.7355 19.889 10.8128 19.9185C10.8537 19.9343 10.8682 20.0367 10.8682 20.308C10.8682 20.5105 10.8867 20.6875 10.9093 20.7016C10.9317 20.7153 10.9502 20.8458 10.9502 20.991C10.9502 21.14 10.9681 21.2554 10.9913 21.2554C11.0139 21.2554 11.0324 21.3189 11.0324 21.3964C11.0324 21.4742 11.0508 21.5491 11.0732 21.5631C11.0959 21.5769 11.1143 21.6507 11.1143 21.727C11.1143 21.8033 11.1328 21.8772 11.1555 21.8912C11.1779 21.9052 11.1963 21.9697 11.1963 22.0347C11.1963 22.1 11.2148 22.1644 11.2374 22.1785C11.2601 22.1923 11.2785 22.2398 11.2785 22.2838C11.2785 22.3281 11.297 22.4008 11.3194 22.4456C11.342 22.4904 11.376 22.5595 11.395 22.5989C11.4139 22.6383 11.4784 22.7592 11.5385 22.867C11.5985 22.975 11.6478 23.0905 11.6478 23.1235C11.6478 23.1564 11.6615 23.1838 11.6785 23.1838C11.7103 23.1843 11.8117 23.3787 11.8117 23.4398C11.8117 23.4587 11.858 23.5205 11.9143 23.5769C11.9707 23.6335 12.017 23.698 12.017 23.7206C12.017 23.7433 12.1462 23.8892 12.304 24.0451C12.462 24.2009 12.5913 24.3476 12.5913 24.3712C12.5913 24.3948 12.607 24.4096 12.626 24.404C12.6452 24.3983 12.7171 24.4537 12.786 24.527C12.8549 24.6004 12.9324 24.6604 12.9583 24.6604C12.9839 24.6604 13.0447 24.6974 13.0929 24.7424C13.1414 24.7877 13.2054 24.8246 13.235 24.8246C13.2645 24.8246 13.2886 24.8431 13.2886 24.8655C13.2886 24.8881 13.3164 24.9066 13.3502 24.9066C13.3841 24.9066 13.4117 24.9251 13.4117 24.9477C13.4117 24.9701 13.4472 24.9886 13.4905 24.9886C13.5336 24.9886 13.5752 25.0073 13.5828 25.0302C13.5904 25.0528 13.6359 25.0792 13.6839 25.0883C13.7322 25.0976 13.8508 25.1436 13.9481 25.1904C14.0451 25.2374 14.1571 25.2758 14.1964 25.2758C14.2361 25.2758 14.2799 25.2943 14.2939 25.3169C14.3077 25.3393 14.4 25.3578 14.499 25.3578C14.5979 25.3578 14.6902 25.3763 14.704 25.3989C14.7198 25.4243 15.0934 25.44 15.6886 25.44C16.2841 25.44 16.6575 25.4243 16.6732 25.3989C16.6873 25.3763 16.7806 25.3578 16.881 25.3578C16.9812 25.3578 17.0631 25.3393 17.0631 25.3169C17.0631 25.2943 17.1045 25.2756 17.1555 25.2751C17.2645 25.2746 17.4651 25.2044 17.7169 25.0792C17.8171 25.0294 17.9232 24.9886 17.9528 24.9886C17.9825 24.9886 18.0067 24.9736 18.0067 24.9553C18.0067 24.9369 18.0712 24.8965 18.1502 24.8655C18.2292 24.8345 18.2939 24.7941 18.2939 24.7759C18.2939 24.7574 18.3188 24.7424 18.3491 24.7424C18.3793 24.7424 18.4377 24.7055 18.4785 24.6604C18.5194 24.6154 18.575 24.5785 18.6021 24.5785C18.6294 24.5785 18.6863 24.5322 18.7286 24.4758C18.771 24.4195 18.8261 24.3732 18.8515 24.3732C18.8766 24.3732 18.9551 24.3178 19.0257 24.2501C19.0966 24.1824 19.1655 24.127 19.1788 24.127C19.1919 24.127 19.2739 24.0532 19.3605 23.9631C19.4471 23.8728 19.538 23.7989 19.5624 23.7989C19.5867 23.7989 19.6067 23.7797 19.6067 23.7561C19.6067 23.7108 19.809 23.4927 19.8277 23.5176C19.8828 23.5914 19.934 23.8225 19.9397 24.0246C19.9436 24.16 19.9621 24.3011 19.9808 24.338C19.9998 24.3752 20.0185 24.5036 20.0229 24.6235C20.0315 24.8721 20.068 24.9566 20.2469 25.1429L20.3744 25.2758H21.2419H22.1093V15.988C22.1093 7.55645 22.1032 6.69761 22.0443 6.67497C21.9082 6.62278 19.8102 6.6474 19.7898 6.70155ZM4.65084 12.3082C4.62943 12.3286 4.51029 12.3557 4.38622 12.3683C3.93675 12.4136 3.77084 12.4438 3.77084 12.48C3.77084 12.5002 3.697 12.5169 3.60666 12.5169C3.51632 12.5169 3.44248 12.5317 3.44248 12.5502C3.44248 12.5684 3.35041 12.607 3.23743 12.6358C3.12469 12.6649 3.02204 12.7052 3.00949 12.7257C2.99669 12.7464 2.94081 12.7631 2.88493 12.7631C2.8293 12.7631 2.77293 12.7907 2.75989 12.8246C2.74709 12.8584 2.69097 12.8862 2.63583 12.8862C2.57921 12.8862 2.54623 12.9041 2.5605 12.927C2.57453 12.9497 2.55139 12.9681 2.50905 12.9681C2.46696 12.9681 2.39288 13.0051 2.34438 13.0501C2.29589 13.0954 2.22007 13.1323 2.17601 13.1323C2.1317 13.1323 2.08937 13.1466 2.08198 13.1638C2.06426 13.2049 1.67509 13.4604 1.63029 13.4604C1.61158 13.4604 1.59632 13.4883 1.59632 13.522C1.59632 13.5557 1.56924 13.5835 1.53626 13.5835C1.50327 13.5835 1.41318 13.6389 1.33589 13.7066C1.25884 13.7743 1.17417 13.8297 1.14758 13.8297C1.121 13.8297 1.11066 13.8481 1.12469 13.8708C1.13847 13.8932 1.1237 13.9116 1.0917 13.9116C1.0597 13.9116 0.998906 13.9579 0.956568 14.0143C0.914229 14.0707 0.858347 14.1169 0.832747 14.1169C0.736747 14.1169 0.679149 14.3518 0.739703 14.4963C0.770226 14.5696 0.790906 14.6435 0.785737 14.6604C0.780321 14.6774 0.803704 14.6912 0.837427 14.6912C0.871642 14.6912 0.898965 14.7276 0.898965 14.7732C0.898965 14.8185 0.912998 14.8554 0.929983 14.8554C0.946967 14.8554 0.984378 14.9083 1.01318 14.9731C1.08998 15.1466 1.41146 15.4708 1.50697 15.4708C1.55226 15.4708 1.59608 15.4902 1.60395 15.5139C1.62758 15.585 1.99706 15.5976 2.065 15.5296C2.09724 15.4971 2.14574 15.4708 2.17257 15.4708C2.24174 15.4708 2.54007 15.298 2.54007 15.2581C2.54007 15.2396 2.5642 15.2246 2.59374 15.2246C2.62328 15.2246 2.68727 15.1877 2.73577 15.1424C2.78401 15.0974 2.85022 15.0604 2.88272 15.0604C2.91496 15.0604 2.95214 15.0326 2.96518 14.9989C2.97798 14.9649 3.02721 14.9374 3.07448 14.9374C3.12174 14.9374 3.14881 14.9189 3.13478 14.8963C3.121 14.8739 3.13822 14.8554 3.17342 14.8554C3.20862 14.8554 3.23743 14.8369 3.23743 14.8143C3.23743 14.7916 3.27435 14.7732 3.3194 14.7732C3.36469 14.7732 3.40161 14.7547 3.40161 14.7323C3.40161 14.7097 3.43853 14.6912 3.48358 14.6912C3.52863 14.6912 3.56555 14.6728 3.56555 14.6501C3.56555 14.6277 3.61183 14.6092 3.6682 14.6092C3.72457 14.6092 3.77084 14.5908 3.77084 14.5681C3.77084 14.5455 3.79644 14.527 3.82771 14.527C3.85897 14.527 3.93601 14.5004 3.99903 14.4677C4.06204 14.435 4.12875 14.4175 4.14721 14.4291C4.16592 14.4406 4.18094 14.4303 4.18094 14.4064C4.18094 14.3825 4.22844 14.3631 4.28628 14.3631C4.34413 14.3631 4.43177 14.3414 4.481 14.3151C4.57946 14.2624 4.66832 14.2501 4.99374 14.244C5.12764 14.2415 5.20173 14.224 5.18622 14.1989C5.15349 14.146 5.62684 14.1433 5.6805 14.1962C5.70192 14.2171 5.8117 14.2427 5.92469 14.2531C6.15706 14.274 6.47853 14.3673 6.47853 14.414C6.47853 14.431 6.52457 14.4451 6.58094 14.4451C6.63755 14.4451 6.68358 14.4635 6.68358 14.4862C6.68358 14.5086 6.70672 14.5273 6.73478 14.5273C6.76309 14.5273 6.85072 14.5827 6.92973 14.6501C7.00875 14.7178 7.0885 14.7732 7.10697 14.7732C7.16998 14.7734 7.30709 14.9563 7.39152 15.1528C7.41811 15.2148 7.45355 15.2655 7.47004 15.2655C7.48678 15.2655 7.53035 15.3349 7.56727 15.4193C7.60395 15.504 7.65097 15.6054 7.67164 15.6446C7.69232 15.6837 7.7093 15.7622 7.7093 15.8188C7.7093 15.8755 7.72579 15.922 7.74622 15.922C7.80432 15.922 7.83632 16.2833 7.85798 17.1835L7.87792 18.0143L7.57835 18.0229C7.03435 18.0384 6.98512 18.0416 6.94697 18.0643C6.92629 18.0766 6.67841 18.0936 6.39632 18.1019C6.11447 18.11 5.87374 18.13 5.86168 18.146C5.84961 18.1617 5.69848 18.1782 5.52543 18.1822C5.30315 18.1873 5.20493 18.2058 5.18967 18.2454C5.17515 18.2833 5.09564 18.3016 4.94377 18.3016C4.8202 18.3016 4.7077 18.32 4.69392 18.3424C4.67989 18.3651 4.57724 18.3835 4.46573 18.3835C4.35422 18.3835 4.26315 18.402 4.26315 18.4246C4.26315 18.447 4.19964 18.4655 4.12185 18.4655C4.04432 18.4655 3.96924 18.484 3.95546 18.5066C3.94142 18.5292 3.86758 18.5477 3.79127 18.5477C3.71497 18.5477 3.64112 18.5662 3.62709 18.5886C3.61331 18.6112 3.53946 18.6297 3.46315 18.6297C3.38684 18.6297 3.313 18.6481 3.29897 18.6708C3.28493 18.6932 3.22856 18.7116 3.17342 18.7116C3.11829 18.7116 3.07324 18.7272 3.07324 18.7461C3.07324 18.7651 2.96986 18.8054 2.84358 18.8357C2.71706 18.8662 2.60432 18.9152 2.59299 18.945C2.58167 18.9745 2.52801 18.9989 2.4741 18.9989C2.41995 18.9989 2.37589 19.0174 2.37589 19.04C2.37589 19.0624 2.33896 19.0809 2.29392 19.0809C2.24863 19.0809 2.21171 19.0993 2.21171 19.122C2.21171 19.1446 2.18586 19.1631 2.15435 19.1631C2.08838 19.1631 1.66303 19.3807 1.57564 19.459C1.43976 19.5813 1.39127 19.616 1.39127 19.5907C1.39127 19.5759 1.3226 19.6305 1.23866 19.7123C1.15472 19.7937 1.06537 19.8604 1.04051 19.8604C1.0154 19.8604 0.970102 19.9067 0.940071 19.9631C0.909794 20.0195 0.857365 20.0655 0.823642 20.0655C0.789919 20.0655 0.772933 20.0763 0.786225 20.0896C0.810102 20.1132 0.719025 20.2348 0.540071 20.4185C0.489117 20.4704 0.447763 20.5406 0.447763 20.574C0.447763 20.6078 0.429304 20.6464 0.406658 20.6604C0.384012 20.6745 0.365552 20.7217 0.365552 20.7656C0.365552 20.8091 0.347087 20.8451 0.324687 20.8451C0.30204 20.8451 0.283581 20.8699 0.283581 20.9002C0.283581 20.9307 0.254538 21.0134 0.219338 21.0843C0.183892 21.1552 0.167887 21.234 0.183641 21.2593C0.199149 21.2847 0.190287 21.3189 0.163456 21.3354C0.136871 21.3519 0.105123 21.4558 0.093061 21.5663C0.0807533 21.6768 0.0568755 21.795 0.0398909 21.8292C-0.00613988 21.9215 -0.0154988 22.3631 0.0285628 22.3631C0.0494858 22.3631 0.0770591 22.5132 0.0896129 22.6969C0.102167 22.8805 0.128012 23.042 0.146719 23.0558C0.165673 23.0696 0.186839 23.1363 0.193977 23.204C0.201116 23.2716 0.224258 23.3448 0.245427 23.3662C0.26635 23.3876 0.283581 23.4474 0.283581 23.4993C0.283581 23.5513 0.30204 23.5939 0.324687 23.5939C0.347087 23.5939 0.365552 23.6177 0.365552 23.647C0.365552 23.7226 0.462042 23.9212 0.498965 23.9217C0.51595 23.9217 0.529735 23.9589 0.529735 24.004C0.529735 24.0492 0.548194 24.0862 0.57084 24.0862C0.59324 24.0862 0.611706 24.1064 0.611706 24.1312C0.611706 24.211 1.40161 24.9524 1.46192 24.9292C1.49318 24.9174 1.50721 24.9258 1.49343 24.9482C1.47964 24.9704 1.48925 24.9886 1.51485 24.9886C1.54045 24.9886 1.58918 25.0166 1.62315 25.0506C1.65712 25.0846 1.70192 25.102 1.72284 25.0892C1.74352 25.0764 1.7605 25.0828 1.7605 25.1038C1.7605 25.1244 1.84813 25.1729 1.95546 25.2111C2.06253 25.2495 2.18241 25.298 2.22155 25.3194C2.26069 25.3406 2.34733 25.3578 2.41404 25.3578C2.4805 25.3578 2.54647 25.3763 2.5605 25.3989C2.57453 25.4216 2.67718 25.44 2.78869 25.44C2.89995 25.44 2.99127 25.4585 2.99127 25.4809C2.99127 25.5365 4.49527 25.5365 4.52973 25.4809C4.54377 25.4585 4.66364 25.44 4.79632 25.44C4.92924 25.44 5.04912 25.4216 5.06315 25.3989C5.07693 25.3763 5.16112 25.3578 5.25023 25.3578C5.33909 25.3578 5.41171 25.3393 5.41171 25.3169C5.41171 25.2943 5.45823 25.2758 5.51485 25.2758C5.57171 25.2758 5.64998 25.2588 5.68936 25.2379C5.87595 25.139 6.40001 24.9066 6.43693 24.9066C6.45982 24.9066 6.47853 24.8881 6.47853 24.8655C6.47853 24.8431 6.51546 24.8246 6.5605 24.8246C6.60555 24.8246 6.64247 24.8062 6.64247 24.7835C6.64247 24.7609 6.67792 24.7424 6.72125 24.7424C6.76432 24.7424 6.80592 24.7286 6.81355 24.7116C6.82094 24.6949 6.90561 24.6277 7.00161 24.5625C7.09736 24.4975 7.17589 24.4283 7.17589 24.4086C7.17589 24.3892 7.20444 24.3732 7.23939 24.3732C7.2741 24.3732 7.34574 24.3318 7.39817 24.2809C7.53922 24.1448 7.665 24.0453 7.69946 24.0431C7.7162 24.0419 7.80333 23.9688 7.89318 23.8804C8.08223 23.6948 8.10684 23.7051 8.13097 23.9816C8.14057 24.0933 8.16961 24.1918 8.19546 24.2004C8.22327 24.2095 8.24247 24.3082 8.24247 24.4406C8.24247 24.58 8.25823 24.6558 8.28358 24.64C8.30795 24.6248 8.32469 24.6737 8.32469 24.7606C8.32469 24.8409 8.34315 24.9066 8.36555 24.9066C8.3882 24.9066 8.40691 24.9388 8.40715 24.9785C8.40838 25.2155 8.75792 25.3268 9.56432 25.3462L10.2092 25.3617L10.2334 25.266C10.2855 25.0577 10.2348 16.2568 10.1809 16.2031C10.1519 16.1738 10.1297 16.0495 10.1297 15.9139C10.1297 15.7824 10.1113 15.6758 10.0886 15.6758C10.0662 15.6758 10.0478 15.602 10.0478 15.5116C10.0478 15.4216 10.0293 15.3477 10.0067 15.3477C9.98401 15.3477 9.96555 15.283 9.96555 15.204C9.96555 15.1249 9.94709 15.0604 9.92469 15.0604C9.90204 15.0604 9.88358 15.0233 9.88358 14.9777C9.88358 14.898 9.86906 14.8586 9.7669 14.6609C9.74081 14.6105 9.7194 14.5502 9.7194 14.5268C9.7194 14.4891 9.52813 14.1701 9.47373 14.1169C9.46216 14.1056 9.425 14.0424 9.39127 13.9761C9.3573 13.9102 9.24211 13.7659 9.13478 13.6556C9.02771 13.5451 8.94007 13.4378 8.94007 13.4166C8.94007 13.3957 8.92235 13.3785 8.90045 13.3785C8.87878 13.3785 8.78795 13.3046 8.6986 13.2143C8.60924 13.124 8.50857 13.0501 8.47484 13.0501C8.44112 13.0501 8.40739 13.0363 8.39976 13.0193C8.37712 12.9681 8.08715 12.7631 8.03767 12.7631C8.01232 12.7631 8.00493 12.74 8.02118 12.7116C8.03718 12.6836 8.03595 12.6735 8.01823 12.6895C8.0005 12.7055 7.9338 12.6917 7.87004 12.6587C7.80654 12.626 7.71644 12.5989 7.67016 12.5989C7.62389 12.5989 7.58622 12.5804 7.58622 12.5578C7.58622 12.5354 7.55029 12.5169 7.50647 12.5169C7.46265 12.5169 7.41539 12.4985 7.40161 12.4758C7.38758 12.4532 7.31373 12.4347 7.23743 12.4347C7.16112 12.4347 7.08727 12.4163 7.07324 12.3939C7.05946 12.3712 6.95558 12.3528 6.84284 12.3528C6.71657 12.3528 6.64739 12.337 6.66315 12.3116C6.69564 12.259 4.70574 12.2553 4.65084 12.3082ZM26.704 12.3116C26.704 12.3345 26.5955 12.3528 26.4603 12.3528C26.3264 12.3528 26.2065 12.3692 26.194 12.3894C26.1814 12.4096 26.1019 12.4362 26.0172 12.4488C25.7255 12.4913 25.5759 12.5283 25.553 12.5635C25.5404 12.5827 25.4806 12.6026 25.4198 12.6078C25.359 12.6127 25.3093 12.6312 25.3093 12.6489C25.3093 12.6666 25.2734 12.6809 25.2295 12.6809C25.1857 12.6809 25.1385 12.6993 25.1247 12.722C25.1107 12.7446 25.0634 12.7631 25.0196 12.7631C24.9758 12.7631 24.9401 12.7907 24.9401 12.8246C24.9401 12.8628 24.9012 12.8862 24.8374 12.8862C24.7811 12.8862 24.7348 12.9046 24.7348 12.927C24.7348 12.9497 24.7166 12.9681 24.6944 12.9681C24.6563 12.9681 24.5487 13.0462 24.4256 13.1631C24.3958 13.1912 24.3518 13.2143 24.3274 13.2143C24.2577 13.2143 23.6271 13.8587 23.6271 13.9299C23.6271 13.9651 23.6086 13.9939 23.5862 13.9939C23.5636 13.9939 23.5451 14.0214 23.5451 14.0554C23.5451 14.0891 23.5163 14.1169 23.4811 14.1169C23.4459 14.1169 23.4279 14.1342 23.441 14.1553C23.454 14.1765 23.438 14.2088 23.4053 14.2272C23.3726 14.2454 23.3425 14.2789 23.3386 14.3016C23.3344 14.324 23.2963 14.4111 23.2534 14.4948C23.2108 14.5785 23.1759 14.6846 23.1759 14.7306C23.1759 14.7766 23.1574 14.8143 23.1348 14.8143C23.1124 14.8143 23.0939 14.8687 23.0939 14.9349C23.0939 15.0014 23.0755 15.0671 23.0528 15.0809C23.0302 15.0949 23.0117 15.1801 23.0117 15.2704C23.0117 15.3694 22.9955 15.4245 22.9708 15.4092C22.944 15.3928 22.9297 15.6138 22.9297 16.0426C22.9297 16.4544 22.945 16.7016 22.9708 16.7016C22.9932 16.7016 23.0117 16.7653 23.0117 16.8431C23.0117 16.9211 23.0326 17.0363 23.058 17.0996C23.0833 17.1626 23.1178 17.2512 23.1345 17.2963C23.1865 17.4363 23.2771 17.6236 23.3034 17.6451C23.3172 17.6564 23.3593 17.7256 23.3969 17.7989C23.4344 17.8723 23.4831 17.9323 23.5052 17.9323C23.5272 17.9323 23.5451 17.9599 23.5451 17.9939C23.5451 18.0276 23.5636 18.0554 23.5862 18.0554C23.6086 18.0554 23.6271 18.0739 23.6271 18.0965C23.6271 18.145 23.9843 18.5051 24.0081 18.4812C24.0172 18.4721 24.0827 18.5204 24.1536 18.5883C24.2247 18.6563 24.3107 18.7116 24.3446 18.7116C24.3788 18.7116 24.4067 18.7267 24.4067 18.7451C24.4067 18.7633 24.4712 18.8037 24.5502 18.8347C24.6292 18.8657 24.6939 18.9164 24.6939 18.9475C24.6939 18.9785 24.7107 18.9932 24.7313 18.9807C24.7653 18.9595 25.0142 19.0683 25.0631 19.1254C25.0742 19.1387 25.1712 19.1752 25.2785 19.2062C25.3856 19.2374 25.4732 19.2773 25.4732 19.295C25.4732 19.3128 25.5286 19.327 25.5963 19.327C25.664 19.327 25.7194 19.3455 25.7194 19.3681C25.7194 19.3908 25.7748 19.4092 25.8425 19.4092C25.9102 19.4092 25.9656 19.4277 25.9656 19.4501C25.9656 19.4728 26.0313 19.4912 26.1118 19.4912C26.1987 19.4912 26.2474 19.5077 26.2324 19.5323C26.2171 19.5567 26.2661 19.5732 26.353 19.5732C26.4332 19.5732 26.499 19.5899 26.499 19.6104C26.499 19.631 26.6051 19.6785 26.7348 19.7164C26.8645 19.7544 27.0028 19.8021 27.042 19.8228C27.0811 19.8435 27.1473 19.8604 27.1889 19.8604C27.2308 19.8604 27.2778 19.8735 27.2938 19.8892C27.3096 19.9052 27.3726 19.9249 27.4339 19.9328C27.4952 19.9409 27.5626 19.9648 27.584 19.986C27.6054 20.0072 27.6645 20.0246 27.715 20.0246C27.7657 20.0246 27.8183 20.0431 27.8324 20.0655C27.8462 20.0881 27.9131 20.1066 27.9808 20.1066C28.0524 20.1066 28.0933 20.1238 28.0785 20.1477C28.064 20.1708 28.0985 20.1886 28.158 20.1886C28.2159 20.1886 28.2631 20.207 28.2631 20.2297C28.2631 20.2523 28.3001 20.2708 28.3451 20.2708C28.3902 20.2708 28.4271 20.2892 28.4271 20.3116C28.4271 20.3343 28.4549 20.3528 28.4886 20.3528C28.5224 20.3528 28.64 20.4175 28.75 20.4963C28.8598 20.5753 28.9632 20.64 28.9797 20.64C28.9962 20.64 29.0631 20.6998 29.1289 20.7732C29.312 20.9785 29.3297 21.0026 29.3297 21.0484C29.3297 21.072 29.3477 21.0912 29.3694 21.0912C29.3913 21.0912 29.3994 21.1166 29.3876 21.1473C29.3758 21.1784 29.3947 21.2148 29.4299 21.2283C29.4732 21.2448 29.4939 21.3064 29.4939 21.4181C29.4939 21.5092 29.5124 21.5835 29.5348 21.5835C29.5574 21.5835 29.5759 21.6677 29.5759 21.7706C29.5759 21.8848 29.5599 21.9478 29.5348 21.9323C29.5097 21.9166 29.4939 21.985 29.4939 22.11C29.4939 22.2528 29.4755 22.3203 29.4324 22.3368C29.3984 22.3498 29.3708 22.3961 29.3708 22.4396C29.3708 22.5288 29.1904 22.8665 29.1594 22.8355C29.1486 22.8244 29.1141 22.8798 29.0833 22.9585C29.0526 23.0371 29.0058 23.1016 28.9795 23.1016C28.9531 23.1016 28.8778 23.1523 28.8121 23.2143C28.6902 23.3292 28.5376 23.4184 28.4273 23.4388C28.3936 23.4449 28.3454 23.4762 28.3205 23.5082C28.2944 23.5412 28.2449 23.5547 28.2053 23.5395C28.1642 23.5235 28.146 23.5291 28.1608 23.5532C28.1755 23.5771 28.1251 23.5939 28.0387 23.5939C27.9454 23.5939 27.8826 23.6165 27.8676 23.6554C27.8501 23.7009 27.7772 23.7169 27.5843 23.7169C27.4412 23.7169 27.313 23.7354 27.299 23.7578C27.2849 23.7804 27.1547 23.7989 27.0092 23.7989C26.8606 23.7989 26.7451 23.7809 26.7451 23.7578C26.7451 23.7339 26.608 23.7169 26.4155 23.7169C26.1706 23.7169 26.0805 23.7022 26.064 23.6593C26.0512 23.6261 25.9983 23.6064 25.939 23.6131C25.8824 23.6192 25.8272 23.6012 25.8164 23.5732C25.8055 23.5449 25.7504 23.522 25.694 23.522C25.6374 23.522 25.5048 23.4801 25.3989 23.4289C25.2933 23.378 25.1235 23.2972 25.022 23.2495C24.9204 23.202 24.8281 23.1537 24.817 23.1424C24.8057 23.1311 24.7456 23.0956 24.6836 23.0636C24.6215 23.0316 24.5708 22.9809 24.5708 22.9509C24.5708 22.9209 24.5568 22.8985 24.5401 22.9012C24.4539 22.9147 24.4049 22.8913 24.431 22.849C24.4497 22.8187 24.4424 22.8128 24.4104 22.8325C24.383 22.8495 24.3294 22.8384 24.2912 22.8081C23.9803 22.5595 23.4745 22.5841 23.2067 22.8611C23.1446 22.9251 23.0939 23.0056 23.0939 23.0395C23.0939 23.0735 23.0774 23.1016 23.0575 23.1016C23.0376 23.1016 23.0105 23.1338 22.9972 23.1732C22.9639 23.2716 22.8172 23.5203 22.7752 23.5496C22.674 23.6195 22.5765 23.9035 22.623 23.9936C22.6491 24.0441 22.6796 24.0763 22.691 24.065C22.7023 24.0537 22.7697 24.1 22.8409 24.1679C22.9118 24.2356 22.9979 24.2912 23.0319 24.2912C23.0659 24.2912 23.0939 24.305 23.0939 24.322C23.0939 24.339 23.1766 24.4081 23.2775 24.4758C23.3787 24.5435 23.4617 24.6127 23.4622 24.6297C23.4627 24.6467 23.5001 24.6604 23.5451 24.6604C23.5902 24.6604 23.6271 24.6789 23.6271 24.7016C23.6271 24.724 23.664 24.7424 23.7093 24.7424C23.7543 24.7424 23.7913 24.7609 23.7913 24.7835C23.7913 24.8062 23.8272 24.8246 23.8708 24.8246C23.9146 24.8246 23.9619 24.8431 23.9759 24.8655C23.9899 24.8881 24.0372 24.9066 24.081 24.9066C24.1246 24.9066 24.1605 24.9251 24.1605 24.9477C24.1605 24.9701 24.1974 24.9886 24.2425 24.9886C24.2878 24.9886 24.3247 25.007 24.3247 25.0297C24.3247 25.0523 24.3604 25.0708 24.4042 25.0708C24.448 25.0708 24.4943 25.0875 24.5068 25.108C24.5196 25.1284 24.6361 25.1756 24.7658 25.2128C24.8955 25.25 25.0582 25.2977 25.1274 25.3192C25.1968 25.3403 25.3014 25.3578 25.36 25.3578C25.4186 25.3578 25.4727 25.3753 25.4801 25.3967C25.4878 25.4179 25.6192 25.4393 25.7723 25.4442C25.9257 25.4491 26.0606 25.4686 26.0721 25.4875C26.1031 25.5375 27.7603 25.5313 27.7913 25.4809C27.8053 25.4585 27.9264 25.44 28.0603 25.44C28.1955 25.44 28.304 25.4216 28.304 25.3989C28.304 25.3763 28.3678 25.3578 28.4458 25.3578C28.5236 25.3578 28.6299 25.3413 28.6816 25.3211C28.7336 25.3009 28.8588 25.2601 28.9605 25.23C29.0619 25.2003 29.1914 25.1523 29.2478 25.1235C29.3041 25.0947 29.3733 25.071 29.4016 25.071C29.4297 25.0708 29.4528 25.0523 29.4528 25.0297C29.4528 25.007 29.4811 24.9886 29.5158 24.9886C29.5505 24.9886 29.6244 24.9588 29.68 24.9224C29.7354 24.8859 29.7809 24.8704 29.7809 24.8876C29.7809 24.9049 29.8134 24.883 29.8528 24.8389C29.8922 24.7948 29.9968 24.7252 30.0852 24.6841C30.1735 24.6427 30.318 24.5376 30.4064 24.4502C30.4948 24.3628 30.574 24.2912 30.5829 24.2912C30.6191 24.2912 30.8478 24.0446 30.8478 24.0054C30.8478 23.982 30.8721 23.9631 30.9024 23.9631C30.9324 23.9631 30.9817 23.9168 31.0117 23.8604C31.042 23.8041 31.0821 23.7578 31.1008 23.7578C31.1195 23.7578 31.1348 23.7251 31.1348 23.6849C31.1348 23.6448 31.1717 23.5852 31.217 23.5528C31.262 23.5203 31.299 23.4607 31.299 23.4206C31.299 23.3804 31.3174 23.3477 31.3401 23.3477C31.3625 23.3477 31.3809 23.3009 31.3809 23.2438C31.3809 23.1867 31.4085 23.1294 31.4422 23.1163C31.476 23.1035 31.4929 23.0755 31.4799 23.0543C31.4666 23.0331 31.4853 22.9711 31.521 22.9164C31.5569 22.8618 31.5862 22.7796 31.5862 22.7338C31.5862 22.6878 31.6047 22.6501 31.6271 22.6501C31.6497 22.6501 31.6682 22.5856 31.6682 22.5066C31.6682 22.4276 31.684 22.3631 31.7032 22.3631C31.7809 22.3631 31.7876 20.5787 31.71 20.5012C31.6869 20.4783 31.6682 20.4076 31.6682 20.3446C31.6682 20.2814 31.6544 20.2297 31.6374 20.2294C31.6204 20.2294 31.5724 20.1465 31.5308 20.0448C31.489 19.9434 31.4383 19.8604 31.4179 19.8604C31.3977 19.8604 31.3809 19.8366 31.3809 19.8075C31.3809 19.7785 31.3263 19.6908 31.2596 19.6128C31.1929 19.5345 31.1375 19.4508 31.1365 19.4267C31.1348 19.3787 30.7828 19.0597 30.734 19.0619C30.6865 19.0639 30.4913 18.8586 30.5086 18.8246C30.5172 18.8076 30.4908 18.7934 30.4502 18.7929C30.4094 18.7924 30.3299 18.756 30.2732 18.7116C30.2169 18.6676 30.1477 18.6312 30.1194 18.6307C30.0913 18.6302 30.0682 18.6112 30.0682 18.5886C30.0682 18.5662 30.0441 18.5477 30.0143 18.5477C29.9848 18.5477 29.8841 18.5108 29.7908 18.4655C29.6972 18.4204 29.5924 18.3835 29.5574 18.3835C29.5225 18.3835 29.4939 18.3651 29.4939 18.3424C29.4939 18.32 29.4486 18.3016 29.3932 18.3016C29.3381 18.3016 29.278 18.2764 29.2601 18.2459C29.2419 18.2154 29.1717 18.1782 29.104 18.1635C29.0363 18.1487 28.9349 18.1263 28.8785 18.114C28.8222 18.1017 28.7697 18.0741 28.7621 18.0529C28.7547 18.0318 28.6947 18.0143 28.6289 18.0143C28.563 18.0143 28.5093 17.9958 28.5093 17.9732C28.5093 17.9508 28.4549 17.9323 28.3887 17.9323C28.3222 17.9323 28.2565 17.9139 28.2425 17.8912C28.2287 17.8686 28.1733 17.8501 28.1194 17.8501C28.0657 17.8501 28.0104 17.8316 27.9963 17.8092C27.9825 17.7866 27.9178 17.7681 27.8528 17.7681C27.7878 17.7681 27.7231 17.7497 27.7093 17.727C27.6953 17.7046 27.631 17.6862 27.5665 17.6862C27.502 17.6862 27.4432 17.6712 27.4358 17.6532C27.4282 17.635 27.2928 17.5776 27.1348 17.5257C26.8428 17.4292 26.7523 17.3937 26.4072 17.2396C26.3001 17.1919 26.194 17.1528 26.1711 17.1528C26.1484 17.1528 26.1297 17.1343 26.1297 17.1116C26.1297 17.0892 26.097 17.0708 26.0566 17.0708C26.0165 17.0708 25.9572 17.0339 25.9247 16.9886C25.8922 16.9435 25.8459 16.9066 25.822 16.9066C25.7982 16.9066 25.7504 16.8744 25.7159 16.8347C25.6815 16.7953 25.6037 16.7264 25.5429 16.6814C25.4821 16.6366 25.4319 16.5812 25.4314 16.5583C25.4309 16.5356 25.3945 16.4707 25.3502 16.4143C25.3061 16.3579 25.2697 16.2622 25.2692 16.2014C25.2687 16.1406 25.2497 16.0795 25.2271 16.0655C25.2047 16.0517 25.1862 15.9491 25.1862 15.8376C25.1862 15.726 25.2047 15.6347 25.2271 15.6347C25.2497 15.6347 25.2682 15.5712 25.2682 15.4937C25.2682 15.4159 25.2867 15.3411 25.3093 15.327C25.3317 15.3132 25.3502 15.266 25.3502 15.2222C25.3502 15.1784 25.3686 15.1424 25.3913 15.1424C25.4139 15.1424 25.4324 15.1227 25.4324 15.0986C25.4324 15.0745 25.4602 15.0267 25.4942 14.9928C25.5284 14.9585 25.5456 14.9137 25.5328 14.8931C25.52 14.8724 25.5343 14.8554 25.5643 14.8554C25.5946 14.8554 25.646 14.8185 25.6785 14.7732C25.711 14.7281 25.7622 14.6912 25.7925 14.6912C25.8228 14.6912 25.8361 14.6728 25.822 14.6501C25.808 14.6277 25.822 14.6092 25.8528 14.6092C25.8838 14.6092 25.9488 14.5723 25.9973 14.527C26.0456 14.482 26.1241 14.4451 26.1716 14.4451C26.2188 14.4451 26.2462 14.4266 26.2324 14.404C26.2183 14.3816 26.244 14.3631 26.289 14.3631C26.334 14.3631 26.3816 14.3459 26.3944 14.3252C26.4074 14.3043 26.4731 14.2752 26.5406 14.2604C26.608 14.2454 26.6631 14.2164 26.6631 14.1957C26.6631 14.1748 26.7518 14.1578 26.8601 14.1578C26.9684 14.1578 27.0764 14.1384 27.1006 14.1142C27.1737 14.0411 28.3833 14.1123 28.5708 14.2009C28.6159 14.2223 28.6959 14.2457 28.7486 14.2531C28.801 14.2604 28.8591 14.2905 28.8773 14.32C28.8955 14.3496 28.9275 14.3628 28.9487 14.3498C28.9696 14.3368 29.0385 14.353 29.1015 14.3857C29.1646 14.4182 29.2416 14.4451 29.2729 14.4451C29.3041 14.4451 29.3297 14.4635 29.3297 14.4862C29.3297 14.5086 29.3568 14.527 29.39 14.527C29.4233 14.527 29.5161 14.564 29.5963 14.6092C29.6768 14.6543 29.7696 14.6912 29.8028 14.6912C29.8358 14.6912 29.8631 14.7097 29.8631 14.7323C29.8631 14.7547 29.9001 14.7732 29.9451 14.7732C29.9902 14.7732 30.0271 14.7916 30.0271 14.8143C30.0271 14.8369 30.0534 14.8554 30.0852 14.8554C30.1172 14.8554 30.1507 14.8773 30.1598 14.9044C30.1834 14.975 30.8721 14.9775 30.8579 14.9066C30.8522 14.8783 30.8675 14.8554 30.8916 14.8554C30.978 14.8554 31.299 14.4192 31.299 14.3018C31.299 14.2651 31.3174 14.2464 31.3401 14.2604C31.3625 14.2745 31.3809 14.2486 31.3809 14.2033C31.3809 14.158 31.4134 14.1022 31.4528 14.079C31.4922 14.0561 31.5094 14.0367 31.491 14.036C31.4723 14.0355 31.4863 14.0057 31.5217 13.9702C31.618 13.874 31.6012 13.8105 31.4425 13.6712C31.3635 13.6017 31.299 13.5291 31.299 13.5097C31.299 13.4902 31.2529 13.4496 31.1963 13.4193C31.14 13.3893 31.0939 13.3492 31.0939 13.3305C31.0939 13.3118 31.0695 13.2963 31.04 13.2963C31.0105 13.2963 30.9467 13.2593 30.8982 13.2143C30.8497 13.1692 30.7815 13.1323 30.7468 13.1323C30.7121 13.1323 30.6836 13.1139 30.6836 13.0912C30.6836 13.0686 30.6467 13.0501 30.6016 13.0501C30.5563 13.0501 30.5194 13.0316 30.5194 13.0092C30.5194 12.9866 30.4918 12.9681 30.4579 12.9681C30.4241 12.9681 30.3963 12.9497 30.3963 12.927C30.3963 12.9046 30.3589 12.8862 30.3131 12.8862C30.2673 12.8862 30.2191 12.8584 30.206 12.8246C30.1932 12.7907 30.1371 12.7631 30.082 12.7631C30.0163 12.7631 29.9914 12.7466 30.0106 12.7156C30.0266 12.6895 30.0232 12.6782 30.0027 12.6902C29.9823 12.7025 29.9195 12.6929 29.8631 12.6696C29.6089 12.563 29.4668 12.5182 29.3834 12.5174C29.3339 12.5172 29.2822 12.4985 29.2682 12.4758C29.2542 12.4532 29.1803 12.4347 29.104 12.4347C29.0277 12.4347 28.9539 12.4163 28.9401 12.3939C28.926 12.3712 28.7865 12.3528 28.6299 12.3528C28.4675 12.3528 28.3451 12.335 28.3451 12.3116C28.3451 12.2858 28.0443 12.2708 27.5247 12.2708C27.0051 12.2708 26.704 12.2858 26.704 12.3116ZM17.0425 14.1169C17.0565 14.1393 17.2032 14.1578 17.3689 14.1578C17.5865 14.1578 17.6756 14.1736 17.6913 14.2144C17.7054 14.2508 17.7593 14.2656 17.8432 14.2558C17.9156 14.2474 18.0121 14.2678 18.0606 14.3018C18.1086 14.3355 18.1807 14.3631 18.2208 14.3631C18.2609 14.3631 18.2939 14.3816 18.2939 14.404C18.2939 14.4266 18.34 14.4451 18.3963 14.4451C18.4529 14.4451 18.4992 14.4588 18.4992 14.4758C18.4997 14.5083 18.6947 14.6092 18.7574 14.6092C18.7776 14.6092 18.846 14.6646 18.9093 14.7323C18.9726 14.8 19.04 14.8554 19.0592 14.8554C19.107 14.8554 19.3568 15.1306 19.3361 15.1601C19.327 15.1729 19.3317 15.1742 19.347 15.1628C19.3829 15.136 19.5247 15.2648 19.5247 15.3243C19.5247 15.3497 19.5616 15.3972 19.6067 15.4297C19.6517 15.4622 19.6886 15.5136 19.6886 15.5436C19.6886 15.5739 19.7071 15.5872 19.7297 15.5732C19.7571 15.5564 19.7708 16.5635 19.7708 18.5632C19.7708 20.5292 19.7566 21.5875 19.7297 21.604C19.7071 21.618 19.6886 21.6569 19.6886 21.6904C19.6886 21.76 19.5092 21.9528 19.4444 21.9528C19.4208 21.9528 19.4016 21.9816 19.4016 22.0168C19.4016 22.052 19.3831 22.0692 19.3605 22.0554C19.3379 22.0414 19.3194 22.0542 19.3194 22.0837C19.3192 22.2031 18.628 22.8035 18.561 22.7427C18.5423 22.7257 18.5401 22.7348 18.5563 22.7628C18.5748 22.7948 18.5467 22.8318 18.4807 22.8618C18.4231 22.8879 18.3759 22.9342 18.3759 22.9644C18.3759 22.9947 18.339 23.0193 18.2939 23.0193C18.2486 23.0193 18.2117 23.0378 18.2117 23.0604C18.2117 23.0831 18.1748 23.1016 18.1297 23.1016C18.0847 23.1016 18.0478 23.12 18.0478 23.1424C18.0478 23.1651 18.0118 23.1835 17.968 23.1835C17.9242 23.1835 17.8769 23.202 17.8631 23.2246C17.8491 23.247 17.7937 23.2655 17.7401 23.2655C17.6862 23.2655 17.6308 23.284 17.617 23.3066C17.603 23.3292 17.5269 23.3477 17.4479 23.3477C17.3627 23.3477 17.3147 23.3642 17.3297 23.3886C17.3455 23.4142 17.2625 23.4297 17.1089 23.4297C16.9735 23.4297 16.8515 23.4481 16.8374 23.4708C16.8057 23.522 16.0271 23.5254 15.9739 23.4745C15.9525 23.454 15.8425 23.4272 15.7297 23.4152C15.3881 23.3782 15.217 23.3406 15.217 23.3022C15.217 23.282 15.1811 23.2655 15.1372 23.2655C15.0934 23.2655 15.0462 23.247 15.0324 23.2246C15.0183 23.202 14.9711 23.1835 14.9273 23.1835C14.8835 23.1835 14.8478 23.1695 14.8478 23.1525C14.8478 23.1355 14.7924 23.0969 14.7247 23.0671C14.657 23.0371 14.6016 22.9864 14.6016 22.9544C14.6016 22.9226 14.579 22.8963 14.5514 22.8963C14.4862 22.8963 13.9862 22.3631 13.9862 22.2934C13.9862 22.2641 13.9678 22.24 13.9451 22.24C13.9225 22.24 13.904 22.2031 13.904 22.1578C13.904 22.1128 13.8855 22.0758 13.8631 22.0758C13.8405 22.0758 13.822 22.0488 13.822 22.0155C13.822 21.9823 13.7851 21.8895 13.7401 21.8092C13.6948 21.7288 13.6579 21.6303 13.6579 21.5904C13.6579 21.5505 13.6406 21.5003 13.6195 21.4789C13.598 21.4575 13.571 21.3846 13.5587 21.3172C13.5466 21.2497 13.5178 21.1882 13.4947 21.1803C13.4718 21.1727 13.4528 21.0942 13.4528 21.0058C13.4528 20.9174 13.4344 20.8451 13.4117 20.8451C13.3886 20.8451 13.3708 20.7289 13.3708 20.5785C13.3708 20.4281 13.3529 20.3116 13.3297 20.3116C13.3031 20.3116 13.2886 19.84 13.2886 18.9785C13.2886 18.1169 13.3031 17.6451 13.3297 17.6451C13.3526 17.6451 13.3708 17.5358 13.3708 17.3989C13.3708 17.262 13.3891 17.1528 13.4117 17.1528C13.4344 17.1528 13.4528 17.0897 13.4528 17.0124C13.4528 16.9354 13.4836 16.8108 13.5212 16.7355C13.6463 16.4859 13.6579 16.4569 13.6579 16.3924C13.6579 16.3572 13.6948 16.2518 13.7401 16.1585C13.7851 16.065 13.822 15.9643 13.822 15.9348C13.822 15.9052 13.8371 15.8809 13.8555 15.8809C13.8737 15.8809 13.9141 15.8164 13.9451 15.7374C13.9761 15.6584 14.0165 15.5939 14.0347 15.5939C14.0532 15.5939 14.0682 15.566 14.0682 15.5323C14.0682 15.4984 14.0869 15.4708 14.1098 15.4708C14.1327 15.4708 14.1834 15.4181 14.2228 15.3536C14.3498 15.1446 14.6179 14.8736 14.7963 14.7737C14.8923 14.72 14.9708 14.6609 14.9708 14.6427C14.9708 14.6243 14.9984 14.6092 15.0324 14.6092C15.0661 14.6092 15.0939 14.5908 15.0939 14.5681C15.0939 14.5455 15.1215 14.527 15.1555 14.527C15.1892 14.527 15.217 14.5086 15.217 14.4862C15.217 14.4635 15.2527 14.4451 15.2965 14.4451C15.3403 14.4451 15.3876 14.4266 15.4016 14.404C15.4154 14.3816 15.458 14.3628 15.4964 14.3628C15.5345 14.3626 15.6185 14.335 15.6832 14.3013C15.7477 14.2676 15.8447 14.24 15.8986 14.24C15.9523 14.24 15.9963 14.2216 15.9963 14.1989C15.9963 14.1748 16.1401 14.1578 16.3451 14.1578C16.5502 14.1578 16.6939 14.1411 16.6939 14.1169C16.6939 14.0943 16.7665 14.0758 16.8554 14.0758C16.9445 14.0758 17.0287 14.0943 17.0425 14.1169ZM7.87324 20.848C7.87324 22.1002 7.85035 22.3264 7.73465 22.2107C7.72062 22.1967 7.7093 22.2127 7.7093 22.2462C7.7093 22.2971 7.53577 22.4862 7.48924 22.4862C7.48137 22.4862 7.38881 22.5699 7.28321 22.6725C7.17786 22.7749 7.07644 22.8495 7.05773 22.8379C7.03927 22.8264 6.99989 22.8625 6.9701 22.9182C6.94032 22.9738 6.89011 23.0193 6.85884 23.0193C6.82758 23.0193 6.81085 23.0341 6.82192 23.0518C6.833 23.0698 6.80198 23.0875 6.75324 23.0912C6.70425 23.0949 6.65774 23.1171 6.65011 23.1407C6.64223 23.1643 6.61416 23.184 6.58782 23.1845C6.56149 23.185 6.4938 23.2214 6.43743 23.2655C6.38106 23.3098 6.30401 23.3462 6.2666 23.3467C6.22893 23.3472 6.19201 23.3654 6.18438 23.3876C6.17699 23.4095 6.13392 23.4334 6.08863 23.4408C6.04358 23.4484 5.94192 23.4848 5.86315 23.5222C5.78413 23.5594 5.6549 23.5953 5.57589 23.602C5.48777 23.6096 5.43632 23.634 5.44247 23.6655C5.44986 23.7017 5.38586 23.7169 5.22709 23.7169C5.10303 23.7169 5.00161 23.7354 5.00161 23.7578C5.00161 23.7834 4.78278 23.7989 4.42709 23.7989C4.07164 23.7989 3.85281 23.7834 3.85281 23.7578C3.85281 23.7354 3.76961 23.7169 3.6682 23.7169C3.52543 23.7169 3.48358 23.7017 3.48358 23.6505C3.48358 23.6044 3.45847 23.5907 3.40161 23.6057C3.34696 23.62 3.3194 23.6069 3.3194 23.567C3.3194 23.534 3.3002 23.5188 3.27656 23.5333C3.25318 23.5478 3.17121 23.5121 3.0949 23.4538C3.01835 23.3955 2.9349 23.3477 2.90955 23.3477C2.8842 23.3477 2.87484 23.3292 2.88863 23.3066C2.90266 23.284 2.8933 23.2655 2.8677 23.2655C2.80025 23.2655 2.70401 23.1587 2.70401 23.0838C2.70401 23.0484 2.68555 23.0193 2.66315 23.0193C2.6405 23.0193 2.62204 22.9918 2.62204 22.9578C2.62204 22.9241 2.60727 22.8963 2.5893 22.8963C2.54377 22.8963 2.45786 22.6467 2.45786 22.514C2.45786 22.4534 2.43939 22.404 2.41699 22.404C2.36432 22.404 2.36211 21.6492 2.41429 21.5523C2.43521 21.5131 2.47681 21.4211 2.50635 21.3477C2.53589 21.2744 2.57404 21.2143 2.59103 21.2143C2.60801 21.2143 2.62204 21.1855 2.62204 21.1505C2.62204 21.0794 3.00629 20.6932 3.13478 20.6348C3.18008 20.6144 3.27238 20.5608 3.34007 20.5155C3.40776 20.4704 3.51386 20.4111 3.57589 20.384C3.63792 20.3569 3.68863 20.3203 3.68863 20.3028C3.68863 20.2851 3.73367 20.2708 3.78881 20.2708C3.84395 20.2708 3.90032 20.2523 3.91435 20.2297C3.92838 20.207 3.9941 20.1886 4.06032 20.1886C4.12678 20.1886 4.18094 20.1701 4.18094 20.1477C4.18094 20.1251 4.24567 20.1066 4.32469 20.1066C4.40346 20.1066 4.4682 20.0881 4.4682 20.0655C4.4682 20.0431 4.54204 20.0246 4.63238 20.0246C4.72247 20.0246 4.79632 20.0062 4.79632 19.9835C4.79632 19.9609 4.87829 19.9424 4.97847 19.9424C5.0789 19.9424 5.17219 19.924 5.18622 19.9016C5.20001 19.8789 5.31029 19.8604 5.43139 19.8604C5.55226 19.8604 5.65736 19.8435 5.66475 19.823C5.67238 19.8024 5.80777 19.7802 5.96555 19.774C6.12358 19.7679 6.28752 19.746 6.3301 19.7251C6.37269 19.7044 6.64961 19.6793 6.94549 19.6694C7.24136 19.6596 7.48973 19.6337 7.49737 19.6123C7.50475 19.5909 7.59238 19.5732 7.69207 19.5732H7.87324V20.848Z" fill="#7434EC"/>
<path fill-rule="evenodd" clip-rule="evenodd" d="M16.1376 12.2078C16.0938 12.241 16.08 12.2686 16.1068 12.2693C16.1337 12.2701 16.1681 12.2506 16.1834 12.2258C16.1987 12.2011 16.2814 12.1876 16.367 12.1957C16.4527 12.2041 16.514 12.1965 16.5034 12.1792C16.4699 12.1251 16.2211 12.1448 16.1376 12.2078ZM1.72801 13.3595C1.65958 13.4371 1.72161 13.4368 1.82451 13.3593C1.88457 13.3138 1.889 13.299 1.84248 13.2992C1.80875 13.2995 1.75731 13.3266 1.72801 13.3595ZM8.83915 13.3347C8.82413 13.3588 8.83939 13.3785 8.87312 13.3785C8.90659 13.3785 8.94032 13.4107 8.9482 13.4501C8.95731 13.4962 8.97281 13.5055 8.99127 13.4762C9.00703 13.4511 8.98536 13.3989 8.94302 13.3608C8.89256 13.315 8.85687 13.3061 8.83915 13.3347ZM12.9209 13.3672C12.867 13.4277 12.8684 13.4319 12.9344 13.4068C12.975 13.391 13.0159 13.3785 13.0255 13.3785C13.0348 13.3785 13.0425 13.36 13.0425 13.3374C13.0425 13.2771 12.9893 13.2901 12.9209 13.3672ZM19.6062 13.4393C19.6822 13.5181 19.7521 13.5749 19.761 13.5658C19.7861 13.541 19.5582 13.2963 19.5097 13.2963C19.4865 13.2963 19.5299 13.3608 19.6062 13.4393ZM9.02204 13.5323C9.02204 13.5496 9.05897 13.5867 9.10401 13.615C9.14931 13.6431 9.18623 13.6522 9.18623 13.6347C9.18623 13.6175 9.14931 13.5803 9.10401 13.552C9.05897 13.524 9.02204 13.5149 9.02204 13.5323ZM31.4629 13.6859C31.5158 13.7423 31.5685 13.779 31.5798 13.7677C31.603 13.7445 31.4422 13.5835 31.3962 13.5835C31.3799 13.5835 31.41 13.6296 31.4629 13.6859ZM5.61699 14.1898C5.61699 14.2477 5.78488 14.2962 5.89048 14.2688C5.93602 14.2573 5.91608 14.2477 5.84051 14.2447C5.77158 14.242 5.69331 14.2179 5.66623 14.1908C5.62881 14.1534 5.61699 14.1531 5.61699 14.1898ZM28.5093 14.1898C28.5093 14.2435 28.7033 14.3058 28.7436 14.2654C28.7577 14.2514 28.7328 14.24 28.6883 14.24C28.644 14.24 28.5856 14.2179 28.5585 14.1908C28.5211 14.1534 28.5093 14.1531 28.5093 14.1898ZM4.84776 14.2693C4.90979 14.2787 5.01121 14.2787 5.07324 14.2693C5.13528 14.26 5.08457 14.2523 4.9605 14.2523C4.83644 14.2523 4.78573 14.26 4.84776 14.2693ZM15.6682 14.305C15.6049 14.34 15.5899 14.3621 15.6293 14.3624C15.6643 14.3629 15.7103 14.3459 15.7317 14.3252C15.7531 14.3043 15.8262 14.2794 15.8939 14.2698L16.017 14.2523L15.8939 14.2501C15.8262 14.2489 15.7246 14.2735 15.6682 14.305ZM17.9348 14.2683C17.9744 14.2784 18.0067 14.304 18.0067 14.325C18.0067 14.3459 18.0379 14.3631 18.0761 14.3631C18.1366 14.3631 18.1351 14.3552 18.0657 14.3028C18.0219 14.2696 17.9584 14.2442 17.9247 14.2459C17.8816 14.2484 17.8846 14.255 17.9348 14.2683ZM12.0271 14.3449C11.999 14.3754 11.9759 14.4239 11.9759 14.4525C11.9759 14.481 12.0054 14.4621 12.0416 14.4106C12.1157 14.3048 12.1056 14.2597 12.0271 14.3449ZM7.09392 14.7934C7.09392 14.8121 7.12789 14.8559 7.3093 15.0703C7.34869 15.1168 7.38094 15.136 7.38094 15.1129C7.38094 15.0895 7.35337 15.0474 7.3194 15.0194C7.28568 14.9913 7.25786 14.9509 7.25786 14.9295C7.25786 14.9081 7.23152 14.864 7.19927 14.8318C7.14044 14.773 7.09392 14.756 7.09392 14.7934ZM19.0732 14.8835C19.0732 14.9293 19.4796 15.3243 19.5028 15.301C19.5124 15.2914 19.4198 15.1855 19.2967 15.0659C19.1739 14.946 19.0732 14.864 19.0732 14.8835ZM30.1194 14.8963C30.1288 14.931 30.1883 14.9608 30.256 14.9645C30.3592 14.9701 30.3616 14.9679 30.2732 14.9499C30.2169 14.9386 30.1556 14.9078 30.1369 14.882C30.1142 14.8505 30.1086 14.8552 30.1194 14.8963ZM14.2801 15.2527C14.2139 15.3768 14.2203 15.4066 14.2971 15.3298C14.3328 15.2941 14.3542 15.2419 14.3451 15.2141C14.3345 15.1828 14.3097 15.1976 14.2801 15.2527ZM1.14512 15.247C1.14512 15.2894 1.35534 15.4794 1.37749 15.457C1.3898 15.4447 1.35263 15.3874 1.29503 15.3295C1.19288 15.2276 1.14512 15.2013 1.14512 15.247ZM13.5023 16.7855C13.4705 16.8362 13.4678 16.8655 13.4947 16.8655C13.5183 16.8655 13.5483 16.8372 13.5616 16.8022C13.5985 16.706 13.5589 16.6947 13.5023 16.7855ZM7.08408 18.0434C7.13503 18.0532 7.20887 18.0527 7.24826 18.0426C7.2874 18.0323 7.24555 18.0242 7.15546 18.0246C7.06512 18.0251 7.03312 18.0335 7.08408 18.0434ZM5.95546 18.1246C5.99484 18.1349 6.05958 18.1349 6.09897 18.1246C6.13835 18.1142 6.10611 18.1059 6.02709 18.1059C5.94808 18.1059 5.91583 18.1142 5.95546 18.1246ZM10.7555 18.24C10.7559 18.3301 10.7643 18.3624 10.7742 18.3112C10.784 18.2602 10.7835 18.1864 10.7734 18.1472C10.7631 18.1078 10.755 18.1497 10.7555 18.24ZM7.50401 19.6074C7.50401 19.6362 7.42623 19.6581 7.3093 19.6626L7.11435 19.6697L7.29429 19.6857C7.46512 19.7007 7.59262 19.6483 7.53207 19.5877C7.51681 19.5722 7.50401 19.5811 7.50401 19.6074ZM10.7555 19.717C10.7559 19.807 10.7643 19.8393 10.7742 19.7881C10.784 19.7371 10.7835 19.6633 10.7734 19.6242C10.7631 19.5848 10.755 19.6266 10.7555 19.717ZM26.417 19.6099C26.417 19.6301 26.446 19.6579 26.4817 19.6714C26.5822 19.7101 26.592 19.7017 26.5253 19.6347C26.4556 19.5651 26.417 19.5562 26.417 19.6099ZM6.87903 19.6845C6.92998 19.6941 7.00383 19.6938 7.04296 19.6835C7.08235 19.6731 7.04051 19.6653 6.95017 19.6658C6.86008 19.6662 6.82783 19.6746 6.87903 19.6845ZM1.11017 19.7622C1.07964 19.7967 1.0629 19.8329 1.07275 19.843C1.08284 19.8528 1.12444 19.824 1.1653 19.7787C1.20641 19.7334 1.22315 19.697 1.20272 19.698C1.18229 19.6987 1.14069 19.7278 1.11017 19.7622ZM31.4646 19.8834C31.4671 19.9523 31.5833 20.1302 31.5833 20.0655C31.5835 20.0318 31.5564 19.9683 31.5232 19.9245C31.4902 19.8806 31.4636 19.8622 31.4646 19.8834ZM0.705246 20.1578C0.578477 20.322 0.595212 20.3611 0.727151 20.2093C0.776135 20.1529 0.800261 20.1066 0.780569 20.1066C0.760876 20.1066 0.727153 20.1298 0.705246 20.1578ZM28.9605 20.6644C28.9605 20.6779 29.0122 20.738 29.0752 20.7978C29.1385 20.8576 29.2214 20.9522 29.2598 21.008C29.2982 21.0639 29.3297 21.0861 29.3297 21.0575C29.3297 21.0024 29.3152 20.9819 29.1289 20.7732C29.0151 20.6462 28.9605 20.6107 28.9605 20.6644ZM0.0937975 21.3155C0.0809975 21.3487 0.0802601 21.3994 0.0918293 21.4285C0.105122 21.4614 0.114229 21.4543 0.116198 21.4093C0.117921 21.3696 0.137858 21.3374 0.160504 21.3374C0.18315 21.3374 0.20161 21.3189 0.20161 21.2963C0.20161 21.2333 0.11989 21.2478 0.0937975 21.3155ZM14.2939 22.6912C14.3348 22.7363 14.3865 22.7732 14.4091 22.7732C14.4315 22.7732 14.4074 22.7363 14.3555 22.6912C14.3033 22.6462 14.2516 22.6093 14.2403 22.6093C14.2289 22.6093 14.2531 22.6462 14.2939 22.6912ZM24.2631 22.7734C24.2907 22.818 24.5297 22.9512 24.5297 22.9219C24.5297 22.9123 24.464 22.8658 24.3838 22.8182C24.3033 22.771 24.2491 22.7508 24.2631 22.7734ZM28.099 23.5616C28.099 23.601 28.1356 23.5988 28.2425 23.5525C28.3134 23.522 28.3092 23.5181 28.2117 23.5235C28.1497 23.5269 28.099 23.5442 28.099 23.5616ZM12.3451 24.1494C12.3451 24.192 12.5553 24.3818 12.5775 24.3597C12.5898 24.3474 12.5526 24.29 12.495 24.2322C12.3929 24.13 12.3451 24.1037 12.3451 24.1494ZM18.8682 24.3592C18.8116 24.389 18.7934 24.4131 18.8271 24.4131C18.898 24.4131 19.0188 24.3446 18.99 24.3208C18.9795 24.3122 18.9246 24.3294 18.8682 24.3592ZM23.0117 24.3257C23.0117 24.3446 23.0533 24.3813 23.104 24.4072C23.155 24.433 23.2426 24.484 23.299 24.5206C23.3947 24.5829 23.396 24.5829 23.3194 24.5197C23.2744 24.4825 23.1958 24.4158 23.1449 24.3717C23.0437 24.2838 23.0117 24.2728 23.0117 24.3257ZM0.863276 24.4854C0.978968 24.6317 1.10992 24.7506 1.13109 24.7291C1.14339 24.7168 1.08752 24.641 1.00703 24.5605C0.854903 24.4086 0.765061 24.3616 0.863276 24.4854ZM6.9765 24.5819C6.92309 24.625 6.89552 24.66 6.91497 24.6592C6.96494 24.6573 7.11189 24.5418 7.09072 24.5209C7.08112 24.5113 7.02967 24.5389 6.9765 24.5819ZM17.6825 25.0934C17.6057 25.1267 17.552 25.1631 17.5631 25.1742C17.584 25.1951 17.8425 25.0777 17.8425 25.0472C17.8425 25.024 17.843 25.0238 17.6825 25.0934ZM13.7462 25.1341C13.7834 25.1722 13.8363 25.1958 13.8636 25.1867C13.891 25.1776 13.8604 25.1464 13.796 25.1176C13.6859 25.0683 13.6827 25.0693 13.7462 25.1341ZM24.3862 25.1001C24.4313 25.1109 24.4857 25.1363 24.5071 25.1567C24.5285 25.1771 24.5644 25.1939 24.5868 25.1939C24.6092 25.1939 24.5915 25.1668 24.548 25.1336C24.5041 25.1003 24.4313 25.075 24.3862 25.0767L24.304 25.0802L24.3862 25.1001Z" fill="#5030F0"/>
</svg>
