<svg width="32" height="32" viewBox="0 0 32 32" fill="none" xmlns="http://www.w3.org/2000/svg">
<path d="M15.1838 18.1699C15.1842 18.1693 15.1847 18.1686 15.1851 18.168C14.7141 17.2942 14.3834 16.3518 14.2053 15.3753C13.436 18.0084 11.0215 19.818 8.27827 19.8176C4.86818 19.8176 2.09265 17.0539 2.09265 13.6462C2.09265 10.2385 4.86813 7.47472 8.27827 7.47472C11.0215 7.47423 13.4361 9.28386 14.2055 11.917C14.3836 10.9404 14.7143 9.99803 15.1853 9.12429C13.7083 6.87906 11.1942 5.38572 8.30546 5.38572H0.00115033C1.10716 6.8473 1.3547 8.78594 0.651451 10.4785C0.226912 11.4809 0.00548564 12.5576 0 13.6461C0 18.2018 3.71686 21.8965 8.27812 21.8965C9.30831 21.8972 10.3295 21.7047 11.2887 21.3288C11.2782 21.3328 11.2689 21.3378 11.2586 21.3418C12.3446 23.3217 13.947 25.1112 15.9405 26.6137C17.543 25.4054 18.8944 24.0115 19.9225 22.4825C17.8963 21.6291 16.2238 20.107 15.1838 18.1699ZM6.05911 14.4875H7.36178C7.36178 14.1691 7.53165 13.8749 7.8074 13.7157C8.08315 13.5565 8.42289 13.5565 8.69864 13.7157C8.97439 13.8749 9.14426 14.1691 9.14426 14.4875H10.4469C10.4507 13.7012 10.0334 12.9729 9.35303 12.5786C8.67267 12.1844 7.83332 12.1844 7.15296 12.5786C6.4726 12.9729 6.0553 13.7012 6.05911 14.4875ZM31.3148 10.5316C31.313 10.5271 31.3114 10.523 31.3095 10.5187C30.593 8.81599 30.8365 6.86059 31.9489 5.38562H23.6752C19.1021 5.38588 15.3737 9.09338 15.3737 13.6523C15.3737 18.2112 19.0783 21.9085 23.6516 21.9085C28.2224 21.9085 31.9502 18.2111 31.9502 13.6523C31.9447 12.5805 31.7289 11.5203 31.3148 10.5318V10.5316ZM23.6516 19.8281C20.2325 19.8281 17.4596 17.0623 17.4596 13.6522C17.4596 10.242 20.2325 7.47623 23.6516 7.47623C27.0707 7.47623 29.8581 10.2422 29.8581 13.6522C29.8581 17.0621 27.0704 19.8281 23.6516 19.8281ZM23.6351 12.2881C22.4225 12.2884 21.4395 13.2715 21.4395 14.4842H22.7432C22.7407 14.1639 22.9102 13.8669 23.1872 13.706C23.4641 13.5452 23.8061 13.5452 24.0831 13.706C24.36 13.8669 24.5295 14.1639 24.5271 14.4842H25.8307C25.8307 13.2715 24.8478 12.2884 23.6351 12.2881Z" fill="#3D4250"/>
</svg>
