<svg width="32" height="32" viewBox="0 0 32 32" fill="none" xmlns="http://www.w3.org/2000/svg">
<path d="M18.977 2.80566H13.1999C6.26493 2.80566 0.59234 8.21954 0.59234 14.8383C0.59234 18.537 2.36523 21.8636 5.14327 24.0737C4.91409 25.0444 4.36737 26.4833 3.05274 27.1164C1.06673 28.0718 0.262695 27.8531 0.262695 27.8531C0.262695 27.8531 2.71503 30.1322 6.61071 28.5859C8.52027 27.8262 9.62186 27.0895 10.253 26.537C11.2193 26.7612 12.208 26.8745 13.1999 26.8747H18.977C25.912 26.8747 31.5846 21.4608 31.5846 14.8421C31.5846 8.2234 25.912 2.80575 18.977 2.80575V2.80566Z" fill="#21A084"/>
<path d="M10.8372 15.9913L12.9398 16.2254V20.611C12.9398 20.611 12.3167 20.8796 10.9739 20.845C8.44518 20.7837 6.4873 18.6695 6.4873 15.9875C6.4873 13.3055 8.77482 11.3602 10.8653 11.272C11.7981 11.2336 12.5579 11.2374 13.4142 11.5137M16.2165 15.9914C16.2165 13.3094 18.2669 11.1338 20.7956 11.1338C23.3244 11.1338 25.3747 13.3094 25.3747 15.9914C25.3747 18.6733 23.3244 20.8489 20.7956 20.8489C18.2669 20.8489 16.2165 18.6733 16.2165 15.9914Z" stroke="white" stroke-miterlimit="10"/>
</svg>
