<svg width="50" height="50" viewBox="0 0 50 50" fill="none" xmlns="http://www.w3.org/2000/svg">
<g clip-path="url(#clip0_905_7)">
<path d="M36.7986 31.4537L38.243 27.8011H42.4136L40.4343 22.2602L42.9098 16.0002L49.9999 34.8254H44.7712L43.5596 31.4537H36.7986Z" fill="#3D3D3D"/>
<path d="M32.3378 34.8254L39.928 16.0002L34.896 16.0003L29.7039 28.1655L26.0118 16.0003H22.1439L18.1796 28.1655L15.3838 22.6221L12.8538 30.4167L15.4225 34.8254H20.3746L23.957 23.9158L27.3727 34.8254H32.3378Z" fill="#5A0FC8"/>
<path d="M4.77654 28.363H7.876C8.81488 28.363 9.65092 28.2582 10.3841 28.0486L11.1857 25.5792L13.4259 18.6774C13.2552 18.4068 13.0603 18.151 12.8413 17.91C11.6911 16.6368 10.0082 16.0002 7.79257 16.0002H0V34.8254H4.77654V28.363ZM8.87915 20.3312C9.32843 20.7833 9.55305 21.3884 9.55305 22.1465C9.55305 22.9104 9.35548 23.5162 8.96037 23.964C8.52723 24.4616 7.72966 24.7104 6.56773 24.7104H4.77654V19.6528H6.58089C7.66381 19.6528 8.42989 19.8789 8.87915 20.3312Z" fill="#3D3D3D"/>
</g>
<defs>
<clipPath id="clip0_905_7">
<rect width="50" height="18.8252" fill="white" transform="translate(0 16)"/>
</clipPath>
</defs>
</svg>
