<svg width="32" height="32" viewBox="0 0 32 32" fill="none" xmlns="http://www.w3.org/2000/svg">
<path fill-rule="evenodd" clip-rule="evenodd" d="M15.2311 27.124C15.1168 26.9868 14.9568 26.8954 14.8197 26.804C14.7054 26.7354 14.6597 26.6668 14.6825 26.5068C14.9111 25.1583 15.1168 23.8097 15.3225 22.4383C15.4597 21.524 15.5968 20.6097 15.7568 19.6497C15.9625 19.7868 16.1682 19.924 16.3511 20.0611C16.3968 20.1068 16.374 20.1754 16.374 20.2211C16.3282 20.5411 16.2825 20.884 16.214 21.204C16.0997 21.9354 15.9854 22.6897 15.8711 23.4211C15.7568 24.1525 15.6425 24.884 15.5282 25.6154C15.5054 25.7983 15.4825 26.004 15.4368 26.1868C15.5282 26.2097 15.574 26.1411 15.6425 26.1183C17.3797 25.204 19.1168 24.3125 20.854 23.3983C20.8997 23.3754 20.9454 23.3525 20.9911 23.3297C21.0368 23.3068 21.0825 23.284 21.1282 23.3297C21.3111 23.444 21.494 23.5811 21.6997 23.7183C21.6082 23.764 21.5625 23.8097 21.494 23.8325C19.4825 24.884 17.494 25.9354 15.4825 26.9868C15.414 27.0097 15.3454 27.0325 15.3225 27.1011L15.2311 27.124Z" fill="#060606"/>
<path fill-rule="evenodd" clip-rule="evenodd" d="M9.12824 14.7811C9.08252 15.1468 9.01395 15.4668 8.96824 15.7868C8.80824 16.8383 8.62538 17.8668 8.46538 18.9183C8.37395 19.5354 8.25967 20.1525 8.16824 20.7697C8.14538 20.884 8.09967 20.9297 8.00824 20.9525C7.82538 20.9983 7.61967 21.0668 7.43681 21.1354C7.41395 21.0897 7.43681 21.044 7.43681 20.9983C7.61967 19.8554 7.80252 18.7354 7.98538 17.5925C8.16824 16.4954 8.32824 15.3754 8.5111 14.2783C8.53395 14.1868 8.55681 14.1183 8.6711 14.0954C8.8311 14.0497 8.96824 14.004 9.12824 13.9583C9.21967 13.9125 9.28824 13.9354 9.37967 14.004C9.76824 14.3925 10.1568 14.7811 10.5454 15.1697C11.7797 16.404 13.0368 17.6383 14.2711 18.8497C14.294 18.8725 14.3168 18.9183 14.3625 18.9411C14.134 19.0325 13.9054 19.0783 13.6997 19.1697C13.6311 19.1925 13.5854 19.124 13.5625 19.1011C13.2654 18.804 12.9682 18.5068 12.6482 18.2097C11.5054 17.0897 10.3854 15.9697 9.26538 14.8497C9.21967 14.8497 9.19681 14.8268 9.12824 14.7811Z" fill="#060606"/>
<path fill-rule="evenodd" clip-rule="evenodd" d="M15.0711 18.324C14.8882 18.164 14.7282 18.004 14.5682 17.844C14.5225 17.7983 14.5454 17.7297 14.5682 17.684C14.7054 17.2726 14.8425 16.8611 15.0025 16.4497C15.5054 15.0097 16.0082 13.5697 16.5111 12.1297C16.534 12.084 16.5568 12.0154 16.5568 11.9697C16.4654 11.9469 16.3968 11.9926 16.3282 12.0154C14.454 12.6097 12.6025 13.1811 10.7282 13.7754C10.4311 13.8669 10.5225 13.8897 10.3168 13.684C10.2025 13.5697 10.0882 13.4554 9.97395 13.3411C10.0197 13.2726 10.1111 13.2726 10.1797 13.2497C12.3511 12.564 14.5225 11.8783 16.6711 11.1926C16.8311 11.1469 16.9225 11.1697 17.0368 11.284C17.1054 11.3754 17.2197 11.4669 17.3111 11.5583C17.4025 11.6269 17.4025 11.7183 17.3797 11.8097C17.1282 12.4954 16.8997 13.1811 16.6482 13.8669C16.1454 15.3069 15.6425 16.7469 15.1397 18.164C15.1397 18.1869 15.1168 18.2554 15.0711 18.324Z" fill="#060606"/>
<path fill-rule="evenodd" clip-rule="evenodd" d="M14.6825 19.764C14.6368 19.9925 14.614 20.1983 14.5911 20.4268C14.5911 20.5183 14.5225 20.5183 14.454 20.5411C13.9511 20.7011 13.4711 20.8611 12.9911 20.9983C11.574 21.4554 10.134 21.8897 8.71681 22.3468C8.6711 22.3697 8.60252 22.3925 8.53395 22.4154C8.57967 22.484 8.64824 22.5297 8.71681 22.5525C10.3168 23.6497 11.9168 24.7697 13.5168 25.8668C13.654 25.9583 13.7454 26.0497 13.6768 26.2325C13.6311 26.3925 13.6311 26.5525 13.5854 26.7125C13.5168 26.7125 13.4711 26.6668 13.4254 26.644C11.5511 25.364 9.67681 24.0611 7.80252 22.7811C7.68824 22.6897 7.64253 22.6211 7.66538 22.4611C7.68824 22.324 7.73395 22.2097 7.73395 22.0725C7.73395 21.9583 7.80253 21.9125 7.89395 21.8897C10.1111 21.1811 12.3511 20.4954 14.5682 19.7868C14.5911 19.7868 14.6368 19.7868 14.6825 19.764Z" fill="#060606"/>
<path fill-rule="evenodd" clip-rule="evenodd" d="M9.60824 5.75256C9.58539 5.98113 9.53967 6.20971 9.51682 6.41542C9.51682 6.50685 9.42539 6.50685 9.35682 6.50685C8.94539 6.64399 8.5111 6.75828 8.09967 6.89542C6.5911 7.35256 5.10539 7.80971 3.59682 8.26685C3.5511 8.28971 3.48253 8.28971 3.43682 8.35828C3.50539 8.40399 3.5511 8.44971 3.61967 8.49542C5.21967 9.61542 6.79682 10.7583 8.39682 11.8783C8.5111 11.9697 8.55682 12.0383 8.53396 12.1983C8.48824 12.3811 8.46539 12.5411 8.44253 12.724C8.37396 12.7011 8.32824 12.6554 8.25967 12.6326C6.40824 11.3297 4.55682 10.0268 2.70539 8.72399C2.56824 8.63256 2.52253 8.54114 2.56824 8.40399C2.5911 8.26685 2.61396 8.15256 2.63682 8.01542C2.63682 7.92399 2.68253 7.87828 2.79682 7.83256C3.32253 7.67256 3.84824 7.51256 4.37396 7.35256C6.06539 6.84971 7.73396 6.32399 9.42539 5.82113C9.4711 5.77542 9.53967 5.77542 9.60824 5.75256Z" fill="#060606"/>
<path fill-rule="evenodd" clip-rule="evenodd" d="M16.4654 10.4154C16.2825 10.484 16.0997 10.5297 15.9168 10.5983C15.8025 10.644 15.7111 10.6211 15.6197 10.5297C15.0025 9.8897 14.3625 9.27255 13.7225 8.63255C12.9682 7.87827 12.214 7.12398 11.4368 6.3697C11.3911 6.32398 11.3682 6.25541 11.2768 6.23255C11.2311 6.46113 11.1854 6.71255 11.1625 6.94113C10.9797 8.01541 10.8197 9.0897 10.6368 10.1411C10.5225 10.8268 10.4082 11.4897 10.3168 12.1754C10.294 12.2897 10.2711 12.3354 10.1568 12.3583C9.97396 12.404 9.76824 12.4726 9.58538 12.5411C9.56253 12.404 9.60824 12.2897 9.6311 12.1983C9.85967 10.7811 10.0882 9.36398 10.3168 7.94684C10.4311 7.19255 10.5682 6.43827 10.6825 5.68398C10.7054 5.59255 10.7282 5.54684 10.8197 5.52398C10.9797 5.47827 11.1168 5.43255 11.2768 5.38684C11.3911 5.34113 11.4597 5.36398 11.5511 5.45541C12.1682 6.07255 12.7854 6.6897 13.3797 7.28398C14.3625 8.26684 15.3682 9.2497 16.3511 10.2326C16.374 10.2783 16.4425 10.324 16.4654 10.4154Z" fill="#060606"/>
<path fill-rule="evenodd" clip-rule="evenodd" d="M17.2506 19.3045C17.2094 18.9909 17.2028 18.7075 17.2195 18.408C17.2318 17.2836 17.4717 16.2364 17.997 15.2804C18.8065 13.7866 20.0079 12.7786 21.5396 12.2629C22.2938 12.0131 23.0862 11.8809 23.8974 11.8618C23.9434 11.938 23.9084 12.0162 23.8965 12.0784C23.8921 12.2074 23.8878 12.3364 23.8834 12.4654C23.8869 12.553 23.8404 12.585 23.7593 12.5869C23.2261 12.6304 22.685 12.7154 22.1706 12.8719C20.7823 13.2708 19.6628 14.0603 18.8542 15.3375C18.3101 16.1805 18.0088 17.1261 17.9312 18.1695C17.9185 18.4482 17.9057 18.727 17.9123 19.0104C17.9158 19.098 17.904 19.1601 17.7996 19.1781C17.6334 19.2026 17.444 19.2432 17.2506 19.3045Z" fill="#060606"/>
<path fill-rule="evenodd" clip-rule="evenodd" d="M20.4709 21.487C20.5103 21.2795 20.5265 21.088 20.5659 20.8806C20.5816 20.7976 20.6087 20.7608 20.7089 20.7636C21.2329 20.7615 21.7456 20.7133 22.2394 20.5518C24.0526 20.0184 25.3483 18.8157 26.0498 16.9247C26.3342 16.1692 26.4647 15.3761 26.4989 14.5595C26.5068 14.518 26.4994 14.451 26.5072 14.4095C26.523 14.3265 26.4657 14.2039 26.5353 14.1558C26.5856 14.103 26.6818 14.1266 26.7627 14.1246C26.9053 14.1161 27.0287 14.1029 27.1752 14.0736C27.201 14.3621 27.1843 14.662 27.1523 14.9364C27.119 15.5362 27.0279 16.1219 26.8752 16.7141C26.5229 18.0392 25.8517 19.1342 24.8618 19.9993C23.8022 20.9125 22.5674 21.3703 21.2223 21.4537C20.9717 21.5009 20.7289 21.5067 20.4709 21.487Z" fill="#060606"/>
<path fill-rule="evenodd" clip-rule="evenodd" d="M27.2379 9.1235C27.2975 9.1373 27.3253 9.10121 27.369 9.09006C28.2513 8.72011 29.1455 8.39545 30.0396 8.07079C30.0873 8.03929 30.1509 8.03275 30.2024 8.08723C30.361 8.23035 30.5394 8.37807 30.7178 8.52578C30.6701 8.55727 30.6025 8.58417 30.5588 8.59531C29.4422 8.99605 28.3097 9.37185 27.193 9.77259C27.1016 9.81523 27.03 9.86247 26.9544 9.93005C26.4927 10.4826 26.0072 11.0508 25.5455 11.6033C25.4619 11.7116 25.4619 11.7116 25.3548 11.623C25.2478 11.5343 25.1606 11.4503 25.0535 11.3617C24.9465 11.2731 24.9465 11.2731 25.026 11.1851C25.3246 10.8288 25.6231 10.4725 25.9216 10.1162C26.1086 9.90425 26.2758 9.6877 26.4629 9.47576C26.5146 9.42392 26.5505 9.34714 26.5665 9.26576C26.7793 8.08115 27.0078 6.92149 27.2404 5.74148C27.2524 5.68045 27.2604 5.63976 27.2725 5.57872C27.4192 5.67655 27.5381 5.81047 27.6848 5.9083C27.8474 6.03107 27.8671 6.14199 27.827 6.34544C27.6588 7.0936 27.5064 7.86671 27.358 8.61948C27.3259 8.78224 27.274 8.9404 27.2379 9.1235Z" fill="#060606"/>
<path fill-rule="evenodd" clip-rule="evenodd" d="M22.2385 14.9675C22.182 15.2475 21.7973 15.5801 21.5015 15.5771C21.2867 15.5921 21.1164 15.4915 21.0028 15.32C20.8892 15.1485 20.885 14.9594 20.9821 14.7929C21.1116 14.5709 21.2938 14.4024 21.5409 14.3319C21.7435 14.2724 21.9259 14.3129 22.0678 14.4489C22.226 14.6094 22.2991 14.772 22.2385 14.9675Z" fill="#060606"/>
<path fill-rule="evenodd" clip-rule="evenodd" d="M24.5642 16.4852C24.5077 16.7651 24.1229 17.0976 23.823 17.1146C23.6082 17.1296 23.4581 17.0336 23.3241 16.8576C23.2105 16.6861 23.2022 16.5171 23.2994 16.3507C23.4329 16.1087 23.6152 15.9402 23.8826 15.8742C24.2676 15.7507 24.6409 16.1052 24.5642 16.4852Z" fill="#060606"/>
<path fill-rule="evenodd" clip-rule="evenodd" d="M2.01967 9.27255C2.22538 9.38684 2.38538 9.52398 2.5911 9.66112C2.65967 9.70684 2.63681 9.77541 2.61396 9.84398C2.54538 10.2783 2.47681 10.7126 2.40824 11.1468C2.15681 12.7011 1.90539 14.2326 1.65396 15.7868C1.65396 15.8326 1.60824 15.9011 1.65396 15.9697C1.72253 15.924 1.7911 15.9011 1.85967 15.8554C3.57396 14.9183 5.28824 13.9811 7.00253 13.044C7.13967 12.9754 7.2311 12.9754 7.34538 13.0668C7.48253 13.1811 7.61967 13.2726 7.77967 13.3868C7.73396 13.4554 7.66538 13.4783 7.61967 13.5011C5.6311 14.5983 3.64253 15.6726 1.67681 16.7697C1.53967 16.8383 1.44824 16.8611 1.33396 16.7468C1.24253 16.6554 1.12824 16.5868 1.01396 16.5183C0.922528 16.4726 0.899671 16.404 0.922528 16.3126C1.01396 15.764 1.10539 15.2383 1.17396 14.6897C1.44824 12.9526 1.74538 11.2154 2.01967 9.47827C1.99681 9.4097 1.99681 9.34112 2.01967 9.27255Z" fill="#060606"/>
</svg>
