<svg width="32" height="32" viewBox="0 0 32 32" fill="none" xmlns="http://www.w3.org/2000/svg">
<path d="M8.8264 12.5392H13.1007C13.7544 12.5392 14.2844 13.0702 14.2844 13.7252V25.7835C14.2844 28.804 11.8408 31.2526 8.8264 31.2526C5.81204 31.2526 3.36842 28.804 3.36842 25.7835V18.0082C3.36842 14.9877 5.81204 12.5392 8.8264 12.5392ZM7.6449 19.6555C8.69614 19.6555 9.54834 18.8049 9.54834 17.7555C9.54834 16.7061 8.69614 15.8555 7.6449 15.8555C6.59366 15.8555 5.74146 16.7061 5.74146 17.7555C5.74146 18.8049 6.59366 19.6555 7.6449 19.6555Z" fill="#905FE9"/>
<path d="M22.6557 0.842102H27.6534C28.3071 0.842102 28.8371 1.37312 28.8371 2.02817V25.4859C28.8371 28.9067 26.0696 31.6798 22.6557 31.6798H17.6581C17.0044 31.6798 16.4744 31.1487 16.4744 30.4937V7.03599C16.4744 3.6152 19.2419 0.842102 22.6557 0.842102Z" fill="#905FE9"/>
</svg>
