<svg width="32" height="32" viewBox="0 0 32 32" fill="none" xmlns="http://www.w3.org/2000/svg">
<path d="M30.3248 11.4615C30.2346 11.0532 30.056 10.6696 29.8016 10.3377C29.51 10.0052 29.1396 9.75138 28.7242 9.59961C28.6224 9.68368 28.5343 9.78299 28.4629 9.89401C28.5905 9.94835 28.7151 10.0094 28.8362 10.0769C29.4262 10.4268 29.9337 10.8997 30.3242 11.4636" fill="#0095DE"/>
<path d="M28.7239 15.1884C27.4583 15.2417 27.3548 15.9041 26.2487 16.2257C25.3825 16.478 23.8583 15.9735 22.8076 16.8289C21.7969 17.6513 22.3585 18.8556 23.0316 19.6065C23.7047 20.3575 24.2247 21.2705 23.6012 22.6321C24.0228 22.3936 24.3551 22.0241 24.5476 21.5796C24.7401 21.1351 24.7823 20.6399 24.6679 20.1692C24.4092 19.1644 23.3239 18.4407 23.7612 17.7889C24.2273 17.0956 25.4305 17.6535 26.6033 17.3004C27.6556 16.9841 27.8935 16.1676 28.5729 15.9564C28.9665 15.8354 29.3811 15.7987 29.7898 15.8488C30.1985 15.8989 30.592 16.0346 30.9447 16.2471C30.7078 15.8835 30.3752 15.5922 29.9834 15.4054C29.5917 15.2187 29.1561 15.1436 28.7244 15.1884" fill="#0095DE"/>
<path d="M29.6249 13.9311C30.1961 14.3242 29.6719 15.2719 31.5657 15.5988C31.1849 13.01 29.5764 12.4026 29.0516 12.2922C28.7506 11.7135 28.3133 11.2167 27.7775 10.8447C27.1724 10.4537 26.471 10.2377 25.7508 10.2207C25.7508 10.2207 25.362 11.7076 27.5353 12.8036C27.213 13.1919 26.7627 13.4525 26.2655 13.5386C25.2521 13.6122 24.2153 13.0932 23.0655 12.3471C21.7001 11.4522 20.5556 10.4068 17.7823 10.401C13.5892 10.401 11.6585 14.8586 6.73587 14.7023C1.50173 14.5354 0.533203 10.5956 0.533203 10.5956C0.533203 10.5956 1.24467 16.426 7.01801 16.426C12.7913 16.426 14.5129 12.0324 18.0196 11.9626C21.6009 11.8895 23.3129 14.5631 26.0052 14.61C28.0084 14.6458 28.5476 13.194 29.6271 13.937" fill="#0095DE"/>
</svg>
