<svg width="32" height="32" viewBox="0 0 32 32" fill="none" xmlns="http://www.w3.org/2000/svg">
<path d="M27.2466 12.2577L15.9994 1.0105L4.75225 12.2577C3.75834 13.2522 3.20001 14.6007 3.20001 16.0067C3.20001 17.4127 3.75834 18.7612 4.75225 19.7558L7.87646 22.88L12.8752 27.8787L14.7497 29.7532L15.9994 31.0029L17.2491 29.7532L19.1236 27.8787L24.1224 22.88L27.2466 19.7558C28.2405 18.7612 28.7988 17.4127 28.7988 16.0067C28.7988 14.6007 28.2405 13.2522 27.2466 12.2577V12.2577ZM21.6651 23.4627C21.6585 22.3056 21.1962 21.1976 20.3784 20.3789L16.1678 16.1684C16.1474 16.1475 16.1231 16.1309 16.0962 16.1196C16.0693 16.1083 16.0404 16.1024 16.0112 16.1024C15.982 16.1024 15.9531 16.1083 15.9262 16.1196C15.8993 16.1309 15.875 16.1475 15.8546 16.1684L11.6205 20.3789C10.8012 21.1964 10.3371 22.3037 10.3287 23.461L8.81288 21.9452C8.52466 21.6581 8.29596 21.3169 8.13991 20.9412C7.98387 20.5654 7.90354 20.1626 7.90354 19.7558C7.90354 19.3489 7.98387 18.9461 8.13991 18.5704C8.29596 18.1946 8.52466 17.8534 8.81288 17.5663L15.9994 10.3831L23.1843 17.5697C23.4725 17.8568 23.7012 18.198 23.8572 18.5737C24.0133 18.9495 24.0936 19.3523 24.0936 19.7591C24.0936 20.166 24.0133 20.5688 23.8572 20.9445C23.7012 21.3203 23.4725 21.6615 23.1843 21.9486L21.6651 23.4627ZM26.3085 18.8177L25.4141 19.7137C25.4057 18.5564 24.9416 17.449 24.1224 16.6316L16.156 8.66524C16.1356 8.64436 16.1113 8.62776 16.0844 8.61644C16.0575 8.60511 16.0286 8.59927 15.9994 8.59927C15.9702 8.59927 15.9413 8.60511 15.9144 8.61644C15.8875 8.62776 15.8632 8.64436 15.8428 8.66524L7.87646 16.6316C7.05721 17.449 6.59309 18.5564 6.58467 19.7137L5.69036 18.8177C5.3209 18.4485 5.02781 18.0102 4.82785 17.5277C4.62788 17.0453 4.52496 16.5281 4.52496 16.0059C4.52496 15.4836 4.62788 14.9665 4.82785 14.484C5.02781 14.0015 5.3209 13.5632 5.69036 13.1941L15.9994 2.88502L26.3085 13.1941C26.6779 13.5632 26.971 14.0015 27.171 14.484C27.3709 14.9665 27.4739 15.4836 27.4739 16.0059C27.4739 16.5281 27.3709 17.0453 27.171 17.5277C26.971 18.0102 26.6779 18.4485 26.3085 18.8177V18.8177Z" fill="#67B8C7"/>
</svg>
