<svg width="32" height="32" viewBox="0 0 32 32" fill="none" xmlns="http://www.w3.org/2000/svg">
<g clip-path="url(#clip0)">
<path d="M27.712 6.40502L24.1754 18.9221H24.1306L20.3367 6.40502H11.945L9.07139 11.5135L6.02883 6.40502H1.76259L6.72387 14.4319L1.28003 23.4239H5.20835L8.70019 17.4732L12.3149 23.4239H18.7533V11.6249H18.7981C18.8877 12.1189 18.973 12.5418 19.0541 12.8933C19.1352 13.2449 19.212 13.5705 19.2845 13.87L19.5251 14.7237L19.7888 15.6108L22.3155 23.4188H25.6269L28.1754 15.6108C28.3623 14.9819 28.5363 14.3756 28.6976 13.7919C28.8728 13.141 29.0134 12.4813 29.1187 11.8156H29.1635V23.4239H32.7783V6.3999L27.712 6.40502ZM10.9568 14.4537L15.3971 7.08342V21.6754L10.9568 14.4537Z" fill="url(#paint0_linear)"/>
</g>
<defs>
<linearGradient id="paint0_linear" x1="5.46929" y1="6.53609" x2="15.5249" y2="31.4569" gradientUnits="userSpaceOnUse">
<stop offset="0.042" stop-color="#21DBAA"/>
<stop offset="0.358" stop-color="#00B4EF"/>
<stop offset="0.433" stop-color="#01A7EC"/>
<stop offset="0.568" stop-color="#0487E4"/>
<stop offset="0.68" stop-color="#0768DD"/>
<stop offset="0.965" stop-color="#5F1AE5"/>
</linearGradient>
<clipPath id="clip0">
<rect width="32" height="32" fill="white"/>
</clipPath>
</defs>
</svg>
