<svg width="32" height="32" viewBox="0 0 32 32" fill="none" xmlns="http://www.w3.org/2000/svg">
<path d="M31.2 7.2802C31.12 7.2002 31.04 7.2002 30.96 7.2002L18.16 11.9202H18.08C18 11.9202 18 12.0002 18 12.0002L13.2 24.8002C13.2 24.8802 13.2 24.9602 13.28 24.9602C13.28 24.9602 13.36 25.0402 13.44 25.0402H13.52L26.4 20.3202C26.48 20.3202 26.48 20.2402 26.48 20.2402L31.28 7.4402C31.28 7.3602 31.28 7.2802 31.2 7.2802Z" fill="#31A185"/>
<path d="M4.00005 18.1605L12.3201 21.2805H12.4C12.48 21.2805 12.56 21.2005 12.56 21.1205V21.0405L9.44005 12.7205C9.44005 12.6405 9.36005 12.6405 9.36005 12.6405L1.04005 9.52051C0.960045 9.52051 0.880049 9.52051 0.800049 9.60051V9.68051L3.84005 18.0005C4.00005 18.1605 4.00005 18.1605 4.00005 18.1605Z" fill="#43D2AF"/>
</svg>
