<svg width="32" height="32" viewBox="0 0 32 32" fill="none" xmlns="http://www.w3.org/2000/svg">
<path d="M18.3192 15.9888C18.3192 16.6039 18.0748 17.1938 17.6399 17.6287C17.205 18.0637 16.6151 18.308 16 18.308C15.3849 18.308 14.795 18.0637 14.3601 17.6287C13.9252 17.1938 13.6809 16.6039 13.6809 15.9888C13.6809 15.3738 13.9252 14.7839 14.3601 14.349C14.795 13.914 15.3849 13.6697 16 13.6697C16.6151 13.6697 17.205 13.914 17.6399 14.349C18.0748 14.7839 18.3192 15.3738 18.3192 15.9888ZM26.3025 10.0348C25.8119 9.16515 25.1875 8.36237 24.4739 7.64878L21.7979 9.20975C20.9728 8.49616 20.014 7.93867 18.9882 7.58188C18.0939 8.48276 17.3622 9.53141 16.8251 10.6815C20.09 10.576 23.2775 11.6888 25.7673 13.8035L27.462 12.8223C27.1876 11.8504 26.7983 10.9146 26.3025 10.0348V10.0348ZM16 27.8969C17.0035 27.8969 18.007 27.7631 18.9882 27.5178V24.3958C20.0069 24.034 20.9515 23.4899 21.7756 22.7902C21.4547 21.5679 20.9186 20.4126 20.1923 19.3784C18.6487 22.2574 16.0892 24.4592 13.0119 25.5554V27.4955C13.993 27.7631 14.9965 27.8969 16 27.8969V27.8969ZM5.69758 10.0348C5.18469 10.9268 4.80559 11.8411 4.53799 12.8223L7.21395 14.3833C7.0197 15.4448 7.0197 16.5329 7.21395 17.5944C8.48503 17.9289 9.73381 18.0404 10.9826 17.9289C9.25453 15.1581 8.61866 11.8436 9.19862 8.62996L7.52615 7.67108C6.81256 8.38467 6.18817 9.16515 5.69758 10.0348V10.0348Z" fill="#050A14"/>
<path d="M26.3025 21.9429C26.8153 21.0732 27.1944 20.1589 27.462 19.1777L24.7861 17.6167C24.9831 16.5479 24.9831 15.4521 24.7861 14.3833C23.515 14.0488 22.2662 13.9373 21.0174 14.0488C22.7455 16.8196 23.3814 20.1341 22.8014 23.3477L24.4739 24.3289C25.1875 23.6153 25.8119 22.8125 26.3025 21.9429V21.9429ZM5.69758 21.9429C6.18817 22.8348 6.81256 23.6153 7.52615 24.3289L10.2021 22.7679C11.0312 23.4779 11.9836 24.0297 13.0119 24.3958C13.9038 23.4815 14.6397 22.4334 15.1749 21.3185C11.9176 21.4184 8.7391 20.3059 6.25507 18.1965L4.53799 19.1777C4.80559 20.1366 5.20698 21.0732 5.69758 21.9429V21.9429ZM16 4.10313C14.9965 4.10313 13.993 4.21463 13.0119 4.48223V7.58188C11.9931 7.94372 11.0486 8.48776 10.2244 9.18745C10.5589 10.4585 11.1164 11.5958 11.8077 12.6216C13.3513 9.74256 15.9108 7.54076 18.9882 6.4446V4.45993C18.0132 4.19983 17.0091 4.06494 16 4.05853V4.10313Z" fill="#00B4FF"/>
<path d="M16 2.05157C19.7023 2.05453 23.2518 3.5281 25.8677 6.14812C28.4835 8.76814 29.9514 12.32 29.9484 16.0223C29.9455 19.7246 28.4719 23.2741 25.8519 25.8899C23.2319 28.5058 19.68 29.9737 15.9777 29.9707C14.1445 29.9693 12.3295 29.6067 10.6365 28.9039C8.94336 28.201 7.40528 27.1715 6.11005 25.8742C3.49421 23.2542 2.02631 19.7023 2.02927 16C2.03223 12.2977 3.5058 8.74819 6.12582 6.13235C8.74584 3.51651 12.2977 2.04861 16 2.05157V2.05157ZM16 0C11.7565 0 7.68687 1.68571 4.68629 4.68629C1.68571 7.68687 0 11.7565 0 16C0 20.2435 1.68571 24.3131 4.68629 27.3137C7.68687 30.3143 11.7565 32 16 32C20.2435 32 24.3131 30.3143 27.3137 27.3137C30.3143 24.3131 32 20.2435 32 16C32 11.7565 30.3143 7.68687 27.3137 4.68629C24.3131 1.68571 20.2435 0 16 0V0Z" fill="#00B4FF"/>
</svg>
