<svg width="32" height="32" viewBox="0 0 32 32" fill="none" xmlns="http://www.w3.org/2000/svg">
<path d="M23.2043 26.5524C23.2043 26.5524 23.2075 26.542 23.2116 26.531C27.2037 24.0555 29.8733 19.5394 29.8733 14.128C29.8733 3.70306 23.122 0 16.0647 0C9.40401 0 2.16602 5.23283 2.16602 14.329C2.16602 24.7538 8.91575 28.5773 15.9765 28.5773C17.0861 28.5773 18.1648 28.4443 19.1999 28.1973C19.1999 28.1973 19.2153 28.2025 19.2251 28.2039C22.0069 33.1741 26.1497 31.9714 27.2187 31.5796C27.2187 31.5796 27.0753 30.7048 26.8243 29.0768C24.8257 29.0257 23.9352 28.0226 23.2043 26.5524ZM17.862 24.8596C17.2296 25.015 16.5902 25.0759 15.9721 25.0759C12.6866 25.0759 8.75168 23.6569 8.75168 14.8011C8.75168 5.94705 12.8726 3.50221 16.1584 3.50221C19.4434 3.50221 23.2641 5.60919 23.2641 14.4641C23.2641 18.478 22.4474 21.0305 21.2463 22.6248C21.2352 22.6253 21.2241 22.6242 21.2134 22.6215C18.4813 19.0963 14.9361 19.9412 14.086 20.3239C14.086 20.3239 14.1945 21.1325 14.4193 22.6021C16.2945 22.6016 17.2232 23.574 17.8719 24.8299C17.8657 24.8435 17.862 24.8596 17.862 24.8596Z" fill="#A72822"/>
</svg>
