<svg width="32" height="32" viewBox="0 0 32 32" fill="none" xmlns="http://www.w3.org/2000/svg">
<path d="M7.17895 26L16 16.0421L24.7789 26.0211C22.4211 28.0842 19.3474 29.3474 16 29.3474C12.6316 29.3263 9.53684 28.0632 7.17895 26ZM16 2.67368C23.3474 2.67368 29.3263 8.65263 29.3263 16C29.3263 19.0316 28.3158 21.8105 26.6105 24.0632L16.0211 12.0211L5.36842 24.0421C3.68421 21.8105 2.67368 19.0316 2.67368 16C2.67368 8.65263 8.65263 2.67368 16 2.67368ZM16 0C7.17895 0 0 7.17895 0 16C0 24.8211 7.17895 32 16 32C24.8211 32 32 24.8211 32 16C32 7.17895 24.8211 0 16 0Z" fill="#4521AB"/>
</svg>
