<svg width="32" height="32" viewBox="0 0 32 32" fill="none" xmlns="http://www.w3.org/2000/svg">
<path d="M21.9891 13.767C21.9891 13.767 21.3386 12.8176 21.1803 12.6418C21.0221 12.4483 20.8814 12.2374 20.5649 12.2374C20.2309 12.2374 20.1078 12.4483 19.9495 12.6418C19.7913 12.8352 19.1583 13.8198 19.1583 13.8198L17.4353 16.4044L16.2045 18.1626C16.2045 18.1626 12.3012 23.9648 12.1605 24.1758C11.9847 24.4044 11.7913 24.7385 11.5627 24.7385C11.3342 24.7385 11.1232 24.4044 10.9649 24.1758C10.8243 23.9824 6.85065 18.1626 6.85065 18.1626C6.85065 18.1626 6.27043 17.2483 5.97153 16.8088C5.93636 16.756 5.76054 16.5275 5.63746 16.4044C5.42647 16.1934 5.28581 16.0879 5.02208 15.9824C4.68801 15.8418 4.26603 15.8769 4.26603 15.8769H0.802295C0.802295 15.8769 0.433064 15.8769 0.274823 16.1934C0.134163 16.5275 0.151746 17.4769 0.274823 17.7582C0.415482 18.0747 0.855042 18.0747 0.855042 18.0747C0.855042 18.0747 2.33197 18.0747 3.80889 18.0747C3.87922 18.0747 3.98471 18.0747 4.03746 18.0923C4.09021 18.1099 4.14295 18.1978 4.17812 18.2505C4.82867 19.2176 10.2616 27.1472 10.9649 28.1846C11.1232 28.3956 11.2287 28.589 11.5627 28.589C11.8968 28.589 11.9847 28.4132 12.1605 28.1846C12.3012 27.9736 14.8858 24.1582 14.8858 24.1582L18.9298 18.1451C18.9298 18.1451 19.7913 16.844 19.932 16.633C20.1078 16.4044 20.3012 16.0703 20.5298 16.0703C20.7583 16.0703 20.9869 16.4044 21.1627 16.6154C21.3386 16.8615 22.3408 18.3209 22.3408 18.3209C22.3408 18.3209 22.5869 18.6725 22.8858 18.6549C23.1847 18.6549 24.1693 17.8989 24.2924 17.6176C24.4155 17.3363 24.1869 17.0022 24.1869 17.0022L21.9891 13.767ZM31.8528 14.3648C31.7122 14.0483 31.2726 14.0483 31.2726 14.0483C31.2726 14.0483 29.7957 14.0483 28.3188 14.0483C28.2484 14.0483 28.143 14.0483 28.0902 14.0308C28.0375 14.0132 27.9847 13.9253 27.9495 13.8725C27.299 12.9055 21.866 4.97582 21.1627 3.93846C21.0045 3.70989 20.899 3.51648 20.5649 3.51648C20.2309 3.51648 20.143 3.6923 19.9671 3.92088C19.8265 4.13186 17.2419 7.94725 17.2419 7.94725L13.1979 13.9604C13.1979 13.9604 12.3364 15.2615 12.1957 15.4725C12.0199 15.7011 11.8265 16.0352 11.5979 16.0352C11.3693 16.0352 11.1408 15.7011 10.9649 15.4901C10.7891 15.244 9.78691 13.7846 9.78691 13.7846C9.78691 13.7846 9.54076 13.433 9.24186 13.4505C8.94295 13.4505 7.95834 14.2066 7.83526 14.4879C7.71219 14.7692 7.94076 15.1033 7.94076 15.1033L10.1386 18.3736C10.1386 18.3736 10.7891 19.3231 10.9474 19.4989C11.1056 19.6923 11.2463 19.9033 11.5627 19.9033C11.8968 19.9033 12.0199 19.6923 12.1781 19.4989C12.3364 19.3055 12.9693 18.3209 12.9693 18.3209L14.6924 15.7363L15.9232 13.978C15.9232 13.978 19.8265 8.17582 19.9671 7.96483C20.143 7.73626 20.3364 7.40219 20.5649 7.40219C20.7935 7.40219 21.0045 7.73626 21.1627 7.96483C21.3034 8.15824 25.277 13.978 25.277 13.978C25.277 13.978 25.8572 14.8923 26.1561 15.3319C26.1913 15.3846 26.3671 15.6132 26.4902 15.7363C26.7012 15.9472 26.8419 16.0527 27.1056 16.1582C27.4397 16.2989 27.8616 16.2637 27.8616 16.2637H31.3254C31.3254 16.2637 31.6946 16.2637 31.8528 15.9472C31.9935 15.5956 31.9759 14.6462 31.8528 14.3648Z" fill="#DB1753"/>
</svg>
