<svg
  id="a6bbee5a-74bb-4604-9694-664ab991b7b2"
  xmlns="http://www.w3.org/2000/svg"
  xmlns:xlink="http://www.w3.org/1999/xlink"
  viewBox="0 0 1400 1400"
>
  <defs>
    <linearGradient
      id="a9f66256-db8c-41cd-b818-a21351b5ba08"
      x1="1238.45"
      y1="938.6"
      x2="706.57"
      y2="17.35"
      gradientUnits="userSpaceOnUse"
    >
      <stop offset="0.13" stop-color="#243748" />
      <stop offset="0.23" stop-color="#284851" />
      <stop offset="0.41" stop-color="#31756a" />
      <stop offset="0.49" stop-color="#358a75" />
      <stop offset="0.81" stop-color="#67c650" />
      <stop offset="0.9" stop-color="#75d746" />
    </linearGradient>
    <linearGradient
      id="af6be52a-813f-4562-b86b-1c8a32222f0c"
      x1="618.75"
      y1="683.04"
      x2="716.14"
      y2="261.17"
      gradientUnits="userSpaceOnUse"
    >
      <stop offset="0.13" stop-color="#243748" />
      <stop offset="0.22" stop-color="#295256" />
      <stop offset="0.35" stop-color="#307067" />
      <stop offset="0.46" stop-color="#348371" />
      <stop offset="0.54" stop-color="#358a75" />
      <stop offset="0.62" stop-color="#3b9171" />
      <stop offset="0.75" stop-color="#4ca564" />
      <stop offset="0.9" stop-color="#67c650" />
      <stop offset="0.96" stop-color="#75d746" />
    </linearGradient>
    <linearGradient
      id="e855093d-9771-4579-923f-3d38537cbf62"
      x1="946.88"
      y1="735.79"
      x2="855.59"
      y2="1195.17"
      gradientTransform="matrix(0.94, 0, 0, 0.92, -112.67, 46.02)"
      xlink:href="#af6be52a-813f-4562-b86b-1c8a32222f0c"
    />
    <linearGradient
      id="e993ef3c-9679-45c3-9004-87a6404f56bc"
      x1="273.71"
      y1="293.24"
      x2="969.32"
      y2="1286.67"
      gradientUnits="userSpaceOnUse"
    >
      <stop offset="0.22" stop-color="#284851" />
      <stop offset="0.41" stop-color="#31756a" />
      <stop offset="0.49" stop-color="#358a75" />
      <stop offset="0.81" stop-color="#67c650" />
      <stop offset="0.9" stop-color="#75d746" />
    </linearGradient>
    <linearGradient
      id="a880422a-0c89-453b-a49d-1e1feed748d6"
      x1="1024.83"
      y1="1061.93"
      x2="492.95"
      y2="140.69"
      gradientUnits="userSpaceOnUse"
    >
      <stop offset="0.22" stop-color="#284851" />
      <stop offset="0.41" stop-color="#31756a" />
      <stop offset="0.49" stop-color="#358a75" />
      <stop offset="0.81" stop-color="#67c650" />
      <stop offset="0.9" stop-color="#75d746" />
    </linearGradient>
    <linearGradient
      id="b0ede60b-b4a4-4831-b068-1c78e4f68cca"
      x1="624.64"
      y1="47.52"
      x2="1320.25"
      y2="1040.95"
      gradientUnits="userSpaceOnUse"
    >
      <stop offset="0.13" stop-color="#243748" />
      <stop offset="0.22" stop-color="#274650" />
      <stop offset="0.38" stop-color="#2f6c65" />
      <stop offset="0.49" stop-color="#358a75" />
      <stop offset="0.77" stop-color="#67c650" />
      <stop offset="0.85" stop-color="#75d746" />
    </linearGradient>
    <linearGradient
      id="b2ae6129-5615-4aaf-b1c6-ac1a3b2df812"
      x1="112.53"
      y1="406.11"
      x2="808.13"
      y2="1399.54"
      xlink:href="#b0ede60b-b4a4-4831-b068-1c78e4f68cca"
    />
    <linearGradient
      id="b9534123-3f4a-4654-9e4d-64820361ded2"
      x1="637.3"
      y1="1285.67"
      x2="105.42"
      y2="364.42"
      xlink:href="#a9f66256-db8c-41cd-b818-a21351b5ba08"
    />
  </defs>
  <path
    d="M1256.57,825.07,1088.8,922.92v2.16l168.55-98.28a91.22,91.22,0,0,0,35.54-37.38V787.2l0,.06A93.81,93.81,0,0,1,1256.57,825.07Z"
    style="fill:url(#a9f66256-db8c-41cd-b818-a21351b5ba08)"
  />
  <path
    d="M625.69,648.91l70.51-4,3.31-381.12-131.57,342C567.46,630.31,593.18,650.82,625.69,648.91Z"
    style="fill:url(#af6be52a-813f-4562-b86b-1c8a32222f0c)"
  />
  <path
    d="M775.5,754.2l-71.83,4.21-3.48,377.83,132.92-342.7C831,770.75,806.32,752.39,775.5,754.2Z"
    style="fill:url(#e855093d-9771-4579-923f-3d38537cbf62)"
  />
  <path
    d="M811.71,638.08l-115.22,6.79h-.07l-70.73,4c-32.51,1.91-58.23-18.6-57.75-43.11L532.21,712c-9,28.67,19.17,55.4,56.08,53.23l115.22-6.79h0l72-4.22c30.82-1.81,55.54,16.55,57.61,39.34L867.79,691.3C876.79,662.64,848.62,635.9,811.71,638.08Z"
    style="fill:#358a75"
  />
  <polygon
    points="700 252.61 311.28 477.03 311.25 477.05 311.25 922.94 700 1147.39 1088.72 922.96 1088.8 922.92 1088.76 477.05 700 252.61"
    style="fill:none"
  />
  <path
    d="M1292.89,787.2v2.22a91.22,91.22,0,0,1-35.54,37.38L1088.8,925.08v-2.16l-.08,0L700,1147.39,311.25,922.94V477.05h0L141.63,575.84a91.05,91.05,0,0,0-34.48,35.34l0,.06v0h0V988.1a91.27,91.27,0,0,0,45.63,79.05l261.63,151,240,138.56a91.31,91.31,0,0,0,91.28,0l261.87-151.19,239.74-138.42a91.27,91.27,0,0,0,45.65-79.05V787.2Z"
    style="fill:url(#e993ef3c-9679-45c3-9004-87a6404f56bc)"
  />
  <path
    d="M141.59,575.85l169.62-98.79,0,0h0l0,0L700,252.61l388.76,224.44,0,445.87,167.77-97.85a93.81,93.81,0,0,0,36.29-37.81l0-.06V411.9a91.25,91.25,0,0,0-45.65-79l-269-155.28L745.63,43.23a91.36,91.36,0,0,0-91.28,0L387,197.61,152.74,332.85a91.26,91.26,0,0,0-45.63,79V611.19A91,91,0,0,1,141.59,575.85Z"
    style="fill:url(#a880422a-0c89-453b-a49d-1e1feed748d6)"
  />
  <path
    d="M1256.57,825.07,1088.8,922.92v2.16l168.55-98.28a91.22,91.22,0,0,0,35.54-37.38V787.2l0,.06A93.81,93.81,0,0,1,1256.57,825.07Z"
    style="fill:url(#b0ede60b-b4a4-4831-b068-1c78e4f68cca)"
  />
  <path
    d="M107.15,611.18a91.05,91.05,0,0,1,34.48-35.34l169.61-98.79h0l0,0L141.59,575.85a91,91,0,0,0-34.48,35.34v0Z"
    style="fill:url(#b2ae6129-5615-4aaf-b1c6-ac1a3b2df812)"
  />
  <path
    d="M107.15,611.18a91.05,91.05,0,0,1,34.48-35.34l169.61-98.79h0l0,0L141.59,575.85a91,91,0,0,0-34.48,35.34v0Z"
    style="fill:url(#b9534123-3f4a-4654-9e4d-64820361ded2)"
  />
</svg>
