<svg xmlns="http://www.w3.org/2000/svg" viewBox="0 0 570 720"><path d="M158.38 1.656c-3.62.113-7.517 1.45-11.938 4.938-10.83-4.177-21.33-5.627-30.72 2.875-14.5-1.881-19.212 2-22.782 6.531-3.183-.066-23.819-3.272-33.282 10.844C35.877 24.03 28.361 40.832 36.877 56.5c-4.857 7.519-9.89 14.947 1.469 29.281-4.018 7.984-1.528 16.644 7.937 27.125-2.498 11.223 2.412 19.141 11.22 25.312-1.648 15.358 14.083 24.287 18.78 27.469 1.804 8.949 5.563 17.393 23.531 22.062 2.964 13.336 13.762 15.639 24.22 18.438-34.563 20.09-64.202 46.523-64 111.38l-5.063 9.031c-39.63 24.1-75.285 101.56-19.53 164.52 3.642 19.708 9.75 33.864 15.188 49.531 8.134 63.131 61.218 92.692 75.219 96.188 20.517 15.628 42.368 30.457 71.938 40.844 27.875 28.75 58.074 39.706 88.438 39.688.445 0 .898.005 1.344 0 30.364.02 60.562-10.938 88.438-39.688 29.569-10.387 51.42-25.216 71.938-40.844 14-3.496 67.085-33.057 75.219-96.188 5.437-15.667 11.546-29.823 15.188-49.53 55.754-62.966 20.1-140.43-19.531-164.53l-5.07-9.03c.2-64.853-29.438-91.286-64-111.38 10.457-2.8 21.256-5.102 24.219-18.439 17.968-4.67 21.728-13.114 23.53-22.062 4.698-3.181 20.429-12.11 18.782-27.469 8.806-6.171 13.717-14.09 11.219-25.312 9.464-10.48 11.956-19.14 7.937-27.125 11.36-14.328 6.32-21.756 1.47-29.275 8.51-15.668 1-32.47-22.79-29.656-9.46-14.116-30.09-10.91-33.28-10.844-3.57-4.53-8.28-8.412-22.78-6.531-9.39-8.502-19.89-7.051-30.72-2.875-12.86-10.148-21.37-2.013-31.09 1.062-15.57-5.087-19.13 1.881-26.78 4.72-16.98-3.589-22.14 4.223-30.28 12.468l-9.469-.187c-25.61 15.093-38.334 45.826-42.844 61.625-4.512-15.802-17.206-46.535-42.812-61.625l-9.468.187c-8.15-8.245-13.31-16.057-30.29-12.469-7.65-2.838-11.2-9.806-26.78-4.719-6.38-2.018-12.247-6.214-19.156-6z"/><path fill="#75a928" d="M107.39 68.056c67.948 35.031 107.45 63.369 129.09 87.504-11.082 44.418-68.896 46.445-90.036 45.199 4.328-2.015 7.94-4.428 9.22-8.136-5.304-3.77-24.112-.397-37.243-7.774 5.044-1.045 7.403-2.063 9.762-5.785-12.406-3.957-25.769-7.367-33.628-13.921 4.242.052 8.202.949 13.74-2.893-11.112-5.988-22.969-10.734-32.18-19.887 5.745-.14 11.938-.057 13.74-2.17-10.17-6.3-18.752-13.307-25.855-20.971 8.04.97 11.435.134 13.38-1.266-7.688-7.874-17.419-14.523-22.058-24.226 5.97 2.057 11.431 2.845 15.368-.18-2.612-5.894-13.805-9.37-20.249-23.143 6.285.61 12.95 1.371 14.283 0-2.917-11.884-7.922-18.565-12.83-25.487 13.45-.2 33.827.052 32.904-1.085l-8.316-8.497c13.138-3.537 26.58.568 36.34 3.616 4.382-3.458-.078-7.83-5.424-12.294 11.165 1.49 21.254 4.057 30.373 7.593 4.873-4.4-3.164-8.799-7.05-13.198 17.248 3.273 24.556 7.87 31.82 12.475 5.268-5.05.3-9.343-3.255-13.74 13.006 4.817 19.705 11.036 26.758 17.175 2.391-3.227 6.075-5.592 1.627-13.379 9.234 5.323 16.189 11.595 21.334 18.622 5.713-3.638 3.404-8.613 3.435-13.198 9.597 7.807 15.687 16.114 23.142 24.226 1.502-1.093 2.817-4.802 3.978-10.667 22.895 22.212 55.246 78.158 8.316 100.34-39.94-32.94-87.64-56.883-140.5-74.844zm360.53 0c-67.94 35.034-107.44 63.364-129.08 87.504 11.082 44.418 68.896 46.445 90.036 45.199-4.328-2.015-7.94-4.428-9.22-8.136 5.304-3.77 24.113-.397 37.244-7.774-5.045-1.045-7.404-2.063-9.763-5.785 12.406-3.957 25.769-7.367 33.628-13.921-4.242.052-8.202.949-13.74-2.893 11.112-5.988 22.969-10.734 32.18-19.887-5.745-.14-11.938-.057-13.74-2.17 10.17-6.3 18.752-13.307 25.855-20.971-8.04.97-11.435.134-13.38-1.266 7.688-7.874 17.419-14.523 22.058-24.226-5.97 2.057-11.431 2.845-15.368-.18 2.612-5.894 13.805-9.37 20.249-23.143-6.285.61-12.95 1.371-14.283 0 2.922-11.889 7.927-18.57 12.836-25.492-13.45-.2-33.828.052-32.905-1.085l8.316-8.497c-13.138-3.537-26.58.568-36.34 3.616-4.382-3.458.078-7.83 5.424-12.294-11.165 1.49-21.254 4.057-30.373 7.593-4.873-4.399 3.164-8.798 7.05-13.198-17.248 3.273-24.556 7.871-31.82 12.475-5.269-5.05-.3-9.343 3.255-13.74-13.006 4.817-19.705 11.036-26.758 17.175-2.391-3.227-6.075-5.592-1.627-13.379-9.234 5.323-16.189 11.595-21.334 18.622-5.713-3.638-3.404-8.613-3.435-13.198-9.597 7.807-15.687 16.114-23.142 24.226-1.502-1.093-2.817-4.801-3.978-10.667-22.895 22.212-55.246 78.158-8.316 100.34 39.919-32.947 87.616-56.888 140.48-74.849z"/><path fill="#bc1142" d="M369.941 520.362a81.39 75.051 0 1 1-162.777 0 81.39 75.051 0 1 1 162.777 0zM241.458 305.967a86.13 72.999-55.966 1 1-94.968 143.712 86.13 72.999-55.966 1 1 94.968-143.712z"/><path fill="#bc1142" d="M332.482 301.967a72.999 86.13-34.034 1 1 94.968 143.712 72.999 86.13-34.034 1 1-94.968-143.712zM72.91 342.09c36.41-9.76 12.292 150.63-17.333 137.47C22.99 453.35 12.494 376.59 72.91 342.09z"/><path fill="#bc1142" d="M493.68 340.09c-36.414-9.757-12.292 150.64 17.333 137.48 32.587-26.213 43.083-102.98-17.333-137.48zM369.97 220.65c62.835-10.61 115.12 26.722 113.01 94.858-2.067 26.121-136.16-90.969-113.01-94.858zm-173.61-2c-62.84-10.61-115.12 26.73-113.01 94.86 2.067 26.12 136.16-90.97 113.01-94.86zm90.26-15.89c-37.503-.975-73.495 27.834-73.582 44.544-.105 20.304 29.651 41.093 73.837 41.62 45.123.323 73.916-16.64 74.061-37.594.165-23.74-41.039-48.937-74.317-48.571zm2.29 416.36c32.697-1.427 76.571 10.532 76.657 26.396.543 15.405-39.79 50.211-78.826 49.538-40.427 1.744-80.069-33.116-79.55-45.199-.605-17.716 49.226-31.548 81.719-30.735zM168.14 525.1c23.279 28.046 33.891 77.319 14.464 91.844-18.379 11.088-63.012 6.522-94.736-39.052-21.395-38.242-18.638-77.157-3.616-88.589 22.464-13.684 57.173 4.799 83.89 35.797zm236.88-8.89c-25.187 29.502-39.212 83.31-20.838 100.64 17.568 13.464 64.729 11.582 99.566-36.756 25.296-32.465 16.82-86.682 2.37-101.08-21.463-16.602-52.276 4.645-81.098 37.188z"/></svg>