<svg width="32" height="32" viewBox="0 0 32 32" fill="none" xmlns="http://www.w3.org/2000/svg">
<g clip-path="url(#clip0)">
<path d="M17.3004 4.77145C17.3004 4.77145 11.2588 1.59033 3.33936 4.52675L5.38044 6.72904L3.421 7.78947L5.95193 10.7258L17.3004 4.77145Z" fill="#F4DB12"/>
<path d="M22.9335 10.7256V12.8464V14.3145V16.4353C22.9335 16.4353 24.5663 14.3145 27.832 14.3145V12.8464C24.5663 12.8464 22.9335 10.7256 22.9335 10.7256Z" fill="#F4DB12"/>
<path d="M9.87061 21.1665C9.87061 21.1665 13.8711 22.7978 11.9116 27.5288C11.5851 28.3444 13.8711 29.2417 15.8306 28.3444C15.9122 28.2629 14.8508 27.692 14.8508 26.8763C14.8508 26.3869 15.8306 22.8795 15.8306 22.8795L9.87061 21.1665Z" fill="#DF282B"/>
<path d="M15.749 28.2626C15.749 28.2626 12.4833 26.7128 14.6877 22.4713C16.8103 18.4745 18.035 23.2869 18.035 23.2869C18.035 23.2869 14.6877 25.8156 15.749 28.2626Z" fill="#D3D2D3"/>
<path d="M29.1384 15.5383C30.2656 15.5383 31.1794 14.6253 31.1794 13.4992C31.1794 12.3729 30.2656 11.46 29.1384 11.46C28.0111 11.46 27.0973 12.3729 27.0973 13.4992C27.0973 14.6253 28.0111 15.5383 29.1384 15.5383Z" fill="#C02123"/>
<path d="M21.5454 4.20022C21.0556 4.20022 20.5657 4.11865 20.0759 4.11865C11.5033 4.11865 5.38013 7.54445 5.38013 13.9067C5.38013 20.269 11.5033 23.6948 20.0759 23.6948C20.5657 23.6948 21.0556 23.6948 21.5454 23.6132V4.20022Z" fill="#DF282B"/>
<path d="M5.38013 13.9067C5.38013 20.269 11.5033 23.6948 19.9943 23.6948C20.4841 23.6948 20.9739 23.6948 21.4638 23.6132V13.9883" fill="#C02123"/>
<path d="M13.9571 18.8823C16.6625 18.8823 18.8556 16.6911 18.8556 13.9883C18.8556 11.2853 16.6625 9.09424 13.9571 9.09424C11.2517 9.09424 9.05847 11.2853 9.05847 13.9883C9.05847 16.6911 11.2517 18.8823 13.9571 18.8823Z" fill="#DF282B"/>
<path d="M14.3652 9.25781C16.8145 9.25781 18.8555 11.3785 18.8555 13.9071C18.8555 16.4357 16.8145 18.5564 14.3652 18.5564C11.9159 18.5564 9.87485 16.5173 9.87485 13.9071C9.87485 11.2969 11.9159 9.25781 14.3652 9.25781ZM14.3652 7.62646C11.0178 7.62646 8.24194 10.4813 8.24194 13.9071C8.24194 17.4145 11.0178 20.1878 14.3652 20.1878C17.7125 20.1878 20.4884 17.4145 20.4884 13.9071C20.4884 10.4813 17.7125 7.62646 14.3652 7.62646Z" fill="#F4DB12"/>
<path d="M16.9408 13.5331L14.8988 13.1983L15.6978 9.01318L12.3241 14.3701L14.3661 14.7049L13.4783 19.1411L16.9408 13.5331Z" fill="white"/>
<path d="M9.79302 10.7256C9.79302 10.7256 4.48624 11.6228 1.87366 14.3962L4.48624 15.2934C4.48624 15.2934 0.975595 16.1906 -0.820557 18.0666C-0.820557 18.0666 5.30268 15.2934 10.6094 18.0666L8.65005 15.4565L8.97661 14.8039L8.48677 13.9883L9.79302 10.7256Z" fill="#F4DB12"/>
<path d="M21.5457 23.6137C22.4437 23.5321 23.2601 23.4505 24.0766 23.369V4.52693C23.2601 4.36379 22.3621 4.28223 21.5457 4.28223V23.6137Z" fill="#D3D2D3"/>
<path d="M31.0978 12.9282C30.8529 12.1125 30.0365 11.46 29.1384 11.46C27.9953 11.46 27.0973 12.3572 27.0973 13.4992C27.0973 13.7439 27.1789 13.9885 27.2606 14.2333C27.6688 14.5595 28.2403 14.8042 28.8118 14.8042C29.8732 14.8042 30.7712 13.9885 31.0978 12.9282Z" fill="#DF282B"/>
</g>
<defs>
<clipPath id="clip0">
<rect width="32" height="32" fill="white"/>
</clipPath>
</defs>
</svg>
