<svg
  xmlns:dc="http://purl.org/dc/elements/1.1/"
  xmlns:cc="http://creativecommons.org/ns#"
  xmlns:rdf="http://www.w3.org/1999/02/22-rdf-syntax-ns#"
  xmlns:svg="http://www.w3.org/2000/svg"
  xmlns="http://www.w3.org/2000/svg"
  viewBox="0 0 450 450"
  height="300"
  width="300"
  xml:space="preserve"
  id="svg2"
  version="1.1">
  <metadata
    id="metadata8">
    <rdf:RDF>
      <cc:Work
        rdf:about="">
        <dc:format>image/svg+xml</dc:format>
        <dc:type
          rdf:resource="http://purl.org/dc/dcmitype/StillImage" />
      </cc:Work>
    </rdf:RDF>
  </metadata>
  <defs
    id="defs6">
    <clipPath
      id="clipPath20"
      clipPathUnits="userSpaceOnUse">
      <path
        id="path18"
        d="M 196.316,1377.69 H 113.094 C 50.6445,1377.69 0,1327.05 0,1264.6 0,1202.14 50.6445,1151.51 113.094,1151.51 h 83.222 c 62.465,0 113.11,50.63 113.11,113.09 0,62.45 -50.645,113.09 -113.11,113.09 z m 2435.204,475.55 c -87.72,254.39 -333.35,438.6 -618.47,438.6 -285.1,0 -530.65,-184.21 -622.76,-438.6 z m 478.1,-219.33 c 0,-118.43 -96.5,-219.32 -219.28,-219.32 H 1394.69 c 87.71,-254.39 333.26,-438.602 618.36,-438.602 179.92,0 346.54,74.582 464.93,193.002 83.41,83.32 223.77,83.32 311.48,0 83.31,-87.71 83.31,-223.67 0,-311.431 -201.8,-197.34 -473.71,-320.161 -776.41,-320.161 -208.54,0 -403.5,58.34 -569.54,159.532 H 989.074 c -62.449,0 -113.09,50.64 -113.09,113.09 0,62.46 50.641,113.101 113.09,113.101 h 64.236 c 6.95,0 13.67,0.82 20.24,2.039 1.41,0.25 2.78,0.449 4.16,0.75 5.77,1.301 11.36,3.051 16.77,5.211 2.22,0.867 4.34,1.848 6.48,2.848 3.5,1.672 6.88,3.519 10.19,5.543 4.06,2.429 7.88,5.117 11.6,8.039 1.38,1.097 2.73,2.187 4.05,3.347 5.84,5.032 11.14,10.582 15.85,16.704 v 0 c 14.69,19.078 23.76,42.678 23.76,68.598 0,62.47 -50.65,113.1 -113.1,113.1 h -23.77 -465.063 c -62.454,0 -113.098,50.64 -113.098,113.1 0,62.46 50.644,113.1 113.098,113.1 h 383.054 12.821 c 62.448,0 113.098,50.64 113.098,113.09 0,62.46 -50.65,113.09 -113.098,113.09 H 917.406 812.797 c -62.469,0 -113.098,50.64 -113.098,113.1 0,62.45 50.629,113.1 113.098,113.1 h 121.254 218.259 c 62.46,0 113.11,50.64 113.11,113.1 0,62.45 -50.65,113.08 -113.11,113.08 H 1000.2 872.758 c -62.453,0 -113.082,50.64 -113.082,113.1 0,62.45 50.629,113.09 113.082,113.09 h 198.832 c 62.47,0 113.1,50.64 113.1,113.1 0,62.45 -50.63,113.1 -113.1,113.1 H 812.797 c -62.469,0 -113.098,50.63 -113.098,113.09 0,62.44 50.629,113.09 113.098,113.09 H 2013.05 c -0.46,-0.75 -1.24,-1.49 -1.74,-2.24 0.59,0 1.15,0.05 1.74,0.05 605.28,0 1096.57,-491.25 1096.57,-1096.53 z M 516.691,2056.25 c 62.465,0 113.098,50.64 113.098,113.1 0,62.45 -50.633,113.1 -113.098,113.1 h -27.5 c -62.449,0 -113.082,-50.65 -113.082,-113.1 0,-62.46 50.633,-113.1 113.082,-113.1 z M 1352.9,482.5 C 1221.24,482.5 1111.65,372.82 1111.65,241.262 1111.65,109.691 1221.24,0 1352.9,0 c 131.57,0 241.25,109.691 241.25,241.262 0,131.558 -109.68,241.238 -241.25,241.238 z M 2910.16,241.262 C 2910.16,109.691 2800.47,0 2668.91,0 c -131.66,0 -241.25,109.691 -241.25,241.262 0,131.558 109.59,241.238 241.25,241.238 131.56,0 241.25,-109.68 241.25,-241.238 z" />
    </clipPath>
    <linearGradient
      id="linearGradient32"
      spreadMethod="pad"
      gradientTransform="matrix(3109.62,0,0,-3109.62,261.148,1366.32)"
      gradientUnits="userSpaceOnUse"
      y2="0"
      x2="1"
      y1="0"
      x1="0">
      <stop
        id="stop22"
        offset="0"
        style="stop-opacity:1;stop-color:#821962" />
      <stop
        id="stop24"
        offset="0.0725762"
        style="stop-opacity:1;stop-color:#821962" />
      <stop
        id="stop26"
        offset="0.56415"
        style="stop-opacity:1;stop-color:#ee2547" />
      <stop
        id="stop28"
        offset="0.999394"
        style="stop-opacity:1;stop-color:#f14724" />
      <stop
        id="stop30"
        offset="1"
        style="stop-opacity:1;stop-color:#f14724" />
    </linearGradient>
  </defs>
  <g
    transform="matrix(1.3333333,0,0,-1.3333333,0,364.34667)"
    id="g10">
    <g
      transform="scale(0.1)"
      id="g12">
      <g
        id="g14">
        <g
          clip-path="url(#clipPath20)"
          id="g16">
          <path
            id="path34"
            style="fill:url(#linearGradient32);fill-opacity:1;fill-rule:nonzero;stroke:none"
            d="M 196.316,1377.69 H 113.094 C 50.6445,1377.69 0,1327.05 0,1264.6 0,1202.14 50.6445,1151.51 113.094,1151.51 h 83.222 c 62.465,0 113.11,50.63 113.11,113.09 0,62.45 -50.645,113.09 -113.11,113.09 z m 2435.204,475.55 c -87.72,254.39 -333.35,438.6 -618.47,438.6 -285.1,0 -530.65,-184.21 -622.76,-438.6 z m 478.1,-219.33 c 0,-118.43 -96.5,-219.32 -219.28,-219.32 H 1394.69 c 87.71,-254.39 333.26,-438.602 618.36,-438.602 179.92,0 346.54,74.582 464.93,193.002 83.41,83.32 223.77,83.32 311.48,0 83.31,-87.71 83.31,-223.67 0,-311.431 -201.8,-197.34 -473.71,-320.161 -776.41,-320.161 -208.54,0 -403.5,58.34 -569.54,159.532 H 989.074 c -62.449,0 -113.09,50.64 -113.09,113.09 0,62.46 50.641,113.101 113.09,113.101 h 64.236 c 6.95,0 13.67,0.82 20.24,2.039 1.41,0.25 2.78,0.449 4.16,0.75 5.77,1.301 11.36,3.051 16.77,5.211 2.22,0.867 4.34,1.848 6.48,2.848 3.5,1.672 6.88,3.519 10.19,5.543 4.06,2.429 7.88,5.117 11.6,8.039 1.38,1.097 2.73,2.187 4.05,3.347 5.84,5.032 11.14,10.582 15.85,16.704 v 0 c 14.69,19.078 23.76,42.678 23.76,68.598 0,62.47 -50.65,113.1 -113.1,113.1 h -23.77 -465.063 c -62.454,0 -113.098,50.64 -113.098,113.1 0,62.46 50.644,113.1 113.098,113.1 h 383.054 12.821 c 62.448,0 113.098,50.64 113.098,113.09 0,62.46 -50.65,113.09 -113.098,113.09 H 917.406 812.797 c -62.469,0 -113.098,50.64 -113.098,113.1 0,62.45 50.629,113.1 113.098,113.1 h 121.254 218.259 c 62.46,0 113.11,50.64 113.11,113.1 0,62.45 -50.65,113.08 -113.11,113.08 H 1000.2 872.758 c -62.453,0 -113.082,50.64 -113.082,113.1 0,62.45 50.629,113.09 113.082,113.09 h 198.832 c 62.47,0 113.1,50.64 113.1,113.1 0,62.45 -50.63,113.1 -113.1,113.1 H 812.797 c -62.469,0 -113.098,50.63 -113.098,113.09 0,62.44 50.629,113.09 113.098,113.09 H 2013.05 c -0.46,-0.75 -1.24,-1.49 -1.74,-2.24 0.59,0 1.15,0.05 1.74,0.05 605.28,0 1096.57,-491.25 1096.57,-1096.53 z M 516.691,2056.25 c 62.465,0 113.098,50.64 113.098,113.1 0,62.45 -50.633,113.1 -113.098,113.1 h -27.5 c -62.449,0 -113.082,-50.65 -113.082,-113.1 0,-62.46 50.633,-113.1 113.082,-113.1 z M 1352.9,482.5 C 1221.24,482.5 1111.65,372.82 1111.65,241.262 1111.65,109.691 1221.24,0 1352.9,0 c 131.57,0 241.25,109.691 241.25,241.262 0,131.558 -109.68,241.238 -241.25,241.238 z M 2910.16,241.262 C 2910.16,109.691 2800.47,0 2668.91,0 c -131.66,0 -241.25,109.691 -241.25,241.262 0,131.558 109.59,241.238 241.25,241.238 131.56,0 241.25,-109.68 241.25,-241.238" />
        </g>
      </g>
    </g>
  </g>
</svg>
