<svg width="32" height="32" viewBox="0 0 32 32" fill="none" xmlns="http://www.w3.org/2000/svg">
<path d="M4.55104 0.00108371C-1.51628 -0.114449 -1.51628 9.04627 4.55104 8.93074H8.21012C14.2774 9.04627 14.2774 -0.114449 8.21012 0.00108371H4.55104ZM23.8123 11.5347C17.7741 11.4493 17.7741 20.5505 23.8123 20.4651H27.4714C33.5095 20.5505 33.5095 11.4493 27.4714 11.5347H23.8123ZM4.52852 23.069C-1.50951 22.9838 -1.50951 32.0847 4.52852 31.9994H8.1876C14.2256 32.0846 14.2256 22.9838 8.1876 23.069H4.52852Z" fill="#B43278"/>
<path d="M19.052 0.00108371C12.9846 -0.114449 12.9846 9.04627 19.052 8.93074H27.4486C33.5159 9.04627 33.5159 -0.114449 27.4486 0.00108371H19.052ZM4.52899 11.5347C-1.50917 11.4493 -1.50917 20.5505 4.52899 20.4651H12.9256C18.9638 20.5505 18.9638 11.4493 12.9256 11.5347H4.52899ZM19.0738 23.069C13.0357 22.9838 13.0357 32.0847 19.0738 31.9994H27.4711C33.5092 32.0846 33.5092 22.9838 27.4711 23.069H19.0738Z" fill="#F65A8E"/>
</svg>
