<svg width="32" height="32" viewBox="0 0 32 32" fill="none" xmlns="http://www.w3.org/2000/svg">
<path d="M31.2626 16.0018C31.2626 13.9797 28.7302 12.0633 24.8477 10.8749C25.7437 6.9177 25.3455 3.76936 23.5909 2.76139C23.1864 2.52496 22.7136 2.41296 22.1971 2.41296V3.80047C22.4833 3.80047 22.7136 3.85647 22.9064 3.96224C23.7526 4.44756 24.1197 6.2955 23.8335 8.67231C23.7651 9.25718 23.6531 9.87316 23.5162 10.5016C22.2967 10.2029 20.9652 9.97271 19.5652 9.82338C18.7252 8.67231 17.8542 7.62701 16.9769 6.71237C19.0052 4.8271 20.9092 3.79425 22.2034 3.79425V2.40674C20.4923 2.40674 18.2524 3.62625 15.9876 5.74174C13.7227 3.6387 11.4828 2.43163 9.77176 2.43163V3.81914C11.0597 3.81914 12.9699 4.84577 14.9983 6.7186C14.1272 7.63323 13.2561 8.67231 12.4286 9.82338C11.0224 9.97271 9.69087 10.2029 8.47136 10.5078C8.32825 9.8856 8.22248 9.28207 8.14781 8.70342C7.85538 6.32661 8.21625 4.47867 9.05623 3.98713C9.24289 3.87513 9.48555 3.82536 9.77176 3.82536V2.43785C9.24911 2.43785 8.77624 2.54984 8.36558 2.78628C6.61719 3.79425 6.22521 6.93637 7.1274 10.8811C3.25731 12.0758 0.737389 13.9859 0.737389 16.0018C0.737389 18.024 3.26975 19.9404 7.15229 21.1288C6.25632 25.086 6.65453 28.2343 8.40914 29.2423C8.81357 29.4787 9.28644 29.5907 9.80909 29.5907C11.5201 29.5907 13.7601 28.3712 16.0249 26.2557C18.2897 28.3588 20.5296 29.5658 22.2407 29.5658C22.7633 29.5658 23.2362 29.4538 23.6469 29.2174C25.3952 28.2094 25.7872 25.0673 24.885 21.1226C28.7427 19.9342 31.2626 18.0178 31.2626 16.0018V16.0018ZM23.1615 11.8518C22.9313 12.6544 22.6451 13.4819 22.3216 14.3095C22.0665 13.8117 21.7989 13.3139 21.5065 12.8162C21.2203 12.3184 20.9154 11.8331 20.6105 11.3602C21.494 11.4909 22.3465 11.6527 23.1615 11.8518ZM20.3119 18.4782C19.8265 19.3182 19.3288 20.1146 18.8124 20.855C17.8853 20.9359 16.9457 20.9795 16 20.9795C15.0605 20.9795 14.1209 20.9359 13.2001 20.8612C12.6837 20.1208 12.1797 19.3306 11.6944 18.4969C11.2215 17.6818 10.7922 16.8543 10.4002 16.0205C10.7859 15.1868 11.2215 14.353 11.6881 13.5379C12.1735 12.698 12.6712 11.9015 13.1876 11.1611C14.1147 11.0802 15.0543 11.0367 16 11.0367C16.9395 11.0367 17.879 11.0802 18.7999 11.1549C19.3163 11.8953 19.8203 12.6855 20.3056 13.5193C20.7785 14.3343 21.2078 15.1619 21.5998 15.9956C21.2078 16.8294 20.7785 17.6631 20.3119 18.4782ZM22.3216 17.6693C22.6576 18.5031 22.9438 19.3368 23.1802 20.1457C22.3651 20.3448 21.5065 20.5128 20.6167 20.6435C20.9216 20.1644 21.2265 19.6728 21.5127 19.1689C21.7989 18.6711 22.0665 18.1671 22.3216 17.6693ZM16.0124 24.3082C15.4338 23.7109 14.8551 23.0452 14.2827 22.3172C14.8427 22.3421 15.4151 22.3607 15.9938 22.3607C16.5786 22.3607 17.1573 22.3483 17.7235 22.3172C17.1635 23.0452 16.5849 23.7109 16.0124 24.3082ZM11.3833 20.6435C10.4997 20.5128 9.64732 20.351 8.83223 20.1519C9.06245 19.3493 9.34866 18.5218 9.67221 17.6942C9.92731 18.192 10.1949 18.6898 10.4873 19.1875C10.7797 19.6853 11.0784 20.1706 11.3833 20.6435ZM15.9813 7.69545C16.56 8.29277 17.1386 8.95852 17.7111 9.6865C17.1511 9.66161 16.5786 9.64294 16 9.64294C15.4151 9.64294 14.8365 9.65539 14.2703 9.6865C14.8303 8.95852 15.4089 8.29277 15.9813 7.69545ZM11.377 11.3602C11.0722 11.8393 10.7673 12.3309 10.4811 12.8348C10.1949 13.3326 9.92731 13.8304 9.67221 14.3281C9.33622 13.4944 9.05 12.6606 8.81357 11.8518C9.62865 11.6589 10.4873 11.4909 11.377 11.3602V11.3602ZM5.74611 19.1502C3.54352 18.2107 2.11868 16.9787 2.11868 16.0018C2.11868 15.025 3.54352 13.7868 5.74611 12.8535C6.28121 12.6233 6.86608 12.418 7.46961 12.2251C7.82427 13.4446 8.29092 14.7139 8.86957 16.0143C8.29714 17.3085 7.83671 18.5715 7.48828 19.7848C6.8723 19.5919 6.28743 19.3804 5.74611 19.1502ZM9.09356 28.0415C8.24736 27.5561 7.88027 25.7082 8.16648 23.3314C8.23492 22.7465 8.34692 22.1305 8.4838 21.5021C9.70332 21.8008 11.0348 22.031 12.4348 22.1803C13.2748 23.3314 14.1458 24.3767 15.0231 25.2913C12.9948 27.1766 11.0908 28.2094 9.79665 28.2094C9.51666 28.2032 9.28022 28.1472 9.09356 28.0415V28.0415ZM23.8522 23.3003C24.1446 25.6771 23.7837 27.525 22.9438 28.0166C22.7571 28.1286 22.5144 28.1783 22.2282 28.1783C20.9403 28.1783 19.0301 27.1517 17.0017 25.2789C17.8728 24.3642 18.7439 23.3252 19.5714 22.1741C20.9776 22.0248 22.3091 21.7945 23.5286 21.4897C23.6717 22.1181 23.7837 22.7216 23.8522 23.3003V23.3003ZM26.2477 19.1502C25.7126 19.3804 25.1277 19.5857 24.5242 19.7786C24.1695 18.5591 23.7029 17.2898 23.1242 15.9894C23.6966 14.6952 24.1571 13.4322 24.5055 12.2189C25.1215 12.4117 25.7063 12.6233 26.2539 12.8535C28.4565 13.793 29.8813 15.025 29.8813 16.0018C29.8751 16.9787 28.4503 18.2169 26.2477 19.1502V19.1502Z" fill="#61DAFB"/>
<path d="M15.9937 18.8451C17.5642 18.8451 18.8372 17.5721 18.8372 16.0017C18.8372 14.4313 17.5642 13.1582 15.9937 13.1582C14.4233 13.1582 13.1503 14.4313 13.1503 16.0017C13.1503 17.5721 14.4233 18.8451 15.9937 18.8451Z" fill="#61DAFB"/>
</svg>
