<svg width="32" height="32" viewBox="0 0 32 32" fill="none" xmlns="http://www.w3.org/2000/svg">
<g clip-path="url(#clip0_3732_112)">
<path d="M16 32C24.8366 32 32 24.8366 32 16C32 7.16344 24.8366 0 16 0C7.16344 0 0 7.16344 0 16C0 24.8366 7.16344 32 16 32Z" fill="black"/>
<path fill-rule="evenodd" clip-rule="evenodd" d="M23.0984 23.6716V21.1852C23.0984 20.6892 22.8272 20.44 22.378 20.44C21.8444 20.44 21.4048 20.836 21.386 21.3164V23.6684H20.4844V21.1824C20.4844 20.6864 20.2132 20.4368 19.764 20.4368C19.2304 20.4368 18.7908 20.8328 18.772 21.3132V23.6652H17.8704V19.7784H18.6816L18.772 20.1092L18.816 20.1496L18.8592 20.1092C19.0404 19.8596 19.4896 19.6944 19.8512 19.6944C20.5 19.6944 20.968 19.9504 21.2052 20.3556L21.4296 20.106C21.6544 19.8564 22.1064 19.6912 22.4656 19.6912C23.4576 19.6912 24 20.2712 24 21.098V23.6652H23.0984V23.6716V23.6716ZM9.3768 11.5652H9.2112V14.248H8.3252V8H10.4776C11.4448 8 12.2932 8.6424 12.2932 9.7532C12.2932 10.8228 11.3884 11.506 10.4212 11.506L12.4116 14.0732V14.2452H11.4012L9.3768 11.5652V11.5652ZM10.5276 10.6796C11.0144 10.6796 11.4604 10.3396 11.4604 9.7876C11.4604 9.2356 11.0144 8.8956 10.5276 8.8956H9.23V10.6796H10.5276Z" fill="white" stroke="white" stroke-width="0.2"/>
<path fill-rule="evenodd" clip-rule="evenodd" d="M8.04639 23.4688L23.3384 8.17676L23.8236 8.66116L8.53159 23.9532L8.04639 23.4688Z" fill="white" stroke="white" stroke-width="0.6"/>
</g>
<defs>
<clipPath id="clip0_3732_112">
<rect width="32" height="32" fill="white"/>
</clipPath>
</defs>
</svg>
