<svg data-name="Layer 1" xmlns="http://www.w3.org/2000/svg" viewBox="0 0 84 83.8">
  <path d="M84 41.8V6l-9.4 9.4a42 42 0 00-66 1.2L24 32.2a20.5 20.5 0 016.3-7A18.6 18.6 0 0142 21.4a4.2 4.2 0 011.5.2A20.3 20.3 0 0159 30.9L48 42H84" fill="#1c3aa9"/>
  <path d="M41.8 0H6l9.4 9.4a42 42 0 001.2 66l15.6-15.5a20.3 20.3 0 01-7-6.2A18.6 18.6 0 0121.3 42a4.2 4.2 0 01.3-1.5A20.3 20.3 0 0130.9 25l11 11c0-13.9-.2-29.5 0-35.9" fill="#4285f4"/>
  <path d="M0 42v35.7l9.4-9.3a42 42 0 0066-1.2L60 51.6a20.4 20.4 0 01-6.2 7A18.6 18.6 0 0142 62.4a4.2 4.2 0 01-1.5-.2A20.3 20.3 0 0125 52.8L35.9 42H0" fill="#ababab"/>
</svg>
