<svg width="387" height="387" viewBox="0 0 387 387" fill="none" xmlns="http://www.w3.org/2000/svg">
<path d="M192.21 -1.09354e-05C96.01 0.299989 15.81 76.3 10.31 172.3C8.01002 212.3 18.61 251.2 40.71 284.4C61.01 314.8 89.41 338.2 123.01 352.1L111.71 380.3C110.31 383.8 113.41 387.5 117.11 386.7L199.71 369.6C203.01 368.9 204.51 365.1 202.61 362.4L154.51 293C152.31 289.9 147.61 290.4 146.21 293.9L134.91 322.1C77.41 298.1 40.31 240.6 42.21 178.3C44.81 95.2 114.51 29.8 197.51 32.3C280.61 34.9 346.01 104.6 343.51 187.6C343.11 201.6 340.71 215.4 336.51 228.6L336.11 229.7C334.31 235.1 332.21 240.4 329.91 245.6L329.81 245.8C329.41 246.7 329.01 247.5 328.61 248.4L328.31 248.9C327.91 249.7 327.51 250.4 327.21 251.2L326.81 252C326.51 252.6 326.21 253.2 325.81 253.8L325.51 254.3C325.41 254.5 325.31 254.8 325.11 255C324.81 255.5 324.61 255.9 324.31 256.4L323.91 257.1C323.71 257.4 323.61 257.7 323.41 258C323.21 258.4 322.91 258.8 322.71 259.2L322.31 259.9C322.11 260.3 321.91 260.7 321.61 261C321.41 261.3 321.21 261.6 321.01 262L320.61 262.7C320.31 263.1 320.11 263.6 319.81 264C319.61 264.3 319.41 264.6 319.31 264.8L319.01 265.2C318.61 265.8 318.31 266.3 317.91 266.9C317.81 267.1 317.61 267.3 317.51 267.5L317.21 267.9C316.81 268.5 316.41 269.1 315.91 269.7L315.31 270.6C314.81 271.2 314.41 271.9 313.91 272.5L313.31 273.2C312.81 273.9 312.31 274.5 311.81 275.2L311.31 275.8C310.81 276.5 310.21 277.2 309.71 277.9L309.21 278.5C308.61 279.2 308.01 279.9 307.41 280.6L307.01 281.1C306.41 281.8 305.81 282.5 305.21 283.2L304.81 283.6C304.21 284.3 303.51 285 302.81 285.7L302.51 286.1C301.81 286.8 301.21 287.5 300.51 288.2C295.31 293.5 289.71 298.4 283.81 302.9L231.61 228.2V227.8V226.8H231.41C231.51 226.8 231.51 226.8 231.61 226.8V227C269.11 225.3 299.01 194.4 299.01 156.5C299.01 117.5 267.41 85.9 228.41 85.9H116.31H101.41C97.61 85.9 95.41 90.1 97.61 93.2L113.61 116.1C114.51 117.3 115.91 118.1 117.41 118.1H133.21H228.21C249.31 118.2 266.31 135.4 266.31 156.5C266.31 177.7 249.11 194.8 228.01 194.9H192.41H177.51C173.71 194.9 171.51 199.1 173.71 202.2L190.81 226.6L272.31 343.1C273.61 345 276.21 345.6 278.31 344.6C280.91 343.3 281.71 342.8 284.31 341.3L286.41 340C286.81 339.8 287.11 339.5 287.51 339.3L289.01 338.4C289.81 337.9 290.61 337.4 291.41 336.9L292.01 336.5C293.51 335.5 295.11 334.5 296.61 333.4L297.41 332.8C298.11 332.3 298.91 331.7 299.61 331.2L302.11 329.4C324.41 312.7 342.91 290.8 355.61 266.1L355.71 265.9C356.31 264.7 357.01 263.4 357.61 262.1L357.71 261.9C360.11 256.9 362.31 251.7 364.21 246.5L364.51 245.8C364.71 245.1 365.01 244.5 365.21 243.8L365.61 242.7C365.81 242.2 365.91 241.8 366.11 241.3C366.31 240.7 366.51 240.1 366.71 239.5L366.81 239.1C367.11 238.3 367.31 237.5 367.61 236.7C367.81 236.2 367.91 235.6 368.11 235.1L368.21 234.8C368.51 233.9 368.71 233 369.01 232.2C369.21 231.6 369.31 231 369.51 230.4C369.81 229.4 370.01 228.5 370.21 227.5C370.31 226.9 370.51 226.4 370.61 225.8C370.91 224.8 371.11 223.7 371.31 222.6L371.41 222.3C371.51 221.9 371.61 221.5 371.71 221.1C372.01 219.9 372.21 218.7 372.41 217.5L372.51 217.2C372.51 217 372.61 216.9 372.61 216.7L373.51 212H373.41C374.71 204.2 375.41 196.2 375.71 188.3C379.01 85.7 296.01 -0.300011 192.21 -1.09354e-05Z" fill="url(#paint0_linear)"/>
<defs>
<linearGradient id="paint0_linear" x1="-56.5589" y1="-10.4408" x2="382.376" y2="357.155" gradientUnits="userSpaceOnUse">
<stop stop-color="#374ED6"/>
<stop offset="1" stop-color="#4AB3F4"/>
</linearGradient>
</defs>
</svg>
