<svg width="32" height="32" viewBox="0 0 32 32" fill="none" xmlns="http://www.w3.org/2000/svg">
<path d="M18.768 24.5231C18.6183 24.925 18.2154 25.1141 17.8223 25.0093C17.832 24.9964 17.8411 24.9825 17.848 24.9658C18.3419 23.7777 18.6242 22.5082 18.6734 21.2218C18.6967 20.6093 18.6686 19.9939 18.5903 19.386C18.5249 18.8797 18.4465 18.3063 18.2657 17.8065C18.7005 17.4918 19.0582 16.8779 18.9915 16.3331C18.9174 15.7284 18.0046 15.9387 17.6158 15.9972C17.2234 16.0564 16.3499 16.1263 16.6219 16.7531C16.7422 17.0304 17.0392 17.2508 17.2678 17.4339C17.4686 17.5955 17.6825 17.7502 17.9115 17.8726C18.0102 18.3619 18.1606 18.8427 18.2296 19.3409C18.3174 19.9732 18.3462 20.6119 18.3176 21.2492C18.2625 22.4876 17.9891 23.703 17.5152 24.8479C17.5141 24.8506 17.5138 24.8532 17.5129 24.8557C17.2217 24.6298 17.1168 24.241 17.1605 23.8776C17.1803 23.7136 16.9187 23.6276 16.8701 23.7989C16.7014 24.3928 16.9995 25.049 17.5758 25.293C18.1774 25.5474 18.863 25.2719 19.0927 24.6575C19.172 24.4458 18.8473 24.3104 18.768 24.5231ZM17.3702 17.0324C17.3283 17.0513 17.2681 17.04 17.1807 16.9796C17.0667 16.9009 16.9474 16.7214 16.99 16.574C17.0331 16.4249 17.1768 16.3662 17.3045 16.3192C17.2664 16.4208 17.2343 16.5228 17.2083 16.6291C17.1968 16.6759 17.2109 16.7107 17.2355 16.7337C17.2338 16.7556 17.2314 16.7769 17.2306 16.7995C17.2272 16.887 17.3136 16.9241 17.3813 16.8997C17.3749 16.944 17.3716 16.9881 17.3702 17.0324Z" fill="#0D2445"/>
<path d="M31.7202 17.2046C31.0409 17.3559 30.3723 17.6184 29.7092 17.83C29.3118 17.9568 28.9144 18.0837 28.5171 18.2106C28.4508 17.5014 28.3227 16.7978 28.1554 16.1181C27.1865 12.1829 24.8112 8.80694 23.4498 5.02045C23.3905 4.85538 23.1596 4.84027 23.1026 5.01823C22.7103 6.24614 22.4657 7.51201 22.3643 8.79618C22.3498 8.7945 22.3353 8.79236 22.321 8.79094C21.4686 8.70756 20.6084 8.73014 19.7563 8.8113C18.4108 8.93956 17.0842 9.21299 15.7605 9.48543C13.8434 9.88019 11.9244 10.2756 10.0318 10.7774C9.49974 10.9186 8.96987 11.0679 8.4432 11.2283C8.27174 11.2805 8.08232 11.3237 7.904 11.3821C7.89769 11.3578 7.88596 11.3335 7.86756 11.3104C7.1672 10.4317 6.54516 9.49352 5.84498 8.61494C5.76729 8.51787 5.56871 8.56223 5.55031 8.69014C5.40889 9.68054 5.49156 10.6794 5.57014 11.6719C5.64107 12.5667 5.67698 13.4375 5.62294 14.3258C5.5944 14.3492 5.57503 14.3847 5.57547 14.4338C5.59298 16.2741 5.74712 18.1111 6.01769 19.9312C5.56729 19.6462 5.09716 19.3667 4.59627 19.2053C4.01636 19.0184 3.42685 19.1118 2.8544 19.2783C1.84134 19.5728 0.538937 19.9615 0.299204 21.1493C0.285959 21.2141 0.330048 21.3053 0.410137 21.2955C1.04143 21.2189 1.624 21.0325 2.21076 20.8392C3.22551 20.7461 4.51378 20.5434 5.27885 20.3213C5.30374 20.3214 5.32863 20.3221 5.35351 20.3224C4.64605 20.5909 3.9744 20.9482 3.36036 21.395C2.97076 21.6787 2.58738 21.9911 2.26676 22.3528C2.12205 22.5157 1.988 22.6911 1.88551 22.8841C1.80009 23.0453 1.65111 23.3218 1.68418 23.5089C1.72125 23.7164 2.03574 23.836 2.22623 23.8664C2.48854 23.9083 2.74667 23.8232 2.9768 23.7021C3.46587 23.4457 3.87049 23.0484 4.27787 22.6682C4.36463 22.6138 4.45049 22.5589 4.5336 22.5036C4.79263 22.3317 5.02409 22.1042 5.22516 21.8621C5.33414 21.7645 5.43778 21.6595 5.53307 21.5343C5.75449 21.2429 5.95014 20.9277 6.124 20.6042C6.21609 21.1425 6.32667 21.681 6.46854 22.2099C6.40614 22.2123 6.34383 22.2131 6.28152 22.2158C5.83867 22.2362 5.26809 22.1838 4.85698 22.3584C4.7952 22.3849 4.81289 22.4851 4.87414 22.4993C5.10534 22.5533 5.35147 22.5032 5.58685 22.4873C5.86 22.4685 6.13351 22.4535 6.40711 22.4421C6.44863 22.4402 6.4904 22.4398 6.53192 22.4383C6.62125 22.7488 6.72258 23.0553 6.83849 23.356C6.50863 23.4112 6.17903 23.4685 5.84996 23.5278C5.55627 23.5806 5.26329 23.6358 4.97067 23.6926C4.67476 23.7501 4.35636 23.7807 4.08027 23.9035C3.99716 23.94 4.0416 24.0649 4.12285 24.0661C4.40525 24.0709 4.6904 23.9821 4.96685 23.9292C5.2808 23.8685 5.59476 23.8101 5.90916 23.7529C6.24791 23.6916 6.58703 23.6326 6.92649 23.5756C7.02498 23.8134 7.13307 24.0477 7.25271 24.2765C6.44747 24.5121 5.6456 24.7573 4.852 25.0222C4.71645 25.0672 4.76774 25.2749 4.90889 25.2388C5.74223 25.0243 6.57147 24.7875 7.39823 24.5409C9.15067 27.5879 12.7546 28.3042 16.0141 27.9748C17.7707 27.7971 19.5418 27.4582 21.2528 27.0253C22.8436 26.6229 24.4106 26.0389 25.7309 25.044C27.0096 24.081 27.9925 22.7677 28.3564 21.1921C28.3572 21.1885 28.3578 21.1851 28.3585 21.1818C28.6055 21.1304 28.8523 21.0765 29.098 21.0195C29.53 20.919 30.0318 20.853 30.4252 20.644C30.4958 20.6063 30.4676 20.4865 30.3852 20.4906C29.9766 20.5115 29.558 20.6755 29.1601 20.7702C28.9104 20.8294 28.6603 20.8852 28.4094 20.9385C28.4708 20.625 28.5131 20.308 28.5381 19.9889C29.4805 19.7485 30.4181 19.4908 31.3477 19.21C31.484 19.169 31.43 18.9577 31.2909 18.9955C30.3796 19.2444 29.4682 19.4888 28.5547 19.7247C28.5756 19.2992 28.5682 18.8711 28.5368 18.4444C28.9472 18.3137 29.3576 18.1832 29.7683 18.0523C30.4403 17.8378 31.1444 17.6613 31.7949 17.388C31.9031 17.343 31.8261 17.1811 31.7202 17.2046ZM5.0656 20.6919C5.3712 20.5595 5.684 20.4431 6.00365 20.3464C5.99138 20.369 5.97876 20.3914 5.9664 20.4141C5.788 20.4595 5.46249 20.5501 5.0656 20.6919ZM23.0596 13.097C23.0725 13.0989 23.0861 13.0998 23.101 13.0971C23.9769 12.9368 24.7146 13.5619 24.8435 14.4272C24.979 15.3357 24.2946 16.3369 23.3495 16.4174C22.5346 16.4868 21.8499 15.8255 21.7683 15.0341C21.6816 14.193 22.249 13.323 23.0596 13.097ZM10.8533 16.0539C10.8658 16.0557 10.8785 16.0569 10.8928 16.0545C11.7601 15.9067 12.5272 16.4866 12.698 17.3461C12.8811 18.2669 12.1988 19.2591 11.2567 19.3766C10.4214 19.4807 9.66489 18.8558 9.54196 18.0356C9.41076 17.1602 10.0137 16.2749 10.8533 16.0539ZM6.31183 18.0428C6.56809 17.5317 6.9424 17.0813 7.37289 16.6845C7.00658 17.1249 6.59031 17.6709 6.31183 18.0428ZM11.7804 10.73C11.9625 11.3282 12.1444 11.927 12.3265 12.5253C12.3506 12.6044 12.3777 12.6882 12.4415 12.7405C12.6805 12.9368 12.9029 12.5915 12.9355 12.3919C13.0357 11.7794 12.9589 11.0935 12.8452 10.4881C13.5106 10.3327 14.1759 10.1773 14.8414 10.0218C15.047 10.7797 15.2842 11.529 15.5526 12.2672C15.598 12.3922 15.6476 12.522 15.747 12.6104C15.8463 12.6989 16.0106 12.7292 16.1099 12.6406C16.1763 12.5819 16.1969 12.4889 16.2124 12.4014C16.3666 11.5233 16.291 10.6061 15.9957 9.76525C16.6442 9.64801 17.2924 9.53058 17.941 9.41316C17.9796 10.2493 18.1962 11.0768 18.5725 11.8245C18.6204 11.9198 18.6956 12.0282 18.8019 12.0182C18.9164 12.0074 18.9667 11.8702 18.9888 11.7573C19.1514 10.9292 19.1987 10.079 19.1295 9.23814C20.22 9.08463 21.3279 9.05725 22.4248 9.15743C22.5266 9.21254 22.6928 9.16312 22.7033 9.00872C22.7804 7.86036 22.9795 6.73023 23.2945 5.62632C24.1477 7.84036 25.3125 9.91725 26.3001 12.0719C24.966 11.6765 23.5706 11.8486 22.2273 12.1317C20.6638 12.4612 19.1226 12.8141 17.539 13.0394C14.6109 13.4566 11.5635 13.7813 8.95156 15.2862C7.84356 15.9245 6.68009 16.7981 6.10792 17.9774C5.99618 16.9086 5.92409 15.8353 5.88125 14.7623C5.88205 14.7595 5.88418 14.7576 5.88489 14.7546C6.10827 13.8186 5.98943 12.7887 5.92089 11.84C5.85734 10.9617 5.76836 10.0675 5.84249 9.18579C6.43218 9.96027 6.98054 10.766 7.5832 11.5308C7.44489 11.6578 7.59467 11.8085 7.81209 11.7525C9.13503 11.4119 10.4578 11.0709 11.7804 10.73ZM2.28214 19.6859C1.50934 20.0544 0.755826 20.5389 0.713693 20.786C0.700804 20.8614 0.910404 20.8933 1.2496 20.8931C1.02667 20.9538 0.799737 21.0037 0.56747 21.0397C0.805781 20.301 1.54427 19.9301 2.28214 19.6859ZM5.84809 20.0887C5.8544 20.0926 5.86071 20.0965 5.86703 20.1005C5.85609 20.1 5.84507 20.0997 5.83414 20.0993C5.83938 20.0958 5.8432 20.0923 5.84809 20.0887ZM1.98445 23.2297C2.09991 22.8946 2.32551 22.6053 2.58347 22.3478C2.24649 22.8277 2.052 23.3106 2.02409 23.5479C1.94071 23.4819 1.93147 23.3839 1.98445 23.2297ZM2.67903 23.5837C2.58329 23.6186 2.48249 23.6404 2.38107 23.6429C2.62214 23.5608 2.96534 23.404 3.33974 23.2077C3.13325 23.3647 2.91547 23.4978 2.67903 23.5837ZM28.1834 19.8198C26.8273 20.1662 25.4668 20.4934 24.0957 20.7857C23.9618 20.8141 24.0161 21.0186 24.15 20.9913C25.4907 20.7156 26.8302 20.4162 28.1611 20.0837C28.1294 20.4004 28.0795 20.7128 28.0093 21.02C27.9298 21.0359 27.8508 21.0532 27.7713 21.0683C26.8301 21.2481 25.8815 21.3879 24.9289 21.4869C24.7957 21.5008 24.7928 21.7106 24.9281 21.6974C25.8597 21.6079 26.7874 21.4819 27.7076 21.3104C27.7883 21.2955 27.8687 21.2783 27.9493 21.2627C27.6963 22.2118 27.2402 23.1029 26.5101 23.8786C24.2313 26.3003 20.6823 26.8977 17.5494 27.4154C14.3391 27.9459 10.4243 27.962 8.21423 25.1423C8.03832 24.9181 7.88089 24.6824 7.73698 24.4389C8.98543 24.0627 10.2295 23.6683 11.4755 23.2971C11.6095 23.2572 11.5551 23.0471 11.4199 23.0865C10.1488 23.4583 8.86623 23.8092 7.59032 24.1787C7.47503 23.9639 7.36934 23.7438 7.27378 23.519C7.40667 23.4973 7.53938 23.4744 7.67245 23.4535C8.92454 23.255 10.1819 23.0868 11.4419 22.9435C11.5769 22.9284 11.5804 22.7145 11.4422 22.729C10.204 22.8589 8.96987 23.019 7.73983 23.2107C7.55476 23.2394 7.37014 23.2703 7.18534 23.3005C7.07289 23.015 6.97423 22.7235 6.88694 22.4282C7.25298 22.4183 7.6192 22.4121 7.98543 22.4149C9.0592 22.4225 10.1323 22.4844 11.2001 22.5948C11.3397 22.6087 11.3386 22.3921 11.2008 22.377C10.1116 22.257 9.0184 22.1904 7.92276 22.1843C7.55574 22.1821 7.18845 22.1885 6.82134 22.1989C6.66356 21.6256 6.54454 21.0415 6.44605 20.4649C7.89796 20.9601 9.51867 20.9256 10.965 20.4255C11.7146 20.1661 12.4189 19.7835 13.037 19.2854C13.8009 18.6694 14.3748 17.8681 15.0295 17.146C15.5933 16.524 16.2413 15.965 17.0231 15.6813C17.0404 15.6877 17.0593 15.6903 17.0805 15.6829C18.1477 15.3144 19.3017 15.3637 20.2596 16.0077C20.7255 16.3213 21.1053 16.7381 21.6089 16.999C22.0639 17.2346 22.5629 17.366 23.07 17.4273C24.1148 17.5542 25.2698 17.4315 26.2837 17.1532C26.9142 16.9798 27.4889 16.5805 27.7554 15.9955C27.9537 16.7557 28.1014 17.5398 28.1672 18.3227C27.9915 18.3788 27.816 18.4349 27.6403 18.491C26.2815 18.925 24.9228 19.3587 23.5655 19.7981C23.4357 19.8403 23.4883 20.046 23.6204 20.0047C25.0018 19.5712 26.3814 19.1312 27.7611 18.6919C27.902 18.6469 28.0431 18.6021 28.1841 18.5572C28.2104 18.9806 28.2118 19.4029 28.1834 19.8198Z" fill="#0D2445"/>
<path d="M10.9905 18.3627C11.3911 18.816 11.8397 18.3784 11.8436 17.9167C11.8458 17.6901 11.7574 17.1738 11.5766 16.9454C11.3874 16.7061 11.1 16.6575 10.8474 16.9507C10.5968 17.2418 10.6692 17.6672 10.7927 17.9993C10.8412 18.13 10.8993 18.26 10.9905 18.3627Z" fill="#0D2445"/>
<path d="M23.0804 15.4605C23.4801 15.9027 23.9015 15.4529 23.8928 14.9914C23.8885 14.765 23.7885 14.2511 23.6075 14.0278C23.4177 13.7935 23.1389 13.7527 22.9027 14.0528C22.6684 14.3508 22.7504 14.774 22.879 15.1027C22.9298 15.2319 22.9896 15.3601 23.0804 15.4605Z" fill="#0D2445"/>
<path d="M23.4722 9.11606C23.7355 9.09997 23.9935 9.05313 24.2481 8.9837C24.3015 8.96921 24.3509 8.90335 24.3283 8.84601C24.126 8.33623 23.8675 7.84921 23.535 7.41187C23.484 7.34494 23.3597 7.38138 23.3445 7.46067C23.3361 7.50379 23.3296 7.54716 23.323 7.59027C23.3223 7.59276 23.3207 7.59419 23.32 7.59667C23.2386 7.88148 23.1857 8.17632 23.1331 8.46752C23.1067 8.61339 22.9933 8.90192 23.0774 9.04308C23.1523 9.16859 23.3518 9.12326 23.4722 9.11606ZM23.9701 8.79552C23.9728 8.80281 23.9757 8.8101 23.9786 8.81748C23.9583 8.82175 23.9381 8.82797 23.9181 8.83197C23.9375 8.82424 23.9556 8.81188 23.9701 8.79552ZM23.811 8.82557C23.8112 8.82086 23.811 8.8165 23.8113 8.81224C23.8292 8.83064 23.8501 8.83917 23.8724 8.83997C23.8501 8.84441 23.8278 8.84708 23.8057 8.85055C23.8073 8.84237 23.8106 8.8349 23.811 8.82557ZM23.5877 8.8541C23.5921 8.86486 23.5983 8.87348 23.6044 8.8821C23.5773 8.88548 23.5511 8.88948 23.5269 8.89348C23.5392 8.8533 23.5505 8.81312 23.5608 8.77286C23.5702 8.79988 23.5773 8.82708 23.5877 8.8541ZM23.5243 7.78743C23.5309 7.79748 23.538 7.80681 23.5446 7.81668C23.5365 7.81721 23.5287 7.81836 23.5207 7.82059C23.522 7.80974 23.5231 7.79863 23.5243 7.78743Z" fill="#0D2445"/>
<path d="M6.2174 10.3006C6.14949 10.2515 6.08674 10.3152 6.08594 10.3815C6.21758 10.9419 6.16629 11.5322 6.27892 12.0949C6.28016 12.0953 6.28096 12.0965 6.28238 12.0966C6.3118 12.1197 6.351 12.1307 6.38478 12.1181C6.70923 11.9975 7.02887 11.8663 7.3446 11.7241C7.4206 11.6901 7.41296 11.594 7.37118 11.5398C7.03527 11.1041 6.66629 10.6256 6.2174 10.3006Z" fill="#0D2445"/>
<path d="M6.66618 3.86047C6.2316 3.89754 5.802 4.02154 5.38307 4.13647C5.17631 4.19318 4.97036 4.25247 4.76458 4.31247C4.71578 4.32669 4.56227 4.34776 4.47098 4.37985C4.45356 4.3298 4.42334 4.27922 4.40245 4.23211C4.32236 4.0514 4.24351 3.87025 4.1644 3.68909C3.99631 3.30474 3.84654 2.89789 3.63756 2.53354C3.61427 2.49291 3.56982 2.48198 3.53036 2.49149C3.51934 2.49345 3.50885 2.49763 3.49916 2.50403C3.49889 2.50429 3.49854 2.50447 3.49809 2.50483C3.49622 2.50607 3.49445 2.50705 3.49267 2.50856C3.46689 2.52634 3.44991 2.55443 3.45525 2.589C3.34831 2.99816 3.28858 3.42074 3.20991 3.83594C3.17018 4.04607 3.12965 4.25629 3.08245 4.465C3.0724 4.50971 3.05791 4.55496 3.05062 4.6002C3.04707 4.62171 3.01934 4.67603 3.03427 4.67398C2.99951 4.69265 2.94805 4.7026 2.91551 4.71478C2.26938 4.95745 1.60431 5.15469 0.967069 5.42056C0.883691 5.45531 0.848135 5.61007 0.967069 5.62767C1.34076 5.68278 1.71774 5.71665 2.09347 5.75345C2.29587 5.77318 2.49845 5.79238 2.70076 5.81238C2.78405 5.82056 2.92511 5.86118 3.02467 5.85807C3.02467 5.88127 3.02556 5.90402 3.02431 5.91825C3.00796 6.09594 2.98876 6.27327 2.97018 6.45078C2.9276 6.85745 2.88138 7.26394 2.85249 7.67176C2.8468 7.75265 2.95071 7.81149 3.01756 7.76643C3.10867 7.70509 3.17356 7.59531 3.2388 7.50963C3.36271 7.34669 3.48262 7.18074 3.60271 7.01514C3.79134 6.75469 3.96822 6.4674 4.17951 6.22198C4.77774 6.62838 5.3436 7.08118 5.94511 7.48296C6.02751 7.53807 6.12538 7.4474 6.1044 7.36056C5.93382 6.653 5.36422 6.10794 5.07356 5.44954C5.65178 4.99674 6.30787 4.613 6.7588 4.02234C6.80742 3.95887 6.74236 3.85389 6.66618 3.86047ZM4.41854 4.40483C4.41418 4.40794 4.41062 4.41114 4.40787 4.41451C4.41134 4.41034 4.41489 4.40723 4.41854 4.40483ZM5.6492 4.75043C5.39365 4.93745 5.10609 5.10811 4.88085 5.333C4.84307 5.35336 4.82005 5.39336 4.84173 5.44598C5.0828 6.03229 5.55782 6.53176 5.79782 7.11923C5.26645 6.74705 4.75596 6.34491 4.21631 5.98465C4.17809 5.95914 4.11578 5.96785 4.08485 6.00163C3.86467 6.2418 3.68787 6.53211 3.49685 6.79496C3.37036 6.96909 3.24369 7.14314 3.11436 7.31514C3.11009 7.32083 3.10529 7.32723 3.1004 7.33389C3.13018 7.00687 3.16627 6.68029 3.19978 6.35389C3.2172 6.1834 3.24049 6.01203 3.24974 5.84074C3.25445 5.75611 3.26129 5.68696 3.16867 5.64856C3.08867 5.61549 2.97178 5.62225 2.88689 5.61354C2.68894 5.59336 2.49089 5.57523 2.29285 5.55629C2.00342 5.52883 1.71267 5.50429 1.42325 5.47158C1.96431 5.26989 2.51791 5.1002 3.0548 4.88785C3.18831 4.83514 3.21942 4.80145 3.25516 4.65647C3.31 4.43291 3.35329 4.20642 3.39596 3.98038C3.46209 3.63114 3.5284 3.28145 3.58956 2.93123C3.71898 3.2378 3.86298 3.53976 3.99605 3.84323C4.07738 4.02865 4.15818 4.21443 4.24076 4.39914C4.27231 4.46971 4.30449 4.59994 4.38858 4.62678C4.46271 4.65043 4.58831 4.58971 4.65587 4.57007C4.8532 4.51256 5.05036 4.45425 5.24805 4.39843C5.62591 4.29158 6.01587 4.1706 6.40805 4.10776C6.18218 4.35051 5.91498 4.55585 5.6492 4.75043Z" fill="#F26722"/>
<path d="M7.73032 2.12347C7.71832 1.95129 7.71343 1.14267 7.71192 0.796273C7.71165 0.750139 7.77183 0.732539 7.79689 0.771295L8.51538 1.88889C8.52578 1.90489 8.54489 1.91298 8.56365 1.90916L9.81867 1.64854C9.86116 1.63974 9.89112 1.68889 9.8641 1.72258L9.16898 2.59121C9.15574 2.60765 9.15547 2.63094 9.16809 2.64774L9.95058 3.68667C9.97841 3.72356 9.94072 3.77387 9.89743 3.75752L8.54881 3.24783C8.52738 3.23983 8.50347 3.24827 8.49227 3.26836C8.37547 3.47867 7.76596 4.57494 7.7592 4.55209C7.75263 4.52916 7.68152 3.30765 7.66889 3.08845C7.66774 3.06845 7.65369 3.05156 7.6344 3.04649L6.62054 2.78276C6.57894 2.77192 6.57334 2.71521 6.612 2.69654L7.70427 2.16818C7.72143 2.15992 7.73165 2.14232 7.73032 2.12347Z" fill="#0D2445"/>
<path d="M26.6244 31.2411C26.6696 30.5973 26.7918 29.9512 26.8818 29.3128C27.0141 28.3722 27.1384 27.4294 27.2925 26.4922C27.3333 26.2445 27.3523 25.9787 27.424 25.7372C27.366 25.7372 27.308 25.7372 27.25 25.7372C27.8544 27.3104 28.5998 28.8266 29.2063 30.3989C29.25 30.3653 29.2937 30.3317 29.3375 30.2981C28.1081 29.6669 26.8251 29.1368 25.5768 28.5444C25.349 28.4362 25.1206 28.3282 24.8903 28.2252C24.8748 28.2826 24.8594 28.3398 24.8437 28.3973C26.6133 28.2584 28.3664 27.7711 30.0459 27.2165C30.0107 27.1709 29.9756 27.1253 29.9405 27.0797C29.8709 27.2189 29.7276 27.3461 29.6254 27.4643C29.3852 27.7416 29.142 28.0161 28.8994 28.2913C28.3084 28.9614 27.7159 29.6309 27.1446 30.3182C26.9081 30.6029 26.6703 30.8895 26.4602 31.1945C26.3924 31.2926 26.5524 31.3851 26.6196 31.2877C27.0541 30.6571 27.5799 30.0828 28.0814 29.5058C28.622 28.8837 29.1722 28.2696 29.7127 27.6474C29.8381 27.5031 30.0148 27.347 30.1015 27.1738C30.1356 27.1059 30.0785 27.0097 29.9964 27.0368C28.3335 27.586 26.5956 28.0743 24.8436 28.2127C24.7624 28.2191 24.7053 28.3439 24.797 28.3848C26.0764 28.9559 27.345 29.5524 28.6128 30.149C28.8247 30.2487 29.0391 30.3453 29.2474 30.4525C29.31 30.4846 29.4087 30.4297 29.3786 30.3516C28.7735 28.7786 28.031 27.2613 27.4241 25.6892C27.3932 25.6092 27.277 25.5982 27.2501 25.6892C27.1912 25.8885 27.1728 26.1076 27.1421 26.3123C27.0786 26.7401 27.0167 27.1682 26.9527 27.5958C26.8106 28.5467 26.6787 29.4993 26.5523 30.4525C26.5177 30.714 26.473 30.9777 26.4554 31.2413C26.4481 31.3498 26.6166 31.3491 26.6244 31.2411Z" fill="#F26722"/>
</svg>
