<svg width="32" height="32" viewBox="0 0 32 32" fill="none" xmlns="http://www.w3.org/2000/svg">
<path d="M2.21666 17.5379V15.9379L8.61666 13.1197V14.9606L4.23485 16.7197L4.29394 16.6242V16.8515L4.23485 16.7561L8.61666 18.5152V20.3561L2.21666 17.5379ZM10.5758 21.3333V12.0242H14.2485C14.9515 12.0242 15.5515 12.15 16.0485 12.4015C16.5485 12.65 16.9287 13.003 17.1894 13.4606C17.453 13.9152 17.5849 14.45 17.5849 15.0652C17.5849 15.6833 17.4515 16.2152 17.1849 16.6606C16.9182 17.103 16.5318 17.4425 16.0257 17.6788C15.5228 17.9152 14.9136 18.0333 14.1985 18.0333H11.7394V16.4515H13.8803C14.2561 16.4515 14.5682 16.4 14.8166 16.297C15.0652 16.1939 15.25 16.0394 15.3712 15.8334C15.4955 15.6273 15.5575 15.3712 15.5575 15.0652C15.5575 14.7561 15.4955 14.4955 15.3712 14.2833C15.25 14.0713 15.0637 13.9106 14.8122 13.8015C14.5636 13.6894 14.25 13.6333 13.8713 13.6333H12.5439V21.3333H10.5758ZM15.603 17.097L17.9167 21.3333H15.7439L13.4803 17.097H15.603ZM22.9939 11.5878L19.9939 22.7333H18.3258L21.3258 11.5878H22.9939ZM30.7042 18.4106L24.3042 21.2288V19.3878L28.686 17.6288L28.6269 17.7243V17.497L28.686 17.5924L24.3042 15.8334V13.9924L30.7042 16.8106V18.4106Z" fill="#22B5BF"/>
</svg>
