<svg width="32" height="32" viewBox="0 0 32 32" fill="none" xmlns="http://www.w3.org/2000/svg">
<path fill-rule="evenodd" clip-rule="evenodd" d="M32 16C32 24.8366 24.8365 32 16 32C7.16344 32 0 24.8366 0 16C0 7.16345 7.16344 0 16 0C24.8365 0 32 7.16345 32 16ZM9.5971 22.3302H17.5271C17.6488 22.3302 17.7097 22.1784 17.6488 22.0721L11.2409 14.1335C11.1496 14.0273 10.9974 14.0728 10.9669 14.1942L9.42966 22.1328C9.41443 22.2392 9.49055 22.3302 9.5971 22.3302ZM9.44804 10.3471H17.378C17.4846 10.3471 17.5606 10.4381 17.5455 10.5444L16.0081 18.483C15.9777 18.6045 15.8255 18.65 15.7341 18.5438L9.32626 10.5899C9.25015 10.4989 9.31104 10.3471 9.44804 10.3471ZM18.1843 10.4685C18.1994 10.4078 18.2603 10.3471 18.3364 10.3471H24.0442C24.1355 10.3471 24.2269 10.4381 24.2116 10.5292L23.1462 15.6901C23.131 15.766 23.0701 15.8115 22.994 15.8115H22.8267C20.0108 15.8115 17.7733 13.2158 18.1843 10.4685Z" fill="#3901F1"/>
</svg>
