<svg width="32" height="32" viewBox="0 0 32 32" fill="none" xmlns="http://www.w3.org/2000/svg">
<path d="M16 32C24.8366 32 32 24.8366 32 16C32 7.16344 24.8366 0 16 0C7.16344 0 0 7.16344 0 16C0 24.8366 7.16344 32 16 32Z" fill="#4DBEBD"/>
<path d="M27.6101 24.4332L26.5126 24.8375L27.2635 23.7401C28.7653 21.5451 29.6318 18.8881 29.6318 16C29.574 8.43321 23.509 2.31047 16 2.31047C8.54874 2.31047 2.42599 8.43321 2.42599 16C2.42599 23.5668 8.49098 29.6895 16 29.6895C17.5018 29.6895 19.0036 29.4585 20.3321 28.9964L20.2744 27.2635C18.9458 27.7834 17.5018 28.0722 16 28.0722C9.41516 28.0722 4.10109 22.6426 4.10109 16C4.10109 9.3574 9.41516 3.98556 16.0578 3.98556C22.7004 3.98556 28.0144 9.3574 28.0144 16C28.0144 18.5415 27.2058 20.9097 25.8773 22.8159L25.1841 23.9134L25.1264 22.7004C25.0686 22.4116 24.7798 22.1805 24.491 22.2383C24.2022 22.296 23.9711 22.5848 24.0289 22.8736L24.6643 25.935C24.6643 25.9928 24.722 26.0505 24.7798 26.0505L27.8412 25.4152C28.13 25.3574 28.361 25.0686 28.3032 24.7798C28.1877 24.5487 27.8989 24.3755 27.6101 24.4332Z" fill="white"/>
<path d="M12.9386 20.6787C12.0722 20.6787 11.3791 21.3718 11.3791 22.2383C11.3791 23.1047 12.0722 23.7978 12.9386 23.7978C13.8051 23.7978 14.4982 23.1047 14.4982 22.2383C14.4982 21.3718 13.7473 20.6787 12.9386 20.6787ZM8.25993 8.25993V9.8195H9.8195L12.5921 15.7112L11.4946 17.5596C11.4368 17.7906 11.3213 18.0794 11.3213 18.3105C11.3213 19.1769 12.0144 19.87 12.8809 19.87H22.1805V18.3105H13.2274C13.1697 18.3105 13.0542 18.2527 13.0542 18.1372V18.0794L13.7473 16.7509H19.4657C20.1011 16.7509 20.5632 16.4621 20.7942 16L23.5668 10.9747C23.7401 10.8014 23.7401 10.7437 23.7401 10.5704C23.7401 10.1083 23.4513 9.8195 22.9892 9.8195H11.4946L10.8014 8.25993H8.25993V8.25993ZM20.6787 20.6787C19.8123 20.6787 19.1191 21.3718 19.1191 22.2383C19.1191 23.1047 19.8123 23.7978 20.6787 23.7978C21.5451 23.7978 22.2383 23.1047 22.2383 22.2383C22.2383 21.3718 21.5451 20.6787 20.6787 20.6787Z" fill="white"/>
<path d="M18.426 13.9783C18.426 14.2671 18.3105 14.4404 18.1372 14.6137C17.9639 14.787 17.6751 14.9025 17.3285 14.9025V15.4801H16.9819V14.9025C16.5199 14.9025 16.1733 14.8448 15.8845 14.6715V14.0939C16.0578 14.1516 16.231 14.2094 16.4043 14.2671C16.6354 14.3249 16.8087 14.3249 16.9819 14.3249V13.2852L16.7509 13.2274C16.4621 13.1119 16.231 12.9964 16.1155 12.8231C16 12.6498 15.8845 12.4765 15.8845 12.2455C15.8845 12.0144 16 11.7834 16.1733 11.6101C16.3466 11.4368 16.6354 11.3791 16.9819 11.3213V10.8592H17.3285V11.3213C17.6751 11.3213 18.0217 11.4368 18.3682 11.5523L18.1949 12.0722C17.9061 11.9567 17.6173 11.8989 17.3285 11.8989V12.8809L17.5596 12.9386C17.9061 13.0542 18.1372 13.2274 18.2527 13.343C18.3682 13.574 18.426 13.7473 18.426 13.9783ZM16.5199 12.3033C16.5199 12.4188 16.5776 12.4765 16.6354 12.5343C16.6931 12.5921 16.8087 12.6498 16.9819 12.7653V11.8989C16.8087 11.8989 16.7509 11.9567 16.6354 12.0144C16.5199 12.0722 16.5199 12.2455 16.5199 12.3033ZM17.7906 13.9783C17.7906 13.8628 17.7329 13.8051 17.6751 13.7473C17.6173 13.6895 17.5018 13.6318 17.3285 13.574V14.4404C17.6173 14.3827 17.7906 14.2094 17.7906 13.9783Z" fill="#4DBEBD"/>
</svg>
