<svg width="32" height="32" viewBox="0 0 32 32" fill="none" xmlns="http://www.w3.org/2000/svg">
<path d="M31.9944 19.1098C31.9944 21.0698 31.1811 22.9498 29.7277 24.2831C29.6344 24.3765 29.4877 24.3765 29.3944 24.2831C28.8611 23.7765 28.2344 23.3765 27.5544 23.0965C27.1411 22.9365 26.4744 22.8431 26.4744 22.2565C26.4744 22.1365 26.5144 22.0165 26.5677 21.9098C26.5811 21.8965 26.5811 21.8831 26.5944 21.8698C27.1411 21.0565 27.5011 20.1365 27.6477 19.1631V19.1498C27.6877 18.8965 27.7144 18.6431 27.7144 18.3765V18.3898C27.6611 16.9365 26.4344 15.8031 24.9811 15.8565C23.6077 15.9098 22.5011 17.0165 22.4477 18.3898C22.4611 18.6431 22.4744 18.8965 22.5144 19.1631V19.1765C22.6611 20.1498 23.0211 21.0698 23.5677 21.8831C23.5811 21.8965 23.5811 21.9098 23.5944 21.9231C23.6611 22.0298 23.6877 22.1365 23.6877 22.2698C23.6877 22.8298 23.0744 22.9098 22.6744 23.0698C22.5544 23.1231 22.4877 23.2698 22.5411 23.3898C22.5544 23.4165 22.5677 23.4431 22.5811 23.4565C22.7411 23.6431 22.9011 23.8431 23.0611 24.0431C23.5144 24.6431 23.9144 25.2965 24.2344 25.9898L24.2477 26.0031C24.2611 26.0165 24.2611 26.0298 24.2611 26.0431L24.2744 26.0698C24.2744 26.0831 24.2744 26.0965 24.2744 26.1231C24.2744 26.2431 24.1944 26.3365 24.0877 26.3631C24.0744 26.3631 24.0611 26.3631 24.0344 26.3631C23.9677 26.3631 23.9144 26.3365 23.8744 26.2965C22.4611 24.7898 20.8877 23.5898 18.8877 23.0031C18.8477 22.9898 18.7944 22.9631 18.7544 22.9365C18.7277 22.9231 18.7011 22.9098 18.6744 22.8831C18.2077 22.5631 18.1277 21.9765 18.3811 21.4965C18.7411 20.8031 19.1811 20.1765 19.4744 19.4431C20.2344 17.5631 20.7011 15.2431 19.4344 13.4698C18.0877 11.5631 15.4611 11.1098 13.5544 12.4565C13.5277 12.4698 13.5144 12.4831 13.4877 12.5098C13.1277 12.7765 12.8077 13.1098 12.5411 13.4698C11.2744 15.2431 11.7411 17.5631 12.5011 19.4431C12.7944 20.1765 13.2344 20.8031 13.5944 21.4965C13.8477 21.9765 13.7677 22.5631 13.3011 22.8831L13.2211 22.9365C13.1811 22.9631 13.1277 22.9765 13.0877 23.0031C11.0877 23.5898 9.5144 24.7898 8.10106 26.2965C8.06106 26.3365 7.9944 26.3631 7.92773 26.3631C7.9144 26.3631 7.90106 26.3631 7.8744 26.3631C7.76773 26.3365 7.68773 26.2431 7.68773 26.1231C7.68773 26.1098 7.68773 26.0965 7.68773 26.0698C7.68773 26.0565 7.68773 26.0565 7.70106 26.0431C7.70106 26.0298 7.7144 26.0165 7.7144 26.0031L7.72773 25.9898C8.04773 25.2965 8.4344 24.6431 8.90106 24.0431C9.04773 23.8431 9.20773 23.6431 9.38106 23.4565C9.4744 23.3631 9.46106 23.2031 9.36773 23.1231C9.34106 23.1098 9.32773 23.0831 9.30106 23.0831C8.90106 22.9231 8.28773 22.8431 8.28773 22.2831C8.28773 22.1631 8.32773 22.0431 8.38106 21.9365C8.3944 21.9231 8.3944 21.9098 8.40773 21.8965C8.9544 21.0831 9.3144 20.1631 9.46106 19.1898V19.1765C9.50106 18.9231 9.52773 18.6698 9.52773 18.4031V18.3898C9.4744 16.9365 8.26106 15.8031 6.80773 15.8565C5.4344 15.9098 4.32773 17.0165 4.2744 18.3898C4.28773 18.6431 4.30106 18.8965 4.34106 19.1631V19.1765C4.48773 20.1498 4.84773 21.0698 5.3944 21.8831C5.40773 21.8965 5.40773 21.9098 5.42106 21.9231C5.48773 22.0298 5.5144 22.1365 5.5144 22.2698C5.5144 22.8565 4.8344 22.9498 4.4344 23.1098C3.7544 23.3898 3.12773 23.7898 2.5944 24.2965C2.50106 24.3898 2.3544 24.3898 2.26106 24.2965C-0.565602 21.6831 -0.765602 17.2831 1.7944 14.4165C2.92773 13.1498 4.48773 12.3498 6.18106 12.1631C6.2744 12.1498 6.34106 12.0965 6.38106 12.0165C8.6744 6.62981 14.8344 4.14981 20.1411 6.46981C22.5944 7.54981 24.5544 9.53648 25.5944 12.0165C25.6344 12.0965 25.7011 12.1498 25.7944 12.1631C29.3277 12.5231 31.9944 15.5231 31.9944 19.1098Z" fill="#1999E3"/>
</svg>
