<svg width="110" height="110" viewBox="0 0 110 110" fill="none" xmlns="http://www.w3.org/2000/svg">
<g clip-path="url(#clip0_16:484)">
<path fill-rule="evenodd" clip-rule="evenodd" d="M69.4624 5.15502L72.2024 6.25502C72.3973 6.33293 72.5644 6.46746 72.6821 6.64125C72.7998 6.81505 72.8627 7.02012 72.8627 7.23001C72.8627 7.43991 72.7998 7.64499 72.6821 7.81879C72.5644 7.99258 72.3973 8.12711 72.2024 8.20502C63.4924 11.705 35.5424 23.415 21.6524 28.725C21.276 28.8985 20.8648 28.9832 20.4505 28.9728C20.0361 28.9624 19.6297 28.8571 19.2624 28.665C15.5624 26.845 8.38243 23.185 4.85243 21.475C4.66695 21.3856 4.51186 21.2436 4.40644 21.0668C4.30103 20.8899 4.24994 20.6859 4.25953 20.4803C4.26912 20.2746 4.33898 20.0763 4.4604 19.91C4.58182 19.7437 4.74943 19.6168 4.94242 19.545C13.1724 16.485 52.1324 1.71501 56.5224 0.0750135C56.7659 -0.0250045 57.039 -0.0250045 57.2825 0.0750135C58.9625 0.785013 65.9124 3.70502 69.4624 5.15502Z" fill="#3BAFF0"/>
<path fill-rule="evenodd" clip-rule="evenodd" d="M53.3724 109.415C53.2136 109.485 53.0393 109.513 52.8666 109.495C52.6939 109.477 52.5288 109.415 52.3876 109.314C52.2463 109.213 52.1338 109.077 52.061 108.92C51.9882 108.762 51.9577 108.588 51.9725 108.415C51.9725 100.765 51.9725 65.7552 51.9725 47.5652C51.9313 47.2108 52.0186 46.8534 52.2187 46.5579C52.4187 46.2625 52.7181 46.0486 53.0624 45.9552C68.7524 39.2752 98.8324 26.4152 105.832 23.4852C105.995 23.4168 106.173 23.3902 106.348 23.4079C106.524 23.4255 106.693 23.4868 106.839 23.5862C106.985 23.6855 107.104 23.8198 107.185 23.9768C107.266 24.1338 107.306 24.3086 107.302 24.4852C107.302 32.5852 107.302 69.3852 107.302 88.4852C107.362 88.8381 107.285 89.2007 107.086 89.4983C106.887 89.7959 106.582 90.0059 106.232 90.0852C90.4724 95.8052 60.2324 106.915 53.3724 109.415Z" fill="#0879C3"/>
<path fill-rule="evenodd" clip-rule="evenodd" d="M2.06245 24.885C2.04941 24.7027 2.0866 24.5203 2.17 24.3576C2.2534 24.1949 2.3798 24.0581 2.53547 23.9622C2.69115 23.8664 2.87014 23.815 3.05296 23.8137C3.23579 23.8125 3.41544 23.8613 3.57243 23.9551C8.20243 26.2851 17.0024 30.725 18.5724 31.525C18.8479 31.6373 19.0786 31.8373 19.2287 32.0941C19.3787 32.3508 19.4398 32.65 19.4024 32.9451C19.4024 40.0451 19.4024 47.1351 19.4024 54.2351V55.635L21.4024 54.2951C22.1324 55.2951 22.8124 56.2951 23.5824 57.4451C24.0524 56.5951 24.4725 55.8451 24.9725 54.9251L26.3224 58.2151L27.8924 57.1251L30.3624 59.1251V38.885C30.3543 38.7049 30.3928 38.5258 30.474 38.3648C30.5552 38.2039 30.6765 38.0665 30.8262 37.9661C30.9759 37.8656 31.149 37.8054 31.3287 37.7912C31.5085 37.777 31.6888 37.8093 31.8524 37.885C35.3424 39.495 44.0725 43.5951 48.7525 45.7951C49.0086 45.8795 49.2288 46.0478 49.3776 46.2728C49.5263 46.4978 49.595 46.7663 49.5724 47.0351C49.5724 65.4351 49.5724 100.465 49.5724 108.285C49.5935 108.466 49.5647 108.649 49.4893 108.815C49.4138 108.981 49.2945 109.123 49.1442 109.226C48.994 109.329 48.8184 109.389 48.6366 109.399C48.4548 109.409 48.2735 109.37 48.1124 109.285L2.63243 90.1151C2.43478 90.0369 2.26716 89.8979 2.15388 89.7181C2.0406 89.5383 1.98758 89.3271 2.00245 89.1151C2.00245 82.6851 2.04245 32.615 2.06245 24.885Z" fill="#0A91DD"/>
<path fill-rule="evenodd" clip-rule="evenodd" d="M105.732 19.7751C105.88 19.8332 106.007 19.9344 106.096 20.0655C106.185 20.1966 106.233 20.3515 106.233 20.5101C106.233 20.6687 106.185 20.8236 106.096 20.9547C106.007 21.0858 105.88 21.1869 105.732 21.2451L99.4224 23.8751C83.5424 30.4751 67.6591 37.0651 51.7724 43.6451C51.3182 43.8375 50.809 43.8553 50.3424 43.6951C45.1824 41.2451 35.8824 36.7651 31.7424 34.6951C31.5404 34.6257 31.3658 34.4933 31.2444 34.3175C31.123 34.1416 31.0612 33.9315 31.0679 33.7179C31.0746 33.5044 31.1495 33.2986 31.2817 33.1307C31.4139 32.9628 31.5964 32.8417 31.8024 32.7851L37.2324 30.5151C52.5658 24.1417 67.8991 17.7751 83.2324 11.4151C83.7139 11.1885 84.2617 11.1458 84.7724 11.2951C90.6824 13.6751 101.502 18.0451 105.732 19.7751Z" fill="#3BAFF0"/>
</g>
<defs>
<clipPath id="clip0_16:484">
<rect width="109.5" height="109.5" fill="white"/>
</clipPath>
</defs>
</svg>
