<?xml version="1.0" encoding="UTF-8" standalone="no"?>
<svg
   xmlns:dc="http://purl.org/dc/elements/1.1/"
   xmlns:cc="http://creativecommons.org/ns#"
   xmlns:rdf="http://www.w3.org/1999/02/22-rdf-syntax-ns#"
   xmlns:svg="http://www.w3.org/2000/svg"
   xmlns="http://www.w3.org/2000/svg"
   height="144"
   width="190.35001"
   version="1.1"
   viewBox="0 0 190.35001 144"
   data-name="Layer 1"
   id="Layer_1">
  <metadata
     id="metadata33">
    <rdf:RDF>
      <cc:Work
         rdf:about="">
        <dc:format>image/svg+xml</dc:format>
        <dc:type
           rdf:resource="http://purl.org/dc/dcmitype/StillImage" />
        <dc:title>RedHat Logo</dc:title>
      </cc:Work>
    </rdf:RDF>
  </metadata>
  <defs
     id="defs20">
    <style
       id="style18">.cls-1{fill:#e00;}.cls-2{fill:#fff;}</style>
  </defs>
  <title
     id="title22">RedHat Logo</title>
  <path
     style="fill:#ee0000"
     id="path24"
     d="m 126.97,82.99 c 12.51,0 30.61,-2.58 30.61,-17.46 a 14,14 0 0 0 -0.31,-3.42 L 149.82,29.75 C 148.1,22.63 146.59,19.4 134.09,13.15 124.39,8.19 103.26,0 97.01,0 91.19,0 89.5,7.5 82.56,7.5 75.88,7.5 70.92,1.9 64.67,1.9 c -6,0 -9.91,4.09 -12.93,12.5 0,0 -8.41,23.72 -9.49,27.16 a 6.43,6.43 0 0 0 -0.22,1.94 c 0,9.22 36.3,39.45 84.94,39.45 M 159.5,71.57 c 1.73,8.19 1.73,9.05 1.73,10.13 0,14 -15.74,21.77 -36.43,21.77 C 78.04,103.5 37.08,76.1 37.08,57.99 a 18.45,18.45 0 0 1 1.51,-7.33 C 21.77,51.5 0,54.5 0,73.72 0,105.2 74.59,144 133.65,144 c 45.28,0 56.7,-20.48 56.7,-36.65 0,-12.72 -11,-27.16 -30.83,-35.78"
     class="cls-1" />
  <path
     id="path26"
     d="m 159.5,71.57 c 1.73,8.19 1.73,9.05 1.73,10.13 0,14 -15.74,21.77 -36.43,21.77 C 78.04,103.5 37.08,76.1 37.08,57.99 a 18.45,18.45 0 0 1 1.51,-7.33 l 3.66,-9.06 a 6.43,6.43 0 0 0 -0.22,1.9 c 0,9.22 36.3,39.45 84.94,39.45 12.51,0 30.61,-2.58 30.61,-17.46 a 14,14 0 0 0 -0.31,-3.42 z" />
</svg>
