<svg xmlns="http://www.w3.org/2000/svg" width="373" height="320">
  <path d="M.25 201.995s-.658 34.043.036 38.645c.694 4.603 7.804 9.065 19.401 13.899 23.196 9.666 128.438 53.125 144.688 60.294 16.25 7.167 25.788 6.373 38.75.61 12.96-5.765 109.062-49.063 146.875-65.315 15.72-6.758 22.016-11.615 22.397-15.607.539-5.607-.124-36.81-.124-36.81L.251 201.994z" fill="#9d1f08" />
  <path d="M156.875 135.75c-38.281 14.66-109.375 41.875-137.5 52.656-28.125 10.781-22.884 18.968.313 28.633 23.196 9.666 128.437 53.125 144.687 60.294 16.25 7.167 25.789 6.373 38.75.61 12.961-5.764 109.063-49.063 146.875-65.315 37.813-16.253 21.089-21.518-1.25-30.16-22.339-8.64-104.034-40.618-136.25-52.655-18.75-7.005-17.344-8.723-55.625 5.937" fill="#d03017" />
  <path d="M.25 140.746s-.658 34.042.036 38.645c.694 4.601 7.804 9.064 19.401 13.899 23.196 9.665 128.438 53.125 144.688 60.292 16.25 7.168 25.788 6.375 38.75.61 12.96-5.764 109.062-49.063 146.875-65.315 15.72-6.757 22.016-11.615 22.397-15.605.539-5.607-.124-36.811-.124-36.811L.251 140.746z" fill="#9d1f08" />
  <path d="M156.875 74.5c-38.281 14.66-109.375 41.875-137.5 52.656-28.125 10.781-22.884 18.966.313 28.633 23.196 9.666 128.437 53.125 144.687 60.294 16.25 7.167 25.789 6.373 38.75.61 12.961-5.764 109.063-49.063 146.875-65.316 37.813-16.252 21.089-21.517-1.25-30.158-22.339-8.64-104.034-40.619-136.25-52.656-18.75-7.006-17.344-8.723-55.625 5.937" fill="#d03017" />
  <path d="M.25 78.246s-.658 34.042.036 38.645c.694 4.602 7.804 9.065 19.401 13.898 23.196 9.667 128.438 53.126 144.688 60.293 16.25 7.168 25.788 6.375 38.75.61 12.96-5.764 109.062-49.063 146.875-65.315 15.72-6.756 22.016-11.615 22.397-15.605.539-5.607-.124-36.811-.124-36.811L.251 78.246z" fill="#9d1f08" />
  <path d="M156.875 12C118.594 26.66 47.5 53.875 19.375 64.656-8.75 75.437-3.509 83.622 19.688 93.29c23.196 9.666 128.437 53.125 144.687 60.293 16.25 7.168 25.789 6.374 38.75.61C216.086 148.43 312.188 105.13 350 88.877c37.813-16.252 21.089-21.517-1.25-30.158C326.411 50.079 244.716 18.1 212.5 6.062 193.75-.941 195.156-2.66 156.875 12" fill="#d03017" />
  <path d="M156.25 76.375c0 9.838-20.706 17.813-46.25 17.813s-46.25-7.976-46.25-17.813c0-9.838 20.706-17.813 46.25-17.813s46.25 7.976 46.25 17.813M133.438 108.563l59.687 24.687 27.188-39.063-86.875 14.376zM174.063 36.375L146.25 46.688l37.188 2.812 11.875 20.313 7.5-18.126 31.875-3.124-25-9.376 7.187-16.25-24.688 8.125-26.25-10 8.125 15.313z" fill="#ffffff" />
  <path d="M272.723 94.51l51.652-20.323-51.563-20" fill="#751200" />
  <path d="M272.813 54.188l-55.625 22.187 50 20.313 5.536-2.178" fill="#9d1f08" />
</svg>
