<svg width="32" height="32" viewBox="0 0 32 32" fill="none" xmlns="http://www.w3.org/2000/svg">
<path d="M8.87198 8.19929C6.74834 8.98474 4.36289 12.0975 2.90834 16.0102C2.07925 18.2066 1.09016 23.0502 1.35198 23.5593C1.67198 24.1411 2.58834 24.0102 2.73379 23.3557C2.77743 23.1811 2.98107 22.1193 3.1847 20.9993C3.59198 18.7157 4.40652 16.112 5.20652 14.512C6.7047 11.5302 8.84289 9.34838 9.99198 9.63929C11.1265 9.91565 10.5738 13.5375 9.07561 15.6902C8.47925 16.5484 8.47925 16.5484 7.21379 16.2575C6.21016 16.0393 5.45379 16.3738 5.14834 17.1738C4.66834 18.4538 5.99198 19.4284 7.62107 18.992C7.99925 18.8902 7.99925 18.9047 8.10107 19.8938C8.20289 21.0866 8.52289 22.032 8.95925 22.4975C10.1374 23.7629 12.2029 23.7338 14.8647 22.3811L15.9702 21.8284L16.4065 22.192C17.5992 23.1666 19.2574 23.6466 20.9156 23.4866C21.4683 23.4284 22.8211 23.1811 23.8974 22.9338C26.0065 22.4393 28.1011 22.3375 29.4247 22.6429C30.2102 22.832 30.7338 22.5847 30.7338 22.0175C30.7338 21.4502 30.3847 21.2611 29.032 21.072C27.3592 20.8247 25.7156 20.9557 23.3883 21.4938C20.552 22.1629 18.9956 22.1047 17.7592 21.2902L17.192 20.912L17.992 20.0975C19.7665 18.2793 20.5811 15.5011 19.8392 13.8429C19.5192 13.1593 19.1411 12.8975 18.4283 12.8975C17.4392 12.8975 16.0429 14.1775 15.272 15.8357C14.7192 16.9993 14.5738 18.7157 14.9229 19.7484C15.0538 20.112 15.1265 20.4466 15.0829 20.5193C14.952 20.7229 13.3956 21.4647 12.5665 21.712C11.1702 22.1193 10.3265 21.9593 9.91925 21.1884C9.83198 21.0138 9.67198 20.1847 9.57016 19.3411L9.38107 17.7993L10.0356 16.9266C10.8792 15.8211 11.4465 14.6138 11.8247 13.1593C12.4792 10.5847 11.9702 8.70838 10.472 8.14111C9.94834 7.93747 9.55561 7.95202 8.87198 8.19929ZM18.5156 15.3266C18.5156 16.5338 18.1374 17.552 17.2647 18.6575C16.4502 19.6902 16.2611 19.6029 16.2756 18.192C16.2902 16.9702 16.6538 16.0975 17.5847 15.1084C17.9629 14.7157 18.3265 14.3811 18.3847 14.3811C18.4574 14.3811 18.5156 14.8029 18.5156 15.3266Z" fill="black"/>
</svg>
