<svg width="32" height="32" viewBox="0 0 32 32" fill="none" xmlns="http://www.w3.org/2000/svg">
<path fill-rule="evenodd" clip-rule="evenodd" d="M10.0688 5.19907L15.8279 9.15019C15.9574 9.23719 16.1093 9.28503 16.2653 9.28796C16.4215 9.28654 16.5738 9.23857 16.7026 9.15019L22.4662 5.18574C22.5767 5.10604 22.6649 4.99914 22.7221 4.87539C22.7792 4.75164 22.8035 4.61523 22.7925 4.47936C22.7815 4.34348 22.7356 4.21275 22.6593 4.0998C22.583 3.98685 22.4788 3.89552 22.3568 3.83463L16.5977 0.968853C16.49 0.916236 16.3718 0.888885 16.2519 0.888885C16.1321 0.888885 16.0138 0.916236 15.9062 0.968853L10.1639 3.83463C10.0396 3.89565 9.93356 3.98823 9.85626 4.1031C9.77896 4.21797 9.73316 4.35112 9.72344 4.48924C9.71373 4.62735 9.74043 4.7656 9.80088 4.89017C9.86133 5.01473 9.95342 5.12125 10.0679 5.19907H10.0688ZM18.2217 10.3902C18.2216 10.5189 18.2526 10.6458 18.312 10.76C18.3715 10.8742 18.4576 10.9724 18.563 11.0462L23.1799 14.2177C23.3232 14.3172 23.4959 14.3652 23.6699 14.3539C23.8439 14.3426 24.009 14.2726 24.1382 14.1555L28.011 10.6737C28.0966 10.5968 28.1643 10.5021 28.2096 10.3963C28.2549 10.2905 28.2766 10.1761 28.2732 10.0611C28.2698 9.94603 28.2414 9.83312 28.19 9.73016C28.1386 9.62721 28.0654 9.53667 27.9755 9.46485L24.2777 6.49241C24.1473 6.38807 23.9869 6.32831 23.82 6.32191C23.6531 6.31551 23.4886 6.36281 23.3506 6.45685L18.563 9.74841C18.4594 9.82092 18.3744 9.91697 18.3151 10.0287C18.2557 10.1404 18.2237 10.2646 18.2217 10.3911V10.3902ZM6.73816 14.7049C6.92482 14.8737 7.02082 15.1226 6.99593 15.3742C6.98434 15.4986 6.94288 15.6183 6.8751 15.7232C6.80732 15.8281 6.71521 15.9152 6.6066 15.9769L3.85016 17.6382C3.57016 17.8053 3.21727 17.7813 2.96304 17.5769C2.70882 17.3724 2.60482 17.0302 2.70349 16.7164L3.72304 13.4915C3.76181 13.3664 3.83135 13.2529 3.9253 13.1616C4.01925 13.0703 4.13462 13.004 4.26082 12.9689C4.38656 12.932 4.51973 12.9285 4.64722 12.9588C4.77471 12.989 4.89213 13.0519 4.98793 13.1413L6.73816 14.7049ZM21.6919 15.0426L16.707 11.6133C16.578 11.5258 16.4256 11.4791 16.2697 11.4791C16.1138 11.4791 15.9615 11.5258 15.8324 11.6133L10.8475 15.0417C10.7493 15.1104 10.6677 15.2002 10.6086 15.3045C10.5496 15.4087 10.5146 15.5249 10.5062 15.6444C10.4996 15.7649 10.5197 15.8854 10.565 15.9973C10.6103 16.1091 10.6798 16.2096 10.7684 16.2915L15.7488 20.7697C15.8917 20.8986 16.0773 20.9699 16.2697 20.9699C16.4621 20.9699 16.6477 20.8986 16.7906 20.7697L21.7702 16.2906C21.8589 16.2092 21.9282 16.1088 21.9728 15.9969C22.0174 15.8851 22.0363 15.7646 22.0279 15.6444C22.0215 15.525 21.9879 15.4087 21.9296 15.3042C21.8714 15.1998 21.7901 15.11 21.6919 15.0417V15.0426ZM8.39682 14.1555L4.52749 10.6737C4.44124 10.5948 4.37307 10.4982 4.32765 10.3905C4.28224 10.2828 4.26065 10.1666 4.26438 10.0497C4.26622 9.93458 4.29346 9.82125 4.34417 9.71784C4.39487 9.61443 4.46779 9.52349 4.55771 9.45152L8.25549 6.4613C8.3869 6.3569 8.54818 6.29716 8.71589 6.29077C8.88359 6.28437 9.04896 6.33166 9.18793 6.42574L13.971 9.7173C14.1933 9.86396 14.3266 10.1137 14.3266 10.3822C14.3266 10.6506 14.1933 10.8995 13.971 11.0462L9.3586 14.2177C9.06082 14.4222 8.66527 14.3955 8.39593 14.1555H8.39682ZM28.2608 19.1573L24.3222 16.7875C24.1799 16.7012 24.0135 16.6633 23.8478 16.6793C23.6822 16.6953 23.5262 16.7645 23.403 16.8764L18.5888 21.1946C18.489 21.2848 18.4136 21.3987 18.3696 21.5258C18.3256 21.6529 18.3145 21.7891 18.3372 21.9217C18.3599 22.0542 18.4157 22.1789 18.4995 22.2841C18.5833 22.3894 18.6923 22.4717 18.8164 22.5235L25.4946 25.2435C25.6831 25.3185 25.8933 25.3174 26.081 25.2404C26.2687 25.1635 26.4192 25.0168 26.5008 24.8311L28.5719 20.1715C28.6533 19.9937 28.6666 19.7922 28.6092 19.6052C28.5519 19.4183 28.4279 19.2589 28.2608 19.1573V19.1573ZM28.8075 13.4915L29.827 16.7164H29.8182C29.8553 16.8353 29.8643 16.9613 29.8442 17.0843C29.8241 17.2073 29.7757 17.3239 29.7026 17.4249C29.5885 17.5829 29.4194 17.6924 29.2285 17.7319C29.0376 17.7714 28.8389 17.738 28.6715 17.6382L25.9106 15.976C25.8042 15.9132 25.7144 15.8257 25.6488 15.721C25.5832 15.6163 25.5438 15.4973 25.5337 15.3742C25.5208 15.2502 25.5374 15.1249 25.5822 15.0085C25.627 14.8922 25.6987 14.7881 25.7915 14.7049L27.5426 13.1369C27.7408 12.9591 28.0137 12.8942 28.2688 12.9644C28.3952 13.001 28.5105 13.0682 28.6045 13.1602C28.6984 13.2522 28.7682 13.366 28.8075 13.4915V13.4915ZM14.1986 21.9209C14.2219 21.7886 14.2113 21.6527 14.1678 21.5257C14.1243 21.3986 14.0492 21.2848 13.9497 21.1946L9.13638 16.8755C9.01325 16.7636 8.85723 16.6944 8.69159 16.6784C8.52595 16.6624 8.35957 16.7003 8.21727 16.7866L4.27949 19.1573C4.11413 19.2594 3.99117 19.4178 3.9332 19.6033C3.87523 19.7888 3.88614 19.989 3.96393 20.1671L6.03771 24.8275C6.11882 25.0139 6.26948 25.1612 6.4576 25.238C6.64572 25.3149 6.85643 25.3153 7.04482 25.2391L13.7186 22.5191C13.8428 22.4684 13.9521 22.3871 14.0363 22.2826C14.1204 22.1781 14.1766 22.0539 14.1995 21.9217L14.1986 21.9209ZM16.5622 23.2497L21.9186 25.4293C22.0477 25.4854 22.1596 25.5749 22.2425 25.6887C22.3255 25.8025 22.3766 25.9363 22.3906 26.0764C22.4075 26.2182 22.3854 26.362 22.3269 26.4923C22.2683 26.6225 22.1754 26.7344 22.0582 26.816L16.6982 30.5591C16.57 30.65 16.4171 30.6996 16.2599 30.7013C16.1032 30.6986 15.9509 30.649 15.8226 30.5591L10.4662 26.8169C10.3483 26.7357 10.2547 26.6241 10.1952 26.494C10.1357 26.3639 10.1125 26.2201 10.1282 26.0778C10.1439 25.9356 10.1978 25.8003 10.2842 25.6863C10.3707 25.5722 10.4864 25.4837 10.619 25.4302L15.9755 23.2506C16.1637 23.1751 16.3739 23.1751 16.5622 23.2506V23.2497Z" fill="#BF4722"/>
</svg>
