<svg width="32" height="32" viewBox="0 0 32 32" fill="none" xmlns="http://www.w3.org/2000/svg">
<path d="M16.6957 16C25.148 16 32 9.14801 32 0.695655C32 0.311455 31.6886 2.14853e-06 31.3043 2.09815e-06L15.3043 0C6.852 -1.10839e-06 1.10839e-06 6.85198 0 15.3043C-5.03814e-08 15.6885 0.311453 16 0.695651 16H16.6957Z" fill="#FDDB60"/>
<path d="M16 16.6957C16 25.148 9.148 32 0.695652 32C0.311454 32 -3.35876e-08 31.6886 0 31.3043L1.39876e-06 15.3043C2.1377e-06 6.85198 6.85199 -7.38927e-07 15.3043 0C15.6886 3.35877e-08 16 0.311456 16 0.695653V16.6957Z" fill="#5B25B3"/>
<path fill-rule="evenodd" clip-rule="evenodd" d="M16 0V16H0L6.50588e-08 15.2558C8.01337e-07 6.83376 6.82457 0.00568296 15.2453 3.48057e-06L16 0Z" fill="#17B086"/>
</svg>
