<svg width="32" height="32" viewBox="0 0 32 32" fill="none" xmlns="http://www.w3.org/2000/svg">
<path d="M9.70923 2.18176H21.2415C24.9971 2.18176 28.0417 5.22628 28.0417 8.98187V20.5142C28.0417 24.2698 24.9971 27.3143 21.2415 27.3143H9.70923C5.95363 27.3143 2.90912 24.2698 2.90912 20.5142V8.98187C2.90912 5.22628 5.95363 2.18176 9.70923 2.18176Z" fill="white"/>
<mask id="mask0" style="mask-type:alpha" maskUnits="userSpaceOnUse" x="2" y="2" width="27" height="26">
<path d="M9.70923 2.18176H21.2415C24.9971 2.18176 28.0417 5.22628 28.0417 8.98187V20.5142C28.0417 24.2698 24.9971 27.3143 21.2415 27.3143H9.70923C5.95363 27.3143 2.90912 24.2698 2.90912 20.5142V8.98187C2.90912 5.22628 5.95363 2.18176 9.70923 2.18176Z" fill="white"/>
</mask>
<g mask="url(#mask0)">
<path d="M3.63132 3.22174C6.07251 -0.152109 10.6127 -1.21014 14.2842 0.739262C11.0689 1.73268 8.98152 4.84638 9.27488 8.21152C9.56825 11.5767 12.1627 14.2788 15.5009 14.6962L15.5798 14.7076C18.8628 12.1614 23.5105 12.4252 26.4869 15.3266C29.4633 18.2281 29.8637 22.8852 27.4264 26.2559C24.9891 29.6266 20.4552 30.6862 16.7862 28.7425C20.0015 27.7489 22.0888 24.635 21.7951 21.2698C21.5015 17.9046 18.9067 15.2026 15.5683 14.7856L15.4906 14.7753C12.2061 17.3276 7.55249 17.0664 4.5717 14.1624L4.63119 14.2196C3.46161 12.9982 2.87682 11.5335 2.87682 9.82555L2.87662 11.8132C1.56206 9.09729 1.77525 5.78692 3.63132 3.22174Z" fill="#FF27B4"/>
</g>
<path d="M26.4526 15.3804C26.4081 15.4108 28.0335 17.3612 28.0281 19.3637C28.0227 21.3662 28.0525 20.4616 28.0579 22.0391C28.0633 23.6167 28.0525 27.2062 30.4958 29.6603C30.4958 29.6603 26.9793 28.076 24.9548 27.7674C23.7904 27.5824 20.5796 27.1985 19.4025 27.2638C19.4025 27.2638 22.1661 25.1758 21.7617 20.9931L26.4526 15.3804Z" fill="#FF27B4"/>
<path d="M24.5178 13.8049C26.8779 15.2605 28.0579 17.2224 28.0579 19.6908C28.0579 22.0934 28.0525 20.9695 28.0416 16.3189L24.5178 13.8049Z" fill="#FF27B4"/>
<path d="M18.2598 3.17652C21.0169 1.69111 24.4632 1.85013 27.1117 3.78246C30.4716 6.23378 31.5253 10.7929 29.584 14.4795C28.7527 11.7769 26.4159 9.81825 23.6191 9.48003C19.7195 9.00735 16.1728 11.7888 15.6847 15.7025L15.6733 15.7805C17.922 18.6976 17.9785 22.6908 15.9602 25.6457C14.5525 27.4214 12.8027 28.3091 10.7109 28.3091L12.9949 28.3093C10.2419 29.7803 6.80844 29.6163 4.16792 27.6897C0.807883 25.2381 -0.245504 20.6786 1.6964 16.9919C2.68571 20.2206 5.78655 22.3166 9.13778 22.022C12.489 21.7274 15.18 19.1223 15.5956 15.7702L15.6059 15.691C13.2802 12.6732 13.3003 8.50426 15.5361 5.52442C16.8607 3.95917 18.5109 3.17661 20.4868 3.17661L18.2598 3.17652Z" fill="#3EF5EE"/>
</svg>
