<svg width="32" height="32" viewBox="0 0 32 32" fill="none" xmlns="http://www.w3.org/2000/svg">
<path fill-rule="evenodd" clip-rule="evenodd" d="M32 10.6329L24.4985 15.4937L28.9614 18.7342C29.5945 19.2068 30.1167 19.6962 30.5282 20.2025C30.9397 20.7089 31.1454 21.2996 31.1454 21.9747C31.1454 21.7046 31.0979 21.7721 31.003 22.1772C30.908 22.5823 30.8289 22.8861 30.7656 23.0886C30.7023 23.4262 30.6548 23.6962 30.6231 23.8987C30.5915 24.1013 30.5757 24.27 30.5757 24.4051C30.3225 24.6751 29.8793 24.8101 29.2463 24.8101C26.7774 24.8101 24.4669 23.7975 22.3145 21.7722L22.1246 24.1013C22.1246 25.1139 23.0742 26.9367 24.9733 29.5696V30.5823C23.2008 31.5274 22.1879 32 21.9347 32C20.8586 32 19.6874 30.9198 18.4214 28.7595V28.8608C17.9149 27.8481 17.361 26.7848 16.7596 25.6709C16.1582 24.557 15.5727 23.5612 15.003 22.6835L10.4451 27.1392C8.79918 28.692 7.40652 29.4684 6.26704 29.4684C5.95052 29.4684 5.53907 29.384 5.03264 29.2152C4.52621 29.0464 3.98812 28.827 3.41839 28.557V26.5316C3.41839 26.4641 5.50739 24.2363 9.68545 19.8481C9.24232 19.308 8.57765 18.7679 7.69139 18.2278C6.80514 17.6878 5.66567 17.3502 4.27298 17.2152C3.19682 17.0127 2.29475 16.8101 1.56675 16.6076C0.838754 16.4051 0.31652 16.1688 0 15.8987C0.569736 13.5359 1.89909 12.0506 3.98812 11.443C4.36794 11.308 5.12757 11.2236 6.26704 11.1899C7.40652 11.1561 8.9258 11.173 10.8249 11.2405C10.7616 10.9705 10.6667 10.7004 10.5401 10.4304C10.4134 10.2278 10.2868 9.99156 10.1602 9.72152C10.0336 9.45148 9.87537 9.18144 9.68545 8.91139C9.49554 8.64135 9.32146 8.32068 9.1632 7.94937C9.00494 7.57806 8.76755 7.22363 8.45103 6.88608C7.37486 5.40084 6.8368 4.38819 6.8368 3.8481C6.8368 2.97046 7.27991 2.10971 8.16616 1.26582C9.05242 0.421937 9.87536 0 10.635 0C11.6479 0 12.8823 1.62024 14.3383 4.86076L17.7567 12.3544L29.2463 4.35443C29.6894 4.35443 30.0851 4.55696 30.4332 4.96202C30.7814 5.36709 31.0821 5.85654 31.3353 6.43038C31.5885 7.00422 31.7626 7.64557 31.8576 8.35443C31.9525 9.06329 32 9.72152 32 10.3291V10.6329Z" fill="#7CDE08"/>
</svg>
