<svg width="32" height="32" viewBox="0 0 32 32" fill="none" xmlns="http://www.w3.org/2000/svg">
<path d="M8.74829 23.0628L1.13741 23.6559L0 12.1664L0.604928 12.1188C0.93824 12.0926 1.18221 11.7849 1.14765 11.4347L1.08902 10.8428C1.05421 10.4924 1.31302 10.1834 1.664 10.1563L5.8624 9.83011C6.21312 9.80247 6.52902 10.0664 6.56358 10.4169L6.62195 11.0085L6.68518 11.6457L8.83686 11.478L16.7944 11.6001L17.589 21.2137L16.1408 22.4875L8.74829 23.0628Z" fill="#C6C5C5"/>
<path d="M11.6858 8.19141L2.19564 13.1284L1.17676 23.6548L10.628 22.9129L15.9423 22.4957L19.3397 22.2289L20.3576 11.703L11.6858 8.19141Z" fill="#066BC6"/>
<path d="M7.24948 19.3805L6.16737 17.6172H5.28698V19.3805H4.23047V14.418H6.55188C7.58586 14.418 8.21844 15.0953 8.21844 16.0177C8.21844 16.8955 7.77479 17.3643 7.23924 17.491L8.46215 19.3805H7.24948ZM7.13991 16.0175C7.13991 15.6009 6.81965 15.348 6.39597 15.348H5.28724V16.6869H6.39597C6.81965 16.6872 7.13991 16.4345 7.13991 16.0175Z" fill="white"/>
<path d="M9.12207 19.3805V14.418H12.6341V15.3483H10.1786V16.3971H12.3684V17.3272H10.1786V18.4507H12.6341V19.3808H9.12207V19.3805Z" fill="white"/>
<path d="M13.2227 16.9028C13.2227 15.3331 14.4131 14.3359 15.8641 14.3359C16.8983 14.3359 17.5457 14.8566 17.9177 15.4449L17.0394 15.9208C16.8166 15.5711 16.3927 15.2734 15.8641 15.2734C14.9635 15.2734 14.3089 15.9654 14.3089 16.9028C14.3089 17.8403 14.9637 18.5323 15.8641 18.5323C16.3031 18.5323 16.7201 18.3385 16.9206 18.1526V17.623H15.6111V16.6876H17.9768V18.54C17.471 19.1052 16.7644 19.4774 15.8641 19.4774C14.4133 19.4772 13.2227 18.4655 13.2227 16.9028Z" fill="white"/>
<path d="M20.5508 18.8604C20.5508 18.5335 20.8262 18.2578 21.1534 18.2578C21.4813 18.2578 21.756 18.533 21.756 18.8604C21.756 19.1879 21.4813 19.4631 21.1534 19.4631C20.8262 19.4633 20.5508 19.1881 20.5508 18.8604Z" fill="black"/>
<path d="M25.6164 19.3805L24.4281 17.6172H23.6542V19.3805H22.5977V14.418H24.9191C25.953 14.418 26.5859 15.0953 26.5859 16.0177C26.5859 16.8955 26.0352 17.3643 25.4997 17.491L26.8291 19.3805H25.6164ZM25.5074 16.0175C25.5074 15.6009 25.1868 15.348 24.7629 15.348H23.6542V16.6869H24.7626C25.1868 16.6872 25.5074 16.4345 25.5074 16.0175Z" fill="black"/>
<path d="M27.3828 17.4014V14.418H28.4544V17.364C28.4544 18.0565 28.7493 18.5324 29.5158 18.5324C30.2818 18.5324 30.5692 18.0565 30.5692 17.364V14.418H31.6488V17.394C31.6488 18.6292 31.0254 19.4701 29.5158 19.4701C28.0049 19.4696 27.3828 18.6217 27.3828 17.4014Z" fill="black"/>
</svg>
