<svg width="161" height="161" viewBox="0 0 161 161" fill="none" xmlns="http://www.w3.org/2000/svg">
<path fill-rule="evenodd" clip-rule="evenodd" d="M143.85 124.16C145.3 142.762 145.3 151.482 145.3 161H102.228C102.228 158.927 102.265 157.03 102.303 155.107C102.42 149.128 102.541 142.894 101.572 130.304C100.291 111.872 92.3473 107.776 77.7419 107.776H64.8021H10V74.24H79.7918C98.2407 74.24 107.465 68.632 107.465 53.784C107.465 40.728 98.2407 32.816 79.7918 32.816H10V0H87.4788C129.245 0 150 19.712 150 51.2C150 74.752 135.395 90.112 115.665 92.672C132.32 96 142.057 105.472 143.85 124.16Z" fill="black"/>
<path d="M10 161V136H55.5416C63.1486 136 64.8003 141.638 64.8003 145V161H10Z" fill="black"/>
</svg>
