<svg width="32" height="32" viewBox="0 0 32 32" fill="none" xmlns="http://www.w3.org/2000/svg">
<g clip-path="url(#clip0_3207_14)">
<path d="M23.0333 31.9546L9.12782 25.6385C8.21915 25.2256 7.44857 24.5599 6.90816 23.7208C6.36775 22.8817 6.08038 21.9048 6.08038 20.9067C6.08038 19.9087 6.36775 18.9317 6.90816 18.0926C7.44857 17.2536 8.21915 16.5879 9.12782 16.175L21.3896 10.6063C21.5708 10.5242 21.7245 10.3916 21.8323 10.2244C21.94 10.0573 21.9973 9.86256 21.9973 9.66365C21.9973 9.46474 21.94 9.27004 21.8323 9.10287C21.7245 8.93569 21.5708 8.80311 21.3896 8.721L11.5547 4.25442C11.397 4.18296 11.224 4.15215 11.0515 4.16482C10.8789 4.17749 10.7122 4.23324 10.5668 4.32696C10.4213 4.42068 10.3016 4.54938 10.2187 4.70129C10.1358 4.8532 10.0924 5.02346 10.0923 5.19652V9.90589H5.93005V5.19652C5.93017 4.32719 6.14835 3.47178 6.56462 2.70859C6.98088 1.9454 7.58194 1.29882 8.31276 0.828047C9.04359 0.35727 9.88082 0.0773355 10.7478 0.0138698C11.6149 -0.0495961 12.4839 0.105435 13.2755 0.46477L23.1105 4.93246C24.0192 5.34509 24.7899 6.0107 25.3303 6.8497C25.8709 7.68872 26.1583 8.66562 26.1583 9.66365C26.1583 10.6617 25.8709 11.6386 25.3303 12.4776C24.7899 13.3166 24.0192 13.9822 23.1105 14.3949L10.8531 19.9646C10.6719 20.0465 10.5181 20.179 10.4103 20.3461C10.3024 20.5132 10.2451 20.7078 10.2451 20.9067C10.2451 21.1056 10.3024 21.3003 10.4103 21.4674C10.5181 21.6345 10.6719 21.7669 10.8531 21.8488L24.7586 28.1649L23.0333 31.9546Z" fill="#234BA2"/>
</g>
<defs>
<clipPath id="clip0_3207_14">
<rect width="32" height="32" fill="white"/>
</clipPath>
</defs>
</svg>
