<svg width="32" height="32" viewBox="0 0 32 32" fill="none" xmlns="http://www.w3.org/2000/svg">
<path d="M9.99787 3.7916C9.20041 4.30191 8.49534 4.94391 7.9127 5.69024V3.85395C7.90849 3.65312 7.85585 3.45626 7.75923 3.28015C7.66262 3.10403 7.52489 2.95388 7.35779 2.84244C7.19068 2.73101 6.99913 2.66161 6.79945 2.64014C6.59977 2.61868 6.39785 2.64577 6.21089 2.71914L3.95428 3.65442C3.73204 3.74999 3.5424 3.90818 3.40846 4.10967C3.27453 4.31117 3.2021 4.54728 3.2 4.78925V27.2361C3.2 27.5619 3.32938 27.8743 3.55968 28.1047C3.78999 28.335 4.10234 28.4644 4.42804 28.4644H6.68465C7.01035 28.4644 7.3227 28.335 7.553 28.1047C7.78331 27.8743 7.9127 27.5619 7.9127 27.2361V12.9293C7.9127 10.4914 9.92619 8.54909 11.8088 7.54522C12.8407 7.00365 13.9844 6.70936 15.1495 6.68555C16.3146 6.66175 17.4693 6.90908 18.5225 7.40805C18.8023 7.53679 19.1199 7.55738 19.4139 7.46586C19.708 7.37432 19.9578 7.17716 20.1152 6.91234L21.524 4.47747C21.6054 4.33277 21.6573 4.17327 21.6762 4.00829C21.6952 3.84331 21.681 3.67621 21.6346 3.51679C21.5882 3.35736 21.5102 3.20882 21.4058 3.07987C21.3011 2.95093 21.1717 2.84419 21.0253 2.76591C17.8617 1.11981 14.1682 1.16657 9.99787 3.7916Z" fill="#083642"/>
<path d="M29.1698 4.98894C29.1705 4.31918 28.9725 3.66427 28.6009 3.10708C28.2293 2.54989 27.7009 2.11545 27.0825 1.85872C26.4641 1.60198 25.7833 1.53449 25.1265 1.66478C24.4697 1.79506 23.8663 2.11727 23.3925 2.59065C22.9188 3.06403 22.5962 3.66731 22.4653 4.32416C22.3345 4.98101 22.4013 5.66192 22.6573 6.28077C22.9135 6.89962 23.3474 7.42858 23.9041 7.80075C24.4607 8.17291 25.1153 8.37157 25.785 8.37157C26.2293 8.37197 26.6693 8.28478 27.0801 8.11496C27.4908 7.94515 27.8639 7.69606 28.1783 7.38192C28.4925 7.06778 28.742 6.69474 28.9121 6.28414C29.0823 5.87354 29.1698 5.43342 29.1698 4.98894Z" fill="#FF9933"/>
<path d="M29.1698 15.2146C29.1698 14.545 28.9714 13.8904 28.5994 13.3336C28.2274 12.7768 27.6988 12.3428 27.0802 12.0866C26.4618 11.8303 25.7812 11.7633 25.1245 11.8939C24.4679 12.0246 23.8648 12.347 23.3914 12.8205C22.9181 13.294 22.5957 13.8973 22.465 14.5541C22.3344 15.2108 22.4015 15.8916 22.6576 16.5102C22.9138 17.1289 23.3477 17.6577 23.9044 18.0297C24.461 18.4017 25.1154 18.6003 25.785 18.6003C26.2295 18.6003 26.6696 18.5128 27.0802 18.3425C27.4909 18.1724 27.864 17.923 28.1784 17.6086C28.4927 17.2943 28.7421 16.921 28.9122 16.5102C29.0823 16.0995 29.1698 15.6592 29.1698 15.2146Z" fill="#009999"/>
<path d="M29.1698 25.4435C29.1705 24.7737 28.9725 24.1188 28.6009 23.5616C28.2293 23.0044 27.7009 22.57 27.0825 22.3132C26.4641 22.0566 25.7833 21.9891 25.1265 22.1193C24.4697 22.2496 23.8663 22.5718 23.3925 23.0452C22.9188 23.5185 22.5962 24.1219 22.4653 24.7787C22.3345 25.4355 22.4013 26.1164 22.6573 26.7353C22.9135 27.3542 23.3474 27.8832 23.9041 28.2553C24.4607 28.6275 25.1153 28.8261 25.785 28.8261C26.6821 28.8261 27.5426 28.4699 28.1773 27.8355C28.8121 27.2012 29.169 26.3409 29.1698 25.4435Z" fill="#083642"/>
</svg>
