<svg width="32" height="32" viewBox="0 0 32 32" fill="none" xmlns="http://www.w3.org/2000/svg">
<path fill-rule="evenodd" clip-rule="evenodd" d="M26.1308 6.05544L24.7193 6.75947C27.471 8.9691 28.8163 11.8232 29.0663 15.2769C28.8573 21.9432 25.6942 26.2278 20.2607 28.0653C13.9832 29.9461 10.0053 28.4243 6.15617 24.5244L5.9137 26.0236L7.47865 27.6451C12.9223 33.2861 21.9476 33.4713 27.6205 28.0583C33.2934 22.6451 33.4797 13.6708 28.0358 8.02954L26.1308 6.05544V6.05544Z" fill="#FEEF7C"/>
<path fill-rule="evenodd" clip-rule="evenodd" d="M5.13938 25.1882L6.08509 24.3669C2.15585 18.8301 1.9912 10.7242 7.36853 6.26161C11.3545 2.95375 19.2636 1.23919 25.5911 6.77903L26.0634 5.9529L24.5215 4.35484C19.0776 -1.28613 10.0526 -1.47136 4.37938 3.94192C-1.29352 9.35491 -1.47952 18.3295 3.96411 23.9704L5.13938 25.1882V25.1882Z" fill="#5CD3CB"/>
<path d="M1.73975 16.0402C1.73975 23.878 8.1305 30.2327 16.0126 30.2327C23.8961 30.2327 30.2866 23.878 30.2866 16.0402C30.2866 8.20107 23.8961 1.84628 16.0126 1.84628C8.1305 1.84628 1.73975 8.20107 1.73975 16.0402V16.0402ZM11.6743 18.6072C11.8243 18.135 11.6574 17.6204 11.2584 17.324C10.202 16.5395 8.11926 14.9928 6.71979 13.9535C6.51778 13.8035 6.43518 13.5417 6.51469 13.3037C6.5942 13.0656 6.81785 12.9053 7.07015 12.9053H12.4944C12.9993 12.9053 13.4471 12.5834 13.6059 12.1071C14.0335 10.8228 14.8834 8.27036 15.447 6.57843C15.5262 6.34068 15.7496 6.17975 16.0016 6.17948C16.2537 6.1792 16.4779 6.33928 16.5577 6.57675C17.1272 8.27008 17.9872 10.8267 18.419 12.1104C18.5789 12.5851 19.0259 12.9053 19.5294 12.9053C20.8125 12.9053 23.2844 12.9053 24.9674 12.9053C25.2189 12.9053 25.4425 13.0651 25.5223 13.3026C25.6021 13.54 25.5206 13.8015 25.3194 13.9521C23.9242 14.9973 21.8403 16.5579 20.7861 17.3474C20.3894 17.6444 20.2245 18.1582 20.3742 18.6287C20.7819 19.9088 21.5995 22.476 22.1519 24.2101C22.2289 24.4524 22.139 24.7167 21.9296 24.8625C21.7203 25.0083 21.4402 25.0025 21.2374 24.8477C19.8356 23.7777 17.7877 22.2145 16.7153 21.3962C16.2936 21.0744 15.7069 21.0752 15.2863 21.3987C14.2243 22.2151 12.2042 23.7684 10.8142 24.8371C10.612 24.9927 10.3313 24.9997 10.1214 24.8538C9.91151 24.7083 9.82104 24.444 9.89803 24.2015C10.4504 22.4623 11.2669 19.8906 11.6743 18.6072V18.6072Z" fill="black"/>
</svg>
