<svg width="95" height="92" viewBox="0 0 95 92" fill="none" xmlns="http://www.w3.org/2000/svg">
<path d="M47.523 91.666C53.8919 91.6754 60.2015 90.442 66.098 88.035C66.235 87.966 66.349 87.921 66.486 87.875C66.509 87.875 66.532 87.875 66.532 87.852C67.3511 87.5491 68.2176 87.3943 69.091 87.395C70.073 87.395 71.01 87.578 71.855 87.944C84.275 91.522 91.672 92.208 94.047 90C96.422 87.792 93.739 82.73 85.998 74.812C85.998 73.602 86.341 72.46 86.889 71.478C87.0611 71.1845 87.2519 70.9022 87.46 70.633C92.235 63.486 95 54.99 95 45.88C95.046 20.53 73.775 0 47.523 0C21.27 0 0 20.53 0 45.833C0 71.159 21.271 91.666 47.523 91.666Z" fill="#1884FF"/>
<path d="M48 73C62.9117 73 75 60.9117 75 46C75 31.0883 62.9117 19 48 19C33.0883 19 21 31.0883 21 46C21 60.9117 33.0883 73 48 73Z" stroke="white" stroke-width="10"/>
<path d="M48 55C52.9706 55 57 50.9706 57 46C57 41.0294 52.9706 37 48 37C43.0294 37 39 41.0294 39 46C39 50.9706 43.0294 55 48 55Z" fill="white"/>
</svg>
