<svg width="32" height="32" viewBox="0 0 32 32" fill="none" xmlns="http://www.w3.org/2000/svg">
<path fill-rule="evenodd" clip-rule="evenodd" d="M29.5286 32H2.4714C1.10743 32 0 30.8907 0 29.5296V2.4704C0 1.10934 1.10315 0 2.4714 0H29.5286C30.8968 0 32 1.10934 32 2.4704V29.5296C32 30.8907 30.8925 32 29.5286 32ZM18.6672 8.58227C19.2127 8.58656 19.6559 8.15094 19.6601 7.60431C19.6601 7.46338 19.6304 7.32245 19.5792 7.20287L19.5835 7.19861C19.0295 6.01138 17.9044 5.1957 16.6046 5.04196C14.5335 4.79855 12.6584 6.28043 12.4155 8.35593C9.38125 9.52605 7.13963 11.8792 6.61971 15.2102C6.54301 15.364 6.49613 16.0558 6.49613 16.2394C6.50039 16.8714 7.01178 17.3839 7.64249 17.3796C8.66105 17.3796 8.83574 16.4017 8.83574 16.4017C9.12552 13.9119 10.664 11.7425 12.9141 10.6493C12.9268 10.6748 12.9397 10.6962 12.9524 10.7175C14.0604 12.494 16.3915 13.0322 18.1643 11.9218L18.1558 11.9005L18.1814 11.8877C18.6715 11.6614 18.8845 11.0763 18.6587 10.5851C18.4328 10.0941 17.849 9.88051 17.3589 10.1069L17.3504 10.0898C17.329 10.1112 17.3077 10.1282 17.2865 10.1453C17.2226 10.1837 17.1629 10.2265 17.1075 10.2734C16.8219 10.4528 16.4938 10.5468 16.1571 10.5468C15.4838 10.5468 14.8659 10.1709 14.5547 9.57301C14.0945 8.69326 14.4397 7.60431 15.3218 7.14736C16.1998 6.68614 17.2865 7.03205 17.7424 7.91606C17.8788 8.31323 18.2496 8.57797 18.6672 8.58227ZM22.2427 23.5464C21.9614 24.0204 22.1191 24.6268 22.5879 24.9044C22.7115 24.9728 22.8435 25.0154 22.9841 25.0154V25.0197C24.2797 25.1307 25.5454 24.5585 26.3253 23.5165C27.5782 21.8381 27.2372 19.4594 25.5667 18.2038C26.0739 14.9796 25.1662 11.8535 22.5537 9.73535C22.46 9.59009 21.8847 9.20147 21.727 9.11185H21.7227C21.1772 8.80435 20.4827 8.99656 20.1716 9.54314C19.6601 10.4315 20.4145 11.072 20.4145 11.072C22.4217 12.571 23.5254 14.9924 23.3379 17.4949H23.274C21.1815 17.5718 19.5451 19.3313 19.6175 21.4281L19.6389 21.4324C19.592 21.8253 19.7837 22.2097 20.1289 22.4062C20.5977 22.6709 21.1901 22.5044 21.4543 22.0346C21.5224 21.9107 21.5694 21.7784 21.5821 21.6374H21.6034C21.6015 21.6259 21.5996 21.6134 21.5977 21.601C21.5953 21.5857 21.593 21.5703 21.5906 21.5563C21.5906 21.4837 21.5864 21.411 21.5693 21.3385C21.5651 21.2872 21.5651 21.236 21.5693 21.1847C21.6205 20.1897 22.4643 19.421 23.4572 19.4722C24.4502 19.5235 25.2172 20.369 25.1662 21.3641C25.115 22.3591 24.2712 23.1279 23.2782 23.0766C22.8691 22.9997 22.4558 23.1876 22.2427 23.5464ZM7.39106 19.2373C7.12684 18.759 6.52596 18.5883 6.04866 18.8573C5.92507 18.9298 5.8228 19.0238 5.75035 19.1391H5.74608C5.00032 20.2111 4.85542 21.5904 5.3668 22.7905C6.18503 24.7165 8.40533 25.6133 10.3273 24.7933C12.8544 26.8475 16.0037 27.6205 19.1359 26.4077C19.3064 26.3991 19.9287 26.0916 20.0863 26.002C20.6318 25.6817 20.815 24.9813 20.4954 24.4346C19.9841 23.5464 19.055 23.8837 19.055 23.8837C16.7623 24.8788 14.1201 24.6268 12.0575 23.2133C12.0703 23.1962 12.0788 23.1791 12.0873 23.162C13.076 21.3043 12.3771 18.9982 10.5276 18.0074L10.5148 18.0245C10.2037 17.7853 9.77751 17.7598 9.44085 17.9562C9.32155 18.0245 9.22358 18.1184 9.14256 18.2295C8.82293 18.6737 8.92098 19.2929 9.36413 19.6132L9.3514 19.6302C9.36413 19.6345 9.37694 19.6398 9.38976 19.6452C9.40249 19.6506 9.41531 19.6558 9.42812 19.6601C9.49203 19.6943 9.56024 19.7285 9.62836 19.7498C9.92245 19.9078 10.1697 20.1427 10.3358 20.4331C10.8302 21.2872 10.5404 22.3805 9.68806 22.8759C8.83574 23.3712 7.74477 23.0809 7.25042 22.2267C6.91802 21.6502 6.92654 20.9371 7.27599 20.369C7.54874 20.0573 7.59562 19.6004 7.39106 19.2373Z" fill="#004296"/>
</svg>
