<svg width="32" height="32" viewBox="0 0 32 32" fill="none" xmlns="http://www.w3.org/2000/svg">
<path d="M15.424 26.8376H14.2294C14.2294 26.8376 7.9467 15.723 8.46937 9.34431C9.15203 0.960313 15.616 0.320312 15.616 0.320312C15.1467 0.565646 13.3974 1.80298 13.3974 12.2883C13.3974 17.7603 15.424 26.8376 15.424 26.8376Z" fill="#1576EC"/>
<path d="M13.7068 26.8369H13.1308C13.1308 26.8369 4.16016 16.9062 4.16016 10.2822C4.17082 1.86624 13.4295 0.628906 13.4295 0.628906C13.4295 0.628906 5.88816 3.02891 6.10149 10.7089C6.30416 17.8449 13.7068 26.8369 13.7068 26.8369Z" fill="#1576EC"/>
<path d="M16.4908 26.8376H17.6854C17.6854 26.8376 23.9681 15.723 23.4454 9.34431C22.7521 0.960313 16.2881 0.320312 16.2881 0.320312C16.7574 0.565646 18.5068 1.80298 18.5068 12.2883C18.5068 17.7603 16.4908 26.8376 16.4908 26.8376Z" fill="#1576EC"/>
<path d="M18.1982 26.838H18.7742C18.7742 26.838 27.7449 16.9073 27.7449 10.2833C27.7449 1.87796 18.4862 0.640625 18.4862 0.640625C18.4862 0.640625 26.0276 3.04063 25.8142 10.71C25.6009 17.846 18.1982 26.838 18.1982 26.838Z" fill="#1576EC"/>
<path d="M17.6955 31.6693H14.0475C13.9195 31.6693 13.8129 31.5733 13.7915 31.4346L13.4929 28.5546C13.4822 28.4053 13.5995 28.2666 13.7489 28.2666H17.9942C18.1435 28.2666 18.2609 28.3946 18.2502 28.5546L17.9515 31.4346C17.9302 31.5733 17.8235 31.6693 17.6955 31.6693Z" fill="#1576EC"/>
</svg>
