<svg width="32" height="32" viewBox="0 0 32 32" fill="none" xmlns="http://www.w3.org/2000/svg">
<path d="M3.04528 0.615356H20.2443C22.1895 0.615356 23.9082 1.02246 25.4005 1.83667C26.9193 2.62461 28.1051 3.71461 28.9578 5.10664C29.8105 6.49867 30.2368 8.11394 30.2368 9.95253C30.2368 12.1062 29.624 13.971 28.3982 15.5469C27.1725 17.0965 25.547 18.1603 23.5219 18.7381L30.3967 29.5723C30.7431 30.0976 30.8098 30.531 30.5965 30.8724C30.41 31.2139 30.0103 31.3846 29.3975 31.3846C29.1043 31.3846 28.8778 31.332 28.7179 31.227C28.5847 31.0957 28.4515 30.9381 28.3183 30.7542L20.9638 19.1715H12.6101C11.9478 19.1715 11.4109 18.6423 11.4109 17.9895C11.4109 17.3368 11.9478 16.8076 12.6101 16.8076H20.2443C21.7365 16.8076 23.0423 16.5187 24.1614 15.9409C25.3072 15.3368 26.1999 14.5226 26.8394 13.4982C27.5055 12.4739 27.8386 11.292 27.8386 9.95253C27.8386 8.58674 27.5055 7.37856 26.8394 6.32795C26.1999 5.27736 25.3072 4.46315 24.1614 3.88533C23.0423 3.28123 21.7365 2.97919 20.2443 2.97919H3.04528C2.72551 2.97919 2.44575 2.861 2.20592 2.62461C1.9661 2.38823 1.84619 2.11245 1.84619 1.79727C1.84619 1.45583 1.9661 1.16692 2.20592 0.930535C2.44575 0.720417 2.72551 0.615356 3.04528 0.615356Z" fill="black"/>
</svg>
