<svg width="32" height="32" viewBox="0 0 32 32" fill="none" xmlns="http://www.w3.org/2000/svg">
<path d="M5.22376 26.6194C5.22376 26.6194 5.43697 23.8328 7.9613 21.463V19.3725C6.48593 19.9374 4.8336 20.7901 3.60981 22.0914C-0.462378 26.4078 0.0876873 30.0619 0.000273756 31.5536C-0.00183075 31.6119 0.00821684 31.6699 0.0297864 31.7242C0.051356 31.7784 0.0839823 31.8276 0.125619 31.8687C0.167256 31.9098 0.217006 31.942 0.271748 31.9631C0.32649 31.9843 0.385044 31.994 0.443737 31.9916C1.99373 32.0551 6.41344 31.8456 9.78846 28.2909C10.9458 27.059 11.8515 25.6162 12.4556 24.0422H10.5603C9.11629 25.4616 7.2402 26.3676 5.22376 26.6194V26.6194Z" fill="#5900FF"/>
<path d="M31.7676 0.769686C31.6951 0.34651 31.6972 0.34651 31.2772 0.280918C28.625 -0.157069 19.615 -1.25098 11.8949 8.04196L7.51781 8.06523C7.35591 8.0956 7.20331 8.1628 7.07198 8.26156C6.94066 8.36031 6.83419 8.48794 6.76093 8.6344L3.88695 15.2867C3.84796 15.355 3.8278 15.4323 3.82851 15.5108C3.82922 15.5893 3.85077 15.6662 3.89098 15.7338C3.9312 15.8014 3.98866 15.8573 4.05757 15.8958C4.12649 15.9343 4.20442 15.9541 4.28351 15.9532H8.31306C8.1958 16.2431 8.03163 17.7644 8.03163 18.1812C8.03163 18.5981 7.67558 18.2024 10.6818 21.2514C13.754 24.2919 14.351 23.9724 14.9245 23.9026L15.9905 23.7629L15.9479 27.6773C15.9474 27.7566 15.9682 27.8347 16.0082 27.9034C16.0481 27.9721 16.1058 28.029 16.1753 28.0682C16.2448 28.1074 16.3236 28.1276 16.4035 28.1265C16.4835 28.1255 16.5617 28.1034 16.6301 28.0624L23.3375 25.2102C23.4843 25.137 23.6121 25.0311 23.7108 24.9008C23.8096 24.7705 23.8766 24.6193 23.9068 24.4591C23.9068 24.4591 23.8663 20.3818 23.9068 20.3479C32.8166 13.3803 32.2558 3.62612 31.7676 0.769686ZM19.8985 15.9596C19.1065 15.96 18.332 15.7272 17.6733 15.2908C17.0145 14.8543 16.501 14.2337 16.1976 13.5076C15.8943 12.7814 15.8149 11.9823 15.9693 11.2113C16.1237 10.4403 16.5051 9.73203 17.0652 9.17618C17.6253 8.62033 18.3389 8.24184 19.1158 8.08858C19.8927 7.93533 20.6979 8.0142 21.4297 8.31521C22.1614 8.61623 22.7867 9.12587 23.2265 9.77965C23.6663 10.4334 23.9008 11.202 23.9004 11.9881C23.9004 13.0414 23.4788 14.0515 22.7283 14.7963C21.9778 15.5411 20.9599 15.9596 19.8985 15.9596V15.9596Z" fill="#5900FF"/>
<path d="M19.8986 14.4975C21.2951 14.4975 22.4272 13.374 22.4272 11.9881C22.4272 10.6021 21.2951 9.47864 19.8986 9.47864C18.5021 9.47864 17.37 10.6021 17.37 11.9881C17.37 13.374 18.5021 14.4975 19.8986 14.4975Z" fill="#5900FF"/>
</svg>
