<svg xmlns="http://www.w3.org/2000/svg" viewBox="0 0 400 400"><style type="text/css">  
	.st0{fill:#FFFFFF;}
	.st1{fill:#ED7726;}
</style><circle class="st0" cx="203" cy="208.1" r="184.8"/><path class="st1" d="M200 0C89.5 0 0 89.5 0 200s89.5 200 200 200 200-89.5 200-200S310.5 0 200 0zM327 338.3h-72.6l-90.3-105.9c-0.2-0.3-0.4-0.6-0.6-0.8 -0.7-1-1.4-2-2-3 -0.3-0.6-0.6-1.2-0.9-1.8 -0.5-0.9-0.9-2-1.2-2.9 -0.3-0.8-0.5-1.5-0.7-2.3 -0.2-0.9-0.4-1.8-0.6-2.8 -0.1-0.9-0.2-1.9-0.3-2.8 0-0.5-0.1-1-0.1-1.5 0-0.4 0.1-0.7 0.1-1.1 0.1-1 0.2-2 0.4-3 0.1-0.8 0.2-1.5 0.4-2.3 0.2-1 0.6-2 1-3 0.2-0.6 0.5-1.3 0.8-1.9 0.5-1 1-2 1.7-3 0.3-0.5 0.6-1 1-1.5 0.7-0.9 1.4-1.8 2.3-2.7 0.4-0.5 0.9-0.9 1.3-1.3 0.4-0.4 0.7-0.8 1.1-1.1 0.5-0.4 1.1-0.7 1.7-1.1 0.5-0.3 1-0.7 1.4-1 1.1-0.7 2.2-1.3 3.4-1.8 0.4-0.2 0.9-0.4 1.3-0.6 1.3-0.5 2.6-0.9 3.9-1.1 0.4-0.1 0.8-0.2 1.2-0.3 1.4-0.2 2.9-0.4 4.3-0.4 0.2 0 0.4-0.1 0.7-0.1l60.7 0L178 107.1l-68 79.7H37.5l118.6-139c1.2-1.6 2.6-3.1 4.2-4.4 0.2-0.1 0.4-0.3 0.6-0.4 0.1-0.1 0.1-0.1 0.2-0.1 1.4-1.1 2.8-2 4.4-2.8 0.1 0 0.2-0.1 0.3-0.1 1.5-0.8 3-1.4 4.6-1.8 0.3-0.1 0.6-0.1 0.9-0.2 1.4-0.3 2.8-0.6 4.2-0.8 0.9-0.1 1.7 0 2.6 0 0.9 0 1.7-0.1 2.6 0 1.4 0.1 2.8 0.4 4.2 0.8 0.3 0.1 0.6 0.1 0.9 0.2 1.6 0.5 3.1 1.1 4.6 1.8 0.1 0 0.2 0.1 0.3 0.1 1.5 0.8 2.9 1.7 4.4 2.8 0.1 0 0.1 0.1 0.2 0.1 0.2 0.2 0.4 0.3 0.6 0.4 1.6 1.4 3 2.9 4.2 4.5L327.2 197c9.8 11.7 8.2 29.1-3.5 38.9 -5.4 4.6-12.2 6.6-18.7 6.3 -0.5 0-59.8 0.1-59.8 0.1L327 338.3z"/></svg>
