<svg width="32" height="32" viewBox="0 0 32 32" fill="none" xmlns="http://www.w3.org/2000/svg">
<path d="M29.628 10.6033C28.7153 9.21142 27.5212 8.02626 26.1223 7.12429C22.9488 5.13284 19.2648 4.10689 15.5187 4.17133C14.2097 4.16956 12.9034 4.28565 11.6153 4.5182C10.8119 3.73821 9.91061 3.06585 8.93405 2.51795C7.64588 1.84869 6.23305 1.45346 4.7846 1.35715C3.33615 1.26084 1.88343 1.46553 0.517983 1.95834C0.396752 2.00333 0.288511 2.07758 0.20288 2.17447C0.117249 2.27137 0.0568789 2.38792 0.0271339 2.51376C-0.00261128 2.63961 -0.000810171 2.77085 0.0323771 2.89584C0.0655644 3.02081 0.12911 3.13566 0.217368 3.23017C1.35277 4.42108 3.2374 6.76818 2.77491 8.89446C1.04179 10.5851 0.0447856 12.8907 0 15.3115C0.0356389 17.7469 1.03317 20.0696 2.77491 21.7724C3.2374 23.9033 1.3574 26.2469 0.221993 27.4379C0.133455 27.5323 0.0696623 27.6471 0.0363096 27.7721C0.00295697 27.8971 0.00108145 28.0285 0.0308504 28.1544C0.0606195 28.2804 0.121107 28.3969 0.206915 28.4939C0.292721 28.5908 0.40118 28.6649 0.522608 28.7096C1.88808 29.2029 3.34091 29.408 4.78956 29.3121C6.23821 29.2163 7.65132 28.8213 8.93984 28.1524C9.91725 27.6043 10.8193 26.9315 11.6234 26.1509C12.9115 26.3835 14.2179 26.4996 15.5268 26.4979C19.2728 26.5629 22.9568 25.5373 26.1304 23.546C27.5272 22.6429 28.7192 21.4569 29.6291 20.0647C30.5513 18.6587 31.0425 17.0137 31.0425 15.3323C31.0425 13.6508 30.5513 12.0059 29.6291 10.5999L29.628 10.6033ZM15.358 23.7507C13.7217 23.7555 12.092 23.544 10.5111 23.1217L9.42083 24.1819C8.81571 24.7656 8.13939 25.2707 7.40785 25.6849C6.51896 26.1331 5.55289 26.4077 4.56125 26.4944C4.61444 26.3972 4.663 26.2989 4.71504 26.2019C5.22659 25.3975 5.56884 24.4972 5.72092 23.5561C5.873 22.6151 5.83169 21.6529 5.59953 20.7283C4.7576 20.1356 4.06229 19.3583 3.56673 18.4557C3.07117 17.5532 2.78847 16.5492 2.74023 15.5207C2.74023 10.9768 8.38948 7.29194 15.358 7.29194C22.3265 7.29194 27.9804 10.9756 27.9804 15.5207C27.9804 20.0659 22.3276 23.7507 15.358 23.7507Z" fill="#F5455C"/>
<path d="M9.31837 13.6289C8.949 13.6275 8.58752 13.7358 8.27973 13.94C7.97193 14.1443 7.73167 14.4352 7.58936 14.7761C7.44705 15.117 7.40911 15.4923 7.48033 15.8549C7.55155 16.2173 7.72873 16.5505 7.98944 16.8121C8.25013 17.0738 8.58264 17.2522 8.94481 17.3247C9.307 17.3974 9.68257 17.3609 10.024 17.2198C10.3654 17.0787 10.6572 16.8395 10.8626 16.5325C11.0679 16.2255 11.1776 15.8645 11.1776 15.495C11.178 15.2505 11.1303 15.0081 11.0371 14.7819C10.9439 14.5558 10.8071 14.3502 10.6345 14.1769C10.4618 14.0036 10.2567 13.8661 10.0309 13.772C9.80511 13.678 9.56299 13.6294 9.31837 13.6289Z" fill="#F5455C"/>
<path d="M15.3105 13.6289C14.9412 13.6275 14.5797 13.7358 14.272 13.94C13.9641 14.1443 13.7238 14.4352 13.5816 14.7761C13.4393 15.117 13.4013 15.4923 13.4725 15.8549C13.5437 16.2173 13.7209 16.5505 13.9816 16.8121C14.2424 17.0738 14.5748 17.2522 14.937 17.3247C15.2992 17.3974 15.6748 17.3609 16.0161 17.2198C16.3576 17.0787 16.6494 16.8395 16.8548 16.5325C17.0601 16.2255 17.1697 15.8645 17.1697 15.495C17.1702 15.2505 17.1225 15.0081 17.0293 14.7819C16.9361 14.5558 16.7993 14.3502 16.6266 14.1769C16.454 14.0036 16.2489 13.8661 16.0232 13.772C15.7973 13.678 15.5552 13.6294 15.3105 13.6289Z" fill="#F5455C"/>
<path d="M21.2934 13.6289C20.9239 13.6271 20.5622 13.735 20.2542 13.9389C19.946 14.1428 19.7054 14.4337 19.5627 14.7744C19.42 15.1154 19.3818 15.4908 19.4527 15.8534C19.5236 16.216 19.7007 16.5494 19.9614 16.8114C20.2219 17.0732 20.5544 17.2519 20.9167 17.3246C21.2788 17.3974 21.6546 17.361 21.9962 17.22C22.3376 17.0791 22.6296 16.8399 22.8351 16.5328C23.0406 16.2258 23.1503 15.8646 23.1503 15.4951C23.1512 15.0015 22.9562 14.5276 22.608 14.1778C22.2598 13.8278 21.787 13.6304 21.2934 13.6289Z" fill="#F5455C"/>
</svg>
