<svg width="304" height="304" viewBox="0 0 304 304" fill="none" xmlns="http://www.w3.org/2000/svg">
<path d="M303.77 271.07V57.73C303.23 44.12 302.84 23.42 272.42 35.8C221.67 54.37 170.62 72.25 120.33 92.02C82.23 106.99 40.49 123.41 19 203.61C13.37 224.61 5.64 250.06 0 271.08H49.36C53.91 254.08 59.6 232.67 64.15 215.68C79.53 158.25 109.75 146.37 137.33 135.53C176.92 119.96 217 105.75 257 91.13V271.07H303.77Z" fill="#3A4757"/>
<path fill-rule="evenodd" clip-rule="evenodd" d="M119 156.54C113.96 159.296 109.241 162.603 104.93 166.4C90.03 179.67 81.93 198.6 76.93 217.51L62.83 269.41H119V156.54Z" fill="#F7941D"/>
<path fill-rule="evenodd" clip-rule="evenodd" d="M180.11 131.67C167.443 136.403 154.777 141.237 142.11 146.17C138.74 147.5 135.41 148.81 132.11 150.17V269.37H180.03L180.11 131.67Z" fill="#BFD730"/>
<path fill-rule="evenodd" clip-rule="evenodd" d="M243.8 269.37V108.37C227 114.48 210.1 120.54 193.29 126.78V269.37H243.8Z" fill="#00BAD9"/>
</svg>
