<svg width="32" height="32" viewBox="0 0 32 32" fill="none" xmlns="http://www.w3.org/2000/svg">
<g clip-path="url(#clip0_3769_11)">
<path d="M8.29586 27.8878C8.29586 30.1483 6.43598 31.9866 4.14818 31.9866C1.86037 31.9866 0.000488281 30.1483 0.000488281 27.8878C0.000488281 25.6265 1.86037 23.7882 4.14818 23.7882C6.43598 23.7882 8.29586 25.6272 8.29586 27.8878V27.8878ZM31.9988 31.9873C32.0615 22.5589 27.6507 13.2172 20.2604 7.25464C14.63 2.6088 7.34022 -0.0246106 0.000488281 4.95827e-05V7.31741C8.68523 7.21802 17.2445 11.8885 21.7052 19.2679C24.0654 23.0963 25.3176 27.4915 25.3251 31.9746H31.9988V31.9873ZM20.6883 31.9873C20.7253 25.9254 17.81 19.9629 13.0469 16.1615C9.40197 13.2052 4.71446 11.5403 0.00124392 11.5657V17.727C5.12877 17.665 10.1565 20.5719 12.6069 25.0309C13.8008 27.1643 14.4279 29.562 14.4297 32H20.6883V31.9873V31.9873Z" fill="#FF6600"/>
</g>
<defs>
<clipPath id="clip0_3769_11">
<rect width="32" height="32" fill="white"/>
</clipPath>
</defs>
</svg>
