<svg width="53" height="53" viewBox="0 0 53 53" fill="none" xmlns="http://www.w3.org/2000/svg">
<path d="M45.1 33.5008C49.2974 33.5008 52.7 30.0981 52.7 25.9008C52.7 21.7034 49.2974 18.3008 45.1 18.3008C40.9026 18.3008 37.5 21.7034 37.5 25.9008C37.5 30.0981 40.9026 33.5008 45.1 33.5008Z" fill="#E81131"/>
<path d="M26.4999 21.1008C29.0999 21.1008 31.1999 23.2008 31.1999 25.8008C31.1999 28.4008 29.0999 30.5008 26.4999 30.5008C23.8999 30.5008 21.7999 28.4008 21.7999 25.8008C21.7999 23.3008 23.8999 21.1008 26.4999 21.1008ZM26.4999 18.3008C22.2999 18.3008 18.8999 21.7008 18.8999 25.9008C18.8999 30.1008 22.2999 33.5008 26.4999 33.5008C30.6999 33.5008 34.0999 30.1008 34.0999 25.9008C34.0999 21.7008 30.6999 18.3008 26.4999 18.3008Z" fill="#E81131"/>
<path d="M7.8998 19.7008C11.2998 19.7008 14.0998 22.5008 14.0998 25.9008C14.0998 29.3008 11.2998 32.1008 7.8998 32.1008C4.4998 32.1008 1.6998 29.3008 1.6998 25.9008C1.6998 22.5008 4.4998 19.7008 7.8998 19.7008ZM7.8998 18.3008C3.6998 18.3008 0.299805 21.7008 0.299805 25.9008C0.299805 30.1008 3.6998 33.5008 7.8998 33.5008C12.0998 33.5008 15.4998 30.1008 15.4998 25.9008C15.4998 21.7008 12.0998 18.3008 7.8998 18.3008Z" fill="#E81131"/>
</svg>
