<svg width="32" height="32" viewBox="0 0 32 32" fill="none" xmlns="http://www.w3.org/2000/svg">
<path d="M19.2975 17.5298C20.4975 16.5798 20.4975 14.7298 19.2975 13.7498C17.5895 12.3319 15.7158 11.1264 13.7175 10.1598C12.3375 9.49981 10.7975 10.4198 10.5775 11.9898C10.2375 14.3898 10.1775 16.8098 10.3975 19.1098C10.5475 20.6998 12.0675 21.6498 13.4675 21.0398C15.5589 20.1397 17.5198 18.9625 19.2975 17.5398V17.5298ZM28.2675 10.5398C29.5386 11.9311 30.2451 13.7464 30.2488 15.6309C30.2525 17.5154 29.5532 19.3336 28.2875 20.7298C23.7676 25.7182 17.8626 29.2452 11.3275 30.8598C9.65644 31.278 7.88815 31.0284 6.39815 30.1639C4.90816 29.2994 3.81382 27.8881 3.34753 26.2298C1.37753 19.4998 1.66753 11.8898 3.56753 5.12981C4.56753 1.57981 7.90753 -0.650193 11.3475 0.169807C17.7175 1.68981 23.6975 5.59981 28.2675 10.5398V10.5398Z" fill="#85C742"/>
</svg>
