<svg width="34" height="34" viewBox="0 0 34 34" fill="none" xmlns="http://www.w3.org/2000/svg">
<path d="M17 2.09668C8.78407 2.09668 2.09717 8.78673 2.09717 16.9995C2.09717 25.2123 8.78722 31.9024 17 31.9024C25.2128 31.9024 31.9029 25.2123 31.9029 16.9995C31.9029 8.78673 25.2128 2.09668 17 2.09668ZM16.978 3.42082C17.2328 3.42742 17.4749 3.53362 17.6528 3.71679C17.8307 3.89996 17.9302 4.14559 17.9301 4.40131C17.9301 4.66135 17.8268 4.91075 17.6429 5.09462C17.459 5.2785 17.2096 5.3818 16.9496 5.3818C16.6895 5.3818 16.4401 5.2785 16.2563 5.09462C16.0724 4.91075 15.9691 4.66135 15.9691 4.40131C15.969 4.27013 15.9953 4.14027 16.0463 4.01942C16.0974 3.89857 16.1722 3.7892 16.2662 3.69777C16.3603 3.60634 16.4718 3.53472 16.594 3.48715C16.7163 3.43958 16.8468 3.41702 16.978 3.42082ZM19.2227 5.035C20.944 5.3574 22.5744 6.05063 24.0008 7.06653C25.4272 8.08244 26.6154 9.39667 27.4828 10.918L26.3257 13.5284C26.1271 13.9792 26.332 14.5089 26.7797 14.7107L29.0055 15.6975C29.0746 16.3932 29.083 17.0937 29.0308 17.7909H27.7917C27.6688 17.7909 27.6184 17.8728 27.6184 17.9926V18.5601C27.6184 19.8969 26.8649 20.1901 26.2028 20.2626C25.5722 20.3351 24.8755 19.9978 24.7872 19.6131C24.4152 17.5229 23.7973 17.0784 22.8199 16.3059C24.0337 15.5367 25.2948 14.3986 25.2948 12.8789C25.2948 11.2364 24.1693 10.2023 23.4032 9.69471C22.325 8.98535 21.1332 8.84348 20.8117 8.84348H8.01165C9.78159 6.86623 12.154 5.52765 14.7616 5.035L16.2717 6.61766C16.6122 6.97392 17.1766 6.98968 17.5328 6.64604L19.2227 5.035ZM5.28771 12.2925C5.5428 12.2999 5.78497 12.4065 5.96275 12.5896C6.14054 12.7726 6.23993 13.0178 6.23983 13.273C6.23983 13.5331 6.13653 13.7825 5.95265 13.9663C5.76877 14.1502 5.51938 14.2535 5.25934 14.2535C4.99929 14.2535 4.7499 14.1502 4.56602 13.9663C4.38214 13.7825 4.27884 13.5331 4.27884 13.273C4.27879 13.1419 4.30506 13.012 4.3561 12.8911C4.40714 12.7703 4.48191 12.6609 4.57598 12.5695C4.67005 12.4781 4.78152 12.4064 4.90377 12.3589C5.02603 12.3113 5.15658 12.2887 5.28771 12.2925ZM28.6651 12.3367C28.9201 12.3441 29.1623 12.4506 29.3401 12.6337C29.5179 12.8168 29.6173 13.062 29.6172 13.3172C29.6172 13.5772 29.5139 13.8266 29.33 14.0105C29.1461 14.1944 28.8967 14.2977 28.6367 14.2977C28.3766 14.2977 28.1272 14.1944 27.9434 14.0105C27.7595 13.8266 27.6562 13.5772 27.6562 13.3172C27.6561 13.186 27.6824 13.0561 27.7334 12.9353C27.7845 12.8144 27.8592 12.7051 27.9533 12.6136C28.0474 12.5222 28.1589 12.4506 28.2811 12.403C28.4034 12.3554 28.5339 12.3329 28.6651 12.3367ZM7.1352 12.4943H8.84397V20.1995H5.3949C4.96893 18.7037 4.83618 17.1396 5.00397 15.5934L7.11628 14.6539C7.56712 14.4521 7.77204 13.9256 7.57027 13.4748L7.1352 12.4943ZM14.2666 12.5763H18.3368C18.548 12.5763 19.8217 12.819 19.8217 13.7743C19.8217 14.5656 18.8444 14.8494 18.0404 14.8494H14.2635L14.2666 12.5763ZM14.2666 18.1124H17.3847C17.6684 18.1124 18.9074 18.1944 19.3015 19.7771C19.4245 20.2626 19.6987 21.8453 19.8848 22.3528C20.0708 22.9203 20.8243 24.0553 21.6282 24.0553H26.7167C26.3757 24.512 26.0027 24.9439 25.6006 25.3479L23.5293 24.9034C23.0469 24.7993 22.5709 25.1083 22.4668 25.5907L21.975 27.8858C20.3935 28.6023 18.6759 28.9689 16.9397 28.9608C15.2035 28.9526 13.4894 28.5698 11.9147 27.8386L11.4229 25.5434C11.3188 25.061 10.8459 24.752 10.3636 24.8561L8.33638 25.2912C7.96019 24.9031 7.61051 24.4902 7.28968 24.0553H17.1482C17.2585 24.0553 17.3342 24.0364 17.3342 23.9323V20.4454C17.3342 20.3446 17.2585 20.3225 17.1482 20.3225H14.2635L14.2666 18.1124ZM9.71727 26.0983C9.97236 26.1056 10.2145 26.2122 10.3923 26.3953C10.5701 26.5784 10.6695 26.8235 10.6694 27.0787C10.6694 27.3388 10.5661 27.5882 10.3822 27.7721C10.1983 27.9559 9.94893 28.0592 9.68889 28.0592C9.42885 28.0592 9.17946 27.9559 8.99558 27.7721C8.8117 27.5882 8.7084 27.3388 8.7084 27.0787C8.70834 26.9476 8.73461 26.8177 8.78565 26.6969C8.83669 26.576 8.91146 26.4666 9.00554 26.3752C9.09961 26.2838 9.21107 26.2122 9.33333 26.1646C9.45558 26.117 9.58614 26.0945 9.71727 26.0983ZM24.2355 26.1424C24.4906 26.1498 24.7328 26.2563 24.9105 26.4394C25.0883 26.6225 25.1877 26.8677 25.1876 27.1229C25.1876 27.3829 25.0843 27.6323 24.9004 27.8162C24.7166 28.0001 24.4672 28.1034 24.2071 28.1034C23.9471 28.1034 23.6977 28.0001 23.5138 27.8162C23.3299 27.6323 23.2266 27.3829 23.2266 27.1229C23.2266 26.9917 23.2528 26.8618 23.3039 26.741C23.3549 26.6201 23.4297 26.5108 23.5238 26.4193C23.6178 26.3279 23.7293 26.2563 23.8516 26.2087C23.9738 26.1612 24.1044 26.1386 24.2355 26.1424Z" fill="black"/>
<path fill-rule="evenodd" clip-rule="evenodd" d="M31.0705 17C31.0705 20.7317 29.5881 24.3106 26.9494 26.9494C24.3106 29.5881 20.7317 31.0705 17 31.0705C13.2683 31.0705 9.68936 29.5881 7.05062 26.9494C4.41189 24.3106 2.92946 20.7317 2.92946 17C2.92946 13.2683 4.41189 9.68936 7.05062 7.05062C9.68936 4.41189 13.2683 2.92946 17 2.92946C20.7317 2.92946 24.3106 4.41189 26.9494 7.05062C29.5881 9.68936 31.0705 13.2683 31.0705 17V17ZM30.8057 15.6412L33 17L30.8057 18.3588L32.691 20.1212L30.2761 21.026L31.7831 23.1226L29.2325 23.5387L30.3044 25.8906L27.7224 25.7992L28.3151 28.3151L25.7992 27.7224L25.8906 30.3044L23.5387 29.2325L23.1226 31.7831L21.026 30.2761L20.1212 32.691L18.3588 30.8057L17 33L15.6412 30.8057L13.8788 32.691L12.974 30.2761L10.8774 31.7831L10.4613 29.2325L8.10936 30.3044L8.20079 27.7224L5.68493 28.3151L6.27764 25.7992L3.69557 25.8906L4.76749 23.5387L2.21695 23.1226L3.72394 21.026L1.30897 20.1212L3.19429 18.3588L1 17L3.19429 15.6412L1.30897 13.8788L3.72394 12.974L2.21695 10.8774L4.76749 10.4613L3.69557 8.10936L6.27764 8.20079L5.68493 5.68493L8.20079 6.27763L8.10936 3.69557L10.4613 4.76749L10.8774 2.21695L12.974 3.72394L13.8788 1.30897L15.6412 3.19429L17 1L18.3588 3.19429L20.1212 1.30897L21.026 3.72394L23.1226 2.21695L23.5387 4.76749L25.8906 3.69557L25.7992 6.27763L28.3151 5.68493L27.7224 8.20079L30.3044 8.10936L29.2325 10.4613L31.7831 10.8774L30.2761 12.974L32.691 13.8788L30.8057 15.6412Z" fill="black" stroke="black" stroke-linecap="round" stroke-linejoin="round"/>
</svg>
