<?xml version="1.0" encoding="UTF-8"?>
<svg viewBox="0 0 2048 2048" xmlns="http://www.w3.org/2000/svg">
<defs>
<style>.cls-1 {
        fill-rule: evenodd;
      }</style>
</defs>
<path class="cls-1" d="m68.006 94.456h591.09c14.734 0 37.629-3.9 48.654 1.035 95.526 163.6 1.5-0.045 326.08 566.3 0.35-0.69 0.69-1.38 1.04-2.07 318.31-563.74 0.07 1.454 316.77-566.3 211.15 0 422.37 1.035 633.53 1.035q-224.1 348.86-448.24 697.79h-1011.4zm15.527 751.62h311.59v119.06c0 13.41 2.366 33.648-2.07 43.485q-35.71 20.7-71.428 41.41l1.035 2.07q36.746 26.4 73.5 52.8v95.25h-73.5q-63.14-50.73-126.29-101.46v101.46h-112.84v-354.07zm361.28 0h311.59v354.07h-311.59v-354.07zm867.49 0h309.52v95.247h-98.34v258.83h-112.84v-258.83h-98.34v-95.247zm652.17 0v354.07h-112.84v-94.21h-85.92v94.21h-112.83v-297.13q28.98-28.467 57.97-56.941h253.62zm-800.2 1.035h112.83v353.04h-112.83v-353.04zm-358.18 1.036h112.84v101.46q63.657-50.724 127.33-101.46h71.42c0.25 23.029 5.6 78.412-2.07 95.246q-53.82 40.372-107.66 80.756c0.35 0.69 0.69 1.38 1.04 2.07q54.345 39.33 108.69 78.68v95.25h-72.46q-63.135-50.2-126.29-100.43v100.43h-112.84v-352zm-609.72 93.176v59.016q42.956-25.37 85.92-50.734v-8.282h-85.92zm361.28 0v164.62h85.92v-164.62h-85.92zm1208.1 0v69.366h85.92v-69.366h-85.92zm-1294 313.7h1107.7c460.24 699.25-0.51 2.88 459.62 698.82q-326.06-0.525-652.17-1.04-181.65-296.06-363.35-592.18c-0.69 0.34-1.38 0.69-2.07 1.03q-182.17 296.07-364.38 592.19c-447.99 0-644.48 1.38-648.03-4.14 0.355-0.23 220.83-331.41 462.73-694.68z"/>
</svg>
