<svg width="32" height="32" viewBox="0 0 32 32" fill="none" xmlns="http://www.w3.org/2000/svg">
<path d="M26.6133 31.1947L19.4773 26.288C19.2466 26.1374 19.0477 25.9429 18.8921 25.7154C18.7365 25.488 18.6273 25.2322 18.5706 24.9624C18.5139 24.6928 18.5108 24.4146 18.5616 24.1438C18.6124 23.873 18.7161 23.6148 18.8667 23.384C19.0172 23.1532 19.2118 22.9543 19.4393 22.7988C19.6667 22.6432 19.9225 22.5339 20.1922 22.4772C20.4619 22.4205 20.7401 22.4175 21.0109 22.4683C21.2817 22.5191 21.5399 22.6228 21.7707 22.7733V22.736L25.504 25.328H25.5413C26.1525 25.7762 26.9132 25.9709 27.6645 25.8715C28.4158 25.7722 29.0997 25.3863 29.5733 24.7947C29.9914 24.2271 30.184 23.5246 30.1141 22.8232C30.0441 22.1218 29.7165 21.4712 29.1947 20.9973L19.4773 14.304C19.0333 13.9814 18.733 13.498 18.6407 12.957C18.5485 12.4159 18.6716 11.8603 18.9837 11.4088C19.2958 10.9573 19.7722 10.6459 20.311 10.5411C20.8497 10.4363 21.4081 10.5464 21.8667 10.848L24.4 12.592C24.9953 12.8654 25.6655 12.9294 26.3017 12.7735C26.9379 12.6176 27.5026 12.251 27.904 11.7333C28.126 11.4315 28.2865 11.0888 28.3761 10.725C28.4657 10.3611 28.4827 9.98319 28.4263 9.61274C28.3698 9.24229 28.241 8.88661 28.047 8.56597C27.8531 8.24533 27.5979 7.96602 27.296 7.74399L27.2 7.69599L18.992 1.95199V1.86133H18.8747L17.7333 1.06666C17.2517 0.720061 16.6734 0.533507 16.08 0.533325H15.952V31.1947H26.6133Z" fill="#65BD60"/>
<path d="M15.9467 0.570679H15.5893L15.4027 0.613345L15.1893 0.666679C15.1083 0.683687 15.0308 0.714348 14.96 0.757345L14.7947 0.826679C14.6568 0.89582 14.5248 0.976081 14.4 1.06668L13.28 1.86135L5.02933 7.59467C4.39888 8.01889 3.95726 8.67083 3.79716 9.41366C3.63706 10.1565 3.77092 10.9324 4.17066 11.5787C4.52304 12.1131 5.04518 12.5132 5.65285 12.7145C6.26053 12.9157 6.91829 12.9064 7.51999 12.688L10.2293 10.8213C10.6879 10.5438 11.2352 10.452 11.7592 10.5646C12.2833 10.6774 12.7445 10.9861 13.0484 11.4276C13.3523 11.8692 13.476 12.4102 13.3941 12.94C13.3123 13.4697 13.031 13.9481 12.608 14.2773L10.1013 16L3.44533 20.6667C2.80935 21.0886 2.36246 21.7414 2.19921 22.4869C2.03597 23.2325 2.16918 24.0123 2.57066 24.6613C2.93267 25.2046 3.47035 25.6071 4.09368 25.8013C4.71701 25.9955 5.38815 25.9696 5.99466 25.728L10.2133 22.8213C10.6694 22.5683 11.2032 22.494 11.7111 22.6127C12.2189 22.7314 12.6645 23.0348 12.9611 23.4637C13.2577 23.8927 13.3842 24.4166 13.316 24.9337C13.2478 25.4508 12.9897 25.924 12.592 26.2613L5.47199 31.1947H15.9467V0.570679Z" fill="#00A176"/>
</svg>
