<svg width="397" height="397" viewBox="0 0 397 397" fill="none" xmlns="http://www.w3.org/2000/svg">
<path d="M198.5 396C307.576 396 396 307.576 396 198.5C396 89.4238 307.576 1 198.5 1C89.4238 1 1 89.4238 1 198.5C1 307.576 89.4238 396 198.5 396Z" fill="#00838F" stroke="#00838F"/>
<path fill-rule="evenodd" clip-rule="evenodd" d="M152.048 230.258L201.948 226.081L211.329 247.752L179.125 279.701L152.048 317.766L155.622 363.986C129.137 357.519 111.499 351.145 102.708 344.863C93.9177 338.582 84.4766 329.55 74.3853 317.766L121.667 261.456H142.353L152.048 230.258Z" fill="#FBB526"/>
<path d="M260.557 130.532H142.353V144.323H260.557V130.532Z" fill="white"/>
<path d="M181.754 144.323H169.934V226.081H181.754V144.323Z" fill="white"/>
<path d="M233.961 144.323H222.141V247.752H233.961V144.323Z" fill="white"/>
<path d="M206.38 183.724H194.56V223.126H206.38V183.724Z" fill="white"/>
<path d="M218.201 91.1309H185.695V130.532H218.201V91.1309Z" fill="white"/>
<path d="M201.455 96.0561C211.247 96.0561 219.186 88.1178 219.186 78.3254C219.186 68.5331 211.247 60.5948 201.455 60.5948C191.663 60.5948 183.724 68.5331 183.724 78.3254C183.724 88.1178 191.663 96.0561 201.455 96.0561Z" stroke="white" stroke-width="14"/>
<path d="M198.5 374.822C295.88 374.822 374.822 295.88 374.822 198.5C374.822 101.12 295.88 22.1783 198.5 22.1783C101.12 22.1783 22.1783 101.12 22.1783 198.5C22.1783 295.88 101.12 374.822 198.5 374.822Z" stroke="white" stroke-width="14"/>
<path d="M70.4451 322.423L119.074 257.602H147.148" stroke="white" stroke-width="14"/>
<path d="M121.667 310.862L144.075 291.426L149.492 234.39L203.67 224.111L218.201 247.752" stroke="white" stroke-width="14"/>
<path d="M175.844 283.27L194.56 271.797L203.61 247.752L248.125 252.298L265.136 274.778" stroke="white" stroke-width="14"/>
<path d="M240.582 271.797H276.927L327.533 320.645" stroke="white" stroke-width="14"/>
<path d="M198.5 327.694L219.222 307.839L237.901 317.622L277.924 323.049" stroke="white" stroke-width="14"/>
</svg>
