<svg width="32" height="32" viewBox="0 0 32 32" fill="none" xmlns="http://www.w3.org/2000/svg">
<path d="M20.6293 13.0645L14.5834 11.6544C12.9685 11.3003 12.0106 10.5451 12.0106 9.18613C12.0106 7.47947 13.5744 6.4512 15.8933 6.4512C18.56 6.4512 19.9743 7.75467 20.6293 9.46133H28.5397C27.6863 4.128 23.4005 0 15.8421 0C8.98982 0 3.94875 3.98933 3.94875 10.0267C3.94875 15.2725 7.37275 17.6427 11.9125 18.6517L17.8559 19.9147C19.8229 20.3669 20.7829 21.024 20.7829 22.4747C20.7829 24.3947 19.0762 25.4336 16.5994 25.4336C14.08 25.4464 12.2624 24.3947 11.6074 22.2613H3.19995C4.30928 28.448 9.35035 31.9467 16.7573 31.9467C23.5114 31.9467 28.8533 28.32 28.8533 21.9776C28.8448 17.1904 25.9221 14.3253 20.6293 13.0645Z" fill="black"/>
</svg>
