<svg width="32" height="32" viewBox="0 0 32 32" fill="none" xmlns="http://www.w3.org/2000/svg">
<rect width="32" height="32" fill="#06492E"/>
<path d="M12.3866 7.85364C12.3866 6.07158 14.1001 4.63222 16.2934 4.63222C19.1036 4.63222 20.8172 5.93449 21.7767 12.72H22.3936L23.2846 3.46702C16.9103 1.27372 9.09665 3.60411 8.95957 10.2526C8.95957 17.4494 20.4059 17.4494 20.4059 24.0293C20.4059 25.9484 18.6924 27.2507 16.7732 27.2507C11.7012 27.2507 10.536 23.0012 10.2618 18.546H9.64498L8 26.908C8 26.908 11.7697 29.1013 15.8137 29.1013C20.6801 29.0327 23.9015 25.4686 24.0386 21.6989C24.0386 14.5021 12.3866 12.9942 12.3866 7.85364Z" fill="white"/>
</svg>
