<svg width="32" height="32" viewBox="0 0 32 32" fill="none" xmlns="http://www.w3.org/2000/svg">
<path d="M5 22.4107L10.6107 20.3071C11.8893 23.0304 14.117 24.9277 16.7571 24.9277C19.3563 24.9277 21.0884 23.9375 21.0884 21.9571C21.0884 19.9357 18.6134 19.1518 15.6018 18.2071C11.2705 16.8045 6.15536 15.1911 6.15536 9.16785C6.15536 4.71249 9.82679 1 16.2625 1C21.5839 1 25.1732 4.13571 26.2875 8.21964L20.6768 10.0348C20.3215 9.07916 19.6689 8.26274 18.8149 7.70567C17.961 7.1486 16.9508 6.88028 15.933 6.94018C13.6643 6.94018 12.4259 7.76517 12.4259 9.29196C12.4259 10.7768 14.658 11.4786 17.3366 12.3857C21.7116 13.7884 27.3616 15.6 27.3616 21.9982C27.3616 27.6089 22.617 30.8679 16.5946 30.8679C13.9974 30.9451 11.4483 30.156 9.34908 28.6248C7.24981 27.0936 5.71975 24.9074 5 22.4107Z" fill="#717070"/>
</svg>
