<svg xmlns="http://www.w3.org/2000/svg" width="1000" height="700.243"><path d="M416.223 76.763c32.219-33.57 77.074-54.39 126.683-54.39 65.945 0 123.48 36.772 154.119 91.361 26.626-11.897 56.098-18.514 87.107-18.514 118.94 0 215.368 97.267 215.368 217.247 0 119.994-96.428 217.261-215.368 217.261a213.81 213.81 0 0 1-42.422-4.226c-26.982 48.128-78.398 80.645-137.413 80.645-24.704 0-48.071-5.706-68.877-15.853-27.351 64.338-91.077 109.45-165.347 109.45-77.344 0-143.261-48.94-168.563-117.576-11.058 2.349-22.513 3.572-34.268 3.572C75.155 585.74.5 510.317.5 417.262c0-62.359 33.542-116.806 83.378-145.936-10.26-23.61-15.967-49.666-15.967-77.06C67.911 87.251 154.79.5 261.948.5c62.914 0 118.827 29.913 154.275 76.263" fill="#00a1e0"/><path d="M145.196 363.11c-.627 1.636.227 1.978.427 2.263 1.878 1.366 3.785 2.348 5.706 3.443 10.19 5.408 19.81 6.988 29.87 6.988 20.493 0 33.215-10.901 33.215-28.448v-.341c0-16.223-14.359-22.115-27.835-26.37l-1.75-.569c-10.161-3.301-18.928-6.148-18.928-12.836v-.356c0-5.72 5.123-9.933 13.064-9.933 8.823 0 19.297 2.932 26.043 6.66 0 0 1.978 1.28 2.703-.64.399-1.025 3.814-10.218 4.17-11.214.384-1.082-.299-1.879-.996-2.306-7.699-4.681-18.344-7.883-29.358-7.883l-2.05.014c-18.756 0-31.848 11.328-31.848 27.565v.341c0 17.12 14.444 22.67 27.978 26.54l2.177.67c9.862 3.03 18.358 5.635 18.358 12.58v.341c0 6.347-5.522 11.072-14.43 11.072-3.458 0-14.487-.071-26.398-7.6-1.438-.84-2.277-1.451-3.387-2.12-.584-.37-2.05-1.01-2.69.925l-4.041 11.214zm299.998 0c-.626 1.636.228 1.978.427 2.263 1.879 1.366 3.786 2.348 5.707 3.443 10.19 5.408 19.81 6.988 29.87 6.988 20.493 0 33.215-10.901 33.215-28.448v-.341c0-16.223-14.359-22.115-27.835-26.37l-1.75-.569c-10.162-3.301-18.928-6.148-18.928-12.836v-.356c0-5.72 5.123-9.933 13.064-9.933 8.823 0 19.297 2.932 26.042 6.66 0 0 1.978 1.28 2.704-.64.399-1.025 3.814-10.218 4.17-11.214.384-1.082-.299-1.879-.996-2.306-7.7-4.681-18.344-7.883-29.358-7.883l-2.05.014c-18.756 0-31.848 11.328-31.848 27.565v.341c0 17.12 14.444 22.67 27.978 26.54l2.177.67c9.862 3.03 18.372 5.635 18.372 12.58v.341c0 6.347-5.536 11.072-14.444 11.072-3.458 0-14.487-.071-26.398-7.6-1.438-.84-2.292-1.423-3.373-2.12-.37-.242-2.106-.91-2.704.925l-4.042 11.214zm204.801-34.37c0 9.919-1.85 17.731-5.493 23.253-3.6 5.465-9.05 8.126-16.65 8.126-7.613 0-13.035-2.647-16.579-8.126-3.586-5.507-5.407-13.334-5.407-23.253 0-9.905 1.821-17.703 5.407-23.168 3.544-5.408 8.966-8.04 16.58-8.04 7.598 0 13.049 2.632 16.663 8.04 3.63 5.465 5.48 13.263 5.48 23.168m17.105-18.386c-1.68-5.678-4.298-10.688-7.785-14.857-3.486-4.184-7.898-7.543-13.135-9.99-5.222-2.434-11.399-3.672-18.329-3.672-6.945 0-13.12 1.238-18.343 3.672-5.237 2.447-9.649 5.806-13.15 9.99-3.472 4.184-6.09 9.193-7.784 14.857-1.665 5.65-2.504 11.825-2.504 18.386 0 6.56.84 12.75 2.504 18.386 1.694 5.664 4.298 10.673 7.799 14.857 3.486 4.184 7.912 7.528 13.135 9.905 5.237 2.376 11.398 3.586 18.343 3.586 6.93 0 13.092-1.21 18.33-3.586 5.222-2.377 9.648-5.721 13.134-9.905 3.487-4.17 6.105-9.179 7.785-14.857 1.679-5.65 2.518-11.84 2.518-18.386 0-6.546-.84-12.737-2.518-18.386" fill="#fff"/><path d="M807.568 357.47c-.569-1.665-2.177-1.039-2.177-1.039-2.49.954-5.137 1.836-7.955 2.277-2.86.442-6.005.67-9.378.67-8.282 0-14.857-2.463-19.567-7.33-4.725-4.867-7.372-12.736-7.343-23.38.028-9.692 2.362-16.978 6.56-22.528 4.17-5.522 10.516-8.354 18.984-8.354 7.058 0 12.437.812 18.073 2.59 0 0 1.352.584 1.992-1.18 1.494-4.156 2.604-7.13 4.198-11.698.456-1.295-.654-1.85-1.053-2.007-2.22-.868-7.457-2.277-11.413-2.875-3.7-.569-8.026-.868-12.836-.868-7.187 0-13.59 1.224-19.07 3.672-5.464 2.433-10.103 5.792-13.775 9.976-3.671 4.184-6.46 9.193-8.325 14.857-1.85 5.65-2.789 11.854-2.789 18.414 0 14.188 3.828 25.658 11.385 34.054 7.57 8.425 18.94 12.709 33.77 12.709 8.765 0 17.76-1.78 24.22-4.327 0 0 1.238-.597.697-2.035l-4.198-11.598zm29.929-38.232c.811-5.507 2.334-10.09 4.682-13.662 3.543-5.422 8.951-8.396 16.55-8.396 7.6 0 12.623 2.989 16.223 8.396 2.391 3.572 3.43 8.354 3.843 13.662h-41.298zm57.592-12.11c-1.452-5.48-5.052-11.015-7.414-13.548-3.729-4.013-7.372-6.817-10.987-8.382-4.724-2.02-10.388-3.359-16.593-3.359-7.229 0-13.79 1.21-19.112 3.715-5.336 2.504-9.819 5.92-13.334 10.175-3.515 4.24-6.162 9.292-7.841 15.027-1.693 5.707-2.547 11.926-2.547 18.486 0 6.674.882 12.893 2.632 18.486 1.765 5.635 4.583 10.602 8.397 14.715 3.8 4.14 8.695 7.385 14.558 9.648 5.82 2.248 12.893 3.415 21.019 3.401 16.72-.057 25.53-3.785 29.158-5.792.64-.356 1.253-.982.484-2.775l-3.785-10.602c-.57-1.58-2.177-.996-2.177-.996-4.142 1.537-10.033 4.298-23.766 4.27-8.98-.015-15.64-2.662-19.81-6.803-4.283-4.24-6.374-10.474-6.744-19.268l57.905.057s1.522-.029 1.679-1.509c.057-.626 1.992-11.897-1.722-24.946m-521.327 12.11c.825-5.507 2.334-10.09 4.682-13.662 3.543-5.422 8.95-8.396 16.55-8.396 7.6 0 12.623 2.989 16.237 8.396 2.377 3.572 3.416 8.354 3.828 13.662h-41.297zm57.577-12.11c-1.451-5.48-5.037-11.015-7.4-13.548-3.728-4.013-7.371-6.817-10.986-8.382-4.724-2.02-10.388-3.359-16.593-3.359-7.215 0-13.79 1.21-19.112 3.715-5.336 2.504-9.819 5.92-13.334 10.175-3.515 4.24-6.162 9.292-7.841 15.027-1.68 5.707-2.547 11.926-2.547 18.486 0 6.674.882 12.893 2.632 18.486 1.765 5.635 4.583 10.602 8.396 14.715 3.8 4.14 8.695 7.385 14.558 9.648 5.82 2.248 12.894 3.415 21.02 3.401 16.72-.057 25.53-3.785 29.158-5.792.64-.356 1.252-.982.484-2.775l-3.771-10.602c-.584-1.58-2.192-.996-2.192-.996-4.14 1.537-10.018 4.298-23.78 4.27-8.965-.015-15.625-2.662-19.794-6.803-4.284-4.24-6.376-10.474-6.746-19.268l57.905.057s1.523-.029 1.68-1.509c.056-.626 1.992-11.897-1.737-24.946" fill="#fff" fill-rule="evenodd"/><path d="M248.6 357.153c-2.262-1.807-2.575-2.263-3.344-3.43-1.138-1.779-1.722-4.312-1.722-7.528 0-5.094 1.68-8.752 5.166-11.214-.042.015 4.981-4.34 16.793-4.183 8.296.113 15.71 1.337 15.71 1.337v26.327h.015s-7.358 1.58-15.64 2.078c-11.783.711-17.02-3.401-16.977-3.387m23.04-40.686c-2.349-.17-5.394-.27-9.037-.27-4.967 0-9.763.626-14.26 1.836-4.525 1.21-8.595 3.102-12.096 5.606a27.92 27.92 0 0 0-8.396 9.55c-2.05 3.813-3.088 8.31-3.088 13.348 0 5.123.882 9.577 2.647 13.22 1.765 3.657 4.312 6.703 7.557 9.05 3.216 2.349 7.186 4.07 11.797 5.11 4.54 1.039 9.691 1.565 15.326 1.565 5.935 0 11.855-.484 17.59-1.466 5.678-.967 12.65-2.376 14.586-2.817 1.921-.456 4.056-1.04 4.056-1.04 1.437-.355 1.323-1.892 1.323-1.892l-.028-52.953c0-11.612-3.102-20.221-9.207-25.558-6.077-5.322-15.028-8.012-26.598-8.012-4.34 0-11.327.598-15.511 1.437 0 0-12.651 2.448-17.86 6.518 0 0-1.138.712-.512 2.305l4.098 11.015c.513 1.423 1.893.94 1.893.94s.441-.171.953-.47c11.143-6.063 25.232-5.878 25.232-5.878 6.261 0 11.071 1.253 14.316 3.743 3.159 2.42 4.767 6.077 4.767 13.79v2.447c-4.98-.711-9.549-1.124-9.549-1.124" fill="#fff"/><path d="M738.668 286.63c.442-1.308-.483-1.934-.868-2.077-.982-.384-5.905-1.423-9.705-1.665-7.272-.44-11.313.783-14.928 2.405-3.586 1.623-7.57 4.241-9.79 7.215v-7.044c0-.982-.698-1.765-1.666-1.765h-14.843c-.967 0-1.665.783-1.665 1.765v86.367c0 .967.797 1.764 1.765 1.764h15.213c.967 0 1.75-.797 1.75-1.764v-43.148c0-5.792.64-11.57 1.921-15.199 1.253-3.586 2.96-6.46 5.066-8.524 2.12-2.05 4.526-3.486 7.159-4.298 2.69-.825 5.663-1.095 7.77-1.095 3.03 0 6.36.782 6.36.782 1.11.128 1.737-.555 2.107-1.565.996-2.647 3.814-10.573 4.354-12.153m-142.794-40.028c-1.85-.57-3.53-.954-5.72-1.366-2.22-.399-4.868-.598-7.87-.598-10.474 0-18.728 2.96-24.52 8.794-5.763 5.807-9.677 14.644-11.64 26.27l-.712 3.914h-13.15s-1.593-.057-1.935 1.68l-2.149 12.053c-.156 1.138.342 1.864 1.879 1.864h12.793l-12.978 72.463c-1.01 5.835-2.178 10.63-3.473 14.273-1.266 3.587-2.504 6.276-4.041 8.24-1.48 1.878-2.875 3.273-5.294 4.084-1.992.67-4.298.982-6.816.982-1.395 0-3.26-.228-4.64-.512-1.366-.27-2.092-.57-3.13-1.01 0 0-1.495-.57-2.092.924-.47 1.239-3.885 10.617-4.298 11.77-.399 1.152.17 2.049.896 2.319 1.708.598 2.975.996 5.294 1.551 3.216.754 5.935.797 8.482.797 5.322 0 10.19-.754 14.216-2.206 4.042-1.466 7.571-4.013 10.702-7.457 3.373-3.728 5.493-7.627 7.514-12.964 2.006-5.265 3.728-11.811 5.094-19.44l13.05-73.814h19.07s1.607.057 1.935-1.694l2.163-12.039c.142-1.153-.342-1.864-1.893-1.864h-18.514c.1-.413.939-6.93 3.06-13.064.91-2.604 2.618-4.725 4.055-6.176 1.423-1.423 3.06-2.434 4.853-3.017 1.836-.598 3.928-.882 6.219-.882 1.736 0 3.458.199 4.753.47 1.793.384 2.49.583 2.96.725 1.892.57 2.149.014 2.519-.896l4.425-12.154c.456-1.309-.668-1.864-1.067-2.02m-258.68 125.232c0 .968-.697 1.75-1.665 1.75h-15.355c-.967 0-1.65-.782-1.65-1.75v-123.58c0-.968.683-1.75 1.65-1.75h15.355c.968 0 1.665.782 1.665 1.75v123.58z" fill="#fff" fill-rule="evenodd"/></svg>