<svg width="32" height="32" viewBox="0 0 32 32" fill="none" xmlns="http://www.w3.org/2000/svg">
<path fill-rule="evenodd" clip-rule="evenodd" d="M19.6718 1.08333C19.6824 1.09335 19.9103 1.20215 20.178 1.32514C20.8544 1.6354 22.2037 2.45015 22.3579 2.64132C22.3704 2.65718 22.4845 2.74817 22.6111 2.84389C23.1626 3.26017 23.701 3.78024 24.3702 4.54323C24.8681 5.11088 25.7282 6.32966 25.9764 6.81912C26.0337 6.93182 26.1002 7.037 26.1244 7.05258C26.1486 7.06817 26.1636 7.08904 26.1575 7.09905C26.1414 7.12521 26.5479 7.94664 26.5936 7.98003C26.615 7.99561 26.6333 8.02705 26.6347 8.04959C26.637 8.08883 26.6603 8.14782 26.8259 8.53154C27.0432 9.03547 27.4573 10.2504 27.531 10.6012C27.5371 10.6299 27.5775 10.7749 27.6206 10.9232C27.6635 11.0712 27.7172 11.2983 27.7397 11.4274C27.762 11.5562 27.8246 11.8707 27.8783 12.1256C27.9323 12.3807 27.976 12.6718 27.9757 12.7722C27.9751 12.873 27.9857 12.9726 27.999 12.9943C28.0124 13.0157 28.0324 13.1526 28.0436 13.2982C28.055 13.444 28.0828 13.7512 28.1059 13.9807C28.3691 16.5972 27.7197 20.255 26.5351 22.8314C26.2285 23.4981 26.194 23.5685 26.0373 23.8473C25.9549 23.9939 25.9021 24.1144 25.9196 24.1147C25.9374 24.1153 25.9288 24.1308 25.9001 24.1495C25.8717 24.1684 25.8033 24.2672 25.7482 24.369C25.6931 24.4712 25.6071 24.6172 25.557 24.6938C25.5069 24.7703 25.4499 24.8641 25.4304 24.9025C25.389 24.9832 24.9543 25.6454 24.8978 25.7142C24.877 25.7395 24.7412 25.917 24.5962 26.1082C23.0399 28.1617 20.8934 29.8722 18.7636 30.7562C18.2966 30.9499 17.1786 31.3192 16.9076 31.3692C16.8316 31.3834 16.7067 31.4063 16.6301 31.4204C15.8204 31.5693 16.1226 31.6186 17.1867 31.5109C17.2888 31.5006 17.5081 31.4803 17.6736 31.4655C17.8395 31.4508 18.0379 31.4282 18.1144 31.4152C18.3565 31.3734 18.62 31.3445 18.7519 31.3448C18.822 31.345 18.8796 31.3281 18.8796 31.3069C18.8796 31.286 18.9347 31.2796 19.0023 31.2924C19.095 31.3103 19.1161 31.3011 19.088 31.2557C19.0644 31.2176 19.0691 31.2067 19.1003 31.2259C19.1275 31.2429 19.2614 31.2318 19.3975 31.2012C19.5335 31.1706 19.6604 31.1497 19.6796 31.1544C19.6985 31.1594 19.7144 31.1411 19.7144 31.1138C19.7144 31.0863 19.7533 31.0768 19.802 31.0921C19.8518 31.108 19.92 31.0902 19.959 31.0512C19.9968 31.0134 20.0397 30.9939 20.0539 31.0081C20.0681 31.0223 20.1802 30.9955 20.3029 30.9482C20.4256 30.9012 20.5417 30.86 20.5606 30.8564C20.5798 30.8531 20.6006 30.8461 20.607 30.8408C20.6134 30.8358 20.6569 30.8244 20.7033 30.8155C20.7501 30.8066 20.8603 30.7651 20.9485 30.7234C21.037 30.6814 21.1449 30.6399 21.1886 30.6307C21.3475 30.5979 21.9839 30.2484 21.951 30.212C21.9324 30.1914 21.9427 30.1891 21.9739 30.2072C22.005 30.225 22.0796 30.2075 22.14 30.168C22.2001 30.1285 22.2633 30.1104 22.2802 30.1274C22.2975 30.1446 22.3114 30.1365 22.3114 30.1096C22.3114 30.0826 22.362 30.0475 22.4241 30.0319C22.4861 30.0166 22.5691 29.9713 22.6089 29.9317C22.6484 29.8922 22.7266 29.8511 22.7825 29.8402C22.8384 29.8294 22.8966 29.801 22.9113 29.7768C22.9261 29.7528 22.9681 29.7261 23.0043 29.7178C23.0694 29.7027 23.1926 29.6173 23.3104 29.5055C23.344 29.4735 23.3938 29.4473 23.4211 29.4473C23.4484 29.4473 23.4709 29.4253 23.4709 29.3983C23.4709 29.3713 23.4898 29.361 23.5132 29.3755C23.5366 29.3897 23.5627 29.385 23.5711 29.3647C23.5797 29.3443 23.691 29.2556 23.8187 29.1674C23.9462 29.0789 24.0675 28.9804 24.0881 28.9478C24.109 28.9155 24.1446 28.9005 24.1677 28.915C24.1908 28.9292 24.2364 28.8983 24.269 28.8463C24.3012 28.7942 24.3519 28.7516 24.3814 28.7516C24.4109 28.7516 24.4468 28.7205 24.4615 28.6821C24.4763 28.644 24.5152 28.6125 24.5481 28.6125C24.5809 28.6125 24.634 28.5708 24.6658 28.5199C24.6978 28.4689 24.7465 28.4272 24.7743 28.4272C24.8461 28.4272 26.189 27.0687 26.4561 26.7262C26.5788 26.5684 26.7099 26.4279 26.7474 26.4134C26.785 26.399 26.8028 26.3661 26.7867 26.3402C26.7708 26.3144 26.7903 26.2807 26.8301 26.2654C26.8701 26.2501 26.9027 26.2083 26.9027 26.173C26.9027 26.1374 26.9353 26.1082 26.9751 26.1082C27.0148 26.1082 27.036 26.0898 27.0218 26.0673C27.0079 26.0444 27.0274 26.0005 27.0649 25.969C27.1028 25.9379 27.1231 25.8953 27.1103 25.8744C27.0975 25.8536 27.1292 25.8232 27.181 25.8068C27.2327 25.7904 27.265 25.7606 27.2528 25.7409C27.2405 25.7211 27.2703 25.6621 27.319 25.6101C27.3674 25.558 27.3952 25.503 27.3802 25.4882C27.3655 25.4735 27.3874 25.4481 27.4295 25.432C27.4712 25.4159 27.5057 25.3814 27.5057 25.3552C27.5057 25.329 27.5444 25.2737 27.5917 25.2325C27.639 25.1913 27.6919 25.1131 27.7091 25.0588C27.7261 25.0046 27.7906 24.9016 27.8521 24.8298C27.9136 24.7583 27.9545 24.6843 27.9431 24.6657C27.9317 24.647 27.9523 24.6014 27.9896 24.5644C28.0708 24.4831 28.3499 23.975 28.3132 23.975C28.299 23.975 28.3213 23.9411 28.3625 23.8996C28.474 23.7883 28.8116 23.0968 28.7798 23.0453C28.7645 23.0209 28.7693 23.0008 28.7899 23.0006C28.8105 23.0003 28.8636 22.9218 28.9081 22.8266C29.0333 22.5578 29.1446 22.2868 29.1513 22.2359C29.1591 22.1733 29.2568 21.9304 29.3144 21.8307C29.3397 21.7862 29.3606 21.7094 29.3606 21.6593C29.3606 21.6095 29.3828 21.555 29.4101 21.5383C29.4374 21.5213 29.4485 21.4785 29.4349 21.4426C29.4212 21.407 29.4282 21.3777 29.4505 21.3777C29.5014 21.3777 29.5926 21.1206 29.5926 20.9768C29.5926 20.9167 29.6088 20.8677 29.6288 20.8677C29.6489 20.8677 29.6692 20.8165 29.6745 20.7542C29.6797 20.6915 29.7251 20.5318 29.7757 20.3991C29.8261 20.2664 29.8573 20.1414 29.845 20.1217C29.8331 20.1019 29.8445 20.0724 29.8709 20.056C29.8971 20.0399 29.909 20.0109 29.8973 19.9917C29.8854 19.9725 29.9121 19.8122 29.9563 19.6355C30.0006 19.4588 30.0354 19.2827 30.0334 19.2446C30.0315 19.2062 30.0479 19.1622 30.0696 19.1469C30.0913 19.1316 30.1163 19.0273 30.1252 18.9151C30.1339 18.803 30.1828 18.4504 30.2338 18.1315C30.2847 17.8127 30.3314 17.5099 30.3373 17.459C30.386 17.0369 30.3428 13.6794 30.2886 13.6794C30.2677 13.6794 30.2608 13.6399 30.2736 13.5917C30.2861 13.5433 30.2633 13.3399 30.2226 13.1395C30.182 12.9389 30.1458 12.7124 30.1422 12.6359C30.1386 12.5594 30.0829 12.2881 30.0189 12.0329C29.9547 11.7777 29.9043 11.5326 29.9068 11.4881C29.9093 11.4433 29.8921 11.4068 29.8684 11.4068C29.8448 11.4068 29.8306 11.3704 29.8364 11.3256C29.8509 11.219 29.608 10.4042 29.4599 10.062C29.4212 9.97265 29.3856 9.88389 29.3809 9.86469C29.3762 9.84577 29.3673 9.81432 29.3609 9.79512C29.3547 9.7762 29.352 9.74532 29.355 9.72667C29.3578 9.70803 29.3211 9.62288 29.2732 9.53801C29.2253 9.45286 29.1719 9.31735 29.1541 9.23721C29.1366 9.15679 29.0712 9.01599 29.0089 8.92389C28.9462 8.83206 28.9056 8.74052 28.9179 8.72048C28.9301 8.70045 28.882 8.59192 28.8105 8.47923C28.7389 8.36625 28.6663 8.21878 28.6496 8.15116C28.6327 8.08382 28.567 7.96723 28.5041 7.8921C28.4409 7.81725 28.4028 7.74267 28.4189 7.72625C28.4354 7.71012 28.4231 7.69676 28.3917 7.69676C28.3605 7.69676 28.3477 7.67589 28.3636 7.65029C28.3794 7.62469 28.3716 7.60382 28.3463 7.60382C28.306 7.60382 28.2333 7.45662 28.2267 7.36229C28.2233 7.31304 28.0959 7.13523 28.0066 7.05509C27.9632 7.01613 27.9384 6.96744 27.9512 6.94629C27.9643 6.92542 27.9515 6.90817 27.9231 6.90817C27.8944 6.90817 27.8841 6.8873 27.8997 6.86198C27.9156 6.83638 27.9103 6.81551 27.888 6.81551C27.8655 6.81551 27.8004 6.73203 27.743 6.62991C27.6857 6.52806 27.6192 6.44459 27.5953 6.44459C27.5716 6.44459 27.5519 6.41314 27.5519 6.37502C27.5519 6.33662 27.5299 6.30545 27.5029 6.30545C27.4759 6.30545 27.4667 6.28431 27.4826 6.25871C27.4985 6.23311 27.479 6.19944 27.4389 6.18413C27.3991 6.16883 27.3666 6.12959 27.3666 6.09676C27.3666 6.06392 27.3321 6.02385 27.2903 6.00772C27.2483 5.99158 27.2266 5.96598 27.2419 5.95067C27.2572 5.93537 27.1977 5.85272 27.1095 5.76702C27.0212 5.68132 26.9492 5.5906 26.9492 5.56556C26.9492 5.54024 26.8874 5.47401 26.8117 5.41808C26.7363 5.36243 26.6834 5.30205 26.6946 5.28396C26.7057 5.26615 26.6214 5.17321 26.5073 5.07777C26.3932 4.9826 26.2997 4.87965 26.2997 4.84959C26.2997 4.78253 25.8634 4.34566 25.83 4.37905C25.8169 4.39213 25.7162 4.2978 25.6066 4.16952C25.4969 4.04125 25.397 3.94636 25.3848 3.95832C25.3728 3.97057 25.2821 3.8985 25.1839 3.79805C25.0854 3.69759 24.9885 3.61523 24.9682 3.61467C24.9482 3.61439 24.8825 3.56208 24.8224 3.49864C24.7623 3.43547 24.6852 3.38372 24.6507 3.38372C24.6165 3.38372 24.5717 3.357 24.5514 3.32417C24.5127 3.26239 24.0466 2.91986 24.001 2.91986C23.9865 2.91986 23.9064 2.86754 23.8226 2.80382C23.7392 2.7401 23.6496 2.68806 23.6234 2.68806C23.5975 2.68806 23.5204 2.64438 23.4528 2.59095C23.3465 2.50747 23.2733 2.47659 23.1417 2.45961C23.1264 2.45766 23.0663 2.41481 23.0082 2.36417C22.95 2.3138 22.8841 2.28375 22.8615 2.29766C22.8393 2.31158 22.8084 2.29043 22.7931 2.25064C22.778 2.21085 22.7474 2.18942 22.7255 2.20306C22.7037 2.21669 22.6011 2.17161 22.4976 2.10316C22.394 2.03471 22.2975 1.99074 22.283 2.00549C22.2683 2.01996 22.1656 1.98128 22.0548 1.91951C21.9441 1.85773 21.8052 1.79819 21.7462 1.78733C21.6873 1.7762 21.6388 1.76424 21.6388 1.76034C21.6388 1.75645 21.6035 1.74643 21.5601 1.73808C21.5167 1.72973 21.3667 1.66879 21.2267 1.60257C21.0868 1.53634 20.9309 1.48208 20.8803 1.48208C20.8299 1.48208 20.6911 1.44034 20.572 1.38914C20.4526 1.33822 20.3363 1.30817 20.3129 1.32236C20.2898 1.33683 20.2709 1.32292 20.2709 1.29175C20.2709 1.26031 20.2587 1.24695 20.2439 1.2617C20.2295 1.27645 20.1034 1.23805 19.9645 1.17655C19.7286 1.0722 19.6262 1.03965 19.6718 1.08333ZM13.5693 6.32855C13.3909 6.36166 13.1508 6.41259 13.0361 6.44152C12.9212 6.47046 12.7857 6.50024 12.7345 6.50803C12.6065 6.52723 12.0781 6.70949 11.8535 6.81161C11.7514 6.85808 11.6159 6.91234 11.5519 6.9321C11.4882 6.95185 11.3582 7.01725 11.2631 7.07735C11.1679 7.13745 11.0705 7.18643 11.0466 7.18643C11.0226 7.18643 10.9962 7.20229 10.9878 7.22121C10.9792 7.24041 10.8782 7.30636 10.7636 7.36758C9.43098 8.0802 7.9562 9.77036 7.11752 11.5459C6.90493 11.9962 6.72405 12.4734 6.76552 12.4742C6.7836 12.4745 6.77721 12.4904 6.75161 12.509C6.65032 12.583 6.17533 14.3469 6.23933 14.4112C6.25296 14.4248 6.24629 14.4588 6.2243 14.4866C6.20232 14.5144 6.17143 14.6939 6.15612 14.8851C6.14054 15.0765 6.09575 15.4274 6.05651 15.665C6.01728 15.903 5.99724 16.1167 6.01199 16.1406C6.02674 16.1642 6.01923 16.1837 5.9953 16.1837C5.97164 16.1837 5.93964 16.2622 5.92434 16.3582C5.81888 17.0174 5.48858 17.1832 4.30569 17.1718C3.80176 17.1668 3.38966 17.1807 3.38966 17.203C3.38966 17.2252 3.52016 17.2431 3.6796 17.2428C3.83905 17.2425 4.11536 17.2667 4.29401 17.2968C4.66938 17.3594 5.27293 17.3994 6.03703 17.412C6.33255 17.417 6.59884 17.4359 6.62834 17.4543C6.65895 17.4732 6.6826 17.4612 6.68315 17.427C6.68343 17.39 6.69707 17.3844 6.71794 17.4125C6.80169 17.5266 7.9331 17.4838 8.17436 17.3577C8.40309 17.238 8.55362 17.0822 8.50966 17.011C8.4963 16.9896 8.50409 16.972 8.52663 16.972C8.58451 16.972 8.78848 16.3 8.7562 16.216C8.74145 16.1776 8.74228 16.1334 8.75814 16.1175C8.77401 16.1016 8.79348 15.9814 8.80128 15.8504C8.81352 15.6461 8.85109 15.3985 8.9866 14.6299C8.99996 14.5534 9.01415 14.444 9.01777 14.3864C9.02138 14.3291 9.03557 14.2821 9.0492 14.2821C9.06256 14.2821 9.07842 14.2259 9.08427 14.1571C9.08983 14.0881 9.13742 13.9109 9.19001 13.7631C9.24232 13.6154 9.27238 13.4735 9.25651 13.4476C9.24065 13.422 9.24984 13.4011 9.27683 13.4011C9.30382 13.4011 9.32163 13.3852 9.31634 13.3663C9.30354 13.3196 9.46687 12.8343 9.51724 12.7706C9.53894 12.7427 9.54562 12.7088 9.53199 12.6949C9.51808 12.6812 9.55008 12.593 9.60267 12.4993C9.65554 12.4052 9.68781 12.3106 9.67418 12.2889C9.66082 12.2672 9.66611 12.2424 9.68587 12.2341C9.75238 12.2051 10.1595 11.3495 10.1297 11.3013C10.1124 11.2735 10.1225 11.2674 10.1536 11.2863C10.1828 11.3047 10.207 11.2966 10.207 11.2685C10.207 11.2115 10.3965 10.9285 10.4508 10.9043C10.47 10.8956 10.4742 10.8698 10.4597 10.8464C10.4452 10.823 10.4578 10.8038 10.4875 10.8038C10.5173 10.8038 10.5293 10.7715 10.514 10.732C10.4987 10.6922 10.5034 10.6705 10.524 10.6831C10.5632 10.7075 10.7232 10.547 10.6915 10.5153C10.6815 10.5052 10.733 10.4318 10.8061 10.3519C10.8793 10.2718 10.9289 10.1961 10.9163 10.1836C10.9038 10.1713 10.9375 10.1338 10.9909 10.1004C11.0443 10.067 11.0883 10.0208 11.0883 9.9977C11.0883 9.95318 11.11 9.92952 11.5753 9.4626C11.7386 9.29871 11.8616 9.14761 11.8485 9.12646C11.8354 9.10532 11.8538 9.08806 11.8894 9.08806C11.925 9.08806 12.0283 9.00959 12.1193 8.91415C12.2976 8.72577 12.4398 8.60166 12.4785 8.59999C12.4918 8.59944 12.5634 8.54184 12.6374 8.47199C12.7117 8.40215 12.7804 8.35318 12.7907 8.36319C12.8007 8.37349 12.8834 8.31144 12.9746 8.22545C13.0656 8.13947 13.1572 8.07965 13.178 8.09272C13.1989 8.10552 13.2329 8.08799 13.2534 8.05377C13.274 8.01954 13.3954 7.94191 13.5231 7.88125C13.6505 7.82059 13.7827 7.74379 13.8166 7.71012C13.8506 7.67672 13.8973 7.66142 13.921 7.67589C13.9444 7.69036 13.9636 7.68006 13.9636 7.65307C13.9636 7.62608 13.9936 7.60382 14.0304 7.60382C14.0674 7.60382 14.1745 7.55846 14.2685 7.50309C14.3626 7.44744 14.4733 7.39874 14.5145 7.39457C14.556 7.39067 14.6645 7.35505 14.7561 7.31554C14.955 7.22984 15.1209 7.17558 15.2157 7.16528C15.403 7.14469 15.6331 7.07958 15.6331 7.04702C15.6331 7.02726 15.6802 7.01168 15.7375 7.01279C15.7948 7.01391 15.9609 6.99415 16.1065 6.96883C16.252 6.94351 16.4345 6.92681 16.5122 6.93126C16.5898 6.93599 16.6538 6.91707 16.6541 6.88925C16.6546 6.86142 16.6749 6.87005 16.6997 6.90817C16.7398 6.97022 16.7448 6.97022 16.7462 6.90817C16.747 6.86726 16.7615 6.8578 16.7818 6.88507C16.8018 6.91234 16.9493 6.9218 17.1405 6.90817C17.52 6.88118 17.493 6.84918 16.9207 6.64855C15.9495 6.30796 14.4503 6.16493 13.5693 6.32855ZM2.70569 17.1432C2.75021 17.1548 2.8234 17.1548 2.86792 17.1432C2.91244 17.1315 2.87599 17.122 2.78667 17.122C2.69735 17.122 2.66089 17.1315 2.70569 17.1432Z" fill="#A49C9C"/>
<path fill-rule="evenodd" clip-rule="evenodd" d="M23.9351 4.10266C24.0217 4.19198 24.1029 4.26488 24.1157 4.26488C24.1285 4.26488 24.0681 4.19198 23.9816 4.10266C23.895 4.01333 23.8138 3.94043 23.801 3.94043C23.7882 3.94043 23.8486 4.01333 23.9351 4.10266ZM14.2425 6.24749C14.2425 6.29006 14.9267 6.28617 14.9696 6.24332C14.9862 6.22662 14.8296 6.21271 14.6212 6.21271C14.413 6.21271 14.2425 6.22857 14.2425 6.24749ZM26.6284 8.13744C26.6284 8.16304 26.6582 8.23594 26.6946 8.29966C26.7311 8.36366 26.7609 8.39483 26.7609 8.36923C26.7609 8.34391 26.7311 8.27073 26.6946 8.207C26.6582 8.14328 26.6284 8.11184 26.6284 8.13744ZM9.25463 8.49695L9.07153 8.69396L9.26854 8.51059C9.37706 8.40986 9.46555 8.32109 9.46555 8.31358C9.46555 8.27852 9.42521 8.31358 9.25463 8.49695ZM27.9237 12.6127C27.9237 12.6892 27.941 12.7518 27.9618 12.7518C27.983 12.7518 27.991 12.6892 27.9799 12.6127C27.9688 12.5362 27.9515 12.4736 27.9415 12.4736C27.9318 12.4736 27.9237 12.5362 27.9237 12.6127ZM28.0734 13.8649C28.0734 13.9542 28.0832 13.9907 28.0948 13.9461C28.1062 13.9016 28.1062 13.8284 28.0948 13.7839C28.0832 13.7391 28.0734 13.7756 28.0734 13.8649ZM28.1224 14.6301C28.1227 14.7578 28.1318 14.8043 28.1424 14.7339C28.153 14.6635 28.1527 14.5591 28.1419 14.5021C28.1307 14.4451 28.1221 14.5027 28.1224 14.6301ZM28.1218 15.8592C28.1218 15.9741 28.1307 16.0208 28.1419 15.9635C28.153 15.9062 28.153 15.8122 28.1419 15.7548C28.1307 15.6975 28.1218 15.7443 28.1218 15.8592ZM28.0734 16.694C28.0734 16.7833 28.0832 16.8197 28.0948 16.7752C28.1062 16.7304 28.1062 16.6575 28.0948 16.6127C28.0832 16.5682 28.0734 16.6046 28.0734 16.694ZM2.9356 17.1358C2.97846 17.1787 3.38277 17.1909 3.44566 17.1511C3.48127 17.1286 3.38388 17.1125 3.20857 17.1122C3.04496 17.1116 2.92197 17.1225 2.9356 17.1358ZM4.5164 17.1918C4.63828 17.2015 4.82611 17.2012 4.93379 17.1915C5.04148 17.182 4.94159 17.174 4.71202 17.1742C4.48246 17.1742 4.39452 17.1823 4.5164 17.1918ZM27.9343 17.9461C27.9343 18.0355 27.944 18.0719 27.9557 18.0274C27.9671 17.9826 27.9671 17.9097 27.9557 17.8649C27.944 17.8204 27.9343 17.8568 27.9343 17.9461ZM23.6569 27.1983C23.5442 27.313 23.4626 27.407 23.4754 27.407C23.4879 27.407 23.5906 27.313 23.7033 27.1983C23.816 27.0834 23.8978 26.9896 23.885 26.9896C23.8722 26.9896 23.7696 27.0834 23.6569 27.1983ZM22.6342 28.2301L22.4742 28.404L22.6482 28.2443C22.7439 28.1564 22.8221 28.0782 22.8221 28.0704C22.8221 28.035 22.7828 28.0684 22.6342 28.2301ZM22.0338 28.7557L21.8251 28.945L22.0454 28.7733C22.2386 28.6227 22.2956 28.566 22.2541 28.5665C22.2477 28.5665 22.1484 28.6517 22.0338 28.7557ZM16.0976 31.5372C16.0976 31.5642 16.0734 31.5715 16.0439 31.5534C16.01 31.5322 16.003 31.5406 16.025 31.5759C16.0517 31.619 16.0768 31.6185 16.1366 31.5731C16.1789 31.5408 16.2223 31.5086 16.2329 31.5013C16.2434 31.4941 16.2173 31.4883 16.1747 31.4883C16.1324 31.4883 16.0976 31.5102 16.0976 31.5372ZM15.6986 31.5884C15.6875 31.6065 15.7356 31.611 15.8057 31.5984C15.9777 31.5673 16.005 31.5317 15.8466 31.5447C15.7765 31.5506 15.71 31.5703 15.6986 31.5884Z" fill="#8C8C8C"/>
<path fill-rule="evenodd" clip-rule="evenodd" d="M28.0764 14.2367C28.0764 14.3769 28.085 14.4343 28.0956 14.3641C28.1062 14.294 28.1062 14.1791 28.0956 14.109C28.085 14.0389 28.0764 14.0965 28.0764 14.2367ZM6.04427 15.4424C6.04427 15.5317 6.05373 15.5682 6.06542 15.5237C6.0771 15.4789 6.0771 15.406 6.06542 15.3612C6.05373 15.3166 6.04427 15.3531 6.04427 15.4424ZM28.0772 16.2772C28.0772 16.443 28.0856 16.5109 28.0959 16.428C28.1062 16.3451 28.1062 16.2093 28.0959 16.1264C28.0856 16.0435 28.0772 16.1113 28.0772 16.2772ZM3.74945 17.1459C3.8577 17.1557 4.03523 17.1557 4.14347 17.1459C4.252 17.1362 4.16323 17.1281 3.94646 17.1281C3.7297 17.1281 3.64093 17.1362 3.74945 17.1459ZM23.0288 27.8367L22.7986 28.0802L23.0421 27.8501C23.176 27.7234 23.2856 27.6138 23.2856 27.6066C23.2856 27.5718 23.2427 27.6105 23.0288 27.8367ZM15.5408 31.5815C15.5408 31.6071 15.5708 31.628 15.6075 31.628C15.6443 31.628 15.6871 31.6071 15.703 31.5815C15.7188 31.5559 15.6888 31.5351 15.6362 31.5351C15.5836 31.5351 15.5408 31.5559 15.5408 31.5815Z" fill="#545454"/>
<path fill-rule="evenodd" clip-rule="evenodd" d="M13.917 0.305743C12.5766 0.542822 11.608 0.806613 10.8795 1.13357C10.7518 1.19061 10.5974 1.25322 10.5361 1.27242C10.4131 1.3111 9.48876 1.78331 9.23304 1.9383C9.14371 1.99228 8.97676 2.08995 8.86211 2.15534C8.74719 2.22046 8.56994 2.33649 8.46782 2.41273C8.3657 2.48926 8.23018 2.58693 8.16646 2.6295C8.10274 2.67235 7.98476 2.76028 7.90462 2.82512C7.82476 2.89023 7.70399 2.98484 7.63693 3.03604C7.56987 3.08696 7.48918 3.15096 7.45801 3.17795C7.42685 3.20522 7.25516 3.35298 7.07651 3.50658C6.43206 4.0606 5.01265 5.60105 5.01265 5.74658C5.01265 5.77329 4.99568 5.79527 4.97453 5.79527C4.95366 5.79527 4.83401 5.94665 4.70907 6.13169C4.58413 6.31646 4.46865 6.47813 4.45279 6.49093C4.39631 6.53628 4.03874 7.12786 4.03874 7.17628C4.03874 7.20327 4.02093 7.23221 3.99923 7.24084C3.95248 7.2592 3.75909 7.58087 3.59964 7.9056C3.53703 8.03305 3.45411 8.18971 3.41571 8.25343C3.37703 8.31715 3.31415 8.44237 3.27575 8.53169C3.23735 8.62101 3.1867 8.72536 3.16333 8.76348C3.13996 8.8016 3.08402 8.92181 3.0395 9.03006C2.9947 9.13858 2.94267 9.22734 2.92402 9.22734C2.9051 9.22734 2.87672 9.29719 2.86058 9.38261C2.84472 9.46776 2.7796 9.64529 2.71644 9.77635C2.653 9.90769 2.60096 10.0413 2.60096 10.0735C2.60068 10.1055 2.57369 10.1837 2.54058 10.2474C2.43289 10.4556 1.90419 12.1894 1.90447 12.3344C1.90447 12.3728 1.86246 12.5709 1.81098 12.7752C1.75978 12.9791 1.69773 13.3028 1.67324 13.4939C1.64875 13.6854 1.58614 14.1233 1.53383 14.4678C1.2052 16.6402 1.40611 17.1547 2.55895 17.0913C2.74789 17.081 3.35755 17.0935 3.91352 17.1191C5.68354 17.2009 5.93481 16.9911 6.05724 15.3257C6.45571 9.90908 10.8956 5.66199 15.517 6.27666C16.3126 6.38268 17.5319 6.7575 17.5336 6.89691C17.5341 6.92863 17.5642 6.95479 17.6003 6.95479C17.683 6.95479 17.9512 7.10533 17.9515 7.1518C17.9518 7.171 17.9749 7.18658 18.003 7.18658C18.0751 7.18658 18.5798 7.5038 18.6753 7.60898C18.719 7.6574 18.7738 7.69691 18.7971 7.69691C18.8205 7.69691 18.867 7.72279 18.9001 7.75479C18.9335 7.78679 19.1088 7.9351 19.2897 8.08425C20.0009 8.67138 20.8527 9.78832 21.3107 10.735C21.7077 11.555 21.8986 12.0381 21.9888 12.4504C22.0111 12.5526 22.072 12.7821 22.1243 12.9605C22.1766 13.1391 22.2401 13.4522 22.2651 13.6561C22.2902 13.8604 22.3327 14.1837 22.3594 14.3752C22.4229 14.8285 22.422 16.1054 22.358 16.5779C22.3302 16.7821 22.2882 17.1124 22.2648 17.3119C22.2231 17.6642 22.0553 18.3549 21.9075 18.7809C21.868 18.8955 21.8071 19.0925 21.7723 19.2186C21.7375 19.3444 21.6924 19.4593 21.6721 19.4735C21.6515 19.4879 21.6059 19.5937 21.5706 19.7083C21.5352 19.8232 21.4579 20.0108 21.3986 20.1254C21.3393 20.2401 21.2909 20.3505 21.2909 20.3711C21.2909 20.4017 21.09 20.7732 20.8504 21.1859C20.721 21.4085 20.4714 21.7828 20.3991 21.8621C20.354 21.9116 20.317 21.9775 20.317 22.009C20.317 22.0401 20.3006 22.073 20.2806 22.0813C20.2602 22.09 20.1253 22.243 19.9806 22.4214C19.4805 23.038 18.5793 23.8602 18.0492 24.1839C18.0074 24.2092 17.9078 24.2771 17.8277 24.3344C17.7478 24.392 17.6668 24.4388 17.6476 24.4388C17.6284 24.4388 17.5444 24.4911 17.4609 24.5548C17.3772 24.6185 17.2845 24.6708 17.2545 24.6708C17.2247 24.6708 17.1034 24.7223 16.9848 24.7855C16.6512 24.963 16.1445 25.1809 16.0655 25.1809C16.0265 25.1809 15.8245 25.2312 15.6166 25.2927C15.069 25.4544 14.4092 25.527 13.6852 25.5045C11.5671 25.4388 11.2991 25.6283 11.2248 27.2447C11.2048 27.6783 11.1536 28.5434 11.1107 29.1672C10.9941 30.8746 11.1016 31.2133 11.8306 31.4378C12.5335 31.6543 14.3951 31.7645 15.1461 31.6343C15.2991 31.6079 15.6854 31.5439 16.004 31.4921C20.4442 30.7731 24.8095 27.1142 26.5768 22.6301C26.6121 22.5407 26.6864 22.3635 26.7423 22.236C27.1828 21.2287 27.7176 19.3004 27.874 18.1548C27.9018 17.9508 27.9338 17.7316 27.945 17.6678C28.2335 16.02 28.1066 13.1533 27.6623 11.2909C27.4636 10.4578 27.0334 9.07179 26.9435 8.9744C26.921 8.95019 26.9026 8.90122 26.9026 8.8656C26.9026 8.74094 26.0222 6.91861 25.8202 6.62505C25.7781 6.56411 25.5653 6.2455 25.3471 5.91715C24.3735 4.45294 23.0339 3.10143 21.6621 2.19959C21.1329 1.85148 19.8131 1.15778 19.6806 1.15778C19.6464 1.15778 19.6074 1.12856 19.5938 1.09322C19.5791 1.05482 19.5284 1.03757 19.4678 1.05093C19.3985 1.06595 19.3851 1.05955 19.4255 1.03089C19.4967 0.979691 18.1059 0.508317 17.8839 0.508317C17.8293 0.508317 17.5981 0.463796 17.3699 0.409256C16.9709 0.313813 14.3205 0.234509 13.917 0.305743ZM26.2996 4.83583C26.2996 4.8439 26.3675 4.9118 26.4504 4.98665L26.6012 5.123L26.4649 4.97218C26.338 4.83166 26.2996 4.80021 26.2996 4.83583Z" fill="#1C1C1C"/>
<path fill-rule="evenodd" clip-rule="evenodd" d="M2.93807 17.0982C3.00875 17.1087 3.11309 17.1085 3.17014 17.0976C3.22718 17.0865 3.1693 17.0779 3.04186 17.0781C2.91441 17.0784 2.86767 17.0876 2.93807 17.0982Z" fill="#3C3460"/>
</svg>
