<svg width="32" height="32" viewBox="0 0 32 32" fill="none" xmlns="http://www.w3.org/2000/svg">
<g clip-path="url(#clip0_2785_2)">
<path d="M1.65227 2.21948C1.33584 2.57838 1.05933 2.97059 0.827637 3.38923C1.03448 3.0091 1.27943 2.65097 1.5587 2.32037C1.58794 2.28674 1.61572 2.25311 1.64496 2.22094L1.65227 2.21948Z" fill="#00E0B7"/>
<path d="M0.0424016 7.93666C0.0402083 7.96391 0.0402083 7.99129 0.0424016 8.01854C0.0630967 8.18779 0.144695 8.34372 0.271955 8.4572C0.474593 8.652 0.716306 8.80152 0.981084 8.89585C1.63262 9.12781 2.31122 9.27524 3.00028 9.33451C3.92315 9.42929 4.85064 9.47176 5.77831 9.46172C6.01517 9.46172 6.25204 9.43833 6.4889 9.43833C6.60733 9.43833 6.66143 9.39885 6.67605 9.30673C6.67367 9.26631 6.67367 9.22578 6.67605 9.18537C6.68336 8.76864 6.67605 8.35338 6.69067 7.93519C6.69067 8.31536 6.69067 8.69553 6.69067 9.0757C6.69067 9.38715 6.66435 9.36083 6.9831 9.36814C10.2466 9.3813 13.5115 9.36814 16.7793 9.38861C19.5734 9.41054 22.3705 9.38861 25.1661 9.38861C25.215 9.39169 25.2641 9.38874 25.3123 9.37984H25.3269H25.3386C25.3422 9.3777 25.3452 9.37468 25.3474 9.37106C25.3529 9.36649 25.357 9.36039 25.3591 9.35352C25.3653 9.34024 25.3688 9.3258 25.3693 9.31111C25.3717 9.2707 25.3717 9.23017 25.3693 9.18975C25.3605 8.73209 25.3693 8.27442 25.3532 7.81676C25.3532 7.5638 25.343 7.31084 25.3386 7.05788C25.3386 6.89265 25.3386 6.72889 25.3386 6.56366V6.14694C25.3386 6.0709 25.3386 6.00072 25.3386 5.9203V5.54159C25.3386 5.41438 25.3386 5.28717 25.3386 5.16142C25.3386 5.03567 25.3386 4.90846 25.3386 4.78271C25.5974 5.19213 25.9848 5.40853 26.4015 5.58546C27.1326 5.8969 27.9105 6.06067 28.6795 6.24783C29.5056 6.44815 30.3405 6.62215 31.1184 6.97892C31.4135 7.09813 31.6721 7.29275 31.8684 7.54333C31.9554 7.6546 32.0119 7.78665 32.0322 7.92642V8.01269C32.0322 14.0779 32.0322 20.1435 32.0322 26.2096C31.8418 27.7041 31.1507 29.09 30.0716 30.1413C28.9925 31.1926 27.589 31.8472 26.0901 31.9984C19.3965 31.9984 12.7024 31.9984 6.00786 31.9984C4.44649 31.8492 2.98785 31.1538 1.88885 30.0347C0.789838 28.9156 0.120953 27.4445 0 25.8806H0" fill="#5CD5C4"/>
<path fill-rule="evenodd" clip-rule="evenodd" d="M30.3859 2.21229C30.0817 2.28101 29.7747 2.33804 29.4691 2.39653C28.6023 2.54089 27.7453 2.73915 26.9031 2.99018C26.5169 3.10117 26.1511 3.27346 25.8196 3.50048C25.6557 3.60389 25.5213 3.74787 25.4293 3.91847C25.3374 4.08907 25.291 4.28052 25.2947 4.4743V4.78136C25.2947 4.90711 25.2947 5.03432 25.2947 5.16006C25.2947 5.28581 25.2947 5.41302 25.2947 5.54023V5.91894C25.2947 5.99497 25.2947 6.06516 25.2947 6.14558V6.5623C25.2947 6.72753 25.2947 6.89129 25.2947 7.05652C25.2947 7.30948 25.3035 7.56244 25.3094 7.8154C25.3196 8.27306 25.3094 8.73073 25.3255 9.18839C25.3278 9.22881 25.3278 9.26934 25.3255 9.30975C25.325 9.32444 25.3215 9.33888 25.3152 9.35216C25.3131 9.35903 25.3091 9.36513 25.3035 9.36971C25.3014 9.37332 25.2984 9.37634 25.2947 9.37848H25.283H25.2684C25.2202 9.38738 25.1711 9.39033 25.1222 9.38725C22.3266 9.38725 19.5296 9.40187 16.7355 9.38725C13.472 9.36093 10.2071 9.38725 6.93927 9.36678C6.62784 9.36678 6.64685 9.39164 6.64685 9.07434C6.64685 8.69417 6.64685 8.314 6.64685 7.93384C6.64685 6.89422 6.64685 5.85607 6.66147 4.81645V4.77989C6.67901 3.93036 6.467 3.57798 5.56049 3.17149C5.29099 3.05317 5.01406 2.95255 4.73147 2.87028L4.61011 2.83665C4.50338 2.80594 4.39518 2.77816 4.28698 2.75184C4.23288 2.73722 4.17732 2.72552 4.12322 2.71236C3.74307 2.62463 3.35707 2.55298 2.974 2.47695C2.74444 2.43016 2.51343 2.38775 2.28241 2.34389C2.1669 2.32196 2.05286 2.30002 1.93735 2.27517C1.82184 2.25031 1.71511 2.22984 1.60399 2.20498H1.59521C2.69938 0.957326 4.23215 0.170292 5.88947 0L26.1267 0C27.7727 0.180257 29.2918 0.96933 30.3859 2.21229V2.21229Z" fill="#37A596"/>
<path d="M31.9986 5.76552V7.9281C31.9783 7.78832 31.9218 7.65627 31.8348 7.545C31.6385 7.29443 31.3799 7.0998 31.0848 6.9806C30.3069 6.6209 29.4764 6.4469 28.6459 6.2495C27.8769 6.06234 27.1019 5.89858 26.368 5.58713C25.9512 5.41021 25.5638 5.1938 25.305 4.78439V4.47733C25.3005 4.28425 25.3457 4.09325 25.4364 3.92271C25.527 3.75216 25.66 3.60781 25.8226 3.50351C26.153 3.27575 26.5178 3.10247 26.9031 2.99029C27.7457 2.73921 28.6032 2.54094 29.4706 2.39664C29.7762 2.33815 30.0832 2.28113 30.3873 2.2124C31.2681 3.20869 31.8294 4.44651 31.9986 5.76552V5.76552Z" fill="#5CD5C4"/>
<path d="M6.70976 4.78878V4.82534C6.45242 5.20989 6.07666 5.41021 5.67311 5.5886C4.94205 5.89858 4.1642 6.06381 3.39513 6.25097C2.56903 6.45129 1.73416 6.62529 0.956307 6.98206C0.661111 7.10186 0.402487 7.29697 0.206238 7.54793C0.119304 7.65924 0.0628649 7.79127 0.0424805 7.93103V6.06381C0.114753 5.12884 0.380638 4.21911 0.823254 3.39239V3.38508C1.05495 2.96644 1.33145 2.57423 1.64789 2.21533C1.75901 2.24019 1.87013 2.26505 1.98125 2.28552C2.09238 2.30599 2.21081 2.33231 2.32631 2.35424C2.55733 2.39811 2.78834 2.44051 3.0179 2.4873C3.40097 2.56333 3.78697 2.63352 4.16713 2.72271C4.22122 2.73587 4.27679 2.74757 4.33088 2.76219C4.43908 2.78851 4.54728 2.81629 4.65401 2.847L4.77537 2.88063C5.05796 2.9629 5.33489 3.06352 5.60439 3.18184C6.51529 3.58686 6.72584 3.93925 6.70976 4.78878Z" fill="#5CD5C4"/>
<path d="M6.68046 9.19278C6.67807 9.2332 6.67807 9.27372 6.68046 9.31414C6.66584 9.40626 6.61174 9.44574 6.49331 9.44574C6.25644 9.44574 6.01958 9.46913 5.78271 9.46913C4.85505 9.47917 3.92755 9.4367 3.00468 9.34192C2.31563 9.28265 1.63703 9.13523 0.985493 8.90327C0.720715 8.80893 0.479002 8.65941 0.276364 8.46461C0.149105 8.35113 0.0675061 8.1952 0.0468109 8.02595C0.0446177 7.9987 0.0446177 7.97132 0.0468109 7.94407C0.0674391 7.80483 0.123866 7.67333 0.210569 7.56244C0.406817 7.31148 0.665441 7.11637 0.960637 6.99657C1.73849 6.63834 2.56897 6.46434 3.39946 6.26548C4.16853 6.07832 4.94492 5.91309 5.67744 5.60311C6.08099 5.43203 6.45675 5.2244 6.71409 4.83984C6.69362 5.87946 6.698 6.91761 6.69946 7.95723C6.68631 8.36079 6.68777 8.77313 6.68046 9.19278Z" fill="#D6FFF7"/>
<path fill-rule="evenodd" clip-rule="evenodd" d="M31.9986 8.01414C31.9781 8.18347 31.8965 8.33948 31.769 8.45279C31.5664 8.64759 31.3247 8.79711 31.0599 8.89145C30.4084 9.12341 29.7298 9.27083 29.0407 9.33011C28.1178 9.42494 27.1903 9.46741 26.2627 9.45732C26.0258 9.45732 25.7889 9.43392 25.5521 9.43392C25.4322 9.43392 25.3781 9.39444 25.3635 9.30232C25.3659 9.2619 25.3659 9.22138 25.3635 9.18096C25.3547 8.7233 25.3635 8.26563 25.3474 7.80797C25.3474 7.55501 25.3372 7.30205 25.3328 7.04909C25.3328 6.88386 25.3328 6.7201 25.3328 6.55487V6.13815C25.3328 6.06211 25.3328 5.99193 25.3328 5.91151V5.5328C25.3328 5.40559 25.3328 5.27838 25.3328 5.15263C25.3328 5.02688 25.3328 4.89967 25.3328 4.77393C25.5916 5.18334 25.979 5.39974 26.3957 5.57667C27.1268 5.88811 27.9046 6.05188 28.6737 6.23904C29.4998 6.43936 30.3347 6.61336 31.1125 6.97013C31.4077 7.08934 31.6663 7.28396 31.8626 7.53454C31.9496 7.64581 32.006 7.77786 32.0264 7.91763V7.91763C32.0203 7.95063 32.011 7.98296 31.9986 8.01414V8.01414Z" fill="#D6FFF7"/>
<path d="M23.47 20.9298C22.7558 21.7535 21.8805 22.4223 20.8981 22.895C19.5113 23.5641 18.002 23.9418 16.4635 24.0048C16.3685 24.0048 16.2749 24.015 16.1813 24.0223L16.0146 24.034H15.9956C14.5355 24.0161 13.0963 23.6839 11.7759 23.0602C10.7419 22.5832 9.79226 21.9412 8.96429 21.1594L8.93797 21.1331C8.75064 20.984 8.62385 20.772 8.58121 20.5365C8.55204 20.3483 8.58314 20.1558 8.67007 19.9864C8.75701 19.8169 8.8953 19.6794 9.06517 19.5934C9.25213 19.4995 9.46398 19.4672 9.6704 19.5011C9.87683 19.535 10.0672 19.6333 10.2144 19.782C11.1648 20.8071 12.3686 21.5636 13.7045 21.9753C14.5724 22.2559 15.4872 22.3617 16.3963 22.2867C17.2391 22.2338 18.0732 22.0842 18.8819 21.8408C19.9208 21.5026 20.8703 20.9349 21.6599 20.1797L21.7491 20.0978C21.8913 19.9595 22.0406 19.8287 22.1965 19.706C22.2914 19.631 22.4002 19.5757 22.5167 19.5433C22.6332 19.5109 22.755 19.5021 22.8749 19.5173C22.9993 19.5349 23.1189 19.5771 23.2269 19.6414C23.3348 19.7056 23.4289 19.7907 23.5036 19.8917C23.6257 20.039 23.6897 20.2259 23.6835 20.4171C23.6773 20.6083 23.6014 20.7907 23.47 20.9298Z" fill="white"/>
<path d="M11.5274 16.3268C11.4442 16.3834 11.3459 16.4137 11.2452 16.4137C11.1445 16.4137 11.0462 16.3834 10.963 16.3268L10.6954 16.1806C10.5361 16.0972 10.3767 16.0139 10.2188 15.9291C9.61347 15.6059 8.99353 15.6045 8.31803 15.9291C7.90425 16.1294 7.56942 16.299 7.26384 16.4671C7.20974 16.4979 7.15418 16.5256 7.09862 16.5534C7.01429 16.5982 6.92067 16.6228 6.8252 16.6251C6.71905 16.6245 6.61613 16.5884 6.53277 16.5227C6.45293 16.4567 6.39586 16.3672 6.36963 16.267C6.34339 16.1668 6.34931 16.0608 6.38656 15.9642C6.49586 15.5631 6.68647 15.1888 6.94656 14.8646C7.52263 14.1335 8.26247 13.7343 9.09149 13.6948H9.10465C9.63481 13.6938 10.1531 13.8515 10.593 14.1475C11.0328 14.4435 11.374 14.8643 11.5727 15.3559C11.6233 15.478 11.6667 15.603 11.7028 15.7302C11.7472 15.8346 11.7539 15.9511 11.7219 16.0599C11.6899 16.1687 11.6212 16.263 11.5274 16.3268Z" fill="white"/>
<path d="M25.4102 16.3268C25.3298 16.3921 25.231 16.4304 25.1276 16.4365C25.0242 16.4425 24.9216 16.4159 24.8341 16.3605C24.5739 16.2142 24.3122 16.0797 24.0519 15.9423C23.7707 15.7924 23.4572 15.7137 23.1386 15.713C22.82 15.7122 22.5061 15.7894 22.2242 15.9379C21.866 16.1046 21.5093 16.2932 21.1627 16.476L20.9888 16.5681C20.8952 16.6223 20.7898 16.6529 20.6817 16.6573C20.5705 16.6572 20.4633 16.616 20.3805 16.5418C20.2982 16.4717 20.2411 16.3766 20.2179 16.271C20.1946 16.1654 20.2066 16.0551 20.2518 15.9569C20.6569 14.7447 21.4552 14.0093 22.6249 13.7636C22.7181 13.7467 22.8124 13.737 22.9071 13.7344H23.0065H23.0343C23.6284 13.7469 24.2012 13.9582 24.6611 14.3346C25.1209 14.711 25.4413 15.2307 25.571 15.8107C25.5976 15.903 25.5966 16.0011 25.568 16.0929C25.5394 16.1846 25.4846 16.266 25.4102 16.3268Z" fill="white"/>
</g>
<defs>
<clipPath id="clip0_2785_2">
<rect width="32" height="32" fill="white"/>
</clipPath>
</defs>
</svg>
