<svg width="32" height="32" viewBox="0 0 32 32" fill="none" xmlns="http://www.w3.org/2000/svg">
<path d="M16.0362 15.9238L16.0343 15.9257L16.0362 15.9238Z" fill="#38C0F0"/>
<path opacity="0.4" d="M12.0762 9.07048C12.0765 7.68075 12.4424 6.31556 13.1371 5.11196C13.8319 3.90836 14.831 2.9087 16.0343 2.21333C14.8304 1.51828 13.4648 1.15233 12.0747 1.15225C10.6846 1.15218 9.31899 1.51797 8.11505 2.21289C6.91111 2.9078 5.91128 3.90735 5.21603 5.1111C4.52077 6.31484 4.15459 7.68038 4.15428 9.07048C5.35831 8.37444 6.72449 8.00796 8.11523 8.00796C9.50597 8.00796 10.8722 8.37444 12.0762 9.07048V9.07048Z" fill="#38C0F0"/>
<path opacity="0.4" d="M30.8171 11.9638C30.1228 10.7585 29.1219 9.75834 27.9162 9.06476C27.9167 10.4549 27.5509 11.8206 26.8557 13.0243C26.1605 14.2281 25.1604 15.2275 23.9562 15.9219C25.1605 16.6163 26.1608 17.6157 26.8563 18.8194C27.5518 20.0232 27.918 21.3888 27.9181 22.779V22.779C29.7358 21.7285 31.0622 19.9993 31.6058 17.9714C32.1494 15.9435 31.8657 13.7827 30.8171 11.9638V11.9638Z" fill="#38C0F0"/>
<path opacity="0.4" d="M18.9352 5.10476C19.6331 6.30847 20.0005 7.67527 20 9.06667V9.06667C21.204 8.37154 22.5697 8.00559 23.96 8.00559C25.3502 8.00559 26.716 8.37154 27.92 9.06667C27.9203 7.67634 27.5544 6.31046 26.8593 5.10637C26.1642 3.90229 25.1643 2.90246 23.9602 2.20743C22.756 1.5124 21.3901 1.14668 19.9998 1.14705C18.6095 1.14742 17.2438 1.51386 16.04 2.20953V2.20953C17.2432 2.90285 18.2419 3.9016 18.9352 5.10476V5.10476Z" fill="#38C0F0"/>
<path opacity="0.5" d="M12.0762 9.07048C13.2796 9.76549 14.2788 10.7651 14.9733 11.9688C15.6677 13.1726 16.033 14.5379 16.0324 15.9276V15.9276C16.0324 14.5362 16.3992 13.1694 17.0957 11.9649C17.7923 10.7603 18.794 9.7607 20 9.06667C20.0008 7.67649 19.6352 6.31065 18.94 5.10679C18.2448 3.90294 17.2445 2.90361 16.04 2.20953C14.8351 2.90449 13.8345 3.90444 13.1387 5.10882C12.4429 6.3132 12.0764 7.67955 12.0762 9.07048V9.07048Z" fill="#38C0F0"/>
<path opacity="0.4" d="M12.0762 9.07048C13.2796 9.76549 14.2788 10.7651 14.9733 11.9688C15.6677 13.1726 16.033 14.5379 16.0324 15.9276V15.9276C16.0324 14.5362 16.3992 13.1694 17.0957 11.9649C17.7923 10.7603 18.794 9.7607 20 9.06667C20.0008 7.67649 19.6352 6.31065 18.94 5.10679C18.2448 3.90294 17.2445 2.90361 16.04 2.20953C14.8351 2.90449 13.8345 3.90444 13.1387 5.10882C12.4429 6.3132 12.0764 7.67955 12.0762 9.07048V9.07048Z" fill="#38C0F0"/>
<path opacity="0.5" d="M20 9.06476C20.001 10.4548 19.6357 11.8205 18.9408 13.0243C18.2459 14.2281 17.2461 15.2276 16.0419 15.9219V15.9219C17.2455 15.2268 18.611 14.8608 20.0009 14.8608C21.3909 14.8608 22.7564 15.2268 23.96 15.9219V15.9219C25.1642 15.2275 26.1643 14.2281 26.8595 13.0243C27.5547 11.8206 27.9204 10.4549 27.92 9.06476C26.716 8.36964 25.3502 8.00368 23.96 8.00368C22.5697 8.00368 21.204 8.36964 20 9.06476V9.06476Z" fill="#38C0F0"/>
<path opacity="0.4" d="M20 9.06476C20.001 10.4548 19.6357 11.8205 18.9408 13.0243C18.2459 14.2281 17.2461 15.2276 16.0419 15.9219V15.9219C17.2455 15.2268 18.611 14.8608 20.0009 14.8608C21.3909 14.8608 22.7564 15.2268 23.96 15.9219V15.9219C25.1642 15.2275 26.1643 14.2281 26.8595 13.0243C27.5547 11.8206 27.9204 10.4549 27.92 9.06476C26.716 8.36964 25.3502 8.00368 23.96 8.00368C22.5697 8.00368 21.204 8.36964 20 9.06476V9.06476Z" fill="#38C0F0"/>
<path opacity="0.5" d="M20 9.06667C18.7964 9.76159 17.7969 10.7611 17.1021 11.9649C16.4073 13.1686 16.0416 14.534 16.0419 15.9238C17.2461 15.2295 18.246 14.2301 18.9408 13.0262C19.6357 11.8224 20.001 10.4567 20 9.06667V9.06667Z" fill="#38C0F0"/>
<path opacity="0.5" d="M20 9.06667C18.7964 9.76159 17.7969 10.7611 17.1021 11.9649C16.4073 13.1686 16.0416 14.534 16.0419 15.9238C17.2461 15.2295 18.246 14.2301 18.9408 13.0262C19.6357 11.8224 20.001 10.4567 20 9.06667V9.06667Z" fill="#38C0F0"/>
<path d="M20 9.06667C18.7964 9.76159 17.7969 10.7611 17.1021 11.9649C16.4073 13.1686 16.0416 14.534 16.0419 15.9238C17.2461 15.2295 18.246 14.2301 18.9408 13.0262C19.6357 11.8224 20.001 10.4567 20 9.06667V9.06667Z" fill="#38C0F0"/>
<path opacity="0.4" d="M20 22.7809C20.0008 24.1707 19.6356 25.5361 18.9411 26.7399C18.2466 27.9436 17.2473 28.9432 16.0438 29.6381C17.2476 30.3338 18.6133 30.7002 20.0036 30.7006C21.3939 30.7009 22.7599 30.3352 23.964 29.6402C25.1681 28.9452 26.168 27.9453 26.8631 26.7412C27.5582 25.5372 27.9241 24.1713 27.9238 22.7809C26.7195 23.4773 25.353 23.844 23.9619 23.844C22.5708 23.844 21.2042 23.4773 20 22.7809V22.7809Z" fill="#38C0F0"/>
<path opacity="0.5" d="M23.9543 15.9257C22.7508 16.6212 21.3853 16.9874 19.9952 16.9874C18.6052 16.9874 17.2397 16.6212 16.0362 15.9257V15.9257C17.2403 16.62 18.24 17.6195 18.9346 18.8233C19.6291 20.0272 19.994 21.393 19.9924 22.7829C21.1966 23.4793 22.5632 23.8459 23.9543 23.8459C25.3454 23.8459 26.7119 23.4793 27.9162 22.7829C27.9161 21.3926 27.5498 20.027 26.8543 18.8232C26.1589 17.6195 25.1586 16.6202 23.9543 15.9257V15.9257Z" fill="#38C0F0"/>
<path opacity="0.4" d="M23.9543 15.9257C22.7508 16.6212 21.3853 16.9874 19.9952 16.9874C18.6052 16.9874 17.2397 16.6212 16.0362 15.9257V15.9257C17.2403 16.62 18.24 17.6195 18.9346 18.8233C19.6291 20.0272 19.994 21.393 19.9924 22.7829C21.1966 23.4793 22.5632 23.8459 23.9543 23.8459C25.3454 23.8459 26.7119 23.4793 27.9162 22.7829C27.9161 21.3926 27.5498 20.027 26.8543 18.8232C26.1589 17.6195 25.1586 16.6202 23.9543 15.9257V15.9257Z" fill="#38C0F0"/>
<path opacity="0.5" d="M16.0362 15.9238C17.2397 16.6193 18.6052 16.9855 19.9952 16.9855C21.3853 16.9855 22.7508 16.6193 23.9543 15.9238C22.7506 15.2287 21.3852 14.8627 19.9952 14.8627C18.6053 14.8627 17.2398 15.2287 16.0362 15.9238V15.9238Z" fill="#38C0F0"/>
<path opacity="0.5" d="M16.0362 15.9238C17.2397 16.6193 18.6052 16.9855 19.9952 16.9855C21.3853 16.9855 22.7508 16.6193 23.9543 15.9238C22.7506 15.2287 21.3852 14.8627 19.9952 14.8627C18.6053 14.8627 17.2398 15.2287 16.0362 15.9238V15.9238Z" fill="#38C0F0"/>
<path d="M16.0362 15.9238C17.2397 16.6193 18.6052 16.9855 19.9952 16.9855C21.3853 16.9855 22.7508 16.6193 23.9543 15.9238C22.7506 15.2287 21.3852 14.8627 19.9952 14.8627C18.6053 14.8627 17.2398 15.2287 16.0362 15.9238V15.9238Z" fill="#38C0F0"/>
<path opacity="0.4" d="M13.1429 26.7448C12.4461 25.5415 12.0807 24.1752 12.0838 22.7848V22.7848C10.8799 23.4803 9.51413 23.8464 8.1238 23.8464C6.73348 23.8464 5.36767 23.4803 4.1638 22.7848C4.16392 24.1751 4.53006 25.541 5.22541 26.745C5.92076 27.949 6.92082 28.9488 8.12505 29.6437C9.32928 30.3387 10.6952 30.7044 12.0856 30.7041C13.476 30.7038 14.8418 30.3374 16.0457 29.6419V29.6419C14.8387 28.9502 13.8369 27.9504 13.1429 26.7448V26.7448Z" fill="#38C0F0"/>
<path opacity="0.5" d="M20 22.781C18.7966 22.0859 17.7974 21.0863 17.1029 19.8826C16.4084 18.6789 16.0432 17.3135 16.0438 15.9238V15.9238C16.0447 17.3135 15.6795 18.679 14.985 19.8827C14.2905 21.0865 13.2912 22.0861 12.0876 22.781C12.0868 24.1711 12.4524 25.537 13.1476 26.7408C13.8428 27.9447 14.8431 28.944 16.0476 29.6381C17.2504 28.9427 18.249 27.9429 18.9428 26.7392C19.6366 25.5355 20.0012 24.1703 20 22.781Z" fill="#38C0F0"/>
<path opacity="0.4" d="M20 22.781C18.7966 22.0859 17.7974 21.0863 17.1029 19.8826C16.4084 18.6789 16.0432 17.3135 16.0438 15.9238V15.9238C16.0447 17.3135 15.6795 18.679 14.985 19.8827C14.2905 21.0865 13.2912 22.0861 12.0876 22.781C12.0868 24.1711 12.4524 25.537 13.1476 26.7408C13.8428 27.9447 14.8431 28.944 16.0476 29.6381C17.2504 28.9427 18.249 27.9429 18.9428 26.7392C19.6366 25.5355 20.0012 24.1703 20 22.781Z" fill="#38C0F0"/>
<path opacity="0.5" d="M20 22.7809C20.0016 21.3911 19.6367 20.0253 18.9422 18.8214C18.2476 17.6176 17.2479 16.6181 16.0438 15.9238C16.0432 17.3135 16.4084 18.6789 17.1029 19.8826C17.7974 21.0863 18.7966 22.0859 20 22.7809V22.7809Z" fill="#38C0F0"/>
<path opacity="0.5" d="M20 22.7809C20.0016 21.3911 19.6367 20.0253 18.9422 18.8214C18.2476 17.6176 17.2479 16.6181 16.0438 15.9238C16.0432 17.3135 16.4084 18.6789 17.1029 19.8826C17.7974 21.0863 18.7966 22.0859 20 22.7809V22.7809Z" fill="#38C0F0"/>
<path d="M20 22.7809C20.0016 21.3911 19.6367 20.0253 18.9422 18.8214C18.2476 17.6176 17.2479 16.6181 16.0438 15.9238C16.0432 17.3135 16.4084 18.6789 17.1029 19.8826C17.7974 21.0863 18.7966 22.0859 20 22.7809V22.7809Z" fill="#38C0F0"/>
<path opacity="0.4" d="M8.11238 15.9257C6.90865 15.2307 5.90902 14.2312 5.21391 13.0276C4.5188 11.8239 4.15269 10.4585 4.15238 9.06857V9.06857C2.94874 9.76355 1.94923 10.7631 1.25432 11.9668C0.5594 13.1705 0.193558 14.5358 0.193558 15.9257C0.193558 17.3156 0.5594 18.681 1.25432 19.8847C1.94923 21.0883 2.94874 22.0879 4.15238 22.7829C4.15269 21.3929 4.5188 20.0275 5.21391 18.8239C5.90902 17.6202 6.90865 16.6207 8.11238 15.9257V15.9257Z" fill="#38C0F0"/>
<path opacity="0.5" d="M8.11428 15.9257C9.31779 15.2302 10.6833 14.864 12.0733 14.864C13.4634 14.864 14.8289 15.2302 16.0324 15.9257C14.8294 15.2303 13.8305 14.2305 13.1361 13.0269C12.4416 11.8233 12.0761 10.4581 12.0762 9.06857C10.8722 8.37253 9.50597 8.00606 8.11523 8.00606C6.72449 8.00606 5.35831 8.37253 4.15428 9.06857C4.15459 10.4585 4.5207 11.8239 5.21581 13.0276C5.91091 14.2312 6.91055 15.2307 8.11428 15.9257V15.9257Z" fill="#38C0F0"/>
<path opacity="0.4" d="M8.11428 15.9257C9.31779 15.2302 10.6833 14.864 12.0733 14.864C13.4634 14.864 14.8289 15.2302 16.0324 15.9257C14.8294 15.2303 13.8305 14.2305 13.1361 13.0269C12.4416 11.8233 12.0761 10.4581 12.0762 9.06857C10.8722 8.37253 9.50597 8.00606 8.11523 8.00606C6.72449 8.00606 5.35831 8.37253 4.15428 9.06857C4.15459 10.4585 4.5207 11.8239 5.21581 13.0276C5.91091 14.2312 6.91055 15.2307 8.11428 15.9257V15.9257Z" fill="#38C0F0"/>
<path opacity="0.5" d="M12.0762 9.07048C12.0761 10.4601 12.4416 11.8252 13.1361 13.0288C13.8305 14.2324 14.8294 15.2322 16.0324 15.9276C16.033 14.5379 15.6678 13.1726 14.9733 11.9688C14.2788 10.7651 13.2796 9.76549 12.0762 9.07048V9.07048Z" fill="#38C0F0"/>
<path opacity="0.5" d="M12.0762 9.07048C12.0761 10.4601 12.4416 11.8252 13.1361 13.0288C13.8305 14.2324 14.8294 15.2322 16.0324 15.9276C16.033 14.5379 15.6678 13.1726 14.9733 11.9688C14.2788 10.7651 13.2796 9.76549 12.0762 9.07048V9.07048Z" fill="#38C0F0"/>
<path d="M12.0762 9.07048C12.0761 10.4601 12.4416 11.8252 13.1361 13.0288C13.8305 14.2324 14.8294 15.2322 16.0324 15.9276C16.033 14.5379 15.6678 13.1726 14.9733 11.9688C14.2788 10.7651 13.2796 9.76549 12.0762 9.07048V9.07048Z" fill="#38C0F0"/>
<path opacity="0.5" d="M12.0724 22.7867C12.0713 21.3969 12.4365 20.0314 13.131 18.8276C13.8255 17.6238 14.8249 16.6242 16.0286 15.9295V15.9295C14.8247 16.6241 13.4594 16.9898 12.0695 16.9898C10.6797 16.9898 9.31431 16.6241 8.11048 15.9295V15.9295C6.90675 16.6245 5.90711 17.624 5.212 18.8277C4.5169 20.0313 4.15079 21.3967 4.15048 22.7867C5.35457 23.4825 6.72073 23.8489 8.11143 23.8489C9.50213 23.8489 10.8683 23.4825 12.0724 22.7867V22.7867Z" fill="#38C0F0"/>
<path opacity="0.4" d="M12.0724 22.7867C12.0713 21.3969 12.4365 20.0314 13.131 18.8276C13.8255 17.6238 14.8249 16.6242 16.0286 15.9295V15.9295C14.8247 16.6241 13.4594 16.9898 12.0695 16.9898C10.6797 16.9898 9.31431 16.6241 8.11048 15.9295V15.9295C6.90675 16.6245 5.90711 17.624 5.212 18.8277C4.5169 20.0313 4.15079 21.3967 4.15048 22.7867C5.35457 23.4825 6.72073 23.8489 8.11143 23.8489C9.50213 23.8489 10.8683 23.4825 12.0724 22.7867V22.7867Z" fill="#38C0F0"/>
<path opacity="0.5" d="M8.11429 15.9257C9.31812 16.6203 10.6835 16.986 12.0733 16.986C13.4632 16.986 14.8285 16.6203 16.0324 15.9257C14.8289 15.2302 13.4634 14.864 12.0733 14.864C10.6833 14.864 9.3178 15.2302 8.11429 15.9257V15.9257Z" fill="#38C0F0"/>
<path opacity="0.5" d="M8.11429 15.9257C9.31812 16.6203 10.6835 16.986 12.0733 16.986C13.4632 16.986 14.8285 16.6203 16.0324 15.9257C14.8289 15.2302 13.4634 14.864 12.0733 14.864C10.6833 14.864 9.3178 15.2302 8.11429 15.9257V15.9257Z" fill="#38C0F0"/>
<path d="M8.11429 15.9257C9.31812 16.6203 10.6835 16.986 12.0733 16.986C13.4632 16.986 14.8285 16.6203 16.0324 15.9257C14.8289 15.2302 13.4634 14.864 12.0733 14.864C10.6833 14.864 9.3178 15.2302 8.11429 15.9257V15.9257Z" fill="#38C0F0"/>
<path opacity="0.5" d="M12.0762 22.7848C13.2797 22.0899 14.279 21.0903 14.9735 19.8865C15.668 18.6828 16.0332 17.3173 16.0324 15.9276V15.9276C14.8287 16.6223 13.8293 17.6219 13.1348 18.8257C12.4403 20.0295 12.0751 21.395 12.0762 22.7848V22.7848Z" fill="#38C0F0"/>
<path opacity="0.5" d="M12.0762 22.7848C13.2797 22.0899 14.279 21.0903 14.9735 19.8865C15.668 18.6828 16.0332 17.3173 16.0324 15.9276V15.9276C14.8287 16.6223 13.8293 17.6219 13.1348 18.8257C12.4403 20.0295 12.0751 21.395 12.0762 22.7848V22.7848Z" fill="#38C0F0"/>
<path d="M12.0762 22.7848C13.2797 22.0899 14.279 21.0903 14.9735 19.8865C15.668 18.6828 16.0332 17.3173 16.0324 15.9276V15.9276C14.8287 16.6223 13.8293 17.6219 13.1348 18.8257C12.4403 20.0295 12.0751 21.395 12.0762 22.7848V22.7848Z" fill="#38C0F0"/>
</svg>
