<svg width="32" height="32" viewBox="0 0 32 32" fill="none" xmlns="http://www.w3.org/2000/svg">
<path d="M22.6581 25.5484C18.529 23.2774 12.6968 23.5355 9.54839 25.1871C8.8258 25.5484 8.25806 25.1871 7.74193 24.5677C7.01935 23.6903 7.01935 22.6064 8 22.0903C12.0258 20.0258 18.9935 19.6129 24.2581 22.5548C25.1871 23.071 25.1355 24.1032 24.4645 24.929C24 25.6516 23.4323 25.9613 22.6581 25.5484Z" fill="#5E2CED"/>
<path d="M24.929 19.7161C24.4645 19.6645 24.0516 19.5613 23.5871 19.3548C19.2516 17.5484 13.9871 18.1161 12.4903 18.3226C10.7871 18.529 10.1677 18.1677 9.80645 16.4645C9.23871 13.6774 8.10322 10.529 7.48387 9.49676C6.29677 9.44515 5.05806 9.54837 3.92257 9.90966C3.14838 10.1677 2.37419 9.70321 2.11612 8.98063V8.92902C1.70322 7.94837 2.06451 6.8645 3.04515 6.60644C5.2129 6.03869 7.53548 5.83224 8.77419 6.03869C11.1484 6.4516 12.2323 11.7161 12.9548 14.7613C15.5355 14.5032 20.3355 14.3484 24.671 16.0516C25.0839 15.4839 25.3419 14.8129 25.5484 14.1419C25.5484 14.0903 25.5484 14.0387 25.4968 13.9871C23.7419 12.8 21.471 12.1806 18.6323 11.9226C17.6516 11.8193 17.1871 11.2516 17.2387 10.271C17.2903 9.23869 17.8581 8.67095 18.8387 8.67095C22.0903 8.77418 25.6516 9.96127 27.2516 11.0451C28.6452 11.9742 29.3677 12.9032 28.9032 14.658C28.4903 15.9484 27.9226 17.1871 27.1484 18.3226C26.4258 19.6129 25.8065 19.7161 24.929 19.7161Z" fill="#5E2CED"/>
</svg>
