<svg width="31" height="30" viewBox="0 0 31 30" fill="none" xmlns="http://www.w3.org/2000/svg">
<path d="M2.076 8.98C1.96917 8.0495 2.21031 7.11238 2.753 6.34901C4.05736 4.50076 5.76302 2.97161 7.74222 1.8761C9.72142 0.780583 11.9229 0.147103 14.1816 0.0231075C16.4404 -0.100888 18.6979 0.287815 20.7851 1.1601C22.8724 2.03239 24.7352 3.36564 26.234 5.06001C24.5842 4.41713 22.8231 4.10849 21.053 4.15201C16.192 4.15201 14.668 6.75901 14.668 8.96801C14.668 11.177 15.852 12.75 18.71 14.137C21.568 15.524 24.252 16.33 26.125 17.988C27.0877 18.7352 27.7333 19.8179 27.933 21.02C28.0398 21.9505 27.7987 22.8876 27.256 23.651C25.9516 25.4992 24.246 27.0284 22.2668 28.1239C20.2876 29.2194 18.0861 29.8529 15.8274 29.9769C13.5686 30.1009 11.3111 29.7122 9.22385 28.8399C7.13663 27.9676 5.27384 26.6344 3.775 24.94C5.4248 25.5829 7.1859 25.8915 8.956 25.848C13.817 25.848 15.341 23.241 15.341 21.032C15.341 18.823 14.157 17.25 11.299 15.863C8.441 14.476 5.757 13.67 3.884 12.012C2.92133 11.2648 2.27573 10.1821 2.076 8.98ZM0.335996 11.854C0.889121 12.7038 1.61232 13.4297 2.46 13.986C5.614 16.086 8.233 16.613 10.26 17.72C12.287 18.827 13.191 19.35 13.191 21.227C13.191 23.104 10.977 23.727 8.679 23.727C6.61779 23.7178 4.59758 23.1503 2.833 22.085C1.71482 21.3802 0.900794 20.2826 0.550996 19.008C0.190389 17.7036 0.00773542 16.3564 0.00799588 15.003C0.0107282 13.9457 0.121978 12.8915 0.339996 11.857L0.335996 11.854ZM29.675 18.144C29.1219 17.2942 28.3987 16.5683 27.551 16.012C24.401 13.912 21.778 13.385 19.751 12.278C17.724 11.171 16.82 10.648 16.82 8.771C16.82 6.894 19.034 6.27101 21.332 6.27101C23.3932 6.28025 25.4134 6.84768 27.178 7.91301C28.2962 8.61777 29.1102 9.71539 29.46 10.99C29.8206 12.2944 30.0033 13.6416 30.003 14.995C30.0002 16.0523 29.889 17.1065 29.671 18.141L29.675 18.144Z" fill="#D72344"/>
</svg>
