<svg xmlns="http://www.w3.org/2000/svg" width="2500" height="2500" viewBox="0 0 192.756 192.756"><g fill-rule="evenodd" clip-rule="evenodd"><path fill="#fff" d="M0 0h192.756v192.756H0V0z"/><path d="M183.727 66.775c3.279 0 6.195-2.914 6.195-6.558 0-3.461-2.916-6.194-6.195-6.194-3.461 0-6.557 2.732-6.557 6.194 0 3.644 3.096 6.558 6.557 6.558zm0-.91c-3.277 0-5.646-2.368-5.646-5.647 0-2.915 2.369-5.283 5.646-5.283a5.286 5.286 0 0 1 5.283 5.283c0 3.279-2.367 5.647-5.283 5.647z" fill="#234b8d"/><path d="M182.088 60.946h2.186c.912 0 1.094.546 1.094 1.093 0 .183 0 1.275.182 1.822h1.094v-.364c-.182-.183-.365-.183-.365-.547v-1.093c0-.911-.363-1.093-.729-1.275.547-.364.912-.729.912-1.821 0-1.275-1.094-1.822-2.188-1.822h-3.096v6.923h.91v-2.916zm0-3.096h2.186c.547 0 1.275 0 1.275 1.093 0 .911-.729 1.093-1.457 1.093h-2.004V57.85zM3.381 53.842h83.797v83.979H3.381V53.842zM174.801 53.842H90.822v83.979l83.979-83.979z" fill="#234b8d"/><path d="M69.508 129.26h6.558c9.655 0 11.477-8.198 11.112-10.566-.546-5.829-4.918-9.473-10.93-9.473H60.217v29.329h9.291v-9.29zm0-6.923v-6.376h4.007c3.279 0 4.554.729 4.554 3.097 0 1.093 0 3.279-3.643 3.279h-4.918z" fill="#fff"/><path d="M39.997 132.356h9.291l2.368 6.193h9.837L50.38 109.221H39.268L27.974 138.55h9.473l2.55-6.194zm4.919-14.937l3.279 8.743H41.82l3.096-8.743z" fill="#fff"/><path d="M2.834 129.26v1.64c0 5.829 7.104 8.015 13.845 8.015 9.108 0 14.574-3.279 14.574-9.654 0-10.202-18.217-7.105-18.217-13.116 0-2.187 1.64-2.915 4.19-2.915 1.639 0 2.186.364 2.732.729 1.093.729 1.093 1.64 1.093 3.279h9.655v-.729c0-4.372-3.826-8.016-13.48-8.016-10.566 0-13.845 4.008-13.845 8.744 0 10.384 18.217 7.104 18.217 13.48 0 1.275-1.093 3.097-4.919 3.097-3.097 0-4.19-1.457-4.19-3.644v-.91H2.834z" fill="#fff"/></g></svg>