<svg width="32" height="32" viewBox="0 0 32 32" fill="none" xmlns="http://www.w3.org/2000/svg">
<mask id="mask0_3120_2" style="mask-type:alpha" maskUnits="userSpaceOnUse" x="0" y="0" width="32" height="32">
<path d="M16 32C24.8366 32 32 24.8366 32 16C32 7.16344 24.8366 0 16 0C7.16344 0 0 7.16344 0 16C0 24.8366 7.16344 32 16 32Z" fill="white"/>
</mask>
<g mask="url(#mask0_3120_2)">
<path d="M16 32C24.8366 32 32 24.8366 32 16C32 7.16344 24.8366 0 16 0C7.16344 0 0 7.16344 0 16C0 24.8366 7.16344 32 16 32Z" fill="#D1629B"/>
<path d="M20.1526 16.9982C17.4203 21.8011 15.4239 24.0314 14.1633 23.6834C13.108 23.3412 11.4937 21.2592 13.2278 18.2702C12.0299 18.9718 11.3854 19.354 11.3055 19.4225C11.7847 20.3408 11.9101 22.3487 10.8777 23.8888C9.83956 25.4289 7.91158 26.3643 6.04634 25.8453C5.4417 25.6742 4.52904 24.4307 5.31621 22.6852C6.00641 21.1451 8.79001 19.6963 9.51443 19.3369L9.71407 19.2228C8.25953 17.9508 4.6089 16.2282 4.10124 13.5872C3.95863 12.8399 4.30658 11.0602 6.49696 9.01248C8.32798 7.30125 10.8948 5.97219 13.2563 5.13369C17.2321 3.71907 21.4246 4.55757 22.0634 7.08449C22.6909 9.57718 20.5347 12.549 17.7683 13.6214C15.2984 14.574 13.262 14.42 12.4178 14.1519C11.4709 13.8438 10.9062 13.2107 10.7693 12.857C10.718 12.7201 10.6267 12.4806 10.7693 12.4007C10.8606 12.3494 10.8948 12.3665 11.1401 12.6289C11.3683 12.8799 12.2809 13.5529 14.0264 13.359C18.5896 12.8456 21.3447 9.29768 20.472 7.38681C19.8617 6.05205 16.3479 5.44741 11.933 7.62638C6.56541 10.3016 6.2745 12.5034 6.22887 13.3419C6.10338 15.6463 9.06951 16.8613 10.6781 18.5725L10.7351 18.641C10.929 18.5383 12.2695 17.7512 14.7508 16.2795C15.287 15.8403 15.7034 15.8688 16.0057 16.3651C16.3593 15.9772 16.5248 15.6806 16.5077 15.4752C16.4734 15.1729 17.2264 15.8973 17.1465 17.1865C17.0667 18.4756 16.5305 18.0763 16.5647 19.3825C15.652 19.2228 15.247 18.6638 15.3497 17.6941C13.6157 20.4093 13.4103 22.0635 14.7223 22.6681C15.2356 22.8506 16.1369 21.8581 17.4431 19.6906C17.5686 19.4727 17.696 19.2559 17.8253 19.0403C18.6695 17.6314 19.9301 15.6406 20.0157 15.3897C20.1355 15.0474 20.1982 14.6938 20.2552 14.5397C20.3123 14.3857 20.8142 14.2717 21.3904 14.2774C21.9665 14.2774 22.0235 14.5283 22.0292 14.5797C22.0349 14.6367 21.7497 15.3212 21.687 15.8061C21.6299 16.2852 21.687 16.5305 21.744 16.9355C21.7782 17.2036 21.9437 17.5401 22.1433 17.9223C22.7422 16.9412 23.7975 15.0702 23.9002 14.5455C23.9599 14.255 24.0399 13.9691 24.1397 13.6898C24.1968 13.5358 24.693 13.4217 25.2749 13.4274C25.8453 13.4274 25.9023 13.6784 25.9137 13.7298C25.9137 13.7868 25.6342 14.4713 25.5715 14.9561C25.5087 15.4353 25.5715 15.6806 25.6285 16.0856C25.6684 16.4335 25.9365 16.907 26.2046 17.4374C26.9347 17.0781 27.8018 16.8385 28.8057 16.8328C31.4068 16.8157 32.8727 18.4984 32.7986 20.0442C32.7472 21.2478 31.6406 21.744 31.4353 21.7783C31.287 21.8011 31.2071 21.8068 31.1843 21.6927C31.1672 21.6128 31.2242 21.5786 31.4011 21.4645C31.5722 21.3504 32.097 20.9968 32.1939 20.3408C32.2852 19.6848 31.7946 18.1276 29.2962 17.831C28.3559 17.6969 27.3968 17.8089 26.5126 18.1561C26.6438 18.4984 26.7408 18.8463 26.7522 19.2057C26.7807 19.9872 26.2388 20.5633 25.6798 20.974C25.349 21.2193 25.0068 21.379 24.7101 21.4759C24.482 21.5729 24.1626 21.6813 23.9458 21.6356C23.4552 21.533 23.2043 21.1052 23.5294 20.1526C23.7119 19.6392 24.2253 18.8463 25.0638 18.1676C24.8756 17.7797 24.6588 17.3804 24.5504 17.0153C24.434 16.6357 24.3426 16.2489 24.2766 15.8574C24.2766 15.8574 23.5921 17.2834 22.7023 18.5725L22.5483 18.795C22.7194 19.1943 22.862 19.6278 22.8791 20.0613C22.8988 20.4088 22.8289 20.7554 22.6761 21.0681C22.5233 21.3807 22.2927 21.6488 22.0064 21.8467C21.729 22.0496 21.4234 22.2111 21.0995 22.3258C20.7637 22.4645 20.4069 22.5455 20.0442 22.5654C19.7704 22.5825 19.4966 22.5654 19.3426 22.4513C19.1315 22.2916 19.1087 22.0977 19.2171 21.8296C19.3141 21.6014 19.9929 20.8257 20.5633 20.1412C20.7287 19.9529 20.877 19.759 21.0082 19.5708L21.282 19.2114C21.0709 18.7551 20.8085 18.293 20.6831 17.8652C20.4663 17.1408 20.4036 16.7073 20.4036 16.7073L20.1526 16.9982V16.9982ZM9.54295 23.3298C9.98543 22.8721 10.2979 22.3047 10.4483 21.6862C10.5987 21.0676 10.5815 20.4201 10.3986 19.8103L10.2731 19.8902L10.216 19.9244L9.70266 20.2324C9.00905 20.6563 8.35601 21.1432 7.75186 21.687C6.73653 22.6396 6.52548 23.9686 7.06167 24.2824C7.55792 24.5676 8.71585 24.2253 9.54295 23.3298V23.3298ZM20.5519 21.6071C20.8998 21.3847 21.6756 20.8485 21.6756 20.0442V19.9758C21.5044 20.2096 21.3333 20.4207 21.1907 20.6032C20.9071 20.9329 20.6161 21.2562 20.318 21.5729C20.318 21.5729 20.2324 21.6585 20.2667 21.6813C20.3237 21.7098 20.4378 21.6699 20.5519 21.6071ZM24.3964 20.7287C24.8299 20.5747 25.5544 20.1925 25.5601 19.1829C25.5588 19.0176 25.5298 18.8538 25.4745 18.698C25.1183 19.0038 24.8273 19.3782 24.6189 19.7989C24.3223 20.4549 24.3052 20.666 24.3907 20.7287H24.3964Z" fill="white"/>
</g>
</svg>
