<svg width="32" height="32" viewBox="0 0 32 32" fill="none" xmlns="http://www.w3.org/2000/svg">
<path d="M8 23.3542C8.42579 24.0384 8.92834 24.6717 9.49786 25.2419C10.4806 26.2247 11.6474 27.0042 12.9314 27.5361C14.2155 28.068 15.5917 28.3417 16.9816 28.3417C18.3714 28.3417 19.7477 28.068 21.0317 27.5361C22.3158 27.0042 23.4825 26.2247 24.4653 25.2419C26.4501 23.2571 27.5651 20.5651 27.5651 17.7582C27.5651 14.9512 26.4501 12.2593 24.4653 10.2745C23.8952 9.70495 23.2618 9.20241 22.5776 8.77661L8 23.3542Z" fill="#FF0000"/>
<path d="M11.3914 7.09944C9.77202 8.71903 8.72169 10.8202 8.39814 13.0876C8.0746 15.3549 8.49528 17.666 9.59703 19.6739L23.9659 5.30504C21.958 4.20329 19.6469 3.7826 17.3795 4.10615C15.1122 4.42971 13.011 5.48004 11.3914 7.09944V7.09944Z" fill="#FF0000"/>
</svg>
