<?xml version="1.0" encoding="UTF-8"?>
<svg width="512px" height="512px" viewBox="0 0 512 512" version="1.1" xmlns="http://www.w3.org/2000/svg" xmlns:xlink="http://www.w3.org/1999/xlink">
    <!-- Generator: Sketch 45.2 (43514) - http://www.bohemiancoding.com/sketch -->
    <title>Group 2</title>
    <desc>Created with Sketch.</desc>
    <defs>
        <linearGradient x1="78.90488%" y1="84.3963716%" x2="21.0954612%" y2="15.6033058%" id="linearGradient-1">
            <stop stop-color="#606CEC" offset="0%"></stop>
            <stop stop-color="#A85FBF" offset="43.9216%"></stop>
            <stop stop-color="#F15292" offset="100%"></stop>
        </linearGradient>
        <linearGradient x1="18.0093967%" y1="82.0245002%" x2="81.9909188%" y2="17.9759054%" id="linearGradient-2">
            <stop stop-color="#ED488A" offset="0%"></stop>
            <stop stop-color="#F6C54F" offset="100%"></stop>
        </linearGradient>
        <linearGradient x1="28.169417%" y1="72.4215476%" x2="71.8308986%" y2="27.578858%" id="linearGradient-3">
            <stop stop-color="#F287A6" offset="0%"></stop>
            <stop stop-color="#F6C54F" offset="100%"></stop>
        </linearGradient>
        <linearGradient x1="64.1238204%" y1="85.7635195%" x2="35.8762192%" y2="14.2360792%" id="linearGradient-4">
            <stop stop-color="#AE93CD" offset="0%"></stop>
            <stop stop-color="#ED488A" offset="100%"></stop>
        </linearGradient>
    </defs>
    <g id="Page-1" stroke="none" stroke-width="1" fill="none" fill-rule="evenodd">
        <g id="Artboard-Copy">
            <g id="Group-2">
                <rect id="Rectangle" fill="#FFFFFF" x="0" y="0" width="512" height="512" rx="70"></rect>
                <g id="logo-copy" transform="translate(41.000000, 117.000000)">
                    <g id="Layer_x0020_1">
                        <g id="_1363946464">
                            <g id="Group">
                                <path d="M236.428826,139.847946 C239.390903,157.95944 238.130652,176.737603 232.737953,194.28018 C217.183142,244.888354 168.998594,280.614762 113.678489,278.137726 C48.0262844,275.197345 -2.81553604,219.560807 0.123094219,153.869496 C3.47008466,79.0442364 66.9026852,41.3354181 131.964819,30.2210137 C134.635768,29.7693994 137.169946,31.5680365 137.623245,34.2425317 C138.004251,36.4869181 136.794802,38.6394175 134.811617,39.534826 C100.091231,55.3022264 64.1809353,90.1821013 61.2618438,137.853805 C58.3427523,185.527464 94.2960338,221.525622 139.573214,223.554954 C170.303783,224.931302 197.835857,209.208868 212.990123,184.804099 L236.428826,139.847946 Z" id="Shape" fill="url(#linearGradient-1)"></path>
                                <path d="M236.428826,139.847946 C239.390903,157.95944 238.130652,176.737603 232.737953,194.28018 C217.183142,244.888354 168.998594,280.614762 113.678489,278.137726 C48.0262844,275.197345 -2.81553604,219.560807 0.123094219,153.869496 C3.47008466,79.0442364 66.9026852,41.3354181 131.964819,30.2210137 C134.635768,29.7693994 137.169946,31.5680365 137.623245,34.2425317 C138.004251,36.4869181 136.794802,38.6394175 134.811617,39.534826 C100.091231,55.3022264 64.1809353,90.1821013 61.2618438,137.853805 C58.3427523,185.527464 94.2960338,221.525622 139.573214,223.554954 C170.303783,224.931302 197.835857,209.208868 212.990123,184.804099 L236.428826,139.847946 Z" id="Shape"></path>
                                <path d="M225.598488,138.506789 C225.909155,135.814698 228.343685,133.885073 231.034173,134.195925 C234.603905,134.420754 235.89151,137.499943 236.428826,139.847946 C236.571459,159.951626 230.479272,173.173564 212.990123,184.804099 C211.296112,186.010359 209.551301,187.079766 207.765458,188.024051 C201.175032,191.504022 194.070737,193.222503 186.984027,193.545085 C181.132167,193.81097 175.577296,193.419962 170.364354,192.448307 C155.688787,189.71125 143.551306,182.42286 134.913218,172.250785 C126.290761,162.09435 121.179421,149.079647 120.532687,134.864548 C120.296268,129.630905 120.657736,124.258455 121.66789,118.837128 C125.356808,99.034524 136.089452,82.1977165 150.530553,69.0500701 C166.581649,54.4400536 187.259524,44.3755059 207.880736,39.8925984 C221.999448,36.82123 237.003266,36.0646293 252.149716,36.0040231 L252.149716,36.000113 L253.177455,36.000113 L255.463491,36.000113 L355.296811,36.000113 C383.172767,34.9033354 405.26134,21.1222559 418.074862,5.72631319 C419.657502,3.82601397 421.380821,1.30596695 423.49687,0.369502626 C424.958369,-0.27761573 426.476531,-0.0527860895 427.742643,0.881723198 C429.46987,2.15445447 429.75709,3.37830973 429.604688,5.50539363 C429.465962,7.40764789 428.903246,9.593383 428.52224,11.2062913 C420.624671,44.6081557 404.884242,72.725546 381.076257,91.6171009 C373.272474,97.5095925 364.319812,101.892793 353.75911,104.89769 C344.161668,107.628881 334.499749,109.132307 324.536933,109.132307 L228.736414,109.132307 C227.456625,109.122532 226.155343,109.122532 224.83843,109.132307 C218.122957,109.187049 211.120264,109.544821 204.408698,110.481285 C199.408728,111.179235 194.568976,112.524302 190.155169,114.469568 C182.03095,117.7208 175.131812,123.77165 171.360831,129.539019 C168.58828,133.783411 166.878638,138.80591 166.634403,144.240922 C165.911469,160.403241 178.42214,174.092433 194.574837,174.817753 C209.088232,175.466826 221.606719,165.425739 224.521902,151.65639 C225.444132,147.28883 225.076803,142.91736 225.598488,138.506789 Z" id="Shape" fill="url(#linearGradient-2)"></path>
                                <path d="M212.990123,184.804099 C211.296112,186.010359 209.551301,187.079766 207.765458,188.024051 C201.175032,191.504022 194.070737,193.222503 186.984027,193.545085 C181.132167,193.81097 175.577296,193.419962 170.364354,192.448307 C155.688787,189.71125 143.551306,182.42286 134.913218,172.250785 C126.290761,162.09435 121.179421,149.079647 120.532687,134.864548 C120.296268,129.630905 120.657736,124.258455 121.66789,118.837128 C125.356808,99.034524 136.089452,82.1977165 150.530553,69.0500701 C166.581649,54.4400536 187.259524,44.3755059 207.880736,39.8925984 C221.999448,36.82123 237.003266,36.0646293 252.149716,36.0040231 L253.177455,36.000113 L255.463491,36.000113 L355.296811,36.000113 C357.682494,35.9062711 360.021284,35.7166322 362.319043,35.4448816 C362.702002,35.3979606 363.083008,35.3510396 363.464014,35.3021636 C371.064594,34.2992279 378.161073,32.3598279 384.679205,29.7400738 C386.091858,29.169202 387.352108,28.6237458 388.590866,28.054829 C390.519342,27.1652857 392.309093,26.260102 394.048043,25.3099524 L394.899933,24.8368326 L395.742054,24.3558927 L396.740485,23.7713356 L397.576744,23.2669352 L398.407142,22.7566697 L399.229724,22.2346739 C400.228154,21.5895106 401.00189,21.0733799 401.761948,20.5474741 L402.559129,19.9883325 L403.350449,19.4233259 L404.178893,18.8113983 L404.968259,18.217066 L405.781072,17.589498 L406.535268,16.9912557 L407.271879,16.3969234 L408.092507,15.7146143 L408.823257,15.0929115 L409.598946,14.4184226 L410.663809,13.4643629 L411.359389,12.8211546 L412.023707,12.1935867 L412.779857,11.4624016 L413.444175,10.803553 L414.073323,10.1642548 L414.714195,9.49954106 L415.315989,8.85828783 L416.0526,8.05672128 L416.673933,7.36072692 L417.469161,6.44576804 C417.672364,6.20725311 417.875567,5.96678315 418.074862,5.72631319 C419.657502,3.82601397 421.380821,1.30596695 423.49687,0.369502626 C424.958369,-0.27761573 426.476531,-0.0527860895 427.742643,0.881723198 C429.46987,2.15445447 429.75709,3.37830973 429.604688,5.50539363 C417.349974,48.3090471 392.137152,79.5056259 351.432043,82.6336905 C303.343234,86.3326268 252.558076,66.9972778 210.575132,70.4146883 C130.843294,76.9093323 118.254467,152.888065 153.998684,180.358337 C165.790329,189.419949 184.145045,192.313409 198.619362,189.631094 C203.009722,188.817797 207.742011,187.333921 212.990123,184.804099 Z" id="Shape" fill="url(#linearGradient-3)"></path>
                                <path d="M132.230546,40.746951 C0.375144288,88.6845404 19.0502959,254.868835 131.878848,260.163085 C179.358047,262.38792 220.711843,230.280293 234.062681,184.800189 C235.774277,178.968304 237.001312,172.98588 237.737923,166.93894 C237.138083,176.203877 235.467519,185.400387 232.737953,194.28018 C217.183142,244.888354 168.998594,280.614762 113.678489,278.137726 C48.0262844,275.197345 -2.81553604,219.560807 0.123094219,153.869496 C3.47008466,79.0442364 66.9026852,41.3354181 131.964819,30.2210137 C134.635768,29.7693994 137.169946,31.5680365 137.623245,34.2425317 C138.004251,36.4869181 136.794802,38.6394175 134.811617,39.534826 C133.951911,39.9277891 133.092206,40.3324824 132.230546,40.746951 Z" id="Shape" fill="url(#linearGradient-4)"></path>
                            </g>
                        </g>
                    </g>
                </g>
            </g>
        </g>
    </g>
</svg>