<svg width="32" height="32" viewBox="0 0 32 32" fill="none" xmlns="http://www.w3.org/2000/svg">
<path fill-rule="evenodd" clip-rule="evenodd" d="M8.59543 13.7624C6.11402 14.5565 3.13025 15.175 0.778608 13.6341C0.701455 13.5835 0.440642 13.3051 0.355469 13.3014C0.368622 13.302 0.381614 13.302 0.394607 13.3023C3.63022 13.4446 6.98452 11.3724 9.53522 10.5203C11.9857 9.70166 14.7338 9.8279 17.1525 10.5423C19.2299 11.1562 20.9914 11.9547 23.0614 13.1419C24.7144 14.0901 25.8297 15.5082 27.8136 14.9761C29.1831 14.6088 30.8309 15.1556 31.357 15.675C31.5682 15.8835 31.6754 16.0805 31.6754 16.0805C31.6754 16.0805 29.726 15.1133 27.2882 17.6911C25.797 19.268 23.7909 19.8939 20.7992 20.7895C18.4147 21.5035 15.663 22.1797 15.663 22.1797C17.4294 21.3317 17.8608 21.0911 18.8965 20.314C20.827 18.8654 21.227 18.2307 21.227 18.2307C18.7086 18.8841 16.9292 18.1153 16.9292 18.1153C16.9292 18.1153 18.0689 18.2 19.3219 17.2965C20.3608 16.5481 22.2767 16.3227 22.2767 16.3227C22.2767 16.3227 19.5489 15.8218 17.2994 16.9207C13.7844 18.6379 11.5619 16.9412 11.5619 16.9412C11.5619 16.9412 12.81 16.9221 14.9297 15.8067C16.2175 15.1287 20.6162 14.6316 20.6162 14.6316C18.3566 14.3002 15.7026 14.5945 13.6123 15.2687C12.5917 15.5978 11.6663 16.0654 10.5879 16.208C9.74454 16.3196 8.88158 16.2834 8.05343 16.0866C7.64537 15.9894 7.24357 15.8554 6.8639 15.6764C6.78707 15.6402 6.53732 15.4477 6.45407 15.4567C7.54592 15.3386 8.62109 15.0624 9.64092 14.6563C10.4981 14.3148 11.3356 13.918 12.2168 13.6398C13.1337 13.3505 14.0779 13.252 15.0331 13.1859C16.2223 13.1036 17.4202 13.082 18.6117 13.1246C18.617 13.1248 18.6224 13.1251 18.6277 13.1253C18.3489 13.114 18.0472 13.0098 17.7712 12.9653C17.0189 12.8439 16.1336 12.6118 15.374 12.5528C14.2893 12.4686 13.192 12.4931 12.1201 12.6896C11.073 12.8814 10.0865 13.2816 9.07727 13.6073C8.91912 13.6584 8.75839 13.7102 8.59543 13.7624Z" fill="#00A7E0"/>
</svg>
