<svg width="42" height="42" viewBox="0 0 42 42" fill="none" xmlns="http://www.w3.org/2000/svg">
<path d="M36.73 8.73609L22.6 0.576091C21.9463 0.198687 21.2048 0 20.45 0C19.6952 0 18.9537 0.198687 18.3 0.576091L4.17001 8.73609C3.37941 9.19689 2.75598 9.89737 2.39001 10.7361V10.7961C2.39001 10.9061 2.30001 11.0061 2.27001 11.1161V11.2461C2.27001 11.3361 2.22001 11.4161 2.20001 11.5061V11.6861C2.20001 11.7561 2.20001 11.8361 2.20001 11.9061C2.20001 11.9761 2.20001 12.0461 2.20001 12.1061C2.20001 12.1661 2.20001 12.2461 2.20001 12.3161C2.20001 12.3861 2.20001 12.4561 2.20001 12.5261C2.20001 12.5961 2.20001 12.6561 2.20001 12.7261C2.20001 12.7961 2.20001 12.8761 2.20001 12.9461C2.20001 13.0161 2.20001 13.0761 2.20001 13.1361C2.20001 13.1961 2.20001 13.2961 2.20001 13.3761V13.5361C2.20001 13.6261 2.20001 13.7161 2.28001 13.8161V13.9261C2.28001 14.0361 2.36001 14.1561 2.41001 14.2661C2.77598 15.1048 3.39941 15.8053 4.19001 16.2661L32.4 32.5461C33.4012 33.1203 34.5895 33.2732 35.7035 32.9713C36.255 32.8218 36.7718 32.5651 37.2241 32.2159C37.6765 31.8667 38.0557 31.4318 38.34 30.9361C38.6243 30.4404 38.8082 29.8935 38.8812 29.3267C38.9541 28.7599 38.9147 28.1842 38.7652 27.6326C38.6157 27.0811 38.359 26.5643 38.0098 26.112C37.6606 25.6596 37.2258 25.2804 36.73 24.9961L15 12.4861L20.45 9.33609L30.23 14.9961V18.9061L38.9 23.9061V12.4861C38.8985 11.7257 38.6973 10.9791 38.3164 10.3209C37.9356 9.6628 37.3885 9.11628 36.73 8.73609Z" fill="#ABDCD5"/>
<path d="M20.41 31.9061L10.67 26.2861V22.3861L2 17.3761V28.7061C1.99969 29.4901 2.20557 30.2603 2.59698 30.9396C2.9884 31.6189 3.55157 32.1832 4.23 32.5761L18.34 40.7161C18.989 41.0967 19.7277 41.2974 20.48 41.2974C21.2323 41.2974 21.9711 41.0967 22.62 40.7161L32.32 34.9061L23.73 29.9061L20.41 31.9061Z" fill="#ABDCD5"/>
</svg>
