<svg width="32" height="32" viewBox="0 0 32 32" fill="none" xmlns="http://www.w3.org/2000/svg">
<path d="M32 32H0V-5.64251e-07H32V32Z" fill="#4183D7"/>
<path d="M20.9329 26.7134H25.0461V22.7787H20.9329V26.7134ZM20.9329 5.18926V12.346L21.4993 20.7813H24.4806L25.0461 12.346V5.18926H20.9329ZM17.2474 5.18719H13.1331V10.6764H6.95374V26.7134H11.0669V13.4782H13.1331V22.6599C13.1331 25.9089 13.7295 26.8928 16.9487 26.8928C17.9023 26.8928 18.7366 26.8031 19.6314 26.7134V23.8529C19.3626 23.8819 19.0352 23.9116 18.7075 23.9116C17.5151 23.9116 17.2474 23.4049 17.2474 22.1533V13.4782H19.6314V10.6764H17.2474V5.18719ZM11.0669 5.19192H6.95374V8.7088H11.0669V5.19192Z" fill="white"/>
</svg>
