<svg width="36" height="36" viewBox="0 0 36 36" fill="none" xmlns="http://www.w3.org/2000/svg">
<path d="M15.451 2.218L18.007 1.022L20.549 2.218L18.007 9.745L15.451 2.218ZM17.994 11.214L19.24 15.227C20.6196 19.7172 23.5361 23.5783 27.478 26.133L19.864 31.528L18.007 28.699L16.15 31.528L8.536 26.133C12.4681 23.5712 15.3783 19.7127 16.761 15.228L17.994 11.214ZM21.308 32.325L31.526 25.073L36 26.519L34.294 33.248L27.153 35.689L28.462 32.325H21.308ZM4.461 25.073L0 26.519L1.707 33.248L8.847 35.69L7.538 32.326H14.692L4.461 25.073Z" fill="#007FFD"/>
</svg>
