<svg width="32" height="32" viewBox="0 0 32 32" fill="none" xmlns="http://www.w3.org/2000/svg">
<path d="M21.9115 11.5756L24.6229 14.3191C25.7527 15.481 25.6883 17.353 24.4938 18.5794L21.169 21.9362L17.6827 18.4181C16.9725 17.708 15.8428 17.708 15.1649 18.4181L7.86951 25.7447L12.9052 30.8442C14.487 32.458 17.134 32.3612 18.7802 30.6829L28.1416 21.226C30.6594 18.644 30.7562 14.6418 28.3676 12.2534L24.7844 8.63852L21.9115 11.5756Z" fill="#4A5054"/>
<path d="M13.2927 1.27965L3.83462 10.8978C1.38132 13.383 1.25217 17.3529 3.6409 19.7736L7.19173 23.3562L9.871 20.6451L7.19173 17.9339C6.06191 16.772 6.06191 14.9968 7.19173 13.8672L10.8717 10.1232L14.2934 13.609C15.0035 14.319 16.1334 14.319 16.779 13.609L24.0742 6.28237L19.1354 1.21511C17.5859 -0.463221 14.9713 -0.36641 13.2927 1.27965Z" fill="#426698"/>
</svg>
