<svg width="22" height="23" viewBox="0 0 22 23" fill="none" xmlns="http://www.w3.org/2000/svg">
<path d="M21.5917 6.36757L20.9317 5.30757L20.2617 4.23757C20.1646 4.08186 20.0101 3.97054 19.8317 3.92757C19.6533 3.88748 19.4663 3.91985 19.3117 4.01757L15.1117 6.63757L12.6017 8.18757L11.8817 5.36757L10.7217 0.527571C10.7026 0.438363 10.6651 0.354092 10.6118 0.280081C10.5584 0.20607 10.4903 0.143925 10.4117 0.0975716C10.2547 0.00626321 10.0689 -0.0223131 9.89172 0.0175715L8.64172 0.367572L7.43172 0.677571C7.34453 0.698509 7.26243 0.736736 7.19028 0.789985C7.11814 0.843235 7.05742 0.910424 7.01172 0.987572C6.92041 1.14461 6.89183 1.33035 6.93172 1.50757L8.13172 6.30757L8.85172 9.19757L5.85172 8.98757L0.91172 8.64757C0.821253 8.64113 0.730407 8.65285 0.644539 8.68205C0.55867 8.71125 0.479513 8.75732 0.41172 8.81757C0.343368 8.8761 0.287706 8.94798 0.248154 9.0288C0.208601 9.10963 0.185989 9.19769 0.181717 9.28757L0.0917205 10.5276L0.00171649 11.7676C-0.00472342 11.858 0.00699837 11.9489 0.0361937 12.0347C0.0653891 12.1206 0.111466 12.1998 0.171715 12.2676C0.293562 12.4026 0.460878 12.4881 0.641716 12.5076L5.58172 12.8476L8.58172 13.0576L7.46172 15.7676L5.61172 20.3676C5.57678 20.4516 5.5588 20.5416 5.5588 20.6326C5.5588 20.7235 5.57678 20.8136 5.61172 20.8976C5.64384 20.9818 5.69342 21.0583 5.75718 21.1221C5.82094 21.1859 5.89746 21.2354 5.98172 21.2676L7.13172 21.7276L8.29172 22.1976C8.46156 22.267 8.65188 22.267 8.82172 22.1976C8.98599 22.1234 9.11756 21.9918 9.19172 21.8276L11.0417 17.2376L12.1517 14.4776L14.4517 16.3676L18.2417 19.5476C18.3083 19.6092 18.3876 19.6555 18.4739 19.6831C18.5603 19.7107 18.6517 19.7191 18.7417 19.7076C18.8321 19.7009 18.9202 19.6762 19.0009 19.635C19.0817 19.5938 19.1533 19.5369 19.2117 19.4676L20.0117 18.4676L20.8117 17.4676C20.9279 17.328 20.9853 17.1487 20.9717 16.9676C20.9632 16.8766 20.9368 16.7882 20.8939 16.7075C20.851 16.6268 20.7924 16.5555 20.7217 16.4976L16.9317 13.3676L14.6517 11.4576L17.1817 9.87757L21.3717 7.25757C21.5345 7.17779 21.6599 7.03798 21.7217 6.86757C21.7458 6.69029 21.6991 6.51065 21.5917 6.36757V6.36757Z" fill="#25BD59"/>
</svg>
