<svg width="32" height="32" viewBox="0 0 32 32" fill="none" xmlns="http://www.w3.org/2000/svg">
<g clip-path="url(#clip0)">
<path d="M11.7078 31.5104H27.9715C30.2017 31.5104 32.0086 29.7044 32.0086 27.4787V23.0987H11.7078V31.5104Z" fill="#00C558"/>
<path d="M11.7078 20.1092H27.9715C30.2017 20.1092 32.0086 18.3031 32.0086 16.0774V11.6974H11.7078V20.1092Z" fill="#00C558"/>
<path d="M11.7078 8.71081H27.9715C30.2017 8.71081 32.0086 6.90473 32.0086 4.67902V0.299072H11.7078V8.71081Z" fill="#00C558"/>
<path d="M0.299072 8.71081H4.63481C6.85866 8.71081 8.66577 6.90473 8.66577 4.67902V0.299072H0.299072V8.71081Z" fill="#00C558"/>
<path d="M0.299072 20.1092H4.63481C6.85866 20.1092 8.66577 18.3031 8.66577 16.0774V11.6974H0.299072V20.1092Z" fill="#00C558"/>
<path d="M0.299072 31.5104H4.63481C6.85866 31.5104 8.66577 29.7044 8.66577 27.4787V23.0987H0.299072V31.5104Z" fill="#00C558"/>
</g>
<defs>
<clipPath id="clip0">
<rect width="32" height="32" fill="white"/>
</clipPath>
</defs>
</svg>
