<svg width="32" height="32" viewBox="0 0 32 32" fill="none" xmlns="http://www.w3.org/2000/svg">
<path d="M20.8027 17.096L21.8693 15.2107L18.3387 11.696L15.5413 16.7173L19.056 20.232L20.8027 17.096Z" fill="#F16022"/>
<path d="M20.0747 8.624L21.1254 6.74133L17.6027 3.224L14.7974 8.24533L18.3147 11.76L20.0747 8.624Z" fill="#CDCCCC"/>
<path d="M13.56 20.24H19.0427L15.5413 16.7067H10.0613L13.56 20.24Z" fill="#004990"/>
<path d="M15.5413 16.7067C15.6187 16.568 18.1093 12.1147 18.328 11.72H12.856L10.0693 16.7067H15.5413Z" fill="#F58020"/>
<path d="M12.8427 11.7333H18.328L14.8293 8.18668H9.34668C10.1627 9.01068 12.7733 11.6453 12.8427 11.7333Z" fill="#004990"/>
<path d="M14.8347 8.18668C14.9147 8.04801 17.408 3.59468 17.6213 3.20001H12.1493L9.36267 8.18668H14.8347Z" fill="white"/>
<path d="M29.064 12.1067L30.1147 10.224L26.5973 6.70932L23.792 11.7333L27.3093 15.2507L29.064 12.1067Z" fill="#CDCCCC"/>
<path d="M21.8294 15.2427H27.312L23.808 11.7093H18.3307L21.8294 15.2427Z" fill="#004990"/>
<path d="M29.784 20.6187L30.8507 18.736L27.32 15.2213L24.5147 20.24L28.032 23.7573C28.24 23.3813 29.08 21.8827 29.784 20.6187Z" fill="#CDCCCC"/>
<path d="M22.5413 23.7627H28.024L24.528 20.2293H19.0427L22.5413 23.7627Z" fill="#676767"/>
<path d="M23.808 11.7333L26.5947 6.74667H21.1254L18.3387 11.7333H23.808Z" fill="white"/>
<path d="M21.504 25.632L22.5707 23.7467L19.04 20.232L16.2347 25.2507L19.7493 28.768L21.504 25.632Z" fill="#CDCCCC"/>
<path d="M14.28 28.7547H19.7627L16.2667 25.224H10.7814L14.28 28.7547Z" fill="#676767"/>
<path d="M12.528 22.1333L13.5947 20.2507L10.064 16.7227L7.25867 21.744L10.7733 25.2587L12.528 22.1333Z" fill="#CDCCCC"/>
<path d="M5.31204 25.2453H10.7974L7.29871 21.7147H1.81604C2.63204 22.536 5.24004 25.1733 5.31204 25.2453Z" fill="#676767"/>
<path d="M11.808 13.584L12.8747 11.7013L9.34665 8.18668L6.54132 13.2053L10.0587 16.7227L11.808 13.584Z" fill="#CDCCCC"/>
<path d="M4.56265 16.7253H10.0453L6.54932 13.192H1.06665L4.56265 16.7253Z" fill="#676767"/>
<path d="M24.512 20.2373L27.3013 15.248H21.8266L19.04 20.2373H24.512Z" fill="white"/>
<path d="M16.2614 25.232C16.3414 25.0933 18.8294 20.6427 19.048 20.2453H13.576L10.7894 25.232H16.2614Z" fill="white"/>
<path d="M7.29066 21.7093C7.368 21.5707 9.856 17.1173 10.0747 16.7227H4.608L1.81866 21.7093H7.29066Z" fill="white"/>
<path d="M6.552 13.1867L9.33867 8.20001H3.864L1.07733 13.1867H6.552Z" fill="white"/>
</svg>
