<svg width="32" height="32" viewBox="0 0 32 32" fill="none" xmlns="http://www.w3.org/2000/svg">
<path fill-rule="evenodd" clip-rule="evenodd" d="M0 0C0 0 0.74666 0.0479744 16.0822 1.9459C31.4178 3.84383 36.7254 18.5712 27.3359 31.4249C28.7884 19.94 26.13 8.02575 15.4523 6.63289C4.77454 5.24004 5.70454 5.45345 5.70454 5.45345C5.70454 5.45345 5.88147 7.98303 6.88341 14.7831C7.88534 21.5831 13.4921 24.9179 18.3988 26.6346C18.3988 26.6346 18.6866 18.6764 15.949 15.1736C13.2113 11.6707 9.80548 9.34449 9.80548 9.34449C9.80548 9.34449 17.8094 10.2536 20.8313 15.5399C23.8532 20.8262 23.5588 32 23.5588 32L20.2989 31.8404C11.5273 30.8425 3.3324 25.8403 1.939 15.3455C0.545613 4.85062 0 0 0 0Z" fill="url(#paint0_linear_1711:31)"/>
<defs>
<linearGradient id="paint0_linear_1711:31" x1="0" y1="0" x2="29.7973" y2="31.0776" gradientUnits="userSpaceOnUse">
<stop offset="0.109375" stop-color="#FFB800"/>
<stop offset="0.510417" stop-color="#EB5500"/>
<stop offset="1" stop-color="#6712D2"/>
</linearGradient>
</defs>
</svg>
