<svg width="32" height="32" viewBox="0 0 32 32" fill="none" xmlns="http://www.w3.org/2000/svg">
<path d="M16.6724 31.7146L26.5636 18.824C27.4501 17.6673 27.2327 16.0103 26.076 15.1216L25.8481 14.9465C24.5098 13.9207 22.5932 14.1719 21.5652 15.5101L15.3912 23.5564C13.4767 26.0513 13.9474 29.6249 16.4424 31.5394L16.6724 31.7146Z" fill="#4D6DD3"/>
<path d="M27.3509 15.7973C27.3172 12.5235 24.6513 9.87866 21.369 9.87866H18.2218C17.1791 9.87866 16.3326 10.7251 16.3326 11.7678V15.8606H25.3077L25.3099 15.8627C25.3288 15.8627 25.3499 15.8606 25.3689 15.8606C26.2914 15.8606 27.0364 16.6078 27.0364 17.5281C27.0364 17.7181 27.0048 17.9017 26.9457 18.0727C26.9457 18.0727 27.2095 17.431 27.2897 16.8653C27.3404 16.5086 27.3509 16.0274 27.3531 15.8585C27.3531 15.8521 27.3531 15.8458 27.3531 15.8395C27.3509 15.8121 27.3509 15.7973 27.3509 15.7973Z" fill="#5F98FF"/>
<path d="M16.0118 0L6.12068 12.8906C5.23415 14.0472 5.45156 15.7042 6.60827 16.5929L6.83624 16.7681C8.17447 17.7939 10.0911 17.5427 11.119 16.2045L17.293 8.15817C19.2076 5.66324 18.7369 2.08968 16.2419 0.175198L16.0118 0Z" fill="#4D6DD3"/>
<path d="M5.33549 15.9176C5.36926 19.1915 8.03518 21.8363 11.3175 21.8363H14.4646C15.5074 21.8363 16.3538 20.9899 16.3538 19.9471V15.8543H7.37872L7.37661 15.8522C7.35762 15.8522 7.33651 15.8543 7.31751 15.8543C6.3951 15.8543 5.64999 15.1071 5.64999 14.1868C5.64999 13.9968 5.68166 13.8132 5.74076 13.6422C5.74076 13.6422 5.47691 14.2839 5.3967 14.8496C5.34604 15.2063 5.33548 15.6875 5.33337 15.8565C5.33337 15.8628 5.33337 15.8691 5.33337 15.8754C5.33548 15.9007 5.33549 15.9176 5.33549 15.9176Z" fill="#5F98FF"/>
</svg>
