<svg width="32" height="32" viewBox="0 0 32 32" fill="none" xmlns="http://www.w3.org/2000/svg">
<path fill-rule="evenodd" clip-rule="evenodd" d="M18.7723 5.33333C23.2535 5.33333 26.8994 8.97265 26.9005 13.4464C29.7885 14.2949 31.9032 16.9644 31.9032 20.119C31.9032 23.9523 28.7807 27.0712 24.9416 27.0731L23.8529 27.0933C23.6405 27.0952 23.4668 26.9246 23.4651 26.7124L23.4566 25.6716C23.4551 25.4595 23.6258 25.286 23.8383 25.2845L24.9377 25.2641C27.7794 25.2641 30.0912 22.9558 30.0912 20.119C30.0912 17.4389 28.0284 15.2315 25.405 14.995C25.2819 14.984 25.1807 14.8787 25.1807 14.7553V13.7478L25.1817 13.4486C25.1817 9.96923 22.2576 7.13816 18.7723 7.13816C15.7006 7.13816 13.0867 9.32247 12.5499 12.3343L12.4958 12.7369C12.4702 12.9284 12.3064 13.0715 12.1129 13.0715H9.88673L9.88689 13.0695H9.50665L9.3745 13.0724C7.26867 13.1487 5.57952 14.851 5.52655 16.9594C5.52246 17.0198 5.51916 17.0806 5.51775 17.1416C5.51586 17.2165 5.51114 17.6784 5.50816 17.972C5.50674 18.1081 5.39639 18.2178 5.25995 18.2187C4.75662 18.2286 4.27939 18.3438 3.84931 18.5436C2.79644 19.0336 2.02746 20.029 1.85628 21.2179C1.82751 21.3988 1.81195 21.584 1.81195 21.7728C1.81195 23.6599 3.31093 25.2036 5.18261 25.2805V25.2707H17.4126C17.5135 25.2707 17.6151 25.2646 17.7143 25.2521C18.913 25.1028 19.8169 24.0789 19.8169 22.8703V13.4651C19.8169 13.2465 19.9942 13.0695 20.2131 13.0695H21.2325C21.4513 13.0695 21.6286 13.2465 21.6286 13.4649L21.6288 18.5409V23.0918H21.6225C21.5166 25.1135 19.9685 26.7945 17.9386 27.0473C17.8549 27.0577 17.7702 27.0654 17.6855 27.0709V27.0798H5.32912V27.0933C2.39073 27.0933 0 24.7065 0 21.7728C0 19.3945 1.57113 17.3761 3.73126 16.6968C3.86094 15.2847 4.48877 13.9821 5.52686 12.9949C6.47536 12.093 7.70051 11.5429 8.98304 11.4101C8.98304 11.4101 9.24068 11.3728 10.0023 11.3583H10.012C10.226 11.3544 10.477 11.3522 10.7755 11.3531L10.7749 11.3568L10.9171 11.3566C11.8526 7.8276 15.0511 5.33333 18.7723 5.33333ZM10.3562 19.1959C10.5777 19.1959 10.7572 19.3751 10.7572 19.5963L10.7574 20.857V22.3868C10.7574 22.608 10.5777 22.7872 10.3564 22.7872H9.3464C9.12492 22.7872 8.94541 22.608 8.94541 22.3868L8.94525 19.5963C8.94525 19.3751 9.12476 19.1959 9.34625 19.1959H10.3562ZM14.0476 17.1411C14.2809 17.1411 14.4698 17.3299 14.4698 17.5626V19.6868L14.47 22.3657C14.47 22.5986 14.2809 22.7872 14.0478 22.7872H12.9914C12.7583 22.7872 12.5692 22.5986 12.5692 22.3657L12.5691 17.5626C12.5691 17.3299 12.7582 17.1411 12.9914 17.1411H14.0476ZM17.6883 15.1167C17.8953 15.1167 18.0634 15.2843 18.0634 15.4911L18.0635 19.5635V22.4127C18.0635 22.6196 17.8955 22.7872 17.6883 22.7872H16.5682C16.361 22.7872 16.1931 22.6196 16.1931 22.4127V19.3642L16.193 15.4911C16.193 15.2843 16.361 15.1167 16.5682 15.1167H17.6883Z" fill="#010061"/>
</svg>
