<svg width="32" height="32" viewBox="0 0 32 32" fill="none" xmlns="http://www.w3.org/2000/svg">
<path d="M16.1301 13.1176C16.1041 13.2153 16.0521 13.2804 16 13.313C15.948 13.3456 15.896 13.3781 15.8439 13.3781C15.7919 13.3781 15.7139 13.3456 15.6358 13.2804C15.5578 13.2153 15.4537 13.1501 15.3496 13.085C15.2456 13.0199 15.1155 12.9222 14.9594 12.8896C14.8033 12.8244 14.6472 12.7919 14.4391 12.7919C14.2569 12.7919 14.1009 12.8244 13.9708 12.8896C13.8407 12.9547 13.7106 13.0199 13.6326 13.1176C13.5285 13.2153 13.4765 13.3456 13.4244 13.4758C13.3724 13.6061 13.3464 13.769 13.3464 13.9318C13.3464 14.1272 13.3984 14.3227 13.4765 14.4529C13.5805 14.5832 13.6846 14.7135 13.8407 14.8112C13.9968 14.9089 14.1789 15.0066 14.361 15.0718C14.5691 15.1369 14.7513 15.2346 14.9594 15.3323C15.1675 15.4301 15.3496 15.5278 15.5578 15.6255C15.7659 15.7558 15.922 15.886 16.0781 16.0815C16.2342 16.2443 16.3643 16.4723 16.4423 16.7329C16.5464 16.9934 16.5724 17.2866 16.5724 17.6774C16.5724 18.0682 16.5204 18.4591 16.4163 18.7848C16.3122 19.143 16.1561 19.4362 15.948 19.6967C15.7399 19.9573 15.4797 20.1527 15.1675 20.3156C14.8553 20.4784 14.5171 20.5436 14.1269 20.5436C13.8927 20.5436 13.6846 20.511 13.4504 20.4459C13.2423 20.3807 13.0342 20.3156 12.8261 20.2179C12.6179 20.1202 12.4358 19.9899 12.2537 19.8596C12.0716 19.7293 11.9155 19.5665 11.7854 19.371L12.1756 18.5894C12.2017 18.5242 12.2537 18.4916 12.3057 18.4591C12.3578 18.4265 12.4098 18.3939 12.4618 18.3939C12.5399 18.3939 12.6439 18.4265 12.722 18.5242C12.8261 18.6219 12.9301 18.6871 13.0602 18.8173C13.1903 18.9151 13.3464 19.0128 13.5025 19.1105C13.6846 19.2082 13.8927 19.2408 14.1269 19.2408C14.4911 19.2408 14.8033 19.143 14.9854 18.9151C15.1935 18.6871 15.2976 18.3614 15.2976 17.9705C15.2976 17.7425 15.2456 17.5471 15.1675 17.4168C15.0635 17.254 14.9594 17.1563 14.8033 17.0586C14.6472 16.9608 14.4651 16.8631 14.283 16.798C14.0748 16.7329 13.8927 16.6677 13.6846 16.57C13.4765 16.5049 13.2943 16.4072 13.0862 16.2769C12.8781 16.1466 12.722 16.0163 12.5659 15.8209C12.4098 15.6255 12.2797 15.3975 12.2017 15.1369C12.1496 14.6809 12.0976 14.3552 12.0976 13.9318C12.0976 13.6061 12.1496 13.2804 12.2537 12.9873C12.3578 12.6942 12.5139 12.401 12.696 12.173C12.9041 11.945 13.1382 11.7496 13.4244 11.6193C13.7106 11.4891 14.0488 11.3914 14.413 11.3914C14.8293 11.3914 15.2196 11.4565 15.5578 11.6519C15.896 11.8473 16.2082 12.0428 16.4683 12.3359L16.1301 13.1176Z" fill="white"/>
<path d="M19.434 13.9642C19.7462 13.9642 20.0324 14.0294 20.2926 14.1597C20.5527 14.2899 20.7869 14.4854 20.969 14.7133C21.1511 14.9413 21.3072 15.267 21.4113 15.5927C21.5153 15.951 21.5674 16.3419 21.5674 16.7978C21.5674 16.9281 21.5674 16.9933 21.5674 17.091C21.5674 17.1561 21.5413 17.2212 21.5153 17.2538C21.4893 17.2864 21.4633 17.319 21.4373 17.3515C21.4113 17.3841 21.3592 17.3841 21.3072 17.3841H18.2373C18.2633 18.0355 18.4194 18.4915 18.6535 18.8172C18.8877 19.1103 19.2259 19.2732 19.6161 19.2732C19.8243 19.2732 19.9804 19.2406 20.1105 19.1755C20.2405 19.1103 20.3706 19.0452 20.4747 18.98C20.5787 18.9149 20.6828 18.8498 20.7609 18.7846C20.8389 18.7195 20.917 18.6869 20.995 18.6869C21.047 18.6869 21.0731 18.6869 21.1251 18.7195C21.1511 18.752 21.2031 18.7846 21.2292 18.8172L21.5934 19.3709C21.4633 19.5663 21.3072 19.7291 21.1511 19.8594C20.995 19.9897 20.8129 20.0874 20.6308 20.1851C20.4487 20.2503 20.2665 20.3154 20.0844 20.348C19.9023 20.3805 19.7202 20.4131 19.5381 20.4131C19.1999 20.4131 18.8617 20.348 18.5755 20.1851C18.2633 20.0548 18.0031 19.8269 17.795 19.5337C17.5609 19.2406 17.4048 18.9149 17.2747 18.4915C17.0926 18.1006 17.0405 17.6121 17.0405 17.0584C17.0405 16.635 17.0926 16.2441 17.1966 15.8533C17.3007 15.4625 17.4568 15.1368 17.6649 14.8762C17.873 14.5831 18.1332 14.3876 18.4194 14.2248C18.7316 14.0619 19.0698 13.9642 19.434 13.9642ZM19.46 15.039C19.0958 15.039 18.8357 15.1693 18.6275 15.3973C18.4194 15.6579 18.2893 15.9836 18.2373 16.4396H20.5007C20.5007 16.2441 20.4747 16.0487 20.4487 15.8859C20.3966 15.723 20.3446 15.5602 20.2405 15.4299C20.1625 15.2996 20.0324 15.2019 19.9023 15.1368C19.7983 15.0716 19.6422 15.039 19.46 15.039Z" fill="white"/>
<path d="M23.727 11.261V20.3481H22.5303V11.261H23.727Z" fill="white"/>
<path d="M26.2243 11.261V20.3481H25.0276V11.261H26.2243Z" fill="white"/>
<path d="M29.2163 22.0742C29.1902 22.1719 29.1382 22.2696 29.0862 22.3022C29.0341 22.3673 28.9301 22.3999 28.826 22.3999H27.9154L28.852 19.892L26.8228 14.0945H27.8894C27.9935 14.0945 28.0715 14.1271 28.1236 14.1922C28.1756 14.2573 28.2016 14.3225 28.2537 14.3876L29.3203 17.6446C29.3463 17.7423 29.3984 17.8726 29.4244 17.9703C29.4504 18.1006 29.4764 18.1983 29.5024 18.3286C29.5284 18.1983 29.5545 18.1006 29.5805 17.9703C29.6065 17.8726 29.6325 17.7423 29.6845 17.6446L30.6992 14.3876C30.7252 14.3225 30.7772 14.2248 30.8293 14.1922C30.8813 14.1271 30.9593 14.1271 31.0374 14.1271H32L29.2163 22.0742Z" fill="white"/>
<path d="M3.2 17.9054L3.79838 17.1888L5.56749 15.1043L6.55611 13.9318L6.7122 13.769C6.8683 13.5735 6.97237 13.313 6.99838 13.0524C6.99838 13.0198 6.99838 12.9547 6.99838 12.9221L7.0244 12.1404L7.05041 10.8702C7.05041 10.5445 6.97237 10.2188 6.79025 9.99082C6.60814 9.76283 6.37399 9.63255 6.11383 9.63255L4.50082 9.59998H4.4748C4.21464 9.59998 4.00651 9.73026 3.79838 9.92568L0.312195 14.0621C0.130081 14.2901 0.0260163 14.5832 0 14.9089C0 15.2346 0.0780489 15.5603 0.260163 15.7883L1.82114 17.8728C2.00325 18.1334 2.26342 18.2636 2.52358 18.2636C2.78374 18.2311 3.01789 18.1334 3.2 17.9054ZM2.3935 15.5929C2.36748 15.5929 2.34147 15.5929 2.31545 15.5603L2.15935 15.3649C2.10732 15.2997 2.13334 15.2346 2.15935 15.1695L2.18537 15.1369C2.21138 15.1043 2.2374 15.0066 2.18537 14.974C2.15935 14.9089 2.10732 14.8112 2.0813 14.7135C2.02927 14.5832 2.00325 14.4529 1.95122 14.3226C1.92521 14.2575 1.97724 14.1924 2.02927 14.1598L2.31545 14.0295C2.36748 13.9969 2.44553 14.0295 2.44553 14.0947C2.44553 14.1272 2.47155 14.1924 2.47155 14.2249C2.5496 14.5181 2.65366 14.7461 2.75773 14.8763C2.86179 15.0066 2.91382 15.0066 2.96586 14.9415C3.01789 14.8763 2.96586 14.7135 2.80976 14.2901C2.75773 14.1598 2.73171 14.0621 2.70569 13.9644C2.62765 13.6387 2.70569 13.4107 2.86179 13.2153C3.01789 13.0198 3.22602 12.9873 3.43415 13.085C3.48618 13.1176 3.53822 13.1501 3.59025 13.1827C3.61626 13.2153 3.69431 13.2153 3.72033 13.1827C3.74635 13.1175 3.82439 13.1501 3.85041 13.1827L4.00651 13.3781C4.05854 13.4433 4.05854 13.5084 4.00651 13.5735L4.03252 13.541C4.00651 13.5735 4.00651 13.6387 4.03252 13.7038C4.08456 13.8015 4.13659 13.8992 4.16261 13.9969C4.18862 14.0621 4.21464 14.1272 4.24065 14.1924C4.26667 14.2575 4.24066 14.3226 4.18862 14.3552L3.95448 14.5181C3.90244 14.5506 3.85041 14.5181 3.82439 14.4529C3.82439 14.4204 3.79838 14.4204 3.79838 14.3878C3.69431 14.1272 3.56423 13.8992 3.48618 13.769C3.40813 13.6712 3.33008 13.6712 3.30407 13.7038C3.25204 13.769 3.27805 13.8667 3.48618 14.3226C3.53822 14.4204 3.56423 14.5181 3.59025 14.6158C3.69431 14.9415 3.64228 15.202 3.46017 15.4626C3.27805 15.7232 3.01789 15.7557 2.75773 15.6255C2.70569 15.5929 2.65366 15.5603 2.60163 15.4952C2.5496 15.4626 2.49756 15.4626 2.47155 15.5277C2.44553 15.5929 2.41951 15.5929 2.3935 15.5929ZM4.787 11.717C4.83903 11.6519 4.91708 11.5868 5.02114 11.5868H5.04716C5.07318 11.5868 5.07318 11.5868 5.09919 11.5868C5.17724 11.5868 5.25529 11.6519 5.33334 11.717C5.38537 11.7822 5.41139 11.8473 5.4374 11.945C5.4374 11.9776 5.4374 12.0102 5.4374 12.0427C5.4374 12.0753 5.4374 12.1079 5.4374 12.1404C5.41139 12.2382 5.38537 12.3033 5.33334 12.3684C5.17724 12.5639 4.94309 12.5313 4.787 12.3359C4.70895 12.2382 4.68293 12.1079 4.68293 11.9776C4.68293 11.945 4.73496 11.8147 4.787 11.717Z" fill="white"/>
<path d="M8.42938 14.9741L7.96109 13.0199C7.93507 12.9547 7.90905 12.857 7.88304 12.7919V12.9547C7.88304 13.0524 7.88304 13.1176 7.85702 13.2153C7.80499 13.6061 7.70092 13.9644 7.49279 14.2901C7.44076 14.3878 7.36271 14.4855 7.28466 14.5832L7.12856 14.7461L6.97247 14.9415L6.13995 15.9512L5.64564 16.5374L5.69767 16.57C5.7497 16.6026 5.77572 16.6677 5.7497 16.7329V16.7654C5.72369 16.8306 5.7497 16.8957 5.77572 16.9283C5.87978 17.026 5.98385 17.1563 6.11393 17.3191C6.16596 17.3843 6.16596 17.4494 6.11393 17.5145L5.93182 17.7751C5.9058 17.8077 5.82775 17.8077 5.77572 17.7751C5.5936 17.5471 5.41149 17.3517 5.30742 17.2865C5.22938 17.2214 5.15133 17.254 5.12531 17.3191C5.09929 17.4168 5.15133 17.482 5.43751 17.8402C5.7497 18.1985 5.82775 18.5242 5.67165 18.9151C5.54157 19.3059 5.22938 19.4362 4.86515 19.2733C4.81312 19.2733 4.76108 19.2733 4.73507 19.3385C4.70905 19.371 4.68303 19.4036 4.631 19.4036C4.60498 19.4036 4.60499 19.4036 4.57897 19.4036L4.37084 19.2733C4.31881 19.2408 4.29279 19.143 4.31881 19.0779V19.0453C4.34482 18.9802 4.31881 18.9151 4.29279 18.8825C4.18872 18.7522 4.08466 18.6219 3.98059 18.4916L3.69441 18.8173C3.46027 19.1105 3.17409 19.3059 2.83588 19.371C2.7058 19.4036 2.57571 19.4362 2.41962 19.4362C2.31555 19.4362 2.21149 19.4362 2.10742 19.4036C2.10742 19.827 2.28954 20.2179 2.60173 20.4133L4.60499 21.7812C4.76108 21.8789 4.91718 21.9115 5.07328 21.9115C5.17734 21.9115 5.25539 21.9115 5.35946 21.8464C5.61962 21.7487 5.80173 21.5532 5.93182 21.2601L8.22125 15.9512C8.48141 15.5929 8.50743 15.2672 8.42938 14.9741Z" fill="white"/>
<path d="M4.91702 18.4591C5.0471 18.5568 5.12515 18.5242 5.15117 18.4591C5.17719 18.3613 5.09914 18.2636 4.81296 17.9054C4.76093 17.8402 4.70889 17.7751 4.65686 17.6774L4.44873 17.9054C4.63084 18.1659 4.78694 18.3613 4.91702 18.4591Z" fill="white"/>
</svg>
