<svg width="32" height="32" viewBox="0 0 32 32" fill="none" xmlns="http://www.w3.org/2000/svg">
<g clip-path="url(#clip0_3669_24)">
<path d="M21.2298 0H10.7702C4.82199 0 0 4.57858 0 10.2265V21.7735C0 27.4214 4.82199 32 10.7702 32H21.2298C27.178 32 32 27.4214 32 21.7735V10.2265C32 4.57858 27.178 0 21.2298 0Z" fill="url(#paint0_linear_3669_24)"/>
<path d="M16.7508 20.1424C14.8091 20.1424 13.0227 19.3657 11.7282 18.0712C10.4596 16.7767 9.65698 15.0162 9.65698 13.0485C9.65698 11.0809 10.4596 9.32039 11.7282 8.02589C13.0227 6.75729 14.8091 5.9547 16.7508 5.9547C18.7185 5.9547 20.5049 6.75729 21.7735 8.02589C23.068 9.32039 23.8706 11.0809 23.8706 13.0485H20.5308C20.5308 12.0129 20.0906 11.0809 19.4175 10.4078C18.7444 9.70874 17.7864 9.2945 16.7508 9.2945C15.7152 9.2945 14.7832 9.70874 14.1101 10.4078C13.411 11.0809 12.9968 12.0129 12.9968 13.0485C12.9968 14.0841 13.411 15.0421 14.1101 15.7152C14.7832 16.3884 15.7152 16.8026 16.7508 16.8026V20.1424V20.1424Z" fill="#FEFEFE"/>
<path d="M15.2751 11.7799C17.2427 11.7799 19.0033 12.5825 20.2977 13.877C21.5664 15.1456 22.3689 16.932 22.3689 18.8997C22.3689 20.8414 21.5664 22.6278 20.2977 23.8964C19.0033 25.1909 17.2427 25.9935 15.2751 25.9935C13.3075 25.9935 11.5469 25.1909 10.2524 23.8964C8.95794 22.6278 8.18124 20.8414 8.18124 18.8997H11.521C11.521 19.9353 11.9353 20.8673 12.6084 21.5405C13.3075 22.2395 14.2395 22.6537 15.2751 22.6537C16.3107 22.6537 17.2427 22.2395 17.9418 21.5405C18.6149 20.8673 19.0291 19.9353 19.0291 18.8997C19.0291 17.8641 18.6149 16.9062 17.9418 16.233C17.2427 15.5599 16.3107 15.1197 15.2751 15.1197V11.7799V11.7799Z" fill="#FEFEFE"/>
</g>
<defs>
<linearGradient id="paint0_linear_3669_24" x1="4.09061" y1="5.28155" x2="27.8835" y2="26.7184" gradientUnits="userSpaceOnUse">
<stop stop-color="#3B3B3B"/>
<stop offset="1" stop-color="#2A2A2A"/>
</linearGradient>
<clipPath id="clip0_3669_24">
<rect width="32" height="32" fill="white"/>
</clipPath>
</defs>
</svg>
