<svg width="347" height="348" viewBox="0 0 347 348" fill="none" xmlns="http://www.w3.org/2000/svg">
<path d="M53.4 70L113.5 35.4V104.7L53.4 70L113.5 35.4V104.7L53.4 70V70Z" fill="#62BC54"/>
<path d="M173.5 70L113.5 35.4V104.7L173.5 70L113.5 35.4V104.7L173.5 70V70Z" fill="#8AC758"/>
<path d="M233.5 35.4L173.5 0.700012V70L233.5 35.4L173.5 0.700012V70L233.5 35.4V35.4Z" fill="#62BC54"/>
<path d="M113.5 35.4L173.5 70V0.700012L113.5 35.4L173.5 70V0.700012L113.5 35.4V35.4Z" fill="#1EA554"/>
<path d="M113.5 174L53.4 139.3V208.6L113.5 174L53.4 139.3V208.6L113.5 174V174Z" fill="#8AC758"/>
<path d="M173.5 277.9L233.5 312.6V243.3L173.5 277.9L233.5 312.6V243.3L173.5 277.9Z" fill="#8AC758"/>
<path d="M233.5 312.6L173.5 277.9V347.2L233.5 312.6L173.5 277.9V347.2L233.5 312.6Z" fill="#62BC54"/>
<path d="M113.5 312.6L173.5 347.2V277.9L113.5 312.6L173.5 347.2V277.9L113.5 312.6Z" fill="#0F6F41"/>
<path d="M293.5 277.9L233.5 243.3V312.6L293.5 277.9L233.5 243.3V312.6L293.5 277.9Z" fill="#1EA554"/>
<path d="M233.5 243.3L293.5 277.9V208.6L233.5 243.3L293.5 277.9V208.6L233.5 243.3V243.3Z" fill="#0F6F41"/>
<path d="M293.5 70L233.5 35.4V104.7L293.5 70L233.5 35.4V104.7L293.5 70V70Z" fill="#A6D051"/>
<path d="M293.5 208.6L233.5 174V243.3L293.5 208.6L233.5 174V243.3L293.5 208.6V208.6Z" fill="#1EA554"/>
<path d="M293.5 139.3L233.5 104.7V174L293.5 139.3L233.5 104.7V174L293.5 139.3V139.3Z" fill="#8AC758"/>
<path d="M233.5 104.7L293.5 139.3V70L233.5 104.7L293.5 139.3V70L233.5 104.7Z" fill="#62BC54"/>
<path d="M173.5 70L233.5 35.4V104.7L173.5 70L233.5 35.4V104.7L173.5 70V70Z" fill="#8AC758"/>
<path d="M173.5 139.3L233.5 104.7V174L173.5 139.3L233.5 104.7V174L173.5 139.3V139.3Z" fill="#A9D04D"/>
<path d="M173.5 208.6L113.5 174V243.3L173.5 208.6L113.5 174V243.3L173.5 208.6V208.6Z" fill="#8AC758"/>
<path d="M173.5 277.9L113.5 243.3V312.6L173.5 277.9L113.5 243.3V312.6L173.5 277.9Z" fill="#1EA554"/>
<path d="M53.4 139.3L113.5 104.7V174L53.4 139.3L113.5 104.7V174L53.4 139.3V139.3Z" fill="#62BC54"/>
<path d="M113.5 104.7L53.4 139.3V70L113.5 104.7L53.4 139.3V70L113.5 104.7Z" fill="#1EA554"/>
<path d="M53.4 208.6L113.5 174V243.3L53.4 208.6L113.5 174V243.3L53.4 208.6V208.6Z" fill="#A9D04D"/>
<path d="M53.4 277.9L113.5 243.3V312.6L53.4 277.9L113.5 243.3V312.6L53.4 277.9Z" fill="#62BC54"/>
<path d="M113.5 243.3L53.4 277.9V208.6L113.5 243.3L53.4 277.9V208.6L113.5 243.3V243.3Z" fill="#8AC758"/>
<path d="M233.5 174L293.5 208.6V139.3L233.5 174L293.5 208.6V139.3L233.5 174Z" fill="#62BC54"/>
</svg>
