<svg width="32" height="32" viewBox="0 0 32 32" fill="none" xmlns="http://www.w3.org/2000/svg">
<g clip-path="url(#clip0)">
<path d="M4.27203 0.0480328C3.18723 0.220832 2.28483 0.688032 1.48483 1.48483C0.675226 2.29443 0.214426 3.19683 0.0448262 4.30402C-0.0191738 4.73282 -0.0191738 27.2672 0.0448262 27.696C0.214426 28.8032 0.675226 29.7056 1.48483 30.5152C2.29443 31.3248 3.19683 31.7856 4.30403 31.9552C4.73283 32.0192 27.2672 32.0192 27.696 31.9552C28.8032 31.7856 29.7056 31.3248 30.5152 30.5152C31.3248 29.7056 31.7856 28.8032 31.9552 27.696C31.9904 27.456 32 25.552 32 16C32 6.44802 31.9904 4.54402 31.9552 4.30402C31.7856 3.19683 31.3248 2.29443 30.5152 1.48483C29.7056 0.675232 28.8032 0.214432 27.696 0.0448328C27.2864 -0.0191671 4.66883 -0.0159671 4.27203 0.0480328Z" fill="#603BE9"/>
<path d="M15.2801 4.1312C14.5633 4.1856 13.7409 4.3168 13.0081 4.4992C10.0641 5.2288 8.02565 6.928 7.24805 9.296C6.99205 10.0704 6.89925 10.7072 6.89925 11.648C6.90245 12.864 7.09125 13.7312 7.53925 14.592C7.76965 15.0336 8.05125 15.408 8.48965 15.8464C9.32165 16.6848 10.0705 17.1552 11.3441 17.6416C12.1857 17.9616 13.3409 18.3264 14.4801 18.624C14.7617 18.6976 15.2289 18.8224 15.5169 18.9024C15.8049 18.9792 16.0513 19.0336 16.0641 19.0176C16.0769 19.0048 16.1633 18.6688 16.2529 18.272C16.4673 17.3536 16.4769 17.312 16.5057 17.312C16.5185 17.312 16.9185 17.6192 17.3921 17.9936C17.8689 18.368 18.9665 19.232 19.8305 19.9136C20.6977 20.5984 21.4145 21.1712 21.4273 21.1872C21.4369 21.2064 21.4401 21.2288 21.4305 21.2352C21.3985 21.2672 15.0977 23.3632 15.0817 23.3472C15.0721 23.3376 15.1361 23.0176 15.2289 22.6368C15.3185 22.256 15.3825 21.9328 15.3729 21.9168C15.3633 21.9008 15.3313 21.888 15.3025 21.888C15.2193 21.888 14.5281 21.7088 14.0577 21.5648C13.1873 21.2992 12.2977 20.944 11.3441 20.48C10.2145 19.9264 9.43365 19.44 8.56965 18.7456C8.40005 18.608 8.24005 18.496 8.21765 18.496C8.17285 18.496 5.43045 24.0512 5.41445 24.1728C5.40805 24.2272 5.47845 24.2912 5.75045 24.4832C6.56005 25.056 7.23525 25.4592 8.11205 25.888C10.3745 26.992 12.9601 27.6864 15.4881 27.872C16.0513 27.9136 17.5649 27.9136 18.1153 27.872C19.8081 27.7408 21.4657 27.3056 22.6849 26.6688C24.1793 25.8912 25.3249 24.7136 25.8913 23.376C26.2721 22.4736 26.4321 21.6224 26.4321 20.4768C26.4321 19.216 26.2529 18.3328 25.8209 17.456C25.5777 16.9568 25.2897 16.5632 24.8161 16.0704C24.1825 15.408 23.5969 14.96 22.8961 14.6016C22.4929 14.3968 21.5489 14.0224 20.7361 13.744C19.4721 13.3152 17.2545 12.6752 17.2193 12.7296C17.2097 12.7488 17.1137 13.1328 17.0081 13.5808C16.9025 14.032 16.8097 14.4 16.8001 14.4C16.7905 14.4 16.2849 14.0096 15.6801 13.5296C15.0721 13.0528 13.9713 12.1856 13.2321 11.6064C12.4929 11.0272 11.8753 10.5376 11.8561 10.5216C11.8369 10.5024 11.8401 10.4832 11.8689 10.4672C11.9489 10.416 18.2017 8.336 18.2209 8.3552C18.2305 8.3648 18.1441 8.7648 18.0321 9.248C17.9169 9.728 17.8241 10.1312 17.8241 10.144C17.8241 10.1568 18.0065 10.2144 18.2337 10.272C19.0337 10.48 20.3969 10.9632 21.4241 11.408C21.8849 11.6064 23.1009 12.2048 23.5041 12.4288C23.6801 12.528 23.8369 12.6048 23.8561 12.5952C23.8753 12.5888 24.1025 12.1376 24.3585 11.5968C26.0961 7.9424 26.5921 6.8896 26.5921 6.8416C26.5921 6.7808 26.0769 6.4704 25.4081 6.1312C23.2641 5.0432 20.5313 4.3008 18.0481 4.128C17.5105 4.0928 15.7953 4.0928 15.2801 4.1312Z" fill="white"/>
</g>
<defs>
<clipPath id="clip0">
<rect width="32" height="32" fill="white"/>
</clipPath>
</defs>
</svg>
