<svg width="32" height="32" viewBox="0 0 32 32" fill="none" xmlns="http://www.w3.org/2000/svg">
<path d="M18.8418 4.47998C18.0098 4.47998 17.421 4.56318 17.421 4.56318C11.6226 4.48638 11.309 12.064 11.309 12.064C11.0338 12.064 10.701 12.096 10.4642 12.2624C8.90899 13.4464 10.2274 14.8992 10.2274 14.8992C10.1058 14.9952 10.0034 15.0912 9.89459 15.1872C9.80348 15.0408 9.73042 14.8839 9.67699 14.72C7.98739 14.688 7.30899 14.2464 7.18099 13.5424C7.00819 12.6976 7.48179 11.7504 8.29459 11.7824C9.47219 11.8208 8.89619 12.5632 8.72979 12.5632C8.66652 12.565 8.60357 12.5534 8.5451 12.5291C8.48664 12.5049 8.43398 12.4685 8.39059 12.4224C8.28819 12.3264 8.15379 12.3904 8.15379 12.5248C8.15379 12.864 8.52499 13.3376 9.26739 12.9664C9.94579 12.6272 9.97779 12.0896 9.77939 11.648C9.69578 11.4131 9.55076 11.2049 9.35942 11.0451C9.16808 10.8853 8.9374 10.7796 8.69139 10.7392L8.65939 10.6368C8.65939 10.5344 8.56339 10.4704 8.49299 10.4704L8.15379 10.4384C8.05779 10.4384 7.98739 10.4704 7.95539 10.5664L7.92339 10.7392C7.61619 10.7712 7.31539 10.8416 7.07859 10.944L6.90579 10.8096C6.84179 10.7392 6.73939 10.7712 6.66899 10.8096L6.43859 11.008C6.36819 11.072 6.33619 11.1424 6.36819 11.2448L6.43219 11.3792C6.26579 11.552 6.06739 11.7824 5.93299 12.0192L5.83059 11.9872C5.72819 11.9552 5.65779 12.0192 5.59379 12.0896L5.45939 12.3904C5.44019 12.4285 5.43297 12.4715 5.43869 12.5137C5.4444 12.556 5.46277 12.5956 5.49139 12.6272L5.59379 12.7616C5.35699 13.6768 5.62579 14.7904 7.14259 15.8016C7.34739 15.9296 7.51379 16.0384 7.68659 16.1344L7.62259 16.4736C7.60868 16.5263 7.61391 16.5822 7.63735 16.6314C7.66078 16.6806 7.70091 16.72 7.75059 16.7424L8.12179 16.9152C8.16879 16.934 8.22016 16.9392 8.26998 16.9302C8.3198 16.9211 8.36604 16.8982 8.40339 16.864C7.75699 17.824 7.46899 18.656 6.24659 19.9936C5.98176 20.3147 5.65225 20.5764 5.27953 20.7616C4.90682 20.9469 4.49925 21.0515 4.08339 21.0688C3.80972 21.0719 3.53856 21.0163 3.2882 20.9057C3.03785 20.7951 2.81414 20.6321 2.63216 20.4277C2.45017 20.2233 2.31416 19.9822 2.23329 19.7207C2.15243 19.4592 2.12859 19.1835 2.16339 18.912C2.19304 18.5002 2.36296 18.1111 2.6448 17.8094C2.92665 17.5078 3.30339 17.3119 3.71219 17.2544C3.81459 17.2224 3.91699 17.2224 4.01939 17.2224C4.86419 17.2224 5.26739 17.9328 4.92819 18.6048C4.92819 18.6048 4.65939 19.2832 4.12179 19.3152H4.08339C3.57779 19.3152 3.64819 18.7392 3.81459 18.6112C3.84659 18.5728 3.91699 18.5728 3.94899 18.5728C4.05139 18.5728 4.12179 18.6368 4.21779 18.6368C4.25619 18.6368 4.28819 18.6368 4.32019 18.6048C4.55699 18.5088 4.52499 18.304 4.52499 18.304C4.49299 18.0352 4.28819 17.9328 4.01299 17.9328C3.84659 17.9328 3.64819 17.9968 3.51379 18.0672C3.00179 18.336 2.87379 19.0784 3.20659 19.552C3.41139 19.8592 3.75059 20.0256 4.15379 20.0256C4.85779 20.0256 5.74099 19.5136 6.07379 18.5088C6.41299 17.5296 5.67059 15.872 3.94899 15.872C3.53249 15.8749 3.12015 15.9552 2.73299 16.1088C-0.979006 17.4592 0.748994 23.7376 4.01299 23.7376C4.18579 23.7376 4.32019 23.7376 4.49299 23.6992C5.19699 23.5712 5.83699 23.232 6.44499 22.7904L6.51539 22.8544C6.57939 22.9248 6.64979 22.9632 6.72019 22.9632C6.78419 22.9632 6.84819 22.9248 6.91859 22.8928L7.22579 22.624C7.32819 22.56 7.35379 22.4192 7.32179 22.2848L7.25779 22.08C7.49459 21.8816 7.69299 21.6448 7.89779 21.44L8.00019 21.504C8.05079 21.5326 8.10858 21.5459 8.16659 21.5424C8.21113 21.5435 8.25538 21.5349 8.29627 21.5172C8.33715 21.4996 8.37371 21.4732 8.40339 21.44L8.64019 21.1392C8.70419 21.0368 8.74259 20.9024 8.67219 20.8L8.56979 20.6336C8.77459 20.3648 8.97939 20.1216 9.17779 19.8912L9.24819 19.9232C9.28019 19.9552 9.35059 19.9552 9.41459 19.9552C9.51699 19.9552 9.58739 19.9232 9.65139 19.8272L9.88819 19.52C9.95219 19.4176 9.99059 19.2832 9.92019 19.1808L9.85619 19.0464C10.2274 18.6048 10.5282 18.3424 10.765 18.3424C10.8994 18.3424 11.0018 18.4384 11.1042 18.6432C11.1682 18.7712 11.2386 18.944 11.373 19.1488L11.341 19.1808C11.2066 19.2832 11.1682 19.4496 11.277 19.584L11.469 19.9232C11.4991 19.9677 11.5404 20.0035 11.5887 20.0271C11.6369 20.0507 11.6906 20.0612 11.7442 20.0576H11.8786C12.013 20.2944 12.1474 20.5312 12.3202 20.8C12.1858 20.9024 12.1474 21.0688 12.2562 21.2032L12.4482 21.5424C12.5186 21.6448 12.621 21.6768 12.7234 21.6768H12.7874L12.8898 21.6448C13.0242 21.8816 13.197 22.1184 13.3634 22.3488L13.3314 22.3872C13.2782 22.4391 13.2456 22.5086 13.2397 22.5828C13.2338 22.6569 13.255 22.7307 13.2994 22.7904L13.5298 23.0976C13.6002 23.1616 13.6706 23.2256 13.7666 23.2256H13.869L13.933 23.1936C15.4562 25.3568 17.3122 27.3792 18.733 27.3792H18.797C21.325 27.2768 21.1906 22.048 19.405 22.048C19.3026 22.048 19.2002 22.048 19.0978 22.08C17.9522 22.4192 18.0226 23.84 18.0226 23.84C18.0226 23.84 18.5986 23.0272 18.9314 23.0272C19.2002 23.0272 19.3666 23.4304 19.1682 24.8192C19.1042 25.3184 18.8994 25.5552 18.6562 25.5552C17.3762 25.5552 14.2082 19.3856 14.2082 18.304C14.2082 18.2016 14.2722 18.1696 14.3746 18.1696C14.509 18.1696 14.6818 18.2336 14.9506 18.336L14.8866 18.5728C14.8705 18.6443 14.878 18.7192 14.908 18.7861C14.938 18.853 14.9889 18.9084 15.053 18.944L15.4242 19.0784C15.4562 19.0784 15.4882 19.1168 15.5202 19.1168C15.609 19.1126 15.6932 19.0762 15.757 19.0144L15.9298 18.8096C16.0962 18.912 16.301 19.0144 16.5058 19.1168L16.4354 19.3856C16.4193 19.4571 16.4268 19.532 16.4568 19.5989C16.4868 19.6658 16.5377 19.7212 16.6018 19.7568L16.973 19.8848C17.005 19.8848 17.037 19.9232 17.0754 19.9232C17.1642 19.919 17.2484 19.8826 17.3122 19.8208L17.4786 19.6544C17.7154 19.7824 17.9906 19.9232 18.2594 20.0896L18.189 20.3264C18.1729 20.3979 18.1804 20.4728 18.2104 20.5397C18.2404 20.6066 18.2913 20.662 18.3554 20.6976L18.7266 20.832C18.765 20.832 18.7906 20.8704 18.829 20.8704C18.9178 20.8662 19.002 20.8298 19.0658 20.768L19.2002 20.6336C19.469 20.7616 19.7378 20.9344 19.9746 21.0688L19.9106 21.3056C19.8945 21.3771 19.902 21.452 19.932 21.5189C19.962 21.5858 20.0129 21.6412 20.077 21.6768L20.4482 21.8112C20.4802 21.8112 20.5122 21.8496 20.5506 21.8496C20.6394 21.8454 20.7236 21.809 20.7874 21.7472L20.9218 21.6128C21.933 22.1504 22.9826 22.688 23.9554 23.1296C25.2354 23.7056 26.5538 24.0384 27.6674 24.0384C29.1202 24.0384 30.2658 23.4624 30.5346 21.984C30.5346 21.9456 30.5346 21.8816 30.573 21.8496L30.701 21.8112C30.8418 21.7792 30.9762 21.6448 30.9762 21.5424L31.0082 21.2416C31.0722 21.1072 31.0082 21.0368 30.9058 21.0048H30.7074C30.7074 20.6336 30.6434 20.3264 30.573 20.0256L30.6754 19.8912C30.7714 19.7568 30.7714 19.584 30.7074 19.52L30.5346 19.2832C30.5026 19.2512 30.3362 19.2192 30.1634 19.2192H30.1314C29.9389 18.9636 29.7001 18.7465 29.4274 18.5792L29.357 18.272C29.325 18.1376 29.2226 18.0032 29.0882 17.9648L28.781 17.9328C28.717 17.9328 28.5442 18.0672 28.4482 18.2016C28.2371 18.1618 28.023 18.1404 27.8082 18.1376C26.6946 18.1376 25.645 18.7136 25.5426 19.7888C25.5106 20.2624 25.5106 20.832 26.4898 21.408C26.7586 21.5744 27.0658 21.6448 27.3346 21.6448C28.141 21.6448 28.8834 21.1328 28.6786 20.3968C28.5506 19.8208 28.141 19.6224 27.7378 19.6224C27.4306 19.6224 27.1618 19.7504 27.0338 19.8912C26.7906 20.224 26.9634 20.6336 27.2002 20.6336C27.437 20.6336 27.3666 20.4288 27.3666 20.4288C27.2322 20.192 27.3986 20.0896 27.6354 20.0896C27.8402 20.0896 28.077 20.192 28.077 20.4608C28.109 20.832 27.6354 20.9728 27.469 21.0048H27.437C26.3618 21.0048 26.3938 19.9936 26.5986 19.7568C26.7206 19.5724 26.8859 19.4206 27.08 19.3146C27.274 19.2086 27.4911 19.1517 27.7122 19.1488C28.685 19.1488 29.6002 20.192 28.9922 21.44C28.8933 21.6942 28.7157 21.9101 28.4855 22.0563C28.2552 22.2025 27.9843 22.2714 27.7122 22.2528C27.2706 22.2528 26.6626 22.1184 25.8562 21.7408C23.0914 20.5568 19.213 18.752 18.2786 17.1008C18.8674 17.2672 19.7506 17.4592 20.0514 17.5616V17.7984C20.0514 17.9008 20.1154 18.0032 20.2178 18.0352L20.589 18.1632C20.6914 18.2016 20.8258 18.1632 20.8962 18.0672L21.0242 17.8624C21.2994 17.9328 21.6002 17.9648 21.9074 17.9968L22.0098 18.304C22.0279 18.3524 22.0602 18.3942 22.1024 18.4239C22.1447 18.4536 22.1949 18.4698 22.2466 18.4704L22.6498 18.4384C22.7522 18.4384 22.8546 18.336 22.8866 18.2336L22.9186 18.0352C23.2605 18.0107 23.5992 17.9529 23.9298 17.8624L24.1666 18.0992C24.208 18.1353 24.258 18.1602 24.3118 18.1714C24.3656 18.1826 24.4214 18.1798 24.4738 18.1632L24.845 18.0032C24.8961 17.9806 24.9372 17.9403 24.9607 17.8896C24.9843 17.839 24.9886 17.7816 24.973 17.728L24.941 17.4592C25.1778 17.3568 25.3826 17.2224 25.6194 17.056C28.4162 15.2 27.0018 13.6448 26.093 12.9024C25.2162 12.16 26.221 11.456 27.309 11.456C27.6098 11.456 28.1474 11.488 28.4866 11.52C28.5506 11.52 28.589 11.424 28.5186 11.392C28.1905 11.1855 27.8249 11.0459 27.4427 10.9811C27.0605 10.9163 26.6692 10.9276 26.2914 11.0144L26.2274 10.9504C26.1634 10.8864 26.093 10.848 25.9906 10.8864L25.6834 11.0144C25.5874 11.0464 25.5554 11.1488 25.5554 11.2192V11.3216C25.3826 11.424 25.2482 11.52 25.1458 11.6544L25.0114 11.5904C24.9928 11.5833 24.973 11.5801 24.9531 11.5812C24.9333 11.5823 24.9139 11.5876 24.8962 11.5968C25.549 9.74078 24.4802 7.51998 24.4802 7.51998C23.7378 4.91518 20.6786 4.49278 18.8418 4.47998ZM24.6402 12.1536C24.6481 12.1722 24.6589 12.1895 24.6722 12.2048L24.7362 12.2688C24.6402 12.5056 24.6082 12.7104 24.6082 12.9088L24.4738 13.0432C24.4441 13.0741 24.4246 13.1133 24.4177 13.1556C24.4109 13.1979 24.417 13.2413 24.4354 13.28L24.6082 13.5872C24.6402 13.6512 24.7362 13.7216 24.845 13.6896L24.973 13.6512C25.2802 13.9904 25.6514 14.1952 25.549 14.7648C25.421 15.5072 24.6082 15.9808 22.5794 15.9488C21.517 15.9168 20.077 15.3152 19.3346 14.9248C19.7378 14.7712 20.1922 14.6432 20.6786 14.4256C21.2738 14.3424 22.157 14.1184 23.5458 13.2608C23.9965 12.9879 24.3725 12.6074 24.6402 12.1536V12.1536ZM16.1346 12.9472C16.4741 12.9472 16.7996 13.082 17.0397 13.3221C17.2797 13.5621 17.4146 13.8877 17.4146 14.2272C17.4146 14.5667 17.2797 14.8922 17.0397 15.1323C16.7996 15.3723 16.4741 15.5072 16.1346 15.5072C15.7951 15.5072 15.4695 15.3723 15.2295 15.1323C14.9895 14.8922 14.8546 14.5667 14.8546 14.2272C14.8546 13.8877 14.9895 13.5621 15.2295 13.3221C15.4695 13.082 15.7951 12.9472 16.1346 12.9472V12.9472Z" fill="#1FA0ED"/>
<path d="M15.3601 13.8242C15.3601 13.8242 15.1937 14.765 16.1025 14.765C17.0177 14.765 16.8449 13.8242 16.8449 13.8242C16.0705 14.2978 15.3601 13.8242 15.3601 13.8242" fill="#1FA0ED"/>
</svg>
