<svg width="32" height="32" viewBox="0 0 32 32" fill="none" xmlns="http://www.w3.org/2000/svg">
<path d="M18.4377 5.46844L20.1107 2.62779C20.1107 2.62779 18.4398 1.83988 18.3173 3.5674C18.2687 4.25481 17.8418 4.51958 17.4471 4.51958C17.2406 4.51497 17.0441 4.42936 16.9 4.2812C16.756 4.13305 16.676 3.93422 16.6773 3.7276C16.6785 3.52098 16.7609 3.32313 16.9067 3.17672C17.0525 3.0303 17.25 2.94706 17.4566 2.94494C17.5114 2.94464 17.5661 2.95037 17.6197 2.96201C17.8567 2.20349 17.1269 1.97025 16.7047 2.20349C16.7301 1.99698 16.6902 1.7877 16.5906 1.60505C16.4909 1.4224 16.3365 1.27557 16.1491 1.18518C15.9521 1.26348 15.7886 1.40826 15.6871 1.59441C15.5856 1.78057 15.5524 1.99638 15.5933 2.20444C15.1711 1.97143 14.4424 2.20444 14.6783 2.96296C14.7319 2.95131 14.7866 2.94559 14.8414 2.94589C15.048 2.94801 15.2455 3.03125 15.3913 3.17766C15.5371 3.32408 15.6195 3.52193 15.6207 3.72855C15.622 3.93516 15.542 4.13399 15.3979 4.28215C15.2539 4.43031 15.0574 4.51592 14.8509 4.52053C14.4562 4.52053 14.0295 4.25457 13.9807 3.56835C13.8581 1.84083 12.114 2.50429 12.114 2.50429L13.8605 5.46844H18.4377ZM28.9591 14.9736C31.5864 14.6541 31.5586 12.5186 31.5586 12.5186C28.261 13.084 26.418 11.2571 26.418 11.2571C26.418 11.2571 28.4836 12.1318 30.1326 11.254C31.7523 10.3917 31.5288 8.57552 31.5288 8.57552C27.7113 9.82542 26.3334 8.47146 26.3334 8.47146C26.3334 8.47146 27.8768 8.79312 29.176 8.0128C30.9644 6.93902 30.177 5.34684 30.177 5.34684C27.2953 6.7008 25.988 6.01647 25.988 6.01647C25.988 6.01647 27.4439 5.9866 28.261 4.3648C28.8991 3.09783 27.8424 2.1274 27.8424 2.1274C26.3936 4.27685 24.0863 3.96563 22.5202 4.86921C21.4803 5.46915 22.427 6.57422 22.427 6.57422C23.438 6.19259 24.3399 7.32776 24.3399 9.01807C24.3399 11.4261 22.3692 12.7633 20.2802 12.7633C18.1563 12.7633 17.2203 11.8388 17.2203 9.65072C17.2203 8.73647 17.4419 8.37878 18.1146 8.37878C18.3008 8.37236 18.4855 8.41451 18.6505 8.50108C18.8155 8.58765 18.9551 8.71566 19.0557 8.87253C19.3168 8.45639 19.4567 7.97571 19.4598 7.48444C19.4598 6.43508 18.7117 6.17813 17.848 6.17813H13.5024C13.5024 6.75555 13.692 7.41546 14.3083 7.61339C14.3083 7.61339 14.1056 9.27928 13.8705 11.1137C13.7183 12.2989 12.7856 12.7633 11.7587 12.7633C9.79723 12.7633 7.6921 11.5174 7.6921 9.01807C7.6921 7.57925 8.4665 6.1613 9.60499 6.57422C9.96055 6.17268 10.2687 5.40491 9.59267 4.92065C8.41104 4.07443 5.58318 4.30435 4.18941 2.12717C4.18941 2.12717 3.13269 3.0976 3.77104 4.36456C4.5881 5.98637 6.04375 6.01623 6.04375 6.01623C6.04375 6.01623 4.73696 6.70008 1.85578 5.34613C1.85578 5.34613 1.06858 6.93831 2.85678 8.01208C4.15622 8.79241 5.69933 8.47075 5.69933 8.47075C5.69933 8.47075 4.32167 9.82471 0.503954 8.57481C0.503954 8.57481 0.280665 10.3908 1.90034 11.2533C3.54917 12.1304 5.61495 11.2564 5.61495 11.2564C5.61495 11.2564 3.77198 13.0833 0.474087 12.5179C0.474087 12.5179 0.446117 14.6534 3.07367 14.9729C5.1532 15.2258 6.87693 13.7543 6.87693 13.7543C6.87693 13.7543 6.34573 15.772 1.48434 16.4459C1.48434 16.4459 2.70247 18.5884 5.65832 17.8297C7.63237 17.3229 8.82585 15.5852 8.82585 15.5852C8.82585 15.5852 8.01992 18.1421 3.87581 19.6895C3.87581 19.6895 5.16813 21.1477 7.93104 20.0019C10.2635 19.0348 11.2332 16.6893 11.2332 16.6893C11.2332 16.6893 10.9317 18.8267 8.91142 20.9541C9.29356 21.04 9.69203 21.0185 10.0627 20.892C11.9827 20.105 13.1916 18.8406 13.504 16.8583C13.504 16.8583 14.0639 17.4002 13.925 18.4756C13.7335 19.9585 11.2664 21.6235 11.2664 21.6235L11.6023 22.126C10.9964 22.4827 10.076 23.0255 9.72967 23.2251C9.01169 22.7816 8.11782 22.2433 7.93649 22.1347C7.29791 21.7524 6.04635 21.7825 5.88493 23.3031C6.47752 22.6437 6.99024 22.7446 7.64588 23.0737C7.75658 23.1291 8.30958 23.4515 8.80997 23.7575C8.48215 23.9471 8.25317 24.0801 8.21548 24.1026C7.5769 24.485 7.01086 25.6036 8.27166 26.4657C7.97252 25.6303 8.30389 25.226 8.9036 24.8033C8.95906 24.7642 9.27906 24.5705 9.70692 24.3143C9.96766 24.4786 10.3367 24.736 10.4026 24.7855C10.9898 25.226 11.3088 25.6389 10.9853 26.4659C12.2709 25.6415 11.7381 24.5065 11.1111 24.1055C11.0817 24.0868 10.7923 23.8838 10.6133 23.7736C10.8542 23.6314 11.5975 23.1879 12.1067 22.8836L12.4326 23.3711L14.5557 22.0812C14.5931 22.3511 14.598 22.6245 14.5704 22.8956C14.378 24.467 13.5118 25.8987 11.5715 27.1974C11.6838 27.5186 11.8983 27.7942 12.182 27.9821C12.4657 28.17 12.8032 28.2599 13.1428 28.238C14.1241 28.238 14.7741 27.1372 15.1448 26.1843C14.7101 27.886 14.7418 29.2105 16.0083 30.3414C17.2314 29.2357 17.3213 27.8853 16.8868 26.1843C17.2573 27.1372 17.9074 28.238 18.8888 28.238C19.2284 28.2598 19.5658 28.1699 19.8495 27.9821C20.1332 27.7942 20.3477 27.5186 20.4601 27.1974C18.5197 25.8987 17.6536 24.467 17.4611 22.8956C17.4335 22.6249 17.4384 22.3519 17.4756 22.0824L19.5937 23.3711L19.9211 22.8814C20.43 23.1858 21.1762 23.63 21.4175 23.7736C21.239 23.8843 20.9496 24.087 20.9197 24.1055C20.2928 24.5065 19.7599 25.6415 21.0456 26.4659C20.722 25.6398 21.0411 25.226 21.6282 24.7855C21.6941 24.736 22.0634 24.4788 22.3242 24.3143C22.7523 24.5705 23.072 24.7647 23.1275 24.8033C23.7274 25.226 24.0586 25.6303 23.7594 26.4657C25.0202 25.6036 24.4539 24.485 23.8156 24.1026C23.7781 24.0801 23.5489 23.9474 23.2211 23.7575C23.7205 23.4515 24.2745 23.1291 24.385 23.0737C25.0406 22.7446 25.5531 22.6437 26.1461 23.3031C25.9847 21.7825 24.7332 21.7524 24.0946 22.1347C23.9121 22.244 23.0194 22.7823 22.3014 23.2251C21.9551 23.0251 21.0316 22.4806 20.426 22.1238L20.7607 21.6237C20.7607 21.6237 18.3218 19.9547 18.1058 18.4758C17.9458 17.3741 18.5268 16.8585 18.5268 16.8585C18.7544 18.66 20.0422 20.1956 21.9892 20.8597C22.3551 20.9703 22.7402 21.0026 23.1194 20.9545C21.0992 18.8269 20.7976 16.6895 20.7976 16.6895C20.7976 16.6895 21.7674 19.0362 24.0998 20.0021C26.8627 21.148 28.155 19.6897 28.155 19.6897C24.0126 18.1421 23.2067 15.5852 23.2067 15.5852C23.2067 15.5852 24.4001 17.3229 26.3744 17.8297C29.3305 18.5882 30.5484 16.4459 30.5484 16.4459C25.687 15.772 25.1558 13.7543 25.1558 13.7543C25.1558 13.7543 26.8793 15.2258 28.9591 14.9729V14.9736Z" fill="black"/>
</svg>
