<svg width="32" height="32" viewBox="0 0 32 32" fill="none" xmlns="http://www.w3.org/2000/svg">
<path fill-rule="evenodd" clip-rule="evenodd" d="M27.7582 22.7052C26.9569 24.0958 25.6483 25.1221 24.1069 25.5689C24.3272 24.8126 24.4397 24.029 24.441 23.2412C24.441 19.3181 21.7373 16.0277 18.1081 15.1317C18.8604 14.3959 19.7893 13.866 20.8056 13.5929C21.5894 13.3796 22.4079 13.3246 23.2132 13.4312C24.0185 13.5378 24.7945 13.8039 25.4958 14.2138C28.4475 15.928 29.4622 19.7369 27.7582 22.7052V22.7052ZM16.1299 29.4569C14.5155 29.4569 12.9798 28.812 11.8404 27.7108C12.6014 27.5239 13.3318 27.2294 14.0096 26.8363C17.3869 24.8754 18.8684 20.8772 17.8275 17.2692C20.4118 18.0138 22.3109 20.4064 22.3109 23.2412C22.3109 26.668 19.5376 29.4569 16.1299 29.4569ZM4.50101 22.7052C3.69393 21.2991 3.48501 19.6424 3.86224 18.1015C4.4035 18.6675 5.02153 19.1547 5.69824 19.5489C6.95577 20.2814 8.38508 20.6672 9.84039 20.6671C10.9633 20.6661 12.0744 20.4378 13.1068 19.996C14.1391 19.5541 15.0713 18.9078 15.8472 18.096C16.4955 20.7175 15.3841 23.564 12.9447 24.9806C12.0096 25.5253 10.9468 25.8121 9.8647 25.812C8.7762 25.8124 7.7069 25.5253 6.76499 24.9798C5.82307 24.4343 5.04197 23.6496 4.5007 22.7052H4.50101ZM4.5007 9.20183C5.30209 7.8112 6.61081 6.78489 8.15239 6.33814C7.93158 7.09458 7.81888 7.87844 7.81762 8.66645C7.81762 12.5874 10.5201 15.8769 14.1475 16.7744C12.2139 18.6532 9.20408 19.1104 6.76347 17.6932C5.33331 16.8624 4.31085 15.5224 3.88347 13.9184C3.67111 13.1303 3.61631 12.308 3.72223 11.4987C3.82814 10.6893 4.09268 9.90879 4.5007 9.20183V9.20183ZM16.1299 2.45014C17.745 2.45014 19.2792 3.09445 20.4176 4.19476C19.6573 4.38322 18.9274 4.67814 18.2496 5.07076C16.3265 6.18768 14.9512 7.98983 14.377 10.1468C13.9835 11.6203 14.0016 13.1735 14.4293 14.6375C11.8462 13.8923 9.9487 11.5 9.9487 8.66645C9.9487 5.23876 12.7213 2.45014 16.1299 2.45014V2.45014ZM27.7582 9.20183C28.5662 10.6098 28.7755 12.2683 28.3958 13.8111C27.8559 13.2426 27.2383 12.7535 26.5613 12.3581C24.6382 11.2421 22.3985 10.9455 20.2536 11.5234C18.7854 11.9189 17.4552 12.7126 16.4099 13.8169C16.1537 12.793 16.1623 11.7208 16.4352 10.7012C16.8619 9.09753 17.8847 7.75691 19.3149 6.92645C20.7447 6.0966 22.4102 5.87599 24.005 6.30552C25.5998 6.73537 26.9324 7.76399 27.7582 9.20183V9.20183ZM29.6035 8.13106C28.4933 6.19722 26.701 4.81414 24.5561 4.23629C24.0491 4.10039 23.5304 4.01262 23.0069 3.97414C21.4684 1.69906 18.8859 0.307678 16.1299 0.307678C13.2755 0.307678 10.7533 1.76276 9.25608 3.97322C6.52593 4.17506 4.03454 5.72891 2.65608 8.13045C1.54531 10.064 1.25085 12.3169 1.82501 14.4738C1.96162 14.9832 2.14549 15.4787 2.37424 15.9538C1.18439 18.4317 1.27731 21.3763 2.65547 23.7769C4.08254 26.2624 6.59577 27.7298 9.24747 27.9292C10.7859 30.2061 13.3736 31.6 16.1296 31.6C18.9838 31.6 21.5059 30.1446 23.0029 27.9338C25.733 27.732 28.2244 26.1788 29.6032 23.7769C31.0305 21.2908 31.0379 18.3668 29.8829 15.9578C31.0742 13.4788 30.9819 10.5329 29.6032 8.13106" fill="#0092FF"/>
</svg>
