<svg width="32" height="32" viewBox="0 0 32 32" fill="none" xmlns="http://www.w3.org/2000/svg">
<path d="M14.976 1.47693C16.2388 1.48677 17.5016 1.46708 18.7668 1.4917C19.3699 6.63139 19.9729 11.7686 20.6006 16.9034C21.9545 16.8862 23.3108 16.9034 24.6671 16.8935C25.6468 15.0868 28.1625 14.3852 29.8905 15.5422C31.9016 16.6917 32.2092 19.8499 30.4271 21.344C28.7828 23.0351 25.7255 22.4517 24.6474 20.4062C22.176 20.4012 19.7046 20.4037 17.2332 20.4062C16.8911 17.8166 16.4948 15.232 16.1477 12.6425C14.5231 18.6142 12.9674 24.6031 11.3945 30.5871C10.1785 30.5895 8.96001 30.5871 7.74647 30.5895C6.87509 26.9637 6.03571 23.328 5.16678 19.7022C3.52986 19.6874 1.8954 19.6997 0.258474 19.6948C0.246167 18.5255 0.260924 17.3563 0.246155 16.1895C2.93662 16.1871 5.62709 16.1895 8.31509 16.1871C8.75078 18.1095 9.21109 20.0246 9.65663 21.9422C11.4486 15.1262 13.1865 8.29539 14.976 1.47693Z" fill="#009ABD"/>
</svg>
