<svg width="36px" height="45px" viewBox="0 0 36 45" version="1.1" xmlns="http://www.w3.org/2000/svg" xmlns:xlink="http://www.w3.org/1999/xlink"><g stroke="none" stroke-width="1" fill="none" fill-rule="evenodd"><g fill="#5ABF9D"><path d="M27.4,39.589 L8.183,39.589 C6.96119557,39.646138 5.99997546,40.6533603 5.99997546,41.8765 C5.99997546,43.0996397 6.96119557,44.106862 8.183,44.164 L27.4,44.164 C28.6218044,44.106862 29.5830245,43.0996397 29.5830245,41.8765 C29.5830245,40.6533603 28.6218044,39.646138 27.4,39.589 L27.4,39.589 Z"></path><path d="M32.781,33.082 L19.681,33.082 C18.4591956,33.139138 17.4979755,34.1463603 17.4979755,35.3695 C17.4979755,36.5926397 18.4591956,37.599862 19.681,37.657 L32.781,37.657 C34.0028044,37.599862 34.9640245,36.5926397 34.9640245,35.3695 C34.9640245,34.1463603 34.0028044,33.139138 32.781,33.082 L32.781,33.082 Z"></path><path d="M32.776,26.575 L24.16,26.575 C22.9424076,26.637386 21.9871793,27.6428104 21.9871793,28.862 C21.9871793,30.0811896 22.9424076,31.086614 24.16,31.149 L32.776,31.149 C33.9935924,31.086614 34.9488207,30.0811896 34.9488207,28.862 C34.9488207,27.6428104 33.9935924,26.637386 32.776,26.575 L32.776,26.575 Z"></path><path d="M2.797,18.13 L11.413,18.13 C12.6348044,18.072862 13.5960245,17.0656397 13.5960245,15.8425 C13.5960245,14.6193603 12.6348044,13.612138 11.413,13.555 L2.797,13.555 C1.57519557,13.612138 0.613975464,14.6193603 0.613975464,15.8425 C0.613975464,17.0656397 1.57519557,18.072862 2.797,18.13 L2.797,18.13 Z"></path><path d="M13.479,20.056 C12.2525592,20.1072913 11.284687,21.1164872 11.284687,22.344 C11.284687,23.5715128 12.2525592,24.5807087 13.479,24.632 L22.094,24.632 C23.3158044,24.574862 24.2770245,23.5676397 24.2770245,22.3445 C24.2770245,21.1213603 23.3158044,20.114138 22.094,20.057 L13.48,20.057 L13.479,20.056 Z"></path><path d="M2.797,11.617 L15.891,11.617 C17.1085924,11.554614 18.0638207,10.5491896 18.0638207,9.33 C18.0638207,8.11081036 17.1085924,7.10538596 15.891,7.043 L2.797,7.043 C1.57940755,7.10538596 0.62417935,8.11081036 0.62417935,9.33 C0.62417935,10.5491896 1.57940755,11.554614 2.797,11.617 L2.797,11.617 Z"></path><path d="M8.173,5.11 L27.39,5.11 C28.6075924,5.04761404 29.5628207,4.04218964 29.5628207,2.823 C29.5628207,1.60381036 28.6075924,0.59838596 27.39,0.536 L8.173,0.536 C6.95540755,0.59838596 6.00017935,1.60381036 6.00017935,2.823 C6.00017935,4.04218964 6.95540755,5.04761404 8.173,5.11 Z"></path><circle cx="32.776" cy="9.333" r="2.285"></circle><circle cx="2.797" cy="35.372" r="2.285"></circle></g></g></svg>