<svg width="32" height="32" viewBox="0 0 32 32" fill="none" xmlns="http://www.w3.org/2000/svg">
<path d="M18.5622 3.47735C18.3026 3.02814 17.9294 2.65515 17.48 2.39583C17.0307 2.13651 16.521 2 16.0021 2C15.4833 2 14.9736 2.13651 14.5243 2.39583C14.0749 2.65515 13.7017 3.02814 13.4421 3.47735L9.22727 10.778L10.3025 11.3952C13.2579 13.1045 15.744 15.5192 17.5388 18.4235C19.3336 21.3279 20.3811 24.6315 20.5879 28.0394H17.6289C17.4241 25.1483 16.5132 22.3515 14.976 19.8943C13.4389 17.4371 11.3224 15.3945 8.81224 13.9456L7.73703 13.3305L3.81038 20.1581L4.88558 20.7753C6.18867 21.5407 7.30063 22.5924 8.13738 23.8509C8.97412 25.1094 9.51374 26.5416 9.71541 28.0394H2.95666C2.8702 28.0408 2.78491 28.0192 2.70952 27.9769C2.63413 27.9345 2.57135 27.8729 2.5276 27.7983C2.48385 27.7237 2.4607 27.6388 2.46052 27.5523C2.46034 27.4658 2.48314 27.3809 2.52658 27.3061L4.41034 24.0439C3.77404 23.5074 3.04534 23.0914 2.25993 22.816L0.395518 26.0718C0.136251 26.5213 -0.000156329 27.0311 1.34449e-07 27.55C0.000156598 28.0689 0.136872 28.5786 0.39641 29.028C0.655948 29.4773 1.02917 29.8504 1.47858 30.1099C1.92798 30.3693 2.43775 30.5059 2.95666 30.5059H12.2572V29.2737C12.2578 27.3253 11.7952 25.4047 10.9076 23.6702C10.02 21.9357 8.73279 20.4371 7.15212 19.2979L8.63161 16.7347C10.6574 18.1369 12.3133 20.009 13.4578 22.1908C14.6023 24.3726 15.2012 26.7992 15.2033 29.263V30.4973H23.0845V29.2651C23.081 25.4188 22.1188 21.6341 20.2851 18.2531C18.4513 14.8721 15.8038 12.0014 12.5819 9.90064L15.5731 4.71169C15.616 4.63757 15.6776 4.57603 15.7518 4.53325C15.826 4.49046 15.9101 4.46794 15.9957 4.46794C16.0813 4.46794 16.1654 4.49046 16.2396 4.53325C16.3138 4.57603 16.3754 4.63757 16.4183 4.71169L29.4627 27.3061C29.5061 27.3809 29.5289 27.4658 29.5287 27.5523C29.5285 27.6388 29.5054 27.7237 29.4617 27.7983C29.4179 27.8729 29.3551 27.9345 29.2797 27.9769C29.2043 28.0192 29.1191 28.0408 29.0326 28.0394H25.9811C26.0199 28.863 26.0242 29.6866 25.9811 30.5081H29.0433C29.5622 30.508 30.072 30.3714 30.5214 30.112C30.9708 29.8526 31.3441 29.4795 31.6036 29.0301C31.8631 28.5808 31.9998 28.071 32 27.5521C32.0002 27.0332 31.8637 26.5234 31.6045 26.0739L18.5622 3.47735Z" fill="#221F20"/>
</svg>
