<svg width="32" height="32" viewBox="0 0 32 32" fill="none" xmlns="http://www.w3.org/2000/svg">
<g clip-path="url(#clip0_2853_23)">
<path d="M30.4213 22.1057C30.4213 23.3267 29.5565 24.8259 28.4986 25.4363L17.9231 31.542C16.8655 32.1527 15.1352 32.1527 14.0777 31.542L3.5017 25.4363C2.44403 24.8259 1.57901 23.327 1.57901 22.1057V9.89414C1.57901 8.67315 2.44416 7.17414 3.5017 6.56371L14.0776 0.458108C15.1352 -0.15258 16.8657 -0.15258 17.9231 0.458108L28.4986 6.56384C29.5566 7.17414 30.4213 8.67315 30.4213 9.89427V22.1057Z" fill="#F3BA48"/>
<path d="M19.1197 14.4852C19.419 15.0022 19.2385 15.6763 18.7163 15.9781C18.1985 16.2772 17.5244 16.096 17.2255 15.579C16.9243 15.0566 17.1021 14.3777 17.6191 14.079C18.1413 13.7773 18.818 13.9629 19.1197 14.4852Z" fill="white"/>
<path d="M22.4842 13.5178C22.0884 13.7464 21.5804 13.6102 21.353 13.2147C21.1242 12.8192 21.2598 12.3112 21.6554 12.0826L25.268 9.99693C25.6645 9.76883 26.1718 9.90502 26.4003 10.3005C26.6287 10.6961 26.4931 11.2037 26.0968 11.4322L22.4842 13.5178Z" fill="white"/>
<path d="M19.6724 9.104L8.9833 15.2754C8.10829 15.7803 7.80915 16.8986 8.3136 17.7736L10.8851 22.2273C11.3905 23.1018 12.5084 23.4015 13.3834 22.8968L24.0724 16.7252C24.9467 16.2199 25.2468 15.1017 24.7414 14.2271L22.1699 9.77357C21.6655 8.89869 20.5467 8.59916 19.6724 9.104ZM13.2073 20.1719C12.5896 20.5281 12.1002 20.4692 11.9279 20.4228C11.8529 20.4028 11.8271 20.3921 11.8271 20.3031L11.8226 19.7807C11.8253 19.6969 11.9209 19.6545 11.9681 19.6589C11.9922 19.6576 12.4797 19.712 12.7931 19.5307C12.9833 19.4211 13.052 19.2228 12.9556 19.0568C12.8406 18.8576 12.5869 18.8015 12.1897 18.8594C11.6887 18.9339 10.9924 18.9116 10.6628 18.342C10.3914 17.8719 10.4835 17.1863 11.2147 16.7638C11.7084 16.4785 12.2335 16.5111 12.4361 16.5335C12.512 16.5335 12.5522 16.6245 12.5522 16.6688L12.521 17.1745C12.5183 17.2461 12.4575 17.3379 12.3959 17.3295C12.3387 17.33 11.8414 17.2691 11.5521 17.4363C11.3806 17.5352 11.319 17.7231 11.3923 17.8513C11.494 18.0273 11.7128 18.0773 12.1761 18.0131C12.6316 17.9462 13.3878 17.8961 13.7601 18.5421C14.043 19.0308 13.9046 19.7687 13.2073 20.1719ZM15.4592 15.1871C15.4868 15.2344 15.4725 15.2991 15.4208 15.329L14.1056 16.0883L14.4458 16.6774L15.5279 16.0523C15.5752 16.0251 15.643 16.0434 15.6708 16.0907L15.9689 16.6076C15.9992 16.6603 15.9788 16.7231 15.9314 16.7503L14.8484 17.3755L15.2189 18.0166L16.5343 17.2571C16.586 17.2269 16.6486 17.2479 16.676 17.2951L16.9752 17.813C17.002 17.8603 16.9885 17.9251 16.9367 17.9548L14.9708 19.0898C14.9189 19.12 14.8556 19.099 14.8288 19.0516L13.0135 15.9083C12.9868 15.861 13.0002 15.7958 13.052 15.7659L15.018 14.631C15.0697 14.6007 15.1332 14.6217 15.1599 14.6689L15.4592 15.1871ZM19.1547 16.738C18.2047 17.2861 17.0143 16.967 16.4662 16.0177C15.9178 15.0682 16.2303 13.8676 17.1804 13.3194C18.1304 12.7712 19.3315 13.0971 19.8797 14.0467C20.4279 14.9962 20.1038 16.1897 19.1547 16.738ZM22.6322 14.0594C21.9759 14.438 21.1377 14.2139 20.7592 13.5576C20.3795 12.9014 20.6047 12.063 21.2609 11.6845C21.9162 11.3059 22.7555 11.53 23.1342 12.1862C23.5127 12.8425 23.2878 13.6808 22.6322 14.0594Z" fill="white"/>
<path d="M25.4395 10.2941C25.6725 10.1597 25.969 10.2397 26.1037 10.4718C26.2377 10.7039 26.1582 11.0012 25.925 11.1352L22.3123 13.221C22.0803 13.3549 21.7838 13.2754 21.6488 13.0433C21.515 12.8113 21.5942 12.5138 21.8266 12.3799L25.4395 10.2941ZM25.0967 9.70047L21.4843 11.7862C20.9253 12.1089 20.7323 12.8264 21.0555 13.3862C21.3787 13.9456 22.0968 14.138 22.6555 13.8148L26.268 11.729C26.828 11.4058 27.0198 10.6884 26.6975 10.129C26.3743 9.56914 25.6564 9.37727 25.0967 9.70047Z" fill="#F3BA48"/>
</g>
<defs>
<clipPath id="clip0_2853_23">
<rect width="32" height="32" fill="white"/>
</clipPath>
</defs>
</svg>
