<svg width="32" height="32" viewBox="0 0 32 32" fill="none" xmlns="http://www.w3.org/2000/svg">
<path d="M29.3811 24.4818L31.9311 28.2183C32.0452 28.374 32.0072 28.6075 31.893 28.7243C28.5058 31.9159 23.5201 32.9668 19.0292 31.0207C17.5069 30.359 16.2129 29.4249 15.1092 28.2961C14.8047 28.3351 14.4622 28.3351 14.1578 28.3351C13.7011 28.3351 13.2443 28.2961 12.8257 28.2572C11.3795 28.1405 9.97132 27.7902 8.63927 27.2453C6.88859 26.5447 5.4043 25.5716 4.11032 24.3261C2.85439 23.0806 1.8268 21.6016 1.10369 19.8501C0.342524 18.0986 0 16.1915 0 14.0508C0 11.9101 0.380582 10.0029 1.10369 8.29034C1.86486 6.57778 2.85439 5.09876 4.11032 3.85326C5.36625 2.64668 6.88859 1.67364 8.63927 1.01197C10.39 0.350296 12.2168 0 14.1958 0C16.1368 0 18.0017 0.350296 19.7523 1.01197C21.503 1.67364 22.9873 2.60776 24.2813 3.85326C25.5372 5.05983 26.5648 6.53886 27.2879 8.29034C28.011 10.0029 28.3916 11.949 28.3916 14.0508C28.3916 16.1525 28.011 18.0986 27.2879 19.8501C26.9073 20.7453 26.4506 21.6016 25.9178 22.38C25.8036 22.5746 25.5372 22.5746 25.385 22.4579L20.9322 18.916C20.7799 18.7992 20.7419 18.6046 20.818 18.4489C21.0083 18.0597 21.1605 17.6316 21.3127 17.2034C21.6172 16.1525 21.7694 15.1406 21.7694 14.0897C21.7694 13.0388 21.6172 12.0268 21.3127 11.0149C21.0083 10.0029 20.5516 9.06878 19.9426 8.25142C19.3337 7.43406 18.5345 6.77239 17.6211 6.26641C16.6696 5.76043 15.5659 5.5269 14.2339 5.5269C12.9399 5.5269 11.7981 5.76043 10.8467 6.26641C9.89521 6.77239 9.13403 7.43406 8.5251 8.25142C7.91616 9.06878 7.45946 10.0029 7.155 11.0149C6.85053 12.0268 6.6983 13.0777 6.6983 14.0897C6.6983 15.1406 6.85053 16.1525 7.155 17.2034C7.45946 18.2543 7.91616 19.1495 8.5251 19.9669C9.13403 20.7842 9.93326 21.4459 10.8467 21.9519C10.8847 21.9908 10.9228 21.9908 10.9989 22.0297C11.3414 22.1854 11.684 22.3411 12.0645 22.4579C12.0265 22.3022 11.9884 22.1076 11.9504 21.9519C11.8362 21.2902 11.7601 20.6286 11.722 19.9669C11.722 19.7723 11.8742 19.6166 12.0265 19.5777L16.4032 18.8382C16.6316 18.7992 16.8599 18.9938 16.8599 19.2274V19.4609C16.8218 20.2393 16.936 20.9788 17.1644 21.7184C17.7353 23.6645 19.1054 25.3381 21.0844 26.1944C21.2747 26.2722 21.503 26.3501 21.6933 26.4279C22.6448 26.7393 23.5963 26.8171 24.5477 26.7004C26.2223 26.5057 27.7827 25.7273 28.9244 24.4429C28.9625 24.2872 29.2289 24.2872 29.3811 24.4818Z" fill="#119C6E"/>
</svg>
