<svg width="32" height="32" viewBox="0 0 32 32" fill="none" xmlns="http://www.w3.org/2000/svg">
<path d="M0.594727 13.1083C0.594727 7.02022 10.0594 6.14814 10.0594 6.14814L31.3943 4.69336L31.2876 22.4083C31.2876 26.8947 20.6593 28.756 10.5371 26.0654V26.0794L0.600365 23.3349L0.594727 13.1083Z" fill="#47AEDC"/>
<path d="M6.84653 18.835C6.43037 18.835 5.85605 18.7741 5.46961 18.6688C5.37895 18.6461 5.32592 18.5857 5.32592 18.4949V17.8829C5.32528 17.8639 5.32856 17.8449 5.33556 17.8272C5.34256 17.8095 5.35312 17.7934 5.3666 17.78C5.38007 17.7665 5.39617 17.756 5.41389 17.749C5.43161 17.742 5.45058 17.7387 5.46961 17.7394H5.50009C5.90862 17.7924 6.54405 17.8461 6.78618 17.8461C7.14931 17.8461 7.23251 17.7478 7.23251 17.5514C7.23251 17.438 7.16439 17.3549 6.95258 17.2341L5.96912 16.6674C5.5455 16.4256 5.2959 16.0403 5.2959 15.5492C5.2959 14.7861 5.80272 14.3782 6.84668 14.3782C7.44432 14.3782 7.80744 14.4544 8.19327 14.5519C8.2847 14.5746 8.33697 14.6351 8.33697 14.7256V15.3366C8.33697 15.4272 8.28409 15.4802 8.20836 15.4802H8.18565C7.96638 15.4497 7.31571 15.3819 6.92988 15.3819C6.63487 15.3819 6.52897 15.4276 6.52897 15.601C6.52897 15.7142 6.61217 15.7747 6.76348 15.8654L7.70154 16.4019C8.3295 16.7646 8.46558 17.1574 8.46558 17.5654C8.46542 18.2759 7.95098 18.835 6.84653 18.835V18.835ZM12.369 16.984H9.95571V16.9993C9.95571 17.4301 10.1373 17.8221 10.7348 17.8221C11.2115 17.8221 11.8849 17.7843 12.1873 17.7542H12.2102C12.2934 17.7542 12.3539 17.792 12.3539 17.875V18.4492C12.3539 18.57 12.3234 18.623 12.1949 18.6532C11.7108 18.7741 11.3023 18.8346 10.6442 18.8346C9.72881 18.8346 8.74535 18.3509 8.74535 16.8928V16.364C8.74535 15.1475 9.45636 14.377 10.6593 14.377C11.8999 14.377 12.5279 15.2231 12.5279 16.364V16.8026C12.5279 16.9159 12.4673 16.984 12.369 16.984V16.984ZM11.3328 16.1982C11.3328 15.6391 11.0754 15.3601 10.6518 15.3601C10.2358 15.3601 9.95586 15.6472 9.95586 16.1982V16.2287H11.3328V16.1982ZM15.2058 15.3897H15.1449C14.7741 15.3897 14.449 15.503 14.1697 15.6542V18.6083C14.1697 18.6915 14.1015 18.767 14.0183 18.767H13.1027C13.0611 18.7655 13.0215 18.7483 12.9921 18.7189C12.9626 18.6894 12.9454 18.6499 12.9439 18.6083V14.5889C12.9442 14.5489 12.9603 14.5106 12.9886 14.4823C13.0169 14.454 13.0552 14.438 13.0952 14.4378H13.9955C14.0355 14.438 14.0738 14.454 14.1021 14.4823C14.1304 14.5106 14.1465 14.5489 14.1468 14.5889V14.7401C14.4267 14.5057 14.8049 14.3774 15.1677 14.3774C15.2079 14.3776 15.2463 14.3936 15.2747 14.422C15.3031 14.4504 15.3192 14.4889 15.3194 14.529V15.2467C15.3194 15.3142 15.274 15.3897 15.2058 15.3897ZM18.7539 18.767H17.9066C17.8666 18.7668 17.8283 18.7508 17.8 18.7225C17.7717 18.6942 17.7556 18.6559 17.7553 18.6159V18.4949C17.4603 18.7066 17.1577 18.835 16.7039 18.835C16.0458 18.835 15.4102 18.5178 15.4102 17.5355V17.4675C15.4102 16.5837 15.9777 16.1906 17.2714 16.1906H17.6797V15.9186C17.6797 15.488 17.4679 15.3973 17.1123 15.3973C16.6282 15.3973 16.0913 15.4278 15.8565 15.4502H15.8186C15.7424 15.4502 15.6825 15.4125 15.6825 15.3142V14.7023C15.6825 14.6191 15.7354 14.5587 15.8262 14.536C16.1061 14.4681 16.6358 14.3774 17.135 14.3774C18.2244 14.3774 18.9052 14.8155 18.9052 15.9186V18.6157C18.9049 18.6558 18.8889 18.6941 18.8606 18.7224C18.8323 18.7507 18.7939 18.7668 18.7539 18.767V18.767ZM17.7025 16.9159H17.2712C16.7415 16.9159 16.6055 17.0973 16.6055 17.4675V17.5355C16.6055 17.8528 16.7642 17.9133 17.082 17.9133C17.309 17.9133 17.5208 17.8371 17.7025 17.747V16.9159ZM23.2401 14.6116L22.2868 18.0417C22.0977 18.714 21.6362 18.835 21.1897 18.835C20.7432 18.835 20.2894 18.714 20.1003 18.0417L19.1546 14.6116C19.1484 14.5972 19.1458 14.5815 19.147 14.5659C19.147 14.4897 19.2001 14.4374 19.268 14.4374H20.2667C20.3429 14.4374 20.4028 14.5054 20.4255 14.5962L21.0762 17.5579C21.0989 17.6711 21.1371 17.7165 21.1897 17.7165C21.2423 17.7165 21.288 17.6708 21.3107 17.5579L21.9617 14.5965C21.9842 14.5051 22.0447 14.4378 22.1204 14.4378H23.1197C23.1367 14.4376 23.1534 14.4408 23.1691 14.4472C23.1848 14.4536 23.199 14.4631 23.211 14.4751C23.2229 14.487 23.2324 14.5012 23.2388 14.5169C23.2452 14.5325 23.2485 14.5493 23.2484 14.5662C23.2493 14.5818 23.2465 14.5974 23.2401 14.6116ZM25.2599 18.835C24.0343 18.835 23.361 18.0719 23.361 16.8707V16.3424C23.361 15.141 24.0343 14.378 25.2599 14.378C26.4855 14.378 27.1511 15.1404 27.1511 16.3424V16.8713C27.1511 18.0719 26.4854 18.835 25.2599 18.835V18.835ZM25.9332 16.3424C25.9332 15.7304 25.6986 15.4206 25.2599 15.4206C24.8212 15.4206 24.5789 15.7304 24.5789 16.3424V16.8713C24.5789 17.4832 24.8211 17.8008 25.2599 17.8008C25.6988 17.8008 25.9332 17.4835 25.9332 16.8713V16.3424Z" fill="white"/>
</svg>
