<svg width="16" height="15" viewBox="0 0 16 15" fill="none" xmlns="http://www.w3.org/2000/svg">
<path fill-rule="evenodd" clip-rule="evenodd" d="M7.71094 0.313965C3.52679 0.313965 0.239243 3.60151 0.239243 7.78566C0.239243 9.97736 1.13585 11.9698 2.53057 13.3645C3.02868 13.8626 3.92528 13.8626 4.52302 13.4642C5.32 12.7668 6.51547 12.3683 7.71094 12.3683C9.00604 12.3683 10.0023 12.7668 10.8989 13.4642C11.4966 13.9623 12.2936 13.8626 12.8913 13.2649C14.286 11.8702 15.1826 9.97736 15.1826 7.78566C15.083 3.70114 11.7955 0.313965 7.71094 0.313965ZM7.61132 11.6709C5.32 11.6709 3.82566 9.97736 3.82566 7.88529C3.82566 5.79321 5.32 4.09963 7.61132 4.09963C9.90264 4.09963 11.397 5.79321 11.397 7.88529C11.397 9.97736 9.90264 11.6709 7.61132 11.6709Z" fill="#81B5A1"/>
</svg>
