<svg width="32" height="32" viewBox="0 0 32 32" fill="none" xmlns="http://www.w3.org/2000/svg">
<path d="M17.6842 23.3684V14.9053C17.6842 14.3579 18.1474 13.8947 18.6947 13.8947H27.6632C28.5474 13.8947 29.0105 14.9895 28.3368 15.6211L19.3684 24.0842C18.7368 24.6737 17.6842 24.2526 17.6842 23.3684Z" fill="#09588E"/>
<path d="M27.7895 10.9474H4.21051C3.74736 10.9474 3.36841 10.5684 3.36841 10.1053V7.57895C3.36841 7.11579 3.74736 6.73685 4.21051 6.73685H27.7895C28.2526 6.73685 28.6316 7.11579 28.6316 7.57895V10.1053C28.6316 10.5684 28.2526 10.9474 27.7895 10.9474ZM12.6316 13.8947H4.21051C3.74736 13.8947 3.36841 14.2737 3.36841 14.7368V17.2632C3.36841 17.7263 3.74736 18.1053 4.21051 18.1053H12.6316C13.0947 18.1053 13.4737 17.7263 13.4737 17.2632V14.7368C13.4737 14.2737 13.0947 13.8947 12.6316 13.8947ZM12.6316 21.0526H4.21051C3.74736 21.0526 3.36841 21.4316 3.36841 21.8947V24.4211C3.36841 24.8842 3.74736 25.2632 4.21051 25.2632H12.6316C13.0947 25.2632 13.4737 24.8842 13.4737 24.4211V21.8947C13.4737 21.4316 13.0947 21.0526 12.6316 21.0526Z" fill="#28CE6B"/>
</svg>
