<svg width="32" height="32" viewBox="0 0 32 32" fill="none" xmlns="http://www.w3.org/2000/svg">
<path d="M16.1178 4.47528C17.9205 4.44089 19.7054 4.83782 21.3236 5.63301C22.9418 6.4282 24.3465 7.5986 25.4207 9.0467C25.4646 9.08669 25.5158 9.11774 25.5716 9.13813C25.429 8.61263 25.2455 8.09907 25.023 7.60213L23.6516 4.20099C23.3316 3.41013 22.2801 2.95756 21.2881 3.17699L17.4938 4.03642C16.6573 4.23299 15.9898 4.40213 15.9898 4.42499C15.9898 4.44785 16.0447 4.45242 16.1178 4.47528Z" fill="#004EA2"/>
<path d="M5.24697 11.6936C6.47856 8.97354 8.64816 6.78772 11.359 5.53589C11.3953 5.51041 11.429 5.48131 11.4595 5.44904C11.0452 5.50527 10.6346 5.58618 10.2298 5.69132L7.5784 6.29475C7.24657 6.41146 6.94823 6.60736 6.70925 6.86547C6.47026 7.12357 6.29785 7.43608 6.20697 7.77589L5.45726 10.5873C5.28354 11.241 5.16012 11.7759 5.17383 11.7805C5.18754 11.785 5.20583 11.7485 5.24697 11.6936Z" fill="#004EA2"/>
<path d="M28.3647 15.9999C28.1673 15.4451 27.9289 14.9057 27.6516 14.3862C27.6298 14.7511 27.6467 15.1173 27.7018 15.4787V16.0502C27.7018 16.1736 27.7018 16.2925 27.7018 16.4159C27.6523 18.1001 27.2561 19.7561 26.538 21.2804C25.8199 22.8047 24.7953 24.1647 23.5281 25.2753C23.4915 25.3241 23.4594 25.3762 23.4321 25.4307C23.9733 25.2075 24.4986 24.9478 25.0047 24.6536L28.8218 22.5873C29.2935 22.3394 29.6624 21.9328 29.8631 21.4392C30.0639 20.9456 30.0837 20.3969 29.919 19.8902L28.3647 15.9999Z" fill="#004EA2"/>
<path d="M6.30757 23.6067C6.29898 23.5599 6.28194 23.5149 6.25728 23.4742C4.91816 21.5723 4.17937 19.3129 4.13614 16.9873C4.13614 16.9096 4.13614 16.8273 4.13614 16.745V16.3702C4.15335 16.1251 4.15335 15.8792 4.13614 15.6342C4.0109 16.0004 3.9041 16.3727 3.81614 16.7496L3.18985 19.2959C3.11752 19.6101 3.12127 19.937 3.20078 20.2495C3.2803 20.562 3.43328 20.851 3.647 21.0924L5.47557 22.8342C5.7398 23.1054 6.01748 23.3633 6.30757 23.6067V23.6067Z" fill="#004EA2"/>
<path d="M18.495 27.9358C17.0436 28.3115 15.5332 28.4031 14.047 28.2055L13.6401 28.1507C13.5076 28.1507 13.375 28.0958 13.2424 28.0684C11.9082 27.7971 10.6337 27.2876 9.48013 26.5644C9.418 26.5262 9.35006 26.4985 9.27899 26.4821C9.5744 26.8139 9.88722 27.1298 10.2161 27.4284L12.5613 29.7141C12.8441 29.9966 13.2033 30.1904 13.5948 30.2716C13.9862 30.3528 14.3928 30.3179 14.7647 30.1713L17.5076 28.6947C17.9446 28.4625 18.3647 28.1998 18.7647 27.9084C18.6741 27.9081 18.5837 27.9173 18.495 27.9358V27.9358Z" fill="#004EA2"/>
<path d="M11.1761 4.44786C11.7933 4.29701 12.3144 4.38843 12.3144 4.66729C12.3144 4.94615 12.6024 9.16558 12.9681 9.62729C13.3339 10.089 13.951 10.0159 14.3396 9.42615C14.7281 8.83643 15.0436 4.30615 15.0436 4.01815C15.0436 3.73015 15.6241 3.35529 16.3464 3.17701C17.0687 2.99872 17.2104 2.48672 16.6253 2.06615L14.6276 0.639864C14.0881 0.246721 13.2241 0.511864 12.7076 1.20672L10.9521 3.56101C10.4676 4.20101 10.5727 4.62158 11.1761 4.44786Z" fill="#004EA2"/>
<path d="M24.6801 26.4044C23.9258 26.7884 23.1396 26.8615 22.9247 26.569C22.7098 26.2764 19.2218 22.1987 18.5224 21.9381C17.823 21.6775 17.2516 22.0387 17.2516 22.7381C17.2516 23.4375 19.8984 27.7667 20.0904 28.0547C20.2824 28.3427 19.903 28.8455 19.2447 29.1793C18.5864 29.513 18.7876 30.0158 19.7018 30.313L23.039 31.433C24.0538 31.7713 25.0367 31.337 25.2104 30.4593L25.8047 27.3187C25.9556 26.4181 25.4527 26.0067 24.6801 26.4044Z" fill="#004EA2"/>
<path d="M8.93614 27.4147C8.47899 26.9576 8.22757 26.4593 8.36014 26.2719C8.49271 26.0844 10.431 22.857 10.431 22.2399C10.431 21.6227 9.97385 21.2479 9.46185 21.4079C8.94985 21.5679 6.71899 24.3701 6.60014 24.5576C6.48128 24.745 6.03785 24.5576 5.63557 24.1599C5.23328 23.7621 4.98185 23.9861 5.05042 24.6444L5.35214 26.985C5.3753 27.2943 5.50509 27.586 5.71935 27.8102C5.93361 28.0345 6.21907 28.1775 6.52699 28.2147H8.61614C9.26071 28.2421 9.39785 27.8673 8.93614 27.4147Z" fill="#004EA2"/>
<path d="M3.38642 15.6342C3.52356 15.0856 3.7887 14.6787 3.96699 14.7199C4.14527 14.761 7.22642 15.5016 7.71099 15.2959C7.82475 15.2496 7.92641 15.178 8.0082 15.0864C8.08998 14.9947 8.1497 14.8856 8.1828 14.7674C8.21589 14.6491 8.22148 14.5248 8.19913 14.4041C8.17677 14.2833 8.12708 14.1693 8.05384 14.0707C7.74756 13.6136 4.74413 12.4799 4.5567 12.4296C4.36927 12.3793 4.34642 11.8673 4.4927 11.3004C4.63899 10.7336 4.37385 10.5644 3.90299 10.9393L2.30756 12.1736C2.08962 12.3604 1.93578 12.6108 1.86771 12.8897C1.79964 13.1685 1.82077 13.4617 1.92813 13.7279L2.70527 15.6204C2.94756 16.169 3.2447 16.1827 3.38642 15.6342Z" fill="#004EA2"/>
<path d="M17.8184 15.6296C18.4401 15.0216 18.2435 14.4593 17.3933 14.3907L16.6435 14.3313C16.2142 14.2779 15.8028 14.1264 15.4414 13.8886C15.0799 13.6508 14.778 13.333 14.559 12.9599L14.2481 12.393C13.9144 11.7347 13.375 11.7896 13.0458 12.5119L12.7533 13.161C12.5688 13.5298 12.3118 13.8576 11.9975 14.1247C11.6833 14.3918 11.3184 14.5927 10.9247 14.7153L10.3167 14.8479C9.66755 14.9896 9.52126 15.4924 9.98755 15.977L10.4218 16.4342C10.6786 16.7432 10.8705 17.1009 10.9859 17.4857C11.1014 17.8706 11.1381 18.2748 11.0938 18.6742L10.9933 19.2959C10.879 20.0136 11.2767 20.3427 11.9075 20.0182L12.4607 19.7073C12.8428 19.5393 13.2574 19.4579 13.6747 19.4689C14.092 19.48 14.5017 19.5833 14.8744 19.7713L15.5098 20.1233C16.223 20.521 16.703 20.1919 16.5613 19.3873L16.4333 18.665C16.3834 18.2129 16.432 17.7553 16.5756 17.3237C16.7192 16.8921 16.9545 16.4966 17.2653 16.1644L17.8184 15.6296Z" fill="#F39800"/>
</svg>
