<svg id="Layer_1" xmlns="http://www.w3.org/2000/svg" viewBox="0 0 58 58.7"><style>.st0{fill:#337ab7;stroke:#fff;stroke-miterlimit:10}.st1,.st2{fill:#5bc0de}.st2{stroke:#fff;stroke-miterlimit:10}.st3{fill:#337ab7}</style><path class="st0" d="M57.3 1.1L.7 57.6.6 1.2z"/><path class="st1" d="M21.9 32.3c-4.4-4.4-4.4-11.5.1-15.9s11.7-4.4 16.2.1l.5.5 7.2-7c-.3-.4-.7-.8-1.1-1.1-8.4-8.3-22-8.4-30.5-.1s-8.5 21.7-.1 30c.4.4.8.7 1.2 1.1l7.2-7c-.3-.3-.5-.4-.7-.6z"/><path class="st1" d="M23.2 30.5c-3.6-3.6-3.6-9.4.1-13s9.6-3.5 13.2.1l.4.4-13.2 12.9c-.2-.2-.3-.3-.5-.4z"/><path class="st2" d="M57.5 1.4L1 57.9h56.5z"/><path class="st3" d="M35.6 26.8c4.5 4.4 4.4 11.5 0 15.9-4.5 4.4-11.7 4.4-16.2 0l-.5-.5-7.2 7c.3.4.7.8 1.1 1.1 8.4 8.3 22.1 8.3 30.5.1 8.4-8.3 8.5-21.7.1-30-.4-.4-.8-.7-1.2-1.1l-7.2 7c.3.2.4.3.6.5z"/><path class="st3" d="M34.3 28.6c3.6 3.6 3.6 9.4 0 13-3.7 3.6-9.6 3.6-13.2 0l-.4-.4 13.2-12.9c.1.1.2.2.4.3z"/></svg>