<svg width="32" height="32" viewBox="0 0 32 32" fill="none" xmlns="http://www.w3.org/2000/svg">
<path d="M28.6617 8.20855L16.9078 1.30717C16.5843 1.08808 16.153 1.08808 15.8295 1.30717C15.8295 1.30717 14.859 1.8549 14.859 1.96445C13.565 2.73127 13.0258 4.26491 14.7511 5.14127C16.8 6.23673 19.0645 7.44173 19.0645 7.44173C21.976 8.97537 21.7604 9.96129 21.7604 11.714V12.919L14.7511 9.08492C14.212 8.86583 13.8885 9.08492 13.8885 9.63265V11.3854C13.8885 11.9331 14.3198 12.6999 14.7511 12.919L17.6627 14.5622C19.1723 15.4386 21.7604 16.4245 21.7604 18.1772V27.7077L28.6617 23.8736C28.9853 23.6545 29.2009 23.3259 29.2009 22.9972V9.08492C29.2009 8.75628 28.9853 8.42765 28.6617 8.20855Z" fill="#F24949"/>
<path d="M3.85991 23.6545L15.6138 30.5559C15.9373 30.775 16.3687 30.775 16.6922 30.5559C16.6922 30.5559 17.6627 30.0082 17.6627 29.8986C18.9567 29.1318 19.4958 27.5982 17.7705 26.7218C15.7217 25.6263 13.4571 24.4213 13.4571 24.4213C10.5456 22.9972 10.7613 21.9018 10.7613 20.1491V18.944L17.7705 22.7782C18.3097 23.1068 18.6332 22.7782 18.6332 22.2304V20.4777C18.6332 19.93 18.2018 19.1631 17.7705 18.944L14.859 17.3009C13.3493 16.4245 10.7613 15.4386 10.7613 13.6859V4.15537L3.85991 7.98947C3.64424 8.20857 3.42857 8.64675 3.42857 8.97539V22.7782C3.42857 23.1068 3.64424 23.4354 3.85991 23.6545Z" fill="#F24949"/>
</svg>
