<svg width="32" height="32" viewBox="0 0 32 32" fill="none" xmlns="http://www.w3.org/2000/svg">
<path d="M20.9359 15.9532C20.9359 13.2866 18.7422 11.0877 15.9761 11.0877C13.2578 11.0877 11.0164 13.2398 11.0164 15.9532C11.0164 18.6199 13.2101 20.8187 15.9761 20.8187C18.6945 20.8187 20.9359 18.6199 20.9359 15.9532Z" fill="#3DE0C8"/>
<path d="M15.9762 0C6.81967 0 0 7.25146 0 15.7193V16.7485C0 18.4328 1.38301 19.7895 3.09985 19.7895C4.81669 19.7895 6.1997 18.4328 6.1997 16.7485V15.7193C6.1997 9.68421 11.4456 6.08187 16.0238 6.08187H32V0H15.9762V0Z" fill="#3DE0C8"/>
<path d="M28.8525 12.2105C27.1356 12.2105 25.7526 13.5673 25.7526 15.2515V16.2807C25.7526 22.3158 20.5067 25.9181 15.9285 25.9181H0V32H15.9762C25.1326 32 31.9523 24.7018 31.9523 16.2807V15.2515C31.9523 13.5673 30.5693 12.2105 28.8525 12.2105Z" fill="#3DE0C8"/>
</svg>
