<svg width="32" height="32" viewBox="0 0 32 32" fill="none" xmlns="http://www.w3.org/2000/svg">
<path fill-rule="evenodd" clip-rule="evenodd" d="M17.4881 2.50863C20.4283 2.83479 23.1993 3.90379 25.5917 5.88767C27.6702 7.6108 29.2396 9.72371 30.2218 12.2363C31.1851 14.6977 31.4809 17.2542 31.1589 19.8805C30.9032 21.9381 30.2333 23.9231 29.1892 25.7166C28.9329 26.1646 28.9015 26.1548 28.628 25.7166C27.6999 24.2247 26.3796 23.2561 24.6635 22.8581C24.0573 22.7175 23.5303 22.9711 23.112 23.4182C22.8989 23.6458 22.7064 23.894 22.5139 24.1395C22.2801 24.437 21.9842 24.4613 21.6721 24.3188C21.3275 24.1642 21.0233 23.9324 20.7835 23.6413C20.5973 23.4101 20.6244 23.2103 20.8536 23.0275C21.0562 22.8812 21.2482 22.721 21.4284 22.5481C21.9554 21.9908 21.6541 20.8259 20.9292 20.5633C20.6244 20.4522 20.394 20.6135 20.1648 20.7641C19.9354 20.9146 19.715 21.0401 19.4336 21.0033C18.9838 20.9442 18.7419 20.6977 18.6448 20.1817C18.5548 19.696 18.7347 19.2784 19.1322 19.0625C19.242 19.0033 19.3588 18.9567 19.4704 18.9003C19.7222 18.7721 20.0802 18.6897 20.0433 18.3411C19.9956 17.8931 19.8256 17.4558 19.4389 17.1762C19.2456 17.0356 19.0243 17.1762 18.8381 17.2658C18.5683 17.4029 18.3191 17.5669 18.0583 17.7139C17.5771 17.9908 17.114 17.9424 16.8388 17.5893C16.4512 17.0929 16.4493 16.4845 16.8523 16.0893C17.1706 15.7784 17.5672 15.5885 17.9765 15.4253C18.0575 15.3931 18.1455 15.3778 18.2274 15.3465C18.7779 15.1359 18.8777 14.9979 18.571 14.4979C18.1726 13.8465 18.3317 13.3178 18.7356 12.7766C18.8056 12.6729 18.8672 12.5638 18.92 12.4504C19.1286 12.0454 19.0432 11.747 18.6276 11.5606C17.6048 11.1157 16.5092 10.8601 15.3944 10.8061C15.0777 10.7865 14.9446 10.9209 14.8547 11.2381C14.6748 11.8993 14.7764 12.5759 14.6452 13.2453C14.4113 12.8447 14.4311 12.385 14.3492 11.9567C14.2521 11.4441 13.9994 11.1144 13.5875 10.8268C12.608 10.1449 11.5818 9.55794 10.4612 9.14306C10.1558 9.02982 9.84219 8.93996 9.52307 8.87424C9.16331 8.80076 8.85659 8.89754 8.58051 9.18607C7.71075 10.0956 7.02635 11.1404 6.33203 12.1745C5.54499 13.3438 4.81475 14.5526 4.02867 15.7237C3.81371 16.0437 3.86403 16.2273 4.14019 16.4343C5.87899 17.7384 7.61787 19.0439 9.35667 20.351C10.8335 21.4633 12.3088 22.5771 13.7826 23.6924L18.0556 26.8967C18.4154 27.1799 18.821 27.2686 19.278 27.2928L24.9855 27.5257C25.1244 27.5385 25.255 27.5975 25.356 27.6933C25.4397 27.7766 25.5071 27.8662 25.4595 27.9917C25.4398 28.0384 25.4051 28.0773 25.3608 28.1021C25.3164 28.1269 25.2651 28.1363 25.2148 28.1288L19.84 27.989C19.3643 27.9657 18.8885 27.9415 18.4145 27.8994C18.1141 27.8734 17.8659 27.7013 17.659 27.5061L13.9364 24.8178C12.5867 23.8364 11.2382 22.8469 9.89091 21.8492C8.03995 20.483 6.19051 19.1147 4.34251 17.7444C4.06099 17.5356 3.76963 17.3411 3.49979 17.1171C3.34331 16.9872 3.26955 16.9791 3.17059 17.1753C2.88459 17.7444 2.56715 18.2973 2.28739 18.868C2.18491 19.0786 2.07699 19.1064 1.92763 18.9576C1.52475 18.5589 1.08579 18.6762 0.636991 18.8447C0.0821105 19.0535 0.0173101 19.0051 0.0074701 18.4137C-0.000689904 17.5015 -0.0276496 16.5849 0.11443 15.6825C0.30115 14.5005 0.615391 13.3421 1.05163 12.2273C1.96635 9.87693 3.40803 7.89126 5.28603 6.22369C6.60475 5.0452 8.12355 4.11005 9.77131 3.46204C10.9405 3.00415 12.126 2.64035 13.3815 2.51042C14.7464 2.36383 16.1231 2.36323 17.4881 2.50863Z" fill="#3865F3"/>
<path fill-rule="evenodd" clip-rule="evenodd" d="M22.5598 30.3857C20.9409 30.3857 19.322 30.3857 17.7031 30.3857C17.4651 30.3946 17.2306 30.3263 17.0348 30.1912C15.5868 29.184 14.1333 28.185 12.6844 27.1805C11.1027 26.0831 9.52276 24.9833 7.9446 23.8811C6.24356 22.6912 4.5458 21.4964 2.85132 20.2969C2.58148 20.107 2.34948 19.8767 2.29996 19.5263C2.28652 19.4304 2.26492 19.3184 2.37828 19.2575C2.47356 19.2091 2.54372 19.2772 2.613 19.331C4.54668 20.8184 6.58204 22.1625 8.5814 23.5568C10.1913 24.6795 11.8138 25.7826 13.4264 26.9C14.6388 27.7405 15.8461 28.5879 17.0483 29.4421C17.1961 29.5577 17.3784 29.6207 17.5664 29.6213C20.9427 29.6213 24.3188 29.6213 27.6944 29.6213C28.0497 29.6213 28.2692 29.5057 28.5642 29.2127C28.6676 29.1178 28.7216 29.0613 28.8205 29.1231C28.9437 29.2038 28.8538 29.2871 28.7953 29.3723C28.5768 29.6957 28.2944 29.9619 28.0192 30.2343C27.86 30.3919 27.6594 30.383 27.4544 30.383L22.5598 30.3857Z" fill="#3865F3"/>
</svg>
