<svg width="32" height="32" viewBox="0 0 32 32" fill="none" xmlns="http://www.w3.org/2000/svg">
<path d="M17.0008 0.022705C10.6968 -0.274438 6.26255 2.36785 5.96998 6.60556C5.6454 11.177 10.0843 13.1061 15.4374 14.9941C19.9174 16.5804 23.6111 18.1118 23.5105 20.8181C23.3688 24.745 16.0043 28.1324 11.4557 28.1324C9.48083 28.1644 8.67169 27.7393 8.34255 27.3873C8.24735 27.2879 8.1751 27.1689 8.13087 27.0385C8.08664 26.9082 8.07151 26.7698 8.08655 26.633C8.17798 25.577 10.1117 23.0718 13.3483 21.673C13.4252 21.64 13.4925 21.5879 13.5438 21.5218C13.5951 21.4556 13.6287 21.3775 13.6415 21.2947C13.6543 21.212 13.6459 21.1274 13.617 21.0488C13.5881 20.9702 13.5396 20.9003 13.4763 20.8456L11.6477 19.273C11.5804 19.2147 11.4989 19.1751 11.4114 19.1582C11.3239 19.1414 11.2336 19.1478 11.1494 19.177C6.43626 21.0056 4.34255 24.2056 4.13226 26.6924C4.07876 27.2648 4.14502 27.8421 4.32683 28.3876C4.50863 28.933 4.802 29.4346 5.18826 29.8604C6.37226 31.1679 8.4614 31.881 11.2271 31.9221H11.4968C15.0654 31.8628 18.5576 30.8784 21.6317 29.065C25.1883 26.9484 27.25 24.0684 27.4283 20.9736C27.7574 15.241 22.4957 13.3987 17.8283 11.7713L16.5528 11.3141C11.9677 9.64556 9.93798 8.20556 10.0065 6.69242C10.0234 6.41753 10.0966 6.14904 10.2216 5.90367C10.3467 5.65829 10.5209 5.44128 10.7334 5.26613C11.9083 4.20099 14.3905 3.58842 16.9597 3.75299C18.6603 3.84899 21.4534 4.81356 24.1551 6.70613C24.2177 6.75088 24.29 6.78036 24.366 6.79223C24.4421 6.8041 24.5198 6.79802 24.5931 6.77448C24.6664 6.75094 24.7332 6.71059 24.7881 6.65666C24.843 6.60272 24.8846 6.5367 24.9094 6.46385L25.6957 4.11413C25.7283 4.02065 25.7318 3.91947 25.7057 3.82397C25.6795 3.72847 25.6251 3.64315 25.5494 3.57928C23.1431 1.52699 20.1527 0.282851 17.0008 0.022705Z" fill="#FBBE4D"/>
</svg>
