<svg width="32" height="32" viewBox="0 0 32 32" fill="none" xmlns="http://www.w3.org/2000/svg">
<path fill-rule="evenodd" clip-rule="evenodd" d="M32 16.0007C32 24.8346 24.8353 32 16 32C7.16542 32 0 24.8346 0 16.0007C0 7.1647 7.16542 0 16 0C24.8353 0 32 7.1647 32 16.0007Z" fill="#E11A36"/>
<path fill-rule="evenodd" clip-rule="evenodd" d="M21.6768 10.4679V10.6015L21.6547 10.4679C20.6686 10.4757 19.6268 10.8852 18.883 11.3918C17.7669 12.1528 16.9973 13.1989 16.2978 14.0656C16.2306 14.1435 15.6432 14.9402 14.988 15.8062C14.3371 16.6694 13.6189 17.6004 13.3288 17.9084C12.8415 18.4293 12.4735 18.9874 11.9641 19.3253C11.4582 19.6683 10.8108 19.8798 10.5278 19.8798H10.5057C9.53463 19.8798 8.65718 19.4297 8.01695 18.7909C7.37315 18.1499 6.98301 17.2453 6.98301 16.2671C6.98301 15.2903 7.37315 14.3743 8.01695 13.7305C8.65718 13.091 9.53463 12.6594 10.5128 12.6594H10.5321C10.8179 12.6594 11.3088 12.8566 11.8305 13.2174C12.57 13.7162 13.1766 14.3707 13.779 15.096L13.8876 15.2374L15.2674 13.3918L15.1967 13.3103C15.0995 13.1989 15.1781 13.2696 15.0738 13.1538C14.5043 12.5329 14.0177 11.897 13.2738 11.3875C12.525 10.8852 11.4953 10.4757 10.5128 10.4679C7.32099 10.4679 4.73935 13.0495 4.73935 16.2421C4.73935 19.4254 7.32099 22.0113 10.5128 22.0113C11.4953 22.0041 12.525 21.594 13.2695 21.0931C14.3892 20.3271 15.1524 19.2767 15.8547 18.415C15.9183 18.3357 16.5021 17.5404 17.1566 16.6737C17.8076 15.8105 18.5257 14.8795 18.8165 14.5715C19.3003 14.0513 19.8469 13.5225 20.3642 13.1839C20.8658 12.8416 21.3338 12.6594 21.6175 12.6594H21.629C22.6107 12.6594 23.4889 13.076 24.1284 13.7198C24.7722 14.3593 25.1624 15.2489 25.1624 16.2271C25.1624 17.2053 24.7722 18.1428 24.1284 18.7823C23.4889 19.4254 22.6107 19.8798 21.6318 19.8798H21.6139C21.3231 19.8798 20.6536 19.6533 20.1334 19.2932C19.3924 18.7937 18.9123 18.0763 18.3142 17.3461L18.202 17.201L16.8258 19.0395L16.9001 19.121C16.9937 19.2289 16.9673 19.2096 17.068 19.3253C17.6404 19.9477 18.1277 20.5794 18.8715 21.0931C19.6154 21.594 20.65 22.0041 21.6318 22.0113C24.8201 22.0113 27.4246 19.4254 27.4282 16.2421C27.4246 13.0495 24.5636 10.4679 21.6768 10.4679Z" fill="white"/>
</svg>
