<svg width="32" height="32" viewBox="0 0 32 32" fill="none" xmlns="http://www.w3.org/2000/svg">
<path d="M27.176 14.7253H26.16V11.8613C26.16 6.32265 21.6533 1.81599 16.1147 1.81599C10.576 1.81599 6.06934 6.32265 6.06934 11.8613V14.64H5.05334V11.8613C5.05334 5.76265 10.016 0.799988 16.1147 0.799988C22.2133 0.799988 27.176 5.76265 27.176 11.8613V14.7253Z" fill="#003041"/>
<path d="M12.344 10.4373C12.344 10.4373 12.9973 10.32 13.8853 13.296C14.7733 16.272 17.7493 25.5467 18.2907 26.7813C18.832 28.0187 19.6827 31.8827 21.304 31.224C22.928 30.568 24.3947 28.1333 24.3947 28.1333L23.0507 19.1547L22.952 18.8267L22.3227 17.0373L21.1733 13.296C20.2933 10.32 19.6427 10.3973 19.6427 10.3973C19.6427 10.3973 12.4133 10.368 12.344 10.4373V10.4373Z" fill="#F10257"/>
<path d="M19.728 10.3973C19.728 10.3973 19.072 10.32 18.1813 13.296C17.2933 16.272 14.3173 25.5467 13.776 26.7813C13.2347 28.0187 12.384 31.8827 10.7627 31.224C9.13866 30.568 7.672 28.1333 7.672 28.1333L9.06133 19.016L9.11466 18.824L9.744 17.0347L10.8933 13.2933C11.7733 10.3173 12.424 10.3947 12.424 10.3947L19.728 10.3973Z" fill="#003041"/>
<path d="M2.66667 9.66932L8.90133 9.03732C8.90133 9.03732 8.8 30.7227 11.1147 31.304L5.10133 30.3387C5.104 30.3413 2.73067 31.1947 2.66667 9.66932V9.66932Z" fill="#F10257"/>
<path d="M29.4267 9.66932L23.192 9.03732C23.192 9.03732 23.2933 30.7227 20.9787 31.304L26.992 30.3387C26.9893 30.3413 29.3627 31.1947 29.4267 9.66932V9.66932Z" fill="#003041"/>
</svg>
