<svg width="33" height="33" viewBox="0 0 33 33" fill="none" xmlns="http://www.w3.org/2000/svg">
<path d="M12.6268 22.0265L14.888 20.1641L21.5734 14.7461L25.3093 11.6985L25.8992 11.2752C26.4891 10.7673 26.8823 10.09 26.9806 9.41278C26.9806 9.32813 26.9806 9.15882 26.9806 9.07416L27.079 7.04241L27.1773 3.74083C27.1773 2.89427 26.8823 2.04771 26.1941 1.45511C25.5059 0.86252 24.6211 0.523896 23.638 0.523896L17.5425 0.43924H17.4442C16.4611 0.43924 15.6746 0.777864 14.888 1.2858L1.71398 12.0371C1.02578 12.6297 0.632524 13.3916 0.53421 14.2382C0.53421 15.0847 0.829152 15.9313 1.51735 16.5239L7.41618 21.9419C8.10438 22.6191 9.08752 22.9578 10.0707 22.9578C11.0538 22.8731 11.9386 22.6191 12.6268 22.0265ZM9.57909 16.016C9.48077 16.016 9.38246 16.016 9.28415 15.9313L8.69426 15.4234C8.49764 15.2541 8.59595 15.0847 8.69426 14.9154L8.79258 14.8308C8.89089 14.7461 8.98921 14.4921 8.79258 14.4075C8.69426 14.2382 8.49764 13.9842 8.39932 13.7302C8.20269 13.3916 8.10438 13.053 7.90775 12.7144C7.80944 12.5451 8.00607 12.3757 8.20269 12.2911L9.28415 11.9525C9.48077 11.8678 9.77572 11.9525 9.77572 12.1218C9.77572 12.2064 9.87403 12.3757 9.87403 12.4604C10.169 13.2223 10.5622 13.8149 10.9555 14.1535C11.3487 14.4922 11.5454 14.4921 11.742 14.3228C11.9386 14.1535 11.742 13.7302 11.1521 12.6297C10.9555 12.2911 10.8572 12.0371 10.7589 11.7832C10.4639 10.9366 10.7589 10.344 11.3487 9.83607C11.9386 9.32813 12.7251 9.24347 13.5116 9.49744C13.7083 9.5821 13.9049 9.66675 14.1015 9.75141C14.1998 9.83606 14.4948 9.83606 14.5931 9.75141C14.6914 9.5821 14.9864 9.66675 15.0847 9.75141L15.6746 10.2593C15.8712 10.4287 15.8712 10.598 15.6746 10.7673L15.7729 10.6826C15.6746 10.7673 15.6746 10.9366 15.7729 11.1059C15.9695 11.3599 16.1661 11.6138 16.2644 11.8678C16.3627 12.0371 16.4611 12.2064 16.5594 12.3757C16.6577 12.5451 16.5594 12.7144 16.3627 12.799L15.4779 13.2223C15.2813 13.307 15.0847 13.2223 14.9864 13.053C14.9864 12.9683 14.888 12.9683 14.888 12.8837C14.4948 12.2064 14.0032 11.6138 13.7083 11.2752C13.4133 11.0213 13.1184 11.0213 13.0201 11.1059C12.8234 11.2752 12.9218 11.5292 13.7083 12.7144C13.9049 12.9683 14.0032 13.2223 14.1015 13.4763C14.4948 14.3228 14.2982 15.0001 13.61 15.6773C12.9218 16.3546 11.9386 16.4392 10.9555 16.1006C10.7589 16.016 10.5622 15.9313 10.3656 15.762C10.169 15.6773 9.97234 15.6773 9.87403 15.8466C9.77572 16.016 9.6774 16.016 9.57909 16.016ZM18.624 5.94188C18.8206 5.77257 19.1155 5.60326 19.5088 5.60326H19.6071C19.7054 5.60326 19.7054 5.60326 19.8037 5.60326C20.0987 5.60326 20.3936 5.77257 20.6886 5.94188C20.8852 6.1112 20.9835 6.28051 21.0818 6.53448C21.0818 6.61913 21.0818 6.70379 21.0818 6.78845C21.0818 6.8731 21.0818 6.95776 21.0818 7.04241C20.9835 7.29638 20.8852 7.46569 20.6886 7.63501C20.0987 8.14294 19.2139 8.05829 18.624 7.55035C18.329 7.29638 18.2307 6.95776 18.2307 6.61913C18.2307 6.53448 18.4273 6.19585 18.624 5.94188Z" fill="black"/>
<path d="M32.3879 14.4075L30.6183 9.32813C30.52 9.15881 30.4216 8.90485 30.3233 8.73553V9.15882C30.3233 9.41278 30.3233 9.5821 30.225 9.83606C30.0284 10.8519 29.6351 11.7832 28.8486 12.6297C28.652 12.8837 28.3571 13.1377 28.0621 13.3916L27.4722 13.8149L26.8823 14.3228L23.7363 16.9472L21.8683 18.471L22.065 18.5556C22.2616 18.6403 22.3599 18.8096 22.2616 18.9789V19.0636C22.1633 19.2329 22.2616 19.4022 22.3599 19.4869C22.7532 19.7408 23.1464 20.0794 23.638 20.5027C23.8346 20.672 23.8346 20.8414 23.638 21.0107L22.9498 21.6879C22.8515 21.7726 22.5565 21.7726 22.3599 21.6879C21.6717 21.0953 20.9835 20.5874 20.5903 20.4181C20.2953 20.2488 20.0004 20.3334 19.9021 20.5027C19.8037 20.7567 20.0004 20.926 21.0818 21.8572C22.2616 22.7884 22.5565 23.635 21.9666 24.6509C21.4751 25.6667 20.2953 26.0054 18.9189 25.5821C18.7223 25.5821 18.5257 25.5821 18.4273 25.7514C18.329 25.8361 18.2307 25.9207 18.0341 25.9207C17.9358 25.9207 17.9358 25.9207 17.8375 25.9207L17.051 25.5821C16.8543 25.4974 16.756 25.2435 16.8543 25.0742V24.9895C16.9526 24.8202 16.8543 24.6509 16.756 24.5662C16.3628 24.2276 15.9695 23.889 15.5762 23.5503L14.4948 24.3969C13.61 25.1588 12.5285 25.6668 11.2504 25.8361C10.7589 25.9207 10.2673 26.0054 9.67741 26.0054C9.28415 26.0054 8.8909 26.0054 8.49764 25.9207C8.49764 27.0212 9.18584 28.0371 10.3656 28.5451L17.9358 32.1006C18.5257 32.3546 19.1155 32.4392 19.7054 32.4392C20.0987 32.4392 20.3936 32.4392 20.7869 32.2699C21.77 32.016 22.4582 31.508 22.9498 30.7461L31.6014 16.9472C32.5845 16.016 32.6829 15.1694 32.3879 14.4075Z" fill="black"/>
<path d="M19.1155 23.4657C19.6071 23.7197 19.902 23.635 20.0004 23.4657C20.0987 23.2117 19.8037 22.9578 18.7223 22.0266C18.5257 21.8572 18.329 21.6879 18.1324 21.434L17.3459 22.0266C18.0341 22.7038 18.624 23.2117 19.1155 23.4657Z" fill="black"/>
</svg>
