<svg width="545" height="546" viewBox="0 0 545 546" fill="none" xmlns="http://www.w3.org/2000/svg">
<path d="M142 93.5999C146.5 79.2999 132.6 74.8 122 72.9C111.4 71 96.2 70.1998 91.7 84.4998C87.2 98.6998 101.1 103.3 111.7 105.2C122.4 107.1 137.5 107.8 142 93.5999ZM194.6 370.6C182.5 370.6 171.3 380.4 169.6 392.5C167.9 404.6 176.3 414.4 188.4 414.4C200.5 414.4 211.7 404.6 213.4 392.5C215.1 380.4 206.6 370.6 194.6 370.6ZM329.3 370.6C317.2 370.6 306 380.4 304.3 392.5C302.6 404.6 311 414.4 323.1 414.4C335.2 414.4 346.4 404.6 348.1 392.5C349.8 380.4 341.4 370.6 329.3 370.6ZM396 160.9L330.5 154L319.1 152.8L312.4 200.6H343.5C351.3 200.6 352.7 205.3 346.6 211L285.7 267.7C279.5 273.4 270.8 273.4 266.2 267.7L221.2 211C216.7 205.3 219.4 200.6 227.2 200.6H258.3L265.8 147.2L190.4 139.3C188.1 111.5 174 98.9998 150.5 89.4998C149.3 95.0998 147.5 99.7999 144 104.8C162.4 111.8 173.4 123.5 173.9 144.4L178 290C157.5 292.1 139.7 305.4 136.9 325.4C133.8 347.2 149 361.1 173.9 361.1H354.3C359.3 361.1 361.7 344.2 356.7 344.2H176.3C163.7 344.2 152 339 153.9 325.4C155.7 312.4 168.1 305.3 180.2 304.8H357.4C367.7 304.8 375.1 297.8 379 285.9L411.8 183.7C416.2 169.8 406.2 162 396 160.9V160.9Z" fill="#82A64E"/>
<path d="M472.4 59.7999C430.3 20.2999 375 1.00002 317.4 0.900024H316.8C265.2 1.00002 211.3 16.6 162.5 46.6C177.9 54.9 189.5 67.1999 195.6 80.7999C233.8 59.0999 275.7 47.2001 317.2 47.2001C365.4 47.3001 408.5 63.2999 440.7 93.4999C478.7 129.2 497.9 180.9 494.9 239.3C491.7 300.6 464.6 361.3 418.6 410.3C365.8 466.5 296.1 498.8 227.2 498.8C178.8 498.8 136.2 482.8 103.9 452.5C65.9 416.8 46.7 365.1 49.7 306.7C52.6 250.6 75.6 195 114.7 148.4L112.5 147.7C97.4 142.2 85.1 133 76.5 122.1C-18.8 238.7 -22.3 397.6 72.2 486.2C114.4 525.8 169.4 545.1 227.2 545.1C305.5 545.1 388.8 509.8 452.4 442C563 324.3 571.9 153.1 472.4 59.7999ZM317.4 47.2001V46.7001V47.2001Z" fill="#333333"/>
</svg>
