<?xml version="1.0" encoding="utf-8"?>
<!-- Generator: Adobe Illustrator 21.1.0, SVG Export Plug-In . SVG Version: 6.00 Build 0)  -->
<svg version="1.1" id="Layer_1" xmlns="http://www.w3.org/2000/svg" xmlns:xlink="http://www.w3.org/1999/xlink" x="0px" y="0px"
	 viewBox="0 0 211.8 64.9" style="enable-background:new 0 0 211.8 64.9;" xml:space="preserve">
<style type="text/css">
	.st0{fill:#126FB7;}
</style>
<g>
	<path class="st0" d="M32.4,27.3c-1.4-0.9-2.8-1.6-4.1-2c-1.4-0.4-2.5-0.7-3.3-0.9c-2.6-0.7-4.8-1.2-6.4-1.6
		c-1.6-0.4-2.9-0.9-3.8-1.3c-0.9-0.4-1.5-0.9-1.9-1.4c-0.3-0.5-0.5-1.2-0.5-2c0-0.9,0.2-1.6,0.6-2.2c0.4-0.6,0.9-1.1,1.5-1.5
		c0.6-0.4,1.3-0.7,2-0.8c0.7-0.2,1.5-0.2,2.2-0.2c1.1,0,2.2,0.1,3.1,0.3c1,0.2,1.8,0.5,2.6,1c0.7,0.5,1.3,1.1,1.8,1.9
		c0.5,0.8,0.7,1.9,0.8,3.1h8.9c0-2.4-0.5-4.5-1.4-6.2c-0.9-1.7-2.2-3.1-3.7-4.2c-1.6-1.1-3.4-1.9-5.4-2.4c-2-0.5-4.1-0.7-6.3-0.7
		c-1.9,0-3.8,0.3-5.6,0.8c-1.9,0.5-3.6,1.3-5.1,2.4c-1.5,1.1-2.7,2.4-3.6,4c-0.9,1.6-1.4,3.5-1.4,5.6c0,1.9,0.4,3.6,1.1,4.9
		c0.7,1.4,1.7,2.5,2.9,3.4c1.2,0.9,2.5,1.6,4,2.2c1.5,0.6,3,1,4.6,1.4c1.5,0.4,3,0.8,4.5,1.2c1.5,0.4,2.8,0.8,4,1.2
		c1.2,0.5,2.1,1.1,2.9,1.8c0.7,0.7,1.1,1.6,1.1,2.8c0,1.1-0.3,1.9-0.8,2.6c-0.5,0.7-1.2,1.2-2.1,1.6c-0.8,0.4-1.7,0.7-2.6,0.8
		c-0.9,0.1-1.8,0.2-2.6,0.2c-1.2,0-2.4-0.1-3.5-0.4c-1.1-0.3-2.1-0.7-3-1.4c-0.8-0.6-1.5-1.4-2-2.4c-0.5-1-0.8-2.2-0.8-3.6H2.2
		c0,2.6,0.4,4.8,1.4,6.7c1,1.9,2.3,3.4,4,4.6c1.7,1.2,3.6,2.1,5.8,2.7c2.2,0.6,4.4,0.9,6.7,0.9c2.9,0,5.4-0.3,7.6-1
		c2.2-0.7,4-1.6,5.5-2.8c1.5-1.2,2.6-2.6,3.3-4.3c0.7-1.6,1.1-3.4,1.1-5.3c0-2.4-0.5-4.3-1.5-5.8C35,29.4,33.8,28.2,32.4,27.3z"/>
	<path class="st0" d="M66.3,21.4c-0.8-1.1-1.9-1.9-3.4-2.5c-1.4-0.6-3.3-0.9-5.5-0.9c-1.6,0-3.2,0.4-4.8,1.2c-1.6,0.8-3,2.1-4.1,3.9
		h-0.2V6.2h-8.3v43h8.3V33.2c0-3.1,0.5-5.3,1.5-6.7c1-1.4,2.7-2,4.9-2c2,0,3.4,0.6,4.2,1.9c0.8,1.2,1.2,3.1,1.2,5.6v17.2h8.3V30.5
		c0-1.9-0.2-3.6-0.5-5.1C67.7,23.8,67.2,22.5,66.3,21.4z"/>
	<path class="st0" d="M99.8,22.3c-1.4-1.4-3-2.5-5-3.2c-1.9-0.8-4.1-1.1-6.5-1.1c-2.4,0-4.5,0.4-6.5,1.1c-1.9,0.8-3.6,1.8-4.9,3.2
		c-1.4,1.4-2.4,3.1-3.2,5.1c-0.7,2-1.1,4.2-1.1,6.6c0,2.4,0.4,4.6,1.1,6.6c0.7,2,1.8,3.6,3.2,5c1.4,1.4,3,2.5,4.9,3.2
		c1.9,0.7,4.1,1.1,6.5,1.1c2.4,0,4.6-0.4,6.5-1.1c1.9-0.7,3.6-1.8,5-3.2c1.4-1.4,2.4-3.1,3.2-5c0.7-2,1.1-4.2,1.1-6.6
		c0-2.4-0.4-4.6-1.1-6.6C102.2,25.4,101.2,23.7,99.8,22.3z M95.4,37.6c-0.2,1.2-0.6,2.2-1.2,3.1c-0.6,0.9-1.3,1.7-2.3,2.2
		c-1,0.6-2.1,0.8-3.6,0.8c-1.4,0-2.6-0.3-3.5-0.8c-0.9-0.5-1.7-1.3-2.3-2.2c-0.6-0.9-1-2-1.2-3.1C81.1,36.4,81,35.2,81,34
		c0-1.2,0.1-2.4,0.4-3.6c0.2-1.2,0.6-2.2,1.2-3.1c0.6-0.9,1.3-1.6,2.3-2.2c0.9-0.6,2.1-0.9,3.5-0.9c1.4,0,2.6,0.3,3.6,0.9
		c1,0.6,1.7,1.3,2.3,2.2c0.6,0.9,1,1.9,1.2,3.1c0.2,1.2,0.4,2.4,0.4,3.6C95.7,35.2,95.6,36.4,95.4,37.6z"/>
	<path class="st0" d="M135.6,22.9c-1.1-1.5-2.6-2.7-4.3-3.6c-1.7-0.9-3.8-1.4-6.2-1.4c-1.9,0-3.6,0.4-5.2,1.1
		c-1.6,0.7-2.9,1.9-3.9,3.6h-0.1v-3.9H108v43.1h8.3V45.4h0.1c1,1.5,2.3,2.6,3.9,3.4c1.6,0.8,3.3,1.1,5.2,1.1c2.2,0,4.2-0.4,5.9-1.3
		c1.7-0.9,3.1-2,4.2-3.5c1.1-1.4,1.9-3.1,2.5-5c0.5-1.9,0.8-3.8,0.8-5.9c0-2.2-0.3-4.2-0.8-6.2C137.6,26.1,136.7,24.4,135.6,22.9z
		 M130.2,37.6c-0.2,1.2-0.6,2.2-1.2,3.1c-0.6,0.9-1.3,1.6-2.2,2.1c-0.9,0.6-2.1,0.8-3.4,0.8c-1.3,0-2.5-0.3-3.4-0.8
		c-0.9-0.5-1.7-1.3-2.3-2.1c-0.6-0.9-1-1.9-1.2-3.1c-0.3-1.2-0.4-2.4-0.4-3.6c0-1.3,0.1-2.5,0.4-3.6c0.2-1.2,0.6-2.2,1.2-3.1
		c0.6-0.9,1.3-1.6,2.2-2.2c0.9-0.6,2.1-0.9,3.4-0.9c1.3,0,2.5,0.3,3.4,0.9c0.9,0.6,1.7,1.3,2.3,2.2c0.6,0.9,1,2,1.3,3.1
		c0.3,1.2,0.4,2.4,0.4,3.6C130.6,35.3,130.5,36.5,130.2,37.6z"/>
	<path class="st0" d="M168,23.5c-1.2-1.7-2.8-3-4.7-4c-1.9-1-4.2-1.5-6.8-1.5c-2.3,0-4.4,0.4-6.3,1.2c-1.9,0.8-3.5,2-4.9,3.4
		c-1.4,1.4-2.4,3.1-3.2,5.1c-0.7,2-1.1,4.1-1.1,6.4c0,2.4,0.4,4.5,1.1,6.5c0.7,2,1.8,3.6,3.1,5.1c1.3,1.4,3,2.5,4.9,3.3
		c1.9,0.8,4.1,1.1,6.5,1.1c3.4,0,6.4-0.8,8.8-2.4c2.4-1.6,4.2-4.2,5.4-7.8h-7.4c-0.3,0.9-1,1.8-2.2,2.7c-1.2,0.8-2.7,1.3-4.4,1.3
		c-2.4,0-4.2-0.6-5.4-1.8c-1.3-1.2-1.9-3.2-2.1-5.9h21.9c0.2-2.4,0-4.6-0.6-6.8C170.1,27.1,169.2,25.2,168,23.5z M149.3,30.7
		c0-0.6,0.2-1.3,0.4-2c0.2-0.7,0.6-1.4,1.1-2.1c0.5-0.7,1.2-1.2,2.1-1.7c0.9-0.5,2-0.7,3.3-0.7c2,0,3.6,0.5,4.6,1.6
		c1,1.1,1.7,2.7,2.1,4.8H149.3z"/>
	<path class="st0" d="M189.9,18.4c-1,0.3-1.9,0.8-2.8,1.3c-0.9,0.6-1.6,1.3-2.3,2.1c-0.7,0.8-1.2,1.7-1.6,2.6h-0.1v-5.6h-7.9v30.4
		h8.3V35.5c0-1.4,0.1-2.6,0.4-3.8c0.3-1.2,0.7-2.2,1.4-3.1c0.6-0.9,1.5-1.6,2.6-2.1c1.1-0.5,2.4-0.8,3.9-0.8c0.5,0,1,0,1.6,0.1
		c0.5,0.1,1,0.1,1.4,0.2v-7.8c-0.7-0.2-1.3-0.3-1.8-0.3C191.9,17.9,190.9,18.1,189.9,18.4z"/>
	<path class="st0" d="M202.8,1.8c-4.4,0-8,3.6-8,8c0,4.4,3.6,8,8,8c4.4,0,8-3.6,8-8C210.8,5.4,207.2,1.8,202.8,1.8z M202.8,16.3
		c-3.6,0-6.5-2.9-6.5-6.5s2.9-6.5,6.5-6.5c3.6,0,6.5,2.9,6.5,6.5S206.3,16.3,202.8,16.3z"/>
	<path class="st0" d="M205.7,9.5c0.3-0.4,0.4-0.8,0.4-1.4c0-0.4-0.1-0.8-0.3-1c-0.2-0.3-0.4-0.5-0.7-0.7c-0.3-0.2-0.6-0.3-0.9-0.3
		c-0.3-0.1-0.7-0.1-1.2-0.1h-3.4v7.8h2v-2.8h0.9l2.1,2.8h2.4l-2.6-3.3C205.1,10.1,205.5,9.8,205.7,9.5z M204,8.8
		c-0.1,0.1-0.2,0.3-0.3,0.4c-0.1,0.1-0.3,0.2-0.5,0.2c-0.2,0-0.5,0-0.8,0h-0.6V7.4h0.7c0.2,0,0.4,0,0.6,0c0.2,0,0.3,0,0.5,0.1
		c0.2,0.1,0.3,0.2,0.4,0.3c0.1,0.1,0.1,0.3,0.1,0.5C204.1,8.5,204,8.7,204,8.8z"/>
</g>
</svg>
