<?xml version="1.0" encoding="UTF-8" ?>
<!DOCTYPE svg PUBLIC "-//W3C//DTD SVG 1.1//EN" "http://www.w3.org/Graphics/SVG/1.1/DTD/svg11.dtd">
<svg width="972pt" height="987pt" viewBox="0 0 972 987" version="1.1" xmlns="http://www.w3.org/2000/svg">
<g id="#fffeffff">
<path fill="#fffeff" stroke="#fffeff" stroke-width="0.09375" opacity="1.00" d=" M 173.99 283.99 C 182.42 265.65 204.75 255.28 224.19 260.65 C 244.72 265.86 259.05 287.12 258.11 308.00 C 259.00 330.03 242.07 350.56 220.58 354.74 C 214.05 397.65 214.26 441.53 220.39 484.47 C 226.79 525.69 238.20 566.63 258.84 603.11 C 275.05 630.84 297.21 655.98 326.00 671.00 C 351.76 685.36 381.77 690.61 411.01 689.93 C 434.18 688.54 457.19 680.16 474.76 664.75 C 501.14 642.05 515.84 609.11 525.40 576.34 C 539.77 523.74 542.66 468.73 541.86 414.46 C 523.58 408.21 510.40 390.32 510.10 370.97 C 507.94 347.40 526.02 323.09 550.02 320.82 C 573.00 317.50 595.40 335.56 598.91 358.12 C 604.02 379.49 592.66 402.66 573.34 412.59 C 575.00 452.01 573.09 491.60 567.67 530.68 C 560.88 573.20 549.51 615.80 526.84 652.82 C 514.02 673.04 497.82 691.72 476.88 703.82 C 458.87 714.93 438.03 721.25 416.96 722.79 C 381.55 726.10 345.40 718.52 313.88 702.19 C 285.40 687.08 260.95 664.76 242.97 638.02 C 214.13 596.37 198.87 546.88 190.67 497.32 C 183.48 448.98 181.55 399.47 189.26 351.07 C 190.23 347.82 186.71 346.10 184.92 344.09 C 167.54 330.21 162.89 303.15 173.99 283.99 Z" />
</g>
<g id="#01aef0ff">
<path fill="#01aef0" stroke="#01aef0" stroke-width="0.09375" opacity="1.00" d=" M 223.39 16.68 C 258.76 16.58 293.90 21.43 329.05 24.92 C 391.87 32.27 454.50 41.30 516.99 51.10 C 587.41 62.58 657.79 74.53 727.57 89.49 C 750.67 94.49 773.77 99.65 796.38 106.59 C 802.17 108.42 807.91 110.66 813.01 114.01 C 819.31 119.01 818.46 129.45 811.70 133.67 C 788.40 152.38 765.16 171.18 741.70 189.69 C 734.36 195.31 727.88 202.10 719.90 206.85 C 713.30 211.21 704.73 210.48 697.43 208.54 C 659.17 197.23 620.28 188.16 581.58 178.49 C 506.76 160.14 431.37 144.19 355.58 130.44 C 312.34 122.51 269.10 114.45 225.51 108.67 C 219.62 108.10 212.20 106.45 209.69 100.35 C 207.91 85.65 209.60 70.77 210.20 56.03 C 211.29 44.41 211.50 32.50 215.41 21.36 C 216.98 18.51 220.21 16.90 223.39 16.68 Z" />
</g>
<g id="#1e76bdff">
<path fill="#1e76bd" stroke="#1e76bd" stroke-width="0.09375" opacity="1.00" d=" M 188.39 20.46 C 194.86 19.44 200.17 26.67 198.60 32.84 C 197.64 51.58 195.92 70.27 195.02 89.02 C 194.87 93.76 194.35 101.14 188.60 102.54 C 161.76 103.52 134.99 99.55 108.15 98.78 C 102.75 98.42 94.99 98.48 92.63 92.33 C 88.86 84.17 97.87 79.24 102.64 74.63 C 123.98 57.46 146.73 41.98 170.61 28.56 C 176.39 25.61 182.06 22.11 188.39 20.46 Z" />
</g>
<g id="#ee2a7bff">
<path fill="#ee2a7b" stroke="#ee2a7b" stroke-width="0.09375" opacity="1.00" d=" M 94.45 114.51 C 134.53 114.54 174.23 120.94 213.87 126.19 C 284.37 137.08 354.67 149.36 424.61 163.42 C 495.23 177.72 565.72 192.90 635.33 211.62 C 655.30 217.65 675.92 222.62 694.39 232.58 C 706.22 237.98 705.77 252.46 707.49 263.45 C 715.68 352.71 714.73 442.48 717.03 532.00 C 716.70 656.30 718.61 780.70 711.72 904.86 C 710.46 920.34 709.64 935.97 706.31 951.19 C 704.69 958.32 700.01 966.21 692.04 967.02 C 676.47 969.65 660.77 966.70 645.32 964.68 C 602.34 957.77 559.79 948.47 517.42 938.52 C 423.66 916.40 330.49 891.69 238.34 863.58 C 194.53 849.88 150.54 836.46 108.08 818.90 C 95.71 813.36 82.75 808.40 71.98 800.00 C 63.16 794.07 63.02 782.53 61.78 773.05 C 57.61 726.67 56.80 680.07 55.53 633.55 C 52.85 532.06 54.43 430.52 53.97 329.00 C 54.98 277.84 55.28 226.64 58.38 175.54 C 59.81 159.94 59.90 144.09 63.72 128.81 C 64.85 123.74 68.56 119.39 73.33 117.37 C 80.13 115.12 87.36 114.92 94.45 114.51 M 173.99 283.99 C 162.89 303.15 167.54 330.21 184.92 344.09 C 186.71 346.10 190.23 347.82 189.26 351.07 C 181.55 399.47 183.48 448.98 190.67 497.32 C 198.87 546.88 214.13 596.37 242.97 638.02 C 260.95 664.76 285.40 687.08 313.88 702.19 C 345.40 718.52 381.55 726.10 416.96 722.79 C 438.03 721.25 458.87 714.93 476.88 703.82 C 497.82 691.72 514.02 673.04 526.84 652.82 C 549.51 615.80 560.88 573.20 567.67 530.68 C 573.09 491.60 575.00 452.01 573.34 412.59 C 592.66 402.66 604.02 379.49 598.91 358.12 C 595.40 335.56 573.00 317.50 550.02 320.82 C 526.02 323.09 507.94 347.40 510.10 370.97 C 510.40 390.32 523.58 408.21 541.86 414.46 C 542.66 468.73 539.77 523.74 525.40 576.34 C 515.84 609.11 501.14 642.05 474.76 664.75 C 457.19 680.16 434.18 688.54 411.01 689.93 C 381.77 690.61 351.76 685.36 326.00 671.00 C 297.21 655.98 275.05 630.84 258.84 603.11 C 238.20 566.63 226.79 525.69 220.39 484.47 C 214.26 441.53 214.05 397.65 220.58 354.74 C 242.07 350.56 259.00 330.03 258.11 308.00 C 259.05 287.12 244.72 265.86 224.19 260.65 C 204.75 255.28 182.42 265.65 173.99 283.99 Z" />
</g>
<g id="#fcb040ff">
<path fill="#fcb040" stroke="#fcb040" stroke-width="0.09375" opacity="1.00" d=" M 841.21 142.59 C 848.29 142.03 852.45 148.90 854.03 154.89 C 859.22 176.95 861.14 199.60 863.91 222.05 C 876.13 333.13 884.63 444.59 892.70 556.05 C 897.76 623.63 902.08 691.27 904.82 758.99 C 905.08 773.94 905.54 788.92 904.65 803.86 C 903.91 809.28 899.83 813.44 896.59 817.61 C 869.20 846.98 838.56 873.08 807.59 898.57 C 792.82 910.24 778.42 922.54 762.22 932.24 C 755.51 935.68 747.45 938.86 740.22 934.84 C 730.37 926.64 733.71 912.12 733.13 900.99 C 735.41 864.70 736.50 828.35 737.01 792.00 C 736.42 757.32 738.74 722.68 738.00 688.00 C 738.87 547.95 735.56 407.94 730.01 268.01 C 730.29 255.91 728.15 243.23 732.62 231.64 C 735.55 226.46 740.13 222.41 744.66 218.65 C 771.87 196.20 798.64 173.22 826.12 151.10 C 830.74 147.81 835.20 143.08 841.21 142.59 Z" />
</g>
</svg>
