<svg viewBox="0 0 257 257" xmlns="http://www.w3.org/2000/svg" fill-rule="evenodd" clip-rule="evenodd" stroke-linejoin="round" stroke-miterlimit="1.414"><path d="M126.043 193.035c-4.806.12-8.765 4.12-8.816 8.89-.04 4.895 4.256 9.196 9.14 9.17 4.998-.064 9.017-4.195 8.952-9.273-.086-5.142-4.045-8.902-9.277-8.787m-28.29 0c-4.8.12-8.765 4.12-8.81 8.89-.044 4.895 4.25 9.196 9.132 9.17 5.007-.064 9.018-4.195 8.94-9.273-.064-5.142-4.03-8.902-9.262-8.787" fill-rule="nonzero"/><path d="M256.354 128.174c0 70.793-57.384 128.176-128.18 128.176C57.385 256.35 0 198.967 0 128.174 0 57.384 57.383 0 128.175 0c70.795 0 128.18 57.383 128.18 128.174" fill="#eb1974"/><path d="M88.98 186.125h.092l-.11-.115c.005.04.013.076.018.115" fill="#fff" fill-rule="nonzero"/><path d="M182.202 66.463c-.103-1.37-.258-2.582-.478-3.643-.245-.01-.49-.025-.736-.04-16.728-.58-18.614-.036-18.614-.036-3.967.606-11.317 5.774-13.59 13.137-3.682 11.886-9.703 34.286-14.75 53.417-4.205-4.637-6.414-10.797-6.796-11.924l-.057-.232L111.72 64.32a71.562 71.562 0 0 0-11.756-.994c-1.977 0-7.377-.4-13.022.27l7.655 23.088 1.13 3.422c3.345 10.322 11.47 35.86 11.47 35.86 5.26 15.645 14.108 22.157 21.193 24.843-1.905 7.248-3.158 12.015-3.307 12.312-.962 2.027-1.955 3.202-3.235 4.015-1.266.84-2.247 1.267-4.21 1.37-.596.026-28.925.155-28.925.155-.336 1.668-.556 3.164-.67 4.483a48.049 48.049 0 0 0-.164 4.172c0 1.55.047 3.05.163 4.482.114 1.447.334 3.062.67 4.834h28.756c3.313 0 6.407-.298 9.276-.907 2.867-.606 5.458-1.69 7.782-3.227 2.316-1.55 4.39-3.71 6.21-6.46 1.822-2.764 3.4-6.24 4.716-10.438l22.866-78.787c.477-1.15 3.023-6.42 8.643-6.42.45 0 .81-.027 1.084-.066h3.384c.414-1.912.71-3.927.865-6.056.154-2.106.064-1.707.064-3.502 0-1.487-.04-2.918-.155-4.303m-56.437 127.087c-4.8.104-8.765 4.11-8.817 8.875-.04 4.896 4.255 9.21 9.145 9.174 5-.055 9.004-4.2 8.94-9.264-.078-5.154-4.038-8.914-9.27-8.785m-28.29 0c-4.8.104-8.765 4.11-8.81 8.875-.04 4.896 4.257 9.21 9.14 9.174 5-.055 9.018-4.2 8.94-9.264-.072-5.154-4.038-8.914-9.27-8.785" fill="#fff" fill-rule="nonzero"/></svg>