<svg width="32" height="32" viewBox="0 0 32 32" fill="none" xmlns="http://www.w3.org/2000/svg">
<path d="M16.388 23.3239C15.2053 22.6492 13.7693 22.0439 11.108 21.2066L8.11067 20.1799C7.22267 19.8599 6.35733 19.4786 5.52133 19.0412C5.224 18.8919 4.95467 18.7399 4.70267 18.5879L4 25.3612C4.70267 29.0946 8.348 31.7612 11.488 31.7612H12.2587C14.216 31.7079 15.736 31.2759 16.8053 30.4519C17.352 30.0452 17.792 29.5146 18.0893 28.9026C18.3853 28.2906 18.5307 27.6172 18.512 26.9372C18.4813 26.2079 18.272 25.4972 17.9027 24.8666C17.532 24.2359 17.012 23.7066 16.388 23.3239V23.3239Z" fill="#6EB400"/>
<path d="M27.4626 28.6121L25.5293 9.94548C25.456 9.24281 25.124 8.59215 24.5986 8.11881C24.072 7.64548 23.3893 7.38415 22.6813 7.38281H11.1026C8.96398 7.38281 8.37465 7.40415 6.94398 8.50815C6.03198 9.21215 5.46265 10.7108 5.46265 11.8095C5.46265 12.4375 5.59731 13.0588 5.85731 13.6321C6.11598 14.2055 6.49465 14.7161 6.96798 15.1321C7.85331 15.9721 9.64265 16.5588 12.008 17.4015L13.8346 18.0468L15.532 18.6468C16.604 19.0281 17.6466 19.4841 18.656 20.0095C19.1533 20.2948 19.6173 20.6335 20.0413 21.0201C20.3986 21.3735 20.7346 21.7481 21.0466 22.1428C21.3666 22.5535 21.636 23.0015 21.8493 23.4761C22.0893 23.9655 22.2746 24.4801 22.4026 25.0095C22.544 25.6135 22.6213 26.2308 22.6333 26.8521C22.664 28.6148 22.1146 30.3401 21.0706 31.7641H24.6066C25.008 31.7641 25.4066 31.6815 25.7733 31.5201C26.1413 31.3575 26.4706 31.1201 26.74 30.8228C27.0093 30.5255 27.212 30.1748 27.3373 29.7948C27.4613 29.4135 27.5053 29.0108 27.4626 28.6121Z" fill="#AAE600"/>
<path d="M10.2773 5.24133C10.4306 5.24133 10.5813 5.20133 10.7146 5.12267C10.848 5.04533 10.9573 4.936 11.0346 4.80267C11.5 3.99067 12.172 3.31733 12.984 2.84933C13.7946 2.38133 14.7146 2.13467 15.652 2.13467C16.5893 2.13467 17.5106 2.38133 18.3213 2.84933C19.132 3.31733 19.8053 3.99067 20.272 4.80133C20.348 4.93467 20.4586 5.04533 20.592 5.12267C20.7253 5.2 20.8773 5.24133 21.032 5.24267H21.4826C21.6333 5.24267 21.78 5.20267 21.9106 5.13067C22.0413 5.05733 22.1506 4.952 22.2293 4.824C22.3066 4.69733 22.3506 4.552 22.356 4.40267C22.3613 4.25333 22.328 4.10533 22.2586 3.972C21.624 2.77333 20.6746 1.77067 19.5106 1.07067C18.3466 0.370667 17.0133 0 15.6533 0C14.2946 0 12.96 0.370667 11.7973 1.07067C10.6333 1.77067 9.68264 2.77333 9.0493 3.972C8.97997 4.10533 8.94664 4.252 8.95197 4.40267C8.9573 4.552 9.0013 4.696 9.07864 4.824C9.15597 4.952 9.2653 5.05733 9.3973 5.13067C9.52797 5.204 9.67464 5.24133 9.82397 5.24133H10.2773Z" fill="#6EB400"/>
</svg>
