<?xml version="1.0" encoding="UTF-8"?>
<svg width="16px" height="16px" viewBox="0 0 16 16" version="1.1" xmlns="http://www.w3.org/2000/svg" xmlns:xlink="http://www.w3.org/1999/xlink">
    <!-- Generator: Sketch 61.2 (89653) - https://sketch.com -->
    <title>Artboard</title>
    <desc>Created with Sketch.</desc>
    <g id="Artboard" stroke="none" stroke-width="1" fill="none" fill-rule="evenodd">
        <path d="M12.725045,14.2010811 C12.036036,13.6821622 11.0198198,13.2872072 9.9445045,12.8706306 C8.6645045,12.3747748 7.21297297,11.8111712 6.12324324,10.9448649 C4.88936937,9.9618018 4.28828829,8.72216216 4.28828829,7.15531532 C4.28828829,5.74846847 4.87207207,4.54630631 5.97621622,3.67711712 C7.21441441,2.7027027 9.09117117,2.18666667 11.4018018,2.18666667 C12.0403604,2.18666667 12.6500901,2.22558559 13.2151351,2.30342342 C13.2655856,2.31063063 13.3131532,2.28324324 13.3333333,2.23855856 C13.354955,2.19243243 13.3434234,2.1390991 13.3059459,2.10594595 C11.8500901,0.795675676 9.96756757,0.074954955 8.00720721,0.074954955 C5.88828829,0.074954955 3.89621622,0.899459459 2.39711712,2.39855856 C0.899459459,3.89621622 0.0735135135,5.88828829 0.0735135135,8.00576577 C0.0735135135,10.1246847 0.898018018,12.1167568 2.39711712,13.6144144 C3.89477477,15.1120721 5.88684685,15.938018 8.00720721,15.938018 C9.71963964,15.938018 11.3499099,15.4003604 12.7236036,14.3841441 C12.7524324,14.3625225 12.7697297,14.3293694 12.7697297,14.2933333 C12.7697297,14.2572973 12.7538739,14.2227027 12.725045,14.2010811 Z" id="XMLID_563_" fill="#189EFF" fill-rule="nonzero"></path>
        <path d="M15.9048649,7.27351351 C15.901982,7.24324324 15.8875676,7.21441441 15.8645045,7.19567568 C14.2097297,5.82198198 12.8706306,5.26126126 11.2432432,5.26126126 C10.3754955,5.26126126 9.70954955,5.43567568 9.26558559,5.77873874 C8.88072072,6.07567568 8.67747748,6.49081081 8.67747748,6.97657658 C8.67747748,8.33873874 10.3423423,8.96 12.270991,9.67927928 C13.2641441,10.0497297 14.2918919,10.4331532 15.2345946,10.9563964 C15.2518919,10.9664865 15.2706306,10.9708108 15.2893694,10.9708108 C15.3023423,10.9708108 15.3153153,10.9679279 15.3282883,10.9636036 C15.3585586,10.9520721 15.3845045,10.929009 15.396036,10.8972973 C15.7563964,9.97477477 15.9394595,9.0018018 15.9394595,8.00576577 C15.938018,7.77225225 15.9279279,7.52576577 15.9048649,7.27351351 Z" id="XMLID_562_" fill="#189EFF" fill-rule="nonzero"></path>
    </g>
</svg>