<svg width="32" height="32" viewBox="0 0 32 32" fill="none" xmlns="http://www.w3.org/2000/svg">
<path d="M10.8137 25.0293C10.8137 25.0293 10.1094 25.6772 10.1094 27.3055C10.1094 28.9338 12.7427 31.9993 18.9647 31.9993C25.1867 31.9993 27.3071 29.8726 27.3071 28.1293C27.3071 26.3859 26.8693 26.1817 26.8693 26.1817L10.8137 25.0293Z" fill="#1FBFCA"/>
<path d="M11.4501 24.9785L10.8086 25.03L10.6133 27.2756C10.6133 28.4515 13.0379 31.5147 18.8636 31.5147C23.8699 31.5147 26.863 29.9894 26.863 28.1278V25.9846L25.6709 25.3822L11.4501 24.9785Z" fill="#C22828"/>
<path d="M11.2233 23.4746C11.2233 23.4746 10.8164 23.7046 10.8164 25.3395C10.8164 26.5006 13.2129 29.5283 18.9724 29.5283C23.9181 29.5283 26.8759 28.021 26.8759 26.1874C26.8759 23.9648 25.6973 23.4795 25.6973 23.4795L11.2233 23.4746Z" fill="#ED2D26"/>
<path d="M8.11885 2.49219L3.63281 6.74396V21.3291L8.29115 23.1299L8.11885 2.49219Z" fill="#116C7E"/>
<path d="M17.159 24.5667L17.2488 23.4746H11.2233C11.2233 23.4746 10.8164 23.7046 10.8164 25.3395C10.8164 25.6665 11.0061 26.1408 11.4068 26.654L17.159 24.5667Z" fill="#D7292A"/>
<path d="M21.2036 25.0295C21.2036 25.5301 20.2023 25.9359 18.967 25.9359C17.7317 25.9359 16.7305 25.5306 16.7305 25.0295C16.7305 24.5283 17.7317 24.123 18.967 24.123C20.2023 24.123 21.2036 24.5283 21.2036 25.0295Z" fill="#EBEADB"/>
<path d="M21.2036 23.8086H16.7305V25.03H21.2036V23.8086Z" fill="#EBEADB"/>
<path d="M21.2036 23.8088C21.2036 24.3094 20.2023 24.7152 18.967 24.7152C17.7317 24.7152 16.7305 24.3099 16.7305 23.8088C16.7305 23.3076 17.7317 22.9023 18.967 22.9023C20.2023 22.9023 21.2036 23.3076 21.2036 23.8088Z" fill="#CBCDC5"/>
<path d="M21.2036 22.9883H16.7305V23.7419H21.2036V22.9883Z" fill="#CBCDC5"/>
<path d="M20.0652 2.01758H9.38466C8.88537 2.01931 8.40703 2.21364 8.05397 2.55817C7.70091 2.90271 7.50177 3.3695 7.5 3.85674V21.635C7.50177 22.1222 7.70091 22.589 8.05397 22.9335C8.40703 23.2781 8.88537 23.4724 9.38466 23.4741H20.0652V2.01758Z" fill="#1FBFCA"/>
<path d="M30.1166 2.01758H20.0703V23.4741H30.1166C30.6159 23.4724 31.0943 23.2781 31.4473 22.9335C31.8004 22.589 31.9995 22.1222 32.0013 21.635V3.85674C31.9995 3.3695 31.8004 2.90271 31.4473 2.55817C31.0943 2.21364 30.6159 2.01931 30.1166 2.01758" fill="#92D5E3"/>
<path d="M21.943 0.273848V1.1173L27.0705 1.73729L27.1064 0.484712L21.943 0.273848ZM18.9201 0.523598L12.468 0L12.4023 1.5456L18.8612 1.52041L18.9201 0.523598Z" fill="#ED2D26"/>
<path d="M6.24437 13.5123C6.24437 15.8674 5.11065 17.7668 3.71203 17.7668C2.3134 17.7668 1.17969 15.8619 1.17969 13.5123C1.17969 11.1627 2.3134 9.25781 3.71203 9.25781C5.11065 9.25781 6.24437 11.1627 6.24437 13.5123Z" fill="#1FBFCA"/>
<path d="M3.762 9.73766C3.74517 9.73766 2.86513 9.73438 2.84717 9.73438C1.75836 9.73438 0.882812 11.4257 0.882812 13.5102C0.882812 15.5947 1.76509 17.2855 2.84717 17.2855L3.762 17.2871C4.85082 17.2871 5.72637 15.5969 5.72637 13.5124C5.72637 11.4278 4.84409 9.73766 3.762 9.73766Z" fill="#C22828"/>
<path d="M4.79191 13.5115C4.79191 15.5961 3.91637 17.2906 2.83541 17.2906C1.75445 17.2906 0.878906 15.601 0.878906 13.5115C0.878906 11.4221 1.75445 9.73242 2.83541 9.73242C3.91637 9.73242 4.79191 11.4221 4.79191 13.5115Z" fill="#ED2D26"/>
<path d="M2.8583 13.4153C2.8583 13.934 2.59452 14.3541 2.269 14.3541C1.94347 14.3541 1.67969 13.934 1.67969 13.4153C1.67969 12.8966 1.94347 12.4766 2.269 12.4766C2.59452 12.4766 2.8583 12.8966 2.8583 13.4153" fill="#C22828"/>
<path d="M2.02217 12.4766H0.314298C0.145924 12.4766 0 12.8966 0 13.4153C0 13.934 0.140311 14.3541 0.314298 14.3541H2.02217C2.19054 14.3541 2.33647 13.934 2.33647 13.4153C2.33647 12.8966 2.19616 12.4766 2.02217 12.4766Z" fill="#92D5E3"/>
<path d="M24.9329 7.58465C24.769 7.58356 24.2628 7.45594 24.2499 7.45704C22.3287 7.62354 21.0508 8.90678 21.0508 10.5417C21.0508 12.1765 22.45 13.5036 24.1758 13.5036L24.938 13.5042L24.9329 7.58465Z" fill="#C22828"/>
<path d="M27.9493 10.4558C27.949 11.2645 27.6196 12.04 27.0336 12.6119C26.4476 13.1837 25.6529 13.5051 24.8242 13.5054C23.9955 13.5051 23.2008 13.1837 22.6148 12.6119C22.0289 12.04 21.6995 11.2645 21.6992 10.4558C21.6995 9.64711 22.0289 8.87161 22.6148 8.29977C23.2008 7.72792 23.9955 7.40654 24.8242 7.40625C25.6529 7.40654 26.4476 7.72792 27.0336 8.29977C27.6196 8.87161 27.949 9.64711 27.9493 10.4558" fill="#ED2D26"/>
<path d="M27.1397 10.3981C27.1396 10.9833 26.9013 11.5445 26.4772 11.9583C26.0532 12.3721 25.4781 12.6046 24.8784 12.6047C24.2788 12.6046 23.7037 12.3721 23.2797 11.9583C22.8556 11.5445 22.6173 10.9833 22.6172 10.3981C22.6173 9.81287 22.8556 9.25168 23.2797 8.83788C23.7037 8.42409 24.2788 8.19155 24.8784 8.19141C25.4781 8.19155 26.0532 8.42409 26.4772 8.83788C26.9013 9.25168 27.1396 9.81287 27.1397 10.3981" fill="#B4D9E8"/>
<path d="M26.0465 10.4178C26.0462 10.7255 25.9208 11.0205 25.6978 11.238C25.4749 11.4555 25.1725 11.5777 24.8572 11.5779C24.542 11.5777 24.2396 11.4555 24.0167 11.238C23.7937 11.0205 23.6683 10.7255 23.668 10.4178C23.6683 10.1102 23.7937 9.81521 24.0167 9.59771C24.2396 9.38021 24.542 9.25796 24.8572 9.25781C25.1725 9.25796 25.4749 9.38021 25.6978 9.59771C25.9208 9.81521 26.0462 10.1102 26.0465 10.4178" fill="white"/>
<path d="M16.2962 7.58465C16.1323 7.58356 15.6261 7.45594 15.6132 7.45704C13.692 7.62354 12.4141 8.90678 12.4141 10.5417C12.4141 12.1765 13.8132 13.5036 15.5391 13.5036L16.3013 13.5042L16.2962 7.58465Z" fill="#C22828"/>
<path d="M19.3086 10.4558C19.3083 11.2645 18.979 12.04 18.393 12.6119C17.807 13.1837 17.0123 13.5051 16.1836 13.5054C15.3549 13.5051 14.5602 13.1837 13.9742 12.6119C13.3882 12.04 13.0589 11.2645 13.0586 10.4558C13.0589 9.64711 13.3882 8.87161 13.9742 8.29977C14.5602 7.72792 15.3549 7.40654 16.1836 7.40625C17.0123 7.40654 17.807 7.72792 18.393 8.29977C18.979 8.87161 19.3083 9.64711 19.3086 10.4558" fill="#ED2D26"/>
<path d="M18.4991 10.3981C18.4989 10.9833 18.2606 11.5445 17.8366 11.9583C17.4126 12.3721 16.8375 12.6046 16.2378 12.6047C15.6381 12.6046 15.0631 12.3721 14.639 11.9583C14.215 11.5445 13.9767 10.9833 13.9766 10.3981C13.9767 9.81287 14.215 9.25168 14.639 8.83788C15.0631 8.42409 15.6381 8.19155 16.2378 8.19141C16.8375 8.19155 17.4126 8.42409 17.8366 8.83788C18.2606 9.25168 18.4989 9.81287 18.4991 10.3981" fill="#B4D9E8"/>
<path d="M17.4059 10.4178C17.4056 10.7255 17.2802 11.0205 17.0572 11.238C16.8342 11.4555 16.5319 11.5777 16.2166 11.5779C15.9013 11.5777 15.599 11.4555 15.376 11.238C15.1531 11.0205 15.0276 10.7255 15.0273 10.4178C15.0276 10.1102 15.1531 9.81521 15.376 9.59771C15.599 9.38021 15.9013 9.25796 16.2166 9.25781C16.5319 9.25796 16.8342 9.38021 17.0572 9.59771C17.2802 9.81521 17.4056 10.1102 17.4059 10.4178" fill="white"/>
<path d="M17.4491 18.128C17.4604 18.852 16.8677 19.4425 16.1257 19.4589C15.3838 19.4753 14.7787 18.8915 14.7619 18.1674C14.7591 17.9953 14.7911 17.8242 14.8561 17.6641C14.9211 17.5041 15.0179 17.3581 15.1408 17.2345C15.2638 17.111 15.4105 17.0124 15.5725 16.9443C15.7346 16.8761 15.9089 16.8399 16.0853 16.8376C16.8273 16.8278 17.4323 17.405 17.4491 18.1291V18.128ZM25.6983 18.0086C25.7096 18.7327 25.1169 19.3231 24.3749 19.3395C23.6329 19.3559 23.0279 18.7721 23.0111 18.048C22.9942 17.324 23.5925 16.7336 24.3345 16.7171C25.0765 16.7007 25.6815 17.2845 25.6983 18.0086Z" fill="#116C7E"/>
<path d="M25.2044 19.0413C25.2044 19.0413 23.4516 20.9331 20.06 20.9818C17.1068 21.0246 15.125 19.043 15.125 19.043L17.0602 17.2263C17.0602 17.2263 18.552 18.457 20.1554 18.4312C22.3454 18.3885 23.3545 17.1523 23.3545 17.1523L25.2044 19.0413Z" fill="#116C7E"/>
<path d="M17.5747 17.6939C17.5747 18.4279 16.9652 19.0227 16.2131 19.0227C15.4611 19.0227 14.8516 18.4279 14.8516 17.6939C14.8516 16.96 15.4611 16.3652 16.2131 16.3652C16.9652 16.3652 17.5747 16.96 17.5747 17.6939Z" fill="#ED2D26"/>
<path d="M25.938 17.6939C25.938 18.4279 25.3285 19.0227 24.5764 19.0227C23.8244 19.0227 23.2148 18.4279 23.2148 17.6939C23.2148 16.96 23.8244 16.3652 24.5764 16.3652C25.3285 16.3652 25.938 16.96 25.938 17.6939Z" fill="#ED2D26"/>
<path d="M25.4211 18.7349C25.4211 18.7349 23.6156 20.6261 20.178 20.6261C17.1849 20.6261 15.207 18.5886 15.207 18.5886L17.1961 16.7812C17.1961 16.7812 18.689 18.0497 20.3138 18.041C22.5335 18.03 23.5702 16.7922 23.5702 16.7922L25.4211 18.7349Z" fill="#ED2D26"/>
<path d="M20.8726 19.7796H20.216V18.9597H20.8726V19.7796ZM19.7311 19.7369L19.0912 19.5945L19.2765 18.7948L19.9163 18.9372L19.7311 19.7369ZM18.6686 19.4778L18.0513 19.2445L18.3571 18.481L18.9745 18.7138L18.6686 19.4778ZM17.6752 19.0873L17.0898 18.797L17.4704 18.0664L18.0557 18.3567L17.6752 19.0873Z" fill="white"/>
<path d="M16.7034 18.5765L16.1719 18.2002L16.6658 17.543L17.1973 17.9192L16.7034 18.5765ZM20.2179 19.7792H20.8746V18.9593H20.2179V19.7792ZM21.3589 19.7365L21.9987 19.5941L21.8135 18.7944L21.1737 18.9368L21.3589 19.7365ZM22.4213 19.4774L23.0387 19.2441L22.7328 18.4806L22.1155 18.7134L22.4213 19.4774ZM23.4148 19.0869L24.0001 18.7966L23.6196 18.066L23.0342 18.3563L23.4148 19.0869ZM24.3885 18.5765L24.92 18.2002L24.4261 17.543L23.8946 17.9192L24.3885 18.5765ZM28.3015 2.68121V3.16647C28.3015 3.16647 29.3881 3.05694 30.0807 3.72841C30.7732 4.39989 30.7093 5.36329 30.7093 5.36329H31.1807C31.1807 5.36329 31.3901 3.88177 30.5785 3.19167C29.7669 2.50157 28.301 2.68121 28.301 2.68121" fill="white"/>
</svg>
