<svg width="32" height="32" viewBox="0 0 32 32" fill="none" xmlns="http://www.w3.org/2000/svg">
<path fill-rule="evenodd" clip-rule="evenodd" d="M32 4.70588C32 3.4578 31.5042 2.26085 30.6217 1.37832C29.7392 0.495797 28.5422 0 27.2941 0L4.70588 0C3.4578 0 2.26085 0.495797 1.37832 1.37832C0.495797 2.26085 0 3.4578 0 4.70588L0 27.2941C0 28.5422 0.495797 29.7392 1.37832 30.6217C2.26085 31.5042 3.4578 32 4.70588 32H27.2941C28.5422 32 29.7392 31.5042 30.6217 30.6217C31.5042 29.7392 32 28.5422 32 27.2941V4.70588Z" fill="url(#paint0_linear_1745:124)"/>
<path fill-rule="evenodd" clip-rule="evenodd" d="M6.21094 9.50529C6.21094 8.18764 7.24623 7.15234 8.56388 7.15234H12.2345C13.0815 7.15234 13.7403 7.81117 13.7403 8.75234C13.7179 9.14441 13.552 9.51453 13.2743 9.79222C12.9967 10.0699 12.6265 10.2358 12.2345 10.2582H11.1051C10.6058 10.2582 10.127 10.4565 9.77403 10.8096C9.42102 11.1626 9.2227 11.6413 9.2227 12.1406V19.8582C9.2227 20.3575 9.42102 20.8362 9.77403 21.1893C10.127 21.5423 10.6058 21.7406 11.1051 21.7406H12.2345C12.6265 21.763 12.9967 21.9289 13.2743 22.2066C13.552 22.4843 13.7179 22.8544 13.7403 23.2465C13.7403 24.1876 13.0815 24.8465 12.2345 24.8465H8.46976C7.87811 24.8232 7.31697 24.5778 6.89829 24.1591C6.4796 23.7404 6.23417 23.1793 6.21094 22.5876V9.41117V9.50529ZM25.7874 9.50529C25.7874 8.18764 24.8462 7.15234 23.4345 7.15234H19.858C19.0109 7.15234 18.3521 7.81117 18.3521 8.75234C18.3746 9.14441 18.5404 9.51453 18.8181 9.79222C19.0958 10.0699 19.4659 10.2358 19.858 10.2582H20.9874C21.4866 10.2582 21.9654 10.4565 22.3184 10.8096C22.6714 11.1626 22.8698 11.6413 22.8698 12.1406V19.7641C22.8698 20.2633 22.6714 20.7421 22.3184 21.0951C21.9654 21.4481 21.4866 21.6465 20.9874 21.6465H19.7639C19.3718 21.6689 19.0017 21.8348 18.724 22.1125C18.4463 22.3902 18.2805 22.7603 18.258 23.1523C18.258 24.0935 18.9168 24.7523 19.7639 24.7523H23.5286C24.1526 24.7523 24.7511 24.5044 25.1924 24.0632C25.6336 23.6219 25.8815 23.0234 25.8815 22.3994V9.41117L25.7874 9.50529Z" fill="white"/>
<defs>
<linearGradient id="paint0_linear_1745:124" x1="16.9412" y1="0" x2="16.9412" y2="32" gradientUnits="userSpaceOnUse">
<stop stop-color="#F45C43"/>
<stop offset="1" stop-color="#EB3349"/>
</linearGradient>
</defs>
</svg>
