<svg width="32" height="32" viewBox="0 0 32 32" fill="none" xmlns="http://www.w3.org/2000/svg">
<path d="M31.8325 15.7396L24.2046 2.54895C24.186 2.53034 24.1674 2.51174 24.1674 2.47453L24.1488 2.45592C24.1488 2.43732 24.1302 2.43732 24.1302 2.43732L24.1116 2.41871L24.093 2.40011C24.0744 2.40011 24.0744 2.3815 24.0558 2.3815C24.0372 2.3815 24.0372 2.3629 24.0186 2.3629C23.9256 2.28848 23.8884 2.26988 23.8512 2.26988C23.8139 2.25127 23.7767 2.25127 23.7209 2.23267H23.6837H16.0372H8.40929C8.16743 2.23267 7.96278 2.3629 7.83255 2.56755L0.223244 15.7396V15.7582C0.223244 15.7582 0.223244 15.7769 0.20464 15.7769V15.7955C0.20464 15.7955 0.20464 15.8141 0.186035 15.8141V16.2792C0.186035 16.2792 0.186035 16.2978 0.20464 16.2978C0.20464 16.2978 0.20464 16.3164 0.223244 16.3164C0.223244 16.3164 0.223244 16.335 0.241849 16.335L3.98138 22.8838C3.98138 22.9024 3.99999 22.921 3.99999 22.9396L7.85115 29.5257C7.96278 29.7303 8.18603 29.8606 8.4279 29.8606H23.6465C23.8884 29.8606 24.093 29.7303 24.2232 29.5257V29.5071L28.0372 22.921L31.8325 16.4094C31.9442 16.2048 31.9442 15.9443 31.8325 15.7396ZM19.4418 22.0094H13.3581L16.4093 16.7257H22.493L19.4418 22.0094V22.0094ZM9.17208 16.0745L12.2232 10.8094L15.2744 16.0745L12.2232 21.3396L9.17208 16.0745ZM16.4093 15.4048L13.3581 10.1396H19.4605L22.5116 15.4048H16.4093ZM19.4605 8.81871H13.3581L16.4093 3.5536H22.5116L19.4605 8.81871V8.81871ZM8.78138 3.5536H14.8651L11.6465 9.13499L11.6279 9.1536L8.01859 15.4048H1.93487L8.78138 3.5536ZM8.01859 16.7443L11.0698 22.0094H4.94883L1.93487 16.7443H8.01859V16.7443ZM8.78138 28.5955L5.71162 23.3303H19.4418L22.493 28.5955H8.78138ZM23.6279 27.9443L20.5767 22.6792L23.6279 17.4141L26.6791 22.6792L23.6279 27.9443V27.9443ZM27.4418 21.3396L20.5953 9.46988L23.6279 4.20476L30.4744 16.0745L27.4418 21.3396Z" fill="#00A3E0"/>
</svg>
