<svg width="101" height="102" viewBox="0 0 101 102" xmlns="http://www.w3.org/2000/svg"><title>Artboard 1</title><path d="M41.115 67.919c7.884-5.398 9.899-16.164 4.504-24.048l-14.282 9.766h-.001c-3.937 2.697-9.321 1.693-12.023-2.253-2.699-3.942-1.689-9.324 2.252-12.023l.013-.008 13.021-8.913 8.377-5.738c7.885-5.399 9.901-16.164 4.505-24.048L11.818 25.068c-.01.008-.02.012-.029.018C-.033 33.18-3.057 49.334 5.042 61.157c8.093 11.828 24.246 14.849 36.067 6.756l.006.006m18.773-33.83v.003l-.012.008c-.03.022-.06.048-.09.071l.106-.075c-7.885 5.399-9.901 16.165-4.503 24.048l14.275-9.772-.005-.006c3.943-2.7 9.329-1.696 12.022 2.248 2.705 3.942 1.695 9.325-2.248 12.025L58.024 77.297c-7.887 5.4-9.904 16.166-4.505 24.049l14.278-9.77 21.408-14.662v-.002c11.826-8.095 14.852-24.242 6.756-36.068-8.098-11.829-24.251-14.849-36.073-6.755" fill="#0F507F" fill-rule="evenodd"/></svg>