<?xml version="1.0" encoding="utf-8"?>
<!-- Generator: Adobe Illustrator 21.0.0, SVG Export Plug-In . SVG Version: 6.00 Build 0)  -->
<svg version="1.1" id="Capa_1" xmlns="http://www.w3.org/2000/svg" xmlns:xlink="http://www.w3.org/1999/xlink" x="0px" y="0px"
	 viewBox="0 0 128 128" style="enable-background:new 0 0 128 128;" xml:space="preserve">
<style type="text/css">
	.st0{fill:#CB2547;}
</style>
<g>
	<path class="st0" d="M102.6,13.4c-9.2,4.2-25.7,14.2-38.4,22.2c0.7,1.4,1.6,3,2.5,4.8c5.6-3,12.2-3.7,18.5-2
		c13.7,3.7,21.8,17.7,18.2,31.4C100,82.3,77.2,95.7,72.6,98.3l-4.1,2.3l-0.1-0.1c-10.8,6.7-23.9,14.7-33.7,20c4,2.1,8.3,3.8,12.9,5
		c33.9,9.1,68.8-11.1,77.9-45C132.4,54.8,122.5,28.6,102.6,13.4z"/>
	<path class="st0" d="M63.8,92.3c-0.7-1.3-1.5-2.9-2.4-4.7c-5.6,2.9-12.2,3.7-18.5,2.1C29.2,86,21.1,71.9,24.7,58.2
		c3.3-12.4,26.2-25.9,30.7-28.5l3.6-2c10.8-6.8,24.3-15,34.2-20.2c-4-2.1-8.3-3.7-12.8-4.9c-33.9-9.1-68.8,11.1-77.9,45
		c-6.9,25.7,3,51.8,22.9,67C35,110,51.1,100.2,63.8,92.3z"/>
	<path class="st0" d="M33.9,60.6c-2.3,8.6,2.8,17.5,11.4,19.8c5.2,1.4,10.8,0.1,14.9-3.5l4.9-4.3l2.6,5.9c1.4,3.3,2.9,6.3,4.2,8.6
		c5-3.2,8.7-5.6,10.2-6.5C88.1,76,93.2,71,94.2,67.4c2.3-8.6-2.8-17.5-11.4-19.8c-5.2-1.4-10.8-0.1-14.9,3.5L63,55.4l-2.6-5.9
		c-1.5-3.3-3-6.4-4.2-8.7c-5.2,3.3-8.8,5.7-9.5,6.1C40.4,51.7,34.9,56.9,33.9,60.6z"/>
</g>
</svg>
