<svg width="32" height="32" viewBox="0 0 32 32" fill="none" xmlns="http://www.w3.org/2000/svg">
<path d="M25.4476 31.0859V31.5684H31.6444V25.397V25.3716H25.4476V30.5779C25.4476 30.7303 25.4476 30.8827 25.4476 31.0351C25.4476 31.0605 25.4476 31.0859 25.4476 31.0859Z" fill="#D8276C"/>
<path d="M0.253967 25.3715L2.13333 27.2001L6.55238 31.7715V25.3461H25.4476V18.9969H6.57778C6.4 18.9461 0.253967 12.6985 0.253967 12.6985V25.3715Z" fill="#D8276C"/>
<path d="M6.45079 0.660268V0.203125H0.253967V6.37455V6.39995H6.45079V1.1682C6.45079 1.01582 6.45079 0.863443 6.45079 0.711062C6.45079 0.711062 6.45079 0.685665 6.45079 0.660268Z" fill="#D8276C"/>
<path d="M31.6445 6.4L29.7651 4.57143L25.346 0V6.4H6.45081V12.7746H25.3206C25.4984 12.8508 31.6445 19.073 31.6445 19.073V6.4Z" fill="#D8276C"/>
</svg>
