<svg width="32" height="32" viewBox="0 0 32 32" fill="none" xmlns="http://www.w3.org/2000/svg">
<path fill-rule="evenodd" clip-rule="evenodd" d="M27.2263 28.8298C28.1516 28.8192 29.0537 28.5354 29.8183 28.0134C30.5832 27.4915 31.1768 26.7548 31.5249 25.8965C31.8728 25.0378 31.9596 24.0954 31.7745 23.1875C31.5889 22.2797 31.1398 21.447 30.483 20.794C29.8267 20.1411 28.992 19.6967 28.0838 19.517C27.1756 19.3373 26.235 19.4302 25.3794 19.7841C24.5238 20.138 23.792 20.7369 23.2754 21.5056C22.7592 22.2748 22.4811 23.1792 22.4766 24.1056C22.4926 25.359 22.9988 26.5559 23.8872 27.4394C24.7752 28.3224 25.9741 28.8218 27.2263 28.8298Z" fill="#F16667"/>
<path fill-rule="evenodd" clip-rule="evenodd" d="M11.3709 28.9108C18.2998 28.9108 22.3812 25.5969 22.3812 20.9717C22.3812 11.0222 8.33364 13.7851 8.33364 11.1211C8.33364 10.1671 9.53714 9.46406 11.3443 9.46406C14.2564 9.46406 17.0165 10.722 18.4744 12.1243L21.4358 6.64791C18.4882 4.51351 14.9328 3.38494 11.295 3.42898C4.61672 3.42898 0.903596 7.14959 0.903596 11.4099C0.903596 21.2567 15.0081 18.1443 15.0081 21.158C15.0081 22.2144 14.0552 22.8643 11.7468 22.8643C8.88415 22.8643 5.01916 21.2075 3.21195 19.5998L0 25.1294C2.51717 27.4551 6.98583 28.9108 11.3709 28.9108Z" fill="#0E2340"/>
</svg>
