<svg width="32" height="32" viewBox="0 0 32 32" fill="none" xmlns="http://www.w3.org/2000/svg">
<path d="M25.8575 8.05539L29.0809 4.86769L28.3916 4.18708C22.7449 -1.39569 13.5646 -1.39569 7.9178 4.18708C2.51595 9.52862 2.29318 18.1009 7.25072 23.728L4.00518 26.8935L4.69441 27.5754C10.3412 33.1582 19.5215 33.1582 25.1683 27.5754C30.5923 22.2338 30.8138 13.6615 25.8575 8.05539ZM9.29626 5.57169C13.9203 0.978461 21.3455 0.759384 26.2353 4.89108L24.3892 6.71508C20.4778 3.54954 14.7203 3.76985 11.0747 7.37477C7.42918 10.9797 7.20641 16.6942 10.4076 20.5415L8.60703 22.3212C4.42733 17.4646 4.6501 10.144 9.29626 5.57169ZM23.7664 26.1908C19.1203 30.784 11.7172 31.0031 6.80518 26.8492L8.6501 25.0252C12.5627 28.1908 18.3203 27.9705 21.9658 24.3655C25.6113 20.7606 25.8341 15.0462 22.6329 11.1988L24.4335 9.41908C28.6341 14.2991 28.4126 21.6185 23.7664 26.1908Z" fill="#28C9C9"/>
</svg>
