<svg width="32" height="32" viewBox="0 0 32 32" fill="none" xmlns="http://www.w3.org/2000/svg">
<path d="M1.24799 21.9425C1.48101 21.9425 1.7526 22.0224 2.06347 22.1768C2.21882 22.2352 2.36984 22.2993 2.51528 22.3664C2.66071 22.4334 2.83048 22.5174 3.02511 22.6143C3.46834 22.7884 3.92034 22.9391 4.37927 23.0661C4.89289 23.2103 5.51969 23.3119 6.25966 23.371C6.33662 23.3925 6.44349 23.3997 6.57955 23.3997C7.23951 23.4397 7.81236 23.3816 8.29811 23.2256C8.78386 23.0695 9.19235 22.8752 9.52359 22.6426C9.85357 22.3903 10.1109 22.1096 10.2947 21.7973C10.4732 21.5044 10.5876 21.177 10.6303 20.8366C10.6309 20.7874 10.6357 20.7382 10.6445 20.6898C10.6533 20.6417 10.6583 20.5931 10.6595 20.5443C10.6595 20.0213 10.5136 19.5357 10.2218 19.0876C9.93112 18.6614 9.51362 18.2733 8.96924 17.9231C8.4263 17.554 7.80029 17.219 7.09119 16.9181C6.38209 16.6171 5.64873 16.3209 4.89109 16.0293C4.17166 15.7572 3.54991 15.4322 3.02584 15.0542C2.50176 14.6763 2.06455 14.2539 1.71421 13.787C1.11625 12.9941 0.791855 12.1349 0.731301 11.207C-0.371631 14.732 -0.223302 18.5298 1.15121 21.958C1.1831 21.9508 1.21543 21.9456 1.24799 21.9425V21.9425Z" fill="#6ED216"/>
<path d="M31.2887 14.2524C31.0205 14.3484 30.7416 14.4116 30.4582 14.4405C30.1829 14.4699 29.9061 14.4847 29.6292 14.4848C29.4923 14.4848 29.3704 14.4803 29.2643 14.4704C29.1581 14.4605 29.0554 14.4562 28.9579 14.4562C28.7624 14.4598 28.5674 14.4789 28.3749 14.5133C28.1424 14.5517 27.8883 14.6395 27.618 14.777C27.3657 14.9123 27.1119 15.1013 26.8611 15.3457C26.6088 15.5859 26.3949 15.921 26.2193 16.3507C26.1033 16.621 26.0099 16.9423 25.9429 17.3113C25.8758 17.6804 25.8405 18.0969 25.8405 18.5643V21.7687C25.8394 22.2261 25.7807 22.6816 25.6657 23.1244C25.5535 23.5706 25.3558 23.9908 25.0834 24.3617C24.8109 24.7311 24.4467 25.0275 23.9907 25.251C23.5348 25.4744 22.9761 25.5861 22.3147 25.586V20.981L22.2862 18.9714C22.2862 17.9994 22.4269 17.0913 22.7083 16.2472C22.9897 15.4032 23.4121 14.6607 23.9756 14.0199C24.5405 13.3955 25.224 12.8896 25.9863 12.5318C26.7638 12.1628 27.6476 11.9785 28.6378 11.9787C29.1121 11.9761 29.5856 12.02 30.0513 12.1097C30.4884 12.1984 30.8721 12.2906 31.2023 12.3864C31.3444 12.4291 31.4811 12.4747 31.6188 12.5203C30.0277 5.3573 23.6427 0 16.0002 0C10.8749 0 6.3166 2.41258 3.38806 6.16011C3.91538 5.85214 4.46775 5.63265 5.04949 5.51138C5.70098 5.37586 6.32597 5.31748 6.92988 5.33676C7.08433 5.33676 7.19138 5.34667 7.24977 5.36523C8.53196 5.4629 9.60558 5.67182 10.4706 5.99198C11.3357 6.31214 12.0302 6.65658 12.5541 7.02527C12.8263 7.20151 13.0496 7.37163 13.2242 7.53561C13.3771 7.67907 13.5227 7.83009 13.6605 7.98811C13.7967 8.14344 13.9128 8.27878 14.0105 8.39573L14.0689 8.51268L14.0105 8.59954C13.8165 8.85183 13.612 9.03636 13.399 9.15331C13.3107 9.22683 13.2054 9.27685 13.0926 9.29873C12.9821 9.3187 12.8699 9.3283 12.7576 9.32739C12.6291 9.32897 12.5013 9.30943 12.3791 9.26954C12.2627 9.2317 12.1268 9.18322 11.9715 9.12412C11.6399 8.96878 11.3106 8.82335 10.9803 8.6873C10.5925 8.53184 10.141 8.37645 9.62594 8.22111C9.11088 8.06577 8.48432 7.95885 7.74627 7.90035C7.70707 7.90068 7.66799 7.89589 7.63003 7.88611C7.59155 7.87674 7.55213 7.87172 7.51253 7.87115C6.65757 7.83259 5.94902 8.00745 5.38686 8.39573C4.80295 8.76515 4.45279 9.25074 4.33637 9.8525C4.2978 10.0471 4.27858 10.183 4.2787 10.2601C4.2787 10.7079 4.3953 11.0863 4.6285 11.3954C4.86152 11.7052 5.20015 11.9984 5.64853 12.2707C6.07457 12.523 6.55515 12.7512 7.09028 12.9554C7.62348 13.1597 8.16215 13.3687 8.70629 13.5826C9.45026 13.8664 10.1714 14.2068 10.8633 14.6009C11.5424 14.9892 12.1445 15.4361 12.6698 15.9416C13.1669 16.437 13.5756 17.0136 13.8785 17.6465C14.1789 18.278 14.31 18.9916 14.272 19.7875V20.0079C14.27 20.0908 14.2604 20.1733 14.2435 20.2544C14.1263 21.2451 13.8394 22.1046 13.3826 22.833C12.9258 23.5614 12.3671 24.1586 11.7066 24.6248C11.0553 25.1075 10.319 25.4634 9.53619 25.6739C8.74996 25.8863 7.97779 25.9838 7.21967 25.9662C7.1438 25.9466 7.06575 25.9365 6.98737 25.9363H6.75309C5.4709 25.8009 4.40281 25.5676 3.54882 25.2364C3.23524 25.1167 2.95157 24.9926 2.68143 24.8686C5.55032 29.1677 10.4436 32 15.9995 32C24.8365 32 32 24.8372 32 16.0007C31.9986 15.3017 31.9522 14.6034 31.861 13.9103C31.6858 14.0485 31.4934 14.1635 31.2887 14.2524V14.2524ZM19.7946 23.1835C19.8038 23.6012 19.8182 24.0184 19.8378 24.435C19.8558 24.8542 19.8857 25.2362 19.9249 25.5867H19.75C19.0901 25.5867 18.5413 25.475 18.1036 25.2517C17.6659 25.0284 17.3115 24.7319 17.0403 24.3624C16.7726 23.9851 16.5798 23.5599 16.4724 23.11C16.3665 22.6707 16.3127 22.2205 16.312 21.7687V15.7962C16.3132 15.3396 16.3671 14.8847 16.4724 14.4405C16.5742 13.9933 16.7676 13.572 17.0405 13.2032C17.3119 12.8342 17.6663 12.5382 18.1038 12.3152C18.5412 12.0922 19.09 11.9801 19.7502 11.9789H19.9249C19.8857 12.328 19.8564 12.7129 19.8378 13.129C19.8192 13.5451 19.8037 13.9617 19.7946 14.3693C19.7854 14.777 19.7794 15.159 19.7794 15.5196V22.0152C19.7794 22.3756 19.7846 22.7636 19.7947 23.1828L19.7946 23.1835ZM19.6918 8.83363C19.5046 9.15612 19.2394 9.42641 18.9205 9.61968C18.6 9.81406 18.2647 9.91125 17.9149 9.91125C17.6233 9.91125 17.322 9.83316 17.0111 9.67698C16.6997 9.50194 16.4621 9.26413 16.2983 8.96355C16.1325 8.66501 16.0467 8.32868 16.0493 7.98721C16.0493 7.63707 16.1379 7.28873 16.3118 6.93805C16.4989 6.61482 16.7648 6.34416 17.0846 6.15128C17.3958 5.95973 17.7542 5.85875 18.1196 5.85971C18.4262 5.8594 18.7275 5.94022 18.9928 6.09398C19.3227 6.26787 19.5659 6.51223 19.7212 6.82182C19.8736 7.11944 19.9538 7.4487 19.9555 7.78303C19.9546 8.13311 19.8666 8.48307 19.6913 8.83291L19.6918 8.83363Z" fill="#6ED216"/>
</svg>
