<?xml version="1.0" encoding="UTF-8" standalone="no"?>
<!DOCTYPE svg PUBLIC "-//W3C//DTD SVG 1.1//EN" "http://www.w3.org/Graphics/SVG/1.1/DTD/svg11.dtd">
<svg width="100%" height="100%" viewBox="0 0 80 80" version="1.1" xmlns="http://www.w3.org/2000/svg" xmlns:xlink="http://www.w3.org/1999/xlink" xml:space="preserve" xmlns:serif="http://www.serif.com/" style="fill-rule:evenodd;clip-rule:evenodd;stroke-linejoin:round;stroke-miterlimit:2;">
    <g transform="matrix(1.39753,0,0,1.39753,14.5874,5.40517)">
        <path d="M11.274,38.663C5.459,36.761 1.315,31.116 0.3,25.207C-2.506,8.878 14.872,-5.848 32.225,2.329C32.429,5.996 30.724,11.214 26.051,12.783C49.244,27.424 29.419,57.422 5.109,47.556C0.675,45.297 3.045,41.161 7.786,43.557C13.082,45.382 19.963,45.382 24.295,42.986C27.091,41.459 29.59,39.37 31.355,36.701C31.849,35.951 32.506,34.825 33.026,33.606C33.393,32.745 34.578,29.172 33.657,28.78C33.427,28.686 33.308,28.959 33.239,29.215C32.651,31.585 31.5,33.64 29.922,35.491C28.063,37.656 25.719,39.311 22.76,40.394C19.298,41.656 15.273,41.818 9.756,40.607C10.114,40.206 10.848,39.115 11.274,38.663M27.279,3.796C27.279,3.796 27.407,4.461 27.432,5.416C27.526,8.128 26.784,9.876 24.866,11.786C24.474,12.178 24.03,12.579 23.544,13.005C30.093,17.081 33.512,25.983 29.709,32.208C24.576,40.598 14.412,38.688 8.852,32.95C3.045,26.93 3.821,19.153 8,13.389C12.306,7.437 20.227,3.591 27.279,3.796" style="fill:rgb(152,173,104);fill-rule:nonzero;"/>
        <path d="M7.539,22.206C8.784,9.756 23.109,7.292 28.43,23.885C32.728,40.939 5.569,37.23 7.539,22.206M19.221,30.4C30.528,30.809 25.113,19.247 17.686,16.689C10.327,14.156 6.234,30.4 19.221,30.4" style="fill-rule:nonzero;"/>
        <path d="M19.221,30.4C30.528,30.809 25.113,19.247 17.686,16.689C10.327,14.156 6.234,30.4 19.221,30.4" style="fill:rgb(215,233,192);fill-rule:nonzero;"/>
    </g>
</svg>
