<svg width="32" height="32" viewBox="0 0 32 32" fill="none" xmlns="http://www.w3.org/2000/svg">
<path d="M28.646 8.4C28.154 9.143 27.685 9.9 27.207 10.646C26.744 11.402 26.272 12.154 25.82 12.915C24.91 14.435 24.024 15.966 23.162 17.508C22.978 17.837 22.799 18.169 22.617 18.499C22.236 17.885 21.855 17.272 21.468 16.663C20.919 15.804 20.368 14.945 19.81 14.093C19.252 13.241 18.688 12.393 18.121 11.543L15.972 8.328L13.894 11.543C13.3413 12.4003 12.7937 13.2603 12.251 14.123C11.711 14.988 11.172 15.853 10.651 16.728C10.13 17.603 9.585 18.47 9.076 19.353L9.047 19.401L8.507 18.694C7.648 17.594 6.782 16.5 5.895 15.418C5.008 14.336 4.104 13.266 3.177 12.211C2.25 11.156 1.303 10.111 0.3 9.105C0.793 10.438 1.341 11.736 1.91 13.02C2.479 14.304 3.071 15.575 3.68 16.834C4.289 18.093 4.92 19.334 5.557 20.579L6.531 22.429C6.857 23.046 7.196 23.653 7.531 24.265L8.972 26.924L11.011 24.29C11.637 23.481 12.237 22.656 12.845 21.836C13.453 21.016 14.045 20.184 14.645 19.356C15.094 18.733 15.535 18.105 15.974 17.475C16.402 18.127 16.8373 18.7763 17.28 19.423C17.8553 20.265 18.436 21.103 19.022 21.937L20.803 24.427L23.291 27.906L24.841 24.134C25.512 22.502 26.176 20.867 26.806 19.216C27.436 17.565 28.05 15.906 28.636 14.235C28.931 13.4 29.208 12.556 29.492 11.717C29.776 10.878 30.042 10.028 30.298 9.174C30.816 7.471 31.316 5.753 31.716 4C30.624 5.435 29.624 6.912 28.646 8.4Z" fill="#665DE4"/>
</svg>
