<svg width="32" height="32" viewBox="0 0 32 32" fill="none" xmlns="http://www.w3.org/2000/svg">
<path d="M31.877 16.5791C31.8155 16.4561 31.8155 16.333 31.7539 16.2715C31.5693 15.9022 31.3232 15.5945 30.9539 15.3484C30.6462 15.1022 30.277 14.8561 29.9078 14.733C29.477 14.5484 29.0462 14.5484 28.6155 14.6715C28.1847 14.7945 27.8155 15.0407 27.5078 15.3484C27.4462 15.4099 27.3847 15.4715 27.3232 15.5945L26.8309 16.2099C26.6462 16.4561 26.4001 16.7638 26.2155 17.0099C26.0924 17.133 25.9693 17.2561 25.9078 17.3791C25.7847 17.5022 25.7232 17.5638 25.6001 17.6253C25.5386 17.6868 25.477 17.6868 25.4155 17.6868H25.3539C25.1693 17.4407 25.0462 17.1945 24.9847 16.8868C24.8616 16.5791 24.8001 16.2099 24.7386 15.9022C24.677 15.5945 24.6155 15.2253 24.5539 14.9176C24.5539 14.7945 24.4924 14.6715 24.4924 14.4868V14.3638C24.4924 14.2407 24.4309 14.1176 24.4309 13.9945C24.4309 13.933 24.4309 13.8715 24.3693 13.8099C24.3078 13.4407 24.1847 13.0715 24.0001 12.7638C23.877 12.3945 23.6924 12.0868 23.4462 11.7791C23.0155 11.1022 22.4001 10.6099 21.7232 10.3022C21.3539 10.1176 20.9847 10.0561 20.6155 9.99453C20.4924 9.87146 20.3078 9.87146 20.1232 9.87146C20.0616 9.87146 20.0001 9.87146 19.877 9.87146C19.5693 9.13299 19.077 8.45607 18.4001 7.96376C17.6616 7.34838 16.7386 6.91761 15.8155 6.79453C15.3232 6.73299 14.8924 6.79453 14.4001 6.85607C13.9078 6.97915 13.477 7.16376 13.1078 7.47146C12.7386 7.77915 12.4309 8.14838 12.1847 8.57915C11.9386 9.00992 11.8155 9.44069 11.6924 9.87146C11.6309 10.0561 11.6309 10.2407 11.5693 10.4253C11.077 10.4253 10.6462 10.4253 10.1539 10.4253C9.90779 10.4253 9.66163 10.4868 9.41548 10.4868H9.23086L8.92317 10.6099H8.73856L8.4924 10.6715L8.24625 10.733C7.63086 10.9176 7.07702 11.1022 6.46163 11.3484C6.33856 11.533 6.03086 11.6561 5.78471 11.7791L5.66163 11.8407L5.35394 11.9638L5.23086 12.0868C5.10779 11.9638 4.98471 11.9022 4.80009 11.8407C4.61548 11.7176 4.30779 11.6561 4.06163 11.5945C3.75394 11.5945 3.44625 11.5945 3.20009 11.7176L3.01548 11.7791H2.8924L2.83086 11.8407L2.64625 11.9638L2.46163 12.1484C2.0924 12.5176 1.84625 13.0099 1.78471 13.5638C1.78471 13.6868 1.72317 13.7484 1.72317 13.8715V13.933V14.2407C1.72317 14.4253 1.66163 14.5484 1.53856 14.6715C1.41548 14.8561 1.2924 14.9791 1.16932 15.1022L0.923171 15.3484L0.861632 15.4099C0.738555 15.4715 0.677017 15.5945 0.615479 15.7176V15.7791V15.9022V15.9638V16.0253V16.1484V16.2715L0.677017 16.3945C0.738555 16.4561 0.738555 16.5176 0.800094 16.5176L0.861632 16.5791L0.984709 16.7022V16.8868C1.10779 16.9484 1.2924 17.0099 1.47702 17.0099C1.60009 17.0099 1.78471 17.0099 1.90779 16.9484C2.21548 16.8868 2.46163 16.7022 2.70779 16.5176C2.64625 17.0715 2.52317 17.6868 2.52317 18.3638C2.46163 19.2868 2.46163 20.2099 2.46163 21.133C2.46163 22.1176 2.52317 23.0407 2.64625 23.9022C2.64625 24.0253 2.70779 24.1484 2.83086 24.2099C3.32317 24.5791 3.87702 24.8253 4.43086 25.0099C5.04625 25.1945 5.60009 25.2561 6.21548 25.2561C6.83086 25.2561 7.38471 25.133 7.93856 24.9484C8.24625 24.8868 8.4924 24.7638 8.73856 24.6407L9.10779 24.4561C9.23086 24.3945 9.35394 24.333 9.53856 24.2099C9.66163 24.0868 9.78471 23.9638 9.72317 23.7791C9.53856 22.9176 9.53856 21.9945 9.72317 21.0715C9.78471 20.7022 9.96932 20.333 10.277 20.0868C10.5847 19.8407 10.9539 19.7176 11.3232 19.7791C11.6924 19.7791 12.0616 19.9022 12.3693 20.1484C12.677 20.4561 12.8616 20.8253 12.9232 21.1945C13.0462 21.6253 13.1078 22.0561 13.1078 22.5484V23.2253C13.1078 23.2253 13.0462 23.7176 13.0462 23.9022C12.9847 24.0868 13.1078 24.2715 13.2924 24.333L14.0924 24.7022H14.1539L14.9539 24.9484L15.6309 25.133H15.7539H15.8155L16.2462 25.1945H16.5539H16.9847C17.5386 25.1945 18.0309 25.133 18.5232 25.0099L18.6462 24.9484C18.7693 24.9484 18.8309 24.8868 18.9539 24.8253L19.2001 24.7022L19.3232 24.6407H19.3847C19.4462 24.5791 19.5078 24.5791 19.5693 24.5176L19.6309 24.4561C19.6924 24.4561 19.7539 24.3945 19.8155 24.333L20.0001 24.2099L20.0616 24.1484L20.1232 24.0868C20.1847 24.0253 20.2462 23.9638 20.2462 23.8407C20.4309 22.7945 20.5539 21.7484 20.5539 20.6407C20.5539 20.1484 20.5539 19.6561 20.5539 19.0407C20.5539 18.9176 20.5539 18.8561 20.5539 18.7945V18.733C20.8001 18.9791 20.9847 19.1638 21.1693 19.3484C21.7232 19.8407 22.3386 20.2715 23.0155 20.5791C23.3847 20.7638 23.7539 20.8868 24.1232 20.9484C24.4924 21.0099 24.9232 21.0099 25.3539 20.9484C25.7847 20.8868 26.1539 20.7022 26.4616 20.3945L26.6462 20.2715L26.7078 20.2099C26.7693 20.1484 26.8309 20.0868 26.8309 20.0868L26.7693 19.9638C26.8924 19.8407 26.9539 19.7176 27.0155 19.5945L27.077 19.4715C27.4462 18.9176 27.877 18.4868 28.3693 18.0561C28.6155 17.8715 28.8616 17.7484 29.1693 17.6868C29.477 17.6253 29.7847 17.5638 30.0924 17.6253H30.5232H31.1386C31.3232 17.6253 31.5078 17.5638 31.6309 17.5022C31.7539 17.4407 31.8155 17.3176 31.877 17.2561C31.9386 17.1945 31.9386 17.0715 31.9386 16.9484C31.9386 16.8253 31.9386 16.7022 31.877 16.5791V16.5791ZM19.5078 17.6253C19.5078 18.1176 19.5693 18.6099 19.5693 19.1638C19.5693 19.7176 19.5693 20.2715 19.5693 20.7022C19.5693 21.6868 19.5078 22.6715 19.3847 23.6561L19.2616 23.7176H19.2001L19.077 23.7791C19.0155 23.8407 18.9539 23.8407 18.8924 23.9022L18.7078 23.9638L18.5847 24.0253C18.5232 24.0868 18.4616 24.0868 18.3386 24.0868L18.2155 24.1484C17.7232 24.2715 17.1693 24.333 16.677 24.333H16.4924H16.2462L15.877 24.2715H15.8155H15.6924L15.1386 24.1484L14.5232 23.9638L14.4001 23.9022L13.9693 23.7176C13.9693 23.5945 13.9693 23.4715 14.0309 23.2868C14.0924 23.1022 14.0309 22.7945 14.0309 22.4868C14.0309 21.9945 13.9693 21.4407 13.8462 20.9484C13.7847 20.7022 13.6616 20.3945 13.5386 20.1484C13.4155 19.9022 13.2309 19.6561 13.0462 19.4715C12.8001 19.2868 12.5539 19.1022 12.2462 18.9791C11.6924 18.7945 11.077 18.7945 10.5232 18.9176C10.2155 18.9791 9.96933 19.1638 9.72317 19.3484C9.47702 19.533 9.2924 19.7791 9.16932 20.0253C9.04625 20.2715 8.92317 20.5176 8.86163 20.8253C8.73856 21.3176 8.67702 21.8715 8.67702 22.3638C8.67702 22.6099 8.67702 22.8561 8.73856 23.1638C8.80009 23.4715 8.73856 23.4715 8.80009 23.5945L8.73856 23.6561L8.36933 23.8407C8.12317 23.9638 7.87702 24.0253 7.63086 24.0868C7.13856 24.2099 6.58471 24.333 6.0924 24.333C5.60009 24.333 5.10779 24.2715 4.61548 24.1484C4.24625 24.0253 3.81548 23.9022 3.50779 23.6561C3.32317 21.933 3.32317 20.2099 3.44625 18.4868C3.50779 17.6253 3.63086 16.7022 3.81548 15.8407L4.00009 15.2253C4.06163 15.1022 4.06163 14.9791 4.12317 14.8561L4.18471 14.6715C4.18471 14.6715 4.18471 14.6715 4.18471 14.6099C4.24625 14.4868 4.30779 14.3638 4.36932 14.1791V14.0561C4.36932 14.0561 4.36932 14.0561 4.36932 13.9945C4.43086 13.8715 4.30779 13.6253 4.12317 13.5638C3.93856 13.5022 3.93856 13.4407 3.87702 13.5022C3.75394 13.5022 3.56932 13.6253 3.50779 13.7484L3.38471 13.9945L3.26163 14.1791L3.13856 14.3638C2.95394 14.733 2.70779 15.1022 2.46163 15.4715C2.33856 15.5945 2.21548 15.7791 2.03086 15.9022C2.03086 16.0253 1.84625 16.0868 1.72317 16.1484C1.60009 16.2099 1.47702 16.2099 1.35394 16.1484L1.60009 15.9022C1.78471 15.7176 1.96932 15.533 2.0924 15.3484C2.27702 15.1022 2.40009 14.7945 2.46163 14.5484V14.1791V14.1176C2.52317 13.9945 2.52317 13.8715 2.58471 13.8099C2.64625 13.4407 2.83086 13.0715 3.07702 12.8253L3.13856 12.7022L3.26163 12.6407H3.32317L3.50779 12.5176C3.6924 12.4561 3.81548 12.4561 4.00009 12.4561C4.36932 12.5176 4.67702 12.7022 4.92317 12.9484C5.10779 13.0715 5.2924 13.0715 5.47702 12.9484C5.60009 12.8868 5.72317 12.8253 5.78471 12.7638C5.84625 12.7022 5.96932 12.6407 6.03086 12.6407L6.15394 12.5791C6.46163 12.4561 6.70779 12.333 6.95394 12.2099C7.44625 11.9638 8.00009 11.8407 8.55394 11.6561L8.73856 11.5945H8.92317H9.04625L9.2924 11.533H9.47702C9.72317 11.533 9.90779 11.4715 10.1539 11.4715C10.5847 11.4099 11.077 11.4099 11.5078 11.4715C11.5693 11.9022 11.6924 12.333 11.8155 12.7022C12.0001 13.133 12.1847 13.5022 12.3693 13.8715C12.5539 14.2407 12.8001 14.6099 13.1078 14.9176C14.1539 16.2099 15.3232 17.3791 16.677 18.3022C16.8001 18.4253 16.9232 18.4253 17.0462 18.3022C17.1078 18.2407 17.1078 18.1791 17.1078 18.1176C17.1078 18.0561 17.0462 17.9945 16.9847 17.933C16.3693 17.3791 15.8155 16.8253 15.2616 16.2099C14.7078 15.5945 14.1539 14.9791 13.7232 14.3022C13.2924 13.6253 12.9232 12.9484 12.677 12.2099C12.5539 11.8407 12.4924 11.4715 12.4309 11.1022V10.6715C12.4309 10.4868 12.4924 10.3022 12.5539 10.1176C12.677 9.44069 13.0462 8.76376 13.6001 8.33299C14.1539 7.90223 14.8924 7.71761 15.6309 7.84069C16.3693 7.90223 17.0462 8.14838 17.6616 8.64069C18.277 9.07146 18.7078 9.68684 19.0155 10.3638C19.077 10.5484 19.2616 10.6715 19.5078 10.6099H19.6924H19.9386C20.1232 10.6099 20.2462 10.6099 20.4309 10.6715C20.7386 10.733 21.0462 10.7945 21.2924 10.9176C21.8462 11.1638 22.3386 11.5945 22.6462 12.0868C22.8309 12.333 22.9539 12.6407 23.077 12.9484C23.2001 13.2561 23.3232 13.5638 23.3847 13.8715V14.0561C23.3847 14.0561 23.4462 14.2407 23.4462 14.3638V14.4868C23.4462 14.6099 23.5078 14.733 23.5078 14.8561C23.5693 15.2253 23.6309 15.533 23.6924 15.9022C23.7539 16.2715 23.877 16.5791 23.9386 16.9484C24.0616 17.3176 24.2462 17.6868 24.4309 18.0561C24.4924 18.1791 24.6155 18.2407 24.7386 18.3022C24.8001 18.3638 24.8616 18.3638 24.9232 18.3638H24.9847C25.0462 18.3638 25.1078 18.4253 25.2309 18.4253C25.3539 18.4253 25.5386 18.4253 25.6616 18.3638C25.7232 18.3638 25.8462 18.3638 25.9078 18.3022L26.0309 18.2407C26.2155 18.1176 26.3386 17.9945 26.5232 17.8715C26.6462 17.7484 26.7693 17.6253 26.8924 17.4407C27.1386 17.1945 27.3232 16.9484 27.5693 16.6407L28.0616 16.0253L28.1847 15.8407C28.5539 15.4099 29.1078 15.2868 29.6001 15.4715C30.1539 15.7176 30.5847 16.0868 30.8924 16.5791C30.8924 16.6407 30.9539 16.7022 30.9539 16.7022H30.5232H30.0309C29.6616 16.7022 29.2309 16.7638 28.8616 16.8253C28.4924 16.9484 28.1232 17.133 27.8155 17.3176C27.2001 17.7484 26.7078 18.3022 26.277 18.9176L26.2155 18.9791C26.1539 19.1022 26.0924 19.1638 25.9693 19.2868L25.9078 19.3484L25.8462 19.4715V19.6561C25.7847 19.6561 25.7847 19.7176 25.7232 19.7176C25.5386 19.9022 25.2309 20.0253 24.9847 20.0868C24.3693 20.2099 23.7539 20.0868 23.2616 19.7791C22.6462 19.4715 22.1539 19.1022 21.6616 18.6715C21.1693 18.2407 20.677 17.7484 20.3078 17.2561C20.2462 17.133 20.0616 17.0715 19.9386 17.0715C19.6924 17.1945 19.5078 17.3791 19.5078 17.6253V17.6253Z" fill="#48474C"/>
<path d="M21.1078 13.5637C21.4137 13.5637 21.6616 13.3158 21.6616 13.0099C21.6616 12.704 21.4137 12.4561 21.1078 12.4561C20.8019 12.4561 20.554 12.704 20.554 13.0099C20.554 13.3158 20.8019 13.5637 21.1078 13.5637Z" fill="#48474C"/>
</svg>
