<svg width="32" height="32" viewBox="0 0 32 32" fill="none" xmlns="http://www.w3.org/2000/svg">
<path fill-rule="evenodd" clip-rule="evenodd" d="M15.25 23.3433C16.5027 23.1817 17.7117 22.802 18.8076 22.1921C21.5144 20.686 23.078 18.0971 23.2103 14.9018L23.2219 14.6252H26.9681C26.732 12.7305 26.0138 10.9838 24.9419 9.50977L21.1094 11.9695C22.2753 13.7972 22.4256 15.823 21.5404 17.8465C20.4917 20.2433 18.0197 22.3437 15.25 23.3433Z" fill="#EE3524"/>
<path fill-rule="evenodd" clip-rule="evenodd" d="M27.0246 15.2021H23.7714C23.5524 18.435 21.8564 21.1556 19.088 22.6961C17.508 23.5752 15.7096 24.0127 13.8733 24.0127C12.4504 24.0127 11.0046 23.749 9.61963 23.2261C11.2844 24.2648 13.1551 24.833 15.0929 24.8388H15.1224C18.6219 24.8388 21.7633 22.9877 23.5302 19.8827L23.6799 19.62L25.8567 20.9998C26.6221 19.4973 27.0564 17.7991 27.0564 16.0003C27.0564 15.7315 27.0435 15.4662 27.0246 15.2021Z" fill="#EE3524"/>
<path fill-rule="evenodd" clip-rule="evenodd" d="M15.1231 25.4154H15.0919C11.6053 25.4051 8.32933 23.6789 5.99805 20.7075C7.76947 24.4563 11.5863 27.057 16.0003 27.057C20.0924 27.057 23.6696 24.8208 25.5814 21.5076L23.8793 20.4287C21.9829 23.5585 18.7334 25.4154 15.1231 25.4154Z" fill="#EE3524"/>
<path fill-rule="evenodd" clip-rule="evenodd" d="M16 0C7.16343 0 0 7.16343 0 16C0 24.8366 7.16343 32 16 32C24.8366 32 32 24.8366 32 16C32 7.16343 24.8366 0 16 0ZM16 27.6339C9.57469 27.6339 4.36609 22.4253 4.36609 16C4.36609 9.57501 9.57469 4.36641 16 4.36641C22.4253 4.36641 27.6339 9.57501 27.6339 16C27.6339 22.4253 22.4253 27.6339 16 27.6339Z" fill="#EE3524"/>
</svg>
