<svg width="32" height="32" viewBox="0 0 32 32" fill="none" xmlns="http://www.w3.org/2000/svg">
<rect width="32" height="32" fill="#4DA6B3"/>
<path d="M17.9055 21.5489C18.5131 21.5859 19.1212 21.4865 19.6853 21.2579C19.8666 21.1658 20.0165 21.0221 20.116 20.8448C20.2155 20.6676 20.2603 20.4648 20.2446 20.2621C20.244 20.0461 20.1892 19.8338 20.085 19.6446C19.9809 19.4554 19.8309 19.2954 19.6488 19.1794C19.032 18.7891 18.3698 18.4756 17.677 18.2461C17.1521 18.0609 16.6378 17.847 16.1364 17.6053C15.6995 17.3981 15.2933 17.1315 14.9295 16.8129C14.5876 16.5085 14.3144 16.1348 14.128 15.7166C13.919 15.2191 13.819 14.6826 13.8347 14.1432C13.813 13.5931 13.9243 13.0459 14.1592 12.5479C14.3941 12.05 14.7456 11.6161 15.184 11.283C16.254 10.5351 17.5437 10.1674 18.8472 10.2385C19.5986 10.2364 20.3483 10.3078 21.0857 10.4518C21.6286 10.5508 22.1634 10.6898 22.6857 10.8678L22.1257 13.3364C21.7075 13.1591 21.2739 13.0204 20.8305 12.9219C20.2305 12.7874 19.6168 12.7238 19.0019 12.7322C18.476 12.7114 17.953 12.8192 17.4781 13.0461C17.2969 13.1331 17.145 13.2712 17.0412 13.4434C16.9373 13.6155 16.8861 13.8143 16.8937 14.0152C16.8892 14.215 16.9282 14.4134 17.008 14.5966C17.0984 14.7822 17.2345 14.9419 17.4034 15.0606C17.6331 15.229 17.8801 15.3725 18.1402 15.4887C18.5052 15.6555 18.8785 15.8032 19.2587 15.9314C19.893 16.1583 20.5132 16.4226 21.1162 16.723C21.5764 16.9523 21.999 17.2503 22.3695 17.6068C22.6923 17.9219 22.9406 18.3051 23.0964 18.7284C23.2594 19.215 23.3368 19.7262 23.325 20.2392C23.3555 20.7971 23.2416 21.3535 22.9941 21.8544C22.7466 22.3554 22.374 22.7839 21.9124 23.0987C20.6949 23.8169 19.2906 24.1549 17.8796 24.0693C16.9301 24.0936 15.9814 23.9958 15.0568 23.7783C14.5489 23.65 14.0482 23.4952 13.5566 23.3143L14.0899 20.7695C14.6252 20.9798 15.173 21.1564 15.7303 21.2983C16.4418 21.4753 17.1731 21.5603 17.9063 21.5512" fill="white"/>
<path d="M28.0815 6.71543C28.0947 6.45744 28.0513 6.19969 27.9543 5.96027C27.8573 5.72085 27.7091 5.50556 27.52 5.32953C27.1596 4.99903 26.6863 4.81909 26.1973 4.82667C25.7003 4.81613 25.2181 4.99603 24.8495 5.32953C24.6833 5.48177 24.5507 5.66706 24.4602 5.87353V5.94362V5.87353C24.3437 6.13868 24.2857 6.42585 24.2903 6.71543C24.2784 6.96911 24.3224 7.22229 24.419 7.45714C24.5156 7.69199 24.6626 7.90279 24.8495 8.07467C25.2176 8.40947 25.6999 8.59052 26.1973 8.58057C26.6867 8.58756 27.1602 8.40648 27.52 8.07467C27.7075 7.90309 27.855 7.69241 27.952 7.45753C28.049 7.22264 28.0932 6.9693 28.0815 6.71543" fill="white"/>
<path d="M27.7485 10.5684H24.6712V23.7402H27.7485V10.5684Z" fill="white"/>
<path d="M8.96609 7.21292C8.84188 7.08987 8.74328 6.94343 8.676 6.78205C8.60871 6.62068 8.57406 6.44757 8.57406 6.27273C8.57406 6.09789 8.60871 5.92478 8.676 5.7634C8.74328 5.60203 8.84188 5.45559 8.96609 5.33254C9.21939 5.08304 9.56065 4.9432 9.91619 4.9432C10.2717 4.9432 10.613 5.08304 10.8663 5.33254C10.991 5.45527 11.0901 5.60161 11.1578 5.76303C11.2254 5.92445 11.2602 6.09772 11.2602 6.27273C11.2602 6.44775 11.2254 6.62101 11.1578 6.78243C11.0901 6.94384 10.991 7.09018 10.8663 7.21292C10.6094 7.45492 10.2699 7.58969 9.91695 7.58969C9.56405 7.58969 9.22447 7.45492 8.96762 7.21292M11.6922 4.50892C11.2175 4.04255 10.5784 3.78162 9.91297 3.78247C9.24751 3.78333 8.6091 4.0459 8.13562 4.51349C7.90249 4.7437 7.71747 5.01798 7.59133 5.32036C7.4652 5.62274 7.40046 5.94719 7.40088 6.27483C7.40131 6.60247 7.46689 6.92675 7.59381 7.2288C7.72074 7.53085 7.90646 7.80465 8.14019 8.03425C8.61465 8.50075 9.25364 8.7618 9.91903 8.76094C10.5844 8.76009 11.2227 8.4974 11.696 8.02968C11.9292 7.79967 12.1144 7.5256 12.2409 7.22339C12.3673 6.92119 12.4324 6.59688 12.4324 6.2693C12.4324 5.94172 12.3673 5.61741 12.2409 5.31521C12.1144 5.013 11.9292 4.73893 11.696 4.50892" fill="white"/>
<path d="M19.7745 30.7398C19.0423 30.7429 18.3386 30.4567 17.8164 29.9436L5.92074 18.352C5.07575 17.4554 4.59474 16.2764 4.57141 15.0446L4.83503 3.92076C4.86598 3.19689 5.16722 2.51094 5.67925 1.99834C6.19129 1.48574 6.87691 1.18375 7.60074 1.15199L18.9531 0.761902C20.1535 0.797618 21.3022 1.25854 22.1943 2.06247L24.6499 4.45104C24.4977 4.55175 24.3546 4.66572 24.2225 4.79161C24.0816 4.9408 23.9598 5.10689 23.8598 5.28609L21.3684 2.88381C20.6982 2.29542 19.8465 1.95468 18.9554 1.91847H18.8861L7.64113 2.30628C7.21278 2.32463 6.80694 2.50317 6.50399 2.80654C6.20104 3.10992 6.02307 3.51601 6.00532 3.94438L5.73941 15.0682C5.77242 15.9799 6.12677 16.8505 6.73979 17.5261L18.6392 29.12C18.9498 29.41 19.3593 29.5703 19.7842 29.5684C20.2091 29.5664 20.6171 29.4022 20.9249 29.1093L25.3097 24.7718L26.9303 24.7672L21.7577 29.9238C21.4981 30.1845 21.1893 30.391 20.8493 30.5313C20.5092 30.6717 20.1446 30.7431 19.7767 30.7413" fill="white"/>
</svg>
