<svg xmlns="http://www.w3.org/2000/svg" viewBox="0 0 71.1 71.1"><defs><style>.cls-1{fill:#111428}</style></defs><g id="Layer_2" data-name="Layer 2"><g id="Layer_1-2" data-name="Layer 1"><path d="M18 51.73C18 44.11 1.33 43.49.09 33.11 0 33.92 0 34.73 0 35.55a35.38 35.38 0 0 0 6 19.74 9.73 9.73 0 0 0 5.33 1.62C15 56.91 18 55 18 51.73z" class="cls-1"/><path d="M67.06 52a35.59 35.59 0 0 0 1.18-30.45l-11.53 11c.94-5.32-2.16-9.64-7.84-11.08h19.35A35.55 35.55 0 0 0 .85 27.85c1.74-3.9 6.11-6.34 12-6.34h11.62v8.2c-4-5.68-7.26-7.62-11.08-7.62-3.38 0-5.54 1.65-5.54 4.38 0 9 19.5 7.05 19.5 20.65 0 6.62-4.6 10.36-13.24 10.36H7.58a35.53 35.53 0 0 0 55.94 0h-5.08l-10.94-15 7.27-7zm-23 5.47H33.84V14.24l10-11.59c.13-.15.24-.11.24.09z" class="cls-1"/></g></g></svg>