<svg width="260" height="260" viewBox="0 0 260 260" fill="none" xmlns="http://www.w3.org/2000/svg">
<path d="M111 1.99999C72.6 10.1 47.4 40.6 46.6 79.9C46.2 96.5 50.9 111.9 60.6 126.5C64 131.7 74 142.6 78.5 146C83.9 150.1 94 157 98.3 159.5L103.2 162.3L114.6 150.9C120.9 144.7 126 139.3 126 139C126 138.7 122.6 136.7 118.4 134.6C92.3 121.2 76.4 98.6 77.4 76.1C78.2 58 88.1 42.2 103.2 34.8C112 30.5 119 29.1 131.3 29.4C140.9 29.6 143.4 30 149 32.3C163.8 38.5 178 51.6 188.1 68.4C190 71.4 191.7 74 192 74C192.3 74 197.4 69.1 203.3 63.2L214.1 52.4L206.6 42.4C190.5 20.8 171.8 6.99999 152 2.29999C142.2 -6.9961e-06 121.4 -0.200007 111 1.99999Z" fill="#1B419A"/>
<path d="M140.4 91C134.4 97.1 129.4 102.4 129.3 102.8C129.1 103.2 131.6 104.6 134.8 105.9C143.8 109.7 155.7 116.8 163.5 123.1C176.9 133.7 185.3 145.7 189 159.1C196.3 186.3 185.1 211.3 160.5 222.5C133.3 234.8 105.3 229.3 82.3 206.9C75 199.8 65.7 185.5 62.1 175.7C61.5 174.2 60.5 173 59.9 173C58.7 173 38 194 38 195.3C38 197.1 46.2 212 50.3 217.6C54.5 223.3 68.7 238 70.1 238C70.4 238 72 239.2 73.6 240.6C78.5 244.9 99.8 254.7 109.5 257.1C140 264.6 178 254.2 199.5 232.4C220.7 211 228.6 179.5 219.8 151.2C216.1 139.1 207.4 123.5 199.7 115.2C187.9 102.5 175.4 93 158.9 84.1L151.3 80L140.4 91Z" fill="#1B419A"/>
</svg>
