<svg width="32" height="32" viewBox="0 0 32 32" fill="none" xmlns="http://www.w3.org/2000/svg">
<path d="M31.7565 16.8733C31.7565 16.404 31.8312 15.9346 31.8312 15.4546C31.8413 12.5263 30.9903 9.65963 29.3839 7.2112C27.7775 4.76277 25.4867 2.84066 22.7965 1.68398V1.68398L22.2845 1.47064C21.6043 1.15661 20.855 1.02211 20.1081 1.08C19.3612 1.13789 18.6415 1.38623 18.0178 1.80131C17.7667 1.95131 17.5524 2.15585 17.3909 2.39982C17.2294 2.64378 17.1249 2.92092 17.0849 3.21074C17.045 3.50057 17.0707 3.79566 17.1602 4.07421C17.2497 4.35276 17.4006 4.60763 17.6018 4.81998C18.1371 5.33224 18.7677 5.7345 19.4578 6.00398C22.4018 7.32664 31.1912 11.0706 31.7139 16.8306L31.7565 16.8733Z" fill="#00AAC6"/>
<path d="M26.7085 25.8138C25.6428 27.3066 24.2049 28.4944 22.5378 29.2592C20.6032 30.2012 18.4879 30.714 16.3367 30.7626C14.1854 30.8111 12.0491 30.3941 10.074 29.5402C8.09892 28.6863 6.33168 27.4157 4.89331 25.8153C3.45494 24.2149 2.37941 22.3226 1.74038 20.2679C1.10135 18.2132 0.913906 16.0447 1.19088 13.9108C1.46786 11.7769 2.20272 9.72811 3.34513 7.90464C4.48755 6.08118 6.01055 4.52614 7.80983 3.346C9.60911 2.16586 11.6422 1.38851 13.7698 1.06716C13.8032 1.06517 13.8363 1.07446 13.8638 1.09353C13.8913 1.11259 13.9116 1.14034 13.9214 1.17231C13.9313 1.20428 13.9301 1.23863 13.9181 1.26985C13.906 1.30108 13.8839 1.32736 13.8552 1.34449C11.4552 2.58182 6.1965 6.96582 18.3245 12.5338C29.6738 17.8672 28.7778 22.8485 26.7085 25.8138Z" fill="#00AAC6"/>
</svg>
