<svg width="32" height="32" viewBox="0 0 32 32" fill="none" xmlns="http://www.w3.org/2000/svg">
<path d="M19.082 10.2856C19.082 11.1128 18.9346 15.4731 15.9206 18.5105C12.9066 15.4731 12.7593 11.1128 12.7593 10.2856C11.6928 10.5091 10.6431 10.8068 9.61804 11.1764C11.1049 17.2815 15.569 19.8835 15.9173 20.0845C16.2522 19.8869 20.7296 17.2815 22.2165 11.1764C21.1936 10.8071 20.1462 10.5094 19.082 10.2856Z" fill="#1976D2"/>
<path d="M27.0757 13.7014C24.9561 16.5723 22.1232 18.8396 18.8576 20.2786C21.4262 18.785 24.9525 16.2968 26.3959 13.246C25.3207 12.5438 24.1801 11.9472 22.9901 11.4644C22.6552 12.3953 20.532 18.1085 15.9139 20.0777C11.2958 18.1085 9.15925 12.3953 8.83775 11.4644C7.65084 11.9411 6.51256 12.531 5.43865 13.2259C6.87867 16.2867 10.405 18.775 12.977 20.2585C9.7126 18.819 6.88087 16.5517 4.76218 13.6813C3.2877 14.7198 2.01924 16.0235 1.02148 17.5258C6.37969 21.6617 15.3949 21.7822 15.9139 21.7856C16.433 21.7889 25.4415 21.6617 30.8064 17.5258C29.8097 16.0315 28.5448 14.7349 27.0757 13.7014V13.7014Z" fill="#444444"/>
<path d="M31.2919 18.3496C26.4963 21.4339 16.4631 21.7889 15.9206 21.8056C15.378 21.8224 5.34481 21.4306 0.549216 18.3496C0.343143 18.7303 0.15975 19.1228 0 19.5251C0.766891 19.86 6.58389 22.1338 15.9206 21.809C25.2572 22.1439 31.0742 19.8466 31.8411 19.5251C31.6813 19.1228 31.4979 18.7303 31.2919 18.3496V18.3496Z" fill="#8C8C8C"/>
</svg>
