<svg width="32" height="32" viewBox="0 0 32 32" fill="none" xmlns="http://www.w3.org/2000/svg">
<path d="M0 3C0 1.34315 1.34315 0 3 0H29C30.6568 0 32 1.34315 32 3V29C32 30.6568 30.6568 32 29 32H3C1.34315 32 0 30.6568 0 29V3Z" fill="#5457FF"/>
<path fill-rule="evenodd" clip-rule="evenodd" d="M12 8C7.5817 8 4 11.5817 4 16C4 20.4183 7.5817 24 12 24H27C27.5523 24 28 23.5523 28 23V16C28 11.5817 24.4183 8 20 8H12ZM20 10H12C8.6863 10 6 12.6863 6 16C6 19.3137 8.6863 22 12 22H20C23.3137 22 26 19.3137 26 16C26 12.6863 23.3137 10 20 10ZM17.5 15C18.1903 15 18.75 14.4403 18.75 13.75C18.75 13.0597 18.1903 12.5 17.5 12.5C16.8097 12.5 16.25 13.0597 16.25 13.75C16.25 13.7972 16.2526 13.8437 16.2577 13.8895L14.3426 14.9944C14.135 14.8408 13.8781 14.75 13.6 14.75C12.9097 14.75 12.35 15.3097 12.35 16C12.35 16.6903 12.9097 17.25 13.6 17.25C13.8781 17.25 14.135 17.1592 14.3426 17.0056L16.2577 18.1105C16.2526 18.1563 16.25 18.2028 16.25 18.25C16.25 18.9403 16.8097 19.5 17.5 19.5C18.1903 19.5 18.75 18.9403 18.75 18.25C18.75 17.5597 18.1903 17 17.5 17C17.2219 17 16.9651 17.0908 16.7575 17.2444L14.8423 16.1395C14.8474 16.0937 14.85 16.0472 14.85 16C14.85 15.9528 14.8474 15.9063 14.8423 15.8605L16.7575 14.7556C16.9651 14.9092 17.2219 15 17.5 15Z" fill="white"/>
</svg>
