<svg width="32" height="32" viewBox="0 0 32 32" fill="none" xmlns="http://www.w3.org/2000/svg">
<rect width="32" height="32" fill="#B33F2D"/>
<path d="M26.72 9.5554C26.72 9.3154 26.72 9.1154 26.72 8.8754C26.72 8.6354 26.68 8.5554 26.4 8.6354C26.12 8.7154 25.84 8.7954 25.56 8.8754C25.4 8.9154 25.2 8.9154 25.2 9.1554C25.2 9.6754 25.2 10.1954 25.2 10.7554C25.2 10.8354 25.24 10.8754 25.36 10.8754C25.44 10.8754 25.56 10.8354 25.64 10.8354C25.92 10.7554 26.2 10.6754 26.48 10.5954C26.68 10.5554 26.72 10.4354 26.72 10.2354C26.72 9.9954 26.72 9.7554 26.72 9.5554ZM25.24 14.5954C25.44 14.5554 25.64 14.5154 25.84 14.4754C26.08 14.4354 26.32 14.3554 26.56 14.2754C26.64 14.2354 26.72 14.1154 26.72 13.9954C26.76 13.8754 26.72 13.7154 26.72 13.5954C26.72 13.3554 26.8 13.2354 27.04 13.1554C27.4 13.0354 27.76 12.9554 28.12 12.8754C28.28 12.8354 28.36 12.9154 28.36 13.0754C28.36 13.5154 28.36 13.9954 28.32 14.4354C28.24 15.0354 27.84 15.4354 27.28 15.6754C26.32 16.0354 25.32 16.4354 24.36 16.8354C23.72 17.0754 23.12 17.3154 22.48 17.5954C21.84 17.8354 21.16 18.1154 20.52 18.3554C19.64 18.7154 18.72 19.0754 17.84 19.4354C17.2 19.6754 16.56 19.9554 15.92 20.1954C15.04 20.5554 14.16 20.9154 13.24 21.2354C12.6 21.5154 11.96 21.7554 11.32 22.0354C10.44 22.3954 9.52001 22.7154 8.64001 23.0754C7.96001 23.3554 7.24001 23.6354 6.56001 23.9154C5.72001 24.2754 4.88001 24.5954 4.04001 24.9154C4.00001 24.9154 4.00001 24.9554 3.96001 24.9554C3.72001 25.0354 3.60001 24.9954 3.60001 24.7154C3.60001 23.4354 3.60001 22.1154 3.60001 20.8354C3.60001 20.5554 3.68001 20.4754 3.92001 20.3954C4.52001 20.2354 5.12001 20.0754 5.72001 19.9154C5.96001 19.8354 6.24001 19.7954 6.48001 19.7154C6.68001 19.6754 6.76001 19.5554 6.76001 19.3554C6.76001 19.0354 6.76001 18.7154 6.76001 18.3554C6.76001 18.2354 6.72001 18.1554 6.60001 18.1554C5.92001 17.9954 5.24001 17.8754 4.56001 17.7154C4.08001 17.5954 3.80001 17.2354 3.68001 16.7554C3.64001 16.5954 3.60001 16.4354 3.60001 16.2354C3.60001 15.6354 3.60001 15.0754 3.60001 14.4754C3.60001 13.7954 4.04001 13.1154 4.72001 12.9154C5.12001 12.7554 5.52001 12.6754 5.92001 12.5954C6.32001 12.4754 6.72001 12.3554 7.12001 12.2354C7.84001 12.0754 8.36001 12.3954 8.40001 13.1554C8.40001 13.5554 8.40001 13.9554 8.40001 14.3554C8.40001 14.7554 8.32001 14.8354 7.96001 14.9554C7.64001 15.0354 7.36001 15.1154 7.04001 15.1954C6.88001 15.2354 6.76001 15.1154 6.76001 14.9554C6.76001 14.7154 6.76001 14.4754 6.76001 14.1954C6.76001 14.0754 6.68001 13.9954 6.52001 14.0354C6.24001 14.0754 5.96001 14.1554 5.68001 14.2354C5.68001 14.2354 5.64001 14.2354 5.64001 14.2754C5.20001 14.3954 5.20001 14.4354 5.20001 14.8754C5.20001 15.1554 5.20001 15.4354 5.20001 15.7554C5.20001 15.9554 5.24001 15.9954 5.44001 16.0354C6.00001 16.1554 6.56001 16.2754 7.08001 16.3954C7.32001 16.4354 7.52001 16.4754 7.72001 16.5954C8.20001 16.8354 8.36001 17.2754 8.40001 17.7954C8.40001 18.3554 8.40001 18.9154 8.40001 19.5154C8.40001 19.6354 8.36001 19.7554 8.32001 19.9154C8.44001 19.8754 8.56001 19.8754 8.64001 19.8354C9.00001 19.7554 9.32001 19.6354 9.68001 19.5554C9.72001 19.5154 9.76001 19.4754 9.76001 19.3954C9.80001 19.3954 9.76001 19.3554 9.76001 19.3154C9.76001 16.8354 9.76001 14.3954 9.76001 11.9154C9.76001 11.6354 9.80001 11.5154 10.12 11.4354C10.44 11.3554 10.72 11.2754 11.04 11.1954C11.28 11.1154 11.36 11.1954 11.36 11.4754C11.36 13.7154 11.36 15.9554 11.36 18.1954V18.3954C11.56 18.3554 11.76 18.2754 11.96 18.2354C12.28 18.1554 12.64 18.0354 12.96 17.9554C13.16 17.9154 13.28 17.9954 13.28 18.1954C13.28 18.3154 13.28 18.4354 13.28 18.5554C13.52 18.5154 13.68 18.4754 13.88 18.3954H13.92C14 18.3554 14.16 18.3554 14.2 18.2754C14.24 18.1954 14.2 18.0354 14.2 17.9154C14.2 16.4754 14.2 14.9954 14.2 13.5554C14.2 13.2754 14.32 13.1554 14.6 13.0754C14.88 12.9954 15.16 12.9154 15.48 12.8354C15.72 12.7554 15.84 12.8354 15.84 13.1154C15.84 14.6354 15.84 16.1554 15.84 17.6754C15.84 17.7154 15.84 17.7954 15.84 17.8754C16.08 17.8354 16.32 17.7554 16.56 17.7154C16.76 17.6354 16.96 17.5554 17.16 17.5154C17.32 17.5154 17.36 17.4354 17.36 17.2754C17.36 15.1554 17.36 13.0354 17.36 10.8754C17.36 10.5154 17.44 10.1554 17.64 9.8354C17.88 9.4754 18.2 9.2354 18.6 9.1554C19 9.0354 19.44 8.9154 19.84 8.7954C20.16 8.7154 20.48 8.6354 20.84 8.5554C20.96 8.5154 21.12 8.5154 21.28 8.4754C21.76 8.4354 22.12 8.9154 22.12 9.2754C22.16 9.9554 22.16 10.6354 22.16 11.3554C22.16 11.5154 22 11.6354 21.76 11.7154C21.48 11.7954 21.16 11.8754 20.88 11.9554C20.64 11.9954 20.52 11.9554 20.52 11.6754C20.52 11.3554 20.52 10.9954 20.52 10.6754C20.52 10.5554 20.52 10.4354 20.52 10.2754C20.28 10.3154 20.08 10.3554 19.88 10.3954C19.68 10.4354 19.48 10.5154 19.32 10.5554C19.08 10.5954 18.96 10.7154 18.96 10.9554C18.96 12.6754 18.96 14.3554 18.96 16.0354C18.96 16.2754 19.04 16.3154 19.24 16.2754C19.6 16.1554 19.92 16.0754 20.24 15.9954C20.4 15.9554 20.52 15.8754 20.52 15.7154C20.52 15.5954 20.52 15.4354 20.52 15.3154C20.56 14.9554 20.6 14.8754 20.96 14.7954C21.24 14.7154 21.52 14.6354 21.8 14.5554C22.04 14.5154 22.16 14.5554 22.16 14.8354C22.16 15.1954 22.16 15.5954 22.16 15.9554C22.16 16.0354 22.16 16.1154 22.16 16.1954C22.48 16.0754 22.8 15.9954 23.12 15.9154C23.24 15.8754 23.32 15.8354 23.44 15.8354C23.56 15.8354 23.56 15.7554 23.56 15.6754C23.56 15.5954 23.6 15.5554 23.6 15.5154C23.6 13.3554 23.56 11.1954 23.6 9.0354C23.6 8.3554 23.96 7.8354 24.56 7.5554C24.92 7.3954 25.36 7.3154 25.72 7.2354C26.24 7.0754 26.72 6.9554 27.2 6.8354C27.8 6.6754 28.36 7.0754 28.36 7.6754C28.36 8.6354 28.36 9.5954 28.36 10.5554C28.32 11.1954 27.8 11.8754 27.12 12.0354C26.6 12.1554 26.12 12.3154 25.64 12.4354C25.6 12.4354 25.56 12.4354 25.48 12.4754C25.36 12.5154 25.2 12.5554 25.2 12.7554C25.2 13.3154 25.2 13.8754 25.2 14.4354C25.2 14.4754 25.2 14.5154 25.24 14.5954ZM15.84 10.7154C15.84 10.8754 15.84 11.0354 15.84 11.1954C15.84 11.3954 15.76 11.5154 15.56 11.5554C15.24 11.6754 14.92 11.7554 14.6 11.8354C14.32 11.9154 14.2 11.8354 14.2 11.5154C14.2 11.2754 14.24 11.0354 14.2 10.7954C14.2 10.3154 14.36 10.3154 14.72 10.1954C15 10.1154 15.24 10.0354 15.52 9.9554C15.68 9.9154 15.84 10.0354 15.84 10.1954C15.84 10.3554 15.84 10.5554 15.84 10.7154Z" fill="white"/>
</svg>
