<svg width="32" height="32" viewBox="0 0 32 32" fill="none" xmlns="http://www.w3.org/2000/svg">
<path d="M29.0009 0H2.99909C1.34274 0 0 1.34274 0 2.99909V29.0009C0 30.6573 1.34274 32 2.99909 32H29.0009C30.6573 32 32 30.6573 32 29.0009V2.99909C32 1.34274 30.6573 0 29.0009 0Z" fill="#5E35B1"/>
<path d="M9.72665 16.0013C9.72489 14.4279 10.3141 12.9111 11.3776 11.7515L14.274 14.6479V6.00082H5.62692L8.68921 9.06311C7.35048 10.4781 6.44956 12.25 6.09506 14.1654C5.74056 16.0808 5.94761 18.0578 6.69124 19.8581C7.43487 21.6585 8.68336 23.2054 10.2862 24.3123C11.889 25.4191 13.7778 26.0388 15.7248 26.0966V22.2944C14.1081 22.2166 12.5833 21.5197 11.4666 20.348C10.3498 19.1764 9.72681 17.6199 9.72665 16.0013V16.0013Z" fill="white"/>
<path d="M17.726 17.3494V26.0018H26.3757L23.3292 22.9658C24.6775 21.5498 25.5858 19.7728 25.9439 17.8505C26.302 15.9283 26.0944 13.9434 25.3464 12.1369C24.5984 10.3303 23.3421 8.77966 21.73 7.67316C20.1179 6.56666 18.2193 5.95186 16.2646 5.90338V9.7082C17.4676 9.75419 18.6322 10.144 19.6206 10.8314C20.6089 11.5189 21.3794 12.4752 21.841 13.587C22.3026 14.6989 22.4359 15.9198 22.225 17.1051C22.0142 18.2903 21.4681 19.3903 20.6514 20.2748L17.726 17.3494Z" fill="white"/>
</svg>
