<svg width="32" height="32" viewBox="0 0 32 32" fill="none" xmlns="http://www.w3.org/2000/svg">
<path fill-rule="evenodd" clip-rule="evenodd" d="M21.2546 8.97295C20.4226 9.37615 19.6802 9.93295 19.0594 10.6177C18.9826 10.7009 18.9058 10.7841 18.8354 10.8673C16.845 12.9985 15.1874 12.9793 13.197 10.8225C13.1394 10.7521 13.0754 10.6817 13.0114 10.6177C12.3586 9.90095 11.565 9.31855 10.6818 8.91535C9.81777 8.51855 8.87057 8.31375 7.91697 8.32015C6.96977 8.31375 6.02897 8.51855 5.17137 8.91535C4.29457 9.32495 3.50737 9.90095 2.86097 10.6177C2.18897 11.3281 1.65777 12.1665 1.30577 13.0817C0.947367 14.0097 0.761765 15.0017 0.768165 15.9937C0.761765 16.9921 0.947367 17.9905 1.30577 18.9249C1.66417 19.8401 2.19537 20.6849 2.86097 21.4017C3.48177 22.0865 4.23057 22.6433 5.06897 23.0401C5.35057 21.6897 6.50897 20.6785 7.89777 20.6593C7.34097 20.6593 6.78416 20.5377 6.27856 20.3009C5.77296 20.0641 5.31857 19.7313 4.94097 19.3153C4.55057 18.8801 4.24976 18.3809 4.03856 17.8369C3.81456 17.2481 3.69937 16.6273 3.70577 16.0001C3.69937 15.3793 3.81456 14.7713 4.03856 14.1953C4.24976 13.6513 4.55057 13.1521 4.94097 12.7169C5.31857 12.3009 5.77296 11.9617 6.27856 11.7185C7.31536 11.2193 8.52497 11.2193 9.56177 11.7185C10.0674 11.9617 10.5218 12.3009 10.8994 12.7169C10.9634 12.7873 11.0274 12.8705 11.085 12.9473V12.9409C13.9586 16.0065 18.0738 16.0065 20.9474 12.9409V12.9473C21.005 12.8705 21.069 12.7937 21.133 12.7169C21.5106 12.3009 21.965 11.9617 22.4706 11.7185C22.9762 11.4753 23.5266 11.3473 24.0834 11.3473H24.109C25.517 11.3473 26.6882 10.3297 26.9762 8.97935C26.9442 8.96655 26.9058 8.94735 26.8738 8.92815C26.0098 8.53135 25.0626 8.32655 24.109 8.33295C23.1618 8.32655 22.221 8.53135 21.3634 8.92815C21.3378 8.93455 21.2994 8.95375 21.2546 8.97295Z" fill="url(#paint0_linear_3090_75)"/>
<path fill-rule="evenodd" clip-rule="evenodd" d="M10.8162 23.0465C11.6546 22.6561 12.4034 22.0929 13.0178 21.4017C13.0818 21.3313 13.1458 21.2609 13.2034 21.1905C15.2258 18.9825 16.8514 18.9825 18.8738 21.1905C18.9378 21.2609 18.9954 21.3313 19.0594 21.4017C19.7058 22.1185 20.493 22.6881 21.3698 23.0913C22.2338 23.4817 23.1682 23.6801 24.1154 23.6737C25.0626 23.6801 26.0034 23.4817 26.8802 23.1041C27.7698 22.7137 28.5634 22.1313 29.2098 21.4017C29.8754 20.6785 30.4002 19.8401 30.7522 18.9185C31.1042 17.9841 31.2834 16.9921 31.277 15.9873C31.2834 14.9953 31.1042 14.0033 30.7522 13.0753C30.4066 12.1601 29.8818 11.3217 29.2098 10.6113C28.5826 9.92014 27.8274 9.36334 26.989 8.96014C26.701 10.3041 25.5426 11.3153 24.1538 11.3281C24.7106 11.3281 25.261 11.4561 25.7666 11.6993C26.2722 11.9425 26.7266 12.2817 27.1042 12.6977C27.4946 13.1329 27.7954 13.6321 28.0066 14.1761C28.2306 14.7521 28.3458 15.3665 28.3394 15.9809C28.3458 16.6081 28.2306 17.2353 28.0066 17.8177C27.7954 18.3617 27.4946 18.8609 27.1042 19.2961C26.7266 19.7121 26.2722 20.0449 25.7666 20.2817C24.7234 20.7617 23.5266 20.7617 22.4834 20.2817C21.9778 20.0449 21.5234 19.7121 21.1458 19.2961C21.0754 19.2129 21.005 19.1297 20.9346 19.0401V19.0465C18.061 15.9809 13.997 15.9809 11.1234 19.0465V19.0401C11.0594 19.1297 10.989 19.2129 10.9122 19.2961C10.5346 19.7121 10.0802 20.0449 9.57456 20.2817C9.07536 20.5121 8.52496 20.6337 7.97456 20.6401V20.6465H7.94896C6.54096 20.6465 5.36336 21.6705 5.07536 23.0337L5.18416 23.0849C6.04816 23.4753 6.98256 23.6737 7.92976 23.6673C8.87696 23.6737 9.81776 23.4753 10.6946 23.0977C10.733 23.0913 10.7714 23.0657 10.8162 23.0465Z" fill="url(#paint1_linear_3090_75)"/>
<path fill-rule="evenodd" clip-rule="evenodd" d="M21.2546 8.97295C20.4226 9.37615 19.6802 9.93295 19.0594 10.6177C18.9826 10.7009 18.9058 10.7841 18.8354 10.8673C16.845 12.9985 15.1874 12.9793 13.197 10.8225C13.1394 10.7521 13.0754 10.6817 13.0114 10.6177C12.3586 9.90095 11.565 9.31855 10.6818 8.91535C9.81777 8.51855 8.87057 8.31375 7.91697 8.32015C6.96977 8.31375 6.02897 8.51855 5.17137 8.91535C4.29457 9.32495 3.50737 9.90095 2.86097 10.6177C2.18897 11.3281 1.65777 12.1665 1.30577 13.0817C0.947367 14.0097 0.761765 15.0017 0.768165 15.9937C0.761765 16.9921 0.947367 17.9905 1.30577 18.9249C1.66417 19.8401 2.19537 20.6849 2.86097 21.4017C3.48177 22.0865 4.23057 22.6433 5.06897 23.0401C5.35057 21.6897 6.50897 20.6785 7.89777 20.6593C7.34097 20.6593 6.78416 20.5377 6.27856 20.3009C5.77296 20.0641 5.31857 19.7313 4.94097 19.3153C4.55057 18.8801 4.24976 18.3809 4.03856 17.8369C3.81456 17.2481 3.69937 16.6273 3.70577 16.0001C3.69937 15.3793 3.81456 14.7713 4.03856 14.1953C4.24976 13.6513 4.55057 13.1521 4.94097 12.7169C5.31857 12.3009 5.77296 11.9617 6.27856 11.7185C7.31536 11.2193 8.52497 11.2193 9.56177 11.7185C10.0674 11.9617 10.5218 12.3009 10.8994 12.7169C10.9634 12.7873 11.0274 12.8705 11.085 12.9473V12.9409C13.9586 16.0065 18.0738 16.0065 20.9474 12.9409V12.9473C21.005 12.8705 21.069 12.7937 21.133 12.7169C21.5106 12.3009 21.965 11.9617 22.4706 11.7185C22.9762 11.4753 23.5266 11.3473 24.0834 11.3473H24.109C25.517 11.3473 26.6882 10.3297 26.9762 8.97935C26.9442 8.96655 26.9058 8.94735 26.8738 8.92815C26.0098 8.53135 25.0626 8.32655 24.109 8.33295C23.1618 8.32655 22.221 8.53135 21.3634 8.92815C21.3378 8.93455 21.2994 8.95375 21.2546 8.97295Z" fill="url(#paint2_radial_3090_75)"/>
<path fill-rule="evenodd" clip-rule="evenodd" d="M10.8162 23.0465C11.6546 22.6561 12.4034 22.0929 13.0178 21.4017C13.0818 21.3313 13.1458 21.2609 13.2034 21.1905C15.2258 18.9825 16.8514 18.9825 18.8738 21.1905C18.9378 21.2609 18.9954 21.3313 19.0594 21.4017C19.7058 22.1185 20.493 22.6881 21.3698 23.0913C22.2338 23.4817 23.1682 23.6801 24.1154 23.6737C25.0626 23.6801 26.0034 23.4817 26.8802 23.1041C27.7698 22.7137 28.5634 22.1313 29.2098 21.4017C29.8754 20.6785 30.4002 19.8401 30.7522 18.9185C31.1042 17.9841 31.2834 16.9921 31.277 15.9873C31.2834 14.9953 31.1042 14.0033 30.7522 13.0753C30.4066 12.1601 29.8818 11.3217 29.2098 10.6113C28.5826 9.92014 27.8274 9.36334 26.989 8.96014C26.701 10.3041 25.5426 11.3153 24.1538 11.3281C24.7106 11.3281 25.261 11.4561 25.7666 11.6993C26.2722 11.9425 26.7266 12.2817 27.1042 12.6977C27.4946 13.1329 27.7954 13.6321 28.0066 14.1761C28.2306 14.7521 28.3458 15.3665 28.3394 15.9809C28.3458 16.6081 28.2306 17.2353 28.0066 17.8177C27.7954 18.3617 27.4946 18.8609 27.1042 19.2961C26.7266 19.7121 26.2722 20.0449 25.7666 20.2817C24.7234 20.7617 23.5266 20.7617 22.4834 20.2817C21.9778 20.0449 21.5234 19.7121 21.1458 19.2961C21.0754 19.2129 21.005 19.1297 20.9346 19.0401V19.0465C18.061 15.9809 13.997 15.9809 11.1234 19.0465V19.0401C11.0594 19.1297 10.989 19.2129 10.9122 19.2961C10.5346 19.7121 10.0802 20.0449 9.57456 20.2817C9.07536 20.5121 8.52496 20.6337 7.97456 20.6401V20.6465H7.94896C6.54096 20.6465 5.36336 21.6705 5.07536 23.0337L5.18416 23.0849C6.04816 23.4753 6.98256 23.6737 7.92976 23.6673C8.87696 23.6737 9.81776 23.4753 10.6946 23.0977C10.733 23.0913 10.7714 23.0657 10.8162 23.0465Z" fill="url(#paint3_radial_3090_75)"/>
<defs>
<linearGradient id="paint0_linear_3090_75" x1="25.7893" y1="11.7004" x2="8.29811" y2="22.9404" gradientUnits="userSpaceOnUse">
<stop stop-color="#00EAF3"/>
<stop offset="0.334" stop-color="#00EAF3"/>
<stop offset="1" stop-color="#023189"/>
</linearGradient>
<linearGradient id="paint1_linear_3090_75" x1="6.26996" y1="20.2896" x2="23.804" y2="9.04366" gradientUnits="userSpaceOnUse">
<stop stop-color="#00EAF3"/>
<stop offset="0.334" stop-color="#00EAF3"/>
<stop offset="1" stop-color="#023189"/>
</linearGradient>
<radialGradient id="paint2_radial_3090_75" cx="0" cy="0" r="1" gradientUnits="userSpaceOnUse" gradientTransform="translate(5.8177 21.6404) rotate(-140.48) scale(2.67845 5.82111)">
<stop stop-color="#000033"/>
<stop offset="1" stop-color="#000033" stop-opacity="0"/>
</radialGradient>
<radialGradient id="paint3_radial_3090_75" cx="0" cy="0" r="1" gradientUnits="userSpaceOnUse" gradientTransform="translate(26.2565 10.3172) rotate(-140.493) scale(2.67655 5.81854)">
<stop stop-color="#000033"/>
<stop offset="1" stop-color="#000033" stop-opacity="0"/>
</radialGradient>
</defs>
</svg>
