<svg width="32" height="32" viewBox="0 0 32 32" fill="none" xmlns="http://www.w3.org/2000/svg">
<mask id="mask0_1751:2" style="mask-type:alpha" maskUnits="userSpaceOnUse" x="0" y="0" width="32" height="32">
<path d="M23.25 0H8.75C3.91751 0 0 3.91751 0 8.75V23.25C0 28.0825 3.91751 32 8.75 32H23.25C28.0825 32 32 28.0825 32 23.25V8.75C32 3.91751 28.0825 0 23.25 0Z" fill="white"/>
</mask>
<g mask="url(#mask0_1751:2)">
<path d="M23.25 0H8.75C3.91751 0 0 3.91751 0 8.75V23.25C0 28.0825 3.91751 32 8.75 32H23.25C28.0825 32 32 28.0825 32 23.25V8.75C32 3.91751 28.0825 0 23.25 0Z" fill="url(#paint0_radial_1751:2)"/>
<path d="M23.25 0H8.75C3.91751 0 0 3.91751 0 8.75V23.25C0 28.0825 3.91751 32 8.75 32H23.25C28.0825 32 32 28.0825 32 23.25V8.75C32 3.91751 28.0825 0 23.25 0Z" fill="url(#paint1_linear_1751:2)" fill-opacity="0.5"/>
<g filter="url(#filter0_d_1751:2)">
<path d="M16.1712 10.5C19.1925 10.5 20.6087 12.0375 21.1475 13.475L18.9275 14.25C18.5987 13.4625 17.79 12.6163 16.1925 12.6163C14.6937 12.6163 13.6525 13.5738 13.6525 14.6513C13.6525 15.55 14.2362 16.2288 15.38 16.4675L17.5037 16.8875C20.105 17.3863 21.5 18.9625 21.5 20.9588C21.5 23.1538 19.6475 25.25 16.275 25.25C13.0375 25.25 11.3075 23.5213 10.75 21.7375L13.0425 20.9375C13.4175 22.1275 14.4837 23.0938 16.2762 23.0938C18.045 23.0938 18.9612 22.2363 18.9612 21.1388C18.9612 20.22 18.2525 19.4813 16.9837 19.2225L14.9025 18.8025C12.6537 18.365 11.155 16.9463 11.155 14.8313C11.155 12.4563 13.4237 10.5 16.1712 10.5V10.5ZM7.74999 12.4188L8.74999 12.5363V16.5C9.08374 17.0575 9.24999 17.5575 9.24999 18C9.24999 18.6638 8.74999 19.25 8.24999 19.25C7.74999 19.25 7.24999 18.6638 7.24999 18C7.24999 17.5575 7.41624 17.0575 7.74999 16.5V12.4188ZM15.1312 5.35376C18.1774 6.24269 21.227 7.11978 24.28 7.98501C24.67 8.07876 24.975 8.58251 24.53 8.81001C24.07 9.04751 21.67 10.205 20.635 10.6413C18.2137 8.63751 13.08 8.42001 10.6375 12C9.51624 11.8763 6.48749 11.525 6.31999 11.4975C5.89374 11.4288 5.89374 11.0063 6.31999 10.7113C6.57874 10.5325 13.4975 5.68876 13.87 5.47376C14.21 5.27626 14.4687 5.15001 15.1312 5.35376V5.35376Z" fill="black"/>
</g>
<path d="M16.1712 10.5C19.1925 10.5 20.6087 12.0375 21.1475 13.475L18.9275 14.25C18.5987 13.4625 17.79 12.6163 16.1925 12.6163C14.6937 12.6163 13.6525 13.5738 13.6525 14.6513C13.6525 15.55 14.2362 16.2288 15.38 16.4675L17.5037 16.8875C20.105 17.3863 21.5 18.9625 21.5 20.9588C21.5 23.1538 19.6475 25.25 16.275 25.25C13.0375 25.25 11.3075 23.5213 10.75 21.7375L13.0425 20.9375C13.4175 22.1275 14.4837 23.0938 16.2762 23.0938C18.045 23.0938 18.9612 22.2363 18.9612 21.1388C18.9612 20.22 18.2525 19.4813 16.9837 19.2225L14.9025 18.8025C12.6537 18.365 11.155 16.9463 11.155 14.8313C11.155 12.4563 13.4237 10.5 16.1712 10.5V10.5ZM7.74999 12.4188L8.74999 12.5363V16.5C9.08374 17.0575 9.24999 17.5575 9.24999 18C9.24999 18.6638 8.74999 19.25 8.24999 19.25C7.74999 19.25 7.24999 18.6638 7.24999 18C7.24999 17.5575 7.41624 17.0575 7.74999 16.5V12.4188ZM15.1312 5.35376C18.1774 6.24269 21.227 7.11978 24.28 7.98501C24.67 8.07876 24.975 8.58251 24.53 8.81001C24.07 9.04751 21.67 10.205 20.635 10.6413C18.2137 8.63751 13.08 8.42001 10.6375 12C9.51624 11.8763 6.48749 11.525 6.31999 11.4975C5.89374 11.4288 5.89374 11.0063 6.31999 10.7113C6.57874 10.5325 13.4975 5.68876 13.87 5.47376C14.21 5.27626 14.4687 5.15001 15.1312 5.35376V5.35376Z" fill="white"/>
</g>
<defs>
<filter id="filter0_d_1751:2" x="1.00031" y="0.249939" width="28.7498" height="30.0001" filterUnits="userSpaceOnUse" color-interpolation-filters="sRGB">
<feFlood flood-opacity="0" result="BackgroundImageFix"/>
<feColorMatrix in="SourceAlpha" type="matrix" values="0 0 0 0 0 0 0 0 0 0 0 0 0 0 0 0 0 0 127 0" result="hardAlpha"/>
<feOffset/>
<feGaussianBlur stdDeviation="2.5"/>
<feColorMatrix type="matrix" values="0 0 0 0 0 0 0 0 0 0 0 0 0 0 0 0 0 0 0.1 0"/>
<feBlend mode="normal" in2="BackgroundImageFix" result="effect1_dropShadow_1751:2"/>
<feBlend mode="normal" in="SourceGraphic" in2="effect1_dropShadow_1751:2" result="shape"/>
</filter>
<radialGradient id="paint0_radial_1751:2" cx="0" cy="0" r="1" gradientUnits="userSpaceOnUse" gradientTransform="translate(16 16) scale(16)">
<stop stop-color="#1474E9"/>
<stop offset="1" stop-color="#1D81F9"/>
</radialGradient>
<linearGradient id="paint1_linear_1751:2" x1="16" y1="0" x2="16" y2="32" gradientUnits="userSpaceOnUse">
<stop offset="0.0142" stop-color="#1474E9"/>
<stop offset="1" stop-color="#5F39C2"/>
</linearGradient>
</defs>
</svg>
