<svg width="32" height="32" viewBox="0 0 32 32" fill="none" xmlns="http://www.w3.org/2000/svg">
<path d="M7.55889 4.8H8.12049C10.0452 4.85298 11.8746 5.64962 13.2245 7.02266C14.5743 8.39569 15.3398 10.2383 15.36 12.1637V12.2885C15.361 13.5267 15.0535 14.7456 14.4651 15.8351C13.8768 16.9246 13.0262 17.8503 11.9902 18.5285C10.7744 19.3499 9.33881 19.7849 7.87153 19.7765H7.74673C6.54865 19.7684 5.37058 19.4685 4.31441 18.9029V27.2032L4.25201 27.2656H0.382407L0.320007 27.2032V12.0389C0.320007 10.1668 1.13126 8.41947 2.75377 6.79696C4.05059 5.55567 5.76427 4.84348 7.55889 4.8V4.8ZM7.80801 8.79392H7.68321C6.49745 8.79392 5.56145 9.41792 4.75025 10.6659C4.50289 11.1962 4.35484 11.7672 4.31345 12.3509C4.31334 13.0235 4.50771 13.6818 4.87314 14.2465C5.23858 14.8112 5.75949 15.2582 6.37313 15.5336C6.82578 15.7324 7.31368 15.8385 7.80801 15.8456H7.99521C8.63641 15.8488 9.26512 15.6683 9.80699 15.3255C10.3489 14.9827 10.7812 14.4918 11.053 13.911C11.2935 13.4481 11.4218 12.935 11.4274 12.4133V12.2261C11.4225 11.5867 11.2388 10.9614 10.897 10.4209C10.5553 9.88048 10.0691 9.44647 9.49345 9.168C9.05352 8.98548 8.59217 8.85967 8.12049 8.7936L7.80801 8.79392Z" fill="#4088E6"/>
<path d="M24.0338 4.8H24.5954C26.5201 4.85298 28.3495 5.64962 29.6993 7.02266C31.0492 8.39569 31.8146 10.2383 31.8349 12.1637V12.2885C31.8359 13.5267 31.5283 14.7456 30.94 15.8351C30.3516 16.9246 29.5011 17.8503 28.4651 18.5285C27.2493 19.3499 25.8137 19.7849 24.3464 19.7765H24.2216C23.0235 19.7684 21.8455 19.4685 20.7893 18.9029V27.2032L20.7269 27.2656H16.8573L16.7949 27.2032V12.0389C16.7949 10.1668 17.6061 8.41947 19.2287 6.79696C20.5255 5.55567 22.2391 4.84348 24.0338 4.8V4.8ZM24.2834 8.79392H24.1586C22.973 8.79392 22.0368 9.41792 21.2256 10.6659C20.9783 11.1962 20.8302 11.7673 20.7888 12.3509C20.7887 13.0235 20.9831 13.6818 21.3485 14.2465C21.7139 14.8112 22.2349 15.2582 22.8485 15.5336C23.3012 15.7324 23.7892 15.8384 24.2835 15.8454H24.4707C25.1119 15.8486 25.7406 15.6681 26.2825 15.3253C26.8244 14.9825 27.2568 14.4917 27.5285 13.9109C27.769 13.4479 27.8973 12.9348 27.9029 12.4131V12.2259C27.898 11.5865 27.7142 10.9611 27.3723 10.4207C27.0304 9.8803 26.5441 9.44636 25.9683 9.168C25.5285 8.9855 25.0672 8.85969 24.5955 8.7936L24.2834 8.79392Z" fill="#4088E6"/>
<path d="M7.87105 7.10896C9.00302 7.11618 10.0976 7.51522 10.9686 8.23823C11.8396 8.96124 12.4334 9.96359 12.6489 11.0749C12.8644 12.1862 12.6884 13.3378 12.1508 14.334C11.6132 15.3302 10.7472 16.1095 9.7 16.5394C8.65279 16.9692 7.48903 17.0231 6.40656 16.692C5.32409 16.3608 4.38973 15.6649 3.76232 14.7227C3.13491 13.7805 2.85318 12.65 2.96503 11.5236C3.07688 10.3971 3.5754 9.34413 4.37585 8.54368C4.83548 8.08646 5.38079 7.72439 5.98055 7.4782C6.58031 7.23201 7.22273 7.10654 7.87105 7.10896V7.10896Z" fill="white"/>
<path d="M7.68369 8.85632C7.34227 8.85791 7.00395 8.92133 6.68514 9.04352C6.82976 9.07094 6.96751 9.12676 7.09043 9.20774C7.21334 9.28873 7.31899 9.39328 7.40125 9.51534C7.48351 9.63741 7.54077 9.77457 7.5697 9.9189C7.59862 10.0632 7.59866 10.2119 7.56979 10.3562C7.54093 10.5005 7.48373 10.6377 7.40152 10.7598C7.31931 10.8819 7.21371 10.9865 7.09083 11.0676C6.96795 11.1486 6.83022 11.2045 6.68561 11.232C6.541 11.2594 6.39238 11.258 6.24834 11.2277C6.03853 11.1947 5.84333 11.0999 5.68771 10.9554C5.53208 10.8109 5.42311 10.6233 5.37473 10.4165C5.2084 10.8668 5.17931 11.3563 5.29114 11.8231C5.40297 12.29 5.65069 12.7131 6.003 13.0392C6.35531 13.3653 6.79638 13.5796 7.27046 13.655C7.74454 13.7304 8.23033 13.6636 8.66644 13.463C9.10254 13.2623 9.46937 12.9369 9.72055 12.5278C9.97173 12.1187 10.096 11.6444 10.0776 11.1647C10.0592 10.685 9.89905 10.2215 9.61731 9.83286C9.33556 9.4442 8.94491 9.1478 8.49474 8.98112C8.2309 8.90447 7.95821 8.86252 7.68354 8.85632H7.68369Z" fill="#2C3C45"/>
<path d="M24.1586 7.10896C25.2905 7.11618 26.3851 7.51522 27.2561 8.23823C28.1271 8.96124 28.7209 9.96359 28.9364 11.0749C29.1519 12.1862 28.9759 13.3378 28.4383 14.334C27.9007 15.3302 27.0347 16.1095 25.9875 16.5394C24.9403 16.9692 23.7766 17.0231 22.6941 16.692C21.6116 16.3608 20.6772 15.6649 20.0498 14.7227C19.4224 13.7805 19.1407 12.65 19.2526 11.5236C19.3644 10.3971 19.8629 9.34413 20.6634 8.54368C21.123 8.08646 21.6683 7.72439 22.2681 7.4782C22.8678 7.23201 23.5103 7.10654 24.1586 7.10896V7.10896Z" fill="white"/>
<path d="M24.0338 8.85632C23.6923 8.8579 23.354 8.92133 23.0352 9.04352C23.1798 9.07094 23.3176 9.12676 23.4405 9.20774C23.5634 9.28873 23.6691 9.39328 23.7513 9.51534C23.8336 9.63741 23.8908 9.77457 23.9198 9.9189C23.9487 10.0632 23.9487 10.2119 23.9199 10.3562C23.891 10.5005 23.8338 10.6377 23.7516 10.7598C23.6694 10.8819 23.5638 10.9865 23.4409 11.0676C23.318 11.1486 23.1803 11.2045 23.0357 11.232C22.8911 11.2594 22.7424 11.258 22.5984 11.2277C22.3886 11.1947 22.1934 11.0999 22.0378 10.9554C21.8821 10.8109 21.7732 10.6233 21.7248 10.4165C21.5585 10.8668 21.5294 11.3563 21.6412 11.8231C21.753 12.29 22.0008 12.7131 22.3531 13.0392C22.7054 13.3653 23.1465 13.5796 23.6205 13.655C24.0946 13.7304 24.5804 13.6636 25.0165 13.463C25.4526 13.2623 25.8194 12.9369 26.0706 12.5278C26.3218 12.1187 26.4461 11.6444 26.4277 11.1647C26.4093 10.685 26.2491 10.2215 25.9674 9.83286C25.6856 9.4442 25.295 9.1478 24.8448 8.98112C24.58 8.90917 24.3079 8.86731 24.0338 8.85632Z" fill="#2C3C45"/>
</svg>
