<svg width="32" height="32" viewBox="0 0 32 32" fill="none" xmlns="http://www.w3.org/2000/svg">
<path d="M13.1111 20.5032C13.9901 20.5032 14.7027 19.7898 14.7027 18.9098C14.7027 18.0298 13.9901 17.3164 13.1111 17.3164C12.2321 17.3164 11.5195 18.0298 11.5195 18.9098C11.5195 19.7898 12.2321 20.5032 13.1111 20.5032Z" fill="#EF4C36"/>
<path d="M29.1252 27.7644C28.9521 27.7642 28.782 27.7198 28.6309 27.6353C28.4798 27.5508 28.3528 27.4291 28.2619 27.2817C28.171 27.1342 28.1192 26.966 28.1115 26.7929C28.1038 26.6198 28.1404 26.4476 28.2178 26.2927C29.7797 23.1383 30.3119 19.5722 29.7392 16.0985C29.1665 12.6248 27.5178 9.41912 25.0262 6.93455C22.5346 4.44999 19.3261 2.8122 15.8541 2.25266C12.3821 1.69313 8.82227 2.24014 5.67773 3.8164C5.55848 3.87622 5.42863 3.91194 5.2956 3.92153C5.16256 3.93111 5.02894 3.91437 4.90237 3.87225C4.7758 3.83014 4.65875 3.76348 4.55791 3.67607C4.45707 3.58867 4.37441 3.48224 4.31466 3.36286C4.25491 3.24347 4.21922 3.11348 4.20965 2.98029C4.20008 2.8471 4.2168 2.71333 4.25887 2.58661C4.30094 2.45989 4.36752 2.34271 4.45482 2.24175C4.54212 2.1408 4.64843 2.05805 4.76768 1.99822C8.29375 0.22745 12.2868 -0.388166 16.1816 0.238517C20.0765 0.8652 23.6758 2.70244 26.4701 5.49016C29.2644 8.27789 31.1121 11.8749 31.7516 15.772C32.3912 19.6691 31.7903 23.6688 30.0339 27.2051C29.9495 27.3738 29.8197 27.5156 29.6591 27.6144C29.4986 27.7132 29.3136 27.7651 29.1252 27.7644Z" fill="#EF4C36"/>
<path d="M13.1141 24.7021C11.9653 24.7026 10.8422 24.362 9.88679 23.7235C8.93136 23.0849 8.18655 22.177 7.74657 21.1146C7.30658 20.0522 7.19119 18.883 7.41498 17.755C7.63877 16.6269 8.1917 15.5906 9.00382 14.7772C9.81594 13.9638 10.8508 13.4097 11.9774 13.1852C13.1041 12.9606 14.272 13.0756 15.3334 13.5156C16.3947 13.9556 17.3019 14.7008 17.9402 15.6571C18.5785 16.6133 18.9192 17.7376 18.9192 18.8876C18.9174 20.4287 18.3053 21.9062 17.2171 22.9962C16.1289 24.0861 14.6534 24.6996 13.1141 24.7021V24.7021ZM13.1141 15.1055C12.3666 15.1055 11.6359 15.3274 11.0144 15.7432C10.3929 16.159 9.90849 16.75 9.6225 17.4414C9.3365 18.1328 9.26174 18.8936 9.40767 19.6276C9.55359 20.3616 9.91366 21.0357 10.4423 21.5648C10.971 22.0939 11.6445 22.4541 12.3777 22.6C13.1108 22.7458 13.8707 22.6707 14.5613 22.3841C15.2518 22.0975 15.8419 21.6124 16.257 20.99C16.6721 20.3676 16.8936 19.636 16.8933 18.8876C16.8922 17.8846 16.4937 16.9231 15.7851 16.214C15.0766 15.5048 14.116 15.1062 13.1141 15.1055V15.1055Z" fill="#EF4C36"/>
<path d="M13.1136 29.0692C12.0845 29.0702 11.0612 28.9146 10.0788 28.6077C9.82454 28.5224 9.61379 28.3407 9.49176 28.1017C9.36972 27.8626 9.34613 27.5852 9.42603 27.3289C9.50594 27.0726 9.68298 26.8579 9.91919 26.7308C10.1554 26.6037 10.4319 26.5744 10.6895 26.649C12.4206 27.1894 14.2827 27.1332 15.9782 26.4895C17.6737 25.8459 19.1047 24.6518 20.0427 23.0982C20.9807 21.5446 21.3715 19.7211 21.1527 17.919C20.9339 16.1168 20.118 14.4402 18.8355 13.1568C17.553 11.8735 15.8778 11.0575 14.0777 10.8394C12.2775 10.6212 10.4563 11.0133 8.9049 11.9532C7.35354 12.893 6.1616 14.3264 5.51952 16.0241C4.87744 17.7219 4.82229 19.5861 5.36287 21.3189C5.40869 21.4489 5.42787 21.5868 5.41929 21.7244C5.4107 21.862 5.3745 21.9964 5.31287 22.1197C5.25124 22.243 5.16543 22.3526 5.06057 22.4419C4.9557 22.5312 4.83393 22.5985 4.70253 22.6397C4.57112 22.6809 4.43277 22.6951 4.29575 22.6816C4.15872 22.6681 4.02581 22.627 3.90497 22.561C3.78413 22.4949 3.67782 22.4051 3.5924 22.297C3.50698 22.1889 3.4442 22.0646 3.4078 21.9317C2.76686 19.8841 2.78841 17.6861 3.46937 15.6515C4.15033 13.6169 5.4559 11.8497 7.19971 10.6021C8.94352 9.3545 11.0364 8.6903 13.1797 8.70432C15.323 8.71833 17.407 9.40984 19.1344 10.6801C20.8618 11.9504 22.1442 13.7346 22.7986 15.7779C23.4529 17.8212 23.4458 20.0193 22.7782 22.0583C22.1106 24.0974 20.8166 25.8731 19.0811 27.1322C17.3455 28.3912 15.257 29.0692 13.1136 29.0692V29.0692Z" fill="#EF4C36"/>
<path d="M19.3041 32.0004C19.0742 32.0004 18.851 31.923 18.6703 31.7807C18.4896 31.6384 18.3619 31.4395 18.3078 31.2158C18.2537 30.9921 18.2763 30.7567 18.3719 30.5474C18.4675 30.3381 18.6306 30.1671 18.835 30.0618C20.5946 29.1582 22.1157 27.8508 23.2743 26.2464C24.4329 24.6419 25.196 22.7859 25.5014 20.8298C25.8068 18.8738 25.6458 16.8732 25.0316 14.9913C24.4173 13.1094 23.3672 11.3996 21.967 10.0016C20.5668 8.60354 18.8562 7.55684 16.9748 6.94694C15.0934 6.33704 13.0947 6.18124 11.1417 6.49225C9.18868 6.80327 7.33686 7.57228 5.73738 8.73651C4.13789 9.90073 2.83611 11.4272 1.9383 13.1912C1.81426 13.4335 1.59913 13.6166 1.34025 13.7002C1.08136 13.7837 0.799933 13.7609 0.557865 13.6367C0.315796 13.5125 0.13292 13.2971 0.0494657 13.0379C-0.0339883 12.7788 -0.0111835 12.497 0.112863 12.2547C1.15804 10.203 2.67299 8.42784 4.53406 7.07407C6.39513 5.7203 8.54957 4.82629 10.8215 4.46501C13.0935 4.10374 15.4186 4.28544 17.6071 4.99527C19.7955 5.70511 21.7853 6.92297 23.414 8.54945C25.0428 10.1759 26.2642 12.1649 26.9788 14.3541C27.6933 16.5433 27.8806 18.8706 27.5255 21.1461C27.1704 23.4216 26.2828 25.5807 24.9353 27.4473C23.5877 29.314 21.8184 30.8351 19.7718 31.8866C19.6269 31.9608 19.4667 31.9998 19.3041 32.0004V32.0004Z" fill="#EF4C36"/>
</svg>
