<svg width="32" height="32" viewBox="0 0 32 32" fill="none" xmlns="http://www.w3.org/2000/svg">
<path fill-rule="evenodd" clip-rule="evenodd" d="M15.2003 8.48846C12.9844 7.49272 10.6763 6.00567 8.5218 5.31347C9.2873 7.13908 9.93339 9.08408 10.602 11.0066C9.26844 12.0087 7.71077 12.7866 6.22263 13.6342C7.48901 14.886 9.28249 15.6106 10.7115 16.6997C9.56684 18.1121 7.31802 19.58 6.77005 20.8601C9.1396 20.5632 11.9008 20.0818 14.1054 19.9842C14.5899 22.4193 14.8397 25.089 15.5287 27.3196C16.5547 24.3677 17.4824 21.3175 18.7037 18.5609C20.5884 19.3405 22.8854 20.291 24.7252 20.7506C23.4344 18.9395 22.2563 17.0155 21.1123 15.0575C22.8052 13.8307 24.5173 12.6234 26.1485 11.335C23.8429 11.1226 21.4541 10.9933 19.0322 10.8971C18.6473 8.39891 18.7484 5.41476 18.1563 3.12384C17.2604 5.00153 16.2032 6.7178 15.2003 8.48846V8.48846ZM16.2951 29.1808C15.9906 30.484 16.9938 31.0185 16.8425 31.8084C15.8519 31.467 15.1068 31.2916 13.777 31.4799C13.8186 30.4631 14.733 30.3193 14.5434 29.0713C0.372278 27.4601 0.343814 1.85329 14.4339 0.277296C32.0514 -1.6933 32.6042 28.728 16.2951 29.1808" fill="#E34F0E"/>
</svg>
