<svg width="32" height="32" viewBox="0 0 32 32" fill="none" xmlns="http://www.w3.org/2000/svg">
<path fill-rule="evenodd" clip-rule="evenodd" d="M8.27814 8.27812H24.0587V24.0587H8.27814V8.27812Z" fill="white"/>
<path d="M0 4.91567C0 2.20057 2.20249 0 4.91567 0H27.0846C29.7991 0 32 2.20249 32 4.91567V27.0846C32 29.7991 29.7978 32 27.0846 32H4.91535C2.20121 32 0 29.7978 0 27.0846V4.91535V4.91567ZM21.5431 12.9349H20.5785C20.3864 12.9349 20.2215 13.0036 20.0826 13.1428C19.9569 13.2695 19.8779 13.4187 19.8731 13.5887C19.8706 13.6929 19.8558 14.3027 19.8215 14.6877C19.7172 15.804 19.3474 16.7022 18.7125 17.3816C18.0828 18.0572 17.192 18.3962 16.0404 18.402C14.8872 18.3966 13.9961 18.0575 13.3657 17.3819C12.7309 16.7019 12.361 15.8043 12.2568 14.6877C12.2225 14.3027 12.2077 13.6933 12.2051 13.589C12.2003 13.4187 12.1217 13.2695 11.9957 13.1431C11.9317 13.0762 11.8547 13.0231 11.7694 12.9873C11.6841 12.9514 11.5923 12.9335 11.4997 12.9346H10.5351C10.4425 12.9335 10.3506 12.9515 10.2652 12.9873C10.1798 13.0232 10.1027 13.0762 10.0386 13.1431C9.91315 13.2695 9.83039 13.3946 9.83039 13.6143C9.83039 13.6143 9.86439 14.6174 9.88267 14.8173C10.0389 16.5976 10.6519 18.0142 11.7224 19.0692C12.7822 20.115 14.2139 20.642 16.0176 20.6517L16.0606 20.652C17.8644 20.6424 19.296 20.115 20.3559 19.0692C21.4264 18.0142 22.0394 16.5973 22.1956 14.8176C22.2139 14.6174 22.2479 13.6143 22.2479 13.6143C22.2479 13.3946 22.1651 13.2695 22.0397 13.1428C21.9755 13.076 21.8984 13.0231 21.813 12.9874C21.7276 12.9516 21.6357 12.9338 21.5431 12.9349V12.9349Z" fill="#FFC828"/>
</svg>
