<svg width="512" height="512" viewBox="0 0 512 512" fill="none" xmlns="http://www.w3.org/2000/svg">
<path d="M417.771 52.262C417.771 72.082 397.111 88.144 371.632 88.144C346.148 88.144 325.491 72.081 325.491 52.262C325.491 32.444 346.147 16.374 371.632 16.374C397.111 16.374 417.771 32.443 417.771 52.262Z" fill="#6EB800"/>
<path d="M460.633 159.958H66.399C66.399 159.958 55.127 162.349 43.88 185.939C-12.459 303.738 10.088 494.865 212.838 494.865C415.565 494.865 494.422 234.145 494.422 198.831C494.422 163.45 460.633 159.958 460.633 159.958ZM212.838 447.103C170.101 447.103 112.989 436.674 83.458 386.641C51.489 332.393 61.244 255.654 85.099 207.802H446.641C435.193 255.653 366.564 447.103 212.838 447.103Z" fill="#6EB800"/>
<path d="M210.188 52.262C210.188 72.082 189.542 88.144 164.079 88.144C138.616 88.144 117.968 72.081 117.968 52.262C117.968 32.444 138.616 16.374 164.079 16.374C189.541 16.374 210.188 32.443 210.188 52.262Z" fill="#6EB800"/>
</svg>
