<svg width="32" height="32" viewBox="0 0 32 32" fill="none" xmlns="http://www.w3.org/2000/svg">
<path d="M30.7349 8.8558C31.4047 9.15348 31.7023 9.59999 31.7023 10.1953V19.9442C31.7023 20.5395 31.4047 20.986 30.8093 21.2093C30.6605 21.2837 30.5116 21.2837 30.3628 21.2837H26.7163C26.4186 21.7302 26.1209 22.1767 25.8977 22.6977C25.5256 23.3674 25.1535 23.9628 24.7814 24.6325C24.6326 24.8558 24.4837 25.0046 24.3349 25.1535C24.186 25.3023 23.9628 25.3023 23.7395 25.1535C23.5907 25.0046 23.5163 24.8558 23.3674 24.707C22.8465 23.7395 22.2512 22.7721 21.7302 21.7302C21.5814 21.4325 21.4326 21.3581 21.0605 21.3581H1.48837C1.26512 21.3581 1.04186 21.3581 0.893023 21.2837C0.59535 21.2093 0.297675 20.986 0.148838 20.6139C0.148838 20.5395 0.0744186 20.4651 0 20.3907V9.67441C0.0744186 9.67441 0.0744193 9.59999 0.148838 9.59999C0.297675 9.2279 0.59535 9.00464 0.893023 8.93022L0.967442 8.8558H30.7349ZM24.6326 17.2651C24.7814 17.3395 24.9302 17.4884 25.0046 17.5628C25.3767 17.9349 25.8233 18.1581 26.2698 18.1581C27.6837 18.307 28.6512 17.4884 29.0233 16.2232C29.2465 15.4791 29.2465 14.8093 29.0977 14.0651C28.9488 13.3209 28.5767 12.7256 27.9814 12.2791C27.0884 11.6837 26.0465 11.6837 25.1535 12.3535C24.9302 12.5023 24.7814 12.6512 24.6326 12.8744V12.7256V12.5767C24.6326 12.1302 24.186 11.907 23.8884 11.907C23.5163 11.907 23.2186 12.2046 23.2186 12.5767V19.9442C23.2186 20.1674 23.3674 20.3907 23.5907 20.4651C24.0372 20.6884 24.5581 20.4651 24.6326 19.8698V19.2744V17.2651ZM20.3907 17.4139C20.5395 17.6372 20.6884 17.786 20.7628 17.9349C20.986 18.2325 21.2837 18.307 21.5814 18.1581C22.0279 17.9349 22.1767 17.7116 22.0279 17.1907C21.8791 16.7442 21.8047 16.2232 21.8047 15.7767V14.1395C21.8047 13.8419 21.8047 13.5442 21.7302 13.2465C21.6558 12.8744 21.4326 12.5023 21.0605 12.2791C20.6884 12.0558 20.3163 11.907 19.8698 11.907H18.4558C17.8605 11.9814 17.3395 12.1302 16.893 12.5767C16.6698 12.8 16.5209 13.0977 16.4465 13.4698C16.3721 13.7674 16.5209 14.0651 16.8186 14.1395C17.1163 14.2884 17.3395 14.2139 17.5628 13.9163C17.6372 13.8419 17.7116 13.7674 17.7116 13.693C18.0837 13.0232 18.7535 12.8744 19.4233 12.9488C20.093 13.0232 20.1674 13.2465 20.2419 13.8419C20.2419 14.0651 20.2419 14.1395 20.0186 14.2139C19.4977 14.2884 19.0512 14.4372 18.5302 14.586C18.1581 14.6605 17.786 14.7349 17.414 14.8837C16.6698 15.107 16.1488 15.8512 16.1488 16.6698C16.2233 17.4139 16.893 18.0837 17.5628 18.2325C18.307 18.3814 18.9023 18.307 19.5721 18.0093C19.7953 17.786 20.0186 17.5628 20.3907 17.4139ZM10.7907 12.7256C10.7163 12.5023 10.6419 12.2046 10.4186 11.9814C10.0465 11.6837 9.52558 11.8325 9.37674 12.2791C9.30233 12.4279 9.30233 12.5767 9.30233 12.7256V17.2651C9.30233 17.4139 9.30233 17.5628 9.37674 17.7116C9.45116 18.0093 9.74884 18.1581 10.0465 18.2325C10.3442 18.2325 10.6419 18.0837 10.7163 17.786C10.7907 17.5628 10.8651 17.3395 10.8651 17.1163V14.5116C10.8651 13.7674 11.386 13.0232 12.4279 13.0977C12.8 13.1721 13.0233 13.3209 13.0977 13.6186C13.1721 13.9907 13.2465 14.2884 13.2465 14.6605V17.5628C13.3209 18.1581 13.9163 18.3814 14.3628 18.1581C14.586 18.0093 14.7349 17.786 14.7349 17.4884V13.7674C14.7349 13.0232 14.214 12.2791 13.4698 12.0558C12.8744 11.8325 12.2047 11.8325 11.6093 12.2046C11.386 12.2791 11.0884 12.5023 10.7907 12.7256ZM5.2093 11.907H4.83721C4.16744 11.907 3.57209 12.2046 3.12558 12.7256C2.60465 13.3209 2.67907 14.5116 3.42326 14.8837C3.86977 15.1814 4.31628 15.3302 4.76279 15.4791C5.2093 15.6279 5.73023 15.7023 6.17674 15.9256C6.4 16.0744 6.47442 16.2232 6.47442 16.4465C6.47442 16.6698 6.4 16.893 6.17674 16.9674C5.5814 17.2651 4.53953 17.2651 4.09302 16.4465C4.0186 16.2977 3.94419 16.2232 3.86977 16.0744C3.72093 15.8512 3.42326 15.7767 3.12558 15.9256C2.90233 16 2.75349 16.2232 2.75349 16.4465C2.75349 16.893 2.90233 17.2651 3.27442 17.5628C3.79535 18.0093 4.46512 18.1581 5.13488 18.2325C5.5814 18.2325 5.95349 18.2325 6.4 18.1581C6.99535 18.0093 7.51628 17.786 7.88837 17.2651C8.18605 16.8186 8.26046 16.2977 8.11163 15.7767C7.96279 15.2558 7.51628 14.9581 7.06977 14.7349C6.62326 14.5116 6.10233 14.4372 5.65581 14.2884C5.28372 14.2139 4.91163 14.1395 4.61395 13.9163C4.24186 13.693 4.24186 13.3209 4.53953 13.0977C4.83721 12.8744 5.2093 12.8 5.50698 12.8744C5.87907 12.9488 6.10233 13.1721 6.32558 13.3953C6.47442 13.5442 6.62326 13.7674 6.84651 13.8419C7.2186 14.0651 7.66512 13.8419 7.73953 13.4698C7.81395 13.1721 7.73954 12.9488 7.51628 12.7256C7.36744 12.5767 7.14419 12.3535 6.92093 12.2791C6.4 11.9814 5.80465 11.8325 5.2093 11.907Z" fill="#FF9900"/>
<path d="M27.6837 15.107C27.6837 15.4791 27.6093 15.8512 27.4605 16.2233C27.0139 17.1907 25.6744 17.2651 25.0791 16.3721C24.9302 16.0744 24.7814 15.7768 24.7814 15.4791C24.707 14.9582 24.7814 14.3628 25.0046 13.8419C25.2279 13.3954 25.6744 13.0977 26.1953 13.0977C26.7907 13.0977 27.1628 13.3954 27.386 13.8419C27.6837 14.214 27.6837 14.6605 27.6837 15.107ZM20.2418 15.107C20.3163 15.4791 20.2418 15.9256 20.093 16.2977C19.8698 16.893 19.4232 17.1163 18.8279 17.1907C18.4558 17.2651 18.0837 17.1907 17.786 16.8186C17.5628 16.5954 17.5628 16.1488 17.786 15.8512C17.9349 15.7023 18.0837 15.5535 18.3814 15.5535C18.9767 15.4047 19.6465 15.2558 20.2418 15.107Z" fill="#FF9900"/>
</svg>
