<svg width="32" height="32" viewBox="0 0 32 32" fill="none" xmlns="http://www.w3.org/2000/svg">
<path d="M28 0H4C1.79086 0 0 1.79086 0 4V28C0 30.2091 1.79086 32 4 32H28C30.2091 32 32 30.2091 32 28V4C32 1.79086 30.2091 0 28 0Z" fill="#ECE000"/>
<path d="M15.8895 4.23411C14.3798 4.24445 12.8187 4.64512 11.5946 5.61302C10.6779 6.33662 9.95712 7.29559 9.50277 8.36693C9.50209 8.36952 9.50144 8.37213 9.50082 8.37474C9.0681 9.47862 9.10817 10.6534 9.16684 11.7419C9.16687 11.7426 9.16681 11.7432 9.16684 11.7439C9.20249 12.5089 9.28679 13.2496 9.21567 13.9529C9.20992 13.9802 9.20967 13.9871 9.2059 14.0036C8.86558 14.0653 8.49515 14.043 8.12778 13.9724C8.12583 13.9724 8.12387 13.9724 8.12192 13.9724C7.87027 13.9291 7.60142 13.8254 7.2977 13.74C7.29253 13.7385 7.28732 13.7372 7.28208 13.7361C6.98731 13.6687 6.69755 13.7545 6.47544 13.9197C6.47258 13.9215 6.46857 13.9236 6.46567 13.9255C6.46123 13.9289 6.45638 13.9318 6.452 13.9353C6.27121 14.055 6.02356 14.256 6.01059 14.6052C6.01003 14.6281 6.012 14.6511 6.01645 14.6736C6.05549 14.8787 6.1817 15.0288 6.29379 15.1267C6.40588 15.2246 6.51178 15.2893 6.577 15.3396C6.58208 15.3436 6.58729 15.3476 6.59262 15.3513C7.14243 15.7222 7.75092 15.8852 8.28012 16.0915C8.28068 16.0917 8.28153 16.0913 8.28207 16.0915C8.64845 16.2539 8.96682 16.5063 9.03988 16.824C9.13112 17.2256 8.96196 17.6868 8.74105 18.1345C8.7408 18.1351 8.7413 18.1359 8.74105 18.1364C8.14522 19.3231 7.26038 20.355 6.1727 21.1111C5.60246 21.5045 4.95916 21.7982 4.28793 21.9802C4.27867 21.983 4.26954 21.9863 4.26059 21.99C4.12285 22.0418 3.79626 22.0758 3.59066 22.3884C3.57605 22.4102 3.56421 22.4339 3.55551 22.4587C3.48618 22.6598 3.56527 22.8756 3.66293 22.9939C3.75619 23.1068 3.86022 23.1725 3.95004 23.2204C3.95463 23.2231 3.95911 23.2256 3.96371 23.2283C4.52888 23.5549 5.14612 23.6965 5.7098 23.8415C5.7124 23.8422 5.715 23.8429 5.71762 23.8435C6.12375 23.936 6.49816 23.9854 6.80355 24.1169C6.8185 24.1421 6.84909 24.2456 6.92074 24.4177C7.02083 24.7302 7.06634 25.0992 7.18246 25.4861C7.21421 25.5932 7.3076 25.6795 7.41683 25.7029C7.67333 25.7574 7.81441 25.6693 7.83676 25.6677C7.84723 25.6669 7.85766 25.6656 7.86801 25.6638C8.81177 25.4984 9.75353 25.3517 10.618 25.57C10.6186 25.5702 10.6193 25.5699 10.6199 25.57C11.5272 25.809 12.3156 26.4397 13.2039 26.9822C13.2055 26.9831 13.2062 26.9851 13.2078 26.9861V26.9841C13.7974 27.3583 14.479 27.7246 15.2664 27.7517V27.7536C15.269 27.7537 15.2716 27.7536 15.2742 27.7536C15.8689 27.7873 16.4526 27.7495 17.0222 27.7107C17.0255 27.7107 17.0288 27.7107 17.032 27.7107C17.5198 27.6624 17.9933 27.5 18.407 27.2341C18.4129 27.2308 18.4187 27.2277 18.4246 27.2243C19.3587 26.6891 20.1887 26.0442 21.0984 25.6404C21.0997 25.6399 21.101 25.6389 21.1023 25.6384C21.3973 25.5314 21.766 25.5375 22.1765 25.5095C22.1804 25.5094 22.1843 25.5096 22.1882 25.5095C22.9415 25.4862 23.6963 25.5266 24.4441 25.6267C24.47 25.63 24.4963 25.63 24.5222 25.6267C24.6204 25.615 24.7278 25.5491 24.78 25.4822C24.8323 25.4152 24.8473 25.3607 24.8581 25.322C24.8798 25.2446 24.8998 25.2076 24.864 25.2712C24.8754 25.2515 24.8846 25.2305 24.8914 25.2087C25.0287 24.7537 25.1034 24.342 25.325 24.0857C25.4245 23.9884 25.5958 23.9395 25.7898 23.9431C25.8042 23.9434 25.8185 23.9428 25.8328 23.9411C26.4829 23.8642 27.0706 23.6295 27.6277 23.4294C27.6343 23.427 27.6408 23.4244 27.6472 23.4216C27.8542 23.3314 28.1626 23.2279 28.3738 22.9314C28.3749 22.9298 28.3765 22.9291 28.3777 22.9275L28.3757 22.9255C28.5534 22.6772 28.4709 22.3365 28.2195 22.1814L28.2234 22.1775C28.2154 22.1721 28.2079 22.169 28.1999 22.1638C28.1978 22.1626 28.1962 22.161 28.194 22.1599V22.1618C27.8924 21.9681 27.5902 21.9412 27.3991 21.8708C27.3952 21.8695 27.3913 21.8682 27.3874 21.8669C26.0945 21.4522 24.9763 20.5594 24.1413 19.4724C23.6777 18.8667 23.2857 18.2085 23.0261 17.5056C23.0252 17.503 23.025 17.5003 23.0241 17.4978C22.9225 17.1926 22.9174 16.8597 23.0671 16.6579C23.0691 16.656 23.0711 16.6541 23.073 16.6521C23.3065 16.3166 23.7351 16.1009 24.1921 15.9314C24.194 15.9307 24.1961 15.9301 24.198 15.9294C24.7031 15.7537 25.2559 15.549 25.7117 15.1443C25.7137 15.1423 25.7156 15.1404 25.7175 15.1384C25.7881 15.0717 25.8729 14.9849 25.9363 14.8552C25.9997 14.7255 26.0298 14.5233 25.9461 14.3474C25.9461 14.3468 25.9461 14.3461 25.9461 14.3455C25.8145 14.0745 25.5852 13.9351 25.4148 13.8337C25.4142 13.8337 25.4135 13.8337 25.4129 13.8337C25.1274 13.6671 24.7953 13.6563 24.5066 13.7498C24.506 13.7499 24.5053 13.7496 24.5047 13.7498C24.5028 13.7504 24.5008 13.7511 24.4988 13.7517C24.187 13.8466 23.9324 13.9601 23.6961 13.99C23.6908 13.9911 23.6856 13.9924 23.6805 13.9939C23.3446 14.0537 23.0194 14.0681 22.7664 13.9744C22.764 13.9365 22.7628 13.8625 22.7527 13.7712H22.7547C22.736 13.214 22.7832 12.6396 22.7918 12.0447C22.7918 12.0433 22.7918 12.0421 22.7918 12.0408C22.8175 11.1368 22.8539 10.2062 22.7215 9.26928C22.7209 9.26471 22.7203 9.26015 22.7195 9.25561C22.4311 7.67514 21.4266 6.3139 20.1531 5.40795C19.2274 4.75108 18.1283 4.38446 17.0125 4.281C17.0119 4.28093 17.0112 4.28106 17.0106 4.281C16.6361 4.24319 16.2622 4.22978 15.8895 4.23412L15.8895 4.23411Z" fill="white"/>
</svg>
