<svg width="32" height="32" viewBox="0 0 32 32" fill="none" xmlns="http://www.w3.org/2000/svg">
<g clip-path="url(#clip0)">
<path d="M19.1065 21.2822C17.0374 20.698 15.3413 19.2167 13.9144 17.8738L14.6759 17.0756C16.0082 18.3288 17.5814 19.7126 19.4088 20.2247C21.8176 20.9043 24.3148 20.6239 26.4396 19.4364C27.4142 18.9016 28.2721 18.1775 28.9628 17.3065C29.6535 16.4355 30.1632 15.4352 30.4619 14.3644C31.4332 10.8593 29.9808 7.05105 26.8479 4.88451L26.6424 4.74323C25.3836 3.89537 23.998 3.25323 22.5375 2.84089C19.7405 2.04395 16.766 2.12756 14.0183 3.08036C13.8063 3.15383 13.5961 3.23177 13.3874 3.31418H13.3832L13.333 3.33467L13.2624 3.36222V3.35303H13.2561H13.2497H13.2447H13.2384L13.2299 3.35798V3.36292L13.0123 3.46041C12.973 3.47886 12.9315 3.49215 12.8887 3.49997L12.4924 2.66641C12.5179 2.64663 12.5631 2.68195 12.5906 2.66641L12.7743 2.499V2.55198H12.8047L12.8336 2.46156H12.8047L12.8555 2.499L12.8407 2.46156C12.8541 2.53785 12.8619 2.56822 12.864 2.55198C12.8661 2.53573 12.8795 2.53643 12.905 2.55198L12.8887 2.46156V2.42553C12.8668 2.44446 12.8502 2.46882 12.8407 2.49617C12.8407 2.51524 12.8407 2.50253 12.8407 2.45873L12.9 2.49617C12.893 2.46579 12.8894 2.46579 12.8887 2.49617L12.9 2.39445L12.864 2.4227L12.8915 2.45873C12.8915 2.44178 12.8915 2.44178 12.8915 2.45873V2.4227L12.9029 2.45873L12.8915 2.49617L12.8668 2.42553L12.8583 2.46156L12.8915 2.42553V2.46156H12.9078C13.0547 2.40363 14.5325 1.8371 14.6787 1.78341L16.1488 1.40549C16.533 1.34191 16.9195 1.2927 17.308 1.25785L17.5142 1.24089C21.0527 0.986291 24.5714 1.9538 27.4823 3.98173L27.9061 4.28337L27.9005 4.29114C31.1224 6.76354 32.5747 10.8607 31.5229 14.6533C31.1856 15.8646 30.6097 16.9964 29.829 17.982C29.0483 18.9676 28.0784 19.7873 26.9765 20.3929C25.4561 21.2426 23.743 21.6877 22.0013 21.6856C21.0219 21.6845 20.0473 21.5485 19.1051 21.2815L19.1065 21.2822Z" fill="#E22977"/>
<path d="M3.36921 19.8772V19.7458C3.91455 23.2905 5.86069 26.8712 8.32886 28.8824C8.95261 29.391 10.2361 30.168 11.425 30.4463L11.584 30.4859C11.7959 30.5382 12.0325 30.5982 12.2402 30.6272C12.6568 30.6917 13.0775 30.7252 13.499 30.7275C13.7816 30.7275 14.0691 30.7084 14.3523 30.6809L14.5162 30.6893L14.471 30.6639C18.0807 30.2528 21.2581 27.5776 22.1934 23.8683C22.2803 23.5222 22.3283 23.1972 22.3764 22.8794C22.387 22.8087 22.3968 22.7303 22.4081 22.6498C22.459 22.269 22.5162 21.9264 22.6201 21.6608C22.3841 21.6749 22.2902 21.6792 22.1765 21.682C22.0627 21.6848 21.7046 21.682 21.4665 21.6679C21.3902 21.9766 21.3252 22.3983 21.2821 22.7134C21.2419 23.0079 21.1875 23.3011 21.1183 23.5907C20.1335 27.4971 16.3218 30.1016 12.4295 29.5344L12.3801 29.5082C10.4933 28.4656 9.38917 26.1175 9.64064 23.6762C9.67868 23.3217 9.74314 22.9706 9.83349 22.6258L9.84691 22.5643C9.8784 22.326 9.9256 22.09 9.98819 21.8579C10.9171 18.4672 12.5086 18.1627 14.4922 18.114H14.5819C14.8376 18.109 15.0941 18.1069 15.359 18.1069C16.7336 18.1069 18.2919 18.1069 19.7832 17.3765C23.9509 15.3385 25.801 10.3323 23.9142 6.21535C23.4329 5.1669 22.7301 4.23523 21.8541 3.48451C20.9782 2.73379 19.9499 2.18186 18.8401 1.86674C17.3823 1.45129 15.8378 1.44836 14.3785 1.85826L13.8444 2.02285C13.5948 2.11045 13.3488 2.20346 13.1063 2.30188L12.9155 2.38453L12.7608 2.45517C8.91164 4.12864 5.85433 7.33499 4.31226 11.2866L4.0297 12.0827L3.9859 12.2141L3.9746 12.248L3.96965 12.265L3.95835 12.3024L3.94563 12.3398L3.82201 12.7637L3.80647 12.8153L3.78034 12.9078C3.16288 15.1775 3.02289 17.5506 3.36921 19.8772V19.8772ZM14.1772 16.4956C12.5772 14.9458 11.0591 13.4814 9.27826 12.9735C9.17795 12.9452 9.07764 12.9219 8.97804 12.9029C8.13193 12.715 7.24983 12.7721 6.43499 13.0674C6.26958 13.1247 6.10796 13.1924 5.95111 13.2702C5.90378 13.2935 5.85928 13.3189 5.80983 13.3408C5.69727 13.4025 5.58778 13.4684 5.48135 13.5386C5.43897 13.5676 5.39941 13.5951 5.35349 13.6255C5.2138 13.7266 5.08072 13.8366 4.95508 13.9547C4.94943 13.9603 4.94449 13.9667 4.93883 13.9716C4.8211 14.0881 4.70957 14.2108 4.60471 14.339C4.59128 14.3559 4.57574 14.3686 4.56232 14.3856C4.63814 13.9952 4.72903 13.6057 4.83499 13.2172L4.95226 12.8061L4.97839 12.7234L4.9904 12.686L5.09424 12.361L5.20373 12.0481L5.21362 12.0213L5.22634 11.9852C6.62148 8.18621 9.50219 5.09146 13.1423 3.48934H13.1465L13.3401 3.4074H13.3457L13.4969 3.34453C13.6834 3.26895 13.8586 3.20325 14.0316 3.13897L14.2089 3.07751C15.6025 2.58126 17.1162 2.53187 18.5392 2.93623C19.4966 3.20793 20.3837 3.68413 21.1392 4.33197C21.8948 4.97981 22.5007 5.78386 22.9153 6.68864C24.5563 10.2616 22.9344 14.6131 19.3056 16.3882C18.0426 17.0063 16.6799 17.007 15.3674 17.0078H14.7112L14.1743 16.4935L14.1772 16.4956ZM4.74669 16.367C4.76223 16.319 4.78272 16.2717 4.79967 16.2258C5.12815 15.3074 5.72718 14.481 6.79596 14.1108C7.14748 13.9871 7.51568 13.9174 7.88806 13.9038C8.25585 13.8934 8.62298 13.9411 8.97592 14.0451C9.15264 14.0944 9.32605 14.1548 9.49513 14.2259L9.52691 14.238C9.69596 14.3116 9.86102 14.3942 10.0214 14.4852L10.0744 14.5134C10.2319 14.6032 10.388 14.7014 10.5448 14.8059L10.6112 14.8497C10.7638 14.9549 10.9171 15.0673 11.0704 15.1838L11.141 15.2417C11.2922 15.36 11.4431 15.4831 11.5938 15.6112L11.6758 15.6818C11.8263 15.8097 11.9767 15.9432 12.1265 16.0788L12.2084 16.1544C12.3582 16.2919 12.5084 16.4332 12.6591 16.5783L12.7502 16.6644L13.2016 17.0968L13.2235 17.118C11.5161 17.3751 9.84126 18.2835 8.93777 21.5789C8.86454 21.8459 8.80769 22.1172 8.76753 22.3912C8.66803 22.7806 8.5972 23.1768 8.55561 23.5766C8.36771 25.4026 8.80144 27.1453 9.71482 28.508C9.47714 28.3624 9.24855 28.2024 9.03031 28.029C6.76064 26.1867 4.9678 22.878 4.46554 19.6002C4.40762 18.9963 4.34122 17.6223 4.74811 16.3762L4.74669 16.367Z" fill="url(#paint0_linear)"/>
</g>
<defs>
<linearGradient id="paint0_linear" x1="13.9539" y1="16.4659" x2="13.9539" y2="29.0109" gradientUnits="userSpaceOnUse">
<stop offset="0.05" stop-color="#4657ED"/>
<stop offset="0.5" stop-color="#38C8AC"/>
<stop offset="1" stop-color="#77D8C5"/>
</linearGradient>
<clipPath id="clip0">
<rect width="32" height="32" fill="white"/>
</clipPath>
</defs>
</svg>
