<svg width="32" height="32" viewBox="0 0 32 32" fill="none" xmlns="http://www.w3.org/2000/svg">
<path d="M28.48 6.58667L17.8133 0.4C16.8533 -0.133333 15.36 -0.133333 14.4 0.4L3.7333 6.58667C2.87997 7.22667 2.1333 8.50667 2.1333 9.57333V21.84C2.1333 22.9067 2.87997 24.1867 3.83997 24.72L14.5066 30.9067C15.4666 31.44 16.96 31.44 17.92 30.9067L28.5866 24.72C29.5466 24.1867 30.2933 22.9067 30.2933 21.84V9.57333C30.1866 8.50667 29.44 7.22667 28.48 6.58667V6.58667ZM25.6 13.3067H24.5333V11.3867C24.5333 10 23.4666 9.46667 21.3333 9.46667H21.2266C16.1066 9.46667 16.5333 7.54667 16.4266 6.8H16.32C16.2133 7.54667 16.64 9.46667 11.52 9.46667H11.4133C9.27997 9.46667 8.2133 9.89333 8.2133 11.3867V12.88L25.6 17.8933V20.0267C25.6 22.0533 24.64 23.2267 21.2266 23.2267H21.0133C18.4533 23.2267 16.7466 23.76 16.7466 25.8933H15.68C15.68 23.8667 14.08 23.2267 11.4133 23.2267C8.10663 23.2267 7.03997 22.0533 7.03997 20.0267V18.2133H8.10663V20.1333C8.10663 21.52 9.1733 22.0533 11.3066 22.0533H11.4133C16.5333 22.0533 16.1066 23.9733 16.2133 24.72H16.32C16.4266 23.9733 16 22.0533 21.12 22.0533H21.3333C23.4666 22.0533 24.5333 21.6267 24.5333 20.1333V19.0667L7.03997 13.9467V11.4933C7.03997 9.46667 7.99997 8.29333 11.4133 8.29333H11.6266C14.2933 8.29333 15.8933 7.76 15.8933 5.62667H16.96C16.96 7.65333 18.56 8.29333 21.2266 8.29333H21.3333C24.64 8.29333 25.7066 9.46667 25.7066 11.4933L25.6 13.3067V13.3067Z" fill="#F6E767"/>
</svg>
