<svg width="32" height="32" viewBox="0 0 32 32" fill="none" xmlns="http://www.w3.org/2000/svg">
<path d="M15.8924 26.2222L14.648 25.0667C14.0257 24.3555 12.9591 24.3555 12.248 25.0667L11.0035 26.2222L12.1591 27.3778L12.248 27.4667L12.4257 27.5555L15.9813 31.1111L25.4035 21.6C29.4924 17.4222 29.5813 14.6667 25.848 10.8444C22.0257 7.02221 19.3591 7.1111 15.2702 11.3778L8.87018 17.6L10.0257 18.7555C10.5591 19.4667 11.5368 19.4667 12.248 18.8444L17.4924 13.5111C20.248 10.7555 21.1368 11.0222 23.2702 13.2444C25.4924 15.4667 25.6702 16.3555 23.0035 19.1111L15.8924 26.2222Z" fill="black"/>
<path d="M15.0035 5.77777L16.248 7.02222C16.8702 7.73333 17.9368 7.73333 18.5591 7.02222L19.8035 5.77777L18.648 4.62222L18.5591 4.53333L18.4702 4.44444L15.0035 0.888885L5.75907 10.4C1.75907 14.4889 1.67018 17.2444 5.31462 21.0667C9.13684 24.9778 11.8924 24.8 15.9813 20.6222L22.1146 14.3111L20.9591 13.1556C20.4257 12.5333 19.3591 12.4444 18.7368 13.0667L13.5813 18.3111C10.9146 21.0667 10.0257 20.8 7.8924 18.5778C5.67018 16.4444 5.4924 15.5556 8.07018 12.7111L15.0035 5.77777Z" fill="black"/>
</svg>
