<svg width="33" height="33" viewBox="0 0 33 33" fill="none" xmlns="http://www.w3.org/2000/svg">
<path d="M32.413 15.173L25.617 3.40097C25.3511 2.99044 24.9907 2.64956 24.566 2.40686C24.1413 2.16416 23.6647 2.0267 23.176 2.00597H18.109C18.0626 1.99923 18.0154 1.99923 17.969 2.00597H9.57601C9.08723 2.02648 8.61058 2.16441 8.18639 2.4081C7.76219 2.65179 7.40293 2.99407 7.13901 3.40597L0.341006 15.173C0.117304 15.6081 0.000610352 16.0902 0.000610352 16.5795C0.000610352 17.0687 0.117304 17.5509 0.341006 17.986L7.14101 29.764C7.40486 30.176 7.7637 30.5187 8.18739 30.7633C8.61108 31.008 9.08727 31.1474 9.57601 31.17H23.176C23.6651 31.1477 24.1417 31.0084 24.5657 30.7638C24.9898 30.5191 25.349 30.1762 25.613 29.764L32.413 17.986C32.6367 17.5509 32.7534 17.0687 32.7534 16.5795C32.7534 16.0902 32.6367 15.6081 32.413 15.173ZM24.771 3.89097L27.253 8.19097L22.905 15.632L20.059 10.758C20.0161 10.6847 19.9548 10.6238 19.8811 10.5816C19.8074 10.5393 19.724 10.517 19.639 10.517H13.99L18.316 2.98097H23.176C23.4926 3.0023 23.8002 3.09508 24.0757 3.25235C24.3513 3.40961 24.5876 3.62727 24.767 3.88897L24.771 3.89097ZM16.686 16.131L13.976 11.491H19.361L22.073 16.13L16.686 16.131ZM15.801 16.602L13.122 21.191L10.433 16.58L13.111 11.991L15.801 16.602ZM16.658 17.112H22.015L19.354 21.673H13.976L16.658 17.112ZM7.99001 3.89097C8.16897 3.63066 8.40471 3.41439 8.67945 3.25849C8.95419 3.10258 9.26075 3.01111 9.57601 2.99097H17.185L12.864 10.517H4.16401L7.99001 3.89097ZM1.19001 15.663L3.59701 11.491H12.271L9.44101 16.332C9.39714 16.4067 9.37401 16.4918 9.37401 16.5785C9.37401 16.6651 9.39714 16.7502 9.44101 16.825L12.271 21.672H3.59701L1.18701 17.504C1.04866 17.2174 0.9768 16.9032 0.9768 16.585C0.9768 16.2667 1.04866 15.9526 1.18701 15.666L1.19001 15.663ZM9.57601 30.191C9.2585 30.1684 8.95029 30.0739 8.67467 29.9147C8.39904 29.7555 8.16321 29.5357 7.98501 29.272L4.15701 22.647H12.831L17.195 30.191H9.57601ZM24.766 29.272C24.5879 29.5356 24.3522 29.7553 24.0768 29.9145C23.8013 30.0737 23.4933 30.1682 23.176 30.191H18.327L13.962 22.644H19.632C19.717 22.6439 19.8004 22.6216 19.8741 22.5794C19.9478 22.5371 20.0091 22.4763 20.052 22.403L22.876 17.571L27.218 25.029L24.766 29.272ZM31.566 17.494L27.784 24.05L23.458 16.615L27.819 9.16097L31.573 15.661C31.7114 15.9476 31.7832 16.2617 31.7832 16.58C31.7832 16.8982 31.7114 17.2124 31.573 17.499" fill="#CC66FF"/>
</svg>
