<svg width="32" height="32" viewBox="0 0 32 32" fill="none" xmlns="http://www.w3.org/2000/svg">
<path d="M16.7467 26.879C11.52 26.3457 7.46667 21.8657 7.57334 16.639C7.57334 15.5724 7.68001 14.6124 8.00001 13.6524L5.12001 12.799C2.98667 19.839 6.93334 27.3057 14.08 29.439C15.2533 29.759 16.4267 29.9724 17.7067 29.9724L16.7467 26.879ZM29.76 10.3457L27.4133 12.479C29.6533 17.7057 27.0933 23.7857 21.8667 26.0257C21.2267 26.239 20.5867 26.4524 19.9467 26.6657L20.6933 29.5457C27.9467 27.9457 32.5333 20.9057 30.9333 13.6524C30.6133 12.479 30.1867 11.4124 29.76 10.3457Z" fill="#4285F4"/>
<path d="M27.9467 7.89282L25.7067 9.91949C23.8933 7.78615 21.44 6.50615 18.6667 6.29282C18.3467 6.29282 18.1333 6.29282 17.8133 6.29282C14.4 6.29282 11.2 7.99948 9.28 10.8795L6.29333 9.81282C10.0267 3.41282 18.1333 1.27948 24.5333 5.01282C25.92 5.75949 26.9867 6.71949 27.9467 7.89282Z" fill="#4285F4"/>
<path d="M23.8933 11.3064C26.721 11.3064 29.0133 9.0141 29.0133 6.18641C29.0133 3.35871 26.721 1.06641 23.8933 1.06641C21.0656 1.06641 18.7733 3.35871 18.7733 6.18641C18.7733 9.0141 21.0656 11.3064 23.8933 11.3064Z" fill="#FBBC05"/>
<path d="M6.18667 21.6521C9.01436 21.6521 11.3067 19.3598 11.3067 16.5321C11.3067 13.7044 9.01436 11.4121 6.18667 11.4121C3.35897 11.4121 1.06667 13.7044 1.06667 16.5321C1.06667 19.3598 3.35897 21.6521 6.18667 21.6521Z" fill="#EA4335"/>
<path d="M23.8933 31.9998C26.721 31.9998 29.0133 29.7075 29.0133 26.8798C29.0133 24.0521 26.721 21.7598 23.8933 21.7598C21.0656 21.7598 18.7733 24.0521 18.7733 26.8798C18.7733 29.7075 21.0656 31.9998 23.8933 31.9998Z" fill="#34A853"/>
</svg>
