<svg width="32" height="32" viewBox="0 0 32 32" fill="none" xmlns="http://www.w3.org/2000/svg">
<path d="M28.8 0H3.2C1.43269 0 0 1.43269 0 3.19999V11.2C0 12.9673 1.43269 14.4 3.2 14.4H28.8C30.5673 14.4 32 12.9673 32 11.2V3.19999C32 1.43269 30.5673 0 28.8 0Z" fill="#F9A619"/>
<path d="M28.8 17.6H20.8C19.0327 17.6 17.6 19.0327 17.6 20.8V28.8C17.6 30.5673 19.0327 32 20.8 32H28.8C30.5673 32 32 30.5673 32 28.8V20.8C32 19.0327 30.5673 17.6 28.8 17.6Z" fill="#3B85DB"/>
<path d="M7.19848 32C11.1741 32 14.397 28.7771 14.397 24.8015C14.397 20.8259 11.1741 17.603 7.19848 17.603C3.22286 17.603 0 20.8259 0 24.8015C0 28.7771 3.22286 32 7.19848 32Z" fill="#EB3669"/>
</svg>
