<svg width="32" height="32" viewBox="0 0 32 32" fill="none" xmlns="http://www.w3.org/2000/svg">
<path d="M6.72648 17.2928C6.20143 16.7703 5.90545 16.0606 5.90365 15.3199C5.90185 14.5791 6.19438 13.868 6.71689 13.3429C7.2394 12.8179 7.94909 12.5219 8.68983 12.5201C9.43057 12.5183 10.1417 12.8108 10.6668 13.3333L15.6438 18.3339L29.4081 4.51413C28.3769 3.11617 27.0322 1.97955 25.482 1.19557C23.9318 0.411589 22.2194 0.0021009 20.4822 0L11.4881 0C8.55026 0.0152187 5.73785 1.19251 3.66527 3.27469C1.59269 5.35686 0.428409 8.17467 0.426758 11.1125V31.9467H20.4801C23.4179 31.9314 26.2303 30.7542 28.3029 28.672C30.3755 26.5898 31.5398 23.772 31.5414 20.8341V11.1125C31.5502 10.8095 31.5273 10.5063 31.4731 10.208L15.5734 26.2507L6.72648 17.2928Z" fill="#5F2B77"/>
</svg>
