<svg width="32" height="32" viewBox="0 0 32 32" fill="none" xmlns="http://www.w3.org/2000/svg">
<path d="M30.2652 1.96254C29.7957 1.76774 29.2542 1.87531 28.8943 2.2352L10.117 21.0124L3.28149 13.0061C2.93931 12.6055 2.38344 12.4597 1.88944 12.6428C1.39504 12.8251 1.06667 13.2962 1.06667 13.823V28.7019C1.06667 29.3967 1.62995 29.96 2.32475 29.96H15.0277C15.3673 29.96 15.6833 29.8211 15.9151 29.5893L15.9173 29.5915L30.6734 14.8355C30.9094 14.5995 31.0419 14.2795 31.0419 13.9459V3.12478C31.0419 2.61592 30.7354 2.15734 30.2652 1.96254H30.2652ZM3.5828 27.4438V17.2342L12.2995 27.4438H3.5828ZM28.5258 13.4248L15.1007 26.8497L11.7558 22.9319L28.5258 6.162V13.4248V13.4248Z" fill="#FF7950"/>
</svg>
