<svg width="32" height="32" viewBox="0 0 32 32" fill="none" xmlns="http://www.w3.org/2000/svg">
<path fill-rule="evenodd" clip-rule="evenodd" d="M27.4064 3.72379L25.832 3.19259L16.448 0.0269923C16.34 -0.00899744 16.2232 -0.00899744 16.1152 0.0269923L7.41521 2.96219L5.15682 3.72379C5.06558 3.75516 4.98475 3.81108 4.92322 3.88539L16.1152 7.66139C16.2232 7.69738 16.34 7.69738 16.448 7.66139L27.64 3.88539C27.5785 3.81108 27.4977 3.75516 27.4064 3.72379Z" fill="#5B1FA7"/>
<path fill-rule="evenodd" clip-rule="evenodd" d="M16.1144 26.9565L4.92239 23.1805C4.84351 23.2748 4.8002 23.3937 4.79999 23.5165V27.5853C4.79999 27.8109 4.944 28.0117 5.1568 28.0837L16.1144 31.7805C16.1683 31.7986 16.2248 31.8078 16.2816 31.8077V26.9837C16.2248 26.9837 16.1683 26.9745 16.1144 26.9565Z" fill="#A37AD6"/>
<path fill-rule="evenodd" clip-rule="evenodd" d="M27.6392 3.88538L16.448 7.66138C16.3943 7.67915 16.3382 7.68833 16.2816 7.68858V12.5126C16.3376 12.5126 16.3936 12.503 16.448 12.4846L27.4064 8.78858C27.5106 8.75322 27.601 8.68618 27.665 8.59674C27.729 8.50738 27.7634 8.4001 27.7632 8.29018V4.22218C27.7628 4.09919 27.7192 3.98025 27.64 3.88618" fill="#7438C1"/>
<path fill-rule="evenodd" clip-rule="evenodd" d="M16.1144 7.66058L4.9232 3.88538C4.84409 3.97983 4.8005 4.09898 4.79999 4.22218V17.9374C4.79999 18.1638 4.944 18.3646 5.1568 18.4366L16.1144 22.1326C16.1682 22.1509 16.2247 22.1603 16.2816 22.1606V17.3366C16.2248 17.3362 16.1684 17.3271 16.1144 17.3094L9.48879 15.0734C9.38463 15.038 9.29423 14.971 9.23023 14.8815C9.16623 14.7922 9.13183 14.6849 9.13199 14.575V10.8606C9.13199 10.5006 9.48319 10.2478 9.82239 10.3622L16.1144 12.4846C16.1683 12.5027 16.2248 12.5119 16.2816 12.5118V7.68778C16.2256 7.68778 16.1696 7.67978 16.1144 7.66058Z" fill="#A37AD6"/>
<path fill-rule="evenodd" clip-rule="evenodd" d="M16.448 22.1326L22.7408 20.0102C22.8197 19.9838 22.9038 19.9765 22.9861 19.9891C23.0683 20.0015 23.1464 20.0335 23.2139 20.0822C23.2814 20.1309 23.3363 20.195 23.3741 20.2691C23.4119 20.3433 23.4315 20.4254 23.4312 20.5086V24.223C23.4312 24.4486 23.2872 24.6494 23.0744 24.7214L16.448 26.9566C16.3944 26.9747 16.3382 26.9839 16.2816 26.9838V31.8078C16.3376 31.8078 16.3936 31.7982 16.448 31.7806L27.4064 28.0846C27.5106 28.0491 27.6011 27.9819 27.6651 27.8923C27.7291 27.8028 27.7634 27.6955 27.7632 27.5854V13.8702C27.763 13.7472 27.7194 13.6282 27.64 13.5342L16.448 17.3086C16.3945 17.327 16.3383 17.3365 16.2816 17.3366V22.1606C16.3376 22.1606 16.3936 22.151 16.448 22.1326Z" fill="#7438C1"/>
<path fill-rule="evenodd" clip-rule="evenodd" d="M25.2488 12.6437L20.6128 11.0797L17.0568 12.2797L9.25519 14.9117C9.31655 14.9863 9.39743 15.0422 9.48879 15.0733L16.1144 17.3085C16.2225 17.3454 16.3398 17.3454 16.448 17.3085L27.64 13.5333C27.5787 13.4588 27.4977 13.4028 27.4064 13.3717L25.2488 12.6437Z" fill="#5B1FA7"/>
<path fill-rule="evenodd" clip-rule="evenodd" d="M16.448 12.4846C16.3398 12.5214 16.2226 12.5214 16.1144 12.4846L9.82239 10.3622C9.74351 10.3358 9.65943 10.3285 9.57711 10.3411C9.49487 10.3535 9.41679 10.3855 9.34927 10.4342C9.28183 10.4829 9.22695 10.547 9.18911 10.6211C9.15135 10.6953 9.13175 10.7774 9.13199 10.8606V14.575C9.13199 14.7014 9.17839 14.819 9.25519 14.911L17.0568 12.279L16.4488 12.4846H16.448ZM23.4312 24.223V20.5086C23.4316 20.4253 23.4122 20.3432 23.3744 20.2689C23.3367 20.1947 23.2818 20.1305 23.2142 20.0818C23.1467 20.033 23.0686 20.0011 22.9862 19.9887C22.9038 19.9762 22.8198 19.9836 22.7408 20.0102L16.448 22.1326C16.3402 22.1694 16.2231 22.1694 16.1152 22.1326L23.308 24.559C23.3872 24.4649 23.4309 24.346 23.4312 24.223Z" fill="#3D1470"/>
<path fill-rule="evenodd" clip-rule="evenodd" d="M16.1152 22.1326L11.9496 20.7278L7.14399 22.3494L7.13999 22.3502L7.092 22.3662L7.07439 22.3726L5.156 23.0198C5.06476 23.0511 4.98392 23.1071 4.92239 23.1814L16.1144 26.9574C16.2227 26.9935 16.3398 26.9935 16.448 26.9574L23.0744 24.7214C23.1658 24.69 23.2467 24.6338 23.308 24.559L16.1152 22.1326Z" fill="#5B1FA7"/>
</svg>
