<svg width="32" height="32" viewBox="0 0 32 32" fill="none" xmlns="http://www.w3.org/2000/svg">
<path d="M15.3146 16.1984L10.5063 11.3901L5.69807 16.1984L10.5063 21.0067L15.3146 16.1984Z" fill="#7660EA"/>
<path d="M10.5088 21.0133L5.69995 16.2044L10.5088 11.3955" fill="url(#paint0_linear_3732_111)"/>
<path d="M10.5066 11.3893L5.69836 6.58105L0.890084 11.3893L5.69836 16.1976L10.5066 11.3893Z" fill="#9096ED"/>
<path d="M5.7 16.2044L0.891113 11.3956L5.7 6.58667" fill="#836AF0"/>
<path d="M0.891113 1.77783L5.7 6.58672L0.891113 11.3956" fill="url(#paint1_linear_3732_111)"/>
<path d="M10.5054 21.0065L5.69714 16.1982L0.888864 21.0065L5.69714 25.8148L10.5054 21.0065Z" fill="#9096ED"/>
<path d="M5.7 25.8132L0.891113 21.0132L5.7 16.2043" fill="url(#paint2_linear_3732_111)"/>
<path d="M0.891113 21.0132L5.7 25.8132L0.891113 30.6221" fill="url(#paint3_linear_3732_111)"/>
<path d="M22.187 21.0104L26.9952 16.2021L22.187 11.3939L17.3787 16.2021L22.187 21.0104Z" fill="#67D4C3"/>
<path d="M22.1888 21.0133L26.9888 16.2044L22.1888 11.3955" fill="url(#paint4_linear_3732_111)"/>
<path d="M26.9888 16.2044L31.7977 11.3956L26.9888 6.58667L22.1888 11.3956L26.9888 16.2044Z" fill="url(#paint5_linear_3732_111)"/>
<path d="M26.9888 16.2044L31.7977 11.3956L26.9888 6.58667" fill="url(#paint6_linear_3732_111)"/>
<path d="M31.7977 1.77783L26.9888 6.58672L31.7977 11.3956" fill="url(#paint7_linear_3732_111)"/>
<path d="M26.9936 25.8185L31.8019 21.0103L26.9936 16.202L22.1853 21.0103L26.9936 25.8185Z" fill="#64FFDC"/>
<path d="M26.9888 25.8132L31.7977 21.0132L26.9888 16.2043" fill="#44BB54"/>
<path d="M31.7977 21.0132L26.9888 25.8132L31.7977 30.6221" fill="url(#paint8_linear_3732_111)"/>
<defs>
<linearGradient id="paint0_linear_3732_111" x1="7.61675" y1="13.0951" x2="11.8448" y2="19.2062" gradientUnits="userSpaceOnUse">
<stop stop-color="#411FC0"/>
<stop offset="1"/>
</linearGradient>
<linearGradient id="paint1_linear_3732_111" x1="3.72222" y1="3.63294" x2="-1.12071" y2="9.85943" gradientUnits="userSpaceOnUse">
<stop stop-color="#793ADF"/>
<stop offset="1" stop-color="#9096FF"/>
</linearGradient>
<linearGradient id="paint2_linear_3732_111" x1="5.8856" y1="26.1779" x2="2.38791" y2="15.9539" gradientUnits="userSpaceOnUse">
<stop stop-color="#793ADF"/>
<stop offset="1" stop-color="#9096FF"/>
</linearGradient>
<linearGradient id="paint3_linear_3732_111" x1="3.29511" y1="11.5724" x2="3.29511" y2="11.5342" gradientUnits="userSpaceOnUse">
<stop stop-color="#793ADF"/>
<stop offset="1" stop-color="#9096FF"/>
</linearGradient>
<linearGradient id="paint4_linear_3732_111" x1="26.993" y1="16.2018" x2="22.1851" y2="16.2018" gradientUnits="userSpaceOnUse">
<stop stop-color="#009145"/>
<stop offset="0.9992" stop-color="#04BC73"/>
</linearGradient>
<linearGradient id="paint5_linear_3732_111" x1="28.7808" y1="15.793" x2="24.8604" y2="6.14587" gradientUnits="userSpaceOnUse">
<stop stop-color="#41FF6D"/>
<stop offset="0.9925" stop-color="#64FFDC"/>
<stop offset="1"/>
</linearGradient>
<linearGradient id="paint6_linear_3732_111" x1="31.1927" y1="8.25351" x2="26.9263" y2="11.4436" gradientUnits="userSpaceOnUse">
<stop stop-color="#009145"/>
<stop offset="0.9992" stop-color="#04BC73"/>
</linearGradient>
<linearGradient id="paint7_linear_3732_111" x1="28.8987" y1="3.25223" x2="33.7801" y2="12.3617" gradientUnits="userSpaceOnUse">
<stop stop-color="#41FF6D"/>
<stop offset="0.9925" stop-color="#64FFDC"/>
<stop offset="1"/>
</linearGradient>
<linearGradient id="paint8_linear_3732_111" x1="31.8009" y1="25.8176" x2="26.9929" y2="25.8176" gradientUnits="userSpaceOnUse">
<stop stop-color="#41FF6D"/>
<stop offset="0.9992" stop-color="#04BC73"/>
</linearGradient>
</defs>
</svg>
