<?xml version="1.0" encoding="UTF-8"?>
<!-- Generator: Adobe Illustrator 20.0.0, SVG Export Plug-In . SVG Version: 6.00 Build 0)  -->
<!DOCTYPE svg PUBLIC "-//W3C//DTD SVG 1.1//EN" "http://www.w3.org/Graphics/SVG/1.1/DTD/svg11.dtd">
<svg version="1.1" id="Orange" xmlns="http://www.w3.org/2000/svg" xmlns:xlink="http://www.w3.org/1999/xlink" x="0px" y="0px" viewBox="0 0 260 260" style="enable-background:new 0 0 260 260;" xml:space="preserve">
<style type="text/css">
	.st0{fill:#FA6423;}
</style>
<path class="st0" d="M172.7,101.3c-13.4,10.1-16,28-16.4,40.1C135.1,116.8,195.6,44.6,126.8,0c42.6,55.1-60.6,109.3-60.6,190.4  c0,31.8,19.9,59.9,63.5,69.6c42.8-9.1,64-37.8,64-69.6C193.8,143,164.2,127.1,172.7,101.3z M129.9,234c-23.3,0-42.2-18.9-42.2-42.2  c0-23.3,18.9-42.2,42.2-42.2c23.3,0,42.2,18.9,42.2,42.2C172.1,215.1,153.2,234,129.9,234z"/>
</svg>