<svg width="32" height="32" viewBox="0 0 32 32" fill="none" xmlns="http://www.w3.org/2000/svg">
<path fill-rule="evenodd" clip-rule="evenodd" d="M29.8057 11.1727C28.3672 9.82786 26.4674 9.08659 24.4983 9.10182C22.4914 9.10182 20.608 9.83324 19.1909 11.1727L15.424 14.7201C15.3509 14.7932 15.2869 14.8755 15.2183 14.9852L15.2 15.0218L15.1634 15.0401C15.0446 15.1041 14.9577 15.1635 14.8846 15.2366L10.9257 18.9669C10.0114 19.8309 8.79543 20.3063 7.49714 20.3063C6.208 20.3063 4.992 19.8309 4.07314 18.9669C3.62636 18.5559 3.26972 18.0566 3.02576 17.5007C2.78181 16.9448 2.65585 16.3443 2.65585 15.7372C2.65585 15.1301 2.78181 14.5296 3.02576 13.9737C3.26972 13.4178 3.62636 12.9185 4.07314 12.5075L8.21029 8.60811C8.23314 8.58982 8.25143 8.56239 8.26971 8.53954L8.30171 8.49839L14.1531 2.9807C14.4818 2.67454 14.9154 2.50602 15.3646 2.50985C15.8217 2.50985 16.2514 2.67442 16.576 2.9807C16.7333 3.12662 16.8588 3.30344 16.9446 3.50009C17.0304 3.69675 17.0747 3.909 17.0747 4.12356C17.0747 4.33812 17.0304 4.55037 16.9446 4.74702C16.8588 4.94367 16.7333 5.12049 16.576 5.26641L7.05371 14.2355C6.93127 14.3485 6.83356 14.4857 6.76672 14.6383C6.69989 14.7909 6.66539 14.9557 6.66539 15.1224C6.66539 15.289 6.69989 15.4538 6.76672 15.6064C6.83356 15.7591 6.93127 15.8962 7.05371 16.0092C7.30514 16.2469 7.63886 16.3749 7.99543 16.3749C8.352 16.3749 8.68114 16.2469 8.93714 16.0092L18.4549 7.03097C18.8571 6.65979 19.1784 6.20958 19.3987 5.70852C19.6189 5.20745 19.7334 4.66632 19.7349 4.11898C19.7349 3.01727 19.2777 1.97957 18.4549 1.20243C17.6164 0.421168 16.5105 -0.00909311 15.3646 0.000145763C14.218 -0.00785439 13.112 0.424075 12.2743 1.207L5.92 7.19554L5.86057 7.26411L5.82857 7.30983L2.19429 10.7338C0.777143 12.0687 0 13.8424 0 15.7349C0 17.6275 0.777143 19.4058 2.19429 20.7406C3.6316 22.0843 5.52959 22.8255 7.49714 22.8115C9.50857 22.8115 11.3874 22.08 12.8046 20.7406L16.7634 17.0058C16.8366 16.9372 16.9006 16.8549 16.9691 16.7452L16.992 16.7086L17.0286 16.6904C17.1429 16.6264 17.2343 16.5669 17.3029 16.4938L21.0697 12.9464C21.984 12.0824 23.2046 11.6069 24.4983 11.6069C25.792 11.6069 27.008 12.0824 27.9223 12.9464C28.8366 13.8104 29.3394 14.9578 29.3394 16.1738C29.3394 17.3944 28.8366 18.5418 27.9223 19.4058L17.7554 28.992C17.4079 29.3158 16.9504 29.4955 16.4754 29.4949C15.9986 29.498 15.5388 29.318 15.1909 28.992C15.024 28.8379 14.8908 28.6509 14.7997 28.4428C14.7086 28.2347 14.6615 28.01 14.6615 27.7829C14.6615 27.5557 14.7086 27.331 14.7997 27.1229C14.8908 26.9148 15.024 26.7278 15.1909 26.5737L25.0331 17.2938C25.155 17.1804 25.2521 17.0432 25.3186 16.8906C25.385 16.738 25.4193 16.5734 25.4193 16.4069C25.4193 16.2405 25.385 16.0759 25.3186 15.9233C25.2521 15.7707 25.155 15.6334 25.0331 15.5201C24.7777 15.282 24.4406 15.1511 24.0914 15.1544C23.7394 15.1544 23.4057 15.2824 23.1543 15.5201L13.3029 24.8C12.8912 25.1808 12.5626 25.6425 12.3376 26.1561C12.1126 26.6698 11.9961 27.2244 11.9954 27.7852C11.9968 28.3452 12.1135 28.8989 12.3385 29.4117C12.5635 29.9245 12.8917 30.3855 13.3029 30.7657C14.1486 31.5611 15.2686 32 16.4663 32C17.664 32 18.7886 31.5611 19.6297 30.7657L29.8057 21.1795C31.2229 19.8401 32 18.0664 32 16.1738C32 14.2858 31.2229 12.5075 29.8057 11.1727" fill="#3B95C5"/>
</svg>
