<svg width="32" height="32" viewBox="0 0 32 32" fill="none" xmlns="http://www.w3.org/2000/svg">
<path fill-rule="evenodd" clip-rule="evenodd" d="M3.65714 0H28.3429C30.3626 0 32 1.63736 32 3.65714V28.3429C32 30.3627 30.3626 32 28.3429 32H3.65714C1.63736 32 0 30.3627 0 28.3429V3.65714C0 1.63736 1.63736 0 3.65714 0V0ZM26.1158 9.66946C26.8047 7.62533 26.8159 6.11696 26.3973 5.69836C25.9765 5.27757 24.4684 5.30514 22.4072 6.00433C22.7225 6.69241 23.2295 7.43445 23.9182 8.1231C24.6332 8.83814 25.4058 9.35734 26.1158 9.66946V9.66946ZM25.9289 10.2006C25.1256 9.84181 24.292 9.26834 23.534 8.51031C22.8009 7.77722 22.2404 6.97344 21.8798 6.19477C20.0884 6.87249 17.9442 8.02935 15.7563 9.79443C12.6445 12.3048 10.5276 15.0708 9.4056 18.0924C9.24661 18.5205 9.35169 19.002 9.67464 19.3249L12.7534 22.4037C13.0866 22.7369 13.5873 22.8372 14.0232 22.6582C16.9523 21.4547 19.6971 19.3339 22.2575 16.2956C24.0759 14.1379 25.2503 11.9958 25.9289 10.2006V10.2006ZM19.1376 12.9185C18.3521 12.133 18.3521 10.8594 19.1376 10.0739C19.9231 9.2884 21.1967 9.2884 21.9822 10.0739C22.7677 10.8594 22.7677 12.133 21.9822 12.9185C21.1967 13.704 19.9231 13.704 19.1376 12.9185ZM9.23485 17.1309C10.1584 14.8334 11.7019 12.7092 13.8651 10.7584C12.9799 10.6592 11.8481 11.0288 10.4696 11.8672C8.76693 12.9028 7.20052 14.3182 5.77023 16.1136C5.72897 16.1654 5.70262 16.2274 5.69389 16.293C5.6674 16.4929 5.80792 16.6764 6.00776 16.7029L9.23485 17.1309ZM14.9026 22.7993L15.3307 26.0265C15.3572 26.2263 15.5407 26.3668 15.7405 26.3403C15.8062 26.3316 15.8682 26.3052 15.92 26.2639C17.7153 24.8337 19.1308 23.2672 20.1663 21.5646C21.0048 20.1861 21.3744 19.0542 21.2752 18.1691C19.3243 20.3323 17.2001 21.8757 14.9026 22.7993ZM10.5897 25.3012C10.5897 25.3012 10.7513 25.1617 10.8051 25.1079C11.8725 24.0405 11.8743 22.3046 10.8106 21.2348L10.8093 21.2334C10.8083 21.2318 10.8065 21.2305 10.805 21.2291C9.73556 20.1597 7.99545 20.1596 6.9261 21.229C6.88938 21.2657 6.85276 21.3025 6.81838 21.3413C5.74925 22.4736 6.01613 23.2918 6.02804 23.326C6.04368 23.3724 6.08084 23.4072 6.12747 23.4219C6.17397 23.4359 6.22444 23.4271 6.26349 23.398C6.27174 23.3919 7.02854 22.8341 7.56182 23.1796C7.28057 23.4645 6.86475 23.9057 6.57983 24.3832C6.17098 25.0695 5.99414 26.0403 6.12946 26.8566C6.1384 26.9131 6.1786 26.9594 6.23321 26.9768C6.2876 26.9942 6.3472 26.9799 6.38757 26.9394C6.89062 26.4364 7.48499 26.3488 8.17325 26.2473C8.91661 26.1375 9.75914 26.0133 10.5897 25.3012V25.3012ZM10.1245 21.9094C10.6236 22.4084 10.6416 23.2024 10.1647 23.6793C10.1397 23.7045 10.1143 23.7259 10.0891 23.7473C9.66512 24.108 9.25459 24.1576 8.8575 24.2055C8.58 24.2391 8.2957 24.2735 8.03472 24.4064C8.04235 24.1106 8.11785 23.8077 8.24814 23.5822C8.39527 23.3281 8.61314 23.1014 8.8058 22.9087C8.8806 22.8339 8.87364 22.7059 8.79029 22.6225C8.53614 22.3684 8.22469 22.367 7.96856 22.4481C8.01321 22.3101 8.10793 22.1302 8.30302 21.9231C8.32179 21.9017 8.33832 21.8854 8.35454 21.8692C8.8315 21.3923 9.62545 21.4103 10.1245 21.9094Z" fill="#0568FD"/>
</svg>
