<svg width="32" height="32" viewBox="0 0 32 32" fill="none" xmlns="http://www.w3.org/2000/svg">
<path d="M27.4312 32H4.56875C2.04375 32 0 29.9562 0 27.4312V4.56875C0 2.04375 2.04375 0 4.56875 0H27.425C29.9562 0 32 2.04375 32 4.56875V27.425C32 29.9562 29.9562 32 27.4312 32Z" fill="#EF534F"/>
<path d="M25.2 18.2938C24.4813 21.1438 22.3313 23.4375 19.525 24.3063C18.7063 24.5563 17.85 24.7063 17 24.75C16.9313 24.7563 16.8688 24.7563 16.8063 24.7563C15.8938 24.7813 14.9813 24.6625 14.1125 24.4125C13.2438 24.1563 12.4313 23.7438 11.6938 23.2375C10.2188 22.2188 9.14375 20.6875 8.60625 19.0188L8.43125 18.3875L8.31875 17.7438L8.29375 17.5813L8.28125 17.4188L8.25625 17.0938C8.25 16.9875 8.2375 16.875 8.2375 16.7688L8.25 16.4438C8.24375 16.0063 8.31875 15.575 8.375 15.15L8.525 14.5188C8.54375 14.4125 8.58125 14.3125 8.61875 14.2063L8.725 13.9C8.8875 13.45 9.0875 13.0188 9.325 12.6063C9.35 12.5625 9.35 12.5125 9.325 12.475L8.525 11.0125C8.475 10.9188 8.34375 10.9188 8.29375 11.0063C7.81875 11.7563 7.45625 12.5688 7.20625 13.4125L7.1 13.7875C7.0625 13.9125 7.03125 14.0375 7.0125 14.1625L6.88125 14.925C6.8375 15.4375 6.7875 15.95 6.81875 16.4625L6.83125 16.8438C6.8375 16.9688 6.8625 17.1 6.875 17.225L6.925 17.6063L6.95 17.8L6.99375 17.9875C7.05 18.2375 7.10625 18.4875 7.16875 18.7313L7.4125 19.4563C8.14375 21.35 9.46875 23.0063 11.1813 24.05C12.0313 24.575 12.9563 25.0375 13.925 25.2625C14.0438 25.2875 14.1625 25.3125 14.275 25.3375C16.6688 25.8375 19.175 25.4438 21.2625 24.175C21.7563 23.875 22.2125 23.5375 22.6125 23.175C24.0438 21.875 24.875 20.1375 25.225 18.275C25.2063 18.275 25.2063 18.2813 25.2 18.2938Z" fill="white"/>
<path d="M16.7562 8.71875C18.4 8.9375 19.9375 9.7 21.0812 10.8438C21.1 10.8625 21.1187 10.8813 21.1375 10.9C21.6687 11.3688 22.475 11.3188 22.9437 10.7938C23.4125 10.2625 23.3625 9.45625 22.8375 8.9875L22.8312 8.98125C22.0187 8.2625 21.0937 7.66875 20.0937 7.25625C19.6 7.04375 19.0875 6.875 18.5625 6.75C18.0437 6.61875 17.5062 6.5625 16.9812 6.49375C16.0125 6.425 15.0437 6.5 14.1063 6.70625C14.0125 6.725 13.975 6.8375 14.0313 6.9125L15.3375 8.61875C15.3625 8.65 15.4062 8.66875 15.4437 8.66875C15.8875 8.64375 16.3187 8.6625 16.7562 8.71875Z" fill="white"/>
<path d="M9.425 8.21875L10.9125 10.9313L13.2812 15.25C13.3062 15.2938 13.3125 15.3375 13.3125 15.3813C13.3125 15.3875 13.3125 15.4 13.3125 15.4063C13.3125 15.4125 13.3125 15.4125 13.3125 15.4188C13.3125 15.4313 13.3062 15.45 13.3 15.4625C13.3 15.4688 13.2937 15.475 13.2937 15.4813C13.0062 16.3063 13.05 17.2125 13.4125 18.0063C13.4375 18.0625 13.4625 18.1125 13.4937 18.1688C13.55 18.2813 13.6062 18.3875 13.675 18.4938C13.7125 18.55 13.75 18.6 13.7937 18.65C13.8375 18.7063 13.8812 18.7625 13.925 18.8125C13.9687 18.8625 14.0125 18.9188 14.0625 18.9688C14.2937 19.2125 14.5625 19.4188 14.8562 19.5813C14.8812 19.5938 14.9 19.6063 14.925 19.6188C14.95 19.6313 14.9812 19.6438 15.0062 19.6563C15.1625 19.7375 15.3312 19.8 15.5 19.8563C15.6125 19.8938 15.7312 19.925 15.85 19.95C15.8625 19.95 15.8687 19.95 15.8812 19.9563C15.9875 19.975 16.0875 19.9938 16.1937 20C16.2 20 16.2062 20 16.2125 20C16.3187 20.0125 16.4312 20.0125 16.5375 20.0125C16.5437 20.0125 16.55 20.0125 16.5562 20.0125C17.125 20.0063 17.6812 19.8563 18.1812 19.5813C18.2562 19.5375 18.3375 19.4938 18.4125 19.4438C18.5625 19.3438 18.7062 19.225 18.8375 19.1063C19.3625 18.6188 19.725 17.9875 19.8687 17.275C19.9375 16.9438 19.95 16.6063 19.9187 16.275V16.2688C19.9187 16.2625 19.9187 16.2625 19.9187 16.2563C19.8625 15.7125 19.675 15.1813 19.3625 14.7125C19.0875 14.3063 18.7375 13.9688 18.3375 13.7125C17.8125 13.3813 17.2 13.2 16.5687 13.2C16.5437 13.2 16.5187 13.1938 16.4937 13.1938C16.475 13.1938 16.4562 13.1938 16.4375 13.1938C16.4312 13.1938 16.425 13.1938 16.425 13.1938L11.1312 7.0625C11.0625 6.975 10.9812 6.90625 10.8937 6.85C10.5562 6.625 10.1187 6.61875 9.75625 6.8625C9.7125 6.89375 9.66875 6.93125 9.63125 6.9625C9.625 6.96875 9.6125 6.975 9.6 6.9875C9.5875 7 9.58125 7.0125 9.575 7.01875C9.31875 7.29375 9.23125 7.66875 9.35 8.03125C9.36875 8.1 9.39375 8.15625 9.425 8.21875ZM12.4875 10.3313L13.2937 11.2688L15.75 14.125L15.7562 14.1375L15.85 14.2438C15.8812 14.2813 15.925 14.3063 15.9687 14.3188C16 14.3313 16.0375 14.3375 16.075 14.3313L16.2062 14.3125H16.2312C16.6625 14.2625 17.0875 14.3313 17.4687 14.5063C17.8437 14.6813 18.175 14.9563 18.4125 15.3188C18.4187 15.3313 18.4312 15.3438 18.4375 15.3625C18.675 15.7313 18.7937 16.15 18.8 16.575C18.8 16.5875 18.8 16.5938 18.8 16.6063C18.8 16.6313 18.8 16.65 18.7937 16.675C18.7875 16.8 18.775 16.925 18.75 17.0438C18.7375 17.0938 18.7312 17.1375 18.7187 17.1875C18.5812 17.6813 18.2812 18.125 17.875 18.4375C17.85 18.4563 17.8187 18.4813 17.7875 18.5C17.7812 18.5063 17.775 18.5063 17.7687 18.5125C17.6625 18.5813 17.5562 18.6375 17.4437 18.6875C17.3562 18.725 17.2687 18.7563 17.175 18.7875C17.1187 18.8063 17.0625 18.825 17.0062 18.8375C16.6937 18.9125 16.3625 18.9188 16.0375 18.85C15.9125 18.825 15.7875 18.7875 15.675 18.7438C15.45 18.6563 15.2375 18.5375 15.05 18.3875C14.8812 18.25 14.7312 18.0938 14.6062 17.9125C14.5937 17.9 14.5812 17.8875 14.575 17.8688C14.5437 17.825 14.525 17.7813 14.5 17.7375C14.4937 17.7313 14.4937 17.7188 14.4875 17.7125C14.1187 17.0563 14.0937 16.25 14.4375 15.5625L14.5062 15.425C14.5187 15.4063 14.525 15.3875 14.525 15.3625C14.5375 15.3 14.5312 15.2375 14.5 15.1813L11.7625 10.1875L11.1875 9.14375L10.7125 8.28125L12.4875 10.3313Z" fill="white"/>
</svg>
