<svg width="32" height="32" viewBox="0 0 32 32" fill="none" xmlns="http://www.w3.org/2000/svg">
<path d="M22.5115 3.42859C17.8429 3.42859 14.0393 7.19887 14.0393 11.8359C14.0393 14.3296 11.9947 16.3545 9.48567 16.3545C6.97687 16.3545 4.93207 14.3255 4.93207 11.8359C4.93207 9.3463 6.97687 7.31727 9.48567 7.31727C10.5677 7.31727 11.445 6.44642 11.445 5.37305C11.445 4.29945 10.5677 3.42859 9.48567 3.42859C4.81298 3.42859 1.01344 7.19887 1.01344 11.8359C1.01344 16.4729 4.81298 20.2432 9.48567 20.2432C14.1586 20.2432 17.9581 16.4729 17.9581 11.8359C17.9581 9.34219 20.0027 7.31727 22.5115 7.31727C25.0205 7.31727 27.0651 9.3463 27.0651 11.8359C27.0651 14.3255 25.0205 16.3545 22.5115 16.3545C21.4297 16.3545 20.5522 17.2254 20.5522 18.2988C20.5522 19.3724 21.4297 20.2432 22.5115 20.2432C27.1844 20.2432 30.984 16.4729 30.984 11.8359C30.984 7.1991 27.1844 3.42859 22.5115 3.42859ZM3.3643 26.389C3.3643 26.203 3.29184 26.0508 3.15127 25.9239C3.0107 25.7973 2.7595 25.6958 2.40156 25.6071C1.96727 25.5056 1.63058 25.3534 1.38784 25.1545C1.1451 24.9561 1.02144 24.7024 1.02144 24.4025C1.02144 24.0853 1.15355 23.819 1.41344 23.6076C1.6731 23.3964 2.0139 23.2908 2.4315 23.2908C2.87858 23.2908 3.23653 23.4133 3.50487 23.6583C3.76887 23.9036 3.89664 24.1868 3.88818 24.5079L3.88384 24.5248H3.35584C3.35584 24.2882 3.2747 24.0937 3.11721 23.9458C2.9595 23.798 2.72956 23.726 2.43561 23.726C2.15881 23.726 1.94578 23.7895 1.80087 23.912C1.65184 24.0345 1.57938 24.1952 1.57938 24.3982C1.57938 24.5756 1.6603 24.7234 1.81801 24.8418C1.97572 24.9602 2.23538 25.0658 2.59744 25.1548C3.02784 25.2604 3.35996 25.4167 3.58578 25.6238C3.81138 25.8311 3.92224 26.0846 3.92224 26.3932C3.92224 26.723 3.78601 26.9849 3.51767 27.1836C3.24498 27.3822 2.89573 27.4837 2.4571 27.4837C2.04795 27.4837 1.6859 27.3737 1.3707 27.1541C1.0555 26.9342 0.902124 26.6384 0.914924 26.2706L0.919267 26.2537H1.44727C1.44727 26.5157 1.54555 26.7145 1.7371 26.8496C1.92887 26.9849 2.17138 27.0526 2.4571 27.0526C2.73824 27.0526 2.9595 26.9934 3.12156 26.8793C3.28338 26.7484 3.3643 26.5877 3.3643 26.389ZM7.6539 26.0172C7.6539 26.4526 7.54738 26.8034 7.33847 27.0697C7.13001 27.336 6.83607 27.4711 6.4699 27.4711C6.28247 27.4711 6.11607 27.4416 5.9755 27.3783C5.83433 27.3154 5.7102 27.2197 5.61344 27.0992V28.5744H5.05984V24.3938H5.48567L5.57527 24.7829C5.6731 24.6391 5.79676 24.525 5.94578 24.4492C6.09481 24.3728 6.26533 24.3349 6.46533 24.3349C6.84475 24.3349 7.13847 24.4828 7.34716 24.7788C7.55584 25.0745 7.66258 25.4677 7.66258 25.9536V26.0172H7.6539ZM7.10007 25.958C7.10007 25.6156 7.03196 25.3367 6.89573 25.1127C6.75927 24.8928 6.55904 24.7829 6.29504 24.7829C6.13733 24.7829 6.0011 24.8167 5.88613 24.8885C5.77047 24.9612 5.67632 25.0633 5.61344 25.1845V26.6428C5.68178 26.7653 5.77527 26.8624 5.88613 26.9344C5.99698 27.0062 6.13756 27.04 6.29938 27.04C6.56338 27.04 6.75927 26.9429 6.89573 26.7527C7.03196 26.5623 7.10007 26.3173 7.10007 26.0172V25.958ZM10.0349 27.4711C9.6091 27.4711 9.27264 27.3314 9.02121 27.0526C8.76978 26.7735 8.64636 26.4101 8.64636 25.9621V25.8393C8.64636 25.4082 8.77436 25.053 9.03401 24.7657C9.2939 24.4784 9.5963 24.3388 9.9499 24.3388C10.3629 24.3388 10.674 24.4615 10.8825 24.7068C11.0914 24.9518 11.1979 25.2814 11.1979 25.6873V26.0295H9.22144L9.21298 26.0423C9.2171 26.334 9.2939 26.5708 9.43447 26.7566C9.57504 26.9426 9.77504 27.0357 10.0349 27.0357C10.2224 27.0357 10.3885 27.0103 10.5291 26.9552C10.6697 26.9004 10.7933 26.8286 10.8955 26.7356L11.1126 27.0949C11.002 27.2005 10.8612 27.2892 10.6825 27.3612C10.5035 27.4373 10.2907 27.4711 10.0349 27.4711ZM9.9499 24.7701C9.76247 24.7701 9.60476 24.846 9.47287 25.0025C9.34076 25.1589 9.25984 25.3534 9.2299 25.5858L9.23424 25.5984H10.64V25.5266C10.64 25.3111 10.5803 25.1335 10.4653 24.9856C10.3545 24.8418 10.1798 24.7701 9.9499 24.7701ZM13.5188 27.4711C13.093 27.4711 12.7565 27.3314 12.5051 27.0526C12.2537 26.7735 12.1302 26.4101 12.1302 25.9621V25.8393C12.1302 25.4082 12.2582 25.053 12.5179 24.7657C12.7778 24.4784 13.0802 24.3388 13.4338 24.3388C13.8468 24.3388 14.1579 24.4615 14.3666 24.7068C14.5753 24.9518 14.682 25.2814 14.682 25.6873V26.0295H12.7053L12.6969 26.0423C12.7012 26.334 12.7778 26.5708 12.9184 26.7566C13.063 26.9426 13.2589 27.0357 13.5188 27.0357C13.7062 27.0357 13.8724 27.0103 14.013 26.9552C14.1536 26.9004 14.2772 26.8286 14.3794 26.7356L14.5965 27.0949C14.4859 27.2005 14.3451 27.2892 14.1664 27.3612C13.9876 27.4373 13.7746 27.4711 13.5188 27.4711ZM13.4338 24.7701C13.2464 24.7701 13.0886 24.846 12.9568 25.0025C12.8246 25.1589 12.7437 25.3534 12.7138 25.5858L12.7181 25.5984H14.1238V25.5266C14.1238 25.3111 14.0642 25.1335 13.9492 24.9856C13.8384 24.8418 13.6637 24.7701 13.4338 24.7701ZM15.6107 25.958C15.6107 25.4718 15.7172 25.0786 15.9259 24.7829C16.1346 24.4869 16.4285 24.3349 16.8077 24.3349C16.9865 24.3349 17.1442 24.3687 17.2804 24.432C17.4186 24.4978 17.5397 24.5948 17.634 24.7152V23.054H18.1876V27.4078H17.7362L17.6722 27.0357C17.5791 27.1719 17.4531 27.2823 17.306 27.357C17.1611 27.4288 16.9952 27.467 16.8032 27.467C16.4329 27.467 16.1389 27.3317 15.93 27.0654C15.7213 26.7991 15.6148 26.4482 15.6148 26.0128V25.958H15.6107ZM16.1686 26.0172C16.1686 26.3214 16.2326 26.5666 16.3561 26.7484C16.4841 26.9301 16.6756 27.0231 16.944 27.0231C17.1101 27.0231 17.2464 26.9852 17.3613 26.9132C17.4777 26.8329 17.5728 26.7257 17.6384 26.6005V25.1886C17.5659 25.0617 17.4763 24.9646 17.3613 24.8928C17.2464 24.8208 17.1099 24.7829 16.9524 24.7829C16.6841 24.7829 16.4882 24.8926 16.3604 25.1084C16.2324 25.328 16.1686 25.6071 16.1686 25.958V26.0172ZM21.791 26.389C21.791 26.203 21.7186 26.0508 21.578 25.9239C21.4374 25.7973 21.1862 25.6958 20.8283 25.6071C20.394 25.5056 20.0573 25.3534 19.8146 25.1545C19.5718 24.9561 19.4482 24.7024 19.4482 24.4025C19.4482 24.0853 19.5803 23.819 19.8402 23.6076C20.1042 23.3964 20.4406 23.2908 20.8582 23.2908C21.3056 23.2908 21.6633 23.4133 21.9316 23.6583C22.1956 23.9036 22.3236 24.1868 22.3149 24.5079L22.3106 24.5248H21.7828C21.7828 24.2882 21.7019 24.0937 21.5442 23.9458C21.3865 23.798 21.1565 23.726 20.8626 23.726C20.586 23.726 20.3728 23.7895 20.2281 23.912C20.0788 24.0345 20.0064 24.1952 20.0064 24.3982C20.0064 24.5756 20.0875 24.7234 20.245 24.8418C20.4027 24.9602 20.6624 25.0658 21.0244 25.1548C21.4548 25.2604 21.7869 25.4167 22.0128 25.6238C22.2386 25.8311 22.3492 26.0846 22.3492 26.3932C22.3492 26.723 22.213 26.9849 21.9446 27.1836C21.672 27.3822 21.3227 27.4837 20.8841 27.4837C20.4749 27.4837 20.1129 27.3737 19.7977 27.1541C19.4825 26.9342 19.3291 26.6384 19.3419 26.2706L19.3462 26.2537H19.8742C19.8742 26.5157 19.9725 26.7145 20.1641 26.8496C20.3558 26.9849 20.5986 27.0526 20.8841 27.0526C21.1652 27.0526 21.3867 26.9934 21.5485 26.8793C21.7104 26.765 21.791 26.5877 21.791 26.389ZM24.0832 27.4117H23.5293V24.3938H24.0832V27.4117Z" fill="black"/>
<path d="M24.091 23.3371C24.091 23.1794 23.963 23.0514 23.8052 23.0514C23.6475 23.0514 23.5195 23.1794 23.5195 23.3371C23.5195 23.4948 23.6475 23.6228 23.8052 23.6228C23.963 23.6228 24.091 23.4948 24.091 23.3371Z" fill="black"/>
<path d="M25.893 26.9806H27.6523V27.4117H25.2285V27.0229L26.877 24.8249H25.2498V24.3938H27.5586V24.7657L25.893 26.9806ZM29.9225 27.4711C29.4966 27.4711 29.1599 27.3314 28.9087 27.0526C28.6573 26.7735 28.5339 26.4101 28.5339 25.9621V25.8393C28.5339 25.4082 28.6617 25.053 28.9215 24.7657C29.1814 24.4784 29.4838 24.3387 29.8372 24.3387C30.2505 24.3387 30.5615 24.4615 30.7702 24.7067C30.9789 24.9518 31.0854 25.2814 31.0854 25.6873V26.0295H29.109L29.1003 26.0423C29.1046 26.3339 29.1814 26.5707 29.322 26.7566C29.4667 26.9426 29.6626 27.0357 29.9225 27.0357C30.1099 27.0357 30.2761 27.0103 30.4166 26.9552C30.5572 26.9003 30.6806 26.8286 30.783 26.7355L31.0002 27.0949C30.8895 27.2005 30.749 27.2891 30.57 27.3611C30.391 27.4373 30.178 27.4711 29.9225 27.4711ZM29.8372 24.7701C29.65 24.7701 29.4923 24.8459 29.3602 25.0025C29.2283 25.1589 29.1471 25.3534 29.1174 25.5858L29.1218 25.5984H30.5273V25.5266C30.5273 25.3111 30.4678 25.1335 30.3526 24.9856C30.242 24.8418 30.0674 24.7701 29.8372 24.7701Z" fill="black"/>
</svg>
