<svg width="32" height="32" viewBox="0 0 32 32" fill="none" xmlns="http://www.w3.org/2000/svg">
<path d="M21.7118 26.5475C21.7118 25.6758 21.9475 24.1018 22.2356 23.0497C22.9009 20.6204 23.2681 17.6111 22.8993 17.6111C22.7437 17.6111 21.6195 18.6276 20.4012 19.8701C15.772 24.5908 10.8049 27.2607 6.65174 27.2607C4.28086 27.2607 2.66945 26.6613 1.11342 25.2004C0.170109 24.3148 0 23.8773 0 22.3372C0 20.753 0.155779 20.3801 1.21207 19.4363C2.16936 18.581 2.77395 18.3534 4.08841 18.3534C5.10184 18.5812 5.70078 18.5661 6.03105 18.9676C6.36586 19.3622 6.48179 20.6536 6.07696 21.4101C5.86079 21.814 5.29669 22.0648 4.6043 22.0648C3.95063 22.0648 3.57781 21.9098 3.71141 21.6936C4.13238 21.0125 3.5317 20.551 2.76104 20.9634C1.82968 21.4618 1.81354 23.2282 2.73272 24.06C4.0253 25.2298 7.59968 25.6696 9.74968 24.9234C12.0727 24.1172 15.1125 22.1749 17.5376 19.9474L19.6705 17.9882L16.8869 17.9722C13.972 17.9554 12.0754 17.6074 5.93825 15.9633C3.89697 15.4164 1.93456 14.9434 1.57734 14.9121C1.17232 14.8766 0.906607 14.5466 0.927842 14.0366C0.963701 13.1754 1.4315 12.5345 1.9847 12.2928C2.31693 12.1476 4.62113 11.928 7.06392 11.2783C16.5789 8.74758 17.1566 9.10569 23.4953 10.7105C25.5654 11.2346 27.9622 11.8046 29.0241 11.8237C30.66 11.8531 31.0142 11.9886 31.3437 12.7109C31.5576 13.1798 31.7326 13.6269 31.7326 13.7044C31.7326 13.7818 30.8056 14.2696 29.6727 14.7883C25.5125 16.6929 24.1995 17.7018 25.5541 19.6358C26.1158 20.4377 26.1045 20.5229 25.3685 21.0384C24.9376 21.3403 24.5813 21.9536 24.5768 22.4013C24.5647 23.6113 23.8 26.2089 22.6886 27.2327L21.7118 28.1324L21.7118 26.5475ZM23.8368 15.4436C25.493 14.9821 26.4966 14.4599 28.5557 13.3609C26.8602 12.8647 22.606 12.1678 22.606 12.1678C19.4674 11.5384 19.7965 11.5702 19.6542 12.2628C19.5976 12.5382 19.4291 13.1483 19.0543 13.7355C18.333 14.8657 15.6938 15.1039 14.18 14.3794C13.705 14.1521 13.228 13.2849 13.2346 12.6695C13.244 11.8027 12.7523 11.6007 12.438 11.7163C12.1828 11.8101 11.3536 11.822 9.5317 12.3136C3.51343 13.9373 2.68991 13.7513 6.61273 14.3074C7.08446 14.3743 9.5772 15.0705 10.7943 15.3948C13.7798 16.1902 14.3393 16.2486 18.2033 16.1683C20.8899 16.1124 22.013 15.9519 23.8368 15.4436V15.4436ZM0.976201 8.41087C1.05093 7.64124 1.09328 7.47417 3.23221 7.04329C4.45744 6.79647 7.47874 5.99659 9.94619 5.26576C15.6182 3.58581 17.2297 3.58169 23.1113 5.23207C25.6498 5.94436 28.4932 6.5289 29.43 6.53106C30.8933 6.53444 31.6541 7.18095 31.6541 7.18095C32.3275 8.72689 32.2046 8.83362 29.5767 8.83362C27.746 8.83362 26.1672 8.52507 23.7312 7.69116C21.8782 7.05682 19.2384 6.46142 17.7958 6.35245C15.1637 6.15361 15.1674 6.15292 7.03274 8.39137C5.60385 8.78456 3.62997 9.22389 2.64634 9.36765L0.857922 9.62903L0.976201 8.41087Z" fill="black"/>
</svg>
