<svg width="35" height="35" viewBox="0 0 35 35" fill="none" xmlns="http://www.w3.org/2000/svg">
<g clip-path="url(#clip0)">
<path d="M10.9428 27.0767V16.6626L2.6115 23.1714L10.9428 27.0767Z" fill="white"/>
<path d="M10.9428 16.6626L10.3017 15.8419C10.6154 15.5968 11.0415 15.552 11.3993 15.7266C11.7572 15.9011 11.9842 16.2644 11.9842 16.6626H10.9428ZM10.9428 27.0767H11.9842C11.9842 27.433 11.8021 27.7645 11.5015 27.9556C11.2008 28.1467 10.8234 28.1709 10.5008 28.0197L10.9428 27.0767ZM2.6115 23.1714L2.16949 24.1144C1.84174 23.9608 1.61728 23.648 1.57667 23.2883C1.53605 22.9286 1.68512 22.5736 1.97036 22.3508L2.6115 23.1714ZM11.9842 16.6626V27.0767H9.9014V16.6626H11.9842ZM10.5008 28.0197L2.16949 24.1144L3.05351 22.2285L11.3848 26.1338L10.5008 28.0197ZM1.97036 22.3508L10.3017 15.8419L11.5839 17.4833L3.25264 23.9921L1.97036 22.3508Z" fill="#121212"/>
<path d="M16.7012 2.85818C17.4919 2.51833 18.5477 2.64976 19.6967 3.41652C20.8358 4.17674 21.9421 5.4954 22.6821 7.21699C23.422 8.93858 23.6175 10.6487 23.3852 11.9984C23.151 13.3597 22.5198 14.2162 21.7291 14.556C20.9384 14.8959 19.8825 14.7645 18.7336 13.9977C17.5944 13.2375 16.4882 11.9188 15.7482 10.1972C15.0082 8.47565 14.8127 6.76553 15.045 5.41585C15.2793 4.05456 15.9105 3.19804 16.7012 2.85818Z" fill="white" stroke="#121212" stroke-width="2.08283"/>
<path d="M7.79719 22.7012C8.92729 27.6627 14.6963 31.0028 21.5595 29.5902C28.4704 28.1678 32.6485 22.7322 31.5271 17.8091C30.4083 12.8972 24.2647 9.59512 17.3728 10.9929C9.48547 13.4136 6.83734 18.4871 7.79719 22.7012Z" fill="#FFC700"/>
<path d="M7.79719 22.7012C8.92729 27.6627 14.6963 31.0028 21.5595 29.5902C28.4704 28.1678 32.6485 22.7322 31.5271 17.8091C30.4083 12.8972 24.2647 9.59512 17.3728 10.9929C9.48547 13.4136 6.83734 18.4871 7.79719 22.7012Z" fill="url(#paint0_linear)"/>
<path d="M7.79719 22.7012C8.92729 27.6627 14.6963 31.0028 21.5595 29.5902C28.4704 28.1678 32.6485 22.7322 31.5271 17.8091C30.4083 12.8972 24.2647 9.59512 17.3728 10.9929C9.48547 13.4136 6.83734 18.4871 7.79719 22.7012Z" stroke="#121212" stroke-width="2.08283"/>
<path d="M21.2196 28.5301C21.7912 28.4661 22.316 28.8765 22.3919 29.4467C22.4678 30.0168 22.0659 30.5308 21.4943 30.5947L21.2196 28.5301ZM18.8098 10.4233C19.3813 10.3593 19.9062 10.7697 19.9821 11.3398C20.058 11.91 19.6561 12.424 19.0845 12.4879L18.8098 10.4233ZM13.0192 21.2333C13.3245 23.5277 14.3052 25.4821 15.7219 26.7876C17.1229 28.0784 18.9935 28.7789 21.2196 28.5301L21.4943 30.5947C18.656 30.912 16.173 30.0059 14.32 28.2985C12.4828 26.6057 11.3093 24.1703 10.9493 21.4647L13.0192 21.2333ZM19.0845 12.4879C16.8458 12.7382 15.21 13.8043 14.1894 15.3278C13.1578 16.8677 12.714 18.9401 13.0192 21.2333L10.9493 21.4647C10.589 18.7579 11.0945 16.1667 12.4446 14.1514C13.8057 12.1198 15.984 10.7392 18.8098 10.4233L19.0845 12.4879Z" fill="#121212"/>
<path d="M25.6649 26.9586C26.2039 26.7629 26.8093 27.0405 27.017 27.5787C27.2248 28.1169 26.9562 28.7118 26.4172 28.9075L25.6649 26.9586ZM21.8331 9.74C22.3964 9.62405 22.9566 9.98467 23.0844 10.5455C23.2121 11.1063 22.859 11.6549 22.2956 11.7708L21.8331 9.74ZM17.868 20.8515C18.209 22.3485 18.898 24.4201 20.1465 25.8308C20.755 26.5183 21.4707 27.02 22.325 27.2504C23.1764 27.48 24.2647 27.467 25.6649 26.9586L26.4172 28.9075C24.6943 29.5331 23.1599 29.6143 21.8119 29.2507C20.4669 28.888 19.4067 28.1093 18.5856 27.1815C16.975 25.3617 16.1906 22.8635 15.828 21.2714L17.868 20.8515ZM22.2956 11.7708C19.0532 12.4382 16.8401 16.3384 17.868 20.8515L15.828 21.2714C14.6372 16.0434 17.0949 10.7152 21.8331 9.74L22.2956 11.7708Z" fill="#121212"/>
<path d="M7.33097 6.6153C6.83401 7.31796 6.74283 8.37802 7.25369 9.66138C7.7602 10.9338 8.81976 12.2903 10.3497 13.3723C11.8796 14.4544 13.5116 15.0015 14.88 15.0552C16.2603 15.1093 17.2294 14.6702 17.7264 13.9675C18.2233 13.2649 18.3145 12.2048 17.8036 10.9214C17.2971 9.64902 16.2376 8.29253 14.7077 7.21049C13.1778 6.12845 11.5458 5.58133 10.1773 5.52765C8.79707 5.47351 7.82793 5.91264 7.33097 6.6153Z" fill="white" stroke="#121212" stroke-width="2.08283"/>
<circle r="1.04141" transform="matrix(-0.977353 0.211615 0.211615 0.977353 24.7067 17.4785)" fill="#121212" stroke="#121212" stroke-width="1.04141"/>
</g>
<defs>
<linearGradient id="paint0_linear" x1="17.0944" y1="9.9871" x2="23.0133" y2="30.3251" gradientUnits="userSpaceOnUse">
<stop stop-color="#FFE073"/>
<stop offset="1" stop-color="#FFA800"/>
</linearGradient>
<clipPath id="clip0">
<path d="M34.8953 0H0.499989V34.3953H34.8953V0Z" fill="white"/>
</clipPath>
</defs>
</svg>