<svg width="32" height="32" viewBox="0 0 32 32" fill="none" xmlns="http://www.w3.org/2000/svg">
<path d="M6.4906 28.9607C7.04606 29.4168 7.63697 29.8489 8.27516 30.221C14.527 33.8816 22.5162 31.7092 26.1208 25.3601C29.7253 19.0109 27.5862 10.8975 21.3344 7.23687C20.6962 6.8648 20.0344 6.55274 19.3725 6.3007L6.4906 28.9607Z" fill="#642F6C"/>
<path d="M25.8372 3.92442C25.2817 3.46834 24.6908 3.03626 24.0525 2.66419C17.8007 -0.996454 9.81154 1.18793 6.19515 7.52505C2.59057 13.8742 4.72968 21.9876 10.9815 25.6483C11.6197 26.0203 12.2816 26.3323 12.9434 26.5844L25.8372 3.92442Z" fill="white"/>
<path d="M6.4906 28.9607C7.04606 29.4168 7.63697 29.8489 8.27516 30.221C14.527 33.8816 22.5162 31.7092 26.1208 25.3601C29.7253 19.0109 27.5862 10.8975 21.3344 7.23687C20.6962 6.8648 20.0344 6.55274 19.3725 6.3007L6.4906 28.9607Z" fill="#642F6C"/>
<path d="M25.8372 3.92442C25.2817 3.46834 24.6908 3.03626 24.0525 2.66419C17.8007 -0.996454 9.81154 1.18793 6.19515 7.52505C2.59057 13.8742 4.72968 21.9876 10.9815 25.6483C11.6197 26.0203 12.2816 26.3323 12.9434 26.5844L25.8372 3.92442Z" fill="#A77BCA"/>
<path d="M14.7867 31.9974C12.5648 31.9974 10.3193 31.4213 8.26295 30.2211C7.62477 29.849 7.03385 29.429 6.47839 28.9609L9.11387 24.3401C9.69296 24.8322 10.3075 25.2762 10.9812 25.6602C11.6193 26.0323 12.2812 26.3443 12.943 26.5964L23.2012 8.55724C26.2149 11.1257 27.8695 14.8824 27.8695 18.747C27.8695 20.9914 27.3022 23.2718 26.1204 25.3722C23.6977 29.621 19.3012 31.9974 14.7867 31.9974Z" fill="#642F6C"/>
<path d="M12.9432 26.5964C12.2696 26.3444 11.6196 26.0323 10.9814 25.6602C10.3077 25.2642 9.69317 24.8201 9.11407 24.34L19.3724 6.28879C20.046 6.54083 20.696 6.85289 21.3342 7.22496C22.0079 7.62103 22.6223 8.0651 23.2015 8.54519L12.9432 26.5964Z" fill="#A77BCA"/>
<g style="mix-blend-mode:multiply">
<g style="mix-blend-mode:multiply">
<path d="M12.9432 26.5964C12.2696 26.3444 11.6196 26.0323 10.9814 25.6602C10.3077 25.2642 9.69317 24.8201 9.11407 24.34L19.3724 6.28879C20.046 6.54083 20.696 6.85289 21.3342 7.22496C22.0079 7.62103 22.6223 8.0651 23.2015 8.54519L12.9432 26.5964Z" fill="#642F6C"/>
</g>
</g>
</svg>
