<?xml version="1.0" encoding="UTF-8"?>
<svg xmlns="http://www.w3.org/2000/svg" xmlns:xlink="http://www.w3.org/1999/xlink" width="32pt" height="8pt" viewBox="0 0 32 8" version="1.1">
<g id="surface1">
<path style=" stroke:none;fill-rule:nonzero;fill:rgb(100%,76.862745%,74.509804%);fill-opacity:1;" d="M 5.214844 2.203125 L 6.511719 1 C 5.707031 0.253906 4.578125 -0.105469 3.449219 0.0273438 C 2.324219 0.160156 1.324219 0.769531 0.746094 1.675781 C 2.191406 0.886719 4.027344 1.101562 5.214844 2.203125 Z M 5.214844 2.203125 "/>
<path style=" stroke:none;fill-rule:nonzero;fill:rgb(100%,29.411765%,26.666667%);fill-opacity:1;" d="M 1.316406 5.820312 L 0.015625 7.023438 C 0.820312 7.769531 1.949219 8.125 3.078125 7.992188 C 4.207031 7.859375 5.203125 7.253906 5.78125 6.34375 C 4.335938 7.136719 2.5 6.917969 1.316406 5.820312 Z M 1.316406 5.820312 "/>
<path style=" stroke:none;fill-rule:nonzero;fill:rgb(100%,76.862745%,74.509804%);fill-opacity:1;" d="M 5.214844 2.203125 L 1.316406 5.820312 C 2.5 6.917969 4.335938 7.136719 5.78125 6.347656 C 6.632812 5.007812 6.398438 3.300781 5.214844 2.203125 Z M 5.214844 2.203125 "/>
<path style=" stroke:none;fill-rule:nonzero;fill:rgb(100%,29.411765%,26.666667%);fill-opacity:1;" d="M 1.316406 5.820312 L 5.214844 2.203125 C 4.027344 1.101562 2.191406 0.886719 0.746094 1.675781 C -0.105469 3.015625 0.128906 4.71875 1.316406 5.820312 Z M 1.316406 5.820312 "/>
</g>
</svg>
