<svg width="32" height="32" viewBox="0 0 32 32" fill="none" xmlns="http://www.w3.org/2000/svg">
<g clip-path="url(#clip0_3788_17)">
<path d="M16 32C24.8366 32 32 24.8366 32 16C32 7.16344 24.8366 0 16 0C7.16344 0 0 7.16344 0 16C0 24.8366 7.16344 32 16 32Z" fill="#7E71FF"/>
<path d="M5.79428 11.9942C5.94991 11.9043 6.1287 11.8626 6.30805 11.8743C6.4874 11.886 6.65925 11.9506 6.80187 12.06C6.94449 12.1694 7.05146 12.3186 7.10926 12.4888C7.16707 12.659 7.1731 12.8425 7.1266 13.0161C7.08011 13.1897 6.98317 13.3456 6.84804 13.4641C6.71292 13.5827 6.54569 13.6584 6.36749 13.6819C6.1893 13.7054 6.00815 13.6755 5.84695 13.596C5.68576 13.5165 5.55176 13.3909 5.46191 13.2353C5.34147 13.0266 5.30882 12.7787 5.37115 12.5459C5.43347 12.3132 5.58567 12.1148 5.79428 11.9942M10.9615 4.37582C11.1171 4.28584 11.296 4.24404 11.4753 4.25572C11.6547 4.26739 11.8266 4.33201 11.9693 4.4414C12.1119 4.55078 12.2189 4.70003 12.2767 4.87024C12.3345 5.04045 12.3406 5.22399 12.294 5.39763C12.2475 5.57127 12.1505 5.7272 12.0154 5.84571C11.8802 5.96422 11.7129 6.03997 11.5347 6.06338C11.3565 6.0868 11.1753 6.05682 11.0141 5.97724C10.8529 5.89766 10.7189 5.77206 10.6291 5.61633C10.5694 5.51307 10.5307 5.39906 10.5151 5.28081C10.4995 5.16256 10.5073 5.04239 10.5382 4.92718C10.5691 4.81197 10.6224 4.70398 10.695 4.60937C10.7676 4.51476 10.8582 4.4354 10.9615 4.37582V4.37582ZM20.2565 8.72442C20.5165 8.57444 20.8151 8.50493 21.1146 8.52466C21.4142 8.54438 21.7011 8.65247 21.9392 8.83526C22.1773 9.01804 22.3559 9.26731 22.4523 9.55156C22.5488 9.83581 22.5588 10.1423 22.4811 10.4322C22.4034 10.7221 22.2415 10.9825 22.0158 11.1805C21.7901 11.3784 21.5109 11.505 21.2133 11.5442C20.9157 11.5834 20.6131 11.5336 20.3439 11.4009C20.0746 11.2682 19.8508 11.0586 19.7006 10.7987C19.6008 10.6261 19.536 10.4354 19.51 10.2377C19.4839 10.04 19.4971 9.83903 19.5487 9.64639C19.6003 9.45375 19.6894 9.27317 19.8108 9.11498C19.9323 8.95678 20.0837 8.82406 20.2565 8.72442V8.72442ZM17.5551 8.35331C17.6492 8.29916 17.7572 8.27411 17.8655 8.28134C17.9738 8.28856 18.0776 8.32773 18.1636 8.39389C18.2497 8.46006 18.3142 8.55025 18.349 8.65307C18.3838 8.75589 18.3874 8.86672 18.3593 8.97156C18.3311 9.07641 18.2725 9.17055 18.1909 9.24211C18.1092 9.31366 18.0082 9.35941 17.9006 9.37357C17.793 9.38773 17.6836 9.36967 17.5862 9.32167C17.4888 9.27368 17.4079 9.19789 17.3536 9.1039C17.3173 9.04157 17.2936 8.9727 17.284 8.90123C17.2743 8.82975 17.2789 8.75707 17.2974 8.68736C17.3158 8.61764 17.3479 8.55225 17.3916 8.49493C17.4354 8.43761 17.4901 8.38949 17.5525 8.35331H17.5551ZM19.1311 4.78147C19.2867 4.69174 19.4654 4.65016 19.6446 4.66198C19.8238 4.67381 19.9955 4.73851 20.138 4.84791C20.2804 4.9573 20.3872 5.10648 20.4449 5.27658C20.5025 5.44668 20.5085 5.63006 20.4619 5.80353C20.4154 5.97699 20.3184 6.13277 20.1833 6.25114C20.0483 6.36951 19.8811 6.44518 19.703 6.46856C19.525 6.49194 19.344 6.462 19.1829 6.38251C19.0218 6.30302 18.888 6.17756 18.7982 6.02198C18.7384 5.91885 18.6995 5.80495 18.6838 5.68678C18.668 5.56862 18.6757 5.44851 18.7064 5.33331C18.7371 5.21812 18.7901 5.11009 18.8625 5.0154C18.935 4.92072 19.0253 4.84123 19.1285 4.78147H19.1311ZM26.2057 20.4135C26.0501 20.5033 25.8714 20.5449 25.6922 20.5331C25.5129 20.5214 25.3412 20.4568 25.1987 20.3475C25.0561 20.2382 24.9492 20.0891 24.8914 19.919C24.8335 19.749 24.8274 19.5656 24.8737 19.3921C24.92 19.2185 25.0167 19.0626 25.1516 18.944C25.2865 18.8254 25.4536 18.7495 25.6316 18.7257C25.8096 18.702 25.9907 18.7316 26.152 18.8107C26.3132 18.8899 26.4474 19.015 26.5375 19.1704C26.5975 19.2738 26.6365 19.3879 26.6523 19.5064C26.6681 19.6249 26.6604 19.7453 26.6295 19.8608C26.5987 19.9763 26.5454 20.0845 26.4727 20.1794C26.3999 20.2742 26.3092 20.3538 26.2057 20.4135ZM11.7461 23.6812C11.4862 23.8315 11.1876 23.9013 10.888 23.8819C10.5884 23.8625 10.3013 23.7546 10.063 23.572C9.82472 23.3894 9.64593 23.1402 9.54925 22.856C9.45257 22.5718 9.44234 22.2652 9.51987 21.9752C9.59739 21.6852 9.75918 21.4246 9.98478 21.2265C10.2104 21.0284 10.4897 20.9017 10.7873 20.8623C11.0849 20.823 11.3875 20.8728 11.6569 21.0054C11.9262 21.138 12.1502 21.3475 12.3004 21.6074C12.5019 21.9559 12.5567 22.3702 12.4528 22.7591C12.3488 23.148 12.0946 23.4797 11.7461 23.6812V23.6812ZM14.4465 24.0523C14.3524 24.1065 14.2444 24.1315 14.136 24.1243C14.0277 24.1171 13.924 24.0779 13.8379 24.0118C13.7519 23.9456 13.6873 23.8554 13.6525 23.7526C13.6177 23.6498 13.6141 23.5389 13.6423 23.4341C13.6704 23.3292 13.729 23.2351 13.8107 23.1635C13.8923 23.092 13.9933 23.0462 14.1009 23.0321C14.2086 23.0179 14.318 23.036 14.4154 23.084C14.5127 23.132 14.5937 23.2078 14.648 23.3018C14.6842 23.3642 14.7077 23.4332 14.7171 23.5048C14.7266 23.5764 14.7218 23.6492 14.7031 23.7189C14.6844 23.7886 14.6521 23.854 14.608 23.9112C14.564 23.9684 14.5091 24.0164 14.4465 24.0523V24.0523ZM12.8704 27.6247C12.7148 27.7145 12.536 27.7562 12.3566 27.7444C12.1773 27.7326 12.0055 27.6679 11.8629 27.5585C11.7204 27.449 11.6135 27.2998 11.5557 27.1296C11.498 26.9594 11.492 26.7759 11.5386 26.6023C11.5852 26.4287 11.6822 26.2728 11.8173 26.1544C11.9525 26.0359 12.1197 25.9602 12.2979 25.9368C12.4761 25.9134 12.6573 25.9433 12.8184 26.0229C12.9796 26.1024 13.1135 26.228 13.2033 26.3837C13.3238 26.5923 13.3566 26.8402 13.2943 27.0729C13.2321 27.3056 13.08 27.5041 12.8715 27.6247H12.8704ZM17.4169 13.1348L20.3837 14.8474C20.5789 14.6247 20.8245 14.4516 21.1 14.3427C21.3755 14.2338 21.6729 14.1921 21.9678 14.2211C22.2626 14.2501 22.5462 14.3489 22.7952 14.5095C23.0442 14.67 23.2513 14.8875 23.3995 15.144C23.5476 15.4006 23.6324 15.6887 23.647 15.9846C23.6615 16.2805 23.6053 16.5756 23.483 16.8454C23.3607 17.1152 23.1759 17.352 22.9439 17.5362C22.7118 17.7203 22.4392 17.8465 22.1486 17.9042V21.0291C22.3775 21.085 22.5902 21.1934 22.7699 21.3458C22.9496 21.4982 23.0913 21.6903 23.1839 21.9069C23.2765 22.1235 23.3175 22.3588 23.3034 22.5939C23.2894 22.8291 23.2208 23.0578 23.1031 23.2619C22.9854 23.466 22.8218 23.6399 22.6253 23.7698C22.4288 23.8997 22.2047 23.9821 21.9708 24.0105C21.7369 24.0388 21.4997 24.0123 21.2778 23.9331C21.0559 23.8539 20.8555 23.7241 20.6925 23.554L18.0942 25.0537C18.1597 25.3401 18.1204 25.6406 17.9833 25.9005C17.8463 26.1604 17.6206 26.3626 17.3472 26.4704C17.0739 26.5782 16.7709 26.5844 16.4934 26.4879C16.2158 26.3915 15.982 26.1987 15.8344 25.9446C15.6868 25.6905 15.6352 25.3919 15.6889 25.103C15.7426 24.8141 15.898 24.5541 16.1271 24.37C16.3561 24.1859 16.6436 24.09 16.9373 24.0997C17.2309 24.1095 17.5114 24.2241 17.7278 24.4229L20.3282 22.9259C20.2713 22.7294 20.2547 22.5234 20.2794 22.3203C20.3041 22.1173 20.3696 21.9213 20.472 21.7441C20.5744 21.567 20.7115 21.4124 20.8751 21.2896C21.0388 21.1668 21.2255 21.0784 21.4242 21.0296V17.9037C21.1638 17.8521 20.9174 17.7454 20.7016 17.5908C20.4858 17.4363 20.3055 17.2374 20.1727 17.0075C20.04 16.7776 19.9579 16.5219 19.932 16.2577C19.9061 15.9935 19.937 15.7268 20.0225 15.4755L17.0557 13.7629C16.84 13.9633 16.5595 14.0796 16.2653 14.0908C15.971 14.102 15.6825 14.0072 15.4522 13.8237C15.2219 13.6403 15.065 13.3803 15.0101 13.091C14.9552 12.8017 15.0059 12.5023 15.153 12.2472C15.3001 11.9921 15.5339 11.7982 15.8118 11.7008C16.0896 11.6034 16.3933 11.609 16.6674 11.7164C16.9416 11.8239 17.1681 12.0261 17.3058 12.2864C17.4435 12.5466 17.4833 12.8477 17.4179 13.1348H17.4169ZM14.582 19.2709L11.6158 17.5582C11.4376 17.7617 11.2172 17.9239 10.97 18.0336C10.7227 18.1433 10.4546 18.1979 10.1842 18.1936C9.91376 18.1892 9.64751 18.1261 9.40391 18.0086C9.16032 17.8911 8.94523 17.7219 8.77356 17.5129C8.60189 17.3039 8.47777 17.0601 8.4098 16.7983C8.34183 16.5365 8.33165 16.263 8.37997 15.9969C8.42828 15.7308 8.53393 15.4784 8.68958 15.2572C8.84523 15.036 9.04715 14.8514 9.28133 14.716C9.45805 14.6136 9.65047 14.5411 9.85081 14.5014V11.3766C9.6221 11.3206 9.40956 11.2121 9.22999 11.0598C9.05042 10.9075 8.90874 10.7155 8.81617 10.499C8.7236 10.2825 8.68266 10.0474 8.6966 9.81237C8.71054 9.57732 8.77898 9.34873 8.89649 9.14468C9.01401 8.94064 9.17738 8.76673 9.3737 8.63671C9.57002 8.50669 9.79389 8.42412 10.0276 8.39554C10.2613 8.36696 10.4985 8.39314 10.7204 8.47202C10.9422 8.55091 11.1427 8.68032 11.3059 8.85004L13.9042 7.34991C13.8386 7.06333 13.8779 6.76273 14.015 6.50266C14.1521 6.24259 14.3779 6.04028 14.6514 5.93243C14.9249 5.82458 15.228 5.81834 15.5057 5.91485C15.7834 6.01135 16.0173 6.2042 16.1649 6.45841C16.3126 6.71262 16.3643 7.01134 16.3105 7.30037C16.2568 7.58941 16.1012 7.84961 15.8721 8.03376C15.6429 8.21791 15.3553 8.31381 15.0615 8.30407C14.7677 8.29432 14.4871 8.17957 14.2706 7.98063L11.6723 9.48077C11.7287 9.67728 11.7449 9.88313 11.7199 10.086C11.695 10.289 11.6294 10.4848 11.5271 10.6618C11.4248 10.8388 11.2879 10.9933 11.1245 11.1162C10.9612 11.2391 10.7747 11.3279 10.5763 11.3771V14.502C10.8367 14.5536 11.0831 14.6602 11.2989 14.8148C11.5147 14.9694 11.695 15.1683 11.8278 15.3982C11.9605 15.6281 12.0426 15.8837 12.0685 16.1479C12.0944 16.4121 12.0635 16.6788 11.978 16.9301L14.9448 18.6428C15.1605 18.4424 15.441 18.326 15.7352 18.3148C16.0295 18.3037 16.318 18.3984 16.5483 18.5819C16.7786 18.7654 16.9355 19.0254 16.9904 19.3147C17.0453 19.604 16.9946 19.9034 16.8475 20.1585C16.7004 20.4136 16.4666 20.6074 16.1887 20.7048C15.9109 20.8022 15.6072 20.7967 15.3331 20.6892C15.0589 20.5818 14.8324 20.3796 14.6947 20.1193C14.557 19.859 14.5172 19.558 14.5826 19.2709H14.582Z" fill="white"/>
</g>
<defs>
<clipPath id="clip0_3788_17">
<rect width="32" height="32" fill="white"/>
</clipPath>
</defs>
</svg>
