<svg width="32" height="32" viewBox="0 0 32 32" fill="none" xmlns="http://www.w3.org/2000/svg">
<path d="M11.5046 31.8673C9.08657 31.8673 5.67358 31.1614 2.26367 28.0931L4.93891 25.1185C9.72039 29.4225 14.7025 27.7227 16.2408 26.2863C16.3437 26.1834 16.4466 26.0857 16.5495 25.9838C11.5138 25.494 7.83229 21.9257 7.57814 21.6746C3.72168 17.8768 2.84502 12.7228 5.59023 9.93235C8.33544 7.14187 13.4997 7.93106 17.3582 11.7176C17.6967 12.0406 21.4565 15.7304 22.1942 20.4018C23.3057 19.5734 24.2086 18.4972 24.8311 17.2586C25.4536 16.0201 25.7785 14.6533 25.7801 13.2671C25.7897 12.0944 25.5622 10.9318 25.1113 9.84919C24.6605 8.76655 23.9955 7.78619 23.1563 6.96695C21.4019 5.25377 18.9191 4.31023 16.179 4.31023V0.308685C19.9666 0.308685 23.4361 1.65454 25.9488 4.09827C28.4234 6.50393 29.7847 9.75743 29.7847 13.2671C29.7806 15.8318 29.0137 18.3373 27.5816 20.4648C26.1495 22.5924 24.117 24.246 21.7425 25.2152C21.1961 26.6619 20.2701 27.9985 18.9736 29.2116C17.6988 30.4021 15.2057 31.7212 12.0304 31.856C11.8606 31.8642 11.6857 31.8673 11.5046 31.8673ZM9.82123 12.2444C9.26251 12.2444 8.782 12.3956 8.44657 12.7372C7.46187 13.7394 8.08438 16.5556 10.3923 18.8296L10.4026 18.8409C10.4355 18.8728 14.0471 22.3753 18.3254 22.0162V22.009C18.345 18.2307 14.6325 14.649 14.5945 14.613L14.5688 14.5883C13.1961 13.2373 11.2504 12.2444 9.82123 12.2444Z" fill="black"/>
</svg>
