<svg width="32" height="32" viewBox="0 0 32 32" fill="none" xmlns="http://www.w3.org/2000/svg">
<path fill-rule="evenodd" clip-rule="evenodd" d="M16.8352 29.8976L16.8896 30.128C16.9474 30.3829 16.9474 30.6475 16.8896 30.9024C16.8378 31.1231 16.736 31.329 16.592 31.504C16.4592 31.6643 16.29 31.7906 16.0985 31.8725C15.9071 31.9543 15.6989 31.9892 15.4912 31.9744C15.2707 31.9601 15.0542 31.9081 14.8512 31.8208C14.6531 31.7383 14.4669 31.6296 14.2976 31.4976C14.1241 31.3529 13.9703 31.1862 13.84 31.0016C13.7053 30.8127 13.5976 30.6059 13.52 30.3872C13.519 30.3734 13.519 30.3595 13.52 30.3456V30.304C13.5186 30.2902 13.5186 30.2763 13.52 30.2624V30.2432V30.1984C13.5936 30.24 13.664 30.2848 13.7344 30.3328C13.8044 30.3826 13.8716 30.436 13.936 30.4928C14.0415 30.5876 14.1265 30.7031 14.1856 30.832L14.2176 30.9152V30.9472V30.9664V30.9824V31.0144C14.2191 31.0261 14.2191 31.0379 14.2176 31.0496C14.3104 31.1264 14.4 31.2032 14.496 31.2704C14.5872 31.3414 14.6835 31.4055 14.784 31.4624C14.8851 31.5195 14.9925 31.5646 15.104 31.5968C15.2073 31.6321 15.315 31.6526 15.424 31.6576C15.5217 31.6645 15.6196 31.6469 15.7088 31.6064C15.784 31.5682 15.8505 31.5148 15.904 31.4496C15.9589 31.3772 16.0091 31.3013 16.0544 31.2224C16.1024 31.136 16.1536 31.0464 16.2112 30.96L16.192 30.912V30.8672L16.1728 30.8192V30.768C16.1528 30.6816 16.1641 30.5909 16.2048 30.512C16.2511 30.4267 16.313 30.3507 16.3872 30.288C16.4681 30.2159 16.5548 30.1506 16.6464 30.0928L16.8992 29.92L16.8352 29.8976ZM20.0672 19.4176C19.606 20.0782 19.1932 20.7712 18.832 21.4912C18.4468 22.258 18.1174 23.0515 17.8464 23.8656C17.258 25.6371 16.9408 27.4873 16.9056 29.3536C16.6684 29.0502 16.4544 28.7293 16.2656 28.3936C16.0732 28.0552 15.9053 27.7033 15.7632 27.3408C15.6158 26.968 15.495 26.5851 15.4016 26.1952C15.2406 25.5221 15.1558 24.8329 15.1488 24.1408C15.1488 23.8656 15.1488 23.5904 15.1744 23.3184C15.212 22.779 15.2955 22.2437 15.424 21.7184L20.0672 19.4176ZM10.0992 22.3456L12.1152 22.4096C12.2656 22.7904 12.4 23.1776 12.5152 23.568C12.7395 24.32 12.9053 25.0881 13.0112 25.8656C13.0592 26.2016 13.0944 26.5344 13.12 26.864C13.1456 27.1936 13.1648 27.52 13.1712 27.8432C13.1776 28.1664 13.1712 28.4832 13.1712 28.784C12.9888 28.1088 12.7744 27.4368 12.5312 26.7776C12.3104 26.1824 12.064 25.5936 11.7888 25.0208C11.5451 24.5109 11.2727 24.0151 10.9728 23.536C10.7089 23.124 10.417 22.7305 10.0992 22.3584V22.3456ZM8.58561 19.088L9.47521 21.7088C9.26512 21.5216 9.0404 21.3515 8.80321 21.2C8.59351 21.0619 8.37054 20.945 8.13761 20.8512C7.93233 20.7664 7.71737 20.7073 7.49761 20.6752C7.28529 20.6458 7.06993 20.6458 6.85761 20.6752C6.92344 20.5163 7.00266 20.3632 7.09441 20.2176C7.17279 20.095 7.26165 19.9793 7.36001 19.872C7.45247 19.7721 7.55308 19.6801 7.66081 19.5968C7.76641 19.5136 7.88161 19.4336 8.00321 19.3536L8.07041 19.312L8.20481 19.2384L8.27521 19.2064L8.35201 19.1744L8.42881 19.1456L8.58561 19.088ZM9.04001 19.088C9.28486 19.1013 9.52442 19.1645 9.74401 19.2736C10.0031 19.3988 10.2416 19.5629 10.4512 19.76C10.7048 19.997 10.9342 20.2585 11.136 20.5408C11.3245 20.8057 11.4955 21.0826 11.648 21.3696L11.7696 21.6L9.88481 21.5776L9.04001 19.088ZM5.76001 3.72803C5.97334 5.10829 6.23041 6.47896 6.53121 7.84003C6.68801 8.55043 6.85121 9.27043 7.04641 9.99363C7.24161 10.7168 7.43681 11.4688 7.65121 12.2016C7.97121 13.2982 8.32108 14.3883 8.70081 15.472C8.88641 15.9968 9.07841 16.512 9.27041 17.0112C9.46241 17.5104 9.66081 18.0032 9.86241 18.4768C9.77639 18.4356 9.68765 18.4003 9.59681 18.3712C9.42705 18.3169 9.25023 18.2878 9.07201 18.2848C8.98632 18.285 8.90076 18.2914 8.81601 18.304C8.61334 17.6896 8.42134 17.072 8.24001 16.4512C8.05441 15.8112 7.87201 15.1712 7.69921 14.48C7.34081 13.0742 7.02081 11.6608 6.73921 10.24C6.42561 8.62509 6.16108 6.98776 5.94561 5.32803C5.87841 4.79683 5.81761 4.27203 5.76001 3.75363V3.72803ZM24.5696 14.3808C24.8199 14.3771 25.0701 14.391 25.3184 14.4224C25.5753 14.4574 25.8289 14.5131 26.0768 14.5888C25.6294 14.7629 25.1933 14.9649 24.7712 15.1936C24.3287 15.4294 23.9013 15.6923 23.4912 15.9808C23.071 16.2774 22.6682 16.5979 22.2848 16.9408C21.9861 17.2054 21.6981 17.487 21.4208 17.7856L21.1456 18.0864L21.504 14.8864C21.7216 14.816 21.9424 14.7488 22.1664 14.6944L22.4864 14.6144L22.656 14.5824L22.8256 14.5536H22.8832C23.2032 14.5056 23.4752 14.464 23.7504 14.4352C24.0256 14.4064 24.3136 14.4096 24.5696 14.4064V14.3808Z" fill="#202024"/>
<path fill-rule="evenodd" clip-rule="evenodd" d="M15.808 20.5216L15.8336 20.464L15.856 20.4064L15.8784 20.3488L15.904 20.2944C16.135 19.5633 16.4575 18.8645 16.864 18.2144C17.3142 17.4896 17.7265 16.7419 18.0992 15.9744C18.5587 14.967 18.894 13.9075 19.0976 12.8192C19.3744 11.3006 19.4923 9.75739 19.4496 8.2144C19.4368 7.41867 19.4176 6.64533 19.392 5.8944C19.3664 5.184 19.3248 4.4704 19.264 3.76C19.2128 3.10293 19.136 2.44907 19.0336 1.7984C18.9393 1.19299 18.8143 0.592749 18.6592 0C19.0048 0.904533 19.3056 1.82613 19.5616 2.7648C19.8368 3.7856 20.0576 4.816 20.2304 5.856C20.3488 6.5728 20.4576 7.3632 20.5504 8.2208C20.6432 9.0784 20.6976 10.0448 20.72 11.0656C20.7413 12.1877 20.7157 13.3109 20.6432 14.4352C20.5536 15.7632 20.4032 17.0912 20.1952 18.4064L15.808 20.5216Z" fill="#494C4F"/>
</svg>
