<svg width="32" height="32" viewBox="0 0 32 32" fill="none" xmlns="http://www.w3.org/2000/svg">
<path d="M7.48224 23.4403C7.48224 23.4403 10.5923 28.0478 16.3682 28.0478C19.3514 28.0478 22.7153 26.8192 22.7153 24.5461C22.7153 22.0887 20.5573 20.86 16.0509 20C9.76723 18.7712 5.32422 16.3754 5.32422 11.0306C5.32422 8.12226 7.44797 5.24713 10.9998 3.80957C5.03732 5.83445 0.761902 11.3304 0.761902 17.7933C0.761902 21.1439 1.91073 24.234 3.84915 26.7159L7.48224 23.4403Z" fill="#5655D1"/>
<path d="M26.8526 7.27686L23.4772 10.6619C23.4772 10.6619 20.5575 7.52874 16.1145 7.52874C12.3697 7.52874 10.529 9.31033 10.529 11.1534C10.529 13.3036 12.814 14.4708 17.6378 15.4538C23.2233 16.621 27.9836 18.6484 27.9836 24.4231C27.9836 26.0217 27.4733 27.3941 26.6101 28.5368C29.5463 25.8374 31.3768 22.0223 31.3768 17.7932C31.3768 13.682 29.6466 9.96153 26.8526 7.27686Z" fill="#34E0A1"/>
</svg>
