<?xml version="1.0" encoding="UTF-8"?>
<svg width="28" height="22" viewBox="0 0 28 22" fill="none" xmlns="http://www.w3.org/2000/svg">
    <path d="M16.2594 4.55682L17.5526 5.88637L8.91977 14.5455C6.96503 16.5036 3.79578 16.5036 1.84105 14.5455C-0.113684 12.5874 -0.113684 9.41265 1.84105 7.45455L9.28278 0L10.5874 1.34091L3.191 8.79546C1.97555 10.0255 1.98571 12.0097 3.21369 13.2273C4.44166 14.4448 6.42244 14.4346 7.63789 13.2046L16.2594 4.55682ZM14.6712 3.05684L6.0497 11.6932L4.68841 10.3523L13.3326 1.70457C15.2893 -0.248745 18.4546 -0.248745 20.4113 1.70457L21.0806 2.37502L19.742 3.7273L19.0727 3.05684C18.4911 2.46835 17.6987 2.13724 16.872 2.13724C16.0453 2.13724 15.2529 2.46835 14.6712 3.05684ZM26.1401 7.45454C24.1834 5.50123 21.0181 5.50123 19.0614 7.45454L10.4285 16.1136L11.7785 17.4659L20.4 8.81818C21.6158 7.61218 23.5744 7.61218 24.7902 8.81818C26.0016 10.0374 26.0016 12.0081 24.7902 13.2273L17.3938 20.6591L18.7438 22L26.1855 14.5455C28.123 12.5729 28.1027 9.40208 26.1401 7.45454ZM13.3099 18.9432L21.9315 10.3068L23.2928 11.6477L14.6599 20.2955C12.7032 22.2488 9.53788 22.2488 7.58117 20.2955L6.91187 19.625L8.23913 18.2614L8.90843 18.9432C10.1281 20.1505 12.0903 20.1505 13.3099 18.9432Z" fill="#000000"></path>
</svg>