<svg width="100" height="100" viewBox="0 0 100 100" fill="none" xmlns="http://www.w3.org/2000/svg">
<path d="M83.0205 0.305908H16.7617C7.58424 0.305908 0.144897 7.74525 0.144897 16.9227V83.1815C0.144897 92.359 7.58424 99.7984 16.7617 99.7984H83.0205C92.198 99.7984 99.6374 92.359 99.6374 83.1815V16.9227C99.6374 7.74525 92.198 0.305908 83.0205 0.305908ZM81.5605 76.4722C81.5605 79.3576 79.1966 81.7215 76.3112 81.7215H23.471C20.5857 81.7215 18.2218 79.3576 18.2218 76.4722V23.6321C18.2218 20.7467 20.5857 18.3828 23.471 18.3828H76.3112C79.1966 18.3828 81.5605 20.7467 81.5605 23.6321V76.4722Z" fill="black"/>
<path d="M39.3231 63.575C37.6545 63.575 36.2987 62.2193 36.2987 60.5506V39.4493C36.2987 37.7807 37.6545 36.4249 39.3231 36.4249H60.4592C62.1278 36.4249 63.4836 37.7807 63.4836 39.4493V60.5506C63.4836 62.2193 62.1278 63.575 60.4592 63.575H39.3231Z" fill="black"/>
</svg>
