<svg width="70" height="70" viewBox="0 0 70 70" fill="none" xmlns="http://www.w3.org/2000/svg">
<rect width="70" height="70" fill="black"/>
<path d="M18.5751 39.872C18.5751 39.078 18.3121 38.466 17.7861 38.031C17.2601 37.598 16.3171 37.14 14.9561 36.655C12.1111 35.758 10.0031 34.797 8.63211 33.771C7.26011 32.745 6.57411 31.264 6.57411 29.325C6.57411 27.438 7.39111 25.913 9.02511 24.748C10.6591 23.582 12.7331 23 15.2491 23C17.7451 23 19.7891 23.641 21.3821 24.925C22.9741 26.208 23.7451 27.862 23.6931 29.881L23.6621 29.975H18.5901C18.5901 29.078 18.2861 28.348 17.6771 27.786C17.0681 27.225 16.2281 26.944 15.1561 26.944C14.1051 26.944 13.2801 27.176 12.6811 27.64C12.0831 28.105 11.7851 28.676 11.7851 29.356C11.7851 30.016 12.0861 30.545 12.6891 30.942C13.2921 31.339 14.4231 31.836 16.0831 32.434C18.6411 33.196 20.5661 34.135 21.8601 35.249C23.1531 36.362 23.8001 37.893 23.8001 39.842C23.8001 41.822 23.0291 43.371 21.4881 44.489C19.9481 45.607 17.9031 46.167 15.3571 46.167C12.8011 46.167 10.5891 45.526 8.72411 44.242C6.85711 42.958 5.95011 41.11 6.00211 38.698L6.03311 38.605H11.1211C11.1211 39.903 11.4721 40.832 12.1731 41.388C12.8731 41.945 13.9361 42.223 15.3581 42.223C16.4411 42.223 17.2471 42.007 17.7791 41.574C18.3101 41.14 18.5751 40.573 18.5751 39.872Z" fill="white"/>
<path d="M60.4821 23.149L52.5681 45.973H53.3641H57.5141L65.6171 23.149H60.4821Z" fill="white"/>
<path d="M50.9901 23.149L43.0771 45.973H48.0231L56.1261 23.149H50.9901Z" fill="white"/>
<path d="M32.448 34.07H35.686C36.835 34.07 37.711 33.754 38.311 33.121C38.912 32.489 39.212 31.677 39.212 30.684C39.212 29.67 38.912 28.84 38.311 28.191C37.71 27.544 36.835 27.22 35.686 27.22H32.448V34.07ZM32.448 38.146V45.969H27.134V23.144H35.686C38.393 23.144 40.54 23.837 42.128 25.221C43.716 26.607 44.511 28.417 44.511 30.653C44.511 32.9 43.716 34.711 42.128 36.085C40.54 37.46 38.392 38.146 35.686 38.146H32.448Z" fill="white"/>
</svg>
