<svg width="32" height="32" viewBox="0 0 32 32" fill="none" xmlns="http://www.w3.org/2000/svg">
<path d="M30.3963 21.75L24.4122 12.8591L29.1233 10.5238C29.7087 10.2296 30.0711 9.65037 30.0711 8.99757C30.0711 8.34477 29.7087 7.76551 29.1233 7.47132L17.1086 1.54103C16.5697 1.27439 15.9564 1.21003 15.3803 1.35714C15.2316 1.38472 15.083 1.4307 14.9436 1.50425L13.4289 2.24899L2.84524 7.48971L2.23196 7.79309C1.79523 8.01377 1.47001 8.40916 1.33992 8.87802C1.20983 9.34695 1.29346 9.85261 1.57222 10.2572L7.55634 19.148L2.84524 21.4833C2.25984 21.7776 1.89745 22.3568 1.89745 23.0096C1.89745 23.6624 2.25984 24.2416 2.84524 24.5359L14.8599 30.4845C15.213 30.6592 15.594 30.742 15.9843 30.742C16.1887 30.742 16.3931 30.7144 16.5882 30.6684C16.7369 30.6408 16.8856 30.5949 17.025 30.5213L17.1086 30.4845L29.1233 24.5359L29.7366 24.2325C30.1733 24.0118 30.4985 23.6165 30.6286 23.1475C30.7587 22.6602 30.6751 22.1546 30.3963 21.75ZM16.3002 28.802L10.2789 19.856L15.9935 17.0334L28.0454 23.0004L16.3002 28.802ZM15.6684 3.20518L21.6989 12.1512L15.9843 14.9738L3.92312 9.00679L15.6684 3.20518ZM27.4043 20.6283L18.0564 16.0036L22.7303 13.6958L27.4043 20.6283ZM23.3715 11.3237L18.6975 4.39125L28.0454 9.00679L23.3715 11.3237ZM4.56428 11.3789L13.9121 16.0036L9.23821 18.3114L4.56428 11.3789ZM8.59706 20.6835L13.271 27.6159L3.92312 23.0004L8.59706 20.6835Z" fill="#3333FF"/>
</svg>
