<svg width="32" height="32" viewBox="0 0 32 32" fill="none" xmlns="http://www.w3.org/2000/svg">
<path d="M3.96148 5.77803C4.03414 5.70443 4.09326 5.60112 4.18154 5.56121C7.23446 4.1768 10.289 2.79601 13.3452 1.41889C14.0272 1.11093 14.7112 0.807143 15.3874 0.486578C15.5208 0.402451 15.6433 0.302256 15.7523 0.188232H16.1962C16.4867 0.37772 16.7867 0.551995 17.0952 0.710383C20.0693 2.06191 23.0469 3.40755 26.0277 4.74729C26.5379 4.9775 27.051 5.20148 27.5579 5.43828C27.6529 5.49665 27.7406 5.56618 27.8192 5.64536C27.7399 5.72423 27.6748 5.83659 27.5792 5.87743C25.7753 6.6475 23.965 7.40382 22.1619 8.17389C20.2675 8.98331 18.3818 9.81287 16.482 10.6087C16.2066 10.7241 16.3622 10.8346 16.3895 10.9685L16.122 10.9709C16.009 10.8638 15.8837 10.7703 15.7488 10.6923C14.1979 10.0211 12.6429 9.36072 11.089 8.69531C9.23696 7.9019 7.38943 7.09775 5.53211 6.31695C5.02275 6.10312 4.48571 5.95572 3.96148 5.77803Z" fill="#B1D17D"/>
<path d="M27.9511 26.681C27.5528 26.8896 27.1664 27.1256 26.7543 27.3022C23.3533 28.7636 19.9462 30.2114 16.5446 31.6721C16.3812 31.7533 16.2019 31.7976 16.0195 31.8018C15.837 31.8059 15.6559 31.7698 15.489 31.696C11.736 30.0815 7.98042 28.4731 4.22237 26.8707C4.18246 26.8538 4.14707 26.8282 3.95883 26.7222L15.7823 21.4385L16.0134 21.437C16.1425 21.455 16.2696 21.4855 16.3929 21.5279C18.823 22.6254 21.2519 23.7256 23.6795 24.8284C25.0642 25.4543 26.4529 26.0708 27.8395 26.6919L27.9511 26.681Z" fill="#367430"/>
<path d="M16.0136 21.4377L15.7825 21.4392C15.6626 21.3019 15.5231 21.183 15.3684 21.0865C12.3912 19.8052 9.41119 18.5306 6.42829 17.2627C5.68231 16.9442 4.93409 16.6298 4.19734 16.2914C4.13372 16.2566 4.07891 16.2078 4.03711 16.1485C3.99532 16.0893 3.96764 16.0213 3.95621 15.9497C3.94849 12.559 3.95621 9.16835 3.96129 5.77766C4.48552 5.95573 5.02257 6.10312 5.53155 6.31714C7.38887 7.09794 9.2364 7.9019 11.0884 8.69531C12.6418 9.36072 14.1973 10.0211 15.7482 10.6925C15.8832 10.7704 16.0085 10.864 16.1215 10.9713C16.0724 11.1041 16.0392 11.2422 16.0225 11.3828C16.0191 14.7071 16.0199 18.0315 16.0248 21.356C16.0184 21.3828 16.0147 21.4102 16.0136 21.4377V21.4377Z" fill="#8CBE3F"/>
<path d="M16.0251 21.356C16.0229 18.0317 16.0221 14.7073 16.0229 11.383C16.0396 11.2424 16.0728 11.1043 16.1219 10.9715L16.3895 10.9688L16.6154 11.0468L16.8311 11.1572L16.9751 11.2115L17.1877 11.3314L17.4203 11.4193L17.4943 11.4599L17.7751 11.5659L17.9886 11.6849L18.1324 11.7344L18.3485 11.8547L19.3734 12.2972L19.4527 12.3435L19.7287 12.4508L19.9425 12.5688L20.0837 12.6234L20.3027 12.7377L20.5287 12.8318L20.6151 12.8711L20.8861 12.9801L20.9787 13.0426L21.2468 13.1471L21.4069 13.2333L21.6099 13.3086L21.7765 13.3985L22.1284 13.5435L22.2117 13.5797L22.488 13.6935L22.5742 13.7485L22.8443 13.8598L22.9969 13.9473L23.1956 14.0341L23.4146 14.1447C23.6371 14.2397 23.8596 14.3346 24.082 14.4295L24.1648 14.4661L24.4338 14.5954L24.5243 14.6419L24.7931 14.7525L24.8912 14.809L25.0478 14.8617L25.2628 14.9677L25.9513 15.2794L26.1177 15.3557L26.2026 15.3888L26.4136 15.5047L27.0034 15.7377L27.2151 15.8556L27.3595 15.9096L27.5748 16.0269L27.9274 16.2176L27.8726 16.3147C27.7064 16.3987 27.5449 16.4935 27.3734 16.5647C26.3946 16.9716 25.4092 17.3624 24.4345 17.7788C23.1922 18.3092 21.9624 18.8679 20.7197 19.3976C19.9799 19.7125 19.2214 19.9828 18.4797 20.2925C17.6562 20.6347 16.8426 21.0001 16.0251 21.356Z" fill="#67B033"/>
<path d="M27.8725 16.3143L27.9272 16.2172C27.9962 16.3279 28.0448 16.45 28.0708 16.5779C28.0787 19.8356 28.0787 23.0933 28.0708 26.351C28.0495 26.467 28.0088 26.5787 27.9504 26.6812L27.8397 26.6923C27.8734 26.5368 27.8958 26.379 27.9067 26.2202C27.9106 23.0641 27.911 19.9081 27.908 16.752C27.9086 16.6059 27.8851 16.4602 27.8725 16.3143Z" fill="#B1D17D"/>
<path d="M23.4143 14.144L23.1952 14.0333L23.4143 14.144Z" fill="#B1D17D"/>
<path d="M17.1861 11.3312L16.9736 11.2113L17.1861 11.3312Z" fill="#B1D17D"/>
<path d="M17.9882 11.6854L17.7747 11.5665L17.9882 11.6854Z" fill="#B1D17D"/>
<path d="M16.8304 11.1571L16.6147 11.0466L16.8304 11.1571Z" fill="#B1D17D"/>
<path d="M25.2628 14.9669L25.0478 14.861L25.2628 14.9669Z" fill="#B1D17D"/>
<path d="M26.4136 15.5034L26.2026 15.3875L26.4136 15.5034Z" fill="#B1D17D"/>
<path d="M27.2149 15.855L27.0032 15.7372L27.2149 15.855Z" fill="#B1D17D"/>
<path d="M27.5737 16.0265L27.3584 15.9093L27.5737 16.0265Z" fill="#B1D17D"/>
<path d="M20.3026 12.7376L20.0835 12.6234L20.3026 12.7376Z" fill="#B1D17D"/>
<path d="M19.9421 12.5688L19.7282 12.4508L19.9421 12.5688Z" fill="#B1D17D"/>
<path d="M18.3479 11.8545L18.1318 11.7342L18.3479 11.8545Z" fill="#B1D17D"/>
<path d="M21.7763 13.398L21.6097 13.308L21.7763 13.398Z" fill="#B1D17D"/>
<path d="M22.9966 13.9467L22.8439 13.8592L22.9966 13.9467Z" fill="#B1D17D"/>
<path d="M26.1185 15.3551L25.9521 15.2788L26.1185 15.3551Z" fill="#B1D17D"/>
<path d="M21.4065 13.2333L21.2464 13.1471L21.4065 13.2333Z" fill="#B1D17D"/>
<path d="M22.2113 13.5789L22.1281 13.5428L22.2113 13.5789Z" fill="#B1D17D"/>
<path d="M22.574 13.7481L22.4878 13.6932L22.574 13.7481Z" fill="#B1D17D"/>
<path d="M20.9785 13.0424L20.8859 12.9799L20.9785 13.0424Z" fill="#B1D17D"/>
<path d="M24.1646 14.4655L24.0817 14.429L24.1646 14.4655Z" fill="#B1D17D"/>
<path d="M24.5241 14.6413C24.4939 14.6256 24.4637 14.61 24.4335 14.5946L24.5241 14.6413Z" fill="#B1D17D"/>
<path d="M24.8917 14.8083L24.7937 14.7518L24.8917 14.8083Z" fill="#B1D17D"/>
<path d="M17.4937 11.4596L17.4197 11.4189L17.4937 11.4596Z" fill="#B1D17D"/>
<path d="M20.6147 12.8709L20.5283 12.8316L20.6147 12.8709Z" fill="#B1D17D"/>
<path d="M19.4523 12.3433L19.373 12.297L19.4523 12.3433Z" fill="#B1D17D"/>
<path d="M27.8724 16.3141C27.8852 16.46 27.9088 16.6057 27.909 16.7518C27.9111 19.9078 27.9106 23.0639 27.9076 26.22C27.8967 26.3788 27.8744 26.5366 27.8406 26.6921C26.4533 26.0709 25.0644 25.4551 23.6806 24.8286C21.2509 23.7304 18.822 22.6302 16.394 21.5281C16.2707 21.4857 16.1437 21.4552 16.0146 21.4372C16.0158 21.4096 16.0196 21.3822 16.0261 21.3554C16.8437 20.9995 17.6571 20.6339 18.4799 20.2906C19.2219 19.9808 19.9805 19.7107 20.7199 19.3958C21.9622 18.8668 23.1927 18.3081 24.4349 17.7769C25.4096 17.3605 26.395 16.9698 27.3738 16.5628C27.5445 16.493 27.7062 16.3981 27.8724 16.3141Z" fill="#489734"/>
</svg>
