<svg width="32" height="32" viewBox="0 0 32 32" fill="none" xmlns="http://www.w3.org/2000/svg">
<path d="M29.1969 28.2479L27.5726 18.5851L25.9452 5.71651H6.1272L4.4636 18.5851L2.8 28.2664H2.824C5.7921 30.4558 10.7132 31.2697 16.024 31.2697C21.335 31.2697 26.5778 30.4558 29.224 28.2664C29.2152 28.26 29.2058 28.2541 29.1969 28.2479Z" fill="#6E6AFF"/>
<path d="M20.8455 2.581C19.5645 1.441 17.8255 0.800003 16.0125 0.800003C14.1995 0.800003 12.4605 1.441 11.1785 2.581C9.8965 3.721 9.1766 5.267 9.1766 6.88H11.9865C12.0105 5.838 12.4315 4.756 13.1645 4.022C13.9195 3.266 14.9445 2.841 16.0125 2.841C17.0806 2.841 18.1045 3.266 18.8605 4.022C19.5935 4.756 20.0145 5.838 20.0385 6.88H22.8476C22.8476 5.267 22.1275 3.721 20.8455 2.581Z" fill="#6E6AFF"/>
<path d="M16.024 26.8631C18.7437 26.8631 21.1614 27.0834 23.2098 27.5177C24.6063 27.8137 25.8381 28.2107 26.8926 28.7035C24.4722 29.8379 20.6532 30.4697 16.024 30.4697C11.4422 30.4697 7.7577 29.8538 5.2115 28.6759C7.811 27.4719 11.4356 26.8631 16.024 26.8631Z" fill="#00E68E"/>
<path d="M12.1354 18.008C13.4004 20.1051 16.1338 20.7718 18.2405 19.4971C20.3472 18.2224 21.0296 15.489 19.7646 13.392C18.4996 11.2949 15.7662 10.6282 13.6595 11.9029C12.7164 12.4735 12.0589 13.3364 11.7335 14.3036" stroke="white" stroke-miterlimit="10" stroke-linecap="round"/>
<path d="M14.1986 18.1214C13.2327 17.7746 12.0124 17.3365 12.0124 17.3365C12.0124 17.3365 11.3667 18.3418 10.8908 19.0825" stroke="white" stroke-linecap="round"/>
</svg>
