<svg xmlns="http://www.w3.org/2000/svg" xmlns:xlink="http://www.w3.org/1999/xlink" viewBox="0 0 33.92 29.9"><defs><style>.cls-1{fill:url(#linear-gradient);}.cls-2{fill:url(#linear-gradient-2);}.cls-3{fill:url(#linear-gradient-3);}.cls-4{fill:url(#linear-gradient-4);}.cls-5{fill:url(#linear-gradient-5);}.cls-6{fill:url(#linear-gradient-6);}</style><linearGradient id="linear-gradient" x1="16.29" y1="1.58" x2="27.67" y2="22.22" gradientUnits="userSpaceOnUse"><stop offset="0" stop-color="#fadc22"/><stop offset="0.25" stop-color="#f6aa22"/><stop offset="0.54" stop-color="#f37522"/><stop offset="0.68" stop-color="#f16022"/><stop offset="1" stop-color="#d92427"/></linearGradient><linearGradient id="linear-gradient-2" x1="8.14" y1="25.95" x2="9.05" y2="15.06" gradientUnits="userSpaceOnUse"><stop offset="0" stop-color="#fadc22"/><stop offset="0.36" stop-color="#f6aa22"/><stop offset="0.79" stop-color="#f37522"/><stop offset="1" stop-color="#f16022"/></linearGradient><linearGradient id="linear-gradient-3" x1="32.08" y1="8.28" x2="4.99" y2="29.63" gradientUnits="userSpaceOnUse"><stop offset="0" stop-color="#fadc22"/><stop offset="0.21" stop-color="#f6aa22"/><stop offset="0.45" stop-color="#f37522"/><stop offset="0.57" stop-color="#f16022"/><stop offset="1" stop-color="#d92427"/></linearGradient><linearGradient id="linear-gradient-4" x1="28.64" y1="26.88" x2="3.08" y2="11.88" xlink:href="#linear-gradient"/><linearGradient id="linear-gradient-5" x1="1.44" y1="15.27" x2="17.35" y2="6.45" xlink:href="#linear-gradient"/><linearGradient id="linear-gradient-6" x1="9.84" y1="16.14" x2="17.69" y2="0.82" xlink:href="#linear-gradient"/></defs><g id="Layer_2" data-name="Layer 2"><g id="Layer_1-2" data-name="Layer 1"><path class="cls-1" d="M15.5,3.82c3,.88,8.71,12.72,9.77,20.66.73,5.37,1.17,4.7,2.71,4,1.92-.9,3.05-3.09,2.17-7C28.81,15.53,25,6.8,21.11,2.94,19.15,1,16.18,1.7,15.5,3.82Z"/><path class="cls-2" d="M9.26,21.5c-1.24-.88-2.42-1.77-3.5-2.64a36.77,36.77,0,0,0-1,5.2c-.32,3.08.3,3.93,1.65,4.35.85.26,4.2-1,5.29-3.34C9.52,25.61,8.93,24.25,9.26,21.5Z"/><path class="cls-3" d="M33.5,8.53c4.08,4.83-22.42,22.81-27.33,21.28-1.42-.44-1.76-2.41-1.38-5.75,0,2.65,1.57,2.66,5.9,1.14S26,16.34,27.24,9.81A2.6,2.6,0,0,0,26.16,7.3c-.28-.28-.17-.79.23-.78C29.39,6.6,32.38,7.21,33.5,8.53Z"/><path class="cls-4" d="M30.15,21.47c.74,5.46-12,1.35-17-1.56C7.94,16.85,2.35,12.85,2.75,10.77A5.49,5.49,0,0,0,4.69,18c7.15,6.15,20,13.45,24.24,11.49C30.82,28.56,31,25,30.15,21.47Z"/><path class="cls-5" d="M4.69,18C.88,15.49-.63,12.38.24,10.41,2.14,6.07,12.72,8.26,17,10.1c.82.35,1.72,1,1.8,1.58s-.49.24-1.6-.15c-2-.7-8.12-2.49-11.88-.38C2.3,12.86,2.65,16.09,4.69,18Z"/><path class="cls-6" d="M10,17.94c.3-1.19.67-2.5,1.08-3.92C13.21,6.56,17.14.58,21.11,2.94,19.15,1,17.77-.39,15.46.1c-3,.64-6.58,8.66-8.77,15.54C7.68,16.4,8.8,17.18,10,17.94Z"/></g></g></svg>