<svg width="32" height="32" viewBox="0 0 32 32" fill="none" xmlns="http://www.w3.org/2000/svg">
<path d="M26.224 28.7362C28.5493 28.7362 29.4027 27.7335 29.4027 25.2802V20.5015C29.4027 18.2189 30.512 16.9175 31.5787 16.2989C31.8987 16.1069 31.8987 15.6589 31.5787 15.4455C30.4693 14.7415 29.4027 13.2695 29.4027 11.3069V6.61353C29.4027 3.9682 28.6773 3.2002 26.352 3.2002H5.46667C3.14133 3.2002 2.416 3.9682 2.416 6.61353V11.3069C2.416 13.2695 1.34933 14.7415 0.24 15.4455C-0.08 15.6375 -0.08 16.1069 0.24 16.2989C1.30667 16.8962 2.416 18.1975 2.416 20.5015V25.2802C2.416 27.7335 3.26933 28.7362 5.59467 28.7362H26.224ZM15.856 24.3629C13.36 24.3629 11.5467 23.6162 9.86133 22.1442C9.584 21.8882 9.47733 21.5682 9.47733 21.2482C9.47733 20.9922 9.54133 20.7149 9.73333 20.5015L10.2453 19.8402C10.5013 19.5202 10.7787 19.3709 11.0987 19.3709C11.4613 19.3709 11.8027 19.5202 12.1653 19.7549C13.3173 20.5015 14.5973 20.9282 16.1333 20.9282C17.3067 20.9282 18.2453 20.4375 18.2453 19.4349C18.2453 16.8322 9.584 18.2615 9.584 12.4162C9.584 9.28019 12.144 7.53086 15.472 7.53086C17.8187 7.53086 19.5467 8.21353 20.8267 9.0242C21.1467 9.23753 21.36 9.6642 21.36 10.0909C21.36 10.3469 21.296 10.5815 21.1467 10.7949L20.7627 11.3709C20.4853 11.7549 20.1653 11.9469 19.76 11.9469C19.4827 11.9469 19.184 11.8402 18.864 11.6909C17.904 11.2002 16.9013 10.9442 15.6853 10.9442C14.4267 10.9442 13.68 11.6269 13.68 12.3309C13.68 14.9975 22.3413 13.5469 22.3413 19.2215C22.3413 22.4002 19.7813 24.3629 15.856 24.3629Z" fill="#FF2EAB"/>
</svg>
