<svg width="32" height="32" viewBox="0 0 32 32" fill="none" xmlns="http://www.w3.org/2000/svg">
<path d="M25.3706 10.1547C24.2579 10.1547 23.1702 10.4849 22.2454 11.1035C21.3205 11.7222 20.6 12.6014 20.1752 13.6298C19.7503 14.6582 19.6403 15.7895 19.8589 16.8805C20.0775 17.9715 20.615 18.9731 21.4033 19.7584C22.1916 20.5437 23.1952 21.0774 24.2871 21.2919C25.3789 21.5064 26.5098 21.392 27.5366 20.9633C28.5634 20.5345 29.4399 19.8107 30.055 18.8835C30.6701 17.9563 30.9962 16.8674 30.9919 15.7547C30.9849 14.2679 30.3897 12.8444 29.3364 11.7951C28.2831 10.7458 26.8574 10.1561 25.3706 10.1547V10.1547Z" fill="#8ABD24"/>
<path d="M8.81061 15.7547C8.81133 14.1902 9.32462 12.669 10.2719 11.424C9.45009 10.7439 8.45165 10.3116 7.39328 10.1778C6.33492 10.0439 5.26031 10.214 4.295 10.6681C3.32969 11.1223 2.51354 11.8417 1.94189 12.7424C1.37023 13.6431 1.06667 14.6879 1.06667 15.7547C1.06667 16.8215 1.37023 17.8662 1.94189 18.7669C2.51354 19.6676 3.32969 20.3871 4.295 20.8412C5.26031 21.2954 6.33492 21.4654 7.39328 21.3316C8.45165 21.1977 9.45009 20.7655 10.2719 20.0853C9.32672 18.8392 8.81367 17.3188 8.81061 15.7547V15.7547Z" fill="#D90148"/>
<path d="M18.1493 15.7547C18.15 14.1902 18.6633 12.669 19.6106 11.424C18.7887 10.7439 17.7903 10.3116 16.732 10.1778C15.6736 10.0439 14.599 10.214 13.6337 10.6681C12.6684 11.1223 11.8522 11.8417 11.2805 12.7424C10.7089 13.6431 10.4053 14.6879 10.4053 15.7547C10.4053 16.8215 10.7089 17.8662 11.2805 18.7669C11.8522 19.6676 12.6684 20.3871 13.6337 20.8412C14.599 21.2954 15.6736 21.4654 16.732 21.3316C17.7903 21.1977 18.7887 20.7655 19.6106 20.0853C18.6633 18.8403 18.15 17.3191 18.1493 15.7547V15.7547Z" fill="#F59D15"/>
</svg>
