<?xml version="1.0" encoding="UTF-8" standalone="no"?>
<!DOCTYPE svg PUBLIC "-//W3C//DTD SVG 1.1//EN" "http://www.w3.org/Graphics/SVG/1.1/DTD/svg11.dtd">
<svg width="100%" height="100%" viewBox="0 0 266 266" version="1.1" xmlns="http://www.w3.org/2000/svg" xmlns:xlink="http://www.w3.org/1999/xlink" xml:space="preserve" xmlns:serif="http://www.serif.com/" style="fill-rule:evenodd;clip-rule:evenodd;stroke-linecap:round;stroke-linejoin:round;">
    <g transform="matrix(0.952316,0,0,0.952316,-10.7032,-13.2035)">
        <path d="M111.33,274.77C124.126,278.936 137.5,281.059 150.957,281.059C221.176,281.059 278.957,223.277 278.957,153.059C278.957,130.647 273.071,108.623 261.89,89.2" style="fill:none;fill-rule:nonzero;stroke:black;stroke-width:10px;"/>
    </g>
    <g transform="matrix(0.952316,0,0,0.952316,-10.7032,-13.2035)">
        <path d="M190.47,31.23C177.704,27.087 164.366,24.977 150.945,24.977C80.699,24.977 22.895,82.781 22.895,153.027C22.895,175.003 28.552,196.613 39.32,215.77" style="fill:none;fill-rule:nonzero;stroke:black;stroke-width:10px;"/>
    </g>
    <g transform="matrix(0.952316,0,0,0.952316,6.34321,5.84283)">
        <circle cx="40" cy="223.51" r="32" style="fill:rgb(217,198,165);stroke:black;stroke-width:10px;"/>
    </g>
    <g transform="matrix(0.952316,0,0,0.952316,6.34321,5.84283)">
        <circle cx="223.01" cy="42.49" r="32" style="fill:rgb(56,150,255);stroke:black;stroke-width:10px;"/>
    </g>
    <g transform="matrix(0.952316,0,0,0.952316,8.62089,10.6546)">
        <path d="M129.228,201.553L127.988,201.553C107.745,201.387 89.425,193.087 76.14,179.764L89.387,179.764C91.785,179.763 95.445,178.761 97.493,177.541L164.081,138.364C166.129,137.144 169.79,136.141 172.187,136.141L181.861,136.141L181.861,136.228L202.201,136.228C201.094,145.588 198.24,154.415 193.974,162.376L172.187,162.376C169.79,162.376 166.13,161.373 164.081,160.153L156.76,155.839C154.712,154.619 151.313,154.619 149.265,155.839L139.764,161.417C137.716,162.594 137.716,164.598 139.764,165.818L159.723,177.541C161.772,178.761 165.432,179.764 167.829,179.764L181.076,179.764C167.791,193.087 149.472,201.387 129.228,201.553ZM85.03,162.332L63.219,162.332C58.96,154.371 56.112,145.544 55.011,136.185L89.387,136.185C91.785,136.185 95.445,135.182 97.493,133.962L164.081,94.785C166.129,93.565 169.79,92.563 172.187,92.563L193.997,92.563C198.257,100.523 201.105,109.351 202.206,118.71L167.829,118.71C165.432,118.71 161.771,119.712 159.723,120.932L93.135,160.11C91.087,161.33 87.427,162.332 85.03,162.332ZM85.03,118.666L55.016,118.666C56.123,109.307 58.977,100.479 63.243,92.519L85.03,92.519C87.427,92.519 91.087,93.521 93.135,94.741L100.456,99.056C102.505,100.276 105.904,100.276 107.952,99.056L117.452,93.478C119.5,92.301 119.5,90.296 117.452,89.076L97.493,77.354C95.445,76.133 91.785,75.131 89.387,75.131L76.14,75.131C89.425,61.808 107.745,53.508 127.988,53.342L129.228,53.342C149.428,53.507 167.712,61.772 180.989,75.044L167.829,75.044C165.432,75.044 161.772,76.046 159.723,77.266L93.135,116.444C91.087,117.664 87.427,118.666 85.03,118.666Z" style="fill-rule:nonzero;"/>
    </g>
</svg>
