<svg width="32" height="32" viewBox="0 0 32 32" fill="none" xmlns="http://www.w3.org/2000/svg">
<g clip-path="url(#clip0_2955_39)">
<path d="M19.2332 0.138725C14.5172 1.80672 10.1642 5.07072 7.11717 9.13472C-0.210831 18.0597 1.89317 26.0407 16.2582 24.3717C23.8042 23.5737 20.9012 14.4317 14.2272 19.2207C5.52117 25.6047 9.07617 36.1977 19.5962 30.2487C30.2602 24.0087 33.3082 7.61073 14.7352 11.3107C10.2372 12.1807 10.5992 18.3487 15.4602 17.4777C18.7982 16.8977 23.0062 11.8187 23.0062 8.11772C23.0062 6.01472 21.5552 4.70772 20.1042 5.14372C18.7252 5.57872 18.7252 7.53772 19.8862 7.97372C21.5552 8.55372 19.6682 12.1817 15.9682 14.5757C14.5182 15.5187 13.7922 14.2127 15.4602 13.9227C23.5132 12.5437 26.1252 15.0827 24.9642 19.2927C23.6592 23.3547 21.0472 26.4747 17.2012 28.2887C10.5992 31.3357 10.8902 25.6767 15.3152 21.5407C17.5652 19.6547 18.6532 21.1777 16.6212 21.5407C12.4862 22.1207 1.96617 23.2827 7.55217 13.5607C10.8902 7.75573 16.3312 4.05572 20.4662 2.89472C22.1352 2.24172 21.5542 -0.660275 19.2332 0.137725V0.138725Z" fill="url(#paint0_linear_2955_39)"/>
</g>
<defs>
<linearGradient id="paint0_linear_2955_39" x1="15.5232" y1="0.160725" x2="15.5232" y2="32.1607" gradientUnits="userSpaceOnUse">
<stop stop-color="#00A2D9"/>
<stop offset="0.09" stop-color="#00ADD9"/>
<stop offset="0.14" stop-color="#00B6D9"/>
<stop offset="0.18" stop-color="#0CB6D9"/>
<stop offset="0.25" stop-color="#2BB7D9"/>
<stop offset="0.34" stop-color="#5DB9D9"/>
<stop offset="0.45" stop-color="#A2BBD9"/>
<stop offset="0.54" stop-color="#D9BDD9"/>
<stop offset="0.71" stop-color="#FBB0B7"/>
<stop offset="0.77" stop-color="#FAA3AC"/>
<stop offset="0.87" stop-color="#F9818D"/>
<stop offset="0.99" stop-color="#F65163"/>
<stop offset="1" stop-color="#F65163"/>
</linearGradient>
<clipPath id="clip0_2955_39">
<rect width="32" height="32" fill="white"/>
</clipPath>
</defs>
</svg>
