<?xml version="1.0" encoding="utf-8"?>
<!-- Generator: Adobe Illustrator 15.0.0, SVG Export Plug-In . SVG Version: 6.00 Build 0)  -->
<!DOCTYPE svg PUBLIC "-//W3C//DTD SVG 1.1//EN" "http://www.w3.org/Graphics/SVG/1.1/DTD/svg11.dtd">
<svg version="1.1" id="Livello_1" xmlns="http://www.w3.org/2000/svg" xmlns:xlink="http://www.w3.org/1999/xlink" x="0px" y="0px"
	 width="566.93px" height="566.93px" viewBox="0 0 566.93 566.93" enable-background="new 0 0 566.93 566.93" xml:space="preserve">
<g>
	<path fill-rule="evenodd" clip-rule="evenodd" fill="#2D3B56" d="M461.163,193.684c-9.271,0-16.793-7.52-16.793-16.794
		c0-5.5,2.68-10.335,6.769-13.401c2.803-2.104,6.251-3.39,10.024-3.39c4.918,0,9.298,2.147,12.366,5.514
		c2.724,2.983,4.432,6.919,4.432,11.278C477.961,186.164,470.443,193.684,461.163,193.684z M275.264,143.301v-32.788
		c0-48.491,39.448-87.936,87.939-87.936c48.483,0,87.936,39.445,87.936,87.936v32.788H275.264z M265.237,193.684
		c-9.274,0-16.791-7.52-16.791-16.794c0-4.359,1.703-8.295,4.427-11.278c3.072-3.366,7.451-5.514,12.363-5.514
		c3.774,0,7.223,1.287,10.026,3.39c4.091,3.066,6.77,7.901,6.77,13.401C282.034,186.164,274.513,193.684,265.237,193.684z
		 M473.529,143.301v-32.788c0-60.834-49.498-110.326-110.326-110.326c-60.832,0-110.329,49.492-110.329,110.326v32.788H161.68
		v74.741h103.558c9.276,0,16.796,7.52,16.796,16.794v4.84c0,9.278-7.521,16.799-16.796,16.799H139.288
		c-9.273,0-16.792,7.516-16.792,16.791c0,9.275,7.519,16.798,16.792,16.798h96.792c9.275,0,16.794,7.516,16.794,16.788v1.868
		c0,9.271-7.519,16.793-16.794,16.793h-74.4v0.328c-11.836,1.613-20.992,11.653-20.992,23.934c0,12.272,9.156,22.31,20.992,23.926
		v0.325h110.925c9.274,0,16.792,7.519,16.792,16.799c0,9.266-7.518,16.788-16.792,16.788h-140.78
		c-9.792,0-17.725,7.936-17.725,17.726c0,9.795,7.932,17.725,17.725,17.725h97.032c9.275,0,16.791,7.523,16.791,16.8v1.896
		c0,9.275-7.516,16.792-16.791,16.792h-65.242c8.292,38.736,42.689,87.559,83.899,87.559h231.376
		c47.408,0,85.832-58.19,85.832-105.595V143.301H473.529"/>
	<path fill-rule="evenodd" clip-rule="evenodd" fill="#2D3B56" d="M91.707,256.475H72.115c-9.276,0-16.792,7.516-16.792,16.791
		c0,9.275,7.516,16.798,16.792,16.798h19.592c9.277,0,16.793-7.522,16.793-16.798C108.5,263.991,100.984,256.475,91.707,256.475"/>
	<path fill-rule="evenodd" clip-rule="evenodd" fill="#2D3B56" d="M54.389,407.612H19.868c-9.79,0-17.727,7.936-17.727,17.726
		c0,9.795,7.937,17.725,17.727,17.725h34.521c9.79,0,17.726-7.93,17.726-17.725C72.115,415.548,64.179,407.612,54.389,407.612"/>
</g>
</svg>
