<svg width="32" height="32" viewBox="0 0 32 32" fill="none" xmlns="http://www.w3.org/2000/svg">
<g clip-path="url(#clip0_3365_25)">
<path fill-rule="evenodd" clip-rule="evenodd" d="M10.0183 1.70818C8.91164 2.39633 7.82575 3.4822 5.65398 5.65398L5.65355 5.65442C3.48204 7.82591 2.39625 8.91171 1.70818 10.0183C-0.569407 13.6809 -0.569378 18.3191 1.70818 21.9818C2.39618 23.0882 3.48182 24.1738 5.65275 26.3449L5.65373 26.3458L5.65398 26.346C7.82575 28.5178 8.91164 29.6036 10.0183 30.2918C13.6809 32.5695 18.3191 32.5695 21.9818 30.2918C23.0884 29.6036 24.1742 28.5178 26.346 26.346C28.5178 24.1742 29.6036 23.0884 30.2918 21.9818C32.5695 18.3191 32.5695 13.6809 30.2918 10.0183C29.6036 8.91164 28.5178 7.82576 26.346 5.65398C24.1742 3.4822 23.0884 2.39633 21.9818 1.70818C18.3191 -0.569378 13.6809 -0.569407 10.0183 1.70818ZM20.5455 11.0909C21.8007 11.0909 22.8182 10.0734 22.8182 8.81818C22.8182 7.563 21.8007 6.54545 20.5455 6.54545C19.2902 6.54545 18.2727 7.563 18.2727 8.81818C18.2727 10.0734 19.2902 11.0909 20.5455 11.0909ZM13.7273 13.8182C13.7273 12.814 12.9132 12 11.9091 12H9.18182V18.8182C9.18182 22.5838 12.2344 25.6364 16 25.6364C16.467 25.6364 16.923 25.5895 17.3636 25.5V21.0909H16C14.7448 21.0909 13.7273 20.0735 13.7273 18.8182V13.8182ZM18.2727 25.2484C20.9209 24.3124 22.8182 21.7869 22.8182 18.8182V12H20.0909C19.0867 12 18.2727 12.814 18.2727 13.8182V25.2484Z" fill="#02C652"/>
</g>
<defs>
<clipPath id="clip0_3365_25">
<rect width="32" height="32" fill="white"/>
</clipPath>
</defs>
</svg>
