<svg width="32" height="32" viewBox="0 0 32 32" fill="none" xmlns="http://www.w3.org/2000/svg">
<g clip-path="url(#clip0_3548_13)">
<mask id="mask0_3548_13" style="mask-type:alpha" maskUnits="userSpaceOnUse" x="3" y="5" width="26" height="27">
<path d="M7.96399 5.9458H24.116C25.2715 5.9458 26.3405 7.1422 26.5036 8.61804L28.7836 29.2478C28.9466 30.7236 27.8777 31.9201 26.396 31.9201H5.68399C4.20231 31.9201 3.13335 30.7236 3.29647 29.2478L5.57639 8.61804C5.73951 7.1422 6.80839 5.9458 7.96399 5.9458Z" fill="white"/>
</mask>
<g mask="url(#mask0_3548_13)">
<path d="M7.96399 5.9458H24.116C25.2715 5.9458 26.3405 7.1422 26.5036 8.61804L28.7836 29.2478C28.9466 30.7236 27.8777 31.9201 26.396 31.9201H5.68399C4.20231 31.9201 3.13335 30.7236 3.29647 29.2478L5.57639 8.61804C5.73951 7.1422 6.80839 5.9458 7.96399 5.9458Z" fill="#FF995D"/>
<path d="M26.2946 45.5755C36.3344 45.5755 44.4732 37.4586 44.4732 27.4458C44.4732 17.4331 36.3344 9.31616 26.2946 9.31616C16.2548 9.31616 8.11597 17.4331 8.11597 27.4458C8.11597 37.4586 16.2548 45.5755 26.2946 45.5755Z" fill="#F17849"/>
</g>
<path d="M11.0511 9.46656C9.82196 3.15552 11.4985 0 16.0807 0C20.6628 0 22.3378 3.15552 21.1056 9.46656" stroke="black" stroke-width="1.5"/>
</g>
<defs>
<clipPath id="clip0_3548_13">
<rect width="32" height="32" fill="white"/>
</clipPath>
</defs>
</svg>
