<svg width="32" height="32" viewBox="0 0 32 32" fill="none" xmlns="http://www.w3.org/2000/svg">
<g opacity="0.974563">
<path opacity="0.974563" fill-rule="evenodd" clip-rule="evenodd" d="M31.4174 0H10.2826V10.6919H20.7259C21.0475 10.6919 21.3083 10.9515 21.3083 11.2716V21.7185H10.2826V21.719H31.9999V0.579758C31.9999 0.259559 31.7391 0 31.4174 0Z" fill="#8E75FF"/>
<path opacity="0.404989" fill-rule="evenodd" clip-rule="evenodd" d="M10.2827 0.000518799V10.693H0.291774C0.0327046 10.693 -0.0974166 10.3814 0.0854129 10.1986L10.2827 0.000518799Z" fill="#8E75FF"/>
<path opacity="0.404989" fill-rule="evenodd" clip-rule="evenodd" d="M21.8061 31.914C21.6229 32.0973 21.3084 31.9681 21.3084 31.7096V21.7193H32L21.8061 31.914Z" fill="#8E75FF"/>
<path opacity="0.404989" d="M10.2826 10.6926H21.0171C21.178 10.6926 21.3083 10.8223 21.3083 10.9824V21.7191H10.865C10.5433 21.7191 10.2826 21.4596 10.2826 21.1394V10.6926Z" fill="#8E75FF"/>
</g>
</svg>
