<svg width="32" height="32" viewBox="0 0 32 32" fill="none" xmlns="http://www.w3.org/2000/svg">
<path d="M9.52227 7.85485C9.47592 7.81967 9.4275 7.78736 9.37722 7.75806C9.30483 7.7098 9.18391 7.66127 9.06247 7.58888C8.94155 7.54062 8.7965 7.49209 8.65171 7.44383C8.51863 7.40404 8.37964 7.38772 8.24096 7.39557C7.83021 7.39557 7.63768 7.54062 7.63768 7.80632C7.63574 7.87774 7.66171 7.94709 7.71008 7.99963C7.76516 8.05936 7.83065 8.10851 7.90339 8.14468C8.005 8.19315 8.11023 8.23357 8.21814 8.2656C8.33906 8.31386 8.48411 8.33799 8.65329 8.38652C8.89486 8.45891 9.08843 8.53157 9.2828 8.60396C9.45974 8.67147 9.62341 8.76968 9.76621 8.89406C9.89685 9.00357 9.99681 9.1451 10.0563 9.30481C10.1275 9.4896 10.1604 9.6869 10.1531 9.88475C10.1591 10.1264 10.1094 10.3662 10.008 10.5856C9.91141 10.7704 9.77024 10.9283 9.59729 11.0449C9.42244 11.164 9.22509 11.2462 9.01735 11.2865C8.79519 11.3357 8.5682 11.36 8.34063 11.3588C8.15459 11.3537 7.96899 11.3376 7.78483 11.3106C7.59724 11.2819 7.41161 11.2415 7.22903 11.1897C7.05599 11.1358 6.88647 11.0713 6.72149 10.9964C6.55231 10.924 6.40673 10.8272 6.26221 10.7548L6.74562 9.78796C6.79456 9.8378 6.85182 9.87871 6.9148 9.90888C7.03002 9.98332 7.15128 10.048 7.27729 10.1022C7.43991 10.1766 7.61009 10.2333 7.78483 10.2714C7.96623 10.3192 8.15304 10.3435 8.34063 10.3438C8.72725 10.3438 8.94391 10.2228 8.94391 9.98127C8.94847 9.93972 8.94194 9.89768 8.92492 9.85946C8.90792 9.82127 8.88106 9.78827 8.84712 9.76383C8.77504 9.69626 8.69368 9.63932 8.60555 9.59465C8.48822 9.53797 8.3671 9.48949 8.24306 9.4496C8.09801 9.40134 7.95296 9.35281 7.78378 9.30455C7.56626 9.232 7.37295 9.1595 7.20385 9.08711C7.05497 9.01849 6.91663 8.92892 6.79309 8.82114C6.68573 8.72052 6.60309 8.59646 6.55152 8.45865C6.50027 8.30277 6.47579 8.13933 6.47912 7.97524C6.47299 7.74135 6.52272 7.50935 6.62417 7.29852C6.7171 7.10476 6.84867 6.93204 7.0108 6.79098C7.18152 6.64894 7.37859 6.54198 7.59073 6.47622C7.80943 6.40698 8.0381 6.37427 8.26745 6.37944C8.43755 6.38353 8.60718 6.39966 8.77499 6.4277C8.93877 6.45658 9.10032 6.497 9.2584 6.54862C9.40093 6.59027 9.53864 6.64698 9.66916 6.7178C9.79007 6.79019 9.91073 6.83871 10.0316 6.91111L9.52227 7.85485Z" fill="#FF6568"/>
<path d="M24.5552 22.0899C24.5089 22.0547 24.4604 22.0224 24.4102 21.9931C24.3378 21.9449 24.2168 21.8963 24.0954 21.8239C23.9745 21.7757 23.8294 21.7272 23.6847 21.6789C23.5445 21.6314 23.3975 21.607 23.2495 21.6065C22.8388 21.6065 22.6462 21.7516 22.6462 22.0173C22.6443 22.0887 22.6702 22.158 22.7186 22.2106C22.7737 22.2703 22.8392 22.3194 22.9119 22.3556C23.0135 22.4041 23.1188 22.4445 23.2267 22.4765C23.3476 22.5248 23.4927 22.5489 23.6618 22.5975C23.9034 22.6698 24.097 22.7425 24.2913 22.8149C24.4683 22.8824 24.6319 22.9806 24.7747 23.105C24.9054 23.2145 25.0053 23.356 25.0648 23.5158C25.136 23.7005 25.169 23.8978 25.1616 24.0957C25.1676 24.3373 25.118 24.5771 25.0166 24.7965C24.9199 24.9814 24.7788 25.1392 24.6058 25.2558C24.431 25.375 24.2336 25.4572 24.0259 25.4974C23.8037 25.5466 23.5767 25.5709 23.3492 25.5698C23.1631 25.5647 22.9775 25.5486 22.7934 25.5215C22.6058 25.4928 22.4202 25.4524 22.2376 25.4006C22.0631 25.3509 21.8933 25.2862 21.73 25.2073C21.5608 25.1349 21.4153 25.0381 21.2708 24.9657L21.7542 23.9989C21.8031 24.0487 21.8603 24.0897 21.9233 24.1198C22.0201 24.1681 22.1408 24.2407 22.2858 24.3131C22.4485 24.3875 22.6186 24.4443 22.7934 24.4823C22.9748 24.5301 23.1616 24.5544 23.3492 24.5547C23.7358 24.5547 23.9525 24.4338 23.9525 24.1922C23.957 24.1507 23.9505 24.1086 23.9335 24.0704C23.9165 24.0322 23.8896 23.9992 23.8557 23.9748C23.7836 23.9072 23.7022 23.8502 23.6141 23.8056C23.4968 23.7489 23.3756 23.7004 23.2516 23.6605C23.1066 23.6123 22.9615 23.5638 22.7923 23.5155C22.5748 23.4429 22.3815 23.3704 22.2124 23.298C22.0635 23.2294 21.9252 23.1399 21.8016 23.0321C21.6867 22.9381 21.6025 22.8119 21.5601 22.6696C21.5088 22.5137 21.4843 22.3502 21.4877 22.1862C21.4815 21.9523 21.5312 21.7203 21.6327 21.5095C21.7256 21.3157 21.8572 21.143 22.0193 21.0019C22.19 20.8599 22.3871 20.7529 22.5993 20.6872C22.818 20.6179 23.0466 20.5852 23.276 20.5904C23.4461 20.5945 23.6157 20.6106 23.7835 20.6386C23.9473 20.6675 24.1089 20.7079 24.2669 20.7596C24.4095 20.8012 24.5472 20.8579 24.6777 20.9287C24.7986 21.0011 24.9193 21.0497 25.0402 21.122L24.5552 22.0899Z" fill="#284358"/>
<path d="M13.6553 23.0572C13.6529 22.7588 13.7105 22.4629 13.8245 22.1871C13.933 21.8999 14.0973 21.637 14.3079 21.4136C14.53 21.183 14.7921 20.9947 15.0814 20.8578C15.3998 20.7119 15.7463 20.6377 16.0965 20.6404C16.5101 20.63 16.9189 20.7301 17.2808 20.9305C17.5992 21.1115 17.8592 21.3799 18.0299 21.704L17.1599 22.3073C17.1164 22.185 17.0414 22.0764 16.9424 21.9925C16.8642 21.9148 16.7745 21.8496 16.6765 21.7992C16.5777 21.7445 16.4717 21.7038 16.3617 21.6783C16.258 21.6582 16.1524 21.6501 16.047 21.6542C15.8549 21.6515 15.6648 21.6929 15.4911 21.7751C15.3365 21.8545 15.2037 21.9707 15.1045 22.1134C15.0006 22.253 14.9191 22.408 14.863 22.5727C14.8136 22.7456 14.7892 22.9246 14.7906 23.1044C14.7853 23.2943 14.8182 23.4833 14.8873 23.6602C14.9421 23.8378 15.0326 24.0023 15.1533 24.1436C15.2616 24.2814 15.4029 24.3897 15.5641 24.4583C15.7309 24.5353 15.912 24.5765 16.0957 24.5793C16.3153 24.5688 16.53 24.5111 16.7252 24.4101C16.8233 24.3597 16.913 24.2945 16.9912 24.2168C17.0748 24.1249 17.1403 24.0181 17.1845 23.902L18.1026 24.4337C18.0207 24.6087 17.9147 24.7714 17.7878 24.9171C17.6393 25.0646 17.4679 25.187 17.2803 25.2796C17.089 25.377 16.8863 25.45 16.677 25.497C16.4792 25.5434 16.2769 25.5677 16.0737 25.5694C15.7387 25.5748 15.4073 25.5003 15.1069 25.352C14.8185 25.2145 14.5631 25.0167 14.3578 24.7721C14.1434 24.5423 13.9789 24.2707 13.8744 23.9744C13.7337 23.6889 13.6589 23.3754 13.6553 23.0572Z" fill="#284358"/>
<path d="M17.8365 7.44408H16.3621V11.3111H15.2505V7.44408H13.7761V6.45312H17.8606V7.44408H17.8365Z" fill="#FF6568"/>
<path d="M25.232 14.5495H23.7576V18.4166H22.6457V14.5495H21.1716V13.5586H25.2561V14.5495H25.232Z" fill="#284358"/>
<path d="M22.2836 6.45312L23.3228 8.6766L24.3861 6.45312H25.6189L23.8789 9.64342V11.3111H22.767V9.64342L21.0752 6.45312H22.2836Z" fill="#FF6568"/>
<path d="M6.91235 18.4166V13.5586H8.02422V17.4256H10.3686V18.4166H6.91235Z" fill="#FF6568"/>
<path d="M15.3472 18.4166V13.5586H16.459V18.4166H15.3472Z" fill="#284358"/>
<path d="M7.8064 25.522V20.6641H8.91827V25.522H7.8064Z" fill="#284358"/>
<path d="M31.8059 31.83H0V0H31.8059V31.83ZM0.507541 31.2984H31.2984V0.531672H0.507541V31.2984Z" fill="#CCCCCC"/>
</svg>
