<svg width="32" height="32" viewBox="0 0 32 32" fill="none" xmlns="http://www.w3.org/2000/svg">
<path fill-rule="evenodd" clip-rule="evenodd" d="M21.0266 15.1851C20.7819 14.9677 20.4401 14.895 20.1273 14.9935L11.6155 17.6717L23.7779 6.07042C24.1524 5.7124 24.1651 5.11904 23.8064 4.74523C23.789 4.72733 23.7716 4.70995 23.7526 4.69363L19.2121 0.648038C18.8244 0.303183 18.2305 0.337405 17.885 0.723853C17.8455 0.768605 17.8101 0.816516 17.7795 0.867587L7.8968 17.4169C7.71957 17.7139 7.77812 18.0951 8.03711 18.3251L9.96291 20.0436C10.1997 20.2542 10.5273 20.3306 10.8332 20.2458L17.7289 18.3293L9.79201 30.7657C9.40906 31.3664 10.2034 32.0172 10.7188 31.5244L23.9779 18.8495C24.2653 18.5731 24.2738 18.1161 23.9963 17.8292C23.9842 17.8165 23.9715 17.8044 23.9583 17.7923L21.0266 15.1851Z" fill="#00AF8E"/>
</svg>
