<svg width="32" height="32" viewBox="0 0 32 32" fill="none" xmlns="http://www.w3.org/2000/svg">
<g clip-path="url(#clip0_3733_100)">
<path fill-rule="evenodd" clip-rule="evenodd" d="M31.845 17.9343C32.1362 17.4595 32.005 16.8035 31.5546 16.4759L23.9878 10.9783C23.5378 10.6511 23.1218 9.93032 23.063 9.37632L22.5338 4.33511C22.4762 3.78151 21.9962 3.47351 21.4682 3.64951L0.687408 10.5987C0.561694 10.6411 0.445559 10.7078 0.345637 10.7951C0.245715 10.8823 0.163963 10.9884 0.105051 11.1073C0.0461384 11.2262 0.0112202 11.3555 0.00229064 11.4878C-0.00663891 11.6202 0.0105951 11.753 0.0530082 11.8787L3.98781 23.4659C4.16701 23.9927 4.75901 24.5207 5.30301 24.6379L24.1234 28.7079C24.6674 28.8251 25.3514 28.5331 25.6414 28.0583L31.8454 17.9343H31.845ZM14.7226 12.7887C14.3946 13.2387 13.6806 13.5087 13.1366 13.3891L4.30061 11.4455C3.75661 11.3263 3.74341 11.0839 4.27141 10.9071L18.953 5.99711C19.481 5.81991 19.6442 6.04391 19.317 6.49431L14.7226 12.7887ZM20.6986 7.02551C21.0266 6.57511 21.3426 6.66071 21.401 7.21431L23.207 24.4355C23.2646 24.9891 23.045 25.0735 22.7186 24.6223L15.9066 15.2239C15.5802 14.7727 15.5814 14.0367 15.9098 13.5863L20.6982 7.02551H20.6986ZM2.04381 13.2983C1.86461 12.7715 2.16381 12.4375 2.70781 12.5571L13.021 14.8259C13.565 14.9455 14.2774 15.4127 14.6038 15.8627L22.0322 26.1103C22.3586 26.5615 22.1814 26.8335 21.6362 26.7151L6.39541 23.4135C5.85141 23.2951 5.25941 22.7683 5.08021 22.2403L2.04421 13.2983H2.04381ZM23.4742 13.3027C23.4166 12.7491 23.7382 12.5635 24.1878 12.8907L29.6462 16.8567C30.0962 17.1847 30.2274 17.8407 29.9362 18.3151L25.3962 25.7351C25.1062 26.2095 24.8202 26.1455 24.763 25.5919L23.4742 13.3027V13.3027Z" fill="url(#paint0_linear_3733_100)"/>
</g>
<defs>
<linearGradient id="paint0_linear_3733_100" x1="16" y1="3.59998" x2="16" y2="28.7346" gradientUnits="userSpaceOnUse">
<stop stop-color="#7AC943"/>
<stop offset="1" stop-color="#3FA9F5"/>
</linearGradient>
<clipPath id="clip0_3733_100">
<rect width="32" height="32" fill="white"/>
</clipPath>
</defs>
</svg>
