<svg width="32" height="32" viewBox="0 0 32 32" fill="none" xmlns="http://www.w3.org/2000/svg">
<path d="M15.8682 15.39H10.0039V16.8772C10.0039 19.7053 12.2917 21.9964 15.123 21.9964H16.6135V16.1287C16.6135 15.7219 16.2783 15.39 15.8715 15.39" fill="#EEACCD"/>
<path d="M26.8777 0H15.123C12.295 0 10.0039 2.29108 10.0039 5.11913V8.38652H15.8715C20.1412 8.38652 23.6136 11.8589 23.6136 16.1287V21.9963H26.881C29.7089 21.9963 32 19.7052 32 16.8772V5.11913C32 2.29108 29.7089 0 26.881 0" fill="#EEACCD"/>
<path d="M16.6069 24.258C16.6069 24.6648 16.275 24.9968 15.8682 24.9968H7.73883C7.48824 24.9968 7.31576 24.8796 7.21813 24.782C7.1205 24.6843 7.00009 24.5118 7.00009 24.258V16.1286C7.00009 15.9236 7.0847 15.7413 7.21813 15.6079C7.35156 15.4744 7.53706 15.3898 7.74208 15.3898H10.0071V8.38641H7.74208C3.47238 8.38641 0 11.8588 0 16.1286V24.258C0 26.3245 0.803822 28.2706 2.26828 29.7318C3.72948 31.1931 5.67557 31.9968 7.74208 32H15.8747C18.0095 32 19.9426 31.1312 21.3452 29.7286C22.7478 28.326 23.6168 26.3896 23.6168 24.258V21.9962H16.6134V24.258H16.6069Z" fill="#DD619F"/>
<path d="M23.6103 16.1286V21.9962H16.6102V16.1286C16.6102 15.7218 16.275 15.3898 15.8682 15.3898H10.0039V8.38641H15.8682C20.1379 8.38641 23.6103 11.8588 23.6103 16.1286Z" fill="#D53987"/>
</svg>
