<svg width="32" height="32" viewBox="0 0 32 32" fill="none" xmlns="http://www.w3.org/2000/svg">
<path d="M0.022583 15.973C0.022583 4.01006 4.01018 0.0224609 15.9731 0.0224609C27.936 0.0224609 31.9237 4.01006 31.9237 15.973C31.9237 27.9359 27.936 31.9235 15.9731 31.9235C4.01018 31.9235 0.022583 27.9359 0.022583 15.973Z" fill="#F0BD66"/>
<path d="M15.8874 17.5711H10.7991C10.6493 17.5713 10.5119 17.4879 10.4431 17.3552C10.3747 17.2229 10.3874 17.0634 10.4757 16.9434L16.8767 8.2452C17.1352 7.89296 17.6943 8.15216 17.5888 8.5732L16.1114 14.4077H21.1997C21.35 14.4077 21.4876 14.4914 21.5557 14.6236C21.6241 14.7559 21.6114 14.9154 21.5231 15.0354L15.1221 23.7341C14.8636 24.0863 14.3045 23.8271 14.41 23.4061L15.8874 17.5716V17.5711Z" fill="white"/>
</svg>
