<svg width="32" height="32" viewBox="0 0 32 32" fill="none" xmlns="http://www.w3.org/2000/svg">
<path d="M8.00986 7.45647V0.00312424C5.88994 0.00311341 3.85647 0.843587 2.35506 2.34037C0.853656 3.83715 0.00677453 5.86815 0 7.9883V8.01388C0.00709453 10.1302 0.851334 12.1578 2.3483 13.6535C3.84527 15.1494 5.87329 15.9919 7.98938 15.9971H8.00922C10.1252 15.9918 12.153 15.1491 13.6499 13.6534C15.1467 12.1575 15.9909 10.1301 15.998 8.01388V0.00312424C13.9705 0.00371695 12.0187 0.773231 10.5362 2.15645C9.05374 3.53969 8.15093 5.43369 8.00986 7.45647Z" fill="#6213F4"/>
<path d="M23.9844 15.9998H31.9943C31.9937 13.9723 31.2243 12.0203 29.8414 10.5376C28.4585 9.055 26.5648 8.15204 24.5424 8.01076H31.9943C31.9945 5.89068 31.1542 3.85697 29.6577 2.35537C28.1612 0.85378 26.1305 0.00677565 24.0107 0H23.985C21.8686 0.0065891 19.8409 0.8507 18.3448 2.34789C16.8487 3.84509 16.006 5.87364 16.0008 7.99031V8.01012C16.0061 10.1266 16.8489 12.1549 18.3448 13.6519C19.8407 15.149 21.8682 15.993 23.9844 15.9998Z" fill="#6213F4"/>
<path d="M8.013 15.9995H0.0031395C0.00329448 18.0264 0.771686 19.9779 2.15345 21.4606C3.53521 22.9434 5.42761 23.8472 7.44923 23.9898H0.0031395C0.0031292 26.11 0.843532 28.1435 2.34016 29.6451C3.83678 31.1466 5.86756 31.9934 7.9874 32H8.013C10.1291 31.9929 12.1564 31.1486 13.652 29.6514C15.1477 28.1543 15.9901 26.126 15.9953 24.0096V23.9898C15.9901 21.8735 15.1477 19.8453 13.652 18.3481C12.1564 16.851 10.1291 16.0066 8.013 15.9995Z" fill="#6213F4"/>
<path d="M24.0107 16.003H23.9908C21.8744 16.0081 19.846 16.8508 18.3489 18.3469C16.8517 19.843 16.0075 21.8709 16.0008 23.9876V31.9984C18.0278 31.9982 19.9794 31.2294 21.4621 29.8469C22.9447 28.4644 23.8481 26.5711 23.9902 24.5488V31.9984C26.11 31.9986 28.1435 31.1582 29.6449 29.6615C31.1464 28.1649 31.9932 26.134 32 24.0138V23.9882C31.9932 21.8717 31.1492 19.8437 29.6522 18.3475C28.1552 16.8513 26.127 16.0085 24.0107 16.003Z" fill="#6213F4"/>
</svg>
