<svg width="32" height="32" viewBox="0 0 32 32" fill="none" xmlns="http://www.w3.org/2000/svg">
<g clip-path="url(#clip0_3190_222)">
<path d="M27.8949 4.23053C24.939 -0.0270957 19.0542 -1.27455 14.8237 1.41019L7.36609 6.18307C5.33219 7.45765 3.92202 9.54579 3.51524 11.9051C3.1627 13.8848 3.461 15.9187 4.41015 17.6814C3.75931 18.6576 3.32541 19.7424 3.13558 20.8814C2.70168 23.2949 3.27117 25.7899 4.68134 27.7695C7.66439 32.0271 13.522 33.2746 17.7525 30.5899L25.2102 25.8441C27.2441 24.5695 28.6542 22.4814 29.061 20.1221C29.4135 18.1424 29.1152 16.1085 28.1661 14.3458C28.8169 13.3695 29.2508 12.2848 29.4407 11.1458C29.9017 8.70511 29.3322 6.21019 27.8949 4.23053Z" fill="#FF3E00"/>
<path d="M14.0914 28.1763C11.6778 28.8 9.15581 27.8509 7.74565 25.817C6.87785 24.6238 6.55242 23.1322 6.79649 21.6678C6.85073 21.4238 6.90497 21.2068 6.9592 20.9628L7.0948 20.5289L7.47446 20.8C8.36937 21.4509 9.34565 21.939 10.4033 22.2645L10.6745 22.3458L10.6473 22.617C10.6202 22.9967 10.7287 23.4034 10.9456 23.7289C11.3795 24.3526 12.1389 24.6509 12.8711 24.4611C13.0338 24.4068 13.1965 24.3526 13.3321 24.2712L20.7626 19.5255C21.1423 19.2814 21.3863 18.9289 21.4677 18.495C21.549 18.0611 21.4406 17.6 21.1965 17.2475C20.7626 16.6238 20.0033 16.3526 19.2711 16.5424C19.1084 16.5967 18.9456 16.6509 18.8101 16.7323L15.9626 18.5492C15.5016 18.8475 14.9863 19.0645 14.444 19.2C12.0304 19.8238 9.50836 18.8746 8.09819 16.8407C7.25751 15.6475 6.90497 14.156 7.17615 12.6916C7.42022 11.2814 8.28802 10.0068 9.50836 9.2475L16.966 4.50174C17.427 4.20344 17.9423 3.98649 18.4846 3.82378C20.8982 3.20005 23.4202 4.1492 24.8304 6.1831C25.6982 7.37632 26.0236 8.86784 25.7795 10.3322C25.7253 10.5763 25.6711 10.7933 25.5897 11.0373L25.4541 11.4712L25.0745 11.2C24.1795 10.5492 23.2033 10.0611 22.1456 9.73564L21.8745 9.65428L21.9016 9.3831C21.9287 9.00344 21.8202 8.59666 21.6033 8.27123C21.1694 7.6475 20.4101 7.37632 19.6778 7.56615C19.5151 7.62039 19.3524 7.67462 19.2168 7.75598L11.7863 12.5017C11.4067 12.7458 11.1626 13.0984 11.0812 13.5323C10.9999 13.9661 11.1084 14.4272 11.3524 14.7797C11.7863 15.4034 12.5456 15.6746 13.2778 15.4848C13.4406 15.4306 13.6033 15.3763 13.7389 15.295L16.5863 13.478C17.0473 13.1797 17.5626 12.9628 18.105 12.8C20.5185 12.1763 23.0406 13.1255 24.4507 15.1594C25.3185 16.3526 25.644 17.8441 25.3999 19.3085C25.1558 20.7187 24.288 21.9933 23.0677 22.7526L15.6101 27.4984C15.149 27.7967 14.6338 28.0136 14.0914 28.1763Z" fill="white"/>
</g>
<defs>
<clipPath id="clip0_3190_222">
<rect width="26.6034" height="32" fill="white" transform="translate(3)"/>
</clipPath>
</defs>
</svg>
