<svg width="32" height="32" viewBox="0 0 32 32" fill="none" xmlns="http://www.w3.org/2000/svg">
<path d="M28.8078 21.5779C27.9476 21.5779 27.1369 21.2417 26.5272 20.6321L21.7783 15.8831C21.3004 15.4053 20.9874 14.8088 20.8753 14.1596C20.8094 13.7806 20.8127 13.3917 20.8852 13.0127H19.4813C19.1386 13.0127 18.9935 13.2401 18.9375 13.3752C18.8815 13.5103 18.8222 13.774 19.0661 14.0178L21.1192 16.071C21.5971 16.5488 21.9101 17.1453 22.0222 17.7946C22.1276 18.3944 22.0551 19.0139 21.8211 19.5874C21.5839 20.1575 21.195 20.6452 20.6974 20.9979C20.1569 21.3769 19.5175 21.5779 18.842 21.5779H18.776C17.9159 21.5779 17.1052 21.2417 16.4955 20.6321L16.0407 20.1773C15.8232 20.4969 15.553 20.7738 15.2366 20.9946C14.6961 21.3736 14.0568 21.5746 13.3812 21.5746C12.521 21.5746 11.7103 21.2384 11.1007 20.6288L3.65266 13.1808C3.54061 13.0687 3.39231 13.0094 3.23742 13.0094C2.89468 13.0094 2.74968 13.2368 2.69365 13.3719C2.63763 13.507 2.57831 13.7707 2.82218 14.0145L4.87532 16.0677C5.35318 16.5455 5.66626 17.142 5.77831 17.7913C5.88377 18.3911 5.81126 19.0106 5.57728 19.5841C5.34 20.1542 4.95112 20.6419 4.45349 20.9946C3.91301 21.3736 3.27367 21.5746 2.59808 21.5746H1.65884C0.930521 21.5746 0.340614 20.9847 0.340614 20.2564C0.340614 19.528 0.930521 18.9381 1.65884 18.9381H2.5849C2.92764 18.9381 3.07264 18.7107 3.12867 18.5756C3.18469 18.4405 3.24401 18.1769 3.00014 17.933L0.950295 15.8831C0.472437 15.4053 0.159357 14.8088 0.0473081 14.1596C-0.0581502 13.5598 0.0143523 12.9402 0.248338 12.3668C0.485619 11.7966 0.874496 11.3089 1.37213 10.9563C1.9126 10.5773 2.55524 10.3762 3.23083 10.3762C4.09097 10.3762 4.90169 10.7124 5.51137 11.3221L12.9594 18.7701C13.0714 18.8821 13.2197 18.9414 13.3746 18.9414C13.7173 18.9414 13.8623 18.714 13.9184 18.5789C13.9744 18.4438 14.0337 18.1802 13.7931 17.9396L8.48068 12.6271C7.96657 12.113 7.96657 11.2792 8.48068 10.7618C8.99478 10.2444 9.82856 10.2477 10.346 10.7618L15.6551 16.071C15.6584 16.0743 15.6584 16.0743 15.6617 16.0776L18.3542 18.7701C18.4663 18.8821 18.6146 18.9414 18.7694 18.9414H18.8354C19.1781 18.9414 19.3231 18.714 19.3791 18.5789C19.4352 18.4438 19.4945 18.1802 19.2506 17.9363L17.2008 15.8831C16.7229 15.4053 16.4098 14.8088 16.2978 14.1596C16.1923 13.5598 16.2648 12.9402 16.4988 12.3668C16.7361 11.7966 17.125 11.3089 17.6226 10.9563C18.1631 10.5773 18.8057 10.3762 19.4813 10.3762H24.8498C25.5781 10.3762 26.168 10.9661 26.168 11.6945C26.168 12.4228 25.5781 13.0127 24.8498 13.0127H24.0588C23.7161 13.0127 23.5711 13.2401 23.5151 13.3752C23.459 13.5103 23.3997 13.774 23.6436 14.0178L28.3925 18.7668C28.5046 18.8788 28.6529 18.9381 28.8078 18.9381C29.1077 18.9381 29.3515 18.6943 29.3515 18.3944C29.3515 17.666 29.9414 17.0761 30.6698 17.0761C31.3981 17.0761 31.988 17.666 31.988 18.3944C31.9913 20.1509 30.561 21.5779 28.8078 21.5779Z" fill="url(#paint0_linear_3769_4)"/>
<path d="M28.8077 20.4244C28.2541 20.4244 27.7334 20.2102 27.3412 19.8181L22.5923 15.0691C21.9892 14.466 21.8178 13.5993 22.1441 12.8117C22.3122 12.4096 22.5857 12.0833 22.9252 11.8625H19.4813C18.7628 11.8625 18.1466 12.2745 17.8697 12.9369C17.5929 13.5993 17.7412 14.3276 18.2487 14.8352L20.3019 16.8883C20.905 17.4914 21.0763 18.3581 20.7501 19.1458C20.4238 19.9334 19.6889 20.4244 18.8353 20.4244H18.7694C18.2158 20.4244 17.6951 20.2102 17.3029 19.8181L15.408 17.9231C15.4936 18.3219 15.4541 18.7437 15.2893 19.1458C14.9631 19.9334 14.2281 20.4244 13.3746 20.4244C12.8209 20.4244 12.3002 20.2102 11.9081 19.8181L4.46007 12.3701C4.13051 12.0405 3.6922 11.8593 3.22752 11.8593C2.50909 11.8593 1.89282 12.2712 1.61599 12.9336C1.34245 13.596 1.48746 14.3243 1.99498 14.8319L4.04812 16.885C4.65121 17.4881 4.82258 18.3548 4.49632 19.1425C4.17006 19.9301 3.43514 20.4211 2.58159 20.4211H1.65883C1.56655 20.4211 1.49405 20.3486 1.49405 20.2564C1.49405 20.1641 1.56655 20.0916 1.65883 20.0916H2.58489C3.30332 20.0916 3.91959 19.6796 4.19642 19.0172C4.47325 18.3548 4.32495 17.6265 3.81743 17.119L1.76429 15.0658C1.1612 14.466 0.989829 13.5993 1.31609 12.8117C1.64235 12.0207 2.37397 11.5297 3.23082 11.5297C3.78447 11.5297 4.30517 11.7439 4.69735 12.1361L12.1453 19.5841C12.4749 19.9136 12.9132 20.0949 13.3779 20.0949C14.0963 20.0949 14.7126 19.6829 14.9894 19.0205C15.2629 18.3581 15.1212 17.6331 14.6137 17.1256L9.29796 11.8131C9.23205 11.7472 9.23205 11.645 9.29796 11.5791C9.36388 11.5132 9.46604 11.5132 9.53195 11.5791L14.8411 16.8883L14.8444 16.8916L17.5369 19.5841C17.8665 19.9136 18.3048 20.0949 18.7694 20.0949H18.8353C19.5538 20.0949 20.1701 19.6829 20.4469 19.0205C20.7204 18.3581 20.5754 17.6298 20.0679 17.1223L18.0148 15.0691C17.4117 14.466 17.2403 13.5993 17.5666 12.8117C17.8928 12.024 18.6277 11.533 19.4813 11.533H24.8498C24.942 11.533 25.0145 11.6055 25.0145 11.6978C25.0145 11.79 24.942 11.8625 24.8498 11.8625H24.0588C23.3404 11.8625 22.7241 12.2745 22.4473 12.9369C22.1738 13.5993 22.3188 14.3276 22.8263 14.8352L27.5752 19.5841C27.9048 19.9136 28.3431 20.0949 28.8077 20.0949C29.7437 20.0949 30.505 19.3336 30.505 18.3977C30.505 18.3054 30.5775 18.2329 30.6697 18.2329C30.762 18.2329 30.8345 18.3054 30.8345 18.3977C30.8378 19.5149 29.9282 20.4244 28.8077 20.4244Z" fill="white"/>
<defs>
<linearGradient id="paint0_linear_3769_4" x1="-3.17787e-06" y1="15.9781" x2="31.9897" y2="15.9781" gradientUnits="userSpaceOnUse">
<stop stop-color="#FFA588"/>
<stop offset="0.271" stop-color="#FCB371"/>
<stop offset="0.8357" stop-color="#F4D837"/>
<stop offset="1" stop-color="#F1E425"/>
</linearGradient>
</defs>
</svg>
