<?xml version="1.0" encoding="utf-8"?>
<!-- Generator: Adobe Illustrator 24.1.2, SVG Export Plug-In . SVG Version: 6.00 Build 0)  -->
<svg version="1.1" id="Primary_Art" 
	xmlns="http://www.w3.org/2000/svg" 
	xmlns:xlink="http://www.w3.org/1999/xlink" x="0px" y="0px" viewBox="0 0 438.7 512" style="enable-background:new 0 0 438.7 512;" xml:space="preserve">
	<style type="text/css">
	.st0{fill:url(#SVGID_1_);}
	</style>
	<linearGradient id="SVGID_1_" gradientUnits="userSpaceOnUse" x1="219.3559" y1="514" x2="219.3559" y2="2" gradientTransform="matrix(1 0 0 -1 0 514)">
		<stop offset="0" style="stop-color:#550088"/>
		<stop offset="1" style="stop-color:#FF7782"/>
	</linearGradient>
	<path class="st0" d="M267.5,34.2c82.8,0,127,38.4,127,66.2c0,2-0.8,3.1-1.4,3.6l-0.6,0.5l-0.6,0.6l-54.7,55l-36.3,36.5l47.7,19.2
	c40.3,16.3,56.1,38,56.1,77.5c0,17-6.6,32.2-19.7,45.2l-99.6,99.9l-0.4,0.4l-0.3,0.4c-23.3,24.7-65.9,38.8-116.9,38.8
	c-86.3,0-134-37.2-134-63c0-3.2,0.6-5.3,1.3-5.9l0.6-0.6l0.6-0.6l58.7-58.9l0.8-0.8l0.3-0.3l31.7-33.2L86,294.2
	c-31.6-15.5-44.4-36.6-44.4-73c0-18.8,7.3-35.6,22-50l99.5-99.9l0.3-0.3l0.3-0.3C185.8,47.5,223.6,34.2,267.5,34.2 M267.5,0
	c-54.7,0-100.5,17.9-128.4,47.1L39.6,147c-20.2,19.8-31.9,45.4-31.9,74.2c0,57.1,27.5,86,63.5,103.7l0,0l-58.7,58.9
	C4.5,391,0,401.7,0,414.9C0,462.6,62.9,512,168,512c62.2,0,112.6-18.7,141.6-49.5l99.5-99.9c19-18.8,29.6-42.5,29.6-69.3
	c0-63.6-35-92-77.4-109.2l54.7-55c7.8-7.1,12.5-17.2,12.5-28.9C428.3,51,368.1,0,267.5,0L267.5,0z"/>
</svg>
