<svg width="32" height="32" viewBox="0 0 32 32" fill="none" xmlns="http://www.w3.org/2000/svg">
<path d="M16 32C24.8366 32 32 24.8366 32 16C32 7.16344 24.8366 0 16 0C7.16344 0 0 7.16344 0 16C0 24.8366 7.16344 32 16 32Z" fill="#1A171B"/>
<path d="M22.995 5.92031C21.3697 5.97701 19.9508 6.87277 18.8948 8.11215C17.7255 9.47083 16.9475 11.0824 16.387 12.7275C15.3843 11.9057 14.6108 10.8418 13.0021 10.3779C11.7588 10.021 10.4529 10.1684 9.25195 11.0632C8.68304 11.4881 8.29112 12.1305 8.10476 12.7344C7.62213 14.3036 8.61205 15.7003 9.06166 16.2016L10.0447 17.2551C10.2473 17.4617 10.7354 18.0005 10.4968 18.7731C10.2389 19.6131 9.22632 20.1569 8.18759 19.8364C7.72368 19.695 7.05716 19.3494 7.20654 18.8628C7.26816 18.6636 7.41063 18.5147 7.48705 18.3427C7.55705 18.1948 7.59058 18.0839 7.61177 18.0188C7.80158 17.3991 7.54226 16.5931 6.8787 16.3885C6.2595 16.1987 5.62601 16.349 5.3805 17.1462C5.10196 18.0518 5.5353 19.6954 7.85679 20.4113C10.5766 21.2469 12.8774 19.7659 13.2038 17.8344C13.4093 16.6246 12.8631 15.7259 11.8623 14.5698L11.0469 13.6681C10.553 13.1747 10.3834 12.3336 10.8946 11.6873C11.326 11.1421 11.9402 10.9094 12.9464 11.183C14.415 11.5818 15.0697 12.6008 16.1622 13.4226C15.7111 14.9021 15.4163 16.387 15.1496 17.7186L14.9869 18.7114C14.206 22.8072 13.61 25.0562 12.061 26.3474C11.7489 26.5692 11.3028 26.9015 10.6304 26.9247C10.2779 26.9355 10.164 26.6929 10.1591 26.5874C10.1507 26.34 10.3592 26.2266 10.4977 26.1152C10.7048 26.0023 11.0178 25.8149 10.9966 25.215C10.974 24.506 10.3868 23.8913 9.53789 23.9194C8.90193 23.9411 7.93271 24.5396 7.96919 25.635C8.00715 26.7664 9.06166 27.6143 10.6516 27.5606C11.5015 27.5315 13.3995 27.1854 15.2699 24.9621C17.4469 22.4133 18.0558 19.4913 18.5138 17.3528L19.025 14.5294C19.309 14.5634 19.6126 14.5861 19.9429 14.594C22.6544 14.6512 24.0106 13.2466 24.0308 12.2252C24.0441 11.607 23.6251 10.9986 23.0384 11.0124C22.6184 11.0242 22.0909 11.3038 21.9642 11.8845C21.8405 12.4544 22.8269 12.9686 22.0559 13.468C21.5082 13.8225 20.5261 14.0724 19.1433 13.8693L19.3947 12.4795C19.9079 9.84402 20.5409 6.60212 22.9423 6.52324C23.1173 6.51437 23.7577 6.53113 23.7725 6.95461C23.7769 7.09609 23.7419 7.13208 23.5763 7.45598C23.4077 7.70839 23.3441 7.92333 23.352 8.17032C23.3751 8.84325 23.8869 9.28546 24.6268 9.25884C25.6178 9.2268 25.9027 8.26202 25.8864 7.76656C25.8465 6.60261 24.6194 5.86707 22.995 5.92031V5.92031Z" fill="white"/>
</svg>
