<svg width="32" height="32" viewBox="0 0 32 32" fill="none" xmlns="http://www.w3.org/2000/svg">
<path d="M18 21.6C16.5334 22.4 14.5334 21.8667 13.7334 20.4C13.4667 19.8667 13.3334 19.4667 13.3334 18.9333V30.9333C13.3334 30.9333 13.7334 31.2 16.4 31.2C19.0667 31.2 19.4667 30.9333 19.4667 30.9333V18.9333C19.6 20 19.0667 20.9333 18 21.6Z" fill="#E63C2F"/>
<path d="M16.5333 21.8667C18.227 21.8667 19.6 20.4937 19.6 18.8001C19.6 17.1064 18.227 15.7334 16.5333 15.7334C14.8397 15.7334 13.4667 17.1064 13.4667 18.8001C13.4667 20.4937 14.8397 21.8667 16.5333 21.8667Z" fill="#333E48"/>
<path d="M13.4667 18.8V18.5333V18.2666L16.2667 12.8L10.9333 1.46662C10.9333 1.46662 10.4 1.19995 7.46667 1.19995C4.40001 1.19995 4 1.46662 4 1.46662L13.4667 18.8Z" fill="#EEAF00"/>
<path d="M19.3333 17.3333C19.4667 17.6 19.6 17.8667 19.6 18V18.1333L29.2 0.266665C29.2 0.266665 28.6667 0 25.7333 0C22.6667 0 22.2667 0.266665 22.2667 0.266665L16.5333 11.3333L19.3333 17.3333Z" fill="#1E988A"/>
<path d="M16.5334 12L13.7334 17.4667C14.0001 16.9333 14.5334 16.4 15.0667 16.1333C15.6001 15.8667 16.0001 15.7333 16.5334 15.7333C17.6001 15.7333 18.6667 16.4 19.3334 17.3333L16.5334 12Z" fill="#4A7628"/>
</svg>
