<svg id="Layer_1" data-name="Layer 1" xmlns="http://www.w3.org/2000/svg" viewBox="0 0 80.08 102.36"><g id="圖層_1" data-name="圖層 1"><path d="M0,76.17l19.26-1.8q1.78,9.7,7.09,14.28t14.42,4.53c6.39,0,11.21-1.37,14.48-4.05s4.84-5.88,4.84-9.46a9.14,9.14,0,0,0-2-6c-1.37-1.6-3.74-3-7.13-4.2-2.34-.89-7.63-2.31-15.87-4.41C24.42,62.45,17,59.18,12.71,55.33A26,26,0,0,1,3.65,35.39a24.94,24.94,0,0,1,4.27-14.1A26.78,26.78,0,0,1,20.23,11.23C25.57,9,32,7.83,39.61,7.83q18.49,0,27.87,8.17c6.24,5.53,9.5,12.78,9.81,21.88l-19.94.67c-.88-5-2.65-8.63-5.47-10.87s-7-3.34-12.51-3.34c-5.76,0-10.28,1.18-13.52,3.6A7.15,7.15,0,0,0,22.69,34a7.51,7.51,0,0,0,2.95,6c2.48,2.16,8.58,4.35,18.23,6.6s16.79,4.68,21.4,7.14a27.66,27.66,0,0,1,10.87,10.1c2.59,4.17,3.94,9.51,3.94,15.78a29.16,29.16,0,0,1-4.72,15.91,28.52,28.52,0,0,1-13.3,11c-5.74,2.35-12.88,3.61-21.43,3.61q-18.68,0-28.7-8.73C5.23,95.64,1.3,87.22,0,76.17Z" transform="translate(0 -7.83)" style="fill:#4a5158"/></g></svg>