<svg width="32" height="32" viewBox="0 0 32 32" fill="none" xmlns="http://www.w3.org/2000/svg">
<path d="M16.1843 19.5795C16.2135 19.6037 15.799 19.9947 15.799 19.9947C15.799 19.9947 11.7736 22.5488 10.1332 23.5261C8.536 24.4805 6.72294 25.6169 4.82351 25.5033C4.56451 25.4805 4.28391 25.4578 4.00332 25.3896C3.80906 25.3441 3.63639 25.2987 3.44213 25.2305C2.72985 24.9578 2.12549 24.5033 1.65064 23.9124C0.485092 22.4579 0.204498 20.5035 0.0749925 18.6854C-0.097681 16.4582 0.0534086 14.1856 0.269251 11.9812C0.377172 10.9585 0.485092 9.9586 0.89519 9.0041C2.14708 6.11788 5.42787 6.45878 7.80212 7.32237C10.3275 8.23141 13.6837 9.87364 15.799 11.6917C15.0004 12.3735 16.1259 13.4326 15.4136 14.1826C14.7445 14.9099 14.7909 15.2129 15.0283 16.2583C15.3521 17.8037 15.0619 18.6478 16.1843 19.5795Z" fill="#85CDCA"/>
<path d="M31.5225 18.6854C31.393 20.5262 31.1124 22.4579 29.9469 23.9124C29.472 24.526 28.8461 24.9805 28.1554 25.2305C27.9827 25.2987 27.7885 25.3669 27.5942 25.3896C27.3352 25.4578 27.0546 25.4805 26.774 25.5033C24.853 25.6169 22.6921 24.7662 21.0654 23.731C19.425 22.7538 17.2885 21.1991 15.7992 19.9947L15.4138 19.5795C16.5362 18.6478 16.6098 17.8037 16.9552 16.2583C17.1926 15.2129 17.6243 15.3023 16.9552 14.5978C16.2429 13.8478 16.5978 12.3963 15.7992 11.6917C17.9144 9.87364 21.2916 8.23141 23.817 7.32237C26.2128 6.45878 29.472 6.11788 30.7239 9.0041C31.134 9.9586 31.2419 10.9585 31.3499 11.9812C31.5441 14.1856 31.6952 16.4582 31.5225 18.6854Z" fill="#E8AB7C"/>
<path d="M19.2251 16.2218C18.862 17.7672 17.2737 18.8353 16.0937 19.7671C16.0029 19.8352 15.9122 19.9262 15.7988 19.9944C15.708 19.9262 15.6172 19.858 15.5037 19.7671C14.3238 18.8353 12.7354 17.7672 12.3724 16.2218C12.1228 15.1764 12.6901 14.2219 13.3935 13.5174C14.1423 12.7675 14.9592 12.3959 15.7988 11.6914C16.6384 12.3732 17.4098 12.7675 18.1586 13.5174C18.9074 14.2219 19.4747 15.1764 19.2251 16.2218Z" fill="#762232"/>
</svg>
