<?xml version="1.0" encoding="utf-8"?>
<!-- Generator: Adobe Illustrator 24.1.1, SVG Export Plug-In . SVG Version: 6.00 Build 0)  -->
<svg version="1.1" id="Capa_1" xmlns="http://www.w3.org/2000/svg" xmlns:xlink="http://www.w3.org/1999/xlink" x="0px" y="0px"
	 viewBox="0 0 32 32" style="enable-background:new 0 0 32 32;" xml:space="preserve">
<style type="text/css">
	.st0{fill:#D93A26;}
	.st1{fill:#282828;}
</style>
<g>
	<g>
		<path class="st0" d="M13.7,12.8H16c0.1,0,0.2,0,0.2,0.1c0,0,0,0,0,0.1v4.4v1.8v2.4v0.3V22v1.2c0,0.3,0.3,0.5,0.5,0.4l0.4-0.1
			c1-0.4,2.1-0.8,3.4-1.2c0-0.1,0.1-0.1,0.1-0.2v-0.4v-0.3v-8.5v-0.1v-0.1l0,0V6.5c0-0.2-0.2-0.4-0.4-0.4h-2c-0.2,0-0.3,0.1-0.4,0.3
			c-0.6,1.8-1.8,3.2-3.6,3.5c-0.2,0.1-0.3,0.1-0.5,0.1c-0.2,0-0.4,0.2-0.4,0.4v2.2C13.4,12.6,13.5,12.8,13.7,12.8z"/>
		<path class="st0" d="M16.7,5.4c-0.1-0.1-0.2-0.2-0.4-0.2H7H6.6H1.5C1.1,5.3,0.7,5.6,0.7,6v2.8C0.7,8.9,0.8,9,1,9h5.7v2.1l0,0v12.4
			c0,0.1,0.1,0.2,0.2,0.3c1.4,0.5,2.7,1,3.7,1.4c0.2,0.1,0.4-0.1,0.4-0.3V9.5c0-0.1,0-0.1,0-0.1c-0.1-0.2,0.1-0.4,0.2-0.5
			c0.1,0,0.1,0,0.2,0h1.6l0,0c3.5-0.4,3.9-3.1,3.9-3.4V5.6v0.1C16.7,5.5,16.7,5.5,16.7,5.4z"/>
	</g>
</g>
<g>
	<path class="st1" d="M24.5,16.4c-0.1,0-0.1,0.1-0.2,0.1c-0.3,1-0.5,2.3-0.6,3.9C23.8,20.4,23.9,18.2,24.5,16.4z"/>
	<path class="st1" d="M22.6,20.3c0.1,0,0.1,0,0.1,0.1C22.7,20.3,22.7,20.3,22.6,20.3c0-0.1,1.9,0.8,3.2,0.5c0,0-2.4-0.1-3.5-1.2
		c0,0.1,0.1,0.1,0.1,0.2C22.4,20,22.5,20.2,22.6,20.3z"/>
	<path class="st1" d="M26.7,14.1c0,0,1.9-0.1,2,5.5c0,0,0.2-4.8-1.5-5.7c0,0,0,0,0.1,0c-0.3-0.2-0.9-0.3-1.3-0.3
		c-0.3,0.3-1.1,1-1.6,2.7c0.1,0,0.2-0.1,0.2-0.1C25,15,25.7,14,26.7,14.1z"/>
	<path class="st1" d="M24.3,16.5c0-0.1,0.1-0.1,0.1-0.2c-0.8,0.2-1.7,0.6-2.6,1.2c-0.1,0.3-0.1,0.5,0,0.8
		C22,17.8,22.6,16.9,24.3,16.5z"/>
	<path class="st1" d="M27.4,16.1c0,0-1.3-0.3-2.9,0.1c0,0.1-0.1,0.1-0.1,0.2C25.2,16.2,26.2,16.1,27.4,16.1z"/>
	<ellipse class="st1" cx="28.4" cy="16.2" rx="0.5" ry="0.5"/>
	<ellipse class="st1" cx="24.9" cy="14.9" rx="0.5" ry="0.5"/>
	<ellipse class="st1" cx="23.9" cy="18.6" rx="0.6" ry="0.6"/>
	<ellipse class="st1" cx="26.5" cy="20.8" rx="0.5" ry="0.5"/>
	<ellipse class="st1" cx="28.5" cy="20.6" rx="0.4" ry="0.4"/>
	<path class="st1" d="M27.3,21.3c0,0-5-3.3-4.2-5.5c0,0,0.4-1.4,3.5-0.4c0,0,2.3,0.8,3.1,1.4c0,0-5.1-3.4-6.8-1.4
		C22.8,15.4,21,17.1,27.3,21.3z"/>
	<path class="st1" d="M20.9,17.6c0-2.7,2.3-4.7,5.1-4.7S31,15,31,17.6c0,2.7-2.3,4.7-5.1,4.7S20.9,20.3,20.9,17.6z M21.8,17.6
		c0,2.2,1.9,4,4.2,4s4.2-1.8,4.2-4c0-2.2-1.9-4-4.2-4S21.8,15.4,21.8,17.6z"/>
</g>
</svg>
