<?xml version="1.0" encoding="utf-8"?>
<!-- Generator: Adobe Illustrator 24.1.1, SVG Export Plug-In . SVG Version: 6.00 Build 0)  -->
<svg version="1.1" id="Capa_1" xmlns="http://www.w3.org/2000/svg" xmlns:xlink="http://www.w3.org/1999/xlink" x="0px" y="0px"
	 viewBox="0 0 32 32" style="enable-background:new 0 0 32 32;" xml:space="preserve">
<style type="text/css">
	.st0{fill:#DA3A26;}
	.st1{fill:#282929;}
</style>
<g>
	<path class="st0" d="M12.2,12.9h2c0,0,0.1,0,0.2,0c0,0,0,0,0,0v3.9v1.6v2.1v0.3V21v1.1c0,0.2,0.2,0.4,0.4,0.3l0.3-0.1
		c0.8-0.3,1.8-0.7,3-1.1c0,0,0-0.1,0-0.1v-0.3v-0.3V13v0v0l0,0V7.2c0-0.2-0.1-0.4-0.4-0.4h-1.7c-0.1,0-0.3,0.1-0.3,0.2
		c-0.5,1.6-1.6,2.8-3.2,3.1c-0.1,0-0.3,0-0.4,0c-0.2,0-0.3,0.2-0.3,0.4v1.9C11.8,12.7,12,12.9,12.2,12.9"/>
	<path class="st0" d="M14.8,6.3c0-0.1-0.2-0.1-0.3-0.1H6.2H5.9H1.4C1,6.2,0.6,6.5,0.6,6.8v2.5c0,0.1,0.1,0.2,0.3,0.2h5v1.9l0,0v11
		c0,0.1,0,0.2,0.2,0.2c1.2,0.4,2.3,0.9,3.2,1.3c0.1,0.1,0.3,0,0.3-0.2V10c0,0,0,0,0-0.1c0-0.1,0-0.3,0.2-0.4c0,0,0.1,0,0.1,0h1.4
		l0,0c3.1-0.3,3.4-2.7,3.5-3v0v0C14.9,6.4,14.9,6.3,14.8,6.3"/>
	<g>
		<polygon class="st1" points="23.7,19.6 22.1,21.3 21.9,18 		"/>
		<path class="st1" d="M18.4,14.5l12.8-5l-4.9,11.7l-4.3-3.8l9.2-7.9l-0.5,0.3l-9.3,6.8c0,0-0.1,0.1-0.1,0.2l0.6,4.1l0,0l-1.3-4.5
			L18.4,14.5z"/>
	</g>
</g>
</svg>
