<?xml version="1.0" encoding="utf-8"?>
<!-- Generator: Adobe Illustrator 24.1.1, SVG Export Plug-In . SVG Version: 6.00 Build 0)  -->
<svg version="1.1" id="Capa_1" xmlns="http://www.w3.org/2000/svg" xmlns:xlink="http://www.w3.org/1999/xlink" x="0px" y="0px"
	 viewBox="0 0 32 32" style="enable-background:new 0 0 32 32;" xml:space="preserve">
<style type="text/css">
	.st0{fill:#D93A26;}
	.st1{fill:#282828;}
</style>
<g>
	<path class="st0" d="M13.6,13.2h2.2c0,0,0.1,0,0.2,0c0,0,0,0,0,0v4.3v1.8v2.3v0.3v0.2v1.2c0,0.2,0.2,0.4,0.5,0.3l0.3-0.1
		c0.9-0.3,2-0.7,3.3-1.2c0,0,0-0.1,0-0.1v-0.3v-0.3v-8.3v0v0l0,0V7c0-0.2-0.1-0.4-0.4-0.4h-1.9c-0.1,0-0.3,0.1-0.3,0.2
		c-0.6,1.8-1.8,3.1-3.5,3.4c-0.1,0-0.3,0-0.4,0c-0.2,0-0.3,0.2-0.3,0.4v2.1C13.3,13,13.4,13.2,13.6,13.2z"/>
	<path class="st0" d="M16.5,5.9c0-0.1-0.2-0.1-0.3-0.1H7.1H6.7H1.8c-0.4,0-0.8,0.3-0.8,0.7v2.7c0,0.1,0.1,0.2,0.3,0.2h5.5v2.1l0,0
		v12.1c0,0.1,0,0.2,0.2,0.2c1.3,0.5,2.6,1,3.6,1.5c0.1,0.1,0.3,0,0.3-0.2V10.1c0,0,0,0,0-0.1c0-0.1,0-0.3,0.2-0.4c0,0,0.1,0,0.1,0
		h1.6l0,0c3.4-0.3,3.8-3,3.8-3.3v0v0C16.6,6,16.6,6,16.5,5.9z"/>
</g>
<path class="st1" d="M31,12.6L31,12.6L31,12.6l-2.7,0V12c0-1.5-1.1-2.7-2.4-2.7c-1.4,0-2.4,1.2-2.4,2.7v0.5h-2.8v4.8c0,0,0,0,0-0.1
	c0,0,0,0.1,0,0.2c0,2.7,2.4,4.9,5.2,4.9c0.2,0,5,0,5,0H31C31,22.4,31,12.6,31,12.6z M24,12c0-1.1,0.8-1.9,1.8-1.9
	c1,0,1.8,0.9,1.8,1.9v0.5l-3.6,0L24,12L24,12z M22,17.5c0-2,1.7-3.6,3.8-3.6s3.8,1.6,3.8,3.6S27.8,21,25.8,21S22,19.4,22,17.5z"/>
</svg>
