<?xml version="1.0" encoding="utf-8"?>
<!-- Generator: Adobe Illustrator 24.1.1, SVG Export Plug-In . SVG Version: 6.00 Build 0)  -->
<svg version="1.1" id="Capa_1" xmlns="http://www.w3.org/2000/svg" xmlns:xlink="http://www.w3.org/1999/xlink" x="0px" y="0px"
	 viewBox="0 0 32 32" style="enable-background:new 0 0 32 32;" xml:space="preserve">
<style type="text/css">
	.st0{fill:#D93A26;}
	.st1{fill:#282828;}
</style>
<g>
	<path class="st0" d="M14.1,14.1h2.2c0,0,0.1,0,0.2,0c0,0,0,0,0,0v4.3v1.8v2.3v0.3V23v1.2c0,0.2,0.2,0.4,0.5,0.3l0.3-0.1
		c0.9-0.3,2-0.7,3.3-1.2c0,0,0-0.1,0-0.1v-0.3v-0.3v-8.3v0v0l0,0V7.9c0-0.2-0.1-0.4-0.4-0.4h-1.9c-0.1,0-0.3,0.1-0.3,0.2
		c-0.6,1.8-1.8,3.1-3.5,3.4c-0.1,0-0.3,0-0.4,0c-0.2,0-0.3,0.2-0.3,0.4v2.1C13.7,13.9,13.9,14.1,14.1,14.1z"/>
	<path class="st0" d="M17,6.9c0-0.1-0.2-0.1-0.3-0.1H7.6H7.2H2.3c-0.4,0-0.8,0.3-0.8,0.7v2.7c0,0.1,0.1,0.2,0.3,0.2h5.5v2.1l0,0
		v12.1c0,0.1,0,0.2,0.2,0.2c1.3,0.5,2.5,1,3.5,1.5c0.1,0.1,0.3,0,0.3-0.2V11c0,0,0,0,0-0.1c0-0.1,0-0.3,0.2-0.4c0,0,0.1,0,0.1,0h1.6
		l0,0c3.4-0.3,3.8-3,3.8-3.3v0v0C17.1,7,17.1,6.9,17,6.9z"/>
</g>
<g>
	<path class="st1" d="M26.7,18.9c0-0.4-0.3-0.7-0.7-0.7s-0.7,0.3-0.7,0.7c0,0.2,0.1,0.4,0.3,0.6l-0.3,1.5c0,0.2,0.2,0.3,0.4,0.3h0.5
		c0.2,0,0.4-0.1,0.4-0.3l-0.3-1.5C26.6,19.3,26.7,19.1,26.7,18.9z"/>
	<path class="st1" d="M26,13.9c-1,0-1.9,0.2-2.6,0.7v-3.4c0-1.4,1.1-2.5,2.5-2.5c1.4,0,2.5,1.1,2.5,2.5v1.6l0,0c0,0,0,0,0,0
		c0,0.2,0.2,0.4,0.4,0.4h0.4c0.2,0,0.4-0.2,0.4-0.4c0,0,0,0,0,0l0,0v-1.6c0-2.1-1.7-3.7-3.7-3.7s-3.7,1.7-3.7,3.7v4.3
		c-0.7,0.8-1.2,1.9-1.2,3.1c0,2.6,2.2,4.8,5,4.8s5-2.2,5-4.8C31,16,28.8,13.9,26,13.9z M26,22.1c-2,0-3.6-1.6-3.6-3.5
		c0-1.9,1.6-3.5,3.6-3.5s3.6,1.6,3.6,3.5C29.6,20.6,28,22.1,26,22.1z"/>
</g>
</svg>
