<svg xmlns="http://www.w3.org/2000/svg" xmlns:xlink="http://www.w3.org/1999/xlink" width="141.4" height="141.4" viewBox="0 0 141.4 141.4"><defs><style>.cls-1{fill:url(#linear-gradient);}.cls-2{fill:url(#linear-gradient-2);}.cls-3{fill:#fff;}</style><linearGradient id="linear-gradient" x1="70.7" y1="-1716.47" x2="70.7" y2="-1575.07" gradientTransform="matrix(1, 0, 0, -1, 0, -1575.07)" gradientUnits="userSpaceOnUse"><stop offset="0" stop-color="#eb5c99"/><stop offset="0.77" stop-color="#613983"/></linearGradient><linearGradient id="linear-gradient-2" x1="70.6" y1="-1708.17" x2="70.6" y2="-1583.37" xlink:href="#linear-gradient"/></defs><title>Taggbox-T</title><g id="Layer_2" data-name="Layer 2"><g id="Layer_1-2" data-name="Layer 1"><g id="Layer_2-2" data-name="Layer 2-2"><path class="cls-1" d="M70.7,141.4a70.7,70.7,0,1,1,70.7-70.7h0A70.888,70.888,0,0,1,70.7,141.4Zm0-135.7a65,65,0,1,0,65,65A65,65,0,0,0,70.7,5.7Z"/></g><g id="Layer_3" data-name="Layer 3"><path class="cls-2" d="M133,70.7A62.4,62.4,0,1,1,70.6,8.3h0A62.352,62.352,0,0,1,133,70.7Z"/></g><g id="Layer_4" data-name="Layer 4"><polygon class="cls-3" points="115.4 45.3 26 45.3 26 73.2 51.9 73.2 51.9 107.2 90.5 73.2 115.4 73.2 115.4 45.3"/></g></g></g></svg>