<svg width="32" height="32" viewBox="0 0 32 32" fill="none" xmlns="http://www.w3.org/2000/svg">
<path d="M10.447 12.3742C10.5091 12.2732 10.5818 12.1576 10.6652 12.0105C10.92 11.6571 11.0574 11.2327 11.0579 10.797C11.0653 10.269 10.8629 9.75972 10.4951 9.38089C10.1274 9.00206 9.62425 8.78467 9.09632 8.77648L9.05951 8.77502C8.00526 8.77648 7.12496 9.68208 7.12496 10.7968C7.12351 11.2235 7.25578 11.6398 7.50315 11.9874C7.6009 12.1567 7.6726 12.2719 7.73515 12.3708C7.99973 12.7957 8.11609 13.0152 8.12569 13.7632V18.1392C8.11739 18.8895 7.99872 19.11 7.73414 19.5356C7.67435 19.6317 7.60641 19.7401 7.52947 19.8755C7.2673 20.2315 7.12546 20.6618 7.12453 21.1039C7.11746 21.6318 7.32006 22.1409 7.68788 22.5196C8.05571 22.8982 8.55872 23.1156 9.08657 23.1238H9.09559C9.62342 23.1156 10.1264 22.8983 10.4942 22.5196C10.862 22.1409 11.0645 21.6317 11.0572 21.1039C11.0583 20.6739 10.9235 20.2544 10.6722 19.9055C10.5765 19.7413 10.5068 19.6299 10.4467 19.5327C10.169 19.0885 10.0559 18.8758 10.0559 18.0524V13.8534C10.0569 13.0309 10.1687 12.8181 10.447 12.3742ZM2.77311 13.9647C2.37772 13.9531 1.98786 14.0597 1.65342 14.2709C1.31898 14.4821 1.05518 14.7883 0.895785 15.1504C0.736391 15.5124 0.68866 15.9137 0.758693 16.303C0.828726 16.6923 1.01333 17.0519 1.2889 17.3357C1.56446 17.6195 1.91845 17.8145 2.30553 17.896C2.69262 17.9774 3.09521 17.9415 3.46175 17.7928C3.82829 17.644 4.14212 17.3893 4.36306 17.0612C4.58401 16.7331 4.70201 16.3466 4.70198 15.951C4.70906 15.432 4.50994 14.9314 4.14832 14.559C3.78671 14.1866 3.29212 13.9729 2.77311 13.9647V13.9647ZM24.4361 12.3747C24.4995 12.2738 24.5714 12.1582 24.6543 12.0111C24.9092 11.6578 25.0466 11.2333 25.047 10.7976C25.0542 10.2697 24.8517 9.7606 24.4841 9.38182C24.1164 9.00305 23.6135 8.78556 23.0857 8.77706L23.0476 8.7756C21.9949 8.77706 21.1143 9.68266 21.1143 10.7974C21.1133 11.224 21.2455 11.6402 21.4925 11.988C21.5907 12.1565 21.662 12.2715 21.7238 12.3704C21.9877 12.7958 22.1058 13.0146 22.1151 13.7638V18.1392C22.1058 18.8905 21.9877 19.11 21.7238 19.5356C21.664 19.6312 21.5968 19.7392 21.5193 19.875C21.2567 20.2308 21.1146 20.6611 21.1136 21.1033C21.1067 21.6311 21.3093 22.1401 21.677 22.5187C22.0447 22.8974 22.5476 23.1148 23.0754 23.1232H23.085C23.6127 23.1147 24.1155 22.8973 24.4831 22.5187C24.8508 22.14 25.0533 21.631 25.0463 21.1033C25.0473 20.6734 24.9128 20.254 24.6618 19.9049C24.5654 19.7407 24.4975 19.6293 24.4361 19.5328C24.1584 19.0883 24.0466 18.8752 24.0466 18.0518V13.8534C24.0476 13.0309 24.1594 12.8181 24.4361 12.3742V12.3747ZM29.409 13.9647C29.0136 13.953 28.6238 14.0596 28.2893 14.2708C27.9548 14.482 27.691 14.7882 27.5316 15.1503C27.3722 15.5123 27.3244 15.9136 27.3945 16.3029C27.4645 16.6923 27.6491 17.0518 27.9246 17.3356C28.2002 17.6194 28.5542 17.8145 28.9413 17.8959C29.3283 17.9774 29.7309 17.9415 30.0975 17.7928C30.464 17.6441 30.7779 17.3894 30.9988 17.0613C31.2198 16.7332 31.3378 16.3466 31.3378 15.951C31.3449 15.432 31.1458 14.9314 30.7842 14.559C30.4226 14.1866 29.928 13.9729 29.409 13.9647V13.9647ZM17.7081 13.1781C17.1197 12.7353 17.0588 12.2694 17.0528 12.1574V11.7356C17.0694 11.0592 17.1901 10.837 17.4397 10.4363C17.5024 10.3359 17.5738 10.2214 17.6569 10.0755C17.9138 9.72168 18.0524 9.29577 18.053 8.85851C18.0601 8.59559 18.0145 8.3339 17.9188 8.0889C17.8231 7.8439 17.6793 7.62055 17.4959 7.43206C17.3125 7.24356 17.0931 7.09374 16.8508 6.99144C16.6085 6.88913 16.3481 6.83643 16.0851 6.83643C15.8221 6.83643 15.5617 6.88913 15.3194 6.99144C15.0771 7.09374 14.8578 7.24356 14.6743 7.43206C14.4909 7.62055 14.3471 7.8439 14.2514 8.0889C14.1557 8.3339 14.1101 8.59559 14.1173 8.85851C14.1158 9.28499 14.2481 9.7012 14.4954 10.0486C14.5946 10.2204 14.6671 10.3359 14.7299 10.4363C14.9862 10.8483 15.1012 11.0592 15.1174 11.7356V12.1397C15.1174 12.2066 15.0874 12.7375 14.4013 13.222C14.375 13.2405 14.269 13.3183 14.2413 13.3395C13.831 13.6524 13.5001 14.0576 13.2754 14.5221C13.0508 14.9867 12.9387 15.4976 12.9482 16.0136C12.9577 16.5295 13.0886 17.036 13.3303 17.4919C13.572 17.9478 13.9176 18.3405 14.3392 18.638C14.3392 18.638 15.1177 19.1503 15.1177 19.7183V20.1539C15.1177 21.0533 14.4982 21.8502 14.4982 21.8502C14.2493 22.1984 14.116 22.616 14.117 23.044C14.1101 23.5718 14.3128 24.0808 14.6806 24.4595C15.0483 24.8382 15.5512 25.0556 16.079 25.0642H16.0906C16.6185 25.0558 17.1215 24.8384 17.4893 24.4597C17.8571 24.081 18.0597 23.5718 18.0527 23.044C18.0535 22.6162 17.9207 22.1988 17.6727 21.8502C17.6727 21.8502 17.0525 21.0147 17.0525 20.1699V19.8499C17.0525 19.8499 17.0581 19.7347 17.0624 19.7036C17.0874 19.5199 17.2147 19.0552 17.8535 18.6386C17.8535 18.6386 19.2333 17.6978 19.2333 15.9517C19.2364 15.3977 19.0979 14.8521 18.831 14.3665C18.5641 13.881 18.1775 13.4717 17.7081 13.1775V13.1781Z" fill="#F55D46"/>
</svg>
