<svg width="32" height="32" viewBox="0 0 32 32" fill="none" xmlns="http://www.w3.org/2000/svg">
<path fill-rule="evenodd" clip-rule="evenodd" d="M16.0003 6C11.7333 6 9.06707 8.12067 7.99984 12.362C9.60006 10.2413 11.4668 9.44624 13.6 9.97609C14.8171 10.2783 15.6874 11.1562 16.6499 12.1281C18.2188 13.7108 20.0347 15.5424 24.0002 15.5424C28.2666 15.5424 30.9334 13.4217 32 9.181C30.4004 11.3017 28.5337 12.0968 26.4005 11.5663C25.1828 11.264 24.3124 10.3862 23.3499 9.41489C21.781 7.83097 19.9657 6 16.0003 6ZM7.99984 15.5424C3.73343 15.5424 1.0666 17.663 0 21.9044C1.60022 19.7837 3.46693 18.9886 5.59951 19.5185C6.81724 19.8207 7.68757 20.6986 8.65009 21.6705C10.219 23.2531 12.0343 25.0847 16.0003 25.0847C20.2667 25.0847 22.9336 22.9647 24.0002 18.7234C22.3999 20.844 20.5332 21.6391 18.4 21.1093C17.1829 20.8064 16.3126 19.9286 15.3501 18.9573C13.7812 17.3746 11.9653 15.5424 7.99984 15.5424V15.5424Z" fill="#38BDF8"/>
</svg>
