<svg width="32" height="32" viewBox="0 0 32 32" fill="none" xmlns="http://www.w3.org/2000/svg">
<path fill-rule="evenodd" clip-rule="evenodd" d="M15.2964 0.228516C16.3369 0.228516 17.1804 1.07501 17.1804 2.11879V5.92401C17.1804 6.96779 16.3369 7.81486 15.2964 7.81486C14.2558 7.81486 13.4124 6.96779 13.4124 5.92401V2.11879C13.4124 1.07501 14.2558 0.228516 15.2964 0.228516ZM31.3089 15.3949V15.4064C31.3089 16.4507 30.4655 17.2972 29.4249 17.2972H25.6575C24.6169 17.2972 23.7735 16.4507 23.7735 15.4064V15.3949C23.7735 14.3505 24.6169 13.504 25.6575 13.504H29.4249C30.4655 13.504 31.3089 14.3505 31.3089 15.3949ZM27.6084 3.46596L27.6146 3.47227C28.3472 4.2098 28.3472 5.40384 27.6146 6.14194L24.9438 8.82996C24.2106 9.56864 23.0198 9.57036 22.2844 8.83398L22.2798 8.82996L22.2735 8.82365C21.5409 8.08612 21.5409 6.89208 22.2735 6.15456L24.9438 3.46596C25.6775 2.72728 26.8684 2.72556 27.6044 3.46194L27.6084 3.46596Z" fill="#FC501E"/>
<path fill-rule="evenodd" clip-rule="evenodd" d="M13.2857 18.2453V31.717H7.63431V18.2453H0.914307V12.5562H20.0057V18.2453H13.2857Z" fill="#1C2940"/>
</svg>
