<svg width="32" height="32" viewBox="0 0 32 32" fill="none" xmlns="http://www.w3.org/2000/svg">
<rect width="32" height="32" fill="#373AAF"/>
<path fill-rule="evenodd" clip-rule="evenodd" d="M27.4438 4.55635C21.3671 -1.52061 11.4866 -1.51696 5.41334 4.55635L0.34286 9.62712C-0.114287 10.0843 -0.114287 10.8336 0.34286 11.2911C0.80085 11.7491 1.55049 11.7491 2.00764 11.2913L7.0784 6.22085C12.236 1.06325 20.6251 1.06662 25.779 6.22085C30.9366 11.3782 30.9332 19.767 25.779 24.9215L20.7082 29.9923C20.2508 30.4494 20.2508 31.1991 20.7094 31.6573C21.1662 32.1142 21.9159 32.1142 22.373 31.6573L27.4438 26.5863C33.5171 20.5135 33.5204 10.6333 27.4438 4.55635ZM21.5399 10.5445C18.1261 7.1502 12.5759 7.153 9.16471 10.5459L2.32027 17.3516C1.86046 17.8097 1.86046 18.557 2.31943 19.0131C2.77896 19.4704 3.53112 19.4704 3.99065 19.0131L10.8351 12.2074C13.327 9.72928 17.3779 9.72872 19.8692 12.2066C22.3611 14.6842 22.36 18.7121 19.8684 21.1899L13.0239 27.9962C12.5644 28.4531 12.5644 29.2008 13.0239 29.658C13.4826 30.1141 14.2345 30.1141 14.6943 29.6572L21.5387 22.8512C24.9502 19.4583 24.9536 13.9394 21.5399 10.5445ZM14.6687 17.5463C14.2129 17.0848 13.4671 17.0848 13.0121 17.5452L7.05739 23.5751C6.60213 24.0361 6.60213 24.791 7.05823 25.2528C7.51405 25.7155 8.25958 25.7155 8.71484 25.2545L14.6701 19.2242C15.1285 18.7596 15.1248 18.0081 14.6687 17.5463Z" fill="white"/>
</svg>
