<svg width="32" height="32" viewBox="0 0 32 32" fill="none" xmlns="http://www.w3.org/2000/svg">
<path d="M12.0033 29.6001H6.82253C6.7367 29.6 6.6519 29.5815 6.57382 29.5459C6.49575 29.5103 6.42622 29.4583 6.36992 29.3935C6.31362 29.3288 6.27186 29.2527 6.24746 29.1704C6.22305 29.0882 6.21656 29.0016 6.22842 28.9166L7.23775 23.2183H13.6259L12.5846 29.121C12.557 29.2552 12.4842 29.3759 12.3785 29.463C12.2727 29.5502 12.1403 29.5986 12.0033 29.6001Z" fill="#009BFF"/>
<path d="M26.5873 10.3908H9.49255L10.6169 4.00269H27.4816C27.5739 3.99387 27.6671 4.0068 27.7535 4.04045C27.84 4.0741 27.9174 4.12752 27.9795 4.19645C28.0416 4.26538 28.0866 4.34789 28.1111 4.43738C28.1356 4.52687 28.1388 4.62084 28.1204 4.71178L27.175 9.91176C27.1494 10.0482 27.0763 10.171 26.9687 10.2587C26.8611 10.3464 26.726 10.3932 26.5873 10.3908Z" fill="url(#paint0_linear_3363_2)"/>
<path d="M9.49265 10.3899H3.8072C3.72022 10.3909 3.63407 10.373 3.5547 10.3374C3.47534 10.3018 3.40466 10.2493 3.34755 10.1837C3.29044 10.1181 3.24827 10.0408 3.22396 9.95737C3.19964 9.87385 3.19375 9.78601 3.20671 9.70001L4.133 4.49366C4.1583 4.35603 4.23087 4.23157 4.33818 4.14176C4.44548 4.05195 4.58078 4.00243 4.72071 4.00177H10.617L9.49265 10.3899Z" fill="#0064FF"/>
<path d="M13.6322 23.199H7.23126L9.49265 10.4035H15.8936L13.6322 23.199Z" fill="url(#paint1_linear_3363_2)"/>
<defs>
<linearGradient id="paint0_linear_3363_2" x1="10.0408" y1="7.20315" x2="27.0878" y2="10.2716" gradientUnits="userSpaceOnUse">
<stop offset="0.03" stop-color="#E9FFFF"/>
<stop offset="0.17" stop-color="#C4FAC9"/>
<stop offset="0.33" stop-color="#A0F694"/>
<stop offset="0.48" stop-color="#82F269"/>
<stop offset="0.63" stop-color="#6AEF47"/>
<stop offset="0.76" stop-color="#5AED2F"/>
<stop offset="0.89" stop-color="#4FEB20"/>
<stop offset="1" stop-color="#4CEB1B"/>
</linearGradient>
<linearGradient id="paint1_linear_3363_2" x1="12.6854" y1="9.93721" x2="12.8063" y2="21.9762" gradientUnits="userSpaceOnUse">
<stop stop-color="#009BFF"/>
<stop offset="0.35" stop-color="#0081FE"/>
<stop offset="0.75" stop-color="#006AFD"/>
<stop offset="1" stop-color="#0062FD"/>
</linearGradient>
</defs>
</svg>
