<svg width="32" height="32" viewBox="0 0 32 32" fill="none" xmlns="http://www.w3.org/2000/svg">
<g clip-path="url(#clip0)">
<path d="M14.4552 9.21366C14.3449 9.13642 14.1628 9.25669 14.16 9.25835C14.0651 9.31352 13.5625 9.58938 12.4784 9.81007C11.3959 9.99766 10.165 10.124 10.165 10.124C9.58237 10.1696 9.02033 10.2248 8.47892 10.2895C8.55947 9.93421 8.58927 9.53642 8.41547 9.30911C8.22789 9.06359 8.04913 8.93945 7.88361 8.93945C7.77327 8.93945 7.61713 8.99738 7.51396 9.2738C7.37547 9.64676 7.14761 10.0462 6.79672 10.5235C2.57547 11.2076 0.0231962 12.4197 2.38143e-05 13.5215C-0.0286658 14.8926 2.25603 15.8062 2.25603 15.8062C2.35203 15.8382 2.38292 15.8244 2.39561 15.7985C2.42816 15.7334 2.34044 15.6633 2.34044 15.6633C1.05658 14.6636 1.14209 13.9497 1.14209 13.9497C1.21051 13.1072 3.22872 12.5792 5.51009 12.2625C5.01503 12.9961 4.55707 13.754 4.13796 14.5334C2.90706 16.8396 2.31727 18.8363 2.38237 20.4688C2.38237 20.5499 2.44471 22.471 3.22209 22.9808C3.30529 23.0379 3.40227 23.0716 3.50292 23.0785C3.53913 23.0793 3.57508 23.0724 3.60845 23.0583C3.64182 23.0442 3.67185 23.0233 3.69658 22.9968C3.78209 22.9047 3.8163 22.743 3.8003 22.5003C3.79534 22.4308 3.78871 22.3541 3.78154 22.2697C3.70485 21.3836 3.56085 19.7345 4.86513 17.1988C5.60444 15.7643 6.38899 14.385 7.01961 13.2815C7.29106 12.807 7.53547 12.3783 7.73685 12.0126C9.50678 11.8614 11.1068 11.8161 11.7413 11.8266C13.4516 11.8559 14.5628 10.0059 14.5341 9.4349C14.5269 9.33504 14.5071 9.25118 14.4552 9.21366Z" fill="#1D1D1B"/>
<path d="M31.9951 20.2484C31.987 19.9448 31.8985 19.6487 31.7385 19.3904C31.5691 19.1317 31.1978 18.6467 30.5308 18.1546C29.5548 17.434 29.4649 16.6986 29.5995 16.3532C29.7341 16.0078 30.1253 15.5124 29.6298 15.242C29.1344 14.9717 28.2676 15.8754 28.2356 16.7355C28.2012 17.2219 28.0699 17.6965 27.8494 18.1314C27.4963 18.788 26.0872 21.2812 25.2012 21.007C25.2012 21.007 24.7692 20.8122 25.0516 19.9411C25.3231 19.1008 27.904 13.2453 25.8174 12.2721C25.8174 12.2721 24.5562 11.7915 24.2561 12.4972C24.2561 12.4972 25.2767 12.3769 24.5711 15.3662C24.5711 15.3662 21.1333 15.0351 19.5719 18.7444C19.5719 18.7444 18.3708 21.0108 17.3954 21.0406C17.3954 21.0406 17.0047 20.9656 17.215 19.8268C17.215 19.8268 17.6801 17.5598 18.506 16.0437C18.506 16.0437 15.9388 13.7915 12.741 17.2442C12.741 17.2442 11.9758 17.9653 11.6001 19.6166C11.6001 19.6166 10.1739 21.2828 8.62793 20.9524C8.62793 20.9524 7.27676 20.8177 7.96586 18.3703C7.96586 18.3703 11.8693 18.6257 11.7943 16.4635C11.7943 16.4635 11.7341 15.0528 9.6922 15.3678C9.6922 15.3678 7.43565 15.5846 6.1369 18.3543C6.04531 18.5706 5.49028 19.9411 5.73304 20.7422C5.88476 21.2624 6.39179 22.3973 7.93662 22.3488C9.93772 22.2886 11.2387 20.9077 11.4991 20.5281C11.4991 20.5281 11.5195 22.2892 12.9402 22.3686C12.9402 22.3686 14.1308 22.4067 15.1239 20.4613C15.1239 20.4613 15.1631 20.3797 15.1967 20.3874C15.2087 20.3903 15.219 20.3976 15.2258 20.4079C15.2326 20.4181 15.2352 20.4305 15.2332 20.4426C15.1929 20.7736 15.061 22.4591 16.522 22.3868C16.522 22.3868 17.8031 22.5877 19.2442 20.1457C19.2442 20.1457 19.1841 22.447 20.6456 22.3664C20.6456 22.3664 21.9736 22.4051 22.9325 20.3979C22.9325 20.3979 22.9645 20.3383 23.0003 20.3593C23.0114 20.3691 23.0195 20.3819 23.0236 20.3962C23.0277 20.4105 23.0276 20.4256 23.0235 20.4398C22.9584 20.7675 22.7283 22.3433 24.2373 22.3708C24.2373 22.3708 24.6169 22.3918 24.8392 22.3113C25.466 22.1286 26.8034 21.3463 28.2891 18.0768C28.298 18.0542 28.3796 17.8511 28.4127 17.8511C28.432 17.8511 28.4436 17.8704 28.458 17.9063C28.458 17.9063 28.8442 18.7891 29.392 19.4561C29.392 19.4561 29.4742 19.5493 29.5129 19.5913C30.016 20.1948 30.2301 20.6467 29.5432 20.932C29.418 20.9733 28.1551 21.3733 28.0442 20.7433C28.0442 20.7433 27.3623 20.9673 27.2227 21.4219C27.1587 21.631 27.1603 22.0172 27.4897 22.1943C27.5072 22.2067 27.5257 22.2177 27.5449 22.2274L27.557 22.2329C27.6664 22.284 27.7822 22.32 27.9013 22.34C28.304 22.4244 29.0599 22.4707 30.1992 22.1148C30.2991 22.0862 30.3929 22.0547 30.4834 22.0222L30.5148 22.0111C31.2464 21.7353 31.6541 21.3491 31.8389 20.9474C31.962 20.7063 31.9857 20.4051 31.9907 20.2953C31.9907 20.2864 31.9907 20.2776 31.9907 20.2682V20.2484H31.9951ZM9.61827 16.0354C10.5043 15.6602 10.3841 16.2754 10.3841 16.2754C10.2941 17.5813 8.23731 17.7766 8.23731 17.7766C8.23731 17.7766 8.73276 16.4106 9.61827 16.0354ZM15.2784 19.0379C14.6163 20.9744 13.9123 20.6588 13.9123 20.6588C12.9192 20.2086 13.9874 18.047 13.9874 18.047C15.338 15.5096 16.6621 15.93 16.6621 15.93C16.3443 16.3504 15.9388 17.1035 15.2784 19.0379ZM21.7639 20.6743C20.5761 20.5154 21.6287 18.2417 21.6287 18.2417C22.9347 15.6001 24.3907 15.9151 24.3907 15.9151C23.0395 20.4641 21.7639 20.6743 21.7639 20.6743Z" fill="#1D1D1B"/>
</g>
<defs>
<clipPath id="clip0">
<rect width="32" height="32" fill="white"/>
</clipPath>
</defs>
</svg>
