<svg width="32" height="32" viewBox="0 0 32 32" fill="none" xmlns="http://www.w3.org/2000/svg">
<path d="M16.0074 31.0084C13.3083 31.0084 10.8307 30.105 9.23564 28.7559C8.42549 28.9979 7.38921 29.3873 6.73542 29.8702C6.17549 30.2833 6.24548 30.7045 6.34627 30.8745C6.78904 31.6218 13.9423 31.3517 16.0074 31.1191V31.0084ZM16.0074 31.0084C18.7067 31.0084 21.1842 30.105 22.7794 28.7559C23.5892 28.9979 24.6257 29.3873 25.2797 29.8702C25.8392 30.2833 25.7694 30.7045 25.6684 30.8745C25.2257 31.6218 18.0725 31.3517 16.0074 31.1191V31.0084Z" fill="#FAAB07"/>
<path d="M16.0232 14.832C20.4807 14.8019 24.0531 13.939 25.2636 13.6082C25.5521 13.5292 25.7064 13.3877 25.7064 13.3877C25.7074 13.347 25.7247 12.662 25.7247 12.3088C25.7247 6.35779 22.9155 0.378145 16.0068 0.37793C9.09808 0.378145 6.28872 6.35801 6.28872 12.3086C6.28872 12.6622 6.30595 13.347 6.30724 13.3875C6.30724 13.3875 6.4328 13.5199 6.66258 13.5841C7.7803 13.8951 11.4199 14.8008 15.9902 14.832H16.0232ZM28.136 19.7895C27.8597 18.9002 27.4826 17.8633 27.1006 16.8676C27.1006 16.8676 26.881 16.8405 26.7696 16.8725C23.3425 17.868 19.1885 18.5027 16.0232 18.4644H15.9902C12.8425 18.502 8.71668 17.875 5.30109 16.8891C5.17057 16.8513 4.91301 16.8676 4.91301 16.8676C4.53096 17.8633 4.15387 18.9005 3.87756 19.7895C2.55979 24.0297 2.98684 25.7843 3.31181 25.8236C4.00936 25.908 6.02663 22.6318 6.02663 22.6318C6.02663 25.961 9.0324 31.0725 15.9154 31.1195H16.0981C22.981 31.0725 25.9867 25.961 25.9867 22.6318C25.9867 22.6318 28.0042 25.908 28.7018 25.8238C29.0266 25.7843 29.4536 24.0295 28.136 19.7895Z" fill="black"/>
<path d="M13.5486 9.16898C12.6114 9.21141 11.8107 8.14391 11.7604 6.78653C11.7095 5.42874 12.4275 4.29362 13.3647 4.2512C14.3009 4.2092 15.1013 5.27628 15.1521 6.63407C15.2034 7.99208 14.4852 9.1272 13.5486 9.16898ZM20.2532 6.78653C20.203 8.14369 19.4023 9.21141 18.4651 9.16898C17.5283 9.12699 16.8103 7.99208 16.8615 6.63429C16.9124 5.27648 17.7126 4.20942 18.6491 4.2512C19.5861 4.29362 20.3042 5.42874 20.2532 6.78653Z" fill="white"/>
<path d="M21.9183 11.0866C21.6681 10.5321 19.1457 9.91406 16.0233 9.91406H15.9898C12.8671 9.91406 10.3449 10.5321 10.0945 11.0868C10.0826 11.1115 10.0764 11.1385 10.0762 11.1658C10.0762 11.2059 10.0897 11.2417 10.1106 11.2727C10.3217 11.58 13.1223 13.1003 15.9898 13.1003H16.0233C18.8905 13.1003 21.6911 11.5804 21.9022 11.2727C21.9244 11.2413 21.9364 11.2038 21.9366 11.1654C21.9364 11.1382 21.9301 11.1113 21.9183 11.0868" fill="#FAAB07"/>
<path d="M14.7 6.80719C14.7428 7.34343 14.4487 7.81979 14.0441 7.8717C13.6386 7.92381 13.2757 7.53143 13.2326 6.9952C13.1902 6.45854 13.484 5.98218 13.8879 5.93049C14.2941 5.87795 14.6576 6.27075 14.7 6.80699V6.80719ZM17.2747 6.98637C17.3576 6.83799 17.9216 6.05777 19.0895 6.34182C19.3964 6.41654 19.5382 6.52638 19.5682 6.56944C19.6124 6.63319 19.6246 6.72407 19.5796 6.84639C19.4909 7.08889 19.3076 7.08221 19.2062 7.03483C19.1405 7.00425 18.3271 6.46198 17.5778 7.27107C17.5261 7.32642 17.4339 7.34558 17.3466 7.27969C17.2591 7.21336 17.2231 7.0794 17.2747 6.98637Z" fill="black"/>
<path d="M16.023 18.2696H15.99C13.8374 18.2953 11.2273 18.0103 8.69954 17.512C8.48332 18.7648 8.35282 20.3399 8.4648 22.218C8.7482 26.9649 11.5674 29.949 15.9189 29.9921H16.0956C20.4473 29.949 23.2663 26.9649 23.5502 22.218C23.6622 20.3395 23.5314 18.7648 23.3149 17.5117C20.7869 18.0103 18.1762 18.2956 16.0231 18.2693" fill="white"/>
<path d="M9.89062 17.8721V22.5436C9.89062 22.5436 12.0308 22.9752 14.1751 22.6763V18.3673C12.8168 18.2904 11.3517 18.1192 9.89062 17.8721Z" fill="#EB1923"/>
<path d="M25.7066 13.3877C25.7066 13.3877 21.5436 14.7018 16.0233 14.7392H15.9903C10.4791 14.702 6.32154 13.392 6.30732 13.3877L4.91309 16.8675C8.40042 17.9189 12.7223 18.5964 15.9903 18.557H16.0233C19.2915 18.5964 23.6131 17.9189 27.1008 16.8675L25.7066 13.3877Z" fill="#EB1923"/>
</svg>
