<svg width="32" height="32" viewBox="0 0 32 32" fill="none" xmlns="http://www.w3.org/2000/svg">
<path d="M29.7122 15.0978C28.3949 13.748 26.5573 12.9023 24.5083 12.9023C22.7519 12.9023 21.2233 13.5203 19.8898 14.5936C19.3043 15.0652 18.7026 15.6181 17.9383 16.3662C17.548 16.724 6.55469 27.4246 6.55469 27.4246C7.14013 27.5059 7.92072 27.5221 8.63626 27.5384C9.30301 27.5384 21.9551 27.5384 22.4917 27.5384C23.5488 27.5384 24.2481 27.5384 24.9961 27.4896C26.7037 27.3595 28.3136 26.7416 29.6146 25.4568C32.493 22.6109 32.5418 17.9924 29.7122 15.0978ZM27.5981 23.4078C27.0289 23.9607 26.0369 24.5949 24.3944 24.66C23.6301 24.6925 22.7519 24.6925 22.3291 24.6925H13.4987C16.7024 21.5701 19.5157 18.8381 19.8247 18.5454C20.1174 18.2689 20.7679 17.6347 21.3371 17.1305C22.5893 16.0247 23.6951 15.7808 24.4757 15.797C25.7117 15.8133 26.8338 16.3174 27.6469 17.1305C29.3869 18.8706 29.3544 21.684 27.5981 23.4078Z" fill="#00A1FF"/>
<path d="M11.9536 14.4147C10.6526 13.4553 9.20528 12.9023 7.56278 12.9023C5.51373 12.9023 3.67609 13.748 2.35885 15.0978C-0.470791 17.9924 -0.438266 22.6109 2.47268 25.4568C3.64357 26.6115 5.04213 27.2132 6.53826 27.4408L9.38416 24.6925C8.91255 24.6925 8.27832 24.6762 7.69288 24.66C6.05039 24.6112 5.04213 23.977 4.48921 23.4078C2.73288 21.684 2.68409 18.8706 4.4079 17.1143C5.20475 16.3012 6.34311 15.797 7.57905 15.7808C8.35964 15.7808 9.40042 15.9922 10.6038 17.0004C11.173 17.472 12.4252 18.5779 12.9781 19.082C13.0107 19.1145 13.0432 19.1145 13.0757 19.082L15.0272 17.1631C15.0597 17.1305 15.0597 17.0818 15.0272 17.0655C14.0677 16.1873 12.7505 15.0164 11.9536 14.4147Z" fill="#00C4D6"/>
<path d="M25.2721 11.2591C23.9223 7.45375 20.2796 4.72168 16.0351 4.72168C11.1239 4.72168 7.07458 8.31565 6.34277 12.9992C6.74933 12.9341 7.13963 12.9016 7.56245 12.9016C8.14789 12.9016 8.70081 12.9667 9.20494 13.0968C9.2212 13.0968 9.2212 13.0968 9.23746 13.0968C9.90422 9.94188 12.7013 7.58384 16.0188 7.58384C18.7997 7.58384 21.2228 9.25886 22.3123 11.6169C22.3286 11.6494 22.3611 11.6657 22.3937 11.6657C23.223 11.438 24.1988 11.3079 25.1583 11.3892C25.2558 11.3892 25.2883 11.3404 25.2721 11.2591Z" fill="#006EFF"/>
</svg>
