<svg width="32" height="32" viewBox="0 0 32 32" fill="none" xmlns="http://www.w3.org/2000/svg">
<path d="M30.4391 17.9075C30.4397 18.9244 30.0806 19.9087 29.4255 20.6865C28.7704 21.4642 27.8613 21.9853 26.8591 22.1575V13.6575C27.8613 13.8297 28.7704 14.3508 29.4255 15.1285C30.0806 15.9063 30.4397 16.8906 30.4391 17.9075Z" fill="#FF5A1A"/>
<path d="M25.4191 15.8575V19.9375C25.4185 20.3782 25.2431 20.8007 24.9315 21.1123C24.6198 21.424 24.1974 21.5993 23.7566 21.6H18.7291C18.4441 21.6 18.2791 21.37 17.9291 20.6725C17.5791 19.975 17.1266 19.085 16.0541 19.085C14.9816 19.085 14.5191 20 14.1791 20.6725C13.8391 21.345 13.6616 21.6 13.3791 21.6H8.34914C7.90842 21.5993 7.48594 21.424 7.17431 21.1123C6.86267 20.8007 6.68731 20.3782 6.68665 19.9375V15.8575C6.68665 15.4166 6.8618 14.9937 7.17358 14.6819C7.48536 14.3702 7.90822 14.195 8.34914 14.195H23.7566C24.1976 14.195 24.6204 14.3702 24.9322 14.6819C25.244 14.9937 25.4191 15.4166 25.4191 15.8575Z" fill="#7BEA52"/>
<path d="M26.6666 12.185H26.8591C26.8565 9.8824 25.9406 7.67488 24.3124 6.0467C22.6842 4.41852 20.4767 3.50265 18.1741 3.5H13.9241C11.6215 3.50265 9.41399 4.41852 7.78581 6.0467C6.15763 7.67488 5.24176 9.8824 5.23911 12.185V12.2075C3.84055 12.3942 2.55946 13.0886 1.63967 14.1586C0.719882 15.2286 0.225608 16.5994 0.250927 18.0101C0.276245 19.4209 0.819387 20.773 1.77698 21.8093C2.73457 22.8456 4.03975 23.4936 5.44411 23.63C5.81106 25.0822 6.65164 26.3706 7.83292 27.2916C9.0142 28.2125 10.4688 28.7134 11.9666 28.715H20.1391C21.637 28.7134 23.0915 28.2125 24.2728 27.2916C25.4541 26.3706 26.2947 25.0822 26.6616 23.63C28.0825 23.4905 29.4007 22.8274 30.3597 21.7697C31.3187 20.7119 31.8499 19.3353 31.8499 17.9075C31.8499 16.4797 31.3187 15.1031 30.3597 14.0453C29.4007 12.9876 28.0825 12.3245 26.6616 12.185H26.6666ZM5.24411 22.15C4.23692 21.9838 3.3215 21.4652 2.66106 20.6868C2.00062 19.9085 1.63808 18.9208 1.63808 17.9C1.63808 16.8792 2.00062 15.8915 2.66106 15.1132C3.3215 14.3348 4.23692 13.8162 5.24411 13.65V22.15ZM13.9291 4.93999H18.1791C19.4897 4.9409 20.7756 5.29706 21.8999 5.9706C23.0242 6.64413 23.945 7.60984 24.5641 8.765C23.3399 7.69244 21.7667 7.10313 20.1391 7.1075H11.9691C10.3403 7.10589 8.76681 7.69882 7.54411 8.775C8.16194 7.61798 9.08208 6.65024 10.2065 5.97488C11.3309 5.29953 12.6175 4.94186 13.9291 4.93999V4.93999ZM11.9691 8.5375H20.1391C21.4372 8.53894 22.6895 9.01761 23.6575 9.88242C24.6256 10.7472 25.2419 11.9378 25.3891 13.2275C24.9009 12.9231 24.337 12.7619 23.7616 12.7625H8.34911C7.77375 12.7619 7.20982 12.9231 6.72161 13.2275C6.86936 11.9387 7.48555 10.7491 8.45303 9.88482C9.42052 9.02058 10.6718 8.54198 11.9691 8.54V8.5375ZM20.1391 27.275H11.9691C10.671 27.2736 9.41877 26.7949 8.45071 25.9301C7.48264 25.0653 6.86634 23.8747 6.71911 22.585C7.20706 22.8903 7.77101 23.0523 8.34661 23.0525H13.3741C14.5916 23.0525 15.1241 22.02 15.4616 21.3325C15.6966 20.8675 15.8766 20.5375 16.0516 20.5375C16.2266 20.5375 16.4066 20.8675 16.6416 21.3325C16.9866 22.0175 17.5116 23.0525 18.7291 23.0525H23.7566C24.3322 23.0523 24.8962 22.8903 25.3841 22.585C25.237 23.8739 24.6214 25.0637 23.6544 25.9284C22.6874 26.7931 21.4363 27.2723 20.1391 27.275ZM25.4241 19.9475C25.4234 20.3882 25.2481 20.8107 24.9364 21.1223C24.6248 21.434 24.2023 21.6093 23.7616 21.61H18.7291C18.4441 21.61 18.2791 21.38 17.9291 20.6825C17.5791 19.985 17.1266 19.095 16.0541 19.095C14.9816 19.095 14.5191 20.01 14.1791 20.6825C13.8391 21.355 13.6616 21.61 13.3791 21.61H8.34911C7.90839 21.6093 7.48591 21.434 7.17427 21.1223C6.86264 20.8107 6.68727 20.3882 6.68661 19.9475V15.8575C6.68661 15.4166 6.86177 14.9937 7.17355 14.6819C7.48532 14.3702 7.90819 14.195 8.34911 14.195H23.7566C24.1975 14.195 24.6204 14.3702 24.9322 14.6819C25.244 14.9937 25.4191 15.4166 25.4191 15.8575L25.4241 19.9475ZM26.8641 22.1525V13.6525C27.8713 13.8187 28.7867 14.3373 29.4472 15.1157C30.1076 15.894 30.4701 16.8817 30.4701 17.9025C30.4701 18.9233 30.1076 19.911 29.4472 20.6893C28.7867 21.4677 27.8713 21.9863 26.8641 22.1525Z" fill="#4A210B"/>
<path d="M26.6666 12.185H26.8591C26.8565 9.8824 25.9406 7.67488 24.3124 6.0467C22.6842 4.41852 20.4767 3.50265 18.1741 3.5H13.9241C11.6215 3.50265 9.41399 4.41852 7.78581 6.0467C6.15763 7.67488 5.24176 9.8824 5.23911 12.185V12.2075C3.84055 12.3942 2.55946 13.0886 1.63967 14.1586C0.719882 15.2286 0.225608 16.5994 0.250927 18.0101C0.276245 19.4209 0.819387 20.773 1.77698 21.8093C2.73457 22.8456 4.03975 23.4936 5.44411 23.63C5.81106 25.0822 6.65164 26.3706 7.83292 27.2916C9.0142 28.2125 10.4688 28.7134 11.9666 28.715H20.1391C21.637 28.7134 23.0915 28.2125 24.2728 27.2916C25.4541 26.3706 26.2947 25.0822 26.6616 23.63C28.0825 23.4905 29.4007 22.8274 30.3597 21.7697C31.3187 20.7119 31.8499 19.3353 31.8499 17.9075C31.8499 16.4797 31.3187 15.1031 30.3597 14.0453C29.4007 12.9876 28.0825 12.3245 26.6616 12.185H26.6666ZM5.24411 22.15C4.23692 21.9838 3.3215 21.4652 2.66106 20.6868C2.00062 19.9085 1.63808 18.9208 1.63808 17.9C1.63808 16.8792 2.00062 15.8915 2.66106 15.1132C3.3215 14.3348 4.23692 13.8162 5.24411 13.65V22.15ZM13.9291 4.93999H18.1791C19.4897 4.9409 20.7756 5.29706 21.8999 5.9706C23.0242 6.64413 23.945 7.60984 24.5641 8.765C23.3399 7.69244 21.7667 7.10313 20.1391 7.1075H11.9691C10.3403 7.10589 8.76681 7.69882 7.54411 8.775C8.16194 7.61798 9.08208 6.65024 10.2065 5.97488C11.3309 5.29953 12.6175 4.94186 13.9291 4.93999V4.93999ZM11.9691 8.5375H20.1391C21.4372 8.53894 22.6895 9.01761 23.6575 9.88242C24.6256 10.7472 25.2419 11.9378 25.3891 13.2275C24.9009 12.9231 24.337 12.7619 23.7616 12.7625H8.34911C7.77375 12.7619 7.20982 12.9231 6.72161 13.2275C6.86936 11.9387 7.48555 10.7491 8.45303 9.88482C9.42052 9.02058 10.6718 8.54198 11.9691 8.54V8.5375ZM20.1391 27.275H11.9691C10.671 27.2736 9.41877 26.7949 8.45071 25.9301C7.48264 25.0653 6.86634 23.8747 6.71911 22.585C7.20706 22.8903 7.77101 23.0523 8.34661 23.0525H13.3741C14.5916 23.0525 15.1241 22.02 15.4616 21.3325C15.6966 20.8675 15.8766 20.5375 16.0516 20.5375C16.2266 20.5375 16.4066 20.8675 16.6416 21.3325C16.9866 22.0175 17.5116 23.0525 18.7291 23.0525H23.7566C24.3322 23.0523 24.8962 22.8903 25.3841 22.585C25.237 23.8739 24.6214 25.0637 23.6544 25.9284C22.6874 26.7931 21.4363 27.2723 20.1391 27.275ZM25.4241 19.9475C25.4234 20.3882 25.2481 20.8107 24.9364 21.1223C24.6248 21.434 24.2023 21.6093 23.7616 21.61H18.7291C18.4441 21.61 18.2791 21.38 17.9291 20.6825C17.5791 19.985 17.1266 19.095 16.0541 19.095C14.9816 19.095 14.5191 20.01 14.1791 20.6825C13.8391 21.355 13.6616 21.61 13.3791 21.61H8.34911C7.90839 21.6093 7.48591 21.434 7.17427 21.1223C6.86264 20.8107 6.68727 20.3882 6.68661 19.9475V15.8575C6.68661 15.4166 6.86177 14.9937 7.17355 14.6819C7.48532 14.3702 7.90819 14.195 8.34911 14.195H23.7566C24.1975 14.195 24.6204 14.3702 24.9322 14.6819C25.244 14.9937 25.4191 15.4166 25.4191 15.8575L25.4241 19.9475ZM26.8641 22.1525V13.6525C27.8713 13.8187 28.7867 14.3373 29.4472 15.1157C30.1076 15.894 30.4701 16.8817 30.4701 17.9025C30.4701 18.9233 30.1076 19.911 29.4472 20.6893C28.7867 21.4677 27.8713 21.9863 26.8641 22.1525Z" fill="#4A210B"/>
<path d="M25.389 22.585C25.2418 23.8747 24.6255 25.0653 23.6574 25.9301C22.6893 26.7949 21.4371 27.2736 20.139 27.275H11.969C10.6709 27.2736 9.41865 26.7949 8.45059 25.9301C7.48252 25.0653 6.86622 23.8747 6.71899 22.585C7.20694 22.8903 7.77089 23.0523 8.34649 23.0525H13.374C14.5915 23.0525 15.124 22.02 15.4615 21.3325C15.6965 20.8675 15.8765 20.5375 16.0515 20.5375C16.2265 20.5375 16.4065 20.8675 16.6415 21.3325C16.9865 22.0175 17.5115 23.0525 18.729 23.0525H23.7565C24.3338 23.0533 24.8996 22.8912 25.389 22.585V22.585Z" fill="#F8E6B8"/>
<path d="M25.3891 13.23C24.9008 12.9256 24.3369 12.7644 23.7616 12.765H8.34906C7.7737 12.7644 7.20977 12.9256 6.72156 13.23C6.86879 11.9403 7.48509 10.7497 8.45315 9.88492C9.42122 9.02011 10.6735 8.54144 11.9716 8.54H20.1391C21.4371 8.54144 22.6894 9.02011 23.6575 9.88492C24.6255 10.7497 25.2418 11.9403 25.3891 13.23V13.23Z" fill="#F8E6B8"/>
<path d="M5.24422 13.6625V22.1625C4.23703 21.9963 3.32161 21.4777 2.66117 20.6993C2.00072 19.921 1.63818 18.9333 1.63818 17.9125C1.63818 16.8917 2.00072 15.904 2.66117 15.1257C3.32161 14.3473 4.23703 13.8287 5.24422 13.6625V13.6625Z" fill="#FF5A1A"/>
<path d="M11.7316 20.1575C12.3709 20.1575 12.8891 19.6393 12.8891 19C12.8891 18.3607 12.3709 17.8425 11.7316 17.8425C11.0923 17.8425 10.5741 18.3607 10.5741 19C10.5741 19.6393 11.0923 20.1575 11.7316 20.1575Z" fill="#005237"/>
<path d="M20.3791 20.1575C21.0183 20.1575 21.5366 19.6393 21.5366 19C21.5366 18.3607 21.0183 17.8425 20.3791 17.8425C19.7398 17.8425 19.2216 18.3607 19.2216 19C19.2216 19.6393 19.7398 20.1575 20.3791 20.1575Z" fill="#005237"/>
<path d="M13.1116 16.2625H10.3341V16.9425H13.1116V16.2625Z" fill="#005237"/>
<path d="M21.7666 16.2625H18.9891V16.9425H21.7666V16.2625Z" fill="#005237"/>
</svg>
