<svg width="32" height="32" viewBox="0 0 32 32" fill="none" xmlns="http://www.w3.org/2000/svg">
<path d="M15.9998 31.1185C24.3495 31.1185 31.1183 24.3497 31.1183 16C31.1183 7.65036 24.3495 0.881592 15.9998 0.881592C7.65011 0.881592 0.881348 7.65036 0.881348 16C0.881348 24.3497 7.65011 31.1185 15.9998 31.1185Z" stroke="black" stroke-width="1.5" stroke-miterlimit="10"/>
<path d="M1.43799 20.0826C11.3829 17.8678 16.2589 28.1212 28.2313 24.8925" stroke="black" stroke-width="1.5" stroke-miterlimit="10"/>
<path d="M30.5782 20.022C26.1374 20.022 21.4157 16.4628 11.7407 21.7576" stroke="black" stroke-width="1.5" stroke-miterlimit="10"/>
<path d="M6.08203 13.2838V19.9009" stroke="black" stroke-miterlimit="10"/>
<path d="M7.79004 13.2838V20.2535" stroke="black" stroke-miterlimit="10"/>
<path d="M9.49805 13.2838V20.81" stroke="black" stroke-miterlimit="10"/>
<path d="M4.41846 11.6089H10.9474" stroke="black" stroke-width="1.5" stroke-miterlimit="10"/>
<path d="M14.2915 13.2838V20.507" stroke="black" stroke-miterlimit="10"/>
<path d="M15.9995 13.2838V19.8513" stroke="black" stroke-miterlimit="10"/>
<path d="M17.7075 13.2838V19.3499" stroke="black" stroke-miterlimit="10"/>
<path d="M12.6279 11.6089H19.1568" stroke="black" stroke-width="1.5" stroke-miterlimit="10"/>
<path d="M22.6108 13.2838V18.8706" stroke="black" stroke-miterlimit="10"/>
<path d="M24.3188 13.2838V19.0304" stroke="black" stroke-miterlimit="10"/>
<path d="M26.0269 13.2838V19.3224" stroke="black" stroke-miterlimit="10"/>
<path d="M20.9473 11.6089H27.4762" stroke="black" stroke-width="1.5" stroke-miterlimit="10"/>
<path d="M6.36377 9.95599C6.36377 9.04139 6.9533 8.3031 7.68057 8.3031C8.40785 8.3031 8.99738 9.04139 8.99738 9.95599" fill="black"/>
<path d="M14.5732 9.95599C14.5732 9.04139 15.1628 8.3031 15.89 8.3031C16.6173 8.3031 17.2069 9.04139 17.2069 9.95599" fill="black"/>
<path d="M22.8926 9.95599C22.8926 9.04139 23.4821 8.3031 24.2094 8.3031C24.9367 8.3031 25.5262 9.04139 25.5262 9.95599" fill="black"/>
</svg>
