<svg width="32" height="32" viewBox="0 0 32 32" fill="none" xmlns="http://www.w3.org/2000/svg">
<path d="M31.0918 21.2169C29.4149 21.2169 27.7148 21.2169 26.0263 21.2169C25.9098 21.2169 25.8632 21.1936 25.8632 21.0538C25.8632 19.377 25.8632 17.6768 25.8632 15.9883C25.8632 15.8486 25.8283 15.8253 25.7002 15.8253H21.3334C21.2169 15.8253 21.1704 15.8486 21.1704 15.9883C21.1704 17.6652 21.1704 19.3653 21.1704 21.0538C21.1704 21.1703 21.1471 21.2169 21.0073 21.2169C19.3305 21.2169 17.6303 21.2169 15.9418 21.2169C15.8021 21.2169 15.7788 21.2518 15.7788 21.3799V25.7351C15.7788 25.8515 15.8021 25.8981 15.9418 25.8981C17.6187 25.8981 19.3188 25.8981 21.0073 25.8981C21.1238 25.8981 21.1704 25.9214 21.1704 26.0611C21.1704 27.738 21.1704 29.4381 21.1704 31.1266C21.1704 31.2664 21.2053 31.2897 21.3334 31.2897H25.7002C25.8167 31.2897 25.8632 31.2664 25.8632 31.1266C25.8632 29.4498 25.8632 27.7496 25.8632 26.0611C25.8632 25.9447 25.8865 25.8981 26.0263 25.8981C27.7031 25.8981 29.4033 25.8981 31.0918 25.8981C31.2315 25.8981 31.2548 25.8632 31.2548 25.7351V21.3683C31.2548 21.2518 31.2315 21.2169 31.0918 21.2169Z" fill="#0073AA"/>
<path d="M31.1499 6.76561L24.6055 0.78017C24.5356 0.721946 24.4541 0.687012 24.3726 0.687012H2.49196C1.52544 0.687012 0.745239 1.46722 0.745239 2.43374V29.5662C0.745239 30.5327 1.52544 31.3129 2.49196 31.3129H18.9345C18.981 31.3129 19.0276 31.2663 19.0276 31.2198V28.2969C19.0276 28.1106 19.0276 28.1106 18.8297 28.1106H4.13389C3.93592 28.1106 3.95921 28.1222 3.95921 27.9359C3.95921 19.9941 3.95921 12.0524 3.95921 4.11059C3.95921 3.91263 3.93592 3.92428 4.14553 3.92428C7.6972 3.92428 11.2605 3.92428 14.8238 3.92428C17.6535 3.92428 20.4716 3.92428 23.3013 3.92428C23.3944 3.92428 23.4643 3.93592 23.5342 4.00579L28.0058 8.09313C28.099 8.17464 28.1222 8.25615 28.1222 8.36096V18.8413C28.1222 18.9345 28.2038 19.016 28.2969 19.016H31.08C31.2547 19.016 31.2547 19.016 31.2547 18.8297V7.0218C31.2547 6.92864 31.2198 6.83548 31.1499 6.76561Z" fill="#D7DADE"/>
</svg>
