<svg width="32" height="32" viewBox="0 0 32 32" fill="none" xmlns="http://www.w3.org/2000/svg">
<path d="M3.13059 18.5729C3.01039 18.3647 3.08173 18.0984 3.28994 17.9782L8.73033 14.8372C8.95224 14.7091 9.23602 14.7851 9.36411 15.0071L12.4908 20.4226C12.619 20.6446 12.5429 20.9283 12.321 21.0564L6.88059 24.1975C6.67238 24.3176 6.40615 24.2463 6.28595 24.0381L3.13059 18.5729Z" fill="#4580FF"/>
<path fill-rule="evenodd" clip-rule="evenodd" d="M9.61015 12.8213L14.5067 21.3025L7.53355 25.3284C6.70073 25.8093 5.63581 25.5239 5.15498 24.6911L1.99963 19.2259C1.5188 18.393 1.80415 17.3281 2.63696 16.8473L9.61015 12.8213ZM3.28993 17.9782C3.08173 18.0985 3.01039 18.3647 3.1306 18.5729L6.28594 24.0381C6.40615 24.2463 6.67238 24.3176 6.88058 24.1975L12.321 21.0564C12.5429 20.9284 12.619 20.6446 12.4908 20.4227L9.36411 15.0071C9.23602 14.7852 8.95224 14.7091 8.73032 14.8372L3.28993 17.9782Z" fill="#3F4AFF"/>
<path fill-rule="evenodd" clip-rule="evenodd" d="M18.0911 7.92468L25.3668 3.72407C26.0325 3.3397 26.8837 3.5678 27.2682 4.23356L30.5981 10.0013C31.079 10.8341 30.7936 11.899 29.9609 12.3799L22.9876 16.4058L18.0911 7.92468ZM20.2768 8.17069C20.0549 8.29881 19.9789 8.58258 20.107 8.8045L23.2336 14.2201C23.3618 14.442 23.6455 14.518 23.8674 14.3899L29.3079 11.2489C29.5161 11.1287 29.5874 10.8624 29.4672 10.6542L26.3262 5.21385C26.198 4.99192 25.9143 4.91589 25.6923 5.04402L20.2768 8.17069Z" fill="#F22908"/>
<path d="M20.1074 8.80454C19.9793 8.58262 20.0553 8.29885 20.2773 8.17073L25.6928 5.04405C25.9148 4.91592 26.1985 4.99196 26.3267 5.21388L29.4676 10.6542C29.5878 10.8625 29.5165 11.1287 29.3083 11.2489L23.8679 14.3899C23.646 14.518 23.3622 14.442 23.2341 14.2201L20.1074 8.80454Z" fill="#F26A08"/>
<path d="M16.5226 22.1823C16.3945 21.9604 16.4705 21.6766 16.6925 21.5485L22.108 18.4218C22.33 18.2936 22.6137 18.3697 22.7418 18.5916L25.8828 24.0321C26.003 24.2403 25.9317 24.5065 25.7235 24.6266L20.2583 27.782C20.0501 27.9022 19.7839 27.8309 19.6636 27.6227L16.5226 22.1823Z" fill="#FFE81B"/>
<path fill-rule="evenodd" clip-rule="evenodd" d="M14.5067 21.3025L22.9878 16.4059L27.0138 23.3791C27.4946 24.2119 27.2092 25.2768 26.3764 25.7576L20.9113 28.913C20.0784 29.3938 19.0135 29.1085 18.5327 28.2757L14.5067 21.3025ZM16.6925 21.5485C16.4705 21.6766 16.3945 21.9604 16.5226 22.1823L19.6636 27.6227C19.7839 27.8309 20.0501 27.9023 20.2583 27.782L25.7235 24.6267C25.9317 24.5065 26.003 24.2403 25.8828 24.032L22.7419 18.5916C22.6137 18.3697 22.3299 18.2937 22.108 18.4219L16.6925 21.5485Z" fill="#FFBF1B"/>
<path d="M11.6261 13.701C11.4981 13.4791 11.5741 13.1954 11.796 13.0673L17.2116 9.94059C17.4335 9.81249 17.7173 9.88847 17.8454 10.1105L20.9721 15.526C21.1002 15.7479 21.0242 16.0316 20.8022 16.1598L15.3867 19.2865C15.1648 19.4146 14.881 19.3385 14.7528 19.1166L11.6261 13.701Z" fill="#F43EFF"/>
<path fill-rule="evenodd" clip-rule="evenodd" d="M9.61024 12.8213L18.0914 7.92474L22.988 16.4058L14.5069 21.3025L9.61024 12.8213ZM11.796 13.0673C11.5741 13.1955 11.4981 13.4792 11.6261 13.7012L14.7528 19.1167C14.881 19.3386 15.1647 19.4147 15.3867 19.2866L20.8022 16.1599C21.0242 16.0317 21.1002 15.748 20.9721 15.526L17.8454 10.1105C17.7173 9.88853 17.4335 9.81255 17.2116 9.94064L11.796 13.0673Z" fill="#B519FF"/>
</svg>
