<svg width="32" height="32" viewBox="0 0 32 32" fill="none" xmlns="http://www.w3.org/2000/svg">
<path d="M8.56271 0V4.80763H13.4796V17.3548H18.2121V4.73243V0H8.56271Z" fill="#0099FA"/>
<path d="M5.96517 16.2387C5.96517 12.4961 8.04493 9.23937 11.1118 7.56257V7.56207H4.08948C2.29354 9.98853 1.23077 12.9883 1.23077 16.2387C1.23077 22.6881 5.40874 28.1602 11.2046 30.1004V24.9639C8.08727 23.3011 5.96517 20.0188 5.96517 16.2387Z" fill="#0099FA"/>
<path d="M20.581 2.41083V7.5616C23.6485 9.23926 25.7307 12.4955 25.7307 16.2395C25.7307 21.6956 21.3044 26.1209 15.8465 26.1209C15.0325 26.1209 14.2416 26.0218 13.4849 25.8365V30.6641C14.2543 30.7881 15.0422 30.8549 15.8465 30.8549C23.9183 30.8549 30.4626 24.3111 30.4626 16.2396C30.4625 9.82375 26.3291 4.37797 20.581 2.41083Z" fill="#0099FA"/>
</svg>
