<svg width="32" height="32" viewBox="0 0 32 32" fill="none" xmlns="http://www.w3.org/2000/svg">
<path d="M22.464 23.5574L14.5646 19.6077C13.97 19.3112 13.47 18.8546 13.121 18.2892C12.7721 17.7237 12.5881 17.0721 12.5897 16.4077V8.02367L8.99658 6.1951V18.1997C8.99743 18.8648 9.18238 19.5166 9.53095 20.083C9.87952 20.6495 10.3781 21.1083 10.9714 21.4088L22.1714 27.0042L22.464 23.5574Z" fill="#29826B"/>
<path d="M7.39657 23.2008C6.80152 22.9016 6.30107 22.4433 5.95083 21.8768C5.60059 21.3102 5.41427 20.6577 5.41257 19.9917V6.06711L4.42514 5.5734C4.15104 5.44635 3.84974 5.3892 3.54816 5.40705C3.24658 5.4249 2.95412 5.51719 2.69692 5.67567C2.43972 5.83416 2.22579 6.0539 2.07426 6.31526C1.92273 6.57661 1.83832 6.87144 1.82857 7.1734V21.802C1.83027 22.468 2.01659 23.1205 2.36683 23.6871C2.71707 24.2536 3.21752 24.7119 3.81257 25.0111L17.1611 31.6854C17.4359 31.8127 17.738 31.8698 18.0403 31.8515C18.3426 31.8332 18.6356 31.7401 18.8931 31.5805C19.1505 31.421 19.3642 31.2 19.5152 30.9375C19.6661 30.6749 19.7494 30.379 19.7577 30.0763V29.3997L7.39657 23.2008Z" fill="#29826B"/>
<path d="M28.5349 6.87167L15.1772 0.188242C14.9319 0.0644761 14.661 0 14.3863 0C14.1116 0 13.8407 0.0644761 13.5954 0.188242V0.188242L9.93829 2.01681C10.188 1.88624 10.4656 1.81804 10.7474 1.81804C11.0292 1.81804 11.3069 1.88624 11.5566 2.01681L24.9051 8.70024C25.5063 8.99043 26.0141 9.44312 26.3712 10.0071C26.7283 10.571 26.9204 11.2236 26.9257 11.8911V26.5197C26.926 26.8576 26.8298 27.1885 26.6484 27.4736C26.467 27.7587 26.208 27.986 25.9017 28.1288V28.1288L29.5589 26.3002C29.8521 26.148 30.0967 25.9164 30.2648 25.6319C30.433 25.3474 30.5178 25.0214 30.5097 24.6911V10.0625C30.5097 9.39967 30.3248 8.74994 29.976 8.1863C29.6272 7.62266 29.1281 7.16741 28.5349 6.87167V6.87167Z" fill="#78C4A2"/>
<path d="M21.3577 10.4557L8.00914 3.78139C7.76036 3.65309 7.48449 3.58615 7.20457 3.58615C6.92465 3.58615 6.64879 3.65309 6.4 3.78139L2.74286 5.60996C2.99326 5.4816 3.27061 5.41465 3.552 5.41465C3.83339 5.41465 4.11074 5.4816 4.36114 5.60996L17.7097 12.2842C18.3068 12.5809 18.809 13.0387 19.1596 13.6058C19.5101 14.1729 19.6952 14.8267 19.6937 15.4934V30.122C19.694 30.4599 19.5978 30.7908 19.4164 31.0759C19.235 31.361 18.9759 31.5883 18.6697 31.7311L22.3269 29.9025C22.6265 29.7589 22.8792 29.5331 23.0557 29.2515C23.2321 28.9699 23.3249 28.644 23.3234 28.3117V13.6831C23.33 13.0152 23.1493 12.3589 22.8019 11.7884C22.4544 11.218 21.9542 10.7563 21.3577 10.4557Z" fill="#78C4A2"/>
</svg>
