<svg width="32" height="32" viewBox="0 0 32 32" fill="none" xmlns="http://www.w3.org/2000/svg">
<path fill-rule="evenodd" clip-rule="evenodd" d="M22.9029 8.91435C22.8571 8.96006 22.9714 8.96006 22.7886 8.96006C22.8343 8.91435 22.7429 8.91435 22.9029 8.91435ZM28.4114 5.32578C26.3086 5.32578 21.9429 6.10292 20.2286 6.46863C18.5829 6.78863 16.4571 7.24578 14.8571 7.86292C13.6229 8.34292 12.48 8.82292 11.2914 9.39435C10.1943 9.94292 9.12 10.5829 8.13714 11.2915L7.15428 12.0229C6.97143 12.1601 6.85714 12.2743 6.67428 12.4115C6.51428 12.5486 6.37714 12.6858 6.21714 12.8001C5.87428 13.0515 5.57714 13.4401 5.25714 13.6915C4.93714 13.9429 3.81714 15.2001 3.54285 15.5886L2.49143 17.0515C1.48571 18.5829 0.70857 20.4115 0.411427 22.2172C0.297141 22.8801 0.319998 23.2229 0.228569 23.7486C0.228569 23.7715 0.228569 23.7943 0.228569 23.8172V24.6172C0.29714 25.6001 0.571426 26.7201 0.571426 26.8115H0.639998C0.685713 26.1258 1.73714 23.6801 1.98857 23.1772L2.62857 21.9658C3.01714 21.3258 3.42857 20.6858 3.88571 20.0686C4.18285 19.6572 4.50286 19.2458 4.86857 18.9029C4.96 18.8115 4.93714 18.8115 5.02857 18.7201C5.39428 18.2858 5.87428 17.8744 6.28571 17.4629L7.63429 16.2972C7.68 16.2515 7.74857 16.2058 7.79428 16.1601L10.1714 14.4686C10.88 14.0343 11.5886 13.5772 12.2971 13.1658C12.96 12.8001 13.9429 12.2744 14.5829 12.0229L16.2971 11.2686C17.1886 10.9258 18.08 10.4915 18.9943 10.1944L20.8457 9.53149C21.1657 9.4172 21.4629 9.32578 21.7829 9.21149C22.0571 9.12006 22.4457 8.9372 22.7429 8.91435L20.6857 9.8515C19.9771 10.1486 18.72 10.8115 17.9657 11.1772L16 12.2286C15.3829 12.5943 14.72 12.9601 14.1029 13.3715L12.2971 14.6286C12.1829 14.7201 12.1371 14.7658 12.0229 14.8344C11.9543 14.8801 11.9314 14.9029 11.8857 14.9486L11.4971 15.2915C11.4286 15.3601 11.4286 15.3372 11.36 15.4058C11.3143 15.4515 11.2686 15.4972 11.2229 15.5429L9.50857 17.3486L7.61143 19.9772L6.85714 21.2572C6.78857 21.3715 6.74286 21.4629 6.69714 21.5772C6.30857 22.2401 5.96571 22.9258 5.66857 23.6115L5.50857 23.9772C6.01143 24.0915 8.84571 24.0686 9.53143 23.9772L10.7886 23.8401C12.8686 23.6115 15.2457 23.0401 17.0743 22.1258C17.1657 22.0801 17.2343 22.0572 17.3257 22.0115C17.3943 21.9886 17.4857 21.9429 17.5543 21.8972C17.6457 21.8515 17.6914 21.8058 17.7829 21.7601L18.24 21.5086C18.5371 21.3486 18.8343 21.1429 19.1086 20.9601C19.4286 20.7315 19.7943 20.5029 20.0686 20.2286C20.5029 19.8401 20.96 19.4515 21.3029 18.9944C21.3486 18.9258 21.4171 18.9029 21.4629 18.8115C22.0343 18.0801 22.5143 17.3029 23.04 16.5258C23.7943 15.3829 24.5029 14.2401 25.12 13.0058C26.4457 10.3544 26.8114 10.0343 28.4571 7.95435C28.5257 7.86292 28.5257 7.86292 28.6171 7.77149L29.5086 6.92578C29.8743 6.60578 30.3314 6.28578 30.7886 6.10292C31.2 5.94292 31.4057 5.87435 31.9771 5.87435C31.5886 5.30292 29.92 5.2572 28.8229 5.2572H28.5257H28.4114V5.32578ZM22.9029 8.91435L22.9714 8.86863L22.9029 8.91435Z" fill="#59A31D"/>
</svg>
