<svg width="32" height="32" viewBox="0 0 32 32" fill="none" xmlns="http://www.w3.org/2000/svg">
<path d="M20.1846 0C14.7692 0 10.1744 3.85641 9.18974 9.18974C9.84615 9.10769 10.5026 9.02564 11.159 9.02564C10.5026 9.02564 9.84615 9.10769 9.18974 9.18974C3.85641 10.1744 0 14.7692 0 20.1846V31.2615H11.159C16.4923 31.2615 21.0872 27.4872 22.0718 22.2359H20.1846C20.0205 22.2359 19.7744 22.2359 19.6103 22.2359C19.7744 22.2359 20.0205 22.2359 20.1846 22.2359H31.3436V11.159C31.2615 5.00513 26.3385 0 20.1846 0ZM9.02564 11.159C9.02564 11.8974 9.10769 12.6359 9.27179 13.3744C9.10769 12.6359 9.02564 11.8974 9.02564 11.159Z" fill="#135EEB"/>
<path d="M20.1846 22.3179C14.0308 22.3179 9.02564 17.3949 9.02564 11.241C9.02564 10.5846 9.10769 9.9282 9.18974 9.27179C3.85641 10.1744 0 14.7692 0 20.1846V31.2615H11.159C16.4923 31.2615 21.0872 27.4872 22.0718 22.2359H20.1846V22.3179Z" fill="#15C2FF"/>
<path d="M20.1846 0C14.7692 0 10.1743 3.85641 9.18973 9.18974C9.84614 9.10769 10.5025 9.02564 11.159 9.02564C17.3128 9.02564 22.3179 13.9487 22.3179 20.1026C22.3179 20.841 22.2359 21.4974 22.1538 22.2359H31.3436V11.159C31.2615 5.00513 26.3384 0 20.1846 0Z" fill="#2C82FF"/>
</svg>
