<svg width="32" height="32" viewBox="0 0 32 32" fill="none" xmlns="http://www.w3.org/2000/svg">
<path d="M16.9524 6.47607H16.9333C14.4381 6.47607 12.0762 7.4475 10.3048 9.18084C9.40952 8.79988 8.41905 8.59036 7.40952 8.59036C3.33333 8.59036 0 11.9046 0 15.9999C0 20.0951 3.31429 23.4094 7.40952 23.4094C8.4 23.4094 9.39048 23.1999 10.2857 22.8189C12 24.4951 14.3429 25.5237 16.9143 25.5237C22.1714 25.5237 26.4381 21.257 26.4381 15.9999C26.4571 10.7618 22.1905 6.47607 16.9524 6.47607ZM16.9333 23.4094C12.8571 23.4094 9.52381 20.0951 9.52381 15.9999H7.40952C7.40952 17.8666 7.94286 19.6189 8.87619 21.0856C8.4 21.2189 7.90476 21.2951 7.40952 21.2951C4.49524 21.2951 2.11429 18.9142 2.11429 15.9999C2.11429 13.0856 4.49524 10.7046 7.40952 10.7046C8.57143 10.7046 9.65714 11.0666 10.5905 11.7713C11.9429 12.7808 12.7048 14.3237 12.7048 15.9999H14.8381C14.8381 13.7904 13.8857 11.7332 12.1905 10.3237C13.5238 9.21893 15.2 8.59036 16.9524 8.59036C21.0286 8.59036 24.3619 11.9237 24.3619 15.9999C24.3429 20.0761 21.0286 23.4094 16.9333 23.4094ZM31.8286 21.3142V14.5332V21.3142Z" fill="black"/>
</svg>
