<svg width="627" height="627" viewBox="0 0 627 627" fill="none" xmlns="http://www.w3.org/2000/svg">
<path d="M253.947 246.658V222.26C245.478 220.919 236.924 220.184 228.35 220.061C145.343 219.884 71.8543 273.675 46.9272 352.851C22 432.026 51.4236 518.215 119.557 565.622C94.5725 538.882 77.861 505.483 71.4401 469.455C65.0192 433.427 69.1632 396.311 83.372 362.586C97.5809 328.862 121.247 299.97 151.514 279.4C181.781 258.829 217.355 247.459 253.942 246.661L253.947 246.658Z" fill="#25F4EE"/>
<path d="M258.549 523.027C304.959 522.964 343.107 486.402 345.139 440.036V26.2841H420.726C419.184 17.6384 418.448 8.86802 418.528 0.0861206L315.14 0.0861206V413.44C313.42 460.041 275.181 496.954 228.549 497.029C214.614 496.91 200.906 493.484 188.555 487.031C196.56 498.121 207.073 507.163 219.237 513.419C231.401 519.675 244.871 522.967 258.549 523.027V523.027ZM561.911 166.666V143.668C534.092 143.679 506.89 135.471 483.721 120.073C504.031 143.685 531.478 160.04 561.911 166.666V166.666Z" fill="#25F4EE"/>
<path d="M483.721 120.073C460.896 94.083 448.314 60.672 448.325 26.082H420.726C424.291 45.2064 431.715 63.4038 442.546 79.5638C453.377 95.7237 467.387 109.507 483.721 120.073V120.073ZM228.35 323.45C208.994 323.548 190.226 330.114 175.03 342.105C159.834 354.095 149.083 370.821 144.486 389.624C139.888 408.427 141.708 428.227 149.657 445.876C157.605 463.526 171.226 478.011 188.353 487.031C178.988 474.101 173.381 458.835 172.149 442.918C170.918 427.002 174.11 411.055 181.373 396.839C188.637 382.623 199.689 370.691 213.309 362.363C226.928 354.034 242.585 349.633 258.549 349.645C267.228 349.758 275.846 351.109 284.143 353.657V248.458C275.67 247.187 267.117 246.519 258.549 246.459H253.947V326.448C245.606 324.211 236.983 323.201 228.35 323.45V323.45Z" fill="#FE2C55"/>
<path d="M561.911 166.666V246.658C510.411 246.558 460.248 230.256 418.528 200.063V410.239C418.306 515.114 333.225 600.018 228.35 600.018C189.4 600.088 151.388 588.07 119.557 565.622C145.513 593.54 179.275 612.994 216.445 621.451C253.614 629.907 292.47 626.974 327.949 613.034C363.428 599.093 393.887 574.791 415.358 543.294C436.829 511.796 448.317 474.562 448.325 436.443V226.861C490.186 256.856 540.41 272.945 591.907 272.856V169.858C581.825 169.828 571.773 168.758 561.911 166.666V166.666Z" fill="#FE2C55"/>
<path d="M418.528 410.239V200.063C460.375 230.084 510.608 246.176 562.11 246.057V166.068C531.684 159.642 504.172 143.499 483.721 120.073C467.387 109.507 453.377 95.7237 442.546 79.5638C431.715 63.4038 424.291 45.2064 420.726 26.082H345.139V440.042C344.403 458.061 338.072 475.403 327.027 489.658C315.981 503.914 300.769 514.374 283.504 519.586C266.24 524.798 247.781 524.502 230.692 518.74C213.604 512.979 198.734 502.036 188.15 487.435C171.021 478.417 157.397 463.931 149.447 446.281C141.496 428.63 139.675 408.828 144.273 390.024C148.871 371.219 159.623 354.491 174.821 342.501C190.019 330.51 208.79 323.944 228.148 323.848C236.83 323.926 245.454 325.274 253.745 327.849V247.857C216.962 248.481 181.154 259.793 150.689 280.416C120.223 301.038 96.4163 330.079 82.1705 363.998C67.9246 397.917 63.8554 435.248 70.459 471.439C77.0627 507.63 94.0538 541.118 119.361 567.82C151.504 589.529 189.57 600.774 228.35 600.018C333.225 600.018 418.306 515.114 418.528 410.239V410.239Z" fill="black"/>
</svg>
