<svg width="32" height="32" viewBox="0 0 32 32" fill="none" xmlns="http://www.w3.org/2000/svg">
<path fill-rule="evenodd" clip-rule="evenodd" d="M20.5948 24.7019C20.8799 24.4167 20.8799 23.9536 20.5948 23.6685L16.6275 19.7013C16.3424 19.4161 15.8793 19.4161 15.5942 19.7013L11.6269 23.6685C11.3418 23.9536 11.3418 24.4167 11.6269 24.7019L15.5942 28.6691C15.8793 28.9542 16.3424 28.9542 16.6275 28.6691L20.5948 24.7019Z" fill="#A1FFEE"/>
<path fill-rule="evenodd" clip-rule="evenodd" d="M16.1458 18.7572L16.1808 18.7584L16.2156 18.7604L16.2506 18.7634L16.2854 18.7672L16.3201 18.7717L16.3546 18.7772L16.3892 18.7833L16.4238 18.7906L16.4581 18.7984L16.4921 18.8072L16.5263 18.8168L16.56 18.8273L16.5938 18.8386L16.6272 18.8507L16.6604 18.8637L16.6913 18.8766L16.7097 18.8847L16.726 18.8923L16.7423 18.8998L16.7584 18.9077L16.7745 18.9158L16.7905 18.9241L16.8065 18.9326L16.8223 18.9413L16.8381 18.9503L16.8538 18.9593L16.8694 18.9687L16.8848 18.9783L16.9002 18.988L16.9154 18.998L16.9306 19.0081L16.9457 19.0185L16.9608 19.0291L16.9756 19.0398L16.9903 19.0509L17.0049 19.062L17.0196 19.0734L17.034 19.085L17.0482 19.0967L17.0623 19.1086L17.0763 19.1209L17.0903 19.1334L17.104 19.146L17.1176 19.1586L17.1311 19.1716L21.1247 23.1652L21.1376 23.1786L21.1504 23.1922L21.1629 23.206L21.1753 23.2199L21.1874 23.2337L21.1995 23.248L21.2112 23.2622L21.2228 23.2766L21.2342 23.2912L21.2453 23.3059L21.2563 23.3206L21.2672 23.3355L21.2777 23.3505L21.2881 23.3654L21.2982 23.3807L21.3082 23.396L21.3178 23.4114L21.3276 23.4269L21.3368 23.4424L21.346 23.458L21.3548 23.4739L21.3636 23.4896L21.3721 23.5056L21.3803 23.5216L21.3885 23.5378L21.404 23.5703L21.4114 23.5864L21.4196 23.6049L21.4325 23.6358L21.4455 23.669L21.4576 23.7024L21.4689 23.7362L21.4794 23.7699L21.489 23.804L21.4977 23.8381L21.5056 23.8724L21.5129 23.9069L21.5191 23.9414L21.5245 23.9761L21.529 24.0108L21.5329 24.0457L21.5357 24.0806L21.5379 24.1155L21.539 24.1503L21.5395 24.1853L21.539 24.2203L21.5379 24.2552L21.5357 24.2901L21.5329 24.325L21.529 24.3599L21.5244 24.3945L21.519 24.4291L21.5129 24.4638L21.5057 24.4981L21.4977 24.5324L21.489 24.5666L21.4794 24.6008L21.4689 24.6345L21.4576 24.6683L21.4455 24.7017L21.4325 24.7349L21.4195 24.7657L21.4115 24.7842L21.404 24.8004L21.3885 24.8329L21.3803 24.849L21.3721 24.8651L21.3548 24.8968L21.3458 24.9126L21.3276 24.9438L21.3178 24.9593L21.3082 24.9747L21.2982 24.9899L21.288 25.0052L21.2777 25.0202L21.2672 25.0352L21.2565 25.0499L21.2453 25.0648L21.2342 25.0795L21.2228 25.0941L21.2113 25.1083L21.1996 25.1226L21.1753 25.1508L21.1629 25.1647L21.1503 25.1783L21.1376 25.1921L21.1247 25.2055L17.1311 29.1991L17.1176 29.2121L17.1038 29.2248L17.0902 29.2375L17.0763 29.2498L17.0623 29.2618L17.0482 29.274L17.034 29.2857L17.0196 29.2973L17.0049 29.3087L16.9903 29.3198L16.9757 29.3307L16.9608 29.3416L16.9457 29.3522L16.9307 29.3625L16.9154 29.3727L16.9002 29.3827L16.8848 29.3923L16.8694 29.402L16.8538 29.4113L16.8381 29.4203L16.8223 29.4293L16.8064 29.438L16.7905 29.4466L16.7745 29.4549L16.7585 29.4629L16.7422 29.4707L16.7259 29.4785L16.7098 29.4859L16.6913 29.4939L16.6604 29.507L16.6272 29.52L16.5938 29.5321L16.56 29.5434L16.5263 29.5539L16.4923 29.5634L16.458 29.5721L16.4238 29.5801L16.3894 29.5872L16.3546 29.5935L16.32 29.5989L16.2854 29.6035L16.2506 29.6072L16.2157 29.6101L16.1808 29.6122L16.1458 29.6135L16.111 29.6139L16.0758 29.6135L16.0411 29.6122L16.0061 29.6102L15.9713 29.6072L15.9364 29.6034L15.9017 29.5989L15.8671 29.5935L15.8326 29.5872L15.7979 29.5801L15.7637 29.5721L15.7295 29.5635L15.6955 29.5537L15.6617 29.5434L15.628 29.532L15.5947 29.5199L15.5614 29.5069L15.5305 29.494L15.512 29.4857L15.4958 29.4785L15.4795 29.4707L15.4634 29.4629L15.4473 29.4547L15.4313 29.4465L15.4154 29.4381L15.3994 29.4294L15.3836 29.4203L15.368 29.4112L15.3525 29.402L15.3369 29.3923L15.3215 29.3827L15.3062 29.3727L15.291 29.3625L15.276 29.3522L15.2611 29.3416L15.2461 29.3308L15.2314 29.3198L15.2167 29.3087L15.2022 29.2972L15.1879 29.2856L15.1736 29.2738L15.1594 29.2618L15.1455 29.2497L15.1316 29.2373L15.1178 29.2248L15.1042 29.2119L15.0908 29.1991L15.0791 29.1876L11.1086 25.2171L11.0972 25.2055L11.0842 25.192L11.0715 25.1785L11.0589 25.1646L11.0465 25.1507L11.0344 25.1368L11.0224 25.1226L11.0106 25.1083L10.999 25.094L10.9875 25.0795L10.9763 25.0648L10.9653 25.0501L10.9547 25.0352L10.9441 25.0203L10.9337 25.0052L10.9235 24.9899L10.9135 24.9747L10.9038 24.9593L10.8942 24.9437L10.885 24.9282L10.8758 24.9126L10.8668 24.8968L10.8582 24.8809L10.8497 24.8649L10.8415 24.8489L10.8335 24.8329L10.8255 24.8167L10.8178 24.8005L10.8105 24.7842L10.8022 24.7657L10.7893 24.7348L10.7763 24.7015L10.7642 24.6682L10.7528 24.6345L10.7424 24.6006L10.7328 24.5668L10.7241 24.5325L10.7161 24.4983L10.7091 24.4638L10.7027 24.4291L10.6973 24.3945L10.6927 24.3599L10.6891 24.325L10.6859 24.2901L10.6841 24.2552L10.6828 24.2202L10.6823 24.1852L10.6827 24.1503L10.6841 24.1155L10.6861 24.0805L10.6891 24.0457L10.6927 24.0108L10.6973 23.9762L10.7027 23.9416L10.7091 23.9069L10.7161 23.8724L10.7241 23.8382L10.7328 23.8039L10.7424 23.77L10.7528 23.7362L10.7642 23.7025L10.7762 23.669L10.7893 23.6359L10.8022 23.605L10.8105 23.5865L10.8178 23.5701L10.8255 23.554L10.8333 23.5379L10.8413 23.5216L10.8497 23.5058L10.8582 23.4898L10.8668 23.4739L10.8758 23.4581L10.885 23.4425L10.8943 23.4269L10.9038 23.4114L10.9135 23.396L10.9236 23.3806L10.9337 23.3655L10.944 23.3505L10.9546 23.3354L10.9653 23.3206L10.9763 23.3059L10.9876 23.2911L10.999 23.2767L11.0105 23.2622L11.0222 23.248L11.0344 23.2339L11.0465 23.22L11.0589 23.2061L11.0715 23.1922L11.0841 23.1786L11.0971 23.1651L11.1086 23.1536L15.0791 19.1831L15.0907 19.1715L15.1041 19.1586L15.1178 19.1459L15.1315 19.1332L15.1455 19.121L15.1595 19.1087L15.1735 19.0967L15.1879 19.0849L15.2024 19.0734L15.2167 19.062L15.2314 19.0509L15.2461 19.0399L15.261 19.029L15.276 19.0185L15.2911 19.0081L15.3062 18.998L15.3215 18.988L15.337 18.9782L15.3525 18.9687L15.368 18.9595L15.3838 18.9502L15.3994 18.9413L15.4153 18.9327L15.4313 18.9242L15.4473 18.916L15.4634 18.9078L15.4795 18.9L15.4956 18.8923L15.5121 18.8848L15.5305 18.8767L15.5614 18.8638L15.5945 18.8507L15.628 18.8387L15.6617 18.8273L15.6954 18.8168L15.7295 18.8072L15.7638 18.7984L15.7981 18.7904L15.8326 18.7834L15.8671 18.7772L15.9017 18.7718L15.9364 18.7671L15.9713 18.7634L16.0061 18.7604L16.0411 18.7584L16.076 18.7571L16.1108 18.7567L16.1458 18.7572ZM16.1108 20.2184L16.1107 20.2182L12.1454 24.1836L12.144 24.1852L12.144 24.1855L12.1452 24.187L16.1092 28.1509L16.1107 28.1522L16.1108 28.1523L16.1111 28.1523L16.1126 28.1508L20.0764 24.187L20.0779 24.1855L20.0778 24.1853L20.0779 24.1852L20.0778 24.1851L20.0764 24.1837L16.1126 20.2199L16.1111 20.2184L16.1108 20.2184Z" fill="#253B59"/>
<path fill-rule="evenodd" clip-rule="evenodd" d="M30.3331 5.99392C30.3331 4.84796 29.4027 3.91748 28.2567 3.91748H3.96512C2.81909 3.91748 1.88867 4.84796 1.88867 5.99392V22.6055C1.88867 23.7514 2.81909 24.6819 3.96512 24.6819H28.2567C29.4027 24.6819 30.3331 23.7514 30.3331 22.6055V5.99392Z" fill="url(#paint0_linear_3066_45)" stroke="#243A59" stroke-width="0.0443775" stroke-miterlimit="1.5" stroke-linecap="round" stroke-linejoin="round"/>
<path fill-rule="evenodd" clip-rule="evenodd" d="M3.69771 4.81778V23.94C3.07051 23.7202 2.59961 23.1131 2.59961 22.4684V5.97224C2.59961 5.32767 3.07051 4.85644 3.69771 4.81778Z" fill="white" fill-opacity="0.9"/>
<path d="M10.6668 15.4377C11.4523 15.4377 12.0891 14.801 12.0891 14.0155C12.0891 13.23 11.4523 12.5933 10.6668 12.5933C9.88138 12.5933 9.24463 13.23 9.24463 14.0155C9.24463 14.801 9.88138 15.4377 10.6668 15.4377Z" fill="#243A59"/>
<path d="M21.5238 15.4377C22.3093 15.4377 22.946 14.801 22.946 14.0155C22.946 13.23 22.3093 12.5933 21.5238 12.5933C20.7383 12.5933 20.1016 13.23 20.1016 14.0155C20.1016 14.801 20.7383 15.4377 21.5238 15.4377Z" fill="#243A59"/>
<path fill-rule="evenodd" clip-rule="evenodd" d="M20.0589 17.4917L20.1044 17.4966L20.1493 17.5045L20.1937 17.5153L20.2373 17.5291L20.2799 17.5456L20.3214 17.5648L20.3614 17.5867L20.4 17.6111L20.437 17.6382L20.4719 17.6675L20.505 17.6991L20.5358 17.7327L20.5645 17.7682L20.5908 17.8057L20.6146 17.8447L20.6356 17.8852L20.6541 17.927L20.6697 17.9699L20.6826 18.0138L20.6925 18.0583L20.6995 18.1036L20.7037 18.1489L20.7046 18.1946L20.7027 18.2403L20.6978 18.2857L20.69 18.3308L20.6791 18.3752L20.6654 18.4187L20.649 18.4613L20.6297 18.5028L20.6079 18.5429L20.5833 18.5814L20.5564 18.6183L20.527 18.6533L20.4955 18.6864L20.4618 18.7174L20.4263 18.7459L20.3749 18.7845L20.3217 18.824L20.2686 18.8628L20.2155 18.9012L20.1624 18.9388L20.1095 18.9759L20.0565 19.0124L20.0036 19.0483L19.9507 19.0836L19.8979 19.1185L19.8451 19.1528L19.7925 19.1864L19.7399 19.2194L19.6873 19.252L19.6348 19.284L19.5824 19.3154L19.5299 19.3464L19.4776 19.3767L19.4254 19.4065L19.3731 19.4357L19.3209 19.4645L19.2688 19.4927L19.2168 19.5202L19.1648 19.5474L19.113 19.5739L19.0612 19.6L19.0094 19.6255L18.9577 19.6504L18.9062 19.675L18.8547 19.6989L18.8032 19.7224L18.7519 19.7453L18.7006 19.7677L18.6494 19.7897L18.5984 19.8111L18.5474 19.8319L18.4963 19.8524L18.4455 19.8724L18.3948 19.8917L18.3441 19.9107L18.2935 19.9292L18.243 19.9471L18.1926 19.9646L18.1424 19.9817L18.0923 19.9982L18.0421 20.0143L17.9922 20.03L17.9423 20.0451L17.8926 20.0598L17.843 20.0741L17.7934 20.0878L17.744 20.1011L17.6947 20.114L17.6456 20.1263L17.5965 20.1384L17.5476 20.1499L17.4988 20.161L17.45 20.1717L17.4015 20.1818L17.353 20.1917L17.3047 20.2012L17.2566 20.21L17.2084 20.2185L17.1606 20.2267L17.1128 20.2344L17.0653 20.2418L17.0178 20.2487L16.9704 20.2552L16.9232 20.2613L16.8762 20.267L16.8293 20.2724L16.7824 20.2774L16.7359 20.2819L16.6895 20.2862L16.6433 20.29L16.597 20.2934L16.5511 20.2965L16.5053 20.2991L16.4597 20.3016L16.4141 20.3036L16.3689 20.3052L16.3238 20.3065L16.2788 20.3075L16.234 20.3081L16.1893 20.3083H16.145L16.1007 20.308L16.0567 20.3072L16.0127 20.3062L15.969 20.3049L15.9255 20.3032L15.8821 20.3013L15.8389 20.299L15.796 20.2964L15.7531 20.2934L15.7106 20.2903L15.6682 20.2869L15.6259 20.2831L15.584 20.279L15.5422 20.2747L15.5006 20.2701L15.4591 20.2654L15.4179 20.2602L15.3769 20.2547L15.3361 20.2492L15.2954 20.2433L15.2551 20.2372L15.2147 20.2308L15.1749 20.2241L15.135 20.2172L15.0955 20.2102L15.0561 20.2028L15.0169 20.1953L14.978 20.1876L14.9392 20.1796L14.9008 20.1714L14.8626 20.1628L14.8244 20.1543L14.7865 20.1455L14.7489 20.1365L14.7116 20.1273L14.6743 20.1178L14.6373 20.1083L14.6006 20.0985L14.5641 20.0885L14.5277 20.0783L14.4917 20.0682L14.4558 20.0577L14.4203 20.047L14.3849 20.0362L14.3497 20.0252L14.3147 20.0143L14.28 20.003L14.2455 19.9917L14.2113 19.9802L14.1773 19.9686L14.1435 19.9568L14.11 19.9448L14.0767 19.9329L14.0437 19.9207L14.0109 19.9084L13.9783 19.896L13.946 19.8835L13.9138 19.8711L13.8819 19.8583L13.8503 19.8455L13.8189 19.8328L13.7878 19.8198L13.7569 19.8067L13.7261 19.7936L13.6958 19.7805L13.6655 19.7672L13.6357 19.7538L13.6059 19.7404L13.5766 19.7269L13.5474 19.7135L13.5184 19.6999L13.4897 19.6863L13.4613 19.6726L13.4331 19.659L13.4052 19.6452L13.3774 19.6314L13.35 19.6175L13.3228 19.6038L13.2958 19.5898L13.2692 19.5759L13.2427 19.5621L13.2166 19.5482L13.1907 19.5343L13.1651 19.5204L13.1396 19.5064L13.1144 19.4924L13.0895 19.4784L13.0643 19.4642L13.0165 19.4368L12.969 19.4091L12.9226 19.3815L12.8771 19.3539L12.8328 19.3267L12.7896 19.2996L12.7475 19.2727L12.7064 19.246L12.6664 19.2196L12.6273 19.1936L12.5895 19.1678L12.5527 19.1425L12.517 19.1176L12.4824 19.093L12.4489 19.0689L12.4165 19.0453L12.3853 19.0221L12.3552 18.9994L12.3261 18.9775L12.2982 18.956L12.2716 18.9352L12.2459 18.9149L12.2216 18.8954L12.1983 18.8766L12.1761 18.8586L12.1551 18.8412L12.1353 18.8247L12.1166 18.8089L12.0985 18.7934L12.0679 18.7668L12.0414 18.7432L12.0197 18.7237L12.0023 18.7077L11.9899 18.6959L11.9577 18.6635L11.9277 18.6291L11.9 18.5927L11.8746 18.5547L11.852 18.5151L11.8319 18.4739L11.8145 18.4317L11.8 18.3884L11.7884 18.3442L11.7796 18.2995L11.7737 18.2541L11.771 18.2086L11.7712 18.1629L11.7742 18.1172L11.7804 18.0719L11.7893 18.0272L11.8013 17.9832L11.8163 17.9399L11.8338 17.8976L11.8542 17.8569L11.8772 17.8174L11.9027 17.7794L11.9306 17.7433L11.9609 17.7089L11.9932 17.6768L12.0277 17.6468L12.064 17.6192L12.1021 17.5938L12.1417 17.5712L12.1828 17.551L12.2251 17.5336L12.2683 17.5192L12.3126 17.5074L12.3574 17.4988L12.4027 17.4929L12.4483 17.4901L12.494 17.4902L12.5395 17.4934L12.5847 17.4994L12.6295 17.5086L12.6737 17.5205L12.7169 17.5353L12.759 17.553L12.8 17.5733L12.8395 17.5962L12.8773 17.6218L12.9135 17.6498L12.9478 17.6799L12.9545 17.6863L12.9612 17.6924L12.9726 17.7029L12.9887 17.7171L13.0098 17.7355L13.0209 17.745L13.0339 17.7558L13.0477 17.7674L13.0627 17.7799L13.0788 17.793L13.0959 17.8067L13.1139 17.8211L13.133 17.8362L13.1531 17.8519L13.1742 17.8682L13.1963 17.8849L13.2194 17.9022L13.2435 17.9201L13.2685 17.9383L13.2945 17.9571L13.3215 17.9761L13.3494 17.9958L13.3782 18.0156L13.4079 18.0357L13.4385 18.0562L13.4701 18.077L13.5026 18.0981L13.5359 18.1194L13.5702 18.1409L13.6053 18.1625L13.6413 18.1843L13.6781 18.2063L13.7158 18.2282L13.755 18.2507L13.7738 18.2613L13.7936 18.2724L13.8136 18.2834L13.8337 18.2946L13.8541 18.3055L13.8747 18.3167L13.8956 18.3276L13.9165 18.3388L13.9377 18.3498L13.959 18.3607L13.9806 18.3717L14.0024 18.3827L14.0244 18.3937L14.0466 18.4045L14.0689 18.4155L14.0914 18.4263L14.1142 18.4371L14.137 18.4477L14.1601 18.4584L14.1834 18.469L14.207 18.4797L14.2306 18.4902L14.2784 18.5111L14.3026 18.5214L14.327 18.5318L14.3516 18.5419L14.3763 18.5521L14.4013 18.5622L14.4263 18.5721L14.4515 18.5821L14.477 18.5919L14.5026 18.6015L14.5284 18.6112L14.5544 18.6207L14.5805 18.63L14.6068 18.6394L14.6333 18.6487L14.6599 18.6577L14.6867 18.6667L14.7136 18.6758L14.7407 18.6844L14.768 18.6931L14.7954 18.7016L14.823 18.71L14.8508 18.7183L14.8788 18.7265L14.9069 18.7344L14.9351 18.7424L14.9635 18.7501L14.992 18.7577L15.0207 18.7652L15.0496 18.7724L15.0786 18.7796L15.1078 18.7865L15.1371 18.7934L15.1666 18.8001L15.1962 18.8066L15.2259 18.8129L15.2559 18.8191L15.286 18.8251L15.3161 18.8309L15.3466 18.8366L15.377 18.842L15.4077 18.8473L15.4384 18.8525L15.4695 18.8574L15.5004 18.862L15.5317 18.8666L15.5631 18.871L15.5947 18.8751L15.6262 18.879L15.6581 18.8828L15.69 18.8863L15.7222 18.8895L15.7544 18.8926L15.7868 18.8956L15.8193 18.8982L15.8518 18.9007L15.8847 18.9028L15.9175 18.9048L15.9507 18.9066L15.9838 18.908L16.0172 18.9093L16.0506 18.9103L16.0843 18.9112L16.1181 18.9116L16.1519 18.912H16.186L16.2201 18.9118L16.2544 18.9113L16.2888 18.9107L16.3234 18.9097L16.3582 18.9084L16.3929 18.9067L16.428 18.9049L16.4631 18.903L16.4983 18.9005L16.5337 18.8979L16.5693 18.8949L16.605 18.8918L16.6407 18.8882L16.6767 18.8844L16.7128 18.8804L16.749 18.8759L16.7853 18.8712L16.8218 18.8661L16.8585 18.8609L16.8953 18.8551L16.9321 18.8492L16.9693 18.8428L17.0064 18.8363L17.0437 18.8294L17.0812 18.822L17.1188 18.8145L17.1566 18.8065L17.1944 18.7981L17.2325 18.7896L17.2706 18.7806L17.309 18.7713L17.3475 18.7614L17.3861 18.7514L17.4248 18.7409L17.4635 18.7301L17.5026 18.719L17.5418 18.7074L17.581 18.6954L17.6206 18.6831L17.6601 18.6705L17.6998 18.6574L17.7397 18.6438L17.7797 18.63L17.8197 18.6156L17.86 18.6009L17.9005 18.5858L17.941 18.5703L17.9817 18.5544L18.0227 18.538L18.0636 18.5211L18.1048 18.5039L18.1461 18.4862L18.1874 18.4682L18.229 18.4495L18.2706 18.4305L18.3125 18.4112L18.3544 18.3912L18.3965 18.3709L18.4388 18.3499L18.4812 18.3286L18.5238 18.3068L18.5665 18.2846L18.6092 18.262L18.6521 18.2387L18.6953 18.2149L18.7385 18.1907L18.7819 18.166L18.8254 18.1409L18.8689 18.1152L18.9128 18.089L18.9566 18.0621L19.0006 18.0349L19.0448 18.0071L19.0891 17.9787L19.1336 17.9499L19.1781 17.9206L19.2229 17.8906L19.2677 17.8601L19.3126 17.8292L19.3578 17.7977L19.4029 17.7654L19.4483 17.7328L19.4937 17.6996L19.5393 17.6658L19.5869 17.63L19.6243 17.6038L19.6632 17.58L19.7037 17.5589L19.7457 17.5404L19.7885 17.5246L19.8324 17.5119L19.8769 17.5019L19.9221 17.495L19.9676 17.4909L20.0133 17.4897L20.0589 17.4917Z" fill="#253B59"/>
<defs>
<linearGradient id="paint0_linear_3066_45" x1="3.14886" y1="4.66415" x2="29.4402" y2="23.9353" gradientUnits="userSpaceOnUse">
<stop stop-color="#B476FF"/>
<stop offset="0.22" stop-color="#FFDA90"/>
<stop offset="0.53" stop-color="#73FFD5"/>
<stop offset="0.81" stop-color="#A1EEFF"/>
<stop offset="1" stop-color="#E4FFFA"/>
</linearGradient>
</defs>
</svg>
