<?xml version="1.0" encoding="UTF-8"?>
<!--Generator: Adobe Illustrator 19.2.0, SVG Export Plug-In . SVG Version: 6.00 Build 0)-->
<svg xmlns="http://www.w3.org/2000/svg" xmlns:xlink="http://www.w3.org/1999/xlink" id="Vector" width="512px" height="512px" x="0px" y="0px" enable-background="new 0 0 512 512" version="1.1" viewBox="0 0 512 512" xml:space="preserve"><g><path fill="#E2E2E2" d="M512,472c0,22.094-17.906,40-40,40H40c-22.094,0-40-17.906-40-40V40C0,17.906,17.906,0,40,0h432   c22.094,0,40,17.906,40,40V472z"/><g id="_x33_U2vWO_2_"><g><path fill="#283157" d="M331.624,213.996c10.987,0.827,10.859,8.558,9.752,16.228c-1.317,9.134-7.808,6.3-13.415,4.978     c-7.257-1.711-14.492-3.672-22.034-1.6c-2.38,0.654-5.116,0.939-5.403,4.094c-0.289,3.178,2.307,4.213,4.626,4.95     c7.871,2.503,16.006,4.297,23.672,7.301c13.24,5.188,16.035,11.149,14.659,27.716c-0.979,11.788-7.807,17.34-18.976,19.406     c-12.444,2.302-24.666,1.669-37.042-0.348c-9.585-1.563-9.052-8.471-8.452-15.076c0.707-7.776,6.1-7.226,11.99-6.037     c7.679,1.551,15.423,3.64,23.355,2.012c2.598-0.533,6.211-0.556,6.133-4.683c-0.057-3.032-2.603-4.117-4.918-4.891     c-6.263-2.096-12.638-3.855-18.911-5.921c-16.297-5.367-20.796-11.711-19.328-26.995c1.417-14.743,6.676-19.764,23.343-21.967     C304.768,212.621,325.44,213.53,331.624,213.996z"/><path fill="#283157" d="M122.618,213.289c9.109,0.009,18.223,0.201,27.325-0.053c7.059-0.197,9.278,3.055,9.32,9.809     c0.045,7.097-2.077,12.02-9.715,10.589c-15.484-2.9-17.742,4.852-16.708,17.742c0.957,11.931-0.129,24.011,0.326,36.001     c0.334,8.797-4.287,10.239-11.609,10.164c-7.096-0.073-12.09-0.984-11.789-9.992c0.456-13.648-0.575-27.371,0.359-40.971     c0.71-10.334-2.337-14.219-12.873-12.987c-5.182,0.606-12.355,2.447-13.381-6.59c-0.969-8.536,0.32-14.728,11.428-13.866     C104.357,213.84,113.509,213.28,122.618,213.289z"/><path fill="#283157" d="M187.89,255.395c-0.006,10.77-0.32,21.553,0.09,32.308c0.345,9.052-4.922,9.761-11.934,9.871     c-7.487,0.117-11.609-1.721-11.446-10.363c0.4-21.119,0.336-42.254,0.038-63.376c-0.116-8.254,3.54-10.747,11.293-10.743     c8.051,0.004,12.538,2.109,12.082,11.241C187.499,234.662,187.896,245.038,187.89,255.395z"/><path fill="#E37524" d="M39.456,328.897c0.006-4.956,0.211-9.922-0.042-14.865c-0.374-7.285,3.612-9.16,9.998-9.159     c6.161,0.002,9.338,2.447,8.979,8.814c-0.046,0.823-0.01,1.652,0.018,2.477c0.704,20.275,0.702,20.447,20.89,20.748     c6.567,0.098,11.072,0.746,11.165,9.135c0.099,8.871-4.458,10.229-11.714,9.938c-8.659-0.347-17.382-0.605-26.004,0.054     c-10.334,0.789-14.536-3.224-13.381-13.524C39.868,338.03,39.45,333.44,39.456,328.897z"/><path fill="#E37524" d="M472.67,330.406c-0.313,29.199,3.68,25.202-25.817,25.492c-4.955,0.049-9.931-0.278-14.862,0.07     c-7.485,0.528-10.395-2.649-10.305-10.112c0.088-7.266,3.609-9.484,10.118-8.85c0.409,0.04,0.826,0.013,1.238,0.002     c19.987-0.51,20.148-0.506,20.663-21.074c0.164-6.575,0.969-11.287,9.292-11.099c7.532,0.169,10.342,3.398,9.746,10.711     C472.342,320.468,472.667,325.45,472.67,330.406z"/><path fill="#E37524" d="M66.171,156.021c4.55,0.001,9.12,0.269,13.645-0.062c6.786-0.498,10.999,0.751,10.736,9.165     c-0.231,7.397-3.666,8.781-10.09,8.995c-21.152,0.702-21.41,0.891-21.945,21.991c-0.183,7.228-2.272,10.719-9.97,10.526     c-7.093-0.177-9.473-3.546-9.102-10.141c0.255-4.535,0.01-9.097,0.007-13.647C39.433,156.02,39.434,156.02,66.171,156.021z"/><path fill="#E37524" d="M447.839,156.013c24.832,0.017,24.832,0.017,24.834,24.908c0,5.371-0.24,10.754,0.056,16.109     c0.386,6.995-2.862,9.572-9.588,9.593c-6.88,0.021-9.979-2.888-9.35-9.738c0.038-0.41,0.013-0.826-0.001-1.239     c-0.731-20.962-0.728-21.169-21.279-21.512c-6.824-0.114-10.904-1.341-10.937-9.459c-0.036-8.744,5.113-8.943,11.395-8.706     C437.918,156.156,442.881,156.006,447.839,156.013z"/><path fill="#283157" d="M427.172,284.619c-4.061-17.695-8.49-35.308-12.992-52.898c-4.214-16.46-7.863-19.132-25.073-19.208     c-19.59-0.086-22.915,2.281-27.653,20.861c-4.385,17.196-8.661,34.427-12.474,51.754c-0.914,4.154-4.305,11.079,3.684,11.826     c6.577,0.614,16.062,4.362,18.024-7.034c1.454-8.446,2.945-11.386,17.452-10.617c8.699,0.461,16.06-1.936,17.774,11.098     c1.488,11.314,11.731,7.279,18.155,6.368C431.554,295.709,428.156,288.908,427.172,284.619z M387.741,259.14     c-3.258-0.322-9.508,1.034-9.071-5.615c0.48-7.305-1.556-19.99,9.362-20.142c11.262-0.157,8.784,12.715,9.501,19.907     C398.241,260.405,391.249,258.585,387.741,259.14z"/><path fill="#283157" d="M244.351,214.087c-11.953-0.998-24.033-0.388-36.041-0.866c-7.664-0.305-10.221,3.096-9.927,10.46     c0.412,10.351,0.104,20.731,0.106,31.099c0.001,10.782,0.378,21.583-0.129,32.341c-0.35,7.426,2.072,10.601,9.764,10.454     c7.321-0.14,13.988-0.495,12.713-10.286c-1.172-8.994,3.365-10.532,10.81-9.915c4.099,0.34,8.29-0.028,12.409-0.407     c18.744-1.723,25.962-10.175,26.305-30.596C270.709,225.491,263.185,215.659,244.351,214.087z M230.097,257.48     c-11.342,0.148-9.01-7.397-9.217-13.599c-0.236-7.054,2.951-10.473,10.804-9.914c9.22,0.469,16.048,0.862,15.904,11.909     C247.424,258.519,238.203,257.375,230.097,257.48z"/></g></g></g></svg>