<svg width="56" height="51" viewBox="0 0 56 51" fill="none" xmlns="http://www.w3.org/2000/svg">
<path d="M35.9551 37.0887C35.6551 36.6887 35.3551 36.3886 35.0551 36.1886C34.3551 35.5886 33.0551 35.3887 31.6551 36.4887L31.5551 36.5887C29.6551 38.2887 26.6551 41.0887 24.2551 40.5887C22.3551 40.1887 22.2551 38.4887 22.3551 36.8887C22.3551 36.4887 22.4551 36.0887 22.5551 35.5887C22.6551 35.2887 22.6551 34.9886 22.7551 34.6886C23.0551 33.4886 24.9551 24.8886 25.9551 20.5886C26.1551 19.8886 26.2551 19.1886 26.1551 18.5886C25.9551 17.6886 25.3551 17.2886 24.2551 17.0886C23.0551 16.7886 21.3551 17.3887 20.9551 18.6887C20.4551 20.2887 19.9551 22.4886 18.5551 29.0886C18.4551 29.3886 18.3551 29.7886 18.2551 30.0886V29.9887C17.9551 30.6887 17.8551 31.3886 16.8551 31.2886C16.0551 30.9886 15.9551 29.9887 15.9551 29.3887V29.1887L15.8551 27.4887C15.7551 24.9887 15.7551 22.3887 15.8551 19.4887L15.9551 17.7886L16.1551 14.9887C16.1551 14.1887 16.0551 13.7887 15.7551 13.4887C15.4551 13.1887 14.7551 13.0887 13.9551 13.1887C13.3551 13.2887 12.7551 13.4887 12.3551 13.9887C11.9551 14.3887 11.8551 14.9886 11.7551 15.5886C11.5551 16.9886 11.4551 18.4886 11.4551 19.8886C11.2551 22.7887 11.2551 25.5886 11.4551 28.5886C11.4551 28.8886 11.4551 28.9887 11.4551 29.1887V29.2886C11.4551 30.6886 11.2551 31.1886 10.4551 31.1886C9.65507 31.1886 9.35508 30.3886 9.15508 29.7886L9.05508 29.3887C8.75508 27.6887 8.35509 25.9886 8.25509 24.3886L8.05508 23.3886C7.75508 21.6886 7.5551 20.4887 7.3551 18.9887C7.3551 18.6887 7.1551 18.1887 6.8551 17.9887C6.6551 17.8887 6.25508 17.7887 5.65508 18.1887H5.55508C4.65508 18.7887 4.25509 19.5887 4.25509 20.6887C4.25509 21.9887 4.45508 23.5886 4.55508 24.7886C4.85508 27.7886 5.2551 29.7887 5.8551 32.0887L5.95507 32.3887C6.15507 33.0887 6.05509 33.5886 5.75509 33.7886C5.55509 33.9886 5.35508 33.9887 5.05508 33.8887C4.55508 33.6887 4.0551 32.7887 3.8551 32.3887L3.75509 32.2886C2.95509 30.4886 2.4551 28.4887 1.8551 26.4887V26.2886C1.8551 26.2886 1.75507 25.8886 1.45507 25.8886C1.15507 25.7886 0.855097 25.8887 0.355097 26.4887C-0.344903 27.2887 0.155072 29.3887 0.455072 30.4887C1.65507 36.4887 6.45508 45.6886 15.1551 49.2886C21.9551 51.9886 26.1551 48.4887 34.6551 41.0887C35.3551 40.4887 36.1551 39.4887 36.3551 38.5887C36.3551 37.9887 36.3551 37.5887 35.9551 37.0887Z" fill="#FF1400"/>
<path d="M54.4551 14.9887C51.8551 7.28867 47.3551 3.68866 46.6551 3.08866C46.3551 2.88866 44.9551 1.78867 44.1551 1.48867C43.8551 1.38867 43.7551 1.38866 43.4551 1.38866H43.3551H43.2551C43.0551 1.38866 42.9551 1.38867 42.8551 1.48867L42.7551 1.78866C42.7551 2.08866 43.1551 2.58866 43.7551 3.08866C45.0551 4.28866 46.7551 6.28866 47.4551 7.08866C47.8551 7.58866 48.0551 8.28867 47.4551 8.68867C47.2551 8.78867 47.0551 8.88867 46.6551 8.68867C46.4551 8.58867 46.2551 8.38866 45.8551 8.08866C43.9551 6.18866 39.6551 2.48866 37.0551 0.788657C35.8551 -0.0113425 34.8551 -0.111339 33.8551 0.0886605L33.6551 0.188667L33.5551 0.288657L33.3551 0.388664L33.2551 0.48867C33.1551 0.58867 33.0551 0.688657 33.0551 0.788657C32.9551 0.988657 32.9551 1.38866 33.3551 1.58866C34.5551 2.58866 40.1551 7.68866 41.1551 8.78866C42.0551 9.78866 42.0551 10.3887 41.7551 10.6887C41.2551 11.1887 40.4551 10.6887 40.2551 10.5887H40.3551C40.1551 10.4887 39.9551 10.2887 39.6551 10.0887C36.8551 7.78866 30.7551 3.88866 29.2551 3.08866C27.6551 2.28866 27.0551 2.08866 25.7551 2.78866L25.5551 2.88866C24.9551 3.18866 24.7551 3.68867 24.7551 3.98867C24.6551 4.28867 24.8551 4.78866 25.5551 5.28866C31.5551 9.28866 32.8551 9.98866 37.5551 13.5887C37.8551 13.8887 38.7551 14.6887 37.9551 15.4887C37.7551 15.6887 37.5551 15.7887 37.1551 15.6887H36.9551H37.1551H37.2551C36.8551 15.5887 36.3551 15.3887 35.8551 14.9887C33.2551 13.3887 28.6551 10.9887 26.2551 10.1887C24.5551 9.48867 23.5551 10.1887 22.9551 10.9887C22.4551 11.6887 22.3551 12.3887 22.4551 12.9887C22.6551 13.6887 23.2551 13.9887 23.6551 14.2887C27.0551 16.1887 29.6551 17.3887 32.9551 19.3887C33.9551 20.0887 34.2551 20.1887 35.2551 20.7887C36.4551 21.5887 38.1551 22.6887 38.7551 24.1887C38.8551 24.4887 38.9551 24.8887 38.9551 25.1887C38.9551 25.8887 38.7551 26.4887 37.8551 27.0887C36.2551 28.1887 33.3551 27.8887 30.7551 27.6887C30.2551 27.6887 29.3551 27.5887 28.7551 27.5887C27.4551 27.5887 26.7551 27.8887 26.3551 28.4887C26.0551 29.0887 25.9551 29.9887 25.9551 30.4887C25.9551 30.5887 25.9551 30.7887 26.0551 30.9887C26.0551 31.2887 26.2551 31.4887 26.2551 31.5887V31.6887C26.8551 32.4887 28.0551 32.6887 29.3551 32.8887C31.7551 33.0887 34.2551 33.0887 37.0551 33.1887C43.7551 33.3887 51.4551 32.8887 54.3551 28.7887C56.1551 25.9887 55.9551 19.3887 54.4551 14.9887Z" fill="#FF1400"/>
</svg>
