<svg width="32" height="32" viewBox="0 0 32 32" fill="none" xmlns="http://www.w3.org/2000/svg">
<path fill-rule="evenodd" clip-rule="evenodd" d="M2.28571 16.4413C2.28571 18.5129 3.96573 20.1929 6.0373 20.1929C8.1092 20.1929 9.78824 18.5129 9.78824 16.4413C9.78824 14.3694 8.1092 12.6897 6.0373 12.6897C3.96573 12.6897 2.28571 14.3694 2.28571 16.4413Z" fill="#73C05C"/>
<path fill-rule="evenodd" clip-rule="evenodd" d="M10.3387 6.71742C10.3387 8.78932 12.0184 10.469 14.0903 10.469C16.1622 10.469 17.8413 8.78932 17.8413 6.71742C17.8413 4.64585 16.1622 2.96582 14.0903 2.96582C12.0184 2.96582 10.3387 4.64585 10.3387 6.71742Z" fill="#40AD8F"/>
<path fill-rule="evenodd" clip-rule="evenodd" d="M14.1097 26.1664C14.1097 28.2383 15.7894 29.9183 17.8613 29.9183C19.9332 29.9183 21.6123 28.2383 21.6123 26.1664C21.6123 24.0948 19.9332 22.4148 17.8613 22.4148C15.7894 22.4148 14.1097 24.0948 14.1097 26.1664Z" fill="#73C05C"/>
<path fill-rule="evenodd" clip-rule="evenodd" d="M22.1355 16.3737C22.1355 18.4452 23.8155 20.1253 25.8871 20.1253C27.959 20.1253 29.638 18.4452 29.638 16.3737C29.638 14.3021 27.959 12.6221 25.8871 12.6221C23.8155 12.6221 22.1355 14.3021 22.1355 16.3737Z" fill="#40AD8F"/>
<path fill-rule="evenodd" clip-rule="evenodd" d="M2.55774 7.58555C2.55774 9.04908 3.74389 10.2356 5.20774 10.2356C6.67127 10.2356 7.85775 9.04908 7.85775 7.58555C7.85775 6.12203 6.67127 4.93555 5.20774 4.93555C3.74389 4.93555 2.55774 6.12203 2.55774 7.58555Z" fill="#40AD8F"/>
<path fill-rule="evenodd" clip-rule="evenodd" d="M24.1061 25.2972C24.1061 26.7607 25.2926 27.9472 26.7561 27.9472C28.2196 27.9472 29.4061 26.7607 29.4061 25.2972C29.4061 23.8337 28.2196 22.6472 26.7561 22.6472C25.2926 22.6472 24.1061 23.8337 24.1061 25.2972Z" fill="#73C05C"/>
<path fill-rule="evenodd" clip-rule="evenodd" d="M2.60193 27.2158C2.60193 29.7145 4.62744 31.74 7.12609 31.74C9.62441 31.74 11.6502 29.7145 11.6502 27.2158C11.6502 24.7172 9.62441 22.6917 7.12609 22.6917C4.62744 22.6917 2.60193 24.7172 2.60193 27.2158Z" fill="#73C05C"/>
<path fill-rule="evenodd" clip-rule="evenodd" d="M20.3136 5.66698C20.3136 8.16563 22.3391 10.1911 24.8378 10.1911C27.3364 10.1911 29.3619 8.16563 29.3619 5.66698C29.3619 3.16833 27.3364 1.14282 24.8378 1.14282C22.3391 1.14282 20.3136 3.16833 20.3136 5.66698Z" fill="#40AD8F"/>
</svg>
