<svg width="32" height="32" viewBox="0 0 32 32" fill="none" xmlns="http://www.w3.org/2000/svg">
<path d="M19.3684 9.68421C19.3684 6.42097 17.8821 3.52151 15.5782 1.68421C13.2772 3.52151 11.7895 6.42097 11.7895 9.68421C11.7895 12.9475 13.2772 15.8469 15.5782 17.6842C17.8821 15.8454 19.3684 12.9459 19.3684 9.68421Z" fill="#36BCAF"/>
<path d="M9.50619 15.6211C6.75724 14.0404 3.55983 13.9424 0.842102 15.0729C1.2196 17.9843 2.90133 20.6913 5.6517 22.272C8.39781 23.8541 11.5966 23.9536 14.3158 22.8202C13.9397 19.9102 12.2551 17.2018 9.50619 15.6211Z" fill="#68BC45"/>
<path d="M22.114 14.8615C20.1529 16.009 18.6111 17.8089 17.7624 19.9379C17.358 20.9511 17.1373 22.0126 17.0233 23.0922C16.887 24.3575 16.8366 25.6183 16.8426 26.8822L16.8455 30.3158H17.318C17.3151 30.2267 17.3802 28.2668 17.4128 27.9029C17.4528 27.4182 17.5269 26.9275 17.6291 26.4548C17.7905 25.715 18.0808 24.9313 18.6333 24.3998C19.2554 23.8019 20.1218 23.5588 20.9454 23.4138C21.8592 23.2522 22.7687 23.2085 23.6692 22.9608C24.5312 22.7253 25.3651 22.387 26.1412 21.9325C29.0073 20.252 30.7669 17.374 31.1579 14.2786C28.32 13.0767 24.9815 13.1809 22.114 14.8615Z" fill="#017AB7"/>
</svg>
