<svg width="32" height="32" viewBox="0 0 32 32" fill="none" xmlns="http://www.w3.org/2000/svg">
<path d="M19.3702 11.0854C19.4785 11.174 19.9609 11.4793 20.3843 11.7451C20.4139 11.7648 20.4434 11.7747 20.4631 11.7943L22.5111 11.5285C22.8459 11.43 22.9049 11.174 22.7179 10.859L21.4379 9.18512C21.2508 8.87004 20.9849 8.77158 20.5025 8.78142L17.4403 8.89958C16.8594 8.98819 16.9874 9.33281 17.1646 9.65773L18.0606 10.9771C18.1788 10.9279 18.4052 10.859 18.6809 10.859C18.9468 10.8491 19.1831 10.9279 19.3702 11.0854Z" fill="#BAD876"/>
<path d="M22.452 13.163C22.4914 13.1531 22.5406 13.1433 22.58 13.1433C22.58 13.1433 22.8557 13.1335 23.1609 13.1335C23.9289 13.1335 24.0865 13.1728 24.1948 13.2122C24.2145 13.2221 24.2342 13.2221 24.2539 13.2319C24.3523 13.2615 24.4508 13.3008 24.5591 13.3599L23.7419 12.3458C23.5548 12.0307 23.2889 11.9322 22.8065 11.9421L21.0637 12.1685C21.6446 12.5427 22.0779 12.8282 22.2945 13.0251C22.3437 13.0645 22.4028 13.1138 22.452 13.163Z" fill="#BAD876"/>
<path d="M16.4163 10.0807L16.0126 9.56871C16.0126 9.56871 15.6582 9.04687 14.8803 9.0764L4.19724 9.70656C4.19724 9.70656 3.15355 9.7361 3.47847 10.6124L3.75416 11.2426C3.75416 11.2426 4.12832 12.0106 5.04401 11.9318L15.7271 10.9373C15.7369 10.9472 16.9283 10.9078 16.4163 10.0807Z" fill="#BAD876"/>
<path d="M16.0717 15.969C16.2784 15.7032 16.6329 15.5259 17.0661 15.457C17.0858 15.3388 17.1154 15.2207 17.1449 15.1025L7.73199 16.9438C7.73199 16.9438 6.67846 17.0028 7.00338 17.889L7.27907 18.5192C7.27907 18.5192 7.66307 19.1296 8.57876 19.041L16.0421 17.3573C15.9732 17.2195 15.9141 17.0718 15.8846 16.9241C15.796 16.5795 15.8649 16.2348 16.0717 15.969Z" fill="#BAD876"/>
<path d="M16.8693 18.5782C16.8496 18.5388 16.8299 18.4896 16.8299 18.4502L9.48468 20.3899C9.48468 20.3899 8.43114 20.449 8.75606 21.3351L9.03176 21.9653C9.03176 21.9653 9.36653 22.7234 10.3314 22.4871L17.6078 20.3505C17.4502 20.124 17.3222 19.7794 17.2238 19.3265C17.1942 19.228 17.017 18.8637 16.8693 18.5782Z" fill="#BAD876"/>
<path d="M9.32711 24.2201C8.99235 24.3284 8.56896 24.102 8.37204 23.6983L1.31234 9.1752C1.11542 8.77151 1.23358 8.35797 1.5585 8.24966L21.4182 7.58997C21.8022 7.55059 22.0779 7.73766 22.3733 8.11182L29.5314 17.1703C29.7283 17.574 29.6102 17.9875 29.2853 18.0958L28.5763 18.3124C28.7831 18.5487 29.0293 18.7949 29.3148 18.9918L29.6397 18.8934C29.9942 18.7752 30.2699 18.5192 30.4176 18.1746C30.5751 17.7807 30.5456 17.318 30.3388 16.8847L23.1807 7.82628C22.6194 6.98936 22.0976 6.7432 21.0736 6.80228L1.21388 7.46197C-0.558425 7.60966 0.524652 9.47059 0.524652 9.47059L7.5745 23.9937C8.26373 25.697 9.68158 25.0177 9.68158 25.0177L20.8274 21.5912C20.6207 21.3549 20.404 21.1087 20.2071 20.8724L9.32711 24.2201Z" fill="#67BD58"/>
<path d="M13.3147 12.4341L5.93992 13.3695C5.93992 13.3695 4.89622 13.399 5.22115 14.2753L5.49684 14.9055C5.49684 14.9055 5.87099 15.6735 6.79653 15.5947L16.0815 14.1079C15.727 14.1276 15.3725 14.1473 15.0476 14.1473C13.9941 14.1473 13.6889 14.0095 13.5116 13.8519C13.1965 13.5762 13.0488 13.1922 13.1276 12.8181C13.1572 12.6704 13.2261 12.5424 13.3147 12.4341Z" fill="#67BD58"/>
<path d="M31.6778 20.5966L29.5707 19.6907C29.2753 19.5627 28.9996 19.3757 28.7535 19.1689C28.4876 18.9424 28.2612 18.6864 28.0839 18.4698C27.8083 18.1252 27.6409 17.8495 27.6409 17.8495C27.6409 17.8495 27.5621 17.751 27.4341 17.5738C27.0107 17.0323 26.0556 15.8015 25.3959 14.9547C25.2581 14.7873 25.1399 14.6298 25.0316 14.5018C24.9036 14.3443 24.8052 14.2163 24.7461 14.1572C24.3424 13.7043 24.2144 13.7338 24.0372 13.6649C23.8501 13.596 22.5996 13.6255 22.5996 13.6255L23.151 14.3246C23.2495 14.5609 23.0427 14.5707 23.0427 14.5707C22.9147 14.5412 22.4716 13.8027 21.9892 13.3793C21.7233 13.143 20.9947 12.6803 20.3252 12.2569C20.1086 12.1289 19.9116 12.0009 19.7246 11.8827C19.4095 11.6858 19.1633 11.5283 19.0747 11.4495C18.8679 11.2723 18.5529 11.3313 18.3756 11.3806C18.287 11.4101 18.2279 11.4298 18.2279 11.4298C18.2279 11.4298 16.879 11.7941 15.6778 12.119C14.7818 12.3652 13.9646 12.5818 13.8759 12.6113C13.6199 12.6901 13.4624 13.1332 13.8464 13.468C14.2403 13.8027 16.9184 13.5763 17.7258 13.4384C18.0999 13.3793 18.3166 13.3892 18.4544 13.4187C18.6119 13.4483 18.6513 13.5073 18.6513 13.5073C20.6796 15.4077 20.9356 17.1898 20.9356 17.1898C21.0538 17.2292 21.5264 17.7313 21.7233 17.9381C21.8907 18.1153 21.7726 18.1843 21.7036 18.2138C21.6938 18.2237 21.6741 18.2237 21.6643 18.2335C21.615 18.2532 21.2212 17.8397 21.0341 17.6427C21.0046 17.6033 20.975 17.5738 20.9553 17.5541C20.8667 17.4458 20.1283 17.1406 19.5867 16.5793C19.5769 16.5695 19.5769 16.5695 19.567 16.5597C19.0353 16.0083 18.7203 16.0772 17.9326 15.9295C17.1449 15.7818 16.1898 16.028 16.3769 16.7861C16.4163 16.9338 16.4753 17.0815 16.5541 17.2193C16.8101 17.6624 17.2433 18.0267 17.6963 18.204C17.8243 18.2532 17.9424 18.2926 18.0704 18.3024C18.7793 18.391 19.4193 19.1295 19.4193 19.1295C19.4193 19.1295 19.5966 19.3461 19.8624 19.671C20.0987 19.9566 20.4039 20.3209 20.7387 20.7049C20.9455 20.9412 21.1621 21.1874 21.3689 21.4138C21.7036 21.788 22.0286 22.1326 22.2747 22.359C23.2101 23.2354 27.1879 23.9049 27.1879 23.9049C27.1879 23.9049 29.8563 24.279 30.3092 24.476C30.7719 24.6827 31.0279 24.348 31.0279 24.348C31.8846 23.3043 31.9732 21.1283 31.9732 21.1283C32.0323 20.6852 31.6778 20.5966 31.6778 20.5966Z" fill="#67BD58"/>
<path d="M19.7244 15.5162C19.7244 15.5063 19.7244 15.5063 19.7146 15.4965C19.6949 15.4768 19.6752 15.4473 19.6555 15.4276C19.5472 15.2799 19.4389 15.142 19.3207 14.9943C19.3109 14.9746 19.301 14.9648 19.2814 14.9451C19.2124 14.8565 19.1435 14.758 19.0746 14.6596C18.9269 14.4528 18.7792 14.246 18.6118 14.0786C18.5724 14.0491 18.4346 14.0885 18.2869 14.2165C18.1687 14.315 18.0703 14.4528 17.9718 14.6399C17.9226 14.7383 17.8734 14.8466 17.834 14.9648C17.7749 15.142 17.7257 15.3291 17.6863 15.5359C18.405 15.5753 18.858 15.7033 19.0746 15.782C19.2223 15.595 19.5275 15.5457 19.7244 15.5162Z" fill="#50B748"/>
<path d="M18.2771 20.0647C18.346 20.0746 18.4248 20.0943 18.5036 20.0943C18.5824 20.0943 18.6513 20.0844 18.7104 20.045L18.7202 20.0352C18.7793 19.986 18.8088 19.917 18.8285 19.8087C18.8679 19.533 18.8974 19.3853 18.9171 19.2967C18.8187 19.1786 18.543 18.8635 18.1885 18.765C17.962 18.706 17.7553 18.6469 17.5879 18.5977C17.6962 18.8241 17.8242 19.09 17.8439 19.1786C17.8833 19.3755 18.0704 19.9367 18.1688 20.0549C18.1984 20.0549 18.2377 20.0549 18.2771 20.0647Z" fill="#50B748"/>
</svg>
