<svg xmlns="http://www.w3.org/2000/svg" data-name="Layer 1" viewBox="0 0 69.4 65">
  <path fill="#212932" d="M44.2 7H19.6a4.5 4.5 0 00-4.3 4.6v41.8a4.5 4.5 0 004.3 4.7h30.2a4.5 4.5 0 004.3-4.7V17.6L44.2 6.9zM19.6 53.3V11.6h21.6v9.3h8.6v32.5z"/>
  <path fill="#212932" d="M6 32.5A9.2 9.2 0 018 34a7 7 0 011.4 2.1 11.7 11.7 0 011 3 25.3 25.3 0 01.2 4.3v7.2c0 2 0 3.8.2 5.2a8.3 8.3 0 00.8 3.4 4 4 0 002.2 1.9 12.9 12.9 0 004.2.5V65h-.5a16.6 16.6 0 01-5.4-.7A7.8 7.8 0 018.7 62 8 8 0 017 58.6a20.3 20.3 0 01-.5-4.8v-13a7.7 7.7 0 00-.4-2.4 6 6 0 00-1.1-2 6.4 6.4 0 00-2-1.6 6.4 6.4 0 00-3-.7V31a6.3 6.3 0 002.9-.6 6.4 6.4 0 002-1.6 6 6 0 001.2-2 7.7 7.7 0 00.4-2.5v-13A20.3 20.3 0 017 6.4a8.2 8.2 0 011.7-3.5A7.8 7.8 0 0112.1.7a16.6 16.6 0 015.4-.7h.5v3.4a12.9 12.9 0 00-4.2.5 4 4 0 00-2.2 1.8 8.3 8.3 0 00-.9 3.5v12.4a25.6 25.6 0 01-.4 4.3 12 12 0 01-.9 3.1A7 7 0 018 31.1 9.2 9.2 0 016 32.5zm57.5 0a9.2 9.2 0 00-2 1.5A7 7 0 0060 36a12.2 12.2 0 00-1 3 25.3 25.3 0 00-.2 4.3v7.1l-.1 5.3a8.3 8.3 0 01-.9 3.4 3.9 3.9 0 01-2.2 1.9 12.9 12.9 0 01-4.2.5V65h.6a16.6 16.6 0 005.4-.7 7.8 7.8 0 003.4-2.2 8.1 8.1 0 001.7-3.5 21.4 21.4 0 00.5-4.8v-13a7.7 7.7 0 01.4-2.4 5.7 5.7 0 011.1-2 6.4 6.4 0 012-1.6 6.5 6.5 0 013-.6v-3.3a6.2 6.2 0 01-5-2.2 5.7 5.7 0 01-1.1-2 7.7 7.7 0 01-.4-2.5v-13a21.3 21.3 0 00-.5-4.8 8 8 0 00-1.8-3.5A7.8 7.8 0 0057.5.7 16.6 16.6 0 0052 0h-.5v3.4a12.9 12.9 0 014.2.5 3.9 3.9 0 012.2 1.8 8.3 8.3 0 01.8 3.5l.1 5.2v7.2a25.6 25.6 0 00.4 4.3A12 12 0 0060 29a7.3 7.3 0 001.4 2.1 9.2 9.2 0 002 1.5z"/>
  <ellipse cx="39.8" cy="46.6" fill="#d03f40" rx="17" ry="16.9"/>
  <path fill="#fff" d="M37 35.6h6.5v5l-1.3 10.2h-4l-1.3-10.2zm.2 16.7h6v5.4h-6z"/>
</svg>
