<svg width="86" height="86" viewBox="0 0 86 86" fill="none" xmlns="http://www.w3.org/2000/svg">
<path d="M21.9 20.4H9.6C8.4 20.4 7.7 21 7.7 22.3V26.2H0V18.2C0 14.3 1.3 13 5.2 13H51.8V20.4H30.5V74H21.9V20.4V20.4Z" fill="#1D1D1B"/>
<path d="M58 29.2C68.1 29.2 71.5 35.9 71.5 35.9H71.7C71.7 35.9 71.5 34.6 71.5 33V22C71.5 20.7 70.8 20.1 69.6 20.1H66.1V13H74.3999C78.2999 13 79.8999 14.6 79.8999 18.5V64.9C79.8999 66.2 80.6 66.8 81.8 66.8H85.2999V74H77.3C73.5 74 71.8999 72.3 71.8999 69.3C71.8999 68 72 67.1 72 67.1H71.8C71.8 67.1 68.2 75.1 57.5 75.1C45.7 75.1 38.2 65.8 38.2 52.2C38.2 38.2 46.5 29.2 58 29.2ZM71.8 52.1C71.8 44.3 67.6999 36.5 59.3999 36.5C52.5999 36.5 46.8999 42.2 46.8999 52.1C46.8999 61.6 52 67.7 59.3 67.7C65.6 67.8 71.8 63.2 71.8 52.1Z" fill="#008ECA"/>
</svg>
