<svg width="32" height="32" viewBox="0 0 32 32" fill="none" xmlns="http://www.w3.org/2000/svg">
<path fill-rule="evenodd" clip-rule="evenodd" d="M32 7.28141L19.8223 13.1389C19.5145 13.2869 19.3187 13.5983 19.3187 13.9399V31.9999H28.4445C30.4082 31.9999 32 30.408 32 28.4444V7.28141ZM12.6807 31.9999V13.9399C12.6807 13.5982 12.485 13.2869 12.1772 13.1389L0 7.28161V28.4444C0 30.408 1.59188 31.9999 3.55555 31.9999H12.6807Z" fill="#A5ACC7"/>
<path fill-rule="evenodd" clip-rule="evenodd" d="M3.55555 0C1.59188 0 0 1.59188 0 3.55555V4.64857C0 4.75963 0.0778996 4.85328 0.177983 4.90143L14.2735 11.6814L14.3994 11.7419C14.7072 11.89 14.903 12.2014 14.903 12.543V12.6827V30.9033C14.903 31.5089 15.3941 32 15.9998 32C16.6055 32 17.0965 31.5089 17.0965 30.9033V12.6827V12.5431C17.0965 12.2015 17.2923 11.8901 17.6001 11.742L17.726 11.6814L31.8216 4.90147C31.9219 4.8532 32 4.75935 32 4.64802V3.55555C32 1.59188 30.4082 0 28.4445 0H3.55555Z" fill="url(#paint0_linear_3721_3)"/>
<defs>
<linearGradient id="paint0_linear_3721_3" x1="10.476" y1="-0.436498" x2="16.1505" y2="31.8644" gradientUnits="userSpaceOnUse">
<stop stop-color="#5C59FB"/>
<stop offset="1" stop-color="#9AA4FF"/>
</linearGradient>
</defs>
</svg>
