<svg width="32" height="32" viewBox="0 0 32 32" fill="none" xmlns="http://www.w3.org/2000/svg">
<path d="M2.20589 18.3256C2.18614 18.2056 2.16738 18.0854 2.14963 17.9651C2.12964 17.8247 2.08202 17.6899 2.00966 17.5689C1.9373 17.4479 1.84171 17.3431 1.72866 17.261C1.49781 17.0886 1.21021 17.0155 0.927368 17.0573C0.646805 17.0974 0.392022 17.2463 0.215687 17.4733C0.131315 17.585 0.0696771 17.7129 0.034419 17.8494C-0.000839035 17.9859 -0.00900159 18.1282 0.0104141 18.268C0.031254 18.4067 0.0520938 18.5464 0.0771017 18.6851C0.361517 20.3468 0.90843 21.95 1.69636 23.4318C1.762 23.5566 1.85162 23.6665 1.95998 23.7561C2.18107 23.9393 2.46348 24.0266 2.74669 23.9993C3.02831 23.9737 3.2895 23.8381 3.47608 23.6206C3.56562 23.5141 3.63349 23.3903 3.67572 23.2566C3.71794 23.1229 3.73368 22.9819 3.72199 22.8419C3.70923 22.7017 3.66882 22.5657 3.60321 22.4419C2.92362 21.1564 2.45208 19.7666 2.20694 18.3267L2.20589 18.3256ZM5.21934 6.63904C5.50817 6.63865 5.78549 6.5231 5.9925 6.3169C7.10937 5.1785 8.4075 4.24316 9.8312 3.551C10.0239 3.4639 10.1861 3.3187 10.2962 3.13479C10.4062 2.95087 10.4588 2.73698 10.447 2.52165C10.4387 2.37901 10.4017 2.23966 10.3384 2.11229C10.2751 1.98493 10.1869 1.87228 10.0792 1.78137C9.85958 1.59186 9.57562 1.49906 9.28936 1.52324C9.14729 1.53396 9.00859 1.57272 8.8809 1.63737C7.23656 2.4356 5.73691 3.51449 4.44618 4.82781C4.34896 4.92733 4.27201 5.04561 4.21978 5.1758C4.16755 5.30598 4.14109 5.44549 4.14192 5.58622C4.14362 5.72735 4.17342 5.86664 4.22949 5.99557C4.28557 6.12451 4.36675 6.24038 4.46806 6.3361C4.66812 6.5313 4.938 6.6401 5.21934 6.63904V6.63904ZM13.6293 2.33285H13.6803C15.2397 2.06933 16.8307 2.06933 18.3901 2.33285C18.5524 2.36243 18.7191 2.35419 18.8779 2.30877C19.0366 2.26334 19.1833 2.18188 19.3071 2.07044C19.5057 1.89324 19.6296 1.64417 19.6527 1.37548C19.6758 1.10679 19.5964 0.83938 19.4311 0.629359C19.2625 0.416089 19.0227 0.274339 18.758 0.231487C16.948 -0.0772843 15.1006 -0.0772843 13.2906 0.231487H13.2562C12.9749 0.280554 12.7248 0.438423 12.5612 0.668826C12.4802 0.782488 12.4225 0.911807 12.3917 1.04895C12.3609 1.1861 12.3576 1.32822 12.382 1.4667C12.431 1.74511 12.5904 1.99364 12.8238 2.15578C13.0572 2.31791 13.3469 2.38192 13.6282 2.33285H13.6293ZM3.18432 8.08439C2.93061 7.95232 2.63699 7.9252 2.36428 8.00866C2.09232 8.09186 1.86412 8.27853 1.73074 8.52813C0.868506 10.1317 0.290314 11.8789 0.022918 13.6887C-0.0177197 13.9682 0.0541778 14.2519 0.225065 14.4781C0.327089 14.6132 0.458216 14.7224 0.608227 14.7972C0.758239 14.8719 0.923084 14.9102 1.08992 14.909C1.34833 14.909 1.59841 14.8162 1.79326 14.6487C1.98765 14.4837 2.11627 14.2515 2.15484 13.9959C2.38407 12.4332 2.88423 10.9207 3.63238 9.52654C3.73182 9.34058 3.77342 9.12798 3.75163 8.91715C3.72985 8.70633 3.64571 8.50734 3.51047 8.34679C3.41949 8.23841 3.3087 8.14927 3.18432 8.08439V8.08439ZM29.801 13.6695L29.8573 14.0205C29.8955 14.2759 30.0237 14.5081 30.2178 14.6733C30.4137 14.8407 30.6638 14.9335 30.9222 14.9335C30.9743 14.9367 31.0264 14.9367 31.0774 14.9335C31.3577 14.8945 31.612 14.7448 31.786 14.5165C31.8703 14.4054 31.9318 14.2781 31.9667 14.142C32.0017 14.006 32.0093 13.8641 31.9892 13.725C31.9683 13.5906 31.9475 13.4541 31.9246 13.3197C31.6377 11.6536 31.0888 10.0462 30.2991 8.56013C30.2352 8.43131 30.1466 8.31702 30.0386 8.22413C29.9289 8.12899 29.8019 8.05708 29.6649 8.01259C29.5279 7.96809 29.3836 7.95189 29.2404 7.96492C28.9527 7.98996 28.686 8.12933 28.4975 8.35319C28.4075 8.46274 28.3403 8.58987 28.2998 8.72684C28.2593 8.86382 28.2464 9.00779 28.262 9.15001C28.2776 9.29187 28.3234 9.42948 28.3943 9.55321C29.0777 10.8384 29.5527 12.2286 29.801 13.6695V13.6695ZM26.0259 25.6708C24.9073 26.8087 23.6087 27.7445 22.1851 28.4388C21.9662 28.5455 21.7922 28.7215 21.688 28.9401C21.584 29.1565 21.5571 29.4032 21.612 29.6377C21.6672 29.8724 21.8016 30.0815 21.9913 30.2308C22.1526 30.3574 22.3449 30.4357 22.5471 30.4572C22.7492 30.4786 22.9532 30.4424 23.1364 30.3524C24.7809 29.5526 26.2805 28.4723 27.5711 27.1577C27.6745 27.0596 27.7574 26.9411 27.8147 26.8093C27.872 26.6774 27.9026 26.5351 27.9046 26.3908C27.9057 26.2463 27.8773 26.1032 27.8213 25.9706C27.7654 25.838 27.683 25.7188 27.5795 25.6206C27.4746 25.5191 27.351 25.4401 27.2159 25.3883C27.0808 25.3365 26.9369 25.3128 26.7928 25.3188C26.503 25.3293 26.2288 25.4557 26.029 25.6708H26.0259V25.6708ZM23.151 1.65764C22.8935 1.53036 22.598 1.50936 22.3257 1.59897C22.0562 1.68665 21.8314 1.87991 21.7005 2.13658C21.6373 2.26185 21.5996 2.39898 21.5898 2.53962C21.5799 2.68027 21.5981 2.8215 21.6432 2.95472C21.7339 3.22353 21.9287 3.4454 22.1851 3.5734C23.6093 4.26918 24.9088 5.20568 26.029 6.34357C26.228 6.54624 26.501 6.66251 26.7865 6.66571C27.072 6.66997 27.3471 6.56117 27.5513 6.36277C27.6519 6.26649 27.7325 6.15048 27.7883 6.02166C27.8442 5.89283 27.8741 5.75382 27.8764 5.61289C27.8778 5.47214 27.8515 5.33255 27.799 5.20243C27.7466 5.07232 27.6691 4.95434 27.5711 4.85555C26.2836 3.54304 24.7893 2.46194 23.151 1.65764V1.65764ZM18.3568 29.6665C16.7849 29.9351 15.1803 29.9351 13.6084 29.6665C13.3279 29.6176 13.0397 29.6814 12.804 29.8447C12.6893 29.9237 12.5912 30.0253 12.5153 30.1437C12.4395 30.262 12.3874 30.3946 12.3622 30.5338C12.3379 30.6721 12.3413 30.814 12.3721 30.9509C12.4029 31.0879 12.4605 31.217 12.5414 31.3306C12.705 31.562 12.9551 31.7199 13.2364 31.7679C15.0464 32.0772 16.8959 32.0772 18.7069 31.7679H18.7454C19.0224 31.7186 19.2702 31.562 19.4373 31.3306C19.5172 31.2169 19.5739 31.088 19.6041 30.9515C19.6344 30.815 19.6375 30.6737 19.6134 30.5359C19.5872 30.396 19.5341 30.2629 19.4572 30.1442C19.3803 30.0256 19.2811 29.9237 19.1654 29.8447C18.9281 29.6814 18.6387 29.6176 18.3568 29.6665ZM9.80202 28.4217C8.37901 27.7241 7.08067 26.7866 5.96124 25.6484C5.75893 25.4449 5.48732 25.3297 5.20371 25.3273C4.91987 25.3226 4.64532 25.4308 4.43784 25.6292C4.33717 25.7256 4.25649 25.8417 4.20064 25.9708C4.14478 26.0998 4.11489 26.239 4.11274 26.3801C4.1115 26.5209 4.13799 26.6606 4.19062 26.7907C4.24326 26.9208 4.32096 27.0387 4.41909 27.1374C5.71174 28.4498 7.21091 29.5302 8.85381 30.3332C9.04519 30.4274 9.25912 30.4628 9.46974 30.4351C9.68035 30.4075 9.87864 30.318 10.0406 30.1775C10.1462 30.085 10.2327 29.9719 10.2949 29.8447C10.3564 29.7198 10.3925 29.5836 10.4011 29.444C10.4097 29.3045 10.3906 29.1647 10.3449 29.0329C10.2506 28.7637 10.0557 28.5438 9.80306 28.4217H9.80202ZM31.0774 17.0861C30.7941 17.042 30.505 17.112 30.2709 17.2813C30.1569 17.3644 30.0602 17.4699 29.9865 17.5917C29.9135 17.7121 29.8653 17.8463 29.8448 17.9864C29.613 19.5546 29.1128 21.0687 28.3672 22.459C28.3011 22.582 28.26 22.7174 28.2466 22.8572C28.2331 22.9969 28.2476 23.138 28.2891 23.2718C28.3735 23.5427 28.5631 23.7689 28.8153 23.9011C29.0674 24.0334 29.3634 24.0611 29.6364 23.9779C29.9094 23.8947 30.1376 23.707 30.272 23.4574C31.1295 21.8515 31.7054 20.1041 31.9735 18.2947C31.9935 18.1567 31.9863 18.0161 31.9523 17.8811C31.9183 17.746 31.8582 17.6194 31.7756 17.5085C31.6049 17.2807 31.3547 17.1293 31.0774 17.0861V17.0861ZM9.46129 8.92387C10.9832 7.53997 12.8897 6.67802 14.914 6.45877C15.6371 6.3782 16.3666 6.3782 17.0897 6.45877C17.3742 6.49077 17.6597 6.4097 17.8827 6.23477C17.9931 6.15008 18.0855 6.04333 18.1544 5.92099C18.2233 5.79865 18.2672 5.66326 18.2835 5.52304C18.2997 5.38282 18.288 5.24067 18.249 5.10521C18.2101 4.96976 18.1446 4.84382 18.0567 4.73501C17.8765 4.51143 17.6181 4.36868 17.3367 4.33714C16.4522 4.23824 15.5599 4.23824 14.6754 4.33714C12.2006 4.60438 9.86941 5.6577 8.00875 7.34945C7.90516 7.44282 7.82096 7.55657 7.76117 7.68393C7.70139 7.81128 7.66723 7.94965 7.66073 8.09079C7.65501 8.23175 7.67717 8.37243 7.72587 8.5044C7.77458 8.63638 7.84882 8.75692 7.94415 8.8588C8.13796 9.0668 8.40679 9.18947 8.6923 9.20227C8.97781 9.21294 9.25706 9.11267 9.4665 8.92174L9.46233 8.92387H9.46129ZM15.9956 27.739C16.4447 27.739 16.8928 27.7134 17.3398 27.6633H17.3606C17.6471 27.6371 17.9122 27.4974 18.0994 27.274C18.189 27.1645 18.256 27.0375 18.2963 26.9007C18.3366 26.7639 18.3494 26.6202 18.3339 26.4782C18.3172 26.3363 18.2721 26.1994 18.2015 26.0761C18.1307 25.9514 18.036 25.8426 17.9233 25.7561C17.6918 25.5786 17.4011 25.5023 17.1147 25.5438H17.097C15.7212 25.6993 14.3288 25.5602 13.0082 25.1353C11.6971 24.7141 10.4876 24.014 9.45921 23.0809C9.35507 22.9795 9.23223 22.9003 9.09786 22.8481C8.96349 22.7959 8.8203 22.7717 8.67667 22.7769C8.3869 22.7854 8.11194 22.9098 7.91081 23.1235C7.81448 23.2285 7.74004 23.3524 7.69203 23.4877C7.64402 23.623 7.62344 23.767 7.63155 23.9107C7.64049 24.0548 7.67864 24.1955 7.74358 24.3237C7.80853 24.4518 7.89883 24.5648 8.00875 24.6553C10.2143 26.6462 13.055 27.7427 15.9956 27.738V27.739ZM20.769 7.64278C21.9673 8.31085 23.0127 9.23267 23.8356 10.3468C24.6479 11.4484 25.2148 12.7187 25.4965 14.0685C25.5477 14.3109 25.68 14.5275 25.8706 14.6807C25.9957 14.7816 26.1407 14.8535 26.2956 14.8914C26.4505 14.9293 26.6116 14.9324 26.7678 14.9005C27.048 14.8439 27.2929 14.6786 27.4503 14.4418C27.5277 14.3262 27.5815 14.1957 27.6083 14.0582C27.6352 13.9207 27.6346 13.779 27.6066 13.6418C27.2638 11.9918 26.5716 10.4388 25.5788 9.0924C24.5738 7.72946 23.296 6.60206 21.8308 5.78569C21.5805 5.6365 21.2829 5.59434 21.0024 5.66836C20.8639 5.70427 20.7336 5.7677 20.619 5.85503C20.4754 5.96043 20.3611 6.10223 20.2872 6.2665C20.2134 6.43077 20.1825 6.61188 20.1976 6.79206C20.2128 6.97223 20.2734 7.14528 20.3735 7.29424C20.4737 7.4432 20.61 7.56294 20.769 7.64172V7.64278ZM6.66354 10.6135C6.40287 10.4964 6.10824 10.4861 5.84036 10.5847C5.57257 10.6839 5.35584 10.8834 5.23601 11.1394C4.34343 13.0624 4.00026 15.2045 4.24612 17.3186C4.38524 18.5466 4.71814 19.7434 5.23184 20.8622C5.29019 20.9902 5.37355 21.1064 5.47775 21.2024C5.68934 21.3987 5.96771 21.5021 6.25299 21.4904C6.53745 21.4806 6.80742 21.3596 7.0074 21.1523C7.10335 21.0505 7.17856 20.9301 7.22865 20.7983C7.27874 20.6664 7.3027 20.5257 7.29916 20.3843C7.2941 20.2432 7.26114 20.1045 7.20225 19.9768C6.6284 18.7334 6.33056 17.3754 6.3301 16.0002C6.3301 14.6285 6.62811 13.2727 7.20225 12.0247C7.29065 11.8324 7.31927 11.617 7.28424 11.4076C7.2492 11.1981 7.15221 11.0047 7.00636 10.8535C6.90825 10.7506 6.79144 10.6684 6.6625 10.6114L6.66354 10.6135ZM27.6055 18.3288C27.6341 18.1912 27.635 18.0491 27.6082 17.9112C27.5813 17.7733 27.5272 17.6424 27.4492 17.5266C27.3706 17.4088 27.27 17.3081 27.1533 17.2301C26.9147 17.0703 26.6247 17.0118 26.3447 17.0669C26.0674 17.1208 25.8211 17.282 25.657 17.517C25.5782 17.6326 25.5229 17.7632 25.4944 17.9011C25.216 19.2521 24.6523 20.5245 23.8429 21.6291C23.0231 22.7468 21.9802 23.673 20.7836 24.3459C20.5776 24.4595 20.4145 24.64 20.3199 24.859C20.2275 25.0756 20.2106 25.3181 20.272 25.546C20.3343 25.7754 20.47 25.9767 20.6575 26.1177C20.8451 26.2617 21.0774 26.3385 21.315 26.3374C21.5026 26.3374 21.686 26.2905 21.8475 26.1988C23.3096 25.3772 24.5841 24.2463 25.5861 22.8814C26.5753 21.5326 27.2645 19.9788 27.6055 18.3288V18.3288ZM23.5386 16.1709C23.572 14.6889 23.163 13.2317 22.3664 11.9938C21.5567 10.7374 20.403 9.75335 19.0497 9.16494C17.6811 8.56743 16.1737 8.3849 14.7067 8.63906C13.2466 8.88872 11.889 9.56768 10.7992 10.5932C9.72787 11.6016 8.97837 12.9171 8.64854 14.3682C8.32361 15.8097 8.4378 17.3184 8.97572 18.6915C9.52242 20.0788 10.4614 21.2674 11.6724 22.1048C12.9018 22.957 14.3456 23.4274 15.83 23.4595H16.0092C17.964 23.4623 19.8461 22.7012 21.2712 21.3315C21.9634 20.6668 22.5201 19.8684 22.9093 18.9823C23.2985 18.0962 23.5124 17.1399 23.5386 16.1688V16.1709V16.1709ZM15.88 21.3283C14.82 21.3066 13.7887 20.9717 12.9103 20.364C12.0444 19.7659 11.373 18.9164 10.9826 17.9245C10.5982 16.9438 10.5168 15.866 10.7492 14.8365C10.9865 13.7995 11.5239 12.8601 12.2913 12.141C13.069 11.41 14.0374 10.9261 15.0787 10.7479C16.126 10.5661 17.2023 10.6961 18.1796 11.1223C19.1452 11.5419 19.9687 12.2435 20.5471 13.1394C21.1164 14.0224 21.4093 15.062 21.3869 16.1197C21.368 16.8245 21.2109 17.5182 20.9248 18.1595C20.6388 18.8009 20.2296 19.3768 19.7218 19.8531C18.6758 20.835 17.2988 21.3638 15.88 21.3283V21.3283Z" fill="#3333FF"/>
</svg>
