<svg width="32" height="32" viewBox="0 0 32 32" fill="none" xmlns="http://www.w3.org/2000/svg">
<g clip-path="url(#clip0_3715_9)">
<rect width="32" height="32" fill="#0C1824"/>
<path d="M16 26.2187C15.4453 26.2187 14.976 25.7707 14.976 25.1947V6.80534C14.976 6.25067 15.424 5.78134 16 5.78134C16.5547 5.78134 17.024 6.22934 17.024 6.80534V25.1947C17.024 25.7493 16.5547 26.2187 16 26.2187ZM11.7333 17.024H6.82667C6.27201 17.024 5.80267 16.576 5.80267 16C5.80267 15.424 6.25067 14.976 6.82667 14.976H11.7333C12.288 14.976 12.7573 15.424 12.7573 16C12.7573 16.576 12.288 17.024 11.7333 17.024ZM25.1947 17.024H20.2667C19.712 17.024 19.2427 16.576 19.2427 16C19.2427 15.424 19.6907 14.976 20.2667 14.976H25.1733C25.728 14.976 26.1973 15.424 26.1973 16C26.1973 16.576 25.7493 17.024 25.1947 17.024Z" fill="white"/>
<path d="M16 31.36C7.53067 31.36 0.639999 24.4693 0.639999 16C0.639999 7.53068 7.53067 0.640015 16 0.640015C24.4693 0.640015 31.36 7.53068 31.36 16C31.36 24.4693 24.4693 31.36 16 31.36ZM16 2.68801C8.66133 2.68801 2.688 8.66135 2.688 16C2.688 23.3387 8.66133 29.312 16 29.312C23.3387 29.312 29.312 23.3387 29.312 16C29.312 8.66135 23.3387 2.68801 16 2.68801Z" fill="white"/>
</g>
<defs>
<clipPath id="clip0_3715_9">
<rect width="32" height="32" fill="white"/>
</clipPath>
</defs>
</svg>
