<svg width="32" height="32" viewBox="0 0 32 32" fill="none" xmlns="http://www.w3.org/2000/svg">
<mask id="mask0" mask-type="alpha" maskUnits="userSpaceOnUse" x="0" y="9" width="13" height="14">
<path d="M0 9.38672H12.3298V22.348H0V9.38672Z" fill="white"/>
</mask>
<g mask="url(#mask0)">
<path fill-rule="evenodd" clip-rule="evenodd" d="M10.771 12.7102C9.21229 12.7102 7.88379 13.5243 7.58811 15.2197L6.6904 20.4204H3.34697C2.51056 20.4204 2.05112 20.1049 2.21481 19.1914L3.01112 14.6378H5.30808L5.65232 12.7102H3.35536L3.92987 9.38672H1.87903L0.0499064 19.8065C-0.245774 21.5008 0.803969 22.348 2.36272 22.348H8.40866L9.52383 15.8839C9.68752 14.9705 10.2292 14.6549 11.0826 14.6549H11.9856L12.3298 12.7102H10.771Z" fill="#40BFEF"/>
</g>
<mask id="mask1" mask-type="alpha" maskUnits="userSpaceOnUse" x="12" y="9" width="10" height="14">
<path d="M12.2628 9.3877H21.9272V22.349H12.2628V9.3877Z" fill="white"/>
</mask>
<g mask="url(#mask1)">
<path fill-rule="evenodd" clip-rule="evenodd" d="M19.7117 15.8849L19.1383 19.1913C18.9735 20.1058 18.399 20.4214 17.6609 20.4214H15.6099C14.7577 20.4214 14.3152 20.1058 14.4789 19.1913L15.2668 14.6559H18.399C19.1868 14.6559 19.9092 14.7714 19.7117 15.8849ZM19.5639 12.7112H15.6099L16.1845 9.3877H14.1336L12.313 19.8395C12.0172 21.5349 13.068 22.349 14.6257 22.349H17.8911C19.4498 22.349 20.7624 21.5349 21.0571 19.8395L21.8777 15.1372C22.1724 13.4418 21.1226 12.7112 19.5639 12.7112Z" fill="#40BFEF"/>
</g>
<mask id="mask2" mask-type="alpha" maskUnits="userSpaceOnUse" x="22" y="12" width="10" height="11">
<path d="M22.3198 12.7104H32V22.3484H22.3198V12.7104Z" fill="white"/>
</mask>
<g mask="url(#mask2)">
<path fill-rule="evenodd" clip-rule="evenodd" d="M29.6037 16.9282L29.2109 19.1917C29.0134 20.3041 28.2752 20.4207 27.3892 20.4207H25.6668C24.8304 20.4207 24.371 20.1051 24.5346 19.1917L25.1091 15.8842C25.2739 14.9707 25.8315 14.6551 26.6679 14.6551H28.3904C28.4453 14.6551 28.498 14.6551 28.5498 14.6562H30.004L29.6037 16.9282ZM29.6376 12.7104H26.3564C24.7976 12.7104 23.485 13.4753 23.1892 15.1696L22.3697 19.8067C22.0741 21.501 23.1237 22.3483 24.6825 22.3483H27.9637C29.5224 22.3483 30.8351 21.5514 31.1298 19.8559L31.9503 15.1204C32.246 13.425 31.1953 12.7104 29.6376 12.7104Z" fill="#40BFEF"/>
</g>
</svg>
