<svg width="32" height="32" viewBox="0 0 32 32" fill="none" xmlns="http://www.w3.org/2000/svg">
<path d="M17.1792 26.109L31.3322 11.9538C31.4735 11.813 31.5856 11.6456 31.6621 11.4614C31.7386 11.2771 31.778 11.0795 31.778 10.88C31.778 10.6805 31.7386 10.4829 31.6621 10.2987C31.5856 10.1144 31.4735 9.94705 31.3322 9.80619V9.80619L27.6146 6.08646C27.3879 5.85897 27.1184 5.6785 26.8217 5.55541C26.525 5.43231 26.207 5.36901 25.8858 5.36914H6.34214C5.69285 5.36926 5.07019 5.62728 4.61113 6.08646L0.880666 9.81263C0.739631 9.95082 0.627196 10.1154 0.549788 10.2971C0.472379 10.4787 0.431514 10.6738 0.42952 10.8713C0.427526 11.0687 0.464444 11.2646 0.538168 11.4478C0.611891 11.6309 0.720973 11.7978 0.859188 11.9388L0.880666 11.9603L15.0337 26.1155C15.1745 26.2568 15.3419 26.3689 15.5262 26.4454C15.7104 26.5219 15.908 26.5612 16.1075 26.5612C16.307 26.5612 16.5046 26.5219 16.6889 26.4454C16.8731 26.3689 17.0405 26.2568 17.1813 26.1155L17.1792 26.109Z" fill="url(#paint0_linear)"/>
<path opacity="0.4" d="M4.49731 6.20028C4.74891 5.94743 5.05953 5.76124 5.40111 5.6585C5.7427 5.55576 6.10449 5.53972 6.45383 5.61183L31.0315 10.5965C31.2267 10.6369 31.3978 10.7528 31.5077 10.919C31.6176 11.0852 31.6572 11.2882 31.6178 11.4835C31.6077 11.5345 31.5918 11.5842 31.5706 11.6317C31.7388 11.344 31.8067 11.0086 31.7635 10.6782C31.7204 10.3478 31.5686 10.041 31.3322 9.80619L27.6146 6.08646C27.3879 5.85897 27.1184 5.6785 26.8217 5.55541C26.525 5.43231 26.207 5.36901 25.8858 5.36914H6.34215C5.69285 5.36926 5.0702 5.62728 4.61114 6.08646L4.49731 6.20028Z" fill="url(#paint1_linear)"/>
<path opacity="0.4" d="M26.3649 6.458L24.9346 9.36378L31.0318 10.5965C31.2269 10.6369 31.3981 10.7528 31.5079 10.919C31.6178 11.0853 31.6574 11.2882 31.6181 11.4835C31.6079 11.5345 31.592 11.5842 31.5708 11.6317C31.739 11.344 31.8069 11.0086 31.7637 10.6782C31.7206 10.3478 31.5689 10.041 31.3324 9.80619L27.6148 6.08646C27.3881 5.85897 27.1186 5.67851 26.8219 5.55541C26.5252 5.43232 26.2072 5.36901 25.886 5.36914H25.697C25.825 5.3688 25.951 5.40136 26.0629 5.4637C26.1747 5.52604 26.2687 5.61608 26.3357 5.72517C26.4028 5.83426 26.4407 5.95875 26.4458 6.0867C26.4509 6.21465 26.423 6.34176 26.3649 6.45586V6.458Z" fill="url(#paint2_linear)"/>
<path d="M31.5706 11.6403C31.6496 11.4574 31.6529 11.2507 31.5796 11.0654C31.5063 10.8802 31.3625 10.7316 31.1797 10.6524C31.1322 10.6312 31.0825 10.6153 31.0315 10.6051L24.9343 9.36377L16.7303 25.92C16.6241 26.1346 16.445 26.3043 16.225 26.3988C16.005 26.4932 15.7585 26.5062 15.5298 26.4354C15.8062 26.5498 16.1104 26.5799 16.4039 26.5218C16.6974 26.4637 16.9671 26.3201 17.1792 26.109L31.3322 11.9538C31.4264 11.8614 31.5068 11.7558 31.5706 11.6403V11.6403Z" fill="url(#paint3_linear)"/>
<defs>
<linearGradient id="paint0_linear" x1="9.2157" y1="22.8167" x2="21.0987" y2="2.23143" gradientUnits="userSpaceOnUse">
<stop stop-color="#8855FF"/>
<stop offset="1" stop-color="#00B6FF"/>
</linearGradient>
<linearGradient id="paint1_linear" x1="17.918" y1="9.52699" x2="20.0807" y2="0.594911" gradientUnits="userSpaceOnUse">
<stop offset="0.07" stop-color="white"/>
<stop offset="0.89" stop-color="#009FFF"/>
</linearGradient>
<linearGradient id="paint2_linear" x1="3919.09" y1="3545.59" x2="4141.22" y2="3753.1" gradientUnits="userSpaceOnUse">
<stop offset="0.07" stop-color="white"/>
<stop offset="0.89" stop-color="#009FFF"/>
</linearGradient>
<linearGradient id="paint3_linear" x1="16.4297" y1="16.146" x2="28.246" y2="20.2373" gradientUnits="userSpaceOnUse">
<stop stop-color="#4036C1"/>
<stop offset="0.98" stop-color="#539EFF"/>
</linearGradient>
</defs>
</svg>
