<svg width="32" height="32" viewBox="0 0 32 32" fill="none" xmlns="http://www.w3.org/2000/svg">
<path d="M1.80305 16C1.80305 8.13807 8.17056 1.80305 16 1.80305C23.8294 1.80305 30.197 8.17056 30.197 16C30.197 23.8294 23.8294 30.197 16 30.197C8.17056 30.197 1.80305 23.8457 1.80305 16M0 16C0 24.8203 7.1797 32 16 32C24.8203 32 32 24.8203 32 16C32 7.1797 24.8203 0 16 0C7.1797 0 0 7.16345 0 16V16Z" fill="black"/>
<path d="M8.25177 28.3127V3.67108L30.3919 16L8.25177 28.3127ZM10.0548 6.6924V25.2751L26.7533 15.9675L10.0548 6.6924Z" fill="black"/>
<path d="M12.134 21.8802V10.1036L22.7249 16L12.134 21.8802ZM13.8883 13.1249V18.8427L19.0376 15.9675L13.8883 13.1249V13.1249Z" fill="black"/>
</svg>
