<svg width="32" height="32" viewBox="0 0 32 32" fill="none" xmlns="http://www.w3.org/2000/svg">
<g clip-path="url(#clip0)">
<path d="M8.0191 13.989C5.8021 13.989 4.00977 15.7813 4.00977 17.9921C4.00977 20.2029 5.8021 21.9952 8.01285 21.9952C10.2236 21.9952 12.0159 20.2029 12.0159 17.9921C12.0222 15.7813 10.2298 13.989 8.0191 13.989V13.989ZM8.0191 20.8586C6.43909 20.8586 5.15261 19.5783 5.15261 17.9921C5.15261 16.4059 6.43285 15.1256 8.0191 15.1256C9.60534 15.1256 10.8793 16.4121 10.8793 17.9921C10.8793 19.5721 9.5991 20.8586 8.0191 20.8586Z" fill="#4D9549"/>
<path d="M8.03125 19.9781C9.13151 19.9781 10.0234 19.0861 10.0234 17.9859C10.0234 16.8856 9.13151 15.9937 8.03125 15.9937C6.931 15.9937 6.03906 16.8856 6.03906 17.9859C6.03906 19.0861 6.931 19.9781 8.03125 19.9781Z" fill="#4D9549"/>
<path d="M24.006 13.989C21.7952 13.989 20.0029 15.7813 20.0029 17.9921C20.0029 20.2029 21.7952 21.9952 24.006 21.9952C26.2167 21.9952 28.009 20.2029 28.009 17.9921C28.009 15.7813 26.2167 13.989 24.006 13.989V13.989ZM24.006 20.8586C22.426 20.8586 21.1395 19.5783 21.1395 17.9921C21.1395 16.4059 22.4197 15.1256 24.006 15.1256C25.5922 15.1256 26.8661 16.4121 26.8661 17.9921C26.8661 19.5721 25.5859 20.8586 24.006 20.8586Z" fill="#4D9549"/>
<path d="M24.0186 19.9781C25.1188 19.9781 26.0107 19.0861 26.0107 17.9859C26.0107 16.8856 25.1188 15.9937 24.0186 15.9937C22.9183 15.9937 22.0264 16.8856 22.0264 17.9859C22.0264 19.0861 22.9183 19.9781 24.0186 19.9781Z" fill="#4D9549"/>
<path d="M29.639 12.3217L31.9934 9.98606H27.2222C24.5494 7.81278 20.1092 6.00171 15.9937 6.00171C11.872 6.00171 7.46924 7.81278 4.79638 9.98606H0.0126953L2.36707 12.3217C0.911977 13.7706 0.0126953 15.7752 0.0126953 17.9922C0.0126953 22.4137 3.59733 25.9984 8.0188 25.9984C10.0484 25.9984 11.9032 25.2427 13.3146 23.9937L16.0249 25.9859L18.704 24.0374L18.6728 23.9625C20.0904 25.224 21.9514 25.9922 23.9998 25.9922C28.4213 25.9922 32.0059 22.4075 32.0059 17.986C31.9997 15.7752 31.0941 13.7706 29.639 12.3217V12.3217ZM22.9943 10.0485C19.2036 10.5231 16.231 13.6457 16.0062 17.5114C15.7751 13.6394 12.7962 10.5106 8.99303 10.0485C10.904 8.6746 13.3396 8.00013 15.9937 8.00013C18.6478 8.00013 21.0834 8.6746 22.9943 10.0485ZM8.0188 24C4.69646 24 2.0111 21.3084 2.0111 17.9922C2.0111 14.6761 4.7027 11.9845 8.0188 11.9845C11.3349 11.9845 14.0265 14.6761 14.0265 17.9922C14.0203 21.3084 11.3349 24 8.0188 24ZM24.006 24C20.6899 24 17.9983 21.3084 17.9983 17.9922C17.9983 14.6761 20.6899 11.9845 24.006 11.9845C27.3221 11.9845 30.0137 14.6761 30.0137 17.9922C30.0075 21.3084 27.3221 24 24.006 24Z" fill="#4D9549"/>
</g>
<defs>
<clipPath id="clip0">
<rect width="31.9872" height="19.9984" fill="white" transform="translate(0.0126953 6.00073)"/>
</clipPath>
</defs>
</svg>
