<svg width="32" height="32" viewBox="0 0 32 32" fill="none" xmlns="http://www.w3.org/2000/svg">
<path d="M26 0H6C2.68629 0 0 2.68629 0 6V26C0 29.3137 2.68629 32 6 32H26C29.3137 32 32 29.3137 32 26V6C32 2.68629 29.3137 0 26 0Z" fill="white"/>
<path d="M32 0H0V32H32V0Z" fill="url(#paint0_linear_3325_2)"/>
<g filter="url(#filter0_i_3325_2)">
<mask id="mask0_3325_2" style="mask-type:alpha" maskUnits="userSpaceOnUse" x="5" y="5" width="22" height="22">
<path fill-rule="evenodd" clip-rule="evenodd" d="M26.6663 16.0005C26.6663 21.8904 21.8915 26.6651 16.0016 26.6651C10.1117 26.6651 5.33705 21.8904 5.33705 16.0005C5.33705 10.1106 10.1117 5.33593 16.0016 5.33593C21.8915 5.33593 26.6663 10.1106 26.6663 16.0005ZM20.006 11.4297C18.557 11.4297 17.4237 11.8481 16.5276 12.5115C17.4103 13.2678 18.0711 14.0881 18.5237 15.8056C19.7716 15.5741 22.3001 14.9536 23.3817 11.4297H20.006ZM12.0359 11.4398C14.7306 11.5574 16.7555 13.2395 17.5734 15.5592C18.3845 17.8598 18.6467 22.3334 18.6467 22.3334H13.7241V15.8146C13.7241 15.8146 9.59209 15.5087 8.38114 11.4297C8.38114 11.4297 11.9902 11.4333 12.0359 11.4398Z" fill="white"/>
</mask>
<g mask="url(#mask0_3325_2)">
<path fill-rule="evenodd" clip-rule="evenodd" d="M26.6663 16.0005C26.6663 21.8904 21.8915 26.6651 16.0016 26.6651C10.1117 26.6651 5.33705 21.8904 5.33705 16.0005C5.33705 10.1106 10.1117 5.33593 16.0016 5.33593C21.8915 5.33593 26.6663 10.1106 26.6663 16.0005ZM20.006 11.4297C18.557 11.4297 17.4237 11.8481 16.5276 12.5115C17.4103 13.2678 18.0711 14.0881 18.5237 15.8056C19.7716 15.5741 22.3001 14.9536 23.3817 11.4297H20.006ZM12.0359 11.4398C14.7306 11.5574 16.7555 13.2395 17.5734 15.5592C18.3845 17.8598 18.6467 22.3334 18.6467 22.3334H13.7241V15.8146C13.7241 15.8146 9.59209 15.5087 8.38114 11.4297C8.38114 11.4297 11.9902 11.4333 12.0359 11.4398Z" fill="url(#paint1_linear_3325_2)"/>
<path d="M16.5276 12.5115L16.5693 12.5678L16.5175 12.5234L16.5276 12.5115ZM18.5237 15.8056L18.3198 15.8593L18.5265 15.8209L18.5237 15.8056ZM23.3817 11.4297L23.331 11.4141H23.3817V11.4297ZM17.5734 15.5592L17.5882 15.554L17.5734 15.5592ZM12.0359 11.4398L12.0337 11.4553L12.0352 11.4554L12.0359 11.4398ZM18.6467 22.3334V22.0663L18.6623 22.3325L18.6467 22.3334ZM13.7241 15.8146H13.9357L13.7252 15.799L13.7241 15.8146ZM8.38114 11.4297L8.38108 11.4844L8.36615 11.4341L8.38114 11.4297ZM16.0016 26.6807C21.9002 26.6807 26.6818 21.899 26.6818 16.0005H26.6505C26.6505 21.8818 21.8829 26.6494 16.0016 26.6494V26.6807ZM5.32142 16.0005C5.32142 21.899 10.1031 26.6807 16.0016 26.6807V26.6494C10.1204 26.6494 5.35269 21.8818 5.35269 16.0005H5.32142ZM16.0016 5.32032C10.1031 5.32032 5.32142 10.102 5.32142 16.0005H5.35269C5.35269 10.1193 10.1204 5.35157 16.0016 5.35157V5.32032ZM26.6818 16.0005C26.6818 10.102 21.9002 5.32032 16.0016 5.32032V5.35157C21.8829 5.35157 26.6505 10.1193 26.6505 16.0005H26.6818ZM16.5369 12.5241C17.4303 11.8627 18.5603 11.4453 20.006 11.4453V11.4141C18.5538 11.4141 17.4172 11.8335 16.5183 12.499L16.5369 12.5241ZM18.5388 15.8016C18.0854 14.0808 17.4226 13.2578 16.5378 12.4997L16.5175 12.5234C17.3979 13.2778 18.0569 14.0955 18.5086 15.8096L18.5388 15.8016ZM23.3669 11.4251C22.827 13.1837 21.9266 14.2168 21.0063 14.8393C20.0857 15.4621 19.1442 15.6746 18.5208 15.7902L18.5265 15.8209C19.1511 15.7051 20.0978 15.4916 21.0238 14.8652C21.9502 14.2386 22.8549 13.1995 23.3968 11.4343L23.3669 11.4251ZM20.006 11.4453H23.3817V11.4141H20.006V11.4453ZM17.5882 15.554C16.7683 13.2287 14.7381 11.5421 12.0366 11.4242L12.0352 11.4554C14.7232 11.5727 16.7428 13.2503 17.5587 15.5644L17.5882 15.554ZM18.6467 22.3334C18.6623 22.3325 18.6623 22.3324 18.6623 22.3324C18.6623 22.3324 18.6623 22.3323 18.6623 22.3323C18.6623 22.3321 18.6623 22.3319 18.6623 22.3316C18.6622 22.3311 18.6622 22.3303 18.6621 22.3292C18.662 22.327 18.6618 22.3238 18.6615 22.3195C18.661 22.311 18.6602 22.2982 18.6592 22.2816C18.6571 22.2482 18.6538 22.199 18.6494 22.1356C18.6407 22.0087 18.6273 21.8249 18.6086 21.5971C18.5714 21.1417 18.5133 20.5104 18.4298 19.8072C18.2628 18.4012 17.9944 16.7061 17.5882 15.554L17.5587 15.5644C17.9636 16.7129 18.2318 18.4049 18.3987 19.8109C18.4822 20.5136 18.5403 21.1445 18.5775 21.5997C18.5961 21.8273 18.6095 22.011 18.6183 22.1377C18.6227 22.2011 18.6259 22.2503 18.628 22.2835C18.629 22.3002 18.6298 22.3129 18.6303 22.3214C18.6306 22.3257 18.6308 22.3289 18.6309 22.331C18.631 22.3321 18.631 22.3329 18.6311 22.3335C18.6311 22.3337 18.6311 22.3339 18.6311 22.3341C18.6311 22.3341 18.6311 22.3342 18.6311 22.3342C18.6311 22.3343 18.6311 22.3343 18.6467 22.3334ZM13.7241 22.349H18.6467V22.3177H13.7241V22.349ZM13.7084 15.8146V22.3334H13.7397V15.8146H13.7084ZM8.36615 11.4341C8.97317 13.4788 10.3126 14.578 11.4998 15.1657C12.0933 15.4596 12.6489 15.6256 13.0561 15.7183C13.2597 15.7646 13.4262 15.7925 13.542 15.8089C13.5998 15.8171 13.645 15.8224 13.6757 15.8257C13.6911 15.8273 13.7029 15.8284 13.7108 15.8291C13.7148 15.8295 13.7178 15.8297 13.7198 15.8299C13.7208 15.83 13.7216 15.83 13.7221 15.8301C13.7224 15.8301 13.7226 15.8301 13.7227 15.8301C13.7228 15.8301 13.7228 15.8301 13.7229 15.8301C13.7229 15.8301 13.7229 15.8301 13.7241 15.8146C13.7252 15.799 13.7252 15.799 13.7252 15.799C13.7252 15.799 13.7251 15.799 13.7251 15.799C13.725 15.7989 13.7248 15.7989 13.7245 15.7989C13.724 15.7989 13.7233 15.7988 13.7224 15.7987C13.7204 15.7986 13.7175 15.7984 13.7136 15.798C13.7058 15.7973 13.6942 15.7962 13.679 15.7946C13.6486 15.7914 13.6038 15.7861 13.5464 15.778C13.4314 15.7617 13.2657 15.7339 13.063 15.6878C12.6576 15.5956 12.1045 15.4302 11.5136 15.1377C10.3322 14.5528 9.00007 13.4596 8.39612 11.4252L8.36615 11.4341ZM12.0381 11.4243C12.0355 11.424 12.0294 11.4237 12.0218 11.4236C12.0135 11.4234 12.002 11.4232 11.9875 11.423C11.9585 11.4226 11.9174 11.4222 11.8659 11.4219C11.7628 11.4212 11.618 11.4205 11.4456 11.4199C11.1008 11.4186 10.6454 11.4176 10.1914 11.4167C9.73742 11.4158 9.28485 11.4152 8.94578 11.4147C8.77625 11.4145 8.63511 11.4144 8.53632 11.4142C8.48693 11.4142 8.44814 11.4141 8.42169 11.4141C8.40848 11.4141 8.39833 11.4141 8.39152 11.4141C8.38809 11.4141 8.38551 11.4141 8.38377 11.4141C8.3829 11.4141 8.38224 11.4141 8.38181 11.4141C8.3816 11.4141 8.38144 11.4141 8.38133 11.4141C8.38126 11.4141 8.38124 11.4141 8.38119 11.4141C8.38117 11.4141 8.38114 11.4141 8.38114 11.4297C8.38112 11.4453 8.38114 11.4453 8.38117 11.4453C8.38119 11.4453 8.38124 11.4453 8.38128 11.4453C8.3814 11.4453 8.38156 11.4453 8.38178 11.4453C8.38222 11.4453 8.38288 11.4453 8.38375 11.4453C8.38546 11.4453 8.38807 11.4453 8.39148 11.4453C8.39831 11.4453 8.40844 11.4453 8.42167 11.4453C8.44812 11.4454 8.4869 11.4454 8.5363 11.4455C8.63506 11.4456 8.77621 11.4458 8.94574 11.446C9.2848 11.4464 9.73737 11.4471 10.1914 11.448C10.6454 11.4488 11.1008 11.4499 11.4455 11.4511C11.6179 11.4517 11.7626 11.4524 11.8656 11.4531C11.9171 11.4535 11.9582 11.4539 11.9871 11.4542C12.0016 11.4544 12.0129 11.4546 12.021 11.4548C12.0251 11.4549 12.0282 11.455 12.0305 11.4551C12.0332 11.4552 12.0339 11.4553 12.0337 11.4553L12.0381 11.4243Z" fill="#2869BF" fill-opacity="0.04"/>
</g>
</g>
<defs>
<filter id="filter0_i_3325_2" x="5.33705" y="5.33593" width="21.3292" height="21.3839" filterUnits="userSpaceOnUse" color-interpolation-filters="sRGB">
<feFlood flood-opacity="0" result="BackgroundImageFix"/>
<feBlend mode="normal" in="SourceGraphic" in2="BackgroundImageFix" result="shape"/>
<feColorMatrix in="SourceAlpha" type="matrix" values="0 0 0 0 0 0 0 0 0 0 0 0 0 0 0 0 0 0 127 0" result="hardAlpha"/>
<feOffset dy="0.0546875"/>
<feGaussianBlur stdDeviation="0.0683594"/>
<feComposite in2="hardAlpha" operator="arithmetic" k2="-1" k3="1"/>
<feColorMatrix type="matrix" values="0 0 0 0 0 0 0 0 0 0 0 0 0 0 0 0 0 0 0.15 0"/>
<feBlend mode="normal" in2="shape" result="effect1_innerShadow_3325_2"/>
</filter>
<linearGradient id="paint0_linear_3325_2" x1="16" y1="-3.97365e-07" x2="16" y2="32" gradientUnits="userSpaceOnUse">
<stop stop-color="#13547E"/>
<stop offset="0.9999" stop-color="#062940"/>
</linearGradient>
<linearGradient id="paint1_linear_3325_2" x1="16.0016" y1="5.33593" x2="16.0016" y2="26.6651" gradientUnits="userSpaceOnUse">
<stop stop-color="#D5EBFF"/>
<stop offset="1" stop-color="#8FCAFF"/>
</linearGradient>
</defs>
</svg>
