<svg width="183" height="183" viewBox="0 0 183 183" fill="none" xmlns="http://www.w3.org/2000/svg">
<g clip-path="url(#clip0_16:603)">
<path d="M178.861 32.0016H115.559C113.914 32.0076 112.338 32.6586 111.167 33.8136L70.7859 74.1936C69.6319 75.3546 68.9809 76.9226 68.9739 78.5586V90.6646V102.249C68.9669 102.656 68.8799 103.058 68.7169 103.432C68.5539 103.806 68.3199 104.144 68.0269 104.427C67.7339 104.71 67.3879 104.932 67.0089 105.081C66.6299 105.23 66.2239 105.303 65.8169 105.296H42.2089C40.5709 105.297 39.0009 105.949 37.8439 107.108L0.922928 144.084C0.485932 144.512 0.185929 145.062 0.0629277 145.662C-0.0600734 146.262 -0.00207476 146.884 0.230927 147.45C0.463929 148.016 0.859932 148.501 1.36993 148.84C1.87993 149.179 2.47893 149.358 3.09093 149.355H66.4209C68.0589 149.354 69.6289 148.702 70.7859 147.543L111.167 107.163C111.744 106.593 112.202 105.913 112.513 105.163C112.824 104.413 112.982 103.61 112.978 102.798V90.6646V79.1076C112.978 78.2846 113.305 77.4956 113.887 76.9136C114.469 76.3316 115.257 76.0056 116.08 76.0056H139.771C141.409 76.0046 142.978 75.3526 144.135 74.1936L181.112 37.2726C181.555 36.8396 181.857 36.2826 181.978 35.6746C182.099 35.0666 182.033 34.4366 181.79 33.8666C181.547 33.2966 181.137 32.8146 180.614 32.4816C180.091 32.1486 179.48 31.9816 178.861 32.0016Z" fill="#220C4A"/>
<path d="M99.5269 34.6367L59.9699 74.1937C58.8129 75.3527 57.2429 76.0047 55.6049 76.0057H3.09094C2.48194 76.0017 1.88794 75.8177 1.38294 75.4787C0.877939 75.1397 0.482939 74.6587 0.248937 74.0967C0.0149362 73.5347 -0.049063 72.9167 0.0659387 72.3187C0.180937 71.7207 0.468939 71.1697 0.894937 70.7347L37.8169 33.9237C38.9699 32.7277 40.5489 32.0367 42.2089 32.0017H98.4559C98.7609 32.0027 99.0589 32.0937 99.3119 32.2647C99.5649 32.4357 99.7599 32.6777 99.8749 32.9607C99.9899 33.2437 100.018 33.5527 99.9559 33.8517C99.8939 34.1507 99.7449 34.4237 99.5269 34.6367Z" fill="#2CE27E"/>
</g>
<defs>
<clipPath id="clip0_16:603">
<rect width="182.04" height="182.04" fill="white"/>
</clipPath>
</defs>
</svg>
