<svg width="32" height="32" viewBox="0 0 32 32" fill="none" xmlns="http://www.w3.org/2000/svg">
<path d="M16 32C24.8366 32 32 24.8366 32 16C32 7.16344 24.8366 0 16 0C7.16344 0 0 7.16344 0 16C0 24.8366 7.16344 32 16 32Z" fill="#2AA8D7"/>
<path fill-rule="evenodd" clip-rule="evenodd" d="M15.366 15.5337L21.3487 9.53541C21.7941 9.09004 22.5168 9.09004 22.9622 9.53541L24.5759 11.1547C25.0215 11.6001 25.0215 12.3281 24.5759 12.7735L16.597 20.76C16.5742 20.7926 16.5492 20.8252 16.5231 20.8471L14.9085 22.4659C14.6857 22.6834 14.3912 22.8028 14.0979 22.8028C13.8045 22.8028 13.5112 22.6834 13.2872 22.4659L11.6735 20.8471C11.6477 20.8252 11.6226 20.7926 11.5999 20.76L7.42384 16.5767C6.97848 16.131 6.97848 15.414 7.42384 14.9686L9.03756 13.3495C9.4832 12.9039 10.2067 12.9039 10.6521 13.3495L13.8143 16.5115L14.0998 16.7942L17.3326 19.9994L15.366 15.5337V15.5337Z" fill="white"/>
</svg>
