<?xml version="1.0" encoding="utf-8"?>
<!-- Generator: Adobe Illustrator 24.0.3, SVG Export Plug-In . SVG Version: 6.00 Build 0)  -->
<svg version="1.1" id="Layer_1" xmlns="http://www.w3.org/2000/svg" xmlns:xlink="http://www.w3.org/1999/xlink" x="0px" y="0px"
	 viewBox="0 0 300 100" style="enable-background:new 0 0 300 100;" xml:space="preserve">
<style type="text/css">
	.st0{fill:none;}
	.st1{fill:#004676;}
	.st2{fill:#5FC323;}
</style>
<rect x="-6.89" y="2.28" class="st0" width="314.63" height="132.85"/>
<path class="st1" d="M80.95,46.68H67.66v-6.61h34.22v6.61H88.58v33.73h-7.63V46.68z M109.01,80.41V58.05
	c1.29-0.74,3.19-1.17,5.46-1.17c1.53,0,3.01,0.18,4.42,0.55l1.84-6.02c-1.84-0.68-3.93-0.92-6.45-0.92
	c-5.59,0-10.07,2.21-12.28,4.18v25.74H109.01z M145.36,51.5v22.44c-1.8,0.75-3.73,1.12-6.03,1.12c-5.9,0-7.15-2.67-7.15-7.46V51.5
	h-7.08v18.15c0,7.15,4.1,11.69,13.3,11.69c6.52,0,11.06-1.68,14.05-3.11V51.5H145.36z M158.36,76.79c0,0,4.08,4.31,11.39,4.31
	c6.96,0,11.21-3.91,11.21-8.8c0-9.44-14.26-8.92-14.26-13.07c0-1.84,1.84-2.65,3.74-2.65c4.49,0,7.19,2.53,7.19,2.53l2.7-5.41
	c0,0-3.22-3.34-9.83-3.34c-6.33,0-11.22,3.17-11.22,8.63c0,9.44,14.27,8.86,14.27,13.24c0,1.73-1.78,2.65-3.85,2.65
	c-4.77,0-7.99-3.22-7.99-3.22L158.36,76.79z M187.06,69.65c0,9.84,8.11,11.05,12.19,11.05c1.38,0,2.24-0.17,2.24-0.17v-6.39
	c0,0-0.52,0.11-1.32,0.11c-2.01,0-5.81-0.69-5.81-5.52V57.76h6.67v-6.24h-6.67v-8.46h-7.13L187.06,69.65z M252.37,80.41V58.05
	c1.29-0.74,3.19-1.17,5.47-1.17c1.53,0,3.01,0.18,4.42,0.55l1.84-6.02c-1.84-0.68-3.93-0.92-6.45-0.92
	c-5.59,0-10.07,2.21-12.28,4.18v25.74H252.37z M280.52,50.89c-9.47,0-15.53,6.84-15.53,14.98c0,8.3,6.05,14.98,15.53,14.98
	c7.68,0,11.77-4.66,11.77-4.66l-2.75-5.05c0,0-3.59,3.65-8.41,3.65c-5.44,0-8.91-4.15-8.91-8.98c0-4.88,3.42-8.86,8.69-8.86
	c4.49,0,7.46,3.08,7.46,3.08l3.14-4.88C291.51,55.16,287.98,50.89,280.52,50.89 M230.1,69.94h-13.37l-3.6,10.24h-7.46l14.02-39.83
	h7.45l14.01,39.83h-7.45L230.1,69.94z M228.03,64.04l-4.61-13.11l-4.61,13.11H228.03z"/>
<g>
	<g>
		<path class="st2" d="M37.78,44.26c12.74-13.67,31.87-17.79,48.47-12.08c-12.2-7.71-28.19-8.42-41.39-0.48
			C31.41,39.8,24.52,54.64,25.91,69.29C27.15,60.23,31.08,51.46,37.78,44.26"/>
		<path class="st2" d="M19.81,14.08c3.68-0.13,6.74,1.67,6.85,3.97c0,0,0.45,2.28-3.4,5.45c-1.02,0.91-2.01,1.87-2.96,2.89
			C3.83,44.06,4.8,71.76,22.47,88.24c0.06,0.06,0.13,0.11,0.19,0.17c-5.22-7.11-8.43-15.81-8.76-25.29
			c-0.88-25.11,18.75-46.17,43.83-47.04c6.1-0.21,11.96,0.79,17.35,2.79c-9.93-6.08-21.69-7.8-32.64-5.27
			c-2.84,0.42-5.71-0.4-6.8-0.76C30.64,10.88,24.81,11.19,19.81,14.08"/>
	</g>
</g>
</svg>
