<svg width="32" height="32" viewBox="0 0 32 32" fill="none" xmlns="http://www.w3.org/2000/svg">
<g clip-path="url(#clip0)">
<path d="M16.8229 0C10.88 0 5.6686 3.20002 2.92575 8.04573C1.92003 9.96573 1.73715 11.6114 2.56001 12.9829C3.4743 14.6286 5.57715 14.8114 6.6743 14.8114H8.68573L7.95432 17.0972C7.49717 18.4686 7.68003 20.0229 8.41146 21.0286C9.14289 22.0343 10.24 22.5829 11.6115 22.5829C12.5257 22.5829 13.5314 22.4 14.4457 22.0343C14.1714 21.6686 13.9886 21.3029 13.8057 20.8457C13.7143 20.48 13.5314 20.1143 13.5314 19.6571C12.9829 19.9314 12.3429 20.0229 11.7029 20.0229C11.3372 20.0229 10.7886 19.9314 10.5143 19.4743C10.24 19.1086 10.1486 18.56 10.3314 17.92L11.3372 14.8114H14.5372L15.36 12.16H12.2514L13.6229 7.86286H10.88L9.50859 12.16H6.58289C5.6686 12.16 5.12001 11.8857 4.84572 11.4286C4.57144 10.88 4.84574 9.78287 5.57717 8.50287V8.41144C8.04574 4.84573 12.0686 2.46858 16.7314 2.46858C24.1372 2.46858 30.1714 8.50285 30.1714 15.9086C30.1714 23.3143 24.1372 29.3486 16.7314 29.3486C10.1486 29.3486 4.66287 24.5943 3.4743 18.3771L0.914307 18.9257C2.37716 26.3314 8.86858 32 16.7314 32C25.6 32 32.8229 24.7771 32.8229 15.9086C32.9143 7.22285 25.6914 0 16.8229 0V0Z" fill="#00A6CA"/>
<path d="M27.0629 20.4795C26.4229 20.4795 25.6001 20.3881 25.0515 20.0224C24.8686 19.8395 24.5944 19.6567 24.5029 19.1996C24.5029 19.0167 24.5029 18.7424 24.5944 18.4681L26.6058 12.3424H23.8629L22.1258 17.6453C21.6687 19.0167 20.2058 20.1138 18.9258 20.1138C18.5601 20.1138 18.1029 20.0224 17.9201 19.6567C17.7372 19.3824 17.5544 19.0167 17.8287 18.3767L19.8401 12.251H17.0972L15.3601 17.5539C14.9029 18.8339 15.0858 20.2053 15.8172 21.211C16.5486 22.1253 17.5544 22.6739 18.9258 22.6739C20.2058 22.6739 21.5772 22.1253 22.6744 21.211C23.0401 21.7596 23.4972 22.1253 24.1372 22.3996C25.0515 22.6738 25.6001 22.6739 26.2401 22.6739C26.5144 22.6739 26.8801 22.5824 26.9715 22.5824C27.0629 22.491 27.0629 22.3995 27.1544 22.3081C27.2458 22.1253 27.3372 21.9424 27.4287 21.7596C27.5201 21.5767 27.6115 21.3939 27.7029 21.211C27.7944 21.0281 27.8858 20.8453 27.9772 20.6624C28.0687 20.571 28.0686 20.3881 28.1601 20.2967C27.8858 20.4796 27.5201 20.4795 27.0629 20.4795V20.4795Z" fill="#00A6CA"/>
</g>
<defs>
<clipPath id="clip0">
<rect width="32" height="32" fill="white"/>
</clipPath>
</defs>
</svg>
