<svg width="32" height="32" viewBox="0 0 32 32" fill="none" xmlns="http://www.w3.org/2000/svg">
<g clip-path="url(#clip0_3698_44)">
<path d="M30.7348 6.98182H0V23.9389H30.7348V6.98182Z" fill="white" stroke="#36322F" stroke-width="1.82156"/>
<path d="M4.33965 13.2187H6.14561V18.618H7.35579V13.2187H9.16175V12.1017H4.33965V13.2187ZM17.4455 13.9542C17.4455 12.8743 16.7659 12.1017 15.4626 12.1017H13.0888V18.618H14.299V15.8067H14.932L16.6821 18.618H18.0319L16.226 15.7043C17.0172 15.4622 17.4455 14.8106 17.4455 13.9542ZM15.4719 14.6896H14.299V13.2187H15.4719C15.9094 13.2187 16.2353 13.4235 16.2353 13.9542C16.2353 14.4848 15.9094 14.6896 15.4719 14.6896ZM20.7277 12.1017L22.6082 15.8439V18.618H23.8183V15.8439L25.6988 12.1017H24.3955L23.2132 14.6337L22.031 12.1017H20.7277Z" fill="#36322F"/>
<path d="M31.3973 7.24698V24.734" stroke="#36322F" stroke-width="2.73234"/>
<path d="M0.529938 24.4689H31.7947" stroke="#36322F" stroke-width="3.64312"/>
</g>
<defs>
<clipPath id="clip0_3698_44">
<rect width="32" height="32" fill="white"/>
</clipPath>
</defs>
</svg>
