<svg width="32" height="32" viewBox="0 0 32 32" fill="none" xmlns="http://www.w3.org/2000/svg">
<path d="M31.0229 0H0.98241C0.721858 0 0.471979 0.103504 0.287741 0.287741C0.103504 0.471978 0 0.721858 0 0.982409L0 5.10322H16C17.9717 5.10456 19.9061 5.64057 21.5972 6.65419C23.2884 7.66781 24.673 9.12108 25.6037 10.8593C26.5344 12.5975 26.9763 14.5555 26.8823 16.525C26.7883 18.4944 26.162 20.4015 25.07 22.0431H31.9734V0.982409C31.9749 0.726884 31.8763 0.480946 31.6986 0.297306C31.5209 0.113666 31.2783 0.00693942 31.0229 0V0Z" fill="#5CD8E5"/>
<path d="M5.10322 16C5.10089 13.8493 5.73662 11.7462 6.92997 9.95685H1.06567e-10V31.0229C-1.90153e-06 31.1516 0.0254464 31.2791 0.074882 31.398C0.124318 31.5169 0.196765 31.6249 0.288061 31.7157C0.379356 31.8065 0.487698 31.8783 0.606859 31.9271C0.72602 31.9759 0.853649 32.0007 0.98241 32H31.0229C31.282 32 31.5306 31.897 31.7138 31.7138C31.8971 31.5306 32 31.282 32 31.0229V26.8968H16C13.11 26.8968 10.3384 25.7487 8.29481 23.7052C6.25127 21.6616 5.10322 18.89 5.10322 16V16Z" fill="#5CD8E5"/>
<path d="M23.923 15.7239C22.9444 16.0987 21.9218 16.3468 20.8802 16.462C20.917 16.0532 20.9063 15.6416 20.8483 15.2353C21.8768 14.35 22.7602 13.3089 23.4663 12.15C23.6332 11.8866 23.6886 11.5678 23.6204 11.2635C23.5522 10.9593 23.3659 10.6946 23.1025 10.5277C22.8392 10.3608 22.5203 10.3054 22.2161 10.3736C21.9118 10.4418 21.6471 10.6281 21.4802 10.8915C21.0197 11.6387 20.4764 12.3316 19.8606 12.9572C19.5726 12.5896 19.2328 12.2658 18.8516 11.996C18.8704 11.3053 18.8152 10.6146 18.687 9.93561C18.5131 9.02229 18.2626 8.12522 17.9383 7.2539C17.8855 7.10866 17.8046 6.97526 17.7002 6.86136C17.5958 6.74746 17.4699 6.6553 17.3298 6.59017C17.1897 6.52504 17.0381 6.48823 16.8837 6.48184C16.7293 6.47545 16.5752 6.49961 16.4301 6.55294C16.2679 6.60907 16.1207 6.70173 16 6.82376C15.8414 6.98263 15.7313 7.18329 15.6824 7.40235C15.6335 7.62141 15.6479 7.84986 15.7239 8.06107C15.8301 8.34251 15.9203 8.5921 16 8.87354C16.1168 9.25058 16.2124 9.60637 16.2921 9.93561C16.3735 10.3371 16.4302 10.7432 16.462 11.1517C16.0553 11.1077 15.6445 11.1184 15.2406 11.1835C14.3537 10.1531 13.3108 9.26796 12.15 8.56024C11.8863 8.40859 11.5743 8.36472 11.279 8.43779C10.9838 8.51086 10.7282 8.69522 10.5657 8.95233C10.4032 9.20945 10.3464 9.51942 10.4071 9.81746C10.4678 10.1155 10.6413 10.3785 10.8915 10.5516C11.639 11.0038 12.3337 11.5381 12.9625 12.1447C12.5944 12.4338 12.269 12.7735 11.996 13.1537C10.371 13.1528 8.76102 13.4647 7.25389 14.0723C6.96095 14.1794 6.72252 14.3984 6.59107 14.6812C6.45961 14.9641 6.44589 15.2875 6.55293 15.5805C6.65997 15.8734 6.87899 16.1118 7.16182 16.2433C7.44465 16.3748 7.76812 16.3885 8.06106 16.2814C9.05424 15.8962 10.0931 15.641 11.1517 15.5221C11.1517 15.6814 11.1251 15.8407 11.1251 16C11.1257 16.2489 11.1452 16.4975 11.1835 16.7434C10.1519 17.6271 9.26654 18.6684 8.56023 19.8287C8.4467 20.0064 8.38313 20.2114 8.3762 20.4221C8.36927 20.6328 8.41923 20.8415 8.52083 21.0262C8.62244 21.211 8.77194 21.3649 8.95361 21.4719C9.13529 21.5789 9.34243 21.635 9.55326 21.6342C9.75101 21.6375 9.94635 21.5904 10.121 21.4976C10.2956 21.4047 10.4437 21.269 10.5516 21.1032C11.0024 20.3563 11.5368 19.6632 12.1447 19.0375C12.4367 19.403 12.776 19.728 13.1537 20.004C13.1344 20.6932 13.1914 21.3824 13.3236 22.0591C13.495 22.973 13.7455 23.8703 14.0723 24.7408C14.1577 24.9626 14.3086 25.1531 14.505 25.2869C14.7014 25.4206 14.9339 25.4913 15.1716 25.4895C15.3091 25.4899 15.4456 25.4666 15.5752 25.4205C15.7344 25.359 15.8791 25.265 16 25.1444C16.1592 24.987 16.2699 24.7873 16.3188 24.5689C16.3678 24.3505 16.353 24.1226 16.2761 23.9124C16.1752 23.6256 16.0796 23.3813 16 23.0946C15.8832 22.7175 15.7876 22.3671 15.7132 22.0325C15.6236 21.6496 15.5597 21.261 15.5221 20.8696H16C16.2506 20.8708 16.5009 20.853 16.7487 20.8165C17.6321 21.8449 18.6714 22.7284 19.8287 23.4344C20.0921 23.6013 20.411 23.6568 20.7152 23.5886C21.0195 23.5203 21.2841 23.3341 21.451 23.0707C21.6179 22.8073 21.6734 22.4884 21.6051 22.1842C21.5369 21.88 21.3506 21.6153 21.0873 21.4484C20.3409 20.9866 19.6481 20.4434 19.0216 19.8287C19.3895 19.5395 19.7149 19.1998 19.988 18.8198H20.2589C21.7894 18.7734 23.3003 18.4626 24.7249 17.9011C25.0045 17.7845 25.2285 17.5648 25.3504 17.2874C25.4723 17.0101 25.4828 16.6964 25.3797 16.4116C25.2765 16.1267 25.0677 15.8925 24.7964 15.7576C24.5252 15.6226 24.2124 15.5972 23.923 15.6867V15.7239ZM18.6127 16V16.2124C18.5867 16.559 18.4915 16.8968 18.3328 17.206C18.1741 17.5152 17.9551 17.7895 17.6887 18.0126C17.5874 18.0994 17.479 18.1775 17.3647 18.2463C16.9503 18.4987 16.4746 18.6328 15.9894 18.6339H15.777C15.4317 18.6079 15.0951 18.5132 14.7869 18.3555C14.4787 18.1977 14.2051 17.9801 13.9821 17.7152C13.8952 17.6109 13.8154 17.5009 13.7431 17.386C13.4906 16.9716 13.3566 16.4959 13.3555 16.0106C13.3555 15.9416 13.3555 15.8672 13.3555 15.7982C13.3659 15.6639 13.3872 15.5307 13.4192 15.3999C13.5499 14.8559 13.8491 14.3671 14.2741 14.0033C14.3794 13.9177 14.4894 13.8379 14.6034 13.7643C15.0178 13.5119 15.4935 13.3778 15.9788 13.3767H16.1912C16.3272 13.3871 16.4621 13.4084 16.5947 13.4404C17.1394 13.5726 17.6283 13.8737 17.9914 14.3007C18.0781 14.402 18.1563 14.5103 18.225 14.6246C18.485 15.0369 18.6264 15.5127 18.6339 16H18.6127Z" fill="#5CD8E5"/>
</svg>
