<svg width="176" height="176" fill="none" xmlns="http://www.w3.org/2000/svg"><path class="favicon__top" d="M46.872 27.919c-11.553 11.553-11.553 30.284 0 41.837L69.066 91.95l-29.294 29.294c-11.553 11.553-11.553 30.284 0 41.837 11.553 11.553 30.285 11.553 41.838 0 14.293-14.293 42.874-42.884 42.874-42.884l-2.861-59.365L88.71 27.92c-11.553-11.553-30.285-11.553-41.838 0z" fill="#00FFA3"/><path class="favicon__bottom" d="m69.066 91.95-29.294 29.294c-11.553 11.553-11.553 30.284 0 41.837 11.553 11.553 30.285 11.553 41.838 0l57.737-57.737c7.394-7.393 7.394-19.38.002-26.775L90.153 29.362c11.52 11.556 11.509 30.263-.033 41.805L69.201 92.085l-.135-.135z" fill="#8F00FF"/></svg>