<svg width="110" height="26" viewBox="0 0 110 26" xmlns="http://www.w3.org/2000/svg"><title>typecho-logo</title><path d="M34.75 5.288c-.462 1.254-.99 2.442-2.53 2.574L32 9.468h1.562v5.874c0 1.54-.022 3.652 3.41 3.652 1.034 0 2.134-.308 2.794-.77l-.66-1.694c-.352.22-.902.462-1.496.462-.902 0-1.43-.396-1.43-1.738V9.468h2.706l.22-1.848H36.18V5.288h-1.43zm13.508 12.98c0 2.002-.814 3.234-2.838 3.234-.66 0-1.144-.066-1.562-.22-.396-.154-.506-.374-.506-.792v-1.056l-2.09.176v3.058c.924.462 2.75.726 4.136.726 3.278 0 5.104-1.496 5.104-5.126V7.62H46.63v1.804l.704.044c.418 0 .55.176.55.66v3.982c0 1.144-.814 2.178-2.354 2.178-1.408 0-1.628-1.012-1.628-2.354V7.62H40.03v1.804l.704.044c.374.022.55.154.55.616v4.422c0 2.596 1.21 3.806 3.41 3.806 1.452 0 2.794-.616 3.564-1.716v1.672zM54 20.776c0 .55-.22.682-.638.726l-.726.066v1.672h5.676v-1.738l-1.782-.088v-3.036c.572.352 1.496.638 2.354.638 2.904 0 4.818-2.09 4.818-6.138 0-3.938-1.54-5.588-3.982-5.588-1.87 0-3.08 1.012-3.476 1.76V7.62h-3.718v1.782l.924.066c.418 0 .55.176.55.66v10.648zm6.974-7.678c0 1.914-.638 3.828-2.508 3.828-.572 0-1.364-.176-1.936-.55v-5.06c0-1.012.968-1.892 2.222-1.892 1.166 0 2.222.748 2.222 3.674zm9.812-5.808c-3.608 0-5.434 2.86-5.434 6.116 0 3.278 1.452 5.566 5.192 5.566 2.068 0 3.52-.924 3.872-1.232l-.836-1.782c-.528.374-1.474.968-2.772.968-1.87 0-2.618-1.166-2.706-2.596 2.596-.022 6.27-.594 6.27-3.982 0-1.958-1.43-3.058-3.586-3.058zm1.166 3.102c0 1.694-2.31 2.068-3.938 2.09.066-1.628.858-3.322 2.618-3.322.792 0 1.32.418 1.32 1.232zm9.24 6.578c-1.958 0-2.838-1.54-2.838-3.938 0-2.442.902-3.762 2.662-3.762.33 0 .594.044.858.132.396.132.462.33.462.748v1.056l2.024-.154v-2.86c-1.056-.572-2.112-.902-3.432-.902-2.486 0-5.236 1.54-5.236 6.006 0 3.652 1.914 5.698 5.148 5.698 1.628 0 2.97-.572 3.828-1.276l-.946-1.694c-.902.66-1.672.946-2.53.946zm6.094-.748c0 .55-.22.682-.638.726l-.726.066v1.672h5.236v-1.76l-1.254-.066v-5.324c0-1.144.814-2.222 2.354-2.222 1.408 0 1.716 1.034 1.716 2.376v4.532c0 .55-.22.682-.638.726l-.726.066v1.672h5.236v-1.76l-1.254-.066v-5.742c0-2.596-1.298-3.828-3.498-3.828-1.452 0-2.552.682-3.212 1.628V3h-3.916v1.826l.77.044c.418.022.55.154.55.638v10.714zm11.638-3.08c0 3.982 1.936 5.874 4.884 5.874 2.904 0 5.258-1.936 5.258-6.16 0-5.06-3.278-5.566-4.906-5.566-2.266 0-5.236 1.276-5.236 5.852zm5.06 3.938c-2.112 0-2.398-2.2-2.398-4.246 0-2.112.704-3.608 2.442-3.608 1.76 0 2.354 1.518 2.354 3.982 0 2.288-.682 3.872-2.398 3.872zM13 26C3.368 26 0 22.631 0 13S3.368 0 13 0s13 3.369 13 13-3.368 13-13 13zM6 9h14V7H6v2zm0 5h10v-2H6v2zm0 5h12v-2H6v2z" fill-rule="evenodd"/></svg>