<svg width="32" height="32" viewBox="0 0 32 32" fill="none" xmlns="http://www.w3.org/2000/svg">
<g clip-path="url(#clip0_3186_166)">
<rect width="32" height="32" fill="#3178C6"/>
<path d="M28.875 0H3.125C1.39911 0 0 1.39911 0 3.125V28.875C0 30.6009 1.39911 32 3.125 32H28.875C30.6009 32 32 30.6009 32 28.875V3.125C32 1.39911 30.6009 0 28.875 0Z" fill="#3178C6"/>
<path d="M28.875 0H3.125C1.39911 0 0 1.39911 0 3.125V28.875C0 30.6009 1.39911 32 3.125 32H28.875C30.6009 32 32 30.6009 32 28.875V3.125C32 1.39911 30.6009 0 28.875 0Z" fill="#3178C6"/>
<path fill-rule="evenodd" clip-rule="evenodd" d="M19.8087 25.464V28.5928C20.3173 28.8536 20.9189 29.0491 21.6134 29.1794C22.3079 29.3098 23.0398 29.375 23.8093 29.375C24.5593 29.375 25.2716 29.3033 25.9466 29.1599C26.6215 29.0165 27.2133 28.7802 27.7219 28.451C28.2306 28.1219 28.6332 27.6916 28.9299 27.1604C29.2266 26.6291 29.375 25.9724 29.375 25.1903C29.375 24.6231 29.2902 24.1261 29.1207 23.6992C28.9511 23.2723 28.7066 22.8926 28.3871 22.5601C28.0676 22.2277 27.6844 21.9294 27.2377 21.6654C26.7911 21.4014 26.2873 21.1521 25.7265 20.9175C25.3157 20.748 24.9472 20.5834 24.6212 20.4237C24.2951 20.264 24.018 20.1011 23.7897 19.9349C23.5615 19.7686 23.3854 19.5926 23.2616 19.4069C23.1377 19.2211 23.0757 19.0109 23.0757 18.7762C23.0757 18.5611 23.1311 18.3672 23.242 18.1944C23.3529 18.0217 23.5094 17.8734 23.7115 17.7496C23.9137 17.6258 24.1614 17.5296 24.4549 17.4611C24.7484 17.3927 25.0744 17.3585 25.4331 17.3585C25.6939 17.3585 25.9694 17.3781 26.2596 17.4171C26.5498 17.4563 26.8416 17.5166 27.1351 17.598C27.4285 17.6795 27.7138 17.7822 27.9909 17.906C28.2681 18.0299 28.524 18.1733 28.7588 18.3363V15.4128C28.2828 15.2303 27.7627 15.095 27.1986 15.007C26.6346 14.919 25.9873 14.875 25.257 14.875C24.5136 14.875 23.8093 14.9549 23.1442 15.1146C22.4791 15.2742 21.8938 15.5236 21.3884 15.8625C20.883 16.2015 20.4836 16.6333 20.1902 17.1581C19.8967 17.6827 19.75 18.3101 19.75 19.0402C19.75 19.9723 20.019 20.7676 20.557 21.4259C21.0949 22.0843 21.9117 22.6416 23.0072 23.0979C23.4376 23.2739 23.8387 23.4466 24.2104 23.6161C24.5821 23.7856 24.9033 23.9616 25.1738 24.1441C25.4444 24.3266 25.658 24.5254 25.8146 24.7405C25.9711 24.9556 26.0493 25.2 26.0493 25.4738C26.0493 25.6759 26.0004 25.8632 25.9026 26.036C25.8048 26.2087 25.6564 26.3586 25.4575 26.4858C25.2586 26.6129 25.0108 26.7122 24.7141 26.7839C24.4174 26.8557 24.0702 26.8915 23.6724 26.8915C22.9942 26.8915 22.3226 26.7726 21.6574 26.5346C20.9923 26.2967 20.376 25.9399 19.8087 25.464V25.464ZM14.5487 17.7551H18.5625V15.1875H7.375V17.7551H11.3691V29.1875H14.5487V17.7551Z" fill="white"/>
</g>
<defs>
<clipPath id="clip0_3186_166">
<rect width="32" height="32" fill="white"/>
</clipPath>
</defs>
</svg>
