<svg width="32" height="32" viewBox="0 0 32 32" fill="none" xmlns="http://www.w3.org/2000/svg">
<path d="M23.6695 21.8376C23.2 21.9761 22.8254 22.028 22.3341 22.028C18.3093 22.028 12.3994 7.96348 12.3994 3.28245C12.3994 1.55934 12.8072 0.984471 13.3832 0.490918C8.45741 1.06579 2.54682 2.8736 0.656941 5.17158C0.248471 5.7472 0 6.6496 0 7.79934C0 15.1066 7.79972 31.6883 13.3015 31.6883C15.8475 31.6887 20.1389 27.5046 23.6695 21.8376ZM21.1004 0C26.1903 0 31.2836 0.820706 31.2836 3.69393C31.2836 9.52282 27.587 16.5865 25.6998 16.5865C22.3334 16.5865 18.1459 7.22485 18.1459 2.54381C18.1463 0.409223 18.967 0 21.1004 0Z" fill="#FF8700"/>
</svg>
