<svg width="32" height="32" viewBox="0 0 32 32" fill="none" xmlns="http://www.w3.org/2000/svg">
<path d="M14.8434 27.6251C15.1843 27.7034 15.5292 27.763 15.8766 27.8034C16.2255 27.7629 16.5719 27.7034 16.9143 27.6251C18.9563 27.1567 20.7792 26.0097 22.0853 24.3716C23.3913 22.7334 24.1034 20.7008 24.1051 18.6057V8.05943L22.56 8.95086V18.6057C22.5566 20.2899 22.0034 21.9269 20.9843 23.2678C19.9652 24.6087 18.5361 25.5801 16.9143 26.0343C16.5732 26.1274 16.2266 26.1991 15.8766 26.2491C15.528 26.1991 15.183 26.1274 14.8434 26.0343C13.2216 25.5801 11.7925 24.6087 10.7734 23.2678C9.75433 21.9269 9.20105 20.2899 9.19771 18.6057V2.69714L7.65714 3.61143V18.6057C7.65866 20.7002 8.37006 22.7323 9.67522 24.3704C10.9804 26.0085 12.8022 27.1558 14.8434 27.6251V27.6251Z" fill="#E81C1C"/>
<path d="M20.3154 6.688L10.7429 12.1737V13.9566L25.6411 5.36686V18.624C25.6333 21.1242 24.7595 23.5444 23.1685 25.473C21.5774 27.4016 19.3674 28.7194 16.9143 29.2023C16.5714 29.2714 16.225 29.3218 15.8766 29.3531C15.5297 29.3215 15.1848 29.2711 14.8434 29.2023C12.3864 28.7197 10.173 27.3996 8.58066 25.4671C6.98835 23.5347 6.11585 21.1097 6.112 18.6057V4.48L4.57143 5.36686V18.624C4.57652 21.5348 5.61016 24.3501 7.48974 26.5726C9.36933 28.7952 11.9739 30.2819 14.8434 30.7703C15.1817 30.8297 15.5291 30.8709 15.8766 30.9029C16.224 30.9349 16.576 30.8297 16.9143 30.7703C19.7869 30.2814 22.3939 28.792 24.2739 26.5656C26.1538 24.3393 27.1855 21.5196 27.1863 18.6057V2.69714L20.3154 6.688Z" fill="#E81C1C"/>
<path d="M24.1006 0.914307L10.7429 8.62631V10.4092L24.1006 2.69716V0.914307Z" fill="#E81C1C"/>
</svg>
