<svg width="32" height="32" viewBox="0 0 32 32" fill="none" xmlns="http://www.w3.org/2000/svg">
<g clip-path="url(#clip0_3763_109)">
<path d="M31.9546 15.9604C31.9546 24.7746 24.8089 31.9204 15.9942 31.9204C7.17919 31.9204 0.0336914 24.7746 0.0336914 15.9604C0.0336914 7.14563 7.17944 0 15.9942 0C24.8091 0 31.9546 7.14563 31.9546 15.9604Z" fill="#DD4814"/>
<path d="M5.14163 13.8291C3.96425 13.8291 3.01038 14.783 3.01038 15.9603C3.01038 17.1371 3.96425 18.0911 5.14163 18.0911C6.3185 18.0911 7.27238 17.1371 7.27238 15.9603C7.27238 14.783 6.3185 13.8291 5.14163 13.8291ZM20.356 23.5138C19.3369 24.1026 18.9873 25.4051 19.576 26.4237C20.1641 27.443 21.4666 27.7923 22.4859 27.2037C23.505 26.6156 23.8545 25.3131 23.2659 24.2937C22.6778 23.2752 21.3745 22.9258 20.356 23.5138ZM9.77025 15.9603C9.77025 13.8546 10.8163 11.9941 12.4166 10.8676L10.8588 8.25833C8.9945 9.50458 7.60725 11.4088 7.03075 13.6392C7.7035 14.188 8.134 15.0236 8.134 15.9602C8.134 16.8963 7.7035 17.732 7.03075 18.2808C7.6065 20.5117 8.99375 22.4162 10.8588 23.6625L12.4166 21.0525C10.8163 19.9266 9.77025 18.0662 9.77025 15.9603V15.9603ZM15.9943 9.7357C19.2459 9.7357 21.9136 12.2287 22.1936 15.4082L25.2299 15.3635C25.0806 13.0162 24.0551 10.909 22.4796 9.35945C21.6694 9.66558 20.7334 9.6187 19.9246 9.15245C19.1143 8.68483 18.6061 7.89595 18.4673 7.0397C17.6618 6.8168 16.8299 6.70369 15.9941 6.70345C14.5711 6.702 13.167 7.02984 11.8918 7.66133L13.3724 10.3147C14.1935 9.93249 15.0885 9.73485 15.9943 9.7357V9.7357ZM15.9943 22.1845C15.0885 22.1853 14.1936 21.9876 13.3725 21.6055L11.8919 24.2586C13.167 24.8908 14.5712 25.219 15.9944 25.2175C16.8302 25.2173 17.662 25.1038 18.4674 24.8803C18.6063 24.0241 19.1145 23.236 19.9246 22.7676C20.7341 22.3005 21.6695 22.2545 22.4796 22.5606C24.0553 21.0111 25.0806 18.9038 25.2301 16.5566L22.193 16.5118C21.9136 19.6922 19.246 22.1843 15.9943 22.1843V22.1845ZM20.3553 8.40558C21.3745 8.99408 22.6771 8.64558 23.2651 7.62633C23.8539 6.60708 23.5051 5.30445 22.4859 4.7157C21.4666 4.1277 20.1641 4.47695 19.5753 5.4962C18.9874 6.51495 19.3368 7.81745 20.3553 8.40558Z" fill="white"/>
</g>
<defs>
<clipPath id="clip0_3763_109">
<rect width="32" height="32" fill="white"/>
</clipPath>
</defs>
</svg>
