<svg width="32" height="32" viewBox="0 0 32 32" fill="none" xmlns="http://www.w3.org/2000/svg">
<path d="M30.0117 9.2874L17.4427 2.25537C16.9428 1.97567 16.3789 1.82871 15.8053 1.82861C15.2318 1.82852 14.6679 1.9753 14.1679 2.25484L1.5939 9.28406C1.13552 9.54029 0.78297 9.94962 0.598614 10.4396C0.414256 10.9296 0.409966 11.4686 0.586504 11.9614L5.02134 24.3417C5.19894 24.8375 5.54797 25.2542 6.00602 25.5173L14.1273 30.1831C14.6351 30.4748 15.211 30.6285 15.7972 30.6287C16.3835 30.6289 16.9595 30.4756 17.4674 30.1843L25.5977 25.5209C26.0564 25.2578 26.4059 24.8407 26.5837 24.3445L31.0185 11.9644C31.195 11.4718 31.1908 10.9328 31.0065 10.4429C30.8223 9.95305 30.4699 9.54372 30.0117 9.2874Z" fill="url(#paint0_linear_2816_15)"/>
<path opacity="0.4" d="M14.7071 26.9159L9.48341 23.9942C9.36272 23.9267 9.26233 23.8285 9.19244 23.7096C9.12254 23.5907 9.08569 23.4555 9.08569 23.3178C9.08569 23.18 9.12254 23.0448 9.19244 22.9259C9.26233 22.807 9.36272 22.7088 9.48341 22.6413L14.707 19.7195C15.0404 19.533 15.4164 19.4351 15.7988 19.4351C16.1812 19.4351 16.5572 19.533 16.8905 19.7195L22.1142 22.6413C22.2349 22.7088 22.3353 22.807 22.4052 22.9259C22.4751 23.0448 22.5119 23.18 22.5119 23.3178C22.5119 23.4555 22.4751 23.5907 22.4052 23.7096C22.3353 23.8285 22.2349 23.9267 22.1142 23.9942L16.8905 26.9159C16.5572 27.1023 16.1812 27.2003 15.7988 27.2003C15.4164 27.2003 15.0404 27.1023 14.7071 26.9159Z" fill="white"/>
<path opacity="0.7" d="M14.7071 23.294L7.22596 19.1097C7.10532 19.0422 7.00489 18.9439 6.93499 18.8251C6.86509 18.7062 6.82825 18.571 6.82825 18.4332C6.82825 18.2955 6.86509 18.1602 6.93499 18.0414C7.00489 17.9225 7.10532 17.8243 7.22596 17.7567L14.7071 13.5725C15.0404 13.3861 15.4164 13.2881 15.7988 13.2881C16.1812 13.2881 16.5571 13.3861 16.8905 13.5725L24.3716 17.7567C24.4922 17.8243 24.5926 17.9225 24.6625 18.0414C24.7324 18.1602 24.7693 18.2955 24.7693 18.4332C24.7693 18.571 24.7324 18.7062 24.6625 18.8251C24.5926 18.9439 24.4922 19.0422 24.3716 19.1097L16.8905 23.294C16.5571 23.4804 16.1812 23.5783 15.7988 23.5783C15.4164 23.5783 15.0404 23.4804 14.7071 23.294Z" fill="white"/>
<path d="M14.707 18.4983L4.29128 12.6725C4.17062 12.6049 4.07019 12.5068 4.00029 12.3878C3.93039 12.269 3.89355 12.1337 3.89355 11.996C3.89355 11.8582 3.93039 11.723 4.00029 11.6041C4.07019 11.4853 4.17062 11.387 4.29128 11.3196L14.7071 5.49385C15.0404 5.30741 15.4164 5.20947 15.7988 5.20947C16.1812 5.20947 16.5571 5.30741 16.8905 5.49385L27.3062 11.3196C27.4269 11.387 27.5273 11.4853 27.5972 11.6041C27.6671 11.723 27.704 11.8582 27.704 11.996C27.704 12.1337 27.6671 12.269 27.5972 12.3878C27.5273 12.5068 27.4269 12.6049 27.3062 12.6725L16.8905 18.4983C16.5571 18.6847 16.1812 18.7827 15.7988 18.7827C15.4164 18.7827 15.0404 18.6847 14.707 18.4983Z" fill="white"/>
<defs>
<linearGradient id="paint0_linear_2816_15" x1="15.8025" y1="9.4538" x2="15.8025" y2="25.6846" gradientUnits="userSpaceOnUse">
<stop stop-color="#2138BF"/>
<stop offset="0.9996" stop-color="#2865D7"/>
</linearGradient>
</defs>
</svg>
