<svg width="32" height="32" viewBox="0 0 32 32" fill="none" xmlns="http://www.w3.org/2000/svg">
<path fill-rule="evenodd" clip-rule="evenodd" d="M21.6565 10.7105C21.6565 17.3417 21.6474 20.7065 21.6291 20.7176C21.6141 20.7268 21.6018 20.7692 21.6018 20.812C21.6018 20.8547 21.591 20.8962 21.578 20.9041C21.5649 20.9121 21.546 20.9796 21.5359 21.054C21.5258 21.1286 21.5058 21.1896 21.4912 21.1896C21.4767 21.1896 21.4648 21.2199 21.4648 21.2569C21.4648 21.2941 21.4555 21.3245 21.4442 21.3247C21.433 21.3248 21.4002 21.3734 21.3714 21.4326C21.3426 21.4917 21.3086 21.5401 21.2961 21.5401C21.2834 21.5401 21.273 21.5644 21.273 21.594C21.273 21.6237 21.261 21.6481 21.2462 21.6481C21.2314 21.6481 21.2116 21.6784 21.2022 21.7154C21.1926 21.7525 21.1746 21.7829 21.1621 21.7829C21.1425 21.7829 21.09 21.8327 20.843 22.0862C20.7906 22.14 20.729 22.1874 20.7115 22.1874C20.7027 22.1874 20.6623 22.2177 20.6217 22.2549C20.581 22.2919 20.5322 22.3222 20.5133 22.3222C20.4943 22.3222 20.4788 22.3344 20.4788 22.3493C20.4788 22.3641 20.4603 22.3762 20.4377 22.3762C20.4151 22.3762 20.3966 22.3865 20.3966 22.3991C20.3966 22.4117 20.3411 22.4445 20.2734 22.4721C20.2056 22.4996 20.1501 22.5317 20.1501 22.5435C20.1501 22.5553 20.1366 22.5649 20.12 22.5649C20.0871 22.5649 19.8982 22.6474 19.8762 22.6714C19.8552 22.6943 19.587 22.7807 19.537 22.7807C19.5127 22.7807 19.4928 22.7929 19.4928 22.8077C19.4928 22.8225 19.4743 22.8347 19.4517 22.8347C19.4291 22.8347 19.4106 22.8452 19.4106 22.8581C19.4106 22.8711 19.3366 22.8899 19.2463 22.8999C19.1559 22.91 19.0819 22.9298 19.0819 22.9439C19.0819 22.958 19.0388 22.9695 18.9861 22.9695C18.9334 22.9695 18.8902 22.9802 18.8902 22.9933C18.8902 23.0064 18.8102 23.0256 18.7125 23.0359C18.6148 23.0462 18.5278 23.0658 18.5192 23.0795C18.5106 23.0932 18.455 23.1044 18.3956 23.1044C18.3362 23.1044 18.2877 23.1165 18.2877 23.1313C18.2877 23.1461 18.2261 23.1583 18.1507 23.1583C18.0754 23.1583 18.0138 23.1693 18.0138 23.1829C18.0138 23.1963 17.8536 23.2161 17.6578 23.2267C17.4619 23.2374 17.3017 23.2567 17.3017 23.2696C17.3017 23.2825 17.1856 23.2932 17.0438 23.2932C16.8752 23.2932 16.7822 23.3038 16.7754 23.3239C16.7678 23.3463 16.3982 23.355 15.4106 23.3562C14.4963 23.3573 14.0495 23.367 14.036 23.3861C14.0039 23.4312 14.0103 28.6539 14.0424 28.6735C14.0601 28.6842 14.0698 29.1509 14.0698 29.985V31.28L15.3091 31.2607C15.9908 31.2501 16.5546 31.2327 16.5622 31.2221C16.5697 31.2114 16.8594 31.1941 17.2058 31.1835C17.5523 31.1729 17.8398 31.153 17.8449 31.1392C17.8499 31.1254 17.9578 31.1142 18.0846 31.1142C18.2114 31.1142 18.315 31.1038 18.315 31.0911C18.315 31.0785 18.4846 31.0595 18.6917 31.049C18.8988 31.0385 19.0724 31.0186 19.0774 31.0046C19.0824 30.9907 19.1594 30.9793 19.2486 30.9793C19.3383 30.9793 19.4106 30.9673 19.4106 30.9524C19.4106 30.9375 19.4722 30.9254 19.5476 30.9254C19.6229 30.9254 19.6845 30.9145 19.6845 30.9013C19.6845 30.8881 19.8078 30.8685 19.9584 30.858C20.109 30.8474 20.2323 30.8278 20.2323 30.8146C20.2323 30.8014 20.2878 30.7905 20.3555 30.7905C20.4234 30.7905 20.4788 30.7801 20.4788 30.7674C20.4788 30.7548 20.5682 30.7362 20.6774 30.7262C20.7866 30.7163 20.88 30.6964 20.885 30.6819C20.8901 30.6675 20.9486 30.6557 21.0151 30.6557C21.0817 30.6557 21.1361 30.645 21.1361 30.6319C21.1361 30.6188 21.2161 30.5996 21.3138 30.5893C21.4116 30.579 21.4986 30.5593 21.5072 30.5457C21.5158 30.532 21.559 30.5208 21.6034 30.5208C21.6477 30.5208 21.6839 30.5087 21.6839 30.4939C21.6839 30.4791 21.727 30.4669 21.7798 30.4669C21.8325 30.4669 21.8756 30.4556 21.8756 30.4419C21.8756 30.4281 21.9435 30.4085 22.0266 30.3983C22.1097 30.3881 22.1843 30.369 22.1926 30.3559C22.2008 30.3428 22.2376 30.3321 22.2744 30.3321C22.3112 30.3321 22.3412 30.3211 22.3412 30.3077C22.3412 30.2942 22.4029 30.2749 22.4782 30.2646C22.5535 30.2545 22.6151 30.2351 22.6151 30.2216C22.6151 30.2082 22.6521 30.1973 22.6973 30.1973C22.7425 30.1973 22.7794 30.1851 22.7794 30.1703C22.7794 30.1554 22.8102 30.1432 22.8479 30.1432C22.8856 30.1432 22.9164 30.1323 22.9164 30.1188C22.9164 30.1054 22.978 30.0861 23.0534 30.0759C23.1286 30.0657 23.1902 30.0464 23.1902 30.0329C23.1902 30.0194 23.2088 30.0084 23.2314 30.0084C23.2539 30.0084 23.2724 29.9977 23.2724 29.9845C23.2724 29.9713 23.3279 29.9525 23.3957 29.9425C23.4634 29.9324 23.519 29.9128 23.519 29.8988C23.519 29.885 23.5498 29.8736 23.5874 29.8736C23.625 29.8736 23.6559 29.862 23.6559 29.8478C23.6559 29.8336 23.6991 29.8141 23.752 29.8044C23.805 29.7946 23.855 29.7758 23.8632 29.7627C23.8715 29.7496 23.9022 29.7388 23.9314 29.7388C23.9606 29.7388 23.9846 29.7266 23.9846 29.7118C23.9846 29.6969 24.003 29.6849 24.0256 29.6849C24.0482 29.6849 24.0667 29.674 24.0667 29.6608C24.0667 29.6476 24.1098 29.6289 24.1626 29.6192C24.2153 29.6094 24.2584 29.5899 24.2584 29.5757C24.2584 29.5616 24.2831 29.55 24.3132 29.55C24.3434 29.55 24.368 29.5388 24.368 29.5252C24.368 29.5115 24.405 29.4923 24.4502 29.4825C24.4954 29.4728 24.5323 29.4537 24.5323 29.44C24.5323 29.4263 24.557 29.4151 24.5871 29.4151C24.6172 29.4151 24.6418 29.403 24.6418 29.3881C24.6418 29.3733 24.6604 29.3612 24.683 29.3612C24.7055 29.3612 24.7241 29.3504 24.7241 29.3373C24.7241 29.3241 24.7672 29.3053 24.8199 29.2955C24.8726 29.2858 24.9158 29.2663 24.9158 29.2521C24.9158 29.238 24.9342 29.2264 24.9569 29.2264C24.9794 29.2264 24.9979 29.2142 24.9979 29.1993C24.9979 29.1845 25.0217 29.1724 25.0507 29.1724C25.0798 29.1724 25.1221 29.1542 25.1446 29.132C25.1673 29.1097 25.199 29.0915 25.215 29.0915C25.2312 29.0915 25.2444 29.0807 25.2444 29.0674C25.2444 29.0542 25.2753 29.0358 25.3129 29.0265C25.3506 29.0172 25.3814 28.9977 25.3814 28.9831C25.3814 28.9686 25.3992 28.9566 25.4209 28.9566C25.4426 28.9566 25.4766 28.9344 25.4962 28.9071C25.5159 28.8798 25.567 28.849 25.6097 28.8385C25.6524 28.8281 25.7177 28.7898 25.7547 28.7533C25.7918 28.7168 25.8373 28.6869 25.8559 28.6869C25.8745 28.6869 25.9074 28.6627 25.9291 28.633C25.9509 28.6033 25.9799 28.5791 25.9937 28.5791C26.0075 28.5791 26.0473 28.5488 26.0822 28.5116C26.1171 28.4746 26.1602 28.4442 26.1781 28.4442C26.1958 28.4442 26.239 28.4139 26.2739 28.3768C26.3088 28.3397 26.3481 28.3094 26.3611 28.3094C26.3742 28.3094 26.4428 28.2548 26.5135 28.1881C26.5843 28.1213 26.6514 28.0667 26.6625 28.0667C26.6737 28.0667 26.759 27.9908 26.852 27.8981C26.9451 27.8054 27.0375 27.715 27.0572 27.6971C27.077 27.6793 27.108 27.649 27.1261 27.6297C27.1442 27.6105 27.175 27.5799 27.1946 27.5617C27.2606 27.5005 27.301 27.4601 27.3616 27.395C27.3947 27.3592 27.4558 27.2996 27.4971 27.2624C27.5386 27.2252 27.5725 27.1841 27.5725 27.171C27.5725 27.158 27.6002 27.1181 27.6341 27.0824C27.7268 26.9848 27.7642 26.938 27.7642 26.9198C27.7642 26.9108 27.8074 26.8633 27.8601 26.8144C27.9128 26.7654 27.9559 26.7131 27.9559 26.6981C27.9559 26.6832 27.9744 26.6558 27.997 26.6373C28.0196 26.6189 28.0381 26.5817 28.0381 26.5549C28.0381 26.5281 28.0627 26.4985 28.0929 26.489C28.123 26.4796 28.1477 26.4496 28.1477 26.4226C28.1477 26.3955 28.1662 26.3664 28.1887 26.3578C28.2114 26.3493 28.2298 26.3221 28.2298 26.2974C28.2298 26.2728 28.2526 26.2329 28.2807 26.2089C28.3086 26.1849 28.3402 26.138 28.351 26.1047C28.3617 26.0712 28.3819 26.044 28.396 26.044C28.41 26.044 28.4215 26.0258 28.4215 26.0035C28.4215 25.9813 28.4329 25.9631 28.4467 25.9631C28.4606 25.9631 28.4807 25.9236 28.4915 25.8754C28.5022 25.8272 28.5316 25.7697 28.5567 25.7473C28.605 25.7046 28.6954 25.5304 28.6954 25.4803C28.6954 25.464 28.7078 25.4507 28.7228 25.4507C28.7378 25.4507 28.7506 25.4294 28.7511 25.4035C28.7516 25.3775 28.7701 25.3328 28.7922 25.304C28.8143 25.2751 28.8324 25.2235 28.8324 25.1893C28.8324 25.1551 28.8447 25.127 28.8598 25.127C28.8748 25.127 28.8871 25.1089 28.8871 25.0866C28.8871 25.0643 28.8994 25.0461 28.9146 25.0461C28.9296 25.0461 28.9419 25.0219 28.9419 24.9922C28.9419 24.9625 28.9526 24.9382 28.9658 24.9382C28.979 24.9382 28.9976 24.8897 29.0072 24.8304C29.0168 24.771 29.0369 24.7225 29.0518 24.7225C29.0666 24.7225 29.0789 24.6921 29.0789 24.6551C29.0789 24.618 29.0903 24.5877 29.1042 24.5877C29.1182 24.5877 29.1382 24.5209 29.1485 24.4393C29.1588 24.3577 29.1782 24.291 29.1916 24.291C29.2049 24.291 29.2158 24.2606 29.2158 24.2236C29.2158 24.1865 29.227 24.1561 29.2406 24.1561C29.2543 24.1561 29.2739 24.0955 29.2842 24.0213C29.2946 23.9472 29.3142 23.8864 29.328 23.8864C29.3416 23.8864 29.3527 23.844 29.3527 23.7921C29.3527 23.7401 29.365 23.6977 29.3802 23.6977C29.3952 23.6977 29.4075 23.6552 29.4075 23.6032C29.4075 23.5513 29.4188 23.5088 29.4326 23.5088C29.4463 23.5088 29.4662 23.4179 29.4769 23.3066C29.4874 23.1953 29.507 23.1044 29.5203 23.1044C29.5336 23.1044 29.5445 23.0447 29.5445 22.9717C29.5445 22.8989 29.5561 22.8351 29.5702 22.8301C29.5842 22.8253 29.6045 22.6816 29.6152 22.511C29.6262 22.3351 29.6477 22.1926 29.6649 22.1816C29.6868 22.1676 29.6972 19.2337 29.7025 11.4412L29.7099 0.719971H25.6832H21.6565V10.7105ZM2.32001 10.1726V19.5984H6.34617H10.3723V10.1726V0.746931H6.34617H2.32001V10.1726Z" fill="#0C0CE4"/>
<path fill-rule="evenodd" clip-rule="evenodd" d="M2.32001 27.3115V31.2759H6.34617H10.3723V27.3115V23.347H6.34617H2.32001V27.3115Z" fill="#FC4434"/>
</svg>
