<svg width="62" height="62" viewBox="0 0 62 62" fill="none" xmlns="http://www.w3.org/2000/svg">
<g clip-path="url(#clip0_16:613)">
<path d="M5 35.3328C5 45.9206 9.5764 51.5772 17.8317 55.5535C26.0869 59.5298 30.8356 61.5753 30.8356 61.5753C30.8356 61.5753 35.5842 59.5298 43.8394 55.5535C52.0947 51.5772 56.6607 45.9206 56.6607 35.3328V5.74007C47.8784 1.9151 40.3536 0 30.5694 0C20.7852 0 13.4379 1.9151 5 5.74007V35.3328Z" fill="#FFB600"/>
<path d="M30.8356 59.5245C29.197 58.8043 24.9233 56.884 18.6457 53.8627C10.2965 49.8342 6.87857 44.4698 6.87857 35.3326V18.6029C19.3032 6.17829 38.809 4.10664 54.7821 6.07914V35.3326C54.7821 44.4646 51.3746 49.8342 43.0149 53.8627C36.7374 56.8788 32.4689 58.8043 30.8356 59.5245Z" fill="#412020"/>
<path d="M48.468 35.4842C48.4367 34.0335 47.6383 33.2508 45.6397 32.061C41.8669 29.8224 41.1729 27.9699 41.1573 25.4964C41.1573 21.7497 44.2882 19.5842 47.2783 19.5268C49.0591 19.4577 50.8083 20.0112 52.2252 21.0922C52.2252 22.4177 52.2252 23.7483 52.2252 25.0738C51.182 23.9386 49.7405 23.2505 48.2019 23.1534C46.9182 23.1534 45.5928 23.6753 45.5302 25.3399C45.4675 27.0045 46.8556 27.6568 48.5359 28.7004C52.3087 30.9756 52.9922 32.9846 52.9192 35.6616C52.8253 38.5942 50.8736 41.8139 46.3807 41.8661C44.6101 41.8609 42.8731 41.3816 41.3503 40.478C41.3503 39.0587 41.3503 37.6341 41.3503 36.2043C42.5564 37.3074 44.1026 37.9664 45.7337 38.0724C47.3983 38.0724 48.4941 37.0914 48.4576 35.4946" fill="#FFB600"/>
<path d="M16.1201 37.9472C16.878 37.9955 17.6329 37.8136 18.2857 37.4254C18.2857 31.6123 18.2857 25.7678 18.2857 19.986L22.8829 19.9495C22.8829 26.6236 22.8829 33.3917 22.8829 40.071C21.1348 41.2243 18.771 41.8818 15.9583 41.8609C11.4706 41.8139 9.25809 39.3196 9.25287 34.4666C9.24765 29.6137 9.25287 24.8494 9.25287 20.0538L13.751 20.0016C13.751 24.8807 13.7197 29.7911 13.751 34.691C13.7301 36.006 14.038 37.9315 16.1201 37.9472Z" fill="#FFB600"/>
<path d="M31.3626 19.438C29.1569 19.3578 26.9772 19.9354 25.1007 21.0974C25.1007 31.1426 25.1007 41.3808 25.1425 51.2119H29.7449C29.7449 48.0358 29.7449 44.8231 29.7449 41.5738C30.425 41.7578 31.1279 41.8439 31.8323 41.8295C36.9931 41.84 39.9623 37.2062 39.9623 30.4172C39.9623 23.6283 36.9044 19.4432 31.3626 19.438ZM31.2582 38.0933C30.743 38.0879 30.2326 37.9925 29.7502 37.8115C29.7502 33.0524 29.7502 28.2725 29.7502 23.5135C30.2696 23.2919 30.8292 23.18 31.3939 23.1844C34.097 23.1844 35.2189 25.3399 35.2189 30.5529C35.2189 35.625 33.9352 38.0933 31.2582 38.0933Z" fill="#FFB600"/>
</g>
<defs>
<clipPath id="clip0_16:613">
<rect width="61.58" height="61.58" fill="white"/>
</clipPath>
</defs>
</svg>
