<svg width="32" height="32" viewBox="0 0 32 32" fill="none" xmlns="http://www.w3.org/2000/svg">
<path d="M15.9147 31.8151C7.13955 31.8151 0 24.6756 0 15.9004C0 7.12533 7.13955 0 15.9147 0C24.6898 0 31.8293 7.13955 31.8293 15.9147C31.8293 24.6898 24.6898 31.8151 15.9147 31.8151ZM15.9147 1.152C7.77955 1.152 1.16622 7.76533 1.16622 15.9004C1.16622 24.0356 7.77955 30.6489 15.9147 30.6489C24.0498 30.6489 30.6631 24.0356 30.6631 15.9004C30.6631 7.76533 24.0498 1.152 15.9147 1.152Z" fill="black"/>
<path d="M12.7859 25.4716V24.9312C12.7859 24.9312 14.6206 24.6041 14.905 24.5472C15.3174 24.4476 15.3743 24.1632 15.3743 23.893V21.0059H16.2988V23.893C16.2988 24.1774 16.3699 24.4476 16.7681 24.5472C17.0383 24.6183 18.8872 24.9312 18.8872 24.9312V25.4716H12.7859Z" fill="black"/>
<path d="M13.5538 20.1814C11.6053 20.1814 11.0933 20.1814 11.0933 20.1814C10.9227 19.8258 10.8373 18.8303 10.8373 18.8303C10.7805 18.1903 10.5529 17.8205 9.42934 17.9769C8.26312 18.1334 6.64178 18.4747 5.78845 18.5316C4.96356 18.6027 4.13867 18.2898 4.13867 17.4507V16.8107C4.13867 16.5405 4.35201 16.3271 4.62223 16.3271H10.7236H12.0889C12.0889 16.3271 15.488 16.3271 19.9822 16.3271C26.112 16.3271 27.5485 16.9814 27.5485 16.9814C25.0169 19.0863 19.4133 20.1814 13.5538 20.1814Z" fill="black"/>
<path d="M16.2988 15.5164V15.2036C16.2988 14.8196 16.5406 14.592 16.8677 14.3502C17.2801 14.0516 17.977 13.6391 18.2899 13.3831C19.1148 12.6862 19.6694 11.8329 19.6694 10.6667C19.6694 8.66133 18.6454 5.93066 18.6454 5.93066H13.0277C13.0277 5.93066 12.0037 8.66133 12.0037 10.6667C12.0037 11.8329 12.5583 12.6862 13.3832 13.3831C13.6961 13.6391 14.393 14.0516 14.8054 14.3502C15.1326 14.592 15.3743 14.8196 15.3743 15.2036V15.5164H16.2988Z" fill="black"/>
</svg>
