<svg width="32" height="32" viewBox="0 0 32 32" fill="none" xmlns="http://www.w3.org/2000/svg">
<path d="M24.6129 31.9349H7.37627C3.30847 31.9349 0 28.6373 0 24.5586V7.37627C0 3.29763 3.29763 0 7.37627 0H24.6237C28.6915 0 32 3.29763 32 7.37627V24.5695C31.9892 28.6373 28.6807 31.9349 24.6129 31.9349Z" fill="#00BCC5"/>
<path d="M14.9262 11.9104H16.6184V16.0541C16.6184 17.2799 16.3255 18.2453 15.7723 18.8962C15.2083 19.5579 14.4164 19.8833 13.4076 19.8833C12.5181 19.8833 11.8347 19.6446 11.3791 19.1782C10.9018 18.7009 10.6632 17.9524 10.6632 16.9762V8.7755H5.04419V11.9213H6.81232V17.1389C6.81232 18.8311 7.3547 20.3606 8.34182 21.4345C9.35063 22.5409 10.7174 23.105 12.3228 23.105C13.5269 23.105 14.5249 22.8663 15.295 22.3891C15.9025 22.0202 16.3689 21.5104 16.6835 20.8596V22.9531H20.5344V8.76465H14.9154L14.9262 11.9104Z" fill="white"/>
<path d="M31.9892 18.5383C31.9349 18.6034 31.8807 18.6685 31.8264 18.7444C31.2081 19.4278 30.3295 19.7966 29.299 19.7966C28.2685 19.7966 27.4007 19.4278 26.7715 18.7444C26.1098 18.0285 25.7844 16.9871 25.7844 15.7288C25.7844 14.4814 26.1315 13.44 26.8041 12.7132C27.4441 12.0299 28.301 11.661 29.3098 11.661C30.3186 11.661 31.1756 12.0299 31.8156 12.7132C31.8698 12.7783 31.9241 12.8326 31.9783 12.9085V8.69969C31.4251 8.53697 30.861 8.4502 30.2861 8.4502C28.2685 8.4502 26.7498 9.19867 25.7085 10.6848H25.6759V8.76477H21.9119V28.2577H25.7627V20.9899H25.7953C26.8475 22.4217 28.3986 23.1485 30.362 23.1485C30.9044 23.1485 31.4576 23.0726 31.9892 22.899V18.5383V18.5383Z" fill="white"/>
</svg>
