<svg width="37" height="36" viewBox="0 0 37 36" fill="none" xmlns="http://www.w3.org/2000/svg">
<path fill-rule="evenodd" clip-rule="evenodd" d="M23.476 5.40799C23.228 5.40799 22.978 5.42499 22.726 5.46099L5.64 7.88099C2.695 8.29899 0.639998 11.061 1.051 14.053L2.574 25.141C2.95 27.876 5.257 29.855 7.9 29.855C8.148 29.855 8.399 29.838 8.651 29.802L25.735 27.382C28.68 26.964 30.735 24.201 30.325 21.209L28.801 10.122C28.427 7.38699 26.12 5.40799 23.476 5.40799ZM23.476 7.86099C24.946 7.86099 26.206 8.97899 26.41 10.461L27.933 21.549C28.159 23.195 27.023 24.722 25.403 24.952L8.318 27.372C8.18 27.392 8.039 27.402 7.901 27.402C6.432 27.402 5.171 26.284 4.968 24.802L3.444 13.714C3.33292 12.9234 3.53849 12.1208 4.016 11.481C4.2482 11.1651 4.54121 10.8989 4.87781 10.698C5.21441 10.4971 5.5878 10.3655 5.976 10.311L23.059 7.89099C23.197 7.87099 23.337 7.86099 23.476 7.86099V7.86099Z" fill="#252525"/>
<path fill-rule="evenodd" clip-rule="evenodd" d="M28.5 33.054C26.2457 33.054 24.0837 32.1585 22.4896 30.5644C20.8955 28.9703 20 26.8083 20 24.554C20 22.2996 20.8955 20.1376 22.4896 18.5436C24.0837 16.9495 26.2457 16.054 28.5 16.054C30.7543 16.054 32.9163 16.9495 34.5104 18.5436C36.1045 20.1376 37 22.2996 37 24.554C37 26.8083 36.1045 28.9703 34.5104 30.5644C32.9163 32.1585 30.7543 33.054 28.5 33.054Z" fill="#006AFF"/>
<path fill-rule="evenodd" clip-rule="evenodd" d="M26.51 28.006L31.837 24.839C31.8868 24.8099 31.9281 24.7683 31.9568 24.7183C31.9855 24.6683 32.0006 24.6117 32.0006 24.554C32.0006 24.4963 31.9855 24.4397 31.9568 24.3897C31.9281 24.3397 31.8868 24.2981 31.837 24.269L26.51 21.102C26.4592 21.0716 26.4012 21.0551 26.342 21.0542C26.2827 21.0534 26.2243 21.0681 26.1726 21.097C26.1209 21.1259 26.0777 21.1679 26.0474 21.2189C26.0171 21.2698 26.0007 21.3278 26 21.387V27.72C26 27.98 26.286 28.14 26.51 28.006V28.006Z" fill="white"/>
</svg>
