<svg width="32" height="32" viewBox="0 0 32 32" fill="none" xmlns="http://www.w3.org/2000/svg">
<path d="M16.1176 15.7538C13.0588 15.7538 10.2353 14.4 7.7647 12.1846C9.52941 16.4923 12.5882 19.3231 16.1176 19.3231C19.5294 19.3231 22.5882 16.4923 24.4706 12.1846C22 14.4 19.1765 15.7538 16.1176 15.7538Z" fill="#877AFF"/>
<path d="M12.5882 11.8154C14.0177 11.8154 15.1765 10.6031 15.1765 9.10769C15.1765 7.61227 14.0177 6.39999 12.5882 6.39999C11.1588 6.39999 10 7.61227 10 9.10769C10 10.6031 11.1588 11.8154 12.5882 11.8154Z" fill="#877AFF"/>
<path d="M19.6471 11.8154C21.0765 11.8154 22.2353 10.6031 22.2353 9.10769C22.2353 7.61227 21.0765 6.39999 19.6471 6.39999C18.2176 6.39999 17.0588 7.61227 17.0588 9.10769C17.0588 10.6031 18.2176 11.8154 19.6471 11.8154Z" fill="#877AFF"/>
<path d="M28.9412 24.4923C28.5882 24.2462 28.3529 23.8769 28.2353 23.6308C27.8824 23.1385 27.5294 22.4 27.4118 21.4154C27.0588 21.5385 26.8235 21.6615 26.4706 21.6615H22.2353H18.9412V25.1077V26.2154L11.6471 22.1538L10.9412 21.7846H10.1176H5.88235C4.47059 21.7846 3.17647 20.5538 3.17647 18.9538V6.15385C3.17647 4.67692 4.35294 3.32308 5.88235 3.32308H26.3529C27.1765 3.32308 27.8824 3.69231 28.3529 4.30769H32C31.4118 1.84615 29.0588 0 26.4706 0H5.88235C2.70588 0 0 2.83077 0 6.15385V18.8308C0 22.2769 2.70588 24.9846 5.88235 24.9846H10.1176L22.2353 32V25.1077H26.4706C27.4118 25.1077 28.2353 24.8615 28.9412 24.4923Z" fill="#877AFF"/>
</svg>
