<svg width="32" height="32" viewBox="0 0 32 32" fill="none" xmlns="http://www.w3.org/2000/svg">
<path d="M23.44 0L18.08 3.52V22.4C18.08 24.16 17.2 25.76 15.84 26.72C14.56 25.68 13.84 24.08 13.84 22.4V21.36C13.84 20.32 12.8 19.2 12.8 18.16C12.8 17.44 13.28 16.64 13.6 15.92C13.76 15.6 13.84 15.28 13.84 14.96C13.84 13.76 12.88 12.8 11.68 12.8C10.48 12.8 9.60001 13.76 9.60001 14.96C9.60001 15.28 9.68001 15.68 9.84001 15.92C10.16 16.64 10.64 17.44 10.64 18.16C10.64 19.2 9.60001 20.32 9.60001 21.36V22.4C9.60001 24.32 10.16 26.08 11.2 27.52C9.04001 26.8 7.44001 24.8 7.44001 22.4V21.36C7.44001 20.32 6.40001 19.2 6.40001 18.16C6.40001 17.44 6.88001 16.64 7.20001 15.92C7.36001 15.6 7.44001 15.28 7.44001 14.96C7.44001 13.76 6.48001 12.8 5.28001 12.8C4.16001 12.8 3.20001 13.76 3.20001 14.96C3.20001 15.28 3.28001 15.68 3.44001 15.92C3.76001 16.64 4.24001 17.44 4.24001 18.16C4.24001 19.2 3.20001 20.32 3.20001 21.36V22.4C3.20001 27.68 7.52001 32 12.8 32C18.08 32 22.4 27.68 22.4 22.4V5.6L23.44 4.88L24.56 5.6C24.56 5.6 24.56 22.08 24.56 22.16C24.56 25.68 23.52 29.28 19.44 31.76C23.6 31.76 28.72 27.12 28.8 21.12V3.52L23.44 0Z" fill="#FF6720"/>
<path d="M11.76 11.28C12.953 11.28 13.92 10.313 13.92 9.12002C13.92 7.92709 12.953 6.96002 11.76 6.96002C10.5671 6.96002 9.60004 7.92709 9.60004 9.12002C9.60004 10.313 10.5671 11.28 11.76 11.28Z" fill="#FF6720"/>
<path d="M11.76 5.52001C12.953 5.52001 13.92 4.55295 13.92 3.36001C13.92 2.16708 12.953 1.20001 11.76 1.20001C10.5671 1.20001 9.60004 2.16708 9.60004 3.36001C9.60004 4.55295 10.5671 5.52001 11.76 5.52001Z" fill="#FF6720"/>
<path d="M5.36001 11.36C6.55295 11.36 7.52001 10.3929 7.52001 9.19998C7.52001 8.00704 6.55295 7.03998 5.36001 7.03998C4.16708 7.03998 3.20001 8.00704 3.20001 9.19998C3.20001 10.3929 4.16708 11.36 5.36001 11.36Z" fill="#FF6720"/>
<path d="M5.36001 5.60003C6.55295 5.60003 7.52001 4.63296 7.52001 3.44003C7.52001 2.24709 6.55295 1.28003 5.36001 1.28003C4.16708 1.28003 3.20001 2.24709 3.20001 3.44003C3.20001 4.63296 4.16708 5.60003 5.36001 5.60003Z" fill="#FF6720"/>
</svg>
