<svg width="32" height="32" viewBox="0 0 32 32" fill="none" xmlns="http://www.w3.org/2000/svg">
<path d="M16.5158 22.0848C19.9449 22.0848 22.7248 19.3049 22.7248 15.8758C22.7248 12.4467 19.9449 9.66686 16.5158 9.66686C13.0867 9.66686 10.3069 12.4467 10.3069 15.8758C10.3069 19.3049 13.0867 22.0848 16.5158 22.0848Z" fill="#0095FF"/>
<path d="M29.249 5.73134C30.5678 5.73134 31.637 4.66217 31.637 3.34328C31.637 2.02439 30.5678 0.955223 29.249 0.955223C27.9301 0.955223 26.8609 2.02439 26.8609 3.34328C26.8609 4.66217 27.9301 5.73134 29.249 5.73134Z" fill="#B8CEE1"/>
<path d="M24.4776 30.3475C26.8516 30.3475 28.7761 28.423 28.7761 26.049C28.7761 23.675 26.8516 21.7505 24.4776 21.7505C22.1036 21.7505 20.1791 23.675 20.1791 26.049C20.1791 28.423 22.1036 30.3475 24.4776 30.3475Z" fill="#0D47A1"/>
<path d="M3.34328 24.4346C5.18973 24.4346 6.68657 22.9378 6.68657 21.0913C6.68657 19.2449 5.18973 17.7481 3.34328 17.7481C1.49684 17.7481 0 19.2449 0 21.0913C0 22.9378 1.49684 24.4346 3.34328 24.4346Z" fill="#F25900"/>
</svg>
