<svg width="60" height="60" viewBox="0 0 60 60" xmlns="http://www.w3.org/2000/svg"><title>userlike_general_logo_small_60x60</title><g fill="none" fill-rule="evenodd"><path d="M37.971 17v17.045c0 2.88-.32 3.984-.92 4.853-1.596 2.446-4.593 2.486-5.59 2.486-6.031 0-6.272-3.906-6.272-7.024v-7.777c-.992.635-2.22.96-3.692.96A9.913 9.913 0 0 1 19 27.215v6.829c0 2.644.079 4.853 1.477 7.022C23.195 45.368 28.466 46 31.34 46 37.173 46 44 43.277 44 34.795V17h-6.029z" fill="#3D3D3F"/><path d="M8.375 12.446c1.304 1.974 2.446 3.457 3.424 4.456 1.692 1.762 3.29 2.64 4.798 2.64.43 0 .777-.107 1.04-.319.247-.232.367-.56.367-.984 0-.212-.027-.476-.076-.797a4.755 4.755 0 0 1-.077-.667 4.79 4.79 0 0 1 1.314-3.36c.876-.944 2.06-1.415 3.547-1.415 1.57 0 2.842.495 3.822 1.482.976.986 1.466 2.275 1.466 3.865 0 1.952-.656 3.549-1.973 4.79-1.312 1.24-3.071 1.863-5.27 1.863-3.363 0-6.422-1.401-9.172-4.203-1.467-1.526-2.997-3.723-4.585-6.586l1.375-.765z" fill="#009DE0"/></g></svg>