<svg width="32" height="32" viewBox="0 0 32 32" fill="none" xmlns="http://www.w3.org/2000/svg">
<path d="M23.6821 1.3335H7.60392C3.40438 1.3335 0 4.70703 0 8.86854V23.7108C0 27.8723 3.40438 31.2459 7.60392 31.2459H23.6821C27.8817 31.2459 31.2861 27.8723 31.2861 23.7108V8.86854C31.2861 4.70703 27.8817 1.3335 23.6821 1.3335Z" fill="#FC527E"/>
<path d="M7.77165 26.0349C6.99784 25.1512 6.59928 24.0049 6.65948 22.8365C6.67832 21.9131 6.79173 20.9939 6.99796 20.0932L8.60579 12.7619C8.60579 12.6181 8.71459 12.2468 8.84756 11.6359C8.98183 10.9775 9.04665 10.3069 9.04099 9.63534C9.06221 9.30627 8.97756 8.97921 8.7992 8.70094C8.71979 8.60281 8.61825 8.52467 8.50276 8.47267C8.38727 8.42067 8.26107 8.39627 8.13432 8.40147C7.46848 8.45467 6.83535 8.70974 6.32099 9.13214C5.48576 9.76201 4.75555 10.5179 4.15708 11.3723C4.07113 11.512 3.95284 11.6295 3.81199 11.7148C3.67115 11.8003 3.51179 11.8512 3.34712 11.8635C3.22199 11.8593 3.09965 11.8257 2.99031 11.7652C2.88096 11.7048 2.78777 11.6193 2.71849 11.516C2.53559 11.2973 2.43705 11.0213 2.44045 10.7373C2.486 10.0779 2.73975 9.44921 3.16579 8.94054C4.93076 6.54462 6.98587 5.34668 9.35529 5.34668C9.80275 5.32748 10.2493 5.40183 10.6658 5.56489C11.0824 5.72793 11.4596 5.97603 11.7731 6.29306C12.425 7.07814 12.7455 8.0824 12.6677 9.09627C12.6718 9.8984 12.6112 10.6995 12.4863 11.4921C12.3654 12.2228 12.1599 13.2291 11.8698 14.4869L10.8543 19.1948L10.7334 20.0213C10.6488 20.4167 10.5763 20.788 10.5279 21.1355C10.4797 21.4808 10.4555 21.8289 10.4554 22.1776C10.428 22.656 10.5932 23.1256 10.9148 23.4833C11.0878 23.6516 11.2944 23.7823 11.5213 23.8668C11.7482 23.9515 11.9904 23.9881 12.2325 23.9745C12.8431 23.9271 13.4377 23.7571 13.9801 23.4749C14.5225 23.1928 15.0013 22.8044 15.3876 22.3333C16.7097 20.7712 17.7116 18.9687 18.3373 17.0265C19.3731 13.9808 20.0663 10.8312 20.4045 7.63467C20.4524 6.99774 20.6335 6.37766 20.9364 5.81389C21.1023 5.62142 21.3144 5.47337 21.5531 5.38335C21.7917 5.29334 22.0495 5.26426 22.3025 5.29877C22.5529 5.28026 22.8043 5.31927 23.0371 5.41277C23.2699 5.50627 23.4776 5.65174 23.6444 5.83784C23.9752 6.37603 24.1116 7.00961 24.0312 7.63467C24.0223 8.24907 23.9657 8.86187 23.862 9.46761C23.7532 10.2103 23.5839 11.2644 23.3663 12.6181C22.8908 15.2296 22.5201 17.6255 22.2541 19.8057C22.1416 20.5355 22.0771 21.2719 22.0607 22.0099C22.0217 22.5852 22.1935 23.1552 22.5443 23.6152C22.7035 23.7952 22.9009 23.9381 23.1225 24.0333C23.3441 24.1287 23.5843 24.174 23.8257 24.1661C24.4271 24.1537 25.0099 23.9569 25.494 23.6032C26.2113 23.0541 26.8607 22.4228 27.4281 21.7224C27.5096 21.6133 27.6151 21.5243 27.7367 21.4619C27.8581 21.3996 27.9925 21.3657 28.1293 21.3631C28.2363 21.3636 28.3411 21.3928 28.4327 21.4477C28.5241 21.5025 28.5989 21.5809 28.6492 21.6745C28.7935 21.9341 28.8605 22.2291 28.8425 22.5251C28.8757 23.0923 28.7044 23.6527 28.3591 24.1063C27.6247 25.0608 26.7189 25.8731 25.6873 26.5021C24.8489 26.9937 23.8932 27.2543 22.9191 27.2568C21.7213 27.3331 20.5412 26.9417 19.6308 26.1667C19.2523 25.7981 18.9556 25.3551 18.7599 24.8661C18.5641 24.3773 18.4737 23.8532 18.4945 23.3276C18.5553 22.0548 18.6925 20.7868 18.9055 19.5301C18.2643 21.6668 17.1444 23.6324 15.6295 25.2803C15.0455 25.9028 14.3383 26.3996 13.5521 26.7396C12.766 27.0797 11.9176 27.2557 11.0598 27.2568C10.4558 27.2944 9.85053 27.2051 9.28384 26.9944C8.71713 26.7839 8.2018 26.4569 7.77165 26.0349Z" fill="white"/>
</svg>
