<svg width="77" height="77" viewBox="0 0 77 77" fill="none" xmlns="http://www.w3.org/2000/svg">
<g clip-path="url(#clip0_105_17)">
<path d="M66.3 61.2L76.3 14H10L0 61.2H66.3Z" fill="white"/>
<path d="M49.3 23.9C57 25.7 57.2 27.6 57.2 27.6C62.2 27.6 63.5 27.6 64.4 28.5C67.3 31.2 62.4 37.8 62.4 37.8C61.8 38.2 6.6 59.8 6.6 59.8H64.7L74 15.9H11.6C11.6 15.9 48.4 23.7 49.3 23.9Z" fill="#333366"/>
<path d="M55 30.3C54.2 30.7 51.8 31.1 51 31.2C50.2 31.3 49.8 31.3 49.8 31.5C49.8 31.8 50.9 31.7 51.3 31.7C53.1 31.7 60.2 31.2 61.9 31.5C63.2 31.7 61.7 34.3 61.3 35.9C61.2 36.5 61.6 36.2 61.8 35.9C62.3 35.1 63.7 32.5 63.8 31.5C64 29.5 62.6 29.2 60.2 29.2H56.5C56.2 29.2 56.1 29.3 56 29.5C55.7 29.8 55.2 30.1 55 30.3Z" fill="#333366"/>
<path d="M32 45.1L2.3 59.8L9.5 26.1H39.5C40 26.1 55.6 26.1 55.9 29.2H28.9L33.1 42C37.9 39.7 49.7 34.9 56.8 34.6C59.8 34.5 61 35 60.4 35.4C60 35.6 57.1 36 54.8 36.6C50.8 37.6 50.6 37.6 46.4 39C41.7 40.6 37.8 42.4 32 45.1Z" fill="#333366"/>
</g>
<defs>
<clipPath id="clip0_105_17">
<rect width="76.3" height="76.3" fill="white"/>
</clipPath>
</defs>
</svg>
