<svg xmlns="http://www.w3.org/2000/svg" width="235.45" height="225.24" viewBox="0 0 235.45 225.24001"><defs><clipPath><path d="M0 250h250V0H0z"/></clipPath><clipPath id="a"><path d="M0 250h250V0H0z"/></clipPath></defs><g><g><g clip-path="url(#a)" transform="matrix(1.25 0 0 -1.25 -38.922 268.364)"><g><path fill="#00b4f0" d="M135.2 150.52c.05.5.1.94.1 1.47 0 5.22 1.24 10.6 13.98 10.6h42.6c19.23 0 27.62 9.08 27.62 27.25v15.46c0 5.2-4.1 9.4-9.3 9.4-5.17 0-9.32-4.2-9.32-9.4l-.03-5.36c0-5.85-3.74-9.96-12.5-9.96h-41.8c-19 0-20.46-14.1-21.08-21.58h-.42c-.63 7.47-2.1 21.58-21.1 21.58H62.18c-8.78 0-12.8 4.26-12.8 10.1v5.23c0 5.2-3.9 9.4-9.1 9.4-5.17 0-9.14-4.2-9.14-9.4v-15.45c0-18.17 8.27-27.26 27.5-27.26h42.6c12.74 0 14-5.38 14-10.6 0-.54.03-1.02.1-1.5.3-5.24 4.62-9.37 9.92-9.37s9.63 4.16 9.93 9.4"/></g><g><path fill="#00b4f0" d="M124.78 34.5c4.5 0 8.36 2.68 10.1 6.52.1.15.18.3.27.46l38.8 71.76c1.1 1.9 1.65 4.02 1.65 6.17 0 6.87-5.58 12.46-12.44 12.46-5.52 0-9.26-2.7-11.8-8.5L124.8 73.83l-26.55 49.5c-2.56 5.84-6.3 8.54-11.83 8.54-6.86 0-12.44-5.6-12.44-12.45 0-2.14.57-4.27 1.64-6.15l38.8-71.76c.07-.12.13-.22.18-.32 1.72-3.93 5.63-6.68 10.2-6.68"/></g></g></g></g></svg>