<svg xmlns="http://www.w3.org/2000/svg" viewBox="0 0 257 257" height="257" width="257"><path d="M139.848 80.757c11.253 31.154 45.644 47.287 76.79 36.03 31.164-11.255 47.29-45.638 36.04-76.795-11.263-31.15-45.636-47.287-76.8-36.033-31.15 11.255-47.286 45.64-36.03 76.798M63.506 191.985c-11.771 20.827-4.431 47.251 16.392 59.022 20.828 11.778 47.264 4.433 59.032-16.392 11.767-20.83 4.43-47.256-16.4-59.03-20.824-11.771-47.26-4.429-59.024 16.4M1.239 107.904c-2.736 13.574 6.049 26.802 19.622 29.544 13.574 2.74 26.808-6.043 29.54-19.615 2.748-13.58-6.037-26.81-19.615-29.55C17.21 85.54 3.983 94.328 1.24 107.903" fill="#2d79bd"/></svg>