<svg width="32" height="32" viewBox="0 0 32 32" fill="none" xmlns="http://www.w3.org/2000/svg">
<path d="M24.671 0.516113H7.69031C3.71611 0.516113 0.516113 3.71611 0.516113 7.63869V24.6193C0.516113 28.5935 3.71611 31.7935 7.69031 31.7935H24.671C28.6451 31.7935 31.8451 28.5935 31.8451 24.6193V7.63869C31.8451 3.71611 28.6451 0.516113 24.671 0.516113Z" fill="#0DDAF5"/>
<path d="M25.342 12.6969L25.084 12.4904C24.0001 11.7162 22.4517 11.9227 21.6775 13.0065L14.0388 23.0711C13.2646 24.1549 13.4711 25.7033 14.555 26.4775L14.813 26.684C15.8969 27.4582 17.4453 27.2517 18.2195 26.1678L25.8582 16.1033C26.684 14.9678 26.4259 13.4711 25.342 12.6969ZM13.9872 17.2388L10.684 13.0065C9.90979 11.9227 8.3614 11.6646 7.27753 12.4904L7.01947 12.6969C5.9356 13.4711 5.67753 15.0194 6.50334 16.1033L10.013 20.542L11.9227 22.8646L13.5743 20.6969C14.4517 19.5614 14.813 18.3227 13.9872 17.2388ZM16.155 11.7678C17.9614 11.7678 19.4582 10.2711 19.4582 8.4646C19.4582 6.65815 17.9614 5.16138 16.155 5.16138C14.3485 5.16138 12.8517 6.65815 12.8517 8.4646C12.8517 10.2711 14.3485 11.7678 16.155 11.7678Z" fill="white"/>
</svg>
