<svg width="32" height="32" viewBox="0 0 32 32" fill="none" xmlns="http://www.w3.org/2000/svg">
<path d="M12.1061 14.9865C12.0528 14.0265 11.9461 13.0665 11.7328 12.1065C10.5594 11.6799 9.27944 11.2532 7.7861 10.8799C11.0394 16.1065 10.8261 22.1332 7.09277 28.9065C8.15944 27.5732 9.54611 25.5465 10.6128 22.9865C11.6794 20.3199 12.2128 17.6532 12.1061 14.9865Z" fill="#FFCC12"/>
<path d="M15.8929 12.2668C16.0529 10.6135 15.9995 9.01345 15.7862 7.41345C12.5862 5.97345 9.27952 5.12012 9.27952 5.12012C15.1462 14.0801 12.1062 22.1868 9.17285 26.8268C10.3462 25.3868 11.6262 23.6268 12.7462 21.6535C14.5062 18.4535 15.5729 15.3068 15.8929 12.2668Z" fill="#23B3E8"/>
<path d="M14.0795 1.06641C14.0795 1.06641 21.6529 3.94641 25.7062 7.83974C25.7062 7.83974 25.0129 21.9731 5.86621 30.9864C5.86621 30.9864 22.5062 16.5864 14.0795 1.06641Z" fill="#C52B87"/>
<path d="M5.86621 30.9867C14.9862 26.72 19.9462 21.2267 22.6129 16.6934C19.5195 16.7467 17.0129 17.12 15.0929 17.6C12.2662 25.4934 5.86621 30.9867 5.86621 30.9867Z" fill="#B2267B"/>
<path d="M11.8394 18.7197C10.9328 19.1464 10.2928 19.5197 10.0261 19.7331C9.86611 22.6131 8.85277 25.7064 7.09277 28.9597C8.15944 27.6264 9.54611 25.5997 10.6128 23.0397C11.1994 21.5997 11.6261 20.1597 11.8394 18.7197Z" fill="#F9BA19"/>
<path d="M14.5595 17.7598C13.7062 17.9731 13.0129 18.2398 12.3729 18.5064C11.8395 21.8131 10.5062 24.6931 9.17285 26.8264C10.3462 25.3864 11.6262 23.6264 12.7462 21.6531C13.4395 20.3198 14.0795 19.0398 14.5595 17.7598Z" fill="#4BA7DD"/>
</svg>
