<svg width="32" height="32" viewBox="0 0 32 32" fill="none" xmlns="http://www.w3.org/2000/svg">
<path fill-rule="evenodd" clip-rule="evenodd" d="M20.6494 16.3056C20.9223 16.6992 21.0739 17.1829 21.0739 17.6975C21.0739 17.9392 21.0436 18.1513 20.983 18.363C21.8623 18.8468 22.7417 19.3308 23.5907 19.7846C23.8029 19.6031 24.0758 19.4518 24.3791 19.3913C24.5913 17.4249 24.7126 15.4286 24.7732 13.4317C24.7732 12.9476 24.8036 12.4636 24.8036 11.9796C24.7429 11.9496 24.6823 11.9496 24.652 11.9191C23.2875 13.4014 21.9836 14.8535 20.6494 16.3056Z" fill="#1945ED"/>
<mask id="mask0" style="mask-type:alpha" maskUnits="userSpaceOnUse" x="0" y="0" width="32" height="32">
<path d="M0 0H31.9597V31.8856H0V0Z" fill="white"/>
</mask>
<g mask="url(#mask0)">
<path fill-rule="evenodd" clip-rule="evenodd" d="M25.9862 11.9193C26.0165 13.6739 25.8952 15.4588 25.774 17.2134C25.7133 18.0302 25.6527 18.8167 25.5617 19.6335C26.0772 19.9361 26.441 20.4806 26.441 21.1159C26.441 22.0537 25.683 22.8403 24.7127 22.8403C24.3185 22.8403 23.9546 22.689 23.6817 22.4772C23.4695 22.568 23.2572 22.6587 23.0753 22.7495C21.7108 23.3848 20.3159 23.9898 18.9211 24.5344C17.5869 25.0789 16.1921 25.6839 14.7973 26.0772C14.6457 26.5613 14.1908 26.9243 13.645 26.9243C13.0083 26.9243 12.4928 26.4402 12.4625 25.805C11.7347 25.3512 11.0373 24.8066 10.3702 24.2621C9.55152 23.5663 8.76314 22.8705 7.97476 22.1445C7.76251 21.9327 7.55025 21.7512 7.338 21.5394C7.24703 21.5697 7.18638 21.5999 7.09542 21.5999C6.42833 21.5999 5.88253 21.0554 5.88253 20.3898C5.88253 20.0571 6.00381 19.7546 6.21607 19.5428C6.18575 19.3613 6.15543 19.1798 6.1251 19.0285C5.94317 17.9999 5.82188 17.0016 5.70059 15.9731C5.60963 15.005 5.48834 14.0369 5.48834 13.0386V12.8268C5.18511 12.6151 4.97286 12.2823 4.97286 11.8588C4.97286 11.1932 5.51866 10.6487 6.18575 10.6487C6.33736 10.6487 6.48897 10.679 6.61026 10.7395C6.79219 10.6185 7.00445 10.4974 7.18638 10.3764C8.00509 9.86215 8.82379 9.37812 9.64249 8.92434C11.2193 8.04703 12.8263 7.13947 14.4941 6.44368C14.5547 5.68738 15.1915 5.08234 15.9798 5.08234C16.7076 5.08234 17.314 5.62687 17.4353 6.32267C17.7689 6.44368 18.0721 6.56468 18.4056 6.65544C20.3463 7.35124 22.2869 8.16804 24.1365 9.0756C24.1365 9.0756 24.1669 9.0756 24.1669 9.10585C24.4701 8.89409 24.8036 8.74283 25.1978 8.74283C26.1378 8.74283 26.9262 9.49913 26.9262 10.4672C26.9565 11.0722 26.5623 11.647 25.9862 11.9193ZM15.9798 0C7.15606 0 0 7.13947 0 15.9428C0 24.7461 7.15606 31.8856 15.9798 31.8856C24.8036 31.8856 31.9597 24.7461 31.9597 15.9428C31.9597 7.13947 24.8036 0 15.9798 0Z" fill="#1945ED"/>
</g>
<path fill-rule="evenodd" clip-rule="evenodd" d="M22.9841 21.0857C22.9841 20.9947 22.9841 20.9345 23.0145 20.8434C22.1351 20.3597 21.2558 19.8757 20.4067 19.4219C19.9519 19.9059 19.2848 20.2084 18.5874 20.2084C18.3145 20.2084 18.0719 20.1476 17.8294 20.0871C16.859 21.6303 15.919 23.1728 14.9487 24.716C15.0094 24.6854 15.07 24.6854 15.1307 24.6555C17.0106 23.9899 18.8603 23.2336 20.6796 22.4471C21.468 22.114 22.2564 21.751 23.0448 21.3577C23.0145 21.2972 22.9841 21.2064 22.9841 21.0857Z" fill="#1945ED"/>
<path fill-rule="evenodd" clip-rule="evenodd" d="M9.61226 17.153C9.1271 18.03 8.61162 18.877 8.12646 19.7546C8.21743 19.9358 8.3084 20.1177 8.3084 20.3597C8.3084 20.4807 8.27808 20.6014 8.24775 20.7227C9.46065 21.9627 10.7948 23.1429 12.1897 24.1711C12.2806 24.2622 12.4019 24.3224 12.4929 24.4134C11.5226 21.9627 10.5826 19.5426 9.61226 17.153Z" fill="#1945ED"/>
<path fill-rule="evenodd" clip-rule="evenodd" d="M16.0708 17.7881C14.2818 17.3948 12.4928 17.0016 10.7037 16.6083C11.7347 19.2099 12.7353 21.7814 13.7663 24.383C14.7669 22.7494 15.7979 21.1158 16.7985 19.4822C16.3437 19.0284 16.0708 18.4536 16.0708 17.7881Z" fill="#1945ED"/>
<path fill-rule="evenodd" clip-rule="evenodd" d="M10.8553 15.3983C12.6746 15.7916 14.4939 16.2151 16.3133 16.6084C16.5559 16.1243 16.9501 15.7311 17.4352 15.4588C16.8591 12.9479 16.283 10.4672 15.7372 7.9563L10.825 15.2168C10.825 15.3075 10.8553 15.3378 10.8553 15.3983Z" fill="#1945ED"/>
<path fill-rule="evenodd" clip-rule="evenodd" d="M8.49019 15.7612C8.49019 15.6401 8.52051 15.4889 8.58115 15.3679C7.94439 14.6721 7.33794 13.946 6.70117 13.2502V13.341C6.73149 14.3696 6.85278 15.3679 6.97407 16.3968C7.06504 17.183 7.18633 17.9393 7.30762 18.6956C7.76245 17.9093 8.21729 17.1225 8.67212 16.3359C8.58115 16.1847 8.49019 16.0032 8.49019 15.7612Z" fill="#1945ED"/>
<path fill-rule="evenodd" clip-rule="evenodd" d="M16.8895 7.68399C17.4656 10.1949 18.0418 12.6756 18.6179 15.1865C19.0424 15.1865 19.4366 15.3075 19.7701 15.489C21.1043 14.0369 22.4082 12.5848 23.7424 11.1327C23.6211 10.8907 23.5604 10.6487 23.5604 10.3462C23.5604 10.2252 23.5604 10.1041 23.5908 10.0134C22.1959 9.28735 20.7405 8.71256 19.285 8.13777C18.5876 7.8655 17.8902 7.62349 17.1928 7.38147C17.1018 7.50248 17.0108 7.62349 16.8895 7.68399Z" fill="#1945ED"/>
<path fill-rule="evenodd" clip-rule="evenodd" d="M7.42898 11.7982C7.42898 11.9192 7.39866 12.0705 7.33801 12.1915C8.06575 13.0083 8.76316 13.7949 9.4909 14.6117C9.58186 14.5814 9.64251 14.5512 9.73348 14.5512C9.7638 14.5512 9.79412 14.5512 9.82444 14.5814C11.3709 12.2823 12.9476 9.98311 14.4941 7.68396C13.1902 8.25875 11.947 8.9848 10.7341 9.65034C9.85476 10.1344 9.00574 10.6184 8.15671 11.1629C7.91414 11.3142 7.64124 11.4655 7.39866 11.647C7.39866 11.6772 7.42898 11.7377 7.42898 11.7982Z" fill="#1945ED"/>
<path fill-rule="evenodd" clip-rule="evenodd" d="M15.1307 24.6554C15.07 24.6857 15.0094 24.6857 14.9487 24.7159C15.919 23.1731 16.859 21.6302 17.8293 20.087C18.0719 20.1479 18.3145 20.2084 18.5874 20.2084C19.3151 20.2084 19.9519 19.9058 20.4067 19.4218C21.2861 19.9058 22.1654 20.3896 23.0144 20.8433C23.0144 20.9344 22.9841 20.9946 22.9841 21.0857C22.9841 21.1764 22.9841 21.2971 23.0144 21.3882C22.2564 21.7815 21.468 22.1142 20.6493 22.4773C18.8603 23.2635 17.0106 24.0198 15.1307 24.6554ZM8.21717 20.6921C8.24749 20.5714 8.27781 20.4504 8.27781 20.3294C8.27781 20.1176 8.21717 19.9058 8.09588 19.7243C8.58103 18.847 9.09651 18 9.58167 17.1227C10.5217 19.5428 11.492 21.9327 12.432 24.3529C12.341 24.2621 12.2197 24.2016 12.1287 24.1109C10.7642 23.1122 9.43006 21.9327 8.21717 20.6921ZM10.7339 9.65041C11.9468 8.98486 13.19 8.25881 14.4939 7.68403C12.9171 9.98318 11.3707 12.2823 9.79393 14.5815C9.7636 14.5815 9.73328 14.5512 9.70296 14.5512C9.61199 14.5512 9.55135 14.5815 9.46038 14.6117C8.73265 13.7949 8.03523 13.0084 7.3075 12.1916C7.33782 12.0706 7.39846 11.9496 7.39846 11.7983C7.39846 11.7378 7.36814 11.6773 7.36814 11.6168C7.61072 11.4655 7.88362 11.284 8.1262 11.1328C9.00555 10.6185 9.85457 10.1344 10.7339 9.65041ZM19.2545 8.16806C20.71 8.74285 22.1654 9.31763 23.5603 10.0437C23.5299 10.1647 23.5299 10.2554 23.5299 10.3765C23.5299 10.6487 23.5906 10.921 23.7119 11.163C22.3777 12.6151 21.0738 14.0672 19.7396 15.5193C19.4061 15.3378 19.0119 15.2168 18.5874 15.2168C18.0113 12.7059 17.4351 10.2252 16.859 7.71428C16.9803 7.62352 17.0713 7.53277 17.1319 7.44201C17.89 7.65377 18.5874 7.89579 19.2545 8.16806ZM15.7068 7.98655C16.2829 10.4975 16.859 12.9781 17.4048 15.489C16.9197 15.7311 16.5255 16.1243 16.2829 16.6386C14.4636 16.2453 12.6442 15.8218 10.8249 15.4285C10.7946 15.368 10.7946 15.3075 10.7642 15.2773C12.432 12.8269 14.0694 10.4067 15.7068 7.98655ZM7.3075 18.7257C7.15589 17.9694 7.06492 17.1832 6.97395 16.4269C6.85266 15.4285 6.7617 14.4 6.70105 13.3714V13.2806C7.33782 13.9764 7.94427 14.7025 8.58103 15.3983C8.55071 15.5193 8.49007 15.6403 8.49007 15.7916C8.49007 16.0033 8.55071 16.2151 8.672 16.3966C8.21717 17.1529 7.76233 17.9395 7.3075 18.7257ZM13.7661 24.3529C12.7352 21.7509 11.7346 19.1795 10.7036 16.5781C12.4926 16.9714 14.2816 17.3644 16.0706 17.7579C16.101 18.4232 16.3739 18.9983 16.7984 19.4521C15.7674 21.1159 14.7668 22.7193 13.7661 24.3529ZM24.7731 13.4622C24.7125 15.4588 24.5912 17.4252 24.379 19.4218C24.0757 19.482 23.8332 19.6033 23.5906 19.8151C22.7112 19.3307 21.8622 18.847 20.9829 18.3932C21.0435 18.1815 21.0738 17.9694 21.0738 17.7277C21.0738 17.2131 20.9222 16.7294 20.6493 16.3361C21.9835 14.884 23.2873 13.4319 24.6215 11.9798C24.6822 12.0101 24.7428 12.0101 24.7731 12.0403V13.4622ZM25.2583 8.68234C24.8641 8.68234 24.5002 8.8336 24.2273 9.04537C24.2273 9.04537 24.197 9.04537 24.197 9.01511C22.3474 8.0773 20.4067 7.29075 18.4661 6.59495C18.1629 6.47395 17.8293 6.35294 17.4958 6.26218C17.3745 5.56639 16.7681 5.02185 16.0403 5.02185C15.2519 5.02185 14.6152 5.62689 14.5545 6.38319C12.8868 7.07899 11.2797 7.98655 9.70296 8.86385C8.88426 9.34789 8.03523 9.83192 7.24685 10.316C7.06492 10.437 6.88299 10.558 6.67073 10.679C6.54944 10.6185 6.39783 10.5882 6.24622 10.5882C5.57913 10.5882 5.03333 11.1328 5.03333 11.7983C5.03333 12.1916 5.24558 12.5243 5.5488 12.7664V12.9781C5.5488 13.9462 5.67009 14.9445 5.76106 15.9126C5.88235 16.9411 6.00364 17.9694 6.18557 18.968C6.21589 19.1193 6.24622 19.3008 6.27654 19.482C6.06428 19.6941 5.94299 19.9966 5.94299 20.3294C5.94299 20.9946 6.4888 21.5394 7.15589 21.5394C7.24685 21.5394 7.3075 21.5092 7.39846 21.4789C7.61072 21.6907 7.82298 21.9022 8.03523 22.084C8.79329 22.8097 9.61199 23.5361 10.4307 24.2016C11.0978 24.7462 11.7952 25.2907 12.5229 25.7445C12.5836 26.3798 13.0687 26.8638 13.7055 26.8638C14.2513 26.8638 14.7061 26.5008 14.8578 26.0167C16.2526 25.6235 17.6474 25.0184 18.9816 24.4736C20.3764 23.8991 21.7712 23.3243 23.1357 22.689C23.3177 22.5983 23.5299 22.5072 23.7422 22.4168C24.0454 22.6285 24.379 22.7798 24.7731 22.7798C25.7131 22.7798 26.5015 22.0235 26.5015 21.0554C26.5015 20.4201 26.1376 19.8756 25.6222 19.5731C25.7131 18.7563 25.7738 17.9694 25.8344 17.1529C25.9557 15.3983 26.077 13.6437 26.0467 11.8588C26.6228 11.5865 27.017 11.0117 27.017 10.316C26.9563 9.43864 26.1983 8.68234 25.2583 8.68234Z" fill="white"/>
</svg>
