<?xml version="1.0" encoding="UTF-8" standalone="no"?>
<svg width="128px" height="128px" viewBox="0 0 128 128" version="1.1" xmlns="http://www.w3.org/2000/svg" xmlns:xlink="http://www.w3.org/1999/xlink">
  <title>Group 2</title>
  <desc>Created with Sketch.</desc>
  <defs>
    <style>.cls-1{fill:url(#linear-gradient);}.cls-2{fill:#fff;}</style>
    <linearGradient id="linear-gradient" x1="-1822.87" y1="-81.34" x2="-1822.46" y2="-81.45" gradientTransform="translate(370240.8 22506.21) scale(203.1 275.68)" gradientUnits="userSpaceOnUse"><stop offset="0" stop-color="#107abd"/><stop offset="1" stop-color="#0658a5"/></linearGradient>
  </defs>
  <path id="Shape" class="cls-1" d="M62.46,124.71c-6.59-4.52-13.07-9-19.74-13.51,4-5.66,8-11.15,11.8-16.44-4.11-1.71-8.34-2.93-12-5.17-14.29-8.75-22-21.41-20.76-38.42,1.26-17.67,10.7-30.08,27.07-36,27.6-9.93,50.88,9.4,54.71,30.73,1.67,9.28.77,18.4-4.23,26.5s-10.66,16-16.2,23.89c-6.35,9-12.9,17.79-19.33,26.66C63.43,123.45,63.07,123.94,62.46,124.71Z"/>
  <g id="Fill-1">
    <path id="path-2" d="M66.2,2.63l11.6,6.7c-2,3.31-10.13,17.23-12,20.32A51.6,51.6,0,0,1,72.68,32c8.35,4.26,13.14,11,13.19,20.54.06,9.91-4.7,17.26-13.56,21.21A22.91,22.91,0,0,1,40.48,59c-1.34-5.09-1.23-10.25,1.26-15s5.27-9.37,8-14"/>
    <path id="path-2-2" data-name="path-2" class="cls-2" d="M65.4,2.64,77,9.33c-2,3.31-10.13,17.23-12,20.32A51.6,51.6,0,0,1,71.87,32c8.35,4.26,13.14,11,13.19,20.54.06,9.91-4.7,17.26-13.56,21.21A22.91,22.91,0,0,1,39.68,59c-1.34-5.09-1.23-10.25,1.26-15s5.27-9.37,8-14"/>
  </g>
</svg>
