<svg width="32" height="32" viewBox="0 0 32 32" fill="none" xmlns="http://www.w3.org/2000/svg">
<path d="M16.5612 14.9169C16.5612 13.8732 16.4628 13.2431 15.3305 13.1052L3.02277 11.8154C1.17662 11.6529 0.984619 12.6129 0.984619 14.3754V24.64C0.984619 26.3631 1.58523 26.8258 2.95385 26.6092L15.4338 24.7778C16.3889 24.5465 16.5908 24.1723 16.5908 23.0695L16.5612 14.9169ZM14.7692 23.6209L3.90893 24.6055C3.24431 24.6942 3.02277 24.3692 3.04247 23.6702V14.7052C3.04247 13.8683 3.264 13.5631 4.37169 13.632L14.6215 14.3015C15.3945 14.3508 15.5077 14.6658 15.5175 15.4142V22.5231C15.5175 23.2123 15.3354 23.5471 14.7397 23.616" fill="#1D71B8"/>
<path d="M31.8425 6.21293C31.8181 5.88223 31.677 5.57096 31.4443 5.3347C31.2116 5.09843 30.9026 4.95254 30.5723 4.92308C30.1398 4.95402 29.7121 5.03328 29.2972 5.15939L14.2572 8.40862C12.5046 8.90093 12.3668 9.11262 12.3668 11.52V12.9625L13.2381 13.0215V11.5299L13.2726 10.1908C13.2726 9.73293 13.3711 9.63939 14.0849 9.50154L29.1495 7.08923C29.7501 6.97108 29.8043 7.38462 29.8043 8.01477V20.1108C29.8043 21.504 29.8043 22.6019 29.5877 22.8923C29.5631 22.9219 29.4892 23.0105 29.2037 23.0105C28.9181 23.0105 20.4209 21.1545 16.2265 20.2437V21.44L28.9526 24.9157C29.4369 25.0923 29.9444 25.1968 30.4591 25.2259C30.6455 25.2344 30.8313 25.1997 31.0021 25.1246C31.1729 25.0494 31.324 24.9358 31.4437 24.7926C31.936 24.192 31.936 23.1188 31.936 21.1643V9.216C31.9816 8.21581 31.952 7.2136 31.8474 6.21785L31.8425 6.21293Z" fill="#3AAA35"/>
</svg>
