<svg width="32" height="32" viewBox="0 0 32 32" fill="none" xmlns="http://www.w3.org/2000/svg">
<path fill-rule="evenodd" clip-rule="evenodd" d="M24.7273 16C24.7273 11.18 20.82 7.27274 16 7.27274C11.18 7.27274 7.27272 11.18 7.27272 16C7.27272 20.82 11.18 24.7273 16 24.7273C20.82 24.7273 24.7273 20.82 24.7273 16ZM10.9091 16C10.9091 13.1884 13.1884 10.9091 16 10.9091C18.8116 10.9091 21.0909 13.1884 21.0909 16C21.0909 18.8116 18.8116 21.0909 16 21.0909C13.1884 21.0909 10.9091 18.8116 10.9091 16Z" fill="#FF7043"/>
<path fill-rule="evenodd" clip-rule="evenodd" d="M32 16C32 7.16345 24.8365 0 16 0C7.16345 0 0 7.16345 0 16C0 24.8365 7.16345 32 16 32C24.8365 32 32 24.8365 32 16ZM3.63636 16C3.63636 9.17182 9.17182 3.63636 16 3.63636C22.8282 3.63636 28.3636 9.17182 28.3636 16C28.3636 22.8282 22.8282 28.3636 16 28.3636C9.17182 28.3636 3.63636 22.8282 3.63636 16Z" fill="#FF7043"/>
</svg>
