<svg width="750" height="750" viewBox="0 0 750 750" fill="none" xmlns="http://www.w3.org/2000/svg">
<g clip-path="url(#clip0)">
<path d="M710 -108H40C17.9086 -108 0 -58.4947 0 2.57324V1083.43C0 1144.49 17.9086 1194 40 1194H710C732.091 1194 750 1144.49 750 1083.43V2.57324C750 -58.4947 732.091 -108 710 -108Z" fill="#0E4595"/>
<path d="M278 473.763L311.36 278.003H364.72L331.33 473.763H278Z" fill="white"/>
<path d="M524.11 282.223C508.779 276.674 492.584 273.891 476.28 274.003C423.56 274.003 386.42 300.553 386.1 338.603C385.81 366.733 412.62 382.423 432.86 391.783C453.63 401.383 460.61 407.503 460.51 416.073C460.38 429.193 443.93 435.183 428.59 435.183C407.23 435.183 395.89 432.183 378.36 424.913L371.49 421.803L364 465.623C376.46 471.083 399.51 475.823 423.44 476.063C479.52 476.063 515.94 449.823 516.35 409.183C516.55 386.913 502.35 369.973 471.55 355.993C452.9 346.943 441.48 340.903 441.6 331.733C441.6 323.593 451.27 314.893 472.16 314.893C485.847 314.587 499.447 317.141 512.09 322.393L516.87 324.653L524.11 282.223Z" fill="white"/>
<path d="M661.41 278.003H620.18C607.41 278.003 597.85 281.483 592.24 294.233L513 473.633H569C569 473.633 578.16 449.513 580.23 444.213C586.36 444.213 640.79 444.303 648.57 444.303C650.16 451.153 655.06 473.633 655.06 473.633H704.6L661.41 278.003ZM596 404.403C600.41 393.123 617.26 349.683 617.26 349.683C616.94 350.203 621.64 338.353 624.33 331.003L627.94 347.873C627.94 347.873 638.16 394.603 640.29 404.403H596Z" fill="white"/>
<path d="M45.68 277.993L45 282.073C64.7017 286.712 83.6819 294.005 101.42 303.753L148.8 473.453L205.26 473.383L289.26 277.993H232.7L180.46 411.533L174.9 384.403C174.64 383.573 174.36 382.743 174.07 381.913L155.91 294.533C152.68 282.143 143.31 278.443 131.72 278.003L45.68 277.993Z" fill="white"/>
</g>
<defs>
<clipPath id="clip0">
<rect width="750" height="750" fill="white"/>
</clipPath>
</defs>
</svg>
