<svg width="32" height="32" viewBox="0 0 32 32" fill="none" xmlns="http://www.w3.org/2000/svg">
<g opacity="0.99">
<path opacity="0.99" d="M22.5408 26.1119C26.443 26.1119 29.6064 22.9485 29.6064 19.0463C29.6064 15.1441 26.443 11.9807 22.5408 11.9807C18.6386 11.9807 15.4752 15.1441 15.4752 19.0463C15.4752 22.9485 18.6386 26.1119 22.5408 26.1119Z" fill="url(#paint0_linear_2766_41)"/>
</g>
<g opacity="0.87">
<path opacity="0.87" d="M15.2192 28.4928C18.3155 28.4928 20.8256 25.9827 20.8256 22.8864C20.8256 19.79 18.3155 17.28 15.2192 17.28C12.1229 17.28 9.61279 19.79 9.61279 22.8864C9.61279 25.9827 12.1229 28.4928 15.2192 28.4928Z" fill="url(#paint1_linear_2766_41)"/>
</g>
<g opacity="0.85">
<path opacity="0.85" d="M30.3744 15.2192C31.1308 15.2192 31.744 14.606 31.744 13.8496C31.744 13.0932 31.1308 12.48 30.3744 12.48C29.618 12.48 29.0048 13.0932 29.0048 13.8496C29.0048 14.606 29.618 15.2192 30.3744 15.2192Z" fill="url(#paint2_linear_2766_41)"/>
</g>
<path d="M8.07679 25.5104C11.6538 25.5104 14.5536 22.6106 14.5536 19.0336C14.5536 15.4565 11.6538 12.5568 8.07679 12.5568C4.49975 12.5568 1.59999 15.4565 1.59999 19.0336C1.59999 22.6106 4.49975 25.5104 8.07679 25.5104Z" fill="url(#paint3_linear_2766_41)"/>
<g opacity="0.8">
<path opacity="0.8" d="M14.8608 22.5279C18.4661 22.5279 21.3888 19.6052 21.3888 15.9999C21.3888 12.3946 18.4661 9.47192 14.8608 9.47192C11.2555 9.47192 8.33279 12.3946 8.33279 15.9999C8.33279 19.6052 11.2555 22.5279 14.8608 22.5279Z" fill="url(#paint4_linear_2766_41)"/>
</g>
<path d="M21.1584 15.7696C25.1242 15.7696 28.3392 12.5546 28.3392 8.58876C28.3392 4.62291 25.1242 1.40796 21.1584 1.40796C17.1926 1.40796 13.9776 4.62291 13.9776 8.58876C13.9776 12.5546 17.1926 15.7696 21.1584 15.7696Z" fill="url(#paint5_linear_2766_41)"/>
<path d="M9.8304 29.8623C10.5727 29.8623 11.1744 29.2606 11.1744 28.5183C11.1744 27.776 10.5727 27.1743 9.8304 27.1743C9.08813 27.1743 8.4864 27.776 8.4864 28.5183C8.4864 29.2606 9.08813 29.8623 9.8304 29.8623Z" fill="url(#paint6_linear_2766_41)"/>
<path d="M29.1072 11.0208C29.4465 11.0208 29.7216 10.7457 29.7216 10.4064C29.7216 10.0671 29.4465 9.79199 29.1072 9.79199C28.7679 9.79199 28.4928 10.0671 28.4928 10.4064C28.4928 10.7457 28.7679 11.0208 29.1072 11.0208Z" fill="url(#paint7_linear_2766_41)"/>
<path d="M2.7392 29.0431C3.75717 29.0431 4.5824 28.2179 4.5824 27.2C4.5824 26.182 3.75717 25.3568 2.7392 25.3568C1.72123 25.3568 0.895996 26.182 0.895996 27.2C0.895996 28.2179 1.72123 29.0431 2.7392 29.0431Z" fill="url(#paint8_linear_2766_41)"/>
<g opacity="0.89">
<path opacity="0.89" d="M13.9136 3.60954C14.6983 3.60954 15.3344 2.97343 15.3344 2.18874C15.3344 1.40406 14.6983 0.767944 13.9136 0.767944C13.1289 0.767944 12.4928 1.40406 12.4928 2.18874C12.4928 2.97343 13.1289 3.60954 13.9136 3.60954Z" fill="url(#paint9_linear_2766_41)"/>
</g>
<path d="M1.5616 24.2559C1.83023 24.2559 2.048 24.0382 2.048 23.7695C2.048 23.5009 1.83023 23.2831 1.5616 23.2831C1.29296 23.2831 1.0752 23.5009 1.0752 23.7695C1.0752 24.0382 1.29296 24.2559 1.5616 24.2559Z" fill="url(#paint10_linear_2766_41)"/>
<g opacity="0.82">
<path opacity="0.82" d="M17.536 17.8047C21.0353 17.8047 23.872 14.968 23.872 11.4687C23.872 7.96941 21.0353 5.13269 17.536 5.13269C14.0367 5.13269 11.2 7.96941 11.2 11.4687C11.2 14.968 14.0367 17.8047 17.536 17.8047Z" fill="url(#paint11_linear_2766_41)"/>
</g>
<g opacity="0.77">
<path opacity="0.77" d="M10.7136 13.5168C13.4847 13.5168 15.7312 11.2703 15.7312 8.49917C15.7312 5.72802 13.4847 3.48157 10.7136 3.48157C7.94245 3.48157 5.696 5.72802 5.696 8.49917C5.696 11.2703 7.94245 13.5168 10.7136 13.5168Z" fill="url(#paint12_linear_2766_41)"/>
</g>
<g opacity="0.85">
<path opacity="0.85" d="M5.7856 31.1168C6.2451 31.1168 6.6176 30.7443 6.6176 30.2848C6.6176 29.8253 6.2451 29.4528 5.7856 29.4528C5.3261 29.4528 4.9536 29.8253 4.9536 30.2848C4.9536 30.7443 5.3261 31.1168 5.7856 31.1168Z" fill="url(#paint13_linear_2766_41)"/>
</g>
<g opacity="0.85">
<path opacity="0.85" d="M6.8608 19.6351C10.5085 19.6351 13.4656 16.6781 13.4656 13.0303C13.4656 9.3826 10.5085 6.42554 6.8608 6.42554C3.21307 6.42554 0.255997 9.3826 0.255997 13.0303C0.255997 16.6781 3.21307 19.6351 6.8608 19.6351Z" fill="url(#paint14_linear_2766_41)"/>
</g>
<defs>
<linearGradient id="paint0_linear_2766_41" x1="16.9097" y1="14.4364" x2="27.8444" y2="23.3941" gradientUnits="userSpaceOnUse">
<stop stop-color="#E61E1D"/>
<stop offset="1" stop-color="#F2B900"/>
</linearGradient>
<linearGradient id="paint1_linear_2766_41" x1="14.8227" y1="28.4802" x2="15.6014" y2="17.282" gradientUnits="userSpaceOnUse">
<stop stop-color="#830B39"/>
<stop offset="0.2542" stop-color="#BA0035"/>
<stop offset="0.6564" stop-color="#F25330"/>
<stop offset="1" stop-color="#F2B900"/>
</linearGradient>
<linearGradient id="paint2_linear_2766_41" x1="30.2752" y1="15.2152" x2="30.4655" y2="12.4788" gradientUnits="userSpaceOnUse">
<stop stop-color="#F2631E"/>
<stop offset="1" stop-color="#F2CB00"/>
</linearGradient>
<linearGradient id="paint3_linear_2766_41" x1="2.03632" y1="24.9082" x2="11.3252" y2="15.8786" gradientUnits="userSpaceOnUse">
<stop stop-color="#312A87"/>
<stop offset="0.1425" stop-color="#362B89" stop-opacity="0.9713"/>
<stop offset="0.3073" stop-color="#442E8E" stop-opacity="0.9381"/>
<stop offset="0.4833" stop-color="#5B3297" stop-opacity="0.9026"/>
<stop offset="0.667" stop-color="#7C38A3" stop-opacity="0.8656"/>
<stop offset="0.8548" stop-color="#A540B3" stop-opacity="0.8278"/>
<stop offset="0.9926" stop-color="#C847C0" stop-opacity="0.8"/>
</linearGradient>
<linearGradient id="paint4_linear_2766_41" x1="15.924" y1="22.4416" x2="13.8122" y2="9.56174" gradientUnits="userSpaceOnUse">
<stop stop-color="#F2761E"/>
<stop offset="1" stop-color="#F2E43D"/>
</linearGradient>
<linearGradient id="paint5_linear_2766_41" x1="25.3851" y1="3.13712" x2="16.6087" y2="14.511" gradientUnits="userSpaceOnUse">
<stop stop-color="#312A87"/>
<stop offset="0.1425" stop-color="#362B89" stop-opacity="0.9713"/>
<stop offset="0.3073" stop-color="#442E8E" stop-opacity="0.9381"/>
<stop offset="0.4833" stop-color="#5B3297" stop-opacity="0.9026"/>
<stop offset="0.667" stop-color="#7C38A3" stop-opacity="0.8656"/>
<stop offset="0.8548" stop-color="#A540B3" stop-opacity="0.8278"/>
<stop offset="0.9926" stop-color="#C847C0" stop-opacity="0.8"/>
</linearGradient>
<linearGradient id="paint6_linear_2766_41" x1="10.635" y1="27.5079" x2="8.99079" y2="29.6387" gradientUnits="userSpaceOnUse">
<stop stop-color="#312A87"/>
<stop offset="0.1425" stop-color="#362B89" stop-opacity="0.9713"/>
<stop offset="0.3073" stop-color="#442E8E" stop-opacity="0.9381"/>
<stop offset="0.4833" stop-color="#5B3297" stop-opacity="0.9026"/>
<stop offset="0.667" stop-color="#7C38A3" stop-opacity="0.8656"/>
<stop offset="0.8548" stop-color="#A540B3" stop-opacity="0.8278"/>
<stop offset="0.9926" stop-color="#C847C0" stop-opacity="0.8"/>
</linearGradient>
<linearGradient id="paint7_linear_2766_41" x1="29.6371" y1="10.1645" x2="28.5296" y2="10.6778" gradientUnits="userSpaceOnUse">
<stop stop-color="#312A87"/>
<stop offset="0.9926" stop-color="#6C44B6" stop-opacity="0.7"/>
</linearGradient>
<linearGradient id="paint8_linear_2766_41" x1="2.48019" y1="29.0321" x2="3.0203" y2="25.3827" gradientUnits="userSpaceOnUse">
<stop stop-color="#F24D1E"/>
<stop offset="1" stop-color="#F2CB00"/>
</linearGradient>
<linearGradient id="paint9_linear_2766_41" x1="13.7126" y1="3.60446" x2="14.1295" y2="0.787437" gradientUnits="userSpaceOnUse">
<stop stop-color="#F2631E"/>
<stop offset="1" stop-color="#F2CB00"/>
</linearGradient>
<linearGradient id="paint10_linear_2766_41" x1="1.49168" y1="24.264" x2="1.63476" y2="23.2972" gradientUnits="userSpaceOnUse">
<stop stop-color="#E61E1D"/>
<stop offset="1" stop-color="#F2B900"/>
</linearGradient>
<linearGradient id="paint11_linear_2766_41" x1="23.8699" y1="11.4664" x2="11.2051" y2="11.4664" gradientUnits="userSpaceOnUse">
<stop stop-color="#E61E1D"/>
<stop offset="1" stop-color="#F2B900"/>
</linearGradient>
<linearGradient id="paint12_linear_2766_41" x1="9.43492" y1="3.47592" x2="11.9332" y2="13.2021" gradientUnits="userSpaceOnUse">
<stop stop-color="#830B39"/>
<stop offset="0.2542" stop-color="#BA0035"/>
<stop offset="0.6564" stop-color="#F25330"/>
<stop offset="1" stop-color="#F2B900"/>
</linearGradient>
<linearGradient id="paint13_linear_2766_41" x1="6.55856" y1="29.9691" x2="5.0037" y2="30.5457" gradientUnits="userSpaceOnUse">
<stop stop-color="#F2631E"/>
<stop offset="1" stop-color="#F2CB00"/>
</linearGradient>
<linearGradient id="paint14_linear_2766_41" x1="2.18495" y1="17.7075" x2="11.5329" y2="8.35952" gradientUnits="userSpaceOnUse">
<stop stop-color="#F2631E"/>
<stop offset="1" stop-color="#F2CB00"/>
</linearGradient>
</defs>
</svg>
