<svg width="62" height="54" viewBox="0 0 31 27" fill="none" xmlns="http://www.w3.org/2000/svg">
<path d="M28.1389 0H5.42579C3.66461 0 2.53685 1.94391 3.36096 3.55995L5.63288 8.0266H1.51415C1.25332 8.02668 0.996923 8.0967 0.769805 8.22987C0.542687 8.36304 0.352542 8.55485 0.217788 8.78671C0.0830333 9.01858 0.0082363 9.28265 0.000642202 9.55335C-0.0069519 9.82404 0.0529137 10.0922 0.174441 10.3318L7.48211 24.692C7.61094 24.9446 7.80362 25.1559 8.03945 25.3033C8.27528 25.4507 8.54534 25.5286 8.82061 25.5286C9.09587 25.5286 9.36593 25.4507 9.60176 25.3033C9.83759 25.1559 10.0303 24.9446 10.1591 24.692L12.1438 20.813L14.6337 25.7072C15.51 27.4285 17.884 27.4317 18.7634 25.7122L30.1479 3.46979C30.9525 1.89662 29.8545 0 28.1389 0ZM17.9362 9.50329L13.0274 19.0961C12.9416 19.2641 12.8134 19.4046 12.6565 19.5026C12.4995 19.6006 12.3199 19.6524 12.1368 19.6524C11.9537 19.6524 11.774 19.6006 11.6171 19.5026C11.4602 19.4046 11.332 19.2641 11.2462 19.0961L6.38472 9.54364C6.30346 9.38438 6.2632 9.20602 6.26782 9.02586C6.27244 8.84569 6.32179 8.66982 6.41109 8.51527C6.5004 8.36071 6.62663 8.23272 6.77756 8.14369C6.92849 8.05465 7.099 8.00759 7.27259 8.00705H17.0702C17.2395 8.00706 17.4058 8.05254 17.5531 8.13907C17.7004 8.2256 17.8237 8.35023 17.9108 8.50085C17.998 8.65146 18.0462 8.82294 18.0506 8.9986C18.0551 9.17426 18.0157 9.34813 17.9362 9.50329Z" fill="#F71963"/>
</svg>
