<svg width="32" height="32" viewBox="0 0 32 32" fill="none" xmlns="http://www.w3.org/2000/svg">
<path d="M7.68001 9.88013C4.32001 9.88013 1.60001 12.6641 1.60001 16.1041C1.60001 19.5441 4.32001 22.3281 7.68001 22.3281C8.04001 22.3281 8.38401 22.2961 8.72801 22.2321C9.91201 25.2641 12.808 27.4081 16.192 27.4081C19.352 27.4081 22.08 25.5441 23.392 22.8321C22.72 22.6961 22.08 22.4641 21.48 22.1281C20.456 24.0481 18.472 25.3521 16.192 25.3521C13.688 25.3521 11.528 23.7761 10.624 21.5441C10.432 21.0801 10.304 20.5841 10.232 20.0721C10.232 20.0721 10.232 20.0721 10.232 20.0641C10.192 19.8561 10.016 19.7041 9.80001 19.7041C9.74401 19.7041 9.69601 19.7121 9.64801 19.7361C9.60801 19.7601 9.57601 19.7761 9.53601 19.8001C9.12801 20.0161 8.68801 20.1601 8.21601 20.2241C8.04001 20.2481 7.85601 20.2641 7.67201 20.2641C5.42401 20.2641 3.60001 18.3921 3.60001 16.0961C3.60001 13.8001 5.42401 11.9281 7.67201 11.9281C7.85601 11.9281 8.04001 11.9441 8.21601 11.9681C8.94401 12.0721 9.60801 12.3681 10.16 12.8081C10.328 12.9361 10.48 13.0881 10.624 13.2401C10.952 13.5921 11.208 14.0001 11.4 14.4481C11.408 14.4641 11.416 14.4881 11.424 14.5041C11.496 14.6481 11.64 14.7521 11.816 14.7521C11.936 14.7521 12.048 14.7041 12.128 14.6241C12.48 14.2881 12.872 14.0001 13.304 13.7601C14.16 13.2801 15.144 13.0081 16.184 13.0081C17.224 13.0081 18.208 13.2801 19.064 13.7601C19.704 14.1121 20.264 14.5841 20.736 15.1441C20.984 15.4401 21.208 15.7521 21.4 16.0961C21.808 16.8081 22.072 17.6161 22.168 18.4721C22.176 18.4801 22.184 18.4961 22.2 18.5041C22.32 18.6401 22.456 18.7601 22.592 18.8721C23.064 19.2481 23.616 19.4881 24.208 19.5761C24.216 19.4481 24.224 19.3121 24.224 19.1841C24.224 18.0961 24.016 17.0561 23.64 16.1041C23.288 15.2161 22.792 14.4081 22.176 13.7041C22.04 13.5441 21.896 13.3921 21.744 13.2481C21.256 12.7681 20.712 12.3601 20.12 12.0161C18.96 11.3441 17.616 10.9681 16.192 10.9681C14.76 10.9681 13.424 11.3521 12.264 12.0161C11.8 11.4721 11.248 11.0161 10.624 10.6641C10.04 10.3361 9.40801 10.1041 8.72801 9.97613C8.39201 9.92013 8.04001 9.88013 7.68001 9.88013Z" fill="url(#paint0_linear_3734_237)"/>
<path d="M16.192 4.80005C13.032 4.80005 10.304 6.66405 8.992 9.37605C9.664 9.51205 10.304 9.74405 10.904 10.08C11.928 8.16005 13.912 6.85605 16.192 6.85605C18.696 6.85605 20.856 8.43205 21.76 10.664C21.952 11.128 22.08 11.624 22.152 12.136C22.192 12.344 22.368 12.496 22.584 12.496C22.64 12.496 22.688 12.488 22.736 12.464C22.776 12.44 22.808 12.424 22.848 12.4C23.256 12.184 23.696 12.04 24.168 11.976C24.344 11.952 24.528 11.936 24.712 11.936C26.96 11.936 28.784 13.808 28.784 16.104C28.784 18.4 26.96 20.272 24.712 20.272C24.528 20.272 24.344 20.256 24.168 20.232C23.44 20.128 22.776 19.832 22.224 19.392C22.056 19.256 21.904 19.112 21.76 18.96C21.432 18.608 21.176 18.2 20.984 17.752C20.976 17.736 20.968 17.712 20.96 17.696C20.888 17.552 20.744 17.448 20.568 17.448C20.448 17.448 20.336 17.496 20.256 17.576C19.904 17.912 19.512 18.2 19.08 18.44C18.224 18.92 17.24 19.192 16.2 19.192C15.16 19.192 14.176 18.92 13.32 18.44C12.68 18.088 12.12 17.616 11.648 17.056C11.4 16.76 11.176 16.448 10.984 16.104C10.576 15.392 10.312 14.584 10.216 13.728C10.208 13.72 10.2 13.704 10.184 13.696C10.064 13.56 9.928 13.44 9.792 13.328C9.32 12.952 8.768 12.712 8.176 12.624C8.168 12.752 8.16 12.888 8.16 13.016C8.16 14.104 8.368 15.144 8.744 16.096C9.096 16.984 9.592 17.792 10.208 18.496C10.344 18.656 10.488 18.808 10.64 18.952C11.128 19.432 11.672 19.848 12.264 20.184C13.424 20.856 14.768 21.232 16.192 21.232C17.624 21.232 18.96 20.848 20.12 20.184C20.584 20.728 21.136 21.184 21.752 21.536C22.336 21.864 22.968 22.104 23.648 22.224C23.992 22.288 24.336 22.32 24.696 22.32C28.056 22.32 30.776 19.536 30.776 16.096C30.776 12.664 28.056 9.87205 24.696 9.87205C24.336 9.87205 23.984 9.90405 23.648 9.96805C22.48 6.94405 19.584 4.80005 16.192 4.80005Z" fill="url(#paint1_linear_3734_237)"/>
<defs>
<linearGradient id="paint0_linear_3734_237" x1="1.59993" y1="18.6461" x2="24.2304" y2="18.6461" gradientUnits="userSpaceOnUse">
<stop offset="5.32779e-08" stop-color="#0658D4"/>
<stop offset="1" stop-color="#2C7EF9"/>
</linearGradient>
<linearGradient id="paint1_linear_3734_237" x1="33.7446" y1="20.5415" x2="14.8326" y2="12.4364" gradientUnits="userSpaceOnUse">
<stop offset="1.11884e-07" stop-color="#198852"/>
<stop offset="1" stop-color="#43B476"/>
</linearGradient>
</defs>
</svg>
