<svg width="32" height="32" viewBox="0 0 32 32" fill="none" xmlns="http://www.w3.org/2000/svg">
<path d="M14.3823 1.49335C14.0978 1.67113 13.8311 1.93779 13.28 2.4889C12.7289 3.04001 12.4623 3.30668 12.2845 3.59113C11.7156 4.51557 11.7156 5.67113 12.2845 6.59557C12.4623 6.88001 12.7289 7.14668 13.28 7.69779C13.8311 8.2489 14.0978 8.51557 14.3823 8.69335C15.3067 9.26224 16.4623 9.26224 17.3867 8.69335C17.6711 8.51557 17.9378 8.2489 18.4889 7.69779C19.04 7.14668 19.3067 6.88001 19.4845 6.59557C20.0534 5.67113 20.0534 4.51557 19.4845 3.59113C19.3067 3.30668 19.04 3.04001 18.4889 2.4889C17.9378 1.93779 17.6711 1.67113 17.3867 1.49335C16.48 0.924459 15.3067 0.924459 14.3823 1.49335ZM17.9911 18.5778L24.3556 12.2133C24.6223 11.9467 24.9245 11.7333 25.28 11.5911C25.6178 11.4489 25.9911 11.3778 26.3645 11.3778C26.7378 11.3778 27.1111 11.4489 27.4489 11.5911C27.7867 11.7333 28.1067 11.9467 28.3734 12.2133L31.5734 15.4133L15.9823 31.0045L0.355591 15.4311L3.59115 12.1956C3.85781 11.9289 4.16004 11.7156 4.51559 11.5733C4.85337 11.4311 5.2267 11.36 5.60004 11.36C5.97337 11.36 6.3467 11.4311 6.68448 11.5733C7.02226 11.7156 7.34226 11.9289 7.60892 12.1956L13.9911 18.5778C14.2578 18.8445 14.56 19.0578 14.9156 19.2C15.2534 19.3422 15.6267 19.4133 16 19.4133C16.3734 19.4133 16.7467 19.3422 17.0845 19.2C17.4045 19.0578 17.7245 18.8445 17.9911 18.5778Z" fill="#02C652"/>
</svg>
