<svg width="32" height="32" viewBox="0 0 32 32" fill="none" xmlns="http://www.w3.org/2000/svg">
<path d="M22.8701 17.9373L23.3699 18.4748L23.3303 18.439C23.3096 18.4202 23.2908 18.4013 23.2711 18.3816L22.6979 17.7557V17.751L22.8701 17.9373Z" fill="url(#paint0_linear_2668_36)"/>
<path d="M27.4998 22.9109H27.3849L27.4678 22.8779L27.4998 22.9109Z" fill="url(#paint1_linear_2668_36)"/>
<path d="M26.9925 18.0776H27.0047L27 18.0842L26.9925 18.0776Z" fill="url(#paint2_linear_2668_36)"/>
<path d="M31.7266 16.8701L31.7059 16.9162V16.8748L31.7266 16.8701Z" fill="url(#paint3_linear_2668_36)"/>
<path d="M31.9525 16.9238V16.9634C31.9355 16.9897 31.9186 17.0151 31.9007 17.0396C31.9183 17.0019 31.9355 16.9634 31.9525 16.9238Z" fill="url(#paint4_linear_2668_36)"/>
<path d="M31.9506 16.9634C31.9459 17.0678 31.9384 17.1704 31.929 17.274C31.8125 18.5077 31.3569 19.6851 30.6125 20.6758C29.8681 21.6665 28.8641 22.4319 27.7115 22.8871C27.6833 22.8994 27.656 22.9097 27.6287 22.9201C25.6193 22.8062 23.0395 17.9507 22.9407 17.7634L23.5139 18.3902L23.5732 18.4476L23.6127 18.4834C24.0478 18.8714 24.6072 19.0914 25.1901 19.1036H25.2673C25.6729 19.1657 28.1398 19.4867 30.1388 18.5144C30.8437 18.1832 31.4502 17.6743 31.8988 17.0377C31.9167 17.0151 31.9337 16.9897 31.9506 16.9634V16.9634Z" fill="url(#paint5_linear_2668_36)"/>
<path d="M24.5868 13.0154C24.5868 13.0775 24.5868 13.1387 24.5793 13.2036C24.4353 13.902 23.9205 14.5213 23.5892 14.8356C23.5863 14.8387 23.5831 14.8415 23.5798 14.8441L21.7981 16.5166L18.9351 13.3815L20.9256 11.518C20.9548 11.4926 20.984 11.4681 21.0141 11.4446C21.0885 11.3824 21.1647 11.3241 21.2419 11.2657C21.5028 11.0967 21.794 10.9798 22.0993 10.9213C22.3891 10.8729 22.6858 10.8848 22.9708 10.9561C23.3047 11.0501 23.6147 11.2144 23.88 11.438C24.1023 11.6363 24.2802 11.8793 24.402 12.1511C24.5238 12.423 24.5868 12.7175 24.5868 13.0154Z" fill="url(#paint6_linear_2668_36)"/>
<path d="M27.6118 13.5508C28.813 13.5508 29.7868 12.577 29.7868 11.3757C29.7868 10.1745 28.813 9.20068 27.6118 9.20068C26.4105 9.20068 25.4367 10.1745 25.4367 11.3757C25.4367 12.577 26.4105 13.5508 27.6118 13.5508Z" fill="url(#paint7_linear_2668_36)"/>
<path d="M14.9576 9.13679L14.9031 9.09161L14.8936 9.07373C14.8936 9.07373 14.9153 9.0935 14.9576 9.13679Z" fill="url(#paint8_linear_2668_36)"/>
<path d="M27.6287 22.9202L27.6137 22.9259L27.5807 22.9381H27.5751L27.5515 22.9466H27.5431C25.9431 23.528 24.1821 23.4802 22.616 22.8129C22.5219 22.7715 22.4278 22.7282 22.3337 22.684L22.2395 22.6332C21.6659 22.3461 21.137 21.9771 20.6697 21.5376C20.6057 21.4774 20.5417 21.4153 20.4814 21.3494L20.4551 21.3221L20.4165 21.2816L18.712 19.4181V19.4125L17.6297 18.2567C17.6861 18.2887 17.6974 18.2896 17.6532 18.2567C17.0828 17.8209 15.593 14.0826 14.1708 10.7009C12.9624 7.84165 10.4043 7.13294 9.63437 6.98047C11.5723 7.10033 13.4202 7.84049 14.905 9.09153L14.9595 9.1367C15.1984 9.34152 15.4268 9.55826 15.6438 9.78612L15.656 9.79835L15.689 9.83412L18.9285 13.3758H18.9351L21.7981 16.5061L21.8697 16.5842L22.9417 17.7569C23.0395 17.9508 25.6193 22.8064 27.6287 22.9202Z" fill="url(#paint9_linear_2668_36)"/>
<path d="M26.7139 18.6226L26.7064 18.6282C26.7045 18.6279 26.7026 18.6279 26.7007 18.6282L26.7139 18.6226Z" fill="url(#paint10_linear_2668_36)"/>
<path d="M9.74259 25.0698C9.51984 25.0868 9.29647 25.0953 9.07247 25.0953C8.95765 25.0953 8.84376 25.0953 8.72894 25.0887C6.92579 25.0212 5.18368 24.4178 3.72516 23.3554C2.26664 22.2931 1.15795 20.82 0.540707 19.1244C0.402688 18.7433 0.290126 18.3534 0.203766 17.9574C0.838596 16.2739 1.89279 14.7804 3.26644 13.6183C4.6401 12.4563 6.28772 11.6643 8.05318 11.3174C7.6859 11.3953 7.3292 11.5166 6.99059 11.6788C6.60753 11.8604 6.25049 12.0924 5.92894 12.3687C5.88 12.4101 5.83482 12.4534 5.784 12.4976C5.69647 12.5804 5.61082 12.6642 5.52988 12.7527L5.52424 12.7583C4.53521 13.704 3.83756 14.9131 3.5137 16.2426C3.18985 17.5721 3.25333 18.9666 3.69664 20.2612C4.13996 21.5558 4.94458 22.6965 6.01543 23.5484C7.08629 24.4003 8.37864 24.928 9.73976 25.0689L9.74259 25.0698Z" fill="url(#paint11_linear_2668_36)"/>
<path d="M11.3482 11.7832C10.6948 11.4339 9.96934 11.2407 9.22871 11.2185H9.06118C8.94824 11.2185 8.83624 11.2223 8.72518 11.2298C8.56707 11.2411 8.41083 11.2599 8.2546 11.2854C8.18683 11.2976 8.12001 11.3117 8.05224 11.3249C6.28812 11.6716 4.64163 12.4626 3.26857 13.6232C1.89551 14.7839 0.841286 16.2756 0.205654 17.9574C-0.204691 16.0601 0.00241493 14.0814 0.796713 12.3103C1.16595 11.4844 1.65882 10.7196 2.25836 10.0421C2.30071 9.99218 2.34589 9.94795 2.39107 9.8943C3.73879 9.56374 5.13845 9.50207 6.51002 9.71282C7.88159 9.92357 9.19817 10.4026 10.3845 11.1225C10.7175 11.3251 11.0393 11.5456 11.3482 11.7832V11.7832Z" fill="url(#paint12_linear_2668_36)"/>
<path d="M17.6297 18.2566L15.8264 16.2801L14.1172 14.4175L12.5633 12.7234C12.2104 12.3465 11.7992 12.0287 11.3454 11.7822C11.0364 11.5452 10.7147 11.3253 10.3817 11.1234C7.9848 9.67403 5.11176 9.23213 2.39014 9.89421C2.55202 9.71821 2.72049 9.5488 2.89743 9.38409C4.42225 7.9645 6.39109 7.11592 8.47013 6.98221C8.76661 6.96245 9.06966 6.96245 9.37366 6.96809H9.41131C9.48661 6.96809 9.56096 6.97468 9.63531 6.97939C10.4052 7.13186 12.9633 7.84056 14.1671 10.6942C15.5939 14.0759 17.0847 17.8142 17.6494 18.25C17.6937 18.2848 17.6861 18.2839 17.6297 18.2566Z" fill="url(#paint13_linear_2668_36)"/>
<path d="M18.6988 19.42L16.9228 21.0859L15.4066 22.5089L15.3624 22.5503L15.2325 22.6727C15.2061 22.6984 15.1798 22.7229 15.1534 22.7461L15.144 22.7546C13.6526 24.105 11.7529 24.9186 9.74635 25.0661C8.3857 24.9252 7.09378 24.3979 6.02314 23.5464C4.95251 22.6949 4.14787 21.5549 3.70423 20.2609C3.2606 18.9669 3.19649 17.573 3.51949 16.2437C3.84248 14.9145 4.53909 13.7054 5.52706 12.7593C4.90243 13.4353 4.48449 14.276 4.3227 15.1821C4.16092 16.0881 4.26204 17.0216 4.61412 17.872C4.96619 18.7223 5.55448 19.4541 6.30939 19.9806C7.06429 20.5071 7.95422 20.8064 8.87388 20.843H8.88706C10.0975 20.8914 11.2811 20.4787 12.1991 19.6882L12.2075 19.6807C12.2292 19.6628 12.2499 19.644 12.2706 19.6252L15.0094 17.0557L15.2833 16.7988L15.8301 16.2859L17.6296 18.2567L18.6988 19.42Z" fill="url(#paint14_linear_2668_36)"/>
<path d="M31.9581 16.6878V16.9241C31.9412 16.9636 31.9233 17.0022 31.9045 17.0398C31.4559 17.6764 30.8493 18.1853 30.1445 18.5165C28.1454 19.4888 25.6786 19.1678 25.2729 19.1057C25.7887 19.1036 26.2905 18.9382 26.7064 18.6332L26.7139 18.6276C26.7868 18.5736 26.8569 18.5158 26.9238 18.4544C27.0415 18.3445 27.1483 18.2234 27.2428 18.093C27.2449 18.0917 27.2466 18.0897 27.2475 18.0874C27.494 17.7455 27.648 17.3458 27.6946 16.9269C27.7012 16.8667 27.7059 16.8055 27.7087 16.7387V16.6116C27.7615 16.21 27.9271 15.8316 28.1863 15.5204C28.4456 15.2092 28.7877 14.9778 29.1732 14.8533C29.5586 14.7287 29.9714 14.716 30.3637 14.8167C30.7561 14.9173 31.1118 15.1272 31.3897 15.422C31.7165 15.7677 31.9168 16.2138 31.9581 16.6878V16.6878Z" fill="url(#paint15_linear_2668_36)"/>
<path d="M26.7139 18.6226L26.7064 18.6282C26.7045 18.6279 26.7026 18.6279 26.7007 18.6282L26.7139 18.6226Z" fill="url(#paint16_linear_2668_36)"/>
<path d="M31.9525 16.9238V16.9634C31.9355 16.9897 31.9186 17.0151 31.9007 17.0396C31.9183 17.0019 31.9355 16.9634 31.9525 16.9238Z" fill="url(#paint17_linear_2668_36)"/>
<defs>
<linearGradient id="paint0_linear_2668_36" x1="22.6226" y1="17.9731" x2="23.4499" y2="18.2536" gradientUnits="userSpaceOnUse">
<stop stop-color="#ED6347"/>
<stop offset="0.36" stop-color="#EF684C"/>
<stop offset="0.79" stop-color="#F6775B"/>
<stop offset="1" stop-color="#FB8165"/>
</linearGradient>
<linearGradient id="paint1_linear_2668_36" x1="60.8069" y1="28.4471" x2="60.866" y2="28.5165" gradientUnits="userSpaceOnUse">
<stop stop-color="#ED6347"/>
<stop offset="0.36" stop-color="#EF684C"/>
<stop offset="0.79" stop-color="#F6775B"/>
<stop offset="1" stop-color="#FB8165"/>
</linearGradient>
<linearGradient id="paint2_linear_2668_36" x1="30.5018" y1="18.8554" x2="30.5028" y2="18.8561" gradientUnits="userSpaceOnUse">
<stop stop-color="#ED6347"/>
<stop offset="0.36" stop-color="#EF684C"/>
<stop offset="0.79" stop-color="#F6775B"/>
<stop offset="1" stop-color="#FB8165"/>
</linearGradient>
<linearGradient id="paint3_linear_2668_36" x1="38.6808" y1="21.7344" x2="38.6843" y2="21.7349" gradientUnits="userSpaceOnUse">
<stop stop-color="#ED6347"/>
<stop offset="0.36" stop-color="#EF684C"/>
<stop offset="0.79" stop-color="#F6775B"/>
<stop offset="1" stop-color="#FB8165"/>
</linearGradient>
<linearGradient id="paint4_linear_2668_36" x1="31.9186" y1="17.0179" x2="31.9948" y2="16.8269" gradientUnits="userSpaceOnUse">
<stop stop-color="#07C8D4"/>
<stop offset="1" stop-color="#15959D"/>
</linearGradient>
<linearGradient id="paint5_linear_2668_36" x1="2779.52" y1="804.559" x2="2925.04" y2="1108.98" gradientUnits="userSpaceOnUse">
<stop stop-color="#07C8D4"/>
<stop offset="1" stop-color="#15959D"/>
</linearGradient>
<linearGradient id="paint6_linear_2668_36" x1="13.9355" y1="21.1688" x2="25.176" y2="10.3321" gradientUnits="userSpaceOnUse">
<stop stop-color="#251647"/>
<stop offset="1" stop-color="#452983"/>
</linearGradient>
<linearGradient id="paint7_linear_2668_36" x1="1201.14" y1="213.178" x2="1402.25" y2="213.178" gradientUnits="userSpaceOnUse">
<stop stop-color="#251647"/>
<stop offset="1" stop-color="#452983"/>
</linearGradient>
<linearGradient id="paint8_linear_2668_36" x1="25.017" y1="10.5008" x2="32.3638" y2="13.0261" gradientUnits="userSpaceOnUse">
<stop stop-color="#ED6347"/>
<stop offset="0.36" stop-color="#EF684C"/>
<stop offset="0.79" stop-color="#F6775B"/>
<stop offset="1" stop-color="#FB8165"/>
</linearGradient>
<linearGradient id="paint9_linear_2668_36" x1="24.0372" y1="20.1965" x2="41.6946" y2="33.9348" gradientUnits="userSpaceOnUse">
<stop stop-color="#00C3A0"/>
<stop offset="1" stop-color="#00544A"/>
</linearGradient>
<linearGradient id="paint10_linear_2668_36" x1="30.4382" y1="19.322" x2="30.8577" y2="19.6536" gradientUnits="userSpaceOnUse">
<stop stop-color="#ED6347"/>
<stop offset="0.36" stop-color="#EF684C"/>
<stop offset="0.79" stop-color="#F6775B"/>
<stop offset="1" stop-color="#FB8165"/>
</linearGradient>
<linearGradient id="paint11_linear_2668_36" x1="0.913413" y1="15.8699" x2="11.6287" y2="19.5" gradientUnits="userSpaceOnUse">
<stop stop-color="#C838FD"/>
<stop offset="0.39" stop-color="#B73FDF"/>
<stop offset="1" stop-color="#9D4BB1"/>
</linearGradient>
<linearGradient id="paint12_linear_2668_36" x1="1.2306" y1="11.3334" x2="7.75107" y2="16.4063" gradientUnits="userSpaceOnUse">
<stop stop-color="#E7426E"/>
<stop offset="1" stop-color="#FF5B3B"/>
</linearGradient>
<linearGradient id="paint13_linear_2668_36" x1="4.66402" y1="6.97092" x2="16.52" y2="16.1954" gradientUnits="userSpaceOnUse">
<stop stop-color="#F7BF17"/>
<stop offset="0.12" stop-color="#F8B716"/>
<stop offset="1" stop-color="#FF8010"/>
</linearGradient>
<linearGradient id="paint14_linear_2668_36" x1="662.436" y1="1005.55" x2="2212.34" y2="2512.69" gradientUnits="userSpaceOnUse">
<stop stop-color="#251647"/>
<stop offset="1" stop-color="#452983"/>
</linearGradient>
<linearGradient id="paint15_linear_2668_36" x1="29.4649" y1="18.9636" x2="36.0108" y2="28.9165" gradientUnits="userSpaceOnUse">
<stop stop-color="#0AAEFA"/>
<stop offset="1" stop-color="#2951E7"/>
</linearGradient>
<linearGradient id="paint16_linear_2668_36" x1="30.439" y1="19.3222" x2="30.4391" y2="19.3214" gradientUnits="userSpaceOnUse">
<stop stop-color="#07C8D4"/>
<stop offset="1" stop-color="#15959D"/>
</linearGradient>
<linearGradient id="paint17_linear_2668_36" x1="31.9186" y1="17.0179" x2="31.9948" y2="16.8269" gradientUnits="userSpaceOnUse">
<stop stop-color="#07C8D4"/>
<stop offset="1" stop-color="#15959D"/>
</linearGradient>
</defs>
</svg>
