<svg width="32" height="32" viewBox="0 0 32 32" fill="none" xmlns="http://www.w3.org/2000/svg">
<path d="M26.7198 10.7734C26.5233 10.7734 26.2876 10.7734 26.0911 10.8126L24.9516 12.8073C25.4624 12.4943 26.0911 12.3379 26.7198 12.3379C28.7631 12.3379 30.4527 14.0196 30.4527 16.0534C30.4527 18.0873 28.7631 19.769 26.7198 19.769C24.6765 19.769 23.0261 18.1263 22.9869 16.0926L21.8081 18.0873C22.5939 20.0036 24.5194 21.3334 26.6805 21.3334C29.5883 21.3334 31.9852 18.9476 31.9852 16.0534C32.0245 13.1593 29.6275 10.7734 26.7198 10.7734Z" fill="#BF3078"/>
<path d="M10.688 16.2881L11.5917 14.7236L13.635 18.2046L15.9925 14.1761L18.35 18.2046L22.3974 11.3601C22.5939 11.0081 22.9868 10.7734 23.4191 10.7734H24.5586L18.3502 21.3334L15.9926 17.305L13.635 21.3334L10.6879 16.2881H10.688Z" fill="#802050"/>
<path d="M12.3776 10.7734L6.16917 21.3334L0 10.7734H1.13952C1.57173 10.7734 1.96469 11.0081 2.16117 11.3601L6.16917 18.2436L10.2164 11.3601C10.4129 11.0081 10.8058 10.7734 11.2381 10.7734H12.3776V10.7734Z" fill="#26134D"/>
</svg>
