<svg width="256" height="256" xmlns="http://www.w3.org/2000/svg"><g transform="translate(25 1)" fill-rule="nonzero" fill="none"><path d="M168 3.8v11.4s-20.4-7.6-33.6 6.2c-9.6 10-10.4 21.2-6 36.2 43.2 0 50 24.2 50 24.2L174 54l13.6-16.6c0-19.6-16.2-32.6-19.6-33.6z" fill="#FFF"/><circle fill="#000" cx="171.8" cy="31.8" r="5.2"/><path d="M178.4 81.8s-6.6-33.2-49.8-24.2c-4.4-15-3.6-26 6-36.2 13-13.8 33.4-6.2 33.4-6.2V3.8C160.8.6 154 0 146.4 0c-27.8 0-43.2 20.8-49.8 34.8L18.4 178.6l22-4.2-40.4 78 28.2-5L49.8 186c61.2 0 139.6-22 128.6-104.2z" fill="#000"/><path fill="#000" d="M204.8 54l-17.2-16.6L174 54"/><path d="M60 168.2s2-.4 5.6-1.2c3.6-.8 8.6-2 14.6-3.6 3-.8 6.2-1.8 9.6-3 3.4-1.2 7-2.4 10.4-4 3.6-1.4 7.2-3.2 10.8-5.2 3.6-2 7-4.2 10.2-6.8.8-.6 1.6-1.2 2.4-2l2.4-2c1.4-1.4 3-2.8 4.4-4.4 1.4-1.4 2.6-3 3.8-4.6l1.8-2.4.8-1.2.8-1.2c.4-.8 1-1.6 1.4-2.4.4-.8.8-1.6 1.4-2.4l.6-1.2.6-1.2c.4-.8.8-1.6 1-2.4l1.8-4.8c.4-1.6 1-3.2 1.4-4.6.4-1.4.6-3 1-4.2.2-1.4.4-2.6.6-4 .2-1.2.4-2.4.4-3.4.2-1 .2-2 .4-3 .2-3.6.2-5.6.2-5.6l3.2.2s-.2 2.2-.4 5.8c-.2 1-.2 2-.4 3-.2 1.2-.2 2.4-.6 3.6-.2 1.2-.6 2.6-.8 4-.4 1.4-.8 2.8-1.2 4.4-.4 1.6-1 3-1.6 4.8-.6 1.6-1.2 3.2-2 5l-1.2 2.4-.6 1.2-.6 1.2c-.4.8-1 1.6-1.4 2.6-.6.8-1 1.6-1.6 2.4-.2.4-.6.8-.8 1.2l-.8 1.2-1.8 2.4c-1.4 1.6-2.6 3.2-4.2 4.6-1.4 1.6-3 2.8-4.6 4.4l-2.4 2c-.8.6-1.6 1.2-2.6 1.8-3.4 2.4-7 4.6-10.6 6.6-3.6 1.8-7.4 3.6-11 5-3.6 1.4-7.2 2.6-10.6 3.6-3.4 1-6.6 2-9.8 2.6-6 1.4-11.2 2.6-14.8 3.2-3.2 1.2-5.2 1.6-5.2 1.6z" fill="#FFF"/></g></svg>
