<svg width="32" height="32" viewBox="0 0 32 32" fill="none" xmlns="http://www.w3.org/2000/svg">
<path d="M16 32C24.8366 32 32 24.8366 32 16C32 7.16344 24.8366 0 16 0C7.16344 0 0 7.16344 0 16C0 24.8366 7.16344 32 16 32Z" fill="#0094D4"/>
<path d="M17.3796 18.7741V18.7742C17.3796 20.3046 18.6526 21.5083 20.1581 21.5083C21.6772 21.5083 22.9045 20.2763 22.9046 18.7585C22.9046 18.7584 22.9046 18.7583 22.9046 18.7582L22.9103 7.77309H25.5439L25.5451 18.7979C25.5451 18.798 25.5451 18.798 25.5451 18.798C25.545 21.7829 23.1257 24.2027 20.1409 24.2027C18.7406 24.2027 17.4692 23.5657 16.4777 22.6152L16.1245 22.2765L15.7783 22.6224C14.7706 23.6293 13.4042 24.1947 11.9797 24.1944H11.9796C8.98736 24.1944 6.50251 21.7666 6.50251 18.7896L6.50251 18.789L6.4889 7.76953H9.21976L9.21409 18.7497V18.7499C9.21409 20.2785 10.4883 21.4988 11.9968 21.4988C13.5181 21.4988 14.7343 20.2657 14.7344 18.7502C14.7344 18.7501 14.7344 18.75 14.7344 18.7499L14.7401 7.77546H17.3824L17.3796 18.7741Z" fill="white" stroke="white"/>
</svg>
