<svg width="32" height="32" viewBox="0 0 32 32" fill="none" xmlns="http://www.w3.org/2000/svg">
<g clip-path="url(#clip0_3869_81)">
<path d="M19.6603 0C19.6603 0.0564951 19.6603 0.11299 19.6603 0.172459C19.6603 1.14559 19.2737 2.07887 18.5856 2.76698C17.8975 3.45509 16.9642 3.84166 15.9911 3.84166C15.0179 3.84166 14.0847 3.45509 13.3966 2.76698C12.7084 2.07887 12.3219 1.14559 12.3219 0.172459C12.3219 0.11299 12.3219 0.0564951 12.3219 0H0V32H32V0H19.6603ZM15.2775 28.5746L13.7194 20.8645H13.6778L12.0097 28.5746H9.86582L7.43356 17.2459H9.55361L11.0017 24.956H11.0284L12.7679 17.2459H14.7512L16.3241 25.0511H16.3538L18.0041 17.2459H20.0855L17.3826 28.5746H15.2775ZM26.9511 28.5746L26.2286 26.0531H22.4196L21.8636 28.5746H19.7316L22.4761 17.2459H25.8182L29.1396 28.5746H26.9511Z" fill="#654FF0"/>
<path d="M23.7487 20.0379L22.824 24.1948H25.7022L24.6407 20.0379H23.7487Z" fill="#654FF0"/>
</g>
<defs>
<clipPath id="clip0_3869_81">
<rect width="32" height="32" fill="white"/>
</clipPath>
</defs>
</svg>
