<svg width="32" height="32" viewBox="0 0 32 32" fill="none" xmlns="http://www.w3.org/2000/svg">
<path d="M0 4C0 1.79086 1.79086 0 4 0H28C30.2092 0 32 1.79086 32 4V28C32 30.2092 30.2092 32 28 32H4C1.79086 32 0 30.2092 0 28V4Z" fill="#4353FF"/>
<path d="M21.6719 13.408C21.6719 13.408 20.0479 18.496 19.9279 18.928C19.8799 18.504 18.6959 9.35999 18.6959 9.35999C15.9279 9.35999 14.4559 11.328 13.6719 13.408C13.6719 13.408 11.6959 18.512 11.5359 18.936C11.5279 18.536 11.2319 13.456 11.2319 13.456C11.0639 10.904 8.7359 9.35999 6.8479 9.35999L9.1199 23.208C12.0159 23.2 13.5759 21.24 14.3919 19.152C14.3919 19.152 16.1279 14.648 16.1999 14.448C16.2159 14.64 17.4479 23.208 17.4479 23.208C20.3519 23.208 21.9199 21.376 22.7599 19.368L26.8319 9.35999C23.9599 9.35999 22.4479 11.32 21.6719 13.408Z" fill="white"/>
</svg>
