<svg width="32" height="32" viewBox="0 0 32 32" fill="none" xmlns="http://www.w3.org/2000/svg">
<path d="M24.5801 5.11385H26.6109L27.2262 4.26462C27.2262 4.26462 24.9309 4.26462 24.377 4.26462C24.0878 4.26462 23.7616 4.35693 23.5647 4.51077C23.3185 4.70154 23.1955 4.96616 23.1955 5.28616C23.1955 5.46462 23.2262 5.61846 23.2939 5.75385C23.3616 5.88308 23.4478 5.9877 23.5524 6.05539C23.6509 6.12308 23.7616 6.17231 23.8785 6.21539C23.9524 6.24 24.5124 6.36308 24.6047 6.38154C24.6847 6.4 24.7524 6.42462 24.7955 6.46154C24.9062 6.5477 24.8262 6.64616 24.8016 6.66462C24.7832 6.68308 24.7339 6.70154 24.6355 6.70154H22.9432L22.7585 7.56923H24.8632C24.8632 7.56923 25.1278 7.55693 25.2078 7.52616C25.3555 7.48308 25.4047 7.50154 25.5955 7.3477C25.8416 7.15693 25.9339 6.8677 25.9339 6.5477C25.9339 6.36923 25.9032 6.21539 25.8355 6.08C25.7678 5.95077 25.6816 5.84616 25.577 5.77846C25.4785 5.71077 25.3678 5.66154 25.2509 5.61846C25.177 5.59385 24.617 5.47077 24.5247 5.45231C24.4447 5.43385 24.3832 5.40923 24.3339 5.37231C24.3032 5.3477 24.2909 5.32308 24.2909 5.28616C24.2909 5.26154 24.2909 5.22462 24.3462 5.17539C24.4016 5.1077 24.5801 5.11385 24.5801 5.11385Z" fill="#E22134"/>
<path d="M6.54313 6.74462H8.11236L7.94621 7.55077H5.47852L6.15544 4.26462H8.62313L8.46313 5.07077H6.90005L6.82005 5.51385H8.07544L7.92159 6.30154H6.62928L6.54313 6.74462Z" fill="#E22134"/>
<path d="M11.2139 6.56616C11.1585 6.8677 11.0231 7.1077 10.8016 7.28616C10.5862 7.46462 10.3339 7.55077 10.0447 7.55077H8.34619L9.02927 4.26462H10.5123C10.8077 4.26462 11.0354 4.34462 11.1831 4.50462C11.3308 4.66462 11.3739 4.88 11.3185 5.15693C11.2754 5.39077 11.097 5.59385 10.7954 5.76616V5.78462C11.1462 5.94462 11.2877 6.20308 11.2139 6.56616ZM10.3339 6.47385C10.3523 6.38154 10.34 6.3077 10.297 6.24C10.2539 6.17231 10.1923 6.14154 10.1123 6.14154H9.54004L9.40465 6.80616H9.98927C10.0631 6.80616 10.137 6.76923 10.2047 6.70154C10.2723 6.64 10.3154 6.56 10.3339 6.47385ZM9.78619 5.00308L9.69388 5.52616H10.1616C10.217 5.52616 10.2723 5.49539 10.3216 5.44C10.377 5.38462 10.4077 5.32308 10.42 5.26154C10.4323 5.2 10.42 5.14462 10.3893 5.08923C10.3585 5.03385 10.3154 5.00308 10.26 5.00308H9.78619Z" fill="#E22134"/>
<path d="M13.2632 6.30768L13.417 5.55076H15.0232L14.617 7.55691H13.8416L13.9216 7.18153L13.9032 7.16922C13.7432 7.31691 13.7124 7.35999 13.5462 7.43999C13.3862 7.51999 13.1585 7.56307 12.9062 7.56307C12.4755 7.56307 12.0262 7.47076 11.7801 7.15076C11.5339 6.83076 11.4539 6.41845 11.5462 5.91384C11.6016 5.59384 11.7432 5.30461 11.9585 5.03999C12.1739 4.77538 12.3647 4.60922 12.6724 4.45538C12.9801 4.30768 13.3493 4.25845 13.6755 4.25845C14.0693 4.25845 14.4939 4.36307 14.6601 4.49845C14.9124 4.70153 15.0478 4.9723 15.0601 5.32307H14.137C14.0632 5.09538 13.8601 4.98461 13.5278 4.98461C13.2878 4.98461 13.0662 5.07691 12.8632 5.26768C12.6601 5.4523 12.537 5.66768 12.4878 5.91384C12.4385 6.15999 12.4816 6.37538 12.6109 6.55384C12.7401 6.7323 12.9247 6.82461 13.1585 6.82461C13.3555 6.82461 13.5339 6.77538 13.6816 6.68307C13.8355 6.58461 13.9401 6.46153 14.0078 6.31384H13.2632V6.30768Z" fill="#E22134"/>
<path d="M17.1155 7.56924L17.0601 7.08308H16.0448L15.8048 7.56924H14.9001L16.6663 4.28308H17.5586L18.0201 7.56924H17.1155ZM16.9801 6.36308L16.9309 5.29231H16.8878L16.4078 6.36308H16.9801Z" fill="#E22134"/>
<path d="M18.2909 7.56924L18.974 4.28308H19.8663L19.1832 7.56924H18.2909Z" fill="#E22134"/>
<path d="M22.3894 7.56924H21.5278L20.894 5.90154H20.8632L20.5063 7.56924H19.6017L20.2725 4.28308H21.1771L21.8355 5.9077H21.8663L22.174 4.28308H23.0478L22.3894 7.56924Z" fill="#E22134"/>
<path d="M4.85084 4.29539L4.50007 5.90769H4.4693L3.84161 4.24615H3.83545L3.81699 4.36308L3.81084 4.36923L3.83545 4.24615L2.67238 5.77846L2.98622 4.29539H2.0693L1.41699 7.56923H2.32776L3.48468 5.94462H3.52161H3.54007L4.08776 7.56923H4.99238L5.6693 4.29539H4.85084Z" fill="#E22134"/>
<path d="M31.3801 4.26462H28.7647C28.7647 4.26462 28.9616 6.56616 28.0262 8.35077C26.4693 11.3231 17.0908 23.9138 17.0908 23.9138L15.5401 21.7723L18.9493 16.9785C19.7185 15.9446 18.9801 14.48 17.6939 14.48H12.1185L13.7062 17.0892H15.3554L13.6754 19.3231L9.87852 14.1046C9.26929 13.2677 9.79237 12.1785 10.8262 12.1908H22.4324L24.1985 9.74154H9.79237C7.0416 9.74154 5.49083 12.7877 7.10929 15.0092L11.9462 21.6739L10.297 23.9077C10.297 23.9077 4.70929 16.2831 4.22929 15.4646C3.76775 14.6646 3.52775 14.2892 3.29391 13.3292C2.90006 11.6308 3.54006 9.7477 3.54006 9.7477H0.998526C0.998526 9.7477 0.752372 10.5169 0.635449 12.0123C0.512372 13.5938 0.967757 15.0154 1.64468 16.3138C1.98929 16.9662 6.72775 23.7538 9.27545 27.2308C9.79237 27.9385 10.8447 27.9385 11.3678 27.2369L13.6693 24.1477L14.1493 24.8431L15.8908 27.2431C16.3831 27.9323 17.4047 27.9446 17.9154 27.2677L25.9462 16.0185C26.8693 14.7754 28.6908 12.3877 30.1801 9.7477C31.5031 7.40308 31.3985 4.37539 31.3801 4.26462Z" fill="#E22134"/>
</svg>
