<svg width="47" height="46" viewBox="0 0 47 46" fill="none" xmlns="http://www.w3.org/2000/svg">
<path d="M42.9 8.99999C43.6 8.39999 44.5 8.39999 45.3 8.89999C46 9.39999 46.3 10.3 46 11.2L37.3 36.3C37.1 37 36.5 37.5 35.8 37.7C35.6 37.8 35.4 37.8 35.2 37.8C34.7 37.8 34.2 37.6 33.8 37.3L28.4 33C27.7 32.4 27.6 31.3 28.1 30.6C28.6 29.9 29.8 29.7 30.5 30.3L34.6 33.6L41.1 14.9L13.3 37.3C12.7 37.8 12 37.9 11.3 37.7C10.6 37.5 10 37 9.8 36.3L1.1 11.2C0.8 10.3 1.1 9.39999 1.8 8.89999C2.6 8.39999 3.5 8.39999 4.2 8.99999L13 16.1L22.5 8.39999C23.1 7.89999 24 7.89999 24.6 8.39999L29.2 12.2C29.9 12.8 30 13.9 29.5 14.6C28.9 15.3 27.8 15.5 27.1 14.9L23.5 12L14 19.6C13.4 20.1 12.5 20.1 11.9 19.6L6 14.9L12.5 33.6L42.9 8.99999Z" fill="#1348C2"/>
</svg>
