<svg width="32" height="32" viewBox="0 0 32 32" fill="none" xmlns="http://www.w3.org/2000/svg">
<path d="M0 0H32V32H0V0Z" fill="#0097F5"/>
<path d="M14.1617 18.1787L12.2281 11.697L12.2008 11.6017H10.7847L8.85106 18.1787L6.74042 11.697L6.71319 11.6017H5.09277L8.07489 20.5889L8.10213 20.6706H9.58638L11.5064 14.3387L13.3855 20.5753L13.4128 20.6706H14.897L17.8519 11.7787L17.92 11.6017H16.2996L14.1617 18.1787ZM23.2851 11.5336C21.406 11.5336 19.9217 12.2008 19.4996 12.4187L19.4315 12.4596V20.766H20.9702V13.3855C21.7191 13.1677 22.4545 13.0587 23.1489 13.0587C25.1506 13.0587 25.3821 14.1072 25.3821 14.8834V20.7523H26.9072V14.8834C26.9072 12.7455 25.5864 11.5336 23.2851 11.5336V11.5336Z" fill="white"/>
</svg>
