<svg width="32" height="32" viewBox="0 0 32 32" fill="none" xmlns="http://www.w3.org/2000/svg">
<path d="M16 0L30.1413 8V24L16 32L1.85864 24V8L16 0Z" fill="white"/>
<path d="M27.6159 23.448L16.4666 29.7547V24.8427L23.4133 21.0214L27.6159 23.448ZM28.3786 22.7574V9.56803L24.2986 11.9227V20.4L28.3786 22.7574ZM4.33859 23.448L15.4879 29.7547V24.8427L8.54126 21.0214L4.33859 23.448V23.448ZM3.57593 22.7574V9.56803L7.65593 11.9227V20.4L3.57593 22.7574V22.7574ZM4.05326 8.71469L15.4879 2.24536V6.99469L8.16259 11.024L8.10659 11.056L4.05326 8.71469V8.71469ZM27.9013 8.71469L16.4666 2.24536V6.99469L23.7919 11.024L23.8479 11.056L27.9013 8.71469V8.71469Z" fill="#8ED6FB"/>
<path d="M15.4881 23.7254L8.63477 19.9574V12.4908L15.4881 16.4481V23.7254ZM16.4668 23.7254L23.3201 19.9574V12.4908L16.4668 16.4481V23.7254ZM9.09877 11.6268L15.9788 7.84277L22.8588 11.6268L15.9788 15.6001L9.09877 11.6268V11.6268Z" fill="#1C78C0"/>
</svg>
