<svg width="32" height="32" viewBox="0 0 32 32" fill="none" xmlns="http://www.w3.org/2000/svg">
<path d="M14.0322 15.0696C15.92 15.0696 17.4504 13.5393 17.4504 11.6515C17.4504 9.76365 15.92 8.23328 14.0322 8.23328C12.1444 8.23328 10.614 9.76365 10.614 11.6515C10.614 13.5393 12.1444 15.0696 14.0322 15.0696Z" fill="#36B24A"/>
<path d="M13.832 30.1701C9.83844 30.1701 4.42928 24.8197 2.06011 20.9576C0.427533 18.2964 0.00164226 16.1559 0.79466 14.5966C1.39742 13.4109 2.31437 12.9978 2.97822 12.8605C5.57953 12.3211 8.81153 14.8555 13.8687 19.037C14.9334 19.9179 16.0744 20.861 17.2188 21.7559C17.8606 19.652 18.4168 17.2625 18.9003 15.1854C20.5718 8.00461 22.0159 1.80359 26.0886 1.80359C27.439 1.80359 29.2979 2.51632 30.4854 5.91006C31.1784 7.89173 31.5606 10.6123 31.5606 13.5709C31.5606 20.8564 29.3788 28.6976 24.5887 28.6976C22.7903 28.6976 20.7371 27.737 18.5768 26.3168C17.4242 28.6661 15.944 30.1701 13.832 30.1701ZM3.36862 15.9051C3.20862 16.2199 3.24353 17.3649 4.52121 19.4478C6.90201 23.3285 11.6008 27.2826 13.832 27.2826C14.7106 27.2826 15.4943 26.2178 16.1936 24.6155C14.8142 23.5659 13.4137 22.4075 12.0278 21.2619C9.03728 18.788 4.93837 15.4024 3.56528 15.6869C3.53153 15.6939 3.46928 15.7073 3.36862 15.9051ZM19.6758 23.5741C21.5731 24.8802 23.3296 25.8106 24.5881 25.8106C26.7641 25.8106 28.6731 20.0913 28.6731 13.5714C28.6731 10.9294 28.349 8.54744 27.7596 6.86424C27.2837 5.50395 26.6588 4.69173 26.088 4.69173C24.3077 4.69173 22.7461 11.4007 21.7122 15.84C21.0722 18.5879 20.4456 21.2788 19.6758 23.5741Z" fill="#37B34A"/>
<path d="M24.5858 28.6975C21.0181 28.6975 16.4467 24.9174 12.0261 21.2619C9.03553 18.7892 4.93778 15.3995 3.56294 15.6875C3.5292 15.6945 3.46694 15.7073 3.36629 15.9051C3.0044 16.6161 2.13574 16.8994 1.42476 16.5375C0.714362 16.1762 0.431017 15.3076 0.792326 14.5966C1.39509 13.4108 2.31204 12.9977 2.97589 12.8604C5.57836 12.3211 8.80978 14.8555 13.8658 19.037C17.5149 22.0549 22.0566 25.8105 24.5852 25.8105C25.3823 25.8105 26.0287 26.4569 26.0287 27.254C26.0293 28.0511 25.3829 28.6975 24.5858 28.6975Z" fill="url(#paint0_linear_3721_45)"/>
<defs>
<linearGradient id="paint0_linear_3721_45" x1="4.9896" y1="24.9071" x2="20.401" y2="17.7207" gradientUnits="userSpaceOnUse">
<stop offset="0.0885" stop-color="#37B34A" stop-opacity="0"/>
<stop offset="0.1692" stop-color="#25A245" stop-opacity="0.1821"/>
<stop offset="0.2923" stop-color="#118D40" stop-opacity="0.4602"/>
<stop offset="0.4139" stop-color="#04813D" stop-opacity="0.7349"/>
<stop offset="0.5312" stop-color="#007D3C"/>
<stop offset="0.7134" stop-color="#027F3D" stop-opacity="0.6114"/>
<stop offset="0.8154" stop-color="#0A873F" stop-opacity="0.3937"/>
<stop offset="0.8976" stop-color="#189542" stop-opacity="0.2183"/>
<stop offset="0.9689" stop-color="#2CA847" stop-opacity="0.0664"/>
<stop offset="1" stop-color="#37B34A" stop-opacity="0"/>
</linearGradient>
</defs>
</svg>
