<svg xmlns="http://www.w3.org/2000/svg" viewBox="0 0 254.12 117.33">
    <defs>
        <style>.cls-1{fill:#1ab394;}.cls-2{fill:#a7a9ac;}</style>
    </defs>
    <title>logo</title>
    <g id="Layer_2" >
        <g id="Layer_3" >
            <path class="cls-1"
                  d="M95,67a90.66,90.66,0,0,1,10.28,1.69l3.79-1.41c10-3.75,14.25-17.22,9.43-30.11s-16.84-20.3-26.87-16.55l-3.11,1.16c-2.44,2.57-5.76,5.94-7.38,7.49s-6.42-1.85-8.21-6.16L67.42,9.85A13.83,13.83,0,0,0,55.65,2H6C1.32,2-1.15,5.58.52,9.95l37.94,99.44A13.32,13.32,0,0,0,50,117.33h53.63c4.68,0,7-3.53,5.24-7.85l-14-33.7C93,71.46,93.7,67,95,67Z"/>
            <path class="cls-2"
                  d="M161.33,42.63l-3-1.51c-3.54-.07-7.91-.1-9.71-.07s-3.08-4.75-1.36-9.1l9.08-23C158.09,4.56,155.66,1,151,1H99.33A15.11,15.11,0,0,0,87,8.61L84,14.73c-2.09,4.18-3.48,8.37-3.08,9.3s1.09,1.27,1.53.75,4-4.7,6.77-7.65l3.58-1.34c11.53-4.31,25.36,4.21,30.9,19s.69,30.32-10.84,34.63A30.42,30.42,0,0,1,108.48,71c-4.6-.83-6.88,2-5.05,6.33l7.38,17.42c1.82,4.31,4.52,7.83,6,7.83s4.08-3.56,5.8-7.91l4-10.17c1.71-4.35,3.3-7.69,3.52-7.41s2.65,4.28,4.93,8.11l3.6,1.84c9.53,4.87,22.33-1.11,28.59-13.36S170.86,47.5,161.33,42.63Z"/>
            <path class="cls-1"
                  d="M219.29,49.94c-4.82-12.89-16.84-20.3-26.87-16.55l-3.11,1.16c-2.44,2.57-5.24,5.65-6.22,6.84s-4.72-.92-6.46-5.26l-6-14.9c-1.74-4.34-4.51-7.89-6.16-7.89s-4.42,3.55-6.15,7.9l-3.61,9c-1.73,4.34-2.71,7.87-2.16,7.83s5.5-.21,9.57-.13l3.4,1.74c11,5.6,14,21.56,6.8,35.65s-21.92,21-32.88,15.37l-2.67-1.37c-2.14-2.43-4.58-2.68-5.43-.55s-.1,7.41,1.67,11.74l3.24,7.92A13.72,13.72,0,0,0,148,116.33h46.66c4.68,0,9.25-1.27,10.17-2.83s.24-6.39-1.5-10.73l-6-15.08c-1.74-4.34-2.64-8-2-8a102,102,0,0,1,10.78,1.82l3.79-1.41C219.89,76.31,224.11,62.83,219.29,49.94Z"/>
            <path class="cls-1"
                  d="M194.16,0A10,10,0,0,0,186,5.09l-6.32,12.83a14.27,14.27,0,0,0-.33,10.32L181,32.35c1.2,2.88,2.42,4.92,2.72,4.53s2.86-3.43,5-5.69c0,0,1.2-1.26,4.78-2.6,11.53-4.31,25.36,4.21,30.9,19s.69,30.32-10.84,34.63a13.72,13.72,0,0,1-6,1.09c-3.09-.43-4.64,1.58-3.44,4.46l3.53,8.48c1.2,2.88,3.6,5.23,5.34,5.23s4.1-2.38,5.23-5.28l35.54-91c1.13-2.9-.49-5.28-3.61-5.28Z"/>
        </g>
    </g>
</svg>
