<svg width="2500" height="2500" viewBox="0 0 2500 2500" fill="none" xmlns="http://www.w3.org/2000/svg">
<path d="M2073.34 291C1878.3 291 1715.75 420.668 1665.9 614.73C1576.03 323.129 1346 291.225 1250.04 291.225C1154.1 291.225 924.16 323.129 834.121 614.662C784.248 420.785 621.68 291.225 426.689 291.225C187.422 291.225 0 462.27 0 680.619C0 777.182 23.8574 854.271 52.6855 937.885L377.559 1856.6C486.338 2161.28 707.949 2206.78 830.352 2206.78C1022.36 2206.78 1171.98 2108.44 1250.01 1934.15C1328.11 2109.22 1477.74 2208.06 1669.66 2208.06C1791.91 2208.06 2013.3 2162.48 2122.64 1856.67L2449.3 934.838L2451.85 927.23C2455.58 915.414 2459.35 904.33 2462.9 893.803C2480.29 842.338 2500 784.008 2500 712.523C2500 468.285 2320.57 291 2073.34 291ZM2227.33 856.186L1900.67 1778.02C1860.79 1889.54 1794.46 1972.57 1669.66 1972.57C1552.73 1972.57 1483.7 1907.42 1449.21 1795.78L1252.64 1182.25H1247.29L1050.85 1795.78C1016.29 1907.44 947.236 1971.28 830.342 1971.28C705.518 1971.28 639.131 1888.95 599.316 1777.42L275.322 861.166C248.76 784.115 235.488 736.439 235.488 680.6C235.488 595.6 315.205 526.713 426.689 526.713C519.658 526.713 586.045 588.002 607.295 678.295L827.734 1409.13H833.008L1056.1 694.398C1085.37 590.834 1138.46 526.713 1250.04 526.713C1361.56 526.713 1414.66 590.727 1443.87 694.291L1666.97 1409.13H1672.25L1892.75 678.295C1913.97 588.002 1980.35 526.488 2073.34 526.488C2184.82 526.488 2264.51 595.629 2264.51 712.523C2264.51 754.994 2245.86 797.66 2227.33 856.176V856.186Z" fill="#2F3337"/>
</svg>
