<svg width="32" height="32" viewBox="0 0 32 32" fill="none" xmlns="http://www.w3.org/2000/svg">
<path d="M24.1279 19.3302V18.8182V18.2422H25.9199C25.9839 18.2422 26.0479 18.2422 26.1119 18.2422C26.3039 18.2422 26.4959 18.1782 26.7519 18.1782V18.8822V19.4582C26.4959 19.3942 26.2399 19.3942 25.9199 19.3942L24.1279 19.3302Z" fill="#72B12D"/>
<path d="M24.064 13.2506V12.8666V12.2906H25.856C25.92 12.2906 25.984 12.2906 26.048 12.2906C26.24 12.2906 26.496 12.2266 26.688 12.2266V12.8666V13.3146C26.432 13.2506 26.176 13.2506 25.856 13.2506H24.064Z" fill="#72B12D"/>
<path d="M25.344 5.37842C25.472 5.44242 25.6 5.44242 25.728 5.44242H26.88V6.01842V7.23442C26.56 7.17042 26.24 7.10642 25.92 7.10642H25.344V5.69842V5.37842Z" fill="#72B12D"/>
<path d="M28.9921 4.93055H26.0481C24.7041 4.93055 23.5521 3.77855 23.6161 2.43455C23.6161 1.09055 24.7681 -0.0614547 26.1121 0.00254529H29.0561C30.4001 0.00254529 31.5521 1.15455 31.4881 2.49855C31.4881 3.84255 30.4001 4.93055 28.9921 4.93055Z" fill="#F3E100"/>
<path d="M26.112 11.5866H1.92C0.896 11.5866 0 10.7546 0 9.66658C0 8.64258 0.832 7.74658 1.92 7.74658H26.176C27.2 7.74658 28.096 8.57858 28.096 9.66658C28.032 10.7546 27.2 11.5866 26.112 11.5866Z" fill="#72B12D"/>
<path d="M26.1121 17.6667H3.13606C2.11206 17.6667 1.21606 16.8347 1.21606 15.7467C1.21606 14.7227 2.04806 13.8267 3.13606 13.8267H26.1121C27.1361 13.8267 28.0321 14.6587 28.0321 15.7467C28.0321 16.8347 27.2001 17.6667 26.1121 17.6667Z" fill="#F6AA00"/>
<path d="M26.1121 23.8107H4.41609C3.39209 23.8107 2.49609 22.9787 2.49609 21.8907C2.49609 20.8667 3.32809 19.9707 4.41609 19.9707H26.1121C27.1361 19.9707 28.0321 20.8027 28.0321 21.8907C28.0321 22.9787 27.2001 23.8107 26.1121 23.8107Z" fill="#F3E100"/>
<path d="M6.40012 12.2266H3.77612V13.2506H6.40012V12.2266Z" fill="#72B12D"/>
<path d="M6.40012 18.3066H3.77612V19.3306H6.40012V18.3066Z" fill="#72B12D"/>
<path d="M22.8481 24.3867C21.3121 24.3867 20.0321 25.3467 19.5201 26.6907H10.3681C9.85605 25.3467 8.51205 24.3867 7.04005 24.3867C5.05605 24.3867 3.45605 25.9867 3.45605 27.9707C3.45605 29.9547 5.05605 31.5547 7.04005 31.5547C8.96005 31.5547 10.5601 30.0187 10.6241 28.0987H19.2641C19.3281 30.0187 20.9281 31.5547 22.8481 31.5547C24.8321 31.5547 26.4321 29.9547 26.4321 27.9707C26.4321 25.9867 24.8321 24.3867 22.8481 24.3867Z" fill="#00B5ED"/>
</svg>
