<svg width="32" height="32" viewBox="0 0 32 32" fill="none" xmlns="http://www.w3.org/2000/svg">
<path d="M31.04 19.68C30.72 19.712 30.464 19.744 30.24 19.744C29.984 19.744 29.76 19.712 29.632 19.616C29.504 19.52 29.376 19.424 29.312 19.264C29.248 19.104 29.216 18.784 29.216 18.272V12.128H31.04V10.752H29.248V7.04L27.456 8.096V10.72H26.144V12.096H27.456V18.176C27.456 19.232 27.52 19.936 27.68 20.288C27.84 20.608 28.064 20.896 28.448 21.088C28.8 21.28 29.312 21.408 29.952 21.408C30.336 21.408 30.816 21.344 31.296 21.248L31.04 19.68ZM24.352 21.28H26.144V6.72H24.352V21.28ZM16.224 14.976C16.288 14.048 16.608 13.312 17.152 12.768C17.728 12.224 18.4 11.936 19.232 11.936C20.128 11.936 20.896 12.288 21.44 12.96C21.824 13.408 22.048 14.08 22.112 14.944H16.224V14.976ZM22.112 17.888C21.824 18.656 21.472 19.2 20.992 19.52C20.512 19.872 19.968 20.032 19.296 20.032C18.4 20.032 17.664 19.712 17.088 19.104C16.48 18.496 16.16 17.6 16.096 16.448H24C24 16.224 24 16.064 24 15.968C24 14.24 23.552 12.864 22.656 11.904C21.76 10.944 20.608 10.464 19.2 10.464C17.728 10.464 16.544 10.944 15.616 11.936C14.688 12.928 14.24 14.304 14.24 16.064C14.24 17.792 14.688 19.104 15.616 20.064C16.512 21.024 17.76 21.472 19.296 21.472C20.512 21.472 21.536 21.184 22.336 20.576C23.136 19.968 23.68 19.136 23.968 18.048L22.112 17.888ZM3.872 21.28L0.639999 10.72H2.496L4.192 16.8L4.832 19.072C4.864 18.944 5.056 18.24 5.376 16.896L7.04 10.72H8.896L10.496 16.832L11.04 18.848L11.648 16.8L13.472 10.72H15.232L11.84 21.28H9.984L8.32 14.976L7.904 13.184L5.76 21.28H3.872Z" fill="black"/>
<path d="M4.384 24.192C4.448 24.192 4.48 24.224 4.512 24.224C4.544 24.224 4.576 24.224 4.608 24.224C4.704 24.224 4.8 24.192 4.864 24.096C4.928 24.032 4.96 23.904 4.96 23.808C4.96 23.712 4.928 23.648 4.896 23.584C4.864 23.52 4.8 23.456 4.736 23.424C4.736 23.36 4.672 23.36 4.576 23.36C4.512 23.36 4.448 23.36 4.384 23.392V24.192V24.192ZM4.384 24.288V24.864C4.384 24.992 4.384 25.056 4.416 25.088C4.448 25.12 4.512 25.152 4.576 25.152H4.64V25.216H3.84V25.152H3.904C4 25.152 4.032 25.12 4.096 25.056C4.128 25.024 4.128 24.96 4.128 24.832V23.552C4.128 23.424 4.128 23.36 4.096 23.328C4.064 23.296 4 23.264 3.936 23.264H3.84V23.2H4.576C4.768 23.2 4.896 23.232 4.992 23.264C5.088 23.296 5.184 23.36 5.248 23.456C5.312 23.552 5.344 23.648 5.344 23.776C5.344 23.936 5.28 24.064 5.184 24.16C5.088 24.256 4.928 24.32 4.736 24.32C4.704 24.32 4.64 24.32 4.576 24.32C4.512 24.32 4.448 24.288 4.384 24.288Z" fill="black"/>
<path d="M11.104 25.152V25.216H10.24V25.152H10.304C10.4 25.152 10.432 25.12 10.496 25.088C10.528 25.056 10.528 24.992 10.528 24.864V23.584C10.528 23.488 10.528 23.424 10.496 23.392C10.496 23.36 10.464 23.36 10.432 23.328C10.4 23.296 10.336 23.296 10.304 23.296H10.24V23.232H11.104V23.296H11.04C10.944 23.296 10.912 23.328 10.848 23.36C10.816 23.392 10.816 23.456 10.816 23.584V24.864C10.816 24.96 10.816 25.024 10.848 25.056C10.848 25.088 10.88 25.088 10.912 25.12C10.944 25.152 11.008 25.152 11.04 25.152H11.104Z" fill="black"/>
<path d="M17.12 24.128L17.536 24.768C17.664 24.928 17.728 25.056 17.792 25.088C17.856 25.12 17.92 25.152 18.016 25.152V25.216H17.152V25.152C17.216 25.152 17.248 25.152 17.28 25.12C17.312 25.12 17.312 25.088 17.344 25.088C17.344 25.056 17.376 25.056 17.376 25.024C17.376 24.992 17.376 24.992 17.376 24.96C17.376 24.928 17.344 24.896 17.28 24.832L16.96 24.32L16.544 24.864C16.512 24.928 16.48 24.96 16.48 24.992C16.48 25.024 16.48 25.024 16.48 25.056C16.48 25.088 16.48 25.12 16.512 25.12C16.544 25.152 16.576 25.152 16.672 25.152V25.216H15.968V25.152C16.032 25.152 16.064 25.152 16.096 25.12C16.16 25.088 16.224 25.056 16.256 25.024C16.32 24.992 16.384 24.928 16.448 24.832L16.928 24.256L16.48 23.68C16.384 23.52 16.288 23.424 16.224 23.392C16.16 23.328 16.064 23.328 15.968 23.328V23.264H16.896V23.328C16.832 23.328 16.768 23.328 16.736 23.36C16.704 23.392 16.704 23.392 16.704 23.424C16.704 23.456 16.736 23.52 16.768 23.584L17.056 24.032L17.408 23.584C17.44 23.52 17.472 23.488 17.472 23.488C17.472 23.456 17.472 23.456 17.472 23.424C17.472 23.392 17.472 23.392 17.44 23.36C17.44 23.328 17.408 23.328 17.376 23.328C17.344 23.328 17.312 23.328 17.248 23.328V23.264H17.952V23.328C17.888 23.328 17.856 23.328 17.824 23.36C17.76 23.392 17.728 23.424 17.664 23.456C17.632 23.488 17.568 23.552 17.472 23.68L17.12 24.128Z" fill="black"/>
<path d="M23.392 23.328V24.096H23.84C23.968 24.096 24.032 24.064 24.064 24.032C24.128 24 24.128 23.904 24.16 23.808H24.224V24.48H24.16C24.16 24.384 24.128 24.32 24.128 24.288C24.096 24.256 24.096 24.224 24.032 24.192C24 24.16 23.936 24.16 23.84 24.16H23.392V24.8C23.392 24.896 23.392 24.928 23.392 24.96C23.392 24.992 23.424 24.992 23.424 24.992C23.456 24.992 23.488 25.024 23.52 25.024H23.84C23.936 25.024 24.032 25.024 24.096 24.992C24.16 24.992 24.192 24.96 24.256 24.896C24.32 24.832 24.384 24.736 24.448 24.608H24.512L24.352 25.088H22.816V25.024H22.88C22.912 25.024 22.976 25.024 23.008 24.992C23.04 24.992 23.072 24.96 23.072 24.928C23.072 24.896 23.104 24.832 23.104 24.736V23.456C23.104 23.328 23.104 23.264 23.072 23.232C23.04 23.2 22.976 23.168 22.912 23.168H22.848V23.104H24.384L24.416 23.552H24.32C24.288 23.456 24.288 23.392 24.256 23.328C24.224 23.296 24.192 23.264 24.16 23.232C24.128 23.232 24.064 23.2 23.968 23.2H23.392V23.328Z" fill="black"/>
<path d="M31.04 24.672H31.104L30.944 25.216H29.408V25.152H29.472C29.568 25.152 29.632 25.12 29.664 25.056C29.696 25.024 29.696 24.96 29.696 24.832V23.552C29.696 23.424 29.696 23.36 29.664 23.328C29.632 23.296 29.568 23.264 29.504 23.264H29.44V23.2H30.336V23.264C30.24 23.264 30.144 23.264 30.112 23.296C30.08 23.328 30.048 23.328 30.016 23.36C29.984 23.392 29.984 23.456 29.984 23.584V24.832C29.984 24.928 29.984 24.96 30.016 24.992C30.016 25.024 30.048 25.024 30.08 25.024C30.112 25.024 30.176 25.024 30.304 25.024H30.4C30.56 25.024 30.656 25.024 30.72 24.992C30.784 24.96 30.848 24.928 30.88 24.864C30.944 24.864 31.008 24.768 31.04 24.672Z" fill="black"/>
</svg>
