<svg xmlns="http://www.w3.org/2000/svg" viewBox="0 0 64 64">
  <path fill="#003da6" d="M63 40.6C61.9 19.3 48.4 5.9 32 5.9 15.7 5.9 2.2 19.3 1.1 40.6v-.1C1 41.2 1 42.1 1 43c0 9 3.7 15.1 14.3 15.1S29.5 51.9 29.5 43s-3.6-15.2-14.2-15.2c-5 0-8.5 1.4-10.7 3.7C8.5 17.2 19.3 10.7 32 10.7s23.5 6.5 27.4 20.8c-2.2-2.4-5.7-3.7-10.7-3.7C38 27.8 34.5 34 34.5 43s3.6 15.2 14.2 15.2S63 52 63 43v-2.4zm-47.7-7.4c6 0 7.2 5.4 7.2 9.8s-1.2 9.7-7.2 9.7h-.1V33.2h.1zm33.5 19.5c-6 0-7.2-5.2-7.2-9.7s1.2-9.8 7.2-9.8v19.5z"/>
</svg>
