<svg width="32" height="32" viewBox="0 0 32 32" fill="none" xmlns="http://www.w3.org/2000/svg">
<path d="M16 0C7.16191 0 0 7.16191 0 16C0 24.8381 7.16191 32 16 32C24.8381 32 32 24.8381 32 16C32 7.16191 24.8381 0 16 0Z" fill="#BD3827"/>
<path d="M12.2412 24.0762L5.84125 12.3428C5.68887 12.0889 5.79046 11.7333 6.04442 11.5809C6.14601 11.5302 6.2476 11.5302 6.34919 11.5302H8.58411C8.93966 11.5302 9.29522 11.7333 9.4476 12.0381L14.4254 21.2317C14.5778 21.5365 14.5778 21.8921 14.4254 22.1968L13.2063 24.0762C13.0539 24.3302 12.6984 24.4317 12.4444 24.2794C12.3428 24.2286 12.292 24.1778 12.2412 24.0762Z" fill="white"/>
<path d="M21.3333 18.5397L17.9301 12.2921C17.7777 12.0381 17.8793 11.6825 18.1841 11.5302C18.2857 11.4794 18.3873 11.4794 18.4381 11.4794H25.6508C25.9555 11.4794 26.2095 11.7333 26.2603 12.0381C26.2603 12.1397 26.2095 12.2413 26.1587 12.3429L22.3492 18.5905C22.1968 18.8444 21.8412 18.9968 21.5873 18.8444C21.4349 18.7429 21.3333 18.6921 21.3333 18.5397Z" fill="white"/>
<path d="M18.1333 23.7714L11.8857 12.3428C11.7333 12.0889 11.8349 11.7333 12.1397 11.5809C12.2412 11.5302 12.3428 11.5302 12.3936 11.5302H14.6285C14.9841 11.5302 15.3397 11.7333 15.492 12.0381L20.3174 20.927C20.4698 21.2317 20.4698 21.5873 20.3174 21.8921L19.1492 23.8222C18.9968 24.127 18.6412 24.2286 18.3873 24.0762C18.2857 23.9746 18.1841 23.9238 18.1333 23.7714Z" fill="white"/>
</svg>
