<svg width="32" height="32" viewBox="0 0 32 32" fill="none" xmlns="http://www.w3.org/2000/svg">
<path d="M32 0H0V32H32V0Z" fill="white"/>
<path d="M32 0H0V32H32V0Z" fill="white"/>
<path d="M32 0H0V32H32V0Z" fill="white"/>
<path fill-rule="evenodd" clip-rule="evenodd" d="M14.5274 17.0317C14.5274 17.0317 13.5894 22.9823 9.06169 27.4993C6.98069 29.575 4.16235 30.1393 2.77202 28.7587C1.38169 27.3773 1.94269 24.5707 4.02369 22.4947C8.55135 17.978 14.5274 17.0317 14.5274 17.0317ZM16.8034 17.0317C16.8034 17.0317 22.7794 17.978 27.307 22.4947C29.388 24.5707 29.949 27.3773 28.5587 28.7587C27.1684 30.1393 24.35 29.575 22.269 27.4993C17.7414 22.9823 16.8034 17.0317 16.8034 17.0317ZM9.06169 4.29433C13.5894 8.81133 14.5274 14.762 14.5274 14.762C14.5274 14.762 8.55135 13.8157 4.02369 9.29899C1.94269 7.22299 1.38169 4.41633 2.77202 3.03499C4.16235 1.65433 6.98069 2.21866 9.06169 4.29433ZM28.5587 3.03499C29.949 4.41633 29.388 7.22299 27.307 9.29899C22.7794 13.8157 16.8034 14.762 16.8034 14.762C16.8034 14.762 17.7414 8.81133 22.269 4.29433C24.35 2.21866 27.1684 1.65433 28.5587 3.03499Z" fill="#F63749"/>
</svg>
