<svg width="32" height="32" viewBox="0 0 32 32" fill="none" xmlns="http://www.w3.org/2000/svg">
<path d="M31.5767 8.82239C32.2629 4.70422 29.9377 3.56006 29.9377 3.56006C29.9377 3.56006 30.0523 6.91579 23.8766 7.64036C18.387 8.28868 0.0510564 7.79285 0.0510564 7.79285L5.95972 14.5806C7.56085 16.4109 8.39953 16.6397 10.1915 16.7538C11.983 16.8684 15.9477 16.8305 18.6541 16.6397C21.5892 16.4109 25.7827 15.4576 28.6037 13.246C30.014 12.1019 31.2717 10.5386 31.5767 8.82239V8.82239ZM31.9579 13.0936C31.9579 13.0936 31.2339 14.5806 27.5363 16.9068C25.973 17.8979 22.695 18.9658 18.5016 19.3471C16.2143 19.5758 12.0592 19.3849 10.2678 19.3849C8.47577 19.3849 7.63709 19.7667 6.03596 21.597L0.0131836 28.308H3.63453C5.19728 28.308 14.9565 28.8801 19.2641 27.698C33.3303 23.8086 31.9579 13.0936 31.9579 13.0936V13.0936Z" fill="#3EA9F5"/>
</svg>
