<?xml version="1.0" encoding="utf-8"?>
<!-- Generator: Adobe Illustrator 16.0.0, SVG Export Plug-In . SVG Version: 6.00 Build 0)  -->
<!DOCTYPE svg PUBLIC "-//W3C//DTD SVG 1.1//EN" "http://www.w3.org/Graphics/SVG/1.1/DTD/svg11.dtd">
<svg version="1.1" id="Ebene_1" xmlns="http://www.w3.org/2000/svg" xmlns:xlink="http://www.w3.org/1999/xlink" x="0px" y="0px"
	 width="400px" height="400px" viewBox="0 -117.667 400 400" enable-background="new 0 -117.667 400 400" xml:space="preserve">
<g>
	<g>
		<path fill="#049AE2" d="M58.09,46.787l14.333,43c1.057,3.168,1.66,6.486,2.564,9.655h0.302c0.904-3.169,1.509-6.64,2.564-9.655
			l16.445-44.508l-0.905-2.414L61.71,46.032C60.353,46.032,59.146,46.334,58.09,46.787z"/>
		<path fill="#049AE2" d="M125.227,99.291h0.304c1.056-3.621,1.81-7.242,3.019-10.713l17.5-50.995l-37.869,3.772l14.634,47.223
			C123.87,92.048,124.473,95.82,125.227,99.291z"/>
		<path fill="#049AE2" d="M281.684,133.236c2.11,0.906,6.636,1.51,9.653,1.51c6.64,0,12.824-2.717,18.559-17.953l0.454-1.51
			l-25.197-61.255h-7.394V43.317h31.231v10.711h-7.693l13.125,35.153c1.357,3.471,2.111,7.242,3.018,10.26h0.301
			c0.604-3.018,1.813-6.789,3.018-10.26l12.069-35.153h-8.898V43.317h17.501l-1.208-12.372c-0.604-6.789-7.694-11.768-15.691-11.013
			L161.136,36.226l-28.515,75.587h-16.294L100.636,62.93h-0.302l-18.407,48.731H65.633L49.188,67.607l8.298,83.583
			c0.604,6.789,7.695,11.769,15.69,11.015l208.507-20.52L281.684,133.236L281.684,133.236z M206.397,111.662h-32.891v-10.711h8.901
			l0.303-46.771H172.3V43.467h25.045l-0.304,57.633h9.205v10.562H206.397z M241.702,113.32c-11.618,0-20.521-2.563-24.895-4.072
			l-0.304-18.559h13.128l0.301,9.053c2.563,0.756,7.243,2.717,14.633,2.717c6.942,0,13.882-2.564,13.882-9.656
			c0-5.732-4.375-7.694-9.807-8.75l-11.015-1.811c-10.562-1.961-22.026-5.884-22.026-19.01c0-15.993,14.032-21.574,29.119-21.574
			c11.162,0,19.764,3.168,23.836,4.526l0.304,16.747h-13.128l-0.3-8.147c-2.113-1.207-5.281-2.263-11.166-2.263
			c-6.789,0-13.879,1.509-13.879,8.298c0,5.281,4.526,6.639,8.749,7.695l16.596,3.168c7.694,1.509,16.598,4.828,16.598,18.858
			C272.328,108.494,256.79,113.32,241.702,113.32z"/>
		<path fill="#049AE2" d="M343.238,61.874l-17.955,49.485c-2.263,6.188-6.789,19.012-10.711,24.141
			c-0.904,1.207-1.96,2.264-3.018,3.318l24.442-2.412c7.994-0.755,13.88-6.941,13.124-13.882L343.238,61.874z"/>
	</g>
	<circle fill="#049AE2" cx="186.634" cy="12.689" r="11.919"/>
</g>
</svg>
