<svg width="32" height="32" viewBox="0 0 32 32" fill="none" xmlns="http://www.w3.org/2000/svg">
<path fill-rule="evenodd" clip-rule="evenodd" d="M4.9231 31.9058H27.6185V28.3076H16.2708H4.9231V31.9058Z" fill="black"/>
<path fill-rule="evenodd" clip-rule="evenodd" d="M25.9875 8.75687C25.9875 12.986 24.34 15.7158 21.0463 16.95L27.6218 26.387H20.4884L14.7313 17.9683H10.7184V26.387H4.9231V0H14.7683C18.8039 0 21.6843 0.692058 23.4058 2.07617C25.1261 3.45909 25.9875 5.68639 25.9875 8.75687ZM19.0034 11.8909C19.7214 11.236 20.0798 10.1986 20.0798 8.77726C20.0798 7.35477 19.7095 6.37965 18.9664 5.85071C18.2221 5.32297 16.9235 5.0591 15.0646 5.0591H10.7184V12.8732H14.9547C16.9355 12.8732 18.2842 12.5458 19.0034 11.8909Z" fill="black"/>
</svg>
