<svg width="32" height="32" viewBox="0 0 32 32" fill="none" xmlns="http://www.w3.org/2000/svg">
<path d="M23.171 10.5518C23.6359 10.9908 24.1485 11.7316 24.2802 11.9278L24.3128 11.9762L25.7968 14.195C25.8687 14.3103 25.9629 14.4365 26.1132 14.4365C26.2448 14.4365 26.3336 14.3399 26.4018 14.2385L26.4296 14.195L27.9131 11.9762C27.9131 11.9762 28.5162 11.0608 29.0554 10.5512C29.8705 9.78143 31.4904 10.038 31.5943 10.0555L31.5991 10.0562L27.5677 16.278L31.5888 22.48C31.5888 22.48 29.8475 22.7118 29.0047 21.9161C28.4903 21.4306 27.9638 20.6542 27.9167 20.5842L27.9131 20.5793L26.4296 18.3611C26.3577 18.2451 26.2635 18.1195 26.1132 18.1195C25.9816 18.1195 25.8928 18.2162 25.8246 18.3176L25.7968 18.3611L24.3128 20.5793C24.3128 20.5793 23.7911 21.4071 23.2519 21.9161C22.4368 22.6865 20.7511 22.4939 20.6436 22.4806H20.6376L24.6587 16.278L20.6273 10.0562C20.6273 10.0562 22.3288 9.75608 23.171 10.5518ZM19.3099 12.2346V12.6789L19.3105 20.109C19.3045 21.6335 19.1475 21.9716 18.4628 22.323C17.9568 22.5826 17.1973 22.5017 17.1224 22.4933L17.1164 22.4927V14.1703C17.1164 13.7525 17.2552 13.4789 17.7648 13.2326C18.0691 13.0859 18.3523 12.973 18.6475 12.8075C19.1082 12.5479 19.3099 12.2346 19.3099 12.2346ZM2.04558 10.6002C2.52257 11.0349 2.68015 11.7147 2.69525 11.7854L2.69645 11.7914L4.3677 18.4728L5.75638 13.0044C5.89223 12.4229 6.13555 11.7045 6.52196 11.2184C6.99109 10.6273 7.92272 10.5651 8.09962 10.5603H8.13887C8.31517 10.5651 9.2474 10.6273 9.71653 11.2184C10.0637 11.6555 10.2962 12.2817 10.4374 12.8263L10.4815 13.0044L11.8708 18.4728L13.5414 11.7914C13.5414 11.7914 13.6888 11.0596 14.1935 10.6002C14.9826 9.88226 16.1515 10.0048 16.2343 10.0145H16.2385L13.0397 22.5011C13.0397 22.5011 11.9843 22.5796 11.4566 22.3019C10.7629 21.9372 10.4326 21.6558 10.0124 19.9562C9.87411 19.3971 9.64408 18.4365 9.40377 17.4318L9.31864 17.0756C8.93525 15.472 8.55125 13.8623 8.49449 13.6764C8.4474 13.5194 8.39125 13.1457 8.11955 13.1457C7.85328 13.1457 7.7917 13.5194 7.7434 13.6758C7.64558 13.9928 6.59985 18.442 6.22551 19.9562C5.80528 21.6552 5.47623 21.9366 4.78249 22.3019C4.27774 22.5675 3.29358 22.5078 3.20543 22.5017H3.1994L0 10.0145C0 10.0145 1.22687 9.85509 2.04558 10.6002ZM19.3105 10.0006C19.3105 10.8531 19.229 11.3597 18.7019 11.7528C18.5328 11.8783 18.2418 12.0709 17.9007 12.1965C17.4322 12.3698 17.1158 12.6808 17.1158 12.6808C17.1158 11.1278 17.3488 10.5651 17.9725 10.2325C18.3505 10.0302 18.9657 10.003 19.2078 10L19.3105 10.0006Z" fill="black"/>
</svg>
