<svg width="2122" height="2122" viewBox="0 0 2122 2122" fill="none" xmlns="http://www.w3.org/2000/svg">
<path d="M1882.04 211.009C1850.36 211.009 1818.77 210.926 1787.12 210.926C1712.07 210.759 1642.81 268.167 1589.84 313.685C1538.27 358.011 1494.08 411.736 1451.9 465.078C1436.77 423.568 1416.88 382.791 1396.24 345.555C1369.19 292.455 1316.13 241.254 1256.73 228.881C1226.65 222.549 1192.94 225.64 1162.41 225.64C1135.91 225.557 1060.72 225.64 1060.72 225.64C1060.72 225.64 985.412 225.557 958.966 225.64C928.388 225.64 894.768 222.557 864.648 228.881C805.24 241.254 752.19 292.455 725.169 345.555C704.506 382.791 684.592 423.568 669.495 465.086C627.318 411.736 583.108 358.02 531.533 313.685C478.541 268.159 409.352 210.759 334.23 210.926C302.594 210.926 270.949 211.009 239.312 211.009C194.102 211.076 148.951 211.134 103.708 211.217C70.7966 211.367 -2.10867 202.702 15.1386 256.285C19.3213 269.267 34.0523 280.915 42.401 291.697C51.9245 304.061 61.4397 316.526 69.6801 329.791C82.8604 350.938 95.611 372.35 107.924 394.014C137.561 446.322 162.541 501.505 191.969 554.081C256.734 670.062 326.007 783.378 409.71 886.862C471.534 963.183 546.189 1040.25 638.566 1078.13C568.827 1207.75 499.371 1337.55 429.865 1467.26C369.65 1579.45 309.476 1691.05 246.011 1801.44C242.961 1806.83 239.787 1812.11 236.929 1817.52C228.597 1833.23 216.682 1855.19 216.765 1873.26C216.832 1909.1 270.007 1910.17 295.478 1910.34C322.924 1910.5 350.453 1909.75 377.915 1909.48C425.658 1908.94 473.4 1908.31 521.118 1907.83C549.38 1907.51 578.101 1908.62 606.238 1905.93C677.827 1899.04 743.3 1863.24 785.543 1804.61C799.233 1785.54 927.604 1575 979.546 1489.95C999.168 1457.75 1060.72 1361.5 1060.72 1361.5C1060.72 1361.5 1122.18 1457.75 1141.85 1489.95C1193.75 1575 1322.15 1785.54 1335.83 1804.62C1378.12 1863.24 1443.53 1899.04 1515.14 1905.93C1543.3 1908.62 1571.97 1907.51 1600.23 1907.83C1647.93 1908.31 1695.68 1908.94 1743.46 1909.48C1770.92 1909.74 1798.43 1910.5 1825.92 1910.34C1851.32 1910.17 1904.59 1909.1 1904.63 1873.26C1904.74 1855.19 1892.85 1833.23 1884.4 1817.52C1881.52 1812.11 1878.39 1806.83 1875.35 1801.44C1811.94 1691.05 1751.74 1579.45 1691.57 1467.26C1621.98 1337.55 1552.52 1207.75 1482.73 1078.13C1575.14 1040.25 1649.81 963.192 1711.62 886.862C1795.4 783.378 1864.6 670.062 1929.41 554.081C1958.79 501.505 1983.77 446.322 2013.48 394.022C2025.77 372.347 2038.52 350.931 2051.71 329.791C2059.91 316.518 2069.46 304.061 2078.95 291.705C2087.38 280.915 2102.01 269.267 2106.25 256.285C2123.45 202.71 2050.65 211.367 2017.73 211.217C1972.46 211.134 1927.25 211.076 1882.05 211.009H1882.04Z" fill="#F9C638"/>
<path d="M1217.55 509.438C1222.39 508.749 1227.2 507.927 1231.99 506.971C1238.66 505.572 1245.21 503.678 1251.6 501.306C1268.96 495.248 1279.67 487.141 1287.36 480.992C1293.25 476.501 1297.68 471.41 1299.2 468.277C1257.29 469.052 1226.08 468.819 1205.46 467.211C1199.85 466.361 1195.76 480.884 1193.06 510.204C1192.77 512.462 1206.28 510.979 1217.55 509.438ZM1102.38 714.364H1102.32H1102.4H1102.38ZM1012.77 714.364H1012.65H1012.77ZM1005.98 704.815C1005.45 705.415 1005.16 706.185 1005.16 706.982C1005.18 707.441 1005.29 707.89 1005.5 708.301C1005.7 708.712 1005.99 709.074 1006.35 709.365C1008.33 711.098 1010.37 712.897 1012.76 714.364C1024.96 722.829 1039.97 727.295 1057.5 727.545C1075.35 727.295 1089.5 723.104 1102.38 714.356C1104.59 712.939 1106.88 711.356 1109.08 709.365C1110.66 708.032 1111.39 705.99 1110.24 704.632C1109.08 703.357 1107.03 702.982 1104.89 704.524C1102.97 706.13 1100.96 707.635 1098.89 709.031H1098.83C1087 717.03 1073.93 720.846 1057.5 721.113C1041.39 720.846 1027.47 716.78 1016.32 709.056C1016.32 709.031 1016.28 709.031 1016.22 709.031C1014.22 707.682 1012.38 706.074 1010.58 704.532C1010.26 704.244 1009.89 704.023 1009.48 703.881C1009.08 703.739 1008.65 703.68 1008.22 703.706C1007.79 703.733 1007.37 703.844 1006.99 704.035C1006.6 704.225 1006.26 704.491 1005.98 704.815V704.815ZM1189.61 676.853C1189.44 676.62 1189.29 675.953 1189.21 675.803C1189.21 675.803 1189.46 676.495 1189.69 676.87L1189.61 676.853ZM1288.31 559.705C1283.42 550.015 1278.06 542.982 1272.29 538.741C1253.72 525.01 1225.48 524.91 1208.68 541.408C1200.85 549.115 1195.13 558.488 1190.76 568.545C1181.02 591.291 1173.74 617.096 1175.35 642.158C1176.16 653.49 1180.08 665.238 1188.06 673.529C1197.6 683.677 1211.35 687.66 1224.62 690.359C1237.79 693.067 1253.15 695.134 1265.47 688.601C1279.67 680.936 1285.63 663.447 1289.56 649.107C1294.55 630.644 1299.2 610.897 1297.3 591.591C1296.26 580.943 1293.11 569.32 1288.31 559.696V559.705Z" fill="#2A2D2C"/>
<path d="M1241.85 606.464C1252.36 602.94 1259.23 600.965 1262.26 600.732C1247.33 601.84 1239.63 595.782 1238.26 582.784L1235.48 555.689C1234.65 573.103 1232.72 584.218 1228.87 589.958C1226.33 593.533 1224.22 596.016 1221.7 597.124L1212.85 599.915C1209.3 600.957 1205.65 602.148 1202.69 602.148C1218.95 600.732 1227.73 604.881 1229.1 613.88C1231.39 626.961 1232.72 635.485 1233.81 639.634C1234.1 619.429 1236.86 608.514 1241.85 606.472V606.464ZM1261.72 646.733L1260.07 629.969C1259.5 640.717 1258.42 647.591 1256.19 651.199C1254.83 653.182 1253.15 654.806 1251.46 655.706L1246.25 657.289C1244.01 657.839 1241.85 658.673 1239.91 658.673C1249.78 657.839 1255.34 660.297 1256.44 665.83C1257.54 673.862 1258.67 679.353 1259.23 681.569C1259.23 669.129 1260.89 662.572 1264.18 661.422C1270.57 659.231 1274.68 657.839 1276.59 657.839C1267.48 658.439 1262.55 654.54 1261.71 646.733" fill="white"/>
<path d="M921.547 510.212C918.689 480.884 914.631 466.361 909.082 467.219C888.402 468.819 857.257 469.052 815.289 468.277C816.788 471.41 821.321 476.501 827.103 480.992C834.869 487.149 845.467 495.24 862.898 501.297C869.282 503.65 875.825 505.546 882.478 506.971C883.853 507.305 889.985 508.388 896.959 509.438C908.191 510.979 921.689 512.462 921.539 510.212H921.547ZM924.863 676.87C925.03 676.495 925.305 675.803 925.305 675.803C925.204 676.161 925.079 676.512 924.93 676.853C924.93 676.853 924.863 676.853 924.863 676.87ZM817.213 591.591C815.289 610.897 819.921 630.644 824.97 649.116C828.836 663.447 834.802 680.944 849.017 688.601C861.373 695.134 876.779 693.067 889.844 690.351C903.092 687.66 916.889 683.677 926.454 673.529C934.42 665.247 938.344 653.498 939.161 642.158C940.769 617.096 933.503 591.3 923.697 568.545C919.397 558.488 913.673 549.115 905.783 541.416C889.069 524.902 860.873 525.002 842.209 538.741C836.427 542.982 831.111 550.015 826.304 559.696C821.365 569.69 818.283 580.497 817.205 591.591H817.213Z" fill="#2A2D2C"/>
<path d="M872.646 606.464C862.148 602.94 855.274 600.965 852.249 600.732C867.155 601.84 874.913 595.782 876.254 582.784L879.004 555.689C879.82 573.103 881.745 584.218 885.686 589.958C888.152 593.533 890.344 596.016 892.768 597.124L901.633 599.915C905.241 600.957 908.799 602.148 911.84 602.148C895.584 600.732 886.769 604.881 885.419 613.88C883.145 626.961 881.745 635.485 880.678 639.634C880.403 619.429 877.629 608.514 872.646 606.472V606.464ZM852.774 646.733L854.466 629.969C855.007 640.717 856.157 647.591 858.349 651.199C859.698 653.182 861.373 654.806 862.998 655.706L868.239 657.289C870.472 657.839 872.646 658.673 874.604 658.673C864.648 657.839 859.115 660.297 858.057 665.83C856.949 673.862 855.807 679.353 855.274 681.569C855.274 669.129 853.591 662.572 850.308 661.422C843.967 659.231 839.81 657.839 837.868 657.839C846.992 658.439 851.983 654.54 852.774 646.733ZM243.153 1820.75C238.979 1828.66 234.046 1837.89 230.247 1847.15C226.372 1856.34 223.739 1865.67 223.739 1873.14V1873.27C223.864 1880.42 226.239 1885 230.397 1889.08C234.571 1893.07 241.003 1896.22 248.536 1898.44C263.75 1902.77 282.888 1903.24 295.478 1903.29C298.294 1903.36 301.127 1903.36 303.91 1903.36C328.431 1903.36 353.102 1902.67 377.832 1902.44L521.035 1900.8C526.025 1900.8 530.991 1900.75 535.941 1900.75C541.865 1900.75 547.73 1900.8 553.555 1900.8C571.11 1900.8 588.549 1900.55 605.571 1898.9C675.277 1892.21 738.751 1857.42 779.844 1800.42C782.96 1796.23 793.642 1779.24 808.356 1755.59C823.112 1731.92 842.126 1701.18 862.248 1668.32C902.533 1602.73 947.618 1528.74 973.581 1486.28C993.327 1453.91 1054.71 1357.8 1054.75 1357.73C1055.4 1356.73 1056.28 1355.91 1057.32 1355.34C1058.36 1354.77 1059.53 1354.47 1060.72 1354.46C1063.1 1354.46 1065.33 1355.77 1066.58 1357.73C1066.61 1357.76 1128.13 1453.91 1147.86 1486.28C1186.76 1550.02 1268.73 1684.44 1313.02 1755.58C1327.73 1779.24 1338.43 1796.23 1341.55 1800.42C1382.54 1857.42 1446.06 1892.21 1515.8 1898.9C1532.8 1900.55 1550.29 1900.8 1567.78 1900.8C1573.65 1900.8 1579.51 1900.75 1585.42 1900.75C1590.36 1900.75 1595.33 1900.8 1600.33 1900.8C1648.01 1901.34 1695.77 1901.9 1743.56 1902.44C1768.27 1902.67 1792.92 1903.36 1817.45 1903.36C1820.22 1903.36 1823.06 1903.36 1825.88 1903.29C1835.3 1903.24 1848.42 1903.07 1860.84 1901.02C1873.3 1899.12 1884.74 1895.1 1890.94 1889.08C1895.1 1885 1897.47 1880.41 1897.59 1873.27V1873.06C1897.59 1865.58 1894.96 1856.28 1891.18 1847.06C1887.37 1837.89 1882.4 1828.66 1878.21 1820.86C1875.39 1815.58 1872.34 1810.33 1869.27 1805.03C1805.82 1694.52 1745.53 1582.79 1685.39 1470.6C1615.76 1340.92 1546.37 1211.02 1476.57 1081.45C1476.1 1080.58 1475.82 1079.63 1475.75 1078.64C1475.68 1077.66 1475.82 1076.67 1476.17 1075.75C1476.49 1074.82 1477 1073.96 1477.68 1073.25C1478.35 1072.53 1479.18 1071.97 1480.09 1071.6C1570.62 1034.59 1644.65 958.392 1706.16 882.479C1789.63 779.395 1858.58 666.48 1923.29 550.639C1945.58 510.754 1965.45 469.194 1986.91 428.267C1945.9 493.448 1885.86 557.63 1807.85 620.687C1705.26 703.357 1530.94 784.969 1286.66 864.674C1051.03 941.67 877.887 1030.98 766.555 1133.67C713.829 1181.72 676.677 1215.03 655.222 1232.71C650.298 1237.74 626.81 1262.29 585.799 1307.72C536.024 1363.7 483.257 1430.64 428.174 1508.57C407.286 1538.15 389.522 1563.36 374.266 1585.13C334.355 1658.78 293.928 1732.21 252.085 1805.04C249.035 1810.33 245.986 1815.58 243.153 1820.75" fill="white"/>
<path d="M2094.36 252.461C2093.31 255.927 2089.76 261.126 2084.86 266.534C2080.02 272 2074.17 277.632 2069.14 284.039L2069.06 284.123C2059.56 296.504 2049.75 309.252 2041.11 323.258L2041.17 323.175C2027.85 344.452 2015.01 366.026 2002.66 387.882C1972.57 440.857 1947.56 496.056 1918.53 547.99C1853.88 663.722 1785.03 776.388 1701.93 879.021C1640.62 954.801 1567.11 1030.19 1478.01 1066.59C1476.4 1067.26 1474.94 1068.25 1473.74 1069.52C1472.53 1070.78 1471.6 1072.28 1471.01 1073.92C1469.83 1077.23 1470.12 1080.91 1471.76 1084.01C1541.53 1213.63 1610.96 1343.43 1680.61 1473.17C1740.74 1585.36 1801.06 1697.09 1864.53 1807.66L1864.52 1807.58C1867.6 1813.08 1870.63 1818.29 1873.43 1823.38C1877.62 1831.23 1882.48 1840.26 1886.15 1849.15C1889.85 1857.97 1892.21 1866.73 1892.17 1873.02V1873.27C1892 1879.09 1890.45 1881.88 1887.29 1885.12C1882.51 1889.9 1871.9 1893.87 1859.98 1895.68C1848.07 1897.58 1835.23 1897.81 1825.86 1897.9H1816.52C1792.38 1897.9 1768.06 1897.26 1743.59 1897.04C1695.81 1896.45 1648.1 1895.83 1600.36 1895.39C1596.04 1895.31 1591.72 1895.27 1587.4 1895.28C1580.64 1895.28 1573.91 1895.32 1567.2 1895.32C1549.92 1895.32 1532.86 1895.1 1516.31 1893.51C1448.12 1886.93 1386.05 1852.91 1345.96 1797.33C1344.62 1795.48 1341.06 1790.07 1336.21 1782.41C1301.9 1728.41 1197.93 1557.83 1152.47 1483.46C1132.66 1450.97 1071.23 1354.87 1071.22 1354.79C1070.09 1353.03 1068.54 1351.58 1066.7 1350.57C1064.87 1349.57 1062.81 1349.04 1060.72 1349.04C1056.47 1349.04 1052.49 1351.21 1050.2 1354.79C1050.14 1354.87 988.728 1450.97 968.881 1483.46C942.96 1525.98 897.834 1599.86 857.574 1665.48C837.435 1698.31 818.463 1729.04 803.724 1752.73C797.59 1762.66 791.396 1772.55 785.143 1782.41C780.311 1790.07 776.736 1795.48 775.395 1797.35C735.368 1852.91 673.278 1886.93 605.047 1893.5C588.516 1895.09 571.485 1895.32 554.163 1895.32C547.439 1895.32 540.698 1895.28 533.958 1895.28C529.633 1895.28 525.334 1895.3 520.976 1895.39C473.234 1895.83 425.508 1896.45 377.774 1897.04C353.311 1897.26 328.973 1897.9 304.827 1897.9H295.52C283.022 1897.83 264.233 1897.33 250.077 1893.2C242.986 1891.21 237.346 1888.27 234.13 1885.11C230.963 1881.88 229.439 1879.13 229.272 1873.22V1873.02C229.23 1866.73 231.547 1857.97 235.279 1849.14C238.954 1840.25 243.778 1831.21 247.927 1823.38C250.619 1818.33 253.735 1813.11 256.859 1807.58L256.818 1807.66C320.358 1697.09 380.657 1585.36 440.847 1473.13C510.42 1343.43 579.825 1213.63 649.548 1084.02C651.214 1080.91 651.489 1077.23 650.314 1073.92C649.72 1072.27 648.789 1070.77 647.583 1069.51C646.377 1068.25 644.92 1067.25 643.307 1066.58C554.221 1030.19 480.716 954.801 419.392 879.013C336.38 776.363 267.441 663.722 202.868 548.007C173.772 496.056 148.793 440.857 118.731 387.882C106.368 366.043 93.5276 344.477 80.2202 323.2L80.2619 323.242C71.5966 309.277 61.8564 296.496 52.2996 284.106C47.267 277.632 41.3846 271.958 36.4937 266.492C31.6361 261.101 28.02 255.927 27.0452 252.461C25.5454 247.878 24.9955 244.262 24.9955 241.588C25.0788 237.272 26.062 235.372 27.6284 233.364C29.9864 230.423 36.0438 227.273 44.8424 225.557C53.591 223.766 64.4227 223.241 75.046 223.241C84.9611 223.241 94.6013 223.657 102.767 223.657H103.75C148.976 223.574 194.119 223.532 239.329 223.449C270.949 223.449 302.635 223.391 334.231 223.391H334.589C368.817 223.366 402.736 236.58 434.906 255.927C467.018 275.232 497.055 300.47 523.376 323.133C573.885 366.51 617.628 419.585 659.688 472.827C662.504 476.376 666.995 478.151 671.461 477.401C675.927 476.693 679.627 473.618 681.168 469.36C695.966 428.667 715.604 388.44 736.034 351.604L736.268 351.212C761.689 300.845 813.072 252.061 867.197 241.088C881.137 238.172 896.443 237.355 912.257 237.355C927.663 237.355 943.46 238.105 958.966 238.105C967.756 238.08 982.029 238.08 997.102 238.08C1027.22 238.08 1060.62 238.105 1060.7 238.105C1060.78 238.105 1094.15 238.08 1124.27 238.08C1139.35 238.08 1153.58 238.08 1162.35 238.105C1177.89 238.105 1193.7 237.355 1209.14 237.355C1224.92 237.355 1240.28 238.163 1254.14 241.088C1308.26 252.069 1359.69 300.845 1385.13 351.212L1385.34 351.604C1405.77 388.44 1425.35 428.667 1440.19 469.36C1441.73 473.618 1445.47 476.693 1449.94 477.401C1452.13 477.759 1454.38 477.524 1456.45 476.719C1458.52 475.915 1460.33 474.571 1461.7 472.827C1503.74 419.585 1547.49 366.485 1597.93 323.133C1624.32 300.47 1654.36 275.232 1686.48 255.927C1718.62 236.58 1752.58 223.366 1786.79 223.391H1787.12C1818.74 223.391 1850.36 223.449 1882.05 223.449C1927.21 223.532 1972.44 223.574 2017.71 223.657H2018.68C2026.81 223.657 2036.47 223.241 2046.37 223.241C2060.52 223.182 2075.15 224.265 2084.37 227.69C2089.01 229.356 2092.1 231.406 2093.73 233.364C2095.33 235.364 2096.27 237.272 2096.36 241.588C2096.36 244.254 2095.81 247.92 2094.36 252.461V252.461ZM2112.66 217.15C2104.33 207.61 2092.93 203.519 2081.5 201.144C2069.95 198.778 2057.79 198.32 2046.37 198.32C2035.79 198.32 2025.93 198.761 2018.68 198.761H2017.73C1972.48 198.678 1927.25 198.636 1882.05 198.553C1850.39 198.553 1818.78 198.469 1787.12 198.469H1787.18L1786.79 198.444C1746.08 198.486 1707.99 213.917 1673.62 234.581C1639.24 255.286 1608.27 281.432 1581.72 304.203C1534.57 344.805 1493.98 392.597 1455.63 440.54C1441.51 405.329 1424.66 371.101 1407.1 339.497C1378.43 283.814 1323.81 230.431 1259.23 216.667C1242.7 213.201 1225.75 212.434 1209.14 212.434C1192.94 212.434 1177.06 213.159 1162.41 213.159C1153.62 213.142 1139.36 213.142 1124.27 213.142L1060.7 213.159L997.102 213.142C982.013 213.142 967.757 213.142 958.908 213.159C944.277 213.159 928.429 212.434 912.257 212.434C895.626 212.434 878.695 213.201 862.081 216.683C797.383 230.464 742.675 284.039 714.038 339.897H714.063C696.607 371.367 679.785 405.454 665.72 440.54C627.393 392.597 586.808 344.763 539.657 304.203C513.128 281.432 482.149 255.286 447.779 234.581C413.376 213.917 375.307 198.486 334.589 198.444L333.922 198.469C302.385 198.469 270.807 198.553 239.312 198.553C194.077 198.636 148.934 198.678 103.683 198.761H102.767C95.4595 198.761 85.586 198.32 75.046 198.32C59.8567 198.361 43.2593 199.053 28.6116 204.21C21.2628 206.835 14.2305 210.784 8.69806 217.15C3.19059 223.441 -0.0255763 232.239 0.074408 241.588C0.074408 247.454 1.20756 253.586 3.24891 260.085C6.44008 269.6 12.3308 276.757 17.88 283.123C23.5541 289.405 29.1949 294.954 32.5527 299.345C42.0512 311.618 51.2581 323.758 59.0569 336.39L59.0819 336.406C72.2133 357.375 84.8728 378.635 97.0509 400.171C126.38 451.813 151.334 506.971 181.096 560.18C246.003 676.411 315.617 790.352 400.004 894.686C459.611 968.158 531.616 1042.92 621.386 1083.74C553.73 1209.58 486.307 1335.53 418.867 1461.38C358.693 1573.56 298.544 1685.06 235.196 1795.24L235.179 1795.29C232.213 1800.49 228.997 1805.89 225.931 1811.71C221.798 1819.47 216.541 1829.16 212.216 1839.62C207.967 1850.08 204.367 1861.26 204.326 1873.02V1873.53H204.351C204.309 1885.51 209.4 1896.18 216.891 1903.15C228.305 1913.82 243.22 1917.87 257.426 1920.31C271.674 1922.56 285.705 1922.72 295.37 1922.77C298.519 1922.79 301.719 1922.82 304.827 1922.82C329.406 1922.82 353.836 1922.18 378.04 1921.96C425.841 1921.42 473.575 1920.75 521.243 1920.31C525.481 1920.27 529.719 1920.24 533.958 1920.24C540.632 1920.24 547.372 1920.27 554.163 1920.27C571.652 1920.27 589.541 1920.06 607.421 1918.33C682.393 1911.13 751.207 1873.53 795.625 1811.88C797.775 1808.93 801.199 1803.59 806.207 1795.77C840.835 1741.27 944.71 1570.89 990.178 1496.44C999.901 1480.49 1020.21 1448.4 1038.03 1420.33C1046.69 1406.71 1054.69 1394.11 1060.72 1384.68C1066.73 1394.11 1074.72 1406.71 1083.38 1420.33C1101.21 1448.4 1121.47 1480.49 1131.25 1496.44C1168.26 1557.2 1205.36 1617.9 1242.56 1678.55C1262.72 1711.37 1281.69 1742.14 1296.49 1765.92C1303.88 1777.81 1310.24 1787.96 1315.17 1795.77C1320.15 1803.59 1323.6 1808.92 1325.71 1811.86C1370.19 1873.53 1438.97 1911.13 1513.9 1918.33C1531.84 1920.06 1549.71 1920.27 1567.2 1920.27C1574 1920.27 1580.72 1920.24 1587.4 1920.24C1591.68 1920.24 1595.88 1920.27 1600.09 1920.31C1647.76 1920.75 1695.52 1921.42 1743.31 1921.96C1767.54 1922.18 1791.94 1922.82 1816.53 1922.82C1819.66 1922.82 1822.86 1922.79 1825.98 1922.77C1838.92 1922.65 1859.39 1922.5 1878.22 1917.13C1887.64 1914.4 1896.93 1910.34 1904.47 1903.17C1912.08 1896.14 1917.23 1885.37 1917.07 1873.26V1873.01C1917.05 1861.26 1913.48 1850.08 1909.2 1839.6C1904.84 1829.14 1899.58 1819.43 1895.38 1811.63C1892.34 1805.93 1889.16 1800.54 1886.18 1795.29L1886.15 1795.24C1822.86 1685.06 1762.7 1573.56 1702.57 1461.38C1635.04 1335.53 1567.61 1209.59 1499.95 1083.75C1589.72 1042.92 1661.72 968.158 1721.31 894.711C1805.76 790.352 1875.32 676.411 1940.3 560.18C1970.04 506.971 1994.98 451.813 2024.32 400.171C2036.5 378.655 2049.15 357.412 2062.27 336.456L2062.34 336.348C2070.1 323.783 2079.37 311.618 2088.82 299.279L2088.76 299.362C2092.18 294.963 2097.84 289.389 2103.47 283.106C2109.05 276.741 2114.91 269.6 2118.09 260.127C2120.17 253.594 2121.28 247.462 2121.28 241.588C2121.4 232.239 2118.19 223.474 2112.66 217.15V217.15Z" fill="#2A2D2C"/>
</svg>
