<svg width="1349" height="1349" viewBox="0 0 1349 1349" fill="none" xmlns="http://www.w3.org/2000/svg">
<rect width="1348.07" height="1348.07" fill="#9B5C8F"/>
<path d="M167.489 255.529C181.716 236.215 203.052 226.059 231.506 224.028C283.337 219.956 312.807 244.339 319.916 297.185C351.417 509.568 385.964 689.434 422.543 836.773L645.08 413.034C665.411 374.415 690.818 354.094 721.304 352.063C766.016 349.016 793.445 377.461 804.626 437.416C830.034 572.56 862.55 687.393 901.16 784.942C927.583 526.842 972.296 340.883 1035.3 226.059C1050.53 197.605 1072.89 183.378 1102.36 181.337C1125.74 179.316 1147.07 186.424 1166.38 201.667C1185.68 216.91 1195.85 236.215 1197.88 259.591C1198.9 277.881 1195.85 293.123 1187.72 308.366C1148.09 381.533 1115.56 504.49 1089.15 675.197C1063.75 840.835 1054.6 969.895 1060.7 1062.37C1062.74 1087.76 1058.66 1110.12 1048.51 1129.43C1036.3 1151.78 1018.02 1163.98 994.647 1166.01C968.224 1168.04 940.795 1155.85 914.371 1128.42C819.869 1031.87 744.671 887.579 689.803 695.527C623.744 825.593 574.97 923.142 543.469 988.175C483.514 1103.01 432.708 1161.95 390.026 1164.99C362.587 1167.03 339.221 1143.65 318.9 1094.88C267.079 961.761 211.186 704.667 151.24 323.609C147.168 297.185 153.261 273.809 167.489 255.529Z" fill="white"/>
</svg>
