<svg width="32" height="32" viewBox="0 0 32 32" fill="none" xmlns="http://www.w3.org/2000/svg">
<g clip-path="url(#clip0_3742_2)">
<path d="M23.8545 12.4509L20.9455 20.6545C20.8291 20.9455 20.6545 21.2364 20.3636 21.4109C20.1309 21.5855 19.84 21.6436 19.5491 21.6436C19.2582 21.6436 18.9673 21.5855 18.7345 21.4109C18.4436 21.2364 18.2691 21.0036 18.1527 20.6545L16.9891 17.4545L17.92 14.8945L19.5491 19.5491L22.2836 11.9273C22.4582 11.52 22.9236 11.2291 23.3891 11.4036C23.7964 11.52 24.0291 12.0436 23.8545 12.4509M16.8145 12.4509L13.9055 20.6545C13.7891 20.9455 13.6145 21.2364 13.3236 21.4109C13.0909 21.5855 12.8 21.6436 12.5091 21.6436C12.2182 21.6436 11.9273 21.5855 11.6945 21.4109C11.4036 21.2364 11.2291 21.0036 11.1127 20.6545L8.20364 12.4509C8.14545 12.2182 8.14545 11.9855 8.26182 11.8109C8.37818 11.5782 8.55273 11.4618 8.72727 11.3455C8.96 11.2873 9.19273 11.2873 9.36727 11.4036C9.6 11.52 9.71636 11.6945 9.83273 11.8691L12.5673 19.5491L15.3018 11.8691C15.4764 11.4618 15.9418 11.1709 16.4073 11.3455C16.64 11.4036 16.8145 11.5782 16.8727 11.8109C16.8727 12.0436 16.8727 12.2764 16.8145 12.4509M22.1673 0.756363H9.83273C4.77091 0.756363 0.581818 4.88727 0.581818 10.0073V22.3418C0.581818 27.4036 4.77091 31.5927 9.83273 31.5927H22.1673C27.2291 31.5927 31.4182 27.4036 31.4182 22.3418V10.0073C31.4182 4.88727 27.2291 0.756363 22.1673 0.756363" fill="#1884FF"/>
</g>
<defs>
<clipPath id="clip0_3742_2">
<rect width="32" height="32" fill="white"/>
</clipPath>
</defs>
</svg>
