<svg width="32" height="32" viewBox="0 0 32 32" fill="none" xmlns="http://www.w3.org/2000/svg">
<path d="M17.3123 0.00198364C18.0047 0.00518364 18.6847 0.0135036 19.3494 0.0351356L19.845 0.0539836C26.8245 0.359984 32 2.39998 32 16C32 30.24 26.326 31.8064 18.8481 31.9787L18.3412 31.9883C17.7469 31.9974 17.1419 31.9994 16.5281 31.9999H15.4718C14.8581 31.9994 14.2531 31.9974 13.6587 31.9883L13.1519 31.9787C5.67401 31.8064 0 30.24 0 16C0 2.39998 5.17544 0.359984 12.1549 0.0539836L12.6506 0.0351356C13.3153 0.0135036 13.9953 0.00518364 14.6877 0.00198364H17.3123Z" fill="black"/>
<path d="M11.415 9.90012C11.3966 9.91714 11.2927 10.0187 11.2759 10.039C11.0019 10.4221 11.1091 11.1474 11.2071 11.6283C11.2967 12.0468 11.4428 12.4027 11.5963 12.57C11.9664 14.6662 13.613 17.311 15.9367 17.4316C17.7627 17.5267 20.0375 15.2459 20.4018 12.57C20.5545 12.4021 20.6857 12.1332 20.7709 11.7171C20.8709 11.2366 21.0495 10.4214 20.7748 10.039C20.7365 9.98228 20.6895 9.93654 20.6388 9.90012C21.1669 7.88582 20.7306 6.82387 20.663 6.65657C19.728 4.29423 17.7014 2.87365 14.831 3.88679C13.8593 4.23012 12.783 4.66492 12.0093 5.53084C10.5797 7.1277 11.1536 8.90434 11.415 9.90012ZM7.6462 28.3766C11.5884 30.0473 20.4096 30.0473 24.3505 28.3766C24.6675 28.241 26.1279 26.8124 26.0725 25.539C25.9932 23.6977 25.8919 21.6756 24.3695 19.287C24.3695 19.287 23.9354 18.6621 22.9047 18.246C22.9047 18.246 20.667 17.5267 19.6386 16.748C19.6386 16.748 19.1606 17.1147 19.1668 17.0886C19.1658 17.0993 19.2183 20.3185 19.2183 20.3185L16.3947 28.2837C16.3327 28.459 16.175 28.5736 15.999 28.5736C15.8236 28.5736 15.6663 28.459 15.604 28.2837L12.7797 20.3185L12.8315 17.0886L12.3621 16.748C11.3311 17.5267 9.09389 18.246 9.09389 18.246C8.06255 18.6621 7.62916 19.287 7.62916 19.287C6.1061 21.6756 6.00707 23.6977 5.92743 25.539C5.87271 26.8124 7.32729 28.241 7.6462 28.3766ZM15.8594 20.04L14.8539 21.0649L15.8885 27.697C15.8977 27.7551 15.9445 27.7962 15.9983 27.7962C16.0534 27.7962 16.0996 27.7551 16.1088 27.697L17.1428 21.0649L16.138 20.04L17.2579 18.2307C16.8507 18.3797 16.4367 18.4638 16.0262 18.4638L15.8984 18.4604C15.4974 18.4444 15.1168 18.3696 14.7569 18.2574L15.8594 20.04Z" fill="white"/>
</svg>
