<svg width="32" height="32" viewBox="0 0 32 32" fill="none" xmlns="http://www.w3.org/2000/svg">
<g clip-path="url(#clip0_1664:16)">
<path fill-rule="evenodd" clip-rule="evenodd" d="M29.8571 18.4286C28.4714 18.4743 28.3785 17.3 27 17.29C26.0385 17.2829 26 18.1443 26 18.1443V21.7143C26 22.5029 25.36 23.1429 24.5714 23.1429H16C16 23.1429 15.1271 23.1814 15.1428 24.1429C15.1643 25.5086 16.3214 25.6129 16.2857 27C16.26 28.0114 15.2757 29.1429 13.7143 29.1429C12.1457 29.1429 11.1814 28.1429 11.1428 27C11.0971 25.6143 12.2714 25.5214 12.2814 24.1429C12.2885 23.1814 11.4285 23.1429 11.4285 23.1429H7.57139C6.78282 23.1429 6.14282 22.5029 6.14282 21.7143V16.2857C6.14282 16.2857 6.10425 15.4129 5.14282 15.4286C3.77711 15.45 3.67282 16.6071 2.28568 16.5714C1.27425 16.5457 0.142822 15.5614 0.142822 14C0.142822 12.4314 1.14282 11.4671 2.28568 11.4286C3.67139 11.3829 3.76425 12.5571 5.14282 12.5671C6.10425 12.5743 6.14282 11.7143 6.14282 11.7143V10.2857C6.14282 9.49715 6.78282 8.85715 7.57139 8.85715H17.7143C17.7143 8.85715 18.5871 8.81858 18.5714 7.85715C18.55 6.49143 17.3928 6.38715 17.4285 5C17.4543 3.98858 18.4385 2.85715 20 2.85715C21.5685 2.85715 22.5328 3.85715 22.5714 5C22.6171 6.38572 21.4428 6.47858 21.4328 7.85715C21.4257 8.81858 22.2871 8.85715 22.2871 8.85715H24.5714C25.36 8.85715 26 9.49715 26 10.2857V13.5714C26 13.5714 26.0385 14.4443 27 14.4286C28.3657 14.4071 28.47 13.25 29.8571 13.2857C30.8685 13.3114 32 14.2957 32 15.8571C32 17.4257 31 18.39 29.8571 18.4286Z" fill="#FF6600"/>
<path d="M14.9725 16.1043L12.8613 11.7054L10.7739 16.1043L9.59462 11.953L7.53076 12.2124L10.4909 20.798L12.8732 15.9629L15.2553 20.7982L18.2509 12.2126L16.2343 11.9532L14.9725 16.1043ZM21.2343 12.0593C20.4795 12.0593 19.3592 12.0946 18.6633 12.1419V20.3264L20.7389 20.1377V17.213H21.6118C23.5458 17.213 24.4775 15.9392 24.4775 14.6656C24.4775 14.0287 24.2888 12.0593 21.2343 12.0593ZM21.3993 15.5619H20.7389V13.7693H21.3639C21.9889 13.7693 22.4018 14.1584 22.4018 14.642C22.4018 15.0312 22.1542 15.5619 21.3993 15.5619Z" fill="white"/>
</g>
<defs>
<clipPath id="clip0_1664:16">
<rect width="32" height="32" fill="white"/>
</clipPath>
</defs>
</svg>
