<svg width="32" height="32" viewBox="0 0 32 32" fill="none" xmlns="http://www.w3.org/2000/svg">
<path d="M30.3455 20.4546C29.2662 23.7184 27.0375 26.4993 24.0579 28.2998C21.0783 30.1002 17.5424 30.8027 14.0828 30.2815C10.6232 29.7603 7.46573 28.0495 5.17523 25.4551C2.88474 22.8607 1.61073 19.5521 1.58117 16.1212C1.5516 12.6903 2.7684 9.36105 5.01386 6.7291C7.25931 4.09716 10.3869 2.33427 13.837 1.75586C17.2871 1.17746 20.8346 1.82127 23.8448 3.57212C26.855 5.32296 29.1314 8.06658 30.2667 11.3121H31.929C30.7803 7.63752 28.3206 4.49104 24.9997 2.44801C21.6788 0.404981 17.7186 -0.398074 13.8434 0.185687C9.96812 0.769449 6.4367 2.70102 3.89486 5.62719C1.35303 8.55337 -0.0293591 12.2786 0.000472931 16.1217C0.030305 19.9649 1.47037 23.6691 4.05733 26.557C6.64429 29.4449 10.2053 31.3236 14.0892 31.8495C17.973 32.3754 21.9203 31.5133 25.209 29.421C28.4978 27.3287 30.9084 24.1459 32 20.4546H30.3455Z" fill="black"/>
<path d="M30.6943 14.3924L29.8523 13.965L26.5505 20.2141C26.3794 20.0487 26.1756 19.9195 25.9516 19.8342C25.7277 19.7489 25.4883 19.7095 25.2482 19.7183C25.0081 19.727 24.7724 19.7839 24.5555 19.8853C24.3387 19.9866 24.1453 20.1304 23.9872 20.3078L20.8646 16.2147C20.8442 16.184 20.8159 16.1616 20.7942 16.1327C20.8515 15.9642 20.882 15.788 20.8845 15.6104C20.8883 15.3565 20.8355 15.1049 20.7298 14.8732C20.6242 14.6414 20.4681 14.4351 20.2726 14.2686C20.0771 14.1021 19.8468 13.9794 19.598 13.9092C19.3491 13.8391 19.0875 13.823 18.8316 13.8622C18.5758 13.9014 18.3317 13.9949 18.1165 14.1362C17.9014 14.2775 17.7203 14.4631 17.5859 14.6801C17.4515 14.8972 17.3671 15.1403 17.3386 15.3927C17.3101 15.645 17.3382 15.9004 17.4209 16.141C17.4028 16.1657 17.3788 16.184 17.3607 16.2099L15.1673 19.9163C14.8344 19.6268 14.4018 19.4718 13.9568 19.4827C13.5119 19.4937 13.0877 19.6697 12.77 19.9753L9.86514 15.2301C9.93637 15.043 9.97381 14.8451 9.97581 14.6453C9.96723 14.1884 9.77607 13.7531 9.44343 13.433C9.11079 13.1129 8.66325 12.9335 8.19709 12.9335C7.73093 12.9335 7.28339 13.1129 6.95075 13.433C6.61811 13.7531 6.42695 14.1884 6.41837 14.6453C6.41837 14.6506 6.41837 14.6553 6.41837 14.6606C6.35823 14.7119 6.3017 14.752 6.24396 14.8086L1.05426 20.0024L1.73207 20.6509L6.73953 15.6399C6.87453 15.8318 7.04776 15.9949 7.24878 16.1195C7.44981 16.244 7.67448 16.3274 7.90926 16.3646C8.14403 16.4018 8.38405 16.392 8.61487 16.3358C8.84568 16.2797 9.06251 16.1783 9.25229 16.0378L12.257 20.9486C12.2172 21.1861 12.2281 21.4291 12.289 21.6623C12.3499 21.8954 12.4594 22.1137 12.6107 22.3032C12.762 22.4928 12.9517 22.6495 13.1679 22.7636C13.3841 22.8777 13.6221 22.9465 13.8669 22.9659C14.1116 22.9852 14.3577 22.9546 14.5898 22.876C14.8219 22.7973 15.0348 22.6724 15.2151 22.509C15.3954 22.3457 15.5392 22.1474 15.6373 21.9269C15.7355 21.7063 15.786 21.4681 15.7856 21.2275C15.7843 21.0882 15.7657 20.9496 15.7302 20.8148L18.0072 16.9681C18.3227 17.2206 18.7186 17.3566 19.1258 17.3525C19.5331 17.3484 19.926 17.2044 20.2361 16.9457L23.5488 21.2876C23.5396 21.3462 23.5336 21.4052 23.5307 21.4645C23.5393 21.9213 23.7305 22.3566 24.0631 22.6768C24.3958 22.9969 24.8433 23.1762 25.3094 23.1762C25.7756 23.1762 26.2231 22.9969 26.5558 22.6768C26.8884 22.3566 27.0796 21.9213 27.0882 21.4645C27.0852 21.3959 27.078 21.3276 27.0665 21.2599L30.6943 14.3924ZM8.19318 15.9995C7.91959 15.9995 7.65215 15.9199 7.42467 15.771C7.19719 15.622 7.01989 15.4102 6.9152 15.1624C6.8105 14.9147 6.78311 14.642 6.83648 14.379C6.88985 14.116 7.0216 13.8744 7.21505 13.6848C7.40851 13.4951 7.65499 13.366 7.92332 13.3137C8.19165 13.2614 8.46978 13.2882 8.72254 13.3908C8.9753 13.4935 9.19134 13.6672 9.34334 13.8902C9.49533 14.1132 9.57646 14.3754 9.57646 14.6435C9.57646 14.8216 9.54068 14.9979 9.47116 15.1624C9.40165 15.3269 9.29976 15.4764 9.17131 15.6023C9.04286 15.7282 8.89037 15.8281 8.72254 15.8963C8.55471 15.9644 8.37484 15.9995 8.19318 15.9995ZM14.0072 22.5922C13.7336 22.5922 13.4661 22.5127 13.2387 22.3637C13.0112 22.2147 12.8339 22.003 12.7292 21.7552C12.6245 21.5074 12.5971 21.2348 12.6505 20.9718C12.7038 20.7088 12.8356 20.4672 13.029 20.2775C13.2225 20.0879 13.469 19.9587 13.7373 19.9064C14.0056 19.8541 14.2838 19.881 14.5365 19.9836C14.7893 20.0862 15.0053 20.26 15.1573 20.483C15.3093 20.706 15.3904 20.9681 15.3904 21.2363C15.3904 21.5959 15.2447 21.9408 14.9853 22.1951C14.7259 22.4494 14.374 22.5922 14.0072 22.5922V22.5922ZM19.1085 16.9433C18.8349 16.9433 18.5674 16.8638 18.3399 16.7148C18.1125 16.5658 17.9352 16.354 17.8305 16.1063C17.7258 15.8585 17.6984 15.5859 17.7518 15.3229C17.8051 15.0598 17.9369 14.8182 18.1303 14.6286C18.3238 14.439 18.5703 14.3098 18.8386 14.2575C19.1069 14.2052 19.385 14.232 19.6378 14.3347C19.8906 14.4373 20.1066 14.6111 20.2586 14.8341C20.4106 15.0571 20.4917 15.3192 20.4917 15.5874C20.4917 15.947 20.346 16.2919 20.0866 16.5462C19.8272 16.8005 19.4753 16.9433 19.1085 16.9433V16.9433ZM25.3104 22.818C25.0368 22.818 24.7693 22.7385 24.5418 22.5895C24.3144 22.4405 24.1371 22.2288 24.0324 21.981C23.9277 21.7332 23.9003 21.4606 23.9537 21.1976C24.007 20.9345 24.1388 20.6929 24.3322 20.5033C24.5257 20.3137 24.7722 20.1845 25.0405 20.1322C25.3088 20.0799 25.5869 20.1068 25.8397 20.2094C26.0925 20.312 26.3085 20.4858 26.4605 20.7088C26.6125 20.9318 26.6936 21.1939 26.6936 21.4621C26.6936 21.8217 26.5479 22.1666 26.2885 22.4209C26.0291 22.6752 25.6772 22.818 25.3104 22.818V22.818Z" fill="black"/>
</svg>
