<?xml version="1.0" encoding="UTF-8" standalone="no"?><!DOCTYPE svg PUBLIC "-//W3C//DTD SVG 1.1//EN" "http://www.w3.org/Graphics/SVG/1.1/DTD/svg11.dtd"><svg width="100%" height="100%" viewBox="0 0 512 512" version="1.1" xmlns="http://www.w3.org/2000/svg" xmlns:xlink="http://www.w3.org/1999/xlink" xml:space="preserve" xmlns:serif="http://www.serif.com/" style="fill-rule:evenodd;clip-rule:evenodd;stroke-linejoin:round;stroke-miterlimit:1.41421;"><path d="M173.678,512l164.644,0l0,-124.486l-40.157,-40.157l-85.334,0l-39.153,40.157l0,124.486Zm212.832,-338.322l-39.153,39.153l0,86.338l39.153,39.153l125.49,0l0,-164.644l-125.49,0Zm-48.188,-173.678l-164.644,0l0,125.49l39.153,39.153l85.334,0l40.157,-39.153l0,-125.49Zm173.678,512l0,-124.486l-39.153,-40.157l-125.49,0l0,164.643l164.643,0Zm-472.847,-512l-39.153,39.153l0,125.49l164.643,0l0,-164.643l-125.49,0Zm308.204,0l0,125.49l39.153,39.153l125.49,0l0,-164.643l-164.643,0Zm-91.357,280.094c-13.051,0 -23.09,-11.043 -23.09,-23.09c0,-13.051 11.043,-23.09 23.09,-23.09c13.051,0 23.09,11.043 23.09,23.09c0,12.047 -10.039,23.09 -23.09,23.09Zm-91.357,-106.416l-164.643,0l0,164.644l124.486,0l40.157,-39.153l0,-125.491Zm0,213.836l-40.157,-40.157l-124.486,0l0,164.643l124.486,0l40.157,-39.153l0,-85.333Z" style="fill:#40bac8;fill-rule:nonzero;"/></svg>