<svg width="32" height="32" viewBox="0 0 32 32" fill="none" xmlns="http://www.w3.org/2000/svg">
<path d="M26.9811 24.8011C26.8114 22.5957 25.8218 21.0124 23.8427 20.15L24.2243 18.6232L27.391 17.775C30.1478 18.6091 31.2363 20.3621 31.7594 22.5816L26.9811 24.8011Z" fill="#7EAABA"/>
<path d="M27.6313 23.5992L30.7839 22.1289C30.2326 20.2911 29.3136 19.0895 27.3769 18.623L24.9026 19.2874L24.7898 19.6977C26.3308 20.5741 27.2496 21.903 27.6313 23.5994V23.5992Z" fill="white"/>
<path d="M23.9274 25.1828C23.2206 23.0198 24.3798 20.6872 26.5428 19.9804C28.7058 19.2735 31.0384 20.4328 31.7452 22.5957C32.4521 24.7587 31.2928 27.0913 29.1299 27.7981C26.967 28.505 24.6343 27.3457 23.9275 25.1828" fill="#7EAABA"/>
<path d="M24.606 24.9425C24.8171 25.5813 25.2129 26.1433 25.7434 26.5572C26.2739 26.9712 26.9152 27.2185 27.5862 27.268C28.2573 27.3175 28.9279 27.1668 29.5133 26.8351C30.0988 26.5035 30.5727 26.0056 30.8752 25.4046C31.1777 24.8035 31.2952 24.1263 31.2128 23.4585C31.1304 22.7907 30.8518 22.1623 30.4123 21.6529C29.9728 21.1434 29.392 20.7757 28.7435 20.5963C28.095 20.4168 27.4079 20.4337 26.769 20.6448C26.3436 20.7833 25.9499 21.0046 25.6105 21.296C25.2712 21.5875 24.9929 21.9433 24.7918 22.3428C24.5907 22.7424 24.4707 23.1779 24.4389 23.6241C24.407 24.0703 24.4638 24.5183 24.606 24.9425" fill="#D3E8EF"/>
<path d="M31.208 23.4156C31.1812 23.2088 31.1338 23.0052 31.0667 22.8077C30.9282 22.3824 30.7069 21.9887 30.4155 21.6493C30.124 21.31 29.7683 21.0317 29.3687 20.8306C28.9692 20.6295 28.5337 20.5095 28.0875 20.4776C27.6414 20.4458 27.1933 20.5026 26.7692 20.6448C26.2178 20.8286 25.7372 21.1254 25.3836 21.5213C25.4105 21.7281 25.4578 21.9317 25.525 22.1291C25.664 22.5541 25.8857 22.9474 26.1773 23.2863C26.4689 23.6253 26.8246 23.9033 27.224 24.1043C27.6234 24.3053 28.0586 24.4254 28.5045 24.4576C28.9505 24.4898 29.3984 24.4336 29.8226 24.2921C30.374 24.1083 30.8546 23.8115 31.2082 23.4156" fill="white"/>
<path d="M23.15 26.2289C22.9096 25.4992 22.8909 24.7145 23.0965 23.9741C23.302 23.2338 23.7225 22.571 24.3047 22.0696C24.8869 21.5682 25.6047 21.2507 26.3674 21.1573C27.1301 21.0638 27.9033 21.1987 28.5893 21.5447C29.2754 21.8907 29.8434 22.4324 30.2216 23.1012C30.5998 23.7701 30.7711 24.536 30.714 25.3023C30.6568 26.0685 30.3737 26.8006 29.9005 27.4059C29.4273 28.0113 28.7852 28.4627 28.0555 28.7032C27.571 28.8652 27.0593 28.9297 26.5498 28.8928C26.0403 28.856 25.5431 28.7186 25.087 28.4885C24.6309 28.2585 24.2249 27.9404 23.8924 27.5525C23.56 27.1647 23.3076 26.7148 23.15 26.2289Z" fill="#7F3E13"/>
<path d="M23.9417 25.9886C23.7515 25.4154 23.7356 24.7987 23.896 24.2164C24.0563 23.6342 24.3857 23.1126 24.8425 22.7176C25.2993 22.3226 25.863 22.0719 26.4623 21.9972C27.0615 21.9226 27.6695 22.0273 28.2093 22.2982C28.749 22.569 29.1963 22.9939 29.4946 23.5189C29.7929 24.044 29.9288 24.6458 29.8851 25.2481C29.8414 25.8504 29.6201 26.4262 29.2492 26.9028C28.8782 27.3793 28.3742 27.7351 27.8011 27.9253C26.1894 28.4483 24.4647 27.586 23.9416 25.9885" fill="#B85A1B"/>
<path d="M23.8144 24.5466C23.9204 23.8695 24.2509 23.2475 24.7527 22.7806C25.2545 22.3137 25.8986 22.0289 26.5817 21.9718C27.2647 21.9147 27.9471 22.0887 28.5195 22.4659C29.0918 22.8431 29.5209 23.4016 29.7378 24.0518C29.8233 24.2982 29.8756 24.5549 29.8933 24.8152C27.9283 26.0733 25.3412 25.7906 23.8144 24.5466V24.5466Z" fill="#E1762F"/>
<path d="M5.02633 24.8011C5.19595 22.5957 6.18559 21.0124 8.16475 20.15L7.78306 18.6232L4.61638 17.775C1.85965 18.6091 0.771098 20.3621 0.248047 22.5816L5.02633 24.8011Z" fill="#7EAABA"/>
<path d="M4.376 23.5994L1.22345 22.1292C1.77482 20.2914 2.69369 19.0898 4.63046 18.6232L7.10469 19.2876L7.21779 19.6976C5.67684 20.5741 4.75797 21.903 4.37627 23.5994L4.376 23.5994Z" fill="white"/>
<path d="M8.07995 25.1828C8.78681 23.0198 7.62755 20.6872 5.46458 19.9804C3.30161 19.2735 0.96902 20.4328 0.262106 22.5957C-0.444808 24.7587 0.714505 27.0913 2.87747 27.7981C5.04044 28.505 7.37303 27.3457 8.07989 25.1828" fill="#7EAABA"/>
<path d="M7.4014 24.9425C7.1903 25.5813 6.79449 26.1433 6.26402 26.5572C5.73355 26.9712 5.09225 27.2185 4.42121 27.268C3.75016 27.3175 3.07952 27.1668 2.49409 26.8351C1.90865 26.5035 1.43472 26.0056 1.13223 25.4046C0.829729 24.8035 0.712252 24.1263 0.794652 23.4585C0.877051 22.7907 1.15563 22.1623 1.59515 21.6529C2.03467 21.1434 2.6154 20.7757 3.2639 20.5963C3.9124 20.4168 4.59954 20.4337 5.23843 20.6448C5.6638 20.7833 6.05753 21.0046 6.39689 21.296C6.73625 21.5875 7.01452 21.9433 7.21562 22.3428C7.41672 22.7424 7.53668 23.1779 7.56857 23.6241C7.60046 24.0703 7.54364 24.5183 7.4014 24.9425" fill="#D3E8EF"/>
<path d="M0.799377 23.4156C0.826262 23.2088 0.873614 23.0052 0.940738 22.8077C1.07918 22.3824 1.30051 21.9886 1.59195 21.6493C1.88339 21.3099 2.23917 21.0317 2.63875 20.8306C3.03832 20.6295 3.47378 20.5095 3.91997 20.4776C4.36616 20.4457 4.81425 20.5025 5.23836 20.6448C5.78973 20.8286 6.27033 21.1254 6.62393 21.5213C6.59704 21.7281 6.54969 21.9317 6.48257 22.1291C6.3435 22.5541 6.1218 22.9474 5.83022 23.2863C5.53864 23.6253 5.18293 23.9033 4.78354 24.1043C4.38414 24.3053 3.94896 24.4254 3.50299 24.4576C3.05703 24.4899 2.6091 24.4337 2.18494 24.2922C1.63358 24.1084 1.15297 23.8115 0.799377 23.4157" fill="white"/>
<path d="M8.85741 26.229C9.17986 25.2504 9.10036 24.1838 8.6364 23.2638C8.17245 22.3439 7.36204 21.6459 6.38346 21.3234C5.40489 21.001 4.3383 21.0805 3.41833 21.5445C2.49837 22.0084 1.8004 22.8188 1.47795 23.7974C1.15943 24.7749 1.24139 25.8389 1.70587 26.7561C2.17034 27.6733 2.97947 28.369 3.95594 28.6908C4.93242 29.0125 5.99662 28.9341 6.91537 28.4726C7.83412 28.0112 8.53249 27.2044 8.85747 26.229" fill="#7F3E13"/>
<path d="M8.0657 25.9886C8.19468 25.6073 8.24701 25.2043 8.21967 24.8027C8.19233 24.4012 8.08587 24.009 7.9064 23.6487C7.72694 23.2884 7.47802 22.9672 7.17396 22.7035C6.86989 22.4398 6.51669 22.2388 6.13467 22.112C5.75264 21.9853 5.34933 21.9354 4.94793 21.9651C4.54654 21.9948 4.15498 22.1036 3.79578 22.2852C3.43658 22.4668 3.11682 22.7176 2.85491 23.0232C2.59299 23.3288 2.39409 23.6832 2.26963 24.066C2.01979 24.8347 2.083 25.6709 2.44554 26.3933C2.80809 27.1158 3.44076 27.6662 4.2064 27.9253C5.818 28.4483 7.54271 27.586 8.06581 25.9885" fill="#B85A1B"/>
<path d="M8.19304 24.5466C8.10169 23.9923 7.86139 23.4733 7.49784 23.045C7.13429 22.6167 6.66115 22.2952 6.12904 22.1151C5.36031 21.8652 4.52407 21.9284 3.80162 22.2909C3.07917 22.6535 2.52872 23.2862 2.26963 24.0518C2.18409 24.2983 2.1318 24.555 2.11414 24.8152C4.07917 26.0734 6.66622 25.7907 8.19304 24.5466V24.5466Z" fill="#E1762F"/>
<path d="M9.94597 1.31958C11.5011 1.31958 12.7451 2.64846 12.7451 4.28832C12.7451 5.92818 11.5011 7.25706 9.94597 7.25706C8.39089 7.25706 7.14685 5.92824 7.14685 4.28832C7.14685 2.6484 8.39089 1.31958 9.94597 1.31958Z" fill="#7F3E13"/>
<path d="M9.94624 2.13956C8.80095 2.13956 7.96686 3.1574 7.96686 4.2884C7.96686 5.39108 8.80095 6.43723 9.94624 6.43723C11.0915 6.43723 11.9256 5.40526 11.9256 4.2884C11.9256 3.17153 11.0911 2.13956 9.94624 2.13956V2.13956Z" fill="#B85A1B"/>
<path d="M9.94599 2.9595C9.23914 2.9595 8.78674 3.62392 8.78674 4.28838C8.78674 4.93866 9.25327 5.61726 9.94599 5.61726C10.6528 5.61726 11.1052 4.95285 11.1052 4.28838C11.1052 3.6381 10.6387 2.9595 9.94599 2.9595V2.9595Z" fill="#63300F"/>
<path d="M21.8635 1.31958C23.4185 1.31958 24.6626 2.64846 24.6626 4.28832C24.6626 5.92818 23.4185 7.25706 21.8635 7.25706C20.3084 7.25706 19.0643 5.92824 19.0643 4.28832C19.0643 2.6484 20.3084 1.31958 21.8635 1.31958Z" fill="#7F3E13"/>
<path d="M21.8637 2.13956C20.7186 2.13956 19.8843 3.17153 19.8843 4.2884C19.8843 5.39108 20.7184 6.43723 21.8637 6.43723C23.009 6.43723 23.8431 5.40526 23.8431 4.2884C23.8431 3.17153 23.0086 2.13956 21.8637 2.13956V2.13956Z" fill="#B85A1B"/>
<path d="M21.8635 2.9595C21.1567 2.9595 20.7043 3.62392 20.7043 4.28838C20.7043 4.93866 21.1708 5.61726 21.8635 5.61726C22.5704 5.61726 23.0228 4.95285 23.0228 4.28838C23.0227 3.6381 22.5562 2.9595 21.8635 2.9595V2.9595Z" fill="#4F2800"/>
<path d="M14.7668 2.70499C14.943 2.70499 15.1152 2.75723 15.2617 2.8551C15.4081 2.95297 15.5223 3.09209 15.5897 3.25485C15.6571 3.4176 15.6748 3.5967 15.6404 3.76948C15.606 3.94227 15.5212 4.10098 15.3966 4.22555C15.2721 4.35012 15.1134 4.43495 14.9406 4.46932C14.7678 4.50369 14.5887 4.48605 14.426 4.41863C14.2632 4.35121 14.1241 4.23705 14.0262 4.09057C13.9283 3.94409 13.8761 3.77188 13.8761 3.59571C13.8902 3.11494 14.286 2.70499 14.7668 2.70499ZM17.0287 2.70499C17.2049 2.70499 17.3771 2.75723 17.5236 2.8551C17.6701 2.95297 17.7842 3.09209 17.8517 3.25485C17.9191 3.4176 17.9367 3.5967 17.9023 3.76948C17.868 3.94227 17.7831 4.10098 17.6586 4.22555C17.534 4.35012 17.3753 4.43495 17.2025 4.46932C17.0297 4.50369 16.8506 4.48605 16.6879 4.41863C16.5251 4.35121 16.386 4.23705 16.2881 4.09057C16.1903 3.94409 16.138 3.77188 16.138 3.59571C16.1418 3.36067 16.2368 3.13632 16.4031 2.97009C16.5693 2.80387 16.7936 2.7088 17.0286 2.70499H17.0287Z" fill="#7F3E13"/>
<path d="M26.2601 6.40892V11.9223L26.3166 11.9365C27.1225 12.2616 27.6315 12.9967 27.6315 13.8591V17.8314L15.9119 21.7049L4.19228 17.9303V13.8732C4.1864 13.4563 4.30958 13.0477 4.54495 12.7035C4.78032 12.3593 5.11636 12.0963 5.50703 11.9506L5.56355 11.9365V6.39495C5.56355 2.57799 26.2601 2.57799 26.2601 6.40908L26.2601 6.40892Z" fill="#7F3E13"/>
<path d="M6.49661 6.62087V12.5725L6.01595 12.7705C5.75599 12.8698 5.53266 13.0463 5.37598 13.2763C5.21929 13.5063 5.13676 13.7787 5.13947 14.057V18.2415L15.9119 21.705L26.6843 18.1566V14.057C26.687 13.7787 26.6045 13.5062 26.4478 13.2762C26.2911 13.0462 26.0678 12.8697 25.8078 12.7704L25.3271 12.5724V6.62087C25.3271 3.79349 6.5108 3.79349 6.49666 6.62087H6.49661Z" fill="#B85A1B"/>
<path d="M6.49661 6.62086V12.5725L6.01595 12.7705C5.75599 12.8698 5.53266 13.0463 5.37598 13.2763C5.21929 13.5063 5.13676 13.7787 5.13947 14.057V18.2415L15.9119 21.7051V19.4288C12.1797 19.4429 8.44757 16.9972 9.43715 12.1624H15.9119V4.51447C11.2041 4.51447 6.49661 5.22133 6.49661 6.62086V6.62086Z" fill="#E1762F"/>
<path d="M8.91402 10.9045H22.9236C24.917 21.4224 6.77931 21.3376 8.91402 10.9045Z" fill="#E5895B"/>
<path d="M9.60668 11.7244C9.40875 13.3502 9.76217 14.9194 10.9638 16.1351C12.2361 17.4074 14.1729 17.9588 15.9398 17.9588C17.6503 17.9447 19.4599 17.4074 20.7181 16.1917C21.9762 14.9759 22.3721 13.3925 22.2026 11.7244H9.60668V11.7244Z" fill="#E5895B"/>
<path d="M18.2585 16.6299C19.2057 17.8457 21.9483 17.3512 21.1284 14.778L18.2585 16.6299Z" fill="#FAD395"/>
<path d="M17.3962 16.3614C18.4565 17.7185 21.8918 16.9127 21.1001 13.9722L17.3962 16.3614Z" fill="#4F2800"/>
<path d="M18.3151 15.6545C18.5271 15.598 18.725 15.7393 18.7957 15.9655C18.8523 16.1917 18.7392 16.4179 18.5271 16.4744C18.3151 16.531 18.1172 16.3896 18.0465 16.1634C17.9899 15.9514 18.103 15.7111 18.3151 15.6545ZM20.5487 14.1135C20.7608 14.057 20.9728 14.1984 21.0293 14.4246C21.0859 14.6508 20.9728 14.877 20.7608 14.9335C20.5487 14.99 20.3366 14.8487 20.2801 14.6225C20.2377 14.3963 20.3508 14.156 20.5487 14.1136L20.5487 14.1135Z" fill="white"/>
<path d="M19.7006 16.8844C20.4498 16.6299 21.1001 16.0362 21.2132 15.0749C20.5912 14.9901 19.5451 15.8807 19.7006 16.8844Z" fill="#AD6151"/>
<path d="M10.356 10.9045H21.4676C23.0368 18.4112 8.67368 18.3405 10.356 10.9045V10.9045Z" fill="#FAD395"/>
<path d="M15.9118 15.1738C15.9781 14.7216 16.158 14.2935 16.4348 13.9298C17.7637 13.7177 18.9229 12.714 18.5554 10.8903C17.7111 10.5907 16.8218 10.4377 15.9259 10.4379L15.3887 12.1626L15.9118 15.1738V15.1738Z" fill="#4F2800"/>
<path d="M15.9119 15.1738C15.8456 14.7216 15.6656 14.2935 15.3888 13.9298C14.0599 13.7177 12.9007 12.714 13.2683 10.8903C14.1126 10.5907 15.0019 10.4377 15.8977 10.4379L15.9119 15.1738Z" fill="#63300F"/>
<path d="M13.9327 11.1589C15.2237 10.8055 16.5859 10.8055 17.8769 11.1589C18.4282 12.5302 13.3389 12.516 13.9327 11.1589Z" fill="#AD6151"/>
<path d="M13.8008 7.34192C14.0944 7.34192 14.3814 7.42899 14.6255 7.59211C14.8696 7.75523 15.0599 7.98708 15.1723 8.25835C15.2846 8.52961 15.314 8.8281 15.2568 9.11607C15.1995 9.40404 15.0581 9.66856 14.8505 9.87618C14.6429 10.0838 14.3783 10.2252 14.0904 10.2825C13.8024 10.3397 13.5039 10.3103 13.2326 10.198C12.9614 10.0856 12.7295 9.89535 12.5664 9.65122C12.4033 9.40709 12.3162 9.12007 12.3162 8.82646C12.3162 8.63149 12.3545 8.43843 12.4291 8.2583C12.5037 8.07816 12.6131 7.91449 12.7509 7.77663C12.8888 7.63877 13.0525 7.52942 13.2326 7.45483C13.4127 7.38024 13.6058 7.34188 13.8008 7.34192Z" fill="white"/>
<path d="M13.804 7.35605C14.0221 7.35609 14.2353 7.42078 14.4166 7.54197C14.5979 7.66315 14.7392 7.83538 14.8226 8.03687C14.9061 8.23836 14.9279 8.46007 14.8853 8.67396C14.8428 8.88785 14.7377 9.08431 14.5835 9.2385C14.4293 9.3927 14.2328 9.4977 14.0189 9.54024C13.805 9.58277 13.5833 9.56093 13.3818 9.47746C13.1804 9.394 13.0082 9.25266 12.887 9.07133C12.7658 8.89 12.7012 8.67682 12.7012 8.45873C12.699 8.31331 12.726 8.16891 12.7806 8.03413C12.8353 7.89934 12.9164 7.77689 13.0193 7.67405C13.1221 7.57122 13.2446 7.49008 13.3794 7.43545C13.5142 7.38083 13.6586 7.35383 13.804 7.35605V7.35605Z" fill="#1B1D23"/>
<path d="M18.0344 7.34192C17.7408 7.34192 17.4538 7.42899 17.2096 7.59211C16.9655 7.75523 16.7752 7.98708 16.6629 8.25835C16.5505 8.52961 16.5211 8.8281 16.5784 9.11607C16.6357 9.40404 16.7771 9.66856 16.9847 9.87618C17.1923 10.0838 17.4568 10.2252 17.7448 10.2825C18.0328 10.3397 18.3313 10.3103 18.6025 10.198C18.8738 10.0856 19.1056 9.89535 19.2688 9.65122C19.4319 9.40709 19.5189 9.12007 19.5189 8.82646C19.519 8.63149 19.4806 8.43843 19.406 8.2583C19.3314 8.07816 19.2221 7.91449 19.0842 7.77663C18.9464 7.63877 18.7827 7.52942 18.6026 7.45483C18.4224 7.38024 18.2294 7.34188 18.0344 7.34192V7.34192Z" fill="white"/>
<path d="M18.0374 7.35605C17.8194 7.35605 17.6062 7.42072 17.4248 7.54188C17.2435 7.66305 17.1022 7.83527 17.0187 8.03676C16.9352 8.23825 16.9134 8.45996 16.9559 8.67386C16.9985 8.88776 17.1035 9.08424 17.2577 9.23845C17.4119 9.39267 17.6084 9.49769 17.8223 9.54024C18.0362 9.58278 18.2579 9.56095 18.4594 9.47749C18.6609 9.39403 18.8331 9.25269 18.9543 9.07136C19.0755 8.89002 19.1401 8.67683 19.1401 8.45874C19.1543 7.8509 18.6453 7.35605 18.0374 7.35605V7.35605Z" fill="#1B1D23"/>
<path d="M14.8658 5.94237C13.6924 5.71618 12.6746 5.92824 11.784 6.47955C11.4728 4.65589 14.5405 4.11871 14.8658 5.94237Z" fill="#63300F"/>
<path d="M16.6752 5.94237C17.8486 5.71618 18.8664 5.92824 19.757 6.47955C20.068 4.65589 17.0003 4.11871 16.6752 5.94237Z" fill="#4F2800"/>
<path d="M27.6173 17.8457V29.2543C27.6167 29.6216 27.4706 29.9737 27.2109 30.2334C26.9511 30.4931 26.599 30.6393 26.2317 30.6398H5.56367C5.19636 30.6393 4.84426 30.4931 4.58453 30.2334C4.32481 29.9737 4.17865 29.6216 4.1781 29.2543V17.9306L15.8976 20.7297L27.6173 17.8457Z" fill="#7EAABA"/>
<path d="M26.6841 19.0474L15.9118 21.7051L5.12531 19.1322V29.0281C5.12558 29.2117 5.19866 29.3878 5.32852 29.5176C5.45838 29.6475 5.63444 29.7206 5.81809 29.7208H25.9913C26.1749 29.7206 26.351 29.6475 26.4809 29.5176C26.6107 29.3878 26.6838 29.2117 26.6841 29.0281V19.0474Z" fill="#D3E8EF"/>
<path d="M15.9119 21.7054L5.13947 19.1322V29.0281C5.13974 29.2117 5.21282 29.3878 5.34268 29.5176C5.47254 29.6475 5.6486 29.7206 5.83225 29.7208H15.9119V21.7054Z" fill="white"/>
<path d="M15.9119 24.5042H24.9737V25.72H15.9119V24.5042ZM15.9119 27.0206H24.9737V28.2364H15.9119V27.0206Z" fill="#036AAB"/>
<path d="M6.85004 24.5042H15.9119V25.72H6.85004V24.5042ZM15.9119 28.2364V27.0206H6.85004V28.2364H15.9119Z" fill="#0399ED"/>
<path d="M10.5256 23.7126H11.6707V29.2543H10.5256V23.7126Z" fill="white"/>
<path d="M7.34479 18.6939C10.2005 19.3725 13.0561 20.0652 15.8976 20.7438L12.8441 23.6278C10.8649 22.4685 8.89987 21.182 7.34479 18.6939V18.6939Z" fill="#7EAABA"/>
<path d="M9.76227 20.2349C10.6387 21.0972 11.6001 21.79 12.7169 22.4685L14.0035 21.2527L9.76227 20.2349Z" fill="white"/>
<path d="M24.4647 18.6939C21.6091 19.3725 18.7534 20.0652 15.9119 20.7438L18.9654 23.6278C20.9446 22.4685 22.8955 21.182 24.4647 18.6939V18.6939Z" fill="#7EAABA"/>
<path d="M22.0331 20.2349C21.1567 21.0972 20.1953 21.79 19.0785 22.4685L17.7919 21.2527L22.0331 20.2349Z" fill="white"/>
</svg>
