<?xml version="1.0" encoding="UTF-8" standalone="no"?>
<!DOCTYPE svg PUBLIC "-//W3C//DTD SVG 1.1//EN" "http://www.w3.org/Graphics/SVG/1.1/DTD/svg11.dtd">
<svg width="100%" height="100%" viewBox="0 0 800 800" version="1.1" xmlns="http://www.w3.org/2000/svg" xmlns:xlink="http://www.w3.org/1999/xlink" xml:space="preserve" xmlns:serif="http://www.serif.com/" style="fill-rule:evenodd;clip-rule:evenodd;stroke-linejoin:round;stroke-miterlimit:2;">
    <g transform="matrix(2,0,0,2,0,0)">
        <g id="_6f7c9d94-fa87-409e-8541-befd9f1e8612" serif:id="6f7c9d94-fa87-409e-8541-befd9f1e8612">
        </g>
        <g id="Artboard1" transform="matrix(1.38285,0,0,1.38285,-1212.26,-252.797)">
            <rect x="876.639" y="182.808" width="289.257" height="289.257" style="fill:none;"/>
            <clipPath id="_clip1">
                <rect x="876.639" y="182.808" width="289.257" height="289.257"/>
            </clipPath>
            <g clip-path="url(#_clip1)">
                <g id="_6f7c9d94-fa87-409e-8541-befd9f1e86121" serif:id="6f7c9d94-fa87-409e-8541-befd9f1e8612" transform="matrix(0.482096,0,0,0.482096,828.429,182.808)">
                    <rect x="0" y="0" width="800" height="600"/>
                    <g transform="matrix(2.70653,0,0,2.70653,129.347,181.319)">
                        <path d="M43.8,0C19.7,0 0,19.7 0,43.8C0,68 19.7,87.7 43.8,87.7C68,87.7 87.7,68 87.7,43.8C87.7,19.7 68,0 43.8,0ZM4.4,43.8C4.4,38.1 5.6,32.7 7.8,27.8L26.6,79.3C13.5,72.9 4.4,59.4 4.4,43.8ZM43.8,83.2C39.9,83.2 36.2,82.6 32.7,81.6L44.5,47.2L56.6,80.4C56.7,80.6 56.8,80.8 56.9,80.9C52.8,82.4 48.4,83.2 43.8,83.2ZM49.3,25.4C51.7,25.3 53.8,25 53.8,25C55.9,24.7 55.7,21.6 53.5,21.8C53.5,21.8 47.1,22.3 43,22.3C39.1,22.3 32.6,21.8 32.6,21.8C30.5,21.7 30.2,24.9 32.4,25C32.4,25 34.4,25.2 36.5,25.4L42.6,42.2L34,68L19.7,25.4C22.1,25.3 24.2,25 24.2,25C26.3,24.7 26.1,21.6 23.9,21.8C23.9,21.8 17.5,22.3 13.4,22.3L10.9,22.3C18,11.5 30.1,4.4 43.8,4.4C54.1,4.4 63.4,8.3 70.4,14.7L69.9,14.7C66,14.7 63.3,18.1 63.3,21.7C63.3,24.9 65.2,27.7 67.2,30.9C68.7,33.5 70.4,36.9 70.4,41.8C70.4,45.2 69.4,49.4 67.4,54.5L63.5,67.6L49.3,25.4ZM63.6,77.9L75.6,43.1C77.8,37.5 78.6,33 78.6,29C78.6,27.5 78.5,26.2 78.3,24.9C81.4,30.5 83.1,37 83.1,43.8C83.2,58.4 75.4,71.1 63.6,77.9ZM127.3,23.6L118.4,49.7C117.5,52.9 116.7,55.9 116.4,58.7L116.2,58.7C116,55.9 115.2,52.8 114.2,49.7L105.3,23.6L93.6,23.6L110.4,67.7L122.4,67.7L139.2,23.6L127.3,23.6ZM145,23.6L141.7,32.3L141.7,67.6L153.5,67.6L153.5,23.6M195.6,28.8C192.7,24.8 188.6,22.8 183.4,22.8C177.9,22.8 174.1,25 171.3,29.3L170.7,29.3L169,23.6L159.4,23.6L159.4,87.7L171.2,87.7L171.2,69.2C171.2,68.6 171,66.5 170.6,62.8L171.2,62.8C174.1,66.6 177.8,68.4 183,68.4C186.4,68.4 189.4,67.5 192,65.7C194.5,63.9 196.5,61.2 197.9,57.8C199.3,54.3 200,50.2 200,45.5C200,38.4 198.5,32.8 195.6,28.8ZM180.1,58.7C177.1,58.7 174.8,57.7 173.4,55.6C172,53.6 171.3,50.2 171.3,45.4L171.3,44.1C171.4,39.9 172.1,36.9 173.4,35.1C174.8,33.3 176.9,32.4 179.9,32.4C182.7,32.4 184.8,33.5 186.1,35.7C187.4,37.9 188.1,41.1 188.1,45.5C188.2,54.2 185.5,58.7 180.1,58.7Z" style="fill:white;fill-rule:nonzero;"/>
                    </g>
                </g>
            </g>
        </g>
    </g>
</svg>
