<svg width="32" height="32" viewBox="0 0 32 32" fill="none" xmlns="http://www.w3.org/2000/svg">
<g clip-path="url(#clip0)">
<path d="M0.00756836 16.4946C0.268943 25.1023 7.32907 32 16.0001 32C24.8366 32 32.0001 24.8365 32.0001 16C32.0001 7.1635 24.8366 0 16.0001 0C7.32907 0 0.268943 6.89775 0.00756836 15.5054V16.4946Z" fill="#D46A59"/>
<path d="M28.3984 15.9999C28.3984 22.8473 22.8474 28.3983 16 28.3983C9.15246 28.3983 3.60156 22.8473 3.60156 15.9999C3.60156 9.15256 9.15246 3.60156 16 3.60156C22.8474 3.60156 28.3984 9.15256 28.3984 15.9999Z" fill="#D04F41"/>
<path d="M10.7172 25.8683L3.0437 10.651L8.27085 8.9936L12.3346 18.0932L12.8924 8.32435L17.4343 7.44772L21.6255 16.388L22.0022 6.56672L26.6773 5.64697L25.3387 23.0335L20.4462 24.0056L16.2231 15.2566L15.6335 24.9617L10.7172 25.8683V25.8683Z" fill="white"/>
</g>
<defs>
<clipPath id="clip0">
<rect width="32" height="32" fill="white"/>
</clipPath>
</defs>
</svg>
