<svg width="32" height="32" viewBox="0 0 32 32" fill="none" xmlns="http://www.w3.org/2000/svg">
<path d="M22.928 28.5823L13.6625 6.17014C13.4758 5.6669 13.1815 5.21054 12.8 4.833C12.6554 4.67689 12.4815 4.55084 12.2881 4.46207C12.0947 4.37329 11.8858 4.32354 11.6731 4.31566V3.51109H21.9589V4.31566C21.562 4.31005 21.1788 4.46085 20.8922 4.73547C20.6409 5.01178 20.5094 5.37646 20.5265 5.74957C20.5361 5.9316 20.5634 6.11226 20.608 6.289C20.7118 6.74506 20.8558 7.191 21.0385 7.62157L26.6926 21.2833L23.6747 28.5831L22.928 28.5823ZM11.2518 28.5823L1.98705 6.17014C1.80091 5.6672 1.50737 5.21089 1.12686 4.833C0.982205 4.67699 0.808237 4.551 0.614889 4.46224C0.421541 4.37347 0.2126 4.32367 0 4.31566L0 3.51109H7.66476L15.0194 21.2825L12.0023 28.5823H11.2518ZM24.9562 6.29509C24.9585 5.65108 25.1515 5.02218 25.5109 4.4878C25.8704 3.95342 26.3801 3.53753 26.9757 3.29264C27.5714 3.04775 28.2262 2.98484 28.8576 3.11187C29.4889 3.23889 30.0685 3.55015 30.5231 4.00633C30.9777 4.46252 31.2869 5.04317 31.4117 5.67498C31.5365 6.30678 31.4713 6.9614 31.2244 7.55618C30.9774 8.15096 30.5597 8.65922 30.0241 9.01679C29.4884 9.37435 28.8589 9.56518 28.2149 9.56519C27.3496 9.56297 26.5206 9.21726 25.9101 8.60407C25.2996 7.99087 24.9576 7.16036 24.9592 6.29509H24.9562Z" fill="black"/>
</svg>
