<svg width="32" height="32" viewBox="0 0 32 32" fill="none" xmlns="http://www.w3.org/2000/svg">
<rect width="32" height="32" fill="#515151"/>
<path d="M1.97601 5.77598C2.00801 5.91998 2.06401 6.14398 2.10401 6.27998C2.14401 6.40798 2.34401 7.12798 2.53601 7.87998C2.73601 8.62398 2.92801 9.36798 2.97601 9.51998C3.01601 9.67198 3.12801 10.072 3.21601 10.4C3.30401 10.728 3.40801 11.104 3.44801 11.24C3.48801 11.368 3.72801 12.256 3.97601 13.2C4.37601 14.704 4.71201 15.944 4.97601 16.88C5.02401 17.032 5.25601 17.896 5.49601 18.8C6.22401 21.512 6.26401 21.688 6.49601 22.52C6.62401 22.96 6.85601 23.824 7.01601 24.44C7.17601 25.056 7.36801 25.76 7.44001 26L7.57601 26.44L10.352 26.464C12.944 26.48 13.128 26.472 13.168 26.344C13.2 26.224 13.432 25.088 13.672 23.84C13.824 23.064 15.576 14.24 15.736 13.44C15.848 12.896 15.968 12.416 16.016 12.368C16.104 12.28 16.056 12.072 16.648 15.12C16.912 16.464 17.256 18.168 17.408 18.92C17.76 20.632 18.896 26.384 18.896 26.44C18.896 26.464 20.136 26.48 21.656 26.48H24.416L24.464 26.256C24.488 26.136 24.616 25.664 24.744 25.2C24.872 24.736 25.016 24.216 25.064 24.04C25.112 23.864 25.184 23.632 25.216 23.52C25.256 23.408 25.448 22.688 25.656 21.92C25.984 20.704 26.48 18.904 26.736 18C26.784 17.848 27.016 17 27.256 16.12C27.784 14.208 27.856 13.944 27.936 13.68C27.968 13.568 28.072 13.192 28.168 12.84C28.344 12.16 28.992 9.77598 29.144 9.23998C29.2 9.06398 29.272 8.80798 29.304 8.67998C29.472 8.10398 30 6.18398 30.048 5.98398C30.072 5.87198 30.12 5.71998 30.144 5.64798C30.192 5.53598 29.928 5.51998 27.44 5.51998H24.688L24.592 5.97598C24.544 6.23198 24.336 7.30398 24.136 8.35998C23.936 9.41598 23.736 10.424 23.696 10.6C23.656 10.776 23.544 11.336 23.456 11.84C23.36 12.344 23.144 13.496 22.968 14.4C22.792 15.304 22.488 16.864 22.296 17.88C21.832 20.288 21.752 20.64 21.696 20.64C21.672 20.64 21.36 19.152 21 17.336C20.224 13.44 19.096 7.79198 18.984 7.27998C18.944 7.07998 18.864 6.70398 18.816 6.43998C18.76 6.17598 18.696 5.87198 18.664 5.75998L18.6 5.55998L16.032 5.53598L13.456 5.51998L13.416 5.69598C13.4 5.79998 12.96 7.96798 12.448 10.52C11.936 13.072 11.28 16.344 10.984 17.792C10.696 19.24 10.416 20.44 10.376 20.456C10.296 20.48 10.208 20.056 9.52801 16.52C9.40001 15.856 9.26401 15.136 9.21601 14.92C9.16801 14.696 9.02401 13.944 8.88801 13.24C8.53601 11.344 8.41601 10.72 8.33601 10.36C8.29601 10.184 8.15201 9.46398 8.02401 8.75998C7.88801 8.05598 7.68801 7.04798 7.59201 6.51998L7.40001 5.55998L4.66401 5.53598L1.92001 5.51998L1.97601 5.77598Z" fill="white"/>
</svg>
