<svg width="32" height="32" viewBox="0 0 32 32" fill="none" xmlns="http://www.w3.org/2000/svg">
<path fill-rule="evenodd" clip-rule="evenodd" d="M19.1358 9.15991H13.242L9.7879 17.3864L6.33383 9.15991H0.440002C2.58098 14.2589 4.7211 19.3588 6.86292 24.4572L4.49037 30.1076H10.3842C13.3315 23.088 16.2074 16.134 19.1357 9.16005L19.1358 9.15991Z" fill="#6101D1"/>
<path fill-rule="evenodd" clip-rule="evenodd" d="M25.1928 1.91992H31.5357L25.7999 15.7794H19.457L25.1928 1.91992ZM21.0161 17.116C22.991 17.116 24.5922 18.717 24.5922 20.6921C24.5922 22.6672 22.9912 24.2682 21.0161 24.2682C19.0411 24.2682 17.44 22.6672 17.44 20.6921C17.44 18.7172 19.0411 17.116 21.0161 17.116Z" fill="#6101D1"/>
</svg>
