<svg width="32" height="32" viewBox="0 0 32 32" fill="none" xmlns="http://www.w3.org/2000/svg">
<path d="M31.9903 19.0544C31.9903 14.9022 28.636 11.5379 24.5014 11.5379L20.3618 11.5253V7.51649C20.3618 3.36417 17.0075 0 12.8729 0C10.1182 0 7.7147 1.49323 6.41261 3.71672C5.27861 4.37897 4.3328 5.33332 3.678 6.47403C1.47524 7.78345 0 10.1908 0 12.9456V23.5719C0 27.7243 4.15968 32 8.29675 32H19.1199C21.9173 32 24.3558 30.4589 25.6404 28.1775C26.7041 27.5329 27.5973 26.6365 28.232 25.5738C30.4749 24.2744 31.9903 21.8446 31.9903 19.0544Z" fill="white"/>
<path d="M19.1248 16.9647L14.9852 16.9521V12.9432C14.9852 8.79096 11.6309 5.42676 7.49631 5.42676C3.36174 5.42676 0.00738525 8.79349 0.00738525 12.9432V23.5697C0.00738525 27.7221 4.16707 31.9978 8.30416 31.9978H19.1273C23.2644 31.9978 26.6162 28.6311 26.6162 24.4812C26.6137 20.3314 23.2619 16.9647 19.1248 16.9647Z" fill="#582DB4"/>
<path opacity="0.5" d="M21.8068 14.2401L17.6722 14.2274C17.6697 14.2274 17.6648 14.2249 17.6648 14.2198V10.3093C17.6648 6.01592 14.1222 2.52331 9.84975 2.70713C5.86572 2.87836 2.68701 6.17456 2.68701 10.2186V21.3965C2.68701 25.5513 6.34492 29.2756 10.487 29.2756H21.7165C25.9942 29.2756 29.4738 25.7201 29.2908 21.4317C29.1201 17.4305 25.8336 14.2401 21.8068 14.2401Z" fill="#FE50B8"/>
<path opacity="0.5" d="M24.5086 11.5379L20.369 11.5253V7.51649C20.369 3.36417 17.0147 0 12.8801 0C8.74557 0 5.39124 3.36669 5.39124 7.51649V19.0544C5.39124 23.8817 8.44202 26.571 12.5791 26.571H24.5111C28.6482 26.571 32 23.2043 32 19.0544C32 14.9046 28.6457 11.5379 24.5086 11.5379Z" fill="#FF0088"/>
</svg>
