<svg width="52" height="52" viewBox="0 0 52 52" fill="none" xmlns="http://www.w3.org/2000/svg">
<g clip-path="url(#clip0_103:17)">
<path fill-rule="evenodd" clip-rule="evenodd" d="M33.0828 9.05154C28.1222 16.1718 15.6212 34.0609 15.6212 34.0609L0.606739 12.6117C0.210293 11.98 0 11.2494 0 10.5036C0 9.75784 0.210293 9.0272 0.606739 8.39554C0.985756 7.68625 1.55495 7.09663 2.25044 6.69286C2.94886 6.28352 3.73456 6.04604 4.54278 6C5.6525 6.0091 6.74682 6.26067 7.74911 6.73709C7.74911 6.73709 17.1764 10.6142 33.0828 9.05154Z" fill="#FFDD00"/>
<path fill-rule="evenodd" clip-rule="evenodd" d="M47.5001 6.19165C48.0014 6.21189 48.4975 6.30118 48.9743 6.457C49.513 6.61335 50.0117 6.88387 50.4365 7.25018C50.8613 7.61648 51.2023 8.06998 51.4362 8.57982C51.7513 9.25029 51.8876 9.99082 51.8321 10.7296C51.7766 11.4683 51.531 12.1801 51.1192 12.796L29.8101 43.7831C29.3876 44.3919 28.8406 44.9039 28.2052 45.2851C27.5698 45.6663 26.8606 45.9081 26.1246 45.9943C26.1246 45.9943 23.8028 46.2449 22.2402 43.4145L15.459 33.8693L33.0459 9.04417C37.301 8.46977 41.5156 7.62783 45.6648 6.52334C46.259 6.33117 46.8763 6.21962 47.5001 6.19165Z" fill="#73CBF2"/>
<path fill-rule="evenodd" clip-rule="evenodd" d="M19.8373 32.2845L26.0067 45.9943L10.1078 45.9206C9.74951 45.8978 9.40251 45.7864 9.09797 45.5963C8.81013 45.3339 8.62092 44.9808 8.5619 44.5959C8.50288 44.2109 8.57762 43.8174 8.77365 43.4808C8.77365 43.4808 13.3067 36.965 15.4959 33.8618L23.5301 44.8002C23.8238 45.1757 24.1999 45.4787 24.6293 45.6858C25.0588 45.8928 25.53 45.9984 26.0067 45.9943L19.8373 32.2845Z" fill="#F27264"/>
</g>
<defs>
<clipPath id="clip0_103:17">
<rect width="51.84" height="51.84" fill="white"/>
</clipPath>
</defs>
</svg>
