<svg width="32" height="32" viewBox="0 0 32 32" fill="none" xmlns="http://www.w3.org/2000/svg">
<path d="M16 0C7.16522 0 0 7.16522 0 16C0 24.8348 7.16522 32 16 32C24.8348 32 32 24.8348 32 16C32 7.16522 24.8348 0 16 0ZM16 30.7061C7.87478 30.7061 1.28 24.1113 1.28 15.9861C1.28 7.86087 7.87478 1.26609 16 1.26609C24.1252 1.26609 30.72 7.86087 30.72 15.9861C30.72 24.1252 24.1252 30.7061 16 30.7061Z" fill="black"/>
<path d="M16.473 17.753H19.353V23.513H20.633V17.753H23.513V16.473H16.473V17.753Z" fill="black"/>
<path d="M14.7756 16.3201L12.0069 19.0888L9.22432 16.3201L8.31998 17.2244L11.1026 19.9931L8.31998 22.7618L9.22432 23.6662L12.0069 20.8975L14.7756 23.6662L15.68 22.7618L12.9113 19.9931L15.68 17.2244L14.7756 16.3201Z" fill="black"/>
<path d="M19.9234 15.513C21.913 15.513 23.5269 13.8991 23.5269 11.9095H22.233C22.233 13.1895 21.1895 14.233 19.9095 14.233C19.5477 14.233 19.1999 14.1495 18.8938 13.9965L21.9964 10.8939L22.9286 9.96169C22.2886 8.97386 21.1756 8.31995 19.9095 8.31995C17.9199 8.31995 16.306 9.93386 16.306 11.9234C16.3199 13.8991 17.9338 15.513 19.9234 15.513ZM19.9234 9.59995C20.3686 9.59995 20.786 9.72516 21.1477 9.94777L17.9477 13.1478C17.7251 12.786 17.5999 12.3686 17.5999 11.9234C17.5999 10.6295 18.6434 9.59995 19.9234 9.59995Z" fill="black"/>
<path d="M12.0069 11.5339L9.3078 8.31995L8.31998 9.14082L11.3669 12.7582V15.513H12.6469V12.7582L15.68 9.14082L14.7061 8.31995L12.0069 11.5339Z" fill="black"/>
</svg>
