<svg width="32" height="32" viewBox="0 0 32 32" fill="none" xmlns="http://www.w3.org/2000/svg">
<path d="M20.4427 5.33331C14.5013 5.33331 9.77601 10.1264 9.77601 16C9.77601 21.9413 14.5691 26.6666 20.4427 26.6666C26.3157 26.6666 31.1093 21.8736 31.1093 16C31.1093 10.1264 26.3157 5.33331 20.4427 5.33331ZM20.4427 19.9157C18.2821 19.9157 16.4587 18.0928 16.4587 15.9322C16.4587 13.7722 18.2821 11.9493 20.4427 11.9493C22.6027 11.9493 24.4256 13.7722 24.4256 15.9322C24.3579 18.1605 22.6027 19.9157 20.4421 19.9157H20.4427ZM9.70828 8.37118V23.8986H5.92695L1.06668 8.37118H9.70828Z" fill="#8B3FFD"/>
</svg>
