<svg width="32" height="32" viewBox="0 0 32 32" fill="none" xmlns="http://www.w3.org/2000/svg">
<path d="M13.615 18.6717V7.04102H1.91998C1.91998 7.04102 9.76088 13.8054 11.1009 25.2224C11.1009 25.2224 13.615 23.65 13.615 18.6717Z" fill="#F796B9"/>
<path d="M20.259 16.0394V7.04102H13.6212V18.6717C13.6212 23.65 11.1071 25.2224 11.1071 25.2224C13.536 25.2104 15.8615 24.238 17.5761 22.5176C19.2907 20.7972 20.2551 18.4683 20.259 16.0394Z" fill="#2F3A93"/>
<path d="M20.7278 7.04102H20.2528V16.0394C20.2501 18.4687 19.286 20.7981 17.5712 22.5188C15.8563 24.2394 13.5301 25.2114 11.1009 25.2224L20.7278 25.21C21.9323 25.2281 23.1285 25.0066 24.2466 24.5583C25.3648 24.1099 26.3826 23.4436 27.2408 22.5983C28.099 21.7529 28.7806 20.7453 29.2458 19.634C29.711 18.5228 29.9506 17.3302 29.9506 16.1255C29.9506 14.9208 29.711 13.7282 29.2458 12.6169C28.7806 11.5057 28.099 10.4981 27.2408 9.65271C26.3826 8.80733 25.3648 8.14108 24.2466 7.69271C23.1285 7.24434 21.9323 7.02281 20.7278 7.04102Z" fill="#0CD9DC"/>
</svg>
