<svg width="32" height="32" viewBox="0 0 32 32" fill="none" xmlns="http://www.w3.org/2000/svg">
<path d="M19.2176 13.0098H14.0708C13.7487 13.0098 13.4875 13.271 13.4875 13.5931V18.6263C13.4875 18.9484 13.7487 19.2096 14.0708 19.2096H19.2176C19.5397 19.2096 19.8009 18.9484 19.8009 18.6263V13.5931C19.8009 13.271 19.5397 13.0098 19.2176 13.0098Z" fill="#FDCF00"/>
<path d="M0.901713 10.9999L12.8039 11.0022C13.1757 11.0023 13.4771 10.7009 13.4772 10.3292L13.4781 5.47569C13.4782 5.10393 13.1768 4.80249 12.8051 4.80242L0.902904 4.80014C0.531137 4.80006 0.229702 5.10138 0.229631 5.47315L0.228699 10.3266C0.228628 10.6984 0.529946 10.9998 0.901713 10.9999Z" fill="url(#paint0_linear_2292_18)"/>
<path d="M14.1609 27.4167L31.0076 27.4191C31.3793 27.4191 31.6808 27.1178 31.6808 26.746L31.6815 21.8926C31.6815 21.5208 31.3802 21.2194 31.0084 21.2193L14.1618 21.217C13.79 21.2169 13.4886 21.5183 13.4886 21.89L13.4879 26.7435C13.4878 27.1153 13.7892 27.4167 14.1609 27.4167Z" fill="url(#paint1_linear_2292_18)"/>
<defs>
<linearGradient id="paint0_linear_2292_18" x1="13.4776" y1="7.90243" x2="0.229165" y2="7.89989" gradientUnits="userSpaceOnUse">
<stop offset="0.131" stop-color="#FF00C0"/>
<stop offset="1" stop-color="#FF39FF"/>
</linearGradient>
<linearGradient id="paint1_linear_2292_18" x1="31.6811" y1="24.3193" x2="13.4882" y2="24.3168" gradientUnits="userSpaceOnUse">
<stop offset="0.006" stop-color="#19F5AF"/>
<stop offset="1" stop-color="#19F566"/>
</linearGradient>
</defs>
</svg>
