<svg width="32" height="32" viewBox="0 0 32 32" fill="none" xmlns="http://www.w3.org/2000/svg">
<path d="M14.8541 10.4381V27.6358H0.609524L14.8541 10.4381ZM14.8541 4.26667C14.8541 6.15561 14.1037 7.9672 12.768 9.30288C11.4323 10.6386 9.62076 11.389 7.73181 11.389C5.84286 11.389 4.03128 10.6386 2.69559 9.30288C1.35991 7.9672 0.609524 6.15561 0.609524 4.26667L14.8541 4.26667ZM17.2008 27.6373C17.2008 25.7484 17.9511 23.9368 19.2868 22.6011C20.6225 21.2654 22.4341 20.515 24.3231 20.515C26.212 20.515 28.0236 21.2654 29.3593 22.6011C30.695 23.9368 31.4453 25.7484 31.4453 27.6373H17.2008ZM17.2008 21.4659V4.26667H31.4484L17.2008 21.4644V21.4659Z" fill="#03363D"/>
</svg>
