<svg width="32" height="32" viewBox="0 0 32 32" fill="none" xmlns="http://www.w3.org/2000/svg">
<path d="M0 11.7351C0 7.58416 0 5.50868 0.820631 3.9289C1.51217 2.59764 2.59764 1.51217 3.9289 0.820631C5.50868 0 7.58416 0 11.7351 0H20.2649C24.4158 0 26.4913 0 28.0711 0.820631C29.4024 1.51217 30.4878 2.59764 31.1794 3.9289C32 5.50868 32 7.58416 32 11.7351V20.2649C32 24.4158 32 26.4913 31.1794 28.0711C30.4878 29.4024 29.4024 30.4878 28.0711 31.1794C26.4913 32 24.4158 32 20.2649 32H11.7351C7.58416 32 5.50868 32 3.9289 31.1794C2.59764 30.4878 1.51217 29.4024 0.820631 28.0711C0 26.4913 0 24.4158 0 20.2649L0 11.7351Z" fill="#FFE52B"/>
<path d="M9.0321 17.1555C9.99521 17.1555 10.7777 16.373 10.7777 15.4099C10.7777 14.4468 9.99521 13.6643 9.0321 13.6643C8.06896 13.6643 7.28644 14.4468 7.28644 15.4099C7.28644 16.373 8.06896 17.1555 9.0321 17.1555Z" fill="#142F56"/>
<path d="M22.997 17.1555C23.9601 17.1555 24.7427 16.373 24.7427 15.4099C24.7427 14.4468 23.9601 13.6643 22.997 13.6643C22.0339 13.6643 21.2514 14.4468 21.2514 15.4099C21.2514 16.373 22.0339 17.1555 22.997 17.1555Z" fill="#142F56"/>
<path d="M23.6141 23.3404C21.3567 24.5894 18.7685 25.3117 16.0146 25.3117C14.3442 25.3117 12.734 25.0409 11.2141 24.5593C11.2141 24.5593 23.4786 6.41085 23.4936 6.39581C23.5539 6.29046 23.5839 6.20018 23.5839 6.10988C23.5839 6.10988 23.5839 6.07979 23.5839 6.06474V4.36426H8.44519V6.69677H20.3786C20.3786 6.69677 8.55052 24.1981 8.55052 24.2132C8.49033 24.3186 8.46023 24.4089 8.46023 24.4991V24.5443V25.989C10.7627 27.0573 13.3209 27.6443 16.0296 27.6443C19.2048 27.6443 22.1694 26.8316 24.7577 25.402L23.6141 23.3404Z" fill="#142F56"/>
</svg>
