<svg width="32" height="32" viewBox="0 0 32 32" fill="none" xmlns="http://www.w3.org/2000/svg">
<path d="M22.2694 29.4443C22.2295 29.4445 22.1903 29.4336 22.1561 29.413C22.1219 29.3924 22.0942 29.3626 22.0757 29.3273L21.0728 27.5201C21.0646 27.505 21.0523 27.4927 21.0375 27.4842C21.0226 27.4757 21.0057 27.4715 20.9886 27.4721C20.9742 27.4716 20.9601 27.4748 20.9473 27.4814C19.2752 28.301 17.4369 28.7252 15.5747 28.721C13.0506 28.7251 10.5874 27.9469 8.52371 26.4936C6.5897 25.1392 5.08506 23.2581 4.18858 21.0738C4.1818 21.0569 4.1702 21.0424 4.15523 21.032C4.14025 21.0217 4.12256 21.016 4.10436 21.0157C4.09404 21.0154 4.08377 21.0172 4.07406 21.0208L2.12544 21.6902C2.10191 21.6986 2.07713 21.7028 2.05217 21.7029C2.00777 21.7027 1.96445 21.6891 1.92792 21.6639C1.89139 21.6386 1.86335 21.6028 1.84753 21.5614C1.84753 21.5563 1.78184 21.3829 1.73047 21.2346C1.68415 21.1024 1.63615 20.9525 1.6252 20.9189C1.15473 19.4645 0.914637 17.9455 0.913626 16.417C0.908489 14.4906 1.28543 12.5824 2.02262 10.8028C2.75981 9.02311 3.8426 7.40736 5.20837 6.04895C6.5668 4.68318 8.1826 3.60037 9.96228 2.86319C11.7419 2.126 13.6501 1.74907 15.5763 1.7542C17.0787 1.75793 18.5726 1.97716 20.0126 2.40516C22.2459 3.064 24.2832 4.26148 25.9452 5.89231C27.6046 7.52508 28.8339 9.54328 29.5234 11.7669C30.5928 15.0892 30.4676 18.681 29.1696 21.921C27.9426 24.9234 25.7616 27.4387 22.9633 29.0789L22.8033 29.1715L22.3772 29.414C22.3445 29.4333 22.3074 29.4437 22.2694 29.4443ZM23.37 6.95419C23.4259 6.95423 23.4794 6.97563 23.5199 7.01399L24.0117 7.47462C25.2119 8.60307 26.1731 9.96096 26.8387 11.4679C27.5292 13.0266 27.8843 14.713 27.8812 16.4178C27.8817 18.5912 27.3048 20.7257 26.2096 22.6031C25.1955 24.3334 23.7782 25.793 22.0782 26.8574C22.058 26.8699 22.0435 26.8898 22.0375 26.9129C22.0315 26.9359 22.0347 26.9604 22.0462 26.9812L22.5599 27.9075C22.5661 27.9186 22.5743 27.9284 22.5843 27.9362C22.5943 27.944 22.6058 27.9497 22.618 27.953C22.6259 27.9539 22.6338 27.9539 22.6416 27.953C22.6589 27.9527 22.6758 27.9477 22.6905 27.9387C24.5771 26.7678 26.1509 25.1561 27.2766 23.2422C28.4902 21.1712 29.1297 18.814 29.1292 16.4136C29.1252 12.821 27.6963 9.3768 25.156 6.83649C22.6157 4.29618 19.1715 2.86725 15.5789 2.86325C15.4399 2.86325 15.2993 2.86325 15.1578 2.86915C11.8683 2.97685 8.72986 4.2758 6.32638 6.52438C3.92291 8.77292 2.41804 11.8181 2.09175 15.0932C1.92068 16.8277 2.08887 18.579 2.58691 20.2494C2.59433 20.2736 2.61096 20.2938 2.63323 20.3058C2.64656 20.3125 2.66126 20.3159 2.67617 20.3159C2.68649 20.3159 2.69674 20.3142 2.70649 20.3109L4.62564 19.6523C4.64868 19.6444 4.67287 19.6404 4.69721 19.6405C4.74384 19.6404 4.78928 19.6552 4.82687 19.6828C4.86446 19.7104 4.89221 19.7493 4.90607 19.7938L5.05091 20.2149C5.8254 22.3552 7.23358 24.2086 9.08793 25.5285C10.9795 26.8848 13.2496 27.6122 15.5772 27.6077C15.7347 27.6077 15.8938 27.6077 16.0521 27.5976C18.8659 27.4808 21.5311 26.3029 23.5115 24.3008C25.5009 22.307 26.6618 19.6341 26.7612 16.8195C26.812 15.2845 26.5475 13.7555 25.984 12.3268C25.4206 10.8981 24.5702 9.60004 23.4854 8.51296C23.4769 8.50412 23.4667 8.49722 23.4554 8.49242C23.4441 8.48762 23.432 8.48518 23.4197 8.48518C23.4072 8.48551 23.3949 8.48829 23.3834 8.49351C23.372 8.49873 23.3617 8.50623 23.3532 8.51549L22.0311 9.9597C21.9905 9.99827 21.9364 10.0197 21.8803 10.0195C21.8369 10.0196 21.7944 10.0067 21.7582 9.98244L21.7321 9.96138L21.2387 9.51002C19.6435 8.19922 17.6435 7.4815 15.5789 7.47883C15.3406 7.47883 15.0963 7.48895 14.853 7.50832C12.791 7.67899 10.8521 8.55962 9.36666 10.0001C7.87756 11.4353 6.93435 13.3441 6.69891 15.3989C6.49711 17.1643 6.82728 18.9498 7.6471 20.5264C8.38313 21.9381 9.48035 23.1296 10.8269 23.9791C10.8418 23.9884 10.859 23.9934 10.8766 23.9934C10.8847 23.9943 10.8929 23.9943 10.901 23.9934C10.9134 23.9899 10.9248 23.9841 10.9348 23.9761C10.9448 23.9682 10.9531 23.9583 10.9591 23.9471L11.9149 22.1298C11.9343 22.0949 11.9625 22.0659 11.9966 22.0453C12.0307 22.0248 12.0697 22.0136 12.1094 22.0128C12.1453 22.0128 12.1806 22.0218 12.2121 22.0389L12.7865 22.342C13.6579 22.7584 14.6115 22.9738 15.5772 22.9728C15.9042 22.9725 16.2306 22.9486 16.5541 22.9012C17.9731 22.6903 19.2832 22.0183 20.2824 20.9889C21.2815 19.9594 21.9141 18.6298 22.0825 17.2052C22.1919 16.3122 22.1149 15.4063 21.8561 14.5447C21.5974 13.6831 21.1626 12.8846 20.5793 12.1997C19.479 10.9082 17.9247 10.0885 16.2374 9.91002H16.2281C16.2052 9.90993 16.183 9.91827 16.1659 9.9336C16.1563 9.94235 16.1487 9.95305 16.1435 9.96492C16.1383 9.9768 16.1356 9.9896 16.1355 10.0026V11.0502C16.1354 11.0734 16.144 11.0957 16.1596 11.1129C16.1752 11.1301 16.1966 11.1408 16.2197 11.1429C17.5055 11.312 18.6873 11.9391 19.5481 12.909C20.4089 13.879 20.891 15.1269 20.906 16.4237C20.9048 17.8355 20.3433 19.1892 19.3451 20.1876C18.3469 21.186 16.9933 21.7476 15.5815 21.7492C15.4187 21.749 15.256 21.7417 15.0938 21.7273C13.8681 21.616 12.7188 21.0831 11.8419 20.2193C10.9651 19.3555 10.4151 18.2144 10.2855 16.9904C10.2077 16.2773 10.2759 15.556 10.486 14.8702C10.696 14.1844 11.0435 13.5485 11.5073 13.0014C12.38 11.9746 13.6054 11.3115 14.9422 11.1429C14.9654 11.1408 14.9868 11.1301 15.0024 11.1129C15.0179 11.0957 15.0265 11.0734 15.0265 11.0502V8.98707C15.026 8.93629 15.043 8.88694 15.0745 8.84728C15.0946 8.82168 15.1202 8.8008 15.1492 8.78631C15.1784 8.77174 15.2104 8.76374 15.2429 8.76307H15.6151C15.7372 8.76307 15.877 8.77065 15.9182 8.77149C17.9047 8.85663 19.7795 9.71313 21.1443 11.1589C22.5199 12.6029 23.274 14.529 23.2446 16.5231C23.2198 18.4836 22.4404 20.3592 21.0686 21.7601C19.7054 23.1695 17.8515 23.9994 15.8921 24.0776C15.7894 24.0776 15.685 24.0835 15.5831 24.0835C14.5473 24.0845 13.5223 23.8727 12.5717 23.4612C12.56 23.4563 12.5475 23.4537 12.5347 23.4536C12.5174 23.4531 12.5003 23.4575 12.4854 23.4662C12.4705 23.4751 12.4584 23.4879 12.4505 23.5033L11.4736 25.3559C11.4554 25.392 11.4275 25.4224 11.393 25.4435C11.3585 25.4646 11.3187 25.4757 11.2782 25.4755C11.2434 25.4752 11.2091 25.4669 11.178 25.4511L11.1486 25.4359C11.0829 25.4014 10.9742 25.345 10.901 25.3045L10.581 25.1269C8.96456 24.1955 7.63708 22.8353 6.74522 21.1968C5.82174 19.4936 5.41222 17.5591 5.56628 15.6279C5.76127 13.2135 6.81992 10.9503 8.54814 9.25317C10.2764 7.55599 12.5584 6.53859 14.9759 6.38745C15.1755 6.37566 15.3801 6.36895 15.5848 6.36895C17.82 6.37425 19.9899 7.12255 21.7532 8.49612C21.7696 8.50884 21.7897 8.51566 21.8105 8.51549C21.8235 8.51557 21.8364 8.51296 21.8483 8.50774C21.8602 8.50252 21.8708 8.49478 21.8795 8.48518L23.2269 7.01736C23.2655 6.97922 23.3167 6.95648 23.371 6.95337L23.37 6.95419ZM15.5772 12.2048C14.9883 12.2057 14.4061 12.3299 13.8681 12.5693C13.3299 12.8087 12.8479 13.1582 12.453 13.5951C12.0547 14.0316 11.7535 14.5478 11.5696 15.1095C11.3857 15.6712 11.3231 16.2655 11.386 16.8532C11.4854 17.8154 11.913 18.714 12.597 19.3979C13.281 20.082 14.1796 20.5096 15.1418 20.609C15.2883 20.6233 15.4349 20.6309 15.5763 20.6309C16.1652 20.63 16.7475 20.506 17.2855 20.2666C17.8236 20.0273 18.3056 19.6781 18.7006 19.2414C19.099 18.8048 19.4001 18.2885 19.584 17.7269C19.7679 17.1653 19.8305 16.5709 19.7675 15.9833C19.6681 15.0211 19.2405 14.1224 18.5566 13.4384C17.8726 12.7545 16.9739 12.3269 16.0117 12.2275C15.8676 12.2126 15.7229 12.205 15.578 12.2048H15.5772Z" fill="black"/>
<path d="M22.2703 29.5167C22.217 29.5168 22.1647 29.5022 22.1191 29.4746C22.0735 29.447 22.0364 29.4074 22.0118 29.3601L21.0097 27.5546C21.0079 27.5512 21.0052 27.5485 21.002 27.5465C20.9987 27.5447 20.995 27.5437 20.9912 27.5437C19.3059 28.3688 17.4537 28.7961 15.5773 28.7925C13.0385 28.7967 10.5608 28.0142 8.48508 26.5525C6.53995 25.1904 5.0268 23.2984 4.12548 21.1016C4.12388 21.0977 4.1212 21.0943 4.11777 21.092C4.11434 21.0896 4.11028 21.0882 4.1061 21.0881L2.14989 21.7618C2.11847 21.7725 2.08545 21.7779 2.05222 21.7778C1.99309 21.7776 1.9354 21.7595 1.88682 21.7258C1.83823 21.6921 1.80106 21.6445 1.78022 21.5891C1.78022 21.5849 1.71452 21.4098 1.66316 21.2599C1.62021 21.1369 1.57894 20.998 1.56041 20.9525C1.0858 19.4882 0.843426 17.9586 0.842095 16.4194C0.836828 14.4836 1.21555 12.566 1.95636 10.7775C2.69716 8.98896 3.78534 7.36518 5.15788 6.00005C6.52304 4.62753 8.14686 3.5394 9.93535 2.7986C11.7238 2.05779 13.6415 1.67904 15.5773 1.68426C17.0864 1.68806 18.5871 1.90842 20.0337 2.33858C22.2783 3.00047 24.326 4.20375 25.9967 5.84259C27.6644 7.48395 28.9 9.5125 29.5933 11.7474C30.6678 15.0859 30.5418 18.695 29.2371 21.9504C28.0043 24.968 25.8127 27.4961 23.0004 29.1445L22.411 29.4813C22.3678 29.5048 22.3194 29.517 22.2703 29.5167ZM20.992 27.3988C21.0214 27.399 21.0502 27.4068 21.0756 27.4216C21.1011 27.4364 21.1221 27.4576 21.1369 27.483L22.1398 29.2902C22.159 29.3248 22.1909 29.3505 22.2288 29.3619C22.2667 29.3735 22.3076 29.3698 22.3428 29.3517L22.9322 29.0148C25.7172 27.383 27.8876 24.8797 29.1082 21.8914C30.3999 18.6669 30.5241 15.0925 29.4594 11.7862C28.7737 9.57397 27.5508 7.56615 25.8998 5.94194C24.2464 4.31961 22.2199 3.12822 19.9983 2.47248C18.5648 2.04692 17.0777 1.82884 15.5823 1.82489C13.6654 1.81954 11.7664 2.19453 9.99548 2.92811C8.22444 3.66171 6.61653 4.73931 5.26485 6.09858C3.90566 7.45032 2.82809 9.05819 2.09452 10.8292C1.36093 12.6002 0.985902 14.4991 0.991156 16.4161C0.992125 17.9372 1.23109 19.4488 1.69937 20.8961C1.71705 20.9508 1.76083 21.0872 1.80378 21.2093L1.91999 21.5352C1.93553 21.5694 1.96298 21.5968 1.99722 21.6123C2.03145 21.6278 2.07015 21.6303 2.1061 21.6194L4.05643 20.9458C4.09633 20.9312 4.14034 20.9328 4.17906 20.9502C4.21778 20.9677 4.24812 20.9997 4.26359 21.0392C5.15436 23.2114 6.65029 25.0821 8.5735 26.4287C10.6246 27.8736 13.0733 28.6471 15.5823 28.6426C17.4335 28.6467 19.2607 28.2253 20.923 27.4106C20.9449 27.4017 20.9684 27.3976 20.992 27.3988ZM22.6409 28.0287C22.6266 28.0284 22.6125 28.0264 22.5988 28.0228C22.5773 28.0168 22.5573 28.0067 22.5398 27.993C22.5223 27.9793 22.5077 27.9622 22.4969 27.9428L21.9832 27.0165C21.9633 26.9792 21.9582 26.9358 21.9688 26.895C21.9794 26.8541 22.005 26.8188 22.0404 26.7959C23.73 25.7372 25.1391 24.2861 26.1474 22.566C27.2361 20.7002 27.8098 18.5788 27.8097 16.4186C27.8129 14.7236 27.4597 13.047 26.7731 11.4973C26.1116 9.99932 25.156 8.64934 23.963 7.52763L23.472 7.06699C23.4438 7.04196 23.4073 7.02814 23.3697 7.02814C23.332 7.02814 23.2956 7.04196 23.2674 7.06699L21.9268 8.53229C21.8982 8.56244 21.8596 8.58096 21.8183 8.58433C21.7769 8.58779 21.7358 8.57583 21.7028 8.55082C19.7882 7.05963 17.3969 6.31526 14.9743 6.45647C12.5743 6.60681 10.309 7.61701 8.59329 9.30189C6.87764 10.9868 5.82659 13.2335 5.63283 15.6304C5.48112 17.548 5.8889 19.4684 6.80674 21.1588C7.6921 22.7857 9.00996 24.1362 10.6148 25.0611L10.9339 25.238L11.1428 25.35L11.2093 25.3845C11.2264 25.3933 11.2452 25.3988 11.2644 25.4004C11.2836 25.4021 11.3029 25.3999 11.3214 25.394C11.3397 25.3881 11.3567 25.3787 11.3715 25.3662C11.3862 25.3538 11.3983 25.3385 11.4072 25.3213L12.3849 23.4687C12.4047 23.4322 12.4374 23.4044 12.4766 23.3906C12.5157 23.3768 12.5587 23.3778 12.5971 23.3938C13.634 23.8397 14.7576 24.0481 15.8855 24.0034C17.8258 23.9258 19.6618 23.1041 21.0122 21.7087C22.3709 20.3209 23.1429 18.4632 23.168 16.5213C23.1972 14.5457 22.45 12.6374 21.0872 11.2068C19.7353 9.77482 17.8783 8.92656 15.9108 8.84219C15.8695 8.84219 15.7314 8.83461 15.611 8.83292H15.2413C15.2196 8.83326 15.1983 8.8384 15.1788 8.84783C15.1593 8.85726 15.1421 8.8709 15.1284 8.88766C15.1071 8.91402 15.0957 8.94711 15.0964 8.98113V11.0451C15.0958 11.0854 15.0808 11.1241 15.054 11.1542C15.0273 11.1843 14.9907 11.2039 14.9508 11.2093C13.6317 11.3759 12.4228 12.0302 11.5621 13.0434C11.1047 13.5832 10.762 14.2105 10.5548 14.8871C10.3476 15.5636 10.2804 16.2752 10.3571 16.9786C10.4849 18.1857 11.0275 19.3111 11.8922 20.1629C12.7567 21.0149 13.8901 21.5406 15.099 21.6506C15.259 21.6649 15.4207 21.6725 15.5798 21.6725C16.9723 21.6709 18.3073 21.117 19.2919 20.1325C20.2766 19.1478 20.8304 17.8127 20.832 16.4203C20.8164 15.1412 20.3406 13.9106 19.4915 12.9538C18.6424 11.9971 17.477 11.3784 16.2089 11.211C16.1691 11.2054 16.1327 11.1858 16.1061 11.1556C16.0795 11.1256 16.0646 11.0869 16.064 11.0468V10.0009C16.0642 9.97776 16.0692 9.95486 16.0786 9.93372C16.0879 9.91258 16.1017 9.89355 16.1188 9.87797C16.1493 9.85061 16.1888 9.83528 16.2299 9.83503C17.9418 10.012 19.5199 10.8413 20.6367 12.1508C21.2259 12.8435 21.6649 13.651 21.9258 14.5222C22.1867 15.3934 22.2639 16.3093 22.1524 17.2119C21.9821 18.6522 21.3425 19.9965 20.3322 21.0372C19.322 22.078 17.9972 22.7572 16.5625 22.9702C16.2355 23.0185 15.9054 23.043 15.5748 23.0434C14.5983 23.0445 13.634 22.8266 12.7529 22.406L12.1752 22.1011C12.1395 22.0834 12.0983 22.0805 12.0605 22.093C12.0227 22.1054 11.9913 22.1322 11.9731 22.1677L11.0207 23.979C11.0101 23.9992 10.9956 24.0172 10.978 24.0317C10.9603 24.0461 10.9398 24.0568 10.9179 24.0632C10.8956 24.069 10.8724 24.0702 10.8497 24.0668C10.827 24.0633 10.8052 24.0552 10.7857 24.043C9.42866 23.1878 8.32269 21.988 7.58064 20.566C6.7543 18.9763 6.42147 17.1762 6.62484 15.3963C6.86295 13.3251 7.81416 11.4013 9.31539 9.95461C10.8127 8.50231 12.7675 7.61447 14.8463 7.44259C15.0931 7.42322 15.339 7.41311 15.5773 7.41311C17.6585 7.4164 19.6744 8.14005 21.2825 9.46113L21.7786 9.91503L21.7971 9.92934C21.8249 9.94644 21.8574 9.95427 21.89 9.95166C21.9225 9.94905 21.9533 9.93625 21.9781 9.91503L22.5676 9.26745L23.2952 8.47334C23.3104 8.45717 23.3288 8.44412 23.3491 8.43511C23.3694 8.42602 23.3913 8.42105 23.4135 8.42053C23.4357 8.41999 23.4579 8.42383 23.4786 8.43191C23.4993 8.43991 23.5183 8.45204 23.5343 8.46745C24.6262 9.56176 25.482 10.8683 26.0491 12.3064C26.6162 13.7446 26.8823 15.2837 26.8312 16.8287C26.731 19.6616 25.5621 22.3517 23.5596 24.358C21.5663 26.373 18.8841 27.5587 16.0522 27.6767C13.5485 27.7881 11.08 27.0547 9.04339 25.5942C7.17666 24.2655 5.75905 22.3997 4.97936 20.2451L4.83452 19.8241C4.8218 19.7866 4.79501 19.7555 4.75981 19.7374C4.7246 19.7194 4.68375 19.7157 4.64588 19.7272L2.72674 20.3858C2.70558 20.3928 2.68323 20.3957 2.66098 20.3941C2.63871 20.3925 2.61698 20.3865 2.59706 20.3765C2.57704 20.3662 2.55927 20.3521 2.54482 20.3349C2.53035 20.3176 2.51948 20.2978 2.51284 20.2763C2.01164 18.597 1.84231 16.8362 2.01431 15.0923C2.34242 11.7995 3.85548 8.73802 6.27196 6.47736C8.68844 4.2167 11.8438 2.91079 15.1512 2.80258C15.291 2.80258 15.4333 2.7967 15.5722 2.7967C19.1838 2.80182 22.6459 4.23883 25.1996 6.79266C27.7533 9.34652 29.1901 12.8087 29.195 16.4203C29.1954 18.8336 28.5527 21.2035 27.3331 23.286C26.2013 25.2098 24.6191 26.8299 22.7226 28.0068C22.6976 28.0209 22.6695 28.0285 22.6409 28.0287ZM23.3701 6.88173C23.4443 6.88175 23.5156 6.91008 23.5697 6.96091L24.0615 7.42154C25.269 8.55646 26.2361 9.92244 26.9053 11.4384C27.6002 13.0066 27.9577 14.7033 27.9545 16.4186C27.954 18.605 27.3727 20.752 26.2703 22.6401C25.25 24.3805 23.8244 25.8488 22.1146 26.9197C22.1123 26.921 22.1103 26.9229 22.1087 26.925C22.1071 26.9272 22.106 26.9295 22.1054 26.9321C22.1048 26.9347 22.1047 26.9374 22.1051 26.94C22.1055 26.9426 22.1064 26.9452 22.1078 26.9474L22.6215 27.8738L22.6392 27.8847C24.5209 26.7217 26.0905 25.1171 27.2118 23.2102C28.4188 21.1504 29.0548 18.806 29.0543 16.4186C29.0506 12.8459 27.6301 9.42054 25.1044 6.89363C22.5788 4.36673 19.1541 2.94459 15.5815 2.93901C15.4434 2.93901 15.3028 2.939 15.1604 2.9449C11.8882 3.0517 8.76617 4.34366 6.37535 6.58036C3.98452 8.81709 2.48767 11.8461 2.16336 15.1041C1.99276 16.8296 2.16011 18.5718 2.65602 20.2333L2.67537 20.2477L4.60127 19.5883C4.6317 19.5782 4.66354 19.573 4.69559 19.5731C4.75759 19.573 4.818 19.5927 4.86801 19.6293C4.918 19.666 4.95496 19.7177 4.97347 19.7769L5.11746 20.1921C5.88726 22.3183 7.2863 24.1597 9.12845 25.4712C11.0081 26.8187 13.2637 27.5413 15.5764 27.5369C15.7322 27.5369 15.8914 27.5369 16.048 27.5268C18.8434 27.4107 21.4911 26.2402 23.4585 24.251C25.4351 22.27 26.5885 19.6144 26.6872 16.8178C26.7376 15.2928 26.4749 13.7737 25.9152 12.3543C25.3556 10.9349 24.5108 9.6453 23.4333 8.56513H23.403L22.6754 9.36092L22.0783 10.0127C22.0293 10.057 21.9672 10.0841 21.9014 10.0899C21.8356 10.0957 21.7696 10.0798 21.7137 10.0447L21.6809 10.0186L21.1865 9.56555C19.6046 8.2672 17.6221 7.55638 15.5756 7.55373C15.3407 7.55373 15.099 7.56299 14.8556 7.58236C12.8103 7.7522 10.8872 8.62593 9.41392 10.0548C7.93715 11.4782 7.00171 13.3712 6.76801 15.4089C6.56729 17.1601 6.89456 18.9314 7.7078 20.4952C8.43817 21.8949 9.52668 23.0758 10.8623 23.9176L10.8918 23.91L11.8476 22.0927C11.8847 22.0251 11.9466 21.9745 12.0203 21.9517C12.0941 21.9289 12.1737 21.9357 12.2426 21.9706L12.8169 22.2738C13.6775 22.6845 14.6194 22.8972 15.5731 22.8961C15.8966 22.896 16.2197 22.8721 16.5398 22.8245C17.9433 22.6162 19.2391 21.9518 20.2273 20.9337C21.2155 19.9157 21.8411 18.6007 22.0076 17.1917C22.1156 16.3085 22.0393 15.4125 21.7835 14.5604C21.5277 13.7083 21.0979 12.9185 20.5213 12.2409C19.4326 10.9639 17.8953 10.1533 16.2265 9.9765L16.2038 9.99671V11.0443C16.2037 11.0494 16.2056 11.0545 16.209 11.0584C16.2125 11.0622 16.2172 11.0647 16.2223 11.0653C17.5253 11.2373 18.7227 11.8731 19.5951 12.8561C20.4676 13.8391 20.9566 15.1035 20.9727 16.4178C20.9708 17.8486 20.4016 19.2203 19.3899 20.2321C18.3781 21.2438 17.0064 21.813 15.5756 21.8148C15.4122 21.8148 15.2463 21.8081 15.0813 21.7929C13.839 21.6803 12.6742 21.1404 11.7855 20.2651C10.8969 19.3898 10.3393 18.2333 10.208 16.9929C10.1293 16.2703 10.1985 15.5394 10.4115 14.8444C10.6244 14.1495 10.9767 13.5052 11.4468 12.9508C12.3313 11.9098 13.5735 11.2377 14.9289 11.067C14.934 11.0664 14.9387 11.0639 14.9421 11.06C14.9455 11.0561 14.9474 11.0511 14.9474 11.046V8.98282C14.9465 8.91545 14.9692 8.85002 15.0114 8.79755C15.0383 8.76421 15.0723 8.73709 15.1108 8.71831C15.1494 8.69953 15.1916 8.68951 15.2346 8.68892H15.6076C15.7314 8.68892 15.872 8.6965 15.9133 8.69818C17.9182 8.78458 19.8105 9.64917 21.1882 11.1083C22.5767 12.5663 23.338 14.5106 23.3087 16.5239C23.2831 18.5028 22.4965 20.396 21.1124 21.8106C19.7359 23.2327 17.8647 24.0701 15.8872 24.1491C14.7375 24.1953 13.5922 23.9829 12.5356 23.5277C12.5213 23.5277 12.5129 23.5277 12.5095 23.5369L11.5327 25.3896C11.4965 25.4573 11.4355 25.5084 11.3625 25.532C11.2894 25.5555 11.21 25.5498 11.1411 25.5159L11.0729 25.4805L10.8615 25.3677L10.5415 25.1908C8.91329 24.2527 7.57592 22.883 6.67706 21.2329C5.74595 19.518 5.33233 17.5698 5.48632 15.6245C5.68268 13.1928 6.74889 10.9133 8.48954 9.20395C10.2301 7.49457 12.5285 6.46983 14.9634 6.31754C17.4212 6.17463 19.8473 6.92936 21.7903 8.44134H21.8181L23.1655 6.97101C23.2198 6.91674 23.2933 6.88588 23.3701 6.8851V6.88173ZM15.5781 20.7032C15.4305 20.7029 15.283 20.6957 15.136 20.6813C14.1573 20.5799 13.2434 20.1447 12.5477 19.449C11.852 18.7533 11.4169 17.8393 11.3154 16.8607C11.2514 16.2631 11.315 15.6586 11.5019 15.0874C11.6889 14.5162 11.995 13.9912 12.4 13.547C12.8018 13.1026 13.2921 12.7471 13.8394 12.5034C14.3867 12.2598 14.979 12.1334 15.5781 12.1323C15.7221 12.1323 15.8703 12.1399 16.0194 12.155C16.9983 12.2559 17.9125 12.6908 18.6084 13.3866C19.3042 14.0824 19.7391 14.9968 19.84 15.9757C19.9039 16.5733 19.8404 17.1777 19.6533 17.7489C19.4664 18.3201 19.1603 18.8451 18.7554 19.2893C18.354 19.733 17.8644 20.0881 17.3177 20.3315C16.7712 20.5751 16.1798 20.7016 15.5815 20.7032H15.5781ZM15.5781 12.2763C14.9994 12.2773 14.4273 12.3993 13.8986 12.6345C13.3697 12.8697 12.896 13.213 12.5078 13.6422C12.117 14.0712 11.8216 14.5783 11.641 15.1298C11.4604 15.6814 11.3988 16.265 11.4602 16.8422C11.5581 17.7876 11.9784 18.6706 12.6505 19.3428C13.3226 20.015 14.2057 20.4353 15.1512 20.5331C15.296 20.5474 15.44 20.555 15.579 20.555C16.1577 20.5538 16.7297 20.4317 17.2585 20.1965C17.7872 19.9613 18.2609 19.6182 18.6493 19.1891C19.04 18.76 19.3355 18.253 19.5161 17.7014C19.6966 17.1498 19.7583 16.5662 19.6969 15.9891C19.5994 15.0434 19.1791 14.1601 18.507 13.4877C17.8348 12.8154 16.9516 12.395 16.0059 12.2973C15.8649 12.2833 15.7232 12.2757 15.5815 12.2746L15.5781 12.2763Z" fill="black"/>
</svg>
