<svg width="32" height="32" viewBox="0 0 32 32" fill="none" xmlns="http://www.w3.org/2000/svg">
<g clip-path="url(#clip0_3194_248)">
<g clip-path="url(#clip1_3194_248)">
<path d="M28.2211 0H3.76842C1.68718 0 0 1.68829 0 3.7709V28.227C0 30.3096 1.68718 31.9979 3.76842 31.9979H28.2211C30.3023 31.9979 31.9895 30.3096 31.9895 28.227V3.7709C31.9895 1.68829 30.3023 0 28.2211 0Z" fill="#F44238"/>
<path fill-rule="evenodd" clip-rule="evenodd" d="M19.4442 8.72778H23.0126C23.1537 8.72778 23.2674 8.84154 23.2674 8.98479V12.4334C23.2695 12.5745 23.1558 12.6904 23.0147 12.6925H23.0126H22.0042C21.8632 12.6925 21.7495 12.5766 21.7495 12.4355V11.3695L10.9874 21.7406H13.2021C13.3411 21.7406 13.4568 21.8543 13.4568 21.9976V23.0151C13.4568 23.1583 13.3411 23.2721 13.2021 23.2721H8.98106C8.84 23.2721 8.72632 23.1583 8.72632 23.0151V21.7448L20.6526 10.2572H19.4442C19.3032 10.2572 19.1895 10.1435 19.1895 10.0002V8.98479C19.1895 8.84154 19.3032 8.72778 19.4442 8.72778V8.72778ZM10.2442 12.4734C10.2442 12.6146 10.1305 12.7304 9.99158 12.7304H8.98106C8.84 12.7304 8.72632 12.6167 8.72632 12.4734V8.98479C8.72632 8.84154 8.84 8.72778 8.98106 8.72778H17.0253C17.1663 8.72778 17.2779 8.84365 17.2779 8.98479V9.96228C17.2779 10.1034 17.1642 10.2193 17.0253 10.2193H10.2442V12.4734ZM21.7495 19.4148C21.7495 19.2737 21.8632 19.1578 22.0042 19.1578H23.0126C23.1537 19.1578 23.2674 19.2737 23.2674 19.4148V23.0151C23.2674 23.1562 23.1537 23.27 23.0126 23.27H15.6147C15.4737 23.27 15.36 23.1562 15.36 23.0151V21.9955C15.36 21.8543 15.4737 21.7384 15.6147 21.7384H21.7495V19.4148Z" fill="white"/>
</g>
</g>
<defs>
<clipPath id="clip0_3194_248">
<rect width="32" height="32" fill="white"/>
</clipPath>
<clipPath id="clip1_3194_248">
<rect width="32" height="32" fill="white"/>
</clipPath>
</defs>
</svg>
