<svg width="365" height="168" viewBox="0 0 365 168" fill="none" xmlns="http://www.w3.org/2000/svg">
<path d="M70.0336 43.8461C61.2593 45.4104 49.8865 45.6518 38.641 49.9812C20.4001 57.0037 10.2622 65.9286 3.69667 79.0909C-3.34412 93.2059 1.85974 105.337 14.4091 116.621C21.9172 123.371 34.9638 128.343 45.4007 132.275C57.5346 136.848 65.5568 139.468 79.543 139.468C91.6701 139.468 102.621 139.182 114.545 137.564C126.436 135.951 137.019 132.283 148.63 130.329C168.336 127.013 193.207 128.498 211.644 134.603C223.295 138.46 235.5 143.001 246.474 147.846C256.434 152.243 265.483 158.81 276.033 162.316C298.091 169.647 328.382 169.61 347.068 156.562C355.07 150.973 364.482 145.07 364.482 136.422C364.482 113.337 343.462 88.3275 327.245 70.6215C316.742 59.1547 304.853 48.7808 295.854 36.6956C281.731 17.7304 267.187 6.23109 238.912 1.62009C215.683 -2.16804 196.803 2.61568 178.877 9.23601C154.733 18.1521 129.238 24.8111 104.634 32.8877C93.0951 36.6755 82.4213 41.6377 70.0336 43.8461Z" fill="#F9F8F7"/>
</svg>
