<svg width="314" height="126" viewBox="0 0 314 126" fill="none" xmlns="http://www.w3.org/2000/svg">
<path d="M96.1987 124.312C81.4274 120.379 78.7862 106.139 69.7894 92.8559C42.1075 51.9857 33.1248 108.573 6.76306 78.8919C3.20327 71.7045 -0.723434 65.4518 1.75655 56.9475C3.56848 50.7341 7.15742 45.2 13.5953 42.9462C25.7611 38.6872 37.5375 34.2609 50.708 35.2698C70.5493 36.7895 93.91 41.1285 113.483 39.9387C122.122 39.4135 132.201 38.884 140.402 35.8702C149.989 32.3465 157.368 27.9614 165.897 22.4622C173.337 17.6647 181.253 16.1986 188.944 12.315C197.111 8.19097 206.394 5.51276 215.099 2.85871C224.441 0.0103268 234.62 0.275482 244.265 0.0769075C254.75 -0.138969 262.423 3.02068 271.643 7.36393C282.441 12.4503 289.152 21.2698 296.598 30.1397C303.496 38.3553 309.446 48.5299 313.034 58.672C311.582 73.1582 314.894 70.6088 300.272 88.9839C295.953 94.4124 290.192 98.5897 284.905 103.028C279.621 107.465 274.494 112.406 268.412 115.733C257.982 121.437 247.224 124.597 235.414 125.222C205.536 126.803 181.212 102.979 151.271 107.84C140.74 109.549 134.497 114.873 125.621 119.982C117.446 124.687 105.201 126.708 96.1987 124.312Z" fill="#F9F8F7"/>
</svg>
