<svg width="380" height="111" viewBox="0 0 380 111" fill="none" xmlns="http://www.w3.org/2000/svg">
<path fill-rule="evenodd" clip-rule="evenodd" d="M205.18 110.351C167.579 111.906 6.84582 110.861 0.485149 104.302C-0.75433 103.024 7.23651 83.8568 11.1262 77.6313C13.0703 74.5197 26.4441 52.562 31.7068 45.7487C34.4204 42.2362 37.8916 38.7942 40.7282 35.2926C41.9915 33.7333 47.506 25.434 49.1858 23.9074C53.246 20.2183 58.069 16.6265 62.9899 13.058C66.6462 10.4066 72.9672 5.57263 80.9025 3.44963C86.7092 1.89615 96.1339 1.57869 102.934 1.44788C119.413 1.13153 135.933 1.11729 152.437 1.06813C178.46 0.990708 204.475 1.53575 230.499 1.49281C251.169 1.45878 271.688 0.121976 292.41 0.456788C299.484 0.571135 308.596 0.859452 315.313 1.81472C327.753 3.58422 331.706 8.27092 335.434 12.2181C337.51 14.4154 339.21 16.6521 340.829 18.8924C348.471 29.47 353.446 40.3259 357.364 51.1253C358.365 53.8801 363.806 71.6436 366.431 77.361C370.574 86.3856 372.152 86.2357 377.387 95.2431C378.616 97.3574 381.868 101.993 378.509 104.493C374.069 107.798 340.745 108.03 334.136 108.216C288.878 109.491 216.315 109.89 205.18 110.351Z" fill="#F9F8F7"/>
</svg>
