<svg width="1006" height="425" viewBox="0 0 1006 425" fill="none" xmlns="http://www.w3.org/2000/svg">
<path fill-rule="evenodd" clip-rule="evenodd" d="M0.294615 43.7427C0.136783 41.1042 -0.199829 58.1556 0.263147 60.5773C2.72533 73.5417 2.40977 86.5223 2.40977 99.5166C2.40977 141.288 0.263147 183.023 0.263147 224.778C0.263147 274.793 9.02807 324.573 21.6652 374.435C24.7797 386.705 9.23851 420.317 88.0179 424.634C128.265 426.839 117.238 407.828 143.67 404.931C153.119 403.895 172.279 412.302 177.909 413.845C192.429 417.821 218.019 418.755 239.979 418.066C274.166 416.996 285.298 406.195 312.75 402.585C344.664 398.387 359.437 408.713 385.521 406.808C416.13 404.571 426.053 393.675 464.711 392.264C516.533 390.37 552.476 408.079 605.971 403.053C662.696 397.725 700.819 383.988 727.966 372.09C745.569 364.37 758.859 354.111 792.172 348.633C826.632 342.969 884.009 370.726 929.149 360.832C991.083 347.256 982.917 319.286 989.083 301.718C1006.76 251.346 1011.37 199.671 995.502 149.245C986.305 120.005 977.33 90.7776 952.698 61.9843C944.006 51.8222 938.041 34.8792 892.764 28.6749C853.579 23.3056 808.618 25.5612 779.334 32.898C768.013 35.7349 760.836 40.5553 745.085 42.2805C738.645 42.9886 705.08 33.869 697.998 32.898C663.612 28.1882 612.695 24.8324 571.722 26.3293C544.28 27.3326 502.096 46.1437 471.13 42.751C413.826 36.4683 391.267 15.0993 319.169 13.6624C282.92 12.9405 207.097 32.8311 172.08 30.8314C137.051 28.8317 139.556 3.71482 109.031 1.6598C16.7514 -4.54678 3.03038 23.091 0.294615 43.7427Z" fill="#F9F8F7"/>
</svg>
