<svg width="553" height="91" viewBox="0 0 553 91" fill="none" xmlns="http://www.w3.org/2000/svg">
<path opacity="0.5" fill-rule="evenodd" clip-rule="evenodd" d="M349.066 52.3818C341.452 52.3818 335.279 58.5543 335.279 66.1685C335.279 73.7827 341.452 79.9552 349.066 79.9552L387.394 79.9552C388.735 86.1643 394.259 90.8167 400.87 90.8167L460.194 90.8167C467.808 90.8167 473.981 84.6442 473.981 77.03C473.981 69.4159 467.808 63.2434 460.194 63.2434L421.866 63.2434C420.525 57.0343 415.001 52.3818 408.39 52.3818L349.066 52.3818Z" fill="white"/>
<path opacity="0.5" fill-rule="evenodd" clip-rule="evenodd" d="M516.555 47.7718L507.83 47.7718C503.975 47.7718 500.85 44.6466 500.85 40.7915C500.85 36.9363 503.975 33.8112 507.83 33.8112L516.265 33.8112C516.343 30.1034 519.373 27.1216 523.099 27.1216L552.474 27.1216C556.249 27.1216 559.309 30.1817 559.309 33.9565C559.309 36.1988 558.229 38.1888 556.561 39.4352C557.894 40.6824 558.728 42.4574 558.728 44.427C558.728 48.2018 555.667 51.2619 551.893 51.2619L522.517 51.2619C519.957 51.2619 517.726 49.8547 516.555 47.7718Z" fill="white"/>
<path opacity="0.5" fill-rule="evenodd" clip-rule="evenodd" d="M30.6311 39.8678L14.0583 39.8678C6.73689 39.8678 0.801758 33.9327 0.801758 26.6113C0.801758 19.2899 6.7369 13.3548 14.0583 13.3548L30.0796 13.3548C30.2265 6.31335 35.9804 0.650391 43.0571 0.650391L98.8449 0.650391C106.014 0.650391 111.825 6.46188 111.825 13.6307C111.825 17.8888 109.775 21.668 106.608 24.035C109.139 26.4037 110.722 29.7747 110.722 33.5153C110.722 40.6841 104.91 46.4956 97.7412 46.4956L41.9533 46.4956C37.0922 46.4956 32.8552 43.8234 30.6311 39.8678Z" fill="white"/>
</svg>
