<svg width="236" height="186" viewBox="0 0 236 186" fill="none" xmlns="http://www.w3.org/2000/svg">
<path d="M188.994 119.229H194.737L199.417 163.933H184.24L188.994 119.229Z" fill="#93642D"/>
<path d="M188.953 119.229H194.658L197.139 143.29H186.473L188.953 119.229Z" fill="#714D22"/>
<path d="M209.079 139.207C214.803 139.784 211.01 132.899 208.243 126.777C205.476 120.655 199.489 109.139 190.299 109.139C182.768 109.139 168.499 136.161 171.841 138.703C174.514 140.737 180.789 139.141 184.966 135.94C186.22 138.765 188.112 140.087 191.119 140.313C194.127 140.539 195.881 138.482 198.248 135.94C199.083 136.881 204.084 138.703 209.079 139.207Z" fill="#66A865"/>
<path fill-rule="evenodd" clip-rule="evenodd" d="M208 126.092C204.549 119.3 198.584 110.3 190.116 110.3C185.76 110.3 179.33 118.62 174.815 126.819C177.888 126.508 181.535 125.03 184.322 122.893C185.684 125.962 187.919 129.154 191.186 129.399C194.454 129.645 196.892 126.443 198.752 122.893C199.518 123.757 203.51 125.302 208 126.092Z" fill="#458244"/>
<path d="M209.079 123.651C214.557 125.408 211.01 117.343 208.243 111.221C205.476 105.099 199.489 93.5825 190.299 93.5825C182.768 93.5825 168.499 120.605 171.841 123.147C174.514 125.181 180.789 120.196 184.966 116.994C186.22 119.819 188.112 124.531 191.119 124.757C194.127 124.983 195.881 119.537 198.248 116.994C199.083 117.936 204.084 122.049 209.079 123.651Z" fill="#83C082"/>
<path fill-rule="evenodd" clip-rule="evenodd" d="M205.416 104.93C206.742 107.753 207.712 109.82 207.556 109.804C203.312 109.378 198.391 107.504 197.681 106.707C196.225 109.474 193.989 111.236 191.433 111.045C188.877 110.853 186.545 108.724 185.48 106.332C181.93 109.043 175.344 110.052 175.806 109.308C176.598 108.035 177.338 106.628 178.042 105.149C182.275 98.3692 187.43 92.4409 191.106 92.4409C195.549 92.4409 199.303 94.9183 202.366 98.2544C202.524 98.652 202.682 99.031 202.844 99.3864C203.719 101.316 204.63 103.256 205.416 104.93Z" fill="#458244"/>
<path d="M207.309 105.339C211.278 106.703 208.316 99.6658 206.069 94.6727C203.822 89.6795 198.151 81.8061 190.706 81.2769C183.745 80.782 172.349 102.521 175.063 104.595C177.234 106.253 182.984 102.983 186.376 100.372C187.394 102.676 188.93 106.519 191.373 106.703C193.815 106.887 195.24 102.445 197.162 100.372C197.84 101.14 203.77 104.122 207.309 105.339Z" fill="#66A865"/>
<path fill-rule="evenodd" clip-rule="evenodd" d="M204.107 90.911C204.915 92.3361 205.409 93.2085 205.324 93.1842C205.14 93.1315 204.913 93.0681 204.653 92.9955C202.464 92.3837 197.95 91.1221 197.139 90.2076C196.643 90.8294 196.195 91.4072 195.785 91.9362C193.969 94.2794 192.896 95.6646 191.682 95.6646C190.157 95.6646 189.251 94.3546 188.098 92.6879C187.557 91.9068 186.963 91.0473 186.225 90.2076C181.686 93.686 178.535 93.4322 178.535 93.4322C178.535 93.4322 180.211 87.2219 183.147 81.6052C185.821 78.5806 188.467 76.5649 190.611 76.5649C193.247 76.5649 195.64 77.437 197.791 78.8431C197.821 78.9098 197.852 78.9773 197.883 79.0454C199.859 83.4165 202.558 88.1792 204.107 90.911Z" fill="#458244"/>
<path d="M203.57 89.6924C206.929 91.6248 204.865 85.3776 203.01 81.1898C201.156 77.002 197.145 69.124 190.988 69.124C185.943 69.124 176.382 87.6088 178.621 89.348C180.412 90.7393 184.617 87.3292 187.415 85.1391C188.255 87.0716 189.523 90.2944 191.538 90.449C193.553 90.6036 194.728 86.8783 196.314 85.1391C196.874 85.7833 200.883 88.1465 203.57 89.6924Z" fill="#83C082"/>
<rect x="218.756" y="132.614" width="7.0681" height="33.321" fill="#93642D"/>
<rect x="218.775" y="120.294" width="7.0681" height="33.321" fill="#714D22"/>
<rect x="209.748" y="119.58" width="25.5798" height="25.5798" rx="12.7899" fill="#83C082"/>
<rect x="211.036" y="103.291" width="23.4089" height="23.4089" rx="11.7045" fill="#66A865"/>
<rect x="212.752" y="90.6465" width="19.797" height="19.797" rx="9.89852" fill="#83C082"/>
<path fill-rule="evenodd" clip-rule="evenodd" d="M209.827 130.986C209.765 131.496 209.733 132.014 209.733 132.541C209.733 139.604 215.46 145.33 222.523 145.33C229.587 145.33 235.313 139.604 235.313 132.541C235.313 132.014 235.281 131.496 235.22 130.986C234.453 137.317 229.061 142.222 222.523 142.222C215.986 142.222 210.594 137.317 209.827 130.986Z" fill="#679A66"/>
<path d="M31.0834 118.467H36.6045L41.1042 161.446H26.5127L31.0834 118.467Z" fill="#93642D"/>
<path d="M31.044 118.467H36.529L38.9138 141.6H28.6592L31.044 118.467Z" fill="#714D22"/>
<path fill-rule="evenodd" clip-rule="evenodd" d="M9.39387 98.1842C9.39387 91.7773 14.5877 86.5835 20.9946 86.5835C27.4015 86.5835 32.5953 91.7773 32.5953 98.1842V99.0128C32.5953 99.4482 32.5713 99.8779 32.5246 100.301C37.3529 101.704 40.8817 106.161 40.8817 111.442V112.271C40.8817 118.677 35.6879 123.871 29.281 123.871C25.8162 123.871 22.7062 122.352 20.5805 119.944C18.4548 122.352 15.3448 123.871 11.88 123.871C5.47311 123.871 0.279297 118.677 0.279297 112.271V111.442C0.279297 105.871 4.20666 101.217 9.44391 100.097C9.41079 99.7404 9.39387 99.3786 9.39387 99.0128V98.1842Z" fill="#66A865"/>
<path fill-rule="evenodd" clip-rule="evenodd" d="M35.4768 133.572C31.5446 138.301 24.5228 138.948 19.7932 135.015C15.0636 131.083 14.4172 124.061 18.3495 119.332L18.858 118.72C19.1253 118.398 19.4069 118.096 19.701 117.812C16.9983 113.813 17.1288 108.357 20.37 104.459L20.8785 103.847C24.8108 99.1177 31.8326 98.4714 36.5622 102.404C39.12 104.53 40.4835 107.56 40.5746 110.643C43.622 110.169 46.8503 110.957 49.4082 113.084C54.1378 117.016 54.7842 124.038 50.8519 128.767L50.3433 129.379C46.9237 133.492 41.1676 134.517 36.6144 132.128C36.4196 132.412 36.21 132.69 35.9854 132.96L35.4768 133.572Z" fill="#66A865"/>
<path fill-rule="evenodd" clip-rule="evenodd" d="M32.6964 94.4459C32.6964 87.9678 37.948 82.7163 44.426 82.7163C50.9041 82.7163 56.1556 87.9678 56.1556 94.4459V95.2837C56.1556 95.724 56.1314 96.1585 56.0841 96.5862C60.9661 98.005 64.5342 102.511 64.5342 107.851V108.689C64.5342 115.167 59.2827 120.419 52.8046 120.419C49.3013 120.419 46.1566 118.883 44.0073 116.448C41.8581 118.883 38.7134 120.419 35.2101 120.419C28.732 120.419 23.4805 115.167 23.4805 108.689V107.851C23.4805 102.218 27.4515 97.5122 32.7471 96.3806C32.7136 96.0195 32.6964 95.6536 32.6964 95.2837V94.4459Z" fill="#66A865"/>
<path fill-rule="evenodd" clip-rule="evenodd" d="M28.425 77.9591C28.425 71.481 33.6765 66.2295 40.1546 66.2295C46.6326 66.2295 51.8842 71.481 51.8842 77.9591V78.7969C51.8842 79.2372 51.8599 79.6717 51.8127 80.0994C56.6947 81.5182 60.2627 86.0246 60.2627 91.3644V92.2022C60.2627 98.6803 55.0112 103.932 48.5331 103.932C45.0298 103.932 41.8852 102.396 39.7359 99.9607C37.5866 102.396 34.4419 103.932 30.9386 103.932C24.4605 103.932 19.209 98.6803 19.209 92.2022V91.3644C19.209 85.7311 23.1801 81.0254 28.4756 79.8938C28.4421 79.5327 28.425 79.1668 28.425 78.7969V77.9591Z" fill="#66A865"/>
<path fill-rule="evenodd" clip-rule="evenodd" d="M11.6576 82.7805C11.6576 77.4652 15.9666 73.1562 21.2819 73.1562C26.5973 73.1562 30.9062 77.4652 30.9062 82.7805V83.468C30.9062 83.8292 30.8863 84.1858 30.8475 84.5367C34.8531 85.701 37.7805 89.3984 37.7805 93.7796V94.4671C37.7805 99.7824 33.4716 104.091 28.1563 104.091C25.2818 104.091 22.7016 102.831 20.9381 100.833C19.1746 102.831 16.5945 104.091 13.72 104.091C8.40464 104.091 4.0957 99.7824 4.0957 94.4671V93.7796C4.0957 89.1575 7.35407 85.2963 11.6991 84.3679C11.6717 84.0716 11.6576 83.7714 11.6576 83.468V82.7805Z" fill="#66A865"/>
<path fill-rule="evenodd" clip-rule="evenodd" d="M42.5792 73.5044C46.2299 77.3678 46.0574 83.4591 42.194 87.1098C38.3306 90.7604 32.2393 90.5879 28.5887 86.7245L28.1165 86.2249C27.8684 85.9623 27.638 85.6895 27.4251 85.4078C23.7141 87.3126 19.0468 86.6358 16.0377 83.4514L15.5655 82.9517C11.9149 79.0883 12.0874 72.997 15.9508 69.3464C18.0401 67.3722 20.7809 66.516 23.4349 66.757C23.3444 64.0936 24.3543 61.4055 26.4436 59.4313C30.307 55.7807 36.3983 55.9531 40.0489 59.8165L40.5211 60.3162C43.6956 63.6758 43.9792 68.72 41.4587 72.3791C41.6822 72.5756 41.8986 72.7842 42.1071 73.0048L42.5792 73.5044Z" fill="#83C082"/>
<path fill-rule="evenodd" clip-rule="evenodd" d="M63.4821 103.206C61.7733 105.732 59.1058 107.556 56.0019 108.157C55.6482 109.904 54.8692 111.591 53.65 113.057L53.1415 113.669C49.722 117.781 43.9663 118.806 39.4131 116.418C39.2184 116.702 39.0088 116.98 38.7843 117.25L38.2758 117.861C34.3435 122.591 27.3217 123.237 22.5921 119.305C19.8232 117.003 18.4538 113.642 18.5833 110.302C16.8887 111.27 14.9264 111.824 12.8348 111.824C8.17121 111.824 4.15038 109.072 2.30751 105.104C1.02799 106.969 0.279297 109.226 0.279297 111.659V112.487C0.279297 118.894 5.47311 124.088 11.88 124.088C13.4546 124.088 14.9559 123.774 16.3248 123.206C14.9487 127.418 16.1784 132.227 19.7929 135.233C24.5224 139.165 31.5443 138.518 35.4765 133.789L35.9851 133.177C36.2097 132.907 36.4193 132.629 36.6141 132.345C41.1673 134.734 46.9234 133.709 50.343 129.596L50.8516 128.984C52.8687 126.558 53.681 123.529 53.3554 120.623C59.5778 120.335 64.5343 115.199 64.5343 108.906V108.068C64.5343 106.334 64.1578 104.687 63.4821 103.206Z" fill="#458244"/>
<path d="M132.746 98.4351H143.938L153.061 185.565H123.479L132.746 98.4351Z" fill="#93642D"/>
<path d="M132.665 98.4351H143.785L148.619 145.331H127.83L132.665 98.4351Z" fill="#714D22"/>
<path d="M171.892 137.372C183.05 138.497 175.658 125.078 170.264 113.146C164.87 101.213 153.201 78.7666 135.289 78.7666C120.611 78.7666 92.7986 131.435 99.3119 136.391C104.523 140.355 116.754 137.244 124.896 131.004C127.338 136.51 131.026 139.087 136.888 139.528C142.75 139.968 146.169 135.96 150.783 131.004C152.411 132.84 162.158 136.391 171.892 137.372Z" fill="#66A865"/>
<path fill-rule="evenodd" clip-rule="evenodd" d="M169.789 111.811C163.063 98.5732 151.436 81.0303 134.931 81.0303C126.442 81.0303 113.908 97.2474 105.109 113.227C111.098 112.622 118.206 109.74 123.639 105.576C126.293 111.559 130.649 117.779 137.018 118.257C143.387 118.736 148.138 112.495 151.765 105.576C153.258 107.26 161.038 110.272 169.789 111.811Z" fill="#458244"/>
<path d="M171.892 107.053C182.571 110.478 175.658 94.7585 170.264 82.8262C164.87 70.8938 153.201 48.4473 135.289 48.4473C120.611 48.4473 92.7986 101.116 99.3119 106.071C104.523 110.036 116.754 100.319 124.896 94.0791C127.338 99.5851 131.026 108.768 136.888 109.209C142.75 109.649 146.169 99.0345 150.783 94.0791C152.411 95.9144 162.158 103.93 171.892 107.053Z" fill="#83C082"/>
<path fill-rule="evenodd" clip-rule="evenodd" d="M164.754 70.5618C167.339 76.0655 169.23 80.0939 168.927 80.0634C160.654 79.2323 151.062 75.58 149.678 74.0256C146.841 79.4187 142.483 82.8538 137.501 82.4807C132.52 82.1076 127.974 77.9582 125.898 73.2948C118.979 78.5799 106.142 80.5468 107.043 79.0964C108.585 76.6156 110.027 73.8745 111.398 70.9929C119.649 57.7777 129.698 46.2207 136.865 46.2207C145.524 46.2207 152.84 51.0491 158.811 57.5511C159.118 58.3262 159.427 59.0649 159.741 59.7577C161.447 63.5188 163.222 67.2995 164.754 70.5618Z" fill="#458244"/>
<path d="M168.442 71.3612C176.178 74.02 170.405 60.3043 166.025 50.5721C161.645 40.8399 150.591 25.494 136.082 24.4625C122.513 23.4979 100.302 65.8691 105.592 69.9108C109.823 73.1442 121.029 66.7698 127.641 61.6803C129.625 66.1711 132.62 73.6608 137.38 74.02C142.141 74.3793 144.917 65.722 148.664 61.6803C149.986 63.1772 161.545 68.9904 168.442 71.3612Z" fill="#66A865"/>
<path fill-rule="evenodd" clip-rule="evenodd" d="M162.203 43.2405C163.778 46.0182 164.742 47.7185 164.576 47.6712C164.217 47.5686 163.774 47.4449 163.268 47.3034C159.002 46.1111 150.203 43.6521 148.621 41.8696C147.655 43.0814 146.782 44.2077 145.983 45.2388C142.444 49.8058 140.352 52.5059 137.985 52.5059C135.014 52.5059 133.247 49.9525 131 46.7039C129.946 45.1814 128.787 43.5062 127.349 41.8696C118.503 48.6493 112.361 48.1546 112.361 48.1546C112.361 48.1546 115.628 36.0508 121.351 25.1036C126.561 19.2078 131.72 15.2788 135.898 15.2788C141.036 15.2788 145.701 16.9785 149.892 19.7189C149.952 19.8491 150.012 19.9806 150.072 20.1135C153.923 28.6332 159.185 37.9161 162.203 43.2405Z" fill="#458244"/>
<path d="M161.156 40.8645C167.702 44.6309 163.679 32.4546 160.065 24.2922C156.451 16.1297 148.633 0.774899 136.632 0.774904C126.799 0.774909 108.164 36.8035 112.528 40.1933C116.019 42.9051 124.214 36.2585 129.669 31.9898C131.305 35.7563 133.776 42.038 137.704 42.3393C141.631 42.6406 143.922 35.3796 147.013 31.9898C148.104 33.2453 155.919 37.8513 161.156 40.8645Z" fill="#83C082"/>
</svg>
