<svg width="236" height="186" viewBox="0 0 236 186" fill="none" xmlns="http://www.w3.org/2000/svg">
<g clip-path="url(#clip0_1_2)">
<path d="M210.187 146.873H217.105L218.829 171.992H208.75L210.187 146.873Z" fill="#8A5A23"/>
<path d="M29.3762 127.227H40.3594L43.0961 167.106H27.0956L29.3762 127.227Z" fill="#835A2B"/>
<path d="M209.928 151.715H217.367L218.03 160.563H209.389L209.928 151.715Z" fill="#6C4F2D"/>
<path d="M28.9646 134.915H40.7759L41.8276 148.961H28.1096L28.9646 134.915Z" fill="#6C4F2D"/>
<path d="M169.918 132.345H180.631L183.301 159.042H167.693L169.918 132.345Z" fill="#835A2B"/>
<path d="M169.516 137.491H181.038L182.063 146.895H168.682L169.516 137.491Z" fill="#6C4F2D"/>
<path d="M173.985 111.208C174.657 110.206 176.132 110.206 176.804 111.208L193.455 136.062C194.21 137.189 193.403 138.703 192.046 138.703H158.743C157.386 138.703 156.578 137.189 157.333 136.062L173.985 111.208Z" fill="#5E9F5C"/>
<path d="M173.985 111.208C174.657 110.206 176.132 110.206 176.804 111.208L193.455 136.062C194.21 137.189 193.403 138.703 192.046 138.703H158.743C157.386 138.703 156.578 137.189 157.333 136.062L173.985 111.208Z" fill="#5E9F5C"/>
<path d="M175.579 109.105L190.198 130.718H160.959L175.579 109.105Z" fill="#448843"/>
<path d="M173.922 99.4501C174.573 98.3114 176.215 98.3114 176.867 99.4501L191.734 125.438C192.381 126.569 191.564 127.977 190.262 127.977H160.527C159.224 127.977 158.408 126.569 159.055 125.438L173.922 99.4501Z" fill="#5E9F5C"/>
<path d="M173.922 99.4501C174.573 98.3114 176.215 98.3114 176.867 99.4501L191.734 125.438C192.381 126.569 191.564 127.977 190.262 127.977H160.527C159.224 127.977 158.408 126.569 159.055 125.438L173.922 99.4501Z" fill="#67B765"/>
<path d="M175.56 96.8762L188.677 119.587H162.443L175.56 96.8762Z" fill="#448843"/>
<path d="M173.686 90.9906C174.324 89.791 176.043 89.791 176.681 90.9906L189.161 114.451C189.762 115.581 188.944 116.944 187.664 116.944H162.703C161.423 116.944 160.604 115.581 161.206 114.451L173.686 90.9906Z" fill="#5E9F5C"/>
<path d="M173.686 90.9906C174.324 89.791 176.043 89.791 176.681 90.9906L189.161 114.451C189.762 115.581 188.944 116.944 187.664 116.944H162.703C161.423 116.944 160.604 115.581 161.206 114.451L173.686 90.9906Z" fill="#5E9F5C"/>
<path d="M175.183 88.1753L186.178 108.72H164.189L175.183 88.1753Z" fill="#448843"/>
<path d="M173.743 88.6676C174.407 87.5999 175.96 87.5999 176.624 88.6676L185.658 103.198C186.36 104.328 185.548 105.79 184.217 105.79H166.15C164.819 105.79 164.007 104.328 164.709 103.198L173.743 88.6676Z" fill="#5E9F5C"/>
<path d="M173.743 88.6676C174.407 87.5999 175.96 87.5999 176.624 88.6676L185.658 103.198C186.36 104.328 185.548 105.79 184.217 105.79H166.15C164.819 105.79 164.007 104.328 164.709 103.198L173.743 88.6676Z" fill="#6AB968"/>
<path d="M113.279 112.35H131.756L136.36 181.145H109.443L113.279 112.35Z" fill="#835A2B"/>
<path d="M112.587 125.611H132.457L134.226 149.843H111.148L112.587 125.611Z" fill="#6C4F2D"/>
<path d="M119.064 60.7835C120.237 58.8883 122.993 58.8883 124.166 60.7835L165.978 128.352C167.215 130.351 165.777 132.931 163.427 132.931H79.8034C77.4531 132.931 76.0156 130.351 77.2523 128.352L119.064 60.7835Z" fill="#5E9F5C"/>
<path d="M119.064 60.7835C120.237 58.8883 122.993 58.8883 124.166 60.7835L165.978 128.352C167.215 130.351 165.777 132.931 163.427 132.931H79.8034C77.4531 132.931 76.0156 130.351 77.2523 128.352L119.064 60.7835Z" fill="#5E9F5C"/>
<path d="M122.054 56.6609L156.849 112.355H87.2594L122.054 56.6609Z" fill="#448843"/>
<path d="M118.963 30.1692C120.089 28.0379 123.142 28.0379 124.268 30.1692L161.635 100.89C162.691 102.888 161.242 105.292 158.982 105.292H84.2478C81.9882 105.292 80.5397 102.888 81.5953 100.89L118.963 30.1692Z" fill="#5E9F5C"/>
<path d="M118.963 30.1692C120.089 28.0379 123.142 28.0379 124.268 30.1692L161.635 100.89C162.691 102.888 161.242 105.292 158.982 105.292H84.2478C81.9882 105.292 80.5397 102.888 81.5953 100.89L118.963 30.1692Z" fill="#67B765"/>
<path d="M122.009 25.1491L153.227 83.6719H90.7903L122.009 25.1491Z" fill="#448843"/>
<path d="M118.42 8.20794C119.519 5.97187 122.707 5.97187 123.806 8.20793L155.413 72.5379C156.393 74.5313 154.942 76.8609 152.721 76.8609H89.5053C87.2842 76.8609 85.8333 74.5313 86.8127 72.5379L118.42 8.20794Z" fill="#5E9F5C"/>
<path d="M121.113 2.72791L147.28 55.67H94.9458L121.113 2.72791Z" fill="#448843"/>
<path d="M118.511 2.55577C119.665 0.547597 122.562 0.547599 123.715 2.55578L147.297 43.6255C148.446 45.6255 147.002 48.1194 144.696 48.1194H97.5305C95.2242 48.1194 93.7805 45.6255 94.9289 43.6255L118.511 2.55577Z" fill="#5E9F5C"/>
<path d="M118.511 2.55577C119.665 0.547597 122.562 0.547599 123.715 2.55578L147.297 43.6255C148.446 45.6255 147.002 48.1194 144.696 48.1194H97.5305C95.2242 48.1194 93.7805 45.6255 94.9289 43.6255L118.511 2.55577Z" fill="#6AB968"/>
<circle cx="213.768" cy="139.758" r="14.0156" fill="#66A865"/>
<circle cx="35.0612" cy="115.932" r="22.2508" fill="#66A865"/>
<circle cx="221.171" cy="131.615" r="14.0156" fill="#448843"/>
<circle cx="46.8142" cy="103.004" r="22.2508" fill="#448843"/>
<circle cx="206.365" cy="131.615" r="14.0156" fill="#5E9F5C"/>
<circle cx="23.3082" cy="103.004" r="22.2508" fill="#6AB968"/>
<circle cx="213.768" cy="124.212" r="14.0156" fill="#6AB968"/>
<circle cx="35.0612" cy="91.2511" r="22.2508" fill="#66A865"/>
</g>
<defs>
<clipPath id="clip0_1_2">
<rect width="236" height="186" fill="white"/>
</clipPath>
</defs>
</svg>
