<svg width="1642" height="384" viewBox="0 0 1642 384" fill="none" xmlns="http://www.w3.org/2000/svg">
<path d="M2.91667 337.175L1511.12 209.433C1512.96 209.277 1514.81 209.692 1516.4 210.621L1614.83 267.856C1622.64 272.4 1619.63 284.336 1610.6 284.631L2.91667 337.175Z" fill="#8D8D8D"/>
<path d="M629.133 182.208C602.367 208.583 624.486 230.045 638.892 237.479C644.933 251.054 652.972 273.938 636.801 256.872C616.586 235.539 576.855 244.266 548.276 250.084C519.698 255.902 530.85 204.51 558.732 204.51C559.637 150.305 606.043 167.057 629.133 182.208Z" fill="#D3CEBF"/>
<path d="M818.992 109.547C735.708 113.578 690.811 202.335 669.52 256.909C665.267 267.81 673.507 279.338 685.208 279.338L1020.04 279.336C1029.39 279.336 1037.17 271.757 1036.24 262.456C1033.01 229.843 1017.58 209.412 970.778 203.671C964.245 202.87 958.571 198.711 955.912 192.69C940.682 158.21 906.198 105.325 818.992 109.547Z" fill="#E47755"/>
<path d="M818.992 109.547C722.828 114.202 675.885 236.957 672.952 249.734L960.032 202.651C947.21 169.677 915.156 104.892 818.992 109.547Z" fill="#D85E38"/>
<ellipse cx="720.581" cy="263.551" rx="44.8765" ry="40.733" fill="#515151"/>
<ellipse cx="962.594" cy="263.551" rx="44.8765" ry="40.733" fill="#515151"/>
<ellipse cx="720.581" cy="263.551" rx="27.2464" ry="24.7307" fill="white"/>
<ellipse cx="962.594" cy="263.551" rx="27.2464" ry="24.7307" fill="white"/>
<path d="M742.337 195.625H928.547C934.936 195.625 939.288 189.142 936.49 183.398C916.872 143.124 886.702 120.968 823.484 123.673C764.387 126.201 741.521 155.914 733.958 185.409C732.593 190.731 736.843 195.625 742.337 195.625Z" fill="white"/>
<rect x="794.912" y="115.389" width="13.8851" height="88.882" fill="#D85E38"/>
<path d="M649.357 245.244L670.947 250.196C673.51 250.784 675.18 253.256 674.768 255.852L674.603 256.894C674.285 258.897 672.789 260.51 670.815 260.977L647.357 266.525C643.86 267.352 640.658 264.331 641.282 260.792L643.315 249.25C643.812 246.432 646.568 244.604 649.357 245.244Z" fill="#747474"/>
<ellipse cx="579.882" cy="160.187" rx="79.7792" ry="55.1926" fill="#D3CEBF"/>
<ellipse cx="613.61" cy="103.953" rx="79.7792" ry="55.1926" fill="#D3CEBF"/>
<ellipse cx="600.638" cy="56.05" rx="79.7792" ry="55.1926" fill="#D3CEBF"/>
<ellipse cx="526.696" cy="103.953" rx="79.7792" ry="55.1926" fill="#D3CEBF"/>
</svg>
