<svg width="1819" height="643" viewBox="0 0 1819 643" fill="none" xmlns="http://www.w3.org/2000/svg">
<path fill-rule="evenodd" clip-rule="evenodd" d="M995.031 425.026C1036.33 426.005 1082.11 428.009 1120.43 432.31C1139.56 434.457 1148.78 440.488 1141.01 445.779C1133.25 451.071 1111.45 453.62 1092.31 451.472C1064.3 448.329 1027.27 446.546 988.648 445.63C950.528 444.727 913.475 444.721 886.316 444.786C789.429 445.016 705.499 457.497 628.393 483.775C572.062 502.974 539.496 533.235 553.005 561.822C559.432 575.423 586.253 586.657 618.538 595.635C666.323 608.922 723.913 615.085 787.568 618.795C845.976 622.199 906.368 622.302 964.893 619.139C996.832 617.413 1026.48 615.607 1054.22 612.589C1081.77 609.592 1108.37 604.674 1135.37 598.389C1175.15 589.129 1212.92 578.154 1237 564.656C1262.22 550.515 1273.65 532.431 1255.39 518.272C1241.39 507.42 1211.41 499.222 1181.35 495.015C1159.1 491.901 1135.48 490.018 1108.33 487.853C1104.26 487.529 1100.12 487.199 1095.89 486.857C1058.86 483.865 1023.66 481.33 988.766 480.221C927.693 478.282 869.779 478.805 816.305 484.937C799.501 486.864 786.585 488.895 773.894 492.151C745.36 499.472 721.472 506.243 706.726 515.414C692.123 524.496 684.603 535.103 689.748 544.87C696.903 558.451 725.079 567.538 760.365 574.298C800.482 581.983 843.294 586.03 884.7 585.633C915.01 585.343 944.749 583.721 974.417 580.758C1014.95 576.711 1053.1 572.585 1086.6 566.381C1102.64 563.409 1117.62 559.563 1131.59 554.812C1143.12 550.889 1149.99 548.006 1152.42 544.757C1159.72 535.001 1147.84 528.085 1130.67 524.806C1117.76 522.341 1096.7 520.015 1071.01 517.884C1052.3 516.332 1033.72 515.077 1016.72 513.931C1010.76 513.528 1005 513.139 999.493 512.755C924.888 507.551 867.459 516.832 846.687 526.885C827.91 535.973 835.349 539.346 837.836 540.257C843.036 542.161 857.227 544.28 879.267 544.415C901.027 544.548 918.187 542.638 925.389 540.685C928.252 539.909 929.031 539.303 929.213 538.716C929.431 538.018 929.062 536.255 922.564 533.196C912.106 528.272 918.06 521.936 935.863 519.043C953.666 516.151 976.577 517.798 987.035 522.721C999.189 528.443 1005.58 534.463 1003.71 540.488C1001.8 546.626 991.635 551.684 977.729 555.454C951.393 562.593 911.723 565.299 877.613 565.09C843.532 564.881 802.572 561.654 778.174 552.722C751.062 542.796 754.456 529.842 781.768 516.624C820.451 497.904 913.17 485.406 1017.78 492.703C1022.31 493.019 1027.41 493.363 1032.93 493.735C1050.26 494.905 1071.73 496.353 1092.5 498.076C1119.47 500.314 1150.07 503.379 1173.16 507.79C1219.95 516.727 1237.73 532.805 1225.64 548.95C1219.26 557.468 1201.86 563.686 1189.61 567.856C1171.57 573.993 1151.2 579.303 1128.21 583.563C1086.37 591.312 1040.46 596.15 999.811 600.209C963.161 603.869 925.741 605.932 887.29 606.301C826.234 606.886 767.878 600.894 717.789 591.298C671.487 582.428 626.817 568.845 615.757 547.852C608.138 533.39 619.429 518.813 638.404 507.011C659.831 493.685 693.856 484.478 723.043 476.99C744.084 471.591 765.381 468.389 787.668 465.834C857.732 457.8 930.099 457.542 997.297 459.676C1038.82 460.995 1079.09 463.955 1116.86 467.007C1120.59 467.308 1124.44 467.614 1128.39 467.927C1155.04 470.039 1186.06 472.497 1215.11 476.563C1260.45 482.908 1304.72 494.973 1325.81 511.324C1353.21 532.562 1334.61 556.677 1304.06 573.805C1273.54 590.916 1227.14 604.057 1183.51 614.212C1153.13 621.284 1119.49 627.711 1081.59 631.833C1046.99 635.597 1011.53 637.69 979.23 639.436C910.929 643.126 840.418 643.009 772.15 639.03C701.005 634.884 627.562 627.469 565.523 610.218C526.485 599.363 488.159 584.176 478.863 564.502C462.795 530.498 500.606 494.508 570.333 470.744C657.833 440.923 761.257 424.402 885.674 424.107C913.262 424.041 953.231 424.036 995.031 425.026Z" fill="#9BCBE7"/>
<ellipse cx="114.224" cy="480.684" rx="31.5821" ry="34.176" transform="rotate(57.7592 114.224 480.684)" fill="#D3CEBF"/>
<ellipse cx="1621.83" cy="212.229" rx="49.4004" ry="34.176" transform="rotate(57.7592 1621.83 212.229)" fill="#D3CEBF"/>
<ellipse cx="1673.4" cy="202.242" rx="29.19" ry="34.176" transform="rotate(114.062 1673.4 202.242)" fill="#D3CEBF"/>
<ellipse cx="212.503" cy="471.92" rx="35.5746" ry="34.176" transform="rotate(57.7592 212.503 471.92)" fill="#D3CEBF"/>
<ellipse cx="165.675" cy="467.343" rx="43.3805" ry="34.176" transform="rotate(89.41 165.675 467.343)" fill="#D3CEBF"/>
<g filter="url(#filter0_d_309_114)">
<path d="M34.0376 492.698L170.369 339.129L306.7 492.698H34.0376Z" stroke="#899297" stroke-width="10" shape-rendering="crispEdges"/>
</g>
<g filter="url(#filter1_d_309_114)">
<path d="M1512.37 208.124L1648.7 54.5549L1785.03 208.124H1512.37Z" stroke="#899297" stroke-width="10" shape-rendering="crispEdges"/>
</g>
<path d="M1789.83 203.637C1801.98 203.637 1812.11 213.676 1808.74 225.35C1793.91 276.761 1727.43 315.542 1647.67 315.542C1567.91 315.542 1501.43 276.761 1486.6 225.35C1483.23 213.676 1493.36 203.637 1505.51 203.637H1789.83Z" fill="#626161"/>
<path d="M309.338 483.856C321.488 483.856 331.617 493.895 328.25 505.569C313.421 556.98 246.945 595.761 167.182 595.761C87.4184 595.761 20.9421 556.98 6.11322 505.569C2.7459 493.895 12.875 483.856 25.0253 483.856H309.338Z" fill="#626161"/>
<path d="M872.179 227.667C875.94 204.076 909.893 204.076 913.655 227.667L960.215 519.677C962.249 532.433 952.394 543.983 939.477 543.983H846.357C833.44 543.983 823.585 532.433 825.619 519.677L872.179 227.667Z" fill="#93795C"/>
<rect x="136.787" y="294.01" width="1562.64" height="52.5229" rx="26.2614" transform="rotate(-10.8202 136.787 294.01)" fill="#93795C"/>
<defs>
<filter id="filter0_d_309_114" x="22.9128" y="331.598" width="294.912" height="175.1" filterUnits="userSpaceOnUse" color-interpolation-filters="sRGB">
<feFlood flood-opacity="0" result="BackgroundImageFix"/>
<feColorMatrix in="SourceAlpha" type="matrix" values="0 0 0 0 0 0 0 0 0 0 0 0 0 0 0 0 0 0 127 0" result="hardAlpha"/>
<feOffset dy="9"/>
<feComposite in2="hardAlpha" operator="out"/>
<feColorMatrix type="matrix" values="0 0 0 0 1 0 0 0 0 1 0 0 0 0 1 0 0 0 1 0"/>
<feBlend mode="normal" in2="BackgroundImageFix" result="effect1_dropShadow_309_114"/>
<feBlend mode="normal" in="SourceGraphic" in2="effect1_dropShadow_309_114" result="shape"/>
</filter>
<filter id="filter1_d_309_114" x="1501.25" y="47.0236" width="294.912" height="175.1" filterUnits="userSpaceOnUse" color-interpolation-filters="sRGB">
<feFlood flood-opacity="0" result="BackgroundImageFix"/>
<feColorMatrix in="SourceAlpha" type="matrix" values="0 0 0 0 0 0 0 0 0 0 0 0 0 0 0 0 0 0 127 0" result="hardAlpha"/>
<feOffset dy="9"/>
<feComposite in2="hardAlpha" operator="out"/>
<feColorMatrix type="matrix" values="0 0 0 0 1 0 0 0 0 1 0 0 0 0 1 0 0 0 1 0"/>
<feBlend mode="normal" in2="BackgroundImageFix" result="effect1_dropShadow_309_114"/>
<feBlend mode="normal" in="SourceGraphic" in2="effect1_dropShadow_309_114" result="shape"/>
</filter>
</defs>
</svg>
