<svg fill="none" height="24" viewBox="0 0 24 24" width="24" xmlns="http://www.w3.org/2000/svg"><path d="m11.9999 11c.2652 0 .5196.1054.7071.2929s.2929.4419.2929.7071v3c0 .2652-.1054.5196-.2929.7071s-.4419.2929-.7071.2929-.5196-.1054-.7071-.2929c-.1876-.1875-.2929-.4419-.2929-.7071v-3c0-.2652.1053-.5196.2929-.7071.1875-.1875.4419-.2929.7071-.2929zm0-3c.1978 0 .3911.05865.5556.16853.1644.10988.2926.26606.3683.44879.0757.18272.0955.38379.0569.57777s-.1339.37216-.2737.51202c-.1399.13985-.318.23509-.512.27368-.194.03861-.3951.01878-.5778-.05691s-.3389-.20386-.4488-.36831-.1685-.35779-.1685-.55557c0-.26522.1053-.51957.2929-.70711.1875-.18753.4419-.29289.7071-.29289zm0-6c1.3132 0 2.6136.25866 3.8268.7612 1.2133.50255 2.3157 1.23915 3.2443 2.16773 1.8753 1.87537 2.9289 4.41891 2.9289 7.07107.0087 2.3091-.7908 4.5485-2.26 6.33l2 2c.1387.1406.2327.3192.2701.5132s.0165.3947-.0601.5768c-.0831.1799-.2177.3311-.3869.4344-.1691.1033-.3651.1539-.5631.1456h-9c-2.65218 0-5.19571-1.0536-7.07108-2.9289-1.87536-1.8754-2.92893-4.4189-2.92893-7.0711 0-2.65216 1.05357-5.1957 2.92893-7.07107 1.87537-1.87536 4.4189-2.92893 7.07108-2.92893zm0 18h6.59l-.93-.93c-.0945-.0926-.1697-.2031-.2212-.3249-.0515-.1219-.0783-.2528-.0788-.3851.0037-.2638.1116-.5154.3-.7 1.3094-1.308 2.1248-3.0295 2.3073-4.8712.1825-1.8418-.2793-3.68979-1.3065-5.22928-1.0273-1.53948-2.5566-2.67516-4.3273-3.21355-1.7707-.53838-3.6734-.44617-5.38373.26094-1.71035.70711-3.12263 1.98536-3.99622 3.61698-.87358 1.63162-1.15443 3.51561-.79469 5.33111.35975 1.8155 1.33782 3.45 2.76759 4.6252s3.22275 1.8183 5.07355 1.8198z" fill="#4e8f37"/></svg>