<svg width="24" height="25" viewBox="0 0 24 25" fill="none" xmlns="http://www.w3.org/2000/svg">
<path d="M19 9.59473L13 3.59473M19 9.59473H16.2C15.0799 9.59473 14.5198 9.59473 14.092 9.37674C13.7157 9.18499 13.4097 8.87903 13.218 8.50271C13 8.07488 13 7.51483 13 6.39473V3.59473M19 9.59473V10.5947M13 3.59473H8.2C7.0799 3.59473 6.51984 3.59473 6.09202 3.81271C5.71569 4.00446 5.40973 4.31042 5.21799 4.68675C5 5.11457 5 5.67462 5 6.79473V18.3947C5 19.5148 5 20.0749 5.21799 20.5027C5.40973 20.879 5.71569 21.185 6.09202 21.3767C6.51984 21.5947 7.07989 21.5947 8.2 21.5947H12" stroke="white" stroke-width="2" stroke-linecap="round" stroke-linejoin="round"/>
<path d="M17 16.0947V17.5947H18.5M21 17.5947C21 19.8039 19.2091 21.5947 17 21.5947C14.7909 21.5947 13 19.8039 13 17.5947C13 15.3856 14.7909 13.5947 17 13.5947C19.2091 13.5947 21 15.3856 21 17.5947Z" stroke="white" stroke-width="2" stroke-linecap="round" stroke-linejoin="round"/>
</svg>
