<svg width="27" height="27" viewBox="0 0 27 27" fill="none" xmlns="http://www.w3.org/2000/svg">
<path d="M11.9787 10.3959L10.3452 13.663H14.7012L13.0677 16.93M22.8688 14.752V12.574M8.49385 20.197H16.5525C18.3822 20.197 19.2971 20.197 19.9959 19.8409C20.6107 19.5277 21.1105 19.0279 21.4237 18.4132C21.7798 17.7143 21.7798 16.7995 21.7798 14.9698V12.3562C21.7798 10.5264 21.7798 9.61159 21.4237 8.91274C21.1105 8.298 20.6107 7.79821 19.9959 7.48499C19.2971 7.12891 18.3822 7.12891 16.5525 7.12891H8.49385C6.66414 7.12891 5.74929 7.12891 5.05043 7.48499C4.4357 7.79821 3.93591 8.298 3.62269 8.91274C3.2666 9.61159 3.2666 10.5264 3.2666 12.3562V14.9698C3.2666 16.7995 3.2666 17.7143 3.62269 18.4132C3.93591 19.0279 4.4357 19.5277 5.05043 19.8409C5.74929 20.197 6.66414 20.197 8.49385 20.197Z" stroke="white" stroke-width="2.17802" stroke-linecap="round" stroke-linejoin="round"/>
</svg>
