<svg fill="none" height="752" viewBox="0 0 752 752" width="752" xmlns="http://www.w3.org/2000/svg"><path d="m324.319 330.194-67.476 59.066c-9.449 8.272-9.449 21.838 0 30.109l67.476 59.067c4.849 4.245 12.44.801 12.44-5.643v-18.326c0-2.162-.934-4.219-2.56-5.643l-48.697-42.628c-1.137-.996-1.137-2.766 0-3.762l48.697-42.628c1.626-1.424 2.56-3.481 2.56-5.643v-18.326c0-6.445-7.591-9.888-12.44-5.643zm105.976 76.002-48.696 42.628c-1.627 1.424-2.56 3.481-2.56 5.643v18.326c0 6.444 7.591 9.888 12.44 5.643l29.591-25.904 37.884-33.163c9.449-8.271 9.449-21.837 0-30.109l-67.475-59.066c-4.849-4.245-12.44-.802-12.44 5.643v18.326c0 2.162.933 4.219 2.56 5.643l48.696 42.628c1.138.996 1.138 2.766 0 3.762z" fill="#4e8f37" stroke="#4e8f37" stroke-width="5"/><path clip-rule="evenodd" d="m163.426 175.847c-13.807 0-25 11.193-25 25v341.539c0 13.807 11.193 25 25 25h392.61c13.807 0 25-11.193 25-25v-200.627c0-6.504-2.535-12.753-7.068-17.419l-136.873-140.912c-4.708-4.847-11.176-7.581-17.933-7.581zm286.305 86.664h-267.972v266.185h355.944v-173.092z" fill="#4e8f37" fill-rule="evenodd"/><path d="m223.804 219.742c0 11.598-9.402 21-21 21s-21-9.402-21-21 9.402-21 21-21 21 9.402 21 21z" fill="#fff"/><path d="m277.97 219.742c0 11.598-9.402 21-21 21s-21-9.402-21-21 9.402-21 21-21 21 9.402 21 21z" fill="#fff"/><path d="m499.155 192.83c-6.19-6.332-1.704-16.991 7.151-16.991h65.637c5.523 0 10 4.477 10 10v67.134c0 8.963-10.884 13.4-17.15 6.991z" fill="#4e8f37"/></svg>