<svg width="24" height="25" viewBox="0 0 24 25" fill="none" xmlns="http://www.w3.org/2000/svg">
<path d="M21 12.5947C21 17.5653 16.9706 21.5947 12 21.5947M21 12.5947C21 7.62416 16.9706 3.59473 12 3.59473M21 12.5947C21 14.2516 16.9706 15.5947 12 15.5947C7.02944 15.5947 3 14.2516 3 12.5947M21 12.5947C21 10.9379 16.9706 9.59473 12 9.59473C7.02944 9.59473 3 10.9379 3 12.5947M12 21.5947C7.02944 21.5947 3 17.5653 3 12.5947M12 21.5947C10.3431 21.5947 9 17.5653 9 12.5947C9 7.62416 10.3431 3.59473 12 3.59473M12 21.5947C13.6569 21.5947 15 17.5653 15 12.5947C15 7.62416 13.6569 3.59473 12 3.59473M3 12.5947C3 7.62416 7.02944 3.59473 12 3.59473" stroke="white" stroke-width="2" stroke-linecap="round" stroke-linejoin="round"/>
</svg>
