<svg fill="none" height="40" viewBox="0 0 38 40" width="38" xmlns="http://www.w3.org/2000/svg"><path d="m31.7571 36.6667h-25.51428c-.83998-.0002-1.66513-.2331-2.39254-.6752-.72741-.4422-1.33146-1.0781-1.75147-1.8438s-.64118-1.6343-.64129-2.5185.22084-1.7529.64066-2.5187l12.75712-23.25846c.4201-.7658 1.0242-1.40171 1.7518-1.84384.7275-.44213 1.5528-.67489 2.3928-.67489.8401 0 1.6654.23276 2.3929.67489.7276.44213 1.3317 1.07804 1.7518 1.84384l12.7571 23.25846c.4198.7658.6408 1.6345.6407 2.5187s-.2213 1.7528-.6413 2.5185-1.0241 1.4016-1.7515 1.8438c-.7274.4421-1.5526.675-2.3925.6752z" fill="#ebab4a"/><g fill="#fff"><path d="m18.9998 30c.8745 0 1.5834-.7462 1.5834-1.6666 0-.9205-.7089-1.6667-1.5834-1.6667-.8744 0-1.5833.7462-1.5833 1.6667 0 .9204.7089 1.6666 1.5833 1.6666z"/><path d="m18.9998 23.3333c-.4199 0-.8226-.1756-1.1195-.4881-.297-.3126-.4638-.7365-.4638-1.1786v-6.6666c0-.442.1668-.866.4638-1.1785.2969-.3126.6996-.4882 1.1195-.4882.42 0 .8227.1756 1.1196.4882.297.3125.4638.7365.4638 1.1785v6.6666c0 .4421-.1668.866-.4638 1.1786-.2969.3125-.6996.4881-1.1196.4881z"/></g></svg>