<svg fill="none" height="43" viewBox="0 0 43 43" width="43" xmlns="http://www.w3.org/2000/svg"><path d="m18.4764 28.8347c-.2353.0003-.4684-.046-.6858-.1361s-.4148-.2222-.5809-.3889l-5.0391-5.039c-.3325-.3367-.5183-.7912-.5168-1.2644.0015-.4731.1901-.9265.5247-1.2611s.7879-.5232 1.2611-.5247.9277.1842 1.2644.5167l3.7723 3.7723 9.8193-9.8192c.3367-.3324.7912-.5182 1.2644-.5167s.9265.1901 1.2611.5247.5232.788.5247 1.2612c.0015.4731-.1843.9277-.5168 1.2643l-11.0859 11.086c-.1662.1666-.3636.2988-.581.3888-.2174.0901-.4504.1364-.6857.1361z" fill="#fff" opacity=".99"/><path d="m21.5002 3.58337c-3.5436 0-7.0076 1.0508-9.954 3.01951-2.94638 1.96871-5.2428 4.76692-6.59887 8.04072-1.35607 3.2739-1.71088 6.8763-1.01956 10.3518s2.39771 6.6679 4.9034 9.1736c2.50573 2.5057 5.69813 4.2121 9.17363 4.9034 3.4755.6914 7.0779.3366 10.3518-1.0195 3.2738-1.3561 6.072-3.6525 8.0407-6.5989s3.0195-6.4104 3.0195-9.954c-.0054-4.7501-1.8948-9.3041-5.2536-12.66295-3.3589-3.35885-7.9129-5.24824-12.663-5.25368zm9.3292 13.64043-11.086 11.086c-.1663.1664-.3638.2984-.5811.3885-.2174.09-.4503.1364-.6856.1364s-.4683-.0464-.6856-.1364c-.2174-.0901-.4149-.2221-.5812-.3885l-5.0389-5.0391c-.3325-.3367-.5183-.7912-.5168-1.2644s.1901-.9265.5247-1.2611c.3345-.3346.7879-.5232 1.2611-.5247.4731-.0015.9277.1842 1.2644.5167l3.7723 3.7723 9.8193-9.8192c.3367-.3325.7912-.5182 1.2644-.5167.4731.0015.9265.1901 1.2611.5247s.5232.788.5247 1.2611c.0014.4732-.1843.9278-.5168 1.2644z" fill="#7abc47"/></svg>