<svg width="24" height="25" viewBox="0 0 24 25" fill="none" xmlns="http://www.w3.org/2000/svg">
<path d="M19 9.59473V18.3947C19 19.5148 19 20.0749 18.782 20.5027C18.5903 20.879 18.2843 21.185 17.908 21.3767C17.4802 21.5947 16.9201 21.5947 15.8 21.5947H8.2C7.07989 21.5947 6.51984 21.5947 6.09202 21.3767C5.71569 21.185 5.40973 20.879 5.21799 20.5027C5 20.0749 5 19.5148 5 18.3947V6.79473C5 5.67462 5 5.11457 5.21799 4.68675C5.40973 4.31042 5.71569 4.00446 6.09202 3.81271C6.51984 3.59473 7.0799 3.59473 8.2 3.59473H13M19 9.59473L13 3.59473M19 9.59473H16.2C15.0799 9.59473 14.5198 9.59473 14.092 9.37674C13.7157 9.18499 13.4097 8.87903 13.218 8.50271C13 8.07488 13 7.51483 13 6.39473V3.59473M9 13.5947V16.5947M8.5 7.59473H9.5M8.5 10.5947H9.5" stroke="white" stroke-width="2" stroke-linecap="round" stroke-linejoin="round"/>
</svg>
