<svg width="24" height="25" viewBox="0 0 24 25" fill="none" xmlns="http://www.w3.org/2000/svg">
<path d="M21 8.59473H17.8174M21 12.5947H18M21 16.5947H17.8174M6.18257 8.59473H3M8 6.7773V3.59473M8 21.5947L8 18.4122M12 6.59473V3.59473M12 21.5947V18.5947M16 6.7773V3.59473M16 21.5947V18.4122M6 12.5947H3M6.18257 16.5947H3M10.8 18.5947H13.2C14.8802 18.5947 15.7202 18.5947 16.362 18.2677C16.9265 17.9801 17.3854 17.5212 17.673 16.9567C18 16.315 18 15.4749 18 13.7947V11.3947C18 9.71457 18 8.87449 17.673 8.23276C17.3854 7.66827 16.9265 7.20933 16.362 6.92171C15.7202 6.59473 14.8802 6.59473 13.2 6.59473H10.8C9.11984 6.59473 8.27976 6.59473 7.63803 6.92171C7.07354 7.20933 6.6146 7.66827 6.32698 8.23276C6 8.87449 6 9.71457 6 11.3947V13.7947C6 15.4749 6 16.315 6.32698 16.9567C6.6146 17.5212 7.07354 17.9801 7.63803 18.2677C8.27976 18.5947 9.11984 18.5947 10.8 18.5947ZM10 10.5947H14V14.5947H10V10.5947Z" stroke="white" stroke-width="2" stroke-linecap="round" stroke-linejoin="round"/>
</svg>
