<svg fill="none" height="43" viewBox="0 0 42 43" width="42" xmlns="http://www.w3.org/2000/svg"><path d="m27.524 39.4167h-13.048c-.4641-.0002-.9091-.189-1.2372-.525l-9.22605-9.4457c-.32819-.3359-.51262-.7915-.51275-1.2667v-13.3586c.00013-.4752.18456-.9308.51275-1.2667l9.22605-9.44571c.3281-.336.7731-.52483 1.2372-.52496h13.048c.4641.00013.9091.18896 1.2372.52496l9.2261 9.44571c.3281.3359.5126.7915.5127 1.2667v13.3586c-.0001.4752-.1846.9308-.5127 1.2667l-9.2261 9.4457c-.3281.336-.7731.5248-1.2372.525z" fill="#d26222"/><g fill="#fff"><path d="m21 30.4583c.9665 0 1.75-.8021 1.75-1.7916s-.7835-1.7917-1.75-1.7917-1.75.8022-1.75 1.7917.7835 1.7916 1.75 1.7916z"/><path d="m21 23.2917c-.4641 0-.9092-.1888-1.2374-.5248s-.5126-.7917-.5126-1.2669v-7.1667c0-.4751.1844-.9309.5126-1.2669s.7733-.5247 1.2374-.5247.9092.1887 1.2374.5247.5126.7918.5126 1.2669v7.1667c0 .4752-.1844.9309-.5126 1.2669s-.7733.5248-1.2374.5248z"/></g></svg>