<svg fill="none" height="24" viewBox="0 0 24 24" width="24" xmlns="http://www.w3.org/2000/svg"><path clip-rule="evenodd" d="m9.95876 1h.39314 3.2964.3931l.0928.38203.4795 1.97493 1.6498.68337 1.7355-1.05738.3358-.20455.2779.27799 2.331 2.33094.278.27798-.2046.33573-1.0574 1.7355.6834 1.64982 1.9749.4795.382.09275v.39309 3.2965.3931l-.382.0928-1.9749.4795-.6834 1.6498 1.0574 1.7355.2046.3358-.278.2779-2.3309 2.331-.278.278-.3357-.2046-1.7356-1.0574-1.6498.6834-.4795 1.975-.0928.382h-.3931-3.2964-.39312l-.09276-.382-.47953-1.975-1.64982-.6834-1.73567 1.0575-.33572.2045-.27798-.278-2.33088-2.3308-.27798-.278.20454-.3357 1.05749-1.7357-.68338-1.6498-1.97506-.4796-.38203-.0927v-.3932-3.2963-.39314l.38203-.09276 1.97506-.47954.68338-1.64982-1.05746-1.73563-.20455-.33572.27799-.27798 2.33089-2.3309.27798-.27798.33573.20454 1.73562 1.05746 1.64982-.68337.47952-1.97493zm.78624 1-.4467 1.83969-.0599.24678-.2346.09718-2.11907.87775-.23462.09718-.21687-.13213-1.61678-.98505-1.77493 1.77493.98505 1.61677.13214.21687-.09719.23463-.87774 2.1191-.09719.2346-.24678.0599-1.83982.4467v2.5101l1.83982.4467.24678.0599.09719.2347.87774 2.119.09719.2347-.13214.2168-.98507 1.6168 1.77491 1.775 1.61682-.9851.21687-.1322.23462.0972 2.11907.8778.2346.0972.0599.2467.4467 1.8398h2.5102l.4467-1.8398.0599-.2467.2346-.0972 2.1191-.8778.2346-.0972.2169.1322 1.6167.985 1.7749-1.775-.985-1.6167-.1321-.2168.0972-.2347.8777-2.119.0972-.2347.2468-.0599 1.8396-.4466v-2.5102l-1.8396-.4467-.2468-.0599-.0972-.2346-.8777-2.1191-.0972-.23462.1321-.21688.985-1.61664-1.775-1.77498-1.6166.98497-.2169.13213-.2346-.09718-2.1191-.87775-.2346-.09718-.0599-.24678-.4467-1.83969zm-2.745 10c0-2.20914 1.79086-4 4-4 2.2091 0 4 1.79086 4 4 0 2.2091-1.7909 4-4 4-2.20914 0-4-1.7909-4-4zm4-3c-1.6569 0-3 1.3431-3 3s1.3431 3 3 3 3-1.3431 3-3-1.3431-3-3-3z" fill="#fff" fill-rule="evenodd"/></svg>