<svg width="24" height="25" viewBox="0 0 24 25" fill="none" xmlns="http://www.w3.org/2000/svg">
<path d="M7.78652 15.8568L8.45773 16.5981L8.45985 16.5961L7.78652 15.8568ZM12.0958 15.8568L12.7692 15.1175L12.0958 15.8568ZM13.6471 17.2695L12.9737 18.0089L12.9759 18.0109L13.6471 17.2695ZM13.963 16.9818L14.6363 17.7211L14.6363 17.7211L13.963 16.9818ZM4.24918 17.7108C3.83979 18.0815 3.80843 18.7139 4.17913 19.1233C4.54982 19.5327 5.18221 19.564 5.5916 19.1933L4.24918 17.7108ZM16.3758 21.0887C16.7853 21.4593 17.4176 21.4279 17.7883 21.0185C18.1589 20.609 18.1275 19.9766 17.7181 19.606L16.3758 21.0887ZM18.2723 16.9818L17.599 17.7211C17.6045 17.7262 17.6101 17.7311 17.6157 17.736L18.2723 16.9818ZM18.7671 18.7384C19.1836 19.101 19.8153 19.0573 20.1779 18.6408C20.5405 18.2242 20.4968 17.5926 20.0803 17.2299L18.7671 18.7384ZM15.5352 15.8113L15.8264 16.768H15.8264L15.5352 15.8113ZM16.7 15.8113L16.4088 16.768H16.4088L16.7 15.8113ZM9.35878 14.6863L9.64998 15.643H9.64998L9.35878 14.6863ZM10.5236 14.6863L10.2324 15.643L10.5236 14.6863ZM11.4225 16.5961L12.9737 18.0089L14.3204 16.5302L12.7692 15.1175L11.4225 16.5961ZM14.3204 18.0089L14.6363 17.7211L13.2897 16.2425L12.9737 16.5302L14.3204 18.0089ZM12.9759 18.0109L16.3758 21.0887L17.7181 19.606L14.3182 16.5282L12.9759 18.0109ZM17.6157 17.736L18.7671 18.7384L20.0803 17.2299L18.9289 16.2276L17.6157 17.736ZM14.6363 17.7211C15.0283 17.3642 15.2803 17.1357 15.4862 16.9757C15.6824 16.8232 15.7747 16.7837 15.8264 16.768L15.244 14.8547C14.8647 14.9701 14.5512 15.1694 14.2593 15.3962C13.9771 15.6155 13.6585 15.9066 13.2897 16.2425L14.6363 17.7211ZM18.9456 16.2425C18.5768 15.9066 18.2582 15.6155 17.976 15.3962C17.6841 15.1694 17.3705 14.9701 16.9912 14.8547L16.4088 16.768C16.4606 16.7837 16.5528 16.8232 16.7491 16.9757C16.955 17.1357 17.207 17.3642 17.599 17.7211L18.9456 16.2425ZM15.8264 16.768C16.0163 16.7102 16.219 16.7102 16.4088 16.768L16.9912 14.8547C16.4217 14.6813 15.8135 14.6813 15.244 14.8547L15.8264 16.768ZM8.45985 16.5961C8.85184 16.2392 9.1038 16.0107 9.30976 15.8507C9.50598 15.6982 9.59818 15.6587 9.64998 15.643L9.06758 13.7297C8.68828 13.8451 8.37474 14.0444 8.08279 14.2712C7.80059 14.4905 7.48198 14.7816 7.11319 15.1175L8.45985 16.5961ZM12.7692 15.1175C12.4004 14.7816 12.0818 14.4905 11.7996 14.2712C11.5076 14.0444 11.1941 13.8451 10.8148 13.7297L10.2324 15.643C10.2842 15.6587 10.3764 15.6982 10.5726 15.8507C10.7786 16.0107 11.0305 16.2392 11.4225 16.5961L12.7692 15.1175ZM9.64998 15.643C9.83981 15.5852 10.0425 15.5852 10.2324 15.643L10.8148 13.7297C10.2453 13.5563 9.63708 13.5563 9.06758 13.7297L9.64998 15.643ZM16 9.89453C16 10.4468 15.5523 10.8945 15 10.8945V12.8945C16.6569 12.8945 18 11.5514 18 9.89453H16ZM15 10.8945C14.4477 10.8945 14 10.4468 14 9.89453H12C12 11.5514 13.3431 12.8945 15 12.8945V10.8945ZM14 9.89453C14 9.34225 14.4477 8.89453 15 8.89453V6.89453C13.3431 6.89453 12 8.23768 12 9.89453H14ZM15 8.89453C15.5523 8.89453 16 9.34225 16 9.89453H18C18 8.23768 16.6569 6.89453 15 6.89453V8.89453ZM20 12.8945C20 17.3128 16.4183 20.8945 12 20.8945V22.8945C17.5228 22.8945 22 18.4174 22 12.8945H20ZM12 20.8945C7.58172 20.8945 4 17.3128 4 12.8945H2C2 18.4174 6.47715 22.8945 12 22.8945V20.8945ZM4 12.8945C4 8.47625 7.58172 4.89453 12 4.89453V2.89453C6.47715 2.89453 2 7.37168 2 12.8945H4ZM12 4.89453C16.4183 4.89453 20 8.47625 20 12.8945H22C22 7.37168 17.5228 2.89453 12 2.89453V4.89453ZM5.5916 19.1933L8.45773 16.5981L7.11531 15.1155L4.24918 17.7108L5.5916 19.1933Z" fill="white"/>
</svg>
