<svg fill="none" height="155" viewBox="0 0 124 155" width="124" xmlns="http://www.w3.org/2000/svg"><path d="m50.2763 97.123 16.4848 8.029-33.4753 48.915-9.6082-18.077z" fill="#7abc47"/><path d="m50.2763 97.123-16.4848-8.0294-33.475329 48.9154 23.361429-2.019z" fill="#43892a"/><path d="m73.7944 97.123-16.4848 8.029 33.4754 48.915 9.608-18.077z" fill="#43892a"/><path d="m73.7944 97.123 16.4848-8.0294 33.4758 48.9154-23.362-2.019z" fill="#7abc47"/><circle cx="62.0087" cy="58.6889" fill="#f5d86c" r="57.2539" stroke="#f5d86c"/><circle cx="62.0087" cy="58.6889" fill="#fff6e4" r="44.3016"/><path d="m55.3983 64.8616 22.7104-22.7101.0022-.0022c.8848-.8737 2.0793-1.3619 3.3228-1.358 1.2435.004 2.4349.4997 3.3141 1.379.8793.8793 1.3749 2.0707 1.3788 3.3142.0039 1.2434-.4843 2.438-1.358 3.3227l-.0023.0022-26.0385 26.0386zm0 0-8.507-8.507-.0022-.0022c-.8848-.8737-2.0793-1.3619-3.3228-1.3579-1.2435.0039-2.4349.4996-3.3141 1.3789-.8793.8793-1.3749 2.0707-1.3788 3.3142s.4843 2.438 1.358 3.3227l.0023.0023 11.8354 11.8352c.4367.4381.9557.7855 1.5272 1.0224.5713.2367 1.1837.3583 1.8021.3577m-.0001-11.3663 3.329 9.9869c-.4367.4378-.9555.785-1.5268 1.0217-.5713.2368-1.1837.3583-1.8021.3577m0 0c-.0002 0-.0004 0-.0005 0l.0005-.5.0006.5c-.0002 0-.0004 0-.0006 0z" fill="#7abc47" opacity=".99" stroke="#7abc47"/></svg>