<svg width="154" height="155" viewBox="0 0 154 155" fill="none" xmlns="http://www.w3.org/2000/svg">
<circle cx="77.0805" cy="77.3792" r="65.3576" fill="#7ABC47"/>
<path fill-rule="evenodd" clip-rule="evenodd" d="M96.882 63.7313C97.7048 63.7313 98.1755 62.793 97.6836 62.1335L78.5573 36.487C78.1646 35.9604 77.3796 35.949 76.9718 36.464L56.6621 62.1105C56.1429 62.766 56.6098 63.7313 57.446 63.7313H62.3949C63.2321 63.7313 63.6987 64.6985 63.1776 65.3537L52.8259 78.3715C52.3048 79.0267 52.7714 79.9939 53.6085 79.9939H58.7485C59.5874 79.9939 60.0535 80.9648 59.5287 81.6194L49.9023 93.6279C49.3775 94.2825 49.8435 95.2534 50.6825 95.2534H67.3011C67.8794 95.2534 68.3371 95.7425 68.2989 96.3195L67.4885 108.545C67.4502 109.122 67.908 109.611 68.4863 109.611H85.7675C86.3458 109.611 86.8035 109.122 86.7653 108.545L85.9549 96.3195C85.9166 95.7425 86.3744 95.2534 86.9527 95.2534H103.571C104.41 95.2534 104.876 94.2825 104.351 93.6279L94.725 81.6194C94.2003 80.9648 94.6663 79.9939 95.5053 79.9939H100.645C101.482 79.9939 101.949 79.0267 101.428 78.3715L91.0761 65.3537C90.555 64.6985 91.0216 63.7313 91.8588 63.7313H96.882Z" fill="white"/>
</svg>
