<svg fill="none" height="752" viewBox="0 0 752 752" width="752" xmlns="http://www.w3.org/2000/svg" xmlns:xlink="http://www.w3.org/1999/xlink"><mask id="a" fill="#000" height="364" maskUnits="userSpaceOnUse" width="349" x="164.705" y="245"><path d="m164.705 245h349v364h-349z" fill="#fff"/><path clip-rule="evenodd" d="m254.944 273h155.189l-19.713 28.315c-9.872 14.18-11.724 32.452-4.897 48.324l6.611 15.37 19.77-17.307-3.415-7.941c-3.414-7.936-2.488-17.072 2.448-24.162l19.713-28.315c11.54-16.575-.321-39.284-20.517-39.284h-155.189c-21.123 0-32.726 24.573-19.305 40.884l22.011 26.752c5.771 7.014 7.284 16.605 3.952 25.054l-91.13 231.14c-6.468 16.405 5.624 34.17 23.258 34.17h291.303c17.962 0 30.063-18.377 22.966-34.878l-24.63-57.265-43.649-38.209 45.313 105.352h-291.303l91.13-231.14c6.663-16.899 3.636-36.081-7.905-50.108z" fill="#000" fill-rule="evenodd"/></mask><g fill="#4e8f37"><path d="m377 213c0 11.598-9.402 21-21 21s-21-9.402-21-21 9.402-21 21-21 21 9.402 21 21z"/><path d="m401 142c0 11.598-9.402 21-21 21s-21-9.402-21-21 9.402-21 21-21 21 9.402 21 21z"/><path d="m335 156c0 16.569-13.431 30-30 30s-30-13.431-30-30 13.431-30 30-30 30 13.431 30 30z"/><path d="m306.941 457.038c-28.477-4.299-36.492 5.373-36.94 10.746l-38.282 87.983 211.562.672c-9.85-30.224-29.356-87.371-36.268-82.611-71.783 49.443-64.476-11.417-100.072-16.79z"/><path d="m488.419 328.379-67.475 59.067c-9.449 8.271-9.449 21.837 0 30.108l67.475 59.067c4.849 4.245 12.44.801 12.44-5.643v-18.326c0-2.162-.933-4.219-2.56-5.643l-48.696-42.628c-1.138-.996-1.138-2.766 0-3.762l48.696-42.628c1.627-1.424 2.56-3.481 2.56-5.643v-18.326c0-6.444-7.591-9.888-12.44-5.643zm105.977 76.002-48.696 42.628c-1.627 1.424-2.56 3.481-2.56 5.643v18.326c0 6.444 7.591 9.888 12.44 5.643l29.591-25.903 37.884-33.164c9.449-8.271 9.449-21.837 0-30.108l-67.475-59.067c-4.849-4.245-12.44-.801-12.44 5.643v18.326c0 2.162.933 4.219 2.56 5.643l48.696 42.628c1.138.996 1.138 2.766 0 3.762z" stroke="#4e8f37" stroke-width="5"/><path clip-rule="evenodd" d="m254.944 273h155.189l-19.713 28.315c-9.872 14.18-11.724 32.452-4.897 48.324l6.611 15.37 19.77-17.307-3.415-7.941c-3.414-7.936-2.488-17.072 2.448-24.162l19.713-28.315c11.54-16.575-.321-39.284-20.517-39.284h-155.189c-21.123 0-32.726 24.573-19.305 40.884l22.011 26.752c5.771 7.014 7.284 16.605 3.952 25.054l-91.13 231.14c-6.468 16.405 5.624 34.17 23.258 34.17h291.303c17.962 0 30.063-18.377 22.966-34.878l-24.63-57.265-43.649-38.209 45.313 105.352h-291.303l91.13-231.14c6.663-16.899 3.636-36.081-7.905-50.108z" fill-rule="evenodd"/><path d="m414.659 399.5-.988-1.129-1.289 1.129 1.289 1.129zm32.302 26.283-31.314-27.412-1.976 2.258 31.314 27.411zm-31.314-25.154 14.184-12.417-1.976-2.257-14.184 12.416zm-5.514-127.629 2.462 1.714 3.282-4.714h-5.744zm-155.189 0v-3h-6.353l4.037 4.906zm135.476 28.315-2.462-1.714zm-4.897 48.324-2.756 1.185zm6.611 15.37-2.756 1.185 1.629 3.788 3.103-2.716zm19.77-17.307 1.976 2.257 1.642-1.437-.862-2.005zm-3.415-7.941-2.756 1.186zm2.448-24.162-2.462-1.714zm19.713-28.315 2.462 1.714zm-195.011 1.6-2.317 1.906zm22.011 26.752-2.316 1.906zm3.952 25.054 2.791 1.1zm-91.13 231.14 2.791 1.101zm337.527-.708-2.756 1.186zm-24.63-57.265 2.755-1.185-.268-.625-.511-.447zm-43.649-38.209 1.976-2.258-4.732 3.443zm45.313 105.352v3h4.556l-1.8-4.185zm-291.303 0-2.791-1.1-1.617 4.1h4.408zm91.13-231.14-2.791-1.101zm-7.905-50.108-2.316 1.906zm133.178-29.752h-155.189v6h155.189zm-17.251 33.029 19.713-28.315-4.924-3.428-19.713 28.315zm-4.603 45.425c-6.417-14.92-4.677-32.096 4.603-45.425l-4.924-3.428c-10.465 15.031-12.427 34.399-5.191 51.223zm6.61 15.369-6.61-15.369-5.512 2.37 6.611 15.37zm-.779 3.443 19.77-17.307-3.952-4.514-19.77 17.307zm20.55-20.749-3.415-7.941-5.512 2.371 3.415 7.94zm-3.415-7.941c-3.004-6.984-2.189-15.023 2.154-21.263l-4.924-3.428c-5.528 7.941-6.565 18.173-2.742 27.062zm2.154-21.263 19.713-28.315-4.924-3.428-19.713 28.315zm19.713-28.315c12.925-18.564-.359-43.998-22.979-43.998v6c17.773 0 28.21 19.984 18.055 34.57zm-22.979-43.998h-155.189v6h155.189zm-155.189 0c-23.657 0-36.653 27.522-21.622 45.79l4.633-3.812c-11.81-14.354-1.599-35.978 16.989-35.978zm-21.622 45.79 22.012 26.752 4.633-3.812-22.012-26.752zm22.012 26.752c5.078 6.172 6.409 14.612 3.478 22.048l5.581 2.2c3.731-9.463 2.037-20.205-4.426-28.06zm3.478 22.048-91.131 231.14 5.582 2.201 91.13-231.141zm-91.131 231.14c-7.244 18.373 6.299 38.27 26.049 38.27v-6c-15.518 0-26.159-15.633-20.467-30.069zm26.049 38.27h291.303v-6h-291.303zm291.303 0c20.117 0 33.67-20.583 25.722-39.063l-5.512 2.371c6.245 14.52-4.404 30.692-20.21 30.692zm25.722-39.063-24.631-57.265-5.511 2.37 24.63 57.266zm-25.41-58.337-43.649-38.21-3.952 4.515 43.649 38.209zm2.444 68.215-45.313-105.353-5.512 2.371 45.313 105.352zm-294.059 4.185h291.303v-6h-291.303zm88.339-235.241-91.13 231.141 5.581 2.2 91.131-231.14zm-7.43-47.101c10.848 13.185 13.693 31.217 7.43 47.101l5.582 2.201c7.062-17.912 3.855-38.246-8.379-53.114zm-22.011-26.752 22.011 26.752 4.633-3.812-22.011-26.752z" mask="url(#a)"/></g></svg>