<svg fill="none" height="25" viewBox="0 0 24 25" width="24" xmlns="http://www.w3.org/2000/svg"><path d="m12 3.59473v3.4c0 .56005 0 .84008.109 1.05399.0959.18816.2488.34114.437.43701.2139.109.4939.109 1.054.109h2.4m-2 10.99997c0 1.1046-.8954 2-2 2s-2-.8954-2-2m4 0c0-1.1045-.8954-2-2-2m2 2h7m-11 0c0-1.1045.8954-2 2-2m-2 2h-7m9-2v-4m4-5.71871v4.11871c0 .5601 0 .8401-.109 1.054-.0959.1882-.2488.3412-.437.437-.2139.109-.4939.109-1.054.109h-4.8c-.56005 0-.84008 0-1.05399-.109-.18816-.0958-.34114-.2488-.43702-.437-.10899-.2139-.10899-.4939-.10899-1.054v-6.79997c0-.56006 0-.84008.10899-1.05399.09588-.18817.24886-.34115.43702-.43702.21391-.10899.49394-.10899 1.05399-.10899h2.2193c.251 0 .3765 0 .4943.02898.1043.02569.2039.06805.2948.12544.1025.06474.1896.15517.3637.33603l2.5807 2.68126c.1652.17162.2477.25743.3068.35667.0523.08799.0908.1835.1141.28318.0263.11241.0263.23151.0263.4697z" stroke="#fff" stroke-linecap="round" stroke-linejoin="round" stroke-width="2"/></svg>