<svg width="505" height="375" viewBox="0 0 505 375" fill="none" xmlns="http://www.w3.org/2000/svg">
<circle cx="213.733" cy="164.194" r="154.916" fill="#9BCBE7"/>
<path d="M224.403 41.3751C226.071 30.8126 212.59 30.0251 205.641 30.9516C195.078 22.0568 156.302 34.8894 143.099 37.9006C131.054 41.1435 115.998 35.121 88.2018 71.9509C63.7496 104.35 60.4057 138.662 60.4057 149.78C60.4057 158.675 92.8346 152.56 97.9306 159.509C91.9081 165.763 79.3072 180.912 77.0835 191.474C74.3039 204.677 83.3377 219.27 90.9816 233.863C98.6255 248.456 146.574 272.083 145.184 279.032C143.794 285.981 202.166 334.624 198.692 310.303C195.217 285.981 220.928 245.677 220.928 233.168C220.928 223.162 187.805 211.858 177.149 211.626C165.568 210.931 155.607 216.491 155.607 216.491C155.607 216.491 135.687 222.282 135.455 217.88C86.8121 186.61 114.33 170.627 115.998 159.509C118.083 145.611 212.177 211.756 188.268 157.424C171.76 119.91 226.256 103.453 214.674 91.4082C196.607 86.5438 152.55 94.4657 159.777 78.8999C168.811 59.4426 165.336 76.8152 184.793 80.2897C204.251 83.7642 222.318 54.5783 224.403 41.3751Z" fill="#6CB56B"/>
<path d="M280.69 57.358C295.144 47.3514 325.859 65.0019 334.197 69.8662C417.586 172.017 332.113 278.337 309.181 284.591C296.441 280.422 293.337 244.287 279.995 230.389C263.317 213.016 279.995 208.847 302.927 193.559C325.859 178.271 314.045 146.306 307.791 131.713C301.537 117.12 287.639 126.848 268.877 121.289C250.114 115.73 260.538 94.1879 264.707 92.798C268.877 91.4082 294.588 104.611 299.452 97.6624C304.317 90.7133 291.114 85.1541 286.249 80.9847C281.385 76.8153 262.623 69.8663 280.69 57.358Z" fill="#6CB56B"/>
<g filter="url(#filter0_d_308_47)">
<path d="M48.807 142.349L31.6382 99.4708L3.08873 135.779L48.807 142.349ZM114.401 84.9683C112.963 85.1011 109.497 84.8622 104.09 84.2946C98.8401 83.7436 92.3185 82.9523 84.9677 82.1299C70.3889 80.4988 52.8509 78.7804 37.7496 78.8927C30.2071 78.9488 23.1019 79.4609 17.1988 80.7325C11.4554 81.9697 6.08529 84.0801 2.88384 87.9407C-0.690431 92.2508 -0.799914 97.7044 1.83039 103.497C4.36898 109.089 9.63211 115.53 17.7905 123.034L23.2061 117.146C15.3024 109.876 10.9848 104.309 9.11471 100.19C7.33633 96.2733 7.99018 94.3156 9.0419 93.0474C10.4664 91.3296 13.585 89.6945 18.8835 88.5531C24.0223 87.4462 30.5124 86.9467 37.8091 86.8925C52.3861 86.7841 69.5022 88.4495 84.0782 90.0803C91.3049 90.8888 97.986 91.6979 103.255 92.2509C108.366 92.7874 112.734 93.1562 115.137 92.9344L114.401 84.9683Z" fill="#714D22"/>
</g>
<g filter="url(#filter1_d_308_47)">
<path d="M133.505 240.141L179.525 244.07L159.918 202.251L133.505 240.141ZM324.71 228.071C304.349 210.291 275.608 204.559 246.706 205.16C217.72 205.762 187.93 212.738 164.742 221.096L167.455 228.622C190.028 220.486 218.948 213.738 246.872 213.158C274.878 212.576 301.247 218.204 319.448 234.097L324.71 228.071Z" fill="#714D22"/>
</g>
<g filter="url(#filter2_d_308_47)">
<path d="M332.068 190.956L377.968 196.105L359.478 153.78L332.068 190.956ZM118.359 90.714C138.112 50.4759 182.001 26.3559 233.042 15.4341C283.986 4.53302 341.181 6.99794 386.149 19.118C408.636 25.1789 427.842 33.5951 441.641 43.7729C455.459 53.9658 463.442 65.5945 464.545 78.0895C465.646 90.5495 460.006 105.034 443.994 121.189C427.98 137.347 401.951 154.781 363.33 172.935L366.733 180.175C405.773 161.824 432.735 143.914 449.676 126.821C466.619 109.726 473.898 93.054 472.514 77.3857C471.134 61.7523 461.229 48.2806 446.389 37.3349C431.53 26.3742 411.308 17.6136 388.231 11.3936C342.069 -1.04834 283.586 -3.56249 231.368 7.61124C179.247 18.7643 132.49 43.7731 111.178 87.1887L118.359 90.714Z" fill="#714D22"/>
</g>
<g filter="url(#filter3_d_308_47)">
<path d="M335.711 105.337L341.135 151.205L298.7 132.968L335.711 105.337ZM118.317 87.1038C150.545 148.989 191.64 173.106 228.688 176.066C265.97 179.046 300.001 160.705 318.28 136.037L324.707 140.8C304.892 167.541 268.259 187.254 228.051 184.041C187.609 180.81 144.389 154.489 111.221 90.7989L118.317 87.1038Z" fill="#714D22"/>
</g>
<circle cx="119.202" cy="92.1692" r="14.5" fill="white" stroke="#714D22" stroke-width="6"/>
<g filter="url(#filter4_d_308_47)">
<path d="M169.938 99.8717L214.359 112.525L203.107 67.7287L169.938 99.8717ZM321.258 236.012C360.501 244.466 400.675 232.814 431.763 212.55C462.723 192.37 485.541 163.053 489.045 135.248C490.818 121.183 487.623 107.509 478.031 95.9434C468.509 84.4605 452.987 75.4166 430.748 69.8438C386.363 58.7218 313.893 61.087 203.931 87.2092L205.78 94.9925C315.375 68.9574 386.316 66.9574 428.803 77.6039C449.999 82.9153 463.779 91.2892 471.873 101.05C479.899 110.728 482.636 122.125 481.108 134.248C478.011 158.821 457.296 186.357 427.395 205.848C397.622 225.254 359.608 236.09 322.943 228.191L321.258 236.012Z" fill="#714D22"/>
</g>
<g filter="url(#filter5_d_308_47)">
<path d="M70.0091 216.949L23.8478 215.379L45.5686 256.141L70.0091 216.949ZM317.8 224.128C214.568 345.695 128.665 361.951 77.8347 342.153C52.281 332.2 35.1752 313.073 28.4513 292.856C21.7396 272.675 25.3592 251.561 40.9915 236.783L35.4958 230.969C17.2458 248.222 13.3328 272.748 20.8601 295.381C28.3752 317.977 47.2802 338.837 74.9312 349.607C130.51 371.255 219.792 351.901 323.897 229.306L317.8 224.128Z" fill="#714D22"/>
</g>
<circle cx="319.398" cy="236.538" r="14.5" transform="rotate(166.909 319.398 236.538)" fill="white" stroke="#714D22" stroke-width="6"/>
<defs>
<filter id="filter0_d_308_47" x="0.0098877" y="78.8875" width="115.127" height="70.4618" filterUnits="userSpaceOnUse" color-interpolation-filters="sRGB">
<feFlood flood-opacity="0" result="BackgroundImageFix"/>
<feColorMatrix in="SourceAlpha" type="matrix" values="0 0 0 0 0 0 0 0 0 0 0 0 0 0 0 0 0 0 127 0" result="hardAlpha"/>
<feOffset dy="7"/>
<feComposite in2="hardAlpha" operator="out"/>
<feColorMatrix type="matrix" values="0 0 0 0 1 0 0 0 0 1 0 0 0 0 1 0 0 0 1 0"/>
<feBlend mode="normal" in2="BackgroundImageFix" result="effect1_dropShadow_308_47"/>
<feBlend mode="normal" in="SourceGraphic" in2="effect1_dropShadow_308_47" result="shape"/>
</filter>
<filter id="filter1_d_308_47" x="133.505" y="202.251" width="191.205" height="48.8196" filterUnits="userSpaceOnUse" color-interpolation-filters="sRGB">
<feFlood flood-opacity="0" result="BackgroundImageFix"/>
<feColorMatrix in="SourceAlpha" type="matrix" values="0 0 0 0 0 0 0 0 0 0 0 0 0 0 0 0 0 0 127 0" result="hardAlpha"/>
<feOffset dy="7"/>
<feComposite in2="hardAlpha" operator="out"/>
<feColorMatrix type="matrix" values="0 0 0 0 1 0 0 0 0 1 0 0 0 0 1 0 0 0 1 0"/>
<feBlend mode="normal" in2="BackgroundImageFix" result="effect1_dropShadow_308_47"/>
<feBlend mode="normal" in="SourceGraphic" in2="effect1_dropShadow_308_47" result="shape"/>
</filter>
<filter id="filter2_d_308_47" x="111.178" y="0.490234" width="361.502" height="202.615" filterUnits="userSpaceOnUse" color-interpolation-filters="sRGB">
<feFlood flood-opacity="0" result="BackgroundImageFix"/>
<feColorMatrix in="SourceAlpha" type="matrix" values="0 0 0 0 0 0 0 0 0 0 0 0 0 0 0 0 0 0 127 0" result="hardAlpha"/>
<feOffset dy="7"/>
<feComposite in2="hardAlpha" operator="out"/>
<feColorMatrix type="matrix" values="0 0 0 0 1 0 0 0 0 1 0 0 0 0 1 0 0 0 1 0"/>
<feBlend mode="normal" in2="BackgroundImageFix" result="effect1_dropShadow_308_47"/>
<feBlend mode="normal" in="SourceGraphic" in2="effect1_dropShadow_308_47" result="shape"/>
</filter>
<filter id="filter3_d_308_47" x="111.221" y="87.1038" width="229.913" height="104.281" filterUnits="userSpaceOnUse" color-interpolation-filters="sRGB">
<feFlood flood-opacity="0" result="BackgroundImageFix"/>
<feColorMatrix in="SourceAlpha" type="matrix" values="0 0 0 0 0 0 0 0 0 0 0 0 0 0 0 0 0 0 127 0" result="hardAlpha"/>
<feOffset dy="7"/>
<feComposite in2="hardAlpha" operator="out"/>
<feColorMatrix type="matrix" values="0 0 0 0 1 0 0 0 0 1 0 0 0 0 1 0 0 0 1 0"/>
<feBlend mode="normal" in2="BackgroundImageFix" result="effect1_dropShadow_308_47"/>
<feBlend mode="normal" in="SourceGraphic" in2="effect1_dropShadow_308_47" result="shape"/>
</filter>
<filter id="filter4_d_308_47" x="169.938" y="63.5547" width="319.573" height="182.241" filterUnits="userSpaceOnUse" color-interpolation-filters="sRGB">
<feFlood flood-opacity="0" result="BackgroundImageFix"/>
<feColorMatrix in="SourceAlpha" type="matrix" values="0 0 0 0 0 0 0 0 0 0 0 0 0 0 0 0 0 0 127 0" result="hardAlpha"/>
<feOffset dy="7"/>
<feComposite in2="hardAlpha" operator="out"/>
<feColorMatrix type="matrix" values="0 0 0 0 1 0 0 0 0 1 0 0 0 0 1 0 0 0 1 0"/>
<feBlend mode="normal" in2="BackgroundImageFix" result="effect1_dropShadow_308_47"/>
<feBlend mode="normal" in="SourceGraphic" in2="effect1_dropShadow_308_47" result="shape"/>
</filter>
<filter id="filter5_d_308_47" x="17.2427" y="215.379" width="306.655" height="148.904" filterUnits="userSpaceOnUse" color-interpolation-filters="sRGB">
<feFlood flood-opacity="0" result="BackgroundImageFix"/>
<feColorMatrix in="SourceAlpha" type="matrix" values="0 0 0 0 0 0 0 0 0 0 0 0 0 0 0 0 0 0 127 0" result="hardAlpha"/>
<feOffset dy="7"/>
<feComposite in2="hardAlpha" operator="out"/>
<feColorMatrix type="matrix" values="0 0 0 0 1 0 0 0 0 1 0 0 0 0 1 0 0 0 1 0"/>
<feBlend mode="normal" in2="BackgroundImageFix" result="effect1_dropShadow_308_47"/>
<feBlend mode="normal" in="SourceGraphic" in2="effect1_dropShadow_308_47" result="shape"/>
</filter>
</defs>
</svg>
