<svg height="71" width="222" xmlns="http://www.w3.org/2000/svg"><text font-family="Bitstream Vera Sans" font-size="33.823814" transform="scale(.72017349 1.3885543)" x="71.839371" y="35.799847"><tspan x="71.839371" y="35.799847"><tspan font-family="Franklin Gothic Heavy" font-size="33.823814">WEB</tspan><tspan font-family="Franklin Gothic Medium" font-size="33.823814">PAGE</tspan><tspan font-family="Franklin Gothic Book" font-size="33.823814">TEST</tspan></tspan></text><path d="m8.0921361 39.351052a16.905291 17.164045 0 1 1 31.7715529 0" fill="none" stroke="#000" stroke-width="2" transform="matrix(1.1760195 0 0 1.2557668 -4.996439 -.679242)"/><path d="m26.910464 38.569443a3.1050534 3.1050534 0 1 1 -6.210107 0 3.1050534 3.1050534 0 1 1 6.210107 0z" transform="matrix(1.1388889 0 0 1.1388889 -3.220056 -4.580603)"/><g fill="none" stroke="#000"><path d="m23.977913 20.716863v6.379651" stroke-width="2.085887"/><path d="m36.915636 26.839239-4.398825 4.398826" stroke-width="2"/><path d="m10.048298 26.364856 4.398825 4.398826" stroke-width="2"/><path d="m41.83049 39.259453h-6.379651" stroke-width="2.085887"/><path d="m10.849992 39.604459h-6.3796512" stroke-width="2.085887"/><path d="m23.632907 39.604459 15.180262 6.727616" stroke-width="2"/></g></svg>