<svg height="71" width="222" xmlns="http://www.w3.org/2000/svg"><text font-family="Bitstream Vera Sans" font-size="33.823814" transform="scale(.72017349 1.3885543)" x="75.623222" y="29.535942"><tspan x="75.623222" y="29.535942"><tspan font-family="Franklin Gothic Heavy" font-size="33.823814">WEB</tspan><tspan font-family="Franklin Gothic Medium" font-size="33.823814">PAGE</tspan><tspan font-family="Franklin Gothic Book" font-size="33.823814">TEST</tspan></tspan></text><g stroke="#000"><path d="m8.0921361 39.351052a16.905291 17.164045 0 1 1 31.7715529 0" fill="none" stroke-width="2" transform="matrix(1.1760195 0 0 1.2557668 -2.271409 -9.377013)"/><path d="m26.910464 38.569443a3.1050534 3.1050534 0 1 1 -6.210107 0 3.1050534 3.1050534 0 1 1 6.210107 0z" transform="matrix(1.1388889 0 0 1.1388889 -.495026 -13.278374)"/><path d="m26.702943 12.019092v6.379651" fill="none" stroke-width="2.085887"/><path d="m39.640666 18.141468-4.398825 4.398826" fill="none" stroke-width="2"/><path d="m12.773328 17.667085 4.398825 4.398826" fill="none" stroke-width="2"/><path d="m44.55552 30.561682h-6.379651" fill="none" stroke-width="2.085887"/><path d="m13.575022 30.906688h-6.3796515" fill="none" stroke-width="2.085887"/><path d="m26.357937 30.906688 15.180262 6.727616" fill="none" stroke-width="2"/></g><text fill="#500" font-family="Franklin Gothic Book" font-size="22.259718" font-style="italic" transform="scale(.81212904 1.2313314)" x="46.632015" y="52.62035"><tspan x="46.632015" y="52.62035">PRIVATE INSTANCE</tspan></text></svg>