<svg height="71" width="222" xmlns="http://www.w3.org/2000/svg"><path d="m-.172503-.243728h222.52884v71.761238h-222.52884z" fill="#000040"/><text fill="#fff" font-family="Bitstream Vera Sans" font-size="33.823814" transform="scale(.72017349 1.3885543)" x="75.192787" y="25.24012"><tspan x="75.192787" y="25.24012"><tspan fill="#fff" font-family="Franklin Gothic Heavy" font-size="33.823814">WEB</tspan><tspan fill="#fff" font-family="Franklin Gothic Medium" font-size="33.823814">PAGE</tspan><tspan fill="#fff" font-family="Franklin Gothic Book" font-size="33.823814">TEST</tspan></tspan></text><text font-family="Bitstream Vera Sans" font-size="25.844051" transform="scale(.87456659 1.1434235)" x="100.28295" y="54.973171"><tspan fill="#fff" font-family="Franklin Gothic Book" x="100.28295" y="54.973171">MONITOR</tspan></text><g transform="translate(-.517509 -.172503)"><path d="m8.0921361 39.351052c-3.1932828-8.907761 1.3303546-18.757217 10.1038269-21.999376 8.773472-3.24216 18.474444 1.350717 21.667727 10.258477 1.359352 3.791953 1.359351 7.948946-.000001 11.740899" fill="none" stroke="#fff" stroke-width="2" transform="matrix(1.1760195 0 0 1.2557668 -2.581397 -15.341995)"/><path d="m26.910464 38.569443c0 1.714873-1.39018 3.105053-3.105054 3.105053-1.714873 0-3.105053-1.39018-3.105053-3.105053 0-1.714874 1.39018-3.105054 3.105053-3.105054 1.714874 0 3.105054 1.39018 3.105054 3.105054z" fill="#fff" transform="matrix(1.1388889 0 0 1.1388889 -.805014 -19.243356)"/><g fill="none" stroke="#fff"><path d="m26.392955 6.0541102v6.3796508" stroke-width="2.085887"/><path d="m39.330678 12.176486-4.398825 4.398826" stroke-width="2"/><path d="m12.46334 11.702103 4.398825 4.398826" stroke-width="2"/><path d="m44.245532 24.5967h-6.379651" stroke-width="2.085887"/><path d="m13.265034 24.941706h-6.3796516" stroke-width="2.085887"/><path d="m26.047949 24.941706 15.180262 6.727616" stroke-width="2"/></g></g></svg>