<svg height="71" width="222" xmlns="http://www.w3.org/2000/svg"><path d="m-.172503-.243728h222.52884v71.761238h-222.52884z" fill="#000040"/><g transform="translate(2.72503 -8.697771)"><text fill="#fff" font-family="Bitstream Vera Sans" font-size="33.823814" transform="scale(.72017349 1.3885543)" x="71.839371" y="35.799847"><tspan x="71.839371" y="35.799847"><tspan fill="#fff" font-family="Franklin Gothic Heavy" font-size="33.823814">WEB</tspan><tspan fill="#fff" font-family="Franklin Gothic Medium" font-size="33.823814">PAGE</tspan><tspan fill="#fff" font-family="Franklin Gothic Book" font-size="33.823814">TEST</tspan></tspan></text><path d="m8.0921361 39.351052c-3.1932828-8.907761 1.3303546-18.757217 10.1038269-21.999376 8.773472-3.24216 18.474444 1.350717 21.667727 10.258477 1.359352 3.791953 1.359351 7.948946-.000001 11.740899" fill="none" stroke="#fff" stroke-width="2" transform="matrix(1.1760195 0 0 1.2557668 -4.996439 -.679242)"/><path d="m26.910464 38.569443c0 1.714873-1.39018 3.105053-3.105054 3.105053-1.714873 0-3.105053-1.39018-3.105053-3.105053 0-1.714874 1.39018-3.105054 3.105053-3.105054 1.714874 0 3.105054 1.39018 3.105054 3.105054z" fill="#fff" transform="matrix(1.1388889 0 0 1.1388889 -3.220056 -4.580603)"/><g fill="none" stroke="#fff"><path d="m23.977913 20.716863v6.379651" stroke-width="2.085887"/><path d="m36.915636 26.839239-4.398825 4.398826" stroke-width="2"/><path d="m10.048298 26.364856 4.398825 4.398826" stroke-width="2"/><path d="m41.83049 39.259453h-6.379651" stroke-width="2.085887"/><path d="m10.849992 39.604459h-6.3796512" stroke-width="2.085887"/><path d="m23.632907 39.604459 15.180262 6.727616" stroke-width="2"/></g></g><text fill="#f60" font-family="Franklin Gothic Book" font-size="22.259718" font-style="italic" transform="scale(.81212904 1.2313314)" x="46.632015" y="52.62035"><tspan x="46.632015" y="52.62035">PRIVATE INSTANCE</tspan></text></svg>