<svg fill="none" height="32" viewBox="0 0 31 32" width="31" xmlns="http://www.w3.org/2000/svg"><path clip-rule="evenodd" d="m29.5229 1.72243c.5515.5652.9324 1.47394.6586 2.44364l-.1667.59028c-2.5431 9.00605-5.9114 17.64285-10.065 25.80505-.5486 1.078-1.675 1.3319-2.5395 1.1067-.8458-.2203-1.6209-.9116-1.8424-1.9316l-2.0512-9.4427c-.2267-1.0437-1.0877-1.9067-2.0583-2.1259l-9.18617-2.0745c-1.03538-.2338-1.694252-1.0477-1.901036-1.8748-.207688-.8308.000327-1.966 1.062396-2.5433 7.92163-4.30615 16.30861-7.80627 25.05861-10.45852l.5731-.17372c.9917-.300595 1.9076.11567 2.4576.67937zm-1.8479 1.83049-.4347.13177c-8.3916 2.5436-16.439 5.88086-24.04988 9.97241l8.83598 1.9954c1.9809.4473 3.5779 2.1035 4.0103 4.0938l1.9508 8.9806c3.9217-7.8129 7.1161-16.068 9.5456-24.67135z" fill="#ffc830" fill-rule="evenodd"/></svg>