<svg xmlns="http://www.w3.org/2000/svg" viewBox="0 0 308.09 84.32"><defs><style>.cls-1{fill:#151741;}.cls-2{fill:#fff;}.cls-3{fill:none;}</style></defs><title>webpagetest</title><g id="Blue_background" data-name="Blue background"><rect class="cls-1" width="308.09" height="84.32"/></g><g id="Letters_symbol" data-name="Letters/symbol"><polygon class="cls-2" points="81.48 22.1 87.41 62.63 92.97 62.63 96.28 42.16 99.18 62.63 104.34 62.63 109.86 22.1 104.21 22.1 101.78 44.25 98.51 22.1 93.85 22.1 90.6 44.19 87.77 22.1 81.48 22.1"/><polygon class="cls-2" points="112.16 62.63 112.16 22.1 127.83 22.1 127.83 30.88 118.78 30.74 118.78 36.96 125.94 36.96 125.94 45.47 118.64 45.47 118.64 53.31 127.83 53.31 127.83 62.63 112.16 62.63"/><path class="cls-2" d="M147.66,32.3c0-8.33-5.88-10.2-5.88-10.2H130.94V62.63h10.69c3.84,0,7.29-4.3,7.29-11.16,0-8-4.59-10.06-4.59-10.06S147.66,40.63,147.66,32.3Zm-5.57,17.82c0,4.63-5.34,3.93-5.34,3.93V46.18S142.09,45.49,142.09,50.11Zm0-16.08c0,4.34-5.34,3.7-5.34,3.7v-7.5S142.09,29.7,142.09,34Z"/><path class="cls-2" d="M160.51,22.1h-8.89V62.63h3.24V45.83l5.55,0a4.69,4.69,0,0,0,3.41-1.47c1.51-1.61,3.4-4.76,3.4-10.43s-1.89-8.82-3.4-10.39A4.58,4.58,0,0,0,160.51,22.1ZM163.71,34c0,6.45-3.73,6.9-3.73,6.9h-5.15l0-13.12h4S163.71,27.54,163.71,34Z"/><path class="cls-2" d="M180.19,21.79h-4.8L168,62.94h4.26l2-10.07h7.16l2,10.07h4.24Zm-5,25.08,2.43-16,2.38,16Z"/><polygon class="cls-2" points="210.8 62.63 210.8 22.1 223.84 22.1 223.84 27.43 214.79 27.43 214.79 38.58 221.88 38.58 221.88 44.66 214.38 44.66 214.38 56.42 223.84 56.42 223.84 62.63 210.8 62.63"/><polygon class="cls-2" points="226.27 22.1 226.27 26.21 231.88 26.21 231.95 62.63 234.45 62.63 234.45 26.21 240.12 26.21 240.12 22.1 226.27 22.1"/><polygon class="cls-2" points="277.62 22.1 277.62 26.21 283.23 26.21 283.3 62.63 285.8 62.63 285.8 26.21 291.47 26.21 291.47 22.1 277.62 22.1"/><polygon class="cls-2" points="257.01 26.01 257.01 22.1 243.84 22.1 243.84 62.63 257.01 62.63 257.01 58.27 246.61 58.27 246.61 43.75 254.62 43.75 254.62 38.95 246.57 38.95 246.57 26.01 257.01 26.01"/><path class="cls-2" d="M275,50.83a17.75,17.75,0,0,0-.62-3.65,13,13,0,0,0-1.56-3.66,11.59,11.59,0,0,0-2.72-2.92c-2.06-1.55-4.1-2.27-5.52-3.35a4.9,4.9,0,0,1-1.59-2.11,8.16,8.16,0,0,1-.45-2.8,13,13,0,0,1,.26-2.93,8.13,8.13,0,0,1,.86-2.48,4.35,4.35,0,0,1,3.17-2.4h.12a1.9,1.9,0,0,1,.26,0l.15,0,.22,0a5.1,5.1,0,0,1,.88.32,5.2,5.2,0,0,1,1.46,1,6.27,6.27,0,0,1,1.59,2.51,9.52,9.52,0,0,1,.46,2l.09.75h2l0-.89a7.82,7.82,0,0,0-.06-1.08,9.42,9.42,0,0,0-.25-1.48,8.5,8.5,0,0,0-2-3.68,8,8,0,0,0-3.47-2.16l-.38-.1-.47-.09a3.53,3.53,0,0,0-.37,0h-.52a6.74,6.74,0,0,0-5.33,4,11.33,11.33,0,0,0-1,3.25,14.32,14.32,0,0,0-.2,1.71c-.07.61-.05,1.1-.07,1.64a13.79,13.79,0,0,0,.36,3.66A10.25,10.25,0,0,0,262,39.61a13,13,0,0,0,2.8,2.71c1,.73,1.93,1.29,2.78,1.84a17,17,0,0,1,2.33,1.68,7,7,0,0,1,1.67,2.3,10,10,0,0,1,.71,2.9,15.08,15.08,0,0,1,.1,1.57c0,.46,0,1-.06,1.45a6.56,6.56,0,0,1-2.16,4.49,5.67,5.67,0,0,1-2,1,5.32,5.32,0,0,1-.53.13l-.41.06-.47,0h-.24l-.22-.07a5.08,5.08,0,0,1-2.83-2.27,14,14,0,0,1-1.5-3,21.62,21.62,0,0,1-.69-2.1l-.15-.55,0-.2-1.87.29,0,.22.08.65a23.63,23.63,0,0,0,.51,2.39,16,16,0,0,0,1.49,3.6c.19.34.44.67.68,1a13.09,13.09,0,0,0,.9,1,6.87,6.87,0,0,0,1.17.9c.22.13.45.27.69.39l.77.27.4.13.41.06.85.1a5.39,5.39,0,0,0,.93-.09,8.14,8.14,0,0,0,.81-.19,8,8,0,0,0,3-1.59,8.22,8.22,0,0,0,2.13-2.92,11.24,11.24,0,0,0,.88-3.49c0-.6.07-1.17.06-1.79S275,51.47,275,50.83Z"/><path class="cls-2" d="M44.52,22.29c-14.86,0-27,13.87-27,30.92a35.25,35.25,0,0,0,1.06,8.6L21,61.22a32.81,32.81,0,0,1-1-8c0-.71,0-1.41.07-2.11h8.08v-3H20.41a30.36,30.36,0,0,1,6.1-14.18L32,39.41l2.11-2.11-5.61-5.61A22.74,22.74,0,0,1,43,24.78V33h3V24.78a22.74,22.74,0,0,1,14.54,6.9l-5.61,5.61,2.11,2.11,5.49-5.49a30.36,30.36,0,0,1,6.1,14.18H60.89v3H69c0,.7.07,1.4.07,2.11a32.81,32.81,0,0,1-1,8l2.36.59a35.26,35.26,0,0,0,1-8.57C71.47,36.16,59.38,22.29,44.52,22.29Z"/><path class="cls-2" d="M48.51,49.6a4,4,0,1,0-1.28,2.91l15.94,7.82,1.25-2.55L48.47,50C48.48,49.84,48.51,49.72,48.51,49.6Z"/><path class="cls-3" d="M154.86,24.39"/><path class="cls-3" d="M154.86,45.83"/><path class="cls-2" d="M198.5,42.25v5.41h3.78l.51,3.3-.45,1.23c-.15.46-.37.88-.55,1.32s-.4.85-.61,1.26-.45.78-.67,1.17a5.82,5.82,0,0,1-.36.52,4.28,4.28,0,0,1-.37.48,5.28,5.28,0,0,1-.77.75,3,3,0,0,1-.35.22l-.15.05h0l.18,0-.26,0-.06,0c-.07,0-.12,0-.11,0l0,0-.45-.05h0s0,0-.05,0a.7.7,0,0,1-.22,0,1.76,1.76,0,0,1-.62-.24,4.84,4.84,0,0,1-1.33-1.3,13.55,13.55,0,0,1-1.83-4.24,30.11,30.11,0,0,1-.85-4.91c-.08-.84-.13-1.69-.15-2.52s0-1.74,0-2.56,0-1.7.11-2.54.11-1.69.23-2.52a27.05,27.05,0,0,1,1-4.83A14.26,14.26,0,0,1,195,30.1a9.18,9.18,0,0,1,1.16-1.79,3.9,3.9,0,0,1,1.34-1,1.63,1.63,0,0,1,.58-.13.59.59,0,0,1,.21,0l0,0s0,0,0,0h.3a.18.18,0,0,0-.07,0s0,0,0,0,.06,0,.13,0a.8.8,0,0,1,.27.09l0,0h0a2.48,2.48,0,0,1,.31.18,3,3,0,0,1,.38.32,3.44,3.44,0,0,1,.38.41,3.1,3.1,0,0,1,.37.47c.12.17.25.34.36.52.21.39.46.75.65,1.17s.42.83.58,1.26.36.82.51,1.33l.48,1.45,2.9-.59-.12-1.52c0-.49-.14-1.08-.22-1.62s-.21-1.09-.32-1.64-.3-1.1-.46-1.65c-.09-.28-.21-.56-.32-.84a6.33,6.33,0,0,0-.38-.85,7.77,7.77,0,0,0-.47-.85,8.1,8.1,0,0,0-.59-.85,6.88,6.88,0,0,0-.76-.83,6.34,6.34,0,0,0-1-.77,5.94,5.94,0,0,0-1.28-.61,5.37,5.37,0,0,0-.78-.2l-.36,0h-.57l-.25,0h0a6.06,6.06,0,0,0-.6.11,6.43,6.43,0,0,0-1.06.36,7.35,7.35,0,0,0-1.74,1,9.44,9.44,0,0,0-2.27,2.69,18.27,18.27,0,0,0-2,5.62c-.18.93-.32,1.84-.43,2.76s-.19,1.82-.24,2.72-.11,1.8-.12,2.7,0,1.79,0,2.68,0,1.74,0,2.66.09,1.79.14,2.69.13,1.8.24,2.7.24,1.81.41,2.72a25.7,25.7,0,0,0,.66,2.75,15.23,15.23,0,0,0,1.1,2.78,9.8,9.8,0,0,0,2,2.71,6.68,6.68,0,0,0,1.59,1.14,6,6,0,0,0,1,.42,5.29,5.29,0,0,0,.59.14l.18,0a4,4,0,0,0,.76.06,4.73,4.73,0,0,0,.79-.09,5,5,0,0,0,1.33-.46,5.68,5.68,0,0,0,1-.66,8,8,0,0,0,.81-.75,10,10,0,0,0,1.17-1.57,7.68,7.68,0,0,0,.44-.79l.13-.25.67,4.38h2.06V42.25Z"/><path class="cls-2" d="M197.65,57.87h0l.2,0h0S197.87,57.86,197.65,57.87Z"/><path class="cls-2" d="M198.13,27.23c.19,0,.17,0,.18,0h-.18Z"/><path class="cls-2" d="M198.51,57.94h-.21l.14,0Z"/><path class="cls-2" d="M198.62,27.22a1,1,0,0,0,.34,0h-.34Z"/></g></svg>