<svg viewBox="0 0 308.09 84.32" xmlns="http://www.w3.org/2000/svg"><path d="m0 0h308.09v84.32h-308.09z" fill="#151741"/><g fill="#fff"><path d="m81.48 22.1 5.93 40.53h5.56l3.31-20.47 2.9 20.47h5.16l5.52-40.53h-5.65l-2.43 22.15-3.27-22.15h-4.66l-3.25 22.09-2.83-22.09z"/><path d="m112.16 62.63v-40.53h15.67v8.78l-9.05-.14v6.22h7.16v8.51h-7.3v7.84h9.19v9.32z"/><path d="m147.66 32.3c0-8.33-5.88-10.2-5.88-10.2h-10.84v40.53h10.69c3.84 0 7.29-4.3 7.29-11.16 0-8-4.59-10.06-4.59-10.06s3.33-.78 3.33-9.11zm-5.57 17.82c0 4.63-5.34 3.93-5.34 3.93v-7.87s5.34-.69 5.34 3.93zm0-16.08c0 4.34-5.34 3.7-5.34 3.7v-7.5s5.34-.54 5.34 3.76z"/><path d="m160.51 22.1h-8.89v40.53h3.24v-16.8h5.55a4.69 4.69 0 0 0 3.41-1.47c1.51-1.61 3.4-4.76 3.4-10.43s-1.89-8.82-3.4-10.39a4.58 4.58 0 0 0 -3.31-1.44zm3.2 11.9c0 6.45-3.73 6.9-3.73 6.9h-5.15v-13.12h4s4.88-.24 4.88 6.22z"/><path d="m180.19 21.79h-4.8l-7.39 41.15h4.26l2-10.07h7.16l2 10.07h4.24zm-5 25.08 2.43-16 2.38 16z"/><path d="m210.8 62.63v-40.53h13.04v5.33h-9.05v11.15h7.09v6.08h-7.5v11.76h9.46v6.21z"/><path d="m226.27 22.1v4.11h5.61l.07 36.42h2.5v-36.42h5.67v-4.11z"/><path d="m277.62 22.1v4.11h5.61l.07 36.42h2.5v-36.42h5.67v-4.11z"/><path d="m257.01 26.01v-3.91h-13.17v40.53h13.17v-4.36h-10.4v-14.52h8.01v-4.8h-8.05v-12.94z"/><path d="m275 50.83a17.75 17.75 0 0 0 -.62-3.65 13 13 0 0 0 -1.56-3.66 11.59 11.59 0 0 0 -2.72-2.92c-2.06-1.55-4.1-2.27-5.52-3.35a4.9 4.9 0 0 1 -1.59-2.11 8.16 8.16 0 0 1 -.45-2.8 13 13 0 0 1 .26-2.93 8.13 8.13 0 0 1 .86-2.48 4.35 4.35 0 0 1 3.17-2.4h.12a1.9 1.9 0 0 1 .26 0h.15.22a5.1 5.1 0 0 1 .88.32 5.2 5.2 0 0 1 1.46 1 6.27 6.27 0 0 1 1.59 2.51 9.52 9.52 0 0 1 .46 2l.09.75h2v-.89a7.82 7.82 0 0 0 -.06-1.08 9.42 9.42 0 0 0 -.25-1.48 8.5 8.5 0 0 0 -2-3.68 8 8 0 0 0 -3.47-2.16l-.38-.1-.47-.09a3.53 3.53 0 0 0 -.37 0h-.52a6.74 6.74 0 0 0 -5.33 4 11.33 11.33 0 0 0 -1 3.25 14.32 14.32 0 0 0 -.2 1.71c-.07.61-.05 1.1-.07 1.64a13.79 13.79 0 0 0 .36 3.66 10.25 10.25 0 0 0 1.7 3.72 13 13 0 0 0 2.8 2.71c1 .73 1.93 1.29 2.78 1.84a17 17 0 0 1 2.33 1.68 7 7 0 0 1 1.67 2.3 10 10 0 0 1 .71 2.9 15.08 15.08 0 0 1 .1 1.57c0 .46 0 1-.06 1.45a6.56 6.56 0 0 1 -2.16 4.49 5.67 5.67 0 0 1 -2 1 5.32 5.32 0 0 1 -.53.13l-.41.06h-.47-.24l-.22-.07a5.08 5.08 0 0 1 -2.83-2.27 14 14 0 0 1 -1.5-3 21.62 21.62 0 0 1 -.69-2.1l-.15-.55v-.2l-1.87.29v.22l.08.65a23.63 23.63 0 0 0 .51 2.39 16 16 0 0 0 1.49 3.6c.19.34.44.67.68 1a13.09 13.09 0 0 0 .9 1 6.87 6.87 0 0 0 1.17.9c.22.13.45.27.69.39l.77.27.4.13.41.06.85.1a5.39 5.39 0 0 0 .93-.09 8.14 8.14 0 0 0 .81-.19 8 8 0 0 0 3-1.59 8.22 8.22 0 0 0 2.13-2.92 11.24 11.24 0 0 0 .88-3.49c0-.6.07-1.17.06-1.79s-.02-1.01-.02-1.65z"/><path d="m44.52 22.29c-14.86 0-27 13.87-27 30.92a35.25 35.25 0 0 0 1.06 8.6l2.42-.59a32.81 32.81 0 0 1 -1-8c0-.71 0-1.41.07-2.11h8.08v-3h-7.74a30.36 30.36 0 0 1 6.1-14.18l5.49 5.48 2.11-2.11-5.61-5.61a22.74 22.74 0 0 1 14.5-6.91v8.22h3v-8.22a22.74 22.74 0 0 1 14.54 6.9l-5.61 5.61 2.11 2.11 5.49-5.49a30.36 30.36 0 0 1 6.1 14.18h-7.74v3h8.11c0 .7.07 1.4.07 2.11a32.81 32.81 0 0 1 -1 8l2.36.59a35.26 35.26 0 0 0 1-8.57c.04-17.06-12.05-30.93-26.91-30.93z"/><path d="m48.51 49.6a4 4 0 1 0 -1.28 2.91l15.94 7.82 1.25-2.55-15.95-7.78c.01-.16.04-.28.04-.4z"/><path d="m198.5 42.25v5.41h3.78l.51 3.3-.45 1.23c-.15.46-.37.88-.55 1.32s-.4.85-.61 1.26-.45.78-.67 1.17a5.82 5.82 0 0 1 -.36.52 4.28 4.28 0 0 1 -.37.48 5.28 5.28 0 0 1 -.77.75 3 3 0 0 1 -.35.22l-.15.05h.18-.26-.06c-.07 0-.12 0-.11 0l-.45-.05s0 0-.05 0a.7.7 0 0 1 -.22 0 1.76 1.76 0 0 1 -.62-.24 4.84 4.84 0 0 1 -1.33-1.3 13.55 13.55 0 0 1 -1.83-4.24 30.11 30.11 0 0 1 -.85-4.91c-.08-.84-.13-1.69-.15-2.52s0-1.74 0-2.56 0-1.7.11-2.54.11-1.69.23-2.52a27.05 27.05 0 0 1 1-4.83 14.26 14.26 0 0 1 .9-2.15 9.18 9.18 0 0 1 1.16-1.79 3.9 3.9 0 0 1 1.34-1 1.63 1.63 0 0 1 .58-.13.59.59 0 0 1 .21 0s0 0 0 0h.3a.18.18 0 0 0 -.07 0s0 0 0 0 .06 0 .13 0a.8.8 0 0 1 .27.09 2.48 2.48 0 0 1 .31.18 3 3 0 0 1 .38.32 3.44 3.44 0 0 1 .38.41 3.1 3.1 0 0 1 .37.47c.12.17.25.34.36.52.21.39.46.75.65 1.17s.42.83.58 1.26.36.82.51 1.33l.48 1.45 2.9-.59-.12-1.52c0-.49-.14-1.08-.22-1.62s-.21-1.09-.32-1.64-.3-1.1-.46-1.65c-.09-.28-.21-.56-.32-.84a6.33 6.33 0 0 0 -.38-.85 7.77 7.77 0 0 0 -.47-.85 8.1 8.1 0 0 0 -.59-.85 6.88 6.88 0 0 0 -.76-.83 6.34 6.34 0 0 0 -1-.77 5.94 5.94 0 0 0 -1.28-.61 5.37 5.37 0 0 0 -.78-.2h-.36-.57-.25a6.06 6.06 0 0 0 -.6.11 6.43 6.43 0 0 0 -1.06.36 7.35 7.35 0 0 0 -1.74 1 9.44 9.44 0 0 0 -2.27 2.69 18.27 18.27 0 0 0 -2 5.62c-.18.93-.32 1.84-.43 2.76s-.19 1.82-.24 2.72-.11 1.8-.12 2.7 0 1.79 0 2.68 0 1.74 0 2.66.09 1.79.14 2.69.13 1.8.24 2.7.24 1.81.41 2.72a25.7 25.7 0 0 0 .66 2.75 15.23 15.23 0 0 0 1.1 2.78 9.8 9.8 0 0 0 2 2.71 6.68 6.68 0 0 0 1.59 1.14 6 6 0 0 0 1 .42 5.29 5.29 0 0 0 .59.14h.18a4 4 0 0 0 .76.06 4.73 4.73 0 0 0 .79-.09 5 5 0 0 0 1.33-.46 5.68 5.68 0 0 0 1-.66 8 8 0 0 0 .81-.75 10 10 0 0 0 1.17-1.57 7.68 7.68 0 0 0 .44-.79l.13-.25.67 4.38h2.06v-20.53z"/><path d="m197.65 57.87h.2s.02-.01-.2 0z"/><path d="m198.13 27.23h.18z"/><path d="m198.51 57.94h-.21.14z"/><path d="m198.62 27.22a1 1 0 0 0 .34 0z"/></g></svg>