<svg data-name="Layer 1" xmlns="http://www.w3.org/2000/svg" viewBox="0 0 53.9 39.52">
  <title>
    webpagetest_icon_black
  </title>
  <path d="M26.95 0c-14.86 0-27 13.87-27 30.92a35.25 35.25 0 0 0 1.06 8.6l2.36-.59a32.81 32.81 0 0 1-1-8c0-.71 0-1.41.07-2.11h8.08v-3H2.83a30.36 30.36 0 0 1 6.1-14.18l5.49 5.49 2.11-2.11-5.61-5.63a22.74 22.74 0 0 1 14.54-6.9v8.22h3V2.49A22.74 22.74 0 0 1 43 9.39L37.39 15l2.11 2.11 5.49-5.49a30.36 30.36 0 0 1 6.1 14.18h-7.78v3h8.08c0 .7.07 1.4.07 2.11a32.81 32.81 0 0 1-1 8l2.36.59a35.26 35.26 0 0 0 1-8.57C53.9 13.87 41.81 0 26.95 0z"/>
  <path d="M30.93 27.31a4 4 0 1 0-1.28 2.91l15.94 7.82 1.25-2.55-15.95-7.78c.02-.16.04-.28.04-.4z"/>
</svg>
