<svg xmlns="http://www.w3.org/2000/svg" viewBox="0 0 96.95 84.32"><defs><style>.cls-1{fill:#151640;}.cls-2{fill:#fff;}</style></defs><title>webpagetest_icon</title><g id="Layer_2" data-name="Layer 2"><rect class="cls-1" width="96.95" height="84.32"/></g><g id="Layer_1" data-name="Layer 1"><path class="cls-2" d="M52.21,49.6a4,4,0,1,0-1.28,2.91l15.94,7.82,1.25-2.55L52.17,50C52.19,49.84,52.21,49.72,52.21,49.6Z"/><path class="cls-2" d="M48.23,22.29c-14.86,0-27,13.87-27,30.92a35.25,35.25,0,0,0,1.06,8.6l2.36-.59a32.81,32.81,0,0,1-1-8c0-.71,0-1.41.07-2.11h8.08v-3H24.11a30.36,30.36,0,0,1,6.1-14.18l5.49,5.49,2.11-2.11L32.2,31.68a22.74,22.74,0,0,1,14.54-6.9V33h3V24.78a22.74,22.74,0,0,1,14.54,6.9l-5.61,5.61,2.11,2.11,5.49-5.49a30.36,30.36,0,0,1,6.1,14.18H64.59v3h8.08c0,.7.07,1.4.07,2.11a32.81,32.81,0,0,1-1,8l2.36.59a35.26,35.26,0,0,0,1-8.57C75.18,36.16,63.09,22.29,48.23,22.29Z"/></g></svg>