<?xml version="1.0" encoding="UTF-8"?>
<svg width="752pt" height="752pt" version="1.1" viewBox="0 0 752 752" xmlns="http://www.w3.org/2000/svg">
 <path fill="#4E8F37" d="m185.53 565.15h302.1l-19.512-45.984h-278.18v-233.9h337.62v142.07l45.984 19.512v-230.16c-0.011719-11.023-4.3984-21.59-12.191-29.387-7.7969-7.7969-18.363-12.18-29.387-12.191h-346.43c-11.023 0.011719-21.594 4.3945-29.387 12.191-7.7969 7.7969-12.18 18.363-12.195 29.387v306.88c0.015626 11.023 4.3984 21.59 12.195 29.387 7.793 7.7969 18.363 12.18 29.387 12.191zm123.75-348.79c4.5977 0.003906 9.0117 1.8242 12.266 5.0703 3.2578 3.2461 5.0977 7.6523 5.1133 12.25 0.015625 4.5977-1.7891 9.0156-5.0234 12.285-3.2344 3.2695-7.6328 5.125-12.23 5.1562-4.5977 0.035156-9.0234-1.7578-12.305-4.9805-3.2812-3.2188-5.1484-7.6094-5.1992-12.211-0.050781-4.6406 1.7578-9.1094 5.0234-12.41 3.2617-3.3008 7.7148-5.1602 12.355-5.1602zm-51.621 0c4.6016 0.003906 9.0117 1.8242 12.27 5.0703 3.2578 3.2461 5.0938 7.6523 5.1094 12.25 0.019531 4.5977-1.7891 9.0156-5.0234 12.285-3.2344 3.2695-7.6328 5.125-12.23 5.1562-4.5977 0.035156-9.0234-1.7578-12.301-4.9805-3.2812-3.2188-5.1523-7.6094-5.2031-12.211-0.050782-4.6328 1.75-9.0938 5.0078-12.395 3.2539-3.3008 7.6914-5.1602 12.324-5.1758zm-51.621 0h0.003906c4.5977 0.003906 9.0078 1.8242 12.266 5.0703 3.2578 3.2461 5.0938 7.6523 5.1133 12.25 0.015626 4.5977-1.793 9.0156-5.0273 12.285-3.2305 3.2695-7.6289 5.125-12.23 5.1562-4.5977 0.035156-9.0195-1.7578-12.301-4.9805-3.2812-3.2188-5.1523-7.6094-5.2031-12.211-0.050782-4.6406 1.7578-9.1094 5.0234-12.41s7.7148-5.1602 12.359-5.1602zm396.91 330.84c4.3984 4.4023 6.1172 10.812 4.5078 16.82-1.6094 6.0117-6.3047 10.703-12.312 12.316-6.0117 1.6094-12.422-0.10938-16.82-4.5078l-21.977-22.023-13.117 13.117c-3.543 3.5742-8.6328 5.1445-13.574 4.1953-4.9414-0.94922-9.0859-4.2969-11.051-8.9297l-37.32-88.039c-2.0039-4.6484-1.5195-9.9922 1.2812-14.207 1.9531-3.0586 4.9375-5.3125 8.4141-6.3555 3.4766-1.043 7.2109-0.80469 10.527 0.67187l87.613 37.223c4.6289 1.9688 7.9766 6.1133 8.9297 11.055 0.94922 4.9375-0.625 10.027-4.1953 13.574l-12.879 13.07zm-207.52-216.05c2.2344 3.9492 2.7305 8.6484 1.375 12.977l-38.125 132.04c-1.2344 4.1797-4.0352 7.7266-7.8125 9.8984-3.8984 2.2305-8.5469 2.7461-12.836 1.418l-6.2969-1.7539v0.003907c-4.1758-1.2266-7.707-4.0312-9.8516-7.8125-2.2383-3.9492-2.7383-8.6484-1.375-12.977l38.125-132.04c1.2578-4.1992 4.0938-7.7461 7.9102-9.8984 3.8828-2.2148 8.5078-2.7266 12.785-1.4219l6.4414 1.8008c4.0977 1.2539 7.5547 4.0352 9.6602 7.7656zm-90.453 42.574-31.02 30.691 31.02 30.969c3.1797 3.1211 4.9727 7.3867 4.9727 11.84 0 4.457-1.793 8.7227-4.9727 11.84l-5.3047 5.0195c-3.1172 3.1836-7.3867 4.9766-11.84 4.9766-4.4531 0-8.7227-1.793-11.84-4.9766l-47.641-47.734c-3.1836-3.1172-4.9766-7.3867-4.9766-11.84 0-4.457 1.793-8.7227 4.9766-11.84l47.734-47.645c3.168-3.0859 7.418-4.8164 11.84-4.8164 4.4258 0 8.6758 1.7305 11.84 4.8164l5.2109 5.1172c3.1797 3.1172 4.9727 7.3828 4.9727 11.84 0 4.4531-1.793 8.7227-4.9727 11.84zm188.96 30.691c0.050781 4.4023-1.6523 8.6445-4.7344 11.789l-47.973 47.879c-3.1133 3.1953-7.3828 4.9961-11.84 4.9961-4.4609 0-8.7305-1.8008-11.84-4.9961l-5.1133-5.1133h-0.003906c-3.1797-3.1172-4.9727-7.3828-4.9727-11.84 0-4.4531 1.793-8.7227 4.9727-11.84l30.926-30.875-30.832-30.832h0.003906c-3.1836-3.1172-4.9766-7.3828-4.9766-11.84 0-4.4531 1.793-8.7227 4.9766-11.84l5.1133-5.1133c3.168-3.0898 7.4141-4.8203 11.84-4.8203s8.6719 1.7305 11.84 4.8203l47.641 47.973c3.1367 3.0742 4.9258 7.2617 4.9727 11.652z"/>
</svg>
