<svg width="34" height="34" viewBox="0 0 34 34" fill="none" xmlns="http://www.w3.org/2000/svg">
<g clip-path="url(#clip0_2_1561)">
<path fill-rule="evenodd" clip-rule="evenodd" d="M23.3345 10.6066C19.8198 7.09191 14.1213 7.09191 10.6066 10.6066C7.0919 14.1214 7.0919 19.8198 10.6066 23.3346C14.1213 26.8493 19.8198 26.8493 23.3345 23.3346C26.8493 19.8198 26.8493 14.1214 23.3345 10.6066ZM9.19241 9.19242C13.4882 4.89665 20.453 4.89665 24.7488 9.19242C29.0445 13.4882 29.0445 20.453 24.7488 24.7488C20.453 29.0445 13.4882 29.0445 9.19241 24.7488C4.89664 20.453 4.89664 13.4882 9.19241 9.19242ZM20.5061 13.435C20.8966 13.8256 20.8966 14.4587 20.5061 14.8493L18.3848 16.9706L20.5061 19.0919C20.8967 19.4824 20.8967 20.1156 20.5061 20.5061C20.1156 20.8966 19.4824 20.8966 19.0919 20.5061L16.9706 18.3848L14.8492 20.5061C14.4587 20.8966 13.8256 20.8966 13.435 20.5061C13.0445 20.1156 13.0445 19.4824 13.435 19.0919L15.5564 16.9706L13.4351 14.8493C13.0445 14.4587 13.0445 13.8256 13.4351 13.435C13.8256 13.0445 14.4587 13.0445 14.8493 13.435L16.9706 15.5564L19.0919 13.435C19.4824 13.0445 20.1156 13.0445 20.5061 13.435Z" fill="white"/>
</g>
<defs>
<clipPath id="clip0_2_1561">
<rect width="24" height="24" fill="white" transform="translate(16.9706) rotate(45)"/>
</clipPath>
</defs>
</svg>
