
<svg width="752pt" height="752pt" version="1.1" viewBox="0 0 752 752" xmlns="http://www.w3.org/2000/svg">
 <g>
  <path fill="#4E8F37" d="m591.19 414.6c-10.973-2.7969-17.953-21.207-12.023-29.836 3.582-5.4297 4.5078-9.5078-0.47266-14.66-4.6758-4.8828-8.9297-9.3672-16.191-3.8984-2.0273 1.5625-5.0781 1.7539-6.8164 2.3164-8.5391-0.41406-21-8.7852-22.332-14.859-1.2734-6.0078-3.2617-10.02-10.551-10.004l-1.6445-0.066406c-7.1992-0.61328-9.6328 3.2188-11.402 9.1016-1.7031 5.9492-14.934 13.27-23.473 12.98-1.6797-0.70312-4.707-1.1484-6.6016-2.8711-6.7852-6.0469-11.262-1.918-16.457 2.5586-5.2617 4.7266-4.8008 8.8633-1.6719 14.57 4.0781 7.1406-0.23828 19.699-7.7617 25.535 14.332 26.062 28.016 52.547 41.629 79.02 4.4414 2.9688 7.9023 6.6016 8.5391 9.6641 1.2734 6.0742 3.3906 10.027 10.617 10.004l1.582 0.066406c7.1992 0.61328 9.6328-3.1523 11.402-9.1016 1.7031-5.8906 14.934-13.27 23.473-12.918 1.6875 0.63672 4.707 1.207 6.6016 2.8711 6.7773 6.1719 11.262 1.9844 16.457-2.5586 5.2617-4.6016 4.8008-8.8633 1.6719-14.445-5.2031-9.2109 3.2617-26.992 14.43-28.883 6.5703-1 8.2227-4.293 8.7188-8.5781l0.27344-6.6445c-0.15234-4.4141-1.5352-7.7656-7.9961-9.3633zm-30.688 14.141c-2.7812 21.43-21.57 37.707-43.473 37.008-22.074-1.0938-39.469-18.855-40.484-40.445l0.25-6.0742c2.7812-21.562 21.578-37.777 43.664-37.059 22.008 1.0938 39.285 18.789 40.293 40.5z"/>
  <path fill="#4E8F37" d="m502.85 540.02c-23.879-45.367-48.637-91.32-72.59-135.6l-6.6094-12.27c-15.531-28.602-16.914-33.098-14.082-62.934 26.137-10.672 32.594-24.027 28.676-55.164-2.25-17.641-16.258-30.637-33.32-30.773-21.488-0.14844-43.043-0.28906-64.531-0.28906h-17.352c-21.555 0-43.043 0.14844-64.531 0.28906-17.129 0.14844-31.07 13.141-33.395 30.773-3.8477 31.211 2.6133 44.496 28.676 55.164 2.9023 29.836 1.4492 34.336-14.008 62.934l-6.6094 12.27c-24.027 44.281-48.777 90.23-72.664 135.6-9.1445 17.418-10.16 33.684-2.8359 45.805 7.332 12.195 22.355 18.941 42.18 18.941 34.984 0 69.832 0.074219 104.75 0.074219h54.227c34.844 0 69.758-0.074219 104.75-0.074219 19.816 0 34.77-6.75 42.105-18.941 7.3984-12.121 6.3828-28.379-2.8359-45.805zm-13.43 36.008c-3.7734 6.3125-12.992 9.7305-25.914 9.7969-43.992 0.074219-87.836 0.074219-131.82 0.074219-43.918 0-87.836 0-131.75-0.074219-12.992-0.074218-22.141-3.4844-25.988-9.7969-3.6992-6.2461-2.4727-15.895 3.4844-27.148 23.812-45.293 48.562-91.172 72.441-135.53l6.6094-12.121c7.9102-14.668 16.117-29.547 17.277-46.457 0.80078-10.598 3.6992-36.371-8.8594-40.219-3.8477-1.2344-7.6211-2.4727-10.887-4.9375-10.598-7.6953-12.121-21.051-10.02-33.172 0.875-6.9688 6.2461-14.082 14.668-14.156 21.414-0.21484 42.902-0.28906 64.387-0.28906h17.352c21.488 0 42.902 0.074218 64.387 0.28906 8.4219 0.074219 13.719 7.1836 14.668 14.156 2.1016 12.121 0.51172 25.477-10.02 33.172-3.3359 2.4727-7.043 3.6992-10.887 4.9375-12.559 3.8477-9.6562 29.613-8.8594 40.219 1.1602 16.914 9.3672 31.797 17.277 46.457l6.5352 12.121c23.953 44.355 48.703 90.23 72.516 135.53 5.9414 11.246 7.1797 20.902 3.4062 27.148z"/>
  <path fill="#4E8F37" d="m308.27 192.97c-1.3906 10.5-11.543 18.152-21.953 16.559-10.207-1.5586-17.688-11.156-16.621-21.332 1.0664-10.234 11.453-18.367 21.785-17.055 10.527 1.3398 18.188 11.293 16.789 21.828z"/>
  <path fill="#4E8F37" d="m357.67 215.29c-1.3906 10.5-11.543 18.152-21.953 16.559-10.195-1.5625-17.68-11.16-16.621-21.332 1.0664-10.234 11.453-18.367 21.785-17.055 10.531 1.3438 18.188 11.297 16.789 21.828z"/>
  <path fill="#4E8F37" d="m399.27 169.13c-1.3906 10.5-11.543 18.152-21.953 16.559-10.195-1.5625-17.68-11.16-16.621-21.332 1.0664-10.234 11.453-18.367 21.785-17.055 10.531 1.3438 18.188 11.297 16.789 21.828z"/>
  <path fill="#4E8F37" d="m387.29 413.13c-0.80078-1.375-45.805 16.48-49.867 17.781-11.254 3.625-17.277 4.2852-27.66-3.2617-2.4727-1.8125-27.074-26.352-29.547-21.852-21.852 39.996-63.445 115.35-86.383 157.23h275.7c-31.359-57.129-50.09-91.25-82.242-149.9zm65.473 141.48 0.80078 1.375h-2.1758z"/>
 </g>
</svg>
