<svg width="97" height="97" viewBox="0 0 97 97" fill="none" xmlns="http://www.w3.org/2000/svg">
<path d="M27.0693 42.2405C27.2684 42.2407 27.4655 42.2016 27.6494 42.1254C27.8333 42.0492 28.0003 41.9374 28.1409 41.7964C29.0069 40.9422 29.928 40.1456 30.8981 39.4117C31.7705 40.1815 32.8469 40.6825 33.9977 40.8545C35.1484 41.0264 36.3242 40.8619 37.3836 40.3808C38.4429 39.8996 39.3405 39.1224 39.9682 38.1428C40.5959 37.1631 40.9268 36.0228 40.9212 34.8594C40.9212 34.7124 40.8882 34.5743 40.8779 34.4298C41.9607 34.1227 43.0611 33.8811 44.173 33.7064C44.533 33.6538 44.862 33.4732 45.0998 33.1979C45.3376 32.9226 45.4683 32.5708 45.4681 32.207V25.7656C45.4681 25.3637 45.3084 24.9781 45.0242 24.6939C44.7399 24.4097 44.3544 24.25 43.9525 24.25C43.5505 24.25 43.165 24.4097 42.8808 24.6939C42.5965 24.9781 42.4368 25.3637 42.4368 25.7656V30.9283C41.6087 31.089 40.7666 31.3021 39.9209 31.5385C39.2068 30.4463 38.1589 29.6139 36.9334 29.1654C35.708 28.717 34.3704 28.6763 33.1199 29.0496C31.8695 29.4229 30.7731 30.1901 29.994 31.237C29.2149 32.2839 28.7948 33.5544 28.7962 34.8594C28.8025 35.5615 28.9322 36.257 29.1792 36.9143C28.0577 37.7541 26.9947 38.6693 25.9975 39.6534C25.7856 39.8654 25.6413 40.1354 25.5828 40.4294C25.5244 40.7234 25.5544 41.028 25.6691 41.305C25.7838 41.5819 25.978 41.8185 26.2271 41.9851C26.4763 42.1516 26.7693 42.2406 27.069 42.2406L27.0693 42.2405ZM34.8587 31.8281C35.4759 31.8298 36.0778 32.02 36.5838 32.3733C37.0898 32.7266 37.4758 33.226 37.6901 33.8048V33.8063V33.8078C37.8192 34.1435 37.8869 34.4997 37.89 34.8594C37.89 35.4589 37.7122 36.045 37.3791 36.5434C37.046 37.0419 36.5726 37.4305 36.0187 37.6599C35.4648 37.8893 34.8554 37.9493 34.2674 37.8324C33.6793 37.7154 33.1392 37.4267 32.7153 37.0028C32.2914 36.5789 32.0027 36.0387 31.8857 35.4507C31.7688 34.8627 31.8288 34.2533 32.0582 33.6994C32.2876 33.1455 32.6762 32.6721 33.1746 32.339C33.6731 32.0059 34.2592 31.8281 34.8587 31.8281Z" fill="#A3A3A3"/>
<path d="M42.4372 11.8673V15.1562C42.4372 15.5582 42.5969 15.9437 42.8812 16.228C43.1654 16.5122 43.5509 16.6719 43.9529 16.6719C44.3548 16.6719 44.7403 16.5122 45.0246 16.228C45.3088 15.9437 45.4685 15.5582 45.4685 15.1562V10.6094C45.4685 10.2074 45.3088 9.8219 45.0246 9.53766C44.7403 9.25343 44.3548 9.09375 43.9529 9.09375C43.7506 9.09414 43.5505 9.05317 43.3647 8.97336C43.1789 8.89355 43.0113 8.77659 42.8724 8.62966C42.733 8.49255 42.6227 8.32879 42.5479 8.14813C42.4731 7.96748 42.4355 7.77363 42.4372 7.57812C42.4368 7.37618 42.4776 7.17628 42.5573 6.99072C42.637 6.80516 42.7538 6.63787 42.9006 6.49915C43.0376 6.35932 43.2014 6.24857 43.3822 6.17355C43.563 6.09852 43.7571 6.06075 43.9529 6.0625H53.0466C53.2488 6.06211 53.449 6.10308 53.6348 6.18288C53.8206 6.26269 53.9882 6.37965 54.1271 6.52658C54.2665 6.66367 54.3769 6.82743 54.4516 7.00809C54.5264 7.18875 54.564 7.38261 54.5623 7.57812C54.5627 7.78006 54.5219 7.97995 54.4423 8.16551C54.3626 8.35107 54.2458 8.51837 54.0991 8.6571C53.9621 8.79695 53.7982 8.9077 53.6174 8.98273C53.4365 9.05776 53.2424 9.09552 53.0466 9.09375C52.6447 9.09375 52.2592 9.25343 51.9749 9.53766C51.6907 9.8219 51.531 10.2074 51.531 10.6094V32.207C51.531 32.5698 51.6611 32.9205 51.8976 33.1955C52.1342 33.4705 52.4615 33.6515 52.8202 33.7057C56.3594 34.2366 59.7675 35.4266 62.8679 37.2142C63.2163 37.4148 63.6301 37.4688 64.0183 37.3643C64.4065 37.2598 64.7372 37.0054 64.9378 36.657C65.1384 36.3086 65.1924 35.8948 65.0879 35.5066C64.9834 35.1184 64.729 34.7876 64.3806 34.587C61.3341 32.8302 58.0157 31.5941 54.5623 30.9297V11.869C55.1968 11.6475 55.7713 11.282 56.2408 10.8011C56.6667 10.383 57.0056 9.88462 57.2377 9.33477C57.4699 8.78493 57.5907 8.19453 57.5934 7.59769C57.596 7.00085 57.4803 6.40941 57.2529 5.85756C57.0256 5.30571 56.6911 4.80439 56.2688 4.38258C55.8503 3.95216 55.3492 3.61062 54.7955 3.37843C54.2418 3.14623 53.647 3.02815 53.0466 3.03125H43.9529C43.359 3.02687 42.7702 3.14179 42.2216 3.36921C41.6729 3.59662 41.1755 3.9319 40.7588 4.35515C40.3329 4.77325 39.9941 5.27163 39.7619 5.82147C39.5298 6.37132 39.4089 6.96172 39.4063 7.55856C39.4037 8.1554 39.5194 8.74684 39.7467 9.29869C39.9741 9.85054 40.3085 10.3519 40.7308 10.7737C41.2078 11.2648 41.7918 11.6391 42.4372 11.8673Z" fill="#A3A3A3"/>
<path d="M43.9531 18.1875C43.5512 18.1875 43.1656 18.3472 42.8814 18.6314C42.5972 18.9157 42.4375 19.3012 42.4375 19.7031V21.2188C42.4375 21.6207 42.5972 22.0062 42.8814 22.2905C43.1656 22.5747 43.5512 22.7344 43.9531 22.7344C44.3551 22.7344 44.7406 22.5747 45.0248 22.2905C45.3091 22.0062 45.4688 21.6207 45.4688 21.2188V19.7031C45.4688 19.3012 45.3091 18.9157 45.0248 18.6314C44.7406 18.3472 44.3551 18.1875 43.9531 18.1875Z" fill="#A3A3A3"/>
<path d="M62.6721 44.4381C62.8272 44.5629 63.0053 44.6559 63.1964 44.7119C63.3874 44.7678 63.5876 44.7855 63.7856 44.7641C63.9835 44.7426 64.1752 44.6824 64.3499 44.5869C64.5245 44.4913 64.6786 44.3623 64.8034 44.2072C64.9282 44.0521 65.0212 43.8739 65.0771 43.6829C65.1331 43.4918 65.1508 43.2916 65.1294 43.0937C65.1079 42.8958 65.0477 42.7041 64.9522 42.5294C64.8566 42.3548 64.7276 42.2007 64.5725 42.0759C61.0508 39.2379 56.8402 37.3833 52.3691 36.7009C52.1723 36.6711 51.9716 36.6804 51.7784 36.7283C51.5852 36.7761 51.4033 36.8615 51.2431 36.9796C51.0829 37.0978 50.9475 37.2463 50.8447 37.4167C50.7419 37.5872 50.6737 37.7762 50.644 37.973C50.6142 38.1698 50.6235 38.3705 50.6714 38.5638C50.7192 38.757 50.8046 38.9389 50.9228 39.099C51.0409 39.2592 51.1894 39.3946 51.3598 39.4974C51.5303 39.6002 51.7193 39.6684 51.9161 39.6982C55.8573 40.2998 59.5687 41.9353 62.6721 44.4381Z" fill="#A3A3A3"/>
<path d="M46.9844 59.1094C46.5824 59.1094 46.1969 59.2691 45.9127 59.5533C45.6284 59.8375 45.4688 60.223 45.4688 60.625V62.1406C45.4688 62.5426 45.6284 62.9281 45.9127 63.2123C46.1969 63.4966 46.5824 63.6562 46.9844 63.6562C47.3863 63.6562 47.7719 63.4966 48.0561 63.2123C48.3403 62.9281 48.5 62.5426 48.5 62.1406V60.625C48.5 60.223 48.3403 59.8375 48.0561 59.5533C47.7719 59.2691 47.3863 59.1094 46.9844 59.1094Z" fill="#A3A3A3"/>
<path d="M45.4689 42.4375H4.54704C4.24733 42.4376 3.95436 42.5265 3.70517 42.693C3.45599 42.8596 3.26178 43.0963 3.14709 43.3732C3.0324 43.6501 3.00239 43.9548 3.06084 44.2487C3.1193 44.5427 3.26359 44.8127 3.47549 45.0247L12.1252 53.6745V86.3906C12.1275 88.3997 12.9267 90.3259 14.3474 91.7466C15.768 93.1672 17.6942 93.9664 19.7033 93.9688H40.922C42.9312 93.9664 44.8573 93.1672 46.278 91.7466C47.6986 90.3259 48.4978 88.3997 48.5002 86.3906V66.6875C48.5002 66.2855 48.3405 65.9 48.0563 65.6158C47.772 65.3316 47.3865 65.1719 46.9845 65.1719C46.5826 65.1719 46.1971 65.3316 45.9128 65.6158C45.6286 65.9 45.4689 66.2855 45.4689 66.6875V86.3906C45.4676 87.5961 44.9881 88.7519 44.1357 89.6043C43.2833 90.4567 42.1275 90.9362 40.922 90.9375H19.7033C18.4978 90.9362 17.342 90.4567 16.4896 89.6043C15.6372 88.7519 15.1577 87.5961 15.1564 86.3906V53.0469C15.1564 52.645 14.9967 52.2595 14.7125 51.9753L8.20621 45.4688H45.4689V56.0781C45.4689 56.4801 45.6286 56.8656 45.9128 57.1498C46.1971 57.4341 46.5826 57.5938 46.9845 57.5938C47.3865 57.5938 47.772 57.4341 48.0563 57.1498C48.3405 56.8656 48.5002 56.4801 48.5002 56.0781V45.4688C48.4992 44.6651 48.1796 43.8946 47.6113 43.3264C47.043 42.7581 46.2726 42.4384 45.4689 42.4375Z" fill="#A3A3A3"/>
<path d="M30.3125 87.9061H36.375C37.9824 87.9044 39.5234 87.2652 40.66 86.1286C41.7965 84.992 42.4358 83.451 42.4375 81.8436V75.2328C42.4375 74.8308 42.2778 74.4453 41.9936 74.1611C41.7093 73.8768 41.3238 73.7172 40.9219 73.7172C40.5199 73.7172 40.1344 73.8768 39.8502 74.1611C39.5659 74.4453 39.4062 74.8308 39.4062 75.2328V81.8436C39.4053 82.6473 39.0857 83.4178 38.5174 83.986C37.9491 84.5543 37.1787 84.874 36.375 84.8749H30.3125C29.9105 84.8749 29.525 85.0346 29.2408 85.3188C28.9566 85.603 28.7969 85.9885 28.7969 86.3905C28.7969 86.7925 28.9566 87.178 29.2408 87.4622C29.525 87.7464 29.9105 87.9061 30.3125 87.9061Z" fill="#A3A3A3"/>
<path d="M42.4375 59.1094C42.4375 58.7074 42.2778 58.3219 41.9936 58.0377C41.7094 57.7534 41.3238 57.5938 40.9219 57.5938C40.5199 57.5938 40.1344 57.7534 39.8502 58.0377C39.5659 58.3219 39.4062 58.7074 39.4062 59.1094V66.333C39.4062 66.735 39.5659 67.1205 39.8502 67.4047C40.1344 67.6889 40.5199 67.8486 40.9219 67.8486C41.3238 67.8486 41.7094 67.6889 41.9936 67.4047C42.2778 67.1205 42.4375 66.735 42.4375 66.333V59.1094Z" fill="#A3A3A3"/>
<path d="M19.7031 57.5938H27.2812C27.6832 57.5938 28.0687 57.4341 28.353 57.1498C28.6372 56.8656 28.7969 56.4801 28.7969 56.0781C28.7969 55.6762 28.6372 55.2906 28.353 55.0064C28.0687 54.7222 27.6832 54.5625 27.2812 54.5625H19.7031C19.3012 54.5625 18.9157 54.7222 18.6314 55.0064C18.3472 55.2906 18.1875 55.6762 18.1875 56.0781C18.1875 56.4801 18.3472 56.8656 18.6314 57.1498C18.9157 57.4341 19.3012 57.5938 19.7031 57.5938Z" fill="#A3A3A3"/>
<path d="M19.7031 63.6562H22.7344C23.1363 63.6562 23.5218 63.4966 23.8061 63.2123C24.0903 62.9281 24.25 62.5426 24.25 62.1406C24.25 61.7387 24.0903 61.3531 23.8061 61.0689C23.5218 60.7847 23.1363 60.625 22.7344 60.625H19.7031C19.3012 60.625 18.9157 60.7847 18.6314 61.0689C18.3472 61.3531 18.1875 61.7387 18.1875 62.1406C18.1875 62.5426 18.3472 62.9281 18.6314 63.2123C18.9157 63.4966 19.3012 63.6562 19.7031 63.6562Z" fill="#A3A3A3"/>
<path d="M19.7031 69.7188H27.2812C27.6832 69.7188 28.0687 69.5591 28.353 69.2748C28.6372 68.9906 28.7969 68.6051 28.7969 68.2031C28.7969 67.8012 28.6372 67.4156 28.353 67.1314C28.0687 66.8472 27.6832 66.6875 27.2812 66.6875H19.7031C19.3012 66.6875 18.9157 66.8472 18.6314 67.1314C18.3472 67.4156 18.1875 67.8012 18.1875 68.2031C18.1875 68.6051 18.3472 68.9906 18.6314 69.2748C18.9157 69.5591 19.3012 69.7188 19.7031 69.7188Z" fill="#A3A3A3"/>
<path d="M19.7031 75.7812H22.7344C23.1363 75.7812 23.5218 75.6216 23.8061 75.3373C24.0903 75.0531 24.25 74.6676 24.25 74.2656C24.25 73.8637 24.0903 73.4781 23.8061 73.1939C23.5218 72.9097 23.1363 72.75 22.7344 72.75H19.7031C19.3012 72.75 18.9157 72.9097 18.6314 73.1939C18.3472 73.4781 18.1875 73.8637 18.1875 74.2656C18.1875 74.6676 18.3472 75.0531 18.6314 75.3373C18.9157 75.6216 19.3012 75.7812 19.7031 75.7812Z" fill="#A3A3A3"/>
<path d="M19.7031 81.8438H27.2812C27.6832 81.8438 28.0687 81.6841 28.353 81.3998C28.6372 81.1156 28.7969 80.7301 28.7969 80.3281C28.7969 79.9262 28.6372 79.5406 28.353 79.2564C28.0687 78.9722 27.6832 78.8125 27.2812 78.8125H19.7031C19.3012 78.8125 18.9157 78.9722 18.6314 79.2564C18.3472 79.5406 18.1875 79.9262 18.1875 80.3281C18.1875 80.7301 18.3472 81.1156 18.6314 81.3998C18.9157 81.6841 19.3012 81.8438 19.7031 81.8438Z" fill="#A3A3A3"/>
<path d="M93.3229 85.1946L78.8115 56.1744V53.0469C78.8115 52.6449 78.6518 52.2594 78.3676 51.9752C78.0834 51.6909 77.6979 51.5312 77.2959 51.5312C76.8939 51.5312 76.5084 51.6909 76.2242 51.9752C75.9399 52.2594 75.7803 52.6449 75.7803 53.0469V56.5328C75.7803 56.7681 75.835 57.0002 75.9402 57.2108L90.6114 86.5508C90.8443 87.0126 90.9544 87.5266 90.9311 88.0432C90.9078 88.5599 90.7518 89.0618 90.4782 89.5007C90.2108 89.944 89.8322 90.3098 89.3799 90.5618C88.9276 90.8138 88.4174 90.9433 87.8997 90.9375H57.1446C56.6276 90.9393 56.1188 90.808 55.6672 90.5562C55.2156 90.3043 54.8365 89.9405 54.5664 89.4996C54.2895 89.0621 54.1317 88.5598 54.1086 88.0426C54.0855 87.5253 54.1979 87.011 54.4347 86.5505L69.5583 56.3017C69.6633 56.091 69.7178 55.8588 69.7178 55.6234V31.8281H75.7803V42.4375C75.7803 42.8395 75.9399 43.225 76.2242 43.5092C76.5084 43.7934 76.8939 43.9531 77.2959 43.9531C77.6979 43.9531 78.0834 43.7934 78.3676 43.5092C78.6518 43.225 78.8115 42.8395 78.8115 42.4375V31.8281C78.8106 31.0245 78.4909 30.254 77.9227 29.6857C77.3544 29.1175 76.5839 28.7978 75.7803 28.7969H69.7178C68.9141 28.7978 68.1436 29.1175 67.5754 29.6857C67.0071 30.254 66.6874 31.0245 66.6865 31.8281V55.2664L51.7227 85.1946C51.2605 86.1189 51.0423 87.146 51.0886 88.1783C51.135 89.2107 51.4445 90.214 51.9877 91.0931C52.531 91.9722 53.2899 92.6979 54.1924 93.2012C55.095 93.7045 56.1112 93.9687 57.1446 93.9688H87.8997C88.9332 93.9689 89.9496 93.7048 90.8523 93.2017C91.755 92.6985 92.5141 91.9728 93.0575 91.0937C93.6009 90.2146 93.9105 89.2111 93.957 88.1787C94.0034 87.1462 93.7851 86.119 93.3229 85.1946Z" fill="#A3A3A3"/>
<path d="M77.2969 45.4688C76.8949 45.4688 76.5094 45.6284 76.2252 45.9127C75.9409 46.1969 75.7812 46.5824 75.7812 46.9844V48.5C75.7812 48.902 75.9409 49.2875 76.2252 49.5717C76.5094 49.8559 76.8949 50.0156 77.2969 50.0156C77.6988 50.0156 78.0844 49.8559 78.3686 49.5717C78.6528 49.2875 78.8125 48.902 78.8125 48.5V46.9844C78.8125 46.5824 78.6528 46.1969 78.3686 45.9127C78.0844 45.6284 77.6988 45.4688 77.2969 45.4688Z" fill="#A3A3A3"/>
<path d="M71.0068 86.3906C71.0068 86.7926 71.1665 87.1781 71.4508 87.4623C71.735 87.7466 72.1205 87.9062 72.5225 87.9062H82.9954C83.5122 87.9063 84.0204 87.7743 84.4717 87.5227C84.9231 87.2711 85.3026 86.9083 85.5743 86.4687C85.846 86.0292 86.0008 85.5275 86.0241 85.0112C86.0473 84.495 85.9382 83.9814 85.7071 83.5193L79.3307 70.7659C79.1509 70.4063 78.8356 70.1329 78.4543 70.0058C78.0729 69.8786 77.6566 69.9082 77.2971 70.088C76.9375 70.2678 76.6641 70.583 76.537 70.9644C76.4098 71.3458 76.4394 71.762 76.6192 72.1216L82.9954 84.875H72.5225C72.1205 84.875 71.735 85.0347 71.4508 85.3189C71.1665 85.6031 71.0068 85.9886 71.0068 86.3906Z" fill="#A3A3A3"/>
<path d="M12.125 37.8906C13.324 37.8906 14.4962 37.5351 15.4931 36.8689C16.4901 36.2028 17.2672 35.2559 17.726 34.1481C18.1849 33.0404 18.3049 31.8214 18.071 30.6454C17.8371 29.4694 17.2597 28.3892 16.4118 27.5413C15.564 26.6934 14.4837 26.116 13.3077 25.8821C12.1317 25.6482 10.9128 25.7683 9.80498 26.2271C8.6972 26.686 7.75037 27.463 7.08422 28.46C6.41806 29.457 6.0625 30.6291 6.0625 31.8281C6.06419 33.4355 6.70345 34.9765 7.84003 36.1131C8.9766 37.2497 10.5176 37.8889 12.125 37.8906ZM12.125 28.7969C12.7245 28.7969 13.3106 28.9747 13.8091 29.3077C14.3076 29.6408 14.6961 30.1142 14.9255 30.6681C15.1549 31.222 15.215 31.8315 15.098 32.4195C14.981 33.0075 14.6923 33.5476 14.2684 33.9715C13.8445 34.3955 13.3044 34.6842 12.7164 34.8011C12.1284 34.9181 11.5189 34.8581 10.965 34.6286C10.4111 34.3992 9.93769 34.0107 9.60461 33.5122C9.27153 33.0137 9.09375 32.4277 9.09375 31.8281C9.09467 31.0245 9.41433 30.254 9.9826 29.6857C10.5509 29.1175 11.3213 28.7978 12.125 28.7969Z" fill="#A3A3A3"/>
<path d="M19.7031 22.7344C20.6024 22.7344 21.4815 22.4677 22.2292 21.9681C22.977 21.4685 23.5597 20.7583 23.9039 19.9275C24.248 19.0967 24.3381 18.1825 24.1626 17.3005C23.9872 16.4184 23.5541 15.6083 22.9183 14.9724C22.2824 14.3365 21.4722 13.9034 20.5902 13.728C19.7082 13.5526 18.7939 13.6426 17.9631 13.9867C17.1323 14.3309 16.4222 14.9137 15.9225 15.6614C15.4229 16.4091 15.1563 17.2882 15.1562 18.1875C15.1576 19.393 15.637 20.5487 16.4895 21.4012C17.3419 22.2536 18.4976 22.7331 19.7031 22.7344ZM19.7031 16.6719C20.0029 16.6719 20.2959 16.7608 20.5452 16.9273C20.7944 17.0938 20.9887 17.3306 21.1034 17.6075C21.2181 17.8844 21.2481 18.1892 21.1896 18.4832C21.1311 18.7772 20.9868 19.0472 20.7748 19.2592C20.5629 19.4712 20.2928 19.6155 19.9988 19.674C19.7048 19.7325 19.4001 19.7025 19.1231 19.5878C18.8462 19.473 18.6095 19.2788 18.4429 19.0295C18.2764 18.7803 18.1875 18.4873 18.1875 18.1875C18.1879 17.7856 18.3477 17.4004 18.6318 17.1162C18.916 16.832 19.3013 16.6722 19.7031 16.6719Z" fill="#A3A3A3"/>
<path d="M74.2656 21.2188C74.2656 22.118 74.5323 22.9971 75.0319 23.7449C75.5315 24.4926 76.2417 25.0754 77.0725 25.4195C77.9033 25.7637 78.8175 25.8537 79.6995 25.6783C80.5816 25.5028 81.3917 25.0698 82.0276 24.4339C82.6635 23.798 83.0966 22.9878 83.272 22.1058C83.4474 21.2238 83.3574 20.3096 83.0133 19.4787C82.6691 18.6479 82.0863 17.9378 81.3386 17.4382C80.5909 16.9385 79.7118 16.6719 78.8125 16.6719C77.607 16.6732 76.4513 17.1527 75.5988 18.0051C74.7464 18.8575 74.2669 20.0133 74.2656 21.2188ZM78.8125 19.7031C79.1123 19.7031 79.4053 19.792 79.6545 19.9586C79.9038 20.1251 80.098 20.3618 80.2128 20.6387C80.3275 20.9157 80.3575 21.2204 80.299 21.5144C80.2405 21.8084 80.0962 22.0785 79.8842 22.2905C79.6722 22.5024 79.4022 22.6468 79.1082 22.7053C78.8142 22.7637 78.5094 22.7337 78.2325 22.619C77.9556 22.5043 77.7188 22.31 77.5523 22.0608C77.3858 21.8115 77.2969 21.5185 77.2969 21.2188C77.2972 20.8169 77.457 20.4316 77.7412 20.1474C78.0253 19.8633 78.4106 19.7035 78.8125 19.7031Z" fill="#A3A3A3"/>
<path d="M69.7188 15.1563C70.9178 15.1563 72.0899 14.8007 73.0869 14.1345C74.0839 13.4684 74.8609 12.5215 75.3198 11.4138C75.7786 10.306 75.8987 9.08703 75.6648 7.91102C75.4309 6.73501 74.8535 5.65477 74.0056 4.80692C73.1577 3.95906 72.0775 3.38166 70.9015 3.14774C69.7255 2.91382 68.5065 3.03388 67.3987 3.49273C66.291 3.95159 65.3441 4.72863 64.678 5.72561C64.0118 6.72258 63.6562 7.8947 63.6562 9.09375C63.6579 10.7011 64.2972 12.2422 65.4338 13.3787C66.5704 14.5153 68.1114 15.1546 69.7188 15.1563ZM69.7188 6.0625C70.3183 6.0625 70.9043 6.24028 71.4028 6.57336C71.9013 6.90644 72.2898 7.37985 72.5193 7.93374C72.7487 8.48763 72.8087 9.09712 72.6918 9.68512C72.5748 10.2731 72.2861 10.8132 71.8622 11.2372C71.4382 11.6611 70.8981 11.9498 70.3101 12.0668C69.7221 12.1837 69.1126 12.1237 68.5587 11.8943C68.0049 11.6648 67.5314 11.2763 67.1984 10.7778C66.8653 10.2793 66.6875 9.69328 66.6875 9.09375C66.6884 8.2901 67.0081 7.51962 67.5764 6.95135C68.1446 6.38308 68.9151 6.06343 69.7188 6.0625Z" fill="#A3A3A3"/>
<path d="M10.6094 12.125C11.5087 12.125 12.3878 11.8583 13.1355 11.3587C13.8832 10.8591 14.466 10.149 14.8101 9.31814C15.1543 8.48731 15.2443 7.57308 15.0689 6.69108C14.8934 5.80907 14.4604 4.99889 13.8245 4.363C13.1886 3.72711 12.3784 3.29406 11.4964 3.11862C10.6144 2.94318 9.70019 3.03322 8.86936 3.37736C8.03853 3.7215 7.3284 4.30429 6.82879 5.05202C6.32917 5.79975 6.0625 6.67884 6.0625 7.57813C6.06382 8.78363 6.54329 9.93937 7.39571 10.7918C8.24813 11.6442 9.40388 12.1237 10.6094 12.125ZM10.6094 6.0625C10.9091 6.0625 11.2022 6.15139 11.4514 6.31793C11.7007 6.48447 11.8949 6.72118 12.0096 6.99812C12.1243 7.27507 12.1544 7.57981 12.0959 7.87381C12.0374 8.16781 11.893 8.43787 11.6811 8.64984C11.4691 8.8618 11.1991 9.00615 10.9051 9.06463C10.6111 9.12311 10.3063 9.0931 10.0294 8.97838C9.75243 8.86367 9.51572 8.66941 9.34918 8.42016C9.18264 8.17092 9.09375 7.87789 9.09375 7.57813C9.09411 7.17627 9.25391 6.79097 9.53807 6.50682C9.82222 6.22266 10.2075 6.06286 10.6094 6.0625Z" fill="#A3A3A3"/>
</svg>
