<svg xmlns="http://www.w3.org/2000/svg" viewBox="0 0 100 48"><path d="M58.6 32.2v-1.5s-.1-1.2-1.3-1.2h-2v2.7h-2v-7.6h4.9s2.5-.3 2.5 2.2c0 1.3-1.1 1.8-1.1 1.8s1 .4 1 1.7v1.9h-2m-3.3-4.5h2.1c.6 0 1.1-.3 1.1-.7 0-.4-.5-.7-1.1-.7h-2.1v1.4m-10.1 4.5h-1.8l-2.1-2.3-2.1 2.3h-7.5v-7.7H39l2.3 2.4 2.3-2.4H50s2.5-.3 2.5 2.2c0 2.3-.8 3-3.4 3h-2v2.5h-1.9m-2.6-3.8l2.5 2.7v-5.3l-2.5 2.6m-8.9 2.1h4.2l2-2.1-2-2.1h-4.2v1.2h4.1v1.7h-4.1v1.3m13.4-2.8h2.1c.6 0 1.1-.3 1.1-.7 0-.4-.5-.7-1.1-.7h-2.1v1.4m25.2 4.5h-3.6v-1.8h3.1s1.1.1 1.1-.6-1.7-.6-1.7-.6-2.8.2-2.8-2.3 2.5-2.4 2.5-2.4h3.9v1.8h-3.1s-1.1-.2-1.1.5c0 .6 1.5.5 1.5.5s3.1-.2 3.1 2.1c0 2.5-2 2.7-2.7 2.7-.1.1-.2.1-.2.1m-10.8 0v-7.6h6.3v1.8h-4.2v1.2h4.1v1.7h-4.1v1.3h4.2v1.7h-6.3m17.8-.1h-3.6v-1.8h3.1s1.1.1 1.1-.6-1.7-.6-1.7-.6-2.8.2-2.8-2.3 2.5-2.4 2.5-2.4h3.8v1.8h-3.1s-1.1-.2-1.1.5c0 .6 1.5.5 1.5.5s3.1-.2 3.1 2.1c0 2.5-2 2.7-2.7 2.7 0 .1-.1.1-.1.1m-28-8.2v-1.5s-.1-1.2-1.3-1.2h-2V24h-2v-7.6h4.9s2.5-.3 2.5 2.2c0 1.3-1.1 1.8-1.1 1.8s1 .4 1 1.7V24h-2M48 19.5h2.1c.6 0 1.1-.3 1.1-.7 0-.4-.5-.7-1.1-.7H48v1.4M75 24l-3.2-5.1V24h-3.9l-.7-1.6h-3.7l-.7 1.6h-3.1s-2.7-.4-2.7-3.6c0-4.2 3.1-4.1 3.2-4.1l2.5.1V18h-2s-1.3 0-1.5 1.7v.5c0 2.6 2.3 1.8 2.4 1.8l2.5-5.7h2.8l3 6.9v-6.9h2.8l3.1 5v-5h2V24H75m-10.6-3.6h2l-1-2.3-1 2.3M35.3 24v-5.3L32.7 24h-1.6l-2.5-5.3V24h-4l-.7-1.6h-3.7l-.7 1.6h-2.2l3.3-7.6h2.8l3.1 7v-7h3.2l2.2 4.8 2.2-4.8h3.2V24h-2m-14.2-3.5h2l-1-2.3-1 2.3M38.7 24v-7.6H45v1.8h-4.2v1.2h4.1V21h-4.1v1.3H45V24h-6.3m15.6 0v-7.7h2V24h-2" fill="#008bb6"/></svg>