<?xml version="1.0" encoding="utf-8"?>
<!-- Generator: Adobe Illustrator 21.0.0, SVG Export Plug-In . SVG Version: 6.00 Build 0)  -->
<svg version="1.1" id="Layer_1" xmlns="http://www.w3.org/2000/svg" xmlns:xlink="http://www.w3.org/1999/xlink" x="0px" y="0px"
	 viewBox="0 0 100 48" style="enable-background:new 0 0 100 48;" xml:space="preserve">
<style type="text/css">
	.st0{fill:#FE0000;}
	.st1{fill:#0B3084;}
	.st2{fill:#026B6F;}
	.st3{fill:#FFFFFF;}
</style>
<g>
	<path class="st0" d="M37.4,11.1h10.4c1.4,0,2.3,1.2,2,2.6L45,34.4c-0.4,1.4-1.8,2.6-3.2,2.6H31.4c-1.4,0-2.3-1.2-2-2.6l4.8-20.6
		C34.5,12.2,36,11.1,37.4,11.1z"/>
	<path class="st1" d="M46.8,11.1h11.9c1.4,0,0.8,1.2,0.5,2.6l-4.8,20.6c-0.3,1.4-0.2,2.6-1.7,2.6H40.8c-1.4,0-2.3-1.2-2-2.6
		l4.8-20.6C44,12.2,45.4,11.1,46.8,11.1z"/>
	<path class="st2" d="M58.3,11.1h10.4c1.4,0,2.3,1.2,2,2.6l-4.8,20.6C65.5,35.8,64,37,62.6,37H52.3c-1.4,0-2.3-1.2-2-2.6L55,13.7
		C55.4,12.2,56.8,11.1,58.3,11.1L58.3,11.1z"/>
	<path class="st3" d="M56.6,30.5h1l0.3-0.9h-1L56.6,30.5z M57.4,27.9L57.1,29c0,0,0.4-0.2,0.6-0.2c0.2-0.1,0.5-0.1,0.5-0.1l0.2-0.8
		L57.4,27.9 M57.8,26.3l-0.3,1.1c0,0,0.4-0.2,0.5-0.2c0.2-0.1,0.5-0.1,0.5-0.1l0.2-0.8H57.8 M60,26.3l-1.3,4.2h0.4l-0.3,0.8h-0.3
		l-0.1,0.3h-1.2l0.1-0.3h-2.4l0.2-0.8h0.2l1.3-4.2l0.2-0.8H58L57.9,26c0,0,0.3-0.2,0.6-0.3c0.3-0.1,2.1-0.1,2.1-0.1l-0.2,0.8
		L60,26.3"/>
	<path class="st3" d="M60.5,25.4h1.3v0.5c0,0.1,0.1,0.2,0.2,0.2h0.3l-0.2,0.8h-0.7c-0.6,0.1-0.8-0.2-0.8-0.5L60.5,25.4z M60.7,29.3
		h-1.3l0.2-0.8h1.4l0.2-0.7h-1.4l0.2-0.8H64l-0.2,0.8h-1.3l-0.2,0.7h1.3l-0.2,0.8H62l-0.2,0.3h0.6l0.2,0.9c0,0.1,0,0.2,0.1,0.2
		c0,0,0.2,0.1,0.3,0.1h0.2l-0.3,0.9H62c-0.2,0-0.2-0.1-0.3-0.2s-0.2-0.2-0.2-0.3l-0.2-0.9l-0.7,0.9c-0.2,0.3-0.5,0.5-1,0.5h-0.9
		l0.2-0.8h0.4c0.1,0,0.2-0.1,0.2-0.1c0.1,0,0.2-0.1,0.2-0.2L60.7,29.3L60.7,29.3z M47.1,27.3h3.3l-0.2,0.8h-1.4l-0.2,0.7h1.3
		l-0.2,0.8h-1.3L48,30.7c-0.1,0.2,0.3,0.2,0.4,0.2l0.7-0.1l-0.3,0.9h-1.5c-0.2,0-0.2,0-0.4-0.1c-0.2,0-0.2-0.1-0.2-0.2
		s-0.2-0.2-0.1-0.4l0.4-1.4h-0.8l0.2-0.8h0.8l0.2-0.7h-0.8L47.1,27.3L47.1,27.3z M49.3,25.9h1.3l-0.2,0.8h-1.9l-0.2,0.2
		c-0.1,0.1-0.2,0.1-0.2,0.1c-0.1,0.1-0.3,0.2-0.6,0.2h-0.6l0.2-0.8h0.2c0.2,0,0.2,0,0.3-0.1l0.2-0.2l0.4-0.6h1.3L49.3,25.9
		L49.3,25.9z"/>
	<path class="st3" d="M51.9,27.2c0,0,0.4-0.3,1-0.5h1.1l0.2-0.5h-1.9L51.9,27.2z M53.7,27.6h-1.9L51.6,28h1.9L53.7,27.6 M51.2,25.4
		h1.1L52.2,26c0,0,0.4-0.3,0.6-0.4c0.2-0.1,0.8-0.2,0.8-0.2h1.9l-0.6,2.1c-0.1,0.4-0.2,0.6-0.3,0.7s-0.2,0.2-0.3,0.3
		c-0.2,0.1-0.3,0.2-0.5,0.2h-2.4l-0.5,1.7c-0.1,0.2-0.1,0.2-0.1,0.3s0.1,0.1,0.2,0.1l0.8-0.1l-0.3,0.9H50c-0.2,0-0.3,0-0.4-0.1
		s-0.2-0.2-0.2-0.3c0-0.1,0.1-0.2,0.1-0.5L51.2,25.4"/>
	<path class="st3" d="M54.6,28.9l-0.1,0.5c-0.1,0.2-0.1,0.3-0.2,0.4C54.1,29.9,54,30,53.7,30H53v0.6c0,0.2,0,0.2,0.1,0.2l0.1,0.1H54
		l-0.2,0.8h-0.7c-0.5,0-0.8,0-1-0.1C52,31.5,52,31.4,52,31.3L52,29h1.1v0.5h0.5c0,0,0.1-0.1,0.1-0.2l0.1-0.4L54.6,28.9L54.6,28.9z
		 M38.7,17.6c-0.1,0.2-0.8,3.5-0.8,3.5c-0.2,0.7-0.3,1.1-0.7,1.4c-0.2,0.2-0.4,0.3-0.8,0.3c-0.4,0-0.8-0.2-0.8-0.7v-0.2l0.2-0.9
		c0,0,0.8-3,0.9-3.4v-0.1H35l-0.1,0.2l-0.8,3.4l-0.1,0.3l-0.2,1c0,0.3,0.1,0.5,0.2,0.7c0.4,0.6,1.3,0.7,1.9,0.7
		c0.8,0,1.4-0.2,1.9-0.5c0.8-0.5,1-1.2,1.2-1.9l0.1-0.3c0,0,0.8-3.2,0.9-3.5v-0.1C39.1,17.7,38.7,17.7,38.7,17.6L38.7,17.6z
		 M42.9,23.9h-1.3v-0.1c0.1-0.2,0.1-0.5,0.2-0.7l0.1-0.3c0.1-0.5,0.2-1,0.2-1.2c0-0.1,0.1-0.4-0.2-0.4c-0.2,0-0.2,0.1-0.4,0.2
		c-0.1,0.2-0.2,1-0.3,1.3c-0.2,0.7-0.2,0.8-0.2,1.1l-0.1,0.1h-1.3v-0.1c0.1-0.5,0.2-0.8,0.3-1.3c0.2-1.1,0.3-1.6,0.4-2.2h0.1
		c0.6-0.1,0.8-0.1,1.4-0.2l0.1,0.1l-0.1,0.4c0.1-0.1,0.2-0.2,0.3-0.2c0.3-0.2,0.7-0.2,0.8-0.2c0.3,0,0.6,0.1,0.8,0.4
		s0.1,0.7-0.2,1.3l-0.1,0.4C43.1,23.1,43.1,23.3,42.9,23.9L42.9,23.9z M45,23.9h-1.3c0.1-0.3,0.2-0.4,0.2-0.5
		c0.1-0.1,0.1-0.2,0.2-0.5c0.1-0.4,0.2-0.7,0.2-0.9c0.1-0.2,0.1-0.5,0.1-0.7c0.3-0.1,0.5-0.1,0.7-0.1c0.2,0,0.4-0.1,0.8-0.2
		c-0.1,0.2-0.2,0.5-0.2,0.8c-0.1,0.2-0.2,0.5-0.2,0.8c-0.2,0.5-0.2,0.8-0.2,0.8C45.1,23.5,45.1,23.6,45,23.9L45,23.9z M48.3,22.1
		c0,0.2-0.2,0.6-0.3,0.8c-0.1,0.2-0.2,0.2-0.4,0.2c-0.1,0-0.3,0-0.3-0.4c0-0.2,0-0.4,0.1-0.6c0.2-0.6,0.3-1.1,0.7-1.1
		C48.4,21,48.5,21.5,48.3,22.1L48.3,22.1z M49.7,22.1c0.2-0.8,0.1-1.2-0.2-1.4c-0.3-0.4-0.8-0.5-1.3-0.5c-0.3,0-1,0-1.6,0.5
		c-0.4,0.4-0.6,0.9-0.7,1.3c-0.1,0.5-0.2,1.3,0.6,1.7c0.2,0.1,0.6,0.2,0.8,0.2c0.6,0,1.2-0.2,1.7-0.7C49.5,22.9,49.6,22.4,49.7,22.1
		 M62.4,23.9H61v-0.1l0.5-1.8c0.2-0.8,0.2-1.1,0.3-1.6l0.1-0.1c0.6-0.1,0.8-0.2,1.4-0.2v0.1c-0.2,0.5-0.2,1-0.4,1.5
		C62.6,22.8,62.5,23.3,62.4,23.9z"/>
	<path class="st3" d="M61.5,22.1c0,0.2-0.2,0.6-0.3,0.8c-0.1,0.2-0.4,0.2-0.5,0.2c-0.1,0-0.3,0-0.3-0.4c0-0.2,0-0.4,0.1-0.6
		c0.2-0.6,0.3-1.1,0.7-1.1C61.5,21.2,61.6,21.5,61.5,22.1z M62.7,22.1c0.2-0.8-0.5-0.1-0.7-0.3c-0.2-0.4-0.1-1.2-0.8-1.5
		c-0.3-0.1-0.9,0-1.5,0.5c-0.4,0.4-0.6,0.8-0.7,1.3c-0.2,0.5-0.2,1.3,0.5,1.7c0.2,0.1,0.5,0.2,0.8,0.2c0.8-0.1,1.4-1.3,1.9-1.7
		C62.6,21.8,62.7,22.4,62.7,22.1 M53.2,23.9h-1.3v-0.1c0.1-0.2,0.1-0.5,0.2-0.7l0.1-0.3c0.2-0.5,0.2-1,0.2-1.2
		c0-0.1,0.1-0.4-0.2-0.4c-0.2,0-0.2,0.1-0.4,0.2c-0.1,0.2-0.2,1-0.3,1.3c-0.2,0.7-0.2,0.8-0.2,1.1l-0.1,0.1h-1.3v-0.1
		c0.1-0.5,0.2-0.8,0.3-1.3c0.2-1.1,0.3-1.6,0.4-2.2h0.1c0.6-0.1,0.8-0.1,1.4-0.2l0.1,0.1L52,20.6c0.1-0.1,0.2-0.2,0.3-0.2
		c0.3-0.2,0.7-0.2,0.8-0.2c0.3,0,0.6,0.1,0.8,0.4s0.1,0.7-0.2,1.3l-0.1,0.4C53.5,23.1,53.4,23.3,53.2,23.9L53.2,23.9z M57.7,17.6
		h-2.2c0,0.1-0.1,0.2-0.1,0.2l-0.4,1.9c0,0-1,4-1,4.1h1.6c0.1-0.2,0.3-1.3,0.3-1.3l0.2-0.8l0.2-0.2h0.1c0.8,0,1.8,0,2.6-0.5
		c0.5-0.4,0.8-0.9,1-1.6c0.1-0.2,0.1-0.4,0.1-0.5c0-0.2-0.1-0.5-0.2-0.8C59.4,17.6,58.6,17.6,57.7,17.6L57.7,17.6z M58.3,19.6
		c-0.1,0.5-0.4,0.8-0.7,0.9c-0.3,0.2-0.6,0.2-1,0.2h-0.2v-0.1l0.5-1.9v-0.2h0.2l0.9,0.1C58.3,18.8,58.4,19.1,58.3,19.6 M67.6,20.3
		c-0.7,0.1-0.8,0.1-1.4,0.2l-0.1,0.1c-0.5,1-0.5,0.8-0.8,1.6V22l-0.1-1.7l-0.1-0.1c-0.7,0.2-0.7,0.2-1.3,0.2l-0.1,0.1v0.1
		c0.1,0.4,0.1,0.3,0.2,0.9c0,0.3,0.1,0.6,0.2,0.9c0.1,0.5,0.1,0.8,0.2,1.5c-0.5,0.7-0.5,1-0.9,1.6v0.1h1.2l0.1-0.1
		C64.9,24.7,67.6,20.3,67.6,20.3L67.6,20.3z M45.6,20.7c0.4-0.2,0.4-0.6,0.1-0.8c-0.3-0.2-0.8-0.2-1.1,0.2c-0.4,0.2-0.4,0.6-0.1,0.8
		C44.7,21,45.3,20.9,45.6,20.7z"/>
	<path class="st3" d="M64.6,25.5L64,26.4c-0.2,0.3-0.5,0.5-0.9,0.5h-0.8l0.2-0.8h0.3c0.1,0,0.1-0.1,0.1-0.1l0.3-0.5h1.3L64.6,25.5z"
		/>
</g>
</svg>
